<svg xmlns="http://www.w3.org/2000/svg" viewBox="0 0 42 151"><title>Process column 3(工艺塔3)</title><defs><linearGradient id="a" x1="40.168%" x2="79.93%" y1="50%" y2="50%"><stop offset="2%" stop-color="#767b82"/><stop offset="4%" stop-color="#d7dce0"/><stop offset="9%" stop-color="#9ba1ab"/><stop offset="92%" stop-color="#9ba1ab"/><stop offset="100%" stop-color="#767b82"/></linearGradient><linearGradient id="b" x1="59.832%" x2="20.07%" y1="50%" y2="50%"><stop offset="2%" stop-color="#767b82"/><stop offset="4%" stop-color="#d7dce0"/><stop offset="9%" stop-color="#9ba1ab"/><stop offset="92%" stop-color="#9ba1ab"/><stop offset="100%" stop-color="#767b82"/></linearGradient><linearGradient id="c" x1="-2346.256%" x2="-2346.256%" y1="2230.586%" y2="2269.221%"><stop offset="2%" stop-color="#767b82"/><stop offset="4%" stop-color="#d7dce0"/><stop offset="9%" stop-color="#9ba1ab"/><stop offset="92%" stop-color="#9ba1ab"/><stop offset="100%" stop-color="#767b82"/></linearGradient><linearGradient id="d" x1="58.319%" x2="18.558%" y1="50.032%" y2="50.032%"><stop offset="2%" stop-color="#767b82"/><stop offset="4%" stop-color="#d7dce0"/><stop offset="9%" stop-color="#9ba1ab"/><stop offset="92%" stop-color="#9ba1ab"/><stop offset="100%" stop-color="#767b82"/></linearGradient><linearGradient id="e" x1="-2613.85%" x2="-2613.85%" y1="2640.991%" y2="2679.601%"><stop offset="2%" stop-color="#767b82"/><stop offset="4%" stop-color="#d7dce0"/><stop offset="9%" stop-color="#9ba1ab"/><stop offset="92%" stop-color="#9ba1ab"/><stop offset="100%" stop-color="#767b82"/></linearGradient><linearGradient id="f" x1="56.997%" x2="17.235%" y1="50%" y2="50%"><stop offset="2%" stop-color="#767b82"/><stop offset="4%" stop-color="#d7dce0"/><stop offset="9%" stop-color="#9ba1ab"/><stop offset="92%" stop-color="#9ba1ab"/><stop offset="100%" stop-color="#767b82"/></linearGradient><linearGradient id="g" x1="100.045%" x2="0%" y1="50%" y2="50%"><stop offset="0%" stop-color="#767b82"/><stop offset="7%" stop-color="#9ba1ab"/><stop offset="22%" stop-color="#e2eaf2"/><stop offset="28%" stop-color="#d1d8e0"/><stop offset="49%" stop-color="#a1a7ae"/><stop offset="67%" stop-color="#7e8489"/><stop offset="81%" stop-color="#696e73"/><stop offset="91%" stop-color="#61666b"/><stop offset="100%" stop-color="#a9b1bb"/></linearGradient><linearGradient id="h" x1="49.977%" x2="49.977%" y1="0%" y2="100%"><stop offset="0%" stop-color="#2e3033"/><stop offset="100%" stop-color="#9ba1ab" stop-opacity="0"/></linearGradient><linearGradient id="i" x1="49.977%" x2="49.977%" y1="0%" y2="100%"><stop offset="0%" stop-color="#2e3033"/><stop offset="100%" stop-color="#9ba1ab" stop-opacity="0"/></linearGradient><linearGradient id="j" x1="468.368%" x2="567.842%" y1="48.783%" y2="48.783%"><stop offset="0%" stop-color="#a9b1bb"/><stop offset="6%" stop-color="#5d6166"/><stop offset="78%" stop-color="#eef7ff"/><stop offset="93%" stop-color="#9ba1ab"/><stop offset="100%" stop-color="#767b82"/></linearGradient><linearGradient id="k" x1="176126.316%" x2="176284.211%" y1="-298.171%" y2="-298.171%"><stop offset="0%" stop-color="#a9b1bb"/><stop offset="6%" stop-color="#5d6166"/><stop offset="78%" stop-color="#eef7ff"/><stop offset="93%" stop-color="#9ba1ab"/><stop offset="100%" stop-color="#767b82"/></linearGradient><linearGradient id="l" x1="61.105%" x2="160.579%" y1="56.386%" y2="56.386%"><stop offset="0%" stop-color="#a9b1bb"/><stop offset="6%" stop-color="#5d6166"/><stop offset="78%" stop-color="#eef7ff"/><stop offset="93%" stop-color="#9ba1ab"/><stop offset="100%" stop-color="#767b82"/></linearGradient><linearGradient id="m" x1="59.421%" x2="158.895%" y1="56.386%" y2="56.386%"><stop offset="0%" stop-color="#a9b1bb"/><stop offset="6%" stop-color="#5d6166"/><stop offset="78%" stop-color="#eef7ff"/><stop offset="93%" stop-color="#9ba1ab"/><stop offset="100%" stop-color="#767b82"/></linearGradient><linearGradient id="n" x1="55.982%" x2="155.456%" y1="56.386%" y2="56.386%"><stop offset="0%" stop-color="#a9b1bb"/><stop offset="6%" stop-color="#5d6166"/><stop offset="78%" stop-color="#eef7ff"/><stop offset="93%" stop-color="#9ba1ab"/><stop offset="100%" stop-color="#767b82"/></linearGradient><linearGradient id="o" x1="53.193%" x2="153.772%" y1="56.386%" y2="56.386%"><stop offset="0%" stop-color="#a9b1bb"/><stop offset="6%" stop-color="#5d6166"/><stop offset="78%" stop-color="#eef7ff"/><stop offset="93%" stop-color="#9ba1ab"/><stop offset="100%" stop-color="#767b82"/></linearGradient><linearGradient id="p" x1="49.754%" x2="150.333%" y1="56.386%" y2="56.386%"><stop offset="0%" stop-color="#a9b1bb"/><stop offset="6%" stop-color="#5d6166"/><stop offset="78%" stop-color="#eef7ff"/><stop offset="93%" stop-color="#9ba1ab"/><stop offset="100%" stop-color="#767b82"/></linearGradient><linearGradient id="q" x1="46.316%" x2="145.789%" y1="56.386%" y2="56.386%"><stop offset="0%" stop-color="#a9b1bb"/><stop offset="6%" stop-color="#5d6166"/><stop offset="78%" stop-color="#eef7ff"/><stop offset="93%" stop-color="#9ba1ab"/><stop offset="100%" stop-color="#767b82"/></linearGradient><linearGradient id="r" x1="44.632%" x2="144.105%" y1="56.386%" y2="56.386%"><stop offset="0%" stop-color="#a9b1bb"/><stop offset="6%" stop-color="#5d6166"/><stop offset="78%" stop-color="#eef7ff"/><stop offset="93%" stop-color="#9ba1ab"/><stop offset="100%" stop-color="#767b82"/></linearGradient><linearGradient id="s" x1="41.193%" x2="140.667%" y1="56.386%" y2="56.386%"><stop offset="0%" stop-color="#a9b1bb"/><stop offset="6%" stop-color="#5d6166"/><stop offset="78%" stop-color="#eef7ff"/><stop offset="93%" stop-color="#9ba1ab"/><stop offset="100%" stop-color="#767b82"/></linearGradient><linearGradient id="t" x1="38.404%" x2="138.982%" y1="56.386%" y2="56.386%"><stop offset="0%" stop-color="#a9b1bb"/><stop offset="6%" stop-color="#5d6166"/><stop offset="78%" stop-color="#eef7ff"/><stop offset="93%" stop-color="#9ba1ab"/><stop offset="100%" stop-color="#767b82"/></linearGradient><linearGradient id="u" x1="34.965%" x2="135.544%" y1="56.386%" y2="56.386%"><stop offset="0%" stop-color="#a9b1bb"/><stop offset="6%" stop-color="#5d6166"/><stop offset="78%" stop-color="#eef7ff"/><stop offset="93%" stop-color="#9ba1ab"/><stop offset="100%" stop-color="#767b82"/></linearGradient><linearGradient id="v" x1="33.281%" x2="132.754%" y1="56.386%" y2="56.386%"><stop offset="0%" stop-color="#a9b1bb"/><stop offset="6%" stop-color="#5d6166"/><stop offset="78%" stop-color="#eef7ff"/><stop offset="93%" stop-color="#9ba1ab"/><stop offset="100%" stop-color="#767b82"/></linearGradient><linearGradient id="w" x1="29.842%" x2="129.316%" y1="56.386%" y2="56.386%"><stop offset="0%" stop-color="#a9b1bb"/><stop offset="6%" stop-color="#5d6166"/><stop offset="78%" stop-color="#eef7ff"/><stop offset="93%" stop-color="#9ba1ab"/><stop offset="100%" stop-color="#767b82"/></linearGradient><linearGradient id="x" x1="26.404%" x2="125.877%" y1="56.386%" y2="56.386%"><stop offset="0%" stop-color="#a9b1bb"/><stop offset="6%" stop-color="#5d6166"/><stop offset="78%" stop-color="#eef7ff"/><stop offset="93%" stop-color="#9ba1ab"/><stop offset="100%" stop-color="#767b82"/></linearGradient><linearGradient id="y" x1="23.614%" x2="124.193%" y1="56.386%" y2="56.386%"><stop offset="0%" stop-color="#a9b1bb"/><stop offset="6%" stop-color="#5d6166"/><stop offset="78%" stop-color="#eef7ff"/><stop offset="93%" stop-color="#9ba1ab"/><stop offset="100%" stop-color="#767b82"/></linearGradient><linearGradient id="z" x1="20.175%" x2="120.754%" y1="56.386%" y2="56.386%"><stop offset="0%" stop-color="#a9b1bb"/><stop offset="6%" stop-color="#5d6166"/><stop offset="78%" stop-color="#eef7ff"/><stop offset="93%" stop-color="#9ba1ab"/><stop offset="100%" stop-color="#767b82"/></linearGradient><linearGradient id="A" x1="57.193%" x2="156.667%" y1="56.24%" y2="56.24%"><stop offset="0%" stop-color="#a9b1bb"/><stop offset="6%" stop-color="#5d6166"/><stop offset="78%" stop-color="#eef7ff"/><stop offset="93%" stop-color="#9ba1ab"/><stop offset="100%" stop-color="#767b82"/></linearGradient><linearGradient id="B" x1="175589.474%" x2="175747.368%" y1="-168.904%" y2="-168.904%"><stop offset="0%" stop-color="#a9b1bb"/><stop offset="6%" stop-color="#5d6166"/><stop offset="78%" stop-color="#eef7ff"/><stop offset="93%" stop-color="#9ba1ab"/><stop offset="100%" stop-color="#767b82"/></linearGradient><linearGradient id="C" x1="176126.316%" x2="176284.211%" y1="-168.904%" y2="-168.904%"><stop offset="0%" stop-color="#a9b1bb"/><stop offset="6%" stop-color="#5d6166"/><stop offset="78%" stop-color="#eef7ff"/><stop offset="93%" stop-color="#9ba1ab"/><stop offset="100%" stop-color="#767b82"/></linearGradient><linearGradient id="D" x1="-.14%" x2="99.333%" y1="56.386%" y2="56.386%"><stop offset="0%" stop-color="#a9b1bb"/><stop offset="6%" stop-color="#5d6166"/><stop offset="78%" stop-color="#eef7ff"/><stop offset="93%" stop-color="#9ba1ab"/><stop offset="100%" stop-color="#767b82"/></linearGradient><linearGradient id="E" x1="-2.93%" x2="97.649%" y1="56.386%" y2="56.386%"><stop offset="0%" stop-color="#a9b1bb"/><stop offset="6%" stop-color="#5d6166"/><stop offset="78%" stop-color="#eef7ff"/><stop offset="93%" stop-color="#9ba1ab"/><stop offset="100%" stop-color="#767b82"/></linearGradient><linearGradient id="F" x1="-6.368%" x2="94.211%" y1="56.386%" y2="56.386%"><stop offset="0%" stop-color="#a9b1bb"/><stop offset="6%" stop-color="#5d6166"/><stop offset="78%" stop-color="#eef7ff"/><stop offset="93%" stop-color="#9ba1ab"/><stop offset="100%" stop-color="#767b82"/></linearGradient><linearGradient id="G" x1="-8.053%" x2="91.421%" y1="56.563%" y2="56.563%"><stop offset="0%" stop-color="#a9b1bb"/><stop offset="6%" stop-color="#5d6166"/><stop offset="78%" stop-color="#eef7ff"/><stop offset="93%" stop-color="#9ba1ab"/><stop offset="100%" stop-color="#767b82"/></linearGradient><linearGradient id="H" x1="-11.491%" x2="87.982%" y1="56.386%" y2="56.386%"><stop offset="0%" stop-color="#a9b1bb"/><stop offset="6%" stop-color="#5d6166"/><stop offset="78%" stop-color="#eef7ff"/><stop offset="93%" stop-color="#9ba1ab"/><stop offset="100%" stop-color="#767b82"/></linearGradient><linearGradient id="I" x1="-14.93%" x2="84.544%" y1="56.386%" y2="56.386%"><stop offset="0%" stop-color="#a9b1bb"/><stop offset="6%" stop-color="#5d6166"/><stop offset="78%" stop-color="#eef7ff"/><stop offset="93%" stop-color="#9ba1ab"/><stop offset="100%" stop-color="#767b82"/></linearGradient><linearGradient id="J" x1="-17.719%" x2="82.86%" y1="56.386%" y2="56.386%"><stop offset="0%" stop-color="#a9b1bb"/><stop offset="6%" stop-color="#5d6166"/><stop offset="78%" stop-color="#eef7ff"/><stop offset="93%" stop-color="#9ba1ab"/><stop offset="100%" stop-color="#767b82"/></linearGradient><linearGradient id="K" x1="-21.158%" x2="79.421%" y1="56.386%" y2="56.386%"><stop offset="0%" stop-color="#a9b1bb"/><stop offset="6%" stop-color="#5d6166"/><stop offset="78%" stop-color="#eef7ff"/><stop offset="93%" stop-color="#9ba1ab"/><stop offset="100%" stop-color="#767b82"/></linearGradient><linearGradient id="L" x1="-22.842%" x2="76.632%" y1="56.386%" y2="56.386%"><stop offset="0%" stop-color="#a9b1bb"/><stop offset="6%" stop-color="#5d6166"/><stop offset="78%" stop-color="#eef7ff"/><stop offset="93%" stop-color="#9ba1ab"/><stop offset="100%" stop-color="#767b82"/></linearGradient><linearGradient id="M" x1="-26.281%" x2="73.193%" y1="56.386%" y2="56.386%"><stop offset="0%" stop-color="#a9b1bb"/><stop offset="6%" stop-color="#5d6166"/><stop offset="78%" stop-color="#eef7ff"/><stop offset="93%" stop-color="#9ba1ab"/><stop offset="100%" stop-color="#767b82"/></linearGradient><linearGradient id="N" x1="-27.965%" x2="71.509%" y1="56.563%" y2="56.563%"><stop offset="0%" stop-color="#a9b1bb"/><stop offset="6%" stop-color="#5d6166"/><stop offset="78%" stop-color="#eef7ff"/><stop offset="93%" stop-color="#9ba1ab"/><stop offset="100%" stop-color="#767b82"/></linearGradient><linearGradient id="O" x1="-32.509%" x2="68.07%" y1="56.386%" y2="56.386%"><stop offset="0%" stop-color="#a9b1bb"/><stop offset="6%" stop-color="#5d6166"/><stop offset="78%" stop-color="#eef7ff"/><stop offset="93%" stop-color="#9ba1ab"/><stop offset="100%" stop-color="#767b82"/></linearGradient><linearGradient id="P" x1="-35.947%" x2="64.632%" y1="56.386%" y2="56.386%"><stop offset="0%" stop-color="#a9b1bb"/><stop offset="6%" stop-color="#5d6166"/><stop offset="78%" stop-color="#eef7ff"/><stop offset="93%" stop-color="#9ba1ab"/><stop offset="100%" stop-color="#767b82"/></linearGradient><linearGradient id="Q" x1="-37.632%" x2="61.842%" y1="56.386%" y2="56.386%"><stop offset="0%" stop-color="#a9b1bb"/><stop offset="6%" stop-color="#5d6166"/><stop offset="78%" stop-color="#eef7ff"/><stop offset="93%" stop-color="#9ba1ab"/><stop offset="100%" stop-color="#767b82"/></linearGradient><linearGradient id="R" x1="-41.07%" x2="58.404%" y1="56.386%" y2="56.386%"><stop offset="0%" stop-color="#a9b1bb"/><stop offset="6%" stop-color="#5d6166"/><stop offset="78%" stop-color="#eef7ff"/><stop offset="93%" stop-color="#9ba1ab"/><stop offset="100%" stop-color="#767b82"/></linearGradient><linearGradient id="S" x1="-.737%" x2="98.737%" y1="56.24%" y2="56.24%"><stop offset="0%" stop-color="#a9b1bb"/><stop offset="6%" stop-color="#5d6166"/><stop offset="78%" stop-color="#eef7ff"/><stop offset="93%" stop-color="#9ba1ab"/><stop offset="100%" stop-color="#767b82"/></linearGradient><linearGradient id="T" x1="13.948%" x2="113.277%" y1="47.818%" y2="47.818%"><stop offset="2%" stop-color="#767b82"/><stop offset="4%" stop-color="#d7dce0"/><stop offset="9%" stop-color="#9ba1ab"/><stop offset="92%" stop-color="#9ba1ab"/><stop offset="100%" stop-color="#767b82"/></linearGradient><linearGradient id="U" x1="14.983%" x2="114.312%" y1="47.818%" y2="47.818%"><stop offset="2%" stop-color="#767b82"/><stop offset="4%" stop-color="#d7dce0"/><stop offset="9%" stop-color="#9ba1ab"/><stop offset="92%" stop-color="#9ba1ab"/><stop offset="100%" stop-color="#767b82"/></linearGradient><linearGradient id="V" x1="14.098%" x2="114.462%" y1="55.791%" y2="55.791%"><stop offset="2%" stop-color="#767b82"/><stop offset="4%" stop-color="#d7dce0"/><stop offset="9%" stop-color="#9ba1ab"/><stop offset="92%" stop-color="#9ba1ab"/><stop offset="100%" stop-color="#767b82"/></linearGradient><linearGradient id="W" x1="14.792%" x2="115.156%" y1="55.791%" y2="55.791%"><stop offset="2%" stop-color="#767b82"/><stop offset="4%" stop-color="#d7dce0"/><stop offset="9%" stop-color="#9ba1ab"/><stop offset="92%" stop-color="#9ba1ab"/><stop offset="100%" stop-color="#767b82"/></linearGradient><linearGradient id="X" x1="16.532%" x2="116.896%" y1="55.791%" y2="55.791%"><stop offset="2%" stop-color="#767b82"/><stop offset="4%" stop-color="#d7dce0"/><stop offset="9%" stop-color="#9ba1ab"/><stop offset="92%" stop-color="#9ba1ab"/><stop offset="100%" stop-color="#767b82"/></linearGradient><linearGradient id="Y" x1="17.561%" x2="116.89%" y1="55.791%" y2="55.791%"><stop offset="2%" stop-color="#767b82"/><stop offset="4%" stop-color="#d7dce0"/><stop offset="9%" stop-color="#9ba1ab"/><stop offset="92%" stop-color="#9ba1ab"/><stop offset="100%" stop-color="#767b82"/></linearGradient><linearGradient id="Z" x1="49.988%" x2="49.988%" y1="0%" y2="100%"><stop offset="2%" stop-color="#767b82"/><stop offset="4%" stop-color="#d7dce0"/><stop offset="9%" stop-color="#9ba1ab"/><stop offset="92%" stop-color="#9ba1ab"/><stop offset="100%" stop-color="#767b82"/></linearGradient><linearGradient id="aa" x1="49.977%" x2="49.977%" y1="0%" y2="99.871%"><stop offset="0%" stop-color="#2e3033"/><stop offset="100%" stop-color="#9ba1ab" stop-opacity="0"/></linearGradient><linearGradient id="ab" x1="10.705%" x2="111.069%" y1="47.842%" y2="47.842%"><stop offset="2%" stop-color="#767b82"/><stop offset="4%" stop-color="#d7dce0"/><stop offset="9%" stop-color="#9ba1ab"/><stop offset="92%" stop-color="#9ba1ab"/><stop offset="100%" stop-color="#767b82"/></linearGradient><linearGradient id="ac" x1="11.162%" x2="110.491%" y1="47.818%" y2="47.818%"><stop offset="2%" stop-color="#767b82"/><stop offset="4%" stop-color="#d7dce0"/><stop offset="9%" stop-color="#9ba1ab"/><stop offset="92%" stop-color="#9ba1ab"/><stop offset="100%" stop-color="#767b82"/></linearGradient><linearGradient id="ad" x1="14.098%" x2="114.462%" y1="53.709%" y2="53.709%"><stop offset="2%" stop-color="#767b82"/><stop offset="4%" stop-color="#d7dce0"/><stop offset="9%" stop-color="#9ba1ab"/><stop offset="92%" stop-color="#9ba1ab"/><stop offset="100%" stop-color="#767b82"/></linearGradient><linearGradient id="ae" x1="14.792%" x2="115.156%" y1="53.709%" y2="53.709%"><stop offset="2%" stop-color="#767b82"/><stop offset="4%" stop-color="#d7dce0"/><stop offset="9%" stop-color="#9ba1ab"/><stop offset="92%" stop-color="#9ba1ab"/><stop offset="100%" stop-color="#767b82"/></linearGradient><linearGradient id="af" x1="16.532%" x2="116.896%" y1="53.709%" y2="53.709%"><stop offset="2%" stop-color="#767b82"/><stop offset="4%" stop-color="#d7dce0"/><stop offset="9%" stop-color="#9ba1ab"/><stop offset="92%" stop-color="#9ba1ab"/><stop offset="100%" stop-color="#767b82"/></linearGradient><linearGradient id="ag" x1="17.561%" x2="116.89%" y1="53.709%" y2="53.709%"><stop offset="2%" stop-color="#767b82"/><stop offset="4%" stop-color="#d7dce0"/><stop offset="9%" stop-color="#9ba1ab"/><stop offset="92%" stop-color="#9ba1ab"/><stop offset="100%" stop-color="#767b82"/></linearGradient><linearGradient id="ah" x1="7.22%" x2="106.549%" y1="47.818%" y2="47.818%"><stop offset="2%" stop-color="#767b82"/><stop offset="4%" stop-color="#d7dce0"/><stop offset="9%" stop-color="#9ba1ab"/><stop offset="92%" stop-color="#9ba1ab"/><stop offset="100%" stop-color="#767b82"/></linearGradient><linearGradient id="ai" x1="8.254%" x2="107.584%" y1="47.842%" y2="47.842%"><stop offset="2%" stop-color="#767b82"/><stop offset="4%" stop-color="#d7dce0"/><stop offset="9%" stop-color="#9ba1ab"/><stop offset="92%" stop-color="#9ba1ab"/><stop offset="100%" stop-color="#767b82"/></linearGradient><linearGradient id="aj" x1="14.098%" x2="114.462%" y1="51.243%" y2="51.243%"><stop offset="2%" stop-color="#767b82"/><stop offset="4%" stop-color="#d7dce0"/><stop offset="9%" stop-color="#9ba1ab"/><stop offset="92%" stop-color="#9ba1ab"/><stop offset="100%" stop-color="#767b82"/></linearGradient><linearGradient id="ak" x1="14.792%" x2="115.156%" y1="51.243%" y2="51.243%"><stop offset="2%" stop-color="#767b82"/><stop offset="4%" stop-color="#d7dce0"/><stop offset="9%" stop-color="#9ba1ab"/><stop offset="92%" stop-color="#9ba1ab"/><stop offset="100%" stop-color="#767b82"/></linearGradient><linearGradient id="al" x1="16.532%" x2="116.896%" y1="51.243%" y2="51.243%"><stop offset="2%" stop-color="#767b82"/><stop offset="4%" stop-color="#d7dce0"/><stop offset="9%" stop-color="#9ba1ab"/><stop offset="92%" stop-color="#9ba1ab"/><stop offset="100%" stop-color="#767b82"/></linearGradient><linearGradient id="am" x1="17.561%" x2="116.89%" y1="51.243%" y2="51.243%"><stop offset="2%" stop-color="#767b82"/><stop offset="4%" stop-color="#d7dce0"/><stop offset="9%" stop-color="#9ba1ab"/><stop offset="92%" stop-color="#9ba1ab"/><stop offset="100%" stop-color="#767b82"/></linearGradient><linearGradient id="an" x1="23.649%" x2="76.351%" y1="60.785%" y2="45.794%"><stop offset="0%" stop-color="#a9b1bb"/><stop offset="9%" stop-color="#61666b"/><stop offset="18%" stop-color="#696e73"/><stop offset="32%" stop-color="#7e8489"/><stop offset="49%" stop-color="#a1a7ae"/><stop offset="69%" stop-color="#d1d8e0"/><stop offset="75%" stop-color="#e2eaf2"/><stop offset="93%" stop-color="#9ba1ab"/><stop offset="100%" stop-color="#767b82"/></linearGradient></defs><g fill="none" fill-rule="nonzero" transform="translate(.46 .01)"><path fill="url(#a)" d="M16.81 132.64 5.06 117.1H1.72l11.76 15.54z"/><path fill="#000" d="M16.81 132.64 5.06 117.1H1.72l11.76 15.54z" opacity=".6"/><path fill="url(#b)" d="m23.89 132.64 11.75-15.54h3.34l-11.75 15.54z"/><path fill="#000" d="m23.89 132.64 11.75-15.54h3.34l-11.75 15.54z" opacity=".6"/><path fill="url(#c)" d="M16.81 86.92 5.06 71.39H1.72l11.76 15.53z"/><path fill="#000" d="M16.81 86.92 5.06 71.39H1.72l11.76 15.53z" opacity=".6"/><path fill="url(#d)" d="m23.89 86.92 11.75-15.53h3.34L27.23 86.92z"/><path fill="#000" d="m23.89 86.92 11.75-15.53h3.34L27.23 86.92z" opacity=".6"/><path fill="url(#e)" d="M16.81 46.55 5.06 31.01H1.72l11.76 15.54z"/><path fill="#000" d="M16.81 46.55 5.06 31.01H1.72l11.76 15.54z" opacity=".6"/><path fill="url(#f)" d="m23.89 46.55 11.75-15.54h3.34L27.23 46.55z"/><path fill="#000" d="m23.89 46.55 11.75-15.54h3.34L27.23 46.55z" opacity=".6"/><path fill="url(#g)" d="M31.43 6.32V150H9.24V6.32"/><path fill="url(#h)" d="M9.27 31.01h22.17v7.75H9.27z" opacity=".4"/><path fill="url(#i)" d="M9.27 6.32h22.17v7.64H9.27z" opacity=".4"/><rect width="1" height="59.59" x="22.88" y="10.64" fill="url(#j)" rx=".28"/><rect width="1" height="59.59" x="28.02" y="10.64" fill="url(#k)" rx=".28"/><rect width="1" height="5.67" x="25.43" y="11.33" fill="url(#l)" rx=".28" transform="rotate(-90 25.715 14.165)"/><rect width="1" height="5.67" x="25.43" y="15.05" fill="url(#m)" rx=".28" transform="rotate(-90 25.715 17.885)"/><rect width="1" height="5.67" x="25.43" y="18.76" fill="url(#n)" rx=".28" transform="rotate(-90 25.715 21.595)"/><rect width="1" height="5.67" x="25.43" y="22.48" fill="url(#o)" rx=".28" transform="rotate(-90 25.715 25.315)"/><rect width="1" height="5.67" x="25.43" y="26.19" fill="url(#p)" rx=".28" transform="rotate(-90 25.715 29.025)"/><rect width="1" height="5.67" x="25.43" y="29.91" fill="url(#q)" rx=".28" transform="rotate(-90 25.715 32.745)"/><rect width="1" height="5.67" x="25.43" y="33.62" fill="url(#r)" rx=".28" transform="rotate(-90 25.715 36.455)"/><rect width="1" height="5.67" x="25.43" y="37.33" fill="url(#s)" rx=".28" transform="rotate(-90 25.715 40.165)"/><rect width="1" height="5.67" x="25.43" y="41.05" fill="url(#t)" rx=".28" transform="rotate(-90 25.715 43.885)"/><rect width="1" height="5.67" x="25.43" y="44.76" fill="url(#u)" rx=".28" transform="rotate(-90 25.715 47.595)"/><rect width="1" height="5.67" x="25.43" y="48.48" fill="url(#v)" rx=".28" transform="rotate(-90 25.715 51.315)"/><rect width="1" height="5.67" x="25.43" y="52.19" fill="url(#w)" rx=".28" transform="rotate(-90 25.715 55.025)"/><rect width="1" height="5.67" x="25.43" y="55.91" fill="url(#x)" rx=".28" transform="rotate(-90 25.715 58.745)"/><rect width="1" height="5.67" x="25.43" y="59.62" fill="url(#y)" rx=".28" transform="rotate(-90 25.715 62.455)"/><rect width="1" height="5.67" x="25.43" y="63.33" fill="url(#z)" rx=".28" transform="rotate(-90 25.715 66.165)"/><rect width="1" height="5.7" x="25.455" y="8.075" fill="url(#A)" rx=".28" transform="rotate(-90 25.74 10.925)"/><rect width="1" height="59.59" x="22.88" y="89.4" fill="url(#B)" rx=".28"/><rect width="1" height="59.59" x="28.02" y="89.4" fill="url(#C)" rx=".28"/><rect width="1" height="5.67" x="25.43" y="90.09" fill="url(#D)" rx=".28" transform="rotate(-90 25.715 92.925)"/><rect width="1" height="5.67" x="25.43" y="93.81" fill="url(#E)" rx=".28" transform="rotate(-90 25.715 96.645)"/><rect width="1" height="5.67" x="25.43" y="97.52" fill="url(#F)" rx=".28" transform="rotate(-90 25.715 100.355)"/><rect width="1" height="5.67" x="25.43" y="101.24" fill="url(#G)" rx=".28" transform="rotate(-90 25.715 104.075)"/><rect width="1" height="5.67" x="25.43" y="104.95" fill="url(#H)" rx=".28" transform="rotate(-90 25.715 107.785)"/><rect width="1" height="5.67" x="25.43" y="108.67" fill="url(#I)" rx=".28" transform="rotate(-90 25.715 111.505)"/><rect width="1" height="5.67" x="25.43" y="112.38" fill="url(#J)" rx=".28" transform="rotate(-90 25.715 115.215)"/><rect width="1" height="5.67" x="25.43" y="116.09" fill="url(#K)" rx=".28" transform="rotate(-90 25.715 118.925)"/><rect width="1" height="5.67" x="25.43" y="119.81" fill="url(#L)" rx=".28" transform="rotate(-90 25.715 122.645)"/><rect width="1" height="5.67" x="25.43" y="123.52" fill="url(#M)" rx=".28" transform="rotate(-90 25.715 126.355)"/><rect width="1" height="5.67" x="25.43" y="127.24" fill="url(#N)" rx=".28" transform="rotate(-90 25.715 130.075)"/><rect width="1" height="5.67" x="25.43" y="130.95" fill="url(#O)" rx=".28" transform="rotate(-90 25.715 133.785)"/><rect width="1" height="5.67" x="25.43" y="134.67" fill="url(#P)" rx=".28" transform="rotate(-90 25.715 137.505)"/><rect width="1" height="5.67" x="25.43" y="138.38" fill="url(#Q)" rx=".28" transform="rotate(-90 25.715 141.215)"/><rect width="1" height="5.67" x="25.43" y="142.09" fill="url(#R)" rx=".28" transform="rotate(-90 25.715 144.925)"/><rect width="1" height="5.7" x="25.455" y="86.835" fill="url(#S)" rx=".28" transform="rotate(-90 25.74 89.685)"/><path fill="url(#T)" d="M19.49 2.33h1.73v40.71h-1.73z" transform="rotate(-90 20.355 22.685)"/><path fill="url(#U)" d="M19.49-3.05h1.73v40.71h-1.73z" transform="rotate(-90 20.355 17.305)"/><path fill="url(#V)" d="M0 16.45h1.73v11.37H0z"/><path fill="url(#W)" d="M6.79 16.45h1.73v11.37H6.79z"/><path fill="url(#X)" d="M32.16 16.45h1.73v11.37h-1.73z"/><path fill="url(#Y)" d="M38.98 16.45h1.73v11.37h-1.73z"/><path fill="url(#Z)" d="M0 27.81h40.71v3.2H0z"/><path fill="#000" d="M18.82 31.01h3.05v10.43h-3.05z" opacity=".4"/><path fill="url(#aa)" d="M9.27 71.39h22.17v7.75H9.27z" opacity=".4"/><path fill="url(#ab)" d="M19.49 42.71h1.73v40.71h-1.73z" transform="rotate(-90 20.355 63.065)"/><path fill="url(#ac)" d="M19.49 37.33h1.73v40.71h-1.73z" transform="rotate(-90 20.355 57.685)"/><path fill="url(#ad)" d="M0 56.82h1.73v11.37H0z"/><path fill="url(#ae)" d="M6.79 56.82h1.73v11.37H6.79z"/><path fill="url(#af)" d="M32.16 56.82h1.73v11.37h-1.73z"/><path fill="url(#ag)" d="M38.98 56.82h1.73v11.37h-1.73z"/><path fill="url(#Z)" d="M0 68.19h40.71v3.2H0z"/><path fill="#000" d="M18.82 71.39h3.05v10.43h-3.05z" opacity=".4"/><path fill="url(#h)" d="M9.27 117.1h22.17v7.75H9.27z" opacity=".4"/><path fill="url(#ah)" d="M19.49 88.42h1.73v40.71h-1.73z" transform="rotate(-90 20.355 108.775)"/><path fill="url(#ai)" d="M19.49 83.05h1.73v40.71h-1.73z" transform="rotate(-90 20.355 103.405)"/><path fill="url(#aj)" d="M0 102.54h1.73v11.37H0z"/><path fill="url(#ak)" d="M6.79 102.54h1.73v11.37H6.79z"/><path fill="url(#al)" d="M32.16 102.54h1.73v11.37h-1.73z"/><path fill="url(#am)" d="M38.98 102.54h1.73v11.37h-1.73z"/><path fill="url(#Z)" d="M0 113.9h40.71v3.2H0z"/><path fill="#000" d="M18.82 117.1h3.05v10.43h-3.05z" opacity=".4"/><path fill="url(#an)" d="M9.24 6.32S10.78 0 20.34 0s11.1 6.32 11.1 6.32z"/></g></svg>