<svg xmlns="http://www.w3.org/2000/svg" xml:space="preserve" viewBox="0 0 25 10"><path d="M0 5h25v5H0zm0 1.2L1.2 5M0 7.5 2.5 5M0 8.8 3.8 5M0 10l5-5m-3.8 5 5-5m-3.7 5 5-5m-3.7 5 5-5M5 10l5-5m-3.8 5 5-5m-3.7 5 5-5m-3.7 5 5-5M10 10l5-5m-3.8 5 5-5m-3.7 5 5-5m-3.7 5 5-5M15 10l5-5m-3.8 5 5-5m-3.7 5 5-5m-3.7 5 5-5M20 10l5-5m-3.8 5L25 6.2M22.5 10 25 7.5" style="fill:none;stroke:#fff;stroke-miterlimit:10"/><path d="M23.8 10 25 8.8M12.5 0v5M0 5h25" style="fill:none;stroke:#fff;stroke-miterlimit:10;stroke-width:2"/></svg>