<svg xmlns="http://www.w3.org/2000/svg" viewBox="0 0 69 151"><title>Pump station（泵站）</title><defs><linearGradient id="a" x1="-.016%" x2="99.951%" y1="49.918%" y2="49.918%"><stop offset="0%" stop-color="#3480d3"/><stop offset="14%" stop-color="#3687d6"/><stop offset="35%" stop-color="#3d9bdc"/><stop offset="60%" stop-color="#47bce8"/><stop offset="88%" stop-color="#55eaf8"/><stop offset="100%" stop-color="#5cffff"/></linearGradient><linearGradient id="b" x1="0%" x2="100%" y1="49.971%" y2="49.971%"><stop offset="0%" stop-color="#0a253b"/><stop offset="22%" stop-color="#174169"/><stop offset="47%" stop-color="#235c97"/><stop offset="69%" stop-color="#2c70b8"/><stop offset="88%" stop-color="#327ccc"/><stop offset="100%" stop-color="#3480d3"/></linearGradient><linearGradient id="c" x1="67.691%" x2="32.244%" y1="67.783%" y2="32.177%"><stop offset="0%" stop-color="#5cffff"/><stop offset="12%" stop-color="#55eaf8"/><stop offset="40%" stop-color="#47bce8"/><stop offset="65%" stop-color="#3d9bdc"/><stop offset="86%" stop-color="#3687d6"/><stop offset="100%" stop-color="#3480d3"/></linearGradient><linearGradient id="d" x1="-.044%" x2="99.971%" y1="50.016%" y2="50.016%"><stop offset="0%" stop-color="#0a253b"/><stop offset="22%" stop-color="#174169"/><stop offset="47%" stop-color="#235c97"/><stop offset="69%" stop-color="#2c70b8"/><stop offset="88%" stop-color="#327ccc"/><stop offset="100%" stop-color="#3480d3"/></linearGradient><linearGradient id="e" x1="67.694%" x2="32.24%" y1="67.781%" y2="32.222%"><stop offset="0%" stop-color="#5cffff"/><stop offset="12%" stop-color="#55eaf8"/><stop offset="40%" stop-color="#47bce8"/><stop offset="65%" stop-color="#3d9bdc"/><stop offset="86%" stop-color="#3687d6"/><stop offset="100%" stop-color="#3480d3"/></linearGradient><linearGradient id="f" x1=".018%" x2="100.037%" y1="50.098%" y2="50.098%"><stop offset="0%" stop-color="#0a253b"/><stop offset="22%" stop-color="#174169"/><stop offset="47%" stop-color="#235c97"/><stop offset="69%" stop-color="#2c70b8"/><stop offset="88%" stop-color="#327ccc"/><stop offset="100%" stop-color="#3480d3"/></linearGradient><linearGradient id="g" x1=".01%" x2="100.026%" y1="49.914%" y2="50.076%"><stop offset="0%" stop-color="#3480d3"/><stop offset="14%" stop-color="#3687d6"/><stop offset="35%" stop-color="#3d9bdc"/><stop offset="60%" stop-color="#47bce8"/><stop offset="88%" stop-color="#55eaf8"/><stop offset="100%" stop-color="#5cffff"/></linearGradient><linearGradient id="h" x1="-.12%" x2="99.88%" y1="49.843%" y2="49.843%"><stop offset="0%" stop-color="#0a253b"/><stop offset="22%" stop-color="#174169"/><stop offset="47%" stop-color="#235c97"/><stop offset="69%" stop-color="#2c70b8"/><stop offset="88%" stop-color="#327ccc"/><stop offset="100%" stop-color="#3480d3"/></linearGradient><linearGradient id="i" x1="0%" x2="100%" y1="50.101%" y2="50.101%"><stop offset="0%" stop-color="#0a253b"/><stop offset="22%" stop-color="#174169"/><stop offset="47%" stop-color="#235c97"/><stop offset="69%" stop-color="#2c70b8"/><stop offset="88%" stop-color="#327ccc"/><stop offset="100%" stop-color="#3480d3"/></linearGradient><linearGradient id="j" x1="-.048%" x2="100.007%" y1="50.002%" y2="50.002%"><stop offset="0%" stop-color="#0a253b"/><stop offset="22%" stop-color="#174169"/><stop offset="47%" stop-color="#235c97"/><stop offset="69%" stop-color="#2c70b8"/><stop offset="88%" stop-color="#327ccc"/><stop offset="100%" stop-color="#3480d3"/></linearGradient><linearGradient id="k" x1=".017%" x2="100.017%" y1="49.913%" y2="50.075%"><stop offset="0%" stop-color="#0c4380"/><stop offset="13%" stop-color="#0c4a84"/><stop offset="33%" stop-color="#0e5e8f"/><stop offset="57%" stop-color="#107fa1"/><stop offset="84%" stop-color="#12adbb"/><stop offset="100%" stop-color="#14cccc"/></linearGradient><linearGradient id="l" x1="64.688%" x2="35.312%" y1="64.715%" y2="35.285%"><stop offset="0%" stop-color="#5cffff"/><stop offset="12%" stop-color="#55eaf8"/><stop offset="40%" stop-color="#47bce8"/><stop offset="65%" stop-color="#3d9bdc"/><stop offset="86%" stop-color="#3687d6"/><stop offset="100%" stop-color="#3480d3"/></linearGradient><linearGradient id="m" x1="38.678%" x2="61.322%" y1="72.942%" y2="27.058%"><stop offset="0%" stop-color="#2a6aaf" stop-opacity="0"/><stop offset="100%" stop-color="#5ac8f7" stop-opacity=".6"/></linearGradient><linearGradient id="n" x1="39.23%" x2="60.755%" y1="82.975%" y2="16.98%"><stop offset="0%" stop-color="#2a6aaf" stop-opacity="0"/><stop offset="100%" stop-color="#5ac8f7" stop-opacity=".6"/></linearGradient><linearGradient id="o" x1="39.245%" x2="60.755%" y1="82.975%" y2="17.025%"><stop offset="0%" stop-color="#2a6aaf" stop-opacity="0"/><stop offset="100%" stop-color="#5ac8f7" stop-opacity=".6"/></linearGradient><linearGradient id="p" x1="0%" x2="100%" y1="49.956%" y2="49.956%"><stop offset="0%" stop-color="#2a6aaf" stop-opacity="0"/><stop offset="100%" stop-color="#5ac8f7" stop-opacity=".6"/></linearGradient><linearGradient id="q" x1="38.687%" x2="61.313%" y1="72.953%" y2="27.047%"><stop offset="0%" stop-color="#2a6aaf" stop-opacity="0"/><stop offset="100%" stop-color="#5ac8f7" stop-opacity=".6"/></linearGradient><linearGradient id="r" x1="65.887%" x2="34.113%" y1="65.969%" y2="34.031%"><stop offset="0%" stop-color="#2a6aaf" stop-opacity="0"/><stop offset="100%" stop-color="#5ac8f7" stop-opacity=".6"/></linearGradient><linearGradient id="s" x1="100.628%" x2=".846%" y1="50.082%" y2="50.082%"><stop offset="0%" stop-color="#2a6aaf" stop-opacity="0"/><stop offset="100%" stop-color="#5ac8f7" stop-opacity=".6"/></linearGradient><linearGradient id="t" x1="70.052%" x2="30.713%" y1="24.736%" y2="75.264%"><stop offset="0%" stop-color="#5ac8f7"/><stop offset="100%" stop-color="#2a6aaf" stop-opacity="0"/></linearGradient><linearGradient id="u" x1="100%" x2="-.193%" y1="50.12%" y2="50.12%"><stop offset="0%" stop-color="#2a6aaf" stop-opacity="0"/><stop offset="100%" stop-color="#5ac8f7" stop-opacity=".6"/></linearGradient><linearGradient id="v" x1="-276%" x2="-315.845%" y1="-109.313%" y2="-59.787%"><stop offset="0%" stop-color="#5ac8f7"/><stop offset="100%" stop-color="#2a6aaf" stop-opacity="0"/></linearGradient><linearGradient id="w" x1="0%" x2="100.212%" y1="50%" y2="50%"><stop offset="0%" stop-color="#2a6aaf" stop-opacity="0"/><stop offset="100%" stop-color="#5ac8f7" stop-opacity=".6"/></linearGradient><linearGradient id="x" x1="70.742%" x2="29.258%" y1="23.167%" y2="76.669%"><stop offset="0%" stop-color="#5cffff"/><stop offset="100%" stop-color="#2a6aaf" stop-opacity="0"/></linearGradient><linearGradient id="y" x1="8.134%" x2="80.989%" y1="75.426%" y2="33.796%"><stop offset="0%" stop-color="#5ac8f7" stop-opacity=".6"/><stop offset="100%" stop-color="#2a6aaf" stop-opacity="0"/></linearGradient><linearGradient id="z" x1="65.787%" x2="13.905%" y1="12.58%" y2="100.9%"><stop offset="0%" stop-color="#5ac8f7" stop-opacity=".6"/><stop offset="100%" stop-color="#2a6aaf" stop-opacity="0"/></linearGradient><linearGradient id="A" x1="-340.294%" x2="-379.871%" y1="-147.199%" y2="-96.135%"><stop offset="0%" stop-color="#5ac8f7"/><stop offset="100%" stop-color="#2a6aaf" stop-opacity="0"/></linearGradient><linearGradient id="B" x1="100.235%" x2=".235%" y1="50.257%" y2="50.257%"><stop offset="0%" stop-color="#2a6aaf" stop-opacity="0"/><stop offset="100%" stop-color="#5ac8f7" stop-opacity=".6"/></linearGradient><linearGradient id="C" x1="100.212%" x2="0%" y1="50.097%" y2="50.097%"><stop offset="0%" stop-color="#2a6aaf" stop-opacity="0"/><stop offset="100%" stop-color="#5ac8f7" stop-opacity=".6"/></linearGradient><linearGradient id="D" x1="-297.734%" x2="-339.441%" y1="-131.333%" y2="-77.661%"><stop offset="0%" stop-color="#5cffff"/><stop offset="100%" stop-color="#2a6aaf" stop-opacity="0"/></linearGradient><linearGradient id="E" x1="100.184%" x2=".314%" y1="50.086%" y2="50.086%"><stop offset="0%" stop-color="#2a6aaf" stop-opacity="0"/><stop offset="100%" stop-color="#5ac8f7" stop-opacity=".6"/></linearGradient><linearGradient id="F" x1="-276.379%" x2="-316.298%" y1="-109.238%" y2="-59.746%"><stop offset="0%" stop-color="#5ac8f7"/><stop offset="100%" stop-color="#2a6aaf" stop-opacity="0"/></linearGradient><linearGradient id="G" x1="100%" x2=".211%" y1="50.082%" y2="50.082%"><stop offset="0%" stop-color="#2a6aaf" stop-opacity="0"/><stop offset="100%" stop-color="#5ac8f7" stop-opacity=".6"/></linearGradient><linearGradient id="I" x1="56.709%" x2="20.395%" y1="36.601%" y2="73.604%"><stop offset="0%" stop-color="#2a6aaf" stop-opacity="0"/><stop offset="100%" stop-color="#5ac8f7" stop-opacity=".6"/></linearGradient><linearGradient id="J" x1="38.88%" x2="56.719%" y1="27.737%" y2="66.418%"><stop offset="0%" stop-color="#5ac8f7"/><stop offset="100%" stop-color="#2a6aaf" stop-opacity="0"/></linearGradient><linearGradient id="K" x1="53.999%" x2="17.685%" y1="33.595%" y2="70.502%"><stop offset="0%" stop-color="#2a6aaf" stop-opacity="0"/><stop offset="100%" stop-color="#5ac8f7" stop-opacity=".6"/></linearGradient><linearGradient id="L" x1="45.201%" x2="45.08%" y1="62.874%" y2="25.109%"><stop offset="0%" stop-color="#5ac8f7"/><stop offset="100%" stop-color="#2a6aaf" stop-opacity="0"/></linearGradient><linearGradient id="M" x1="52.881%" x2="17.47%" y1="34.825%" y2="70.442%"><stop offset="0%" stop-color="#2a6aaf" stop-opacity="0"/><stop offset="100%" stop-color="#5ac8f7" stop-opacity=".6"/></linearGradient><linearGradient id="N" x1="44.128%" x2="44.01%" y1="63.023%" y2="26.578%"><stop offset="0%" stop-color="#5ac8f7"/><stop offset="100%" stop-color="#2a6aaf" stop-opacity="0"/></linearGradient><linearGradient id="O" x1="55.533%" x2="19.219%" y1="36.603%" y2="73.605%"><stop offset="0%" stop-color="#2a6aaf" stop-opacity="0"/><stop offset="100%" stop-color="#5ac8f7" stop-opacity=".6"/></linearGradient><linearGradient id="P" x1="37.705%" x2="55.544%" y1="27.738%" y2="66.419%"><stop offset="0%" stop-color="#5ac8f7"/><stop offset="100%" stop-color="#2a6aaf" stop-opacity="0"/></linearGradient><linearGradient id="Q" x1="100%" x2=".211%" y1="50.031%" y2="50.031%"><stop offset="0%" stop-color="#2a6aaf" stop-opacity="0"/><stop offset="100%" stop-color="#5ac8f7" stop-opacity=".6"/></linearGradient><linearGradient id="R" x1="-299.183%" x2="-338.487%" y1="-129.623%" y2="-79.115%"><stop offset="0%" stop-color="#5ac8f7"/><stop offset="100%" stop-color="#2a6aaf" stop-opacity="0"/></linearGradient><linearGradient id="S" x1="100%" x2=".176%" y1="49.651%" y2="49.651%"><stop offset="0%" stop-color="#2a6aaf" stop-opacity="0"/><stop offset="100%" stop-color="#5ac8f7" stop-opacity=".6"/></linearGradient><linearGradient id="T" x1="-276.787%" x2="-316.742%" y1="-109.709%" y2="-60.206%"><stop offset="0%" stop-color="#5ac8f7"/><stop offset="100%" stop-color="#2a6aaf" stop-opacity="0"/></linearGradient><linearGradient id="U" x1="-301.947%" x2="-341.697%" y1="-131.174%" y2="-80.244%"><stop offset="0%" stop-color="#5ac8f7"/><stop offset="100%" stop-color="#2a6aaf" stop-opacity="0"/></linearGradient><linearGradient id="V" x1="1048.056%" x2="975.187%" y1="579.469%" y2="621.301%"><stop offset="0%" stop-color="#5ac8f7" stop-opacity=".6"/><stop offset="100%" stop-color="#2a6aaf" stop-opacity="0"/></linearGradient><linearGradient id="W" x1="-1.193%" x2="74.86%" y1="79.701%" y2="36.285%"><stop offset="0%" stop-color="#5ac8f7"/><stop offset="38%" stop-color="#5ac7f6" stop-opacity=".99"/><stop offset="51%" stop-color="#58c5f4" stop-opacity=".96"/><stop offset="61%" stop-color="#56c0f1" stop-opacity=".92"/><stop offset="68%" stop-color="#53baec" stop-opacity=".85"/><stop offset="75%" stop-color="#4eb1e6" stop-opacity=".76"/><stop offset="81%" stop-color="#49a7de" stop-opacity=".65"/><stop offset="86%" stop-color="#439bd4" stop-opacity=".52"/><stop offset="91%" stop-color="#3c8cc9" stop-opacity=".37"/><stop offset="96%" stop-color="#347dbd" stop-opacity=".2"/><stop offset="100%" stop-color="#2b6bb0" stop-opacity=".01"/><stop offset="100%" stop-color="#2a6aaf" stop-opacity="0"/></linearGradient><linearGradient id="X" x1="-335.393%" x2="-374.615%" y1="-145.726%" y2="-94.984%"><stop offset="0%" stop-color="#5ac8f7"/><stop offset="100%" stop-color="#2a6aaf" stop-opacity="0"/></linearGradient><linearGradient id="Y" x1="100.235%" x2=".235%" y1="50.091%" y2="50.091%"><stop offset="0%" stop-color="#2a6aaf" stop-opacity="0"/><stop offset="100%" stop-color="#5ac8f7" stop-opacity=".6"/></linearGradient><linearGradient id="Z" x1="736.535%" x2="651.42%" y1="212.068%" y2="251.153%"><stop offset="0%" stop-color="#5ac8f7" stop-opacity=".6"/><stop offset="100%" stop-color="#2a6aaf" stop-opacity="0"/></linearGradient><linearGradient id="aa" x1="179.455%" x2="108.767%" y1="665.803%" y2="698.347%"><stop offset="0%" stop-color="#5ac8f7"/><stop offset="38%" stop-color="#5ac7f6" stop-opacity=".99"/><stop offset="51%" stop-color="#58c5f4" stop-opacity=".96"/><stop offset="61%" stop-color="#56c0f1" stop-opacity=".92"/><stop offset="68%" stop-color="#53baec" stop-opacity=".85"/><stop offset="75%" stop-color="#4eb1e6" stop-opacity=".76"/><stop offset="81%" stop-color="#49a7de" stop-opacity=".65"/><stop offset="86%" stop-color="#439bd4" stop-opacity=".52"/><stop offset="91%" stop-color="#3c8cc9" stop-opacity=".37"/><stop offset="96%" stop-color="#347dbd" stop-opacity=".2"/><stop offset="100%" stop-color="#2b6bb0" stop-opacity=".01"/><stop offset="100%" stop-color="#2a6aaf" stop-opacity="0"/></linearGradient><linearGradient id="ab" x1="-344.118%" x2="-384.025%" y1="-148.461%" y2="-97.369%"><stop offset="0%" stop-color="#5ac8f7"/><stop offset="100%" stop-color="#2a6aaf" stop-opacity="0"/></linearGradient><linearGradient id="ac" x1="100.234%" x2=".935%" y1="50.014%" y2="50.014%"><stop offset="0%" stop-color="#2a6aaf" stop-opacity="0"/><stop offset="100%" stop-color="#5ac8f7" stop-opacity=".6"/></linearGradient><linearGradient id="ad" x1="100.422%" x2=".212%" y1="50.082%" y2="50.082%"><stop offset="0%" stop-color="#2a6aaf" stop-opacity="0"/><stop offset="100%" stop-color="#5ac8f7" stop-opacity=".6"/></linearGradient><linearGradient id="ae" x1="-298.556%" x2="-337.938%" y1="-129.813%" y2="-79.119%"><stop offset="0%" stop-color="#5ac8f7"/><stop offset="100%" stop-color="#2a6aaf" stop-opacity="0"/></linearGradient><linearGradient id="af" x1="100.927%" x2=".492%" y1="50.126%" y2="50.126%"><stop offset="0%" stop-color="#2a6aaf" stop-opacity="0"/><stop offset="100%" stop-color="#5ac8f7" stop-opacity=".6"/></linearGradient><linearGradient id="ag" x1="-274.776%" x2="-314.535%" y1="-109.475%" y2="-59.943%"><stop offset="0%" stop-color="#5ac8f7"/><stop offset="100%" stop-color="#2a6aaf" stop-opacity="0"/></linearGradient><linearGradient id="ah" x1="99.577%" x2="-.211%" y1="50.01%" y2="50.01%"><stop offset="0%" stop-color="#2a6aaf" stop-opacity="0"/><stop offset="100%" stop-color="#5ac8f7" stop-opacity=".6"/></linearGradient><linearGradient id="ai" x1="32.245%" x2="67.745%" y1="67.803%" y2="32.171%"><stop offset="0%" stop-color="#2a6aaf" stop-opacity="0"/><stop offset="100%" stop-color="#5ac8f7" stop-opacity=".6"/></linearGradient><linearGradient id="aj" x1="0%" x2="100%" y1="50%" y2="50%"><stop offset="0%" stop-color="#2a6aaf" stop-opacity="0"/><stop offset="100%" stop-color="#5ac8f7" stop-opacity=".6"/></linearGradient><linearGradient id="ak" x1="32.245%" x2="67.756%" y1="67.81%" y2="32.179%"><stop offset="0%" stop-color="#2a6aaf" stop-opacity="0"/><stop offset="100%" stop-color="#5ac8f7" stop-opacity=".6"/></linearGradient><linearGradient id="al" x1="-.48%" x2="100%" y1="49.907%" y2="49.907%"><stop offset="0%" stop-color="#0a253b"/><stop offset="22%" stop-color="#174169"/><stop offset="47%" stop-color="#235c97"/><stop offset="69%" stop-color="#2c70b8"/><stop offset="88%" stop-color="#327ccc"/><stop offset="100%" stop-color="#3480d3"/></linearGradient><linearGradient id="am" x1="32.233%" x2="67.974%" y1="67.851%" y2="32.102%"><stop offset="0%" stop-color="#5cffff"/><stop offset="12%" stop-color="#55eaf8"/><stop offset="40%" stop-color="#47bce8"/><stop offset="65%" stop-color="#3d9bdc"/><stop offset="86%" stop-color="#3687d6"/><stop offset="100%" stop-color="#3480d3"/></linearGradient><linearGradient id="an" x1="-.172%" x2="100%" y1="49.937%" y2="49.937%"><stop offset="0%" stop-color="#0a253b"/><stop offset="22%" stop-color="#174169"/><stop offset="47%" stop-color="#235c97"/><stop offset="69%" stop-color="#2c70b8"/><stop offset="88%" stop-color="#327ccc"/><stop offset="100%" stop-color="#3480d3"/></linearGradient><linearGradient id="ao" x1="32.207%" x2="67.641%" y1="67.791%" y2="32.152%"><stop offset="0%" stop-color="#5cffff"/><stop offset="12%" stop-color="#55eaf8"/><stop offset="40%" stop-color="#47bce8"/><stop offset="65%" stop-color="#3d9bdc"/><stop offset="86%" stop-color="#3687d6"/><stop offset="100%" stop-color="#3480d3"/></linearGradient><linearGradient id="ap" x1="-.24%" x2="100%" y1="50.639%" y2="50.639%"><stop offset="0%" stop-color="#0a253b"/><stop offset="22%" stop-color="#174169"/><stop offset="47%" stop-color="#235c97"/><stop offset="69%" stop-color="#2c70b8"/><stop offset="88%" stop-color="#327ccc"/><stop offset="100%" stop-color="#3480d3"/></linearGradient><linearGradient id="aq" x1="32.24%" x2="67.981%" y1="67.906%" y2="32.157%"><stop offset="0%" stop-color="#5cffff"/><stop offset="12%" stop-color="#55eaf8"/><stop offset="40%" stop-color="#47bce8"/><stop offset="65%" stop-color="#3d9bdc"/><stop offset="86%" stop-color="#3687d6"/><stop offset="100%" stop-color="#3480d3"/></linearGradient><linearGradient id="ar" x1="-.87%" x2="100%" y1="50.06%" y2="50.06%"><stop offset="0%" stop-color="#0a253b"/><stop offset="22%" stop-color="#174169"/><stop offset="47%" stop-color="#235c97"/><stop offset="69%" stop-color="#2c70b8"/><stop offset="88%" stop-color="#327ccc"/><stop offset="100%" stop-color="#3480d3"/></linearGradient><linearGradient id="as" x1="32.312%" x2="67.746%" y1="67.83%" y2="32.191%"><stop offset="0%" stop-color="#5cffff"/><stop offset="12%" stop-color="#55eaf8"/><stop offset="40%" stop-color="#47bce8"/><stop offset="65%" stop-color="#3d9bdc"/><stop offset="86%" stop-color="#3687d6"/><stop offset="100%" stop-color="#3480d3"/></linearGradient><linearGradient id="at" x1="0%" x2="100%" y1="50.003%" y2="50.003%"><stop offset="0%" stop-color="#2a6aaf" stop-opacity="0"/><stop offset="100%" stop-color="#5ac8f7" stop-opacity=".6"/></linearGradient><radialGradient id="H" cx="49.724%" cy="50.002%" r="165.397%" fx="49.724%" fy="50.002%" gradientTransform="matrix(1 0 0 .21889 0 .39)"><stop offset="0%" stop-color="#2a6aaf" stop-opacity="0"/><stop offset="100%" stop-color="#5ac8f7" stop-opacity=".6"/></radialGradient></defs><g fill="none" fill-rule="evenodd" transform="translate(.08 .188)"><path fill="url(#a)" fill-rule="nonzero" stroke="#a4fcfe" stroke-linejoin="round" stroke-width=".1" d="M52.92 10.693c10.51 6.06 10.56 15.9.12 22s-27.41 6.06-37.92 0-10.6-15.94-.2-22 27.46-6.07 38 0Z"/><path stroke="#5ac8f7" stroke-linecap="round" stroke-linejoin="round" d="M17.53 33.913v49.98m8.02-54v49.98m-8.02-40.34 8.02-4.63m-8.02 10.9 8.02-4.63m-8.02 10.9 8.02-4.63m-8.02 10.91 8.02-4.63m-8.02 10.9 8.02-4.63m-8.02 10.9 8.02-4.63m-8.02 10.9 8.02-4.63M9.56 31.793l8.02 4.63m-.05-8.85 8.02 4.63M9.56 76.763l8.02 4.63m-.05-8.86 8.02 4.63" opacity=".6"/><g fill-rule="nonzero" stroke="#a4fcfe" stroke-linejoin="round" stroke-width=".1"><path fill="url(#b)" d="m53.75 15.613-.11 6.28c0 3.95-2.61 7.9-7.8 10.91-10.44 6.07-27.41 6.07-37.92 0-5.29-3.05-7.93-7.06-7.92-11.06l.11-6.28c0 4 2.63 8 7.92 11.06 10.51 6.06 27.48 6.06 37.92 0 5.19-3.02 7.79-6.96 7.8-10.91Z" transform="translate(7.06)"/><path fill="url(#c)" d="M45.86 4.553c10.51 6.07 10.56 15.9.12 22s-27.41 6.06-37.92 0-10.6-15.93-.2-22 27.46-6.07 38 0Z" transform="translate(7.06)"/></g><g fill-rule="nonzero" stroke="#a4fcfe" stroke-linejoin="round" stroke-width=".1"><path fill="url(#d)" d="m67.92 19.733-.14 3c0 5-3.3 10-9.85 13.79-13.2 7.67-34.65 7.67-47.93 0-6.69-3.86-10-8.92-10-14l.14-3c0 5.06 3.32 10.13 10 14 13.28 7.67 34.73 7.67 47.92 0 6.54-3.82 9.86-8.8 9.86-13.79Z" transform="translate(0 107.74)"/><path fill="url(#e)" d="M57.92 5.753c13.28 7.67 13.35 20.1.15 27.76s-34.64 7.67-47.92 0-13.39-20.09-.23-27.76 34.69-7.67 48 0Z" transform="translate(0 107.74)"/></g><path fill="url(#f)" fill-rule="nonzero" stroke="#a4fcfe" stroke-linejoin="round" stroke-width=".1" d="M60.41 115.823c-.88-3-3.24-5.8-7.1-8.13l-.5-.28c-10.32-5.91-27-6-37.53-.1l-.37.21c-4.11 2.43-6.62 5.36-7.52 8.43a10 10 0 0 1-.75 1.79 11.6 11.6 0 0 1 2.28-2.23q.48-.41 1-.77c.5-.34 1.18-.77 1.69-1.07l.44-.25c12.38-6.91 31.93-6.82 44.05.11l.58.34a21 21 0 0 1 3 2.16 11 11 0 0 1 1.47 1.58 10 10 0 0 1-.74-1.79Z"/><ellipse cx="33.923" cy="126.577" fill="url(#g)" fill-rule="nonzero" stroke="#a4fcfe" stroke-linejoin="round" stroke-width=".1" rx="31.56" ry="18.28" transform="rotate(-.16 33.923 126.577)"/><path fill="url(#h)" fill-rule="nonzero" stroke="#a4fcfe" stroke-linejoin="round" stroke-width=".1" d="M60.42 115.833a10 10 0 0 0 .76 1.79 15.1 15.1 0 0 0-4.46-3.74c4.53 2.72 7.3 6.06 8.33 9.53-3.04-2.21-4.56-7.31-4.63-7.58Z"/><path fill="url(#i)" fill-rule="nonzero" stroke="#a4fcfe" stroke-linejoin="round" stroke-width=".1" d="M11.64 113.673c-.37.22-.87.51-1.23.76-.63.44-1.46 1-2.06 1.54a11.2 11.2 0 0 0-1.7 1.79 10 10 0 0 0 .74-1.81c-.08.27-1.56 5.39-4.58 7.6 1.05-3.6 4.01-7.09 8.83-9.88Z"/><path fill="url(#j)" fill-rule="nonzero" stroke="#a4fcfe" stroke-linejoin="round" stroke-width=".1" d="M65.04 123.403c-3-2.2-4.55-7.3-4.62-7.57 1.45 4.92-1.2 10.17-7.89 13.9-10.72 6-27.74 5.81-38-.38-6.12-3.69-8.47-8.68-7.11-13.37-.08.27-1.56 5.39-4.58 7.6-1.6 5.51 1.16 11.36 8.35 15.69 12.07 7.26 32.05 7.46 44.62.45 7.83-4.38 10.94-10.54 9.23-16.32Z"/><ellipse cx="33.901" cy="118.397" fill="url(#k)" fill-rule="nonzero" stroke="#a4fcfe" stroke-linejoin="round" stroke-width=".1" rx="26.89" ry="15.58" transform="rotate(-.16 33.9 118.397)"/><path fill="url(#l)" fill-rule="nonzero" stroke="#a4fcfe" stroke-linejoin="round" stroke-width=".1" d="m54.39 13.733-15.28 8.88-21.62-12.48 15.28-8.88z"/><path fill="#3480d2" fill-rule="nonzero" d="m54.39 13.733-.01 1.63-15.27 8.88v-1.63z"/><path fill="#0c2840" fill-rule="nonzero" d="M39.11 22.613v1.63l-21.62-12.48v-1.63z"/><g opacity=".6"><g opacity=".2"><path fill="url(#m)" fill-rule="nonzero" d="m12.46 7.24.07 18.15L.07 18.15 0 0z" transform="translate(16.7 86.683)"/><path fill="url(#m)" fill-rule="nonzero" stroke="#5ac8f7" stroke-linejoin="round" stroke-width=".25" d="m12.46 7.24.07 18.15L.07 18.15 0 0z" transform="translate(16.7 86.683)"/><path stroke="#5ac8f7" stroke-linejoin="round" stroke-width=".25" d="m29.16 93.923.07 18.15-12.46-7.24-.07-18.15z"/></g><g opacity=".2"><path fill="url(#n)" fill-rule="nonzero" d="m7.21 0 .07 18.15-7.21 4.17L0 4.16z" transform="translate(9.49 86.683)"/><path fill="url(#n)" fill-rule="nonzero" stroke="#5ac8f7" stroke-linejoin="round" stroke-width=".25" d="m7.21 0 .07 18.15-7.21 4.17L0 4.16z" transform="translate(9.49 86.683)"/><path stroke="#5ac8f7" stroke-linejoin="round" stroke-width=".25" d="m16.7 86.683.07 18.15-7.21 4.17-.07-18.16z"/></g><path fill="url(#o)" fill-rule="nonzero" d="m7.21 0 .07 18.15-7.21 4.17L0 4.17z" transform="translate(21.95 93.923)"/><path fill="url(#o)" fill-rule="nonzero" stroke="#5ac8f7" stroke-linejoin="round" stroke-width=".25" d="m7.21 0 .07 18.15-7.21 4.17L0 4.17z" transform="translate(21.95 93.923)"/><path stroke="#5ac8f7" stroke-linejoin="round" stroke-width=".25" d="m29.16 93.923.07 18.15-7.21 4.17-.07-18.15z"/><g opacity=".2"><path fill="url(#p)" fill-rule="nonzero" d="m19.67 7.24-7.21 4.17L0 4.17 7.21 0z" transform="translate(9.56 104.833)"/><path fill="url(#p)" fill-rule="nonzero" stroke="#5ac8f7" stroke-linejoin="round" stroke-width=".25" d="m19.67 7.24-7.21 4.17L0 4.17 7.21 0z" transform="translate(9.56 104.833)"/><path stroke="#5ac8f7" stroke-linejoin="round" stroke-width=".25" d="m29.23 112.073-7.21 4.17-12.46-7.24 7.21-4.17z"/></g><path fill="url(#q)" fill-rule="nonzero" d="M12.53 25.4.07 18.16 0 0l12.46 7.25z" transform="translate(9.49 90.843)"/><path fill="url(#q)" fill-rule="nonzero" stroke="#5ac8f7" stroke-linejoin="round" stroke-width=".25" d="M12.53 25.4.07 18.16 0 0l12.46 7.25z" transform="translate(9.49 90.843)"/><path stroke="#5ac8f7" stroke-linejoin="round" stroke-width=".25" d="m22.02 116.243-12.46-7.24-.07-18.16 12.46 7.25z"/><path fill="url(#r)" fill-rule="nonzero" d="M12.46 11.41 0 4.16 7.21 0l12.46 7.24z" transform="translate(9.49 86.683)"/><path fill="url(#r)" fill-rule="nonzero" stroke="#5ac8f7" stroke-linejoin="round" stroke-width=".25" d="M12.46 11.41 0 4.16 7.21 0l12.46 7.24z" transform="translate(9.49 86.683)"/><path stroke="#5ac8f7" stroke-linejoin="round" stroke-width=".25" d="m21.95 98.093-12.46-7.25 7.21-4.16 12.46 7.24z"/><path fill="url(#s)" fill-rule="nonzero" stroke="url(#t)" stroke-linejoin="round" stroke-width=".25" d="M9.267 13.98a5.19 5.19 0 0 1-2.36-4.08c0-1.5 1.07-2.1 2.37-1.35a5.2 5.2 0 0 1 2.36 4.08c.02 1.5-1.04 2.1-2.37 1.35Z" transform="translate(3.653 86.683)"/><path fill="url(#u)" fill-rule="nonzero" stroke="url(#v)" stroke-linejoin="round" stroke-width=".25" d="M7.907 14.8a1.68 1.68 0 0 0 1.68.16l1.39-.81a1.66 1.66 0 0 1-1.68-.17 5.19 5.19 0 0 1-2.36-4.08 1.67 1.67 0 0 1 .69-1.51l-1.36.81a1.64 1.64 0 0 0-.69 1.52 5.19 5.19 0 0 0 2.33 4.08Z" transform="translate(3.653 86.683)"/><path fill="url(#w)" fill-rule="nonzero" stroke="url(#x)" stroke-linejoin="round" stroke-width=".5" d="M7.907 14.77a5.18 5.18 0 0 1-2.35-4.07c0-1.5 1.06-2.11 2.37-1.35a5.19 5.19 0 0 1 2.34 4.07c0 1.5-1 2.11-2.36 1.35Z" transform="translate(3.653 86.683)"/><path fill="url(#y)" fill-rule="nonzero" stroke="url(#z)" stroke-linejoin="round" stroke-width=".25" d="M3.807 16.96a1.49 1.49 0 0 0 1.51.15l4.2-2.44a1.48 1.48 0 0 1-1.51-.14 4.69 4.69 0 0 1-2.12-3.67 1.5 1.5 0 0 1 .62-1.36l-4.24 2.43a1.5 1.5 0 0 0-.58 1.34 4.68 4.68 0 0 0 2.12 3.69Z" transform="translate(3.653 86.683)"/><path stroke="url(#A)" stroke-linejoin="round" stroke-width=".25" d="M8.007 14.53a4.69 4.69 0 0 1-2.12-3.67c0-1.35 1-1.89 2.14-1.22a4.66 4.66 0 0 1 2.11 3.63c0 1.39-.96 1.93-2.13 1.26Z" transform="translate(3.653 86.683)"/><path fill="url(#B)" fill-rule="nonzero" stroke="#5ac8f7" stroke-linejoin="round" stroke-width=".25" d="M2.12 5.182A4.68 4.68 0 0 1 0 1.512c0-1.35 1-1.9 2.13-1.22a4.64 4.64 0 0 1 2.12 3.67c0 1.36-.96 1.9-2.13 1.22Z" opacity=".08" transform="translate(5.34 98.441)"/><path fill="url(#C)" fill-rule="nonzero" stroke="url(#D)" stroke-linejoin="round" stroke-width=".5" d="M3.747 17.27a5.22 5.22 0 0 1-2.35-4.08c0-1.5 1.06-2.1 2.37-1.35a5.18 5.18 0 0 1 2.35 4.08c0 1.49-1.06 2.1-2.37 1.35Z" transform="translate(3.653 86.683)"/><path fill="url(#E)" fill-rule="nonzero" stroke="url(#F)" stroke-linejoin="round" stroke-width=".25" d="M2.367 18.08a1.69 1.69 0 0 0 1.68.17l1.38-.82a1.66 1.66 0 0 1-1.68-.16 5.22 5.22 0 0 1-2.35-4.08 1.64 1.64 0 0 1 .69-1.52l-1.39.82A1.67 1.67 0 0 0 .007 14a5.19 5.19 0 0 0 2.36 4.08Z" transform="translate(3.653 86.683)"/><path fill="url(#G)" fill-rule="nonzero" stroke="#5ac8f7" stroke-linejoin="round" stroke-width=".25" d="M2.367 18.06a5.19 5.19 0 0 1-2.36-4.08c0-1.5 1.07-2.1 2.37-1.35a5.19 5.19 0 0 1 2.36 4.08c-.01 1.5-1.07 2.1-2.37 1.35Z" transform="translate(3.653 86.683)"/></g><g fill-rule="nonzero" stroke-linejoin="round" stroke-width=".25" opacity=".6"><path fill="url(#H)" stroke="#5ac8f7" d="M15.63 82.783c-1.42 0-2.5-.83-2.5-1.77v-69.58a2.36 2.36 0 0 0-1.14-2.06l-6.93-4v68.07c0 .94-1.12 1.47-2.5 1.47s-2.5-.64-2.5-1.47V4.503a4.5 4.5 0 0 1 6.75-3.9l7.68 4.44a7.38 7.38 0 0 1 3.69 6.39v69.58c-.05 1.03-1.14 1.77-2.55 1.77Z" transform="translate(35.93 42.23)"/><path fill="url(#I)" stroke="url(#J)" d="M4.202 2.427a3.86 3.86 0 0 1-3.53 0 1.08 1.08 0 0 1 0-2 3.86 3.86 0 0 1 3.53 0 1.08 1.08 0 0 1 0 2Z" opacity=".2" transform="translate(49.128 122.166)"/><path fill="url(#K)" stroke="url(#L)" d="M17.4 15.723a3.86 3.86 0 0 1-3.53 0 1.08 1.08 0 0 1 0-2 3.92 3.92 0 0 1 3.53 0 1.08 1.08 0 0 1 0 2Z" transform="translate(35.93 42.23)"/><path fill="url(#M)" stroke="url(#N)" d="M4.26 10.003a3.9 3.9 0 0 1-3.52 0 1.08 1.08 0 0 1 0-2.05 3.9 3.9 0 0 1 3.52 0c.99.57.98 1.48 0 2.05Z" transform="translate(35.93 42.23)"/><path fill="url(#O)" stroke="url(#P)" d="M4.202 2.427a3.86 3.86 0 0 1-3.53 0 1.08 1.08 0 0 1 0-2 3.86 3.86 0 0 1 3.53 0 1.08 1.08 0 0 1 0 2Z" opacity=".2" transform="translate(36.018 114.286)"/></g><g stroke-linejoin="round" stroke-width=".25" opacity=".6"><path fill="url(#Q)" fill-rule="nonzero" stroke="url(#R)" d="M19.916 5.751a5.19 5.19 0 0 1-2.36-4.08c0-1.49 1.07-2.1 2.37-1.35a5.2 5.2 0 0 1 2.36 4.08c-.01 1.5-1.07 2.11-2.37 1.35Z" transform="translate(43.914 34.351)"/><path fill="url(#S)" fill-rule="nonzero" stroke="url(#T)" d="M18.526 6.601a1.66 1.66 0 0 0 1.68.16l1.39-.81a1.66 1.66 0 0 1-1.68-.17 5.19 5.19 0 0 1-2.36-4.08 1.68 1.68 0 0 1 .69-1.51l-1.38.81a1.64 1.64 0 0 0-.69 1.52 5.19 5.19 0 0 0 2.35 4.08Z" transform="translate(43.914 34.351)"/><path stroke="url(#U)" d="M18.526 6.601a5.19 5.19 0 0 1-2.35-4.08c0-1.5 1.06-2.11 2.37-1.35a5.2 5.2 0 0 1 2.35 4.07c0 1.45-1.06 2.06-2.37 1.36Z" transform="translate(43.914 34.351)"/><path fill="url(#V)" fill-rule="nonzero" stroke="url(#W)" d="M14.426 8.731a1.46 1.46 0 0 0 1.51.15l4.2-2.43a1.51 1.51 0 0 1-1.51-.15 4.69 4.69 0 0 1-2.12-3.7 1.5 1.5 0 0 1 .62-1.36l-4.2 2.43a1.53 1.53 0 0 0-.62 1.37 4.68 4.68 0 0 0 2.12 3.69Z" transform="translate(43.914 34.351)"/><path stroke="url(#X)" d="M18.626 6.301a4.69 4.69 0 0 1-2.12-3.7c0-1.35 1-1.89 2.14-1.22a4.66 4.66 0 0 1 2.11 3.67c0 1.38-.96 1.93-2.13 1.25Z" transform="translate(43.914 34.351)"/><path fill="url(#Y)" fill-rule="nonzero" stroke="#5ac8f7" d="M2.12 5.177A4.69 4.69 0 0 1 0 1.507C0 .157 1-.383 2.13.287a4.64 4.64 0 0 1 2.12 3.67c0 1.35-.96 1.89-2.13 1.22Z" opacity=".08" transform="translate(56.22 37.895)"/><path fill="url(#Z)" fill-rule="nonzero" stroke="url(#aa)" d="M2.156 15.821a1.51 1.51 0 0 0 1.51.15l10.82-6.26a1.49 1.49 0 0 1-1.48-.11 4.63 4.63 0 0 1-2.12-3.67 1.48 1.48 0 0 1 .62-1.36l-10.84 6.22a1.46 1.46 0 0 0-.66 1.36 4.66 4.66 0 0 0 2.15 3.67Z" transform="translate(43.914 34.351)"/><path stroke="url(#ab)" d="M13.006 9.601a4.63 4.63 0 0 1-2.12-3.67c0-1.34 1-1.89 2.13-1.21a4.69 4.69 0 0 1 2.12 3.67c-.04 1.31-.99 1.85-2.13 1.21Z" transform="translate(43.914 34.351)"/><path fill="url(#ac)" fill-rule="nonzero" stroke="#5ac8f7" d="M2.15 5.174A4.66 4.66 0 0 1 0 1.504C0 .154 1-.386 2.13.294a4.64 4.64 0 0 1 2.15 3.68c0 1.33-.95 1.88-2.13 1.2Z" opacity=".2" transform="translate(43.92 44.978)"/><path fill="url(#ad)" fill-rule="nonzero" stroke="url(#ae)" d="M14.366 9.041a5.21 5.21 0 0 1-2.36-4.08c0-1.5 1.06-2.1 2.37-1.35a5.18 5.18 0 0 1 2.35 4.08c.01 1.5-1.05 2.1-2.36 1.35Z" transform="translate(43.914 34.351)"/><path fill="url(#af)" fill-rule="nonzero" stroke="url(#ag)" d="M13.006 9.851a1.66 1.66 0 0 0 1.68.17l1.32-.82a1.66 1.66 0 0 1-1.68-.16 5.21 5.21 0 0 1-2.32-4.08 1.63 1.63 0 0 1 .69-1.51l-1.39.81a1.68 1.68 0 0 0-.69 1.51 5.19 5.19 0 0 0 2.39 4.08Z" transform="translate(43.914 34.351)"/><path fill="url(#ah)" fill-rule="nonzero" stroke="#5ac8f7" d="M13.006 9.831a5.19 5.19 0 0 1-2.36-4.08c0-1.5 1.07-2.1 2.37-1.35a5.2 5.2 0 0 1 2.36 4.08c-.03 1.5-1.09 2.12-2.37 1.35Z" transform="translate(43.914 34.351)"/></g><g fill-rule="nonzero" stroke="#5ac8f7" stroke-linejoin="round" stroke-width=".25" opacity=".6" transform="translate(7.02 56.82)"><ellipse cx="26.763" cy="15.545" fill="url(#ai)" opacity=".2" rx="15.47" ry="26.72" transform="rotate(-89.84 27.89 16.506)"/><path fill="url(#aj)" d="m53.63 15.622-.2 1.84c0 3.94-2.6 7.87-7.76 10.87-10.41 6-27.32 6-37.78 0-5.27-3-7.9-7-7.89-11l.2-1.84c0 4 2.62 8 7.89 11 10.47 6 27.37 6 37.78 0 5.17-3.01 7.75-6.93 7.76-10.87Z"/><ellipse cx="26.915" cy="15.545" fill="url(#ak)" rx="15.47" ry="26.72" transform="rotate(-89.84 26.915 15.545)"/></g><path fill="url(#al)" fill-rule="nonzero" stroke="#a4fcfe" stroke-linejoin="round" stroke-width=".1" d="M18.97 10.383v5.62a1 1 0 0 1-.61.85 3.24 3.24 0 0 1-2.94 0 1.06 1.06 0 0 1-.62-.86v-5.62c.038.376.275.704.62.86a3.24 3.24 0 0 0 2.94 0 1.07 1.07 0 0 0 .61-.85Z"/><ellipse cx="16.877" cy="10.382" fill="url(#am)" fill-rule="nonzero" stroke="#a4fcfe" stroke-linejoin="round" stroke-width=".1" rx="1.21" ry="2.08" transform="rotate(-89.84 16.877 10.382)"/><path fill="url(#an)" fill-rule="nonzero" stroke="#a4fcfe" stroke-linejoin="round" stroke-width=".1" d="M19.78 8.343v2.38a1.42 1.42 0 0 1-.86 1.17c-1.28.66-2.8.66-4.08 0a1.46 1.46 0 0 1-.86-1.19v-2.38c.042.525.368.985.85 1.2a4.53 4.53 0 0 0 4.09 0 1.46 1.46 0 0 0 .86-1.18Z"/><ellipse cx="16.887" cy="8.336" fill="url(#ao)" fill-rule="nonzero" stroke="#a4fcfe" stroke-linejoin="round" stroke-width=".1" rx="1.67" ry="2.89" transform="rotate(-89.84 16.887 8.336)"/><path fill="url(#ap)" fill-rule="nonzero" stroke="#a4fcfe" stroke-linejoin="round" stroke-width=".1" d="M29.86 18.373v5.58a1 1 0 0 1-.61.85 3.24 3.24 0 0 1-2.94 0 1.06 1.06 0 0 1-.62-.86v-5.62a1 1 0 0 0 .61.86 3.26 3.26 0 0 0 2.95 0 1 1 0 0 0 .61-.81Z"/><ellipse cx="27.778" cy="18.364" fill="url(#aq)" fill-rule="nonzero" stroke="#a4fcfe" stroke-linejoin="round" stroke-width=".1" rx="1.21" ry="2.08" transform="rotate(-89.84 27.778 18.364)"/><path fill="url(#ar)" fill-rule="nonzero" stroke="#a4fcfe" stroke-linejoin="round" stroke-width=".1" d="M30.67 16.333v2.38a1.41 1.41 0 0 1-.84 1.17c-1.28.66-2.8.66-4.08 0a1.45 1.45 0 0 1-.83-1.19v-2.37c.052.522.38.976.86 1.19a4.51 4.51 0 0 0 4.08 0c.46-.222.768-.671.81-1.18Z"/><ellipse cx="27.778" cy="16.328" fill="url(#as)" fill-rule="nonzero" stroke="#a4fcfe" stroke-linejoin="round" stroke-width=".1" rx="1.67" ry="2.89" transform="rotate(-89.84 27.778 16.328)"/><path fill="url(#at)" fill-rule="nonzero" stroke="#5ac8f7" stroke-linejoin="round" stroke-width=".25" d="m60.81 21.753-.11 96.93c0 4-2.61 7.89-7.8 10.91-10.44 6.07-27.41 6.07-37.92 0-5.29-3-7.93-7.06-7.92-11.06l.11-96.94c0 4 2.63 8 7.92 11.07 10.51 6.06 27.48 6.06 37.92 0 5.19-3.02 7.79-6.96 7.8-10.91Z"/></g></svg>