<svg xmlns="http://www.w3.org/2000/svg" viewBox="0 0 150 151"><title>tube pump（管式泵）</title><defs><linearGradient id="a" x1="0%" x2="100%" y1="49.995%" y2="49.995%"><stop offset="0%" stop-color="#6b6b6b"/><stop offset="1%" stop-color="#767676"/><stop offset="3%" stop-color="#959595"/><stop offset="4%" stop-color="#aaa"/><stop offset="37%" stop-color="#ccc"/><stop offset="74%" stop-color="#eaeaea"/><stop offset="94%" stop-color="#f6f6f6"/><stop offset="95%" stop-color="#ededed"/><stop offset="96%" stop-color="#d4d4d4"/><stop offset="97%" stop-color="#ababab"/><stop offset="99%" stop-color="#737373"/><stop offset="99%" stop-color="#666"/></linearGradient><linearGradient id="b" x1="0%" x2="100%" y1="50.033%" y2="50.033%"><stop offset="0%" stop-color="#6b6b6b"/><stop offset="1%" stop-color="#767676"/><stop offset="3%" stop-color="#959595"/><stop offset="4%" stop-color="#aaa"/><stop offset="37%" stop-color="#ccc"/><stop offset="74%" stop-color="#eaeaea"/><stop offset="94%" stop-color="#f6f6f6"/><stop offset="95%" stop-color="#ededed"/><stop offset="96%" stop-color="#d4d4d4"/><stop offset="97%" stop-color="#ababab"/><stop offset="99%" stop-color="#737373"/><stop offset="99%" stop-color="#666"/></linearGradient></defs><g fill="none" fill-rule="evenodd" transform="translate(0 2.12)"><ellipse cx="74.12" cy="42.33" stroke="#7a7a7a" stroke-width="4" rx="43.17" ry="42.33"/><g fill="#a5a5a5" fill-rule="nonzero"><path d="M80.53 39.35h35.58v5.97H80.53zM74.736 35.289l17.79-30.814 5.17 2.985-17.79 30.814zM68.323 38.274 50.533 7.46l5.17-2.985 17.79 30.814zM67.7 45.32H32.12v-5.97H67.7zM73.495 49.38l-17.79 30.814-5.17-2.985 17.79-30.813zM79.91 46.398 97.7 77.21l-5.17 2.985-17.79-30.813z"/></g><path fill="url(#a)" fill-rule="nonzero" d="M21.23 33.6h105.44v99.37H21.23z"/><path fill="url(#b)" fill-rule="nonzero" d="M0 132.96h149.89v15.07H0z"/><ellipse cx="73.41" cy="83.56" fill="#c6c6c6" fill-rule="nonzero" stroke="#7a7a7a" stroke-width="4" rx="43.17" ry="42.33"/><ellipse cx="73.41" cy="83.56" stroke="#7a7a7a" rx="22.33" ry="21.89"/><circle cx="32.43" cy="42.07" r="5.74" fill="#c6c6c6" fill-rule="nonzero"/><circle cx="32.43" cy="42.07" r="3.11" fill="#a5a5a5" fill-rule="nonzero"/><circle cx="117.29" cy="40.1" r="5.74" fill="#c6c6c6" fill-rule="nonzero"/><circle cx="117.29" cy="40.1" r="3.11" fill="#a5a5a5" fill-rule="nonzero"/><circle cx="116.58" cy="124.77" r="5.74" fill="#c6c6c6" fill-rule="nonzero"/><circle cx="116.58" cy="124.77" r="3.11" fill="#a5a5a5" fill-rule="nonzero"/><circle cx="32.43" cy="124.77" r="5.74" fill="#c6c6c6" fill-rule="nonzero"/><circle cx="32.43" cy="124.77" r="3.11" fill="#a5a5a5" fill-rule="nonzero"/></g></svg>