<svg xmlns="http://www.w3.org/2000/svg" xml:space="preserve" id="图层_1" x="0" y="0" viewBox="0 0 128 128"><style>.st0{fill:#fff}</style><g id="页面-1"><g id="T型开关AB-C" transform="translate(1.42 .99)"><path d="M112.6 27.3c-7.7 0-13.9-6.2-13.9-13.9S105-.5 112.6-.5s13.9 6.2 13.9 13.9-6.2 13.9-13.9 13.9m0-26.8c-7.1 0-12.9 5.8-12.9 12.9s5.8 12.9 12.9 12.9 12.9-5.8 12.9-12.9S119.7.5 112.6.5M13.4 27.3C5.7 27.3-.5 21-.5 13.4S5.7-.5 13.4-.5s13.9 6.2 13.9 13.9S21 27.3 13.4 27.3m0-26.8C6.3.5.5 6.3.5 13.4s5.8 12.9 12.9 12.9 12.9-5.8 12.9-12.9S20.5.5 13.4.5m0 126c-7.7 0-13.9-6.2-13.9-13.9s6.2-13.9 13.9-13.9 13.9 6.2 13.9 13.9-6.3 13.9-13.9 13.9m0-26.7C6.3 99.8.5 105.6.5 112.7s5.8 12.9 12.9 12.9 12.9-5.8 12.9-12.9-5.8-12.9-12.9-12.9" class="st0"/><circle id="椭圆形_4_" cx="112.5" cy="112.5" r="13.4" class="st0"/><path d="M112.5 126.4c-7.7 0-13.9-6.2-13.9-13.9s6.2-13.9 13.9-13.9 13.9 6.2 13.9 13.9-6.3 13.9-13.9 13.9m0-26.8c-7.1 0-12.9 5.8-12.9 12.9s5.8 12.9 12.9 12.9 12.9-5.8 12.9-12.9-5.8-12.9-12.9-12.9M24.498 25.48l.708-.706 75.871 75.871-.707.707z" class="st0"/><path d="m63.045 63.087 36.36-36.335.707.707-36.36 36.335z" class="st0"/><path id="形状" d="M34.4 15.8h-.7l-.7-2.1h-2.2l-.8 2.1h-.7l2.2-6.1h.7zm-2.6-5.1-.8 2.4h1.7z" class="st0"/><path id="形状_1_" d="M93.8 12.6c.4 0 .7.2 1 .5s.4.6.4 1c0 .5-.2 1-.6 1.3-.5.3-1.2.5-1.8.5H91V9.7h1.9c.6 0 1.1.1 1.6.4.4.3.6.7.6 1.1 0 .3-.1.6-.3.8-.4.3-.7.5-1 .6m-2.2-2.2v1.9h1.1c.4 0 .8-.1 1.1-.3.2-.2.4-.5.4-.8s-.1-.5-.4-.6c-.3-.2-.7-.3-1.1-.2zm1 4.8c.5 0 .9-.1 1.3-.3.3-.2.5-.5.5-.8s-.2-.6-.5-.8c-.4-.3-.9-.4-1.3-.3h-1v2.2z" class="st0"/><path id="路径_2_" d="M95.5 114c-.2.3-.5.6-.9.8q-.6.3-1.2.3c-.5 0-1-.1-1.4-.4s-.8-.7-1-1.1c-.2-.5-.3-1.1-.3-1.7s.1-1.1.3-1.6.6-.8 1-1.1.9-.4 1.4-.4q.6 0 1.2.3c.3.2.6.5.8.8l-.6.4c-.2-.2-.4-.4-.7-.6-.3-.1-.5-.2-.8-.2-.4 0-.7.1-1.1.3-.3.2-.6.5-.7.9-.2.4-.3.8-.3 1.3s.1.9.3 1.3c.1.4.4.7.7.9s.7.3 1.1.3c.3 0 .6-.1.8-.2.3-.1.5-.3.7-.6z" class="st0"/></g></g></svg>