<svg xmlns="http://www.w3.org/2000/svg" xml:space="preserve" id="图层_1" x="0" y="0" viewBox="0 0 128 128"><style>.st0{fill:#fff}</style><g id="页面-1"><g id="V型开关OPEN" transform="translate(1.16 .78)"><path d="M112.6 27.3c-7.7 0-13.9-6.2-13.9-13.9S104.9-.5 112.6-.5s13.9 6.2 13.9 13.9c0 7.6-6.2 13.9-13.9 13.9m0-26.8c-7.1 0-12.9 5.8-12.9 12.9s5.8 12.9 12.9 12.9 12.9-5.8 12.9-12.9S119.7.5 112.6.5M13.4 27.3C5.7 27.3-.5 21-.5 13.4-.5 5.7 5.7-.5 13.4-.5s13.9 6.2 13.9 13.9c0 7.6-6.3 13.9-13.9 13.9m0-26.8C6.3.5.5 6.3.5 13.4s5.8 12.9 12.9 12.9 12.9-5.8 12.9-12.9S20.5.5 13.4.5m0 126c-7.7 0-13.9-6.2-13.9-13.9s6.2-13.9 13.9-13.9 13.9 6.2 13.9 13.9-6.3 13.9-13.9 13.9m0-26.7C6.3 99.8.5 105.6.5 112.7s5.8 12.9 12.9 12.9 12.9-5.8 12.9-12.9-5.8-12.9-12.9-12.9" class="st0"/><circle id="椭圆形_4_" cx="112.5" cy="112.5" r="13.4" class="st0"/><path d="M112.5 126.4c-7.7 0-13.9-6.2-13.9-13.9s6.2-13.9 13.9-13.9 13.9 6.2 13.9 13.9-6.2 13.9-13.9 13.9m0-26.8c-7.1 0-12.9 5.8-12.9 12.9s5.8 12.9 12.9 12.9 12.9-5.8 12.9-12.9-5.8-12.9-12.9-12.9M63.227 64.137l.707-.707 37.117 37.128-.707.707z" class="st0"/><path d="m26.547 99.596 36.345-36.345.707.707-36.345 36.345z" class="st0"/><path id="形状" d="M34.4 15.9h-.7l-.7-2.1h-2.2l-.8 2.1h-.7l2.2-6.1h.7zm-2.6-5.1-.8 2.3h1.7z" class="st0"/><path id="形状_1_" d="M93.8 12.6c.4 0 .7.2 1 .5.2.3.4.6.4.9 0 .5-.2 1-.6 1.3-.5.3-1.2.5-1.8.5H91V9.7h1.8c.6 0 1.1.1 1.6.4.4.3.6.7.5 1.1 0 .3-.1.6-.3.8-.2.3-.5.5-.8.6m-2.2-2.2v1.9h1.1c.4 0 .8-.1 1.1-.3s.4-.4.4-.8c0-.3-.1-.5-.4-.7s-.7-.3-1.1-.2h-1.1zm1 4.8c.5 0 .9-.1 1.3-.3.3-.2.5-.5.5-.8s-.2-.6-.5-.8c-.4-.2-.9-.3-1.3-.3h-1.1v2.2z" class="st0"/><g id="路径-2" transform="translate(90.679 108.74)"><path id="路径_2_" d="M4.8 5.2c-.2.4-.5.6-.8.8q-.6.3-1.2.3c-.5 0-1-.1-1.4-.4s-.8-.7-1-1.1C.1 4.3 0 3.7 0 3.1c0-.5.1-1.1.3-1.6S.9.7 1.3.4c.5-.3 1-.4 1.5-.4q.6 0 1.2.3c.3.2.6.4.9.8l-.6.4c-.2-.3-.4-.5-.7-.6-.2-.2-.5-.2-.8-.2-.4 0-.7.1-1 .3s-.6.5-.7.8c-.2.4-.3.9-.3 1.3s.1.9.2 1.3.4.7.7.9.6.3 1 .3c.3 0 .6-.1.8-.2.3-.1.5-.3.7-.6z" class="st0"/></g></g></g></svg>