<svg xmlns="http://www.w3.org/2000/svg" xml:space="preserve" id="图层_1" x="0" y="0" viewBox="0 0 94 129"><style>.st0{fill:#fff}</style><g id="页面-1"><g id="一个绕组上有中间抽头的变压器"><path d="M30.2 71.76C14 71.76.8 58.66.8 42.46s13.2-29.4 29.4-29.4 29.3 13.2 29.3 29.4-13.1 29.3-29.3 29.3m0-57.7c-15.7 0-28.4 12.7-28.4 28.4 0 15.6 12.7 28.4 28.4 28.4s28.3-12.8 28.3-28.4c0-15.7-12.7-28.4-28.3-28.4" class="st0"/><path d="M30.2 115.06C14 115.06.8 101.86.8 85.66s13.2-29.4 29.4-29.4 29.4 13.2 29.4 29.4-13.2 29.4-29.4 29.4m0-57.7c-15.6 0-28.4 12.7-28.4 28.4s12.7 28.4 28.4 28.4 28.4-12.7 28.4-28.4-12.8-28.4-28.4-28.4M29.7.46h1v11.5h-1z" class="st0"/><path d="M29.7.56h1v11.5h-1z" class="st0"/><path d="M29.7.66h1v11.5h-1z" class="st0"/><path d="M29.7.76h1v11.5h-1z" class="st0"/><path d="M29.7.96h1v11.5h-1z" class="st0"/><path d="M29.7 1.06h1v11.5h-1z" class="st0"/><path d="M29.7 1.16h1v11.5h-1z" class="st0"/><path d="M29.7 1.26h1v11.5h-1z" class="st0"/><path d="M29.7 1.36h1v11.5h-1z" class="st0"/><path d="M29.7 1.46h1v11.5h-1z" class="st0"/><path d="M29.7 1.56h1v11.5h-1z" class="st0"/><path d="M29.7 1.66h1v11.5h-1z" class="st0"/><path d="M29.7 1.86h1v11.5h-1z" class="st0"/><path d="M29.7 1.96h1v11.5h-1zm0 115h1v11.5h-1z" class="st0"/><path d="M29.7 116.86h1v11.5h-1z" class="st0"/><path d="M29.7 116.76h1v11.5h-1z" class="st0"/><path d="M29.7 116.66h1v11.5h-1z" class="st0"/><path d="M29.7 116.46h1v11.5h-1z" class="st0"/><path d="M29.7 116.36h1v11.5h-1z" class="st0"/><path d="M29.7 116.26h1v11.5h-1z" class="st0"/><path d="M29.7 116.16h1v11.5h-1z" class="st0"/><path d="M29.7 116.06h1v11.5h-1z" class="st0"/><path d="M29.7 115.96h1v11.5h-1z" class="st0"/><path d="M29.7 115.86h1v11.5h-1z" class="st0"/><path d="M29.7 115.76h1v11.5h-1z" class="st0"/><path d="M29.7 115.56h1v11.5h-1z" class="st0"/><path d="M29.7 115.46h1v11.5h-1z" class="st0"/><path d="M29.7 115.36h1v11.5h-1z" class="st0"/><path d="M29.7 115.26h1v11.5h-1zm0-75.3h1v16.9h-1z" class="st0"/><path d="M30.2 39.46h63.5v1H30.2z" class="st0"/></g></g></svg>