<svg xmlns="http://www.w3.org/2000/svg" xml:space="preserve" id="图层_1" x="0" y="0" viewBox="0 0 130 45"><style>.st0{fill:#fff}</style><g id="页面-1"><g id="三-联杆_xFF08_水泥杆_xFF09_"><path d="M22.3 44.39c-12 0-21.8-9.8-21.8-21.8S10.3.79 22.3.79s21.8 9.8 21.8 21.8-9.8 21.8-21.8 21.8m0-42.6c-11.5 0-20.8 9.3-20.8 20.8s9.3 20.8 20.8 20.8 20.8-9.3 20.8-20.8-9.3-20.8-20.8-20.8" class="st0"/><path d="m6.716 37.176 30.02-30.225.71.705-30.02 30.225z" class="st0"/><path d="m6.582 7.608.71-.705L37.594 37.41l-.71.705zM65.1 44.39c-12 0-21.8-9.8-21.8-21.8S53 .79 65.1.79s21.8 9.8 21.8 21.8-9.8 21.8-21.8 21.8m0-42.6c-11.5 0-20.8 9.3-20.8 20.8s9.3 20.8 20.8 20.8 20.8-9.3 20.8-20.8-9.4-20.8-20.8-20.8" class="st0"/><path d="m49.503 37.143 30.02-30.225.71.705-30.02 30.224z" class="st0"/><path d="m49.366 7.571.71-.705 30.302 30.509-.71.705zM107.7 44.39c-12 0-21.8-9.8-21.8-21.8S95.7.79 107.7.79s21.8 9.8 21.8 21.8-9.8 21.8-21.8 21.8m0-42.6c-11.5 0-20.8 9.3-20.8 20.8s9.3 20.8 20.8 20.8 20.8-9.3 20.8-20.8-9.3-20.8-20.8-20.8" class="st0"/><path d="m92.103 37.141 30.042-30.208.709.706-30.042 30.207z" class="st0"/><path d="m91.97 7.584.71-.705 30.302 30.508-.71.705z" class="st0"/></g></g></svg>