<svg xmlns="http://www.w3.org/2000/svg" xml:space="preserve" id="图层_1" x="0" y="0" viewBox="0 0 130 45"><style>.st0{fill:#fff}</style><g id="页面-1"><g id="三-联杆_xFF08_木杆_xFF09_"><path d="M64.9 44.39c-12 0-21.8-9.8-21.8-21.8S52.9.79 64.9.79s21.8 9.8 21.8 21.8-9.7 21.8-21.8 21.8m0-42.6c-11.5 0-20.8 9.3-20.8 20.8s9.3 20.8 20.8 20.8 20.8-9.3 20.8-20.8-9.3-20.8-20.8-20.8" class="st0"/><path d="M107.7 44.39c-12 0-21.8-9.8-21.8-21.8S95.7.79 107.7.79s21.8 9.8 21.8 21.8-9.8 21.8-21.8 21.8m0-42.6c-11.5 0-20.8 9.3-20.8 20.8s9.3 20.8 20.8 20.8 20.8-9.3 20.8-20.8-9.3-20.8-20.8-20.8m-85.4 42.6c-12 0-21.8-9.8-21.8-21.8S10.3.79 22.3.79s21.8 9.8 21.8 21.8-9.8 21.8-21.8 21.8m0-42.6c-11.5 0-20.8 9.3-20.8 20.8s9.3 20.8 20.8 20.8 20.8-9.3 20.8-20.8-9.3-20.8-20.8-20.8" class="st0"/></g></g></svg>