<svg xmlns="http://www.w3.org/2000/svg" xml:space="preserve" id="图层_1" x="0" y="0" viewBox="0 0 72 129"><style>.st0{fill:#fff}</style><g id="页面-1"><g id="三工位开关_xFF08_分_xFF09_"><path d="M18.93 39.3h1v50.5h-1zm-8.8 6.1h1v37.9h-1zM61.63.6h1v40.1h-1zM.53 51.7h1V77h-1zm33.2 0h1V77h-1z" class="st0"/><path d="M19.83 63.8h14.4v1h-14.4zm42 30.8h1v34h-1z" class="st0"/><path d="m38.422 41.269.918-.398 23.72 54.677-.917.398zM62.43 57.7c-5 0-9-4-9-9s4-9 9-9 9 4 9 9-4 9-9 9m0-17c-4.4 0-8 3.6-8 8s3.6 8 8 8 8-3.6 8-8-3.5-8-8-8" class="st0"/></g></g></svg>