<svg xmlns="http://www.w3.org/2000/svg" xml:space="preserve" id="图层_1" x="0" y="0" viewBox="0 0 106 129"><style>.st0{fill:#fff}</style><g id="页面-1"><g id="三绕组变压器_x28_星形-星形-星形连接_xFF09_"><path d="M53.25 70.42c-16.2 0-29.4-13.2-29.4-29.4s13.2-29.4 29.4-29.4 29.4 13.2 29.4 29.4-13.2 29.4-29.4 29.4m0-57.8c-15.6 0-28.4 12.7-28.4 28.4 0 15.6 12.7 28.4 28.4 28.4 15.6 0 28.4-12.7 28.4-28.4 0-15.6-12.7-28.4-28.4-28.4" class="st0"/><path d="M52.75.52h1v11.5h-1zm-22.4 114.1c-16.2 0-29.4-13.2-29.4-29.4s13.2-29.4 29.4-29.4 29.4 13.2 29.4 29.4-13.2 29.4-29.4 29.4m0-57.7c-15.6 0-28.4 12.7-28.4 28.4s12.7 28.4 28.4 28.4c15.6 0 28.4-12.7 28.4-28.4s-12.8-28.4-28.4-28.4" class="st0"/><path d="M29.45 114.52h1v13.5h-1zm46.8.1c-16.2 0-29.4-13.2-29.4-29.4s13.2-29.4 29.4-29.4 29.4 13.2 29.4 29.4-13.2 29.4-29.4 29.4m0-57.7c-15.6 0-28.4 12.7-28.4 28.4s12.7 28.4 28.4 28.4 28.4-12.7 28.4-28.4-12.7-28.4-28.4-28.4" class="st0"/><path d="M75.75 114.52h1v13.5h-1zm-10.3-65.5h-24.3c-.2 0-.3-.1-.4-.2s-.1-.3 0-.5l12.2-21.1c.2-.3.7-.3.9 0l12.2 21.1c.1.2.1.3 0 .5-.2.1-.4.2-.6.2m-23.4-1h22.6l-11.4-19.6zm-12.7 33.9h1v21.8h-1z" class="st0"/><path d="m29.48 81.673 14.617-10.334.577.817-14.617 10.333z" class="st0"/><path d="m14.966 72.214.577-.816L30.16 81.73l-.577.816zM75.75 82.22h1v21.8h-1z" class="st0"/><path d="m76.018 81.943 14.609-10.345.577.816L76.596 82.76z" class="st0"/><path d="m61.43 72.394.578-.817 14.62 10.326-.576.817z" class="st0"/></g></g></svg>