<svg xmlns="http://www.w3.org/2000/svg" xml:space="preserve" id="图层_1" x="0" y="0" viewBox="0 0 106 128"><style>.st0{fill:#fff}</style><g id="页面-1"><g id="三绕组变压器"><path d="M53.25 70.37c-16.2 0-29.4-13.2-29.4-29.4s13.2-29.4 29.4-29.4 29.4 13.2 29.4 29.4-13.2 29.4-29.4 29.4m0-57.8c-15.6 0-28.4 12.7-28.4 28.4 0 15.6 12.7 28.4 28.4 28.4 15.6 0 28.4-12.7 28.4-28.4 0-15.6-12.7-28.4-28.4-28.4" class="st0"/><path d="M52.75.47h1v11.5h-1zm-22.4 114.2c-16.2 0-29.4-13.2-29.4-29.4s13.2-29.4 29.4-29.4 29.4 13.2 29.4 29.4-13.2 29.4-29.4 29.4m0-57.8c-15.6 0-28.4 12.7-28.4 28.4s12.7 28.4 28.4 28.4c15.6 0 28.4-12.7 28.4-28.4s-12.8-28.4-28.4-28.4" class="st0"/><path d="M29.45 114.47h1v13.5h-1zm46.8.2c-16.2 0-29.4-13.2-29.4-29.4s13.2-29.4 29.4-29.4 29.4 13.2 29.4 29.4-13.2 29.4-29.4 29.4m0-57.8c-15.6 0-28.4 12.7-28.4 28.4s12.7 28.4 28.4 28.4 28.4-12.7 28.4-28.4-12.7-28.4-28.4-28.4" class="st0"/><path d="M75.75 114.47h1v13.5h-1z" class="st0"/></g></g></svg>