<svg xmlns="http://www.w3.org/2000/svg" xml:space="preserve" id="图层_1" x="0" y="0" viewBox="0 0 130 128"><style>.st0{fill:#fff}</style><g id="页面-1"><g id="三相四个次级绕组电流互感器"><path d="M14.1 38.8C6.8 38.8.8 32.8.8 25.5s6-13.3 13.3-13.3 13.3 6 13.3 13.3c0 7.4-6 13.3-13.3 13.3m0-25.5c-6.8 0-12.3 5.5-12.3 12.2 0 6.8 5.5 12.3 12.3 12.3s12.3-5.5 12.3-12.3c0-6.7-5.5-12.2-12.3-12.2" class="st0"/><path d="M14.1 64.5C6.8 64.5.8 58.5.8 51.2s6-13.3 13.3-13.3 13.3 6 13.3 13.3-6 13.3-13.3 13.3m0-25.6c-6.8 0-12.3 5.5-12.3 12.3s5.5 12.3 12.3 12.3S26.4 58 26.4 51.2s-5.5-12.3-12.3-12.3" class="st0"/><path d="M14.1 90.1C6.8 90.1.8 84.1.8 76.8s6-13.3 13.3-13.3 13.3 6 13.3 13.3c0 7.4-6 13.3-13.3 13.3m0-25.5c-6.8 0-12.3 5.5-12.3 12.2s5.5 12.3 12.3 12.3 12.3-5.5 12.3-12.3-5.5-12.2-12.3-12.2" class="st0"/><path d="M14.1 115.7c-7.3 0-13.3-6-13.3-13.3s6-13.3 13.3-13.3 13.3 6 13.3 13.3-6 13.3-13.3 13.3m0-25.6c-6.8 0-12.3 5.5-12.3 12.3s5.5 12.3 12.3 12.3 12.3-5.5 12.3-12.3-5.5-12.3-12.3-12.3" class="st0"/><path d="M13.6 115.2h1V128h-1zM13.5 0h1v12.8h-1zm.1 12.8h1v100.7h-1zm102.3 26c-7.3 0-13.3-6-13.3-13.3s6-13.3 13.3-13.3 13.3 6 13.3 13.3c0 7.4-6 13.3-13.3 13.3m0-25.5c-6.8 0-12.3 5.5-12.3 12.3s5.5 12.3 12.3 12.3 12.3-5.5 12.3-12.3-5.5-12.3-12.3-12.3" class="st0"/><path d="M115.9 64.5c-7.3 0-13.3-6-13.3-13.3s6-13.3 13.3-13.3 13.3 6 13.3 13.3-6 13.3-13.3 13.3m0-25.6c-6.8 0-12.3 5.5-12.3 12.3s5.5 12.3 12.3 12.3 12.3-5.5 12.3-12.3-5.5-12.3-12.3-12.3" class="st0"/><path d="M115.9 90.1c-7.3 0-13.3-6-13.3-13.3s6-13.3 13.3-13.3 13.3 6 13.3 13.3c0 7.4-6 13.3-13.3 13.3m0-25.5c-6.8 0-12.3 5.5-12.3 12.3s5.5 12.3 12.3 12.3 12.3-5.5 12.3-12.3-5.5-12.3-12.3-12.3" class="st0"/><path d="M115.9 115.7c-7.3 0-13.3-6-13.3-13.3s6-13.3 13.3-13.3 13.3 6 13.3 13.3-6 13.3-13.3 13.3m0-25.6c-6.8 0-12.3 5.5-12.3 12.3s5.5 12.3 12.3 12.3 12.3-5.5 12.3-12.3-5.5-12.3-12.3-12.3M115.4 0h1v12.8h-1z" class="st0"/><path d="M115.4 12.8h1v114.7h-1zm-50.5 26c-7.3 0-13.3-6-13.3-13.3s6-13.3 13.3-13.3 13.3 6 13.3 13.3c0 7.4-6 13.3-13.3 13.3m0-25.5c-6.8 0-12.3 5.5-12.3 12.3s5.5 12.3 12.3 12.3 12.3-5.5 12.3-12.3-5.5-12.3-12.3-12.3" class="st0"/><path d="M64.9 64.5c-7.3 0-13.3-6-13.3-13.3s6-13.3 13.3-13.3 13.3 6 13.3 13.3-6 13.3-13.3 13.3m0-25.6c-6.8 0-12.3 5.5-12.3 12.3s5.5 12.3 12.3 12.3S77.2 58 77.2 51.2s-5.5-12.3-12.3-12.3" class="st0"/><path d="M64.9 90.1c-7.3 0-13.3-6-13.3-13.3s6-13.3 13.3-13.3 13.3 6 13.3 13.3c0 7.4-6 13.3-13.3 13.3m0-25.5c-6.8 0-12.3 5.5-12.3 12.3s5.5 12.3 12.3 12.3 12.3-5.5 12.3-12.3-5.5-12.3-12.3-12.3" class="st0"/><path d="M64.9 115.7c-7.3 0-13.3-6-13.3-13.3s6-13.3 13.3-13.3 13.3 6 13.3 13.3-6 13.3-13.3 13.3m0-25.6c-6.8 0-12.3 5.5-12.3 12.3s5.5 12.3 12.3 12.3 12.3-5.5 12.3-12.3-5.5-12.3-12.3-12.3M64.4 0h1v12.8h-1z" class="st0"/><path d="M64.4 12.8h1v114.7h-1z" class="st0"/></g></g></svg>