<svg xmlns="http://www.w3.org/2000/svg" xml:space="preserve" id="图层_1" x="0" y="0" viewBox="0 0 50 129"><style>.st0{fill:#fff}</style><g id="页面-1"><g id="三绕组变压器_x28_中性点引出星形-星形-三星形连接_xFF09_"><path d="M24.78 118.95h1v9.5h-1z" class="st0"/><path d="M24.78 118.85h1v9.5h-1z" class="st0"/><path d="M24.78 118.75h1v9.5h-1z" class="st0"/><path d="M24.78 118.65h1v9.5h-1z" class="st0"/><path d="M24.78 118.55h1v9.5h-1z" class="st0"/><path d="M24.78 118.45h1v9.5h-1z" class="st0"/><path d="M24.78 118.35h1v9.5h-1z" class="st0"/><path d="M24.78 118.25h1v9.5h-1z" class="st0"/><path d="M24.78 118.15h1v9.5h-1z" class="st0"/><path d="M24.78 118.05h1v9.5h-1z" class="st0"/><path d="M24.78 118.05h1v9.5h-1z" class="st0"/><path d="M24.78 117.95h1v9.5h-1z" class="st0"/><path d="M24.78 117.85h1v9.5h-1z" class="st0"/><path d="M24.78 117.75h1v9.5h-1z" class="st0"/><path d="M24.78 117.65h1v9.5h-1z" class="st0"/><path d="M24.78 117.55h1v9.5h-1zm.5-35.9c-13.4 0-24.4-10.9-24.4-24.4 0-13.4 10.9-24.4 24.4-24.4 13.4 0 24.4 10.9 24.4 24.4s-11 24.4-24.4 24.4m0-47.7c-12.9 0-23.4 10.4-23.4 23.3s10.5 23.4 23.4 23.4 23.4-10.5 23.4-23.4-10.5-23.3-23.4-23.3" class="st0"/><path d="M25.28 117.45c-13.4 0-24.4-10.9-24.4-24.4s10.9-24.4 24.4-24.4c13.4 0 24.4 10.9 24.4 24.4s-11 24.4-24.4 24.4m0-47.7c-12.9 0-23.4 10.4-23.4 23.3s10.5 23.4 23.4 23.4 23.4-10.5 23.4-23.4-10.5-23.3-23.4-23.3" class="st0"/><path d="M25.28 117.45c-13.4 0-24.4-10.9-24.4-24.4s10.9-24.4 24.4-24.4c13.4 0 24.4 10.9 24.4 24.4s-11 24.4-24.4 24.4m0-47.7c-12.9 0-23.4 10.4-23.4 23.3s10.5 23.4 23.4 23.4 23.4-10.5 23.4-23.4-10.5-23.3-23.4-23.3" class="st0"/><path d="M35.28 104.25h-20.1c-.2 0-.3-.1-.4-.2s-.1-.3 0-.5l10.1-17.4c.2-.3.7-.3.9 0l10.1 17.4c.1.2.1.3 0 .5-.2.2-.4.2-.6.2m-19.2-1h18.4l-9.2-15.9zm31.5-53.1c-4.4-18-11-30.2-20.9-38.5-.4-.3-.8-.7-1.2-1l-.3-.2.6-.8.3.2c.4.3.8.7 1.2 1 10 8.5 16.8 20.9 21.2 39z" class="st0"/><path d="M24.98.45h1v9.5h-1zm-1 53.2h1v13.6h-1z" class="st0"/><path d="m24.233 53.343 9.146-6.466.578.817-9.146 6.466z" class="st0"/><path d="m15.138 47.7.577-.817 9.147 6.463-.577.816z" class="st0"/><g transform="translate(1.38 .45)"><circle id="椭圆形_4_" cx="23.1" cy="53.1" r="1" class="st0"/><path d="M23.1 54.6c-.8 0-1.5-.7-1.5-1.5s.7-1.5 1.5-1.5 1.5.7 1.5 1.5-.6 1.5-1.5 1.5m0-2.1c-.3 0-.5.2-.5.5s.2.5.5.5.5-.2.5-.5-.2-.5-.5-.5" class="st0"/></g><path d="M24.48 53.15h10.6v1h-10.6z" class="st0"/></g></g></svg>