<svg xmlns="http://www.w3.org/2000/svg" xml:space="preserve" id="图层_1" x="0" y="0" viewBox="0 0 115 129"><style>.st0{fill:#fff}</style><g id="页面-1"><g id="三绕组电压互感器"><path d="M33.5 128.5c-18.2 0-33-14.8-33-33s14.8-33 33-33 33 14.8 33 33-14.9 33-33 33m0-64.9c-17.6 0-32 14.3-32 32s14.3 32 32 32 32-14.3 32-32-14.4-32-32-32" class="st0"/><path d="M81.1 128.5c-18.2 0-33-14.8-33-33s14.8-33 33-33 33 14.8 33 33-14.8 33-33 33m0-64.9c-17.6 0-32 14.3-32 32s14.3 32 32 32c17.6 0 32-14.3 32-32s-14.3-32-32-32" class="st0"/><path d="M57.4 77.3c-18.2 0-33-14.8-33-33s14.8-33 33-33 33 14.8 33 33-14.9 33-33 33m0-64.9c-17.6 0-32 14.3-32 32s14.3 32 32 32c17.6 0 32-14.3 32-32s-14.4-32-32-32" class="st0"/><path d="M56.9 0h1v11.9h-1z" class="st0"/></g></g></svg>