<svg xmlns="http://www.w3.org/2000/svg" xml:space="preserve" id="图层_1" x="0" y="0" viewBox="0 0 130 80"><style>.st0{fill:#fff}</style><g id="页面-1"><g id="不良地质区"><path d="M129 79.8H1c-.3 0-.5-.2-.5-.5V.7C.5.4.7.2 1 .2h128c.3 0 .5.2.5.5v78.6c0 .3-.2.5-.5.5m-127.5-1h127V1.2H1.5z" class="st0"/><path d="M1 23.2h21.2v1H1zm0-10.9h21.2v1H1zm0 21.9h21.2v1H1zm0 10.9h21.2v1H1zM1 56h21.2v1H1zm0 10.9h21.2v1H1zm106.8-43.7H129v1h-21.2zm0-10.9H129v1h-21.2zm0 21.9H129v1h-21.2zm0 10.9H129v1h-21.2zm0 10.9H129v1h-21.2zm0 10.9H129v1h-21.2zM81.1 23.2h21.2v1H81.1zm0-10.9h21.2v1H81.1zm0 21.9h21.2v1H81.1zm0 10.9h21.2v1H81.1zm0 10.9h21.2v1H81.1zm0 10.9h21.2v1H81.1zm-5.5 2.2h5.5v1h-5.5zm26.6 0h5.5v1h-5.5z" class="st0"/><path d="M107.2 63.1h1v8.6h-1zm0-10.9h1v8.6h-1zm2-26.5h1v12h-1zm-2 14.3h1v8.6h-1zM93 69.1h5.5v1H93zm-8.6 0h5.5v1h-5.5zM27.7 23.2h21.2v1H27.7zm0-10.9h21.2v1H27.7zm0 21.9h21.2v1H27.7zm0 10.9h21.2v1H27.7zm0 10.9h21.2v1H27.7zm0 10.9h21.2v1H27.7zm26.7-43.7h21.2v1H54.4zm0-10.9h21.2v1H54.4zm0 21.9h21.2v1H54.4zm0 10.9h21.2v1H54.4zm0 10.9h21.2v1H54.4zm0 10.9h21.2v1H54.4zm-45.6.6-.3-1.6 1-.2.3 1.6zm-.7-3.6-.4-2 1-.2.4 2zm-.7-4-.4-2 1-.2.4 2zm6.2 6.7-.3-1.6 1-.2.3 1.6zM13 63l-.4-2 1-.2.4 2zm-.7-3.9-.4-2 1-.2.4 2zm6.5 7.6-.3-1.6 1-.2.3 1.6zm-.7-3.6-.4-2 1-.2.4 2zm-.7-3.9-.4-2 1-.2.4 2z" class="st0"/><path d="m35.3 24-.3-1.7 1-.2.3 1.6zm-.7-3.6-.4-2 1-.2.4 2zm-.7-4-.4-2 1-.2.4 2zm6.2 6.7-.3-1.6 1-.2.3 1.6zm-.6-3.6-.4-2 1-.2.4 2zm-.7-3.9-.4-2 1-.2.4 2zm6.5 7.6-.3-1.6 1-.2.3 1.6zm-.7-3.6-.4-2 1-.2.4 2zm-.7-3.9-.4-2 1-.2.4 2zm18.5 51.5-.3-1.6 1-.2.3 1.6zm-.7-3.6-.4-2 1-.2.4 2zm-.7-3.9-.4-2 1-.2.4 2zm6.3 6.6-.3-1.6 1-.2.3 1.6zm-.7-3.6-.4-2 1-.2.4 2zm-.7-3.9-.4-2 1-.2.4 2zm6.5 7.7-.3-1.6 1-.2.3 1.6zm-.7-3.6-.4-2 1-.2.4 2zm-.7-4-.4-2 1-.2.4 2zM98.8 24l-.3-1.6 1-.2.3 1.6zm-.7-3.6-.4-2 1-.2.4 2zm-.7-4-.4-2 1-.2.4 2zm6.2 6.7-.3-1.6 1-.2.3 1.6zm-.6-3.6-.4-2 1-.2.4 2zm-.8-3.9-.4-2 1-.2.4 2zm6.3 6.6-.3-1.6 1-.2.3 1.6zm-.7-3.6-.4-2 1-.2.4 2zm-.7-3.9-.4-2 1-.2.4 2z" class="st0"/></g></g></svg>