<svg xmlns="http://www.w3.org/2000/svg" xml:space="preserve" id="图层_1" x="0" y="0" viewBox="0 0 117 129"><style>.st0{fill:#fff}</style><g id="页面-1"><g id="中性点引出星形连接的三相绕组"><path d="M57.7 41.54h1v86.6h-1z" class="st0"/><path d="M57.737 41.717 115.715.728l.578.817-57.979 40.988z" class="st0"/><path d="M.13 1.542.707.725l57.985 40.974-.577.817z" class="st0"/><g transform="translate(.4 1.14)"><circle id="椭圆形_1_" cx="57.8" cy="39.5" r="6.5" class="st0"/><path d="M57.8 46.5c-3.9 0-7-3.1-7-7s3.1-7 7-7 7 3.1 7 7-3.2 7-7 7m0-13c-3.3 0-6 2.7-6 6s2.7 6 6 6 6-2.7 6-6-2.7-6-6-6" class="st0"/></g></g></g></svg>