<svg xmlns="http://www.w3.org/2000/svg" xml:space="preserve" id="图层_1" x="0" y="0" viewBox="0 0 128 129"><style>.st0{fill:#fff}</style><g id="页面-1"><g id="中性点引出的叉形脸连接六相绕组"><g transform="translate(.97 1.14)"><circle id="椭圆形_1_" cx="63.2" cy="63.5" r="6.5" class="st0"/><path d="M63.2 70.5c-3.9 0-7-3.1-7-7s3.1-7 7-7 7 3.1 7 7-3.1 7-7 7m0-13c-3.3 0-6 2.7-6 6s2.7 6 6 6 6-2.7 6-6-2.7-6-6-6" class="st0"/></g><path d="M63.67 20.84h1v42.3h-1z" class="st0"/><path d="M63.855 20.708 92.19.675l.577.817-28.336 20.032z" class="st0"/><path d="m35.733 1.531.577-.816 28.34 20.022-.578.816zM28.67 85.84h1v42.3h-1z" class="st0"/><path d="m28.856 85.712 28.336-20.033.578.817-28.336 20.032z" class="st0"/><path d="m.73 66.53.578-.817 28.34 20.022-.578.816zm97.94 19.31h1v42.3h-1z" class="st0"/><path d="m98.842 85.697 28.35-20.008.577.817-28.35 20.008zm-30.999-24 28.35-20.008.576.817-28.35 20.008z" class="st0"/><path d="m70.73 66.534.578-.817 28.34 20.022-.578.817z" class="st0"/></g></g></svg>