<svg xmlns="http://www.w3.org/2000/svg" viewBox="0 0 130 130"><title>临时保电符</title><g fill="none" fill-rule="evenodd"><path stroke="#fd211c" stroke-linejoin="round" d="M1 1h128v128H1z"/><path fill="#fd211c" fill-rule="nonzero" d="M31.47 94.35h-1.58V35.48h1.58zM46 104.29h-1.59V26.76H46zM100.11 39v1.49h-35.2A111.5 111.5 0 0 1 52.5 59.76l-1.23-1a113.4 113.4 0 0 0 10.56-15.98 101.4 101.4 0 0 0 7.75-17.07l1.49.53A102 102 0 0 1 65.7 39zm-39.95 64.15h-1.58v-39.6h36.87v39.6h-1.59v-6.34h-33.7zm16.1-7.66V65h-16.1v30.49zm9-37.22q-2.82-3.17-6.82-7.35t-6.2-6.12l1.14-1q2.37 2.1 6.6 6.46t6.42 6.91zm-7.41 37.22h16V65h-16z"/></g></svg>