<svg xmlns="http://www.w3.org/2000/svg" xml:space="preserve" id="图层_1" x="0" y="0" viewBox="0 0 130 130"><style>.st0{fill:#fff}</style><g id="页面-1"><g id="交叉跨越"><path d="M65 129.04c-35.6 0-64.5-28.9-64.5-64.5S29.4.04 65 .04s64.5 28.9 64.5 64.5-28.9 64.5-64.5 64.5m0-128c-35 0-63.5 28.5-63.5 63.5s28.5 63.5 63.5 63.5 63.5-28.5 63.5-63.5S100 1.04 65 1.04" class="st0"/><path d="M9 64.04h112v1H9z" class="st0"/><path d="M65 87.44v-1c12.1 0 21.9-9.8 21.9-21.9s-9.8-21.9-21.9-21.9v-1c12.6 0 22.9 10.3 22.9 22.9S77.6 87.44 65 87.44" class="st0"/><path d="M64.6 24.14h1v17.9h-1zm-.2 62.9h1v18h-1z" class="st0"/></g></g></svg>