<svg xmlns="http://www.w3.org/2000/svg" xml:space="preserve" id="图层_1" x="0" y="0" viewBox="0 0 130 130"><style>.st0{fill:#fff}</style><g id="页面-1"><g id="交流发电机" transform="translate(1 .54)"><path d="M64 128.5C28.4 128.5-.5 99.6-.5 64S28.4-.5 64-.5s64.5 28.9 64.5 64.5-28.9 64.5-64.5 64.5m0-128C29 .5.5 29 .5 64S29 127.5 64 127.5 127.5 99 127.5 64 99 .5 64 .5" class="st0"/><path d="M74.4 99.2c-3.5 0-7.3-.9-10.7-3.5-9.5-7.3-22.5 0-22.6 0l-.5-.9c.1-.1 13.7-7.7 23.7 0 9.5 7.3 22.5 0 22.6 0l.5.9c-.1.1-6.1 3.5-13 3.5" class="st0"/><path id="路径_1_" d="M59.2 40.2c-1.7 1.1-3.1 2.7-3.9 4.6-.9 2.2-1.4 4.6-1.4 7-.1 2.4.4 4.8 1.3 7 .8 1.9 2.1 3.5 3.8 4.6s3.7 1.7 5.8 1.6c3.3 0 6.4-1.5 8.5-4v-8h-7v-.8h7.8v9.2c-2.3 2.8-5.7 4.4-9.3 4.4-2.2 0-4.4-.5-6.2-1.7s-3.2-2.9-4.1-4.9c-1-2.3-1.5-4.9-1.4-7.4-.1-2.5.4-5.1 1.5-7.4.9-2 2.3-3.7 4.1-4.9 1.9-1.2 4.1-1.8 6.3-1.7 1.6 0 3.1.3 4.5 1 1.4.6 2.6 1.6 3.6 2.8l-.6.6q-1.35-1.65-3.3-2.7c-1.3-.6-2.8-.9-4.2-.9-2 0-4 .5-5.8 1.6" class="st0"/></g></g></svg>