<svg xmlns="http://www.w3.org/2000/svg" xml:space="preserve" id="图层_1" x="0" y="0" viewBox="0 0 129 54"><style>.st0{fill:#fff}</style><g id="页面-1"><g id="低压熔丝箱_xFF08_合_xFF09_"><path d="M119 53.75H10c-.3 0-.5-.2-.5-.5v-52c0-.3.2-.5.5-.5h109c.3 0 .5.2.5.5v52c0 .3-.3.5-.5.5m-108.5-1h107.9v-51H10.5z" class="st0"/><g transform="translate(0 1.25)"><path id="矩形_2_" d="M14.5 14.3h66.2v23.5H14.5z" class="st0"/><path d="M80.7 38.2H14.5c-.3 0-.5-.2-.5-.5V14.3c0-.3.2-.5.5-.5h66.2c.3 0 .5.2.5.5v23.5c0 .2-.2.4-.5.4m-65.7-1h65.2V14.8H15z" class="st0"/></g><path d="M0 26.75h10v1H0zm81.2 0h11.3v1H81.2zm31.8 0h15.2v1H113z" class="st0"/><g transform="translate(0 1.25)"><circle id="椭圆形_1_" cx="102.4" cy="26" r="9.9" class="st0"/><path d="M102.4 36.4C96.6 36.4 92 31.7 92 26s4.7-10.4 10.4-10.4 10.4 4.7 10.4 10.4-4.7 10.4-10.4 10.4m0-19.8c-5.2 0-9.4 4.2-9.4 9.4s4.2 9.4 9.4 9.4 9.4-4.2 9.4-9.4-4.2-9.4-9.4-9.4" class="st0"/></g></g></g></svg>