<svg xmlns="http://www.w3.org/2000/svg" xml:space="preserve" id="图层_1" x="0" y="0" viewBox="0 0 129 129"><style>.st0{fill:#fff}</style><g id="页面-1"><g id="低压配电箱" transform="translate(.5 .25)"><path id="形状" d="M127 1v126H1V1zm1-1H0v128h128z" class="st0"/><path id="形状_1_" d="M22.2 90.2V37.8h13.7c8.6 0 15.3 2.3 19.9 6.8s7 11 7 19.5-2.4 14.9-7.1 19.5c-4.7 4.5-11.5 6.8-20.4 6.8H22.2zm12.9-1.4c8.4 0 14.9-2.1 19.4-6.4S61.2 72 61.2 64 59 49.9 54.6 45.6s-10.7-6.4-18.9-6.4H23.8v49.6z" class="st0"/><path id="形状_2_" d="M86.6 37.8c6.2 0 10.9 1.3 14.2 4s5 6.4 5 11.2c0 4.9-1.7 8.6-5 11.2s-8.1 3.9-14.2 3.9H74.1v22.2h-1.5V37.8zm-.2 28.8c5.7 0 10.2-1.2 13.2-3.5 3.1-2.4 4.6-5.7 4.6-10.1s-1.5-7.8-4.6-10.2-7.5-3.5-13.2-3.5H74.1v27.4h12.3z" class="st0"/></g></g></svg>