<svg xmlns="http://www.w3.org/2000/svg" xml:space="preserve" id="图层_1" x="0" y="0" viewBox="0 0 128 66"><style>.st0{fill:#fff}</style><g id="页面-1"><g id="光缆段_x2018_"><path d="M64.1 65.05c-17.9 0-32.5-14.6-32.5-32.5S46.2.05 64.1.05s32.5 14.6 32.5 32.5-14.5 32.5-32.5 32.5m0-64c-17.3 0-31.5 14.1-31.5 31.5s14.1 31.5 31.5 31.5 31.5-14.1 31.5-31.5-14.1-31.5-31.5-31.5" class="st0"/><path d="M0 32.05h128v1H0z" class="st0"/><path d="m46.658 52.269 8.53-25.406.948.318-8.53 25.406z" class="st0"/><g transform="translate(0 .55)"><path id="路径_3_" d="m60 13.3-8.3 11.8 7.8 2.7z" class="st0"/><path d="M59.5 28.3h-.2l-7.9-2.6c-.1-.1-.3-.2-.3-.3 0-.2 0-.3.1-.4l8.3-11.8c.1-.2.4-.3.6-.2s.3.3.3.5L60 27.8c0 .2-.1.3-.2.4-.1 0-.2.1-.3.1m-7-3.4 6.6 2.2.3-12.1z" class="st0"/></g><path d="m63.51 58.84 8.53-25.406.948.318-8.53 25.407z" class="st0"/><g transform="translate(0 .55)"><path id="路径_5_" d="m76.9 19.8-8.3 11.8 7.8 2.7z" class="st0"/><path d="M76.4 34.8h-.2l-7.9-2.6c-.1-.1-.3-.2-.3-.3 0-.2 0-.3.1-.4l8.3-11.8c.1-.2.4-.3.6-.2s.3.3.3.5l-.5 14.4c0 .2-.1.3-.2.4 0-.1-.1 0-.2 0m-7.1-3.4 6.6 2.2.4-12.1z" class="st0"/></g></g></g></svg>