<svg xmlns="http://www.w3.org/2000/svg" xml:space="preserve" id="图层_1" x="0" y="0" viewBox="0 0 110 129"><style>.st0{fill:#fff}</style><g id="页面-1"><g id="分裂电抗器"><path d="M30.002 110.77c-22.6-11.5-34.3-36.8-28.4-61.5 5.8-24.6 27.6-42 52.9-42.2h.5c25.1 0 46.9 16.9 53.2 41.3 6.3 24.5-4.9 50-27.2 62l-.5-.9c21.9-11.8 32.9-36.8 26.7-60.9s-27.9-40.8-52.7-40.5c-24.9.2-46.2 17.3-51.9 41.5s5.7 49 27.9 60.4z" class="st0"/><path d="M54.502.27h1v7.2h-1zm-53.3 98.8h28.3v1h-28.3z" class="st0"/><path d="M.702 99.77h1v28.5h-1zm28.7 0h1v10h-1zm51.1-.7h28.6v1h-28.6z" class="st0"/><path d="M108.502 99.77h1v28.5h-1zm-28.6 0h1v10h-1z" class="st0"/></g></g></svg>