<svg xmlns="http://www.w3.org/2000/svg" xml:space="preserve" id="图层_1" x="0" y="0" viewBox="0 0 23 129"><style>.st0{fill:#fff}</style><g id="页面-1"><g id="单相五个次级绕组电流互感器"><path d="M11.45 32.75c-6.1 0-11.1-5-11.1-11.2 0-6.1 5-11.1 11.1-11.1s11.2 5 11.2 11.1-5 11.2-11.2 11.2m0-21.4c-5.6 0-10.1 4.6-10.1 10.1 0 5.6 4.6 10.2 10.1 10.2s10.2-4.6 10.2-10.2c0-5.5-4.6-10.1-10.2-10.1" class="st0"/><path d="M11.45 54.05c-6.1 0-11.1-5-11.1-11.1s5-11.1 11.1-11.1 11.2 5 11.2 11.1-5 11.1-11.2 11.1m0-21.3c-5.6 0-10.1 4.6-10.1 10.1s4.6 10.1 10.1 10.1 10.2-4.6 10.2-10.1-4.6-10.1-10.2-10.1" class="st0"/><path d="M11.45 75.45c-6.1 0-11.1-5-11.1-11.2 0-6.1 5-11.1 11.1-11.1s11.2 5 11.2 11.1c0 6.2-5 11.2-11.2 11.2m0-21.3c-5.5 0-10.1 4.6-10.1 10.1s4.6 10.2 10.1 10.2 10.2-4.6 10.2-10.2-4.6-10.1-10.2-10.1" class="st0"/><path d="M11.45 96.75c-6.1 0-11.1-5-11.1-11.1s5-11.2 11.1-11.2 11.2 5 11.2 11.2c0 6.1-5 11.1-11.2 11.1m0-21.3c-5.6 0-10.1 4.6-10.1 10.2s4.6 10.1 10.1 10.1 10.2-4.5 10.2-10.1-4.6-10.2-10.2-10.2" class="st0"/><path d="M11.45 118.05c-6.1 0-11.1-5-11.1-11.2 0-6.1 5-11.1 11.1-11.1s11.2 5 11.2 11.1c0 6.2-5 11.2-11.2 11.2m0-21.3c-5.6 0-10.1 4.6-10.1 10.1s4.6 10.2 10.1 10.2 10.2-4.6 10.2-10.2-4.6-10.1-10.2-10.1" class="st0"/><path d="M10.95 117.55h1v10.7h-1zm0-117.3h1v10.6h-1zm0 10.6h1v106.7h-1z" class="st0"/></g></g></svg>