<svg xmlns="http://www.w3.org/2000/svg" xml:space="preserve" id="图层_1" x="0" y="0" viewBox="0 0 20 128"><style>.st0{fill:#fff}</style><g id="页面-1"><g id="单相六个次级绕组电流互感器"><path d="M9.97 27.9c-5.3 0-9.6-4.3-9.6-9.6s4.3-9.6 9.6-9.6 9.6 4.3 9.6 9.6-4.3 9.6-9.6 9.6m0-18.3c-4.8 0-8.6 3.9-8.6 8.6 0 4.8 3.9 8.6 8.6 8.6 4.8 0 8.6-3.9 8.6-8.6.1-4.7-3.8-8.6-8.6-8.6" class="st0"/><path d="M9.97 46.2c-5.3 0-9.6-4.3-9.6-9.6s4.3-9.6 9.6-9.6 9.6 4.3 9.6 9.6-4.3 9.6-9.6 9.6m0-18.2c-4.8 0-8.6 3.9-8.6 8.6 0 4.8 3.9 8.6 8.6 8.6 4.8 0 8.6-3.9 8.6-8.6.1-4.8-3.8-8.6-8.6-8.6" class="st0"/><path d="M9.97 64.5c-5.3 0-9.6-4.3-9.6-9.6s4.3-9.6 9.6-9.6 9.6 4.3 9.6 9.6-4.3 9.6-9.6 9.6m0-18.2c-4.8 0-8.6 3.9-8.6 8.6s3.9 8.6 8.6 8.6c4.8 0 8.6-3.9 8.6-8.6s-3.8-8.6-8.6-8.6" class="st0"/><path d="M9.97 82.8c-5.3 0-9.6-4.3-9.6-9.6s4.3-9.6 9.6-9.6 9.6 4.3 9.6 9.6c.1 5.3-4.3 9.6-9.6 9.6m0-18.2c-4.8 0-8.6 3.9-8.6 8.6s3.9 8.6 8.6 8.6c4.8 0 8.6-3.9 8.6-8.6s-3.8-8.6-8.6-8.6" class="st0"/><path d="M9.97 101.1c-5.3 0-9.6-4.3-9.6-9.6s4.3-9.6 9.6-9.6 9.6 4.3 9.6 9.6c.1 5.3-4.3 9.6-9.6 9.6m0-18.3c-4.8 0-8.6 3.9-8.6 8.6s3.9 8.6 8.6 8.6c4.8 0 8.6-3.9 8.6-8.6s-3.8-8.6-8.6-8.6" class="st0"/><path d="M9.97 119.4c-5.3 0-9.6-4.3-9.6-9.6s4.3-9.6 9.6-9.6 9.6 4.3 9.6 9.6-4.3 9.6-9.6 9.6m0-18.3c-4.8 0-8.6 3.9-8.6 8.6s3.9 8.6 8.6 8.6c4.8 0 8.6-3.9 8.6-8.6s-3.8-8.6-8.6-8.6" class="st0"/><path d="M9.47 118.9h1v9.1h-1zM9.47 0h1v9.1h-1zm0 9.1h1v109.7h-1z" class="st0"/></g></g></svg>