<svg xmlns="http://www.w3.org/2000/svg" xml:space="preserve" id="图层_1" x="0" y="0" viewBox="0 0 33 128"><style>.st0{fill:#fff}</style><g id="页面-1"><g id="单相三个次级绕组电流互感器"><path d="M16.4 48.3C7.4 48.3 0 40.9 0 31.9s7.4-16.4 16.4-16.4 16.4 7.4 16.4 16.4-7.4 16.4-16.4 16.4m0-31.8C7.9 16.5 1 23.4 1 31.9s6.9 15.4 15.4 15.4 15.4-6.9 15.4-15.4-6.9-15.4-15.4-15.4" class="st0"/><path d="M16.4 80.2C7.4 80.2 0 72.8 0 63.8s7.4-16.4 16.4-16.4 16.4 7.4 16.4 16.4-7.4 16.4-16.4 16.4m0-31.8C7.9 48.4 1 55.3 1 63.8s6.9 15.4 15.4 15.4 15.4-6.9 15.4-15.4-6.9-15.4-15.4-15.4" class="st0"/><path d="M16.4 112.1c-9 0-16.4-7.4-16.4-16.4s7.4-16.4 16.4-16.4 16.4 7.4 16.4 16.4-7.4 16.4-16.4 16.4m0-31.8C7.9 80.3 1 87.2 1 95.7s6.9 15.4 15.4 15.4 15.4-6.9 15.4-15.4-6.9-15.4-15.4-15.4" class="st0"/><path d="M15.9 0h1v127.5h-1z" class="st0"/></g></g></svg>