<svg xmlns="http://www.w3.org/2000/svg" xml:space="preserve" id="图层_1" x="0" y="0" viewBox="0 0 72 129"><style>.st0{fill:#fff}</style><g id="页面-1"><g id="双向隔离开关_xFF08_右_xFF09_"><path d="M8.13.25h1v42.6h-1z" class="st0"/><path d="M.13 42.35h17v1h-17zm37.92 33.883 16.886-33.26.891.452-16.885 33.26zM36.03 94.25h1v34h-1z" class="st0"/><path d="M54.83 42.35h17v1h-17z" class="st0"/><path d="M62.83.25h1v42.6h-1zm-26.7 94.4c-5 0-9-4-9-9s4-9 9-9 9 4 9 9-4 9-9 9m0-17c-4.4 0-8 3.6-8 8s3.6 8 8 8 8-3.6 8-8-3.6-8-8-8" class="st0"/></g></g></svg>