<svg xmlns="http://www.w3.org/2000/svg" xml:space="preserve" id="图层_1" x="0" y="0" viewBox="0 0 81 129"><style>.st0{fill:#fff}</style><g id="页面-1"><g id="双绕组变压器_xFF08_绕组间有屏蔽_xFF09_"><path d="M40.28 71.38c-16.2 0-29.4-13.2-29.4-29.4s13.2-29.4 29.4-29.4c16.2.1 29.4 13.3 29.4 29.5s-13.2 29.3-29.4 29.3m0-57.7c-15.6 0-28.4 12.7-28.4 28.4 0 15.6 12.7 28.4 28.4 28.4s28.4-12.8 28.4-28.4c0-15.7-12.8-28.4-28.4-28.4" class="st0"/><path d="M40.28 114.68c-16.2 0-29.4-13.2-29.4-29.4s13.2-29.4 29.4-29.4 29.4 13.2 29.4 29.4-13.2 29.4-29.4 29.4m0-57.7c-15.6 0-28.4 12.7-28.4 28.4s12.7 28.4 28.4 28.4 28.4-12.7 28.4-28.4-12.8-28.4-28.4-28.4m-.5-56.9h1v11.5h-1z" class="st0"/><path d="M39.78.18h1v11.5h-1z" class="st0"/><path d="M39.78.28h1v11.5h-1z" class="st0"/><path d="M39.78.38h1v11.5h-1z" class="st0"/><path d="M39.78.48h1v11.5h-1z" class="st0"/><path d="M39.78.68h1v11.5h-1z" class="st0"/><path d="M39.78.78h1v11.5h-1z" class="st0"/><path d="M39.78.88h1v11.5h-1z" class="st0"/><path d="M39.78.98h1v11.5h-1z" class="st0"/><path d="M39.78 1.08h1v11.5h-1z" class="st0"/><path d="M39.78 1.18h1v11.5h-1z" class="st0"/><path d="M39.78 1.28h1v11.5h-1z" class="st0"/><path d="M39.78 1.48h1v11.5h-1z" class="st0"/><path d="M39.78 1.58h1v11.5h-1zm0 115h1v11.5h-1z" class="st0"/><path d="M39.78 116.48h1v11.5h-1z" class="st0"/><path d="M39.78 116.38h1v11.5h-1z" class="st0"/><path d="M39.78 116.28h1v11.5h-1z" class="st0"/><path d="M39.78 116.08h1v11.5h-1z" class="st0"/><path d="M39.78 115.98h1v11.5h-1z" class="st0"/><path d="M39.78 115.88h1v11.5h-1z" class="st0"/><path d="M39.78 115.78h1v11.5h-1z" class="st0"/><path d="M39.78 115.68h1v11.5h-1z" class="st0"/><path d="M39.78 115.58h1v11.5h-1z" class="st0"/><path d="M39.78 115.48h1v11.5h-1z" class="st0"/><path d="M39.78 115.38h1v11.5h-1z" class="st0"/><path d="M39.78 115.18h1v11.5h-1z" class="st0"/><path d="M39.78 115.08h1v11.5h-1z" class="st0"/><path d="M39.78 114.98h1v11.5h-1z" class="st0"/><path d="M39.78 114.88h1v11.5h-1zM.48 63.58h2.5v1H.48zm72.1 1h-5v-1h5zm-10 0h-5v-1h5zm-9.9 0h-5v-1h5zm-9.9 0h-5v-1h5zm-10 0h-5v-1h5zm-9.9 0h-5v-1h5zm-9.9 0h-5v-1h5zm64.6-1h2.5v1h-2.5z" class="st0"/></g></g></svg>