<svg xmlns="http://www.w3.org/2000/svg" xml:space="preserve" id="图层_1" x="0" y="0" viewBox="0 0 104 129"><style>.st0{fill:#fff}</style><g id="页面-1"><g id="双绕组变压器_xFF08_有载调压_xFF09_"><path d="M46.27 71.38c-16.2 0-29.4-13.1-29.4-29.3s13.2-29.4 29.4-29.4 29.4 13.2 29.4 29.4-13.2 29.3-29.4 29.3m0-57.7c-15.6 0-28.4 12.7-28.4 28.4 0 15.6 12.7 28.4 28.4 28.4s28.4-12.8 28.4-28.4c0-15.7-12.7-28.4-28.4-28.4" class="st0"/><path d="M46.27 114.68c-16.2 0-29.4-13.2-29.4-29.4s13.2-29.4 29.4-29.4 29.4 13.2 29.4 29.4-13.2 29.4-29.4 29.4m0-57.7c-15.6 0-28.4 12.7-28.4 28.4s12.7 28.4 28.4 28.4 28.4-12.7 28.4-28.4-12.7-28.4-28.4-28.4m-.5-56.9h1v11.5h-1z" class="st0"/><path d="M45.77.18h1v11.5h-1z" class="st0"/><path d="M45.77.28h1v11.5h-1z" class="st0"/><path d="M45.77.38h1v11.5h-1z" class="st0"/><path d="M45.77.48h1v11.5h-1z" class="st0"/><path d="M45.77.68h1v11.5h-1z" class="st0"/><path d="M45.77.78h1v11.5h-1z" class="st0"/><path d="M45.77.88h1v11.5h-1z" class="st0"/><path d="M45.77.98h1v11.5h-1z" class="st0"/><path d="M45.77 1.08h1v11.5h-1z" class="st0"/><path d="M45.77 1.18h1v11.5h-1z" class="st0"/><path d="M45.77 1.28h1v11.5h-1z" class="st0"/><path d="M45.77 1.48h1v11.5h-1z" class="st0"/><path d="M45.77 1.58h1v11.5h-1zm0 115h1v11.5h-1z" class="st0"/><path d="M45.77 116.48h1v11.5h-1z" class="st0"/><path d="M45.77 116.38h1v11.5h-1z" class="st0"/><path d="M45.77 116.28h1v11.5h-1z" class="st0"/><path d="M45.77 116.08h1v11.5h-1z" class="st0"/><path d="M45.77 115.98h1v11.5h-1z" class="st0"/><path d="M45.77 115.88h1v11.5h-1z" class="st0"/><path d="M45.77 115.78h1v11.5h-1z" class="st0"/><path d="M45.77 115.68h1v11.5h-1z" class="st0"/><path d="M45.77 115.58h1v11.5h-1z" class="st0"/><path d="M45.77 115.48h1v11.5h-1z" class="st0"/><path d="M45.77 115.38h1v11.5h-1z" class="st0"/><path d="M45.77 115.18h1v11.5h-1z" class="st0"/><path d="M45.77 115.08h1v11.5h-1z" class="st0"/><path d="M45.77 114.98h1v11.5h-1z" class="st0"/><path d="M45.77 114.88h1v11.5h-1zM.607 93.609l95.867-61.865.542.84L1.149 94.449z" class="st0"/><g transform="translate(.87 .08)"><path id="路径_32_" d="m101.8 28.4-20.7 3.2 9.1 14.2z" class="st0"/><path d="M90.2 46.3c-.2 0-.3-.1-.4-.2l-9.1-14.2c-.1-.1-.1-.3 0-.5s.2-.3.4-.3l20.7-3.3c.2 0 .4.1.5.2.1.2.1.4 0 .5L90.7 46.1c-.1.1-.3.2-.5.2M81.9 32l8.3 12.9L100.7 29z" class="st0"/></g></g></g></svg>