<svg xmlns="http://www.w3.org/2000/svg" xml:space="preserve" id="图层_1" x="0" y="0" viewBox="0 0 104 129"><style>.st0{fill:#fff}</style><g id="页面-1"><g id="双绕组有载可调变压器Y-Nd_xFF08_中性点引出星形-三角形连接_xFF09_-"><path d="M51.61 71.58c-16.2 0-29.4-13.2-29.4-29.4s13.2-29.4 29.4-29.4 29.4 13.2 29.4 29.4-13.2 29.4-29.4 29.4m0-57.7c-15.6 0-28.4 12.7-28.4 28.4s12.7 28.4 28.4 28.4 28.4-12.8 28.4-28.4-12.7-28.4-28.4-28.4m-.5-13.6h1v11.5h-1z" class="st0"/><path d="M51.11.38h1v11.5h-1z" class="st0"/><path d="M51.11.48h1v11.5h-1z" class="st0"/><path d="M51.11.58h1v11.5h-1z" class="st0"/><path d="M51.11.68h1v11.5h-1z" class="st0"/><path d="M51.11.88h1v11.5h-1z" class="st0"/><path d="M51.11.98h1v11.5h-1z" class="st0"/><path d="M51.11 1.08h1v11.5h-1z" class="st0"/><path d="M51.11 1.18h1v11.5h-1z" class="st0"/><path d="M51.11 1.28h1v11.5h-1z" class="st0"/><path d="M51.11 1.38h1v11.5h-1z" class="st0"/><path d="M51.11 1.48h1v11.5h-1z" class="st0"/><path d="M51.11 1.58h1v11.5h-1z" class="st0"/><path d="M51.11 1.78h1v11.5h-1zm0 115h1v11.5h-1z" class="st0"/><path d="M51.11 116.68h1v11.5h-1z" class="st0"/><path d="M51.11 116.58h1v11.5h-1z" class="st0"/><path d="M51.11 116.48h1v11.5h-1z" class="st0"/><path d="M51.11 116.28h1v11.5h-1z" class="st0"/><path d="M51.11 116.18h1v11.5h-1z" class="st0"/><path d="M51.11 116.08h1v11.5h-1z" class="st0"/><path d="M51.11 115.98h1v11.5h-1z" class="st0"/><path d="M51.11 115.88h1v11.5h-1z" class="st0"/><path d="M51.11 115.78h1v11.5h-1z" class="st0"/><path d="M51.11 115.68h1v11.5h-1z" class="st0"/><path d="M51.11 115.58h1v11.5h-1z" class="st0"/><path d="M51.11 115.38h1v11.5h-1z" class="st0"/><path d="M51.11 115.28h1v11.5h-1z" class="st0"/><path d="M51.11 115.18h1v11.5h-1z" class="st0"/><path d="M51.31 115.68c-16.2 0-29.4-13.2-29.4-29.4s13.2-29.3 29.4-29.3 29.4 13.1 29.4 29.3-13.2 29.4-29.4 29.4m0-57.7c-15.6 0-28.4 12.7-28.4 28.4s12.7 28.4 28.4 28.4c15.6 0 28.4-12.7 28.4-28.4s-12.8-28.4-28.4-28.4" class="st0"/><path d="M63.51 98.28h-24.4c-.2 0-.3-.1-.4-.2s-.1-.3 0-.5l12.2-21.1c.2-.3.7-.3.9 0l12.2 21.1c.1.2.1.3 0 .5-.2.1-.4.2-.5.2m-23.5-1h22.6l-11.3-19.6zm11.7-25.2c-16.2 0-29.4-13.2-29.4-29.4s13.2-29.4 29.4-29.4 29.4 13.3 29.4 29.4c0 16.2-13.2 29.4-29.4 29.4m0-57.7c-15.6 0-28.4 12.7-28.4 28.4 0 15.6 12.7 28.4 28.4 28.4 15.7-.1 28.4-12.8 28.4-28.5 0-15.6-12.7-28.3-28.4-28.3" class="st0"/><path d="M51.21 39.88h1v21.8h-1z" class="st0"/><path d="m51.364 39.65 14.618-10.333.577.817-14.617 10.333z" class="st0"/><path d="m36.924 30.12.576-.817 14.621 10.326-.577.817z" class="st0"/><path d="M51.71 39.48h17v1h-17z" class="st0"/><g transform="translate(1.11 .28)"><circle id="椭圆形_4_" cx="51.1" cy="39.2" r="1.6" class="st0"/><path d="M51.1 41.3c-1.2 0-2.1-1-2.1-2.1 0-1.2 1-2.1 2.1-2.1s2.1 1 2.1 2.1-.9 2.1-2.1 2.1m0-3.3c-.6 0-1.1.5-1.1 1.1s.5 1.1 1.1 1.1 1.1-.5 1.1-1.1-.5-1.1-1.1-1.1" class="st0"/></g><g transform="translate(1.11 .28)"><path id="路径_35_" d="m101.8 31.4-20.7 3.3 9.2 14.2z" class="st0"/><path d="M90.3 49.4c-.2 0-.3-.1-.4-.2L80.7 35c-.1-.1-.1-.3 0-.5s.2-.3.4-.3l20.7-3.3c.2 0 .4.1.5.2.1.2.1.4 0 .5L90.7 49.1c-.1.2-.3.3-.4.3M82 35.1 90.3 48l10.5-15.9z" class="st0"/></g><path d="M51.51.48h1v11.5h-1z" class="st0"/><path d="M51.51.58h1v11.5h-1z" class="st0"/><path d="M51.51.68h1v11.5h-1z" class="st0"/><path d="M51.51.78h1v11.5h-1z" class="st0"/><path d="M51.51.88h1v11.5h-1z" class="st0"/><path d="M51.51.98h1v11.5h-1z" class="st0"/><path d="M51.51 1.18h1v11.5h-1z" class="st0"/><path d="M51.51 1.28h1v11.5h-1z" class="st0"/><path d="M51.51 1.38h1v11.5h-1z" class="st0"/><path d="M51.51 1.48h1v11.5h-1z" class="st0"/><path d="M51.51 1.58h1v11.5h-1z" class="st0"/><path d="M51.51 1.68h1v11.5h-1z" class="st0"/><path d="M51.51 1.78h1v11.5h-1z" class="st0"/><path d="M51.51 1.98h1v11.5h-1z" class="st0"/><path d="M51.51.48h1v11.5h-1z" class="st0"/><path d="M51.51.58h1v11.5h-1z" class="st0"/><path d="M51.51.68h1v11.5h-1z" class="st0"/><path d="M51.51.78h1v11.5h-1z" class="st0"/><path d="M51.51.88h1v11.5h-1z" class="st0"/><path d="M51.51.98h1v11.5h-1z" class="st0"/><path d="M51.51 1.18h1v11.5h-1z" class="st0"/><path d="M51.51 1.28h1v11.5h-1z" class="st0"/><path d="M51.51 1.38h1v11.5h-1z" class="st0"/><path d="M51.51 1.48h1v11.5h-1z" class="st0"/><path d="M51.51 1.58h1v11.5h-1z" class="st0"/><path d="M51.51 1.68h1v11.5h-1zM.876 96.903l95.866-61.865.543.84L1.418 97.745z" class="st0"/></g></g></svg>