<svg xmlns="http://www.w3.org/2000/svg" xml:space="preserve" id="图层_1" x="0" y="0" viewBox="0 0 60 129"><style>.st0{fill:#fff}</style><g id="页面-1"><g id="双绕组变压器Dyn_xFF08_中性点引出三角形-星形连接_xFF09_-"><path d="M30.03 114.9c-16.2 0-29.4-13.2-29.4-29.4s13.2-29.4 29.4-29.4 29.4 13.2 29.4 29.4-13.2 29.4-29.4 29.4m0-57.7c-15.6 0-28.4 12.7-28.4 28.4s12.7 28.4 28.4 28.4 28.4-12.7 28.4-28.4-12.8-28.4-28.4-28.4M29.53.3h1v11.5h-1z" class="st0"/><path d="M29.53.4h1v11.5h-1z" class="st0"/><path d="M29.53.5h1V12h-1z" class="st0"/><path d="M29.53.6h1v11.5h-1z" class="st0"/><path d="M29.53.7h1v11.5h-1z" class="st0"/><path d="M29.53.9h1v11.5h-1z" class="st0"/><path d="M29.53 1h1v11.5h-1z" class="st0"/><path d="M29.53 1.1h1v11.5h-1z" class="st0"/><path d="M29.53 1.2h1v11.5h-1z" class="st0"/><path d="M29.53 1.3h1v11.5h-1z" class="st0"/><path d="M29.53 1.4h1v11.5h-1z" class="st0"/><path d="M29.53 1.5h1V13h-1z" class="st0"/><path d="M29.53 1.6h1v11.5h-1z" class="st0"/><path d="M29.53 1.8h1v11.5h-1zm0 115h1v11.5h-1z" class="st0"/><path d="M29.53 116.7h1v11.5h-1z" class="st0"/><path d="M29.53 116.6h1v11.5h-1z" class="st0"/><path d="M29.53 116.5h1V128h-1z" class="st0"/><path d="M29.53 116.3h1v11.5h-1z" class="st0"/><path d="M29.53 116.2h1v11.5h-1z" class="st0"/><path d="M29.53 116.1h1v11.5h-1z" class="st0"/><path d="M29.53 116h1v11.5h-1z" class="st0"/><path d="M29.53 115.9h1v11.5h-1z" class="st0"/><path d="M29.53 115.8h1v11.5h-1z" class="st0"/><path d="M29.53 115.7h1v11.5h-1z" class="st0"/><path d="M29.53 115.6h1v11.5h-1z" class="st0"/><path d="M29.53 115.4h1v11.5h-1z" class="st0"/><path d="M29.53 115.3h1v11.5h-1z" class="st0"/><path d="M29.53 115.2h1v11.5h-1z" class="st0"/><path d="M29.53 115.1h1v11.5h-1zm.5-43.5C13.83 71.6.63 58.5.63 42.3s13.2-29.4 29.4-29.4 29.4 13.2 29.4 29.4c-.1 16.2-13.2 29.3-29.4 29.3m0-57.7c-15.7 0-28.4 12.7-28.4 28.4 0 15.6 12.7 28.4 28.4 28.4s28.3-12.8 28.3-28.4c0-15.7-12.7-28.4-28.3-28.4" class="st0"/><path d="M42.13 46h-24.3c-.2 0-.3-.1-.4-.2s-.1-.3 0-.5l12.2-21.1c.2-.3.7-.3.9 0l12.1 21.1c.1.2.1.3 0 .5-.1.1-.3.2-.5.2m-23.4-1h22.6l-11.3-19.6zm10.8 37.7h1v21.8h-1z" class="st0"/><path d="m29.674 82.448 14.617-10.333.578.816L30.25 83.265z" class="st0"/><path d="m15.167 72.987.577-.816L30.36 82.504l-.578.817z" class="st0"/><g transform="translate(1.13 .3)"><circle id="椭圆形_3_" cx="28.9" cy="82.2" r="1.6" class="st0"/><path d="M28.9 84.4c-1.2 0-2.1-1-2.1-2.1 0-1.2 1-2.1 2.1-2.1 1.2 0 2.1 1 2.1 2.1s-1 2.1-2.1 2.1m0-3.3c-.6 0-1.1.5-1.1 1.1s.5 1.1 1.1 1.1 1.1-.5 1.1-1.1-.5-1.1-1.1-1.1" class="st0"/></g><path d="M30.03 82.3h17v1h-17z" class="st0"/></g></g></svg>