<svg xmlns="http://www.w3.org/2000/svg" xml:space="preserve" id="图层_1" x="0" y="0" viewBox="0 0 60 129"><style>.st0{fill:#fff}</style><g id="页面-1"><g id="双绕组变压器Yyn_xFF08_中性点引出三角形_x2018__xFF09_--271"><path d="M30.03 71.6C13.83 71.6.63 58.5.63 42.3s13.2-29.4 29.4-29.4 29.4 13.2 29.4 29.4c-.1 16.2-13.2 29.3-29.4 29.3m0-57.7c-15.7 0-28.4 12.7-28.4 28.4 0 15.6 12.7 28.4 28.4 28.4s28.3-12.8 28.3-28.4c0-15.7-12.7-28.4-28.3-28.4" class="st0"/><path d="M30.03 114.9c-16.2 0-29.4-13.2-29.4-29.4s13.2-29.4 29.4-29.4 29.4 13.2 29.4 29.4-13.2 29.4-29.4 29.4m0-57.7c-15.6 0-28.4 12.7-28.4 28.4s12.7 28.4 28.4 28.4 28.4-12.7 28.4-28.4-12.8-28.4-28.4-28.4M29.53.3h1v11.5h-1z" class="st0"/><path d="M29.53.4h1v11.5h-1z" class="st0"/><path d="M29.53.5h1V12h-1z" class="st0"/><path d="M29.53.6h1v11.5h-1z" class="st0"/><path d="M29.53.7h1v11.5h-1z" class="st0"/><path d="M29.53.9h1v11.5h-1z" class="st0"/><path d="M29.53 1h1v11.5h-1z" class="st0"/><path d="M29.53 1.1h1v11.5h-1z" class="st0"/><path d="M29.53 1.2h1v11.5h-1z" class="st0"/><path d="M29.53 1.3h1v11.5h-1z" class="st0"/><path d="M29.53 1.4h1v11.5h-1z" class="st0"/><path d="M29.53 1.5h1V13h-1z" class="st0"/><path d="M29.53 1.6h1v11.5h-1z" class="st0"/><path d="M29.53 1.8h1v11.5h-1zm0 115h1v11.5h-1z" class="st0"/><path d="M29.53 116.7h1v11.5h-1z" class="st0"/><path d="M29.53 116.6h1v11.5h-1z" class="st0"/><path d="M29.53 116.5h1V128h-1z" class="st0"/><path d="M29.53 116.3h1v11.5h-1z" class="st0"/><path d="M29.53 116.2h1v11.5h-1z" class="st0"/><path d="M29.53 116.1h1v11.5h-1z" class="st0"/><path d="M29.53 116h1v11.5h-1z" class="st0"/><path d="M29.53 115.9h1v11.5h-1z" class="st0"/><path d="M29.53 115.8h1v11.5h-1z" class="st0"/><path d="M29.53 115.7h1v11.5h-1z" class="st0"/><path d="M29.53 115.6h1v11.5h-1z" class="st0"/><path d="M29.53 115.4h1v11.5h-1z" class="st0"/><path d="M29.53 115.3h1v11.5h-1z" class="st0"/><path d="M29.53 115.2h1v11.5h-1z" class="st0"/><path d="M29.53 115.1h1v11.5h-1zm0-77.9h1v19.1h-1z" class="st0"/><path d="m29.684 36.904 12.82-9.063.578.816-12.82 9.064z" class="st0"/><path d="m16.99 28.717.578-.817 12.817 9.067-.577.816zM33.23 77.5h1v11.3h-1z" class="st0"/><path d="m33.505 77.15 7.59-5.374.578.816-7.59 5.375zm-7.869 16.445 7.595-5.369.577.817-7.595 5.369z" class="st0"/><path d="m18.126 88.938.577-.817 7.597 5.364-.577.817zM41.13 93.8h1v11.3h-1z" class="st0"/><path d="m33.737 88.967.577-.816 7.597 5.364-.577.817z" class="st0"/><g transform="translate(1.13 .3)"><circle id="椭圆形_3_" cx="32.5" cy="87.9" r="1.6" class="st0"/><path d="M32.5 90.1c-1.2 0-2.1-1-2.1-2.1 0-1.2 1-2.1 2.1-2.1 1.2 0 2.1 1 2.1 2.1s-.9 2.1-2.1 2.1m0-3.3c-.6 0-1.1.5-1.1 1.1s.5 1.1 1.1 1.1 1.1-.5 1.1-1.1-.5-1.1-1.1-1.1" class="st0"/></g></g></g></svg>