<svg xmlns="http://www.w3.org/2000/svg" xml:space="preserve" id="图层_1" x="0" y="0" viewBox="0 0 104 129"><style>.st0{fill:#fff}</style><g id="页面-1"><g id="双绕组有载可调变压器Dyn_xFF08_中性点引出三角形_x2018__xFF09_-"><path d="M52.01 114.9c-16.2 0-29.4-13.2-29.4-29.4s13.2-29.4 29.4-29.4 29.4 13.2 29.4 29.4-13.2 29.4-29.4 29.4m0-57.7c-15.6 0-28.4 12.7-28.4 28.4s12.7 28.4 28.4 28.4 28.4-12.7 28.4-28.4-12.8-28.4-28.4-28.4M51.51.3h1v11.5h-1z" class="st0"/><path d="M51.51.4h1v11.5h-1z" class="st0"/><path d="M51.51.5h1V12h-1z" class="st0"/><path d="M51.51.6h1v11.5h-1z" class="st0"/><path d="M51.51.7h1v11.5h-1z" class="st0"/><path d="M51.51.9h1v11.5h-1z" class="st0"/><path d="M51.51 1h1v11.5h-1z" class="st0"/><path d="M51.51 1.1h1v11.5h-1z" class="st0"/><path d="M51.51 1.2h1v11.5h-1z" class="st0"/><path d="M51.51 1.3h1v11.5h-1z" class="st0"/><path d="M51.51 1.4h1v11.5h-1z" class="st0"/><path d="M51.51 1.5h1V13h-1z" class="st0"/><path d="M51.51 1.6h1v11.5h-1z" class="st0"/><path d="M51.51 1.8h1v11.5h-1zm0 115h1v11.5h-1z" class="st0"/><path d="M51.51 116.7h1v11.5h-1z" class="st0"/><path d="M51.51 116.6h1v11.5h-1z" class="st0"/><path d="M51.51 116.5h1V128h-1z" class="st0"/><path d="M51.51 116.3h1v11.5h-1z" class="st0"/><path d="M51.51 116.2h1v11.5h-1z" class="st0"/><path d="M51.51 116.1h1v11.5h-1z" class="st0"/><path d="M51.51 116h1v11.5h-1z" class="st0"/><path d="M51.51 115.9h1v11.5h-1z" class="st0"/><path d="M51.51 115.8h1v11.5h-1z" class="st0"/><path d="M51.51 115.7h1v11.5h-1z" class="st0"/><path d="M51.51 115.6h1v11.5h-1z" class="st0"/><path d="M51.51 115.4h1v11.5h-1z" class="st0"/><path d="M51.51 115.3h1v11.5h-1z" class="st0"/><path d="M51.51 115.2h1v11.5h-1z" class="st0"/><path d="M51.51 115.1h1v11.5h-1zm.5-43.5c-16.2 0-29.4-13.2-29.4-29.4s13.2-29.4 29.4-29.4 29.4 13.2 29.4 29.4c0 16.3-13.2 29.4-29.4 29.4m0-57.7c-15.6 0-28.4 12.7-28.4 28.4 0 15.6 12.7 28.4 28.4 28.4s28.4-12.8 28.4-28.4c0-15.7-12.8-28.4-28.4-28.4" class="st0"/><path d="M64.21 46h-24.4c-.2 0-.3-.1-.4-.2s-.1-.3 0-.5l12.2-21.1c.2-.3.7-.3.9 0l12.1 21.1c.1.2.1.3 0 .5-.1.1-.3.2-.4.2m-23.5-1h22.6l-11.3-19.6zm10.8 37.7h1v21.8h-1z" class="st0"/><path d="m51.659 82.459 14.617-10.334.577.817-14.617 10.333z" class="st0"/><path d="m37.155 73.004.577-.817 14.616 10.334-.578.816z" class="st0"/><g transform="translate(1.11 .3)"><circle id="椭圆形_3_" cx="50.9" cy="82.2" r="1.6" class="st0"/><path d="M50.9 84.4c-1.2 0-2.1-1-2.1-2.1 0-1.2 1-2.1 2.1-2.1 1.2 0 2.1 1 2.1 2.1s-.9 2.1-2.1 2.1m0-3.3c-.6 0-1.1.5-1.1 1.1s.5 1.1 1.1 1.1 1.1-.5 1.1-1.1-.5-1.1-1.1-1.1" class="st0"/></g><path d="M51.51.3h1v11.5h-1z" class="st0"/><path d="M51.51.4h1v11.5h-1z" class="st0"/><path d="M51.51.5h1V12h-1z" class="st0"/><path d="M51.51.6h1v11.5h-1z" class="st0"/><path d="M51.51.7h1v11.5h-1z" class="st0"/><path d="M51.51.9h1v11.5h-1z" class="st0"/><path d="M51.51 1h1v11.5h-1z" class="st0"/><path d="M51.51 1.1h1v11.5h-1z" class="st0"/><path d="M51.51 1.2h1v11.5h-1z" class="st0"/><path d="M51.51 1.3h1v11.5h-1z" class="st0"/><path d="M51.51 1.4h1v11.5h-1z" class="st0"/><path d="M51.51 1.5h1V13h-1z" class="st0"/><path d="M51.51 1.6h1v11.5h-1zm0 115.2h1v11.5h-1z" class="st0"/><path d="M51.51 116.7h1v11.5h-1z" class="st0"/><path d="M51.51 116.6h1v11.5h-1z" class="st0"/><path d="M51.51 116.5h1V128h-1z" class="st0"/><path d="M51.51 116.3h1v11.5h-1z" class="st0"/><path d="M51.51 116.2h1v11.5h-1z" class="st0"/><path d="M51.51 116.1h1v11.5h-1z" class="st0"/><path d="M51.51 116h1v11.5h-1z" class="st0"/><path d="M51.51 115.9h1v11.5h-1z" class="st0"/><path d="M51.51 115.8h1v11.5h-1z" class="st0"/><path d="M51.51 115.7h1v11.5h-1z" class="st0"/><path d="M51.51 115.6h1v11.5h-1z" class="st0"/><path d="M51.51 115.4h1v11.5h-1z" class="st0"/><path d="M51.51 115.3h1v11.5h-1z" class="st0"/><path d="M51.51 115.2h1v11.5h-1zM.87 96.725 96.737 34.86l.542.84L1.412 97.565z" class="st0"/><g transform="translate(1.11 .3)"><path id="路径_64_" d="m101.8 31.2-20.7 3.3 9.2 14.2z" class="st0"/><path d="M90.3 49.2c-.2 0-.3-.1-.4-.2l-9.1-14.2c-.1-.1-.1-.3 0-.5s.2-.3.4-.3l20.7-3.3c.2 0 .4.1.5.2s.1.4 0 .5L90.7 49c-.1.1-.3.2-.4.2M82 34.9l8.3 12.9 10.5-15.9z" class="st0"/></g><path d="M52.01 82.3h17v1h-17z" class="st0"/></g></g></svg>