<svg xmlns="http://www.w3.org/2000/svg" xml:space="preserve" id="图层_1" x="0" y="0" viewBox="0 0 130 66"><style>.st0{fill:#fff}</style><g id="页面-1"><g id="双联杆_xFF08_木杆_xFF09_"><path d="M97.28 65.58c-17.9 0-32.5-14.6-32.5-32.5S79.38.58 97.28.58s32.5 14.6 32.5 32.5-14.6 32.5-32.5 32.5m0-64c-17.4 0-31.5 14.1-31.5 31.5s14.1 31.5 31.5 31.5 31.5-14.1 31.5-31.5-14.1-31.5-31.5-31.5" class="st0"/><path d="M33.28 65.58c-17.9 0-32.5-14.6-32.5-32.5S15.38.58 33.28.58s32.5 14.6 32.5 32.5-14.6 32.5-32.5 32.5m0-64c-17.4 0-31.5 14.1-31.5 31.5s14.1 31.5 31.5 31.5 31.5-14.1 31.5-31.5-14.1-31.5-31.5-31.5" class="st0"/></g></g></svg>