<svg xmlns="http://www.w3.org/2000/svg" xml:space="preserve" id="图层_1" x="0" y="0" viewBox="0 0 128 128"><style>.st0{fill:#fff}</style><g id="页面-1"><g id="变电站"><path id="形状" d="M127 1v126H1V1zm1-1H0v128h128z" class="st0"/><path id="形状_1_" d="M105.6 22.4v83.2H22.4V22.4zm1-1H21.4v85.2h85.2z" class="st0"/><path id="形状_2_" d="M43.5 62.8c3.4.2 6.7 1.6 9.3 3.9 2.2 2.1 3.5 5.1 3.4 8.2.2 3.9-1.7 7.6-5 9.7-3.3 2.3-8 3.4-14.1 3.4H25.8V40h11.1c5.4 0 9.5 1 12.4 3 2.8 1.9 4.5 5.1 4.3 8.5 0 2.7-.9 5.3-2.8 7.3-1.9 2.1-4.5 3.5-7.3 3.9zM27.2 41.3v20.8h11.3c4.2 0 7.5-.9 10-2.8 2.4-1.8 3.8-4.7 3.7-7.8.1-3.1-1.4-6-4-7.6-2.7-1.8-6.5-2.7-11.5-2.7h-9.5zm9.5 45.4c5.8 0 10.3-1 13.4-3 3-1.8 4.8-5.2 4.7-8.7.1-3.4-1.5-6.6-4.3-8.4-2.9-2-6.9-2.9-11.9-2.9H27.2v23.1h9.5z" class="st0"/><path id="形状_3_" d="M65.2 88V40h12.5c7.9 0 14 2.1 18.2 6.2s6.4 10.1 6.4 17.8-2.2 13.7-6.5 17.8S85.2 88 77.1 88zm11.7-1.3c7.7 0 13.6-2 17.7-5.9s6.2-9.5 6.2-16.8q0-10.95-6-16.8c-6-5.85-9.8-5.9-17.4-5.9H66.6v45.3h10.3z" class="st0"/></g></g></svg>