<svg xmlns="http://www.w3.org/2000/svg" xml:space="preserve" id="图层_1" x="0" y="0" viewBox="0 0 56 128"><style>.st0{fill:#fff}</style><g id="页面-1"><g id="可调电容器"><path d="M29.47 0h1v51.3h-1zm0 76.7h1V128h-1z" class="st0"/><path d="M4.37 50.8h51.3v1H4.37zm0 25.4h51.3v1H4.37z" class="st0"/><path d="M.754 121.178 49.77 18.146l.903.43L1.657 121.607z" class="st0"/><g transform="translate(1.27)"><path id="路径_6_" d="M52 12 36.2 25.7 51.4 33z" class="st0"/><path d="M51.4 33.5h-.2L36 26.3c-.2-.1-.3-.2-.3-.4s0-.3.2-.4l15.8-13.7c.1-.1.4-.2.5-.1.2.1.3.3.3.5L51.9 33c0 .2-.1.3-.2.4-.1 0-.2.1-.3.1m-14.3-7.9L51 32.2l.5-19z" class="st0"/></g></g></g></svg>