<svg xmlns="http://www.w3.org/2000/svg" xml:space="preserve" id="图层_1" x="0" y="0" viewBox="0 0 128 86"><style>.st0{fill:#fff}</style><g id="页面-1"><g id="壁龛交接箱"><path d="M127.5 85.81H.5c-.3 0-.5-.2-.5-.5V.71c0-.3.2-.5.5-.5h127c.3 0 .5.2.5.5v84.6c0 .3-.2.5-.5.5M1 84.81h126V1.21H1z" class="st0"/><path d="m.201 1.9.547-.838 126.988 82.995-.547.837z" class="st0"/><path d="m.174 84.074 127.033-82.92.547.838L.721 84.912z" class="st0"/><path d="M10 8.51h1v69h-1zm10.885 62.629.109-55.6 1 .002-.109 55.6zM32.3 22.21h1v41h-1zm11 7.2h1v26.4h-1zm9.7 7.1h1v13h-1zm64-28h1v69h-1zm-10.975 7.001 1-.002.15 55.6-1 .002zM94.7 22.21h1v41h-1zm-11 7.2h1v26.4h-1zm-9.7 7.1h1v13h-1z" class="st0"/></g></g></svg>