<svg xmlns="http://www.w3.org/2000/svg" xml:space="preserve" id="图层_1" x="0" y="0" viewBox="0 0 129 81"><style>.st0{fill:#fff}</style><g id="页面-1"><g id="导_x3001_地线覆冰区"><path d="M128.5 80.04H.5c-.3 0-.5-.2-.5-.5V.94c0-.3.2-.5.5-.5h128c.3 0 .5.2.5.5v78.6c0 .3-.2.5-.5.5M1 79.04h127V1.44H1z" class="st0"/><path d="M10.9.94h1v78.6h-1zm10.8 0h1v78.6h-1zm10.9 0h1v78.6h-1zm10.9 0h1v78.6h-1zm10.9 0h1v78.6h-1zm10.9 0h1v78.6h-1zm10.8 0h1v78.6h-1zm10.9 0h1v78.6h-1zm10.9 0h1v78.6h-1zm10.8 0h1v78.6h-1zm10.9 0h1v78.6h-1z" class="st0"/></g></g></svg>