<svg xmlns="http://www.w3.org/2000/svg" xml:space="preserve" id="图层_1" x="0" y="0" viewBox="0 0 129 81"><style>.st0{fill:#fff}</style><g id="页面-1"><g id="导_x3001_地线易舞动区" transform="translate(.5 .95)"><path d="M128 79.1H0c-.3 0-.5-.2-.5-.5V0c0-.3.2-.5.5-.5h128c.3 0 .5.2.5.5v78.6c0 .3-.2.5-.5.5M.5 78.1h127V.5H.5z" class="st0"/><path d="M114.6 67.1h-.6v-1h.6zm-2.6 0h-2v-1h2zm-4 0h-2v-1h2zm-4 0h-2v-1h2zm-4 0h-2v-1h2zm-4 0h-2v-1h2zm-4 0h-2v-1h2zm-4 0h-2v-1h2zm-4 0h-2v-1h2zm-4 0h-2v-1h2zm-4 0h-2v-1h2zm-4 0h-2v-1h2zm-4 0h-2v-1h2z" class="st0"/><path d="M112.8 69.4h-1v-.6h1zm0-2.6h-1v-2h1zm0-4h-1v-2h1zm0-4h-1v-2h1zm0-4h-1v-2h1zm0-4h-1v-2h1zm0-4h-1v-2h1zm0-4h-1v-2h1zm0-4h-1v-2h1zm0-4h-1v-2h1zm0-4h-1v-2h1zm0-4h-1v-2h1zm0-4h-1v-2h1zM30.3 16c-.9 0-1.9-.2-2.8-.9-2.1-1.6-5 0-5.1 0l-.5-.9c.1-.1 3.5-2 6.2 0 2.1 1.6 5 0 5.1 0l.5.9c-.1 0-1.6.9-3.4.9m32.9 51.7c-.9 0-1.9-.2-2.8-.9-2.1-1.6-5 0-5.1 0l-.5-.8c.1-.1 3.5-2 6.2 0 2.1 1.6 5 0 5.1 0l.5.9c-.2 0-1.7.8-3.4.8" class="st0"/><path id="路径_4_" d="m104.8 12.1 11.1-8.4 4 12.1-10.4 8.2z" class="st0"/><path d="m106.796 13.886 8.26-7.858.689.724-8.26 7.858z" class="st0"/><path d="m109.505 9.03.866-.5 5.702 9.872-.866.5zm-3.079 1.78.866-.5 5.702 9.87-.865.5zm5.697-4.1.866-.5 5.699 9.873-.866.5z" class="st0"/><path d="m108.322 17.3 8.26-7.858.689.724-8.26 7.858zm1.592 3.74 8.26-7.858.689.724-8.26 7.858z" class="st0"/><path id="路径_11_" d="m6 55.2 11.1-8.4 4 12.1-10.3 8.3z" class="st0"/><path d="m8.132 57.027 8.265-7.852.689.725-8.265 7.852z" class="st0"/><path d="m10.84 52.197.866-.5 5.698 9.874-.866.5zm-3.129 1.691.866-.5 5.698 9.874-.866.5zm5.69-4.097.866-.5 5.698 9.874-.866.5z" class="st0"/><path d="m9.654 60.442 8.265-7.852.689.725-8.265 7.852zm1.45 3.736 8.265-7.852.69.725-8.266 7.852z" class="st0"/></g></g></svg>