<svg xmlns="http://www.w3.org/2000/svg" xml:space="preserve" id="图层_1" x="0" y="0" viewBox="0 0 128 128"><style>.st0{fill:#fff}</style><g id="页面-1"><g id="局用站点"><path id="形状" d="M127 1v126H1V1zm1-1H0v128h128z" class="st0"/><path id="形状_1_" d="M105.6 22.4v83.2H22.4V22.4zm1-1H21.4v85.2h85.2z" class="st0"/><path id="路径" d="M38 86.6c-1.6-1.4-2.7-3.2-3-5.3l1.4-.4c.3 1.8 1.2 3.4 2.6 4.6 1.4 1.1 3.2 1.7 5 1.6 2.2.1 4.3-.8 5.6-2.6 1.3-1.7 2-4.1 2-7.3V39.5h1.3v37.9c0 3.5-.8 6.3-2.3 8.2-1.7 1.9-4.1 3-6.7 2.8-2.1.1-4.2-.5-5.9-1.8" class="st0"/><path id="路径_1_" d="M75.6 68 59.4 39.5h1.7l15.1 26.9h.1l15.1-26.9h1.7L77 68v19.6h-1.4z" class="st0"/></g></g></svg>