<svg xmlns="http://www.w3.org/2000/svg" xml:space="preserve" id="图层_1" x="0" y="0" viewBox="0 0 129 130"><style>.st0{fill:#fff}</style><g id="页面-1"><g id="已实施孔位"><path d="M64.5 129.96c-35.6 0-64.5-28.9-64.5-64.5S28.9.96 64.5.96s64.5 28.9 64.5 64.5-28.9 64.5-64.5 64.5m0-128c-35 0-63.5 28.5-63.5 63.5s28.5 63.5 63.5 63.5 63.5-28.5 63.5-63.5-28.5-63.5-63.5-63.5" class="st0"/><g transform="translate(.5 1.46)"><circle id="椭圆形_2_" cx="64.1" cy="63.9" r="40.2" class="st0"/><path d="M64.1 104.7c-22.5 0-40.7-18.3-40.7-40.7s18.3-40.7 40.7-40.7c22.5 0 40.7 18.3 40.7 40.7s-18.3 40.7-40.7 40.7m0-80.5c-21.9 0-39.7 17.8-39.7 39.7s17.8 39.7 39.7 39.7 39.7-17.8 39.7-39.7S86 24.2 64.1 24.2" class="st0"/></g></g></g></svg>