<svg xmlns="http://www.w3.org/2000/svg" xml:space="preserve" id="图层_1" x="0" y="0" viewBox="0 0 129 130"><style>.st0{fill:#fff}</style><g id="页面-1"><g id="已申请未批复孔位" transform="translate(.5 1.46)"><path d="M64 128.5C28.4 128.5-.5 99.6-.5 64S28.4-.5 64-.5s64.5 28.9 64.5 64.5-28.9 64.5-64.5 64.5m0-128C29 .5.5 29 .5 64S29 127.5 64 127.5 127.5 99 127.5 64 99 .5 64 .5" class="st0"/><path d="M64 104.7c-22.5 0-40.7-18.3-40.7-40.7S41.5 23.3 64 23.3s40.7 18.3 40.7 40.7-18.2 40.7-40.7 40.7m0-80.4c-21.9 0-39.7 17.8-39.7 39.7s17.8 39.7 39.7 39.7 39.7-17.8 39.7-39.7S85.9 24.3 64 24.3" class="st0"/><path id="形状" d="M64.6 35.2v10H86v31.6H64.6v15.9h-1.2V76.9H42V45.3h21.5v-10h1.1zm-1.1 25.3v-14H43.2v14zm-20.3 1.2v14h20.3v-14zm41.6-1.2v-14H64.6v14zm-20.2 1.2v14h20.2v-14z" class="st0"/></g></g></svg>