<svg xmlns="http://www.w3.org/2000/svg" xml:space="preserve" id="图层_1" x="0" y="0" viewBox="0 0 50 129"><style>.st0{fill:#fff}</style><g id="页面-1"><g id="带电显示器"><path d="M24.53 0h1v28.4h-1zm0 42.5h1v14.1h-1zm0 49.6h1v13.7h-1z" class="st0"/><path d="M10.83 27.9h28.4v1h-28.4zm0 14.1h28.4v1h-28.4zm1.417 44.36 24.89-24.89.707.707-24.89 24.89z" class="st0"/><path d="m12.176 62.208.707-.707L37.91 86.54l-.708.707z" class="st0"/><path d="M25.03 92.5c-10 0-18.2-8.2-18.2-18.2s8.2-18.2 18.2-18.2 18.2 8.2 18.2 18.2-8.2 18.2-18.2 18.2m0-35.4c-9.5 0-17.2 7.7-17.2 17.2s7.7 17.2 17.2 17.2 17.2-7.7 17.2-17.2-7.7-17.2-17.2-17.2M.53 105.6h48.9v1H.53zm8.1 10.9h32.7v1H8.63zm5.5 11h21.7v1h-21.7z" class="st0"/></g></g></svg>