<svg xmlns="http://www.w3.org/2000/svg" viewBox="0 0 130 130"><title>手动符</title><g fill="none" fill-rule="evenodd"><path stroke="#fd211c" stroke-linejoin="round" d="M1.28 1.08h128v128h-128z"/><path fill="#fd211c" fill-rule="nonzero" d="M102.5 75.2v1.58H67.83v15.84a13.4 13.4 0 0 1-.88 5.5 4.8 4.8 0 0 1-3 2.6 20 20 0 0 1-6.11.7h-9.02l-.26-1.58h9.24a18.2 18.2 0 0 0 5.32-.57 3.72 3.72 0 0 0 2.38-2.07 12.3 12.3 0 0 0 .66-4.66V76.78h-38.1V75.2h38.1V56.28H35.28V54.7h30.88V34.02q-21.3 2.06-32.74 2.72v-1.58q13.11-.88 31.16-2.64t31.06-3.78l.18 1.58q-12.06 1.85-28 3.52V54.7h28.35v1.58H67.83V75.2z"/></g></svg>