<svg xmlns="http://www.w3.org/2000/svg" xml:space="preserve" id="图层_1" x="0" y="0" viewBox="0 0 20 128"><style>.st0{fill:#fff}</style><g id="页面-1"><g id="手车刀闸_x28_试验-检修_xFF09__xFF09_"><path d="M1.59 24.5h17.3v1H1.59z" class="st0"/><path d="m7.99 34.6-.6-.8 11.2-8.8-11.2-8.7.6-.8 11.7 9.2c.1.1.2.2.2.4s-.1.3-.2.4zm10.5-21.8L9.79 1.6.99 12.8l-.8-.6L9.39.5c.2-.2.6-.2.8 0l9.2 11.7zm-16.9 89.7h17.3v1H1.59z" class="st0"/><path d="m7.99 112.5-.6-.8 11.2-8.8-11.2-8.7.6-.8 11.7 9.2c.1.1.2.2.2.4s-.1.3-.2.4zm1.8 15.2c-.2 0-.3-.1-.4-.2l-9.2-11.7.8-.6 8.8 11.2 8.8-11.2.8.6-9.2 11.7c-.1.1-.3.2-.4.2" class="st0"/><path d="M6.99 25.5h1v77h-1z" class="st0"/></g></g></svg>