<svg xmlns="http://www.w3.org/2000/svg" xml:space="preserve" id="图层_1" x="0" y="0" viewBox="0 0 130 130"><style>.st0{fill:#fff}</style><g id="页面-1"><g id="损坏孔位" transform="translate(1 1.25)"><path d="M64 128.5C28.4 128.5-.5 99.6-.5 64S28.4-.5 64-.5s64.5 28.9 64.5 64.5-28.9 64.5-64.5 64.5m0-128C29 .5.5 29 .5 64S29 127.5 64 127.5 127.5 99 127.5 64 99 .5 64 .5" class="st0"/><path d="M64 104.7c-22.5 0-40.7-18.3-40.7-40.7 0-22.5 18.3-40.7 40.7-40.7 22.5 0 40.7 18.3 40.7 40.7 0 22.5-18.2 40.7-40.7 40.7m0-80.4c-21.9 0-39.7 17.8-39.7 39.7s17.8 39.7 39.7 39.7 39.7-17.8 39.7-39.7S85.9 24.3 64 24.3" class="st0"/><path id="形状" d="m56.3 78.5.1.6c-.3.1-3.5.9-9.9 2.5-6 1.6-9.3 2.5-9.8 2.6l-.1-1.2c.1 0 .4-.1 1-.3.5-.1 1.4-.4 2.6-.7l6.1-1.6V55h-9.1v-1.2h9.1v-18h1.2v18h8.4V55h-8.4v25.1l5.2-1.3 3.5-.9zm20.5-36.1c-1 2.9-2.2 5.7-3.6 8.5v41.4H72v-39c-4.1 8.1-9.7 15.5-16.3 21.7l-.8-.9c4.5-4.2 8.5-9 11.8-14.2 3.6-5.5 6.5-11.4 8.8-17.5H57.2v-1.2H91v1.2zm0 15.6c2 2.2 4.4 5 7.3 8.6 2.9 3.5 5.3 6.5 7.3 8.9l-.8.8c-2.2-2.7-4.7-5.8-7.5-9.2s-5.2-6.2-7.1-8.3z" class="st0"/><path d="m17.146 20.828.69-.723 17.138 16.37-.69.722zM94.19 36.48l16.675-16.13.695.719-16.674 16.13zm-77.042 71.06 17.135-16.373.69.723-17.135 16.372zm77.073-15.682.696-.719 16.667 16.138-.696.719z" class="st0"/></g></g></svg>