<svg xmlns="http://www.w3.org/2000/svg" xml:space="preserve" id="图层_1" x="0" y="0" viewBox="0 0 70 81"><style>.st0{fill:#fff}</style><g id="页面-1"><g id="接地变压器_xFF08_曲折形连接_xFF09_"><path d="M34.98 80.87c-18.8 0-34.1-15.3-34.1-34.2 0-18.8 15.3-34.1 34.1-34.1s34.1 15.3 34.1 34.1c0 18.9-15.3 34.2-34.1 34.2m0-67.3c-18.2 0-33.1 14.9-33.1 33.1s14.9 33.1 33.1 33.1 33.1-14.8 33.1-33.1-14.8-33.1-33.1-33.1" class="st0"/><path d="M34.48.67h1v13.3h-1zm3.8 34.8h1v11.3h-1z" class="st0"/><path d="m38.436 35.159 7.59-5.374.578.816-7.59 5.374zm-7.789 16.385 7.594-5.37.577.817-7.594 5.37z" class="st0"/><path d="m23.136 47.03.576-.817 7.597 5.366-.577.816zm22.944 4.84h1v11.3h-1z" class="st0"/><path d="m38.75 47.05.576-.817 7.597 5.365-.577.817z" class="st0"/></g></g></svg>