<svg xmlns="http://www.w3.org/2000/svg" xml:space="preserve" id="图层_1" x="0" y="0" viewBox="0 0 97 129"><style>.st0{fill:#fff}</style><g id="页面-1"><g id="放电线圈"><path d="m.18 101.327 89.625-70.616.619.785L.798 102.113z" class="st0"/><g transform="translate(.45 .02)"><path id="路径_2_" d="M95.1 26.8 74.8 32l10.5 13.3z" class="st0"/><path d="M85.3 45.8c-.2 0-.3-.1-.4-.2L74.5 32.3c-.1-.1-.1-.3-.1-.5s.2-.3.3-.3L95 26.3c.2 0 .4 0 .5.2s.1.4 0 .5l-9.8 18.5c0 .2-.2.3-.4.3m-9.6-13.5 9.5 12 8.9-16.8z" class="st0"/></g><path d="M31.95.02h1v30h-1zm-.1 98.5h1v30h-1z" class="st0"/><path d="M32.35 47.42v-1c2 0 3.8-.8 5.1-2.1 1.5-1.6 2.3-3.9 2.1-6.6-.2-3.9-3.3-6.9-7.2-6.9v-1c4.4 0 8 3.4 8.2 7.8.2 2.9-.7 5.5-2.4 7.3-1.5 1.6-3.5 2.5-5.8 2.5" class="st0"/><path d="M32.35 64.02v-1c2 0 3.8-.8 5.1-2.2 1.5-1.6 2.3-3.9 2.1-6.6-.2-3.9-3.3-6.9-7.2-6.9v-1c4.4 0 8 3.5 8.2 7.9.2 2.9-.7 5.5-2.4 7.3-1.5 1.6-3.5 2.5-5.8 2.5" class="st0"/><path d="M32.35 81.42v-1c2 0 3.8-.8 5.1-2.1 1.5-1.6 2.3-3.9 2.1-6.6-.2-3.9-3.3-6.9-7.2-6.9v-1c4.4 0 8 3.4 8.2 7.8.2 2.9-.7 5.5-2.4 7.3-1.5 1.6-3.5 2.5-5.8 2.5" class="st0"/><path d="M32.35 98.72v-1c2 0 3.8-.8 5.1-2.1 1.5-1.6 2.3-3.9 2.1-6.6-.2-3.9-3.3-6.9-7.2-6.9v-1h.1c4.4 0 8 3.4 8.2 7.8.2 2.9-.7 5.5-2.4 7.3-1.6 1.6-3.6 2.5-5.9 2.5m18.8-95.9h1v123h-1zm12 .5h1v123h-1z" class="st0"/></g></g></svg>