<svg xmlns="http://www.w3.org/2000/svg" xml:space="preserve" id="图层_1" x="0" y="0" viewBox="0 0 129 129"><style>.st0{fill:#fff}</style><g id="页面-1"><g id="故障指示器"><path d="M64.14 106.85c-23.3 0-42.3-19-42.3-42.3s19-42.3 42.3-42.3 42.3 19 42.3 42.3-19 42.3-42.3 42.3m0-83.6c-22.8 0-41.3 18.5-41.3 41.3s18.5 41.3 41.3 41.3 41.3-18.5 41.3-41.3-18.5-41.3-41.3-41.3" class="st0"/><path d="M.14 64.05h128v1H.14z" class="st0"/><path d="M63.64.55h1v128h-1z" class="st0"/><g transform="translate(.14 .55)"><path id="路径_3_" d="M64 0 50.2 31.2h27.6z" class="st0"/><path d="M77.8 31.7H50.2c-.2 0-.3-.1-.4-.2s-.1-.3 0-.5L63.5-.2c.2-.4.8-.4.9 0L78.2 31c.1.2.1.3 0 .5-.1.1-.3.2-.4.2m-26.8-1h26L64 1.2z" class="st0"/></g></g></g></svg>