<svg xmlns="http://www.w3.org/2000/svg" xml:space="preserve" id="图层_1" x="0" y="0" viewBox="0 0 130 128"><style>.st0{fill:#fff}</style><g id="页面-1"><g id="无功补偿器"><path d="m7.596 126.858 48.485-17.065.332.943-48.485 17.065zm72.587-25.585 48.486-17.065.332.944-48.486 17.065z" class="st0"/><path d="m50.32 95.1.943-.332 9.62 27.359-.944.332zm24.19-8.513.944-.332 9.63 27.353-.942.332zM7.097 127.282l9.442-50.527.983.184-9.442 50.526zm14.168-75.685 9.488-50.516.983.185-9.488 50.516z" class="st0"/><path d="m.954 74.364.184-.983 28.504 5.345-.184.983zM5.662 49.2l.184-.983 28.502 5.353-.185.983zm83.964 2.365.65-.76L129.3 84.258l-.651.759zM31.159 1.489l.65-.76 39.023 33.452-.65.759z" class="st0"/><path d="m81.31 60.605 18.875-22.017.76.65-18.877 22.018zM61.875 43.871l18.867-22.025.76.65-18.867 22.026z" class="st0"/></g></g></svg>