<svg xmlns="http://www.w3.org/2000/svg" xml:space="preserve" id="图层_1" x="0" y="0" viewBox="0 0 128 129"><style>.st0{fill:#fff}</style><g id="页面-1"><g id="无功补偿箱" transform="translate(0 .25)"><path id="形状" d="M127 1v126H1V1zm1-1H0v128h128z" class="st0"/><path id="形状_1_" d="M43.3 62.7q6.45.75 10.2 4.2c2.5 2.3 3.8 5.6 3.7 8.9.2 4.3-1.9 8.3-5.4 10.6-3.6 2.5-8.8 3.7-15.5 3.7H24V37.8h12.1q8.85 0 13.5 3.3c3.1 2.1 4.9 5.6 4.7 9.3 0 2.9-1 5.8-3 8-2.1 2.3-4.9 3.8-8 4.3M25.5 39.2V62h12.4c4.6 0 8.2-1 10.9-3.1 2.6-2 4.1-5.2 4-8.5.1-3.3-1.5-6.5-4.4-8.3-2.9-1.9-7.1-2.9-12.6-2.9zm10.4 49.6c6.4 0 11.2-1.1 14.7-3.3 3.3-2 5.3-5.7 5.1-9.6.2-3.7-1.6-7.2-4.7-9.2-3.2-2.1-7.5-3.2-13.1-3.2H25.5v25.3z" class="st0"/><path id="路径" d="M104 84.1c-1.8 2.3-4.2 4.1-6.8 5.3-2.8 1.3-5.9 1.9-9 1.9-4.3.1-8.6-1.1-12.3-3.4-3.5-2.3-6.3-5.7-8-9.6-2-4.6-2.9-9.6-2.8-14.6-.1-4.9.8-9.8 2.8-14.3 1.7-3.8 4.5-7.1 8-9.4 3.7-2.3 8-3.4 12.3-3.3 2.9 0 5.9.6 8.5 1.9 2.8 1.3 5.2 3.1 7.3 5.3l-1.1 1.1c-1.9-2.1-4.2-3.7-6.8-4.9-2.5-1.2-5.2-1.8-8-1.8-4-.1-8 1-11.4 3.1-3.3 2.2-5.9 5.2-7.5 8.9-1.8 4.3-2.7 8.9-2.6 13.5-.1 4.8.8 9.5 2.6 13.9 1.6 3.7 4.2 6.8 7.5 9 3.4 2.2 7.4 3.2 11.5 3.2 6.3 0 11.2-2.3 14.7-6.8z" class="st0"/></g></g></svg>