<svg xmlns="http://www.w3.org/2000/svg" xml:space="preserve" id="图层_1" x="0" y="0" viewBox="0 0 131 82"><style>.st0{fill:#fff}</style><g id="页面-1"><g id="易受外力破坏区"><path d="M129.1 81.52H1.7c-.6 0-1-.4-1-1V2.32c0-.6.4-1 1-1h127.4c.6 0 1 .4 1 1v78.2c0 .5-.4 1-1 1m-126.4-2h125.4V3.32H2.7z" class="st0"/><path d="M1.045 18.165 21.982.96l1.27 1.545L2.314 19.71zm113.838 60.472 14.015-11.454 1.266 1.549-14.015 11.453zM24.881 17.334 44.014 1.556l1.273 1.543-19.134 15.778zm.486 21.004 19.134-15.777 1.272 1.543L26.64 39.88zM50.4 17.728 69.534 1.95l1.272 1.543-19.133 15.778zM1.015 37.031l19.133-15.778 1.273 1.543L2.288 38.574zm110.244 27.241 17.257-14.282 1.275 1.54-17.257 14.283zM92.462 79.703l14.052-11.566 1.271 1.544-14.052 11.566zM.91 57.919 20.043 42.14l1.273 1.543L2.182 59.462zm83.755 4.94 19.138-15.77 1.272 1.543-19.138 15.77zm25.032-20.609 19.138-15.77 1.272 1.543-19.138 15.77zM63.893 78.658l14.834-12.033 1.26 1.554-14.834 12.033zM28.357 57.231 47.49 41.454l1.273 1.543-19.134 15.777zm24.659-20.198 19.133-15.778 1.272 1.543-19.133 15.778zM76.875 17.33 96.013 1.558l1.272 1.543-19.139 15.77zM.856 79.683l22.173-18.69 1.289 1.529-22.173 18.69zM56.303 60.18l19.133-15.777 1.273 1.543-19.133 15.777zm24.672-20.338 19.134-15.778 1.272 1.543-19.133 15.778zm23.862-19.607 22.02-18.562 1.29 1.53-22.021 18.561zM31.78 79.68l19.134-15.777 1.272 1.543-19.133 15.777z" class="st0"/></g></g></svg>