<svg xmlns="http://www.w3.org/2000/svg" xml:space="preserve" id="图层_1" x="0" y="0" viewBox="0 0 129 81"><style>.st0{fill:#fff}</style><g id="页面-1"><g id="易受风害区" transform="translate(.5 1.16)"><path d="M128 79.1H0c-.3 0-.5-.2-.5-.5V0c0-.3.2-.5.5-.5h128c.3 0 .5.2.5.5v78.6c0 .3-.2.5-.5.5M.5 78.1h127V.5H.5z" class="st0"/><path d="M114.6 69h-.6v-1h.6zm-2.6 0h-2v-1h2zm-4 0h-2v-1h2zm-4 0h-2v-1h2zm-4 0h-2v-1h2zm-4 0h-2v-1h2zm-4 0h-2v-1h2zm-4 0h-2v-1h2zm-4 0h-2v-1h2zm-4 0h-2v-1h2zm-4 0h-2v-1h2zm-4 0h-2v-1h2zm-4 0h-2v-1h2z" class="st0"/><path d="M114.8 69.4h-1v-.6h1zm0-2.6h-1v-2h1zm0-4h-1v-2h1zm0-4h-1v-2h1zm0-4h-1v-2h1zm0-4h-1v-2h1zm0-4h-1v-2h1zm0-4h-1v-2h1zm0-4h-1v-2h1zm0-4h-1v-2h1zm0-4h-1v-2h1zm0-4h-1v-2h1zm0-4h-1v-2h1z" class="st0"/><path id="路径_2_" d="m104.8 12.1 11.1-8.4 4 12.1-10.4 8.2z" class="st0"/><path d="m106.797 13.886 8.259-7.858.69.724-8.26 7.858z" class="st0"/><path d="m109.505 9.03.866-.5 5.702 9.872-.866.5zm-3.079 1.78.866-.5 5.703 9.87-.866.5zm5.697-4.1.866-.5 5.699 9.873-.866.5z" class="st0"/><path d="m108.322 17.3 8.26-7.858.689.724-8.26 7.858zm1.592 3.74 8.26-7.858.689.724-8.26 7.858z" class="st0"/><path id="路径_9_" d="m33.1 12.1 11.1-8.4 4 12.1L37.9 24z" class="st0"/><path d="m35.253 13.933 8.265-7.852.688.725-8.265 7.852z" class="st0"/><path d="m37.904 9.02.866-.5 5.702 9.871-.866.5zm-3.078 1.783.866-.5 5.702 9.871-.866.5zM40.518 6.7l.866-.5 5.698 9.874-.866.5z" class="st0"/><path d="m36.711 17.278 8.26-7.858.689.725-8.26 7.858zm1.522 3.815 8.26-7.858.689.725-8.26 7.858z" class="st0"/><path id="路径_16_" d="m6 55.2 11.1-8.4 4 12.1-10.3 8.3z" class="st0"/><path d="m8.132 57.027 8.265-7.852.689.725-8.265 7.852z" class="st0"/><path d="m10.84 52.197.866-.5 5.698 9.874-.866.5zm-3.129 1.691.866-.5 5.698 9.874-.866.5zm5.69-4.097.866-.5 5.698 9.874-.866.5z" class="st0"/><path d="m9.654 60.442 8.265-7.852.689.725-8.265 7.852zm1.45 3.736 8.265-7.852.69.725-8.266 7.852z" class="st0"/><path id="路径_23_" d="m61.6 55.2 11.2-8.4 4 12.1-10.4 8.3z" class="st0"/><path d="m63.74 57.04 8.265-7.852.689.725-8.265 7.853z" class="st0"/><path d="m66.448 52.21.866-.5 5.698 9.874-.866.5zm-3.135 1.694.866-.5 5.698 9.874-.866.5zm5.688-4.099.866-.5 5.698 9.874-.866.5z" class="st0"/><path d="m65.195 60.387 8.259-7.858.69.725-8.26 7.858zm1.522 3.816 8.259-7.858.69.724-8.26 7.858z" class="st0"/></g></g></svg>