<svg xmlns="http://www.w3.org/2000/svg" xml:space="preserve" id="图层_1" x="0" y="0" viewBox="0 0 129 129"><style>.st0{fill:#fff}</style><g id="页面-1"><g id="星形连接的六相绕组"><path d="M0 63.46h128v1H0z" class="st0"/><path d="M.18.826.894.127l61.958 63.331-.715.7z" class="st0"/><path d="m61.472 63.463.695-.72 66.653 64.274-.694.72z" class="st0"/><path d="m.109 128.08 61.555-64.697.724.69L.834 128.77z" class="st0"/><path d="M61.581 63.483 127.172.118l.695.719-65.591 63.366z" class="st0"/><g transform="translate(0 .46)"><circle id="椭圆形_1_" cx="64" cy="63.5" r="6.5" class="st0"/><path d="M64 70.5c-3.9 0-7-3.1-7-7s3.1-7 7-7 7 3.1 7 7-3.1 7-7 7m0-13c-3.3 0-6 2.7-6 6s2.7 6 6 6 6-2.7 6-6-2.7-6-6-6" class="st0"/></g></g></g></svg>