<svg xmlns="http://www.w3.org/2000/svg" xml:space="preserve" id="图层_1" x="0" y="0" viewBox="0 0 103 128"><style>.st0{fill:#fff}</style><g id="页面-1"><g id="有载可调压自耦变压器"><path d="M47.08 115.2c-18.8 0-34.1-15.3-34.1-34.1S28.28 47 47.08 47s34.1 15.3 34.1 34.1c.1 18.8-15.2 34.1-34.1 34.1m0-67.3c-18.3 0-33.1 14.9-33.1 33.1s14.9 33.1 33.1 33.1 33.2-14.8 33.2-33.1-14.9-33.1-33.2-33.1" class="st0"/><path d="M78.18 69.4c-6.2-25.2-15.5-42.3-29.2-54-.7-.6-1.4-1.1-2.1-1.7l.6-.8c.7.6 1.4 1.1 2.1 1.7 13.9 11.8 23.3 29.1 29.5 54.5zm-31.6 45.3h1V128h-1z" class="st0"/><path d="M46.58 0h1v13.3h-1zM.405 109.989l95.923-61.785.542.84L.946 110.83z" class="st0"/><g transform="translate(.68)"><path id="路径_5_" d="m101.8 44.8-20.7 3.3 9.2 14.2z" class="st0"/><path d="M90.3 62.8c-.2 0-.3-.1-.4-.2l-9.1-14.2c-.1-.1-.1-.3 0-.5s.2-.3.4-.3l20.7-3.3c.2 0 .4.1.5.2s.1.4 0 .5L90.7 62.6c-.1.1-.3.2-.4.2M82 48.5l8.3 12.9 10.5-15.9z" class="st0"/></g></g></g></svg>