<svg xmlns="http://www.w3.org/2000/svg" xml:space="preserve" id="图层_1" x="0" y="0" viewBox="0 0 130 130"><style>.st0{fill:#fff}</style><g id="页面-1"><g id="柱上重合器_xFF08_合_xFF09_"><path d="M65.19 129.14c-35.6 0-64.5-28.9-64.5-64.5S29.59.14 65.19.14s64.5 28.9 64.5 64.5-28.9 64.5-64.5 64.5m0-128c-35 0-63.5 28.5-63.5 63.5s28.5 63.5 63.5 63.5 63.5-28.5 63.5-63.5-28.5-63.5-63.5-63.5" class="st0"/><path d="M120.19 96.54h-110c-.3 0-.5-.2-.5-.5v-62.8c0-.3.2-.5.5-.5h110c.3 0 .5.2.5.5v62.8c0 .3-.2.5-.5.5m-109.5-1h109v-61.8h-109z" class="st0"/></g></g></svg>