<svg xmlns="http://www.w3.org/2000/svg" xml:space="preserve" id="图层_1" x="0" y="0" viewBox="0 0 65 129"><style>.st0{fill:#fff}</style><g id="页面-1"><g id="柱上变压器_xFF08_公用变_xFF09_" transform="translate(.19 .64)"><circle id="椭圆形" cx="32" cy="44.4" r="31.5" class="st0"/><path id="形状" d="M32 13.4c17.1 0 31 13.9 31 31s-13.9 31-31 31-31-13.9-31-31 13.9-31 31-31m0-1c-17.7 0-32 14.3-32 32s14.3 32 32 32 32-14.3 32-32-14.3-32-32-32" class="st0"/><path id="形状_1_" d="M32 52.9c17.1 0 31 13.9 31 31s-13.8 31-31 31C14.9 115 1 101.1 1 84s13.9-31 31-31.1m0-.9C14.3 52 0 66.3 0 84s14.3 32 32 32 32-14.3 32-32-14.3-32-32-32" class="st0"/><path d="M31.5 115.2h1V128h-1zM31.5 0h1v12.8h-1z" class="st0"/></g></g></svg>