<svg xmlns="http://www.w3.org/2000/svg" viewBox="0 0 128 129"><title>检修符</title><g fill="none" fill-rule="evenodd"><path stroke="#fd211c" stroke-linejoin="round" d="M.5 1.04h127v127H.5z"/><path fill="#fd211c" fill-rule="nonzero" d="M51.68 67.54q-1.68-1.68-7-6.43l-4.53-4.27v47.17h-1.58V51.82A124.3 124.3 0 0 1 27.3 80.95l-1.23-1a127 127 0 0 0 12.5-34.11v-.3H27.22V43.9h11.35V25.07h1.58V43.9h11.62v1.64H40.15v9.33C42 56.64 44 58.4 46 60.1q3.43 3.07 6.69 6.16zm41.71-3Q85.74 88 82.3 97.14h17.16v1.59H49.39v-1.59h31.33Q84.86 85.71 92 64.06zM75.26 25.86q8.8 17.52 26.67 32.56l-.88 1.32q-17.61-15-26.4-31.76A103.4 103.4 0 0 1 50.8 57.72l-1-1.32Q66 42.24 73.94 25.86zM56.08 64.54l6.86 25.52-1.49.53Q57 73.92 54.5 65.02zm1.14-8H92v1.67H57.22zM75.7 88.08Q73 77.61 72.54 75.67a682 682 0 0 1-3.08-11.88l1.54-.44q.7 2.64 1.63 6.21t2 7.61l2.57 10.47z"/></g></svg>