<svg xmlns="http://www.w3.org/2000/svg" xml:space="preserve" id="图层_1" x="0" y="0" viewBox="0 0 130 80"><style>.st0{fill:#fff}</style><g id="页面-1"><g id="沙丘区" transform="translate(1 .7)"><path d="M128 79.1H0c-.3 0-.5-.2-.5-.5V0c0-.3.2-.5.5-.5h128c.3 0 .5.2.5.5v78.6c0 .3-.2.5-.5.5M.5 78.1h127V.5H.5z" class="st0"/><path d="M114.6 69.1h-.6v-1h.6zm-2.6 0h-2v-1h2zm-4 0h-2v-1h2zm-4 0h-2v-1h2zm-4 0h-2v-1h2zm-4 0h-2v-1h2zm-4 0h-2v-1h2zm-4 0h-2v-1h2zm-4 0h-2v-1h2zm-4 0h-2v-1h2zm-4 0h-2v-1h2zm-4 0h-2v-1h2zm-4 0h-2v-1h2z" class="st0"/><path d="M114.8 69.4h-1v-.6h1zm0-2.6h-1v-2h1zm0-4h-1v-2h1zm0-4h-1v-2h1zm0-4h-1v-2h1zm0-4h-1v-2h1zm0-4h-1v-2h1zm0-4h-1v-2h1zm0-4h-1v-2h1zm0-4h-1v-2h1zm0-4h-1v-2h1zm0-4h-1v-2h1zm0-4h-1v-2h1z" class="st0"/><path id="矩形_1_" d="M8.4 61.7H12v3.6H8.4z" class="st0"/><path id="矩形_2_" d="M12.9 55.5h3.6v3.6h-3.6z" class="st0"/><path id="矩形_3_" d="M17.4 61.7H21v3.6h-3.6z" class="st0"/><path id="矩形_4_" d="M56 61.7h3.6v3.6H56z" class="st0"/><path id="矩形_5_" d="M60.5 55.5h3.6v3.6h-3.6z" class="st0"/><path id="矩形_6_" d="M65 61.7h3.6v3.6H65z" class="st0"/><path id="矩形_7_" d="M97.6 19.5h3.6v3.6h-3.6z" class="st0"/><path id="矩形_8_" d="M102.1 13.4h3.6V17h-3.6z" class="st0"/><path id="矩形_9_" d="M106.6 19.5h3.6v3.6h-3.6z" class="st0"/><path id="矩形_10_" d="M26 14.7h3.6v3.6H26z" class="st0"/><path id="矩形_11_" d="M30.5 8.6h3.6v3.6h-3.6z" class="st0"/><path id="矩形_12_" d="M35 14.7h3.6v3.6H35z" class="st0"/></g></g></svg>