<svg xmlns="http://www.w3.org/2000/svg" viewBox="0 0 130 84"><title>洪水冲刷区</title><g fill="none" fill-rule="evenodd" transform="translate(1 .85)"><circle cx="10.08" cy="7.12" r="1.18" fill="#a06426" fill-rule="nonzero"/><circle cx="14.13" cy="31.33" r="1.18" fill="#a06426" fill-rule="nonzero"/><circle cx="7.72" cy="13.14" r="1.18" fill="#a06426" fill-rule="nonzero"/><circle cx="8.9" cy="41.15" r="1.18" fill="#a06426" fill-rule="nonzero"/><circle cx="32.72" cy="31.33" r="1.18" fill="#a06426" fill-rule="nonzero"/><circle cx="8.9" cy="14.19" r="1.18" fill="#a06426" fill-rule="nonzero"/><circle cx="4.97" cy="25.71" r="1.18" fill="#a06426" fill-rule="nonzero"/><circle cx="15.84" cy="19.16" r="1.18" fill="#a06426" fill-rule="nonzero"/><circle cx="14.13" cy="33.69" r="1.18" fill="#a06426" fill-rule="nonzero"/><circle cx="12.43" cy="7.12" r="1.18" fill="#a06426" fill-rule="nonzero"/><circle cx="21.73" cy="11.96" r="1.18" fill="#a06426" fill-rule="nonzero"/><circle cx="11.26" cy="7.12" r="1.18" fill="#a06426" fill-rule="nonzero"/><circle cx="9.29" cy="50.84" r="1.18" fill="#a06426" fill-rule="nonzero"/><circle cx="12.43" cy="32.51" r="1.18" fill="#a06426" fill-rule="nonzero"/><circle cx="15.31" cy="48.22" r="1.18" fill="#a06426" fill-rule="nonzero"/><circle cx="19.37" cy="72.43" r="1.18" fill="#a06426" fill-rule="nonzero"/><circle cx="12.96" cy="54.24" r="1.18" fill="#a06426" fill-rule="nonzero"/><circle cx="37.96" cy="72.43" r="1.18" fill="#a06426" fill-rule="nonzero"/><circle cx="28.14" cy="67.06" r="1.18" fill="#a06426" fill-rule="nonzero"/><circle cx="14.13" cy="55.28" r="1.18" fill="#a06426" fill-rule="nonzero"/><circle cx="21.07" cy="60.26" r="1.18" fill="#a06426" fill-rule="nonzero"/><circle cx="19.37" cy="74.79" r="1.18" fill="#a06426" fill-rule="nonzero"/><circle cx="17.67" cy="48.22" r="1.18" fill="#a06426" fill-rule="nonzero"/><circle cx="26.96" cy="53.06" r="1.18" fill="#a06426" fill-rule="nonzero"/><circle cx="39.39" cy="50.31" r="1.18" fill="#a06426" fill-rule="nonzero"/><circle cx="38.22" cy="36.31" r="1.18" fill="#a06426" fill-rule="nonzero"/><circle cx="4.71" cy="59.87" r="1.18" fill="#a06426" fill-rule="nonzero"/><circle cx="5.89" cy="60.91" r="1.18" fill="#a06426" fill-rule="nonzero"/><circle cx="12.83" cy="65.89" r="1.18" fill="#a06426" fill-rule="nonzero"/><circle cx="18.72" cy="58.69" r="1.18" fill="#a06426" fill-rule="nonzero"/><circle cx="45.02" cy="58.95" r="1.18" fill="#a06426" fill-rule="nonzero"/><circle cx="16.49" cy="48.22" r="1.18" fill="#a06426" fill-rule="nonzero"/><circle cx="17.67" cy="73.61" r="1.18" fill="#a06426" fill-rule="nonzero"/><circle cx="27.09" cy="22.7" r="1.18" fill="#a06426" fill-rule="nonzero"/><circle cx="31.15" cy="46.91" r="1.18" fill="#a06426" fill-rule="nonzero"/><circle cx="24.74" cy="28.72" r="1.18" fill="#a06426" fill-rule="nonzero"/><circle cx="48.56" cy="41.8" r="1.18" fill="#a06426" fill-rule="nonzero"/><circle cx="52.35" cy="34.34" r="1.18" fill="#a06426" fill-rule="nonzero"/><circle cx="57.98" cy="42.98" r="1.18" fill="#a06426" fill-rule="nonzero"/><circle cx="59.68" cy="72.17" r="1.18" fill="#a06426" fill-rule="nonzero"/><circle cx="57.33" cy="70.6" r="1.18" fill="#a06426" fill-rule="nonzero"/><circle cx="62.04" cy="58.56" r="1.18" fill="#a06426" fill-rule="nonzero"/><circle cx="52.61" cy="55.28" r="1.18" fill="#a06426" fill-rule="nonzero"/><circle cx="72.64" cy="56.2" r="1.18" fill="#a06426" fill-rule="nonzero"/><circle cx="70.28" cy="54.63" r="1.18" fill="#a06426" fill-rule="nonzero"/><circle cx="74.86" cy="68.63" r="1.18" fill="#a06426" fill-rule="nonzero"/><circle cx="81.93" cy="55.15" r="1.18" fill="#a06426" fill-rule="nonzero"/><circle cx="96.59" cy="68.37" r="1.18" fill="#a06426" fill-rule="nonzero"/><circle cx="94.23" cy="66.8" r="1.18" fill="#a06426" fill-rule="nonzero"/><circle cx="98.94" cy="54.76" r="1.18" fill="#a06426" fill-rule="nonzero"/><circle cx="89.52" cy="51.49" r="1.18" fill="#a06426" fill-rule="nonzero"/><circle cx="102.48" cy="40.89" r="1.18" fill="#a06426" fill-rule="nonzero"/><circle cx="117.14" cy="54.11" r="1.18" fill="#a06426" fill-rule="nonzero"/><circle cx="114.78" cy="52.54" r="1.18" fill="#a06426" fill-rule="nonzero"/><circle cx="119.49" cy="40.5" r="1.18" fill="#a06426" fill-rule="nonzero"/><circle cx="110.07" cy="37.22" r="1.18" fill="#a06426" fill-rule="nonzero"/><circle cx="92.92" cy="14.97" r="1.18" fill="#a06426" fill-rule="nonzero"/><circle cx="95.15" cy="27.41" r="1.18" fill="#a06426" fill-rule="nonzero"/><circle cx="102.22" cy="13.93" r="1.18" fill="#a06426" fill-rule="nonzero"/><circle cx="116.88" cy="27.15" r="1.18" fill="#a06426" fill-rule="nonzero"/><circle cx="114.52" cy="25.58" r="1.18" fill="#a06426" fill-rule="nonzero"/><circle cx="119.23" cy="13.53" r="1.18" fill="#a06426" fill-rule="nonzero"/><circle cx="109.81" cy="10.26" r="1.18" fill="#a06426" fill-rule="nonzero"/><circle cx="107.19" cy="50.84" r="1.18" fill="#a06426" fill-rule="nonzero"/><circle cx="98.42" cy="60.65" r="1.18" fill="#a06426" fill-rule="nonzero"/><circle cx="52.22" cy="47.69" r="1.18" fill="#a06426" fill-rule="nonzero"/><circle cx="73.95" cy="47.43" r="1.18" fill="#a06426" fill-rule="nonzero"/><circle cx="71.59" cy="45.86" r="1.18" fill="#a06426" fill-rule="nonzero"/><circle cx="75.78" cy="39.71" r="1.18" fill="#a06426" fill-rule="nonzero"/><circle cx="113.08" cy="73.87" r="1.18" fill="#a06426" fill-rule="nonzero"/><circle cx="110.72" cy="72.3" r="1.18" fill="#a06426" fill-rule="nonzero"/><circle cx="116.61" cy="61.44" r="1.18" fill="#a06426" fill-rule="nonzero"/><circle cx="106.01" cy="56.99" r="1.18" fill="#a06426" fill-rule="nonzero"/><circle cx="118.97" cy="46.39" r="1.18" fill="#a06426" fill-rule="nonzero"/><circle cx="123.68" cy="56.33" r="1.18" fill="#a06426" fill-rule="nonzero"/><circle cx="62.69" cy="30.94" r="1.18" fill="#a06426" fill-rule="nonzero"/><circle cx="25.91" cy="29.76" r="1.18" fill="#a06426" fill-rule="nonzero"/><circle cx="32.85" cy="34.74" r="1.18" fill="#a06426" fill-rule="nonzero"/><circle cx="29.45" cy="22.7" r="1.18" fill="#a06426" fill-rule="nonzero"/><circle cx="38.74" cy="27.54" r="1.18" fill="#a06426" fill-rule="nonzero"/><circle cx="24.61" cy="40.36" r="1.18" fill="#a06426" fill-rule="nonzero"/><circle cx="30.49" cy="33.17" r="1.18" fill="#a06426" fill-rule="nonzero"/><circle cx="28.27" cy="22.7" r="1.18" fill="#a06426" fill-rule="nonzero"/><circle cx="47.12" cy="17.2" r="1.18" fill="#a06426" fill-rule="nonzero"/><circle cx="52.61" cy="22.17" r="1.18" fill="#a06426" fill-rule="nonzero"/><circle cx="41.49" cy="8.56" r="1.18" fill="#a06426" fill-rule="nonzero"/><circle cx="39.13" cy="14.58" r="1.18" fill="#a06426" fill-rule="nonzero"/><circle cx="40.31" cy="15.63" r="1.18" fill="#a06426" fill-rule="nonzero"/><circle cx="47.25" cy="20.6" r="1.18" fill="#a06426" fill-rule="nonzero"/><circle cx="43.84" cy="8.56" r="1.18" fill="#a06426" fill-rule="nonzero"/><circle cx="53.14" cy="13.4" r="1.18" fill="#a06426" fill-rule="nonzero"/><circle cx="44.89" cy="19.03" r="1.18" fill="#a06426" fill-rule="nonzero"/><circle cx="75.12" cy="25.84" r="1.18" fill="#a06426" fill-rule="nonzero"/><circle cx="80.62" cy="30.81" r="1.18" fill="#a06426" fill-rule="nonzero"/><circle cx="69.5" cy="17.2" r="1.18" fill="#a06426" fill-rule="nonzero"/><circle cx="67.14" cy="23.22" r="1.18" fill="#a06426" fill-rule="nonzero"/><circle cx="90.96" cy="36.31" r="1.18" fill="#a06426" fill-rule="nonzero"/><circle cx="68.32" cy="24.27" r="1.18" fill="#a06426" fill-rule="nonzero"/><circle cx="75.26" cy="29.24" r="1.18" fill="#a06426" fill-rule="nonzero"/><circle cx="81.15" cy="22.04" r="1.18" fill="#a06426" fill-rule="nonzero"/><circle cx="67.01" cy="34.87" r="1.18" fill="#a06426" fill-rule="nonzero"/><circle cx="72.9" cy="27.67" r="1.18" fill="#a06426" fill-rule="nonzero"/><circle cx="89.52" cy="11.7" r="1.18" fill="#a06426" fill-rule="nonzero"/><circle cx="81.54" cy="9.08" r="1.18" fill="#a06426" fill-rule="nonzero"/><circle cx="42.01" cy="45.21" r="1.18" fill="#a06426" fill-rule="nonzero"/><circle cx="57.98" cy="49.66" r="1.18" fill="#a06426" fill-rule="nonzero"/><circle cx="55.62" cy="48.09" r="1.18" fill="#a06426" fill-rule="nonzero"/><circle cx="59.81" cy="41.94" r="1.18" fill="#a06426" fill-rule="nonzero"/><circle cx="46.72" cy="33.17" r="1.18" fill="#a06426" fill-rule="nonzero"/><circle cx="59.16" cy="28.06" r="1.18" fill="#a06426" fill-rule="nonzero"/><circle cx="64.65" cy="33.04" r="1.18" fill="#a06426" fill-rule="nonzero"/><circle cx="53.53" cy="19.42" r="1.18" fill="#a06426" fill-rule="nonzero"/><circle cx="51.17" cy="25.44" r="1.18" fill="#a06426" fill-rule="nonzero"/><circle cx="52.35" cy="26.49" r="1.18" fill="#a06426" fill-rule="nonzero"/><circle cx="59.29" cy="31.46" r="1.18" fill="#a06426" fill-rule="nonzero"/><circle cx="55.89" cy="19.42" r="1.18" fill="#a06426" fill-rule="nonzero"/><circle cx="65.18" cy="24.27" r="1.18" fill="#a06426" fill-rule="nonzero"/><circle cx="51.04" cy="37.09" r="1.18" fill="#a06426" fill-rule="nonzero"/><circle cx="56.93" cy="29.89" r="1.18" fill="#a06426" fill-rule="nonzero"/><circle cx="54.71" cy="19.42" r="1.18" fill="#a06426" fill-rule="nonzero"/><circle cx="33.9" cy="70.73" r="1.18" fill="#a06426" fill-rule="nonzero"/><circle cx="57.33" cy="76.09" r="1.18" fill="#a06426" fill-rule="nonzero"/><circle cx="44.24" cy="67.33" r="1.18" fill="#a06426" fill-rule="nonzero"/><circle cx="34.16" cy="58.56" r="1.18" fill="#a06426" fill-rule="nonzero"/><circle cx="28.79" cy="56.99" r="1.18" fill="#a06426" fill-rule="nonzero"/><circle cx="56.67" cy="62.22" r="1.18" fill="#a06426" fill-rule="nonzero"/><circle cx="62.17" cy="67.19" r="1.18" fill="#a06426" fill-rule="nonzero"/><circle cx="48.69" cy="59.6" r="1.18" fill="#a06426" fill-rule="nonzero"/><circle cx="49.87" cy="60.65" r="1.18" fill="#a06426" fill-rule="nonzero"/><circle cx="56.8" cy="65.62" r="1.18" fill="#a06426" fill-rule="nonzero"/><circle cx="62.69" cy="58.43" r="1.18" fill="#a06426" fill-rule="nonzero"/><circle cx="48.56" cy="71.25" r="1.18" fill="#a06426" fill-rule="nonzero"/><circle cx="54.45" cy="64.05" r="1.18" fill="#a06426" fill-rule="nonzero"/><circle cx="66.36" cy="70.21" r="1.18" fill="#a06426" fill-rule="nonzero"/><circle cx="64" cy="68.63" r="1.18" fill="#a06426" fill-rule="nonzero"/><circle cx="63.35" cy="60.26" r="1.18" fill="#a06426" fill-rule="nonzero"/><circle cx="68.84" cy="65.23" r="1.18" fill="#a06426" fill-rule="nonzero"/><circle cx="56.54" cy="58.69" r="1.18" fill="#a06426" fill-rule="nonzero"/><circle cx="63.48" cy="63.66" r="1.18" fill="#a06426" fill-rule="nonzero"/><circle cx="61.12" cy="62.09" r="1.18" fill="#a06426" fill-rule="nonzero"/><circle cx="28.27" cy="69.55" r="1.18" fill="#a06426" fill-rule="nonzero"/><circle cx="40.7" cy="64.45" r="1.18" fill="#a06426" fill-rule="nonzero"/><circle cx="46.2" cy="69.42" r="1.18" fill="#a06426" fill-rule="nonzero"/><circle cx="35.08" cy="55.81" r="1.18" fill="#a06426" fill-rule="nonzero"/><circle cx="32.72" cy="61.83" r="1.18" fill="#a06426" fill-rule="nonzero"/><circle cx="33.9" cy="62.88" r="1.18" fill="#a06426" fill-rule="nonzero"/><circle cx="40.83" cy="67.85" r="1.18" fill="#a06426" fill-rule="nonzero"/><circle cx="37.43" cy="55.81" r="1.18" fill="#a06426" fill-rule="nonzero"/><circle cx="46.72" cy="60.65" r="1.18" fill="#a06426" fill-rule="nonzero"/><circle cx="32.59" cy="73.48" r="1.18" fill="#a06426" fill-rule="nonzero"/><circle cx="38.48" cy="66.28" r="1.18" fill="#a06426" fill-rule="nonzero"/><circle cx="26.04" cy="66.54" r="1.18" fill="#a06426" fill-rule="nonzero"/><circle cx="16.23" cy="61.17" r="1.18" fill="#a06426" fill-rule="nonzero"/><circle cx="21.99" cy="64.84" r="1.18" fill="#a06426" fill-rule="nonzero"/><circle cx="16.36" cy="63.66" r="1.18" fill="#a06426" fill-rule="nonzero"/><circle cx="28.92" cy="61.96" r="1.18" fill="#a06426" fill-rule="nonzero"/><circle cx="20.68" cy="67.59" r="1.18" fill="#a06426" fill-rule="nonzero"/><circle cx="26.57" cy="60.39" r="1.18" fill="#a06426" fill-rule="nonzero"/><circle cx="70.67" cy="45.08" r="1.18" fill="#a06426" fill-rule="nonzero"/><circle cx="87.69" cy="44.68" r="1.18" fill="#a06426" fill-rule="nonzero"/><circle cx="78.27" cy="41.41" r="1.18" fill="#a06426" fill-rule="nonzero"/><circle cx="98.29" cy="42.33" r="1.18" fill="#a06426" fill-rule="nonzero"/><circle cx="95.93" cy="40.76" r="1.18" fill="#a06426" fill-rule="nonzero"/><circle cx="82.32" cy="48.35" r="1.18" fill="#a06426" fill-rule="nonzero"/><circle cx="74.34" cy="45.73" r="1.18" fill="#a06426" fill-rule="nonzero"/><circle cx="87.17" cy="33.56" r="1.18" fill="#a06426" fill-rule="nonzero"/><circle cx="82.45" cy="51.75" r="1.18" fill="#a06426" fill-rule="nonzero"/><circle cx="88.34" cy="44.55" r="1.18" fill="#a06426" fill-rule="nonzero"/><circle cx="80.1" cy="50.18" r="1.18" fill="#a06426" fill-rule="nonzero"/><circle cx="67.4" cy="48.35" r="1.18" fill="#a06426" fill-rule="nonzero"/><circle cx="79.05" cy="48.87" r="1.18" fill="#a06426" fill-rule="nonzero"/><circle cx="71.07" cy="41.15" r="1.18" fill="#a06426" fill-rule="nonzero"/><circle cx="68.71" cy="39.58" r="1.18" fill="#a06426" fill-rule="nonzero"/><circle cx="72.9" cy="33.43" r="1.18" fill="#a06426" fill-rule="nonzero"/><circle cx="67.8" cy="38.79" r="1.18" fill="#a06426" fill-rule="nonzero"/><circle cx="75.39" cy="35.13" r="1.18" fill="#a06426" fill-rule="nonzero"/><circle cx="79.44" cy="42.07" r="1.18" fill="#a06426" fill-rule="nonzero"/><circle cx="71.46" cy="39.45" r="1.18" fill="#a06426" fill-rule="nonzero"/><circle cx="79.57" cy="45.47" r="1.18" fill="#a06426" fill-rule="nonzero"/><circle cx="77.22" cy="43.9" r="1.18" fill="#a06426" fill-rule="nonzero"/><circle cx="77.48" cy="73.48" r="1.18" fill="#a06426" fill-rule="nonzero"/><circle cx="75.12" cy="71.91" r="1.18" fill="#a06426" fill-rule="nonzero"/><circle cx="86.77" cy="72.43" r="1.18" fill="#a06426" fill-rule="nonzero"/><circle cx="78.79" cy="64.71" r="1.18" fill="#a06426" fill-rule="nonzero"/><circle cx="76.43" cy="63.14" r="1.18" fill="#a06426" fill-rule="nonzero"/><circle cx="80.62" cy="56.99" r="1.18" fill="#a06426" fill-rule="nonzero"/><circle cx="75.52" cy="62.35" r="1.18" fill="#a06426" fill-rule="nonzero"/><circle cx="83.11" cy="58.69" r="1.18" fill="#a06426" fill-rule="nonzero"/><circle cx="87.17" cy="65.62" r="1.18" fill="#a06426" fill-rule="nonzero"/><circle cx="79.18" cy="63.01" r="1.18" fill="#a06426" fill-rule="nonzero"/><circle cx="87.3" cy="69.03" r="1.18" fill="#a06426" fill-rule="nonzero"/><circle cx="84.94" cy="67.46" r="1.18" fill="#a06426" fill-rule="nonzero"/><circle cx="102.22" cy="69.29" r="1.18" fill="#a06426" fill-rule="nonzero"/><circle cx="102.48" cy="72.56" r="1.18" fill="#a06426" fill-rule="nonzero"/><circle cx="114.13" cy="73.08" r="1.18" fill="#a06426" fill-rule="nonzero"/><circle cx="106.14" cy="65.36" r="1.18" fill="#a06426" fill-rule="nonzero"/><circle cx="103.79" cy="63.79" r="1.18" fill="#a06426" fill-rule="nonzero"/><circle cx="102.87" cy="63.01" r="1.18" fill="#a06426" fill-rule="nonzero"/><circle cx="110.46" cy="59.34" r="1.18" fill="#a06426" fill-rule="nonzero"/><circle cx="114.52" cy="66.28" r="1.18" fill="#a06426" fill-rule="nonzero"/><circle cx="106.54" cy="63.66" r="1.18" fill="#a06426" fill-rule="nonzero"/><circle cx="90.18" cy="58.3" r="1.18" fill="#a06426" fill-rule="nonzero"/><circle cx="87.82" cy="56.72" r="1.18" fill="#a06426" fill-rule="nonzero"/><circle cx="92.01" cy="50.57" r="1.18" fill="#a06426" fill-rule="nonzero"/><circle cx="99.6" cy="46.91" r="1.18" fill="#a06426" fill-rule="nonzero"/><circle cx="95.8" cy="59.21" r="1.18" fill="#a06426" fill-rule="nonzero"/><circle cx="99.73" cy="55.28" r="1.18" fill="#a06426" fill-rule="nonzero"/><circle cx="97.37" cy="53.71" r="1.18" fill="#a06426" fill-rule="nonzero"/><circle cx="96.46" cy="52.93" r="1.18" fill="#a06426" fill-rule="nonzero"/><circle cx="101.3" cy="52.54" r="1.18" fill="#a06426" fill-rule="nonzero"/><circle cx="114.65" cy="69.68" r="1.18" fill="#a06426" fill-rule="nonzero"/><circle cx="112.29" cy="68.11" r="1.18" fill="#a06426" fill-rule="nonzero"/><circle cx="66.36" cy="50.57" r="1.18" fill="#a06426" fill-rule="nonzero"/><circle cx="66.09" cy="40.36" r="1.18" fill="#a06426" fill-rule="nonzero"/><ellipse cx="104.11" cy="45.08" fill="#a06426" fill-rule="nonzero" rx="1" ry="1.18"/><circle cx="102.35" cy="43.51" r="1.18" fill="#a06426" fill-rule="nonzero"/><circle cx="97.9" cy="33.82" r="1.18" fill="#a06426" fill-rule="nonzero"/><circle cx="93.71" cy="35.26" r="1.18" fill="#a06426" fill-rule="nonzero"/><circle cx="91.35" cy="33.69" r="1.18" fill="#a06426" fill-rule="nonzero"/><ellipse cx="99.53" cy="38.01" fill="#a06426" fill-rule="nonzero" rx="1" ry="1.18"/><circle cx="97.77" cy="36.44" r="1.18" fill="#a06426" fill-rule="nonzero"/><circle cx="87.69" cy="36.7" r="1.18" fill="#a06426" fill-rule="nonzero"/><circle cx="83.5" cy="38.14" r="1.18" fill="#a06426" fill-rule="nonzero"/><circle cx="81.15" cy="36.57" r="1.18" fill="#a06426" fill-rule="nonzero"/><circle cx="89.91" cy="40.89" r="1.18" fill="#a06426" fill-rule="nonzero"/><circle cx="87.56" cy="39.32" r="1.18" fill="#a06426" fill-rule="nonzero"/><circle cx="114" cy="44.03" r="1.18" fill="#a06426" fill-rule="nonzero"/><circle cx="106.01" cy="36.31" r="1.18" fill="#a06426" fill-rule="nonzero"/><circle cx="103.66" cy="34.74" r="1.18" fill="#a06426" fill-rule="nonzero"/><circle cx="107.84" cy="28.59" r="1.18" fill="#a06426" fill-rule="nonzero"/><circle cx="102.74" cy="33.95" r="1.18" fill="#a06426" fill-rule="nonzero"/><circle cx="119.75" cy="33.56" r="1.18" fill="#a06426" fill-rule="nonzero"/><circle cx="110.33" cy="30.29" r="1.18" fill="#a06426" fill-rule="nonzero"/><circle cx="114.39" cy="37.22" r="1.18" fill="#a06426" fill-rule="nonzero"/><circle cx="106.4" cy="34.61" r="1.18" fill="#a06426" fill-rule="nonzero"/><circle cx="107.58" cy="35.65" r="1.18" fill="#a06426" fill-rule="nonzero"/><circle cx="114.52" cy="40.63" r="1.18" fill="#a06426" fill-rule="nonzero"/><circle cx="112.16" cy="39.06" r="1.18" fill="#a06426" fill-rule="nonzero"/><circle cx="104.44" cy="35.65" r="1.18" fill="#a06426" fill-rule="nonzero"/><circle cx="64.13" cy="52.41" r="1.18" fill="#a06426" fill-rule="nonzero"/><circle cx="36.25" cy="55.81" r="1.18" fill="#a06426" fill-rule="nonzero"/><circle cx="65.57" cy="11.31" r="1.18" fill="#a06426" fill-rule="nonzero"/><circle cx="82.72" cy="10.13" r="1.18" fill="#a06426" fill-rule="nonzero"/><circle cx="89.65" cy="15.11" r="1.18" fill="#a06426" fill-rule="nonzero"/><circle cx="87.3" cy="13.53" r="1.18" fill="#a06426" fill-rule="nonzero"/><circle cx="76.56" cy="22.96" r="1.18" fill="#a06426" fill-rule="nonzero"/><circle cx="73.16" cy="19.69" r="1.18" fill="#a06426" fill-rule="nonzero"/><circle cx="73.29" cy="23.09" r="1.18" fill="#a06426" fill-rule="nonzero"/><circle cx="70.94" cy="21.52" r="1.18" fill="#a06426" fill-rule="nonzero"/><circle cx="97.11" cy="20.6" r="1.18" fill="#a06426" fill-rule="nonzero"/><circle cx="93.71" cy="17.33" r="1.18" fill="#a06426" fill-rule="nonzero"/><circle cx="87.56" cy="17.46" r="1.18" fill="#a06426" fill-rule="nonzero"/><circle cx="84.16" cy="14.19" r="1.18" fill="#a06426" fill-rule="nonzero"/><circle cx="84.29" cy="17.59" r="1.18" fill="#a06426" fill-rule="nonzero"/><circle cx="81.93" cy="16.02" r="1.18" fill="#a06426" fill-rule="nonzero"/><circle cx="101.82" cy="8.04" r="1.18" fill="#a06426" fill-rule="nonzero"/><circle cx="98.55" cy="8.17" r="1.18" fill="#a06426" fill-rule="nonzero"/><circle cx="93.06" cy="7.25" r="1.18" fill="#a06426" fill-rule="nonzero"/><circle cx="90.83" cy="9.08" r="1.18" fill="#a06426" fill-rule="nonzero"/><circle cx="88.34" cy="19.82" r="1.18" fill="#a06426" fill-rule="nonzero"/><circle cx="93.84" cy="20.73" r="1.18" fill="#a06426" fill-rule="nonzero"/><circle cx="91.48" cy="19.16" r="1.18" fill="#a06426" fill-rule="nonzero"/><circle cx="42.67" cy="8.56" r="1.18" fill="#a06426" fill-rule="nonzero"/><circle cx="29.45" cy="48.09" r="1.18" fill="#a06426" fill-rule="nonzero"/><circle cx="9.95" cy="17.98" r="1.18" fill="#a06426" fill-rule="nonzero"/><circle cx="5.37" cy="53.71" r="1.18" fill="#a06426" fill-rule="nonzero"/><circle cx="16.62" cy="36.96" r="1.18" fill="#a06426" fill-rule="nonzero"/><circle cx="15.44" cy="22.96" r="1.18" fill="#a06426" fill-rule="nonzero"/><circle cx="22.25" cy="45.6" r="1.18" fill="#a06426" fill-rule="nonzero"/><circle cx="8.38" cy="33.56" r="1.18" fill="#a06426" fill-rule="nonzero"/><circle cx="25.78" cy="28.45" r="1.18" fill="#a06426" fill-rule="nonzero"/><circle cx="29.58" cy="20.99" r="1.18" fill="#a06426" fill-rule="nonzero"/><circle cx="35.21" cy="29.63" r="1.18" fill="#a06426" fill-rule="nonzero"/><circle cx="39.26" cy="45.21" r="1.18" fill="#a06426" fill-rule="nonzero"/><circle cx="29.84" cy="41.94" r="1.18" fill="#a06426" fill-rule="nonzero"/><circle cx="29.45" cy="34.34" r="1.18" fill="#a06426" fill-rule="nonzero"/><circle cx="39.92" cy="17.59" r="1.18" fill="#a06426" fill-rule="nonzero"/><circle cx="10.08" cy="21.39" r="1.18" fill="#a06426" fill-rule="nonzero"/><circle cx="15.97" cy="14.19" r="1.18" fill="#a06426" fill-rule="nonzero"/><circle cx="7.72" cy="19.82" r="1.18" fill="#a06426" fill-rule="nonzero"/><circle cx="18.72" cy="18.38" r="1.18" fill="#a06426" fill-rule="nonzero"/><circle cx="19.89" cy="19.42" r="1.18" fill="#a06426" fill-rule="nonzero"/><circle cx="20.94" cy="23.22" r="1.18" fill="#a06426" fill-rule="nonzero"/><circle cx="21.07" cy="26.62" r="1.18" fill="#a06426" fill-rule="nonzero"/><circle cx="18.72" cy="25.05" r="1.18" fill="#a06426" fill-rule="nonzero"/><circle cx="58.11" cy="13.01" r="1.18" fill="#a06426" fill-rule="nonzero"/><circle cx="59.29" cy="14.06" r="1.18" fill="#a06426" fill-rule="nonzero"/><circle cx="66.22" cy="19.03" r="1.18" fill="#a06426" fill-rule="nonzero"/><circle cx="60.34" cy="17.85" r="1.18" fill="#a06426" fill-rule="nonzero"/><circle cx="65.83" cy="22.83" r="1.18" fill="#a06426" fill-rule="nonzero"/><circle cx="60.47" cy="21.26" r="1.18" fill="#a06426" fill-rule="nonzero"/><circle cx="66.36" cy="14.06" r="1.18" fill="#a06426" fill-rule="nonzero"/><circle cx="58.11" cy="19.69" r="1.18" fill="#a06426" fill-rule="nonzero"/><circle cx="49.34" cy="9.61" r="1.18" fill="#a06426" fill-rule="nonzero"/><circle cx="54.84" cy="14.58" r="1.18" fill="#a06426" fill-rule="nonzero"/><circle cx="49.47" cy="13.01" r="1.18" fill="#a06426" fill-rule="nonzero"/><circle cx="55.36" cy="5.81" r="1.18" fill="#a06426" fill-rule="nonzero"/><circle cx="47.12" cy="11.44" r="1.18" fill="#a06426" fill-rule="nonzero"/><circle cx="55.75" cy="11.83" r="1.18" fill="#a06426" fill-rule="nonzero"/><circle cx="53.4" cy="17.85" r="1.18" fill="#a06426" fill-rule="nonzero"/><circle cx="58.11" cy="11.83" r="1.18" fill="#a06426" fill-rule="nonzero"/><circle cx="56.93" cy="11.83" r="1.18" fill="#a06426" fill-rule="nonzero"/><circle cx="60.34" cy="5.42" r="1.18" fill="#a06426" fill-rule="nonzero"/><circle cx="61.51" cy="6.47" r="1.18" fill="#a06426" fill-rule="nonzero"/><circle cx="62.56" cy="10.26" r="1.18" fill="#a06426" fill-rule="nonzero"/><circle cx="62.69" cy="13.67" r="1.18" fill="#a06426" fill-rule="nonzero"/><circle cx="60.34" cy="12.09" r="1.18" fill="#a06426" fill-rule="nonzero"/><circle cx="65.57" cy="13.53" r="1.18" fill="#a06426" fill-rule="nonzero"/><circle cx="65.7" cy="16.94" r="1.18" fill="#a06426" fill-rule="nonzero"/><circle cx="71.59" cy="9.74" r="1.18" fill="#a06426" fill-rule="nonzero"/><circle cx="76.56" cy="9.35" r="1.18" fill="#a06426" fill-rule="nonzero"/><circle cx="77.74" cy="10.39" r="1.18" fill="#a06426" fill-rule="nonzero"/><circle cx="78.79" cy="14.19" r="1.18" fill="#a06426" fill-rule="nonzero"/><circle cx="78.92" cy="17.59" r="1.18" fill="#a06426" fill-rule="nonzero"/><circle cx="76.56" cy="16.02" r="1.18" fill="#a06426" fill-rule="nonzero"/><circle cx="19.24" cy="31.86" r="1.18" fill="#a06426" fill-rule="nonzero"/><circle cx="35.21" cy="36.31" r="1.18" fill="#a06426" fill-rule="nonzero"/><circle cx="32.85" cy="34.74" r="1.18" fill="#a06426" fill-rule="nonzero"/><circle cx="37.04" cy="28.59" r="1.18" fill="#a06426" fill-rule="nonzero"/><circle cx="23.95" cy="19.82" r="1.18" fill="#a06426" fill-rule="nonzero"/><circle cx="36.38" cy="14.71" r="1.18" fill="#a06426" fill-rule="nonzero"/><circle cx="36.52" cy="18.12" r="1.18" fill="#a06426" fill-rule="nonzero"/><circle cx="28.27" cy="23.74" r="1.18" fill="#a06426" fill-rule="nonzero"/><circle cx="34.16" cy="16.54" r="1.18" fill="#a06426" fill-rule="nonzero"/><circle cx="21.46" cy="53.98" r="1.18" fill="#a06426" fill-rule="nonzero"/><circle cx="11.39" cy="45.21" r="1.18" fill="#a06426" fill-rule="nonzero"/><circle cx="6.02" cy="43.64" r="1.18" fill="#a06426" fill-rule="nonzero"/><circle cx="33.9" cy="48.87" r="1.18" fill="#a06426" fill-rule="nonzero"/><circle cx="39.39" cy="53.85" r="1.18" fill="#a06426" fill-rule="nonzero"/><circle cx="25.91" cy="46.25" r="1.18" fill="#a06426" fill-rule="nonzero"/><circle cx="27.09" cy="47.3" r="1.18" fill="#a06426" fill-rule="nonzero"/><circle cx="34.03" cy="52.27" r="1.18" fill="#a06426" fill-rule="nonzero"/><circle cx="39.92" cy="45.08" r="1.18" fill="#a06426" fill-rule="nonzero"/><circle cx="31.67" cy="50.7" r="1.18" fill="#a06426" fill-rule="nonzero"/><circle cx="53.27" cy="48.74" r="1.18" fill="#a06426" fill-rule="nonzero"/><circle cx="45.02" cy="45.34" r="1.18" fill="#a06426" fill-rule="nonzero"/><circle cx="55.89" cy="43.64" r="1.18" fill="#a06426" fill-rule="nonzero"/><circle cx="48.95" cy="54.24" r="1.18" fill="#a06426" fill-rule="nonzero"/><circle cx="51.3" cy="54.24" r="1.18" fill="#a06426" fill-rule="nonzero"/><circle cx="50.13" cy="54.24" r="1.18" fill="#a06426" fill-rule="nonzero"/><circle cx="43.32" cy="46.52" r="1.18" fill="#a06426" fill-rule="nonzero"/><circle cx="53.14" cy="43.64" r="1.18" fill="#a06426" fill-rule="nonzero"/><circle cx="47.77" cy="47.3" r="1.18" fill="#a06426" fill-rule="nonzero"/><circle cx="53.27" cy="52.27" r="1.18" fill="#a06426" fill-rule="nonzero"/><circle cx="47.9" cy="50.7" r="1.18" fill="#a06426" fill-rule="nonzero"/><circle cx="53.79" cy="43.51" r="1.18" fill="#a06426" fill-rule="nonzero"/><circle cx="45.55" cy="49.13" r="1.18" fill="#a06426" fill-rule="nonzero"/><circle cx="85.99" cy="32.38" r="1.18" fill="#a06426" fill-rule="nonzero"/><circle cx="98.42" cy="29.63" r="1.18" fill="#a06426" fill-rule="nonzero"/><circle cx="90.18" cy="26.23" r="1.18" fill="#a06426" fill-rule="nonzero"/><circle cx="101.04" cy="24.53" r="1.18" fill="#a06426" fill-rule="nonzero"/><circle cx="88.47" cy="27.41" r="1.18" fill="#a06426" fill-rule="nonzero"/><circle cx="98.29" cy="24.53" r="1.18" fill="#a06426" fill-rule="nonzero"/><circle cx="88.87" cy="21.26" r="1.18" fill="#a06426" fill-rule="nonzero"/><circle cx="92.92" cy="28.19" r="1.18" fill="#a06426" fill-rule="nonzero"/><circle cx="84.94" cy="25.58" r="1.18" fill="#a06426" fill-rule="nonzero"/><circle cx="86.12" cy="26.62" r="1.18" fill="#a06426" fill-rule="nonzero"/><circle cx="112.69" cy="21.39" r="1.18" fill="#a06426" fill-rule="nonzero"/><circle cx="107.19" cy="26.1" r="1.18" fill="#a06426" fill-rule="nonzero"/><circle cx="106.01" cy="21.39" r="1.18" fill="#a06426" fill-rule="nonzero"/><circle cx="115.83" cy="18.51" r="1.18" fill="#a06426" fill-rule="nonzero"/><circle cx="106.4" cy="15.24" r="1.18" fill="#a06426" fill-rule="nonzero"/><circle cx="110.46" cy="22.17" r="1.18" fill="#a06426" fill-rule="nonzero"/><circle cx="121.98" cy="23.74" r="1.18" fill="#a06426" fill-rule="nonzero"/><circle cx="115.3" cy="26.75" r="1.18" fill="#a06426" fill-rule="nonzero"/><circle cx="120.15" cy="19.55" r="1.18" fill="#a06426" fill-rule="nonzero"/><circle cx="117.92" cy="20.34" r="1.18" fill="#a06426" fill-rule="nonzero"/><circle cx="102.48" cy="19.55" r="1.18" fill="#a06426" fill-rule="nonzero"/><circle cx="103.66" cy="20.6" r="1.18" fill="#a06426" fill-rule="nonzero"/><circle cx="113.87" cy="5.68" r="1.18" fill="#a06426" fill-rule="nonzero"/><circle cx="119.36" cy="11.96" r="1.18" fill="#a06426" fill-rule="nonzero"/><circle cx="117.66" cy="13.14" r="1.18" fill="#a06426" fill-rule="nonzero"/><circle cx="118.05" cy="6.99" r="1.18" fill="#a06426" fill-rule="nonzero"/><circle cx="122.11" cy="13.93" r="1.18" fill="#a06426" fill-rule="nonzero"/><circle cx="114.13" cy="11.31" r="1.18" fill="#a06426" fill-rule="nonzero"/><circle cx="115.3" cy="12.36" r="1.18" fill="#a06426" fill-rule="nonzero"/><circle cx="93.06" cy="31.6" r="1.18" fill="#a06426" fill-rule="nonzero"/><circle cx="98.94" cy="24.4" r="1.18" fill="#a06426" fill-rule="nonzero"/><circle cx="90.7" cy="30.03" r="1.18" fill="#a06426" fill-rule="nonzero"/><circle cx="17.93" cy="51.1" r="1.18" fill="#a06426" fill-rule="nonzero"/><circle cx="12.3" cy="42.46" r="1.18" fill="#a06426" fill-rule="nonzero"/><circle cx="9.95" cy="48.48" r="1.18" fill="#a06426" fill-rule="nonzero"/><circle cx="11.12" cy="49.53" r="1.18" fill="#a06426" fill-rule="nonzero"/><circle cx="18.06" cy="54.5" r="1.18" fill="#a06426" fill-rule="nonzero"/><circle cx="14.66" cy="42.46" r="1.18" fill="#a06426" fill-rule="nonzero"/><circle cx="23.95" cy="47.3" r="1.18" fill="#a06426" fill-rule="nonzero"/><circle cx="15.71" cy="52.93" r="1.18" fill="#a06426" fill-rule="nonzero"/><circle cx="41.36" cy="39.06" r="1.18" fill="#a06426" fill-rule="nonzero"/><circle cx="45.81" cy="36.05" r="1.18" fill="#a06426" fill-rule="nonzero"/><circle cx="46.33" cy="27.28" r="1.18" fill="#a06426" fill-rule="nonzero"/><circle cx="54.31" cy="32.9" r="1.18" fill="#a06426" fill-rule="nonzero"/><circle cx="42.8" cy="29.37" r="1.18" fill="#a06426" fill-rule="nonzero"/><circle cx="42.8" cy="36.05" r="1.18" fill="#a06426" fill-rule="nonzero"/><circle cx="44.63" cy="28.32" r="1.18" fill="#a06426" fill-rule="nonzero"/><circle cx="48.95" cy="38.79" r="1.18" fill="#a06426" fill-rule="nonzero"/><circle cx="42.67" cy="29.76" r="1.18" fill="#a06426" fill-rule="nonzero"/><circle cx="37.04" cy="28.59" r="1.18" fill="#a06426" fill-rule="nonzero"/><circle cx="41.49" cy="20.86" r="1.18" fill="#a06426" fill-rule="nonzero"/><circle cx="35.08" cy="8.3" r="1.18" fill="#a06426" fill-rule="nonzero"/><circle cx="27.09" cy="5.68" r="1.18" fill="#a06426" fill-rule="nonzero"/><circle cx="28.27" cy="6.73" r="1.18" fill="#a06426" fill-rule="nonzero"/><circle cx="32.85" cy="10.13" r="1.18" fill="#a06426" fill-rule="nonzero"/><circle cx="17.54" cy="12.09" r="1.18" fill="#a06426" fill-rule="nonzero"/><circle cx="27.88" cy="8.69" r="1.18" fill="#a06426" fill-rule="nonzero"/><circle cx="24.34" cy="5.81" r="1.18" fill="#a06426" fill-rule="nonzero"/><circle cx="24.47" cy="9.22" r="1.18" fill="#a06426" fill-rule="nonzero"/><circle cx="22.12" cy="7.64" r="1.18" fill="#a06426" fill-rule="nonzero"/><circle cx="29.45" cy="11.96" r="1.18" fill="#a06426" fill-rule="nonzero"/><circle cx="42.67" cy="21.91" r="1.18" fill="#a06426" fill-rule="nonzero"/><circle cx="41.36" cy="32.51" r="1.18" fill="#a06426" fill-rule="nonzero"/><circle cx="36.12" cy="31.46" r="1.18" fill="#a06426" fill-rule="nonzero"/><circle cx="36.65" cy="22.7" r="1.18" fill="#a06426" fill-rule="nonzero"/><circle cx="44.63" cy="28.32" r="1.18" fill="#a06426" fill-rule="nonzero"/><circle cx="33.11" cy="24.79" r="1.18" fill="#a06426" fill-rule="nonzero"/><circle cx="33.11" cy="31.46" r="1.18" fill="#a06426" fill-rule="nonzero"/><circle cx="34.94" cy="23.74" r="1.18" fill="#a06426" fill-rule="nonzero"/><circle cx="39.26" cy="34.21" r="1.18" fill="#a06426" fill-rule="nonzero"/><circle cx="13.48" cy="42.46" r="1.18" fill="#a06426" fill-rule="nonzero"/><circle cx="6.67" cy="34.74" r="1.18" fill="#a06426" fill-rule="nonzero"/><path stroke="#333" stroke-linejoin="round" d="M0 0h128v82.31H0z"/><path fill="#a06426" fill-rule="nonzero" d="M35.52 4.37c-1.84 1.85-2.51 7.58-2.28 7.59h5.38l-.95-2.53-1-3.16zM29.93 27.5a6.8 6.8 0 0 0-.85 3.76l3-.37-.37-1.45-.21-1.09zM7.21 70.77c-1.47 1.47-2 6-1.82 6.07h4.3l-.76-2-.81-2.53zm22.65-13.24c-2.61 2.61-3 5.75-2.71 5.77h7.6l.88-4.56-3.19-.59zm27.4-26.13c-2.37 1.48-2.87 8.69-2.58 8.7h6.93l-.87-3-1.39-1.56zm-3.98 28.07c-1.76 1.1-2.12 6.42-1.91 6.43h5.12l-.64-2.18-1-1.16zm50.06-4.19c-2.08 1.29-2.51 7.61-2.26 7.62h6.07l-.76-2.59-1.22-1.37zM46 19.15a8.1 8.1 0 0 0-1 4.4h3.56l-.3-2-1-1.7zm25.73 29.46c1.8 1.81-.43 7.76-.65 7.78h-5.26l.93-2.48 1-3.09zM105 68.15c-1.87 1.88.45 8.09.68 8.11h5.48l-1-2.58-1-3.23zM92.09 41.36c-1.67-1.67-6.87-2.27-6.88-2.07v4.86l2.29-.86 2.87-.91zm-8.51 5.32c-1.79 1.79-2.28 6.22-2.07 6.24h5.21l-.64-2.7-.84-2.92z"/><path fill="#a06426" fill-rule="nonzero" d="M69.77 57.15a4.9 4.9 0 0 0 2 3.27l2.47-2.11-1.42-2h-2.1zm-4.38 6.58c-1.21 1.22-1.65 5-1.5 5h3.55l-.62-1.67-.67-2.09zm29.38 4.16c-1.48 1.48-2 6.09-1.83 6.1h4.32l-.76-2-.81-2.54zm22.84-24.52c-1.33 2.45-1.61 6.78-1.38 6.78h5l-.88-2.35-1.54-2zm-6.27-25.44c-1.12 1.13-1.52 4.62-1.38 4.63l4-.13-.65-1.84-1.31-1.5zm-13.41 2.84c-1.8 1.8-2.44 7.4-2.22 7.41H101l-1-2.47-1-3.09zm17.39-15.79c-1.65 1.65-2.24 6.79-2 6.81h4.82l-.85-2.27-.91-2.84zm-98.11 5.86c-2.49.52-4.58 4.82-4.4 5l4.38 2.88 1.28-1.29z"/></g></svg>