<svg xmlns="http://www.w3.org/2000/svg" xml:space="preserve" id="图层_1" x="0" y="0" viewBox="0 0 44 129"><style>.st0{fill:#fff}</style><g id="页面-1"><g id="消弧线圈"><path d="M21.28 0h1v25.5h-1zm0 83.7h1v25.5h-1z" class="st0"/><path d="M21.78 40.3v-1c1.6 0 3.2-.6 4.3-1.8 1.3-1.4 1.9-3.3 1.8-5.5-.1-3.3-2.8-5.8-6.1-5.8v-1c3.8 0 6.9 3 7 6.7.1 2.5-.6 4.7-2 6.3-1.3 1.4-3.1 2.1-5 2.1" class="st0"/><path d="M21.78 54.5v-1c1.6 0 3.2-.6 4.3-1.8 1.3-1.4 1.9-3.3 1.8-5.5-.1-3.3-2.8-5.8-6.1-5.8v-1c3.8 0 6.9 3 7.1 6.7.1 2.5-.6 4.7-2 6.3-1.4 1.3-3.2 2.1-5.1 2.1" class="st0"/><path d="M21.78 69.2v-1c1.6 0 3.1-.6 4.2-1.8 1.3-1.4 1.9-3.3 1.8-5.5-.1-3.3-2.8-5.8-6-5.8v-1c3.8 0 6.9 3 7 6.7.1 2.5-.6 4.7-2.1 6.3-1.2 1.4-3 2.1-4.9 2.1" class="st0"/><path d="M21.78 84v-1c1.6 0 3.2-.6 4.3-1.8 1.3-1.4 1.9-3.3 1.8-5.5-.1-3.3-2.8-5.8-6.1-5.8v-1c3.8 0 6.9 3 7.1 6.7.1 2.5-.6 4.7-2.1 6.3-1.3 1.3-3.1 2.1-5 2.1M.38 109.2h43.2v1H.38zm8.3 9.6h28.9v1H8.68zm4.9 9h19.2v1h-19.2z" class="st0"/></g></g></svg>