<svg xmlns="http://www.w3.org/2000/svg" xml:space="preserve" id="图层_1" x="0" y="0" viewBox="0 0 49 129"><style>.st0{fill:#fff}</style><g id="页面-1"><g id="熔断式隔离开关_xFF08_合_xFF09_"><path d="M29.128 94.56h1v34h-1z" class="st0"/><path d="m5.371 43.484.909-.418L30.1 94.851l-.908.418z" class="st0"/><path d="M18.528 92.56c-.2 0-.4-.1-.5-.3l-17-36c-.1-.2 0-.5.2-.7l14.3-6.8c.1-.1.3-.1.4 0q.15 0 .3.3l17 36c.1.1.1.3 0 .4s-.1.2-.3.3l-14.3 6.8zm-16.3-36.2 16.5 35.1 13.4-6.3-16.5-35.2zm24.4-55.7h1v42.6h-1z" class="st0"/><path d="M5.828 42.76h42.6v1h-42.6z" class="st0"/></g></g></svg>