<svg xmlns="http://www.w3.org/2000/svg" xml:space="preserve" id="图层_1" x="0" y="0" viewBox="0 0 39 129"><style>.st0{fill:#fff}</style><g id="页面-1"><g id="熔断式开关_xFF08_分_xFF09_"><path d="M37.51 0h1v45.1h-1zm-.5 94.6h1v34h-1z" class="st0"/><path d="m1.204 51.31.774-.633L38.02 94.835l-.775.632z" class="st0"/><path d="M26.01 95.6c-.2 0-.3-.1-.4-.2L.21 64.8c-.2-.2-.1-.5.1-.7L12.51 54c.1-.1.2-.1.4-.1.1 0 .3.1.3.2l25.4 30.5c.2.2.1.5-.1.7l-12.1 10.2c-.1 0-.2.1-.4.1m-24.7-31 24.8 29.8 11.4-9.5-24.8-29.8z" class="st0"/></g></g></svg>