<svg xmlns="http://www.w3.org/2000/svg" xml:space="preserve" id="图层_1" x="0" y="0" viewBox="0 0 49 129"><style>.st0{fill:#fff}</style><g id="页面-1"><g id="熔断式负荷开关_xFF08_合_xFF09_"><path d="M28.979 94.63h1v34h-1z" class="st0"/><path d="m5.222 43.547.908-.418 23.826 51.779-.908.418z" class="st0"/><path d="M18.379 92.63c-.2 0-.4-.1-.5-.3l-17-36c-.1-.2 0-.5.2-.7l14.3-6.8c.1-.1.3-.1.4 0q.15 0 .3.3l17 36c.1.1.1.3 0 .4s-.1.2-.3.3l-14.3 6.8zm-16.3-36.2 16.5 35.1 13.4-6.3-16.5-35.2zm24.4-55.7h1v42.6h-1z" class="st0"/><path d="M5.679 42.83h42.6v1h-42.6zm21.3 19c-5 0-9-4-9-9s4-9 9-9 9 4 9 9-4 9-9 9m0-17c-4.4 0-8 3.6-8 8s3.6 8 8 8 8-3.6 8-8-3.6-8-8-8" class="st0"/></g></g></svg>