<svg xmlns="http://www.w3.org/2000/svg" xml:space="preserve" id="图层_1" x="0" y="0" viewBox="0 0 53 134"><style>.st0{fill:#fff}</style><g id="页面-1"><g id="熔断式断路器_xFF08_分_xFF09_"><path d="M40.776.04h1v44.7h-1z" class="st0"/><path d="m30.09 54.872 21.496-21.496.707.708-21.496 21.495z" class="st0"/><path d="m30.16 34.014.708-.708 21.496 21.496-.708.707zm11.616 68.726h1v31.1h-1z" class="st0"/><path d="m1.354 53.237.774-.632 40.468 49.587-.775.633z" class="st0"/><path d="M30.876 102.54c-.2 0-.3-.1-.4-.2l-29.9-34.5c-.2-.2-.2-.5.1-.7l13.8-11.9c.1-.1.2-.1.4-.1.1 0 .3.1.3.2l29.9 34.6c.2.2.2.5-.1.7l-13.8 11.9zm-29.2-35 29.3 33.8 13-11.3-29.3-33.8z" class="st0"/></g></g></svg>