<svg xmlns="http://www.w3.org/2000/svg" xml:space="preserve" id="图层_1" x="0" y="0" viewBox="0 0 128 128"><style>.st0{fill:#fff}</style><g id="页面-1"><g id="环网箱式变"><path id="形状" d="M127 1v126H1V1zm1-1H0v128h128z" class="st0"/><path id="路径" d="M57.7 62.2V37.8h1.5v52.4h-1.5V63.7H25.3v26.5h-1.5V37.8h1.5v24.4z" class="st0"/><path id="形状_1_" d="M90.3 62.7q6.45.75 10.2 4.2c2.5 2.3 3.8 5.6 3.7 8.9.2 4.3-1.9 8.3-5.4 10.6-3.6 2.5-8.8 3.7-15.5 3.7H71V37.8h12.1c5.9 0 10.4 1.1 13.5 3.2s4.9 5.6 4.7 9.3c0 3-1 5.8-3 8-2.1 2.3-4.9 3.8-8 4.3zM72.5 39.2V62h12.4c4.6 0 8.2-1 10.9-3.1 2.6-2 4.1-5.2 4-8.5.1-3.3-1.5-6.5-4.4-8.3-2.9-1.9-7.1-2.9-12.6-2.9zm10.4 49.6q9.45 0 14.7-3.3c3.3-2 5.3-5.7 5.1-9.6.2-3.7-1.6-7.2-4.7-9.2-3.2-2.1-7.5-3.2-13.1-3.2H72.5v25.3z" class="st0"/></g></g></svg>