<svg xmlns="http://www.w3.org/2000/svg" xml:space="preserve" id="图层_1" x="0" y="0" viewBox="0 0 46 129"><style>.st0{fill:#fff}</style><g id="页面-1"><g id="电力电阻器"><path d="M44.67 113.07H1.37c-.3 0-.5-.2-.5-.5v-96.6c0-.3.2-.5.5-.5h43.2c.3 0 .5.2.5.5v96.6c.1.3-.2.5-.4.5m-42.8-1h42.2v-95.6H1.87z" class="st0"/><path d="m10.91.272 1-.004.12 34.5-1 .004zM33.67 34.27h1v11h-1zm-22.7 12h1v11h-1zm0 22.5h1v14.5h-1z" class="st0"/><path d="M11.37 34.27h23.2v1h-23.2zm0 11h23.2v1h-23.2zm22.3 13h1v11h-1z" class="st0"/><path d="M11.37 57.37h23.2v1h-23.2zm0 11h23.2v1h-23.2zm22.3 14.9h1v11h-1z" class="st0"/><path d="M11.37 82.47h23.2v1h-23.2zm0 11.5h23.2v1h-23.2z" class="st0"/><path d="M10.87 94.77h1v33.5h-1z" class="st0"/></g></g></svg>