<svg xmlns="http://www.w3.org/2000/svg" xml:space="preserve" id="图层_1" x="0" y="0" viewBox="0 0 128 130"><style>.st0{fill:#fff}</style><g id="页面-1"><g id="电容式电压互感器"><path d="M83.7 63.67c-17.4 0-31.5-14.1-31.5-31.5S66.4.77 83.7.77s31.5 14.1 31.5 31.5-14.1 31.4-31.5 31.4m0-61.9c-16.8 0-30.4 13.7-30.4 30.5s13.7 30.5 30.5 30.5 30.5-13.7 30.5-30.5-13.7-30.5-30.6-30.5" class="st0"/><path d="M44.1 63.67c-17.4 0-31.5-14.1-31.5-31.5S26.7.77 44.1.77s31.4 14.1 31.4 31.5-14.1 31.4-31.4 31.4m0-61.9c-16.8 0-30.5 13.7-30.5 30.5s13.7 30.5 30.5 30.5 30.4-13.7 30.4-30.5-13.6-30.5-30.4-30.5" class="st0"/><path d="M63.7 92.67c-17.4 0-31.5-14.1-31.5-31.5s14.1-31.5 31.5-31.5 31.4 14.2 31.4 31.6-14.1 31.4-31.4 31.4m0-61.9c-16.8 0-30.5 13.7-30.5 30.5s13.7 30.5 30.5 30.5c16.8-.1 30.4-13.7 30.4-30.5s-13.6-30.5-30.4-30.5M.5 116.47h27.2v1H.5zm38.8 0H64v1H39.3zm24.7 0h24.7v1H64zm37.3 0h26.2v1h-26.2z" class="st0"/><path d="M27.3 104.57h1v24.7h-1zm73.5 0h1v24.7h-1zm-62 0h1v24.7h-1zm49.4 0h1v24.7h-1zm-24.7-12.3h1v24.7h-1z" class="st0"/></g></g></svg>