<svg xmlns="http://www.w3.org/2000/svg" xml:space="preserve" id="图层_1" x="0" y="0" viewBox="0 0 128 129"><style>.st0{fill:#fff}</style><g id="页面-1"><g id="电缆终端站"><path d="M127.5 128.37H.5c-.3 0-.5-.2-.5-.5V.87c0-.3.2-.5.5-.5h127c.3 0 .5.2.5.5v127c0 .3-.2.5-.5.5m-126.5-1h126v-126H1z" class="st0"/><path d="M63.5 7.57h1v113.7h-1z" class="st0"/><path d="M19.3 33.77h44.8v1H19.3z" class="st0"/><path d="M64 33.77h5.7v1H64zm7.7 0h5.9v1h-5.9zm31.1 0h5.9v1h-5.9zm-10.4 0h5.9v1h-5.9zm-10.1 0h5.9v1h-5.9zM64 96.37h5.7v1H64zm7.7 0h5.9v1h-5.9zm31.1 0h5.9v1h-5.9zm-10.4 0h5.9v1h-5.9zm-10.1 0h5.9v1h-5.9z" class="st0"/><path d="M19.3 96.37h44.8v1H19.3z" class="st0"/></g></g></svg>