<svg xmlns="http://www.w3.org/2000/svg" xml:space="preserve" id="图层_1" x="0" y="0" viewBox="0 0 128 99"><style>.st0{fill:#fff}</style><g id="页面-1"><g id="电缆交叉互联箱" transform="translate(0 .74)"><path id="形状" d="M112.2 1v95.3H16.9V1zm1-1H15.9v97.3h97.3z" class="st0"/><path d="m43.16 27.5.715-.699 41.992 42.996-.715.699z" class="st0"/><path d="m43.124 69.756 42.001-42.001.707.707-42.001 42.001zM24.1 27h19.4v1H24.1zm61.5 43H105v1H85.6zm0-43H105v1H85.6z" class="st0"/><path d="M24.1 70h19.4v1H24.1zM0 48.1h16.5v1H0zm112.5 0H128v1h-15.5z" class="st0"/></g></g></svg>