<svg xmlns="http://www.w3.org/2000/svg" xml:space="preserve" id="图层_1" x="0" y="0" viewBox="0 0 128 78"><style>.st0{fill:#fff}</style><g id="页面-1"><g id="电缆防火墙"><path d="M127.5 77.94H.5c-.3 0-.5-.2-.5-.5v-76c0-.3.2-.5.5-.5h127c.3 0 .5.2.5.5v76c0 .3-.2.5-.5.5M1 76.94h126v-75H1z" class="st0"/><path d="M20.8 1.04h1v22.8h-1zm21.4 22.5h1v29h-1zm42.6.3h1v28.7h-1z" class="st0"/><path d="M0 23.34h128v1H0z" class="st0"/><path d="M106.2 1.04h1v22.8h-1zm-39.7 0h1v22.8h-1zm-45.7 51.2h1v25.5h-1z" class="st0"/><path d="M0 51.74h128v1H0z" class="st0"/><path d="M106.2 52.24h1v25.5h-1zm-39.7 0h1v25.5h-1z" class="st0"/></g></g></svg>