<svg xmlns="http://www.w3.org/2000/svg" xml:space="preserve" id="图层_1" x="0" y="0" viewBox="0 0 128 61"><style>.st0{fill:#fff}</style><g id="页面-1"><g id="电缆排管"><path d="M15.6 59.87c-7.3 0-13.2-13.2-13.2-29.5S8.3.87 15.6.87s13.3 13.2 13.3 29.5-6 29.5-13.3 29.5m0-58c-6.7 0-12.2 12.8-12.2 28.5s5.5 28.5 12.2 28.5 12.3-12.8 12.3-28.5-5.5-28.5-12.3-28.5m48.4 58c-7.3 0-13.2-13.2-13.2-29.5S56.7.87 64 .87s13.2 13.2 13.2 29.5-5.9 29.5-13.2 29.5m0-58c-6.8 0-12.2 12.8-12.2 28.5s5.4 28.5 12.2 28.5 12.2-12.8 12.2-28.5S70.8 1.87 64 1.87m48.2 58c-7.3 0-13.2-13.2-13.2-29.5S104.9.87 112.2.87s13.2 13.2 13.2 29.5-5.8 29.5-13.2 29.5m0-58c-6.7 0-12.2 12.8-12.2 28.5s5.5 28.5 12.2 28.5 12.2-12.8 12.2-28.5-5.4-28.5-12.2-28.5" class="st0"/><path d="M0 .37h128v1H0zm0 59h128v1H0z" class="st0"/></g></g></svg>