<svg xmlns="http://www.w3.org/2000/svg" xml:space="preserve" id="图层_1" x="0" y="0" viewBox="0 0 128 129"><style>.st0{fill:#fff}</style><g id="页面-1"><g id="电缆分界线" transform="translate(0 .37)"><path id="形状" d="M127 1v126H1V1zm1-1H0v128h128z" class="st0"/><path id="路径" d="M42.1 64.1v25.7h-1.6V37.3h28.9v1.4H42.1v24h25.4v1.4z" class="st0"/><path id="路径_1_" d="M71.1 88.7c-1.8-1.5-3-3.5-3.3-5.8l1.5-.5c.3 2 1.3 3.8 2.8 5.1 1.5 1.2 3.5 1.9 5.4 1.8 2.4.1 4.7-.9 6.2-2.8 1.4-1.9 2.2-4.5 2.2-8V37.3h1.5v41.4c0 3.9-.8 6.9-2.5 8.9-1.8 2.1-4.5 3.3-7.3 3.1-2.3.1-4.6-.6-6.5-2" class="st0"/></g></g></svg>