<svg xmlns="http://www.w3.org/2000/svg" xml:space="preserve" id="图层_1" x="0" y="0" viewBox="0 0 130 111"><style>.st0{fill:#fff}</style><g id="页面-1"><g id="电缆通风口"><path d="M129 59.06H1c-.2 0-.4-.1-.5-.3s0-.4.1-.6l64-57.5c.2-.2.5-.2.7 0l64 57.5c.2.1.2.4.1.6s-.2.3-.4.3m-126.7-1h125.4L65 1.76z" class="st0"/><path d="M103.3 110.16H26.7c-.3 0-.5-.2-.5-.5v-51.1c0-.3.2-.5.5-.5h76.6c.3 0 .5.2.5.5v51.1c0 .3-.2.5-.5.5m-76.1-1h75.6v-50.1H27.2z" class="st0"/><path d="M49.8 97.36H39.5c-.3 0-.5-.2-.5-.5v-25.5c0-.3.2-.5.5-.5h10.2c.3 0 .5.2.5.5v25.5c.1.3-.2.5-.4.5m-9.8-1h9.2v-24.5H40z" class="st0"/><path d="M60 97.36H49.8c-.3 0-.5-.2-.5-.5v-25.5c0-.3.2-.5.5-.5H60c.3 0 .5.2.5.5v25.5c0 .3-.2.5-.5.5m-9.7-1h9.2v-24.5h-9.2z" class="st0"/><path d="M70.3 97.36H60c-.3 0-.5-.2-.5-.5v-25.5c0-.3.2-.5.5-.5h10.2c.3 0 .5.2.5.5v25.5c.1.3-.2.5-.4.5m-9.8-1h9.2v-24.5h-9.2z" class="st0"/><path d="M80.5 97.36H70.3c-.3 0-.5-.2-.5-.5v-25.5c0-.3.2-.5.5-.5h10.2c.3 0 .5.2.5.5v25.5c0 .3-.2.5-.5.5m-9.7-1H80v-24.5h-9.2z" class="st0"/><path d="M90.8 97.36H80.5c-.3 0-.5-.2-.5-.5v-25.5c0-.3.2-.5.5-.5h10.2c.3 0 .5.2.5.5v25.5c.1.3-.2.5-.4.5m-9.8-1h9.2v-24.5H81z" class="st0"/></g></g></svg>