<svg xmlns="http://www.w3.org/2000/svg" xml:space="preserve" id="图层_1" x="0" y="0" viewBox="0 0 129 81"><style>.st0{fill:#fff}</style><g id="页面-1"><g id="盗窃多发区"><path d="M128.5 80.05H.5c-.3 0-.5-.2-.5-.5V.95c0-.3.2-.5.5-.5h128c.3 0 .5.2.5.5v78.6c0 .3-.2.5-.5.5M1 79.05h127V1.45H1z" class="st0"/><path d="M115.1 71.05h-.6v-1h.6zm-2.6 0h-2v-1h2zm-4 0h-2v-1h2zm-4 0h-2v-1h2zm-4 0h-2v-1h2zm-4 0h-2v-1h2zm-4 0h-2v-1h2zm-4 0h-2v-1h2zm-4 0h-2v-1h2zm-4 0h-2v-1h2zm-4 0h-2v-1h2zm-4 0h-2v-1h2zm-4 0h-2v-1h2z" class="st0"/><path d="M115.3 70.35h-1v-.6h1zm0-2.6h-1v-2h1zm0-4h-1v-2h1zm0-4h-1v-2h1zm0-4h-1v-2h1zm0-4h-1v-2h1zm0-4h-1v-2h1zm0-4h-1v-2h1zm0-4h-1v-2h1zm0-4h-1v-2h1zm0-4h-1v-2h1zm0-4h-1v-2h1zm0-4h-1v-2h1zm-54.9 35.1h11v1h-11z" class="st0"/><path d="M65 65.15c-2.6 0-4.8-2.1-4.8-4.8v-2.6c0-2.6 2.1-4.8 4.8-4.8s4.8 2.1 4.8 4.8v2.6c-.1 2.6-2.2 4.8-4.8 4.8m0-11.2c-2.1 0-3.8 1.7-3.8 3.8v2.6c0 2.1 1.7 3.8 3.8 3.8s3.8-1.7 3.8-3.8v-2.6c-.1-2.1-1.7-3.8-3.8-3.8" class="st0"/><g transform="translate(.5 .95)"><path id="路径_4_" d="M64.5 52.5c-2.3 0-4.2 1.9-4.2 4.2v1.6h8.5v-1.6c0-2.2-2-4.2-4.3-4.2" class="st0"/><path d="M68.8 58.9h-8.5c-.3 0-.5-.2-.5-.5v-1.6c0-2.6 2.1-4.8 4.8-4.8s4.8 2.1 4.8 4.8v1.6c-.2.3-.4.5-.6.5m-8-1h7.5v-1.1c0-2.1-1.7-3.8-3.8-3.8s-3.8 1.7-3.8 3.8v1.1z" class="st0"/></g><path d="M64.5 51.85h1v2.9h-1zm34.8-30.9h11v1h-11z" class="st0"/><path d="M103.9 27.25c-2.6 0-4.8-2.1-4.8-4.8v-2.6c0-2.6 2.1-4.7 4.8-4.7s4.8 2.1 4.8 4.7v2.6c-.1 2.7-2.2 4.8-4.8 4.8m0-11.1c-2.1 0-3.8 1.7-3.8 3.7v2.6c0 2.1 1.7 3.8 3.8 3.8s3.8-1.7 3.8-3.8v-2.6c-.1-2-1.8-3.7-3.8-3.7" class="st0"/><g transform="translate(.5 .95)"><path id="路径_7_" d="M103.4 14.7c-2.3 0-4.2 1.9-4.2 4.2v1.6h8.5v-1.6c0-1.1-.4-2.2-1.2-3-.9-.8-2-1.2-3.1-1.2" class="st0"/><path d="M107.6 21h-8.5c-.3 0-.5-.2-.5-.5v-1.6c0-2.6 2.1-4.7 4.7-4.7 1.3 0 2.5.5 3.3 1.4.9.9 1.4 2.1 1.4 3.4v1.6c.1.2-.1.4-.4.4m-8-1h7.5v-1.1c0-1-.4-2-1.1-2.6-.7-.7-1.6-1.1-2.6-1.1-2.1 0-3.7 1.7-3.8 3.7z" class="st0"/></g><path d="M103.4 14.05h1v2.9h-1zM6.7 65.25h11v1h-11z" class="st0"/><path d="M11.4 71.55c-2.6 0-4.8-2.1-4.8-4.8v-2.6c0-2.6 2.1-4.8 4.8-4.8s4.8 2.1 4.8 4.8v2.6c-.1 2.6-2.2 4.8-4.8 4.8m0-11.2c-2.1 0-3.8 1.7-3.8 3.8v2.6c0 2.1 1.7 3.8 3.8 3.8s3.8-1.7 3.8-3.8v-2.6c-.1-2.1-1.8-3.8-3.8-3.8" class="st0"/><g transform="translate(.5 .95)"><path id="路径_10_" d="M10.9 58.9c-2.3 0-4.2 1.9-4.2 4.2v1.6h8.5v-1.6c0-1.1-.4-2.2-1.2-3-.9-.7-2-1.2-3.1-1.2" class="st0"/><path d="M15.1 65.3H6.6c-.3 0-.5-.2-.5-.5v-1.6c0-2.6 2.1-4.7 4.7-4.8 1.3 0 2.5.5 3.4 1.4s1.4 2.1 1.4 3.4v1.6c0 .3-.2.5-.5.5m-8-1h7.5v-1.1c0-1-.4-1.9-1.1-2.7-.7-.7-1.6-1.1-2.7-1.1-2.1 0-3.7 1.7-3.8 3.8v1.1z" class="st0"/></g><path d="M10.9 58.25h1v2.9h-1zm17.5-42.2h11v1h-11z" class="st0"/><path d="M33 22.25c-2.6 0-4.8-2.1-4.8-4.8v-2.6c0-2.6 2.1-4.8 4.8-4.8s4.8 2.1 4.8 4.8v2.6c-.1 2.7-2.2 4.8-4.8 4.8m0-11.1c-2.1 0-3.8 1.7-3.8 3.8v2.6c0 2.1 1.7 3.8 3.8 3.8s3.8-1.7 3.8-3.8v-2.6c-.1-2.1-1.7-3.8-3.8-3.8" class="st0"/><g transform="translate(.5 .95)"><path id="路径_13_" d="M32.5 9.7c-1.1 0-2.2.4-3 1.2s-1.2 1.9-1.2 3v1.6h8.5v-1.6c0-1.1-.4-2.2-1.2-3-.9-.8-2-1.2-3.1-1.2" class="st0"/><path d="M36.8 16h-8.5c-.3 0-.5-.2-.5-.5v-1.6c0-1.3.5-2.5 1.4-3.4s2.1-1.4 3.3-1.4c1.3 0 2.5.5 3.3 1.4.9.9 1.4 2.1 1.4 3.4v1.6c0 .3-.2.5-.4.5m-8-.9h7.5V14c0-1-.4-1.9-1.1-2.6s-1.6-1.1-2.6-1.1-1.9.4-2.6 1.1-1.1 1.6-1.1 2.6v1.1z" class="st0"/></g><path d="M32.5 9.05h1v2.9h-1z" class="st0"/></g></g></svg>