<svg xmlns="http://www.w3.org/2000/svg" xml:space="preserve" id="图层_1" x="0" y="0" viewBox="0 0 104 129"><style>.st0{fill:#fff}</style><g id="页面-1"><g id="盘留"><path d="M52 128.81c-28.4 0-51.4-23.1-51.4-51.4s23-51.5 51.4-51.5 51.4 23.1 51.4 51.4-23 51.5-51.4 51.5m0-101.9c-27.8 0-50.4 22.6-50.4 50.4s22.6 50.4 50.4 50.4 50.4-22.6 50.4-50.4-22.6-50.4-50.4-50.4" class="st0"/><path d="M.5 72.11c0-32.3 20.6-61 51.3-71.4l.3.9c-30.3 10.3-50.6 38.6-50.6 70.5zM52 96.51c-10.6 0-19.2-8.6-19.2-19.2s8.6-19.2 19.2-19.2 19.2 8.6 19.2 19.2-8.6 19.2-19.2 19.2m0-37.4c-10 0-18.2 8.2-18.2 18.2S42 95.51 52 95.51s18.2-8.2 18.2-18.2S62 59.11 52 59.11" class="st0"/><path d="M52 115.21c-20.9 0-37.9-17-37.9-37.9s17-37.9 37.9-37.9 37.9 17 37.9 37.9-17 37.9-37.9 37.9m0-74.8c-20.3 0-36.9 16.5-36.9 36.9s16.6 36.9 36.9 36.9 36.9-16.5 36.9-36.9c0-20.3-16.6-36.9-36.9-36.9" class="st0"/></g></g></svg>