<svg xmlns="http://www.w3.org/2000/svg" viewBox="0 0 130 130"><title>禁止遥控</title><g fill="none" fill-rule="evenodd"><path stroke="#fd211c" stroke-linejoin="round" d="M1 1h128v128H1z"/><path fill="#fd211c" fill-rule="nonzero" d="M89.42 90.26a22.85 22.85 0 0 1-8.58 6.64 27.15 27.15 0 0 1-11.31 2.33A27.93 27.93 0 0 1 54.09 95 27.25 27.25 0 0 1 44 83a44.2 44.2 0 0 1-3.52-18.35A42.5 42.5 0 0 1 44 46.7a26.8 26.8 0 0 1 10.09-11.8 28.4 28.4 0 0 1 15.44-4.13 26 26 0 0 1 10.74 2.33 28.8 28.8 0 0 1 9.24 6.64l-1.41 1.32a26 26 0 0 0-8.54-6.16 24 24 0 0 0-10-2.28 26.13 26.13 0 0 0-14.39 3.91 25.4 25.4 0 0 0-9.41 11.13 40.6 40.6 0 0 0-3.3 17 42.4 42.4 0 0 0 3.3 17.42 25.5 25.5 0 0 0 9.41 11.35 25.9 25.9 0 0 0 14.39 4q11.88 0 18.48-8.53z"/></g></svg>