<svg xmlns="http://www.w3.org/2000/svg" xml:space="preserve" id="图层_1" x="0" y="0" viewBox="0 0 128 129"><style>.st0{fill:#fff}</style><g id="页面-1"><g id="箱式变" transform="translate(0 .25)"><path id="形状" d="M127 1v126H1V1zm1-1H0v128h128z" class="st0"/><path id="路径" d="m44.8 62.6 17.3 27.6h-2L43.8 63.7 27.5 90.2h-2l17.4-27.7-16.1-24.7h1.8L44 61.4l15-23.6h1.9z" class="st0"/><path id="形状_1_" d="M88.6 62.7c4.3.5 7.7 1.9 10.2 4.3 2.5 2.3 3.8 5.6 3.7 8.9.2 4.2-1.9 8.3-5.4 10.6-3.6 2.5-8.8 3.7-15.5 3.7H69.2V37.8h12.1c5.9 0 10.4 1.1 13.5 3.2s4.9 5.6 4.7 9.3c0 2.9-1 5.8-3 8-2.1 2.3-4.9 3.8-8 4.3zM70.7 39.2V62h12.4c4.6 0 8.2-1 10.9-3.1 2.6-2 4.1-5.2 4-8.5.1-3.4-1.5-6.5-4.4-8.3-2.9-1.9-7.1-2.9-12.6-2.9zm10.4 49.6c6.4 0 11.2-1.1 14.7-3.3 3.3-2 5.3-5.7 5.2-9.6.2-3.7-1.6-7.2-4.7-9.2-3.1-2.1-7.5-3.2-13-3.2H70.7v25.3z" class="st0"/></g></g></svg>