<svg xmlns="http://www.w3.org/2000/svg" viewBox="0 0 130 130"><title>缺陷符</title><g fill="none" fill-rule="evenodd" stroke="#fd211c" stroke-linejoin="round"><path d="M1 1.21h128v128H1z"/><path fill="#fd211c" fill-rule="nonzero" d="M57.7 97.21h-1.32v-3.14l-25.44 2.91v-27.9h1.5v26.31l11.44-1.32V61.43H27.25v-1.68h16.63V40.04h-9.59q-3 7.31-5.37 11.79l-1.23-1a118 118 0 0 0 5.59-12.63q2.72-7.31 4.18-12.5l1.58.44q-1.32 4.92-4.14 12.32h24.38v1.58h-13.9v19.71h16.36v1.68H45.38v32.38l11-1.23V68.99h1.32zM80.4 70.4a45.5 45.5 0 0 0 7.79 18.26 57.1 57.1 0 0 0 14.56 14l-.75 1.45a61 61 0 0 1-14.91-14.44 45.6 45.6 0 0 1-8-18.39 45.4 45.4 0 0 1-6.47 18.09 65.6 65.6 0 0 1-14 15.44l-.88-1.41a62.7 62.7 0 0 0 13.82-15.19 42.46 42.46 0 0 0 6.11-17.82H60.51v-1.66h17.34c.11-1.64.17-2.87.17-3.7V43.39H64v-1.68h14.11v-16.1h1.67l-.08 16.1h14.87v27h7.3v1.67zm-1.06-1.67h13.73V43.39H79.7q0 14.07-.18 21.64c0 .83-.06 2.06-.18 3.7Z"/></g></svg>