<svg xmlns="http://www.w3.org/2000/svg" viewBox="0 0 130 130"><title>自切符</title><g fill="none" fill-rule="evenodd"><path stroke="#fd211c" stroke-linejoin="round" d="M1.19.64h128v128h-128z"/><path fill="#fd211c" fill-rule="nonzero" d="m62.37 76.48.8 1.49L42.4 92.84l-1.21-1.14a8.7 8.7 0 0 0 1.18-1.63 2.6 2.6 0 0 0 .22-1.1v-35.9l-12.95 2.29-.18-1.59 13.11-2.29V24.91h1.62v26.31l16.72-3 .28 1.59-17 3v36.7zm-2.72-42.95h41.27q0 9.33-.84 29t-1 22.92l-.18 3.08a16.4 16.4 0 0 1-1.36 6.65 6.86 6.86 0 0 1-3.83 3.34 21.5 21.5 0 0 1-7.39 1H75.84l-.27-1.67h10.56a22 22 0 0 0 6.74-.79 5.42 5.42 0 0 0 3.32-2.81 16 16 0 0 0 1.14-5.89l.44-12.94q1.3-35.37 1.42-40.3h-23.7q-.09.78-.27 8.36l-.26 8.27q-.45 14.78-2.07 23.1a43.4 43.4 0 0 1-5.63 14.79 86 86 0 0 1-12.45 14.78l-1.32-1.28a88 88 0 0 0 12.27-14.43 40.4 40.4 0 0 0 5.43-14.17 154.4 154.4 0 0 0 2-22.79l.61-16.63H59.65z"/></g></svg>