<svg xmlns="http://www.w3.org/2000/svg" xml:space="preserve" id="图层_1" x="0" y="0" viewBox="0 0 54 130"><style>.st0{fill:#fff}</style><g id="页面-1"><g id="自调谐消弧线圈"><path d="M23.5.51h1v25.5h-1zm-.1 83.7h1v25.5h-1z" class="st0"/><path d="M23.9 40.81v-1c1.6 0 3.2-.6 4.3-1.8 1.3-1.4 1.9-3.3 1.8-5.5-.1-3.3-2.8-5.8-6.1-5.8v-1c3.8 0 6.9 3 7 6.7.1 2.5-.6 4.7-2.1 6.3-1.2 1.4-2.9 2.1-4.9 2.1" class="st0"/><path d="M23.9 55.01v-1c1.6 0 3.2-.6 4.3-1.8 1.3-1.4 1.9-3.3 1.8-5.5-.1-3.3-2.8-5.8-6-5.8v-1c3.8 0 6.9 3 7 6.8.1 2.5-.6 4.7-2.1 6.3-1.3 1.2-3 2-5 2" class="st0"/><path d="M23.9 69.71v-1c1.6 0 3.2-.6 4.3-1.8 1.3-1.4 1.9-3.3 1.8-5.5-.1-3.3-2.8-5.8-6.1-5.8v-1c3.8 0 6.9 3 7.1 6.7.1 2.5-.6 4.7-2 6.3q-2.1 2.1-5.1 2.1" class="st0"/><path d="M23.9 84.51v-1c1.6 0 3.2-.6 4.3-1.8 1.3-1.4 1.9-3.3 1.8-5.5-.1-3.3-2.8-5.8-6-5.8v-1c3.8 0 6.9 3 7 6.7.1 2.5-.6 4.7-2.1 6.3-1.3 1.3-3 2.1-5 2.1m-18.3 25.2h43.2v1H5.6zm8.3 9.5h28.9v1H13.9zm4.8 9.1h19.2v1H18.7z" class="st0"/><path d="M.756 119.142 49.773 16.11l.903.43L1.66 119.571z" class="st0"/><g transform="translate(1.2 .51)"><path id="路径_11_" d="M52 9.5 36.2 23.1l15.2 7.3z" class="st0"/><path d="M51.4 30.9h-.2L36 23.7c-.2-.1-.3-.2-.3-.4s0-.3.2-.4L51.7 9.1c.1-.1.3-.2.5-.1s.3.3.3.5l-.6 20.9c0 .2-.1.3-.2.4-.1 0-.2.1-.3.1M37.1 23 51 29.6l.5-19z" class="st0"/></g></g></g></svg>