<svg xmlns="http://www.w3.org/2000/svg" xml:space="preserve" id="图层_1" x="0" y="0" viewBox="0 0 130 130"><style>.st0{fill:#fff}</style><g id="页面-1"><g id="规划串补站"><path d="M65 129.44c-35.5 0-64.4-28.9-64.4-64.4C.6 29.44 29.5.54 65 .54s64.5 28.9 64.5 64.5c0 35.5-28.9 64.4-64.5 64.4m0-127.9c-35 0-63.4 28.5-63.4 63.5s28.5 63.5 63.5 63.5 63.5-28.5 63.5-63.5c-.1-35-28.6-63.5-63.6-63.5" class="st0"/><path d="M98.7 65.04h30.1v1H98.7zM1 64.54h30.5v1H1z" class="st0"/><path d="m30.973 119.12.214-109.3 1 .001-.214 109.3zM97.7 9.94h1v110.2h-1z" class="st0"/></g></g></svg>