<svg xmlns="http://www.w3.org/2000/svg" xml:space="preserve" id="图层_1" x="0" y="0" viewBox="0 0 129 130"><style>.st0{fill:#fff}</style><g id="页面-1"><g id="规划开关站"><path d="M64.22 129.26c-35.4 0-64.2-28.8-64.2-64.3 0-35.4 28.8-64.2 64.2-64.2s64.3 28.8 64.3 64.2c0 35.5-28.8 64.3-64.3 64.3m0-127.5c-34.8 0-63.2 28.4-63.2 63.2 0 34.9 28.4 63.2 63.2 63.2 34.9 0 63.2-28.4 63.2-63.2.1-34.8-28.3-63.2-63.2-63.2" class="st0"/><path d="m18.807 20.311.707-.707 90.155 90.156-.707.707z" class="st0"/></g></g></svg>