<svg xmlns="http://www.w3.org/2000/svg" xml:space="preserve" id="图层_1" x="0" y="0" viewBox="0 0 128 128"><style>.st0{fill:#fff}</style><g id="页面-1"><g id="规划换流站"><path id="形状" d="M127 1v126H1V1zm1-1H0v128h128z" class="st0"/><path d="M21.4 63.5h9.1v1h-9.1zm66.1 0h19.1v1H87.5z" class="st0"/><path d="M86.8 27h1v74h-1z" class="st0"/><path d="M30.9 96.5c-.1 0-.2 0-.2-.1-.2-.1-.2-.3-.2-.4V32c0-.2.1-.3.2-.4.2-.1.3-.1.5 0l55.5 32c.2.1.2.3.2.4s-.1.3-.2.4l-55.5 32c-.1.1-.2.1-.3.1m.5-63.7v62.4l54-31.2z" class="st0"/></g></g></svg>