<svg xmlns="http://www.w3.org/2000/svg" xml:space="preserve" id="图层_1" x="0" y="0" viewBox="0 0 130 130"><style>.st0{fill:#fff}</style><g id="页面-1"><g id="规划变电站"><path d="M65 109.8c-24.7 0-44.8-20.1-44.8-44.8S40.3 20.2 65 20.2s44.8 20.1 44.8 44.8-20.1 44.8-44.8 44.8m0-88.6c-24.2 0-43.8 19.7-43.8 43.8 0 24.2 19.7 43.8 43.8 43.8 24.2 0 43.8-19.7 43.8-43.8 0-24.2-19.6-43.8-43.8-43.8" class="st0"/><path d="M65 129.5C29.4 129.5.5 100.6.5 65S29.4.5 65 .5s64.5 28.9 64.5 64.5-28.9 64.5-64.5 64.5m0-128C30 1.5 1.5 30 1.5 65S30 128.5 65 128.5 128.5 100 128.5 65 100 1.5 65 1.5" class="st0"/></g></g></svg>