<svg xmlns="http://www.w3.org/2000/svg" xml:space="preserve" id="图层_1" x="0" y="0" viewBox="0 0 112 128"><style>.st0{fill:#fff}</style><g id="页面-1"><g id="计量表计" transform="translate(.51)"><path id="形状" d="M110 18v109H1V18zm1-1H0v111h111z" class="st0"/><path id="路径" d="m24.2 116.5-13-48h1.5L25 114.1h.1l13.2-45.6h1.8l13.1 45.6h.1l12.4-45.6h1.4l-13 48h-1.6L39.2 70.7h-.1l-13.3 45.8z" class="st0"/><path id="路径_1_" d="M73.3 116.5v-48h1.3V91h.1c1-2.6 2.7-4.8 5-6.4s5-2.4 7.8-2.3c3.4-.2 6.7 1.2 8.9 3.8 2.2 2.5 3.3 6 3.3 10.3v20.1h-1.3V96.8c0-4.1-1-7.3-2.9-9.6-2-2.4-4.9-3.7-8-3.5-2.4 0-4.7.6-6.7 1.9-1.9 1.2-3.5 3-4.5 5s-1.6 4.1-1.6 6.4v19.7z" class="st0"/><path d="M0 49.5h111v1H0zM55 0h1v17.5h-1z" class="st0"/></g></g></svg>