<svg xmlns="http://www.w3.org/2000/svg" xml:space="preserve" id="图层_1" x="0" y="0" viewBox="0 0 44 131"><style>.st0{fill:#fff}</style><g id="页面-1"><g id="跌落式熔断器_xFF08_合_xFF09_"><path d="M26.5.27h1v33h-1zm-.5 103.2h1v26.8h-1zm.7 0c-5 0-9-4-9-9s4-9 9-9 9 4 9 9-4.1 9-9 9m0-17c-4.4 0-8 3.6-8 8s3.6 8 8 8 8-3.6 8-8-3.6-8-8-8" class="st0"/><path d="m10.023 33.92.956-.294 16 51.996-.957.294z" class="st0"/><path d="M16.1 86.77c-.1 0-.2 0-.2-.1-.1-.1-.2-.2-.2-.3L2.2 42.57v-.4c.1-.1.2-.2.3-.2l18.8-5.8h.4c.1.1.2.2.2.3l13.4 43.9c.1.3-.1.5-.3.6l-18.8 5.8zm-12.8-44 13.1 42.9 17.9-5.5-13.2-42.9z" class="st0"/><g transform="translate(1.3 .27)"><path id="路径_4_" d="m0 68.8 2.7-.7-.6-1z" class="st0"/><path d="M0 69.3c-.2 0-.4-.1-.4-.3-.1-.2-.1-.5.1-.6l2.1-1.8c.1-.1.3-.1.4-.1s.3.1.3.3l.5 1c.1.1.1.3 0 .4l-.3.3-2.7.7c.1.1 0 .1 0 .1" class="st0"/></g><path d="m3.694 67.168 6.041-2.897.433.902-6.042 2.897zM10.5 32.97h33v1h-33z" class="st0"/></g></g></svg>