<svg xmlns="http://www.w3.org/2000/svg" xml:space="preserve" id="图层_1" x="0" y="0" viewBox="0 0 129 129"><style>.st0{fill:#fff}</style><g id="页面-1"><g id="运行"><path d="M64.5 128.9C29 128.9.1 100 .1 64.5.1 28.9 29 0 64.5 0S129 28.9 129 64.5c0 35.5-28.9 64.4-64.5 64.4M64.5 1C29.5 1 1.1 29.5 1.1 64.5S29.6 128 64.6 128s63.5-28.5 63.5-63.5C128 29.5 99.5 1 64.5 1" class="st0"/><path d="M30.765 18.622 65.66.112l.47.883-34.895 18.51zm34.97 109.381 31.694-16.65.465.884L66.2 128.888zM30.713 31.22 83.296 2.944l.474.881L31.186 32.1zm13.774 93.604 53.19-27.768.463.886-53.19 27.768zM30.624 44.3 97.466 9.403l.463.887-66.842 34.895zm.294 74.273 66.95-37.827.491.87-66.95 37.828zm-.123-61.048 66.681-34.553.46.888-66.681 34.553zm-.058 13.147L97.428 35.49l.467.885-66.691 35.181zm.196 13.571L97.482 49.87l.458.889L31.392 85.13zm-.165 15.752 66.74-35.51.47.884-66.74 35.509zM98.2 64.5h30.1v1H98.2zM.5 64H31v1H.5z" class="st0"/><path d="m30.474 118.58.213-109.3 1 .001-.213 109.3zM97.2 9.4h1v110.2h-1z" class="st0"/></g></g></svg>