<svg xmlns="http://www.w3.org/2000/svg" xml:space="preserve" id="图层_1" x="0" y="0" viewBox="0 0 129 129"><style>.st0{fill:#fff}</style><g id="页面-1"><g id="运行变电站"><path d="M64.51 109.27c-24.7 0-44.8-20.1-44.8-44.8s20.1-44.8 44.8-44.8 44.8 20.1 44.8 44.8-20.1 44.8-44.8 44.8m0-88.6c-24.2 0-43.8 19.7-43.8 43.8 0 24.2 19.7 43.8 43.8 43.8 24.2 0 43.8-19.7 43.8-43.8s-19.6-43.8-43.8-43.8" class="st0"/><path d="M64.51 128.27c-35.2 0-63.8-28.6-63.8-63.8S29.31.67 64.51.67s63.8 28.6 63.8 63.8-28.6 63.8-63.8 63.8m0-126.6c-34.6 0-62.8 28.2-62.8 62.8s28.2 62.8 62.8 62.8 62.8-28.2 62.8-62.8-28.2-62.8-62.8-62.8" class="st0"/><path d="M11.241 29.536 65.684.72l.467.884L11.71 30.42zM66.21 128.17l-.5-.9 52.9-30.8.5.9zM3.48 46.498l79.65-42.96.474.88-79.65 42.96zm40.99 78.055 80.03-42.045.465.886-80.031 42.045zM1.49 59.549l95.995-49.05.455.891L1.945 60.44zm27.007 56.981 98.977-51.999.465.885-98.977 51.999zM1.501 73.48l106.052-55.946.466.885L1.968 74.364zm3.062 11.098L115.226 26.44l.465.886L5.028 85.463zM9.449 95.53l111.989-57.968.46.888L9.908 96.418zm8.038 11.005 108.99-57.01.463.886-108.99 57.01z" class="st0"/></g></g></svg>