<svg xmlns="http://www.w3.org/2000/svg" xml:space="preserve" id="图层_1" x="0" y="0" viewBox="0 0 129 129"><style>.st0{fill:#fff}</style><g id="页面-1"><g id="运行秸杆电厂" transform="translate(.5 .46)"><path id="形状" d="M127 1v126H1V1zm1-1H0v128h128z" class="st0"/><path d="M46 113.2h82v1H46zM52 99h76v1H52zm5.099-13.96 70.9-.278.004 1-70.9.277zM61.6 70.6H128v1H61.6zm5.9-14.2H128v1H67.5zm5.1-14.3H127v1H72.6zM77 27.9h51v1H77zm6-14.2h44v1H83z" class="st0"/><path d="M41.09 127.315 87.012.253l.94.34-45.92 127.062z" class="st0"/><path d="m40.957 18.018.769-.64 28.15 33.819-.768.64zm13.291 73.053 41.985-19.99.43.903-41.985 19.99z" class="st0"/></g></g></svg>