<svg xmlns="http://www.w3.org/2000/svg" xml:space="preserve" id="图层_1" x="0" y="0" viewBox="0 0 129 129"><style>.st0{fill:#fff}</style><g id="页面-1"><g id="运行地热电厂" transform="translate(.5 .46)"><path id="形状" d="M127 1v126H1V1zm1-1H0v128h128z" class="st0"/><path d="M.5 63.5h127v1H.5z" class="st0"/><path d="m109.03 63.316 18.103-18.102.707.707-18.102 18.102zM.176 20.117 20.187.106l.707.707-20.01 20.01zm94.989 43.01 32.032-32.031.707.707-32.032 32.031zM.12 37.172 37.102.192l.707.706L.827 37.88zm79.018 25.979 48-49.008.714.7-48 49.008zM.145 56.148 56.147.145l.707.707L.852 56.855zm62.99 6.98L127.154.16l.701.713-64.018 62.968zm-16.424.532L110.21.163l.707.707-63.498 63.498zm-16.866.019L93.182.162l.708.706-63.337 63.517zM11.49 63.67 75.217.12l.707.709-63.73 63.549zM21.4 78.4h85.2v1H21.4zm10.3 15h63.9v1H31.7zm10.6 16.1h42.6v1H42.3z" class="st0"/></g></g></svg>