<svg xmlns="http://www.w3.org/2000/svg" xml:space="preserve" id="图层_1" x="0" y="0" viewBox="0 0 87 75"><style>.st0{fill:#fff}</style><g id="页面-1"><g id="运行换流站"><path d="M.88 36.96h85.2v1H.88z" class="st0"/><path d="M66.28.46h1v74h-1z" class="st0"/><g transform="translate(.88 .46)"><path id="路径_3_" d="M65 37 9.5 4.9v64.2z" class="st0"/><path d="M9.5 69.5c-.1 0-.2 0-.2-.1-.2 0-.3-.2-.3-.4V5c0-.2.1-.3.2-.4.2-.1.3-.1.5 0l55.5 32c.2.1.2.3.2.4s-.1.3-.2.4l-55.5 32c0 .1-.1.1-.2.1M10 5.8v62.4L64 37z" class="st0"/></g></g></g></svg>