<svg xmlns="http://www.w3.org/2000/svg" xml:space="preserve" id="图层_1" x="0" y="0" viewBox="0 0 129 129"><style>.st0{fill:#fff}</style><g id="页面-1"><g id="运行光能发电站" transform="translate(.5 .46)"><path id="形状" d="M127 1v126H1V1zm1-1H0v128h128z" class="st0"/><path d="M.5 63.1h127v1H.5z" class="st0"/><path d="M.353 81.395 18.03 63.717l.707.708L1.06 82.102zm106.822 45.722 20.01-20.011.708.707-20.011 20.01zM.17 96.121 33.192 63.1l.707.707L.878 96.829zm89.949 31.051 36.981-36.98.707.706-36.981 36.982zM.18 112.112 49.182 63.11l.707.707L.887 112.819zm69.969 15.031 56.992-56.993.707.707-56.992 56.993zm-70.035.035 63.993-63.993.707.707L.82 127.885zm16.056.007 64.245-63.891.705.71-64.245 63.89zm16.924-.095 64.129-63.856.705.709L33.8 127.799zm19.014.032L115.6 63.196l.71.705-63.494 63.926zM44.871 16.928l.855-.52 15.383 25.29-.855.52z" class="st0"/><path d="m44.983 16.988.854-.52 15.374 25.294-.854.519z" class="st0"/><path d="m44.955 17.02.854-.52 15.38 25.29-.854.52z" class="st0"/><path d="m44.983 16.988.854-.52 15.374 25.294-.854.519z" class="st0"/><path d="m44.871 16.928.855-.52 15.383 25.29-.855.52z" class="st0"/><path d="m44.896 16.898.855-.52 15.383 25.29-.854.52z" class="st0"/><path d="m44.789 16.835.854-.52L61.021 41.61l-.855.52z" class="st0"/><path d="m44.765 16.718.854-.52 15.372 25.297-.855.519z" class="st0"/><path d="m44.697 16.703.855-.52L57.135 35.24l-.855.52z" class="st0"/><path id="路径_21_" d="M61.8 43.8 59.2 34l-4.8 2.9z" class="st0"/><path d="M61.8 44.3c-.1 0-.2 0-.3-.1L54 37.3c-.1-.1-.2-.3-.2-.4 0-.2.1-.3.2-.4l4.8-2.9c.1-.1.3-.1.4 0s.3.2.3.3l2.7 9.8c.1.2 0 .4-.2.6 0-.1-.1 0-.2 0M55.2 37l5.7 5.2-2-7.5zm6.584-24.062.855-.52 15.368 25.297-.855.52z" class="st0"/><path d="m61.892 13 .854-.52 15.383 25.29-.854.52z" class="st0"/><path d="m61.866 13.029.855-.52 15.383 25.29-.855.52z" class="st0"/><path d="m61.892 13 .854-.52 15.383 25.29-.854.52z" class="st0"/><path d="m61.784 12.938.855-.52 15.368 25.297-.855.52z" class="st0"/><path d="m61.76 12.829.854-.52 15.377 25.293-.854.52z" class="st0"/><path d="m61.785 12.8.854-.52 15.378 25.293-.855.52z" class="st0"/><path d="m61.673 12.734.854-.52 15.384 25.29-.855.52z" class="st0"/><path d="m61.698 12.665.855-.52 11.582 19.058-.854.52z" class="st0"/><path id="路径_31_" d="M78.8 39.8 76.1 30l-4.8 2.9z" class="st0"/><path d="M78.8 40.2c-.1 0-.2 0-.3-.1L71 33.2c-.1-.1-.2-.3-.2-.4 0-.2.1-.3.2-.4l4.8-2.9c.1-.1.3-.1.4 0s.3.2.3.3l2.7 9.8c.1.2 0 .4-.2.6zM72.1 33l5.7 5.2-2-7.5z" class="st0"/></g></g></svg>