<svg xmlns="http://www.w3.org/2000/svg" xml:space="preserve" id="图层_1" x="0" y="0" viewBox="0 0 129 129"><style>.st0{fill:#fff}</style><g id="页面-1"><g id="运行火电厂" transform="translate(.5 .46)"><path id="形状" d="M127 1v126H1V1zm1-1H0v128h128z" class="st0"/><path d="M.5 63.5h127v1H.5z" class="st0"/><path d="M.204 82.159 18.73 63.633l.707.707L.91 82.866zm107.016 45.088 20.012-20.011.707.707-20.011 20.011zM.179 96.22l32.526-32.527.707.707L.886 96.926zM90.9 127.9l-.8-.8 37.1-36.9.7.7zM.014 112.955 49.51 63.457l.707.707L.721 113.662zm71.013 14.133 56.003-56.002.707.707-56.003 56.002zm-70.88.127 63.497-63.497.708.707L.854 127.923zm16.941-.1 63.498-63.498.707.707-63.497 63.498zm16.994-.075 63.426-63.428.708.707-63.427 63.427zm18.159.223 63.64-63.639.706.707-63.639 63.64z" class="st0"/></g></g></svg>