<svg xmlns="http://www.w3.org/2000/svg" xml:space="preserve" id="图层_1" x="0" y="0" viewBox="0 0 128 128"><style>.st0{fill:#fff}</style><g id="页面-1"><g id="进户点"><path id="形状" d="M127 1v126H1V1zm1-1H0v128h128z" class="st0"/><path d="M64 52.9c-10.8 0-19.6-8.8-19.6-19.6S53.2 13.6 64 13.6s19.6 8.8 19.6 19.6S74.8 52.9 64 52.9m0-38.3c-10.3 0-18.6 8.4-18.6 18.6S53.7 51.9 64 51.9s18.6-8.4 18.6-18.6S74.3 14.6 64 14.6" class="st0"/><path d="M83.6 128h-1V71.5c0-10.3-8.4-18.6-18.6-18.6-10.3 0-18.6 8.4-18.6 18.6V128h-1V71.5c0-10.8 8.8-19.6 19.6-19.6s19.6 8.8 19.6 19.6z" class="st0"/></g></g></svg>