<svg xmlns="http://www.w3.org/2000/svg" xml:space="preserve" id="图层_1" x="0" y="0" viewBox="0 0 112 128"><style>.st0{fill:#fff}</style><g id="页面-1"><g id="采集终端" transform="translate(.07)"><path id="形状" d="M110.9 17.1V127H1V17.1zm1-1H0V128h111.9z" class="st0"/><path d="M55.4 0h1v16.5h-1zm43.3 53.6C93.5 43.8 79.3 32.3 56 32.3c-23.1 0-37.4 11.4-42.7 21.1l-.9-.5C19.5 39.8 36.7 31.3 56 31.3c23.8 0 38.4 11.8 43.6 21.8z" class="st0"/><path d="M88.5 65c-5.9-10.3-20.7-14.9-32.7-14.9-17.6 0-28.5 7.9-32.6 14.7l-.9-.5c4.2-7 15.4-15.2 33.4-15.2 12.3 0 27.5 4.8 33.6 15.4zM75 75.8c-2.5-4.2-9.4-8.5-19.1-8.5-10.3 0-16.7 4.5-19.1 8.4l-.9-.5c2.5-4.1 9.2-8.8 19.9-8.8 10.1 0 17.3 4.5 20 8.9z" class="st0"/><circle id="椭圆形_1_" cx="55.9" cy="82.6" r="2.1" class="st0"/><path d="M55.9 85.3c-1.5 0-2.6-1.2-2.6-2.6s1.2-2.6 2.6-2.6c1.5 0 2.6 1.2 2.6 2.6s-1.1 2.6-2.6 2.6m0-4.3c-.9 0-1.6.7-1.6 1.6s.7 1.6 1.6 1.6 1.6-.7 1.6-1.6-.7-1.6-1.6-1.6" class="st0"/><path d="M55.4 83.9h1v38.5h-1z" class="st0"/></g></g></svg>