<svg xmlns="http://www.w3.org/2000/svg" xml:space="preserve" id="图层_1" x="0" y="0" viewBox="0 0 129 129"><style>.st0{fill:#fff}</style><g id="页面-1"><g id="钢管塔_xFF08_耐张型_xFF09_" transform="translate(.14 .55)"><path id="矩形" d="M.5.5h127v127H.5z" class="st0"/><path id="形状" d="M127 1v126H1V1zm1-1H0v128h128z" class="st0"/><path d="M.148 127.144 127.143.149l.707.707L.855 127.85z" class="st0"/><path d="M.728 1.449 1.435.74 127.794 127.1l-.707.706z" class="st0"/><path d="M64 127C29.3 127 1 98.7 1 64S29.3 1 64 1s63 28.3 63 63-28.3 63-63 63M64 2C29.8 2 2 29.8 2 64s27.8 62 62 62 62-27.8 62-62S98.2 2 64 2" class="st0"/></g></g></svg>