<svg xmlns="http://www.w3.org/2000/svg" xml:space="preserve" id="图层_1" x="0" y="0" viewBox="0 0 129 129"><style>.st0{fill:#fff}</style><g id="页面-1"><g id="钢管塔_xFF08_直线型_xFF09_" transform="translate(.14 .55)"><path id="形状" d="M127 1v126H1V1zm1-1H0v128h128z" class="st0"/><path d="M.148 127.144 127.143.149l.707.707L.855 127.85z" class="st0"/><path d="M.148.856.855.149 127.85 127.144l-.707.707z" class="st0"/><path d="M64 127.2C29.2 127.2.9 98.8.9 64S29.2.8 64 .8s63.1 28.3 63.1 63.2c0 34.8-28.3 63.2-63.1 63.2M64 1.8C29.7 1.8 1.9 29.7 1.9 64s27.9 62.2 62.1 62.2c34.3 0 62.1-27.9 62.1-62.2S98.3 1.8 64 1.8" class="st0"/></g></g></svg>