<svg xmlns="http://www.w3.org/2000/svg" xml:space="preserve" id="图层_1" x="0" y="0" viewBox="0 0 12 129"><style>.st0{fill:#fff}</style><g id="页面-1"><g id="间隙"><path d="M5.39.5h1v51.7h-1z" class="st0"/><path d="M5.39.6h1v51.6h-1z" class="st0"/><path d="M5.39.8h1v51.7h-1z" class="st0"/><path d="M5.39.6h1v51.6h-1z" class="st0"/><path d="M5.39.5h1v51.7h-1z" class="st0"/><path d="M5.39.4h1V52h-1z" class="st0"/><path d="M5.39.2h1v51.6h-1z" class="st0"/><path d="M5.39.1h1v51.6h-1z" class="st0"/><path d="M5.39 0h1v38.8h-1z" class="st0"/><g transform="translate(1.09)"><path id="路径_10_" d="m4.9 55.8 4.9-17H0z" class="st0"/><path d="M4.9 56.3c-.2 0-.4-.1-.5-.4l-4.9-17c0-.2 0-.3.1-.4s.2-.2.4-.2h9.8c.2 0 .3.1.4.2s.1.3.1.4l-4.9 17c-.1.3-.3.4-.5.4m-4.2-17L4.9 54l4.2-14.7z" class="st0"/></g><path d="M5.39 76.8h1v51.7h-1z" class="st0"/><path d="M5.39 76.7h1v51.7h-1z" class="st0"/><path d="M5.39 76.6h1v51.7h-1z" class="st0"/><path d="M5.39 76.7h1v51.7h-1z" class="st0"/><path d="M5.39 76.8h1v51.7h-1z" class="st0"/><path d="M5.39 77h1v51.7h-1z" class="st0"/><path d="M5.39 77.1h1v51.7h-1z" class="st0"/><path d="M5.39 77.2h1v51.7h-1z" class="st0"/><path d="M5.39 90.2h1V129h-1z" class="st0"/><g transform="translate(1.09)"><path id="路径_20_" d="m4.9 73.2 4.9 17H0z" class="st0"/><path d="M9.8 90.7H0c-.2 0-.3-.1-.4-.2s-.1-.3-.1-.4l4.9-17c.1-.4.8-.4 1 0l4.9 17c0 .2 0 .3-.1.4s-.2.2-.4.2m-9.1-1h8.5L4.9 75z" class="st0"/></g></g></g></svg>