<svg xmlns="http://www.w3.org/2000/svg" xml:space="preserve" id="图层_1" x="0" y="0" viewBox="0 0 129 99"><style>.st0{fill:#fff}</style><g id="页面-1"><g id="阻波器"><path d="M117.3 25.7v-1c2.9 0 5.5-1.1 7.4-3.1 2.2-2.4 3.3-5.7 3.1-9.6-.2-5.7-4.8-10.1-10.5-10.1h-.1v-1h.1c6.2 0 11.2 4.8 11.5 11 .2 4.1-1 7.8-3.4 10.3-2 2.2-4.9 3.5-8.1 3.5" class="st0"/><path d="M117.3 49.4v-1c2.9 0 5.5-1.1 7.4-3.1 2.2-2.4 3.3-5.7 3.1-9.6-.2-5.7-4.8-10.1-10.5-10.1h-.1v-1h.1c6.2 0 11.2 4.8 11.5 11 .2 4.1-1 7.8-3.4 10.3-2 2.3-4.9 3.5-8.1 3.5" class="st0"/><path d="M117.3 73.8v-1c2.9 0 5.5-1.1 7.4-3.1 2.2-2.4 3.3-5.7 3.1-9.6-.2-5.7-4.8-10.1-10.5-10.1h-.1v-1c6.2 0 11.3 4.8 11.6 11 .2 4.1-1 7.8-3.4 10.3-2 2.3-4.9 3.5-8.1 3.5" class="st0"/><path d="M117.3 98.2v-1c2.9 0 5.5-1.1 7.4-3.1 2.2-2.4 3.3-5.7 3.1-9.6-.2-5.7-4.8-10.1-10.5-10.1h-.1v-1h.1c6.2 0 11.2 4.8 11.5 11 .2 4.1-1 7.8-3.4 10.3-2 2.3-4.9 3.5-8.1 3.5M19.9 1h97.4v1H19.9z" class="st0"/><path d="M19.4 1.9h1v36.2h-1z" class="st0"/><path d="M0 37.5h39.8v1H0zm.3 23.6h39.8v1H.3z" class="st0"/><path d="M19.4 61.5h1v36.4h-1z" class="st0"/><path d="M19.9 97.3h97.4v1H19.9z" class="st0"/></g></g></svg>