<svg xmlns="http://www.w3.org/2000/svg" xml:space="preserve" id="图层_1" x="0" y="0" viewBox="0 0 110 130"><style>.st0{fill:#fff}</style><g id="页面-1"><g id="高压用户"><path d="M109.51 129.05H.81c-.3 0-.5-.2-.5-.5V19.85c0-.3.2-.5.5-.5h108.7c.3 0 .5.2.5.5v108.7c0 .3-.3.5-.5.5m-108.2-1h107.7V20.35H1.31z" class="st0"/><path d="M54.61.55h1v19.3h-1zm.5 121.7c-16.3 0-29.6-13.3-29.6-29.6s13.3-29.6 29.6-29.6c16.4 0 29.7 13.3 29.7 29.6s-13.3 29.6-29.7 29.6m0-58.2c-15.8 0-28.6 12.8-28.6 28.6s12.8 28.6 28.6 28.6 28.7-12.8 28.7-28.6-12.9-28.6-28.7-28.6" class="st0"/><path d="M55.11 85.45c-16.3 0-29.6-13.3-29.6-29.6s13.3-29.7 29.6-29.7c16.4 0 29.7 13.3 29.7 29.6s-13.3 29.7-29.7 29.7m0-58.3c-15.8 0-28.6 12.8-28.6 28.6s12.8 28.6 28.6 28.6 28.7-12.8 28.7-28.6c0-15.7-12.9-28.6-28.7-28.6" class="st0"/></g></g></svg>