<svg xmlns="http://www.w3.org/2000/svg" xml:space="preserve" id="图层_1" x="0" y="0" viewBox="0 0 130 81"><style>.st0{fill:#fff}</style><g id="页面-1"><g id="鸟害多发区"><path d="M128.71 79.59H1.31c-.3 0-.5-.2-.5-.5V.79c0-.3.2-.5.5-.5h127.4c.3 0 .5.2.5.5v78.2c0 .3-.2.6-.5.6m-126.9-1h126.4V1.29H1.81z" class="st0"/><path d="M1.196 16.093 20.188 1.094l.62.785-18.992 15zM113.41 79.09l-.6-.7 15.9-13.2.6.8zM18.89 20.208 42.806.642l.634.774-23.917 19.566zm-2.404 22.767 36.599-29.488.627.779-36.599 29.488z" class="st0"/><path d="M49.25 16.674 68.378.889l.637.771-19.129 15.785zM1.198 35.077l17.738-14.953.645.765L1.842 35.84zM100.61 72.19l-.6-.7 28.2-23.4.6.8z" class="st0"/><path d="m91.244 78.568 14.054-11.564.635.772L91.88 79.341zM1.186 56.156l17.637-15.073.65.76L1.836 56.916zm73.242 11.972 53.712-47.945.666.746-53.712 47.945z" class="st0"/><path d="m60.895 79.398 16.774-13.766.634.773L61.53 80.17zm-59.66-1.286 45.14-37.68.641.768-45.14 37.68z" class="st0"/><path d="M38.414 46.961 79.68 12.91l.636.77-41.264 34.054z" class="st0"/><path d="M75.73 16.278 94.86.493l.636.771L76.367 17.05zM48.207 64.212l31.538-25.41.627.78L48.835 64.99zm31.632-25.414 27.22-22.479.636.771-27.22 22.48z" class="st0"/><path d="M103.683 19.045 127.266.341l.621.784-23.583 18.704zM30.621 78.617l19.138-15.77.636.771-19.138 15.77z" class="st0"/></g></g></svg>