<svg xmlns="http://www.w3.org/2000/svg" viewBox="0 0 151 103"><title>Boiler 2(锅炉2)</title><defs><linearGradient id="a" x1="95.659%" x2="195.683%" y1="48.785%" y2="48.785%"><stop offset="0%" stop-color="#767b82"/><stop offset="1%" stop-color="#a5aaaf"/><stop offset="2%" stop-color="#d7dce0"/><stop offset="4%" stop-color="#9ba1ab"/><stop offset="92%" stop-color="#a9b1bb"/><stop offset="95%" stop-color="#9da4ae"/><stop offset="99%" stop-color="#7d838a"/><stop offset="100%" stop-color="#767b82"/></linearGradient><linearGradient id="b" x1="61.873%" x2="-38.336%" y1="49.413%" y2="49.413%"><stop offset="0%" stop-color="#767b82"/><stop offset="1%" stop-color="#a5aaaf"/><stop offset="2%" stop-color="#d7dce0"/><stop offset="6%" stop-color="#9ba1ab"/><stop offset="96%" stop-color="#a9b1bb"/><stop offset="97%" stop-color="#9da4ae"/><stop offset="100%" stop-color="#7d838a"/><stop offset="100%" stop-color="#767b82"/></linearGradient><linearGradient id="c" x1="67.766%" x2="-32.414%" y1="49.351%" y2="49.351%"><stop offset="0%" stop-color="#767b82"/><stop offset="1%" stop-color="#a5aaaf"/><stop offset="2%" stop-color="#d7dce0"/><stop offset="6%" stop-color="#9ba1ab"/><stop offset="96%" stop-color="#a9b1bb"/><stop offset="97%" stop-color="#9da4ae"/><stop offset="100%" stop-color="#7d838a"/><stop offset="100%" stop-color="#767b82"/></linearGradient><linearGradient id="d" x1="100%" x2="-.403%" y1="33.133%" y2="33.133%"><stop offset="0%" stop-color="#767b82"/><stop offset="7%" stop-color="#9ba1ab"/><stop offset="22%" stop-color="#e2eaf2"/><stop offset="94%" stop-color="#767b82"/><stop offset="100%" stop-color="#a9b1bb"/></linearGradient><linearGradient id="e" x1="0%" x2="100%" y1="50.439%" y2="50.439%"><stop offset="2%" stop-color="#252628"/><stop offset="21%" stop-color="#b4bbc1"/><stop offset="41%" stop-color="#4c4e51"/><stop offset="100%" stop-color="#252628"/></linearGradient><linearGradient id="f" x1="45.286%" x2="-54.827%" y1="49.624%" y2="49.624%"><stop offset="0%" stop-color="#767b82"/><stop offset="1%" stop-color="#a5aaaf"/><stop offset="2%" stop-color="#d7dce0"/><stop offset="4%" stop-color="#9ba1ab"/><stop offset="92%" stop-color="#a9b1bb"/><stop offset="95%" stop-color="#9da4ae"/><stop offset="99%" stop-color="#7d838a"/><stop offset="100%" stop-color="#767b82"/></linearGradient><linearGradient id="g" x1="52.691%" x2="-47.366%" y1="49.007%" y2="49.007%"><stop offset="0%" stop-color="#767b82"/><stop offset="2%" stop-color="#a5aaaf"/><stop offset="4%" stop-color="#d7dce0"/><stop offset="8%" stop-color="#9ba1ab"/><stop offset="92%" stop-color="#a9b1bb"/><stop offset="95%" stop-color="#9da4ae"/><stop offset="99%" stop-color="#7d838a"/><stop offset="100%" stop-color="#767b82"/></linearGradient><linearGradient id="h" x1="8074.941%" x2="8096.235%" y1="3050%" y2="3050%"><stop offset="0%" stop-color="#767b82"/><stop offset="2%" stop-color="#a5aaaf"/><stop offset="4%" stop-color="#d7dce0"/><stop offset="8%" stop-color="#9ba1ab"/><stop offset="92%" stop-color="#a9b1bb"/><stop offset="95%" stop-color="#9da4ae"/><stop offset="99%" stop-color="#7d838a"/><stop offset="100%" stop-color="#767b82"/></linearGradient><linearGradient id="i" x1="3.39%" x2="103.373%" y1="50.327%" y2="50.327%"><stop offset="0%" stop-color="#767b82"/><stop offset="1%" stop-color="#a5aaaf"/><stop offset="2%" stop-color="#d7dce0"/><stop offset="4%" stop-color="#9ba1ab"/><stop offset="92%" stop-color="#a9b1bb"/><stop offset="95%" stop-color="#9da4ae"/><stop offset="99%" stop-color="#7d838a"/><stop offset="100%" stop-color="#767b82"/></linearGradient><linearGradient id="j" x1="26.547%" x2="126.641%" y1="46.27%" y2="46.27%"><stop offset="0%" stop-color="#767b82"/><stop offset="2%" stop-color="#bfc4ca"/><stop offset="4%" stop-color="#f1f7fb"/><stop offset="8%" stop-color="#b6bec9"/><stop offset="92%" stop-color="#a9b1bb"/><stop offset="95%" stop-color="#9da4ae"/><stop offset="99%" stop-color="#7d838a"/><stop offset="100%" stop-color="#767b82"/></linearGradient><linearGradient id="k" x1="26.513%" x2="126.607%" y1="46.456%" y2="46.456%"><stop offset="0%" stop-color="#767b82"/><stop offset="2%" stop-color="#bfc4ca"/><stop offset="4%" stop-color="#f1f7fb"/><stop offset="8%" stop-color="#b6bec9"/><stop offset="92%" stop-color="#a9b1bb"/><stop offset="95%" stop-color="#9da4ae"/><stop offset="99%" stop-color="#7d838a"/><stop offset="100%" stop-color="#767b82"/></linearGradient><linearGradient id="l" x1="26.513%" x2="126.607%" y1="46.599%" y2="46.599%"><stop offset="0%" stop-color="#767b82"/><stop offset="2%" stop-color="#bfc4ca"/><stop offset="4%" stop-color="#f1f7fb"/><stop offset="8%" stop-color="#b6bec9"/><stop offset="92%" stop-color="#a9b1bb"/><stop offset="95%" stop-color="#9da4ae"/><stop offset="99%" stop-color="#7d838a"/><stop offset="100%" stop-color="#767b82"/></linearGradient><linearGradient id="m" x1="26.513%" x2="126.607%" y1="46.598%" y2="46.598%"><stop offset="0%" stop-color="#767b82"/><stop offset="2%" stop-color="#bfc4ca"/><stop offset="4%" stop-color="#f1f7fb"/><stop offset="8%" stop-color="#b6bec9"/><stop offset="92%" stop-color="#a9b1bb"/><stop offset="95%" stop-color="#9da4ae"/><stop offset="99%" stop-color="#7d838a"/><stop offset="100%" stop-color="#767b82"/></linearGradient><linearGradient id="n" x1="26.496%" x2="126.591%" y1="46.313%" y2="46.313%"><stop offset="0%" stop-color="#767b82"/><stop offset="2%" stop-color="#bfc4ca"/><stop offset="4%" stop-color="#f1f7fb"/><stop offset="8%" stop-color="#b6bec9"/><stop offset="92%" stop-color="#a9b1bb"/><stop offset="95%" stop-color="#9da4ae"/><stop offset="99%" stop-color="#7d838a"/><stop offset="100%" stop-color="#767b82"/></linearGradient><linearGradient id="o" x1="26.496%" x2="126.591%" y1="46.456%" y2="46.456%"><stop offset="0%" stop-color="#767b82"/><stop offset="2%" stop-color="#bfc4ca"/><stop offset="4%" stop-color="#f1f7fb"/><stop offset="8%" stop-color="#b6bec9"/><stop offset="92%" stop-color="#a9b1bb"/><stop offset="95%" stop-color="#9da4ae"/><stop offset="99%" stop-color="#7d838a"/><stop offset="100%" stop-color="#767b82"/></linearGradient><linearGradient id="p" x1="26.496%" x2="126.591%" y1="46.599%" y2="46.599%"><stop offset="0%" stop-color="#767b82"/><stop offset="2%" stop-color="#bfc4ca"/><stop offset="4%" stop-color="#f1f7fb"/><stop offset="8%" stop-color="#b6bec9"/><stop offset="92%" stop-color="#a9b1bb"/><stop offset="95%" stop-color="#9da4ae"/><stop offset="99%" stop-color="#7d838a"/><stop offset="100%" stop-color="#767b82"/></linearGradient><linearGradient id="q" x1="26.496%" x2="126.591%" y1="46.641%" y2="46.641%"><stop offset="0%" stop-color="#767b82"/><stop offset="2%" stop-color="#bfc4ca"/><stop offset="4%" stop-color="#f1f7fb"/><stop offset="8%" stop-color="#b6bec9"/><stop offset="92%" stop-color="#a9b1bb"/><stop offset="95%" stop-color="#9da4ae"/><stop offset="99%" stop-color="#7d838a"/><stop offset="100%" stop-color="#767b82"/></linearGradient><linearGradient id="r" x1="56.355%" x2="156.595%" y1="49.432%" y2="49.432%"><stop offset="0%" stop-color="#767b82"/><stop offset="4%" stop-color="#a5aaaf"/><stop offset="8%" stop-color="#d7dce0"/><stop offset="16%" stop-color="#9ba1ab"/><stop offset="92%" stop-color="#a9b1bb"/><stop offset="95%" stop-color="#9da4ae"/><stop offset="99%" stop-color="#7d838a"/><stop offset="100%" stop-color="#767b82"/></linearGradient><linearGradient id="s" x1="100%" x2="0%" y1="49.779%" y2="49.779%"><stop offset="0%" stop-color="#767b82"/><stop offset="7%" stop-color="#9ba1ab"/><stop offset="22%" stop-color="#e2eaf2"/><stop offset="94%" stop-color="#767b82"/><stop offset="100%" stop-color="#a9b1bb"/></linearGradient><linearGradient id="t" x1="100%" x2=".066%" y1="49.77%" y2="49.77%"><stop offset="0%" stop-color="#767b82"/><stop offset="7%" stop-color="#9ba1ab"/><stop offset="22%" stop-color="#e2eaf2"/><stop offset="94%" stop-color="#767b82"/><stop offset="100%" stop-color="#a9b1bb"/></linearGradient><linearGradient id="u" x1="100%" x2="0%" y1="49.851%" y2="49.851%"><stop offset="0%" stop-color="#767b82"/><stop offset="7%" stop-color="#9ba1ab"/><stop offset="22%" stop-color="#e2eaf2"/><stop offset="94%" stop-color="#767b82"/><stop offset="100%" stop-color="#a9b1bb"/></linearGradient><linearGradient id="v" x1="100%" x2="0%" y1="50.23%" y2="50.23%"><stop offset="0%" stop-color="#767b82"/><stop offset="7%" stop-color="#9ba1ab"/><stop offset="22%" stop-color="#e2eaf2"/><stop offset="94%" stop-color="#767b82"/><stop offset="100%" stop-color="#a9b1bb"/></linearGradient><linearGradient id="w" x1="-7.118%" x2="92.843%" y1="50.06%" y2="50.06%"><stop offset="0%" stop-color="#767b82"/><stop offset="1%" stop-color="#81868d"/><stop offset="3%" stop-color="#9ca1a6"/><stop offset="5%" stop-color="#b2b7bc"/><stop offset="8%" stop-color="#c3c8cc"/><stop offset="11%" stop-color="#ced3d8"/><stop offset="16%" stop-color="#d5dade"/><stop offset="29%" stop-color="#d7dce0"/><stop offset="29%" stop-color="#d6dbdf"/><stop offset="31%" stop-color="#c0c6cc"/><stop offset="33%" stop-color="#afb5bd"/><stop offset="36%" stop-color="#a4aab3"/><stop offset="40%" stop-color="#9da3ad"/><stop offset="52%" stop-color="#9ba1ab"/><stop offset="91%" stop-color="#a9b1bb"/><stop offset="100%" stop-color="#767b82"/></linearGradient><linearGradient id="x" x1="28.237%" x2="127.945%" y1="-349.85%" y2="-349.85%"><stop offset="2%" stop-color="#252628"/><stop offset="21%" stop-color="#b4bbc1"/><stop offset="41%" stop-color="#4c4e51"/><stop offset="100%" stop-color="#252628"/></linearGradient></defs><g fill="none" fill-rule="nonzero" transform="translate(.11)"><path fill="url(#a)" d="M48.34 46.21h8.27v104.95h-8.27z" transform="rotate(90 52.475 98.685)"/><path fill="url(#b)" d="M121.72 54.86h23.92l-6.14 29.99h-17.78z"/><path fill="url(#c)" d="M121.72 96.32h12l.02 4.4h16.27l-.06-9.7-5.17-6.17h-23.06z"/><path fill="url(#d)" d="M117.715 53.865h2.48v19.17h-2.48z" transform="rotate(-90 118.955 63.45)"/><path fill="url(#e)" d="M122.84 62.1h9.6v2.28h-9.6z" transform="rotate(90 127.64 63.24)"/><path fill="url(#f)" d="m104.97 58.39 16.75 8.16v35.94h-16.76z"/><path fill="url(#g)" d="M104.96 13.41h19.4V33.7h-19.4z"/><path fill="url(#h)" d="M120.92 53.72h25.5v1.14h-25.5z"/><path fill="url(#i)" d="M9.505-.895h85.97v104.94H9.505z" transform="rotate(90 52.49 51.575)"/><path fill="#71767d" stroke="#858c96" stroke-width="2" d="M104.08 23.99v66.62H.89V23.99z"/><path fill="url(#j)" d="M.38 30.16h29.77v23.07H.38z" transform="rotate(90 15.265 41.695)"/><path fill="url(#k)" d="M24.95 30.17h29.77v23.07H24.95z" transform="rotate(90 39.835 41.705)"/><path fill="url(#l)" d="M49.51 30.17h29.77v23.07H49.51z" transform="rotate(90 64.395 41.705)"/><path fill="url(#m)" d="M74.07 30.17h29.77v23.07H74.07z" transform="rotate(90 88.955 41.705)"/><path fill="url(#n)" d="M.38 61.43h29.77V84.5H.38z" transform="rotate(90 15.265 72.965)"/><path fill="url(#o)" d="M24.95 61.43h29.77V84.5H24.95z" transform="rotate(90 39.835 72.965)"/><path fill="url(#p)" d="M49.51 61.43h29.77V84.5H49.51z" transform="rotate(90 64.395 72.965)"/><path fill="url(#q)" d="M74.07 61.43h29.77V84.5H74.07z" transform="rotate(90 88.955 72.965)"/><path fill="url(#r)" d="M133.74 100.73h16.27v1.76h-16.27z" transform="matrix(-1 0 0 -1 283.75 203.22)"/><path fill="#000" d="M150.01 100.71h-16.27v-1h16.27zM140.19 84.79h-18.51v-1h18.51z" opacity=".3"/><path fill="url(#s)" d="M16.31 0h10.31v9.04H16.31z" transform="matrix(-1 0 0 -1 42.93 9.04)"/><path fill="url(#t)" d="M13.9 0h15.14v2.17H13.9z" transform="matrix(-1 0 0 -1 42.94 2.17)"/><path fill="url(#u)" d="M43.11 2.23h10.31v6.72H43.11z" transform="matrix(-1 0 0 -1 96.53 11.18)"/><path fill="url(#v)" d="M40.69 2.24h15.14v2.17H40.69z" transform="matrix(-1 0 0 -1 96.52 6.65)"/><path fill="url(#w)" d="M100.62 28.62h25.36v16.54h-25.36z" transform="rotate(90 113.3 36.89)"/><path fill="url(#x)" d="M98.54 74.92h15.87v2.27H98.54z" transform="rotate(90 106.475 76.055)"/><circle cx="86" cy="16.34" r="5.73" fill="#5d646c" stroke="#b4bcc5" stroke-width=".5"/><circle cx="86" cy="16.34" r="4.67" fill="#cfd5db"/><path fill="#a63c27" d="m88.72 13.69-5.31 4.43.87.87z"/><circle cx="86" cy="16.34" r="1" fill="#a8afb5"/></g></svg>