<svg xmlns="http://www.w3.org/2000/svg" viewBox="0 0 88 150"><title>Boiler 3(锅炉3)</title><defs><linearGradient id="a" x1="100.68%" x2="0%" y1="50.03%" y2="50.03%"><stop offset="0%" stop-color="#767b82"/><stop offset="7%" stop-color="#9ba1ab"/><stop offset="22%" stop-color="#e2eaf2"/><stop offset="94%" stop-color="#767b82"/><stop offset="100%" stop-color="#a9b1bb"/></linearGradient><linearGradient id="b" x1="5134.694%" x2="5034.014%" y1="509.245%" y2="509.245%"><stop offset="0%" stop-color="#767b82"/><stop offset="7%" stop-color="#9ba1ab"/><stop offset="22%" stop-color="#e2eaf2"/><stop offset="94%" stop-color="#767b82"/><stop offset="100%" stop-color="#a9b1bb"/></linearGradient><linearGradient id="c" x1="100%" x2="0%" y1="50.116%" y2="50.116%"><stop offset="0%" stop-color="#767b82"/><stop offset="7%" stop-color="#9ba1ab"/><stop offset="22%" stop-color="#e2eaf2"/><stop offset="28%" stop-color="#d1d8e0"/><stop offset="49%" stop-color="#a1a7ae"/><stop offset="67%" stop-color="#7e8489"/><stop offset="81%" stop-color="#696e73"/><stop offset="91%" stop-color="#61666b"/><stop offset="100%" stop-color="#a9b1bb"/></linearGradient><linearGradient id="d" x1="100.374%" x2=".448%" y1="50%" y2="50%"><stop offset="0%" stop-color="#767b82"/><stop offset="7%" stop-color="#9ba1ab"/><stop offset="22%" stop-color="#e2eaf2"/><stop offset="94%" stop-color="#767b82"/><stop offset="100%" stop-color="#a9b1bb"/></linearGradient><linearGradient id="e" x1="593.005%" x2="493.005%" y1="145.066%" y2="145.066%"><stop offset="0%" stop-color="#767b82"/><stop offset="7%" stop-color="#9ba1ab"/><stop offset="22%" stop-color="#e2eaf2"/><stop offset="28%" stop-color="#d1d8e0"/><stop offset="49%" stop-color="#a1a7ae"/><stop offset="67%" stop-color="#7e8489"/><stop offset="81%" stop-color="#696e73"/><stop offset="91%" stop-color="#61666b"/><stop offset="100%" stop-color="#a9b1bb"/></linearGradient><linearGradient id="f" x1="2608.136%" x2="2508.475%" y1="561.063%" y2="561.063%"><stop offset="0%" stop-color="#767b82"/><stop offset="7%" stop-color="#9ba1ab"/><stop offset="22%" stop-color="#e2eaf2"/><stop offset="94%" stop-color="#767b82"/><stop offset="100%" stop-color="#a9b1bb"/></linearGradient><linearGradient id="g" x1="2608.136%" x2="2508.475%" y1="477.234%" y2="477.234%"><stop offset="0%" stop-color="#767b82"/><stop offset="7%" stop-color="#9ba1ab"/><stop offset="22%" stop-color="#e2eaf2"/><stop offset="94%" stop-color="#767b82"/><stop offset="100%" stop-color="#a9b1bb"/></linearGradient><linearGradient id="h" x1="99.77%" x2="0%" y1="49.975%" y2="49.975%"><stop offset="0%" stop-color="#767b82"/><stop offset="7%" stop-color="#9ba1ab"/><stop offset="22%" stop-color="#e2eaf2"/><stop offset="94%" stop-color="#767b82"/><stop offset="100%" stop-color="#a9b1bb"/></linearGradient><linearGradient id="i" x1="100%" x2="0%" y1="50%" y2="50%"><stop offset="0%" stop-color="#767b82"/><stop offset="7%" stop-color="#9ba1ab"/><stop offset="22%" stop-color="#e2eaf2"/><stop offset="94%" stop-color="#767b82"/><stop offset="100%" stop-color="#a9b1bb"/></linearGradient><linearGradient id="j" x1="392.722%" x2="292.722%" y1="412.595%" y2="412.595%"><stop offset="0%" stop-color="#767b82"/><stop offset="7%" stop-color="#9ba1ab"/><stop offset="22%" stop-color="#e2eaf2"/><stop offset="94%" stop-color="#767b82"/><stop offset="100%" stop-color="#a9b1bb"/></linearGradient><linearGradient id="k" x1="392.722%" x2="292.722%" y1="2265.598%" y2="2265.598%"><stop offset="0%" stop-color="#767b82"/><stop offset="7%" stop-color="#9ba1ab"/><stop offset="22%" stop-color="#e2eaf2"/><stop offset="94%" stop-color="#767b82"/><stop offset="100%" stop-color="#a9b1bb"/></linearGradient><linearGradient id="l" x1="536.321%" x2="436.321%" y1="2265.598%" y2="2265.598%"><stop offset="0%" stop-color="#767b82"/><stop offset="7%" stop-color="#9ba1ab"/><stop offset="22%" stop-color="#e2eaf2"/><stop offset="94%" stop-color="#767b82"/><stop offset="100%" stop-color="#a9b1bb"/></linearGradient><linearGradient id="m" x1="242.28%" x2="142.28%" y1="107.803%" y2="107.803%"><stop offset="0%" stop-color="#767b82"/><stop offset="7%" stop-color="#9ba1ab"/><stop offset="22%" stop-color="#e2eaf2"/><stop offset="28%" stop-color="#d1d8e0"/><stop offset="49%" stop-color="#a1a7ae"/><stop offset="67%" stop-color="#7e8489"/><stop offset="81%" stop-color="#696e73"/><stop offset="91%" stop-color="#61666b"/><stop offset="100%" stop-color="#a9b1bb"/></linearGradient><linearGradient id="n" x1="100%" x2="-.053%" y1="50%" y2="50%"><stop offset="0%" stop-color="#767b82"/><stop offset="7%" stop-color="#9ba1ab"/><stop offset="22%" stop-color="#e2eaf2"/><stop offset="94%" stop-color="#767b82"/><stop offset="100%" stop-color="#a9b1bb"/></linearGradient><linearGradient id="o" x1="100%" x2="0%" y1="49.886%" y2="49.886%"><stop offset="0%" stop-color="#767b82"/><stop offset="7%" stop-color="#9ba1ab"/><stop offset="22%" stop-color="#e2eaf2"/><stop offset="94%" stop-color="#767b82"/><stop offset="100%" stop-color="#a9b1bb"/></linearGradient><linearGradient id="p" x1="100%" x2="0%" y1="50%" y2="50%"><stop offset="0%" stop-color="#767b82"/><stop offset="7%" stop-color="#9ba1ab"/><stop offset="22%" stop-color="#e2eaf2"/><stop offset="94%" stop-color="#767b82"/><stop offset="100%" stop-color="#a9b1bb"/></linearGradient><linearGradient id="q" x1="100%" x2=".165%" y1="50%" y2="50%"><stop offset="0%" stop-color="#767b82"/><stop offset="7%" stop-color="#9ba1ab"/><stop offset="22%" stop-color="#e2eaf2"/><stop offset="94%" stop-color="#767b82"/><stop offset="100%" stop-color="#a9b1bb"/></linearGradient><linearGradient id="r" x1="100%" x2="0%" y1="49.886%" y2="49.886%"><stop offset="0%" stop-color="#767b82"/><stop offset="7%" stop-color="#9ba1ab"/><stop offset="22%" stop-color="#e2eaf2"/><stop offset="94%" stop-color="#767b82"/><stop offset="100%" stop-color="#a9b1bb"/></linearGradient><linearGradient id="s" x1="75.378%" x2="24.622%" y1="46.851%" y2="56.411%"><stop offset="0%" stop-color="#767b82"/><stop offset="7%" stop-color="#9ba1ab"/><stop offset="22%" stop-color="#e2eaf2"/><stop offset="28%" stop-color="#d1d8e0"/><stop offset="49%" stop-color="#a1a7ae"/><stop offset="67%" stop-color="#7e8489"/><stop offset="81%" stop-color="#696e73"/><stop offset="91%" stop-color="#61666b"/><stop offset="100%" stop-color="#a9b1bb"/></linearGradient><linearGradient id="t" x1="50.01%" x2="50.01%" y1="0%" y2="100.026%"><stop offset="0%" stop-color="#2e3033"/><stop offset="100%" stop-color="#9ba1ab" stop-opacity="0"/></linearGradient></defs><g fill="none" fill-rule="nonzero"><rect width="1.47" height="16.55" x="58.56" y="21" fill="url(#a)" rx=".735"/><rect width="1.47" height="16.55" x="61.68" y="21" fill="url(#b)" rx=".735"/><path fill="url(#c)" d="M63.74 113.59h21.41v4.31H63.74z"/><path fill="url(#d)" d="M55.19 17.59h13.29v15.99a6.69 6.69 0 1 1-13.38 0V17.63z" transform="rotate(-90 61.79 28.93)"/><path fill="url(#e)" d="M66.87 13.87h15.01v79.95H66.87z"/><rect width="2.95" height="14.87" x="73.13" fill="url(#f)" rx="1.47"/><rect width="2.95" height="17.79" x="73.13" y="118.79" fill="url(#g)" rx="1.47"/><path fill="url(#h)" d="M58.27 94.14h4.35v19.99h-4.35z" transform="rotate(-90 60.445 104.135)"/><path fill="url(#i)" d="M5.475 91.615h4.35v15.3h-4.35z" transform="rotate(-90 7.65 99.265)"/><path fill="url(#j)" d="M61.8 93.82h25.28v20.96H61.8z"/><rect width="25.28" height="3.43" x="61.8" y="117.22" fill="url(#k)" rx="1.715"/><rect width="16.96" height="3.43" x="65.96" y="13.19" fill="url(#l)" rx="1.715"/><path fill="url(#m)" d="M56.91 18.52V150H4.9V18.52"/><path fill="#000" d="M4.9 135.46h52.01V150H4.9z" opacity=".3"/><circle cx="31.95" cy="115.67" r="9.36" fill="url(#n)"/><path fill="url(#o)" d="M21.34 111.3h2.27v4.39h-2.27z" transform="rotate(-90 22.475 113.495)"/><path fill="url(#p)" d="M36.755 107.015h2.27v17.14h-2.27z" transform="rotate(-90 37.89 115.585)"/><path fill="url(#q)" d="M41.4 114.54h6.06v2.08H41.4z" transform="rotate(-90 44.43 115.58)"/><path fill="url(#r)" d="M21.34 115.46h2.27v4.39h-2.27z" transform="rotate(-90 22.475 117.655)"/><path fill="url(#s)" d="M57 18.63S53.37 8.8 30.9 8.8 4.81 18.63 4.81 18.63z"/><path fill="url(#t)" d="M4.81 18.63H57v38.65H4.81z" opacity=".2"/></g></svg>