<svg xmlns="http://www.w3.org/2000/svg" viewBox="0 0 150 122"><title>Boiler control 1(燃油锅炉1)</title><defs><linearGradient id="a" x1="49.994%" x2="49.994%" y1="0%" y2="100%"><stop offset="0%" stop-color="#d7dce0"/><stop offset="100%" stop-color="#8a9099"/></linearGradient><linearGradient id="b" x1="49.994%" x2="49.994%" y1="0%" y2="100%"><stop offset="0%" stop-color="#f5faff"/><stop offset="100%" stop-color="#5c6066"/></linearGradient><linearGradient id="c" x1="50%" x2="50%" y1="100%" y2="0%"><stop offset="0%" stop-color="#676b70"/><stop offset="5%" stop-color="#606366"/><stop offset="26%" stop-color="#5d6166"/><stop offset="30%" stop-color="#c2c7cc"/><stop offset="32%" stop-color="#b8bec3"/><stop offset="39%" stop-color="#a4aab0"/><stop offset="46%" stop-color="#969ca3"/><stop offset="55%" stop-color="#8e939b"/><stop offset="70%" stop-color="#8b9199"/><stop offset="73%" stop-color="#edf5ff"/><stop offset="77%" stop-color="#c3c7cc"/><stop offset="100%" stop-color="#c3c7cc"/></linearGradient><linearGradient id="d" x1="5216.58%" x2="5216.58%" y1="2491.679%" y2="2391.679%"><stop offset="0%" stop-color="#676b70"/><stop offset="5%" stop-color="#606366"/><stop offset="26%" stop-color="#5d6166"/><stop offset="30%" stop-color="#c2c7cc"/><stop offset="32%" stop-color="#b8bec3"/><stop offset="39%" stop-color="#a4aab0"/><stop offset="46%" stop-color="#969ca3"/><stop offset="55%" stop-color="#8e939b"/><stop offset="70%" stop-color="#8b9199"/><stop offset="73%" stop-color="#edf5ff"/><stop offset="77%" stop-color="#c3c7cc"/><stop offset="100%" stop-color="#c3c7cc"/></linearGradient><linearGradient id="e" x1="49.99%" x2="49.99%" y1="0%" y2="100%"><stop offset="0%" stop-color="#767b82"/><stop offset="7%" stop-color="#9ba1ab"/><stop offset="22%" stop-color="#e2eaf2"/><stop offset="94%" stop-color="#5d6166"/><stop offset="100%" stop-color="#a9b1bb"/></linearGradient><linearGradient id="f" x1="50.063%" x2="50.063%" y1="0%" y2="100%"><stop offset="0%" stop-color="#767b82"/><stop offset="7%" stop-color="#9ba1ab"/><stop offset="22%" stop-color="#e2eaf2"/><stop offset="94%" stop-color="#5d6166"/><stop offset="100%" stop-color="#a9b1bb"/></linearGradient><linearGradient id="g" x1="47.302%" x2="55.179%" y1="25%" y2="75%"><stop offset="0%" stop-color="#767b82"/><stop offset="7%" stop-color="#9ba1ab"/><stop offset="19%" stop-color="#e2eaf2"/><stop offset="94%" stop-color="#5d6166"/><stop offset="100%" stop-color="#a9b1bb"/></linearGradient><linearGradient id="h" x1="1362.039%" x2="1362.039%" y1="750.119%" y2="650.119%"><stop offset="0%" stop-color="#676b70"/><stop offset="5%" stop-color="#606366"/><stop offset="26%" stop-color="#5d6166"/><stop offset="30%" stop-color="#c2c7cc"/><stop offset="32%" stop-color="#b8bec3"/><stop offset="39%" stop-color="#a4aab0"/><stop offset="46%" stop-color="#969ca3"/><stop offset="55%" stop-color="#8e939b"/><stop offset="70%" stop-color="#8b9199"/><stop offset="73%" stop-color="#edf5ff"/><stop offset="77%" stop-color="#c3c7cc"/><stop offset="100%" stop-color="#c3c7cc"/></linearGradient></defs><g fill="none" fill-rule="nonzero"><rect width="84.45" height="121.5" x="65.55" fill="url(#a)" rx="13.16"/><path fill="url(#b)" d="M136.84 2c6.159.011 11.149 5.001 11.16 11.16v95.18c-.011 6.159-5.001 11.149-11.16 11.16H78.71c-6.161-.006-11.154-4.999-11.16-11.16V13.16C67.556 6.999 72.549 2.006 78.71 2zm0-2H78.71c-7.259.022-13.138 5.901-13.16 13.16v95.18c.022 7.259 5.901 13.138 13.16 13.16h58.13c7.259-.022 13.138-5.901 13.16-13.16V13.16C149.978 5.901 144.099.022 136.84 0"/><rect width="68.69" height="98.82" x="73.43" y="11.34" fill="#ebf0f5" rx="10.7"/><path fill="url(#c)" d="M61.69 22.78h3.86v6.85h-3.86z"/><path fill="url(#d)" d="M61.69 95.67h3.86v6.85h-3.86z"/><path fill="url(#e)" d="M0 45.49h50.35v5.49H0z"/><path fill="url(#f)" d="M30.41 40.83h15.96v15.09H30.41z"/><path fill="url(#g)" d="m50.35 60.86-3.97-4.98V40.64l3.97-4.98z"/><path fill="url(#h)" d="M50.35 35.66h15.2v25.2h-15.2z"/></g></svg>