<svg xmlns="http://www.w3.org/2000/svg" viewBox="0 0 95 150"><title>Boiler 4(锅炉4)</title><defs><linearGradient id="a" x1="16.337%" x2="116.425%" y1="50.169%" y2="50.169%"><stop offset="0%" stop-color="#767b82"/><stop offset="1%" stop-color="#a5aaaf"/><stop offset="3%" stop-color="#d7dce0"/><stop offset="6%" stop-color="#9ba1ab"/><stop offset="96%" stop-color="#a9b1bb"/><stop offset="97%" stop-color="#9da4ae"/><stop offset="100%" stop-color="#7d838a"/><stop offset="100%" stop-color="#767b82"/></linearGradient><linearGradient id="b" x1="118.624%" x2="18.569%" y1="49.786%" y2="49.786%"><stop offset="0%" stop-color="#767b82"/><stop offset="0%" stop-color="#7d838a"/><stop offset="3%" stop-color="#9da4ae"/><stop offset="4%" stop-color="#a9b1bb"/><stop offset="94%" stop-color="#9ba1ab"/><stop offset="97%" stop-color="#d7dce0"/><stop offset="99%" stop-color="#a5aaaf"/><stop offset="100%" stop-color="#767b82"/></linearGradient><linearGradient id="c" x1="13.915%" x2="113.995%" y1="50.169%" y2="50.169%"><stop offset="0%" stop-color="#767b82"/><stop offset="4%" stop-color="#a5aaaf"/><stop offset="8%" stop-color="#d7dce0"/><stop offset="16%" stop-color="#9ba1ab"/><stop offset="92%" stop-color="#a9b1bb"/><stop offset="95%" stop-color="#9da4ae"/><stop offset="99%" stop-color="#7d838a"/><stop offset="100%" stop-color="#767b82"/></linearGradient><linearGradient id="d" x1="16.337%" x2="116.425%" y1="49.687%" y2="49.687%"><stop offset="0%" stop-color="#767b82"/><stop offset="1%" stop-color="#a5aaaf"/><stop offset="3%" stop-color="#d7dce0"/><stop offset="6%" stop-color="#9ba1ab"/><stop offset="96%" stop-color="#a9b1bb"/><stop offset="97%" stop-color="#9da4ae"/><stop offset="100%" stop-color="#7d838a"/><stop offset="100%" stop-color="#767b82"/></linearGradient><linearGradient id="e" x1="18.475%" x2="118.565%" y1="51.215%" y2="51.215%"><stop offset="0%" stop-color="#767b82"/><stop offset="1%" stop-color="#a5aaaf"/><stop offset="3%" stop-color="#d7dce0"/><stop offset="6%" stop-color="#9ba1ab"/><stop offset="96%" stop-color="#a9b1bb"/><stop offset="97%" stop-color="#9da4ae"/><stop offset="100%" stop-color="#7d838a"/><stop offset="100%" stop-color="#767b82"/></linearGradient><linearGradient id="f" x1="19.78%" x2="119.879%" y1="52.21%" y2="52.21%"><stop offset="0%" stop-color="#767b82"/><stop offset="4%" stop-color="#a5aaaf"/><stop offset="8%" stop-color="#d7dce0"/><stop offset="16%" stop-color="#9ba1ab"/><stop offset="92%" stop-color="#a9b1bb"/><stop offset="95%" stop-color="#9da4ae"/><stop offset="99%" stop-color="#7d838a"/><stop offset="100%" stop-color="#767b82"/></linearGradient><linearGradient id="g" x1="23.002%" x2="123.106%" y1="50.816%" y2="50.816%"><stop offset="0%" stop-color="#767b82"/><stop offset="4%" stop-color="#a5aaaf"/><stop offset="8%" stop-color="#d7dce0"/><stop offset="16%" stop-color="#9ba1ab"/><stop offset="92%" stop-color="#a9b1bb"/><stop offset="95%" stop-color="#9da4ae"/><stop offset="99%" stop-color="#7d838a"/><stop offset="100%" stop-color="#767b82"/></linearGradient><linearGradient id="h" x1="99.979%" x2="0%" y1="50.023%" y2="50.023%"><stop offset="0%" stop-color="#767b82"/><stop offset="0%" stop-color="#7d838a"/><stop offset="3%" stop-color="#9da4ae"/><stop offset="4%" stop-color="#a9b1bb"/><stop offset="94%" stop-color="#9ba1ab"/><stop offset="97%" stop-color="#d7dce0"/><stop offset="99%" stop-color="#a5aaaf"/><stop offset="100%" stop-color="#767b82"/></linearGradient><linearGradient id="i" x1="100%" x2="0%" y1="49.825%" y2="49.825%"><stop offset="0%" stop-color="#767b82"/><stop offset="7%" stop-color="#9ba1ab"/><stop offset="22%" stop-color="#e2eaf2"/><stop offset="94%" stop-color="#767b82"/><stop offset="100%" stop-color="#a9b1bb"/></linearGradient><linearGradient id="j" x1="100%" x2="0%" y1="49.653%" y2="49.653%"><stop offset="0%" stop-color="#767b82"/><stop offset="7%" stop-color="#9ba1ab"/><stop offset="22%" stop-color="#e2eaf2"/><stop offset="94%" stop-color="#767b82"/><stop offset="100%" stop-color="#a9b1bb"/></linearGradient><linearGradient id="k" x1="99.855%" x2="-.145%" y1="50%" y2="50%"><stop offset="0%" stop-color="#767b82"/><stop offset="7%" stop-color="#9ba1ab"/><stop offset="22%" stop-color="#e2eaf2"/><stop offset="94%" stop-color="#767b82"/><stop offset="100%" stop-color="#a9b1bb"/></linearGradient><linearGradient id="l" x1="100%" x2="0%" y1="51.09%" y2="51.09%"><stop offset="0%" stop-color="#767b82"/><stop offset="7%" stop-color="#9ba1ab"/><stop offset="22%" stop-color="#e2eaf2"/><stop offset="94%" stop-color="#767b82"/><stop offset="100%" stop-color="#a9b1bb"/></linearGradient><linearGradient id="m" x1="100%" x2="0%" y1="49.653%" y2="49.653%"><stop offset="0%" stop-color="#767b82"/><stop offset="7%" stop-color="#9ba1ab"/><stop offset="22%" stop-color="#e2eaf2"/><stop offset="94%" stop-color="#767b82"/><stop offset="100%" stop-color="#a9b1bb"/></linearGradient><linearGradient id="n" x1="100%" x2="0%" y1="49.848%" y2="49.848%"><stop offset="0%" stop-color="#767b82"/><stop offset="7%" stop-color="#9ba1ab"/><stop offset="22%" stop-color="#e2eaf2"/><stop offset="94%" stop-color="#767b82"/><stop offset="100%" stop-color="#a9b1bb"/></linearGradient><linearGradient id="o" x1="-.088%" x2="100%" y1="50.013%" y2="50.013%"><stop offset="2%" stop-color="#767b82"/><stop offset="14%" stop-color="#d7dce0"/><stop offset="26%" stop-color="#9ba1ab"/><stop offset="91%" stop-color="#a9b1bb"/><stop offset="100%" stop-color="#767b82"/></linearGradient><linearGradient id="p" x1="0%" x2="100%" y1="49.973%" y2="49.973%"><stop offset="2%" stop-color="#252628"/><stop offset="21%" stop-color="#b4bbc1"/><stop offset="41%" stop-color="#4c4e51"/><stop offset="100%" stop-color="#252628"/></linearGradient><linearGradient id="q" x1="0%" x2="100%" y1="50%" y2="50%"><stop offset="0%" stop-color="#767b82"/><stop offset="7%" stop-color="#9ba1ab"/><stop offset="22%" stop-color="#e2eaf2"/><stop offset="94%" stop-color="#767b82"/><stop offset="100%" stop-color="#a9b1bb"/></linearGradient></defs><g fill="none" fill-rule="evenodd" transform="translate(.01)"><path fill="url(#a)" fill-rule="nonzero" d="M5.92 0h68.09v5.92H5.92z" transform="matrix(-1 0 0 -1 79.93 5.92)"/><path fill="url(#b)" fill-rule="nonzero" d="M9.91 5.73h60.08v14H9.91z" transform="matrix(-1 0 0 -1 79.9 25.46)"/><path fill="url(#c)" fill-rule="nonzero" d="M0 144.08h79.93V150H0z" transform="matrix(-1 0 0 -1 79.93 294.08)"/><path fill="url(#d)" fill-rule="nonzero" d="M5.91 19.54H74v124.53H5.91z" transform="matrix(-1 0 0 -1 79.91 163.61)"/><path fill="url(#e)" fill-rule="nonzero" d="M9.86 106.57h60.2v34.54H9.86z" transform="matrix(-1 0 0 -1 79.92 247.68)"/><path fill="#fff" fill-rule="nonzero" d="M70.06 141.11H9.86v-34.54h60.2z" opacity=".3"/><path fill="url(#f)" fill-rule="nonzero" d="M11.84 79.87h56.25v18.82H11.84z" transform="matrix(-1 0 0 -1 79.93 178.56)"/><path fill="#fff" fill-rule="nonzero" d="M68.09 98.69H11.84V79.87h56.25z" opacity=".2"/><path fill="#a0a7b2" fill-rule="nonzero" stroke="#858c96" d="M64.14 95.73H15.79v-12.9h48.35z"/><path fill="url(#g)" fill-rule="nonzero" d="M15.77 26.65h48.36v43.42H15.77z" transform="matrix(-1 0 0 -1 79.9 96.72)"/><path fill="url(#h)" fill-rule="nonzero" d="M15.77 26.65h48.36v43.42H15.77z" transform="matrix(-1 0 0 -1 79.9 96.72)"/><path fill="#fff" fill-rule="nonzero" d="M64.13 70.07H15.77V26.65h48.36z" opacity=".3"/><path stroke="#000" d="M23.18 66.11h-2.47V53.29h2.47zM29.27 66.11H26.8V53.29h2.47zM35.35 66.11h-2.47V53.29h2.47zM41.43 66.11h-2.47V53.29h2.47zM47.53 66.11h-2.47V53.29h2.47zM53.61 66.11h-2.47V53.29h2.47zM59.7 66.11h-2.47V53.29h2.47z" opacity=".3"/><path fill="#000" fill-rule="nonzero" d="M70 6.78H9.93V5.76H70zM70 19.61H9.93v-1.02H70z" opacity=".3"/><path fill="#000" fill-rule="nonzero" d="M74.01 104.47H5.92v-2.83h68.09z" opacity=".2"/><path fill="url(#i)" fill-rule="nonzero" d="M70.935 38.455h11.69v5.7h-11.69z" transform="rotate(-90 76.78 41.305)"/><path fill="url(#j)" fill-rule="nonzero" d="M71.14 39.86h14.1v2.88h-14.1z" transform="rotate(-90 78.19 41.3)"/><path fill="url(#k)" fill-rule="nonzero" d="M77.9 116.76h6.92v14.88H77.9z" transform="rotate(-90 81.36 124.2)"/><path fill="url(#l)" fill-rule="nonzero" d="M89.43 50.67h3.62v69.45h-3.62z"/><path fill="url(#m)" fill-rule="nonzero" d="M74.01 122.77h8.34v2.88h-8.34z" transform="rotate(-90 78.18 124.21)"/><path fill="url(#n)" fill-rule="nonzero" d="M86.72 120.92h8.34v6.58h-8.34z" transform="rotate(-90 90.89 124.21)"/><path fill="url(#o)" fill-rule="nonzero" d="M73.51 71.04h11.34v37.51H73.51z" transform="matrix(-1 0 0 -1 158.36 179.59)"/><path fill="url(#p)" fill-rule="nonzero" d="M87.92 34.65h7.01v18.31h-7.01z" transform="matrix(-1 0 0 -1 182.85 87.61)"/><circle cx="25.75" cy="37.99" r="6.81" fill="#5d646c" fill-rule="nonzero" stroke="#b4bcc5" stroke-width=".5"/><circle cx="25.75" cy="37.99" r="5.54" fill="#cfd5db" fill-rule="nonzero"/><path fill="#a63c27" fill-rule="nonzero" d="m28.97 34.84-6.3 5.27 1.03 1.03z"/><circle cx="25.75" cy="37.99" r="1" fill="#a8afb5" fill-rule="nonzero"/><circle cx="39.56" cy="37.99" r="3.46" fill="#b4bcc5" fill-rule="nonzero" stroke="#747c82" stroke-width=".75"/><circle cx="39.56" cy="37.99" r="1.98" fill="url(#q)" fill-rule="nonzero"/><circle cx="53.38" cy="37.99" r="6.81" fill="#5d646c" fill-rule="nonzero" stroke="#b4bcc5" stroke-width=".5"/><circle cx="53.38" cy="37.99" r="5.54" fill="#cfd5db" fill-rule="nonzero"/><path fill="#a63c27" fill-rule="nonzero" d="m56.53 41.21-5.27-6.3-1.03 1.03z"/><circle cx="53.38" cy="37.99" r="1" fill="#a8afb5" fill-rule="nonzero"/></g></svg>