<svg xmlns="http://www.w3.org/2000/svg" viewBox="0 0 150 83"><title>Flexible water tube boiler(可调水管式锅炉)</title><defs><linearGradient id="a" x1="85.344%" x2="14.651%" y1="26.235%" y2="86.3%"><stop offset="0%" stop-color="#abafb3"/><stop offset="100%" stop-color="#5c6066"/></linearGradient><linearGradient id="b" x1="0%" x2="99.95%" y1="49.973%" y2="49.973%"><stop offset="0%" stop-color="#767b82"/><stop offset="7%" stop-color="#9ba1ab"/><stop offset="22%" stop-color="#e2eaf2"/><stop offset="94%" stop-color="#767b82"/><stop offset="100%" stop-color="#a9b1bb"/></linearGradient><linearGradient id="c" x1="77.643%" x2="16.137%" y1="39.499%" y2="71.059%"><stop offset="0%" stop-color="#d7dce0"/><stop offset="100%" stop-color="#8a9099"/></linearGradient><linearGradient id="d" x1="89.494%" x2="10.467%" y1="22.059%" y2="105.556%"><stop offset="0%" stop-color="#d7dce0"/><stop offset="100%" stop-color="#8a9099"/></linearGradient><linearGradient id="e" x1="0%" x2="100%" y1="50.03%" y2="50.03%"><stop offset="0%" stop-color="#767b82"/><stop offset="32%" stop-color="#f5faff"/><stop offset="55%" stop-color="#9ba1ab"/><stop offset="100%" stop-color="#45484d"/></linearGradient><linearGradient id="f" x1="0%" x2="100%" y1="50%" y2="50%"><stop offset="0%" stop-color="#45484d"/><stop offset="45%" stop-color="#9ba1ab"/><stop offset="68%" stop-color="#f5faff"/><stop offset="100%" stop-color="#767b82"/></linearGradient><linearGradient id="g" x1="50%" x2="50%" y1="0%" y2="99.722%"><stop offset="2%" stop-color="#767b82"/><stop offset="4%" stop-color="#d7dce0"/><stop offset="9%" stop-color="#9ba1ab"/><stop offset="92%" stop-color="#9ba1ab"/><stop offset="100%" stop-color="#767b82"/></linearGradient><linearGradient id="h" x1="50%" x2="50%" y1="111.783%" y2="-11.783%"><stop offset="0%" stop-color="#dce1e6"/><stop offset="100%" stop-color="#5c6066"/></linearGradient><linearGradient id="i" x1="0%" x2="100.063%" y1="49.963%" y2="49.963%"><stop offset="0%" stop-color="#767b82"/><stop offset="7%" stop-color="#9ba1ab"/><stop offset="22%" stop-color="#e2eaf2"/><stop offset="94%" stop-color="#767b82"/><stop offset="100%" stop-color="#a9b1bb"/></linearGradient><linearGradient id="j" x1="92.134%" x2="7.866%" y1="21.124%" y2="78.882%"><stop offset="0%" stop-color="#d7dce0"/><stop offset="100%" stop-color="#8a9099"/></linearGradient><linearGradient id="k" x1="50%" x2="50%" y1="-9.286%" y2="108.571%"><stop offset="0%" stop-color="#dce1e6"/><stop offset="100%" stop-color="#5c6066"/></linearGradient><linearGradient id="l" x1="50%" x2="50%" y1="-8.571%" y2="108.571%"><stop offset="0%" stop-color="#dce1e6"/><stop offset="100%" stop-color="#5c6066"/></linearGradient><linearGradient id="m" x1="50.435%" x2="50.435%" y1="-8.571%" y2="108.571%"><stop offset="0%" stop-color="#dce1e6"/><stop offset="100%" stop-color="#5c6066"/></linearGradient><linearGradient id="n" x1="0%" x2="100%" y1="50.211%" y2="50.211%"><stop offset="0%" stop-color="#767b82"/><stop offset="7%" stop-color="#9ba1ab"/><stop offset="22%" stop-color="#e2eaf2"/><stop offset="28%" stop-color="#d1d8e0"/><stop offset="49%" stop-color="#a1a7ae"/><stop offset="67%" stop-color="#7e8489"/><stop offset="81%" stop-color="#696e73"/><stop offset="91%" stop-color="#61666b"/><stop offset="100%" stop-color="#a9b1bb"/></linearGradient><linearGradient id="o" x1="50.139%" x2="50.139%" y1="0%" y2="100%"><stop offset="0%" stop-color="#a9b1bb"/><stop offset="9%" stop-color="#61666b"/><stop offset="19%" stop-color="#696e73"/><stop offset="33%" stop-color="#7e8489"/><stop offset="51%" stop-color="#a1a7ae"/><stop offset="72%" stop-color="#d1d8e0"/><stop offset="78%" stop-color="#e2eaf2"/><stop offset="93%" stop-color="#9ba1ab"/><stop offset="100%" stop-color="#767b82"/></linearGradient></defs><g fill="none" fill-rule="nonzero"><path fill="url(#a)" d="M29.76 62.65a14.06 14.06 0 0 1-2.54 8.07 13.4 13.4 0 0 1-1.52 1.84H5.57a13.4 13.4 0 0 1-1.52-1.84A14.11 14.11 0 0 1 8.7 50.35a14.15 14.15 0 0 1 13.74 0 14.14 14.14 0 0 1 7.32 12.3"/><path fill="url(#b)" d="M19.33 48.89h20.15v18.47H19.33z" transform="rotate(90 29.405 58.125)"/><path fill="url(#c)" d="m30.55 54.56-2.95.95-11.94 3.91L3 59.23l-3-.04a15.66 15.66 0 0 1 30.55-4.63"/><path fill="url(#d)" d="M27.22 59.64v12.92H4.05V59.64a11.6 11.6 0 0 1 3.4-8.2 12 12 0 0 1 1.25-1.09 11.53 11.53 0 0 1 13.74 0 11.64 11.64 0 0 1 4.78 9.29"/><circle cx="15.63" cy="56.77" r="4.53" fill="#222a34"/><rect width="4.92" height="32.86" x="27.21" y="12.6" fill="url(#e)" rx="2.46" transform="rotate(90 29.67 29.03)"/><rect width="4.92" height="32.86" x="13.26" y="26.56" fill="url(#f)" rx="2.46"/><path fill="url(#g)" d="M22.86 78.97H150v3.6H22.86z"/><circle cx="143.46" cy="70.63" r="1.57" fill="#222a34" stroke="url(#h)" stroke-width=".75"/><path fill="url(#i)" d="M24.005 8.815h15.78v13.47h-15.78z" transform="rotate(90 31.895 15.55)"/><path fill="url(#j)" d="M38.64 2.64H150v76.32H38.64z"/><path fill="#222a34" stroke="url(#k)" stroke-width=".25" d="M45.79 44.19h2.3v1.4h-2.3z"/><path fill="#222a34" stroke="url(#k)" stroke-width=".25" d="M45.79 67.7h2.3v1.4h-2.3z"/><path fill="#222a34" stroke="url(#l)" stroke-width=".25" d="M45.79 55.94h2.3v1.4h-2.3z"/><path fill="#222a34" stroke="url(#l)" stroke-width=".25" d="M57.55 55.94h2.3v1.4h-2.3z"/><path fill="#222a34" stroke="url(#l)" stroke-width=".25" d="M69.3 55.94h2.3v1.4h-2.3z"/><path fill="#222a34" stroke="url(#l)" stroke-width=".25" d="M81.06 55.94h2.3v1.4h-2.3z"/><path fill="#222a34" stroke="url(#m)" stroke-width=".25" d="M92.81 55.94h2.3v1.4h-2.3z"/><path fill="#222a34" stroke="url(#l)" stroke-width=".25" d="M104.57 55.94h2.3v1.4h-2.3z"/><path fill="#222a34" stroke="url(#l)" stroke-width=".25" d="M116.33 55.94h2.3v1.4h-2.3z"/><path fill="#222a34" stroke="url(#m)" stroke-width=".25" d="M128.08 55.94h2.3v1.4h-2.3z"/><path fill="#222a34" stroke="url(#l)" stroke-width=".25" d="M139.84 55.94h2.3v1.4h-2.3z"/><path fill="url(#n)" d="M26.43.7h2.43v2.37h-2.43z" transform="matrix(-1 0 0 -1 55.29 3.77)"/><circle cx="27.65" cy="4.93" r="2.48" fill="#5d646c" stroke="#b4bcc5" stroke-width=".5"/><circle cx="27.65" cy="4.93" r="2.02" fill="#cfd5db"/><path fill="#a63c27" d="m28.82 3.78-2.3 1.92.38.38z"/><circle cx="27.65" cy="4.93" r="1" fill="#a8afb5"/><path fill="url(#o)" d="M25.84 0h3.61v1.35h-3.61z" transform="matrix(-1 0 0 -1 55.29 1.35)"/></g></svg>