<svg xmlns="http://www.w3.org/2000/svg" viewBox="0 0 83 150"><title>Heat tank(蓄热罐)</title><defs><linearGradient id="a" x1="50%" x2="50%" y1="0%" y2="100.408%"><stop offset="0%" stop-color="#767b82"/><stop offset="8%" stop-color="#9ba1ab"/><stop offset="91%" stop-color="#9ba1ab"/><stop offset="96%" stop-color="#d7dce0"/><stop offset="98%" stop-color="#767b82"/></linearGradient><linearGradient id="b" x1="0%" x2="100%" y1="50%" y2="50%"><stop offset="0%" stop-color="#767b82"/><stop offset="8%" stop-color="#9ba1ab"/><stop offset="91%" stop-color="#9ba1ab"/><stop offset="96%" stop-color="#d7dce0"/><stop offset="98%" stop-color="#767b82"/></linearGradient><linearGradient id="c" x1="0%" x2="100.119%" y1="49.987%" y2="49.987%"><stop offset="0%" stop-color="#767b82"/><stop offset="8%" stop-color="#9ba1ab"/><stop offset="91%" stop-color="#9ba1ab"/><stop offset="96%" stop-color="#d7dce0"/><stop offset="98%" stop-color="#767b82"/></linearGradient><linearGradient id="d" x1="0%" x2="100%" y1="50%" y2="50%"><stop offset="0%" stop-color="#767b82"/><stop offset="8%" stop-color="#9ba1ab"/><stop offset="91%" stop-color="#9ba1ab"/><stop offset="96%" stop-color="#d7dce0"/><stop offset="98%" stop-color="#767b82"/></linearGradient><linearGradient id="e" x1="0%" x2="100%" y1="49.987%" y2="49.987%"><stop offset="0%" stop-color="#767b82"/><stop offset="8%" stop-color="#9ba1ab"/><stop offset="91%" stop-color="#9ba1ab"/><stop offset="96%" stop-color="#d7dce0"/><stop offset="98%" stop-color="#767b82"/></linearGradient><linearGradient id="f" x1="0%" x2="100%" y1="50%" y2="50%"><stop offset="0%" stop-color="#767b82"/><stop offset="8%" stop-color="#9ba1ab"/><stop offset="91%" stop-color="#9ba1ab"/><stop offset="96%" stop-color="#d7dce0"/><stop offset="98%" stop-color="#767b82"/></linearGradient><linearGradient id="g" x1="0%" x2="100%" y1="50%" y2="50%"><stop offset="0%" stop-color="#a9b1bb"/><stop offset="9%" stop-color="#61666b"/><stop offset="18%" stop-color="#696e73"/><stop offset="32%" stop-color="#7e8489"/><stop offset="49%" stop-color="#a1a7ae"/><stop offset="69%" stop-color="#d1d8e0"/><stop offset="75%" stop-color="#e2eaf2"/><stop offset="93%" stop-color="#9ba1ab"/><stop offset="100%" stop-color="#767b82"/></linearGradient><linearGradient id="h" x1="33.464%" x2="67.604%" y1="55.51%" y2="47.126%"><stop offset="0%" stop-color="#a9b1bb"/><stop offset="9%" stop-color="#61666b"/><stop offset="18%" stop-color="#696e73"/><stop offset="31%" stop-color="#7e8489"/><stop offset="46%" stop-color="#a1a7ae"/><stop offset="65%" stop-color="#d1d8e0"/><stop offset="70%" stop-color="#e2eaf2"/><stop offset="93%" stop-color="#9ba1ab"/><stop offset="100%" stop-color="#767b82"/></linearGradient><linearGradient id="i" x1="33.477%" x2="67.604%" y1="44.49%" y2="52.874%"><stop offset="0%" stop-color="#a9b1bb"/><stop offset="9%" stop-color="#61666b"/><stop offset="18%" stop-color="#696e73"/><stop offset="31%" stop-color="#7e8489"/><stop offset="46%" stop-color="#a1a7ae"/><stop offset="65%" stop-color="#d1d8e0"/><stop offset="70%" stop-color="#e2eaf2"/><stop offset="93%" stop-color="#9ba1ab"/><stop offset="100%" stop-color="#767b82"/></linearGradient></defs><g fill="none" fill-rule="nonzero"><path fill="url(#a)" d="M15.043 111.517h12.8v2.45h-12.8z" transform="rotate(-45 21.443 112.742)"/><path fill="url(#b)" d="M58.465 106.338h2.45v12.8h-2.45z" transform="rotate(-45 59.69 112.738)"/><path fill="url(#c)" d="M4.07 111.17h8.38V150H4.07z"/><path fill="url(#d)" d="M0 144.46h16.53V150H0z"/><path fill="url(#e)" d="M69.61 111.16h8.38v38.83h-8.38z"/><path fill="url(#f)" d="M65.54 144.46h16.53V150H65.54z"/><path fill="url(#g)" d="M.53 14.02h81.4v93.36H.53z"/><path fill="#252628" d="M.53 15.56h81.4v1H.53zM.53 18.57h81.4v1H.53z" opacity=".6"/><path fill="url(#h)" d="M81.93 14H.53S5.76 0 41.23 0s40.7 14 40.7 14"/><path fill="url(#i)" d="M81.93 107.38H.53s5.23 14 40.7 14 40.7-14 40.7-14"/></g></svg>