<svg xmlns="http://www.w3.org/2000/svg" viewBox="0 0 151 137"><title>Low emission boiler(低污染锅炉)</title><defs><linearGradient id="a" x1="49.905%" x2="49.905%" y1="0%" y2="100%"><stop offset="0%" stop-color="#767b82"/><stop offset="7%" stop-color="#9ba1ab"/><stop offset="22%" stop-color="#e2eaf2"/><stop offset="94%" stop-color="#5d6166"/><stop offset="100%" stop-color="#a9b1bb"/></linearGradient><linearGradient id="b" x1="49.905%" x2="49.905%" y1="0%" y2="100%"><stop offset="0%" stop-color="#767b82"/><stop offset="7%" stop-color="#9ba1ab"/><stop offset="22%" stop-color="#e2eaf2"/><stop offset="94%" stop-color="#5d6166"/><stop offset="100%" stop-color="#a9b1bb"/></linearGradient><linearGradient id="c" x1="49.997%" x2="49.997%" y1="100%" y2="0%"><stop offset="0%" stop-color="#d7dce0"/><stop offset="100%" stop-color="#8a9099"/></linearGradient><linearGradient id="d" x1="50%" x2="50%" y1="0%" y2="100.008%"><stop offset="0%" stop-color="#767b82"/><stop offset="2%" stop-color="#9ba1ab"/><stop offset="4%" stop-color="#e2eaf2"/><stop offset="6%" stop-color="#a3abb3"/><stop offset="94%" stop-color="#8b9199"/><stop offset="100%" stop-color="#a9b1bb"/></linearGradient><linearGradient id="e" x1="50%" x2="50%" y1="100%" y2="0%"><stop offset="0%" stop-color="#939699"/><stop offset="100%" stop-color="#737880"/></linearGradient><linearGradient id="f" x1="50%" x2="50%" y1="100%" y2="0%"><stop offset="0%" stop-color="#c4c8cc"/><stop offset="100%" stop-color="#8a9099"/></linearGradient><linearGradient id="g" x1="50%" x2="50%" y1="100%" y2="0%"><stop offset="0%" stop-color="#e6f1ff" stop-opacity="0"/><stop offset="16%" stop-color="#e6f1ff" stop-opacity=".01"/><stop offset="29%" stop-color="#e6f1ff" stop-opacity=".05"/><stop offset="41%" stop-color="#e7f1ff" stop-opacity=".12"/><stop offset="53%" stop-color="#e8f2ff" stop-opacity=".21"/><stop offset="63%" stop-color="#e9f2ff" stop-opacity=".33"/><stop offset="74%" stop-color="#eaf2ff" stop-opacity=".48"/><stop offset="84%" stop-color="#ebf3ff" stop-opacity=".66"/><stop offset="94%" stop-color="#edf4ff" stop-opacity=".85"/><stop offset="100%" stop-color="#eef4ff"/></linearGradient><linearGradient id="h" x1="50%" x2="50%" y1="100%" y2="0%"><stop offset="0%" stop-color="#7a7d80"/><stop offset="100%" stop-color="#b7bfcc"/></linearGradient><linearGradient id="i" x1="49.889%" x2="49.889%" y1="100%" y2=".008%"><stop offset="55%" stop-color="#7a7d80" stop-opacity="0"/><stop offset="100%" stop-color="#e5efff"/></linearGradient><linearGradient id="j" x1="50%" x2="50%" y1="100%" y2="0%"><stop offset="0%" stop-color="#7a7d80"/><stop offset="100%" stop-color="#b7bfcc"/></linearGradient><linearGradient id="k" x1="50%" x2="50%" y1="98.538%" y2="0%"><stop offset="0%" stop-color="#7a7d80"/><stop offset="100%" stop-color="#b7bfcc"/></linearGradient><linearGradient id="l" x1="49.889%" x2="49.889%" y1="100%" y2="-1.435%"><stop offset="55%" stop-color="#7a7d80" stop-opacity="0"/><stop offset="100%" stop-color="#e5efff"/></linearGradient><linearGradient id="m" x1="50.222%" x2="50.222%" y1="100%" y2=".004%"><stop offset="55%" stop-color="#7a7d80" stop-opacity="0"/><stop offset="100%" stop-color="#e5efff"/></linearGradient><linearGradient id="n" x1="50.223%" x2="50.223%" y1="100%" y2="1.06%"><stop offset="55%" stop-color="#7a7d80" stop-opacity="0"/><stop offset="100%" stop-color="#e5efff"/></linearGradient><linearGradient id="o" x1="50.224%" x2="50.224%" y1="100%" y2=".004%"><stop offset="55%" stop-color="#7a7d80" stop-opacity="0"/><stop offset="100%" stop-color="#e5efff"/></linearGradient><linearGradient id="p" x1="50.222%" x2="50.222%" y1="100%" y2="0%"><stop offset="55%" stop-color="#7a7d80" stop-opacity="0"/><stop offset="100%" stop-color="#e5efff"/></linearGradient><linearGradient id="q" x1="50.224%" x2="50.224%" y1="100%" y2="1.071%"><stop offset="55%" stop-color="#7a7d80" stop-opacity="0"/><stop offset="100%" stop-color="#e5efff"/></linearGradient><linearGradient id="r" x1="50.222%" x2="50.222%" y1="100%" y2="0%"><stop offset="55%" stop-color="#7a7d80" stop-opacity="0"/><stop offset="100%" stop-color="#e5efff"/></linearGradient><linearGradient id="s" x1="49.951%" x2="49.951%" y1="98.538%" y2=".001%"><stop offset="0%" stop-color="#7a7d80"/><stop offset="100%" stop-color="#b7bfcc"/></linearGradient><linearGradient id="t" x1="50.222%" x2="50.222%" y1="100%" y2="-1.444%"><stop offset="55%" stop-color="#7a7d80" stop-opacity="0"/><stop offset="100%" stop-color="#e5efff"/></linearGradient><linearGradient id="u" x1="50.05%" x2="50.05%" y1="100%" y2=".001%"><stop offset="0%" stop-color="#7a7d80"/><stop offset="100%" stop-color="#b7bfcc"/></linearGradient><linearGradient id="v" x1="50.049%" x2="50.049%" y1="100%" y2=".001%"><stop offset="0%" stop-color="#7a7d80"/><stop offset="100%" stop-color="#b7bfcc"/></linearGradient><linearGradient id="w" x1="50.049%" x2="50.049%" y1="98.538%" y2=".001%"><stop offset="0%" stop-color="#7a7d80"/><stop offset="100%" stop-color="#b7bfcc"/></linearGradient><linearGradient id="x" x1="50.222%" x2="50.222%" y1="100%" y2="-1.435%"><stop offset="55%" stop-color="#7a7d80" stop-opacity="0"/><stop offset="100%" stop-color="#e5efff"/></linearGradient><linearGradient id="y" x1="49.951%" x2="49.951%" y1="100%" y2=".001%"><stop offset="0%" stop-color="#7a7d80"/><stop offset="100%" stop-color="#b7bfcc"/></linearGradient><linearGradient id="z" x1="49.951%" x2="49.951%" y1="100%" y2=".001%"><stop offset="0%" stop-color="#7a7d80"/><stop offset="100%" stop-color="#b7bfcc"/></linearGradient><linearGradient id="A" x1="50.223%" x2="50.223%" y1="100%" y2="1.065%"><stop offset="55%" stop-color="#7a7d80" stop-opacity="0"/><stop offset="100%" stop-color="#e5efff"/></linearGradient><linearGradient id="B" x1="50%" x2="50%" y1="98.538%" y2=".001%"><stop offset="0%" stop-color="#7a7d80"/><stop offset="100%" stop-color="#b7bfcc"/></linearGradient><linearGradient id="C" x1="50%" x2="50%" y1="99.704%" y2="0%"><stop offset="0%" stop-color="#7a7d80"/><stop offset="100%" stop-color="#b7bfcc"/></linearGradient></defs><g fill="none" fill-rule="evenodd"><path fill="url(#a)" fill-rule="nonzero" d="M0 15.99h5.25v15.25H0z" transform="translate(0 .13)"/><path fill="url(#a)" fill-rule="nonzero" d="M0 59.63h5.25v15.25H0z" transform="translate(0 .13)"/><path fill="url(#b)" fill-rule="nonzero" d="M0 111.56h5.25v8.45H0z" transform="translate(0 .13)"/><path fill="url(#c)" fill-rule="nonzero" stroke="#5f6366" stroke-width=".25" d="M5.25 0H150v124.9H5.25z" transform="translate(0 .13)"/><path fill="url(#d)" fill-rule="nonzero" stroke="#5f6366" stroke-width=".25" d="M8.81 3.78h137.62v121.11H8.81z" transform="translate(0 .13)"/><path fill="url(#e)" fill-rule="nonzero" stroke="#5f6366" stroke-width=".25" d="M8.81 124.9h137.62v11.28H8.81z" transform="translate(0 .13)"/><path fill="url(#f)" fill-rule="nonzero" stroke="#5f6366" stroke-width=".25" d="M8.81 88.15h137.62v36.75H8.81z" transform="translate(0 .13)"/><path stroke="#5f6366" stroke-width=".25" d="M8.81 34.01h68.81v54.27H8.81zm68.81 0h68.81v54.27H77.62z"/><path fill="#6c7076" fill-rule="nonzero" d="M67.83 13.1h20.7v13.44h-20.7z"/><path fill="#bfc3cc" fill-rule="nonzero" d="M70.07 15.65H86.3v8.36H70.07z"/><path fill="url(#g)" fill-rule="nonzero" d="M70.07 23.88v-8.36h16.22" transform="translate(0 .13)"/><path fill="#d3441e" fill-rule="nonzero" d="M73.37 32.19a1.44 1.44 0 1 1 1.43-1.43 1.43 1.43 0 0 1-1.43 1.43"/><path fill="#46494d" fill-rule="nonzero" d="M73.37 29.44a1.32 1.32 0 1 1 0 2.64 1.32 1.32 0 0 1 0-2.64m0-.25a1.57 1.57 0 1 0-.02 3.14 1.57 1.57 0 0 0 .02-3.14"/><path fill="#42ba09" fill-rule="nonzero" d="M78.09 32.19a1.44 1.44 0 1 1 1.43-1.43c0 .79-.64 1.43-1.43 1.43"/><path fill="#46494d" fill-rule="nonzero" d="M78.09 29.44a1.32 1.32 0 1 1 0 2.64 1.32 1.32 0 0 1 0-2.64m0-.25a1.57 1.57 0 1 0-.02 3.14 1.57 1.57 0 0 0 .02-3.14"/><path fill="#e2951a" fill-rule="nonzero" d="M82.81 32.19a1.44 1.44 0 1 1 1.43-1.43 1.43 1.43 0 0 1-1.43 1.43"/><path fill="#46494d" fill-rule="nonzero" d="M82.81 29.44a1.32 1.32 0 1 1 0 2.64 1.32 1.32 0 0 1 0-2.64m0-.25a1.57 1.57 0 1 0-.02 3.14 1.57 1.57 0 0 0 .02-3.14"/><path fill="url(#h)" fill-rule="nonzero" d="M23.62 94.28h5.74a2.18 2.18 0 0 1 2.18 2.18v1.19h-10.1v-1.18a2.18 2.18 0 0 1 2.18-2.19" transform="translate(0 .13)"/><path fill="url(#i)" fill-rule="nonzero" d="M9 2.81H0v-.9A1.91 1.91 0 0 1 1.9 0h5.15A1.92 1.92 0 0 1 9 1.91zm-8.45-.5h7.87v-.4A1.36 1.36 0 0 0 7.06.55H1.91A1.36 1.36 0 0 0 .55 1.91z" opacity=".6" transform="translate(22 94.69)"/><path fill="url(#j)" fill-rule="nonzero" d="M23.62 99.62h5.74a2.18 2.18 0 0 1 2.18 2.18v1.19h-10.1v-1.19a2.18 2.18 0 0 1 2.18-2.18" transform="translate(0 .13)"/><path fill="url(#i)" fill-rule="nonzero" d="M9 2.81H0v-.9A1.91 1.91 0 0 1 1.9 0h5.15A1.92 1.92 0 0 1 9 1.91zM.58 2.27h7.87v-.36A1.36 1.36 0 0 0 7.09.55H1.91A1.36 1.36 0 0 0 .55 1.91z" opacity=".6" transform="translate(22 100.03)"/><path fill="url(#j)" fill-rule="nonzero" d="M23.62 104.96h5.74a2.18 2.18 0 0 1 2.18 2.18v1.19h-10.1v-1.19a2.18 2.18 0 0 1 2.18-2.18" transform="translate(0 .13)"/><path fill="url(#i)" fill-rule="nonzero" d="M9 2.81H0v-.9A1.91 1.91 0 0 1 1.9 0h5.15A1.92 1.92 0 0 1 9 1.91zM.58 2.27h7.87v-.36A1.36 1.36 0 0 0 7.09.55H1.91A1.36 1.36 0 0 0 .55 1.91z" opacity=".6" transform="translate(22 105.37)"/><path fill="url(#j)" fill-rule="nonzero" d="M23.62 110.3h5.74a2.18 2.18 0 0 1 2.18 2.18v1.19h-10.1v-1.19a2.18 2.18 0 0 1 2.18-2.18" transform="translate(0 .13)"/><path fill="url(#i)" fill-rule="nonzero" d="M9 2.81H0v-.9A1.91 1.91 0 0 1 1.9 0h5.15A1.92 1.92 0 0 1 9 1.91zM.55 2.29h7.87v-.36A1.36 1.36 0 0 0 7.06.57H1.91A1.36 1.36 0 0 0 .55 1.93z" opacity=".6" transform="translate(22 110.71)"/><path fill="url(#k)" fill-rule="nonzero" d="M23.62 115.64h5.74a2.18 2.18 0 0 1 2.18 2.23v1.19h-10.1v-1.19a2.18 2.18 0 0 1 2.18-2.23" transform="translate(0 .13)"/><path fill="url(#l)" fill-rule="nonzero" d="M9 2.77H0v-.86A1.91 1.91 0 0 1 1.9 0h5.15A1.92 1.92 0 0 1 9 1.91zM.58 2.22h7.87v-.31A1.36 1.36 0 0 0 7.09.55H1.91A1.36 1.36 0 0 0 .55 1.91z" opacity=".6" transform="translate(22 116.09)"/><path fill="url(#h)" fill-rule="nonzero" d="M40.71 94.28h5.74a2.18 2.18 0 0 1 2.18 2.18v1.19h-10.1v-1.18a2.18 2.18 0 0 1 2.18-2.19" transform="translate(0 .13)"/><path fill="url(#m)" fill-rule="nonzero" d="M9 2.81H0v-.9A1.92 1.92 0 0 1 1.94 0h5.15a1.91 1.91 0 0 1 1.9 1.91zm-8.41-.5h7.87v-.4A1.36 1.36 0 0 0 7.1.55H1.94A1.36 1.36 0 0 0 .58 1.91z" opacity=".6" transform="translate(39.06 94.69)"/><path fill="url(#j)" fill-rule="nonzero" d="M40.71 99.62h5.74a2.18 2.18 0 0 1 2.18 2.18v1.19h-10.1v-1.19a2.18 2.18 0 0 1 2.18-2.18" transform="translate(0 .13)"/><path fill="url(#n)" fill-rule="nonzero" d="M9 2.84H0v-.9A1.92 1.92 0 0 1 1.94 0h5.15a1.91 1.91 0 0 1 1.9 1.91zM.59 2.3h7.87v-.36A1.36 1.36 0 0 0 7.1.58H1.94A1.36 1.36 0 0 0 .58 1.94z" opacity=".6" transform="translate(39.06 100)"/><path fill="url(#j)" fill-rule="nonzero" d="M40.71 104.96h5.74a2.18 2.18 0 0 1 2.18 2.18v1.19h-10.1v-1.19a2.18 2.18 0 0 1 2.18-2.18" transform="translate(0 .13)"/><path fill="url(#m)" fill-rule="nonzero" d="M9 2.81H0v-.9A1.92 1.92 0 0 1 1.94 0h5.15a1.91 1.91 0 0 1 1.9 1.91zM.59 2.27h7.87v-.36A1.36 1.36 0 0 0 7.1.55H1.94A1.36 1.36 0 0 0 .58 1.91z" opacity=".6" transform="translate(39.06 105.37)"/><path fill="url(#j)" fill-rule="nonzero" d="M40.71 110.3h5.74a2.18 2.18 0 0 1 2.18 2.18v1.19h-10.1v-1.19a2.18 2.18 0 0 1 2.18-2.18" transform="translate(0 .13)"/><path fill="url(#m)" fill-rule="nonzero" d="M9 2.81H0v-.9A1.92 1.92 0 0 1 1.94 0h5.15a1.91 1.91 0 0 1 1.9 1.91zM.59 2.29h7.87v-.36A1.36 1.36 0 0 0 7.1.57H1.94A1.36 1.36 0 0 0 .58 1.93z" opacity=".6" transform="translate(39.06 110.71)"/><path fill="url(#k)" fill-rule="nonzero" d="M40.71 115.64h5.74a2.18 2.18 0 0 1 2.18 2.23v1.19h-10.1v-1.19a2.18 2.18 0 0 1 2.18-2.23" transform="translate(0 .13)"/><path fill="url(#o)" fill-rule="nonzero" d="M9 2.81H0v-.86A1.92 1.92 0 0 1 1.94 0h5.15a1.91 1.91 0 0 1 1.9 1.91zM.59 2.26h7.87v-.31A1.36 1.36 0 0 0 7.1.59H1.94A1.36 1.36 0 0 0 .59 1.95z" opacity=".6" transform="translate(39.06 116.05)"/><path fill="url(#h)" fill-rule="nonzero" d="M57.8 94.28h5.74a2.18 2.18 0 0 1 2.18 2.18v1.19h-10.1v-1.18a2.18 2.18 0 0 1 2.18-2.19" transform="translate(0 .13)"/><path fill="url(#p)" fill-rule="nonzero" d="M9 2.81H0v-.9A1.91 1.91 0 0 1 1.9 0h5.15a1.91 1.91 0 0 1 1.9 1.91zm-8.41-.5h7.87v-.4A1.36 1.36 0 0 0 7.1.55H1.95A1.36 1.36 0 0 0 .59 1.91z" opacity=".6" transform="translate(56.15 94.69)"/><path fill="url(#j)" fill-rule="nonzero" d="M57.8 99.62h5.74a2.18 2.18 0 0 1 2.18 2.18v1.19h-10.1v-1.19a2.18 2.18 0 0 1 2.18-2.18" transform="translate(0 .13)"/><path fill="url(#q)" fill-rule="nonzero" d="M9 2.84H0v-.9A1.91 1.91 0 0 1 1.95 0H7.1A1.91 1.91 0 0 1 9 1.91zM.59 2.3h7.87v-.36A1.36 1.36 0 0 0 7.1.58H1.95A1.36 1.36 0 0 0 .59 1.94z" opacity=".6" transform="translate(56.15 100)"/><path fill="url(#j)" fill-rule="nonzero" d="M57.8 104.96h5.74a2.18 2.18 0 0 1 2.18 2.18v1.19h-10.1v-1.19a2.18 2.18 0 0 1 2.18-2.18" transform="translate(0 .13)"/><path fill="url(#r)" fill-rule="nonzero" d="M9 2.81H0v-.9A1.91 1.91 0 0 1 1.9 0h5.15a1.91 1.91 0 0 1 1.9 1.91zM.59 2.27h7.87v-.36A1.36 1.36 0 0 0 7.1.55H1.95A1.36 1.36 0 0 0 .59 1.91z" opacity=".6" transform="translate(56.15 105.37)"/><path fill="url(#j)" fill-rule="nonzero" d="M57.8 110.3h5.74a2.18 2.18 0 0 1 2.18 2.18v1.19h-10.1v-1.19a2.18 2.18 0 0 1 2.18-2.18" transform="translate(0 .13)"/><path fill="url(#p)" fill-rule="nonzero" d="M9 2.81H0v-.9A1.91 1.91 0 0 1 1.9 0h5.15a1.91 1.91 0 0 1 1.9 1.91zM.59 2.29h7.87v-.36A1.36 1.36 0 0 0 7.1.57H1.95A1.36 1.36 0 0 0 .59 1.93z" opacity=".6" transform="translate(56.15 110.71)"/><path fill="url(#s)" fill-rule="nonzero" d="M57.8 115.64h5.74a2.18 2.18 0 0 1 2.19 2.23v1.19H55.62v-1.19a2.18 2.18 0 0 1 2.18-2.23" transform="translate(0 .13)"/><path fill="url(#t)" fill-rule="nonzero" d="M9 2.77H0v-.86A1.91 1.91 0 0 1 1.9 0h5.15a1.91 1.91 0 0 1 1.9 1.91zM.59 2.22h7.87v-.31A1.36 1.36 0 0 0 7.1.55H1.95A1.36 1.36 0 0 0 .59 1.91z" opacity=".6" transform="translate(56.15 116.09)"/><path fill="url(#u)" fill-rule="nonzero" d="M74.9 94.28h5.74a2.18 2.18 0 0 1 2.18 2.18v1.19H72.71v-1.18a2.18 2.18 0 0 1 2.19-2.19" transform="translate(0 .13)"/><path fill="url(#p)" fill-rule="nonzero" d="M9 2.81H0v-.9A1.91 1.91 0 0 1 1.9 0h5.15a1.92 1.92 0 0 1 1.91 1.91zm-8.42-.5h7.87v-.4A1.36 1.36 0 0 0 7.09.55H1.94A1.36 1.36 0 0 0 .58 1.91z" opacity=".6" transform="translate(73.25 94.69)"/><path fill="url(#v)" fill-rule="nonzero" d="M74.9 99.62h5.74a2.18 2.18 0 0 1 2.18 2.18v1.19H72.71v-1.19a2.18 2.18 0 0 1 2.19-2.18" transform="translate(0 .13)"/><path fill="url(#p)" fill-rule="nonzero" d="M9 2.81H0v-.9A1.91 1.91 0 0 1 1.9 0h5.15a1.92 1.92 0 0 1 1.91 1.91zM.58 2.27h7.87v-.36A1.36 1.36 0 0 0 7.09.55H1.94A1.36 1.36 0 0 0 .58 1.91z" opacity=".6" transform="translate(73.25 100.03)"/><path fill="url(#v)" fill-rule="nonzero" d="M74.9 104.96h5.74a2.18 2.18 0 0 1 2.18 2.18v1.19H72.71v-1.19a2.18 2.18 0 0 1 2.19-2.18" transform="translate(0 .13)"/><path fill="url(#r)" fill-rule="nonzero" d="M9 2.81H0v-.9A1.91 1.91 0 0 1 1.9 0h5.15a1.92 1.92 0 0 1 1.91 1.91zM.58 2.27h7.87v-.36A1.36 1.36 0 0 0 7.09.55H1.94A1.36 1.36 0 0 0 .58 1.91z" opacity=".6" transform="translate(73.25 105.37)"/><path fill="url(#v)" fill-rule="nonzero" d="M74.9 110.3h5.74a2.18 2.18 0 0 1 2.18 2.18v1.19H72.71v-1.19a2.18 2.18 0 0 1 2.19-2.18" transform="translate(0 .13)"/><path fill="url(#p)" fill-rule="nonzero" d="M9 2.81H0v-.9A1.91 1.91 0 0 1 1.9 0h5.15a1.92 1.92 0 0 1 1.91 1.91zM.58 2.29h7.87v-.36A1.36 1.36 0 0 0 7.09.57H1.94A1.36 1.36 0 0 0 .58 1.93z" opacity=".6" transform="translate(73.25 110.71)"/><path fill="url(#w)" fill-rule="nonzero" d="M74.9 115.64h5.74a2.18 2.18 0 0 1 2.18 2.23v1.19H72.71v-1.19a2.18 2.18 0 0 1 2.19-2.23" transform="translate(0 .13)"/><path fill="url(#x)" fill-rule="nonzero" d="M9 2.77H0v-.86A1.91 1.91 0 0 1 1.9 0h5.15A1.92 1.92 0 0 1 9 1.91zM.58 2.22h7.87v-.31A1.36 1.36 0 0 0 7.09.55H1.94A1.36 1.36 0 0 0 .58 1.91z" opacity=".6" transform="translate(73.25 116.09)"/><path fill="url(#y)" fill-rule="nonzero" d="M92 94.28h5.74a2.18 2.18 0 0 1 2.18 2.18v1.19H89.81v-1.18A2.18 2.18 0 0 1 92 94.28" transform="translate(0 .13)"/><path fill="url(#p)" fill-rule="nonzero" d="M9 2.81H0v-.9A1.92 1.92 0 0 1 1.91 0h5.15a1.91 1.91 0 0 1 1.9 1.91zm-8.41-.5h7.87v-.4A1.36 1.36 0 0 0 7.1.55H1.95A1.36 1.36 0 0 0 .59 1.91z" opacity=".6" transform="translate(90.34 94.69)"/><path fill="url(#z)" fill-rule="nonzero" d="M92 99.62h5.74a2.18 2.18 0 0 1 2.18 2.18v1.19H89.81v-1.19A2.18 2.18 0 0 1 92 99.62" transform="translate(0 .13)"/><path fill="url(#A)" fill-rule="nonzero" d="M9 2.84H0v-.9A1.92 1.92 0 0 1 1.95 0H7.1A1.91 1.91 0 0 1 9 1.91zM.59 2.3h7.87v-.36A1.36 1.36 0 0 0 7.1.58H1.95A1.36 1.36 0 0 0 .59 1.94z" opacity=".6" transform="translate(90.34 100)"/><path fill="url(#z)" fill-rule="nonzero" d="M92 104.96h5.74a2.18 2.18 0 0 1 2.18 2.18v1.19H89.81v-1.19a2.18 2.18 0 0 1 2.19-2.18" transform="translate(0 .13)"/><path fill="url(#p)" fill-rule="nonzero" d="M9 2.81H0v-.9A1.92 1.92 0 0 1 1.91 0h5.15a1.91 1.91 0 0 1 1.9 1.91zM.59 2.27h7.87v-.36A1.36 1.36 0 0 0 7.1.55H1.95A1.36 1.36 0 0 0 .59 1.91z" opacity=".6" transform="translate(90.34 105.37)"/><path fill="url(#z)" fill-rule="nonzero" d="M92 110.3h5.74a2.18 2.18 0 0 1 2.18 2.18v1.19H89.81v-1.19A2.18 2.18 0 0 1 92 110.3" transform="translate(0 .13)"/><path fill="url(#p)" fill-rule="nonzero" d="M9 2.81H0v-.9A1.92 1.92 0 0 1 1.91 0h5.15a1.91 1.91 0 0 1 1.9 1.91zM.59 2.29h7.87v-.36A1.36 1.36 0 0 0 7.1.57H1.95A1.36 1.36 0 0 0 .59 1.93z" opacity=".6" transform="translate(90.34 110.71)"/><path fill="url(#B)" fill-rule="nonzero" d="M92 115.64h5.74a2.18 2.18 0 0 1 2.17 2.23v1.19h-10.1v-1.19a2.18 2.18 0 0 1 2.19-2.23" transform="translate(0 .13)"/><path fill="url(#t)" fill-rule="nonzero" d="M9 2.77H0v-.86A1.92 1.92 0 0 1 1.91 0h5.15a1.91 1.91 0 0 1 1.9 1.91zM.59 2.22h7.87v-.31A1.36 1.36 0 0 0 7.1.55H1.95A1.36 1.36 0 0 0 .59 1.91z" opacity=".6" transform="translate(90.34 116.09)"/><path fill="url(#C)" fill-rule="nonzero" d="M109.08 94.28h5.74a2.18 2.18 0 0 1 2.18 2.19v1.19h-10.1v-1.19a2.18 2.18 0 0 1 2.18-2.19" transform="translate(0 .13)"/><path fill="url(#p)" fill-rule="nonzero" d="M9 2.81H0v-.9A1.91 1.91 0 0 1 1.9 0h5.15a1.91 1.91 0 0 1 1.9 1.91zm-8.43-.5h7.87v-.4A1.36 1.36 0 0 0 7.08.55H1.93A1.36 1.36 0 0 0 .57 1.91z" opacity=".6" transform="translate(107.43 94.69)"/><path fill="url(#j)" fill-rule="nonzero" d="M109.08 99.62h5.74a2.18 2.18 0 0 1 2.18 2.18v1.19h-10.1v-1.19a2.18 2.18 0 0 1 2.18-2.18" transform="translate(0 .13)"/><path fill="url(#p)" fill-rule="nonzero" d="M9 2.81H0v-.9A1.91 1.91 0 0 1 1.9 0h5.15a1.91 1.91 0 0 1 1.9 1.91zM.57 2.27h7.87v-.36A1.36 1.36 0 0 0 7.08.55H1.93A1.36 1.36 0 0 0 .57 1.91z" opacity=".6" transform="translate(107.43 100.03)"/><path fill="url(#j)" fill-rule="nonzero" d="M109.08 104.96h5.74a2.18 2.18 0 0 1 2.18 2.18v1.19h-10.1v-1.19a2.18 2.18 0 0 1 2.18-2.18" transform="translate(0 .13)"/><path fill="url(#r)" fill-rule="nonzero" d="M9 2.81H0v-.9A1.91 1.91 0 0 1 1.9 0h5.15a1.91 1.91 0 0 1 1.9 1.91zM.59 2.27h7.87v-.36A1.36 1.36 0 0 0 7.1.55H1.95A1.36 1.36 0 0 0 .59 1.91z" opacity=".6" transform="translate(107.43 105.37)"/><path fill="url(#j)" fill-rule="nonzero" d="M109.08 110.3h5.74a2.18 2.18 0 0 1 2.18 2.18v1.19h-10.1v-1.19a2.18 2.18 0 0 1 2.18-2.18" transform="translate(0 .13)"/><path fill="url(#p)" fill-rule="nonzero" d="M9 2.81H0v-.9A1.91 1.91 0 0 1 1.9 0h5.15a1.91 1.91 0 0 1 1.9 1.91zM.57 2.29h7.87v-.36A1.36 1.36 0 0 0 7.08.57H1.93A1.36 1.36 0 0 0 .57 1.93z" opacity=".6" transform="translate(107.43 110.71)"/><path fill="url(#k)" fill-rule="nonzero" d="M109.08 115.64h5.74a2.18 2.18 0 0 1 2.18 2.23v1.19h-10.1v-1.19a2.18 2.18 0 0 1 2.18-2.23" transform="translate(0 .13)"/><path fill="url(#t)" fill-rule="nonzero" d="M9 2.77H0v-.86A1.91 1.91 0 0 1 1.9 0h5.15a1.91 1.91 0 0 1 1.9 1.91zM.59 2.22h7.87v-.31A1.36 1.36 0 0 0 7.1.55H1.95A1.36 1.36 0 0 0 .57 1.91z" opacity=".6" transform="translate(107.43 116.09)"/><path fill="url(#h)" fill-rule="nonzero" d="M126.18 94.28h5.74a2.18 2.18 0 0 1 2.18 2.18v1.19H124v-1.18a2.18 2.18 0 0 1 2.18-2.19" transform="translate(0 .13)"/><path fill="url(#p)" fill-rule="nonzero" d="M9 2.81H0v-.9A1.91 1.91 0 0 1 1.9 0h5.15a1.92 1.92 0 0 1 1.91 1.91zm-8.42-.5h7.89v-.4A1.36 1.36 0 0 0 7.11.55H1.96A1.36 1.36 0 0 0 .6 1.91z" opacity=".6" transform="translate(124.53 94.69)"/><path fill="url(#j)" fill-rule="nonzero" d="M126.18 99.62h5.74a2.18 2.18 0 0 1 2.18 2.18v1.19H124v-1.19a2.18 2.18 0 0 1 2.18-2.18" transform="translate(0 .13)"/><path fill="url(#p)" fill-rule="nonzero" d="M9 2.81H0v-.9A1.91 1.91 0 0 1 1.9 0h5.15a1.92 1.92 0 0 1 1.91 1.91zM.58 2.27h7.89v-.36A1.36 1.36 0 0 0 7.11.55H1.96A1.36 1.36 0 0 0 .6 1.91z" opacity=".6" transform="translate(124.53 100.03)"/><path fill="url(#j)" fill-rule="nonzero" d="M126.18 104.96h5.74a2.18 2.18 0 0 1 2.18 2.18v1.19H124v-1.19a2.18 2.18 0 0 1 2.18-2.18" transform="translate(0 .13)"/><path fill="url(#r)" fill-rule="nonzero" d="M9 2.81H0v-.9A1.91 1.91 0 0 1 1.9 0h5.15a1.92 1.92 0 0 1 1.91 1.91zM.58 2.27h7.89v-.36A1.36 1.36 0 0 0 7.11.55H1.96A1.36 1.36 0 0 0 .6 1.91z" opacity=".6" transform="translate(124.53 105.37)"/><path fill="url(#j)" fill-rule="nonzero" d="M126.18 110.3h5.74a2.18 2.18 0 0 1 2.18 2.18v1.19H124v-1.19a2.18 2.18 0 0 1 2.18-2.18" transform="translate(0 .13)"/><path fill="url(#p)" fill-rule="nonzero" d="M9 2.81H0v-.9A1.91 1.91 0 0 1 1.9 0h5.15a1.92 1.92 0 0 1 1.91 1.91zM.58 2.27h7.89v-.36A1.36 1.36 0 0 0 7.11.55H1.96A1.36 1.36 0 0 0 .6 1.91z" opacity=".6" transform="translate(124.53 110.71)"/><path fill="url(#k)" fill-rule="nonzero" d="M126.18 115.64h5.74a2.18 2.18 0 0 1 2.18 2.23v1.19H124v-1.19a2.18 2.18 0 0 1 2.18-2.23" transform="translate(0 .13)"/><path fill="url(#t)" fill-rule="nonzero" d="M9 2.77H0v-.86A1.91 1.91 0 0 1 1.9 0h5.15a1.92 1.92 0 0 1 1.91 1.91zM.58 2.22h7.89v-.31A1.36 1.36 0 0 0 7.11.55H1.96A1.36 1.36 0 0 0 .6 1.91z" opacity=".6" transform="translate(124.53 116.09)"/></g></svg>