<svg xmlns="http://www.w3.org/2000/svg" viewBox="0 0 101 150"><title>Oil fired boiler 1(燃油锅炉1)</title><defs><linearGradient id="a" x1="0%" x2="100%" y1="50.004%" y2="50.004%"><stop offset="0%" stop-color="#8b9199"/><stop offset="2%" stop-color="#d7dce0"/><stop offset="4%" stop-color="#a2a8b3"/><stop offset="98%" stop-color="#a2a8b3"/><stop offset="100%" stop-color="#767b82"/></linearGradient><linearGradient id="b" x1="49.992%" x2="49.992%" y1="100%" y2="0%"><stop offset="0%" stop-color="#a2a8b3"/><stop offset="100%" stop-color="#b9c1cc"/></linearGradient><linearGradient id="c" x1="50%" x2="50%" y1="100.61%" y2="0%"><stop offset="0%" stop-color="#9ba1ab"/><stop offset="0%" stop-color="#46494d"/><stop offset="23%" stop-color="#757980"/><stop offset="55%" stop-color="#939699"/><stop offset="100%" stop-color="#45484d"/></linearGradient><linearGradient id="d" x1="50%" x2="50%" y1="2871.951%" y2="2972.561%"><stop offset="0%" stop-color="#9ba1ab"/><stop offset="0%" stop-color="#46494d"/><stop offset="23%" stop-color="#757980"/><stop offset="55%" stop-color="#939699"/><stop offset="100%" stop-color="#45484d"/></linearGradient><linearGradient id="e" x1="49.958%" x2="49.958%" y1="100%" y2="-.176%"><stop offset="0%" stop-color="#e6f1ff" stop-opacity="0"/><stop offset="16%" stop-color="#e6f1ff" stop-opacity=".01"/><stop offset="29%" stop-color="#e6f1ff" stop-opacity=".05"/><stop offset="41%" stop-color="#e7f1ff" stop-opacity=".12"/><stop offset="53%" stop-color="#e8f2ff" stop-opacity=".21"/><stop offset="63%" stop-color="#e9f2ff" stop-opacity=".33"/><stop offset="74%" stop-color="#eaf2ff" stop-opacity=".48"/><stop offset="84%" stop-color="#ebf3ff" stop-opacity=".66"/><stop offset="94%" stop-color="#edf4ff" stop-opacity=".85"/><stop offset="100%" stop-color="#eef4ff"/></linearGradient></defs><g fill="none" fill-rule="nonzero"><path fill="url(#a)" d="M0 16.11h100.13V150H0z" transform="matrix(-1 0 0 -1 100.13 166.11)"/><path fill="#5c6066" d="M8.39 72.45v-3.96h83.34v3.96z"/><path fill="#8a9099" d="M8.39 86.59V72.46h83.34v14.13z"/><path fill="#8a9099" stroke="#cfd8e6" stroke-width="2" d="M37.73 52.12V30.36H62.4v21.76z"/><path fill="#45484d" d="M8.4 130.33V116.2h83.34v14.13z"/><path fill="#5c6066" d="M8.39 116.2V86.59h83.34v29.61z"/><path fill="#222a34" d="M0 16.11h100.13v6.85H0z" opacity=".2"/><path fill="#222a34" d="M0 143.15h100.13V150H0z" opacity=".6"/><path fill="url(#b)" d="M83.19 16.11H16.94L25.42 0h49.29z"/><circle cx="61.67" cy="8.52" r="5.62" fill="#42474d" stroke="#b4bcc5" stroke-width=".5"/><circle cx="61.67" cy="8.52" r="4.58" fill="#cfd5db"/><path fill="#a63c27" d="m64.33 5.92-5.2 4.35.85.85z"/><circle cx="61.67" cy="8.52" r="1" fill="#a8afb5"/><circle cx="41.41" cy="34.62" r="1" fill="url(#c)" stroke="#505458" stroke-width=".25"/><circle cx="41.41" cy="48.03" r="1" fill="url(#d)" stroke="#505458" stroke-width=".25"/><path fill="#bfc3cc" d="M44.08 33.79h11.96v5.69H44.08z"/><path fill="url(#e)" d="M44.08 39.48V33.8h11.97"/></g></svg>