<svg xmlns="http://www.w3.org/2000/svg" viewBox="0 0 73 150"><title>Steam boiler 2(蒸汽锅炉2)</title><defs><linearGradient id="a" x1="0%" x2="100%" y1="49.932%" y2="49.932%"><stop offset="0%" stop-color="#767b82"/><stop offset="7%" stop-color="#9ba1ab"/><stop offset="22%" stop-color="#e2eaf2"/><stop offset="94%" stop-color="#767b82"/><stop offset="100%" stop-color="#a9b1bb"/></linearGradient><linearGradient id="b" x1="-.901%" x2="99.099%" y1="49.829%" y2="49.829%"><stop offset="0%" stop-color="#767b82"/><stop offset="7%" stop-color="#9ba1ab"/><stop offset="22%" stop-color="#e2eaf2"/><stop offset="94%" stop-color="#767b82"/><stop offset="100%" stop-color="#a9b1bb"/></linearGradient><linearGradient id="c" x1="0%" x2="100.268%" y1="49.756%" y2="49.756%"><stop offset="0%" stop-color="#767b82"/><stop offset="7%" stop-color="#9ba1ab"/><stop offset="22%" stop-color="#e2eaf2"/><stop offset="94%" stop-color="#767b82"/><stop offset="100%" stop-color="#a9b1bb"/></linearGradient><linearGradient id="d" x1="0%" x2="100.178%" y1="50.244%" y2="50.244%"><stop offset="0%" stop-color="#767b82"/><stop offset="7%" stop-color="#9ba1ab"/><stop offset="22%" stop-color="#e2eaf2"/><stop offset="94%" stop-color="#767b82"/><stop offset="100%" stop-color="#a9b1bb"/></linearGradient><linearGradient id="e" x1="0%" x2="100.178%" y1="49.756%" y2="49.756%"><stop offset="0%" stop-color="#767b82"/><stop offset="7%" stop-color="#9ba1ab"/><stop offset="22%" stop-color="#e2eaf2"/><stop offset="94%" stop-color="#767b82"/><stop offset="100%" stop-color="#a9b1bb"/></linearGradient><linearGradient id="f" x1="0%" x2="100.178%" y1="50%" y2="50%"><stop offset="0%" stop-color="#767b82"/><stop offset="7%" stop-color="#9ba1ab"/><stop offset="22%" stop-color="#e2eaf2"/><stop offset="94%" stop-color="#767b82"/><stop offset="100%" stop-color="#a9b1bb"/></linearGradient><linearGradient id="g" x1="0%" x2="100%" y1="49.937%" y2="49.937%"><stop offset="0%" stop-color="#a9b1bb"/><stop offset="32%" stop-color="#767b82"/><stop offset="78%" stop-color="#e2eaf2"/><stop offset="93%" stop-color="#9ba1ab"/><stop offset="100%" stop-color="#767b82"/></linearGradient><linearGradient id="h" x1="100%" x2="0%" y1="49.6%" y2="49.6%"><stop offset="0%" stop-color="#767b82"/><stop offset="7%" stop-color="#9ba1ab"/><stop offset="22%" stop-color="#e2eaf2"/><stop offset="94%" stop-color="#767b82"/><stop offset="100%" stop-color="#a9b1bb"/></linearGradient><linearGradient id="i" x1="100.024%" x2="0%" y1="50.071%" y2="50.071%"><stop offset="0%" stop-color="#767b82"/><stop offset="7%" stop-color="#9ba1ab"/><stop offset="22%" stop-color="#e2eaf2"/><stop offset="94%" stop-color="#767b82"/><stop offset="100%" stop-color="#a9b1bb"/></linearGradient><linearGradient id="j" x1="99.984%" x2="0%" y1="50.129%" y2="50.129%"><stop offset="0%" stop-color="#767b82"/><stop offset="7%" stop-color="#9ba1ab"/><stop offset="22%" stop-color="#e2eaf2"/><stop offset="94%" stop-color="#767b82"/><stop offset="100%" stop-color="#a9b1bb"/></linearGradient><linearGradient id="k" x1="99.984%" x2="0%" y1="50.004%" y2="50.004%"><stop offset="0%" stop-color="#767b82"/><stop offset="7%" stop-color="#9ba1ab"/><stop offset="22%" stop-color="#e2eaf2"/><stop offset="28%" stop-color="#d1d8e0"/><stop offset="49%" stop-color="#a1a7ae"/><stop offset="67%" stop-color="#7e8489"/><stop offset="81%" stop-color="#696e73"/><stop offset="91%" stop-color="#61666b"/><stop offset="100%" stop-color="#a9b1bb"/></linearGradient><linearGradient id="l" x1="0%" x2="100%" y1="50%" y2="50%"><stop offset="0%" stop-color="#a9b1bb"/><stop offset="32%" stop-color="#767b82"/><stop offset="78%" stop-color="#e2eaf2"/><stop offset="93%" stop-color="#9ba1ab"/><stop offset="100%" stop-color="#767b82"/></linearGradient><linearGradient id="m" x1="50.017%" x2="50.017%" y1="100%" y2="0%"><stop offset="0%" stop-color="#dce1e6"/><stop offset="100%" stop-color="#8a9099"/></linearGradient><linearGradient id="n" x1="100%" x2=".119%" y1="50%" y2="50%"><stop offset="0%" stop-color="#d7dce0"/><stop offset="100%" stop-color="#8a9099"/></linearGradient><linearGradient id="o" x1="0%" x2="100%" y1="50%" y2="50%"><stop offset="0%" stop-color="#d7dce0"/><stop offset="100%" stop-color="#8a9099"/></linearGradient><linearGradient id="p" x1="50.017%" x2="50.017%" y1="99.92%" y2="0%"><stop offset="0%" stop-color="#8a9099"/><stop offset="100%" stop-color="#d7dce0"/></linearGradient><linearGradient id="q" x1="95.189%" x2="4.811%" y1="13.578%" y2="86.422%"><stop offset="0%" stop-color="#d7dce0"/><stop offset="100%" stop-color="#8a9099"/></linearGradient><linearGradient id="r" x1="49.992%" x2="49.992%" y1="0%" y2="100%"><stop offset="2%" stop-color="#767b82"/><stop offset="4%" stop-color="#d7dce0"/><stop offset="9%" stop-color="#9ba1ab"/><stop offset="92%" stop-color="#9ba1ab"/><stop offset="100%" stop-color="#767b82"/></linearGradient><linearGradient id="s" x1="83.33%" x2="16.67%" y1="6.037%" y2="93.963%"><stop offset="0%" stop-color="#dce1e6"/><stop offset="100%" stop-color="#8a9099"/></linearGradient><linearGradient id="t" x1="50%" x2="50%" y1="100.517%" y2="-.517%"><stop offset="0%" stop-color="#dce1e6"/><stop offset="100%" stop-color="#8a9099" stop-opacity="0"/></linearGradient><linearGradient id="u" x1="94.708%" x2="5.292%" y1="14.798%" y2="85.241%"><stop offset="0%" stop-color="#f4f9ff"/><stop offset="100%" stop-color="#a1a8b3"/></linearGradient><linearGradient id="v" x1="49.975%" x2="49.975%" y1="101.648%" y2="-1.584%"><stop offset="0%" stop-color="#dce1e6"/><stop offset="100%" stop-color="#8a9099" stop-opacity="0"/></linearGradient><linearGradient id="w" x1="88.303%" x2="11.755%" y1="29.737%" y2="70.293%"><stop offset="0%" stop-color="#f4f9ff"/><stop offset="100%" stop-color="#a1a8b3"/></linearGradient><linearGradient id="x" x1="50%" x2="50%" y1="102.814%" y2="-2.706%"><stop offset="0%" stop-color="#dce1e6"/><stop offset="100%" stop-color="#8a9099" stop-opacity="0"/></linearGradient><linearGradient id="y" x1="65.515%" x2="15.554%" y1="55.862%" y2="36.985%"><stop offset="0%" stop-color="#e6f1ff" stop-opacity="0"/><stop offset="16%" stop-color="#e6f1ff" stop-opacity=".01"/><stop offset="29%" stop-color="#e6f1ff" stop-opacity=".05"/><stop offset="41%" stop-color="#e7f1ff" stop-opacity=".12"/><stop offset="53%" stop-color="#e8f2ff" stop-opacity=".21"/><stop offset="63%" stop-color="#e9f2ff" stop-opacity=".33"/><stop offset="74%" stop-color="#eaf2ff" stop-opacity=".48"/><stop offset="84%" stop-color="#ebf3ff" stop-opacity=".66"/><stop offset="94%" stop-color="#edf4ff" stop-opacity=".85"/><stop offset="100%" stop-color="#eef4ff"/></linearGradient><linearGradient id="z" x1=".338%" x2="99.999%" y1="49.662%" y2="49.662%"><stop offset="0%" stop-color="#45484d"/><stop offset="11%" stop-color="#494c51"/><stop offset="21%" stop-color="#53575d"/><stop offset="31%" stop-color="#666970"/><stop offset="41%" stop-color="#7f838c"/><stop offset="45%" stop-color="#8b9099"/><stop offset="70%" stop-color="#abafb3"/><stop offset="100%" stop-color="#45484d"/></linearGradient><linearGradient id="A" x1="50%" x2="50%" y1="108.621%" y2="-8.621%"><stop offset="0%" stop-color="#767b82"/><stop offset="7%" stop-color="#9ba1ab"/><stop offset="22%" stop-color="#e2eaf2"/><stop offset="94%" stop-color="#5d6166"/><stop offset="100%" stop-color="#a9b1bb"/></linearGradient><linearGradient id="B" x1="50%" x2="50%" y1="100%" y2="0%"><stop offset="0%" stop-color="#fff" stop-opacity="0"/><stop offset="9%" stop-color="#fff" stop-opacity=".04"/><stop offset="24%" stop-color="#fff" stop-opacity=".16"/><stop offset="44%" stop-color="#fff" stop-opacity=".36"/><stop offset="69%" stop-color="#fff" stop-opacity=".62"/><stop offset="97%" stop-color="#fff" stop-opacity=".96"/><stop offset="100%" stop-color="#fff"/></linearGradient><linearGradient id="C" x1="50%" x2="50%" y1="108.966%" y2="-8.621%"><stop offset="0%" stop-color="#767b82"/><stop offset="7%" stop-color="#9ba1ab"/><stop offset="22%" stop-color="#e2eaf2"/><stop offset="94%" stop-color="#5d6166"/><stop offset="100%" stop-color="#a9b1bb"/></linearGradient><linearGradient id="D" x1="50%" x2="50%" y1="100%" y2=".4%"><stop offset="0%" stop-color="#fff" stop-opacity="0"/><stop offset="9%" stop-color="#fff" stop-opacity=".04"/><stop offset="24%" stop-color="#fff" stop-opacity=".16"/><stop offset="44%" stop-color="#fff" stop-opacity=".36"/><stop offset="69%" stop-color="#fff" stop-opacity=".62"/><stop offset="97%" stop-color="#fff" stop-opacity=".96"/><stop offset="100%" stop-color="#fff"/></linearGradient><linearGradient id="E" x1="0%" x2="100%" y1="50%" y2="50%"><stop offset="0%" stop-color="#2d3033"/><stop offset="100%" stop-color="#737980"/></linearGradient><linearGradient id="F" x1="50%" x2="50%" y1="100%" y2=".862%"><stop offset="0%" stop-color="#9ba1ab"/><stop offset="0%" stop-color="#5d6166"/><stop offset="23%" stop-color="#757980"/><stop offset="55%" stop-color="#f5faff"/><stop offset="100%" stop-color="#5b5f66"/></linearGradient><linearGradient id="G" x1="50%" x2="50%" y1="110.345%" y2="-10.345%"><stop offset="0%" stop-color="#dce1e6"/><stop offset="100%" stop-color="#8a9099" stop-opacity="0"/></linearGradient><linearGradient id="H" x1="50%" x2="50%" y1="-28614.655%" y2="-28515.517%"><stop offset="0%" stop-color="#9ba1ab"/><stop offset="0%" stop-color="#5d6166"/><stop offset="23%" stop-color="#757980"/><stop offset="55%" stop-color="#f5faff"/><stop offset="100%" stop-color="#5b5f66"/></linearGradient><linearGradient id="I" x1="2550.331%" x2="2450.331%" y1="5116.667%" y2="5116.667%"><stop offset="0%" stop-color="#767b82"/><stop offset="7%" stop-color="#9ba1ab"/><stop offset="22%" stop-color="#e2eaf2"/><stop offset="28%" stop-color="#d1d8e0"/><stop offset="49%" stop-color="#a1a7ae"/><stop offset="67%" stop-color="#7e8489"/><stop offset="81%" stop-color="#696e73"/><stop offset="91%" stop-color="#61666b"/><stop offset="100%" stop-color="#a9b1bb"/></linearGradient><linearGradient id="J" x1="30.148%" x2="69.915%" y1="88%" y2="11.879%"><stop offset="0%" stop-color="#7a7d80"/><stop offset="100%" stop-color="#2e3033"/></linearGradient></defs><g fill="none" fill-rule="evenodd"><rect width="1.11" height="7.35" x="5.38" y="68.9" fill="url(#a)" fill-rule="nonzero" rx=".555" transform="rotate(90 5.935 72.575)"/><rect width="1.11" height="32.13" x="2.26" y="41" fill="url(#b)" fill-rule="nonzero" rx=".555" transform="matrix(-1 0 0 -1 5.63 114.13)"/><path fill="url(#c)" fill-rule="nonzero" d="M.95 39.61h3.73v2.05H.95z" transform="matrix(-1 0 0 -1 5.63 81.27)"/><path fill="url(#d)" fill-rule="nonzero" d="M0 38.33h5.63v2.05H0z" transform="matrix(-1 0 0 -1 5.63 78.71)"/><path fill="url(#e)" fill-rule="nonzero" d="M0 10.16h5.63v2.05H0z" transform="matrix(-1 0 0 -1 5.63 22.37)"/><path stroke="#c45c5c" stroke-linecap="round" stroke-width=".25" d="M1.36 14.85h2.99m-2.99 2.82h2.99m-2.99 2.82h2.99M1.36 23.3h2.99m-2.99 2.82h2.99m-2.99 2.82h2.99m-2.99 2.81h2.99m-2.99 2.82h2.99"/><path fill="url(#f)" fill-rule="nonzero" d="M0 11.22h5.63v27.12H0z" opacity=".4" transform="matrix(-1 0 0 -1 5.63 49.56)"/><path stroke="#fff" stroke-linecap="round" d="M2.82 13.23v23.45" opacity=".9"/><rect width="1.33" height="7.95" x="8.37" y="30.18" fill="url(#g)" fill-rule="nonzero" rx=".66" transform="rotate(-90 9.035 34.155)"/><path fill="url(#h)" fill-rule="nonzero" d="M6.735 33.535h2.98v1.25h-2.98z" transform="rotate(-90 8.225 34.16)"/><rect width="1.33" height="7.95" x="8.37" y="13.5" fill="url(#g)" fill-rule="nonzero" rx=".66" transform="rotate(-90 9.035 17.475)"/><path fill="url(#h)" fill-rule="nonzero" d="M6.735 16.845h2.98v1.25h-2.98z" transform="rotate(-90 8.225 17.47)"/><path fill="url(#i)" fill-rule="nonzero" d="M20.05 138.55h41.61v7.05H20.05z"/><path fill="#000" fill-rule="nonzero" d="M20.05 138.55h41.61v7.05H20.05z" opacity=".4"/><path fill="url(#j)" fill-rule="nonzero" d="M8.86.01h64.01v3.87H8.86z"/><path fill="url(#k)" fill-rule="nonzero" d="M8.86 0h64.01v138.55H8.86z"/><path fill="#000" fill-rule="nonzero" d="M8.86 134.37h64.01v4.17H8.86zm0-84.75h64.01v1.35H8.86zm0 31.85h64.01v1.35H8.86z" opacity=".3"/><rect width="1" height="52.8" x="26.16" y="39.05" fill="url(#l)" fill-rule="nonzero" rx=".45"/><path fill="#000" fill-rule="nonzero" d="M8.86.01h64.01v3.87H8.86z" opacity=".3"/><path fill="url(#m)" fill-rule="nonzero" d="M49.64 86.2H36.96l-8.41-12.53h29.49z"/><path fill="url(#n)" fill-rule="nonzero" d="M36.96 86.2v10.22l-8.41 12.53V73.67z"/><path fill="#000" fill-rule="nonzero" d="M36.96 86.2v10.22l-8.41 12.53V73.67z" opacity=".2"/><path fill="url(#o)" fill-rule="nonzero" d="M49.64 86.2v10.22l8.4 12.53V73.67z"/><path fill="#000" fill-rule="nonzero" d="M49.64 86.2v10.22l8.4 12.53V73.67z" opacity=".2"/><path fill="url(#p)" fill-rule="nonzero" d="M36.96 96.42h12.68l8.4 12.53H28.55z"/><path fill="#000" fill-rule="nonzero" d="M36.96 96.42h12.68l8.4 12.53H28.55z" opacity=".3"/><path fill="url(#q)" fill-rule="nonzero" d="M36.96 86.2h12.68v10.22H36.96z"/><path fill="url(#r)" fill-rule="nonzero" d="M8.86 145.61h64.01V150H8.86z"/><path fill="url(#s)" fill-rule="nonzero" stroke="url(#t)" stroke-width=".5" d="M23.18 2.6h36.68v48.37H23.18z"/><path fill="url(#u)" fill-rule="nonzero" stroke="url(#v)" stroke-width=".5" d="M32.96 26.1h20.03v15.78H32.96z"/><path fill="url(#w)" fill-rule="nonzero" stroke="url(#x)" stroke-width=".5" d="M26.77 8.21h17.44v9.24H26.77z"/><path fill="#222a34" fill-rule="nonzero" d="M28.69 9.92h13.73v5.81H28.69z"/><path fill="#5a5e66" fill-rule="nonzero" d="M41.92 10.42v4.81H29.19v-4.81zm1-1H28.19v6.81h14.73z"/><path fill="url(#y)" fill-rule="nonzero" d="M41.92 10.42H29.19v4.81z"/><circle cx="45.15" cy="38.78" r="1.47" fill="#9ba1a8" fill-rule="nonzero"/><path fill="url(#z)" fill-rule="nonzero" d="M45.15 37.81a1 1 0 1 1 0 2 1 1 0 0 1 0-2m0-.5a1.48 1.48 0 1 0 1.48 1.47 1.47 1.47 0 0 0-1.48-1.47"/><path fill="#2f3133" fill-rule="nonzero" d="M44.75 37.31h1v2.95h-1z"/><circle cx="49.36" cy="38.78" r="1.47" fill="#9ba1a8" fill-rule="nonzero"/><path fill="url(#z)" fill-rule="nonzero" d="M49.36 37.81a1 1 0 1 1 0 2 1 1 0 0 1 0-2m0-.5a1.48 1.48 0 1 0 1.48 1.47 1.47 1.47 0 0 0-1.48-1.47"/><path fill="#2f3133" fill-rule="nonzero" d="M48.96 37.31h1v2.95h-1z"/><circle cx="44.89" cy="30.61" r="1.45" fill="#42ba09" fill-rule="nonzero" stroke="url(#A)" stroke-linecap="round" stroke-width=".5"/><circle cx="1.25" cy="1.25" r="1.25" fill="url(#B)" fill-rule="nonzero" opacity=".4" transform="translate(43.64 29.36)"/><circle cx="44.89" cy="34.94" r="1.45" fill="#d3441e" fill-rule="nonzero" stroke="url(#A)" stroke-linecap="round" stroke-width=".5"/><circle cx="1.25" cy="1.25" r="1.25" fill="url(#B)" fill-rule="nonzero" opacity=".4" transform="translate(43.64 33.69)"/><circle cx="37.86" cy="38.78" r="1.45" fill="#d3441e" fill-rule="nonzero" stroke="url(#C)" stroke-linecap="round" stroke-width=".5"/><circle cx="1.25" cy="1.25" r="1.25" fill="url(#D)" fill-rule="nonzero" opacity=".4" transform="translate(36.61 37.53)"/><circle cx="28.97" cy="38.78" r="1.45" fill="#42ba09" fill-rule="nonzero" stroke="url(#C)" stroke-linecap="round" stroke-width=".5"/><circle cx="1.25" cy="1.25" r="1.25" fill="url(#D)" fill-rule="nonzero" opacity=".4" transform="translate(27.72 37.53)"/><path fill="#57595b" fill-rule="nonzero" d="m38.28 33.35-1.58.43-.43 1.59 1.17 1.16 1.58-.43.43-1.58z"/><circle cx="37.86" cy="34.94" r="1.11" fill="url(#E)" fill-rule="nonzero" stroke="#2e3033" stroke-width=".25"/><path fill="#57595b" fill-rule="nonzero" d="m38.28 29.02-1.58.43-.43 1.58 1.17 1.16 1.58-.42.43-1.59z"/><circle cx="37.86" cy="30.61" r="1.11" fill="url(#E)" fill-rule="nonzero" stroke="#2e3033" stroke-width=".25"/><path fill="#2f3033" fill-rule="nonzero" d="M56.4 8.21H58v3h-1.6z"/><circle cx="57.2" cy="9.71" r="1" fill="url(#F)" fill-rule="nonzero" stroke="url(#G)" stroke-width=".25"/><path fill="#2f3033" fill-rule="nonzero" d="M56.4 36.06H58v3h-1.6z"/><circle cx="57.2" cy="37.55" r="1" fill="url(#H)" fill-rule="nonzero" stroke="url(#G)" stroke-width=".25"/><path fill="url(#I)" fill-rule="nonzero" d="M25.09 51.24h3.02v1.5h-3.02z"/><path fill="url(#J)" fill-rule="nonzero" d="M24.25 90.91h4.31v8.25h-4.31z" transform="matrix(-1 0 0 -1 52.81 190.07)"/></g></svg>