<svg xmlns="http://www.w3.org/2000/svg" viewBox="0 0 150 144"><title>Light- green（绿灯） (3)</title><defs><linearGradient id="a" x1="0%" x2="100%" y1="50%" y2="50%"><stop offset="0%" stop-color="#e2e2e2"/><stop offset="3%" stop-color="#d0d0d0"/><stop offset="6%" stop-color="#bcbcbc"/><stop offset="9%" stop-color="#b5b5b5"/><stop offset="49%" stop-color="#f6f6f6"/><stop offset="63%" stop-color="#f3f3f3"/><stop offset="73%" stop-color="#eaeaea"/><stop offset="82%" stop-color="#dbdbdb"/><stop offset="90%" stop-color="#c6c6c6"/><stop offset="97%" stop-color="#aaa"/><stop offset="100%" stop-color="#9b9b9b"/></linearGradient><linearGradient id="b" x1="0%" x2="100.008%" y1="50.106%" y2="50.106%"><stop offset="0%" stop-color="#6b6b6b"/><stop offset="11%" stop-color="#767676"/><stop offset="30%" stop-color="#959595"/><stop offset="41%" stop-color="#aaa"/><stop offset="56%" stop-color="#ccc"/><stop offset="71%" stop-color="#eaeaea"/><stop offset="80%" stop-color="#f6f6f6"/><stop offset="83%" stop-color="#ededed"/><stop offset="87%" stop-color="#d4d4d4"/><stop offset="92%" stop-color="#ababab"/><stop offset="98%" stop-color="#737373"/><stop offset="99%" stop-color="#666"/></linearGradient><linearGradient id="c" x1="0%" x2="100%" y1="50%" y2="50%"><stop offset="0%" stop-color="#6b6b6b"/><stop offset="11%" stop-color="#767676"/><stop offset="30%" stop-color="#959595"/><stop offset="41%" stop-color="#aaa"/><stop offset="56%" stop-color="#ccc"/><stop offset="71%" stop-color="#eaeaea"/><stop offset="80%" stop-color="#f6f6f6"/><stop offset="83%" stop-color="#ededed"/><stop offset="87%" stop-color="#d4d4d4"/><stop offset="92%" stop-color="#ababab"/><stop offset="98%" stop-color="#737373"/><stop offset="99%" stop-color="#666"/></linearGradient><linearGradient id="d" x1="0%" x2="100%" y1="50%" y2="50%"><stop offset="0%" stop-color="#6b6b6b"/><stop offset="11%" stop-color="#767676"/><stop offset="30%" stop-color="#959595"/><stop offset="41%" stop-color="#aaa"/><stop offset="56%" stop-color="#ccc"/><stop offset="71%" stop-color="#eaeaea"/><stop offset="80%" stop-color="#f6f6f6"/><stop offset="83%" stop-color="#ededed"/><stop offset="87%" stop-color="#d4d4d4"/><stop offset="92%" stop-color="#ababab"/><stop offset="98%" stop-color="#737373"/><stop offset="99%" stop-color="#666"/></linearGradient></defs><g fill="none" fill-rule="nonzero"><g transform="translate(50.352 63.506)"><path fill="#4c8c23" d="M35.028 35.904c6 .48 5.88 1.22-.35 1.65a176 176 0 0 1-22.18-.06c-6-.48-5.87-1.22.35-1.65a180 180 0 0 1 22.18.06"/><path fill="#437b1f" d="M39.498 21.664v15.07c0-.26-1.08-.51-3.26-.73v-15.07c2.17.22 3.26.48 3.26.73"/><path fill="#468020" d="M36.238 20.934v15.07l-1-.09v-15.07z"/><path fill="#488521" d="M35.258 20.844v15.07h-.18l.05-15.07h.18M35.078 20.834l-.05 15.07h-.65v-15.07h.66"/><path fill="#4b8922" d="M34.418 20.784v15.07h-.77v-15.12l.76.05"/><path fill="#4d8e23" d="M33.648 20.734v15.07h-.73v-15.06h.73"/><path fill="#509325" d="M32.928 20.694v15.06h-.7v-15.07h.71"/><path fill="#539826" d="M32.218 20.654v15.07h-.68v-15.06h.68"/><path fill="#559c27" d="M31.538 20.624v15.06h-.69v-15.06h.68"/><path fill="#58a128" d="M30.858 20.594v15.06h-.67v-15.07h.68"/><path fill="#5aa629" d="M30.178 20.564v15.07h-.68v-15.07h.67"/><path fill="#5dab2a" d="M29.508 20.544v15.07h-.67v-15.07z"/><path fill="#5faf2c" d="M28.838 20.494v15.07h-.64v-15.07z"/><path fill="#62b42d" d="M28.198 20.494v15.07h-.63v-15.06h.64"/><path fill="#65b92e" d="M27.558 20.494v15.06h-.56v-15.07h.56"/><path fill="#67be2f" d="M26.998 20.494v15.07h-.57v-15.06h.57"/><path fill="#6ac230" d="M26.428 20.494v15.06h-.47v-15.07h.47"/><path fill="#6cc732" d="M25.958 20.494v15.07h-.51v-15.07h.47"/><path fill="#6fcc33" d="m25.488 20.494-.04 15h-.43v-15.07h.43"/><path fill="#72d134" d="M25.058 20.494v15.07h-.41v-15.07h.39"/><path fill="#74d535" d="M24.648 20.494v15h-.39v-15.07h.39"/><path fill="#77da36" d="M24.288 20.494v15.07h-.37v-15.07h.38"/><path fill="#79df37" d="M23.908 20.494v15.07h-.36v-15.07z"/><path fill="#7ce439" d="M23.548 20.494v15.07h-.35v-15.07z"/><path fill="#7ee83a" d="M23.198 20.494v15.07h-.36v-15.07z"/><path fill="#81ed3b" d="M22.838 20.494v15.07h-.39v-15.07h.38"/><path fill="#90ef53" d="M22.458 20.494v15.07h-.39v-15.07z"/><path fill="#96f05c" d="M22.068 20.494v15.07h-.42v-15.07h.39"/><path fill="#9bf164" d="M21.648 20.494v15h-.6l.03-15z"/><path fill="#9ff16a" d="m21.078 20.494-.05 15h-.61v-15.07h.61"/><path fill="#a3f270" d="M20.468 20.494v15.07h-1.43v-15.07z"/><path fill="#9ff16a" d="M19.038 20.494v15.07h-.89v-15.07z"/><path fill="#9bf164" d="M18.148 20.494v15.07h-.52l.02-15.07h.53"/><path fill="#96f05c" d="M17.648 20.494v15.07h-.51v-15.07z"/><path fill="#90ef53" d="M17.108 20.494v15.07h-.5v-15.07h.49"/><path fill="#81ed3b" d="M16.648 20.554v15.07h-.48v-15.07h.49"/><path fill="#7ee83a" d="M16.128 20.574v15.07h-.53l.05-15.05h.52"/><path fill="#7ce439" d="M15.648 20.594v15.07h-.56v-15.06h.57"/><path fill="#79df37" d="M15.038 20.624v15.06h-.66v-15.07h.65"/><path fill="#77da36" d="M14.388 20.654v15.07h-.71l-.03-15.03h.72"/><path fill="#74d535" d="M13.648 20.694v15.07h-.77v-15.07z"/><path fill="#72d134" d="M12.898 20.744v15.07l-.72.05.05-15.07h.71"/><path fill="#6fcc33" d="m12.178 20.794-.05 15.07-.62.06v-15.07l.63-.06"/><path fill="#6cc732" d="M11.548 20.854v15.07h-.54v-15.07z"/><path fill="#6ac230" d="M11.008 20.904v15.07h-.48v-15.07h.47"/><path fill="#67be2f" d="M10.538 20.954v15.07h-.4v-15.07l.41-.05"/><path fill="#65b92e" d="M10.128 21.004v15.07h-.37v-15.07h.36"/><path fill="#62b42d" d="M9.768 21.054v15.07l-.32.05v-15.07h.32"/><path fill="#5faf2c" d="M9.448 21.104v15.07h-.28v-15.07h.29"/><path fill="#5dab2a" d="M9.158 21.154v15.07h-.25v-15.07z"/><path fill="#5aa629" d="M8.908 21.204v15.07h-.22v-15.06l.21-.06"/><path fill="#58a128" d="M8.698 21.264v15.06l-.18.06v-15.07h.19"/><path fill="#559c27" d="M8.508 21.314v15.07l-.15.06v-15.07z"/><path fill="#539826" d="M8.358 21.374v15.07l-.12.06v-15.07z"/><path fill="#509325" d="M8.238 21.434v15.07a.2.2 0 0 0-.08.06v-15.07a.3.3 0 0 1 .08-.06"/><path fill="#4d8e23" d="M8.158 21.494v15.07a.1.1 0 0 0 0 .07v-15.07a.3.3 0 0 1 0-.07"/><path fill="#4b8922" d="m8.118 21.564-.04 15.07v.01l.04-15.07z"/><path fill="#9ff16a" d="M8.118 21.574c-.1-6.64-2.21-12.24-6.82-18.15-.39-.48 1.9-1 6.83-1.3a258 258 0 0 1 32 .13 38.17 38.17 0 0 0-5 18.58 180 180 0 0 0-22.19-.09c-3.17.22-4.77.52-4.77.83"/><path fill="#9ff16a" d="M8.128 2.124a258 258 0 0 1 32 .13 38.17 38.17 0 0 0-5 18.58c-4-.32-9.61-.44-14.79-.37l1-.52c3.25-1.67 5.31-11.56-.31-14.45-5.38-2.69-8.38 2.69-5.69 10.34.48 1.35 1.47 4.16 4 4.65-2.34 0-4.54.13-6.42.26-3.17.22-4.77.52-4.77.83v-1c0-.28 0-.66-.05-.95l-.09-.94c0-.29-.08-.66-.12-.95l-.15-.93c-.06-.29-.13-.66-.19-.94l-.23-.93-.26-.93-.29-.92-.33-.92-.36-.91c-.12-.27-.27-.64-.4-.91l-.42-.9c-.14-.27-.32-.62-.47-.89l-.49-.88-.53-.88-.56-.87c-.18-.26-.41-.61-.59-.86l-.63-.85c-.19-.26-.45-.6-.65-.85-.39-.47 1.9-1 6.83-1.29"/><path fill="#9bf164" d="M8.128 2.124a258 258 0 0 1 32 .13 38.17 38.17 0 0 0-5 18.58c-3.78-.3-9.08-.43-14-.38l.47-.24c6.19-6.33 2.8-15.28-2.61-15.87-7.43-.81-5 10.89-2.33 14.62a5.2 5.2 0 0 0 1.57 1.53c-1.94 0-3.76.13-5.34.24-3.17.22-4.77.52-4.77.83v-1c0-.28 0-.66-.05-.95l-.09-.94c0-.29-.08-.66-.12-.95l-.15-.93c-.06-.29-.13-.66-.19-.94l-.23-.93-.26-.93-.29-.92-.33-.92-.36-.91c-.12-.27-.27-.64-.4-.91l-.42-.9c-.14-.27-.32-.62-.47-.89l-.49-.88-.53-.88-.56-.87c-.18-.26-.41-.61-.59-.86l-.63-.85c-.19-.26-.45-.6-.65-.85-.39-.47 1.9-1 6.83-1.29"/><path fill="#96f05c" d="M8.128 2.124a258 258 0 0 1 32 .13 38.17 38.17 0 0 0-5 18.58c-3.62-.29-8.64-.42-13.43-.38l.74-.76c5.75-6.25 1.91-17.38-5.48-15.88-6.08 1.24-2.91 14 .73 16.71-1.71 0-3.33.12-4.75.22-3.17.22-4.77.52-4.77.83v-1c0-.28 0-.66-.05-.95l-.09-.94c0-.29-.08-.66-.12-.95l-.15-.93c-.06-.29-.13-.66-.19-.94l-.23-.93-.26-.93-.29-.92-.33-.92-.36-.91c-.12-.27-.27-.64-.4-.91l-.42-.9c-.14-.27-.32-.62-.47-.89l-.49-.88-.53-.88-.56-.87c-.18-.26-.41-.61-.59-.86l-.63-.85c-.19-.26-.45-.6-.65-.85-.39-.47 1.9-1 6.83-1.29"/><path fill="#90ef53" d="M8.128 2.124a258 258 0 0 1 32 .13 38.17 38.17 0 0 0-5 18.58c-3.52-.28-8.37-.41-13-.39l.72-.76c4.76-5.17 2.79-17.9-6-16.6-6.73 1-3.25 13.6.35 17.45-1.51 0-2.94.12-4.21.21-3.17.22-4.77.52-4.77.83v-1c0-.28 0-.66-.05-.95l-.09-.94c0-.29-.08-.66-.12-.95l-.15-.93c-.06-.29-.13-.66-.19-.94l-.23-.93-.26-.93-.29-.92-.33-.92-.36-.91c-.12-.27-.27-.64-.4-.91l-.42-.9c-.14-.27-.32-.62-.47-.89l-.49-.88-.53-.88-.56-.87c-.18-.26-.41-.61-.59-.86l-.63-.85c-.19-.26-.45-.6-.65-.85-.39-.47 1.9-1 6.83-1.29"/><path fill="#81ed3b" d="M8.128 2.124a258 258 0 0 1 32 .13 38.17 38.17 0 0 0-5 18.58c-3.42-.27-8.1-.4-12.64-.39l.52-.56c5.64-7.39 1.64-18.48-6.46-17.68-8.45.85-2.38 15.44.06 18.35-1.33 0-2.58.11-3.72.19-3.17.22-4.77.52-4.77.83v-1c0-.28 0-.66-.05-.95l-.09-.94c0-.29-.08-.66-.12-.95l-.15-.93c-.06-.29-.13-.66-.19-.94l-.23-.93-.26-.93-.29-.92-.33-.92-.36-.91c-.12-.27-.27-.64-.4-.91l-.42-.9c-.14-.27-.32-.62-.47-.89l-.49-.88-.53-.88-.56-.87c-.18-.26-.41-.61-.59-.86l-.63-.85c-.19-.26-.45-.6-.65-.85-.39-.47 1.9-1 6.83-1.29"/><path fill="#7ee83a" d="M8.128 2.124c1.67-.12 3.52-.21 5.49-.28l-.88.59c-4 4.51 2.35 16.87 3.39 18.14-1.15 0-2.24.1-3.24.17-3.17.22-4.77.52-4.77.83v-1c0-.28 0-.66-.05-.95l-.09-.94c0-.29-.08-.66-.12-.95l-.15-.93c-.06-.29-.13-.66-.19-.94l-.23-.93-.26-.93-.29-.92-.33-.92-.36-.91c-.12-.27-.27-.64-.4-.91l-.42-.9c-.14-.27-.32-.62-.47-.89l-.49-.88-.53-.88-.56-.87c-.18-.26-.41-.61-.59-.86l-.63-.85c-.19-.26-.45-.6-.65-.85-.39-.47 1.9-1 6.83-1.29"/><path fill="#7ce439" d="m8.128 2.124 2.83-.17-.15.25c-1.88 5.22 3.17 16.29 4.78 18.39-1 0-1.86.09-2.7.15-3.17.22-4.77.52-4.77.83v-1c0-.28 0-.66-.05-.95l-.09-.94c0-.29-.08-.66-.12-.95l-.15-.93c-.06-.29-.13-.66-.19-.94l-.23-.93-.26-.93-.29-.92-.33-.92-.36-.91c-.12-.27-.27-.64-.4-.91l-.42-.9c-.14-.27-.32-.62-.47-.89l-.49-.88-.53-.88-.56-.87c-.18-.26-.41-.61-.59-.86l-.63-.85c-.19-.26-.45-.6-.65-.85-.39-.47 1.9-1 6.83-1.29"/><path fill="#79df37" d="m8.128 2.124.87-.06v.06c0 6.3 4.54 16.32 6 18.5-.74 0-1.46.07-2.13.12-3.17.22-4.77.52-4.77.83v-1c0-.28 0-.66-.05-.95l-.09-.94c0-.29-.08-.66-.12-.95l-.15-.93c-.06-.29-.13-.66-.19-.94l-.23-.93-.26-.93-.29-.92-.33-.92-.36-.91c-.12-.27-.27-.64-.4-.91l-.42-.9c-.14-.27-.32-.62-.47-.89l-.49-.88-.53-.88-.56-.87c-.18-.26-.41-.61-.59-.86l-.63-.85c-.19-.26-.45-.6-.65-.85-.39-.47 1.9-1 6.83-1.29"/><path fill="#77da36" d="M7.508 2.164c.11.09 0 .32.08.46.37 2.23 4.5 14.81 6.8 18l-1.5.09c-3.17.22-4.77.52-4.77.83v-1c0-.28 0-.66-.05-.95l-.09-.94c0-.29-.08-.66-.12-.95l-.15-.93c-.06-.29-.13-.66-.19-.94l-.23-.93-.26-.93-.29-.92-.33-.92-.36-.91c-.12-.27-.27-.64-.4-.91l-.42-.9c-.14-.27-.32-.62-.47-.89l-.49-.88-.53-.88-.56-.87c-.18-.26-.41-.61-.59-.86l-.63-.85c-.19-.26-.45-.6-.65-.85-.37-.45 1.71-.91 6.21-1.25"/><path fill="#74d535" d="m6.358 2.264 4 10.7c.72 1.94 1 2.82 1.46 3.88a19.4 19.4 0 0 0 1.83 3.85h-.77c-3.17.22-4.77.52-4.77.83v-1c0-.28 0-.66-.05-.95l-.09-.94c0-.29-.08-.66-.12-.95l-.15-.93c-.06-.29-.13-.66-.19-.94l-.23-.93-.26-.93-.29-.92-.33-.92-.36-.91c-.12-.27-.27-.64-.4-.91l-.42-.9c-.14-.27-.32-.62-.47-.89l-.49-.88-.53-.88-.56-.87c-.18-.26-.41-.61-.59-.86l-.63-.85c-.19-.26-.45-.6-.65-.85-.34-.41 1.36-.83 5.06-1.15"/><path fill="#72d134" d="M5.408 2.354s2.82 6.14 5.24 12.99a35 35 0 0 0 2.23 5.4c-3.18.22-4.78.52-4.78.83v-1c0-.28 0-.66-.05-.95l-.09-.94c0-.29-.08-.66-.12-.95l-.15-.93c-.06-.29-.13-.66-.19-.94l-.23-.93-.26-.93-.29-.92-.33-.92-.36-.91c-.12-.27-.27-.64-.4-.91l-.42-.9c-.14-.27-.32-.62-.47-.89l-.49-.88-.53-.88-.56-.87c-.18-.26-.41-.61-.59-.86l-.63-.85c-.19-.26-.45-.6-.65-.85s1.07-.75 4.11-1.06"/><path fill="#6fcc33" d="M4.648 2.434s2.57 4.16 6.11 14.51c.66 1.94.66 1.94 1.45 3.85-2.7.22-4.06.5-4.06.78v-1c0-.28 0-.66-.05-.95l-.09-.94c0-.29-.08-.66-.12-.95l-.15-.93c-.06-.29-.13-.66-.19-.94l-.23-.93-.26-.93-.29-.92-.33-.92-.36-.91c-.12-.27-.27-.64-.4-.91l-.42-.9c-.14-.27-.32-.62-.47-.89l-.49-.88-.53-.88-.56-.87c-.18-.26-.41-.61-.59-.86l-.63-.85c-.19-.26-.45-.6-.65-.85s.83-.68 3.32-1"/><path fill="#6cc732" d="M3.968 2.494a78 78 0 0 1 4.1 8.29c1.36 3.27 2.29 6.7 3.48 10-2.28.2-3.43.46-3.43.72v-1c0-.28 0-.66-.05-.95l-.09-.94c0-.29-.08-.66-.12-.95l-.15-.93c-.06-.29-.13-.66-.19-.94l-.23-.93-.26-.93-.29-.92-.33-.92-.36-.91c-.12-.27-.27-.64-.4-.91l-.42-.9c-.14-.27-.32-.62-.47-.89l-.49-.88-.53-.88-.56-.87c-.18-.26-.41-.61-.59-.86l-.63-.85c-.19-.26-.45-.6-.65-.85s.64-.62 2.67-.89"/><path fill="#6ac230" d="M3.398 2.604s3.21 3 7.61 18.3c-1.92.2-2.89.43-2.89.67v-1c0-.28 0-.66-.05-.95l-.09-.94c0-.29-.08-.66-.12-.95l-.15-.93c-.06-.29-.13-.66-.19-.94l-.23-.93-.26-.93-.29-.92-.33-.92-.36-.91c-.12-.27-.27-.64-.4-.91l-.42-.9c-.14-.27-.32-.62-.47-.89l-.49-.88-.53-.88-.56-.87c-.18-.26-.41-.61-.59-.86l-.63-.85c-.19-.26-.45-.6-.65-.85s.47-.56 2.1-.81"/><path fill="#67be2f" d="M2.908 2.684s4 4 7.63 18.27c-1.61.19-2.42.4-2.42.62v-1c0-.28 0-.66-.05-.95l-.09-.94c0-.29-.08-.66-.12-.95l-.15-.93c-.06-.29-.13-.66-.19-.94l-.23-.93-.26-.93-.29-.92-.33-.92-.36-.91c-.12-.27-.27-.64-.4-.91l-.42-.9c-.14-.27-.32-.62-.47-.89l-.49-.88-.53-.88-.56-.87c-.18-.26-.41-.61-.59-.86l-.63-.85c-.19-.26-.45-.6-.65-.85s.33-.5 1.61-.73"/><path fill="#65b92e" d="M2.488 2.764s4.82 5.21 7.64 18.24c-1.33.17-2 .37-2 .57v-1c0-.28 0-.66-.05-.95l-.09-.94c0-.29-.08-.66-.12-.95l-.15-.93c-.06-.29-.13-.66-.19-.94l-.23-.93-.26-.93-.29-.92-.33-.92-.36-.91c-.12-.27-.27-.64-.4-.91l-.42-.9c-.14-.27-.32-.62-.47-.89l-.49-.88-.53-.88-.56-.87c-.18-.26-.41-.61-.59-.86l-.63-.85c-.19-.26-.45-.6-.65-.85s.22-.44 1.19-.65"/><path fill="#62b42d" d="M2.138 2.854s5.32 5.76 7.63 18.2c-1.1.16-1.65.34-1.65.52v-1c0-.28 0-.66-.05-.95l-.09-.94c0-.29-.08-.66-.12-.95l-.15-.93c-.06-.29-.13-.66-.19-.94l-.23-.93-.26-.93-.29-.92-.33-.92-.36-.91c-.12-.27-.27-.64-.4-.91l-.42-.9c-.14-.27-.32-.62-.47-.89l-.49-.88-.53-.88-.56-.87c-.18-.26-.41-.61-.59-.86l-.63-.85c-.19-.26-.45-.6-.65-.85s.12-.38.84-.56"/><path fill="#5faf2c" d="M1.838 2.934c.05 0 5.58 6 7.61 18.17-.88.15-1.33.31-1.33.47v-1c0-.28 0-.66-.05-.95l-.09-.94c0-.29-.08-.66-.12-.95l-.15-.93c-.06-.29-.13-.66-.19-.94l-.23-.93-.26-.93-.29-.92-.33-.92-.36-.91c-.12-.27-.27-.64-.4-.91l-.42-.9c-.14-.27-.32-.62-.47-.89l-.49-.88-.53-.88-.56-.87c-.18-.26-.41-.61-.59-.86l-.63-.85c-.19-.26-.45-.6-.65-.85s.05-.32.54-.48"/><path fill="#5dab2a" d="M1.648 3.014s6 6.37 7.55 18.14c-.69.13-1 .28-1 .42v-1c0-.28 0-.66-.05-.95l-.09-.94c0-.29-.08-.66-.12-.95l-.15-.93c-.06-.29-.13-.66-.19-.94l-.23-.93-.26-.93-.29-.92-.33-.92-.36-.91c-.12-.27-.27-.64-.4-.91l-.42-.9c-.14-.27-.32-.62-.47-.89l-.49-.88-.53-.88-.56-.87c-.18-.26-.41-.61-.59-.86l-.63-.85c-.19-.26-.45-.6-.65-.85s0-.26.31-.4"/><path fill="#5aa629" d="M1.428 3.104s6 6.07 7.48 18.1c-.52.12-.79.24-.79.37v-1c0-.28 0-.66-.05-.95l-.09-.94c0-.29-.08-.66-.12-.95l-.15-.93c-.06-.29-.13-.66-.19-.94l-.23-.93-.26-.93-.29-.92-.33-.92-.36-.91c-.12-.27-.27-.64-.4-.91l-.42-.9c-.14-.27-.32-.62-.47-.89l-.49-.88-.53-.88-.56-.87c-.18-.26-.41-.61-.59-.86l-.63-.85c-.19-.26-.45-.6-.65-.85s0-.21.13-.31"/><path fill="#58a128" d="M1.308 3.194c.06 0 6.1 6.1 7.39 18.07-.38.1-.58.2-.58.31v-1c0-.28 0-.66-.05-.95l-.09-.94c0-.29-.08-.66-.12-.95l-.15-.93c-.06-.29-.13-.66-.19-.94l-.23-.93-.26-.93-.29-.92-.33-.92-.36-.91c-.12-.27-.27-.64-.4-.91l-.42-.9c-.14-.27-.32-.62-.47-.89l-.49-.88-.53-.88-.56-.87c-.18-.26-.41-.61-.59-.86l-.63-.85c-.19-.26-.45-.6-.65-.85a.15.15 0 0 1 0-.22"/><path fill="#559c27" d="M1.258 3.284a31.44 31.44 0 0 1 7.25 18c-.26.08-.39.17-.39.26v-1c0-.28 0-.66-.05-.95l-.09-.94c0-.29-.08-.66-.12-.95l-.15-.93c-.06-.29-.13-.66-.19-.94l-.23-.93-.26-.93-.29-.92-.33-.92-.36-.91c-.12-.27-.27-.64-.4-.91l-.42-.9c-.14-.27-.32-.62-.47-.89l-.49-.88-.53-.88-.56-.87c-.18-.26-.41-.61-.59-.86l-.63-.85c-.19-.26-.45-.6-.65-.85a.13.13 0 0 1 0-.13"/><path fill="#539826" d="M1.268 3.384a30.85 30.85 0 0 1 7.09 18c-.16.06-.24.13-.24.2v-1c0-.28 0-.66-.05-.95l-.09-.94c0-.29-.08-.66-.12-.95l-.15-.93c-.06-.29-.13-.66-.19-.94l-.23-.93-.26-.93-.29-.92-.33-.92-.36-.91c-.12-.27-.27-.64-.4-.91l-.42-.9c-.14-.27-.32-.62-.47-.89l-.49-.88-.53-.88-.56-.87c-.18-.26-.41-.61-.59-.86l-.63-.85c-.19-.26-.45-.6-.65-.85"/><path fill="#509325" d="M6.398 12.204a29.1 29.1 0 0 1 1.84 9.23c-.08 0-.12.09-.12.14v-1c0-.28 0-.66-.05-.95l-.09-.94c0-.29-.08-.66-.12-.95l-.15-.93c-.06-.29-.13-.66-.19-.94l-.23-.93-.26-.93-.29-.92-.33-.92-.16-.41.16.4"/><path fill="#4d8e23" d="M7.788 17.384c.217 1.36.34 2.733.37 4.11v.08-1c0-.28 0-.66-.05-.95l-.09-.94c0-.29-.08-.66-.12-.95l-.12-.75c0 .11 0 .25.06.35"/><path fill="#4b8922" d="M8.118 21.564v-.47z"/><path fill="#7ee83a" d="M40.098 2.254a38.17 38.17 0 0 0-5 18.58c-3.32-.27-7.83-.4-12.24-.39l.12-.14c3.49-4.56 5.37-15.25-3.6-18.59 7.3-.09 15.17.09 20.74.54"/><path fill="#7ce439" d="M40.098 2.254a38.17 38.17 0 0 0-5 18.58c-3.25-.26-7.6-.34-11.89-.34l.58-.79c.07-.12 6.66-11.51-2.47-18 6.72 0 13.71.15 18.78.56"/><path fill="#79df37" d="M40.098 2.254a38.17 38.17 0 0 0-5 18.58c-3.14-.25-7.34-.38-11.52-.39l.55-.79c1-1.73 5.49-10.73-1.32-18 6.26 0 12.61.18 17.31.56"/><path fill="#77da36" d="M40.098 2.254a38.17 38.17 0 0 0-5 18.58c-3.05-.24-7.1-.37-11.16-.39l.51-.77c0-.1 5.58-10.19-.44-18 5.86 0 11.71.21 16.11.56"/><path fill="#74d535" d="M24.418 20.224c1-1.48 5.2-10.65.75-18.53 5.46 0 10.82.23 14.93.56a38.17 38.17 0 0 0-5 18.58c-3-.24-6.86-.37-10.8-.39l.14-.22"/><path fill="#72d134" d="M25.188 19.664c2.25-4.81 3.47-12.23 1.1-18 5.07.06 10 .24 13.81.55a38.17 38.17 0 0 0-5 18.58c-2.88-.19-6.62-.3-10.45-.3.16-.24.38-.55.52-.79"/><path fill="#6fcc33" d="M25.558 19.664c3.9-9.37 2.22-16.59 1.85-17.94 4.67.07 9.15.24 12.69.53a38.17 38.17 0 0 0-5 18.58c-2.76-.22-6.33-.35-10-.38.14-.24.34-.55.47-.79"/><path fill="#6cc732" d="M25.878 19.764c1-1.68 3.77-10.29 2.63-18 4.27.08 8.33.25 11.59.51a38.17 38.17 0 0 0-5 18.58c-2.65-.21-6.06-.34-9.57-.38.11-.2.25-.48.37-.69"/><path fill="#6ac230" d="M26.408 19.674a48.5 48.5 0 0 0 3.24-17.91c3.86.09 7.5.25 10.48.49a38.17 38.17 0 0 0-5 18.58c-2.55-.2-5.78-.33-9.14-.37.14-.24.35-.54.47-.79"/><path fill="#67be2f" d="M26.888 19.684a68.8 68.8 0 0 0 3.83-17.89c3.45.09 6.68.24 9.38.46a38.17 38.17 0 0 0-5 18.58c-2.45-.19-5.45-.34-8.63-.34.13-.24.31-.55.42-.79"/><path fill="#65b92e" d="M27.318 19.774c2-4.73 4-14.76 4.48-18 3 .09 5.89.23 8.3.43a38.17 38.17 0 0 0-5 18.58c-2.28-.18-5.1-.3-8.08-.35.1-.22.22-.5.32-.71"/><path fill="#62b42d" d="M27.948 19.704c2.11-5.67 4.88-17.73 4.91-17.85 2.64.1 5.11.23 7.24.4a38.17 38.17 0 0 0-5 18.58c-2.13-.17-4.74-.29-7.51-.34.12-.24.28-.55.38-.79"/><path fill="#5faf2c" d="M28.528 19.714c1-3 2.05-6.18 5.37-17.82 2.25.09 4.35.21 6.2.36a38.17 38.17 0 0 0-5 18.58c-2-.16-4.35-.27-6.88-.33.1-.24.24-.55.33-.79"/><path fill="#a3f270" d="M14.768 11.874c-.62-6.87 4.19-7.88 7.53-4.88 3.84 3.5 1.63 12.5-2.16 13.18-2.51.47-4.92-3.26-5.37-8.3"/><path fill="#5dab2a" d="M29.148 19.734c2-5.89 3.73-11.9 5.77-17.8 1.86.09 3.61.19 5.18.32a38.17 38.17 0 0 0-5 18.58c-1.8-.14-4-.25-6.24-.31.09-.24.22-.55.31-.79"/><path fill="#a6f275" d="M15.088 11.864c-.4-6.44 4.17-7 6.69-4.84 4.71 4 1.5 12.31-1.71 12.82-2.41.38-4.7-3.27-5-8"/><path fill="#5aa629" d="M29.788 19.754c3.84-12 3.84-12 6.13-17.77 1.49.08 2.9.17 4.18.27a38.17 38.17 0 0 0-5 18.58c-1.63-.13-3.53-.23-5.57-.29.08-.24.2-.55.28-.79"/><path fill="#a9f379" d="M15.438 12.644c-.81-7.14 4.33-6.82 5.8-5.62 5.33 4.36 1.68 12.09-1.17 12.49-1.83.26-4-1.78-4.63-6.87"/><path fill="#acf37e" d="M15.648 12.634c-.57-5.85 3.15-6.58 5.38-5.34 1.46.8 2.89 3.18 2.66 6-.36 4.36-2.54 5.78-3.64 5.92-2.15.28-4-2.49-4.4-6.58"/><path fill="#58a128" d="M30.438 19.784c3.65-11.53 3.65-11.53 6.47-17.75 1.13.07 2.19.14 3.19.22a38.17 38.17 0 0 0-5 18.58c-1.45-.12-3.12-.21-4.9-.27.08-.24.19-.55.26-.78"/><path fill="#aef382" d="M15.908 12.624c-.48-5.93 3.84-6.12 5.27-4.82 4.83 4.36 1.18 10.82-1.12 11.12s-3.88-3-4.15-6.3"/><path fill="#b1f485" d="M16.148 12.614c-.29-4.47 2.38-6.06 5-4.48 3.44 2.1 2.65 10-1 10.49-2.39.29-3.75-3.41-3.91-6"/><path fill="#559c27" d="M31.108 19.804c2.39-8.1 3.44-11 6.79-17.71l2.2.16a38.17 38.17 0 0 0-5 18.58c-1.26-.1-2.69-.18-4.22-.24.07-.24.18-.55.25-.79"/><path fill="#b3f489" d="M16.378 12.604c-.11-2.5.82-3.68 1.38-4.17a3 3 0 0 1 3.38.12c.1.06 2.33 1.61 1.9 5.53a6.9 6.9 0 0 1-1.31 3.18 3.47 3.47 0 0 1-1.67 1.06c-2.21.25-3.55-3.16-3.68-5.72"/><path fill="#b5f48c" d="M16.648 12.604a4.85 4.85 0 0 1 1.21-3.72 2.66 2.66 0 0 1 3.34.09 5.71 5.71 0 0 1 1.65 5.11 7 7 0 0 1-1.33 3.14s-1.42.8-1.44.8c-2.09.23-3.35-3.06-3.43-5.42"/><path fill="#539826" d="M31.778 19.834c2.45-8.44 3.78-11.74 7.1-17.67l1.22.09a38.17 38.17 0 0 0-5 18.58c-1.08-.09-2.27-.16-3.55-.21.08-.24.18-.55.25-.79"/><path fill="#b8f590" d="M16.868 12.594a4.9 4.9 0 0 1 1-3.26 3 3 0 0 1 1.57-.64s1.71.69 1.73.71a5.49 5.49 0 0 1 1.39 4.68 6.5 6.5 0 0 1-1.1 2.77 2 2 0 0 1-3.42-.36 7.3 7.3 0 0 1-1.17-3.94"/><path fill="#baf593" d="M17.138 12.584a4.67 4.67 0 0 1 .82-2.78 3.24 3.24 0 0 1 1.54-.71 3.25 3.25 0 0 1 1.72.77 5.32 5.32 0 0 1 1.13 4.22 6.3 6.3 0 0 1-.87 2.41s-1.4.92-1.44.92-1.3-.19-1.71-.87a6.9 6.9 0 0 1-1.19-3.94"/><path fill="#509325" d="M32.458 19.874a58.8 58.8 0 0 1 7.4-17.64h.24a38.17 38.17 0 0 0-5 18.58q-1.32-.111-2.85-.18l.23-.78"/><path fill="#bcf596" d="M17.408 12.574a4.8 4.8 0 0 1 .61-2.28s1.46-.8 1.52-.8a13 13 0 0 1 1.71.86c.326.395.556.86.67 1.36a5.47 5.47 0 0 1-.45 4.33 2.66 2.66 0 0 1-1.44 1 16 16 0 0 1-1.47-.63c-.2-.14-.3-.48-.43-.69a6.56 6.56 0 0 1-.72-3.16"/><path fill="#bdf699" d="M17.648 12.574a4.6 4.6 0 0 1 .41-1.74 7 7 0 0 1 1.5-.92q.887.427 1.69 1a2 2 0 0 1 .37.83 4.83 4.83 0 0 1-.3 4q-.628.549-1.33 1s-1.29-.39-1.62-1a6.1 6.1 0 0 1-.72-3.17"/><path fill="#bff69c" d="M17.958 12.564a2.16 2.16 0 0 1 .21-1.07c.33-.44.9-1.12 1.46-1.13s1.26.74 1.68 1.2a2.3 2.3 0 0 1 .34.93 5.15 5.15 0 0 1-.13 2.38c-.08.31-.46.59-.69.8s-.48.6-.78.63c0 0-2.3-.34-2-3.75"/><path fill="#4d8e23" d="M33.158 19.904a60 60 0 0 1 4.33-12 37.1 37.1 0 0 0-2.41 13l-2.15-.14.23-.79"/><path fill="#c1f69f" d="M18.228 12.554c.07-.82 1.37-1.73 1.44-1.73q.603.401 1.13.9c.412.418.642.983.64 1.57 0 .42.12 1.12-1.22 2.4-.07.06-.15.18-.23.19a3.6 3.6 0 0 1-1.54-1.39 4.7 4.7 0 0 1-.22-2"/><path fill="#4b8922" d="M33.868 19.954a66 66 0 0 1 2.08-6.93 36.2 36.2 0 0 0-.87 7.81l-1.43-.1c.06-.24.15-.55.21-.78"/><path fill="#c3f6a2" d="M18.828 12.544c.16-.4.45-1.13.89-1.15a2.82 2.82 0 0 1 1.2 1.91 2.75 2.75 0 0 1-1 2.06s-1.81-1.13-1.13-2.82"/><path fill="#c5f7a4" d="M19.508 12.494c.06-.13.12-.39.26-.39.39 0 .53.78.56 1.17a3 3 0 0 1-.4 1.38 4.1 4.1 0 0 1-.61-1.37 1.7 1.7 0 0 1 .19-.79"/><path fill="#488521" d="M34.648 20.004c.22-1 .35-1.53.63-2.63a36 36 0 0 0-.17 3.46h-.65c.06-.23.14-.55.19-.78"/><path fill="#437b1f" d="m23.768 36.684.1-34.83zm0 0 .1-34.83zm0 0 .1-34.83zm0 0 .1-34.83zm0 0 .1-34.83zm0 0 .1-34.83zm0 0 .1-34.83zm0 0 .1-34.83z"/><path fill="#9ff16a" d="M46.428 3.544c-4.65 5.89-6.78 11.48-6.93 18.12 0-.3-1.47-.59-4.42-.83a38.17 38.17 0 0 1 5-18.58c4.6.37 6.7.84 6.33 1.29"/><path fill="#9ff16a" d="M40.098 2.254c4.6.37 6.7.84 6.33 1.29l-.66.84c-.19.26-.45.59-.63.85l-.6.86-.57.86-.53.88-.5.88-.47.89-.43.9-.4.9-.37.91-.33.91-.3.93-.26.92c-.07.28-.17.65-.23.93l-.2.94c0 .28-.12.65-.16.94l-.13.94c0 .28-.06.66-.09.94v2c0-.3-1.47-.59-4.42-.83a38.17 38.17 0 0 1 5-18.58"/><path fill="#9bf164" d="M40.098 2.254c4.6.37 6.7.84 6.33 1.29l-.66.84c-.19.26-.45.59-.63.85l-.6.86-.57.86-.53.88-.5.88-.47.89-.43.9-.4.9-.37.91-.33.91-.3.93-.26.92c-.07.28-.17.65-.23.93l-.2.94c0 .28-.12.65-.16.94l-.13.94c0 .28-.06.66-.09.94v2c0-.3-1.47-.59-4.42-.83a38.17 38.17 0 0 1 5-18.58"/><path fill="#96f05c" d="M40.098 2.254c4.6.37 6.7.84 6.33 1.29l-.66.84c-.19.26-.45.59-.63.85l-.6.86-.57.86-.53.88-.5.88-.47.89-.43.9-.4.9-.37.91-.33.91-.3.93-.26.92c-.07.28-.17.65-.23.93l-.2.94c0 .28-.12.65-.16.94l-.13.94c0 .28-.06.66-.09.94v2c0-.3-1.47-.59-4.42-.83a38.17 38.17 0 0 1 5-18.58"/><path fill="#90ef53" d="M40.098 2.254c4.6.37 6.7.84 6.33 1.29l-.66.84c-.19.26-.45.59-.63.85l-.6.86-.57.86-.53.88-.5.88-.47.89-.43.9-.4.9-.37.91-.33.91-.3.93-.26.92c-.07.28-.17.65-.23.93l-.2.94c0 .28-.12.65-.16.94l-.13.94c0 .28-.06.66-.09.94v2c0-.3-1.47-.59-4.42-.83a38.17 38.17 0 0 1 5-18.58"/><path fill="#81ed3b" d="M40.098 2.254c4.6.37 6.7.84 6.33 1.29l-.66.84c-.19.26-.45.59-.63.85l-.6.86-.57.86-.53.88-.5.88-.47.89-.43.9-.4.9-.37.91-.33.91-.3.93-.26.92c-.07.28-.17.65-.23.93l-.2.94c0 .28-.12.65-.16.94l-.13.94c0 .28-.06.66-.09.94v2c0-.3-1.47-.59-4.42-.83a38.17 38.17 0 0 1 5-18.58"/><path fill="#7ee83a" d="M40.098 2.254c4.6.37 6.7.84 6.33 1.29l-.66.84c-.19.26-.45.59-.63.85l-.6.86-.57.86-.53.88-.5.88-.47.89-.43.9-.4.9-.37.91-.33.91-.3.93-.26.92c-.07.28-.17.65-.23.93l-.2.94c0 .28-.12.65-.16.94l-.13.94c0 .28-.06.66-.09.94v2c0-.3-1.47-.59-4.42-.83a38.17 38.17 0 0 1 5-18.58"/><path fill="#7ce439" d="M40.098 2.254c4.6.37 6.7.84 6.33 1.29l-.66.84c-.19.26-.45.59-.63.85l-.6.86-.57.86-.53.88-.5.88-.47.89-.43.9-.4.9-.37.91-.33.91-.3.93-.26.92c-.07.28-.17.65-.23.93l-.2.94c0 .28-.12.65-.16.94l-.13.94c0 .28-.06.66-.09.94v2c0-.3-1.47-.59-4.42-.83a38.17 38.17 0 0 1 5-18.58"/><path fill="#79df37" d="M40.098 2.254c4.6.37 6.7.84 6.33 1.29l-.66.84c-.19.26-.45.59-.63.85l-.6.86-.57.86-.53.88-.5.88-.47.89-.43.9-.4.9-.37.91-.33.91-.3.93-.26.92c-.07.28-.17.65-.23.93l-.2.94c0 .28-.12.65-.16.94l-.13.94c0 .28-.06.66-.09.94v2c0-.3-1.47-.59-4.42-.83a38.17 38.17 0 0 1 5-18.58"/><path fill="#77da36" d="M40.098 2.254c4.6.37 6.7.84 6.33 1.29l-.66.84c-.19.26-.45.59-.63.85l-.6.86-.57.86-.53.88-.5.88-.47.89-.43.9-.4.9-.37.91-.33.91-.3.93-.26.92c-.07.28-.17.65-.23.93l-.2.94c0 .28-.12.65-.16.94l-.13.94c0 .28-.06.66-.09.94v2c0-.3-1.47-.59-4.42-.83a38.17 38.17 0 0 1 5-18.58"/><path fill="#74d535" d="M40.098 2.254c4.6.37 6.7.84 6.33 1.29l-.66.84c-.19.26-.45.59-.63.85l-.6.86-.57.86-.53.88-.5.88-.47.89-.43.9-.4.9-.37.91-.33.91-.3.93-.26.92c-.07.28-.17.65-.23.93l-.2.94c0 .28-.12.65-.16.94l-.13.94c0 .28-.06.66-.09.94v2c0-.3-1.47-.59-4.42-.83a38.17 38.17 0 0 1 5-18.58"/><path fill="#72d134" d="M40.098 2.254c4.6.37 6.7.84 6.33 1.29l-.66.84c-.19.26-.45.59-.63.85l-.6.86-.57.86-.53.88-.5.88-.47.89-.43.9-.4.9-.37.91-.33.91-.3.93-.26.92c-.07.28-.17.65-.23.93l-.2.94c0 .28-.12.65-.16.94l-.13.94c0 .28-.06.66-.09.94v2c0-.3-1.47-.59-4.42-.83a38.17 38.17 0 0 1 5-18.58"/><path fill="#6fcc33" d="M40.098 2.254c4.6.37 6.7.84 6.33 1.29l-.66.84c-.19.26-.45.59-.63.85l-.6.86-.57.86-.53.88-.5.88-.47.89-.43.9-.4.9-.37.91-.33.91-.3.93-.26.92c-.07.28-.17.65-.23.93l-.2.94c0 .28-.12.65-.16.94l-.13.94c0 .28-.06.66-.09.94v2c0-.3-1.47-.59-4.42-.83a38.17 38.17 0 0 1 5-18.58"/><path fill="#6cc732" d="M40.098 2.254c4.6.37 6.7.84 6.33 1.29l-.66.84c-.19.26-.45.59-.63.85l-.6.86-.57.86-.53.88-.5.88-.47.89-.43.9-.4.9-.37.91-.33.91-.3.93-.26.92c-.07.28-.17.65-.23.93l-.2.94c0 .28-.12.65-.16.94l-.13.94c0 .28-.06.66-.09.94v2c0-.3-1.47-.59-4.42-.83a38.17 38.17 0 0 1 5-18.58"/><path fill="#6ac230" d="M40.098 2.254c4.6.37 6.7.84 6.33 1.29l-.66.84c-.19.26-.45.59-.63.85l-.6.86-.57.86-.53.88-.5.88-.47.89-.43.9-.4.9-.37.91-.33.91-.3.93-.26.92c-.07.28-.17.65-.23.93l-.2.94c0 .28-.12.65-.16.94l-.13.94c0 .28-.06.66-.09.94v2c0-.3-1.47-.59-4.42-.83a38.17 38.17 0 0 1 5-18.58"/><path fill="#67be2f" d="M40.098 2.254c4.6.37 6.7.84 6.33 1.29l-.66.84c-.19.26-.45.59-.63.85l-.6.86-.57.86-.53.88-.5.88-.47.89-.43.9-.4.9-.37.91-.33.91-.3.93-.26.92c-.07.28-.17.65-.23.93l-.2.94c0 .28-.12.65-.16.94l-.13.94c0 .28-.06.66-.09.94v2c0-.3-1.47-.59-4.42-.83a38.17 38.17 0 0 1 5-18.58"/><path fill="#65b92e" d="M40.098 2.254c4.6.37 6.7.84 6.33 1.29l-.66.84c-.19.26-.45.59-.63.85l-.6.86-.57.86-.53.88-.5.88-.47.89-.43.9-.4.9-.37.91-.33.91-.3.93-.26.92c-.07.28-.17.65-.23.93l-.2.94c0 .28-.12.65-.16.94l-.13.94c0 .28-.06.66-.09.94v2c0-.3-1.47-.59-4.42-.83a38.17 38.17 0 0 1 5-18.58"/><path fill="#62b42d" d="M40.098 2.254c4.6.37 6.7.84 6.33 1.29l-.66.84c-.19.26-.45.59-.63.85l-.6.86-.57.86-.53.88-.5.88-.47.89-.43.9-.4.9-.37.91-.33.91-.3.93-.26.92c-.07.28-.17.65-.23.93l-.2.94c0 .28-.12.65-.16.94l-.13.94c0 .28-.06.66-.09.94v2c0-.3-1.47-.59-4.42-.83a38.17 38.17 0 0 1 5-18.58"/><path fill="#5faf2c" d="M40.098 2.254c4.6.37 6.7.84 6.33 1.29l-.66.84c-.19.26-.45.59-.63.85l-.6.86-.57.86-.53.88-.5.88-.47.89-.43.9-.4.9-.37.91-.33.91-.3.93-.26.92c-.07.28-.17.65-.23.93l-.2.94c0 .28-.12.65-.16.94l-.13.94c0 .28-.06.66-.09.94v2c0-.3-1.47-.59-4.42-.83a38.17 38.17 0 0 1 5-18.58"/><path fill="#5dab2a" d="M40.098 2.254c4.6.37 6.7.84 6.33 1.29l-.66.84c-.19.26-.45.59-.63.85l-.6.86-.57.86-.53.88-.5.88-.47.89-.43.9-.4.9-.37.91-.33.91-.3.93-.26.92c-.07.28-.17.65-.23.93l-.2.94c0 .28-.12.65-.16.94l-.13.94c0 .28-.06.66-.09.94v2c0-.3-1.47-.59-4.42-.83a38.17 38.17 0 0 1 5-18.58"/><path fill="#5aa629" d="M40.098 2.254c4.6.37 6.7.84 6.33 1.29l-.66.84c-.19.26-.45.59-.63.85l-.6.86-.57.86-.53.88-.5.88-.47.89-.43.9-.4.9-.37.91-.33.91-.3.93-.26.92c-.07.28-.17.65-.23.93l-.2.94c0 .28-.12.65-.16.94l-.13.94c0 .28-.06.66-.09.94v2c0-.3-1.47-.59-4.42-.83a38.17 38.17 0 0 1 5-18.58"/><path fill="#58a128" d="M40.098 2.254c4.6.37 6.7.84 6.33 1.29l-.66.84c-.19.26-.45.59-.63.85l-.6.86-.57.86-.53.88-.5.88-.47.89-.43.9-.4.9-.37.91-.33.91-.3.93-.26.92c-.07.28-.17.65-.23.93l-.2.94c0 .28-.12.65-.16.94l-.13.94c0 .28-.06.66-.09.94v2c0-.3-1.47-.59-4.42-.83a38.17 38.17 0 0 1 5-18.58"/><path fill="#559c27" d="M40.098 2.254c4.6.37 6.7.84 6.33 1.29l-.66.84c-.19.26-.45.59-.63.85l-.6.86-.57.86-.53.88-.5.88-.47.89-.43.9-.4.9-.37.91-.33.91-.3.93-.26.92c-.07.28-.17.65-.23.93l-.2.94c0 .28-.12.65-.16.94l-.13.94c0 .28-.06.66-.09.94v2c0-.3-1.47-.59-4.42-.83a38.17 38.17 0 0 1 5-18.58"/><path fill="#539826" d="M40.098 2.254c4.6.37 6.7.84 6.33 1.29l-.66.84c-.19.26-.45.59-.63.85l-.6.86-.57.86-.53.88-.5.88-.47.89-.43.9-.4.9-.37.91-.33.91-.3.93-.26.92c-.07.28-.17.65-.23.93l-.2.94c0 .28-.12.65-.16.94l-.13.94c0 .28-.06.66-.09.94v2c0-.3-1.47-.59-4.42-.83a38.17 38.17 0 0 1 5-18.58"/><path fill="#509325" d="M40.098 2.254c4.6.37 6.7.84 6.33 1.29l-.66.84c-.19.26-.45.59-.63.85l-.6.86-.57.86-.53.88-.5.88-.47.89-.43.9-.4.9-.37.91-.33.91-.3.93-.26.92c-.07.28-.17.65-.23.93l-.2.94c0 .28-.12.65-.16.94l-.13.94c0 .28-.06.66-.09.94v2c0-.3-1.47-.59-4.42-.83a38.17 38.17 0 0 1 5-18.58"/><path fill="#4d8e23" d="M37.488 7.874a43 43 0 0 1 2.89-4.83c.14-.22.24-.62.48-.73 4.07.36 5.92.8 5.57 1.23l-.66.84c-.19.26-.45.59-.63.85l-.6.86-.57.86-.53.88-.5.88-.47.89-.43.9-.4.9-.37.91-.33.91-.3.93-.26.92c-.07.28-.17.65-.23.93l-.2.94c0 .28-.12.65-.16.94l-.13.94c0 .28-.06.66-.09.94v2c0-.3-1.47-.59-4.42-.83a37.1 37.1 0 0 1 2.41-13"/><path fill="#4b8922" d="M35.948 13.024a45.5 45.5 0 0 1 5.39-9.89c.15-.22.26-.62.5-.73 3.38.34 4.91.75 4.59 1.14l-.66.84c-.19.26-.45.59-.63.85l-.6.86-.57.86-.53.88-.5.88-.47.89-.43.9-.4.9-.37.91-.33.91-.3.93-.26.92c-.07.28-.17.65-.23.93l-.2.94c0 .28-.12.65-.16.94l-.13.94c0 .28-.06.66-.09.94v2c0-.3-1.47-.59-4.42-.83a36.2 36.2 0 0 1 .87-7.81"/><path fill="#488521" d="M35.248 17.374a40.7 40.7 0 0 1 7.05-14.14c.16-.21.27-.61.52-.72 2.7.32 3.9.68 3.61 1l-.66.84c-.19.26-.45.59-.63.85l-.6.86-.57.86-.53.88-.5.88-.47.89-.43.9-.4.9-.37.91-.33.91-.3.93-.26.92c-.07.28-.17.65-.23.93l-.2.94c0 .28-.12.65-.16.94l-.13.94c0 .28-.06.66-.09.94v2c0-.3-1.47-.59-4.42-.83 0-1.15.06-2.31.17-3.46"/><path fill="#468020" d="M35.458 20.074c1.91-8 4.32-12.21 7.85-16.71.16-.21.29-.61.54-.72 2 .29 2.83.6 2.58.9l-.66.84c-.19.26-.45.59-.63.85l-.6.86-.57.86-.53.88-.5.88-.47.89-.43.9-.4.9-.37.91-.33.91-.3.93-.26.92c-.07.28-.17.65-.23.93l-.2.94c0 .28-.12.65-.16.94l-.13.94c0 .28-.06.66-.09.94v2c0-.29-1.41-.58-4.24-.81l.2-.78"/><path fill="#437b1f" d="M36.468 20.164a35.5 35.5 0 0 1 7.89-16.67c.17-.21.32-.61.57-.71q1.8.36 1.5.72l-.66.84c-.19.26-.45.59-.63.85l-.6.86-.57.86-.53.88-.5.88-.47.89-.43.9-.4.9-.37.91-.33.91-.3.93-.26.92c-.07.28-.17.65-.23.93l-.2.94c0 .28-.12.65-.16.94l-.13.94c0 .28-.06.66-.09.94v2c0-.25-1.09-.51-3.27-.73.07-.23.18-.53.24-.77"/><path fill="#437b1f" d="m47.648 2.034-1.24 1.51c.2-.24-.3-.48-1.49-.72l1.16-1.55c1.26.24 1.78.5 1.57.76"/><path fill="#468020" d="m46.098 1.274-1.16 1.55c-.31-.06-.67-.12-1.07-.17l1.1-1.57c.43.06.8.12 1.13.19"/><path fill="#488521" d="m44.968 1.084-1.1 1.57-1-.14 1-1.57 1.07.14"/><path fill="#4b8922" d="m43.898.944-1.05 1.55-1-.11 1-1.57 1 .11"/><path fill="#4d8e23" d="m42.848.834-1 1.57-1-.09.94-1.58 1 .1"/><path fill="#509325" d="m41.798.734-.94 1.58-.76-.06.9-1.59zM40.998.664l-.9 1.59h-.23l.88-1.59z"/><path fill="#539826" d="m40.748.644-.88 1.59-1-.07.83-1.6 1 .08"/><path fill="#559c27" d="m39.708.564-.83 1.6-1-.07.77-1.6 1 .06"/><path fill="#58a128" d="m38.648.494-.78 1.59-1-.06.78-1.53c.35 0 .7 0 1 .06"/><path fill="#5aa629" d="m37.648.494-.72 1.59-1-.05.67-1.6z"/><path fill="#5dab2a" d="m36.588.384-.67 1.6h-1l.61-1.6z"/><path fill="#5faf2c" d="m35.528.334-.61 1.6h-1l.56-1.61 1.08.05"/><path fill="#62b42d" d="m34.448.284-.56 1.61h-1l.49-1.61h1.11"/><path fill="#65b92e" d="m33.338.244-.49 1.61h-1.07l.44-1.61z"/><path fill="#67be2f" d="m32.218.214-.44 1.61-1.13-.03.38-1.62h1.15"/><path fill="#6ac230" d="m31.068.174-.42 1.62h-1.1l.32-1.62h1.16"/><path fill="#6cc732" d="m29.908.144-.32 1.62h-1.11l.25-1.62z"/><path fill="#6fcc33" d="m28.728.124-.25 1.62h-1.12l.19-1.62z"/><path fill="#72d134" d="m27.548.104-.19 1.62h-1.13l.14-1.61h1.18"/><path fill="#74d535" d="m26.368.094-.14 1.61h-1.14l.07-1.61z"/><path fill="#77da36" d="m25.158.084-.07 1.61h-1.18V.074h1.25"/><path fill="#79df37" d="M23.908.074v1.62h-1.26V.074h1.31"/><path fill="#7ce439" d="M22.648.074v1.62h-1.47l-.14-1.62z"/><path fill="#7ee83a" d="m21.038.074.14 1.62h-2l-.25-1.62h2.12"/><path fill="#81ed3b" d="m18.918.094.25 1.62c-1.82 0-3.6.07-5.3.12l-.55-1.61c1.8-.06 3.68-.1 5.6-.13"/><path fill="#7ee83a" d="m13.318.224.55 1.61c-1 0-1.89.07-2.78.12l-.7-1.61z"/><path fill="#7ce439" d="m10.388.344.7 1.61-2 .11-.8-1.57 2.1-.12"/><path fill="#79df37" d="m8.288.494.81 1.6-1 .06h-.56l-.89-1.58h.59l1-.06"/><path fill="#77da36" d="m6.648.574.89 1.59-1.18.09-1-1.58 1.25-.1"/><path fill="#74d535" d="m5.428.674 1 1.58-1 .1-1-1.59z"/><path fill="#72d134" d="m4.428.764 1 1.59-.79.08-1.05-1.58z"/><path fill="#6fcc33" d="m3.588.854 1.06 1.58-.66.09-1.09-1.58.7-.09"/><path fill="#6cc732" d="m2.888.944 1.09 1.55-.57.08-1.12-1.57.6-.09"/><path fill="#6ac230" d="m2.288 1.034 1.12 1.57-.49.08-1.15-1.56z"/><path fill="#67be2f" d="m1.768 1.124 1.15 1.56-.42.08-1.17-1.56z"/><path fill="#65b92e" d="m1.328 1.204 1.17 1.56-.36.09-1.19-1.56z"/><path fill="#62b42d" d="m.948 1.294 1.19 1.56a2 2 0 0 0-.29.08l-1.2-1.55.31-.09"/><path fill="#5faf2c" d="m.648 1.384 1.21 1.55-.24.08-1.23-1.52.25-.09"/><path fill="#5dab2a" d="m.388 1.494 1.26 1.52-.18.09-1.23-1.54.19-.09"/><path fill="#5aa629" d="m.198 1.564 1.23 1.54-.12.09-1.23-1.54z"/><path fill="#58a128" d="m.078 1.654 1.23 1.54a.2.2 0 0 0 0 .09l-1.24-1.53a.4.4 0 0 1 .06-.1"/><path fill="#559c27" d="m.018 1.754 1.24 1.53a.17.17 0 0 0 0 .1l-1.23-1.53a.12.12 0 0 1 0-.1"/><path fill="#539826" d="m.038 1.854 1.23 1.53-1.21-1.49"/><path fill="#437b1f" d="M8.118 21.574v15.07c0 .25 1.08.5 3.26.72v-15.07c-2.17-.21-3.26-.47-3.26-.72"/><path fill="#468020" d="M11.378 22.294v15.07l1 .09v-15.07z"/><path fill="#488521" d="M12.358 22.384v15.07h.84v-15.06h-.84"/><path fill="#4b8922" d="M13.198 22.494v15.06l.76.06v-15.07z"/><path fill="#4d8e23" d="M13.958 22.494v15.07h.73v-15.07h-.74"/><path fill="#509325" d="M14.698 22.544v15.07h.71v-15.07h-.7"/><path fill="#539826" d="M15.398 22.584v15.07h.68v-15.07z"/><path fill="#559c27" d="M16.078 22.614v15.07h.68l.05-15.07h-.69"/><path fill="#58a128" d="m16.768 22.644-.05 15.07h.68v-15.06h-.67"/><path fill="#5aa629" d="M17.438 22.674v15.06h.67v-15.07h-.67"/><path fill="#5dab2a" d="M18.108 22.694v15.07h.67v-15.07h-.68"/><path fill="#5faf2c" d="M18.788 22.714v15.07h.64v-15.06h-.63"/><path fill="#62b42d" d="M19.418 22.734v15.06h.63v-15.07h-.64"/><path fill="#65b92e" d="M20.058 22.744v15.07h.57v-15.07h-.56"/><path fill="#67be2f" d="M20.648 22.754v15.07h.56l.05-15.07z"/><path fill="#6ac230" d="m21.188 22.764-.05 15.07h.51v-15.06h-.47"/><path fill="#6cc732" d="M21.648 22.774v15.07h.47v-15.07z"/><path fill="#6fcc33" d="M22.128 22.774v15.07h.43v-15.07z"/><path fill="#72d134" d="M22.558 22.784v15.07h.39v-15.07z"/><path fill="#74d535" d="M22.948 22.784v15.07h.39v-15.07z"/><path fill="#77da36" d="M23.338 22.784v15.07h.31v-15.07h-.37"/><path fill="#79df37" d="M23.708 22.784v15.07h.35v-15.06h-.36"/><path fill="#7ce439" d="M24.068 22.794v15.06h.36v-15.06h-.35"/><path fill="#7ee83a" d="M24.418 22.794v15.06h.35v-15.06h-.36"/><path fill="#81ed3b" d="M24.778 22.794v15.06h.39v-15.07h-.39"/><path fill="#90ef53" d="M25.168 22.784v15.07h.39v-15.07h-.38"/><path fill="#96f05c" d="M25.548 22.784v15.07h.39v-15.07z"/><path fill="#9bf164" d="M25.938 22.784v15.07h.6v-15.07z"/><path fill="#9ff16a" d="M26.538 22.774v15.07h.61v-15.07z"/><path fill="#a3f270" d="M27.148 22.774v15.07h1.43v-15.07z"/><path fill="#9ff16a" d="M28.578 22.744v15.07h.89v-15.07z"/><path fill="#9bf164" d="M29.468 22.724v15.07h.52v-15.07h-.53"/><path fill="#96f05c" d="M29.998 22.714v15.07h.52v-15.07h-.51"/><path fill="#90ef53" d="M30.508 22.694v15.07h.49v-15.06h-.49"/><path fill="#81ed3b" d="M30.998 22.684v15.06h.48v-15.07h-.49"/><path fill="#7ee83a" d="M31.488 22.664v15.07h.53l.05-15.06h-.53"/><path fill="#7ce439" d="m32.018 22.644-.05 15.06h.56l.05-15.07h-.56"/><path fill="#79df37" d="m32.578 22.614-.05 15.07h.66v-15.07h-.65"/><path fill="#77da36" d="M33.228 22.584v15.07h.71v-15.06h-.72"/><path fill="#74d535" d="M33.948 22.544v15.06h.78v-15.06h-.77"/><path fill="#72d134" d="M34.718 22.494v15.06h.72v-15.07l-.71.06"/><path fill="#6fcc33" d="M35.438 22.434v15.07l.62-.05v-15.07h-.63"/><path fill="#6cc732" d="M36.068 22.384v15.07h.55v-15.07h-.54"/><path fill="#6ac230" d="M36.648 22.334v15.07l.47-.06v-15.06h-.47"/><path fill="#67be2f" d="M37.078 22.284v15.06h.41v-15.06l-.41.05"/><path fill="#65b92e" d="M37.488 22.234v15.06h.36v-15.06z"/><path fill="#62b42d" d="M37.848 22.184v15.06h.32v-15.06z"/><path fill="#5faf2c" d="M38.168 22.134v15.06h.28v-15.06h-.29"/><path fill="#5dab2a" d="M38.458 22.084v15.06l.25-.05v-15.07z"/><path fill="#5aa629" d="M38.708 22.024v15.07h.22v-15.07h-.21"/><path fill="#58a128" d="M38.918 21.974v15.07l.19-.06v-15.06h-.19"/><path fill="#559c27" d="M39.108 21.924v15.06h.15v-15.07l-.15.06"/><path fill="#539826" d="M39.258 21.864v15.07l.12-.06v-15.07z"/><path fill="#509325" d="M39.378 21.804v15.07a.3.3 0 0 0 .08-.07v-15.06a.3.3 0 0 1-.08.06"/><path fill="#4d8e23" d="M39.458 21.744v15.06a.1.1 0 0 0 0-.06v-15.07z"/><path fill="#4b8922" d="m39.498 21.674-.05 15.07v-.01l.05-15.07z"/><path fill="#9ff16a" d="M1.298 3.414c4.61 5.92 6.72 11.52 6.82 18.16 0 .29 1.47.59 4.42.83a180 180 0 0 0 22.19.09c3.17-.23 4.77-.53 4.77-.83.14-6.64 2.28-12.23 6.93-18.12-.33.41-2.61.8-6.84 1.09a256 256 0 0 1-31.94-.14c-3.92-.31-6-.7-6.33-1.09"/><path fill="#9ff16a" d="M39.568 19.764c.08-1.27.08-1.27.22-1.88l.16-.94c.06-.28.13-.66.2-.94l.23-.93c.08-.28.18-.65.26-.92l.3-.92.33-.92.37-.91c.12-.27.28-.64.4-.9l.43-.9.47-.89.5-.88.53-.88.57-.86c.18-.26.41-.61.6-.86l.63-.85.66-.84c-.33.41-2.61.8-6.84 1.09a256 256 0 0 1-31.94-.14c-3.92-.31-6-.7-6.33-1.09l.65.85.63.85.59.86c.17.26.4.6.56.87l.53.87c.15.27.35.62.49.89l.47.89c.12.27.3.63.42.9l.4.91c.11.27.26.63.36.91l.33.92c.09.27.21.64.29.92l.26.93.23.93.19.93c0 .29.11.66.15.94l.12.95c0 .28.07.66.09.94l.05.95v1c0 .34 1.47.59 4.42.83 4 .31 9.61.44 14.79.37l.22-.09.76.07c2.34-.05 4.54-.13 6.42-.26 3.17-.23 4.77-.53 4.77-.83v-2"/><path fill="#9bf164" d="M39.568 19.764c.08-1.27.08-1.27.22-1.88l.16-.94c.06-.28.13-.66.2-.94l.23-.93c.08-.28.18-.65.26-.92l.3-.92.33-.92.37-.91c.12-.27.28-.64.4-.9l.43-.9.47-.89.5-.88.53-.88.57-.86c.18-.26.41-.61.6-.86l.63-.85.66-.84c-.33.41-2.61.8-6.84 1.09a256 256 0 0 1-31.94-.14c-3.92-.31-6-.7-6.33-1.09l.65.85.63.85.59.86c.17.26.4.6.56.87l.53.87c.15.27.35.62.49.89l.47.89c.12.27.3.63.42.9l.4.91c.11.27.26.63.36.91l.33.92c.09.27.21.64.29.92l.26.93.23.93.19.93c0 .29.11.66.15.94l.12.95c0 .28.07.66.09.94l.05.95v1c0 .34 1.47.59 4.42.83 3.78.3 9.08.43 14 .37l1-.37c1.41.1 1.41.1 1.85.32 1.93 0 3.75-.12 5.33-.23 3.17-.23 4.77-.53 4.77-.83v-2"/><path fill="#96f05c" d="M39.568 19.764c.08-1.27.08-1.27.22-1.88l.16-.94c.06-.28.13-.66.2-.94l.23-.93c.08-.28.18-.65.26-.92l.3-.92.33-.92.37-.91c.12-.27.28-.64.4-.9l.43-.9.47-.89.5-.88.53-.88.57-.86c.18-.26.41-.61.6-.86l.63-.85.66-.84c-.33.41-2.61.8-6.84 1.09a256 256 0 0 1-31.94-.14c-3.92-.31-6-.7-6.33-1.09l.65.85.63.85.59.86c.17.26.4.6.56.87l.53.87c.15.27.35.62.49.89l.47.89c.12.27.3.63.42.9l.4.91c.11.27.26.63.36.91l.33.92c.09.27.21.64.29.92l.26.93.23.93.19.93c0 .29.11.66.15.94l.12.95c0 .28.07.66.09.94l.05.95v1c0 .34 1.47.59 4.42.83 3.62.29 8.64.42 13.43.38l.14-.12c1.65-.6 2.2-.81 3.87 0 1.71 0 3.33-.13 4.75-.22 3.17-.23 4.77-.53 4.77-.83v-2"/><path fill="#90ef53" d="M39.568 19.764c.08-1.27.08-1.27.22-1.88l.16-.94c.06-.28.13-.66.2-.94l.23-.93c.08-.28.18-.65.26-.92l.3-.92.33-.92.37-.91c.12-.27.28-.64.4-.9l.43-.9.47-.89.5-.88.53-.88.57-.86c.18-.26.41-.61.6-.86l.63-.85.66-.84c-.33.41-2.61.8-6.84 1.09a256 256 0 0 1-31.94-.14c-3.92-.31-6-.7-6.33-1.09l.65.85.63.85.59.86c.17.26.4.6.56.87l.53.87c.15.27.35.62.49.89l.47.89c.12.27.3.63.42.9l.4.91c.11.27.26.63.36.91l.33.92c.09.27.21.64.29.92l.26.93.23.93.19.93c0 .29.11.66.15.94l.12.95c0 .28.07.66.09.94l.05.95v1c0 .34 1.47.59 4.42.83 3.52.28 8.37.41 13 .38l.54-.42c1.42-.51 2.88-1 4.41.33 1.51 0 2.94-.12 4.21-.2 3.17-.23 4.77-.53 4.77-.83v-2"/><path fill="#81ed3b" d="M39.568 19.764c.08-1.27.08-1.27.22-1.88l.16-.94c.06-.28.13-.66.2-.94l.23-.93c.08-.28.18-.65.26-.92l.3-.92.33-.92.37-.91c.12-.27.28-.64.4-.9l.43-.9.47-.89.5-.88.53-.88.57-.86c.18-.26.41-.61.6-.86l.63-.85.66-.84c-.33.41-2.61.8-6.84 1.09a256 256 0 0 1-31.94-.14c-3.92-.31-6-.7-6.33-1.09l.65.85.63.85.59.86c.17.26.4.6.56.87l.53.87c.15.27.35.62.49.89l.47.89c.12.27.3.63.42.9l.4.91c.11.27.26.63.36.91l.33.92c.09.27.21.64.29.92l.26.93.23.93.19.93c0 .29.11.66.15.94l.12.95c0 .28.07.66.09.94l.05.95v1c0 .34 1.47.59 4.42.83 3.42.27 8.1.4 12.64.38l.86-.67c2.6-1.27 3.7-.56 5 .56 1.33 0 2.58-.11 3.72-.18 3.17-.23 4.77-.53 4.77-.83v-2"/><path fill="#7ee83a" d="M39.568 19.764c.08-1.27.08-1.27.22-1.88l.16-.94c.06-.28.13-.66.2-.94l.23-.93c.08-.28.18-.65.26-.92l.3-.92.33-.92.37-.91c.12-.27.28-.64.4-.9l.43-.9.47-.89.5-.88.53-.88.57-.86c.18-.26.41-.61.6-.86l.63-.85.66-.84c-.33.41-2.61.8-6.84 1.09a256 256 0 0 1-31.94-.14c-3.92-.31-6-.7-6.33-1.09l.65.85.63.85.59.86c.17.26.4.6.56.87l.53.87c.15.27.35.62.49.89l.47.89c.12.27.3.63.42.9l.4.91c.11.27.26.63.36.91l.33.92c.09.27.21.64.29.92l.26.93.23.93.19.93c0 .29.11.66.15.94l.12.95c0 .28.07.66.09.94l.05.95v1c0 .34 1.47.59 4.42.83 3.32.26 7.83.39 12.24.39l.83-.7c2-1.59 4-1.4 5.88.57 1.15 0 2.24-.11 3.24-.17 3.17-.23 4.77-.53 4.77-.83v-2"/><path fill="#7ce439" d="M39.568 19.764c.08-1.27.08-1.27.22-1.88l.16-.94c.06-.28.13-.66.2-.94l.23-.93c.08-.28.18-.65.26-.92l.3-.92.33-.92.37-.91c.12-.27.28-.64.4-.9l.43-.9.47-.89.5-.88.53-.88.57-.86c.18-.26.41-.61.6-.86l.63-.85.66-.84c-.33.41-2.61.8-6.84 1.09a256 256 0 0 1-31.94-.14c-3.92-.31-6-.7-6.33-1.09l.65.85.63.85.59.86c.17.26.4.6.56.87l.53.87c.15.27.35.62.49.89l.47.89c.12.27.3.63.42.9l.4.91c.11.27.26.63.36.91l.33.92c.09.27.21.64.29.92l.26.93.23.93.19.93c0 .29.11.66.15.94l.12.95c0 .28.07.66.09.94l.05.95v1c0 .34 1.47.59 4.42.83 3.23.25 7.58.39 11.88.39l.22-.34c1.15-1 4.22-3.68 7.37.14l2.7-.14c3.17-.23 4.77-.53 4.77-.83v-2"/><path fill="#79df37" d="M39.568 19.764c.08-1.27.08-1.27.22-1.88l.16-.94c.06-.28.13-.66.2-.94l.23-.93c.08-.28.18-.65.26-.92l.3-.92.33-.92.37-.91c.12-.27.28-.64.4-.9l.43-.9.47-.89.5-.88.53-.88.57-.86c.18-.26.41-.61.6-.86l.63-.85.66-.84c-.33.41-2.61.8-6.84 1.09a256 256 0 0 1-31.94-.14c-3.92-.31-6-.7-6.33-1.09l.65.85.63.85.59.86c.17.26.4.6.56.87l.53.87c.15.27.35.62.49.89l.47.89c.12.27.3.63.42.9l.4.91c.11.27.26.63.36.91l.33.92c.09.27.21.64.29.92l.26.93.23.93.19.93c0 .29.11.66.15.94l.12.95c0 .28.07.66.09.94l.05.95v1c0 .34 1.47.59 4.42.83 3.14.25 7.34.38 11.52.39l.6-.73c1.28-1.07 4.69-3.91 7.94.55l2.12-.16c3.17-.23 4.77-.53 4.77-.83v-2"/><path fill="#77da36" d="M39.568 19.764c.08-1.27.08-1.27.22-1.88l.16-.94c.06-.28.13-.66.2-.94l.23-.93c.08-.28.18-.65.26-.92l.3-.92.33-.92.37-.91c.12-.27.28-.64.4-.9l.43-.9.47-.89.5-.88.53-.88.57-.86c.18-.26.41-.61.6-.86l.63-.85.66-.84c-.33.41-2.61.8-6.84 1.09a256 256 0 0 1-31.94-.14c-3.92-.31-6-.7-6.33-1.09l.65.85.63.85.59.86c.17.26.4.6.56.87l.53.87c.15.27.35.62.49.89l.47.89c.12.27.3.63.42.9l.4.91c.11.27.26.63.36.91l.33.92c.09.27.21.64.29.92l.26.93.23.93.19.93c0 .29.11.66.15.94l.12.95c0 .28.07.66.09.94l.05.95v1c0 .34 1.47.59 4.42.83s7.1.37 11.16.38l.6-.79c.8-.89 5-5 8.93.59l1.5-.09c3.17-.23 4.77-.53 4.77-.83v-2"/><path fill="#74d535" d="M39.568 19.764c.08-1.27.08-1.27.22-1.88l.16-.94c.06-.28.13-.66.2-.94l.23-.93c.08-.28.18-.65.26-.92l.3-.92.33-.92.37-.91c.12-.27.28-.64.4-.9l.43-.9.47-.89.5-.88.53-.88.57-.86c.18-.26.41-.61.6-.86l.63-.85.66-.84c-.33.41-2.61.8-6.84 1.09a256 256 0 0 1-31.94-.14c-3.92-.31-6-.7-6.33-1.09l.65.85.63.85.59.86c.17.26.4.6.56.87l.53.87c.15.27.35.62.49.89l.47.89c.12.27.3.63.42.9l.4.91c.11.27.26.63.36.91l.33.92c.09.27.21.64.29.92l.26.93.23.93.19.93c0 .29.11.66.15.94l.12.95c0 .28.07.66.09.94l.05.95v1c0 .34 1.47.59 4.42.83s6.86.36 10.8.38l.52-.79c4.23-4.76 8.08-2.68 10.1.55h.77c3.17-.23 4.77-.53 4.77-.83v-2"/><path fill="#72d134" d="M39.568 19.764c.08-1.27.08-1.27.22-1.88l.16-.94c.06-.28.13-.66.2-.94l.23-.93c.08-.28.18-.65.26-.92l.3-.92.33-.92.37-.91c.12-.27.28-.64.4-.9l.43-.9.47-.89.5-.88.53-.88.57-.86c.18-.26.41-.61.6-.86l.63-.85.66-.84c-.33.41-2.61.8-6.84 1.09a256 256 0 0 1-31.94-.14c-3.92-.31-6-.7-6.33-1.09l.65.85.63.85.59.86c.17.26.4.6.56.87l.53.87c.15.27.35.62.49.89l.47.89c.12.27.3.63.42.9l.4.91c.11.27.26.63.36.91l.33.92c.09.27.21.64.29.92l.26.93.23.93.19.93c0 .29.11.66.15.94l.12.95c0 .28.07.66.09.94l.05.95v1c0 .34 1.47.59 4.42.83s6.6.35 10.41.38l.25-.42c1.14-1.84 6.78-7.59 11.52.13 3.18-.23 4.78-.53 4.78-.83v-2"/><path fill="#6fcc33" d="M39.568 19.764c.08-1.27.08-1.27.22-1.88l.16-.94c.06-.28.13-.66.2-.94l.23-.93c.08-.28.18-.65.26-.92l.3-.92.33-.92.37-.91c.12-.27.28-.64.4-.9l.43-.9.47-.89.5-.88.53-.88.57-.86c.18-.26.41-.61.6-.86l.63-.85.66-.84c-.33.41-2.61.8-6.84 1.09a256 256 0 0 1-31.94-.14c-3.92-.31-6-.7-6.33-1.09l.65.85.63.85.59.86c.17.26.4.6.56.87l.53.87c.15.27.35.62.49.89l.47.89c.12.27.3.63.42.9l.4.91c.11.27.26.63.36.91l.33.92c.09.27.21.64.29.92l.26.93.23.93.19.93c0 .29.11.66.15.94l.12.95c0 .28.07.66.09.94l.05.95v1c0 .34 1.47.59 4.42.83 2.76.22 6.33.34 10 .38l.44-.79c3-4.27 9-6.49 12.47.44 2.7-.21 4.06-.49 4.06-.77v-2"/><path fill="#6cc732" d="M39.568 19.764c.08-1.27.08-1.27.22-1.88l.16-.94c.06-.28.13-.66.2-.94l.23-.93c.08-.28.18-.65.26-.92l.3-.92.33-.92.37-.91c.12-.27.28-.64.4-.9l.43-.9.47-.89.5-.88.53-.88.57-.86c.18-.26.41-.61.6-.86l.63-.85.66-.84c-.33.41-2.61.8-6.84 1.09a256 256 0 0 1-31.94-.14c-3.92-.31-6-.7-6.33-1.09l.65.85.63.85.59.86c.17.26.4.6.56.87l.53.87c.15.27.35.62.49.89l.47.89c.12.27.3.63.42.9l.4.91c.11.27.26.63.36.91l.33.92c.09.27.21.64.29.92l.26.93.23.93.19.93c0 .29.11.66.15.94l.12.95c0 .28.07.66.09.94l.05.95v1c0 .34 1.47.59 4.42.83 2.65.21 6.06.33 9.57.37l.38-.79c2.53-3.72 9.47-8.79 13.58.4 2.28-.21 3.43-.46 3.43-.72v-2"/><path fill="#6ac230" d="M39.568 19.764c.08-1.27.08-1.27.22-1.88l.16-.94c.06-.28.13-.66.2-.94l.23-.93c.08-.28.18-.65.26-.92l.3-.92.33-.92.37-.91c.12-.27.28-.64.4-.9l.43-.9.47-.89.5-.88.53-.88.57-.86c.18-.26.41-.61.6-.86l.63-.85.66-.84c-.33.41-2.61.8-6.84 1.09a256 256 0 0 1-31.94-.14c-3.92-.31-6-.7-6.33-1.09l.65.85.63.85.59.86c.17.26.4.6.56.87l.53.87c.15.27.35.62.49.89l.47.89c.12.27.3.63.42.9l.4.91c.11.27.26.63.36.91l.33.92c.09.27.21.64.29.92l.26.93.23.93.19.93c0 .29.11.66.15.94l.12.95c0 .28.07.66.09.94l.05.95v1c0 .34 1.47.59 4.42.83 2.55.2 5.78.32 9.14.37l.06-.14c2.29-5.56 11-9.79 14.3-1.83.19.45.41 1.07.57 1.53 1.92-.2 2.89-.43 2.89-.67v-2"/><path fill="#67be2f" d="M39.568 19.764c.08-1.27.08-1.27.22-1.88l.16-.94c.06-.28.13-.66.2-.94l.23-.93c.08-.28.18-.65.26-.92l.3-.92.33-.92.37-.91c.12-.27.28-.64.4-.9l.43-.9.47-.89.5-.88.53-.88.57-.86c.18-.26.41-.61.6-.86l.63-.85.66-.84c-.33.41-2.61.8-6.84 1.09a256 256 0 0 1-31.94-.14c-3.92-.31-6-.7-6.33-1.09l.65.85.63.85.59.86c.17.26.4.6.56.87l.53.87c.15.27.35.62.49.89l.47.89c.12.27.3.63.42.9l.4.91c.11.27.26.63.36.91l.33.92c.09.27.21.64.29.92l.26.93.23.93.19.93c0 .29.11.66.15.94l.12.95c0 .28.07.66.09.94l.05.95v1c0 .34 1.47.59 4.42.83 2.41.19 5.44.31 8.61.36l.34-.79c2.06-3.6 11.54-13 15.59.31 1.61-.19 2.42-.4 2.42-.62v-2"/><path fill="#65b92e" d="M39.568 19.764c.08-1.27.08-1.27.22-1.88l.16-.94c.06-.28.13-.66.2-.94l.23-.93c.08-.28.18-.65.26-.92l.3-.92.33-.92.37-.91c.12-.27.28-.64.4-.9l.43-.9.47-.89.5-.88.53-.88.57-.86c.18-.26.41-.61.6-.86l.63-.85.66-.84c-.33.41-2.61.8-6.84 1.09a256 256 0 0 1-31.94-.14c-3.92-.31-6-.7-6.33-1.09l.65.85.63.85.59.86c.17.26.4.6.56.87l.53.87c.15.27.35.62.49.89l.47.89c.12.27.3.63.42.9l.4.91c.11.27.26.63.36.91l.33.92c.09.27.21.64.29.92l.26.93.23.93.19.93c0 .29.11.66.15.94l.12.95c0 .28.07.66.09.94l.05.95v1c0 .34 1.47.59 4.42.83 2.28.18 5.1.3 8.08.35l.3-.79c4.43-8.51 13.42-10.12 15.72-2.82.26.82.34 1.16.8 3q2-.27 2-.57v-2"/><path fill="#62b42d" d="M39.568 19.764c.08-1.27.08-1.27.22-1.88l.16-.94c.06-.28.13-.66.2-.94l.23-.93c.08-.28.18-.65.26-.92l.3-.92.33-.92.37-.91c.12-.27.28-.64.4-.9l.43-.9.47-.89.5-.88.53-.88.57-.86c.18-.26.41-.61.6-.86l.63-.85.66-.84c-.33.41-2.61.8-6.84 1.09a256 256 0 0 1-31.94-.14c-3.92-.31-6-.7-6.33-1.09l.65.85.63.85.59.86c.17.26.4.6.56.87l.53.87c.15.27.35.62.49.89l.47.89c.12.27.3.63.42.9l.4.91c.11.27.26.63.36.91l.33.92c.09.27.21.64.29.92l.26.93.23.93.19.93c0 .29.11.66.15.94l.12.95c0 .28.07.66.09.94l.05.95v1c0 .34 1.47.59 4.42.83 2.13.17 4.74.28 7.51.34l.25-.65c4.11-9.45 14-11.16 16.39-4.79a27.6 27.6 0 0 1 1.16 4.88c1.1-.16 1.65-.34 1.65-.52v-2"/><path fill="#5faf2c" d="M39.568 19.764c.08-1.27.08-1.27.22-1.88l.16-.94c.06-.28.13-.66.2-.94l.23-.93c.08-.28.18-.65.26-.92l.3-.92.33-.92.37-.91c.12-.27.28-.64.4-.9l.43-.9.47-.89.5-.88.53-.88.57-.86c.18-.26.41-.61.6-.86l.63-.85.66-.84c-.33.41-2.61.8-6.84 1.09a256 256 0 0 1-31.94-.14c-3.92-.31-6-.7-6.33-1.09l.65.85.63.85.59.86c.17.26.4.6.56.87l.53.87c.15.27.35.62.49.89l.47.89c.12.27.3.63.42.9l.4.91c.11.27.26.63.36.91l.33.92c.09.27.21.64.29.92l.26.93.23.93.19.93c0 .29.11.66.15.94l.12.95c0 .28.07.66.09.94l.05.95v1c0 .34 1.47.59 4.42.83 2 .15 4.35.26 6.88.33l.28-.79c5.13-11.4 15.17-11.27 17.23-5.92.42 1.08.46 1.36 1.24 6.11.88-.15 1.33-.31 1.33-.47v-2"/><path fill="#5dab2a" d="M39.568 19.764c.08-1.27.08-1.27.22-1.88l.16-.94c.06-.28.13-.66.2-.94l.23-.93c.08-.28.18-.65.26-.92l.3-.92.33-.92.37-.91c.12-.27.28-.64.4-.9l.43-.9.47-.89.5-.88.53-.88.57-.86c.18-.26.41-.61.6-.86l.63-.85.66-.84c-.33.41-2.61.8-6.84 1.09a256 256 0 0 1-31.94-.14c-3.92-.31-6-.7-6.33-1.09l.65.85.63.85.59.86c.17.26.4.6.56.87l.53.87c.15.27.35.62.49.89l.47.89c.12.27.3.63.42.9l.4.91c.11.27.26.63.36.91l.33.92c.09.27.21.64.29.92l.26.93.23.93.19.93c0 .29.11.66.15.94l.12.95c0 .28.07.66.09.94l.05.95v1c0 .34 1.47.59 4.42.83 1.8.14 4 .24 6.24.31l.11-.29c4.1-12.21 15.89-13.32 18.24-7.88.46 1.07.46 1.07 1.33 7.54.69-.14 1-.28 1-.42v-2"/><path fill="#5aa629" d="M39.568 19.764c.08-1.27.08-1.27.22-1.88l.16-.94c.06-.28.13-.66.2-.94l.23-.93c.08-.28.18-.65.26-.92l.3-.92.33-.92.37-.91c.12-.27.28-.64.4-.9l.43-.9.47-.89.5-.88.53-.88.57-.86c.18-.26.41-.61.6-.86l.63-.85.66-.84c-.33.41-2.61.8-6.84 1.09a256 256 0 0 1-31.94-.14c-3.92-.31-6-.7-6.33-1.09l.65.85.63.85.59.86c.17.26.4.6.56.87l.53.87c.15.27.35.62.49.89l.47.89c.12.27.3.63.42.9l.4.91c.11.27.26.63.36.91l.33.92c.09.27.21.64.29.92l.26.93.23.93.19.93c0 .29.11.66.15.94l.12.95c0 .28.07.66.09.94l.05.95v1c0 .34 1.47.59 4.42.83 1.63.13 3.53.22 5.57.29l.26-.79c5.48-14.45 17.38-12.86 19.19-8.45.31.75.31.75 1.14 8.54.52-.11.79-.24.79-.36v-2"/><path fill="#58a128" d="M39.568 19.764c.08-1.27.08-1.27.22-1.88l.16-.94c.06-.28.13-.66.2-.94l.23-.93c.08-.28.18-.65.26-.92l.3-.92.33-.92.37-.91c.12-.27.28-.64.4-.9l.43-.9.47-.89.5-.88.53-.88.57-.86c.18-.26.41-.61.6-.86l.63-.85.66-.84c-.33.41-2.61.8-6.84 1.09a256 256 0 0 1-31.94-.14c-3.92-.31-6-.7-6.33-1.09l.65.85.63.85.59.86c.17.26.4.6.56.87l.53.87c.15.27.35.62.49.89l.47.89c.12.27.3.63.42.9l.4.91c.11.27.26.63.36.91l.33.92c.09.27.21.64.29.92l.26.93.23.93.19.93c0 .29.11.66.15.94l.12.95c0 .28.07.66.09.94l.05.95v1c0 .34 1.47.59 4.42.83 1.45.11 3.12.2 4.9.27l.07-.21c5.13-16.6 18.78-14.32 20.46-10.31 0 .1 0 .1.94 9.78.39-.1.58-.21.58-.31v-2"/><path fill="#559c27" d="M39.568 19.764c.08-1.27.08-1.27.22-1.88l.16-.94c.06-.28.13-.66.2-.94l.23-.93c.08-.28.18-.65.26-.92l.3-.92.33-.92.37-.91c.12-.27.28-.64.4-.9l.43-.9.47-.89.5-.88.53-.88.57-.86c.18-.26.41-.61.6-.86l.63-.85.66-.84c-.33.41-2.61.8-6.84 1.09a256 256 0 0 1-31.94-.14c-3.92-.31-6-.7-6.33-1.09l.65.85.63.85.59.86c.17.26.4.6.56.87l.53.87c.15.27.35.62.49.89l.47.89c.12.27.3.63.42.9l.4.91c.11.27.26.63.36.91l.33.92c.09.27.21.64.29.92l.26.93.23.93.19.93c0 .29.11.66.15.94l.12.95c0 .28.07.66.09.94l.05.95v1c0 .34 1.47.59 4.42.83 1.26.1 2.69.18 4.22.24l.23-.78c6-18.33 19.82-14.46 21.41-11.1.06.13.06.13.71 11.16.26-.09.39-.18.39-.26v-2"/><path fill="#539826" d="M39.568 19.764c.08-1.27.08-1.27.22-1.88l.16-.94c.06-.28.13-.66.2-.94l.23-.93c.08-.28.18-.65.26-.92l.3-.92.33-.92.37-.91c.12-.27.28-.64.4-.9l.43-.9.47-.89.5-.88.53-.88.57-.86c.18-.26.41-.61.6-.86l.63-.85.66-.84c-.33.41-2.61.8-6.84 1.09a256 256 0 0 1-31.94-.14c-3.92-.31-6-.7-6.33-1.09l.65.85.63.85.59.86c.17.26.4.6.56.87l.53.87c.15.27.35.62.49.89l.47.89c.12.27.3.63.42.9l.4.91c.11.27.26.63.36.91l.33.92c.09.27.21.64.29.92l.26.93.23.93.19.93c0 .29.11.66.15.94l.12.95c0 .28.07.66.09.94l.05.95v1c0 .34 1.47.59 4.42.83 1.08.08 2.27.15 3.55.21l.08-.31c5.34-20.2 21.1-15.61 22.73-13 .8 1.28.65 3.68.48 6.46a53 53 0 0 0-.12 6.1c.16-.07.24-.13.24-.2v-2"/><path fill="#509325" d="M39.568 19.764c.08-1.27.08-1.27.22-1.88l.16-.94c.06-.28.13-.66.2-.94l.23-.93c.08-.28.18-.65.26-.92l.3-.92.33-.92.37-.91c.12-.27.28-.64.4-.9l.43-.9.47-.89.5-.88.53-.88.57-.86c.18-.26.41-.61.6-.86l.63-.85.66-.84c-.33.41-2.61.8-6.84 1.09a256 256 0 0 1-31.94-.14c-3.92-.31-6-.7-6.33-1.09l.65.85.63.85.59.86c.17.26.4.6.56.87l.53.87c.15.27.35.62.49.89l.47.89c.12.27.3.63.42.9l.4.91c.11.27.26.63.36.91l.33.92c.09.27.21.64.29.92l.26.93.23.93.19.93c0 .29.11.66.15.94l.12.95c0 .28.07.66.09.94l.05.95v1c0 .34 1.47.59 4.42.83.88.07 1.84.13 2.85.18l.19-.79c1.49-5.39 2.89-10.49 7.88-13.32 6.1-3.47 14.6-3.67 16.24-.38.72 1.44.47 3.48.06 6.86a42 42 0 0 0-.38 6.85l.14-1.09v-1"/><path fill="#4d8e23" d="M7.648 4.494c-3.92-.31-6-.7-6.33-1.09l.65.85.63.85.59.86c.17.26.4.6.56.87l.53.87c.15.27.35.62.49.89l.47.89c.12.27.3.63.42.9l.4.91c.11.27.26.63.36.91l.33.92c.09.27.21.64.29.92l.26.93.23.93.19.93c0 .29.11.66.15.94l.12.95c0 .28.07.66.09.94l.05.95v1c0 .34 1.47.59 4.42.83l2.15.14.18-.78c2.27-9.47 3.77-14.12 13.86-16.76-7.41.1-15.45-.08-21.11-.54"/><path fill="#4b8922" d="M7.648 4.494c-3.92-.31-6-.7-6.33-1.09l.65.85.63.85.59.86c.17.26.4.6.56.87l.53.87c.15.27.35.62.49.89l.47.89c.12.27.3.63.42.9l.4.91c.11.27.26.63.36.91l.33.92c.09.27.21.64.29.92l.26.93.23.93.19.93c0 .29.11.66.15.94l.12.95c0 .28.07.66.09.94l.05.95v1c0 .34 1.47.59 4.42.83l1.42.1.15-.79c2.14-9.49 3-13.42 10-16.64-6 0-12-.21-16.47-.57"/><path fill="#488521" d="M7.648 4.494c-3.92-.31-6-.7-6.33-1.09l.65.85.63.85.59.86c.17.26.4.6.56.87l.53.87c.15.27.35.62.49.89l.47.89c.12.27.3.63.42.9l.4.91c.11.27.26.63.36.91l.33.92c.09.27.21.64.29.92l.26.93.23.93.19.93c0 .29.11.66.15.94l.12.95c0 .28.07.66.09.94l.05.95v1c0 .34 1.47.59 4.42.83h.65l.13-.78c2.2-10.1 2.2-10.1 2.69-11.21a11.94 11.94 0 0 1 4.58-5.41c-4.77-.07-9.35-.25-13-.54"/><path fill="#468020" d="M7.648 4.494c-3.92-.31-6-.7-6.33-1.09l.65.85.63.85.59.86c.17.26.4.6.56.87l.53.87c.15.27.35.62.49.89l.47.89c.12.27.3.63.42.9l.4.91c.11.27.26.63.36.91l.33.92c.09.27.21.64.29.92l.26.93.23.93.19.93c0 .29.11.66.15.94l.12.95c0 .28.07.66.09.94l.05.95v1c0 .34 1.41.58 4.24.81l.1-.78c.81-3.71.81-7.56 1.89-11.22a11.6 11.6 0 0 1 3-5.4c-3.59-.1-7-.25-9.74-.48"/><path fill="#437b1f" d="M7.648 4.494c-3.92-.31-6-.7-6.33-1.09l.65.85.63.85.59.86c.17.26.4.6.56.87l.53.87c.15.27.35.62.49.89l.47.89c.12.27.3.63.42.9l.4.91c.11.27.26.63.36.91l.33.92c.09.27.21.64.29.92l.26.93.23.93.19.93c0 .29.11.66.15.94l.12.95c0 .28.07.66.09.94l.05.95v1c0 .34 1.09.51 3.27.72l.05-.84c0-.21.09-.45.27-2.33 1.19-12.5 1.19-12.5 2.26-14.31-2.33-.07-4.46-.19-6.33-.36"/><path fill="#4d8e23" d="M39.568 19.764c.08-1.27.08-1.27.22-1.88l.16-.94c.06-.28.13-.66.2-.94l.23-.93c.08-.28.18-.65.26-.92l.3-.92.33-.92.37-.91c.12-.27.28-.64.4-.9l.43-.9.47-.89.5-.88.53-.88.57-.86c.18-.26.41-.61.6-.86l.63-.85.66-.84c-.33.41-2.61.8-6.84 1.09l-1.8.12.81.24c1.34.76 2.23 1.25 2.35 3.48a25.7 25.7 0 0 1-.64 4.93 40 40 0 0 0-.85 8.34l.06-1v-1"/><path fill="#4b8922" d="M39.568 19.764c.08-1.27.08-1.27.22-1.88l.16-.94c.06-.28.13-.66.2-.94l.23-.93c.08-.28.18-.65.26-.92l.3-.92.33-.92.37-.91c.12-.27.28-.64.4-.9l.43-.9.47-.89.5-.88.53-.88.57-.86c.18-.26.41-.61.6-.86l.63-.85.66-.84c-.29.35-2 .69-5.24 1l.32.41c.72 1.53.55 2.74-.48 6.72a37.6 37.6 0 0 0-1.53 10v-2"/><path fill="#488521" d="M39.788 17.884c.07-.41.16-1 .36-1.88l.23-.93c.08-.28.18-.65.26-.92l.3-.92.33-.92.37-.91c.12-.27.28-.64.4-.9l.43-.9.47-.89.5-.88.53-.88.57-.86c.18-.26.41-.61.6-.86l.63-.85.66-.84c-.22.27-1.29.53-3.2.76v.61a14.4 14.4 0 0 1-1 4 45.5 45.5 0 0 0-2.51 9.26v-.29"/><path fill="#468020" d="M41.268 12.314c.49-1.21.49-1.21.77-1.81l.43-.9.47-.89.5-.88.53-.88.57-.86c.18-.26.41-.61.6-.86l.63-.85.66-.84a3.6 3.6 0 0 1-1.72.55l-.18.54c-1.12 3.23-2.88 6.2-3.88 9.47l.3-.92.31-.87"/><path fill="#437b1f" d="M42.938 8.714c.19-.35.52-.94 1-1.76l.57-.86c.18-.26.41-.61.6-.86l.63-.85.66-.84a1.26 1.26 0 0 1-.59.29l-.36.66c-1.6 2.52-2.26 3.77-2.75 4.68l.24-.45"/><ellipse cx="23.855" cy="1.847" fill="#4c8c23" rx="1.78" ry="23.85" transform="rotate(-89.84 23.855 1.847)"/><path fill="#437b1f" d="m.058 1.894 1.24 1.52c.31.39 2.42.78 6.33 1.09 1.92.16 4.11.28 6.46.37l-.53-1.44c-2.48-.1-4.8-.23-6.82-.39-4.13-.33-6.35-.74-6.68-1.15"/><path fill="#468020" d="m13.558 3.434.53 1.44 3.41.11-.35-1.44z"/><path fill="#488521" d="m17.148 3.544.35 1.44c1.07 0 2.16.05 3.26.06l-.11-1.43-3.45-.07"/><path fill="#4b8922" d="m20.648 3.614.16 1.43h3.58v-1.44h-3.77"/><path fill="#4d8e23" d="M24.368 3.634v1.44h4.87l.3-1.43h-5.14"/><path fill="#509325" d="m29.508 3.604-.3 1.43c2.91 0 5.71-.13 8.21-.26l.75-1.45c-2.64.14-5.59.23-8.66.28"/><path fill="#4d8e23" d="m38.168 3.324-.75 1.45 2.17-.14 1.46-.14.95-1.46-1.54.12-2.29.14"/><path fill="#4b8922" d="m41.998 3.064-.95 1.43c.78-.06 1.48-.13 2.09-.21l1.06-1.47c-.64.08-1.38.15-2.2.22"/><path fill="#488521" d="m44.198 2.844-1.06 1.47c.58-.06 1.08-.14 1.51-.21l1.15-1.49c-.45.08-1 .16-1.6.23"/><path fill="#468020" d="m45.798 2.614-1.15 1.49q.586-.096 1.16-.25l1.21-1.5a10 10 0 0 1-1.22.26"/><path fill="#437b1f" d="m47.018 2.354-1.21 1.5a1.33 1.33 0 0 0 .62-.31l1.22-1.51a1.6 1.6 0 0 1-.65.32"/></g><path fill="#58a128" d="M74.05 73.28h.46a1.3 1.3 0 0 0-.69-.06c-.25 0-.36.12-.23.19.217.081.452.102.68.06.26 0 .36-.12.24-.19z"/><path fill="#58a128" d="M74.05 73.28h.46a1.3 1.3 0 0 0-.69-.06c-.25 0-.36.12-.23.19.217.081.452.102.68.06.26 0 .36-.12.24-.19z"/><path fill="#559c27" d="M74.05 73.28c.22 0 .48 0 .42.06s-.64.12-.66 0 .08-.05.24-.09h.46a1.3 1.3 0 0 0-.69-.06c-.25 0-.36.12-.23.19.217.081.452.102.68.06.26 0 .36-.12.24-.19h-.46"/><path fill="#559c27" d="M73.54 73.32c0-.07.18-.23.87-.13a1.6 1.6 0 0 0-.59 0c-.21 0-.32.09-.28.15"/><path fill="#539826" d="M74.05 73.28s.06 0 0-.06-.22 0-.22 0h.21"/><path fill="#58a128" d="M36.3 37.4a37.54 37.54 0 0 0 23.79 34.88c11.79 4.7 29.16 3.77 41.38-8.9 17-17.59 12.82-46-8.49-58.42 9.1 5.17 15.1 15.4 15.08 27.94C108 52.68 93 70.74 74.51 73.23c.12.07 0 .16-.24.19a1.3 1.3 0 0 1-.68-.06c-.13-.07 0-.16.23-.19a1.3 1.3 0 0 1 .69.06C93 70.74 108 52.68 108.06 32.9c0-12.54-6-22.77-15.08-27.94-18.17-9.64-33.17-2.61-37.33-.23C41.12 13.05 36.13 27.06 36.3 37.4"/><path fill="#58a128" d="M108.06 32.9C108 52.68 93 70.74 74.51 73.23a1.1 1.1 0 0 1-.92.13 1.1 1.1 0 0 1 .92-.13C93 70.74 108 52.68 108.06 32.9c0-12.54-6-22.77-15.08-27.94l-1.93-1c-.87-.4-2-.93-2.91-1.29l-1.59-.59c-.57-.18-1.32-.42-1.88-.58l-1.3-.35L82 .82 80.9.61 79.8.43l-1-.13-1-.1-.8-.08h-3.43L72.7 0h-.88l-.91.07-1 .09-1 .12-1.26.2a38.7 38.7 0 0 0-8.12 2.31l-1.94.86A37 37 0 0 0 53.46 6l-2.09 1.49c-.89.71-2.09 1.67-2.95 2.43l-1.94 1.92c-.68.77-1.6 1.8-2.25 2.61l-1.65 2.28c-.52.84-1.23 1.95-1.71 2.81l-1.28 2.57c-.36.9-.88 2.1-1.2 3l-.86 2.8c-.21 1-.52 2.22-.69 3.18l-.39 3c-.05 1-.15 2.33-.15 3.32l.11 3.05c.19 1.6.5 3.73.81 5.32l.78 2.83c.32.9.72 2.12 1.08 3l1.2 2.63c.47.84 1.07 2 1.57 2.8l1.57 2.35c.61.77 1.41 1.82 2.05 2.57l1.87 2c.77.7 1.78 1.66 2.58 2.33l2 1.55c1 .66 2.3 1.52 3.31 2.12l1.93 1c.87.4 2 .93 2.91 1.29l1.59.59c.57.18 1.31.42 1.88.58l1.3.35 1.37.31 1.1.21 1.1.18 1 .13.95.1.89.08h5.17l.91-.07 1-.09 1-.12 1.25-.19a39 39 0 0 0 7.71-2.15l1.92-.83a37 37 0 0 0 4.23-2.29l2.09-1.42c.92-.71 2.13-1.67 3-2.43l2-1.88c.69-.78 1.63-1.8 2.29-2.61l1.67-2.25c.53-.84 1.25-2 1.74-2.81l1.31-2.55c.37-.9.9-2.08 1.23-3l.89-2.78c.22-1 .54-2.21.72-3.17l.42-3c.07-1.11.18-2.6.19-3.71l-.12-3.05c-.11-1-.24-2.28-.4-3.25l-.61-2.91c-.27-.92-.6-2.16-.91-3.08l-1.06-2.7c-.42-.86-1-2-1.41-2.88L106 17.22c-.56-.8-1.29-1.88-1.88-2.66l-1.79-2.12c-.71-.73-1.64-1.72-2.38-2.41l-2-1.7A37.4 37.4 0 0 0 93 5c9.1 5.17 15.1 15.4 15.08 27.94"/><path fill="#559c27" d="M108.06 32.9C108 52.68 93 70.74 74.51 73.23a1.1 1.1 0 0 1-.92.13 1.1 1.1 0 0 1 .92-.13C93 70.74 108 52.68 108.06 32.9c0-12.54-6-22.77-15.08-27.94l-1.93-1c-.87-.4-2-.93-2.91-1.29l-1.59-.59c-.57-.18-1.32-.42-1.88-.58l-1.3-.35L82 .82 80.9.61 79.8.43l-1-.13-1-.1-.8-.08h-3.43L72.7 0h-.88l-.91.07-1 .09-1 .12-1.26.2a38.7 38.7 0 0 0-8.12 2.31l-1.94.86A37 37 0 0 0 53.46 6l-2.09 1.49c-.89.71-2.09 1.67-2.95 2.43l-1.94 1.92c-.68.77-1.6 1.8-2.25 2.61l-1.65 2.28c-.52.84-1.23 1.95-1.71 2.81l-1.28 2.57c-.36.9-.88 2.1-1.2 3l-.86 2.8c-.21 1-.52 2.22-.69 3.18l-.39 3c-.05 1-.15 2.33-.15 3.32l.11 3.05c.19 1.6.5 3.73.81 5.32l.78 2.83c.32.9.72 2.12 1.08 3l1.2 2.63c.47.84 1.07 2 1.57 2.8l1.57 2.35c.61.77 1.41 1.82 2.05 2.57l1.87 2c.77.7 1.78 1.66 2.58 2.33l2 1.55c1 .66 2.3 1.52 3.31 2.12l1.93 1c.87.4 2 .93 2.91 1.29l1.59.59c.57.18 1.31.42 1.88.58l1.3.35 1.37.31 1.1.21 1.1.18 1 .13.95.1.89.08h5.17l.91-.07 1-.09 1-.12 1.25-.19a39 39 0 0 0 7.71-2.15l1.92-.83a37 37 0 0 0 4.23-2.29l2.09-1.42c.92-.71 2.13-1.67 3-2.43l2-1.88c.69-.78 1.63-1.8 2.29-2.61l1.67-2.25c.53-.84 1.25-2 1.74-2.81l1.31-2.55c.37-.9.9-2.08 1.23-3l.89-2.78c.22-1 .54-2.21.72-3.17l.42-3c.07-1.11.18-2.6.19-3.71l-.12-3.05c-.11-1-.24-2.28-.4-3.25l-.61-2.91c-.27-.92-.6-2.16-.91-3.08l-1.06-2.7c-.42-.86-1-2-1.41-2.88L106 17.22c-.56-.8-1.29-1.88-1.88-2.66l-1.79-2.12c-.71-.73-1.64-1.72-2.38-2.41l-2-1.7A37.4 37.4 0 0 0 93 5c9.1 5.17 15.1 15.4 15.08 27.94"/><path fill="#539826" d="M108.06 32.9c0 16.4-10.36 31.62-24.43 37.76-23 12.83-53-12.58-45.84-38.85C43.7 10 76.28 6.7 91.52 32.37c7.21 12.15 6.23 29.8-7.89 38.29C97.7 64.52 108 49.3 108.06 32.9c0-12.54-6-22.77-15.08-27.94l-1.93-1c-.87-.4-2-.93-2.91-1.29l-1.59-.59c-.57-.18-1.32-.42-1.88-.58l-1.3-.35L82 .82 80.9.61 79.8.43l-1-.13-1-.1-.8-.08h-3.43L72.7 0h-.88l-.91.07-1 .09-1 .12-1.26.2a38.7 38.7 0 0 0-8.12 2.31l-1.94.86A37 37 0 0 0 53.46 6l-2.09 1.49c-.89.71-2.09 1.67-2.95 2.43l-1.94 1.92c-.68.77-1.6 1.8-2.25 2.61l-1.65 2.28c-.52.84-1.23 1.95-1.71 2.81l-1.28 2.57c-.36.9-.88 2.1-1.2 3l-.86 2.8c-.21 1-.52 2.22-.69 3.18l-.39 3c-.05 1-.15 2.33-.15 3.32l.11 3.05c.19 1.6.5 3.73.81 5.32l.78 2.83c.32.9.72 2.12 1.08 3l1.2 2.63c.47.84 1.07 2 1.57 2.8l1.57 2.35c.61.77 1.41 1.82 2.05 2.57l1.87 2c.77.7 1.78 1.66 2.58 2.33l2 1.55c1 .66 2.3 1.52 3.31 2.12l1.93 1c.87.4 2 .93 2.91 1.29l1.59.59c.57.18 1.31.42 1.88.58l1.3.35 1.37.31 1.1.21 1.1.18 1 .13.95.1.89.08h5.17l.91-.07 1-.09 1-.12 1.25-.19a39 39 0 0 0 7.71-2.15l1.92-.83a37 37 0 0 0 4.23-2.29l2.09-1.42c.92-.71 2.13-1.67 3-2.43l2-1.88c.69-.78 1.63-1.8 2.29-2.61l1.67-2.25c.53-.84 1.25-2 1.74-2.81l1.31-2.55c.37-.9.9-2.08 1.23-3l.89-2.78c.22-1 .54-2.21.72-3.17l.42-3c.07-1.11.18-2.6.19-3.71l-.12-3.05c-.11-1-.24-2.28-.4-3.25l-.61-2.91c-.27-.92-.6-2.16-.91-3.08l-1.06-2.7c-.42-.86-1-2-1.41-2.88L106 17.22c-.56-.8-1.29-1.88-1.88-2.66l-1.79-2.12c-.71-.73-1.64-1.72-2.38-2.41l-2-1.7A37.4 37.4 0 0 0 93 5c9.1 5.17 15.1 15.4 15.08 27.94"/><path fill="#509325" d="M37.74 47.78c-7.38-27.95 18.32-42.8 40-31 18.41 10 27.2 35.5 11.2 51a42.42 42.42 0 0 0 19.12-34.88c0-12.54-6-22.77-15.08-27.94l-1.93-1c-.87-.4-2-.93-2.91-1.29l-1.59-.59c-.57-.18-1.32-.42-1.88-.58l-1.3-.35L82 .82 80.9.61 79.8.43l-1-.13-1-.1-.8-.08h-3.43L72.7 0h-.88l-.91.07-1 .09-1 .12-1.26.2a38.7 38.7 0 0 0-8.12 2.31l-1.94.86A37 37 0 0 0 53.46 6l-2.09 1.49c-.89.71-2.09 1.67-2.95 2.43l-1.94 1.92c-.68.77-1.6 1.8-2.25 2.61l-1.65 2.28c-.52.84-1.23 1.95-1.71 2.81l-1.28 2.57c-.36.9-.88 2.1-1.2 3l-.86 2.8c-.21 1-.52 2.22-.69 3.18l-.39 3c-.05 1-.15 2.33-.15 3.32l.11 3.05c.19 1.6.5 3.73.81 5.32l.78 2.83.69 2-.89-2.68a1 1 0 0 0 0-.16"/><path fill="#509325" d="M108.06 32.9A42.42 42.42 0 0 1 89 67.79L87.57 69c-9.27 7-21.71 7.12-33.26.39.85.5 2 1.11 2.87 1.57s2 .93 2.91 1.29l1.59.59c.57.18 1.31.42 1.88.58l1.3.35 1.37.31 1.1.21 1.1.18 1 .13.95.1.89.08h5.17l.91-.07 1-.09 1-.12 1.25-.19a39 39 0 0 0 7.71-2.15l1.92-.83a37 37 0 0 0 4.23-2.29l2.09-1.42c.92-.71 2.13-1.67 3-2.43l2-1.88c.69-.78 1.63-1.8 2.29-2.61l1.67-2.25c.53-.84 1.25-2 1.74-2.81l1.31-2.55c.37-.9.9-2.08 1.23-3l.89-2.78c.22-1 .54-2.21.72-3.17l.42-3c.07-1.11.18-2.6.19-3.71l-.12-3.05c-.11-1-.24-2.28-.4-3.25l-.61-2.91c-.27-.92-.6-2.16-.91-3.08l-1.06-2.7c-.42-.86-1-2-1.41-2.88l-1.5-2.34c-.56-.8-1.29-1.88-1.88-2.66l-1.79-2.12c-.71-.73-1.64-1.72-2.38-2.41l-2-1.7A37.4 37.4 0 0 0 93 5c9.1 5.17 15.1 15.4 15.08 27.94"/><path fill="#4d8e23" d="M36.6 42.27C34 10.11 67.76 4.11 86 20.56c11.92 10.72 17.82 30.17 7.08 44.16a42.44 42.44 0 0 0 15-31.82c0-12.54-6-22.77-15.08-27.94l-1.93-1c-.87-.4-2-.93-2.91-1.29l-1.59-.59c-.57-.18-1.32-.42-1.88-.58l-1.3-.35L82 .82 80.9.61 79.8.43l-1-.13-1-.1-.8-.08h-3.43L72.7 0h-.88l-.91.07-1 .09-1 .12-1.26.2a38.7 38.7 0 0 0-8.12 2.31l-1.94.86A37 37 0 0 0 53.46 6l-2.09 1.49c-.89.71-2.09 1.67-2.95 2.43l-1.94 1.92c-.68.77-1.6 1.8-2.25 2.61l-1.65 2.28c-.52.84-1.23 1.95-1.71 2.81l-1.28 2.57c-.36.9-.88 2.1-1.2 3l-.86 2.8c-.21 1-.52 2.22-.69 3.18l-.39 3c-.05 1-.15 2.33-.15 3.32l.11 3.05c.11.92.22 2.14.37 3.06l-.18-1.24"/><path fill="#4d8e23" d="M108.06 32.9a42.44 42.44 0 0 1-15 31.82l-1.26 1.61C87.49 71 77.74 78.08 61.25 72.72l1.58.52.73.21 1.3.35 1.37.31 1.1.21 1.1.18 1 .13.95.1.89.08h5.17l.91-.07 1-.09 1-.12 1.25-.19a39 39 0 0 0 7.71-2.15l1.92-.83a37 37 0 0 0 4.23-2.29l2.09-1.42c.92-.71 2.13-1.67 3-2.43l2-1.88c.69-.78 1.63-1.8 2.29-2.61l1.67-2.25c.53-.84 1.25-2 1.74-2.81l1.31-2.55c.37-.9.9-2.08 1.23-3l.89-2.78c.22-1 .54-2.21.72-3.17l.42-3c.07-1.11.18-2.6.19-3.71l-.12-3.05c-.11-1-.24-2.28-.4-3.25l-.61-2.91c-.27-.92-.6-2.16-.91-3.08l-1.06-2.7c-.42-.86-1-2-1.41-2.88l-1.5-2.37c-.56-.8-1.29-1.88-1.88-2.66l-1.79-2.12c-.71-.73-1.64-1.72-2.38-2.41l-2-1.7A37.4 37.4 0 0 0 93 5c9.1 5.17 15.1 15.4 15.08 27.94"/><path fill="#4b8922" d="M36.49 33.88C40.24 4.54 76.73 3.3 93 25.56c8.38 11.49 9.77 25.22 3.62 35.84a42.3 42.3 0 0 0 11.48-28.5c0-12.54-6-22.77-15.08-27.94l-1.93-1c-.87-.4-2-.93-2.91-1.29l-1.59-.59c-.57-.18-1.32-.42-1.88-.58l-1.3-.35L82 .82 80.9.61 79.8.43l-1-.13-1-.1-.8-.08h-3.43L72.7 0h-.88l-.91.07-1 .09-1 .12-1.26.2a38.7 38.7 0 0 0-8.12 2.31l-1.94.86A37 37 0 0 0 53.46 6l-2.09 1.49c-.89.71-2.09 1.67-2.95 2.43l-1.94 1.92c-.68.77-1.6 1.8-2.25 2.61l-1.65 2.28c-.52.84-1.23 1.95-1.71 2.81l-1.28 2.57c-.36.9-.88 2.1-1.2 3l-.86 2.8c-.21 1-.52 2.22-.69 3.18l-.39 3c-.05 1-.15 2.33-.15 3.32l.11-2.6c0-.28.05-.64.08-.92"/><path fill="#4b8922" d="M108.06 32.9a42.3 42.3 0 0 1-11.48 28.5l-1 1.87c-3.61 5.26-12.08 13.69-28.19 11l1.06.18 1 .13.95.1.89.08h5.17l.91-.07 1-.09 1-.12 1.25-.19a39 39 0 0 0 7.71-2.15l1.92-.83a37 37 0 0 0 4.23-2.29l2.09-1.42c.92-.71 2.13-1.67 3-2.43l2-1.88c.69-.78 1.63-1.8 2.29-2.61l1.67-2.25c.53-.84 1.25-2 1.74-2.81l1.31-2.55c.37-.9.9-2.08 1.23-3l.89-2.78c.22-1 .54-2.21.72-3.17l.42-3c.07-1.11.18-2.6.19-3.71l-.12-3.05c-.11-1-.24-2.28-.4-3.25l-.61-2.91c-.27-.92-.6-2.16-.91-3.08l-1.06-2.7c-.42-.86-1-2-1.41-2.88L106 17.22c-.56-.8-1.29-1.88-1.88-2.66l-1.79-2.12c-.71-.73-1.64-1.72-2.38-2.41l-2-1.7A37.4 37.4 0 0 0 93 5c9.1 5.17 15.1 15.4 15.08 27.94"/><path fill="#488521" d="M37.17 29.46c8.59-30.57 48.48-25.19 61.11 1.42 4.3 9.06 4.78 18.34 1.39 26.82a42 42 0 0 0 8.39-24.8c0-12.54-6-22.77-15.08-27.94l-1.93-1c-.87-.4-2-.93-2.91-1.29l-1.59-.59c-.57-.18-1.32-.42-1.88-.58l-1.3-.35L82 .82 80.9.61 79.8.43l-1-.13-1-.1-.8-.08h-3.43L72.7 0h-.88l-.91.07-1 .09-1 .12-1.26.2a38.7 38.7 0 0 0-8.12 2.31l-1.94.86A37 37 0 0 0 53.46 6l-2.09 1.49c-.89.71-2.09 1.67-2.95 2.43l-1.94 1.92c-.68.77-1.6 1.8-2.25 2.61l-1.65 2.28c-.52.84-1.23 1.95-1.71 2.81l-1.28 2.57c-.36.9-.88 2.1-1.2 3l-.86 2.8c-.21 1-.52 2.22-.69 3.18l-.12.7c.14-.7.29-1.64.45-2.34"/><path fill="#488521" d="M108.06 32.9a42 42 0 0 1-8.39 24.8l-.09.26C95.46 68.68 85.67 75 73.41 74.91h3l.91-.07 1-.09 1-.12 1.25-.19a39 39 0 0 0 7.71-2.15l1.92-.83a37 37 0 0 0 4.23-2.29l2.09-1.42c.92-.71 2.13-1.67 3-2.43l2-1.88c.69-.78 1.63-1.8 2.29-2.61l1.67-2.25c.53-.84 1.25-2 1.74-2.81l1.31-2.55c.37-.9.9-2.08 1.23-3l.89-2.78c.22-1 .54-2.21.72-3.17l.42-3c.07-1.11.18-2.6.19-3.71l-.12-3.05c-.11-1-.24-2.28-.4-3.25l-.61-2.91c-.27-.92-.6-2.16-.91-3.08l-1.06-2.7c-.42-.86-1-2-1.41-2.88L106 17.22c-.56-.8-1.29-1.88-1.88-2.66l-1.79-2.12c-.71-.73-1.64-1.72-2.38-2.41l-2-1.7A37.4 37.4 0 0 0 93 5c9.1 5.17 15.1 15.4 15.08 27.94"/><path fill="#468020" d="M38.32 25.31C49.16-3 87.78 3.73 99.61 29.3c1.64 3.54 6 12.93 2.9 24a41.4 41.4 0 0 0 5.55-20.44c0-12.54-6-22.77-15.08-27.94l-1.93-1c-.87-.4-2-.93-2.91-1.29l-1.59-.59c-.57-.18-1.32-.42-1.88-.58l-1.3-.35L82 .82 80.9.61 79.8.43l-1-.13-1-.1-.8-.08h-3.43L72.7 0h-.88l-.91.07-1 .09-1 .12-1.26.2a38.7 38.7 0 0 0-8.12 2.31l-1.94.86A37 37 0 0 0 53.46 6l-2.09 1.49c-.89.71-2.09 1.67-2.95 2.43l-1.94 1.92c-.68.77-1.6 1.8-2.25 2.61l-1.65 2.28c-.52.84-1.23 1.95-1.71 2.81l-1.28 2.57c-.36.9-.88 2.1-1.2 3l-.28.82c.06-.19.14-.44.21-.63"/><path fill="#468020" d="M108.06 32.9a41.4 41.4 0 0 1-5.55 20.44l-.22 1.37C97.76 70.62 83.93 73.88 79.8 74.5l1.27-.21a41 41 0 0 0 7.2-2.06l1.92-.83a37 37 0 0 0 4.23-2.29l2.09-1.42c.92-.71 2.13-1.67 3-2.43l2-1.88c.69-.78 1.63-1.8 2.29-2.61l1.67-2.25c.53-.84 1.25-2 1.74-2.81l1.31-2.55c.37-.9.9-2.08 1.23-3l.89-2.78c.22-1 .54-2.21.72-3.17l.42-3c.07-1.11.18-2.6.19-3.71l-.12-3.05c-.11-1-.24-2.28-.4-3.25l-.61-2.91c-.27-.92-.6-2.16-.91-3.08l-1.06-2.7c-.42-.86-1-2-1.41-2.88L106 17.22c-.56-.8-1.29-1.88-1.88-2.66l-1.79-2.12c-.71-.73-1.64-1.72-2.38-2.41l-2-1.7A37.4 37.4 0 0 0 93 5c9.1 5.17 15.1 15.4 15.08 27.94"/><path fill="#437b1f" d="M42.56 16.84C59.15-6 98.79 7 104.93 37.34a28.4 28.4 0 0 1 .24 10.46 40.8 40.8 0 0 0 2.89-14.9c0-12.54-6-22.77-15.08-27.94l-1.93-1c-.87-.4-2-.93-2.91-1.29l-1.59-.59c-.57-.18-1.32-.42-1.88-.58l-1.3-.35L82 .82 80.9.61 79.8.43l-1-.13-1-.1-.8-.08h-3.43L72.7 0h-.88l-.91.07-1 .09-1 .12-1.26.2a38.7 38.7 0 0 0-8.12 2.31l-1.94.86A37 37 0 0 0 53.46 6l-2.09 1.49c-.89.71-2.09 1.67-2.95 2.43l-1.94 1.92c-.68.77-1.6 1.8-2.25 2.61l-1.65 2.28c-.49.81-1.18 1.87-1.64 2.7l1.18-1.94z"/><path fill="#437b1f" d="M108.06 32.9a40.8 40.8 0 0 1-2.89 14.9v2.4c-.57 6.85-6.07 18.57-18.89 22.76l1.38-.49.62-.24 1.92-.83a37 37 0 0 0 4.23-2.29l2.09-1.42c.92-.71 2.13-1.67 3-2.43l2-1.88c.69-.78 1.63-1.8 2.29-2.61l1.67-2.25c.53-.84 1.25-2 1.74-2.81l1.31-2.55c.37-.9.9-2.08 1.23-3l.89-2.78c.22-1 .54-2.21.72-3.17l.42-3c.07-1.11.18-2.6.19-3.71l-.12-3.05c-.11-1-.24-2.28-.4-3.25l-.61-2.91c-.27-.92-.6-2.16-.91-3.08l-1.06-2.7c-.42-.86-1-2-1.41-2.88L106 17.22c-.56-.8-1.29-1.88-1.88-2.66l-1.79-2.12c-.71-.73-1.64-1.72-2.38-2.41l-2-1.7A37.4 37.4 0 0 0 93 5c9.1 5.17 15.1 15.4 15.08 27.94"/><path fill="#559c27" d="M68.65 73.51c1.74 0 3-.06 4.89-.19 0-.06.07-.13.28-.15a1.6 1.6 0 0 1 .59 0l1-.23C103 65.86 97.3 32 77.86 20.22 56 7 32.36 22.52 37.72 46.66c3.69 16.61 18.62 26.7 30.93 26.85"/><path fill="#58a128" d="M63.61 72.53C86.35 77.13 101 54.6 88.93 33.64c-13.24-23-45.07-22.4-50.84.88-4 16.08 8.42 34.56 25.52 38"/><path fill="#5aa629" d="M59.43 71c21 6.93 40.47-12 28.75-35.79-9.67-19.66-40.41-24.76-48.71-3-6.25 16.38 5.39 34 20 38.79"/><path fill="#5dab2a" d="M55.54 69c19.7 9.79 39.74-5.88 34-26.61-6.65-24.14-39.15-31.47-49-11.06-6.26 13 .72 30.6 14.95 37.67"/><path fill="#5faf2c" d="M55.55 68.58c19 9.11 39.81-5.63 31.82-29-6.11-17.91-35.46-28.39-46.61-6.68-5.44 10.6-.17 28.49 14.79 35.68"/><path fill="#62b42d" d="M52.08 66.05c20.34 13.52 40.34-4.14 35-24-5.64-20.8-34.41-27.53-44.61-10.44-7.17 12-.8 27.48 9.64 34.41"/><path fill="#65b92e" d="M52.29 65.62C73.27 79.35 91.16 59 85.85 42 79.12 20.32 51 17.45 42.67 33c-7.2 13.46 1.33 27.17 9.62 32.62"/><path fill="#67be2f" d="M52.62 65.18C70.68 76.8 88.78 61.27 85 43.43 80.64 22.8 52.47 18.68 43.85 33c-7.85 13 .57 26.91 8.77 32.18"/><path fill="#6ac230" d="M49.7 62.18C66.74 77.29 86.25 62 84.43 46c-2.28-20-27.31-26.61-38.17-14.24-8.34 9.51-4.71 23.24 3.44 30.42"/><path fill="#6cc732" d="M50.23 61.73c16.31 14.11 34.88-.68 33.09-15.8-2.49-21.11-27.76-24.06-36.94-12.34-8.44 10.78-2.12 23 3.85 28.14"/><path fill="#6fcc33" d="M50.88 61.28c14.32 12.18 32.17.77 31.57-15.42-.63-17.33-23.63-23.35-34.3-12.67-7.41 7.43-6.15 20.55 2.73 28.09"/><path fill="#72d134" d="M50.39 59.63c13 13.05 32 2 31.38-13.82-.55-14.63-21.33-23.9-33.49-11-5.29 5.61-6 16.69 2.11 24.81"/><path fill="#74d535" d="M49.58 57.34c11.86 14.07 32.09 3.75 31.51-11.57C80.56 32 60.18 23 49.28 35.34c-6.06 6.86-4.37 16.45.3 22"/><path fill="#77da36" d="M50.63 56.87c1.29 1.49 8.21 8.74 18.5 4.88 5.64-2.11 11.55-8.83 11.27-16-.49-12.64-18.92-21.6-29.22-10.87-8.13 8.48-3.91 18.11-.55 22"/><path fill="#79df37" d="M51.81 56.43c11.43 12.15 28.36 1.16 27.9-10.74-.3-7.61-7.08-12.17-8.1-12.59C66 30.73 66 30.73 62.38 31c-5.92.46-8.8 3-9.32 3.53-11.22 11-1.66 21.46-1.25 21.9"/><path fill="#7ce439" d="M53.12 56a15.65 15.65 0 0 0 15.51 3.68C77.15 56.28 79.14 49 79 45.66c-.44-11.14-16-19.27-25.55-10.3-7.43 7-4.6 16.46-.34 20.64"/><path fill="#7ee83a" d="M54.53 55.57c11.64 9.79 24.13-1 23.78-9.94-.2-5.39-5-10.63-6.68-11.23-6.16-2.3-6.16-2.3-9.2-2s-5.35.6-8.86 4c-3.21 3.1-3.57 6.07-3.49 7.6.32 6.35.34 6.87 4.45 11.6"/><path fill="#81ed3b" d="M52.88 51.89C58.22 60.59 73 60.72 77 49.63c1.91-5.36-1.25-11.06-2.89-12.54-1.86-1.67-3.32-3-8.75-4.25-.14 0-6 .7-6.16.78a60 60 0 0 0-5.47 3.84 12.2 12.2 0 0 0-2.24 4.19c-1.7 4.93 1.1 9.71 1.42 10.24"/><path fill="#90ef53" d="M53.71 51.68c4.34 6.32 10.6 5.7 14.34 5.32l4.21-1.89a18.3 18.3 0 0 0 4.1-5.53 11.64 11.64 0 0 0-3-12.52c-4.36-3.88-10.71-4.28-14.15-2.82a50 50 0 0 0-5.63 4.58c-1 1.2-1.49 3.3-1.95 4.77a14.64 14.64 0 0 0 2.08 8.09"/><path fill="#96f05c" d="M54.56 51.48c2.29 3 8.22 6.32 13.37 4.94 0 0 3.84-1.33 5.13-3 2.45-3.09 3.46-4.36 3.47-7.89 0-1.93 0-4.33-4-8.48-1.09-1.14-5-2.49-7.2-3.19-.13 0-5.9.85-6.11.94a59 59 0 0 0-4.68 3.79 10.79 10.79 0 0 0 0 12.84"/><path fill="#9bf164" d="M55.44 51.29C57.6 54 63.35 57 67.81 55.79l4.37-2.3a24.5 24.5 0 0 0 3-3.89c.548-1.264.843-2.623.87-4a10.4 10.4 0 0 0-.86-4.19 20.3 20.3 0 0 0-3.33-4.26c-.28-.29-6.37-2.67-6.43-2.69s-5.85 1-6.09 1a11 11 0 0 0-3.77 3 10.11 10.11 0 0 0-.09 12.81"/><path fill="#9ff16a" d="M56.36 51.11s1.93 2.33 6.7 4h4.62l4.46-2.41a17.7 17.7 0 0 0 2.39-3.15 11.3 11.3 0 0 0 1-4 10.4 10.4 0 0 0-.89-4.19 17.5 17.5 0 0 0-2.92-3.67c-.14-.15-.56-.59-6.2-2.74-.15-.06-5.65.95-6.12 1.13a7.9 7.9 0 0 0-2.85 2.23c-.89 1.08-5.07 6.77-.15 12.79"/><path fill="#a3f270" d="M56.45 49.68c.23.38.4 1 .76 1.27l5.09 3.21c1.26.55 5.24.35 5.27.35S72.08 52 72.11 52a12.2 12.2 0 0 0 1.8-2.39 11.9 11.9 0 0 0 1.06-4 9.28 9.28 0 0 0-5.29-8.39c-1.26-.53-2.87-1.83-4.24-1.72-6 .5-7.39 2.13-7.93 2.74-1.07 1.22-2.46 3.13-2.61 4.75-.33 3.57-.3 3.63 1.55 6.75"/><path fill="#a6f275" d="m58 50.82 4.66 2.82 4.84.22c.06 0 4.6-2.61 4.63-2.64a7.7 7.7 0 0 0 1.22-1.63 13.1 13.1 0 0 0 1.15-4 7.7 7.7 0 0 0-1-4.18 9.93 9.93 0 0 0-4.89-4.17c-.92-.43-2.12-1.33-3.12-1.25-.06 0-5.51.58-6.94 2.09a46 46 0 0 0-3 4.78 14.2 14.2 0 0 0 .22 4.14A10.1 10.1 0 0 0 58 50.82"/><path fill="#a9f379" d="M58.71 50.7a10.1 10.1 0 0 0 3.7 2.3l4.94.33 4.7-2.83a11.4 11.4 0 0 0 1.88-4.9 7.17 7.17 0 0 0-1-4.18c-1.33-1.71-1.65-2.12-5.43-4.12a4.4 4.4 0 0 0-2-.79c-.28 0-5.78 1.34-6 1.48a51 51 0 0 0-3.36 4.77 12.5 12.5 0 0 0 .18 4.23 10.3 10.3 0 0 0 2.35 3.76"/><path fill="#acf37e" d="M59.49 50.58a7.3 7.3 0 0 0 2.72 1.67l5.05.48L72 49.67c.16-.18 1.39-4.1 1.4-4.12s-.27-3.29-1.68-4.94c-.09-.12-4.89-3.07-5.34-3.3-1.93-1-6.73 1.34-6.77 1.37-1.16.85-2.77 2.48-2.79 3.92 0 1.27-.28 3 .12 4.24a10.4 10.4 0 0 0 2.54 3.74"/><path fill="#aef382" d="M60.28 50.47A4.7 4.7 0 0 0 62 51.55l5.15.62a11 11 0 0 0 3.9-2.54 9.15 9.15 0 0 0 1.81-4.08 6.54 6.54 0 0 0-1.08-4.17c-.21-.23-6-3.86-6.24-3.88s-5.62 1.77-5.85 1.91a7 7 0 0 0-2.19 3.09 6.83 6.83 0 0 0 .06 4.24 10.6 10.6 0 0 0 2.72 3.73"/><path fill="#b1f485" d="M61.09 50.36a1.8 1.8 0 0 0 .75.47l5.24.78a9 9 0 0 0 3-2s2.27-2.81 2.31-4.11A6.64 6.64 0 0 0 71 41.4c-.13-.14-5.24-3.29-5.36-3.3s-5.51 1.88-5.8 2a4.7 4.7 0 0 0-1.61 2.23 7.15 7.15 0 0 0 0 4.27 10.9 10.9 0 0 0 2.92 3.71"/><path fill="#b3f489" d="M61.63 50c.5.36 5.34 1.05 5.36 1a6.2 6.2 0 0 0 2-1.35c1-1.13 2.63-2.65 2.8-4.14a6.32 6.32 0 0 0-1.72-4.14c-1-1.16-2.9-2.57-4.46-2.72-.15 0-5.29 1.94-5.74 2.18a2.73 2.73 0 0 0-1 1.43 7.17 7.17 0 0 0-.07 4.25A8.53 8.53 0 0 0 61.63 50"/><path fill="#b5f48c" d="M61.36 48.84a16.5 16.5 0 0 0 5.55 1.64 2.76 2.76 0 0 0 1.09-.73c1-1.18 2.8-2.64 3-4.17.17-1.33-.86-3.1-1.73-4.13a6.28 6.28 0 0 0-3.56-2.16c-.08 0-4.26 1.65-5.67 2.32a1.27 1.27 0 0 0-.45.61 7.23 7.23 0 0 0-.13 4.25 5.3 5.3 0 0 0 1.93 2.37"/><path fill="#b8f590" d="m61.1 47.66 5.73 2.25a53 53 0 0 0 3.3-4.31c.19-1.32-.93-3.05-1.75-4.11a4.37 4.37 0 0 0-2.65-1.6c-.14 0-5.14 2.12-5.2 2.21-.21.36-1.5 4 .57 5.56"/><path fill="#baf593" d="m60.85 46.47 5.86 2.59c1.24-.32 2.41-2.15 2.58-3.43s-1-3-1.77-4.1a2.7 2.7 0 0 0-1.75-1.05 4.7 4.7 0 0 0-3.43 1.43s-2.05 4.09-1.49 4.56"/><path fill="#bcf596" d="M66.58 48.15a3.25 3.25 0 0 0 1.87-2.48c.17-1.33-1.12-2.93-1.79-4.09a1.18 1.18 0 0 0-.84-.5 2.14 2.14 0 0 0-1.66.67c-.84 1.17-2.52 3-2 4.39s3 2.37 4.41 2"/><path fill="#bdf699" d="M66.47 47.24a2 2 0 0 0 1.14-1.53c.14-1.27-1.21-2.73-1.72-3.9-.66 1.24-2.6 2.85-2.12 4.18a2.7 2.7 0 0 0 2.7 1.25"/><path fill="#bff69c" d="M66.35 46.32a.7.7 0 0 0 .42-.56c0-.46-.45-1-.64-1.4-.22.45-.92 1-.75 1.49a1 1 0 0 0 1 .47"/><path fill="#539826" d="M55.25 70a37.36 37.36 0 0 1-14.82-15.44c-4.32-9-4.61-15.35-3.64-23.19C38 22 46.07 6.35 63.73 1.44A38.27 38.27 0 0 1 93 5a28.9 28.9 0 0 0-18.36-3.42 1.2 1.2 0 0 0-.64-.07c-.25 0-.36.12-.23.19.22.08.458.104.69.07.25 0 .35-.12.23-.19A28.9 28.9 0 0 1 93 5a37.58 37.58 0 0 1 15.7 17.24c1.68 3.51 4.27 11 2.73 21.32a37.33 37.33 0 0 1-28.67 30.38 38.25 38.25 0 0 1-27.51-4"/><path fill="#539826" d="M93 5a39.6 39.6 0 0 1 6.92 5l1.94 2c.68.78 1.59 1.8 2.23 2.6l1.64 2.3c.52.83 1.22 1.94 1.69 2.8l1.28 2.58c.36.9.87 2.09 1.19 3l.84 2.81c.21.95.52 2.22.68 3.18l.38 3c0 1 .14 2.32.14 3.32l-.13 3c-.13 1.09-.29 2.54-.48 3.63l-.65 2.88c-.28.93-.63 2.16-1 3.07l-1.09 2.68c-.43.87-1 2-1.45 2.87l-1.48 2.42c-.57.8-1.32 1.87-1.93 2.64L102 62.85c-.73.73-1.69 1.72-2.46 2.41l-2 1.66c-.92.67-2.16 1.56-3.12 2.19l-1.89 1.11a37 37 0 0 1-4.26 2l-1.38.51a39 39 0 0 1-7.58 1.83l-1 .12-1 .09-.91.07h-5.13l-.89-.08-.94-.1-1-.13-1.06-.17-1.14-.22-1.24-.31-1.41-.38L62 73c-.57-.2-1.34-.47-1.91-.69l-1.92-.81c-.88-.44-2.06-1-2.92-1.5l-2.13-1.3c-1-.7-2.27-1.63-3.21-2.37l-2-1.8c-.73-.75-1.72-1.75-2.42-2.53l-1.79-2.21c-.56-.82-1.33-1.9-1.86-2.74l-1.41-2.49c-.41-.88-1-2-1.36-2.94l-1-2.73c-.25-.94-.63-2.18-.85-3.12l-.54-2.93c-.17-1.63-.33-3.8-.38-5.44l.12-3c.12-1 .25-2.28.42-3.25l.62-2.89c.27-.93.61-2.17.93-3.09l1.06-2.69c.42-.87 1-2 1.42-2.89l1.46-2.43c.56-.8 1.3-1.88 1.9-2.66L46 12.35c.72-.73 1.66-1.72 2.41-2.43l2-1.68c.91-.67 2.13-1.57 3.07-2.2l1.91-1.15a36 36 0 0 1 4.16-2l1.39-.54a39.6 39.6 0 0 1 8-2l1-.12 1-.09.9-.07h5.17l.89.08.95.1 1 .13 1.01.22L82 .82l1.26.29 1.41.37 1.56.52c.57.2 1.34.47 1.91.69l1.92.82c.88.43 2 1 2.92 1.49a27.8 27.8 0 0 0-5.9-2.5l-1-.32C58.4-4.81 44.09 22.85 57.47 44c16.25 25.62 48.92 20.25 53.4-2.57 3.21-16.43-7.24-33.5-23.79-38.97A27.8 27.8 0 0 1 93 5"/><path fill="#509325" d="M109.89 25.24a38 38 0 0 1 1.52 6l.38 3c0 1 .14 2.32.14 3.32l-.13 3c-.13 1.09-.29 2.54-.48 3.63l-.65 2.88c-.28.93-.63 2.16-1 3.07l-1.09 2.68c-.43.87-1 2-1.45 2.87l-1.48 2.42c-.57.8-1.32 1.87-1.93 2.64l-1.72 2.1c-.73.73-1.69 1.72-2.46 2.41l-2 1.66c-.92.67-2.16 1.56-3.12 2.19l-1.89 1.11a37 37 0 0 1-4.26 2l-1.38.51a39 39 0 0 1-7.58 1.83l-1 .12-1 .09-.91.07h-5.13l-.89-.08-.94-.1-1-.13-1.06-.17-1.14-.22-1.24-.31-1.41-.38L62 73c-.57-.2-1.34-.47-1.91-.69l-1.92-.81c-.88-.44-2.06-1-2.92-1.5l-2.13-1.3c-1-.7-2.27-1.63-3.21-2.37l-2-1.8c-.73-.75-1.72-1.75-2.42-2.53l-1.79-2.21c-.56-.82-1.33-1.9-1.86-2.74l-1.41-2.49c-.41-.88-1-2-1.36-2.94l-1-2.73c-.25-.94-.63-2.18-.85-3.12l-.54-2.93c-.17-1.63-.33-3.8-.38-5.44l.12-3c.12-1 .25-2.28.42-3.25l.62-2.89c.27-.93.61-2.17.93-3.09l1.06-2.69c.42-.87 1-2 1.42-2.89l1.46-2.43c.56-.8 1.3-1.88 1.9-2.66L46 12.35c.72-.73 1.66-1.72 2.41-2.43l2-1.68c.91-.67 2.13-1.57 3.07-2.2l1.91-1.15a36 36 0 0 1 4.16-2l1.39-.54a39.6 39.6 0 0 1 8-2l1-.12 1-.09.9-.07h5.17l.89.08.95.1 1 .13 1.01.22L82 .82l1.26.29 1.41.37 1.56.52c.57.2 1.34.47 1.91.69l1.92.82c.88.43 2 1 2.92 1.49l-.69-.38-2.23-1.1C63.33-8.11 43.89 15.79 53.18 38.88c10.89 27.06 47.48 31.74 56.74 7.25 3.84-10.14.55-19.24-.53-22.24.15.41.36.94.5 1.35M93 5l1.74 1-1.66-1-.79-.44z"/><path fill="#4d8e23" d="M111.93 37.53a37.5 37.5 0 0 1-.61 6.68l-.65 2.88c-.28.93-.63 2.16-1 3.07l-1.09 2.68c-.43.87-1 2-1.45 2.87l-1.48 2.42c-.57.8-1.32 1.87-1.93 2.64L102 62.85c-.73.73-1.69 1.72-2.46 2.41l-2 1.66c-.92.67-2.16 1.56-3.12 2.19l-1.89 1.11a37 37 0 0 1-4.26 2l-1.38.51a39 39 0 0 1-7.58 1.83l-1 .12-1 .09-.91.07h-5.13l-.89-.08-.94-.1-1-.13-1.06-.17-1.14-.22-1.24-.31-1.41-.38L62 73c-.57-.2-1.34-.47-1.91-.69l-1.92-.81c-.88-.44-2.06-1-2.92-1.5l-2.13-1.3c-1-.7-2.27-1.63-3.21-2.37l-2-1.8c-.73-.75-1.72-1.75-2.42-2.53l-1.79-2.21c-.56-.82-1.33-1.9-1.86-2.74l-1.41-2.49c-.41-.88-1-2-1.36-2.94l-1-2.73c-.25-.94-.63-2.18-.85-3.12l-.54-2.93c-.17-1.63-.33-3.8-.38-5.44l.12-3c.12-1 .25-2.28.42-3.25l.62-2.89c.27-.93.61-2.17.93-3.09l1.06-2.69c.42-.87 1-2 1.42-2.89l1.46-2.43c.56-.8 1.3-1.88 1.9-2.66L46 12.35c.72-.73 1.66-1.72 2.41-2.43l2-1.68c.91-.67 2.13-1.57 3.07-2.2l1.91-1.15a36 36 0 0 1 4.16-2l1.39-.54a39.6 39.6 0 0 1 8-2l1-.12 1-.09.9-.07h5.17l.89.08.95.1 1 .13 1.01.22L82 .82l1.26.29 1.41.37 1.56.52.79.27-1.92-.66C56.75-6 41.58 20.79 53.48 43.32c13.57 25.72 49.88 27 57.12 2.07a30.7 30.7 0 0 0 .84-14l.37 3c0 .94.14 2.2.12 3.14"/><path fill="#4b8922" d="M111.93 37.53a37.6 37.6 0 0 1-.61 6.68l-.65 2.88c-.28.93-.63 2.16-1 3.07l-1.09 2.68c-.43.87-1 2-1.45 2.87l-1.48 2.42c-.57.8-1.32 1.87-1.93 2.64L102 62.85c-.73.73-1.69 1.72-2.46 2.41l-2 1.66c-.92.67-2.16 1.56-3.12 2.19l-1.89 1.11a37 37 0 0 1-4.26 2l-1.38.51a39 39 0 0 1-7.58 1.83l-1 .12-1 .09-.91.07h-5.13l-.89-.08-.94-.1-1-.13-1.06-.17-1.14-.22-1.24-.31-1.41-.38L62 73c-.57-.2-1.34-.47-1.91-.69l-1.92-.81c-.88-.44-2.06-1-2.92-1.5l-2.13-1.3c-1-.7-2.27-1.63-3.21-2.37l-2-1.8c-.73-.75-1.72-1.75-2.42-2.53l-1.79-2.21c-.56-.82-1.33-1.9-1.86-2.74l-1.41-2.49c-.41-.88-1-2-1.36-2.94l-1-2.73c-.25-.94-.63-2.18-.85-3.12l-.54-2.93c-.17-1.63-.33-3.8-.38-5.44l.12-3c.12-1 .25-2.28.42-3.25l.62-2.89c.27-.93.61-2.17.93-3.09l1.06-2.69c.42-.87 1-2 1.42-2.89l1.46-2.43c.56-.8 1.3-1.88 1.9-2.66L46 12.35c.72-.73 1.66-1.72 2.41-2.43l2-1.68c.91-.67 2.13-1.57 3.07-2.2l1.91-1.15a36 36 0 0 1 4.16-2l1.39-.54a39.6 39.6 0 0 1 8-2l1-.12 1-.09.9-.07h5.17l.89.08.95.1 1 .13 1.01.22h.11L79.75.43C50.09-3.31 39 28.14 55.5 49.59c18.34 23.84 51.9 19.27 56.11-7.59.214-1.487.321-2.988.32-4.49v.07"/><path fill="#488521" d="M111.32 44.21a37 37 0 0 1-1.61 5.95l-1.09 2.68c-.43.87-1 2-1.45 2.87l-1.48 2.42c-.57.8-1.32 1.87-1.93 2.64L102 62.85c-.73.73-1.69 1.72-2.46 2.41l-2 1.66c-.92.67-2.16 1.56-3.12 2.19l-1.89 1.11a37 37 0 0 1-4.26 2l-1.38.51a39 39 0 0 1-7.58 1.83l-1 .12-1 .09-.91.07h-5.13l-.89-.08-.94-.1-1-.13-1.06-.17-1.14-.22-1.24-.31-1.41-.38L62 73c-.57-.2-1.34-.47-1.91-.69l-1.92-.81c-.88-.44-2.06-1-2.92-1.5l-2.13-1.3c-1-.7-2.27-1.63-3.21-2.37l-2-1.8c-.73-.75-1.72-1.75-2.42-2.53l-1.79-2.21c-.56-.82-1.33-1.9-1.86-2.74l-1.41-2.49c-.41-.88-1-2-1.36-2.94l-1-2.73c-.25-.94-.63-2.18-.85-3.12l-.54-2.93c-.17-1.63-.33-3.8-.38-5.44l.12-3c.12-1 .25-2.28.42-3.25l.62-2.89c.27-.93.61-2.17.93-3.09l1.06-2.69c.42-.87 1-2 1.42-2.89l1.46-2.43c.56-.8 1.3-1.88 1.9-2.66L46 12.35c.72-.73 1.66-1.72 2.41-2.43l2-1.68c.91-.67 2.13-1.57 3.07-2.2l1.91-1.15a36 36 0 0 1 4.16-2l1.39-.54a39.6 39.6 0 0 1 8-2l1-.12 1-.09.9-.07h1.9C45.36.86 36.47 35.65 59.3 56.43c17.92 16.31 48 12.17 52.21-13.33-.06.33-.12.78-.19 1.11"/><path fill="#468020" d="M109.71 50.16a36.4 36.4 0 0 1-2.54 5.55l-1.48 2.42c-.57.8-1.32 1.87-1.93 2.64L102 62.85c-.73.73-1.69 1.72-2.46 2.41l-2 1.66c-.92.67-2.16 1.56-3.12 2.19l-1.89 1.11a37 37 0 0 1-4.26 2l-1.38.51a39 39 0 0 1-7.58 1.83l-1 .12-1 .09-.91.07h-5.13l-.89-.08-.94-.1-1-.13-1.06-.17-1.14-.22-1.24-.31-1.41-.38L62 73c-.57-.2-1.34-.47-1.91-.69l-1.92-.81c-.88-.44-2.06-1-2.92-1.5l-2.13-1.3c-1-.7-2.27-1.63-3.21-2.37l-2-1.8c-.73-.75-1.72-1.75-2.42-2.53l-1.79-2.21c-.56-.82-1.33-1.9-1.86-2.74l-1.41-2.49c-.41-.88-1-2-1.36-2.94l-1-2.73c-.25-.94-.63-2.18-.85-3.12l-.54-2.93c-.17-1.63-.33-3.8-.38-5.44l.12-3c.12-1 .25-2.28.42-3.25l.62-2.89c.27-.93.61-2.17.93-3.09l1.06-2.69c.42-.87 1-2 1.42-2.89l1.46-2.43c.56-.8 1.3-1.88 1.9-2.66L46 12.35c.72-.73 1.66-1.72 2.41-2.43l2-1.68c.91-.67 2.13-1.57 3.07-2.2l1.91-1.15a36 36 0 0 1 4.16-2l1.39-.54A40.7 40.7 0 0 1 68.45.43l-.87.14C37.19 6.43 38.06 45.34 62.24 61.2c19.41 12.72 40.91 7.17 47.93-12.4-.13.41-.31 1-.46 1.36"/><path fill="#437b1f" d="M107.17 55.71a37.6 37.6 0 0 1-3.41 5.06L102 62.85c-.73.73-1.69 1.72-2.46 2.41l-2 1.66c-.92.67-2.16 1.56-3.12 2.19l-1.89 1.11a37 37 0 0 1-4.26 2l-1.38.51a39 39 0 0 1-7.58 1.83l-1 .12-1 .09-.91.07h-5.13l-.89-.08-.94-.1-1-.13-1.06-.17-1.14-.22-1.24-.31-1.41-.38L62 73c-.57-.2-1.34-.47-1.91-.69l-1.92-.81c-.88-.44-2.06-1-2.92-1.5l-2.13-1.3c-1-.7-2.27-1.63-3.21-2.37l-2-1.8c-.73-.75-1.72-1.75-2.42-2.53l-1.79-2.21c-.56-.82-1.33-1.9-1.86-2.74l-1.41-2.49c-.41-.88-1-2-1.36-2.94l-1-2.73c-.25-.94-.63-2.18-.85-3.12l-.54-2.93c-.17-1.63-.33-3.8-.38-5.44l.12-3c.12-1 .25-2.28.42-3.25l.62-2.89c.27-.93.61-2.17.93-3.09l1.06-2.69c.42-.87 1-2 1.42-2.89l1.46-2.43c.56-.8 1.3-1.88 1.9-2.66L46 12.35c.72-.73 1.66-1.72 2.41-2.43l2-1.68c.91-.67 2.13-1.57 3.07-2.2l1.91-1.15a36 36 0 0 1 4.16-2l1.39-.54 1.26-.43-1 .34c-28 10.84-23.27 52.67 7.33 64.86 15.62 6.23 31.24 1.5 38.88-11.75l-.2.36"/><path fill="#559c27" d="M86.77 2.59c25.5 7.81 33.35 42.53 12.23 53.85C76.38 68.51 46.75 42.64 54.93 18 60.44 1.36 77.39-.28 86.77 2.59"/><path fill="#58a128" d="M91.06 4.46c23.51 10.81 27 43.37 5.51 52C75.45 65 47.05 41 57 16 62.48 2.27 79-1 91 4.49"/><path fill="#5aa629" d="M95 6.83c22.42 14 20.19 46.06-3.47 49.75-24.35 3.8-44.53-25.44-30.92-44.7C67.78 1.76 83.19-.51 95 6.83"/><path fill="#5dab2a" d="M98.46 9.68c18.06 15.12 14 42.4-6.77 45.6-25.27 3.9-42-26.06-29.85-43.13C69.7 1.08 86.81-.07 98.46 9.68"/><path fill="#5faf2c" d="M101.51 13c16.12 17.65 6.49 43.08-15.62 41.24-26.72-2.22-33.67-33.59-20-45 10.4-8.67 25.7-7 35.6 3.79"/><path fill="#62b42d" d="M101.39 13.44c15.08 16.9 5.71 40.88-15.39 39.47-23.65-1.57-32.89-30-19-43.11 8.17-7.75 24-8.13 34.46 3.64"/><path fill="#65b92e" d="M101.19 13.87C115.62 30.19 106.41 53.2 86 51.74 60.79 49.93 55.13 20.76 68.45 10c11.08-9 25.14-4.69 32.74 3.9"/><path fill="#67be2f" d="M102.21 15.93c11.9 15.58 2.4 36-16.13 34.61C64.38 49 54.54 24 70.14 10.11 77 4 92.52 3.24 102.21 15.93"/><path fill="#6ac230" d="M103 18.09c11.76 19-5.15 36.06-23.2 30.22C60.24 42 59.18 17.1 73.9 9c10.81-6 23.53.09 29.12 9.11"/><path fill="#6cc732" d="M102.5 18.53c10.87 17.83-5.77 34.41-22.68 28.83-21-6.93-17.16-31.19-5.74-37.11 17.56-9.1 28.31 8.1 28.42 8.28"/><path fill="#6fcc33" d="M101.89 19c9.9 16.62-6.39 32.69-22.08 27.45-18.73-6.3-18.05-28.82-3.09-36.25 8.35-4.14 19.87-.13 25.17 8.76"/><path fill="#72d134" d="M102.91 23.24c5.71 17.08-12.52 27.57-24 21.75-3.49-1.76-12.77-6.45-12.48-17.25.15-5.57 4.41-14.66 13.41-17.39 9.25-2.82 19.83 3.09 23.11 12.89"/><path fill="#74d535" d="M102 23.68c4.66 14.39-9.47 25-22.2 21-15.3-4.78-16.87-24.47-2.56-31.94 9.33-4.86 21.36.47 24.76 11"/><path fill="#77da36" d="M101 24.13C105.27 38.47 90.29 47.39 79.79 44c-3.63-1.17-10.94-6.46-11.37-12-.25-3.16-1-12.8 9-18.12A16.87 16.87 0 0 1 101 24.13"/><path fill="#79df37" d="M99.86 24.55c3.94 13.64-10.22 22.06-20.08 18.83C67.27 39.28 64 22.18 77.6 15c8.37-4.42 19.61.42 22.26 9.58"/><path fill="#7ce439" d="M98.64 25c3.85 13.18-9.32 20.93-18.87 17.78-11.74-3.87-14.83-19.92-2-26.65 7.85-4.13 18.38.31 20.87 8.87"/><path fill="#7ee83a" d="M98.48 29.4c0 .38-.17 9.29-9.11 12.31-8 2.69-11.91-.16-15.87-3.87-8.11-7.6-1.86-20.18 8.26-22 7.58-1.36 16.79 4.63 16.72 13.56"/><path fill="#81ed3b" d="M97.52 29.66c-.13 3.38-1.73 6.26-4.89 9.71-.72.78-6.56 2.81-6.61 2.83s-6.1-.67-6.28-.74c-1.74-.72-6.2-4.41-6.23-4.44-.88-.82-5.07-5.32-1.85-13A13.5 13.5 0 0 1 82 16.7c7.82-.95 15.79 5.71 15.51 13"/><path fill="#90ef53" d="M96.52 29.9c-.46 8.82-8 11-10.53 11.68-.12 0-6.1-.68-6.26-.76-.66-.27-6-4.39-6-4.42-2.1-2.31-4-6.33-1.31-12.39a12.81 12.81 0 0 1 9.85-6.59c6.62-.59 14.68 5.17 14.3 12.48"/><path fill="#96f05c" d="M95.3 28.76a11.56 11.56 0 0 1-.5 5.86 7.66 7.66 0 0 1-3 3.64C87 40.87 86.06 41 86 41s-6.1-.67-6.26-.72a9 9 0 0 1-2.36-1.66c-3.16-2.27-3.16-2.27-5.19-6-.65-1.22-.52-4.55-.52-4.57a12.53 12.53 0 0 1 10.78-9.84 25 25 0 0 1 5.55.99l4.58 3.11A10.35 10.35 0 0 1 94.83 26c.254.904.411 1.833.47 2.77"/><path fill="#9bf164" d="M95 30.25a12.4 12.4 0 0 1-1 4.53 13 13 0 0 1-2.25 2.7S87 40 85.92 40.36c-.09 0-6.08-.6-6.23-.65a13.8 13.8 0 0 1-4.61-3.31c-4.55-4.84-2.61-9.35-1.45-12 .31-.72 4.61-4.3 4.65-4.32l4.34-1.15a15.2 15.2 0 0 1 9.09 3.6A12.55 12.55 0 0 1 95 30.25"/><path fill="#9ff16a" d="M94.34 30.37a9.78 9.78 0 0 1-2.73 6.32c-.16.19-5.3 3-5.72 3.12-.12 0-6-.56-6.21-.64a11.1 11.1 0 0 1-3.89-2.78c-2.17-2.28-4.08-5.94-2.18-10.47a7.5 7.5 0 0 1 1-1.9l3.79-3.37 4.46-1s5 .15 8 3a10.94 10.94 0 0 1 3.5 7.72"/><path fill="#a3f270" d="M93.7 30.5s-.56 3.58-2.19 5.41c-.19.21-5.26 3.23-5.66 3.37-.1 0-5.95-.57-6.19-.64a8.8 8.8 0 0 1-3.17-2.26 12.6 12.6 0 0 1-2.78-4.23s-.64-3.35-.12-4.65c1.3-3.24 1.47-3.66 4.83-6.25l4.55-1s5 .65 7 2.55c1 .92 3.93 3.75 3.74 7.69"/><path fill="#a6f275" d="M93.06 30.61a42 42 0 0 1-1.75 4.61c-.22.25-5.1 3.39-5.49 3.53-.11 0-5.89-.57-6.18-.65a6.5 6.5 0 0 1-2.45-1.73 14 14 0 0 1-2.91-4.21A6.64 6.64 0 0 1 74 28a19 19 0 0 1 2.12-4c.7-.816 1.5-1.542 2.38-2.16l4.63-1S88.4 22.32 89 23a17 17 0 0 1 3.12 3.58 8.6 8.6 0 0 1 .9 4.08"/><path fill="#a9f379" d="M92.4 30.73a13.1 13.1 0 0 1-2.12 4.63 12.7 12.7 0 0 1-4.5 2.86c-.11 0-5.75-.56-6.16-.66a4.36 4.36 0 0 1-1.72-1.21 13.9 13.9 0 0 1-3.05-4.2 6.73 6.73 0 0 1-.28-4.15 18.4 18.4 0 0 1 2.29-4 8.3 8.3 0 0 1 1.69-1.54l4.69-1s4.58 1.25 5.57 2.25a15.2 15.2 0 0 1 2.69 3 8.66 8.66 0 0 1 .9 4.08"/><path fill="#acf37e" d="M91.74 30.84c0 .18-.42 4.52-6 6.86-.1 0-5.55-.56-6.14-.67a2.46 2.46 0 0 1-1-.7 14.2 14.2 0 0 1-3.18-4.18 6.75 6.75 0 0 1-.26-4.15 19 19 0 0 1 2.47-4 5 5 0 0 1 1-.9l4.75-1.1s3.92.94 5.8 2.93a7.9 7.9 0 0 1 1.64 1.83 9.9 9.9 0 0 1 .92 4.08"/><path fill="#aef382" d="M91.06 31c-.06.73-2.86 4.65-2.89 4.68a7.6 7.6 0 0 1-2.48 1.54s-5.88-.4-6.38-.86A14.5 14.5 0 0 1 76 32.14a6.78 6.78 0 0 1-.24-4.14 38 38 0 0 1 2.91-4.32l4.84-1.1c2 .1 6 3.57 6 3.61 1.33 1.47 1.52 4.72 1.52 4.75"/><path fill="#b1f485" d="M87.1 35.75c-.38.35-.94.89-1.46.89a36.4 36.4 0 0 1-6.1-.84 9.7 9.7 0 0 1-3-3.66 7.2 7.2 0 0 1-.19-4.14 7.1 7.1 0 0 1 2.39-3.61s4.8-1.19 4.9-1.2c.84-.07 5.74 3.75 5.76 3.79a6.26 6.26 0 0 1 .94 4.08c0 .21-3 4.42-3.24 4.69"/><path fill="#b3f489" d="M86 35.86c-.91.78-6.49-.8-6.53-.84a8.4 8.4 0 0 1-2.37-2.9 7.73 7.73 0 0 1-.16-4.12 5.26 5.26 0 0 1 1.87-2.83l5-1.34 4.85 3.27a5.72 5.72 0 0 1 1 4.07c0 .21-3.24 4.42-3.56 4.7"/><path fill="#b5f48c" d="M85.53 35.44c-.1 0-6-1.12-6.07-1.19a6.2 6.2 0 0 1-1.75-2.14 8.3 8.3 0 0 1-.18-4.11 3.56 3.56 0 0 1 1.35-2l5-1.38a7 7 0 0 1 3.92 2.66 5.9 5.9 0 0 1 1 4.07 6.43 6.43 0 0 1-3.29 4.17"/><path fill="#b8f590" d="M85.45 34.65c-.1 0-6-1.11-6-1.17-.4-.37-1-.86-1.14-1.39a9.3 9.3 0 0 1-.19-4.09 2 2 0 0 1 .88-1.3l5.1-1.44a5.08 5.08 0 0 1 3 2 6.3 6.3 0 0 1 1 4.06 5.1 5.1 0 0 1-2.6 3.29"/><path fill="#baf593" d="M85.36 33.86c-.09 0-5.91-1.09-6-1.15s-.5-.39-.53-.64a11.5 11.5 0 0 1-.14-4.13c0-.16.15-.41.3-.46l5.2-1.48a3.23 3.23 0 0 1 2 1.41 6.72 6.72 0 0 1 1 4.06 3.76 3.76 0 0 1-1.91 2.41"/><path fill="#bcf596" d="M85.27 33.07c-.07 0-5.46-1-5.49-1-.71-1.06-.1-3.23.75-4.19a4.82 4.82 0 0 1 3.79-1.14 1.6 1.6 0 0 1 1.09.76c.52 1.16 1.35 2.84 1.08 4.07a2.38 2.38 0 0 1-1.22 1.53"/><path fill="#bdf699" d="M85.17 32.28c-.68.26-2 .2-2.39-.42-.71-1.12.25-3.28 1.16-4.25a.67.67 0 0 1 .51-.16c.32.05 1.26 4.13 1.26 4.17a1.05 1.05 0 0 1-.54.66"/><path fill="#559b27" d="m74.64 1.58-.46.07zc.12.07 0 .15-.23.19a1.4 1.4 0 0 1-.69-.07c-.13-.07 0-.16.23-.19a1.2 1.2 0 0 1 .69.07"/><path fill="#559c27" d="M73.9 1.65c-.18 0-.14 0-.14-.06s.63-.1.64 0a1 1 0 0 1-.5.09"/><path fill="url(#a)" d="M53.05 99.32h43.9v9.42h-43.9z"/><rect width="119.47" height="9.42" x="15.26" y="108.74" fill="url(#b)" rx="3.49"/><rect width="150" height="9.42" y="117.71" fill="url(#c)" rx="3.49"/><rect width="150" height="16.32" y="127.13" fill="url(#d)" rx="3.49"/></g></svg>