<svg xmlns="http://www.w3.org/2000/svg" viewBox="0 0 150 150"><title>Light- yellow（黄灯） (6)</title><defs><radialGradient id="a" cx="50%" cy="50%" r="48.317%" fx="50%" fy="50%"><stop offset="0%" stop-color="#f4f4f4" stop-opacity="0"/><stop offset="38%" stop-color="#f4f4f4" stop-opacity=".01"/><stop offset="52%" stop-color="#f3f3f3" stop-opacity=".04"/><stop offset="62%" stop-color="#f2f2f2" stop-opacity=".09"/><stop offset="70%" stop-color="#f1f1f1" stop-opacity=".17"/><stop offset="76%" stop-color="#efefef" stop-opacity=".26"/><stop offset="82%" stop-color="#ededed" stop-opacity=".38"/><stop offset="88%" stop-color="#ebebeb" stop-opacity=".53"/><stop offset="93%" stop-color="#e8e8e8" stop-opacity=".69"/><stop offset="97%" stop-color="#e4e4e4" stop-opacity=".88"/><stop offset="100%" stop-color="#e2e2e2"/></radialGradient></defs><g fill="none" fill-rule="nonzero"><path fill="#5d5f69" d="M95.1 0H54.9L20.1 20.1 0 54.9v40.2l20.1 34.8L54.9 150h40.2l34.8-20.1L150 95.1V54.9l-20.1-34.8z"/><path fill="#858792" d="M93.84 4.67H56.16L23.52 23.52 4.67 56.16v37.68l18.85 32.64 32.64 18.84h37.68l32.64-18.84 18.84-32.64V56.16l-18.84-32.64z"/><path fill="#53565e" d="M90.5 17.14h-31L32.65 32.65 17.14 59.5v31l15.51 26.85 26.85 15.51h31l26.85-15.51 15.51-26.85v-31l-15.51-26.85z"/><circle cx="75" cy="75" r="53.77" fill="#3e3938"/><circle cx="75" cy="75" r="49.09" fill="#f6eb68"/><circle cx="75" cy="73.83" r="41.88" fill="url(#a)" opacity=".68"/></g></svg>