<svg xmlns="http://www.w3.org/2000/svg" viewBox="0 0 151 53"><title>开关-开</title><g fill="none" fill-rule="nonzero"><path fill="#5ac8f7" d="M67.265 52.425H8.915l-8.14-8.14V8.855l8.14-8.14h88.16z" opacity=".2"/><path fill="#3c86a6" d="M67.515 52.935H8.705l-8.44-8.44V8.645l8.44-8.44h89.25zm-58.39-1h57.8l29.27-50.73H9.125l-7.86 7.86v35z"/><path fill="#5ac8f7" d="M52.715 27.055h-5.45v9.92h-2v-9.92h-6.54a20.5 20.5 0 0 1-.4 3.18 10.5 10.5 0 0 1-.93 2.54 12 12 0 0 1-1.6 2.27 29 29 0 0 1-2.42 2.37l-1.39-1.37a26 26 0 0 0 2.28-2.12 10 10 0 0 0 1.44-2 8.6 8.6 0 0 0 .82-2.19 15.5 15.5 0 0 0 .34-2.69h-5.76v-1.77h5.76v-6.86h-4.49v-1.79h19v1.79h-4.11v6.86h5.47zm-7.45-1.78v-6.86h-6.5v6.86z"/><g opacity=".5"><path fill="#173440" d="M77.461 52.311 107.289.585l.866.5L78.327 52.81zM80.738 52.31 110.566.584l.866.5L81.605 52.81zM84.017 52.309 113.845.583l.866.5-29.828 51.725zM87.296 52.317 117.124.59l.866.5-29.828 51.725zM90.584 52.316 120.412.59l.866.5L91.45 52.814zM93.863 52.314 123.691.588l.866.5L94.73 52.812zM97.141 52.313 126.97.587l.866.5-29.828 51.725zM100.421 52.311 130.249.585l.866.5-29.828 51.726zM103.697 52.31 133.525.584l.866.5-29.827 51.726zM106.977 52.309 136.805.583l.866.5-29.828 51.725zM110.255 52.307 140.083.58l.866.5-29.828 51.725zM113.54 52.309l29.103-50.47.866.5-29.103 50.47zM116.81 52.3l27.91-48.399.866.5-27.91 48.399zM120.098 52.315l26.706-46.311.866.5-26.705 46.311zM123.37 52.308l25.506-44.232.867.5-25.507 44.232zM126.657 52.31l22.884-39.684.866.5-22.884 39.684zM129.934 52.308l19.607-34.002.866.5L130.8 52.808zM133.203 52.305l16.325-28.31.866.499-16.325 28.31zM136.486 52.31l13.058-22.646.866.5-13.058 22.645zM139.535 52.302l10.006-17.351.866.5-10.006 17.351z"/><path fill="#295d73" d="M141.825 52.935h-68.9l30.45-52.73h38.45l8.44 8.44v35.85zm-67.13-1h66.71l7.86-7.86v-35l-7.86-7.87h-37.44z"/></g><path fill="#295d73" d="M121.265 27.645a9.9 9.9 0 0 0 3.46 4.56 18.8 18.8 0 0 0 6.33 2.95l-1 1.88a22.5 22.5 0 0 1-3-1.15 17.6 17.6 0 0 1-2.8-1.61 14 14 0 0 1-2.37-2.07 10.4 10.4 0 0 1-1.7-2.54 11.9 11.9 0 0 1-3.51 4 28 28 0 0 1-6.09 3.37l-1.1-1.83a34 34 0 0 0 4-1.84 17.4 17.4 0 0 0 2.8-1.88 9 9 0 0 0 1.75-1.92 6.9 6.9 0 0 0 .93-2h-8.7v-1.75h9v-4.42h-7.7v-1.76h4.91c-.17-.31-.35-.65-.56-1s-.44-.73-.68-1.08-.46-.7-.68-1-.42-.57-.6-.78l1.47-.93c.19.23.42.52.68.87s.52.72.78 1.1l.76 1.12c.24.37.44.69.59 1l-1 .76h4.54a27 27 0 0 0 1.74-2.4q.775-1.18 1.41-2.44l1.71.71c-.35.68-.75 1.38-1.19 2.09s-.91 1.39-1.4 2h4.82v1.76h-7.6v4.42h9v1.83z"/></g></svg>