<svg xmlns="http://www.w3.org/2000/svg" viewBox="0 0 151 74"><title>看板2</title><g fill="none" fill-rule="nonzero"><path fill="#3c86a6" d="M149.045 73.585H1.485l-.75-.75-.47-.47v-8l2.37-2.39v-50.13l-2.37-2.37v-8l.08-.08c.42-.48.68-.73 1.12-1.19h147.58l.46.46.68.68.08.08v8l-2.37 2.37v50.13l2.37 2.39v8zm-147.5-.15h147.44l1.13-1.13v-7.93l-2.37-2.39v-50.21l2.37-2.36v-7.93l-.68-.68-.42-.41H1.545l-1.1 1.05v7.97l2.37 2.36v50.21l-2.4 2.39v7.93l.4.41z"/><path fill="#5ac8f7" d="m25.125.275-.65 1.12H.395l1.12-1.12zM118.485 1.395h-88.01l.65-1.12h88z" opacity=".4"/><path fill="#5ac8f7" d="M26.475 1.395h-1.35l.14-.24h1.35zm.7 0h-.47l.14-.24h.47z"/><path fill="#5ac8f7" d="M150.135 1.395h-27.49l.62-1.12h25.72z" opacity=".4"/><path fill="#5ac8f7" d="M121.325 1.395h-1.35l.14-.24h1.35zm.7 0h-.46l.14-.24h.46z"/></g></svg>