<svg xmlns="http://www.w3.org/2000/svg" viewBox="0 0 151 109"><title>看板5</title><defs><linearGradient id="a" x1="99.993%" x2="0%" y1="49.995%" y2="49.995%"><stop offset="0%" stop-color="#5ac8f7" stop-opacity=".2"/><stop offset="55%" stop-color="#5ac8f7" stop-opacity=".04"/></linearGradient></defs><g fill="none" fill-rule="nonzero"><path fill="url(#a)" stroke="#3c86a6" d="M82.12 0h67.19v106.95H0V0z" transform="translate(.765 .705)"/><path fill="#3c86a6" d="m6.065 107.895-5.55-5.54-.1-.1v-31.6l5.23-5.3v-17.27l-5.23-5.2V6.105l.1-.1 5.55-5.55.1-.1h138.5l.1.1 5.55 5.55.1.1v96.14l-.1.1-5.55 5.55-.1.1H6.165zm143.66-5.94v-95.6l-5.31-5.31h-138l-5.31 5.31v36.2l5.23 5.21v17.91l-5.23 5.26v31l5.31 5.42h138z"/><path fill="#5ac8f7" d="M.765 6.255v15.46h149.3V6.255c-2.16-2.18-3.38-3.39-5.55-5.55H6.315c-2.18 2.16-3.39 3.37-5.55 5.55" opacity=".4"/></g></svg>