<svg xmlns="http://www.w3.org/2000/svg" viewBox="0 0 106 151"><title>看板3</title><defs><linearGradient id="a" x1="0%" x2="100%" y1="50%" y2="50%"><stop offset="45%" stop-color="#5ac8f7" stop-opacity=".04"/><stop offset="100%" stop-color="#5ac8f7" stop-opacity=".2"/></linearGradient></defs><g fill="none" fill-rule="nonzero"><path fill="url(#a)" stroke="#3c86a6" d="M46.76 0H0v149.52h103.91V0z" transform="translate(.765 .705)"/><path fill="#3c86a6" d="M100.915 150.465H4.525l-.07-.07-3.86-3.86-.07-.07v-142l.07-.07 3.86-3.86.07-.07h96.39l.07.07 3.86 3.86.07.07v40.9l-3.64 3.62v53.1l3.64 3.66v40.72l-.07.07-3.86 3.86zm-96.19-.48h96l3.72-3.72v-40.32l-3.64-3.66v-53.5l3.64-3.62v-40.5l-3.73-3.72H4.725l-3.72 3.72v141.6z"/><path fill="#5ac8f7" d="M104.675 4.565v10.77H.765V4.565l3.86-3.86h96.19z" opacity=".4"/></g></svg>