<svg xmlns="http://www.w3.org/2000/svg" viewBox="0 0 152 27"><title>看板9</title><defs><linearGradient id="a" x1="0%" x2="100%" y1="50.021%" y2="50.021%"><stop offset="45%" stop-color="#5ac8f7" stop-opacity=".04"/><stop offset="100%" stop-color="#5ac8f7" stop-opacity=".2"/></linearGradient></defs><g fill="none" fill-rule="nonzero"><path fill="url(#a)" stroke="#3c86a6" d="M67.41 0H0v24.27h149.79V0z" transform="translate(.765 1.495)"/><path fill="#3c86a6" d="M149.415 25.835H1.915l-1.22-1.21v-22l1.22-1.2h34.2l.68 1.19h77.64l.68-1.19h34.3l1.22 1.22v22zm-147.44-.14h147.38l1.13-1.13V2.705l-1.13-1.14h-34.15l-.69 1.19h-77.8l-.69-1.19h-34l-1.18 1.14v21.86z"/><path fill="#5ac8f7" d="M.635.205h1v1h-1z"/><path fill="#5ac8f7" d="M1.515.205h1v1h-1zm21.13 0h1v1h-1z"/><path fill="#5ac8f7" d="M23.535.205h1v1h-1zm68.46 0h1v1h-1z"/><path fill="#5ac8f7" d="M92.875.205h1v1h-1zM58.435.795h-1v-1h1z"/><path fill="#5ac8f7" d="M57.565.795h-1v-1h1z"/><path fill="#5ac8f7" d="M20.405.795H4.135l.34-.59h16.27zm55.74-.59h-16.27l.34.59h29.97l.34-.59z" opacity=".4"/><path fill="#5ac8f7" d="M127.365.205h1v1h-1z"/><path fill="#5ac8f7" d="M128.245.205h1v1h-1zm21.14 0h1v1h-1z"/><path fill="#5ac8f7" d="M150.265.205h1v1h-1z"/><path fill="#5ac8f7" d="M147.145.795h-16.27l.34-.59h16.27z" opacity=".4"/></g></svg>