<svg xmlns="http://www.w3.org/2000/svg" viewBox="0 0 151 9"><title>看板1</title><g fill="none" fill-rule="nonzero"><path fill="#5ac8f7" d="M149.015.445h-16.3l-1.72 3.19H19.535l-1.72-3.19h-16.3l-1.18 1.18v5.48h64.69l.68-1.19h19l.68 1.19h64.79v-5.48z" opacity=".2"/><path fill="#3c86a6" d="M150.265 7.205h-64.9l-.68-1.18h-18.93l-.69 1.18H.265v-5.61l1.22-1.22h16.38l1.71 3.18h111.38l1.71-3.18h16.38l1.22 1.22zm-64.81-.14h64.66v-5.41l-1.13-1.13h-16.23l-1.71 3.18H19.485l-1.71-3.18H1.545l-1.13 1.13v5.38h64.57l.68-1.19h19.1z"/><path fill="#5ac8f7" d="M50.655 7.105h-17.22l2-3.47h17.22zM99.295 7.105h-13.89l-.68-1.19h-19.02l-.68 1.19h-13.89l2.01-3.47h44.15zM32.285 7.105h-.92l2-3.47h.93zM99.735 7.105h17.22l-2.01-3.47h-17.22zM118.095 7.105h.93l-2.01-3.47h-.92z" opacity=".2"/><path fill="#5ac8f7" d="M.335 8.245h64.09v1H.335z"/><path fill="#5ac8f7" d="M.335 7.255h1v1h-1z"/><path fill="#5ac8f7" d="M.735 7.915h-.47v-.71h.47zm-.32-.15h.17v-.44h-.17zM1.165 7.255h1v1h-1z"/><path fill="#5ac8f7" d="M1.085 7.175h1v1h-1zm25.93.08h1v1h-1z"/><path fill="#5ac8f7" d="M27.415 7.915h-.47v-.71h.47zm-.32-.15h.17v-.44h-.17z"/><path fill="#5ac8f7" d="M24.805 7.835H3.715l.34-.58h21.09z" opacity=".4"/><path fill="#5ac8f7" d="M27.845 7.255h1v1h-1z"/><path fill="#5ac8f7" d="M27.765 7.175h1v1h-1zm22.16.08h1v1h-1z"/><path fill="#5ac8f7" d="M50.325 7.915h-.47v-.71h.47zm-.32-.15h.17v-.44h-.17zM50.745 7.255h1v1h-1z"/><path fill="#5ac8f7" d="M50.675 7.175h1v1h-1zm14.17.08h1v1h-1z"/><path fill="#5ac8f7" d="M64.775 7.175h1v1h-1zm21.32 1.07h64.09v1h-64.09zM150.195 7.835h-1v-1h1z"/><path fill="#5ac8f7" d="M150.265 7.915h-.47v-.71h.47zm-.32-.15h.17v-.44h-.17zM149.365 7.835h-1v-1h1z"/><path fill="#5ac8f7" d="M149.145 7.175h1v1h-1zM123.515 7.835h-1v-1h1z"/><path fill="#5ac8f7" d="M123.585 7.915h-.47v-.71h.47zm-.32-.15h.17v-.44h-.17z"/><path fill="#5ac8f7" d="M125.385 7.835h21.09l.34-.58h-21.09z" opacity=".4"/><path fill="#5ac8f7" d="M122.685 7.835h-1v-1h1z"/><path fill="#5ac8f7" d="M122.465 7.175h1v1h-1zM100.595 7.835h-1v-1h1z"/><path fill="#5ac8f7" d="M100.675 7.915h-.47v-.71h.47zm-.32-.15h.17v-.44h-.17zM99.775 7.835h-1v-1h1z"/><path fill="#5ac8f7" d="M99.565 7.175h1v1h-1zM85.685 7.835h-1v-1h1z"/><path fill="#5ac8f7" d="M85.465 7.175h1v1h-1z"/></g></svg>