<svg xmlns="http://www.w3.org/2000/svg" viewBox="0 0 151 109"><title>看板4</title><defs><linearGradient id="a" x1="0%" x2="100%" y1="49.995%" y2="49.995%"><stop offset="45%" stop-color="#5ac8f7" stop-opacity=".04"/><stop offset="100%" stop-color="#5ac8f7" stop-opacity=".2"/></linearGradient></defs><g fill="none" fill-rule="nonzero"><path fill="url(#a)" stroke="#3c86a6" d="M67.19 0H0v106.95h149.31V0z" transform="translate(.765 .705)"/><path fill="#3c86a6" d="M144.665 107.995H6.165l-.1-.1-5.55-5.54-.1-.1V6.105l.1-.1 5.55-5.55.1-.1h138.5l.1.1 5.55 5.55.1.1v36.78l-5.23 5.2v17.27l5.23 5.3v31.59l-.1.1-5.55 5.55zm-138.25-.64h138l5.35-5.35v-31l-5.23-5.26v-17.94l5.23-5.21V6.355l-5.35-5.31h-138l-5.31 5.31v95.6z"/><path fill="#5ac8f7" d="M150.065 6.255v15.46H.765V6.255c2.16-2.18 3.38-3.39 5.55-5.55h138.2c2.18 2.16 3.39 3.37 5.55 5.55" opacity=".4"/></g></svg>