<svg xmlns="http://www.w3.org/2000/svg" viewBox="0 0 151 98"><title>警告</title><g fill="none" fill-rule="nonzero"><path fill="#a63c3c" d="M150.265 76.475h-150v-55.27h150v13l-6.21 4.84v15.92l6.21 4.88zm-149.18-.82h148.35v-15.45l-6.17-4.84v-16.74l6.2-4.83v-11.81H1.085z"/><path fill="#a63c3c" d="M150.265 21.995h-150v-15l2.31-2.28c1.42-1.41 2.69-2.64 4.39-4.39l.12-.12h136.35l6.83 6.83zm-149.18-.79h148.35V7.375l-6.34-6.35H7.435c-1.68 1.69-2.89 2.89-4.28 4.28l-2.07 2.07zm142.35 76.22H7.095l-6.83-6.82v-15h150v15zm-136-.82h135.66l6.35-6.34v-13.79H1.095v13.79z"/><path fill="#f75a5a" d="M12.425.625.675 20.965v-6.25L8.815.625zm8.38 0-12.09 20.95h-3.61l12.1-20.95zm8.38 0-12.1 20.95h-3.59l12.1-20.95zm8.39 0-12.1 20.95h-3.6L33.965.625zm8.39 0-12.1 20.95h-3.61l12.1-20.95zm8.38 0-12.1 20.95h-3.6l12.1-20.95zm8.38 0-12.1 20.95h-3.59l12.1-20.95zm8.39 0-12.1 20.95h-3.6L67.505.625zm8.38 0-12.09 20.95h-3.61l12.1-20.95zm8.38 0-12.09 20.95h-3.6l12.1-20.95zm8.39 0-12.1 20.95h-3.6l12.1-20.95zm8.39 0-12.1 20.95h-3.61l12.1-20.95zm8.38 0-12.1 20.95h-3.6l12.1-20.95zm8.38 0-12.09 20.95h-3.6l12.1-20.95zm8.39 0-12.1 20.95h-3.6l12.1-20.95zm8.23 0-12.1 20.95h-3.45l12.1-20.95zm7.13 1.89-11 19.06h-3.45l12.1-20.96h.45zm4.68 4.69v1.45l-7.45 12.92h-3.45l9.25-16zm-2.67 14.37 2.68-4.63v4.63zm-146.5-.61v.61h-.35zM15.365 80.575a6.61 6.61 0 1 0 6.6 6.63 6.6 6.6 0 0 0-6.6-6.63m2.62 8.75-.48.47-2.14-2.14-2.1 2.14-.47-.47 2.09-2.12-2.14-2.14.47-.48 2.15 2.12 2.14-2.15.48.48-2.15 2.17z"/></g></svg>