<svg xmlns="http://www.w3.org/2000/svg" viewBox="0 0 151 30"><title>进度条</title><g fill="none" fill-rule="nonzero"><path fill="#3c86a6" d="M139.315 26.755H12.845l11-19h126.42zm-125.83-.37h125.62l10.53-18.18H24.005zm-5.22.37h-8l10.84-18.78-4.48-7.77h8l.06.09 4.43 7.68zm-7.37-.37h7.16l10.64-18.41-4.28-7.4h-7.15l4.27 7.4z"/><path fill="#3c86a6" d="M7.005 24.555h-2.94l9.58-16.58-3.22-5.57h2.94l3.21 5.57zm-2.3-.35h2.08l9.37-16.23-3-5.21h-2.09l3 5.21z" opacity=".4"/><path fill="#5ac8f7" d="m25.045 21.925 5.37-9.3h3.54l-5.37 9.3z"/><path fill="#3c86a6" d="M31.395 5.335h-1.78l-.79-1.38h1.77zm43.37 0h-42.71l-.79-1.38h42.71z"/><path fill="#5ac8f7" d="m30.655 21.925 5.37-9.3h3.54l-5.37 9.3zm5.61 0 5.37-9.3h3.54l-5.37 9.3zm5.61 0 5.37-9.3h3.54l-5.37 9.3zm5.61 0 5.37-9.3h3.54l-5.37 9.3z"/><path fill="#5ac8f7" d="m53.095 21.925 5.36-9.3h3.55l-5.37 9.3zM58.695 21.925l5.37-9.3h3.54l-5.36 9.3zM64.305 21.925l5.37-9.3h3.54l-5.37 9.3zM69.915 21.925l5.37-9.3h3.54l-5.37 9.3zM75.525 21.925l5.37-9.3h3.54l-5.37 9.3zM81.135 21.925l5.37-9.3h3.54l-5.37 9.3zM86.745 21.925l5.37-9.3h3.54l-5.37 9.3zM92.355 21.925l5.36-9.3h3.55l-5.37 9.3zM97.955 21.925l5.37-9.3h3.55l-5.37 9.3zM103.565 21.925l5.37-9.3h3.55l-5.37 9.3zM109.175 21.925l5.37-9.3h3.54l-5.37 9.3zM114.785 21.925l5.37-9.3h3.54l-5.37 9.3zM120.395 21.925l5.37-9.3h3.54l-5.37 9.3zM126.005 21.925l5.37-9.3h3.54l-5.37 9.3z" opacity=".2"/><path fill="#3c86a6" d="M13.165 28.655h1v1.1h-1zM136.025 29.755h-1.45v-1.1h1.45zm-2.91 0h-1.45v-1.1h1.45zm-2.9 0h-1.46v-1.1h1.51zm-2.91 0h-1.45v-1.1h1.41zm-2.91 0h-1.45v-1.1h1.45zm-2.91 0h-1.45v-1.1h1.45zm-2.9 0h-1.46v-1.1h1.46zm-2.91 0h-1.41v-1.1h1.46zm-2.91 0h-1.45v-1.1h1.45zm-2.91 0h-1.45v-1.1h1.45zm-2.91 0h-1.45v-1.1h1.45zm-2.9 0h-1.46v-1.1h1.46zm-2.91 0h-1.46v-1.1h1.46zm-2.91 0h-1.45v-1.1h1.49zm-2.91 0h-1.45v-1.1h1.45zm-2.9 0h-1.46v-1.1h1.46zm-2.91 0h-1.46v-1.1h1.46zm-2.91 0h-1.45v-1.1h1.45zm-2.91 0h-1.42v-1.1h1.45zm-2.91 0h-1.45v-1.1h1.45zm-2.9 0h-1.46v-1.1h1.46zm-2.91 0h-1.46v-1.1h1.46zm-2.91 0h-1.45v-1.1h1.45zm-2.91 0h-1.45v-1.1h1.45zm-2.91 0h-1.45v-1.1h1.48zm-2.9 0h-1.46v-1.1h1.46zm-2.91 0h-1.45v-1.1h1.45zm-2.91 0h-1.45v-1.1h1.45zm-2.91 0h-1.45v-1.1h1.45zm-2.9 0h-1.44v-1.1h1.46zm-2.91 0h-1.46v-1.1h1.46zm-2.91 0h-1.45v-1.1h1.45zm-2.91 0h-1.45v-1.1h1.45zm-2.91 0h-1.45v-1.1h1.45zm-2.9 0h-1.46v-1.1h1.46zm-2.91 0h-1.46v-1.1h1.47zm-2.91 0h-1.45v-1.1h1.45zm-2.91 0h-1.45v-1.1h1.45zm-2.9 0h-1.46v-1.1h1.46zm-2.91 0h-1.46v-1.1h1.46zm-2.91 0h-1.45v-1.1h1.45zm-2.91 0h-1.45v-1.1h1.45zM137.485 28.655h1v1.1h-1z"/></g></svg>