<svg xmlns="http://www.w3.org/2000/svg" viewBox="0 0 151 70"><title>速度仪表</title><defs><linearGradient id="a" x1="0%" x2="99.914%" y1="50.008%" y2="50.008%"><stop offset="0%" stop-color="#5ac8f7" stop-opacity="0"/><stop offset="100%" stop-color="#5ac8f7" stop-opacity=".2"/></linearGradient><linearGradient id="b" x1="100%" x2="0%" y1="50.008%" y2="50.008%"><stop offset="0%" stop-color="#5ac8f7" stop-opacity="0"/><stop offset="100%" stop-color="#5ac8f7" stop-opacity=".2"/></linearGradient><linearGradient id="c" x1="50%" x2="50%" y1="100%" y2="0%"><stop offset="0%" stop-color="#5ac8f7" stop-opacity=".2"/><stop offset="100%" stop-color="#5ac8f7" stop-opacity="0"/></linearGradient></defs><g fill="none" fill-rule="nonzero"><path fill="#5ac8f7" d="M35.265 45.985a52.8 52.8 0 0 0 4.88 13.48h-3.19a55.5 55.5 0 0 1-4.6-13.48zm-1.21-11.73v.71a52.7 52.7 0 0 0 1.05 10.31h-2.84a57 57 0 0 1-1-10.31v-.71a56.7 56.7 0 0 1 1-10.3h2.89a52.5 52.5 0 0 0-1.1 10.3m2.9-24.49h3.18a53.3 53.3 0 0 0-4.87 13.44h-2.91a55.3 55.3 0 0 1 4.6-13.44m8.18-7.81a53 53 0 0 0-4.62 7.1h-3.25a55.5 55.5 0 0 1 4.31-7.1zm-4.62 58.25a53 53 0 0 0 4.62 7.09h-3.52a55.4 55.4 0 0 1-4.35-7.09z"/><path fill="#5ac8f7" d="M28.095 45.985a58.3 58.3 0 0 0 4.42 13.48h-1.53a59.4 59.4 0 0 1-4.29-13.48zm-1.1-11.73v.71c.03 3.46.364 6.91 1 10.31h-1.44a60.6 60.6 0 0 1-.95-10.31v-.71c.021-3.454.34-6.9.95-10.3h1.41a58.6 58.6 0 0 0-.97 10.3m3.99-24.49h1.54a57.6 57.6 0 0 0-4.43 13.44h-1.4a59 59 0 0 1 4.29-13.44m5.98-7.81a57 57 0 0 0-4.1 7.1h-1.55a58 58 0 0 1 4-7.1zm-4.11 58.25a57 57 0 0 0 4.1 7.09h-1.69a59 59 0 0 1-4-7.09z" opacity=".4"/><path fill="url(#a)" d="M0 67.06h34.84a59 59 0 0 1-4-7.09l-.33-.71a59.4 59.4 0 0 1-4.29-13.48c-.05-.24-.09-.48-.14-.71a60.6 60.6 0 0 1-.95-10.31v-.71c.021-3.454.34-6.9.95-10.3.05-.24.09-.48.14-.71a59 59 0 0 1 4.32-13.48l.33-.71a61 61 0 0 1 4-7.1H0z" transform="translate(.265 .205)"/><path fill="#5ac8f7" d="M115.265 45.985a52.8 52.8 0 0 1-4.88 13.48h3.18a55.5 55.5 0 0 0 4.6-13.48zm1.21-11.73v.71a52.7 52.7 0 0 1-1 10.31h2.89c.646-3.4.98-6.85 1-10.31v-.71a56.7 56.7 0 0 0-1-10.3h-2.89a52.5 52.5 0 0 1 1 10.3m-2.9-24.49h-3.18a53.3 53.3 0 0 1 4.87 13.44h2.89a55.3 55.3 0 0 0-4.58-13.44m-8.18-7.81a53 53 0 0 1 4.62 7.1h3.25a55.5 55.5 0 0 0-4.31-7.1zm4.62 58.25a53 53 0 0 1-4.62 7.09h3.52a55.4 55.4 0 0 0 4.35-7.09z"/><path fill="#5ac8f7" d="M122.435 45.985a58.3 58.3 0 0 1-4.42 13.48h1.53a59.4 59.4 0 0 0 4.29-13.48zm1.1-11.73v.71a59 59 0 0 1-1 10.31h1.41a60.6 60.6 0 0 0 1-10.31v-.71a60.3 60.3 0 0 0-1-10.3h-1.38a58.6 58.6 0 0 1 .97 10.3m-3.99-24.49h-1.54a57.6 57.6 0 0 1 4.43 13.44h1.4a59 59 0 0 0-4.29-13.44m-5.98-7.81a57 57 0 0 1 4.1 7.1h1.6a58 58 0 0 0-4-7.1zm4.11 58.25a57 57 0 0 1-4.1 7.09h1.69a59 59 0 0 0 4-7.09z" opacity=".4"/><path fill="url(#b)" d="M150 67.06h-34.84a59 59 0 0 0 4-7.09l.33-.71a59.4 59.4 0 0 0 4.29-13.48c0-.24.09-.48.14-.71a60.6 60.6 0 0 0 1-10.31v-.71a60.3 60.3 0 0 0-1-10.3c0-.24-.09-.48-.14-.71a59 59 0 0 0-4.29-13.48l-.33-.71a61 61 0 0 0-4-7.1H150z" transform="translate(.265 .205)"/><path fill="url(#c)" d="M53.19 16.3h42.06v31.43H53.19z" transform="translate(.265 .205)"/><path fill="#5ac8f7" d="M53.455 45.985h42.06v1.95h-42.06zM70.975 69.025l3.51-3.51 3.51 3.51zm0-68.82 3.51 3.51 3.51-3.51z"/></g></svg>