<svg xmlns="http://www.w3.org/2000/svg" viewBox="0 0 151 98"><title>预警</title><g fill="none" fill-rule="nonzero"><path fill="#a6713c" d="M150.265 76.475h-150v-55.27h150v13l-6.21 4.83v15.93l6.21 4.88zm-149.18-.82h148.35v-15.45l-6.17-4.84v-16.74l6.2-4.84v-11.8H1.085z"/><path fill="#a6713c" d="M150.265 21.995h-150v-15l2.51-2.47 4.19-4.2.12-.12h136.35l6.83 6.83zm-149.18-.79h148.35V7.375l-6.34-6.35H7.435c-1.6 1.61-2.78 2.78-4.08 4.08l-2.27 2.27zm142.35 76.22H7.095l-6.83-6.82v-15h150v15zm-136-.82h135.66l6.35-6.34v-13.79H1.095v13.79z"/><path fill="#f7a95a" d="m15.695 80.945-7.55 11.19h15.12zm.34 9.54h-.67v-.7h.67zm-.67-1.28v-4h.67v4zM12.425.615.675 20.965v-6.25l8.14-14.1zm8.38 0-12.09 20.96h-3.61l12.1-20.96zm8.38 0-12.1 20.96h-3.59l12.1-20.96zm8.39 0-12.1 20.96h-3.6L33.965.615zm8.39 0-12.1 20.96h-3.61l12.1-20.96zm8.37 0-12.09 20.96h-3.6l12.1-20.96zm8.39 0-12.1 20.96h-3.59L59.125.615zm8.39 0-12.1 20.96h-3.61l12.1-20.96zm8.38 0-12.09 20.96h-3.61l12.1-20.96zm8.38 0-12.09 20.96h-3.6l12.1-20.96zm8.39 0-12.1 20.96h-3.6l12.1-20.96zm8.39 0-12.1 20.96h-3.61l12.1-20.96zm8.38 0-12.1 20.96h-3.6l12.1-20.96zm8.38 0-12.09 20.96h-3.6l12.09-20.96zm8.39 0-12.1 20.96h-3.6l12.1-20.96zm8.23 0-12.1 20.96h-3.45l12.1-20.96zm7.13 1.9-11 19.06h-3.45l12.1-20.96h.45zm4.68 4.69v1.45l-7.45 12.92h-3.45l9.25-16zm-2.67 14.37 2.68-4.63v4.63zm-146.5-.61v.61h-.35z"/></g></svg>