<svg xmlns="http://www.w3.org/2000/svg" xml:space="preserve" id="图层_1" x="0" y="0" viewBox="0 0 25 25"><style>.st0{fill:none;stroke:#fff;stroke-miterlimit:10}</style><path d="M25 12.5C25 19.4 19.4 25 12.5 25S0 19.4 0 12.5 5.6 0 12.5 0 25 5.6 25 12.5m-12.8 5.2 7.4 4.9M4.5 12.7l7.4 4.9M0 12.7h4.5" class="st0"/><path d="m4.5 12.7 7.3-4.8h12.4" class="st0"/><path d="m12.2 17.7 7.4-4.9v-5M19 21.7l.5.9-1-.1zm-7.6-4.9.5.9-.9-.2zM0 0" class="st0"/><path d="M12.2 13.5v8.3M4.5 8.6v8.3" style="fill:none;stroke:#fff;stroke-miterlimit:10;stroke-width:2"/></svg>