<svg xmlns="http://www.w3.org/2000/svg" xml:space="preserve" id="图层_1" x="0" y="0" viewBox="0 0 25 25"><style>.st0{fill:none;stroke:#fff;stroke-miterlimit:10}</style><path d="M25 12.5C25 19.4 19.4 25 12.5 25S0 19.4 0 12.5 5.6 0 12.5 0 25 5.6 25 12.5M5.6 4.2v16.7m1.3-14h16.7M6.9 18.1h16.7M0 12.5h5.6m1.3-6.9v2.8m0 2.7v2.8m0 2.8v2.8" class="st0"/><path d="M6.9 12.5h4.2v5.6m7-11.2V18m-1.4-6.9h2.8m-2.3 1.4.8-1.4.8 1.4zM0 0" class="st0"/><path d="m8.5 11.7-1.5.8 1.5.8zM0 0" style="fill:none;stroke:#fff;stroke-miterlimit:2"/></svg>