<svg xmlns="http://www.w3.org/2000/svg" viewBox="0 0 151 94"><title>Motor 4(发动机4)</title><defs><linearGradient id="a" x1="-.015%" x2="99.985%" y1="49.987%" y2="49.987%"><stop offset="0%" stop-color="#b7b7b7"/><stop offset="3%" stop-color="#9b9d9d"/><stop offset="7%" stop-color="#878b8b"/><stop offset="9%" stop-color="#808484"/><stop offset="20%" stop-color="#a3a6a6"/><stop offset="49%" stop-color="#f6f6f6"/><stop offset="61%" stop-color="#f3f3f3"/><stop offset="70%" stop-color="#eaeaea"/><stop offset="77%" stop-color="#dbdbdb"/><stop offset="83%" stop-color="#c5c5c5"/><stop offset="90%" stop-color="#aaa"/><stop offset="95%" stop-color="#888"/><stop offset="100%" stop-color="#666"/></linearGradient><linearGradient id="b" x1="0%" x2="100%" y1="49.949%" y2="49.949%"><stop offset="0%" stop-color="#b7b7b7"/><stop offset="3%" stop-color="#9b9d9d"/><stop offset="7%" stop-color="#878b8b"/><stop offset="9%" stop-color="#808484"/><stop offset="20%" stop-color="#a3a6a6"/><stop offset="49%" stop-color="#f6f6f6"/><stop offset="61%" stop-color="#f3f3f3"/><stop offset="70%" stop-color="#eaeaea"/><stop offset="77%" stop-color="#dbdbdb"/><stop offset="83%" stop-color="#c5c5c5"/><stop offset="90%" stop-color="#aaa"/><stop offset="95%" stop-color="#888"/><stop offset="100%" stop-color="#666"/></linearGradient><linearGradient id="c" x1="50.026%" x2="50.026%" y1="0%" y2="100%"><stop offset="0%" stop-color="#ccc"/><stop offset="1%" stop-color="#bbb"/><stop offset="3%" stop-color="#a7a7a7"/><stop offset="4%" stop-color="#a0a0a0"/><stop offset="4%" stop-color="#a0a0a0"/><stop offset="8%" stop-color="#bbb"/><stop offset="12%" stop-color="#d1d1d1"/><stop offset="16%" stop-color="#e2e2e2"/><stop offset="22%" stop-color="#ededed"/><stop offset="31%" stop-color="#f4f4f4"/><stop offset="53%" stop-color="#f6f6f6"/><stop offset="70%" stop-color="#f4f4f4"/><stop offset="78%" stop-color="#ececec"/><stop offset="84%" stop-color="#dfdfdf"/><stop offset="90%" stop-color="#cdcdcd"/><stop offset="94%" stop-color="#b5b5b5"/><stop offset="98%" stop-color="#989898"/><stop offset="100%" stop-color="#898989"/></linearGradient><linearGradient id="d" x1="50.034%" x2="50.034%" y1="100.015%" y2="0%"><stop offset="0%" stop-color="#b7b7b7"/><stop offset="3%" stop-color="#9b9d9d"/><stop offset="7%" stop-color="#878b8b"/><stop offset="9%" stop-color="#808484"/><stop offset="20%" stop-color="#a3a6a6"/><stop offset="49%" stop-color="#f6f6f6"/><stop offset="61%" stop-color="#f3f3f3"/><stop offset="70%" stop-color="#eaeaea"/><stop offset="77%" stop-color="#dbdbdb"/><stop offset="83%" stop-color="#c5c5c5"/><stop offset="90%" stop-color="#aaa"/><stop offset="95%" stop-color="#888"/><stop offset="100%" stop-color="#666"/></linearGradient><linearGradient id="e" x1="50.089%" x2="50.089%" y1="100%" y2="0%"><stop offset="0%" stop-color="#b7b7b7"/><stop offset="3%" stop-color="#9b9d9d"/><stop offset="7%" stop-color="#878b8b"/><stop offset="9%" stop-color="#808484"/><stop offset="20%" stop-color="#a3a6a6"/><stop offset="49%" stop-color="#f6f6f6"/><stop offset="61%" stop-color="#f3f3f3"/><stop offset="70%" stop-color="#eaeaea"/><stop offset="77%" stop-color="#dbdbdb"/><stop offset="83%" stop-color="#c5c5c5"/><stop offset="90%" stop-color="#aaa"/><stop offset="95%" stop-color="#888"/><stop offset="100%" stop-color="#666"/></linearGradient><linearGradient id="f" x1="0%" x2="100%" y1="50%" y2="50%"><stop offset="0%" stop-color="#b7b7b7"/><stop offset="3%" stop-color="#9b9d9d"/><stop offset="7%" stop-color="#878b8b"/><stop offset="9%" stop-color="#808484"/><stop offset="20%" stop-color="#a3a6a6"/><stop offset="49%" stop-color="#f6f6f6"/><stop offset="61%" stop-color="#f3f3f3"/><stop offset="70%" stop-color="#eaeaea"/><stop offset="77%" stop-color="#dbdbdb"/><stop offset="83%" stop-color="#c5c5c5"/><stop offset="90%" stop-color="#aaa"/><stop offset="95%" stop-color="#888"/><stop offset="100%" stop-color="#666"/></linearGradient><linearGradient id="g" x1="50.01%" x2="50.01%" y1="100%" y2="0%"><stop offset="0%" stop-color="#b7b7b7"/><stop offset="3%" stop-color="#9b9d9d"/><stop offset="7%" stop-color="#878b8b"/><stop offset="9%" stop-color="#808484"/><stop offset="20%" stop-color="#a3a6a6"/><stop offset="49%" stop-color="#f6f6f6"/><stop offset="61%" stop-color="#f3f3f3"/><stop offset="70%" stop-color="#eaeaea"/><stop offset="77%" stop-color="#dbdbdb"/><stop offset="83%" stop-color="#c5c5c5"/><stop offset="90%" stop-color="#aaa"/><stop offset="95%" stop-color="#888"/><stop offset="100%" stop-color="#666"/></linearGradient><linearGradient id="h" x1="50.01%" x2="50.01%" y1="99.107%" y2="-.893%"><stop offset="0%" stop-color="#b7b7b7"/><stop offset="3%" stop-color="#9b9d9d"/><stop offset="7%" stop-color="#878b8b"/><stop offset="9%" stop-color="#808484"/><stop offset="20%" stop-color="#a3a6a6"/><stop offset="49%" stop-color="#f6f6f6"/><stop offset="61%" stop-color="#f3f3f3"/><stop offset="70%" stop-color="#eaeaea"/><stop offset="77%" stop-color="#dbdbdb"/><stop offset="83%" stop-color="#c5c5c5"/><stop offset="90%" stop-color="#aaa"/><stop offset="95%" stop-color="#888"/><stop offset="100%" stop-color="#666"/></linearGradient><linearGradient id="i" x1="0%" x2="100%" y1="50%" y2="50%"><stop offset="0%" stop-color="#b7b7b7"/><stop offset="3%" stop-color="#9b9d9d"/><stop offset="7%" stop-color="#878b8b"/><stop offset="9%" stop-color="#808484"/><stop offset="20%" stop-color="#a3a6a6"/><stop offset="49%" stop-color="#f6f6f6"/><stop offset="61%" stop-color="#f3f3f3"/><stop offset="70%" stop-color="#eaeaea"/><stop offset="77%" stop-color="#dbdbdb"/><stop offset="83%" stop-color="#c5c5c5"/><stop offset="90%" stop-color="#aaa"/><stop offset="95%" stop-color="#888"/><stop offset="100%" stop-color="#666"/></linearGradient><linearGradient id="j" x1="50%" x2="50%" y1="100%" y2="0%"><stop offset="0%" stop-color="#b7b7b7"/><stop offset="3%" stop-color="#9b9d9d"/><stop offset="7%" stop-color="#878b8b"/><stop offset="9%" stop-color="#808484"/><stop offset="20%" stop-color="#a3a6a6"/><stop offset="49%" stop-color="#f6f6f6"/><stop offset="61%" stop-color="#f3f3f3"/><stop offset="70%" stop-color="#eaeaea"/><stop offset="77%" stop-color="#dbdbdb"/><stop offset="83%" stop-color="#c5c5c5"/><stop offset="90%" stop-color="#aaa"/><stop offset="95%" stop-color="#888"/><stop offset="100%" stop-color="#666"/></linearGradient><linearGradient id="k" x1="49.866%" x2="50.166%" y1="60.097%" y2="39.542%"><stop offset="0%" stop-color="#b7b7b7"/><stop offset="3%" stop-color="#9b9d9d"/><stop offset="7%" stop-color="#878b8b"/><stop offset="9%" stop-color="#808484"/><stop offset="20%" stop-color="#a3a6a6"/><stop offset="49%" stop-color="#f6f6f6"/><stop offset="61%" stop-color="#f3f3f3"/><stop offset="70%" stop-color="#eaeaea"/><stop offset="77%" stop-color="#dbdbdb"/><stop offset="83%" stop-color="#c5c5c5"/><stop offset="90%" stop-color="#aaa"/><stop offset="95%" stop-color="#888"/><stop offset="100%" stop-color="#666"/></linearGradient><linearGradient id="l" x1="43.321%" x2="43.775%" y1="38.59%" y2="59.145%"><stop offset="0%" stop-color="#b7b7b7"/><stop offset="3%" stop-color="#9b9d9d"/><stop offset="7%" stop-color="#878b8b"/><stop offset="9%" stop-color="#808484"/><stop offset="20%" stop-color="#a3a6a6"/><stop offset="49%" stop-color="#f6f6f6"/><stop offset="61%" stop-color="#f3f3f3"/><stop offset="70%" stop-color="#eaeaea"/><stop offset="77%" stop-color="#dbdbdb"/><stop offset="83%" stop-color="#c5c5c5"/><stop offset="90%" stop-color="#aaa"/><stop offset="95%" stop-color="#888"/><stop offset="100%" stop-color="#666"/></linearGradient><linearGradient id="m" x1="49.963%" x2="49.963%" y1=".085%" y2="100%"><stop offset="0%" stop-color="#b7b7b7"/><stop offset="3%" stop-color="#9b9d9d"/><stop offset="7%" stop-color="#878b8b"/><stop offset="9%" stop-color="#808484"/><stop offset="20%" stop-color="#a3a6a6"/><stop offset="49%" stop-color="#f6f6f6"/><stop offset="61%" stop-color="#f3f3f3"/><stop offset="70%" stop-color="#eaeaea"/><stop offset="77%" stop-color="#dbdbdb"/><stop offset="83%" stop-color="#c5c5c5"/><stop offset="90%" stop-color="#aaa"/><stop offset="95%" stop-color="#888"/><stop offset="100%" stop-color="#666"/></linearGradient><linearGradient id="n" x1=".352%" x2="100%" y1="50%" y2="50%"><stop offset="0%" stop-color="#b7b7b7"/><stop offset="3%" stop-color="#9b9d9d"/><stop offset="7%" stop-color="#878b8b"/><stop offset="9%" stop-color="#808484"/><stop offset="20%" stop-color="#a3a6a6"/><stop offset="49%" stop-color="#f6f6f6"/><stop offset="61%" stop-color="#f3f3f3"/><stop offset="70%" stop-color="#eaeaea"/><stop offset="77%" stop-color="#dbdbdb"/><stop offset="83%" stop-color="#c5c5c5"/><stop offset="90%" stop-color="#aaa"/><stop offset="95%" stop-color="#888"/><stop offset="100%" stop-color="#666"/></linearGradient></defs><g fill="none" fill-rule="nonzero" transform="translate(.008 .01)"><path fill="url(#a)" d="M66.635 35.285h66.34v37.73h-66.34z" transform="rotate(-90 99.805 54.15)"/><path fill="url(#b)" d="M132.97 43.76h14.36v19.7h-14.36z" transform="rotate(-90 140.15 53.61)"/><path fill="url(#c)" d="M34.265-5.765h19.45v31.14h-19.45z" transform="rotate(-90 43.99 9.805)"/><path fill="#a2a7a9" d="M28.31 8.72V6.9h31.25v1.82z"/><path fill="url(#d)" d="M29.76 20.49v66.83H13.38S0 87.32 0 53.91s13.38-33.42 13.38-33.42z"/><path fill="url(#e)" d="M130.3 46.27v14.55l-5.59 5.21V41.91z"/><path fill="#a2a7a9" d="M56.12 23.66H31.71l-3.29-4.16h31.14z"/><path fill="url(#f)" d="M23.545 29.875h62.17v49.74h-62.17z" transform="rotate(-90 54.63 54.745)"/><path fill="url(#g)" d="M29.76 82.69h50.09v1.12H29.76z"/><path fill="url(#g)" d="M29.76 78.04h50.09v1.12H29.76z"/><path fill="url(#g)" d="M29.76 73.4h50.09v1.12H29.76z"/><path fill="url(#g)" d="M29.76 68.75h50.09v1.12H29.76z"/><path fill="url(#g)" d="M29.76 64.11h50.09v1.12H29.76z"/><path fill="url(#g)" d="M29.76 59.46h50.09v1.12H29.76z"/><path fill="url(#g)" d="M29.76 54.81h50.09v1.12H29.76z"/><path fill="url(#g)" d="M29.76 49.61h50.09v1.12H29.76z"/><path fill="url(#g)" d="M29.76 45.13h50.09v1.12H29.76z"/><path fill="url(#h)" d="M29.76 40.74h50.09v1.12H29.76z"/><path fill="url(#g)" d="M29.76 36.17h50.09v1.12H29.76z"/><path fill="url(#g)" d="M30.13 30.61h50.09v1.12H30.13z"/><path fill="url(#g)" d="M29.76 26.15h50.09v1.12H29.76z"/><path fill="#a2a7a9" d="M84.47 87.28V20.76h1.38v66.52zM13.47 87.32V20.49h1.38v66.83zM79.51 85.81V23.67h1.44v62.14z"/><circle cx="21.39" cy="53.97" r="2.55" fill="url(#i)"/><path fill="#b0b0b1" d="m20.304 52.553 2.51 2.51-.707.708-2.51-2.51z"/><path fill="#b0b0b1" d="m22.807 52.884-2.51 2.51-.708-.707 2.51-2.51z"/><path fill="#a2a7a9" d="M105.2 52.32h13.47v3.36H105.2zM28.31 0h4.67v6.91h-4.67zm26.07 0h5.18v6.91h-5.18z"/><path fill="url(#j)" d="M118.78 24.26c-3.52 8.55-14.38 11.82-14.38 11.82h14.19z"/><path fill="url(#k)" d="m118.78 15.01-13.19 5.89 13.15.09z"/><path fill="url(#l)" d="m118.87 93.26-13.19-5.89 13.15-.09z"/><path fill="url(#m)" d="M118.87 84.17c-3.35-8.56-13.67-11.83-13.67-11.83h13.49z"/><circle cx="30.6" cy="3.64" r="1.42" fill="url(#n)"/><path fill="#b0b0b1" d="m29.992 2.857 1.393 1.393-.707.707-1.393-1.393z"/><path fill="#b0b0b1" d="M31.383 3.032 29.99 4.425l-.707-.707 1.393-1.393z"/><circle cx="57.06" cy="3.64" r="1.42" fill="url(#n)"/><path fill="#b0b0b1" d="m56.452 2.857 1.393 1.393-.707.707-1.393-1.393z"/><path fill="#b0b0b1" d="M57.843 3.032 56.45 4.425l-.707-.707 1.393-1.393z"/><path fill="#a2a7a9" d="M118.67 93.53V14.36h6.04v79.17z"/></g></svg>