<svg xmlns="http://www.w3.org/2000/svg" viewBox="0 0 150 79"><title>Motor 1(发动机1)</title><defs><linearGradient id="a" x1="50%" x2="50%" y1="100%" y2="0%"><stop offset="0%" stop-color="#b7b7b7"/><stop offset="3%" stop-color="#9b9d9d"/><stop offset="7%" stop-color="#878b8b"/><stop offset="9%" stop-color="#808484"/><stop offset="20%" stop-color="#a3a6a6"/><stop offset="49%" stop-color="#f6f6f6"/><stop offset="61%" stop-color="#f3f3f3"/><stop offset="70%" stop-color="#eaeaea"/><stop offset="77%" stop-color="#dbdbdb"/><stop offset="83%" stop-color="#c5c5c5"/><stop offset="90%" stop-color="#aaa"/><stop offset="95%" stop-color="#888"/><stop offset="100%" stop-color="#666"/></linearGradient><linearGradient id="b" x1="50.091%" x2="50.091%" y1=".045%" y2="100.045%"><stop offset="0%" stop-color="#b7b7b7"/><stop offset="3%" stop-color="#9b9d9d"/><stop offset="7%" stop-color="#878b8b"/><stop offset="9%" stop-color="#808484"/><stop offset="20%" stop-color="#a3a6a6"/><stop offset="49%" stop-color="#f6f6f6"/><stop offset="61%" stop-color="#f3f3f3"/><stop offset="70%" stop-color="#eaeaea"/><stop offset="77%" stop-color="#dbdbdb"/><stop offset="83%" stop-color="#c5c5c5"/><stop offset="90%" stop-color="#aaa"/><stop offset="95%" stop-color="#888"/><stop offset="100%" stop-color="#666"/></linearGradient><linearGradient id="c" x1="50.026%" x2="50.026%" y1="0%" y2="100%"><stop offset="0%" stop-color="#ccc"/><stop offset="1%" stop-color="#bbb"/><stop offset="3%" stop-color="#a7a7a7"/><stop offset="4%" stop-color="#a0a0a0"/><stop offset="4%" stop-color="#a0a0a0"/><stop offset="8%" stop-color="#bbb"/><stop offset="12%" stop-color="#d1d1d1"/><stop offset="16%" stop-color="#e2e2e2"/><stop offset="22%" stop-color="#ededed"/><stop offset="31%" stop-color="#f4f4f4"/><stop offset="53%" stop-color="#f6f6f6"/><stop offset="70%" stop-color="#f4f4f4"/><stop offset="78%" stop-color="#ececec"/><stop offset="84%" stop-color="#dfdfdf"/><stop offset="90%" stop-color="#cdcdcd"/><stop offset="94%" stop-color="#b5b5b5"/><stop offset="98%" stop-color="#989898"/><stop offset="100%" stop-color="#898989"/></linearGradient><linearGradient id="d" x1="50%" x2="50%" y1="0%" y2="100%"><stop offset="0%" stop-color="#b7b7b7"/><stop offset="3%" stop-color="#9b9d9d"/><stop offset="7%" stop-color="#878b8b"/><stop offset="9%" stop-color="#808484"/><stop offset="20%" stop-color="#a3a6a6"/><stop offset="49%" stop-color="#f6f6f6"/><stop offset="61%" stop-color="#f3f3f3"/><stop offset="70%" stop-color="#eaeaea"/><stop offset="77%" stop-color="#dbdbdb"/><stop offset="83%" stop-color="#c5c5c5"/><stop offset="90%" stop-color="#aaa"/><stop offset="95%" stop-color="#888"/><stop offset="100%" stop-color="#666"/></linearGradient><linearGradient id="e" x1="50%" x2="50%" y1="0%" y2="99.909%"><stop offset="0%" stop-color="#b7b7b7"/><stop offset="3%" stop-color="#9b9d9d"/><stop offset="7%" stop-color="#878b8b"/><stop offset="9%" stop-color="#808484"/><stop offset="20%" stop-color="#a3a6a6"/><stop offset="49%" stop-color="#f6f6f6"/><stop offset="61%" stop-color="#f3f3f3"/><stop offset="70%" stop-color="#eaeaea"/><stop offset="77%" stop-color="#dbdbdb"/><stop offset="83%" stop-color="#c5c5c5"/><stop offset="90%" stop-color="#aaa"/><stop offset="95%" stop-color="#888"/><stop offset="100%" stop-color="#666"/></linearGradient><linearGradient id="f" x1="0%" x2="100.017%" y1="49.986%" y2="49.986%"><stop offset="0%" stop-color="#ccc"/><stop offset="1%" stop-color="#bbb"/><stop offset="3%" stop-color="#a7a7a7"/><stop offset="4%" stop-color="#a0a0a0"/><stop offset="4%" stop-color="#a0a0a0"/><stop offset="8%" stop-color="#bbb"/><stop offset="12%" stop-color="#d1d1d1"/><stop offset="16%" stop-color="#e2e2e2"/><stop offset="22%" stop-color="#ededed"/><stop offset="31%" stop-color="#f4f4f4"/><stop offset="53%" stop-color="#f6f6f6"/><stop offset="70%" stop-color="#f4f4f4"/><stop offset="78%" stop-color="#ececec"/><stop offset="84%" stop-color="#dfdfdf"/><stop offset="90%" stop-color="#cdcdcd"/><stop offset="94%" stop-color="#b5b5b5"/><stop offset="98%" stop-color="#989898"/><stop offset="100%" stop-color="#898989"/></linearGradient><linearGradient id="g" x1="0%" x2="100.018%" y1="50%" y2="50%"><stop offset="0%" stop-color="#ccc"/><stop offset="1%" stop-color="#bbb"/><stop offset="3%" stop-color="#a7a7a7"/><stop offset="4%" stop-color="#a0a0a0"/><stop offset="4%" stop-color="#a0a0a0"/><stop offset="8%" stop-color="#bbb"/><stop offset="12%" stop-color="#d1d1d1"/><stop offset="16%" stop-color="#e2e2e2"/><stop offset="22%" stop-color="#ededed"/><stop offset="31%" stop-color="#f4f4f4"/><stop offset="53%" stop-color="#f6f6f6"/><stop offset="70%" stop-color="#f4f4f4"/><stop offset="78%" stop-color="#ececec"/><stop offset="84%" stop-color="#dfdfdf"/><stop offset="90%" stop-color="#cdcdcd"/><stop offset="94%" stop-color="#b5b5b5"/><stop offset="98%" stop-color="#989898"/><stop offset="100%" stop-color="#898989"/></linearGradient></defs><g fill="none" fill-rule="nonzero"><path fill="url(#a)" d="M57.5 24.22h63.8v49.1H57.5z" transform="translate(.008 .01)"/><path fill="url(#b)" d="M16.41 28.65h5.49v22.39h-5.49z" transform="matrix(-1 0 0 -1 38.318 79.7)"/><path fill="#b0b0b1" d="M98.328 62.37h-24.87V32.08h24.87z"/><path fill="url(#c)" d="M63.73 0h38.08v24.22H63.73z" transform="matrix(-1 0 0 -1 165.548 24.23)"/><path fill="url(#d)" d="M14.3 32.93h2.1v13.53h-2.1z" transform="matrix(-1 0 0 -1 30.708 79.4)"/><path fill="url(#e)" d="M0 34.19h14.3v10.96H0z" transform="matrix(-1 0 0 -1 14.308 79.35)"/><path fill="url(#f)" d="M9.75 31.1h59.89a.06.06 0 0 1 .06.06V66.5a.19.19 0 0 1-.19.19H9.88a.19.19 0 0 1-.19-.19V31.16a.06.06 0 0 1 .06-.06" transform="rotate(-90 39.704 48.896)"/><path fill="url(#g)" d="M108.545 34.275h54.19a.57.57 0 0 1 .57.57v27.43a.7.7 0 0 1-.7.7h-53.93a.7.7 0 0 1-.7-.7v-27.43a.57.57 0 0 1 .57-.57" transform="rotate(-90 135.649 48.626)"/><path fill="#b0b0b1" d="M63.728 4.21h38.08v1h-38.08z"/></g></svg>