<svg xmlns="http://www.w3.org/2000/svg" viewBox="0 0 151 77"><title>Motor 10(发动机10)</title><defs><linearGradient id="a" x1="-.058%" x2="99.942%" y1="49.853%" y2="49.853%"><stop offset="0%" stop-color="#b7b7b7"/><stop offset="3%" stop-color="#9b9d9d"/><stop offset="7%" stop-color="#878b8b"/><stop offset="9%" stop-color="#808484"/><stop offset="20%" stop-color="#a3a6a6"/><stop offset="49%" stop-color="#f6f6f6"/><stop offset="61%" stop-color="#f3f3f3"/><stop offset="70%" stop-color="#eaeaea"/><stop offset="77%" stop-color="#dbdbdb"/><stop offset="83%" stop-color="#c5c5c5"/><stop offset="90%" stop-color="#aaa"/><stop offset="95%" stop-color="#888"/><stop offset="100%" stop-color="#666"/></linearGradient><linearGradient id="b" x1="0%" x2="99.983%" y1="50%" y2="50%"><stop offset="0%" stop-color="#ccc"/><stop offset="1%" stop-color="#bbb"/><stop offset="3%" stop-color="#a7a7a7"/><stop offset="4%" stop-color="#a0a0a0"/><stop offset="4%" stop-color="#a0a0a0"/><stop offset="8%" stop-color="#bbb"/><stop offset="12%" stop-color="#d1d1d1"/><stop offset="16%" stop-color="#e2e2e2"/><stop offset="22%" stop-color="#ededed"/><stop offset="31%" stop-color="#f4f4f4"/><stop offset="53%" stop-color="#f6f6f6"/><stop offset="70%" stop-color="#f4f4f4"/><stop offset="78%" stop-color="#ececec"/><stop offset="84%" stop-color="#dfdfdf"/><stop offset="90%" stop-color="#cdcdcd"/><stop offset="94%" stop-color="#b5b5b5"/><stop offset="98%" stop-color="#989898"/><stop offset="100%" stop-color="#898989"/></linearGradient><linearGradient id="c" x1="0%" x2="100%" y1="50%" y2="50%"><stop offset="0%" stop-color="#a0a0a0"/><stop offset="4%" stop-color="#bbb"/><stop offset="8%" stop-color="#d1d1d1"/><stop offset="13%" stop-color="#e2e2e2"/><stop offset="20%" stop-color="#ededed"/><stop offset="29%" stop-color="#f4f4f4"/><stop offset="53%" stop-color="#f6f6f6"/><stop offset="74%" stop-color="#f4f4f4"/><stop offset="81%" stop-color="#ededed"/><stop offset="87%" stop-color="#e2e2e2"/><stop offset="91%" stop-color="#d1d1d1"/><stop offset="95%" stop-color="#bbb"/><stop offset="98%" stop-color="#a0a0a0"/><stop offset="100%" stop-color="#898989"/></linearGradient><linearGradient id="d" x1=".093%" x2="100.093%" y1="50%" y2="50%"><stop offset="0%" stop-color="#b7b7b7"/><stop offset="3%" stop-color="#9b9d9d"/><stop offset="7%" stop-color="#878b8b"/><stop offset="9%" stop-color="#808484"/><stop offset="20%" stop-color="#a3a6a6"/><stop offset="49%" stop-color="#f6f6f6"/><stop offset="61%" stop-color="#f3f3f3"/><stop offset="70%" stop-color="#eaeaea"/><stop offset="77%" stop-color="#dbdbdb"/><stop offset="83%" stop-color="#c5c5c5"/><stop offset="90%" stop-color="#aaa"/><stop offset="95%" stop-color="#888"/><stop offset="100%" stop-color="#666"/></linearGradient><linearGradient id="e" x1="49.807%" x2="49.807%" y1="100%" y2="0%"><stop offset="0%" stop-color="#b7b7b7"/><stop offset="3%" stop-color="#9b9d9d"/><stop offset="7%" stop-color="#878b8b"/><stop offset="9%" stop-color="#808484"/><stop offset="20%" stop-color="#a3a6a6"/><stop offset="49%" stop-color="#f6f6f6"/><stop offset="61%" stop-color="#f3f3f3"/><stop offset="70%" stop-color="#eaeaea"/><stop offset="77%" stop-color="#dbdbdb"/><stop offset="83%" stop-color="#c5c5c5"/><stop offset="90%" stop-color="#aaa"/><stop offset="95%" stop-color="#888"/><stop offset="100%" stop-color="#666"/></linearGradient><linearGradient id="f" x1="0%" x2="99.695%" y1="50%" y2="50%"><stop offset="0%" stop-color="#b7b7b7"/><stop offset="3%" stop-color="#9b9d9d"/><stop offset="7%" stop-color="#878b8b"/><stop offset="9%" stop-color="#808484"/><stop offset="20%" stop-color="#a3a6a6"/><stop offset="49%" stop-color="#f6f6f6"/><stop offset="61%" stop-color="#f3f3f3"/><stop offset="70%" stop-color="#eaeaea"/><stop offset="77%" stop-color="#dbdbdb"/><stop offset="83%" stop-color="#c5c5c5"/><stop offset="90%" stop-color="#aaa"/><stop offset="95%" stop-color="#888"/><stop offset="100%" stop-color="#666"/></linearGradient><linearGradient id="g" x1="0%" x2="100%" y1="50%" y2="50%"><stop offset="0%" stop-color="#b7b7b7"/><stop offset="3%" stop-color="#9b9d9d"/><stop offset="7%" stop-color="#878b8b"/><stop offset="9%" stop-color="#808484"/><stop offset="20%" stop-color="#a3a6a6"/><stop offset="49%" stop-color="#f6f6f6"/><stop offset="61%" stop-color="#f3f3f3"/><stop offset="70%" stop-color="#eaeaea"/><stop offset="77%" stop-color="#dbdbdb"/><stop offset="83%" stop-color="#c5c5c5"/><stop offset="90%" stop-color="#aaa"/><stop offset="95%" stop-color="#888"/><stop offset="100%" stop-color="#666"/></linearGradient></defs><g fill="none" fill-rule="nonzero" transform="translate(.008 .01)"><path fill="url(#a)" d="M18.55 36.81h17.11v3.41H18.55z" transform="rotate(-90 27.105 38.515)"/><path fill="#b0b0b1" d="M33.36 72.21V4.31h50.18v67.9zM83.54 74.47V2.19h40.04v72.28z"/><path fill="url(#b)" d="M107.085 25.045h59.41v26.42h-59.41z" transform="rotate(-90 136.79 38.255)"/><path fill="url(#c)" d="M80.605 18.595h45.91v40.04h-45.91z" transform="rotate(-90 103.56 38.615)"/><path fill="url(#d)" d="M7.315 25.815h10.77v25.4H7.315z" transform="rotate(-90 12.7 38.515)"/><path fill="#efefef" d="M33.99 15.4v-4.45h49.56v4.45zM33.98 22.3v-3.58h49.56v3.58zM33.98 26.73v-2.88h49.56v2.88zM33.98 30.89v-2.88h49.56v2.88zM33.98 35.48V32.6h49.56v2.88zM33.98 39.76v-2.88h49.56v2.88zM33.98 44.04v-2.88h49.56v2.88zM33.98 48.62v-2.88h49.56v2.88zM33.98 52.84v-2.88h49.56v2.88zM33.98 58.18v-3.54h49.56v3.54zM33.98 65.11v-3.54h49.56v3.54z"/><rect width="5.18" height="76.11" x="28.81" fill="url(#e)" rx=".37"/><circle cx="86.29" cy="22.15" r="1.64" fill="url(#f)"/><path fill="#b0b0b1" d="m85.584 21.237 1.612 1.612-.707.707-1.612-1.612z"/><path fill="#b0b0b1" d="m87.193 21.444-1.612 1.612-.707-.707 1.612-1.612z"/><circle cx="86.29" cy="55.95" r="1.64" fill="url(#f)"/><path fill="#b0b0b1" d="m85.594 55.037 1.612 1.612-.707.707-1.612-1.612z"/><path fill="#b0b0b1" d="m87.193 55.254-1.612 1.612-.707-.707 1.612-1.612z"/><circle cx="117.52" cy="55.95" r="1.64" fill="url(#g)"/><path fill="#b0b0b1" d="m116.817 55.04 1.612 1.612-.707.707-1.612-1.612z"/><path fill="#b0b0b1" d="m118.43 55.247-1.612 1.612-.707-.707 1.612-1.612z"/><circle cx="117.52" cy="22.15" r="1.64" fill="url(#g)"/><path fill="#b0b0b1" d="m116.817 21.24 1.612 1.612-.707.707-1.612-1.612z"/><path fill="#b0b0b1" d="m118.43 21.447-1.612 1.612-.707-.707 1.612-1.612z"/></g></svg>