<svg xmlns="http://www.w3.org/2000/svg" viewBox="0 0 151 124"><title>Motor 5(发动机5)</title><defs><linearGradient id="a" x1="50.009%" x2="50.009%" y1="100.013%" y2="0%"><stop offset="0%" stop-color="#b7b7b7"/><stop offset="3%" stop-color="#9b9d9d"/><stop offset="7%" stop-color="#878b8b"/><stop offset="9%" stop-color="#808484"/><stop offset="20%" stop-color="#a3a6a6"/><stop offset="49%" stop-color="#f6f6f6"/><stop offset="61%" stop-color="#f3f3f3"/><stop offset="70%" stop-color="#eaeaea"/><stop offset="77%" stop-color="#dbdbdb"/><stop offset="83%" stop-color="#c5c5c5"/><stop offset="90%" stop-color="#aaa"/><stop offset="95%" stop-color="#888"/><stop offset="100%" stop-color="#666"/></linearGradient><linearGradient id="b" x1="0%" x2="100%" y1="49.886%" y2="49.886%"><stop offset="0%" stop-color="#b7b7b7"/><stop offset="3%" stop-color="#9b9d9d"/><stop offset="7%" stop-color="#878b8b"/><stop offset="9%" stop-color="#808484"/><stop offset="20%" stop-color="#a3a6a6"/><stop offset="49%" stop-color="#f6f6f6"/><stop offset="61%" stop-color="#f3f3f3"/><stop offset="70%" stop-color="#eaeaea"/><stop offset="77%" stop-color="#dbdbdb"/><stop offset="83%" stop-color="#c5c5c5"/><stop offset="90%" stop-color="#aaa"/><stop offset="95%" stop-color="#888"/><stop offset="100%" stop-color="#666"/></linearGradient><linearGradient id="c" x1=".058%" x2="100.058%" y1="50%" y2="50%"><stop offset="0%" stop-color="#b7b7b7"/><stop offset="3%" stop-color="#9b9d9d"/><stop offset="7%" stop-color="#878b8b"/><stop offset="9%" stop-color="#808484"/><stop offset="20%" stop-color="#a3a6a6"/><stop offset="49%" stop-color="#f6f6f6"/><stop offset="61%" stop-color="#f3f3f3"/><stop offset="70%" stop-color="#eaeaea"/><stop offset="77%" stop-color="#dbdbdb"/><stop offset="83%" stop-color="#c5c5c5"/><stop offset="90%" stop-color="#aaa"/><stop offset="95%" stop-color="#888"/><stop offset="100%" stop-color="#666"/></linearGradient><linearGradient id="d" x1="0%" x2="100%" y1="50%" y2="50%"><stop offset="0%" stop-color="#b7b7b7"/><stop offset="3%" stop-color="#9b9d9d"/><stop offset="7%" stop-color="#878b8b"/><stop offset="9%" stop-color="#808484"/><stop offset="20%" stop-color="#a3a6a6"/><stop offset="49%" stop-color="#f6f6f6"/><stop offset="61%" stop-color="#f3f3f3"/><stop offset="70%" stop-color="#eaeaea"/><stop offset="77%" stop-color="#dbdbdb"/><stop offset="83%" stop-color="#c5c5c5"/><stop offset="90%" stop-color="#aaa"/><stop offset="95%" stop-color="#888"/><stop offset="100%" stop-color="#666"/></linearGradient><linearGradient id="e" x1="-.177%" x2="99.823%" y1="50%" y2="50%"><stop offset="0%" stop-color="#b7b7b7"/><stop offset="3%" stop-color="#9b9d9d"/><stop offset="7%" stop-color="#878b8b"/><stop offset="9%" stop-color="#808484"/><stop offset="20%" stop-color="#a3a6a6"/><stop offset="49%" stop-color="#f6f6f6"/><stop offset="61%" stop-color="#f3f3f3"/><stop offset="70%" stop-color="#eaeaea"/><stop offset="77%" stop-color="#dbdbdb"/><stop offset="83%" stop-color="#c5c5c5"/><stop offset="90%" stop-color="#aaa"/><stop offset="95%" stop-color="#888"/><stop offset="100%" stop-color="#666"/></linearGradient><linearGradient id="f" x1="50.007%" x2="50.007%" y1="100%" y2="-.714%"><stop offset="0%" stop-color="#b7b7b7"/><stop offset="3%" stop-color="#9b9d9d"/><stop offset="7%" stop-color="#878b8b"/><stop offset="9%" stop-color="#808484"/><stop offset="20%" stop-color="#a3a6a6"/><stop offset="49%" stop-color="#f6f6f6"/><stop offset="61%" stop-color="#f3f3f3"/><stop offset="70%" stop-color="#eaeaea"/><stop offset="77%" stop-color="#dbdbdb"/><stop offset="83%" stop-color="#c5c5c5"/><stop offset="90%" stop-color="#aaa"/><stop offset="95%" stop-color="#888"/><stop offset="100%" stop-color="#666"/></linearGradient><linearGradient id="g" x1="50.007%" x2="50.007%" y1="100%" y2="0%"><stop offset="0%" stop-color="#b7b7b7"/><stop offset="3%" stop-color="#9b9d9d"/><stop offset="7%" stop-color="#878b8b"/><stop offset="9%" stop-color="#808484"/><stop offset="20%" stop-color="#a3a6a6"/><stop offset="49%" stop-color="#f6f6f6"/><stop offset="61%" stop-color="#f3f3f3"/><stop offset="70%" stop-color="#eaeaea"/><stop offset="77%" stop-color="#dbdbdb"/><stop offset="83%" stop-color="#c5c5c5"/><stop offset="90%" stop-color="#aaa"/><stop offset="95%" stop-color="#888"/><stop offset="100%" stop-color="#666"/></linearGradient><linearGradient id="h" x1="50.007%" x2="50.007%" y1="99.286%" y2="-.714%"><stop offset="0%" stop-color="#b7b7b7"/><stop offset="3%" stop-color="#9b9d9d"/><stop offset="7%" stop-color="#878b8b"/><stop offset="9%" stop-color="#808484"/><stop offset="20%" stop-color="#a3a6a6"/><stop offset="49%" stop-color="#f6f6f6"/><stop offset="61%" stop-color="#f3f3f3"/><stop offset="70%" stop-color="#eaeaea"/><stop offset="77%" stop-color="#dbdbdb"/><stop offset="83%" stop-color="#c5c5c5"/><stop offset="90%" stop-color="#aaa"/><stop offset="95%" stop-color="#888"/><stop offset="100%" stop-color="#666"/></linearGradient><linearGradient id="i" x1="50.021%" x2="50.021%" y1="0%" y2="100%"><stop offset="0%" stop-color="#ccc"/><stop offset="1%" stop-color="#bbb"/><stop offset="3%" stop-color="#a7a7a7"/><stop offset="4%" stop-color="#a0a0a0"/><stop offset="4%" stop-color="#a0a0a0"/><stop offset="8%" stop-color="#bbb"/><stop offset="12%" stop-color="#d1d1d1"/><stop offset="16%" stop-color="#e2e2e2"/><stop offset="22%" stop-color="#ededed"/><stop offset="31%" stop-color="#f4f4f4"/><stop offset="53%" stop-color="#f6f6f6"/><stop offset="70%" stop-color="#f4f4f4"/><stop offset="78%" stop-color="#ececec"/><stop offset="84%" stop-color="#dfdfdf"/><stop offset="90%" stop-color="#cdcdcd"/><stop offset="94%" stop-color="#b5b5b5"/><stop offset="98%" stop-color="#989898"/><stop offset="100%" stop-color="#898989"/></linearGradient><linearGradient id="j" x1="0%" x2="100%" y1="50.152%" y2="50.152%"><stop offset="0%" stop-color="#b7b7b7"/><stop offset="3%" stop-color="#9b9d9d"/><stop offset="7%" stop-color="#878b8b"/><stop offset="9%" stop-color="#808484"/><stop offset="20%" stop-color="#a3a6a6"/><stop offset="49%" stop-color="#f6f6f6"/><stop offset="61%" stop-color="#f3f3f3"/><stop offset="70%" stop-color="#eaeaea"/><stop offset="77%" stop-color="#dbdbdb"/><stop offset="83%" stop-color="#c5c5c5"/><stop offset="90%" stop-color="#aaa"/><stop offset="95%" stop-color="#888"/><stop offset="100%" stop-color="#666"/></linearGradient><linearGradient id="k" x1="49.96%" x2="49.96%" y1="0%" y2="100%"><stop offset="0%" stop-color="#ccc"/><stop offset="1%" stop-color="#bbb"/><stop offset="3%" stop-color="#a7a7a7"/><stop offset="4%" stop-color="#a0a0a0"/><stop offset="4%" stop-color="#a0a0a0"/><stop offset="8%" stop-color="#bbb"/><stop offset="12%" stop-color="#d1d1d1"/><stop offset="16%" stop-color="#e2e2e2"/><stop offset="22%" stop-color="#ededed"/><stop offset="31%" stop-color="#f4f4f4"/><stop offset="53%" stop-color="#f6f6f6"/><stop offset="70%" stop-color="#f4f4f4"/><stop offset="78%" stop-color="#ececec"/><stop offset="84%" stop-color="#dfdfdf"/><stop offset="90%" stop-color="#cdcdcd"/><stop offset="94%" stop-color="#b5b5b5"/><stop offset="98%" stop-color="#989898"/><stop offset="100%" stop-color="#898989"/></linearGradient></defs><g fill="none" fill-rule="nonzero" transform="translate(.008 .01)"><path fill="url(#a)" d="M116.94 33.72v76.89H14.77S0 110.61 0 72.17s14.77-38.45 14.77-38.45z"/><path fill="url(#b)" d="M101.23 68.8h35.99v4.39h-35.99z" transform="rotate(-90 119.225 70.995)"/><path fill="url(#c)" d="M127.045 56.925h17.33v28.58h-17.33z" transform="rotate(-90 135.71 71.215)"/><path fill="url(#d)" d="M115.81 36.32h5.64v3.36h-5.64z" transform="rotate(-90 118.63 38)"/><path fill="url(#e)" d="M115.81 59.34h5.64v3.36h-5.64z" transform="rotate(-90 118.63 61.02)"/><path fill="url(#d)" d="M115.81 81.63h5.64v3.36h-5.64z" transform="rotate(-90 118.63 83.31)"/><path fill="url(#e)" d="M115.81 104.43h5.64v3.36h-5.64z" transform="rotate(-90 118.63 106.11)"/><path fill="#a2a7a9" d="M32.01 97.26V41.62h1.34v55.64zM107.95 110.39V33.72h1.86v76.67z"/><path fill="url(#f)" d="M34.54 106.55h69.19v1.4H34.54z"/><path fill="url(#g)" d="M34.54 100.73h69.19v1.4H34.54z"/><path fill="url(#h)" d="M34.54 94.92h69.19v1.4H34.54z"/><path fill="url(#f)" d="M34.54 89.1h69.19v1.4H34.54z"/><path fill="url(#g)" d="M34.54 83.28h69.19v1.4H34.54z"/><path fill="url(#h)" d="M34.54 77.47h69.19v1.4H34.54z"/><path fill="url(#f)" d="M34.54 71.65h69.19v1.4H34.54z"/><path fill="url(#g)" d="M34.54 65.13h69.19v1.4H34.54z"/><path fill="url(#g)" d="M34.54 59.52h69.19v1.4H34.54z"/><path fill="url(#g)" d="M34.54 54.02h69.19v1.4H34.54z"/><path fill="url(#g)" d="M34.54 48.3h69.19v1.4H34.54z"/><path fill="url(#g)" d="M34.54 41.34h69.19v1.4H34.54z"/><path fill="url(#f)" d="M34.54 35.76h69.19v1.4H34.54z"/><path fill="url(#i)" d="M74.295-8.235h23.57v40.7h-23.57a.66.66 0 0 1-.66-.66v-39.38a.66.66 0 0 1 .66-.66" transform="rotate(-90 85.75 12.115)"/><path fill="#a2a7a9" d="M67.89 24.23h36.23v1.39H67.89z"/><rect width="44.38" height="3.29" x="63.57" y="6.06" fill="url(#j)" rx=".41"/><rect width="44.38" height="3.29" x="63.56" y="10.09" fill="#a2a7a9" rx=".41"/><path fill="url(#k)" d="M79.8 13.72h12.41v36.23H79.8z" transform="rotate(-90 86.005 31.835)"/><path fill="#efefef" d="M37.03 123.53v-18.14h65.48v18.14z"/><path fill="#a2a7a9" d="M37.02 119.61v-9.21h65.35v9.21z"/></g></svg>