<svg xmlns="http://www.w3.org/2000/svg" viewBox="0 0 151 111"><title>Pneumatic brake(空气制动器)</title><defs><linearGradient id="a" x1="50%" x2="50%" y1="100%" y2="0%"><stop offset="0%" stop-color="#b7b7b7"/><stop offset="3%" stop-color="#9b9d9d"/><stop offset="7%" stop-color="#878b8b"/><stop offset="9%" stop-color="#808484"/><stop offset="20%" stop-color="#a3a6a6"/><stop offset="49%" stop-color="#f6f6f6"/><stop offset="61%" stop-color="#f3f3f3"/><stop offset="70%" stop-color="#eaeaea"/><stop offset="77%" stop-color="#dbdbdb"/><stop offset="83%" stop-color="#c5c5c5"/><stop offset="90%" stop-color="#aaa"/><stop offset="95%" stop-color="#888"/><stop offset="100%" stop-color="#666"/></linearGradient><linearGradient id="b" x1="50.02%" x2="50.02%" y1="100%" y2="0%"><stop offset="0%" stop-color="#e2e2e2"/><stop offset="3%" stop-color="#d0d0d0"/><stop offset="6%" stop-color="#bcbcbc"/><stop offset="9%" stop-color="#b5b5b5"/><stop offset="49%" stop-color="#f6f6f6"/><stop offset="63%" stop-color="#f3f3f3"/><stop offset="73%" stop-color="#eaeaea"/><stop offset="82%" stop-color="#dbdbdb"/><stop offset="90%" stop-color="#c6c6c6"/><stop offset="97%" stop-color="#aaa"/><stop offset="100%" stop-color="#9b9b9b"/></linearGradient><linearGradient id="c" x1="0%" x2="100%" y1="50%" y2="50%"><stop offset="0%" stop-color="#b7b7b7"/><stop offset="3%" stop-color="#9b9d9d"/><stop offset="7%" stop-color="#878b8b"/><stop offset="9%" stop-color="#808484"/><stop offset="20%" stop-color="#a3a6a6"/><stop offset="49%" stop-color="#f6f6f6"/><stop offset="61%" stop-color="#f3f3f3"/><stop offset="70%" stop-color="#eaeaea"/><stop offset="77%" stop-color="#dbdbdb"/><stop offset="83%" stop-color="#c5c5c5"/><stop offset="90%" stop-color="#aaa"/><stop offset="95%" stop-color="#888"/><stop offset="100%" stop-color="#666"/></linearGradient><linearGradient id="d" x1="0%" x2="100.067%" y1="49.989%" y2="49.989%"><stop offset="0%" stop-color="#b7b7b7"/><stop offset="3%" stop-color="#9b9d9d"/><stop offset="7%" stop-color="#878b8b"/><stop offset="9%" stop-color="#808484"/><stop offset="20%" stop-color="#a3a6a6"/><stop offset="49%" stop-color="#f6f6f6"/><stop offset="61%" stop-color="#f3f3f3"/><stop offset="70%" stop-color="#eaeaea"/><stop offset="77%" stop-color="#dbdbdb"/><stop offset="83%" stop-color="#c5c5c5"/><stop offset="90%" stop-color="#aaa"/><stop offset="95%" stop-color="#888"/><stop offset="100%" stop-color="#666"/></linearGradient><linearGradient id="e" x1="0%" x2="100%" y1="49.975%" y2="49.975%"><stop offset="0%" stop-color="#b7b7b7"/><stop offset="3%" stop-color="#9b9d9d"/><stop offset="7%" stop-color="#878b8b"/><stop offset="9%" stop-color="#808484"/><stop offset="20%" stop-color="#a3a6a6"/><stop offset="49%" stop-color="#f6f6f6"/><stop offset="61%" stop-color="#f3f3f3"/><stop offset="70%" stop-color="#eaeaea"/><stop offset="77%" stop-color="#dbdbdb"/><stop offset="83%" stop-color="#c5c5c5"/><stop offset="90%" stop-color="#aaa"/><stop offset="95%" stop-color="#888"/><stop offset="100%" stop-color="#666"/></linearGradient><linearGradient id="f" x1="50%" x2="50%" y1="0%" y2="100%"><stop offset="0%" stop-color="#b7b7b7"/><stop offset="3%" stop-color="#9b9d9d"/><stop offset="7%" stop-color="#878b8b"/><stop offset="9%" stop-color="#808484"/><stop offset="20%" stop-color="#a3a6a6"/><stop offset="49%" stop-color="#f6f6f6"/><stop offset="61%" stop-color="#f3f3f3"/><stop offset="70%" stop-color="#eaeaea"/><stop offset="77%" stop-color="#dbdbdb"/><stop offset="83%" stop-color="#c5c5c5"/><stop offset="90%" stop-color="#aaa"/><stop offset="95%" stop-color="#888"/><stop offset="100%" stop-color="#666"/></linearGradient><linearGradient id="g" x1="0%" x2="100%" y1="50.076%" y2="50.076%"><stop offset="0%" stop-color="#b7b7b7"/><stop offset="3%" stop-color="#9b9d9d"/><stop offset="7%" stop-color="#878b8b"/><stop offset="9%" stop-color="#808484"/><stop offset="20%" stop-color="#a3a6a6"/><stop offset="49%" stop-color="#f6f6f6"/><stop offset="61%" stop-color="#f3f3f3"/><stop offset="70%" stop-color="#eaeaea"/><stop offset="77%" stop-color="#dbdbdb"/><stop offset="83%" stop-color="#c5c5c5"/><stop offset="90%" stop-color="#aaa"/><stop offset="95%" stop-color="#888"/><stop offset="100%" stop-color="#666"/></linearGradient><linearGradient id="h" x1="0%" x2="100%" y1="49.924%" y2="49.924%"><stop offset="0%" stop-color="#b7b7b7"/><stop offset="3%" stop-color="#9b9d9d"/><stop offset="7%" stop-color="#878b8b"/><stop offset="9%" stop-color="#808484"/><stop offset="20%" stop-color="#a3a6a6"/><stop offset="49%" stop-color="#f6f6f6"/><stop offset="61%" stop-color="#f3f3f3"/><stop offset="70%" stop-color="#eaeaea"/><stop offset="77%" stop-color="#dbdbdb"/><stop offset="83%" stop-color="#c5c5c5"/><stop offset="90%" stop-color="#aaa"/><stop offset="95%" stop-color="#888"/><stop offset="100%" stop-color="#666"/></linearGradient><linearGradient id="i" x1=".073%" x2="100.073%" y1="50.076%" y2="50.076%"><stop offset="0%" stop-color="#b7b7b7"/><stop offset="3%" stop-color="#9b9d9d"/><stop offset="7%" stop-color="#878b8b"/><stop offset="9%" stop-color="#808484"/><stop offset="20%" stop-color="#a3a6a6"/><stop offset="49%" stop-color="#f6f6f6"/><stop offset="61%" stop-color="#f3f3f3"/><stop offset="70%" stop-color="#eaeaea"/><stop offset="77%" stop-color="#dbdbdb"/><stop offset="83%" stop-color="#c5c5c5"/><stop offset="90%" stop-color="#aaa"/><stop offset="95%" stop-color="#888"/><stop offset="100%" stop-color="#666"/></linearGradient><linearGradient id="j" x1="0%" x2="100%" y1="50.076%" y2="50.076%"><stop offset="0%" stop-color="#b7b7b7"/><stop offset="3%" stop-color="#9b9d9d"/><stop offset="7%" stop-color="#878b8b"/><stop offset="9%" stop-color="#808484"/><stop offset="20%" stop-color="#a3a6a6"/><stop offset="49%" stop-color="#f6f6f6"/><stop offset="61%" stop-color="#f3f3f3"/><stop offset="70%" stop-color="#eaeaea"/><stop offset="77%" stop-color="#dbdbdb"/><stop offset="83%" stop-color="#c5c5c5"/><stop offset="90%" stop-color="#aaa"/><stop offset="95%" stop-color="#888"/><stop offset="100%" stop-color="#666"/></linearGradient><linearGradient id="k" x1="49.891%" x2="49.891%" y1="100%" y2="0%"><stop offset="0%" stop-color="#b7b7b7"/><stop offset="3%" stop-color="#9b9d9d"/><stop offset="7%" stop-color="#878b8b"/><stop offset="9%" stop-color="#808484"/><stop offset="20%" stop-color="#a3a6a6"/><stop offset="49%" stop-color="#f6f6f6"/><stop offset="61%" stop-color="#f3f3f3"/><stop offset="70%" stop-color="#eaeaea"/><stop offset="77%" stop-color="#dbdbdb"/><stop offset="83%" stop-color="#c5c5c5"/><stop offset="90%" stop-color="#aaa"/><stop offset="95%" stop-color="#888"/><stop offset="100%" stop-color="#666"/></linearGradient></defs><g fill="none" fill-rule="nonzero" transform="translate(.008 .01)"><path fill="url(#a)" d="M92.5 0v110.71H11.68S0 110.71 0 55.35 11.68 0 11.68 0z"/><path fill="url(#b)" d="M20.34 0H71.5v110.71H20.34z"/><path fill="url(#c)" d="M84.745 52.175h29.77v5.96h-29.77z" transform="rotate(-90 99.63 55.155)"/><path fill="url(#d)" d="M118.855 31.465h14.9v47.39h-14.9z" transform="rotate(-90 126.305 55.16)"/><path fill="url(#e)" d="M108.57 45.26h19.93v19.93h-19.93z" transform="rotate(-90 118.535 55.225)"/><path fill="url(#f)" d="M137.535 61.405h8.56v10.97h-8.56z" transform="rotate(-90 141.815 66.89)"/><path fill="#efefef" d="M71.51 9.11V0H92.5v9.11zM71.51 29.5v-9.11H92.5v9.11zM71.5 49.81V40.7h20.99v9.11zM71.51 70.12v-9.11H92.5v9.11zM71.5 90.94v-9.11h20.99v9.11zM71.5 110.73v-9.11h20.99v9.11z"/><rect width="13.61" height="6.61" x="21.71" y="8.31" fill="url(#g)" rx=".68" transform="rotate(-90 28.515 11.615)"/><rect width="13.61" height="6.61" x="38.44" y="8.31" fill="url(#h)" rx=".68" transform="rotate(-90 45.245 11.615)"/><rect width="13.61" height="6.61" x="55.16" y="8.31" fill="url(#g)" rx=".68" transform="rotate(-90 61.965 11.615)"/><rect width="13.61" height="6.61" x="21.71" y="38.19" fill="url(#g)" rx=".68" transform="rotate(-90 28.515 41.495)"/><rect width="13.61" height="6.61" x="38.44" y="38.19" fill="url(#h)" rx=".68" transform="rotate(-90 45.245 41.495)"/><rect width="13.61" height="6.61" x="55.16" y="38.2" fill="url(#i)" rx=".68" transform="rotate(-90 61.965 41.505)"/><rect width="13.61" height="6.61" x="21.71" y="66.73" fill="url(#j)" rx=".68" transform="rotate(-90 28.515 70.035)"/><rect width="13.61" height="6.61" x="38.43" y="66.73" fill="url(#g)" rx=".68" transform="rotate(-90 45.235 70.035)"/><rect width="13.61" height="6.61" x="55.16" y="66.74" fill="url(#i)" rx=".68" transform="rotate(-90 61.965 70.045)"/><rect width="13.61" height="6.61" x="21.71" y="96.94" fill="url(#i)" rx=".68" transform="rotate(-90 28.515 100.245)"/><rect width="13.61" height="6.61" x="38.43" y="96.93" fill="url(#j)" rx=".68" transform="rotate(-90 45.235 100.235)"/><rect width="13.61" height="6.61" x="55.16" y="96.94" fill="url(#i)" rx=".68" transform="rotate(-90 61.965 100.245)"/><path fill="url(#k)" d="M92.5 7h4.59v98.08H92.5z"/></g></svg>