<svg xmlns="http://www.w3.org/2000/svg" viewBox="0 0 150 91"><title>充-放电控制器</title><defs><linearGradient id="a" x1="0%" x2="100%" y1="49.994%" y2="49.994%"><stop offset="0%" stop-color="#1e275f"/><stop offset="5%" stop-color="#374991"/><stop offset="7%" stop-color="#4157a5"/><stop offset="21%" stop-color="#4a63b7"/><stop offset="39%" stop-color="#526ec6"/><stop offset="60%" stop-color="#5774cf"/><stop offset="90%" stop-color="#5876d2"/><stop offset="90%" stop-color="#5c7bda"/><stop offset="91%" stop-color="#607fe1"/><stop offset="92%" stop-color="#6180e3"/><stop offset="93%" stop-color="#5b78d7"/><stop offset="95%" stop-color="#4a62b6"/><stop offset="98%" stop-color="#2e3e81"/><stop offset="100%" stop-color="#141c4e"/></linearGradient><linearGradient id="b" x1="50%" x2="50%" y1="100%" y2="0%"><stop offset="0%" stop-color="#0d1045"/><stop offset="3%" stop-color="#11144c"/><stop offset="14%" stop-color="#1d2162"/><stop offset="25%" stop-color="#24296f"/><stop offset="34%" stop-color="#272c74"/><stop offset="37%" stop-color="#252a70"/><stop offset="62%" stop-color="#161b55"/><stop offset="84%" stop-color="#0d1144"/><stop offset="100%" stop-color="#0a0e3e"/></linearGradient></defs><g fill="none" fill-rule="nonzero"><path fill="url(#a)" d="M150 8.94v72.71a8.93 8.93 0 0 1-8.94 8.94H8.94A8.93 8.93 0 0 1 0 81.65V8.94A8.94 8.94 0 0 1 8.94 0h132.12A8.94 8.94 0 0 1 150 8.94"/><path fill="#f2f4fe" d="M14.61 7.91h120.77v56.7H14.61z"/><circle cx="38.5" cy="73.41" r="3.58" fill="#101549"/><path fill="#f3f4fd" d="M40.56 71.35a2.9 2.9 0 0 1 .21 3.89 3.4 3.4 0 0 1-.44.44 2.92 2.92 0 0 1-4.1-4.1l.21-.23.23-.21a2.92 2.92 0 0 1 3.89.21"/><path fill="#a8b2e5" d="m36.67 71.14 4.1 4.1a3.4 3.4 0 0 1-.44.44l-4.1-4.1.21-.23z"/><circle cx="53.1" cy="73.41" r="3.58" fill="#101549"/><path fill="#f3f4fd" d="M55.16 71.35a2.9 2.9 0 0 1 .21 3.89 3.4 3.4 0 0 1-.44.44 2.92 2.92 0 0 1-4.1-4.1l.21-.23.23-.21a2.92 2.92 0 0 1 3.89.21"/><path fill="#a8b2e5" d="m51.27 71.14 4.1 4.1a3.4 3.4 0 0 1-.44.44l-4.1-4.1.21-.23z"/><circle cx="96.9" cy="73.41" r="3.58" fill="#101549"/><path fill="#f3f4fd" d="M99 71.35a2.92 2.92 0 0 1 .21 3.89 2 2 0 0 1-.21.23 1.5 1.5 0 0 1-.23.21 2.92 2.92 0 0 1-4.1-4.1 1.5 1.5 0 0 1 .21-.23l.23-.21a2.92 2.92 0 0 1 3.89.21"/><path fill="#a8b2e5" d="m95.07 71.14 4.1 4.1a2 2 0 0 1-.21.23 1.5 1.5 0 0 1-.23.21l-4.1-4.1a1.5 1.5 0 0 1 .21-.23z"/><circle cx="111.5" cy="73.41" r="3.58" fill="#101549"/><path fill="#f3f4fd" d="M111.5 70.5a2.92 2.92 0 0 1 2.9 2.6v.31q.015.155 0 .31a2.91 2.91 0 0 1-5.79 0 2.92 2.92 0 0 1 2.89-3.22"/><path fill="#a8b2e5" d="M108.6 73.1h5.8v.31q.015.155 0 .31h-5.8a2.4 2.4 0 0 1 0-.62"/><circle cx="67.7" cy="73.41" r="3.58" fill="#101549"/><path fill="#f3f4fd" d="M65.64 71.35a2.92 2.92 0 0 0-.21 3.89q.097.122.21.23.104.117.23.21a2.92 2.92 0 0 0 4.1-4.1l-.21-.23-.23-.21a2.92 2.92 0 0 0-3.89.21"/><path fill="#a8b2e5" d="m69.53 71.14-4.1 4.1q.097.122.21.23.104.117.23.21l4.1-4.1-.21-.23z"/><circle cx="82.3" cy="73.41" r="3.58" fill="#101549"/><path fill="#f3f4fd" d="M80.24 71.35a2.92 2.92 0 0 0-.24 3.89q.097.122.21.23.105.117.23.21a2.92 2.92 0 0 0 4.1-4.1l-.21-.23-.23-.21a2.92 2.92 0 0 0-3.86.21"/><path fill="#a8b2e5" d="M84.13 71.14 80 75.24q.097.122.21.23.105.117.23.21l4.1-4.1-.21-.23z"/><circle cx="45.86" cy="17.1" r="2.68" fill="#8f6"/><circle cx="75" cy="17.1" r="2.68" fill="#8f6"/><circle cx="104.14" cy="17.1" r="2.68" fill="#8f6"/><path fill="#5672cd" d="M42.49 22.41c-.05.19-.13.48-.18.6a4.3 4.3 0 0 1-.72.1A1.17 1.17 0 0 1 40.26 22a1.27 1.27 0 0 1 1.4-1.2q.347.005.68.1c0 .18 0 .35.07.55h-.06c-.1-.41-.35-.57-.81-.57a1 1 0 0 0-1 1A1 1 0 0 0 41.56 23a.88.88 0 0 0 .87-.64zm.15.59c.22 0 .26-.07.26-.29V21c0-.23 0-.24-.27-.29a2 2 0 0 0 .44-.12v1.22a.8.8 0 0 1 .55-.28c.28 0 .48.18.48.59v.6c0 .22 0 .27.26.29h-.7c.24 0 .27-.07.27-.31v-.49c0-.34-.1-.52-.44-.52a.6.6 0 0 0-.42.21v.8c0 .24 0 .29.28.31h-.71zM45.6 23.1a.4.4 0 0 1-.11-.07.34.34 0 0 1-.08-.16 1 1 0 0 1-.43.23.41.41 0 0 1-.42-.41c0-.16.12-.27.36-.35q.256-.07.49-.19c0-.17 0-.48-.32-.48-.06 0-.25 0-.31.3a.09.09 0 0 1-.08.06.12.12 0 0 1-.11-.12.15.15 0 0 1 .1-.13 2 2 0 0 1 .5-.25.4.4 0 0 1 .4.43v.77c0 .15 0 .2.13.2a.4.4 0 0 0 .16 0v.06zm-.19-.86c-.07 0-.3.13-.38.16s-.25.13-.25.26a.27.27 0 0 0 .27.28.52.52 0 0 0 .36-.18zM46 23c.22 0 .25-.07.25-.29V22c0-.26 0-.28-.24-.31a1.3 1.3 0 0 0 .42-.15V22c.09-.19.28-.42.46-.42a.18.18 0 0 1 .17.15.15.15 0 0 1-.12.14.19.19 0 0 0-.15-.08c-.09 0-.23.16-.32.42v.59c0 .22 0 .26.31.28H46zM48.33 21.74a.45.45 0 0 1 .12.3.56.56 0 0 1-.59.55h-.12c-.09 0-.21.11-.21.19s.08.13.22.13h.42c.25 0 .51.08.51.4a.83.83 0 0 1-.86.69c-.39 0-.61-.23-.61-.46a.44.44 0 0 1 .07-.21 2.6 2.6 0 0 1 .32-.33c-.15 0-.31-.16-.3-.31a1 1 0 0 0 .33-.18.49.49 0 0 1-.32-.43.59.59 0 0 1 .89-.5 3 3 0 0 0 .48-.06.6.6 0 0 1-.16.15zm-.92 1.69a.45.45 0 0 0 .51.41c.41 0 .59-.22.59-.47a.33.33 0 0 0-.15-.27.9.9 0 0 0-.42-.06c-.51-.04-.53.33-.53.39m.12-1.43c0 .33.16.51.38.51s.33-.11.33-.42-.13-.5-.38-.5-.33.15-.33.41m2.54.79a.84.84 0 0 1-.54.31.68.68 0 0 1-.68-.72.84.84 0 0 1 .72-.85.52.52 0 0 1 .53.51c0 .07 0 .08-.06.09s-.52.05-1 .06c0 .55.32.74.57.74a.55.55 0 0 0 .43-.2zm-1-.71h.74c.09 0 .09 0 .09-.06a.38.38 0 0 0-.41-.38c-.2-.01-.38.15-.44.44zm21.17 2.46c.32 0 .34-.07.34-.35v-1.43c0-.27 0-.34-.32-.35v-.05h.87c.49 0 .69.18.69.49a.56.56 0 0 1-.46.5.64.64 0 0 1 .61.58.58.58 0 0 1-.34.54 1.5 1.5 0 0 1-.68.12h-.71zm.8-1.21c.39 0 .56-.17.56-.45s-.06-.45-.58-.45h-.2v.89zm-.26.08v.79c0 .24 0 .31.33.31s.62-.13.62-.53-.28-.57-.7-.57zm2.51 1.22a.25.25 0 0 1-.19-.23.87.87 0 0 1-.43.23.4.4 0 0 1-.42-.4c0-.16.11-.28.36-.35a3.4 3.4 0 0 0 .49-.19c0-.18 0-.49-.33-.49 0 0-.25 0-.31.3a.08.08 0 0 1-.08.06.11.11 0 0 1-.1-.12c0-.05 0-.09.1-.13a2 2 0 0 1 .5-.24.39.39 0 0 1 .4.43v.77c0 .14 0 .2.13.2a.25.25 0 0 0 .15 0v.06zm-.19-.85-.38.16c-.16.06-.26.13-.26.26 0 .155.125.28.28.28a.57.57 0 0 0 .36-.18zM74.39 24.59a.24.24 0 0 1-.15 0c-.2 0-.29-.14-.29-.38v-1h-.26l.09-.07H74v-.2l.12-.24h.05v.45h.43a.08.08 0 0 1 0 .07h-.4v.93c0 .29.09.35.21.35a.54.54 0 0 0 .25-.07v.05zm.99 0a.24.24 0 0 1-.15 0c-.2 0-.29-.14-.29-.38v-1h-.26l.09-.07h.18v-.2l.12-.24v.45h.43a.08.08 0 0 1 0 .07h-.4v.93c0 .29.09.35.21.35a.54.54 0 0 0 .25-.07v.05zM76.94 24.32a.8.8 0 0 1-.53.31.68.68 0 0 1-.69-.71.83.83 0 0 1 .72-.85.52.52 0 0 1 .53.5c0 .07 0 .08-.06.09a8 8 0 0 1-1 .07c0 .54.32.74.57.74a.58.58 0 0 0 .43-.2zm-1-.7h.74c.09 0 .09 0 .09-.05a.38.38 0 0 0-.41-.38c-.19-.02-.36.14-.44.43zM77.18 24.54c.22 0 .25-.06.25-.29v-.7c0-.26 0-.28-.24-.3v-.05a1.1 1.1 0 0 0 .42-.15v.44c.09-.19.28-.42.46-.42a.17.17 0 0 1 .17.15.14.14 0 0 1-.12.13.17.17 0 0 0-.14-.07c-.1 0-.24.16-.33.42v.58c0 .22 0 .27.31.28v.05h-.74zm1.09-1.43h.65v.05c-.12 0-.18 0-.18.12a.2.2 0 0 0 0 .09l.39.95a6 6 0 0 0 .4-1c0-.09-.06-.11-.21-.13v-.05H80v.05c-.2 0-.22.07-.33.25s-.23.48-.53 1.09q-.244.448-.41.93a.09.09 0 0 1-.1.07.16.16 0 0 1-.16-.14c0-.05 0-.08.09-.12a1.45 1.45 0 0 0 .44-.69q-.18-.57-.42-1.12c-.08-.18-.1-.24-.32-.27zm22.89 1.43c.23 0 .26-.06.26-.28v-1.67c0-.25 0-.28-.25-.3a1.8 1.8 0 0 0 .43-.12v2.13c0 .22 0 .27.26.28v.05h-.7zM103.64 23.82a.79.79 0 0 1-.79.81.76.76 0 0 1-.79-.74.81.81 0 0 1 .79-.82.76.76 0 0 1 .79.75m-1.36-.05c0 .46.24.78.62.78s.52-.19.52-.67a.67.67 0 0 0-.61-.73.55.55 0 0 0-.53.62m2.72.86a.25.25 0 0 1-.19-.23.86.86 0 0 1-.44.23.4.4 0 0 1-.41-.4c0-.16.11-.28.36-.35a4 4 0 0 0 .49-.19c0-.18 0-.49-.33-.49-.06 0-.25 0-.31.3a.08.08 0 0 1-.08.06.12.12 0 0 1-.11-.12c0-.05 0-.09.1-.13a1.9 1.9 0 0 1 .51-.24.39.39 0 0 1 .39.43v.77c0 .14.06.2.13.2a.3.3 0 0 0 .16 0v.06zm-.19-.85-.38.16c-.16.06-.26.13-.26.26 0 .155.125.28.28.28a.57.57 0 0 0 .36-.18zm1.58-1.53a2 2 0 0 0 .47-.12v2.1c0 .17 0 .21.16.22h.13a2.6 2.6 0 0 0-.46.12v-.25l-.21.11a1 1 0 0 1-.37.14.7.7 0 0 1-.68-.72.88.88 0 0 1 .94-.84 1.3 1.3 0 0 1 .32 0v-.53c0-.24 0-.25-.3-.28zm.3 1.11a.58.58 0 0 0-.47-.19.57.57 0 0 0-.58.65.6.6 0 0 0 .59.65.78.78 0 0 0 .46-.19zM48.78 54.84h2.57v1h-2.57zm-16.47 0h2.57v1h-2.57z"/><path fill="#5672cd" d="M33.38 53.78h1v2.57h-1z"/><path fill="#e1e5fd" d="M44.46 57.92h-7.24l2.48-9.24h7.23z"/><path fill="#5672cd" d="M44.63 58.15h-7.7l2.6-9.69h7.7zm-7.12-.45h6.78l2.35-8.79h-6.77z"/><path fill="#5672cd" d="M38.93 51.31h7.24v1h-7.24zm-.94 3.53h7.24v1h-7.24z"/><path fill="#5672cd" d="m39.337 57.864 2.47-9.246.967.258-2.47 9.246zM41.91 57.87l2.47-9.246.967.258-2.47 9.246z"/><path fill="#e1e5fd" d="M70.61 50.06h8.77v6.3h-8.77z"/><path fill="#5672cd" d="M79.61 56.58h-9.22v-6.75h9.22zm-8.77-.45h8.32v-5.85h-8.32zM81.95 54.84h2.57v1h-2.57zm-16.47 0h2.57v1h-2.57z"/><path fill="#5672cd" d="M66.54 53.78h1v2.57h-1z"/><path fill="#e1e5fd" d="M71.76 50.1V49"/><path fill="#5672cd" d="M71.54 49h1v1.1h-1z"/><path fill="#e1e5fd" d="M78.24 49v1.1"/><path fill="#5672cd" d="M78.02 49h1v1.1h-1zm31.18 5.84h2.57v1h-2.57zm-12.61 0h2.57v1h-2.57z"/><path fill="#5672cd" d="M97.66 53.78h1v2.57h-1z"/><path fill="#e1e5fd" d="M106.82 49.88a2.68 2.68 0 1 0-4.61 1.86c.298.29.47.685.48 1.1V54h2.9v-1.13a1.7 1.7 0 0 1 .49-1.15 2.64 2.64 0 0 0 .74-1.84"/><path fill="#5672cd" d="M105.81 54.23h-3.35v-1.39a1.4 1.4 0 0 0-.42-1 2.9 2.9 0 0 1 1.41-4.83 2.9 2.9 0 0 1 3.55 2.87 2.9 2.9 0 0 1-.79 2 1.46 1.46 0 0 0-.44 1zm-2.9-.44h2.45v-.92a1.9 1.9 0 0 1 .56-1.3 2.44 2.44 0 0 0-.25-3.61 2.5 2.5 0 0 0-2.12-.47 2.45 2.45 0 0 0-1.18 4.09c.336.335.529.786.54 1.26z"/><path fill="#e1e5fd" d="M102.69 54.82h2.9v.57a1.42 1.42 0 0 1-1.42 1.42h-.05a1.42 1.42 0 0 1-1.42-1.42v-.57z"/><path fill="#5672cd" d="M104.16 57a1.65 1.65 0 0 1-1.65-1.65v-.8h3.35v.8a1.65 1.65 0 0 1-1.7 1.65m-1.25-2v.35a1.2 1.2 0 0 0 2.4 0V55z"/><path fill="url(#b)" d="M148.76 86.2a9 9 0 0 1-7.7 4.39H8.94a8.94 8.94 0 0 1-7.7-4.39 8.34 8.34 0 0 1 7.13-3.99h133.26a8.34 8.34 0 0 1 7.13 3.99"/></g></svg>