<svg xmlns="http://www.w3.org/2000/svg" viewBox="0 0 84 150"><title>高压线铁塔</title><g fill="#3a4197" fill-rule="nonzero"><path d="M11.9 147.01h60.2V150H11.9z"/><path d="m54.42 112.87 9.82 36.53-2.17.58-9.82-36.53zm-26.53 0-9.82 36.53 2.17.58 9.82-36.53zM0 75.75h84v2.99H0z"/><path d="M81.38 78.36H2.51l25.67-23.82h25.61zM8.22 76.12h67.13L53 56.78H29.06z"/><path d="M28.62 149.73V18.47h2.25v131.26zM19.46 77.24v-14.5h2.25v14.5zM60.59 77.24v-14.5h2.25v14.5z"/><path d="M0 38.56h84v2.99H0z"/><path d="M81.38 41.17H2.51l25.67-23.82h25.61zM8.22 38.93h67.13L53 19.59H29.06z"/><path d="M19.45 40.05v-14.5h2.25v14.5zM.06 48.56v-8.51h2.25v8.51zM81.75 48.56v-8.51H84v8.51zM.06 85.75v-8.51h2.25v8.51zM81.75 85.76v-8.51H84v8.51zM60.58 40.05v-14.5h2.25v14.5zM51.12 149.73V18.47h2.25v131.26z"/><path d="m53.37 124.68-23.46 23.39-1.14-1.13 23.47-23.39z"/><path d="m28.77 124.68 23.47 23.39 1.13-1.13-23.46-23.39z"/><path d="m53.37 101.75-23.46 23.39-1.14-1.14 23.47-23.39z"/><path d="m28.77 101.75 23.47 23.39 1.13-1.14-23.46-23.39z"/><path d="m53.37 78.15-23.46 23.39-1.14-1.13 23.47-23.39z"/><path d="m28.77 78.15 23.47 23.39 1.13-1.13-23.46-23.39z"/><path d="M53.37 55.35 29.91 78.74l-1.14-1.14 23.47-23.39z"/><path d="m28.77 55.35 23.47 23.39 1.13-1.14-23.46-23.39zm24.6-36.42L29.91 41.61l-1.14-1.1 23.47-22.69z"/><path d="m28.77 18.93 23.47 22.68 1.13-1.1-23.46-22.69zm7.79-1.13-.64-.38 9.21-15.63.65.38z"/><path d="M45.58 17.8 36.36 2.17l.65-.38 9.22 15.63z"/><path d="M47.37 19.59h-12.6V0h12.6zM37 17.35h8.1V2.24H37z"/></g></svg>