<svg xmlns="http://www.w3.org/2000/svg" xml:space="preserve" id="图层_1" x="0" y="0" viewBox="0 0 20.1 25"><style>.st0{fill:none;stroke:#fff;stroke-miterlimit:10}</style><path d="M20.1 12.9C20.1 18.5 15.6 23 10 23S0 18.5 0 12.9s4.5-10 10.1-10c5.5 0 10 4.5 10 10m-10-10v2.9M17.2 0l-2.9 2.9m5.8-.6-2.9 2.9" class="st0"/><path d="M7.2 25v-2.6c0-1 .5-2 1.4-2.5s2-.5 2.9 0 1.4 1.5 1.4 2.5V25m1.5-23v.9h.9zm2.8 2.3v.9h.9zM0 0" class="st0"/><path d="M7.2 5.7h5.7M6.5 20.1l1.4-1.4h4.3l1.4 1.4" style="fill:none;stroke:#fff;stroke-miterlimit:10;stroke-width:2"/></svg>