<svg xmlns="http://www.w3.org/2000/svg" xml:space="preserve" viewBox="0 0 32 32"><path d="M30.5 14.9s-.6 1.8-1.8 3.7c-1 1.6-2.7 3.6-4.8 3.8-1.2.1-2.5-.3-3.8-1.3q-2.4-1.95-5.1-6.3c-1.5-2.5-2.9-4.2-4.3-5.3C9.4 8.4 8.1 8 6.8 8.2c-1.1.1-2.2.8-3.1 1.9-.7.8-1.4 1.9-2 3.3-1 2.2-1.5 4.4-1.6 4.5l1.5.3s.5-2.1 1.5-4.2c1.5-3.3 3-4.2 4-4.3.9-.1 1.8.2 2.8 1 1.2 1 2.5 2.6 3.9 4.9 1.8 3.1 3.6 5.3 5.4 6.7 1.5 1.1 2.9 1.7 4.3 1.7h.5c1.2-.1 2.4-.7 3.5-1.6.9-.7 1.7-1.7 2.4-2.9 1.3-2 1.9-3.9 1.9-4z" style="fill:#fff"/></svg>