<svg xmlns="http://www.w3.org/2000/svg" xml:space="preserve" viewBox="0 0 32 32"><path d="M0 29h32v1.5H0zm32-9.6v-1.5H17.6l.4-.5-1.2-1-.2.3v-3.3c1.2-.3 2.1-1.3 2.1-2.6V4.2c0-1.5-1.2-2.7-2.7-2.7s-2.7 1.2-2.7 2.7v6.7c0 1.3.9 2.4 2.1 2.6v3.3l-.2-.3-1.2 1 .4.5H0v1.5h15.4v1H0V22h15.4v.8H0v1.5h15.4v1.2l-.2-.3-1.2 1 .4.5H0v1.5h32v-1.5H17.6l.4-.5-1.2-1-.2.3v-1.2H32v-1.5H16.6V22H32v-1.5H16.6v-1H32zm-17.6-8.5V4.2c0-.9.7-1.6 1.6-1.6s1.6.7 1.6 1.6v6.7c0 .9-.7 1.6-1.6 1.6s-1.6-.7-1.6-1.6" style="fill:#fff"/></svg>