<svg xmlns="http://www.w3.org/2000/svg" xml:space="preserve" id="图层_1" x="0" y="0" viewBox="0 0 32 32"><style>.st0{fill:#fff}</style><path d="M14 16.7h.1zm.6.1c.1 0 .2.1.2.1-.1 0-.1 0-.2-.1" class="st0"/><path d="M25.4 16.7c0-2.5-1-4.9-2.8-6.7-.3-.3-.5-.5-.8-.7V-.1h-1.2v8.5c-1.2-.7-2.6-1.1-4-1.2V-.1h-1.2v7.3c-1.4.1-2.8.5-4 1.2V-.1h-1.2v9.3c-.3.2-.6.5-.8.7-1.8 1.8-2.8 4.2-2.8 6.7s1 4.9 2.8 6.7c.3.3.5.5.8.7v7.9h1.2v-7c1.2.7 2.6 1.1 4 1.2V32h1.2v-5.9c1.4-.1 2.8-.5 4-1.2V32h1.2v-7.9c.3-.2.5-.5.8-.7 1.9-1.8 2.8-4.1 2.8-6.7m-4.7 4.8c-1.3 1.3-2.9 2-4.7 2s-3.5-.7-4.7-2c-1.3-1.3-2-2.9-2-4.7s.7-3.5 2-4.7c1.3-1.3 2.9-2 4.7-2s3.5.7 4.7 2c1.3 1.3 2 2.9 2 4.7s-.7 3.4-2 4.7m-9.3 2v-.4c1.2.8 2.5 1.4 4 1.5v.3c-1.5-.1-2.8-.6-4-1.4m5.2 1.4v-.3c1.5-.1 2.9-.6 4-1.5v.4c-1.1.8-2.5 1.3-4 1.4m5.3-2.9c1.3-1.5 2.1-3.3 2.1-5.3 0-2.1-.8-4.1-2.3-5.6s-3.5-2.3-5.6-2.3-4.1.8-5.6 2.3-2.3 3.5-2.3 5.6c0 2 .7 3.9 2.1 5.3v.4C8.8 20.9 8 18.8 8 16.7c0-2.2.9-4.3 2.4-5.8.3-.3.7-.6 1.1-.9h.1v-.1c1.4-.9 3-1.4 4.6-1.4 1.7 0 3.3.5 4.6 1.4h.1c.4.3.8.6 1.1.9 1.6 1.6 2.4 3.6 2.4 5.8s-.8 4.2-2.3 5.7z" class="st0"/><path d="m20.2 19.3-.2.4c-.2.2-.3.4-.5.4s-.6-.3-1-.9c-.2-.3-.7-1.2-1.4-1-.8.1-1.1 1.3-1.2 1.5l.7.2c.1-.5.4-.9.5-1 .1 0 .3.1.6.7.5.9 1 1.3 1.6 1.3h.1c.9-.1 1.3-1.2 1.3-1.4zm-5.7 0q.9-.3.9-1.2c0-.5-.2-.9-.6-1.1-.1-.1-.2-.1-.3-.2h.1c-.1-.1-.3-.1-.5-.1h.1-.5.2-.3c-.4 0-.8.1-1.1.1v.6c.3-.1.8-.1 1.1-.1.8 0 1.1.2 1.1.8s-.5.9-1.4.9h-.4v.5h.8c.2 0 .3 0 .4.1.1 0 .1 0 .2.1.1 0 .1.1.2.1l.2.2.1.1c0 .1 0 .2.1.3v.1c0 .6-.4.9-1.4.9-.4 0-.8 0-1.2-.1v.7c.3.1.7.1 1.2.1 1.3 0 2-.5 2-1.5 0-.8-.3-1.2-1-1.3m-.1 2s.1 0 0 0c.1 0 0 0 0 0m.2-1.4s.1 0 0 0c.1 0 0 0 0 0m2.9-8.1v4.1h.7v-4.7h-1l-1.2 3h-.1l-1.2-3h-1v4.7h.7v-4.1l1.2 3.1h.7z" class="st0"/></svg>