<svg xmlns="http://www.w3.org/2000/svg" xml:space="preserve" id="图层_1" x="0" y="0" viewBox="0 0 32 32"><style>.st0{fill:#fff}</style><path d="M5.9 6.8c.5-1 1-1.6 1.5-1.7.6-.1 1.5.8 2.4 2.4.8 1.4 1.7 2.4 2.5 3.1.7.5 1.4.8 2.1.8h.3c1.1-.1 2.1-.9 2.9-2.2.6-.9.9-1.8.9-1.8l-1.4-.5s-.3.8-.8 1.5c-.4.6-1 1.4-1.8 1.5-.4 0-.9-.1-1.4-.5-.7-.5-1.4-1.4-2.1-2.6-.7-1.1-1.3-1.9-2-2.4s-1.4-.7-2-.6c-1 .2-1.9 1-2.6 2.5-.5 1-.7 2-.7 2l1.5.3c.1-.1.3-1 .7-1.8" class="st0"/><path d="M31.8 0H0v31.8h1.4l.2.2.1-.1h30.1zm-2.7 1.5L1.5 29.9V1.5zm-26 28.9 27.2-28V23l-6.2-.1v1.5l6.2.1v5.9z" class="st0"/><path d="M15 18.9h6.8v1.5H15zm5.8 6.4v-3.4h-1.5v3.4c0 .5-.4 1-1 1-.5 0-1-.4-1-1v-3.4h-1.5v3.4c0 .9.5 1.7 1.3 2.1H15v1.5h6.8v-1.5h-2.2c.7-.4 1.2-1.2 1.2-2.1" class="st0"/></svg>