<svg xmlns="http://www.w3.org/2000/svg" xml:space="preserve" id="图层_1" x="0" y="0" viewBox="0 0 32 32"><style>.st0{fill:#fff}</style><path d="M26.8 26.2c-.5.5-1.3 1.2-2.1 1.1-.4 0-.8-.3-1.3-.8-.6-.6-1.1-1.7-1.6-3s-.9-2.2-1.5-2.8-1.2-1-1.9-1c-1 0-2.1.6-3 2-.7.9-1.1 1.8-1.1 1.9l1.4.6s.4-.8 1-1.6c.6-.9 1.3-1.4 1.8-1.4.7 0 1.4 1.1 2 2.8.6 1.5 1.2 2.7 1.9 3.5s1.4 1.2 2.3 1.3h.2c1 0 2.1-.6 3.1-1.6.7-.8 1.2-1.6 1.2-1.7l-1.3-.7c0 .1-.5.8-1.1 1.4M3 6.4h15.7v1.5H3zm6 5.8h2.5v1.5H9z" class="st0"/><path d="M.1.1v31.8h31.8V.1zm29.3 1.5L18.6 12.5v-.3H15v1.5h2.4l-15.9 16V1.6zM2.9 30.4 30.4 2.8v27.7H2.9z" class="st0"/><path d="M3 12.2h3.6v1.5H3z" class="st0"/></svg>