<svg xmlns="http://www.w3.org/2000/svg" xml:space="preserve" id="图层_1" x="0" y="0" viewBox="0 0 32 32"><style>.st0{fill:#fff}</style><path d="M2.5 21.1.7 19.2l-.7.7 1.8 1.9-1 1 5.3 2.9-2.8-5.4zm.7.1.8 1.5-1.1-1.2zm.5 2-1.1-.6.5-.6zm-2-.5.5-.5 1.3 1.4.7-.7.8 1.5zm4-4.1-1.8-1.9-.8.7L5 19.3l-1 .9 5.3 2.9-2.8-5.3zm.7 0 .8 1.5L6.1 19zm.5 2L5.7 20l.5-.5zm-2-.5.5-.5L6.6 21l.7-.7.8 1.5zm17.7-5.9h-1.1v10.5h1.1v-4.8h3.5v-1.1h-3.5z" class="st0"/><path d="M10.1 5.1V27H32V5.1zM31 25.9H11.2V6.1H31z" class="st0"/><path d="M20.2 22.1h1v-5.5h-1v2.2H16v1.1h4.2zm1.3-9.6c.7 0 1.2-.1 1.5-.2V9.8h-1.6v.6h1v1.5c-.2.1-.6.1-.8.1-.6 0-1-.1-1.2-.4-.3-.3-.4-.8-.4-1.6s.1-1.3.4-1.6.7-.4 1.3-.4c.5 0 .9.1 1.2.2v-.5c-.3-.1-.8-.2-1.3-.2-.8 0-1.3.2-1.7.5-.4.4-.6 1.1-.6 2-.1 2.1.8 2.5 2.2 2.5" class="st0"/></svg>