<svg xmlns="http://www.w3.org/2000/svg" xml:space="preserve" id="图层_1" x="0" y="0" viewBox="0 0 32 32"><style>.st0{fill:#fff}</style><path d="M16.1 18.4c0 1.9 1.1 3.5 2.6 4.2V27c0 .2.2.4.4.4s.4-.2.4-.4v-4c.4.1.8.2 1.3.2.7 0 1.4-.2 2-.4v4.3c0 .2.2.4.4.4s.4-.2.4-.4v-4.6c0-.1 0-.1-.1-.2 1.2-.9 2-2.3 2-3.9 0-.2-.2-.4-.4-.4h-8.7c-.1 0-.3.2-.3.4m8.6.4c-.2 2-1.9 3.5-3.9 3.5s-3.7-1.5-3.9-3.5z" class="st0"/><path d="M0 0v32h32V0zm30.4 30.4H1.6V1.6h28.8z" class="st0"/><path d="M7.1 24.8c1.1 0 2.1-.5 2.8-1.2h.1v-.1c.6-.7.9-1.5.9-2.5 0-.9-.4-1.8-.9-2.5v-.1h-.1c-.7-.8-1.7-1.2-2.8-1.2-2.1 0-3.8 1.7-3.8 3.8s1.8 3.8 3.8 3.8m-1.7-1.3 2-2 1.8 1.8c-.5.5-1.3.8-2.1.8-.6 0-1.2-.2-1.7-.6m4.3-.8L7.9 21l1.7-1.7c.3.5.5 1.1.5 1.7.1.6-.1 1.2-.4 1.7m-.5-4-1.8 1.8-2-2c.5-.3 1.1-.5 1.7-.5.8-.1 1.6.2 2.1.7m-4.3.2 2 2.1-2 2c-.5-.5-.8-1.3-.8-2.1 0-.7.3-1.4.8-2m6.6-13.1h.9v7.1h-.9zm6.4 2.4L15 13.3h5.7zm-1.5 4.3 1.4-2.6 1.4 2.6z" class="st0"/></svg>