<svg xmlns="http://www.w3.org/2000/svg" xml:space="preserve" id="图层_1" x="0" y="0" viewBox="0 0 32 32"><style>.st0{fill:#fff}</style><path d="m25.6 16.6 1.4-4h-.6l-1.1 3.5-1.2-3.5h-.5l1.3 4zM20.4 27h.5l2.7-4.9h-.5zm1.2-3.6c0-1-.4-1.3-1-1.3s-1 .3-1 1.3.4 1.3 1 1.3 1-.3 1-1.3m-1.5 0c0-.7.1-.9.5-.9s.5.2.5.9c0 .8-.1 1-.5 1-.4-.1-.5-.3-.5-1m-12.2-1v.5l1.2-.2V27h.6v-4.9h-.4zm15.5 2c-.6 0-1 .3-1 1.3s.4 1.3 1 1.3 1-.3 1-1.3-.4-1.3-1-1.3m0 2.3c-.4 0-.5-.2-.5-1 0-.7.1-.9.5-.9s.5.2.5.9c0 .8-.1 1-.5 1m-9.8-2.2c.5-.2.9-.5.9-1.1 0-.9-.5-1.3-1.6-1.3-.4 0-.8.1-1 .1v.5c.3-.1.7-.1 1-.1.7 0 1 .2 1 .8 0 .5-.4.9-1.3.9h-.4v.5h.4c.9 0 1.4.2 1.4.9s-.5.9-1.3.9c-.4 0-.7 0-1.1-.1v.5h1.1c1.3 0 1.9-.5 1.9-1.4 0-.6-.3-1-1-1.1m-.8-8.2c0-.3-.1-.4-.4-.4s-.4 0-.4.4c0 .3.1.4.4.4s.4-.1.4-.4m-.2-9.4c1 0 1.5-.4 1.5-1.4V2.9h-.5v2.6c0 .8-.2 1-1 1-.7 0-1-.2-1-1V2.9h-.5v2.7c0 1 .5 1.4 1.5 1.3m-2.7 9.8c.8 0 1.4-.4 1.4-2.1s-.5-2.1-1.4-2.1c-.8 0-1.4.4-1.4 2.1.1 1.7.6 2.1 1.4 2.1m0-3.7c.6 0 .8.3.8 1.6s-.3 1.6-.8 1.6c-.6 0-.8-.3-.8-1.6s.3-1.6.8-1.6m-2 2.3c0-.9-.5-1.2-1.5-1.2h-.5l.2-1.1h1.5v-.5H5.7l-.3 2c.3 0 .6-.1.8-.1q1.2 0 1.2.9c0 .7-.4.9-1.1.9-.3 0-.5 0-.8-.1v.5c.3.1.5.1.8.1.9 0 1.6-.4 1.6-1.4m5.9 1c0 .3.1.4.4.4s.4 0 .4-.4c0-.3-.1-.4-.4-.4s-.4.1-.4.4" class="st0"/><path d="M3.4 0v32h25.1V0zm23.7 30.5H4.9v-29H27v29z" class="st0"/><path d="M20.5 14.6c0 1.7.6 2.1 1.4 2.1s1.4-.4 1.4-2.1-.6-2.1-1.4-2.1c-.9 0-1.4.5-1.4 2.1m1.3-1.6c.6 0 .8.3.8 1.6s-.3 1.6-.8 1.6c-.6 0-.8-.3-.8-1.6s.3-1.6.8-1.6m-.5-6.9-2.5-.9 2.5-1v-.5l-2.8 1.1v.7l2.8 1.1zm-4.2 9.4c0 .8.5 1.1 1.4 1.1s1.4-.3 1.4-1.1c0-.6-.3-.9-.7-1 .4-.2.6-.4.6-.9 0-.6-.4-1.1-1.2-1.1-.9 0-1.2.4-1.2 1.1q0 .75.6.9c-.5.2-.9.4-.9 1m.6-1.9c0-.5.2-.7.8-.7.5 0 .8.3.8.7s-.2.7-.8.7c-.6.1-.8-.3-.8-.7m.8 1.1c.6 0 .9.2.9.8 0 .4-.3.7-.9.7s-.9-.3-.9-.7c0-.5.3-.8.9-.8M17.1 27c1 0 1.6-.5 1.6-2.5S18 22 17.1 22c-1 0-1.6.5-1.6 2.5s.7 2.5 1.6 2.5m0-4.4c.7 0 1 .4 1 2 0 1.5-.3 2-1 2s-1-.4-1-2c.1-1.6.4-2 1-2m-1.1-6c.3 0 .4 0 .4-.4 0-.3-.1-.4-.4-.4s-.4 0-.4.4.1.4.4.4" class="st0"/></svg>