<svg xmlns="http://www.w3.org/2000/svg" xml:space="preserve" id="图层_1" x="0" y="0" viewBox="0 0 32 32"><style>.st0{fill:#fff}</style><path d="M20.8 18.2c-.3 0-.6.1-.7.3q-.15-.3-.6-.3t-.6.3v-.3h-.5v2.3h.5V19c.1-.3.2-.3.5-.3s.4.1.4.5v1.4h.5V19c.1-.3.2-.4.5-.4s.4.1.4.5v1.4h.5V19c-.1-.5-.3-.8-.9-.8m-4.2-.6h-.9v2.9h.5v-.9h.4c.8 0 1.1-.3 1.1-1 .1-.7-.2-1-1.1-1m0 1.6h-.3v-1.1h.3c.5 0 .6.1.6.5q0 .6-.6.6" class="st0"/><path d="M31.1 11.8c-.5-1.3-1.3-2.4-2.3-3.4s-2.1-1.8-3.4-2.3c-1.3-.6-2.7-.8-4.2-.8-1.4 0-2.8.3-4.2.8-1.3.5-2.4 1.3-3.4 2.3s-1.8 2.1-2.3 3.4c-.5 1.2-.8 2.4-.8 3.7h-3l-1.1-1.1-.7.7.3.4H0v1h6.1l-.4.4.7.7 1.1-1.1h3.1c.1 1.3.3 2.5.8 3.7.5 1.3 1.3 2.4 2.3 3.4s2.1 1.8 3.4 2.3c1.3.6 2.7.8 4.2.8 1.4 0 2.9-.3 4.2-.8s2.4-1.3 3.4-2.3 1.8-2.1 2.3-3.4c.6-1.3.8-2.7.8-4.2s-.3-2.8-.9-4.2m-3 11.1c-1.8 1.8-4.3 2.8-6.9 2.8s-5-1-6.9-2.8c-1.8-1.8-2.8-4.3-2.8-6.9s1-5 2.8-6.9c1.8-1.8 4.3-2.8 6.9-2.8s5 1 6.9 2.8C30 11 31 13.4 31 16s-1 5-2.9 6.9" class="st0"/><path d="M26.8 18.3h-.6l-.5.8-.5-.8h-.6l.7 1.1-.8 1.2h.6l.6-.9.5.9h.6l-.8-1.2zm-3.6-.1h-.5v.4h.5c.4 0 .5.1.5.4v.1H23c-.6 0-.9.2-.9.7s.3.7.8.7c.4 0 .6-.1.8-.3l.1.3h.5V19c-.2-.5-.4-.8-1.1-.8m.4 1.7q-.15.3-.6.3c-.3 0-.4-.1-.4-.3 0-.3.1-.3.5-.3h.5zm-.5-11.2h-.5l-.5 2.3-.5-2H21l-.5 2h-.1L20 8.7h-.6l.6 3h.7l.5-2h.1l.5 2h.7z" class="st0"/></svg>