<svg xmlns="http://www.w3.org/2000/svg" xml:space="preserve" id="图层_1" x="0" y="0" viewBox="0 0 32 32"><style>.st0{fill:#fff}</style><path d="M14.1 19.4h.8v3.4h-.8zm.4-1.4c-.4 0-.4 0-.4.4s.1.4.4.4.4-.1.4-.4-.1-.4-.4-.4m-2.2 2.8c-.5-.1-.6-.2-.6-.4 0-.3.2-.4.6-.4.3 0 .7.1.8.1v-.6c-.2-.1-.5-.1-.9-.1-.9 0-1.3.4-1.3 1s.2.8.9 1c.6.1.7.2.7.5s-.2.4-.6.4c-.3 0-.7-.1-1-.2v.7c.3.1.7.1 1 .1.8 0 1.3-.3 1.3-1 .1-.7-.1-1-.9-1.1m-3.1-2.4h.8v4.3h-.8zm18.5-.3-.1-.1c-.3-.2-.8-.4-1.4-.1-.8.4-1.2 1.4-1.5 3.2 0-.2 0-.6.2-1.1.2-.6.5-1.2.5-1.2l-1-.5s-.3.7-.5 1.4c-.3 1.1-.3 2 .2 2.4.1.1.3.3.6.4v.8h1.1v-.9c.3-.1.6-.2 1-.3h.2s.5-.4.9-1.1c.5-.9.6-1.9.1-2.8zm-1 2.3c-.2.4-.5.7-.6.8-.1 0-.2.1-.3.1.1-.6.2-1 .3-1.4.2-.7.5-.9.6-.9h.2c.1.4.1.8-.2 1.4M17.3 9.5h.9l-1.6-4.3h-1.1l-1.6 4.3h.8l.4-1.1h1.8zm-2-1.8.7-1.8.6 1.8z" class="st0"/><path d="M30.7 9.8c-.8-1.9-2-3.6-3.4-5.1s-3.2-2.6-5.1-3.4C20.2.5 18.2 0 16 0s-4.2.4-6.2 1.3c-1.9.8-3.6 2-5.1 3.4S2.1 7.9 1.3 9.8c-.8 2-1.3 4-1.3 6.2s.4 4.2 1.3 6.2c.8 1.9 2 3.6 3.4 5.1s3.2 2.6 5.1 3.4c2 .8 4.1 1.3 6.2 1.3 2.2 0 4.2-.4 6.2-1.3 1.9-.8 3.6-2 5.1-3.4s2.6-3.2 3.4-5.1c.8-2 1.3-4.1 1.3-6.2s-.5-4.2-1.3-6.2m-1.4 11.8c-.7 1.7-1.8 3.3-3.1 4.6s-2.9 2.4-4.6 3.1c-1.8.8-3.7 1.1-5.6 1.1s-3.8-.4-5.6-1.1c-1.7-.7-3.3-1.8-4.6-3.1s-2.4-2.9-3.1-4.6C1.9 19.8 1.5 18 1.5 16s.4-3.8 1.1-5.6c.7-1.7 1.8-3.3 3.1-4.6s2.9-2.4 4.6-3.1c1.9-.8 3.7-1.2 5.7-1.2s3.8.4 5.6 1.1c1.7.7 3.3 1.8 4.6 3.1s2.4 2.9 3.1 4.6c.8 1.8 1.1 3.7 1.1 5.6s-.3 3.9-1.1 5.7" class="st0"/><path d="M22.7 19.4h-.9l-.7 1.2-.8-1.2h-.9l1.1 1.7-1.1 1.7h.9l.7-1.3h.1l.7 1.3h1L21.6 21zm-5-.1c-.5 0-.9.1-1.1.5v-.4h-.8v3.4h.8v-2.2c.1-.4.4-.5.8-.5.5 0 .6.2.6.7v2.1h.8v-2.3c0-.8-.3-1.3-1.1-1.3" class="st0"/></svg>