<svg xmlns="http://www.w3.org/2000/svg" xml:space="preserve" id="图层_1" x="0" y="0" viewBox="0 0 32 32"><style>.st0{fill:#fff}</style><path d="M27.7 16.1c.1-.5.4-.7 1-.7h.1v-.7h-.1c-.3 0-.8.1-1 .6v-.5h-.8v3.4h.8zM7.6 18.2l.8-2.9.7 2.9h1.1l1-4.4h-.9l-.7 3.4-.7-2.9h-1l-.7 2.9-.7-3.4h-.9l1 4.4zm16.8 0c1.2 0 1.6-.5 1.6-1.8s-.5-1.8-1.6-1.8c-1.2 0-1.6.5-1.6 1.8s.5 1.8 1.6 1.8m-.8-1.7c0-.9.2-1.1.8-1.1s.8.3.8 1.1c0 .9-.2 1.1-.8 1.1s-.8-.3-.8-1.1m.7 1.1q-.15 0 0 0-.15 0 0 0m-.3-.1c-.1 0-.1-.1 0 0-.1-.1-.1 0 0 0m1-.1-.1.1zm-.3.2s-.1 0 0 0c-.1 0 0 0 0 0m.5-.5v.1z" class="st0"/><path d="M16.8 7.6H0v16.8h32V7.6zm-1.5 15.3H1.5V9.1h13.8zm15.2 0H16.8V9.1h13.8v13.8z" class="st0"/><path d="M20.1 18.2h1l1.5-4.4h-.9l-1.1 3.4-1.1-3.4h-.9l1.4 4.3z" class="st0"/></svg>