<svg xmlns="http://www.w3.org/2000/svg" xml:space="preserve" id="图层_1" x="0" y="0" viewBox="0 0 32 32"><style>.st0{fill:#fff}</style><path d="M14.7 12.2h2.6L16 8.4z" class="st0"/><path d="M12.6 13.7H15v14.5h1.5V13.7h2.9L16 3.7zm1.1-.7L16 6.1l2.3 6.9z" class="st0"/><path d="M30.7 9.8c-.8-1.9-2-3.6-3.4-5.1s-3.2-2.6-5.1-3.4C20.2.5 18.2 0 16 0s-4.2.4-6.2 1.3c-1.9.8-3.6 2-5.1 3.4S2.1 7.9 1.3 9.8c-.8 2-1.3 4-1.3 6.2s.4 4.2 1.3 6.2c.8 1.9 2 3.6 3.4 5.1s3.2 2.6 5.1 3.4c2 .8 4.1 1.3 6.2 1.3 2.2 0 4.2-.4 6.2-1.3 1.9-.8 3.6-2 5.1-3.4s2.6-3.2 3.4-5.1c.8-2 1.3-4.1 1.3-6.2s-.5-4.2-1.3-6.2m-1.4 11.8c-.7 1.7-1.8 3.3-3.1 4.6s-2.9 2.4-4.6 3.1c-1.8.8-3.7 1.1-5.6 1.1s-3.8-.4-5.6-1.1c-1.7-.7-3.3-1.8-4.6-3.1s-2.4-2.9-3.1-4.6C1.9 19.8 1.5 18 1.5 16s.4-3.8 1.1-5.6c.7-1.7 1.8-3.3 3.1-4.6s2.9-2.4 4.6-3.1c1.9-.8 3.7-1.2 5.7-1.2s3.8.4 5.6 1.1c1.7.7 3.3 1.8 4.6 3.1s2.4 2.9 3.1 4.6c.8 1.8 1.1 3.7 1.1 5.6s-.3 3.9-1.1 5.7" class="st0"/></svg>