<svg xmlns="http://www.w3.org/2000/svg" xml:space="preserve" id="图层_1" x="0" y="0" viewBox="0 0 32 32"><style>.st0{fill:#fff}</style><path d="M10 21.2H8.6v4.4h.8v-1.4h.6c1.2 0 1.6-.4 1.6-1.5 0-1.2-.5-1.5-1.6-1.5m-.6.7h.4c.6 0 .9.2.9.8s-.2.8-.9.8h-.4zm6.5.2c-.5 0-.8.2-1 .5-.2-.3-.4-.5-.9-.5-.4 0-.7.1-.9.4v-.4h-.8v3.4h.8v-2.3c.1-.4.3-.5.7-.5s.5.2.5.7v2.1h.7v-2.3c.1-.4.3-.5.7-.5s.5.2.5.7v2.1h.8v-2.3c-.1-.8-.4-1.1-1.1-1.1m4.6.7c0-.1 0-.2-.1-.2 0-.1-.1-.1-.1-.2l-.2-.2s-.1 0-.1-.1c-.1-.1-.3-.1-.4-.1h-.4c-.2 0-.5 0-.8.1v.7c.2 0 .5-.1.7-.1.6 0 .7.2.7.6v.1H19c-.9 0-1.3.3-1.3 1.1 0 .7.4 1 1.1 1 .5 0 .9-.2 1.1-.5l.1.4h.7v-2.5c-.2 0-.2 0-.2-.1M19 24.1h.7v.4c-.1.3-.5.5-.9.5s-.5-.1-.5-.4c.1-.4.3-.5.7-.5m4.2-.3 1.1-1.7h-.9l-.7 1.2-.7-1.2h-.9l1.1 1.7-1.1 1.7h.9l.7-1.2.7 1.2h.9z" class="st0"/><path d="M5.7 0v32h20.5V0zm19.1 1.5v5.8H7.2V1.5zm-17.6 29V8.8h17.5v21.7z" class="st0"/><path d="m15.7 16.2-.7-2.9h-.9l-.7 2.9-.7-3.3h-.8l.9 4.3h1l.7-2.9.7 2.9h1l1-4.3h-.8zm3.8-2.4c-.5 0-.8.2-1 .5v-1.8h-.8v4.8h.8V15c.1-.4.3-.5.8-.5.4 0 .5.2.5.7v2.1h.8V15c0-.9-.3-1.2-1.1-1.2" class="st0"/></svg>