<svg xmlns="http://www.w3.org/2000/svg" xml:space="preserve" id="图层_1" x="0" y="0" viewBox="0 0 32 32"><style>.st0{fill:#fff}</style><path d="M16 32c1.4 0 2.5-1.1 2.5-2.5 0-.5-.2-1-.4-1.4l-.7 1-1.2-.8.7-1.1c-.3-.2-.6-.2-.9-.2s-.7.1-1 .2l.7 1.1-1.2.8-.6-.9c-.2.4-.4.8-.4 1.3 0 1.4 1.1 2.5 2.5 2.5m12.9-13.7v-1.8h-1.5v1.8h-1.9v1.5h1.9v1.9h1.5v-1.9h1.8v-1.5z" class="st0"/><path d="M22.8 0v18.4l-5.9 8.7c-.3-.1-.6-.1-.9-.1s-.7.1-1 .2l-5.8-8.6V0H7.8v18.1H3.5v1.5h4.6l5.8 8.6c-.2.4-.4.9-.4 1.3 0 1.4 1.1 2.5 2.5 2.5s2.5-1.1 2.5-2.5c0-.5-.2-1-.4-1.4l5.9-8.7h.3V0zm-4.3 29.5c0 1.4-1.1 2.5-2.5 2.5s-2.5-1.1-2.5-2.5c0-.5.1-.9.4-1.3s.7-.8 1.1-1c.3-.1.6-.2 1-.2.3 0 .6.1.9.2q.75.3 1.2.9c.2.4.4.9.4 1.4" class="st0"/></svg>