<svg xmlns="http://www.w3.org/2000/svg" xml:space="preserve" id="图层_1" x="0" y="0" viewBox="0 0 32 32"><style>.st0{fill:#fff}</style><path d="M12.4 16.5 11.3 20l-1-3.5h-.9l1.4 4.4h1l1.4-4.4zm3.7 1.7c0-.1 0-.1-.1-.2 0-.1-.1-.1-.1-.2-.1-.1-.1-.1-.2-.1 0 0-.1 0-.1-.1-.1-.1-.3-.1-.4-.1h-.4c-.2 0-.5 0-.8.1v.7c.2 0 .5-.1.7-.1.6 0 .7.2.7.6v.1h-.8c-.9 0-1.3.3-1.3 1.1 0 .7.4 1 1.1 1 .5 0 .9-.2 1.1-.5l.1.4h.7v-2.5c-.2-.1-.2-.2-.2-.2m-1.5 1.2h.7v.4c-.1.3-.5.5-.9.5s-.5-.1-.5-.4c.1-.3.2-.5.7-.5m3.2-1.4v-.5H17v3.4h.8v-2c.1-.5.4-.7.9-.7h.1v-.7h-.1c-.2-.1-.6 0-.9.5" class="st0"/><path d="M5.7 0v32h20.5V0zm19.1 1.5v5.8H7.2V1.5zm-17.6 29V8.8h17.5v21.7z" class="st0"/><path d="M21.2 17.4c-.5 0-.8.2-1 .5v-1.8h-.8v4.8h.8v-2.2c.1-.4.3-.5.8-.5.4 0 .5.2.5.7V21h.8v-2.3c-.1-.9-.4-1.3-1.1-1.3" class="st0"/></svg>