<svg xmlns="http://www.w3.org/2000/svg" xml:space="preserve" id="图层_1" x="0" y="0" viewBox="0 0 32 32"><style>.st0{fill:#fff}</style><path d="M15.2 19.1h-4.4v1.5h5.9v-5.9h-1.5z" class="st0"/><path d="M5.7 1.2v29.6h20.6V1.2zm19.1 1.5V7H7.2V2.7zM7.2 29.3V8.5h17.6v20.8z" class="st0"/><path d="M16 12.1c-2.2 0-4.2.8-5.7 2.4C8.7 16 7.9 18 7.9 20.2s.8 4.2 2.4 5.7c1.5 1.5 3.6 2.4 5.7 2.4 2.2 0 4.2-.8 5.7-2.4 1.5-1.5 2.4-3.6 2.4-5.7s-.8-4.2-2.4-5.7c-1.5-1.6-3.5-2.4-5.7-2.4m0 14.7c-3.7 0-6.6-3-6.6-6.6s3-6.6 6.6-6.6c3.7 0 6.6 3 6.6 6.6s-3 6.6-6.6 6.6" class="st0"/></svg>