<svg xmlns="http://www.w3.org/2000/svg" xml:space="preserve" id="图层_1" x="0" y="0" viewBox="0 0 32 32"><style>.st0{fill:#fff}</style><path d="M16.9 12.9h-.8l-.6 3.3-.7-2.9h-1l-.7 2.9-.6-3.3h-.9l1 4.3h1l.7-2.9.7 2.9h1zm-2.8 8.3h-1.3v4.4h.8v-1.4h.5c1.1 0 1.6-.4 1.6-1.5 0-1.2-.4-1.5-1.6-1.5m-.5.7h.4c.6 0 .9.2.9.8s-.2.8-.9.8h-.4zm5.7-8.1c-.5 0-.8.2-1 .5v-1.8h-.8v4.8h.8V15c.1-.4.3-.5.8-.5.4 0 .5.2.5.7v2.1h.8V15c0-.9-.4-1.2-1.1-1.2m-3.1 8.8 2.5 1-2.5 1.1v.7l3-1.3v-.9l-3-1.3z" class="st0"/><path d="M5.7 0v32h20.5V0zm19.1 1.5v5.8H7.2V1.5zm-17.6 29V8.8h17.5v21.7zm13.2-13.3" class="st0"/></svg>