<svg xmlns="http://www.w3.org/2000/svg" xml:space="preserve" id="图层_1" x="0" y="0" viewBox="0 0 32 32"><style>.st0{fill:#fff}</style><path d="M10.4 17.4h4.4v1.5h-4.4zm6.3-1h.1v-5.9h-1.6v4.4h-4.3v1.5zm.7 1L14 21.3l1.1 1 3-3.4h3.7v-1.5z" class="st0"/><path d="M21.7 10.3c-1.5-1.5-3.6-2.4-5.7-2.4s-4.2.8-5.7 2.4c-1.5 1.5-2.4 3.6-2.4 5.7s.8 4.2 2.4 5.7c1.5 1.5 3.6 2.4 5.7 2.4s4.2-.8 5.7-2.4c1.5-1.5 2.4-3.6 2.4-5.7s-.8-4.2-2.4-5.7M16 22.6c-3.7 0-6.6-3-6.6-6.6s3-6.6 6.6-6.6 6.6 3 6.6 6.6-2.9 6.6-6.6 6.6" class="st0"/></svg>