<svg xmlns="http://www.w3.org/2000/svg" xml:space="preserve" viewBox="0 0 32 32"><path d="M0 1.6v.8c0 2.2.4 4.2 1.3 6.2.8 1.9 2 3.6 3.4 5.1 1 1 2.2 1.9 3.4 2.6v13.4h1.5V17c.1 0 .1.1.2.1 2 .8 4.1 1.3 6.2 1.3 2.2 0 4.3-.4 6.2-1.3.1 0 .1-.1.2-.1v12.6h1.5V16.2c1.2-.7 2.4-1.6 3.4-2.6 1.5-1.5 2.6-3.2 3.4-5.1.8-2 1.3-4.1 1.3-6.2v-.7zM29.4 8c-.7 1.7-1.8 3.3-3.1 4.6s-2.9 2.4-4.6 3.1c-1.8.8-3.7 1.1-5.6 1.1s-3.9-.4-5.6-1.1-3.3-1.8-4.6-3.1S3.4 9.7 2.6 8c-.6-1.6-1-3.2-1.1-4.9h28.9c0 1.7-.4 3.3-1 4.9" style="fill:#fff"/></svg>