<svg xmlns="http://www.w3.org/2000/svg" xml:space="preserve" id="图层_1" x="0" y="0" viewBox="0 0 32 32"><style>.st0{fill:#fff}</style><path d="M19.3 12.8c-.5 0-.8.2-1 .5v-1.8h-.8v4.8h.8V14c.1-.4.3-.5.8-.5.4 0 .5.2.5.7v2.1h.8V14c-.1-.9-.4-1.2-1.1-1.2m-3.2-.9-.7 3.3-.6-2.9h-1l-.7 2.9-.6-3.3h-.9l.9 4.3h1l.8-2.9.7 2.9h1l.9-4.3zm6.7 13.9 1-1.6h-.9l-.7 1.2-.7-1.2h-.9l1.1 1.6-1.1 1.8h.9l.7-1.3.8 1.3h.9z" class="st0"/><path d="M5.7 0v32h20.5V0zm1.5 1.5h17.5v5.8H7.2zm0 7.3h17.5v10.1H7.2zm0 21.7V20.4h17.5v10.1z" class="st0"/><path d="M15.4 24.1c-.5 0-.8.2-1 .5-.2-.3-.4-.5-.9-.5-.4 0-.7.1-.9.4v-.4h-.8v3.4h.8v-2.3c.1-.4.3-.5.7-.5s.5.2.5.7v2.1h.8v-2.3c.1-.4.3-.5.7-.5s.5.2.5.7v2.1h.8v-2.3c-.1-.7-.5-1.1-1.2-1.1m-5.9-.9H8.1v4.4h.8v-1.4h.5c1.2 0 1.6-.4 1.6-1.5.1-1.1-.4-1.5-1.5-1.5m-.6.7h.4c.6 0 .9.2.9.8s-.2.8-.9.8h-.4zm11.1.9c0-.1 0-.1-.1-.2 0-.1-.1-.1-.1-.2 0 0-.1-.1-.2-.1s-.1-.1-.2-.1-.2-.1-.4-.1h-.4c-.2 0-.5 0-.8.1v.7c.2 0 .5-.1.7-.1.6 0 .7.2.7.6v.1h-.8c-.9 0-1.3.3-1.3 1.1 0 .7.4 1 1.1 1 .5 0 .9-.2 1.1-.5l.1.4h.7V25c-.1 0-.1-.1-.1-.2m-1.4 1.3h.7v.4c-.1.3-.5.5-.9.5s-.5-.1-.5-.4c0-.4.2-.5.7-.5" class="st0"/></svg>