<svg xmlns="http://www.w3.org/2000/svg" xml:space="preserve" id="图层_1" x="0" y="0" viewBox="0 0 32 32"><style>.st0{fill:#fff}</style><path d="M13.5 12.1h5.1v1.5h-5.1zm-1.8-3.4h8.7v1.5h-8.7zM9.6 5.3h12.8v1.5H9.6zM16 17.9c.8 0 1.4-.5 1.7-1.1h-3.4c.3.6.9 1.1 1.7 1.1" class="st0"/><path d="M32 15.2H17.7c-.3-.7-1-1.1-1.7-1.1s-1.4.5-1.7 1.1H0v1.5h14.3c.3.7 1 1.1 1.7 1.1.8 0 1.4-.5 1.7-1.1H32zm-16 2.7c-.8 0-1.4-.5-1.7-1.1-.1-.2-.2-.5-.2-.7 0-.3.1-.5.2-.8.3-.7.9-1.1 1.7-1.1s1.4.5 1.7 1.1c.1.2.2.5.2.8s-.1.5-.2.7c-.3.6-.9 1.1-1.7 1.1" class="st0"/><path d="M16 14.1c-.8 0-1.4.5-1.7 1.1h3.4c-.3-.6-.9-1.1-1.7-1.1" class="st0"/></svg>