<svg xmlns="http://www.w3.org/2000/svg" xml:space="preserve" id="图层_1" x="0" y="0" viewBox="0 0 32 32"><style>.st0{fill:#fff}</style><path d="M20 10.7c0-1-.8-1.9-1.9-1.9-1 0-1.9.8-1.9 1.9 0 .5.2 1 .6 1.3l.6-1.5 1.4.5-.6 1.5c1 0 1.8-.8 1.8-1.8" class="st0"/><path d="M32 11.5V10h-7.1v1.5h2.5L26 15.3h-8.8l1-2.7c1 0 1.8-.9 1.8-1.9s-.8-1.9-1.9-1.9c-1 0-1.9.8-1.9 1.9 0 .5.2 1 .6 1.4l-1.2 3.2H8L9.5 11l-1.4-.5-1.8 4.7h-.4L7.5 11 6 10.5l-1.8 4.7h-.5L5.3 11l-1.4-.5-1.8 4.7H0v1.5h1.5L0 21l1.4.5 1.8-4.7h.5L2.1 21l1.4.5 1.8-4.7h.5L4.2 21l1.4.5 1.8-4.7H15L13.5 21l1.4.5 1.8-4.7h8.8L23.8 21l1.4.5 1.8-4.7h5v-1.5h-4.5l1.4-3.8zm-15.7-.8c0-1 .8-1.9 1.9-1.9s1.8.9 1.8 1.9-.8 1.8-1.8 1.9h-.1c-.5 0-1-.2-1.3-.5-.3-.4-.5-.9-.5-1.4" class="st0"/></svg>