<svg xmlns="http://www.w3.org/2000/svg" xml:space="preserve" id="图层_1" x="0" y="0" viewBox="0 0 32 32"><style>.st0{fill:#fff}</style><path d="M32 15.3H17.1l1-2.7c1 0 1.8-.9 1.8-1.9s-.8-1.9-1.9-1.9-1.9.8-1.9 1.9c0 .5.2 1 .6 1.4l-1.2 3.2H0v1.5h15L13.4 21l1.4.5 1.8-4.7H32zm-15.8-4.6c0-1 .8-1.9 1.9-1.9s1.9.8 1.9 1.9c0 1-.8 1.8-1.8 1.9h-.1c-.5 0-1-.2-1.3-.5-.4-.4-.6-.9-.6-1.4" class="st0"/><path d="M19.9 10.7c0-1-.8-1.9-1.9-1.9-1 0-1.9.8-1.9 1.9 0 .5.2 1 .6 1.3l.6-1.5 1.4.5-.6 1.5c1 0 1.8-.8 1.8-1.8" class="st0"/></svg>