<svg xmlns="http://www.w3.org/2000/svg" xml:space="preserve" id="图层_1" x="0" y="0" viewBox="0 0 32 32"><style>.st0{fill:#fff}</style><path d="M18.8 12.5c0-.5-.2-.9-.5-1.2l-1 3c.9-.2 1.5-.9 1.5-1.8m-3.7 0c0 .6.3 1.1.7 1.5l1.1-3.3c-.9-.1-1.8.7-1.8 1.8" class="st0"/><path d="M32 15.3H17l.3-.9c.9-.2 1.5-.9 1.5-1.9 0-.5-.2-.9-.5-1.2l.7-2h2.7V7.8h-7.1v1.5h2.9l-.5 1.3c-1 0-1.9.8-1.9 1.9 0 .6.3 1.2.8 1.5l-.4 1.3H0v1.5h14.9L13.5 21l1.4.5 1.6-4.7H32zm-16.9-2.8c0-1 .8-1.9 1.9-1.9.5 0 1 .3 1.4.6.3.3.5.8.5 1.2 0 .9-.7 1.7-1.5 1.8H17c-.4 0-.8-.1-1.1-.4-.5-.2-.8-.7-.8-1.3" class="st0"/></svg>