<svg xmlns="http://www.w3.org/2000/svg" xml:space="preserve" id="图层_1" x="0" y="0" viewBox="0 0 32 32"><style>.st0{fill:#fff}</style><path d="M10.5 12.3h.6v1.5h-.6zm-1.3 0h.6v1.5h-.6zm6.3 0h.6v1.5h-.6zm-1.2 0h.6v1.5h-.6zm-1.3 0h.6v1.5H13zm-1.3 0h.6v1.5h-.6zm-7.5 0h.6v1.5h-.6zm-1.2 0h.6v1.5H3zm2.5 0h.6v1.5h-.6zm2.5 0h.6v1.5H8zm-6.3 0h.6v1.5h-.6zm5 0h.6v1.5h-.6zm17.6 0h.6v1.5h-.6zm2.5 0h.6v1.5h-.6zm-1.2 0h.6v1.5h-.6zm-8.8 0h.6v1.5h-.6zm12.5 0h.6v1.5h-.6zm-1.2 0h.6v1.5h-.6zm-8.8 0h.6v1.5h-.6zm-1.3 0h.6v1.5H18zm5.1 0h.6v1.5h-.6zm-2.6 0h.6v1.5h-.6zm1.3 0h.6v1.5h-.6z" class="st0"/><path d="m32 16-.2-.9h.1v-3.6h-1.5v3.4l-.4.1.1.2H1.7l-.1-.4h-.1v-3.3H0v8.3h1.5v-3.1h28.9v3.1h1.5V16z" class="st0"/><path d="M1.7 17.6h.6v1.5h-.6zm20.1 0h.6v1.5h-.6zm-1.3 0h.6v1.5h-.6zm-2.5 0h.6v1.5H18zm1.3 0h.6v1.5h-.6zm10 0h.6v1.5h-.6zm-12.5 0h.6v1.5h-.6zm11.3 0h.6v1.5h-.6zm-2.5 0h.6v1.5h-.6zm-1.3 0h.6v1.5h-.6zm2.5 0h.6v1.5h-.6zm-3.7 0h.6v1.5h-.6zM8 17.6h.6v1.5H8zm-1.3 0h.6v1.5h-.6zm-1.2 0h.6v1.5h-.6zm-1.3 0h.6v1.5h-.6zm-1.2 0h.6v1.5H3zm6.2 0h.6v1.5h-.6zm6.3 0h.6v1.5h-.6zm-1.2 0h.6v1.5h-.6zm-1.3 0h.6v1.5H13zm-2.5 0h.6v1.5h-.6zm1.2 0h.6v1.5h-.6z" class="st0"/></svg>