<svg xmlns="http://www.w3.org/2000/svg" xml:space="preserve" id="图层_1" x="0" y="0" viewBox="0 0 32 32"><style>.st0{fill:#fff}</style><path d="M21.8 10.4 23 4.2l-4.7 4.1 1.2.7-3.2 5.1H16c-1 0-1.9.8-1.9 1.9 0 .4.1.8.3 1.1l-3.2 5.1-1.1-.6L9 27.8l4.7-4.1-1.2-.7 3.2-5.1h.3c1 0 1.9-.8 1.9-1.9 0-.4-.1-.8-.3-1.1l3.2-5.1zM10.9 22.9l-.2.3.1-.4zm-.6 1.9.5.3-.7.6zm2.2-1-.9.8.6-.9zm5.4-7.8c0 1-.8 1.9-1.9 1.9h-.2c-.5-.1-1-.4-1.3-.8-.2-.3-.3-.7-.3-1.1 0-1 .8-1.9 1.9-1.9h.3c.5.1 1 .4 1.3.8 0 .3.2.7.2 1.1m3.3-6.9.2-.3-.1.4zm.5-1.9-.5-.3.7-.6zm-2.2 1 .9-.8-.6 1zm-4.096 7.43 1.273.793z" class="st0"/><path d="m15.4 15.6.9-1.4H16c-1 0-1.9.8-1.9 1.9 0 .4.1.8.3 1.1zm2.5.4c0-.4-.1-.7-.3-1l-.9 1.4-.9 1.4h.2c1 0 1.9-.8 1.9-1.8" class="st0"/></svg>