<svg xmlns="http://www.w3.org/2000/svg" xml:space="preserve" id="图层_1" x="0" y="0" viewBox="0 0 32 32"><style>.st0{fill:#fff}</style><path d="M6.2 17.9c0-.9-.4-1.1-1.1-1.1h-.6v1.9H0v1.5h4.7v2H0v1.5h7.2v-1.5H6.1V22h-1v-.6h.8v-.3h-.8v-.5H6v-.3h1.2v-1.5H5.9q.3-.3.3-.9m-1.3-.7h.3c.4 0 .7.1.7.7s-.2.7-.7.7h-.3zm-.3-2.8" class="st0"/><path d="M5.6 6.2h-.5l-.8 2.2H0v1.5h4.6v2H0v1.5h5.2c-.4.1-.6.4-.6 1q0 .75.3.9H0v1.5h7.2v-1.5h-1V15c-.2.1-.3.1-.5.1-.5 0-.7-.1-.7-.7s.2-.8.6-.8c.2 0 .3 0 .5.1v-.4h1v-1.5H6c.1-.1.2-.3.2-.5 0-.3-.1-.4-.4-.5.2-.1.3-.2.3-.4 0-.3-.1-.5-.4-.5h1.5V8.4h-.8zm.1 4.2c0 .2-.1.3-.5.3H5v-.6h.2c.3.1.5.1.5.3m-.5 1.3H5V11h.2c.4 0 .5.1.5.3 0 .3-.1.4-.5.4m.1-5.1.3.9H5zm-.4 1.2h.9l.2.6H4.7zm27.1.6h-4.5v-.3c-.2.1-.3.1-.5.1-.4 0-.6-.2-.6-.8s.2-.8.6-.8c.2 0 .3 0 .5.1v-.3c-.1 0-.3-.1-.5-.1-.6 0-1 .3-1 1.1 0 .5.1.8.4 1h-1.5v1.5H26v2h-1.1v1.5h1.3v2h-1.3v1.5h1.6l-.7 2H25v1.5h1v2h-1.2v1.5H32v-1.5h-4.6c.1-.1.1-.2.1-.4 0-.3-.1-.4-.4-.5.2-.1.3-.2.3-.5 0-.4-.2-.5-.7-.6H32v-1.5h-4.2l-.7-2H32v-1.5h-4.5v-.2h-.9v-.6h.8v-.3h-.8v-.5h.9v-.3H32V12h-4.8c.3-.2.4-.4.4-.9 0-.7-.2-1-.6-1h5zm-5.4 13.7h-.2v-.6h.2c.4 0 .5.1.5.3s-.1.3-.5.3m.5-1.2c0 .2-.1.3-.5.3h-.2v-.6h.2c.3 0 .5 0 .5.3m-.4-3.9.3.9h-.7zm.5 1.2.2.5h-1.3l.2-.5zm0-7.3c0 .6-.2.7-.6.7h-.3v-1.5h.3c.4.1.6.2.6.8m-5.9 4.4H10.7V8.4H9.2v15.3h1.5v-6.9h10.6v6.9h1.5V8.4h-1.5z" class="st0"/></svg>