<svg xmlns="http://www.w3.org/2000/svg" xml:space="preserve" id="图层_1" x="0" y="0" viewBox="0 0 32 32"><style>.st0{fill:#fff}</style><path d="m24.6 15.2-.3.4.9.6v-1zm.6-1h-.3c-.7 0-1.4.4-1.7 1.1h1.3z" class="st0"/><path d="M25 17.9c1 0 1.9-.8 1.9-1.9 0-.4-.1-.7-.3-1l-.9 1.4-.4-.2v.6h-1.9c.2.6.8 1.1 1.6 1.1" class="st0"/><path d="M30.8 10.3 32 4.2l-4.7 4.1 1.2.7-3.2 5.2H25c-.8 0-1.4.5-1.7 1.1H0v1.5h23.2c.3.7 1 1.2 1.7 1.2 1 0 1.9-.8 1.9-1.9 0-.4-.1-.8-.3-1.1l3.2-5.2zM26.9 16c0 1-.8 1.9-1.9 1.9-.8 0-1.4-.5-1.7-1.2-.1-.2-.1-.5-.1-.7 0-.3.1-.5.2-.8.3-.6.9-1.1 1.7-1.1h.3c.5.1 1 .4 1.3.8 0 .3.2.7.2 1.1m3.3-6.9.2-.3-.1.3zm.5-1.9-.6-.4.8-.7zm-2.2 1 1-.8-.6 1z" class="st0"/></svg>