<svg xmlns="http://www.w3.org/2000/svg" xml:space="preserve" id="图层_1" x="0" y="0" viewBox="0 0 32 32"><style>.st0{fill:#fff}</style><path d="M22.9 20.5c1.1 0 1.9-.2 2.5-.6.5-.4.8-1.1.8-1.9 0-.9-.2-1.4-.5-1.8-.4-.4-1-.7-2-.9-1.5-.5-1.7-.6-1.7-1.3 0-.8.4-1.1 1.5-1.1.8 0 1.7.2 2.2.3v-1.4c-.4-.1-1.2-.3-2.2-.3-2.1 0-3.1.8-3.1 2.5 0 .8.2 1.3.5 1.7.3.3.9.6 1.9.8 1.4.4 1.7.6 1.7 1.4 0 .9-.4 1.2-1.7 1.2-.9 0-2-.2-2.5-.4v1.5c.5.1 1.5.3 2.6.3" class="st0"/><path d="M0 7v18h32V7zm30.5 16.5h-29v-15h28.9v15z" class="st0"/><path d="M14.5 17.5h1.1c2.4 0 3.4-.8 3.4-3 0-1.1-.2-1.8-.7-2.2-.5-.5-1.3-.7-2.6-.7h-2.8v8.7h1.7v-2.8zm0-4.5h.9c1.4 0 1.8.4 1.8 1.6s-.4 1.6-1.8 1.6h-.9zm-3.2 5.9H7.5v-2.3h3.3v-1.4H7.5v-2.1H11v-1.4H5.9v8.7h5.4z" class="st0"/></svg>