<svg xmlns="http://www.w3.org/2000/svg" xml:space="preserve" id="图层_1" x="0" y="0" viewBox="0 0 32 32"><style>.st0{fill:#fff}</style><path d="M0 7v18h32V7zm30.5 16.5h-29v-15h28.9v15z" class="st0"/><path d="M5.6 13.3h.1l1.8 5.3h1.7l1.9-5.3v7.1h1.7v-8.8h-2.6l-1.8 5.2-1.7-5.2H4v8.8h1.6zm19.3 7.1c1.2 0 2-.2 2.5-.7.4-.4.7-1 .7-1.9v-.5c0-.1-.1-.3-.1-.4s-.1-.2-.1-.3c-.1-.1-.1-.2-.2-.3l-.2-.2c-.1-.1-.2-.1-.3-.2-.1 0-.2-.1-.3-.1s-.1-.1-.2-.1c.1 0 .2-.1.2-.1h.1c.1-.1.3-.1.4-.2l.1-.1c.1-.1.1-.2.2-.3 0-.1.1-.1.1-.2s.1-.2.1-.4V14c0-1.7-.9-2.3-3.1-2.3H22v8.7zm-.7-5.1h-.7V13h.7c1.3 0 1.9.1 1.9 1.1s-.7 1.2-1.9 1.2m.2 1.2c1.4 0 1.9.3 1.9 1.2 0 1-.4 1.2-1.9 1.2h-1v-2.4zm-4.2 2.4h-3.7v-2.3h3.2v-1.4h-3.2v-2.1H20v-1.5h-5.2v8.8h5.4z" class="st0"/></svg>