<svg xmlns="http://www.w3.org/2000/svg" xml:space="preserve" id="图层_1" x="0" y="0" viewBox="0 0 32 32"><style>.st0{fill:#fff}</style><path d="M19.9 21.2 12.1 26l.8 1.3 7.4-4.6h7.3v-1.5z" class="st0"/><path d="M2.9 2.6v26.8h26.2V2.6zm21.9 1.5L16 7.9 7.2 4.1zM4.4 27.9V4.5l11.6 5 11.6-5v23.4z" class="st0"/><path d="m11.2 15.3 9.6-.1v1.4l5.8-2.1-5.8-2v1.2l-9.6.1v-1.3l-5.8 2 5.8 2.1zm-3.5-.8 2.8-1v.2h-.1v1.5h.1v.2zm6.7 5.6v-.8h-10v1.5h4.3c.3 1.2 1.5 2.1 2.8 2.1 1.7.1 2.9-1.2 2.9-2.8m-2.9 1.4c-.5 0-.9-.3-1.2-.6h2.4c-.1.1-.1.2-.2.2-.2.2-.6.4-1 .4" class="st0"/></svg>