<svg xmlns="http://www.w3.org/2000/svg" xml:space="preserve" id="图层_1" x="0" y="0" viewBox="0 0 32 32"><style>.st0{fill:#fff}</style><circle cx="16" cy="16" r="1.9" class="st0"/><path d="M16 10.6c-3 0-5.4 2.4-5.4 5.4s2.4 5.4 5.4 5.4 5.4-2.4 5.4-5.4-2.4-5.4-5.4-5.4m0 9.3c-2.2 0-3.9-1.8-3.9-3.9s1.8-3.9 3.9-3.9 3.9 1.8 3.9 3.9-1.7 3.9-3.9 3.9" class="st0"/><path d="M16 14.1c-1 0-1.9.8-1.9 1.9s.8 1.9 1.9 1.9c1 0 1.9-.8 1.9-1.9s-.9-1.9-1.9-1.9m0 3.8c-1 0-1.9-.8-1.9-1.9s.8-1.9 1.9-1.9 1.9.8 1.9 1.9-.9 1.9-1.9 1.9" class="st0"/></svg>