<svg xmlns="http://www.w3.org/2000/svg" xml:space="preserve" id="图层_1" x="0" y="0" viewBox="0 0 32 32"><style>.st0{fill:#fff}</style><path d="m14.7 6.5.8-1.3 1 .6L17.6 0l-4.5 3.9 1.1.7-1.2 2H3.6V32h24.9V6.5zm1.2-1.9.2-.3-.1.4zm.5-1.8-.5-.3.7-.6zm-2.1 1 .9-.8-.6.9zm10 4.1L16 11.5 12.5 10l1.3-2.1zM11.2 9.5 7.7 7.9h4.5zM5 30.5V8.3l5.5 2.4-1 1.6 1.2.8 1.1-1.8 4.2 1.8 11-4.8v22.2z" class="st0"/><path d="M22 15.9h-1.5v3.9h-.2l-9.8-5.6v5.6H6.4v1.5h4.1V27s2.4-1.4 4.8-2.7v5.4h1.5v-6.3c1.8-1 3-1.7 3.7-2.1v4.5H22v-4.5h3.6v-1.5H22zm-10 .9 5.3 3H12zm0 7.6v-3.1h5.4z" class="st0"/></svg>