<svg xmlns="http://www.w3.org/2000/svg" xml:space="preserve" id="图层_1" x="0" y="0" viewBox="0 0 32 32"><style>.st0{fill:#fff}</style><path d="M22.2 9.8h-5.4V0h-1.5v9.8H9.8v12.4h5.5V32h1.5v-9.8h5.4zM11.3 20.7v-9.4h4v3c-.7.3-1.2 1-1.2 1.7 0 .8.5 1.5 1.2 1.7v3zm4.7-2.8c-.3 0-.5-.1-.7-.1-.7-.3-1.2-.9-1.2-1.7s.5-1.4 1.2-1.7c.2-.1.5-.1.7-.1.3 0 .5.1.8.2.6.3 1.1.9 1.1 1.7s-.4 1.4-1.1 1.7c-.3-.1-.5 0-.8 0m4.7 2.8h-3.9v-3c.7-.3 1.1-1 1.1-1.7s-.5-1.4-1.1-1.7v-3h3.9z" class="st0"/><path d="M14.1 16c0 .8.5 1.4 1.1 1.7v-3.4c-.6.3-1.1.9-1.1 1.7m3.8 0c0-.7-.4-1.4-1.1-1.7v3.4c.6-.3 1.1-1 1.1-1.7" class="st0"/></svg>