<svg xmlns="http://www.w3.org/2000/svg" xml:space="preserve" viewBox="0 0 32 32"><path d="M23.5 27.6c.7-1.3 1.1-2.8 1.1-4.3 0-2.3-.9-4.5-2.5-6.1-1.5-1.5-3.4-2.3-5.4-2.5V0h-1.5v14.6c-2 .2-3.9 1-5.4 2.5-1.6 1.6-2.5 3.8-2.5 6.1 0 1.5.4 3 1.1 4.3-.8 1.3-1.2 2.8-1.2 4.4h1.5c0-1.1.2-2.1.7-3 .1.2.3.3.4.5 1.6 1.6 3.8 2.5 6.1 2.5s4.5-.9 6.1-2.5c.2-.2.3-.3.4-.5.4.9.7 2 .7 3h1.5c.2-1.5-.3-3-1.1-4.3M8.8 23.3c0-1.9.8-3.7 2.1-5.1 1.4-1.4 3.2-2.1 5.1-2.1s3.7.7 5.1 2.1 2.1 3.2 2.1 5.1c0 1-.2 2-.6 2.9-.1-.1-.2-.3-.4-.4-1.7-1.7-3.9-2.6-6.2-2.6s-4.5.9-6.2 2.6c-.1.1-.2.3-.4.4-.4-.9-.6-1.9-.6-2.9m12.3 5.1c-1.4 1.4-3.2 2.1-5.1 2.1s-3.7-.7-5.1-2.1c-.2-.2-.5-.5-.7-.8.2-.2.4-.5.6-.7 1.4-1.4 3.2-2.1 5.1-2.1s3.8.8 5.1 2.1c.2.2.4.5.6.7-.1.3-.3.5-.5.8" style="fill:#fff"/></svg>