<svg xmlns="http://www.w3.org/2000/svg" xml:space="preserve" viewBox="0 0 32 32"><path d="m23.2 4.1-1.3-.8-1.8 3L19 5.1l-1.1 1 1.4 1.6-5.8 10c-.7-.4-1.6-.6-2.5-.6-3.2 0-5.8 2.6-5.8 5.8s2.6 5.8 5.8 5.8 5.8-2.6 5.8-5.8c0-1.7-.8-3.3-2-4.4l5.5-9.6 1.3 1.4 1.1-1-1.6-1.8zm-9.9 15.2-2.2 2.5-2.2-2.5c.7-.4 1.4-.7 2.3-.7.7.1 1.5.3 2.1.7m-3.2 3.6-2.3 2.6c-.6-.7-.9-1.6-.9-2.6s.3-1.8.9-2.6zm1 1.2 2.2 2.5c-.6.4-1.4.6-2.2.6s-1.6-.2-2.2-.6zm1-1.2 2.4-2.6c.6.7.9 1.6.9 2.6s-.4 1.9-1 2.6zM25.5 9.1c-.5 0-.9.2-1 .4v-.4h-.8v3.4h.8v-2.3c.1-.4.4-.5.8-.5.5 0 .6.2.6.7v2.1h.8v-2.3c-.1-.8-.4-1.1-1.2-1.1" style="fill:#fff"/></svg>