<svg xmlns="http://www.w3.org/2000/svg" xml:space="preserve" viewBox="0 0 32 32"><path d="m24.5 9.3-1.6-1.8 2-3.5-1.3-.8-1.8 3L20.7 5l-1.1 1L21 7.6l-.8 1.5-1.3-1.4-1.1 1 1.6 1.8-4.1 7.1c-.7-.4-1.6-.6-2.5-.6C9.6 17 7 19.6 7 22.8s2.6 5.8 5.8 5.8 5.8-2.6 5.8-5.8c0-1.8-.8-3.3-2-4.4l3.9-6.8 1.1 1.2 1.1-1-1.4-1.6.8-1.5 1.3 1.4zm-11.7 9.4c.8 0 1.6.2 2.2.6l-2.3 2.5-2.2-2.5c.7-.4 1.5-.6 2.3-.6m-3.3 1.6 2.3 2.6-2.3 2.6c-.6-.7-.9-1.6-.9-2.6s.3-1.8.9-2.6m3.3 6.9c-.8 0-1.6-.2-2.2-.6l2.2-2.4 2.2 2.5c-.6.2-1.4.5-2.2.5m3.3-1.6L13.8 23l2.4-2.7c.6.7.9 1.6.9 2.6s-.4 1.9-1 2.7" style="fill:#fff"/></svg>