<svg xmlns="http://www.w3.org/2000/svg" xml:space="preserve" id="图层_1" x="0" y="0" viewBox="0 0 32 32"><style>.st0{fill:#fff}</style><path d="M16 12.7c-1.8 0-3.3 1.5-3.3 3.3s1.5 3.3 3.3 3.3 3.3-1.5 3.3-3.3-1.5-3.3-3.3-3.3m0 5.1c-1 0-1.8-.8-1.8-1.8s.8-1.8 1.8-1.8 1.8.8 1.8 1.8-.8 1.8-1.8 1.8m12.6-7.4-1-.2-.4-.9H27l-.4.9-1 .1v.1l.7.7-.2 1v.1l.9-.5.9.5h.1v-.1l-.2-1zq0 .15 0 0" class="st0"/><path d="M16 8.8c-1.9 0-3.7.7-5.1 2.1Q8.8 13 8.8 16c0 3 .7 3.7 2.1 5.1q2.1 2.1 5.1 2.1c3 0 3.7-.7 5.1-2.1q2.1-2.1 2.1-5.1c0-3-.7-3.7-2.1-5.1-1.4-1.3-3.2-2.1-5.1-2.1m0 12.9c-3.1 0-5.7-2.5-5.7-5.7s2.5-5.7 5.7-5.7c3.1 0 5.7 2.5 5.7 5.7s-2.6 5.7-5.7 5.7" class="st0"/></svg>