<svg xmlns="http://www.w3.org/2000/svg" xml:space="preserve" id="图层_1" x="0" y="0" viewBox="0 0 32 32"><style>.st0{fill:#fff}</style><path d="m16.5 20.1 1 1.2 5.3-4.6h6.7v-1.5h-7.2v.1-.1zm-.4-4.8h4v1.5h-4z" class="st0"/><path d="M0 7.2v17.7h32V7.2zm30.5 16.2h-29V8.7h29z" class="st0"/><path d="M8.5 20.5c2.4 0 4.4-2 4.4-4.4s-2-4.4-4.4-4.4-4.4 2-4.4 4.4 1.9 4.4 4.4 4.4m0-7.4c1.6 0 2.9 1.3 2.9 2.9s-1.3 2.9-2.9 2.9-2.9-1.3-2.9-2.9 1.3-2.9 2.9-2.9" class="st0"/><path d="M7.7 16.8h1.5v-3.4H7.7v1.9H6v1.5z" class="st0"/></svg>