<svg xmlns="http://www.w3.org/2000/svg" xml:space="preserve" id="图层_1" x="0" y="0" viewBox="0 0 32 32"><style>.st0{fill:#fff}</style><path d="M16 12.7c-1.8 0-3.3 1.5-3.3 3.3s1.5 3.3 3.3 3.3 3.3-1.5 3.3-3.3-1.5-3.3-3.3-3.3m1.8 3.3c0 .3-.1.5-.2.8L17 16l.7-.7c0 .2.1.4.1.7m-1.3-1.7-.5.6-.5-.6c.2-.1.4-.1.6-.1.1 0 .3 0 .4.1m-2.1 2.4c-.1-.2-.1-.5-.1-.7s0-.5.1-.7l.6.7zm1.1 1 .5-.6.5.6c-.2 0-.3.1-.5.1s-.4 0-.5-.1" class="st0"/><path d="M21.1 10.9Q19 8.8 16 8.8c-3 0-3.7.7-5.1 2.1Q8.8 13 8.8 16c0 3 .7 3.7 2.1 5.1q2.1 2.1 5.1 2.1c3 0 3.7-.7 5.1-2.1q2.1-2.1 2.1-5.1c0-3-.8-3.7-2.1-5.1M16 21.7c-3.1 0-5.7-2.5-5.7-5.7s2.5-5.7 5.7-5.7c3.1 0 5.7 2.5 5.7 5.7s-2.6 5.7-5.7 5.7" class="st0"/></svg>