<svg xmlns="http://www.w3.org/2000/svg" xml:space="preserve" viewBox="0 0 32 32"><path d="M26 15.7q0-.15 0 0l-1-.2-.4-.9h-.2l-.4.9-1 .1v.1l.7.7-.2 1v.1l.9-.5.9.5h.1v-.1l-.2-1zM12.1 9.2c-1.8 0-3.6.7-4.8 2-1.3 1.3-2 3-2 4.8s.7 3.5 2 4.8 3 2 4.8 2 3.5-.7 4.8-2 2-3 2-4.8-.7-3.5-2-4.8c-1.2-1.3-2.9-2-4.8-2m3.2 2.5-3.2 3.2L9 11.8c.9-.7 2-1.1 3.2-1.1 1.1 0 2.2.3 3.1 1m-7.4 1.1 3.1 3.1-3.2 3.2c-.6-.9-1-2-1-3.1 0-1.2.4-2.3 1.1-3.2m1 7.4 3.2-3.2 3.3 3.3c-.9.7-2 1.1-3.2 1.1q-1.95-.15-3.3-1.2m7.5-1-3.3-3.3 3.2-3.2c.7.9 1.1 2 1.1 3.3.1 1.2-.3 2.3-1 3.2" style="fill:#fff"/></svg>