<svg xmlns="http://www.w3.org/2000/svg" xml:space="preserve" id="图层_1" x="0" y="0" viewBox="0 0 32 32"><style>.st0{fill:#fff}</style><path d="M10.3 26.2C9 24.9 8 23.4 7.2 21.6 6.5 19.8 6.1 18 6.1 16s.4-3.8 1.1-5.6C8 8.6 9 7.1 10.3 5.8s2.9-2.4 4.6-3.1c1.8-.8 3.7-1.1 5.6-1.1V0c-2.2 0-4.2.4-6.2 1.3-1.9.8-3.6 2-5.1 3.4-1.4 1.5-2.6 3.2-3.4 5.1-.8 2-1.3 4.1-1.3 6.2s.4 4.2 1.3 6.2c.8 1.9 2 3.6 3.4 5.1s3.2 2.6 5.1 3.4c2 .8 4.1 1.3 6.2 1.3v-1.5c-2 0-3.8-.4-5.6-1.1-1.7-.8-3.2-1.8-4.6-3.2" class="st0"/><path d="M25.4 11.2c-1.3-1.3-3-2-4.8-2s-3.5.7-4.8 2-2 3-2 4.8.7 3.5 2 4.8 3 2 4.8 2 3.5-.7 4.8-2 2-3 2-4.8-.7-3.5-2-4.8m-1.7.5-3.2 3.2-3.1-3.1c.9-.7 2-1.1 3.2-1.1 1.1 0 2.2.4 3.1 1m-7.4 1.1 3.1 3.1-3.2 3.2c-.6-.9-1-2-1-3.1 0-1.2.4-2.3 1.1-3.2m1 7.4 3.2-3.2 3.3 3.3c-.9.7-2 1.1-3.2 1.1-1.3 0-2.4-.5-3.3-1.2m7.5-1L21.6 16l3.2-3.2c.7.9 1.1 2 1.1 3.3 0 1.1-.4 2.2-1.1 3.1" class="st0"/></svg>