<svg xmlns="http://www.w3.org/2000/svg" xml:space="preserve" id="图层_1" x="0" y="0" viewBox="0 0 32 32"><style>.st0{fill:#fff}</style><path d="m14.868 16 1.061-1.061 1.06 1.06-1.06 1.061zm3.032-2.9c-.5-.3-1.2-.5-1.9-.5s-1.3.2-1.9.5L16 15zm1 1L17.1 16l1.9 1.9c.3-.5.5-1.2.5-1.9s-.2-1.3-.6-1.9" class="st0"/><path d="M0 0v32h32V0zm18.9 17.9c-.3.4-.6.8-1.1 1.1l.5.5c-.7.5-1.5.8-2.4.8s-1.7-.3-2.4-.8l.5-.5c-.4-.3-.8-.6-1.1-1.1l-.5.5c-.5-.7-.8-1.5-.8-2.4s.3-1.7.8-2.4l.5.5c.3-.4.6-.8 1.1-1.1l-.5-.5c.7-.5 1.5-.8 2.4-.8s1.7.3 2.4.8l-.5.5c.4.3.8.6 1.1 1.1l.5-.5c.5.7.8 1.5.8 2.4s-.3 1.7-.8 2.4zm0-5.9c-.8-.6-1.8-1-2.9-1s-2.1.4-2.9 1L2.6 1.5h26.8zM12 13.1c-.6.8-1 1.8-1 2.9s.4 2.1 1 2.9L1.5 29.4V2.6zm1.1 6.9c.8.6 1.8 1 2.9 1s2.1-.4 2.9-1l10.5 10.5H2.6zm6.9-1.1c.6-.8 1-1.8 1-2.9s-.4-2.1-1-2.9L30.5 2.6v26.8z" class="st0"/><path d="M13.1 14.1c-.3.5-.5 1.2-.5 1.9s.2 1.3.5 1.9L15 16zm1 4.8c.5.3 1.2.5 1.9.5s1.3-.2 1.9-.5L16 17.1z" class="st0"/></svg>