<svg xmlns="http://www.w3.org/2000/svg" xml:space="preserve" id="图层_1" x="0" y="0" viewBox="0 0 32 32"><style>.st0{fill:#fff}</style><path d="m31.9 13.1-11-1.3v.8h3.3v1h-3.3v.7zm-21.6-1.5c-2.4 0-4.4 2-4.4 4.4s2 4.4 4.4 4.4 4.4-2 4.4-4.4c.1-2.4-1.9-4.4-4.4-4.4m2.1 1.6-2.1 2.1-2-2c.6-.4 1.3-.7 2.1-.7.7 0 1.4.2 2 .6m-4.8.7 2 2L7.5 18c-.4-.6-.7-1.3-.7-2 .1-.8.3-1.5.8-2.1m.6 4.8 2.1-2.1 2.1 2.1c-.6.4-1.3.7-2.1.7-.8.1-1.5-.2-2.1-.7m4.9-.6L11 16l2.1-2.1c.5.6.7 1.3.7 2.1s-.3 1.5-.7 2.1m18.8.8-11-1.2v.8h3.3v.9h-3.3v.8z" class="st0"/><path d="m20.9 14.4 11.2-1.3-11.2-1.3v.8h-5.5v1H21v.8zm0-2.6L32 13.1l-11.1 1.3zm0 5.9v.8h-5.5v1H21v.8l11-1.4h.1zm0 2.5v-2.6L32 18.9zM1 16c0-2.5 1-4.8 2.7-6.6 1.8-1.8 4.1-2.7 6.6-2.7v-1C7.6 5.7 5 6.8 3 8.7c-1.9 2-3 4.5-3 7.3s1.1 5.3 3 7.3c2 2 4.5 3 7.3 3v-1c-2.5 0-4.8-1-6.6-2.7C1.9 20.8 1 18.5 1 16" class="st0"/></svg>