<svg xmlns="http://www.w3.org/2000/svg" xml:space="preserve" id="图层_1" x="0" y="0" viewBox="0 0 32 32"><style>.st0{fill:#fff}</style><path d="M4.3 23.5c-2-2-3.1-4.7-3.1-7.6s1.1-5.5 3.1-7.6c2-2 4.7-3.1 7.6-3.1v-1c-1.6 0-3.1.3-4.6.9-1.4.6-2.7 1.5-3.8 2.5-1 1.1-1.9 2.4-2.5 3.8-.6 1.5-.9 3-.9 4.6s.3 3.1.9 4.6c.6 1.4 1.4 2.7 2.5 3.8s2.3 1.9 3.8 2.5 3 .9 4.6.9v-1.1c-2.9 0-5.6-1.1-7.6-3.2" class="st0"/><path d="M11.9 10.9c-2.8 0-5.1 2.3-5.1 5.1s2.3 5.1 5.1 5.1S17 18.8 17 16s-2.3-5.1-5.1-5.1m2.3 1.9-2.4 2.4-2.3-2.3c.7-.5 1.5-.8 2.4-.8.9-.1 1.7.2 2.3.7m-5.5.8 2.3 2.3-2.4 2.4c-.5-.7-.8-1.4-.8-2.3.1-.9.5-1.7.9-2.4m.8 5.5 2.4-2.4 2.4 2.4c-.7.5-1.5.8-2.4.8s-1.7-.3-2.4-.8m5.5-.7L12.6 16l2.4-2.4c.5.7.8 1.5.8 2.4s-.3 1.7-.8 2.4m3.8-4.1 4.3-4.6.7.6L31.4 0l-9.8 8.3.7.7-4.3 4.6zm2.9-6L31.4.1l-7.6 10.2-.6-.6-.8-.8zm2.1 13.4-.7.6-4.3-4.7-.8.8 4.3 4.6-.7.6 9.8 8.3v.1z" class="st0"/><path d="m31.3.1-9.6 8.2.6.6 2.6-2.7.8.8-2.6 2.7.7.6zm-7.5 10.2" class="st0"/></svg>