<svg xmlns="http://www.w3.org/2000/svg" xml:space="preserve" id="图层_1" x="0" y="0" viewBox="0 0 32 32"><style>.st0{fill:#fff}</style><path d="M7.9 12.7H9V8.6h1.1v-1H9c0-1 .1-1.2.8-1.2h.5v-.8h-.6c-1.2 0-1.9.3-1.9 2h-.7v.9h.8zm4.8 0h1.2V6.2h-.8l-2 .4v1l1.6-.3z" class="st0"/><path d="M0 0v31.9h31.9V0zm29.4 1.5L1.5 29.7V1.5zM3 30.4 30.4 2.6v27.8z" class="st0"/><path d="M19 21.7h-.8v.9h.8v4.1h1.2v-4.1h1.1v-.9h-1.1c0-1 .1-1.2.8-1.2h.5v-.9h-.6c-1.2.1-1.9.4-1.9 2.1m4.3 4 .4-.3c2-1.6 2.4-2.3 2.4-3.4 0-1.3-.8-1.8-2.2-1.8-.6 0-1.2.1-1.6.2v1c.5-.2 1-.2 1.4-.2.7 0 1.2.2 1.2 1s-.6 1.6-3.1 3.5v1.1h4.5v-1z" class="st0"/></svg>