<svg xmlns="http://www.w3.org/2000/svg" xml:space="preserve" id="图层_1" x="0" y="0" viewBox="0 0 32 32"><style>.st0{fill:#fff}</style><path d="M11.3 7.9c-2.2 0-4.2.8-5.7 2.4C4 11.8 3.2 13.8 3.2 16s.8 4.2 2.4 5.7c1.5 1.5 3.5 2.4 5.7 2.4s4.2-.8 5.7-2.4c1.5-1.5 2.4-3.5 2.4-5.7s-.8-4.2-2.4-5.7-3.6-2.4-5.7-2.4" class="st0"/><path d="M0 27.2h22.5V4.8H0zM1.1 5.8h20.4v20.4H1.1z" class="st0"/><path d="M11.3 6.9c-2.4 0-4.7 1-6.4 2.7s-2.7 4-2.7 6.4.9 4.7 2.7 6.4c1.7 1.7 4 2.7 6.4 2.7s4.7-1 6.4-2.7 2.7-4 2.7-6.4-1-4.7-2.7-6.4c-1.7-1.8-4-2.7-6.4-2.7m0 17.7c-4.7 0-8.6-3.8-8.6-8.6 0-4.7 3.8-8.6 8.6-8.6s8.6 3.8 8.6 8.6c-.1 4.7-3.9 8.6-8.6 8.6M32 10.4h-2V5.3h-3.6v5.1h-2v1h3l.1-5.1h1.4v5.1H32z" class="st0"/></svg>