<svg xmlns="http://www.w3.org/2000/svg" xml:space="preserve" viewBox="0 0 32 32"><path d="M31.1 11.6c-.6-1.3-1.4-2.6-2.4-3.6s-2.3-1.9-3.6-2.4c-1.4-.6-2.9-.9-4.4-.9s-3 .3-4.4.9S13.7 7 12.6 8c-1 1-1.9 2.3-2.4 3.6q-.75 1.8-.9 3.9H0v1.1h9.3c.1 1.3.3 2.7.9 3.9.6 1.3 1.4 2.6 2.4 3.6s2.3 1.9 3.6 2.4c1.4.6 2.9.9 4.4.9s3-.3 4.4-.9q2.1-.9 3.6-2.4c1-1 1.9-2.3 2.4-3.6.6-1.4.9-2.9.9-4.4s-.2-3.1-.8-4.5m-3.3 11.8c-.4.4-.9.8-1.4 1.1v-17c.5.3.9.7 1.4 1.1zm1.1-13.5.6.9.2 10.2c-.2.4-.5.8-.8 1.2zM23 6.1v20c-.4.1-.8.2-1.2.2V5.8zM18.6 6v20.2c-.3-.1-.6-.1-.9-.2V6.3q.45-.3.9-.3m-4.9 2.5c.3-.3.7-.6 1-.8v16.7c-.3-.2-.6-.4-.8-.7zm-2.9 4.6v6c-.3-1-.5-2-.5-3 .1-1.1.2-2.1.5-3m1.1 8.3V10.7c.2-.4.5-.8.8-1.1l.1 13q-.6-.45-.9-1.2m3.8 3.7V7c.3-.2.6-.3.9-.4v19c-.3-.2-.6-.4-.9-.5m4 1.2V5.8h1.1v20.6h-.1c-.4-.1-.7-.1-1-.1m4.4-.6V6.4c.4.2.9.3 1.3.6v18.2c-.4.2-.9.4-1.3.5m6.6-7.4-.1-4.7c.2.8.3 1.7.3 2.5 0 .7-.1 1.4-.2 2.2" style="fill:#fff"/></svg>