<svg xmlns="http://www.w3.org/2000/svg" xml:space="preserve" id="图层_1" x="0" y="0" viewBox="0 0 32 32"><style>.st0{fill:#fff}</style><path d="M7.3 16.8h1.8c-.5 1.1-.8 2.2-.8 3.5 0 2.1.8 4 2.2 5.4s3.4 2.2 5.4 2.2 4-.8 5.4-2.2 2.2-3.4 2.2-5.4c0-1.2-.3-2.4-.8-3.5h1.9v-1.5h-1.8c.5-1.1.8-2.2.8-3.5 0-2-.8-4-2.2-5.4C20 4.9 18 4.1 16 4.1s-4 .8-5.4 2.2c-1.5 1.5-2.2 3.4-2.2 5.4 0 1.2.3 2.4.8 3.5H7.3zm5-1.5c1-.8 2.3-1.2 3.7-1.2s2.6.5 3.7 1.2zm7.4 1.5c-1 .8-2.3 1.2-3.7 1.2s-2.6-.5-3.7-1.2zM16 26.4c-3.4 0-6.2-2.8-6.2-6.2 0-1.1.3-2.1.8-3 1.4 1.4 3.4 2.2 5.4 2.2s4-.8 5.4-2.2c.5.9.8 1.9.8 3 0 3.4-2.8 6.2-6.2 6.2m0-20.8c3.4 0 6.2 2.8 6.2 6.2 0 1.1-.3 2.1-.8 3-1.4-1.5-3.4-2.3-5.4-2.3s-4 .8-5.4 2.2c-.5-.9-.8-1.9-.8-3 0-3.3 2.8-6.1 6.2-6.1" class="st0"/><path d="M4.6 0v20.6q0 2.25.9 4.5c.6 1.4 1.4 2.6 2.5 3.6 1 1 2.3 1.9 3.6 2.4 1.4.6 2.9.9 4.4.9s3-.3 4.4-.9q2.1-.9 3.6-2.4c1.1-1.1 1.9-2.3 2.5-3.6q.9-2.1.9-4.5V0zm21.3 19v1.6c0 2.7-1 5.1-2.9 7s-4.4 2.9-7 2.9c-2.7 0-5.1-1-7-2.9s-2.9-4.4-2.9-7v-.8l.1-.8h-.1V1.5H26V19z" class="st0"/></svg>