<svg xmlns="http://www.w3.org/2000/svg" xml:space="preserve" id="图层_1" x="0" y="0" viewBox="0 0 32 32"><style>.st0{fill:#fff}</style><path d="m14.7 20.6 1.3-.7 1.3.7-.2-1.5 1-1-1.4-.2-.7-1.3-.7 1.3-1.4.2 1 1z" class="st0"/><path d="M28.4 1.3v1.3h-9.2C18.9 1.2 17.6 0 16 0s-2.9 1.1-3.2 2.6H4.1V1.3H2.9v3.9h1.3V3.9h8.7c.3 1.3 1.3 2.3 2.5 2.5v7h-4.5v10.2h4.5v7H14v1.3h4v-1.3h-1.3v-7h4.5V13.5h-4.5v-7C18 6.2 19 5.2 19.2 4h9.2v1.3h1.3v-4zm-8.6 21.1h-7.7v-7.7h7.7zM16 1.3c.9 0 1.6.6 1.9 1.4h-3.7c.2-.8.9-1.4 1.8-1.4m0 3.9c-.9 0-1.6-.6-1.9-1.4h3.7c-.2.9-.9 1.4-1.8 1.4" class="st0"/></svg>