<svg xmlns="http://www.w3.org/2000/svg" xml:space="preserve" id="图层_1" x="0" y="0" viewBox="0 0 32 32"><style>.st0{fill:#fff}</style><path d="M19.6 5.1h-1.1L16 11.8l-2.4-6.7h-1.2l2.9 7.8h1.4z" class="st0"/><path d="M21.6 16c.3-.2.5-.4.8-.7C24 13.6 25 11.4 25 9s-1-4.7-2.7-6.4S18.4 0 16 0s-4.6.9-6.3 2.6S7 6.6 7 9s.9 4.6 2.6 6.3c.2.2.5.5.8.7-.3.2-.5.4-.8.7C8 18.4 7 20.6 7 23s.9 4.6 2.6 6.3 4 2.7 6.4 2.7 4.6-.9 6.3-2.6 2.7-4 2.7-6.4-.9-4.6-2.6-6.3c-.3-.3-.6-.5-.8-.7m-10.9-1.7C9.2 12.9 8.4 11 8.4 9s.8-3.9 2.2-5.3C12.1 2.2 14 1.4 16 1.4s3.9.8 5.3 2.2C22.8 5.1 23.6 7 23.6 9s-.8 3.9-2.2 5.3c-.3.3-.7.6-1 .9-1.3-.7-2.8-1.1-4.3-1.1s-3 .4-4.3 1.1c-.5-.3-.8-.6-1.1-.9m8.1 1.7c-.9.3-1.8.5-2.8.5s-1.9-.2-2.8-.5c.9-.3 1.8-.5 2.8-.5s1.9.2 2.8.5m2.5 12.4c-1.4 1.4-3.3 2.2-5.3 2.2s-3.9-.8-5.3-2.2C9.2 26.9 8.4 25 8.4 23s.8-3.9 2.2-5.3c.3-.3.7-.6 1-.9 1.3.7 2.8 1.1 4.3 1.1s3-.4 4.3-1.1c.4.3.7.5 1 .9 1.4 1.4 2.2 3.3 2.2 5.3.2 2-.6 3.9-2.1 5.4" class="st0"/><path d="m16 25.9-2.4-6.8h-1.2l2.9 7.9h1.4l2.9-7.9h-1.1z" class="st0"/></svg>