<svg xmlns="http://www.w3.org/2000/svg" xml:space="preserve" id="图层_1" x="0" y="0" viewBox="0 0 32 32"><style>.st0{fill:#fff}</style><path d="M20.1 6.2h-3.4V.7c0-.4-.3-.7-.7-.7s-.7.3-.7.7v5.4h-3.4c-.4 0-.7.3-.7.7v18.3c0 .4.3.7.7.7h3.4v5.4c0 .4.3.7.7.7s.7-.3.7-.7v-5.4h3.4c.4 0 .7-.3.7-.7V6.9c.1-.4-.3-.7-.7-.7m-.7 18.2h-6.8V7.6h2.7v6.8h-1.4c-.3 0-.5.1-.6.4-.1.2-.1.5 0 .7l2.1 3.6c.1.2.4.4.6.4.3 0 .5-.1.6-.4l2.1-3.6c.1-.2.1-.5 0-.7s-.4-.4-.6-.4h-1.4V7.6h2.7zM16 15.9c.5 0 .8-.3.8-.7h1.4L16 18.8l-2.1-3.6h1.4c0 .3.3.7.7.7" class="st0"/><path d="m15.2 15.9.8 1.4.8-1.4z" class="st0"/></svg>