<svg xmlns="http://www.w3.org/2000/svg" xml:space="preserve" viewBox="0 0 32 32"><path d="M18.5 11.3v2.9L16 19.6l-2.5-5.3v-3H4.6V32h8.8v-3.4l2.5-5.3 2.5 5.5v3.3h8.8V11.3zM12 30.4H6.1V12.8H12zm1.5-5.4v-7.1l1.6 3.5zm3.3-3.6 1.7-3.8v7.5zm9.1 9H20V12.8h5.8v17.6zM11.7 9.5c2.3 0 3-.9 3-2.5 0-1-.4-1.8-1.5-2 .8-.3 1.1-1 1.1-1.9 0-1.6-.6-2.3-2.9-2.3H8.9v8.7zM13.5 7c0 1.2-.5 1.5-2.3 1.5H10v-3h1.2c1.8 0 2.3.5 2.3 1.5M10 1.8h.8c1.7 0 2.3.1 2.3 1.4 0 1.1-.7 1.4-2.3 1.4H10zm13.3 3.4c0-3.6-1.7-4.3-4.2-4.3h-2.5v8.7h2.5c2.5-.1 4.2-1.1 4.2-4.4m-5.5 3.3V1.8h1.3c1.8 0 3.1.6 3.1 3.4 0 2.6-1.2 3.4-3.1 3.4h-1.3z" style="fill:#fff"/></svg>