<svg xmlns="http://www.w3.org/2000/svg" xml:space="preserve" id="图层_1" x="0" y="0" viewBox="0 0 32 32"><style>.st0{fill:#fff}</style><path d="M25.5 16.8h3.3v-1.5h-3.3v-2.2H29v-1.5h-5.1v8.7h1.6z" class="st0"/><path d="M0 7v18h32V7zm30.5 16.5h-29v-15h28.9v15z" class="st0"/><path d="m5.9 13.2 1.8 5.4h1.7l1.9-5.4h.1v7.1H13v-8.7h-2.6l-1.8 5.1-1.7-5.1H4.2v8.7h1.7zm15 6.2c.8-.7 1.2-1.8 1.2-3.4 0-3.6-1.7-4.4-4.2-4.4H15v8.7h2.8c1.4 0 2.4-.3 3.1-.9m-.5-3.4c0 1.1-.2 1.9-.7 2.3-.4.4-1 .6-1.9.6h-1.1V13h1.1c1.6 0 2.6.5 2.6 3" class="st0"/></svg>