<svg xmlns="http://www.w3.org/2000/svg" xml:space="preserve" id="图层_1" x="0" y="0" viewBox="0 0 32 32"><style>.st0{fill:#fff}</style><path d="M24.1 16.8h3.2v-1.5h-3.2v-2.2h3.5v-1.5h-5.2v8.7h1.7z" class="st0"/><path d="M0 7v18h32V7zm30.5 16.5h-29v-15h28.9v15z" class="st0"/><path d="M4.5 13.3c0 .1-.1.2-.1.3-.1.2-.1.4-.2.6v.3c-.1.2-.2.5-.2.8v1.3c0 .4.1.7.1 1v.1c.1.3.1.5.2.7 0 .1 0 .1.1.2.1.2.2.3.3.5 0 .1.1.1.1.2s.1.1.1.2l.2.2.1.1c.2.1.3.2.5.3h.1c.2.1.4.1.7.2h.1c.4.1.8.1 1.3.1s.9 0 1.3-.1c.2 0 .5-.1.7-.2h.1c.2-.1.4-.2.5-.3 0 0 .1 0 .1-.1.1-.1.2-.1.2-.2.1-.1.1-.1.1-.2l.2-.2c.1-.2.2-.3.3-.5 0-.1 0-.1.1-.2.1-.2.2-.5.2-.7v-.1c.1-.3.1-.7.1-1v-1.3c0-.3-.1-.6-.1-.9v-.3c0-.2-.1-.4-.2-.6 0-.1-.1-.2-.1-.3-.1-.1-.1-.3-.2-.4s-.1-.2-.2-.3c0-.1-.1-.1-.1-.2l-.2-.2s-.1-.1-.2-.1c-.2 0-.4 0-.5-.1-.1 0-.1-.1-.2-.1-.2-.1-.3-.1-.5-.2h-.2c-.2 0-.5-.1-.7-.1h-.8c-.3 0-.5 0-.7.1h-.2c-.2 0-.4.1-.5.2-.1 0-.1.1-.2.1-.4.1-.5.1-.7.2l-.1.1c-.1.1-.2.1-.2.2 0 0-.1.1-.1.2-.1.1-.1.2-.2.3s-.2.2-.2.4M5.7 16c0-1.2.1-1.9.4-2.4s.8-.7 1.7-.7 1.4.2 1.7.7c.4.4.5 1.2.5 2.4s-.1 1.9-.4 2.4c-.3.4-.8.6-1.7.6s-1.4-.2-1.7-.7c-.4-.4-.5-1.1-.5-2.3m13.7 3.4c.8-.7 1.2-1.8 1.2-3.4 0-3.6-1.7-4.4-4.2-4.4h-2.8v8.7h2.8q2.1 0 3-.9m-.5-3.4c0 1.1-.2 1.9-.7 2.3-.4.4-1 .6-1.9.6h-1.1V13h1.1c1.6 0 2.6.5 2.6 3" class="st0"/></svg>