<svg xmlns="http://www.w3.org/2000/svg" xml:space="preserve" id="图层_1" x="0" y="0" viewBox="0 0 32 32"><style>.st0{fill:#fff}</style><path d="M23.4 16c0-3.6-1.7-4.3-4.2-4.3h-2.8v8.7h2.8c2.5-.1 4.2-1.1 4.2-4.4M18 18.9V13h1.1c1.6 0 2.6.5 2.6 3 0 2.3-.9 2.9-2.6 2.9zm-5.3 1.6c.9 0 1.6-.2 2.1-.4v-1.4c-.7.2-1.3.3-2 .3-1.7 0-2.4-.6-2.4-3 0-2.3.8-3 2.5-3 .8 0 1.4.1 1.9.3v-1.4c-.5-.2-1.2-.3-2-.3-2.5 0-4.1 1.1-4.1 4.5-.1 3.5 1.5 4.4 4 4.4" class="st0"/><path d="M0 7v18h32V7zm30.5 16.5h-29v-15h28.9v15z" class="st0"/></svg>