<svg xmlns="http://www.w3.org/2000/svg" xml:space="preserve" id="图层_1" x="0" y="0" viewBox="0 0 32 32"><style>.st0{fill:#fff}</style><path d="M11.2 14.8c0-1.7.5-2.2 1.8-2.2.6 0 1.1.1 1.6.3v-1.3c-.4-.1-1-.2-1.8-.2-2.1 0-3.3.8-3.3 3.5s1.2 3.5 3.3 3.5c.6 0 1.4-.1 1.8-.2v-1.3c-.5.2-1 .3-1.6.3-1.3-.2-1.8-.7-1.8-2.4" class="st0"/><path d="M30.8 11.2c-.8-1.4-2-2.8-3.5-3.9-3-2.3-7-3.5-11.3-3.5S7.8 5.1 4.8 7.3c-1.5 1.1-2.7 2.4-3.5 3.9C.4 12.7 0 14.3 0 16s.4 3.3 1.3 4.8c.8 1.5 2 2.8 3.5 3.9 3 2.3 7 3.5 11.3 3.5s8.2-1.2 11.3-3.5c1.5-1.1 2.7-2.4 3.5-3.9.9-1.5 1.3-3.1 1.3-4.8-.1-1.7-.6-3.3-1.4-4.8M16 26.7C8 26.7 1.5 21.9 1.5 16S8 5.3 16 5.3 30.6 10.1 30.6 16 24 26.7 16 26.7" class="st0"/><path d="M19.8 11.3c-1.2 0-1.8.5-2.1 1.1v-1h-1.6v9.2h1.6v-3.5c.3.7.8 1.1 2.1 1.1 2.2 0 2.7-1.6 2.7-3.5 0-2-.5-3.4-2.7-3.4m1.1 3.5c0 1.2-.2 2.3-1.5 2.3s-1.8-.9-1.8-2.3c0-1.5.4-2.3 1.8-2.3 1.3 0 1.5 1 1.5 2.3" class="st0"/></svg>