<svg xmlns="http://www.w3.org/2000/svg" xml:space="preserve" id="图层_1" x="0" y="0" viewBox="0 0 32 32"><style>.st0{fill:#fff}</style><path d="M0 7v18h32V7zm30.5 16.5h-29v-15h28.9v15z" class="st0"/><path d="M25 20.3c2.4 0 3.1-.9 3.1-2.5 0-1.1-.4-1.8-1.5-2v-.1c.9-.3 1.3-.9 1.3-1.8 0-1.6-.7-2.3-3.1-2.3H22v8.7zm-1.4-7.4h.7c1.4 0 1.9.1 1.9 1.2 0 1-.6 1.2-1.9 1.2h-.7zm0 3.6h1c1.5 0 1.9.3 1.9 1.2 0 1-.4 1.2-1.9 1.2h-1zm-7.2 3.9c2.3 0 3.5-.9 3.5-3v-5.8h-1.6v5.6c0 1.2-.4 1.8-1.9 1.8s-1.9-.5-1.9-1.8v-5.6h-1.6v5.8c0 2.3 1.2 3 3.5 3M5.5 16.3h3.7v4h1.7v-8.7H9.2V15H5.5v-3.4H3.9v8.7h1.6z" class="st0"/></svg>