<svg xmlns="http://www.w3.org/2000/svg" xml:space="preserve" id="图层_1" x="0" y="0" viewBox="0 0 32 32"><style>.st0{fill:#fff}</style><path d="m17.7 20.4 1.5-5.9h.1l1.5 5.9h2.1l2-8.7h-1.7l-1.4 6.7h-.1l-1.4-5.8h-1.9l-1.5 5.8h-.1l-1.3-6.7h-1.8l1.9 8.7z" class="st0"/><path d="M0 7v18h32V7zm30.5 16.5h-29v-15h28.9v15z" class="st0"/><path d="M9.7 20.5c1.1 0 1.9-.2 2.5-.6.5-.4.8-1.1.8-1.9 0-.9-.2-1.4-.5-1.8-.4-.4-1-.7-2-.9-1.3-.3-1.6-.5-1.6-1.2 0-.8.4-1.1 1.5-1.1.8 0 1.7.2 2.2.3v-1.4c-.4-.1-1.2-.3-2.2-.3-2.1 0-3.1.8-3.1 2.5 0 .8.2 1.3.5 1.7.3.3.9.6 1.9.8 1.4.4 1.7.6 1.7 1.4 0 .9-.4 1.2-1.7 1.2-.9 0-2-.2-2.5-.4v1.5c.4 0 1.4.2 2.5.2" class="st0"/></svg>