<svg xmlns="http://www.w3.org/2000/svg" xml:space="preserve" viewBox="0 0 32 32"><path d="M29.8 13.8c0-1.9-.4-3.7-1.1-5.4-.7-1.6-1.7-3.1-3-4.3s-2.7-2.3-4.3-3C19.7.4 17.9 0 16 0s-3.7.4-5.4 1.1c-1.6.7-3.1 1.7-4.3 3S4 6.8 3.3 8.4c-.7 1.7-1.1 3.5-1.1 5.4v.8h13V32h1.5V14.5h13v-.7zm-5.1-8.7c1.1 1.1 2 2.4 2.6 3.9q.45.9.6 1.8H16.8V1.6c1.4.1 2.7.4 4 .9 1.4.6 2.7 1.5 3.9 2.6m-17.4 0c1.1-1.1 2.4-2 3.9-2.6 1.3-.5 2.6-.8 4-.9v9.3H4.1c.2-.7.4-1.3.6-1.9.6-1.5 1.5-2.8 2.6-3.9M3.8 13c0-.2 0-.5.1-.7h11.4v.7zm13 0v-.7h11.4c0 .2.1.5.1.7z" style="fill:#fff"/></svg>