<svg xmlns="http://www.w3.org/2000/svg" xml:space="preserve" viewBox="0 0 32 32"><path d="M17.4 12.4c-1.7 0-3.1 1.2-3.5 2.8H0v1.5h13.9c.3 1.6 1.8 2.8 3.5 2.8 2 0 3.6-1.6 3.6-3.6s-1.6-3.5-3.6-3.5m0 5.7c-1.1 0-2.1-.9-2.1-2.1s.9-2.1 2.1-2.1c1.1 0 2.1.9 2.1 2.1s-1 2.1-2.1 2.1m6-1.7-.5-1.5h-.8v2.6h.5v-2.1l.5 1.6h.5l.6-1.6v2.1h.5v-2.6h-.8zm3.5.2c0 .3-.1.5-.5.5s-.5-.1-.5-.5v-1.7h-.5v1.8c0 .6.3.9 1.1.9.7 0 1.1-.3 1.1-.9v-1.8h-.5v1.7zm.9-1.3h.7v2.2h.5v-2.2h.7v-.4h-1.9zm2.9.1c-.7 0-1 .3-1 1.1s.3 1.1 1 1.1 1-.3 1-1.1-.3-1.1-1-1.1m0 1.8c-.4 0-.5-.2-.5-.7s.1-.7.5-.7.5.2.5.7-.1.7-.5.7m.5-1.7s.1.1 0 0c.1.1 0 0 0 0m-1.1.1s.1 0 .1-.1zm1.2 1.8s-.1 0 0 0c-.1 0 0 0 0 0m.2-1.7q0 .15 0 0 0 .15 0 0m.1.5" style="fill:#fff"/></svg>