<svg xmlns="http://www.w3.org/2000/svg" xml:space="preserve" id="图层_1" x="0" y="0" viewBox="0 0 32 32"><style>.st0{fill:#fff}</style><path d="M13 19.3c.3 0 .6-.3.6-.6h-1.2c0 .4.3.6.6.6" class="st0"/><path d="M4.3 24.7h17.4V7.3H4.3zM5.8 8.8h14.4v14.4H5.8z" class="st0"/><path d="M13.7 16.8v-4.9h-1.5v4.9c-.8.3-1.3 1.1-1.3 1.9 0 1.1.9 2.1 2.1 2.1 1.1 0 2.1-.9 2.1-2.1 0-.8-.6-1.6-1.4-1.9m-.7 3.3c-.7 0-1.3-.6-1.3-1.3 0-.4.2-.8.6-1.1v1.1h.2c0-.3.3-.6.6-.6s.6.3.6.6h.2v-1.1c.3.2.6.6.6 1.1-.2.7-.8 1.3-1.5 1.3m13.9.3v3.3l-1.6-3.3h-1.2v4.3h.8v-3.5l1.7 3.5h1.1v-4.3z" class="st0"/></svg>