<svg xmlns="http://www.w3.org/2000/svg" xml:space="preserve" id="图层_1" x="0" y="0" viewBox="0 0 32 32"><style>.st0{fill:#fff}</style><path d="M16 19.3c.3 0 .6-.3.6-.6h-1.2c0 .4.3.6.6.6" class="st0"/><path d="M16 20.8c1.1 0 2.1-.9 2.1-2.1 0-.9-.6-1.6-1.3-1.9v-4.9h-1.5v4.9c-.8.3-1.3 1.1-1.3 1.9-.1 1.2.9 2.1 2 2.1m-.8-3.1v1.1h.2c0-.3.3-.6.6-.6s.6.3.6.6h.2v-1.1c.3.2.6.6.6 1.1 0 .7-.6 1.3-1.3 1.3s-1.3-.6-1.3-1.3c-.1-.5.1-.9.4-1.1" class="st0"/><path d="M28.7 15.2h-4v-8H7.3v8H3.2v1.5h4.1v8h17.4v-8h4zm-5.5 8H8.8V8.8h14.4z" class="st0"/></svg>