<svg xmlns="http://www.w3.org/2000/svg" xml:space="preserve" id="图层_1" x="0" y="0" viewBox="0 0 32 32"><style>.st0{fill:#fff}</style><path d="M16 21c.3 0 .6-.3.6-.6h-1.2c.1.3.3.6.6.6" class="st0"/><path d="M28.7 15.2h-4v-8H7.3v8h-4v1.5h4v8h17.4v-8h4zm-5.5-6.4v8.7h-6.4v-4.3h2.5v-1.5h-2.5v-2h-1.5v1.9h-2.5v1.5h2.5v4.3H8.8V8.8zm-7.9 10.5v1.1h.2c0-.3.3-.6.6-.6s.6.3.6.6h.2v-1.1c.3.2.6.6.6 1.1 0 .7-.6 1.3-1.3 1.3s-1.3-.6-1.3-1.3c-.2-.5 0-.9.4-1.1m-6.5 3.9V19h5.7c-.3.4-.6.9-.6 1.4 0 1.1.9 2.1 2.1 2.1 1.1 0 2.1-.9 2.1-2.1 0-.6-.2-1-.6-1.4h5.7v4.3H8.8z" class="st0"/></svg>