<svg xmlns="http://www.w3.org/2000/svg" xml:space="preserve" id="图层_1" x="0" y="0" viewBox="0 0 32 32"><style>.st0{fill:#fff}</style><path d="M17.7 18.7c0 1.1.9 2.1 2.1 2.1 1.1 0 2.1-.9 2.1-2.1 0-.9-.5-1.6-1.3-1.9V12H19v4.8c-.7.3-1.3 1-1.3 1.9m1.3-1v1.1h.2c0-.3.3-.6.6-.6s.6.3.6.6h.2v-1.1c.3.2.6.6.6 1.1 0 .7-.6 1.3-1.3 1.3s-1.3-.6-1.3-1.3c-.1-.5.1-.9.4-1.1m-7.6-3.5 3.6-3.6-1.1-1-4.6 4.6 3.7 3.6-3.8 3.6 1.1 1 4.8-4.6z" class="st0"/><path d="M19.8 19.3c.3 0 .6-.3.6-.6h-1.1c-.1.3.2.6.5.6" class="st0"/><path d="M7.4 7.4v17.3h17.3V7.4zm1.5 1.5h6.4v14.3H8.9zm14.2 14.2h-6.4V8.9h6.4z" class="st0"/></svg>