<svg xmlns="http://www.w3.org/2000/svg" xml:space="preserve" id="图层_1" x="0" y="0" viewBox="0 0 32 32"><style>.st0{fill:#fff}</style><path d="M7.3 7.3v17.4h17.4V7.3zm15.9 15.9H8.8V8.8h14.4z" class="st0"/><path d="m23.2 21.6-2.7-4.3c.2 0 .4.1.6.1.5 0 .9-.1 1.3-.4.6-.5.6-1.4.5-2-.1-.5-.2-1-.3-1v-.1l-.1-.1c-2.3-2.6-4.6-3.8-6.9-3.5-3.2.4-4.9 3.5-5 3.7 0 0-.2.6-.4 1.3s-.3 1.7.4 2.3c.2.1.4.2.7.2.1 0 .3 0 .5-.1.1 0 .2-.1.3-.1l-2.8 4.1h13.9zm-2.8-1.5h-8.3l2.7-4c.5-.1 1.1-.2 1.6-.1.9.1 1.5.4 1.6.4 0 0 .1 0 .1.1zm-8.9-4c0-.2 0-.4.1-.8s.2-.7.3-.8c.2-.3 1.6-2.6 3.8-2.9 1.7-.2 3.5.8 5.5 2.9 0 .1.1.3.1.6.1.4 0 .6 0 .6-.1.1-.8.2-2.6-.8-.1-.1-.9-.4-2.1-.6-1.1-.1-2.8 0-4.5 1.3-.3.3-.5.4-.6.5" class="st0"/></svg>