<svg xmlns="http://www.w3.org/2000/svg" xml:space="preserve" id="图层_1" x="0" y="0" viewBox="0 0 32 32"><style>.st0{fill:#fff}</style><path d="m10.1 14.2 3.5-3.6-1-1L8 14.2l3.6 3.6-3.7 3.6 1 1 4.9-4.6zm6.3 4.5c0 1.1.9 2.1 2.1 2.1 1.1 0 2.1-.9 2.1-2.1 0-.9-.5-1.6-1.3-1.9V12h-1.5v4.8c-.8.3-1.4 1-1.4 1.9m1.3-1v1.1h.2c0-.3.3-.6.6-.6s.6.3.6.6h.2v-1.1c.3.2.6.6.6 1.1 0 .7-.6 1.3-1.3 1.3s-1.3-.6-1.3-1.3c-.1-.5.1-.9.4-1.1m7.7.1 1.9-1.1h-1.9z" class="st0"/><path d="M23.3 15.2V7.4H6v7.9H2v1.5h4v7.9h17.3v-7.9h2.1v-1.5h-2.1zM7.5 8.9h6.4v14.3H7.5zm14.3 14.2h-6.4V8.9h6.4zm3.6-8.9v1h1.9z" class="st0"/><path d="M18.5 19.3c.3 0 .6-.3.6-.6H18c-.1.3.2.6.5.6M30 15.2h-2.7l1.3.8-1.3.7H30z" class="st0"/></svg>