<svg xmlns="http://www.w3.org/2000/svg" xml:space="preserve" id="图层_1" x="0" y="0" viewBox="0 0 32 32"><style>.st0{fill:#fff}</style><path d="M6.1 12.2c-1.8 0-3.2 1.4-3.2 3.2s1.4 3.2 3.2 3.2 3.2-1.4 3.2-3.2-1.5-3.2-3.2-3.2m0 1.5c.7 0 1.2.4 1.5 1h-3c.2-.6.8-1 1.5-1m0 3.4c-.7 0-1.2-.4-1.5-1h3c-.3.6-.9 1-1.5 1" class="st0"/><path d="M.6 23.8h10.9V7.1H.6zM2.1 8.6H10v13.6H2.1zM30.2 23c-.9 0-1.3-.3-1.3-1.7 0-1.3.4-1.7 1.4-1.7.4 0 .7.1 1 .2V19c-.3-.1-.6-.1-1.1-.1-1.4 0-2.3.6-2.3 2.5 0 2 .9 2.5 2.3 2.5.5 0 .9-.1 1.2-.2v-.8c-.4 0-.7.1-1.2.1m-3.8-4.2c-.7 0-1.2.5-1.2 1.2s.5 1.2 1.2 1.2 1.2-.5 1.2-1.2-.6-1.2-1.2-1.2m0 1.8c-.3 0-.5-.2-.5-.5s.2-.5.5-.5.5.2.5.5c0 .2-.2.5-.5.5m-6.5.6c.4-.2.7-.5.7-1.1 0-.8-.5-1.3-1.6-1.3s-1.6.5-1.6 1.3c0 .6.3.9.7 1.1-.4.1-.8.5-.8 1.2 0 .9.6 1.3 1.7 1.3s1.7-.4 1.7-1.3c0-.7-.4-1-.8-1.2m-.9-1.7c.5 0 .8.2.8.7 0 .4-.2.7-.8.7s-.8-.3-.8-.7c0-.5.3-.7.8-.7m0 3.6c-.6 0-.9-.3-.9-.7 0-.5.3-.8.9-.8s.9.2.9.8c0 .4-.3.7-.9.7m-4.6-.2.3-.2c1.4-1.1 1.8-1.7 1.8-2.5 0-.9-.6-1.4-1.6-1.4-.4 0-.9 0-1.2.2v.7c.4-.1.7-.2 1.1-.2.5 0 .9.2.9.7 0 .6-.5 1.1-2.2 2.6v.8h3.3V23zm8.6-4.1c-1 0-1.7.5-1.7 2.5s.7 2.5 1.7 2.5 1.7-.5 1.7-2.5-.6-2.5-1.7-2.5m0 4.2c-.6 0-.8-.3-.8-1.7s.2-1.7.8-1.7.8.3.8 1.7c.1 1.4-.2 1.7-.8 1.7" class="st0"/></svg>