<svg xmlns="http://www.w3.org/2000/svg" xml:space="preserve" id="图层_1" x="0" y="0" viewBox="0 0 32 32"><style>.st0{fill:#fff}</style><path d="M27.1 11.1c-2.4 0-4.4 1.8-4.8 4.1h-5.8L23 2.1h-6.3V0h-1.5v2.1H9L16 16 9 29.9h6.3V32h1.5v-2.1H23l-6.5-13.2h5.9c.4 2.3 2.4 4.1 4.8 4.1 2.7 0 4.9-2.2 4.9-4.9s-2.3-4.8-5-4.8M16 3.6v9.1l-4.6-9.1zm0 25.6v-.8h-4.6s4.5-9 4.6-9.1v-1.7l5.8 11.6zm11.1-9.8c-1.9 0-3.4-1.5-3.4-3.4s1.5-3.4 3.4-3.4 3.4 1.5 3.4 3.4-1.5 3.4-3.4 3.4" class="st0"/><path d="M16 19.2v9.2h4.6z" class="st0"/></svg>