<svg xmlns="http://www.w3.org/2000/svg" xml:space="preserve" id="图层_1" x="0" y="0" viewBox="0 0 32 32"><style>.st0{fill:#fff}</style><path d="M22.2 9.8c-1.6-1.6-3.8-2.6-6.2-2.6s-4.5.9-6.2 2.6c-1.6 1.6-2.6 3.8-2.6 6.2 0 2.3.9 4.5 2.6 6.2 1.6 1.6 3.8 2.6 6.2 2.6 2.3 0 4.5-.9 6.2-2.6 1.6-1.6 2.6-3.8 2.6-6.2s-1-4.5-2.6-6.2m-1.1 11.3c-1.4 1.4-3.2 2.1-5.1 2.1s-3.7-.8-5.1-2.1c-1.4-1.4-2.1-3.2-2.1-5.1s.8-3.7 2.1-5.1c1.4-1.4 3.2-2.1 5.1-2.1s3.7.8 5.1 2.1c1.4 1.4 2.1 3.2 2.1 5.1s-.7 3.7-2.1 5.1" class="st0"/><path d="M16 11.2c-2.6 0-4.8 2.1-4.8 4.8s2.1 4.8 4.8 4.8 4.8-2.1 4.8-4.8-2.2-4.8-4.8-4.8m-1.5 4.5c-.8 0-1.4-.5-1.4-1.1s.6-1.1 1.4-1.1 1.4.5 1.4 1.1-.6 1.1-1.4 1.1m3.7 2.7c-.7.5-1.5.6-1.8.1-.3-.4 0-1.1.7-1.6s1.5-.6 1.8-.1c.3.4 0 1.1-.7 1.6" class="st0"/></svg>