<svg xmlns="http://www.w3.org/2000/svg" xml:space="preserve" viewBox="0 0 32 32"><path d="m31.6 15.1-1.1-.6-1.3 1.1-1.2-1.2-1.4 1.2-1.2-1.2-1.4 1.2-1.3-1.2-1.3 1.2-1.3-1.2-1.3 1.2-1.3-1.2-1.4 1.2-1.2-1.2-1.4 1.2-1.2-1.2-1.4 1.2-1.3-1.2-1.3 1.2L7 14.4l-1.4 1.2-1.2-1.2L3 15.6l-1.2-1.2-1.4 1H0v1.5h.9l.8-.5.8.7.5-.5.5.6.8-.8.8.7.5-.5.5.6.9-.8.7.7.5-.5.5.6.9-.8.7.7.6-.5.5.6.8-.8.8.7.5-.5.5.6.8-.8.8.7.5-.5.5.6.9-.8.7.7.5-.5.5.6.9-.8.7.7.6-.5.4.6.9-.8.8.7.5-.5.5.6.8-.8.8.7.5-.5.5.6.8-.8.8.7.5-.5.5.6 1-.9.4.3h.9v-1.5z" style="fill:#fff"/></svg>