<svg xmlns="http://www.w3.org/2000/svg" xml:space="preserve" id="图层_1" x="0" y="0" viewBox="0 0 32 32"><style>.st0{fill:#fff}</style><path d="M16 11.3c-2.6 0-4.7 2.1-4.7 4.7s2.1 4.7 4.7 4.7 4.7-2.1 4.7-4.7-2.1-4.7-4.7-4.7m.2 1.5c1.7.1 3.1 1.5 3.1 3.2s-1.4 3.1-3.1 3.2zM12.8 16c0-1.6 1.2-2.9 2.7-3.2v6.4c-1.6-.3-2.7-1.6-2.7-3.2" class="st0"/><path d="M16.9 13v5.9c1.3-.3 2.3-1.5 2.3-3 0-1.3-1-2.5-2.3-2.9" class="st0"/><path d="M22.2 9.8c-1.6-1.6-3.8-2.6-6.2-2.6s-4.5.9-6.2 2.6c-1.6 1.6-2.6 3.8-2.6 6.2s.9 4.5 2.6 6.2c1.6 1.6 3.8 2.6 6.2 2.6 2.3 0 4.5-.9 6.2-2.6 1.6-1.6 2.6-3.8 2.6-6.2s-1-4.5-2.6-6.2m-1.1 11.3c-1.4 1.4-3.2 2.1-5.1 2.1s-3.7-.8-5.1-2.1c-1.4-1.4-2.1-3.2-2.1-5.1s.8-3.7 2.1-5.1c1.4-1.4 3.2-2.1 5.1-2.1s3.7.8 5.1 2.1c1.4 1.4 2.1 3.2 2.1 5.1s-.7 3.7-2.1 5.1" class="st0"/></svg>