<svg xmlns="http://www.w3.org/2000/svg" xml:space="preserve" id="图层_1" x="0" y="0" viewBox="0 0 32 32"><style>.st0{fill:#fff}</style><path d="M14.7 19.4c.4.2.8.2 1.3.2 2 0 3.6-1.6 3.6-3.6 0-.3 0-.5-.1-.8-.1-.1-.1-.3-.2-.4z" class="st0"/><path d="M32 15.3H21.1c-.1-.2-.1-.4-.2-.6-.5-2-2.2-3.4-4.2-3.7V9.2H18V7.8h-4v1.5h1.2V11c-2.2.3-4 2.1-4.3 4.3H0v1.5h10.9c.2 1.6 1.1 2.9 2.4 3.6.9.7 2 1.1 3.1 1.1 1.2 0 2.5-.5 3.4-1.4s1.4-2.2 1.4-3.4H32zm-12.4 0c.6 1.3.4 2.8-.7 3.8-1.2 1.1-2.9 1.3-4.3.4l.1-.1c-.2-.1-.5-.2-.7-.4l5-5c.3.4.5.8.6 1.3m-7.2.7c0-2 1.6-3.6 3.6-3.6 1 0 1.9.4 2.6 1.1l-5.2 5.1c-.6-.7-1-1.6-1-2.6" class="st0"/></svg>