<svg xmlns="http://www.w3.org/2000/svg" xml:space="preserve" id="图层_1" x="0" y="0" viewBox="0 0 32 32"><style>.st0{fill:#fff}</style><path d="M0 0v32h32V0zm30.5 1.5V13L24 17.8l-6-7-1.2 4.1v-8h-1.5v11.5l-8.8-7.1-5 4.7V1.6h29zM16 20c.3 0 .5.1.7.1l.2-.7c1.3.4 2.2 1.6 2.2 3 0 1.7-1.4 3.1-3.1 3.1s-3.1-1.4-3.1-3.1c0-1.2.6-2.2 1.6-2.7l.6.5c.3-.1.6-.2.9-.2M1.5 30.5V18.1l5-4.8 7.3 5.9c-1 .7-1.7 1.9-1.7 3.2 0 2.1 1.7 3.9 3.9 3.9s3.9-1.7 3.9-3.9c0-1.7-1.2-3.2-2.7-3.7l1.5-4.9 5.1 6 6.7-4.9v15.5h-29z" class="st0"/><path d="M13.6 22.4c0 1.3 1.1 2.4 2.4 2.4s2.4-1.1 2.4-2.4c0-1.1-.7-2-1.7-2.3l-.3 1.1-1.3-1.1c-.9.5-1.5 1.3-1.5 2.3" class="st0"/></svg>