<svg xmlns="http://www.w3.org/2000/svg" xml:space="preserve" viewBox="0 0 32 32"><path d="M26.1 6.7c-.6-1.3-1.3-2.5-2.4-3.5-1-1-2.2-1.8-3.5-2.4C18.9.3 17.5 0 16 0s-2.9.3-4.3.9c-1.3.6-2.5 1.3-3.5 2.4-1 1-1.8 2.2-2.4 3.5C5.3 8.1 5 9.5 5 11s.3 2.9.9 4.3c.6 1.3 1.3 2.5 2.4 3.5 1 1 2.2 1.8 3.5 2.4 1.1.5 2.3.7 3.5.8v10h1.5V21.9c1.2-.1 2.4-.4 3.5-.8 1.3-.6 2.5-1.3 3.5-2.4 1-1 1.8-2.2 2.4-3.5.6-1.4.9-2.8.9-4.3-.1-1.4-.4-2.8-1-4.2M9.3 4.3c1.8-1.8 4.2-2.8 6.7-2.8s4.9 1 6.7 2.8c.6.6 1.1 1.3 1.5 2L7.9 6.1c.4-.7.8-1.3 1.4-1.8m5.9 14.3L9 7.6s3.1 0 6.2.1zm1.6-10.9c3.1 0 6.3.1 6.3.1l-6.3 10.5zm-7.5 10c-1.8-1.8-2.8-4.2-2.8-6.7 0-1.3.2-2.5.7-3.6l7.3 13c-2-.4-3.8-1.3-5.2-2.7m13.4 0c-1.5 1.5-3.4 2.4-5.4 2.7 1.9-3.2 6.5-10.9 7.6-12.8.4 1.1.6 2.2.6 3.4 0 2.5-1 4.9-2.8 6.7" style="fill:#fff"/></svg>