<svg xmlns="http://www.w3.org/2000/svg" xml:space="preserve" viewBox="0 0 32 32"><path d="M24.5 15.7c0-2.3-.9-4.4-2.5-6-1.5-1.5-3.4-2.3-5.4-2.5V0h-1.2v7.3c-2.1.1-4 1-5.4 2.5-1.6 1.6-2.5 3.7-2.5 6s.9 4.4 2.5 6c1.5 1.5 3.4 2.3 5.4 2.5v7.8h1.2v-7.8c2.1-.1 4-1 5.4-2.5 1.6-1.7 2.5-3.8 2.5-6.1m-13.7-5.2C12.2 9.2 14 8.4 16 8.4s3.8.8 5.2 2.2c.5.5.9 1 1.2 1.6l-12.7-.3c.3-.5.7-.9 1.1-1.4m5.1 12-5.3-9.4 10.8.1zm-7.2-6.8c0-1 .2-1.9.5-2.8l5.6 10c-1.5-.2-2.9-.9-4-2-1.4-1.4-2.1-3.2-2.1-5.2m8.2 7.3 5.9-9.9c.3.8.5 1.7.5 2.7 0 2-.8 3.8-2.2 5.2-1.1 1.1-2.6 1.8-4.2 2" style="fill:#fff"/></svg>