<svg xmlns="http://www.w3.org/2000/svg" xml:space="preserve" id="图层_1" x="0" y="0" viewBox="0 0 32 32"><style>.st0{fill:#fff}</style><circle cx="20" cy="19.1" r="2.5" class="st0"/><path d="M17.5 19.1c0 1.4 1.2 2.6 2.6 2.6s2.6-1.2 2.6-2.6-1.1-2.6-2.6-2.6-2.6 1.2-2.6 2.6m2.5-2.5c1.4 0 2.5 1.1 2.5 2.5s-1.1 2.5-2.5 2.5-2.5-1.1-2.5-2.5 1.1-2.5 2.5-2.5m-4-1.8c1.4 0 2.5-1.1 2.5-2.5S17.4 9.8 16 9.8s-2.5 1.1-2.5 2.5 1.1 2.5 2.5 2.5" class="st0"/><path d="M16 14.8c1.4 0 2.6-1.1 2.6-2.6S17.4 9.7 16 9.7s-2.6 1.1-2.6 2.6 1.2 2.5 2.6 2.5m0-5.1c1.4 0 2.5 1.1 2.5 2.5s-1.1 2.5-2.5 2.5-2.5-1.1-2.5-2.5c0-1.3 1.1-2.5 2.5-2.5" class="st0"/><path d="M0 2.5v26.9h32V2.5zM30.5 28h-29V4h29z" class="st0"/><path d="m5.6 24.6 9 1.1c.4 0 .8.1 1.2.1s.7 0 1.1-.1l10-1.1 1.4-6.2c.4-1.7.4-3.4 0-5l-1.4-6.2-9.4-1.3c-1.1-.2-2.2-.1-3.3 0L5.6 7.1l-1.5 4.7c-.7 2.2-.8 4.6-.1 6.9zm-.1-12.4 1.2-3.8 7.6-1.2c1-.2 1.9-.2 2.9 0l8.4 1.2 1.2 5.2c.3 1.4.3 3 0 4.4l-1.2 5.2-8.9 1c-.6.1-1.3.1-1.9 0l-8-1-1.4-4.9c-.5-2-.5-4.1.1-6.1" class="st0"/><path d="M12 21.7c1.4 0 2.6-1.2 2.6-2.6s-1.1-2.6-2.6-2.6-2.6 1.2-2.6 2.6c0 1.5 1.2 2.6 2.6 2.6m0-5.1c1.4 0 2.5 1.1 2.5 2.5s-1.1 2.5-2.5 2.5-2.5-1.1-2.5-2.5c-.1-1.4 1.1-2.5 2.5-2.5" class="st0"/><circle cx="12" cy="19.1" r="2.5" class="st0"/></svg>