<svg xmlns="http://www.w3.org/2000/svg" xml:space="preserve" viewBox="0 0 32 32"><path d="M28.4 0v9.7c-.7-1.3-1.5-2.5-2.6-3.6-1.3-1.3-2.8-2.3-4.4-3C19.7 2.4 17.9 2 16 2s-3.7.4-5.4 1.1-3.1 1.7-4.4 3-2.3 2.8-3 4.4c-.7 1.7-1.1 3.5-1.1 5.4s.4 3.7 1.1 5.4 1.7 3.1 3 4.4 2.8 2.3 4.4 3c1.7.7 3.5 1.1 5.4 1.1s3.7-.4 5.4-1.1 3.1-1.7 4.4-3c1.1-1.1 1.9-2.3 2.6-3.6V32h1.5V0zm-1 20.8q-.9 2.25-2.7 3.9c-1.1 1.1-2.5 2-3.9 2.7-1.5.6-3.2 1-4.8 1s-3.3-.3-4.8-1q-2.25-.9-3.9-2.7c-1.1-1.1-2-2.5-2.7-3.9-.6-1.5-1-3.2-1-4.8s.3-3.3 1-4.8q.9-2.25 2.7-3.9c1.1-1.1 2.5-2 3.9-2.7 1.5-.6 3.2-1 4.8-1s3.3.3 4.8 1q2.25.9 3.9 2.7c1.1 1.1 2 2.5 2.7 3.9.6 1.5 1 3.2 1 4.8s-.3 3.3-1 4.8" style="fill:#fff"/></svg>