<svg xmlns="http://www.w3.org/2000/svg" xml:space="preserve" id="图层_1" x="0" y="0" viewBox="0 0 32 32"><style>.st0{fill:#fff}</style><path d="m7.307 17.152 1.061-1.061 3.04 3.04-1.06 1.061zm1.667-1.716 1.061-1.06 3.04 3.04-1.06 1.06zM12.7 21.1V25c0 .6.5 1.1 1.1 1.1h10.4V20H13.8c-.6 0-1.1.5-1.1 1.1m1.5.4h8.5v3.1h-8.5z" class="st0"/><path d="M32 15.7h-4.9V3.4H0v25.2h27.1V17.2H32zM8.2 12.8c-1.1 0-2-.9-2-2s.9-2 2-2 2 .9 2 2-.9 2-2 2m17.4 14.3H1.5V4.9h8.7V8c-.5-.4-1.2-.7-2-.7-1.9 0-3.5 1.6-3.5 3.5s1.6 3.5 3.5 3.5c1.8 0 3.3-1.4 3.4-3.2V4.9h13.9v22.2z" class="st0"/></svg>