<svg xmlns="http://www.w3.org/2000/svg" xml:space="preserve" id="图层_1" x="0" y="0" viewBox="0 0 32 32"><style>.st0{fill:#fff}</style><circle cx="12" cy="9.7" r="1" class="st0"/><path d="m2.6 7 1.7 4.6H0v7.3h6.8v-.1L9 25.1h23V7zm11.2 2.7c0 1-.8 1.8-1.8 1.8s-1.8-.8-1.8-1.8c0-.4.2-.8.4-1.1h2.7c.3.2.5.6.5 1.1M1.5 17.4v-4.3h3.3l1.5 4.3zm6-1.5c0-.7.6-1.3 1.4-1.3s1.4.6 1.4 1.3-.6 1.3-1.4 1.3-1.4-.6-1.4-1.3m.5 1.8c.3.1.6.2.9.2 1.2 0 2.1-.9 2.1-2s-1-2-2.1-2c-.8 0-1.5.5-1.9 1.1-1.1-3.2-2.3-6.5-2.3-6.5h5.1q-.3.6-.3 1.2c0 1.4 1.1 2.5 2.5 2.5s2.5-1.1 2.5-2.5c0-.4-.1-.8-.3-1.1h14.5l-10.5 8v-.4c0-1.1-1-2-2.1-2s-2.1.9-2.1 2 .9 2 2.1 2L9.9 23c-.2-.4-1-2.8-1.9-5.3m8.2-.3c-.8 0-1.4-.6-1.4-1.3s.6-1.3 1.4-1.3 1.4.6 1.4 1.3c0 .8-.6 1.3-1.4 1.3m-4.6 6.2L30.5 9.1v14.5z" class="st0"/><path d="M9.5 15.9c0-.3-.3-.5-.6-.5s-.6.2-.6.5.3.5.6.5.6-.2.6-.5m6.7-.2c-.3 0-.6.2-.6.5s.3.5.6.5.6-.2.6-.5-.3-.5-.6-.5" class="st0"/></svg>