<svg xmlns="http://www.w3.org/2000/svg" xml:space="preserve" id="图层_1" x="0" y="0" viewBox="0 0 32 32"><style>.st0{fill:#fff}</style><path d="M25.3 20.7v-1.5H14v1.5h4.9l-6.2 10.7h13.9l-6.2-10.7zm-5.7 1.6 1.6 2.8H18zm-4.3 7.6 1.9-3.2h5l1.9 3.2zM2.6.6l1.7 4.6H0v7.3h6.8v-.1L9 18.6h23V.6zM1.5 11V6.7h3.3L6.3 11zm29 6.1H10.1l-5.4-15h25.8z" class="st0"/><path d="M18.8 8c1.4 0 2.5-1.1 2.5-2.5S20.2 3 18.8 3s-2.5 1.1-2.5 2.5c0 1.3 1.1 2.5 2.5 2.5m0-4.3c1 0 1.8.8 1.8 1.8s-.8 1.8-1.8 1.8S17 6.5 17 5.5c.1-1 .9-1.8 1.8-1.8" class="st0"/><circle cx="18.8" cy="5.5" r="1" class="st0"/><path d="M15.7 12.2c.3 0 .6-.2.6-.5s-.3-.5-.6-.5-.6.2-.6.5.2.5.6.5m7.3 1.5c1.2 0 2.1-.9 2.1-2s-1-2-2.1-2-2.1.9-2.1 2 .9 2 2.1 2m0-3.2c.8 0 1.4.6 1.4 1.3s-.6 1.3-1.4 1.3-1.4-.6-1.4-1.3c0-.8.6-1.3 1.4-1.3" class="st0"/><path d="M15.7 13.7c1.2 0 2.1-.9 2.1-2s-1-2-2.1-2-2.1.9-2.1 2 .9 2 2.1 2m0-3.2c.8 0 1.4.6 1.4 1.3s-.6 1.3-1.4 1.3-1.4-.6-1.4-1.3c0-.8.6-1.3 1.4-1.3" class="st0"/><ellipse cx="23" cy="11.7" class="st0" rx=".6" ry=".5"/></svg>