<svg xmlns="http://www.w3.org/2000/svg" xml:space="preserve" id="图层_1" x="0" y="0" viewBox="0 0 32 32"><style>.st0{fill:#fff}</style><path d="M12.7 4c-.1 0-.2 0-.3.1-.2.1-.4.1-.6.2-.1 0-.2.1-.3.1-.2.1-.3.2-.5.3l-.2.2c-.1.1-.2.1-.2.2-.8.9-1.2 2.3-1.2 4.5s.4 3.6 1.2 4.5c.1.1.1.1.2.1.1.1.2.2.3.2.1.1.2.2.3.2.1.1.3.1.4.2s.3.1.4.1c.2 0 .3.1.5.1s.4.1.7.1h1.4c.2 0 .5 0 .7-.1.2 0 .3-.1.4-.1.2 0 .3-.1.5-.2.1-.1.3-.1.4-.2s.3-.1.4-.2.2-.2.3-.2c.1-.1.1-.1.2-.1.8-.9 1.2-2.3 1.2-4.5s-.4-3.6-1.2-4.5c-.1-.1-.2-.1-.2-.2l-.2-.2c-.1-.1-.3-.2-.5-.3-.1 0-.2-.1-.3-.1-.2-.1-.4-.1-.6-.2-.1 0-.2 0-.3-.1-.3-.1-.6-.1-.9-.1h-1.2c-.2.1-.5.2-.8.2m-1.3 2.4c0-.1.1-.1.1-.2.5-.7 1.3-1.1 2.6-1.1 2.8 0 3.3 1.5 3.3 4.5 0 1.1-.1 1.9-.2 2.5-.1.2-.1.4-.2.5 0 .1-.1.1-.1.2s-.1.1-.1.2c-.5.7-1.3 1-2.6 1s-2.2-.3-2.6-1c0-.1-.1-.1-.1-.2s-.1-.1-.1-.2c-.1-.2-.1-.3-.2-.5-.2-.6-.2-1.4-.2-2.5 0-1.4.1-2.4.4-3z" class="st0"/><path d="m2.7.8 1.6 4.6H.1v7.2h6.7v-.1L9 18.7h22.8V.8zM1.6 11.1V6.9h3.2l1.5 4.2zm28.8 6.1H10.1L4.8 2.3h25.6zm-5.1 3.5v-1.5H14v1.5h4.9l-6.2 10.7h13.9l-6.2-10.7zm-5.7 1.7 1.6 2.8H18zm-4.3 7.5 1.9-3.2h5l1.9 3.2z" class="st0"/><path d="M23 9.8h5.5v5.3H30V4h-1.5v4.6H23V4h-1.4v11.1H23z" class="st0"/></svg>