<svg xmlns="http://www.w3.org/2000/svg" xml:space="preserve" id="图层_1" x="0" y="0" viewBox="0 0 32 32"><style>.st0{fill:#fff}</style><path d="M18.8 12.9c.6 0 1-.5 1-1 0-.6-.5-1-1-1-.6 0-1 .5-1 1s.5 1 1 1m4.2 7.2c1.2 0 2.1-.9 2.1-2s-1-2-2.1-2-2.1.9-2.1 2c-.1 1.1.9 2 2.1 2m0-3.2c.8 0 1.4.6 1.4 1.3s-.6 1.3-1.4 1.3-1.4-.6-1.4-1.3c0-.8.6-1.3 1.4-1.3" class="st0"/><path d="M23 18.6c.3 0 .6-.2.6-.5s-.3-.5-.6-.5-.6.2-.6.5c-.1.3.2.5.6.5" class="st0"/><path d="m2.6 7 1.7 4.6H0v7.3h6.8v-.1L9 25h23V7zM1.5 17.4v-4.3h3.3l1.5 4.3zm29 6.1H10.1l-5.4-15h25.8z" class="st0"/><path d="M15.7 20.1c1.2 0 2.1-.9 2.1-2s-1-2-2.1-2-2.1.9-2.1 2 .9 2 2.1 2m0-3.2c.8 0 1.4.6 1.4 1.3s-.6 1.3-1.4 1.3-1.4-.6-1.4-1.3c0-.8.6-1.3 1.4-1.3m3.1-2.5c1.4 0 2.5-1.1 2.5-2.5s-1.1-2.5-2.5-2.5-2.5 1.1-2.5 2.5c0 1.3 1.1 2.5 2.5 2.5m0-4.3c1 0 1.8.8 1.8 1.8s-.8 1.8-1.8 1.8-1.8-.8-1.8-1.8c.1-1 .9-1.8 1.8-1.8" class="st0"/><path d="M15.7 18.6c.3 0 .6-.2.6-.5s-.3-.5-.6-.5-.6.2-.6.5.2.5.6.5" class="st0"/></svg>