<svg xmlns="http://www.w3.org/2000/svg" xml:space="preserve" id="图层_1" x="0" y="0" viewBox="0 0 32 32"><style>.st0{fill:#fff}</style><path d="M25.3 20.6v-1.5H14v1.5h4.9l-6.2 10.7h13.9l-6.2-10.7zm-5.7 1.7 1.6 2.8H18zm-4.3 7.5 1.9-3.2h5l1.9 3.2zM2.7.7l1.6 4.6H.1v7.2h6.7v-.1L9 18.6h22.8V.7zM1.6 11V6.8h3.2L6.4 11zm28.8 6.1H10.1L4.8 2.2h25.6z" class="st0"/><path d="M14.8 3.9h1.5V15h-1.5zM20.7 15v-3.9h1.6c1.5 0 2.5-.3 3.1-.8.6-.6 1-1.5 1-2.8q0-1.95-.9-2.7c-.6-.6-1.6-.9-3.2-.9h-3.1V15zm4.2-7.5c0 1.8-.6 2.4-2.7 2.4h-1.5V5.2h1.5c2 0 2.7.6 2.7 2.3" class="st0"/></svg>