<svg xmlns="http://www.w3.org/2000/svg" xml:space="preserve" viewBox="0 0 32 32"><path d="M.8 2.7c-.5 0-.8.3-.8.7v25.1c0 .4.3.8.8.8s.8-.3.8-.8V3.4c-.1-.4-.4-.7-.8-.7m27 4.5q-.15-.45-.6-.6l-9.7-1.4c-1.2-.2-2.5-.2-3.6 0L5.1 6.6c-.3 0-.5.2-.6.5L3 11.7c-.8 2.4-.8 5.1-.2 7.5l1.6 5.9c.1.3.3.5.6.5l9.3 1.2c.4.1.8.1 1.3.1.4 0 .8 0 1.2-.1l10.3-1.2c.3 0 .6-.3.6-.6l1.4-6.2c.4-1.8.4-3.7 0-5.5zm-.1 11.3-1.3 5.7-9.8 1.1q-1.05.15-2.1 0l-8.8-1.1-1.5-5.4c-.6-2.2-.6-4.5.1-6.7L5.8 8l8.3-1.3c1-.2 2.1-.2 3.2 0L26.5 8l1.3 5.7c.3 1.6.3 3.3-.1 4.8m3.6-15.8c-.4 0-.8.3-.8.8v25.1c0 .4.3.8.8.8.4 0 .8-.3.8-.8V3.4c-.1-.4-.4-.7-.8-.7" style="fill:#fff"/></svg>