<svg xmlns="http://www.w3.org/2000/svg" xml:space="preserve" viewBox="0 0 32 32"><path d="M19.5 5.5h1.4v11.1h-1.4zM32 16.6 28.6 12c1.5-.3 2.3-1.3 2.3-3.2 0-2.4-1.1-3.3-4.2-3.3h-2.8v11.1h1.4v-4.4h1.9l3 4.5H32zm-5.4-5.7h-1.2V6.8h1.2c2.1 0 2.9.4 2.9 2 0 1.9-.9 2.1-2.9 2.1m-10.3.3c0-.1-.1-.1-.1-.2-.1-.1-.1-.1-.2-.1l-.2-.2C14 8.9 11.7 8 9.2 8s-4.8 1-6.6 2.7l-.2.2c-.1 0-.1.1-.2.1 0 .1-.1.1-.1.2C.8 12.9 0 15 0 17.2s.8 4.4 2.2 6c0 .1.1.1.1.2s.1.1.2.1c.1.1.1.2.2.2 1.8 1.8 4.1 2.7 6.6 2.7s4.8-1 6.6-2.7c.1-.1.1-.2.2-.2s.1-.1.2-.1c0-.1.1-.1.1-.2 1.4-1.7 2.2-3.8 2.2-6s-.8-4.3-2.3-6m-.7 10.6-5.1-4.6 5.1-4.6c1 1.3 1.5 2.9 1.5 4.6s-.6 3.3-1.5 4.6m-1.1-10.3-5.2 4.7-5.2-4.7c1.4-1.3 3.3-2 5.2-2 2-.1 3.8.7 5.2 2M3.1 12.6l5.1 4.6-5.1 4.6c-1-1.3-1.5-2.9-1.5-4.6-.1-1.7.5-3.3 1.5-4.6m1 10.3 5.2-4.7 5.2 4.7c-1.4 1.3-3.3 2-5.2 2-2 .1-3.8-.7-5.2-2" style="fill:#fff"/></svg>