<svg xmlns="http://www.w3.org/2000/svg" xml:space="preserve" id="图层_1" x="0" y="0" viewBox="0 0 32 32"><style>.st0{fill:#fff}</style><path d="M21.2 19.5V18h-6.4v1.5h2.5L13.5 26h9l-3.8-6.5zM18 21.2l.3.6h-.7zm-1.9 3.3.7-1.2h2.4l.7 1.2zm-2.6-12.3c0-.8-.7-1.5-1.5-1.5-.4 0-.7.1-1 .3l.3.8c-.1.1-.1.2-.1.3 0 .3.2.5.5.7l.3.8c.8 0 1.5-.6 1.5-1.4" class="st0"/><path d="M30.7 9.8c-.8-1.9-2-3.6-3.4-5.1-1.5-1.5-3.2-2.6-5.1-3.4C20.3.4 18.2 0 16 0s-4.3.4-6.2 1.3c-1.9.8-3.6 2-5.1 3.4-1.5 1.5-2.6 3.2-3.4 5.1C.4 11.7 0 13.8 0 16s.4 4.3 1.3 6.2c.8 1.9 2 3.6 3.4 5.1 1.5 1.5 3.2 2.6 5.1 3.4 2 .8 4.1 1.3 6.2 1.3s4.3-.4 6.2-1.3c1.9-.8 3.6-2 5.1-3.4 1.5-1.5 2.6-3.2 3.4-5.1.8-2 1.3-4.1 1.3-6.2s-.4-4.3-1.3-6.2m-1.3 11.8c-.7 1.7-1.8 3.3-3.1 4.6s-2.9 2.4-4.6 3.1c-1.8.8-3.7 1.1-5.6 1.1s-3.9-.4-5.6-1.1-3.3-1.8-4.6-3.1-2.4-2.9-3.1-4.6C1.9 19.9 1.5 18 1.5 16s.4-3.9 1.1-5.6 1.8-3.3 3.1-4.6 2.9-2.4 4.6-3.1Q13 1.5 16 1.5c2 0 3.9.4 5.6 1.1s3.3 1.8 4.6 3.1 2.4 2.9 3.1 4.6c.8 1.8 1.1 3.7 1.1 5.6s-.3 4-1 5.7" class="st0"/><path d="M8.8 9.4H6.5v4.8h4l1.3 3.5h13.8v-11H7.8zM8 12.7v-1.8h1.3l.7 1.8zm6.4 3.5 9.7-7.4v7.4zm.4-7.1c0 .6-.5 1-1 1-.6 0-1-.5-1-1 0-.4.2-.8.6-.9h.8c.3.2.6.5.6.9m-2.6-.9c-.1.3-.2.6-.2.9 0 1 .8 1.8 1.8 1.8s1.8-.8 1.8-1.8c0-.3-.1-.7-.3-.9h7.2l-5.3 4.1c0 .8-.7 1.5-1.5 1.5h-.3l-2.6 2-.7-2.1q-.75 0-1.2-.6v-.3h-.2c-.1-.2-.1-.4-.1-.6 0-.5.2-.9.6-1.1l-1-2.8h2z" class="st0"/><path d="M15.5 10.8c-.9 0-1.5.7-1.5 1.5 0 .7.5 1.3 1.2 1.4l1.9-1.4c0-.8-.7-1.5-1.6-1.5m-1.8-1.4c.1 0 .3-.1.3-.3s-.1-.3-.3-.3c-.1 0-.3.1-.3.3s.2.3.3.3" class="st0"/></svg>