<svg xmlns="http://www.w3.org/2000/svg" xml:space="preserve" id="图层_1" x="0" y="0" viewBox="0 0 32 32"><style>.st0{fill:#fff}</style><path d="M20.2 18.8c.2 0 .3-.1.3-.2s-.1-.2-.3-.2-.3.1-.3.2.1.2.3.2" class="st0"/><path d="M18.4 18.6c0 .9.8 1.7 1.8 1.7s1.8-.8 1.8-1.7-.8-1.7-1.8-1.7-1.8.8-1.8 1.7m1.8-.9c.6 0 1.1.4 1.1 1 0 .5-.5 1-1.1 1s-1.1-.4-1.1-1 .5-1 1.1-1m-5.6 2.6c1 0 1.8-.8 1.8-1.7s-.8-1.7-1.8-1.7-1.8.8-1.8 1.7.8 1.7 1.8 1.7m0-2.6c.6 0 1.1.4 1.1 1 0 .5-.5 1-1.1 1s-1.1-.4-1.1-1c.1-.6.5-1 1.1-1" class="st0"/><path d="M30.7 9.8c-.8-1.9-2-3.6-3.4-5.1-1.5-1.5-3.2-2.6-5.1-3.4C20.3.4 18.2 0 16 0s-4.3.4-6.2 1.3c-1.9.8-3.6 2-5.1 3.4-1.5 1.5-2.6 3.2-3.4 5.1C.4 11.7 0 13.8 0 16s.4 4.3 1.3 6.2c.8 1.9 2 3.6 3.4 5.1 1.5 1.5 3.2 2.6 5.1 3.4 2 .8 4.1 1.3 6.2 1.3s4.3-.4 6.2-1.3c1.9-.8 3.6-2 5.1-3.4 1.5-1.5 2.6-3.2 3.4-5.1.8-2 1.3-4.1 1.3-6.2s-.4-4.3-1.3-6.2m-1.3 11.8c-.7 1.7-1.8 3.3-3.1 4.6s-2.9 2.4-4.6 3.1c-1.8.8-3.7 1.1-5.6 1.1s-3.9-.4-5.6-1.1-3.3-1.8-4.6-3.1-2.4-2.9-3.1-4.6C1.9 19.9 1.5 18 1.5 16s.4-3.9 1.1-5.6 1.8-3.3 3.1-4.6 2.9-2.4 4.6-3.1Q13 1.5 16 1.5c2 0 3.9.4 5.6 1.1s3.3 1.8 4.6 3.1 2.4 2.9 3.1 4.6c.8 1.8 1.1 3.7 1.1 5.6s-.3 4-1 5.7" class="st0"/><path d="M14.6 18.8c.2 0 .3-.1.3-.2s-.1-.2-.3-.2-.3.1-.3.2.1.2.3.2m2.4-2.9c1.2 0 2.1-.9 2.1-2.1s-.9-2.1-2.1-2.1-2.1.9-2.1 2.1 1 2.1 2.1 2.1m0-3.4c.7 0 1.3.6 1.3 1.3s-.6 1.3-1.3 1.3-1.3-.6-1.3-1.3.6-1.3 1.3-1.3" class="st0"/><path d="M6.7 12.5H3.6v5.9h5.3l1.7 4.7h17.9V8.9h-23zm-1.6 4.4V14h2.2l1 2.9zm21.8-6.5v11.2H11.6l-4-11.2z" class="st0"/><path d="M17 14.4c.3 0 .6-.3.6-.6s-.3-.6-.6-.6-.6.3-.6.6c0 .4.3.6.6.6" class="st0"/></svg>