<svg xmlns="http://www.w3.org/2000/svg" xml:space="preserve" id="图层_1" x="0" y="0" viewBox="0 0 32 32"><style>.st0{fill:#fff}</style><path d="M20.7 21.5c1.2 0 2.2-.2 2.8-.7s1-1.3 1-2.3c0-1.1-.2-1.7-.7-2.2-.5-.4-1.2-.8-2.5-1.1-1.9-.4-2.2-.8-2.2-1.8 0-1.4.7-1.7 2.2-1.7 1 0 2.1.2 2.7.4v-1.3c-.6-.2-1.8-.4-2.7-.4-2.4 0-3.6.9-3.6 2.9 0 1 .2 1.6.7 2 .5.5 1.3.7 2.3 1 1.3.3 1.7.5 2 .8s.5.7.5 1.4c0 .6-.2 1.1-.6 1.4s-1 .4-1.8.4c-1.2 0-2.5-.2-3.2-.5v1.3c.4.2 1.7.4 3.1.4" class="st0"/><path d="M0 6.2v19.5h32V6.2zm30.5 18.1h-29V7.7h29z" class="st0"/><path d="M11.2 21.3h1.7l3.7-10.6h-1.5l-3 9.2H12l-3-9.2H7.5z" class="st0"/></svg>