<svg xmlns="http://www.w3.org/2000/svg" xml:space="preserve" id="图层_1" x="0" y="0" viewBox="0 0 32 32"><style>.st0{fill:#fff}</style><path d="M30.7 9.8c-.8-1.9-2-3.6-3.4-5.1-1.5-1.5-3.2-2.6-5.1-3.4C20.3.4 18.2 0 16 0s-4.3.4-6.2 1.3c-1.9.8-3.6 2-5.1 3.4-1.5 1.5-2.6 3.2-3.4 5.1C.4 11.7 0 13.8 0 16s.4 4.3 1.3 6.2c.8 1.9 2 3.6 3.4 5.1 1.5 1.5 3.2 2.6 5.1 3.4 2 .8 4.1 1.3 6.2 1.3s4.3-.4 6.2-1.3c1.9-.8 3.6-2 5.1-3.4 1.5-1.5 2.6-3.2 3.4-5.1.8-2 1.3-4.1 1.3-6.2s-.4-4.3-1.3-6.2m-1.3 11.8c-.7 1.7-1.8 3.3-3.1 4.6s-2.9 2.4-4.6 3.1c-1.8.8-3.7 1.1-5.6 1.1s-3.9-.4-5.6-1.1-3.3-1.8-4.6-3.1-2.4-2.9-3.1-4.6C1.9 19.9 1.5 18 1.5 16s.4-3.9 1.1-5.6 1.8-3.3 3.1-4.6 2.9-2.4 4.6-3.1Q13 1.5 16 1.5c2 0 3.9.4 5.6 1.1s3.3 1.8 4.6 3.1 2.4 2.9 3.1 4.6c.8 1.8 1.1 3.7 1.1 5.6s-.3 4-1 5.7" class="st0"/><path d="M17.6 12.4c1 0 1.8-.8 1.8-1.8s-.8-1.8-1.8-1.8-1.8.8-1.8 1.8c.1 1 .9 1.8 1.8 1.8m0-2.8c.6 0 1 .5 1 1 0 .6-.5 1-1 1s-1-.5-1-1 .5-1 1-1m3.7 9.9V18h-6.5v1.5h2.4L13.5 26h9.1s-2.7-4.6-3.8-6.5zM18 21.1l.4.6h-.7zm-1.9 3.4.7-1.2h2.5l.7 1.2z" class="st0"/><path d="M17.6 10.9c.1 0 .3-.1.3-.3s-.1-.3-.3-.3c-.1 0-.3.1-.3.3s.2.3.3.3" class="st0"/><path d="M8.8 9.5H6.5v4.8h4l1.3 3.5h13.8v-11H7.8zM8 12.8V11h1.3l.7 1.8zm16-4.5v8H12.8l-2.9-8z" class="st0"/><path d="M18.5 14.3c0 .8.7 1.5 1.5 1.5s1.5-.7 1.5-1.5-.7-1.5-1.5-1.5-1.5.6-1.5 1.5m-2.7 1.4c.9 0 1.5-.7 1.5-1.5s-.7-1.5-1.5-1.5c-.9 0-1.5.7-1.5 1.5 0 .9.7 1.5 1.5 1.5" class="st0"/></svg>