<svg xmlns="http://www.w3.org/2000/svg" xml:space="preserve" viewBox="0 0 32 32"><path d="M30.7 9.8c-.8-1.9-2-3.6-3.4-5.1-1.5-1.5-3.2-2.6-5.1-3.4C20.3.4 18.2 0 16 0s-4.3.4-6.2 1.3c-1.9.8-3.6 2-5.1 3.4-1.5 1.5-2.6 3.2-3.4 5.1C.4 11.7 0 13.8 0 16s.4 4.3 1.3 6.2c.8 1.9 2 3.6 3.4 5.1 1.5 1.5 3.2 2.6 5.1 3.4 2 .8 4.1 1.3 6.2 1.3s4.3-.4 6.2-1.3c1.9-.8 3.6-2 5.1-3.4 1.5-1.5 2.6-3.2 3.4-5.1.8-2 1.3-4.1 1.3-6.2s-.4-4.3-1.3-6.2m-28.1.6c.7-1.7 1.8-3.3 3.1-4.6s2.9-2.4 4.6-3.1Q13 1.5 16 1.5c2 0 3.9.4 5.6 1.1s3.3 1.8 4.6 3.1c.5.5.9 1 1.3 1.5l-17.3 18-8.6-7.4c-.1-.6-.1-1.3-.1-1.9 0-1.9.4-3.8 1.1-5.5m26.8 11.2c-.7 1.7-1.8 3.3-3.1 4.6s-2.9 2.4-4.6 3.1c-1.8.8-3.7 1.1-5.6 1.1s-3.9-.4-5.6-1.1-3.3-1.8-4.6-3.1-2.4-2.9-3.1-4.6c-.2-.4-.3-.9-.5-1.3l8.2 7 .2-.2L28.4 8.6c.3.6.7 1.2.9 1.8.8 1.8 1.1 3.7 1.1 5.6s-.3 3.9-1 5.6" style="fill:#fff"/></svg>