<svg xmlns="http://www.w3.org/2000/svg" xml:space="preserve" id="图层_1" x="0" y="0" viewBox="0 0 32 32"><style>.st0{fill:#fff}</style><path d="M17.7 19.8c0 2.6 2.1 4.7 4.7 4.7s4.7-2.1 4.7-4.7-2.1-4.7-4.7-4.7-4.7 2.1-4.7 4.7m8 0c0 1.8-1.5 3.2-3.2 3.2-1.8 0-3.2-1.5-3.2-3.2 0-1.8 1.5-3.2 3.2-3.2s3.2 1.5 3.2 3.2m-3.2-5.5V7.7h-13v6.6zM21 12.8H11V9.2h10z" class="st0"/><path d="M0 4.3v23.4h32V4.3zm30.5 21.9h-29V5.8h29z" class="st0"/><path d="M9.6 24.6c2.6 0 4.7-2.1 4.7-4.7s-2.1-4.7-4.7-4.7-4.7 2.1-4.7 4.7c-.1 2.6 2.1 4.7 4.7 4.7m0-8c1.8 0 3.2 1.5 3.2 3.2 0 1.8-1.5 3.2-3.2 3.2-1.8 0-3.2-1.5-3.2-3.2-.1-1.7 1.4-3.2 3.2-3.2" class="st0"/></svg>