<svg xmlns="http://www.w3.org/2000/svg" xml:space="preserve" id="图层_1" x="0" y="0" viewBox="0 0 32 32"><style>.st0{fill:#fff}</style><path d="M16.1 6.2 0 16.4l16.1 9.4 16.1-9.4zM2.9 16.3l13.3-8.4 13.3 8.4-13.3 7.8z" class="st0"/><path d="M17.8 15.8c.1-.1.2-.1.3-.2.1 0 .1-.1.2-.1.2-.1.3-.2.4-.3l.2-.2c.1-.1.2-.2.2-.4 0-.1.1-.2.1-.3s.1-.3.1-.4v-.5c0-1.1-.2-1.8-.8-2.2-.6-.5-1.5-.7-2.9-.7h-3.2v11H16c1.4 0 2.4-.3 3-.8.5-.5.8-1.2.8-2.3 0-1.5-.7-2.3-2-2.6m-2.4 4.5H14v-3.8h1.5c1.1 0 1.8.1 2.3.4.4.3.6.7.6 1.4-.1 1.6-.7 2-3 2m-1.4-5v-3.6h1c2.1 0 2.9.2 2.9 1.8 0 .7-.2 1.2-.7 1.4-.4.3-1.1.4-2.3.4z" class="st0"/></svg>