<svg xmlns="http://www.w3.org/2000/svg" xml:space="preserve" id="图层_1" x="0" y="0" viewBox="0 0 32 32"><style>.st0{fill:#fff}</style><path d="M16.1 6.2 0 16.4l16.1 9.4 16.1-9.4zM2.9 16.3l13.3-8.4 13.3 8.4-13.3 7.8z" class="st0"/><path d="M15.9 15.4s0-.1 0 0l5.5-1.9-.4-1.4-5.7 1.9c-.2-.2-.3-.4-.6-.6l2.5-2.3-1-1.1-2.8 2.6.1.1c-.4-.2-.9-.3-1.4-.3-2.1 0-3.9 1.7-3.9 3.9s1.8 3.7 4 3.7c1.9 0 3.4-1.3 3.8-3.1h10.4v-1.5zm-3.7 3.1c-1.3 0-2.4-1.1-2.4-2.4s1.1-2.4 2.4-2.4 2.4 1.1 2.4 2.4-1.1 2.4-2.4 2.4" class="st0"/></svg>