<svg xmlns="http://www.w3.org/2000/svg" xml:space="preserve" id="图层_1" x="0" y="0" viewBox="0 0 32 32"><style>.st0{fill:#fff}</style><path d="m25 12.5-1.4 2.1-1.5-2.1-1.2.8 1.8 2.7-1.8 2.7 1.2.8 1.5-2.1 1.4 2.1 1.2-.8-1.7-2.7 1.7-2.7zm-6.3.1-1.2-.8-1.9 2.8v-4.3H3.1v11.4h12.5v-4.2l2 2.9 1.2-.8-2.4-3.5zm-4.6 2.6h-4v-3.4h4zm-5.5-3.4v3.4h-4v-3.4zm-4 5h4v3.4h-4zm5.5 3.4v-3.4h4v3.4z" class="st0"/><path d="M0 4.8v22.3h32V4.8zm1.5 20.9V6.3h29v6.3c-.6-.5-1.3-.8-2-.8v1.5c.5 0 .9.3 1.3.7.4.5.6 1.2.6 2s-.2 1.5-.6 2-.8.7-1.3.7v1.5c.8 0 1.5-.3 2-.8v6.3z" class="st0"/></svg>