<svg xmlns="http://www.w3.org/2000/svg" xml:space="preserve" id="图层_1" x="0" y="0" viewBox="0 0 32 32"><style>.st0{fill:#fff}</style><path d="M13.2 17.4c.4 0 .8-.1 1.2-.4.3-.3.6-.8.5-1.8-.1-.5-.2-.9-.2-.9v-.1l-.2-.2c-2.1-2.3-4.1-3.4-6.1-3.1-2.8.3-4.4 3.2-4.5 3.3 0 0-.2.5-.3 1.1-.2.7-.3 1.6.4 2.1.2.1.4.2.7.2.1 0 .3 0 .5-.1L2.8 21h12.6L13 17.2c0 .2.1.2.2.2m-8.3-1.3c0-.3.2-.8.3-1.2.2-.3 1.4-2.3 3.3-2.5 1.5-.2 3.1.7 4.7 2.5.1.4.2.8.1.9-.1 0-.5.2-2.2-.7-.1-.1-.8-.4-1.8-.5s-2.5 0-4.1 1.1c-.1.2-.2.3-.3.4m7.6 3.5h-7l2.3-3.4c.4-.1.9-.2 1.3-.1.8.1 1.3.3 1.4.3h.1z" class="st0"/><path d="M0 5.1v21.8h32V5.1zm30.5 20.3h-5.4v-4.5h-1.5v4.5h-5.3v-4.5h-1.5v4.5H1.5V6.6h15.4v4.5h1.5V6.6h5.3v4.5h1.5V6.6h5.4v18.8z" class="st0"/></svg>