<svg xmlns="http://www.w3.org/2000/svg" xml:space="preserve" id="图层_1" x="0" y="0" viewBox="0 0 32 32"><style>.st0{fill:#fff}</style><path d="M25.3 21.3c3 0 4.6-1.1 4.6-5.3s-1.6-5.3-4.6-5.3-4.6 1.1-4.6 5.3 1.6 5.3 4.6 5.3m0-9c2.1 0 2.6 1.1 2.6 3.7 0 2.7-.5 3.7-2.6 3.7s-2.6-1-2.6-3.7c0-2.6.5-3.7 2.6-3.7M19 19.5h-4.4v-2.8h3.9V15h-3.9v-2.5h4.2v-1.7h-6.2v10.4H19z" class="st0"/><path d="M0 3.8v24.3h32V3.8zm30.5 22.9h-29V5.3h29z" class="st0"/><path d="M10.5 16c0-4.3-2-5.2-5-5.2H2.1v10.3h3.3c3.1.1 5.1-1.1 5.1-5.1m-5.1 3.5H4.1v-7h1.3c1.9 0 3.1.6 3.1 3.5 0 2.7-1.1 3.5-3.1 3.5" class="st0"/></svg>