<svg xmlns="http://www.w3.org/2000/svg" xml:space="preserve" id="图层_1" x="0" y="0" viewBox="0 0 32 32"><style>.st0{fill:#fff}</style><path d="M0 6.1v19.7h32V6.1zm30.5 18.3h-29V7.6h29z" class="st0"/><path d="M21.7 21.4c1.2 0 2.2-.2 2.8-.7s1-1.3 1-2.3-.2-1.7-.7-2.2c-.5-.4-1.2-.7-2.5-1-1.9-.4-2.1-.8-2.1-1.8 0-1.4.7-1.6 2.1-1.6 1 0 2.1.2 2.6.4V11c-.6-.2-1.8-.4-2.6-.4-2.4 0-3.5.9-3.5 2.9 0 .9.2 1.5.7 2s1.3.7 2.3 1c1.2.3 1.7.5 1.9.7.3.3.5.7.5 1.3s-.2 1.1-.6 1.4-1 .4-1.8.4c-1.2 0-2.5-.2-3.1-.5V21c.4.2 1.7.4 3 .4M7.9 12.2H8l2.7 6.7h1.5l2.7-6.7h.1v9.1h1.4V10.7h-2.2l-2.7 6.8h-.1l-2.6-6.7v-.1H6.5v10.6h1.4z" class="st0"/></svg>