<svg xmlns="http://www.w3.org/2000/svg" xml:space="preserve" id="图层_1" x="0" y="0" viewBox="0 0 32 32"><style>.st0{fill:#fff}</style><path d="M13 22h5.2v-1.5h-3.7v-3.7h3.7v-1.6h-3.7v-3.7h3.7V10H13z" class="st0"/><path d="M16 6.2c-2.6 0-5.1 1-6.9 2.9C7.2 11 6.2 13.4 6.2 16s1 5.1 2.9 6.9c1.9 1.9 4.3 2.9 6.9 2.9s5.1-1 6.9-2.9c1.9-1.9 2.9-4.3 2.9-6.9s-1-5.1-2.9-6.9c-1.8-1.9-4.3-2.9-6.9-2.9m5.9 15.7c-1.6 1.6-3.7 2.4-5.9 2.4s-4.3-.9-5.9-2.4c-1.6-1.6-2.4-3.7-2.4-5.9s.9-4.3 2.4-5.9c1.6-1.6 3.7-2.4 5.9-2.4s4.3.9 5.9 2.4c1.6 1.6 2.4 3.7 2.4 5.9s-.9 4.3-2.4 5.9" class="st0"/><path d="M30.7 9.8c-.8-1.9-2-3.6-3.4-5.1-1.5-1.5-3.2-2.6-5.1-3.4C20.3.4 18.2 0 16 0s-4.3.4-6.2 1.3c-1.9.8-3.6 2-5.1 3.4-1.5 1.5-2.6 3.2-3.4 5.1C.4 11.7 0 13.8 0 16s.4 4.3 1.3 6.2c.8 1.9 2 3.6 3.4 5.1 1.5 1.5 3.2 2.6 5.1 3.4 2 .8 4.1 1.3 6.2 1.3s4.3-.4 6.2-1.3c1.9-.8 3.6-2 5.1-3.4 1.5-1.5 2.6-3.2 3.4-5.1.8-2 1.3-4.1 1.3-6.2s-.4-4.3-1.3-6.2m-1.3 11.8c-.7 1.7-1.8 3.3-3.1 4.6s-2.9 2.4-4.6 3.1c-1.8.8-3.7 1.1-5.6 1.1s-3.9-.4-5.6-1.1-3.3-1.8-4.6-3.1-2.4-2.9-3.1-4.6C1.9 19.9 1.5 18 1.5 16s.4-3.9 1.1-5.6 1.8-3.3 3.1-4.6 2.9-2.4 4.6-3.1Q13 1.5 16 1.5c2 0 3.9.4 5.6 1.1s3.3 1.8 4.6 3.1 2.4 2.9 3.1 4.6c.8 1.8 1.1 3.7 1.1 5.6s-.3 4-1 5.7" class="st0"/></svg>