<svg xmlns="http://www.w3.org/2000/svg" xml:space="preserve" viewBox="0 0 32 32"><path d="M30.7 9.8c-.8-1.9-2-3.6-3.4-5.1-1.5-1.5-3.2-2.6-5.1-3.4C20.3.4 18.2 0 16 0s-4.3.4-6.2 1.3c-1.9.8-3.6 2-5.1 3.4-1.5 1.5-2.6 3.2-3.4 5.1C.4 11.7 0 13.8 0 16s.4 4.3 1.3 6.2c.8 1.9 2 3.6 3.4 5.1 1.5 1.5 3.2 2.6 5.1 3.4 2 .8 4.1 1.3 6.2 1.3s4.3-.4 6.2-1.3c1.9-.8 3.6-2 5.1-3.4 1.5-1.5 2.6-3.2 3.4-5.1.8-2 1.3-4.1 1.3-6.2s-.4-4.3-1.3-6.2m-19 20-.1-11c.1-.4.7-2.9 2.7-4.3l.6-.3v8.1h4.6l.1 7.8c-1.2.3-2.4.5-3.7.5-1.4-.1-2.8-.3-4.2-.8m4.7-16.1c.9-.1 1.9-.1 3.1.1l.1 6.9h-3.1v-7zm13 7.9c-.7 1.7-1.8 3.3-3.1 4.6s-2.9 2.4-4.6 3.1c-.2.1-.3.1-.5.2L21 12.7l-.6-.1c-2.8-.7-5.1-.5-7 .7-2.8 1.8-3.4 5.2-3.4 5.4v.1l.1 10.6c-1.7-.7-3.1-1.7-4.4-3s-2.4-2.9-3.1-4.6C1.9 19.9 1.5 18 1.5 16s.4-3.9 1.1-5.6 1.8-3.3 3.1-4.6 2.9-2.4 4.6-3.1Q13 1.5 16 1.5c2 0 3.9.4 5.6 1.1s3.3 1.8 4.6 3.1 2.4 2.9 3.1 4.6c.8 1.8 1.1 3.7 1.1 5.6s-.3 4-1 5.7" style="fill:#fff"/></svg>