<svg xmlns="http://www.w3.org/2000/svg" xml:space="preserve" id="图层_1" x="0" y="0" viewBox="0 0 32 32"><style>.st0{fill:#fff}</style><path d="M16.6 13v6h3.1l3.9 3.6V9.3L19.9 13zm1.5 1.5h1.2v3h-1.2zm4 4.7L20.9 18v-3.9l1.2-1.2zm-10.7-8c-2.7 0-4.8 2.2-4.8 4.8s2.2 4.8 4.8 4.8 4.8-2.2 4.8-4.8c.1-2.7-2.1-4.8-4.8-4.8m3.4 4.8c0 .6-.2 1.1-.4 1.6L12.5 16l1.8-1.6c.3.5.5 1 .5 1.6m-1.5-2.7L11.4 15l-1.9-1.7c.5-.4 1.2-.6 1.9-.6s1.4.2 1.9.6m-4.8 4.3c-.3-.5-.4-1-.4-1.6s.2-1.1.4-1.6l1.8 1.6zm1 1.1 1.9-1.7 1.9 1.7c-.5.4-1.2.6-1.9.6s-1.4-.2-1.9-.6" class="st0"/><path d="M24.1 5.7H7.9L0 26.3h32.1zM2.2 24.8 9 7.2h14.1l6.8 17.6z" class="st0"/></svg>