<svg xmlns="http://www.w3.org/2000/svg" xml:space="preserve" id="图层_1" x="0" y="0" viewBox="0 0 32 32"><style>.st0{fill:#fff}</style><path d="M23.2 8.9H7.8V5H6.3v3.9H2.2v14.9h4.1v3.9h1.5v-3.9h15.3v-3.4H27v-1.5h-3.9v-10zm-1.5 13.4h-18V10.4h17.9v11.9z" class="st0"/><path d="M29.3 11.8c-.4-.3-1-.5-1.9-.5h-1.8v6.5h.9v-2.3h.9c.9 0 1.4-.2 1.8-.5s.6-.9.6-1.6c0-.8-.2-1.3-.5-1.6m-2.9.3h.9c1.2 0 1.6.3 1.6 1.3 0 1.1-.4 1.4-1.6 1.4h-.9zM10.7 24.7l-2.5 6.5h.9l.7-1.9h2.8l.7 1.9h.9l-2.5-6.5zm.6.8 1.1 3h-2.3zm-.4-18.2c1 0 1.8-.2 2.3-.7s.8-1.3.8-2.5c0-1.3-.3-2.1-.9-2.6-.5-.4-1.2-.6-2.3-.6H9v6.5zm-1-.7v-5h1c.8 0 1.3.1 1.6.5.4.4.6 1.1.6 2 0 1.7-.7 2.5-2.3 2.5zM14 4.1" class="st0"/></svg>