<svg xmlns="http://www.w3.org/2000/svg" xml:space="preserve" id="图层_1" x="0" y="0" viewBox="0 0 32 32"><style>.st0{fill:#fff}</style><path d="M19.1 4.1c0-2.7-1.3-3.2-3.1-3.2h-1.9v6.5H16c1.8-.1 3.1-.8 3.1-3.3m-4.2 2.5v-5h1c1.3 0 2.3.4 2.3 2.5 0 2-.9 2.5-2.3 2.5zM1.2 6h1.1l1.8 2.6h1l-2-2.7C4 5.7 4.5 5.2 4.5 4c0-1.4-.7-1.9-2.5-1.9H.3v6.5h.8V6zm0-3.1h.7c1.2 0 1.7.2 1.7 1.2 0 1.1-.5 1.3-1.7 1.3h-.7zm9.9 24.6c-1.2-.3-1.3-.5-1.3-1.1 0-.8.4-1 1.3-1 .6 0 1.2.1 1.6.3v-.8c-.3-.1-1-.2-1.6-.2-1.5 0-2.2.6-2.2 1.8 0 1.1.5 1.5 1.8 1.8 1.2.3 1.5.5 1.5 1.3s-.5 1.1-1.5 1.1c-.8 0-1.5-.2-1.9-.3v.6c.3.1 1.1.3 1.9.2 1.5 0 2.3-.6 2.3-1.8s-.5-1.6-1.9-1.9" class="st0"/><path d="M25.1 8.9h-3.4V5h-1.5v3.9h-16v3.6H.3V14h3.9v9.9h9.7v3.9h1.5v-3.9h9.7v-3.4H29V19h-3.9zm-1.5 13.5H5.7v-12h17.9zm7.9-4.6h-.1z" class="st0"/><path d="M31.4 11.3h-1.1L28 14h-.4v-2.7h-.8v6.5h.8v-3h.4l2.4 3h1l-2.7-3.4z" class="st0"/></svg>