<svg xmlns="http://www.w3.org/2000/svg" xml:space="preserve" id="图层_1" x="0" y="0" viewBox="0 0 32 32"><style>.st0{fill:#fff}</style><path d="M30.6 9.7c-.8-1.9-1.9-3.6-3.4-5s-3.1-2.6-5-3.4c-2-.8-4-1.2-6.2-1.2s-4.2.4-6.2 1.2c-1.8.8-3.5 1.9-5 3.4-1.4 1.5-2.6 3.1-3.4 5-.8 2-1.2 4-1.2 6.2v.8h6L1.4 32h29.2l-5-15.4h6.3v-.8c-.1-2.1-.5-4.1-1.3-6.1M3.5 30.5 9.2 12h13.2l6.1 18.5zm21.6-15.4-1.5-4.6H8.1l-1.4 4.6h-5c.1-1.7.5-3.3 1.1-4.8.7-1.7 1.8-3.2 3.1-4.5s2.8-2.3 4.5-3.1C12.2 2 14 1.6 16 1.6s3.8.4 5.6 1.1c1.7.7 3.2 1.8 4.5 3.1s2.3 2.8 3.1 4.5c.7 1.5 1 3.2 1.1 4.8z" class="st0"/><path d="M16.3 20.2c-2.4-.5-2.7-1-2.7-2.2 0-.8.2-1.4.7-1.7.4-.3 1-.4 2-.4h.6c1.1.1 2.1.3 2.7.5v-1.6c-.8-.3-2.3-.5-3.3-.5q-2.25 0-3.3.9c-.7.6-1.1 1.5-1.1 2.7s.3 1.9.8 2.5c.6.6 1.6.9 2.9 1.2 1.6.4 2.1.6 2.5.9.4.4.6.8.6 1.7 0 .8-.2 1.4-.8 1.7-.5.3-1.2.5-2.2.5-1.5 0-3.1-.3-3.9-.6v1.6c.6.2 2.2.5 3.9.5 1.5 0 2.7-.3 3.5-.9s1.2-1.6 1.2-2.9-.3-2.2-.9-2.8c-.7-.3-1.6-.7-3.2-1.1m2.8 1.1.1.1s-.1 0-.1-.1" class="st0"/></svg>