<svg xmlns="http://www.w3.org/2000/svg" xml:space="preserve" id="图层_1" x="0" y="0" viewBox="0 0 32 32"><style>.st0{fill:#fff}</style><path d="M0 4.9v22.2h32V4.9zm30.5 20.7h-29V6.4h29z" class="st0"/><path d="M22.1 16.9h1.5l2.4 3.6h1.4l-2.7-3.7c1.2-.3 1.8-1 1.8-2.5 0-2-.9-2.6-3.4-2.6H21v8.9h1.1zm0-4.3h1c1.6 0 2.3.3 2.3 1.6 0 1.5-.7 1.7-2.3 1.7h-1zm-5.5 7.8 3-8.8h-1.2l-2.5 7.6h-.1l-2.4-7.6h-1.3l3 8.8zM11.4 16c0-3.7-1.7-4.4-4.3-4.4H4.6v8.9h2.5c2.6-.1 4.3-1.1 4.3-4.5m-5.7 3.4v-6.9h1.4c1.8 0 3.1.6 3.1 3.4 0 2.7-1.3 3.4-3.1 3.4H5.7z" class="st0"/></svg>