<svg xmlns="http://www.w3.org/2000/svg" xml:space="preserve" id="图层_1" x="0" y="0" viewBox="0 0 32 32"><style>.st0{fill:#fff}</style><path d="M0 0v32h32V0zm30.5 30.5h-29v-29h29z" class="st0"/><path d="M25.2 19.8h1.2l1.3-2.2h.1l1.2 2.2h1.3l-1.8-2.9 1.7-2.8H29l-1.2 2.2-1.2-2.2h-1.3l1.7 2.8zM20.5 17h1l1.8 2.8H25l-2.1-2.9c1-.3 1.4-.9 1.4-2.1 0-1.7-.8-2.3-2.8-2.3h-2.3v7.4h1.4V17zm0-3.5h.7c1.2 0 1.6.2 1.6 1.2 0 1.1-.5 1.2-1.6 1.2h-.7zM4 19.8h1.4v-6.2h2v-1.2H2v1.2h2zm13.6-7.7h-1.1l-2.8 8h1zm-9.9 7.7h1.2l1.3-2.2h.1l1.2 2.2h1.3L11 16.9l1.7-2.8h-1.2l-1.2 2.2-1.2-2.2H7.8l1.7 2.8z" class="st0"/></svg>