<svg xmlns="http://www.w3.org/2000/svg" xml:space="preserve" id="图层_1" x="0" y="0" viewBox="0 0 32 32"><style>.st0{fill:#fff}</style><path d="M30.7 9.8c-.8-1.9-2-3.6-3.4-5.1-1.5-1.5-3.2-2.6-5.1-3.4C20.3.4 18.2 0 16 0s-4.3.4-6.2 1.3c-1.9.8-3.6 2-5.1 3.4-1.5 1.5-2.6 3.2-3.4 5.1C.4 11.7 0 13.8 0 16s.4 4.3 1.3 6.2c.8 1.9 2 3.6 3.4 5.1 1.5 1.5 3.2 2.6 5.1 3.4 2 .8 4.1 1.3 6.2 1.3s4.3-.4 6.2-1.3c1.9-.8 3.6-2 5.1-3.4 1.5-1.5 2.6-3.2 3.4-5.1.8-2 1.3-4.1 1.3-6.2s-.4-4.3-1.3-6.2m-1.3 11.8c-.7 1.7-1.8 3.3-3.1 4.6s-2.9 2.4-4.6 3.1c-1.6.7-3.2 1-4.9 1.1V25l1.9 1.6c.1.1.3.2.5.2q.3 0 .6-.3c.3-.3.2-.8-.1-1.1l-2.4-2 2.4-2c.3-.3.4-.7.1-1.1-.3-.3-.7-.4-1.1-.1l-1.9 1.6v-3.7c0-.4-.3-.8-.8-.8-.4 0-.8.3-.8.8v3.7l-1.9-1.6c-.3-.3-.8-.2-1.1.1s-.2.8.1 1.1l2.4 2-2.4 2c-.3.3-.4.7-.1 1.1.1.2.4.3.6.3s.3-.1.5-.2l1.9-1.6v5.4c-1.7-.1-3.3-.4-4.9-1.1-1.7-.7-3.3-1.8-4.6-3.1s-2.4-2.9-3.1-4.6S1.5 18 1.5 16s.4-3.9 1.1-5.6 1.8-3.3 3.1-4.6 2.9-2.4 4.6-3.1Q13 1.5 16 1.5c2 0 3.9.4 5.6 1.1s3.3 1.8 4.6 3.1 2.4 2.9 3.1 4.6c.8 1.8 1.1 3.7 1.1 5.6s-.3 4-1 5.7" class="st0"/><path d="M12.2 11.8h1.9v2.6c-.4.1-.8.1-1.3.1-1.2 0-1.9-.2-2.3-.7-.5-.5-.7-1.5-.7-3 0-1.4.2-2.3.8-2.9.5-.5 1.2-.7 2.4-.7 1 0 1.9.1 2.6.4V5.8c-.6-.2-1.8-.4-2.8-.4h-.7c-.3 0-.6.1-.8.1-.1 0-.2 0-.3.1-.2.1-.4.1-.6.2-.1 0-.2.1-.3.1-.3.1-.5.2-.6.4-.1 0-.2.1-.3.1 0 .1-.1.1-.2.2l-.2.2c-.1.1-.2.2-.3.4-.1.1-.2.3-.2.4-.1.1-.2.3-.2.4-.1.2-.2.4-.2.7 0 .1-.1.3-.1.4-.1.2-.1.5-.1.8v.9c0 2.1.4 3.5 1.3 4.3.8.7 1.9 1 3.7 1 1.1 0 2.4-.2 3.3-.5V10h-3.8zm8-.3h3.9V9.8h-3.9V7.3h4.2V5.6h-6.2V16h6.5v-1.7h-4.5z" class="st0"/></svg>