<svg xmlns="http://www.w3.org/2000/svg" xml:space="preserve" id="图层_1" x="0" y="0" viewBox="0 0 32 32"><style>.st0{fill:#fff}</style><path d="M30.7 9.8c-.8-1.9-2-3.6-3.4-5.1-1.5-1.5-3.2-2.6-5.1-3.4C20.3.4 18.2 0 16 0s-4.3.4-6.2 1.3c-1.9.8-3.6 2-5.1 3.4-1.5 1.5-2.6 3.2-3.4 5.1C.4 11.7 0 13.8 0 16s.4 4.3 1.3 6.2c.8 1.9 2 3.6 3.4 5.1 1.5 1.5 3.2 2.6 5.1 3.4 2 .8 4.1 1.3 6.2 1.3s4.3-.4 6.2-1.3c1.9-.8 3.6-2 5.1-3.4 1.5-1.5 2.6-3.2 3.4-5.1.8-2 1.3-4.1 1.3-6.2s-.4-4.3-1.3-6.2m-1.3 11.8c-.7 1.7-1.8 3.3-3.1 4.6s-2.9 2.4-4.6 3.1c-1.6.7-3.2 1-4.9 1.1V25l1.9 1.6.9-1.2-2.4-2 2.4-2-.9-1.2-1.9 1.6v-3.7h-1.5v3.7l-1.9-1.6-.9 1.2 2.4 2-2.4 2 .9 1.2 1.9-1.6v5.4c-1.7-.1-3.3-.4-4.9-1.1-1.7-.7-3.3-1.8-4.6-3.1s-2.4-2.9-3.1-4.6C1.9 19.9 1.5 18 1.5 16s.4-3.9 1.1-5.6 1.8-3.3 3.1-4.6 2.9-2.4 4.6-3.1Q13 1.5 16 1.5c2 0 3.9.4 5.6 1.1s3.3 1.8 4.6 3.1 2.4 2.9 3.1 4.6c.8 1.8 1.1 3.7 1.1 5.6s-.3 4-1 5.7" class="st0"/><path d="M11.5 6.8H8.1v10.4h2v-3.4h1.3c2.9 0 4-1 4-3.6 0-1.3-.3-2.1-.9-2.7-.5-.4-1.5-.7-3-.7m-1.4 1.6h1.1c1.7 0 2.2.5 2.2 1.9 0 1.5-.5 1.9-2.2 1.9h-1.1zm6.1.2H19v8.6h2V8.6h2.9V6.8h-7.7z" class="st0"/></svg>