<svg xmlns="http://www.w3.org/2000/svg" xml:space="preserve" id="图层_1" x="0" y="0" viewBox="0 0 32 32"><style>.st0{fill:#fff}</style><path d="M15.9 15.2h.6v1.5h-.6zm-5.4-4.4H0v10.5h10.5v-9H14v-1.5zM9 19.7H1.5v-7.5H9zm5.6-4.5h.6v1.5h-.6zm-1.2 0h.6v1.5h-.6zm17.1-10H32v6.1h-1.5z" class="st0"/><path d="M12.1 15.2h.6v1.5h-.6zm-1.2 0h.6v1.5h-.6zm11.3 0h.6v1.5h-.6zm3.7 0h.6v1.5h-.6zm-1.2 0h.6v1.5h-.6z" class="st0"/><path d="M32 22.1V22L25.3 9.5l-1.4.7 3.3 6v.6h.3l3 5.6v5.1H32zm-8.6-6.9h.6v1.5h-.6zm-2.5 0h.6v1.5h-.6zm-3.8 0h.6v1.5h-.6zm1.3 0h.6v1.5h-.6zm1.3 0h.6v1.5h-.6z" class="st0"/></svg>