<svg xmlns="http://www.w3.org/2000/svg" xml:space="preserve" id="图层_1" x="0" y="0" viewBox="0 0 32 32"><style>.st0{fill:#fff}</style><path d="M15.8 10.7h-3.5v10.7h3.5c3.1 0 5.2-1.2 5.2-5.3 0-4.5-2.1-5.4-5.2-5.4m-.1 8.9h-1.4v-7.2h1.4c2 0 3.2.7 3.2 3.6 0 2.8-1.2 3.6-3.2 3.6" class="st0"/><path d="M0 6.2v19.5h32V6.2zm1.5 18.1v-2.9h3.4c3.1 0 5.2-1.2 5.2-5.3 0-4.4-2.1-5.3-5.2-5.3H1.5V7.7h29v11.6c-.8.3-1.5.4-2.5.4-2 0-3-.7-3-3.7 0-2.8 1-3.7 3.1-3.7.9 0 1.7.1 2.3.4v-1.8c-.7-.2-1.4-.3-2.4-.3-3.1 0-5.1 1.4-5.1 5.5 0 4.5 2 5.5 5.1 5.5 1 0 1.9-.2 2.5-.4v3.2h-29zm2-4.7v-7.2h1.4C6.8 12.4 8 13 8 16c0 2.8-1.1 3.6-3.2 3.6z" class="st0"/></svg>