<svg xmlns="http://www.w3.org/2000/svg" xml:space="preserve" id="图层_1" x="0" y="0" viewBox="0 0 32 32"><style>.st0{fill:#fff}</style><path d="M30.7 9.8c-.8-1.9-2-3.6-3.4-5.1-1.5-1.5-3.2-2.6-5.1-3.4C20.3.4 18.2 0 16 0s-4.3.4-6.2 1.3c-1.9.8-3.6 2-5.1 3.4-1.5 1.5-2.6 3.2-3.4 5.1C.4 11.7 0 13.8 0 16s.4 4.3 1.3 6.2c.8 1.9 2 3.6 3.4 5.1 1.5 1.5 3.2 2.6 5.1 3.4 2 .8 4.1 1.3 6.2 1.3s4.3-.4 6.2-1.3c1.9-.8 3.6-2 5.1-3.4 1.5-1.5 2.6-3.2 3.4-5.1.8-2 1.3-4.1 1.3-6.2s-.4-4.3-1.3-6.2m-1.3 11.8c-.7 1.7-1.8 3.3-3.1 4.6s-2.9 2.4-4.6 3.1c-1.8.8-3.7 1.1-5.6 1.1s-3.9-.4-5.6-1.1-3.3-1.8-4.6-3.1-2.4-2.9-3.1-4.6C1.9 19.9 1.5 18 1.5 16s.4-3.9 1.1-5.6 1.8-3.3 3.1-4.6 2.9-2.4 4.6-3.1Q13 1.5 16 1.5c2 0 3.9.4 5.6 1.1s3.3 1.8 4.6 3.1 2.4 2.9 3.1 4.6c.8 1.8 1.1 3.7 1.1 5.6s-.3 4-1 5.7" class="st0"/><path d="M26.7 8.2q-.15-.45-.6-.6l-8.5-1.2c-1.1-.1-2.1-.1-3.2 0L6.7 7.7c-.3 0-.5.2-.6.5l-1.3 4c-.7 2.2-.7 4.5-.1 6.6L6.1 24c.1.3.3.5.6.5l8.1 1c.4 0 .7.1 1.1.1.3 0 .7 0 1-.1l9-1c.3 0 .6-.3.6-.6l1.2-5.4q.45-2.4 0-4.8zm-.3 10-1.1 4.9-8.5 1q-.9.15-1.8 0l-7.6-1-1.3-4.7c-.5-1.9-.5-3.9.1-5.8L7.4 9l7.2-1q1.35-.15 2.7 0l8 1.1 1.1 4.9q.45 2.1 0 4.2" class="st0"/></svg>