<svg xmlns="http://www.w3.org/2000/svg" xml:space="preserve" id="图层_1" x="0" y="0" viewBox="0 0 32 32"><style>.st0{fill:#fff}</style><path d="M23 20.4c1.2 0 2-.2 2.5-.7.4-.4.7-1 .7-1.9v-.5c0-.1-.1-.3-.1-.4s-.1-.2-.1-.2c-.1-.1-.1-.2-.2-.3l-.2-.2c-.1-.1-.2-.2-.4-.2-.1 0-.1-.1-.2-.1s-.2-.1-.2-.1c.1 0 .1-.1.2-.1s.1-.1.2-.1c.1-.1.2-.1.3-.2.1 0 .1-.1.1-.1.1-.1.1-.2.2-.3 0-.1.1-.1.1-.2s.1-.2.1-.4V14c0-1.7-.9-2.3-3.1-2.3H20v8.7zm-.7-5.1h-.7V13h.7c1.3 0 1.9.1 1.9 1.1.1 1-.6 1.2-1.9 1.2m.3 1.2c1.4 0 1.9.3 1.9 1.2 0 1-.4 1.2-1.9 1.2h-1v-2.4z" class="st0"/><path d="M0 5.6v20.9h32V5.6zm30.5 19.3h-29V7.1h29z" class="st0"/><path d="M14.7 20.4h1.7v-7.3h2.3v-1.4h-6.3v1.4h2.3zm-6.3.1c1.1 0 1.9-.2 2.5-.6.5-.4.8-1.1.8-1.9 0-.9-.2-1.4-.5-1.8-.4-.4-1-.7-2-.9-.8-.3-1.2-.4-1.4-.6s-.3-.4-.3-.7c0-.8.4-1.1 1.5-1.1.8 0 1.7.2 2.2.3v-1.4c-.4-.1-1.2-.3-2.2-.3-2.1 0-3.1.8-3.1 2.5 0 .8.2 1.3.5 1.7.4.3.9.6 1.9.8 1.4.4 1.7.6 1.7 1.4 0 .9-.4 1.2-1.7 1.2-.9 0-2-.2-2.5-.4v1.5c.5.1 1.5.3 2.6.3" class="st0"/></svg>