<svg xmlns="http://www.w3.org/2000/svg" xml:space="preserve" viewBox="0 0 32 32"><path d="m16.7 20.3.1-6c1.6-.2 3.1-.9 4.3-2.1 1.4-1.4 2.1-3.2 2.1-5.1s-.8-3.7-2.1-5.1C19.7.7 17.9 0 16 0s-3.7.8-5.1 2.1C9.5 3.5 8.8 5.3 8.8 7.2s.8 3.7 2.1 5.1c1.2 1.2 2.7 1.9 4.4 2.1l-.1 5.9H7.9V32h16.3V20.3zM12.8 3.8l2.5 6.1h1.4l2.4-6.1h.1v8.1c-.9.6-2 1-3.2 1s-2.3-.4-3.2-1zm8.9 3.4c0 1.3-.5 2.6-1.2 3.5v-7c.8.9 1.2 2.2 1.2 3.5m-2.4-4.7h-.8l-2.4 6.1H16l-2.4-6.1h-.9c.9-.7 2.1-1.1 3.3-1.1 1.2.1 2.4.5 3.3 1.1m-9 4.7c0-1.4.5-2.7 1.3-3.6v7.3c-.8-1-1.3-2.3-1.3-3.7M21 21.8l-3.8 2.6c-.3-.2-.7-.4-1.2-.4-1.2 0-2.1.9-2.1 2.1 0 .2 0 .3.1.5l-4.6 3.2v-8zm-3.6 4.3c0 .8-.6 1.4-1.4 1.4-.2 0-.4 0-.5-.1zm-2.8 0c0-.8.6-1.4 1.4-1.4.2 0 .4 0 .5.1zq0 .15 0 0m2 0c0 .3-.3.6-.6.6s-.6-.3-.6-.6.3-.6.6-.6.6.3.6.6M11 30.5l3.8-2.6c.3.2.8.4 1.2.4 1.2 0 2.1-.9 2.1-2.1 0-.2 0-.3-.1-.5l4.6-3.2v8z" style="fill:#fff"/></svg>