<svg xmlns="http://www.w3.org/2000/svg" xml:space="preserve" id="图层_1" x="0" y="0" viewBox="0 0 32 32"><style>.st0{fill:#fff}</style><path d="M27.6 15.2V4.4H4.4v10.9H0v1.5h4.4v10.9h23.2V16.8H32v-1.5h-4.4zm-1.5 10.9H5.9V5.9h20.2z" class="st0"/><path d="m10.1 19.4 1.5-.4c-.1-.6-.2-1.6.2-1.9.3-.3 1.2-.1 2.3.4.1.1.4.3.8.5l-.5.9 1.3.8.5-.9c.1 0 .2.1.2.1 1.1.5 2.1.7 2.9.7.6 0 1.1-.1 1.5-.4 1-.6 1.5-1.9 1.3-3.8h-.4c.4-.7.5-1.6.4-2.8l-1.5.1c.1.9 0 2-.6 2.3-1.1.7-4-.8-5.2-1.6h-.2c-.9-.4-1.6-.6-2.3-.7-.7 0-1.2.1-1.6.5-1.2 1-.7 3.2-.7 3.4l.2-.1c-.5 1.2-.2 2.7-.1 2.9m9.1-2.6c.5 0 .9-.1 1.3-.3 0 .6-.2 1.2-.6 1.4-.7.4-1.9 0-3.1-.5l.5-.9c.8.2 1.4.3 1.9.3m-7.5-2.4c.3-.3 1.2-.1 2.3.4.2.1 1 .7 2 1.1l-.5.8c-.3-.2-.5-.3-.7-.4h-.2c-.9-.4-1.6-.6-2.3-.7-.3 0-.7 0-.9.1 0-.5.1-1.1.3-1.3" class="st0"/></svg>