<svg xmlns="http://www.w3.org/2000/svg" xml:space="preserve" id="图层_1" x="0" y="0" viewBox="0 0 32 32"><style>.st0{fill:#fff}</style><path d="M11.5 17.7c-.1-.6-.2-1.6.2-1.9.3-.3 1.2-.1 2.3.4.1.1.4.3.8.5l-.5.9 1.3.8.5-.9c.1 0 .2.1.2.1 1.1.5 2.1.7 2.9.7.6 0 1.1-.1 1.5-.4 1-.6 1.5-1.9 1.3-3.8l-1.5.1c.1.9 0 2-.6 2.3-.7.4-1.9 0-3.1-.5l.9-1.5-1.3-.8-.9 1.6c-.3-.2-.5-.3-.7-.4h-.2c-.9-.4-1.6-.6-2.3-.7-.7 0-1.2.1-1.6.5-1.2 1-.7 3.2-.7 3.4z" class="st0"/><path d="M27.6 15.2V4.4H4.4v10.9H0v1.5h4.4v10.9h23.2V16.8H32v-1.5h-4.4zm-1.5 10.9H5.9V5.9h20.2z" class="st0"/></svg>