<svg xmlns="http://www.w3.org/2000/svg" xml:space="preserve" id="图层_1" x="0" y="0" viewBox="0 0 32 32"><style>.st0{fill:#fff}</style><path d="m9.8 18.1 1.1-.3c-1 1.1-.6 3-.5 3.3l1.5-.4c-.1-.6-.2-1.6.2-1.9.3-.3 1.2-.1 2.3.4.1.1.4.3.8.5l-.5.9 1.3.8.5-.9c.1 0 .2.1.2.1 1.1.5 2.1.7 2.9.7.6 0 1.1-.1 1.5-.4 1-.6 1.5-1.9 1.3-3.8l-1.2.1c.5-.7.7-1.7.6-2.9.5-.7.7-1.7.6-3.1l-1.5.1c.1.9 0 2-.6 2.3-.7.4-1.9 0-3.1-.5l.9-1.5-1.3-.8-.9 1.6c-.3-.2-.5-.3-.7-.4H15c-.9-.4-1.6-.6-2.3-.7-.7 0-1.2.1-1.6.5-1 .9-.9 2.4-.7 3.1-1.1 1-.7 2.9-.6 3.2m5.3-.2-.1-.1c-.9-.4-1.6-.6-2.3-.7-.6 0-1.1.1-1.5.4-.1-.6-.1-1.4.2-1.7s1.2-.1 2.3.4c.2.2 1.2.8 2.3 1.3.1 0 .1.1.2.1l-.4.8c-.3-.3-.5-.4-.7-.5m5.2 1.6c-.7.4-1.9 0-3.1-.5l.6-1c.4.1.8.2 1.2.2.6 0 1.1-.1 1.5-.4.2-.1.3-.2.4-.3 0 .8-.1 1.7-.6 2M12 12.8c.3-.3 1.2-.1 2.3.4.1.1.4.3.8.5l-.5.9 1.3.8.5-.9c.1 0 .2.1.2.1 1.1.5 2.1.7 2.9.7.3 0 .5 0 .7-.1 0 .6-.2 1.2-.6 1.4-1.1.7-4-.8-5.2-1.6h-.2c-.9-.4-1.6-.6-2.3-.7h-.3c.1-.6.1-1.2.4-1.5" class="st0"/><path d="M27.6 15.2V4.4H4.4v10.9H0v1.5h4.4v10.9h23.2V16.8H32v-1.5h-4.4zm-1.5 10.9H5.9V5.9h20.2z" class="st0"/></svg>