<svg xmlns="http://www.w3.org/2000/svg" xml:space="preserve" viewBox="0 0 32 32"><path d="M19.6 13.9c0-.5-.2-.7-.8-.9-.5-.1-.5-.2-.5-.4 0-.3.2-.4.5-.4.2 0 .6.1.7.1v-.5c-.1-.1-.4-.1-.7-.1-.7 0-1 .2-1 .8 0 .5.2.7.8.8.5.1.6.2.6.5s-.2.4-.6.4c-.3 0-.7-.1-.8-.1v.5c.2.1.5.1.8.1.7 0 1-.3 1-.8m-3 .8c.3 0 .5-.1.7-.1v-.5c-.2.1-.4.1-.7.1-.5 0-.8-.2-.8-1s.3-1 .8-1c.2 0 .4 0 .6.1v-.5c-.2-.1-.4-.1-.7-.1-.8 0-1.4.4-1.4 1.5.1 1.2.7 1.5 1.5 1.5m-2.8 0c.4 0 .7-.1.9-.1V13h-1v.5h.5v.7h-.4c-.6 0-.8-.2-.8-1s.3-1 .9-1c.3 0 .5 0 .7.1v-.5c-.2-.1-.5-.1-.8-.1-.9 0-1.4.4-1.4 1.5 0 1.2.5 1.5 1.4 1.5M0 15.2h32v1.5H0z" style="fill:#fff"/></svg>