<svg xmlns="http://www.w3.org/2000/svg" xml:space="preserve" id="图层_1" x="0" y="0" viewBox="0 0 32 32"><style>.st0{fill:#fff}</style><path d="M6.4 27h19.2v2.4H6.4zM18.2 6.7l12.3-4.8v-.4h-3.1L16.1 5.9 4.6 1.5H1.5v.4L14 6.7 1.5 11.5v.4h3.3l11.3-4.4 11.3 4.4h3.1v-.5z" class="st0"/><path d="M0 0v32h32V0zm30.8 18.1v1.5h-.3v4.7h.3v1.5h-.3v4.7h-29v-4.7H.7v-1.5h.8v-4.7H.7v-1.5h.8v-4.7h29v4.7zm-.3-6.2H.6l.9-.3V1.9l-.9-.3.5-1.4 3.5 1.3h22.8L30.8.2l.5 1.4-.9.3v9.5l1 .4h-.9z" class="st0"/><path d="M6.4 14.5h19.2v2.4H6.4zm-4.9 9.8h29v1.5h-29zm0-6.2h29v1.5h-29zm4.9 2.7h19.2v2.4H6.4z" class="st0"/></svg>