<svg xmlns="http://www.w3.org/2000/svg" xml:space="preserve" id="图层_1" x="0" y="0" viewBox="0 0 32 32"><style>.st0{fill:#fff}</style><path d="M10.3 30.5c-2.4 0-4.6-.9-6.2-2.6-1.7-1.7-2.6-4-2.6-6.4s.9-4.7 2.6-6.4 3.9-2.6 6.2-2.6h10.3V11H10.3c-1.4 0-2.8.3-4 .8S4 13.1 3 14c-2 2-3 4.6-3 7.4s1.1 5.4 3 7.4c1 1 2.1 1.7 3.3 2.3 1.3.5 2.6.8 4 .8h21v-1.5h-21z" class="st0"/><path d="M28 4.2c1.7 1.7 2.6 4 2.6 6.4s-.9 4.7-2.6 6.4-3.9 2.6-6.2 2.6H11.4V21h10.3c1.4 0 2.8-.3 4-.8s2.3-1.3 3.3-2.3c1.9-2 3-4.6 3-7.4s-1.1-5.4-3-7.4c-1-1-2.1-1.7-3.3-2.3-1.3-.5-2.6-.8-4-.8H.7v1.5h21c2.4 0 4.6 1 6.3 2.7" class="st0"/></svg>