<svg xmlns="http://www.w3.org/2000/svg" xml:space="preserve" viewBox="0 0 32 32"><path d="m26.9 1-1.2-1L7.1 23.4c-.9-.6-1.9-.8-2.9-.7-1.2.1-2.3.7-3.1 1.7-1.6 2-1.3 4.9.7 6.5.8.7 1.9 1 2.9 1h.5c1.2-.1 2.3-.7 3.1-1.7 1.4-1.7 1.4-4.2 0-5.9zM7.1 29.3c-1.1 1.4-3.1 1.6-4.4.5s-1.6-3.1-.5-4.4c.5-.7 1.3-1.1 2.1-1.1h.3c.7 0 1.4.2 2 .7 1.4 1 1.6 3 .5 4.3m19.5-6.7 2.7-4.2H28l-2.2 3.5-2.1-3.5h-1.3l2.6 4.2-2.8 4.4h1.2l2.4-3.7 2.3 3.7h1.3zm-8.8.4h3.5v-.9h-3.5v-2.7h3.7v-1h-4.8V27h5.1v-1h-4z" style="fill:#fff"/></svg>