<svg xmlns="http://www.w3.org/2000/svg" xml:space="preserve" id="图层_1" x="0" y="0" viewBox="0 0 32 32"><style>.st0{fill:#fff}</style><path d="M16.6 14.6q-.15-.3-.6-.3c-.45 0-.5.1-.6.3l-2.9 5.1q-.15.3 0 .6t.6.3H19q.3 0 .6-.3c.1-.2.1-.5 0-.6zm-2.4 4.7 1.8-3.1 1.8 3.1z" class="st0"/><path d="M21.4 12.1c-1.3-1.3-2.9-2-4.7-2.2V7.6c0-.4-.3-.6-.7-.6s-.7.3-.7.6v2.3c-1.8.2-3.4.9-4.7 2.2-1.4 1.4-2.2 3.3-2.2 5.4s.8 3.9 2.2 5.4c1.4 1.4 3.3 2.2 5.4 2.2s3.9-.8 5.4-2.2c1.4-1.4 2.2-3.3 2.2-5.4s-.8-4-2.2-5.4M16 23.8c-3.5 0-6.3-2.8-6.3-6.3s2.8-6.3 6.3-6.3 6.3 2.8 6.3 6.3-2.8 6.3-6.3 6.3" class="st0"/></svg>