<svg xmlns="http://www.w3.org/2000/svg" xml:space="preserve" id="图层_1" x="0" y="0" viewBox="0 0 33 32"><style>.st0{fill:#fff}</style><path d="M32 11.9c-.4 0-.8.3-.8.8v5.9c0 .4.3.8.8.8.4 0 .8-.3.8-.8v-5.9c-.1-.5-.4-.8-.8-.8M6.6 15.6c0 .4-.3.7-.7.7v3.1l9.2-3.9-9.2-3.9v3.1c.3.2.7.5.7.9" class="st0"/><path d="M26.8 9c-.5 0-.8.3-.8.7v5.2h-3.4V9.7c0-.4-.3-.8-.8-.8h-18c-.4.1-.8.4-.8.8v5.1H.8c-.4 0-.8.3-.8.8s.3.8.8.8H3v5.1c0 .4.3.8.8.8h18.1c.4 0 .8-.3.8-.8v-5.1H26v5.1c0 .4.3.8.8.8s.8-.3.8-.8V9.7c-.1-.4-.4-.7-.8-.7m-5.7 11.8H4.5v-4.4h1.3v3.2l9.4-3.9-9.4-3.9V15H4.5v-4.4h16.6zM5.8 14.9v-3.2l9.3 3.9-9.3 3.9zm23.8-4.5c-.4 0-.8.3-.8.8V20c0 .4.3.8.8.8.4 0 .8-.3.8-.8v-8.8c-.1-.5-.4-.8-.8-.8" class="st0"/></svg>