<svg xmlns="http://www.w3.org/2000/svg" xml:space="preserve" id="图层_1" x="0" y="0" viewBox="0 0 33 32"><style>.st0{fill:#fff}</style><path d="M.8 11.9c-.4 0-.8.3-.8.8v5.9c0 .4.3.8.8.8s.8-.3.8-.8v-5.9c-.1-.5-.4-.8-.8-.8m25.3 3.7c0-.4.3-.7.7-.7v-3.2l-9.2 3.9 9.2 3.9v-3.2c-.3.1-.7-.3-.7-.7m-23-5.2c-.4 0-.8.3-.8.8V20c0 .4.3.8.8.8s.8-.3.8-.8v-8.8c0-.5-.4-.8-.8-.8" class="st0"/><path d="M32 14.9h-2.3V9.7c0-.4-.3-.8-.8-.8H10.8c-.4 0-.8.3-.8.8v5.1H6.7V9.7c0-.4-.3-.7-.7-.7-.5 0-.8.3-.8.7v11.8c0 .4.3.8.8.8.4 0 .8-.3.8-.8v-5.1h3.4v5.1c0 .4.3.8.8.8h18.1c.4 0 .8-.3.8-.8v-5.1H32c.4 0 .8-.3.8-.8s-.4-.7-.8-.7m-3.8 5.9H11.6V10.6h16.6V15h-1.3v-3.2l-9.3 3.9 9.4 3.9v-3.2h1.3v4.4zm-1.3-4.4v3.2l-9.3-3.9 9.3-3.9z" class="st0"/></svg>