<svg xmlns="http://www.w3.org/2000/svg" xml:space="preserve" id="图层_1" x="0" y="0" viewBox="0 0 32 32"><style>.st0{fill:#fff}</style><path d="M11.7 3.8h8.6c.4 0 .7-.3.7-.7s-.3-.7-.7-.7h-8.6c-.4 0-.7.3-.7.7s.3.7.7.7m1.5-2.3H19c.4 0 .7-.3.7-.7s-.4-.8-.8-.8h-5.8c-.4 0-.7.3-.7.7s.4.8.8.8m8.6 6.8h-5V6.6h5c.4 0 .7-.3.7-.7s-.3-.7-.7-.7H10.2c-.4 0-.7.3-.7.7s.3.7.7.7h5v1.7h-5c-.4 0-.7.3-.7.7v17.7c0 .4.3.7.7.7h5v3.8c0 .4.3.7.7.7s.7-.3.7-.7v-3.8h5c.4 0 .7-.3.7-.7V9c.2-.4-.1-.7-.5-.7M21 26H11V9.7h4.3V11h-3.1l3.9 9.1L20 11h-3.1V9.7H21zm-4.3-15h3.1L16 20.1 12.2 11z" class="st0"/><path d="M16 11.7c-.4 0-.7-.3-.7-.7h-3.1l3.8 9 3.8-9h-3.1c0 .4-.3.7-.7.7" class="st0"/></svg>