<svg xmlns="http://www.w3.org/2000/svg" xml:space="preserve" id="图层_1" x="0" y="0" viewBox="0 0 32 32"><style>.st0{fill:#fff}</style><path d="M18.8 30.5H13c-.4 0-.7.3-.7.7s.3.7.7.7h5.8c.4 0 .7-.3.7-.7s-.3-.7-.7-.7m1.4-2.3h-8.6c-.4 0-.7.3-.7.7s.3.7.7.7h8.6c.4 0 .7-.3.7-.7s-.2-.7-.7-.7M16 6.4c-.4 0-.7-.3-.7-.7h-3.1l3.8 9 3.8-9h-3.1c0 .4-.3.7-.7.7" class="st0"/><path d="M21.8 22.1c.4 0 .7-.3.7-.7V3.7c0-.4-.3-.7-.7-.7h-5V.7c-.1-.4-.4-.7-.8-.7s-.7.3-.7.7V3h-5c-.5 0-.8.3-.8.7v17.7c0 .4.3.7.7.7h5v3.3h-5c-.4 0-.7.3-.7.7s.3.7.7.7h11.5c.4 0 .7-.3.7-.7s-.3-.7-.7-.7h-5v-3.3zM11 4.4h4.3v1.2h-3.1l3.8 9.1 3.9-9.1h-3.1V4.4H21v16.2H11zm5.7 1.3h3.1L16 14.8l-3.8-9.1z" class="st0"/></svg>