<svg xmlns="http://www.w3.org/2000/svg" xml:space="preserve" id="图层_1" x="0" y="0" viewBox="0 0 32 32"><style>.st0{fill:#fff}</style><path d="M15.4 0h1.2v2.3h-1.2zm1.2 2.3v1.3h.3l.1-.1.1.1h6.2v27.2h-1.1l.3.5h-4.4v.7h-1.3v-1.2h-.2V32h-1.3v-.7H11l.3-.5H8.7V17.4l-.4-.4.4-.5V3.6h6.2l.1-.1.1.1h.3V2.3H7.5V32h17V2.3z" class="st0"/><path d="M15.3 29.3v.8h-2.2l1.1-1.8.7.5.7-1.1-2.4-1.5-.7 1 .6.4-1.8 3.2h4v.5h.5v-.5h.8v-1.5zm-3.7-7.2h4.5v.3l-1.6 2.8-.5-.3-.7 1.1 2.4 1.6.7-1.1-.8-.5 1.1-2 1.1 1.9-.7.4.7 1.1 2.4-1.6-.7-1.1-.7.4-1.5-2.6v-2.2l.7.9h1.6V20h-1l-.9-1.2h2v-1.2h-.3l-.9-1.9h1.3v-1.2h-3.1V8.9h-.1l-4.2-4.1-.9.9 3.9 3.8v.7h-5v2c-.9.3-1.6 1.2-1.6 2.2 0 1.3 1 2.3 2.2 2.3h.6v-5.2h3.8v1.7l-1.5-1.5h-1.6v1.2h1.1l1.6 1.6h-1.6v1.2h.4l.9 1.9h-1v1.2h2.5v2.1h-3.3V19l-3.8-3-.3.4v.9l2.9 2.2v2.6zm-1.2-6.9c-.2-.2-.3-.5-.3-.8s.1-.6.3-.8zm6.2.5h.7l-.9 1.9h-.7zM15.4 3.9l-.3-.3h-.2l-.7.8.9.9-.9.9.8.9 1-.9 1 .9.8-.9-.9-.9.9-.9-.7-.8h-.2l-.3.3v-.3h-1.2zm5.7 23.2-.6-1-2.5 1.5.7 1.1.6-.4 1 1.8h-2.2v-.8h-1.3v1.5h.7v.5h.6v-.5h4.1l-1.9-3.2z" class="st0"/></svg>