<svg xmlns="http://www.w3.org/2000/svg" xml:space="preserve" id="图层_1" x="0" y="0" viewBox="0 0 32 32"><style>.st0{fill:#fff}</style><path d="M28.4 19.8v-7.9l-.2-.2v8.2zm1.3-7.7h.1V20h-.1zm-27.4 8v-8.6l.3-.6.4-.3H0v10.9h3.5l-.9-.8zm0-.2h-.8V12h.8z" class="st0"/><path d="M32 10.6h-2.9l.5.3.3.6v.6h.6v7.8h-.6v.2l-.3.6-.9.7H32zm-3.8 9.3-4 3.4V8.7l4 3.1v-1.2h.9l-4.9-3.8-.5-.2H7.9v.2L3 10.5h.7v10.9h-.2l4.3 3.7.3.2h15.7l.5-.2 4.4-3.8h-.5zM9 8.1h13.7v15.7H9zm-5.2 3.8L7.5 9v13.9l-3.7-3.2z" class="st0"/></svg>