<svg xmlns="http://www.w3.org/2000/svg" xml:space="preserve" id="图层_1" x="0" y="0" viewBox="0 0 32 32"><style>.st0{fill:#fff}</style><path d="M1.9 4.5v.2l.1-.2z" class="st0"/><path d="m30.1 1.3.1-.2-.6-1.1H4.5l-.7.4L2 4.5h1.6l1.3-3h23.2l-2.1 3H3.6l-.3.8-1.4-.6V32h25.7v-.1l-1.1-.4 1.1-2.9V4.8l.9-1.3.3 21.9-1.2 3.2v3.3l.4.1 2.3-6.3v-.3zM26.2 6v19.8H6.8V6zm0 24.5H4.3l-.9 1.4-1.3-.8 1.3-2V6h1.9v20.2l.2-.3 1.3.8-.4.6h19.8z" class="st0"/><path d="M5.3 27.3v-1.1l-1.9 2.9v1.4h.9l2.1-3.2z" class="st0"/></svg>