<svg xmlns="http://www.w3.org/2000/svg" xml:space="preserve" id="图层_1" x="0" y="0" viewBox="0 0 128 39"><style>.st0{fill:#fff}</style><g id="页面-1"><g id="_x31_-026"><path d="M0 17.6h35.2v1H0z" class="st0"/><path d="M53.5 38.1c-10.3-.2-18.6-8.8-18.6-19C34.9 8.8 43.2.3 53.5.1v1c-9.7.2-17.6 8.3-17.6 18s7.9 17.8 17.6 18z" class="st0"/><g transform="translate(0 .5)"><path id="矩形_1_" d="M52.5 10.5h38.6v15.4H52.5z" class="st0"/><path d="M91.1 26.5H52.5c-.3 0-.5-.2-.5-.5V10.5c0-.3.2-.5.5-.5h38.6c.3 0 .5.2.5.5V26c0 .2-.2.5-.5.5m-38.1-1h37.6V11H53z" class="st0"/></g><path d="M91.1 18.2H128v1H91.1z" class="st0"/></g></g></svg>