<svg xmlns="http://www.w3.org/2000/svg" xml:space="preserve" id="图层_1" x="0" y="0" viewBox="0 0 128 63"><style>.st0{fill:#fff}</style><g id="页面-1"><g id="_x31_-028"><path d="M22.4 62c-6.9 0-12.5-5.6-12.5-12.5S15.5 37 22.4 37s12.5 5.6 12.5 12.5S29.3 62 22.4 62m0-24c-6.3 0-11.5 5.2-11.5 11.5S16 61 22.4 61s11.5-5.2 11.5-11.5S28.7 38 22.4 38m64.1-13C79.6 25 74 19.4 74 12.5S79.6 0 86.5 0 99 5.6 99 12.5 93.4 25 86.5 25m0-24C80.1 1 75 6.2 75 12.5S80.2 24 86.5 24 98 18.8 98 12.5 92.8 1 86.5 1" class="st0"/><path d="M28.122 59.496 92.19 22.474l.5.866-64.07 37.022zM16.113 38.699 80.182 1.677l.5.865-64.069 37.023zM0 49.1h10v1H0zm106 13c-6.9 0-12.5-5.6-12.5-12.5s5.6-12.5 12.5-12.5 12.5 5.6 12.5 12.5-5.6 12.5-12.5 12.5m0-24c-6.3 0-11.5 5.2-11.5 11.5s5.2 11.5 11.5 11.5 11.5-5.2 11.5-11.5-5.2-11.5-11.5-11.5" class="st0"/><path d="M118 49.1h10v1h-10z" class="st0"/></g></g></svg>