<svg xmlns="http://www.w3.org/2000/svg" xml:space="preserve" id="图层_1" x="0" y="0" viewBox="0 0 128 113"><style>.st0{fill:#fff}</style><g id="页面-1"><g id="_x31_-020"><path d="M0 66.7h128v1H0zm0 9.9h128v1H0zm0 9.1h128v1H0zm0 15.5h128v1H0zm0 9.9h128v1H0zm61.3-66c-5 0-9-4.1-9-9v-27c0-5 4.1-9 9-9 5 0 9 4.1 9 9v27c.1 4.9-4 9-9 9m0-44.1c-4.4 0-8 3.6-8 8v27c0 4.4 3.6 8 8 8s8-3.6 8-8V9c.1-4.4-3.5-8-8-8" class="st0"/><path d="M60.6 44.6h1v57.1h-1z" class="st0"/><path d="m55.125 60.75.772-.636 5.525 6.72-.772.635z" class="st0"/><path d="m60.711 66.872 5.538-6.71.771.637-5.537 6.71zm.075 33.934 3.758-4.549.771.637-3.758 4.549z" class="st0"/><path d="m56.849 96.91.77-.636 3.76 4.547-.771.637z" class="st0"/></g></g></svg>