<svg xmlns="http://www.w3.org/2000/svg" xml:space="preserve" id="图层_1" x="0" y="0" viewBox="0 0 129 84"><style>.st0{fill:#fff}</style><g id="页面-1"><g id="_x31_-030"><path d="M38.6 61.102H25.4v-1h13L70.6.302c.1-.2.3-.3.4-.3h12.7v1H71.3l-32.2 59.8c-.1.2-.3.3-.5.3m-30.3 22.6c-4.6 0-8.3-3.7-8.3-8.3v-22h1v22c0 4 3.3 7.3 7.3 7.3 1.9 0 3.8-.8 5.2-2.1 1.4-1.4 2.1-3.2 2.1-5.2v-22h1v22c0 2.2-.9 4.3-2.4 5.9-1.6 1.5-3.7 2.4-5.9 2.4" class="st0"/><path d="M108.5 48.302h-88c-.3 0-.5-.2-.5-.5v-32c0-.3.2-.5.5-.5h88c.3 0 .5.2.5.5v32c0 .3-.2.5-.5.5m-87.5-1h87v-31H21z" class="st0"/><path d="M.5 31.302h20v1H.5zm108 0h20v1h-20z" class="st0"/></g></g></svg>