<svg xmlns="http://www.w3.org/2000/svg" xml:space="preserve" id="图层_1" x="0" y="0" viewBox="0 0 128 33"><style>.st0{fill:#fff}</style><g id="页面-1"><g id="_x31_-032"><path d="M65.4 33.002h-32c-.3 0-.5-.2-.5-.5v-32c0-.3.2-.5.5-.5h32c.3 0 .5.2.5.5v32c0 .3-.2.5-.5.5m-31.5-1h31v-31h-31z" class="st0"/><path d="M97.4 33.002h-32c-.3 0-.5-.2-.5-.5v-32c0-.3.2-.5.5-.5h32c.3 0 .5.2.5.5v32c0 .3-.2.5-.5.5m-31.5-1h31v-31h-31z" class="st0"/><path d="M113.4 33.002h-16c-.3 0-.5-.2-.5-.5v-32c0-.3.2-.5.5-.5h16c.3 0 .5.2.5.5v32c0 .3-.2.5-.5.5m-15.5-1h15v-31h-15zm-64.5 1h-16c-.3 0-.5-.2-.5-.5v-32c0-.3.2-.5.5-.5h16c.3 0 .5.2.5.5v32c0 .3-.2.5-.5.5m-15.5-1h15v-31h-15z" class="st0"/><path d="M0 16.002h17.4v1H0zm113.4 0H128v1h-14.6z" class="st0"/></g></g></svg>