<svg xmlns="http://www.w3.org/2000/svg" xml:space="preserve" id="图层_1" x="0" y="0" viewBox="0 0 90 129"><style>.st0{fill:#fff}</style><g id="页面-1"><g id="_x31_-057" transform="translate(.5 .002)"><path d="M44.2 128.5c-24.6 0-44.7-20-44.7-44.7 0-24.6 20-44.7 44.7-44.7s44.7 20 44.7 44.7-20.1 44.7-44.7 44.7m0-88.4C20.1 40.1.5 59.7.5 83.8s19.6 43.7 43.7 43.7 43.7-19.6 43.7-43.7-19.6-43.7-43.7-43.7" class="st0"/><path d="m43.653 39.348.154-39.3 1 .004-.154 39.3zm26.392 8.815.14-48.2 1 .003-.14 48.2zm-52.831.41.143-48.6 1 .003-.143 48.6z" class="st0"/><path id="路径_3_" d="M34.3 74.3h-.7v-24h1l9.6 18.9h.1l9.6-18.9h1v24h-.7V51.5h-.1L44.5 70h-.7l-9.5-18.5z" class="st0"/><path id="路径_4_" d="M29.6 98.6c.9-.4 1.9-.6 2.9-.6 1.2 0 2.4.3 3.5.9s1.9 1.4 2.5 2.5c.7 1.1 1 2.4 1 3.7s-.3 2.6-.9 3.7-1.5 2-2.5 2.6c-2.5 1.3-5.6 1.2-8-.4-1.2-.9-2.2-2-2.9-3.4l.6-.4c1.5 2.9 3.7 4.4 6.7 4.4 1.2 0 2.3-.3 3.3-.8s1.7-1.3 2.2-2.3c.6-1 .8-2.2.8-3.4q0-1.8-.9-3.3c-.5-1-1.3-1.8-2.3-2.3-.9-.6-2-.8-3.1-.8-.7 0-1.3.1-2 .3s-1.4.5-2 .8l-.4-.5 9.4-10.7H25.6v-.7h12.7v.7z" class="st0"/><path d="M60.6 105.4c-2.2 0-4.9-1.6-8.1-4.7-2.7-3.1-4.9-4.5-6.5-4-2.6.8-3.2 5.9-3.2 6l-1-.1c0-.2.7-5.9 3.9-6.8 2.1-.6 4.6.8 7.5 4.3 3.5 3.5 6.4 5 8.4 4.2 2.6-.9 3-5.3 3-5.4l1 .1c0 .2-.5 5.1-3.7 6.2-.3.2-.8.2-1.3.2" class="st0"/></g></g></svg>