<svg xmlns="http://www.w3.org/2000/svg" xml:space="preserve" id="图层_1" x="0" y="0" viewBox="0 0 92 129"><style>.st0{fill:#fff}</style><g id="页面-1"><g id="_x31_-059" transform="translate(.5 .002)"><path d="M45.1 100.7C24.8 100.7 8.4 84.2 8.4 64s16.5-36.7 36.7-36.7S81.8 43.8 81.8 64s-16.5 36.7-36.7 36.7m0-72.4c-19.7 0-35.7 16-35.7 35.7s16 35.7 35.7 35.7 35.7-16 35.7-35.7-16-35.7-35.7-35.7" class="st0"/><path d="M45.1 109.6C19.9 109.6-.5 89.1-.5 64s20.4-45.6 45.6-45.6S90.7 38.9 90.7 64s-20.5 45.6-45.6 45.6m0-90.2C20.5 19.4.5 39.4.5 64s20 44.6 44.6 44.6 44.6-20 44.6-44.6-20-44.6-44.6-44.6" class="st0"/><path d="m44.464 18.927.092-18.9 1 .005-.092 18.9zm22.737 6.12.098-25 1 .004-.098 25zm-45.34.001.098-25 1 .004-.098 25zm22.589 84.056 1-.005.1 18.9-1 .005zm22.7-6.101 1-.004.1 25-1 .004zm-45.3 0 1-.004.1 25-1 .004z" class="st0"/><path id="路径_6_" d="M35.2 60.7h-.7v-24h1l9.6 18.9h.1l9.6-18.9h1v24h-.7V37.8l-9.7 18.6h-.7l-9.5-18.6z" class="st0"/><path id="路径_7_" d="M30.6 76.2c.9-.4 1.9-.6 2.9-.6 1.2 0 2.4.3 3.5.9s1.9 1.5 2.5 2.5c.7 1.1 1 2.4 1 3.7s-.4 2.6-1 3.7-1.4 1.9-2.5 2.5-2.4.9-3.6.9c-1.5 0-3.1-.4-4.4-1.3-1.2-.9-2.2-2-2.9-3.4l.6-.4c1.5 2.9 3.7 4.4 6.7 4.4 1.2 0 2.3-.3 3.3-.8s1.7-1.4 2.2-2.3c.6-1 .8-2.2.8-3.4q0-1.8-.9-3.3c-1.1-1.9-3.2-3.1-5.4-3.1-1.4 0-2.8.4-4 1.1l-.4-.6 9.4-10.6H26.6v-.7h12.7v.7z" class="st0"/><path d="M62.5 79c-1.8 0-4.1-1.3-6.7-3.9-2.2-2.6-4-3.7-5.3-3.3-1.7.5-2.4 3.7-2.6 4.8l-1-.1c0-.2.6-4.9 3.3-5.7q2.55-.75 6.3 3.6c2.8 2.8 5.2 4 6.8 3.5 2.1-.8 2.4-4.3 2.4-4.3l1 .1c0 .2-.4 4.2-3.1 5.2-.3 0-.7.1-1.1.1" class="st0"/></g></g></svg>