<svg xmlns="http://www.w3.org/2000/svg" xml:space="preserve" id="图层_1" x="0" y="0" viewBox="0 0 129 129"><style>.st0{fill:#fff}</style><g id="页面-1"><g id="_x31_-054"><path d="M0 56.892h55.6v1H0zm55.357-13.289 53.35-43.6.632.774-53.35 43.6zm-.062 28.92.614-.79 72.309 56.234-.614.79z" class="st0"/><path d="M55.1 28.092h1v58.7h-1z" class="st0"/><path d="M73.1 110.892c-30.5 0-55.4-24.8-55.4-55.4S42.6.092 73.1.092s55.4 24.8 55.4 55.4-24.8 55.4-55.4 55.4m0-109.8c-30 0-54.4 24.4-54.4 54.4s24.4 54.4 54.4 54.4 54.4-24.4 54.4-54.4-24.4-54.4-54.4-54.4" class="st0"/><g transform="translate(0 .392)"><circle id="椭圆形_2_" cx="98.7" cy="103.9" r="10.6" class="st0"/><path d="M98.7 115c-6.1 0-11.1-5-11.1-11.1s5-11.1 11.1-11.1 11.1 5 11.1 11.1-5 11.1-11.1 11.1m0-21.2c-5.6 0-10.1 4.5-10.1 10.1S93.1 114 98.7 114s10.1-4.5 10.1-10.1-4.6-10.1-10.1-10.1" class="st0"/></g><path d="m87 44.392-1-.1 2.9-27.4-27.4 2.9-.1-1 28-2.9c.1 0 .3 0 .4.1s.2.3.1.4z" class="st0"/></g></g></svg>