<svg xmlns="http://www.w3.org/2000/svg" xml:space="preserve" id="图层_1" x="0" y="0" viewBox="0 0 129 129"><style>.st0{fill:#fff}</style><g id="页面-1"><g id="_x31_-056"><path d="M64.5 129.002c-35.6 0-64.5-28.9-64.5-64.5S28.9.002 64.5.002s64.5 28.9 64.5 64.5-28.9 64.5-64.5 64.5m0-128c-35 0-63.5 28.5-63.5 63.5s28.5 63.5 63.5 63.5 63.5-28.5 63.5-63.5-28.5-63.5-63.5-63.5" class="st0"/><g transform="translate(.5 .502)"><path id="路径_1_" d="m64.3 49.7 3.8 7.5 8.2 1.2-6 5.8 1.5 8.3-7.5-3.9-7.4 3.9 1.4-8.3-5.9-5.8 8.2-1.2z" class="st0"/><path d="M56.9 73c-.1 0-.2 0-.3-.1-.2-.1-.2-.3-.2-.5l1.4-8-5.8-5.6c-.1-.1-.2-.3-.1-.5s.2-.3.4-.3l8-1.2 3.6-7.3c.1-.2.3-.3.4-.3.2 0 .4.1.4.3l3.6 7.3 8 1.2c.2 0 .3.2.4.3.1.2 0 .4-.1.5l-5.8 5.7 1.4 8c0 .2 0 .4-.2.5s-.4.1-.5 0l-7.2-3.8-7.2 3.8zm-3.5-14.3 5.3 5.1c.1.1.2.3.1.4l-1.2 7.3 6.5-3.4c.1-.1.3-.1.5 0l6.5 3.4-1.2-7.2c0-.2 0-.3.1-.4l5.3-5.1-7.3-1.1c-.2 0-.3-.1-.4-.3l-3.3-6.6-3.3 6.6c-.1.1-.2.2-.4.3z" class="st0"/></g></g></g></svg>