<svg xmlns="http://www.w3.org/2000/svg" xml:space="preserve" id="图层_1" x="0" y="0" viewBox="0 0 54 128"><style>.st0{fill:#fff}</style><g id="页面-1"><g id="_x31_-066"><path d="M26.8 72.802c-14.8 0-26.8-12-26.8-26.8s12-26.8 26.8-26.8 26.8 12 26.8 26.8c.1 14.7-12 26.8-26.8 26.8m0-52.7c-14.2 0-25.8 11.6-25.8 25.8s11.6 25.8 25.8 25.8 25.8-11.6 25.8-25.8c.1-14.2-11.5-25.8-25.8-25.8" class="st0"/><path d="M26.8 108.202c-14.8 0-26.8-12-26.8-26.8s12-26.8 26.8-26.8 26.8 12 26.8 26.8-12 26.8-26.8 26.8m0-52.6c-14.2 0-25.8 11.6-25.8 25.8s11.6 25.8 25.8 25.8 25.8-11.6 25.8-25.8-11.5-25.8-25.8-25.8m-.5-55.6h1v19.6h-1z" class="st0"/><path d="m20.887 8.426 11.565-4.19.34.94-11.564 4.19zm-.004 3.707L32.44 7.928l.342.94-11.558 4.205zm.028 3.789 11.565-4.19.34.94-11.564 4.19zm5.389 91.78h1v20.3h-1z" class="st0"/><path d="m20.879 116.823 11.562-4.194.34.94-11.561 4.194zm.035 3.801 11.558-4.205.342.94-11.558 4.205zm-.012 3.694 11.562-4.194.341.94-11.562 4.194zM26.3 37.502h1v11.5h-1z" class="st0"/><path d="m14.483 30.48.52-.853 12.203 7.456-.521.853z" class="st0"/><path d="m26.597 37.082 12.202-7.456.521.853-12.202 7.456zM38.5 95.902H15.1c-.2 0-.3-.1-.4-.3s-.1-.4 0-.5l11.7-19.2c.2-.3.7-.3.9 0l11.7 19.2c.1.2.1.3 0 .5s-.3.3-.5.3m-22.5-1h21.6l-10.8-17.8z" class="st0"/></g></g></svg>