<svg xmlns="http://www.w3.org/2000/svg" xml:space="preserve" id="图层_1" x="0" y="0" viewBox="0 0 72 128"><style>.st0{fill:#fff}</style><g id="页面-1"><g id="_x31_-064"><path d="M25.7 72.302c-14.2 0-25.8-11.6-25.8-25.8s11.6-25.8 25.8-25.8c14.2.1 25.8 11.7 25.8 25.9s-11.6 25.7-25.8 25.7m0-50.5c-13.6 0-24.8 11.1-24.8 24.8s11.1 24.8 24.8 24.8c13.7-.1 24.8-11.2 24.8-24.8s-11.1-24.8-24.8-24.8" class="st0"/><path d="M25.7 107.502c-14.2 0-25.8-11.6-25.8-25.8.1-14.2 11.7-25.7 25.8-25.7 14.2 0 25.8 11.5 25.8 25.7s-11.6 25.8-25.8 25.8m0-50.5c-13.6 0-24.7 11.1-24.7 24.7s11.1 24.8 24.8 24.8c13.6 0 24.8-11.1 24.8-24.8s-11.2-24.7-24.9-24.7M25.26.003l1-.003.08 21-1 .003z" class="st0"/><path d="m18.579 9.999 14.09-5.142.344.94-14.091 5.141zm-.012 5.301 14.091-5.141.343.94L18.91 16.24zm6.693 91.704 1-.004.08 21-1 .004z" class="st0"/><path d="m18.583 116.997 14.09-5.142.344.939-14.091 5.142zm-.012 5.301 14.091-5.142.343.94-14.091 5.142zM24.8 47.202h46.3v1H24.8z" class="st0"/><path d="M24.3 47.702h1v8.7h-1z" class="st0"/></g></g></svg>