<svg xmlns="http://www.w3.org/2000/svg" xml:space="preserve" id="图层_1" x="0" y="0" viewBox="0 0 61 128"><style>.st0{fill:#fff}</style><g id="页面-1"><g id="_x31_-076"><path d="M30.4 108.102c-16.8 0-30.4-13.6-30.4-30.4s13.6-30.4 30.4-30.4 30.4 13.6 30.4 30.4c0 16.7-13.7 30.4-30.4 30.4m0-59.8c-16.2 0-29.4 13.2-29.4 29.4s13.2 29.4 29.4 29.4 29.4-13.2 29.4-29.4-13.2-29.4-29.4-29.4" class="st0"/><path d="M51.4 56.602c-.1-.2-9-21.9-23.9-37.2-.1-.1-.1-.2-.1-.3V.002h1v18.9c14.9 15.4 23.9 37.1 24 37.3zm-21.5 51h1v20.4h-1z" class="st0"/></g></g></svg>