<svg xmlns="http://www.w3.org/2000/svg" xml:space="preserve" id="图层_1" x="0" y="0" viewBox="0 0 55 128"><style>.st0{fill:#fff}</style><g id="页面-1"><g id="_x31_-078"><path d="m20.27 11.581 13.532-4.923.342.94-13.531 4.923zm-.016 4.295 13.539-4.906.34.94-13.538 4.907zm-.094 97.203 13.532-4.923.342.94-13.532 4.923zm-.021 4.295 13.536-4.91.34.94-13.535 4.91zm6.961-14.972c-14.9 0-27.1-12.1-27.1-27.1 0-14.9 12.1-27.1 27.1-27.1s27.1 12.1 27.1 27.1c-.1 15-12.2 27.1-27.1 27.1m0-53.1c-14.4 0-26.1 11.7-26.1 26.1s11.7 26.1 26.1 26.1 26.1-11.7 26.1-26.1-11.8-26.1-26.1-26.1" class="st0"/><path d="M26.7 101.902h1v26.1h-1zm19-45.2c-4.3-11.2-10.6-21.2-18.9-29.8-.1-.1-.1-.2-.1-.3V.002h1v26.3c8.3 8.7 14.7 18.8 19 30z" class="st0"/></g></g></svg>