<svg xmlns="http://www.w3.org/2000/svg" xml:space="preserve" id="图层_1" x="0" y="0" viewBox="0 0 100 128"><style>.st0{fill:#fff}</style><g id="页面-1"><g id="_x31_-072"><path d="M36.32 72.802c-14.8 0-26.8-12-26.8-26.8s12-26.8 26.8-26.8 26.8 12 26.8 26.8c.1 14.7-12 26.8-26.8 26.8m0-52.7c-14.2 0-25.8 11.6-25.8 25.8s11.6 25.8 25.8 25.8 25.9-11.5 25.9-25.8c0-14.2-11.6-25.8-25.9-25.8" class="st0"/><path d="M36.32 108.202c-14.8 0-26.8-12-26.8-26.8s12-26.8 26.8-26.8 26.8 12 26.8 26.8-12 26.8-26.8 26.8m0-52.6c-14.2 0-25.8 11.6-25.8 25.8s11.6 25.8 25.8 25.8 25.9-11.6 25.9-25.8-11.6-25.8-25.9-25.8m-.5-55.6h1v19.6h-1z" class="st0"/><path d="m30.407 8.423 11.565-4.19.34.94-11.564 4.19zm-.005 3.707L41.96 7.924l.342.94-11.558 4.206zm.028 3.789 11.565-4.19.341.94-11.564 4.19zm5.39 92.483h1v19.6h-1z" class="st0"/><path d="m30.398 116.82 11.562-4.194.34.94-11.561 4.194zm.035 3.8 11.558-4.205.342.94-11.558 4.205zm-.012 3.695 11.562-4.194.341.94-11.562 4.194zm5.399-86.813h1v11.5h-1z" class="st0"/><path d="m23.86 30.505.522-.853 12.202 7.456-.521.853z" class="st0"/><path d="m36.115 37.076 12.202-7.456.522.853-12.203 7.456zM48.02 95.902h-23.4c-.2 0-.3-.1-.4-.3s-.1-.4 0-.5l11.7-19.2c.2-.3.7-.3.9 0l11.7 19.2c.1.2.1.3 0 .5s-.3.3-.5.3m-22.5-1h21.7l-10.9-17.8z" class="st0"/><g transform="translate(.22 .002)"><path id="路径_13_" d="m79.8 41.5-9.3 1.9 2.6 4.9z" class="st0"/><path d="M73.1 48.8c-.2 0-.4-.1-.4-.3L70 43.6c-.1-.1-.1-.3 0-.5s.2-.2.4-.3l9.4-1.9c.2 0 .4.1.5.3s.1.4-.1.6l-6.7 6.8c-.1.1-.3.2-.4.2m-1.9-5.1 2 3.7 5.1-5.1z" class="st0"/></g><path d="m-.035 79.617 71.6-34.09.43.902L.395 80.52zM87.12 47.302h-1v-5.1c0-.3.2-.5.5-.5h12v-4.2h1v4.7c0 .3-.2.5-.5.5h-12z" class="st0"/></g></g></svg>