<svg xmlns="http://www.w3.org/2000/svg" xml:space="preserve" id="图层_1" x="0" y="0" viewBox="0 0 90 128"><style>.st0{fill:#fff}</style><g id="页面-1"><g id="_x31_-084"><path d="M38.55.002h1v32.9h-1z" class="st0"/><path d="m30.312 13.574 17.14-6.117.336.942-17.14 6.117zm-.113 4.337 17.14-6.117.337.942-17.141 6.117zm.109 4.364 17.141-6.117.336.941-17.14 6.118zm8.042 72.827h1v32.9h-1z" class="st0"/><path d="m30.116 108.693 17.141-6.117.336.942-17.14 6.117zm.014 4.397 17.14-6.116.337.942-17.141 6.117zm-.02 4.304 17.14-6.117.337.942-17.141 6.117z" class="st0"/><g transform="translate(.25 .002)"><path id="路径_9_" d="m88.3 33.4-12.4 4 4.3 6.3z" class="st0"/><path d="M80.2 44.2c-.2 0-.3-.1-.4-.2l-4.3-6.3c-.1-.1-.1-.3-.1-.4.1-.1.2-.3.3-.3l12.5-4c.2-.1.4 0 .6.2q.15.3 0 .6L80.6 44c-.1.1-.2.2-.4.2m-3.5-6.6 3.6 5.2 6.7-8.4z" class="st0"/></g><path d="m-.035 84.996 80.947-46.399.497.868L.462 85.863z" class="st0"/><path d="M39.05 95.002c-17.2 0-31.3-14-31.3-31.3 0-17.2 14-31.3 31.3-31.3s31.2 14.1 31.2 31.3-14 31.3-31.2 31.3m0-61.6c-16.7 0-30.3 13.6-30.3 30.3s13.6 30.3 30.3 30.3 30.2-13.6 30.2-30.3-13.5-30.3-30.2-30.3" class="st0"/><path d="M37.85 75.002c-11.7 0-21.2-9.5-21.2-21.2s9.5-21.2 21.2-21.2 21.2 9.5 21.2 21.2-9.5 21.2-21.2 21.2m0-41.4c-11.1 0-20.2 9.1-20.2 20.2s9.1 20.2 20.2 20.2 20.2-9.1 20.2-20.2-9-20.2-20.2-20.2" class="st0"/></g></g></svg>