<svg xmlns="http://www.w3.org/2000/svg" xml:space="preserve" id="图层_1" x="0" y="0" viewBox="0 0 80 130"><style>.st0{fill:#fff}</style><g id="页面-1"><g id="_x31_-082"><g transform="translate(.2 1.002)"><path id="路径_1_" d="m79.3 56.6-10.9 2.2 3.1 5.7z" class="st0"/><path d="M71.5 65s-.1 0 0 0c-.2 0-.4-.1-.4-.3L68 59c-.1-.1-.1-.3 0-.5s.2-.2.4-.3l10.8-2.1c.2 0 .4.1.5.3s.1.4-.1.6l-7.8 7.9s-.2.1-.3.1m-2.3-5.9 2.4 4.5 6.1-6.2z" class="st0"/></g><path d="m-.016 92.772 72.511-31.616.4.916L.384 93.69z" class="st0"/><path d="M35.2 102.902c-14.6 0-26.5-11.9-26.5-26.5s11.9-26.6 26.5-26.6 26.6 11.9 26.6 26.6-11.9 26.5-26.6 26.5m0-52.1c-14.1 0-25.6 11.5-25.6 25.6s11.5 25.6 25.6 25.6 25.6-11.5 25.6-25.6c0-14.2-11.4-25.6-25.6-25.6m-.3 52.8h1v25.4h-1z" class="st0"/><path d="M53.5 57.902c0-.1-1.1-13.2-19.5-30.6-.1-.1-.2-.2-.2-.4l.3-25.9h1l-.3 25.7c18.6 17.7 19.7 30.6 19.7 31.1zm-25.229 57.862 14.562-5.87.374.927-14.562 5.87zm.001 3.7 14.561-5.87.374.928-14.562 5.87z" class="st0"/><path d="m28.273 12.96 14.562-5.87.374.928-14.562 5.87zm.004 3.7 14.561-5.87.374.927-14.562 5.87z" class="st0"/></g></g></svg>