<svg xmlns="http://www.w3.org/2000/svg" xml:space="preserve" id="图层_1" x="0" y="0" viewBox="0 0 108 129"><style>.st0{fill:#fff}</style><g id="页面-1"><g id="_x31_-090"><path d="M53.6 85.702c-17.9 0-32.5-14.6-32.5-32.5s14.6-32.5 32.5-32.5 32.5 14.6 32.5 32.5-14.6 32.5-32.5 32.5m0-64.1c-17.4 0-31.5 14.1-31.5 31.5s14.1 31.5 31.5 31.5 31.5-14.1 31.5-31.5-14.1-31.5-31.5-31.5" class="st0"/><path d="M32.5 128.502c-17.9 0-32.5-14.6-32.5-32.5 0-18 14.6-32.6 32.5-32.6s32.6 14.6 32.6 32.6c0 17.9-14.6 32.5-32.6 32.5m0-64.1c-17.4 0-31.5 14.2-31.5 31.6s14.1 31.5 31.5 31.5 31.6-14.1 31.6-31.5-14.2-31.6-31.6-31.6" class="st0"/><path d="M74.9 128.502c-17.9 0-32.5-14.6-32.5-32.5s14.6-32.5 32.5-32.5 32.5 14.6 32.5 32.5-14.6 32.5-32.5 32.5m0-64.1c-17.4 0-31.5 14.2-31.5 31.6s14.1 31.5 31.5 31.5 31.5-14.1 31.5-31.5-14.1-31.6-31.5-31.6M52.6.002h1v20h-1z" class="st0"/></g></g></svg>