<svg xmlns="http://www.w3.org/2000/svg" xml:space="preserve" id="图层_1" x="0" y="0" viewBox="0 0 77 128"><style>.st0{fill:#fff}</style><g id="页面-1"><g id="_x31_-106"><path id="路径" d="M.9 115.2v11.2h6.3v.9H0v-12.1z" class="st0"/><path id="路径_1_" d="M11.6 127.3h-1v-11l-2.4 1.3v-1l2.7-1.4h.7z" class="st0"/><path id="路径_2_" d="m16.4 124.7 1.5 1.2c.5.5.9 1 1.3 1.5l-.7.6-1.2-1.5c-.4-.5-.9-.9-1.4-1.2z" class="st0"/><path id="路径_3_" d="M31.7 115.2v11.2h6.2v.9h-7.2v-12.1z" class="st0"/><path id="路径_4_" d="M42.2 120.3c.3-.1.7-.1 1-.1.6 0 1.2.1 1.7.4s1 .7 1.3 1.2c.3.6.5 1.2.5 1.9s-.2 1.4-.5 2-.8 1-1.3 1.3c-.6.3-1.3.5-2 .5-.8 0-1.6-.2-2.3-.7-.6-.5-1.1-1.1-1.4-1.8l.8-.3c.4 1.3 1.7 2.1 3 2 .7 0 1.5-.3 2-.8.8-1 1-2.4.4-3.6-.2-.4-.6-.8-1-1q-.75-.3-1.5-.3c-.6 0-1.1.2-1.6.5l-.5-.7 4.1-4.7h-5.4v-.9H46v.8z" class="st0"/><path d="M36.3 99.9c-2.1 0-3.8-1.7-3.8-3.8s1.7-3.8 3.8-3.8 3.8 1.7 3.8 3.8-1.7 3.8-3.8 3.8m0-6.6c-1.5 0-2.8 1.3-2.8 2.8s1.3 2.8 2.8 2.8 2.8-1.3 2.8-2.8-1.2-2.8-2.8-2.8" class="st0"/><path d="M35.8 99.4h1v15.5h-1zm.5-43.6c-5.9 0-10.7-4.8-10.7-10.7s4.8-10.7 10.7-10.7S47 39.1 47 45s-4.8 10.8-10.7 10.8m0-20.5c-5.4 0-9.7 4.4-9.7 9.7 0 5.4 4.4 9.7 9.7 9.7 5.4 0 9.7-4.4 9.7-9.7s-4.3-9.7-9.7-9.7m-.1 48.1c-5.9 0-10.7-4.8-10.7-10.7S30.3 62 36.2 62 47 66.8 47 72.7s-4.9 10.7-10.8 10.7m0-20.4c-5.4 0-9.7 4.4-9.7 9.7s4.4 9.7 9.7 9.7 9.7-4.4 9.7-9.7-4.3-9.7-9.7-9.7" class="st0"/><path d="M35.8 25.4h1v67.3h-1zM29.462 6.068l.464-.886L43.3 12.193l-.464.886zM46.9 72.7h23.6v1H46.9z" class="st0"/><path d="m56.76 79.451 6.392-13.126.9.437L57.66 79.89zM46.9 44.5h23.6v1H46.9z" class="st0"/><path d="m56.682 51.295 6.404-13.121.898.438-6.403 13.121z" class="st0"/><path id="路径_12_" d="M17 4.5c-.1-.3-.1-.7-.1-1 0-.6.1-1.2.4-1.7s.7-1 1.3-1.3c.5-.3 1.2-.5 1.9-.5s1.3.2 1.9.5 1 .8 1.3 1.3c.3.6.5 1.3.5 1.9 0 .8-.2 1.6-.7 2.3s-1.1 1.2-1.9 1.5l-.3-.8c1.3-.4 2.1-1.7 2-3 0-.8-.3-1.5-.8-2s-1.3-.8-2-.7q-.75 0-1.5.3c-.4.2-.8.6-1 1s-.4.9-.4 1.4c0 .6.1 1.1.4 1.6l-.7.5-4.7-4.1v5.4h-.9V.6h.8z" class="st0"/><path id="路径_13_" d="M9.9 105.3h5.9v.9H8.7v-.8l3.8-4.3c.6-.7 1.2-1.5 1.7-2.3.3-.5.5-1.1.5-1.7s-.2-1.3-.7-1.7q-.75-.6-1.8-.6c-1.3 0-2.4.8-2.8 2l-.8-.4c.3-.7.8-1.4 1.4-1.8s1.4-.7 2.2-.7c.9 0 1.8.3 2.4.8.6.6 1 1.4.9 2.3 0 .7-.2 1.4-.5 2-.5.9-1.1 1.7-1.8 2.5z" class="st0"/><path id="路径_14_" d="M72.4 34.9c.3-.1.7-.1 1-.1.6 0 1.2.1 1.7.4s1 .7 1.3 1.2c.3.6.5 1.2.5 1.9s-.2 1.3-.5 1.9-.8 1-1.3 1.3c-.6.3-1.3.5-1.9.5-1.7 0-3.2-1-3.8-2.5l.8-.3c.4 1.3 1.7 2.1 3 2 .8 0 1.5-.3 2-.8s.8-1.3.8-2c0-.5-.1-1-.4-1.5-.2-.4-.6-.8-1-1s-.9-.4-1.4-.3c-.6 0-1.1.1-1.6.4l-.6-.7 4-4.7h-5.4v-.9h6.6v.8z" class="st0"/><path id="路径_15_" d="M72.4 61.1c.3-.1.7-.1 1-.1.6 0 1.2.1 1.7.4s1 .7 1.3 1.2c.3.6.5 1.2.5 1.9s-.2 1.4-.5 2-.8 1-1.3 1.3c-.6.3-1.3.5-1.9.5-.8 0-1.6-.2-2.3-.7q-1.05-.75-1.5-1.8l.8-.3c.4 1.3 1.7 2.1 3 2 .7 0 1.5-.3 2-.8.5-.6.8-1.3.8-2.1 0-.5-.1-1-.4-1.5-.2-.4-.6-.8-1-1s-.9-.4-1.4-.4c-.6 0-1.1.2-1.6.5l-.6-.7 4-4.7h-5.4v-.9h6.6v.8z" class="st0"/><path d="M36.3 25.4c-2.1 0-3.8-1.7-3.8-3.8s1.7-3.8 3.8-3.8 3.8 1.7 3.8 3.8-1.7 3.8-3.8 3.8m0-6.6c-1.5 0-2.8 1.3-2.8 2.8s1.3 2.8 2.8 2.8 2.8-1.3 2.8-2.8-1.2-2.8-2.8-2.8" class="st0"/><path d="M35.8 0h1v18.3h-1zM17.487 95.254l13.502-17.749.796.605-13.503 17.75z" class="st0"/></g></g></svg>