<svg xmlns="http://www.w3.org/2000/svg" xml:space="preserve" id="图层_1" x="0" y="0" viewBox="0 0 129 129"><style>.st0{fill:#fff}</style><g id="页面-1"><g id="_x31_-109"><path d="M128.1 128.602H.5c-.3 0-.5-.2-.5-.5V.502c0-.3.2-.5.5-.5h127.6c.3 0 .5.2.5.5v127.6c0 .3-.2.5-.5.5m-127.1-1h126.6V1.002H1z" class="st0"/><path d="M.542 128.11 127.831.118l.709.705L1.25 128.815zM13.9 15.602h64v1h-64zm0 23.8h14.9v1H13.9zm49.1 0h14.9v1H63zm-24.5 0h10.4v1H38.5zm21.5 46.2h64v1H60zm0 23.8h14.9v1H60zm49.2 0h14.9v1h-14.9zm-24.6 0H95v1H84.6z" class="st0"/></g></g></svg>