<svg xmlns="http://www.w3.org/2000/svg" xml:space="preserve" id="图层_1" x="0" y="0" viewBox="0 0 129 92"><style>.st0{fill:#fff}</style><g id="页面-1"><g id="_x31_-115" transform="translate(.35 .502)"><path id="路径_1_" d="m30.1 66-7.5-12.8-5.9 6.4z" class="st0"/><path d="M30.1 66.5h-.2l-13.5-6.4c-.1-.1-.2-.2-.3-.4 0-.2 0-.3.1-.4l5.9-6.4c.1-.1.3-.2.4-.2.2 0 .3.1.4.2l7.5 12.9c.1.2.1.4-.1.6.1.1 0 .1-.2.1m-12.6-7.1 11.4 5.4L22.5 54z" class="st0"/><path d="m10.293 47.485.697-.718 14.719 14.27-.697.718z" class="st0"/><path id="路径_3_" d="M19.5 76.7 12 63.8l-5.9 6.4z" class="st0"/><path d="M19.5 77.2h-.2L5.8 70.7c-.1-.1-.2-.2-.3-.4 0-.2 0-.3.1-.4l5.9-6.4c.1-.1.3-.2.4-.2.2 0 .3.1.4.2l7.5 12.9c.1.2.1.4-.1.6.1.1-.1.2-.2.2M6.9 70.1l11.4 5.4-6.4-10.9z" class="st0"/><path d="m-.286 58.134.696-.718 14.72 14.27-.697.718zM128 91.4H39.2c-.3 0-.5-.2-.5-.5V0c0-.3.2-.5.5-.5H128c.3 0 .5.2.5.5v90.9c0 .3-.2.5-.5.5m-88.3-1h87.8V.5H39.7z" class="st0"/><path d="M81 51.9h1V71h-1z" class="st0"/><path d="M65.3 61.1h16.2v1H65.3zm22.2-17.4h1v36.4h-1z" class="st0"/><path d="M88.2 61.1h13.7v1H88.2z" class="st0"/><path id="路径_8_" d="M81.4 16.3c-1.1.7-2 1.7-2.5 2.9q-.9 2.1-.9 4.5c0 1.5.3 3.1.8 4.5.5 1.2 1.3 2.2 2.4 2.9s2.4 1 3.7 1c2.1 0 4-.9 5.3-2.5v-5h-4.6v-.9h5.5V30c-1.5 1.9-3.9 3-6.3 3.1-1.5 0-2.9-.4-4.2-1.1-1.2-.8-2.2-1.9-2.7-3.2-.7-1.6-1-3.3-1-5s.3-3.4 1-5c.6-1.3 1.6-2.4 2.8-3.2 1.3-.8 2.8-1.2 4.3-1.1 1.1 0 2.2.2 3.2.7s1.8 1.2 2.4 2l-.6.5c-1.2-1.5-3-2.4-4.8-2.4-1.3 0-2.6.3-3.8 1" class="st0"/></g></g></svg>