<svg xmlns="http://www.w3.org/2000/svg" xml:space="preserve" id="图层_1" x="0" y="0" viewBox="0 0 129 129"><style>.st0{fill:#fff}</style><g id="页面-1"><g id="_x31_-116" transform="translate(.5 .502)"><path d="M128 128.5H0c-.3 0-.5-.2-.5-.5V0c0-.3.2-.5.5-.5h128c.3 0 .5.2.5.5v128c0 .3-.2.5-.5.5m-127.5-1h127V.5H.5z" class="st0"/><path id="路径" d="M53.4 12.3v36h-1v-36z" class="st0"/><path d="M94.5 48.8H75.2c-.2 0-.3-.1-.4-.2-.1-.2-.1-.3 0-.5l9.6-17.4c.1-.2.3-.3.4-.3.2 0 .3.1.4.3L94.9 48c.1.2.1.3 0 .5s-.2.3-.4.3m-18.4-1h17.6l-8.8-15.9zm18.6 41.5c-11 0-19.9-8.9-19.9-19.9 0-.3.2-.5.5-.5h38.9c.3 0 .5.2.5.5-.1 10.9-9.1 19.9-20 19.9m-19-19.5c.3 10.2 8.7 18.5 19 18.5s18.7-8.2 18.9-18.4H75.7z" class="st0"/><path d="M102.5 86.9h1v21.3h-1zm-16 .3h1v21h-1zM38 100.7c-8.8 0-15.9-7.1-15.9-15.9-.1-8.8 7.1-16 15.9-16s15.9 7.2 15.9 16c0 8.7-7.1 15.9-15.9 15.9m0-30.9c-8.2 0-14.9 6.7-14.9 14.9s6.6 15 14.9 15S52.9 93 52.9 84.8s-6.7-15-14.9-15" class="st0"/><path d="m26.779 95.31 21.849-21.85.707.707-21.85 21.85z" class="st0"/><path d="m26.708 74.167.707-.707 21.85 21.85-.708.707z" class="st0"/></g></g></svg>