<svg xmlns="http://www.w3.org/2000/svg" xml:space="preserve" id="图层_1" x="0" y="0" viewBox="0 0 104 128"><style>.st0{fill:#fff}</style><g id="页面-1"><g id="_x31_-118"><path d="M0 42.402h20.9v1H0z" class="st0"/><path d="M9.9.002h1v42.9h-1zm73.1 42.4h20.9v1H83z" class="st0"/><path d="M92.9.002h1v42.9h-1zm-41.8 93.9c-5.7 0-10.4-4.7-10.4-10.4s4.7-10.4 10.4-10.4 10.4 4.7 10.4 10.4-4.7 10.4-10.4 10.4m0-19.8c-5.2 0-9.4 4.2-9.4 9.4s4.2 9.4 9.4 9.4 9.4-4.2 9.4-9.4-4.2-9.4-9.4-9.4" class="st0"/><path d="M50.6 40.602h1v33h-1zm0 52.8h1v34.6h-1z" class="st0"/></g></g></svg>