<svg xmlns="http://www.w3.org/2000/svg" xml:space="preserve" id="图层_1" x="0" y="0" viewBox="0 0 42 129"><style>.st0{fill:#fff}</style><g id="页面-1"><g id="_x31_-124"><path d="M29.62 128.008h-1v-44.8l-28-45.6.9-.5 28.1 45.7c0 .1.1.2.1.3v44.9zm-1-128h1v41.2h-1z" class="st0"/><path d="m21.697 34.542.697-.717 14.12 13.739-.698.717z" class="st0"/><path d="m21.888 47.83 13.93-13.93.707.707-13.93 13.93zm7.232 57.278c-6.7 0-12-2.6-12-5.9s5.3-5.9 12-5.9 12 2.6 12 5.9-5.3 5.9-12 5.9m0-10.8c-6 0-11 2.2-11 4.9s5 4.9 11 4.9 11-2.2 11-4.9-5.1-4.9-11-4.9" class="st0"/></g></g></svg>