<svg xmlns="http://www.w3.org/2000/svg" xml:space="preserve" id="图层_1" x="0" y="0" viewBox="0 0 34 129"><style>.st0{fill:#fff}</style><g id="页面-1"><g id="_x31_-126"><path d="M27.5.008h1v41.2h-1zm2.5 128h-1v-45.5L.6 36.208l.9-.5 28.5 46.4c0 .1.1.2.1.3v45.6z" class="st0"/><path d="M18.4 80.908h-.1c-.1 0-.2-.1-.3-.2l-16.9-25.6c0-.1-.1-.3 0-.4s.1-.2.2-.3l14.1-9.3c.1-.1.2-.1.4-.1.1 0 .2.1.3.2l16.9 25.6c.2.2.1.5-.1.7l-14.1 9.3c-.2.1-.3.1-.4.1m-16.1-26 16.3 24.8 13.3-8.7-16.3-24.8z" class="st0"/></g></g></svg>