<svg xmlns="http://www.w3.org/2000/svg" xml:space="preserve" id="图层_1" x="0" y="0" viewBox="0 0 49 129"><style>.st0{fill:#fff}</style><g id="页面-1"><g id="_x31_-123" transform="translate(0 .008)"><path id="路径" d="M1.1 75v21.3H0V75z" class="st0"/><path d="M25 97.2H13c-.2 0-.3-.1-.4-.2s-.1-.3 0-.5l6-10.8c.2-.3.7-.3.9 0l6 10.8c.1.2.1.3 0 .5s-.3.2-.5.2m-11.1-1h10.3L19 86.9zM44 128h-1V84.5L15.8 40.3l.9-.5L44 84.1c0 .1.1.2.1.3V128zM40.7 0h1v40h-1z" class="st0"/><path d="m33.993 33.521.697-.717L48.385 46.12l-.697.717z" class="st0"/><path d="M34.113 46.316 47.618 32.81l.707.707L34.82 47.023z" class="st0"/></g></g></svg>