<svg xmlns="http://www.w3.org/2000/svg" xml:space="preserve" id="图层_1" x="0" y="0" viewBox="0 0 20 128"><style>.st0{fill:#fff}</style><g id="页面-1"><g id="_x31_-136"><g transform="translate(.84 .008)"><path id="路径_1_" d="m9 59.7 5.6-18.4H3.3z" class="st0"/><path d="M9 60.2c-.2 0-.4-.1-.5-.4L2.9 41.5c0-.2 0-.3.1-.4s.2-.2.4-.2h11.2c.2 0 .3.1.4.2s.1.3.1.4L9.4 59.8c0 .2-.2.4-.4.4M4 41.8 9 58l4.9-16.1H4z" class="st0"/></g><path d="m9.136.014 1-.01.409 43.3-1 .01z" class="st0"/><path d="M18.74 96.608H.84c-.3 0-.5-.2-.5-.5v-63.2c0-.3.2-.5.5-.5h17.9c.3 0 .5.2.5.5v63.3c0 .2-.2.4-.5.4m-17.4-1h16.9v-62.2H1.34zm8 1.5h1v30.9h-1z" class="st0"/></g></g></svg>