<svg xmlns="http://www.w3.org/2000/svg" xml:space="preserve" id="图层_1" x="0" y="0" viewBox="0 0 18 129"><style>.st0{fill:#fff}</style><g id="页面-1"><g id="_x31_-133"><path d="M8.3.008h1v128h-1z" class="st0"/><path d="M16.8 96.508H.8c-.3 0-.5-.2-.5-.5v-64c0-.3.2-.5.5-.5h16c.3 0 .5.2.5.5v64c0 .3-.2.5-.5.5m-15.5-1h15v-63h-15z" class="st0"/><g transform="translate(.8 .008)"><path id="矩形_2_" d="M0 32h16v12H0z" class="st0"/><path d="M16 44.5H0c-.3 0-.5-.2-.5-.5V32c0-.3.2-.5.5-.5h16c.3 0 .5.2.5.5v12c0 .3-.2.5-.5.5m-15.5-1h15v-11H.5z" class="st0"/></g></g></g></svg>