<svg xmlns="http://www.w3.org/2000/svg" xml:space="preserve" id="图层_1" x="0" y="0" viewBox="0 0 25 129"><style>.st0{fill:#fff}</style><g id="页面-1"><g id="_x31_-130"><path d="M1.46 128.008h-1v-45.5l18.2-45.8.9.4-18.1 45.7z" class="st0"/><path d="M1.06 43.608h23.6v1H1.06z" class="st0"/><path d="M1.86 44.608h-.9c-.3 0-.5-.2-.5-.5V.008h1v21.2c4.3-.1 8.2 2.1 10.4 5.8s2.2 8.2 0 11.9c-2.1 3.5-5.9 5.7-10 5.7m-.4-1c3.9.1 7.6-1.9 9.5-5.3 2-3.4 2-7.5 0-10.9s-5.6-5.4-9.5-5.3v-.2z" class="st0"/></g></g></svg>