<svg xmlns="http://www.w3.org/2000/svg" xml:space="preserve" id="图层_1" x="0" y="0" viewBox="0 0 81 129"><style>.st0{fill:#fff}</style><g id="页面-1"><g id="_x31_-148"><path d="M79.6.008h1v43.3h-1zM0 86.408v-1c11.5 0 20.9-9.4 20.9-20.9 0-5.6-2.2-10.8-6.1-14.8s-9.2-6.1-14.8-6.1v-1c5.9 0 11.4 2.3 15.5 6.4s6.4 9.6 6.4 15.5c0 12.1-9.8 21.9-21.9 21.9m80.6 41.6h-1v-44.6l-27.9-45.4.9-.5 28 45.5c0 .1.1.2.1.3v44.7z" class="st0"/><path d="M20.5 57.908h44v1h-44zm1.2 9.2h48.7v1H21.7z" class="st0"/></g></g></svg>