<svg xmlns="http://www.w3.org/2000/svg" xml:space="preserve" id="图层_1" x="0" y="0" viewBox="0 0 29 129"><style>.st0{fill:#fff}</style><g id="页面-1"><g id="_x31_-157" transform="translate(1.474 .008)"><path d="m26.6 35.8-1-.1c.5-4.4-1-8.8-4.1-11.9-8.1-6.2-5.4-14-5.4-14.1l.9.3c-.1.3-2.4 7.2 5.1 13 3.5 3.4 5.1 8.1 4.5 12.8" class="st0"/><g id="编组"><path d="M21.7 127.96h-1v-27.1l-17-27.6.9-.5 17.1 27.7c0 .1.1.2.1.3v27.2z" class="st0"/><g transform="translate(0 72.96)"><path id="矩形_1_" d="M1.5 9.9h10.3v8.6H1.5z" class="st0" transform="rotate(-31.501 6.616 14.21)"/><path d="M4.5 21.1h-.1c-.1 0-.2-.1-.3-.2l-4.5-7.3c-.1-.1-.1-.2-.1-.4 0-.1.1-.2.2-.3l8.7-5.4c.3-.2.6-.1.8.1l4.5 7.3c.1.2.1.5-.2.7L4.8 21c-.1 0-.2.1-.3.1M.7 13.4l4 6.5 7.9-4.8-4-6.5z" class="st0"/></g></g><path d="m16.574 49.577 8.485-8.485.707.707-8.485 8.485z" class="st0"/><path d="m16.572 41.8.706-.707 8.49 8.48-.706.708zM15.7 56.2h11v1h-11z" class="st0"/><path d="M21.2 76.4c-4.1 0-7.5-3.4-7.5-7.5 0-4 3.1-7.2 7-7.5V0h1v75.9c0 .3-.3.5-.5.5m-.5-14c-3.4.3-6 3.1-6 6.5s2.6 6.2 6 6.5z" class="st0"/></g></g></svg>