<svg xmlns="http://www.w3.org/2000/svg" xml:space="preserve" id="图层_1" x="0" y="0" viewBox="0 0 119 129"><style>.st0{fill:#fff}</style><g id="页面-1"><g id="_x31_-155" transform="translate(.23)"><path id="路径" d="M101.9 63.5c-.3-.9-.5-1.9-.4-2.9 0-1.4.4-2.7 1.1-3.9s1.7-2.2 2.9-2.9c1.3-.7 2.9-1.1 4.4-1 1.5 0 3 .4 4.4 1.2 1.2.7 2.2 1.7 2.9 3s1 2.9 1 4.4c0 1.8-.6 3.6-1.6 5.1-1.1 1.4-2.5 2.6-4.1 3.3l-.6-1.3c3.3-1.5 4.9-3.9 5-7.2 0-1.2-.2-2.5-.8-3.6-.6-1-1.4-1.9-2.4-2.5-1.1-.6-2.4-1-3.6-1-1.3 0-2.5.2-3.7.8-1.1.6-1.9 1.4-2.5 2.4-.6 1.1-1 2.2-1 3.5-.1 1.5.3 2.9 1 4.2l-1.1.8-11.4-10.2-.3 13h-1.4l.3-14.9h1.3z" class="st0"/><path id="路径_1_" d="M15.4 10.7c-.3-.9-.5-1.9-.5-2.9 0-1.4.4-2.7 1.1-3.9s1.7-2.2 2.9-2.9c1.4-.7 2.9-1.1 4.4-1 1.5 0 3 .4 4.4 1.1 1.2.7 2.2 1.7 2.9 3s1 2.8 1 4.4c0 1.8-.6 3.6-1.6 5.1a9.7 9.7 0 0 1-4.2 3.3l-.6-1.3c3.3-1.5 4.9-3.9 5-7.2 0-1.2-.2-2.5-.8-3.6-.6-1-1.4-1.9-2.4-2.5-1.1-.6-2.4-.9-3.6-.9-1.3 0-2.5.2-3.6.8s-1.9 1.4-2.5 2.4-1 2.2-1 3.4c0 1.5.3 2.9 1.1 4.2l-1.4 1L4.8 2.9l-.3 13H3.1l.4-15 1.3.1 10.5 9.8z" class="st0"/><path id="路径_2_" d="M15.4 94.7c-.3-.9-.5-1.9-.5-2.9 0-1.4.4-2.7 1.1-3.9s1.7-2.2 2.9-2.9c1.4-.7 2.9-1.1 4.4-1 1.5 0 3 .4 4.4 1.2 1.2.7 2.2 1.7 2.9 3 1.5 3 1.2 6.7-.7 9.4-1.1 1.4-2.5 2.6-4.1 3.3l-.6-1.3c3.3-1.5 4.9-3.9 5-7.2 0-1.2-.2-2.5-.8-3.6-.6-1-1.4-1.9-2.4-2.5-1.1-.6-2.4-.9-3.6-.9-1.3 0-2.5.2-3.7.8-1.1.6-1.9 1.4-2.5 2.4s-1 2.2-1 3.4c0 1.5.3 2.9 1 4.2l-1.2 1L4.8 86.9l-.3 13H3.1L3.4 85h1.4l10.5 9.8z" class="st0"/><path d="M73.6 128h-1V88.4l-27-52.2.9-.5L73.6 88c0 .1.1.2.1.2V128zM15.3 45.4h1v37.2h-1z" class="st0"/><path d="M15.8 63.8h16.4v1H15.8zm28.3 0h16.3v1H44.1zm13.676-52.581.432-.902 30.304 14.515-.432.902z" class="st0"/><path d="M72.6 0h1v39.7h-1zM47.587 86.601l36.55-23.952.549.837-36.55 23.952zM-.19 64.738l.467-.884 29.283 15.43-.466.886z" class="st0"/></g></g></svg>