<svg xmlns="http://www.w3.org/2000/svg" xml:space="preserve" id="图层_1" x="0" y="0" viewBox="0 0 110 129"><style>.st0{fill:#fff}</style><g id="页面-1"><g id="_x31_-153"><path id="路径" d="M92.8 70.5c-.3-.9-.5-1.9-.5-2.9 0-1.4.4-2.7 1.1-3.9s1.7-2.2 2.9-2.9c1.4-.7 2.9-1.1 4.4-1 1.5 0 3 .4 4.4 1.2 1.2.7 2.2 1.7 2.9 3s1 2.9 1 4.4c0 1.8-.6 3.6-1.6 5.1-1.1 1.4-2.5 2.6-4.1 3.3l-.6-1.3c3.3-1.5 4.9-3.9 5-7.2 0-1.2-.2-2.5-.8-3.6-.6-1-1.4-1.9-2.4-2.5-1.1-.6-2.4-1-3.6-1-1.3 0-2.5.2-3.6.8s-1.9 1.4-2.5 2.4-1 2.2-1 3.4c0 1.5.3 2.9 1 4.2l-1.3 1-11.3-10.3-.3 13h-1.4l.3-14.9h1.3z" class="st0"/><path id="路径_1_" d="M12.2 10.7c-.3-.9-.5-1.9-.5-2.9 0-1.4.4-2.7 1.1-3.9s1.7-2.2 2.9-2.9c1.4-.7 2.9-1.1 4.4-1 1.5 0 3 .4 4.4 1.1 1.2.7 2.3 1.7 2.9 3 .7 1.3 1 2.8.9 4.4 0 1.8-.6 3.6-1.6 5.1-1 1.4-2.5 2.6-4.1 3.3l-.6-1.3c3.3-1.5 4.9-3.9 5-7.1 0-1.2-.2-2.5-.8-3.6-.6-1-1.4-1.9-2.4-2.5-1.1-.6-2.4-.9-3.6-.9-1.3 0-2.5.2-3.7.8-1 .6-1.9 1.4-2.5 2.4s-1 2.2-1 3.4c0 1.5.3 2.9 1 4.2l-1.1.8L1.6 2.9l-.3 13H0L.3.9l1.3.1 10.5 9.8z" class="st0"/><path d="M66.1 128h-1V92.7L41 46.1l.9-.5 24.2 46.7c0 .1.1.1.1.2V128zM13.9 54.3h1v33.2h-1z" class="st0"/><path d="M14.4 70.7H29v1H14.4zm25.3 0h14.5v1H39.7zm12.237-46.865.432-.901L79.33 35.863l-.432.901z" class="st0"/><path d="M65.1 13.8h1v35.4h-1zM42.792 90.998l32.62-21.376.548.836-32.62 21.376z" class="st0"/></g></g></svg>