<svg xmlns="http://www.w3.org/2000/svg" xml:space="preserve" id="图层_1" x="0" y="0" viewBox="0 0 78 129"><style>.st0{fill:#fff}</style><g id="页面-1"><g id="_x31_-162"><path d="M76.6.008h1v40.7h-1zm1 128h-1v-46l-28.8-46.8.9-.5 28.8 46.9c0 .1.1.2.1.3z" class="st0"/><path d="M51.5 59.208h11.8v1H51.5zm-25.1 0h17.1v1H26.4zm-13.4 1.5c-6.5 0-11.8-5.3-11.8-11.8s5.3-11.8 11.8-11.8 11.8 5.3 11.8 11.8-5.3 11.8-11.8 11.8m0-22.6c-5.9 0-10.8 4.9-10.8 10.8s4.8 10.8 10.8 10.8 10.8-4.8 10.8-10.8-4.9-10.8-10.8-10.8" class="st0"/><path d="M25.5 82.608H.5c-.2 0-.3-.1-.4-.2s-.1-.3 0-.5l12.5-21.6c.2-.3.7-.3.9 0l12.5 21.6c.1.2.1.3 0 .5s-.3.2-.5.2m-24.1-1h23.3L13 61.508z" class="st0"/></g></g></svg>