<svg xmlns="http://www.w3.org/2000/svg" xml:space="preserve" id="图层_1" x="0" y="0" viewBox="0 0 112 129"><style>.st0{fill:#fff}</style><g id="页面-1"><g id="_x31_-169"><path d="M83.8 128.008h-1v-42.4l19.3-48.4.9.4-19.2 48.3z" class="st0"/><path d="M111.4 44.708H82.2c-.3 0-.5-.2-.5-.5V.008h1v43.7h28.6v1zm-37 18.8h17.7v1H74.4zm-28.6 0h17.7v1H45.8zm-22.9 0H38v1H22.9z" class="st0"/><path d="M1 94.108H0v-20c0-.3.2-.5.5-.5h21.9v-19.3H.5c-.3 0-.5-.2-.5-.5v-20h1v19.5h21.9c.3 0 .5.2.5.5v20.3c0 .3-.2.5-.5.5H1z" class="st0"/></g></g></svg>