<svg xmlns="http://www.w3.org/2000/svg" xml:space="preserve" id="图层_1" x="0" y="0" viewBox="0 0 87 129"><style>.st0{fill:#fff}</style><g id="页面-1"><g id="_x31_-163"><path d="M86.2 128.008h-1v-46.2l-28.9-47 .9-.5 29 47.1c0 .1.1.2.1.3v46.3zm-1-128h1v40.8h-1z" class="st0"/><path d="M59 62.508h15.1v1H59zm-27.8 0h17.1v1H31.2zm-22.1 0h14.6v1H9.1z" class="st0"/><path d="M8.6 52.508h1v20.7h-1z" class="st0"/><path d="M9.6 84.708h-1v-4H.5c-.3 0-.5-.2-.5-.5v-34.3c0-.3.2-.5.5-.5h8.1v-4.5h1v5c0 .3-.2.5-.5.5H1v33.3h8.1c.3 0 .5.2.5.5z" class="st0"/></g></g></svg>