<svg xmlns="http://www.w3.org/2000/svg" xml:space="preserve" id="图层_1" x="0" y="0" viewBox="0 0 129 104"><style>.st0{fill:#fff}</style><g id="页面-1"><g id="_x31_-171"><path d="M98.7 51.008h12.2v1H98.7zm-23 0h14.2v1H75.7zm-18.4 0h12.1v1H57.3zm-20.1 0h12.1v1H37.2z" class="st0"/><path d="M18.7 61.508c-10.5 0-18.7-4-18.7-9.1s8.2-9.1 18.7-9.1 18.7 4 18.7 9.1-8.2 9.1-18.7 9.1m0-17.2c-9.8 0-17.7 3.6-17.7 8.1s8 8.1 17.7 8.1 17.8-3.7 17.8-8.1c0-4.5-8-8.1-17.8-8.1" class="st0"/><path d="M18.2 32.908h1v10.9h-1zm88.2 70.2h-1v-34.2l15.5-39 .9.4-15.5 38.9v33.9z" class="st0"/><path d="M128.5 36.108H105c-.3 0-.5-.2-.5-.5V.008h1v35.1h23z" class="st0"/></g></g></svg>