<svg xmlns="http://www.w3.org/2000/svg" xml:space="preserve" id="图层_1" x="0" y="0" viewBox="0 0 98 129"><style>.st0{fill:#fff}</style><g id="页面-1"><g id="_x31_-176"><path d="m70.66 38.442.873-.488 25.87 46.258-.873.489zm26.046 46.166h1v43.4h-1zm0-84.6h1v42.3h-1zm-74.6 84.9c-.1 0-.3-.1-.4-.1l-20.6-20.6c-.1-.1-.1-.2-.1-.4s.1-.3.1-.4l20.6-20.6c.2-.2.5-.2.7 0l20.6 20.6c.2.2.2.5 0 .7l-20.6 20.6c-.1.1-.2.2-.3.2m-19.9-21.1 19.9 19.9 19.9-19.9-19.9-19.9z" class="st0"/><path d="M16.906 48.308h1v31.3h-1zm9.4 0h1v30.6h-1zm16.6 14.9h17.8v1h-17.8zm25.6 0h16.7v1h-16.7z" class="st0"/></g></g></svg>