<svg xmlns="http://www.w3.org/2000/svg" xml:space="preserve" id="图层_1" x="0" y="0" viewBox="0 0 129 108"><style>.st0{fill:#fff}</style><g id="页面-1"><g id="_x31_-170"><path d="m106.244 35.7.852-.523 21.637 35.179-.852.524zM128 70.908h1v36.3h-1zm0-70.9h1v35.5h-1zm-24.9 52.9h12.7v1h-12.7zm-24.1 0h14.9v1H79zm-19.2 0h12.7v1H59.8zm-21 0h12.7v1H38.8z" class="st0"/><path d="M19.5 63.708c-11 0-19.5-4.2-19.5-9.5s8.6-9.5 19.5-9.5 19.5 4.2 19.5 9.5-8.5 9.5-19.5 9.5m0-17.9c-10.2 0-18.5 3.8-18.5 8.5s8.3 8.5 18.5 8.5 18.5-3.8 18.5-8.5c.1-4.7-8.2-8.5-18.5-8.5" class="st0"/><path d="M19 33.908h1v11.4h-1z" class="st0"/></g></g></svg>