<svg xmlns="http://www.w3.org/2000/svg" xml:space="preserve" id="图层_1" x="0" y="0" viewBox="0 0 129 71"><style>.st0{fill:#fff}</style><g id="页面-1"><g id="_x31_-174" transform="translate(0 .008)"><path d="M106.8 70.5h-1V47.7L84.3 25.6l.7-.7 21.6 22.2c.1.1.1.2.1.3v23.1zM72.5 34.2h8v1h-8z" class="st0"/><path d="M85.8 34.2h8v1h-8zm-28.6 0h9.4v1h-9.4zm-12.2 0h8v1h-8zm-13.4 0h8.1v1h-8.1zm-13.6 0h8.1v1H18zM60 0h1v22.5h-1zm22.8 0h1v22.5h-1zm22.5 0h1v22.5h-1zm22.2 0h1v22.5h-1z" class="st0"/><path id="路径_11_" d="M3.4 18.2h-1v-11L0 8.5v-1L2.7 6h.7z" class="st0"/><path id="路径_12_" d="M11.8 17.3h6v.9h-7.2v-.8l3.8-4.4c.6-.7 1.2-1.5 1.7-2.3.3-.5.5-1.1.5-1.7s-.2-1.3-.7-1.7q-.75-.6-1.8-.6c-1.3 0-2.4.8-2.8 2l-.8-.4c.3-.7.8-1.4 1.5-1.8.6-.4 1.4-.7 2.2-.7.9 0 1.8.3 2.5.8.6.6 1 1.5.9 2.3 0 .7-.2 1.4-.6 2-.5.9-1.1 1.8-1.8 2.5z" class="st0"/><path id="路径_13_" d="M26.7 11.2c.3-.1.7-.1 1-.1.6 0 1.2.1 1.7.4s1 .7 1.3 1.2c.3.6.5 1.3.5 1.9 0 .7-.1 1.4-.5 2-.3.6-.8 1-1.3 1.3-.6.3-1.3.5-2 .5-.8 0-1.6-.2-2.3-.7s-1.2-1.1-1.5-1.9l.8-.3c.4 1.3 1.7 2.1 3 2 .7 0 1.5-.3 2-.8.5-.6.8-1.3.8-2.1 0-.5-.1-1-.4-1.5-.2-.4-.6-.8-1-1s-.9-.4-1.5-.3c-.6 0-1.1.1-1.6.4l-.5-.7 4.1-4.7h-5.4V6h6.6v.8z" class="st0"/><path id="形状" d="M43.6 14.5h1.5v.8h-1.5v2.9h-.9v-2.9H37v-.7L42.4 6h1.3v8.5zm-.9-7.3-4.6 7.3h4.6z" class="st0"/><path d="m3.087 22.953.814-.581 16.683 23.353-.814.581z" class="st0"/><path d="M19.883 45.882 37.32 23.09l.794.607L20.677 46.49z" class="st0"/><path d="m19.785 45.931 5.839-24.205.972.234-5.84 24.206z" class="st0"/><path d="m13.867 22.208.967-.253 6.107 23.314-.967.253z" class="st0"/></g></g></svg>