<svg xmlns="http://www.w3.org/2000/svg" xml:space="preserve" id="图层_1" x="0" y="0" viewBox="0 0 98 129"><style>.st0{fill:#fff}</style><g id="页面-1"><g id="_x31_-175"><path d="m70.847 38.41.873-.487L97.589 84.18l-.873.488zM96.9 84.608h1v43.4h-1zm0-84.6h1v42.3h-1zm-74.7 84.9c-.1 0-.3-.1-.4-.1l-20.5-20.6c-.2-.2-.2-.5 0-.7l20.6-20.6c.2-.2.5-.2.7 0l20.6 20.6c.2.2.2.5 0 .7l-20.6 20.5c-.1.1-.3.2-.4.2m-19.9-21.1 19.9 19.9 19.9-19.9-19.9-19.9z" class="st0"/><path d="M1 46.608h1v34.5H1zm16 1.7h1v31.3h-1zm9.4 0h1v30.6h-1zm16.6 14.9h17.8v1H43zm25.6 0h16.7v1H68.6z" class="st0"/></g></g></svg>