<svg xmlns="http://www.w3.org/2000/svg" xml:space="preserve" id="图层_1" x="0" y="0" viewBox="0 0 129 130"><style>.st0{fill:#fff}</style><g id="页面-1"><g id="_x31_-188" transform="translate(.5 .508)"><path id="路径" d="M26.2 48.2v28.6h-1.5V48.2z" class="st0"/><path id="路径_1_" d="m53.1 35.6 13 6.7v1.2l-13 6.6v-1.2l11.8-6-11.8-6z" class="st0"/><path id="路径_2_" d="M70.7 49.6c1 2.4 3.4 4 6 3.9 1 0 1.9-.2 2.8-.7.8-.5 1.5-1.2 1.9-2 .5-.9.7-2 .7-3 .1-1.6-.5-3.1-1.5-4.3-1-1.1-2.5-1.6-3.9-1.6q-1.35 0-2.7.6c-.9.4-1.6 1-2.2 1.8l-1-.3.8-12.3H82v1.1h-9.3l-.7 9.8h.1c1.3-1.2 3-1.9 4.8-1.8 1.2 0 2.4.3 3.4.9s1.8 1.4 2.3 2.5c.6 1.1.9 2.4.8 3.6 0 1.2-.3 2.5-.8 3.6-.5 1-1.4 1.9-2.4 2.4-1 .6-2.2.9-3.4.9-1.5.1-2.9-.3-4.2-1.1-1.2-.8-2.2-2-2.8-3.3z" class="st0"/><path id="形状" d="M103.2 54.2h-1.3L99 46.1h-9.3l-2.9 8.1h-1.2l8.2-22.6H95zm-8.9-20.9-4.2 11.6h8.5z" class="st0"/><path id="路径_3_" d="M53.1 85.3v-1.2l13-6.7v1.2l-11.8 6 11.8 6v1.3z" class="st0"/><path id="路径_4_" d="M74.7 83.2c.8-.3 1.5-.4 2.3-.4 1.1 0 2.2.3 3.2.8s1.8 1.4 2.4 2.3q.9 1.65.9 3.6c0 1.2-.3 2.5-.9 3.6q-.9 1.5-2.4 2.4c-1.1.6-2.3.9-3.5.9-1.5 0-3-.4-4.2-1.2s-2.2-2-2.8-3.3l1-.5c.9 2.4 3.3 4 5.9 4 1 0 2-.2 2.9-.7.8-.5 1.5-1.2 2-2 .5-.9.7-2 .7-3s-.2-2.1-.8-3c-.5-.8-1.2-1.5-2-2-.9-.5-1.8-.7-2.8-.7-1.2 0-2.4.3-3.4.9l-.7-.9 8.2-9.4H70.2v-1.1h12.2v1l-7.8 8.7z" class="st0"/><path id="形状_1_" d="M103.3 96H102l-2.9-8.1h-9.3L86.9 96h-1.3l8.2-22.6h1.3zm-8.9-20.8-4.2 11.6h8.5z" class="st0"/><path d="M128 128.5H0c-.3 0-.5-.2-.5-.5V0c0-.3.2-.5.5-.5h128c.3 0 .5.2.5.5v128c0 .3-.2.5-.5.5m-127.5-1h127V.5H.5z" class="st0"/></g></g></svg>