<svg xmlns="http://www.w3.org/2000/svg" xml:space="preserve" id="图层_1" x="0" y="0" viewBox="0 0 129 89"><style>.st0{fill:#fff}</style><g id="页面-1"><g id="_x31_-186"><path d="M128.5 88.808H.5c-.3 0-.5-.2-.5-.5V.508c0-.3.2-.5.5-.5h128c.3 0 .5.2.5.5v87.8c0 .2-.2.5-.5.5m-127.5-1h127v-86.8H1z" class="st0"/><g transform="translate(.5 .508)"><path id="路径_1_" d="m64 37 2.2 4.5 5.1.7-3.7 3.6.9 5-4.5-2.3-4.5 2.3.9-5-3.7-3.6 5.1-.7z" class="st0"/><path d="M59.5 51.3c-.1 0-.2 0-.3-.1-.2-.1-.2-.3-.2-.5l.8-4.8-3.5-3.4c-.1-.1-.2-.3-.1-.5s.2-.3.4-.3l4.8-.7 2.1-4.3c.2-.3.7-.3.9 0l2.1 4.3 4.8.7c.2 0 .3.2.4.3.1.2 0 .4-.1.5L68.2 46l.8 4.8c0 .2 0 .4-.2.5s-.4.1-.5 0L64 49l-4.3 2.2c0 .1-.1.1-.2.1m-1.7-8.7 2.9 2.8c.1.1.2.3.1.4l-.7 4 3.6-1.9c.1-.1.3-.1.5 0l3.6 1.9-.7-4c0-.2 0-.3.1-.4l2.9-2.8-4-.6c-.2 0-.3-.1-.4-.3L64 38.1l-1.8 3.7c-.1.1-.2.2-.4.2z" class="st0"/></g></g></g></svg>