<svg xmlns="http://www.w3.org/2000/svg" xml:space="preserve" id="图层_1" x="0" y="0" viewBox="0 0 89 129"><style>.st0{fill:#fff}</style><g id="页面-1"><g id="_x31_-184"><path d="M88.5 84.508H.5c-.3 0-.5-.2-.5-.5v-40c0-.3.2-.5.5-.5h88c.3 0 .5.2.5.5v40c0 .3-.2.5-.5.5m-87.5-1h87v-39H1z" class="st0"/><path d="M44 54.008h1v20h-1z" class="st0"/><path d="m72.2 84.408-28-20c-.1-.1-.2-.2-.2-.4s.1-.3.2-.4l28-20 .6.8-27.4 19.6 27.4 19.6z" class="st0"/><path d="M20.5 63.508h24v1h-24zM43.8.008h1v44h-1zm0 84h1v44h-1z" class="st0"/></g></g></svg>