<svg xmlns="http://www.w3.org/2000/svg" xml:space="preserve" id="图层_1" x="0" y="0" viewBox="0 0 96 130"><style>.st0{fill:#fff}</style><g id="页面-1"><g id="_x31_-189"><path d="M94.7 129.008H.5c-.3 0-.5-.2-.5-.5v-128c0-.3.2-.5.5-.5h94.2c.3 0 .5.2.5.5v128c0 .3-.3.5-.5.5m-93.7-1h93.2v-127H1z" class="st0"/><path d="M44.9 43.508c-8.9 0-15.9-3.4-15.9-7.8s7-7.8 15.9-7.8 15.9 3.4 15.9 7.8c0 4.3-7 7.8-15.9 7.8m0-14.6c-8.1 0-14.9 3.1-14.9 6.8s6.8 6.8 14.9 6.8 14.9-3.1 14.9-6.8-6.8-6.8-14.9-6.8" class="st0"/><path d="M44.4 19.508h1v8.8h-1zm-42.9 44.9h92.2v1H1.5zm58.2 48.1h-30c-.3 0-.5-.2-.5-.5v-31.6c0-.3.2-.5.5-.5h30c.3 0 .5.2.5.5v31.5c0 .3-.2.6-.5.6m-29.5-1h29v-30.6h-29z" class="st0"/><path d="M59.5 79.908h15v1h-15z" class="st0"/></g></g></svg>