<svg xmlns="http://www.w3.org/2000/svg" xml:space="preserve" id="图层_1" x="0" y="0" viewBox="0 0 129 129"><style>.st0{fill:#fff}</style><g id="页面-1"><g id="_x31_-180"><path d="M128.5 84.508H.5c-.3 0-.5-.2-.5-.5v-40c0-.3.2-.5.5-.5h128c.3 0 .5.2.5.5v40c0 .3-.2.5-.5.5m-127.5-1h127v-39H1z" class="st0"/><path d="M20.5 84.508H.5c-.2 0-.3-.1-.4-.2s-.1-.3 0-.5l20-40q.15-.3.6-.3c.2.1.4.3.4.5v40c-.1.3-.3.5-.6.5m-19.2-1H20v-37.4z" class="st0"/><path d="M20.5 84.508H.5c-.3 0-.5-.2-.5-.5v-40c0-.2.2-.4.4-.5s.5.1.6.3l20 40c.1.2.1.3 0 .5s-.3.2-.5.2m-19.5-1h18.7L1 46.108zM83.8.008h1v44h-1zm0 84h1v44h-1z" class="st0"/></g></g></svg>