<svg xmlns="http://www.w3.org/2000/svg" xml:space="preserve" id="图层_1" x="0" y="0" viewBox="0 0 129 130"><style>.st0{fill:#fff}</style><g id="页面-1"><g id="_x31_-199" transform="translate(.5 .508)"><path id="路径" d="M61.9 64.3v-14h.8v30h-.8V65.2H43.4v15.2h-.9v-30h.9v14z" class="st0"/><path id="路径_1_" d="M86.9 51.2 68.5 79.6h19.1v.8H67.4v-.8l18.4-28.4H67.9v-.8h19z" class="st0"/><path d="M64 128.5C28.4 128.5-.5 99.6-.5 64S28.4-.5 64-.5s64.5 28.9 64.5 64.5-28.9 64.5-64.5 64.5m0-128C29 .5.5 29 .5 64S29 127.5 64 127.5 127.5 99 127.5 64 99 .5 64 .5" class="st0"/></g></g></svg>