<svg xmlns="http://www.w3.org/2000/svg" xml:space="preserve" id="图层_1" x="0" y="0" viewBox="0 0 129 130"><style>.st0{fill:#fff}</style><g id="页面-1"><g id="_x31_-190"><path d="M128.5 129.008H.5c-.3 0-.5-.2-.5-.5v-128c0-.3.2-.5.5-.5h128c.3 0 .5.2.5.5v128c0 .3-.2.5-.5.5m-127.5-1h127v-127H1z" class="st0"/><path d="M32.5 46.108c-8.8 0-15.9-7.1-15.9-15.9s7.1-15.9 15.9-15.9 15.9 7.1 15.9 15.9-7.1 15.9-15.9 15.9m0-30.8c-8.2 0-14.9 6.7-14.9 14.9s6.7 14.9 14.9 14.9 14.9-6.7 14.9-14.9-6.7-14.9-14.9-14.9" class="st0"/><g transform="translate(.5 .508)"><path id="路径_1_" d="m97.9 29.8-22.3-8.5v17z" class="st0"/><path d="M75.6 38.8c-.1 0-.2 0-.3-.1s-.2-.2-.2-.4v-17c0-.2.1-.3.2-.4s.3-.1.5-.1l22.4 8.5c.2.1.3.3.3.5s-.1.4-.3.5l-22.4 8.5zm.5-16.8v15.6l20.5-7.8z" class="st0"/></g><path d="M59.1 29.808h17v1h-17zm55-14.7h1v32.4h-1zm.8 63.3h1v32.4h-1zm-99.5 0h1v32.4h-1z" class="st0"/><path d="M15.9 94.108h99.5v1H15.9z" class="st0"/></g></g></svg>