<svg xmlns="http://www.w3.org/2000/svg" xml:space="preserve" id="图层_1" x="0" y="0" viewBox="0 0 129 130"><style>.st0{fill:#fff}</style><g id="页面-1"><g id="_x31_-198"><path d="M64.5 129.008c-35.6 0-64.5-28.9-64.5-64.5S28.9.008 64.5.008s64.5 28.9 64.5 64.5-28.9 64.5-64.5 64.5m0-128c-35 0-63.5 28.5-63.5 63.5s28.5 63.5 63.5 63.5 63.5-28.5 63.5-63.5-28.5-63.5-63.5-63.5" class="st0"/><path d="M58.9 84.608h-1c.1-5.5.5-10.2 1.1-14.2-1.7-.1-3.1-.6-4-1.7-4.8-5.1 2.4-19.8 2.7-20.4l.9.4c-.1.3-7.2 14.8-2.9 19.4.8.8 2 1.3 3.5 1.4 1.8-11.7 5.3-17.1 8.3-19.6 3.2-2.6 5.9-2.1 6-2.1s.3.1.3.2c6.1 10.7-5.2 20-5.4 20.1l-.1.1c-3.3 1.4-6.1 2.2-8.4 2.3-.5 3.9-.9 8.6-1 14.1m14-35.9c-.8 0-2.7.2-4.8 2-2.9 2.4-6.2 7.6-8 18.7 2.1-.1 4.7-.8 7.8-2.2.4-.3 2.9-2.5 4.7-5.7 2.6-4.5 2.7-8.8.5-12.9 0 .1-.1.1-.2.1" class="st0"/></g></g></svg>