<svg xmlns="http://www.w3.org/2000/svg" xml:space="preserve" id="图层_1" x="0" y="0" viewBox="0 0 129 130"><style>.st0{fill:#fff}</style><g id="页面-1"><g id="_x31_-197" transform="translate(.5 .508)"><path id="路径" d="M37.7 75.3c-1 1.3-2.4 2.3-3.9 3-1.6.7-3.4 1.1-5.1 1.1-2.5.1-4.9-.6-7-1.9-2-1.3-3.6-3.2-4.6-5.5-1.1-2.6-1.7-5.5-1.6-8.3-.1-2.8.5-5.6 1.6-8.2 1-2.2 2.6-4.1 4.6-5.4 2.1-1.3 4.5-1.9 7-1.9 1.7 0 3.3.4 4.9 1.1q2.4 1.05 4.2 3l-.6.6c-1.1-1.2-2.4-2.1-3.9-2.8-1.4-.7-3-1-4.6-1-2.3-.1-4.6.6-6.5 1.8s-3.4 3-4.3 5c-1 2.4-1.6 5.1-1.5 7.7-.1 2.7.4 5.4 1.5 7.9.9 2.1 2.4 3.9 4.3 5.2 2 1.2 4.2 1.9 6.5 1.8 3.3.2 6.4-1.3 8.4-3.9z" class="st0"/><path id="形状" d="M47.2 77.4c-2-1.4-3.5-3.3-4.5-5.5-1.1-2.5-1.7-5.3-1.6-8.1 0-2.8.5-5.5 1.6-8 1-2.2 2.5-4.1 4.5-5.5 4-2.6 9.1-2.6 13.1 0 2 1.4 3.5 3.3 4.5 5.5 1.1 2.5 1.7 5.2 1.6 8 0 2.8-.5 5.5-1.6 8.1-1 2.2-2.5 4.1-4.5 5.5-4 2.7-9.2 2.7-13.1 0m12.6-.7c1.9-1.3 3.3-3.1 4.2-5.2 1-2.4 1.5-5.1 1.5-7.7s-.5-5.2-1.5-7.6c-.9-2.1-2.3-3.9-4.2-5.2-3.7-2.5-8.5-2.5-12.2 0-1.9 1.3-3.3 3.1-4.2 5.2-1 2.4-1.5 5-1.5 7.6s.5 5.3 1.5 7.7c.9 2.1 2.3 3.9 4.2 5.2 3.7 2.5 8.5 2.5 12.2 0" class="st0"/><path id="路径_1_" d="M74.5 78.2c-1.6-.7-3-1.8-4.1-3.2l.7-.5q1.65 1.95 3.9 3c1.5.7 3.2 1.1 4.9 1.1 1.6 0 3.2-.3 4.7-.9q1.95-.75 3.3-2.4c.8-1 1.2-2.3 1.2-3.6 0-1.2-.3-2.4-.9-3.4-.8-1-1.8-1.8-2.9-2.3-1.7-.8-3.6-1.5-5.4-2-1.6-.4-3.2-1-4.8-1.7-1.2-.6-2.3-1.4-3.1-2.5s-1.2-2.5-1.2-3.8c0-1.4.4-2.8 1.2-4s2-2.2 3.4-2.7c1.6-.7 3.3-1 5.1-1 1.7 0 3.4.3 5 1.1 1.5.7 2.8 1.8 3.8 3.1l-.8.5c-1-1.2-2.2-2.2-3.7-2.9-1.4-.6-3-1-4.5-.9-1.5 0-3 .3-4.3.9-1.2.5-2.3 1.3-3.1 2.4-1.5 2.1-1.5 4.9-.1 7 .8 1 1.8 1.7 2.9 2.2 1.5.6 3 1.2 4.5 1.6 2 .5 4 1.3 5.8 2.2 1.2.6 2.2 1.5 3 2.6.6 1.1.9 2.3.9 3.5.1 2.3-.9 4.4-2.6 5.8q-2.7 2.1-7.5 2.1c-1.8 0-3.6-.5-5.3-1.3" class="st0"/><path d="M64 128.5C28.4 128.5-.5 99.6-.5 64S28.4-.5 64-.5s64.5 28.9 64.5 64.5-28.9 64.5-64.5 64.5m0-128C29 .5.5 29 .5 64S29 127.5 64 127.5 127.5 99 127.5 64 99 .5 64 .5" class="st0"/><path d="M102.6 84.1h-1c.1-5.5.5-10.2 1.1-14.2-1.7-.1-3.1-.6-4-1.7-4.8-5.1 2.4-19.8 2.7-20.4l.9.4c-.1.1-7.2 14.7-2.9 19.2.8.8 2 1.3 3.5 1.4 1.8-11.7 5.3-17.1 8.4-19.6 3.2-2.6 5.9-2.1 6-2.1s.3.1.3.2c6.1 10.7-5.2 20-5.4 20.1l-.1.1c-3.3 1.4-6.1 2.2-8.4 2.3-.6 4.1-1 8.8-1.1 14.3m13.9-35.9c-.8 0-2.7.2-4.8 2-2.9 2.4-6.2 7.5-8 18.8 2.1-.1 4.7-.8 7.8-2.2.4-.3 2.9-2.5 4.7-5.6 2.6-4.5 2.7-8.8.5-12.9 0-.1-.1-.1-.2-.1" class="st0"/></g></g></svg>