<svg xmlns="http://www.w3.org/2000/svg" xml:space="preserve" id="图层_1" x="0" y="0" viewBox="0 0 129 130"><style>.st0{fill:#fff}</style><g id="页面-1"><g id="_x31_-196" transform="translate(.5 .508)"><path id="路径" d="M46.9 80.4 36 50.4h.9L47.3 79h.1l10.5-28.6h.9l-10.9 30z" class="st0"/><path id="形状" d="M62.8 79.6c-1.4-1-2.5-2.3-3.2-3.9-1.5-3.6-1.5-7.7 0-11.3.7-1.6 1.8-2.9 3.2-3.9a8.3 8.3 0 0 1 9.3 0c1.4 1 2.5 2.3 3.2 3.9 1.5 3.6 1.5 7.7 0 11.3-.7 1.6-1.8 2.9-3.2 3.9-2.8 1.8-6.4 1.8-9.3 0m8.9-.8c1.3-.9 2.3-2.2 2.9-3.6 1.4-3.4 1.4-7.2 0-10.5-.6-1.4-1.6-2.7-2.9-3.6a7.72 7.72 0 0 0-8.5 0c-1.2.9-2.2 2.2-2.9 3.6-1.4 3.4-1.4 7.2 0 10.5.6 1.4 1.6 2.7 2.9 3.6 2.6 1.8 6 1.8 8.5 0" class="st0"/><path id="路径_1_" d="M81.8 80.4V59.6h.8v5.5h.1c.8-1.7 2-3.1 3.5-4.2 1.6-1.2 3.6-1.9 5.7-1.8h.4v.9h-.7c-1.7 0-3.3.5-4.7 1.4-1.3.9-2.4 2-3.2 3.4-.7 1.1-1.1 2.3-1.1 3.6v12.1h-.8z" class="st0"/><path d="M64 128.5C28.4 128.5-.5 99.6-.5 64S28.4-.5 64-.5s64.5 28.9 64.5 64.5-28.9 64.5-64.5 64.5m0-128C29 .5.5 29 .5 64S29 127.5 64 127.5 127.5 99 127.5 64 99 .5 64 .5" class="st0"/></g></g></svg>