<svg xmlns="http://www.w3.org/2000/svg" xml:space="preserve" id="图层_1" x="0" y="0" viewBox="0 0 89 129"><style>.st0{fill:#fff}</style><g id="页面-1"><g id="_x31_-208" transform="translate(.5 .5)"><path id="路径" d="m18.9 105.3-9.7-36h1.1l9.2 34.2h.1l9.9-34.2h1.3l9.9 34.2h.1L50 69.3h1.1l-9.8 36h-1.2L30.2 71h-.1l-10 34.3z" class="st0"/><path id="路径_1_" d="M55.7 105.3v-36h1v16.9h.1c.7-1.9 2-3.6 3.7-4.8s3.8-1.8 5.9-1.8c2.6-.1 5 .9 6.7 2.9 1.7 2.2 2.6 4.9 2.5 7.7v15.1h-1V90.6c.1-2.6-.6-5.2-2.2-7.2-1.5-1.8-3.7-2.8-6-2.7-1.8 0-3.5.5-5 1.4-1.4.9-2.6 2.2-3.4 3.7q-1.2 2.25-1.2 4.8v14.7z" class="st0"/><path d="M87.4 128.5H0c-.3 0-.5-.2-.5-.5V44.7c0-.3.2-.5.5-.5h87.4c.3 0 .5.2.5.5V128c0 .3-.3.5-.5.5m-86.9-1h86.4V45.2H.5z" class="st0"/><path d="M87.4 45.2H0c-.3 0-.5-.2-.5-.5V0c0-.3.2-.5.5-.5h87.4c.3 0 .5.2.5.5v44.7c0 .3-.3.5-.5.5m-86.9-1h86.4V.5H.5z" class="st0"/></g></g></svg>