<svg xmlns="http://www.w3.org/2000/svg" xml:space="preserve" id="图层_1" x="0" y="0" viewBox="0 0 129 65"><style>.st0{fill:#fff}</style><g id="页面-1"><g id="_x31_-207"><g transform="translate(.5 .5)"><path id="路径_1_" d="m32 24.9 2.3 4.7 5.2.7-3.8 3.7.9 5.1-4.6-2.4-4.6 2.4.9-5.1-3.8-3.7 5.2-.7z" class="st0"/><path d="M36.6 39.6c-.1 0-.2 0-.2-.1L32 37.2l-4.4 2.3c-.2.1-.4.1-.5 0-.2-.1-.2-.3-.2-.5l.8-4.9-3.5-3.4c-.1-.1-.2-.3-.1-.5s.2-.3.4-.3l4.9-.7 2.2-4.4c.2-.3.7-.3.9 0l2.2 4.4 4.9.7c.2 0 .3.2.4.3s0 .4-.1.5l-3.5 3.4.8 4.9c0 .2 0 .4-.2.5s-.3.1-.4.1M32 36.2c.1 0 .2 0 .2.1l3.7 1.9-.7-4.2c0-.2 0-.3.1-.4l3-2.9-4.2-.6c-.2 0-.3-.1-.4-.3L32 26l-1.9 3.8c-.1.1-.2.3-.4.3l-4.2.6 3 2.9c.1.1.2.3.1.4l-.7 4.1 3.7-1.9z" class="st0"/></g><path d="M64.5 65H.5c-.3 0-.5-.2-.5-.5V.5C0 .2.2 0 .5 0h64c.3 0 .5.2.5.5v64c0 .3-.2.5-.5.5M1 64h63V1H1z" class="st0"/><g transform="translate(.5 .5)"><path id="路径_2_" d="m96 24.9 2.3 4.7 5.2.7-3.8 3.7.9 5.1-4.6-2.4-4.6 2.4.9-5.1-3.8-3.7 5.2-.7z" class="st0"/><path d="M100.6 39.6c-.1 0-.2 0-.2-.1L96 37.2l-4.4 2.3c-.2.1-.4.1-.5 0-.2-.1-.2-.3-.2-.5l.8-4.9-3.5-3.4c-.1-.1-.2-.3-.1-.5s.2-.3.4-.3l4.9-.7 2.2-4.4c.2-.3.7-.3.9 0l2.2 4.4 4.9.7c.2 0 .3.2.4.3s0 .4-.1.5l-3.5 3.4.8 4.9c0 .2 0 .4-.2.5s-.3.1-.4.1M96 36.2c.1 0 .2 0 .2.1l3.7 1.9-.7-4.2c0-.2 0-.3.1-.4l3-2.9-4.1-.6c-.2 0-.3-.1-.4-.3L96 26l-1.9 3.8c-.1.1-.2.2-.4.3l-4.1.6 3 2.9c.1.1.2.3.1.4l-.7 4.1 3.7-1.9z" class="st0"/></g><path d="M128.5 65h-64c-.3 0-.5-.2-.5-.5V.5c0-.3.2-.5.5-.5h64c.3 0 .5.2.5.5v64c0 .3-.2.5-.5.5M65 64h63V1H65z" class="st0"/></g></g></svg>