<svg xmlns="http://www.w3.org/2000/svg" xml:space="preserve" id="图层_1" x="0" y="0" viewBox="0 0 129 130"><style>.st0{fill:#fff}</style><g id="页面-1"><g id="_x31_-202" transform="translate(.5 .508)"><path id="路径" d="M18.8 80.9h-1.1v-36h1.5l22.6 34.7h.1V44.9H43v36h-1.5L18.9 46.2h-.1z" class="st0"/><path id="形状" d="M51.7 79.9c-1.4-1.1-2.2-2.9-2.1-4.6-.1-2.4 1.2-4.5 3.4-5.6 2.2-1.3 5.6-1.9 10.2-1.9h4.5V64c.1-2.1-.6-4.2-2.1-5.8a8.73 8.73 0 0 0-6-2c-1.2 0-2.3.2-3.5.7s-2.4 1.1-3.5 1.8l-.6-.8c1.1-.8 2.3-1.5 3.7-2 1.3-.5 2.6-.7 4-.7q4.35 0 6.6 2.1c1.6 1.6 2.4 3.8 2.3 6.1v17.5h-1v-5.2h-.1c-1.9 3.8-5.8 6.1-10 5.8-2.1.2-4.1-.4-5.8-1.6m11.1-.5c1.5-.8 2.7-1.9 3.5-3.4.8-1.4 1.3-3 1.3-4.7v-2.6h-4.4c-4.2 0-7.4.5-9.5 1.7-1.9.8-3.2 2.7-3.1 4.8-.1 1.6.6 3 1.8 4 1.5 1 3.3 1.5 5.2 1.4 1.8.1 3.6-.4 5.2-1.2" class="st0"/><path id="路径_1_" d="M101.5 76.7c-1.2 1.6-2.9 2.8-4.7 3.6-1.9.9-4 1.3-6.2 1.3-3 .1-5.9-.7-8.4-2.3-2.4-1.6-4.3-3.9-5.5-6.5-1.3-3.2-2-6.6-1.9-10-.1-3.4.6-6.7 1.9-9.8 1.1-2.6 3-4.9 5.5-6.4s5.5-2.3 8.4-2.2c2 0 4 .4 5.9 1.2 1.9.9 3.6 2.1 5 3.6l-.8.7c-1.3-1.4-2.9-2.5-4.6-3.3s-3.6-1.2-5.5-1.2c-2.8-.1-5.5.7-7.9 2.1-2.3 1.5-4.1 3.6-5.1 6.1-1.3 2.9-1.9 6.1-1.8 9.3-.1 3.3.5 6.5 1.8 9.5 1.1 2.5 2.9 4.7 5.1 6.2 2.3 1.5 5.1 2.2 7.9 2.2 3.9.2 7.7-1.5 10.1-4.7z" class="st0"/><path id="路径_2_" d="M107.5 44.9h1v32.8q-.15 1.05.6 1.8c.75.75 1.2.7 1.8.6h1.9v1h-2.1c-.9.1-1.7-.2-2.4-.8-.6-.6-.9-1.5-.8-2.3z" class="st0"/><path d="M64 128.5C28.4 128.5-.5 99.6-.5 64S28.4-.5 64-.5s64.5 28.9 64.5 64.5-28.9 64.5-64.5 64.5m0-128C29 .5.5 29 .5 64S29 127.5 64 127.5 127.5 99 127.5 64 99 .5 64 .5" class="st0"/></g></g></svg>