<svg xmlns="http://www.w3.org/2000/svg" xml:space="preserve" id="图层_1" x="0" y="0" viewBox="0 0 129 130"><style>.st0{fill:#fff}</style><g id="页面-1"><g id="_x31_-200"><path d="M64.5 129.008c-35.6 0-64.5-28.9-64.5-64.5S28.9.008 64.5.008s64.5 28.9 64.5 64.5-28.9 64.5-64.5 64.5m0-128c-35 0-63.5 28.5-63.5 63.5s28.5 63.5 63.5 63.5 63.5-28.5 63.5-63.5-28.5-63.5-63.5-63.5" class="st0"/><path d="M64 20.708h1v96.2h-1z" class="st0"/><path d="m24.7 42.008-.8-.6c7.8-11.4 20.1-19 33.8-20.9s27.6 2 38.3 10.8c1.6 1.3 3.2 2.8 4.6 4.3.7.8 1.4 1.5 1.9 2.2l-.8.6c-.6-.7-1.2-1.4-1.9-2.2q-2.1-2.25-4.5-4.2c-10.4-8.6-24.1-12.5-37.5-10.6s-25.4 9.4-33.1 20.6" class="st0"/><g transform="translate(.5 .508)"><path id="路径_3_" d="m20.2 59.9 14.6-22-14-6z" class="st0"/><path d="M20.2 60.4H20c-.2-.1-.4-.3-.3-.5l.6-28.1c0-.2.1-.3.2-.4s.3-.1.5 0l14 6.1.3.3c0 .1 0 .3-.1.4l-14.7 22c0 .1-.2.2-.3.2m1.1-27.8-.6 25.6 13.4-20.1z" class="st0"/></g><g transform="translate(.5 .508)"><path id="路径_4_" d="m107.8 59.9-14.6-22 14-6z" class="st0"/><path d="M107.8 60.4c-.2 0-.3-.1-.4-.2l-14.7-22c-.1-.1-.1-.3-.1-.4s.1-.3.3-.3l14-6.1c.2-.1.3-.1.5 0 .1.1.2.2.2.4l.6 28.1c0 .2-.1.4-.3.5zM93.9 38.1l13.4 20.1-.6-25.6z" class="st0"/></g></g></g></svg>