<svg xmlns="http://www.w3.org/2000/svg" xml:space="preserve" id="图层_1" x="0" y="0" viewBox="0 0 103 129"><style>.st0{fill:#fff}</style><g id="页面-1"><g id="_x31_-215"><path d="M101.7 129q-.15 0 0 0L.5 128.3c-.3 0-.5-.2-.5-.5V.5C0 .4.1.2.1.1.2.1.4 0 .5 0l101.1.7c.3 0 .5.2.5.5v127.3c0 .1-.1.3-.1.4-.1 0-.2.1-.3.1M1 127.3l100.2.7V1.7L1 1z" class="st0"/><path d="M15.8 23.9h70.9v1H15.8zm36.8 53.6H27v-1h25.1v-27h1V77c0 .3-.2.5-.5.5" class="st0"/><path d="M51.4 116.2c-21.6 0-39.2-17.6-39.2-39.2s17.6-39.2 39.2-39.2S90.6 55.4 90.6 77 73 116.2 51.4 116.2m0-77.4c-21.1 0-38.2 17.1-38.2 38.2s17.1 38.2 38.2 38.2S89.6 98.1 89.6 77 72.5 38.8 51.4 38.8" class="st0"/></g></g></svg>