<svg xmlns="http://www.w3.org/2000/svg" xml:space="preserve" id="图层_1" x="0" y="0" viewBox="0 0 109 129"><style>.st0{fill:#fff}</style><g id="页面-1"><g id="_x31_-216"><path d="M19.6 0h1v75.3h-1z" class="st0"/><path d="M0 74.8h20.1v1H0z" class="st0"/><path d="m19.603 75.563.83-.558 26.51 39.415-.83.558zM53.5 115l-.8-.6 26.5-39.3V0h1v75.3c0 .1 0 .2-.1.3z" class="st0"/><circle id="椭圆形_1_" cx="49.8" cy="118" r="10" class="st0"/><path d="M49.8 128.5c-5.8 0-10.5-4.7-10.5-10.5s4.7-10.5 10.5-10.5 10.5 4.7 10.5 10.5-4.6 10.5-10.5 10.5m0-20.1c-5.3 0-9.5 4.3-9.5 9.5s4.3 9.5 9.5 9.5c5.3 0 9.5-4.3 9.5-9.5s-4.2-9.5-9.5-9.5m38.4-32.5H109v1H88.2z" class="st0"/><path d="M98.1 66h1v20.8h-1z" class="st0"/></g></g></svg>