<svg xmlns="http://www.w3.org/2000/svg" xml:space="preserve" id="图层_1" x="0" y="0" viewBox="0 0 89 129"><style>.st0{fill:#fff}</style><g id="页面-1"><g id="_x31_-214" transform="translate(.5 .5)"><path d="M87.4 128.5H0c-.3 0-.5-.2-.5-.5V44.7c0-.3.2-.5.5-.5h87.4c.3 0 .5.2.5.5V128c0 .3-.3.5-.5.5m-86.9-1h86.4V45.2H.5z" class="st0"/><path d="M87.4 45.2H0c-.3 0-.5-.2-.5-.5V0c0-.3.2-.5.5-.5h87.4c.3 0 .5.2.5.5v44.7c0 .3-.3.5-.5.5m-86.9-1h86.4V.5H.5z" class="st0"/><path id="路径" d="m20.7 97.1-8.7-24h.7L21.1 96l8.4-22.9h.7l-8.7 24z" class="st0"/><path id="形状" d="M33.5 96.4c-1.1-.8-2-1.9-2.6-3.1a11.7 11.7 0 0 1 0-9c.5-1.3 1.4-2.4 2.6-3.2 2.3-1.5 5.2-1.5 7.5 0 1.1.8 2 1.9 2.5 3.1 1.2 2.9 1.2 6.1 0 9-.5 1.3-1.4 2.3-2.6 3.1-2.2 1.6-5.2 1.6-7.4.1m7.1-.5c1-.7 1.8-1.7 2.3-2.9 1.1-2.7 1.1-5.7 0-8.4-.5-1.2-1.3-2.2-2.3-2.9-2-1.4-4.7-1.4-6.8 0-1 .7-1.8 1.7-2.3 2.9-1.1 2.7-1.1 5.7 0 8.4.5 1.2 1.3 2.2 2.3 2.9 2.1 1.4 4.8 1.4 6.8 0" class="st0"/><path id="路径_1_" d="M48.7 97.1V80.5h.7v4.4h.1c.6-1.3 1.6-2.5 2.8-3.4 1.3-1 2.9-1.5 4.6-1.4h.3v.7h-.5c-1.3 0-2.6.4-3.7 1.1-1 .7-1.9 1.6-2.6 2.7-.5.9-.9 1.8-.9 2.9v9.7z" class="st0"/><path id="路径_2_" d="M59.9 97.1v-24h.7v11.3h.1c.5-1.3 1.4-2.4 2.5-3.2Q65 80 67.1 80c1.7-.1 3.3.6 4.5 1.9 1.2 1.5 1.7 3.3 1.6 5.1v10h-.6v-9.8c.1-1.7-.4-3.4-1.5-4.8-1-1.2-2.5-1.8-4-1.8-1.2 0-2.4.3-3.4 1-1.9 1.2-3.1 3.4-3.1 5.7v9.8z" class="st0"/></g></g></svg>