<svg xmlns="http://www.w3.org/2000/svg" xml:space="preserve" id="图层_1" x="0" y="0" viewBox="0 0 129 129"><style>.st0{fill:#fff}</style><g id="页面-1"><g id="_x31_-229" transform="translate(.5 .5)"><path id="路径_1_" d="M0 0h59.7v128H0z" class="st0"/><path d="M59.7 128.5H0c-.3 0-.5-.2-.5-.5V0c0-.3.2-.5.5-.5h59.7c.3 0 .5.2.5.5v128c0 .3-.2.5-.5.5m-59.2-1h58.7V.5H.5z" class="st0"/><g id="编组"><path d="M128 128.5H0c-.3 0-.5-.2-.5-.5V0c0-.3.2-.5.5-.5h128c.3 0 .5.2.5.5v128c0 .3-.2.5-.5.5m-127.5-1h127V.5H.5z" class="st0"/><path d="M92.6 0h1v128h-1z" class="st0"/></g></g></g></svg>