<svg xmlns="http://www.w3.org/2000/svg" xml:space="preserve" id="图层_1" x="0" y="0" viewBox="0 0 49 129"><style>.st0{fill:#fff}</style><g id="页面-1"><g id="_x31_-220" transform="translate(.5 .5)"><path d="M48 128.5H0c-.3 0-.5-.2-.5-.5V0c0-.3.2-.5.5-.5h48c.3 0 .5.2.5.5v128c0 .3-.2.5-.5.5m-47.5-1h47V.5H.5z" class="st0"/><path d="M48 128.5H0c-.3 0-.5-.2-.5-.5V80c0-.3.2-.5.5-.5h48c.3 0 .5.2.5.5v48c0 .3-.2.5-.5.5m-47.5-1h47v-47H.5z" class="st0"/><path d="M48 80.5H0c-.3 0-.5-.2-.5-.5V32c0-.3.2-.5.5-.5h48c.3 0 .5.2.5.5v48c0 .3-.2.5-.5.5m-47.5-1h47v-47H.5z" class="st0"/><path id="路径" d="m19.8 62.2-3.3-12.1h1l2.8 10.5h.1l2.9-10.5h1l2.9 10.5h.1l2.8-10.5h1l-3.3 12.1h-1l-3-10.5h-.1l-3 10.5z" class="st0"/><path id="形状" d="M8.8 98.1c1.2-.1 2.4.3 3.3.9.7.7 1.1 1.7 1.1 2.7s-.4 2-1.1 2.7q-1.5 1.05-3.3.9H6.3v4.9h-1V98.1zm-.1 6.4c1 .1 1.9-.2 2.7-.7.6-.5.9-1.2.9-2s-.3-1.5-.9-2c-.8-.5-1.7-.8-2.7-.7H6.3v5.4z" class="st0"/><path id="路径_1_" d="M14.9 110.2v-8.4h.9v1.5h.1c.2-.5.6-.9 1.1-1.2.4-.3.9-.5 1.5-.5s1.1.2 1.5.5c.5.4.8.9 1 1.5.2-.6.6-1.1 1.1-1.5q.75-.6 1.8-.6c.8 0 1.6.3 2.1.9.5.7.8 1.6.8 2.5v5.2h-.9V105c0-.7-.2-1.4-.6-2-.4-.5-.9-.8-1.5-.8-.4 0-.9.1-1.2.3-.4.2-.7.6-.9 1q-.3.75-.3 1.5v5h-.9v-5.1c0-.7-.2-1.4-.6-2-.4-.5-.9-.8-1.5-.8-.4 0-.9.1-1.2.4-.4.2-.7.6-.9 1q-.3.75-.3 1.5v5z" class="st0"/><path id="形状_1_" d="M29.3 109.8c-.5-.4-.7-1-.7-1.7 0-1.8 1.4-2.6 4.3-2.6h1.4v-.9c0-.6-.2-1.2-.6-1.6-.5-.4-1.1-.6-1.7-.6-.8 0-1.6.4-2.2.9l-.5-.6c.4-.3.8-.6 1.3-.8q.75-.3 1.5-.3c.8 0 1.6.2 2.3.8.6.6.9 1.3.8 2.1v5.8h-.9v-1.4h-.1c-.3.5-.7 1-1.2 1.2-.5.3-1.1.4-1.7.4-.7 0-1.4-.2-2-.7m3.5-.5c.4-.2.8-.5 1.1-.9s.4-.9.4-1.4v-.6h-1.2q-3.6 0-3.6 1.8c0 .4.2.8.5 1.1.4.3.9.4 1.4.4.5-.1 1-.2 1.4-.4" class="st0"/><path id="路径_2_" d="m40.4 105.9 3 4.3h-1.1l-2.5-3.6-2.4 3.6h-1.1l3-4.3-2.8-4.1h1.1l2.3 3.4 2.2-3.4h1.1z" class="st0"/></g></g></svg>