<svg xmlns="http://www.w3.org/2000/svg" xml:space="preserve" id="图层_1" x="0" y="0" viewBox="0 0 128 18"><style>.st0{fill:#fff}</style><g id="页面-1"><g id="_x31_-237" transform="translate(0 .853)"><path d="M0 16.1h128v1H0z" class="st0"/><path id="路径_1_" d="M57 0v11.2h6.2v.9H56V0z" class="st0"/><path id="形状" d="M68.3 0c1.2-.1 2.4.3 3.3 1q1.2 1.05 1.2 2.7c.1 1-.4 2-1.1 2.7q-1.5 1.05-3.3.9h-2.6v4.9h-.9V0zm-.1 6.4c1 .1 1.9-.2 2.7-.7.6-.5 1-1.2.9-2 0-.8-.3-1.5-.9-2-.8-.5-1.7-.8-2.7-.7h-2.4v5.4z" class="st0"/></g></g></svg>