<svg xmlns="http://www.w3.org/2000/svg" xml:space="preserve" id="图层_1" x="0" y="0" viewBox="0 0 128 15"><style>.st0{fill:#fff}</style><g id="页面-1"><g id="_x31_-239" transform="translate(0 .65)"><path d="M0 12.5h128v1H0z" class="st0"/><path id="路径_1_" d="M66.1 3c.1.3.1.7.1 1 0 .6-.1 1.2-.4 1.7s-.7 1-1.2 1.3c-.6.3-1.2.5-1.9.5s-1.4-.2-2-.5-1-.8-1.3-1.3c-.3-.6-.5-1.3-.5-2 0-.8.2-1.6.7-2.3S60.7.2 61.5-.1l.3.8c-1.3.4-2.1 1.7-2 3 0 .7.3 1.5.8 2 .6.5 1.3.8 2.1.8.5 0 1-.1 1.5-.4.4-.2.8-.6 1-1s.4-.9.3-1.4c0-.6-.2-1.2-.5-1.7l.7-.5 4.7 4.1V.3h.9v6.6h-.8z" class="st0"/></g></g></svg>