<svg xmlns="http://www.w3.org/2000/svg" xml:space="preserve" id="图层_1" x="0" y="0" viewBox="0 0 128 25"><style>.st0{fill:#fff}</style><g id="页面-1"><g id="_x31_-234"><path d="M50.3 0h27.4v1H50.3zm4.5 5h18.4v1H54.8zm4.4 4.8h9.5v1h-9.5zM0 19.6h128v1H0z" class="st0"/><circle id="椭圆形_1_" cx="64" cy="19.9" r="4.1" class="st0"/><path d="M64 24.5c-2.5 0-4.5-2-4.5-4.5s2-4.5 4.5-4.5 4.5 2 4.5 4.5-2 4.5-4.5 4.5m0-8.1c-2 0-3.5 1.6-3.5 3.5s1.6 3.5 3.5 3.5c2 0 3.5-1.6 3.5-3.5S66 16.4 64 16.4" class="st0"/></g></g></svg>