<svg xmlns="http://www.w3.org/2000/svg" xml:space="preserve" id="图层_1" x="0" y="0" viewBox="0 0 128 45"><style>.st0{fill:#fff}</style><g id="页面-1"><g id="_x31_-242"><path d="M0 43.5h128v1H0zm64-10c-5.2 0-9.4-4.2-9.4-9.4s4.2-9.4 9.4-9.4 9.4 4.2 9.4 9.4-4.2 9.4-9.4 9.4m0-17.9c-4.7 0-8.4 3.8-8.4 8.4 0 4.7 3.8 8.4 8.4 8.4 4.7 0 8.4-3.8 8.4-8.4s-3.7-8.4-8.4-8.4" class="st0"/><path d="m64.172 23.733 14.99-14.99.707.707-14.99 14.99z" class="st0"/><path id="形状" d="M90.2 11.8c-.6-.3-1-.8-1.4-1.4-.3-.6-.5-1.3-.5-2s.1-1.4.3-2c.3-.8.7-1.6 1.1-2.3L92.2 0h1.1l-3.2 5.6c.3-.3.6-.6 1-.7 1.1-.4 2.2-.3 3.2.2.5.3 1 .8 1.3 1.3.3.6.5 1.3.5 2s-.2 1.4-.5 2-.8 1-1.4 1.4c-.6.3-1.3.5-2 .5s-1.4-.1-2-.5m3.6-.7c.4-.3.8-.6 1-1.1s.4-1 .4-1.5q0-.75-.3-1.5c-.2-.4-.6-.8-1-1-.4-.3-.9-.4-1.4-.4s-1.1.1-1.5.4c-.4.2-.8.6-1.1 1-.3.5-.4 1-.4 1.5s.1 1 .4 1.5c.2.4.6.8 1 1.1.5.3 1 .4 1.5.4.4 0 .9-.2 1.4-.4" class="st0"/></g></g></svg>