<svg xmlns="http://www.w3.org/2000/svg" xml:space="preserve" id="图层_1" x="0" y="0" viewBox="0 0 129 35"><style>.st0{fill:#fff}</style><g id="页面-1"><g id="_x31_-244"><path d="M125.7 19H3c-.2 0-.5-.2-.5-.5s.2-.5.5-.5h122.6c.3 0 .5.2.5.5s-.2.5-.4.5" class="st0"/><path d="M121.9 18.1c-.2 0-.4-.1-.5-.4s.1-.5.3-.6l6.6-1.9c.3-.1.5.1.6.3.1.3-.1.5-.3.6L122 18c0 .1-.1.1-.1.1M.5 19c-.2 0-.4-.1-.5-.4s.1-.5.3-.6l6.3-1.9c.3-.1.5.1.6.3.1.3-.1.5-.3.6L.6 18.9c0 .1-.1.1-.1.1m125.2 15.5c-.3 0-.5-.2-.5-.5V18.5c0-.3.2-.5.5-.5s.5.2.5.5V34c0 .3-.3.5-.5.5" class="st0"/><path d="M2.7 34.5c-.3 0-.5-.2-.5-.5V.5c0-.3.2-.5.5-.5s.5.2.5.5V34c0 .3-.2.5-.5.5m123-19c-.3 0-.5-.2-.5-.5V.5c0-.3.2-.5.5-.5s.5.2.5.5V15c0 .3-.3.5-.5.5" class="st0"/><path d="M6.7 28.5h-4c-.3 0-.5-.2-.5-.5s.2-.5.5-.5h4c.3 0 .5.2.5.5s-.2.5-.5.5m106.4 0h-7.6c-.3 0-.5-.2-.5-.5s.2-.5.5-.5h7.6c.3 0 .5.2.5.5s-.2.5-.5.5m-15.2 0h-7.6c-.3 0-.5-.2-.5-.5s.2-.5.5-.5h7.6c.3 0 .5.2.5.5s-.2.5-.5.5m-15.2 0h-7.6c-.3 0-.5-.2-.5-.5s.2-.5.5-.5h7.6c.3 0 .5.2.5.5s-.2.5-.5.5m-15.2 0h-7.6c-.3 0-.5-.2-.5-.5s.2-.5.5-.5h7.6c.3 0 .5.2.5.5s-.2.5-.5.5m-15.2 0h-7.6c-.3 0-.5-.2-.5-.5s.2-.5.5-.5h7.6c.3 0 .5.2.5.5s-.2.5-.5.5m-15.2 0h-7.6c-.3 0-.5-.2-.5-.5s.2-.5.5-.5h7.6c.3 0 .5.2.5.5s-.2.5-.5.5m-15.2 0h-7.6c-.3 0-.5-.2-.5-.5s.2-.5.5-.5h7.6c.3 0 .5.2.5.5s-.2.5-.5.5m102.8 0h-4c-.3 0-.5-.2-.5-.5s.2-.5.5-.5h4c.3 0 .5.2.5.5s-.2.5-.5.5M6.7 7.3h-4c-.3 0-.5-.2-.5-.5s.2-.5.5-.5h4c.3 0 .5.2.5.5s-.2.5-.5.5m106.4 0h-7.6c-.3 0-.5-.2-.5-.5s.2-.5.5-.5h7.6c.3 0 .5.2.5.5s-.2.5-.5.5m-15.2 0h-7.6c-.3 0-.5-.2-.5-.5s.2-.5.5-.5h7.6c.3 0 .5.2.5.5s-.2.5-.5.5m-15.2 0h-7.6c-.3 0-.5-.2-.5-.5s.2-.5.5-.5h7.6c.3 0 .5.2.5.5s-.2.5-.5.5m-15.2 0h-7.6c-.3 0-.5-.2-.5-.5s.2-.5.5-.5h7.6c.3 0 .5.2.5.5s-.2.5-.5.5m-15.2 0h-7.6c-.3 0-.5-.2-.5-.5s.2-.5.5-.5h7.6c.3 0 .5.2.5.5s-.2.5-.5.5m-15.2 0h-7.6c-.3 0-.5-.2-.5-.5s.2-.5.5-.5h7.6c.3 0 .5.2.5.5s-.2.5-.5.5m-15.2 0h-7.6c-.3 0-.5-.2-.5-.5s.2-.5.5-.5h7.6c.3 0 .5.2.5.5s-.2.5-.5.5m102.8 0h-4c-.3 0-.5-.2-.5-.5s.2-.5.5-.5h4c.3 0 .5.2.5.5s-.2.5-.5.5" class="st0"/></g></g></svg>