<svg xmlns="http://www.w3.org/2000/svg" xml:space="preserve" id="图层_1" x="0" y="0" viewBox="0 0 128 33"><style>.st0{fill:#fff}</style><g id="页面-1"><g id="_x31_-245"><path d="M0 17.6h128v1H0z" class="st0"/><path d="M50.817 32.06 62.803 6.866l.903.43L51.72 32.49z" class="st0"/><g transform="translate(0 .5)"><circle id="椭圆形_1_" cx="63.8" cy="4.4" r="4.4" class="st0"/><path d="M63.8 9.3c-2.7 0-4.9-2.2-4.9-4.9s2.2-4.9 4.9-4.9 4.9 2.2 4.9 4.9-2.2 4.9-4.9 4.9m0-8.8c-2.2 0-3.9 1.7-3.9 3.9s1.7 3.9 3.9 3.9 3.9-1.7 3.9-3.9S66 .5 63.8.5" class="st0"/></g></g></g></svg>