<svg xmlns="http://www.w3.org/2000/svg" xml:space="preserve" id="图层_1" x="0" y="0" viewBox="0 0 102 129"><style>.st0{fill:#fff}</style><g id="页面-1"><g id="_x31_-256"><path d="M32.1 5.4h1V128h-1zm36.3 0h1V128h-1z" class="st0"/><path d="M32.6 66.2h36.3v1H32.6zM78.5 5.4h23v1h-23zm0 30.7h23v1h-23zm0 30.6h23v1h-23zm0 30.7h23v1h-23zm0 30.6h23v1h-23zM0 5.4h23v1H0zm0 30.7h23v1H0zm0 30.6h23v1H0zm0 30.7h23v1H0zM0 128h23v1H0z" class="st0"/><g transform="translate(0 .5)"><circle id="椭圆形_1_" cx="20.5" cy="2.2" r="2.2" class="st0"/><path d="M20.5 4.9c-1.5 0-2.7-1.2-2.7-2.7S19-.5 20.5-.5s2.7 1.2 2.7 2.7-1.2 2.7-2.7 2.7m0-4.4c-.9 0-1.7.8-1.7 1.7s.8 1.7 1.7 1.7 1.7-.8 1.7-1.7S21.5.5 20.5.5" class="st0"/></g><g transform="translate(0 .5)"><circle id="椭圆形_2_" cx="98.6" cy="125.2" r="2.2" class="st0"/><path d="M98.5 128c-1.5 0-2.7-1.2-2.7-2.7s1.2-2.7 2.7-2.7 2.7 1.2 2.7 2.7-1.2 2.7-2.7 2.7m0-4.5c-.9 0-1.7.8-1.7 1.7s.8 1.7 1.7 1.7 1.7-.8 1.7-1.7-.7-1.7-1.7-1.7" class="st0"/></g></g></g></svg>