<svg xmlns="http://www.w3.org/2000/svg" xml:space="preserve" id="图层_1" x="0" y="0" viewBox="0 0 128 47"><style>.st0{fill:#fff}</style><g id="页面-1"><g id="_x31_-258"><path d="m85.74 9.26 4.42-9.303.903.429-4.42 9.303zm-3.225-.045 4.428-9.3.902.43-4.428 9.3zm5.789 36.618 4.428-9.3.903.43-4.428 9.3zm-3.223-.036 4.428-9.3.903.43-4.428 9.3zM79.249 9.269l4.428-9.3.903.43-4.428 9.3zm-62.8-.007 4.416-9.305.904.43-4.417 9.304zm-3.223-.035L17.643-.08l.903.43-4.417 9.304zM9.96 9.28l4.417-9.305.903.43-4.417 9.304z" class="st0"/><path d="M0 4.31h128v1H0z" class="st0"/><path d="M126.8 41.71h-68c-.1 0-.3-.1-.4-.2s-.1-.2-.1-.4c1.6-13.3-.3-23.3-5.6-29.6-5-5.9-11.4-6.3-11.4-6.3v-1c.3 0 6.8.4 12.1 6.6 5.4 6.4 7.4 16.4 6 29.8h67.4z" class="st0"/></g></g></svg>