<svg xmlns="http://www.w3.org/2000/svg" xml:space="preserve" id="图层_1" x="0" y="0" viewBox="0 0 129 69"><style>.st0{fill:#fff}</style><g id="页面-1"><g id="_x31_-265" transform="translate(.5 .5)"><path id="_2-002" d="M128 68.5H0c-.3 0-.5-.2-.5-.5V0c0-.3.2-.5.5-.5h128c.3 0 .5.2.5.5v68c0 .3-.2.5-.5.5M.5 67.5h127V.5H.5z" class="st0"/><path id="路径" d="M27.5 33.7V51h19.8v1H26.4V16h20.2v1H27.5v15.7h18v1z" class="st0"/><path id="形状" d="M63 16c4.2 0 7.5.9 9.7 2.7 2.3 1.9 3.6 4.7 3.4 7.7.2 3-1.1 5.8-3.4 7.7-2.3 1.8-5.5 2.7-9.7 2.7h-8.6V52h-1.1V16zm-.2 19.8c3.9 0 7-.8 9.1-2.4 2.1-1.7 3.3-4.2 3.2-6.9.2-2.7-1-5.3-3.2-7-2.1-1.6-5.1-2.4-9.1-2.4h-8.4v18.8h8.4z" class="st0"/><path id="路径_1_" d="M84.3 51.3c-1.9-.9-3.7-2.2-5-3.8l.8-.6c1.3 1.5 2.9 2.8 4.7 3.6s3.8 1.3 5.9 1.3c1.9 0 3.9-.3 5.7-1 1.6-.6 3-1.6 4-2.9 1-1.2 1.5-2.7 1.4-4.3.1-1.4-.3-2.9-1.1-4.1-.9-1.2-2.1-2.2-3.5-2.8-2.1-1-4.3-1.8-6.5-2.4q-3-.75-5.7-2.1c-1.4-.7-2.7-1.7-3.7-2.9-1-1.3-1.5-3-1.4-4.6 0-1.7.5-3.4 1.4-4.8 1-1.4 2.4-2.6 4-3.3 1.9-.8 4-1.2 6.1-1.2s4.1.4 6 1.3c1.8.8 3.4 2.1 4.6 3.7l-.8.6c-1.2-1.5-2.7-2.7-4.4-3.4-1.7-.8-3.6-1.1-5.4-1.1s-3.6.3-5.2 1c-1.5.6-2.8 1.6-3.8 2.9-.9 1.2-1.4 2.7-1.4 4.2-.1 1.5.4 3 1.3 4.3.9 1.2 2.1 2.1 3.5 2.7 1.8.8 3.6 1.4 5.4 1.9 2.4.6 4.8 1.5 7 2.6 1.5.7 2.7 1.8 3.7 3.1.8 1.2 1.1 2.7 1.1 4.1.1 2.7-1 5.3-3.2 7-2.1 1.7-5.1 2.5-9 2.5-2.3-.1-4.5-.6-6.5-1.5" class="st0"/></g></g></svg>