<svg xmlns="http://www.w3.org/2000/svg" xml:space="preserve" id="图层_1" x="0" y="0" viewBox="0 0 129 69"><style>.st0{fill:#fff}</style><g id="页面-1"><g id="_x31_-267"><path d="M96.5 69H.5c-.3 0-.5-.2-.5-.5V.5C0 .2.2 0 .5 0h96c.3 0 .5.2.5.5v68c0 .3-.2.5-.5.5M1 68h95V1H1z" class="st0"/><g transform="translate(.5 .5)"><path id="路径_1_" d="m118 24.5 3.1 6.3 6.9 1-5 4.8 1.2 6.9-6.2-3.2-6.2 3.2 1.2-6.9-5-4.8 6.9-1z" class="st0"/><path d="M124.2 44c-.1 0-.2 0-.2-.1l-5.9-3.1-5.9 3.1c-.2.1-.4.1-.5 0-.2-.1-.2-.3-.2-.5l1.1-6.6-4.8-4.7c-.1-.1-.2-.3-.1-.5s.2-.3.4-.3l6.7-1 3-6c.2-.3.7-.3.9 0l3 6 6.7 1c.2 0 .3.2.4.3.1.2 0 .4-.1.5l-4.8 4.7 1.1 6.6c0 .2 0 .4-.2.5-.4.1-.5.1-.6.1m-6.2-4.2c.1 0 .2 0 .2.1l5.3 2.8-1-5.9c0-.2 0-.3.1-.4l4.3-4.2-5.9-.9c-.2 0-.3-.1-.4-.3l-2.6-5.4-2.6 5.4c-.1.1-.2.2-.4.3l-5.9.9 4.3 4.2c.1.1.2.3.1.4l-1 5.9 5.3-2.8c0-.1.1-.1.2-.1" class="st0"/></g></g></g></svg>