<svg xmlns="http://www.w3.org/2000/svg" xml:space="preserve" id="图层_1" x="0" y="0" viewBox="0 0 129 96"><style>.st0{fill:#fff}</style><g id="页面-1"><g id="_x31_-269"><g transform="translate(.5)"><path id="路径_1_" d="m118.6 39 2.9 5.9 6.5.9-4.7 4.6 1.1 6.5-5.8-3.1-5.8 3.1 1.1-6.5-4.7-4.6 6.5-.9z" class="st0"/><path d="M112.8 57.4c-.1 0-.2 0-.3-.1-.2-.1-.2-.3-.2-.5l1.1-6.2-4.5-4.4c-.1-.1-.2-.3-.1-.5s.2-.3.4-.3l6.2-.9 2.8-5.6c.1-.2.3-.3.4-.3.2 0 .4.1.4.3l2.8 5.6 6.2.9c.2 0 .3.2.4.3.1.2 0 .4-.1.5l-4.5 4.4 1.1 6.2c0 .2 0 .4-.2.5s-.4.1-.5 0l-5.6-2.9-5.6 2.9c0 .1-.1.1-.2.1m5.8-4.1c.1 0 .2 0 .2.1l4.9 2.6-.9-5.5c0-.2 0-.3.1-.4l4-3.9-5.5-.8c-.2 0-.3-.1-.4-.3l-2.5-5-2.5 5c-.1.1-.2.2-.4.3l-5.5.8 4 3.9c.1.1.2.3.1.4l-.9 5.5 4.9-2.6c.3-.1.3-.1.4-.1" class="st0"/></g><path d="M80.6 64.5H.5c-.3 0-.5-.2-.5-.5V31.9c0-.3.2-.5.5-.5h80.1c.3 0 .5.2.5.5V64c0 .3-.3.5-.5.5M1 63.5h79.1V32.4H1z" class="st0"/><path d="M16.6 0h1v31.6h-1zm15.8 0h1v31.6h-1zm16.3 0h1v31.6h-1zM65 0h1v31.6h-1zM37.8 64.2h1v31.6h-1z" class="st0"/></g></g></svg>