<svg xmlns="http://www.w3.org/2000/svg" xml:space="preserve" id="图层_1" x="0" y="0" viewBox="0 0 129 129"><style>.st0{fill:#fff}</style><g id="页面-1"><g id="_x31_-277"><path d="M128.5 129H.5c-.3 0-.5-.2-.5-.5V.5C0 .2.2 0 .5 0h128c.3 0 .5.2.5.5v128c0 .3-.2.5-.5.5M1 128h127V1H1z" class="st0"/><path d="M64.5 33.8c-.1 0-.2 0-.2-.1L.3 1.3Q0 1.15 0 .7C0 .25.3.4.5.4h128c.2 0 .4.2.5.4s-.1.5-.3.6l-64 32.4zM2.6 1.4l61.9 31.3 61.9-31.3zm49 103.4c-10.4 0-18.8-8.5-18.8-18.8s8.5-18.8 18.8-18.8c10.4 0 18.8 8.5 18.8 18.8s-8.4 18.8-18.8 18.8m0-36.7c-9.8 0-17.8 8-17.8 17.8s8 17.8 17.8 17.8 17.8-8 17.8-17.8-7.9-17.8-17.8-17.8" class="st0"/><path d="M17.7 85.1h15.6v1H17.7zm33.9 19.7h-.4v-1c.4 0 34.2.5 44.8-20 .1-.2.3-.3.4-.3h19.5v1H96.8c-10.5 19.7-41.5 20.3-45.2 20.3" class="st0"/></g></g></svg>