<svg xmlns="http://www.w3.org/2000/svg" xml:space="preserve" id="图层_1" x="0" y="0" viewBox="0 0 95 129"><style>.st0{fill:#fff}</style><g id="页面-1"><g id="_x31_-274"><g transform="translate(.5 .5)"><path id="路径_1_" d="M79.7 0 53.2 12.8l13.2 13.5z" class="st0"/><path d="M66.4 26.8c-.1 0-.3-.1-.4-.1L52.8 13.2c-.1-.1-.2-.3-.1-.4 0-.2.1-.3.3-.4L79.4-.5c.2-.1.4-.1.6.1s.2.4.1.6L66.9 26.5c-.1.1-.2.2-.5.3q.15 0 0 0M54 13l12.3 12.5L78.6 1.1z" class="st0"/></g><path d="m15.58 62.12 43.147-42.553.702.712-43.147 42.553z" class="st0"/><path d="M94.4 129H.5c-.3 0-.5-.2-.5-.5V32.2c0-.3.2-.5.5-.5h93.9c.3 0 .5.2.5.5v96.3c0 .3-.2.5-.5.5M1 128h92.9V32.7H1z" class="st0"/><path d="M47.5 57.4c-.1 0-.2 0-.2-.1L.3 32.9q-.3-.15-.3-.6c.1-.2.3-.4.5-.4h93.9c.2 0 .4.2.5.4s-.1.5-.3.6l-47 24.4c0 .1-.1.1-.1.1M2.5 33l45 23.3L92.4 33z" class="st0"/></g></g></svg>