<svg xmlns="http://www.w3.org/2000/svg" xml:space="preserve" id="图层_1" x="0" y="0" viewBox="0 0 98 129"><style>.st0{fill:#fff}</style><g id="页面-1"><g id="_x31_-278"><path d="M96.7 129H.5c-.3 0-.5-.2-.5-.5V32.2c0-.3.2-.5.5-.5h96.2c.3 0 .5.2.5.5v96.3c.1.3-.2.5-.5.5M1 128h95.2V32.7H1z" class="st0"/><path d="M48.6 57.4c-.1 0-.2 0-.2-.1L.3 33q-.3-.15-.3-.6c.1-.2.3-.4.5-.4h96.2c.2 0 .4.2.5.4s-.1.5-.3.6l-48 24.3c-.1.1-.2.1-.3.1M2.6 33l46 23.3 46-23.3z" class="st0"/><g transform="translate(.5 .5)"><path id="路径_2_" d="M79.1 0 52.6 12.8l13.3 13.5z" class="st0"/><path d="M65.9 26.8c-.1 0-.3-.1-.4-.1L52.2 13.2c-.1-.1-.2-.3-.1-.4s.1-.3.3-.4L78.9-.5c.2-.1.4-.1.6.1s.2.4.1.6L66.3 26.5c-.1.1-.2.2-.4.3M53.4 13l12.3 12.5L78 1.1z" class="st0"/></g><path d="m14.984 62.131 43.218-42.624.702.712-43.218 42.624zM28.4 107.1c-.1 0-.2 0-.3-.1-.2-.1-.2-.3-.2-.4V66.8c0-.2.1-.3.2-.4.2-.1.3-.1.5 0l34.6 19.9c.2.1.3.3.3.4s-.1.3-.3.4L28.6 107c0 .1-.1.1-.2.1m.5-39.4v38.1L62 86.7z" class="st0"/><path d="M9.6 86h74.5v1H9.6z" class="st0"/><path d="M64.6 68.6h1v38.2h-1zM45.2 96.8h1V122h-1z" class="st0"/></g></g></svg>