<svg xmlns="http://www.w3.org/2000/svg" xml:space="preserve" id="图层_1" x="0" y="0" viewBox="0 0 129 129"><style>.st0{fill:#fff}</style><g id="页面-1"><g id="_x31_-275"><g transform="translate(.5 .5)"><path id="路径_1_" d="m110.9 56.4-21.1-7.3-.1 14.3z" class="st0"/><path d="M89.7 63.9c-.1 0-.2 0-.3-.1s-.2-.2-.2-.4l.1-14.3c0-.2.1-.3.2-.4s.3-.1.5-.1l21 7.3c.2.1.3.3.3.5s-.1.4-.3.5l-21.1 7zm.6-14.1-.1 12.9 19.1-6.3z" class="st0"/></g><g transform="translate(.5 .5)"><path id="路径_2_" d="m21.9 56.4 21-7.3.1 14.3z" class="st0"/><path d="M43 63.9h-.2l-21.1-7c-.2-.1-.3-.3-.3-.5s.1-.4.3-.5l21-7.3c.2-.1.3 0 .5.1.1.1.2.2.2.4l.1 14.3c0 .2-.1.3-.2.4s-.2.1-.3.1m-19.5-7.5 19.1 6.3-.1-12.9z" class="st0"/></g><path d="m43.818 57.073.008-1 46.5.35-.008 1z" class="st0"/><path d="M128.5 129H.5c-.3 0-.5-.2-.5-.5V.5C0 .2.2 0 .5 0h128c.3 0 .5.2.5.5v128c0 .3-.2.5-.5.5M1 128h127V1H1z" class="st0"/><path d="M64.5 33c-.1 0-.2 0-.2-.1L.3.9Q0 .75 0 .3C0-.15.3 0 .5 0h128c.2 0 .4.2.5.4s-.1.5-.3.6l-64 32zM2.6 1l61.9 30.9L126.4 1zm32.2 105.7c-1.8 0-3.6-.5-5.2-1.4-3.2-1.9-5.1-5.4-5-9.2 0-.3.2-.5.5-.5h19.5c.3 0 .5.2.5.5.1 3.7-1.8 7.3-5 9.2-1.6.9-3.4 1.4-5.3 1.4m-9.2-10.1c.1 3.2 1.8 6.1 4.5 7.8a9.3 9.3 0 0 0 9.4 0c2.8-1.6 4.5-4.6 4.5-7.8zm14.874 22.43 43.31-24.575.494.87-43.31 24.576z" class="st0"/><path d="M84 94.4h42.9v1H84zm-81.5.4h42.1v1H2.5z" class="st0"/></g></g></svg>