<svg xmlns="http://www.w3.org/2000/svg" xml:space="preserve" id="图层_1" x="0" y="0" viewBox="0 0 129 121"><style>.st0{fill:#fff}</style><g id="页面-1"><g id="_x31_-285"><path id="路径_1_" d="m94.2 92 4.6 9.2 10.2 1.5-7.4 7.2 1.8 10.1-9.2-4.8-9 4.8 1.7-10.1-7.4-7.2 10.2-1.5z" class="st0"/><path d="M103.4 120.5c-.1 0-.2 0-.2-.1l-8.9-4.7-8.9 4.7c-.2.1-.4.1-.5 0-.2-.1-.2-.3-.2-.5l1.7-9.9-7.2-7c-.1-.1-.2-.3-.1-.5s.2-.3.4-.3l9.9-1.4 4.4-9c.1-.2.3-.3.4-.3.2 0 .4.1.4.3l4.4 9 9.9 1.4c.2 0 .3.2.4.3.1.2 0 .4-.1.5l-7.2 7 1.7 9.9c0 .2 0 .4-.2.5.1.1 0 .1-.1.1m-9.2-5.8c.1 0 .2 0 .2.1l8.2 4.3-1.6-9.1c0-.2 0-.3.1-.4l6.6-6.5-9.2-1.3c-.2 0-.3-.1-.4-.3L94 93.2l-4.1 8.3c-.1.1-.2.3-.4.3l-9.2 1.3 6.6 6.5c.1.1.2.3.1.4l-1.6 9.1 8.2-4.3c.5-.1.6-.1.6-.1" class="st0"/><path d="M128.5 98.2h-1c0-18.1-14.7-32.9-32.9-32.9S61.8 80.1 61.8 98.2h-1c0-18.7 15.2-33.9 33.9-33.9 18.6.1 33.8 15.3 33.8 33.9" class="st0"/><path d="M94.1.5h1v64.4h-1z" class="st0"/><path d="M0 0h94.6v1H0zm62.8 64.4h63.6v1H62.8z" class="st0"/></g></g></svg>