<svg xmlns="http://www.w3.org/2000/svg" xml:space="preserve" id="图层_1" x="0" y="0" viewBox="0 0 65 129"><style>.st0{fill:#fff}</style><g id="页面-1"><g id="_x31_-290"><path d="M65 128h-1c0-17.4-14.1-31.5-31.5-31.5S1 110.6 1 128H0c0-17.9 14.6-32.5 32.5-32.5S65 110.1 65 128M32 0h1v64.5h-1z" class="st0"/><path d="M32.5 128.5C14.7 128.5.2 114 .2 96.2S14.7 64 32.5 64s32.3 14.5 32.3 32.3-14.5 32.2-32.3 32.2m0-63.5C15.3 65 1.2 79 1.2 96.2s14 31.3 31.3 31.3c17.2 0 31.3-14 31.3-31.3C63.8 79 49.7 65 32.5 65" class="st0"/></g></g></svg>