<svg xmlns="http://www.w3.org/2000/svg" xml:space="preserve" id="图层_1" x="0" y="0" viewBox="0 0 98 129"><style>.st0{fill:#fff}</style><g id="页面-1"><g id="_x31_-293"><path d="m72.01 18.054.861-.509 12.166 20.573-.861.51zM65.597 30.19l.861-.508 12.16 20.575-.86.51z" class="st0"/><path d="M39.665 88.483 96.24.031l.843.539-56.574 88.452z" class="st0"/><path d="M23.7 128.77c-13.1 0-23.7-10.6-23.7-23.7s10.6-23.7 23.7-23.7 23.7 10.6 23.7 23.7-10.6 23.7-23.7 23.7m0-46.4c-12.5 0-22.7 10.2-22.7 22.7s10.2 22.7 22.7 22.7 22.7-10.2 22.7-22.7-10.2-22.7-22.7-22.7" class="st0"/><path d="M23.7 128.77c-13.1 0-23.7-10.6-23.7-23.7s10.6-23.7 23.7-23.7 23.7 10.6 23.7 23.7-10.6 23.7-23.7 23.7m0-46.4c-12.5 0-22.7 10.2-22.7 22.7s10.2 22.7 22.7 22.7 22.7-10.2 22.7-22.7-10.2-22.7-22.7-22.7" class="st0"/></g></g></svg>