<svg xmlns="http://www.w3.org/2000/svg" xml:space="preserve" id="图层_1" x="0" y="0" viewBox="0 0 98 129"><style>.st0{fill:#fff}</style><g id="页面-1"><g id="_x31_-296"><path d="M39.665 88.483 96.24.031l.843.539-56.574 88.452z" class="st0"/><path d="M23.7 128.77c-13.1 0-23.7-10.6-23.7-23.7s10.6-23.7 23.7-23.7 23.7 10.6 23.7 23.7-10.6 23.7-23.7 23.7m0-46.4c-12.5 0-22.7 10.2-22.7 22.7s10.2 22.7 22.7 22.7 22.7-10.2 22.7-22.7-10.2-22.7-22.7-22.7" class="st0"/><path d="M23.7 128.77c-13.1 0-23.7-10.6-23.7-23.7s10.6-23.7 23.7-23.7 23.7 10.6 23.7 23.7-10.6 23.7-23.7 23.7m0-46.4c-12.5 0-22.7 10.2-22.7 22.7s10.2 22.7 22.7 22.7 22.7-10.2 22.7-22.7-10.2-22.7-22.7-22.7" class="st0"/><path d="m6.93 121.116 32.81-32.809.707.707-32.81 32.81z" class="st0"/><path d="m6.932 89.013.707-.707 32.81 32.81-.708.706z" class="st0"/></g></g></svg>