<svg xmlns="http://www.w3.org/2000/svg" xml:space="preserve" id="图层_1" x="0" y="0" viewBox="0 0 109 129"><style>.st0{fill:#fff}</style><g id="页面-1"><g id="_x31_-292"><g transform="translate(.5 .25)"><path id="路径_1_" d="m92.8 22.8 4.7 9.6 10.5 1.5-7.6 7.4 1.8 10.5-9.4-4.9-9.5 4.9 1.8-10.5-7.6-7.4 10.6-1.5z" class="st0"/><path d="M83.3 52.3c-.1 0-.2 0-.3-.1-.2-.1-.2-.3-.2-.5l1.8-10.2-7.4-7.2c-.2-.2-.2-.4-.2-.6.1-.2.2-.3.4-.3l10.3-1.5 4.6-9.3c.2-.3.7-.3.9 0l4.6 9.3 10.3 1.5c.2 0 .3.2.4.3.1.2 0 .4-.1.5l-7.4 7.2 1.8 10.2c0 .2 0 .4-.2.5s-.4.1-.5 0l-9.2-4.8-9.2 4.8c-.2.2-.3.2-.4.2m-4.7-18.1 6.9 6.7c.1.1.2.3.1.4L84 50.9l8.5-4.5c.1-.1.3-.1.5 0l8.5 4.5-1.6-9.5c0-.2 0-.3.1-.4l6.9-6.7-9.5-1.4c-.2 0-.3-.1-.4-.3L92.8 24l-4.3 8.6c-.1.1-.2.2-.4.3z" class="st0"/></g><path d="M35.238 85.14 84.468-.056l.866.5-49.23 85.195z" class="st0"/><path d="M23.7 128.75c-13.1 0-23.7-10.6-23.7-23.7s10.6-23.7 23.7-23.7 23.7 10.6 23.7 23.7-10.6 23.7-23.7 23.7m0-46.4c-12.5 0-22.7 10.2-22.7 22.7s10.2 22.7 22.7 22.7 22.7-10.2 22.7-22.7-10.2-22.7-22.7-22.7" class="st0"/></g></g></svg>