<svg xmlns="http://www.w3.org/2000/svg" xml:space="preserve" id="图层_1" x="0" y="0" viewBox="0 0 100 129"><style>.st0{fill:#fff}</style><g id="页面-1"><g id="_x31_-299" transform="translate(1 .279)"><g id="_1-295" transform="translate(39.69)"><path d="m25.399 29.927.86-.508L38.42 49.994l-.86.509z" class="st0"/><path d="M-.475 88.137 56.1-.315l.843.538L.368 88.675z" class="st0"/><path id="路径_2_" d="M38.5 83V58h1v5.9h.1c.7-1.9 2-3.6 3.7-4.8s3.8-1.8 5.9-1.8c2.5-.1 5 .9 6.7 2.9 1.7 2.2 2.6 4.9 2.5 7.7V83h-1V68.2c.1-2.6-.6-5.1-2.2-7.2-1.5-1.8-3.7-2.8-6-2.7-1.8 0-3.5.5-5 1.4-1.4.9-2.6 2.2-3.4 3.7q-1.2 2.25-1.2 4.8V83z" class="st0"/></g><g id="_1-296"><path d="M23.2 128.52c-13.1 0-23.7-10.6-23.7-23.7s10.6-23.7 23.7-23.7 23.7 10.6 23.7 23.7-10.6 23.7-23.7 23.7m0-46.4c-12.5 0-22.7 10.2-22.7 22.7s10.2 22.7 22.7 22.7 22.7-10.2 22.7-22.7-10.2-22.7-22.7-22.7" class="st0"/><path d="M23.2 128.52c-13.1 0-23.7-10.6-23.7-23.7s10.6-23.7 23.7-23.7 23.7 10.6 23.7 23.7-10.6 23.7-23.7 23.7m0-46.4c-12.5 0-22.7 10.2-22.7 22.7s10.2 22.7 22.7 22.7 22.7-10.2 22.7-22.7-10.2-22.7-22.7-22.7" class="st0"/><path d="m6.446 120.861 32.81-32.81.706.708-32.81 32.81z" class="st0"/><path d="m6.446 88.759.707-.707 32.81 32.809-.708.707z" class="st0"/></g></g></g></svg>