<svg xmlns="http://www.w3.org/2000/svg" xml:space="preserve" id="图层_1" x="0" y="0" viewBox="0 0 129 93"><style>.st0{fill:#fff}</style><g id="页面-1"><g id="_x31_-302"><path d="M64.75 92.509c-13.6 0-24.8-11.1-24.8-24.8s11.2-24.7 24.8-24.7 24.8 11.1 24.8 24.8-11.2 24.7-24.8 24.7m0-48.5c-13.1 0-23.8 10.7-23.8 23.8s10.7 23.7 23.8 23.7 23.8-10.7 23.8-23.8-10.7-23.7-23.8-23.7" class="st0"/><path d="m77.35 47.009-.9-.5 26.7-46.2c.1-.1.2-.2.3-.2h.4l25.2 14.5-.5.9-24.8-14.3zm-25.2 0-26.4-45.8-24.8 14.3-.5-.9 25.3-14.5c.1-.1.3-.1.4 0 .1 0 .2.1.3.2l26.6 46.2z" class="st0"/></g></g></svg>