<svg xmlns="http://www.w3.org/2000/svg" xml:space="preserve" id="图层_1" x="0" y="0" viewBox="0 0 130 82"><style>.st0{fill:#fff}</style><g id="页面-1"><g id="_x31_-309"><path d="M41 81.009c-22.3 0-40.5-18.2-40.5-40.5S18.7.009 41 .009s40.5 18.2 40.5 40.5-18.2 40.5-40.5 40.5m0-80c-21.8 0-39.5 17.7-39.5 39.5s17.7 39.5 39.5 39.5 39.5-17.7 39.5-39.5-17.7-39.5-39.5-39.5" class="st0"/><path d="M41 60.509c-11 0-20-9-20-20s9-20 20-20 20 9 20 20-9 20-20 20m0-39c-10.5 0-19 8.5-19 19s8.5 19 19 19 19-8.5 19-19-8.5-19-19-19" class="st0"/><g transform="translate(1 .509)"><path id="路径_1_" d="m120 0 2.5 5 5.5.8-4 3.9.9 5.5-4.9-2.6-4.9 2.6.9-5.5-4-3.9 5.5-.8z" class="st0"/><path d="M124.9 15.7c-.1 0-.2 0-.2-.1l-4.7-2.5-4.7 2.5c-.2.1-.4.1-.5 0-.2-.1-.2-.3-.2-.5l.9-5.3-3.8-3.7c-.1-.1-.2-.3-.1-.5s.2-.3.4-.3l5.3-.8 2.4-4.8c.2-.3.7-.3.9 0l2.4 4.8 5.3.8c.2 0 .3.2.4.3s0 .4-.1.5l-3.8 3.7.9 5.3c0 .2 0 .4-.2.5-.4.1-.5.1-.6.1m-4.9-3.6c.1 0 .2 0 .2.1l4 2.1-.8-4.5c0-.2 0-.3.1-.4l3.3-3.2-4.5-.7c-.2 0-.3-.1-.4-.3l-2-4.1-2 4.1c-.1.1-.2.2-.4.3l-4.5.7 3.3 3.2c.1.1.2.3.1.4l-.8 4.5 4-2.1c.2-.1.3-.1.4-.1" class="st0"/></g></g></g></svg>