<svg xmlns="http://www.w3.org/2000/svg" xml:space="preserve" id="图层_1" x="0" y="0" viewBox="0 0 123 130"><style>.st0{fill:#fff}</style><g id="页面-1"><g id="_x31_-301"><path d="m41.1 89.309-.8-.5L96.8.209c.1-.1.2-.2.3-.2s.3 0 .4.1l24.8 18.8-.6.8-24.4-18.5z" class="st0"/><path d="m85.622 18.574.613-.79 25.596 19.864-.613.79zM24.2 129.009c-13.1 0-23.7-10.6-23.7-23.7s10.6-23.7 23.7-23.7 23.7 10.6 23.7 23.7-10.6 23.7-23.7 23.7m0-46.4c-12.5 0-22.7 10.2-22.7 22.7s10.2 22.7 22.7 22.7 22.7-10.2 22.7-22.7-10.2-22.7-22.7-22.7" class="st0"/></g></g></svg>