<svg xmlns="http://www.w3.org/2000/svg" xml:space="preserve" id="图层_1" x="0" y="0" viewBox="0 0 123 130"><style>.st0{fill:#fff}</style><g id="页面-1"><g id="_x31_-300" transform="translate(1 .509)"><path d="m40.1 88.8-.8-.5L95.8-.3c.1-.1.2-.2.3-.2s.3 0 .4.1l24.8 18.8-.6.8L96.3.7z" class="st0"/><path d="M23.2 128.5c-13.1 0-23.7-10.6-23.7-23.7s10.6-23.7 23.7-23.7 23.7 10.6 23.7 23.7-10.6 23.7-23.7 23.7m0-46.4C10.7 82.1.5 92.3.5 104.8s10.2 22.7 22.7 22.7 22.7-10.2 22.7-22.7-10.2-22.7-22.7-22.7" class="st0"/><path d="M23.2 128.5c-13.1 0-23.7-10.6-23.7-23.7s10.6-23.7 23.7-23.7 23.7 10.6 23.7 23.7-10.6 23.7-23.7 23.7m0-46.4C10.7 82.1.5 92.3.5 104.8s10.2 22.7 22.7 22.7 22.7-10.2 22.7-22.7-10.2-22.7-22.7-22.7" class="st0"/><path id="路径_1_" d="M108.1 36.5h-7.6v17.1c-.1 1.6.3 3.1 1.2 4.4.7 1 2 1.6 3.2 1.6.9 0 1.8-.2 2.6-.7V60c-.9.4-1.8.6-2.8.6-1.5.1-2.9-.6-3.9-1.8-1-1.5-1.5-3.3-1.4-5.1V36.5h-4v-1h4v-6.7h1v6.8h7.6z" class="st0"/></g></g></svg>