<svg xmlns="http://www.w3.org/2000/svg" xml:space="preserve" id="图层_1" x="0" y="0" viewBox="0 0 123 130"><style>.st0{fill:#fff}</style><g id="页面-1"><g id="_x31_-307"><path d="m41.1 89.309-.8-.5L96.8.209c.1-.1.2-.2.3-.2s.3 0 .4.1l24.8 18.8-.6.8-24.4-18.5z" class="st0"/><path d="M24.2 129.009c-13.1 0-23.7-10.6-23.7-23.7s10.6-23.7 23.7-23.7 23.7 10.6 23.7 23.7-10.6 23.7-23.7 23.7m0-46.4c-12.5 0-22.7 10.2-22.7 22.7s10.2 22.7 22.7 22.7 22.7-10.2 22.7-22.7-10.2-22.7-22.7-22.7" class="st0"/><path d="M24.2 129.009c-13.1 0-23.7-10.6-23.7-23.7s10.6-23.7 23.7-23.7 23.7 10.6 23.7 23.7-10.6 23.7-23.7 23.7m0-46.4c-12.5 0-22.7 10.2-22.7 22.7s10.2 22.7 22.7 22.7 22.7-10.2 22.7-22.7-10.2-22.7-22.7-22.7M96.7.509h1v35h-1z" class="st0"/><g transform="translate(1 .509)"><path id="路径_3_" d="M96.5 31.5h6l-3 9-3 9-3-9-3-9z" class="st0"/><path d="M96.5 50c-.2 0-.4-.1-.5-.3l-6-18c-.1-.2 0-.3.1-.5.1-.1.2-.2.4-.2h12c.2 0 .3.1.4.2s.1.3.1.5l-6 18c-.1.2-.3.3-.5.3m-5.3-18 5.3 15.9 5.3-15.9z" class="st0"/></g></g></g></svg>