<svg xmlns="http://www.w3.org/2000/svg" xml:space="preserve" id="图层_1" x="0" y="0" viewBox="0 0 130 70"><style>.st0{fill:#fff}</style><g id="页面-1"><g id="_x31_-319" transform="translate(1 .509)"><path id="_2-002" d="M128 68.5H0c-.3 0-.5-.2-.5-.5V0c0-.3.2-.5.5-.5h128c.3 0 .5.2.5.5v68c0 .3-.2.5-.5.5M.5 67.5h127V.5H.5z" class="st0"/><path id="路径_1_" d="M105.5 18.3 58.5 7v22z" class="st0"/><path d="M58.5 29.5c-.1 0-.2 0-.3-.1s-.2-.2-.2-.4V7c0-.2.1-.3.2-.4s.3-.1.4-.1l47 11.4c.2.1.4.3.4.5s-.2.4-.4.5l-47 10.7c0-.1-.1-.1-.1-.1M59 7.6v20.8l44.3-10.1z" class="st0"/><path d="m22.497 17.659 36-.317.009 1-36 .317z" class="st0"/><path id="路径_3_" d="m22.5 50.3 47-11.3v22z" class="st0"/><path d="M69.5 61.5h-.1l-47-10.7c-.2-.1-.4-.3-.4-.5s.2-.4.4-.5l47-11.3c.1 0 .3 0 .4.1s.2.2.2.4v22c0 .2-.1.3-.2.4s-.2.1-.3.1M24.7 50.3 69 60.4V39.6z" class="st0"/><path d="m69.498 50.347.008-1 36 .3-.008 1z" class="st0"/></g></g></svg>