<svg xmlns="http://www.w3.org/2000/svg" xml:space="preserve" id="图层_1" x="0" y="0" viewBox="0 0 130 74"><style>.st0{fill:#fff}</style><g id="页面-1"><g id="_x31_-315" transform="translate(1 .509)"><path id="路径_1_" d="m116 24.6 3.7 7.5 8.3 1.2-6 5.9 1.4 8.2-7.4-3.9-7.4 3.9 1.4-8.2-6-5.9 8.3-1.2z" class="st0"/><path d="M123.4 47.9c-.1 0-.2 0-.2-.1L116 44l-7.2 3.8c-.2.1-.4.1-.5 0-.2-.1-.2-.3-.2-.5l1.4-8-5.8-5.7c-.1-.1-.2-.3-.1-.5s.2-.3.4-.3l8-1.2 3.6-7.3c.2-.3.7-.3.9 0l3.6 7.3 8 1.2c.2 0 .3.2.4.3s0 .4-.1.5l-5.8 5.7 1.4 8c0 .2 0 .4-.2.5s-.3.1-.4.1M116 43c.1 0 .2 0 .2.1l6.5 3.4-1.2-7.3c0-.2 0-.3.1-.4l5.3-5.1-7.3-1.1c-.2 0-.3-.1-.4-.3l-3.3-6.6-3.3 6.6c-.1.1-.2.2-.4.3l-7.3 1.1 5.3 5.1c.1.1.2.3.1.4l-1.2 7.3 6.5-3.4c.2-.1.3-.1.4-.1" class="st0"/><g id="_1-296"><path d="M36 72.5C15.9 72.5-.5 56.1-.5 36S15.9-.5 36-.5 72.5 15.9 72.5 36 56.1 72.5 36 72.5m0-72C16.4.5.5 16.4.5 36S16.4 71.5 36 71.5 71.5 55.6 71.5 36 55.6.5 36 .5" class="st0"/><path d="M36 72.5C15.9 72.5-.5 56.1-.5 36S15.9-.5 36-.5 72.5 15.9 72.5 36 56.1 72.5 36 72.5m0-72C16.4.5.5 16.4.5 36S16.4 71.5 36 71.5 71.5 55.6 71.5 36 55.6.5 36 .5" class="st0"/><path d="m10.19 61.102 50.912-50.911.707.707-50.912 50.911z" class="st0"/><path d="m10.19 10.898.707-.707L61.81 61.102l-.707.707z" class="st0"/></g></g></g></svg>