<svg xmlns="http://www.w3.org/2000/svg" xml:space="preserve" id="图层_1" x="0" y="0" viewBox="0 0 97 130"><style>.st0{fill:#fff}</style><g id="页面-1"><g id="_x31_-328" transform="translate(1 .509)"><path d="M64 128.5C28.4 128.5-.5 99.6-.5 64S28.4-.5 64-.5v1C29 .5.5 29 .5 64S29 127.5 64 127.5z" class="st0"/><g id="_1-296"><path d="M63.99 95.69c-17.5 0-31.7-14.2-31.7-31.7s14.2-31.7 31.7-31.7 31.7 14.2 31.7 31.7-14.2 31.7-31.7 31.7m0-62.4c-16.9 0-30.7 13.8-30.7 30.7s13.8 30.7 30.7 30.7 30.7-13.8 30.7-30.7-13.8-30.7-30.7-30.7" class="st0"/><path d="M63.99 95.69c-17.5 0-31.7-14.2-31.7-31.7s14.2-31.7 31.7-31.7 31.7 14.2 31.7 31.7-14.2 31.7-31.7 31.7m0-62.4c-16.9 0-30.7 13.8-30.7 30.7s13.8 30.7 30.7 30.7 30.7-13.8 30.7-30.7-13.8-30.7-30.7-30.7" class="st0"/><path d="m41.57 85.708 44.123-44.123.707.707-44.123 44.123z" class="st0"/><path d="m41.57 42.292.707-.707L86.4 85.708l-.707.707z" class="st0"/></g></g></g></svg>