<svg xmlns="http://www.w3.org/2000/svg" xml:space="preserve" id="图层_1" x="0" y="0" viewBox="0 0 130 129"><style>.st0{fill:#fff}</style><g id="页面-1"><g id="_x31_-320"><g transform="translate(.85 .359)"><circle id="椭圆形_1_" cx="64" cy="64" r="20" class="st0"/><path d="M64 84.5c-11.3 0-20.5-9.2-20.5-20.5S52.7 43.5 64 43.5 84.5 52.7 84.5 64 75.3 84.5 64 84.5m0-40c-10.8 0-19.5 8.7-19.5 19.5S53.2 83.5 64 83.5 83.5 74.8 83.5 64 74.8 44.5 64 44.5" class="st0"/></g><path d="M.503 127.998 128.488.013l.707.707L1.21 128.705z" class="st0"/><path d="M.503.72 1.21.013l127.985 127.985-.707.707z" class="st0"/></g></g></svg>