<svg xmlns="http://www.w3.org/2000/svg" xml:space="preserve" id="图层_1" x="0" y="0" viewBox="0 0 130 130"><style>.st0{fill:#fff}</style><g id="页面-1"><g id="_x31_-321" transform="translate(1 .509)"><circle id="椭圆形_1_" cx="64" cy="64" r="20" class="st0"/><path d="M64 84.5c-11.3 0-20.5-9.2-20.5-20.5S52.7 43.5 64 43.5 84.5 52.7 84.5 64 75.3 84.5 64 84.5m0-40c-10.8 0-19.5 8.7-19.5 19.5S53.2 83.5 64 83.5 83.5 74.8 83.5 64 74.8 44.5 64 44.5" class="st0"/><path d="M-.347 127.639 127.638-.346l.707.707L.36 128.346z" class="st0"/><path id="_2-002" d="M128 128.5H0c-.3 0-.5-.2-.5-.5V0c0-.3.2-.5.5-.5h128c.3 0 .5.2.5.5v128c0 .3-.2.5-.5.5m-127.5-1h127V.5H.5z" class="st0"/><path d="M-.347.361.36-.346l127.985 127.985-.707.707z" class="st0"/></g></g></svg>