<svg xmlns="http://www.w3.org/2000/svg" xml:space="preserve" id="图层_1" x="0" y="0" viewBox="0 0 130 99"><style>.st0{fill:#fff}</style><g id="页面-1"><g id="_x31_-327"><g transform="translate(.55 .509)"><path id="路径_1_" d="m68.4 0 3.8 7.7 8.5 1.2-6.2 6 1.5 8.5-7.6-4-7.6 4 1.4-8.5-6.1-6 8.5-1.2z" class="st0"/><path d="M60.7 23.9c-.1 0-.2 0-.3-.1-.2-.1-.2-.3-.2-.5l1.4-8.2-6-5.8c-.1-.1-.2-.3-.1-.5s.2-.3.4-.3l8.2-1.2 3.7-7.5c.2-.3.7-.3.9 0l3.7 7.5 8.2 1.2c.2 0 .3.2.4.3s0 .4-.1.5l-6 5.8 1.4 8.2c0 .2 0 .4-.2.5s-.4.1-.5 0L68.4 20 61 23.8c-.1.1-.2.1-.3.1M57.1 9.3l5.4 5.3c.1.1.2.3.1.4l-1.3 7.5L68 19c.1-.1.3-.1.5 0l6.7 3.5L74 15c0-.2 0-.3.1-.4l5.4-5.3L72 8.2c-.2 0-.3-.1-.4-.3l-3.4-6.8L65 7.9c-.1.1-.2.2-.4.3z" class="st0"/></g><path d="m.438 97.648.145-74.2 1 .002-.145 74.2zm127.89 1.11.145-74.2 1 .002-.145 74.2z" class="st0"/><path d="m1.385 37.274.001-1 127.6.18-.001 1zm.039 24.039.002-1 127.6.18-.002 1zm-.05 26.551.001-1 127.6.18-.001 1z" class="st0"/></g></g></svg>