<svg xmlns="http://www.w3.org/2000/svg" xml:space="preserve" id="图层_1" x="0" y="0" viewBox="0 0 130 130"><style>.st0{fill:#fff}</style><g id="页面-1"><g id="_x31_-336"><path d="M129 129.009H1c-.3 0-.5-.2-.5-.5v-128c0-.3.2-.5.5-.5h128c.3 0 .5.2.5.5v128c0 .3-.2.5-.5.5m-127.5-1h127v-127H1.5z" class="st0"/><path d="M65 108.809c-24.4 0-44.3-19.9-44.3-44.3s19.9-44.3 44.3-44.3 44.3 19.9 44.3 44.3-19.9 44.3-44.3 44.3m0-87.6c-23.9 0-43.3 19.4-43.3 43.3s19.4 43.3 43.3 43.3 43.3-19.4 43.3-43.3-19.4-43.3-43.3-43.3" class="st0"/><g transform="translate(1 .509)"><circle id="椭圆形_2_" cx="64" cy="64" r="10.4" class="st0"/><path d="M64 74.9c-6 0-10.9-4.9-10.9-10.9S58 53.1 64 53.1 74.9 58 74.9 64 70 74.9 64 74.9m0-20.8c-5.5 0-9.9 4.5-9.9 9.9s4.5 9.9 9.9 9.9 9.9-4.5 9.9-9.9-4.4-9.9-9.9-9.9" class="st0"/></g></g></g></svg>