<svg xmlns="http://www.w3.org/2000/svg" xml:space="preserve" id="图层_1" x="0" y="0" viewBox="0 0 110 130"><style>.st0{fill:#fff}</style><g id="页面-1"><g id="_x31_-330" transform="translate(1 .509)"><g id="_1-310" transform="translate(0 24)"><path d="M40 80.5C17.7 80.5-.5 62.3-.5 40S17.7-.5 40-.5v1C18.2.5.5 18.2.5 40S18.2 79.5 40 79.5z" class="st0"/><g id="_1-296"><path d="M39.99 59.99c-11 0-20-9-20-20s9-20 20-20 20 9 20 20-9 20-20 20m0-39c-10.5 0-19 8.5-19 19s8.5 19 19 19 19-8.5 19-19-8.5-19-19-19" class="st0"/><path d="M39.99 59.99c-11 0-20-9-20-20s9-20 20-20 20 9 20 20-9 20-20 20m0-39c-10.5 0-19 8.5-19 19s8.5 19 19 19 19-8.5 19-19-8.5-19-19-19" class="st0"/><path d="M25.844 53.435 53.42 25.858l.708.707L26.55 54.142z" class="st0"/><path d="m25.844 26.565.707-.707 27.577 27.577-.708.707z" class="st0"/></g></g><path id="路径_4_" d="M107.6 128 86.8 93.9l-12.9 12.9z" class="st0"/><path d="M107.6 128.5c-.1 0-.2 0-.3-.1l-33.8-21.2c-.1-.1-.2-.2-.2-.4s0-.3.1-.4l12.9-12.9c.1-.1.3-.2.4-.1.2 0 .3.1.4.2l20.8 34.1c.1.2.1.5-.1.6.1.2 0 .2-.2.2m-32.9-21.8 31.4 19.7-19.4-31.7z" class="st0"/><path d="m61.735 82.739.709-.705 18.048 18.158-.71.705z" class="st0"/><path id="路径_6_" d="M108 0 73.9 20.9l12.9 12.9z" class="st0"/><path d="M86.8 34.3c-.1 0-.3-.1-.4-.1l-12.9-13c-.1-.1-.2-.3-.1-.4 0-.2.1-.3.2-.4L107.7-.5c.2-.1.5-.1.6.1.2.2.2.4.1.6L87.2 34c-.1.2-.2.3-.4.3M74.7 20.9l12 12 19.7-31.4z" class="st0"/><path d="m62.08 45.248 18.152-18.053.705.71-18.153 18.052z" class="st0"/></g></g></svg>