<svg xmlns="http://www.w3.org/2000/svg" xml:space="preserve" id="图层_1" x="0" y="0" viewBox="0 0 130 130"><style>.st0{fill:#fff}</style><g id="页面-1"><g id="_x31_-338" transform="translate(1 .509)"><g id="_1-321"><path id="_2-002" d="M128 128.5H0c-.3 0-.5-.2-.5-.5V0c0-.3.2-.5.5-.5h128c.3 0 .5.2.5.5v128c0 .3-.2.5-.5.5m-127.5-1h127V.5H.5z" class="st0"/></g><g id="_1-321-2"><path id="_2-002-2" d="M0 128.5h-.2c-.2-.1-.3-.3-.3-.5V0c0-.3.2-.5.5-.5h128c.2 0 .4.1.5.3s0 .4-.1.5l-128 128c-.1.1-.3.2-.4.2M.5.5v126.3L126.8.5z" class="st0"/><path id="路径_1_" d="M25.9 24.2c-.9 1.3-1.3 2.9-1.2 4.5v4.7h7.8v1h-7.8v24h-1v-24h-3.9v-1h3.9v-4.9c-.1-1.8.4-3.5 1.4-5 1-1.2 2.5-1.9 4-1.8q1.8 0 3.6.6v1.1c-1.1-.5-2.3-.7-3.5-.7-1.3-.1-2.5.5-3.3 1.5" class="st0"/><path id="路径_2_" d="M43.5 58.3h-1V23.7l-7.4 4.2v-1.2l7.7-4.3h.7z" class="st0"/><path id="路径_3_" d="M80.9 74.2c-.9 1.3-1.3 2.9-1.2 4.5v4.7h7.8v1h-7.8v24h-1v-24h-3.9v-1h3.9v-4.9c-.1-1.8.4-3.5 1.4-5 1-1.2 2.5-1.9 4-1.8q1.8 0 3.6.6v1.1c-1.1-.5-2.3-.7-3.5-.7-1.2-.1-2.5.5-3.3 1.5" class="st0"/><path id="路径_4_" d="M92 107.3h19.2v1H90.6v-1l12.1-13.5c2.1-2.2 4-4.7 5.5-7.4 1-1.8 1.5-3.8 1.6-5.8.1-2.2-.7-4.3-2.3-5.8-1.7-1.5-3.9-2.2-6.2-2.1-4.4 0-7.6 2.2-9.6 6.7l-1-.5c.9-2.2 2.4-4 4.4-5.4 1.8-1.2 4-1.9 6.2-1.8 2.5-.1 5 .7 6.9 2.4 1.8 1.7 2.7 4 2.6 6.4-.1 2.2-.6 4.3-1.7 6.2q-2.4 4.2-5.7 7.8z" class="st0"/></g></g></g></svg>