<svg xmlns="http://www.w3.org/2000/svg" xml:space="preserve" id="图层_1" x="0" y="0" viewBox="0 0 130 45"><style>.st0{fill:#fff}</style><g id="页面-1"><g id="_x31_-340" transform="translate(1 .509)"><path d="M86.4 43.7H0c-.3 0-.5-.2-.5-.5V0c0-.3.2-.5.5-.5h86.4c.3 0 .5.2.5.5v43.2c0 .3-.2.5-.5.5m-85.9-1h85.4V.5H.5z" class="st0"/><path id="路径" d="M37.1 23.9c-.4-1-.6-2.1-.6-3.1 0-1.5.4-2.9 1.1-4.2s1.8-2.4 3.1-3.2c1.5-.8 3.1-1.3 4.8-1.2 1.7 0 3.3.4 4.8 1.1 1.4.7 2.5 1.9 3.2 3.3.8 1.5 1.2 3.1 1.1 4.7 0 2-.5 3.9-1.7 5.6-1.1 1.6-2.6 2.9-4.4 3.7l-.7-1.4c3.5-1.7 5.3-4.3 5.3-7.9 0-1.4-.3-2.7-1-3.9-.6-1.1-1.5-2.1-2.7-2.7s-2.6-1-4-.9c-1.4 0-2.7.3-3.9 1-1.1.6-2.1 1.6-2.7 2.7-.7 1.1-1 2.4-1 3.7 0 1.6.4 3.2 1.2 4.6l-1.2.9-12.5-11v14.2H24V13.6h1.4z" class="st0"/><path d="M128 43.7H86.4c-.3 0-.5-.2-.5-.5V0c0-.2.1-.4.3-.5s.4 0 .5.1l41.6 43.2c.1.1.2.4.1.5 0 .3-.2.4-.4.4m-41.1-1h39.9L86.9 1.2z" class="st0"/></g></g></svg>