<svg xmlns="http://www.w3.org/2000/svg" xml:space="preserve" id="图层_1" x="0" y="0" viewBox="0 0 130 130"><style>.st0{fill:#fff}</style><g id="页面-1"><g id="_x31_-344" transform="translate(1 .509)"><path d="M128 128.5H66.8c-.2 0-.3-.1-.4-.2s-.1-.3 0-.5l30.6-64c.2-.3.7-.3.9 0l30.6 64c.1.2.1.3 0 .5s-.3.2-.5.2m-60.4-1h59.6L97.4 65.2z" class="st0"/><path d="M97.4 64.5c-.2 0-.4-.1-.5-.3L66.3.2c-.1-.2-.1-.3 0-.5.1-.1.3-.2.4-.2H128c.2 0 .3.1.4.2s.1.3 0 .5l-30.6 64c0 .2-.2.3-.4.3M67.6.5l29.8 62.3L127.2.5zM52.1 63.7H69v1H52.1zm26.3 0h16.9v1H78.4z" class="st0"/><path id="路径_4_" d="M15.5 78h-.7V54h1l9.6 18.9h.1L35.1 54h1v24h-.7V55.2l-9.7 18.6H25l-9.5-18.6z" class="st0"/><path d="M50.2 91H0c-.3 0-.5-.2-.5-.5V40.3c0-.3.2-.5.5-.5h50.2c.3 0 .5.2.5.5v50.2c0 .3-.2.5-.5.5M.5 90h49.2V40.8H.5z" class="st0"/></g></g></svg>