<svg xmlns="http://www.w3.org/2000/svg" xml:space="preserve" id="图层_1" x="0" y="0" viewBox="0 0 130 130"><style>.st0{fill:#fff}</style><g id="页面-1"><g id="_x31_-345"><path d="M129 129.009H1c-.3 0-.5-.2-.5-.5v-128c0-.3.2-.5.5-.5h128c.3 0 .5.2.5.5v128c0 .3-.2.5-.5.5m-127.5-1h127v-127H1.5z" class="st0"/><path d="M108.6 99.809c-.2 0-.4-.1-.4-.3l-33-63.7-18 58c-.1.2-.2.3-.4.3s-.4-.1-.5-.3l-33.6-60.6v30.9h-1v-32.8c0-.2.2-.4.4-.5s.5 0 .6.2l33.8 61.4 18.1-58.1c.1-.2.2-.3.4-.3s.4.1.5.3l32.7 63v-33.2h1v35.2c0 .2-.2.4-.4.5z" class="st0"/></g></g></svg>