<svg xmlns="http://www.w3.org/2000/svg" xml:space="preserve" id="图层_1" x="0" y="0" viewBox="0 0 92 130"><style>.st0{fill:#fff}</style><g id="页面-1"><g id="_x31_-341"><path d="M45.8 129.009c-25 0-45.3-20.3-45.3-45.3 0-.9 0-1.9.1-3.1-.1-.1-.1-.2-.1-.3V.509c0-.3.2-.5.5-.5h89.7c.3 0 .5.2.5.5v79.8c0 .1 0 .2-.1.3.1 1.2.1 2.2.1 3.1 0 25-20.4 45.3-45.4 45.3m-44.3-49.1c.1.1.1.2.1.4-.1 1.3-.1 2.4-.1 3.4 0 24.4 19.9 44.3 44.3 44.3s44.3-19.9 44.3-44.3c0-1 0-2-.1-3.4 0-.1 0-.3.1-.4v-78.9H1.5z" class="st0"/><path d="M47.4 76.409c-16.3 0-29.6-13.3-29.6-29.6s13.3-29.6 29.6-29.6 29.6 13.3 29.6 29.6c-.1 16.4-13.3 29.6-29.6 29.6m0-58.1c-15.7 0-28.6 12.8-28.6 28.6 0 15.7 12.8 28.6 28.6 28.6s28.6-12.8 28.6-28.6c-.1-15.8-12.9-28.6-28.6-28.6" class="st0"/><path d="M47.4 116.009c-16.3 0-29.6-13.3-29.6-29.6s13.3-29.6 29.6-29.6 29.6 13.3 29.6 29.6c-.1 16.3-13.3 29.6-29.6 29.6m0-58.1c-15.7 0-28.6 12.8-28.6 28.6s12.8 28.6 28.6 28.6 28.5-12.9 28.5-28.6-12.8-28.6-28.5-28.6" class="st0"/><path d="M9.4 66.809h73v1h-73z" class="st0"/></g></g></svg>