<svg xmlns="http://www.w3.org/2000/svg" xml:space="preserve" id="图层_1" x="0" y="0" viewBox="0 0 130 130"><style>.st0{fill:#fff}</style><g id="页面-1"><g id="_x31_-346"><path d="M129 129.009H1c-.3 0-.5-.2-.5-.5v-128c0-.3.2-.5.5-.5h128c.3 0 .5.2.5.5v128c0 .3-.2.5-.5.5m-127.5-1h127v-127H1.5z" class="st0"/><path d="M63 102.609c-19.9 0-36.1-16.2-36.1-36.1s16.2-36.1 36.1-36.1 36.1 16.2 36.1 36.1-16.2 36.1-36.1 36.1m0-71.2c-19.4 0-35.1 15.7-35.1 35.1s15.7 35.1 35.1 35.1 35.1-15.7 35.1-35.1-15.7-35.1-35.1-35.1" class="st0"/><path d="m29.6 78.509-.5-.8c9.6-6.2 18.2-43.2 18.3-43.6l1 .2c-.3 1.6-8.8 37.8-18.8 44.2m66.7-.1c-9.2-11.9-15.5-41.3-15.8-42.6l1-.2c.1.3 6.6 30.4 15.6 42.2z" class="st0"/></g></g></svg>