<svg xmlns="http://www.w3.org/2000/svg" xml:space="preserve" id="图层_1" x="0" y="0" viewBox="0 0 129 66"><style>.st0{fill:#fff}</style><g id="页面-1"><g id="_x31_-342" transform="translate(.5 .509)"><g id="_1-231"><path d="M96 64.5c-17.9 0-32.5-14.6-32.5-32.5S78.1-.5 96-.5s32.5 14.6 32.5 32.5S113.9 64.5 96 64.5m0-64C78.6.5 64.5 14.6 64.5 32S78.6 63.5 96 63.5s31.5-14.1 31.5-31.5S113.4.5 96 .5" class="st0"/><path d="M64.354 24.705 88.607.45l.707.707-24.253 24.254zm-.67 9.132L97.837-.315l.707.707-34.152 34.153zm1.353 7.215L105.06 1.031l.707.707-40.021 40.021zm2.487 5.938L110.94 3.572l.707.707L68.23 47.696zm3.474 5.093L116.04 7.04l.707.707L71.705 52.79zm4.254 4.169 45.042-45.042.707.707L75.96 56.96zm5.1 3.468 43.416-43.416.707.707L81.06 60.427zm5.881 2.542 40.022-40.022.707.708L86.94 62.969zm7.151 1.276 34.153-34.153.707.707-34.153 34.153zm9.176-.648 24.323-24.325.707.708-24.324 24.324z" class="st0"/></g><path id="_1-232" d="M0 0h64v1H0z" class="st0" transform="translate(0 31.5)"/></g></g></svg>