<svg xmlns="http://www.w3.org/2000/svg" xml:space="preserve" id="图层_1" x="0" y="0" viewBox="0 0 130 77"><style>.st0{fill:#fff}</style><g id="页面-1"><g id="_x31_-353"><path d="M.5 9.509h1v14.7h-1zm128 0h1v14.7h-1z" class="st0"/><path d="M1 16.309h128v1H1zm63.5 16.8h1v27.4h-1z" class="st0"/><path d="M49.5 60.009h31v1h-31zm15.5-26.8c-9.2 0-16.6-7.4-16.6-16.6S55.8.009 65 .009s16.6 7.4 16.6 16.6-7.4 16.6-16.6 16.6m0-32.2c-8.6 0-15.6 7-15.6 15.6s7 15.6 15.6 15.6 15.6-7 15.6-15.6-7-15.6-15.6-15.6" class="st0"/><path d="M81.6 76.609h-1c0-5.6-3-10.7-7.8-13.5s-10.8-2.8-15.6 0-7.8 8-7.8 13.5h-1c0-5.9 3.2-11.4 8.3-14.4s11.5-3 16.6 0 8.3 8.5 8.3 14.4" class="st0"/></g></g></svg>