<svg xmlns="http://www.w3.org/2000/svg" xml:space="preserve" id="图层_1" x="0" y="0" viewBox="0 0 130 46"><style>.st0{fill:#fff}</style><g id="页面-1"><g id="_x31_-350"><g transform="translate(.5 .509)"><path id="路径_1_" d="m64.5 15 2.4 4.9 5.4.8-3.9 3.8.9 5.3-4.8-2.5-4.8 2.5.9-5.3-3.9-3.8 5.4-.8z" class="st0"/><path d="M59.7 30.3c-.1 0-.2 0-.3-.1-.2-.1-.2-.3-.2-.5l.9-5.1-3.7-3.6c-.1-.1-.2-.3-.1-.5s.2-.3.4-.3l5.1-.8 2.3-4.6c.2-.3.7-.3.9 0l2.3 4.6 5.1.8c.2 0 .3.2.4.3s0 .4-.1.5L69 24.6l.9 5.1c0 .2 0 .4-.2.5s-.4.1-.5 0l-4.6-2.4-4.6 2.4c-.2.1-.2.1-.3.1m4.8-3.5c.1 0 .2 0 .2.1l3.9 2.1-.7-4.4c0-.2 0-.3.1-.4l3.2-3.1-4.4-.6c-.2 0-.3-.1-.4-.3l-2-4-2 4c-.1.1-.2.2-.4.3l-4.2.5 3.2 3.1c.1.1.2.3.1.4l-.7 4.4 3.9-2.1z" class="st0"/></g><path d="M87.4 45.809H42.6c-.3 0-.5-.2-.5-.5V.509c0-.3.2-.5.5-.5h44.9c.3 0 .5.2.5.5v44.8c-.1.3-.3.5-.6.5m-44.3-1H87v-43.8H43.1zM.5 13.109h1v19.7h-1z" class="st0"/><path d="M1 22.409h41.6v1H1zm127.5-9.3h1v19.7h-1z" class="st0"/><path d="M87.4 22.409H129v1H87.4z" class="st0"/></g></g></svg>