<svg xmlns="http://www.w3.org/2000/svg" xml:space="preserve" id="图层_1" x="0" y="0" viewBox="0 0 130 129"><style>.st0{fill:#fff}</style><g id="页面-1"><g id="_x32_-007" transform="translate(1 .009)"><path id="路径" d="M38.2 18.4V36h-1V0H57v1H38.2v16.4h17.5v1z" class="st0"/><path id="形状" d="M63 36V0h9.4C78.3 0 82.8 1.6 86 4.7s4.8 7.6 4.8 13.3-1.6 10.2-4.9 13.3S78 36 72 36zm8.8-1c5.8 0 10.2-1.5 13.3-4.4s4.6-7.1 4.6-12.6q0-8.25-4.5-12.6c-3-2.9-7.3-4.4-13-4.4H64v34z" class="st0"/><path d="M32 128.5H0c-.3 0-.5-.2-.5-.5V48c0-.3.2-.5.5-.5h32c.3 0 .5.2.5.5v80c0 .3-.2.5-.5.5m-31.5-1h31v-79H.5zm127.5 1H96c-.3 0-.5-.2-.5-.5V48c0-.3.2-.5.5-.5h32c.3 0 .5.2.5.5v80c0 .3-.2.5-.5.5m-31.5-1h31v-79h-31z" class="st0"/><path d="M96 128.5c-.1 0-.3-.1-.4-.2l-32-40q-.15-.3 0-.6l32-40c.1-.2.4-.2.6-.2.2.1.3.3.3.5v80c0 .2-.1.4-.3.5zM64.6 88l30.9 38.6V49.4z" class="st0"/><path d="M32 128.5h-.2c-.2-.1-.3-.3-.3-.5V48c0-.2.1-.4.3-.5s.4 0 .6.2l32 40q.15.3 0 .6l-32 40c-.1.1-.3.2-.4.2m.5-79.1v77.1L63.4 88z" class="st0"/></g></g></svg>