<svg xmlns="http://www.w3.org/2000/svg" xml:space="preserve" id="图层_1" x="0" y="0" viewBox="0 0 130 129"><style>.st0{fill:#fff}</style><g id="页面-1"><g id="_x32_-005" transform="translate(1 .009)"><path id="形状" d="M49.3 17.1c2.6.1 5.1 1.2 7 2.9 1.7 1.6 2.6 3.8 2.5 6.1.1 2.9-1.3 5.7-3.7 7.3-2.5 1.7-6.1 2.5-10.6 2.5H36V0h8.3c4 0 7.1.7 9.3 2.2C55.7 3.6 57 6 56.8 8.6c0 2-.7 4-2.1 5.5-1.4 1.6-3.4 2.6-5.5 2.9v.1zM37.1 1v15.6h8.5c2.7.1 5.3-.6 7.5-2.1 1.8-1.4 2.9-3.5 2.8-5.8.1-2.3-1.1-4.5-3-5.7-2-1.3-4.9-2-8.6-2zm7.1 34c4.3 0 7.7-.8 10-2.3 2.3-1.4 3.6-3.9 3.5-6.6.1-2.5-1.1-4.9-3.2-6.4-2.2-1.5-5.2-2.2-9-2.2H37V35z" class="st0"/><path id="形状_1_" d="M65.5 36V0h9.4c5.9 0 10.5 1.6 13.7 4.7s4.8 7.6 4.8 13.3c0 5.8-1.6 10.2-4.9 13.3s-7.9 4.7-14 4.7zm8.8-1c5.8 0 10.2-1.5 13.3-4.4s4.6-7.1 4.7-12.6q0-8.25-4.5-12.6c-3-2.9-7.3-4.4-13-4.4h-8.2v34z" class="st0"/><path d="M32 128.5H0c-.3 0-.5-.2-.5-.5V48c0-.3.2-.5.5-.5h32c.3 0 .5.2.5.5v80c0 .3-.2.5-.5.5m-31.5-1h31v-79H.5zm127.5 1H96c-.3 0-.5-.2-.5-.5V48c0-.3.2-.5.5-.5h32c.3 0 .5.2.5.5v80c0 .3-.2.5-.5.5m-31.5-1h31v-79h-31z" class="st0"/><path d="M96 128.5c-.1 0-.3-.1-.4-.2l-32-40q-.15-.3 0-.6l32-40c.1-.2.4-.2.6-.2.2.1.3.3.3.5v80c0 .2-.1.4-.3.5zM64.6 88l30.9 38.6V49.4z" class="st0"/><path d="M32 128.5h-.2c-.2-.1-.3-.3-.3-.5V48c0-.2.1-.4.3-.5s.4 0 .6.2l32 40q.15.3 0 .6l-32 40c-.1.1-.3.2-.4.2m.5-79.1v77.1L63.4 88z" class="st0"/></g></g></svg>