<svg xmlns="http://www.w3.org/2000/svg" xml:space="preserve" id="图层_1" x="0" y="0" viewBox="0 0 130 70"><style>.st0{fill:#fff}</style><g id="页面-1"><g id="_x32_-010" transform="translate(1 .509)"><path id="形状" d="M48.6 33.1c2.6.2 5.1 1.2 7 2.9 1.7 1.6 2.6 3.8 2.5 6.1.1 2.9-1.3 5.7-3.8 7.3-2.5 1.7-6 2.5-10.6 2.5h-8.5V16h8.3c4 0 7.1.7 9.3 2.2 2.1 1.4 3.3 3.8 3.2 6.4 0 2-.7 4-2.1 5.5-1.2 1.6-3.2 2.6-5.3 3M36.4 17v15.6h8.5c2.7.1 5.3-.6 7.5-2.1 1.8-1.4 2.9-3.5 2.8-5.8.1-2.3-1.1-4.5-3-5.7-2-1.3-4.9-2-8.6-2zm7.1 34c4.4 0 7.7-.8 10.1-2.3 2.3-1.4 3.6-3.9 3.5-6.5.1-2.5-1.1-4.9-3.2-6.3-2.2-1.5-5.1-2.2-9-2.2h-8.4V51z" class="st0"/><path id="形状_1_" d="M64.9 52V16h9.4c5.9 0 10.5 1.6 13.7 4.7s4.8 7.6 4.8 13.3c0 5.8-1.6 10.2-4.9 13.3s-8 4.7-14.1 4.7zm8.8-1c5.8 0 10.2-1.5 13.3-4.4s4.6-7.1 4.6-12.6q0-8.25-4.5-12.6c-3-2.9-7.4-4.4-13-4.4H66v34z" class="st0"/><path d="M128 68.5H0c-.3 0-.5-.2-.5-.5V0c0-.3.2-.5.5-.5h128c.3 0 .5.2.5.5v68c0 .3-.2.5-.5.5M.5 67.5h127V.5H.5z" class="st0"/></g></g></svg>