<svg xmlns="http://www.w3.org/2000/svg" xml:space="preserve" id="图层_1" x="0" y="0" viewBox="0 0 130 70"><style>.st0{fill:#fff}</style><g id="页面-1"><g id="_x32_-011" transform="translate(1 .509)"><path id="路径" d="M38.2 34.4V52h-1V16H57v1H38.2v16.4h17.5v1z" class="st0"/><path id="形状" d="M63 52V16h9.4c5.9 0 10.5 1.6 13.7 4.7s4.8 7.6 4.8 13.3c0 5.8-1.6 10.2-4.9 13.3S78 52 71.9 52zm8.8-1c5.8 0 10.2-1.5 13.3-4.4s4.6-7.1 4.6-12.6q0-8.25-4.5-12.6c-3-2.9-7.4-4.4-13-4.4H64v34z" class="st0"/><path d="M128 68.5H0c-.3 0-.5-.2-.5-.5V0c0-.3.2-.5.5-.5h128c.3 0 .5.2.5.5v68c0 .3-.2.5-.5.5M.5 67.5h127V.5H.5z" class="st0"/></g></g></svg>