<svg xmlns="http://www.w3.org/2000/svg" xml:space="preserve" id="图层_1" x="0" y="0" viewBox="0 0 130 88"><style>.st0{fill:#fff}</style><g id="页面-1"><g id="_x32_-014" transform="translate(1 .509)"><path d="M64 86.5C28.4 86.5-.5 67-.5 43S28.4-.5 64-.5 128.5 19 128.5 43 99.6 86.5 64 86.5m0-86C29 .5.5 19.6.5 43S29 85.5 64 85.5s63.5-19.1 63.5-42.5S99 .5 64 .5" class="st0"/><path id="路径" d="M62.8 56.8c-1.3 1.6-2.9 2.8-4.7 3.6-1.9.9-4 1.3-6.2 1.3-3 .1-5.9-.7-8.5-2.3-2.4-1.6-4.4-3.9-5.5-6.5-1.3-3.2-2-6.6-1.9-10 0-3.4.7-6.8 2-9.9 1.2-2.6 3.1-4.9 5.5-6.4 2.5-1.5 5.5-2.3 8.4-2.2 2 0 4 .4 5.9 1.3s3.6 2.1 5 3.6l-.8.6c-1.3-1.4-2.9-2.6-4.7-3.4-1.7-.8-3.6-1.2-5.5-1.2-2.7 0-5.4.7-7.8 2.2q-3.45 2.25-5.1 6c-1.3 2.9-1.9 6.1-1.8 9.3-.1 3.3.5 6.5 1.8 9.5 1.1 2.5 2.8 4.7 5.1 6.2s5.1 2.2 7.9 2.2c3.9.2 7.7-1.5 10.1-4.7z" class="st0"/><path id="形状" d="M78.7 25c4.2 0 7.5.9 9.7 2.7 2.3 1.9 3.6 4.7 3.4 7.7.2 3-1.1 5.8-3.4 7.7-2.3 1.8-5.5 2.7-9.7 2.7h-8.6V61h-1V25zm-.1 19.8c3.9 0 7-.8 9.1-2.4s3.3-4.2 3.2-6.9c.2-2.7-1-5.3-3.2-7-2.1-1.6-5.1-2.4-9.1-2.4h-8.4v18.8h8.4z" class="st0"/></g></g></svg>