<svg xmlns="http://www.w3.org/2000/svg" xml:space="preserve" id="图层_1" x="0" y="0" viewBox="0 0 130 70"><style>.st0{fill:#fff}</style><g id="页面-1"><g id="_x32_-016" transform="translate(1 .509)"><path id="形状" d="M45.2 52h-1.1l-4.8-13.2H23.7L18.9 52h-1.1l13.1-36h1.2zM31.4 17.6l-7.3 20.2h14.8z" class="st0"/><path id="路径" d="M73.3 32.8V16h1v36h-1V33.8H51.1V52h-1V16h1v16.8z" class="st0"/><path id="形状_1_" d="M82.4 52V16h9.4c5.9 0 10.5 1.6 13.7 4.7s4.8 7.6 4.8 13.3c0 5.8-1.6 10.2-4.9 13.3s-7.9 4.7-14 4.7zm8.8-1c5.8 0 10.2-1.5 13.3-4.4s4.6-7.1 4.6-12.6q0-8.25-4.5-12.6c-3-2.9-7.3-4.4-13-4.4h-8.1v34z" class="st0"/><path d="M128 68.5H0c-.3 0-.5-.2-.5-.5V0c0-.3.2-.5.5-.5h128c.3 0 .5.2.5.5v68c0 .3-.2.5-.5.5M.5 67.5h127V.5H.5z" class="st0"/></g></g></svg>