<svg xmlns="http://www.w3.org/2000/svg" xml:space="preserve" id="图层_1" x="0" y="0" viewBox="0 0 130 70"><style>.st0{fill:#fff}</style><g id="页面-1"><g id="_x32_-012" transform="translate(1 .509)"><path id="路径" d="M43.5 32.4V15.7h1v36h-1V33.4H21.3v18.3h-1.1v-36h1.1v16.7z" class="st0"/><path id="路径_1_" d="M70.6 49.8c1.7-1 3.1-2.5 3.9-4.4.9-2.1 1.4-4.3 1.3-6.6V15.7h1.1v23.6c.1 2.4-.4 4.8-1.5 7-.9 1.9-2.4 3.5-4.2 4.6-4 2.1-8.8 2.1-12.9 0-1.8-1.1-3.3-2.7-4.2-4.6-1-2.2-1.6-4.6-1.5-7V15.7h1.1v23.1c-.1 2.3.4 4.5 1.3 6.6.8 1.8 2.2 3.3 3.9 4.4 3.6 2 8.1 2 11.7 0" class="st0"/><path id="形状" d="M98.2 32.8c2.6.2 5.1 1.2 7 2.9 1.7 1.6 2.6 3.8 2.5 6.1.1 2.9-1.3 5.7-3.7 7.3-2.5 1.7-6 2.5-10.6 2.5h-8.5v-36h8.3c4 0 7.1.7 9.3 2.2 2.1 1.4 3.4 3.8 3.2 6.4 0 2-.7 4-2.1 5.5-1.3 1.7-3.2 2.7-5.4 3.1M86 16.7v15.6h8.5c2.7.1 5.3-.6 7.5-2.1 1.8-1.4 2.9-3.5 2.8-5.8.1-2.3-1.1-4.5-3-5.7-2-1.3-4.9-2-8.6-2zm7.1 34c4.3 0 7.7-.8 10.1-2.3 2.3-1.4 3.6-3.9 3.5-6.6.1-2.5-1.1-4.9-3.2-6.3-2.2-1.5-5.2-2.2-9-2.2H86v17.4z" class="st0"/><path d="M128 68.5H0c-.3 0-.5-.2-.5-.5V0c0-.3.2-.5.5-.5h128c.3 0 .5.2.5.5v68c0 .3-.2.5-.5.5M.5 67.5h127V.5H.5z" class="st0"/></g></g></svg>