<svg xmlns="http://www.w3.org/2000/svg" xml:space="preserve" id="图层_1" x="0" y="0" viewBox="0 0 130 70"><style>.st0{fill:#fff}</style><g id="页面-1"><g id="_x32_-015" transform="translate(1 .509)"><path id="路径" d="M35.6 15.7v35h19.5v1H34.6v-36z" class="st0"/><path id="路径_1_" d="M61.1 15.7v36h-1v-36z" class="st0"/><path id="路径_2_" d="M87.2 49.8c1.7-1 3-2.5 3.9-4.4.9-2.1 1.4-4.3 1.4-6.6V15.7h1v23.6c.1 2.4-.4 4.8-1.5 7-.9 1.9-2.4 3.5-4.2 4.6-4 2.1-8.8 2.1-12.9 0-1.8-1.1-3.3-2.7-4.2-4.6-1-2.2-1.5-4.6-1.5-7V15.7h1v23.1c0 2.3.4 4.5 1.4 6.6.8 1.8 2.2 3.3 3.9 4.4 3.5 2 8 2 11.7 0" class="st0"/><path d="M128 68.5H0c-.3 0-.5-.2-.5-.5V0c0-.3.2-.5.5-.5h128c.3 0 .5.2.5.5v68c0 .3-.2.5-.5.5M.5 67.5h127V.5H.5z" class="st0"/></g></g></svg>