<svg xmlns="http://www.w3.org/2000/svg" xml:space="preserve" id="图层_1" x="0" y="0" viewBox="0 0 130 73"><style>.st0{fill:#fff}</style><g id="页面-1"><g id="_x32_-029"><path d="M90.8 72.209H1c-.3 0-.5-.2-.5-.5V.509c0-.3.2-.5.5-.5h89.8c.3 0 .5.2.5.5v71.2c0 .2-.2.5-.5.5m-89.3-1h88.8v-70.2H1.5z" class="st0"/><path d="M42.5 52.709H26.4c-.3 0-.5-.2-.5-.5v-32.2c0-.3.2-.5.5-.5h16.1c.3 0 .5.2.5.5v32.2c0 .2-.2.5-.5.5m-15.6-1H42v-31.2H26.9z" class="st0"/><path d="M90.8 72.209h-.2l-48.3-19.6c-.2-.1-.3-.3-.3-.5v-32.1c0-.2.1-.4.3-.5L90.6.009c.2-.1.3 0 .5 0 .1.1.2.2.2.4v71.2c0 .2-.1.3-.2.4s-.2.2-.3.2M43 51.809l47.3 19.1v-69.7L43 20.309z" class="st0"/><g transform="translate(1 .509)"><path id="路径_2_" d="m89.8 37.1 38.2-2H51.5z" class="st0"/><path d="M89.8 37.6s-.1 0 0 0l-38.3-2.1c-.3 0-.5-.2-.5-.5s.2-.5.5-.5H128c.3 0 .5.2.5.5s-.2.5-.5.5zm-19.7-2 19.7 1.1 19.7-1.1z" class="st0"/></g></g></g></svg>