<svg xmlns="http://www.w3.org/2000/svg" xml:space="preserve" id="图层_1" x="0" y="0" viewBox="0 0 128 23"><style>.st0{fill:#fff}</style><g id="页面-1"><g id="_x32_-038" transform="translate(.5 .509)"><path id="路径" d="M84.2 22h-.9V9.9h1l4.5 8.3h.1l4.5-8.3h1V22h-.9V11.6h-.1l-4.2 7.9h-.6l-4.3-7.8h-.1z" class="st0"/><path id="路径_1_" d="M103.7 20.3q.9-1.2.9-2.7V9.9h.9v7.8c0 .8-.2 1.6-.5 2.4-.3.7-.8 1.2-1.5 1.6-1.4.7-3.1.7-4.5 0-.6-.4-1.1-.9-1.5-1.6s-.6-1.5-.5-2.4V9.9h1v7.6c-.1 1 .3 2 .9 2.8.6.7 1.5 1.1 2.4 1 .9 0 1.7-.4 2.4-1" class="st0"/><path id="路径_2_" d="M112 22h-1V10.7h-3.9v-.8h8.8v.8H112z" class="st0"/><path id="形状" d="M119.1 21.4c-.8-.5-1.5-1.3-1.8-2.2-.4-1-.7-2.2-.6-3.3q0-1.65.6-3.3c.4-.9 1-1.7 1.8-2.2 1.7-1 3.8-1 5.5 0 .8.5 1.5 1.3 1.8 2.2.5 1 .7 2.2.7 3.3s-.2 2.2-.7 3.3c-.4.9-1 1.7-1.8 2.2-1.7 1-3.8 1-5.5 0m5-.8c.7-.5 1.2-1.1 1.5-1.9.4-.9.6-1.9.5-2.8 0-1-.2-1.9-.5-2.8-.3-.8-.8-1.4-1.5-1.9-1.4-.9-3.1-.9-4.5 0-.7.5-1.2 1.1-1.5 1.9-.4.9-.5 1.9-.5 2.8 0 1 .2 1.9.5 2.8.3.8.8 1.4 1.5 1.9 1.4.9 3.1.9 4.5 0" class="st0"/><path d="M0 9h61.6v1H0z" class="st0"/><path d="M71.5 20.3c-5.7 0-10.4-4.7-10.4-10.4S65.8-.5 71.5-.5 81.9 4.2 81.9 9.9c0 5.8-4.6 10.4-10.4 10.4m0-19.8c-5.2 0-9.4 4.2-9.4 9.4s4.2 9.4 9.4 9.4 9.4-4.2 9.4-9.4S76.7.5 71.5.5" class="st0"/></g></g></svg>