<svg xmlns="http://www.w3.org/2000/svg" xml:space="preserve" id="图层_1" x="0" y="0" viewBox="0 0 128 29"><style>.st0{fill:#fff}</style><g id="页面-1"><g id="_x32_-034" transform="translate(.5 .509)"><path id="路径" d="M103.9 27.9h-1.4V11.1h-5.8V9.8h13.1v1.3h-5.9z" class="st0"/><path id="形状" d="M114.7 27.1c-1.2-.8-2.2-2-2.8-3.3-.7-1.5-1-3.2-1-4.9s.3-3.4 1-4.9c.6-1.3 1.5-2.5 2.8-3.3 2.5-1.6 5.7-1.6 8.2 0 1.2.8 2.2 2 2.8 3.3.7 1.5 1 3.2 1 4.9s-.3 3.4-1 4.9c-.6 1.3-1.5 2.5-2.8 3.3-2.5 1.6-5.7 1.6-8.2 0m7.4-1.2c1-.7 1.8-1.7 2.3-2.8.6-1.3.8-2.8.8-4.2 0-1.5-.2-2.9-.8-4.2-.5-1.1-1.3-2.1-2.3-2.9-2-1.3-4.7-1.3-6.7 0-1 .7-1.8 1.7-2.2 2.9-.6 1.3-.8 2.8-.8 4.2 0 1.5.2 2.9.8 4.2.5 1.1 1.2 2.1 2.2 2.8 2.1 1.4 4.7 1.4 6.7 0" class="st0"/><path d="M0 9h61.6v1H0z" class="st0"/><path d="M71.5 20.3c-5.7 0-10.4-4.7-10.4-10.4S65.8-.5 71.5-.5 81.9 4.2 81.9 9.9c0 5.8-4.6 10.4-10.4 10.4m0-19.8c-5.2 0-9.4 4.2-9.4 9.4s4.2 9.4 9.4 9.4 9.4-4.2 9.4-9.4S76.7.5 71.5.5" class="st0"/></g></g></svg>