<svg xmlns="http://www.w3.org/2000/svg" xml:space="preserve" id="图层_1" x="0" y="0" viewBox="0 0 130 82"><style>.st0{fill:#fff}</style><g id="页面-1"><g id="_x32_-046"><path d="M128.5 81.009H1c-.3 0-.5-.2-.5-.5v-80c0-.3.2-.5.5-.5h127.5c.3 0 .5.2.5.5v80c0 .3-.2.5-.5.5m-127-1H128v-79H1.5z" class="st0"/><g transform="translate(1 .509)"><path id="路径_1_" d="m64 24.8 4.9 10L80 36.4l-8 7.8 1.9 11L64 50l-9.9 5.2 1.9-11-8-7.8 11.1-1.6z" class="st0"/><path d="M73.9 55.7c-.1 0-.2 0-.2-.1l-9.7-5-9.7 5.1c-.2.1-.4.1-.5 0-.2-.1-.2-.3-.2-.5l1.8-10.8-7.8-7.6c-.1-.1-.2-.3-.1-.5s.2-.3.4-.3l10.8-1.6 4.8-9.8c.2-.3.7-.3.9 0l4.8 9.8L80 36c.2 0 .3.2.4.3.1.2 0 .4-.1.5l-7.8 7.6 1.8 10.8c0 .2 0 .4-.2.5zM64 49.5c.1 0 .2 0 .2.1l9 4.7-1.7-10c0-.2 0-.3.1-.4l7.3-7.1-10.1-1.5c-.2 0-.3-.1-.4-.3L64 25.9 59.5 35c-.1.1-.2.2-.4.3L49 36.8l7.3 7.1c.1.1.2.3.1.4l-1.7 10 9-4.7c.1-.1.2-.1.3-.1" class="st0"/></g></g></g></svg>