<svg xmlns="http://www.w3.org/2000/svg" xml:space="preserve" id="图层_1" x="0" y="0" viewBox="0 0 130 130"><style>.st0{fill:#fff}</style><g id="页面-1"><g id="_x32_-047"><path d="M129 129.009H1c-.3 0-.5-.2-.5-.5v-128c0-.3.2-.5.5-.5h128c.3 0 .5.2.5.5v128c0 .3-.2.5-.5.5m-127.5-1h127v-127H1.5z" class="st0"/><g transform="translate(1 .509)"><circle id="椭圆形_1_" cx="64" cy="93" r="6" class="st0"/><path d="M64 99.5c-3.6 0-6.5-2.9-6.5-6.5s2.9-6.5 6.5-6.5 6.5 2.9 6.5 6.5-2.9 6.5-6.5 6.5m0-12c-3 0-5.5 2.5-5.5 5.5s2.5 5.5 5.5 5.5 5.5-2.5 5.5-5.5-2.5-5.5-5.5-5.5" class="st0"/></g><path d="M64.5 32.509h1v61h-1z" class="st0"/></g></g></svg>