<svg xmlns="http://www.w3.org/2000/svg" xml:space="preserve" id="图层_1" x="0" y="0" viewBox="0 0 129 74"><style>.st0{fill:#fff}</style><g id="页面-1"><g id="_x32_-048" transform="translate(1 .509)"><path d="M72 72.5H0c-.3 0-.5-.2-.5-.5V0c0-.3.2-.5.5-.5h72c.3 0 .5.2.5.5v72c0 .3-.2.5-.5.5m-71.5-1h71V.5H.5z" class="st0"/><circle id="椭圆形_1_" cx="36" cy="52.3" r="6" class="st0"/><path d="M36 58.8c-3.6 0-6.5-2.9-6.5-6.5s2.9-6.5 6.5-6.5 6.5 2.9 6.5 6.5-2.9 6.5-6.5 6.5m0-12c-3 0-5.5 2.5-5.5 5.5s2.5 5.5 5.5 5.5 5.5-2.5 5.5-5.5-2.5-5.5-5.5-5.5" class="st0"/><path d="M35.5 18h1v34.3h-1z" class="st0"/><path id="路径_1_" d="M107.8 72h-.9V42h1.3L127 70.9h.1V42h.9v30h-1.2l-18.9-28.9h-.1z" class="st0"/></g></g></svg>