<svg xmlns="http://www.w3.org/2000/svg" xml:space="preserve" id="图层_1" x="0" y="0" viewBox="0 0 129 56"><style>.st0{fill:#fff}</style><g id="页面-1"><g id="_x32_-041"><path d="M83.3 55.209H37.6c-.1 0-.2 0-.3-.1L.7 22.009c-.1-.1-.2-.2-.2-.4 0-.1.1-.3.2-.4L24.2.109c.2-.2.5-.2.7 0l24.5 23.1h33.9c.3 0 .5.2.5.5v30.9c0 .3-.2.6-.5.6m-45.5-1h45v-30H49.2c-.1 0-.2 0-.3-.1l-24.3-22.9-22.9 20.4z" class="st0"/><path d="M42.1 38.309H129v1H42.1z" class="st0"/><path d="m4.155 3.704.687-.727 37.59 35.492-.686.727z" class="st0"/></g></g></svg>