<svg xmlns="http://www.w3.org/2000/svg" xml:space="preserve" id="图层_1" x="0" y="0" viewBox="0 0 129 74"><style>.st0{fill:#fff}</style><g id="页面-1"><g id="_x32_-056"><path d="M100.44 73.25h-72c-.3 0-.5-.2-.5-.5v-72c0-.3.2-.5.5-.5h72c.3 0 .5.2.5.5v72c0 .3-.2.5-.5.5m-71.5-1h71v-71h-71z" class="st0"/><path d="M43.64 59.25c-5.4 0-9.8-4.4-9.8-9.8s4.4-9.8 9.8-9.8 9.8 4.4 9.8 9.8-4.4 9.8-9.8 9.8m0-18.6c-4.8 0-8.8 3.9-8.8 8.8 0 4.8 3.9 8.8 8.8 8.8s8.8-3.9 8.8-8.8c0-4.8-3.9-8.8-8.8-8.8" class="st0"/><path d="m51.508 44.46 45.177-28.096.528.85-45.177 28.094zm1.37 3.024 47.488-11.253.23.973L53.11 48.457zm-.189 4.675.096-.995 44.39 4.32-.096.994zM.44 36.25h28v1h-28z" class="st0"/><path d="M100.44 36.25h28v1h-28z" class="st0"/></g></g></svg>