<svg xmlns="http://www.w3.org/2000/svg" xml:space="preserve" id="图层_1" x="0" y="0" viewBox="0 0 130 130"><style>.st0{fill:#fff}</style><g id="页面-1"><g id="_x32_-055"><path d="M128.94 129.25H.94c-.3 0-.5-.2-.5-.5V.75c0-.3.2-.5.5-.5h128c.3 0 .5.2.5.5v128c0 .3-.2.5-.5.5m-127.5-1h127v-127h-127z" class="st0"/><path d="M31.74 94.65c-7.4 0-13.5-6-13.5-13.5 0-7.4 6-13.5 13.5-13.5s13.5 6 13.5 13.5c-.1 7.4-6.1 13.5-13.5 13.5m0-26c-6.9 0-12.5 5.6-12.5 12.5s5.6 12.5 12.5 12.5 12.5-5.6 12.5-12.5c-.1-6.9-5.7-12.5-12.5-12.5" class="st0"/><path d="m42.698 74.285 63.265-39.343.528.849-63.265 39.343zm1.858 4.36 66.463-15.75.23.973-66.463 15.75zm-.271 6.063.097-.995 62.107 6.03-.097.995z" class="st0"/></g></g></svg>