<svg xmlns="http://www.w3.org/2000/svg" xml:space="preserve" id="图层_1" x="0" y="0" viewBox="0 0 130 130"><style>.st0{fill:#fff}</style><g id="页面-1"><g id="_x32_-058"><g transform="translate(.94 .75)"><circle id="椭圆形_1_" cx="96" cy="89.2" r="6" class="st0"/><path d="M96 95.7c-3.6 0-6.5-2.9-6.5-6.5s2.9-6.5 6.5-6.5 6.5 2.9 6.5 6.5-2.9 6.5-6.5 6.5m0-12c-3 0-5.5 2.5-5.5 5.5s2.5 5.5 5.5 5.5 5.5-2.5 5.5-5.5-2.5-5.5-5.5-5.5" class="st0"/></g><path d="M96.44 35.55h1v54.3h-1z" class="st0"/><path d="M128.94 129.25H.94c-.3 0-.5-.2-.5-.5V.75c0-.3.2-.5.5-.5h128c.3 0 .5.2.5.5v128c0 .3-.2.5-.5.5m-127.5-1h127v-127h-127z" class="st0"/><path d="M64.44.75h1v128h-1zm-6 92.9-23.5-56.4-27.6 56.1-.9-.4 28-57c.1-.2.3-.3.5-.3s.4.1.4.3l24 57.3z" class="st0"/></g></g></svg>