<svg xmlns="http://www.w3.org/2000/svg" xml:space="preserve" id="图层_1" x="0" y="0" viewBox="0 0 129 74"><style>.st0{fill:#fff}</style><g id="页面-1"><g id="_x32_-059"><path d="M100.44 73.25h-72c-.3 0-.5-.2-.5-.5v-72c0-.3.2-.5.5-.5h72c.3 0 .5.2.5.5v72c0 .3-.2.5-.5.5m-71.5-1h71v-71h-71z" class="st0"/><path d="M28.44 46.75h72v1h-72zm21-31h30v1h-30zm-49 20.5h28v1h-28zm100 .5h28v1h-28z" class="st0"/><g transform="translate(.44 .75)"><circle id="椭圆形_1_" cx="64" cy="58.3" r="6" class="st0"/><path d="M64 64.8c-3.6 0-6.5-2.9-6.5-6.5s2.9-6.5 6.5-6.5 6.5 2.9 6.5 6.5-2.9 6.5-6.5 6.5m0-12c-3 0-5.5 2.5-5.5 5.5s2.5 5.5 5.5 5.5 5.5-2.5 5.5-5.5-2.5-5.5-5.5-5.5" class="st0"/></g><path d="M63.94 1.25h1v57.8h-1z" class="st0"/></g></g></svg>