<svg xmlns="http://www.w3.org/2000/svg" xml:space="preserve" id="图层_1" x="0" y="0" viewBox="0 0 130 130"><style>.st0{fill:#fff}</style><g id="页面-1"><g id="_x32_-068"><path d="M128.94 129.25H.94c-.3 0-.5-.2-.5-.5V.75c0-.3.2-.5.5-.5h128c.3 0 .5.2.5.5v128c0 .3-.2.5-.5.5m-127.5-1h127v-127h-127z" class="st0"/><path d="M64.94 99.95c-19.4 0-35.2-15.8-35.2-35.2s15.8-35.2 35.2-35.2 35.2 15.8 35.2 35.2-15.8 35.2-35.2 35.2m0-69.4c-18.8 0-34.2 15.3-34.2 34.2 0 18.8 15.3 34.2 34.2 34.2s34.2-15.4 34.2-34.2-15.4-34.2-34.2-34.2" class="st0"/><path d="M64.94 80.55c-8.7 0-15.8-7.1-15.8-15.8s7.1-15.8 15.8-15.8 15.8 7.1 15.8 15.8-7.1 15.8-15.8 15.8m0-30.6c-8.2 0-14.8 6.7-14.8 14.8 0 8.2 6.7 14.8 14.8 14.8s14.8-6.6 14.8-14.8-6.6-14.8-14.8-14.8" class="st0"/></g></g></svg>