<svg xmlns="http://www.w3.org/2000/svg" xml:space="preserve" id="图层_1" x="0" y="0" viewBox="0 0 130 130"><style>.st0{fill:#fff}</style><g id="页面-1"><g id="_x32_-067"><path d="M128.94 129.25H.94c-.3 0-.5-.2-.5-.5V.75c0-.3.2-.5.5-.5h128c.3 0 .5.2.5.5v128c0 .3-.2.5-.5.5m-127.5-1h127v-127h-127z" class="st0"/><path d="M111.64 103.95h-89.4c-.2 0-.4-.1-.4-.3-.1-.2-.1-.4 0-.5l28-41.3.8.6-27.5 40.6h87.5l-24.8-39.4.8-.5 25.3 40c.1.2.1.3 0 .5q0 .3-.3.3" class="st0"/><path d="M24.54 74.55c-1.8 0-3.1-.7-3.9-1.5-4.6-4.5-1.8-18.7 3.8-27.1 5.8-8.7 21.4-28.8 42.3-28.8 15.5 0 30.7 11 45.2 32.6 2.4 3.6 5.3 12.5 1.2 17.2-4.2 4.8-14.2 3.3-29.8-4.4-16.6-5.1-34.3-2.3-48.6 7.7-4.5 3.2-7.8 4.3-10.2 4.3m42.3-56.4c-20.4 0-35.8 19.8-41.5 28.4-5.3 7.9-8.2 21.7-4 25.8 2.4 2.3 6.8 1.3 12.8-2.9 14.5-10.2 32.6-13 49.5-7.8 18.9 9.4 26 7.8 28.7 4.7 3.6-4 1.1-12.4-1.3-16-14.1-21.4-29.1-32.2-44.2-32.2" class="st0"/></g></g></svg>