<svg xmlns="http://www.w3.org/2000/svg" xml:space="preserve" id="图层_1" x="0" y="0" viewBox="0 0 130 130"><style>.st0{fill:#fff}</style><g id="页面-1"><g id="_x32_-065"><path d="M128.94 129.25H.94c-.3 0-.5-.2-.5-.5V.75c0-.3.2-.5.5-.5h128c.3 0 .5.2.5.5v128c0 .3-.2.5-.5.5m-127.5-1h127v-127h-127z" class="st0"/><path d="M64.94 65.25c-23.1 0-41.8-18.8-41.8-41.8h1c0 22.5 18.3 40.8 40.8 40.8s40.8-18.3 40.8-40.8h1c0 23-18.7 41.8-41.8 41.8" class="st0"/><path d="M64.44 64.75h1v64h-1z" class="st0"/></g></g></svg>