<svg xmlns="http://www.w3.org/2000/svg" xml:space="preserve" id="图层_1" x="0" y="0" viewBox="0 0 130 62"><style>.st0{fill:#fff}</style><g id="页面-1"><g id="_x32_-074"><path d="M62.44 38.65h-7.6c-.3 0-.5-.2-.5-.5v-14.8c0-.3.2-.5.5-.5h7.6c.3 0 .5.2.5.5v14.8c0 .3-.2.5-.5.5m-7.1-1h6.6v-13.8h-6.6z" class="st0"/><path d="M75.04 51.25c-.1 0-.3-.1-.4-.1l-12.5-12.6c-.1-.1-.1-.2-.1-.4v-14.8c0-.1.1-.3.1-.4l12.6-12.6c.1-.1.4-.2.5-.1.2.1.3.3.3.5v40c0 .2-.1.4-.3.5zm-12.1-13.3 11.6 11.6v-37.6l-11.6 11.6z" class="st0"/><path d="M128.94 61.25H.94c-.2 0-.3-.1-.4-.3s-.1-.3 0-.5l36.4-60c.1-.1.3-.2.4-.2h57c.2 0 .3.1.4.3l34.6 60c.1.2.1.3 0 .5-.1.1-.2.2-.4.2m-127.1-1h126.2l-34-59h-56.4z" class="st0"/></g></g></svg>