<svg xmlns="http://www.w3.org/2000/svg" xml:space="preserve" id="图层_1" x="0" y="0" viewBox="0 0 129 83"><style>.st0{fill:#fff}</style><g id="页面-1"><g id="_x32_-079" transform="translate(.94 .75)"><g id="_2-078"><path d="M127.5 82.05c-.1 0-.2 0-.2-.1l-64-32.2c-.2-.1-.3-.2-.3-.4s.1-.4.3-.4l64-31.8c.2-.1.3-.1.5 0 .1.1.2.3.2.4v64c0 .2-.1.3-.2.4s-.2.1-.3.1m-62.9-32.7 62.4 31.4v-62.4z" class="st0"/><path d="M0 82.05c-.1 0-.2 0-.3-.1s-.2-.3-.2-.4v-64c0-.2.1-.3.2-.4s.3-.1.5 0l64 31.8c.2.1.3.3.3.4 0 .2-.1.4-.3.4l-64 32.2c0 .1-.1.1-.2.1m.5-63.7v62.4l62.4-31.4z" class="st0"/></g><path d="M64.5 49.6h-1V0c0-.3.2-.5.5-.5h31.5v1h-31z" class="st0"/></g></g></svg>