<svg xmlns="http://www.w3.org/2000/svg" xml:space="preserve" id="图层_1" x="0" y="0" viewBox="0 0 130 62"><style>.st0{fill:#fff}</style><g id="页面-1"><g id="_x32_-082" transform="translate(.94 .75)"><path id="路径" d="M55 58.5h10.8v1.1H53.5v-1l6.9-7.7c1.2-1.3 2.2-2.6 3.1-4.1.5-1 .8-2.1.9-3.2.1-1.2-.4-2.3-1.3-3.2-.9-.8-2.1-1.2-3.4-1.1-2.4 0-4.2 1.2-5.2 3.7l-1-.5c.5-1.3 1.4-2.4 2.5-3.2 1.1-.7 2.4-1.1 3.7-1.1 1.5-.1 3 .4 4.1 1.4s1.7 2.4 1.6 3.9c0 1.3-.4 2.5-1 3.6-.9 1.6-2 3.1-3.2 4.4z" class="st0"/><path id="形状" d="M72.3 59.2c-1-.5-1.8-1.2-2.3-2.1-1-1.7-1.1-3.8-.2-5.6.8-1.5 2.2-2.6 3.9-3v-.1c-1.1-.2-2-.8-2.6-1.7-.7-.9-1.1-2.1-1.1-3.2 0-1 .2-1.9.7-2.8.5-.8 1.2-1.5 2.1-1.9.9-.5 2-.7 3-.7s2.1.2 3 .7c.8.4 1.5 1.1 2 1.9s.8 1.8.7 2.8c0 1.2-.3 2.3-1.1 3.2-.6.9-1.6 1.4-2.6 1.6v.1c.8.2 1.6.6 2.2 1.1.7.5 1.2 1.2 1.6 2s.6 1.7.6 2.6c0 1.1-.3 2.1-.8 3-.6.9-1.4 1.6-2.3 2.1-2.1 1-4.6 1-6.8 0m6.2-.9c1.7-.8 2.7-2.6 2.7-4.4 0-1.9-1.1-3.6-2.8-4.4s-3.7-.8-5.4 0c-.8.4-1.5 1-2 1.7-1 1.6-1 3.7 0 5.3.5.8 1.1 1.4 1.9 1.8.9.4 1.8.7 2.8.6 1 .1 2-.2 2.8-.6m.5-11.6c.9-.8 1.4-1.9 1.3-3.1 0-1.2-.4-2.3-1.3-3.2-1.9-1.6-4.8-1.6-6.7 0-.9.8-1.3 2-1.3 3.2s.4 2.3 1.3 3.1c2 1.6 4.8 1.6 6.7 0" class="st0"/><path id="形状_1_" d="M87.5 57.2c-1.2-1.9-1.7-4.6-1.7-8.1s.6-6.2 1.7-8.1c1-1.8 2.9-2.8 4.9-2.8s3.9 1.1 4.9 2.8c1.2 1.9 1.7 4.6 1.7 8.1s-.6 6.2-1.7 8.1c-1 1.8-2.9 2.8-4.9 2.8s-3.9-1.1-4.9-2.8m8.9-.8c1.1-2.3 1.6-4.8 1.4-7.3.1-2.5-.3-5.1-1.4-7.4-.7-1.6-2.3-2.6-4.1-2.6s-3.3 1-4.1 2.6c-1.1 2.3-1.6 4.8-1.4 7.4-.1 2.5.4 5 1.4 7.3.7 1.6 2.3 2.6 4.1 2.6s3.4-1 4.1-2.6" class="st0"/><path id="形状_2_" d="M103.1 45.4c-1.5-1.7-1.5-4.3 0-6 .8-.8 1.9-1.2 3-1.2.8 0 1.5.2 2.2.5.6.4 1.2.9 1.5 1.5.7 1.4.7 3 0 4.3-.3.6-.9 1.2-1.5 1.5-.7.4-1.4.6-2.2.5-1.2.2-2.2-.3-3-1.1m5.3-.6c.6-.6 1-1.5.9-2.4 0-.9-.3-1.8-.9-2.5a3.32 3.32 0 0 0-4.7 0c-.6.7-1 1.5-.9 2.4 0 .9.3 1.8.9 2.5 1.3 1.3 3.4 1.3 4.7 0M128 56.9c-.7 1-1.7 1.8-2.8 2.3-1.2.5-2.5.8-3.8.8-1.7 0-3.4-.4-4.9-1.4-1.4-.9-2.6-2.3-3.3-3.8-.8-1.8-1.2-3.8-1.2-5.8s.3-3.9 1.2-5.7c.7-1.5 1.8-2.9 3.3-3.8s3.2-1.4 4.9-1.3c1.3 0 2.5.3 3.6.8 1.2.5 2.2 1.3 3 2.3l-.9.7c-.7-.9-1.6-1.5-2.6-2s-2-.7-3.1-.7c-3.1-.1-6 1.7-7.2 4.6-.7 1.6-1 3.4-1 5.2s.3 3.6 1 5.3c.6 1.4 1.6 2.6 2.9 3.5 1.3.8 2.8 1.3 4.3 1.2 1.1 0 2.2-.2 3.2-.7s1.9-1.2 2.5-2.1z" class="st0"/><path d="M19 40.5c-5.8 0-10.5-4.7-10.5-10.5S13.2 19.5 19 19.5 29.5 24.2 29.5 30 24.8 40.5 19 40.5m0-20c-5.2 0-9.5 4.3-9.5 9.5s4.3 9.5 9.5 9.5 9.5-4.3 9.5-9.5-4.3-9.5-9.5-9.5" class="st0"/><path d="M18.5 20h1v20h-1z" class="st0"/><path d="M38 60.5H0c-.3 0-.5-.2-.5-.5V0c0-.3.2-.5.5-.5h38c.3 0 .5.2.5.5v60c0 .3-.2.5-.5.5m-37.5-1h37V.5H.5z" class="st0"/></g></g></svg>