<svg xmlns="http://www.w3.org/2000/svg" xml:space="preserve" id="图层_1" x="0" y="0" viewBox="0 0 129 33"><style>.st0{fill:#fff}</style><g id="页面-1"><g id="_x32_-089"><path d="M57.04 32.45c-8.9 0-16.1-7.2-16.1-16.1S48.14.25 57.04.25s16.1 7.2 16.1 16.1-7.2 16.1-16.1 16.1m0-31.2c-8.3 0-15.1 6.8-15.1 15.1s6.8 15.1 15.1 15.1 15.1-6.8 15.1-15.1-6.8-15.1-15.1-15.1" class="st0"/><path d="M.44 16.05h41v1h-41zm71.9 0h56.1v1h-56.1z" class="st0"/><g transform="translate(.44 .75)"><circle id="椭圆形_2_" cx="56.6" cy="15.6" r="6" class="st0"/><path d="M56.6 22.1c-3.6 0-6.5-2.9-6.5-6.5s2.9-6.5 6.5-6.5 6.5 2.9 6.5 6.5-2.9 6.5-6.5 6.5m0-12c-3 0-5.5 2.5-5.5 5.5s2.5 5.5 5.5 5.5 5.5-2.5 5.5-5.5-2.5-5.5-5.5-5.5" class="st0"/></g></g></g></svg>