<svg xmlns="http://www.w3.org/2000/svg" xml:space="preserve" id="图层_1" x="0" y="0" viewBox="0 0 130 130"><style>.st0{fill:#fff}</style><g id="页面-1"><g id="_x32_-095"><g transform="translate(.94 .75)"><path id="形状_1_" d="M64 32c-17.7 0-32 14.3-32 32s14.3 32 32 32 32-14.3 32-32c0-8.5-3.4-16.6-9.4-22.6S72.5 32 64 32M52.3 61.6c-6.1 0-11.1-4-11.1-9s5-9 11.1-9 11.1 4 11.1 9-5 9-11.1 9m29.3 21.9c-5.5 3.9-11.8 4.4-14.1 1.1s.2-9 5.7-13 11.8-4.4 14.1-1.1-.2 9.1-5.7 13" class="st0"/><path d="M64 96.5c-17.9 0-32.5-14.6-32.5-32.5S46.1 31.5 64 31.5c8.7 0 16.8 3.4 23 9.5s9.5 14.3 9.5 23c0 17.9-14.6 32.5-32.5 32.5m0-64c-17.4 0-31.5 14.1-31.5 31.5S46.6 95.5 64 95.5 95.5 81.4 95.5 64c0-8.4-3.3-16.3-9.2-22.3-6-5.9-13.9-9.2-22.3-9.2m8.5 54.8c-.6 0-1.1 0-1.6-.1-1.7-.3-3-1.1-3.8-2.2-2.5-3.5.1-9.5 5.8-13.7 3.5-2.6 7.6-3.8 10.8-3.3 1.7.3 3.1 1.1 4 2.3 2.5 3.5 0 9.5-5.8 13.7-3.1 2.1-6.5 3.3-9.4 3.3m9.7-18.5c-2.7 0-5.9 1.2-8.7 3.2-5.2 3.8-7.7 9.3-5.6 12.3.7.9 1.8 1.6 3.2 1.8 2.9.5 6.8-.7 10.2-3.1 5.2-3.8 7.7-9.3 5.6-12.3-.7-1-1.9-1.6-3.3-1.9-.5.1-1 0-1.4 0m-29.9-6.7c-6.4 0-11.6-4.3-11.6-9.5s5.2-9.5 11.6-9.5 11.6 4.3 11.6 9.5-5.2 9.5-11.6 9.5m0-18c-5.8 0-10.6 3.8-10.6 8.5s4.7 8.5 10.6 8.5c5.8 0 10.6-3.8 10.6-8.5s-4.8-8.5-10.6-8.5" class="st0"/></g><path d="M64.94 129.25c-35.6 0-64.5-28.9-64.5-64.5S29.34.25 64.94.25c17.2 0 33.4 6.7 45.6 18.9s18.9 28.4 18.9 45.6c0 35.6-28.9 64.5-64.5 64.5m0-128c-35 0-63.5 28.5-63.5 63.5s28.5 63.5 63.5 63.5 63.5-28.5 63.5-63.5c0-17-6.6-32.9-18.6-44.9s-27.9-18.6-44.9-18.6m8.5 86.8c-.6 0-1.1 0-1.6-.1-1.7-.3-3-1.1-3.8-2.2-2.5-3.5.1-9.5 5.8-13.7 3.5-2.6 7.6-3.8 10.8-3.3 1.7.3 3.1 1.1 4 2.3 2.5 3.5 0 9.5-5.8 13.7-3.1 2.1-6.5 3.3-9.4 3.3m9.7-18.5c-2.7 0-5.9 1.2-8.7 3.2-5.2 3.8-7.7 9.3-5.6 12.3.7.9 1.8 1.6 3.2 1.8 2.9.5 6.8-.7 10.2-3.1 5.2-3.8 7.7-9.3 5.6-12.3-.7-1-1.9-1.6-3.3-1.9-.5.1-1 0-1.4 0m-29.9-6.7c-6.4 0-11.6-4.3-11.6-9.5s5.2-9.5 11.6-9.5 11.6 4.3 11.6 9.5-5.2 9.5-11.6 9.5m0-18c-5.8 0-10.6 3.8-10.6 8.5s4.7 8.5 10.6 8.5c5.8 0 10.6-3.8 10.6-8.5s-4.8-8.5-10.6-8.5" class="st0"/></g></g></svg>