<svg xmlns="http://www.w3.org/2000/svg" xml:space="preserve" id="图层_1" x="0" y="0" viewBox="0 0 98 129"><style>.st0{fill:#fff}</style><g id="页面-1"><g id="_x32_-094"><path d="M27.04 63.45c-.2 0-.4-.1-.4-.3L.54 12.55c-.1-.2-.1-.3 0-.5s.3-.2.4-.2h51.8c.2 0 .3.1.4.2s.1.3 0 .5l-25.7 50.6c0 .2-.2.3-.4.3m-25.3-50.6 25.3 49 24.9-49z" class="st0"/><path d="M52.74 112.55H.94c-.2 0-.3-.1-.4-.2s-.1-.3 0-.5l26.1-50.6c.1-.2.3-.3.4-.3.2 0 .4.1.4.3l25.7 50.6c.1.2.1.3 0 .5 0 .1-.2.2-.4.2m-51-1h50.2l-24.9-49z" class="st0"/><g transform="translate(.94 .25)"><path id="路径_3_" d="m26.1 61.2 25.7 50.6h-26z" class="st0"/><path d="M51.8 112.3h-26c-.1 0-.3-.1-.4-.1s-.1-.2-.1-.4l.3-50.6c0-.2.2-.4.4-.5s.5.1.6.3l25.7 50.6c.1.2.1.3 0 .5-.1.1-.3.2-.5.2m-25.5-1H51l-24.4-48z" class="st0"/></g><path d="M26.34.25h1v12.1h-1zm0 62.4h1v65.6h-1z" class="st0"/><path d="M26.84 62.15h35v1h-35z" class="st0"/><path d="M79.34 82.25c-9.9 0-18-8.1-18-18s8.1-18 18-18 18 8.1 18 18-8 18-18 18m0-35c-9.4 0-17 7.6-17 17s7.6 17 17 17 17-7.6 17-17-7.6-17-17-17" class="st0"/></g></g></svg>