<svg xmlns="http://www.w3.org/2000/svg" xml:space="preserve" id="图层_1" x="0" y="0" viewBox="0 0 129 37"><style>.st0{fill:#fff}</style><g id="页面-1"><g id="_x32_-107"><path d="M.44 17.75h92.9v1H.44z" class="st0"/><path d="M110.84 36.35c-10 0-18-8.1-18-18 0-10 8.1-18 18-18s18.1 8.1 18.1 18-8.1 18-18.1 18m0-35.1c-9.4 0-17 7.6-17 17s7.6 17 17 17 17.1-7.6 17.1-17-7.6-17-17.1-17" class="st0"/><g transform="translate(.44 .75)"><path id="路径_2_" d="M110.4 17.5 98 30c-6.8-6.9-6.8-18 0-24.8z" class="st0"/><path d="M98 30.5c-.1 0-.3 0-.4-.1-7-7-7-18.5 0-25.5.2-.2.5-.2.7 0l12.4 12.4c.1.1.1.2.1.4s-.1.3-.1.4L98.4 30.3c-.1.1-.3.2-.4.2m0-24.6c-6.2 6.6-6.2 16.8 0 23.4l11.7-11.7z" class="st0"/></g><g transform="translate(.44 .75)"><path id="路径_3_" d="m122.9 30-12.4-12.4 12.4-12.4c6.8 6.8 6.8 17.9 0 24.8" class="st0"/><path d="M122.9 30.5c-.1 0-.3-.1-.4-.1L110.1 18c-.1-.1-.1-.2-.1-.4s.1-.3.1-.4l12.4-12.4c.1-.1.2-.1.4-.1.1 0 .3.1.4.1 7 7 7 18.5 0 25.5-.2.1-.3.2-.4.2m-11.7-13 11.7 11.7c6.2-6.6 6.2-16.8 0-23.4z" class="st0"/></g></g></g></svg>