<svg xmlns="http://www.w3.org/2000/svg" xml:space="preserve" id="图层_1" x="0" y="0" viewBox="0 0 130 36"><style>.st0{fill:#fff}</style><g id="页面-1"><g id="_x32_-104"><path d="M.44 17.25h42v1h-42z" class="st0"/><path d="M128.54 35.25h-86c-.3 0-.5-.2-.5-.5v-34c0-.3.2-.5.5-.5h86c.3 0 .5.2.5.5v34c0 .3-.2.5-.5.5m-85.5-1h85v-33h-85z" class="st0"/><g transform="translate(.44 .75)"><path id="路径_2_" d="M128.1 34h-86V0z" class="st0"/><path d="M128.1 34.5h-86c-.3 0-.5-.2-.5-.5V0c0-.2.1-.3.2-.4s.3-.1.5-.1l86 34c.2.1.4.3.3.6 0 .2-.2.4-.5.4m-85.5-1h82.9L42.6.7z" class="st0"/></g></g></g></svg>