<svg xmlns="http://www.w3.org/2000/svg" xml:space="preserve" id="图层_1" x="0" y="0" viewBox="0 0 130 130"><style>.st0{fill:#fff}</style><g id="页面-1"><g id="_x32_-100"><path d="M128.94 129.25H.94c-.3 0-.5-.2-.5-.5V.75c0-.3.2-.5.5-.5h128c.3 0 .5.2.5.5v128c0 .3-.2.5-.5.5m-127.5-1h127v-127h-127z" class="st0"/><g transform="translate(.94 .75)"><circle id="椭圆形_1_" cx="64" cy="90.9" r="13.2" class="st0"/><path d="M64 104.6c-7.6 0-13.7-6.2-13.7-13.7S56.4 77.2 64 77.2s13.7 6.2 13.7 13.7-6.1 13.7-13.7 13.7m0-26.4c-7 0-12.7 5.7-12.7 12.7S57 103.6 64 103.6s12.7-5.7 12.7-12.7S71 78.2 64 78.2" class="st0"/></g><path d="M64.44 26.65h1v54.9h-1z" class="st0"/><path d="M64.94 78.75c-.1 0-.2 0-.3-.1l-39.8-29-23.6 22.7-.7-.7 23.9-23q.3-.3.6 0l39.6 28.8 9.4-28.6c.1-.2.2-.3.4-.3s.4 0 .5.2l23.1 27 30.6-22.1.6.8-31 22.3c-.2.2-.5.1-.7-.1l-22.8-26.6-9.4 28.4c0 .2-.2.3-.3.3z" class="st0"/></g></g></svg>