<svg xmlns="http://www.w3.org/2000/svg" xml:space="preserve" id="图层_1" x="0" y="0" viewBox="0 0 129 92"><style>.st0{fill:#fff}</style><g id="页面-1"><g id="_x32_-116" transform="translate(.44 .75)"><path id="形状" d="M82.2 64.1h-1.5l-6.4-17.6H53.6l-6.4 17.7h-1.5l17.5-48h1.5zM63.9 18.2l-9.8 26.9h19.7L64 18.2z" class="st0"/><path d="M109 90.5H19c-.3 0-.5-.2-.5-.5V0c0-.3.2-.5.5-.5h90c.3 0 .5.2.5.5v90c0 .3-.2.5-.5.5m-89.5-1h89V.5h-89z" class="st0"/><path d="M109 44.5h19v1h-19zm-109 0h19v1H0z" class="st0"/></g></g></svg>