<svg xmlns="http://www.w3.org/2000/svg" xml:space="preserve" id="图层_1" x="0" y="0" viewBox="0 0 130 78"><style>.st0{fill:#fff}</style><g id="页面-1"><g id="_x32_-119"><path d="M128.94 63.25H.94c-.3 0-.5-.2-.5-.5v-62c0-.3.2-.5.5-.5h128c.3 0 .5.2.5.5v62c0 .3-.2.5-.5.5m-127.5-1h127v-61h-127z" class="st0"/><path d="M128.94 63.25H.94c-.2 0-.4-.1-.5-.3s0-.4.1-.5l64-62c.2-.2.5-.2.7 0l64 62c.1.1.2.4.1.5 0 .2-.2.3-.4.3m-126.8-1h125.5l-62.7-60.8z" class="st0"/><path d="M57.31 62.377 71.947 47.74l.707.707-14.637 14.637z" class="st0"/><path d="m57.295 63.123.707-.707L72.64 77.053l-.707.707z" class="st0"/></g></g></svg>