<svg xmlns="http://www.w3.org/2000/svg" xml:space="preserve" id="图层_1" x="0" y="0" viewBox="0 0 129 92"><style>.st0{fill:#fff}</style><g id="页面-1"><g id="_x32_-122"><path d="M109.44 91.25h-90c-.3 0-.5-.2-.5-.5v-90c0-.3.2-.5.5-.5h90c.3 0 .5.2.5.5v90c0 .3-.2.5-.5.5m-89.5-1h89v-89h-89z" class="st0"/><path d="M.44 45.25h128v1H.44zm0 28h35.5v1H.44zm0-56h35.5v1H.44z" class="st0"/><path d="m19.34 91.25-.4-.9c.3-.2 23.7-10.6 23.7-44.6 0-17.8-6.4-28.9-11.8-35.2-5.9-6.8-11.8-9.4-11.9-9.4l.4-.9c.3.1 24.3 10.8 24.3 45.5 0 18.1-6.6 29.5-12.1 35.9-6 6.9-11.9 9.5-12.2 9.6" class="st0"/></g></g></svg>