<svg xmlns="http://www.w3.org/2000/svg" xml:space="preserve" id="图层_1" x="0" y="0" viewBox="0 0 129 77"><style>.st0{fill:#fff}</style><g id="页面-1"><g id="_x32_-125"><path d="M66.94 74.1c-.3 0-.5-.2-.5-.5v-70c0-.3.2-.5.5-.5 20.2 0 36.5 15.9 36.5 35.5s-16.3 35.5-36.5 35.5m.5-70v69c19.3-.3 35-15.6 35-34.5s-15.6-34.2-35-34.5m-67 34h66v1h-66z" class="st0"/><path d="M102.94 38.1h25.5v1h-25.5zm-6.323 20.902.707-.707 18.031 18.031-.707.707zm0-40.746L114.648.225l.707.707-18.03 18.031z" class="st0"/></g></g></svg>