<svg xmlns="http://www.w3.org/2000/svg" xml:space="preserve" id="图层_1" x="0" y="0" viewBox="0 0 118 130"><style>.st0{fill:#fff}</style><g id="页面-1"><g id="_x32_-137"><path d="M32.94 93.25h-32c-.3 0-.5-.2-.5-.5v-56c0-.3.2-.5.5-.5h32c.3 0 .5.2.5.5v56c0 .3-.2.5-.5.5m-31.5-1h31v-55h-31z" class="st0"/><path d="M64.94 129.25c-.1 0-.3-.1-.4-.2l-32-36c-.1-.1-.1-.2-.1-.3v-56c0-.1 0-.2.1-.3l32-36c.1-.2.4-.2.6-.1s.3.3.3.5v128c0 .2-.1.4-.3.5-.1-.1-.1-.1-.2-.1m-31.5-36.7 31 34.9V2.05l-31 34.9z" class="st0"/><g transform="translate(.94 .75)"><path id="路径_2_" d="m96 45 6.2 12.5 13.8 2-10 9.8 2.4 13.7L96 76.5 83.6 83 86 69.3l-10-9.8 13.8-2z" class="st0"/><path d="M108.4 83.5c-.1 0-.2 0-.2-.1L96 77.1l-12.1 6.4c-.2.1-.4.1-.5 0-.2-.1-.2-.3-.2-.5l2.3-13.5-9.8-9.6c-.1-.1-.2-.3-.1-.5s.2-.3.4-.3l13.6-2 6.1-12.3c.1-.2.3-.3.4-.3.2 0 .4.1.4.3l6.1 12.3 13.6 2c.2 0 .3.2.4.3.1.2 0 .4-.1.5l-9.8 9.6L109 83c0 .2 0 .4-.2.5zM96 76c.1 0 .2 0 .2.1l11.5 6-2.2-12.8c0-.2 0-.3.1-.4l9.3-9-12.8-1.9c-.2 0-.3-.1-.4-.3L96 46.1l-5.7 11.6c-.1.1-.2.2-.4.3l-12.8 1.9 9.3 9c.1.1.2.3.1.4l-2.2 12.8 11.5-6c0-.1.1-.1.2-.1" class="st0"/></g></g></g></svg>