<svg xmlns="http://www.w3.org/2000/svg" xml:space="preserve" id="图层_1" x="0" y="0" viewBox="0 0 129 49"><style>.st0{fill:#fff}</style><g id="页面-1"><g id="_x32_-131"><path d="M64.44 33.25c-9.1 0-16.5-7.4-16.5-16.5S55.34.25 64.44.25s16.5 7.4 16.5 16.5-7.4 16.5-16.5 16.5m0-32c-8.5 0-15.5 7-15.5 15.5s7 15.5 15.5 15.5 15.5-7 15.5-15.5-7-15.5-15.5-15.5" class="st0"/><path d="M.44 16.25h128v1H.44z" class="st0"/><path d="M64.94 48.75h-1v-15.8l-15.9-15.8.7-.7 16 16c.1.1.1.2.1.4v15.9z" class="st0"/></g></g></svg>