<svg xmlns="http://www.w3.org/2000/svg" xml:space="preserve" id="图层_1" x="0" y="0" viewBox="0 0 130 70"><style>.st0{fill:#fff}</style><g id="页面-1"><g id="_x32_-139"><path d="M128.94 69.25H.94c-.3 0-.5-.2-.5-.5v-68c0-.3.2-.5.5-.5h128c.3 0 .5.2.5.5v68c0 .3-.2.5-.5.5m-127.5-1h127v-67h-127z" class="st0"/><path d="M64.94 45.75h-12c-.3 0-.5-.2-.5-.5v-21c0-.3.2-.5.5-.5h12c.3 0 .5.2.5.5v21c0 .3-.2.5-.5.5m-11.5-1h11v-20h-11z" class="st0"/><path d="M76.94 59.25c-.1 0-.3-.1-.4-.2l-12-13.5c-.1-.1-.1-.2-.1-.3v-21c0-.1 0-.2.1-.3l12-13.5c.1-.2.4-.2.6-.1s.3.3.3.5v48c0 .2-.1.4-.3.5-.1-.1-.1-.1-.2-.1m-11.5-14.2 11 12.4v-45.4l-11 12.4z" class="st0"/></g></g></svg>