<svg xmlns="http://www.w3.org/2000/svg" xml:space="preserve" id="图层_1" x="0" y="0" viewBox="0 0 66 130"><style>.st0{fill:#fff}</style><g id="页面-1"><g id="_x32_-136"><path d="M32.94 93.25h-32c-.3 0-.5-.2-.5-.5v-56c0-.3.2-.5.5-.5h32c.3 0 .5.2.5.5v56c0 .3-.2.5-.5.5m-31.5-1h31v-55h-31z" class="st0"/><path d="M64.94 129.25c-.1 0-.3-.1-.4-.2l-32-36c-.1-.1-.1-.2-.1-.3v-56c0-.1 0-.2.1-.3l32-36c.1-.2.4-.2.6-.1s.3.3.3.5v128c0 .2-.1.4-.3.5-.1-.1-.1-.1-.2-.1m-31.5-36.7 31 34.9V2.05l-31 34.9z" class="st0"/></g></g></svg>