<svg xmlns="http://www.w3.org/2000/svg" xml:space="preserve" id="图层_1" x="0" y="0" viewBox="0 0 129 54"><style>.st0{fill:#fff}</style><g id="页面-1"><g id="_x32_-132" transform="translate(.44 .75)"><path d="M74 32.5c-9.1 0-16.5-7.4-16.5-16.5S64.9-.5 74-.5 90.5 6.9 90.5 16 83.1 32.5 74 32.5m0-32c-8.5 0-15.5 7-15.5 15.5s7 15.5 15.5 15.5 15.5-7 15.5-15.5S82.5.5 74 .5" class="st0"/><path d="M0 15.5h58v1H0z" class="st0"/><path id="路径_1_" d="M103.5 52.6h-1.1v-20h-7v-1h15.1v1h-7z" class="st0"/><path id="路径_2_" d="m119.2 52.6-7.7-21h1.2l7 19.4h.1l7-19.4h1.2l-7.6 21z" class="st0"/></g></g></svg>