<svg xmlns="http://www.w3.org/2000/svg" xml:space="preserve" id="图层_1" x="0" y="0" viewBox="0 0 130 71"><style>.st0{fill:#fff}</style><g id="页面-1"><g id="_x32_-149" transform="translate(.94 .75)"><path d="M128 70H36.9c-.2 0-.4-.1-.5-.3L11.6.2c-.1-.2 0-.3.1-.5s.2-.2.4-.2H128c.3 0 .5.2.5.5v69.5c0 .3-.2.5-.5.5m-90.8-1h90.3V.5H12.8z" class="st0"/><path d="M27.3 44.2H0c-.3 0-.5-.2-.5-.5V19.5c0-.3.2-.5.5-.5h19v1H.5v23.2h26.8z" class="st0"/><path id="路径_2_" d="M95.5 34.7V12.4h1.4v48h-1.4V36.1H65.9v24.3h-1.4v-48h1.4v22.3z" class="st0"/></g></g></svg>