<svg xmlns="http://www.w3.org/2000/svg" xml:space="preserve" id="图层_1" x="0" y="0" viewBox="0 0 130 82"><style>.st0{fill:#fff}</style><g id="页面-1"><g id="_x32_-144"><path d="M80.94 81.25h-80c-.3 0-.5-.2-.5-.5v-80c0-.3.2-.5.5-.5h80c.3 0 .5.2.5.5v80c0 .3-.2.5-.5.5m-79.5-1h79v-79h-79z" class="st0"/><path d="M23.04 61.95c-.1 0-.2 0-.2-.1-.2-.1-.2-.3-.2-.4v-41.4c0-.2.1-.3.2-.4.2-.1.3-.1.5 0l35.9 20.7c.2.1.2.3.2.4s-.1.3-.2.4l-36 20.7c-.1.1-.1.1-.2.1m.5-41v39.7l34.3-19.9z" class="st0"/><g transform="translate(.94 .75)"><path id="路径_2_" d="m112 24.8 4.9 10 11.1 1.6-8 7.8 1.9 11L112 50l-9.9 5.2 1.9-11-8-7.8 11.1-1.6z" class="st0"/><path d="M121.9 55.7c-.1 0-.2 0-.2-.1l-9.7-5.1-9.7 5.1c-.2.1-.4.1-.5 0-.2-.1-.2-.3-.2-.5l1.8-10.8-7.8-7.6c-.1-.1-.2-.3-.1-.5s.2-.3.4-.3l10.8-1.6 4.8-9.8c.1-.2.3-.3.4-.3.2 0 .4.1.4.3l4.8 9.8 10.8 1.6c.2 0 .3.2.4.3.1.2 0 .4-.1.5l-7.8 7.6 1.8 10.8c0 .2 0 .4-.2.5.1.1 0 .1-.1.1M97.1 36.8l7.3 7.1c.1.1.2.3.1.4l-1.7 10 9-4.7c.1-.1.3-.1.5 0l9 4.7-1.7-10c0-.2 0-.3.1-.4l7.3-7.1-10.1-1.5c-.2 0-.3-.1-.4-.3l-4.5-9.1-4.5 9.1c-.1.1-.2.2-.4.3z" class="st0"/></g></g></g></svg>