<svg xmlns="http://www.w3.org/2000/svg" xml:space="preserve" id="图层_1" x="0" y="0" viewBox="0 0 129 54"><style>.st0{fill:#fff}</style><g id="页面-1"><g id="_x32_-145" transform="translate(.44 .75)"><path d="M84 32.5c-9.1 0-16.5-7.4-16.5-16.5S74.9-.5 84-.5s16.5 7.4 16.5 16.5S93.1 32.5 84 32.5m0-32c-8.5 0-15.5 7-15.5 15.5s7 15.5 15.5 15.5 15.5-7 15.5-15.5S92.5.5 84 .5" class="st0"/><path d="M0 15.5h68v1H0z" class="st0"/><path id="路径_1_" d="M110.1 52.7H109V31.6h1.3l8.2 15.5h.1l8.1-15.5h1.3v21.1h-1.1v-19h-.1l-7.9 15h-.8l-7.9-15h-.1z" class="st0"/></g></g></svg>