<svg xmlns="http://www.w3.org/2000/svg" xml:space="preserve" id="图层_1" x="0" y="0" viewBox="0 0 130 72"><style>.st0{fill:#fff}</style><g id="页面-1"><g id="_x32_-157"><g transform="translate(.94 .65)"><circle id="椭圆形_1_" cx="47.4" cy="8.4" r="7.4" class="st0"/><path d="M47.4 16.3c-4.3 0-7.9-3.5-7.9-7.9S43 .5 47.4.5s7.9 3.5 7.9 7.9-3.6 7.9-7.9 7.9m0-14.7c-3.8 0-6.9 3.1-6.9 6.9s3.1 6.9 6.9 6.9 6.9-3.1 6.9-6.9-3.1-6.9-6.9-6.9" class="st0"/></g><g transform="translate(.94 .65)"><ellipse id="椭圆形_2_" cx="34.2" cy="34.8" class="st0" rx="5.8" ry="5.3"/><path d="M34.2 40.5c-3.5 0-6.3-2.6-6.3-5.8s2.8-5.8 6.3-5.8 6.3 2.6 6.3 5.8-2.8 5.8-6.3 5.8m0-10.5c-2.9 0-5.3 2.1-5.3 4.8 0 2.6 2.4 4.8 5.3 4.8s5.3-2.1 5.3-4.8-2.3-4.8-5.3-4.8" class="st0"/></g><g transform="translate(.94 .65)"><ellipse id="椭圆形_3_" cx="64.8" cy="35.8" class="st0" rx="5.8" ry="5.3"/><path d="M64.8 41.6c-3.5 0-6.3-2.6-6.3-5.8s2.8-5.8 6.3-5.8 6.3 2.6 6.3 5.8-2.8 5.8-6.3 5.8m0-10.5c-2.9 0-5.3 2.1-5.3 4.8s2.4 4.8 5.3 4.8 5.3-2.1 5.3-4.8-2.4-4.8-5.3-4.8" class="st0"/></g><path d="M128.94 71.25h-91.1c-.2 0-.4-.1-.5-.3l-24.8-69.6c-.1-.2 0-.3.1-.5s.3-.2.4-.2h115.9c.3 0 .5.2.5.5v69.5c0 .3-.2.6-.5.6m-90.8-1h90.3V1.65H13.74z" class="st0"/><path d="M28.44 45.15H.94c-.3 0-.5-.2-.5-.5v-24.3c0-.3.2-.5.5-.5h18.5v1h-18v23.2h27zm9.108 24.637L128.155.273l.608.794L38.157 70.58z" class="st0"/></g></g></svg>