<svg xmlns="http://www.w3.org/2000/svg" xml:space="preserve" id="图层_1" x="0" y="0" viewBox="0 0 130 125"><style>.st0{fill:#fff}</style><g id="页面-1"><g id="_x32_-152" transform="translate(.94 .75)"><path d="M128 70H36.9c-.2 0-.4-.1-.5-.3L11.6.2c-.1-.2 0-.3.1-.5s.2-.2.4-.2H128c.3 0 .5.2.5.5v69.5c0 .3-.2.5-.5.5m-90.8-1h90.3V.5H12.8z" class="st0"/><path d="M27.5 44.2H0c-.3 0-.5-.2-.5-.5V19.5c0-.3.2-.5.5-.5h18.5v1H.5v23.2h27zm25.2 37h47.4v1H52.7z" class="st0"/><path d="M100.1 123.8H52.7c-.2 0-.3-.1-.4-.2s-.1-.3 0-.5L76 81.9c.2-.3.7-.3.9 0l23.7 41.1c.1.2.1.3 0 .5s-.3.3-.5.3m-46.6-1h45.7L76.4 83.2z" class="st0"/><path d="M64.2 102.7h24.4v1H64.2z" class="st0"/><path id="形状" d="M45.1 57.1c-3.2-2.2-5.7-5.3-7.2-8.9-1.8-4.1-2.7-8.5-2.6-12.9-.1-4.4.8-8.8 2.6-12.8 1.5-3.6 4-6.6 7.2-8.8 6.4-4.2 14.6-4.2 21 0 3.2 2.2 5.6 5.3 7.2 8.8 1.8 4 2.7 8.4 2.6 12.8.1 4.4-.8 8.8-2.6 12.9-1.5 3.6-4 6.6-7.2 8.9-6.4 4.3-14.7 4.3-21 0M65.3 56c3-2.1 5.3-5 6.7-8.4 1.7-3.9 2.5-8 2.4-12.2.1-4.2-.7-8.3-2.4-12.1-1.4-3.3-3.8-6.2-6.7-8.3-5.9-4-13.6-4-19.5 0-3 2.1-5.3 5-6.7 8.3-1.7 3.8-2.5 8-2.4 12.1-.1 4.2.7 8.4 2.4 12.2 1.4 3.4 3.7 6.3 6.7 8.4 5.9 4 13.6 4 19.5 0" class="st0"/><path id="路径_5_" d="M115.8 33.8V11.4h1.4v48h-1.4V35.1H86.2v24.3h-1.4v-48h1.4v22.4z" class="st0"/></g></g></svg>