<svg xmlns="http://www.w3.org/2000/svg" xml:space="preserve" id="图层_1" x="0" y="0" viewBox="0 0 130 74"><style>.st0{fill:#fff}</style><g id="页面-1"><g id="_x32_-159"><g transform="translate(.939 .75)"><circle id="椭圆形_1_" cx="51.3" cy="14.3" r="4.2" class="st0"/><path d="M51.3 18.9c-2.6 0-4.7-2.1-4.7-4.6s2.1-4.6 4.7-4.6 4.6 2.1 4.6 4.6-2 4.6-4.6 4.6m0-8.3c-2 0-3.7 1.6-3.7 3.6s1.6 3.6 3.7 3.6 3.6-1.6 3.6-3.6-1.6-3.6-3.6-3.6" class="st0"/></g><g transform="translate(.939 .75)"><ellipse id="椭圆形_2_" cx="43.9" cy="29.1" class="st0" rx="3.3" ry="3"/><path d="M43.9 32.6c-2.1 0-3.8-1.6-3.8-3.5s1.7-3.5 3.8-3.5 3.8 1.6 3.8 3.5-1.7 3.5-3.8 3.5m0-6c-1.5 0-2.8 1.1-2.8 2.5s1.2 2.5 2.8 2.5 2.8-1.1 2.8-2.5-1.3-2.5-2.8-2.5" class="st0"/></g><g transform="translate(.939 .75)"><ellipse id="椭圆形_3_" cx="61.1" cy="29.7" class="st0" rx="3.3" ry="3"/><path d="M61.1 33.1c-2.1 0-3.8-1.6-3.8-3.5s1.7-3.5 3.8-3.5 3.8 1.6 3.8 3.5-1.8 3.5-3.8 3.5m0-5.9c-1.5 0-2.8 1.1-2.8 2.5s1.2 2.5 2.8 2.5 2.8-1.1 2.8-2.5-1.3-2.5-2.8-2.5" class="st0"/></g><path d="M97.539 50.25h-51.2c-.2 0-.4-.1-.5-.3l-13.9-39.2c-.1-.2 0-.3.1-.5s.2-.2.4-.2h65.2c.3 0 .5.2.5.5v39.2c-.1.2-.3.5-.6.5m-50.9-1h50.4v-38.1h-64z" class="st0"/><path d="M40.939 35.65h-15.4c-.3 0-.5-.2-.5-.5v-13.6c0-.3.2-.5.5-.5h10.4v1h-9.9v12.6h14.9zm5.038 13.375L96.914 9.947l.608.793-50.936 39.08z" class="st0"/><path d="M65.039 73.75c-10.3 0-20.6-2.5-30.1-7.5-21.4-11.2-34.6-33.3-34.4-57.5v-2.2c0-2-.1-4.2 0-5.6 0-.3.2-.5.5-.5l127.4-.3c.2 0 .5.2.5.4 3.2 24-7.1 47.6-27 61.4-11.1 7.9-24 11.8-36.9 11.8m-63.6-72.2c-.1 1.3 0 3.3 0 5v2.2c-.1 23.9 12.9 45.6 34 56.7s46.4 9.5 65.9-4.1 29.7-36.6 26.7-60.1z" class="st0"/></g></g></svg>