<svg xmlns="http://www.w3.org/2000/svg" xml:space="preserve" id="图层_1" x="0" y="0" viewBox="0 0 130 125"><style>.st0{fill:#fff}</style><g id="页面-1"><g id="_x32_-154"><path d="M128.94 70.75h-91.1c-.2 0-.4-.1-.5-.3L12.54.95c-.1-.2 0-.3.1-.5s.2-.2.4-.2h115.9c.3 0 .5.2.5.5v69.5c0 .3-.2.5-.5.5m-90.8-1h90.3V1.25H13.74z" class="st0"/><path d="M28.24 44.95H.94c-.3 0-.5-.2-.5-.5v-24.2c0-.3.2-.5.5-.5h19.4v1H1.44v23.2h26.8zm25.4 37h47.4v1h-47.4z" class="st0"/><path d="M101.04 124.55h-47.4c-.2 0-.3-.1-.4-.2s-.1-.3 0-.5l23.7-41.2c.2-.3.7-.3.9 0l23.7 41.1c.1.2.1.3 0 .5s-.3.3-.5.3m-46.6-1h45.7l-22.8-39.6z" class="st0"/><path d="M65.44 103.45h24.4v1h-24.4z" class="st0"/><g transform="translate(.94 .75)"><circle id="椭圆形_1_" cx="75.8" cy="17.4" r="7.4" class="st0"/><path d="M75.9 25.2c-4.3 0-7.9-3.5-7.9-7.9s3.5-7.9 7.9-7.9 7.9 3.5 7.9 7.9-3.6 7.9-7.9 7.9m0-14.7c-3.8 0-6.9 3.1-6.9 6.9s3.1 6.9 6.9 6.9 6.9-3.1 6.9-6.9-3.2-6.9-6.9-6.9" class="st0"/></g><g transform="translate(.94 .75)"><ellipse id="椭圆形_2_" cx="62.7" cy="43.7" class="st0" rx="5.8" ry="5.3"/><path d="M62.7 49.5c-3.5 0-6.3-2.6-6.3-5.8s2.8-5.8 6.3-5.8 6.3 2.6 6.3 5.8-2.9 5.8-6.3 5.8m0-10.5c-2.9 0-5.3 2.1-5.3 4.8s2.4 4.8 5.3 4.8 5.3-2.1 5.3-4.8-2.4-4.8-5.3-4.8" class="st0"/></g><g transform="translate(.94 .75)"><ellipse id="椭圆形_3_" cx="93.2" cy="43.7" class="st0" rx="5.8" ry="5.3"/><path d="M93.2 49.5c-3.5 0-6.3-2.6-6.3-5.8s2.8-5.8 6.3-5.8 6.3 2.6 6.3 5.8-2.8 5.8-6.3 5.8m0-10.5c-2.9 0-5.3 2.1-5.3 4.8s2.4 4.8 5.3 4.8 5.3-2.1 5.3-4.8-2.4-4.8-5.3-4.8" class="st0"/></g></g></g></svg>