<svg xmlns="http://www.w3.org/2000/svg" xml:space="preserve" id="图层_1" x="0" y="0" viewBox="0 0 130 74"><style>.st0{fill:#fff}</style><g id="页面-1"><g id="_x32_-158"><path d="M101.439 53.25h-57.6c-.2 0-.4-.1-.5-.3l-15.7-44c-.1-.2 0-.3.1-.5s.2-.2.4-.2h73.3c.3 0 .5.2.5.5v44c0 .3-.2.5-.5.5m-57.3-1h56.8v-43h-72.1z" class="st0"/><path d="M37.439 36.95h-17c-.3 0-.5-.2-.5-.5v-15.3c0-.3.2-.5.5-.5h12v1h-11.5v14.3h16.5z" class="st0"/><g transform="translate(.939 .75)"><circle id="椭圆形_1_" cx="68.2" cy="19" r="4.7" class="st0"/><path d="M68.2 24.2c-2.9 0-5.2-2.3-5.2-5.2s2.3-5.2 5.2-5.2 5.2 2.3 5.2 5.2-2.4 5.2-5.2 5.2m0-9.3c-2.3 0-4.2 1.9-4.2 4.2s1.9 4.2 4.2 4.2 4.2-1.9 4.2-4.2-1.9-4.2-4.2-4.2" class="st0"/></g><g transform="translate(.939 .75)"><ellipse id="椭圆形_2_" cx="59.9" cy="35.7" class="st0" rx="3.7" ry="3.3"/><path d="M59.9 39.5c-2.3 0-4.2-1.7-4.2-3.8s1.9-3.8 4.2-3.8 4.2 1.7 4.2 3.8-1.9 3.8-4.2 3.8m0-6.6c-1.7 0-3.2 1.3-3.2 2.8 0 1.6 1.4 2.8 3.2 2.8s3.2-1.3 3.2-2.8c-.1-1.6-1.5-2.8-3.2-2.8" class="st0"/></g><g transform="translate(.939 .75)"><ellipse id="椭圆形_3_" cx="79.2" cy="35.7" class="st0" rx="3.7" ry="3.3"/><path d="M79.2 39.5c-2.3 0-4.2-1.7-4.2-3.8s1.9-3.8 4.2-3.8 4.2 1.7 4.2 3.8-1.9 3.8-4.2 3.8m0-6.6c-1.7 0-3.2 1.3-3.2 2.8 0 1.6 1.4 2.8 3.2 2.8s3.2-1.3 3.2-2.8c0-1.6-1.5-2.8-3.2-2.8" class="st0"/></g><path d="M65.039 73.75c-10.3 0-20.6-2.5-30.1-7.5-21.4-11.2-34.6-33.3-34.4-57.5v-2.2c0-2-.1-4.2 0-5.6 0-.3.2-.5.5-.5l127.4-.3c.2 0 .5.2.5.4 3.2 24-7.1 47.6-27 61.4-11.1 7.9-24 11.8-36.9 11.8m-63.6-72.2c-.1 1.3 0 3.3 0 5v2.2c-.1 23.9 12.9 45.6 34 56.7s46.4 9.5 65.9-4.1 29.7-36.6 26.7-60.1z" class="st0"/></g></g></svg>