<svg xmlns="http://www.w3.org/2000/svg" xml:space="preserve" id="图层_1" x="0" y="0" viewBox="0 0 130 125"><style>.st0{fill:#fff}</style><g id="页面-1"><g id="_x32_-150" transform="translate(.94 .75)"><path d="M128 70H36.9c-.2 0-.4-.1-.5-.3L11.6.2c-.1-.2 0-.3.1-.5s.2-.2.4-.2H128c.3 0 .5.2.5.5v69.5c0 .3-.2.5-.5.5m-90.8-1h90.3V.5H12.8z" class="st0"/><path d="M27.5 44.2H0c-.3 0-.5-.2-.5-.5V19.5c0-.3.2-.5.5-.5h18.5v1H.5v23.2h27zm25.2 37h47.4v1H52.7z" class="st0"/><path d="M100.1 123.8H52.7c-.2 0-.3-.1-.4-.2s-.1-.3 0-.5L76 81.9c.2-.3.7-.3.9 0l23.7 41.1c.1.2.1.3 0 .5s-.3.3-.5.3m-46.6-1h45.7L76.4 83.2z" class="st0"/><path d="M64.4 102.7h24.2v1H64.4z" class="st0"/><path id="形状" d="M93.9 59.4h-1.7l-13-22.3c-1.3.1-2.3.1-3 .1H64.8v22.1h-1.4v-48h12.8c5.5 0 9.7 1.1 12.6 3.4s4.4 5.5 4.4 9.7c.1 3.1-1 6.2-3.2 8.4-2.2 2.1-5.3 3.4-9.3 4zM76 35.9c5.1 0 9-1 11.7-2.9s4.3-5.1 4.1-8.5c.2-3.4-1.4-6.7-4.1-8.7q-4.05-3-11.7-3H64.8v23.1z" class="st0"/></g></g></svg>