<svg xmlns="http://www.w3.org/2000/svg" xml:space="preserve" id="图层_1" x="0" y="0" viewBox="0 0 130 130"><style>.st0{fill:#fff}</style><g id="页面-1"><g id="_x32_-164"><path d="M53.84 82.65h30.8v1h-30.8z" class="st0"/><path d="M84.74 110.75h-30.9c-.2 0-.3-.1-.4-.2s-.1-.3 0-.5l15.4-26.7c.1-.2.3-.2.4-.2.2 0 .3.1.4.2l15.4 26.7c.1.2.1.3 0 .5 0 .1-.1.2-.3.2m-30-1h29.1l-14.5-25.2z" class="st0"/><path d="M61.44 96.75h16v1h-16z" class="st0"/><g transform="translate(.94 .75)"><circle id="椭圆形_1_" cx="48.8" cy="34.5" r="4.8" class="st0"/><path d="M48.8 39.8c-2.9 0-5.3-2.4-5.3-5.3s2.4-5.3 5.3-5.3 5.3 2.4 5.3 5.3-2.3 5.3-5.3 5.3m0-9.6c-2.4 0-4.3 1.9-4.3 4.3s1.9 4.3 4.3 4.3 4.3-1.9 4.3-4.3-1.9-4.3-4.3-4.3" class="st0"/></g><g transform="translate(.94 .75)"><ellipse id="椭圆形_2_" cx="40.3" cy="51.6" class="st0" rx="3.8" ry="3.4"/><path d="M40.3 55.5c-2.4 0-4.3-1.8-4.3-3.9s1.9-3.9 4.3-3.9 4.3 1.8 4.3 3.9-2 3.9-4.3 3.9m0-6.8c-1.8 0-3.3 1.3-3.3 2.9s1.5 2.9 3.3 2.9 3.3-1.3 3.3-2.9c-.1-1.6-1.5-2.9-3.3-2.9" class="st0"/></g><g transform="translate(.94 .75)"><ellipse id="椭圆形_3_" cx="60.1" cy="52.3" class="st0" rx="3.8" ry="3.4"/><path d="M60.1 56.2c-2.4 0-4.3-1.8-4.3-3.9s1.9-3.9 4.3-3.9 4.3 1.8 4.3 3.9-1.9 3.9-4.3 3.9m0-6.8c-1.8 0-3.3 1.3-3.3 2.9s1.5 2.9 3.3 2.9 3.3-1.3 3.3-2.9-1.5-2.9-3.3-2.9" class="st0"/></g><path d="M102.24 75.85h-59.3c-.2 0-.4-.1-.5-.3l-16.1-45.3c-.1-.2 0-.3.1-.5s.2-.2.4-.2h75.4c.3 0 .5.2.5.5v45.2c0 .3-.3.6-.5.6m-59-1h58.4v-44.3h-74.1z" class="st0"/><path d="M36.94 59.05h-18c-.3 0-.5-.2-.5-.5v-15.8c0-.3.2-.5.5-.5h12.3v1h-11.8v14.8h17.5zm5.663 15.514 58.95-45.226.608.793-58.95 45.227z" class="st0"/><path d="M64.94 129.25c-35.6 0-64.5-28.9-64.5-64.5S29.34.25 64.94.25s64.5 28.9 64.5 64.5-28.9 64.5-64.5 64.5m0-128c-35 0-63.5 28.5-63.5 63.5s28.5 63.5 63.5 63.5 63.5-28.5 63.5-63.5-28.5-63.5-63.5-63.5" class="st0"/></g></g></svg>