<svg xmlns="http://www.w3.org/2000/svg" xml:space="preserve" id="图层_1" x="0" y="0" viewBox="0 0 130 130"><style>.st0{fill:#fff}</style><g id="页面-1"><g id="_x32_-162"><path d="M64.94 129.25c-35.6 0-64.5-28.9-64.5-64.5S29.34.25 64.94.25s64.5 28.9 64.5 64.5-28.9 64.5-64.5 64.5m0-128c-35 0-63.5 28.5-63.5 63.5s28.5 63.5 63.5 63.5 63.5-28.5 63.5-63.5-28.5-63.5-63.5-63.5" class="st0"/><g transform="translate(.94 .75)"><circle id="椭圆形_2_" cx="52.5" cy="45.6" r="5.1" class="st0"/><path d="M52.5 51.2c-3.1 0-5.6-2.5-5.6-5.6s2.5-5.6 5.6-5.6 5.6 2.5 5.6 5.6-2.5 5.6-5.6 5.6m0-10.2c-2.5 0-4.6 2.1-4.6 4.6s2.1 4.6 4.6 4.6 4.6-2.1 4.6-4.6S55 41 52.5 41" class="st0"/></g><g transform="translate(.94 .75)"><ellipse id="椭圆形_3_" cx="43.4" cy="63.8" class="st0" rx="4" ry="3.7"/><path d="M43.4 68c-2.5 0-4.5-1.9-4.5-4.1 0-2.3 2-4.1 4.5-4.1s4.5 1.9 4.5 4.1-2 4.1-4.5 4.1m0-7.3c-1.9 0-3.5 1.4-3.5 3.1s1.6 3.1 3.5 3.1 3.5-1.4 3.5-3.1-1.6-3.1-3.5-3.1" class="st0"/></g><g transform="translate(.94 .75)"><ellipse id="椭圆形_4_" cx="64.6" cy="64.6" class="st0" rx="4" ry="3.7"/><path d="M64.6 68.7c-2.5 0-4.5-1.9-4.5-4.2s2-4.1 4.5-4.1 4.5 1.9 4.5 4.1-2.1 4.2-4.5 4.2m0-7.3c-1.9 0-3.5 1.4-3.5 3.1s1.6 3.2 3.5 3.2 3.5-1.4 3.5-3.2c0-1.7-1.6-3.1-3.5-3.1" class="st0"/></g><path d="M109.34 89.55h-63.2c-.2 0-.4-.1-.5-.3l-17.1-48.3c-.1-.2 0-.3.1-.5s.2-.2.4-.2h80.3c.3 0 .5.2.5.5v48.2c0 .4-.3.6-.5.6m-62.9-1h62.3v-47.2h-79.1z" class="st0"/><path d="M39.54 71.65h-19c-.3 0-.5-.2-.5-.5v-16.8c0-.3.2-.5.5-.5h12.9v1h-12.4v15.8h18.5zm6.264 16.611 62.837-48.209.609.794-62.838 48.209z" class="st0"/></g></g></svg>