<svg xmlns="http://www.w3.org/2000/svg" xml:space="preserve" id="图层_1" x="0" y="0" viewBox="0 0 130 130"><style>.st0{fill:#fff}</style><g id="页面-1"><g id="_x32_-175"><path d="M64.94 129.25c-35.6 0-64.5-28.9-64.5-64.5S29.34.25 64.94.25s64.5 28.9 64.5 64.5-28.9 64.5-64.5 64.5m0-128c-35 0-63.5 28.5-63.5 63.5s28.5 63.5 63.5 63.5 63.5-28.5 63.5-63.5-28.5-63.5-63.5-63.5" class="st0"/><path d="M53.64 87.85c-.1 0-.3-.1-.4-.1l-22.6-22.6.7-.7 22.3 22.3 44.9-45 .7.7-45.3 45.3c-.1.1-.2.1-.3.1" class="st0"/></g></g></svg>