<svg xmlns="http://www.w3.org/2000/svg" xml:space="preserve" id="图层_1" x="0" y="0" viewBox="0 0 130 94"><style>.st0{fill:#fff}</style><g id="页面-1"><g id="_x32_-173" transform="translate(.94 .75)"><path d="M128 92.5H0c-.3 0-.5-.2-.5-.5V0c0-.3.2-.5.5-.5h128c.3 0 .5.2.5.5v92c0 .3-.2.5-.5.5M.5 91.5h127V.5H.5z" class="st0"/><path d="M127.6 49.9 105.8 28H0v-1h106c.1 0 .3.1.4.1l22 22z" class="st0"/><path id="路径_1_" d="M44.8 84.8h-1.9l-22-26.3-5.1 5v21.3h-1.4v-48h1.4v24.9l25-24.9h2l-21 20.8z" class="st0"/><path id="形状" d="M64.1 36.8c5.6 0 10 1.2 13 3.6s4.5 5.8 4.5 10.3-1.5 7.9-4.5 10.2c-3 2.4-7.4 3.6-13 3.6H52.6v20.3h-1.4v-48zm-.2 26.4c5.3 0 9.3-1.1 12.1-3.2 2.8-2.2 4.2-5.2 4.2-9.2q0-6.15-4.2-9.3c-2.8-2.2-6.8-3.2-12.1-3.2H52.6v25z" class="st0"/></g></g></svg>