<svg xmlns="http://www.w3.org/2000/svg" xml:space="preserve" id="图层_1" x="0" y="0" viewBox="0 0 130 130"><style>.st0{fill:#fff}</style><g id="页面-1"><g id="_x32_-177"><path d="M64.94 129.25c-35.6 0-64.5-28.9-64.5-64.5S29.34.25 64.94.25s64.5 28.9 64.5 64.5-28.9 64.5-64.5 64.5m0-128c-35 0-63.5 28.5-63.5 63.5s28.5 63.5 63.5 63.5 63.5-28.5 63.5-63.5-28.5-63.5-63.5-63.5" class="st0"/><path d="m79.44 91.25-51.9-.2c-.2 0-.3-.1-.4-.2s-.1-.3 0-.5l22.9-51.8c.1-.2.3-.3.5-.3l51.8.2c.2 0 .3.1.4.2s.1.3 0 .5l-22.9 51.8c0 .2-.2.3-.4.3m-51.1-1.2 50.8.2 22.4-50.8-50.8-.2z" class="st0"/></g></g></svg>