<svg xmlns="http://www.w3.org/2000/svg" xml:space="preserve" id="图层_1" x="0" y="0" viewBox="0 0 130 92"><style>.st0{fill:#fff}</style><g id="页面-1"><g id="_x32_-179" transform="translate(.94 .75)"><path d="M68.8 90.8c-.1 0-.2 0-.3-.1L-.3 41.3c-.1-.1-.2-.3-.2-.4s.1-.3.2-.4L64.3-.4c.2-.1.4-.1.5 0l63.5 40.9c.1.1.2.2.2.4s-.1.3-.2.4L69.2 90.7c-.1.1-.2.1-.4.1M.9 40.9l67.9 48.8 58.3-48.8L64.5.6z" class="st0"/><path id="形状" d="M63.5 19.4c5.6 0 10 1.2 13 3.6S81 28.8 81 33.3c0 4.4-1.5 7.9-4.5 10.2s-7.4 3.6-13 3.6H52.1v20.3h-1.4v-48zm-.1 26.4c5.3 0 9.3-1.1 12.1-3.2 2.8-2.2 4.2-5.2 4.2-9.2s-1.4-7.2-4.2-9.3-6.8-3.2-12.1-3.2H52.1v25z" class="st0"/></g></g></svg>