<svg xmlns="http://www.w3.org/2000/svg" xml:space="preserve" id="图层_1" x="0" y="0" viewBox="0 0 130 44"><style>.st0{fill:#fff}</style><g id="页面-1"><g id="_x32_-188" transform="translate(.94 .25)"><path id="路径" d="M60.5 0v17.1h9.6v.9H59.5V0z" class="st0"/><path d="M33.1 43.5H0c-.3 0-.5-.2-.5-.5V9.8c0-.3.2-.5.5-.5h33.1c.3 0 .5.2.5.5V43c0 .3-.2.5-.5.5m-32.6-1h32.1V10.3H.5zM128 43.7H94.9c-.3 0-.5-.2-.5-.5V10c0-.3.2-.5.5-.5H128c.3 0 .5.2.5.5v33.2c0 .2-.2.5-.5.5m-32.6-1h32.2V10.5H95.4z" class="st0"/><path d="M33.1 25.9h12.5v1H33.1zm17.2.2h44.6v1H50.3z" class="st0"/></g></g></svg>