<svg xmlns="http://www.w3.org/2000/svg" xml:space="preserve" id="图层_1" x="0" y="0" viewBox="0 0 130 92"><style>.st0{fill:#fff}</style><g id="页面-1"><g id="_x32_-182"><path d="M69.74 91.55c-.1 0-.2 0-.3-.1L.64 42.05c-.1-.1-.2-.3-.2-.4s.1-.3.2-.4L65.24.35c.2-.1.4-.1.5 0l63.5 40.9c.1.1.2.2.2.4s-.1.3-.2.4l-59.1 49.4c-.1.1-.2.1-.4.1m-67.9-49.9 67.9 48.8 58.3-48.8-62.6-40.3z" class="st0"/><path d="M47.14 61.45c-7.4 0-13.4-6-13.4-13.4s6-13.4 13.4-13.4 13.4 6 13.4 13.4-6 13.4-13.4 13.4m0-25.8c-6.8 0-12.4 5.6-12.4 12.4s5.6 12.4 12.4 12.4 12.4-5.6 12.4-12.4-5.5-12.4-12.4-12.4" class="st0"/><path d="M60.14 47.55h46.2v1h-46.2zm-1.274-5.369 25.802-8.609.317.95-25.802 8.608zm-6.256-6.086L66.253 24.05l.662.75L53.27 36.845z" class="st0"/></g></g></svg>