<svg xmlns="http://www.w3.org/2000/svg" xml:space="preserve" id="图层_1" x="0" y="0" viewBox="0 0 102 130"><style>.st0{fill:#fff}</style><g id="页面-1"><g id="_x32_-184" transform="translate(.94 .75)"><path id="路径" d="M51.6 80h-.9V50h1.2l12 23.7h.1L76 50h1.2v30h-.8V51.5h-.1L64.4 74.7h-.8L51.7 51.5h-.1z" class="st0"/><path d="M100 128.5c-.1 0-.2 0-.3-.1l-100-64c-.1-.1-.2-.3-.2-.4s.1-.3.2-.4l100-64c.2-.1.3-.1.5 0s.3.3.3.4v128c0 .2-.1.4-.3.4 0 .1-.1.1-.2.1M.9 64l98.6 63.1V.9z" class="st0"/></g></g></svg>