<svg xmlns="http://www.w3.org/2000/svg" xml:space="preserve" id="图层_1" x="0" y="0" viewBox="0 0 130 44"><style>.st0{fill:#fff}</style><g id="页面-1"><g id="_x32_-187" transform="translate(.94 .25)"><path id="路径" d="M56.8 18.1h-1V0H57l7 13.3L71 0h1.2v18.1h-1V1.8h-.1l-6.8 12.8h-.6L56.9 1.8h-.1z" class="st0"/><path id="路径_1_" d="M12.3 35.9h-1V18.8h-6v-.9h13v.9h-6z" class="st0"/><path id="路径_2_" d="m21.9 29.5 4.5 6.4h-1.2l-3.8-5.7-3.9 5.7h-1.2l4.5-6.5-4.1-6h1.1l3.6 5.4 3.6-5.4h1.1z" class="st0"/><path d="M33.1 43.5H0c-.3 0-.5-.2-.5-.5V9.8c0-.3.2-.5.5-.5h33.1c.3 0 .5.2.5.5V43c0 .2-.2.5-.5.5m-32.6-1h32.1V10.3H.5z" class="st0"/><path id="形状" d="M112.2 36.1h-1.1l-4.8-8.1h-4.9v8.1h-.9v-18h4.9c1.7-.1 3.4.3 4.8 1.3 1.1.9 1.8 2.3 1.7 3.7.1 1.2-.4 2.3-1.2 3.2-.9.9-2.1 1.4-3.4 1.6zm-7-9c1.5.1 2.9-.3 4.2-1 1-.7 1.5-1.8 1.5-3s-.5-2.3-1.5-3c-1.3-.8-2.7-1.2-4.2-1.1h-3.9v8.1z" class="st0"/><path id="路径_3_" d="m118.7 29.7 4.5 6.4H122l-3.9-5.7-3.9 5.7h-1.1l4.5-6.5-4.1-6h1.1l3.6 5.4 3.6-5.4h1z" class="st0"/><path d="M128 43.6H94.9c-.3 0-.5-.2-.5-.5V10c0-.3.2-.5.5-.5H128c.3 0 .5.2.5.5v33.1c0 .3-.2.5-.5.5m-32.6-1h32.2V10.5H95.4zM33.1 25.9h12.5v1H33.1z" class="st0"/><path d="M50.3 26.1h44.6v1H50.3z" class="st0"/></g></g></svg>