<svg xmlns="http://www.w3.org/2000/svg" xml:space="preserve" id="图层_1" x="0" y="0" viewBox="0 0 130 44"><style>.st0{fill:#fff}</style><g id="页面-1"><g id="_x32_-190" transform="translate(.94 .25)"><path id="路径" d="M51.7 0v17.1h9.6v.9H50.8V0z" class="st0"/><path id="形状" d="M63.8 18V0h5c2.9 0 5.2.8 6.7 2.3C77.2 4.2 78 6.6 77.8 9c.2 2.5-.7 4.9-2.4 6.7q-2.4 2.4-6.9 2.4h-4.7zm4.6-.9c2.3.1 4.5-.6 6.2-2.1 1.5-1.6 2.3-3.8 2.2-6 .1-2.2-.6-4.4-2.1-6C73 1.5 70.8.8 68.6.9h-3.9v16.2z" class="st0"/><path d="M33.1 43.5H0c-.3 0-.5-.2-.5-.5V9.8c0-.3.2-.5.5-.5h33.1c.3 0 .5.2.5.5V43c0 .3-.2.5-.5.5m-32.6-1h32.1V10.3H.5zM128 43.7H94.9c-.3 0-.5-.2-.5-.5V10c0-.3.2-.5.5-.5H128c.3 0 .5.2.5.5v33.2c0 .2-.2.5-.5.5m-32.6-1h32.2V10.5H95.4z" class="st0"/><path d="M33.1 25.9h12.5v1H33.1zm17.2.2h44.6v1H50.3z" class="st0"/></g></g></svg>