<svg xmlns="http://www.w3.org/2000/svg" xml:space="preserve" id="图层_1" x="0" y="0" viewBox="0 0 130 87"><style>.st0{fill:#fff}</style><g id="页面-1"><g id="_x32_-194"><path d="M128.94 86.55H.94c-.3 0-.5-.2-.5-.5V.75c0-.3.2-.5.5-.5h128c.3 0 .5.2.5.5v85.3c0 .3-.2.5-.5.5m-127.5-1h127V1.25h-127z" class="st0"/><path d="M71.14 1.85h1v21.7h-1zm28.5 0h1v21.7h-1zm-28.5 61.4h1v21.7h-1zm28.5 0h1v21.7h-1zm-54.9-5.5h-33.7c-.3 0-.5-.2-.5-.5v-23.2c0-.3.2-.5.5-.5h33.7c.3 0 .5.2.5.5v23.2c0 .3-.2.5-.5.5m-33.2-1h32.7v-22.2h-32.7z" class="st0"/><path d="M61.24 56.25c-.1 0-.2 0-.2-.1l-16.5-8.9c-.2-.1-.3-.2-.3-.4s.1-.3.2-.4l16.5-11.3c.2-.1.4-.1.5 0 .2.1.3.3.3.4v20.1c0 .2-.1.3-.2.4s-.2.2-.3.2m-15.5-9.5 15 8.1v-18.3z" class="st0"/></g></g></svg>