<svg xmlns="http://www.w3.org/2000/svg" xml:space="preserve" id="图层_1" x="0" y="0" viewBox="0 0 130 87"><style>.st0{fill:#fff}</style><g id="页面-1"><g id="_x32_-191"><path d="M128.94 86.55H.94c-.3 0-.5-.2-.5-.5V.75c0-.3.2-.5.5-.5h128c.3 0 .5.2.5.5v85.3c0 .3-.2.5-.5.5m-127.5-1h127V1.25h-127z" class="st0"/><path d="M33.54 56.25c-7.3 0-13.2-5.9-13.2-13.2s5.9-13.2 13.2-13.2 13.2 5.9 13.2 13.2-5.9 13.2-13.2 13.2m0-25.4c-6.7 0-12.2 5.5-12.2 12.2s5.5 12.2 12.2 12.2 12.2-5.5 12.2-12.2c0-6.8-5.5-12.2-12.2-12.2m37.6-29h1v21.7h-1zm28.5 0h1v21.7h-1zm-28.5 61.4h1v21.7h-1zm28.5 0h1v21.7h-1z" class="st0"/></g></g></svg>