<svg xmlns="http://www.w3.org/2000/svg" xml:space="preserve" id="图层_1" x="0" y="0" viewBox="0 0 130 89"><style>.st0{fill:#fff}</style><g id="页面-1"><g id="_x32_-198"><path d="M128.94 88.65H.94c-.3 0-.5-.2-.5-.5V.75c0-.3.2-.5.5-.5h128c.3 0 .5.2.5.5v87.4c0 .3-.2.5-.5.5m-127.5-1h127V1.25h-127z" class="st0"/><path d="M59.94 65.75h-46c-.3 0-.5-.2-.5-.5v-41.5c0-.3.2-.5.5-.5h46c.3 0 .5.2.5.5v41.5c0 .2-.2.5-.5.5m-45.4-1h45v-40.5h-45z" class="st0"/><path d="M14.04 43.95h46v1h-46z" class="st0"/><path d="M36.94 24.65h1v40.6h-1zm23.087 20.054 10.817-16.226.832.555-10.817 16.226z" class="st0"/><path d="m59.563 44.744.826-.565 11.746 17.167-.826.564zM89.742 57.23l17.177-26.163.836.549L90.578 57.78z" class="st0"/><path d="m89.76 31.681.836-.548 17.156 26.18-.836.548zm27.48 27.669v-1c5.9 0 10.8-6.2 10.8-13.9s-4.8-13.9-10.8-13.9v-1c6.5 0 11.8 6.7 11.8 14.9s-5.3 14.9-11.8 14.9" class="st0"/></g></g></svg>