<svg xmlns="http://www.w3.org/2000/svg" xml:space="preserve" id="图层_1" x="0" y="0" viewBox="0 0 130 128"><style>.st0{fill:#fff}</style><g id="页面-1"><g id="_x32_-206"><path d="M64.44 127.25c-25.5 0-46.3-24.7-46.3-55.2 0-30.3 20.8-55.1 46.3-55.1s46.3 24.7 46.3 55.1c0 30.5-20.8 55.2-46.3 55.2m0-109.3c-25 0-45.3 24.3-45.3 54.1s20.3 54.2 45.3 54.2 45.3-24.3 45.3-54.2-20.3-54.1-45.3-54.1" class="st0"/><path d="m110.24 72.15-.1-1 18.2-1c-.1-38-28.5-68.9-63.4-68.9s-63.3 30.9-63.5 68.9l17.2 1-.1 1-17.6-1c-.3 0-.5-.2-.5-.5 0-38.8 28.9-70.4 64.5-70.4s64.5 31.6 64.5 70.4c0 .3-.2.5-.5.5z" class="st0"/></g></g></svg>