<svg xmlns="http://www.w3.org/2000/svg" xml:space="preserve" id="图层_1" x="0" y="0" viewBox="0 0 130 105"><style>.st0{fill:#fff}</style><g id="页面-1"><g id="_x32_-200" transform="translate(.94 .25)"><path d="M128 86.5H0c-.3 0-.5-.2-.5-.5V18c0-.3.2-.5.5-.5h128c.3 0 .5.2.5.5v68c0 .3-.2.5-.5.5M.5 85.5h127v-67H.5z" class="st0"/><path d="M63.5 86h1v18h-1zm0-86h1v18h-1z" class="st0"/><path id="路径_2_" d="m51.5 70.3-13.1-36h1.1L52 68.7h.1l12.5-34.4h1.1l-13.1 36z" class="st0"/><path id="形状" d="M89.7 70.3h-1.1l-4.8-13.2H68.2l-4.8 13.2h-1.1l13.1-36h1.2zM75.9 35.9l-7.3 20.2h14.8z" class="st0"/></g></g></svg>