<svg xmlns="http://www.w3.org/2000/svg" xml:space="preserve" id="图层_1" x="0" y="0" viewBox="0 0 130 130"><style>.st0{fill:#fff}</style><g id="页面-1"><g id="_x32_-208" transform="translate(.944 .75)"><path d="M64 128.5c-.1 0-.3 0-.4-.1l-64-64c-.2-.2-.2-.5 0-.7l64-64c.2-.2.5-.2.7 0l64 64c.1.1.1.2.1.4s-.1.3-.1.4l-64 64zM.7 64 64 127.3 127.3 64 64 .7z" class="st0"/><path id="路径" d="M47.9 86.3h-1.2v-39h1.6L63.9 78h.1l15.7-30.7h1.6v39h-1.2V49.2H80L64.6 79.4h-1.2L48 49.2h-.1z" class="st0"/></g></g></svg>