<svg xmlns="http://www.w3.org/2000/svg" xml:space="preserve" id="图层_1" x="0" y="0" viewBox="0 0 130 130"><style>.st0{fill:#fff}</style><g id="页面-1"><g id="_x32_-207"><path d="M64.94 129.25c-35.6 0-64.5-28.9-64.5-64.5S29.34.25 64.94.25s64.5 28.9 64.5 64.5-28.9 64.5-64.5 64.5m0-128c-35 0-63.5 28.5-63.5 63.5s28.5 63.5 63.5 63.5 63.5-28.5 63.5-63.5-28.5-63.5-63.5-63.5" class="st0"/><path d="M64.94 85.75c-10.5 0-19-8.5-19-19s8.5-19 19-19 19 8.5 19 19c0 10.4-8.5 19-19 19m0-37c-9.9 0-18 8.1-18 18s8.1 18 18 18 18-8.1 18-18-8.1-18-18-18" class="st0"/><path d="m1.14 59.25-.5-.9c.6-.3 56.5-28.5 127.7-3.1l-.3.9c-70.7-25.3-126.3 2.8-126.9 3.1m66.8 29c-40 0-66.8-13.5-67.2-13.7l.5-.9c.6.3 56.1 28.3 127 3.1l.3.9c-22.1 7.9-42.7 10.6-60.6 10.6" class="st0"/></g></g></svg>