<svg xmlns="http://www.w3.org/2000/svg" xml:space="preserve" id="图层_1" x="0" y="0" viewBox="0 0 130 130"><style>.st0{fill:#fff}</style><g id="页面-1"><g id="_x32_-212" transform="translate(.94 .75)"><path d="M128 128.5H0c-.3 0-.5-.2-.5-.5V0c0-.3.2-.5.5-.5h128c.3 0 .5.2.5.5v128c0 .3-.2.5-.5.5m-127.5-1h127V.5H.5z" class="st0"/><path d="M0 128.5h-.2c-.2-.1-.3-.3-.3-.5V0c0-.3.2-.5.5-.5h128c.2 0 .4.1.5.3s0 .4-.1.5l-128 128c-.1.1-.3.2-.4.2M.5.5v126.3L126.8.5z" class="st0"/><path id="形状" d="M26.5 59.5c-2.6-1.8-4.6-4.3-5.9-7.2-1.5-3.3-2.2-6.9-2.1-10.5-.1-3.6.7-7.1 2.1-10.4 1.3-2.9 3.3-5.4 5.9-7.2a15.2 15.2 0 0 1 17 0c2.6 1.8 4.6 4.3 5.8 7.2 1.5 3.3 2.2 6.8 2.2 10.4.1 3.6-.7 7.2-2.1 10.5-1.3 2.9-3.3 5.4-5.9 7.2-2.5 1.7-5.5 2.6-8.5 2.6-3.1 0-6-.9-8.5-2.6m16.4-1c2.4-1.7 4.3-4.1 5.5-6.8 1.4-3.1 2-6.5 2-9.9s-.6-6.7-2-9.8c-1.2-2.7-3-5.1-5.5-6.8-4.8-3.3-11.1-3.3-15.9 0-2.4 1.7-4.3 4.1-5.5 6.8-1.3 3.1-2 6.5-2 9.8-.1 3.4.6 6.8 2 9.9 1.2 2.7 3 5.1 5.5 6.8 4.9 3.3 11.1 3.3 15.9 0" class="st0"/><path id="路径_1_" d="M86.9 87.5v18.7h21.5v1.1H85.8v-39h21.9v1.1H86.9v17h19.6v1.1z" class="st0"/></g></g></svg>