<svg xmlns="http://www.w3.org/2000/svg" xml:space="preserve" id="图层_1" x="0" y="0" viewBox="0 0 130 130"><style>.st0{fill:#fff}</style><g id="页面-1"><g id="_x32_-217" transform="translate(.94 .75)"><path d="M128 128.5H0c-.3 0-.5-.2-.5-.5V0c0-.3.2-.5.5-.5h128c.3 0 .5.2.5.5v128c0 .3-.2.5-.5.5m-127.5-1h127V.5H.5z" class="st0"/><path id="形状" d="M63.5 43.1c5.6 0 10 1.2 13 3.6S81 52.5 81 57s-1.5 7.9-4.5 10.2-7.4 3.6-13 3.6H52.1v20.3h-1.4v-48zm-.1 26.4c5.3 0 9.3-1.1 12.1-3.2 2.8-2.2 4.2-5.2 4.2-9.2q0-6.15-4.2-9.3c-2.8-2.2-6.8-3.2-12.1-3.2H52.1v25h11.3z" class="st0"/></g></g></svg>