<svg xmlns="http://www.w3.org/2000/svg" xml:space="preserve" id="图层_1" x="0" y="0" viewBox="0 0 130 130"><style>.st0{fill:#fff}</style><g id="页面-1"><g id="_x32_-224" transform="translate(.94 .75)"><path d="M64 128.5C28.4 128.5-.5 99.6-.5 64S28.4-.5 64-.5s64.5 28.9 64.5 64.5-28.9 64.5-64.5 64.5m0-128C29 .5.5 29 .5 64S29 127.5 64 127.5 127.5 99 127.5 64 99 .5 64 .5" class="st0"/><path d="M63.5 73.3h1v54.2h-1z" class="st0"/><path d="M54.216 109.446 72.87 80.9l.837.547-18.653 28.545z" class="st0"/><path d="m54.209 81.368.836-.548 18.68 28.528-.836.548z" class="st0"/><path id="路径_3_" d="M44.6 28c-2.3 1.5-4 3.6-5.1 6.1-1.3 3-1.9 6.1-1.8 9.4-.1 3.2.5 6.4 1.8 9.4 1 2.5 2.8 4.6 5 6.1 2.3 1.5 5 2.2 7.7 2.2 4.4 0 8.5-1.9 11.4-5.3V45.1h-9.4v-1h10.4v12.2c-3.6 3.9-7.8 5.9-12.4 5.9-2.9.1-5.8-.7-8.3-2.3-2.4-1.6-4.3-3.8-5.4-6.4-1.3-3.1-2-6.5-1.9-9.9-.1-3.4.5-6.8 1.9-9.9 1.2-2.7 3.1-4.9 5.5-6.5 2.5-1.6 5.5-2.4 8.5-2.3 2.1 0 4.1.4 6 1.3 1.9.8 3.5 2.1 4.8 3.7l-.8.8c-1.2-1.5-2.7-2.7-4.4-3.5-1.8-.8-3.7-1.2-5.6-1.2-2.8-.2-5.5.6-7.9 2" class="st0"/><path id="路径_4_" d="M80.9 61.5h-1v-35H67.6v-1h25.6v1H80.9z" class="st0"/></g></g></svg>