<svg xmlns="http://www.w3.org/2000/svg" xml:space="preserve" id="图层_1" x="0" y="0" viewBox="0 0 130 130"><style>.st0{fill:#fff}</style><g id="页面-1"><g id="_x32_-233" transform="translate(.94 .75)"><path d="M64 128.5C28.4 128.5-.5 99.6-.5 64S28.4-.5 64-.5s64.5 28.9 64.5 64.5-28.9 64.5-64.5 64.5m0-128C29 .5.5 29 .5 64S29 127.5 64 127.5 127.5 99 127.5 64 99 .5 64 .5" class="st0"/><path d="M63.5 73.3h1v54.2h-1z" class="st0"/><path d="M54.216 109.446 72.87 80.9l.837.547-18.653 28.545z" class="st0"/><path d="m54.209 81.368.836-.548 18.68 28.528-.836.548z" class="st0"/><path id="路径_3_" d="M56.2 59.7c1.7-1 3-2.5 3.9-4.3.9-2.1 1.4-4.3 1.3-6.6V25.5h1.1v23.6c.1 2.4-.4 4.8-1.5 7-.9 1.9-2.4 3.5-4.2 4.6-2 1.1-4.2 1.6-6.4 1.6-2.2.1-4.5-.5-6.4-1.6-1.8-1.1-3.3-2.7-4.2-4.6-1-2.2-1.5-4.6-1.5-7V25.5h1v23.1c-.1 2.3.4 4.5 1.3 6.6.8 1.8 2.2 3.3 3.9 4.3 1.8 1 3.8 1.6 5.9 1.5 2 .2 4-.3 5.8-1.3" class="st0"/><path id="路径_4_" d="M80.7 61.5h-1v-35H67.4v-1H93v1H80.7z" class="st0"/></g></g></svg>