<svg xmlns="http://www.w3.org/2000/svg" xml:space="preserve" id="图层_1" x="0" y="0" viewBox="0 0 130 130"><style>.st0{fill:#fff}</style><g id="页面-1"><g id="_x32_-231" transform="translate(.94 .75)"><path d="M64 128.5C28.4 128.5-.5 99.6-.5 64S28.4-.5 64-.5s64.5 28.9 64.5 64.5-28.9 64.5-64.5 64.5m0-128C29 .5.5 29 .5 64S29 127.5 64 127.5 127.5 99 127.5 64 99 .5 64 .5" class="st0"/><path d="M63.5 73.3h1v54.2h-1z" class="st0"/><path d="M54.216 109.446 72.87 80.9l.837.547-18.653 28.545z" class="st0"/><path d="m54.209 81.368.836-.548 18.68 28.528-.836.548z" class="st0"/><path id="形状" d="M33.5 25.5c4.2 0 7.5.9 9.7 2.7 2.3 1.9 3.6 4.7 3.4 7.7.2 3-1.1 5.8-3.4 7.7-2.3 1.8-5.5 2.7-9.7 2.7h-8.6v15.2h-1.1v-36zm-.2 19.8c3.9 0 7-.8 9.1-2.4 2.1-1.7 3.3-4.3 3.1-6.9.2-2.7-1-5.3-3.2-7-2.1-1.6-5.1-2.4-9.1-2.4h-8.4v18.8h8.5z" class="st0"/><path id="形状_1_" d="M51.8 61.5v-36h9.4c5.9 0 10.5 1.6 13.7 4.7s4.8 7.5 4.8 13.3-1.6 10.2-4.9 13.3c-3.2 3.1-7.9 4.7-13.9 4.7zm8.9-1c5.8 0 10.2-1.5 13.3-4.4s4.6-7.1 4.6-12.6q0-8.25-4.5-12.6c-3-2.9-7.4-4.4-13-4.4H53v33.9z" class="st0"/><path id="路径_3_" d="M95.1 61.5H94v-35H81.7v-1h25.7v1H95.1z" class="st0"/></g></g></svg>