<svg xmlns="http://www.w3.org/2000/svg" xml:space="preserve" id="图层_1" x="0" y="0" viewBox="0 0 130 70"><style>.st0{fill:#fff}</style><g id="页面-1"><g id="_x32_-236" transform="translate(.94 .75)"><path d="M128 68.5H0c-.3 0-.5-.2-.5-.5V0c0-.3.2-.5.5-.5h128c.3 0 .5.2.5.5v68c0 .3-.2.5-.5.5M.5 67.5h127V.5H.5z" class="st0"/><path id="形状" d="M28.1 52.4v-36h9.4c5.9 0 10.5 1.6 13.7 4.7S56 28.7 56 34.4c0 5.8-1.6 10.2-4.9 13.4-3.2 3.1-7.9 4.7-14 4.7h-9zm8.8-1.1c5.8 0 10.2-1.5 13.3-4.4s4.6-7.1 4.6-12.6-1.5-9.7-4.5-12.6-7.4-4.4-13-4.4h-8.1v34z" class="st0"/><path id="路径" d="M71.8 16.4h1.1L61.6 52.3h-1.1z" class="st0"/><path id="形状_1_" d="M103.1 52.3H102l-4.8-13.2H81.6l-4.8 13.2h-1.1l13.1-36H90zM89.3 17.9 82 38.1h14.8l-7.3-20.2z" class="st0"/></g></g></svg>