<svg xmlns="http://www.w3.org/2000/svg" xml:space="preserve" id="图层_1" x="0" y="0" viewBox="0 0 130 130"><style>.st0{fill:#fff}</style><g id="页面-1"><g id="_x32_-232" transform="translate(.94 .75)"><path d="M64 128.5C28.4 128.5-.5 99.6-.5 64S28.4-.5 64-.5s64.5 28.9 64.5 64.5-28.9 64.5-64.5 64.5m0-128C29 .5.5 29 .5 64S29 127.5 64 127.5 127.5 99 127.5 64 99 .5 64 .5" class="st0"/><path d="M63.5 73.3h1v54.2h-1z" class="st0"/><path d="M54.216 109.446 72.87 80.9l.837.547-18.653 28.545z" class="st0"/><path d="m54.209 81.368.836-.548 18.68 28.528-.836.548z" class="st0"/><path id="路径_3_" d="M50.8 25.5v36h-1v-36z" class="st0"/><path id="路径_4_" d="M69.1 61.5H68v-35H55.7v-1h25.7v1H69.1z" class="st0"/></g></g></svg>