<svg xmlns="http://www.w3.org/2000/svg" xml:space="preserve" id="图层_1" x="0" y="0" viewBox="0 0 130 70"><style>.st0{fill:#fff}</style><g id="页面-1"><g id="_x32_-241" transform="translate(.94 .75)"><path d="M128 68.5H0c-.3 0-.5-.2-.5-.5V0c0-.3.2-.5.5-.5h128c.3 0 .5.2.5.5v68c0 .3-.2.5-.5.5M.5 67.5h127V.5H.5z" class="st0"/><path id="形状" d="M37.3 33.5c2.6.2 5.1 1.2 7 2.9 1.7 1.6 2.6 3.8 2.5 6.1.1 2.9-1.3 5.7-3.7 7.3-2.5 1.7-6 2.5-10.6 2.5H24v-36h8.3c4 0 7.1.8 9.3 2.2 2.1 1.4 3.3 3.8 3.2 6.4 0 2-.7 4-2.1 5.5-1.4 1.6-3.4 2.6-5.5 2.9v.2zM25.1 17.4V33h8.5c2.7.1 5.3-.6 7.5-2.1 1.8-1.4 2.9-3.5 2.8-5.8.1-2.3-1.1-4.5-3-5.7-2-1.3-4.9-2-8.6-2zm7.1 34c4.3 0 7.7-.8 10.1-2.3 2.3-1.4 3.6-3.9 3.5-6.6.1-2.5-1.1-4.9-3.3-6.3-2.2-1.5-5.1-2.2-9-2.2h-8.4v17.4z" class="st0"/><path id="形状_1_" d="M76.7 52.3h-1.1l-4.8-13.2H55.3l-4.8 13.2h-1.1l13.1-36h1.2zM63 17.9l-7.4 20.2h14.8z" class="st0"/><path id="路径" d="M105.7 48.1c-1.2 1.6-2.9 2.8-4.7 3.6-1.9.9-4 1.3-6.2 1.3-3 .1-5.9-.7-8.4-2.3-2.4-1.6-4.3-3.9-5.5-6.6-1.3-3.2-2-6.6-1.9-10-.1-3.4.6-6.7 1.9-9.8 1.2-2.6 3.1-4.9 5.5-6.4 2.5-1.5 5.5-2.3 8.4-2.3 2 0 4 .4 5.8 1.3 1.9.9 3.6 2.1 5 3.6l-.8.7c-1.3-1.4-2.9-2.6-4.7-3.4-1.7-.8-3.6-1.2-5.5-1.2-2.8-.1-5.5.7-7.8 2.1-2.3 1.5-4.1 3.6-5.1 6.1-1.3 2.9-1.9 6.1-1.8 9.3-.1 3.3.5 6.5 1.8 9.5 1.1 2.5 2.9 4.7 5.1 6.2 2.3 1.5 5.1 2.2 7.8 2.2 3.9.2 7.7-1.6 10.1-4.7z" class="st0"/></g></g></svg>