<svg xmlns="http://www.w3.org/2000/svg" xml:space="preserve" id="图层_1" x="0" y="0" viewBox="0 0 130 70"><style>.st0{fill:#fff}</style><g id="页面-1"><g id="_x32_-245" transform="translate(.94 .75)"><path d="M128 68.5H0c-.3 0-.5-.2-.5-.5V0c0-.3.2-.5.5-.5h128c.3 0 .5.2.5.5v68c0 .3-.2.5-.5.5M.5 67.5h127V.5H.5z" class="st0"/><path id="路径" d="m32.8 52.3-9.7-35.9h1.1l9.2 34.1h.1l9.9-34.2h1.3l9.8 34.2h.1l9.3-34.1H65l-9.8 35.9H54L44.1 18H44L34 52.3z" class="st0"/><path id="路径_1_" d="M71 52.5h-1.1v-36h1.4l14.5 28.3h.1l14.4-28.3h1.5v36h-1.1V18.2h-.1L86.4 46.1h-1.1L71.1 18.2H71z" class="st0"/></g></g></svg>