<svg xmlns="http://www.w3.org/2000/svg" xml:space="preserve" id="图层_1" x="0" y="0" viewBox="0 0 69 130"><style>.st0{fill:#fff}</style><g id="页面-1"><g id="_x32_-249"><path d="M68.04 129.25H.94c-.3 0-.5-.2-.5-.5V.75c0-.3.2-.5.5-.5h67.1c.3 0 .5.2.5.5v128c0 .3-.2.5-.5.5m-66.6-1h66.1v-127H1.44z" class="st0"/><path d="m1.04 129.25-.3-1 65.6-17.4-65.6-24.7c-.2-.1-.3-.3-.3-.5s.2-.4.4-.5l65.5-16.3-65.6-22.5c-.2-.1-.3-.3-.3-.5s.2-.4.4-.5l65.7-18.6L.74 1.25l.4-.9 67.1 26.1c.2.1.3.3.3.5s-.2.4-.4.5l-65.5 18.5 65.6 22.6c.2.1.3.3.3.5s-.2.4-.4.5l-65.5 16.2 65.6 24.7c.2.1.3.3.3.5s-.2.4-.4.5z" class="st0"/><path d="M34.04.75h1v128h-1zm-18 0h1v128h-1zm36 0h1v128h-1z" class="st0"/></g></g></svg>