<svg xmlns="http://www.w3.org/2000/svg" xml:space="preserve" id="图层_1" x="0" y="0" viewBox="0 0 66 130"><style>.st0{fill:#fff}</style><g id="页面-1"><g id="_x32_-262" transform="translate(.94 .75)"><path d="M31.9 44.9c-12.5 0-22.7-10.2-22.7-22.7S19.4-.5 31.9-.5 54.6 9.7 54.6 22.2 44.4 44.9 31.9 44.9m0-44.4c-12 0-21.7 9.7-21.7 21.7s9.7 21.7 21.7 21.7 21.7-9.7 21.7-21.7S43.9.5 31.9.5" class="st0"/><path id="路径" d="M24.7 32.9h-.9v-18h1.1l7 13.3 7-13.3H40v18h-1V16.6l-6.7 12.9h-.7l-6.8-12.9h-.1z" class="st0"/><path d="M31.4 44.4h1v39.9h-1z" class="st0"/><circle id="椭圆形_2_" cx="31.6" cy="106.2" r="5.9" class="st0"/><path d="M31.6 112.5c-3.5 0-6.4-2.9-6.4-6.4s2.9-6.4 6.4-6.4 6.4 2.9 6.4 6.4c0 3.6-2.9 6.4-6.4 6.4m0-11.7c-3 0-5.4 2.4-5.4 5.4s2.4 5.4 5.4 5.4 5.4-2.4 5.4-5.4-2.5-5.4-5.4-5.4" class="st0"/><path d="M63.8 128.5H0c-.3 0-.5-.2-.5-.5V84.3c0-.3.2-.5.5-.5h63.8c.3 0 .5.2.5.5V128c0 .3-.2.5-.5.5m-63.3-1h62.8V84.8H.5z" class="st0"/><path d="M-.318 127.595 63.506 83.81l.566.825L.248 128.42z" class="st0"/></g></g></svg>