<svg xmlns="http://www.w3.org/2000/svg" xml:space="preserve" id="图层_1" x="0" y="0" viewBox="0 0 130 130"><style>.st0{fill:#fff}</style><g id="页面-1"><g id="_x32_-267"><path d="M128.94 129.25H.94c-.3 0-.5-.2-.5-.5V.75c0-.3.2-.5.5-.5h128c.3 0 .5.2.5.5v128c0 .3-.2.5-.5.5m-127.5-1h127v-127h-127z" class="st0"/><path d="M.94 106.05h128v1H.94zm64-18.8c-17.4 0-31.5-14.1-31.5-31.5s14.1-31.5 31.5-31.5 31.5 14.2 31.5 31.5c0 17.4-14.1 31.5-31.5 31.5m0-61.9c-16.8 0-30.5 13.7-30.5 30.5s13.7 30.4 30.5 30.4 30.5-13.7 30.5-30.5-13.7-30.4-30.5-30.4" class="st0"/><path d="M64.94 73.05c-9.5 0-17.3-7.8-17.3-17.3s7.8-17.2 17.3-17.2 17.3 7.8 17.3 17.3-7.8 17.2-17.3 17.2m0-33.5c-9 0-16.3 7.3-16.3 16.3s7.3 16.3 16.3 16.3 16.3-7.3 16.3-16.3-7.3-16.3-16.3-16.3" class="st0"/></g></g></svg>