<svg xmlns="http://www.w3.org/2000/svg" xml:space="preserve" id="图层_1" x="0" y="0" viewBox="0 0 130 129"><style>.st0{fill:#fff}</style><g id="页面-1"><g id="_x32_-260" transform="translate(.94 .75)"><path d="M128 114.4h-.2l-64-30.2c-.2-.1-.3-.3-.3-.5s.1-.4.3-.5l64-29.8c.2-.1.3-.1.5 0 .1.1.2.3.2.4v60c0 .2-.1.3-.2.4s-.2.2-.3.2M65.2 83.7l62.3 29.4V54.7z" class="st0"/><path d="M0 114.4c-.1 0-.2 0-.3-.1s-.2-.3-.2-.4v-60c0-.2.1-.3.2-.4s.3-.1.5 0l64 29.8c.2.1.3.3.3.5s-.1.4-.3.5l-64 30.2c-.1-.1-.1-.1-.2-.1m.5-59.7v58.4l62.3-29.4zm97 45.3h1v28h-1z" class="st0"/><path d="M29.5 100h1v28h-1zM64 53.5c-14.9 0-27-12.1-27-27s12.1-27 27-27 27 12.1 27 27-12.1 27-27 27m0-53c-14.3 0-26 11.7-26 26s11.7 26 26 26 26-11.7 26-26S78.3.5 64 .5" class="st0"/><path id="路径_4_" d="M56.8 35.9h-1v-18H57l7 13.3 7-13.3h1.2v18h-1V19.6h-.1l-6.8 12.9h-.6l-6.8-12.9h-.1z" class="st0"/><path d="M63.5 53h1v30.6h-1z" class="st0"/></g></g></svg>