<svg xmlns="http://www.w3.org/2000/svg" xml:space="preserve" id="图层_1" x="0" y="0" viewBox="0 0 130 130"><style>.st0{fill:#fff}</style><g id="页面-1"><g id="_x32_-263"><path d="M63.94 102.55c-1.4 0-2.8-.1-4.2-.2l-34.2-4.3c-.2 0-.4-.2-.4-.4l-6-21.6c-2.4-8.6-2.2-17.7.5-26.3l5.4-17c.1-.2.2-.3.4-.3l32.1-5c4.1-.6 8.4-.7 12.5-.1l35.7 5.1c.2 0 .4.2.4.4l5.1 22.9c1.4 6.2 1.4 12.8 0 19.1l-5.1 22.8c0 .2-.2.4-.4.4l-37.7 4.3c-1.4.2-2.8.2-4.1.2m-37.9-5.5 33.8 4.3q4.05.45 8.1 0l37.4-4.3 5-22.4c1.4-6.1 1.4-12.5 0-18.6l-5-22.5-35.3-5.1c-4.1-.6-8.2-.6-12.2.1l-31.8 5-5.3 16.7c-2.7 8.4-2.9 17.3-.5 25.7z" class="st0"/><path d="M64.94 129.25c-35.6 0-64.5-28.9-64.5-64.5S29.34.25 64.94.25s64.5 28.9 64.5 64.5-28.9 64.5-64.5 64.5m0-128c-35 0-63.5 28.5-63.5 63.5s28.5 63.5 63.5 63.5 63.5-28.5 63.5-63.5-28.5-63.5-63.5-63.5" class="st0"/></g></g></svg>