<svg xmlns="http://www.w3.org/2000/svg" xml:space="preserve" id="图层_1" x="0" y="0" viewBox="0 0 38 130"><style>.st0{fill:#fff}</style><g id="页面-1"><g id="_x32_-261" transform="translate(1.07 .75)"><path d="M18.2 34.7C8.5 34.7.6 26.8.6 17.1S8.5-.5 18.2-.5s17.6 7.9 17.6 17.6-7.9 17.6-17.6 17.6m0-34.2C9 .5 1.6 7.9 1.6 17.1S9 33.7 18.2 33.7s16.6-7.4 16.6-16.6S27.3.5 18.2.5" class="st0"/><path id="路径" d="M11 26.9h-1v-18h1.1l7 13.3h.1l7-13.3h1.2v18h-1V10.6h-.1l-6.8 12.9h-.7l-6.7-12.9H11z" class="st0"/><path d="M36.3 128.5H0c-.3 0-.5-.2-.5-.5V64.9c0-.3.2-.5.5-.5h36.3c.3 0 .5.2.5.5V128c0 .3-.2.5-.5.5m-35.8-1h35.3V65.4H.5z" class="st0"/><path d="M17.7 34.2h1v30.7h-1zM7.724 76.035l.612-.79 21.341 16.54-.613.79zm.526 38.259L29.131 99.31l.583.813-20.88 14.983z" class="st0"/><circle id="椭圆形_2_" cx="18.7" cy="83.9" r="4.5" class="st0"/><path d="M18.7 89c-2.8 0-5-2.3-5-5s2.3-5 5-5c2.8 0 5 2.3 5 5s-2.2 5-5 5m0-9.1c-2.2 0-4 1.8-4 4s1.8 4 4 4 4-1.8 4-4-1.8-4-4-4" class="st0"/><circle id="椭圆形_3_" cx="19" cy="107.2" r="4.5" class="st0"/><path d="M19 112.2c-2.8 0-5-2.3-5-5s2.3-5 5-5 5 2.3 5 5-2.3 5-5 5m0-9.1c-2.2 0-4 1.8-4 4s1.8 4 4 4 4-1.8 4-4-1.8-4-4-4" class="st0"/></g></g></svg>