<svg xmlns="http://www.w3.org/2000/svg" xml:space="preserve" id="图层_1" x="0" y="0" viewBox="0 0 100 129"><style>.st0{fill:#fff}</style><g id="页面-1"><g id="_x32_-271" transform="translate(.94 .25)"><path id="路径" d="m23 83.1-13.1-36H11l12.5 34.4h.1l12.5-34.4h1.1l-13.1 36z" class="st0"/><path id="路径_1_" d="M59.5 83.2h-1.1v-36h1.4l14.5 28.4h.1l14.4-28.4h1.5v36h-1.1V48.9h-.1L74.9 76.8h-1.1L59.5 48.9z" class="st0"/><path d="M98.1 96.7H0c-.3 0-.5-.2-.5-.5V31.8c0-.3.2-.5.5-.5h98.1c.3 0 .5.2.5.5v64.5c0 .2-.2.4-.5.4m-97.6-1h97.1V32.3H.5z" class="st0"/><path d="M48.6 0h1v128h-1z" class="st0"/></g></g></svg>