<svg xmlns="http://www.w3.org/2000/svg" xml:space="preserve" id="图层_1" x="0" y="0" viewBox="0 0 130 130"><style>.st0{fill:#fff}</style><g id="页面-1"><g id="_x32_-270"><path d="M128.94 129.25H.94c-.3 0-.5-.2-.5-.5V.75c0-.3.2-.5.5-.5h128c.3 0 .5.2.5.5v128c0 .3-.2.5-.5.5m-127.5-1h127v-127h-127z" class="st0"/><g transform="translate(.94 .75)"><circle id="椭圆形_1_" cx="32.3" cy="31.6" r="4.5" class="st0"/><path d="M32.3 36.6c-2.8 0-5-2.3-5-5 0-2.8 2.3-5 5-5 2.8 0 5 2.3 5 5 .1 2.8-2.2 5-5 5m0-9.1c-2.2 0-4 1.8-4 4s1.8 4 4 4 4-1.8 4-4-1.7-4-4-4" class="st0"/></g><g transform="translate(.94 .75)"><circle id="椭圆形_2_" cx="64" cy="31.6" r="4.5" class="st0"/><path d="M64 36.6c-2.8 0-5-2.3-5-5 0-2.8 2.3-5 5-5 2.8 0 5 2.3 5 5 .1 2.8-2.2 5-5 5m0-9.1c-2.2 0-4 1.8-4 4s1.8 4 4 4 4-1.8 4-4-1.8-4-4-4" class="st0"/></g><g transform="translate(.94 .75)"><circle id="椭圆形_3_" cx="95.7" cy="31.6" r="4.5" class="st0"/><path d="M95.7 36.6c-2.8 0-5-2.3-5-5 0-2.8 2.3-5 5-5s5 2.3 5 5c0 2.8-2.2 5-5 5m0-9.1c-2.2 0-4 1.8-4 4s1.8 4 4 4 4-1.8 4-4-1.8-4-4-4" class="st0"/></g><g transform="translate(.94 .75)"><circle id="椭圆形_4_" cx="32.3" cy="63.9" r="4.5" class="st0"/><path d="M32.3 68.9c-2.8 0-5-2.3-5-5 0-2.8 2.3-5 5-5 2.8 0 5 2.3 5 5 .1 2.8-2.2 5-5 5m0-9c-2.2 0-4 1.8-4 4s1.8 4 4 4 4-1.8 4-4c.1-2.2-1.7-4-4-4" class="st0"/></g><g transform="translate(.94 .75)"><circle id="椭圆形_5_" cx="64" cy="63.9" r="4.5" class="st0"/><path d="M64 68.9c-2.8 0-5-2.3-5-5 0-2.8 2.3-5 5-5 2.8 0 5 2.3 5 5 .1 2.8-2.2 5-5 5m0-9c-2.2 0-4 1.8-4 4s1.8 4 4 4 4-1.8 4-4c.1-2.2-1.8-4-4-4" class="st0"/></g><g transform="translate(.94 .75)"><circle id="椭圆形_6_" cx="95.7" cy="63.9" r="4.5" class="st0"/><path d="M95.7 68.9c-2.8 0-5-2.3-5-5 0-2.8 2.3-5 5-5s5 2.3 5 5c0 2.8-2.2 5-5 5m0-9c-2.2 0-4 1.8-4 4s1.8 4 4 4 4-1.8 4-4-1.8-4-4-4" class="st0"/></g><g transform="translate(.94 .75)"><circle id="椭圆形_7_" cx="32.3" cy="96.2" r="4.5" class="st0"/><path d="M32.3 101.3c-2.8 0-5-2.3-5-5s2.3-5 5-5c2.8 0 5 2.3 5 5s-2.2 5-5 5m0-9.1c-2.2 0-4 1.8-4 4s1.8 4 4 4 4-1.8 4-4c.1-2.2-1.7-4-4-4" class="st0"/></g><g transform="translate(.94 .75)"><circle id="椭圆形_8_" cx="64" cy="96.2" r="4.5" class="st0"/><path d="M64 101.3c-2.8 0-5-2.3-5-5s2.3-5 5-5c2.8 0 5 2.3 5 5s-2.2 5-5 5m0-9.1c-2.2 0-4 1.8-4 4s1.8 4 4 4 4-1.8 4-4c.1-2.2-1.8-4-4-4" class="st0"/></g><g transform="translate(.94 .75)"><circle id="椭圆形_9_" cx="95.7" cy="96.2" r="4.5" class="st0"/><path d="M95.7 101.3c-2.8 0-5-2.3-5-5s2.3-5 5-5 5 2.3 5 5-2.2 5-5 5m0-9.1c-2.2 0-4 1.8-4 4s1.8 4 4 4 4-1.8 4-4-1.8-4-4-4" class="st0"/></g></g></g></svg>