<svg xmlns="http://www.w3.org/2000/svg" xml:space="preserve" id="图层_1" x="0" y="0" viewBox="0 0 129 65"><style>.st0{fill:#fff}</style><g id="页面-1"><g id="_x32_-273"><path d="M.44 32.15h41.5v1H.44z" class="st0"/><path d="M102.94 64.95h-81.5c-.3 0-.5-.2-.5-.5V.75c0-.3.2-.5.5-.5h81.4c.3 0 .5.2.5.5v63.7c.1.3-.2.5-.4.5m-81-1h80.5V1.25h-80.5z" class="st0"/><path d="M49.54 26.65h25.2v1h-25.2zm0 10.9h25.2v1h-25.2zm37.4-26.2h41.5v1h-41.5z" class="st0"/><path d="M86.44 11.85h1v41.5h-1z" class="st0"/><path d="M86.94 52.85h41.5v1h-41.5zm-12.7-10.2h25.2v1h-25.2zm12.6-.4c-.2 0-.3-.1-.4-.2l-11.7-20.3c-.1-.2-.1-.3 0-.5s.3-.2.4-.2h23.4c.2 0 .3.1.4.2.1.2.1.3 0 .5l-11.7 20.2c-.1.2-.2.3-.4.3m-10.8-20.3 10.8 18.8 10.8-18.8z" class="st0"/></g></g></svg>