<svg xmlns="http://www.w3.org/2000/svg" xml:space="preserve" id="图层_1" x="0" y="0" viewBox="0 0 129 65"><style>.st0{fill:#fff}</style><g id="页面-1"><g id="_x32_-272"><path d="M108.34 64.95h-81.5c-.3 0-.5-.2-.5-.5V.75c0-.3.2-.5.5-.5h81.4c.3 0 .5.2.5.5v63.7c.1.3-.2.5-.4.5m-81-1h80.4V1.25h-80.4z" class="st0"/><path d="M86.94 32.35h41.5v1h-41.5zm-30.6-4.2h25.2v1h-25.2zm0 10.9h25.2v1h-25.2zM.44 12.55h41.5v1H.44z" class="st0"/><path d="M41.44 13.05h1v41.5h-1z" class="st0"/><path d="M.44 54.05h41.5v1H.44zm28.7-10.2h25.2v1h-25.2zm12.6-.4c-.2 0-.3-.1-.4-.2l-11.7-20.3c-.1-.2-.1-.3 0-.5s.3-.2.4-.2h23.4c.2 0 .3.1.4.2s.1.3 0 .5l-11.6 20.2c-.1.2-.3.3-.5.3m-10.8-20.3 10.8 18.8 10.8-18.8z" class="st0"/></g></g></svg>