<svg xmlns="http://www.w3.org/2000/svg" xml:space="preserve" id="图层_1" x="0" y="0" viewBox="0 0 129 89"><style>.st0{fill:#fff}</style><g id="页面-1"><g id="_x32_-274"><path d="M107.84 88.15h-86.9c-.3 0-.5-.2-.5-.5V.75c0-.3.2-.5.5-.5h86.9c.3 0 .5.2.5.5v86.9c0 .3-.2.5-.5.5m-86.4-1h85.9V1.25h-85.9z" class="st0"/><path d="M.44 43.75h20.5v1H.44zm107.5 0h20.5v1h-20.5zm-64.7 8.1c-.1-.3-2-7.9 1.8-11.1 2.5-2.1 6.9-1.8 13.1 1 .2.2 16.1 10.9 23.4 6.6 2.9-1.6 4.1-5.5 3.5-11.6l1-.1c.6 6.5-.8 10.7-4 12.6-7.8 4.6-23.7-6.2-24.4-6.6-5.7-2.6-9.7-3-11.9-1.1-3.4 2.8-1.5 10-1.5 10.1z" class="st0"/><path d="m59.681 51.5 8.681-14.964.865.502-8.68 14.965z" class="st0"/></g></g></svg>