<svg xmlns="http://www.w3.org/2000/svg" xml:space="preserve" id="图层_1" x="0" y="0" viewBox="0 0 76 129"><style>.st0{fill:#fff}</style><g id="页面-1"><g id="_x32_-287"><path d="M50.94 107.85c-9.3 0-18.1-17.7-18.4-18.4-3.8-5.2-7.2-7.6-10.2-7.1-4.5.8-6.5 8.2-6.5 8.3l-1-.3c.1-.3 2.2-8.1 7.3-9 3.4-.6 7.1 1.9 11.2 7.6.1.3 8.9 17.9 17.6 17.9h.1c3.5-.1 6.5-3 9.1-8.7l.9.4c-2.8 6.1-6.1 9.2-10 9.3z" class="st0"/><path d="M75.44 128.75H.94c-.3 0-.5-.2-.5-.5v-74.5c0-.3.2-.5.5-.5h74.5c.3 0 .5.2.5.5v74.5c0 .3-.3.5-.5.5m-74-1h73.5v-73.5H1.44z" class="st0"/><path d="M37.64.25h1v53.5h-1z" class="st0"/></g></g></svg>