<svg xmlns="http://www.w3.org/2000/svg" xml:space="preserve" id="图层_1" x="0" y="0" viewBox="0 0 129 19"><style>.st0{fill:#fff}</style><g id="页面-1"><g id="_x32_-286" transform="translate(.44 .609)"><path d="M0 17h128v1H0z" class="st0"/><path id="路径_1_" d="M51.9 1.5c-.7.5-1.2 1.1-1.5 1.9-.4.9-.6 1.9-.5 2.9 0 1 .2 2 .5 2.9.3.8.8 1.4 1.5 1.9.7.4 1.5.7 2.3.7 1.3 0 2.5-.6 3.4-1.6v-3h-3V6.1h3.9v4.3c-1 1.3-2.6 2.1-4.3 2.1-1 0-2-.2-2.8-.8-.8-.5-1.4-1.3-1.8-2.1q-.75-1.65-.6-3.3c-.2-1.1 0-2.3.5-3.3.4-.9 1.1-1.6 1.9-2.2.8-.5 1.8-.8 2.8-.8.8 0 1.5.2 2.2.5s1.2.8 1.7 1.4l-.7.6c-.4-.5-.9-.9-1.4-1.2S54.9.9 54.2.9c-.8 0-1.6.2-2.3.6" class="st0"/><path id="路径_2_" d="M69.7 10.6c-.4.6-1 1.1-1.6 1.4-.7.3-1.5.5-2.2.5-2 .1-3.9-1.1-4.7-3-.5-1-.7-2.2-.7-3.3s.2-2.2.7-3.3c.4-.9 1-1.6 1.9-2.2.8-.5 1.7-.7 2.7-.7.8 0 1.5.2 2.2.5s1.2.8 1.7 1.4l-.7.6c-.4-.5-.9-.9-1.4-1.1C67 1 66.4.9 65.8.9c-1.7 0-3.2 1-3.8 2.5-.4.9-.6 1.8-.5 2.8 0 1 .2 2 .5 2.9.3.8.9 1.4 1.5 1.9.7.5 1.5.7 2.3.7.6 0 1.2-.1 1.8-.4.5-.3 1-.7 1.3-1.2z" class="st0"/><path id="路径_3_" d="M72.8 12c-.7-.4-1.3-.9-1.7-1.6l.8-.5c.4.5.9 1 1.5 1.3s1.2.5 1.9.5c.6 0 1.1-.1 1.6-.3.4-.2.8-.5 1.1-.8.5-.7.5-1.7.1-2.4-.3-.3-.6-.6-1-.8-.6-.3-1.3-.5-2-.7s-1.4-.4-2-.7c-.5-.2-.9-.6-1.3-1-.3-.5-.5-1.1-.5-1.7s.2-1.2.5-1.7q.6-.75 1.5-1.2c.6-.3 1.3-.4 2-.4.8 0 1.5.2 2.2.5.6.3 1.2.8 1.6 1.4l-.7.5c-.4-.4-.9-.8-1.4-1.1S75.9.9 75.3.9q-.75 0-1.5.3c-.5.1-.8.4-1.1.8-.3.3-.4.8-.4 1.2 0 .5.1.9.4 1.3.3.3.7.6 1.1.8.6.2 1.1.4 1.7.6.7.2 1.4.5 2.1.8.5.2.9.6 1.3 1 .3.5.5 1 .4 1.6 0 .9-.4 1.8-1.1 2.4q-1.35.9-3 .9c-.8-.1-1.7-.2-2.4-.6" class="st0"/></g></g></svg>