<svg xmlns="http://www.w3.org/2000/svg" xml:space="preserve" id="图层_1" x="0" y="0" viewBox="0 0 129 19"><style>.st0{fill:#fff}</style><g id="页面-1"><g id="_x32_-281" transform="translate(.44 .608)"><path d="M0 17h128v1H0z" class="st0"/><path id="形状" d="M59.9 6q1.2.15 2.1.9c.5.5.8 1.3.8 2 .1 1-.4 2-1.2 2.5q-1.65 1.05-3.6.9h-3.3V.2H58c1 0 2.1.2 3 .8.7.5 1.1 1.3 1.1 2.2 0 .6-.2 1.2-.6 1.7-.4.6-1 .9-1.6 1.1m-4.3-4.9v4.4h2.5c.8 0 1.6-.2 2.3-.6.5-.4.9-1 .8-1.7 0-.7-.3-1.3-.9-1.6-.8-.4-1.6-.6-2.5-.6zm2.2 10.3c1 .1 2.1-.2 3-.7.7-.4 1-1.1 1-1.9 0-.7-.4-1.4-1-1.8-.8-.4-1.8-.6-2.8-.6h-2.4v5z" class="st0"/><path id="路径_1_" d="M73.9 10.6c-.4.6-1 1.1-1.6 1.4-.7.3-1.5.5-2.2.5-2 .1-3.9-1.1-4.7-3-.5-1-.7-2.2-.7-3.3s.2-2.2.7-3.3c.4-.9 1.1-1.6 1.9-2.2C68 .2 69 0 70 0c.8 0 1.5.2 2.2.5s1.2.8 1.7 1.4l-.7.5c-.4-.5-.9-.9-1.4-1.1-.6-.3-1.2-.4-1.8-.4-1.7-.1-3.2.9-3.9 2.5-.4.9-.6 1.8-.6 2.8s.2 2 .6 2.9c.3.8.9 1.4 1.6 1.9.7.4 1.5.7 2.3.6.6 0 1.2-.1 1.8-.4s1-.7 1.4-1.2z" class="st0"/></g></g></svg>