<svg xmlns="http://www.w3.org/2000/svg" xml:space="preserve" id="图层_1" x="0" y="0" viewBox="0 0 129 27"><style>.st0{fill:#fff}</style><g id="页面-1"><g id="_x32_-290" transform="translate(.44 .25)"><path id="路径" d="M3.3 12.1 0 0h1l2.8 10.4h.1L6.8 0h1l3 10.4L13.6 0h1l-3.3 12.1h-1l-3-10.5h-.1l-3 10.5z" class="st0"/><path id="路径_1_" d="M23.8 5.4V0h.9v12.1h-.9V6.3H17v5.8h-.9V0h.9v5.4z" class="st0"/><path id="形状" d="M70.9 11.7c-.5-.4-.7-1-.7-1.6 0-1.8 1.4-2.6 4.3-2.6h1.3v-1c0-.6-.2-1.2-.6-1.6-.5-.4-1.1-.6-1.7-.6-.8 0-1.6.4-2.2.9l-.5-.6c.4-.3.8-.6 1.3-.8q.75-.3 1.5-.3c.8-.1 1.7.2 2.3.8s.9 1.3.8 2.1v5.8h-.9v-1.4h-.1q-.45.75-1.2 1.2c-.5.3-1.1.4-1.7.4s-1.3-.2-1.9-.7m3.5-.5c.4-.2.8-.5 1.1-.9s.4-.9.4-1.4v-.7h-1.2q-3.6 0-3.6 1.8c0 .4.2.8.5 1.1.4.3.9.4 1.4.4s1-.1 1.4-.3" class="st0"/><path id="路径_2_" d="M82.3 0h.9l-3.8 12.1h-.9z" class="st0"/><path id="形状_1_" d="M85 12.1V0h.9v5.3h.1c.3-.5.7-1 1.2-1.3s1.1-.5 1.7-.5q1.05 0 1.8.6c.5.4 1 .9 1.2 1.5.3.7.5 1.5.5 2.2 0 .8-.1 1.6-.5 2.3-.3.6-.7 1.2-1.3 1.6-.5.4-1.2.6-1.8.6s-1.2-.2-1.7-.5-.9-.8-1.1-1.4h-.1V12H85zm1.2-2.4c.2.5.6.9 1 1.2s.9.5 1.5.5c.5 0 1.1-.1 1.5-.4s.8-.8 1-1.2c.2-.6.4-1.2.4-1.8s-.1-1.2-.4-1.8c-.2-.5-.6-.9-1-1.3-.4-.3-1-.5-1.5-.5s-1 .2-1.5.5c-.4.3-.8.8-1 1.3-.2.6-.4 1.2-.4 1.8.1.5.2 1.2.4 1.7" class="st0"/><path id="路径_3_" d="M97.7 0h.9l-3.8 12.1h-.9z" class="st0"/><path id="路径_4_" d="M101.9 11.8c-.6-.4-1.1-.9-1.3-1.6-.3-.7-.5-1.5-.5-2.3s.1-1.6.5-2.3c.3-.6.8-1.2 1.3-1.5.6-.4 1.3-.6 2-.6.6 0 1.2.2 1.8.5s1.1.7 1.4 1.3l-.7.5c-.2-.4-.6-.8-1-1-.9-.5-2-.5-2.9.1-.4.3-.8.8-1 1.3-.3.6-.4 1.2-.4 1.8s.1 1.3.4 1.9c.2.5.6 1 1 1.3s1 .5 1.5.4c.5 0 1-.1 1.4-.4.4-.2.8-.6 1-1l.7.5c-.3.5-.8 1-1.3 1.3s-1.1.5-1.8.5c-.8-.1-1.5-.3-2.1-.7" class="st0"/><path d="M8.6 14.5h119.2v1H8.6z" class="st0"/><path d="M38.5 25.9c-6.2 0-11.3-5.1-11.3-11.3S32.3 3.3 38.5 3.3s11.3 5.1 11.3 11.3-5.1 11.3-11.3 11.3m0-21.6c-5.7 0-10.3 4.6-10.3 10.3s4.6 10.3 10.3 10.3 10.3-4.6 10.3-10.3S44.2 4.3 38.5 4.3" class="st0"/><path d="m31.88 17.064 7.71-9.584.779.627-7.71 9.584zm3.292 3.323 7.71-9.584.779.627-7.71 9.584z" class="st0"/></g></g></svg>