<svg xmlns="http://www.w3.org/2000/svg" xml:space="preserve" id="图层_1" x="0" y="0" viewBox="0 0 130 123"><style>.st0{fill:#fff}</style><g id="页面-1"><g id="_x33_-204"><path d="M88.74 81.55h-43.2v-1h43.2c21.9 0 39.7-17.8 39.7-39.7s-17.8-39.7-39.7-39.7H.94v-1h87.8c22.4 0 40.7 18.2 40.7 40.7s-18.2 40.7-40.7 40.7" class="st0"/><path d="M128.94 122.25h-87.8c-22.4 0-40.7-18.2-40.7-40.7 0-22.4 18.2-40.7 40.7-40.7h43.2v1h-43.2c-21.9.1-39.7 17.9-39.7 39.7 0 21.9 17.8 39.7 39.7 39.7h87.8z" class="st0"/></g></g></svg>