<svg xmlns="http://www.w3.org/2000/svg" xml:space="preserve" id="图层_1" x="0" y="0" viewBox="0 0 129 32"><style>.st0{fill:#fff}</style><g id="页面-1"><g id="_x34_-004" transform="translate(.94 .75)"><path d="M80 30.5H0c-.3 0-.5-.2-.5-.5V0c0-.3.2-.5.5-.5h80c.3 0 .5.2.5.5v30c0 .3-.2.5-.5.5m-79.5-1h79V.5H.5z" class="st0"/><path id="形状" d="M113.3 24h-1l-2.4-6.5h-7.4l-2.4 6.5h-1l6.6-18h1zm-7.1-16.6-3.4 9.3h6.8z" class="st0"/><path id="形状_1_" d="M120.7 6c1.7-.1 3.5.4 4.9 1.4 1.2 1 1.8 2.4 1.7 3.9.1 1.5-.5 3-1.7 3.9-1.4 1-3.2 1.5-4.9 1.4h-4.1V24h-.9V6zm-.1 9.7c1.5.1 3-.3 4.3-1.2 1-.8 1.6-2 1.5-3.2.1-1.3-.5-2.5-1.5-3.2-1.3-.8-2.8-1.2-4.3-1.1h-3.9v8.8z" class="st0"/></g></g></svg>