<svg xmlns="http://www.w3.org/2000/svg" xml:space="preserve" id="图层_1" x="0" y="0" viewBox="0 0 129 129"><style>.st0{fill:#fff}</style><g id="页面-1"><g id="_x34_-009" transform="translate(.94 .5)"><path d="M23.8 128.5c-13.4 0-24.3-10.9-24.3-24.3s10.9-24.3 24.3-24.3 24.3 10.9 24.3 24.3-10.8 24.3-24.3 24.3m0-47.7C11 80.8.5 91.3.5 104.2s10.5 23.3 23.3 23.3c12.9 0 23.3-10.5 23.3-23.3S36.7 80.8 23.8 80.8" class="st0"/><path d="M34.722 82.58 82.378-.297l.867.498-47.657 82.876z" class="st0"/><path id="路径_1_" d="M88.2 81.9v14.4h16.6v.8H87.4v-30h16.8v.8h-16V81h15.1v.9z" class="st0"/><path id="路径_2_" d="m118.1 81.3 9.9 15.8h-1.1l-9.4-15.2-9.3 15.2h-1.1l9.9-15.9-9.2-14.1h1.1l8.7 13.5 8.6-13.5h1.1z" class="st0"/></g></g></svg>