<svg xmlns="http://www.w3.org/2000/svg" xml:space="preserve" id="图层_1" x="0" y="0" viewBox="0 0 129 19"><style>.st0{fill:#fff}</style><g id="页面-1"><g id="_x34_-002" transform="translate(.44 .659)"><path d="M0 17h128v1H0z" class="st0"/><path id="路径_1_" d="M54.3 12.3 51 .2h1l2.8 10.5h.1L57.8.2h1l3 10.5L64.6.2h1l-3.3 12.1h-1l-3-10.5-3 10.5z" class="st0"/><path id="路径_2_" d="M69.5 1.6c-.6.4-1.2 1.1-1.5 1.8-.4.9-.6 1.9-.5 2.8 0 1 .2 2 .5 2.9.3.8.8 1.4 1.5 1.9.7.4 1.5.7 2.3.7 1.3 0 2.5-.6 3.4-1.6v-3h-3v-.9h3.9v4.3c-1 1.4-2.6 2.2-4.3 2.2-1 0-2-.3-2.8-.8s-1.5-1.3-1.9-2.2c-.4-1.1-.7-2.2-.6-3.3 0-1.1.2-2.3.7-3.3.4-.9 1-1.6 1.8-2.2.9-.7 1.9-.9 2.9-.9.8 0 1.5.2 2.2.5s1.2.8 1.7 1.4l-.8.6c-.4-.5-.8-.9-1.4-1.2-.5-.3-1.1-.4-1.8-.4-.8 0-1.6.2-2.3.7" class="st0"/></g></g></svg>