<svg xmlns="http://www.w3.org/2000/svg" xml:space="preserve" id="图层_1" x="0" y="0" viewBox="0 0 130 130"><style>.st0{fill:#fff}</style><g id="页面-1"><g id="a-10"><path d="M93.4 101.75c-20.1 0-36.5-16.4-36.5-36.5s16.4-36.5 36.5-36.5 36.5 16.4 36.5 36.5-16.3 36.5-36.5 36.5m0-72c-19.6 0-35.5 15.9-35.5 35.5s15.9 35.5 35.5 35.5 35.5-15.9 35.5-35.5-15.9-35.5-35.5-35.5" class="st0"/><path d="M92.2 60.05h1v30h-1z" class="st0"/><path d="m92.348 59.833 20.076-14.216.578.816L92.926 60.65z" class="st0"/><path d="m72.356 46.496.577-.816 20.09 14.196-.576.817z" class="st0"/><path d="M37 73.75C16.9 73.75.5 57.35.5 37.25S16.9.75 37 .75s36.5 16.4 36.5 36.5-16.4 36.5-36.5 36.5m0-72c-19.6 0-35.5 15.9-35.5 35.5s15.9 35.5 35.5 35.5 35.5-15.9 35.5-35.5S56.6 1.75 37 1.75" class="st0"/><path d="M60.1 54.75H13.9c-.2 0-.3-.1-.4-.2s-.1-.3 0-.5l23.1-40c.2-.3.7-.3.9 0l23.1 40c.1.2.1.3 0 .5s-.3.2-.5.2m-45.3-1h44.5L37 15.25zm22.2 76c-20.1 0-36.5-16.4-36.5-36.5s16.4-36.5 36.5-36.5 36.5 16.4 36.5 36.5-16.4 36.5-36.5 36.5m0-72c-19.6 0-35.5 15.9-35.5 35.5s15.9 35.5 35.5 35.5 35.5-15.9 35.5-35.5-15.9-35.5-35.5-35.5" class="st0"/><path d="M60.1 110.75H13.9c-.2 0-.3-.1-.4-.2s-.1-.3 0-.5l23.1-40c.2-.3.7-.3.9 0l23.1 40c.1.2.1.3 0 .5s-.3.2-.5.2m-45.3-1h44.5L37 71.25z" class="st0"/><path d="M3.57 120.38 114.621 10.392l.704.71L4.274 121.091z" class="st0"/><path d="m114.4 25.25-1-.1 1.5-14.2-14.1 2-.1-1 14.7-2.1c.1 0 .3 0 .4.1s.2.3.2.4z" class="st0"/></g></g></svg>