<svg xmlns="http://www.w3.org/2000/svg" xml:space="preserve" id="图层_1" x="0" y="0" viewBox="0 0 101 129"><style>.st0{fill:#fff}</style><g id="页面-1"><g id="a-12"><path d="M72.08 56.4c-15.4 0-28-12.6-28-28s12.6-28 28-28 28 12.6 28 28-12.5 28-28 28m0-55c-14.9 0-27 12.1-27 27s12.1 27 27 27 27-12.1 27-27-12.1-27-27-27" class="st0"/><path d="M72.18 9.5h1v22.9h-1z" class="st0"/><path d="m57.105 42.61 15.343-10.864.578.816-15.343 10.864z" class="st0"/><path d="m72.302 32.587.577-.817 15.352 10.852-.577.816zM72.08 99.7c-15.4 0-28-12.6-28-28s12.6-28 28-28 28 12.6 28 28-12.5 28-28 28m0-55c-14.9 0-27 12.1-27 27s12.1 27 27 27 27-12.1 27-27-12.1-27-27-27" class="st0"/><path d="m72.207 75.683.265-19.398 1 .014-.265 19.398z" class="st0"/><path d="m57.093 85.914 15.343-10.865.578.816L57.671 86.73z" class="st0"/><path d="m72.368 75.95.577-.817 15.352 10.851-.577.817zM28.78 77.8c-15.4 0-28-12.6-28-28s12.6-28 28-28 28 12.6 28 28c0 15.5-12.6 28-28 28m0-55c-14.9 0-27 12.1-27 27s12.1 27 27 27 27-12.1 27-27-12.1-27-27-27" class="st0"/><path d="M41.58 70.2c-.1 0-.2 0-.3-.1l-25.6-18.5.6-.8 24.9 17.9V35.1l-23.7 9-.4-.9 24.4-9.3c.2-.1.3 0 .5.1.1.1.2.2.2.4v35.3c0 .2-.1.4-.3.4-.1.1-.2.1-.3.1m17.2 38.5h27v1h-27zm5.8 9.6h15.3v1h-15.3zm4 9h7.3v1h-7.3zm3.5-62h1v43.4h-1z" class="st0"/></g></g></svg>