<svg xmlns="http://www.w3.org/2000/svg" xml:space="preserve" id="图层_1" x="0" y="0" viewBox="0 0 9 129"><style>.st0{fill:#fff}</style><g id="页面-1"><g id="a-14"><path d="M7.76 0h1v30h-1zm0 98.5h1v30h-1z" class="st0"/><path d="M8.26 47.4c-2.2 0-4.3-.9-5.8-2.5-1.7-1.8-2.5-4.4-2.4-7.3.2-4.4 3.8-7.8 8.2-7.8v1c-3.9 0-7 3-7.2 6.9-.1 2.7.6 5 2.1 6.6 1.3 1.4 3.1 2.1 5.1 2.1z" class="st0"/><path d="M8.26 64c-2.2 0-4.3-.9-5.8-2.5-1.7-1.8-2.5-4.4-2.4-7.3.2-4.4 3.8-7.9 8.2-7.9v1c-3.9 0-7.1 3-7.2 6.9-.1 2.7.6 5 2.1 6.6 1.3 1.4 3.1 2.2 5.1 2.2z" class="st0"/><path d="M8.26 81.4c-2.2 0-4.3-.9-5.8-2.5-1.7-1.8-2.5-4.4-2.4-7.3.2-4.4 3.8-7.8 8.2-7.8v1c-3.9 0-7 3-7.2 6.9-.1 2.7.6 5 2.1 6.6 1.3 1.4 3.1 2.1 5.1 2.1z" class="st0"/><path d="M8.26 98.7c-2.2 0-4.3-.9-5.8-2.5-1.7-1.8-2.5-4.4-2.4-7.3.2-4.4 3.8-7.9 8.2-7.8v1c-3.9 0-7 3-7.2 6.9-.1 2.7.6 5 2.1 6.6 1.3 1.4 3.1 2.1 5.1 2.1z" class="st0"/></g></g></svg>