<svg xmlns="http://www.w3.org/2000/svg" xml:space="preserve" id="图层_1" x="0" y="0" viewBox="0 0 129 129"><style>.st0{fill:#fff}</style><g id="页面-1"><g id="a-17"><path d="M64.03.25h1v56h-1zm0 72h1v56h-1z" class="st0"/><path d="M53.63 55.75h21.6v1h-21.6zm0 16h21.6v1h-21.6zM11.03.25h1v56h-1zm0 72h1v56h-1z" class="st0"/><path d="M.63 55.75h21.6v1H.63zm0 16h21.6v1H.63zM117.03.25h1v56h-1zm0 72h1v56h-1z" class="st0"/><path d="M106.63 55.75h21.6v1h-21.6zm0 16h21.6v1h-21.6zM11.93.25h53v1h-53z" class="st0"/><path d="M64.43.25h53v1h-53z" class="st0"/></g></g></svg>