<svg xmlns="http://www.w3.org/2000/svg" xml:space="preserve" id="图层_1" x="0" y="0" viewBox="0 0 129 130"><style>.st0{fill:#fff}</style><g id="页面-1"><g id="a-18"><path d="M64.11.25h1v35h-1zm0 45h1v35h-1z" class="st0"/><path d="M57.51 34.75h14v1h-14zm0 10h14v1h-14zm-21.318 56.064L63.96 79.51l.608.793L36.8 101.607zM.495 128.206 28.264 106.9l.609.794-27.77 21.304z" class="st0"/><path d="m31.817 95.888.793-.608 8.52 11.109-.794.608zm-7.975 6.135.794-.609 8.52 11.11-.794.608zm40.638-21.72.608-.794 27.765 21.308-.608.794zm35.711 27.407.609-.792 27.765 21.308-.608.793z" class="st0"/><path d="m88.71 107.05-.7-.6 8.5-11.1.8.6zm7.125 5.497 8.53-11.1.793.609-8.53 11.1z" class="st0"/></g></g></svg>