<svg xmlns="http://www.w3.org/2000/svg" xml:space="preserve" id="图层_1" x="0" y="0" viewBox="0 0 129 129"><style>.st0{fill:#fff}</style><g id="页面-1"><g id="a-19"><path d="M64.44 128.25c-35.3 0-64-28.7-64-64s28.7-64 64-64 64 28.7 64 64-28.7 64-64 64m0-127c-34.7 0-63 28.3-63 63s28.3 63 63 63 63-28.3 63-63-28.3-63-63-63" class="st0"/><path d="M86.84 86.15c-8.9 0-18.2-8.2-27.7-24.3-7.9-13.2-15.2-19.4-21.8-18.4-11.9 1.8-17.9 26.6-18 26.8l-1-.2c.2-1 6.2-25.7 18.8-27.6 7.1-1 14.8 5.3 22.8 18.9 9.9 16.7 19.3 24.7 28.2 23.7 13.6-1.4 21.2-23.4 21.3-23.6l.9.3c0 .1-2 5.8-5.6 11.6-4.8 7.7-10.6 12.1-16.5 12.7-.4.1-.9.1-1.4.1" class="st0"/></g></g></svg>