<svg xmlns="http://www.w3.org/2000/svg" xml:space="preserve" id="图层_1" x="0" y="0" viewBox="0 0 129 130"><style>.st0{fill:#fff}</style><g id="页面-1"><g id="a-6"><path d="M92.11 102c-20.1 0-36.5-16.4-36.5-36.5S72.01 29 92.11 29s36.5 16.4 36.5 36.5-16.4 36.5-36.5 36.5m0-72c-19.6 0-35.5 15.9-35.5 35.5s15.9 35.5 35.5 35.5 35.5-15.9 35.5-35.5-16-35.5-35.5-35.5" class="st0"/><path d="M36.81 73.8C16.71 73.8.31 57.4.31 37.3S16.71.8 36.81.8s36.5 16.4 36.5 36.5-16.4 36.5-36.5 36.5m0-72c-19.6 0-35.5 15.9-35.5 35.5s15.9 35.5 35.5 35.5 35.5-15.9 35.5-35.5-15.9-35.5-35.5-35.5" class="st0"/><path d="M36.81 129.1c-20.1 0-36.5-16.4-36.5-36.5s16.4-36.5 36.5-36.5 36.5 16.4 36.5 36.5-16.4 36.5-36.5 36.5m0-72c-19.6 0-35.5 15.9-35.5 35.5s15.9 35.5 35.5 35.5 35.5-15.9 35.5-35.5-15.9-35.5-35.5-35.5" class="st0"/></g></g></svg>