<svg xmlns="http://www.w3.org/2000/svg" xml:space="preserve" id="图层_1" x="0" y="0" viewBox="0 0 130 130"><style>.st0{fill:#fff}</style><g id="页面-1"><g id="a-8"><path d="M37.44 129.63c-20.1 0-36.5-16.4-36.5-36.5s16.4-36.5 36.5-36.5 36.5 16.4 36.5 36.5-16.4 36.5-36.5 36.5m0-72c-19.6 0-35.5 15.9-35.5 35.5s15.9 35.5 35.5 35.5 35.5-15.9 35.5-35.5-15.9-35.5-35.5-35.5" class="st0"/><path d="M36.14 87.93h1v30h-1z" class="st0"/><path d="M36.295 87.742 56.384 73.54l.577.817-20.088 14.201z" class="st0"/><path d="m16.45 74.407.577-.817 20.096 14.19-.577.817zm76.59 27.323c-20.1 0-36.5-16.4-36.5-36.5s16.4-36.5 36.5-36.5 36.5 16.4 36.5 36.5-16.4 36.5-36.5 36.5m0-72c-19.6 0-35.5 15.9-35.5 35.5s15.9 35.5 35.5 35.5 35.5-15.9 35.5-35.5-16-35.5-35.5-35.5" class="st0"/><path d="M78.54 83.93c-.1 0-.2 0-.2-.1-.2-.1-.2-.3-.2-.4v-46.2c0-.2.1-.3.2-.4.2-.1.3-.1.5 0l40 23.1c.2.1.2.3.2.4s-.1.3-.2.4l-40 23.1c-.2.1-.3.1-.3.1m.5-45.8v44.4l38.5-22.2zm-41.6 35.5c-20.1 0-36.5-16.4-36.5-36.5S17.34.63 37.44.63s36.5 16.4 36.5 36.5-16.4 36.5-36.5 36.5m0-72c-19.6 0-35.5 15.9-35.5 35.5s15.9 35.5 35.5 35.5 35.5-15.9 35.5-35.5-15.9-35.5-35.5-35.5" class="st0"/><path d="M36.14 31.93h1v30h-1z" class="st0"/><path d="m36.293 31.74 20.089-14.202.577.816-20.088 14.202z" class="st0"/><path d="m16.451 18.405.577-.817 20.096 14.19-.577.816zM3.584 120.338 114.635 10.349l.704.71L4.288 121.05z" class="st0"/><path d="m114.34 25.23-1-.1 1.5-14.2-14.1 2-.1-1 14.7-2.1c.1 0 .3 0 .4.1s.2.3.2.4z" class="st0"/></g></g></svg>