<svg xmlns="http://www.w3.org/2000/svg" viewBox="0 0 150 92"><title>Belt filter press（带式过滤器）</title><defs><linearGradient id="a" x1="0%" x2="100%" y1="50.007%" y2="50.007%"><stop offset="0%" stop-color="#6b6b6b"/><stop offset="1%" stop-color="#767676"/><stop offset="3%" stop-color="#959595"/><stop offset="4%" stop-color="#aaa"/><stop offset="37%" stop-color="#ccc"/><stop offset="74%" stop-color="#eaeaea"/><stop offset="94%" stop-color="#f6f6f6"/><stop offset="95%" stop-color="#ededed"/><stop offset="96%" stop-color="#d4d4d4"/><stop offset="97%" stop-color="#ababab"/><stop offset="99%" stop-color="#737373"/><stop offset="99%" stop-color="#666"/></linearGradient><linearGradient id="b" x1="0%" x2="100%" y1="50%" y2="50%"><stop offset="0%" stop-color="#6b6b6b"/><stop offset="1%" stop-color="#767676"/><stop offset="3%" stop-color="#959595"/><stop offset="4%" stop-color="#aaa"/><stop offset="37%" stop-color="#ccc"/><stop offset="74%" stop-color="#eaeaea"/><stop offset="94%" stop-color="#f6f6f6"/><stop offset="95%" stop-color="#ededed"/><stop offset="96%" stop-color="#d4d4d4"/><stop offset="97%" stop-color="#ababab"/><stop offset="99%" stop-color="#737373"/><stop offset="99%" stop-color="#666"/></linearGradient><linearGradient id="c" x1="0%" x2="100%" y1="50%" y2="50%"><stop offset="0%" stop-color="#6b6b6b"/><stop offset="1%" stop-color="#767676"/><stop offset="3%" stop-color="#959595"/><stop offset="4%" stop-color="#aaa"/><stop offset="37%" stop-color="#ccc"/><stop offset="74%" stop-color="#eaeaea"/><stop offset="94%" stop-color="#f6f6f6"/><stop offset="95%" stop-color="#ededed"/><stop offset="96%" stop-color="#d4d4d4"/><stop offset="97%" stop-color="#ababab"/><stop offset="99%" stop-color="#737373"/><stop offset="99%" stop-color="#666"/></linearGradient><linearGradient id="d" x1="0%" x2="100.034%" y1="50%" y2="50%"><stop offset="0%" stop-color="#6b6b6b"/><stop offset="1%" stop-color="#767676"/><stop offset="3%" stop-color="#959595"/><stop offset="4%" stop-color="#aaa"/><stop offset="37%" stop-color="#ccc"/><stop offset="74%" stop-color="#eaeaea"/><stop offset="94%" stop-color="#f6f6f6"/><stop offset="95%" stop-color="#ededed"/><stop offset="96%" stop-color="#d4d4d4"/><stop offset="97%" stop-color="#ababab"/><stop offset="99%" stop-color="#737373"/><stop offset="99%" stop-color="#666"/></linearGradient><linearGradient id="e" x1="0%" x2="100.048%" y1="50%" y2="50%"><stop offset="0%" stop-color="#6b6b6b"/><stop offset="1%" stop-color="#767676"/><stop offset="3%" stop-color="#959595"/><stop offset="4%" stop-color="#aaa"/><stop offset="37%" stop-color="#ccc"/><stop offset="74%" stop-color="#eaeaea"/><stop offset="94%" stop-color="#f6f6f6"/><stop offset="95%" stop-color="#ededed"/><stop offset="96%" stop-color="#d4d4d4"/><stop offset="97%" stop-color="#ababab"/><stop offset="99%" stop-color="#737373"/><stop offset="99%" stop-color="#666"/></linearGradient><linearGradient id="f" x1="0%" x2="100%" y1="50%" y2="50%"><stop offset="0%" stop-color="#6b6b6b"/><stop offset="1%" stop-color="#767676"/><stop offset="3%" stop-color="#959595"/><stop offset="4%" stop-color="#aaa"/><stop offset="37%" stop-color="#ccc"/><stop offset="74%" stop-color="#eaeaea"/><stop offset="94%" stop-color="#f6f6f6"/><stop offset="95%" stop-color="#ededed"/><stop offset="96%" stop-color="#d4d4d4"/><stop offset="97%" stop-color="#ababab"/><stop offset="99%" stop-color="#737373"/><stop offset="99%" stop-color="#666"/></linearGradient><linearGradient id="g" x1="0%" x2="100.023%" y1="50%" y2="50%"><stop offset="0%" stop-color="#6b6b6b"/><stop offset="1%" stop-color="#767676"/><stop offset="3%" stop-color="#959595"/><stop offset="4%" stop-color="#aaa"/><stop offset="37%" stop-color="#ccc"/><stop offset="74%" stop-color="#eaeaea"/><stop offset="94%" stop-color="#f6f6f6"/><stop offset="95%" stop-color="#ededed"/><stop offset="96%" stop-color="#d4d4d4"/><stop offset="97%" stop-color="#ababab"/><stop offset="99%" stop-color="#737373"/><stop offset="99%" stop-color="#666"/></linearGradient><linearGradient id="h" x1="0%" x2="100%" y1="50%" y2="50%"><stop offset="0%" stop-color="#e2e2e2"/><stop offset="3%" stop-color="#d0d0d0"/><stop offset="6%" stop-color="#bcbcbc"/><stop offset="9%" stop-color="#b5b5b5"/><stop offset="49%" stop-color="#f6f6f6"/><stop offset="63%" stop-color="#f3f3f3"/><stop offset="73%" stop-color="#eaeaea"/><stop offset="82%" stop-color="#dbdbdb"/><stop offset="90%" stop-color="#c6c6c6"/><stop offset="97%" stop-color="#aaa"/><stop offset="100%" stop-color="#9b9b9b"/></linearGradient><linearGradient id="i" x1=".074%" x2="100%" y1="50%" y2="50%"><stop offset="0%" stop-color="#b7b7b7"/><stop offset="3%" stop-color="#9b9d9d"/><stop offset="7%" stop-color="#878b8b"/><stop offset="9%" stop-color="#808484"/><stop offset="20%" stop-color="#a3a6a6"/><stop offset="49%" stop-color="#f6f6f6"/><stop offset="61%" stop-color="#f3f3f3"/><stop offset="70%" stop-color="#eaeaea"/><stop offset="77%" stop-color="#dbdbdb"/><stop offset="83%" stop-color="#c5c5c5"/><stop offset="90%" stop-color="#aaa"/><stop offset="95%" stop-color="#888"/><stop offset="100%" stop-color="#666"/></linearGradient><linearGradient id="j" x1=".121%" x2="100%" y1="50%" y2="50%"><stop offset="0%" stop-color="#b7b7b7"/><stop offset="3%" stop-color="#9b9d9d"/><stop offset="7%" stop-color="#878b8b"/><stop offset="9%" stop-color="#808484"/><stop offset="20%" stop-color="#a3a6a6"/><stop offset="49%" stop-color="#f6f6f6"/><stop offset="61%" stop-color="#f3f3f3"/><stop offset="70%" stop-color="#eaeaea"/><stop offset="77%" stop-color="#dbdbdb"/><stop offset="83%" stop-color="#c5c5c5"/><stop offset="90%" stop-color="#aaa"/><stop offset="95%" stop-color="#888"/><stop offset="100%" stop-color="#666"/></linearGradient><linearGradient id="k" x1="0%" x2="100.148%" y1="50%" y2="50%"><stop offset="0%" stop-color="#e2e2e2"/><stop offset="3%" stop-color="#d0d0d0"/><stop offset="6%" stop-color="#bcbcbc"/><stop offset="9%" stop-color="#b5b5b5"/><stop offset="49%" stop-color="#f6f6f6"/><stop offset="63%" stop-color="#f3f3f3"/><stop offset="73%" stop-color="#eaeaea"/><stop offset="82%" stop-color="#dbdbdb"/><stop offset="90%" stop-color="#c6c6c6"/><stop offset="97%" stop-color="#aaa"/><stop offset="100%" stop-color="#9b9b9b"/></linearGradient><linearGradient id="l" x1="0%" x2="100%" y1="49.968%" y2="49.968%"><stop offset="0%" stop-color="#e2e2e2"/><stop offset="3%" stop-color="#d0d0d0"/><stop offset="6%" stop-color="#bcbcbc"/><stop offset="9%" stop-color="#b5b5b5"/><stop offset="49%" stop-color="#f6f6f6"/><stop offset="63%" stop-color="#f3f3f3"/><stop offset="73%" stop-color="#eaeaea"/><stop offset="82%" stop-color="#dbdbdb"/><stop offset="90%" stop-color="#c6c6c6"/><stop offset="97%" stop-color="#aaa"/><stop offset="100%" stop-color="#9b9b9b"/></linearGradient><linearGradient id="m" x1="0%" x2="100%" y1="49.833%" y2="49.833%"><stop offset="0%" stop-color="#e2e2e2"/><stop offset="3%" stop-color="#d0d0d0"/><stop offset="6%" stop-color="#bcbcbc"/><stop offset="9%" stop-color="#b5b5b5"/><stop offset="49%" stop-color="#f6f6f6"/><stop offset="63%" stop-color="#f3f3f3"/><stop offset="73%" stop-color="#eaeaea"/><stop offset="82%" stop-color="#dbdbdb"/><stop offset="90%" stop-color="#c6c6c6"/><stop offset="97%" stop-color="#aaa"/><stop offset="100%" stop-color="#9b9b9b"/></linearGradient><linearGradient id="n" x1="50%" x2="50%" y1="100%" y2="0%"><stop offset="0%" stop-color="#e2e2e2"/><stop offset="3%" stop-color="#d0d0d0"/><stop offset="6%" stop-color="#bcbcbc"/><stop offset="9%" stop-color="#b5b5b5"/><stop offset="49%" stop-color="#f6f6f6"/><stop offset="63%" stop-color="#f3f3f3"/><stop offset="73%" stop-color="#eaeaea"/><stop offset="82%" stop-color="#dbdbdb"/><stop offset="90%" stop-color="#c6c6c6"/><stop offset="97%" stop-color="#aaa"/><stop offset="100%" stop-color="#9b9b9b"/></linearGradient><linearGradient id="o" x1="0%" x2="100%" y1="50%" y2="50%"><stop offset="0%" stop-color="#6b6b6b"/><stop offset="1%" stop-color="#767676"/><stop offset="3%" stop-color="#959595"/><stop offset="4%" stop-color="#aaa"/><stop offset="37%" stop-color="#ccc"/><stop offset="74%" stop-color="#eaeaea"/><stop offset="94%" stop-color="#f6f6f6"/><stop offset="95%" stop-color="#ededed"/><stop offset="96%" stop-color="#d4d4d4"/><stop offset="97%" stop-color="#ababab"/><stop offset="99%" stop-color="#737373"/><stop offset="99%" stop-color="#666"/></linearGradient><linearGradient id="p" x1="0%" x2="100%" y1="50%" y2="50%"><stop offset="0%" stop-color="#6b6b6b"/><stop offset="1%" stop-color="#767676"/><stop offset="3%" stop-color="#959595"/><stop offset="4%" stop-color="#aaa"/><stop offset="37%" stop-color="#ccc"/><stop offset="74%" stop-color="#eaeaea"/><stop offset="94%" stop-color="#f6f6f6"/><stop offset="95%" stop-color="#ededed"/><stop offset="96%" stop-color="#d4d4d4"/><stop offset="97%" stop-color="#ababab"/><stop offset="99%" stop-color="#737373"/><stop offset="99%" stop-color="#666"/></linearGradient><linearGradient id="q" x1=".271%" x2="100%" y1="49.945%" y2="49.945%"><stop offset="0%" stop-color="#e2e2e2"/><stop offset="3%" stop-color="#d0d0d0"/><stop offset="6%" stop-color="#bcbcbc"/><stop offset="9%" stop-color="#b5b5b5"/><stop offset="49%" stop-color="#f6f6f6"/><stop offset="63%" stop-color="#f3f3f3"/><stop offset="73%" stop-color="#eaeaea"/><stop offset="82%" stop-color="#dbdbdb"/><stop offset="90%" stop-color="#c6c6c6"/><stop offset="97%" stop-color="#aaa"/><stop offset="100%" stop-color="#9b9b9b"/></linearGradient><linearGradient id="r" x1="0%" x2="99.729%" y1="49.963%" y2="49.963%"><stop offset="0%" stop-color="#b7b7b7"/><stop offset="3%" stop-color="#9b9d9d"/><stop offset="7%" stop-color="#878b8b"/><stop offset="9%" stop-color="#808484"/><stop offset="20%" stop-color="#a3a6a6"/><stop offset="49%" stop-color="#f6f6f6"/><stop offset="61%" stop-color="#f3f3f3"/><stop offset="70%" stop-color="#eaeaea"/><stop offset="77%" stop-color="#dbdbdb"/><stop offset="83%" stop-color="#c5c5c5"/><stop offset="90%" stop-color="#aaa"/><stop offset="95%" stop-color="#888"/><stop offset="100%" stop-color="#666"/></linearGradient><linearGradient id="s" x1="0%" x2="100%" y1="50%" y2="50%"><stop offset="0%" stop-color="#b7b7b7"/><stop offset="3%" stop-color="#9b9d9d"/><stop offset="7%" stop-color="#878b8b"/><stop offset="9%" stop-color="#808484"/><stop offset="20%" stop-color="#a3a6a6"/><stop offset="49%" stop-color="#f6f6f6"/><stop offset="61%" stop-color="#f3f3f3"/><stop offset="70%" stop-color="#eaeaea"/><stop offset="77%" stop-color="#dbdbdb"/><stop offset="83%" stop-color="#c5c5c5"/><stop offset="90%" stop-color="#aaa"/><stop offset="95%" stop-color="#888"/><stop offset="100%" stop-color="#666"/></linearGradient><linearGradient id="t" x1=".271%" x2="100%" y1="50%" y2="50%"><stop offset="0%" stop-color="#b7b7b7"/><stop offset="3%" stop-color="#9b9d9d"/><stop offset="7%" stop-color="#878b8b"/><stop offset="9%" stop-color="#808484"/><stop offset="20%" stop-color="#a3a6a6"/><stop offset="49%" stop-color="#f6f6f6"/><stop offset="61%" stop-color="#f3f3f3"/><stop offset="70%" stop-color="#eaeaea"/><stop offset="77%" stop-color="#dbdbdb"/><stop offset="83%" stop-color="#c5c5c5"/><stop offset="90%" stop-color="#aaa"/><stop offset="95%" stop-color="#888"/><stop offset="100%" stop-color="#666"/></linearGradient><linearGradient id="u" x1="29.013%" x2="91.973%" y1="70.984%" y2="7.254%"><stop offset="0%" stop-color="#e2e2e2"/><stop offset="3%" stop-color="#d0d0d0"/><stop offset="6%" stop-color="#bcbcbc"/><stop offset="9%" stop-color="#b5b5b5"/><stop offset="49%" stop-color="#f6f6f6"/><stop offset="63%" stop-color="#f3f3f3"/><stop offset="73%" stop-color="#eaeaea"/><stop offset="82%" stop-color="#dbdbdb"/><stop offset="90%" stop-color="#c6c6c6"/><stop offset="97%" stop-color="#aaa"/><stop offset="100%" stop-color="#9b9b9b"/></linearGradient></defs><g fill="none" fill-rule="nonzero" transform="translate(.105 .796)"><path fill="url(#a)" d="M34.235 18.374h115.4v72.21h-115.4z"/><path fill="url(#b)" d="M15.615 19.194h18.51v41.68h-18.51z"/><path fill="#dcdcdb" d="M18.435 18.564h16.45v5.8h-16.45z"/><path fill="url(#c)" d="M37.945 23.344h29.14v31.14h-29.14z"/><path fill="url(#d)" d="M70.135 22.974h29.14v31.14h-29.14z"/><path fill="url(#d)" d="M70.135 56.484h29.14v31.14h-29.14z"/><path fill="url(#e)" d="M101.865 56.484h20.68v31.14h-20.68z"/><path fill="url(#f)" d="M125.355 56.484h20.68v31.14h-20.68z"/><path fill="url(#g)" d="M101.865 22.494h43.79v31.14h-43.79z"/><path fill="url(#c)" d="M37.945 56.484h29.14v31.14h-29.14z"/><circle cx="25.755" cy="31.764" r="7.63" fill="url(#h)"/><circle cx="25.755" cy="31.764" r="6.78" fill="url(#i)"/><circle cx="25.755" cy="46.854" r="7.63" fill="url(#h)"/><circle cx="25.755" cy="46.854" r="6.78" fill="url(#i)"/><circle cx="25.755" cy="46.854" r="4.14" fill="url(#j)"/><circle cx="25.755" cy="46.854" r="3.38" fill="url(#k)"/><path fill="#dadbe0" d="M34.125 53.604h-9.55l-4.16-4.16-2.67-.01v2.68l5.83 5.83.01-.02h10.54z"/><path fill="#dadbe0" d="m0 68.342 18.045-18.045 1.725 1.725L1.725 70.067zM34.173 83.44 23.259 57.427l1.07-.45 10.914 26.014z"/><path fill="#3e3a39" d="M40.565 60.624h7.68v5h-7.68z"/><path fill="#dadbe0" d="M41.425 61.184h5.95v3.88h-5.95z"/><path fill="#3e3a39" d="M40.565 73.784h7.68v5h-7.68z"/><path fill="#dadbe0" d="M41.425 74.344h5.95v3.88h-5.95z"/><path fill="#3e3a39" d="M56.375 60.624h7.68v5h-7.68z"/><path fill="#dadbe0" d="M57.235 61.184h5.95v3.88h-5.95z"/><path fill="#3e3a39" d="M72.705 60.624h7.68v5h-7.68z"/><path fill="#dadbe0" d="M73.565 61.184h5.95v3.88h-5.95z"/><path fill="#3e3a39" d="M88.925 60.624h7.68v5h-7.68z"/><path fill="#dadbe0" d="M89.785 61.184h5.95v3.88h-5.95z"/><path fill="#3e3a39" d="M112.605 75.844h7.68v5h-7.68z"/><path fill="#dadbe0" d="M113.465 76.404h5.95v3.88h-5.95z"/><path fill="#3e3a39" d="M135.695 76.134h7.68v5h-7.68z"/><path fill="#dadbe0" d="M136.555 76.694h5.95v3.88h-5.95z"/><path fill="url(#l)" d="M129.115 70.114h3.88v15.81h-3.88z"/><path fill="url(#m)" d="M66.265 21.464h4.92v6h-4.92z"/><path fill="url(#n)" d="M58.895 11.194h15.58v8.19h-15.58z"/><path fill="url(#o)" d="M74.525 3.654h26.25v31.36h-26.25z"/><path fill="url(#p)" d="M100.775 3.654h25.89v31.36h-25.89z"/><path fill="url(#q)" d="M129.335 83.724h3.69v9.03h-3.69z" transform="rotate(90 131.18 88.24)"/><path fill="url(#r)" d="M140.675 81.414h3.69v13.65h-3.69z" transform="rotate(90 142.52 88.24)"/><path fill="url(#s)" d="M66.265 27.454h4.92v56.84h-4.92z"/><path fill="url(#t)" d="M97.48 60.889h3.69v54.68h-3.69z" transform="rotate(90 99.325 88.23)"/><path fill="url(#u)" d="M71.995 90.084a9.76 9.76 0 0 1-4.08-1.68c-1.35-1.22-1.64-4.11-1.64-4.11h4.92a3.3 3.3 0 0 0 0 1.3c.18.341.46.62.8.8z"/><path fill="#dadbe0" d="m22.665 38.254-1.4-2.09a7.14 7.14 0 0 1 1.93-9.89L60.705.914a5.32 5.32 0 0 1 7.35 1.37l2.24 3.19a4.94 4.94 0 0 1-1 6.75l-36.36 27.78a7.14 7.14 0 0 1-10.27-1.75"/><circle cx="81.885" cy="10.924" r="3.11" fill="#bbbbbc"/><circle cx="81.885" cy="10.924" r="2.53" fill="#e8e8e8" stroke="#939399" stroke-width=".1"/><path fill="#e8e8e8" stroke="#939399" stroke-width=".05" d="M80.665 12.304h2.42v1h-2.42z"/><path fill="#bbbbbc" d="M84.126 10.775v1h-1v-1zM83.37 9.235l.707.707-.707.707-.707-.707zM81.735 8.674h1v1h-1zM80.19 9.438l.706-.707.707.707-.707.707zM79.634 11.065v-1h1v1z"/><path fill="#7f7f7f" d="m81.425 12.484-.46-.22 1.83-3.2z"/><circle cx="81.885" cy="10.924" r="1" fill="#bbbbbc"/><circle cx="92.075" cy="11.064" r="3.11" fill="#bbbbbc"/><circle cx="92.075" cy="11.064" r="2.53" fill="#e8e8e8" stroke="#939399" stroke-width=".1"/><path fill="#e8e8e8" stroke="#939399" stroke-width=".05" d="M90.865 12.454h2.42v1h-2.42z"/><path fill="#bbbbbc" d="M94.326 10.925v1h-1v-1zM93.566 9.37l.707.707-.707.707-.707-.707zM91.935 8.824h1v1h-1zM90.391 9.574l.707-.707.707.707-.707.707zM89.834 11.215v-1h1v1z"/><path fill="#7f7f7f" d="m91.615 12.634-.45-.22 1.82-3.2z"/><circle cx="92.075" cy="11.064" r="1" fill="#bbbbbc"/><path fill="#f3f3f2" d="M78.995 22.364h5.42v2.27h-5.42zm10.52 0h5.42v2.27h-5.42zm14.09 1.81h13.38v7.24h-13.38z"/><path fill="#242424" d="M93.155 25.934h-1.88l-.94 1.63.94 1.62h1.88l.94-1.62z"/><circle cx="92.215" cy="27.564" r="1.4" fill="#9b9c9c"/><circle cx="92.215" cy="27.564" r="1" fill="#242424"/><circle cx="106.155" cy="9.444" r="1.41" fill="#faf8f8"/><circle cx="106.155" cy="9.444" r="1" fill="#a95e63"/><circle cx="114.025" cy="9.444" r="1.41" fill="#faf8f8"/><circle cx="114.025" cy="9.444" r="1" fill="#f5d38b"/><circle cx="114.025" cy="13.444" r="1.41" fill="#faf8f8"/><circle cx="114.025" cy="13.444" r="1" fill="#f5d38b"/><circle cx="114.025" cy="17.454" r="1.41" fill="#faf8f8"/><circle cx="114.025" cy="17.454" r="1" fill="#f5d38b"/><circle cx="114.025" cy="21.464" r="1.41" fill="#faf8f8"/><circle cx="114.025" cy="21.464" r="1" fill="#f5d38b"/><circle cx="121.115" cy="28.084" r="1.41" fill="#faf8f8"/><circle cx="121.115" cy="28.084" r="1" fill="#232323"/><circle cx="110.215" cy="9.444" r="1.41" fill="#faf8f8"/><circle cx="110.215" cy="9.444" r="1" fill="#69bdc0"/><circle cx="110.215" cy="13.444" r="1.41" fill="#faf8f8"/><circle cx="110.215" cy="13.444" r="1" fill="#69bdc0"/><circle cx="110.215" cy="17.454" r="1.41" fill="#faf8f8"/><circle cx="110.215" cy="17.454" r="1" fill="#69bdc0"/><circle cx="110.215" cy="21.464" r="1.41" fill="#faf8f8"/><circle cx="110.215" cy="21.464" r="1" fill="#69bdc0"/><circle cx="106.155" cy="13.444" r="1.41" fill="#faf8f8"/><circle cx="106.155" cy="13.444" r="1" fill="#a95e63"/><circle cx="106.155" cy="17.454" r="1.41" fill="#faf8f8"/><circle cx="106.155" cy="17.454" r="1" fill="#a95e63"/><circle cx="106.155" cy="21.464" r="1.41" fill="#faf8f8"/><circle cx="106.155" cy="21.464" r="1" fill="#a95e63"/><path fill="#a0a0a0" d="M74.525 2.194h26.25v1.46h-26.25z"/><path fill="#a0a0a0" d="M100.235 2.194h26.43v1.46h-26.43zm-25.76 32.82h26.25v1.46h-26.25z"/><path fill="#a0a0a0" d="M100.195 35.014h26.43v1.46h-26.43z"/></g></svg>