<svg xmlns="http://www.w3.org/2000/svg" viewBox="0 0 151 143"><title>Biological treatment plant（生物处理厂）</title><defs><linearGradient id="a" x1="0%" x2="100%" y1="50%" y2="50%"><stop offset="0%" stop-color="#6b6b6b"/><stop offset="1%" stop-color="#767676"/><stop offset="3%" stop-color="#959595"/><stop offset="4%" stop-color="#aaa"/><stop offset="37%" stop-color="#ccc"/><stop offset="74%" stop-color="#eaeaea"/><stop offset="94%" stop-color="#f6f6f6"/><stop offset="95%" stop-color="#ededed"/><stop offset="96%" stop-color="#d4d4d4"/><stop offset="97%" stop-color="#ababab"/><stop offset="99%" stop-color="#737373"/><stop offset="99%" stop-color="#666"/></linearGradient><linearGradient id="b" x1="0%" x2="100%" y1="50.004%" y2="50.004%"><stop offset="0%" stop-color="#6b6b6b"/><stop offset="1%" stop-color="#767676"/><stop offset="3%" stop-color="#959595"/><stop offset="4%" stop-color="#aaa"/><stop offset="37%" stop-color="#ccc"/><stop offset="74%" stop-color="#eaeaea"/><stop offset="94%" stop-color="#f6f6f6"/><stop offset="95%" stop-color="#ededed"/><stop offset="96%" stop-color="#d4d4d4"/><stop offset="97%" stop-color="#ababab"/><stop offset="99%" stop-color="#737373"/><stop offset="99%" stop-color="#666"/></linearGradient><linearGradient id="c" x1="0%" x2="100%" y1="50%" y2="50%"><stop offset="0%" stop-color="#e2e2e2"/><stop offset="3%" stop-color="#d0d0d0"/><stop offset="6%" stop-color="#bcbcbc"/><stop offset="9%" stop-color="#b5b5b5"/><stop offset="49%" stop-color="#f6f6f6"/><stop offset="63%" stop-color="#f3f3f3"/><stop offset="73%" stop-color="#eaeaea"/><stop offset="82%" stop-color="#dbdbdb"/><stop offset="90%" stop-color="#c6c6c6"/><stop offset="97%" stop-color="#aaa"/><stop offset="100%" stop-color="#9b9b9b"/></linearGradient><linearGradient id="d" x1="0%" x2="100%" y1="49.59%" y2="49.59%"><stop offset="0%" stop-color="#e2e2e2"/><stop offset="3%" stop-color="#d0d0d0"/><stop offset="6%" stop-color="#bcbcbc"/><stop offset="9%" stop-color="#b5b5b5"/><stop offset="49%" stop-color="#f6f6f6"/><stop offset="63%" stop-color="#f3f3f3"/><stop offset="73%" stop-color="#eaeaea"/><stop offset="82%" stop-color="#dbdbdb"/><stop offset="90%" stop-color="#c6c6c6"/><stop offset="97%" stop-color="#aaa"/><stop offset="100%" stop-color="#9b9b9b"/></linearGradient><linearGradient id="e" x1="0%" x2="100%" y1="50%" y2="50%"><stop offset="0%" stop-color="#6b6b6b"/><stop offset="1%" stop-color="#767676"/><stop offset="3%" stop-color="#959595"/><stop offset="4%" stop-color="#aaa"/><stop offset="37%" stop-color="#ccc"/><stop offset="74%" stop-color="#eaeaea"/><stop offset="94%" stop-color="#f6f6f6"/><stop offset="95%" stop-color="#ededed"/><stop offset="96%" stop-color="#d4d4d4"/><stop offset="97%" stop-color="#ababab"/><stop offset="99%" stop-color="#737373"/><stop offset="99%" stop-color="#666"/></linearGradient><linearGradient id="f" x1="0%" x2="100%" y1="50.139%" y2="50.139%"><stop offset="0%" stop-color="#e2e2e2"/><stop offset="3%" stop-color="#d0d0d0"/><stop offset="6%" stop-color="#bcbcbc"/><stop offset="9%" stop-color="#b5b5b5"/><stop offset="49%" stop-color="#f6f6f6"/><stop offset="63%" stop-color="#f3f3f3"/><stop offset="73%" stop-color="#eaeaea"/><stop offset="82%" stop-color="#dbdbdb"/><stop offset="90%" stop-color="#c6c6c6"/><stop offset="97%" stop-color="#aaa"/><stop offset="100%" stop-color="#9b9b9b"/></linearGradient><linearGradient id="g" x1="0%" x2="100%" y1="50%" y2="50%"><stop offset="0%" stop-color="#e2e2e2"/><stop offset="3%" stop-color="#d0d0d0"/><stop offset="6%" stop-color="#bcbcbc"/><stop offset="9%" stop-color="#b5b5b5"/><stop offset="49%" stop-color="#f6f6f6"/><stop offset="63%" stop-color="#f3f3f3"/><stop offset="73%" stop-color="#eaeaea"/><stop offset="82%" stop-color="#dbdbdb"/><stop offset="90%" stop-color="#c6c6c6"/><stop offset="97%" stop-color="#aaa"/><stop offset="100%" stop-color="#9b9b9b"/></linearGradient><linearGradient id="h" x1="0%" x2="100.213%" y1="50%" y2="50%"><stop offset="0%" stop-color="#e2e2e2"/><stop offset="3%" stop-color="#d0d0d0"/><stop offset="6%" stop-color="#bcbcbc"/><stop offset="9%" stop-color="#b5b5b5"/><stop offset="49%" stop-color="#f6f6f6"/><stop offset="63%" stop-color="#f3f3f3"/><stop offset="73%" stop-color="#eaeaea"/><stop offset="82%" stop-color="#dbdbdb"/><stop offset="90%" stop-color="#c6c6c6"/><stop offset="97%" stop-color="#aaa"/><stop offset="100%" stop-color="#9b9b9b"/></linearGradient><linearGradient id="i" x1="0%" x2="100%" y1="50.01%" y2="50.01%"><stop offset="0%" stop-color="#e2e2e2"/><stop offset="3%" stop-color="#d0d0d0"/><stop offset="6%" stop-color="#bcbcbc"/><stop offset="9%" stop-color="#b5b5b5"/><stop offset="49%" stop-color="#f6f6f6"/><stop offset="63%" stop-color="#f3f3f3"/><stop offset="73%" stop-color="#eaeaea"/><stop offset="82%" stop-color="#dbdbdb"/><stop offset="90%" stop-color="#c6c6c6"/><stop offset="97%" stop-color="#aaa"/><stop offset="100%" stop-color="#9b9b9b"/></linearGradient><linearGradient id="j" x1="0%" x2="99.583%" y1="50.01%" y2="50.01%"><stop offset="0%" stop-color="#e2e2e2"/><stop offset="3%" stop-color="#d0d0d0"/><stop offset="6%" stop-color="#bcbcbc"/><stop offset="9%" stop-color="#b5b5b5"/><stop offset="49%" stop-color="#f6f6f6"/><stop offset="63%" stop-color="#f3f3f3"/><stop offset="73%" stop-color="#eaeaea"/><stop offset="82%" stop-color="#dbdbdb"/><stop offset="90%" stop-color="#c6c6c6"/><stop offset="97%" stop-color="#aaa"/><stop offset="100%" stop-color="#9b9b9b"/></linearGradient></defs><g fill="none" fill-rule="nonzero" transform="translate(.1 .8)"><path fill="url(#a)" d="M134.38 15.33h15.58v117.6h-15.58z"/><path fill="url(#b)" d="M.61 15.14h133.16a.61.61 0 0 1 .61.61v117.18H0V15.75a.61.61 0 0 1 .61-.61"/><rect width="33.17" height="22.53" x="81.85" y="32.51" fill="#302c2b" rx=".53"/><path fill="#bababa" d="M83.61 34.43h30.16v19.29H83.61z"/><path fill="#efefef" d="M113.77 53.72 95.44 34.43h18.33z"/><rect width="12.45" height="2.44" x="136.03" y="22.21" fill="url(#c)" rx=".32"/><rect width="12.45" height="2.44" x="136.03" y="30.08" fill="url(#c)" rx=".32"/><rect width="12.45" height="2.44" x="136.03" y="37.95" fill="url(#d)" rx=".32"/><rect width="12.45" height="2.44" x="136.03" y="45.82" fill="url(#d)" rx=".32"/><rect width="12.45" height="2.44" x="136.03" y="53.68" fill="url(#c)" rx=".32"/><rect width="12.45" height="2.44" x="136.03" y="61.55" fill="url(#c)" rx=".32"/><rect width="12.45" height="2.44" x="136.03" y="69.42" fill="url(#c)" rx=".32"/><rect width="12.45" height="2.44" x="136.03" y="77.29" fill="url(#c)" rx=".32"/><rect width="12.45" height="2.44" x="136.03" y="85.16" fill="url(#c)" rx=".32"/><rect width="12.45" height="2.44" x="136.03" y="93.03" fill="url(#c)" rx=".32"/><rect width="12.45" height="2.44" x="136.03" y="100.9" fill="url(#c)" rx=".32"/><rect width="12.45" height="2.44" x="136.03" y="108.77" fill="url(#c)" rx=".32"/><rect width="12.45" height="2.44" x="136.03" y="116.64" fill="url(#d)" rx=".32"/><rect width="12.45" height="2.44" x="136.03" y="124.5" fill="url(#c)" rx=".32"/><path fill="url(#e)" d="M92.92 3.4h32.59v11.74H92.92z"/><path fill="url(#f)" d="M17.67 11.54h19.41v3.59H17.67z"/><path fill="url(#g)" d="M21.8 7.02H33v4.52H21.8z"/><path fill="url(#h)" d="M24.93 0h4.7v7.02h-4.7z"/><rect width="119.21" height="51.29" x="7.74" y="81.65" fill="#efefef" rx=".61"/><path fill="url(#i)" d="M12.45 84.72h2.4v47.67h-2.4z"/><path fill="url(#i)" d="M21.26 84.72h2.4v47.67h-2.4z"/><path fill="url(#j)" d="M30.07 84.72h2.4v47.67h-2.4z"/><path fill="url(#j)" d="M38.88 84.72h2.4v47.67h-2.4z"/><path fill="url(#i)" d="M47.68 84.72h2.4v47.67h-2.4z"/><path fill="url(#i)" d="M56.49 84.72h2.4v47.67h-2.4z"/><path fill="url(#j)" d="M65.3 84.72h2.4v47.67h-2.4z"/><path fill="url(#j)" d="M74.11 84.72h2.4v47.67h-2.4z"/><path fill="url(#i)" d="M82.91 84.72h2.4v47.67h-2.4z"/><path fill="url(#i)" d="M91.72 84.72h2.4v47.67h-2.4z"/><path fill="url(#i)" d="M100.53 84.72h2.4v47.67h-2.4z"/><path fill="url(#j)" d="M109.34 84.72h2.4v47.67h-2.4z"/><path fill="url(#i)" d="M118.14 84.72h2.4v47.67h-2.4z"/><path fill="#bbbcbc" d="M0 132.93h134.38v8.51H0z"/></g></svg>