<svg xmlns="http://www.w3.org/2000/svg" viewBox="0 0 147 149"><title>Bubble diffuser in sludge tank（污泥池气泡扩散器）</title><defs><linearGradient id="a" x1="-.343%" x2="100.343%" y1="50%" y2="50%"><stop offset="0%" stop-color="#6b6b6b"/><stop offset="1%" stop-color="#767676"/><stop offset="3%" stop-color="#959595"/><stop offset="4%" stop-color="#aaa"/><stop offset="37%" stop-color="#ccc"/><stop offset="74%" stop-color="#eaeaea"/><stop offset="94%" stop-color="#f6f6f6"/><stop offset="95%" stop-color="#ededed"/><stop offset="96%" stop-color="#d4d4d4"/><stop offset="97%" stop-color="#ababab"/><stop offset="99%" stop-color="#737373"/><stop offset="99%" stop-color="#666"/></linearGradient></defs><g fill="none" fill-rule="nonzero" transform="translate(.6 1.3)"><ellipse cx="72.85" cy="73.59" fill="#cdcece" stroke="url(#a)" rx="72.85" ry="73.59"/><path fill="#e6e6e6" d="M112.72 17.5H33c-.93.71-1.84 1.45-2.73 2.2v.7h86.05c-1.17-1-2.38-1.96-3.6-2.9M45.97 137.92h51.32c.73-.94 1.46-1.87 2.16-2.89H43.81c.69 1.02 1.42 1.95 2.16 2.89m-31.25-19.31H131c.57-1 1.11-1.92 1.64-2.89H13.08c.53.97 1.07 1.94 1.64 2.89M6.38 99.07h133c.26-.95.47-1.93.69-2.89H5.69c.22.96.43 1.94.69 2.89m-2.8-20.81c0 .64.07 1.25.09 1.89h138.38c0-.64.09-1.25.09-1.89v-1H3.62c0 .33-.04.66-.04 1m2.23-18.44h134.1c-.23-1-.43-1.94-.7-2.89H6.5c-.26.95-.46 1.93-.69 2.89m8.02-20.32h118.06c-.55-1-1.06-2-1.65-2.89H15.5c-.61.89-1.12 1.89-1.67 2.89"/><path fill="#e6e6e6" d="M69.72 5.36h6.25v136.46h-6.25z"/></g></svg>