<svg xmlns="http://www.w3.org/2000/svg" viewBox="0 0 29 151"><title>Central Water Purifier（中央净水器）</title><defs><linearGradient id="a" x1="0%" x2="100%" y1="50%" y2="50%"><stop offset="0%" stop-color="#e2e2e2"/><stop offset="3%" stop-color="#d0d0d0"/><stop offset="6%" stop-color="#bcbcbc"/><stop offset="9%" stop-color="#b5b5b5"/><stop offset="49%" stop-color="#f6f6f6"/><stop offset="63%" stop-color="#f3f3f3"/><stop offset="73%" stop-color="#eaeaea"/><stop offset="82%" stop-color="#dbdbdb"/><stop offset="90%" stop-color="#c6c6c6"/><stop offset="97%" stop-color="#aaa"/><stop offset="100%" stop-color="#9b9b9b"/></linearGradient><linearGradient id="b" x1="50%" x2="50%" y1="100%" y2="0%"><stop offset="0%" stop-color="#e2e2e2"/><stop offset="3%" stop-color="#d0d0d0"/><stop offset="6%" stop-color="#bcbcbc"/><stop offset="9%" stop-color="#b5b5b5"/><stop offset="49%" stop-color="#f6f6f6"/><stop offset="63%" stop-color="#f3f3f3"/><stop offset="73%" stop-color="#eaeaea"/><stop offset="82%" stop-color="#dbdbdb"/><stop offset="90%" stop-color="#c6c6c6"/><stop offset="97%" stop-color="#aaa"/><stop offset="100%" stop-color="#9b9b9b"/></linearGradient><linearGradient id="c" x1="0%" x2="100.036%" y1="50%" y2="50%"><stop offset="0%" stop-color="#6b6b6b"/><stop offset="11%" stop-color="#767676"/><stop offset="30%" stop-color="#959595"/><stop offset="41%" stop-color="#aaa"/><stop offset="56%" stop-color="#ccc"/><stop offset="71%" stop-color="#eaeaea"/><stop offset="80%" stop-color="#f6f6f6"/><stop offset="83%" stop-color="#ededed"/><stop offset="87%" stop-color="#d4d4d4"/><stop offset="92%" stop-color="#ababab"/><stop offset="98%" stop-color="#737373"/><stop offset="99%" stop-color="#666"/></linearGradient><linearGradient id="d" x1="0%" x2="100.036%" y1="50%" y2="50%"><stop offset="0%" stop-color="#e2e2e2"/><stop offset="3%" stop-color="#d0d0d0"/><stop offset="6%" stop-color="#bcbcbc"/><stop offset="9%" stop-color="#b5b5b5"/><stop offset="49%" stop-color="#f6f6f6"/><stop offset="63%" stop-color="#f3f3f3"/><stop offset="73%" stop-color="#eaeaea"/><stop offset="82%" stop-color="#dbdbdb"/><stop offset="90%" stop-color="#c6c6c6"/><stop offset="97%" stop-color="#aaa"/><stop offset="100%" stop-color="#9b9b9b"/></linearGradient><linearGradient id="e" x1="50.041%" x2="50.041%" y1="100%" y2="0%"><stop offset="0%" stop-color="#e2e2e2"/><stop offset="3%" stop-color="#d0d0d0"/><stop offset="6%" stop-color="#bcbcbc"/><stop offset="9%" stop-color="#b5b5b5"/><stop offset="49%" stop-color="#f6f6f6"/><stop offset="63%" stop-color="#f3f3f3"/><stop offset="73%" stop-color="#eaeaea"/><stop offset="82%" stop-color="#dbdbdb"/><stop offset="90%" stop-color="#c6c6c6"/><stop offset="97%" stop-color="#aaa"/><stop offset="100%" stop-color="#9b9b9b"/></linearGradient><linearGradient id="f" x1="50%" x2="50%" y1="100.287%" y2="0%"><stop offset="0%" stop-color="#e2e2e2"/><stop offset="3%" stop-color="#d0d0d0"/><stop offset="6%" stop-color="#bcbcbc"/><stop offset="9%" stop-color="#b5b5b5"/><stop offset="49%" stop-color="#f6f6f6"/><stop offset="63%" stop-color="#f3f3f3"/><stop offset="73%" stop-color="#eaeaea"/><stop offset="82%" stop-color="#dbdbdb"/><stop offset="90%" stop-color="#c6c6c6"/><stop offset="97%" stop-color="#aaa"/><stop offset="100%" stop-color="#9b9b9b"/></linearGradient></defs><g fill="none" fill-rule="evenodd" transform="translate(.35 .8)"><path fill="#3f3e3e" fill-rule="nonzero" d="M2.56 0h22.56v11.68H2.56z"/><path fill="#bababa" fill-rule="nonzero" d="M3.23.9h21.22v10.15H3.23z"/><path fill="#dadbe0" fill-rule="nonzero" d="M4.04 1.47h9.17v9.17H4.04z"/><path fill="url(#a)" fill-rule="nonzero" d="M11.12 11.68h5.74v9.46h-5.74z"/><path fill="url(#b)" fill-rule="nonzero" d="M8.42 16.34h10.54v4.8H8.42z"/><path fill="url(#c)" fill-rule="nonzero" d="M0 21.14h27.94v8.96H0z"/><path fill="url(#c)" fill-rule="nonzero" d="M.02 141.04h27.94V150H.02z"/><path fill="url(#d)" fill-rule="nonzero" d="M.02 30.1h27.94v110.94H.02z"/><path fill="url(#e)" fill-rule="nonzero" d="M8.42 16.34h12.33v2.86H8.42z"/><path fill="url(#f)" fill-rule="nonzero" d="M20.76 16.05h1.9v3.49h-1.9z"/><circle cx="19.02" cy="5.99" r="4.12" fill="#fff" fill-rule="nonzero"/><path fill="#eaeaea" fill-rule="nonzero" d="M14.9 6a4.13 4.13 0 0 0 1.85 3.39q.31.023.62 0A4.45 4.45 0 0 0 21.75 5a4.6 4.6 0 0 0-.84-2.63 4.2 4.2 0 0 0-1.87-.45A4.13 4.13 0 0 0 14.9 6"/><path fill="#7f7f7f" fill-rule="nonzero" d="M19.02 1.48a4.51 4.51 0 1 0 0 9.02 4.51 4.51 0 0 0 0-9.02m0 8.63a4.12 4.12 0 1 1 0-8.24 4.12 4.12 0 0 1 0 8.24"/><circle cx="19.02" cy="5.99" r="3.95" fill="#c1c1c1" fill-rule="nonzero" opacity=".51"/><path fill="#7f7f7f" fill-rule="nonzero" d="m20.18 7.12.33-.53a.18.18 0 0 0-.06-.24h-.08a3.2 3.2 0 0 1-.83-.35c-.72-.41-3.5-2.24-3.5-2.24s2.62 2 3.36 2.66q.272.295.48.64v.05a.17.17 0 0 0 .3.01"/><circle cx="19.16" cy="6.04" r="1" fill="#7f7f7f" fill-rule="nonzero"/><path stroke="#7f7f7f" stroke-width=".25" d="m20.79 2.72-.29.55m-3.13-.55.3.55M15.4 5.5l.61.09m6.8-.11-.61.09"/><circle cx="19.16" cy="6.04" r="1" fill="#dedede" fill-rule="nonzero"/></g></svg>