<svg xmlns="http://www.w3.org/2000/svg" viewBox="0 0 150 151"><title>Civic Tap Water（城市自来水）</title><g fill="none" fill-rule="evenodd" transform="translate(.088 .8)"><circle cx="74.892" cy="74.88" r="68.41" fill="#fff" fill-rule="nonzero"/><path fill="#eaeaea" fill-rule="nonzero" d="M6.482 74.88a68.32 68.32 0 0 0 29.89 56.52 72 72 0 0 0 10.14.8c40.5 0 73.32-33.39 73.32-74.57a74.93 74.93 0 0 0-14-43.71 68.32 68.32 0 0 0-99.34 61z"/><path fill="#7f7f7f" fill-rule="nonzero" d="M74.892 0c-30.29 0-57.6 18.247-69.19 46.233C-5.89 74.22.52 106.431 21.94 127.85s53.634 27.822 81.618 16.227 46.228-38.905 46.224-69.196C149.777 33.523 116.25 0 74.892 0m0 143.29c-37.782 0-68.41-30.628-68.41-68.41S37.11 6.47 74.892 6.47s68.41 30.628 68.41 68.41-30.628 68.41-68.41 68.41"/><circle cx="74.892" cy="74.88" r="65.67" fill="#c1c1c1" fill-rule="nonzero" opacity=".51"/><path fill="#7f7f7f" fill-rule="nonzero" d="m94.142 93.7 5.38-8.92a2.85 2.85 0 0 0-1-3.91 2.3 2.3 0 0 0-.44-.16l-.23-.05a3.3 3.3 0 0 0-.68-.13 50 50 0 0 1-13.77-4.82c-11.86-6.88-58.01-37.22-58.01-37.22S68.812 72 81.072 82.67c3 2.57 6.78 8.59 8.07 10.7.105.255.25.492.43.7l.06.11q.254.295.57.52a2.85 2.85 0 0 0 3.94-1"/><circle cx="77.202" cy="75.75" r="5.91" fill="#7f7f7f" fill-rule="nonzero"/><path stroke="#7f7f7f" stroke-width=".25" d="m104.302 20.56-4.84 9.11m-51.97-9.11 4.84 9.11m-37.66 37.12 10.21 1.46m112.89-1.77-10.21 1.46"/><circle cx="77.202" cy="75.75" r="3.38" fill="#dedede" fill-rule="nonzero"/></g></svg>