<svg xmlns="http://www.w3.org/2000/svg" viewBox="0 0 151 144"><title>Clarifier (side view)（澄清池(侧面图)）</title><defs><linearGradient id="a" x1="0%" x2="100%" y1="50%" y2="50%"><stop offset="0%" stop-color="#6b6b6b"/><stop offset="11%" stop-color="#767676"/><stop offset="30%" stop-color="#959595"/><stop offset="41%" stop-color="#aaa"/><stop offset="56%" stop-color="#ccc"/><stop offset="71%" stop-color="#eaeaea"/><stop offset="80%" stop-color="#f6f6f6"/><stop offset="83%" stop-color="#ededed"/><stop offset="87%" stop-color="#d4d4d4"/><stop offset="92%" stop-color="#ababab"/><stop offset="98%" stop-color="#737373"/><stop offset="99%" stop-color="#666"/></linearGradient><linearGradient id="b" x1="0%" x2="100%" y1="50.01%" y2="50.01%"><stop offset="0%" stop-color="#e2e2e2"/><stop offset="3%" stop-color="#d0d0d0"/><stop offset="6%" stop-color="#bcbcbc"/><stop offset="9%" stop-color="#b5b5b5"/><stop offset="49%" stop-color="#f6f6f6"/><stop offset="63%" stop-color="#f3f3f3"/><stop offset="73%" stop-color="#eaeaea"/><stop offset="82%" stop-color="#dbdbdb"/><stop offset="90%" stop-color="#c6c6c6"/><stop offset="97%" stop-color="#aaa"/><stop offset="100%" stop-color="#9b9b9b"/></linearGradient><linearGradient id="c" x1="0%" x2="99.948%" y1="49.901%" y2="49.901%"><stop offset="0%" stop-color="#e2e2e2"/><stop offset="3%" stop-color="#d0d0d0"/><stop offset="6%" stop-color="#bcbcbc"/><stop offset="9%" stop-color="#b5b5b5"/><stop offset="49%" stop-color="#f6f6f6"/><stop offset="63%" stop-color="#f3f3f3"/><stop offset="73%" stop-color="#eaeaea"/><stop offset="82%" stop-color="#dbdbdb"/><stop offset="90%" stop-color="#c6c6c6"/><stop offset="97%" stop-color="#aaa"/><stop offset="100%" stop-color="#9b9b9b"/></linearGradient></defs><g fill="none" fill-rule="nonzero"><path fill="#cfebf6" d="M4.73 20.24h141.3v5.05H4.73z"/><path fill="#dbf0f8" d="M4.73 23.39h141.3v93.12H4.73z"/><path fill="url(#a)" d="M4.88 5.05h12.76v2.04H4.88z" transform="translate(.1 .8)"/><path fill="url(#b)" d="M4.88 7.09h12.76v103H4.88z" transform="translate(.1 .8)"/><path fill="url(#c)" d="M1.5 0h19.27v5.05H1.5z" transform="translate(.1 .8)"/><path fill="#818080" d="M4.1 111.86s2.06-1.13 3-.94 2 1 2.86 1.12c1 .1 2.64-.63 3.55-.65 1.49 0 5 2.23 5 2.23a11.9 11.9 0 0 0 10.42.71l1.34-.55a14.23 14.23 0 0 1 12.74 1.02 7.3 7.3 0 0 0 5.8.81s8.16-2.08 10.77-1.2a21 21 0 0 0 3.64 1.29c1.4.13 4.25-.71 5.32-1 1.51-.41 3.13-.09 4.28-.45a10 10 0 0 1 2.65-.87 9 9 0 0 1 2 .63c3.6 2.63 7.6 2.32 11.78.76 0 0 5.92-1.55 8-1.08 1.53.35 3 1.54 4.28 1.62 2 .12 4.67-2.76 6.43-2.18 1 .32 1.42 1.33 2.08 1.69 1 .54 3.33-.87 3.33-.87a9 9 0 0 1 7.43 0 16.2 16.2 0 0 0 14.67-.77l10.55 1.3v6.08l-70.44 16.95L4.1 119.97z"/><path fill="#eee" d="M.1 15.12v109.1l74.52 19.14 75.88-19.14V15.12zm145.93 104.16-71.29 18.23-70-18.23v-104h141.3z"/></g></svg>