<svg xmlns="http://www.w3.org/2000/svg" viewBox="0 0 151 126"><title>Clarifier and thickener drive（澄清池和浓密机驱动）</title><defs><linearGradient id="a" x1="0%" x2="100.008%" y1="50%" y2="50%"><stop offset="0%" stop-color="#6b6b6b"/><stop offset="1%" stop-color="#767676"/><stop offset="3%" stop-color="#959595"/><stop offset="4%" stop-color="#aaa"/><stop offset="37%" stop-color="#ccc"/><stop offset="74%" stop-color="#eaeaea"/><stop offset="94%" stop-color="#f6f6f6"/><stop offset="95%" stop-color="#ededed"/><stop offset="96%" stop-color="#d4d4d4"/><stop offset="97%" stop-color="#ababab"/><stop offset="99%" stop-color="#737373"/><stop offset="99%" stop-color="#666"/></linearGradient><linearGradient id="b" x1="49.865%" x2="49.865%" y1="99.922%" y2="0%"><stop offset="0%" stop-color="#6b6b6b"/><stop offset="11%" stop-color="#767676"/><stop offset="30%" stop-color="#959595"/><stop offset="41%" stop-color="#aaa"/><stop offset="56%" stop-color="#ccc"/><stop offset="71%" stop-color="#eaeaea"/><stop offset="80%" stop-color="#f6f6f6"/><stop offset="83%" stop-color="#ededed"/><stop offset="87%" stop-color="#d4d4d4"/><stop offset="92%" stop-color="#ababab"/><stop offset="98%" stop-color="#737373"/><stop offset="99%" stop-color="#666"/></linearGradient><linearGradient id="c" x1="0%" x2="100%" y1="50.022%" y2="50.022%"><stop offset="0%" stop-color="#6b6b6b"/><stop offset="11%" stop-color="#767676"/><stop offset="30%" stop-color="#959595"/><stop offset="41%" stop-color="#aaa"/><stop offset="56%" stop-color="#ccc"/><stop offset="71%" stop-color="#eaeaea"/><stop offset="80%" stop-color="#f6f6f6"/><stop offset="83%" stop-color="#ededed"/><stop offset="87%" stop-color="#d4d4d4"/><stop offset="92%" stop-color="#ababab"/><stop offset="98%" stop-color="#737373"/><stop offset="99%" stop-color="#666"/></linearGradient><linearGradient id="d" x1="50.135%" x2="50.135%" y1="100%" y2="0%"><stop offset="0%" stop-color="#6b6b6b"/><stop offset="11%" stop-color="#767676"/><stop offset="30%" stop-color="#959595"/><stop offset="41%" stop-color="#aaa"/><stop offset="56%" stop-color="#ccc"/><stop offset="71%" stop-color="#eaeaea"/><stop offset="80%" stop-color="#f6f6f6"/><stop offset="83%" stop-color="#ededed"/><stop offset="87%" stop-color="#d4d4d4"/><stop offset="92%" stop-color="#ababab"/><stop offset="98%" stop-color="#737373"/><stop offset="99%" stop-color="#666"/></linearGradient><linearGradient id="e" x1="49.996%" x2="49.996%" y1="99.869%" y2="0%"><stop offset="0%" stop-color="#6b6b6b"/><stop offset="11%" stop-color="#767676"/><stop offset="30%" stop-color="#959595"/><stop offset="41%" stop-color="#aaa"/><stop offset="56%" stop-color="#ccc"/><stop offset="71%" stop-color="#eaeaea"/><stop offset="80%" stop-color="#f6f6f6"/><stop offset="83%" stop-color="#ededed"/><stop offset="87%" stop-color="#d4d4d4"/><stop offset="92%" stop-color="#ababab"/><stop offset="98%" stop-color="#737373"/><stop offset="99%" stop-color="#666"/></linearGradient><linearGradient id="f" x1="0%" x2="100%" y1="50%" y2="50%"><stop offset="0%" stop-color="#6b6b6b"/><stop offset="11%" stop-color="#767676"/><stop offset="30%" stop-color="#959595"/><stop offset="41%" stop-color="#aaa"/><stop offset="56%" stop-color="#ccc"/><stop offset="71%" stop-color="#eaeaea"/><stop offset="80%" stop-color="#f6f6f6"/><stop offset="83%" stop-color="#ededed"/><stop offset="87%" stop-color="#d4d4d4"/><stop offset="92%" stop-color="#ababab"/><stop offset="98%" stop-color="#737373"/><stop offset="99%" stop-color="#666"/></linearGradient><linearGradient id="g" x1="-.641%" x2="100%" y1="50%" y2="50%"><stop offset="0%" stop-color="#6b6b6b"/><stop offset="11%" stop-color="#767676"/><stop offset="30%" stop-color="#959595"/><stop offset="41%" stop-color="#aaa"/><stop offset="56%" stop-color="#ccc"/><stop offset="71%" stop-color="#eaeaea"/><stop offset="80%" stop-color="#f6f6f6"/><stop offset="83%" stop-color="#ededed"/><stop offset="87%" stop-color="#d4d4d4"/><stop offset="92%" stop-color="#ababab"/><stop offset="98%" stop-color="#737373"/><stop offset="99%" stop-color="#666"/></linearGradient><linearGradient id="h" x1="0%" x2="100%" y1="50%" y2="50%"><stop offset="0%" stop-color="#6b6b6b"/><stop offset="11%" stop-color="#767676"/><stop offset="30%" stop-color="#959595"/><stop offset="41%" stop-color="#aaa"/><stop offset="56%" stop-color="#ccc"/><stop offset="71%" stop-color="#eaeaea"/><stop offset="80%" stop-color="#f6f6f6"/><stop offset="83%" stop-color="#ededed"/><stop offset="87%" stop-color="#d4d4d4"/><stop offset="92%" stop-color="#ababab"/><stop offset="98%" stop-color="#737373"/><stop offset="99%" stop-color="#666"/></linearGradient><linearGradient id="i" x1="0%" x2="100.641%" y1="50%" y2="50%"><stop offset="0%" stop-color="#6b6b6b"/><stop offset="11%" stop-color="#767676"/><stop offset="30%" stop-color="#959595"/><stop offset="41%" stop-color="#aaa"/><stop offset="56%" stop-color="#ccc"/><stop offset="71%" stop-color="#eaeaea"/><stop offset="80%" stop-color="#f6f6f6"/><stop offset="83%" stop-color="#ededed"/><stop offset="87%" stop-color="#d4d4d4"/><stop offset="92%" stop-color="#ababab"/><stop offset="98%" stop-color="#737373"/><stop offset="99%" stop-color="#666"/></linearGradient></defs><g fill="none" fill-rule="nonzero" transform="translate(.1 .8)"><path fill="#ebebeb" d="M10.71 12.93h128.57v20.48H10.71z"/><path fill="url(#a)" d="M10.71 37.26h128.57v72.76H10.71z"/><path fill="url(#b)" d="M0 .19h3.71v12.75H0z"/><path fill="url(#c)" d="M5.87 10.51h4.84v22.91H5.87z"/><path fill="#e4e4e4" d="M10.71 124.59H1.67l5.41-87.33h3.63zm128.58 0h9.04l-5.41-87.33h-3.63z"/><path fill="#a8acae" d="M19.79 37.26h2.06v73.15h-2.06z"/><path fill="#a8acae" d="M139.28 59.4v2.06H10.38V59.4zM139.29 84.45v2.06H10.39v-2.06z"/><path fill="#a8acae" d="M46.87 37.26h2.06v73.15h-2.06zm26.81 0h2.06v73.15h-2.06zm26.81 0h2.06v73.15h-2.06zm26.81 0h2.06v73.15h-2.06z"/><path fill="#3e3938" d="M14.5 16.77h120.4v16.64H14.5z"/><path fill="#e9e9e9" d="M26.44 16.77h2.83v16.64h-2.83zm6.33 0h2.83v16.64h-2.83zm6.34 0h2.83v16.64h-2.83zm6.34 0h2.83v16.64h-2.83zm6.34 0h2.83v16.64h-2.83zm6.34 0h2.83v16.64h-2.83zm6.34 0h2.83v16.64h-2.83zm6.33 0h2.83v16.64H70.8zm6.34 0h2.83v16.64h-2.83zm6.34 0h2.83v16.64h-2.83zm6.34 0h2.83v16.64h-2.83zm6.34 0h2.83v16.64h-2.83zm6.34 0h2.83v16.64h-2.83zm6.33 0h2.83v16.64h-2.83zm6.34 0H118v16.64h-2.83zm6.34 0h2.83v16.64h-2.83zm6.34 0h2.83v16.64h-2.83z"/><path fill="url(#c)" d="M139.29 10.51h4.84v22.91h-4.84z"/><path fill="url(#d)" d="M146.29 0H150v12.75h-3.71z"/><path fill="url(#e)" d="M3.71 2.87H146.3v7.65H3.71z"/><path fill="url(#f)" d="M5.85 33.42h138.28v3.84H5.85z"/><circle cx="34.29" cy="97.78" r="9.21" fill="#fcfcfc"/><circle cx="34.29" cy="97.78" r="8.43" fill="#e6e6e6"/><circle cx="34.29" cy="97.78" r="6.18" fill="#a8acae"/><circle cx="34.44" cy="90.51" r="1" fill="url(#g)"/><circle cx="39.12" cy="92.26" r="1" fill="url(#h)"/><circle cx="41.59" cy="97.49" r="1" fill="url(#i)"/><circle cx="39.12" cy="102.99" r="1" fill="url(#h)"/><circle cx="34.44" cy="104.89" r="1" fill="url(#g)"/><circle cx="29.28" cy="102.85" r="1" fill="url(#i)"/><circle cx="27.19" cy="97.32" r="1" fill="url(#h)"/><circle cx="29.55" cy="92.38" r="1" fill="url(#g)"/><circle cx="114.92" cy="97.78" r="9.21" fill="#fcfcfc"/><circle cx="114.92" cy="97.78" r="8.43" fill="#e6e6e6"/><circle cx="114.92" cy="97.78" r="6.18" fill="#a8acae"/><circle cx="115.06" cy="90.51" r="1" fill="url(#i)"/><circle cx="119.75" cy="92.26" r="1" fill="url(#h)"/><circle cx="122.22" cy="97.49" r="1" fill="url(#i)"/><circle cx="119.75" cy="102.99" r="1" fill="url(#h)"/><circle cx="115.06" cy="104.89" r="1" fill="url(#i)"/><circle cx="109.91" cy="102.85" r="1" fill="url(#i)"/><circle cx="107.82" cy="97.32" r="1" fill="url(#h)"/><circle cx="110.18" cy="92.38" r="1" fill="url(#g)"/><path fill="#e9e9e9" d="M20.1 16.77h2.83v16.64H20.1z"/></g></svg>