<svg xmlns="http://www.w3.org/2000/svg" viewBox="0 0 89 151"><title>Clean water system（清水系统）</title><defs><linearGradient id="a" x1="100%" x2="0%" y1="50.021%" y2="50.021%"><stop offset="0%" stop-color="#6b6b6b"/><stop offset="1%" stop-color="#767676"/><stop offset="3%" stop-color="#959595"/><stop offset="4%" stop-color="#aaa"/><stop offset="37%" stop-color="#ccc"/><stop offset="74%" stop-color="#eaeaea"/><stop offset="94%" stop-color="#f6f6f6"/><stop offset="95%" stop-color="#ededed"/><stop offset="96%" stop-color="#d4d4d4"/><stop offset="97%" stop-color="#ababab"/><stop offset="99%" stop-color="#737373"/><stop offset="99%" stop-color="#666"/></linearGradient><linearGradient id="b" x1="0%" x2="100%" y1="49.98%" y2="49.98%"><stop offset="0%" stop-color="#6b6b6b"/><stop offset="1%" stop-color="#767676"/><stop offset="3%" stop-color="#959595"/><stop offset="4%" stop-color="#aaa"/><stop offset="37%" stop-color="#ccc"/><stop offset="74%" stop-color="#eaeaea"/><stop offset="94%" stop-color="#f6f6f6"/><stop offset="95%" stop-color="#ededed"/><stop offset="96%" stop-color="#d4d4d4"/><stop offset="97%" stop-color="#ababab"/><stop offset="99%" stop-color="#737373"/><stop offset="99%" stop-color="#666"/></linearGradient><linearGradient id="c" x1="0%" x2="100%" y1="49.966%" y2="49.966%"><stop offset="0%" stop-color="#6b6b6b"/><stop offset="1%" stop-color="#767676"/><stop offset="3%" stop-color="#959595"/><stop offset="4%" stop-color="#aaa"/><stop offset="37%" stop-color="#ccc"/><stop offset="74%" stop-color="#eaeaea"/><stop offset="94%" stop-color="#f6f6f6"/><stop offset="95%" stop-color="#ededed"/><stop offset="96%" stop-color="#d4d4d4"/><stop offset="97%" stop-color="#ababab"/><stop offset="99%" stop-color="#737373"/><stop offset="99%" stop-color="#666"/></linearGradient><linearGradient id="d" x1="100%" x2=".088%" y1="49.98%" y2="49.98%"><stop offset="0%" stop-color="#6b6b6b"/><stop offset="1%" stop-color="#767676"/><stop offset="3%" stop-color="#959595"/><stop offset="4%" stop-color="#aaa"/><stop offset="37%" stop-color="#ccc"/><stop offset="74%" stop-color="#eaeaea"/><stop offset="94%" stop-color="#f6f6f6"/><stop offset="95%" stop-color="#ededed"/><stop offset="96%" stop-color="#d4d4d4"/><stop offset="97%" stop-color="#ababab"/><stop offset="99%" stop-color="#737373"/><stop offset="99%" stop-color="#666"/></linearGradient><linearGradient id="e" x1="50.157%" x2="50.157%" y1="100%" y2="0%"><stop offset="0%" stop-color="#e2e2e2"/><stop offset="3%" stop-color="#d0d0d0"/><stop offset="6%" stop-color="#bcbcbc"/><stop offset="9%" stop-color="#b5b5b5"/><stop offset="49%" stop-color="#f6f6f6"/><stop offset="63%" stop-color="#f3f3f3"/><stop offset="73%" stop-color="#eaeaea"/><stop offset="82%" stop-color="#dbdbdb"/><stop offset="90%" stop-color="#c6c6c6"/><stop offset="97%" stop-color="#aaa"/><stop offset="100%" stop-color="#9b9b9b"/></linearGradient><linearGradient id="f" x1="100.186%" x2="0%" y1="49.966%" y2="49.966%"><stop offset="0%" stop-color="#6b6b6b"/><stop offset="1%" stop-color="#767676"/><stop offset="3%" stop-color="#959595"/><stop offset="4%" stop-color="#aaa"/><stop offset="37%" stop-color="#ccc"/><stop offset="74%" stop-color="#eaeaea"/><stop offset="94%" stop-color="#f6f6f6"/><stop offset="95%" stop-color="#ededed"/><stop offset="96%" stop-color="#d4d4d4"/><stop offset="97%" stop-color="#ababab"/><stop offset="99%" stop-color="#737373"/><stop offset="99%" stop-color="#666"/></linearGradient><linearGradient id="g" x1="0%" x2="100%" y1="50.005%" y2="50.005%"><stop offset="0%" stop-color="#e2e2e2"/><stop offset="3%" stop-color="#d0d0d0"/><stop offset="6%" stop-color="#bcbcbc"/><stop offset="9%" stop-color="#b5b5b5"/><stop offset="49%" stop-color="#f6f6f6"/><stop offset="63%" stop-color="#f3f3f3"/><stop offset="73%" stop-color="#eaeaea"/><stop offset="82%" stop-color="#dbdbdb"/><stop offset="90%" stop-color="#c6c6c6"/><stop offset="97%" stop-color="#aaa"/><stop offset="100%" stop-color="#9b9b9b"/></linearGradient><linearGradient id="h" x1="50.235%" x2="50.235%" y1="100%" y2="0%"><stop offset="0%" stop-color="#6b6b6b"/><stop offset="11%" stop-color="#767676"/><stop offset="30%" stop-color="#959595"/><stop offset="41%" stop-color="#aaa"/><stop offset="56%" stop-color="#ccc"/><stop offset="71%" stop-color="#eaeaea"/><stop offset="80%" stop-color="#f6f6f6"/><stop offset="83%" stop-color="#ededed"/><stop offset="87%" stop-color="#d4d4d4"/><stop offset="92%" stop-color="#ababab"/><stop offset="98%" stop-color="#737373"/><stop offset="99%" stop-color="#666"/></linearGradient><linearGradient id="i" x1="50%" x2="50%" y1="100%" y2="0%"><stop offset="0%" stop-color="#6b6b6b"/><stop offset="11%" stop-color="#767676"/><stop offset="30%" stop-color="#959595"/><stop offset="41%" stop-color="#aaa"/><stop offset="56%" stop-color="#ccc"/><stop offset="71%" stop-color="#eaeaea"/><stop offset="80%" stop-color="#f6f6f6"/><stop offset="83%" stop-color="#ededed"/><stop offset="87%" stop-color="#d4d4d4"/><stop offset="92%" stop-color="#ababab"/><stop offset="98%" stop-color="#737373"/><stop offset="99%" stop-color="#666"/></linearGradient><linearGradient id="j" x1="49.909%" x2="49.909%" y1="100%" y2="0%"><stop offset="0%" stop-color="#6b6b6b"/><stop offset="11%" stop-color="#767676"/><stop offset="30%" stop-color="#959595"/><stop offset="41%" stop-color="#aaa"/><stop offset="56%" stop-color="#ccc"/><stop offset="71%" stop-color="#eaeaea"/><stop offset="80%" stop-color="#f6f6f6"/><stop offset="83%" stop-color="#ededed"/><stop offset="87%" stop-color="#d4d4d4"/><stop offset="92%" stop-color="#ababab"/><stop offset="98%" stop-color="#737373"/><stop offset="99%" stop-color="#666"/></linearGradient><linearGradient id="k" x1="49.909%" x2="49.909%" y1="100%" y2="0%"><stop offset="0%" stop-color="#6b6b6b"/><stop offset="11%" stop-color="#767676"/><stop offset="30%" stop-color="#959595"/><stop offset="41%" stop-color="#aaa"/><stop offset="56%" stop-color="#ccc"/><stop offset="71%" stop-color="#eaeaea"/><stop offset="80%" stop-color="#f6f6f6"/><stop offset="83%" stop-color="#ededed"/><stop offset="87%" stop-color="#d4d4d4"/><stop offset="92%" stop-color="#ababab"/><stop offset="98%" stop-color="#737373"/><stop offset="99%" stop-color="#666"/></linearGradient><linearGradient id="l" x1="71.225%" x2="17.891%" y1="24%" y2="86.667%"><stop offset="0%" stop-color="#e2e2e2"/><stop offset="3%" stop-color="#d0d0d0"/><stop offset="6%" stop-color="#bcbcbc"/><stop offset="9%" stop-color="#b5b5b5"/><stop offset="49%" stop-color="#f6f6f6"/><stop offset="63%" stop-color="#f3f3f3"/><stop offset="73%" stop-color="#eaeaea"/><stop offset="82%" stop-color="#dbdbdb"/><stop offset="90%" stop-color="#c6c6c6"/><stop offset="97%" stop-color="#aaa"/><stop offset="100%" stop-color="#9b9b9b"/></linearGradient><linearGradient id="m" x1="75.238%" x2="14.343%" y1="76.872%" y2="11.894%"><stop offset="0%" stop-color="#e2e2e2"/><stop offset="3%" stop-color="#d0d0d0"/><stop offset="6%" stop-color="#bcbcbc"/><stop offset="9%" stop-color="#b5b5b5"/><stop offset="49%" stop-color="#f6f6f6"/><stop offset="63%" stop-color="#f3f3f3"/><stop offset="73%" stop-color="#eaeaea"/><stop offset="82%" stop-color="#dbdbdb"/><stop offset="90%" stop-color="#c6c6c6"/><stop offset="97%" stop-color="#aaa"/><stop offset="100%" stop-color="#9b9b9b"/></linearGradient><linearGradient id="n" x1="0%" x2="100%" y1="50%" y2="50%"><stop offset="0%" stop-color="#6b6b6b"/><stop offset="11%" stop-color="#767676"/><stop offset="30%" stop-color="#959595"/><stop offset="41%" stop-color="#aaa"/><stop offset="56%" stop-color="#ccc"/><stop offset="71%" stop-color="#eaeaea"/><stop offset="80%" stop-color="#f6f6f6"/><stop offset="83%" stop-color="#ededed"/><stop offset="87%" stop-color="#d4d4d4"/><stop offset="92%" stop-color="#ababab"/><stop offset="98%" stop-color="#737373"/><stop offset="99%" stop-color="#666"/></linearGradient><linearGradient id="o" x1="0%" x2="100%" y1="50%" y2="50%"><stop offset="0%" stop-color="#e2e2e2"/><stop offset="3%" stop-color="#d0d0d0"/><stop offset="6%" stop-color="#bcbcbc"/><stop offset="9%" stop-color="#b5b5b5"/><stop offset="49%" stop-color="#f6f6f6"/><stop offset="63%" stop-color="#f3f3f3"/><stop offset="73%" stop-color="#eaeaea"/><stop offset="82%" stop-color="#dbdbdb"/><stop offset="90%" stop-color="#c6c6c6"/><stop offset="97%" stop-color="#aaa"/><stop offset="100%" stop-color="#9b9b9b"/></linearGradient><linearGradient id="p" x1="0%" x2="99.231%" y1="50%" y2="50%"><stop offset="0%" stop-color="#e2e2e2"/><stop offset="3%" stop-color="#d0d0d0"/><stop offset="6%" stop-color="#bcbcbc"/><stop offset="9%" stop-color="#b5b5b5"/><stop offset="49%" stop-color="#f6f6f6"/><stop offset="63%" stop-color="#f3f3f3"/><stop offset="73%" stop-color="#eaeaea"/><stop offset="82%" stop-color="#dbdbdb"/><stop offset="90%" stop-color="#c6c6c6"/><stop offset="97%" stop-color="#aaa"/><stop offset="100%" stop-color="#9b9b9b"/></linearGradient><linearGradient id="q" x1=".769%" x2="100%" y1="50%" y2="50%"><stop offset="0%" stop-color="#e2e2e2"/><stop offset="3%" stop-color="#d0d0d0"/><stop offset="6%" stop-color="#bcbcbc"/><stop offset="9%" stop-color="#b5b5b5"/><stop offset="49%" stop-color="#f6f6f6"/><stop offset="63%" stop-color="#f3f3f3"/><stop offset="73%" stop-color="#eaeaea"/><stop offset="82%" stop-color="#dbdbdb"/><stop offset="90%" stop-color="#c6c6c6"/><stop offset="97%" stop-color="#aaa"/><stop offset="100%" stop-color="#9b9b9b"/></linearGradient><linearGradient id="r" x1="0%" x2="100%" y1="50%" y2="50%"><stop offset="0%" stop-color="#e2e2e2"/><stop offset="3%" stop-color="#d0d0d0"/><stop offset="6%" stop-color="#bcbcbc"/><stop offset="9%" stop-color="#b5b5b5"/><stop offset="49%" stop-color="#f6f6f6"/><stop offset="63%" stop-color="#f3f3f3"/><stop offset="73%" stop-color="#eaeaea"/><stop offset="82%" stop-color="#dbdbdb"/><stop offset="90%" stop-color="#c6c6c6"/><stop offset="97%" stop-color="#aaa"/><stop offset="100%" stop-color="#9b9b9b"/></linearGradient><linearGradient id="s" x1="0%" x2="100%" y1="50%" y2="50%"><stop offset="0%" stop-color="#6b6b6b"/><stop offset="11%" stop-color="#767676"/><stop offset="30%" stop-color="#959595"/><stop offset="41%" stop-color="#aaa"/><stop offset="56%" stop-color="#ccc"/><stop offset="71%" stop-color="#eaeaea"/><stop offset="80%" stop-color="#f6f6f6"/><stop offset="83%" stop-color="#ededed"/><stop offset="87%" stop-color="#d4d4d4"/><stop offset="92%" stop-color="#ababab"/><stop offset="98%" stop-color="#737373"/><stop offset="99%" stop-color="#666"/></linearGradient><linearGradient id="t" x1="0%" x2="100.781%" y1="50%" y2="50%"><stop offset="0%" stop-color="#e2e2e2"/><stop offset="3%" stop-color="#d0d0d0"/><stop offset="6%" stop-color="#bcbcbc"/><stop offset="9%" stop-color="#b5b5b5"/><stop offset="49%" stop-color="#f6f6f6"/><stop offset="63%" stop-color="#f3f3f3"/><stop offset="73%" stop-color="#eaeaea"/><stop offset="82%" stop-color="#dbdbdb"/><stop offset="90%" stop-color="#c6c6c6"/><stop offset="97%" stop-color="#aaa"/><stop offset="100%" stop-color="#9b9b9b"/></linearGradient><linearGradient id="u" x1="-.781%" x2="100%" y1="50%" y2="50%"><stop offset="0%" stop-color="#e2e2e2"/><stop offset="3%" stop-color="#d0d0d0"/><stop offset="6%" stop-color="#bcbcbc"/><stop offset="9%" stop-color="#b5b5b5"/><stop offset="49%" stop-color="#f6f6f6"/><stop offset="63%" stop-color="#f3f3f3"/><stop offset="73%" stop-color="#eaeaea"/><stop offset="82%" stop-color="#dbdbdb"/><stop offset="90%" stop-color="#c6c6c6"/><stop offset="97%" stop-color="#aaa"/><stop offset="100%" stop-color="#9b9b9b"/></linearGradient><linearGradient id="v" x1="0%" x2="100%" y1="50%" y2="50%"><stop offset="0%" stop-color="#e2e2e2"/><stop offset="3%" stop-color="#d0d0d0"/><stop offset="6%" stop-color="#bcbcbc"/><stop offset="9%" stop-color="#b5b5b5"/><stop offset="49%" stop-color="#f6f6f6"/><stop offset="63%" stop-color="#f3f3f3"/><stop offset="73%" stop-color="#eaeaea"/><stop offset="82%" stop-color="#dbdbdb"/><stop offset="90%" stop-color="#c6c6c6"/><stop offset="97%" stop-color="#aaa"/><stop offset="100%" stop-color="#9b9b9b"/></linearGradient><linearGradient id="w" x1="0%" x2="100.781%" y1="50%" y2="50%"><stop offset="0%" stop-color="#e2e2e2"/><stop offset="3%" stop-color="#d0d0d0"/><stop offset="6%" stop-color="#bcbcbc"/><stop offset="9%" stop-color="#b5b5b5"/><stop offset="49%" stop-color="#f6f6f6"/><stop offset="63%" stop-color="#f3f3f3"/><stop offset="73%" stop-color="#eaeaea"/><stop offset="82%" stop-color="#dbdbdb"/><stop offset="90%" stop-color="#c6c6c6"/><stop offset="97%" stop-color="#aaa"/><stop offset="100%" stop-color="#9b9b9b"/></linearGradient><linearGradient id="x" x1="-.781%" x2="100%" y1="50%" y2="50%"><stop offset="0%" stop-color="#e2e2e2"/><stop offset="3%" stop-color="#d0d0d0"/><stop offset="6%" stop-color="#bcbcbc"/><stop offset="9%" stop-color="#b5b5b5"/><stop offset="49%" stop-color="#f6f6f6"/><stop offset="63%" stop-color="#f3f3f3"/><stop offset="73%" stop-color="#eaeaea"/><stop offset="82%" stop-color="#dbdbdb"/><stop offset="90%" stop-color="#c6c6c6"/><stop offset="97%" stop-color="#aaa"/><stop offset="100%" stop-color="#9b9b9b"/></linearGradient><linearGradient id="y" x1="0%" x2="100%" y1="49.957%" y2="49.957%"><stop offset="0%" stop-color="#6b6b6b"/><stop offset="1%" stop-color="#767676"/><stop offset="3%" stop-color="#959595"/><stop offset="4%" stop-color="#aaa"/><stop offset="37%" stop-color="#ccc"/><stop offset="74%" stop-color="#eaeaea"/><stop offset="94%" stop-color="#f6f6f6"/><stop offset="95%" stop-color="#ededed"/><stop offset="96%" stop-color="#d4d4d4"/><stop offset="97%" stop-color="#ababab"/><stop offset="99%" stop-color="#737373"/><stop offset="99%" stop-color="#666"/></linearGradient><linearGradient id="z" x1="49.822%" x2="49.822%" y1="100%" y2="0%"><stop offset="0%" stop-color="#e2e2e2"/><stop offset="3%" stop-color="#d0d0d0"/><stop offset="6%" stop-color="#bcbcbc"/><stop offset="9%" stop-color="#b5b5b5"/><stop offset="49%" stop-color="#f6f6f6"/><stop offset="63%" stop-color="#f3f3f3"/><stop offset="73%" stop-color="#eaeaea"/><stop offset="82%" stop-color="#dbdbdb"/><stop offset="90%" stop-color="#c6c6c6"/><stop offset="97%" stop-color="#aaa"/><stop offset="100%" stop-color="#9b9b9b"/></linearGradient><linearGradient id="A" x1="0%" x2="100%" y1="50%" y2="50%"><stop offset="0%" stop-color="#e2e2e2"/><stop offset="3%" stop-color="#d0d0d0"/><stop offset="6%" stop-color="#bcbcbc"/><stop offset="9%" stop-color="#b5b5b5"/><stop offset="49%" stop-color="#f6f6f6"/><stop offset="63%" stop-color="#f3f3f3"/><stop offset="73%" stop-color="#eaeaea"/><stop offset="82%" stop-color="#dbdbdb"/><stop offset="90%" stop-color="#c6c6c6"/><stop offset="97%" stop-color="#aaa"/><stop offset="100%" stop-color="#9b9b9b"/></linearGradient><linearGradient id="B" x1="0%" x2="100%" y1="50.005%" y2="50.005%"><stop offset="0%" stop-color="#e2e2e2"/><stop offset="3%" stop-color="#d0d0d0"/><stop offset="6%" stop-color="#bcbcbc"/><stop offset="9%" stop-color="#b5b5b5"/><stop offset="49%" stop-color="#f6f6f6"/><stop offset="63%" stop-color="#f3f3f3"/><stop offset="73%" stop-color="#eaeaea"/><stop offset="82%" stop-color="#dbdbdb"/><stop offset="90%" stop-color="#c6c6c6"/><stop offset="97%" stop-color="#aaa"/><stop offset="100%" stop-color="#9b9b9b"/></linearGradient><linearGradient id="C" x1="50.157%" x2="50.157%" y1="100%" y2="0%"><stop offset="0%" stop-color="#e2e2e2"/><stop offset="3%" stop-color="#d0d0d0"/><stop offset="6%" stop-color="#bcbcbc"/><stop offset="9%" stop-color="#b5b5b5"/><stop offset="49%" stop-color="#f6f6f6"/><stop offset="63%" stop-color="#f3f3f3"/><stop offset="73%" stop-color="#eaeaea"/><stop offset="82%" stop-color="#dbdbdb"/><stop offset="90%" stop-color="#c6c6c6"/><stop offset="97%" stop-color="#aaa"/><stop offset="100%" stop-color="#9b9b9b"/></linearGradient><linearGradient id="D" x1="50%" x2="50%" y1="100%" y2="0%"><stop offset="0%" stop-color="#e2e2e2"/><stop offset="3%" stop-color="#d0d0d0"/><stop offset="6%" stop-color="#bcbcbc"/><stop offset="9%" stop-color="#b5b5b5"/><stop offset="49%" stop-color="#f6f6f6"/><stop offset="63%" stop-color="#f3f3f3"/><stop offset="73%" stop-color="#eaeaea"/><stop offset="82%" stop-color="#dbdbdb"/><stop offset="90%" stop-color="#c6c6c6"/><stop offset="97%" stop-color="#aaa"/><stop offset="100%" stop-color="#9b9b9b"/></linearGradient><linearGradient id="E" x1="0%" x2="100%" y1="50%" y2="50%"><stop offset="0%" stop-color="#e2e2e2"/><stop offset="3%" stop-color="#d0d0d0"/><stop offset="6%" stop-color="#bcbcbc"/><stop offset="9%" stop-color="#b5b5b5"/><stop offset="49%" stop-color="#f6f6f6"/><stop offset="63%" stop-color="#f3f3f3"/><stop offset="73%" stop-color="#eaeaea"/><stop offset="82%" stop-color="#dbdbdb"/><stop offset="90%" stop-color="#c6c6c6"/><stop offset="97%" stop-color="#aaa"/><stop offset="100%" stop-color="#9b9b9b"/></linearGradient><linearGradient id="F" x1="0%" x2="100%" y1="49.843%" y2="49.843%"><stop offset="0%" stop-color="#e2e2e2"/><stop offset="3%" stop-color="#d0d0d0"/><stop offset="6%" stop-color="#bcbcbc"/><stop offset="9%" stop-color="#b5b5b5"/><stop offset="49%" stop-color="#f6f6f6"/><stop offset="63%" stop-color="#f3f3f3"/><stop offset="73%" stop-color="#eaeaea"/><stop offset="82%" stop-color="#dbdbdb"/><stop offset="90%" stop-color="#c6c6c6"/><stop offset="97%" stop-color="#aaa"/><stop offset="100%" stop-color="#9b9b9b"/></linearGradient><linearGradient id="G" x1="49.756%" x2="49.756%" y1="99.597%" y2="0%"><stop offset="0%" stop-color="#e2e2e2"/><stop offset="3%" stop-color="#d0d0d0"/><stop offset="6%" stop-color="#bcbcbc"/><stop offset="9%" stop-color="#b5b5b5"/><stop offset="49%" stop-color="#f6f6f6"/><stop offset="63%" stop-color="#f3f3f3"/><stop offset="73%" stop-color="#eaeaea"/><stop offset="82%" stop-color="#dbdbdb"/><stop offset="90%" stop-color="#c6c6c6"/><stop offset="97%" stop-color="#aaa"/><stop offset="100%" stop-color="#9b9b9b"/></linearGradient><linearGradient id="H" x1="49.756%" x2="49.756%" y1="100%" y2="0%"><stop offset="0%" stop-color="#e2e2e2"/><stop offset="3%" stop-color="#d0d0d0"/><stop offset="6%" stop-color="#bcbcbc"/><stop offset="9%" stop-color="#b5b5b5"/><stop offset="49%" stop-color="#f6f6f6"/><stop offset="63%" stop-color="#f3f3f3"/><stop offset="73%" stop-color="#eaeaea"/><stop offset="82%" stop-color="#dbdbdb"/><stop offset="90%" stop-color="#c6c6c6"/><stop offset="97%" stop-color="#aaa"/><stop offset="100%" stop-color="#9b9b9b"/></linearGradient><linearGradient id="I" x1="0%" x2="100%" y1="50.273%" y2="50.273%"><stop offset="0%" stop-color="#e2e2e2"/><stop offset="3%" stop-color="#d0d0d0"/><stop offset="6%" stop-color="#bcbcbc"/><stop offset="9%" stop-color="#b5b5b5"/><stop offset="49%" stop-color="#f6f6f6"/><stop offset="63%" stop-color="#f3f3f3"/><stop offset="73%" stop-color="#eaeaea"/><stop offset="82%" stop-color="#dbdbdb"/><stop offset="90%" stop-color="#c6c6c6"/><stop offset="97%" stop-color="#aaa"/><stop offset="100%" stop-color="#9b9b9b"/></linearGradient><linearGradient id="J" x1="0%" x2="100%" y1="49.779%" y2="49.779%"><stop offset="0%" stop-color="#e2e2e2"/><stop offset="3%" stop-color="#d0d0d0"/><stop offset="6%" stop-color="#bcbcbc"/><stop offset="9%" stop-color="#b5b5b5"/><stop offset="49%" stop-color="#f6f6f6"/><stop offset="63%" stop-color="#f3f3f3"/><stop offset="73%" stop-color="#eaeaea"/><stop offset="82%" stop-color="#dbdbdb"/><stop offset="90%" stop-color="#c6c6c6"/><stop offset="97%" stop-color="#aaa"/><stop offset="100%" stop-color="#9b9b9b"/></linearGradient><linearGradient id="K" x1="0%" x2="100%" y1="50%" y2="50%"><stop offset="0%" stop-color="#e2e2e2"/><stop offset="3%" stop-color="#d0d0d0"/><stop offset="6%" stop-color="#bcbcbc"/><stop offset="9%" stop-color="#b5b5b5"/><stop offset="49%" stop-color="#f6f6f6"/><stop offset="63%" stop-color="#f3f3f3"/><stop offset="73%" stop-color="#eaeaea"/><stop offset="82%" stop-color="#dbdbdb"/><stop offset="90%" stop-color="#c6c6c6"/><stop offset="97%" stop-color="#aaa"/><stop offset="100%" stop-color="#9b9b9b"/></linearGradient><linearGradient id="L" x1="0%" x2="100%" y1="50%" y2="50%"><stop offset="0%" stop-color="#e2e2e2"/><stop offset="3%" stop-color="#d0d0d0"/><stop offset="6%" stop-color="#bcbcbc"/><stop offset="9%" stop-color="#b5b5b5"/><stop offset="49%" stop-color="#f6f6f6"/><stop offset="63%" stop-color="#f3f3f3"/><stop offset="73%" stop-color="#eaeaea"/><stop offset="82%" stop-color="#dbdbdb"/><stop offset="90%" stop-color="#c6c6c6"/><stop offset="97%" stop-color="#aaa"/><stop offset="100%" stop-color="#9b9b9b"/></linearGradient><linearGradient id="M" x1="0%" x2="100%" y1="49.451%" y2="49.451%"><stop offset="0%" stop-color="#e2e2e2"/><stop offset="3%" stop-color="#d0d0d0"/><stop offset="6%" stop-color="#bcbcbc"/><stop offset="9%" stop-color="#b5b5b5"/><stop offset="49%" stop-color="#f6f6f6"/><stop offset="63%" stop-color="#f3f3f3"/><stop offset="73%" stop-color="#eaeaea"/><stop offset="82%" stop-color="#dbdbdb"/><stop offset="90%" stop-color="#c6c6c6"/><stop offset="97%" stop-color="#aaa"/><stop offset="100%" stop-color="#9b9b9b"/></linearGradient><linearGradient id="N" x1="0%" x2="100%" y1="49.974%" y2="49.974%"><stop offset="0%" stop-color="#e2e2e2"/><stop offset="3%" stop-color="#d0d0d0"/><stop offset="6%" stop-color="#bcbcbc"/><stop offset="9%" stop-color="#b5b5b5"/><stop offset="49%" stop-color="#f6f6f6"/><stop offset="63%" stop-color="#f3f3f3"/><stop offset="73%" stop-color="#eaeaea"/><stop offset="82%" stop-color="#dbdbdb"/><stop offset="90%" stop-color="#c6c6c6"/><stop offset="97%" stop-color="#aaa"/><stop offset="100%" stop-color="#9b9b9b"/></linearGradient><linearGradient id="O" x1="0%" x2="100%" y1="49.853%" y2="49.853%"><stop offset="0%" stop-color="#e2e2e2"/><stop offset="3%" stop-color="#d0d0d0"/><stop offset="6%" stop-color="#bcbcbc"/><stop offset="9%" stop-color="#b5b5b5"/><stop offset="49%" stop-color="#f6f6f6"/><stop offset="63%" stop-color="#f3f3f3"/><stop offset="73%" stop-color="#eaeaea"/><stop offset="82%" stop-color="#dbdbdb"/><stop offset="90%" stop-color="#c6c6c6"/><stop offset="97%" stop-color="#aaa"/><stop offset="100%" stop-color="#9b9b9b"/></linearGradient><linearGradient id="P" x1="0%" x2="100%" y1="50.262%" y2="50.262%"><stop offset="0%" stop-color="#e2e2e2"/><stop offset="3%" stop-color="#d0d0d0"/><stop offset="6%" stop-color="#bcbcbc"/><stop offset="9%" stop-color="#b5b5b5"/><stop offset="49%" stop-color="#f6f6f6"/><stop offset="63%" stop-color="#f3f3f3"/><stop offset="73%" stop-color="#eaeaea"/><stop offset="82%" stop-color="#dbdbdb"/><stop offset="90%" stop-color="#c6c6c6"/><stop offset="97%" stop-color="#aaa"/><stop offset="100%" stop-color="#9b9b9b"/></linearGradient><linearGradient id="Q" x1="0%" x2="100.007%" y1="49.572%" y2="49.572%"><stop offset="0%" stop-color="#b7b7b7"/><stop offset="3%" stop-color="#9b9d9d"/><stop offset="7%" stop-color="#878b8b"/><stop offset="9%" stop-color="#808484"/><stop offset="20%" stop-color="#a3a6a6"/><stop offset="49%" stop-color="#f6f6f6"/><stop offset="61%" stop-color="#f3f3f3"/><stop offset="70%" stop-color="#eaeaea"/><stop offset="77%" stop-color="#dbdbdb"/><stop offset="83%" stop-color="#c5c5c5"/><stop offset="90%" stop-color="#aaa"/><stop offset="95%" stop-color="#888"/><stop offset="100%" stop-color="#666"/></linearGradient><linearGradient id="R" x1="0%" x2="100%" y1="50%" y2="50%"><stop offset="0%" stop-color="#e2e2e2"/><stop offset="3%" stop-color="#d0d0d0"/><stop offset="6%" stop-color="#bcbcbc"/><stop offset="9%" stop-color="#b5b5b5"/><stop offset="49%" stop-color="#f6f6f6"/><stop offset="63%" stop-color="#f3f3f3"/><stop offset="73%" stop-color="#eaeaea"/><stop offset="82%" stop-color="#dbdbdb"/><stop offset="90%" stop-color="#c6c6c6"/><stop offset="97%" stop-color="#aaa"/><stop offset="100%" stop-color="#9b9b9b"/></linearGradient></defs><g fill="none" fill-rule="evenodd" transform="translate(.1 .786)"><path fill="url(#a)" fill-rule="nonzero" d="M40.37 125.334h5.75v24.25h-5.75z"/><path fill="url(#b)" fill-rule="nonzero" d="M11.35 139.214v-25.35L0 137.484z"/><path fill="url(#c)" fill-rule="nonzero" d="m11.35 139.214 4.75-1.19v-13.62l-4.75.97z"/><path fill="url(#d)" fill-rule="nonzero" d="M75.42 139.214v-25.35l11.35 23.62z"/><path fill="url(#e)" fill-rule="nonzero" d="M75.42 131.164h3.19v1.78h-3.19z"/><path fill="url(#f)" fill-rule="nonzero" d="m75.42 139.214-5.39-1.19v-13.62l5.39.97z"/><path fill="url(#g)" fill-rule="nonzero" d="M79 129.254s-6.37 10.06-35.83 10.06c-30.28 0-35.82-10.06-35.82-10.06V9.364S9.86-.416 43.17.014C74.85.454 79 9.364 79 9.364z"/><path fill="url(#h)" fill-rule="nonzero" d="M10.86 94.924h2.13v2.29h-2.13z"/><path fill="url(#i)" fill-rule="nonzero" d="M10.35 90.094h2.64v2.29h-2.64z"/><path fill="url(#j)" fill-rule="nonzero" d="M10.35 92.384s-4.21 0-4.81-2.29c-.44-1.65 1.64-2.24 1.64-2.24s0 1.23.45 1.57a9.3 9.3 0 0 0 2.72.67z"/><path fill="url(#k)" fill-rule="nonzero" d="M10.86 97.194s-4.21 0-4.81-2.29c-.44-1.66 1.64-2.25 1.64-2.25s0 1.23.46 1.57a9.3 9.3 0 0 0 2.71.68z"/><circle cx="43.06" cy="55.464" r="7.5" fill="#fff" fill-rule="nonzero"/><path fill="#eaeaea" fill-rule="nonzero" d="M35.55 55.464a7.49 7.49 0 0 0 3.28 6.2 8.18 8.18 0 0 0 7.62-12.88 7.49 7.49 0 0 0-10.9 6.68"/><path fill="#7f7f7f" fill-rule="nonzero" d="M43.06 47.254a8.22 8.22 0 1 0-.02 16.44 8.22 8.22 0 0 0 .02-16.44m0 15.72a7.51 7.51 0 1 1 7.5-7.51 7.51 7.51 0 0 1-7.5 7.55z"/><circle cx="43.06" cy="55.464" r="7.2" fill="#c1c1c1" fill-rule="nonzero" opacity=".51"/><path fill="#7f7f7f" fill-rule="nonzero" d="m46.17 54.324-.69-.91a.32.32 0 0 0-.44-.06.2.2 0 0 0 0 .06 5.6 5.6 0 0 1-1 1.22c-1.18.94-6.12 4.44-6.12 4.44s5.15-3.1 6.73-3.92a6.3 6.3 0 0 1 1.42-.4H46h.08a.3.3 0 0 0 .09-.43"/><circle cx="43.31" cy="55.564" r="1" fill="#7f7f7f" fill-rule="nonzero"/><path stroke="#7f7f7f" stroke-width=".25" d="m46.28 49.514-.53 1m-5.7-1 .53 1m-4.13 4.07 1.12.16m12.38-.2-1.12.16"/><circle cx="43.31" cy="55.564" r="1" fill="#dedede" fill-rule="nonzero"/><path fill="#dbf0f8" fill-rule="nonzero" d="M77.33 37.084H58a9.8 9.8 0 0 1-.69 2.73c-1.44 3.3-4.93 5.81-5 9.41s3.2 6.23 3.79 9.68c.78 4.65-3.42 8.75-3.78 13.45-.49 6.4 6.17 11.9 5.16 18.23-.48 3.05-2.7 5.55-5.17 7.4s-5.27 3.24-7.68 5.17a16.53 16.53 0 0 0-5.91 8.73 11.49 11.49 0 0 0 2.15 10.13 13.2 13.2 0 0 0 8.39 4.13c3.18.29 6.384.189 9.54-.3l10.48-1.18c2.75-.31 6-1 7.07-3.53.78-1.85 0-4-1-5.69s-2.46-3.23-3.16-5.11c-1.25-3.4 0-7.19 1.63-10.44s3.55-6.51 3.67-10.13c.14-4.17-2.18-8.11-2.12-12.28.06-5.18 3.79-9.93 3.27-15.09-.5-4.92-4.8-9-4.54-14 .14-2.73 1.63-5.14 2.55-7.65a10 10 0 0 0 .68-3.66"/><path fill="#6e6f6f" fill-rule="nonzero" d="M74.89 26.374a20 20 0 0 1 1.6-4.5 5.88 5.88 0 0 0 .24-4.66 4.74 4.74 0 0 0-2.28-2.09 12.2 12.2 0 0 0-3-.84 65 65 0 0 0-9.76-1c-1.65 0-4.13 0-5.38.49a4.8 4.8 0 0 0-2.31 2.45c-.53 1.86.51 5 1.18 7.54.24.94.52 1.86.83 2.78 1.15 3.4 2.41 7.08 2 10.54h19.32v-.13a13.6 13.6 0 0 0-.94-3.82c-.77-2.12-1.81-4.4-1.5-6.76"/><path fill="url(#l)" fill-rule="nonzero" d="M82.42 18.514c.24.28.08 1 .08 1h3s.09-2.57-.65-3.33a6.13 6.13 0 0 0-3.19-1.17v3q.4.218.76.5"/><path fill="url(#m)" fill-rule="nonzero" d="M82.4 129.894c.27-.28.08-1 .08-1h3.31s.11 2.57-.73 3.32a7.44 7.44 0 0 1-3.52 1.22v-3a6 6 0 0 0 .86-.54"/><path fill="url(#n)" fill-rule="nonzero" d="M7.25 10.624h71.6v1.74H7.25z"/><circle cx="9.57" cy="11.494" r="1" fill="url(#o)" fill-rule="nonzero"/><circle cx="13.9" cy="11.494" r="1" fill="url(#p)" fill-rule="nonzero"/><circle cx="18.49" cy="11.494" r="1" fill="url(#o)" fill-rule="nonzero"/><circle cx="23.08" cy="11.494" r="1" fill="url(#o)" fill-rule="nonzero"/><circle cx="27.67" cy="11.494" r="1" fill="url(#q)" fill-rule="nonzero"/><circle cx="32.27" cy="11.494" r="1" fill="url(#r)" fill-rule="nonzero"/><circle cx="36.86" cy="11.494" r="1" fill="url(#o)" fill-rule="nonzero"/><circle cx="41.45" cy="11.494" r="1" fill="url(#q)" fill-rule="nonzero"/><circle cx="46.05" cy="11.494" r="1" fill="url(#o)" fill-rule="nonzero"/><circle cx="50.64" cy="11.494" r="1" fill="url(#o)" fill-rule="nonzero"/><circle cx="55.23" cy="11.494" r="1" fill="url(#o)" fill-rule="nonzero"/><circle cx="59.83" cy="11.494" r="1" fill="url(#o)" fill-rule="nonzero"/><circle cx="64.42" cy="11.494" r="1" fill="url(#o)" fill-rule="nonzero"/><circle cx="69.01" cy="11.494" r="1" fill="url(#o)" fill-rule="nonzero"/><circle cx="73.61" cy="11.494" r="1" fill="url(#p)" fill-rule="nonzero"/><circle cx="78.2" cy="11.494" r="1" fill="url(#o)" fill-rule="nonzero"/><path fill="url(#s)" fill-rule="nonzero" d="M7.77 126.714h70.95v1.74H7.77z"/><circle cx="10.07" cy="127.584" r="1" fill="url(#t)" fill-rule="nonzero"/><circle cx="14.36" cy="127.584" r="1" fill="url(#u)" fill-rule="nonzero"/><circle cx="18.91" cy="127.584" r="1" fill="url(#u)" fill-rule="nonzero"/><circle cx="23.46" cy="127.584" r="1" fill="url(#v)" fill-rule="nonzero"/><circle cx="28.01" cy="127.584" r="1" fill="url(#v)" fill-rule="nonzero"/><circle cx="32.56" cy="127.584" r="1" fill="url(#v)" fill-rule="nonzero"/><circle cx="37.11" cy="127.584" r="1" fill="url(#w)" fill-rule="nonzero"/><circle cx="41.66" cy="127.584" r="1" fill="url(#t)" fill-rule="nonzero"/><circle cx="46.22" cy="127.584" r="1" fill="url(#u)" fill-rule="nonzero"/><circle cx="50.77" cy="127.584" r="1" fill="url(#x)" fill-rule="nonzero"/><circle cx="55.32" cy="127.584" r="1" fill="url(#v)" fill-rule="nonzero"/><circle cx="59.87" cy="127.584" r="1" fill="url(#v)" fill-rule="nonzero"/><circle cx="64.42" cy="127.584" r="1" fill="url(#v)" fill-rule="nonzero"/><circle cx="68.97" cy="127.584" r="1" fill="url(#t)" fill-rule="nonzero"/><circle cx="73.52" cy="127.584" r="1" fill="url(#t)" fill-rule="nonzero"/><circle cx="78.08" cy="127.584" r="1" fill="url(#u)" fill-rule="nonzero"/><rect width="12.97" height="11.59" x="12.78" y="87.854" fill="url(#y)" fill-rule="nonzero" rx=".2"/><path fill="url(#z)" fill-rule="nonzero" d="M78.85 14.984h2.81v3.15h-2.81z"/><path fill="url(#A)" fill-rule="nonzero" d="M83.11 22.904h1.79v102.8h-1.79z"/><path fill="url(#B)" fill-rule="nonzero" d="M65.35 13.794h1.79v110.93h-1.79z"/><path fill="url(#C)" fill-rule="nonzero" d="M78.35 130.334h3.19v3.07h-3.19z"/><path fill="url(#D)" fill-rule="nonzero" d="M84.12 126.714h2.86v1.04h-2.86z"/><path fill="url(#E)" fill-rule="nonzero" d="M86.98 125.024h1.37v4.52h-1.37z"/><path fill="url(#F)" fill-rule="nonzero" d="M82.53 125.704h3.19v3.19h-3.19z"/><path fill="url(#G)" fill-rule="nonzero" d="M86.61 125.984h2.05v2.48h-2.05z"/><path fill="url(#D)" fill-rule="nonzero" d="M84 20.644h2.86v1.04H84z"/><path fill="url(#E)" fill-rule="nonzero" d="M86.86 18.954h1.37v4.52h-1.37z"/><path fill="url(#H)" fill-rule="nonzero" d="M86.49 19.914h2.05v2.48h-2.05z"/><path fill="url(#I)" fill-rule="nonzero" d="M64.86 18.844h2.77v1.83h-2.77z"/><path fill="url(#J)" fill-rule="nonzero" d="M63.68 22.544h5.04v4.52h-5.04z"/><path fill="url(#I)" fill-rule="nonzero" d="M64.86 31.384h2.77v1.83h-2.77z"/><path fill="url(#K)" fill-rule="nonzero" d="M67.62 79.854h-2.76v-1.84h2.77v1.82z"/><path fill="url(#L)" fill-rule="nonzero" d="M63.68 36.264h5.04v4.52h-5.04z"/><path fill="url(#L)" fill-rule="nonzero" d="M63.72 83.464h5.04v4.52h-5.04z"/><path fill="url(#M)" fill-rule="nonzero" d="M67.62 112.654h-2.76v-1.82h2.77v1.82z"/><path fill="url(#N)" fill-rule="nonzero" d="M44.13 123.644h-1.82v-19.39h1.83v19.39z"/><path fill="url(#L)" fill-rule="nonzero" d="M63.72 116.264h5.04v4.52h-5.04z"/><path fill="url(#O)" fill-rule="nonzero" d="M82.5 19.524h2.95v3.39H82.5z"/><path fill="url(#P)" fill-rule="nonzero" d="M41.48 121.924h-1.56v-1.91h1.57v1.9z"/><path fill="url(#Q)" fill-rule="nonzero" d="M45.57 119.884v2.2c3.81.51 9.65.81 12.63.33 1.68-.27 3-.89 3.2-2 .08-.57.19-1.47-1.4-1.47-1 0-4.78.5-5.78.59a51 51 0 0 1-8.65.39z"/><path fill="url(#R)" fill-rule="nonzero" d="M45.57 122.594h-4.2v-2.72h4.2z"/><path stroke="#3e3938" stroke-width=".1" d="M56.27 13.794a4.8 4.8 0 0 0-2.27 2.43c-.53 1.86.51 5 1.18 7.54.24.94.52 1.86.83 2.78 1.46 4.31 3.13 9.09 1.32 13.27-1.44 3.3-4.93 5.81-5 9.41s3.2 6.23 3.79 9.68c.78 4.65-3.42 8.75-3.78 13.45-.49 6.4 6.17 11.9 5.16 18.23-.48 3.05-2.7 5.55-5.17 7.4s-5.27 3.24-7.68 5.17a16.53 16.53 0 0 0-5.91 8.73 11.49 11.49 0 0 0 2.13 10.13 13.2 13.2 0 0 0 8.39 4.13c3.18.29 6.384.189 9.54-.3l10.48-1.18c2.75-.31 6-1 7.07-3.52.78-1.86 0-4-1-5.7s-2.46-3.23-3.16-5.11c-1.25-3.4 0-7.19 1.63-10.44s3.55-6.51 3.67-10.13c.14-4.17-2.18-8.11-2.12-12.28.06-5.18 3.79-9.93 3.27-15.09-.5-4.92-4.8-9-4.54-14 .14-2.73 1.63-5.14 2.55-7.65a9.7 9.7 0 0 0 .72-3.78 13.6 13.6 0 0 0-.94-3.82c-.78-2.16-1.82-4.4-1.51-6.76a20 20 0 0 1 1.6-4.5 5.88 5.88 0 0 0 .24-4.66 4.74 4.74 0 0 0-2.28-2.09 12.2 12.2 0 0 0-3-.84 65 65 0 0 0-9.76-1c-1.72-.03-4.2-.03-5.45.5Z"/></g></svg>