<svg xmlns="http://www.w3.org/2000/svg" viewBox="0 0 151 110"><title>Drain（排水管）</title><g fill="none" fill-rule="nonzero"><path fill="#c1c1c1" d="M4.51.8h140.74v9.72H4.51z"/><path fill="#b6e1f3" d="M4.51 38.5h140.74v67.03H4.51z"/><path fill="#e2e2e2" d="M145.25.8v104.73H4.51V.8H.1v108.53h150V.8z"/><path fill="#666565" d="M12.3.8h4.46v9.72H12.3zm11.01 0h4.46v9.72h-4.46zm11.02 0h4.46v9.72h-4.46zm11.01 0h4.46v9.72h-4.46zm11.01 0h4.46v9.72h-4.46zm11.01 0h4.46v9.72h-4.46zm11.01 0h4.46v9.72h-4.46zm11.02 0h4.46v9.72h-4.46zm11.01 0h4.46v9.72h-4.46zm11.01 0h4.46v9.72h-4.46zm11.01 0h4.46v9.72h-4.46zm11.01 0h4.46v9.72h-4.46z"/></g></svg>