<svg xmlns="http://www.w3.org/2000/svg" viewBox="0 0 150 142"><title>Filling Machine（灌装机）</title><defs><linearGradient id="a" x1="0%" x2="100%" y1="50.005%" y2="50.005%"><stop offset="0%" stop-color="#e2e2e2"/><stop offset="3%" stop-color="#d0d0d0"/><stop offset="6%" stop-color="#bcbcbc"/><stop offset="9%" stop-color="#b5b5b5"/><stop offset="49%" stop-color="#f6f6f6"/><stop offset="63%" stop-color="#f3f3f3"/><stop offset="73%" stop-color="#eaeaea"/><stop offset="82%" stop-color="#dbdbdb"/><stop offset="90%" stop-color="#c6c6c6"/><stop offset="97%" stop-color="#aaa"/><stop offset="100%" stop-color="#9b9b9b"/></linearGradient><linearGradient id="b" x1="0%" x2="100%" y1="50.005%" y2="50.005%"><stop offset="0%" stop-color="#6b6b6b"/><stop offset="1%" stop-color="#767676"/><stop offset="3%" stop-color="#959595"/><stop offset="4%" stop-color="#aaa"/><stop offset="13%" stop-color="#b1b1b1"/><stop offset="63%" stop-color="#cfcfcf"/><stop offset="90%" stop-color="#dbdbdb"/><stop offset="96%" stop-color="#888"/><stop offset="99%" stop-color="#666"/></linearGradient><linearGradient id="c" x1="0%" x2="100%" y1="50%" y2="50%"><stop offset="0%" stop-color="#e2e2e2"/><stop offset="3%" stop-color="#d0d0d0"/><stop offset="6%" stop-color="#bcbcbc"/><stop offset="9%" stop-color="#b5b5b5"/><stop offset="49%" stop-color="#f6f6f6"/><stop offset="63%" stop-color="#f3f3f3"/><stop offset="73%" stop-color="#eaeaea"/><stop offset="82%" stop-color="#dbdbdb"/><stop offset="90%" stop-color="#c6c6c6"/><stop offset="97%" stop-color="#aaa"/><stop offset="100%" stop-color="#9b9b9b"/></linearGradient><linearGradient id="d" x1="0%" x2="100%" y1="50%" y2="50%"><stop offset="0%" stop-color="#e2e2e2"/><stop offset="3%" stop-color="#d0d0d0"/><stop offset="6%" stop-color="#bcbcbc"/><stop offset="9%" stop-color="#b5b5b5"/><stop offset="49%" stop-color="#f6f6f6"/><stop offset="63%" stop-color="#f3f3f3"/><stop offset="73%" stop-color="#eaeaea"/><stop offset="82%" stop-color="#dbdbdb"/><stop offset="90%" stop-color="#c6c6c6"/><stop offset="97%" stop-color="#aaa"/><stop offset="100%" stop-color="#9b9b9b"/></linearGradient><linearGradient id="e" x1="0%" x2="100.265%" y1="50%" y2="50%"><stop offset="0%" stop-color="#e2e2e2"/><stop offset="3%" stop-color="#d0d0d0"/><stop offset="6%" stop-color="#bcbcbc"/><stop offset="9%" stop-color="#b5b5b5"/><stop offset="49%" stop-color="#f6f6f6"/><stop offset="63%" stop-color="#f3f3f3"/><stop offset="73%" stop-color="#eaeaea"/><stop offset="82%" stop-color="#dbdbdb"/><stop offset="90%" stop-color="#c6c6c6"/><stop offset="97%" stop-color="#aaa"/><stop offset="100%" stop-color="#9b9b9b"/></linearGradient><linearGradient id="f" x1="0%" x2="100%" y1="50%" y2="50%"><stop offset="0%" stop-color="#6b6b6b"/><stop offset="11%" stop-color="#767676"/><stop offset="30%" stop-color="#959595"/><stop offset="41%" stop-color="#aaa"/><stop offset="56%" stop-color="#ccc"/><stop offset="71%" stop-color="#eaeaea"/><stop offset="80%" stop-color="#f6f6f6"/><stop offset="83%" stop-color="#ededed"/><stop offset="87%" stop-color="#d4d4d4"/><stop offset="92%" stop-color="#ababab"/><stop offset="98%" stop-color="#737373"/><stop offset="99%" stop-color="#666"/></linearGradient><linearGradient id="g" x1="0%" x2="100%" y1="50%" y2="50%"><stop offset="0%" stop-color="#e2e2e2"/><stop offset="3%" stop-color="#d0d0d0"/><stop offset="6%" stop-color="#bcbcbc"/><stop offset="9%" stop-color="#b5b5b5"/><stop offset="49%" stop-color="#f6f6f6"/><stop offset="63%" stop-color="#f3f3f3"/><stop offset="73%" stop-color="#eaeaea"/><stop offset="82%" stop-color="#dbdbdb"/><stop offset="90%" stop-color="#c6c6c6"/><stop offset="97%" stop-color="#aaa"/><stop offset="100%" stop-color="#9b9b9b"/></linearGradient><linearGradient id="h" x1="0%" x2="100%" y1="50%" y2="50%"><stop offset="0%" stop-color="#e2e2e2"/><stop offset="3%" stop-color="#d0d0d0"/><stop offset="6%" stop-color="#bcbcbc"/><stop offset="9%" stop-color="#b5b5b5"/><stop offset="49%" stop-color="#f6f6f6"/><stop offset="63%" stop-color="#f3f3f3"/><stop offset="73%" stop-color="#eaeaea"/><stop offset="82%" stop-color="#dbdbdb"/><stop offset="90%" stop-color="#c6c6c6"/><stop offset="97%" stop-color="#aaa"/><stop offset="100%" stop-color="#9b9b9b"/></linearGradient><linearGradient id="i" x1="0%" x2="100.265%" y1="50%" y2="50%"><stop offset="0%" stop-color="#6b6b6b"/><stop offset="11%" stop-color="#767676"/><stop offset="30%" stop-color="#959595"/><stop offset="41%" stop-color="#aaa"/><stop offset="56%" stop-color="#ccc"/><stop offset="71%" stop-color="#eaeaea"/><stop offset="80%" stop-color="#f6f6f6"/><stop offset="83%" stop-color="#ededed"/><stop offset="87%" stop-color="#d4d4d4"/><stop offset="92%" stop-color="#ababab"/><stop offset="98%" stop-color="#737373"/><stop offset="99%" stop-color="#666"/></linearGradient></defs><g fill="none" fill-rule="nonzero" transform="translate(.1 .8)"><path fill="#cdd3d4" d="M70.63 8.4h8.58v4.48h-8.58z"/><path fill="url(#a)" d="M0 19.86h149.42v108.35H0z"/><path fill="url(#b)" d="M.07 23.03h149.35v96.07H.07z"/><path fill="url(#c)" d="M60.82 15.54h28.56v4.32H60.82z"/><path fill="url(#d)" d="M73.58 18.45h2.96v7.5h-2.96z"/><path fill="#dfdfdf" d="M.07 65.26h149.35v2.97H.07z"/><path fill="#9fa0a0" d="M16.2 65.26h6.18v2.97H16.2z"/><path fill="#cdd3d4" d="M11.81 31.59h16.25v16.25H11.81z"/><path fill="#9fa0a0" d="M38.67 65.26h6.18v2.97h-6.18zm22.18 0h6.18v2.97h-6.18zm22.19 0h6.18v2.97h-6.18zm22.18 0h6.18v2.97h-6.18zm22.19 0h6.18v2.97h-6.18z"/><path fill="#e85464" stroke="#000" stroke-width=".1" d="M13.16 32.88h13.27v4.86H13.16z"/><path fill="#e9e9e9" d="M13.05 39.65h2.47v6.15h-2.47zm3.4 0h2.47v6.15h-2.47zm4.26 0h2.47v6.15h-2.47zm3.4 0h2.47v6.15h-2.47z"/><path fill="#cdd3d4" d="M35.52 31.59h16.25V44.3H35.52z"/><path fill="#e85464" stroke="#000" stroke-width=".1" d="M36.87 32.88h13.27v4.86H36.87z"/><path fill="#e9e9e9" d="M36.76 39.65h2.47v3.84h-2.47zm3.4 0h2.47v3.84h-2.47zm4.26 0h2.47v3.84h-2.47zm3.4 0h2.47v3.84h-2.47z"/><path fill="url(#e)" d="M73.17 15.54h3.77v7.5h-3.77z"/><path fill="url(#f)" d="M73.58 0h3.11v8.4h-3.11z"/><path fill="#676666" d="M11.16 141.13H3.02v-12.92h17.75zm127.4 0h8.14v-12.92h-17.75z"/><path fill="#a4a4a4" d="M70.63 9.11h8.58v2.99h-8.58z"/><circle cx="87.26" cy="36.35" r="5.23" fill="#e3e3e4"/><circle cx="87.26" cy="36.35" r="4.68" fill="url(#g)"/><circle cx="109.91" cy="36.35" r="5.23" fill="#e3e3e4"/><circle cx="109.91" cy="36.35" r="4.68" fill="#1fc666"/><path fill="url(#h)" d="M86.21 31.91h2.1v8.88h-2.1z"/><path fill="#e3e3e4" d="M127.96 30.96h7.56v9.49h-7.56z"/><path fill="#c16264" d="M129.09 31.83h5.49v2.84h-5.49z"/><path fill="#b60717" d="M129.09 34.68h5.49v4.94h-5.49z"/><path fill="url(#i)" d="M73.17 9.36h3.77v7.5h-3.77z"/></g></svg>