<svg xmlns="http://www.w3.org/2000/svg" viewBox="0 0 101 151"><title>Filter（过滤器） (4)</title><defs><linearGradient id="a" x1="0%" x2="100%" y1="50.097%" y2="50.097%"><stop offset="0%" stop-color="#6b6b6b"/><stop offset="11%" stop-color="#767676"/><stop offset="30%" stop-color="#959595"/><stop offset="41%" stop-color="#aaa"/><stop offset="56%" stop-color="#ccc"/><stop offset="71%" stop-color="#eaeaea"/><stop offset="80%" stop-color="#f6f6f6"/><stop offset="83%" stop-color="#ededed"/><stop offset="87%" stop-color="#d4d4d4"/><stop offset="92%" stop-color="#ababab"/><stop offset="98%" stop-color="#737373"/><stop offset="99%" stop-color="#666"/></linearGradient><linearGradient id="b" x1="0%" x2="100%" y1="50.004%" y2="50.004%"><stop offset="0%" stop-color="#6b6b6b"/><stop offset="11%" stop-color="#767676"/><stop offset="30%" stop-color="#959595"/><stop offset="41%" stop-color="#aaa"/><stop offset="56%" stop-color="#ccc"/><stop offset="71%" stop-color="#eaeaea"/><stop offset="80%" stop-color="#f6f6f6"/><stop offset="83%" stop-color="#ededed"/><stop offset="87%" stop-color="#d4d4d4"/><stop offset="92%" stop-color="#ababab"/><stop offset="98%" stop-color="#737373"/><stop offset="99%" stop-color="#666"/></linearGradient><linearGradient id="c" x1="0%" x2="100%" y1="50.299%" y2="50.299%"><stop offset="0%" stop-color="#e2e2e2"/><stop offset="3%" stop-color="#d0d0d0"/><stop offset="6%" stop-color="#bcbcbc"/><stop offset="9%" stop-color="#b5b5b5"/><stop offset="49%" stop-color="#f6f6f6"/><stop offset="63%" stop-color="#f3f3f3"/><stop offset="73%" stop-color="#eaeaea"/><stop offset="82%" stop-color="#dbdbdb"/><stop offset="90%" stop-color="#c6c6c6"/><stop offset="97%" stop-color="#aaa"/><stop offset="100%" stop-color="#9b9b9b"/></linearGradient><linearGradient id="d" x1="0%" x2="100%" y1="49.701%" y2="49.701%"><stop offset="0%" stop-color="#e2e2e2"/><stop offset="3%" stop-color="#d0d0d0"/><stop offset="6%" stop-color="#bcbcbc"/><stop offset="9%" stop-color="#b5b5b5"/><stop offset="49%" stop-color="#f6f6f6"/><stop offset="63%" stop-color="#f3f3f3"/><stop offset="73%" stop-color="#eaeaea"/><stop offset="82%" stop-color="#dbdbdb"/><stop offset="90%" stop-color="#c6c6c6"/><stop offset="97%" stop-color="#aaa"/><stop offset="100%" stop-color="#9b9b9b"/></linearGradient><linearGradient id="e" x1="0%" x2="100%" y1="50.043%" y2="50.043%"><stop offset="0%" stop-color="#6b6b6b"/><stop offset="11%" stop-color="#767676"/><stop offset="30%" stop-color="#959595"/><stop offset="41%" stop-color="#aaa"/><stop offset="56%" stop-color="#ccc"/><stop offset="71%" stop-color="#eaeaea"/><stop offset="80%" stop-color="#f6f6f6"/><stop offset="83%" stop-color="#ededed"/><stop offset="87%" stop-color="#d4d4d4"/><stop offset="92%" stop-color="#ababab"/><stop offset="98%" stop-color="#737373"/><stop offset="99%" stop-color="#666"/></linearGradient><linearGradient id="f" x1="0%" x2="99.99%" y1="50%" y2="50%"><stop offset="0%" stop-color="#6b6b6b"/><stop offset="11%" stop-color="#767676"/><stop offset="30%" stop-color="#959595"/><stop offset="41%" stop-color="#aaa"/><stop offset="56%" stop-color="#ccc"/><stop offset="71%" stop-color="#eaeaea"/><stop offset="80%" stop-color="#f6f6f6"/><stop offset="83%" stop-color="#ededed"/><stop offset="87%" stop-color="#d4d4d4"/><stop offset="92%" stop-color="#ababab"/><stop offset="98%" stop-color="#737373"/><stop offset="99%" stop-color="#666"/></linearGradient><linearGradient id="g" x1="0%" x2="100%" y1="50%" y2="50%"><stop offset="0%" stop-color="#6b6b6b"/><stop offset="11%" stop-color="#767676"/><stop offset="30%" stop-color="#959595"/><stop offset="41%" stop-color="#aaa"/><stop offset="56%" stop-color="#ccc"/><stop offset="71%" stop-color="#eaeaea"/><stop offset="80%" stop-color="#f6f6f6"/><stop offset="83%" stop-color="#ededed"/><stop offset="87%" stop-color="#d4d4d4"/><stop offset="92%" stop-color="#ababab"/><stop offset="98%" stop-color="#737373"/><stop offset="99%" stop-color="#666"/></linearGradient></defs><g fill="none" fill-rule="nonzero"><path fill="url(#a)" d="M2.17 0h96.25v5.17H2.17z" transform="translate(.1 .8)"/><path fill="url(#b)" d="M.58 16.7h99.14v116.53H.58z" transform="translate(.1 .8)"/><path fill="url(#c)" d="M.58 21h99.14v1.67H.58z" transform="translate(.1 .8)"/><path fill="url(#d)" d="M.58 26.91h99.14v1.67H.58z" transform="translate(.1 .8)"/><path fill="url(#d)" d="M.58 32.82h99.14v1.67H.58z" transform="translate(.1 .8)"/><path fill="url(#d)" d="M.58 38.73h99.14v1.67H.58z" transform="translate(.1 .8)"/><path fill="url(#d)" d="M.58 44.64h99.14v1.67H.58z" transform="translate(.1 .8)"/><path fill="url(#d)" d="M.58 50.55h99.14v1.67H.58z" transform="translate(.1 .8)"/><path fill="url(#d)" d="M.58 56.46h99.14v1.67H.58z" transform="translate(.1 .8)"/><path fill="url(#d)" d="M.58 62.37h99.14v1.67H.58z" transform="translate(.1 .8)"/><path fill="url(#d)" d="M.58 68.28h99.14v1.67H.58z" transform="translate(.1 .8)"/><path fill="url(#d)" d="M.58 74.19h99.14v1.67H.58z" transform="translate(.1 .8)"/><path fill="url(#d)" d="M.58 80.1h99.14v1.67H.58z" transform="translate(.1 .8)"/><path fill="url(#d)" d="M.58 86.01h99.14v1.67H.58z" transform="translate(.1 .8)"/><path fill="url(#d)" d="M.58 91.92h99.14v1.67H.58z" transform="translate(.1 .8)"/><path fill="url(#d)" d="M.58 97.83h99.14v1.67H.58z" transform="translate(.1 .8)"/><path fill="url(#d)" d="M.58 103.74h99.14v1.67H.58z" transform="translate(.1 .8)"/><path fill="url(#d)" d="M.58 109.65h99.14v1.67H.58z" transform="translate(.1 .8)"/><path fill="url(#d)" d="M.58 115.56h99.14v1.67H.58z" transform="translate(.1 .8)"/><path fill="url(#d)" d="M.58 121.47h99.14v1.67H.58z" transform="translate(.1 .8)"/><path fill="url(#d)" d="M.58 127.38h99.14v1.67H.58z" transform="translate(.1 .8)"/><path fill="url(#e)" d="M.16 5.17h100.7V16.7H.16z" transform="translate(.1 .8)"/><path fill="url(#f)" d="M2.02 144.81h96.25v5.06H2.02z" transform="translate(.1 .8)"/><path fill="url(#g)" d="M0 133.53h100.7v11.28H0z" transform="translate(.1 .8)"/><path fill="#e8e8e8" d="M.68 17.5h1.88v116.53H.68zm5.72 0h1.88v116.53H6.4zm5.73 0h1.88v116.53h-1.88zm5.72 0h1.88v116.53h-1.88zm5.72 0h1.88v116.53h-1.88zm5.72 0h1.88v116.53h-1.88zm5.72 0h1.88v116.53h-1.88zm5.72 0h1.88v116.53h-1.88zm5.72 0h1.88v116.53h-1.88zm5.72 0h1.88v116.53h-1.88zm5.72 0h1.88v116.53h-1.88zm5.72 0h1.88v116.53h-1.88zm5.73 0h1.88v116.53h-1.88zm5.72 0h1.88v116.53h-1.88zm5.72 0h1.88v116.53h-1.88zm5.72 0h1.88v116.53H86.5zm5.72 0h1.88v116.53h-1.88zm5.72 0h1.88v116.53h-1.88z"/></g></svg>