<svg xmlns="http://www.w3.org/2000/svg" viewBox="0 0 150 102"><title>Flume（水槽）</title><g fill="none" fill-rule="nonzero" transform="translate(.1 .8)"><path fill="#dbdbdb" d="M0 0h149.22v100.39H0z"/><path fill="#f6f6f6" d="M6.45 6.84h136.31v87.42H6.45z"/><rect width="6.58" height="37.16" x="13.36" y="10.3" fill="#595757" rx=".27"/><rect width="6.58" height="37.16" x="27.93" y="10.3" fill="#595757" rx=".27"/><rect width="6.58" height="37.16" x="42.5" y="10.3" fill="#595757" rx=".27"/><rect width="6.58" height="37.16" x="57.07" y="10.3" fill="#595757" rx=".27"/><rect width="6.58" height="37.16" x="71.64" y="10.3" fill="#595757" rx=".27"/><rect width="6.58" height="37.16" x="86.21" y="10.3" fill="#595757" rx=".27"/><rect width="6.58" height="37.16" x="100.78" y="10.3" fill="#595757" rx=".27"/><rect width="6.58" height="37.16" x="115.35" y="10.3" fill="#595757" rx=".27"/><rect width="6.58" height="37.16" x="129.92" y="10.3" fill="#595757" rx=".27"/><rect width="6.58" height="37.16" x="13.36" y="54.89" fill="#595757" rx=".27"/><rect width="6.58" height="37.16" x="27.93" y="54.89" fill="#595757" rx=".27"/><rect width="6.58" height="37.16" x="42.5" y="54.89" fill="#595757" rx=".27"/><rect width="6.58" height="37.16" x="57.07" y="54.89" fill="#595757" rx=".27"/><rect width="6.58" height="37.16" x="71.64" y="54.89" fill="#595757" rx=".27"/><rect width="6.58" height="37.16" x="86.21" y="54.89" fill="#595757" rx=".27"/><rect width="6.58" height="37.16" x="100.78" y="54.89" fill="#595757" rx=".27"/><rect width="6.58" height="37.16" x="115.35" y="54.89" fill="#595757" rx=".27"/><rect width="6.58" height="37.16" x="129.92" y="54.89" fill="#595757" rx=".27"/></g></svg>