<svg xmlns="http://www.w3.org/2000/svg" viewBox="0 0 151 41"><title>Grit chamber（沉沙池）</title><defs><linearGradient id="a" x1="0%" x2="100%" y1="50%" y2="50%"><stop offset="0%" stop-color="#6b6b6b"/><stop offset="11%" stop-color="#767676"/><stop offset="30%" stop-color="#959595"/><stop offset="41%" stop-color="#aaa"/><stop offset="56%" stop-color="#ccc"/><stop offset="71%" stop-color="#eaeaea"/><stop offset="80%" stop-color="#f6f6f6"/><stop offset="83%" stop-color="#ededed"/><stop offset="87%" stop-color="#d4d4d4"/><stop offset="92%" stop-color="#ababab"/><stop offset="98%" stop-color="#737373"/><stop offset="99%" stop-color="#666"/></linearGradient><linearGradient id="b" x1="0%" x2="100%" y1="50%" y2="50%"><stop offset="0%" stop-color="#e2e2e2"/><stop offset="3%" stop-color="#d0d0d0"/><stop offset="6%" stop-color="#bcbcbc"/><stop offset="9%" stop-color="#b5b5b5"/><stop offset="49%" stop-color="#f6f6f6"/><stop offset="63%" stop-color="#f3f3f3"/><stop offset="73%" stop-color="#eaeaea"/><stop offset="82%" stop-color="#dbdbdb"/><stop offset="90%" stop-color="#c6c6c6"/><stop offset="97%" stop-color="#aaa"/><stop offset="100%" stop-color="#9b9b9b"/></linearGradient></defs><g fill="none" fill-rule="nonzero" transform="translate(.1 .8)"><path fill="#c4c4c4" d="M36.59 39.46 10.1 30.54V8.77L36.59 0zm76.1 0 26.5-8.93V8.77L112.69 0zM0 8.77h10.1v21.77H0z"/><path fill="#a3a4a4" d="M1.55 10.78h7.83v17.76H1.55z"/><path fill="#c4c4c4" d="M36.6 0h76.09v39.46H36.6z"/><path fill="#a3a4a4" d="M37.01 2.01h75.68v35.41H37.01zM37.01 37.42 9.38 28.54V10.79l27.63-8.78z"/><path fill="#c4c4c4" d="M150 30.53h-10.81V8.87H150z"/><path fill="#a3a4a4" d="M148.34 28.74H140V10.53h8.34z"/><path fill="#a3a4a4" d="m112.69 37.42 28.04-8.88V10.79l-28.04-8.78z"/><path fill="#dbdbdb" d="M2.42 10.95h7.68v17.43H2.42zm34.59-8.61h75.68v34.75H37.01z"/><path fill="#dbdbdb" d="M37.01 37.09 10.1 28.38V10.95l26.91-8.61zm75.68 0L140 28.38V10.95l-27.31-8.61z"/><path fill="#c4c4c4" d="M9.22 9.9h1.75v19.64H9.22zm129.9.63h1.75v19.64h-1.75zM36.6.36h1.75v37.56H36.6zm18.8.5h1.75v37.56H55.4z"/><path fill="#c4c4c4" d="M113.56 18.84v1.75H37v-1.75z"/><path fill="#c4c4c4" d="M93.01.36h1.75v37.56h-1.75zM74.2.86h1.75v37.56H74.2zm37.61 0h1.75v37.56h-1.75z"/><circle cx="84.11" cy="28.9" r="6.14" fill="url(#a)"/><circle cx="84.11" cy="28.9" r="5.32" fill="url(#b)"/><circle cx="65.34" cy="28.9" r="6.14" fill="url(#a)"/><circle cx="65.34" cy="28.9" r="5.32" fill="url(#b)"/><circle cx="65.34" cy="28.9" r="4.32" fill="#717070"/><circle cx="84.11" cy="28.9" r="4.32" fill="#717070"/></g></svg>