<svg xmlns="http://www.w3.org/2000/svg" viewBox="0 0 151 88"><title>Land（土地）</title><g fill="none" fill-rule="nonzero"><path fill="#daa94d" d="M150.1 5.78 26.97 18.8.16 11.85 111.04.8z"/><path fill="#c89a46" d="M26.97 23.47.16 14.87v-3.02l26.81 6.95z"/><path fill="#665240" d="M26.97 31.75.16 22.66v-7.97l26.81 8.78z"/><path fill="#4b311e" d="M26.97 41.44.16 30.63v-7.97l26.81 8.77z"/><path fill="#665240" d="M26.97 53.31.16 43.77V30.62l26.81 10.82z"/><path fill="#665240" d="M26.92 63.97.12 54.44V41.28l26.8 10.82z"/><path fill="#494236" d="M26.95 87.36.1 71.64V58.48L26.9 69.3z"/><path fill="#494236" d="M26.92 87.36 150.1 63.17v-13.8L26.97 69.3z"/><path fill="#438c91" d="M26.97 77.58.12 63.52V50.36l26.8 10.82z"/><path fill="#438c91" d="m26.93 77.58 7.67-3.12a31.8 31.8 0 0 1 21.1-1l5.09 1.53a10.27 10.27 0 0 0 9.31-1.74l6.93-5.4a14.44 14.44 0 0 1 16.37-1 18.47 18.47 0 0 0 19 .09l7.26-4.33a13.13 13.13 0 0 1 9.13-1.62l1.85.35a18.45 18.45 0 0 0 16.4-5l3.06-3.03V39.38L26.97 61.18z"/><path fill="#4b311e" d="M26.97 67.21.16 54.44V41.28L26.97 52.1z"/><path fill="#4b311e" d="M36.41 63.97c-1.46 1-3.13 1.33-6 2.12l-3.47 1.12V49.37L150.1 31.8v12.62l-.1.07a25 25 0 0 1-18.73 4.31l-3.71-.63a30.54 30.54 0 0 0-15.62 1.43L94.1 56.13a25.47 25.47 0 0 1-19.36-.74 11.82 11.82 0 0 0-11.85 1.17l-3.57 2.58c-4.63 4.08-14 2.91-14 2.91s-4.06-.85-5.22-.65c-1 .18-2.91 2.05-3.69 2.57"/><path fill="#665240" d="m121.73 42.44-6.26-1A35 35 0 0 0 96.1 43.7l-4.82 2a18.77 18.77 0 0 1-9.42 1.37l-9.37-1.06a18.8 18.8 0 0 0-11.1 2.16l-2.63 1.43a17.4 17.4 0 0 1-14 1.17l-3.62-1.25c-4.3-1.17-9.53-2.16-14 2.32l-.22.22V36.23L150.1 6.43v28.13l-5.46.11a18.9 18.9 0 0 0-11.54 4.24l-1 .77a13 13 0 0 1-10.37 2.76"/><path fill="#4b311e" d="m26.97 41.44 4.39-3.73c9.59-5.91 20.74-6.25 34.59-3.55l4.42 1.76c7.91 4.19 16.35 3.28 21.62.16 0 0 14.15-8.19 30.06-4.54l2.17.77a3.5 3.5 0 0 0 4.72-1.23c3.92-5 11-5.94 18.28-4.66l2.88.82V6.43L26.97 28.08z"/><path fill="#665240" d="m26.97 31.43 23.76-6.63a26.35 26.35 0 0 1 21.37 3l2.91 1.82a12.52 12.52 0 0 0 12.67.36l13.75-7.54a15 15 0 0 1 13.42-.5l2.92 1.33a7.91 7.91 0 0 0 6.82-.13l5-2.52a44.5 44.5 0 0 1 20.12-4.82h.39v-8l-123.13 14z"/><path fill="#c29647" d="m26.97 23.47 9.13-1.53a20 20 0 0 1 2.86-.28l7.36-.19a25.4 25.4 0 0 1 6.84.75l3.32.84a18 18 0 0 0 14.14-2.26 8.7 8.7 0 0 1 6.63-1.13l6.78 1.57a19.55 19.55 0 0 0 12.19-1.09l4.28-1.84a13 13 0 0 1 6.21-1l7 .56a33.8 33.8 0 0 0 14-1.84l6.76-2.41a28 28 0 0 1 6.57-1.48l9.07-.9V5.8l-123.14 13z"/></g></svg>