<svg xmlns="http://www.w3.org/2000/svg" viewBox="0 0 151 118"><title>Main Engine of Reverse Osmosis（反渗透主机）</title><defs><linearGradient id="a" x1="49.991%" x2="49.991%" y1="0%" y2="100%"><stop offset="0%" stop-color="#e2e2e2"/><stop offset="3%" stop-color="#d0d0d0"/><stop offset="6%" stop-color="#bcbcbc"/><stop offset="9%" stop-color="#b5b5b5"/><stop offset="49%" stop-color="#f6f6f6"/><stop offset="63%" stop-color="#f3f3f3"/><stop offset="73%" stop-color="#eaeaea"/><stop offset="82%" stop-color="#dbdbdb"/><stop offset="90%" stop-color="#c6c6c6"/><stop offset="97%" stop-color="#aaa"/><stop offset="100%" stop-color="#9b9b9b"/></linearGradient><linearGradient id="b" x1="-206.611%" x2="-193.577%" y1="-931.119%" y2="-931.119%"><stop offset="0%" stop-color="#e2e2e2"/><stop offset="3%" stop-color="#d0d0d0"/><stop offset="6%" stop-color="#bcbcbc"/><stop offset="9%" stop-color="#b5b5b5"/><stop offset="49%" stop-color="#f6f6f6"/><stop offset="63%" stop-color="#f3f3f3"/><stop offset="73%" stop-color="#eaeaea"/><stop offset="82%" stop-color="#dbdbdb"/><stop offset="90%" stop-color="#c6c6c6"/><stop offset="97%" stop-color="#aaa"/><stop offset="100%" stop-color="#9b9b9b"/></linearGradient><linearGradient id="c" x1="-239.472%" x2="-226.445%" y1="-678.947%" y2="-678.947%"><stop offset="0%" stop-color="#e2e2e2"/><stop offset="3%" stop-color="#d0d0d0"/><stop offset="6%" stop-color="#bcbcbc"/><stop offset="9%" stop-color="#b5b5b5"/><stop offset="49%" stop-color="#f6f6f6"/><stop offset="63%" stop-color="#f3f3f3"/><stop offset="73%" stop-color="#eaeaea"/><stop offset="82%" stop-color="#dbdbdb"/><stop offset="90%" stop-color="#c6c6c6"/><stop offset="97%" stop-color="#aaa"/><stop offset="100%" stop-color="#9b9b9b"/></linearGradient><linearGradient id="d" x1="-255.909%" x2="-242.875%" y1="-552.887%" y2="-552.887%"><stop offset="0%" stop-color="#e2e2e2"/><stop offset="3%" stop-color="#d0d0d0"/><stop offset="6%" stop-color="#bcbcbc"/><stop offset="9%" stop-color="#b5b5b5"/><stop offset="49%" stop-color="#f6f6f6"/><stop offset="63%" stop-color="#f3f3f3"/><stop offset="73%" stop-color="#eaeaea"/><stop offset="82%" stop-color="#dbdbdb"/><stop offset="90%" stop-color="#c6c6c6"/><stop offset="97%" stop-color="#aaa"/><stop offset="100%" stop-color="#9b9b9b"/></linearGradient><linearGradient id="e" x1="50%" x2="50%" y1="100.261%" y2="0%"><stop offset="0%" stop-color="#6b6b6b"/><stop offset="11%" stop-color="#767676"/><stop offset="30%" stop-color="#959595"/><stop offset="41%" stop-color="#aaa"/><stop offset="56%" stop-color="#ccc"/><stop offset="71%" stop-color="#eaeaea"/><stop offset="80%" stop-color="#f6f6f6"/><stop offset="83%" stop-color="#ededed"/><stop offset="87%" stop-color="#d4d4d4"/><stop offset="92%" stop-color="#ababab"/><stop offset="98%" stop-color="#737373"/><stop offset="99%" stop-color="#666"/></linearGradient><linearGradient id="f" x1="50%" x2="50%" y1="100%" y2="0%"><stop offset="0%" stop-color="#6b6b6b"/><stop offset="11%" stop-color="#767676"/><stop offset="30%" stop-color="#959595"/><stop offset="41%" stop-color="#aaa"/><stop offset="56%" stop-color="#ccc"/><stop offset="71%" stop-color="#eaeaea"/><stop offset="80%" stop-color="#f6f6f6"/><stop offset="83%" stop-color="#ededed"/><stop offset="87%" stop-color="#d4d4d4"/><stop offset="92%" stop-color="#ababab"/><stop offset="98%" stop-color="#737373"/><stop offset="99%" stop-color="#666"/></linearGradient><linearGradient id="g" x1="0%" x2="100%" y1="49.965%" y2="49.965%"><stop offset="0%" stop-color="#6b6b6b"/><stop offset="11%" stop-color="#767676"/><stop offset="30%" stop-color="#959595"/><stop offset="41%" stop-color="#aaa"/><stop offset="56%" stop-color="#ccc"/><stop offset="71%" stop-color="#eaeaea"/><stop offset="80%" stop-color="#f6f6f6"/><stop offset="83%" stop-color="#ededed"/><stop offset="87%" stop-color="#d4d4d4"/><stop offset="92%" stop-color="#ababab"/><stop offset="98%" stop-color="#737373"/><stop offset="99%" stop-color="#666"/></linearGradient><linearGradient id="h" x1="0%" x2="100.074%" y1="50.388%" y2="50.388%"><stop offset="0%" stop-color="#6b6b6b"/><stop offset="11%" stop-color="#767676"/><stop offset="30%" stop-color="#959595"/><stop offset="41%" stop-color="#aaa"/><stop offset="56%" stop-color="#ccc"/><stop offset="71%" stop-color="#eaeaea"/><stop offset="80%" stop-color="#f6f6f6"/><stop offset="83%" stop-color="#ededed"/><stop offset="87%" stop-color="#d4d4d4"/><stop offset="92%" stop-color="#ababab"/><stop offset="98%" stop-color="#737373"/><stop offset="99%" stop-color="#666"/></linearGradient><linearGradient id="i" x1="0%" x2="100%" y1="49.984%" y2="49.984%"><stop offset="0%" stop-color="#e2e2e2"/><stop offset="3%" stop-color="#d0d0d0"/><stop offset="6%" stop-color="#bcbcbc"/><stop offset="9%" stop-color="#b5b5b5"/><stop offset="49%" stop-color="#f6f6f6"/><stop offset="63%" stop-color="#f3f3f3"/><stop offset="73%" stop-color="#eaeaea"/><stop offset="82%" stop-color="#dbdbdb"/><stop offset="90%" stop-color="#c6c6c6"/><stop offset="97%" stop-color="#aaa"/><stop offset="100%" stop-color="#9b9b9b"/></linearGradient><linearGradient id="j" x1="0%" x2="100%" y1="50%" y2="50%"><stop offset="0%" stop-color="#6b6b6b"/><stop offset="11%" stop-color="#767676"/><stop offset="30%" stop-color="#959595"/><stop offset="41%" stop-color="#aaa"/><stop offset="56%" stop-color="#ccc"/><stop offset="71%" stop-color="#eaeaea"/><stop offset="80%" stop-color="#f6f6f6"/><stop offset="83%" stop-color="#ededed"/><stop offset="87%" stop-color="#d4d4d4"/><stop offset="92%" stop-color="#ababab"/><stop offset="98%" stop-color="#737373"/><stop offset="99%" stop-color="#666"/></linearGradient><linearGradient id="k" x1="0%" x2="100%" y1="50.388%" y2="50.388%"><stop offset="0%" stop-color="#6b6b6b"/><stop offset="11%" stop-color="#767676"/><stop offset="30%" stop-color="#959595"/><stop offset="41%" stop-color="#aaa"/><stop offset="56%" stop-color="#ccc"/><stop offset="71%" stop-color="#eaeaea"/><stop offset="80%" stop-color="#f6f6f6"/><stop offset="83%" stop-color="#ededed"/><stop offset="87%" stop-color="#d4d4d4"/><stop offset="92%" stop-color="#ababab"/><stop offset="98%" stop-color="#737373"/><stop offset="99%" stop-color="#666"/></linearGradient><linearGradient id="l" x1="0%" x2="100.066%" y1="49.984%" y2="49.984%"><stop offset="0%" stop-color="#e2e2e2"/><stop offset="3%" stop-color="#d0d0d0"/><stop offset="6%" stop-color="#bcbcbc"/><stop offset="9%" stop-color="#b5b5b5"/><stop offset="49%" stop-color="#f6f6f6"/><stop offset="63%" stop-color="#f3f3f3"/><stop offset="73%" stop-color="#eaeaea"/><stop offset="82%" stop-color="#dbdbdb"/><stop offset="90%" stop-color="#c6c6c6"/><stop offset="97%" stop-color="#aaa"/><stop offset="100%" stop-color="#9b9b9b"/></linearGradient><linearGradient id="m" x1="0%" x2="100%" y1="50%" y2="50%"><stop offset="0%" stop-color="#6b6b6b"/><stop offset="11%" stop-color="#767676"/><stop offset="30%" stop-color="#959595"/><stop offset="41%" stop-color="#aaa"/><stop offset="56%" stop-color="#ccc"/><stop offset="71%" stop-color="#eaeaea"/><stop offset="80%" stop-color="#f6f6f6"/><stop offset="83%" stop-color="#ededed"/><stop offset="87%" stop-color="#d4d4d4"/><stop offset="92%" stop-color="#ababab"/><stop offset="98%" stop-color="#737373"/><stop offset="99%" stop-color="#666"/></linearGradient><linearGradient id="n" x1="1.12%" x2="98.599%" y1="50%" y2="50%"><stop offset="0%" stop-color="#6b6b6b"/><stop offset="11%" stop-color="#767676"/><stop offset="30%" stop-color="#959595"/><stop offset="41%" stop-color="#aaa"/><stop offset="56%" stop-color="#ccc"/><stop offset="71%" stop-color="#eaeaea"/><stop offset="80%" stop-color="#f6f6f6"/><stop offset="83%" stop-color="#ededed"/><stop offset="87%" stop-color="#d4d4d4"/><stop offset="92%" stop-color="#ababab"/><stop offset="98%" stop-color="#737373"/><stop offset="99%" stop-color="#666"/></linearGradient><linearGradient id="o" x1="0%" x2="100%" y1="50.298%" y2="50.298%"><stop offset="0%" stop-color="#6b6b6b"/><stop offset="11%" stop-color="#767676"/><stop offset="30%" stop-color="#959595"/><stop offset="41%" stop-color="#aaa"/><stop offset="56%" stop-color="#ccc"/><stop offset="71%" stop-color="#eaeaea"/><stop offset="80%" stop-color="#f6f6f6"/><stop offset="83%" stop-color="#ededed"/><stop offset="87%" stop-color="#d4d4d4"/><stop offset="92%" stop-color="#ababab"/><stop offset="98%" stop-color="#737373"/><stop offset="99%" stop-color="#666"/></linearGradient><linearGradient id="p" x1="0%" x2="100%" y1="50%" y2="50%"><stop offset="0%" stop-color="#6b6b6b"/><stop offset="11%" stop-color="#767676"/><stop offset="30%" stop-color="#959595"/><stop offset="41%" stop-color="#aaa"/><stop offset="56%" stop-color="#ccc"/><stop offset="71%" stop-color="#eaeaea"/><stop offset="80%" stop-color="#f6f6f6"/><stop offset="83%" stop-color="#ededed"/><stop offset="87%" stop-color="#d4d4d4"/><stop offset="92%" stop-color="#ababab"/><stop offset="98%" stop-color="#737373"/><stop offset="99%" stop-color="#666"/></linearGradient></defs><g fill="none" fill-rule="evenodd" transform="translate(.1 .8)"><path fill="url(#a)" fill-rule="nonzero" d="M10.28 77.48S0 76.22 0 68.18c0-8.27 10.28-10.27 10.28-10.27h131.86s8 0 8 9.78a9.55 9.55 0 0 1-8 9.79z"/><path fill="url(#b)" fill-rule="nonzero" d="M10.28 102.15S0 100.9 0 92.85c0-8.27 10.28-10.27 10.28-10.27h131.86s8 0 8 9.78a9.55 9.55 0 0 1-8 9.79z"/><path fill="url(#c)" fill-rule="nonzero" d="M10.28 52.8S0 51.55 0 43.5c0-8.27 10.28-10.27 10.28-10.27h131.86s8 0 8 9.79a9.55 9.55 0 0 1-8 9.78z"/><path fill="url(#d)" fill-rule="nonzero" d="M10.28 28.13S0 26.88 0 18.83C0 10.56 10.28 8.56 10.28 8.56h131.86s8 0 8 9.78a9.55 9.55 0 0 1-8 9.79z"/><path fill="#bdc0c0" fill-rule="nonzero" d="M23.31 4.02h48.53v52.47H23.31z"/><circle cx="31.78" cy="13.18" r="4.19" fill="#fff" fill-rule="nonzero"/><path fill="#eaeaea" fill-rule="nonzero" d="M27.59 13.18a4.16 4.16 0 0 0 1.83 3.46q.308.048.62.05a4.53 4.53 0 0 0 4.49-4.57 4.64 4.64 0 0 0-.85-2.68 4.18 4.18 0 0 0-6.09 3.74"/><path fill="#7f7f7f" fill-rule="nonzero" d="M31.78 8.59a4.59 4.59 0 1 0 0 9.18 4.59 4.59 0 0 0 0-9.18m0 8.78A4.2 4.2 0 1 1 36 13.18a4.19 4.19 0 0 1-4.22 4.19"/><circle cx="31.78" cy="13.18" r="4.03" fill="#c1c1c1" fill-rule="nonzero" opacity=".51"/><path fill="#7f7f7f" fill-rule="nonzero" d="m33 14.33.33-.55a.18.18 0 0 0-.06-.24h-.08a3.4 3.4 0 0 1-.85-.29c-.73-.42-3.55-2.28-3.55-2.28s2.66 2.05 3.41 2.7q.282.302.49.66a.18.18 0 0 0 .31 0"/><circle cx="31.92" cy="13.23" r="1" fill="#7f7f7f" fill-rule="nonzero"/><path stroke="#7f7f7f" stroke-width=".25" d="m33.58 9.85-.29.56m-3.19-.56.3.56m-2.31 2.27.62.09m6.92-.11-.62.09"/><circle cx="31.92" cy="13.23" r="1" fill="#dedede" fill-rule="nonzero"/><circle cx="47.74" cy="13.18" r="4.19" fill="#fff" fill-rule="nonzero"/><path fill="#eaeaea" fill-rule="nonzero" d="M43.55 13.18a4.19 4.19 0 0 0 1.83 3.46q.308.047.62.05a4.53 4.53 0 0 0 4.5-4.57 4.58 4.58 0 0 0-.86-2.68 4.18 4.18 0 0 0-6.09 3.74"/><path fill="#7f7f7f" fill-rule="nonzero" d="M47.74 8.59a4.59 4.59 0 1 0 0 9.18 4.59 4.59 0 0 0 0-9.18m0 8.78a4.2 4.2 0 1 1 0-8.4 4.2 4.2 0 0 1 0 8.4"/><circle cx="47.74" cy="13.18" r="4.03" fill="#c1c1c1" fill-rule="nonzero" opacity=".51"/><path fill="#7f7f7f" fill-rule="nonzero" d="m48.92 14.33.33-.55a.17.17 0 0 0-.06-.24h-.08a3.3 3.3 0 0 1-.84-.29c-.73-.42-3.56-2.28-3.56-2.28s2.66 2.05 3.41 2.7q.287.302.5.66a.18.18 0 0 0 .3 0"/><circle cx="47.88" cy="13.23" r="1" fill="#7f7f7f" fill-rule="nonzero"/><path stroke="#7f7f7f" stroke-width=".25" d="m49.55 9.85-.3.56m-3.19-.56.3.56m-2.31 2.27.63.09m6.92-.11-.63.09"/><circle cx="47.88" cy="13.23" r="1" fill="#dedede" fill-rule="nonzero"/><circle cx="63.71" cy="13.23" r="4.19" fill="#fff" fill-rule="nonzero"/><path fill="#eaeaea" fill-rule="nonzero" d="M59.51 13.23a4.17 4.17 0 0 0 1.84 3.46q.31.023.62 0a4.53 4.53 0 0 0 4.49-4.57 4.6 4.6 0 0 0-.86-2.68A4.15 4.15 0 0 0 63.71 9a4.19 4.19 0 0 0-4.2 4.23"/><path fill="#7f7f7f" fill-rule="nonzero" d="M63.71 8.64a4.59 4.59 0 1 0 0 9.18 4.59 4.59 0 0 0 0-9.18m0 8.78a4.19 4.19 0 1 1 0-8.38 4.19 4.19 0 0 1 0 8.38"/><circle cx="63.71" cy="13.23" r="4.03" fill="#c1c1c1" fill-rule="nonzero" opacity=".51"/><path fill="#7f7f7f" fill-rule="nonzero" d="m64.89 14.38.33-.54a.18.18 0 0 0-.06-.24h-.08a2.7 2.7 0 0 1-.85-.29c-.73-.45-3.56-2.31-3.56-2.31s2.66 2.05 3.42 2.71q.286.294.49.65v.05a.17.17 0 0 0 .31-.03"/><circle cx="63.85" cy="13.28" r="1" fill="#7f7f7f" fill-rule="nonzero"/><path stroke="#7f7f7f" stroke-width=".25" d="m65.51 9.9-.3.56m-3.18-.56.29.56m-2.3 2.27.62.09m6.92-.1-.62.08"/><circle cx="63.85" cy="13.28" r="1" fill="#dedede" fill-rule="nonzero"/><path fill="url(#e)" fill-rule="nonzero" d="M22.07 104.49h105.6v3.83H22.07z"/><path fill="url(#f)" fill-rule="nonzero" d="M22.81 64.44h39.66v2.71H22.81z"/><path fill="url(#g)" fill-rule="nonzero" d="M37.2 60.3h21.13v14.33H37.2z"/><path fill="#e6e6e6" fill-rule="nonzero" d="M148.23 95.14H3.62V91.3h144.61zM147.76 112.06H3.15v-3.84h144.61z"/><path fill="url(#h)" fill-rule="nonzero" d="M40.98 74.62h13.58v2.58H40.98z"/><path fill="url(#i)" fill-rule="nonzero" d="M40.32 77.21h15.04v31.29H40.32z"/><path fill="url(#j)" fill-rule="nonzero" d="M39.89 78.9H55.8v3.04H39.89z"/><path fill="url(#k)" fill-rule="nonzero" d="M96.96 74.62h13.58v2.58H96.96z"/><path fill="url(#l)" fill-rule="nonzero" d="M96.29 77.21h15.04v31.29H96.29z"/><path fill="url(#j)" fill-rule="nonzero" d="M95.86 78.9h15.91v3.04H95.86z"/><path fill="#e8ca9d" fill-rule="nonzero" d="M30.58 21.87h6.79v3.84h-6.79zm-.72 28.04h4.47v3.84h-4.47zm5.69 0h4.47v3.84h-4.47zm5.7 0h4.47v3.84h-4.47zm5.69 0h4.47v3.84h-4.47z"/><path fill="#69bdc0" fill-rule="nonzero" d="M58.11 49.91h7.69v3.84h-7.69z"/><circle cx="31.53" cy="37.67" r="1.72" fill="#faf8f8" fill-rule="nonzero"/><circle cx="31.53" cy="37.67" r="1.22" fill="#a95e63" fill-rule="nonzero"/><circle cx="39.51" cy="37.67" r="1.72" fill="#faf8f8" fill-rule="nonzero"/><circle cx="39.51" cy="37.67" r="1.22" fill="#a95e63" fill-rule="nonzero"/><circle cx="47.05" cy="37.67" r="1.72" fill="#faf8f8" fill-rule="nonzero"/><circle cx="47.05" cy="37.67" r="1.22" fill="#a95e63" fill-rule="nonzero"/><circle cx="55.02" cy="37.53" r="1.72" fill="#faf8f8" fill-rule="nonzero"/><circle cx="55.02" cy="37.53" r="1.22" fill="#a95e63" fill-rule="nonzero"/><circle cx="62.67" cy="37.53" r="1.72" fill="#faf8f8" fill-rule="nonzero"/><circle cx="62.67" cy="37.53" r="1.22" fill="#a95e63" fill-rule="nonzero"/><circle cx="31.53" cy="44.42" r="1.72" fill="#faf8f8" fill-rule="nonzero"/><circle cx="31.53" cy="44.42" r="1.22" fill="#69bdc0" fill-rule="nonzero"/><circle cx="39.51" cy="44.42" r="1.72" fill="#faf8f8" fill-rule="nonzero"/><circle cx="39.51" cy="44.42" r="1.22" fill="#69bdc0" fill-rule="nonzero"/><circle cx="47.55" cy="44.42" r="1.72" fill="#faf8f8" fill-rule="nonzero"/><circle cx="47.55" cy="44.42" r="1.22" fill="#69bdc0" fill-rule="nonzero"/><circle cx="55.52" cy="44.42" r="1.72" fill="#faf8f8" fill-rule="nonzero"/><circle cx="55.52" cy="44.42" r="1.22" fill="#69bdc0" fill-rule="nonzero"/><circle cx="63.17" cy="44.42" r="1.72" fill="#faf8f8" fill-rule="nonzero"/><circle cx="63.17" cy="44.42" r="1.22" fill="#69bdc0" fill-rule="nonzero"/><path fill="#e8ca9d" fill-rule="nonzero" d="M39.76 21.87h6.79v3.84h-6.79zm9.17 0h6.79v3.84h-6.79zm9.18 0h6.79v3.84h-6.79z"/><path fill="#e6e6e6" fill-rule="nonzero" d="M23.31 28.33h48.53v3.84H23.31zM23.31 0v116.58h-3.84V0z"/><path fill="#e6e6e6" fill-rule="nonzero" d="M75.67 0v116.58h-3.84V0zM23.31 0v116.58h-3.84V0z"/><path fill="#bdc0c0" fill-rule="nonzero" d="M79.47 3.81H128v52.47H79.47z"/><circle cx="87.95" cy="12.97" r="4.19" fill="#fff" fill-rule="nonzero"/><path fill="#eaeaea" fill-rule="nonzero" d="M83.75 13a4.22 4.22 0 0 0 1.83 3.47q.315.023.63 0a4.58 4.58 0 0 0 3.63-7.25A4.15 4.15 0 0 0 88 8.78 4.2 4.2 0 0 0 83.75 13"/><path fill="#7f7f7f" fill-rule="nonzero" d="M88 8.38a4.59 4.59 0 1 0-.1 9.18 4.59 4.59 0 0 0 .1-9.18m0 8.79a4.2 4.2 0 1 1-.12-8.4 4.2 4.2 0 0 1 .12 8.4"/><circle cx="87.95" cy="12.97" r="4.03" fill="#c1c1c1" fill-rule="nonzero" opacity=".51"/><path fill="#7f7f7f" fill-rule="nonzero" d="m89.13 14.13.32-.55a.18.18 0 0 0 0-.24h-.09a3 3 0 0 1-.84-.3c-.73-.42-3.56-2.28-3.56-2.28s2.66 2.06 3.41 2.71q.287.301.5.66a.18.18 0 0 0 .26 0"/><circle cx="88.09" cy="13.03" r="1" fill="#7f7f7f" fill-rule="nonzero"/><path stroke="#7f7f7f" stroke-width=".25" d="m89.75 9.64-.3.56m-3.18-.56.29.56m-2.31 2.28.63.09m6.92-.11-.63.09"/><circle cx="88.09" cy="13.03" r="1" fill="#dedede" fill-rule="nonzero"/><circle cx="103.91" cy="12.97" r="4.19" fill="#fff" fill-rule="nonzero"/><path fill="#eaeaea" fill-rule="nonzero" d="M99.72 13a4.19 4.19 0 0 0 1.83 3.47q.31.023.62 0a4.58 4.58 0 0 0 3.63-7.25A4.17 4.17 0 0 0 99.72 13"/><path fill="#7f7f7f" fill-rule="nonzero" d="M103.91 8.38a4.59 4.59 0 1 0 0 9.18 4.59 4.59 0 0 0 0-9.18m0 8.79A4.2 4.2 0 1 1 108.1 13a4.19 4.19 0 0 1-4.19 4.17"/><circle cx="103.91" cy="12.97" r="4.03" fill="#c1c1c1" fill-rule="nonzero" opacity=".51"/><path fill="#7f7f7f" fill-rule="nonzero" d="m105.09 14.13.33-.55a.18.18 0 0 0-.06-.24h-.08a3.1 3.1 0 0 1-.85-.3c-.73-.42-3.56-2.28-3.56-2.28s2.67 2.06 3.42 2.71q.283.301.49.66a.18.18 0 0 0 .31 0"/><circle cx="104.05" cy="13.03" r="1" fill="#7f7f7f" fill-rule="nonzero"/><path stroke="#7f7f7f" stroke-width=".25" d="m105.71 9.64-.3.56m-3.18-.56.3.56m-2.31 2.28.62.09m6.92-.11-.62.09"/><circle cx="104.05" cy="13.03" r="1" fill="#dedede" fill-rule="nonzero"/><circle cx="119.87" cy="13.03" r="4.19" fill="#fff" fill-rule="nonzero"/><path fill="#eaeaea" fill-rule="nonzero" d="M115.68 13a4.19 4.19 0 0 0 1.83 3.46q.308.047.62.05a4.53 4.53 0 0 0 4.5-4.57 4.58 4.58 0 0 0-.86-2.68 4.18 4.18 0 0 0-6.09 3.74"/><path fill="#7f7f7f" fill-rule="nonzero" d="M119.87 8.44a4.59 4.59 0 1 0 0 9.18 4.59 4.59 0 0 0 0-9.18m0 8.78a4.2 4.2 0 1 1 0-8.4 4.2 4.2 0 0 1 0 8.4"/><circle cx="119.87" cy="13.03" r="4.03" fill="#c1c1c1" fill-rule="nonzero" opacity=".51"/><path fill="#7f7f7f" fill-rule="nonzero" d="m121.05 14.18.33-.55a.17.17 0 0 0-.06-.24h-.08a3.2 3.2 0 0 1-.84-.29c-.73-.42-3.56-2.28-3.56-2.28s2.66 2 3.41 2.7q.287.302.5.66a.18.18 0 0 0 .3 0"/><circle cx="120.01" cy="13.08" r="1" fill="#7f7f7f" fill-rule="nonzero"/><path stroke="#7f7f7f" stroke-width=".25" d="m121.68 9.7-.3.56m-3.19-.56.3.56m-2.31 2.27.63.09m6.92-.11-.63.09"/><circle cx="120.01" cy="13.08" r="1" fill="#dedede" fill-rule="nonzero"/><path fill="#e8ca9d" fill-rule="nonzero" d="M86.75 21.67h6.79v3.84h-6.79zm-.73 28.04h4.47v3.84h-4.47zm5.7 0h4.47v3.84h-4.47zm5.69 0h4.47v3.84h-4.47zm5.7 0h4.47v3.84h-4.47z"/><path fill="#69bdc0" fill-rule="nonzero" d="M114.28 49.71h7.69v3.84h-7.69z"/><circle cx="87.7" cy="37.47" r="1.72" fill="#faf8f8" fill-rule="nonzero"/><circle cx="87.7" cy="37.47" r="1.22" fill="#a95e63" fill-rule="nonzero"/><circle cx="95.68" cy="37.47" r="1.72" fill="#faf8f8" fill-rule="nonzero"/><circle cx="95.68" cy="37.47" r="1.22" fill="#a95e63" fill-rule="nonzero"/><circle cx="103.21" cy="37.47" r="1.72" fill="#faf8f8" fill-rule="nonzero"/><circle cx="103.21" cy="37.47" r="1.22" fill="#a95e63" fill-rule="nonzero"/><circle cx="111.19" cy="37.32" r="1.72" fill="#faf8f8" fill-rule="nonzero"/><circle cx="111.19" cy="37.32" r="1.22" fill="#a95e63" fill-rule="nonzero"/><circle cx="118.83" cy="37.32" r="1.72" fill="#faf8f8" fill-rule="nonzero"/><circle cx="118.83" cy="37.32" r="1.22" fill="#a95e63" fill-rule="nonzero"/><circle cx="87.7" cy="44.21" r="1.72" fill="#faf8f8" fill-rule="nonzero"/><circle cx="87.7" cy="44.21" r="1.22" fill="#69bdc0" fill-rule="nonzero"/><circle cx="95.68" cy="44.21" r="1.72" fill="#faf8f8" fill-rule="nonzero"/><circle cx="95.68" cy="44.21" r="1.22" fill="#69bdc0" fill-rule="nonzero"/><circle cx="103.72" cy="44.21" r="1.72" fill="#faf8f8" fill-rule="nonzero"/><circle cx="103.72" cy="44.21" r="1.22" fill="#69bdc0" fill-rule="nonzero"/><circle cx="111.69" cy="44.21" r="1.72" fill="#faf8f8" fill-rule="nonzero"/><circle cx="111.69" cy="44.21" r="1.22" fill="#69bdc0" fill-rule="nonzero"/><circle cx="119.34" cy="44.21" r="1.72" fill="#faf8f8" fill-rule="nonzero"/><circle cx="119.34" cy="44.21" r="1.22" fill="#69bdc0" fill-rule="nonzero"/><path fill="#e8ca9d" fill-rule="nonzero" d="M95.92 21.67h6.79v3.84h-6.79zm9.18 0h6.79v3.84h-6.79zm9.17 0h6.79v3.84h-6.79z"/><path fill="#e6e6e6" fill-rule="nonzero" d="M79.47 28.13H128v3.84H79.47zM6.58 0v116.58H2.74V0z"/><path fill="#e6e6e6" fill-rule="nonzero" d="M148.24 3.84H2.66V0h145.58zM148.23 60.21H3.62v-3.84h144.61z"/><path fill="#e6e6e6" fill-rule="nonzero" d="M79.17 0v116.58h-3.84V0zM131.51 0v116.58h-3.84V0zM148.24 0v116.58h-3.84V0z"/><path fill="url(#m)" fill-rule="nonzero" d="M63.17 60.3h2.78v3.36h-2.78z"/><path fill="url(#n)" fill-rule="nonzero" d="M65 66.31a5.7 5.7 0 0 1-2.57.83v-2.7s.52 0 .64-.13.06-.65.06-.65H66a5.33 5.33 0 0 1-1 2.65"/><path fill="url(#f)" fill-rule="nonzero" d="M79.17 64.38h39.66v2.71H79.17z"/><path fill="url(#o)" fill-rule="nonzero" d="M119.53 60.23h2.78v3.36h-2.78z"/><path fill="url(#p)" fill-rule="nonzero" d="M121.4 66.25a5.8 5.8 0 0 1-2.57.83v-2.7s.51 0 .64-.14.06-.64.06-.64h2.78a5.44 5.44 0 0 1-.91 2.65"/><path fill="url(#g)" fill-rule="nonzero" d="M93.17 60.3h21.13v14.33H93.17z"/></g></svg>