<svg xmlns="http://www.w3.org/2000/svg" viewBox="0 0 117 151"><title>Micro screen（微型屏幕）</title><defs><linearGradient id="a" x1="0%" x2="100%" y1="50%" y2="50%"><stop offset="0%" stop-color="#e2e2e2"/><stop offset="3%" stop-color="#d0d0d0"/><stop offset="6%" stop-color="#bcbcbc"/><stop offset="9%" stop-color="#b5b5b5"/><stop offset="49%" stop-color="#f6f6f6"/><stop offset="63%" stop-color="#f3f3f3"/><stop offset="73%" stop-color="#eaeaea"/><stop offset="82%" stop-color="#dbdbdb"/><stop offset="90%" stop-color="#c6c6c6"/><stop offset="97%" stop-color="#aaa"/><stop offset="100%" stop-color="#9b9b9b"/></linearGradient><linearGradient id="b" x1="0%" x2="100%" y1="50%" y2="50%"><stop offset="0%" stop-color="#e2e2e2"/><stop offset="3%" stop-color="#d0d0d0"/><stop offset="6%" stop-color="#bcbcbc"/><stop offset="9%" stop-color="#b5b5b5"/><stop offset="49%" stop-color="#f6f6f6"/><stop offset="63%" stop-color="#f3f3f3"/><stop offset="73%" stop-color="#eaeaea"/><stop offset="82%" stop-color="#dbdbdb"/><stop offset="90%" stop-color="#c6c6c6"/><stop offset="97%" stop-color="#aaa"/><stop offset="100%" stop-color="#9b9b9b"/></linearGradient><linearGradient id="c" x1="0%" x2="99.519%" y1="50%" y2="50%"><stop offset="0%" stop-color="#e2e2e2"/><stop offset="3%" stop-color="#d0d0d0"/><stop offset="6%" stop-color="#bcbcbc"/><stop offset="9%" stop-color="#b5b5b5"/><stop offset="49%" stop-color="#f6f6f6"/><stop offset="63%" stop-color="#f3f3f3"/><stop offset="73%" stop-color="#eaeaea"/><stop offset="82%" stop-color="#dbdbdb"/><stop offset="90%" stop-color="#c6c6c6"/><stop offset="97%" stop-color="#aaa"/><stop offset="100%" stop-color="#9b9b9b"/></linearGradient><linearGradient id="d" x1=".481%" x2="100%" y1="50%" y2="50%"><stop offset="0%" stop-color="#e2e2e2"/><stop offset="3%" stop-color="#d0d0d0"/><stop offset="6%" stop-color="#bcbcbc"/><stop offset="9%" stop-color="#b5b5b5"/><stop offset="49%" stop-color="#f6f6f6"/><stop offset="63%" stop-color="#f3f3f3"/><stop offset="73%" stop-color="#eaeaea"/><stop offset="82%" stop-color="#dbdbdb"/><stop offset="90%" stop-color="#c6c6c6"/><stop offset="97%" stop-color="#aaa"/><stop offset="100%" stop-color="#9b9b9b"/></linearGradient><linearGradient id="e" x1="50.006%" x2="50.006%" y1="100%" y2="0%"><stop offset="0%" stop-color="#e2e2e2"/><stop offset="3%" stop-color="#d0d0d0"/><stop offset="6%" stop-color="#bcbcbc"/><stop offset="9%" stop-color="#b5b5b5"/><stop offset="49%" stop-color="#f6f6f6"/><stop offset="63%" stop-color="#f3f3f3"/><stop offset="73%" stop-color="#eaeaea"/><stop offset="82%" stop-color="#dbdbdb"/><stop offset="90%" stop-color="#c6c6c6"/><stop offset="97%" stop-color="#aaa"/><stop offset="100%" stop-color="#9b9b9b"/></linearGradient><linearGradient id="f" x1="50.006%" x2="50.006%" y1="99.454%" y2="0%"><stop offset="0%" stop-color="#e2e2e2"/><stop offset="3%" stop-color="#d0d0d0"/><stop offset="6%" stop-color="#bcbcbc"/><stop offset="9%" stop-color="#b5b5b5"/><stop offset="49%" stop-color="#f6f6f6"/><stop offset="63%" stop-color="#f3f3f3"/><stop offset="73%" stop-color="#eaeaea"/><stop offset="82%" stop-color="#dbdbdb"/><stop offset="90%" stop-color="#c6c6c6"/><stop offset="97%" stop-color="#aaa"/><stop offset="100%" stop-color="#9b9b9b"/></linearGradient></defs><g fill="none" fill-rule="nonzero"><path fill="url(#a)" d="M0 0h116.13v150H0z" transform="translate(.1 .8)"/><path fill="#a3a4a4" d="M13.12 14.63h89.67v122.26H13.12z"/><path fill="url(#b)" d="M16.48 13.83h2.08v122.26h-2.08z" transform="translate(.1 .8)"/><path fill="url(#c)" d="M22.28 13.83h2.08v122.26h-2.08z" transform="translate(.1 .8)"/><path fill="url(#b)" d="M28.07 13.83h2.08v122.26h-2.08z" transform="translate(.1 .8)"/><path fill="url(#b)" d="M33.86 13.83h2.08v122.26h-2.08z" transform="translate(.1 .8)"/><path fill="url(#c)" d="M39.66 13.83h2.08v122.26h-2.08z" transform="translate(.1 .8)"/><path fill="url(#b)" d="M45.45 13.83h2.08v122.26h-2.08z" transform="translate(.1 .8)"/><path fill="url(#b)" d="M51.24 13.83h2.08v122.26h-2.08z" transform="translate(.1 .8)"/><path fill="url(#d)" d="M57.03 13.83h2.08v122.26h-2.08z" transform="translate(.1 .8)"/><path fill="url(#b)" d="M62.83 13.83h2.08v122.26h-2.08z" transform="translate(.1 .8)"/><path fill="url(#b)" d="M68.62 13.83h2.08v122.26h-2.08z" transform="translate(.1 .8)"/><path fill="url(#d)" d="M74.41 13.83h2.08v122.26h-2.08z" transform="translate(.1 .8)"/><path fill="url(#b)" d="M80.21 13.83h2.08v122.26h-2.08z" transform="translate(.1 .8)"/><path fill="url(#b)" d="M86 13.83h2.08v122.26H86z" transform="translate(.1 .8)"/><path fill="url(#d)" d="M91.79 13.83h2.08v122.26h-2.08z" transform="translate(.1 .8)"/><path fill="url(#b)" d="M97.59 13.83h2.08v122.26h-2.08z" transform="translate(.1 .8)"/><path fill="url(#e)" d="M13.02 16.28h89.67v1.83H13.02z" transform="translate(.1 .8)"/><path fill="url(#e)" d="M13.02 22.05h89.67v1.83H13.02z" transform="translate(.1 .8)"/><path fill="url(#e)" d="M13.02 27.82h89.67v1.83H13.02z" transform="translate(.1 .8)"/><path fill="url(#e)" d="M13.02 33.59h89.67v1.83H13.02z" transform="translate(.1 .8)"/><path fill="url(#e)" d="M13.02 39.36h89.67v1.83H13.02z" transform="translate(.1 .8)"/><path fill="url(#e)" d="M13.02 45.13h89.67v1.83H13.02z" transform="translate(.1 .8)"/><path fill="url(#e)" d="M13.02 50.9h89.67v1.83H13.02z" transform="translate(.1 .8)"/><path fill="url(#e)" d="M13.02 56.67h89.67v1.83H13.02z" transform="translate(.1 .8)"/><path fill="url(#e)" d="M13.02 62.44h89.67v1.83H13.02z" transform="translate(.1 .8)"/><path fill="url(#e)" d="M13.02 68.21h89.67v1.83H13.02z" transform="translate(.1 .8)"/><path fill="url(#e)" d="M13.02 73.98h89.67v1.83H13.02z" transform="translate(.1 .8)"/><path fill="url(#f)" d="M13.02 79.75h89.67v1.83H13.02z" transform="translate(.1 .8)"/><path fill="url(#f)" d="M13.02 85.52h89.67v1.83H13.02z" transform="translate(.1 .8)"/><path fill="url(#f)" d="M13.02 91.29h89.67v1.83H13.02z" transform="translate(.1 .8)"/><path fill="url(#f)" d="M13.02 97.06h89.67v1.83H13.02z" transform="translate(.1 .8)"/><path fill="url(#f)" d="M13.02 102.83h89.67v1.83H13.02z" transform="translate(.1 .8)"/><path fill="url(#e)" d="M13.02 108.59h89.67v1.83H13.02z" transform="translate(.1 .8)"/><path fill="url(#e)" d="M13.02 114.36h89.67v1.83H13.02z" transform="translate(.1 .8)"/><path fill="url(#e)" d="M13.02 120.13h89.67v1.83H13.02z" transform="translate(.1 .8)"/><path fill="url(#e)" d="M13.02 125.9h89.67v1.83H13.02z" transform="translate(.1 .8)"/><path fill="url(#e)" d="M13.02 131.67h89.67v1.83H13.02z" transform="translate(.1 .8)"/></g></svg>