<svg xmlns="http://www.w3.org/2000/svg" viewBox="0 0 78 152"><title>Motorized flow gate (closed)（电动闸门（关））</title><defs><linearGradient id="a" x1="0%" x2="100%" y1="49.953%" y2="49.953%"><stop offset="0%" stop-color="#e2e2e2"/><stop offset="3%" stop-color="#d0d0d0"/><stop offset="6%" stop-color="#bcbcbc"/><stop offset="9%" stop-color="#b5b5b5"/><stop offset="49%" stop-color="#f6f6f6"/><stop offset="63%" stop-color="#f3f3f3"/><stop offset="73%" stop-color="#eaeaea"/><stop offset="82%" stop-color="#dbdbdb"/><stop offset="90%" stop-color="#c6c6c6"/><stop offset="97%" stop-color="#aaa"/><stop offset="100%" stop-color="#9b9b9b"/></linearGradient><linearGradient id="b" x1="0%" x2="100%" y1="50%" y2="50%"><stop offset="0%" stop-color="#e2e2e2"/><stop offset="3%" stop-color="#d0d0d0"/><stop offset="6%" stop-color="#bcbcbc"/><stop offset="9%" stop-color="#b5b5b5"/><stop offset="49%" stop-color="#f6f6f6"/><stop offset="63%" stop-color="#f3f3f3"/><stop offset="73%" stop-color="#eaeaea"/><stop offset="82%" stop-color="#dbdbdb"/><stop offset="90%" stop-color="#c6c6c6"/><stop offset="97%" stop-color="#aaa"/><stop offset="100%" stop-color="#9b9b9b"/></linearGradient><linearGradient id="c" x1="0%" x2="100%" y1="50.085%" y2="50.085%"><stop offset="0%" stop-color="#e2e2e2"/><stop offset="3%" stop-color="#d0d0d0"/><stop offset="6%" stop-color="#bcbcbc"/><stop offset="9%" stop-color="#b5b5b5"/><stop offset="49%" stop-color="#f6f6f6"/><stop offset="63%" stop-color="#f3f3f3"/><stop offset="73%" stop-color="#eaeaea"/><stop offset="82%" stop-color="#dbdbdb"/><stop offset="90%" stop-color="#c6c6c6"/><stop offset="97%" stop-color="#aaa"/><stop offset="100%" stop-color="#9b9b9b"/></linearGradient><linearGradient id="d" x1="0%" x2="100%" y1="50%" y2="50%"><stop offset="0%" stop-color="#e2e2e2"/><stop offset="3%" stop-color="#d0d0d0"/><stop offset="6%" stop-color="#bcbcbc"/><stop offset="9%" stop-color="#b5b5b5"/><stop offset="49%" stop-color="#f6f6f6"/><stop offset="63%" stop-color="#f3f3f3"/><stop offset="73%" stop-color="#eaeaea"/><stop offset="82%" stop-color="#dbdbdb"/><stop offset="90%" stop-color="#c6c6c6"/><stop offset="97%" stop-color="#aaa"/><stop offset="100%" stop-color="#9b9b9b"/></linearGradient><linearGradient id="e" x1="0%" x2="100.211%" y1="50.009%" y2="50.009%"><stop offset="0%" stop-color="#e2e2e2"/><stop offset="3%" stop-color="#d0d0d0"/><stop offset="6%" stop-color="#bcbcbc"/><stop offset="9%" stop-color="#b5b5b5"/><stop offset="49%" stop-color="#f6f6f6"/><stop offset="63%" stop-color="#f3f3f3"/><stop offset="73%" stop-color="#eaeaea"/><stop offset="82%" stop-color="#dbdbdb"/><stop offset="90%" stop-color="#c6c6c6"/><stop offset="97%" stop-color="#aaa"/><stop offset="100%" stop-color="#9b9b9b"/></linearGradient></defs><g fill="none" fill-rule="nonzero"><path fill="#dbdbdb" d="M12.55 13.45h51.99v13.04H12.55z"/><path fill="url(#a)" d="M21.21 14.2h34.51v10.75H21.21z" transform="translate(.1 .8)"/><path fill="url(#b)" d="M29.59 6.21H47.1v6.44H29.59z" transform="translate(.1 .8)"/><path fill="url(#c)" d="M23.6.54h29.79v5.87H23.6z" transform="translate(.1 .8)"/><path fill="#dbdbdb" d="M.1 27.21v123.9h77.09V27.21zm73.14 119.82H3.44v-116h69.8z"/><path fill="#dbdbdb" d="M5.07 87.86h67.01v57.89H5.07z"/><path fill="#a3a4a4" d="M3.44 86.29h69.8v60.74H3.44z"/><path fill="#dbdbdb" d="M5.07 87.86h67.01v57.89H5.07z"/><path fill="#a3a4a4" d="M12.55 26.48h51.99v1H12.55z"/><path fill="url(#d)" d="M25.88 0h1v6.98h-1z" transform="translate(.1 .8)"/><path fill="url(#d)" d="M28.11 0h1v6.98h-1z" transform="translate(.1 .8)"/><path fill="url(#d)" d="M30.34 0h1v6.98h-1z" transform="translate(.1 .8)"/><path fill="url(#d)" d="M32.57 0h1v6.98h-1z" transform="translate(.1 .8)"/><path fill="url(#e)" d="M36.12 30.24h4.73v55.81h-4.73z" transform="translate(.1 .8)"/><path fill="url(#d)" d="M34.8 0h1v6.98h-1z" transform="translate(.1 .8)"/><path fill="url(#d)" d="M37.03 0h1v6.98h-1z" transform="translate(.1 .8)"/><path fill="url(#d)" d="M39.27 0h1v6.98h-1z" transform="translate(.1 .8)"/><path fill="url(#d)" d="M41.5 0h1v6.98h-1z" transform="translate(.1 .8)"/><path fill="url(#d)" d="M43.73 0h1v6.98h-1z" transform="translate(.1 .8)"/><path fill="url(#d)" d="M45.96 0h1v6.98h-1z" transform="translate(.1 .8)"/><path fill="url(#d)" d="M48.19 0h1v6.98h-1z" transform="translate(.1 .8)"/><path fill="url(#d)" d="M50.42 0h1v6.98h-1z" transform="translate(.1 .8)"/><path fill="url(#d)" d="M52.65 0h1v6.98h-1z" transform="translate(.1 .8)"/><path fill="url(#d)" d="M23.44 0h1v6.98h-1z" transform="translate(.1 .8)"/></g></svg>