<svg xmlns="http://www.w3.org/2000/svg" viewBox="0 0 143 151"><title>Oil skimmer（撇油器）</title><defs><linearGradient id="a" x1="0%" x2="100%" y1="50%" y2="50%"><stop offset="0%" stop-color="#e2e2e2"/><stop offset="3%" stop-color="#d0d0d0"/><stop offset="6%" stop-color="#bcbcbc"/><stop offset="9%" stop-color="#b5b5b5"/><stop offset="49%" stop-color="#f6f6f6"/><stop offset="63%" stop-color="#f3f3f3"/><stop offset="73%" stop-color="#eaeaea"/><stop offset="82%" stop-color="#dbdbdb"/><stop offset="90%" stop-color="#c6c6c6"/><stop offset="97%" stop-color="#aaa"/><stop offset="100%" stop-color="#9b9b9b"/></linearGradient><linearGradient id="b" x1="0%" x2="100%" y1="50%" y2="50%"><stop offset="0%" stop-color="#6b6b6b"/><stop offset="1%" stop-color="#767676"/><stop offset="3%" stop-color="#959595"/><stop offset="4%" stop-color="#aaa"/><stop offset="37%" stop-color="#ccc"/><stop offset="74%" stop-color="#eaeaea"/><stop offset="94%" stop-color="#f6f6f6"/><stop offset="95%" stop-color="#ededed"/><stop offset="96%" stop-color="#d4d4d4"/><stop offset="97%" stop-color="#ababab"/><stop offset="99%" stop-color="#737373"/><stop offset="99%" stop-color="#666"/></linearGradient><linearGradient id="c" x1="50%" x2="50%" y1="100%" y2="0%"><stop offset="0%" stop-color="#6b6b6b"/><stop offset="1%" stop-color="#767676"/><stop offset="3%" stop-color="#959595"/><stop offset="4%" stop-color="#aaa"/><stop offset="37%" stop-color="#ccc"/><stop offset="74%" stop-color="#eaeaea"/><stop offset="94%" stop-color="#f6f6f6"/><stop offset="95%" stop-color="#ededed"/><stop offset="96%" stop-color="#d4d4d4"/><stop offset="97%" stop-color="#ababab"/><stop offset="99%" stop-color="#737373"/><stop offset="99%" stop-color="#666"/></linearGradient><linearGradient id="d" x1="0%" x2="100%" y1="49.992%" y2="49.992%"><stop offset="0%" stop-color="#6b6b6b"/><stop offset="1%" stop-color="#767676"/><stop offset="3%" stop-color="#959595"/><stop offset="4%" stop-color="#aaa"/><stop offset="37%" stop-color="#ccc"/><stop offset="74%" stop-color="#eaeaea"/><stop offset="94%" stop-color="#f6f6f6"/><stop offset="95%" stop-color="#ededed"/><stop offset="96%" stop-color="#d4d4d4"/><stop offset="97%" stop-color="#ababab"/><stop offset="99%" stop-color="#737373"/><stop offset="99%" stop-color="#666"/></linearGradient><linearGradient id="e" x1="50%" x2="50%" y1="100%" y2="0%"><stop offset="0%" stop-color="#6b6b6b"/><stop offset="1%" stop-color="#767676"/><stop offset="3%" stop-color="#959595"/><stop offset="4%" stop-color="#aaa"/><stop offset="37%" stop-color="#ccc"/><stop offset="74%" stop-color="#eaeaea"/><stop offset="94%" stop-color="#f6f6f6"/><stop offset="95%" stop-color="#ededed"/><stop offset="96%" stop-color="#d4d4d4"/><stop offset="97%" stop-color="#ababab"/><stop offset="99%" stop-color="#737373"/><stop offset="99%" stop-color="#666"/></linearGradient><linearGradient id="f" x1="0%" x2="100.026%" y1="50%" y2="50%"><stop offset="0%" stop-color="#6b6b6b"/><stop offset="1%" stop-color="#767676"/><stop offset="3%" stop-color="#959595"/><stop offset="4%" stop-color="#aaa"/><stop offset="37%" stop-color="#ccc"/><stop offset="74%" stop-color="#eaeaea"/><stop offset="94%" stop-color="#f6f6f6"/><stop offset="95%" stop-color="#ededed"/><stop offset="96%" stop-color="#d4d4d4"/><stop offset="97%" stop-color="#ababab"/><stop offset="99%" stop-color="#737373"/><stop offset="99%" stop-color="#666"/></linearGradient><linearGradient id="g" x1="50%" x2="50%" y1="100%" y2="0%"><stop offset="0%" stop-color="#6b6b6b"/><stop offset="1%" stop-color="#767676"/><stop offset="3%" stop-color="#959595"/><stop offset="4%" stop-color="#aaa"/><stop offset="37%" stop-color="#ccc"/><stop offset="74%" stop-color="#eaeaea"/><stop offset="94%" stop-color="#f6f6f6"/><stop offset="95%" stop-color="#ededed"/><stop offset="96%" stop-color="#d4d4d4"/><stop offset="97%" stop-color="#ababab"/><stop offset="99%" stop-color="#737373"/><stop offset="99%" stop-color="#666"/></linearGradient><linearGradient id="h" x1="50%" x2="50%" y1="100%" y2="0%"><stop offset="0%" stop-color="#e2e2e2"/><stop offset="3%" stop-color="#d0d0d0"/><stop offset="6%" stop-color="#bcbcbc"/><stop offset="9%" stop-color="#b5b5b5"/><stop offset="49%" stop-color="#f6f6f6"/><stop offset="63%" stop-color="#f3f3f3"/><stop offset="73%" stop-color="#eaeaea"/><stop offset="82%" stop-color="#dbdbdb"/><stop offset="90%" stop-color="#c6c6c6"/><stop offset="97%" stop-color="#aaa"/><stop offset="100%" stop-color="#9b9b9b"/></linearGradient><linearGradient id="i" x1="50%" x2="50%" y1="100.181%" y2="0%"><stop offset="0%" stop-color="#e2e2e2"/><stop offset="3%" stop-color="#d0d0d0"/><stop offset="6%" stop-color="#bcbcbc"/><stop offset="9%" stop-color="#b5b5b5"/><stop offset="49%" stop-color="#f6f6f6"/><stop offset="63%" stop-color="#f3f3f3"/><stop offset="73%" stop-color="#eaeaea"/><stop offset="82%" stop-color="#dbdbdb"/><stop offset="90%" stop-color="#c6c6c6"/><stop offset="97%" stop-color="#aaa"/><stop offset="100%" stop-color="#9b9b9b"/></linearGradient><linearGradient id="j" x1="50%" x2="50%" y1="100%" y2="0%"><stop offset="0%" stop-color="#6b6b6b"/><stop offset="1%" stop-color="#767676"/><stop offset="3%" stop-color="#959595"/><stop offset="4%" stop-color="#aaa"/><stop offset="37%" stop-color="#ccc"/><stop offset="74%" stop-color="#eaeaea"/><stop offset="94%" stop-color="#f6f6f6"/><stop offset="95%" stop-color="#ededed"/><stop offset="96%" stop-color="#d4d4d4"/><stop offset="97%" stop-color="#ababab"/><stop offset="99%" stop-color="#737373"/><stop offset="99%" stop-color="#666"/></linearGradient></defs><g fill="none" fill-rule="nonzero" transform="translate(.1 .8)"><circle cx="84.06" cy="28.17" r="1" fill="url(#a)"/><rect width="1.11" height="1" x="83.512" y="28.064" fill="#000" rx=".02" transform="rotate(45 84.067 28.169)"/><rect width="1.11" height="1" x="83.504" y="28.058" fill="#000" rx=".02" transform="rotate(-45 84.059 28.163)"/><circle cx="84.28" cy="44.23" r="1" fill="url(#a)"/><rect width="1.11" height="1" x="83.732" y="44.125" fill="#000" rx=".02" transform="rotate(45 84.287 44.23)"/><rect width="1.11" height="1" x="83.725" y="44.118" fill="#000" rx=".02" transform="rotate(-45 84.28 44.223)"/><circle cx="98.87" cy="44.23" r="1" fill="url(#a)"/><rect width="1.11" height="1" x="98.311" y="44.125" fill="#000" rx=".02" transform="rotate(45 98.866 44.23)"/><rect width="1.11" height="1" x="98.305" y="44.119" fill="#000" rx=".02" transform="rotate(-45 98.86 44.224)"/><circle cx="98.87" cy="28.17" r="1" fill="url(#a)"/><rect width="1.11" height="1" x="98.317" y="28.059" fill="#000" rx=".02" transform="rotate(45 98.872 28.164)"/><rect width="1.11" height="1" x="98.309" y="28.063" fill="#000" rx=".02" transform="rotate(-45 98.864 28.168)"/><path fill="url(#b)" d="M90.37 91.95h48.22v52.34H90.37z"/><path fill="url(#c)" d="M82.89 25.25h19.2v21.19h-19.2z"/><path fill="url(#d)" d="M42.28 78.84H90.5v65.85H42.28z"/><path fill="url(#e)" d="M102.09 21.58h12.14v28.93h-12.14z"/><path fill="url(#f)" d="M4.26 0h38.01v144.3H4.26z"/><path fill="url(#g)" d="M42.28 17.65h2.68v36.12h-2.68z"/><path fill="#dbdbdb" d="M54.14 6.86h25.14V19.9H54.14z"/><path fill="#dbdbdb" d="M44.95 19.4h37.94v32.76H44.95z"/><path fill="url(#h)" d="M79.28 9.97h1.86v7.26h-1.86z"/><path fill="url(#i)" d="M81.14 10.67h2.5v5.54h-2.5z"/><path fill="url(#j)" d="M82.89 18.52h19.2v6.73h-19.2z"/><path fill="#c4c4c4" d="M0 144.3h142.46v5.7H0zm49.91-46.74h33.12v6.73H49.91zm47.76 9.47h33.61v7.34H97.67z"/><path fill="#282d33" d="M44.95 22.78h37.94v2.29H44.95zm0 3.5h37.94v1.89H44.95zm0 2.65h37.94v1.38H44.95zm0 2.14h37.94v1.38H44.95zm0 2.13h37.94v1.38H44.95zm0 2.13h37.94v1.38H44.95zm0 2.14h37.94v1.38H44.95zm0 2.13h37.94v1.38H44.95zm0 2.14h37.94v1.38H44.95zm0 2.13h37.94v1.38H44.95zm0 3.26h37.94v1.38H44.95z"/></g></svg>