<svg xmlns="http://www.w3.org/2000/svg" viewBox="0 0 80 151"><title>Oil-water separator 1（油水分离器）</title><defs><linearGradient id="a" x1="50%" x2="50%" y1="100%" y2="0%"><stop offset="0%" stop-color="#6b6b6b"/><stop offset="11%" stop-color="#767676"/><stop offset="30%" stop-color="#959595"/><stop offset="41%" stop-color="#aaa"/><stop offset="56%" stop-color="#ccc"/><stop offset="71%" stop-color="#eaeaea"/><stop offset="80%" stop-color="#f6f6f6"/><stop offset="83%" stop-color="#ededed"/><stop offset="87%" stop-color="#d4d4d4"/><stop offset="92%" stop-color="#ababab"/><stop offset="98%" stop-color="#737373"/><stop offset="99%" stop-color="#666"/></linearGradient><linearGradient id="b" x1="0%" x2="100%" y1="49.988%" y2="49.988%"><stop offset="0%" stop-color="#e2e2e2"/><stop offset="3%" stop-color="#d0d0d0"/><stop offset="6%" stop-color="#bcbcbc"/><stop offset="9%" stop-color="#b5b5b5"/><stop offset="49%" stop-color="#f6f6f6"/><stop offset="63%" stop-color="#f3f3f3"/><stop offset="73%" stop-color="#eaeaea"/><stop offset="82%" stop-color="#dbdbdb"/><stop offset="90%" stop-color="#c6c6c6"/><stop offset="97%" stop-color="#aaa"/><stop offset="100%" stop-color="#9b9b9b"/></linearGradient><linearGradient id="c" x1="0%" x2="100%" y1="50%" y2="50%"><stop offset="0%" stop-color="#e2e2e2"/><stop offset="3%" stop-color="#d0d0d0"/><stop offset="6%" stop-color="#bcbcbc"/><stop offset="9%" stop-color="#b5b5b5"/><stop offset="49%" stop-color="#f6f6f6"/><stop offset="63%" stop-color="#f3f3f3"/><stop offset="73%" stop-color="#eaeaea"/><stop offset="82%" stop-color="#dbdbdb"/><stop offset="90%" stop-color="#c6c6c6"/><stop offset="97%" stop-color="#aaa"/><stop offset="100%" stop-color="#9b9b9b"/></linearGradient><linearGradient id="d" x1="0%" x2="100%" y1="49.991%" y2="49.991%"><stop offset="0%" stop-color="#e2e2e2"/><stop offset="3%" stop-color="#d0d0d0"/><stop offset="6%" stop-color="#bcbcbc"/><stop offset="9%" stop-color="#b5b5b5"/><stop offset="49%" stop-color="#f6f6f6"/><stop offset="63%" stop-color="#f3f3f3"/><stop offset="73%" stop-color="#eaeaea"/><stop offset="82%" stop-color="#dbdbdb"/><stop offset="90%" stop-color="#c6c6c6"/><stop offset="97%" stop-color="#aaa"/><stop offset="100%" stop-color="#9b9b9b"/></linearGradient><linearGradient id="e" x1="0%" x2="99.963%" y1="50%" y2="50%"><stop offset="0%" stop-color="#6b6b6b"/><stop offset="11%" stop-color="#767676"/><stop offset="30%" stop-color="#959595"/><stop offset="41%" stop-color="#aaa"/><stop offset="56%" stop-color="#ccc"/><stop offset="71%" stop-color="#eaeaea"/><stop offset="80%" stop-color="#f6f6f6"/><stop offset="83%" stop-color="#ededed"/><stop offset="87%" stop-color="#d4d4d4"/><stop offset="92%" stop-color="#ababab"/><stop offset="98%" stop-color="#737373"/><stop offset="99%" stop-color="#666"/></linearGradient><linearGradient id="f" x1="0%" x2="100%" y1="50%" y2="50%"><stop offset="0%" stop-color="#6b6b6b"/><stop offset="11%" stop-color="#767676"/><stop offset="30%" stop-color="#959595"/><stop offset="41%" stop-color="#aaa"/><stop offset="56%" stop-color="#ccc"/><stop offset="71%" stop-color="#eaeaea"/><stop offset="80%" stop-color="#f6f6f6"/><stop offset="83%" stop-color="#ededed"/><stop offset="87%" stop-color="#d4d4d4"/><stop offset="92%" stop-color="#ababab"/><stop offset="98%" stop-color="#737373"/><stop offset="99%" stop-color="#666"/></linearGradient><linearGradient id="g" x1="0%" x2="100%" y1="50.087%" y2="50.087%"><stop offset="0%" stop-color="#6b6b6b"/><stop offset="11%" stop-color="#767676"/><stop offset="30%" stop-color="#959595"/><stop offset="41%" stop-color="#aaa"/><stop offset="56%" stop-color="#ccc"/><stop offset="71%" stop-color="#eaeaea"/><stop offset="80%" stop-color="#f6f6f6"/><stop offset="83%" stop-color="#ededed"/><stop offset="87%" stop-color="#d4d4d4"/><stop offset="92%" stop-color="#ababab"/><stop offset="98%" stop-color="#737373"/><stop offset="99%" stop-color="#666"/></linearGradient><linearGradient id="h" x1="0%" x2="100%" y1="49.983%" y2="49.983%"><stop offset="0%" stop-color="#6b6b6b"/><stop offset="11%" stop-color="#767676"/><stop offset="30%" stop-color="#959595"/><stop offset="41%" stop-color="#aaa"/><stop offset="56%" stop-color="#ccc"/><stop offset="71%" stop-color="#eaeaea"/><stop offset="80%" stop-color="#f6f6f6"/><stop offset="83%" stop-color="#ededed"/><stop offset="87%" stop-color="#d4d4d4"/><stop offset="92%" stop-color="#ababab"/><stop offset="98%" stop-color="#737373"/><stop offset="99%" stop-color="#666"/></linearGradient><linearGradient id="i" x1="0%" x2="100%" y1="50.142%" y2="50.142%"><stop offset="0%" stop-color="#e2e2e2"/><stop offset="3%" stop-color="#d0d0d0"/><stop offset="6%" stop-color="#bcbcbc"/><stop offset="9%" stop-color="#b5b5b5"/><stop offset="49%" stop-color="#f6f6f6"/><stop offset="63%" stop-color="#f3f3f3"/><stop offset="73%" stop-color="#eaeaea"/><stop offset="82%" stop-color="#dbdbdb"/><stop offset="90%" stop-color="#c6c6c6"/><stop offset="97%" stop-color="#aaa"/><stop offset="100%" stop-color="#9b9b9b"/></linearGradient><linearGradient id="j" x1="0%" x2="100%" y1="49.903%" y2="49.903%"><stop offset="0%" stop-color="#e2e2e2"/><stop offset="3%" stop-color="#d0d0d0"/><stop offset="6%" stop-color="#bcbcbc"/><stop offset="9%" stop-color="#b5b5b5"/><stop offset="49%" stop-color="#f6f6f6"/><stop offset="63%" stop-color="#f3f3f3"/><stop offset="73%" stop-color="#eaeaea"/><stop offset="82%" stop-color="#dbdbdb"/><stop offset="90%" stop-color="#c6c6c6"/><stop offset="97%" stop-color="#aaa"/><stop offset="100%" stop-color="#9b9b9b"/></linearGradient><linearGradient id="k" x1="0%" x2="100%" y1="49.505%" y2="49.505%"><stop offset="0%" stop-color="#6b6b6b"/><stop offset="11%" stop-color="#767676"/><stop offset="30%" stop-color="#959595"/><stop offset="41%" stop-color="#aaa"/><stop offset="56%" stop-color="#ccc"/><stop offset="71%" stop-color="#eaeaea"/><stop offset="80%" stop-color="#f6f6f6"/><stop offset="83%" stop-color="#ededed"/><stop offset="87%" stop-color="#d4d4d4"/><stop offset="92%" stop-color="#ababab"/><stop offset="98%" stop-color="#737373"/><stop offset="99%" stop-color="#666"/></linearGradient><linearGradient id="l" x1="0%" x2="100%" y1="50%" y2="50%"><stop offset="0%" stop-color="#e2e2e2"/><stop offset="3%" stop-color="#d0d0d0"/><stop offset="6%" stop-color="#bcbcbc"/><stop offset="9%" stop-color="#b5b5b5"/><stop offset="49%" stop-color="#f6f6f6"/><stop offset="63%" stop-color="#f3f3f3"/><stop offset="73%" stop-color="#eaeaea"/><stop offset="82%" stop-color="#dbdbdb"/><stop offset="90%" stop-color="#c6c6c6"/><stop offset="97%" stop-color="#aaa"/><stop offset="100%" stop-color="#9b9b9b"/></linearGradient><linearGradient id="m" x1=".078%" x2="100%" y1="50.034%" y2="50.034%"><stop offset="0%" stop-color="#6b6b6b"/><stop offset="11%" stop-color="#767676"/><stop offset="30%" stop-color="#959595"/><stop offset="41%" stop-color="#aaa"/><stop offset="56%" stop-color="#ccc"/><stop offset="71%" stop-color="#eaeaea"/><stop offset="80%" stop-color="#f6f6f6"/><stop offset="83%" stop-color="#ededed"/><stop offset="87%" stop-color="#d4d4d4"/><stop offset="92%" stop-color="#ababab"/><stop offset="98%" stop-color="#737373"/><stop offset="99%" stop-color="#666"/></linearGradient><linearGradient id="n" x1="0%" x2="100%" y1="49.913%" y2="49.913%"><stop offset="0%" stop-color="#6b6b6b"/><stop offset="11%" stop-color="#767676"/><stop offset="30%" stop-color="#959595"/><stop offset="41%" stop-color="#aaa"/><stop offset="56%" stop-color="#ccc"/><stop offset="71%" stop-color="#eaeaea"/><stop offset="80%" stop-color="#f6f6f6"/><stop offset="83%" stop-color="#ededed"/><stop offset="87%" stop-color="#d4d4d4"/><stop offset="92%" stop-color="#ababab"/><stop offset="98%" stop-color="#737373"/><stop offset="99%" stop-color="#666"/></linearGradient><linearGradient id="o" x1="0%" x2="100%" y1="50%" y2="50%"><stop offset="0%" stop-color="#6b6b6b"/><stop offset="11%" stop-color="#767676"/><stop offset="30%" stop-color="#959595"/><stop offset="41%" stop-color="#aaa"/><stop offset="56%" stop-color="#ccc"/><stop offset="71%" stop-color="#eaeaea"/><stop offset="80%" stop-color="#f6f6f6"/><stop offset="83%" stop-color="#ededed"/><stop offset="87%" stop-color="#d4d4d4"/><stop offset="92%" stop-color="#ababab"/><stop offset="98%" stop-color="#737373"/><stop offset="99%" stop-color="#666"/></linearGradient></defs><g fill="none" fill-rule="evenodd" transform="translate(.09 .8)"><path fill="url(#a)" fill-rule="nonzero" d="M22.151 49.52h26.7v27.87h-26.7z"/><path fill="url(#b)" fill-rule="nonzero" d="M1.791 37.72h32.87v43.35H1.791z"/><path fill="url(#c)" fill-rule="nonzero" d="M32.3 129.49c-.005 5.403-4.386 9.78-9.79 9.78h-8.87c-5.4 0-9.78-4.379-9.78-9.78V81.07H32.3z"/><path fill="url(#d)" fill-rule="nonzero" d="M77.59 130.32c0 5.407-4.383 9.79-9.79 9.79h-8.87c-5.402-.006-9.78-4.387-9.78-9.79V81.9h28.44z"/><path fill="url(#e)" fill-rule="nonzero" d="M4.791 29.11h26.7v6.9h-26.7z"/><path fill="url(#f)" fill-rule="nonzero" d="M1.791 33.48h32.87v6.9H1.791z"/><path fill="url(#g)" fill-rule="nonzero" d="M50.181 41.19h26.5v5.73h-26.5z"/><path fill="url(#h)" fill-rule="nonzero" d="M33.46 29.11H2.54V5.69S3.67 0 17.69 0c15.25 0 15.77 5.69 15.77 5.69z"/><circle cx="20.591" cy="54.06" r="18.8" fill="#fff" fill-rule="nonzero"/><path fill="#eaeaea" fill-rule="nonzero" d="M1.79 54.06a18.77 18.77 0 0 0 8.22 15.53c.924.14 1.857.213 2.79.22 11.217-.104 20.23-9.274 20.14-20.49 0-4.304-1.346-8.5-3.85-12a18.79 18.79 0 0 0-27.3 16.74"/><path fill="#7f7f7f" fill-rule="nonzero" d="M20.59 33.48a20.58 20.58 0 1 0 20.57 20.58 20.57 20.57 0 0 0-20.57-20.58m0 39.37a18.8 18.8 0 1 1 18.8-18.79 18.79 18.79 0 0 1-18.8 18.79"/><circle cx="20.591" cy="54.06" r="18.05" fill="#c1c1c1" fill-rule="nonzero" opacity=".51"/><path fill="#7f7f7f" fill-rule="nonzero" d="m25.88 59.23 1.47-2.45a.78.78 0 0 0-.26-1.08h-.18a.6.6 0 0 0-.19 0 13.6 13.6 0 0 1-3.78-1.33C19.67 52.39 7.01 44.06 7.01 44.06s11.9 9.2 15.28 12.14a15.2 15.2 0 0 1 2.21 2.94.8.8 0 0 0 .12.19.78.78 0 0 0 1.26-.1"/><circle cx="21.221" cy="54.29" r="1.62" fill="#7f7f7f" fill-rule="nonzero"/><path stroke="#7f7f7f" stroke-width=".25" d="m28.671 39.13-1.33 2.5m-14.28-2.5 1.33 2.5m-10.35 10.2 2.8.4m31.03-.48-2.81.4"/><circle cx="21.221" cy="54.29" r="1" fill="#dedede" fill-rule="nonzero"/><path fill="#dbdbdb" fill-rule="nonzero" d="M4.341 6.09h2.14v20.06h-2.14zm6.14 0h2.14v20.06h-2.14zm6.15 0h2.14v20.06h-2.14zm6.14 0h2.14v20.06h-2.14zm6.14 0h2.14v20.06h-2.14z"/><path fill="url(#i)" fill-rule="nonzero" d="M11.641 139.06h12.9v7.04h-12.9z"/><path fill="url(#j)" fill-rule="nonzero" d="M56.921 139.8h12.9v5.17h-12.9z"/><path fill="url(#k)" fill-rule="nonzero" d="M12.831 146.11h10.64v1.01h-10.64z"/><path fill="url(#l)" fill-rule="nonzero" d="M12.831 147.11h10.64v2.64h-10.64z"/><path fill="url(#m)" fill-rule="nonzero" d="M58.3 22.42h10.22a1.29 1.29 0 0 1 1.29 1.29v13.54h-12.8V23.71c0-.712.578-1.29 1.29-1.29"/><path fill="url(#n)" fill-rule="nonzero" d="M47.161 36.93h32.41v5.73h-32.41z"/><path fill="url(#o)" fill-rule="nonzero" d="M47.161 46.92h32.41V81.9h-32.41z"/></g></svg>