<svg xmlns="http://www.w3.org/2000/svg" viewBox="0 0 151 134"><title>Oily water separation and recycling system（油水分离回收系统）</title><defs><linearGradient id="a" x1="0%" x2="100%" y1="50%" y2="50%"><stop offset="0%" stop-color="#6b6b6b"/><stop offset="11%" stop-color="#767676"/><stop offset="30%" stop-color="#959595"/><stop offset="41%" stop-color="#aaa"/><stop offset="56%" stop-color="#ccc"/><stop offset="71%" stop-color="#eaeaea"/><stop offset="80%" stop-color="#f6f6f6"/><stop offset="83%" stop-color="#ededed"/><stop offset="87%" stop-color="#d4d4d4"/><stop offset="92%" stop-color="#ababab"/><stop offset="98%" stop-color="#737373"/><stop offset="99%" stop-color="#666"/></linearGradient><linearGradient id="b" x1="0%" x2="100%" y1="49.978%" y2="49.978%"><stop offset="0%" stop-color="#e2e2e2"/><stop offset="3%" stop-color="#d0d0d0"/><stop offset="6%" stop-color="#bcbcbc"/><stop offset="9%" stop-color="#b5b5b5"/><stop offset="49%" stop-color="#f6f6f6"/><stop offset="63%" stop-color="#f3f3f3"/><stop offset="73%" stop-color="#eaeaea"/><stop offset="82%" stop-color="#dbdbdb"/><stop offset="90%" stop-color="#c6c6c6"/><stop offset="97%" stop-color="#aaa"/><stop offset="100%" stop-color="#9b9b9b"/></linearGradient><linearGradient id="c" x1="50%" x2="50%" y1="100%" y2="0%"><stop offset="0%" stop-color="#e2e2e2"/><stop offset="3%" stop-color="#d0d0d0"/><stop offset="6%" stop-color="#bcbcbc"/><stop offset="9%" stop-color="#b5b5b5"/><stop offset="49%" stop-color="#f6f6f6"/><stop offset="63%" stop-color="#f3f3f3"/><stop offset="73%" stop-color="#eaeaea"/><stop offset="82%" stop-color="#dbdbdb"/><stop offset="90%" stop-color="#c6c6c6"/><stop offset="97%" stop-color="#aaa"/><stop offset="100%" stop-color="#9b9b9b"/></linearGradient><linearGradient id="d" x1="0%" x2="100%" y1="50%" y2="50%"><stop offset="0%" stop-color="#6b6b6b"/><stop offset="11%" stop-color="#767676"/><stop offset="30%" stop-color="#959595"/><stop offset="41%" stop-color="#aaa"/><stop offset="56%" stop-color="#ccc"/><stop offset="71%" stop-color="#eaeaea"/><stop offset="80%" stop-color="#f6f6f6"/><stop offset="83%" stop-color="#ededed"/><stop offset="87%" stop-color="#d4d4d4"/><stop offset="92%" stop-color="#ababab"/><stop offset="98%" stop-color="#737373"/><stop offset="99%" stop-color="#666"/></linearGradient><linearGradient id="e" x1="0%" x2="99.874%" y1="50%" y2="50%"><stop offset="0%" stop-color="#e2e2e2"/><stop offset="3%" stop-color="#d0d0d0"/><stop offset="6%" stop-color="#bcbcbc"/><stop offset="9%" stop-color="#b5b5b5"/><stop offset="49%" stop-color="#f6f6f6"/><stop offset="63%" stop-color="#f3f3f3"/><stop offset="73%" stop-color="#eaeaea"/><stop offset="82%" stop-color="#dbdbdb"/><stop offset="90%" stop-color="#c6c6c6"/><stop offset="97%" stop-color="#aaa"/><stop offset="100%" stop-color="#9b9b9b"/></linearGradient><linearGradient id="f" x1="0%" x2="100%" y1="50%" y2="50%"><stop offset="0%" stop-color="#e2e2e2"/><stop offset="3%" stop-color="#d0d0d0"/><stop offset="6%" stop-color="#bcbcbc"/><stop offset="9%" stop-color="#b5b5b5"/><stop offset="49%" stop-color="#f6f6f6"/><stop offset="63%" stop-color="#f3f3f3"/><stop offset="73%" stop-color="#eaeaea"/><stop offset="82%" stop-color="#dbdbdb"/><stop offset="90%" stop-color="#c6c6c6"/><stop offset="97%" stop-color="#aaa"/><stop offset="100%" stop-color="#9b9b9b"/></linearGradient><linearGradient id="g" x1="0%" x2="99.956%" y1="50%" y2="50%"><stop offset="0%" stop-color="#e2e2e2"/><stop offset="3%" stop-color="#d0d0d0"/><stop offset="6%" stop-color="#bcbcbc"/><stop offset="9%" stop-color="#b5b5b5"/><stop offset="49%" stop-color="#f6f6f6"/><stop offset="63%" stop-color="#f3f3f3"/><stop offset="73%" stop-color="#eaeaea"/><stop offset="82%" stop-color="#dbdbdb"/><stop offset="90%" stop-color="#c6c6c6"/><stop offset="97%" stop-color="#aaa"/><stop offset="100%" stop-color="#9b9b9b"/></linearGradient><linearGradient id="h" x1="0%" x2="100%" y1="49.989%" y2="49.989%"><stop offset="0%" stop-color="#e2e2e2"/><stop offset="3%" stop-color="#d0d0d0"/><stop offset="6%" stop-color="#bcbcbc"/><stop offset="9%" stop-color="#b5b5b5"/><stop offset="49%" stop-color="#f6f6f6"/><stop offset="63%" stop-color="#f3f3f3"/><stop offset="73%" stop-color="#eaeaea"/><stop offset="82%" stop-color="#dbdbdb"/><stop offset="90%" stop-color="#c6c6c6"/><stop offset="97%" stop-color="#aaa"/><stop offset="100%" stop-color="#9b9b9b"/></linearGradient><linearGradient id="i" x1="0%" x2="100%" y1="49.468%" y2="49.468%"><stop offset="0%" stop-color="#6b6b6b"/><stop offset="11%" stop-color="#767676"/><stop offset="30%" stop-color="#959595"/><stop offset="41%" stop-color="#aaa"/><stop offset="56%" stop-color="#ccc"/><stop offset="71%" stop-color="#eaeaea"/><stop offset="80%" stop-color="#f6f6f6"/><stop offset="83%" stop-color="#ededed"/><stop offset="87%" stop-color="#d4d4d4"/><stop offset="92%" stop-color="#ababab"/><stop offset="98%" stop-color="#737373"/><stop offset="99%" stop-color="#666"/></linearGradient><linearGradient id="j" x1="0%" x2="100%" y1="50%" y2="50%"><stop offset="0%" stop-color="#6b6b6b"/><stop offset="11%" stop-color="#767676"/><stop offset="30%" stop-color="#959595"/><stop offset="41%" stop-color="#aaa"/><stop offset="56%" stop-color="#ccc"/><stop offset="71%" stop-color="#eaeaea"/><stop offset="80%" stop-color="#f6f6f6"/><stop offset="83%" stop-color="#ededed"/><stop offset="87%" stop-color="#d4d4d4"/><stop offset="92%" stop-color="#ababab"/><stop offset="98%" stop-color="#737373"/><stop offset="99%" stop-color="#666"/></linearGradient><linearGradient id="k" x1="0%" x2="100.094%" y1="50%" y2="50%"><stop offset="0%" stop-color="#e2e2e2"/><stop offset="3%" stop-color="#d0d0d0"/><stop offset="6%" stop-color="#bcbcbc"/><stop offset="9%" stop-color="#b5b5b5"/><stop offset="49%" stop-color="#f6f6f6"/><stop offset="63%" stop-color="#f3f3f3"/><stop offset="73%" stop-color="#eaeaea"/><stop offset="82%" stop-color="#dbdbdb"/><stop offset="90%" stop-color="#c6c6c6"/><stop offset="97%" stop-color="#aaa"/><stop offset="100%" stop-color="#9b9b9b"/></linearGradient><linearGradient id="l" x1="50.279%" x2="50.279%" y1="100%" y2="0%"><stop offset="0%" stop-color="#e2e2e2"/><stop offset="3%" stop-color="#d0d0d0"/><stop offset="6%" stop-color="#bcbcbc"/><stop offset="9%" stop-color="#b5b5b5"/><stop offset="49%" stop-color="#f6f6f6"/><stop offset="63%" stop-color="#f3f3f3"/><stop offset="73%" stop-color="#eaeaea"/><stop offset="82%" stop-color="#dbdbdb"/><stop offset="90%" stop-color="#c6c6c6"/><stop offset="97%" stop-color="#aaa"/><stop offset="100%" stop-color="#9b9b9b"/></linearGradient><linearGradient id="m" x1="50.34%" x2="50.34%" y1="100%" y2="0%"><stop offset="0%" stop-color="#e2e2e2"/><stop offset="3%" stop-color="#d0d0d0"/><stop offset="6%" stop-color="#bcbcbc"/><stop offset="9%" stop-color="#b5b5b5"/><stop offset="49%" stop-color="#f6f6f6"/><stop offset="63%" stop-color="#f3f3f3"/><stop offset="73%" stop-color="#eaeaea"/><stop offset="82%" stop-color="#dbdbdb"/><stop offset="90%" stop-color="#c6c6c6"/><stop offset="97%" stop-color="#aaa"/><stop offset="100%" stop-color="#9b9b9b"/></linearGradient><linearGradient id="n" x1="0%" x2="100%" y1="50%" y2="50%"><stop offset="0%" stop-color="#e2e2e2"/><stop offset="3%" stop-color="#d0d0d0"/><stop offset="6%" stop-color="#bcbcbc"/><stop offset="9%" stop-color="#b5b5b5"/><stop offset="49%" stop-color="#f6f6f6"/><stop offset="63%" stop-color="#f3f3f3"/><stop offset="73%" stop-color="#eaeaea"/><stop offset="82%" stop-color="#dbdbdb"/><stop offset="90%" stop-color="#c6c6c6"/><stop offset="97%" stop-color="#aaa"/><stop offset="100%" stop-color="#9b9b9b"/></linearGradient><linearGradient id="o" x1="0%" x2="100%" y1="50%" y2="50%"><stop offset="0%" stop-color="#6b6b6b"/><stop offset="11%" stop-color="#767676"/><stop offset="30%" stop-color="#959595"/><stop offset="41%" stop-color="#aaa"/><stop offset="56%" stop-color="#ccc"/><stop offset="71%" stop-color="#eaeaea"/><stop offset="80%" stop-color="#f6f6f6"/><stop offset="83%" stop-color="#ededed"/><stop offset="87%" stop-color="#d4d4d4"/><stop offset="92%" stop-color="#ababab"/><stop offset="98%" stop-color="#737373"/><stop offset="99%" stop-color="#666"/></linearGradient><linearGradient id="p" x1="0%" x2="99.874%" y1="50%" y2="50%"><stop offset="0%" stop-color="#6b6b6b"/><stop offset="11%" stop-color="#767676"/><stop offset="30%" stop-color="#959595"/><stop offset="41%" stop-color="#aaa"/><stop offset="56%" stop-color="#ccc"/><stop offset="71%" stop-color="#eaeaea"/><stop offset="80%" stop-color="#f6f6f6"/><stop offset="83%" stop-color="#ededed"/><stop offset="87%" stop-color="#d4d4d4"/><stop offset="92%" stop-color="#ababab"/><stop offset="98%" stop-color="#737373"/><stop offset="99%" stop-color="#666"/></linearGradient><linearGradient id="q" x1="49.721%" x2="49.721%" y1="100%" y2="0%"><stop offset="0%" stop-color="#e2e2e2"/><stop offset="3%" stop-color="#d0d0d0"/><stop offset="6%" stop-color="#bcbcbc"/><stop offset="9%" stop-color="#b5b5b5"/><stop offset="49%" stop-color="#f6f6f6"/><stop offset="63%" stop-color="#f3f3f3"/><stop offset="73%" stop-color="#eaeaea"/><stop offset="82%" stop-color="#dbdbdb"/><stop offset="90%" stop-color="#c6c6c6"/><stop offset="97%" stop-color="#aaa"/><stop offset="100%" stop-color="#9b9b9b"/></linearGradient></defs><g fill="none" fill-rule="nonzero"><path fill="#4f4d4d" d="M.1.82h6.43v133.06H.1z"/><path fill="#4f4d4d" d="M145.33.81v5.26H4.96V.81z"/><path fill="#4f4d4d" d="M144.18.8h6.43v133.06h-6.43z"/><path fill="#4f4d4d" d="M146.9 119.95v5.26H6.53v-5.26z"/><path fill="url(#a)" d="M38.29 112.73s-2 5.72-11.4 5.72c-9.64 0-11.4-5.72-11.4-5.72V44.55s.75-11.09 11.35-11.1c10.87 0 11.45 11.1 11.45 11.1z" transform="translate(.1 .8)"/><path fill="url(#b)" d="M23.76 5.28h5.88v23.21h-5.88z" transform="translate(.1 .8)"/><path fill="url(#c)" d="M19.64 32.11h14.4v2.69h-14.4z" transform="translate(.1 .8)"/><path fill="url(#d)" d="M22.74 29.23h7.92v1.88h-7.92z" transform="translate(.1 .8)"/><path fill="url(#e)" d="M22.79 28.48h7.92v1.88h-7.92z" transform="translate(.1 .8)"/><path fill="url(#f)" d="M15.58 108.83h22.71v1.88H15.58z" transform="translate(.1 .8)"/><path fill="url(#g)" d="M15.49 42.41H38.2v1.88H15.49z" transform="translate(.1 .8)"/><path fill="url(#h)" d="M15.58 53.68h22.71v45.35H15.58z" transform="translate(.1 .8)"/><path fill="url(#i)" d="M15.58 56.02h22.71v1.88H15.58z" transform="translate(.1 .8)"/><path fill="url(#j)" d="M15.58 94.67h22.71v1.88H15.58z" transform="translate(.1 .8)"/><path fill="url(#k)" d="M21.21 31.11h10.63v4.12H21.21z" transform="translate(.1 .8)"/><path fill="url(#l)" d="M17.85 31.11h1.79v4.3h-1.79z" transform="translate(.1 .8)"/><path fill="url(#m)" d="M34.04 31.02h1.47v4.3h-1.47z" transform="translate(.1 .8)"/><path fill="url(#n)" d="M16.59 112.54h2.67v6.96h-2.67z" transform="translate(.1 .8)"/><path fill="url(#n)" d="M34.42 112.54h2.67v6.96h-2.67z" transform="translate(.1 .8)"/><path fill="url(#o)" d="M69.7 112.73s-2 5.72-11.4 5.72c-9.64 0-11.4-5.72-11.4-5.72V44.55s.75-11.09 11.35-11.1c10.87 0 11.45 11.1 11.45 11.1z" transform="translate(.1 .8)"/><path fill="url(#b)" d="M55.17 5.28h5.88v23.21h-5.88z" transform="translate(.1 .8)"/><path fill="url(#c)" d="M51.05 32.11h14.4v2.69h-14.4z" transform="translate(.1 .8)"/><path fill="url(#d)" d="M54.15 29.23h7.92v1.88h-7.92z" transform="translate(.1 .8)"/><path fill="url(#e)" d="M54.2 28.48h7.92v1.88H54.2z" transform="translate(.1 .8)"/><path fill="url(#f)" d="M46.99 108.83H69.7v1.88H46.99z" transform="translate(.1 .8)"/><path fill="url(#g)" d="M46.9 42.41h22.71v1.88H46.9z" transform="translate(.1 .8)"/><path fill="url(#h)" d="M46.99 53.68H69.7v45.35H46.99z" transform="translate(.1 .8)"/><path fill="url(#i)" d="M46.99 56.02H69.7v1.88H46.99z" transform="translate(.1 .8)"/><path fill="url(#j)" d="M46.99 94.67H69.7v1.88H46.99z" transform="translate(.1 .8)"/><path fill="url(#k)" d="M52.62 31.11h10.63v4.12H52.62z" transform="translate(.1 .8)"/><path fill="url(#l)" d="M49.26 31.11h1.79v4.3h-1.79z" transform="translate(.1 .8)"/><path fill="url(#m)" d="M65.45 31.02h1.47v4.3h-1.47z" transform="translate(.1 .8)"/><path fill="url(#n)" d="M48 112.54h2.67v6.96H48z" transform="translate(.1 .8)"/><path fill="url(#n)" d="M65.83 112.54h2.67v6.96h-2.67z" transform="translate(.1 .8)"/><path fill="url(#a)" d="M101.11 112.73s-2 5.72-11.4 5.72c-9.64 0-11.4-5.72-11.4-5.72V44.55s.74-11.09 11.35-11.1c10.87 0 11.45 11.1 11.45 11.1z" transform="translate(.1 .8)"/><path fill="url(#b)" d="M86.58 5.28h5.88v23.21h-5.88z" transform="translate(.1 .8)"/><path fill="url(#c)" d="M82.46 32.11h14.4v2.69h-14.4z" transform="translate(.1 .8)"/><path fill="url(#d)" d="M85.56 29.23h7.92v1.88h-7.92z" transform="translate(.1 .8)"/><path fill="url(#e)" d="M85.61 28.48h7.92v1.88h-7.92z" transform="translate(.1 .8)"/><path fill="url(#f)" d="M78.4 108.83h22.71v1.88H78.4z" transform="translate(.1 .8)"/><path fill="url(#g)" d="M78.31 42.41h22.71v1.88H78.31z" transform="translate(.1 .8)"/><path fill="url(#h)" d="M78.4 53.68h22.71v45.35H78.4z" transform="translate(.1 .8)"/><path fill="url(#i)" d="M78.4 56.02h22.71v1.88H78.4z" transform="translate(.1 .8)"/><path fill="url(#j)" d="M78.4 94.67h22.71v1.88H78.4z" transform="translate(.1 .8)"/><path fill="url(#k)" d="M84.03 31.11h10.63v4.12H84.03z" transform="translate(.1 .8)"/><path fill="url(#l)" d="M80.67 31.11h1.79v4.3h-1.79z" transform="translate(.1 .8)"/><path fill="url(#m)" d="M96.86 31.02h1.47v4.3h-1.47z" transform="translate(.1 .8)"/><path fill="url(#n)" d="M79.41 112.54h2.67v6.96h-2.67z" transform="translate(.1 .8)"/><path fill="url(#n)" d="M97.24 112.54h2.67v6.96h-2.67z" transform="translate(.1 .8)"/><path fill="url(#a)" d="M132.52 112.73s-2 5.72-11.4 5.72c-9.64 0-11.4-5.72-11.4-5.72V44.55s.74-11.09 11.35-11.1c10.87 0 11.45 11.1 11.45 11.1z" transform="translate(.1 .8)"/><path fill="url(#b)" d="M117.99 5.28h5.88v23.21h-5.88z" transform="translate(.1 .8)"/><path fill="url(#c)" d="M113.87 32.11h14.4v2.69h-14.4z" transform="translate(.1 .8)"/><path fill="url(#p)" d="M116.97 29.23h7.92v1.88h-7.92z" transform="translate(.1 .8)"/><path fill="url(#e)" d="M117.02 28.48h7.92v1.88h-7.92z" transform="translate(.1 .8)"/><path fill="url(#f)" d="M109.81 108.83h22.71v1.88h-22.71z" transform="translate(.1 .8)"/><path fill="url(#g)" d="M109.72 42.41h22.71v1.88h-22.71z" transform="translate(.1 .8)"/><path fill="url(#h)" d="M109.81 53.68h22.71v45.35h-22.71z" transform="translate(.1 .8)"/><path fill="url(#i)" d="M109.81 56.02h22.71v1.88h-22.71z" transform="translate(.1 .8)"/><path fill="url(#j)" d="M109.81 94.67h22.71v1.88h-22.71z" transform="translate(.1 .8)"/><path fill="url(#k)" d="M115.44 31.11h10.63v4.12h-10.63z" transform="translate(.1 .8)"/><path fill="url(#q)" d="M112.08 31.11h1.79v4.3h-1.79z" transform="translate(.1 .8)"/><path fill="url(#m)" d="M128.27 31.02h1.47v4.3h-1.47z" transform="translate(.1 .8)"/><path fill="url(#n)" d="M110.82 112.54h2.67v6.96h-2.67z" transform="translate(.1 .8)"/><path fill="url(#n)" d="M128.65 112.54h2.67v6.96h-2.67z" transform="translate(.1 .8)"/></g></svg>