<svg xmlns="http://www.w3.org/2000/svg" viewBox="0 0 70 151"><title>Oxygen generator（氧气发生器）</title><defs><linearGradient id="a" x1="0%" x2="100%" y1="50.047%" y2="50.047%"><stop offset="0%" stop-color="#6b6b6b"/><stop offset="11%" stop-color="#767676"/><stop offset="30%" stop-color="#959595"/><stop offset="41%" stop-color="#aaa"/><stop offset="56%" stop-color="#ccc"/><stop offset="71%" stop-color="#eaeaea"/><stop offset="80%" stop-color="#f6f6f6"/><stop offset="83%" stop-color="#ededed"/><stop offset="87%" stop-color="#d4d4d4"/><stop offset="92%" stop-color="#ababab"/><stop offset="98%" stop-color="#737373"/><stop offset="99%" stop-color="#666"/></linearGradient><linearGradient id="b" x1="50%" x2="50%" y1="100.093%" y2="0%"><stop offset="0%" stop-color="#6b6b6b"/><stop offset="11%" stop-color="#767676"/><stop offset="30%" stop-color="#959595"/><stop offset="41%" stop-color="#aaa"/><stop offset="56%" stop-color="#ccc"/><stop offset="71%" stop-color="#eaeaea"/><stop offset="80%" stop-color="#f6f6f6"/><stop offset="83%" stop-color="#ededed"/><stop offset="87%" stop-color="#d4d4d4"/><stop offset="92%" stop-color="#ababab"/><stop offset="98%" stop-color="#737373"/><stop offset="99%" stop-color="#666"/></linearGradient><linearGradient id="c" x1="50%" x2="50%" y1="100%" y2="0%"><stop offset="0%" stop-color="#6b6b6b"/><stop offset="11%" stop-color="#767676"/><stop offset="30%" stop-color="#959595"/><stop offset="41%" stop-color="#aaa"/><stop offset="56%" stop-color="#ccc"/><stop offset="71%" stop-color="#eaeaea"/><stop offset="80%" stop-color="#f6f6f6"/><stop offset="83%" stop-color="#ededed"/><stop offset="87%" stop-color="#d4d4d4"/><stop offset="92%" stop-color="#ababab"/><stop offset="98%" stop-color="#737373"/><stop offset="99%" stop-color="#666"/></linearGradient></defs><g fill="none" fill-rule="nonzero" transform="translate(.1 .8)"><rect width="8.23" height="10.75" x="57.23" y="134.17" fill="url(#a)" rx=".4"/><rect width="8.23" height="10.75" x="4.82" y="134.01" fill="url(#a)" rx=".4"/><path fill="#a3a4a4" d="M.11 27.76h68.81v107.85H.11z"/><path fill="#dbdbdb" d="M0 2.99h68.81v24.58H0zm7.67 90.18h53.7v35.56H7.67zm5.94-60.81h43.4v24.48h-43.4z"/><path fill="#a3a4a4" d="M17.62 38.33H43.7v12.86H17.62zM9.46 94.41h49.97v32.79H9.46z"/><path fill="#514f4f" d="M46.9 34.29h6.63v3.64H46.9zM12 96.54h11.05v3.06H12zm0 5.11h11.05v3.06H12zm0 5.12h11.05v3.06H12zm0 5.11h11.05v3.06H12zm0 5.12h11.05v3.06H12zm0 5.11h11.05v3.06H12zm17.41-25.57h11.05v3.06H29.41zm0 5.11h11.05v3.06H29.41zm0 5.12h11.05v3.06H29.41zm0 5.11h11.05v3.06H29.41zm0 5.12h11.05v3.06H29.41zm0 5.11h11.05v3.06H29.41zm17.41-25.57h11.05v3.06H46.82zm0 5.11h11.05v3.06H46.82zm0 5.12h11.05v3.06H46.82zm0 5.11h11.05v3.06H46.82zm0 5.12h11.05v3.06H46.82zm0 5.11h11.05v3.06H46.82zm.08-82.06h6.63v3.64H46.9zm0 5.76h6.63v3.64H46.9zm0 5.76h6.63v3.64H46.9z"/><path fill="#a3a4a4" d="M.11 0h68.7v2.99H.11z"/><rect width="6.46" height="10.75" x="5.88" y="138.01" fill="url(#b)" rx=".4"/><rect width="6.46" height="12.86" x="1.21" y="136.98" fill="url(#c)" rx=".4"/><rect width="6.46" height="12.86" x="10.25" y="136.98" fill="url(#c)" rx=".4"/><rect width="6.46" height="10.75" x="58.29" y="138.17" fill="url(#b)" rx=".4"/><rect width="6.46" height="12.86" x="53.62" y="137.14" fill="url(#c)" rx=".4"/><rect width="6.46" height="12.86" x="62.66" y="137.14" fill="url(#c)" rx=".4"/></g></svg>