<svg xmlns="http://www.w3.org/2000/svg" viewBox="0 0 151 103"><title>Pool（水池2）</title><g fill="none" fill-rule="evenodd"><g fill-rule="nonzero"><path fill="#fff" d="M150.1 55.44 75.35 98.88.12 55.44 74.87 12z"/><path fill="#7a8799" d="m150.1 55.44-.02 3.55-74.75 43.44.02-3.55z"/><path fill="#c3ccd9" d="m75.35 98.88-.02 3.55L.1 58.99l.02-3.55z"/></g><g fill-rule="nonzero"><path fill="#dcdcdc" d="m135.29 42.57-24.33 14.15-67.97-39.25L67.32 3.33z"/><path fill="#8e4f4e" d="m135.29 42.57-.04 16.31-24.34 14.14.05-16.3z"/><path fill="#8e4f4e" d="m114.91 70.66-4 2.31v-1.02l4-2.31zm4-2.31-4 2.31v-1.02l4-2.31zm4-2.31-4 2.31v-1.02l4-2.31zm4-2.31-4 2.31v-1.02l4-2.31zm4-2.3-4 2.3v-1.02l4-2.31zm4.38-2.54-4.38 2.54V60.4l4.38-2.53z"/><path fill="#cc807e" d="m113.14 70.66-2.23 1.29v-1.02l2.23-1.29zm22.15-12.79-1.76 1.02v-1.01l1.76-1.03z"/><path fill="#8e4f4e" d="m117.14 68.36-4 2.3v-1.02l4-2.31z"/><path fill="#cc807e" d="m121.14 66.05-4 2.31v-1.03l4-2.31z"/><path fill="#8e4f4e" d="m125.14 63.74-4 2.31v-1.03l4-2.3z"/><path fill="#cc807e" d="m129.14 61.43-4 2.31v-1.02l4-2.31z"/><path fill="#8e4f4e" d="m133.53 58.89-4.39 2.54v-1.02l4.39-2.53z"/><path fill="#ffb5b3" d="m114.91 68.62-4 2.31v-1.02l4-2.31z"/><path fill="#cc807e" d="m118.91 66.31-4 2.31V67.6l4-2.31zm4-2.31-4 2.31v-1.02l4-2.31zm4-2.31-4 2.31v-1.02l4-2.31zm4-2.31-4 2.31v-1.02l4-2.31zm4.38-2.53-4.38 2.53v-1.02l4.38-2.53zm-22.15 11.77-2.23 1.29v-1.02l2.23-1.29z"/><path fill="#8e4f4e" d="m135.29 55.83-1.76 1.02v-1.02l1.76-1.02z"/><path fill="#cc807e" d="m117.14 66.32-4 2.3V67.6l4-2.3z"/><path fill="#8e4f4e" d="m121.14 64-4 2.32V65.3l4-2.31z"/><path fill="#ffb5b3" d="m125.14 61.7-4 2.3v-1.01l4-2.31z"/><path fill="#cc807e" d="m129.14 59.39-4 2.31v-1.02l4-2.31zm4.39-2.54-4.39 2.54v-1.02l4.39-2.54z"/><path fill="#ffb5b3" d="m114.91 66.58-4 2.31v-1.02l4-2.31z"/><path fill="#cc807e" d="m118.91 64.27-4 2.31v-1.02l4-2.31zm4-2.31-4 2.31v-1.02l4-2.31zm4-2.31-4 2.31v-1.02l4-2.31z"/><path fill="#8e4f4e" d="m130.91 57.34-4 2.31v-1.02l4-2.31z"/><path fill="#cc807e" d="m135.29 54.81-4.38 2.53v-1.02l4.38-2.53zm-22.15 11.77-2.23 1.29v-1.02l2.23-1.29z"/><path fill="#cc807e" d="m135.29 53.79-1.76 1.03v-1.03l1.76-1.02zm-18.15 10.48-4 2.31v-1.02l4-2.31zm4-2.31-4 2.31v-1.02l4-2.3z"/><path fill="#8e4f4e" d="m125.14 59.66-4 2.3v-1.01l4-2.31z"/><path fill="#cc807e" d="m129.14 57.35-4 2.31v-1.02l4-2.31zm4.39-2.53-4.39 2.53v-1.02l4.39-2.54zm-18.62 9.72-4 2.31v-1.02l4-2.31z"/><path fill="#ffb5b3" d="m118.91 62.23-4 2.31v-1.02l4-2.31z"/><path fill="#cc807e" d="m122.91 59.92-4 2.31v-1.02l4-2.31zm4-2.31-4 2.31V58.9l4-2.31zm4-2.31-4 2.31v-1.02l4-2.31z"/><path fill="#ffb5b3" d="m135.29 52.77-4.38 2.53v-1.02l4.38-2.53z"/><path fill="#8e4f4e" d="m113.14 64.54-2.23 1.29v-1.02l2.23-1.29z"/><path fill="#cc807e" d="m135.29 51.75-1.76 1.02v-1.02l1.76-1.02zm-18.15 10.48-4 2.31v-1.02l4-2.31zm4-2.3-4 2.3v-1.02l4-2.31zm4-2.32-4 2.32V58.9l4-2.3z"/><path fill="#ffb5b3" d="m129.14 55.31-4 2.3V56.6l4-2.31z"/><path fill="#cc807e" d="m133.53 52.77-4.39 2.54v-1.02l4.39-2.54zm-18.62 9.73-4 2.31v-1.02l4-2.31zm4-2.31-4 2.31v-1.02l4-2.31zm4-2.31-4 2.31v-1.02l4-2.31zm4-2.31-4 2.31v-1.02l4-2.31zm4-2.31-4 2.31v-1.02l4-2.31zm4.38-2.53-4.38 2.53v-1.02l4.38-2.53zM113.14 62.5l-2.23 1.29v-1.02l2.23-1.29z"/><path fill="#cc807e" d="m135.29 49.71-1.76 1.02v-1.02l1.76-1.02z"/><path fill="#8e4f4e" d="m117.14 60.19-4 2.31v-1.02l4-2.31z"/><path fill="#ffb5b3" d="m121.14 57.88-4 2.31v-1.02l4-2.31z"/><path fill="#8e4f4e" d="m125.14 55.57-4 2.31v-1.02l4-2.3z"/><path fill="#cc807e" d="m129.14 53.27-4 2.3v-1.01l4-2.31z"/><path fill="#8e4f4e" d="m133.53 50.73-4.39 2.54v-1.02l4.39-2.54z"/><path fill="#cc807e" d="m114.91 60.46-4 2.31v-1.02l4-2.31zm4-2.31-4 2.31v-1.02l4-2.31zm4-2.31-4 2.31v-1.02l4-2.31zm4-2.31-4 2.31v-1.02l4-2.31zm4-2.31-4 2.31v-1.02l4-2.31zm4.38-2.53-4.38 2.53V50.2l4.38-2.53zm-22.15 11.77-2.23 1.29v-1.02l2.23-1.29z"/><path fill="#8e4f4e" d="m135.29 47.67-1.76 1.02v-1.02l1.76-1.02z"/><path fill="#cc807e" d="m117.14 58.15-4 2.31v-1.02l4-2.31z"/><path fill="#8e4f4e" d="m121.14 55.84-4 2.31v-1.02l4-2.31z"/><path fill="#cc807e" d="m125.14 53.53-4 2.31v-1.02l4-2.31z"/><path fill="#ffb5b3" d="m129.14 51.22-4 2.31v-1.02l4-2.3z"/><path fill="#cc807e" d="m133.53 48.69-4.39 2.53v-1.01l4.39-2.54zm-18.62 9.73-4 2.31v-1.02l4-2.31zm4-2.31-4 2.31V57.4l4-2.31zm4-2.31-4 2.31v-1.02l4-2.31zm4-2.31-4 2.31v-1.02l4-2.31z"/><path fill="#8e4f4e" d="m130.91 49.18-4 2.31v-1.02l4-2.31z"/><path fill="#cc807e" d="m135.29 46.65-4.38 2.53v-1.02l4.38-2.53z"/><path fill="#ffb5b3" d="m113.14 58.42-2.23 1.29v-1.02l2.23-1.29zm22.15-12.79-1.76 1.02v-1.02l1.76-1.02z"/><path fill="#cc807e" d="m117.14 56.11-4 2.31V57.4l4-2.31zm4-2.31-4 2.31v-1.02l4-2.31zm4-2.31-4 2.31v-1.02l4-2.31zm4-2.31-4 2.31v-1.02l4-2.3zm4.39-2.53-4.39 2.53v-1.01l4.39-2.54z"/><path fill="#cc807e" d="m114.91 56.38-4 2.31v-1.02l4-2.31zm4-2.31-4 2.31v-1.02l4-2.31zm4-2.31-4 2.31v-1.02l4-2.31z"/><path fill="#ffb5b3" d="m126.91 49.45-4 2.31v-1.02l4-2.31z"/><path fill="#cc807e" d="m130.91 47.14-4 2.31v-1.02l4-2.31zm4.38-2.53-4.38 2.53v-1.02l4.38-2.53zm-22.15 11.77-2.23 1.29v-1.02l2.23-1.29z"/><path fill="#cc807e" d="m135.29 43.59-1.76 1.02v-1.02l1.76-1.02zm-18.15 10.48-4 2.31v-1.02l4-2.31z"/><path fill="#ffb5b3" d="m121.14 51.76-4 2.31v-1.02l4-2.31z"/><path fill="#cc807e" d="m125.14 49.45-4 2.31v-1.02l4-2.31zm4-2.31-4 2.31v-1.02l4-2.31z"/><path fill="#ffb5b3" d="m133.53 44.61-4.39 2.53v-1.02l4.39-2.53z"/><path fill="#8e4f4e" d="m46.94 36.08-4-2.31v-1.02l4 2.31zm4 2.31-4-2.31v-1.02l4 2.31zm4 2.31-4-2.31v-1.02l4 2.31zm4 2.31-4-2.31v-1.02l4 2.31zm4 2.31-4-2.31v-1.02l4 2.31zm4.38 2.53-4.38-2.53V44.3l4.38 2.53z"/><path fill="#cc807e" d="m45.17 34.04-2.23-1.29v-1.02l2.23 1.29zm22.15 12.79-1.77-1.02v-1.02l1.77 1.02z"/><path fill="#8e4f4e" d="m49.17 36.35-4-2.31v-1.02l4 2.31z"/><path fill="#cc807e" d="m53.17 38.66-4-2.31v-1.02l4 2.31z"/><path fill="#8e4f4e" d="m57.17 40.97-4-2.31v-1.02l4 2.31z"/><path fill="#cc807e" d="m61.17 43.28-4-2.31v-1.02l4 2.31z"/><path fill="#8e4f4e" d="m65.55 45.81-4.38-2.53v-1.02l4.38 2.53z"/><path fill="#ffb5b3" d="m46.94 34.04-4-2.31v-1.02l4 2.31z"/><path fill="#cc807e" d="m50.94 36.35-4-2.31v-1.02l4 2.31zm4 2.31-4-2.31v-1.02l4 2.31zm4 2.31-4-2.31v-1.02l4 2.31zm4 2.31-4-2.31v-1.02l4 2.31zm4.38 2.53-4.38-2.53v-1.02l4.38 2.53zM45.17 32l-2.23-1.29v-1.02l2.23 1.29z"/><path fill="#8e4f4e" d="m67.32 44.79-1.77-1.02v-1.02l1.77 1.02z"/><path fill="#cc807e" d="m49.17 34.31-4-2.31v-1.02l4 2.31z"/><path fill="#8e4f4e" d="m53.17 36.62-4-2.31v-1.02l4 2.31z"/><path fill="#ffb5b3" d="m57.17 38.93-4-2.31V35.6l4 2.31z"/><path fill="#cc807e" d="m61.17 41.24-4-2.31v-1.02l4 2.31zm4.38 2.53-4.38-2.53v-1.02l4.38 2.53z"/><path fill="#ffb5b3" d="m46.94 32-4-2.31v-1.02l4 2.31z"/><path fill="#cc807e" d="m50.94 34.31-4-2.31v-1.02l4 2.31zm4 2.31-4-2.31v-1.02l4 2.31zm4 2.31-4-2.31V35.6l4 2.31z"/><path fill="#8e4f4e" d="m62.94 41.24-4-2.31v-1.02l4 2.31z"/><path fill="#cc807e" d="m67.32 43.77-4.38-2.53v-1.02l4.38 2.53zM45.17 29.96l-2.23-1.29v-1.02l2.23 1.29z"/><path fill="#cc807e" d="m67.32 42.75-1.77-1.02v-1.02l1.77 1.02zM49.17 32.27l-4-2.31v-1.02l4 2.31zm4 2.31-4-2.31v-1.02l4 2.31z"/><path fill="#8e4f4e" d="m57.17 36.89-4-2.31v-1.02l4 2.31z"/><path fill="#cc807e" d="m61.17 39.2-4-2.31v-1.02l4 2.31zm4.38 2.53-4.38-2.53v-1.02l4.38 2.53zM46.94 29.96l-4-2.31v-1.02l4 2.31z"/><path fill="#ffb5b3" d="m50.94 32.27-4-2.31v-1.02l4 2.31z"/><path fill="#cc807e" d="m54.94 34.58-4-2.31v-1.02l4 2.31zm4 2.31-4-2.31v-1.02l4 2.31zm4 2.31-4-2.31v-1.02l4 2.31z"/><path fill="#ffb5b3" d="m67.32 41.73-4.38-2.53v-1.02l4.38 2.53z"/><path fill="#8e4f4e" d="m45.17 27.92-2.23-1.29v-1.02l2.23 1.29z"/><path fill="#cc807e" d="m67.32 40.71-1.77-1.02v-1.02l1.77 1.02zM49.17 30.23l-4-2.31V26.9l4 2.31zm4 2.31-4-2.31v-1.02l4 2.31zm4 2.31-4-2.31v-1.02l4 2.31z"/><path fill="#ffb5b3" d="m61.17 37.16-4-2.31v-1.02l4 2.31z"/><path fill="#cc807e" d="m65.55 39.69-4.38-2.53v-1.02l4.38 2.53zM46.94 27.92l-4-2.31v-1.02l4 2.31zm4 2.31-4-2.31V26.9l4 2.31zm4 2.31-4-2.31v-1.02l4 2.31zm4 2.31-4-2.31v-1.02l4 2.31zm4 2.31-4-2.31v-1.02l4 2.31zm4.38 2.53-4.38-2.53v-1.02l4.38 2.53z"/><path fill="#cc807e" d="m45.17 25.88-2.23-1.29v-1.02l2.23 1.29zm22.15 12.79-1.77-1.02v-1.02l1.77 1.02z"/><path fill="#8e4f4e" d="m49.17 28.19-4-2.31v-1.02l4 2.31z"/><path fill="#ffb5b3" d="m53.17 30.5-4-2.31v-1.02l4 2.31z"/><path fill="#8e4f4e" d="m57.17 32.81-4-2.31v-1.02l4 2.31z"/><path fill="#cc807e" d="m61.17 35.11-4-2.3v-1.02l4 2.31z"/><path fill="#8e4f4e" d="m65.55 37.65-4.38-2.54V34.1l4.38 2.53z"/><path fill="#cc807e" d="m46.94 25.88-4-2.31v-1.02l4 2.31zm4 2.31-4-2.31v-1.02l4 2.31zm4 2.31-4-2.31v-1.02l4 2.31zm4 2.31-4-2.31v-1.02l4 2.31zm4 2.31-4-2.31v-1.02l4 2.31zm4.38 2.53-4.38-2.53V34.1l4.38 2.53z"/><path fill="#cc807e" d="m45.17 23.84-2.23-1.29v-1.02l2.23 1.29z"/><path fill="#8e4f4e" d="m67.32 36.63-1.77-1.02v-1.02l1.77 1.02z"/><path fill="#cc807e" d="m49.17 26.15-4-2.31v-1.02l4 2.31z"/><path fill="#8e4f4e" d="m53.17 28.46-4-2.31v-1.02l4 2.31z"/><path fill="#cc807e" d="m57.17 30.77-4-2.31v-1.02l4 2.31z"/><path fill="#ffb5b3" d="m61.17 33.07-4-2.3v-1.02l4 2.3z"/><path fill="#cc807e" d="m65.55 35.61-4.38-2.54v-1.02l4.38 2.54zM46.94 23.84l-4-2.31v-1.02l4 2.31zm4 2.31-4-2.31v-1.02l4 2.31zm4 2.31-4-2.31v-1.02l4 2.31zm4 2.31-4-2.31v-1.02l4 2.31z"/><path fill="#8e4f4e" d="m62.94 33.08-4-2.31v-1.02l4 2.31z"/><path fill="#cc807e" d="m67.32 35.61-4.38-2.53v-1.02l4.38 2.53z"/><path fill="#ffb5b3" d="m45.17 21.8-2.23-1.29v-1.02l2.23 1.29zm22.15 12.79-1.77-1.02v-1.02l1.77 1.02z"/><path fill="#cc807e" d="m49.17 24.11-4-2.31v-1.02l4 2.31zm4 2.31-4-2.31v-1.02l4 2.31zm4 2.31-4-2.31V25.4l4 2.31zm4 2.3-4-2.3v-1.02l4 2.3zm4.38 2.54-4.38-2.54v-1.02l4.38 2.54zM46.94 21.8l-4-2.31v-1.02l4 2.31zm4 2.31-4-2.31v-1.02l4 2.31zm4 2.31-4-2.31v-1.02l4 2.31z"/><path fill="#ffb5b3" d="m58.94 28.73-4-2.31V25.4l4 2.31z"/><path fill="#cc807e" d="m62.94 31.04-4-2.31v-1.02l4 2.31zm4.38 2.53-4.38-2.53v-1.02l4.38 2.53zM45.17 19.76l-2.23-1.29v-1.02l2.23 1.29z"/><path fill="#cc807e" d="m67.32 32.55-1.77-1.02v-1.02l1.77 1.02zM49.17 22.07l-4-2.31v-1.02l4 2.31z"/><path fill="#ffb5b3" d="m53.17 24.38-4-2.31v-1.02l4 2.31z"/><path fill="#cc807e" d="m57.17 26.69-4-2.31v-1.02l4 2.3zm4 2.31-4-2.31v-1.03l4 2.31z"/><path fill="#ffb5b3" d="M65.55 31.53 61.17 29v-1.03l4.38 2.54z"/><path fill="#8e4f4e" d="m71.32 50.16-4-2.31v-1.02l4 2.31zm4 2.31-4-2.31v-1.02l4 2.31zm4 2.31-4-2.31v-1.02l4 2.31zm4 2.31-4-2.31v-1.02l4 2.31zm4 2.31-4-2.31v-1.02l4 2.31zm4.39 2.53-4.39-2.53v-1.02l4.39 2.53z"/><path fill="#cc807e" d="m69.55 48.12-2.22-1.29v-1.02l2.22 1.29zm22.16 12.79-1.77-1.02v-1.02l1.77 1.02z"/><path fill="#8e4f4e" d="m73.55 50.43-4-2.31V47.1l4 2.31z"/><path fill="#cc807e" d="m77.55 52.74-4-2.31v-1.02l4 2.31z"/><path fill="#8e4f4e" d="m81.55 55.05-4-2.31v-1.02l4 2.31z"/><path fill="#cc807e" d="m85.55 57.35-4-2.3v-1.02l4 2.3z"/><path fill="#8e4f4e" d="m89.94 59.89-4.39-2.54v-1.02l4.39 2.54z"/><path fill="#ffb5b3" d="m71.32 48.12-4-2.31v-1.02l4 2.31z"/><path fill="#cc807e" d="m75.32 50.43-4-2.31V47.1l4 2.31zm4 2.31-4-2.31v-1.02l4 2.31zm4 2.31-4-2.31v-1.02l4 2.31zm4 2.31-4-2.31v-1.02l4 2.31zm4.39 2.53-4.39-2.53v-1.02l4.39 2.53zM69.55 46.08l-2.22-1.29v-1.02l2.22 1.29z"/><path fill="#8e4f4e" d="m91.71 58.87-1.77-1.02v-1.02l1.77 1.02z"/><path fill="#cc807e" d="m73.55 48.39-4-2.31v-1.02l4 2.31z"/><path fill="#8e4f4e" d="m77.55 50.7-4-2.31v-1.02l4 2.31z"/><path fill="#ffb5b3" d="m81.55 53.01-4-2.31v-1.02l4 2.31z"/><path fill="#cc807e" d="m85.55 55.32-4-2.31v-1.02l4 2.3zm4.39 2.53-4.39-2.53v-1.03l4.39 2.54z"/><path fill="#ffb5b3" d="m71.32 46.08-4-2.31v-1.02l4 2.31z"/><path fill="#cc807e" d="m75.32 48.39-4-2.31v-1.02l4 2.31zm4 2.31-4-2.31v-1.02l4 2.31zm4 2.31-4-2.31v-1.02l4 2.31z"/><path fill="#8e4f4e" d="m87.32 55.32-4-2.31v-1.02l4 2.31z"/><path fill="#cc807e" d="m91.71 57.85-4.39-2.53V54.3l4.39 2.53zM69.55 44.04l-2.22-1.29v-1.02l2.22 1.29z"/><path fill="#cc807e" d="m91.71 56.83-1.77-1.02v-1.02l1.77 1.02zM73.55 46.35l-4-2.31v-1.02l4 2.31zm4 2.31-4-2.31v-1.02l4 2.31z"/><path fill="#8e4f4e" d="m81.55 50.96-4-2.3v-1.02l4 2.31z"/><path fill="#cc807e" d="m85.55 53.28-4-2.32v-1.01l4 2.3zm4.39 2.53-4.39-2.53v-1.03l4.39 2.54zM71.32 44.04l-4-2.31v-1.02l4 2.31z"/><path fill="#ffb5b3" d="m75.32 46.35-4-2.31v-1.02l4 2.31z"/><path fill="#cc807e" d="m79.32 48.66-4-2.31v-1.02l4 2.31zm4 2.31-4-2.31v-1.02l4 2.31zm4 2.31-4-2.31v-1.02l4 2.31z"/><path fill="#ffb5b3" d="m91.71 55.81-4.39-2.53v-1.02l4.39 2.53z"/><path fill="#8e4f4e" d="m69.55 42-2.22-1.29v-1.02l2.22 1.29z"/><path fill="#cc807e" d="m91.71 54.79-1.77-1.02v-1.02l1.77 1.02zM73.55 44.31l-4-2.31v-1.02l4 2.31zm4 2.31-4-2.31v-1.02l4 2.31zm4 2.31-4-2.31V45.6l4 2.3z"/><path fill="#ffb5b3" d="m85.55 51.23-4-2.3V47.9l4 2.31z"/><path fill="#cc807e" d="m89.94 53.77-4.39-2.54v-1.02l4.39 2.54zM71.32 42l-4-2.31v-1.02l4 2.31zm4 2.31-4-2.31v-1.02l4 2.31zm4 2.31-4-2.31v-1.02l4 2.31zm4 2.31-4-2.31V45.6l4 2.31z"/><path fill="#cc807e" d="m87.32 51.24-4-2.31v-1.02l4 2.31zm4.39 2.53-4.39-2.53v-1.02l4.39 2.53zM69.55 39.96l-2.22-1.29v-1.02l2.22 1.29z"/><path fill="#cc807e" d="m91.71 52.75-1.77-1.02v-1.02l1.77 1.02z"/><path fill="#8e4f4e" d="m73.55 42.27-4-2.31v-1.02l4 2.31z"/><path fill="#ffb5b3" d="m77.55 44.57-4-2.3v-1.02l4 2.31z"/><path fill="#8e4f4e" d="m81.55 46.89-4-2.32v-1.01l4 2.3z"/><path fill="#cc807e" d="m85.55 49.19-4-2.3v-1.03l4 2.31z"/><path fill="#8e4f4e" d="m89.94 51.73-4.39-2.54v-1.02l4.39 2.54z"/><path fill="#cc807e" d="m71.32 39.96-4-2.31v-1.02l4 2.31zm4 2.31-4-2.31v-1.02l4 2.31zm4 2.31-4-2.31v-1.02l4 2.31zm4 2.31-4-2.31v-1.02l4 2.31zm4 2.31-4-2.31v-1.02l4 2.31zm4.39 2.53-4.39-2.53v-1.02l4.39 2.53z"/><path fill="#cc807e" d="m69.55 37.92-2.22-1.29v-1.02l2.22 1.29z"/><path fill="#8e4f4e" d="m91.71 50.71-1.77-1.03v-1.01l1.77 1.02z"/><path fill="#cc807e" d="m73.55 40.23-4-2.31V36.9l4 2.31z"/><path fill="#8e4f4e" d="m77.55 42.53-4-2.3v-1.02l4 2.31z"/><path fill="#cc807e" d="m81.55 44.84-4-2.31v-1.01l4 2.3z"/><path fill="#ffb5b3" d="m85.55 47.15-4-2.31v-1.02l4 2.31z"/><path fill="#cc807e" d="m89.94 49.68-4.39-2.53v-1.02l4.39 2.54zM71.32 37.92l-4-2.31v-1.02l4 2.31zm4 2.31-4-2.31V36.9l4 2.31zm4 2.31-4-2.31v-1.02l4 2.31zm4 2.31-4-2.31v-1.02l4 2.31z"/><path fill="#8e4f4e" d="m87.32 47.16-4-2.31v-1.02l4 2.31z"/><path fill="#cc807e" d="m91.71 49.69-4.39-2.53v-1.02l4.39 2.53z"/><path fill="#ffb5b3" d="m69.55 35.88-2.22-1.29v-1.02l2.22 1.29zm22.16 12.79-1.77-1.03v-1.01l1.77 1.02z"/><path fill="#cc807e" d="m73.55 38.18-4-2.3v-1.02l4 2.31zm4 2.32-4-2.32v-1.01l4 2.3zm4 2.3-4-2.3v-1.03l4 2.31zm4 2.31-4-2.31v-1.02l4 2.31zm4.39 2.53-4.39-2.53v-1.02l4.39 2.54zM71.32 35.88l-4-2.31v-1.02l4 2.31z"/><path fill="#cc807e" d="m75.32 38.19-4-2.31v-1.02l4 2.31zm4 2.31-4-2.31v-1.02l4 2.31z"/><path fill="#ffb5b3" d="m83.32 42.81-4-2.31v-1.02l4 2.31z"/><path fill="#cc807e" d="m87.32 45.12-4-2.31v-1.02l4 2.31zm4.39 2.53-4.39-2.53V44.1l4.39 2.53zM69.55 33.84l-2.22-1.29v-1.02l2.22 1.29zm22.16 12.79-1.77-1.03v-1.02l1.77 1.03zM73.55 36.14l-4-2.3v-1.02l4 2.31z"/><path fill="#ffb5b3" d="m77.55 38.45-4-2.31v-1.01l4 2.3z"/><path fill="#cc807e" d="m81.55 40.76-4-2.31v-1.02l4 2.31zm4 2.31-4-2.31v-1.02l4 2.31z"/><path fill="#ffb5b3" d="m89.94 45.6-4.39-2.53v-1.02l4.39 2.53z"/><path fill="#8e4f4e" d="m95.71 64.24-4-2.31v-1.02l4 2.31zm4 2.31-4-2.31v-1.02l4 2.31zm4 2.31-4-2.31v-1.02l4 2.31zM107.71 71.17l-4-2.31v-1.02l4 2.31zm3.25 1.87-3.25-1.87v-1.02l3.25 1.87z"/><path fill="#cc807e" d="m93.94 62.2-2.23-1.29v-1.02l2.23 1.29z"/><path fill="#8e4f4e" d="m97.94 64.51-4-2.31v-1.02l4 2.31z"/><path fill="#cc807e" d="m101.94 66.82-4-2.31v-1.02l4 2.31z"/><path fill="#8e4f4e" d="m105.94 69.13-4-2.31V65.8l4 2.3z"/><path fill="#cc807e" d="m109.94 71.43-4-2.3V68.1l4 2.31z"/><path fill="#8e4f4e" d="m110.96 72.02-1.44-.83v-1.02l1.44.83z"/><path fill="#ffb5b3" d="m95.71 62.2-4-2.31v-1.02l4 2.31z"/><path fill="#cc807e" d="m99.71 64.51-4-2.31v-1.02l4 2.31zm4 2.31-4-2.31v-1.02l4 2.31z"/><path fill="#cc807e" d="m107.71 69.13-4-2.31V65.8l4 2.31zm3.25 1.87-3.25-1.87v-1.02l3.25 1.87zM93.94 60.16l-2.23-1.29v-1.02l2.23 1.29zm4 2.3-4-2.3v-1.02l4 2.31z"/><path fill="#8e4f4e" d="m101.94 64.78-4-2.32v-1.01l4 2.3z"/><path fill="#ffb5b3" d="m105.94 67.08-4-2.3v-1.03l4 2.31z"/><path fill="#cc807e" d="m109.94 69.39-4-2.31v-1.02l4 2.31z"/><path fill="#cc807e" d="m110.96 69.98-1.44-.83v-1.02l1.44.83z"/><path fill="#ffb5b3" d="m95.71 60.16-4-2.31v-1.02l4 2.31z"/><path fill="#cc807e" d="m99.71 62.47-4-2.31v-1.02l4 2.31zm4 2.31-4-2.31v-1.02l4 2.31zM107.71 67.09l-4-2.31v-1.02l4 2.31z"/><path fill="#8e4f4e" d="m110.96 68.96-3.25-1.87v-1.02l3.25 1.87z"/><path fill="#cc807e" d="m93.94 58.12-2.23-1.29v-1.02l2.23 1.29zm4 2.31-4-2.31V57.1l4 2.3zm4 2.31-4-2.31V59.4l4 2.31z"/><path fill="#8e4f4e" d="m105.94 65.04-4-2.3v-1.03l4 2.31z"/><path fill="#cc807e" d="m109.94 67.35-4-2.31v-1.02l4 2.31z"/><path fill="#cc807e" d="m110.96 67.94-1.44-.83v-1.02l1.44.83zm-15.25-9.82-4-2.31v-1.02l4 2.31z"/><path fill="#ffb5b3" d="m99.71 60.43-4-2.31V57.1l4 2.31z"/><path fill="#cc807e" d="m103.71 62.74-4-2.31v-1.02l4 2.31zM107.71 65.05l-4-2.31v-1.02l4 2.31zm3.25 1.87-3.25-1.87v-1.02l3.25 1.87z"/><path fill="#8e4f4e" d="m93.94 56.07-2.23-1.28v-1.02l2.23 1.29z"/><path fill="#cc807e" d="m97.94 58.39-4-2.32v-1.01l4 2.3zm4 2.3-4-2.3v-1.03l4 2.31zm4 2.31-4-2.31v-1.02l4 2.31z"/><path fill="#ffb5b3" d="m109.94 65.31-4-2.31v-1.02l4 2.31z"/><path fill="#cc807e" d="m110.96 65.9-1.44-.83v-1.02l1.44.83zm-15.25-9.82-4-2.31v-1.02l4 2.31zm4 2.31-4-2.31v-1.02l4 2.31zm4 2.31-4-2.31v-1.02l4 2.31z"/><path fill="#cc807e" d="m107.71 63.01-4-2.31v-1.02l4 2.31zm3.25 1.87-3.25-1.87v-1.02l3.25 1.87zM93.94 54.03l-2.23-1.28v-1.02l2.23 1.29z"/><path fill="#8e4f4e" d="m97.94 56.35-4-2.32v-1.01l4 2.3z"/><path fill="#ffb5b3" d="m101.94 58.65-4-2.3v-1.03l4 2.31z"/><path fill="#8e4f4e" d="m105.94 60.96-4-2.31v-1.02l4 2.31z"/><path fill="#cc807e" d="m109.94 63.27-4-2.31v-1.02l4 2.31z"/><path fill="#8e4f4e" d="m110.96 63.86-1.44-.83v-1.02l1.44.83z"/><path fill="#cc807e" d="m95.71 54.04-4-2.31v-1.02l4 2.31zm4 2.31-4-2.31v-1.02l4 2.31zm4 2.31-4-2.31v-1.02l4 2.31z"/><path fill="#cc807e" d="m107.71 60.97-4-2.31v-1.02l4 2.31zm3.25 1.87-3.25-1.87v-1.02l3.25 1.87zM93.94 52l-2.23-1.29v-1.02l2.23 1.28zm4 2.3-4-2.3v-1.03l4 2.31z"/><path fill="#8e4f4e" d="m101.94 56.61-4-2.31v-1.02l4 2.31z"/><path fill="#cc807e" d="m105.94 58.92-4-2.31v-1.02l4 2.31z"/><path fill="#ffb5b3" d="m109.94 61.23-4-2.31V57.9l4 2.31z"/><path fill="#cc807e" d="m110.96 61.82-1.44-.83v-1.02l1.44.83zM95.71 52l-4-2.31v-1.02l4 2.31zm4 2.31-4-2.31v-1.02l4 2.31zm4 2.31-4-2.31v-1.02l4 2.31zm4 2.31-4-2.31V55.6l4 2.3z"/><path fill="#8e4f4e" d="m110.96 60.8-3.25-1.87V57.9l3.25 1.88z"/><path fill="#ffb5b3" d="m93.94 49.95-2.23-1.28v-1.02l2.23 1.28z"/><path fill="#cc807e" d="m97.94 52.26-4-2.31v-1.02l4 2.31zm4 2.31-4-2.31v-1.02l4 2.31zm4 2.31-4-2.31v-1.02l4 2.31zm4 2.31-4-2.31v-1.02l4 2.31z"/><path fill="#cc807e" d="m110.96 59.78-1.44-.83v-1.02l1.44.83zm-15.25-9.82-4-2.31v-1.02l4 2.31zm4 2.31-4-2.31v-1.02l4 2.31zm4 2.31-4-2.31v-1.02l4 2.31z"/><path fill="#ffb5b3" d="m107.71 56.89-4-2.31v-1.02l4 2.3z"/><path fill="#cc807e" d="m110.96 58.76-3.25-1.87v-1.03l3.25 1.88zM93.94 47.91l-2.23-1.28v-1.02l2.23 1.28zm4 2.31-4-2.31v-1.02l4 2.31z"/><path fill="#ffb5b3" d="m101.94 52.53-4-2.31V49.2l4 2.31z"/><path fill="#cc807e" d="m105.94 54.84-4-2.31v-1.02l4 2.31zm4 2.31-4-2.31v-1.02l4 2.31z"/><path fill="#ffb5b3" d="m110.96 57.74-1.44-.83v-1.02l1.44.83z"/><path fill="#995b5b" d="m68.02 53.39-.05 16.3L0 30.45l.05-16.31z" opacity=".5" style="mix-blend-mode:multiply" transform="translate(42.94 3.33)"/></g><path fill="#fff" fill-rule="nonzero" d="m136.69 40.86-25.75 14.96-69.39-40.06L67.3.8z"/><path fill="#7a8799" fill-rule="nonzero" d="M67.33 4.28v22.9L49.27 16.75l-1.73-1L67.31 4.27z"/><path fill="#c3ccd9" fill-rule="nonzero" d="m130.7 40.87-1.73 1-18.03 10.49-43.61-25.18V4.28z"/><path fill="#6ee7ff" fill-rule="nonzero" d="m128.97 41.87-18.03 10.49-61.67-35.61L67.31 6.27z"/><path stroke="#fff" stroke-linecap="round" d="m60.94 17.8-2-1.16"/><path stroke="#fff" stroke-linecap="round" d="m116.62 40.05-2.96-1.7" opacity=".6"/><path stroke="#fff" stroke-linecap="round" d="m105.76 45.49-1.3-.75"/><path stroke="#fff" stroke-linecap="round" d="m97.71 35.05-2.96-1.71M76.28 17.97l-2.96-1.7" opacity=".6"/><path stroke="#fff" stroke-linecap="round" d="m77.55 28.11-1.7-.99m16.45-.48-2.95-1.7"/><path fill="#7a8799" fill-rule="nonzero" d="m136.69 40.86-.01 1.63-25.74 14.96v-1.63z"/><path fill="#c3ccd9" fill-rule="nonzero" d="M110.94 55.82v1.63L41.55 17.39v-1.63z"/><g fill-rule="nonzero"><path fill="#fff" d="M109.21 28.43 88.86 40.26l-1.73-1 20.36-11.83z"/><path fill="#7a8799" d="M109.21 28.43v1.63L88.85 41.89l.01-1.63z"/><path fill="#898989" d="m88.86 40.26-.01 1.63-1.72-1v-1.63z"/></g><g fill-rule="nonzero"><path fill="#fff" d="M86.78 15.71 66.42 27.54l-1.72-.99 20.35-11.83z"/><path fill="#7a8799" d="m86.78 15.71-.01 1.63-20.35 11.83v-1.63z"/><path fill="#898989" d="M66.42 27.54v1.63l-1.73-.99.01-1.63z"/></g><path fill="#fff" fill-rule="nonzero" d="m92.27 41.59-2.99 1.73-31.75-18.33 2.98-1.74z"/><g fill-rule="nonzero"><path fill="#1461cc" d="M94.61 45.54v23.41a1.26 1.26 0 0 1-.73 1 3.92 3.92 0 0 1-3.56 0 1.28 1.28 0 0 1-.75-1V45.52c.036.458.32.861.74 1.05a4 4 0 0 0 3.57 0 1.4 1.4 0 0 0 .7-.81.5.5 0 0 0 .03-.22"/><path fill="#004ab3" d="M94.58 45.8v5.32a1.23 1.23 0 0 1-.73 1 3.92 3.92 0 0 1-3.56 0 1.38 1.38 0 0 1-.73-.82v-5.75c.036.458.32.861.74 1.05a4 4 0 0 0 3.57 0c.334-.162.59-.45.71-.8"/><path fill="#fff" d="M93.87 44.5a1.09 1.09 0 0 1 0 2.07 3.94 3.94 0 0 1-3.57 0 1.09 1.09 0 0 1 0-2.07 3.94 3.94 0 0 1 3.57 0"/></g><g fill-rule="nonzero"><path fill="#1461cc" d="M72.63 33.15v23.4a1.23 1.23 0 0 1-.74 1 3.86 3.86 0 0 1-3.56 0 1.26 1.26 0 0 1-.75-1V33.13c.036.459.32.861.74 1.05a4 4 0 0 0 3.57 0 1.47 1.47 0 0 0 .71-.82.8.8 0 0 0 .03-.21"/><path fill="#004ab3" d="M72.6 33.36v5.32a1.25 1.25 0 0 1-.74 1 3.92 3.92 0 0 1-3.56 0 1.44 1.44 0 0 1-.73-.82v-5.75c.036.459.32.861.74 1.05a4 4 0 0 0 3.57 0 1.47 1.47 0 0 0 .72-.8"/><path fill="#fff" d="M71.88 32.11c1 .57 1 1.49 0 2.06a3.94 3.94 0 0 1-3.57 0 1.09 1.09 0 0 1 0-2.06 3.88 3.88 0 0 1 3.57 0"/></g><g fill-rule="nonzero"><path fill="#1461cc" d="M51.35 20.38v23.41a1.23 1.23 0 0 1-.73 1 3.94 3.94 0 0 1-3.57 0 1.28 1.28 0 0 1-.75-1V20.36c.036.458.32.861.74 1.05a4 4 0 0 0 3.58 0 1.4 1.4 0 0 0 .7-.81.7.7 0 0 0 .03-.22"/><path fill="#004ab3" d="M51.32 20.6v5.32a1.23 1.23 0 0 1-.73 1 3.94 3.94 0 0 1-3.57 0 1.42 1.42 0 0 1-.73-.82v-5.75c.036.458.32.861.74 1.05a4 4 0 0 0 3.58 0 1.4 1.4 0 0 0 .71-.8"/><path fill="#fff" d="M50.6 19.34a1.09 1.09 0 0 1 0 2.07 3.94 3.94 0 0 1-3.57 0 1.1 1.1 0 0 1 0-2.07 3.94 3.94 0 0 1 3.57 0"/></g><g fill-rule="nonzero"><path fill="#dcdcdc" d="M99.69 63.82 75.35 77.96 7.38 38.72l24.34-14.14z"/><path fill="#8e4f4e" d="m99.69 63.82-.05 16.3L75.3 94.27l.05-16.31z"/><path fill="#8e4f4e" d="m79.3 91.91-4 2.31V93.2l4-2.31zm4-2.31-4 2.31v-1.02l4-2.31zm4-2.31-4 2.31v-1.02l4-2.31zm4-2.31-4 2.31v-1.02l4-2.31zm4-2.31-4 2.31v-1.02l4-2.31zm4.39-2.53-4.39 2.53v-1.02l4.39-2.53z"/><path fill="#cc807e" d="m77.53 91.91-2.22 1.29v-1.02l2.22-1.29zm22.16-12.79-1.77 1.02v-1.02l1.77-1.02z"/><path fill="#8e4f4e" d="m81.53 89.6-4 2.31v-1.02l4-2.31z"/><path fill="#cc807e" d="m85.53 87.29-4 2.31v-1.02l4-2.31z"/><path fill="#8e4f4e" d="m89.53 84.98-4 2.31v-1.02l4-2.31z"/><path fill="#cc807e" d="m93.53 82.67-4 2.31v-1.02l4-2.31z"/><path fill="#8e4f4e" d="m97.92 80.14-4.39 2.53v-1.02l4.39-2.53z"/><path fill="#ffb5b3" d="m79.3 89.87-4 2.31v-1.02l4-2.31z"/><path fill="#cc807e" d="m83.3 87.56-4 2.31v-1.02l4-2.31zm4-2.31-4 2.31v-1.02l4-2.31zm4-2.31-4 2.31v-1.02l4-2.31zm4-2.31-4 2.31v-1.02l4-2.31zm4.39-2.53-4.39 2.53v-1.02l4.39-2.53zM77.53 89.87l-2.22 1.29v-1.02l2.22-1.29z"/><path fill="#8e4f4e" d="m99.69 77.08-1.77 1.02v-1.02l1.77-1.02z"/><path fill="#cc807e" d="m81.53 87.56-4 2.31v-1.02l4-2.31z"/><path fill="#8e4f4e" d="m85.53 85.25-4 2.31v-1.02l4-2.31z"/><path fill="#ffb5b3" d="m89.53 82.94-4 2.31v-1.02l4-2.31z"/><path fill="#cc807e" d="m93.53 80.63-4 2.31v-1.02l4-2.31zm4.39-2.53-4.39 2.53v-1.02l4.39-2.53z"/><path fill="#ffb5b3" d="m79.3 87.83-4 2.31v-1.02l4-2.31z"/><path fill="#cc807e" d="m83.3 85.52-4 2.31v-1.02l4-2.31zm4-2.31-4 2.31V84.5l4-2.31zm4-2.31-4 2.31v-1.02l4-2.31z"/><path fill="#8e4f4e" d="m95.3 78.59-4 2.31v-1.02l4-2.31z"/><path fill="#cc807e" d="m99.69 76.06-4.39 2.53v-1.02l4.39-2.53zM77.53 87.83l-2.22 1.29V88.1l2.22-1.29zM99.69 75.04l-1.77 1.02v-1.02l1.77-1.02zM81.53 85.52l-4 2.31v-1.02l4-2.31zm4-2.31-4 2.31V84.5l4-2.31z"/><path fill="#8e4f4e" d="m89.53 80.9-4 2.31v-1.02l4-2.31z"/><path fill="#cc807e" d="m93.53 78.59-4 2.31v-1.02l4-2.31zm4.39-2.53-4.39 2.53v-1.02l4.39-2.53zM79.3 85.79l-4 2.31v-1.02l4-2.31z"/><path fill="#ffb5b3" d="m83.3 83.48-4 2.31v-1.02l4-2.31z"/><path fill="#cc807e" d="m87.3 81.17-4 2.31v-1.02l4-2.31zm4-2.31-4 2.31v-1.02l4-2.31zm4-2.31-4 2.31v-1.02l4-2.31z"/><path fill="#ffb5b3" d="m99.69 74.02-4.39 2.53v-1.02L99.69 73z"/><path fill="#8e4f4e" d="m77.53 85.79-2.22 1.29v-1.03l2.22-1.28z"/><path fill="#cc807e" d="m99.69 73-1.77 1.02V73l1.77-1.02zM81.53 83.48l-4 2.31v-1.02l4-2.31zm4-2.31-4 2.31v-1.02l4-2.31zm4-2.31-4 2.31v-1.02l4-2.31z"/><path fill="#ffb5b3" d="m93.53 76.55-4 2.31v-1.02l4-2.31z"/><path fill="#cc807e" d="m97.92 74.02-4.39 2.53v-1.02L97.92 73zM79.3 83.75l-4 2.31v-1.02l4-2.31zm4-2.31-4 2.31v-1.02l4-2.31zm4-2.31-4 2.31v-1.02l4-2.31zm4-2.31-4 2.31v-1.02l4-2.31z"/><path fill="#cc807e" d="m95.3 74.51-4 2.31V75.8l4-2.31zm4.39-2.53-4.39 2.53v-1.02l4.39-2.53zM77.53 83.75l-2.22 1.28v-1.01l2.22-1.29zM99.69 70.96l-1.77 1.02v-1.02l1.77-1.02z"/><path fill="#8e4f4e" d="m81.53 81.44-4 2.31v-1.02l4-2.31z"/><path fill="#ffb5b3" d="m85.53 79.13-4 2.31v-1.02l4-2.31z"/><path fill="#8e4f4e" d="m89.53 76.82-4 2.31v-1.02l4-2.31z"/><path fill="#cc807e" d="m93.53 74.51-4 2.31V75.8l4-2.31z"/><path fill="#8e4f4e" d="m97.92 71.98-4.39 2.53v-1.02l4.39-2.53z"/><path fill="#cc807e" d="m79.3 81.71-4 2.31V83l4-2.31zm4-2.31-4 2.31v-1.02l4-2.31zm4-2.31-4 2.31v-1.02l4-2.31zm4-2.31-4 2.31v-1.02l4-2.31zm4-2.31-4 2.31v-1.02l4-2.31zm4.39-2.53-4.39 2.53v-1.02l4.39-2.53zM77.53 81.71l-2.22 1.28v-1.02l2.22-1.28z"/><path fill="#8e4f4e" d="m99.69 68.92-1.77 1.02v-1.02l1.77-1.02z"/><path fill="#cc807e" d="m81.53 79.4-4 2.31v-1.02l4-2.31z"/><path fill="#8e4f4e" d="m85.53 77.09-4 2.31v-1.02l4-2.31z"/><path fill="#cc807e" d="m89.53 74.78-4 2.31v-1.02l4-2.31z"/><path fill="#ffb5b3" d="m93.53 72.47-4 2.31v-1.02l4-2.31z"/><path fill="#cc807e" d="m97.92 69.94-4.39 2.53v-1.02l4.39-2.53zM79.3 79.67l-4 2.31v-1.02l4-2.31zm4-2.31-4 2.31v-1.02l4-2.31zm4-2.31-4 2.31v-1.02l4-2.31zm4-2.31-4 2.31v-1.02l4-2.31z"/><path fill="#8e4f4e" d="m95.3 70.43-4 2.31v-1.02l4-2.31z"/><path fill="#cc807e" d="m99.69 67.9-4.39 2.53v-1.02l4.39-2.53z"/><path fill="#ffb5b3" d="m77.53 79.67-2.22 1.28v-1.02l2.22-1.28zm22.16-12.79-1.77 1.02v-1.02l1.77-1.02z"/><path fill="#cc807e" d="m81.53 77.36-4 2.31v-1.02l4-2.31zm4-2.31-4 2.31v-1.02l4-2.31zm4-2.31-4 2.31v-1.02l4-2.31zm4-2.31-4 2.31v-1.02l4-2.31zm4.39-2.53-4.39 2.53v-1.02l4.39-2.53z"/><path fill="#cc807e" d="m79.3 77.63-4 2.31v-1.02l4-2.31zm4-2.31-4 2.31v-1.02l4-2.31zm4-2.31-4 2.31V74.3l4-2.31z"/><path fill="#ffb5b3" d="m91.3 70.7-4 2.31v-1.02l4-2.31z"/><path fill="#cc807e" d="m95.3 68.39-4 2.31v-1.02l4-2.31zm4.39-2.53-4.39 2.53v-1.02l4.39-2.53zM77.53 77.63l-2.22 1.28v-1.02l2.22-1.28zm22.16-12.79-1.77 1.02v-1.02l1.77-1.02zM81.53 75.32l-4 2.31v-1.02l4-2.31z"/><path fill="#ffb5b3" d="m85.53 73.01-4 2.31V74.3l4-2.31z"/><path fill="#cc807e" d="m89.53 70.7-4 2.31v-1.02l4-2.31zm4-2.31-4 2.31v-1.02l4-2.31z"/><path fill="#ffb5b3" d="m97.92 65.86-4.39 2.53v-1.02l4.39-2.53z"/><path fill="#8e4f4e" d="m11.33 57.33-4-2.31V54l4 2.31zm4 2.31-4-2.31v-1.02l4 2.31zm4 2.31-4-2.31v-1.02l4 2.31zm4 2.31-4-2.31v-1.02l4 2.31zm4 2.31-4-2.31v-1.02l4 2.31zm4.39 2.53-4.39-2.53v-1.02l4.39 2.53z"/><path fill="#cc807e" d="M9.56 55.29 7.34 54v-1.02l2.22 1.29zm22.16 12.79-1.78-1.02v-1.03l1.78 1.03z"/><path fill="#8e4f4e" d="m13.56 57.6-4-2.31v-1.02l4 2.31z"/><path fill="#cc807e" d="m17.56 59.9-4-2.3v-1.02l4 2.31z"/><path fill="#8e4f4e" d="m21.56 62.21-4-2.31v-1.01l4 2.3z"/><path fill="#cc807e" d="m25.56 64.52-4-2.31v-1.02l4 2.31z"/><path fill="#8e4f4e" d="m29.94 67.06-4.38-2.54V63.5l4.38 2.53z"/><path fill="#ffb5b3" d="m11.33 55.29-4-2.31v-1.02l4 2.31z"/><path fill="#cc807e" d="m15.33 57.6-4-2.31v-1.02l4 2.31zm4 2.31-4-2.31v-1.02l4 2.31zm4 2.31-4-2.31v-1.02l4 2.31zm4 2.31-4-2.31V61.2l4 2.31zm4.39 2.53-4.39-2.53v-1.02l4.39 2.53zM9.56 53.25l-2.22-1.29v-1.02l2.22 1.29z"/><path fill="#8e4f4e" d="m31.72 66.04-1.78-1.02V64l1.78 1.02z"/><path fill="#cc807e" d="m13.56 55.56-4-2.31v-1.02l4 2.3z"/><path fill="#8e4f4e" d="m17.56 57.86-4-2.3v-1.03l4 2.32z"/><path fill="#ffb5b3" d="m21.56 60.17-4-2.31v-1.01l4 2.3z"/><path fill="#cc807e" d="m25.56 62.48-4-2.31v-1.02l4 2.31zm4.38 2.54-4.38-2.54v-1.02L29.94 64z"/><path fill="#ffb5b3" d="m11.33 53.25-4-2.31v-1.02l4 2.31z"/><path fill="#cc807e" d="m15.33 55.56-4-2.31v-1.02l4 2.31zm4 2.31-4-2.31v-1.02l4 2.31zm4 2.31-4-2.31v-1.02l4 2.31z"/><path fill="#8e4f4e" d="m27.33 62.49-4-2.31v-1.02l4 2.31z"/><path fill="#cc807e" d="m31.72 65.02-4.39-2.53v-1.02L31.72 64zM9.56 51.21l-2.22-1.29V48.9l2.22 1.28zM31.72 64l-1.78-1.03v-1.01l1.78 1.02zM13.56 53.52l-4-2.31v-1.03l4 2.32zm4 2.3-4-2.3V52.5l4 2.3z"/><path fill="#8e4f4e" d="m21.56 58.13-4-2.31V54.8l4 2.31z"/><path fill="#cc807e" d="m25.56 60.44-4-2.31v-1.02l4 2.31zm4.38 2.53-4.38-2.53v-1.02l4.38 2.54zM11.33 51.21l-4-2.31v-1.02l4 2.31z"/><path fill="#ffb5b3" d="m15.33 53.52-4-2.31v-1.02l4 2.31z"/><path fill="#cc807e" d="m19.33 55.83-4-2.31V52.5l4 2.31zm4 2.31-4-2.31v-1.02l4 2.31zm4 2.31-4-2.31v-1.02l4 2.31z"/><path fill="#ffb5b3" d="m31.72 62.98-4.39-2.53v-1.02l4.39 2.53z"/><path fill="#8e4f4e" d="m9.56 49.17-2.22-1.29v-1.02l2.22 1.28z"/><path fill="#cc807e" d="m31.72 61.96-1.78-1.03v-1.02l1.78 1.03zM13.56 51.47l-4-2.3v-1.03l4 2.32zm4 2.31-4-2.31v-1.01l4 2.3zm4 2.31-4-2.31v-1.02l4 2.31z"/><path fill="#ffb5b3" d="m25.56 58.4-4-2.31v-1.02l4 2.31z"/><path fill="#cc807e" d="m29.94 60.93-4.38-2.53v-1.02l4.38 2.53zM11.33 49.17l-4-2.31v-1.02l4 2.31zm4 2.31-4-2.31v-1.02l4 2.31zm4 2.31-4-2.31v-1.02l4 2.31zm4 2.31-4-2.31v-1.02l4 2.31z"/><path fill="#cc807e" d="m27.33 58.4-4-2.3v-1.02l4 2.31zm4.39 2.54-4.39-2.54v-1.01l4.39 2.53zM9.56 47.13l-2.22-1.29v-1.02l2.22 1.28zm22.16 12.79-1.78-1.03v-1.02l1.78 1.03z"/><path fill="#8e4f4e" d="m13.56 49.43-4-2.3V46.1l4 2.31z"/><path fill="#ffb5b3" d="m17.56 51.74-4-2.31v-1.02l4 2.31z"/><path fill="#8e4f4e" d="m21.56 54.05-4-2.31v-1.02l4 2.31z"/><path fill="#cc807e" d="m25.56 56.36-4-2.31v-1.02l4 2.31z"/><path fill="#8e4f4e" d="m29.94 58.89-4.38-2.53v-1.02l4.38 2.53z"/><path fill="#cc807e" d="m11.33 47.13-4-2.31V43.8l4 2.31zm4 2.31-4-2.31v-1.02l4 2.31zm4 2.31-4-2.31v-1.02l4 2.31zm4 2.31-4-2.31v-1.02l4 2.3zm4 2.3-4-2.3v-1.03l4 2.32zm4.39 2.54-4.39-2.54v-1.01l4.39 2.53zM9.56 45.08 7.34 43.8v-1.02l2.22 1.29z"/><path fill="#8e4f4e" d="m31.72 57.88-1.78-1.03v-1.02l1.78 1.03z"/><path fill="#cc807e" d="m13.56 47.39-4-2.31v-1.01l4 2.3z"/><path fill="#8e4f4e" d="m17.56 49.7-4-2.31v-1.02l4 2.31z"/><path fill="#cc807e" d="m21.56 52.01-4-2.31v-1.02l4 2.31z"/><path fill="#ffb5b3" d="m25.56 54.32-4-2.31v-1.02l4 2.31z"/><path fill="#cc807e" d="m29.94 56.85-4.38-2.53V53.3l4.38 2.53zM11.33 45.09l-4-2.31v-1.02l4 2.31zm4 2.31-4-2.31v-1.02l4 2.31zm4 2.31-4-2.31v-1.02l4 2.31zm4 2.31-4-2.31v-1.02l4 2.31z"/><path fill="#8e4f4e" d="m27.33 54.32-4-2.3V51l4 2.3z"/><path fill="#cc807e" d="m31.72 56.86-4.39-2.54V53.3l4.39 2.54z"/><path fill="#ffb5b3" d="m9.56 43.04-2.22-1.28v-1.02l2.22 1.28zm22.16 12.8-1.78-1.03v-1.02l1.78 1.03z"/><path fill="#cc807e" d="m13.56 45.35-4-2.31v-1.02l4 2.31zm4 2.31-4-2.31v-1.02l4 2.31zm4 2.31-4-2.31v-1.02l4 2.31zm4 2.31-4-2.31v-1.02l4 2.31zm4.38 2.53-4.38-2.53v-1.02l4.38 2.53z"/><path fill="#cc807e" d="m11.33 43.05-4-2.31v-1.02l4 2.31zm4 2.31-4-2.31v-1.02l4 2.31zm4 2.31-4-2.31v-1.02l4 2.3z"/><path fill="#ffb5b3" d="m23.33 49.97-4-2.3v-1.03l4 2.32z"/><path fill="#cc807e" d="m27.33 52.28-4-2.31v-1.01l4 2.3zm4.39 2.54-4.39-2.54v-1.02l4.39 2.54zM9.56 41l-2.22-1.28V38.7l2.22 1.28zm22.16 12.8-1.78-1.03v-1.02l1.78 1.03zM13.56 43.31l-4-2.31v-1.02l4 2.31z"/><path fill="#ffb5b3" d="m17.56 45.62-4-2.31v-1.02l4 2.31z"/><path fill="#cc807e" d="m21.56 47.93-4-2.31V44.6l4 2.31zm4 2.31-4-2.31v-1.02l4 2.31z"/><path fill="#ffb5b3" d="m29.94 52.77-4.38-2.53v-1.02l4.38 2.53z"/><path fill="#8e4f4e" d="m35.72 71.41-4-2.31v-1.02l4 2.31zm4 2.31-4-2.31v-1.02l4 2.31zm4 2.31-4-2.31V72.7l4 2.31zm4 2.31-4-2.31v-1.02l4 2.31zm4 2.3-4-2.3v-1.02l4 2.31zm4.38 2.54-4.38-2.54v-1.01l4.38 2.53z"/><path fill="#cc807e" d="m33.94 69.36-2.22-1.28v-1.02l2.22 1.29zm22.16 12.8-1.77-1.03v-1.02l1.77 1.03z"/><path fill="#8e4f4e" d="m37.94 71.67-4-2.31v-1.01l4 2.3z"/><path fill="#cc807e" d="m41.94 73.98-4-2.31v-1.02l4 2.31z"/><path fill="#8e4f4e" d="m45.94 76.29-4-2.31v-1.02l4 2.31z"/><path fill="#cc807e" d="m49.94 78.6-4-2.31v-1.02l4 2.31z"/><path fill="#8e4f4e" d="m54.33 81.13-4.39-2.53v-1.02l4.39 2.53z"/><path fill="#ffb5b3" d="m35.72 69.37-4-2.31v-1.02l4 2.31z"/><path fill="#cc807e" d="m39.72 71.68-4-2.31v-1.02l4 2.31zm4 2.31-4-2.31v-1.02l4 2.31zm4 2.31-4-2.31v-1.02l4 2.3zm4 2.31-4-2.31v-1.03l4 2.31zm4.38 2.53-4.38-2.53v-1.03l4.38 2.54zM33.94 67.33l-2.22-1.29v-1.02l2.22 1.28z"/><path fill="#8e4f4e" d="m56.1 80.12-1.77-1.03v-1.02l1.77 1.03z"/><path fill="#cc807e" d="m37.94 69.63-4-2.3V66.3l4 2.31z"/><path fill="#8e4f4e" d="m41.94 71.94-4-2.31v-1.02l4 2.31z"/><path fill="#ffb5b3" d="m45.94 74.25-4-2.31v-1.02l4 2.31z"/><path fill="#cc807e" d="m49.94 76.56-4-2.31v-1.02l4 2.31zm4.39 2.53-4.39-2.53v-1.02l4.39 2.53z"/><path fill="#ffb5b3" d="m35.72 67.33-4-2.31V64l4 2.31z"/><path fill="#cc807e" d="m39.72 69.64-4-2.31v-1.02l4 2.31zm4 2.31-4-2.31v-1.02l4 2.31zm4 2.3-4-2.3v-1.02l4 2.31z"/><path fill="#8e4f4e" d="m51.72 76.56-4-2.31v-1.01l4 2.3z"/><path fill="#cc807e" d="m56.1 79.1-4.38-2.54v-1.02l4.38 2.54zM33.94 65.28 31.72 64v-1.02l2.22 1.28zm22.16 12.8-1.77-1.03v-1.02l1.77 1.03zM37.94 67.59l-4-2.31v-1.02l4 2.31zm4 2.31-4-2.31v-1.02l4 2.31z"/><path fill="#8e4f4e" d="m45.94 72.21-4-2.31v-1.02l4 2.31z"/><path fill="#cc807e" d="m49.94 74.52-4-2.31v-1.02l4 2.31zm4.39 2.53-4.39-2.53V73.5l4.39 2.53zM35.72 65.29l-4-2.31v-1.02l4 2.31z"/><path fill="#ffb5b3" d="m39.72 67.6-4-2.31v-1.02l4 2.31z"/><path fill="#cc807e" d="m43.72 69.91-4-2.31v-1.02l4 2.3zm4 2.31-4-2.31v-1.03l4 2.31zm4 2.3-4-2.3v-1.03l4 2.31z"/><path fill="#ffb5b3" d="m56.1 77.06-4.38-2.54V73.5l4.38 2.54z"/><path fill="#8e4f4e" d="m33.94 63.24-2.22-1.28v-1.02l2.22 1.28z"/><path fill="#cc807e" d="m56.1 76.04-1.77-1.03v-1.02l1.77 1.03zM37.94 65.55l-4-2.31v-1.02l4 2.31zm4 2.31-4-2.31v-1.02l4 2.31zm4 2.31-4-2.31v-1.02l4 2.31z"/><path fill="#ffb5b3" d="m49.94 72.48-4-2.31v-1.02l4 2.31z"/><path fill="#cc807e" d="m54.33 75.01-4.39-2.53v-1.02l4.39 2.53zM35.72 63.25l-4-2.31v-1.02l4 2.31zm4 2.31-4-2.31v-1.02l4 2.3zm4 2.3-4-2.3v-1.03l4 2.32zm4 2.31-4-2.31v-1.01l4 2.3z"/><path fill="#cc807e" d="m51.72 72.48-4-2.31v-1.02l4 2.31zm4.38 2.54-4.38-2.54v-1.02l4.38 2.53zM33.94 61.2l-2.22-1.28V58.9l2.22 1.28z"/><path fill="#cc807e" d="m56.1 73.99-1.77-1.02v-1.02l1.77 1.02z"/><path fill="#8e4f4e" d="m37.94 63.51-4-2.31v-1.02l4 2.31z"/><path fill="#ffb5b3" d="m41.94 65.82-4-2.31v-1.02l4 2.31z"/><path fill="#8e4f4e" d="m45.94 68.13-4-2.31V64.8l4 2.31z"/><path fill="#cc807e" d="m49.94 70.44-4-2.31v-1.02l4 2.31z"/><path fill="#8e4f4e" d="m54.33 72.97-4.39-2.53v-1.02l4.39 2.53z"/><path fill="#cc807e" d="m35.72 61.21-4-2.31v-1.02l4 2.31zm4 2.31-4-2.31v-1.02l4 2.31zm4 2.31-4-2.31V62.5l4 2.3zm4 2.3-4-2.3V64.8l4 2.31zm4 2.31-4-2.31v-1.02l4 2.31zm4.38 2.53-4.38-2.53v-1.02l4.38 2.54zM33.94 59.16l-2.22-1.28v-1.02l2.22 1.28z"/><path fill="#8e4f4e" d="m56.1 71.96-1.77-1.03v-1.02l1.77 1.03z"/><path fill="#cc807e" d="m37.94 61.47-4-2.31v-1.02l4 2.31z"/><path fill="#8e4f4e" d="m41.94 63.78-4-2.31v-1.02l4 2.31z"/><path fill="#cc807e" d="m45.94 66.09-4-2.31v-1.02l4 2.31z"/><path fill="#ffb5b3" d="m49.94 68.4-4-2.31v-1.02l4 2.31z"/><path fill="#cc807e" d="m54.33 70.93-4.39-2.53v-1.02l4.39 2.53zM35.72 59.17l-4-2.31v-1.02l4 2.3zm4 2.3-4-2.3v-1.03l4 2.32zm4 2.31-4-2.31v-1.01l4 2.3zm4 2.31-4-2.31v-1.02l4 2.31z"/><path fill="#8e4f4e" d="m51.72 68.4-4-2.31v-1.02l4 2.31z"/><path fill="#cc807e" d="m56.1 70.94-4.38-2.54v-1.02l4.38 2.53z"/><path fill="#ffb5b3" d="m33.94 57.12-2.22-1.28v-1.02l2.22 1.28zM56.1 69.91l-1.77-1.02v-1.02l1.77 1.02z"/><path fill="#cc807e" d="m37.94 59.43-4-2.31V56.1l4 2.31zm4 2.31-4-2.31v-1.02l4 2.31zm4 2.31-4-2.31v-1.02l4 2.31zm4 2.31-4-2.31v-1.02l4 2.31zm4.39 2.53-4.39-2.53v-1.02l4.39 2.53z"/><path fill="#cc807e" d="m35.72 57.13-4-2.31V53.8l4 2.3zm4 2.3-4-2.3V56.1l4 2.31zm4 2.31-4-2.31v-1.02l4 2.31z"/><path fill="#ffb5b3" d="m47.72 64.05-4-2.31v-1.02l4 2.31z"/><path fill="#cc807e" d="m51.72 66.36-4-2.31v-1.02l4 2.31zm4.38 2.53-4.38-2.53v-1.02l4.38 2.53zM33.94 55.08l-2.22-1.28v-1.02l2.22 1.28z"/><path fill="#cc807e" d="m56.1 67.87-1.77-1.02v-1.02l1.77 1.02zM37.94 57.39l-4-2.31v-1.02l4 2.31z"/><path fill="#ffb5b3" d="m41.94 59.7-4-2.31v-1.02l4 2.31z"/><path fill="#cc807e" d="m45.94 62.01-4-2.31v-1.02l4 2.31zm4 2.31-4-2.31v-1.02l4 2.31z"/><path fill="#ffb5b3" d="m54.33 66.85-4.39-2.53V63.3l4.39 2.53z"/><path fill="#8e4f4e" d="m60.1 85.49-4-2.31v-1.02l4 2.31zm4 2.31-4-2.31v-1.02l4 2.3zm4 2.31-4-2.31v-1.03l4 2.31zM72.1 92.41l-4-2.3v-1.03l4 2.31zm3.25 1.88-3.25-1.88v-1.02l3.25 1.88z"/><path fill="#cc807e" d="m58.33 83.44-2.22-1.28v-1.02l2.22 1.28z"/><path fill="#8e4f4e" d="m62.33 85.75-4-2.31v-1.02l4 2.31z"/><path fill="#cc807e" d="m66.33 88.06-4-2.31v-1.02l4 2.31z"/><path fill="#8e4f4e" d="m70.33 90.37-4-2.31v-1.02l4 2.31z"/><path fill="#cc807e" d="m74.33 92.68-4-2.31v-1.02l4 2.31z"/><path fill="#8e4f4e" d="m75.35 93.27-1.44-.83v-1.02l1.44.83z"/><path fill="#ffb5b3" d="m60.1 83.45-4-2.31v-1.02l4 2.31z"/><path fill="#cc807e" d="m64.1 85.75-4-2.3v-1.02l4 2.31zm4 2.32-4-2.32v-1.01l4 2.3zM72.1 90.37l-4-2.3v-1.03l4 2.31zm3.25 1.88-3.25-1.88v-1.02l3.25 1.88zM58.33 81.4l-2.22-1.28V79.1l2.22 1.28zm4 2.31-4-2.31v-1.02l4 2.31z"/><path fill="#8e4f4e" d="m66.33 86.02-4-2.31v-1.02l4 2.31z"/><path fill="#ffb5b3" d="m70.33 88.33-4-2.31V85l4 2.31z"/><path fill="#cc807e" d="m74.33 90.64-4-2.31v-1.02l4 2.31z"/><path fill="#cc807e" d="m75.35 91.23-1.44-.83v-1.02l1.44.83z"/><path fill="#ffb5b3" d="m60.1 81.41-4-2.31v-1.02l4 2.3z"/><path fill="#cc807e" d="m64.1 83.72-4-2.31v-1.03l4 2.31zm4 2.3-4-2.3v-1.03l4 2.31zM72.1 88.33l-4-2.31V85l4 2.31z"/><path fill="#8e4f4e" d="m75.35 90.21-3.25-1.88v-1.02l3.25 1.88z"/><path fill="#cc807e" d="m58.33 79.36-2.22-1.28v-1.02l2.22 1.28zm4 2.31-4-2.31v-1.02l4 2.31zm4 2.31-4-2.31v-1.02l4 2.31z"/><path fill="#8e4f4e" d="m70.33 86.29-4-2.31v-1.02l4 2.31z"/><path fill="#cc807e" d="m74.33 88.6-4-2.31v-1.02l4 2.31z"/><path fill="#cc807e" d="m75.35 89.19-1.44-.83v-1.02l1.44.83zM60.1 79.36l-4-2.3v-1.02l4 2.31z"/><path fill="#ffb5b3" d="m64.1 81.68-4-2.32v-1.01l4 2.3z"/><path fill="#cc807e" d="m68.1 83.98-4-2.3v-1.03l4 2.31zM72.1 86.29l-4-2.31v-1.02l4 2.31zm3.25 1.88-3.25-1.88v-1.02l3.25 1.88z"/><path fill="#8e4f4e" d="m58.33 77.32-2.22-1.28v-1.02l2.22 1.28z"/><path fill="#cc807e" d="m62.33 79.63-4-2.31V76.3l4 2.31zm4 2.31-4-2.31v-1.02l4 2.31zm4 2.31-4-2.31v-1.02l4 2.31z"/><path fill="#ffb5b3" d="m74.33 86.56-4-2.31v-1.02l4 2.31z"/><path fill="#cc807e" d="m75.35 87.15-1.44-.83V85.3l1.44.83zM60.1 77.33l-4-2.31v-1.03l4 2.31zm4 2.3-4-2.3V76.3l4 2.31zm4 2.31-4-2.31v-1.02l4 2.31z"/><path fill="#cc807e" d="m72.1 84.25-4-2.31v-1.02l4 2.31zm3.25 1.88-3.25-1.88v-1.02l3.25 1.88zM58.33 75.28 56.11 74v-1.02l2.22 1.28z"/><path fill="#8e4f4e" d="m62.33 77.59-4-2.31v-1.02l4 2.31z"/><path fill="#ffb5b3" d="m66.33 79.9-4-2.31v-1.02l4 2.31z"/><path fill="#8e4f4e" d="m70.33 82.21-4-2.31v-1.02l4 2.31z"/><path fill="#cc807e" d="m74.33 84.52-4-2.31v-1.02l4 2.31z"/><path fill="#8e4f4e" d="m75.35 85.11-1.44-.83v-1.02l1.44.83z"/><path fill="#cc807e" d="m60.1 75.28-4-2.31v-1.01l4 2.3zm4 2.31-4-2.31v-1.02l4 2.31zm4 2.31-4-2.31v-1.02l4 2.31z"/><path fill="#cc807e" d="m72.1 82.21-4-2.31v-1.02l4 2.31zm3.25 1.88-3.25-1.88v-1.02l3.25 1.88zM58.33 73.24l-2.22-1.28v-1.02l2.22 1.28zm4 2.31-4-2.31v-1.02l4 2.31z"/><path fill="#8e4f4e" d="m66.33 77.86-4-2.31v-1.02l4 2.31z"/><path fill="#cc807e" d="m70.33 80.17-4-2.31v-1.02l4 2.31z"/><path fill="#ffb5b3" d="m74.33 82.48-4-2.31v-1.02l4 2.31z"/><path fill="#cc807e" d="m75.35 83.07-1.44-.83v-1.02l1.44.83zM60.1 73.24l-4-2.3v-1.03l4 2.31zm4 2.31-4-2.31v-1.02l4 2.31zm4 2.31-4-2.31v-1.02l4 2.31zm4 2.31-4-2.31v-1.02l4 2.31z"/><path fill="#8e4f4e" d="m75.35 82.05-3.25-1.88v-1.02l3.25 1.88z"/><path fill="#ffb5b3" d="m58.33 71.2-2.22-1.28V68.9l2.22 1.28z"/><path fill="#cc807e" d="m62.33 73.51-4-2.31v-1.02l4 2.31zm4 2.31-4-2.31v-1.02l4 2.31zm4 2.31-4-2.31V74.8l4 2.31zm4 2.31-4-2.31v-1.02l4 2.31z"/><path fill="#cc807e" d="m75.35 81.03-1.44-.83v-1.02l1.44.83zM60.1 71.2l-4-2.31v-1.02l4 2.31zm4 2.31-4-2.31v-1.02l4 2.31zm4 2.31-4-2.31v-1.02l4 2.31z"/><path fill="#ffb5b3" d="m72.1 78.13-4-2.31V74.8l4 2.31z"/><path fill="#cc807e" d="m75.35 80.01-3.25-1.88v-1.02l3.25 1.88zM58.33 69.16l-2.22-1.28v-1.02l2.22 1.28zm4 2.31-4-2.31v-1.02l4 2.31z"/><path fill="#ffb5b3" d="m66.33 73.78-4-2.31v-1.02l4 2.31z"/><path fill="#cc807e" d="m70.33 76.09-4-2.31v-1.02l4 2.31zm4 2.31-4-2.31v-1.02l4 2.31z"/><path fill="#ffb5b3" d="m75.35 78.99-1.44-.83v-1.02l1.44.83z"/><path fill="#fff" d="m68.02 53.38-.05 16.31L0 30.44l.05-16.3z" style="mix-blend-mode:soft-light" transform="translate(7.33 24.58)"/></g><path fill="#fff" fill-rule="nonzero" d="M101.08 62.11 75.33 77.07 5.94 37.01l25.75-14.96z"/><path fill="#7a8799" fill-rule="nonzero" d="M31.72 25.52v22.9L13.66 37.99l-1.73-1L31.7 25.51z"/><path fill="#c3ccd9" fill-rule="nonzero" d="m95.09 62.11-1.73 1L75.33 73.6 31.72 48.42v-22.9z"/><path fill="#6ee7ff" fill-rule="nonzero" d="M93.36 63.12 75.33 73.61 13.66 38 31.7 27.52z"/><path stroke="#fff" stroke-linecap="round" d="m25.33 39.04-2-1.15"/><path stroke="#fff" stroke-linecap="round" d="m81.01 61.3-2.95-1.71" opacity=".6"/><path stroke="#fff" stroke-linecap="round" d="m70.15 66.74-1.3-.75"/><path stroke="#fff" stroke-linecap="round" d="m62.1 56.29-2.95-1.7M40.67 39.22l-2.95-1.71" opacity=".6"/><path stroke="#fff" stroke-linecap="round" d="m41.95 49.35-1.71-.98m16.45-.48-2.95-1.7"/><path fill="#7a8799" fill-rule="nonzero" d="m101.08 62.11-.01 1.63L75.33 78.7v-1.63z"/><path fill="#c3ccd9" fill-rule="nonzero" d="M75.33 77.07v1.63L5.94 38.64v-1.63z"/><g fill-rule="nonzero"><path fill="#fff" d="M73.6 49.68 53.25 61.5l-1.73-.99 20.36-11.83z"/><path fill="#7a8799" d="M73.6 49.68v1.63L53.24 63.13l.01-1.63z"/><path fill="#898989" d="m53.25 61.5-.01 1.63-1.72-.99v-1.63z"/></g><g fill-rule="nonzero"><path fill="#fff" d="M51.17 36.96 30.81 48.79l-1.72-1 20.35-11.83z"/><path fill="#7a8799" d="m51.17 36.96-.01 1.63-20.35 11.83v-1.63z"/><path fill="#898989" d="M30.81 48.79v1.63l-1.73-1 .01-1.63z"/></g><path fill="#fff" fill-rule="nonzero" d="m56.66 62.84-2.99 1.73-31.75-18.33 2.98-1.74z"/><g fill-rule="nonzero"><path fill="#e68a2e" d="M83.02 57.8v.92a1.41 1.41 0 0 1-.82 1.15 4.41 4.41 0 0 1-4 0 1.41 1.41 0 0 1-.84-1.16v-.92a1.4 1.4 0 0 0 .83 1.16 4.41 4.41 0 0 0 4 0 1.38 1.38 0 0 0 .83-1.15"/><path fill="#ffcd33" d="M82.18 56.67c1.11.64 1.12 1.67 0 2.31a4.41 4.41 0 0 1-4 0 1.22 1.22 0 0 1 0-2.31 4.39 4.39 0 0 1 4 0"/></g><g fill-rule="nonzero"><path fill="#e68a2e" d="M107.31 44.13v.91a1.41 1.41 0 0 1-.82 1.15 4.41 4.41 0 0 1-4 0 1.38 1.38 0 0 1-.83-1.16v-.92a1.4 1.4 0 0 0 .83 1.16 4.41 4.41 0 0 0 4 0 1.38 1.38 0 0 0 .82-1.14"/><path fill="#ffcd33" d="M106.47 42.96c1.11.64 1.12 1.67 0 2.31a4.41 4.41 0 0 1-4 0 1.22 1.22 0 0 1 0-2.31 4.39 4.39 0 0 1 4 0"/></g><path fill="#2e8be6" fill-rule="nonzero" d="M106.7 42.39a5.4 5.4 0 0 0-.09-1 4.3 4.3 0 0 0-.26-.88 3.88 3.88 0 0 0-1.71-2 5.05 5.05 0 0 0-5.1.33L82.77 48.5a10 10 0 0 0-4.89 7.88v1.07c-.01.511.29.977.76 1.18.976.5 2.134.5 3.11 0a1.25 1.25 0 0 0 .67-1.25v-1a5.61 5.61 0 0 1 2.68-3.93l16.72-9.65a2.4 2.4 0 0 1 .32-.16v.94a1.38 1.38 0 0 0 .79 1.31c.98.5 2.14.5 3.12 0a1.32 1.32 0 0 0 .66-1.3v-.82z"/><g fill-rule="nonzero"><path fill="#e68a2e" d="M61.03 45.44v.92a1.39 1.39 0 0 1-.82 1.15 4.41 4.41 0 0 1-4 0 1.41 1.41 0 0 1-.83-1.17v-.91c.048.507.365.95.83 1.16a4.41 4.41 0 0 0 4 0 1.39 1.39 0 0 0 .82-1.15"/><path fill="#ffcd33" d="M60.2 44.28a1.22 1.22 0 0 1 0 2.31 4.41 4.41 0 0 1-4 0 1.22 1.22 0 0 1 0-2.31 4.41 4.41 0 0 1 4 0"/></g><g fill-rule="nonzero"><path fill="#e68a2e" d="M85.32 31.73v.92a1.39 1.39 0 0 1-.86 1.15 4.41 4.41 0 0 1-4 0 1.42 1.42 0 0 1-.83-1.17v-.91c.048.507.365.95.83 1.16a4.41 4.41 0 0 0 4 0 1.39 1.39 0 0 0 .86-1.15"/><path fill="#ffcd33" d="M84.49 30.57a1.22 1.22 0 0 1 0 2.31 4.41 4.41 0 0 1-4 0 1.22 1.22 0 0 1 0-2.31 4.41 4.41 0 0 1 4 0"/></g><path fill="#2e8be6" fill-rule="nonzero" d="M84.72 30a4.7 4.7 0 0 0-.1-1 4.2 4.2 0 0 0-.25-.88 4 4 0 0 0-1.71-2 5.1 5.1 0 0 0-5.11.34l-16.77 9.65a10 10 0 0 0-4.88 7.87v1.08c-.01.511.29.977.76 1.18.976.5 2.134.5 3.11 0a1.28 1.28 0 0 0 .67-1.25v-1a5.67 5.67 0 0 1 2.66-3.94l16.77-9.66.33-.17v.94a1.4 1.4 0 0 0 .79 1.32c.976.5 2.134.5 3.11 0a1.32 1.32 0 0 0 .67-1.31v-.81z"/><g fill-rule="nonzero"><path fill="#e68a2e" d="M39.75 32.68v.91a1.38 1.38 0 0 1-.82 1.15 4.41 4.41 0 0 1-4 0 1.42 1.42 0 0 1-.83-1.16v-.92c.055.5.371.934.83 1.14a4.41 4.41 0 0 0 4 0 1.38 1.38 0 0 0 .82-1.12"/><path fill="#ffcd33" d="M38.92 31.51a1.22 1.22 0 0 1 0 2.31 4.41 4.41 0 0 1-4 0 1.22 1.22 0 0 1 0-2.31 4.41 4.41 0 0 1 4 0"/></g><g fill-rule="nonzero"><path fill="#e68a2e" d="M64.04 18.97v.92a1.38 1.38 0 0 1-.82 1.14 4.41 4.41 0 0 1-4 0 1.42 1.42 0 0 1-.83-1.16v-.92c.05.512.371.958.84 1.17a4.42 4.42 0 0 0 4 0 1.4 1.4 0 0 0 .81-1.15"/><path fill="#ffcd33" d="M63.21 17.8a1.23 1.23 0 0 1 0 2.32 4.42 4.42 0 0 1-4 0 1.23 1.23 0 0 1 0-2.32 4.41 4.41 0 0 1 4 0"/></g><path fill="#2e8be6" fill-rule="nonzero" d="M63.44 17.23a4.5 4.5 0 0 0-.1-1 4.2 4.2 0 0 0-.25-.89 4 4 0 0 0-1.71-2 5.07 5.07 0 0 0-5.11.33L39.5 23.34a10 10 0 0 0-4.88 7.88v1.07c-.01.514.29.984.76 1.19a3.47 3.47 0 0 0 3.11 0 1.28 1.28 0 0 0 .67-1.25v-1a5.63 5.63 0 0 1 2.6-3.93l16.77-9.66a1.7 1.7 0 0 1 .33-.17v.94a1.41 1.41 0 0 0 .79 1.32 3.47 3.47 0 0 0 3.11 0 1.33 1.33 0 0 0 .67-1.31v-.81z"/></g></svg>