<svg xmlns="http://www.w3.org/2000/svg" viewBox="0 0 125 152"><title>Primary clarifier（初沉池）</title><defs><linearGradient id="a" x1="0%" x2="100.065%" y1="50%" y2="50%"><stop offset="0%" stop-color="#6b6b6b"/><stop offset="11%" stop-color="#767676"/><stop offset="30%" stop-color="#959595"/><stop offset="41%" stop-color="#aaa"/><stop offset="56%" stop-color="#ccc"/><stop offset="71%" stop-color="#eaeaea"/><stop offset="80%" stop-color="#f6f6f6"/><stop offset="83%" stop-color="#ededed"/><stop offset="87%" stop-color="#d4d4d4"/><stop offset="92%" stop-color="#ababab"/><stop offset="98%" stop-color="#737373"/><stop offset="99%" stop-color="#666"/></linearGradient><linearGradient id="b" x1="0%" x2="100%" y1="50%" y2="50%"><stop offset="0%" stop-color="#e2e2e2"/><stop offset="3%" stop-color="#d0d0d0"/><stop offset="6%" stop-color="#bcbcbc"/><stop offset="9%" stop-color="#b5b5b5"/><stop offset="49%" stop-color="#f6f6f6"/><stop offset="63%" stop-color="#f3f3f3"/><stop offset="73%" stop-color="#eaeaea"/><stop offset="82%" stop-color="#dbdbdb"/><stop offset="90%" stop-color="#c6c6c6"/><stop offset="97%" stop-color="#aaa"/><stop offset="100%" stop-color="#9b9b9b"/></linearGradient><linearGradient id="c" x1="-.065%" x2="100%" y1="50%" y2="50%"><stop offset="0%" stop-color="#6b6b6b"/><stop offset="11%" stop-color="#767676"/><stop offset="30%" stop-color="#959595"/><stop offset="41%" stop-color="#aaa"/><stop offset="56%" stop-color="#ccc"/><stop offset="71%" stop-color="#eaeaea"/><stop offset="80%" stop-color="#f6f6f6"/><stop offset="83%" stop-color="#ededed"/><stop offset="87%" stop-color="#d4d4d4"/><stop offset="92%" stop-color="#ababab"/><stop offset="98%" stop-color="#737373"/><stop offset="99%" stop-color="#666"/></linearGradient></defs><g fill="none" fill-rule="nonzero" transform="translate(.1 .8)"><path fill="#a3a4a4" d="M21.14 76.84h82.27v73.43H21.14z"/><path fill="#dbdbdb" d="M26.48 76.96h71.79v68.05H26.48z"/><path fill="#dbdbdb" d="M12.2 88.71h17.88v20.48H12.2z"/><circle cx="21.25" cy="98.99" r="7.68" fill="url(#a)"/><circle cx="21.25" cy="98.99" r="6.14" fill="url(#b)"/><path fill="#dbdbdb" d="M94.37 88.86h17.88v20.48H94.37z"/><path fill="#a3a4a4" d="M0 0h124.6v76.96H0z"/><circle cx="103.42" cy="99.14" r="7.68" fill="url(#c)"/><path fill="#dbdbdb" d="M4.3 4.62h115.8V72.6H4.3z"/><circle cx="103.42" cy="99.14" r="6.14" fill="url(#b)"/><path fill="#a3a4a4" d="M32.19 80.98h26.19v60.15H32.19z"/><path fill="#dbdbdb" d="M32.19 88.39h26.19v2.12H32.19zm0 8.79h26.19v2.12H32.19zm0 8.78h26.19v2.12H32.19zm0 8.78h26.19v2.12H32.19zm0 8.79h26.19v2.12H32.19zm0 8.78h26.19v2.12H32.19z"/><path fill="#a3a4a4" d="M10.84 7.94h48.34v60.15H10.84z"/><path fill="#dbdbdb" d="M10.84 15.36h48.34v2.12H10.84zm0 8.78h48.34v2.12H10.84zm0 8.79h48.34v2.12H10.84zm0 8.78h48.34v2.12H10.84zm0 8.78h48.34v2.12H10.84zm0 8.78h48.34v2.12H10.84z"/><path fill="#a3a4a4" d="M65.31 7.94h48.34v60.15H65.31z"/><path fill="#dbdbdb" d="M65.31 15.36h48.34v2.12H65.31zm0 8.78h48.34v2.12H65.31zm0 8.79h48.34v2.12H65.31zm0 8.78h48.34v2.12H65.31zm0 8.78h48.34v2.12H65.31zm0 8.78h48.34v2.12H65.31z"/><path fill="#a3a4a4" d="M65.97 80.98h26.19v60.15H65.97z"/><path fill="#dbdbdb" d="M65.97 88.39h26.19v2.12H65.97zm0 8.79h26.19v2.12H65.97zm0 8.78h26.19v2.12H65.97zm0 8.78h26.19v2.12H65.97zm0 8.79h26.19v2.12H65.97zm0 8.78h26.19v2.12H65.97zM53.88 72.59h17.46v5.3H53.88z"/></g></svg>