<svg xmlns="http://www.w3.org/2000/svg" viewBox="0 0 151 108"><title>Rotary drum thickener（转鼓浓缩机）</title><defs><linearGradient id="a" x1="0%" x2="100%" y1="50%" y2="50%"><stop offset="0%" stop-color="#6b6b6b"/><stop offset="1%" stop-color="#767676"/><stop offset="3%" stop-color="#959595"/><stop offset="4%" stop-color="#aaa"/><stop offset="14%" stop-color="#b1b1b1"/><stop offset="65%" stop-color="#cfcfcf"/><stop offset="94%" stop-color="#dbdbdb"/><stop offset="95%" stop-color="#d2d2d2"/><stop offset="96%" stop-color="#b9b9b9"/><stop offset="98%" stop-color="#909090"/><stop offset="99%" stop-color="#666"/></linearGradient><linearGradient id="b" x1="0%" x2="100%" y1="50%" y2="50%"><stop offset="0%" stop-color="#6b6b6b"/><stop offset="1%" stop-color="#767676"/><stop offset="3%" stop-color="#959595"/><stop offset="4%" stop-color="#aaa"/><stop offset="14%" stop-color="#b1b1b1"/><stop offset="65%" stop-color="#cfcfcf"/><stop offset="94%" stop-color="#dbdbdb"/><stop offset="95%" stop-color="#d2d2d2"/><stop offset="96%" stop-color="#b9b9b9"/><stop offset="98%" stop-color="#909090"/><stop offset="99%" stop-color="#666"/></linearGradient><linearGradient id="c" x1="50.02%" x2="50.02%" y1="100%" y2="0%"><stop offset="0%" stop-color="#6b6b6b"/><stop offset="11%" stop-color="#767676"/><stop offset="30%" stop-color="#959595"/><stop offset="41%" stop-color="#aaa"/><stop offset="56%" stop-color="#ccc"/><stop offset="71%" stop-color="#eaeaea"/><stop offset="80%" stop-color="#f6f6f6"/><stop offset="83%" stop-color="#ededed"/><stop offset="87%" stop-color="#d4d4d4"/><stop offset="92%" stop-color="#ababab"/><stop offset="98%" stop-color="#737373"/><stop offset="99%" stop-color="#666"/></linearGradient></defs><g fill="none" fill-rule="nonzero" transform="translate(.1 .8)"><path fill="url(#a)" d="M0 13.59h137.19v58.12H0z"/><path fill="#dbdbdb" d="M0 22.62h47.21v45.74H0z"/><path fill="#1a1d1a" d="M8.52 28.8h3.66v6.74H8.52z"/><path fill="#eee" d="M9.21 29.84h2.44v2.9H9.21z"/><path fill="#717070" d="M9.21 33.59h2.44v1.27H9.21z"/><path fill="#1a1d1a" d="M35.68 28.8h3.66v6.74h-3.66z"/><path fill="#eee" d="M36.38 29.84h2.44v2.9h-2.44z"/><path fill="#717070" d="M36.38 33.59h2.44v1.27h-2.44z"/><circle cx="10.05" cy="44.04" r="2.19" fill="#83c9cb"/><circle cx="10.05" cy="44.04" r="1" fill="#1a1d1a"/><circle cx="19.27" cy="44.04" r="2.19" fill="#83c9cb"/><circle cx="19.27" cy="44.04" r="1" fill="#1a1d1a"/><circle cx="28.49" cy="44.04" r="2.19" fill="#83c9cb"/><circle cx="28.49" cy="44.04" r="1" fill="#1a1d1a"/><circle cx="37.59" cy="43.9" r="2.19" fill="#83c9cb"/><circle cx="37.59" cy="43.9" r="1" fill="#1a1d1a"/><circle cx="10.05" cy="52.56" r="2.19" fill="#8da130"/><circle cx="10.05" cy="52.56" r="1" fill="#1a1d1a"/><circle cx="9.64" cy="60.53" r="2.19" fill="#808181"/><circle cx="9.64" cy="60.53" r="1" fill="#1a1d1a"/><circle cx="37.78" cy="60.53" r="2.19" fill="#808181"/><circle cx="37.78" cy="60.53" r="1" fill="#1a1d1a"/><circle cx="19.27" cy="52.56" r="2.19" fill="#8da130"/><circle cx="19.27" cy="52.56" r="1" fill="#1a1d1a"/><circle cx="19.27" cy="60.53" r="2.19" fill="#b86e76"/><circle cx="19.27" cy="60.53" r="1" fill="#1a1d1a"/><circle cx="28.77" cy="60.53" r="2.19" fill="#b86e76"/><circle cx="28.77" cy="60.53" r="1" fill="#1a1d1a"/><circle cx="28.49" cy="52.56" r="2.19" fill="#8da130"/><circle cx="28.49" cy="52.56" r="1" fill="#1a1d1a"/><circle cx="37.59" cy="52.42" r="2.19" fill="#8da130"/><circle cx="37.59" cy="52.42" r="1" fill="#1a1d1a"/><path fill="url(#b)" d="M137.19 28.8H150v35.7h-12.81z"/><path fill="#dbdbdb" d="M0 0h137.19v13.59H0zm10.8 71.71h9.22v33.12H10.8z"/><path fill="#dbdbdb" d="M20.02 82.92V71.71h7.71zm-9.22 0V71.71H3.09z"/><rect width="15.42" height="1.82" x="7.59" y="104.83" fill="#dbdbdb" rx=".27"/><path fill="#dbdbdb" d="M118.2 71.71h9.22v33.12h-9.22zM127.42 82.92V71.71h7.71zm-9.22 0V71.71h-7.71z"/><rect width="15.42" height="1.82" x="114.99" y="104.83" fill="#dbdbdb" rx=".27"/><rect width="24.85" height="2.6" x="56.48" y="19.87" fill="url(#c)" rx=".38"/></g></svg>