<svg xmlns="http://www.w3.org/2000/svg" viewBox="0 0 130 151"><title>Screen（屏幕）</title><g fill="none" fill-rule="nonzero"><path fill="#888" d="m127.9 20.6 1.7 1.6L1.3 150.5H.099v-2.191zm-.7 21.4 1.6 1.6L21.9 150.5h-3.279zm.7 19.8 1.7 1.7-87 87h-3.4zm1.699 19.001v3.298L63.15 150.5h-3.249zm0 20.7v3.2L83.8 150.5h-3.2zm0 20.505v3.395L104.5 150.5h-3.375zM126.9.5l1.6 1.6L.099 130.501v-3.2zm-19.001 0 1.001 1L.099 110.301v-3.2L106.701.5zM89.3.5.099 89.701v-3.3L86 .5zM68.601.5.099 69.001v-3.2L65.401.5zM48.025.5.099 48.46v-3.359L44.7.5zM27.336.5.099 27.757v-3.256L24.101.5z"/><path fill="#e7e7e7" d="M.099 123.099 27.5 150.5h-3.243L.099 126.36zm0-21.601L49.1 150.5h-3.299L.099 104.798zm0-20.7L69.8 150.5h-3.336L.099 84.182zm0-20.6 90.3 90.302h-3.221L.099 63.484zm0-20.699L111.1 150.5h-3.4L.099 42.899zm0-20.601L129.6 148.399v2.101h-1.102L.099 22.192zM3.2 1l126.399 126.4v3.2L1.6 2.6zM22.999.5l106.6 106.599v3.301L19.699.5zm20.6 0 86 85.999v3.3L40.299.5zm20.599 0 65.401 65.4v3.199L60.999.5zM84.9.5l44.699 44.699v3.3L81.599.5zm20.599 0 24.1 24.1v3.199L102.3.5z"/><path fill="#dbdbdb" d="M.1 150.5V.5h129.5v150zM123 5.4H5.7v140.4H123z"/></g></svg>