<svg xmlns="http://www.w3.org/2000/svg" viewBox="0 0 151 128"><title>Settling tank（沉淀池）</title><g fill="none" fill-rule="nonzero"><path fill="#b6e1f3" d="M4.86 4.76H147.6v98.71H4.86z"/><path fill="#595757" d="M146.29 108.06 75.1 119.8 7.33 108.06V83.6s2.45-5.3 4.55-5.36c1.17 0 1.71 2.56 2.82 2.86 2.17.59 6.65-1.9 8.93-1.67 2.8.29 7.06 4 9.88 4.17 2.35.12 6.42-2.7 8.78-2.62 3.32.11 8.6 4.8 11.91 4.52 2.21-.18 4.67-4.18 6.9-4.28 1.76-.08 4.19 2.79 6 2.85 2.19.09 5.65-2.9 7.84-3 2.65-.09 7.22 3 9.88 3s7.42-3.52 10.19-3.33c2.47.17 5.84 4.43 8.3 4.17 2.09-.23 3.38-5 5.49-4.88 1.43 0 1.95 3.17 3.29 3.57 1.72.51 5.37-1.26 7.21-1.19 2.39.09 6.72 2 9.09 2.26 4.47.41 17.95-1.07 17.95-1.07z"/><path fill="#e2e2e2" d="M143.69.83v103.15L75.1 119.83 8.34 104.18V.8L.1.91v107.14l74.29 19.28 75.71-19.28V.91z"/></g></svg>