<svg xmlns="http://www.w3.org/2000/svg" viewBox="0 0 69 151"><title>Simple filter 2（简易过滤器） (2)</title><defs><linearGradient id="a" x1="0%" x2="100.182%" y1="50.072%" y2="50.072%"><stop offset="0%" stop-color="#e2e2e2"/><stop offset="3%" stop-color="#d0d0d0"/><stop offset="6%" stop-color="#bcbcbc"/><stop offset="9%" stop-color="#b5b5b5"/><stop offset="49%" stop-color="#f6f6f6"/><stop offset="63%" stop-color="#f3f3f3"/><stop offset="73%" stop-color="#eaeaea"/><stop offset="82%" stop-color="#dbdbdb"/><stop offset="90%" stop-color="#c6c6c6"/><stop offset="97%" stop-color="#aaa"/><stop offset="100%" stop-color="#9b9b9b"/></linearGradient><linearGradient id="b" x1="0%" x2="100%" y1="49.988%" y2="49.988%"><stop offset="0%" stop-color="#e2e2e2"/><stop offset="3%" stop-color="#d0d0d0"/><stop offset="6%" stop-color="#bcbcbc"/><stop offset="9%" stop-color="#b5b5b5"/><stop offset="49%" stop-color="#f6f6f6"/><stop offset="63%" stop-color="#f3f3f3"/><stop offset="73%" stop-color="#eaeaea"/><stop offset="82%" stop-color="#dbdbdb"/><stop offset="90%" stop-color="#c6c6c6"/><stop offset="97%" stop-color="#aaa"/><stop offset="100%" stop-color="#9b9b9b"/></linearGradient><linearGradient id="c" x1="0%" x2="100%" y1="49.991%" y2="49.991%"><stop offset="0%" stop-color="#e2e2e2"/><stop offset="3%" stop-color="#d0d0d0"/><stop offset="6%" stop-color="#bcbcbc"/><stop offset="9%" stop-color="#b5b5b5"/><stop offset="49%" stop-color="#f6f6f6"/><stop offset="63%" stop-color="#f3f3f3"/><stop offset="73%" stop-color="#eaeaea"/><stop offset="82%" stop-color="#dbdbdb"/><stop offset="90%" stop-color="#c6c6c6"/><stop offset="97%" stop-color="#aaa"/><stop offset="100%" stop-color="#9b9b9b"/></linearGradient><linearGradient id="d" x1="0%" x2="100.032%" y1="50%" y2="50%"><stop offset="0%" stop-color="#e2e2e2"/><stop offset="3%" stop-color="#d0d0d0"/><stop offset="6%" stop-color="#bcbcbc"/><stop offset="9%" stop-color="#b5b5b5"/><stop offset="49%" stop-color="#f6f6f6"/><stop offset="63%" stop-color="#f3f3f3"/><stop offset="73%" stop-color="#eaeaea"/><stop offset="82%" stop-color="#dbdbdb"/><stop offset="90%" stop-color="#c6c6c6"/><stop offset="97%" stop-color="#aaa"/><stop offset="100%" stop-color="#9b9b9b"/></linearGradient><linearGradient id="e" x1="50.041%" x2="50.041%" y1="100.097%" y2="0%"><stop offset="0%" stop-color="#e2e2e2"/><stop offset="3%" stop-color="#d0d0d0"/><stop offset="6%" stop-color="#bcbcbc"/><stop offset="9%" stop-color="#b5b5b5"/><stop offset="49%" stop-color="#f6f6f6"/><stop offset="63%" stop-color="#f3f3f3"/><stop offset="73%" stop-color="#eaeaea"/><stop offset="82%" stop-color="#dbdbdb"/><stop offset="90%" stop-color="#c6c6c6"/><stop offset="97%" stop-color="#aaa"/><stop offset="100%" stop-color="#9b9b9b"/></linearGradient><linearGradient id="f" x1="50.041%" x2="50.041%" y1="100.097%" y2="0%"><stop offset="0%" stop-color="#e2e2e2"/><stop offset="3%" stop-color="#d0d0d0"/><stop offset="6%" stop-color="#bcbcbc"/><stop offset="9%" stop-color="#b5b5b5"/><stop offset="49%" stop-color="#f6f6f6"/><stop offset="63%" stop-color="#f3f3f3"/><stop offset="73%" stop-color="#eaeaea"/><stop offset="82%" stop-color="#dbdbdb"/><stop offset="90%" stop-color="#c6c6c6"/><stop offset="97%" stop-color="#aaa"/><stop offset="100%" stop-color="#9b9b9b"/></linearGradient><linearGradient id="g" x1="49.756%" x2="49.756%" y1="0%" y2="100%"><stop offset="0%" stop-color="#6b6b6b"/><stop offset="11%" stop-color="#767676"/><stop offset="30%" stop-color="#959595"/><stop offset="41%" stop-color="#aaa"/><stop offset="56%" stop-color="#ccc"/><stop offset="71%" stop-color="#eaeaea"/><stop offset="80%" stop-color="#f6f6f6"/><stop offset="83%" stop-color="#ededed"/><stop offset="87%" stop-color="#d4d4d4"/><stop offset="92%" stop-color="#ababab"/><stop offset="98%" stop-color="#737373"/><stop offset="99%" stop-color="#666"/></linearGradient><linearGradient id="h" x1="50.123%" x2="50.123%" y1="0%" y2="100%"><stop offset="0%" stop-color="#e2e2e2"/><stop offset="3%" stop-color="#d0d0d0"/><stop offset="6%" stop-color="#bcbcbc"/><stop offset="9%" stop-color="#b5b5b5"/><stop offset="49%" stop-color="#f6f6f6"/><stop offset="63%" stop-color="#f3f3f3"/><stop offset="73%" stop-color="#eaeaea"/><stop offset="82%" stop-color="#dbdbdb"/><stop offset="90%" stop-color="#c6c6c6"/><stop offset="97%" stop-color="#aaa"/><stop offset="100%" stop-color="#9b9b9b"/></linearGradient><linearGradient id="i" x1="50%" x2="50%" y1="-.017%" y2="100%"><stop offset="0%" stop-color="#e2e2e2"/><stop offset="3%" stop-color="#d0d0d0"/><stop offset="6%" stop-color="#bcbcbc"/><stop offset="9%" stop-color="#b5b5b5"/><stop offset="49%" stop-color="#f6f6f6"/><stop offset="63%" stop-color="#f3f3f3"/><stop offset="73%" stop-color="#eaeaea"/><stop offset="82%" stop-color="#dbdbdb"/><stop offset="90%" stop-color="#c6c6c6"/><stop offset="97%" stop-color="#aaa"/><stop offset="100%" stop-color="#9b9b9b"/></linearGradient><linearGradient id="j" x1="49.756%" x2="49.756%" y1="0%" y2="100%"><stop offset="0%" stop-color="#6b6b6b"/><stop offset="11%" stop-color="#767676"/><stop offset="30%" stop-color="#959595"/><stop offset="41%" stop-color="#aaa"/><stop offset="56%" stop-color="#ccc"/><stop offset="71%" stop-color="#eaeaea"/><stop offset="80%" stop-color="#f6f6f6"/><stop offset="83%" stop-color="#ededed"/><stop offset="87%" stop-color="#d4d4d4"/><stop offset="92%" stop-color="#ababab"/><stop offset="98%" stop-color="#737373"/><stop offset="99%" stop-color="#666"/></linearGradient><linearGradient id="k" x1="50%" x2="50%" y1="-.015%" y2="100%"><stop offset="0%" stop-color="#6b6b6b"/><stop offset="11%" stop-color="#767676"/><stop offset="30%" stop-color="#959595"/><stop offset="41%" stop-color="#aaa"/><stop offset="56%" stop-color="#ccc"/><stop offset="71%" stop-color="#eaeaea"/><stop offset="80%" stop-color="#f6f6f6"/><stop offset="83%" stop-color="#ededed"/><stop offset="87%" stop-color="#d4d4d4"/><stop offset="92%" stop-color="#ababab"/><stop offset="98%" stop-color="#737373"/><stop offset="99%" stop-color="#666"/></linearGradient><linearGradient id="l" x1="50%" x2="50%" y1="100%" y2="0%"><stop offset="0%" stop-color="#e2e2e2"/><stop offset="3%" stop-color="#d0d0d0"/><stop offset="6%" stop-color="#bcbcbc"/><stop offset="9%" stop-color="#b5b5b5"/><stop offset="49%" stop-color="#f6f6f6"/><stop offset="63%" stop-color="#f3f3f3"/><stop offset="73%" stop-color="#eaeaea"/><stop offset="82%" stop-color="#dbdbdb"/><stop offset="90%" stop-color="#c6c6c6"/><stop offset="97%" stop-color="#aaa"/><stop offset="100%" stop-color="#9b9b9b"/></linearGradient></defs><g fill="none" fill-rule="evenodd" transform="translate(.1 .8)"><path fill="url(#a)" fill-rule="nonzero" d="M33.45 18.33h5.5v6.95h-5.5z"/><circle cx="35.82" cy="9.58" r="8.75" fill="#fff" fill-rule="nonzero"/><path fill="#eaeaea" fill-rule="nonzero" d="M27.06 9.58a8.75 8.75 0 0 0 3.83 7.23q.646.096 1.3.1a9.45 9.45 0 0 0 9.37-9.54 9.53 9.53 0 0 0-1.79-5.59 8.75 8.75 0 0 0-12.71 7.8"/><path fill="#7f7f7f" fill-rule="nonzero" d="M35.82 0a9.58 9.58 0 1 0-.02 19.16A9.58 9.58 0 0 0 35.82 0m0 18.33a8.75 8.75 0 1 1 8.75-8.75 8.76 8.76 0 0 1-8.75 8.75"/><circle cx="35.82" cy="9.58" r="8.4" fill="#c1c1c1" fill-rule="nonzero" opacity=".51"/><path fill="#7f7f7f" fill-rule="nonzero" d="m38.28 12 .72-1.15a.37.37 0 0 0-.13-.51h-.17a6.4 6.4 0 0 1-1.76-.62c-1.52-.87-7.43-4.76-7.43-4.76s5.49 4.25 7.1 5.62q.577.623 1 1.36a.2.2 0 0 0 0 .09l.08.07a.37.37 0 0 0 .59-.1"/><circle cx="36.11" cy="9.69" r="1" fill="#7f7f7f" fill-rule="nonzero"/><path stroke="#7f7f7f" stroke-width=".25" d="m39.58 2.63-.62 1.16m-6.65-1.16.62 1.16m-4.82 4.75 1.31.19m14.44-.23-1.31.19"/><circle cx="36.11" cy="9.69" r="1" fill="#dedede" fill-rule="nonzero"/><path fill="#dbdbdb" fill-rule="nonzero" d="M3.23 49.09h17.72v16.3H3.23z"/><path fill="url(#b)" fill-rule="nonzero" d="M12.57 39.46h47.49v41.11H12.57z"/><path fill="url(#c)" fill-rule="nonzero" d="M12.57 84.07h47.49v54.84a1.49 1.49 0 0 1-1.49 1.49H14.06a1.49 1.49 0 0 1-1.49-1.49z"/><path fill="url(#d)" fill-rule="nonzero" d="M20.7 140.4h30.9v9.6H20.7z"/><path fill="url(#e)" fill-rule="nonzero" d="M3.23 41.75h23.12a1.1 1.1 0 0 1 1.1 1.1V51a1.1 1.1 0 0 1-1.1 1.1H3.23z"/><path fill="url(#f)" fill-rule="nonzero" d="M3.23 63.55h23.12a1.1 1.1 0 0 1 1.1 1.1v8.16a1.1 1.1 0 0 1-1.1 1.1H3.23z"/><path fill="url(#g)" fill-rule="nonzero" d="M34.545 2.425h2.05v51.72h-2.05z" transform="rotate(90 35.57 28.285)"/><path fill="url(#h)" fill-rule="nonzero" d="M31.53 7.5h8.1v51.72h-8.1z" transform="rotate(90 35.58 33.36)"/><rect width="3.2" height="59.39" x="34.105" y="-4.035" fill="url(#i)" fill-rule="nonzero" rx=".34" transform="rotate(90 35.705 25.66)"/><path fill="url(#j)" fill-rule="nonzero" d="M35.29 14.69h2.05v47.49h-2.05z" transform="rotate(90 36.315 38.435)"/><rect width="3.5" height="65.14" x="33.79" y="49.75" fill="url(#k)" fill-rule="nonzero" rx=".37" transform="rotate(90 35.54 82.32)"/><rect width="3.5" height="37.48" y="39.23" fill="url(#l)" fill-rule="nonzero" rx=".37"/></g></svg>