<svg xmlns="http://www.w3.org/2000/svg" viewBox="0 0 151 128"><title>Sludge thickener（污泥浓缩池）</title><g fill="none" fill-rule="nonzero"><path fill="#a58c7a" d="M3.2 11.898c1.63-.04 2.91 1.131 4.114 2.588l.326.403.485.623.781 1.018.38.48c1.08 1.34 2.22 2.496 3.614 2.79 3.04.657 7.428-.12 12.086-1.215l1.22-.292 2.46-.61 3.068-.765 1.211-.293 1.196-.279 1.176-.26C38.422 15.42 41.271 15 43.5 15.2c2.943.245 6.355 1.392 9.949 2.877l1.083.455q.273.116.545.234l1.097.479 1.103.49 1.108.5 3.054 1.386 1.707.767 1.132.5q.566.246 1.127.485l1.118.469c3.897 1.605 7.61 2.826 10.777 2.958 2.933.109 6.626-.845 10.53-2.096l1.068-.348 1.077-.359 5.11-1.742 1.048-.35 1.039-.337q.776-.248 1.538-.478l1.008-.296c2.835-.809 5.474-1.349 7.682-1.294 3.342.088 7.26 1.268 11.415 2.874l1.139.448.573.23 1.153.475 1.161.488 1.753.75 4.672 2.028 1.584.678 1.053.443.524.217 1.046.426 1.04.413q.516.203 1.031.398l1.024.38c4.246 1.54 8.244 2.562 11.632 2.352.923-.06 1.857-.278 2.8-.612V104.8H59.32L.9 96.573V12.409c.772-.308 1.543-.49 2.3-.511"/><path fill="#595757" d="M147.2 108.2 75.9 120 8.1 108.2V83.7s2.4-5.3 4.6-5.4c1.2 0 1.7 2.6 2.8 2.9 2.2.6 6.7-1.9 8.9-1.7 2.8.3 7.1 4 9.9 4.2 2.3.1 6.4-2.7 8.8-2.6 3.3.1 8.6 4.8 11.9 4.5 2.2-.2 4.7-4.2 6.9-4.3 1.8-.1 4.2 2.8 6 2.9 2.2.1 5.7-2.9 7.8-3 2.7-.1 7.2 3 9.9 3s7.4-3.5 10.2-3.3c2.5.2 5.8 4.4 8.3 4.2 2.1-.2 3.4-5 5.5-4.9 1.4.1 2 3.2 3.3 3.6 1.7.5 5.4-1.3 7.2-1.2 2.4.1 6.7 2 9.1 2.3 4.5.4 18-1.1 18-1.1z"/><path fill="#e2e2e2" d="M144.6.8v103.3L76 120 9.1 104.3V.8L.9.9v107.3l74.3 19.3 75.8-19.3V.9z"/></g></svg>