<svg xmlns="http://www.w3.org/2000/svg" viewBox="0 0 97 152"><title>Spherical storage tank 1（球罐）</title><defs><linearGradient id="a" x1="0%" x2="100.23%" y1="50%" y2="50%"><stop offset="0%" stop-color="#e2e2e2"/><stop offset="3%" stop-color="#d0d0d0"/><stop offset="6%" stop-color="#bcbcbc"/><stop offset="9%" stop-color="#b5b5b5"/><stop offset="49%" stop-color="#f6f6f6"/><stop offset="63%" stop-color="#f3f3f3"/><stop offset="73%" stop-color="#eaeaea"/><stop offset="82%" stop-color="#dbdbdb"/><stop offset="90%" stop-color="#c6c6c6"/><stop offset="97%" stop-color="#aaa"/><stop offset="100%" stop-color="#9b9b9b"/></linearGradient><linearGradient id="b" x1="32.874%" x2="132.874%" y1="-11.818%" y2="-11.818%"><stop offset="0%" stop-color="#e2e2e2"/><stop offset="3%" stop-color="#d0d0d0"/><stop offset="6%" stop-color="#bcbcbc"/><stop offset="9%" stop-color="#b5b5b5"/><stop offset="49%" stop-color="#f6f6f6"/><stop offset="63%" stop-color="#f3f3f3"/><stop offset="73%" stop-color="#eaeaea"/><stop offset="82%" stop-color="#dbdbdb"/><stop offset="90%" stop-color="#c6c6c6"/><stop offset="97%" stop-color="#aaa"/><stop offset="100%" stop-color="#9b9b9b"/></linearGradient><linearGradient id="c" x1="0%" x2="100%" y1="50%" y2="50%"><stop offset="0%" stop-color="#e2e2e2"/><stop offset="3%" stop-color="#d0d0d0"/><stop offset="6%" stop-color="#bcbcbc"/><stop offset="9%" stop-color="#b5b5b5"/><stop offset="49%" stop-color="#f6f6f6"/><stop offset="63%" stop-color="#f3f3f3"/><stop offset="73%" stop-color="#eaeaea"/><stop offset="82%" stop-color="#dbdbdb"/><stop offset="90%" stop-color="#c6c6c6"/><stop offset="97%" stop-color="#aaa"/><stop offset="100%" stop-color="#9b9b9b"/></linearGradient><linearGradient id="d" x1="88.199%" x2="188.199%" y1="-223.252%" y2="-223.252%"><stop offset="0%" stop-color="#e2e2e2"/><stop offset="3%" stop-color="#d0d0d0"/><stop offset="6%" stop-color="#bcbcbc"/><stop offset="9%" stop-color="#b5b5b5"/><stop offset="49%" stop-color="#f6f6f6"/><stop offset="63%" stop-color="#f3f3f3"/><stop offset="73%" stop-color="#eaeaea"/><stop offset="82%" stop-color="#dbdbdb"/><stop offset="90%" stop-color="#c6c6c6"/><stop offset="97%" stop-color="#aaa"/><stop offset="100%" stop-color="#9b9b9b"/></linearGradient><linearGradient id="e" x1="32.644%" x2="132.644%" y1="-11.818%" y2="-11.818%"><stop offset="0%" stop-color="#e2e2e2"/><stop offset="3%" stop-color="#d0d0d0"/><stop offset="6%" stop-color="#bcbcbc"/><stop offset="9%" stop-color="#b5b5b5"/><stop offset="49%" stop-color="#f6f6f6"/><stop offset="63%" stop-color="#f3f3f3"/><stop offset="73%" stop-color="#eaeaea"/><stop offset="82%" stop-color="#dbdbdb"/><stop offset="90%" stop-color="#c6c6c6"/><stop offset="97%" stop-color="#aaa"/><stop offset="100%" stop-color="#9b9b9b"/></linearGradient><linearGradient id="f" x1="88.82%" x2="188.199%" y1="-223.252%" y2="-223.252%"><stop offset="0%" stop-color="#e2e2e2"/><stop offset="3%" stop-color="#d0d0d0"/><stop offset="6%" stop-color="#bcbcbc"/><stop offset="9%" stop-color="#b5b5b5"/><stop offset="49%" stop-color="#f6f6f6"/><stop offset="63%" stop-color="#f3f3f3"/><stop offset="73%" stop-color="#eaeaea"/><stop offset="82%" stop-color="#dbdbdb"/><stop offset="90%" stop-color="#c6c6c6"/><stop offset="97%" stop-color="#aaa"/><stop offset="100%" stop-color="#9b9b9b"/></linearGradient><linearGradient id="g" x1="0%" x2="100%" y1="50%" y2="50%"><stop offset="0%" stop-color="#e2e2e2"/><stop offset="3%" stop-color="#d0d0d0"/><stop offset="6%" stop-color="#bcbcbc"/><stop offset="9%" stop-color="#b5b5b5"/><stop offset="49%" stop-color="#f6f6f6"/><stop offset="63%" stop-color="#f3f3f3"/><stop offset="73%" stop-color="#eaeaea"/><stop offset="82%" stop-color="#dbdbdb"/><stop offset="90%" stop-color="#c6c6c6"/><stop offset="97%" stop-color="#aaa"/><stop offset="100%" stop-color="#9b9b9b"/></linearGradient><linearGradient id="h" x1="0%" x2="100%" y1="49.635%" y2="49.635%"><stop offset="0%" stop-color="#e2e2e2"/><stop offset="3%" stop-color="#d0d0d0"/><stop offset="6%" stop-color="#bcbcbc"/><stop offset="9%" stop-color="#b5b5b5"/><stop offset="49%" stop-color="#f6f6f6"/><stop offset="63%" stop-color="#f3f3f3"/><stop offset="73%" stop-color="#eaeaea"/><stop offset="82%" stop-color="#dbdbdb"/><stop offset="90%" stop-color="#c6c6c6"/><stop offset="97%" stop-color="#aaa"/><stop offset="100%" stop-color="#9b9b9b"/></linearGradient></defs><g fill="none" fill-rule="nonzero" transform="translate(.1 .8)"><path fill="url(#a)" d="M12.73 72.64h4.35v77.76h-4.35z"/><path fill="url(#b)" d="M85.92 71.79h4.35v77.76h-4.35z"/><ellipse cx="48.26" cy="72.64" fill="#cdcece" rx="48.26" ry="48.75"/><path fill="#e6e6e6" d="M74.68 35.49H21.87c-.62.47-1.22 1-1.82 1.46v.46h57c-.76-.67-1.56-1.3-2.37-1.92m-44.23 79.78h34c.49-.62 1-1.25 1.44-1.92H29c.48.65 1 1.3 1.45 1.92m-20.7-12.8h77c.38-.63.73-1.27 1.09-1.91H8.67c.33.64.7 1.28 1.08 1.91M4.23 89.52h88.09c.17-.63.31-1.27.46-1.91h-89c.14.64.28 1.28.45 1.91M2.37 75.74c0 .42 0 .83.06 1.25h91.68c0-.42.06-.83.06-1.25v-.67H2.4c0 .23-.03.45-.03.67m1.48-12.22h88.84c-.15-.64-.28-1.29-.46-1.91H4.31c-.17.62-.31 1.27-.46 1.91m5.31-13.46h78.22c-.36-.64-.7-1.3-1.09-1.92h-76c-.43.62-.76 1.28-1.13 1.92"/><path fill="url(#c)" d="M33.61 20.86h29.3v6.04h-29.3z"/><path fill="url(#d)" d="M24.65 1.63h1.61v17.59h-1.61z"/><path fill="url(#b)" d="M6.4 72.64h4.35v77.76H6.4z"/><path fill="url(#e)" d="M79.6 71.79h4.35v77.76H79.6z"/><path fill="url(#d)" d="M36.37 1.63h1.61v17.59h-1.61z"/><path fill="url(#f)" d="M47.82 1.63h1.61v17.59h-1.61z"/><path fill="url(#d)" d="M70.74 1.63h1.61v17.59h-1.61z"/><path fill="url(#g)" d="M23.01 0h50.96v2.74H23.01z"/><path fill="url(#h)" d="M23.15 9.41h50.96v2.74H23.15z"/><path fill="url(#g)" d="M23.28 18.81h50.96v2.74H23.28z"/></g></svg>