<svg xmlns="http://www.w3.org/2000/svg" viewBox="0 0 70 151"><title>Wastewater tank（废水池）</title><defs><linearGradient id="a" x1="-.015%" x2="100%" y1="50%" y2="50%"><stop offset="0%" stop-color="#e2e2e2"/><stop offset="3%" stop-color="#d0d0d0"/><stop offset="6%" stop-color="#bcbcbc"/><stop offset="9%" stop-color="#b5b5b5"/><stop offset="49%" stop-color="#f6f6f6"/><stop offset="63%" stop-color="#f3f3f3"/><stop offset="73%" stop-color="#eaeaea"/><stop offset="82%" stop-color="#dbdbdb"/><stop offset="90%" stop-color="#c6c6c6"/><stop offset="97%" stop-color="#aaa"/><stop offset="100%" stop-color="#9b9b9b"/></linearGradient><linearGradient id="b" x1="-1.067%" x2="101.067%" y1="50%" y2="50%"><stop offset="0%" stop-color="#e2e2e2"/><stop offset="3%" stop-color="#d0d0d0"/><stop offset="6%" stop-color="#bcbcbc"/><stop offset="9%" stop-color="#b5b5b5"/><stop offset="49%" stop-color="#f6f6f6"/><stop offset="63%" stop-color="#f3f3f3"/><stop offset="73%" stop-color="#eaeaea"/><stop offset="82%" stop-color="#dbdbdb"/><stop offset="90%" stop-color="#c6c6c6"/><stop offset="97%" stop-color="#aaa"/><stop offset="100%" stop-color="#9b9b9b"/></linearGradient><linearGradient id="c" x1="0%" x2="100%" y1="-124.421%" y2="-124.421%"><stop offset="0%" stop-color="#6b6b6b"/><stop offset="11%" stop-color="#767676"/><stop offset="30%" stop-color="#959595"/><stop offset="41%" stop-color="#aaa"/><stop offset="56%" stop-color="#ccc"/><stop offset="71%" stop-color="#eaeaea"/><stop offset="80%" stop-color="#f6f6f6"/><stop offset="83%" stop-color="#ededed"/><stop offset="87%" stop-color="#d4d4d4"/><stop offset="92%" stop-color="#ababab"/><stop offset="98%" stop-color="#737373"/><stop offset="99%" stop-color="#666"/></linearGradient><linearGradient id="d" x1="50%" x2="50%" y1="0%" y2="100%"><stop offset="0%" stop-color="#e2e2e2"/><stop offset="3%" stop-color="#d0d0d0"/><stop offset="6%" stop-color="#bcbcbc"/><stop offset="9%" stop-color="#b5b5b5"/><stop offset="49%" stop-color="#f6f6f6"/><stop offset="63%" stop-color="#f3f3f3"/><stop offset="73%" stop-color="#eaeaea"/><stop offset="82%" stop-color="#dbdbdb"/><stop offset="90%" stop-color="#c6c6c6"/><stop offset="97%" stop-color="#aaa"/><stop offset="100%" stop-color="#9b9b9b"/></linearGradient><linearGradient id="e" x1="50%" x2="50%" y1="0%" y2="100%"><stop offset="0%" stop-color="#e2e2e2"/><stop offset="3%" stop-color="#d0d0d0"/><stop offset="6%" stop-color="#bcbcbc"/><stop offset="9%" stop-color="#b5b5b5"/><stop offset="49%" stop-color="#f6f6f6"/><stop offset="63%" stop-color="#f3f3f3"/><stop offset="73%" stop-color="#eaeaea"/><stop offset="82%" stop-color="#dbdbdb"/><stop offset="90%" stop-color="#c6c6c6"/><stop offset="97%" stop-color="#aaa"/><stop offset="100%" stop-color="#9b9b9b"/></linearGradient><linearGradient id="f" x1="0%" x2="99.985%" y1="-86.894%" y2="-86.894%"><stop offset="0%" stop-color="#e2e2e2"/><stop offset="3%" stop-color="#d0d0d0"/><stop offset="6%" stop-color="#bcbcbc"/><stop offset="9%" stop-color="#b5b5b5"/><stop offset="49%" stop-color="#f6f6f6"/><stop offset="63%" stop-color="#f3f3f3"/><stop offset="73%" stop-color="#eaeaea"/><stop offset="82%" stop-color="#dbdbdb"/><stop offset="90%" stop-color="#c6c6c6"/><stop offset="97%" stop-color="#aaa"/><stop offset="100%" stop-color="#9b9b9b"/></linearGradient><linearGradient id="g" x1="0%" x2="100%" y1="-37.933%" y2="-37.933%"><stop offset="0%" stop-color="#6b6b6b"/><stop offset="11%" stop-color="#767676"/><stop offset="30%" stop-color="#959595"/><stop offset="41%" stop-color="#aaa"/><stop offset="56%" stop-color="#ccc"/><stop offset="71%" stop-color="#eaeaea"/><stop offset="80%" stop-color="#f6f6f6"/><stop offset="83%" stop-color="#ededed"/><stop offset="87%" stop-color="#d4d4d4"/><stop offset="92%" stop-color="#ababab"/><stop offset="98%" stop-color="#737373"/><stop offset="99%" stop-color="#666"/></linearGradient><linearGradient id="h" x1="50.125%" x2="50.125%" y1="0%" y2="100%"><stop offset="0%" stop-color="#e2e2e2"/><stop offset="3%" stop-color="#d0d0d0"/><stop offset="6%" stop-color="#bcbcbc"/><stop offset="9%" stop-color="#b5b5b5"/><stop offset="49%" stop-color="#f6f6f6"/><stop offset="63%" stop-color="#f3f3f3"/><stop offset="73%" stop-color="#eaeaea"/><stop offset="82%" stop-color="#dbdbdb"/><stop offset="90%" stop-color="#c6c6c6"/><stop offset="97%" stop-color="#aaa"/><stop offset="100%" stop-color="#9b9b9b"/></linearGradient><linearGradient id="i" x1="50.125%" x2="50.125%" y1="0%" y2="100%"><stop offset="0%" stop-color="#e2e2e2"/><stop offset="3%" stop-color="#d0d0d0"/><stop offset="6%" stop-color="#bcbcbc"/><stop offset="9%" stop-color="#b5b5b5"/><stop offset="49%" stop-color="#f6f6f6"/><stop offset="63%" stop-color="#f3f3f3"/><stop offset="73%" stop-color="#eaeaea"/><stop offset="82%" stop-color="#dbdbdb"/><stop offset="90%" stop-color="#c6c6c6"/><stop offset="97%" stop-color="#aaa"/><stop offset="100%" stop-color="#9b9b9b"/></linearGradient><linearGradient id="j" x1="50%" x2="50%" y1=".398%" y2="100.398%"><stop offset="0%" stop-color="#e2e2e2"/><stop offset="3%" stop-color="#d0d0d0"/><stop offset="6%" stop-color="#bcbcbc"/><stop offset="9%" stop-color="#b5b5b5"/><stop offset="49%" stop-color="#f6f6f6"/><stop offset="63%" stop-color="#f3f3f3"/><stop offset="73%" stop-color="#eaeaea"/><stop offset="82%" stop-color="#dbdbdb"/><stop offset="90%" stop-color="#c6c6c6"/><stop offset="97%" stop-color="#aaa"/><stop offset="100%" stop-color="#9b9b9b"/></linearGradient><linearGradient id="k" x1="0%" x2="100%" y1="-88.712%" y2="-88.712%"><stop offset="0%" stop-color="#e2e2e2"/><stop offset="3%" stop-color="#d0d0d0"/><stop offset="6%" stop-color="#bcbcbc"/><stop offset="9%" stop-color="#b5b5b5"/><stop offset="49%" stop-color="#f6f6f6"/><stop offset="63%" stop-color="#f3f3f3"/><stop offset="73%" stop-color="#eaeaea"/><stop offset="82%" stop-color="#dbdbdb"/><stop offset="90%" stop-color="#c6c6c6"/><stop offset="97%" stop-color="#aaa"/><stop offset="100%" stop-color="#9b9b9b"/></linearGradient><linearGradient id="l" x1="0%" x2="100%" y1="-38.75%" y2="-38.75%"><stop offset="0%" stop-color="#6b6b6b"/><stop offset="11%" stop-color="#767676"/><stop offset="30%" stop-color="#959595"/><stop offset="41%" stop-color="#aaa"/><stop offset="56%" stop-color="#ccc"/><stop offset="71%" stop-color="#eaeaea"/><stop offset="80%" stop-color="#f6f6f6"/><stop offset="83%" stop-color="#ededed"/><stop offset="87%" stop-color="#d4d4d4"/><stop offset="92%" stop-color="#ababab"/><stop offset="98%" stop-color="#737373"/><stop offset="99%" stop-color="#666"/></linearGradient><linearGradient id="m" x1="0%" x2="100%" y1="-89.697%" y2="-89.697%"><stop offset="0%" stop-color="#e2e2e2"/><stop offset="3%" stop-color="#d0d0d0"/><stop offset="6%" stop-color="#bcbcbc"/><stop offset="9%" stop-color="#b5b5b5"/><stop offset="49%" stop-color="#f6f6f6"/><stop offset="63%" stop-color="#f3f3f3"/><stop offset="73%" stop-color="#eaeaea"/><stop offset="82%" stop-color="#dbdbdb"/><stop offset="90%" stop-color="#c6c6c6"/><stop offset="97%" stop-color="#aaa"/><stop offset="100%" stop-color="#9b9b9b"/></linearGradient><linearGradient id="n" x1="0%" x2="99.985%" y1="-127.682%" y2="-127.682%"><stop offset="0%" stop-color="#6b6b6b"/><stop offset="11%" stop-color="#767676"/><stop offset="30%" stop-color="#959595"/><stop offset="41%" stop-color="#aaa"/><stop offset="56%" stop-color="#ccc"/><stop offset="71%" stop-color="#eaeaea"/><stop offset="80%" stop-color="#f6f6f6"/><stop offset="83%" stop-color="#ededed"/><stop offset="87%" stop-color="#d4d4d4"/><stop offset="92%" stop-color="#ababab"/><stop offset="98%" stop-color="#737373"/><stop offset="99%" stop-color="#666"/></linearGradient><linearGradient id="o" x1="49.875%" x2="49.875%" y1="-.398%" y2="100%"><stop offset="0%" stop-color="#e2e2e2"/><stop offset="3%" stop-color="#d0d0d0"/><stop offset="6%" stop-color="#bcbcbc"/><stop offset="9%" stop-color="#b5b5b5"/><stop offset="49%" stop-color="#f6f6f6"/><stop offset="63%" stop-color="#f3f3f3"/><stop offset="73%" stop-color="#eaeaea"/><stop offset="82%" stop-color="#dbdbdb"/><stop offset="90%" stop-color="#c6c6c6"/><stop offset="97%" stop-color="#aaa"/><stop offset="100%" stop-color="#9b9b9b"/></linearGradient><linearGradient id="p" x1="50%" x2="50%" y1="0%" y2="100.398%"><stop offset="0%" stop-color="#e2e2e2"/><stop offset="3%" stop-color="#d0d0d0"/><stop offset="6%" stop-color="#bcbcbc"/><stop offset="9%" stop-color="#b5b5b5"/><stop offset="49%" stop-color="#f6f6f6"/><stop offset="63%" stop-color="#f3f3f3"/><stop offset="73%" stop-color="#eaeaea"/><stop offset="82%" stop-color="#dbdbdb"/><stop offset="90%" stop-color="#c6c6c6"/><stop offset="97%" stop-color="#aaa"/><stop offset="100%" stop-color="#9b9b9b"/></linearGradient><linearGradient id="q" x1="-.015%" x2="99.985%" y1="-91.515%" y2="-91.515%"><stop offset="0%" stop-color="#e2e2e2"/><stop offset="3%" stop-color="#d0d0d0"/><stop offset="6%" stop-color="#bcbcbc"/><stop offset="9%" stop-color="#b5b5b5"/><stop offset="49%" stop-color="#f6f6f6"/><stop offset="63%" stop-color="#f3f3f3"/><stop offset="73%" stop-color="#eaeaea"/><stop offset="82%" stop-color="#dbdbdb"/><stop offset="90%" stop-color="#c6c6c6"/><stop offset="97%" stop-color="#aaa"/><stop offset="100%" stop-color="#9b9b9b"/></linearGradient></defs><g fill="none" fill-rule="nonzero" transform="translate(.1 .8)"><path fill="url(#a)" d="M67.24 142.53s-5.81 7.21-32.63 7.21C7 149.74 2 142.53 2 142.53V12.75S3.72 0 34.07 0s33.17 12.75 33.17 12.75z"/><circle cx="33.67" cy="120.49" r="11.71" fill="#8c8c8c" stroke="url(#b)" stroke-width=".5"/><circle cx="33.67" cy="31.57" r="11.71" fill="#8c8c8c" stroke="url(#b)" stroke-width=".5"/><path fill="url(#c)" d="M1.98 9.35h65.15v2.59H1.98z" transform="matrix(-1 0 0 -1 69.11 21.29)"/><path fill="url(#d)" d="M-.585 8.085h7.98v2.51h-7.98z" transform="rotate(90 3.405 9.34)"/><path fill="url(#e)" d="M9.555 8.085h7.98v2.51h-7.98z" transform="rotate(90 13.545 9.34)"/><path fill="url(#d)" d="M19.705 8.085h7.98v2.51h-7.98z" transform="rotate(90 23.695 9.34)"/><path fill="url(#d)" d="M29.855 8.085h7.98v2.51h-7.98z" transform="rotate(90 33.845 9.34)"/><path fill="url(#e)" d="M40.005 8.085h7.98v2.51h-7.98z" transform="rotate(90 43.995 9.34)"/><path fill="url(#d)" d="M50.155 8.085h7.98v2.51h-7.98z" transform="rotate(90 54.145 9.34)"/><path fill="url(#e)" d="M60.315 8.025h7.98v2.51h-7.98z" transform="rotate(90 64.305 9.28)"/><path fill="url(#f)" d="M0 7.63h67.14v3.3H0z" transform="matrix(-1 0 0 -1 67.14 18.56)"/><path fill="url(#g)" d="M1.98 51.27h65.25v5.2H1.98z" transform="matrix(-1 0 0 -1 69.21 107.74)"/><path fill="url(#h)" d="M-.305 52.605h7.98v2.51h-7.98z" transform="rotate(90 3.685 53.86)"/><path fill="url(#h)" d="M9.845 52.605h7.98v2.51h-7.98z" transform="rotate(90 13.835 53.86)"/><path fill="url(#i)" d="M19.995 52.605h7.98v2.51h-7.98z" transform="rotate(90 23.985 53.86)"/><path fill="url(#h)" d="M30.145 52.605h7.98v2.51h-7.98z" transform="rotate(90 34.135 53.86)"/><path fill="url(#i)" d="M40.295 52.605h7.98v2.51h-7.98z" transform="rotate(90 44.285 53.86)"/><path fill="url(#h)" d="M50.445 52.605h7.98v2.51h-7.98z" transform="rotate(90 54.435 53.86)"/><path fill="url(#j)" d="M60.605 52.545h7.98v2.51h-7.98z" transform="rotate(90 64.595 53.8)"/><path fill="url(#k)" d="M.29 52.15h68.96v3.3H.29z" transform="matrix(-1 0 0 -1 69.54 107.6)"/><path fill="url(#l)" d="M1.98 95.59h65.13v5.2H1.98z" transform="matrix(-1 0 0 -1 69.09 196.38)"/><path fill="url(#j)" d="M-.485 96.935h7.98v2.51h-7.98z" transform="rotate(90 3.505 98.19)"/><path fill="url(#j)" d="M9.665 96.935h7.98v2.51h-7.98z" transform="rotate(90 13.655 98.19)"/><path fill="url(#j)" d="M19.815 96.935h7.98v2.51h-7.98z" transform="rotate(90 23.805 98.19)"/><path fill="url(#j)" d="M29.965 96.935h7.98v2.51h-7.98z" transform="rotate(90 33.955 98.19)"/><path fill="url(#j)" d="M40.115 96.935h7.98v2.51h-7.98z" transform="rotate(90 44.105 98.19)"/><path fill="url(#j)" d="M50.265 96.935h7.98v2.51h-7.98z" transform="rotate(90 54.255 98.19)"/><path fill="url(#e)" d="M60.415 96.865h7.98v2.51h-7.98z" transform="rotate(90 64.405 98.12)"/><path fill="url(#m)" d="M.1 96.48h69.24v3.3H.1z" transform="matrix(-1 0 0 -1 69.44 196.26)"/><path fill="url(#n)" d="M1.82 140.25h65.35v2.61H1.82z" transform="matrix(-1 0 0 -1 68.99 283.11)"/><path fill="url(#o)" d="M-.025 141.615h7.98v2.51h-7.98z" transform="rotate(90 3.965 142.87)"/><path fill="url(#o)" d="M10.125 141.615h7.98v2.51h-7.98z" transform="rotate(90 14.115 142.87)"/><path fill="url(#o)" d="M20.275 141.615h7.98v2.51h-7.98z" transform="rotate(90 24.265 142.87)"/><path fill="url(#o)" d="M30.425 141.615h7.98v2.51h-7.98z" transform="rotate(90 34.415 142.87)"/><path fill="url(#o)" d="M40.575 141.615h7.98v2.51h-7.98z" transform="rotate(90 44.565 142.87)"/><path fill="url(#o)" d="M50.725 141.615h7.98v2.51h-7.98z" transform="rotate(90 54.715 142.87)"/><path fill="url(#p)" d="M60.885 141.545h7.98v2.51h-7.98z" transform="rotate(90 64.875 142.8)"/><path fill="url(#q)" d="M.56 141.15h67.89v3.3H.56z" transform="matrix(-1 0 0 -1 69.01 285.6)"/></g></svg>