<svg xmlns="http://www.w3.org/2000/svg" viewBox="0 0 58 151"><title>Wastewater grinder（废水粉碎机）</title><defs><linearGradient id="a" x1="100%" x2="0%" y1="50.01%" y2="50.01%"><stop offset="0%" stop-color="#e2e2e2"/><stop offset="3%" stop-color="#d0d0d0"/><stop offset="6%" stop-color="#bcbcbc"/><stop offset="9%" stop-color="#b5b5b5"/><stop offset="49%" stop-color="#f6f6f6"/><stop offset="63%" stop-color="#f3f3f3"/><stop offset="73%" stop-color="#eaeaea"/><stop offset="82%" stop-color="#dbdbdb"/><stop offset="90%" stop-color="#c6c6c6"/><stop offset="97%" stop-color="#aaa"/><stop offset="100%" stop-color="#9b9b9b"/></linearGradient><linearGradient id="b" x1="49.324%" x2="49.324%" y1=".592%" y2="100.592%"><stop offset="0%" stop-color="#e2e2e2"/><stop offset="3%" stop-color="#d0d0d0"/><stop offset="6%" stop-color="#bcbcbc"/><stop offset="9%" stop-color="#b5b5b5"/><stop offset="49%" stop-color="#f6f6f6"/><stop offset="63%" stop-color="#f3f3f3"/><stop offset="73%" stop-color="#eaeaea"/><stop offset="82%" stop-color="#dbdbdb"/><stop offset="90%" stop-color="#c6c6c6"/><stop offset="97%" stop-color="#aaa"/><stop offset="100%" stop-color="#9b9b9b"/></linearGradient><linearGradient id="c" x1="50%" x2="50%" y1="0%" y2="100%"><stop offset="0%" stop-color="#e2e2e2"/><stop offset="3%" stop-color="#d0d0d0"/><stop offset="6%" stop-color="#bcbcbc"/><stop offset="9%" stop-color="#b5b5b5"/><stop offset="49%" stop-color="#f6f6f6"/><stop offset="63%" stop-color="#f3f3f3"/><stop offset="73%" stop-color="#eaeaea"/><stop offset="82%" stop-color="#dbdbdb"/><stop offset="90%" stop-color="#c6c6c6"/><stop offset="97%" stop-color="#aaa"/><stop offset="100%" stop-color="#9b9b9b"/></linearGradient><linearGradient id="d" x1="50%" x2="50%" y1="0%" y2="100%"><stop offset="0%" stop-color="#e2e2e2"/><stop offset="3%" stop-color="#d0d0d0"/><stop offset="6%" stop-color="#bcbcbc"/><stop offset="9%" stop-color="#b5b5b5"/><stop offset="49%" stop-color="#f6f6f6"/><stop offset="63%" stop-color="#f3f3f3"/><stop offset="73%" stop-color="#eaeaea"/><stop offset="82%" stop-color="#dbdbdb"/><stop offset="90%" stop-color="#c6c6c6"/><stop offset="97%" stop-color="#aaa"/><stop offset="100%" stop-color="#9b9b9b"/></linearGradient><linearGradient id="e" x1="50%" x2="50%" y1="0%" y2="100.592%"><stop offset="0%" stop-color="#e2e2e2"/><stop offset="3%" stop-color="#d0d0d0"/><stop offset="6%" stop-color="#bcbcbc"/><stop offset="9%" stop-color="#b5b5b5"/><stop offset="49%" stop-color="#f6f6f6"/><stop offset="63%" stop-color="#f3f3f3"/><stop offset="73%" stop-color="#eaeaea"/><stop offset="82%" stop-color="#dbdbdb"/><stop offset="90%" stop-color="#c6c6c6"/><stop offset="97%" stop-color="#aaa"/><stop offset="100%" stop-color="#9b9b9b"/></linearGradient><linearGradient id="f" x1="50.282%" x2="50.282%" y1="0%" y2="100%"><stop offset="0%" stop-color="#e2e2e2"/><stop offset="3%" stop-color="#d0d0d0"/><stop offset="6%" stop-color="#bcbcbc"/><stop offset="9%" stop-color="#b5b5b5"/><stop offset="49%" stop-color="#f6f6f6"/><stop offset="63%" stop-color="#f3f3f3"/><stop offset="73%" stop-color="#eaeaea"/><stop offset="82%" stop-color="#dbdbdb"/><stop offset="90%" stop-color="#c6c6c6"/><stop offset="97%" stop-color="#aaa"/><stop offset="100%" stop-color="#9b9b9b"/></linearGradient><linearGradient id="g" x1="50%" x2="50%" y1="0%" y2="100%"><stop offset="0%" stop-color="#e2e2e2"/><stop offset="3%" stop-color="#d0d0d0"/><stop offset="6%" stop-color="#bcbcbc"/><stop offset="9%" stop-color="#b5b5b5"/><stop offset="49%" stop-color="#f6f6f6"/><stop offset="63%" stop-color="#f3f3f3"/><stop offset="73%" stop-color="#eaeaea"/><stop offset="82%" stop-color="#dbdbdb"/><stop offset="90%" stop-color="#c6c6c6"/><stop offset="97%" stop-color="#aaa"/><stop offset="100%" stop-color="#9b9b9b"/></linearGradient><linearGradient id="h" x1="50%" x2="50%" y1="-674.545%" y2="-775%"><stop offset="0%" stop-color="#e2e2e2"/><stop offset="3%" stop-color="#d0d0d0"/><stop offset="6%" stop-color="#bcbcbc"/><stop offset="9%" stop-color="#b5b5b5"/><stop offset="49%" stop-color="#f6f6f6"/><stop offset="63%" stop-color="#f3f3f3"/><stop offset="73%" stop-color="#eaeaea"/><stop offset="82%" stop-color="#dbdbdb"/><stop offset="90%" stop-color="#c6c6c6"/><stop offset="97%" stop-color="#aaa"/><stop offset="100%" stop-color="#9b9b9b"/></linearGradient><linearGradient id="i" x1="50%" x2="50%" y1="-675%" y2="-775.455%"><stop offset="0%" stop-color="#e2e2e2"/><stop offset="3%" stop-color="#d0d0d0"/><stop offset="6%" stop-color="#bcbcbc"/><stop offset="9%" stop-color="#b5b5b5"/><stop offset="49%" stop-color="#f6f6f6"/><stop offset="63%" stop-color="#f3f3f3"/><stop offset="73%" stop-color="#eaeaea"/><stop offset="82%" stop-color="#dbdbdb"/><stop offset="90%" stop-color="#c6c6c6"/><stop offset="97%" stop-color="#aaa"/><stop offset="100%" stop-color="#9b9b9b"/></linearGradient><linearGradient id="j" x1="50%" x2="50%" y1="-673.636%" y2="-774.091%"><stop offset="0%" stop-color="#e2e2e2"/><stop offset="3%" stop-color="#d0d0d0"/><stop offset="6%" stop-color="#bcbcbc"/><stop offset="9%" stop-color="#b5b5b5"/><stop offset="49%" stop-color="#f6f6f6"/><stop offset="63%" stop-color="#f3f3f3"/><stop offset="73%" stop-color="#eaeaea"/><stop offset="82%" stop-color="#dbdbdb"/><stop offset="90%" stop-color="#c6c6c6"/><stop offset="97%" stop-color="#aaa"/><stop offset="100%" stop-color="#9b9b9b"/></linearGradient><linearGradient id="k" x1="49.96%" x2="49.96%" y1="-666.364%" y2="-766.818%"><stop offset="0%" stop-color="#e2e2e2"/><stop offset="3%" stop-color="#d0d0d0"/><stop offset="6%" stop-color="#bcbcbc"/><stop offset="9%" stop-color="#b5b5b5"/><stop offset="49%" stop-color="#f6f6f6"/><stop offset="63%" stop-color="#f3f3f3"/><stop offset="73%" stop-color="#eaeaea"/><stop offset="82%" stop-color="#dbdbdb"/><stop offset="90%" stop-color="#c6c6c6"/><stop offset="97%" stop-color="#aaa"/><stop offset="100%" stop-color="#9b9b9b"/></linearGradient><linearGradient id="l" x1="50%" x2="50%" y1="-668.182%" y2="-768.636%"><stop offset="0%" stop-color="#e2e2e2"/><stop offset="3%" stop-color="#d0d0d0"/><stop offset="6%" stop-color="#bcbcbc"/><stop offset="9%" stop-color="#b5b5b5"/><stop offset="49%" stop-color="#f6f6f6"/><stop offset="63%" stop-color="#f3f3f3"/><stop offset="73%" stop-color="#eaeaea"/><stop offset="82%" stop-color="#dbdbdb"/><stop offset="90%" stop-color="#c6c6c6"/><stop offset="97%" stop-color="#aaa"/><stop offset="100%" stop-color="#9b9b9b"/></linearGradient><linearGradient id="m" x1="50%" x2="50%" y1="-670%" y2="-770.455%"><stop offset="0%" stop-color="#e2e2e2"/><stop offset="3%" stop-color="#d0d0d0"/><stop offset="6%" stop-color="#bcbcbc"/><stop offset="9%" stop-color="#b5b5b5"/><stop offset="49%" stop-color="#f6f6f6"/><stop offset="63%" stop-color="#f3f3f3"/><stop offset="73%" stop-color="#eaeaea"/><stop offset="82%" stop-color="#dbdbdb"/><stop offset="90%" stop-color="#c6c6c6"/><stop offset="97%" stop-color="#aaa"/><stop offset="100%" stop-color="#9b9b9b"/></linearGradient><linearGradient id="n" x1="50%" x2="50%" y1="-671.818%" y2="-772.273%"><stop offset="0%" stop-color="#e2e2e2"/><stop offset="3%" stop-color="#d0d0d0"/><stop offset="6%" stop-color="#bcbcbc"/><stop offset="9%" stop-color="#b5b5b5"/><stop offset="49%" stop-color="#f6f6f6"/><stop offset="63%" stop-color="#f3f3f3"/><stop offset="73%" stop-color="#eaeaea"/><stop offset="82%" stop-color="#dbdbdb"/><stop offset="90%" stop-color="#c6c6c6"/><stop offset="97%" stop-color="#aaa"/><stop offset="100%" stop-color="#9b9b9b"/></linearGradient><linearGradient id="o" x1="50%" x2="50%" y1="-667.727%" y2="-768.182%"><stop offset="0%" stop-color="#e2e2e2"/><stop offset="3%" stop-color="#d0d0d0"/><stop offset="6%" stop-color="#bcbcbc"/><stop offset="9%" stop-color="#b5b5b5"/><stop offset="49%" stop-color="#f6f6f6"/><stop offset="63%" stop-color="#f3f3f3"/><stop offset="73%" stop-color="#eaeaea"/><stop offset="82%" stop-color="#dbdbdb"/><stop offset="90%" stop-color="#c6c6c6"/><stop offset="97%" stop-color="#aaa"/><stop offset="100%" stop-color="#9b9b9b"/></linearGradient><linearGradient id="p" x1="50%" x2="50%" y1="-669.545%" y2="-770%"><stop offset="0%" stop-color="#e2e2e2"/><stop offset="3%" stop-color="#d0d0d0"/><stop offset="6%" stop-color="#bcbcbc"/><stop offset="9%" stop-color="#b5b5b5"/><stop offset="49%" stop-color="#f6f6f6"/><stop offset="63%" stop-color="#f3f3f3"/><stop offset="73%" stop-color="#eaeaea"/><stop offset="82%" stop-color="#dbdbdb"/><stop offset="90%" stop-color="#c6c6c6"/><stop offset="97%" stop-color="#aaa"/><stop offset="100%" stop-color="#9b9b9b"/></linearGradient><linearGradient id="q" x1="50%" x2="50%" y1="-671.364%" y2="-771.818%"><stop offset="0%" stop-color="#e2e2e2"/><stop offset="3%" stop-color="#d0d0d0"/><stop offset="6%" stop-color="#bcbcbc"/><stop offset="9%" stop-color="#b5b5b5"/><stop offset="49%" stop-color="#f6f6f6"/><stop offset="63%" stop-color="#f3f3f3"/><stop offset="73%" stop-color="#eaeaea"/><stop offset="82%" stop-color="#dbdbdb"/><stop offset="90%" stop-color="#c6c6c6"/><stop offset="97%" stop-color="#aaa"/><stop offset="100%" stop-color="#9b9b9b"/></linearGradient><linearGradient id="r" x1="50%" x2="50%" y1="-667.273%" y2="-773.636%"><stop offset="0%" stop-color="#e2e2e2"/><stop offset="3%" stop-color="#d0d0d0"/><stop offset="6%" stop-color="#bcbcbc"/><stop offset="9%" stop-color="#b5b5b5"/><stop offset="49%" stop-color="#f6f6f6"/><stop offset="63%" stop-color="#f3f3f3"/><stop offset="73%" stop-color="#eaeaea"/><stop offset="82%" stop-color="#dbdbdb"/><stop offset="90%" stop-color="#c6c6c6"/><stop offset="97%" stop-color="#aaa"/><stop offset="100%" stop-color="#9b9b9b"/></linearGradient><linearGradient id="s" x1="50%" x2="50%" y1="-669.091%" y2="-769.545%"><stop offset="0%" stop-color="#e2e2e2"/><stop offset="3%" stop-color="#d0d0d0"/><stop offset="6%" stop-color="#bcbcbc"/><stop offset="9%" stop-color="#b5b5b5"/><stop offset="49%" stop-color="#f6f6f6"/><stop offset="63%" stop-color="#f3f3f3"/><stop offset="73%" stop-color="#eaeaea"/><stop offset="82%" stop-color="#dbdbdb"/><stop offset="90%" stop-color="#c6c6c6"/><stop offset="97%" stop-color="#aaa"/><stop offset="100%" stop-color="#9b9b9b"/></linearGradient><linearGradient id="t" x1="50%" x2="50%" y1="-670.909%" y2="-771.364%"><stop offset="0%" stop-color="#e2e2e2"/><stop offset="3%" stop-color="#d0d0d0"/><stop offset="6%" stop-color="#bcbcbc"/><stop offset="9%" stop-color="#b5b5b5"/><stop offset="49%" stop-color="#f6f6f6"/><stop offset="63%" stop-color="#f3f3f3"/><stop offset="73%" stop-color="#eaeaea"/><stop offset="82%" stop-color="#dbdbdb"/><stop offset="90%" stop-color="#c6c6c6"/><stop offset="97%" stop-color="#aaa"/><stop offset="100%" stop-color="#9b9b9b"/></linearGradient><linearGradient id="u" x1=".055%" x2="100.055%" y1="-12.003%" y2="-12.003%"><stop offset="0%" stop-color="#e2e2e2"/><stop offset="3%" stop-color="#d0d0d0"/><stop offset="6%" stop-color="#bcbcbc"/><stop offset="9%" stop-color="#b5b5b5"/><stop offset="49%" stop-color="#f6f6f6"/><stop offset="63%" stop-color="#f3f3f3"/><stop offset="73%" stop-color="#eaeaea"/><stop offset="82%" stop-color="#dbdbdb"/><stop offset="90%" stop-color="#c6c6c6"/><stop offset="97%" stop-color="#aaa"/><stop offset="100%" stop-color="#9b9b9b"/></linearGradient><linearGradient id="v" x1="0%" x2="100%" y1="-420.573%" y2="-420.573%"><stop offset="0%" stop-color="#6b6b6b"/><stop offset="11%" stop-color="#767676"/><stop offset="30%" stop-color="#959595"/><stop offset="41%" stop-color="#aaa"/><stop offset="56%" stop-color="#ccc"/><stop offset="71%" stop-color="#eaeaea"/><stop offset="80%" stop-color="#f6f6f6"/><stop offset="83%" stop-color="#ededed"/><stop offset="87%" stop-color="#d4d4d4"/><stop offset="92%" stop-color="#ababab"/><stop offset="98%" stop-color="#737373"/><stop offset="99%" stop-color="#666"/></linearGradient><linearGradient id="w" x1="0%" x2="100%" y1="-544.718%" y2="-544.718%"><stop offset="0%" stop-color="#6b6b6b"/><stop offset="11%" stop-color="#767676"/><stop offset="30%" stop-color="#959595"/><stop offset="41%" stop-color="#aaa"/><stop offset="56%" stop-color="#ccc"/><stop offset="71%" stop-color="#eaeaea"/><stop offset="80%" stop-color="#f6f6f6"/><stop offset="83%" stop-color="#ededed"/><stop offset="87%" stop-color="#d4d4d4"/><stop offset="92%" stop-color="#ababab"/><stop offset="98%" stop-color="#737373"/><stop offset="99%" stop-color="#666"/></linearGradient><linearGradient id="x" x1="0%" x2="100%" y1="-545.423%" y2="-545.423%"><stop offset="0%" stop-color="#6b6b6b"/><stop offset="11%" stop-color="#767676"/><stop offset="30%" stop-color="#959595"/><stop offset="41%" stop-color="#aaa"/><stop offset="56%" stop-color="#ccc"/><stop offset="71%" stop-color="#eaeaea"/><stop offset="80%" stop-color="#f6f6f6"/><stop offset="83%" stop-color="#ededed"/><stop offset="87%" stop-color="#d4d4d4"/><stop offset="92%" stop-color="#ababab"/><stop offset="98%" stop-color="#737373"/><stop offset="99%" stop-color="#666"/></linearGradient><linearGradient id="y" x1="-.045%" x2="99.955%" y1="-707.917%" y2="-707.917%"><stop offset="0%" stop-color="#6b6b6b"/><stop offset="11%" stop-color="#767676"/><stop offset="30%" stop-color="#959595"/><stop offset="41%" stop-color="#aaa"/><stop offset="56%" stop-color="#ccc"/><stop offset="71%" stop-color="#eaeaea"/><stop offset="80%" stop-color="#f6f6f6"/><stop offset="83%" stop-color="#ededed"/><stop offset="87%" stop-color="#d4d4d4"/><stop offset="92%" stop-color="#ababab"/><stop offset="98%" stop-color="#737373"/><stop offset="99%" stop-color="#666"/></linearGradient><linearGradient id="z" x1="50%" x2="50%" y1="99.938%" y2="0%"><stop offset="0%" stop-color="#6b6b6b"/><stop offset="11%" stop-color="#767676"/><stop offset="30%" stop-color="#959595"/><stop offset="41%" stop-color="#aaa"/><stop offset="56%" stop-color="#ccc"/><stop offset="71%" stop-color="#eaeaea"/><stop offset="80%" stop-color="#f6f6f6"/><stop offset="83%" stop-color="#ededed"/><stop offset="87%" stop-color="#d4d4d4"/><stop offset="92%" stop-color="#ababab"/><stop offset="98%" stop-color="#737373"/><stop offset="99%" stop-color="#666"/></linearGradient><linearGradient id="A" x1="0%" x2="99.938%" y1="-16.957%" y2="-16.957%"><stop offset="0%" stop-color="#6b6b6b"/><stop offset="1%" stop-color="#767676"/><stop offset="3%" stop-color="#959595"/><stop offset="4%" stop-color="#aaa"/><stop offset="37%" stop-color="#ccc"/><stop offset="74%" stop-color="#eaeaea"/><stop offset="94%" stop-color="#f6f6f6"/><stop offset="95%" stop-color="#ededed"/><stop offset="96%" stop-color="#d4d4d4"/><stop offset="97%" stop-color="#ababab"/><stop offset="99%" stop-color="#737373"/><stop offset="99%" stop-color="#666"/></linearGradient><linearGradient id="B" x1="50%" x2="50%" y1="99.983%" y2="-.017%"><stop offset="0%" stop-color="#6b6b6b"/><stop offset="1%" stop-color="#767676"/><stop offset="3%" stop-color="#959595"/><stop offset="4%" stop-color="#aaa"/><stop offset="14%" stop-color="#b1b1b1"/><stop offset="65%" stop-color="#cfcfcf"/><stop offset="94%" stop-color="#dbdbdb"/><stop offset="95%" stop-color="#d2d2d2"/><stop offset="96%" stop-color="#b9b9b9"/><stop offset="98%" stop-color="#909090"/><stop offset="99%" stop-color="#666"/></linearGradient><linearGradient id="C" x1="50%" x2="50%" y1="97.403%" y2="-3.319%"><stop offset="0%" stop-color="#e2e2e2"/><stop offset="3%" stop-color="#d0d0d0"/><stop offset="6%" stop-color="#bcbcbc"/><stop offset="9%" stop-color="#b5b5b5"/><stop offset="49%" stop-color="#f6f6f6"/><stop offset="63%" stop-color="#f3f3f3"/><stop offset="73%" stop-color="#eaeaea"/><stop offset="82%" stop-color="#dbdbdb"/><stop offset="90%" stop-color="#c6c6c6"/><stop offset="97%" stop-color="#aaa"/><stop offset="100%" stop-color="#9b9b9b"/></linearGradient><linearGradient id="D" x1="100%" x2="0%" y1="50.467%" y2="50.467%"><stop offset="0%" stop-color="#6b6b6b"/><stop offset="11%" stop-color="#767676"/><stop offset="30%" stop-color="#959595"/><stop offset="41%" stop-color="#aaa"/><stop offset="56%" stop-color="#ccc"/><stop offset="71%" stop-color="#eaeaea"/><stop offset="80%" stop-color="#f6f6f6"/><stop offset="83%" stop-color="#ededed"/><stop offset="87%" stop-color="#d4d4d4"/><stop offset="92%" stop-color="#ababab"/><stop offset="98%" stop-color="#737373"/><stop offset="99%" stop-color="#666"/></linearGradient><linearGradient id="E" x1="97.327%" x2="-3.413%" y1="50%" y2="50%"><stop offset="0%" stop-color="#e2e2e2"/><stop offset="3%" stop-color="#d0d0d0"/><stop offset="6%" stop-color="#bcbcbc"/><stop offset="9%" stop-color="#b5b5b5"/><stop offset="49%" stop-color="#f6f6f6"/><stop offset="63%" stop-color="#f3f3f3"/><stop offset="73%" stop-color="#eaeaea"/><stop offset="82%" stop-color="#dbdbdb"/><stop offset="90%" stop-color="#c6c6c6"/><stop offset="97%" stop-color="#aaa"/><stop offset="100%" stop-color="#9b9b9b"/></linearGradient><linearGradient id="F" x1="97.358%" x2="-3.412%" y1="50%" y2="50%"><stop offset="0%" stop-color="#e2e2e2"/><stop offset="3%" stop-color="#d0d0d0"/><stop offset="6%" stop-color="#bcbcbc"/><stop offset="9%" stop-color="#b5b5b5"/><stop offset="49%" stop-color="#f6f6f6"/><stop offset="63%" stop-color="#f3f3f3"/><stop offset="73%" stop-color="#eaeaea"/><stop offset="82%" stop-color="#dbdbdb"/><stop offset="90%" stop-color="#c6c6c6"/><stop offset="97%" stop-color="#aaa"/><stop offset="100%" stop-color="#9b9b9b"/></linearGradient><linearGradient id="G" x1="97.327%" x2="-3.41%" y1="49.682%" y2="49.682%"><stop offset="0%" stop-color="#e2e2e2"/><stop offset="3%" stop-color="#d0d0d0"/><stop offset="6%" stop-color="#bcbcbc"/><stop offset="9%" stop-color="#b5b5b5"/><stop offset="49%" stop-color="#f6f6f6"/><stop offset="63%" stop-color="#f3f3f3"/><stop offset="73%" stop-color="#eaeaea"/><stop offset="82%" stop-color="#dbdbdb"/><stop offset="90%" stop-color="#c6c6c6"/><stop offset="97%" stop-color="#aaa"/><stop offset="100%" stop-color="#9b9b9b"/></linearGradient><linearGradient id="H" x1="97.327%" x2="-3.41%" y1="50.318%" y2="50.318%"><stop offset="0%" stop-color="#e2e2e2"/><stop offset="3%" stop-color="#d0d0d0"/><stop offset="6%" stop-color="#bcbcbc"/><stop offset="9%" stop-color="#b5b5b5"/><stop offset="49%" stop-color="#f6f6f6"/><stop offset="63%" stop-color="#f3f3f3"/><stop offset="73%" stop-color="#eaeaea"/><stop offset="82%" stop-color="#dbdbdb"/><stop offset="90%" stop-color="#c6c6c6"/><stop offset="97%" stop-color="#aaa"/><stop offset="100%" stop-color="#9b9b9b"/></linearGradient><linearGradient id="I" x1="50%" x2="50%" y1="97.258%" y2="-3.463%"><stop offset="0%" stop-color="#e2e2e2"/><stop offset="3%" stop-color="#d0d0d0"/><stop offset="6%" stop-color="#bcbcbc"/><stop offset="9%" stop-color="#b5b5b5"/><stop offset="49%" stop-color="#f6f6f6"/><stop offset="63%" stop-color="#f3f3f3"/><stop offset="73%" stop-color="#eaeaea"/><stop offset="82%" stop-color="#dbdbdb"/><stop offset="90%" stop-color="#c6c6c6"/><stop offset="97%" stop-color="#aaa"/><stop offset="100%" stop-color="#9b9b9b"/></linearGradient></defs><g fill="none" fill-rule="nonzero" transform="translate(.09 .8)"><path fill="url(#a)" d="M17.74 49.49h22.09v-44S39.01 0 28.79 0c-10.44 0-11 5.49-11 5.49z"/><path fill="url(#b)" d="M18.375 49.395h1.48v1.69h-1.48z" transform="rotate(90 19.115 50.24)"/><path fill="url(#c)" d="M24.725 49.385h1.48v1.69h-1.48z" transform="rotate(90 25.465 50.23)"/><path fill="url(#d)" d="M31.075 49.385h1.48v1.69h-1.48z" transform="rotate(90 31.815 50.23)"/><path fill="url(#e)" d="M37.425 49.385h1.48v1.69h-1.48z" transform="rotate(90 38.165 50.23)"/><path fill="url(#f)" d="M28.125 43.285h1.77v14.18h-1.77z" transform="rotate(90 29.01 50.375)"/><path fill="url(#g)" d="M21.49 52.67h14.48v11.66H21.49z" transform="rotate(90 28.73 58.5)"/><path fill="url(#h)" d="M7.565 30.705h24.8v1h-24.8z" transform="rotate(-90 19.965 30.98)"/><path fill="url(#i)" d="M9.085 30.695h24.8v1h-24.8z" transform="rotate(-90 21.485 30.97)"/><path fill="url(#j)" d="M8.335 28.425h20.26v1H8.335z" transform="rotate(-90 18.465 28.7)"/><path fill="#c1c1c1" d="M13.86 43.76V14.18h1.34v29.58zM17.8 43.37v-24.2h1.34v24.2z"/><path fill="#6b6b6b" d="M15.2 43.76V14.18h2.68v29.58z"/><path fill="url(#k)" d="M26.175 30.695h24.8v1h-24.8z" transform="rotate(-90 38.575 30.97)"/><path fill="url(#l)" d="M24.625 30.705h24.8v1h-24.8z" transform="rotate(-90 37.025 30.98)"/><path fill="url(#m)" d="M23.075 30.705h24.8v1h-24.8z" transform="rotate(-90 35.475 30.98)"/><path fill="url(#n)" d="M21.525 30.705h24.8v1h-24.8z" transform="rotate(-90 33.925 30.98)"/><path fill="url(#o)" d="M19.975 30.705h24.8v1h-24.8z" transform="rotate(-90 32.375 30.98)"/><path fill="url(#p)" d="M18.415 30.695h24.8v1h-24.8z" transform="rotate(-90 30.815 30.97)"/><path fill="url(#q)" d="M16.865 30.695h24.8v1h-24.8z" transform="rotate(-90 29.265 30.97)"/><path fill="url(#q)" d="M15.315 30.695h24.8v1h-24.8z" transform="rotate(-90 27.715 30.97)"/><path fill="url(#r)" d="M13.765 30.695h24.8v1h-24.8z" transform="rotate(-90 26.165 30.97)"/><path fill="url(#s)" d="M12.215 30.695h24.8v1h-24.8z" transform="rotate(-90 24.615 30.97)"/><path fill="url(#t)" d="M10.665 30.705h24.8v1h-24.8z" transform="rotate(-90 23.065 30.98)"/><path fill="url(#u)" d="M37.075 32.615h18.34v6.79h-18.34z" transform="rotate(-90 46.245 36.01)"/><path fill="url(#v)" d="M17.84 4.63h21.87v1H17.84z" transform="matrix(-1 0 0 -1 57.55 10.22)"/><rect width="19.44" height="1" x="36.635" y="35.655" fill="url(#w)" rx=".08" transform="rotate(-90 46.355 36.01)"/><rect width="19.44" height="1" x="37.625" y="35.665" fill="url(#x)" rx=".08" transform="rotate(-90 47.345 36.02)"/><path fill="url(#y)" d="M17.66 45.73H39.9v1H17.66z" transform="matrix(-1 0 0 -1 57.56 92.06)"/><path fill="url(#z)" d="M41.88 27.73h1v16.03h-1z"/><path fill="url(#A)" d="M31.04 32.59h16.03v6.31H31.04z" transform="rotate(-90 39.055 35.745)"/><path fill="url(#B)" d="M-12.385 80.185h81.94v57.17h-81.94z" transform="rotate(90 28.585 108.77)"/><path fill="#cdcece" d="M50.7 81.15v59.54H7.44V81.15z"/><path fill="#3e3938" d="M44.02 81.15v59.54H13.7V81.15z"/><path fill="url(#C)" d="M-8.135 107.455h59.54v6.93h-59.54z" transform="rotate(90 21.635 110.92)"/><path fill="url(#D)" d="M23 51.67h11.57v1.07H23z" transform="matrix(-1 0 0 -1 57.57 104.41)"/><path fill="url(#E)" d="M20.15 65.74h17.58v2.88H20.15z" transform="matrix(-1 0 0 -1 57.88 134.36)"/><path fill="url(#F)" d="M19.81 58.06h18.17v3.76H19.81z" transform="matrix(-1 0 0 -1 57.79 119.88)"/><rect width="10.85" height="1.57" x="16.09" y="86.09" fill="url(#G)" rx=".25" transform="matrix(-1 0 0 -1 43.03 173.75)"/><rect width="10.85" height="1.57" x="16.09" y="89.28" fill="url(#G)" rx=".25" transform="matrix(-1 0 0 -1 43.03 180.13)"/><rect width="10.85" height="1.57" x="16.09" y="92.48" fill="url(#G)" rx=".25" transform="matrix(-1 0 0 -1 43.03 186.53)"/><rect width="10.85" height="1.57" x="16.09" y="95.68" fill="url(#H)" rx=".25" transform="matrix(-1 0 0 -1 43.03 192.93)"/><rect width="10.85" height="1.57" x="16.09" y="98.88" fill="url(#G)" rx=".25" transform="matrix(-1 0 0 -1 43.03 199.33)"/><rect width="10.85" height="1.57" x="16.09" y="102.07" fill="url(#G)" rx=".25" transform="matrix(-1 0 0 -1 43.03 205.71)"/><rect width="10.85" height="1.57" x="16.09" y="105.27" fill="url(#G)" rx=".25" transform="matrix(-1 0 0 -1 43.03 212.11)"/><rect width="10.85" height="1.57" x="16.09" y="108.47" fill="url(#H)" rx=".25" transform="matrix(-1 0 0 -1 43.03 218.51)"/><rect width="10.85" height="1.57" x="16.09" y="111.67" fill="url(#G)" rx=".25" transform="matrix(-1 0 0 -1 43.03 224.91)"/><rect width="10.85" height="1.57" x="16.09" y="114.86" fill="url(#G)" rx=".25" transform="matrix(-1 0 0 -1 43.03 231.29)"/><rect width="10.85" height="1.57" x="16.09" y="118.06" fill="url(#G)" rx=".25" transform="matrix(-1 0 0 -1 43.03 237.69)"/><rect width="10.85" height="1.57" x="16.09" y="121.26" fill="url(#H)" rx=".25" transform="matrix(-1 0 0 -1 43.03 244.09)"/><rect width="10.85" height="1.57" x="16.09" y="124.46" fill="url(#G)" rx=".25" transform="matrix(-1 0 0 -1 43.03 250.49)"/><rect width="10.85" height="1.57" x="16.09" y="127.65" fill="url(#G)" rx=".25" transform="matrix(-1 0 0 -1 43.03 256.87)"/><rect width="10.85" height="1.57" x="16.09" y="130.85" fill="url(#G)" rx=".25" transform="matrix(-1 0 0 -1 43.03 263.27)"/><rect width="10.85" height="1.57" x="16.09" y="134.05" fill="url(#H)" rx=".25" transform="matrix(-1 0 0 -1 43.03 269.67)"/><rect width="10.85" height="1.57" x="16.09" y="137.25" fill="url(#G)" rx=".25" transform="matrix(-1 0 0 -1 43.03 276.07)"/><path fill="url(#I)" d="M6.355 107.455h59.54v6.93H6.355z" transform="rotate(90 36.125 110.92)"/><rect width="10.85" height="1.57" x="30.59" y="82.89" fill="url(#H)" rx=".25" transform="matrix(-1 0 0 -1 72.03 167.35)"/><rect width="10.85" height="1.57" x="30.59" y="86.09" fill="url(#G)" rx=".25" transform="matrix(-1 0 0 -1 72.03 173.75)"/><rect width="10.85" height="1.57" x="30.59" y="89.28" fill="url(#G)" rx=".25" transform="matrix(-1 0 0 -1 72.03 180.13)"/><rect width="10.85" height="1.57" x="30.59" y="92.48" fill="url(#G)" rx=".25" transform="matrix(-1 0 0 -1 72.03 186.53)"/><rect width="10.85" height="1.57" x="30.59" y="95.68" fill="url(#H)" rx=".25" transform="matrix(-1 0 0 -1 72.03 192.93)"/><rect width="10.85" height="1.57" x="30.59" y="98.88" fill="url(#G)" rx=".25" transform="matrix(-1 0 0 -1 72.03 199.33)"/><rect width="10.85" height="1.57" x="30.59" y="102.07" fill="url(#G)" rx=".25" transform="matrix(-1 0 0 -1 72.03 205.71)"/><rect width="10.85" height="1.57" x="30.59" y="105.27" fill="url(#G)" rx=".25" transform="matrix(-1 0 0 -1 72.03 212.11)"/><rect width="10.85" height="1.57" x="30.59" y="108.47" fill="url(#H)" rx=".25" transform="matrix(-1 0 0 -1 72.03 218.51)"/><rect width="10.85" height="1.57" x="30.59" y="111.67" fill="url(#G)" rx=".25" transform="matrix(-1 0 0 -1 72.03 224.91)"/><rect width="10.85" height="1.57" x="30.59" y="114.86" fill="url(#G)" rx=".25" transform="matrix(-1 0 0 -1 72.03 231.29)"/><rect width="10.85" height="1.57" x="30.59" y="118.06" fill="url(#G)" rx=".25" transform="matrix(-1 0 0 -1 72.03 237.69)"/><rect width="10.85" height="1.57" x="30.59" y="121.26" fill="url(#H)" rx=".25" transform="matrix(-1 0 0 -1 72.03 244.09)"/><rect width="10.85" height="1.57" x="30.59" y="124.46" fill="url(#G)" rx=".25" transform="matrix(-1 0 0 -1 72.03 250.49)"/><rect width="10.85" height="1.57" x="30.59" y="127.65" fill="url(#G)" rx=".25" transform="matrix(-1 0 0 -1 72.03 256.87)"/><rect width="10.85" height="1.57" x="30.59" y="130.85" fill="url(#G)" rx=".25" transform="matrix(-1 0 0 -1 72.03 263.27)"/><rect width="10.85" height="1.57" x="30.59" y="134.05" fill="url(#H)" rx=".25" transform="matrix(-1 0 0 -1 72.03 269.67)"/><rect width="10.85" height="1.57" x="30.59" y="137.25" fill="url(#G)" rx=".25" transform="matrix(-1 0 0 -1 72.03 276.07)"/></g></svg>