<svg xmlns="http://www.w3.org/2000/svg" viewBox="0 0 104 151"><title>Water treatment storage（水处理储存）</title><defs><linearGradient id="a" x1="0%" x2="100%" y1="50.004%" y2="50.004%"><stop offset="0%" stop-color="#e2e2e2"/><stop offset="3%" stop-color="#d0d0d0"/><stop offset="6%" stop-color="#bcbcbc"/><stop offset="9%" stop-color="#b5b5b5"/><stop offset="49%" stop-color="#f6f6f6"/><stop offset="63%" stop-color="#f3f3f3"/><stop offset="73%" stop-color="#eaeaea"/><stop offset="82%" stop-color="#dbdbdb"/><stop offset="90%" stop-color="#c6c6c6"/><stop offset="97%" stop-color="#aaa"/><stop offset="100%" stop-color="#9b9b9b"/></linearGradient><linearGradient id="b" x1="0%" x2="100%" y1="-52.783%" y2="-52.783%"><stop offset="0%" stop-color="#e2e2e2"/><stop offset="3%" stop-color="#d0d0d0"/><stop offset="6%" stop-color="#bcbcbc"/><stop offset="9%" stop-color="#b5b5b5"/><stop offset="49%" stop-color="#f6f6f6"/><stop offset="63%" stop-color="#f3f3f3"/><stop offset="73%" stop-color="#eaeaea"/><stop offset="82%" stop-color="#dbdbdb"/><stop offset="90%" stop-color="#c6c6c6"/><stop offset="97%" stop-color="#aaa"/><stop offset="100%" stop-color="#9b9b9b"/></linearGradient><linearGradient id="c" x1="0%" x2="100%" y1="26.799%" y2="26.799%"><stop offset="0%" stop-color="#e2e2e2"/><stop offset="3%" stop-color="#d0d0d0"/><stop offset="6%" stop-color="#bcbcbc"/><stop offset="9%" stop-color="#b5b5b5"/><stop offset="49%" stop-color="#f6f6f6"/><stop offset="63%" stop-color="#f3f3f3"/><stop offset="73%" stop-color="#eaeaea"/><stop offset="82%" stop-color="#dbdbdb"/><stop offset="90%" stop-color="#c6c6c6"/><stop offset="97%" stop-color="#aaa"/><stop offset="100%" stop-color="#9b9b9b"/></linearGradient><linearGradient id="d" x1="0%" x2="99.971%" y1="-255.857%" y2="-255.857%"><stop offset="0%" stop-color="#6b6b6b"/><stop offset="11%" stop-color="#767676"/><stop offset="30%" stop-color="#959595"/><stop offset="41%" stop-color="#aaa"/><stop offset="56%" stop-color="#ccc"/><stop offset="71%" stop-color="#eaeaea"/><stop offset="80%" stop-color="#f6f6f6"/><stop offset="83%" stop-color="#ededed"/><stop offset="87%" stop-color="#d4d4d4"/><stop offset="92%" stop-color="#ababab"/><stop offset="98%" stop-color="#737373"/><stop offset="99%" stop-color="#666"/></linearGradient><linearGradient id="e" x1="0%" x2="99.971%" y1="-100.565%" y2="-100.565%"><stop offset="0%" stop-color="#e2e2e2"/><stop offset="3%" stop-color="#d0d0d0"/><stop offset="6%" stop-color="#bcbcbc"/><stop offset="9%" stop-color="#b5b5b5"/><stop offset="49%" stop-color="#f6f6f6"/><stop offset="63%" stop-color="#f3f3f3"/><stop offset="73%" stop-color="#eaeaea"/><stop offset="82%" stop-color="#dbdbdb"/><stop offset="90%" stop-color="#c6c6c6"/><stop offset="97%" stop-color="#aaa"/><stop offset="100%" stop-color="#9b9b9b"/></linearGradient><linearGradient id="f" x1="49.978%" x2="49.978%" y1="-.386%" y2="99.614%"><stop offset="0%" stop-color="#e2e2e2"/><stop offset="3%" stop-color="#d0d0d0"/><stop offset="6%" stop-color="#bcbcbc"/><stop offset="9%" stop-color="#b5b5b5"/><stop offset="49%" stop-color="#f6f6f6"/><stop offset="63%" stop-color="#f3f3f3"/><stop offset="73%" stop-color="#eaeaea"/><stop offset="82%" stop-color="#dbdbdb"/><stop offset="90%" stop-color="#c6c6c6"/><stop offset="97%" stop-color="#aaa"/><stop offset="100%" stop-color="#9b9b9b"/></linearGradient><linearGradient id="g" x1="0%" x2="100%" y1="26.311%" y2="26.311%"><stop offset="0%" stop-color="#e2e2e2"/><stop offset="3%" stop-color="#d0d0d0"/><stop offset="6%" stop-color="#bcbcbc"/><stop offset="9%" stop-color="#b5b5b5"/><stop offset="49%" stop-color="#f6f6f6"/><stop offset="63%" stop-color="#f3f3f3"/><stop offset="73%" stop-color="#eaeaea"/><stop offset="82%" stop-color="#dbdbdb"/><stop offset="90%" stop-color="#c6c6c6"/><stop offset="97%" stop-color="#aaa"/><stop offset="100%" stop-color="#9b9b9b"/></linearGradient><linearGradient id="h" x1="0%" x2="100%" y1="32.27%" y2="32.27%"><stop offset="0%" stop-color="#e2e2e2"/><stop offset="3%" stop-color="#d0d0d0"/><stop offset="6%" stop-color="#bcbcbc"/><stop offset="9%" stop-color="#b5b5b5"/><stop offset="49%" stop-color="#f6f6f6"/><stop offset="63%" stop-color="#f3f3f3"/><stop offset="73%" stop-color="#eaeaea"/><stop offset="82%" stop-color="#dbdbdb"/><stop offset="90%" stop-color="#c6c6c6"/><stop offset="97%" stop-color="#aaa"/><stop offset="100%" stop-color="#9b9b9b"/></linearGradient><linearGradient id="i" x1="50.033%" x2="50.033%" y1="0%" y2="100%"><stop offset="0%" stop-color="#e2e2e2"/><stop offset="3%" stop-color="#d0d0d0"/><stop offset="6%" stop-color="#bcbcbc"/><stop offset="9%" stop-color="#b5b5b5"/><stop offset="49%" stop-color="#f6f6f6"/><stop offset="63%" stop-color="#f3f3f3"/><stop offset="73%" stop-color="#eaeaea"/><stop offset="82%" stop-color="#dbdbdb"/><stop offset="90%" stop-color="#c6c6c6"/><stop offset="97%" stop-color="#aaa"/><stop offset="100%" stop-color="#9b9b9b"/></linearGradient><linearGradient id="j" x1="50.033%" x2="50.033%" y1="0%" y2="100%"><stop offset="0%" stop-color="#e2e2e2"/><stop offset="3%" stop-color="#d0d0d0"/><stop offset="6%" stop-color="#bcbcbc"/><stop offset="9%" stop-color="#b5b5b5"/><stop offset="49%" stop-color="#f6f6f6"/><stop offset="63%" stop-color="#f3f3f3"/><stop offset="73%" stop-color="#eaeaea"/><stop offset="82%" stop-color="#dbdbdb"/><stop offset="90%" stop-color="#c6c6c6"/><stop offset="97%" stop-color="#aaa"/><stop offset="100%" stop-color="#9b9b9b"/></linearGradient><linearGradient id="k" x1="50%" x2="50%" y1="0%" y2="100%"><stop offset="0%" stop-color="#e2e2e2"/><stop offset="3%" stop-color="#d0d0d0"/><stop offset="6%" stop-color="#bcbcbc"/><stop offset="9%" stop-color="#b5b5b5"/><stop offset="49%" stop-color="#f6f6f6"/><stop offset="63%" stop-color="#f3f3f3"/><stop offset="73%" stop-color="#eaeaea"/><stop offset="82%" stop-color="#dbdbdb"/><stop offset="90%" stop-color="#c6c6c6"/><stop offset="97%" stop-color="#aaa"/><stop offset="100%" stop-color="#9b9b9b"/></linearGradient><linearGradient id="l" x1="0%" x2="100%" y1="32.23%" y2="32.23%"><stop offset="0%" stop-color="#e2e2e2"/><stop offset="3%" stop-color="#d0d0d0"/><stop offset="6%" stop-color="#bcbcbc"/><stop offset="9%" stop-color="#b5b5b5"/><stop offset="49%" stop-color="#f6f6f6"/><stop offset="63%" stop-color="#f3f3f3"/><stop offset="73%" stop-color="#eaeaea"/><stop offset="82%" stop-color="#dbdbdb"/><stop offset="90%" stop-color="#c6c6c6"/><stop offset="97%" stop-color="#aaa"/><stop offset="100%" stop-color="#9b9b9b"/></linearGradient><linearGradient id="m" x1="50%" x2="50%" y1="-.386%" y2="99.614%"><stop offset="0%" stop-color="#e2e2e2"/><stop offset="3%" stop-color="#d0d0d0"/><stop offset="6%" stop-color="#bcbcbc"/><stop offset="9%" stop-color="#b5b5b5"/><stop offset="49%" stop-color="#f6f6f6"/><stop offset="63%" stop-color="#f3f3f3"/><stop offset="73%" stop-color="#eaeaea"/><stop offset="82%" stop-color="#dbdbdb"/><stop offset="90%" stop-color="#c6c6c6"/><stop offset="97%" stop-color="#aaa"/><stop offset="100%" stop-color="#9b9b9b"/></linearGradient></defs><g fill="none" fill-rule="nonzero"><path fill="url(#a)" d="M103.12 143.17S94 150 51.56 150C8 150 0 143.17 0 143.17v-123S2.74 8.1 50.7 8.09c47.79 0 52.42 12.08 52.42 12.08z" transform="translate(.1 .8)"/><path fill="url(#b)" d="M30.36 0h41.69v5.21H30.36z" transform="matrix(-1 0 0 -1 102.51 6.01)"/><path fill="url(#c)" d="M0 18.86h102.74v23.07H0z" transform="matrix(-1 0 0 -1 102.84 61.59)"/><path fill="url(#d)" d="M34.46 5.21h34.41v1.75H34.46z" transform="matrix(-1 0 0 -1 103.43 12.97)"/><path fill="url(#e)" d="M34.46 6.96h34.41v3.54H34.46z" transform="matrix(-1 0 0 -1 103.43 18.26)"/><path fill="url(#f)" d="M-7.96 29.06h23.15v2.59H-7.96z" transform="rotate(90 3.265 30.805)"/><path fill="url(#f)" d="M7.97 29.06h23.15v2.59H7.97z" transform="rotate(90 19.195 30.805)"/><path fill="url(#f)" d="M23.9 29.06h23.15v2.59H23.9z" transform="rotate(90 35.125 30.805)"/><path fill="url(#f)" d="M39.83 29.06h23.15v2.59H39.83z" transform="rotate(90 51.055 30.805)"/><path fill="url(#f)" d="M55.76 29.06h23.15v2.59H55.76z" transform="rotate(90 66.985 30.805)"/><path fill="url(#f)" d="M71.69 29.06h23.15v2.59H71.69z" transform="rotate(90 82.915 30.805)"/><path fill="url(#f)" d="M87.62 29.06h23.15v2.59H87.62z" transform="rotate(90 98.845 30.805)"/><path fill="url(#g)" d="M.38 118.75h102.74v23.07H.38z" transform="matrix(-1 0 0 -1 103.6 261.37)"/><path fill="url(#f)" d="M-7.58 128.95h23.15v2.59H-7.58z" transform="rotate(90 3.645 130.695)"/><path fill="url(#f)" d="M8.35 128.95H31.5v2.59H8.35z" transform="rotate(90 19.575 130.695)"/><path fill="url(#f)" d="M24.28 128.95h23.15v2.59H24.28z" transform="rotate(90 35.505 130.695)"/><path fill="url(#f)" d="M40.21 128.95h23.15v2.59H40.21z" transform="rotate(90 51.435 130.695)"/><path fill="url(#f)" d="M56.14 128.95h23.15v2.59H56.14z" transform="rotate(90 67.365 130.695)"/><path fill="url(#f)" d="M72.07 128.95h23.15v2.59H72.07z" transform="rotate(90 83.295 130.695)"/><path fill="url(#f)" d="M88 128.95h23.15v2.59H88z" transform="rotate(90 99.225 130.695)"/><path fill="url(#h)" d="M.3 46.94h102.74v30.5H.3z" transform="matrix(-1 0 0 -1 103.44 125.18)"/><path fill="url(#i)" d="M-11.375 60.845h30.6v2.59h-30.6z" transform="rotate(90 3.575 62.59)"/><path fill="url(#i)" d="M4.555 60.845h30.6v2.59h-30.6z" transform="rotate(90 19.505 62.59)"/><path fill="url(#j)" d="M20.485 60.845h30.6v2.59h-30.6z" transform="rotate(90 35.435 62.59)"/><path fill="url(#i)" d="M36.415 60.845h30.6v2.59h-30.6z" transform="rotate(90 51.365 62.59)"/><path fill="url(#i)" d="M52.345 60.845h30.6v2.59h-30.6z" transform="rotate(90 67.295 62.59)"/><path fill="url(#j)" d="M68.275 60.845h30.6v2.59h-30.6z" transform="rotate(90 83.225 62.59)"/><path fill="url(#k)" d="M83.905 60.895h30.6v2.59h-30.6z" transform="rotate(90 98.855 62.64)"/><path fill="url(#l)" d="M.34 82.45h102.74v30.5H.34z" transform="matrix(-1 0 0 -1 103.52 196.2)"/><path fill="url(#m)" d="M-11.345 96.355h30.6v2.59h-30.6z" transform="rotate(90 3.605 98.1)"/><path fill="url(#m)" d="M4.585 96.355h30.6v2.59h-30.6z" transform="rotate(90 19.535 98.1)"/><path fill="url(#m)" d="M20.515 96.355h30.6v2.59h-30.6z" transform="rotate(90 35.465 98.1)"/><path fill="url(#m)" d="M36.445 96.355h30.6v2.59h-30.6z" transform="rotate(90 51.395 98.1)"/><path fill="url(#m)" d="M52.375 96.355h30.6v2.59h-30.6z" transform="rotate(90 67.325 98.1)"/><path fill="url(#m)" d="M68.305 96.355h30.6v2.59h-30.6z" transform="rotate(90 83.255 98.1)"/><path fill="url(#m)" d="M83.895 96.355h30.6v2.59h-30.6z" transform="rotate(90 98.845 98.1)"/></g></svg>