<svg xmlns="http://www.w3.org/2000/svg" viewBox="0 0 151 135"><title>飞机场</title><g fill="#e7382c" fill-rule="nonzero"><path d="M18.736 106.822c-.88-9.52-5.18-18.14-14.24-24-2.55-1.64-5.13-3-4.32-6.78 1.17-5.52 3.86-8.93 8-9.62a12.4 12.4 0 0 1 5.89.44c5.43 1.72 10.9 3.3 16.32 5a4.14 4.14 0 0 0 4.39-.76q10.67-8.6 21.53-16.91c1.56-1.2 1.78-1.92.45-3.49-8.43-9.94-16.76-20-25.15-29.93a30 30 0 0 0-3.1-2.93 10.17 10.17 0 0 1-2-13.42 10 10 0 0 1 12.82-3.34c7 3.44 13.9 7 20.79 10.62a4.07 4.07 0 0 0 4.17.12 7.13 7.13 0 0 1 10.25 5.27 4.3 4.3 0 0 0 2.6 3.35c4.61 2.24 9.19 4.56 13.69 7a4.13 4.13 0 0 0 4.68-.22c8.46-5.09 17.08-9.93 26.46-13.18 6-2.07 12.05-3.63 18.4-2 8.85 2.28 12.29 11 7.48 18.8a47.7 47.7 0 0 1-11.22 12c-15.15 12.17-32.07 21.44-49.13 30.44a735 735 0 0 1-44 21.38c-2.88 1.28-4.57 2.93-4.93 6.15a51.5 51.5 0 0 1-1.67 7.51c-2.14 7.92-10.08 9.54-16.4 5.54-2.21-1.37-1.88-3.79-1.76-7.04m16.71-96.09.72.43 31.47 37.65c3.6 4.32 3.35 6.47-1.14 9.83-9.61 7.16-19.09 14.48-28.26 22.18a6.86 6.86 0 0 1-7.32 1.47c-5.44-1.88-11-3.44-16.5-5.14a49.64 49.64 0 0 1 13.67 25.86c.94-3.94 1.79-7 2.41-10.2a6 6 0 0 1 3.77-4.61 745 745 0 0 0 43.15-20.59c18.47-9.6 36.88-19.29 53.26-32.36a41.3 41.3 0 0 0 8.16-8.32c.87-1.23 2-2.53 1.11-4.13s-2.47-1.57-4-1.65a27.7 27.7 0 0 0-10.56 2c-9.83 3.44-18.82 8.58-27.58 14.09a7.5 7.5 0 0 1-8.46.34c-5.32-2.93-10.78-5.67-16.24-8.33s-10.39-5.86-15.89-8.24c-7-3.08-13.75-6.86-20.61-10.33l-.78-.3c-.27-.38-.58-.62-1-.27z"/><path d="M99.776 134.362c-4.42 0-8.8-3-9.71-7.4-2-9.55-6.11-18.36-9-27.58-1.09-3.44-2.4-6.81-3.58-10.22-1.54-4.42-1-6 3.18-8.41 5.08-3 10.49-5.33 15.75-7.94a87 87 0 0 0 9.17-5.15c1.89-1.24 4-2 6.12-.57s2.7 3.55 2.24 6.23c-.79 4.58-1.16 9.24-1.74 13.86a3.23 3.23 0 0 0 1 2.79c3.24 3.61 3 7.79-.73 11a3.93 3.93 0 0 0-1.48 3.14c-.32 6.84-.71 13.68-1.1 20.52a10.29 10.29 0 0 1-10.12 9.73m3.38-54-14.65 7.1c-1.21.59-.9 1.43-.56 2.39 4 11.4 8 22.8 12.1 34.5.85-14.7 1.68-29.09 3.11-44.04z"/></g></svg>