<svg xmlns="http://www.w3.org/2000/svg" viewBox="0 0 151 151"><title>iot-按钮_Yellow pushbutton(黄色按钮)</title><defs><radialGradient id="a" cx="50%" cy="50.036%" r="48.294%" fx="50%" fy="50.036%"><stop offset="0%" stop-color="#f4f4f4" stop-opacity="0"/><stop offset="38%" stop-color="#f4f4f4" stop-opacity=".01"/><stop offset="52%" stop-color="#f3f3f3" stop-opacity=".04"/><stop offset="62%" stop-color="#f2f2f2" stop-opacity=".09"/><stop offset="70%" stop-color="#f1f1f1" stop-opacity=".17"/><stop offset="76%" stop-color="#efefef" stop-opacity=".26"/><stop offset="82%" stop-color="#ededed" stop-opacity=".38"/><stop offset="88%" stop-color="#ebebeb" stop-opacity=".53"/><stop offset="93%" stop-color="#e8e8e8" stop-opacity=".69"/><stop offset="97%" stop-color="#e4e4e4" stop-opacity=".88"/><stop offset="100%" stop-color="#e2e2e2"/></radialGradient></defs><g fill="none" fill-rule="nonzero" transform="translate(.23 .13)"><path fill="#5d5f69" d="M95.1 0H54.9L20.1 20.1 0 54.9v40.2l20.1 34.8L54.9 150h40.2l34.8-20.1L150 95.1V54.9l-20.1-34.8z"/><path fill="#858792" d="M93.8 4.7H56.2L23.5 23.5 4.7 56.2v37.6l18.8 32.7 32.7 18.8h37.6l32.7-18.8 18.8-32.7V56.2l-18.8-32.7z"/><path fill="#53565e" d="M90.5 17.1h-31L32.7 32.7 17.1 59.5v31l15.6 26.8 26.8 15.6h31l26.8-15.6 15.6-26.8v-31l-15.6-26.8z"/><circle cx="75" cy="75" r="53.8" fill="#3e3938"/><circle cx="75" cy="75" r="49.1" fill="#f6eb68"/><circle cx="75" cy="73.8" r="41.9" fill="url(#a)" opacity=".68"/></g></svg>