<svg xmlns="http://www.w3.org/2000/svg" viewBox="0 0 151 151"><title>iot-按钮_Dial （表盘）-16</title><g fill="none" fill-rule="evenodd" transform="translate(.74 .13)"><circle cx="75" cy="75" r="68.52" fill="#fff" fill-rule="nonzero"/><path fill="#eaeaea" fill-rule="nonzero" d="M6.49 75a68.44 68.44 0 0 0 29.93 56.61 73 73 0 0 0 10.17.8c40.55 0 73.43-33.44 73.43-74.69a75.1 75.1 0 0 0-14-43.78A68.43 68.43 0 0 0 6.49 75"/><path fill="#7f7f7f" fill-rule="nonzero" d="M75 0C33.579 0 0 33.579 0 75s33.579 75 75 75 75-33.579 75-75A75 75 0 0 0 75 0m0 143.52c-27.716.012-52.71-16.675-63.326-42.278s-4.76-55.08 14.834-74.682 49.069-25.47 74.677-14.867C126.792 22.297 143.49 47.283 143.49 75c0 37.83-30.66 68.503-68.49 68.52"/><path fill="#7f7f7f" fill-rule="nonzero" d="m97.96 95.42 5.14-9.07a2.86 2.86 0 0 0-1.07-3.9 2.6 2.6 0 0 0-.45-.14h-.23a2.4 2.4 0 0 0-.69-.12 50.2 50.2 0 0 1-13.92-4.45C74.65 71.14 27.62 42 27.62 42s44.38 32.35 57 42.71c3 2.49 7 8.42 8.37 10.5.113.249.265.479.45.68a1 1 0 0 0 .05.11q.264.292.59.51a2.86 2.86 0 0 0 3.88-1.09"/><circle cx="77.31" cy="75.87" r="5.92" fill="#7f7f7f" fill-rule="nonzero"/><path stroke="#7f7f7f" stroke-width=".25" d="m104.46 20.59-4.85 9.12m-52.05-9.12 4.85 9.12M14.68 66.89l10.23 1.46"/><circle cx="77.31" cy="75.87" r="3.38" fill="#dedede" fill-rule="nonzero"/></g></svg>