<svg xmlns="http://www.w3.org/2000/svg" viewBox="0 0 151 151"><title>iot-按钮_Dial （表盘）-17</title><defs><linearGradient id="a" x1="0%" x2="100%" y1="50%" y2="50%"><stop offset="0%" stop-color="#6b6b6b"/><stop offset="11%" stop-color="#767676"/><stop offset="30%" stop-color="#959595"/><stop offset="41%" stop-color="#aaa"/><stop offset="56%" stop-color="#ccc"/><stop offset="71%" stop-color="#eaeaea"/><stop offset="80%" stop-color="#f6f6f6"/><stop offset="83%" stop-color="#ededed"/><stop offset="87%" stop-color="#d4d4d4"/><stop offset="92%" stop-color="#ababab"/><stop offset="98%" stop-color="#737373"/><stop offset="99%" stop-color="#666"/></linearGradient></defs><g fill="none" fill-rule="evenodd" transform="translate(0 .21)"><circle cx="75.23" cy="75.23" r="75.23" fill="url(#a)" fill-rule="nonzero"/><circle cx="75.23" cy="75.23" r="58.42" fill="#fde9d0" fill-rule="nonzero"/><path fill="#fff" fill-rule="nonzero" stroke="#9b9b9b" stroke-width=".5" d="M101.8 100.25c9.533-13.034 7.666-31.165-4.323-41.983-11.988-10.818-30.216-10.818-42.204 0-11.99 10.818-13.856 28.95-4.323 41.983z"/><path fill="#c74d58" fill-rule="nonzero" d="m39.13 72.94 66.91 1.1-5.31 14.29z"/><circle cx="78.64" cy="77.61" r="6.69" fill="#4e4a4a" fill-rule="nonzero"/><circle cx="75.23" cy="30.76" r="5.55" stroke="#919191" stroke-width=".5"/><circle cx="103.46" cy="43.1" r="5.55" stroke="#919191" stroke-width=".5"/><circle cx="117.88" cy="63.39" r="5.55" stroke="#919191" stroke-width=".5"/><circle cx="120.69" cy="94.7" r="5.55" stroke="#919191" stroke-width=".5"/><circle cx="46.39" cy="43.1" r="5.55" stroke="#919191" stroke-width=".5"/><circle cx="30.14" cy="63.39" r="5.55" stroke="#919191" stroke-width=".5"/><circle cx="30.14" cy="93.88" r="5.55" stroke="#919191" stroke-width=".5"/></g></svg>