<svg xmlns="http://www.w3.org/2000/svg" viewBox="0 0 83 151"><title>iot-按钮_Long flip switch (长翻转开关）</title><g fill="none" fill-rule="nonzero" transform="translate(.23 .13)"><circle cx="41.24" cy="41.24" r="41.24" fill="#dadbe0"/><circle cx="41.24" cy="41.24" r="31.91" fill="#000"/><circle cx="41.24" cy="41.24" r="22.32" fill="#dadbe0"/><circle cx="41.24" cy="41.24" r="18.78" fill="#000"/><path fill="#000" d="M60.78 141.67S59 150 40.85 150c-15 0-19.94-8.33-19.94-8.33l3.16-100.43h34.32z"/><path fill="#c1c1c1" d="M22.82 79.33h36.5v2.74h-36.5zm-.11 7.78h37.07v2.74H22.71zm-.48 7.14H59.8v2.74H22.23zm-.35 7.25h37.75v2.74H21.88zm-.19 7.74h38.65v2.74H21.69zm-.07 7.56h38.79v2.74H21.62zm-.37 7.55h38.99v2.74H21.25zm-.34 7.2h39.67v2.74H20.91zm0 7.21h39.87v2.74H20.91z"/></g></svg>