<svg xmlns="http://www.w3.org/2000/svg" viewBox="0 0 100 151"><title>iot-按钮_Throw switch (转换开关）</title><defs><linearGradient id="a" x1="0%" x2="100%" y1="50%" y2="50%"><stop offset="0%" stop-color="#6b6b6b"/><stop offset="1%" stop-color="#767676"/><stop offset="3%" stop-color="#959595"/><stop offset="4%" stop-color="#aaa"/><stop offset="37%" stop-color="#ccc"/><stop offset="74%" stop-color="#eaeaea"/><stop offset="94%" stop-color="#f6f6f6"/><stop offset="95%" stop-color="#ededed"/><stop offset="96%" stop-color="#d4d4d4"/><stop offset="97%" stop-color="#ababab"/><stop offset="99%" stop-color="#737373"/><stop offset="99%" stop-color="#666"/></linearGradient><linearGradient id="b" x1="49.981%" x2="49.981%" y1="100%" y2="0%"><stop offset="0%" stop-color="#e2e2e2"/><stop offset="3%" stop-color="#d0d0d0"/><stop offset="6%" stop-color="#bcbcbc"/><stop offset="9%" stop-color="#b5b5b5"/><stop offset="49%" stop-color="#f6f6f6"/><stop offset="63%" stop-color="#f3f3f3"/><stop offset="73%" stop-color="#eaeaea"/><stop offset="82%" stop-color="#dbdbdb"/><stop offset="90%" stop-color="#c6c6c6"/><stop offset="97%" stop-color="#aaa"/><stop offset="100%" stop-color="#9b9b9b"/></linearGradient><linearGradient id="c" x1="50%" x2="50%" y1="100%" y2="0%"><stop offset="0%" stop-color="#e2e2e2"/><stop offset="3%" stop-color="#d0d0d0"/><stop offset="6%" stop-color="#bcbcbc"/><stop offset="9%" stop-color="#b5b5b5"/><stop offset="49%" stop-color="#f6f6f6"/><stop offset="63%" stop-color="#f3f3f3"/><stop offset="73%" stop-color="#eaeaea"/><stop offset="82%" stop-color="#dbdbdb"/><stop offset="90%" stop-color="#c6c6c6"/><stop offset="97%" stop-color="#aaa"/><stop offset="100%" stop-color="#9b9b9b"/></linearGradient><linearGradient id="d" x1="0%" x2="99.902%" y1="50.076%" y2="50.076%"><stop offset="0%" stop-color="#6b6b6b"/><stop offset="11%" stop-color="#767676"/><stop offset="30%" stop-color="#959595"/><stop offset="41%" stop-color="#aaa"/><stop offset="56%" stop-color="#ccc"/><stop offset="71%" stop-color="#eaeaea"/><stop offset="80%" stop-color="#f6f6f6"/><stop offset="83%" stop-color="#ededed"/><stop offset="87%" stop-color="#d4d4d4"/><stop offset="92%" stop-color="#ababab"/><stop offset="98%" stop-color="#737373"/><stop offset="99%" stop-color="#666"/></linearGradient><linearGradient id="e" x1="0%" x2="100%" y1="50.076%" y2="50.076%"><stop offset="0%" stop-color="#6b6b6b"/><stop offset="11%" stop-color="#767676"/><stop offset="30%" stop-color="#959595"/><stop offset="41%" stop-color="#aaa"/><stop offset="56%" stop-color="#ccc"/><stop offset="71%" stop-color="#eaeaea"/><stop offset="80%" stop-color="#f6f6f6"/><stop offset="83%" stop-color="#ededed"/><stop offset="87%" stop-color="#d4d4d4"/><stop offset="92%" stop-color="#ababab"/><stop offset="98%" stop-color="#737373"/><stop offset="99%" stop-color="#666"/></linearGradient><linearGradient id="f" x1="0%" x2="100%" y1="50.059%" y2="50.059%"><stop offset="0%" stop-color="#e2e2e2"/><stop offset="3%" stop-color="#d0d0d0"/><stop offset="6%" stop-color="#bcbcbc"/><stop offset="9%" stop-color="#b5b5b5"/><stop offset="49%" stop-color="#f6f6f6"/><stop offset="63%" stop-color="#f3f3f3"/><stop offset="73%" stop-color="#eaeaea"/><stop offset="82%" stop-color="#dbdbdb"/><stop offset="90%" stop-color="#c6c6c6"/><stop offset="97%" stop-color="#aaa"/><stop offset="100%" stop-color="#9b9b9b"/></linearGradient><linearGradient id="g" x1="0%" x2="100%" y1="50%" y2="50%"><stop offset="0%" stop-color="#6b6b6b"/><stop offset="11%" stop-color="#767676"/><stop offset="30%" stop-color="#959595"/><stop offset="41%" stop-color="#aaa"/><stop offset="56%" stop-color="#ccc"/><stop offset="71%" stop-color="#eaeaea"/><stop offset="80%" stop-color="#f6f6f6"/><stop offset="83%" stop-color="#ededed"/><stop offset="87%" stop-color="#d4d4d4"/><stop offset="92%" stop-color="#ababab"/><stop offset="98%" stop-color="#737373"/><stop offset="99%" stop-color="#666"/></linearGradient><linearGradient id="h" x1="49.983%" x2="49.983%" y1="100%" y2="0%"><stop offset="0%" stop-color="#e2e2e2"/><stop offset="3%" stop-color="#d0d0d0"/><stop offset="6%" stop-color="#bcbcbc"/><stop offset="9%" stop-color="#b5b5b5"/><stop offset="49%" stop-color="#f6f6f6"/><stop offset="63%" stop-color="#f3f3f3"/><stop offset="73%" stop-color="#eaeaea"/><stop offset="82%" stop-color="#dbdbdb"/><stop offset="90%" stop-color="#c6c6c6"/><stop offset="97%" stop-color="#aaa"/><stop offset="100%" stop-color="#9b9b9b"/></linearGradient><linearGradient id="i" x1="50.031%" x2="50.031%" y1="0%" y2="100.031%"><stop offset="0%" stop-color="#b7b7b7"/><stop offset="3%" stop-color="#9b9d9d"/><stop offset="7%" stop-color="#878b8b"/><stop offset="9%" stop-color="#808484"/><stop offset="20%" stop-color="#a3a6a6"/><stop offset="49%" stop-color="#f6f6f6"/><stop offset="61%" stop-color="#f3f3f3"/><stop offset="70%" stop-color="#eaeaea"/><stop offset="77%" stop-color="#dbdbdb"/><stop offset="83%" stop-color="#c5c5c5"/><stop offset="90%" stop-color="#aaa"/><stop offset="95%" stop-color="#888"/><stop offset="100%" stop-color="#666"/></linearGradient><linearGradient id="j" x1="50.038%" x2="50.038%" y1="0%" y2="100.031%"><stop offset="0%" stop-color="#b7b7b7"/><stop offset="3%" stop-color="#9b9d9d"/><stop offset="7%" stop-color="#878b8b"/><stop offset="9%" stop-color="#808484"/><stop offset="20%" stop-color="#a3a6a6"/><stop offset="49%" stop-color="#f6f6f6"/><stop offset="61%" stop-color="#f3f3f3"/><stop offset="70%" stop-color="#eaeaea"/><stop offset="77%" stop-color="#dbdbdb"/><stop offset="83%" stop-color="#c5c5c5"/><stop offset="90%" stop-color="#aaa"/><stop offset="95%" stop-color="#888"/><stop offset="100%" stop-color="#666"/></linearGradient></defs><g fill="none" fill-rule="nonzero"><path fill="url(#a)" d="M0 0h99.1v102.94H0z" transform="translate(.23 .13)"/><path fill="#575962" d="M63.64 17.96h18.3V85.2h-18.3z"/><path fill="#000" d="M66.37 20.63h12.74v61.94H66.37z"/><path fill="#575962" d="M18.51 17.96h18.3V85.2h-18.3z"/><path fill="url(#b)" d="M36.31 119.39h26.63v10.18H36.31z" transform="translate(.23 .13)"/><path fill="#504e4e" d="M66.37 46.48h12.74v6.41H66.37z"/><path fill="url(#c)" d="M42.91 78.9h58.2v10.18h-58.2z" transform="rotate(90 72.06 84.17)"/><path fill="#000" d="M21.23 20.63h12.74v61.94H21.23z"/><path fill="#504e4e" d="M21.23 46.48h12.74v6.41H21.23z"/><path fill="url(#d)" d="M22.18 48.32h10.18v6.57H22.18z" transform="translate(.23 .13)"/><path fill="url(#e)" d="M66.92 48.32H77.1v6.57H66.92z" transform="translate(.23 .13)"/><path fill="url(#f)" d="M42.72 129.57h14.66v8.47H42.72z" transform="translate(.23 .13)"/><path fill="url(#g)" d="M41.86 138.04h16.16V150H41.86z" transform="translate(.23 .13)"/><path fill="url(#h)" d="M-1.83 78.9h58.2v10.18h-58.2z" transform="rotate(90 27.32 84.17)"/><path fill="url(#i)" d="M36.31 119.34v10.12s-8.35 1.15-12.4-4.17c-3.17-4.17-1.79-12.48-1.79-12.48h10.23a6.8 6.8 0 0 0 1 4.5 6.64 6.64 0 0 0 2.96 2.03" transform="translate(.23 .13)"/><path fill="url(#j)" d="M62.93 119.34v10.12s8.35 1.15 12.4-4.17c3.17-4.17 1.79-12.48 1.79-12.48H66.89a6.8 6.8 0 0 1-1 4.5 6.64 6.64 0 0 1-2.96 2.03" transform="translate(.23 .13)"/></g></svg>