<svg xmlns="http://www.w3.org/2000/svg" viewBox="0 0 151 76"><title>Access ladder（检修梯）</title><defs><linearGradient id="a" x1="49.947%" x2="49.947%" y1="0%" y2="100%"><stop offset="0%" stop-color="#ccc"/><stop offset="3%" stop-color="#bbb"/><stop offset="6%" stop-color="#a7a7a7"/><stop offset="9%" stop-color="#a0a0a0"/><stop offset="10%" stop-color="#a3a3a3"/><stop offset="49%" stop-color="#f6f6f6"/><stop offset="62%" stop-color="#f3f3f3"/><stop offset="72%" stop-color="#eaeaea"/><stop offset="80%" stop-color="#dbdbdb"/><stop offset="87%" stop-color="#c5c5c5"/><stop offset="94%" stop-color="#aaa"/><stop offset="100%" stop-color="#898989"/></linearGradient><linearGradient id="b" x1="50%" x2="50%" y1="0%" y2="100.503%"><stop offset="0%" stop-color="#ccc"/><stop offset="3%" stop-color="#bbb"/><stop offset="6%" stop-color="#a7a7a7"/><stop offset="9%" stop-color="#a0a0a0"/><stop offset="10%" stop-color="#a3a3a3"/><stop offset="49%" stop-color="#f6f6f6"/><stop offset="62%" stop-color="#f3f3f3"/><stop offset="72%" stop-color="#eaeaea"/><stop offset="80%" stop-color="#dbdbdb"/><stop offset="87%" stop-color="#c5c5c5"/><stop offset="94%" stop-color="#aaa"/><stop offset="100%" stop-color="#898989"/></linearGradient><linearGradient id="c" x1="50%" x2="50%" y1="0%" y2="100%"><stop offset="0%" stop-color="#ccc"/><stop offset="3%" stop-color="#bbb"/><stop offset="6%" stop-color="#a7a7a7"/><stop offset="9%" stop-color="#a0a0a0"/><stop offset="10%" stop-color="#a3a3a3"/><stop offset="49%" stop-color="#f6f6f6"/><stop offset="62%" stop-color="#f3f3f3"/><stop offset="72%" stop-color="#eaeaea"/><stop offset="80%" stop-color="#dbdbdb"/><stop offset="87%" stop-color="#c5c5c5"/><stop offset="94%" stop-color="#aaa"/><stop offset="100%" stop-color="#898989"/></linearGradient><linearGradient id="d" x1="50%" x2="50%" y1=".503%" y2="100.503%"><stop offset="0%" stop-color="#ccc"/><stop offset="3%" stop-color="#bbb"/><stop offset="6%" stop-color="#a7a7a7"/><stop offset="9%" stop-color="#a0a0a0"/><stop offset="10%" stop-color="#a3a3a3"/><stop offset="49%" stop-color="#f6f6f6"/><stop offset="62%" stop-color="#f3f3f3"/><stop offset="72%" stop-color="#eaeaea"/><stop offset="80%" stop-color="#dbdbdb"/><stop offset="87%" stop-color="#c5c5c5"/><stop offset="94%" stop-color="#aaa"/><stop offset="100%" stop-color="#898989"/></linearGradient><linearGradient id="e" x1="50%" x2="50%" y1="0%" y2="100%"><stop offset="0%" stop-color="#ccc"/><stop offset="3%" stop-color="#bbb"/><stop offset="6%" stop-color="#a7a7a7"/><stop offset="9%" stop-color="#a0a0a0"/><stop offset="10%" stop-color="#a3a3a3"/><stop offset="49%" stop-color="#f6f6f6"/><stop offset="62%" stop-color="#f3f3f3"/><stop offset="72%" stop-color="#eaeaea"/><stop offset="80%" stop-color="#dbdbdb"/><stop offset="87%" stop-color="#c5c5c5"/><stop offset="94%" stop-color="#aaa"/><stop offset="100%" stop-color="#898989"/></linearGradient><linearGradient id="f" x1="50.045%" x2="50.045%" y1="-.503%" y2="100%"><stop offset="0%" stop-color="#ccc"/><stop offset="3%" stop-color="#bbb"/><stop offset="6%" stop-color="#a7a7a7"/><stop offset="9%" stop-color="#a0a0a0"/><stop offset="10%" stop-color="#a3a3a3"/><stop offset="49%" stop-color="#f6f6f6"/><stop offset="62%" stop-color="#f3f3f3"/><stop offset="72%" stop-color="#eaeaea"/><stop offset="80%" stop-color="#dbdbdb"/><stop offset="87%" stop-color="#c5c5c5"/><stop offset="94%" stop-color="#aaa"/><stop offset="100%" stop-color="#898989"/></linearGradient><linearGradient id="g" x1="49.954%" x2="49.954%" y1="0%" y2="100.503%"><stop offset="0%" stop-color="#ccc"/><stop offset="3%" stop-color="#bbb"/><stop offset="6%" stop-color="#a7a7a7"/><stop offset="9%" stop-color="#a0a0a0"/><stop offset="10%" stop-color="#a3a3a3"/><stop offset="49%" stop-color="#f6f6f6"/><stop offset="62%" stop-color="#f3f3f3"/><stop offset="72%" stop-color="#eaeaea"/><stop offset="80%" stop-color="#dbdbdb"/><stop offset="87%" stop-color="#c5c5c5"/><stop offset="94%" stop-color="#aaa"/><stop offset="100%" stop-color="#898989"/></linearGradient><linearGradient id="h" x1="50.046%" x2="50.046%" y1=".503%" y2="100.503%"><stop offset="0%" stop-color="#ccc"/><stop offset="3%" stop-color="#bbb"/><stop offset="6%" stop-color="#a7a7a7"/><stop offset="9%" stop-color="#a0a0a0"/><stop offset="10%" stop-color="#a3a3a3"/><stop offset="49%" stop-color="#f6f6f6"/><stop offset="62%" stop-color="#f3f3f3"/><stop offset="72%" stop-color="#eaeaea"/><stop offset="80%" stop-color="#dbdbdb"/><stop offset="87%" stop-color="#c5c5c5"/><stop offset="94%" stop-color="#aaa"/><stop offset="100%" stop-color="#898989"/></linearGradient><linearGradient id="i" x1="50.048%" x2="50.048%" y1="0%" y2="100%"><stop offset="0%" stop-color="#ccc"/><stop offset="3%" stop-color="#bbb"/><stop offset="6%" stop-color="#a7a7a7"/><stop offset="9%" stop-color="#a0a0a0"/><stop offset="10%" stop-color="#a3a3a3"/><stop offset="49%" stop-color="#f6f6f6"/><stop offset="62%" stop-color="#f3f3f3"/><stop offset="72%" stop-color="#eaeaea"/><stop offset="80%" stop-color="#dbdbdb"/><stop offset="87%" stop-color="#c5c5c5"/><stop offset="94%" stop-color="#aaa"/><stop offset="100%" stop-color="#898989"/></linearGradient><linearGradient id="j" x1="50%" x2="50%" y1="-.503%" y2="100%"><stop offset="0%" stop-color="#ccc"/><stop offset="3%" stop-color="#bbb"/><stop offset="6%" stop-color="#a7a7a7"/><stop offset="9%" stop-color="#a0a0a0"/><stop offset="10%" stop-color="#a3a3a3"/><stop offset="49%" stop-color="#f6f6f6"/><stop offset="62%" stop-color="#f3f3f3"/><stop offset="72%" stop-color="#eaeaea"/><stop offset="80%" stop-color="#dbdbdb"/><stop offset="87%" stop-color="#c5c5c5"/><stop offset="94%" stop-color="#aaa"/><stop offset="100%" stop-color="#898989"/></linearGradient><linearGradient id="k" x1="50%" x2="50%" y1="0%" y2="100.503%"><stop offset="0%" stop-color="#ccc"/><stop offset="3%" stop-color="#bbb"/><stop offset="6%" stop-color="#a7a7a7"/><stop offset="9%" stop-color="#a0a0a0"/><stop offset="10%" stop-color="#a3a3a3"/><stop offset="49%" stop-color="#f6f6f6"/><stop offset="62%" stop-color="#f3f3f3"/><stop offset="72%" stop-color="#eaeaea"/><stop offset="80%" stop-color="#dbdbdb"/><stop offset="87%" stop-color="#c5c5c5"/><stop offset="94%" stop-color="#aaa"/><stop offset="100%" stop-color="#898989"/></linearGradient><linearGradient id="l" x1="50.046%" x2="50.046%" y1="0%" y2="100%"><stop offset="0%" stop-color="#ccc"/><stop offset="3%" stop-color="#bbb"/><stop offset="6%" stop-color="#a7a7a7"/><stop offset="9%" stop-color="#a0a0a0"/><stop offset="10%" stop-color="#a3a3a3"/><stop offset="49%" stop-color="#f6f6f6"/><stop offset="62%" stop-color="#f3f3f3"/><stop offset="72%" stop-color="#eaeaea"/><stop offset="80%" stop-color="#dbdbdb"/><stop offset="87%" stop-color="#c5c5c5"/><stop offset="94%" stop-color="#aaa"/><stop offset="100%" stop-color="#898989"/></linearGradient><linearGradient id="m" x1="49.954%" x2="49.954%" y1="0%" y2="100%"><stop offset="0%" stop-color="#ccc"/><stop offset="3%" stop-color="#bbb"/><stop offset="6%" stop-color="#a7a7a7"/><stop offset="9%" stop-color="#a0a0a0"/><stop offset="10%" stop-color="#a3a3a3"/><stop offset="49%" stop-color="#f6f6f6"/><stop offset="62%" stop-color="#f3f3f3"/><stop offset="72%" stop-color="#eaeaea"/><stop offset="80%" stop-color="#dbdbdb"/><stop offset="87%" stop-color="#c5c5c5"/><stop offset="94%" stop-color="#aaa"/><stop offset="100%" stop-color="#898989"/></linearGradient></defs><g fill="none" fill-rule="nonzero"><path fill="#dcdce2" d="M.527 12.512V2.422h1.99v10.09z"/><path fill="#dcdce2" d="m1.246 11.024 8.945-8.945 1.407 1.407-8.945 8.945zM12.161 11.355l8.945-8.945 1.407 1.407-8.945 8.945zM22.232 13.143l7.121-7.12L30.76 7.43l-7.12 7.12zM30.298 18.166l7.12-7.12 1.408 1.406-7.12 7.12zM39.384 23.157l7.12-7.12 1.408 1.406-7.12 7.12zM48.477 28.054l7.12-7.12 1.408 1.406-7.12 7.12zM57.565 32.968l7.121-7.12 1.407 1.407-7.12 7.12zM66.474 38.504l7.12-7.12 1.408 1.407-7.121 7.12zM75.31 43.889l7.12-7.12 1.407 1.406-7.12 7.12zM84.625 49.229l7.12-7.12 1.408 1.406-7.12 7.12zM93.218 53.983l7.12-7.12 1.408 1.406-7.12 7.12zM102.591 59.68l7.12-7.12 1.408 1.407-7.12 7.12zM111.286 64.296l7.12-7.12 1.408 1.406-7.12 7.12zM120.056 69.384l7.12-7.12 1.408 1.406-7.12 7.12zM127.996 72.633l9.758-9.758 1.408 1.408-9.758 9.758zM138.13 73.206l9.757-9.758 1.408 1.408-9.758 9.758z"/><path fill="url(#a)" d="M7.28 6.26h9.41v1.99H7.28z" transform="rotate(-90 12.004 7.267)"/><path fill="url(#b)" d="M17.495 6.565h10.02v1.99h-10.02z" transform="rotate(-90 22.524 7.572)"/><path fill="url(#c)" d="M25.275 10.965h10.02v1.99h-10.02z" transform="rotate(-90 30.304 11.972)"/><path fill="url(#b)" d="M34.365 16.585h10.02v1.99h-10.02z" transform="rotate(-90 39.395 17.592)"/><path fill="url(#b)" d="M43.455 21.595h10.02v1.99h-10.02z" transform="rotate(-90 48.485 22.602)"/><path fill="url(#d)" d="M52.365 26.785h10.38v1.99h-10.38z" transform="rotate(-90 57.574 27.792)"/><path fill="url(#e)" d="M60.995 31.685h10.44v1.99h-10.44z" transform="rotate(-90 66.235 32.693)"/><path fill="url(#f)" d="M69.82 37.47h10.99v1.99H69.82z" transform="rotate(-90 75.335 38.478)"/><path fill="url(#g)" d="M78.78 42.32h10.83v1.99H78.78z" transform="rotate(-90 84.215 43.328)"/><path fill="url(#h)" d="M87.82 47.44h10.77v1.99H87.82z" transform="rotate(-90 93.224 48.447)"/><path fill="url(#i)" d="M96.85 52.53h10.51v1.99H96.85z" transform="rotate(-90 102.124 53.538)"/><path fill="url(#j)" d="M105.905 57.905h10.76v1.99h-10.76z" transform="rotate(-90 111.305 58.913)"/><path fill="url(#k)" d="M115.035 62.995h10.02v1.99h-10.02z" transform="rotate(-90 120.065 64.003)"/><path fill="url(#l)" d="M122.52 67.68h10.93v1.99h-10.93z" transform="rotate(-90 128.005 68.688)"/><path fill="url(#m)" d="M133.03 68h10.93v1.99h-10.93z" transform="rotate(-90 138.515 69.008)"/><path fill="#dcdce2" d="M148.007 73.052v-9.18h1.99v9.18zM150.007 61.092h-21.91L22.577.162v-.13H.007v2.71h21.61l105.82 61.1v.03h22.57z"/><path fill="#dcdce2" d="M150.007 73.052h-21.91l-105.52-60.92v-.14H.007v2.72h21.61l105.87 61.12h22.52z"/></g></svg>