<svg xmlns="http://www.w3.org/2000/svg" viewBox="0 0 151 106"><title>Chain link fence（铁丝网围栏）</title><g fill="none" fill-rule="nonzero"><path fill="#848484" d="M.007.032h150v105.22h-150z"/><path fill="#c1c1c1" d="M3.707 4.602h141.09v96.09H3.707z"/><path fill="#fbfbfb" d="M68.377 4.602h4.89v96.09h-4.89zm-25.97 0h5.47v96.09h-5.47zm12.46 0h5.9v96.09h-5.9zm6.99 0h5.43v96.09h-5.43zm-26.23 0h5.68v96.09h-5.68zm13.33 0h4.82v96.09h-4.82zm-19.67 0h5.25v96.09h-5.25zm-25.58 0h4.89v96.09h-4.89zm5.98 0h5.97v96.09h-5.97zm7.06 0h5.07v96.09h-5.07zm6.16 0h5.28v96.09h-5.28zm117.03 0h4.85v96.09h-4.85zm-20.07 0h5.36v96.09h-5.36zm-45.51 0h5.43v96.09h-5.43zm58.41 0h6.08v96.09h-6.08zm-6.45 0h5.36v96.09h-5.36zm-19.35 0h5.65v96.09h-5.65zm6.74 0h5.07v96.09h-5.07zm-25.76 0h4.88v96.09h-4.88zm-7.07 0h5.98v96.09h-5.98zm19.56 0h5.43v96.09h-5.43zm-6.51 0h5.43v96.09h-5.43z"/><path fill="#c1c1c1" d="M3.707 10.542h141.09v1H3.707zm0 6.39h141.09v1H3.707zm0 6.38h141.09v1H3.707zm0 6.38h141.09v1H3.707zm0 6.84h141.09v1H3.707zm0 6.38h141.09v1H3.707zm0 6.18h141.09v1H3.707zm0 6.36h141.09v1H3.707zm0 6.39h141.09v1H3.707zm0 6.89h141.09v1H3.707zm0 6.3h141.09v1H3.707zm0 6.39h141.09v1H3.707zm0 6.18h141.09v1H3.707zm0 6.87h141.09v1H3.707z"/></g></svg>