<svg xmlns="http://www.w3.org/2000/svg" viewBox="0 0 151 119"><title>Chain link fence with barbed wire(铁丝网围栏)</title><defs><linearGradient id="a" x1="0%" x2="100%" y1="49.996%" y2="49.996%"><stop offset="0%" stop-color="#e2e2e2"/><stop offset="3%" stop-color="#d0d0d0"/><stop offset="6%" stop-color="#bcbcbc"/><stop offset="9%" stop-color="#b5b5b5"/><stop offset="49%" stop-color="#f6f6f6"/><stop offset="63%" stop-color="#f3f3f3"/><stop offset="73%" stop-color="#eaeaea"/><stop offset="82%" stop-color="#dbdbdb"/><stop offset="90%" stop-color="#c6c6c6"/><stop offset="97%" stop-color="#aaa"/><stop offset="100%" stop-color="#9b9b9b"/></linearGradient><linearGradient id="b" x1="0%" x2="100%" y1="49.996%" y2="49.996%"><stop offset="0%" stop-color="#e2e2e2"/><stop offset="3%" stop-color="#d0d0d0"/><stop offset="6%" stop-color="#bcbcbc"/><stop offset="9%" stop-color="#b5b5b5"/><stop offset="49%" stop-color="#f6f6f6"/><stop offset="63%" stop-color="#f3f3f3"/><stop offset="73%" stop-color="#eaeaea"/><stop offset="82%" stop-color="#dbdbdb"/><stop offset="90%" stop-color="#c6c6c6"/><stop offset="97%" stop-color="#aaa"/><stop offset="100%" stop-color="#9b9b9b"/></linearGradient><linearGradient id="c" x1="0%" x2="100%" y1="50.004%" y2="50.004%"><stop offset="0%" stop-color="#e2e2e2"/><stop offset="3%" stop-color="#d0d0d0"/><stop offset="6%" stop-color="#bcbcbc"/><stop offset="9%" stop-color="#b5b5b5"/><stop offset="49%" stop-color="#f6f6f6"/><stop offset="63%" stop-color="#f3f3f3"/><stop offset="73%" stop-color="#eaeaea"/><stop offset="82%" stop-color="#dbdbdb"/><stop offset="90%" stop-color="#c6c6c6"/><stop offset="97%" stop-color="#aaa"/><stop offset="100%" stop-color="#9b9b9b"/></linearGradient></defs><g fill="none" fill-rule="nonzero"><path fill="#c1c1c1" d="M4.727 24.342v-1h140.56v1zM4.727 8.582v-1h140.56v1zM4.727 30.682v-1h140.56v1zM4.727 37.012v-1h140.56v1zM4.727 43.352v-1h140.56v1zM4.727 50.132v-1h140.56v1zM4.727 56.472v-1h140.56v1zM4.727 62.602v-1h140.56v1zM4.727 68.912v-1h140.56v1zM4.727 75.252v-1h140.56v1zM4.727 82.092v-1h140.56v1zM4.727 88.342v-1h140.56v1zM4.727 94.682v-1h140.56v1zM4.727 100.812v-1h140.56v1zM4.727 107.632v-1h140.56v1z"/><path fill="url(#a)" d="M145.28 0H150v118.35h-4.72z" transform="translate(.007 .032)"/><path fill="url(#a)" d="M0 .22h4.72v118.35H0z" transform="translate(.007 .032)"/><path fill="url(#b)" d="M72.425 45.465h4.72v140.99h-4.72z" transform="rotate(90 74.773 115.98)"/><path fill="url(#c)" d="M72.855-53.995h4.72v140.99h-4.72z" transform="rotate(90 75.203 16.52)"/><path fill="#c1c1c1" d="M93.687 1.092h1v112.54h-1zm7.12 0h1v112.54h-1zm6.26 0h1v112.54h-1zm6.27 0h1v112.54h-1zm6.27 0h1v112.54h-1zm6.26 0h1v112.54h-1zm6.27 0h1v112.54h-1zm6.27 0h1v112.54h-1zm-51.06 0h1v112.54h-1zm-6.35 0h1v112.54h-1zm-6.34 0h1v112.54h-1zm-6.8 0h1v112.54h-1zm-6.34 0h1v112.54h-1zm-6.14 0h1v112.54h-1zm-6.33 0h1v112.54h-1zm-6.34 0h1v112.54h-1zm-6.86 0h1v112.54h-1zm-6.26 0h1v112.54h-1zm-6.34 0h1v112.54h-1zm-6.15 0h1v112.54h-1zm-6.83 0h1v112.54h-1z"/></g></svg>