<svg xmlns="http://www.w3.org/2000/svg" viewBox="0 0 148 150"><title>crane（起重机）</title><g fill="none" fill-rule="nonzero" transform="translate(.057 .03)"><path fill="#bababa" d="m93.705 124.882-21.27-36.84 2.832-1.636 21.27 36.84zM40.283 31.548l87.116 87.115-6.004 6.004L34.28 37.55z"/><path fill="#898989" d="M118.674 118.867 69.848 70.041l1.032-1.032 48.826 48.826zM11.703 3.486 39.93 31.714l-5.106 5.106L6.597 8.592z"/><rect width="59.36" height="16.96" x="88.16" y="132.962" fill="#898989" rx="1.22"/><rect width="56.94" height="14.2" x="89.32" y="134.402" fill="#bababa" rx="1.22"/><path fill="#bababa" d="M96.36 129.672h14.37v3.22H96.36z"/><path fill="#bababa" stroke="#e0e0e2" stroke-width=".1" d="M113.71 129.672H93.57s-2-15.83.68-25.59h19.46z"/><path fill="#bababa" d="M1.406 7.927 9.333 0l2.892 2.892-7.927 7.927zM61.83 68.629l-5.057-5.056 2.73-2.73 5.056 5.056zM11.558 15.339l6.845-6.845 1.025 1.026-6.844 6.844zM19.087 22.869l6.845-6.845 1.025 1.026-6.844 6.844z"/><path fill="#ededed" d="M73.02 87.699 60.96 66.81l1.896-1.095 12.06 20.889z"/><path fill="#bababa" d="m26.616 30.399 6.845-6.845 1.025 1.026-6.844 6.844z"/><path fill="#bababa" stroke="#e0e0e2" stroke-width=".1" d="M5.04 28.902h-1.9l-1.62-2.04h4.93zM1.05 16.722h5.91v10.13H1.05z"/><path fill="#bababa" d="M1.35 13.902v-6.03h1.42v6.03zM5.23 13.902v-6.03h1.42v6.03z"/><path fill="#bababa" stroke="#e0e0e2" stroke-width=".1" d="M3.11 28.902h1.93v1.12H3.11z"/><path fill="#bababa" stroke="#e0e0e2" stroke-width=".1" d="M3.11 30.002h1.93v2.31s0 1.51-2.54 1.51a2.43 2.43 0 0 1-2.43-1.53L0 30.432h1.22v1.85s.22.42 1 .44c.35-.005.674-.18.87-.47z"/><circle cx="69.85" cy="68.342" r="2.27" fill="#ededed"/><circle cx="69.85" cy="68.342" r="1.43" fill="#bababa"/><path fill="#bababa" d="M114.02 117.172h33.81v12.5h-33.81z"/><path fill="#ededed" d="M94.78 106.472h11.35v11.35H94.78zM112.32 117.811H108v-11.35h4.32zM94.78 127.502l9.62-3.58v-3.68h-9.62z"/><path fill="#898989" d="M89.32 139.542h56.94v4.15H89.32z"/><path fill="#bababa" stroke="#e0e0e2" stroke-width=".1" d="M1.36 13.572h5.3v3.15h-5.3z"/></g></svg>