<svg xmlns="http://www.w3.org/2000/svg" viewBox="0 0 151 89"><title>Mezzanine decking（夹层板）</title><defs><linearGradient id="a" x1="49.972%" x2="49.972%" y1="100%" y2="0%"><stop offset="0%" stop-color="#b7b7b7"/><stop offset="3%" stop-color="#9b9d9d"/><stop offset="7%" stop-color="#878b8b"/><stop offset="9%" stop-color="#808484"/><stop offset="20%" stop-color="#a3a6a6"/><stop offset="49%" stop-color="#f6f6f6"/><stop offset="61%" stop-color="#f3f3f3"/><stop offset="70%" stop-color="#eaeaea"/><stop offset="77%" stop-color="#dbdbdb"/><stop offset="83%" stop-color="#c5c5c5"/><stop offset="90%" stop-color="#aaa"/><stop offset="95%" stop-color="#888"/><stop offset="100%" stop-color="#666"/></linearGradient><linearGradient id="b" x1="49.991%" x2="49.991%" y1="100%" y2="0%"><stop offset="0%" stop-color="#b7b7b7"/><stop offset="3%" stop-color="#9b9d9d"/><stop offset="7%" stop-color="#878b8b"/><stop offset="9%" stop-color="#808484"/><stop offset="20%" stop-color="#a3a6a6"/><stop offset="49%" stop-color="#f6f6f6"/><stop offset="61%" stop-color="#f3f3f3"/><stop offset="70%" stop-color="#eaeaea"/><stop offset="77%" stop-color="#dbdbdb"/><stop offset="83%" stop-color="#c5c5c5"/><stop offset="90%" stop-color="#aaa"/><stop offset="95%" stop-color="#888"/><stop offset="100%" stop-color="#666"/></linearGradient><linearGradient id="c" x1="49.972%" x2="49.972%" y1="100%" y2="0%"><stop offset="0%" stop-color="#b7b7b7"/><stop offset="3%" stop-color="#9b9d9d"/><stop offset="7%" stop-color="#878b8b"/><stop offset="9%" stop-color="#808484"/><stop offset="20%" stop-color="#a3a6a6"/><stop offset="49%" stop-color="#f6f6f6"/><stop offset="61%" stop-color="#f3f3f3"/><stop offset="70%" stop-color="#eaeaea"/><stop offset="77%" stop-color="#dbdbdb"/><stop offset="83%" stop-color="#c5c5c5"/><stop offset="90%" stop-color="#aaa"/><stop offset="95%" stop-color="#888"/><stop offset="100%" stop-color="#666"/></linearGradient><linearGradient id="d" x1="49.916%" x2="49.916%" y1="100%" y2="0%"><stop offset="0%" stop-color="#b7b7b7"/><stop offset="3%" stop-color="#9b9d9d"/><stop offset="7%" stop-color="#878b8b"/><stop offset="9%" stop-color="#808484"/><stop offset="20%" stop-color="#a3a6a6"/><stop offset="49%" stop-color="#f6f6f6"/><stop offset="61%" stop-color="#f3f3f3"/><stop offset="70%" stop-color="#eaeaea"/><stop offset="77%" stop-color="#dbdbdb"/><stop offset="83%" stop-color="#c5c5c5"/><stop offset="90%" stop-color="#aaa"/><stop offset="95%" stop-color="#888"/><stop offset="100%" stop-color="#666"/></linearGradient><linearGradient id="e" x1="0%" x2="100%" y1="49.993%" y2="49.993%"><stop offset="0%" stop-color="#b7b7b7"/><stop offset="3%" stop-color="#9b9d9d"/><stop offset="7%" stop-color="#878b8b"/><stop offset="9%" stop-color="#808484"/><stop offset="20%" stop-color="#a3a6a6"/><stop offset="49%" stop-color="#f6f6f6"/><stop offset="61%" stop-color="#f3f3f3"/><stop offset="70%" stop-color="#eaeaea"/><stop offset="77%" stop-color="#dbdbdb"/><stop offset="83%" stop-color="#c5c5c5"/><stop offset="90%" stop-color="#aaa"/><stop offset="95%" stop-color="#888"/><stop offset="100%" stop-color="#666"/></linearGradient><linearGradient id="f" x1="0%" x2="100%" y1="50%" y2="50%"><stop offset="0%" stop-color="#b7b7b7"/><stop offset="3%" stop-color="#9b9d9d"/><stop offset="7%" stop-color="#878b8b"/><stop offset="9%" stop-color="#808484"/><stop offset="20%" stop-color="#a3a6a6"/><stop offset="49%" stop-color="#f6f6f6"/><stop offset="61%" stop-color="#f3f3f3"/><stop offset="70%" stop-color="#eaeaea"/><stop offset="77%" stop-color="#dbdbdb"/><stop offset="83%" stop-color="#c5c5c5"/><stop offset="90%" stop-color="#aaa"/><stop offset="95%" stop-color="#888"/><stop offset="100%" stop-color="#666"/></linearGradient><linearGradient id="g" x1="0%" x2="100%" y1="50.14%" y2="50.14%"><stop offset="0%" stop-color="#b7b7b7"/><stop offset="3%" stop-color="#9b9d9d"/><stop offset="7%" stop-color="#878b8b"/><stop offset="9%" stop-color="#808484"/><stop offset="20%" stop-color="#a3a6a6"/><stop offset="49%" stop-color="#f6f6f6"/><stop offset="61%" stop-color="#f3f3f3"/><stop offset="70%" stop-color="#eaeaea"/><stop offset="77%" stop-color="#dbdbdb"/><stop offset="83%" stop-color="#c5c5c5"/><stop offset="90%" stop-color="#aaa"/><stop offset="95%" stop-color="#888"/><stop offset="100%" stop-color="#666"/></linearGradient><linearGradient id="h" x1="50.009%" x2="50.009%" y1="100%" y2="0%"><stop offset="0%" stop-color="#b7b7b7"/><stop offset="3%" stop-color="#9b9d9d"/><stop offset="7%" stop-color="#878b8b"/><stop offset="9%" stop-color="#808484"/><stop offset="20%" stop-color="#a3a6a6"/><stop offset="49%" stop-color="#f6f6f6"/><stop offset="61%" stop-color="#f3f3f3"/><stop offset="70%" stop-color="#eaeaea"/><stop offset="77%" stop-color="#dbdbdb"/><stop offset="83%" stop-color="#c5c5c5"/><stop offset="90%" stop-color="#aaa"/><stop offset="95%" stop-color="#888"/><stop offset="100%" stop-color="#666"/></linearGradient></defs><g fill="none" fill-rule="nonzero"><path fill="url(#a)" d="M-8.085 8.085h17.93v1.76h-17.93z" transform="rotate(90 .867 8.984)"/><path fill="url(#b)" d="M-21.825 54.195h56.07v5.14h-56.07z" transform="rotate(90 6.197 56.785)"/><path fill="url(#a)" d="M10.445 8.085h17.93v1.76h-17.93z" transform="rotate(90 19.398 8.985)"/><path fill="url(#a)" d="M28.975 8.085h17.93v1.76h-17.93z" transform="rotate(90 37.927 8.984)"/><path fill="url(#a)" d="M47.505 8.085h17.93v1.76h-17.93z" transform="rotate(90 56.458 8.984)"/><path fill="url(#a)" d="M66.035 8.085h17.93v1.76h-17.93z" transform="rotate(90 74.987 8.985)"/><path fill="url(#c)" d="M84.565 8.085h17.93v1.76h-17.93z" transform="rotate(90 93.517 8.985)"/><path fill="url(#c)" d="M103.095 8.085h17.93v1.76h-17.93z" transform="rotate(90 112.047 8.985)"/><path fill="url(#c)" d="M121.625 8.085h17.93v1.76h-17.93z" transform="rotate(90 130.578 8.984)"/><path fill="url(#d)" d="M140.155 8.085h17.93v1.76h-17.93z" transform="rotate(90 149.107 8.985)"/><path fill="url(#e)" d="M74.295-74.235h1.47v149.94h-1.47z" transform="rotate(90 75.017 .755)"/><path fill="url(#f)" d="M75.085-64.485h1.47v148.36h-1.47z" transform="rotate(90 75.808 9.715)"/><path fill="#dcdcdd" stroke="#999" stroke-width=".25" d="M149.587 18.522v9.67H.547v-9.67z"/><path fill="url(#g)" d="M2.17 84.79h8.46v3.57H2.17z" transform="translate(.007 .032)"/><path fill="url(#h)" d="M46.775 54.185h56.07v5.14h-56.07z" transform="rotate(90 74.797 56.775)"/><path fill="url(#g)" d="M70.77 84.79h8.46v3.57h-8.46z" transform="translate(.007 .032)"/><path fill="url(#h)" d="M115.785 54.185h56.07v5.14h-56.07z" transform="rotate(90 143.808 56.774)"/><path fill="url(#g)" d="M139.78 84.79h8.46v3.57h-8.46z" transform="translate(.007 .032)"/></g></svg>