<svg xmlns="http://www.w3.org/2000/svg" viewBox="0 0 28 151"><title>Oil well（油井）</title><g fill="none" fill-rule="nonzero"><path fill="#dcdcdd" d="M18.297 35.532v103.54h-2.69V35.532z"/><path fill="#ccc" d="m27.877 29.022-14.74 7.02-12.76-4.96 14.99-6.25z"/><path fill="#c1c1c1" d="m12.107 42.512 12.34-6.77v-1.77l-12.34 6.78z"/><path fill="#c1c1c1" d="m13.067 41.942-8.89-4.13v-1.77l8.89 4.14z"/><path fill="#c9c9c9" d="m11.037 53.352-7.08-12.59 1.07-1.43 7.08 12.59zm-.14 13.13-7.07-12.59 1.07-1.43 7.07 12.6zm.28 13.83-7.08-12.59 1.07-1.43 7.08 12.59z"/><path fill="#c9c9c9" d="m3.817 78.052 9.81-10.02-.67-1.64-9.8 10.02zm7.36 16.62-7.08-12.59 1.07-1.43 7.08 12.59z"/><path fill="#c9c9c9" d="m3.817 92.422 9.81-10.02-.67-1.64-9.8 10.02zm7.14 15.12-7.07-12.6 1.07-1.43 7.07 12.6z"/><path fill="#c9c9c9" d="m3.607 105.282 9.8-10.02-.66-1.64-9.81 10.02zm7.57 15.22-7.08-12.59 1.07-1.43 7.08 12.6z"/><path fill="#c9c9c9" d="m3.817 118.252 9.81-10.02-.67-1.64-9.8 10.02zm7.36 15.33-7.08-12.59 1.07-1.43 7.08 12.59z"/><path fill="#c9c9c9" d="m3.817 131.322 9.81-10.02-.67-1.64-9.8 10.02zm7.36 16.64-7.08-12.59 1.07-1.43 7.08 12.59z"/><path fill="#c9c9c9" d="m3.817 145.702 9.81-10.01-.67-1.65-9.8 10.02zm-.36-81.06 9.81-10.02-.67-1.64-9.8 10.02zm.15-13.66 9.8-10.01-.66-1.64-9.81 10.01z"/><path fill="#c9c9c9" d="m13.117 54.132 11.66-18.93-1.07-1.43-11.66 18.93zm-.08 14.6 12.47-20.05-1.07-1.43-12.47 20.05zm-.19 14.55 12.2-19.78-1.07-1.43-12.2 19.78z"/><path fill="#c9c9c9" d="m24.357 48.542-12.1-7.26.21-1.75 12.1 7.26zm.2 13.46-12.1-7.27.22-1.75 12.1 7.27zm.39 14.14-12.09-7.26.21-1.75 12.1 7.26z"/><path fill="#c9c9c9" d="m13.387 96.472 12.2-19.78-1.07-1.43-12.2 19.78z"/><path fill="#c9c9c9" d="m25.487 89.332-12.09-7.26.21-1.75 12.1 7.26z"/><path fill="#c1c1c1" d="m12.467 54.962-9.14-4.14v-1.77l9.14 4.14zm0 13.92-9.14-4.13v-1.77l9.14 4.13zm.27 14.17-9.13-4.14v-1.77l9.13 4.14zm.58 12.98-9.13-4.14v-1.77l9.13 4.14zm-.36 13.75-9.13-4.14v-1.77l9.13 4.14zm0 13.41-9.13-4.14v-1.77l9.13 4.14zm0 13.4-9.13-4.13v-1.77l9.13 4.14zm-.22 13.09-9.13-4.14v-1.77l9.13 4.14zm.1-95.08 12.68-6.77v-1.77l-12.68 6.77zm0 14.13 12.68-6.78v-1.76l-12.68 6.77zm.57 14 12.68-6.77v-1.77l-12.68 6.77z"/><path fill="#c9c9c9" d="m12.727 110.062 12.2-19.79-1.07-1.43-12.2 19.78z"/><path fill="#c9c9c9" d="m24.587 102.442-12.1-7.26.21-1.75 12.1 7.26z"/><path fill="#c1c1c1" d="m12.497 95.842 12.68-6.77v-1.77l-12.68 6.77z"/><path fill="#c9c9c9" d="m13.027 123.562 12.2-19.79-1.07-1.43-12.2 19.79z"/><path fill="#c9c9c9" d="m25.127 116.422-12.09-7.26.21-1.75 12.1 7.26z"/><path fill="#c1c1c1" d="m12.797 109.682 12.68-6.77v-1.77l-12.68 6.77z"/><path fill="#c9c9c9" d="m12.827 136.632 12.2-19.78-1.07-1.43-12.2 19.78z"/><path fill="#c9c9c9" d="m24.937 129.492-12.1-7.26.21-1.75 12.1 7.26z"/><path fill="#c1c1c1" d="m12.847 122.892 12.68-6.77v-1.77l-12.68 6.77z"/><path fill="#c9c9c9" d="m13.567 149.152 12.21-19.78-1.07-1.43-12.21 19.78z"/><path fill="#c9c9c9" d="m25.677 142.012-12.1-7.26.22-1.75 12.09 7.26z"/><path fill="#c1c1c1" d="m13.597 135.412 12.67-6.77v-1.77l-12.67 6.77zm0 13.74 12.67-6.77v-1.77l-12.67 6.77z"/><path fill="#dcdcdd" d="M5.527 34.762v112.33h-2.69V34.762zM13.807 37.422v112.61h-2.69V37.422zM26.507 32.082v112.09h-2.69V32.082z"/><path fill="#dcdcdd" d="m13.137 38.532-12.76-4.77v-2.76l12.76 4.77z"/><path fill="#c1c1c1" d="m13.137 38.532 14.74-6.77v-2.76l-14.74 6.77z"/><path fill="#dcdcdd" d="M16.087 5.512v23.96h-1.34V5.512z"/><path fill="#ccc" d="m21.197 2.182-7.55 3.59-6.53-2.54 7.68-3.2z"/><path fill="#c1c1c1" d="m13.497 8.782 6.32-3.47v-.9l-6.32 3.46zM13.497 8.562l-4.55-2.12v-.91l4.55 2.12z"/><path fill="#c9c9c9" d="m12.647 14.252-3.53-6.45.53-.73 3.53 6.45zm0 6.76-3.53-6.45.53-.73 3.53 6.45zm.07 7.02-3.52-6.45.53-.73 3.53 6.45z"/><path fill="#c9c9c9" d="m8.757 26.822 4.89-5.13-.33-.84-4.89 5.13zm0-6.9 4.89-5.13-.33-.84-4.89 5.13zm0-6.5 4.89-5.13-.33-.84-4.89 5.13z"/><path fill="#c9c9c9" d="m13.497 15.032 5.82-9.69-.54-.73-5.81 9.69zm-.26 7.26 6.21-10.27-.53-.73-6.22 10.27zm0 6.89 6.08-10.13-.54-.73-6.08 10.13z"/><path fill="#c9c9c9" d="m19.617 12.172-6.03-3.72.11-.89 6.03 3.71zm-.13 6.7-6.03-3.72.1-.9 6.04 3.72zm.13 6.81-6.03-3.72.11-.89 6.03 3.72z"/><path fill="#c1c1c1" d="m13.177 15.032-4.55-2.12v-.9l4.55 2.12zm.19 7-4.56-2.11v-.91l4.56 2.12zm-.19 6.68-4.55-2.12v-.91l4.55 2.12z"/><path fill="#c1c1c1" d="m13.177 28.712-4.55-2.12v-.91l4.55 2.12zm.19-13.68 6.32-3.46v-.91l-6.32 3.47zm0 6.89 6.32-3.46v-.91l-6.32 3.47zm.13 6.9 6.32-3.47v-.91l-6.32 3.47z"/><path fill="#dcdcdd" d="M9.717 4.862v26.27h-1.34V4.862zM13.847 6.272v27.3h-1.34v-27.3zM20.177 3.742v26.62h-1.34V3.742z"/><path fill="#dcdcdd" d="m13.647 7.052-6.53-2.45v-1.41l6.53 2.44z"/><path fill="#c1c1c1" d="m13.647 7.052 7.55-3.47v-1.42l-7.55 3.47z"/></g></svg>