<svg xmlns="http://www.w3.org/2000/svg" viewBox="0 0 145 151"><title>Oil rig（石油钻机）</title><g fill="none" fill-rule="nonzero"><path fill="#c9c9c9" d="m13.007 100.952-5.49 2.63a13.22 13.22 0 0 0-5.25 19.33 5.08 5.08 0 0 0 2.93 2.12 13.66 13.66 0 0 1 10.47 5.88l1.94 2.81a17.14 17.14 0 0 0 11.4 7.16l2.43.41a26.3 26.3 0 0 1 8.36 3.05l5.28 3a15 15 0 0 0 5.71 1.87l5.55.65a21.9 21.9 0 0 0 7.94-.52l17.1-5.71a40.4 40.4 0 0 1 9.48-2l9.14.77a39 39 0 0 0 36.19-17.93 17.3 17.3 0 0 1 2.58-3.15 12.29 12.29 0 0 0 1.17-20.63 13.27 13.27 0 0 0-7.8-2.54h-3.9a16.17 16.17 0 0 1-9.49-3.08l-7.94-5.75-81.39 4.71-9.75 5z"/><path fill="#7f7f7f" d="M20.067 109.322a9.69 9.69 0 0 0 11.49 7.56 5.64 5.64 0 0 1 4.45.93l20 14.35a26.29 26.29 0 0 0 26.42 2.48l6.09-2.82 30.41-17.42c3.44-2 6.71-5.61 5.42-8.08-9.65-18.47-81.24-8.4-81.24-8.4z"/><path fill="#cecece" d="m29.837 114.622-9.78-5.31v-19.39l9.78 5.3z"/><path fill="#aaa" d="m29.597 114.762 10.38-5.6v-19.39l-10.38 5.6z"/><path fill="#cecece" d="m63.027 117.032-33.43-16.05-.24-6.02 33.67 16.37z"/><path fill="#c9c9c9" d="m44.617 97.802-19.67-9.61v-4.65l19.67 9.29zm28.18 38.49 10.38-5.59v-19.39l-10.38 5.59zm40.8-21.41 7.57-4.44v-19.39l-7.57 4.29z"/><path fill="#cecece" d="m72.797 136.292-9.77-5.3v-19.97l9.77 5.3z"/><path fill="#a8a8a8" d="m113.597 114.882-11.03-4.31v-19.39l11.03 4.31z"/><path fill="#eee" d="m15.757 85.292 57.04 28.27 51.74-26.8-57.74-22.39z"/><path fill="#dbdbdb" d="m72.797 116.902-57.04-28.64v-2.97l57.04 28.32z"/><path fill="#e8e8ea" d="m34.017 69.432 19.15-7.02 41.83 15-22.2 10.69z"/><path fill="#dcdcdd" d="M65.247 19.012v55.35h-1.44v-55.35z"/><path fill="#ccc" d="m70.367 15.532-7.88 3.75-6.81-2.65 8.01-3.34z"/><path fill="#c1c1c1" d="m61.947 22.742 6.59-3.62v-.95l-6.59 3.62z"/><path fill="#c1c1c1" d="m62.457 22.442-4.75-2.22v-.94l4.75 2.21z"/><path fill="#c9c9c9" d="m61.367 28.532-3.78-6.73.57-.76 3.79 6.73zm-.07 7.02-3.78-6.73.57-.76 3.78 6.73zm.15 7.39-3.78-6.73.57-.76 3.78 6.73z"/><path fill="#c9c9c9" d="m57.517 41.742 5.24-5.36-.36-.87-5.24 5.35zm3.93 8.88-3.78-6.73.57-.76 3.78 6.73z"/><path fill="#c9c9c9" d="m57.517 49.422 5.24-5.36-.36-.88-5.24 5.36zm3.81 8.08-3.78-6.73.57-.77 3.79 6.73z"/><path fill="#c9c9c9" d="m57.397 56.292 5.24-5.35-.35-.88-5.25 5.35zm4.05 8.14-3.78-6.73.57-.76 3.78 6.73z"/><path fill="#c9c9c9" d="m57.517 63.222 5.24-5.35-.36-.88-5.24 5.36zm3.93 8.2-3.78-6.73.57-.77 3.78 6.74z"/><path fill="#c9c9c9" d="m57.517 70.212 5.24-5.35-.36-.88-5.24 5.36zm3.93 8.9-3.78-6.73.57-.77 3.78 6.73z"/><path fill="#c9c9c9" d="m57.517 77.902 5.24-5.35-.36-.88-5.24 5.35zm-.2-43.33 5.25-5.36-.36-.87-5.24 5.35zm.08-7.3 5.24-5.36-.35-.87-5.25 5.35z"/><path fill="#c9c9c9" d="m62.477 28.952 6.24-10.12-.57-.77-6.24 10.12zm-.03 7.8 6.66-10.71-.57-.77-6.67 10.72zm-.11 7.78 6.52-10.57-.57-.77-6.52 10.58z"/><path fill="#c9c9c9" d="m68.487 25.962-6.46-3.88.11-.94 6.47 3.89zm.11 7.2-6.46-3.89.11-.93 6.47 3.88zm.21 7.56-6.46-3.88.11-.94 6.47 3.88z"/><path fill="#c9c9c9" d="m62.627 51.582 6.52-10.57-.57-.77-6.52 10.58z"/><path fill="#c9c9c9" d="m69.097 47.772-6.47-3.89.12-.93 6.46 3.88z"/><path fill="#c1c1c1" d="m62.137 29.392-4.89-2.21v-.94l4.89 2.21zm0 7.45-4.89-2.22v-.94l4.89 2.21zm.14 7.57-4.88-2.21v-.95l4.88 2.21zm.32 6.94-4.89-2.22v-.94l4.89 2.21zm-.2 7.35-4.88-2.22v-.94l4.88 2.21zm0 7.16-4.88-2.21v-.94l4.88 2.21zm0 7.17-4.88-2.21v-.95l4.88 2.22zm-.12 6.99-4.88-2.21v-.94l4.88 2.21zm.06-50.82 6.77-3.62v-.95l-6.77 3.62zm0 7.55 6.77-3.62v-.94l-6.77 3.62zm.3 7.49 6.78-3.62v-.95l-6.78 3.62z"/><path fill="#c9c9c9" d="m62.277 58.842 6.52-10.57-.57-.76-6.52 10.57z"/><path fill="#c9c9c9" d="m68.617 54.772-6.47-3.88.11-.93 6.47 3.88z"/><path fill="#c1c1c1" d="m62.157 51.252 6.77-3.63v-.94l-6.77 3.62z"/><path fill="#c9c9c9" d="m62.437 66.062 6.52-10.57-.57-.77-6.53 10.58z"/><path fill="#c9c9c9" d="m68.907 62.252-6.47-3.88.12-.94 6.46 3.88z"/><path fill="#c1c1c1" d="m62.317 58.652 6.77-3.63v-.94l-6.77 3.62z"/><path fill="#c9c9c9" d="m62.327 73.052 6.52-10.57-.57-.77-6.52 10.58z"/><path fill="#c9c9c9" d="m68.797 69.242-6.46-3.89.11-.93 6.47 3.88z"/><path fill="#c1c1c1" d="m62.337 65.712 6.78-3.62v-.95l-6.78 3.62z"/><path fill="#c9c9c9" d="m62.727 79.742 6.52-10.57-.57-.77-6.52 10.58z"/><path fill="#c9c9c9" d="m69.197 75.932-6.47-3.88.12-.94 6.47 3.88z"/><path fill="#c1c1c1" d="m62.737 72.402 6.78-3.62v-.95l-6.78 3.62zm0 7.34 6.78-3.62v-.94l-6.78 3.62z"/><path fill="#dcdcdd" d="M58.437 18.602v60.05h-1.44v-60.05zM62.847 20.022v60.2h-1.44v-60.2zM69.647 17.172v59.92h-1.44v-59.92z"/><path fill="#dcdcdd" d="m62.487 20.612-6.81-2.55v-1.48l6.81 2.56z"/><path fill="#c1c1c1" d="m62.487 20.612 7.88-3.62v-1.47l-7.88 3.62z"/><path fill="#dcdcdd" d="M64.067 2.962v12.81h-1V2.962z"/><path fill="#ccc" d="m66.807 1.182-4.04 1.92-3.49-1.36 4.1-1.71z"/><path fill="#c1c1c1" d="m62.687 4.712 3.38-1.86v-.48l-3.38 1.85z"/><path fill="#c1c1c1" d="m62.687 4.592-2.43-1.13v-.49l2.43 1.14z"/><path fill="#c9c9c9" d="m62.227 7.632-1.88-3.44.28-.4 1.89 3.45zm0 3.61-1.88-3.44.28-.39 1.89 3.44zm.04 3.76-1.88-3.45.28-.39 1.89 3.45z"/><path fill="#c9c9c9" d="m60.157 14.352 2.61-2.74-.18-.45-2.61 2.74zm0-3.69 2.61-2.74-.18-.45-2.61 2.74zm0-3.47 2.61-2.74-.18-.45-2.61 2.74z"/><path fill="#c9c9c9" d="m62.687 8.052 3.11-5.18-.29-.39-3.1 5.18zm-.14 3.88 3.32-5.49-.28-.39-3.33 5.49zm0 3.68 3.25-5.41-.29-.39-3.25 5.41z"/><path fill="#c9c9c9" d="m65.957 6.522-3.22-1.99.06-.48 3.22 1.99zm-.07 3.58-3.22-1.99.05-.48 3.23 1.99zm.07 3.64-3.22-1.98.06-.48 3.22 1.98z"/><path fill="#c1c1c1" d="m62.517 8.052-2.43-1.13v-.49l2.43 1.14zm.1 3.74-2.44-1.13v-.48l2.44 1.13zm-.1 3.57-2.43-1.13v-.49l2.43 1.14z"/><path fill="#c1c1c1" d="m62.517 15.362-2.43-1.13v-.49l2.43 1.14zm.1-7.31 3.38-1.85v-.49l-3.38 1.86zm0 3.68 3.38-1.85v-.48l-3.38 1.85zm.07 3.69 3.38-1.85v-.49l-3.38 1.85z"/><path fill="#dcdcdd" d="M60.667 2.612v14.04h-1V2.612zM62.877 3.362v14.59h-1V3.362zM66.257 2.022v14.23h-1V2.022z"/><path fill="#dcdcdd" d="m62.767 3.782-3.49-1.31v-.75l3.49 1.31z"/><path fill="#c1c1c1" d="m62.767 3.782 4.04-1.85v-.76l-4.04 1.86z"/><path fill="#cecece" d="m72.797 88.102.2 12.17 22-11.14-.19-11.79z"/><path fill="#dbdbdb" d="m72.797 100.272-38.78-18.69v-12.04l38.78 18.37zm-28.15-2.31-19.73-9.6-.03-4.82 19.73 9.29z"/><path fill="#f9f9f9" d="m71.077 99.442-9.29-4.48h-9.68l-14.78 7.31v5.62l8.59 5.17h9.7l15.46-9.05z"/><path fill="#c9c9c9" d="m69.797 99.852-8.69-4.08h-9.07l-13.83 6.65v5.12l8.04 4.71h9.08l14.47-8.24z"/><path fill="#9b9bbc" d="m66.647 100.382-6.96-3.29h-7.25l-11.08 5.38v4.14l6.44 3.8h7.26l11.59-6.66z"/><path fill="#c9c9c9" d="m65.277 100.642-6.21-2.84h-6.46l-9.88 4.64v3.57l5.74 3.28h6.48l10.33-5.75zm-19.36 13.98-8.59-5.07v-1.7l8.59 5.07zm9.7.07 15.46-8.99v-1.69l-15.46 8.98z"/><path fill="#c9c9c9" d="M45.917 113.062h9.7v1.56h-9.7zM72.797 116.902l51.74-27.34v-2.8l-51.74 26.85z"/><path fill="#d6d6d6" d="m24.947 83.542 6.7-3.04 20.46 8.98-7.49 3.35z"/><path fill="#c9c9c9" d="m44.617 92.832.03 5.13 7.46-3.89v-4.59z"/><path fill="#dcdcdd" d="M97.307 36.182v57.39h-1.49v-57.39z"/><path fill="#ccc" d="m102.617 32.572-8.17 3.89-7.07-2.75 8.31-3.46z"/><path fill="#c1c1c1" d="m93.877 40.052 6.84-3.75v-.98l-6.84 3.75z"/><path fill="#c1c1c1" d="m94.417 39.742-4.93-2.3v-.98l4.93 2.3z"/><path fill="#c9c9c9" d="m93.287 46.062-3.92-6.98.59-.79 3.92 6.98zm-.08 7.28-3.92-6.98.6-.79 3.92 6.98zm.16 7.66-3.92-6.98.59-.79 3.92 6.98z"/><path fill="#c9c9c9" d="m89.287 59.752 5.44-5.55-.37-.91-5.44 5.55zm4.08 9.22-3.92-6.99.59-.79 3.92 6.98z"/><path fill="#c9c9c9" d="m89.287 67.712 5.44-5.55-.37-.91-5.44 5.55zm3.96 8.38-3.93-6.98.6-.79 3.92 6.98z"/><path fill="#c9c9c9" d="m89.167 74.842 5.43-5.55-.36-.91-5.44 5.55zm4.2 8.44-3.92-6.98.59-.79 3.92 6.98z"/><path fill="#c9c9c9" d="m89.287 82.032 5.44-5.55-.37-.91-5.44 5.55zm4.08 8.5-3.92-6.98.59-.79 3.92 6.98z"/><path fill="#c9c9c9" d="m89.287 89.282 5.44-5.56-.37-.9-5.44 5.55zm4.08 9.22-3.92-6.98.59-.79 3.92 6.98z"/><path fill="#c9c9c9" d="m89.287 97.252 5.44-5.55-.37-.91-5.44 5.55zm-.2-44.93 5.44-5.56-.37-.9-5.44 5.55zm.08-7.57 5.43-5.56-.36-.9-5.44 5.55z"/><path fill="#c9c9c9" d="m94.437 46.492 6.47-10.49-.59-.8-6.47 10.5zm-.04 8.09 6.91-11.11-.59-.79-6.91 11.11zm-.11 8.07 6.77-10.96-.6-.8-6.76 10.97z"/><path fill="#c9c9c9" d="m100.667 43.392-6.7-4.02.11-.97 6.71 4.02zm.12 7.46-6.71-4.02.12-.97 6.7 4.02zm.21 7.84-6.7-4.02.12-.97 6.7 4.02z"/><path fill="#c9c9c9" d="m94.587 69.962 6.77-10.97-.6-.79-6.76 10.97z"/><path fill="#c9c9c9" d="m101.297 66.002-6.7-4.02.11-.97 6.71 4.02z"/><path fill="#c1c1c1" d="m94.077 46.952-5.06-2.29v-.98l5.06 2.29zm0 7.72-5.06-2.29v-.98l5.06 2.29zm.15 7.85-5.06-2.29v-.98l5.06 2.29zm.33 7.2-5.07-2.3v-.98l5.07 2.29zm-.21 7.62-5.06-2.3v-.98l5.06 2.3zm0 7.43-5.06-2.29v-.98l5.06 2.29zm0 7.43-5.06-2.29v-.98l5.06 2.29zm-.12 7.25-5.06-2.29v-.98l5.06 2.29zm.06-52.7 7.03-3.75v-.98l-7.03 3.75zm0 7.83 7.03-3.75v-.98l-7.03 3.75zm.31 7.76 7.03-3.75v-.98l-7.03 3.75z"/><path fill="#c9c9c9" d="m94.227 77.492 6.76-10.96-.59-.8-6.77 10.97z"/><path fill="#c9c9c9" d="m100.797 73.272-6.71-4.03.12-.97 6.71 4.03z"/><path fill="#c1c1c1" d="m94.097 69.612 7.03-3.75v-.98l-7.03 3.75z"/><path fill="#c9c9c9" d="m94.387 84.972 6.77-10.96-.6-.79-6.76 10.96z"/><path fill="#c9c9c9" d="m101.097 81.022-6.7-4.03.12-.97 6.7 4.03z"/><path fill="#c1c1c1" d="m94.267 77.282 7.02-3.75v-.98l-7.02 3.75z"/><path fill="#c9c9c9" d="m94.277 92.222 6.77-10.96-.6-.8-6.76 10.97z"/><path fill="#c9c9c9" d="m100.987 88.262-6.7-4.02.12-.97 6.7 4.02z"/><path fill="#c1c1c1" d="m94.297 84.612 7.02-3.76v-.98l-7.02 3.76z"/><path fill="#c9c9c9" d="m94.697 99.162 6.76-10.96-.59-.8-6.77 10.97z"/><path fill="#c9c9c9" d="m101.407 95.202-6.71-4.02.12-.97 6.7 4.02z"/><path fill="#c1c1c1" d="m94.707 91.552 7.02-3.76v-.98l-7.02 3.75zm0 7.61 7.02-3.75v-.98l-7.02 3.75z"/><path fill="#dcdcdd" d="M90.237 35.762v62.27h-1.49v-62.27zM94.827 37.232v62.42h-1.49v-62.42zM101.867 34.272v62.13h-1.49v-62.13z"/><path fill="#dcdcdd" d="m94.447 37.852-7.07-2.65v-1.53l7.07 2.65z"/><path fill="#c1c1c1" d="m94.447 37.852 8.17-3.76v-1.53l-8.17 3.76z"/></g></svg>