<svg xmlns="http://www.w3.org/2000/svg" viewBox="0 0 98 151"><title>Pyramid communication tower（金字塔通信塔）</title><defs><linearGradient id="a" x1="0%" x2="100.122%" y1="50%" y2="50%"><stop offset="0%" stop-color="#e2e2e2"/><stop offset="3%" stop-color="#d0d0d0"/><stop offset="6%" stop-color="#bcbcbc"/><stop offset="9%" stop-color="#b5b5b5"/><stop offset="49%" stop-color="#f6f6f6"/><stop offset="63%" stop-color="#f3f3f3"/><stop offset="73%" stop-color="#eaeaea"/><stop offset="82%" stop-color="#dbdbdb"/><stop offset="90%" stop-color="#c6c6c6"/><stop offset="97%" stop-color="#aaa"/><stop offset="100%" stop-color="#9b9b9b"/></linearGradient><linearGradient id="b" x1="0%" x2="100%" y1="50.105%" y2="50.105%"><stop offset="0%" stop-color="#e2e2e2"/><stop offset="3%" stop-color="#d0d0d0"/><stop offset="6%" stop-color="#bcbcbc"/><stop offset="9%" stop-color="#b5b5b5"/><stop offset="49%" stop-color="#f6f6f6"/><stop offset="63%" stop-color="#f3f3f3"/><stop offset="73%" stop-color="#eaeaea"/><stop offset="82%" stop-color="#dbdbdb"/><stop offset="90%" stop-color="#c6c6c6"/><stop offset="97%" stop-color="#aaa"/><stop offset="100%" stop-color="#9b9b9b"/></linearGradient></defs><g fill="none" fill-rule="nonzero"><path fill="#959599" d="m95.897 135.532-45.29 14.5v-3.29l45.29-14.5zm-6.38-16.46-41.18 13.17v-3.3l41.18-13.16z"/><path fill="#959599" d="m7.817 119.072 41.18 13.17v-3.3l-41.18-13.16zm75.01-16.56-33.83 10.9v-3.29l33.83-10.9zm-6.58-16.25-27.25 8.9v-3.3l27.25-8.89zm-55.16 0 27.25 8.9v-3.3l-27.25-8.89zm48.58-15.87-20.67 6.66v-3.29l20.67-6.67zm-5.69-15.16-14.98 4.68v-3.29l14.98-4.68zm-6.86-15.08-8.12 2.62v-3.29l8.12-2.63zm38.78 95.38-45.29 14.5v-3.29l45.29-14.5zm-47.56-6.59 41.18-13.16"/><path fill="#959599" d="m82.827 102.512-33.83 10.9v-3.29l33.83-10.9zm-13.16-32.12-20.67 6.66v-3.29l20.67-6.67zm-5.69-15.16-14.98 4.68v-3.29l14.98-4.68zm-22.68-15.08 8.12 2.62v-3.29l-8.12-2.63zm-38.77 95.38 45.29 14.5v-3.29l-45.29-14.5z"/><path fill="#959599" d="m15.587 102.512 33.83 10.9v-3.29l-33.83-10.9zm13.16-32.12 20.67 6.66v-3.29l-20.67-6.67zm5.7-15.16 14.97 4.68v-3.29l-14.97-4.68zm22.67-15.09-8.12 2.63"/><path fill="url(#a)" d="M44.89 0h8.19v12.7h-8.19z" transform="translate(.007 .032)"/><path fill="url(#b)" d="M47.08 12.7h3.82v4.75h-3.82z" transform="translate(.007 .032)"/><path fill="#959599" d="M47.387 17.482h3.21v132.55h-3.21z"/><path fill="#959599" d="M97.987 135.532h-3.21l-47.39-116.95h3.22z"/><path fill="#959599" d="m3.217 135.532 47.39-116.95h-3.22L.007 135.532"/></g></svg>