<svg xmlns="http://www.w3.org/2000/svg" viewBox="0 0 151 112"><title>Steel grating 2（钢栅格2）</title><g fill="none" fill-rule="nonzero"><path fill="#dcdcdd" d="M.007.032h150v111.94h-150z"/><path fill="#eee" d="M7.997 10.912h134.03v90.06H7.997z"/><path fill="#dcdcdd" d="M17.317 11.002h4.29v90.45h-4.29zm12.43 0h4.29v90.45h-4.29zm12.43 0h4.29v90.45h-4.29zm12.42 0h4.29v90.45h-4.29zm12.43 0h4.29v90.45h-4.29zm12.42 0h4.29v90.45h-4.29zm12.43 0h4.29v90.45h-4.29zm12.43 0h4.29v90.45h-4.29zm12.42 0h4.29v90.45h-4.29zm12.43 0h4.29v90.45h-4.29z"/></g></svg>