<svg xmlns="http://www.w3.org/2000/svg" viewBox="0 0 151 111"><title>Steel grating 1（gang格栅）</title><g fill="none" fill-rule="nonzero"><path fill="#dcdcdd" d="M.007.032h150.33v110.37H.007z"/><path fill="#eee" d="M4.637 9.032h141.15v90.69H4.637z"/><path fill="#dcdcdd" d="M12.597 9.032h5.22v91.38h-5.22z"/><path fill="#dcdcdd" d="M145.557 15.282v4.66H4.517v-4.66zM145.567 27.422v4.66H4.527v-4.66zM145.567 39.562v4.66H4.527v-4.66zM145.567 51.702v4.66H4.527v-4.66zM145.567 63.842v4.66H4.527v-4.66zM145.567 75.982v4.66H4.527v-4.66zM145.567 88.122v4.66H4.527v-4.66z"/><path fill="#dcdcdd" d="M24.617 9.032h5.22v91.38h-5.22zm12.02 0h5.22v91.38h-5.22zm12.03 0h5.22v91.38h-5.22zm12.02 0h5.22v91.38h-5.22zm12.03 0h5.22v91.38h-5.22zm12.02 0h5.22v91.38h-5.22zm12.03 0h5.22v91.38h-5.22zm12.02 0h5.22v91.38h-5.22zm12.03 0h5.22v91.38h-5.22zm12.02 0h5.22v91.38h-5.22z"/></g></svg>