<svg xmlns="http://www.w3.org/2000/svg" xml:space="preserve" id="图层_1" x="0" y="0" viewBox="0 0 25 11"><style>.st0,.st1{fill:none;stroke:#fff;stroke-miterlimit:10}.st1{stroke-width:1.33;stroke-linecap:round;stroke-linejoin:round}</style><path d="m0 4 5.4-4H25l-3.8 4z" class="st0"/><path d="m21.2 10.8 3.8-4V0l-3.8 4zm0 0V4H0v6.8zM0 0" class="st0"/><path d="M19.8 7.5s-1.4 3.5-3 0c-1.7-3.5-3 0-3 0s-1.4 3.5-3.1 0c-1.6-3.5-3 0-3 0s-1.4 3.5-3 0c-1.7-3.5-3 0-3 0" class="st1"/><path d="M1.8 7.5s1.2 3.5 3 0c1.6-3.5 3 0 3 0s1.4 3.5 3 0c1.7-3.5 3.1 0 3.1 0s1.2 3.5 3 0c1.6-3.5 3 0 3 0" style="fill:none;stroke:#fff;stroke-miterlimit:10;stroke-linecap:round;stroke-linejoin:round;stroke-width:.67"/><path d="M19.4 7.5s-1.4 3.5-3 0-3 0-3 0-1.4 3.5-3.1 0c-1.6-3.5-3 0-3 0s-1.4 3.5-3 0-3 0-3 0" class="st1"/><path d="M1.4 7.5s1.4 3.5 3 0 3 0 3 0 1.4 3.5 3.1 0c1.6-3.5 3 0 3 0s1.4 3.5 3 0 3 0 3 0" class="st1"/></svg>