<svg xmlns="http://www.w3.org/2000/svg" xml:space="preserve" id="图层_1" x="0" y="0" viewBox="0 0 25 17.8"><style>.st0{fill:none;stroke:#fff;stroke-miterlimit:10}</style><path d="M0 17.8h22.5V3.1H0zm25-3.7-2.5 3.7V3.1L25 0z" class="st0"/><path d="M4 0h21l-2.5 3.1H0zM0 0" class="st0"/><path d="M19.4 10.7h-3.8v-.6h3.8v-1l2.2 1.3-2.2 1.2zm-15 0H.6v-.6h3.8v-1l2.2 1.3-2.2 1.2zm14.4-3.9-3.2 2.1-.3-.6 3.1-2.1-.4-.7 2.5-.2-1.2 2.2zm0 7.3L15.6 12l-.3.4 3.1 2.1-.4.9 2.5.2-1.2-2.2zm-3.9-3.8c0 2.1-1.6 3.7-3.7 3.7s-3.7-1.6-3.7-3.7 1.6-3.7 3.7-3.7 3.7 1.6 3.7 3.7zM0 0" style="fill:none;stroke:#fff;stroke-miterlimit:10;stroke-linejoin:round"/></svg>