<svg xmlns="http://www.w3.org/2000/svg" xml:space="preserve" id="图层_1" x="0" y="0" viewBox="0 0 25 17.7"><style>.st0,.st2,.st3{fill:none;stroke:#fff;stroke-miterlimit:10}.st2,.st3{stroke-linejoin:round;stroke-width:.67}.st3{stroke-linecap:round;stroke-width:.4}</style><path d="M0 2.1 3 0h22l-2.8 2.1zm22.2 0v15.6H0V2.1z" class="st0"/><path d="M25 15.2V0l-2.8 2.1v15.6zM0 0" class="st0"/><path d="M20.3 11.7h-3v-.5l-1.4.9 1.4.9v-.4h3zM5.9 6.6H3v-.3l-1.4.9L3 8v-.3h3V6.6zm10.5 1.1h2.8V8l1.4-.9-1.4-.9v.5h-2.8zM1.7 12.6h2.8v.5l1.4-.9-1.4-1v.5H1.7zM0 0" style="fill:none;stroke:#fff;stroke-miterlimit:10;stroke-linejoin:round"/><path d="M4.4 16.3c0-.4.2-.7.5-.7.4 0 .5.3.5.5 0 .3-.2.5-.5.5-.2.2-.5-.2-.5-.3z" class="st2"/><path d="m5.6 16.6-1.2-1 3-3.1 1 1zm.9-8.2c-.2 2.8 1.8 5.2 4.4 5.6 2.8.3 5.2-1.8 5.6-4.4.2-2.8-1.7-5.2-4.4-5.6-2.8-.2-5.3 1.8-5.6 4.4z" class="st2"/><path d="M7.2 8.6c.3-2.4 2.4-4 4.7-3.8 2.4.4 4 2.4 3.8 4.7-.4 2.4-2.4 4-4.7 3.8-2.4-.4-4-2.5-3.8-4.7z" class="st2"/><path d="M5.9 8.7c-.3 2.6 1.6 5.1 4.4 5.4 2.6.4 5.1-1.6 5.4-4.4.4-2.6-1.6-5.1-4.4-5.4-2.6-.3-5 1.6-5.4 4.4z" class="st2"/><path d="M6.6 8.7c.2-2.3 2.3-4 4.7-3.7 2.3.2 4 2.3 3.7 4.7-.2 2.3-2.3 4-4.7 3.7-2.3-.1-4-2.4-3.7-4.7z" class="st2"/><path d="M12.8 11.9c.2 0 .2 0 .2-.2V9.3c0-.2 0-.2-.2-.2H9s-.2 0-.2.2v2.4c0 .2.2.2.2.2zm.1-2.8.9-.9H9.6l-.9.9z" class="st3"/><path d="M13.8 11.2v-3l-.9.9v2.8zm-2.4-4.7c-.7 0-1.2.5-1.2 1v1c.2 0 0 .2-.2.2 0 0-.2 0-.2-.2v-.9c0-.9.7-1.6 1.6-1.6.7 0 1.4.7 1.4 1.6v1s0 .2-.2.2c-.2-.2-.2-.2-.2-.4v-1c0-.4-.5-.9-1-.9M0 0" class="st3"/><path d="M10.8 10.8c.2 0 .3-.4.3-.5 0-.2-.2-.5-.3-.5-.2 0-.4.3-.4.5.1.2.3.5.4.5zM0 0" style="fill:none;stroke:#fff;stroke-width:.4;stroke-miterlimit:10"/><path d="M11 11.2v-.9l-.2.2v.9zM0 0" style="fill:none;stroke:#fff;stroke-miterlimit:10;stroke-width:.35"/></svg>