<svg xmlns="http://www.w3.org/2000/svg" xml:space="preserve" id="图层_1" x="0" y="0" viewBox="0 0 22.1 25"><style>.st2,.st3{fill:none;stroke:#fff;stroke-miterlimit:10;stroke-linejoin:round;stroke-linecap:round}.st3{stroke-width:.5}</style><path d="M0 17.3V25h18.7v-7.7zM0 2.4 3.3 0H22l-3.3 2.4zM0 0" style="fill:none;stroke:#fff;stroke-miterlimit:10;stroke-linejoin:round"/><path d="m18.7 25 3.3-2.8v-7.5l-3.3 2.6zm0-5.1H0m18.7 2.5H0m21.7-2.3-2.8 2.4m-13.4-.1v2.4m7.3-2.4v2.4m-3.5-4.9v2.4m-7.1-2.4v2.4m14.3-2.4v2.4m2.2-19.9v17.5H0V2.4z" class="st2"/><path d="M22.1 17.1V0l-3.3 2.4v17.3zm-.8.6v2.8m-1.2 1v2.4M3.5 9.1h7.3v-.6l1.6 1-1.6 1V10H3.5zm11.3 2.5H8.7V11l-1.8 1 1.8 1v-.4h6.1zM0 0" class="st2"/><path d="M17.1 17.7c-.4.2-.8-.2-.8-.4 0-.4.2-.6.6-.8q.6 0 .6.6c.2.4-.2.6-.4.6" class="st3"/><path d="m17.5 16.5-1.2 1.2-3.7-3 1.2-1.2z" class="st3"/><path d="M4.1 9.8C3.7 13 5.9 15.7 9 16.1c3 .4 5.7-2 6.1-4.9.4-3.2-2-5.9-4.9-6.3-3.1-.2-5.9 2-6.1 4.9" class="st3"/><path d="M4.9 10c.2-2.6 2.6-4.5 5.3-4.3 2.6.4 4.3 2.8 4.1 5.3-.4 2.8-2.8 4.5-5.3 4.3-2.5-.3-4.5-2.7-4.1-5.3" class="st3"/><path d="M3.3 10.2c-.4 3 2 5.7 4.9 6.1 3.2.4 5.9-1.8 6.1-4.9.4-3-1.8-5.7-4.9-6.1-2.9-.4-5.7 1.8-6.1 4.9" class="st3"/><path d="M4.1 10.2c.4-2.6 2.8-4.5 5.3-4.1 2.6.2 4.5 2.6 4.1 5.3-.2 2.6-2.6 4.5-5.1 4.1-2.7-.1-4.5-2.7-4.3-5.3m10.7 2h3M1 9.4h3.1" class="st3"/></svg>