<svg xmlns="http://www.w3.org/2000/svg" xml:space="preserve" id="图层_1" x="0" y="0" viewBox="0 0 25 24.4"><style>.st1{fill:none;stroke-linejoin:round;stroke:#fff;stroke-miterlimit:10}</style><path d="M25 8v11.6l-6.2 4.8H6.2L0 19.6V8zM0 0" style="fill:none;stroke:#fff;stroke-miterlimit:10"/><path d="M25 8v11.6l-6.2 4.8H6.2L0 19.6V8m6.2 16.2V12.8zm12.6 0V12.8z" class="st1"/><path d="M25 4.7v3.5L18.8 13H6.2L0 8.1V4.7z" class="st1"/><path d="M18.7 0H6.3L0 4.7l6.2 5h12.7l6.2-5zM6.2 12.8V9.6" class="st1"/><path d="M18.8 12.8V9.6M9.9 5l3 .5M3.8 4.2l3 .3M2.6 2.7 5 3m.3 0L1.7 5.6m6.6-2-5 3.5m8.3-3.2L5.4 8.7M5 5.9l3.5.6m9.9.7 3 .3m-9.2-1.2 3 .5m-1.5-1.7L7.8 9.5m9.1-3.9-5.1 3.8M19.9 6l-4.4 3.3m7.8-3.4-3 2.6M7.4 7.1l3 .5m3.2.4 3 .5M9 .2l-3.9 3m8-3.2L8.3 3.8M20 3.3l2.7.5M16.6.2 10.2 5M19.6.9l-6.3 4.5m8.1-3.1-4.8 3.6m6.7-2.3-3.6 2.7M9 3.2l3 .5m3.2.4 3.2.5m3.1.4 2.4.5M10.1 2.9l.9 1.5-3.6.6.9-.6L3 3l1.4-.9 5.1 1.2zm4.7 3.7-.6-1.5 3.2-.3-.6.5 5.1 1.2-1.2.9L15.5 6zm-1.5-4.2 3.6-.8v1.5L16 3l-1.8 1.2-1.7-.3 2-1.2zm-1.9 5.3L8.1 8 8 6.5l1 .3 2-1.5 1.5.5-2.1 1.5zM0 0" style="stroke:#fff;stroke-miterlimit:10;fill:none;stroke-width:.4;stroke-linejoin:round"/><text style="stroke:#fff;stroke-miterlimit:10;fill:#222;font-family:&quot;ArialMT&quot;;font-size:5.422px" transform="translate(6.988 18.073)">QFP</text></svg>