<svg xmlns="http://www.w3.org/2000/svg" xml:space="preserve" id="图层_1" x="0" y="0" viewBox="0 0 25 12.3"><style>.st0{stroke-width:.85;stroke-linejoin:round;fill:none;stroke:#fff;stroke-miterlimit:10}</style><path d="M0 6.2 7.6 0H25l-6.3 6.2z" class="st0"/><path d="M18.7 12.3 25 6.2V0l-6.3 6.2zm0 0V6.2H0v6.1zM0 0" class="st0"/><path d="M11.1 7.1s.3 0 .4.3v.9l1.7.4.1-.4-.3-1.2c-2.2-.5-3.5-.4-3.5-.4s-1-.1-3.3.4l-.4 1.1.1.4 1.7-.4v-.9c.1-.2.4-.2.4-.2zM0 0z" style="fill:none;stroke:#fff;stroke-miterlimit:10"/><path d="M7.9 8.1h3.4v3.5H7.9zM0 0" class="st0"/><text style="stroke:#fff;stroke-miterlimit:10;fill:#222;font-family:&quot;ArialMT&quot;;font-size:4.3198px" transform="translate(8.102 9.818)">V</text><path d="M7.1 4.7c0 .4-.8.7-1.7.7s-1.7-.3-1.7-.7.8-.7 1.7-.7c.9.1 1.7.3 1.7.7zM0 0" class="st0"/><path d="M7.1 4.3c0 .4-.8.7-1.7.7-1 0-1.7-.3-1.7-.7s.8-.7 1.7-.7c.9.1 1.7.3 1.7.7zM0 0" class="st0"/></svg>