<svg xmlns="http://www.w3.org/2000/svg" xml:space="preserve" id="图层_1" x="0" y="0" viewBox="0 0 25 17.8"><style>.st0{fill:none;stroke:#fff;stroke-miterlimit:10}</style><path d="M0 17.8h22.5V3.1H0zm25-3.7-2.5 3.7V3.1L25 0z" class="st0"/><path d="M3.8 0H25l-2.5 3.1H0zM0 0" class="st0"/><path d="M3.2 7.1H1.3v-.8h1.9v-.9l2.2 1.3-2.2 1.2zm0 3.6H1.3v-.6h1.9v-1l2.2 1.3-2.2 1.2zm0 3.7H1.3v-.6h1.9v-.9l2.2 1.2-2.2 1.3zM20 10.7h-2.5v-.6H20v-.8l2.2 1.2-2.2 1.1zm-12.8 0c0 2.4 1.9 4.3 4.4 4.3v-4.3zm4.4-4.4c2.4 0 4.3 1.9 4.3 4.4h-4.3zM0 0" style="fill:none;stroke:#fff;stroke-miterlimit:10;stroke-linejoin:round"/></svg>