<svg xmlns="http://www.w3.org/2000/svg" xml:space="preserve" id="图层_1" x="0" y="0" viewBox="0 0 25 10.2"><style>.st0{fill:none;stroke:#fff;stroke-miterlimit:10}</style><path d="M18.7 10.2V6H0v4.2zM0 6l7.6-6H25l-6.3 6z" class="st0"/><path d="M18.7 10.2 25 4.1V0l-6.3 6zM0 0" class="st0"/><path d="M0 0zm12.2 1.6.4 1.3-2.9-.3.8-.4L7.6.7l1-.4 2.9 1.4zm1.4 2.8-.5-1.3 2.9.4-.5.1 3.1 1.6-1.2.4-3.1-1.4zm5.9-4 3.1.3-.4 1.2-.7-.4L15.2 3l-1.3-.7L20.4.9zM5.9 5.6 3 5.2l.3-1.3.8.4L10.6 3l1.2.7-6.7 1.4zm-.5 3.2H1.3V7.2h4.1zm11.7 0H13V7.2h4.1zM0 0" style="fill:none;stroke:#fff;stroke-miterlimit:10;stroke-linejoin:round"/></svg>