<svg xmlns="http://www.w3.org/2000/svg" xml:space="preserve" id="图层_1" x="0" y="0" viewBox="0 0 17.1 25"><style>.st0{fill:none;stroke:#fff;stroke-miterlimit:10}</style><path d="M17.1 19.4V0l-4.7 4.7V25zM12.4 4.7H0V25h12.4z" class="st0"/><path d="M12.4 4.7 17.1 0H5.9L0 4.7zM0 0" class="st0"/><path d="M0 0zm3.7 18.7v1.7h1.8m-2 .1h1.9m-4.2-1.8v1.7H3m-2.1.1H3m.7-4.8v1.7h1.8m-2 .1h1.9m-4.2-1.8v1.7H3m-2.1.1H3m.7-5.3V14h1.8m-2 0h1.9m-4.2-1.8V14H3M.9 14H3m.7-5.1v1.7h1.8m-2 .1h1.9M1.2 8.9v1.7H3m-2.1.1H3m.7-5.3v1.8h1.8m-2 0h1.9M1.2 5.4v1.8H3m-2.1 0H3m6.1 11.5v1.7h1.7m-1.9.1h1.9m-4.2-1.8v1.7h1.7m-1.8.1h1.9m.7-4.8v1.7h1.7m-1.9.1h1.9m-4.2-1.8v1.7h1.7m-1.8.1h1.9m.7-5.3V14h1.7m-1.9 0h1.9m-4.2-1.8V14h1.7m-1.8 0h1.9m.7-5.1v1.7h1.7m-1.9.1h1.9M6.6 8.9v1.7h1.7m-1.8.1h1.9m.7-5.3v1.8h1.7m-1.9 0h1.9M6.6 5.4v1.8h1.7m-1.8 0h1.9" style="fill:none;stroke:#fff;stroke-miterlimit:10;stroke-width:.4;stroke-linejoin:round"/></svg>