<svg xmlns="http://www.w3.org/2000/svg" xml:space="preserve" id="图层_1" x="0" y="0" viewBox="0 0 14.5 25"><style>.st0{fill:none;stroke:#fff;stroke-miterlimit:10}</style><path d="M14.5 22.3 11.9 25V2.7L14.5 0zM0 25h11.9V2.7H0z" class="st0"/><path d="M2.7 0h11.9l-2.7 2.7H0zM0 0" class="st0"/><path d="M8.3 8.2v-3H3.2v3zm-6 3.3c.4 0 .7-.4.7-.9 0-.4-.4-.7-.7-.7-.5 0-.9.4-.9.7 0 .6.4.9.9.9zm0 2.7c.4 0 .7-.4.7-.7 0-.5-.4-.9-.7-.9-.5 0-.9.4-.9.9 0 .3.4.7.9.7zm0 2.6c.4 0 .7-.4.7-.7 0-.4-.4-.7-.7-.7-.5 0-.9.4-.9.7 0 .4.4.7.9.7zm0 2.9c.4 0 .7-.4.7-.9 0-.4-.4-.7-.7-.7-.5 0-.9.4-.9.7 0 .5.4.9.9.9zm0 2.6c.4 0 .7-.3.7-.7 0-.5-.4-.9-.7-.9-.5 0-.9.4-.9.9 0 .4.4.7.9.7zM0 0" style="fill:none;stroke:#fff;stroke-miterlimit:10;stroke-linejoin:round"/><path d="M3.2 10.5H8m-4.8 2.6H8M3.2 16H8m-4.8 2.6H8m-4.8 2.7H8m1.2-9.8c.4 0 .7-.4.7-.9 0-.4-.4-.7-.7-.7-.5 0-.9.4-.9.7 0 .6.4.9.9.9zm0 2.7c.4 0 .7-.4.7-.7 0-.5-.4-.9-.7-.9-.5 0-.9.4-.9.9 0 .3.4.7.9.7zm0 2.6c.4 0 .7-.4.7-.7 0-.4-.4-.7-.7-.7-.5 0-.9.4-.9.7 0 .4.4.7.9.7zm0 2.9c.4 0 .7-.4.7-.9 0-.4-.4-.7-.7-.7-.5 0-.9.4-.9.7 0 .5.4.9.9.9zm0 2.6c.4 0 .7-.4.7-.7 0-.5-.4-.9-.7-.9-.5 0-.9.4-.9.9 0 .4.4.7.9.7zM0 0" style="fill:none;stroke:#fff;stroke-miterlimit:10;stroke-linejoin:round;stroke-width:.67"/></svg>