<svg xmlns="http://www.w3.org/2000/svg" xml:space="preserve" id="图层_1" x="0" y="0" viewBox="0 0 24.7 25"><style>.st0,.st1{fill:none;stroke:#fff;stroke-miterlimit:10}.st1{stroke-linejoin:round}</style><path d="M12.4 9.7c6.7 0 12.3-2.2 12.3-4.9S19.1 0 12.4 0C5.5 0 0 2.2 0 4.9s5.5 4.8 12.4 4.8z" class="st0"/><path d="M24.7 4.9c0 2.7-5.5 4.9-12.3 4.9C5.5 9.7 0 7.5 0 4.9v15.3C0 22.8 5.5 25 12.4 25c6.7 0 12.3-2.2 12.3-4.9zM0 0" class="st0"/><path d="m9.7 2.9 1 1.5-3.8.8.8-.7-6-1 1.5-1.2 5.9 1zm5.4 3.6L14.4 5l3.5-.8-.7.7 5.9 1-1.5 1-5.7-1zM13.3 2l3.9-1v1.7l-.8-.3-2 1.7-1.8-.3 2-1.5zm-1.7 6.1-3.7.6L7.7 7l1 .2 2-1.7 1.8.2-2.2 2zM0 0" class="st1"/><path d="M14.4 18.8H9.9v-4.7h4.5zm-7.7-7.9v1.8H3.4v-1.8zm0 4.7v2H3.4v-2zm0 4.5V22H3.4v-1.8h3.3zm7.2 0V22h-3.5v-1.8h3.5zm7.4-9.2v1.8h-3.5v-1.8zm-7.4 0v1.8h-3.5v-1.8zm7.4 4.7v2h-3.5v-2zm0 4.5V22h-3.5v-1.8h3.5zM0 0" style="fill:none;stroke:#fff;stroke-miterlimit:10;stroke-linejoin:round;stroke-width:.67"/><path d="M5.2 16.4h14.4m-7.4-4.3v9.1m-6.5-.1 13.4-9.2m-.3 9.2L5.5 11.9" class="st1"/></svg>