<svg xmlns="http://www.w3.org/2000/svg" xml:space="preserve" id="图层_1" x="0" y="0" viewBox="0 0 25 12.2"><style>.st0,.st1{fill:none;stroke:#fff;stroke-miterlimit:10}.st1{stroke-linejoin:round}</style><path d="m0 6 7.6-6H25l-6.3 6z" class="st0"/><path d="M18.7 12.2 25 5.4V0l-6.3 6zm0 0V6H0v6.1h18.7zM0 0" class="st0"/><path d="M16 .9c-4.3-.1-9.3.7-11.1 2s.3 2.5 4.7 2.6c4.3.1 9.4-.7 11.1-2C22.5 2.2 20.4 1 16 .9z" class="st1"/><path d="M15.2 1.8c-3.6-.1-7.6.4-8.9 1.2-1.4.8.4 1.4 4.1 1.6 3.5.1 7.6-.4 8.9-1.2 1.4-.8-.4-1.4-4.1-1.6zM0 0" class="st1"/></svg>