<svg xmlns="http://www.w3.org/2000/svg" xml:space="preserve" id="图层_1" x="0" y="0" viewBox="0 0 25 16.2"><style>.st0,.st1{fill:none;stroke:#fff;stroke-miterlimit:10}.st1{stroke-linejoin:round}</style><path d="M0 5.7v10.5h19.1V5.7zm0 0L7 0h18l-5.9 5.7z" class="st0"/><path d="M19.1 5.7v10.5L25 10V0zM0 0" class="st0"/><path d="M12.1 10.2c0 .4-1 .7-2.2.7s-2.2-.3-2.2-.7v2.7c0 .4 1 .7 2.2.7 1.1 0 2.2-.3 2.2-.7zM0 0z" class="st1"/><path d="M9.9 10.9c1.1 0 2.2-.3 2.2-.7 0-.3-1-.6-2.2-.6s-2.2.3-2.2.6c.1.4 1.1.7 2.2.7zm0 3c1.1 0 2.2-.3 2.2-.7 0-.3-1-.6-2.2-.6s-2.2.3-2.2.6c.1.5 1.1.7 2.2.7zm6.8-2.6h-3.4v-.6h3.4v-.8l2 1.2-2 1.1zm-.6-2.8-3 2-.3-.6 3-1.9-.6-.7 2.3-.1-1 2.2zm0 5-3-1.9-.3.4 3 2-.6.7 2.3.1-1-2.2zM2.7 11.3h3.4v-.6H2.7v-.8l-2 1.2 2 1.1zm7.4-4.4V5.7h-.6v1.2h-.9l1.1 2.2 1.2-2.2zM3.3 8.5l2.9 2 .4-.6-3-1.9.4-.7-2.3-.1 1.1 2.2zm0 5 2.9-1.9.4.4-3 2 .4.8-2.3.1 1.1-2.2zM0 0" class="st1"/></svg>