<svg xmlns="http://www.w3.org/2000/svg" xml:space="preserve" id="图层_1" x="0" y="0" viewBox="0 0 25 16.9"><style>.st0,.st2{fill:none;stroke:#fff;stroke-miterlimit:10}.st2{stroke-linejoin:round;stroke-width:.67}</style><path d="M0 16.9h22.5V3H0zm25-3.6-2.5 3.6V3L25 0z" class="st0"/><path d="M3.6 0H25l-2.5 3H0zM0 0" class="st0"/><path d="M4.7 10.1H1.2v-.6h3.5v-.8l2.1 1.1L4.7 11zm13.5-3.5h-3.6v-.5h3.6v-1l1.9 1.2-1.9 1.1zm1.7 3.5h-5.2v-.6h5.2v-.8l1.9 1.1-1.9 1.2zm-1.7 3.6h-3.6V13h3.6v-.8l1.9 1.2-1.9 1.1zM0 0" style="fill:none;stroke:#fff;stroke-miterlimit:10;stroke-linejoin:round"/><path d="M0 0zm13.8 8.3c0 .6-1.4 1.1-3.2 1.1-1.7 0-3-.6-3-1.1v2.6c0 .7 1.4 1.1 3 1.1 1.8 0 3.2-.4 3.2-1.1zM0 0" class="st2"/><path d="M10.6 9.4c1.8 0 3.2-.6 3.2-1.1 0-.7-1.4-1.1-3.2-1.1-1.7 0-3 .4-3 1.1 0 .5 1.4 1.1 3 1.1zM0 0" class="st2"/></svg>