<svg xmlns="http://www.w3.org/2000/svg" xml:space="preserve" id="图层_1" x="0" y="0" viewBox="0 0 25 16.6"><style>.st1,.st2{fill:none;stroke:#fff;stroke-miterlimit:10;stroke-linejoin:round}.st2{stroke-width:.33}</style><path d="M23.2 16.6H0V2h23.2zM1.8 0H25l-1.8 2H0z" class="st1"/><path d="m25 13.9-1.8 2.7V2L25 0z" class="st1"/><path d="M0 0zm10.7 11.8 1.6-1.2c-1.6 0-2.4 0-3.5.1-.5 1.5-.5 1.9-1.1 3l1.4-.7c1.2 1 2.7 1.1 4.1.7v-.1l2.2-1.5c-1.4.9-3.3.8-4.7-.3zM9.2 9.6c-.4-1.3-.2-2.8.7-3.9.3-.1.4-.3.5-.5l-2 1.6c-.1.1-.4.3-.5.4-1 1.1-1.1 2.6-.7 3.9z" class="st2"/><path d="M13.3 5.2c-.8-.3-1.6-.4-2.4-.1-.1 0-.3.1-.4.1l-2 1.6c.9-.8 2.2-.9 3.4-.5l-1.2.8h3.5l.3-2.6zM16 6.3c1.2 2 .8 4.2-.1 5.3-.1.3-.4.4-.5.5l-2.2 1.5c.3-.1.4-.3.7-.5 1.6-2 .7-3.9.1-5.3zM4.3 10.1 1 9.9v-.7h3.4v-.9l2 1.4-2 1.4v-1zm15 0 3.4-.1v-.8h-3.4v-.9l-2 1.4 2 1.4zM0 0" class="st2"/></svg>