<svg xmlns="http://www.w3.org/2000/svg" xml:space="preserve" id="图层_1" x="0" y="0" viewBox="0 0 23.6 25"><style>.st0,.st1{stroke:#fff;stroke-miterlimit:10}.st0{fill:none;stroke-width:.67;stroke-linejoin:round}.st1{fill:#222}.st2{font-family:&quot;ArialMT&quot;}</style><path d="M0 25V2.4h21.3V25zM2.2 0 0 2.4h21.3L23.6 0zm21.4 22.8V0l-2.2 2.4V25zM0 0z" class="st0"/><path d="M19.9 3.5H1.8v20.3h18.1z" class="st0"/><path d="M13.4 20.3c0 1.4-1.2 2.4-2.6 2.4-1.2 0-2.4-1-2.4-2.4s1.2-2.4 2.4-2.4c1.4 0 2.6 1 2.6 2.4zM0 0" class="st0"/><text class="st1 st2" style="font-size:4.2683px" transform="translate(9.37 20.122)">V</text><text class="st1 st2" style="font-size:3.0488px" transform="translate(6.476 7.927)">WWW</text><path d="M4.7 16.7h13.8M5.9 15.4l-.6 1.2.6 1.2L3 16.7zm11.4-6.5H3.5m12.6 1.3.6-1.2-.6-1 2.8 1zm-.9 4.6H6.9v-4.3h8.3z" class="st0"/><path d="m6.9 10.6 4.1 2 4.3-2" class="st0"/></svg>