<svg xmlns="http://www.w3.org/2000/svg" xml:space="preserve" id="图层_1" x="0" y="0" viewBox="0 0 25 16.4"><style>.st1,.st2{fill:none;stroke:#fff;stroke-miterlimit:10;stroke-linejoin:round}.st2{stroke-width:.67}</style><path d="M0 16.4h22.4v-13H0zm25-3.9-2.6 3.9v-13L25 0zM4.1 0H25l-2.6 3.3H0zM0 0" class="st1"/><path d="M16.5 9.7h3.2v.7l1.6-1.1-1.6-1.1v.9h-3.2zM0 0" class="st1"/><path d="M19.2 15c-.2 0-.5-.2-.5-.5-.2-.2 0-.5.4-.5.4-.2.7 0 .7.3-.1.3-.3.7-.6.7z" class="st2"/><path d="M20.2 15c0 .3-.3.9-.9.9-.4 0-.7-.5-.7-.9 0-.5.4-.9.7-.9q.9 0 .9.9z" class="st2"/><path d="M20.1 14.3 19 15.8l-4.8-3 1.1-1.8z" class="st2"/><path d="M9.5 4.2c-2.8.5-4.8 3.5-4.1 6.3s3.5 4.8 6.3 4.1c3-.5 4.8-3.5 4.1-6.3-.5-2.8-3.3-4.8-6.3-4.1z" class="st2"/><path d="M5.3 9.2H3.7v.7h1.8zm1.2 3.3-2.3 1.6.4.4L6.9 13zM6.3 6 4.4 4.8l-.3.5L6 6.5zm5.3 7.9c-2.5.5-4.9-1.1-5.5-3.5s1.1-4.9 3.5-5.5c2.5-.5 4.9 1.1 5.5 3.5.6 2.5-1 5-3.5 5.5zM0 0" class="st2"/><path d="M9 6v7l4.2-3h1.9V9h-1.9zM5.3 9.9h1.9v.7l1.6-1.1-1.6-1v.7H5.3zM6.9 13l.7-.4.4.5.7-1.8H6.9l.4.7-.7.4zm-.7-6.5 1 .5-.3.7h1.8L7.9 6l-.3.7L6.5 6zM0 0" class="st2"/></svg>