<svg xmlns="http://www.w3.org/2000/svg" xml:space="preserve" id="图层_1" x="0" y="0" viewBox="0 0 25 12.9"><style>.st1{fill:none;stroke:#fff;stroke-miterlimit:10;stroke-linejoin:round}</style><path d="M22.7 12.9V2.3H0v10.6z" class="st1"/><path d="M22.6 2.3H0L2.8 0h22.1v10.6l-2.2 2.3V2.3z" class="st1"/><path d="M22.7 2.3 24.9 0m-7.6 10.2c1 0 1.9-.9 1.9-2 0-1-.9-1.9-1.9-1.9-1.1 0-2 .9-2 1.9 0 1.1.9 2 2 2zm0-3.9h3.3m-5.3 1.9V4.8m2 5.4h-3.4m-8.5 0c-1.1 0-2-.9-2-2 0-1 .9-1.9 2-1.9 1 0 1.9.9 1.9 1.9 0 1.1-.9 2-1.9 2zm0-3.9H1.9m5.4 1.9V4.8m-2.1 5.4h3.4M20.7 5v2.4l1.5-1.1zm-6.5-.2h2.4l-1.1-1.5zm-.3 6.7V8.9l-1.5 1.3zM1.9 5v2.4L.4 6.3zm6.6-.2H6l1.3-1.5zm.2 6.7V8.9l1.5 1.3zM0 0" style="fill:none;stroke:#fff;stroke-miterlimit:10;stroke-linejoin:round;stroke-width:2"/><path d="M11.4 4.7v6.1" style="fill:none;stroke:#fff;stroke-miterlimit:10;stroke-linejoin:round;stroke-width:1.33"/></svg>