<svg xmlns="http://www.w3.org/2000/svg" xml:space="preserve" id="图层_1" x="0" y="0" viewBox="0 0 17.9 25"><style>.st0{fill:none;stroke:#fff;stroke-miterlimit:10}</style><path d="m7.7 7.1-3.9-6L4.7 0l4.1 6zM3.7 25l3.9-6V7.1l-3.9-6zm9.7-6V7.1L14.6 6v11.9z" class="st0"/><path d="M13.4 7.1H7.7L8.8 6h5.8zm-5.7 0V19h5.8V7.1zM0 0" class="st0"/><path d="M7.5 12.3 3.7 6m3.8 6.3L3.7 9.9m3.8 2.6-3.7 6.3m3.7-6.3-3.7 2.4" style="fill:none;stroke:#fff;stroke-miterlimit:10;stroke-linejoin:round;stroke-width:.4;stroke-linecap:round"/><path d="M7.5 12.3H3.7m0-6.3H0m3.7 3.9H0m3.7 2.6H0m3.7 2.2H0" style="fill:none;stroke:#fff;stroke-miterlimit:10;stroke-linejoin:round;stroke-width:.67;stroke-linecap:round"/><path d="M3.7 18.8H0" style="stroke-linecap:round;fill:none;stroke:#fff;stroke-width:2.33;stroke-linejoin:round;stroke-miterlimit:10"/><path d="M17.9 12.5H14" style="fill:none;stroke:#fff;stroke-width:2.33;stroke-linejoin:round;stroke-miterlimit:10"/></svg>