<svg xmlns="http://www.w3.org/2000/svg" xml:space="preserve" id="图层_1" x="0" y="0" viewBox="0 0 24.5 25"><style>.st0,.st1,.st2{fill:none;stroke:#fff;stroke-miterlimit:10}.st1,.st2{stroke-width:.67;stroke-linejoin:round}.st2{stroke-width:1.33}</style><path d="M24.5 0v20.8L20.3 25V4.2z" class="st0"/><path d="M20.3 4.2H0L5.2 0h19.3zm0 20.8V4.2H0V25zM0 0" class="st0"/><path d="M10.6 11.1H17m-6.4 7.3H17m-8.3-3.5V8.5m5.7 6.1V21m-7.3-6.4V21m3.7-9.9H4.5" class="st1"/><path d="M0 0z" class="st2"/><path d="M10.4 10.9H17M17 9v3.8l2.1-1.9zm-6.6 9.2h7.1m-.5-1.9v3.5l2.1-1.6zM0 0" class="st1"/><path d="M8.5 14.6V8.7" class="st2"/><path d="M12.3 14.9V8.5m-.3 6.1V8.7m1.9 5.7v6.8m1.9-.2h-3.5l1.6 2.1zm-9-6.6v6.8m1.9-.2H5.2l1.6 2.1zm1.7-2.8H3.8M4 20v-3.5l-2.1 1.6zm6.4-9.1H3.8m.2 1.8V9.2l-2.1 1.7zM0 0zm10.4 18.9c2.4 0 4.2-1.9 4.2-4.2s-1.9-4.5-4.2-4.5c-2.4 0-4.2 2.1-4.2 4.5s1.8 4.2 4.2 4.2zm5.9-10.4c.2 0 .2 0 .2-.2V6.2c0-.2 0-.2-.2-.2H4.7s-.2 0-.2.2v2.1c0 .2.2.2.2.2h2.1v-.7h6.8v.7zM0 0" class="st1"/><path d="M9 13h-.5v-.5H9zm0 1.1h-.5v-.5H9zm0 1.2h-.5v-.5H9zm0 1.2h-.5V16H9zm1.1-3.5h-.4v-.5h.5v.5zm0 1.1h-.4v-.5h.5v.5zm0 1.2h-.4v-.5h.5v.5zm0 1.2h-.4V16h.5v.5zm1.2-3.5h-.5v-.5h.5zm0 1.1h-.5v-.5h.5zm0 1.2h-.5v-.5h.5zm0 1.2h-.5V16h.5zm1.2-3.5H12v-.5h.5zm0 1.1H12v-.5h.5zm0 1.2H12v-.5h.5zm0 1.2H12V16h.5zM0 0" style="fill:none;stroke:#fff;stroke-miterlimit:10;stroke-linejoin:round;stroke-width:.4"/></svg>