<svg xmlns="http://www.w3.org/2000/svg" xml:space="preserve" id="图层_1" x="0" y="0" viewBox="0 0 16.6 25"><style>.st0{fill:none;stroke:#fff;stroke-width:.67;stroke-linejoin:round;stroke-miterlimit:10}</style><path d="M0 0zm3.3 15.1H0V25h3.3z" class="st0"/><path d="m3.3 25 1.9-1.9v-9.9H1.9L0 15.1h3.3z" class="st0"/><path d="M10.1 2.7H3.3V25h6.8z" class="st0"/><path d="m10.1 25 2.7-2.7V0H6.1L3.3 2.7h6.8zm0-22.3L12.8 0" class="st0"/><path d="M13.8 6.3h-3.6V25h3.6z" class="st0"/><path d="m13.8 25 2.7-2.6V3.6h-3.7l-2.6 2.6h3.6zm0-18.7 2.7-2.6M0 0zm6.9 11.9V13h1m.4-1.1V13h1m-5.4-1v1H5m.4-1v1h1.1m.4 1v1.1h1m.4-1.1v1.1h1m-5.4-1v1H5m.4-1v1h1m.5 1.1v1h1m.4-1v1h1m-5.4-1v1H5m.4-1v1h1m.5.8v1.1h1m.4-1.1v1.1h1M3.9 18v1.1H5m.4-1.1v1.1h1" class="st0"/><path d="M10.9 7.2v1.1h1m.4-1.1v1.1h1.1m-2.6.8v1h1.1m.4-1v1h1.1m-2.6.8v1h1.1m.4-1v1h1.1m-12.9 4V17h1m.5-1.1V17h1m-2.4.8v1.1h1m.4-1.1v1.1h1m-2.4.7v1.1h1m.4-1.1v1.1h1M6.9 3.9v1H8m.3-1v1h1.1m-5.5-1V5H5m.4-1.1V5h1.1m.4 1.1v1H8m.3-1v1h1m-5.4-1v1.1H5m.4-1.1v1.1h1.1m.4.9v1H8m.3-1v1h1m-5.4-1v1.1H5m.4-1.1v1.1h1.1m.4.8v1.1H8m.3-1.1v1.1h1m-5.4-1v1H5m.4-1v1h1.1m4.3 1.6v1h1.1m.4-1v1h1.1m-2.6.8v1h1.1m.4-1v1h1.1" class="st0"/></svg>