<svg xmlns="http://www.w3.org/2000/svg" xml:space="preserve" id="图层_1" x="0" y="0" viewBox="0 0 17.6 25"><style>.st0,.st1,.st2{fill:none;stroke:#fff;stroke-miterlimit:10}.st1,.st2{stroke-linejoin:round}.st2{stroke-width:.67}</style><path d="M2.2 7.5 0 9.8V25h15.4l2.2-2.1V7.5z" class="st0"/><path d="M0 9.8h15.4l2.2-2.2H2.2z" class="st0"/><path d="m15.4 9.8 2.2-2.2V23l-2.2 2z" class="st0"/><path d="M2.2 7.5 0 9.8V25h15.4l2.2-2.1V7.5zM0 0" class="st0"/><path d="M2.2 0 0 2.1v7.7h15.4l2.2-2.2V0z" class="st1"/><path d="M15.4 2.1 17.6 0v7.5l-2.2 2.2z" class="st1"/><path d="M2.2 0 0 2.1v7.7h15.4l2.2-2.2V0z" class="st1"/><path d="M15.4 9.8V2.1H0" class="st1"/><path d="M1.1 3.2h4.3v2.2H1.1zM2.2 12h10.9v10.9H2.2zm7.7-8.8h4.3v2.2H9.9zM1.1 6.6h4.3v2.1H1.1zm8.8 0h4.3v2.1H9.9zM0 0" class="st0"/><path d="M5.4 4.3h4.5M5.4 7.5h4.5m-4.5-.9 4.5-1.1m-4.5-.1 4.5 1.1M0 0zm7.7 14.1c1.8 0 3.4 1.4 3.4 3.4 0 1.8-1.6 3.2-3.4 3.2-1.9 0-3.2-1.4-3.2-3.2 0-2 1.3-3.4 3.2-3.4" class="st2"/><path d="M7.7 16.3c.6 0 1.1.3 1.1 1.1 0 .5-.5 1-1.1 1s-1.1-.5-1.1-1c0-.7.5-1.1 1.1-1.1" class="st2"/></svg>