<svg xmlns="http://www.w3.org/2000/svg" xml:space="preserve" id="图层_1" x="0" y="0" viewBox="0 0 25 22.9"><style>.st0{fill:none;stroke:#fff;stroke-miterlimit:10}</style><path d="m20.8 22.9 4.2-4.2V0l-4.2 4.2z" class="st0"/><path d="m25 0-4.2 4.2H0L5.4 0zm-4.2 22.9V4.2H0V23h20.8zM0 0" class="st0"/><path d="M0 0zm10 6.2v13.5h-.6l1 1.7 1.2-1.7h-.8V6.2zm-5.6 0v13.5h-.9l1 1.7 1.2-1.7H5V6.2zm11.2 0v13.5h-.8l1.2 1.7 1-1.7h-.8V6.2zM0 0" style="fill:none;stroke:#fff;stroke-miterlimit:10;stroke-linejoin:round"/><path d="M18.8 11.2H2.3V6h16.5zM0 0" style="fill:none;stroke:#fff;stroke-miterlimit:10;stroke-linejoin:round;stroke-width:1.33"/></svg>