<svg xmlns="http://www.w3.org/2000/svg" xml:space="preserve" id="图层_1" x="0" y="0" viewBox="0 0 12 25"><style>.st1{fill:none;stroke:#fff;stroke-miterlimit:10;stroke-linejoin:round}</style><path d="m.9 24.8 1.2.2h5l1.2-.2.7-.5.1-.3V4.5H0v19.9zM12 0 9.1 2.7V24l2.9-3.4zM0 0" style="fill:none;stroke:#fff;stroke-miterlimit:10"/><path d="M0 0zm9.1 4.5L12 1.7M9.1 22.4l2.9-3.3M2.6 0H12L9.1 2.7S5.3 4.1 0 2.5z" class="st1"/><path d="M0 2.6c5.3 1.5 9.1.2 9.1.2v1.7S5.3 5.8 0 4.3zm8.9 8.2H0v.2m0-3.5h9.1M0 8.9h9.1M.2 11.6l.7.7h1.2m6.5-5.5H.7v-1h7.9zm-6.5 4.7h5l1.2-.2.7-.5m-6.9 1.5h6.2l.7-.7" class="st1"/><path d="m.2 10.8.7.5 1.2.2M.2 13.7l.7.5 1.2.2m0-1h5l1.2-.2.7-.5m-6.9 1.7h5l1.2-.2.7-.5m-8.8-1 .7.5 1.2.2M.2 15.6l.7.5 1.2.2m0-.9h5l1.2-.2.7-.5m-6.9 1.6h5l1.2-.2.7-.5m-8.8-.9.7.5 1.2.2M.2 17.6l.7.5h1.2m0-.8h5l1.2-.2.7-.5m-6.9 1.5h6.2l.7-.5m-8.8-1 .7.5 1.2.2M.2 19.5l.7.5 1.2.2m0-1h6.2l.7-.7m-6.9 1.7h5l1.1-.2.7-.5m-8.7-1 .7.7h1.2M.2 21.4l.7.5 1.2.2m0-.9h5l1.2-.2.7-.5m-6.9 1.6h5l1.2-.2.7-.5m-8.8-.9.7.5 1.2.2M.2 23.5l.7.5 1.2.2m0-1.1h5l1.2-.2.7-.5m-6.9 1.7h5l1.1-.1.7-.5M.2 22.4l.7.5 1.2.2" class="st1"/></svg>