<svg xmlns="http://www.w3.org/2000/svg" xml:space="preserve" id="图层_1" x="0" y="0" viewBox="0 0 25 17.1"><style>.st0,.st1{fill:none;stroke:#fff;stroke-miterlimit:10}.st1{stroke-linejoin:round}</style><path d="M0 2v15.1h23.2V2zm0 0 1.8-2H25l-1.8 2z" class="st0"/><path d="M23.2 2 25 0v15.1l-1.8 2zM0 0" class="st0"/><path d="M0 0zm18.5 5.2v-.8l2.2 1.5-2.2 1.5v-.9h-2.8V5.2zM7 9v-.8l2 1.4-2 1.5v-.9H1.6V9zm11.5 3.8v-.9l2.2 1.5-2.2 1.5V14h-2.8v-1.2zM0 0" class="st1"/><path d="M18.3 5v-.9l2.1 1.3L18.3 7V6h-2.8V5zM6.6 8.8v-1l2.2 1.6-2.2 1.5v-1H1.3V8.8zm13.9.2v-.8l2.1 1.5-2.1 1.5v-.9h-4.9V9zM0 0" class="st1"/><path d="M20.2 8.8v-1l2.1 1.6-2.1 1.5v-1h-4.9V8.8zm-1.9 3.8v-.9l2.1 1.5-2.1 1.5v-.9h-2.8v-1.2zm-3.7-9.4v12.7H9.1V3.2zM0 0" class="st1"/><path d="M13.2 12.9v1.7h-2.3v-1.7zm1.1 1.7v.5h-.4v-.5zm0-1.1v.6h-.4v-.6zm0-.9v.4h-.4v-.5h.4zm0-1v.5h-.4v-.5zm0-1.1v.5h-.4v-.5zm0-1v.5h-.4v-.5zm0-1.1V9h-.4v-.6zm0-1v.5h-.4v-.5zm0-1.1v.5h-.4v-.5zm0-.9v.5h-.4v-.5zm0-1v.4l-.4.1v-.5zm-4.2 10.2v.5h-.5v-.5zm0-1.1v.6h-.5v-.6zm0-.9v.4h-.5v-.5h.5zm0-1v.5h-.5v-.5zm0-1.1v.5h-.5v-.5zm0-1v.5h-.5v-.5zm0-1.1V9h-.5v-.6zm0-1v.5h-.5v-.5zm0-1.1v.5h-.5v-.5zm0-.9v.5h-.5v-.5zm0-1v.5h-.5v-.5zm3.1 5.7v1.7h-2.3v-1.7zm0-2.7v1.7h-2.3V7.4zm0-2.6v1.6h-2.3V4.8zM0 0" class="st1"/><path d="M3.4 3.2c-1.4-.3-2.2.5-2.1 1.1-1.1.2-.7 1.6-.2 1.6-.1.6 1.2 1.2 1.9.8.4.6 1.2.6 2.2.7.8 0 1.3-.1 1.6-.4v.1c1.3 0 1.8-.9 1.6-1.5h.1c.4-.1.5-1.1-.3-1.2l.1-.1c.2-.6-.5-1.3-1.6-1.1v-.1c-.7-.7-2.9-.5-3.2.1zM0 0" style="fill:none;stroke:#fff;stroke-miterlimit:10;stroke-linejoin:round;stroke-width:.67"/></svg>