<svg xmlns="http://www.w3.org/2000/svg" xml:space="preserve" id="图层_1" x="0" y="0" viewBox="0 0 25 22.7"><style>.st0,.st4{fill:none;stroke:#fff;stroke-miterlimit:10}.st4{stroke-width:2}</style><path d="M25 4.4v7.8l-6.8 6.2v-7.6z" class="st0"/><path d="M6.2 6.2H0L7 0h6.1l8.5 4.4H25l-6.8 6.4h-3.4z" class="st0"/><path d="m6.2 6.2 8.5 4.5h3.4v7.6h-3.4l-8.5 4.4H0V6.2zM0 0" class="st0"/><path d="m13.3 4.5-3-1.7M14.8 7 17 5.1l-2.7.2zM11 4.7l2.3-1.9.4 1.9zM0 0" style="fill:none;stroke:#fff;stroke-miterlimit:10;stroke-linecap:round;stroke-linejoin:round"/><path d="M17.8 6.8 15 5.5m-.6-.8 1.7-1.3m-4.7 2.1 2.5 1.3-2.7.4zm3.2-2.7L17 4.2l-.2-1.5zM0 0" style="fill:none;stroke:#fff;stroke-miterlimit:10;stroke-width:.67;stroke-linecap:round;stroke-linejoin:round"/><path d="m11.9 6.6 1.7-1.3" style="stroke-linecap:round;stroke-linejoin:round;fill:none;stroke:#fff;stroke-width:2;stroke-miterlimit:10"/><path d="M11.2 17.6H8.7l-3.4-6.8H3" class="st4"/><path d="M2.8 17.6h2.5l3.2-6.8h2.6" class="st4"/><path d="M10.4 9.7V12l1.3-1.1zm0 6.8v2.3l1.3-1.1zm-7.2-4.4V9.7l-1.3 1.1zm0 6.8v-2.5l-1.3 1.1zM0 0" class="st0"/></svg>