<svg xmlns="http://www.w3.org/2000/svg" xml:space="preserve" id="图层_1" x="0" y="0" viewBox="0 0 25 14"><style>.st1{stroke:#fff;stroke-miterlimit:10;fill:none;stroke-linejoin:round}</style><path d="M0 0zm11.9 1H6.3L0 10.1h5.6c6.8 1 8.4.4 14.9 0L25 2.6h-1.6L24.6 1H13.4l-1.3 1.6h-1.3zM0 0" style="fill:none;stroke:#fff;stroke-miterlimit:10"/><path d="M11.9 9.6h-4l2.2-2.8H14zm13.1-7V8l-4.6 5v-2.9zM9 3.1C8.2 4 7.4 5 6.8 6v.6l-1.9 3-.2-2C5 6.2 9.4.6 10.4 0l.3 1.9L9 3.7zM1.2 7.6l-.2 2h3.8l-.1-2z" class="st1"/><path d="M10.4 0C9.4.6 5 6.2 4.7 7.6H1.2C1.5 6.2 5.9.6 6.9 0zM0 0zm11.6 4.9L14 1.8h9l-2.1 3.1z" class="st1"/><path d="m12.6 4.3 1.5-2.1h6l-1.3 2.1zm0 2.5-2.1 2.8m.8-2.8-2 2.8m.4-2.2h3.8m-4.4.7h3.8M8.4 9h4m8 4.1c-6.5.4-8.1.9-14.9 0H-.1v-2.9h5.6c6.8 1 8.4.4 14.9 0zM11.9 1v1.6h-1.2zm12.7 0v1.6h-1.2zM0 0" class="st1"/><text style="stroke:#fff;stroke-miterlimit:10;fill:#222;font-family:&quot;ArialMT&quot;;font-size:4.8535px" transform="translate(14.915 7.942)">IP</text></svg>