<svg xmlns="http://www.w3.org/2000/svg" xml:space="preserve" id="图层_1" x="0" y="0" viewBox="0 0 25 13.9"><style>.st0{fill:none;stroke:#fff;stroke-miterlimit:10}</style><path d="M0 6.2 7.6 0H25l-6.2 6.2z" class="st0"/><path d="M18.8 13.9 25 7.6V0l-6.2 6.2zm0 0V6.2H0v7.7zM0 0" class="st0"/><path d="M0 0zm6.2 9V7.6H3.3V9zm6.4 0V7.6h2.9V9zm-6.4 3.7v-1.4H3.3v1.4zm6.4 0v-1.4h2.9v1.4zM5.2 8.2h8.6m-8.6 3.7h8.6m-9.1.1 9.2-3.8m-9.2 0 9.2 3.8M10.7 1.2l3.9-.4-.8 1.3-.8-.3-5.9 2.3L6 3.8l5.8-2.2zm4.6 1.4 3.8-.4-.7 1.2-1-.1-5.8 2.2-1-.3L16.2 3zM0 0" style="fill:none;stroke:#fff;stroke-miterlimit:10;stroke-linejoin:round"/></svg>