<svg xmlns="http://www.w3.org/2000/svg" xml:space="preserve" id="图层_1" x="0" y="0" viewBox="0 0 25 16.8"><style>.st1{stroke:#fff;stroke-miterlimit:10;fill:none;stroke-linejoin:round}</style><path d="M0 0zm7.8 9.4C3.2 8.7 0 7 0 4.9V12c0 2 3.2 3.7 7.8 4.4zM0 0" style="fill:none;stroke:#fff;stroke-miterlimit:10"/><path d="M7.8 16.5c1.4.3 2.9.3 4.6.3 7 0 12.6-2 12.6-4.8V4.9c0 2.7-5.6 4.9-12.6 4.9-1.5 0-3.2-.2-4.6-.5zm9.5-16C15.8.2 14.1 0 12.4 0 5.6 0 0 2.2 0 4.9c0 2 3.1 3.7 7.5 4.4zM0 0" class="st1"/><path d="M7.5 9.4c1.5.3 3.2.5 4.9.5C19.4 9.9 25 7.7 25 5c0-2-3.2-3.7-7.7-4.4zm2-6.3 1 1.5-3.9 1 .8-.9-6.1-1 1.5-1 5.8.9z" class="st1"/><path d="m15 6.8-.7-1.5 3.4-.7-.5.5 5.8 1-1.4 1.2-5.8-1.2zm-1.9-4.6 3.9-1v1.7l-1-.2-1.9 1.5-1.9-.2 2-1.7zm-1.7 6.1L7.5 9V7.3l1 .2 2-1.7 1.9.3L10.2 8zM0 0" class="st1"/><text style="stroke:#fff;stroke-miterlimit:10;fill:#222;font-family:&quot;ArialMT&quot;;font-size:6.1224px" transform="translate(8.674 14.796)">ITP</text></svg>