<svg xmlns="http://www.w3.org/2000/svg" xml:space="preserve" id="图层_1" x="0" y="0" viewBox="0 0 11.9 25"><style>.st0,.st1{fill:none;stroke:#fff;stroke-miterlimit:10}.st1{stroke-linecap:round;stroke-linejoin:round}</style><path d="M7.8 4.2H0V25h7.8z" class="st0"/><path d="m7.8 25 4-4.2V0H4.2L0 4.2h7.8z" class="st0"/><path d="m7.8 4.2 4-4.2M6.4 19.9c0 .7-1.1 1.1-2.4 1.1-1.5 0-2.5-.4-2.5-1.1 0-.4 1.1-.8 2.5-.8 1.3 0 2.4.4 2.4.8M0 0" class="st1"/><path d="M4.7 19.9c0 .2-.2.2-.6.2s-.8 0-.8-.2.4-.2.8-.2c.3 0 .6 0 .6.2m0-.4s-.2.2-.6.2-.8-.2-.8-.2c0-.2.4-.4.8-.4.3 0 .6.2.6.4M0 0" class="st1"/><path d="M6.4 19.1c0 .4-1.1.8-2.3.8-1.5 0-2.5-.4-2.5-.8-.1-.7.9-1.1 2.4-1.1 1.3 0 2.4.4 2.4 1.1M0 0" class="st1"/><path d="M4.7 18.9c0 .2-.2.4-.6.4s-.8-.2-.8-.4c0 0 .4-.2.8-.2.3-.1.6.2.6.2m0-.5c0 .2-.2.2-.6.2s-.8 0-.8-.2.4-.2.8-.2c.3 0 .6 0 .6.2M0 0" class="st1"/><path d="M6.4 18c0 .4-1.1.9-2.3.9-1.5 0-2.5-.4-2.5-.9-.1-.6.9-1 2.4-1 1.3 0 2.4.4 2.4 1M0 0" class="st1"/><path d="M4.7 18s-.2.2-.6.2-.8-.2-.8-.2c0-.2.4-.4.8-.4.3 0 .6.2.6.4m1.7-2.1c0 .6-1.1 1.1-2.4 1.1-1.5 0-2.5-.4-2.5-1.1 0-.4 1-.9 2.5-.9 1.3 0 2.4.5 2.4.9M0 0" class="st1"/><path d="M4.7 15.9c0 .2-.2.2-.6.2s-.8 0-.8-.2.4-.2.8-.2c.3 0 .6 0 .6.2m0-.4s-.2.2-.6.2-.8-.2-.8-.2c-.1-.2.3-.5.7-.5s.7.3.7.5M0 0" class="st1"/><path d="M6.4 14.8c0 .6-1.1 1.1-2.3 1.1-1.5 0-2.5-.4-2.5-1.1-.1-.4.9-.8 2.4-.8 1.3 0 2.4.4 2.4.8M0 0" class="st1"/><path d="M4.7 14.8c0 .2-.3.2-.7.2s-.8 0-.8-.2.4-.2.8-.2.7 0 .7.2m0-.4s-.2.2-.6.2-.8-.2-.8-.2c-.1-.2.3-.4.7-.4s.7.2.7.4M0 0" class="st1"/><path d="M6.4 14c0 .4-1.1.8-2.3.8-1.5 0-2.5-.4-2.5-.8 0-.6 1.1-1.1 2.5-1.1 1.2 0 2.3.4 2.3 1.1M0 0" class="st1"/><path d="M4.7 13.8c0 .2-.2.4-.6.4s-.8-.2-.8-.4c0 0 .4-.2.8-.2.3 0 .6.2.6.2m1.7-1.9c0 .4-1.1.8-2.3.8-1.5 0-2.5-.4-2.5-.8-.1-.5.9-.9 2.4-.9 1.3 0 2.4.4 2.4.9M0 0" class="st1"/><path d="M4.7 11.9s-.2.2-.6.2-.8-.2-.8-.2c0-.2.4-.4.8-.4.3-.1.6.2.6.4M0 0" class="st1"/><path d="M4.7 11.2c0 .2-.2.4-.6.4s-.8-.2-.8-.4c0 0 .4-.2.8-.2.3 0 .6.2.6.2M0 0" class="st1"/><path d="M6.4 10.8c0 .6-1.1 1.1-2.3 1.1-1.5 0-2.5-.4-2.5-1.1-.1-.4.9-.8 2.4-.8 1.3 0 2.4.4 2.4.8M0 0" class="st1"/><path d="M4.7 10.8c0 .2-.3.2-.7.2s-.8 0-.8-.2.4-.2.8-.2.7 0 .7.2m0-.4s-.2.2-.6.2-.8-.2-.8-.2c-.1-.2.3-.4.7-.4s.7.2.7.4M0 0" class="st1"/><path d="M6.4 9.7c0 .6-1.1 1.1-2.3 1.1-1.5 0-2.5-.4-2.5-1.1 0-.4 1.1-.8 2.5-.8 1.2 0 2.3.4 2.3.8M0 0" class="st1"/><path d="M4.7 9.7c0 .3-.3.3-.7.3s-.8 0-.8-.2.4-.2.8-.2c.4-.1.7-.1.7.1M0 0" class="st1"/></svg>