<svg xmlns="http://www.w3.org/2000/svg" xml:space="preserve" id="图层_1" x="0" y="0" viewBox="0 0 18.6 25"><style>.st0,.st1{fill:none;stroke:#fff;stroke-miterlimit:10}.st1{stroke-linecap:round}.st3{fill:none;stroke:#fff;stroke-width:1.5;stroke-miterlimit:10}</style><path d="M0 0z" class="st0"/><path d="M18.5 5c0 2.5-2.1 4.6-4.6 4.6S9.3 7.5 9.3 5 11.4.4 13.9.4c2.6 0 4.6 2 4.6 4.6" class="st1"/><path d="M13.9 9.6c2.5 0 4.6-2.1 4.6-4.6S16.4.4 13.9.4" class="st1"/><path d="M13.9 1.2c2.1 0 3.7 1.7 3.7 3.7S16 8.6 13.9 8.6" style="stroke-linecap:round;fill:none;stroke:#fff;stroke-width:1.5;stroke-miterlimit:10"/><path d="M9.1 13.8c-1.1-1.1-1.5-2.7-.9-4.2s2-2.4 3.5-2.4 2.9.9 3.5 2.4.2 3.1-.9 4.1v.9l-.9.7v.9l-.7.8.8 1v.7c-.4.1-.7.5-.7.9s.3.8.7.9v.5l-1 .9.8.8v.8L11.6 25l-1.6-.9.3-8.7zM0 0" class="st3"/><path d="M13.3 15.5h-1.9m-.1 0-.4 8.9.7.4.5-9.4h-.8zM0 0" class="st0"/><path d="M10.6 7.6c.6-.7 1.7-.7 2.4-.1s.7 1.7.1 2.4l1.2 2.1-2.3 2.4-1.6-.5-.5.6h-1l-.8.6h-1l.1 1-.6.6c-.3-.3-.8-.3-1.1.1-.3.3-.3.8.1 1.1l-.7.6h-1v1.1l-.6.7-2.2.1-.6-1.7 6-6.4v-1.1l.5-.6-.7-1.7 2.3-2.4zM0 0" class="st3"/><path d="m1.2 20.2 6.4-6.7-.4-.6-6.3 6.7zm7.5-5.7-1-.9m3.7-5.4" class="st0"/><path d="M12.6 8.7c0 .4-.3.7-.7.7s-.7-.3-.7-.7.3-.7.7-.7.7.3.7.7" class="st1"/><path d="M14.4 1.2c-1.8-.2-3.5.9-4.1 2.6s.2 3.6 1.8 4.5q.3.3 0 .6t-.6 0c-1.8-1-2.7-3.3-2-5.4s2.8-3.4 5-3.1" class="st1"/></svg>