<svg xmlns="http://www.w3.org/2000/svg" xml:space="preserve" id="图层_1" x="0" y="0" viewBox="0 0 24.8 25"><style>.st0,.st1{fill:none;stroke:#fff;stroke-miterlimit:10}.st1{stroke-linejoin:round}</style><path d="M22 25V2.8H0V25z" class="st0"/><path d="M22 2.8H0L3.4 0h21.3v22.2L22 25zM0 0" class="st0"/><path d="M22 2.8 24.8 0M11.2 25V2.8" class="st1"/><path d="M0 0zm12.7 6h5.4m-5.4 9.7h5.4m2.4 5h-5.2" style="fill:none;stroke:#fff;stroke-miterlimit:10;stroke-linejoin:round;stroke-width:2"/><path d="M20.5 11.2h-5.2M18.1 5v2.2L20.3 6zm0 9.4v2.2l2.2-.9zm-3 7.4v-2.2l-2.2 1.1zm0-9.5v-2.2l-2.2 1.1zm-11.4-.2v-1.3l-1.5.6zm0 9.2V20l-1.5.6zm4.1-6.2v1.3l1.5-.6zm0-9.5v1.3l1.5-.6zM0 0" style="fill:none;stroke:#fff;stroke-miterlimit:10;stroke-linejoin:round;stroke-width:.67"/><path d="M9.7 11.4H3.4m6.3 9.3H3.4m-1.9-5h6.3M1.5 6.5h6.3" class="st1"/></svg>