<svg xmlns="http://www.w3.org/2000/svg" xml:space="preserve" id="图层_1" x="0" y="0" viewBox="0 0 25 13.9"><style>.st0,.st1{fill:none;stroke:#fff;stroke-miterlimit:10}.st1{stroke-width:1.33;stroke-linecap:round;stroke-linejoin:round}</style><path d="M0 6.2 7.5 0H25l-6.3 6.2z" class="st0"/><path d="M18.7 13.9 25 7.5V0l-6.3 6.2zm0 0V6.2H0v7.7zM0 0" class="st0"/><path d="M17.9 10.2s-1.2 3.1-2.7 0c-1.4-3.3-2.7 0-2.7 0s-1.2 3.1-2.7 0c-1.4-3.3-2.7 0-2.7 0s-1.2 3.1-2.7 0c-1.4-3.3-2.7 0-2.7 0" class="st1"/><path d="M1.4 10.2s1.3 3.1 2.7 0c1.6-3.3 2.7 0 2.7 0s1.3 3.1 2.7 0c1.6-3.3 2.7 0 2.7 0s1.3 3.1 2.7 0c1.6-3.3 2.7 0 2.7 0" style="stroke:#fff;stroke-miterlimit:10;fill:none;stroke-width:.67;stroke-linecap:round;stroke-linejoin:round"/><path d="M17.7 10.2s-1.3 3.1-2.7 0c-1.6-3.3-2.7 0-2.7 0s-1.3 3.1-2.7 0c-1.4-3.3-2.7 0-2.7 0s-1.2 3.1-2.7 0c-1.4-3.3-2.7 0-2.7 0" class="st1"/><path d="M1.2 10.2s1.3 3.1 2.7 0c1.6-3.3 2.7 0 2.7 0s1.3 3.1 2.7 0c1.6-3.3 2.7 0 2.7 0s1.2 3.1 2.7 0c1.4-3.3 2.7 0 2.7 0M0 0" class="st1"/><text style="stroke:#fff;stroke-miterlimit:10;fill:#222;font-family:&quot;ArialMT&quot;;font-size:4.3198px" transform="translate(5.638 3.142)">LWAPP</text></svg>