<svg xmlns="http://www.w3.org/2000/svg" xml:space="preserve" id="图层_1" x="0" y="0" viewBox="0 0 21.5 25"><style>.st1{fill:none;stroke:#fff;stroke-miterlimit:10;stroke-linejoin:round}</style><path d="M3.3 5.9H0v2.7h2.9m14.7 0h.4c3.1 0 3.5 2.7 3.5 2.7V8.6s-.4-2.7-3.5-2.7h-.6" class="st1"/><path d="M16 25V2.1H2.9V25zM2.9 2.1 5.3 0h12.9L16 2.1zM16 25l2.3-2.5V0L16 2.1zM0 0" class="st1"/><path d="M21.5 8.4v3.3c-.4 3.9-7.2 3.7-7.2 3.7v2.9l-4.5-4.5 4.5-4.5v2.9s7 .1 7.2-3.8" class="st1"/><path d="M21.5 8.4v3.3c-.4 3.9-7.2 3.7-7.2 3.7v2.9l-4.5-4.5 4.5-4.5v2.9s7 .1 7.2-3.8M5.1 6.6l-.8.6V3.7h3.5l-.6.8-.2.2 5.1 5.1-1.6 1.6-5.2-5zm0 14.5-.8-.8v3.5h3.5l-.6-.8-.2-.3 5.1-5.1-1.7-1.6-5.1 5.1zM0 0" class="st1"/></svg>