<svg xmlns="http://www.w3.org/2000/svg" xml:space="preserve" id="图层_1" x="0" y="0" viewBox="0 0 20.4 25"><style>.st0{fill:none;stroke:#fff;stroke-miterlimit:10}</style><path d="M20.4 19.9V1.5L16 5.9V25zM16 5.9H0V25h16z" class="st0"/><path d="m16 5.9 4.4-4.4L18.3 0H3L0 5.9M18.3 0 16 5.9zM0 0" class="st0"/><path d="M0 0zm3.5 13.2v1.6h1.6M1 13.2v1.6h1.6M1 9.9v1.6h1.6m.9-4.8v1.6h1.6M1 6.7v1.6h1.6m3.5 4.9v1.6h1.6M6.1 9.9v1.6h1.6M6.1 6.7v1.6h1.6m3.3 4.9v1.6h1.6m-4-1.6v1.6h1.6M8.6 9.9v1.6h1.6m.8-4.8v1.6h1.6m-4-1.6v1.6h1.6m3.5 4.9v1.6h1.6m-1.6-4.9v1.6h1.6m-1.6-4.8v1.6h1.6m4.3-4.4v1.8l-1.2 1m1.2 3.8v1.8l-1.2 1m-.6-1.3v2l-1.1 1m1.1-9.6v2l-1.1 1" style="fill:none;stroke:#fff;stroke-miterlimit:10;stroke-linejoin:round"/></svg>