<svg xmlns="http://www.w3.org/2000/svg" xml:space="preserve" id="图层_1" x="0" y="0" viewBox="0 0 25 13.3"><style>.st0,.st1{fill:none;stroke:#fff;stroke-miterlimit:10}.st1{stroke-linejoin:round}</style><path d="M0 4.8 5.8 0H25l-5 4.8z" class="st0"/><path d="m20 13.2 5-5V0l-5 4.8zm0 .1V4.8H0v8.5zM0 0" class="st0"/><path d="M14.2 7.9c0 .7-1.6 1.5-3.8 1.5-2 0-3.7-.7-3.7-1.5v2.2c0 .7 1.6 1.5 3.7 1.5 2.2 0 3.8-.7 3.8-1.5z" class="st1"/><path d="M10.4 9.4c2.2 0 3.8-.7 3.8-1.5 0-.9-1.6-1.5-3.8-1.5-2 0-3.7.6-3.7 1.5 0 .7 1.6 1.5 3.7 1.5zm-5.7-3H0m4.7 2.5H0m18.4 0h-2.2M4.7 11.4H0m6.3-5L3.5 7.6l.6-1.2-.6-1zm0 2.5-2.8 1.2.6-1.2-.6-1.1zm13.4 0-2.2.9.5-.9-.5-.9zM6.3 11.4l-2.8 1.2.6-1.2-.6-1.2zM16.7 8l-.4.9.4.9-2.2-.9zM0 0" class="st1"/></svg>