<svg xmlns="http://www.w3.org/2000/svg" xml:space="preserve" id="图层_1" x="0" y="0" viewBox="0 0 22.6 25"><style>.st0,.st1{fill:none;stroke:#fff;stroke-miterlimit:10}.st1{stroke-width:.5;stroke-linejoin:round}</style><path d="M0 24.9V4.3L5.6 0h17v20.8L18.3 25z" class="st0"/><path d="M0 4.3h18.2v20.6" class="st0"/><path d="m22.4.3-4.2 4M8 9.2c0-.7.3-1.3.7-1.8.5-.5 1.1-.7 1.8-.7h1.2c-1.2.2-2 1.3-1.8 2.5zM0 0" class="st1"/><path d="M10.3 10.2h2c-.1-2-1.2-3.6-2.5-3.5h2.4c1.3.1 2.3 1.6 2.3 3.4l2 .1-3.2 3.1zm-.9 9.9c-.1 1.3-1.2 2.3-2.5 2.2H5.8c1.1-.1 2-1.1 1.9-2.2z" class="st1"/><path d="M5.4 18.7c0 1.7 1 3.2 2.2 3.6H5.7c-1.4-.3-2.4-1.8-2.5-3.6h-2l3-3 3 3zM0 0" class="st1"/></svg>