<svg xmlns="http://www.w3.org/2000/svg" xml:space="preserve" id="图层_1" x="0" y="0" viewBox="0 0 15.6 25"><style>.st0{fill:none;stroke:#fff;stroke-miterlimit:10}</style><path d="M13.5 25V2H0v23zM0 2l2.7-2h12.9l-2 2z" class="st0"/><path d="m13.5 25 2-2.5V0l-2 2zM0 23.4h13.5M0 11.1h13.5" class="st0"/><path d="M0 0zm5.9 18.4v1.8h-.8L6.5 22l1.6-1.8h-.7v-1.8zm0-1.4v-2h-.8l1.4-1.8L8.2 15h-.8v2zM2 17h1.8v-.8l1.8 1.6-1.8 1.4v-.8H2zm9.3 0h-2v-.8l-1.8 1.6 1.8 1.4v-.8h2zM7.4 6.1V3.7H1.2v2.5h6.2zM1.8 4.9H7" style="fill:none;stroke:#fff;stroke-miterlimit:10;stroke-linejoin:round"/></svg>