<svg xmlns="http://www.w3.org/2000/svg" xml:space="preserve" id="图层_1" x="0" y="0" viewBox="0 0 25 13.9"><style>.st0,.st1,.st2,.st4{fill:none;stroke:#fff;stroke-miterlimit:10}.st1{stroke-width:1.33}.st1,.st2,.st4{stroke-linecap:round;stroke-linejoin:round}.st2{stroke-width:.67}.st4{stroke-width:.8}</style><path d="M0 6.1 7.6 0H25l-6.2 6.1z" class="st0"/><path d="M18.8 13.9 25 7.6V0l-6.2 6.1zm0 0V6.1H0v7.7h18.8zM0 0" class="st0"/><path d="M18.1 10.2s-1.3 3.3-2.7 0c-1.6-3.1-2.7 0-2.7 0s-1.3 3.3-2.7 0c-1.6-3.3-2.7 0-2.7 0s-1.3 3.3-2.7 0c-1.4-3.1-2.7 0-2.7 0" class="st1"/><path d="M1.6 10.2s1.3 3.3 2.7 0c1.4-3.1 2.7 0 2.7 0s1.2 3.3 2.7 0c1.4-3.3 2.7 0 2.7 0s1.2 3.3 2.7 0c1.4-3.1 2.7 0 2.7 0" class="st2"/><path d="M17.7 10.2s-1.2 3.3-2.6 0c-1.6-3.1-2.7 0-2.7 0s-1.3 3.3-2.7 0c-1.6-3.3-2.7 0-2.7 0s-1.3 3.3-2.7 0c-1.6-3.1-2.7 0-2.7 0" class="st1"/><path d="M1.3 10.2s1.2 3.3 2.7 0c1.4-3.1 2.7 0 2.7 0s1.2 3.3 2.7 0c1.4-3.3 2.7 0 2.7 0s1.2 3.3 2.7 0c1.4-3.1 2.6 0 2.6 0" class="st1"/><path d="M24.6 4.3s-.5 3.7-.8.9c-.4-2.9-.9.9-.9.9s-.5 3.7-.9 1c-.3-2.9-.8.9-.8.9s-.5 3.7-.9.9c-.3-2.9-.8.9-.8.9" class="st2"/><path d="M19.5 9.8s.1 2.9.8-.9c.6-3.9.9-.9.9-.9s.3 2.9.8-1c.7-3.8.9-.8.9-.8s.3 2.9.9-.9c.5-3.9.8-.9.8-.9" style="fill:none;stroke:#fff;stroke-miterlimit:10;stroke-linecap:round;stroke-linejoin:round;stroke-width:.5"/><path d="M24.6 4.3s-.7 3.8-.9.9c-.4-2.7-.9.9-.9.9s-.5 3.8-.8 1c-.4-2.8-.9.9-.9.9s-.5 3.8-.9.9c-.3-2.7-.8.9-.8.9" class="st4"/><path d="M19.4 9.8s.3 2.9.8-.9c.6-3.8.9-.9.9-.9s.3 2.9.9-.9c.5-3.8.8-.9.8-.9s.3 3 .9-.9c.7-3.8.9-.9.9-.9m-11-3.1-.6-.1 2.4-.5.9.8-.7-.1h-.1l-1.3.9h-1.7l1.3-.9h-.2zm-1.7 3.4.7.1-2.4.5-.9-.7.7.1h.3l1.2-.9h1.7zM8.4 3H5.6l.9-.7h2.7l.4-.3 1.3.9-3.2.9zm8.6-.3h2.7l-.7.7h-2.7l-.4.4-1.3-.9 3.3-.8zM0 0" class="st4"/></svg>