<svg xmlns="http://www.w3.org/2000/svg" xml:space="preserve" id="图层_1" x="0" y="0" viewBox="0 0 25 17"><style>.st0,.st1{fill:none;stroke:#fff;stroke-miterlimit:10}.st1{stroke-linejoin:round}</style><path d="M0 1.9V17h23.1V1.9zm0 0L1.8 0H25l-1.9 1.9z" class="st0"/><path d="M23.1 1.9 25 0v15.1L23.1 17zM0 0" class="st0"/><path d="M0 0zm18.5 5.2v-.9l2.2 1.5-2.2 1.4v-.9h-2.8V5.2zM7 12.7v-.9l2 1.5-2 1.5V14H1.5v-1.3zm11.5.1v-.9l2.2 1.4-2.2 1.5V14h-2.8v-1.1h2.8zM0 0" class="st1"/><path d="M18.3 4.9v-.8l2.2 1.4L18.3 7v-.9h-2.8V4.9zM6.6 12.4v-.9L8.8 13l-2.2 1.4v-.9H1.3v-1.1zM20.4 9v-.9l2.2 1.4-2.2 1.5v-.9h-4.8V9zM0 0" class="st1"/><path d="M20.2 8.6v-.9l2.2 1.5-2.2 1.5v-.8h-4.8V8.6zm-1.9 3.8v-.9l2.2 1.5-2.2 1.5v-.9h-2.8v-1.3h2.8zm-3.6-9.2v12.6H9.1V3.2z" class="st1"/><path d="M13.2 12.8v1.8h-2.4v-1.8zm1.1 1.8v.5h-.5v-.5zm0-1v.5h-.5v-.5zm0-1.2v.5h-.5v-.5zm0-.8v.4h-.5v-.4zm0-1.2v.5h-.5v-.5zm0-1v.5h-.5v-.5zm0-1v.5h-.5v-.5zm0-1v.5h-.5v-.5zm0-1.1v.5h-.5v-.5zm0-1v.5h-.5v-.5zm0-1v.5h-.5v-.5zm-4.1 10.3v.5h-.6v-.5zm0-1v.5h-.6v-.5zm0-1.2v.5h-.6v-.5zm0-.8v.4h-.6v-.4zm0-1.2v.5h-.6v-.5zm0-1v.5h-.6v-.5zm0-1v.5h-.6v-.5zm0-1v.5h-.6v-.5zm0-1.1v.5h-.6v-.5zm0-1v.5h-.6v-.5zm0-1v.5h-.6v-.5zm3 5.9v1.6h-2.4v-1.6zm0-2.8V9h-2.4V7.4zm0-2.7v1.6h-2.4V4.7zM0 0zm6.9 6.5c.1-.3.3-1.6.3-1.8 0-.1 0-.4-.1-.4v-.1s0-.4.1-.5v-.8h-.3s-.2.3-.3.7c0 .1-.1.4-.1.4-.1 0-.3 0-.4-.1-.4-.1-.8-.1-1-.3l-.2.1c-.1 0-.3.1-.4.4 0 .1-.5 1.4-.5 1.6-.1.3-.2 1-.2 1.3-.1.4-.1.9-.4 1.8-.1.3-.4 1.1-.4 1.4-.1 0-.3.4 0 .5.4.1.8.4 1 .4.3.1.8.3 1.1.3s.3-.4.4-.5c0-.3.1-.9.3-1.4.3-.8.5-1.3.6-1.6.2-.4.5-1.2.5-1.4zM0 0" class="st1"/><path d="M6.9 3h-.1c-.2 0-.3-.1-.3-.1" class="st1"/><path d="M6.5 6.6c.1-.3.4-1.7.5-1.8 0-.3-.1-.5-.3-.5v-.1s0-.3.1-.5v-.6l-.2-.2s-.1 0-.1.1c0 0-.1.1-.3.5 0 .3-.1.4-.1.4-.1 0-.3 0-.4-.1-.4 0-.6-.1-1-.1h-.1s-.3.3-.3.4c-.1.1-.5 1.4-.6 1.6-.1.4-.3 1-.3 1.3-.1.4-.1 1-.4 1.8-.1.4-.3 1.1-.4 1.4 0 .1-.3.5 0 .6.4.1 1 .2 1.2.2.1.1.6.3 1 .3.4.1.4-.4.4-.4 0-.4.3-1 .4-1.5.1-.8.4-1.3.5-1.7.1-.2.4-.8.4-1.1zM0 0" class="st1"/><path d="M4.1 8.4c-.2.1-.3.2-.4.2-.1-.1-.1-.2-.1-.4s.1-.2.2-.1c.1 0 .3.1.3.3zm1.4-3.8.3-.8M4.7 8.6c0 .1-.3.3-.4.3-.1-.1-.1-.3-.1-.4s.1-.1.3-.1.2.1.2.2zm.6.2c0 .1-.1.2-.2.2-.2-.1-.3-.2-.3-.4.1-.1.3-.3.4-.1.1 0 .3.1.1.3zM3.9 9c-.1.1-.2.1-.3.1-.2 0-.3-.1-.2-.2 0-.1.1-.3.3-.3.1 0 .2.3.2.4zM0 0" class="st1"/><path d="M4.6 9.3c-.2.1-.3.1-.4.1s-.3-.1-.1-.3c0-.1.1-.3.3-.3 0 .2.2.3.2.5zm.6.1c0 .1-.1.1-.3.1-.1 0-.3-.1-.3-.4.2-.1.3-.1.5-.1.1 0 .1.1.1.4zm-1.5.1c0 .1-.1.3-.3.1-.1 0-.3-.1-.3-.3.1-.1.3-.3.4-.1.2.1.3.2.2.3zm.6.3c0 .1-.1.3-.3.3-.1-.2-.2-.3-.1-.5 0-.1.1-.3.3-.1.1 0 .2.1.1.3zM0 0" class="st1"/><path d="M5.1 9.9c0 .1-.3.3-.4.1-.1 0-.1-.1-.1-.3s.1-.3.3-.3c.2.2.2.4.2.5zm-1.5.1c0 .3-.1.3-.3.3S3 10 3 9.9c.1-.1.3-.1.4-.1.2 0 .2.1.2.2zm.6.4c0 .1-.1.1-.3.1-.1 0-.3-.1-.3-.3.2-.2.3-.2.5-.2.1 0 .1.3.1.4zm.7 0c-.1.1-.3.3-.4.3-.1-.1-.3-.3-.1-.4 0-.1.1-.1.3-.1.1 0 .2.1.2.2zm-1 .4h-.1v-.1c.1 0 .1 0 .1.1zm2.8-6.6s0-.3.1-.5v-.6l-.2-.2s-.1 0-.1.1c0 0-.1.1-.3.5 0 .3-.1.4-.1.4m0 3C6.1 7 6 7 6 7l-2-.5v-.1l.4-1.3V5l2 .6s.1 0 0 0zM0 0" class="st1"/><path d="M6.7 4.1c-.1 0-.4-.1-.5-.1m-1.5-.3s-.5.9-.8 1.9c-.3 1.1-.4 1.5-.3 2 0 .1.1.3.3.3 0 .1.2.1.2.1h.1l.1.1c.1 0 .1.1.3.1h.6c.1.1.3 0 .4-.1.3-.4.5-.8.8-1.9.3-1 .4-2 .4-2" class="st1"/><path d="M4.4 4.2c.4 0 .8.1 1.1.1.5.1.8.3 1.2.4M5.3 7.6c-.1.4-.5.5-.7.4-.3 0-.5-.4-.4-.6.1-.3.4-.5.6-.4.4 0 .5.4.5.6zm-1.1-.9c.1 0 .1 0 .3.1 0 0-.1 0-.1.1h-.1c0-.1-.3-.3-.3-.3.1.1.2.1.2.1zm-.4.7h.3v.4c.1.1.1.1 0 .1 0 0-.1 0-.1-.1h-.1c-.1-.2-.1-.3-.1-.4zm1.8-.3h-.3v.1h.5c-.1-.1-.2-.1-.2-.1zm0 .8c0-.1-.1-.1-.1-.1-.1 0-.1.1-.1.1-.2 0-.2.1-.3.2h.4s.1-.1.1-.2zM0 0" class="st1"/></svg>