<svg xmlns="http://www.w3.org/2000/svg" xml:space="preserve" id="图层_1" x="0" y="0" viewBox="0 0 25 9"><style>.st0{fill:none;stroke:#fff;stroke-miterlimit:10}</style><path d="M0 9V3.8h20.7V9z" class="st0"/><path d="M20.7 9V3.8H0L5.2 0H25v4.3zm0-5.2L24.8 0" class="st0"/><path d="M0 0zm3.6 7.3c.3 0 .7-.3.7-.7 0-.3-.3-.7-.7-.7s-.6.3-.6.7c0 .3.3.7.6.7zm3.3 0c.3 0 .7-.3.7-.7 0-.3-.3-.7-.7-.7-.3 0-.7.3-.7.7 0 .3.4.7.7.7zm3.3 0c.3 0 .7-.3.7-.7 0-.3-.3-.7-.7-.7-.3 0-.7.3-.7.7 0 .3.4.7.7.7zm3.3 0c.3 0 .7-.3.7-.7 0-.3-.3-.7-.7-.7-.3 0-.7.3-.7.7 0 .3.4.7.7.7zm3.3 0c.3 0 .7-.3.7-.7 0-.3-.3-.7-.7-.7-.3 0-.7.3-.7.7 0 .3.4.7.7.7zM0 0" style="fill:none;stroke:#fff;stroke-miterlimit:10;stroke-linejoin:round"/></svg>