<svg xmlns="http://www.w3.org/2000/svg" xml:space="preserve" id="图层_1" x="0" y="0" viewBox="0 0 25 13.9"><style>.st0,.st1{fill:none;stroke:#fff;stroke-miterlimit:10}.st1{stroke-linejoin:round}</style><path d="M0 6.1 7.6 0H25l-6.2 6.1z" class="st0"/><path d="M18.8 13.9 25 7.4V0l-6.2 6.1zm0 0V6.1H0v7.8zM0 0" class="st0"/><path d="M11.5 5c1.1-.9 2.6-1.3 2.6-1.3 1.6-.5 2.3-1.3 2.3-1.3C18 .6 14.9.6 14.9.6S11.7.6 10 2.2c0 0-.8.8-.3 1.5 0 0 .5.4-.1 1.3" class="st1"/><path d="M11.5 5s-.1.1-.3.1L9.6 5q-.15 0 0 0c0-.1.1-.1.1-.1h1.6c.2 0 .2.1.2.1zm-.3.3H9.5c-.1 0-.1 0-.1-.1h1.9zm-.1.1c-.1.1-.1.1-.3.1H9.2c-.1 0-.1-.1 0-.1l.1-.1 1.6.1zm5-1.3.7 1.6-2.3-.9zM0 0" class="st1"/><path d="M15.8 4.7 14.7 4M10 1.5 8.8.9M7.3 4.5l1.5-.4m10.1-2.8-1.5.3M5.3 2.7h1.6m11.3.5h1.6M10.1.8 7.7.4l.8 1.2zM8.5 4.7 5 5l2.3-1.2zM18 .8l2.8.3-2.6.8zM6.2 3.2 9 2.5l-2-.3zm12.7-.6-2.6.5 2.4.8zM9.5 5.7c.4.3.9 0 .9 0M0 0" style="stroke:#fff;stroke-miterlimit:10;fill:none;stroke-linecap:round;stroke-linejoin:round"/><text style="stroke:#fff;stroke-miterlimit:10;fill:#222;font-family:&quot;ArialMT&quot;;font-size:4.4592px" transform="translate(4.492 9.73)">MSE</text></svg>