<svg xmlns="http://www.w3.org/2000/svg" xml:space="preserve" id="图层_1" x="0" y="0" viewBox="0 0 25 18.8"><style>.st0{fill:none;stroke:#fff;stroke-miterlimit:10}</style><path d="M3.6 18.8V3.6H0v15.2zm3.5 0V3.6H3.6v15.2zm3.6 0V3.6H7.1v15.2zm3.4 0V3.6h-3.4v15.2zm3.6 0V3.6h-3.6v15.2z" class="st0"/><path d="M21.2 18.8V3.6h-3.6v15.2z" class="st0"/><path d="M21.2 18.8 25 15V0H3.6L0 3.6h21.2zM0 0" class="st0"/><path d="M21.2 3.6 25 0m-3.8 11.1H0m.6 1.3h2.3m-2.3.8h2.3m-2.3.9h2.3M.6 15h2.3M.6 16h2.3m1.2-3.6h2.3m-2.3.8h2.3m-2.3.9h2.3m-2.3.9h2.3m-2.3 1h2.3" style="fill:none;stroke:#fff;stroke-miterlimit:10;stroke-linejoin:round"/></svg>