<svg xmlns="http://www.w3.org/2000/svg" xml:space="preserve" id="图层_1" x="0" y="0" viewBox="0 0 23.9 25"><style>.st0,.st1{fill:none;stroke:#fff;stroke-miterlimit:10}.st1{stroke-width:.67;stroke-linejoin:round}</style><path d="M21.5 25H0V2.4h21.5zm2.4-2.4L21.5 25V2.4L23.9 0z" class="st0"/><path d="M23.9 0H2.4L0 2.4h21.5zM0 0" class="st0"/><path d="M5.6 4.1 1.7 8l14.9 14.2 3.9-4.1zM0 0z" class="st1"/><path d="M20.5 18.1 5.8 4.3l-.2-.2-.6.6-2.6 2.6-.7.7 14.9 14.2z" class="st1"/><path d="m5.4 4.7.2-.2.4.2-.4.3zm.6.7.2-.4.2.4-.2.2zm.5.6.4-.4.2.2-.2.5zm.6.5.4-.2.2.2-.2.4zm.7.6.2-.4.4.4-.2.2zm.6.7.2-.4.4.2-.4.4zm.7.4.2-.2.4.2-.4.4zm.6.6.2-.2.2.2-.2.3zm.4.7.4-.4.2.4-.2.2zm.7.4.4-.2.2.2-.2.4zm.6.7.2-.2.4.2-.2.2zm.7.6.2-.4.4.4-.4.2zm.6.4.2-.2.4.2-.4.4zm.7.7.2-.2.2.2-.2.2zm.4.6.4-.4.2.4-.2.2zm.6.5.4-.2.2.2-.2.4zm.7.6.2-.2.4.2-.4.2zm.6.7.2-.4.4.4-.4.2zm.7.4.2-.2.2.2-.2.4zm.6.6.2-.2.2.2-.2.4zm.5.7.4-.4.2.4-.2.2zm.6.6.4-.4.2.2-.2.4zm.6.5.2-.2.4.2-.3.4zm.7.6.2-.2.4.2-.4.2zM2.6 7.5 5.2 5l3.4 3.2L6 10.8zM6.2 11l2.6-2.6 3.5 3.2-2.6 2.6zm3.7 3.7 2.6-2.8 3.4 3.2-2.6 2.6zm3.7 3.4 2.6-2.8 3.2 3.2-2.4 2.6zM2.2 8.2l.2-.4.4.2-.2.4zm.6.4.2-.2.4.2-.4.5zm.6.7.2-.2.4.2-.3.2zm.7.6.2-.4.2.4-.2.2zm.4.4.5-.2.2.2-.2.5zm.7.7.4-.2.2.2-.2.2zm.6.6.2-.4.4.4-.2.2zm.7.5.2-.2.4.2-.4.4zm.6.6.2-.2.4.2-.4.2zm.7.7.2-.5.2.4-.2.3zm.4.4.4-.2.2.2-.2.4zm.6.6.4-.2.2.2-.2.2zm.7.7.2-.4.4.4-.2.2zm.6.4.2-.2.4.2-.4.4zm.7.7.2-.2.4.2-.4.4zm.6.6.2-.4.2.4-.2.2zm.5.7.4-.4.2.2-.2.4zm.6.4.4-.2.2.2-.2.4zm.6.6.2-.4.4.4-.2.2zm.7.7.2-.4.4.4-.4.2zm.6.4.2-.2.4.2-.4.4zm.7.7.2-.2.2.2-.2.2zm.4.6.4-.4.2.4-.2.2zm.7.4.4-.2.2.2-.2.4zM0 0" class="st1"/></svg>