<svg xmlns="http://www.w3.org/2000/svg" xml:space="preserve" id="图层_1" x="0" y="0" viewBox="0 0 25 19.1"><style>.st0,.st2{fill:none;stroke:#fff;stroke-miterlimit:10}.st2{stroke-linejoin:round;stroke-width:.67;stroke-linecap:round}</style><path d="M22.9 19.1H6.6V2.3h16.3zM8.7 0h16.2l-2 2.3H6.6z" class="st0"/><path d="m25 16-2.1 3.1v-17L25 0zM6.6 19.1H0V2.3h6.6zM2.3 0h6.6L6.7 2.3H0zM0 0" class="st0"/><path d="M0 0zm3.1 6.7v.2c-.5.6-.8.9-1.1.9s-.6-.2-.9-.8h.2c.2 0 .7-.1 1.1-.7v-.2l-.1-.2c-.3-.3-.6-.7-.6-1 0-.2.3-.5.8-.8 0 .5.2.8.5 1.2l.2.2.2-.2q.45-.9.9-.9c.3 0 .6.3.8.8h-.2c-.2 0-.3 0-.5.2-.3.1-.4.4-.6.5l-.1.2.2.2c.4.3.7.6 1.1.6-.1.4-.4.7-.7.7-.2 0-.6-.3-1.1-.6zM5 13c-.5.5-.9.9-1.4 1.7-.5.6-.8 1.2-1.1 1.7l-.3.3c-.2.2-.5.3-.5.3 0-.2-.2-.3-.3-.6v-.3c-.2-.3-.3-.6-.5-.8S.6 15 .4 15c.3-.3.5-.5.8-.5.2 0 .5.3.6.8l.2.3c.5-.8 1.2-1.7 2.1-2.6l.3-.3.9-.7c.2-.2.3-.2.6-.3v.2c0 .2-.2.3-.5.5zM0 0" style="fill:none;stroke:#fff;stroke-miterlimit:10;stroke-linejoin:round"/><path d="M6.6 10.1H0M22.9 14H6.6m16.3 2.3H6.6m18.1-2.7L23 16.3m-11.6 0v2.6m6.3-2.6v2.6m-3.1-4.7v2m-6.2-2v2m12.5-2v2m2-2.2 2-2.9m-1.1 4.1v2.4m.4-5.4v2m-13.1-.9c.3 0 .6-.2.6-.5s-.3-.6-.6-.6-.5.3-.5.6c.1.3.2.5.5.5" class="st2"/><path d="m10.7 12.2 1.1 1.1 2.9-3-1.1-.9z" class="st2"/><path d="M13.3 7c0 2.3 1.7 4 4 4 2.1 0 3.8-1.7 3.8-4 0-2.1-1.7-4-3.8-4-2.4.1-4 1.9-4 4" class="st2"/><path d="M13.7 7c0-1.8 1.5-3.4 3.5-3.4 1.8 0 3.4 1.5 3.4 3.4 0 2-1.5 3.4-3.4 3.4-2 0-3.5-1.4-3.5-3.4" class="st2"/><path d="M12.8 7.3c0 2.1 1.7 4 3.8 4 2.3 0 4-1.8 4-4 0-2.1-1.7-4-4-4-2.1.1-3.8 1.9-3.8 4" class="st2"/><path d="M13.3 7.3c0-1.8 1.5-3.4 3.4-3.4 2 0 3.5 1.5 3.5 3.4s-1.5 3.4-3.5 3.4c-1.9 0-3.4-1.6-3.4-3.4M0 0" class="st2"/></svg>