<svg xmlns="http://www.w3.org/2000/svg" xml:space="preserve" id="图层_1" x="0" y="0" viewBox="0 0 25 17.8"><style>.st0,.st2{fill:none;stroke:#fff;stroke-miterlimit:10}.st2{stroke-linejoin:round;stroke-width:.67}</style><path d="M0 17.8h22.4V3.1H0zM25 14l-2.6 3.8V3.1L25 0z" class="st0"/><path d="M3.8 0H25l-2.6 3.1H0zM0 0" class="st0"/><path d="M0 0zm3.8 7.4v.9L1.6 7.1l2.2-1.3v1-.2h3.8v-.9l2.2 1.2-2.2 1.3v-1H3.8zm0 6.7v1l-2.2-1.3 2.2-1.2v.9h3.8v-1l2.2 1.3L7.6 15v-.9zm0-3.4v1l-2.2-1.3 2.2-1.2v.9h2.6v-.8l2.2 1.2-2.2 1.3v-1H3.8zm17.1 2.5c-.4 0-.7-1.2-.6-2.5 0-1.3.3-2.4.6-2.4h-2.8c-.3 0-.6 1-.6 2.4s.1 2.4.6 2.4zM0 0" style="fill:none;stroke:#fff;stroke-miterlimit:10;stroke-linejoin:round"/><path d="M0 0zm20.3 10.7c-.1 1.3.1 2.4.6 2.4s.7-1 .7-2.4c0-1.2-.3-2.2-.7-2.2-.3 0-.6 1.1-.6 2.2zm-1.6-.1c0 2.6-2.1 4.7-4.7 4.7s-4.7-2.2-4.7-4.7c0-2.6 2.2-4.7 4.9-4.7 2.4 0 4.6 2 4.5 4.7zM0 0" class="st2"/><path d="M16.3 10.7c0 1.2-1 2.2-2.4 2.2-1.2 0-2.2-1-2.2-2.4 0-1.2 1-2.2 2.4-2.2 1.2.1 2.2 1.1 2.2 2.4zM0 0" class="st2"/></svg>