<svg xmlns="http://www.w3.org/2000/svg" xml:space="preserve" id="图层_1" x="0" y="0" viewBox="0 0 25 16.8"><style>.st1{fill:none;stroke:#fff;stroke-miterlimit:10;stroke-width:.67;stroke-linejoin:round}</style><path d="M25 4.8c0 2.8-5.6 5-12.6 5C5.6 9.8 0 7.6 0 4.8V12c0 2.6 5.6 4.8 12.4 4.8 7 0 12.6-2.2 12.6-4.8zM0 0" style="fill:none;stroke:#fff;stroke-miterlimit:10"/><path d="M12.4 9.8c7 0 12.6-2.2 12.6-5C25 2.2 19.4 0 12.4 0 5.6 0 0 2.2 0 4.8c0 2.8 5.6 5 12.4 5zM0 0" class="st1"/><path d="m12.6 3.8-1.8-2.6.8-.2L10 .4l-.6 1 .8-.2L11.8 4zm-1 .4-6-1.6.4-.2H3.8l1 1 .4-.4 6 1.6zm-.4.6-6.8.8-.2-.2-1.4.8 2 .2-.2-.4 7-.8zm.4.6L8 8l-.6-.2v1l2-.4-.6-.2 3.4-2.6zM13.2 4l3-2.6h-.6l1.8-.6.2 1-.6-.2-3 2.6zm-.4 1.6 1.8 3h-.8l1.6.8.8-1h-.8l-1.8-2.8zm1.2-.2 6 1.4-.4.4h2.2l-1-1-.4.2-6-1.4zm.2-.4L21 4l.2.4 1.4-.6-2-.4.2.2-6.8 1zM0 0" class="st1"/><path d="M0 0zm12.6 5.8c1.2 0 2.2-.4 2.2-1 0-.4-1-1-2-1-1.2 0-2.2.4-2.2 1 0 .4 1 .8 2 1zM0 0" style="fill:none;stroke:#fff;stroke-miterlimit:10;stroke-linejoin:round;stroke-width:2"/></svg>