<svg xmlns="http://www.w3.org/2000/svg" xml:space="preserve" id="图层_1" x="0" y="0" viewBox="0 0 25 23"><style>.st0,.st1{fill:none;stroke:#fff;stroke-miterlimit:10}.st1{stroke-width:.4;stroke-linejoin:round}</style><path d="M19.8 23V4.1H0V23zm0-18.9L25 0H7L0 4.1z" class="st0"/><path d="M25 18.7V0l-5.2 4.1V23zM0 0" class="st0"/><path d="M0 0zm2 22.1c.4 0 .9-.4.9-.9s-.5-.9-.9-.9c-.5 0-.9.4-.9.9 0 .4.5.9.9.9z" class="st1"/><path d="M1.4 20.3 3 22.1l4.7-5-1.6-1.6z" class="st1"/><path d="M5.4 11.9c0 3.6 2.9 6.3 6.3 6.3 3.6 0 6.5-2.7 6.5-6.3s-2.9-6.5-6.5-6.5c-3.4 0-6.3 2.9-6.3 6.5" class="st1"/><path d="M6.3 11.9c0-3.1 2.5-5.6 5.4-5.6 3.2 0 5.6 2.5 5.6 5.6 0 2.9-2.5 5.4-5.6 5.4-2.9 0-5.4-2.4-5.4-5.4z" class="st1"/><path d="M4.5 12.2c0 3.6 2.9 6.5 6.5 6.5s6.5-2.9 6.5-6.5c0-3.4-2.9-6.3-6.5-6.3s-6.5 2.9-6.5 6.3" class="st1"/><path d="M5.4 12.2c0-2.9 2.5-5.4 5.6-5.4s5.6 2.5 5.6 5.4c0 3.1-2.5 5.6-5.6 5.6s-5.6-2.5-5.6-5.6zM0 0" class="st1"/><path d="M8.8 9.7H14v4.7H8.8z" style="fill:none;stroke:#fff;stroke-miterlimit:10;stroke-linejoin:round;stroke-width:1.67"/></svg>