<svg xmlns="http://www.w3.org/2000/svg" xml:space="preserve" id="图层_1" x="0" y="0" viewBox="0 0 25 17.9"><style>.st0{fill:none;stroke:#fff;stroke-miterlimit:10}</style><path d="M0 17.9h22.4V3.1H0zm25-3.8-2.6 3.8V3.1L25 0z" class="st0"/><path d="M3.8 0H25l-2.6 3.1H0zM0 0" class="st0"/><path d="M13.8 9.9c0 1.5-1.3 2.6-2.8 2.6s-2.6-1.2-2.6-2.6c0-1.6 1.2-2.8 2.6-2.8 1.5 0 2.8 1.1 2.8 2.8zM0 0zm10.7 15v-1.9h.6V15h1L11 17.2 9.9 15zm-6.9-.4 1.5-2.8-.6-.3-1.5 2.6-1-.6v3.1l2.5-1.5zm14.7 0-1.6-2.8.7-.3 1.5 2.6 1-.6v3.1l-2.6-1.5zm-3.8.3-.6-2.1.6-.1.6 2.1.9-.3-.7 2.4-1.7-1.9zm-7.2 0 .6-2.1-.6-.1-.4 2.1-1-.3.7 2.4L8.5 15zM6.2 6.8v3.1h-.8V6.8h-1l1.5-2.6 1.5 2.6zm10.3 0v3.1h-.7V6.8h-1.2L16 4.1l1.5 2.6h-1zM0 0" style="fill:none;stroke:#fff;stroke-miterlimit:10;stroke-width:1.2;stroke-linejoin:round"/></svg>