<svg xmlns="http://www.w3.org/2000/svg" xml:space="preserve" id="图层_1" x="0" y="0" viewBox="0 0 25 12.4"><style>.st0,.st1{fill:none;stroke:#fff;stroke-miterlimit:10}.st1{stroke-width:.67;stroke-linejoin:round}</style><path d="M18.7 12.4V6.2H0v6.3h18.7zM0 6.2 7.5 0H25l-6.3 6.2z" class="st0"/><path d="M18.7 12.4 25 5.6V0l-6.3 6.2zM0 0" class="st0"/><path d="M5.4 5.4 11.3.7m-1.2 4.7L15.9.7m-1.2 4.7L20.6.7m-12.9.9h13.9M0 0zm7.1 9H3.7v-.4l-1.3.6 1.3.5v-.4h3.4zm2.1 1.1v1.2h-1l1.3.5 1.3-.5h-.9v-1.2zm0-1.7V7.1h-1l1.3-.4 1.3.4h-.9v1.3zm2.7.9h3.5v.4l1.3-.5-1.3-.5V9h-3.5zM0 0" class="st1"/><path d="M15.2 11.1c-.7.3-3.7-.4-6.8-1.4-3-1-5-2.2-4.3-2.5.7-.1 3.7.5 6.8 1.6 3 1 4.9 2.1 4.3 2.3z" class="st1"/><path d="M15.1 7.2c.7.3-1.3 1.3-4.3 2.5-3 1-6 1.7-6.8 1.4-.7-.1 1.2-1.3 4.2-2.3 3.1-1.1 6.1-1.7 6.9-1.6zM0 0" class="st1"/><path d="M11 9.9c1.2-.4 1.4-.9.7-1.3-1-.4-2.5-.5-3.7-.2-1 .3-1.4.9-.5 1.3.7.4 2.3.5 3.5.2zm.3-8.3c-.2.4-2.1.4-2.1 0s1.9-.6 2.1 0m4.5 0c-.1.4-2 .4-2 0s2-.6 2 0m4.7 0c-.1.4-2.1.4-2.1 0s2-.6 2.1 0M6 3h13.7M9.4 3c-.1.4-2 .5-2 0 .1-.4 2-.4 2 0m4.7 0c-.1.4-2.1.5-2.1 0 0-.4 2-.4 2.1 0m4.6 0c-.1.4-2 .5-2 0 .1-.4 2-.4 2 0M4.2 4.6h13.9m-10.6 0c-.2.4-2.1.5-2.1 0 0-.4 1.9-.4 2.1 0m4.5 0c-.1.4-2 .5-2 0 .1-.4 2-.4 2 0m4.8 0c-.1.4-2.1.5-2.1 0 0-.4 1.9-.4 2.1 0" class="st1"/></svg>