<svg xmlns="http://www.w3.org/2000/svg" xml:space="preserve" id="图层_1" x="0" y="0" viewBox="0 0 25 21"><style>.st0{fill:none;stroke:#fff;stroke-miterlimit:10}</style><path d="M18.5 16.5c0-2.9-2.7-4.9-6.3-4.9-3.1 0-5.8 2-5.8 4.9 0 2.4 2.7 4.5 5.8 4.5 3.6 0 6.3-2.2 6.3-4.5zM0 0" class="st0"/><path d="M16.3 16.3h2.5l1.6.4H23l.7-.4.4-.7.4-.7-.4-1.1-2.2-2-1.4-1.8-1.6-1.6L17.8 7l-1.1-1.8-.9-1.3L14.7 2 14.3.5 12.9 0h-1.1l-1.3.5-.4 1.1-.7 1.5-1.1 1.4-.7 1.3-2 2.9-1.5 1.6-3.4 3.4-.4.7v.4l.7 1.5h.7l.7.4h1.3l1.4-.4zM0 0" class="st0"/><path d="M18.8 10.3c0-2.7-3.1-4.9-6.7-4.9C8.7 5.4 6 7.6 6 10.3c0 2.9 2.7 4.9 6.2 4.9 3.6 0 6.6-2 6.6-4.9zm-5.9-7.9h.4V0h-.4zm-.8 0h.4V0h-.4zm-.7 0h.4V0h-.4zM.7 16.3l.2.4 2-1.5-.2-.2zm-.3-.5.2.4 2-1.5-.2-.2zm-.4-.6.2.4 2-1.5-.2-.3zm24.1 1.1-.2.4-2-1.5.2-.2zm.5-.5-.4.4-1.8-1.5.2-.2zm.4-.6-.2.4-2-1.5.2-.4zM0 0" style="fill:none;stroke:#fff;stroke-miterlimit:10;stroke-width:.67"/><path d="M10.3 16.7h1.1v.5h-1.1zm1.4 0h1.1v.5h-1.1zm1.3 0h1.1v.5H13zm-2.7 1.1h1.1v.5h-1.1zm1.4 0h1.1v.5h-1.1zm1.3 0h1.1v.5H13zm-2.7.9h1.1v.5h-1.1zm1.4 0h1.1v.5h-1.1zm1.3 0h1.1v.5H13z" style="fill:none;stroke:#fff;stroke-miterlimit:10;stroke-width:.25"/></svg>