<svg xmlns="http://www.w3.org/2000/svg" xml:space="preserve" id="图层_1" x="0" y="0" viewBox="0 0 25 23.3"><style>.st0,.st1{fill:none;stroke:#fff;stroke-miterlimit:10}.st1{stroke-width:.67;stroke-linecap:square;stroke-linejoin:round;stroke-dasharray:5,5}</style><path d="m25 0-4.1 3.9H0L5.1 0zm-4.1 23.3V3.9H0v19.4z" class="st0"/><path d="M25 19.4V0l-4.1 3.9v19.4zM0 0" class="st0"/><path d="M8.7 12.8 2 15M0 0zm19.7 5.4H1v16.3h18.7z" class="st1"/><path d="m11.7 11.1 8-2.9v1.7zm0 0 8 .7v1.9l-8-2.6" class="st1"/><path d="M17 20.2H4.3l6.5-12.6h0zM0 0z" class="st1"/><path d="m9.9 15-1.4-1.2.3-.2-.8-.2.2.7.2-.2 1.4 1.2zm-.5.8H7.7v-.3L7 16l.7.3v-.2h1.7zm.3.9L8.3 18l-.2-.3-.1.8.9-.2-.3-.2 1.4-1.4zm.7.5v1.7h-.2l.3.7.5-.7h-.3v-1.7zm0-2.4v-1.7h-.2l.3-.7.5.7h-.3v1.7zm1 2 1.2 1.4-.2.2.7.2-.2-.9-.1.3-1.2-1.4zm.3-.6h1.9v.2l.7-.3-.7-.5v.3h-1.9zm-.1-1.1 1.2-1.2.2.2.2-.7-.7.2.2.2-1.3 1.2zM0 0" class="st1"/><path d="M11.7 17.5c.7-.7 1-1.9.3-2.6-.5-.9-1.7-1.2-2.6-.5-.7.6-.9 1.8-.4 2.6.7.9 1.9 1 2.7.5zM0 0" class="st1"/></svg>