<svg xmlns="http://www.w3.org/2000/svg" xml:space="preserve" id="图层_1" x="0" y="0" viewBox="0 0 25 25"><style>.st0,.st1{fill:none;stroke:#fff;stroke-miterlimit:10}.st1{stroke-linejoin:round}</style><path d="M20.7 25V4.1H0V25zm0-20.9H0L5.2 0H25z" class="st0"/><path d="M25 20.9V0l-4.3 4.1V25zM0 0" class="st0"/><path d="M0 0zm17.3 11.6v4.5l2.7-2.3zM8.9 7.7h4.5L11.1 5zm4.5 13.2H8.9l2.3 2.7zm-9.1-4.3V12l-2.7 2.3zM0 0" class="st1"/><path d="M16.8 12v4.5l2.7-2.3zM8.4 8.2H13l-2.3-2.7zM13 21.4H8.4l2.3 3zM3.9 17v-4.5l-2.7 2.3zm10-5.4v1.8h2.3v-1.1c0-2-2.5-3-5.5-3s-5.5.9-5.5 3v1.1h2.3v-1.8c3-3.9 6.4 0 6.4 0z" class="st1"/><path d="M11.1 11.1H13v2l2.3 1.8v4.3H6.1V15l2.3-1.8v-2h2.7zM0 0" class="st1"/><path d="M13.9 12.3v1.6h2.3v-1.1c0-2-2.5-3-5.5-3s-5.5.9-5.5 3v1.1h2.3v-1.6c3-3.9 6.4 0 6.4 0z" class="st1"/><path d="M11.1 11.6H13v2.3l2.3 1.8v4.1H6.1v-4.1l2.3-1.8v-2.3zM0 0" class="st1"/></svg>