<svg xmlns="http://www.w3.org/2000/svg" xml:space="preserve" id="图层_1" x="0" y="0" viewBox="0 0 25 18.4"><style>.st0,.st1{fill:none;stroke:#fff;stroke-miterlimit:10}.st1{stroke-linejoin:round}</style><path d="M0 18.4v-4.1h17.6v4.1z" class="st0"/><path d="M17.6 14.3H0l8.3-12H25z" class="st0"/><path d="M25 2.3v7.6l-7.4 8.5v-4.1zM0 0" class="st0"/><path d="M13.8 4.5c-1 1.2-2.5 2.7-3.3 3.9l.2 1L8 13.3l-.2-2.5C8.3 8.9 14.5 1 15.9 0l.2 2.7-2.3 2.7zm-9.3 6.4-.2 2.5H8l-.2-2.5z" class="st1"/><path d="M15.9 0c-1.4 1-7.6 8.9-8.1 10.9H4.5c.7-2 6.9-9.9 8.3-10.9zM0 0zm10.5 13 3.7-5.4h5.4L16.5 13zm4 0 3.3-5.4M12.4 13l3.7-5.4m1.3 4h-5.8m6.4-1.3h-5.6m6.4-1.2h-5.6" class="st1"/></svg>