<svg xmlns="http://www.w3.org/2000/svg" xml:space="preserve" id="图层_1" x="0" y="0" viewBox="0 0 25 11.1"><style>.st0{fill:none;stroke:#fff;stroke-miterlimit:10}</style><path d="M0 11.1V8.6h20.5v2.5zm20.5-2.5H0l5-7.3h20zM25 1.4V6l-4.5 5.1V8.6z" class="st0"/><path d="m1.4 7.9 1.5-2.1h10.6L12 7.9zM0 0" class="st0"/><path d="m2.9 5.7 1.4-2.1m9.2 2.1L15 3.6m5.5 5L25 1.4m-6.6 1.3c-.6.8-1.5 1.6-2 2.4v.6l-1.5 2.4-.2-1.5c.4-1.2 4.1-6 5-6.6l.1 1.6-1.4 1.6zM0 0" style="fill:none;stroke:#fff;stroke-miterlimit:10;stroke-linejoin:round"/><path d="m12.8 6.6-.1 1.5H15l-.2-1.5zM19.6 0c-.9.6-4.6 5.4-5 6.6h-1.9c.4-1.2 4.1-6 5-6.6zM0 0zm16.4 7.9 2.1-3.3h3.4l-2 3.3zm2.4 0 2-3.3m-3.3 3.3 2.1-3.3m.8 2.4h-3.5m4-.8h-3.4m3.9-.7H18" style="fill:none;stroke:#fff;stroke-miterlimit:10;stroke-linejoin:round;stroke-width:.67"/></svg>