<svg xmlns="http://www.w3.org/2000/svg" xml:space="preserve" id="图层_1" x="0" y="0" viewBox="0 0 19.5 25"><style>.st0,.st1{fill:none;stroke:#fff;stroke-miterlimit:10}.st1{stroke-linejoin:round}</style><path d="M0 25V9.3h17.4V25zm19.5-2.1V7l-2.1 2.3V25zM3.1 0 0 2.1h17.4L19.5 0zM0 9.3V2.1h17.4v7.1H0z" class="st0"/><path d="M19.5 7V0l-2.1 2.1v7.1zM0 0" class="st0"/><path d="M0 0zm6 4.2V2.8H3.1v1.5H6zm6.3 0V2.8h2.9v1.5h-2.9zM6 7.8V6.3H3.1v1.5zm6.3 0V6.3h2.9v1.5zM5 3.6h8.6M5 7.3h8.6m-9.1 0 9.1-3.7m-9.1 0 9.1 3.7" class="st1"/><path d="M5.5 4.5V3.1H2.8v1.5h2.7zm6.5 0V3.1h2.8v1.5H12zM5.5 8.1V6.7H2.8v1.5h2.7zm6.5 0V6.7h2.8v1.5H12zM4.7 3.7h8.6M4.7 7.5h8.6m-9.1 0 9.1-3.7m-9.1-.1 9.1 3.7m-4.4 7.2V11h.6l-1-1.3-1 1.3h.7v3.6zM6 16.7H2.4v-.6l-1.3.8 1.3 1v-.6H6zm2.3 2.6v3.4h-.7l1 1.5 1-1.5h-.7v-3.4zm2.7-2.1h3.7v.6l1.3-1-1.3-.8v.6H11zM0 0" class="st1"/><path d="M0 0zm12 20.5H5.2v-7H12zm-5-7.2v7.1m1.6-7.1v7.1m1.6-6.9v7m-5-5.2H12m-6.8 1.6h6.7m-6.7 1.8H12" style="fill:none;stroke:#fff;stroke-miterlimit:10;stroke-linejoin:round;stroke-width:.67"/></svg>