<svg xmlns="http://www.w3.org/2000/svg" xml:space="preserve" viewBox="0 0 25 19.2"><path d="M21.4 3.3 25 0H3.6L0 3.3zm.2 15.9V3.3H0v15.9zm3.4-3.3V0l-3.4 3.3v15.9zM0 0" style="fill:none;stroke:#fff;stroke-miterlimit:10"/><path d="M7.8 19.2V3.3" style="fill:none;stroke:#fff;stroke-miterlimit:10;stroke-linejoin:round"/><path d="M14 19.2V3.3m-2.2 1.8H8.2m3.6 3.1H8.2m3.6 2.8H8.2m3.6 3.1H8.2m3.8 3.5H8.2m5-12.5-2 .9.5-.9-.5-.9zm0 3.1-2 .7.5-.7-.5-.9zm0 2.8-2 .9.5-.9-.5-.7zm0 3.1-2 .9.5-.9-.5-.9zm0 3.5-2 .7.5-.7-.5-.9zM.4 7.8h4.7l-.2.5 2.2-1.6-2.2-1.5.2.5H.4zm0 4.3h4.7l-.2.5 2.2-1.5-2.2-1.5.2.5H.4zm13.9-1.8H19v.7l2.2-2L19 7.2V8h-4.7zm0 5.8H19v.7l2.2-2-2.2-2v.7h-4.7zm-13.9.4h4.7l-.2.5 2.2-1.5-2.2-1.4.2.5H.4zM0 0" style="fill:none;stroke:#fff;stroke-miterlimit:10;stroke-linejoin:round;stroke-width:1.33"/></svg>