<svg xmlns="http://www.w3.org/2000/svg" xml:space="preserve" id="图层_1" x="0" y="0" viewBox="0 0 25 12.9"><style>.st0,.st2{fill:none;stroke:#fff;stroke-miterlimit:10}.st2{stroke-linejoin:round;stroke-width:.67;stroke-linecap:round}</style><path d="M0 8.5V3.8h19.4v4.7z" class="st0"/><path d="M19.4 8.5V3.8H0L4.9 0h18.6v4.1zM0 0" class="st0"/><path d="M19.4 3.8 23.5 0M0 0zm5.1 6.7H2v-1h3.1zm4.1 0H6v-1h3.1v1zm4 0h-3.1v-1h3.1zm4.1 0h-3.1v-1h3.1zM0 0" style="fill:none;stroke:#fff;stroke-miterlimit:10;stroke-linejoin:round"/><path d="M24.8 8.5c.2 1-.2 2.1-1.1 3.1-.8 1-2 1.3-3.1 1.3" class="st2"/><path d="M24.3 8.3c.2 1-.2 2-1 2.9-.8.8-2 1.3-2.9 1.1" class="st2"/><path d="M23.9 8.2c.2 1-.2 2-.8 2.8-.8.8-1.8 1.1-2.8 1.1" class="st2"/><path d="M23.5 8.2c0 .8-.2 1.6-.8 2.5-.8.7-1.8 1.1-2.6 1" class="st2"/><path d="M23 8c.2.7-.2 1.6-.8 2.3-.7.7-1.5 1-2.3.8" class="st2"/><path d="M22.5 7.8c.2.7-.2 1.5-.7 2.1-.7.7-1.3.8-2.1.8" class="st2"/><path d="M22.1 7.8c.2.5 0 1.1-.5 1.8-.5.5-1.3.8-2 .7" class="st2"/><path d="M21.7 7.7c0 .5-.2 1.1-.7 1.6-.3.5-1 .7-1.5.7" class="st2"/></svg>