<svg xmlns="http://www.w3.org/2000/svg" xml:space="preserve" id="图层_1" x="0" y="0" viewBox="0 0 25 24.5"><style>.st1{fill:none;stroke:#fff;stroke-miterlimit:10;stroke-linejoin:round}</style><path d="M22.1 2.1H0L2.6 0h22.1zM0 0" style="fill:none;stroke:#fff;stroke-miterlimit:10"/><path d="m25 22.4-2.9 2.1V2.1L25 0zm-2.9 2.1H0V2.1h22.1zM0 0z" class="st1"/><path d="m11.2 12.9-.2.2H7.9l-.2-.2V9.8c0-.2.2-.2.2-.2H11s.2 0 .2.2zm4 0h-2.5v-2.4h2.5zm-5 3.5v.2H7.8v-2.5h2.4zm4.6.7h-2.9V14h2.9zM0 0" class="st1"/><path d="M8.3 6.2H4.1V16h2.1V8.3h2.1zm3.1 0v2.1h5.2V14h2.1V6.2zm5.3 10.7v1.9H4.1V21h14.8v-4.1zM0 0" class="st1"/><path d="M10.7 12.6H7.4V9.3h3.3zm4.1 0h-2.4v-2.4h2.4zM10 16.2H7.6v-2.4H10zm4.5.5v.2h-2.9s-.2 0-.2-.2v-2.6c0-.2.2-.2.2-.2h2.9zM0 0" class="st1"/><path d="M13.3 15v.2H9.7s-.2 0-.2-.2v-3.3l.2-.2h3.6zM0 0" class="st1"/><path d="M13.1 14.8s0 .2-.2.2H9.6c-.2 0-.2-.2-.2-.2v-3.3c0-.2 0-.2.2-.2h3.3c.2 0 .2 0 .2.2zM8.1 6H3.8v9.8h1.9V7.9h2.4zM11 6v1.9h5.5v6h2.1V6zm5.4 10.7v1.9H3.8v1.9h14.8v-3.8zM0 0" class="st1"/></svg>