<svg xmlns="http://www.w3.org/2000/svg" xml:space="preserve" id="图层_1" x="0" y="0" viewBox="0 0 25 16.7"><style>.st0,.st1{fill:none;stroke:#fff;stroke-miterlimit:10}.st1{stroke-linejoin:round}</style><path d="M22.1 16.7V2.9H0v13.8z" class="st0"/><path d="M22.1 2.9H0L3.4 0H25v13.8l-2.9 2.9zM0 0" class="st0"/><path d="M22.1 2.9 25 0M0 0zm3.3 15.4h2.5l2.9-3.1h2.7l2.9 2.9h4.9v-2h-3.8l-2.9-2.9H8.7L6 7.4H3.3v-.3L2 8.2l1.1 1.1v-.4h2.4v1.8H3.3v-.4l-1.1 1.1 1.1 1.1v-.4h2.2v1.8H3.3v-.4l-1.1 1.1 1.1 1.1zM0 0" class="st1"/><path d="M18.7 4h-2.5l-2.9 2.9h-2.7L7.8 4H2.7v2h3.8l2.9 2.9h3.8l2.9 2.9h2.7v.4l1.1-1.1-1.1-1.1v.4h-2.4l.2-1.8h2V9l1.3-1.1-1.1-1.1v.4h-2.2v-2h2v.4l1.3-1.1-1.1-1.1V4zM0 0" class="st1"/></svg>