<svg xmlns="http://www.w3.org/2000/svg" xml:space="preserve" id="图层_1" x="0" y="0" viewBox="0 0 25 9.2"><style>.st1{fill:none;stroke:#fff;stroke-miterlimit:10;stroke-linejoin:round}</style><path d="M19.4 9.2V5.4H0v3.8zM0 0" style="fill:none;stroke:#fff;stroke-miterlimit:10"/><path d="M19 8.8V5.9H.3v2.9zM0 5.4 6.6 0H25l-5.6 5.4z" class="st1"/><path d="M19.4 9.2 25 3.6V0l-5.6 5.4zM0 0zm14.5 5.8c.7.3 1.2.8 1.2 1.4 0 .9-1.2 1.7-2.6 1.7s-2.4-.8-2.4-1.7 1-1.6 2.4-1.6c.6 0 1.1.1 1.4.2m-12.2 2H1.2v-.9h1.2v.9zm7.5 0H8.6v-.9h1.2zm8.7 0h-1.2v-.9h1.2zM0 0" class="st1"/><path d="M15.1 7.2c0 .7-.9 1.3-1.9 1.3s-2-.6-2-1.3.9-1.3 2-1.3c1 0 1.9.6 1.9 1.3zM0 0" class="st1"/></svg>