<svg xmlns="http://www.w3.org/2000/svg" xml:space="preserve" id="图层_1" x="0" y="0" viewBox="0 0 25 22.8"><style>.st1{fill:none;stroke:#fff;stroke-miterlimit:10;stroke-linejoin:round}</style><path d="M3.7 20.2V17h18v3.3h-18zM0 0" style="fill:none;stroke:#fff;stroke-miterlimit:10"/><path d="M25 13.7v3.5l-3.3 3V17H3.5z" class="st1"/><path d="M25 13.7v3.5l-3.3 3V17H3.5m.2-3.3H25M21.7 17l3.3-3.3" class="st1"/><path d="M21.7 16.7V3H3.5v13.7z" class="st1"/><path d="m21.7 16.7 3.3-3V0H6.7L3.5 3h18.3v13.7z" class="st1"/><path d="M20.2 15.2V4.6h-15v10.7h15zM21.7 3 25 0m-4.1 22.8v-2.2H0l2.4-2.4h20.9v2.2z" class="st1"/><path d="M20.9 20.7v2.2H0v-2.2zm0 0 2.4-2.4M12.2 7.8s1.5-.9 2.8-.7l.2.9.9 1.3 3.3-1.7-.9-1.5-1.1-.4s-2.8-.3-6.1 1.3l-.4.2C8 8.9 6.5 11.5 6.5 11.5l-.2 1.1.9 1.5 3.3-1.7-.9-1.3-.4-.7c.4-1.3 2.2-2.2 2.2-2.2zm-2.4 3.1-3.5 2m12.2-6.8L15 8" class="st1"/></svg>