<svg xmlns="http://www.w3.org/2000/svg" xml:space="preserve" id="图层_1" x="0" y="0" viewBox="0 0 25 17.4"><style>.st0{fill:none;stroke:#fff;stroke-miterlimit:10}</style><path d="M0 17.4h21.9V3H0zm25-2.8-3.1 2.9V3L25 0z" class="st0"/><path d="M3.9 0H25l-3.1 3H0zM0 0" class="st0"/><path d="M0 0zm4.4 10.9H1.3v-.6h3.1v-.9l2.1 1.1-2.1 1.1zm12.9-4h-2.1v-.6h2.1v-1l2.1 1.3-2.1 1.1zm1.7 3.5h-3.9v-.5H19V9l2.1 1.1-2.1 1.2zM17.3 14h-2.1v-.6h2.1v-.9l2.1 1.1-2.1 1.4zM0 0" style="fill:none;stroke:#fff;stroke-miterlimit:10;stroke-linejoin:round"/><path d="M13.4 4.1v12.1H7.9V4.1zM0 0" style="fill:none;stroke:#fff;stroke-miterlimit:10;stroke-linejoin:round;stroke-width:.4"/><path d="M9.3 13.4h2.4V15H9.3zm3.3 1.7h.4v.4h-.4zm0-1h.4v.4h-.4zm0-1h.4v.4h-.4zm0-1h.4v.4h-.4zm0-1h.4v.4h-.4zm0-1h.4v.4h-.4zm0-1h.4v.4h-.4zm0-1h.4v.4h-.4zm0-1h.4v.4h-.4zm0-1h.4v.4h-.4zm0-1h.4v.4h-.4zm-4.5 10h.4v.4h-.4zm0-1h.4v.4h-.4zm0-1h.4v.4h-.4zm0-1h.4v.4h-.4zm0-1h.4v.4h-.4zm0-1h.4v.4h-.4zm0-1h.4v.4h-.4zm0-1h.4v.4h-.4zm0-1h.4v.4h-.4zm0-1h.4v.4h-.4zm0-1h.4v.4h-.4zm1.2 5.8h2.4v1.6H9.3zm0-2.8h2.4v1.6H9.3zm0-2.5h2.4v1.6H9.3z" style="fill:none;stroke:#fff;stroke-miterlimit:10;stroke-linejoin:round;stroke-width:.67"/></svg>