<svg xmlns="http://www.w3.org/2000/svg" xml:space="preserve" id="图层_1" x="0" y="0" viewBox="0 0 24.5 25"><style>.st1,.st2,.st3{fill:none;stroke:#fff;stroke-miterlimit:10;stroke-linejoin:round}.st2{stroke-width:1.33}.st3{stroke-width:.67}</style><path d="M20.3 25V4.2H0V25zM0 0" style="fill:none;stroke:#fff;stroke-miterlimit:10"/><path d="M24.5 0v20.8L20.3 25V4.2z" class="st1"/><path d="M20.3 4.2H0L5.2 0h19.3z" class="st1"/><path d="M0 0zm14.2 14.6V21" class="st2"/><path d="M10.4 10.8H17M16.7 9v3.8l2.4-1.9zm-6.3 9.2h7.1m-.8-1.9v3.5l2.4-1.7zM0 0" class="st3"/><path d="M8.5 14.6V8.7" class="st2"/><path d="M12.3 14.9V8.5m-.3 6.1V8.7m1.9 5.9v6.6m1.9-.2h-3.5l1.6 2.1zm-9-6.4v6.6m1.9-.2H5l1.9 2.1zm1.7-2.8H3.8M4 20v-3.5l-2.4 1.6zm6.4-9.2H3.8m.2 1.9V9.2l-2.4 1.6zm6.4 6.2c2.4 0 4.2-1.9 4.2-4.2 0-2.4-1.9-4.5-4.2-4.5s-4.2 2.1-4.2 4.5c-.1 2.3 1.8 4.2 4.2 4.2zm5.9-10.4c.2 0 .2 0 .2-.2V6.2c0-.2 0-.2-.2-.2H4.7c-.2 0-.2 0-.2.2v2.1c0 .2 0 .2.2.2h2.1v-.7h6.8v.7zM0 0" class="st3"/><path d="M8.3 12.5H9v.7h-.7zm0 1.2H9v.7h-.7zm0 1.2H9v.7h-.7zm0 1.1H9v.7h-.7zm1.1-3.5h.7v.7h-.7zm0 1.2h.7v.7h-.7zm0 1.2h.7v.7h-.7zm0 1.1h.7v.7h-.7zm1.2-3.5h.7v.7h-.7zm0 1.2h.7v.7h-.7zm0 1.2h.7v.7h-.7zm0 1.1h.7v.7h-.7zm1.2-3.5h.7v.7h-.7zm0 1.2h.7v.7h-.7zm0 1.2h.7v.7h-.7zm0 1.1h.7v.7h-.7z" style="fill:none;stroke:#fff;stroke-miterlimit:10;stroke-linejoin:round;stroke-width:.33"/></svg>