<svg xmlns="http://www.w3.org/2000/svg" xml:space="preserve" id="图层_1" x="0" y="0" viewBox="0 0 25 8.9"><style>.st1{fill:none;stroke:#fff;stroke-miterlimit:10;stroke-linejoin:round}</style><path d="M16.3 8.5V2.3H8.6v6.2zM0 0" style="fill:none;stroke:#fff;stroke-miterlimit:10"/><path d="M15.6 7.7V3H9.3v4.7zm-7-5.4-.8-.6h9.3l-.8.6zm15.5 6.6V2.8l-7.8-.5v6.2zM0 0" class="st1"/><path d="M23.4 8.2V3.5l-6.3-.4v4.7zm-7.1-5.9.8-.6 7.8.5-.8.6zm7.8 6.6L25 8V2.2l-.9.6zM.8 8.9V2.8l7.8-.5v6.2zM0 0" class="st1"/><path d="M1.5 8.2V3.5l6.3-.4v4.7zm7.1-5.9-.8-.6-7.8.5.8.6zM.8 8.9 0 8V2.2l.8.6zm12.8-6.4V0h-2.1v2.5z" class="st1"/><path d="M13.2 1.5c0 .3-.3.6-.6.6-.4 0-.7-.3-.7-.6 0-.4.3-.7.7-.7.3.1.6.4.6.7zm2.5 1V0h-2.1v2.5z" class="st1"/><path d="M15.3 1.5c0 .3-.3.6-.7.6-.3 0-.6-.3-.6-.6 0-.4.3-.7.6-.7.4.1.7.4.7.7zm-3.9 1V0h-2v2.5z" class="st1"/><path d="M11.1 1.5c0 .3-.3.6-.6.6-.4 0-.7-.3-.7-.6 0-.4.3-.7.7-.7.3.1.6.4.6.7zm2.1 3.8v.9h-1.5v-.9c.7-.5 1.5 0 1.5 0z" class="st1"/><path d="M12.9 4.6c0 .3-.2.5-.5.5-.2 0-.5-.2-.5-.5s.3-.5.5-.5c.3 0 .5.2.5.5zm-.7 1.3v.9h-1.6v-.9c.8-.5 1.6 0 1.6 0zM0 0" class="st1"/><path d="M11.9 5.2c0 .3-.2.5-.5.5s-.4-.2-.4-.5.2-.5.5-.5.4.2.4.5zm2.3.7v.9h-1.5v-.9c.8-.5 1.5 0 1.5 0zM0 0" class="st1"/><path d="M13.9 5.2c0 .3-.2.5-.5.5s-.5-.2-.5-.5.2-.5.5-.5c.4 0 .5.2.5.5zm-2.7 1.2v1.2H9.6V6.4c.9-.4 1.6 0 1.6 0zM0 0" class="st1"/><path d="M11 5.8c0 .3-.3.5-.5.5-.3 0-.5-.2-.5-.5s.2-.5.5-.5c.2 0 .5.2.5.5zm2.3.6v1.2h-1.5V6.4c.7-.4 1.5 0 1.5 0zM0 0" class="st1"/><path d="M13 5.8c0 .3-.2.5-.5.5s-.5-.2-.5-.5.2-.5.5-.5.5.2.5.5zm2.3.6v1.2h-1.5V6.4c.7-.4 1.5 0 1.5 0zM0 0" class="st1"/><path d="M15 5.8c0 .3-.2.5-.5.5s-.5-.2-.5-.5.2-.5.5-.5.5.2.5.5zM3.7 5.7v1l1.8-.1V5.5c-.9-.5-1.8.2-1.8.2zM0 0" class="st1"/><path d="M4.1 4.9c0 .3.2.5.5.5s.6-.3.6-.6-.3-.5-.6-.5-.5.3-.5.6zM2.8 6.3v1.2l1.7-.1V6.1c-.8-.5-1.7.2-1.7.2zM0 0" class="st1"/><path d="M3.1 5.5c0 .3.3.5.6.5s.6-.3.6-.6-.4-.5-.6-.5-.6.3-.6.6zm1.6.6v1.3L6.5 7V5.9c-.8-.4-1.8.2-1.8.2zM0 0" class="st1"/><path d="M5.1 5.3c0 .4.2.6.5.6s.6-.3.6-.6-.3-.6-.6-.5c-.3 0-.5.2-.5.5zM1.8 6.7v1.2l1.7-.1V6.5c-.8-.3-1.7.2-1.7.2zM0 0" class="st1"/><path d="M2.1 6c0 .3.3.5.6.5s.5-.3.5-.6-.2-.5-.5-.5-.6.3-.6.6zm1.7.6v1.3l1.8-.1V6.6c-.8-.5-1.8 0-1.8 0zM0 0" class="st1"/><path d="M4.2 5.9c0 .3.2.5.5.5s.6-.3.6-.6-.3-.5-.6-.5-.5.3-.5.6zm1.7.6v1.2l1.7-.1V6.3c-.9-.4-1.7.2-1.7.2zM0 0" class="st1"/><path d="M6.2 5.8c0 .3.3.5.6.5.2 0 .4-.3.4-.6s-.2-.5-.5-.5-.5.3-.5.6zm15-.1v1l-1.7-.1V5.5c.8-.5 1.7.2 1.7.2zM0 0" class="st1"/><path d="M20.9 4.9c0 .3-.3.5-.6.5s-.6-.3-.6-.6.3-.5.6-.5.6.3.6.6zm1.2 1.4v1.2l-1.7-.3V6.1c.9-.5 1.7.2 1.7.2zM0 0" class="st1"/><path d="M21.8 5.5c0 .3-.3.5-.6.5s-.5-.3-.5-.6.2-.5.5-.5.6.3.6.6zm-1.6.6v1.1L18.4 7V5.9c.9-.4 1.8.2 1.8.2zM0 0" class="st1"/><path d="M19.8 5.3c0 .4-.2.6-.5.6s-.6-.3-.6-.6.3-.6.6-.5c.3 0 .5.2.5.5zm3.4 1.4v1.2l-1.8-.2V6.5c.8-.3 1.8.2 1.8.2zM0 0" class="st1"/><path d="M22.8 6c0 .3-.2.5-.6.5-.3 0-.5-.3-.5-.6s.2-.5.5-.5c.4 0 .6.3.6.6zm-1.7.6v1.2l-1.8-.1V6.5c.9-.4 1.8.1 1.8.1zM0 0" class="st1"/><path d="M20.7 5.9c0 .3-.2.5-.5.5s-.6-.3-.6-.6.3-.5.6-.5.5.3.5.6zm-1.6.5v1.2l-1.8-.1V6.2c.9-.3 1.8.2 1.8.2zM0 0" class="st1"/><path d="M18.7 5.8c0 .3-.2.5-.6.5-.3 0-.5-.3-.5-.6s.2-.5.5-.5c.5 0 .6.3.6.6zM0 0" class="st1"/></svg>