<svg xmlns="http://www.w3.org/2000/svg" xml:space="preserve" id="图层_1" x="0" y="0" viewBox="0 0 25 21.3"><style>.st1{fill:none;stroke:#fff;stroke-miterlimit:10;stroke-linejoin:round}</style><path d="M10.4 1.5 12.7 0H14l-.1 1.2-1.7 1.5zM0 0" style="fill:none;stroke:#fff;stroke-miterlimit:10"/><path d="M1.8 12.4h16.3v8.8H1.8zm16.3 0 5.8-5.5v8.5l-5.8 5.9z" class="st1"/><path d="M21 19.5h-1.2l-.1-8 1-.4.5.5.1 6.8z" class="st1"/><path d="m20.8 11.2.3 8.3 2.2-2.4-.9-7.7z" class="st1"/><path d="M19.4 13.1 11 2.2 13.8 0 25 6.9z" class="st1"/><path d="m20.6 8.5 1.3-1.3-.6-5.1-1.2.5v4.6z" class="st1"/><path d="m18.7 6.7 1.9 1.8-.1-6.2-1-.1z" class="st1"/><path d="m19.5 2.2.9.6.9-.8-1-.3zm-7.7-.7L19.5 13H0L10.4 1.5zm2.4 15.9v-1.7H5.1v1.7zm-2.8-.7h2.3m2.1-.9v-1.5l-1.5 1.5v1.7zM0 0" class="st1"/><path d="M12.7 18.8v-.4l.8-1.2v.8zm0-.3v.4H5.4v-.4zM0 0" class="st1"/><path d="M12.7 18.5H5.4l.8-1.2h7.3zm3.1-4.3H6.7l-1.5 1.5h9.1zM0 0" class="st1"/><path d="M14.1 14.4H7.9l-1 .9h6.2zM0 0" class="st1"/><path d="M6.8 10.3h6.3v4.6H6.8zM0 0" class="st1"/><path d="M7.3 11.3c0-.4.5-.5.5-.5h4.1c.6 0 .5.5.5.5v2.6c0 .4-.4.5-.4.5H7.8c-.4 0-.5-.4-.5-.4zm6.8-1.9H7.8l-1 .9h6.3zM0 0" class="st1"/><path d="M14.1 14V9.4l-1 .9v4.6zM0 0" class="st1"/></svg>