<svg xmlns="http://www.w3.org/2000/svg" xml:space="preserve" id="图层_1" x="0" y="0" viewBox="0 0 25 21.3"><style>.st1{fill:none;stroke:#fff;stroke-miterlimit:10;stroke-linejoin:round}</style><path d="M10.4 1.5 12.7 0H14l-.1 1.2-1.7 1.5zM0 0" style="fill:none;stroke:#fff;stroke-miterlimit:10"/><path d="M1.8 12.4h16.3v8.8H1.8zm16.3 0 5.8-5.5v8.5l-5.8 5.9z" class="st1"/><path d="M21 19.5h-1.2l-.1-8 1-.4.5.5.1 6.8z" class="st1"/><path d="m20.8 11.2.3 8.3 2.2-2.4-.9-7.7z" class="st1"/><path d="M19.4 13.1 11 2.2 13.8 0 25 6.9z" class="st1"/><path d="m20.6 8.5 1.3-1.3-.6-5.1-1.2.5v4.6z" class="st1"/><path d="m18.7 6.7 1.9 1.8-.1-6.2-1-.1z" class="st1"/><path d="m19.5 2.2.9.6.9-.8-1-.3zm-7.7-.7L19.5 13H0L10.4 1.5zm3.6 11.8c0 1-2.3 1.9-5.1 1.9-2.9 0-5.3-.9-5.3-1.9v2.9c0 1 2.3 1.9 5.3 1.9 2.8 0 5.1-.9 5.1-1.9z" class="st1"/><path d="M10.3 15.3c2.8 0 5.1-.9 5.1-1.9 0-1.2-2.3-2.1-5.1-2.1-2.9 0-5.3.9-5.3 2.1 0 1 2.3 1.9 5.3 1.9zM0 0" class="st1"/><path d="m9 12.4.5.6-1.7.4.4-.3-2.6-.4.6-.5 2.4.4zm2.3 1.7-.3-.8 1.4-.3-.3.3 2.4.4-.5.5-2.4-.5zm-.8-1.9 1.7-.5v.8l-.4-.1-.9.6-.8-.1.9-.6h-.5zm-.8 2.4-1.5.4v-.8l.4.1.9-.8.8.1-.9.8zM0 0" class="st1"/></svg>