<svg xmlns="http://www.w3.org/2000/svg" xml:space="preserve" id="图层_1" x="0" y="0" viewBox="0 0 25 23.3"><style>.st0{fill:none;stroke:#fff;stroke-miterlimit:10}</style><path d="M23.1 23.3V1.9H0v21.4zM0 1.9 2.5 0H25l-1.9 1.9z" class="st0"/><path d="M23.1 23.3 25 21V0l-1.9 1.9zM0 0" class="st0"/><path d="M22.9 9.2h-4.4C17 9.2 17 7.6 17 7.6c2.3-5.2-1.9-4.4-1.9-4.4s-4-.8-1.7 4.4c0 0 0 1.5-1.5 1.5H1.4s-1 .2-1.1 1.3M0 15.8h4.4c1.5 0 1.5 1.5 1.5 1.5-2.5 5.2 1.7 4.4 1.7 4.4s4.2.8 1.9-4.4c0 0 0-1.5 1.5-1.5h10.5s.8-.2 1.1-1.3M5.3 11.6l.6 1-2.1.4.4-.4L1 12l.8-.6L5 12zm3.1 2.1-.4-1 2.1-.4-.4.4 3.2.6-.8.6-3.1-.5zm-1-2.4 2.1-.8.2 1h-.5l-1.1 1-1-.2 1-1zm-.9 3.2-2.1.6-.2-1.1.8.1 1.1-1 1 .2-1.3 1zm11.4-1.9 1.5 1.1h.6l.2-.4 1.5.6-1.5.6-.2-.4h-.8L17.6 13 16 14.1h-1v.4l-1.5-.6 1.5-.6v.4h.6l1.5-1.1-1.5-1.1H15v.4l-1.5-.6 1.5-.6v.2h1l1.5 1.3 1.7-1.3h.8l.2-.2 1.5.6-1.5.6-.2-.4h-.6zM0 0" style="fill:none;stroke:#fff;stroke-miterlimit:10;stroke-linejoin:round"/></svg>