<svg xmlns="http://www.w3.org/2000/svg" xml:space="preserve" id="图层_1" x="0" y="0" viewBox="0 0 25 9.9"><style>.st1{fill:none;stroke:#fff;stroke-miterlimit:10;stroke-linejoin:round}</style><path d="M22.3 7.9c0 .2-.1.2-.2.2H2.3c-.2 0-.2-.1-.2-.2l1.1-6.6c0-.1.1-.2.2-.2h19.4c.2 0 .2.1.2.2zM0 0" style="fill:none;stroke:#fff;stroke-miterlimit:10"/><path d="M25 7c0 .1-.2.2-.2.2l-2.7 1c-.1 0-.2-.1-.2-.2l.8-6.6c0-.1.1-.2.2-.2h2c.2 0 .2.1.2.2V7zm-4.6 2h-6.9l1.9-2.5h6.5zm0 .9h-6.9V9h6.9z" class="st1"/><path d="M21.9 6.5v1.6l-1.6 1.8V9zM9 1.2 8 8.1m8.1-7-.7 5.5m6.6-3c0 .4-.4.8-.8.8-.5 0-.8-.4-.8-.8 0-.5.3-.8.8-.8.4 0 .8.3.8.8zM6.6 2.7c0 .4-.4.8-.8.8-.5 0-.8-.4-.8-.8 0-.5.3-.8.8-.8.4 0 .8.3.8.8zm10.7 5.2c-.2.3-.8.6-1.3.6-.6 0-.8-.3-.6-.7.2-.3.8-.6 1.3-.6.6 0 .8.3.6.7zm-5.6-2.5c-.2.7-.7.9-1.5.9-.7 0-1.2-.2-1.1-.9l.3-2.1c.2-.7.7-.9 1.5-.9.7 0 1.2.2 1.1.9zm2.8 0c-.2.7-.7.9-1.5.9-.7 0-1.2-.2-1.1-.9l.3-2.1c.2-.7.7-.9 1.5-.9.7 0 1.2.2 1.1.9zm4.9-.1c-.1.6-.9.7-1.7.7-.9 0-1.5-.2-1.4-.7l.2-1.9c.2-.6.9-.7 1.7-.7.9 0 1.5.1 1.5.7zM0 0zm7.7 4.8h-4l.2-.6h4zm-.2.9h-4l.1-.6h4zm-.2 1h-4l.1-.7h4zm-.2 1h-4l.1-.7h4zm12.9.8h-2.2l.7-1h2.2zM0 0" class="st1"/><path d="M6 2.3C7.6 0 10.8.6 10.8.6" class="st1"/><path d="M11.5.4c0 .2-.3.5-.7.5s-.7-.2-.7-.5.3-.4.7-.4.7.2.7.4zM4.7 3.8 3.8 8m3.4-4.2L6.3 8m-.4-4.2L5 8M2.4 3.5c-.1.5-.4 1.1-.5 1.7l.2.3-.2 1.8-.6-1.1c-.2-.9.7-4.2 1-4.6l.6 1.1-.3 1.2zM.2 6.2l.4 1.1h1.3l-.6-1.1zM0 0" class="st1"/><path d="M2.3 1.6c-.3.4-1.2 3.7-1 4.6H.2C0 5.4.9 2 1.2 1.6zM0 0" class="st1"/></svg>