<svg xmlns="http://www.w3.org/2000/svg" xml:space="preserve" id="图层_1" x="0" y="0" viewBox="0 0 25 24.7"><style>.st1{fill:none;stroke:#fff;stroke-miterlimit:10;stroke-linejoin:round}</style><path d="m25 17.1-2.5 3.7H0l3.7-3.7zM0 0" style="fill:none;stroke:#fff;stroke-miterlimit:10"/><path d="M0 24.7v-4h21.5v4zm0-21h21.3v16.1H0zm21.3 16.1 3.7-3.7V0l-3.7 3.7zm.2 4.9v-4L25 17v4zM0 0" class="st1"/><path d="M3.5 5.4h14.4c1 0 1.7.7 1.7 1.7v9.2c0 .7-.7 1.5-1.7 1.5H3.5c-1 0-1.7-.7-1.7-1.5V7.1c-.1-.9.7-1.7 1.7-1.7zM0 0zm25 0H4.2L0 3.7h21.3zM3.7 22.8c0 .7-.5 1.2-1.2 1.2s-1.2-.5-1.2-1.2.5-1.2 1.2-1.2 1.2.4 1.2 1.2zm16.8 0c0 .7-.7 1.2-1.5 1.2-.5 0-1.2-.5-1.2-1.2s.7-1.2 1.2-1.2c.8-.1 1.5.4 1.5 1.2zM8.4 23c0 .5-.3.7-.5.7-.5 0-.7-.2-.7-.7 0-.2.2-.5.7-.5.3 0 .5.3.5.5zm2.7 0c0 .5-.2.7-.7.7-.2 0-.5-.2-.5-.7 0-.2.2-.5.5-.5.5 0 .7.3.7.5zm2.5 0c0 .5-.3.7-.5.7-.5 0-.7-.2-.7-.7 0-.2.2-.5.7-.5.3 0 .5.3.5.5z" class="st1"/><path d="M7.2 7.2c.2.2.2.2.2.5s0 .7-.2 1.2c0 .2 0 .5-.2.2 0 0-.3-.2-.5-.2 0 0-.2 0-.5.2.3.5.7 1 .5 1.7-.5-.7-1-1.5-1.2-2.2-.2-.5 0-1 .3-1.5.2-.5.7-1 1.5-1 1-.2 1.7-.5 2.7-.5-.9.6-1.9.8-2.6 1.3zM0 0" class="st1"/><path d="M10.4 7.2c-.2.5-.5 1-.7 1.2h-.3v-.5h.2c.5-.5-.2-1-.5-1.7.5 0 1 .5 1.5.5 0 .2-.2.5-.2.5zM8.2 8.4h-.3c-.2-.5.5-.2 1-.5-.2.3-.2.5-.7.5zm1 1h-.3s.3-.3.5-.3v.3zm0 .7h-.7.2c.2 0 .5-.3.7 0zm0 .3c0 .2-.3.2-.3.2s0-.2-.2-.2zm3.9 5.7c0-.3.2-.7.2-1.2 0-.2.3-.7.3-.7-.3-.5-.7-.7-1-.7-1-.5-2-.7-3.2-1.2l.2 2.5-1 3" class="st1"/><path d="m8.7 17.6-2-2.7-.7-2.7c-.2.3-.2.3-.5.5-1.2.5-2.2.7-3.5 1.5 0 2.5 1 1.5.7 4" class="st1"/><path d="m8.4 17.8 1.2-3.2-.2-2.5-.5-.2-.5 1-2-1.5c0 .3-.5.7-.5.7l.7 2.7 2 2.7" class="st1"/><path d="m7.9 17.6.2-4-.2-.2.2-.5.3.3.2-.3.2.3-.2.5.2 3.5zm3.5-4c-.3-.2-.5-.2-.5-.5h.5c-.3-.3-.5-.5-.5-1 .2 0 .2.3.2.3h.3v-.5s.5 0 .5-.2c0-.3-.5-.5-.2-.7.2 0 .5.2.5 0 0-.3-.3-.5-.3-.5 0-.2.3-.2.3-.5.2-.2 0-.5 0-.7.2-.7.7-1.5 1-2.2 1 0 1.2-.7 2.7 0 0 0-.3 0 0 0v.3c.2 0 .5-.3.7 0 0 .2-.3.5-.3.5 0 .3.5.3.5.5.2.2-.2.7-.2 1s.5.3.7.5c0 .2-.3.7 0 1l.5-.5c0 .2 0 .5.3.7 0-.3.2-.3.5-.5v.2c-.2.3-.5.5-1 .7l-.5-.2c0 .2.5.2.3.2v.3c.2.2.5.2.7 0 0 .5-.5.5-.5.7s.2.2.5.2c0 .2-.3.2-.5.5" class="st1"/><path d="M8.7 17.8c.2-1.2.2-2 .2-3.2.7-.5 1.5-.7 2.5-1l3.5-.7 2.7.3c.5.2 1 .2 1.7.2.5 1.5-1 3-.5 4.2l-.3.2" class="st1"/><path d="M16.1 14.6v-.3s-.2 0 0 0v-.2c0 .2.2.2.2.2v-1.2c-.2-.3-.5-.3-.5-.3-.3-.2-.3-1 0-1 .5 0 .5-1.2.7-2 0-.2 0-.2-.3-.7v.3c-.2 0-.2.2-.5 0v-.2c.2 0 .5-.2.5-.2.3-.2 0-.5-.2-.7 0 .2-.2.2-.2.2 0-.2 0-.5-.3-.5-.2.2 0 .7-.5.7v-.5c-.3.2-.5.2-.5.2-.2 0-.2-.2-.2-.2-.3.2 0 .5 0 .7-.3.5-.3 1-.5 1.5v.5h.2c0 .2-.2.2-.2.2v.2c.2.3.2.3.5.3 0 .2-.5.2-.7.2 0 .2.2.5.5.7 0 .2-.2 0-.5 0-.3.2 0 .5 0 .7h-.3c0 .2 0 .5.3.7.2 0 .2.2.2.2h-.2c-.3 0 0 .3 0 .3.5.2 1.2.5 1.7.5.2 0 .5-.2.5-.2 0-.2-.5 0-.3-.2 0-.3.3-.3.3-.3v.5h.2c0-.2.2-.2.2-.5-.1.2.1.4-.1.4zM0 0" class="st1"/><path d="M15.3 9.4v.2c-.2 0-.5 0-.7-.2.2-.3.7-.3 1 0zm.8 1h-.5c.3-.2.3-.2.5-.2zm-.3.5h-.5c.2-.3.7 0 1-.3v.3zm-.5 4c0 .2-.2 0-.2-.2h.2c0-.1.3.2 0 .2zM0 0" class="st1"/><path d="M14.9 14.9h-.2s0-.2.2-.2h.3c-.1.2-.3.2-.3.2zm-.5 0v-.2c-.3 0-.3 0 0-.3l.2.3zm-.3-.3s-.2 0-.2-.3c0 0 .2-.2.2 0zm1.7-3.5h-.3c.3 0 .5-.2.5-.2.1.2.1.2-.2.2zm2.8 6.7H3v-.7h15.6zM0 0" class="st1"/></svg>