<svg xmlns="http://www.w3.org/2000/svg" xml:space="preserve" id="图层_1" x="0" y="0" viewBox="0 0 25 12.2"><style>.st0{fill:none;stroke:#fff;stroke-miterlimit:10}</style><path d="M0 6.1 7.6 0H25l-6.3 6.1z" class="st0"/><path d="M18.7 12.2 25 5.4V0l-6.3 6.1zm0 0v-6H0v6zM0 0" class="st0"/><path d="M9.4 12.2v-6m3.4 4.8 3.3-1.8-3.3-1.8zM7.2 3.1h8.2l-1 1L19 2.9l-1.8-1.3-1 1H7.9zM5.4 8h-4v-.5h3.9v-.8l2.4 1-2.4 1V8zm0 2.7h-4v-.5h3.9v-.8l2.4 1-2.4 1v-.7zM0 0" style="fill:none;stroke:#fff;stroke-miterlimit:10;stroke-width:1.33;stroke-linejoin:round"/></svg>