<svg xmlns="http://www.w3.org/2000/svg" xml:space="preserve" id="图层_1" x="0" y="0" viewBox="0 0 25 9.9"><style>.st0{fill:none;stroke:#fff;stroke-miterlimit:10}</style><path d="M.6 0h23.7v9.3H.6z" class="st0"/><path d="M1.4 2.3h.7v1.5h-.7zm0 2.1h.7v1.5h-.7zm0 2.2h.7v1.5h-.7zm8.4-2.2h2.6v3.9H9.8zm2.6 0H15v3.9h-2.6zM24.6.8l.4.9H0L.4.8z" class="st0"/><path d="M9.1 8.1h6.7v.6H9.1zm-.3.6h7.3v.6H8.8zM3.6 2.3h.7v1.5h-.7zm0 2.1h.7v1.5h-.7zm0 2.2h.7v1.5h-.7zm2.2-4.3h.7v1.5h-.7zm0 2.1h.7v1.5h-.7zm0 2.2h.7v1.5h-.7zM8 2.3h.7v1.5H8zm0 2.1h.7v1.5H8zm0 2.2h.7v1.5H8zm14.9-4.3h.7v1.5h-.7zm0 2.1h.7v1.5h-.7zm0 2.2h.7v1.5h-.7zm-2.2-4.3h.7v1.5h-.7zm0 2.1h.7v1.5h-.7zm0 2.2h.7v1.5h-.7zm-2.2-4.3h.7v1.5h-.7zm0 2.1h.7v1.5h-.7zm0 2.2h.7v1.5h-.7zm-2.2-4.3h.7v1.5h-.7zm0 2.1h.7v1.5h-.7zm0 2.2h.7v1.5h-.7zm-2.1-4.3h.7v1.5h-.7zm-2.1 0h.7v1.5h-.7zm-2 0h.7v1.5h-.7zm.1 2.6h.6v1.2h-.6zm1.1 0h.6v1.2h-.6zm2.8 0h.6v1.2h-.6zm-1 0h.6v1.2h-.6zM8.4 9.3h8v.6h-8z" class="st0"/></svg>