<svg xmlns="http://www.w3.org/2000/svg" xml:space="preserve" id="图层_1" x="0" y="0" viewBox="0 0 18.5 25"><style>.st0,.st1{fill:none;stroke:#fff;stroke-miterlimit:10}.st1{stroke-linejoin:round}</style><path d="M18.5 22.1V0l-3.2 2.9V25z" class="st0"/><path d="m18.5 0-3.2 2.9H0L3.9 0zm-3.2 18.2V2.9H0v15.3zm0 6.8v-6.6H0V25zM0 0" class="st0"/><path d="M6.3 8.8 3.9 6.5l.4-.5-1.5-.3.3 1.5.5-.5L5.9 9zm-.9 1.5H2.2v-.6l-1.2.8 1.2.9v-.6h3.2zm.5 1.7-2.3 2.3-.5-.5-.3 1.5 1.5-.3-.5-.5 2.5-2.3zm1.5.8v3.4h-.6l.9 1.2.8-1.2H8v-3.4zm0-4.5V5.1h-.6l.9-1.2.8 1.2H8v3.2zm1.7 4 2.3 2.3-.3.5 1.4.3-.3-1.5-.3.5L9.4 12zm.9-1.5h3.2v.6l1.2-.9-1.2-.8v.6H10zm-.6-1.7 2.5-2.3.3.5.3-1.5-1.4.2.3.5-2.3 2.3zM0 0" class="st1"/><path d="M9.7 13.4c1.5-1.1 2-3.2.8-4.9-1.1-1.6-3.2-1.9-4.8-.8-1.5 1.1-1.8 3.3-.8 4.8 1.1 1.5 3.3 2 4.8.9zm-1.7 7h.5l-.8-1.2-.9 1.2h.6V23h-.6l.9 1.2.8-1.2H8zm-4.3 0h.5l-.8-1.2-.8 1.2h.5V23h-.5l.8 1.2.8-1.2h-.5zm8.3 0h.6l-.9-1.2-.7 1.2h.6V23H11l.8 1.2.9-1.2H12zM0 0" class="st1"/></svg>