<svg xmlns="http://www.w3.org/2000/svg" xml:space="preserve" id="图层_1" x="0" y="0" viewBox="0 0 25 17.9"><style>.st0,.st1{fill:none;stroke:#fff;stroke-miterlimit:10}.st1{stroke-linejoin:round}</style><path d="M0 17.9h22.5V3.2H0zm25-3.8-2.5 3.8V3.2L25 0z" class="st0"/><path d="M3.8 0H25l-2.5 3.2H0zM0 0" class="st0"/><path d="M0 0zm18.4 10.4h2.5v.6h-2.5v.9l-2.2-1.2 2.2-1.3z" class="st1"/><path d="M19.9 10.9h-2.5v-.6h2.5v-.9l2.2 1.2-2.2 1.3zm-4.6-.3-6.5-3v6zm-9.7.1v.9l2.1-1.2-2.1-1z" class="st1"/><path d="M2.5 10.7h3.4v-.4H2.5v-.9l-1.9 1 1.9 1.2zM6 7.9l-.4.8 2.2.1-1-1.9-.5.6z" class="st1"/><path d="m3.5 6.2 2.8 1.9.3-.4-2.8-2 .5-.7-2.2-.1 1 2.1zM6 13.1l-.4-.6 2.2-.3-1 2.1-.4-.7z" class="st1"/><path d="M3.5 14.9 6.3 13l.3.4-2.8 1.9.5.7-2.2.2 1-1.9zM0 0" class="st1"/></svg>