<svg xmlns="http://www.w3.org/2000/svg" xml:space="preserve" id="图层_1" x="0" y="0" viewBox="0 0 21.1 25"><style>.st1,.st2{fill:none;stroke:#fff;stroke-miterlimit:10;stroke-linejoin:round}.st2{stroke-width:.67}.st2,.st3{stroke-linecap:round}.st3,.st4{fill:none;stroke:#fff;stroke-width:1.33;stroke-linejoin:round;stroke-miterlimit:10}</style><path d="m0 10 4.2-3.2 16.9-1.4-4.3 4.6zM0 0" style="fill:none;stroke:#fff;stroke-miterlimit:10"/><path d="m16.8 25 4.3-4.4v-15L16.8 10zm0 0V10H0v15zM0 4.4 5.6 0h15.6l-4.3 4.4z" class="st1"/><path d="m16.8 10 4.3-4.4V0l-4.3 4.4zm0 0V4.4H0V10z" class="st1"/><path d="M15.7 7.2s-1.1 2.8-2.4 0c-1.4-2.8-2.5 0-2.5 0s-1.1 2.8-2.4 0-2.4 0-2.4 0-1 2.8-2.2 0c-1.4-2.8-2.5 0-2.5 0" class="st3"/><path d="M1.2 7.2s1.1 2.8 2.5 0c1.2-2.8 2.4 0 2.4 0s1.1 2.8 2.4 0c1.4-2.8 2.4 0 2.4 0s1.1 2.8 2.5 0c1.2-2.8 2.4 0 2.4 0" class="st2"/><path d="M15.4 7.2s-1.1 2.8-2.4 0c-1.4-2.8-2.5 0-2.5 0s-1 2.8-2.4 0c-1.2-2.8-2.4 0-2.4 0s-1.1 2.8-2.4 0C1.9 4.4.9 7.2.9 7.2" class="st3"/><path d="M1.1 7.2s1 2.8 2.4 0c1.2-2.8 2.4 0 2.4 0S7 10 8.3 7.2c1.4-2.8 2.5 0 2.5 0s1 2.8 2.4 0c1.2-2.8 2.4 0 2.4 0" class="st3"/><path d="M8.9 15.3v-3.2h.6l-.8-1.2-.8 1.2h.6v3.2zm-1.7.5L5 13.5l.3-.4-1.4-.3.3 1.5.4-.4 2.2 2.2zm-.8 1.4H3.2v-.6l-1.3.8 1.3.8v-.6h3.2zm.4 1.7-2.2 2.2-.4-.3-.3 1.4 1.4-.3-.3-.4 2.2-2.2zm1.5.8v3.2h-.5l.8 1.2.8-1.2h-.5v-3.2zm1.7-.4 2.2 2.2-.4.4 1.5.3-.4-1.4-.3.3-2.4-2.2zm.8-1.5H14v.6l1.1-.8-1.1-.9v.6h-3.2zm-.5-1.7 2.4-2.2.3.4.4-1.5-1.5.3.4.4-2.3 2.3zM0 0" class="st4"/><path d="M10.6 20.3c1.5-1.1 1.8-3.2.8-4.7-1.1-1.5-3.2-1.8-4.7-.8-1.5 1.1-1.8 3.2-.8 4.7s3.1 1.7 4.7.8zM6.2 2.8l1.7-.1-.3.4h-.4l-1.9.7-.6-.2 1.9-.7zm7.6 0-1.5-.3.1.6h.4l1.4.6.6-.1-1.4-.6zm-2.7-1.7h-.8l2.5-.6 1.1.7H13l-1.4.8H9.7l1.5-1h-.1zM9.6 3.2H9l1.4-.7.1.7h-.6.1l-.7.7h-.5l.7-.7zM0 0" class="st4"/><path d="m6.1 2.6 1.8-.1-.3.6-.5-.2-2 .9-.4-.2 1.8-.7zm7.7 0-1.5-.1.1.6.4-.1 1.4.7.4-.1-1.4-.6zM11 1.1h-.7l2.5-.6 1.1.7H13l-1.4.8H9.7zM9.4 3.2h-.5l1.4-.8.1.8h-.5l-.7.7h-.4zM0 0" class="st4"/></svg>