<svg xmlns="http://www.w3.org/2000/svg" xml:space="preserve" id="图层_1" x="0" y="0" viewBox="0 0 25 16.8"><style>.st0,.st1{fill:none;stroke:#fff;stroke-miterlimit:10}.st1{stroke-linejoin:round}</style><path d="M25 4.9c0 2.6-5.6 4.8-12.4 4.8C5.6 9.7 0 7.5 0 4.9v7c0 2.7 5.6 4.9 12.6 4.9 6.8 0 12.4-2.2 12.4-4.9z" class="st0"/><path d="M12.6 9.7C19.4 9.7 25 7.5 25 4.9 25 2.2 19.4 0 12.6 0 5.6 0 0 2.2 0 4.9c0 2.6 5.6 4.8 12.6 4.8zM0 0" class="st0"/><path d="m9.7 2.9 1 1.5-3.9 1 .9-.7-6.1-1 1.5-1.2 6 1zm5.4 3.7-.7-1.5 3.6-.7-.7.5 6 1-1.5 1.2L16 5.9zM13.3 2l3.9-1v1.7l-1-.2L14.3 4l-1.9-.2 2-1.5zm-1.7 6.2-3.8.6-.1-1.7 1 .2 2-1.7 1.9.3-2.2 1.9zm6.6 5.1c0 1.5-2.4 2.9-5.4 2.9s-5.4-1.4-5.4-2.9 2.4-2.7 5.4-2.7 5.4 1.1 5.4 2.7zM0 0z" class="st1"/><path d="m9.4 13.8 1.7-1.7-.9-.8 2.6-.2-.2 2.6-.9-.8-1.7 1.6zm3 1.3 1.7-1.7-.9-.9 2.6-.2-.2 2.7-.9-.9-1.7 1.7zM0 0" class="st1"/></svg>