<svg xmlns="http://www.w3.org/2000/svg" xml:space="preserve" id="图层_1" x="0" y="0" viewBox="0 0 25 17"><style>.st0{fill:none;stroke:#fff;stroke-miterlimit:10}</style><path d="M25 4.9c0 2.7-5.6 4.9-12.4 4.9C5.6 9.9 0 7.7 0 4.9V12c0 2.8 5.6 5 12.6 5 6.8 0 12.4-2.2 12.4-4.9z" class="st0"/><path d="M12.6 9.9c6.8 0 12.4-2.2 12.4-5C25 2.2 19.4 0 12.6 0 5.6 0 0 2.2 0 4.9c0 2.8 5.6 5 12.6 5zM0 0" class="st0"/><path d="m9.7 3.1 1 1.5-3.9.8.9-.7-6-1 1.5-1.2 5.8 1zm5.4 3.7-.7-1.5 3.6-.9-.7.7 5.9 1-1.4 1-6-1zm-1.8-4.6 3.9-1 .2 1.5-1-.2-2 1.7-1.7-.3 1.9-1.5zm-1.7 6.1L7.8 9l-.1-1.9 1.2.3 2-1.9 1.7.5-2.2 2zm1.2 4.8 2.2 1.7h.9v-.5l2.4.9-2.5.8v-.5h-1.2L12 13.6l-2.4 1.9H8.5v.5l-2.4-.8 2.4-.9v.5h.9l2.2-1.7-2.2-1.7h-.9v.5l-2.4-.8 2.4-.9v.5h1.2l2.4 1.9 2.6-1.9h1.2v-.5l2.4.9-2.4.8v-.5H15zM0 0" style="fill:none;stroke:#fff;stroke-miterlimit:10;stroke-linejoin:round"/></svg>