<svg xmlns="http://www.w3.org/2000/svg" xml:space="preserve" id="图层_1" x="0" y="0" viewBox="0 0 24.1 25"><style>.st0{fill:none;stroke:#fff;stroke-miterlimit:10}</style><path d="M0 25V2.9L5.6 0l5.6 2.9V25zm12.9 0V2.9L18.5 0l5.6 2.9V25zM0 0" class="st0"/><path d="M8.2 4.4H10v1.2H8.2zm0 2.2H10v1.2H8.2zm0 2.2H10V10H8.2zm0 2.2H10v1.2H8.2zm0 2.2H10v1.2H8.2zm0 2.2H10v1.2H8.2zm0 2.2H10v1.2H8.2zm0 2.3H10V21H8.2zM4.7 4.4h1.8v1.2H4.7zm0 2.2h1.8v1.2H4.7zm0 2.2h1.8V10H4.7zm0 2.2h1.8v1.2H4.7zm0 2.2h1.8v1.2H4.7zm0 2.2h1.8v1.2H4.7zm0 2.2h1.8v1.2H4.7zm0 2.3h1.8V21H4.7zM1.2 4.4H3v1.2H1.2zm0 2.2H3v1.2H1.2zm0 2.2H3V10H1.2zm0 2.2H3v1.2H1.2zm0 2.2H3v1.2H1.2zm0 2.2H3v1.2H1.2zm0 2.2H3v1.2H1.2zm0 2.3H3V21H1.2zm3.5 2.2h1.8v2.6H4.7zm-3.5 0H3v1.2H1.2zm7 0H10v1.2H8.2zm13-17.7H23v1.2h-1.8zm0 2.2H23v1.2h-1.8zm0 2.2H23V10h-1.8zm0 2.2H23v1.2h-1.8zm0 2.2H23v1.2h-1.8zm0 2.2H23v1.2h-1.8zm0 2.2H23v1.2h-1.8zm0 2.3H23V21h-1.8zM17.6 4.4h1.8v1.2h-1.8zm0 2.2h1.8v1.2h-1.8zm0 2.2h1.8V10h-1.8zm0 2.2h1.8v1.2h-1.8zm0 2.2h1.8v1.2h-1.8zm0 2.2h1.8v1.2h-1.8zm0 2.2h1.8v1.2h-1.8zm0 2.3h1.8V21h-1.8zM14.1 4.4h1.8v1.2h-1.8zm0 2.2h1.8v1.2h-1.8zm0 2.2h1.8V10h-1.8zm0 2.2h1.8v1.2h-1.8zm0 2.2h1.8v1.2h-1.8zm0 2.2h1.8v1.2h-1.8zm0 2.2h1.8v1.2h-1.8zm0 2.3h1.8V21h-1.8zm3.5 2.2h1.8v2.6h-1.8zm-3.5 0h1.8v1.2h-1.8zm7.1 0H23v1.2h-1.8z" class="st0"/></svg>