<svg xmlns="http://www.w3.org/2000/svg" xml:space="preserve" id="图层_1" x="0" y="0" viewBox="0 0 25 25"><style>.st0{fill:none;stroke:#fff;stroke-miterlimit:10}</style><path d="M5 23.5c-.6 0-1-.4-1-1V11.6L0 9v-.8l4 2.2v-3L1.2 5.8V5L4 6.5v-2h4.2l1 .6h2V1.5l5-1.5v2.8L21 1V.5h3.2v.8l.8.7v20.5c0 .6-.4 1-1 1zm1.2.7c0 .4-.3.8-.7.8s-.8-.3-.8-.7.3-.8.7-.8c.5 0 .8.3.8.7m5-.7V5.1m0 1.1-2-1.1m2 1.1h9.2m-9.2 7.3H25M11.2 16H25m-9.2-2.5V16m-4.6 2.5H25M11.2 21H25" class="st0"/><path d="M20.5 7.2v-3H25m-13.8 3H25m-21-1v6.2m9.2-8.6h6v1.8h-6zm3.3 18H19v.8h-2.5zm0-2.6H19v.8h-2.5zm0-2.4H19v.8h-2.5zm0-2.6H19v.8h-2.5z" class="st0"/><path d="M13.8 4.2h3V5h-3z" class="st0"/></svg>