<svg xmlns="http://www.w3.org/2000/svg" xml:space="preserve" id="图层_1" x="0" y="0" viewBox="0 0 21.8 25"><style>.st0{fill:none;stroke:#fff;stroke-miterlimit:10}</style><path d="m0 0 15 5v20L0 30zm19.5 13.5h2v1.8h-2z" class="st0"/><path d="M20 13.8h.2v.8H20zm.8 0h.2v.8h-.2zM.1 0l13.3 23.1v.1l.3.7c0 .1 0 .1-.1.2L9 46.8c0 .1-.1.1-.1.1-.1 0-.1-.1-.1-.1V23.1c0-.1.1-.1.1-.1zM0 0zm8.8 4.8V3.5h-.3l-.3-.7H8V1.5c0-.3.2-.5.5-.5h11c.3 0 .5.2.5.5V11h-.2l-.2.5h-.2v1.8h2.5v-1.8h-.2l-.5-.5H21V1.5c0-.8-.7-1.5-1.5-1.5h-11C7.7 0 7 .7 7 1.5v1.2h-.2l-.3.8h-.3v1.2h2.6zM0 0" class="st0"/></svg>