<svg xmlns="http://www.w3.org/2000/svg" xml:space="preserve" id="图层_1" x="0" y="0" viewBox="0 0 20.4 25"><style>.st0,.st1,.st2{fill:none;stroke:#fff;stroke-miterlimit:10}.st1,.st2{stroke-width:.67}.st2{stroke-linejoin:round}</style><path d="M9 10.7h2.9v3.9s-3.1 1-2.9 1zM0 0z" class="st0"/><path d="M10.3 11c5.7 0 10.2-4.3 10.2-5.3s-4.6-1.9-10.3-1.9C4.6 3.8 0 4.7 0 5.7 0 6.8 4.6 11 10.3 11zM0 0" class="st0"/><path d="M10.2 7.6c5.7 0 10.3-.9 10.3-2 0-1-4.6-1.9-10.3-1.9-5.6.1-10.2 1-10.2 2 0 1.1 4.6 1.9 10.2 1.9z" class="st1"/><path d="M7.5 4.3c-1.6.1-3 .3-4.1.5m4.2-.1c-1.5.1-2.9.3-3.9.5m4.1-.1c-1.6.1-2.9.4-3.9.7M8 5.7c-1.4.1-2.8.3-3.6.6m3.7-.2c-1.4.1-2.6.5-3.4.8m3.6-.2c-1.1.1-2.1.3-2.7.6m2.8-.1c-.5 0-.9.1-1.3.2" class="st1"/><path d="M0 5.9 10.3.8l10.2 4.9" class="st1"/><path d="M10.3 2.1c.4 0 .7-.1.7-.4s-.3-.3-.8-.3c-.3 0-.7.1-.7.3s.4.4.8.4zM0 0" class="st1"/><path d="M10.3 0 10 7.2h.5zm2.4 13.4v-2H7.8v2zM0 0" class="st1"/><path d="M9.9 12.8H8.4v-.4h1.5zm2.1 0h-1.5v-.4H12zM0 0" class="st1"/><path d="M18.2 17.2c0 1.7-3.6 3.2-8.1 3.2-4.4 0-8-1.4-8-3.2v4.6c0 1.7 3.6 3.2 8 3.2 4.5 0 8.1-1.4 8.1-3.2z" class="st2"/><path d="M10.2 20.4c4.5 0 8.1-1.4 8.1-3.2 0-1.7-3.6-3.1-8.1-3.1-4.4 0-8 1.3-8 3.1s3.6 3.2 8 3.2zM0 0" class="st2"/><path d="m8.4 16 .7 1-2.5.5.5-.4-3.9-.7 1-.8 3.7.7zm3.5 2.4-.4-1 2.3-.4-.4.3 3.6.7-.9.7-3.7-.7zm-1.2-2.9 2.5-.7v1.1l-.7-.2-1.2 1.1-1.2-.2 1.3-1zm-1.1 3.9-2.4.4-.1-1.1.7.1 1.3-1.1 1.2.1-1.4 1.3zM0 0" class="st2"/></svg>