<svg xmlns="http://www.w3.org/2000/svg" xml:space="preserve" id="图层_1" x="0" y="0" viewBox="0 0 25 16.8"><style>.st0{fill:none;stroke:#fff;stroke-miterlimit:10}</style><path d="M25 4.9c0 2.7-5.6 4.8-12.4 4.8-7 0-12.6-2-12.6-4.8V12c0 2.6 5.6 4.8 12.6 4.8 6.8 0 12.4-2.2 12.4-4.8z" class="st0"/><path d="M12.6 9.7c6.8 0 12.4-2 12.4-4.8C25 2.2 19.4 0 12.6 0 5.6 0 0 2.2 0 4.9c0 2.8 5.6 4.8 12.6 4.8zM0 0" class="st0"/><path d="m9.7 3.1 1 1.5-3.9.8.9-.7-6-1 1.4-1.2 5.9 1zm5.4 3.7-.7-1.7 3.6-.7-.7.5 5.9 1-1.5 1.2L16 6zm-1.8-4.6L17.2 1v1.7l-.8-.2-2 1.5-1.9-.2 2-1.5zm-1.7 6-3.8.6-.1-1.7 1 .3 2.2-1.9 1.7.5-2.2 1.9zM0 0" style="stroke:#fff;stroke-miterlimit:10;fill:none;stroke-linejoin:round"/><text style="stroke:#fff;stroke-miterlimit:10;fill:#222;font-family:&quot;ArialMT&quot;;font-size:5.6122px" transform="translate(8.588 12.245)">IAD</text></svg>