<svg xmlns="http://www.w3.org/2000/svg" xml:space="preserve" id="图层_1" x="0" y="0" viewBox="0 0 25 18.7"><style>.st0{fill:none;stroke:#fff;stroke-miterlimit:10}.st2{stroke-width:.4}.st2,.st3{fill:none;stroke:#fff;stroke-linecap:round;stroke-linejoin:round;stroke-miterlimit:10}</style><path d="M0 0zm18.9 12.2V6H0v6.2zM0 6l7.6-6H25l-6.1 6z" class="st0"/><path d="M18.9 12.3 25 5.9V0l-6.1 6zM0 0" class="st0"/><path d="M18.9 18.7V12H0v6.7zm0 0 6.1-6.4V5.9L18.9 12zM13.5 2.6l1.2.3 3.1-.9 1.2.2-.5-.8h-3.8l1.7.3zm-6.6-.9 1-.3 3.3.8 1-.3-.5.9H8l1.8-.3zm11.8 2.9-1.2.3-2.9-.8-1.4.3.5-.9h3.8l-1.4.3zM12 3.7l-1.2-.3-2.8.9-1.5-.2.7.8 3.7.1-1.7-.4zM0 0" style="fill:none;stroke:#fff;stroke-miterlimit:10;stroke-linejoin:round"/><path d="M9.6 11.3c1.2 0 2.2-.3 2.2-.7s-1-.7-2.2-.7c-1.3 0-2.4.3-2.4.7s1 .7 2.4.7" class="st2"/><path d="M11.8 7.3c0 .4-1 .8-2.2.8-1.3 0-2.4-.4-2.4-.8v2.9c0 .4 1 .8 2.4.8 1.2 0 2.2-.4 2.2-.8z" class="st2"/><path d="M9.6 8.1c1.2 0 2.2-.4 2.2-.8s-1-.7-2.2-.7c-1.3 0-2.4.3-2.4.7s1 .8 2.4.8m-2.3 7.1H3.8v-.4l-1.3.5 1.3.5v-.4h3.5zm2 .9v1.3h-.9l1.3.5 1.3-.5h-.9v-1.3zm0-1.6v-1.3h-.9l1.3-.4 1.3.4h-.9v1.3zm2.7.9h3.5v.4l1.3-.5-1.3-.5v.4H12zM0 0" class="st2"/><path d="M15.3 17.3c-.7.3-3.7-.4-6.8-1.4-3-1.2-5-2.2-4.3-2.5s3.7.5 6.8 1.6c3 1 5 2 4.3 2.3" class="st3"/><path d="M15.2 13.4c.7.3-1.3 1.3-4.3 2.4-3 1.2-6 1.8-6.8 1.6-.7-.4 1.3-1.4 4.3-2.5 3-1 6-1.8 6.8-1.5M0 0" class="st3"/><path d="M11.1 16c1.2-.3 1.4-.8.7-1.2-.8-.4-2.5-.5-3.5-.3-1.2.3-1.4.9-.7 1.3.8.4 2.3.6 3.5.2M0 0" class="st3"/></svg>