<svg xmlns="http://www.w3.org/2000/svg" xml:space="preserve" id="图层_1" x="0" y="0" viewBox="0 0 25 7.2"><style>.st0{fill:none;stroke:#fff;stroke-miterlimit:10}</style><path d="M.1 0H25v6.3L.1 7.3H0L.1 0q-.15 0 0 0z" class="st0"/><path d="M2.5 6.2h20v1h-20zM.8 1.8h1.5v.8h-.5v.2h-.6v-.3H.8zm18.4 1.3c0 .3-.2.5-.5.5s-.5-.2-.5-.5.2-.5.5-.5.5.2.5.5M2.9 1.8h1.5v.8h-.5v.2h-.5v-.3h-.5zm2.1 0h1.5v.8H6v.2h-.5v-.3H5zm2.1 0h1.5v.8h-.5v.2h-.5v-.3h-.5zm2.1 0h1.5v.8h-.5v.2h-.4v-.3h-.6zm2.2 0h1.5v.8h-.5v.2h-.5v-.3h-.5zm2.1 0H15v.8h-.5v.2H14v-.3h-.5zm2.1 0h1.5v.8h-.5v.2h-.5v-.3h-.5zm6.4 0v2.8m-.5-2.4.5-.4.5.5M22 3.8l-1.2-1.2M22 3.8l1.2-1.2m-2.4.5v-.6h.6m1.2 0h.6v.6" class="st0"/></svg>