<svg xmlns="http://www.w3.org/2000/svg" xml:space="preserve" id="图层_1" x="0" y="0" viewBox="0 0 25 16.9"><style>.st0,.st1{fill:none;stroke:#fff;stroke-miterlimit:10}.st1{stroke-width:.67;stroke-linejoin:round}</style><path d="M25 4.9c0 2.7-5.6 4.9-12.5 4.9S0 7.6 0 4.9V12c0 2.7 5.6 4.9 12.5 4.9S25 14.7 25 12z" class="st0"/><path d="M12.5 9.8C19.4 9.8 25 7.6 25 4.9S19.4 0 12.5 0 0 2.2 0 4.9s5.6 4.9 12.5 4.9zM0 0" class="st0"/><path d="M0 0zm9.6 3 1 1.5-3.8.9.8-.7-5.9-1 1.5-1.2 5.7 1zm5.6 3.8-.8-1.5 3.5-.8-.5.7 5.7 1-1.3 1-5.9-1zm-2-4.6 3.9-1 .2 1.5-1-.2-1.9 1.7-1.9-.3 1.9-1.5zm-1.7 6.1L7.8 9l-.2-1.9 1.2.3 2-1.9 1.9.3-2.2 2zM7.8 11v.7l-1.4-.8 1.4-.9v.7h2.4V10l1.3.8-1.3.8V11zm0 4.4v.7l-1.4-.8 1.4-.8v.5h2.4v-.7l1.3.8-1.3.8v-.7H7.8zm0-2.1v.5L6.4 13l1.4-.7v.5h1.7v-.5l1.4.7-1.4.8v-.7H7.8zm10.8 1.6c-.2-.2-.3-.8-.3-1.7 0-.7.2-1.5.3-1.5h-1.7c-.3 0-.5.7-.5 1.5s.2 1.5.5 1.5zM0 0" class="st1"/><path d="M18.2 13.2c0 .8.2 1.5.3 1.5.3 0 .5-.7.5-1.5 0-.7-.2-1.4-.5-1.4-.1 0-.3.7-.3 1.4zm-1 0c0 1.7-1.4 3-3 3-1.7-.2-3-1.5-2.9-3 0-1.7 1.4-3 2.9-3 1.7-.1 3 1.3 3 3zM0 0" class="st1"/><path d="M15.7 13.2c0 .8-.7 1.5-1.5 1.5-.7 0-1.4-.7-1.4-1.5s.7-1.5 1.5-1.5c.7 0 1.4.6 1.4 1.5zM0 0" class="st1"/></svg>