<svg xmlns="http://www.w3.org/2000/svg" xml:space="preserve" id="图层_1" x="0" y="0" viewBox="0 0 25 21.9"><style>.st2{fill:none;stroke:#fff;stroke-miterlimit:10;stroke-linejoin:round;stroke-width:.67}</style><path d="M25 4.7V17l-6 4.9H6.3L0 17V4.7zM0 0" style="fill:none;stroke:#fff;stroke-miterlimit:10"/><path d="M18.8 0H6.5L0 4.7l6.3 4.9H19l6-4.9zM6.2 21.7V9.6" style="fill:none;stroke:#fff;stroke-miterlimit:10;stroke-linejoin:round"/><path d="M19 21.7V9.6m-.5-4.9h-12m0-3.1h2.7L15.8 8h2.7" class="st2"/><path d="M18.5 1.6h-2.7L9.2 8H6.5m6-6.4V8m1.1 8.7h-2.4v-2.2h2.4zM0 0" class="st2"/><path d="M16.3 15.4H13m5.1 0L15 16.7l.7-1.3-.7-1.3zm-9.4 0h2.7M10 14.1l-.7 1.3.7 1.3-3.1-1.3zm2.5-2.1v3.3m0-5 1.3 3.1-1.3-.7-1.3.7zm0 9.1v-3.1m-1.3 1.8 1.3.7 1.1-.7-1.1 3.1zM0 0" style="fill:none;stroke:#fff;stroke-miterlimit:10;stroke-linejoin:round;stroke-width:1.33"/></svg>