<svg xmlns="http://www.w3.org/2000/svg" xml:space="preserve" id="图层_1" x="0" y="0" viewBox="0 0 25 8.3"><style>.st0{fill:none;stroke:#fff;stroke-miterlimit:10}</style><path d="M1.1 3.6 6.9 0H18l5.8 3.6z" class="st0"/><path d="m0 0 25 4.2v4.1L0 12.5z" class="st0"/><path d="M1.1 5h1.1v.6H1.1zm2 0h1.1v.6H3.1zM5 5h1.1v.6H5zm1.9 0H8v.6H6.9zm2 0H10v.6H8.9zm1.9 0h1.1v.6h-1.1zm2 0h1.1v.6h-1.1zm1.9 0h1.1v.6h-1.1zM1.1 6.4h1.1V7H1.1zm2 0h1.1V7H3.1zm1.9 0h1.1V7H5zm1.9 0H8V7H6.9zm2 0H10V7H8.9zm1.9 0h1.1V7h-1.1zm2 0h1.1V7h-1.1zm1.9 0h1.1V7h-1.1zm2-1.4h1.1v.6h-1.1zm0 1.4h1.1V7h-1.1zM18.6 5h1.1v.6h-1.1zm0 1.4h1.1V7h-1.1zm2-1.4h1.1v.6h-1.1zm0 1.4h1.1V7h-1.1zM22.5 5h1.1v.6h-1.1zm0 1.4h1.1V7h-1.1z" class="st0"/></svg>