<svg xmlns="http://www.w3.org/2000/svg" xml:space="preserve" id="图层_1" x="0" y="0" viewBox="0 0 24.1 25"><style>.st0{fill:none;stroke:#fff;stroke-miterlimit:10}</style><path d="m0 0 21 19.9v3.4L.1 44.8V0z" class="st0"/><path d="m0 0 21 15.8v3.4L.1 40.7V0z" class="st0"/><path d="m0 0 21 11.7v3.4L.1 36.6V0z" class="st0"/><path d="m0 0 21 7.6V11L.1 32.5V0z" class="st0"/><path d="m0 0 21 3.5V7L.1 28.4V0z" class="st0"/><path d="m.9 3 4.9-3h9.3L20 3zm19.2 2.3c0 .5-.4.9-.9.9s-.9-.4-.9-.9.4-.9.9-.9c.5-.1.9.3.9.9M1.2 22.9l1.2-2.6h1.2l-1.2 2.6zm2.3 0 1.2-2.6h1.2l-1.2 2.6zm2.3 0L7 20.3h1.2L7 22.9zm2.4 0 1.2-2.6h1.2l-1.2 2.6zm2.3 0 1.2-2.6h1.2l-1.2 2.6zm2.4 0 1.2-2.6h1.2L14 22.9zM1.2 18.8l1.2-2.6h1.2l-1.2 2.6zm2.3 0 1.2-2.6h1.2l-1.2 2.6zm2.3 0L7 16.2h1.2L7 18.8zm2.4 0 1.2-2.6h1.2l-1.2 2.6zm2.3 0 1.2-2.6h1.2l-1.2 2.6zm2.4 0 1.2-2.6h1.2L14 18.8zM1.2 14.7l1.2-2.6h1.2l-1.2 2.6zm2.3 0 1.2-2.6h1.2l-1.2 2.6zm2.3 0 1.1-2.6h1.2l-1.2 2.6zm2.4 0 1.2-2.6h1.2l-1.2 2.6zm2.3 0 1.2-2.6h1.2l-1.2 2.6zm2.4 0 1.2-2.6h1.2L14 14.7zM1.2 10.6 2.4 8h1.2l-1.2 2.6zm2.3 0L4.7 8h1.2l-1.2 2.6zm2.3 0L7 8.1h1.2L7 10.6zm2.4 0L9.4 8h1.2l-1.2 2.6zm2.3 0L11.7 8h1.2l-1.2 2.6zm2.4 0L14 8.1h1.2L14 10.6zM1.2 6.5 2.3 4h1.2L2.3 6.5zm2.3 0L4.7 4h1.2L4.7 6.5zm2.3 0L7 4h1.2L7 6.5zm2.4 0L9.3 4h1.2L9.3 6.5zm2.3 0L11.7 4h1.2l-1.2 2.6h-1.2zm2.4 0L14 4h1.2L14 6.5zM0 0zm17.2 18.7h5.4v4.2h-5.4z" class="st0"/><path d="M17.8 19.3H22v3.2h-4.2z" class="st0"/></svg>