<svg xmlns="http://www.w3.org/2000/svg" xml:space="preserve" id="图层_1" x="0" y="0" viewBox="0 0 12.5 25"><style>.st0{fill:none;stroke:#fff;stroke-miterlimit:10}</style><path d="M0 0h12.5v25H0z" class="st0"/><path d="M.8.8h11v23.5H.8zM.8 3h11M.8 5.2h11M.8 7.5h11M.8 9.8h11M.8 12h11m-11 4.5h11m-11 2.3h11m-11 4.4h11" class="st0"/><path d="M1.8 1.5h.8V2h-.8zm1.2 0h.8V2H3zm1.2 0H5V2h-.8zM1.8 3.8h.8v.5h-.8zm1.2 0h.8v.5H3zm1.2 0H5v.5h-.8zM1.8 6h.8v.5h-.8zM3 6h.8v.5H3zm1.2 0H5v.5h-.8zM1.8 8.2h.8v.5h-.8zm1.2 0h.8v.5H3zm1.2 0H5v.5h-.8zm-2.4 2.3h.8v.5h-.8zm1.2 0h.8v.5H3zm1.2 0H5v.5h-.8zm-2.4 2.3h.8v3h-.8zm1.2 0h.8v3H3zm1.2 0H5v3h-.8zm-2.4 4.4h.8v.5h-.8zm1.2 0h.8v.5H3zm1.2 0H5v.5h-.8zm-2.4 2.3h.8v3h-.8zm1.2 0h.8v3H3zm1.2 0H5v3h-.8zm1.3-6.7h.8v3h-.8zm1.3 0h.8v3h-.8zm-1.3 6.7h.8v3h-.8zm1.3 0h.8v3h-.8z" class="st0"/></svg>