<svg xmlns="http://www.w3.org/2000/svg" xml:space="preserve" id="图层_1" x="0" y="0" viewBox="0 0 9.1 25"><style>.st1{fill:none;stroke:#fff;stroke-miterlimit:10;stroke-linejoin:round}</style><path d="M2.2 13.3V1.4" style="fill:none;stroke:#fff;stroke-miterlimit:10"/><path d="M5.5 13.3V1.4M0 25l2.2-11.8h3.3l2 11.8" class="st1"/><path d="m0 25 6.8-3.4-5.5-3.2 4.6-2.9-3.7-2.2 3.3-4.1-3.3-2.5 3.3-2.9-3.3-2.2" class="st1"/><path d="M7.5 25 .7 21.6l5.7-3.2-4.5-2.9 3.7-2.2-3.2-4.1 3.2-2.5-3.4-2.9 3.3-2.2m-.1-.2h-3L3.2 0h1.4zm1.4.4.3-.4h.1v1.7h1.2l.1.1h.1l.1-.1c.2-.1.4.3.4.3v.1s-.2.3-.3.3l-.1-.2h-.1l-.2.1H7.2v1.8h-.1l-.3-.4z" class="st1"/><path d="M6.8 5.1h-.7c-.3-.4-.3-1-.3-1h-.5V3h.5s0-.8.3-1.1h.7zm0 2.1.3-.4h.1v1.8h1.4l.1-.1c.1 0 .3.3.3.3v.1s-.1.4-.2.3l-.1-.1h-.1l-.2.1H7.2v1.7h-.1l-.3-.4zm0 3.3h-.7c-.3-.3-.3-1.1-.3-1.1h-.5V8.3h.5s0-.7.3-1h.7zM0 0" class="st1"/></svg>