<svg xmlns="http://www.w3.org/2000/svg" xml:space="preserve" id="图层_1" x="0" y="0" viewBox="0 0 13.5 25"><style>.st1{fill:none;stroke:#fff;stroke-miterlimit:10;stroke-linejoin:round}</style><path d="M1.2 25 6.7 4.1 12.3 25" class="st1"/><path d="m12.1 23.6-9.4-4.2 7.3-2.8-5.7-2.8 4.2-2.7-2.9-2.3M0 0zm7.8 4.6c0 .6-.5 1-1 1s-1-.5-1-1c0-.6.5-1 1-1s1 .5 1 1m.7-1.7.4-.4c1.2 1.2 1.2 3.1 0 4.3l-.4-.5c.9-.9.9-2.4 0-3.4z" class="st1"/><path d="m9.7 1.6.4-.4c1.8 1.9 1.8 4.8 0 6.7l-.4-.3c1.6-1.6 1.6-4.3 0-6z" class="st1"/><path d="m11 .4.4-.4c1.4 1.2 2.1 2.8 2.1 4.6s-.8 3.5-2.1 4.6l-.4-.3c1.3-1 2-2.6 2-4.3s-.7-3.2-2-4.2zM5 2.9l-.3-.4c-1.2 1.2-1.2 3.1 0 4.3l.3-.5c-.9-.9-.9-2.4 0-3.4z" class="st1"/><path d="m3.8 1.6-.4-.3C1.6 3.2 1.6 6.1 3.4 8l.4-.4c-1.6-1.6-1.6-4.3 0-6z" class="st1"/><path d="M2.5.4 2.1 0C.8 1.2 0 2.8 0 4.6s.8 3.5 2.1 4.6l.4-.4c-1.3-1-2-2.6-2-4.3s.7-3.1 2-4.1zM0 0" class="st1"/></svg>