<svg xmlns="http://www.w3.org/2000/svg" xml:space="preserve" id="图层_1" x="0" y="0" viewBox="0 0 16.5 25"><style>.st1,.st2{fill:none;stroke:#fff;stroke-miterlimit:10;stroke-linejoin:round}.st2{stroke-width:.67}</style><path d="M3.4 15.1H0V25h3.4zM0 0" style="fill:none;stroke:#fff;stroke-miterlimit:10"/><path d="m3.4 25 1.8-1.8v-9.9H1.8L0 15.1h3.4z" class="st1"/><path d="M10.1 2.8H3.4V25h6.7z" class="st1"/><path d="m10.1 25 2.8-2.8V0H6.1L3.4 2.8h6.7zm0-22.2L12.9 0" class="st1"/><path d="M13.8 6.3h-3.7V25h3.7z" class="st1"/><path d="m13.8 25 2.7-2.7V3.6h-3.7l-2.7 2.7h3.7zm0-18.7 2.7-2.7" class="st1"/><path d="M0 0zm6.8 11.9v1h1.1m.4-1v1h1.1m-5.5-1V13H5m.4-1.1V13h1.1m.3 1v1.1h1.1m.4-1.1v1.1h1.1M3.9 14v1.1H5m.4-1.1v1.1h1.1m.3 1.1v1h1.1m.4-1v1h1.1m-5.5-1v1.1H5m.4-1.1v1.1h1.1m-6-1.4V17h1.1m.3-1.1V17H3m-2.4.9v1h1.1m.3-1v1h1.1m-2.5.7v1.1h1.1m.3-1.1v1.1h1.1M6.9 3.8v1.1h1m.5-1.1v1.1h1m-5.5-1v1H5m.4-1v1h1.1m.4 1.2v1.1h1m.5-1.1v1.1h1M3.9 6.1v1.1H5m.4-1.1v1.1h1.1m.4.9v1.1h1m.5-1.1v1.1h1m-5.5-1v1H5m.4-1v1h1.1m.4.8v1.1h1m.5-1.1v1.1h1M3.9 10v1.1H5m.4-1.1v1.1h1.1m4.3-4v1.1h1.1m.3-1.1v1.1h1.1m-2.5.9v1h1.1m.3-1v1h1.1m-2.5.8V12h1.1m.3-1.1V12h1.1m-2.5.7v1.1h1.1m.3-1.1v1.1h1.1m-2.5.6v1.1h1.1m.3-1.1v1.1h1.1m-.9 4.5c0 .9-1.7 1.5-3.9 1.5-2.1 0-3.9-.7-3.9-1.5v2.3c0 .9 1.8 1.5 3.9 1.5 2.2 0 3.9-.7 3.9-1.5zM0 0" class="st2"/><path d="M8.5 21.5c2.2 0 3.9-.7 3.9-1.5s-1.7-1.4-3.9-1.4c-2.1 0-3.9.7-3.9 1.4-.1.9 1.7 1.5 3.9 1.5zM0 0" class="st2"/><path d="m7.3 19.6.4.3-1 .2.2-.2-1.7-.3.2-.1 1.7.2zm2.4.8-.5-.2 1-.2-.2.2 1.7.3-.1.1zm-.6-1.3.9-.4-.1.5h-.3l-.7.5h-.2l.7-.6zm-1.2 1.8-.9.4.1-.4h.3l.7-.6.2.1-.6.5zM0 0" class="st2"/></svg>