<svg xmlns="http://www.w3.org/2000/svg" xml:space="preserve" id="图层_1" x="0" y="0" viewBox="0 0 25 16.9"><style>.st0{fill:none;stroke:#fff;stroke-miterlimit:10}</style><path d="M25 4.9c0 2.7-5.6 4.9-12.5 4.9S0 7.6 0 4.9V12c0 2.7 5.6 4.9 12.5 4.9S25 14.7 25 12z" class="st0"/><path d="M12.5 9.8C19.4 9.8 25 7.6 25 4.9S19.4 0 12.5 0 0 2.2 0 4.9s5.6 4.9 12.5 4.9zM0 0" class="st0"/><path d="m9.6 3 1 1.5-3.8.9.8-.7-5.9-1 1.5-1.2 5.7 1zm5.6 3.8-.8-1.5 3.5-.8-.5.7 5.7 1-1.3 1-5.9-1zm-2-4.6 3.9-1 .2 1.5-1-.2-1.9 1.7-1.9-.3 1.9-1.5zm-1.7 6.1L7.8 9l-.2-1.9 1.2.3 2-1.9 1.9.3-2.2 2zM0 0" style="fill:none;stroke:#fff;stroke-miterlimit:10;stroke-linejoin:round"/></svg>