<svg xmlns="http://www.w3.org/2000/svg" xml:space="preserve" id="图层_1" x="0" y="0" viewBox="0 0 25 25"><style>.st0{fill:none;stroke:#fff;stroke-miterlimit:10}</style><path d="m7 15 7.5-7.5c.8-.2 1.7.1 2.3.7s.9 1.5.7 2.3L10 18c.4 1.1.4 2.2 0 3.2-3.2-.5-5.7-3-6.2-6.2 1-.4 2.1-.4 3.2 0zM3.8 0l7.5 7.5-3.8 3.8L0 3.8zm13.7 13.8 7.5 7.5-3.8 3.7-7.5-7.5zm5.6 5.5-3.8 3.9m1.9-5.7-3.8 3.8m2-5.7-3.8 3.8M5.6 1.9 1.9 5.6m5.6-1.8L3.8 7.5m5.6-1.9L5.6 9.4" class="st0"/><path d="m4.2 16.5.7 3.6 4.7-.1M1.9 1.9l7.5 7.5m6.2 6.2 7.5 7.5M0 0zm9.9 8.9 1.6 1.6-1 1-1.6-1.6zM14 13l2.1 2.1-1 1L13 14c0-.6.4-1 1-1zm-1.2-3.8c1.5.3 2.7 1.5 3 3m-6.3.3c1.5.3 2.7 1.5 3 3" class="st0"/><path d="M9 13c1.5.3 2.7 1.5 3 3m-5-1c1.4.5 2.5 1.6 3 3m-6.2-3c3.2.5 5.7 3 6.2 6.2m3.5-11.7-3.2 3.2m3.8-2.8-3.2 3.2m-5.7 7.1c0 .3-.2.5-.5.5s-.5-.2-.5-.5.2-.5.5-.5c.3.1.5.3.5.5m-1.7 0c0 .7.6 1.2 1.2 1.2v.6c-1 0-1.8-.8-1.8-1.8z" class="st0"/><path d="M2.2 20.2c0 1.4 1.1 2.5 2.5 2.5v.5c-1.7 0-3-1.3-3-3z" class="st0"/><path d="M1 20.2C1 22.3 2.7 24 4.8 24v.5c-2.3 0-4.2-1.9-4.2-4.2H1zM0 0" class="st0"/></svg>