<svg xmlns="http://www.w3.org/2000/svg" xml:space="preserve" id="图层_1" x="0" y="0" viewBox="0 0 25 8.4"><style>.st0{fill:none;stroke:#fff;stroke-linejoin:round;stroke-miterlimit:10}</style><path d="M0 0zm25 .7v.5l-5.3 2-2.4-.4-1.5-.3-1-.2v-.7zM12.6 8.4c.7 0 1.3-.2 1.3-.5s-.6-.6-1.3-.6-1.2.3-1.2.6.5.5 1.2.5z" class="st0"/><path d="m16.4 1.9-1.6-.3L20.4 0l4.6.7-5.3 1.8-2.3-.3c1.3-.4 1.6-.8 1.6-.8-.5-.3-2.3.4-2.3.4l-1.6.5v.9l2.1-.7.1-.3" class="st0"/><path d="M10.1.1v6.6c0 .6 1.1 1.1 2.5 1.1s2.6-.5 2.6-1.1V0z" class="st0"/><path d="M10.4 5.3v.6l-5.5 2L0 6.7V6z" class="st0"/><path d="m8.7 5 1.8.3-5.6 1.8L0 6l5.8-1.7 1.3.3z" class="st0"/><path d="M7.1 4.5c-1.2.4-1.7 1-1.7 1 1.9 0 3.2-.5 3.2-.5" class="st0"/><path d="m7 4.6 4-1.2c.6 0 .6.5.6.5 0 .3-.5.4-.5.4L8.5 5" class="st0"/></svg>