<svg xmlns="http://www.w3.org/2000/svg" xml:space="preserve" id="图层_1" x="0" y="0" viewBox="0 0 25 18.6"><style>.st0,.st1{fill:none;stroke:#fff;stroke-miterlimit:10}.st1{stroke-width:.67}</style><path d="M12.6 9.4C19.4 9.4 25 8.3 25 7c0-1.2-5.6-2.3-12.4-2.3C5.6 4.7 0 5.8 0 7c0 1.3 5.6 2.4 12.6 2.4z" class="st0"/><path d="M12.6 13.5c7 0 12.4-5.2 12.4-6.5 0-1.2-5.6-2.3-12.4-2.3C5.6 4.7 0 5.8 0 7c0 1.3 5.7 6.5 12.6 6.5zM0 0" class="st0"/><path d="M12.6 9.4C19.4 9.4 25 8.3 25 7c0-1.2-5.6-2.3-12.4-2.3C5.6 4.7 0 5.8 0 7c0 1.3 5.6 2.4 12.6 2.4zM0 0" class="st1"/><path d="M9.2 5.2c-1.8.2-3.6.4-5.1.7m5.3-.1c-1.9.1-3.5.4-4.9.6m5-.1c-1.9.1-3.5.4-4.6.8M9.8 7c-1.8.1-3.4.4-4.5.8m4.6-.3c-1.7.1-3.1.5-4.2.9m4.5-.2c-1.4.1-2.6.4-3.4.8m3.5-.2c-.5 0-1.1.2-1.6.3" class="st1"/><path d="M0 7.2 12.7.9 25 7" class="st1"/><path d="M12.7 2.5c.4 0 .8-.1.8-.4s-.4-.4-.8-.4c-.5 0-.9.1-.9.4s.4.4.9.4zM0 0" class="st1"/><path d="m12.7 0-.3 8.8h.6zm3.2 15v-1.3h-6V15zM0 0" class="st1"/><path d="M11.1 14.8h3.7v2.5s-3.9 1.2-3.7 1.2zM0 0" class="st1"/></svg>