<svg xmlns="http://www.w3.org/2000/svg" xml:space="preserve" id="图层_1" x="0" y="0" viewBox="0 0 22.5 46.7"><style>.st0{fill:none;stroke:#fff;stroke-miterlimit:10}</style><path d="m0 0 22.4 21.3V25L.1 46.2V0z" class="st0"/><path d="m0 0 22.4 16.9v3.7L.1 41.8V0z" class="st0"/><path d="m0 0 22.4 12.5v3.7L.1 37.4V0z" class="st0"/><path d="m0 0 22.4 8.1v3.7L.1 33.1V0z" class="st0"/><path d="m0 0 22.4 3.8v3.7L.1 28.7V0z" class="st0"/><path d="M1 3.2 6.2 0h10l5.2 3.2zm20.5 2.4c0 .6-.4 1-1 1s-1-.4-1-1 .4-1 1-1 1 .5 1 1M1.2 24.5l1.2-2.8h1.2l-1.2 2.8zm2.6 0L5 21.8h1.2L5 24.5zm2.4 0 1.2-2.8h1.2l-1.2 2.8zm2.6 0 1.2-2.8h1.2L10 24.5zm2.4 0 1.2-2.8h1.2l-1.2 2.8zm2.6 0 1.2-2.8h1.2L15 24.5zM1.2 20.1l1.2-2.8h1.2l-1.2 2.8zm2.6 0L5 17.4h1.2L5 20.1zm2.4 0 1.2-2.8h1.2l-1.2 2.8zm2.6 0 1.2-2.8h1.2L10 20.1zm2.4 0 1.2-2.8h1.2l-1.2 2.8zm2.6 0 1.2-2.8h1.2L15 20.1zM1.2 15.8 2.5 13h1.2l-1.2 2.8zm2.6 0L5 13h1.2L5 15.8zm2.4 0L7.4 13h1.2l-1.2 2.8zm2.6 0L10 13h1.2L10 15.8zm2.4 0 1.2-2.8h1.2l-1.2 2.8zm2.6 0L15 13h1.2L15 15.8zM1.2 11.4l1.2-2.8h1.2l-1.2 2.8zm2.6 0L5 8.6h1.2L5 11.4zm2.4 0 1.2-2.8h1.2l-1.2 2.8zm2.6 0L10 8.6h1.2L10 11.4zm2.4 0 1.2-2.8h1.2l-1.2 2.8zm2.6 0L15 8.6h1.2L15 11.4zM1.2 7l1.2-2.8h1.2L2.5 7zm2.6 0L5 4.2h1.2L5 7zm2.4 0 1.2-2.8h1.2L7.5 7zm2.6 0L10 4.2h1.2L10 7zm2.4 0 1.2-2.8h1.2L12.5 7zm2.6 0L15 4.2h1.2L15 7zM0 0" class="st0"/></svg>