<svg xmlns="http://www.w3.org/2000/svg" xml:space="preserve" id="图层_1" x="0" y="0" viewBox="0 0 24.3 45"><style>.st0{fill:none;stroke:#fff;stroke-miterlimit:10}</style><path d="m0 0 21.1 20v3.5L.1 45V0z" class="st0"/><path d="m0 0 21.1 15.9v3.5L.1 40.8V0z" class="st0"/><path d="m0 0 21.1 11.8v3.5L.1 36.7V0z" class="st0"/><path d="m0 0 21.1 7.7v3.5L.1 32.6V0z" class="st0"/><path d="m0 0 21.1 3.5V7L.1 28.5V0z" class="st0"/><path d="m.9 3.1 5-3.1h9.4l4.9 3.1zm19.4 2.2c0 .5-.4.9-.9.9s-.9-.4-.9-.9.4-.9.9-.9c.4 0 .9.4.9.9M1.2 23.1l1.2-2.6h1.2l-1.2 2.6zm2.3 0 1.2-2.6h1.2l-1.2 2.6zm2.4 0 1.2-2.6h1.2l-1.2 2.6zm2.3 0 1.2-2.6h1.2l-1.2 2.6zm2.4 0 1.2-2.6H13l-1.2 2.6zm2.4 0 1.2-2.6h1.2l-1.2 2.6zM1.2 19l1.2-2.6h1.2L2.4 19zm2.3 0 1.2-2.6h1.2L4.7 19zm2.4 0 1.2-2.6h1.2L7.1 19zm2.3 0 1.2-2.6h1.2L9.4 19zm2.4 0 1.2-2.6H13L11.8 19zm2.4 0 1.2-2.6h1.2L14.1 19zM1.2 14.8l1.2-2.6h1.2l-1.2 2.6zm2.3 0 1.2-2.6h1.2l-1.2 2.6zm2.4 0L7 12.3h1.2L7 14.8zm2.3 0 1.2-2.6h1.2l-1.2 2.6zm2.4 0 1.2-2.6H13l-1.2 2.6zm2.4 0 1.2-2.6h1.2l-1.2 2.6zM1.2 10.7l1.2-2.6h1.2l-1.2 2.6zm2.3 0 1.2-2.6h1.2l-1.2 2.6zm2.4 0 1.2-2.6h1.2l-1.2 2.6zm2.3 0 1.2-2.6h1.2l-1.2 2.6zm2.4 0 1.2-2.6H13l-1.2 2.6zm2.4 0 1.2-2.6h1.2l-1.2 2.6zM1.2 6.6 2.4 4h1.2L2.4 6.6zm2.3 0L4.7 4h1.2L4.7 6.6zm2.4 0L7.1 4h1.2L7.1 6.6zm2.3 0L9.4 4h1.2L9.4 6.6zm2.4 0L11.8 4H13l-1.2 2.6zm2.4 0L14.1 4h1.2l-1.2 2.6zM0 0zm15.5 22.3c0-.5 2-1 4.4-1s4.4.4 4.4 1V24c0 .5-2 1-4.4 1s-4.4-.4-4.4-1zM0 0" class="st0"/><path d="M15.5 20c0-.5 2-1 4.4-1s4.4.4 4.4 1v1.8c0 .5-2 1-4.4 1s-4.4-.4-4.4-1zM0 0" class="st0"/><path d="M15.5 17.9c0-.5 2-1 4.4-1s4.4.4 4.4 1v1.6c0 .5-2 1-4.4 1s-4.4-.4-4.4-1zm0 4.4c0 .5 2 1 4.4 1s4.4-.4 4.4-1" class="st0"/><path d="M15.5 20c0 .5 2 1 4.4 1s4.4-.4 4.4-1m-8.8-2.1c0 .5 2 1 4.4 1s4.4-.4 4.4-1" class="st0"/></svg>