<svg xmlns="http://www.w3.org/2000/svg" xml:space="preserve" id="图层_1" x="0" y="0" viewBox="0 0 25 25"><style>.st0{fill:none;stroke:#fff;stroke-miterlimit:10}</style><path d="M0 16.2c0-2.1 5.6-3.8 12.5-3.8S25 14.2 25 16.2v5c0 2.1-5.6 3.8-12.5 3.8S0 23.3 0 21.2z" class="st0"/><path d="M0 10c0-2.1 5.6-3.8 12.5-3.8S25 7.9 25 10v5c0 2.1-5.6 3.8-12.5 3.8S0 17.1 0 15z" class="st0"/><path d="M0 3.8C0 1.7 5.6 0 12.5 0S25 1.7 25 3.8v5c0 2.1-5.6 3.8-12.5 3.8S0 10.8 0 8.8zm0 12.4C0 18.3 5.6 20 12.5 20S25 18.3 25 16.2" class="st0"/><path d="M0 10c0 2.1 5.6 3.8 12.5 3.8S25 12.1 25 10M0 3.8c0 2.1 5.6 3.8 12.5 3.8S25 5.8 25 3.8" class="st0"/></svg>