<svg xmlns="http://www.w3.org/2000/svg" xml:space="preserve" id="图层_1" x="0" y="0" viewBox="0 0 25 24.3"><style>.st0{fill:none;stroke:#fff;stroke-miterlimit:10}</style><path d="m0 0 21.8 20.6v3.6L.1 44.9V0z" class="st0"/><path d="m0 0 21.8 16.4V20L.1 40.6V0z" class="st0"/><path d="m0 0 21.8 12.1v3.6L.1 36.4V0z" class="st0"/><path d="m0 0 21.8 7.9v3.6L.1 32.1V0z" class="st0"/><path d="m0 0 21.8 3.6v3.6L.1 27.9V0z" class="st0"/><path d="M1 3.2 6.1 0h9.7l5.1 3.2zm19.9 2.3c0 .5-.4 1-1 1-.5 0-1-.4-1-1s.4-1 1-1c.5 0 1 .4 1 1M1.2 23.8l1.2-2.7h1.2l-1.2 2.7zm2.4 0 1.2-2.7H6l-1.2 2.7zm2.5 0 1.2-2.7h1.2l-1.2 2.7zm2.4 0 1.2-2.7h1.2l-1.2 2.7zm2.4 0 1.2-2.7h1.2l-1.2 2.7zm2.4 0 1.2-2.7h1.2l-1.2 2.7zM1.2 19.5l1.2-2.7h1.2l-1.2 2.7zm2.4 0 1.2-2.7H6l-1.2 2.7zm2.5 0 1.2-2.7h1.2l-1.2 2.7zm2.4 0 1.2-2.7h1.2l-1.2 2.7zm2.4 0 1.2-2.7h1.2l-1.2 2.7zm2.4 0 1.2-2.7h1.2l-1.2 2.7zM1.2 15.3l1.2-2.7h1.2l-1.2 2.7zm2.4 0 1.2-2.7H6l-1.2 2.7zm2.5 0 1.1-2.7h1.2l-1.2 2.7zm2.4 0 1.2-2.7h1.2l-1.2 2.7zm2.4 0 1.2-2.7h1.2l-1.2 2.7zm2.4 0 1.2-2.7h1.2l-1.2 2.7zM1.2 11l1.2-2.7h1.2L2.4 11zm2.4 0 1.2-2.7H6L4.9 11zm2.5 0 1.2-2.7h1.2L7.3 11zm2.4 0 1.2-2.7h1.2L9.7 11zm2.4 0 1.2-2.7h1.2L12.1 11zm2.4 0 1.2-2.7h1.2L14.6 11zM1.2 6.8l1.2-2.7h1.2L2.4 6.8zm2.4 0 1.2-2.7H6L4.9 6.8zm2.5 0 1.2-2.7h1.2L7.3 6.8zm2.4 0 1.2-2.7h1.2L9.7 6.8zm2.4 0 1.2-2.7h1.2l-1.2 2.7zm2.4 0 1.2-2.7h1.2l-1.2 2.7zM0 0zm25 21.1c0 1.1-.9 1.9-1.9 1.9s-1.9-.9-1.9-1.9c0-1.1.9-1.9 1.9-1.9s1.9.8 1.9 1.9m-7.3 2H23" class="st0"/></svg>