<svg xmlns="http://www.w3.org/2000/svg" xml:space="preserve" id="图层_1" x="0" y="0" viewBox="0 0 10.8 25"><style>.st0{fill:none;stroke:#fff;stroke-miterlimit:10}</style><path d="M10.8 8.2v13.6c-.1 1.8-1.5 3.2-3.3 3.2H2.9C1.3 24.8 0 23.5 0 21.8V8.2z" class="st0"/><path d="M9.3 12.9H6.9v2.3h.6c0 .3-.1.6-.4.8l-1.1.6V12h1L5.3 9.6 3.5 12h1.1v6l-1-.6c-.3-.2-.5-.5-.5-.9v-.9c.4-.3.6-.8.5-1.3s-.6-.8-1.1-.8-.9.3-1.1.8c-.1.5.1 1 .5 1.3v1.3c0 .6.4 1.2.9 1.5l1.8 1.1v.6c-.8.3-1.2 1.1-1 1.9s.9 1.4 1.7 1.4S6.8 22.8 7 22s-.3-1.6-1-1.9v-2.3l1.4-.6c.6-.2 1.1-.7 1.2-1.3v-.6h.6v-2.4zm-7-5.4c-.5-.1-.8-.5-.8-.9v-6c.1-.3.4-.6.8-.6h6.1c.4.1.8.4.8.9v5.8c-.1.4-.4.7-.8.8z" class="st0"/><path d="M4.2 6V4.3H2.7V6zm2.3 0H8V4.3H6.5zM0 0" class="st0"/></svg>