<svg xmlns="http://www.w3.org/2000/svg" xml:space="preserve" id="图层_1" x="0" y="0" viewBox="0 0 22.3 25"><style>.st0{fill:none;stroke:#fff;stroke-miterlimit:10}</style><path d="M4.5.1c1.9 0 3.4 1.5 3.4 3.4 0 .9-.4 1.7-1 2.4s-1.5 1-2.4 1-1.7-.4-2.4-1-1-1.5-1-2.4C1.3 1.6 2.7.2 4.5.1zm2.2 7.8c1.2 0 2.2 1 2.2 2.2v3.4c0 1.2-1 2.2-2.2 2.2v5.6c0 .6-.5 1.1-1.1 1.1H3.4c-.6 0-1.1-.5-1.1-1.1v-5.6c-1.2 0-2.2-1-2.2-2.2v-3.4C.1 8.9 1 8 2.2 7.9zM17.8 0c.9 0 1.7.4 2.4 1 .6.6 1 1.5 1 2.4s-.4 1.7-1 2.4c-.6.6-1.5 1-2.4 1s-1.7-.4-2.4-1c-.6-.6-1-1.5-1-2.4.2-1.8 1.6-3.2 3.4-3.4zm2.3 7.8c.6 0 1.2.2 1.6.7.4.4.7 1 .7 1.6v3.4c0 1.2-1 2.2-2.2 2.2v5.6c0 .6-.5 1.1-1.1 1.1h-2.2c-.6 0-1.1-.5-1.1-1.1v-5.6c-1.2 0-2.2-1-2.2-2.2v-3.4c.1-1.2 1-2.1 2.2-2.2h4.3zm-9-5.2c1.9 0 3.4 1.5 3.4 3.4S13 9.4 11.1 9.4 7.8 7.8 7.8 6c.2-1.8 1.6-3.2 3.3-3.4z" class="st0"/><path d="M13.4 10.5c1.2 0 2.2 1 2.2 2.2v3.4c0 1.2-1 2.2-2.2 2.2v5.6c0 .6-.5 1.1-1.1 1.1H10c-.6 0-1.1-.5-1.1-1.1v-5.6c-1.2 0-2.2-1-2.2-2.2v-3.4c.1-1.2 1-2.1 2.2-2.2zM0 0" class="st0"/></svg>