<svg xmlns="http://www.w3.org/2000/svg" xml:space="preserve" id="图层_1" x="0" y="0" viewBox="0 0 22.9 25"><style>.st0{fill:none;stroke:#fff;stroke-miterlimit:10}</style><path d="m0 0 20.8 19.8v3.1L2.1 44.7V19.8z" class="st0"/><path d="m0 0 20.8 16.2v3.1L2.1 41.1V16.2z" class="st0"/><path d="m0 0 20.8 12.5v3.1L2.1 37.4V12.5z" class="st0"/><path d="m0 0 20.8 8.9V12L2.1 33.8V8.9z" class="st0"/><path d="m0 0 20.8 5.2v3.1L2.1 30.2v-25z" class="st0"/><path d="m2.9 4.8 4.4-2.7h8.3L20 4.8zm17.1 2c0 .5-.4.8-.8.8-.5 0-.8-.4-.8-.8 0-.5.4-.8.8-.8.4-.1.8.3.8.8M3.1 22.5l1-2.3h1l-1 2.3zm2.1 0 1-2.3h1l-1 2.3zm2.1 0 1-2.3h1l-1 2.3zm2.1 0 1-2.3h1l-1 2.3zm2.1 0 1-2.3h1l-1 2.3zm2 0 1-2.3h1l-1 2.3zM3.1 18.9l1-2.3h1l-1 2.3zm2.1 0 1-2.3h1l-1 2.3zm2.1 0 1-2.3h1l-1 2.3zm2.1 0 1-2.3h1l-1 2.3zm2.1 0 1-2.3h1l-1 2.3zm2 0 1-2.3h1l-1 2.3zM3.1 15.2l1-2.3h1l-1 2.3zm2.1 0 1-2.3h1l-1 2.3zm2.1 0 .9-2.3h1l-1 2.3zm2.1 0 1-2.3h1l-1 2.3zm2.1 0 1-2.3h1l-1 2.3zm2 0 1-2.3h1l-1 2.3zM3.1 11.6l1-2.3h1l-1 2.3zm2.1 0 1-2.3h1l-1 2.3zm2.1 0 1-2.3h1l-1 2.3zm2.1 0 1-2.3h1l-1 2.3zm2.1 0 1-2.3h1l-1 2.3zm2 0 1-2.3h1l-1 2.3zM3.1 7.9l1-2.3h1l-1 2.3zm2.1 0 1-2.3h1l-1 2.3zm2.1 0 1-2.3h1l-1 2.3zm2.1 0 1-2.3h1l-1 2.3zm2.1 0 1-2.3h1l-1 2.3zm2 0 1-2.3h1l-1 2.3zM0 0" class="st0"/><path d="M0 0h22.9v25H0z" style="fill:none;stroke:#fff;stroke-miterlimit:10;stroke-dasharray:5,5"/></svg>