<svg xmlns="http://www.w3.org/2000/svg" xml:space="preserve" id="图层_1" x="0" y="0" viewBox="0 0 25 18.5"><style>.st1{fill:none;stroke:#fff;stroke-miterlimit:10;stroke-linejoin:round}</style><path d="m0 0 8.2 1.7v12.9l-6.4 5.6V1.7zm1.7 3.9h6.5M1.7 8.2h6.5" class="st1"/><path d="M6 2.8h17.2v9.7H6zm6.5 9.7h4.3v2.2h-4.3z" class="st1"/><path d="M9.3 14.4H20l2.2 2.4H7.1zm3 1.9h3.9m-6.7-.7h8.4m-8-.6h7.8m.6 0h1.5m-1 .6h1.5m-1.1.7h1.5M6.7 3.4h15.7v8.4H6.7zM0 0" class="st1"/><path d="M0 0h25v18.5H0z" style="fill:none;stroke:#fff;stroke-miterlimit:10;stroke-linejoin:round;stroke-dasharray:5,5"/></svg>