<svg xmlns="http://www.w3.org/2000/svg" xml:space="preserve" id="图层_1" x="0" y="0" viewBox="0 0 25 16.3"><style>.st1{fill:none;stroke:#fff;stroke-miterlimit:10;stroke-linejoin:round}</style><path d="M25 4.9v6.6l-6.1 4.9H6.4L0 11.5V4.9zM0 0" style="fill:none;stroke:#fff;stroke-miterlimit:10"/><path d="M18.8 0H6.4L0 4.9l6.4 4.9h12.5L25 4.9zM0 0z" class="st1"/><path d="m10.1 3 1 1.6-3.6.6.7-.5-4.7-1 1.6-1 4.3.9zm5.2 3.4L14.6 5l3.3-.7-.7.5 4.8.9-1.2 1-4.8-.8zm-1.6-4.5 3.6-1v1.6l-.9-.2-1.7 1.6-1.7-.4 1.7-1.4zm-2.2 6.3L8 8.9l-.2-1.8 1 .3 1.9-1.7 1.7.3-2.1 1.7zm-5.1 8.1V9.7m12.5 6.6V9.7" class="st1"/></svg>