<svg xmlns="http://www.w3.org/2000/svg" xml:space="preserve" id="图层_1" x="0" y="0" viewBox="0 0 25 21.6"><style>.st1{fill:none;stroke:#fff;stroke-miterlimit:10;stroke-linejoin:round}</style><path d="M7 7.1c-2.5.5-4.3 6.6-4.3 6.6-1.1 2.7-2.7 5-2.7 5h17.1s2-2.5 3.4-5c0 0 1.8-6.1 4.5-6.6zM0 0" style="fill:none;stroke:#fff;stroke-miterlimit:10"/><path d="M17.1 18.6v3l7.9-7.9V7.1c-1.6.4-3.4 2.3-4.6 4.3-.9 1.1-1.4 2.1-2 2.9M11.8 3.6c1.2-1.1 3-2 4.6-1.8 1.8 0 2.9.9 3.2 2.1" class="st1"/><path d="M12.5 1.8C13.8.7 15.5 0 17.1 0c1.8 0 2.9.9 3.2 2.1m-9.1 3.3c1.2-1.2 2.9-2 4.6-2 1.6.2 2.9 1.1 3.2 2.3" class="st1"/><path d="M10.5 7.1c1.2-1.3 3-2 4.6-2 1.6.2 2.9.9 3.2 2.3M0 0z" class="st1"/><path d="M9.8 8.9c1.3-1.2 3-2 4.6-2 1.8 0 2.9.9 3.2 2.3m1.5 3.5c.2 2-3.2 3.9-7.7 4.3s-8-.9-8.2-3c-.2-2 3.2-4 7.7-4.4 4.3-.3 8 .9 8.2 3.1z" class="st1"/><path d="M18.4 12.1c.2 1.8-3 3.6-7 3.9-4.1.4-7.3-.9-7.5-2.7s2.9-3.6 7-3.9c3.9-.3 7.3 1 7.5 2.7zM0 21.6h17.1v-3H0zM0 0" class="st1"/></svg>