<svg xmlns="http://www.w3.org/2000/svg" xml:space="preserve" id="图层_1" x="0" y="0" viewBox="0 0 25 13.9"><style>.st0,.st1{fill:none;stroke:#fff;stroke-miterlimit:10}.st1{fill:#222}.st2{font-family:&quot;ArialMT&quot;}.st3{font-size:2.8377px}.st4{fill:none;stroke:#fff;stroke-linejoin:round;stroke-miterlimit:10}</style><path d="M0 6.1 7.6 0H25l-6.2 6.1z" class="st0"/><path d="M18.8 13.9 25 7.4V0l-6.2 6.1zm0 0V6.1H0v7.8zM0 0" class="st0"/><text class="st1 st2 st3" transform="translate(5.958 2.838)">W</text><text class="st1 st2 st3" transform="translate(17.296 2.838)">E</text><text class="st1 st2 st3" transform="translate(9.999 5.067)">S</text><text class="st1 st2 st3" transform="translate(13.57 .81)">N</text><path d="M0 0zm13.8 3c-.3.3-.8.4-1.2.4-.6 0-.7-.2-.6-.4.3-.1.8-.3 1.2-.3s.7.1.6.3zM0 0" class="st4"/><path d="m12.7 2.8 1.8-1.2-1.1 1.2z" class="st4"/><path d="m12.7 2.8 1.8-1.2-1.1 1.2m-1 .3-1.1 1.2 1.8-1.2zm0 0L9.1 3l3.6-.1zM0 0" class="st4"/><path d="m13 3.1 3.6-.1-3.4-.1zm-.3.1-1.9.3 1.6-.5zM0 0" class="st4"/><path d="m13.2 3.1 1.8-.7-2 .4" class="st4"/><path d="m13.4 3 .4.7-1.1-.4zm-.3-.2L12 2.4l.4.7zM0 0" class="st4"/><path d="M15.8 2.6c.1.5-1.1 1.2-2.7 1.5-1.6.4-3.1.1-3.2-.5-.3-.5.9-1.2 2.5-1.6 1.8-.2 3.3 0 3.4.6zM0 0" class="st4"/></svg>