<svg xmlns="http://www.w3.org/2000/svg" xml:space="preserve" id="图层_1" x="0" y="0" viewBox="0 0 25 13.9"><style>.st0,.st2{fill:none;stroke:#fff;stroke-miterlimit:10}.st2{stroke-linejoin:round;stroke-width:1.33;stroke-linecap:round}</style><path d="M0 6.1 7.5 0H25l-6.3 6.1z" class="st0"/><path d="M18.7 13.9 25 7.6V0l-6.3 6.1zm0 0V6.1H0v7.7h18.7zM0 0" class="st0"/><path d="M0 0zm5.6 3.9L8 3.7l-.4 1-.7-.4-2.6 1-.5-.1 2.5-1zm10 0-2-.3.1 1 .7-.4 1.8.9.5-.1-1.7-.9zM0 0" style="fill:none;stroke:#fff;stroke-miterlimit:10;stroke-linejoin:round"/><path d="M17.9 10.2s-1.2 3.3-2.7 0c-1.4-3.1-2.7 0-2.7 0s-1.2 3.3-2.7 0c-1.4-3.1-2.7 0-2.7 0s-1.2 3.3-2.7 0c-1.4-3.1-2.7 0-2.7 0" class="st2"/><path d="M1.4 10.2s1.3 3.3 2.7 0c1.6-3.1 2.7 0 2.7 0s1.3 3.3 2.7 0c1.6-3.1 2.7 0 2.7 0s1.3 3.3 2.7 0c1.6-3.1 2.7 0 2.7 0" style="fill:none;stroke:#fff;stroke-miterlimit:10;stroke-linejoin:round;stroke-linecap:round;stroke-width:.67"/><path d="M17.7 10.2s-1.3 3.3-2.7 0c-1.6-3.1-2.7 0-2.7 0s-1.3 3.3-2.7 0c-1.4-3.1-2.7 0-2.7 0s-1.2 3.3-2.7 0c-1.4-3.1-2.7 0-2.7 0" class="st2"/><path d="M1.2 10.2s1.3 3.3 2.7 0c1.6-3.1 2.7 0 2.7 0s1.3 3.3 2.7 0c1.6-3.1 2.7 0 2.7 0s1.2 3.3 2.7 0c1.4-3.1 2.7 0 2.7 0M12 1.6l-.9-.1 3.3-.8 1.4 1h-1.3L12.7 3h-2.4l2-1.4zm-1.9 3h-.8l1.8-1.2.1 1.2h-.7 0l-.9 1H9l.9-1zM0 0" class="st2"/></svg>