<svg xmlns="http://www.w3.org/2000/svg" xml:space="preserve" id="图层_1" x="0" y="0" viewBox="0 0 25 14.1"><style>.st0{fill:none;stroke:#fff;stroke-miterlimit:10}</style><path d="M3.9 2.8c0 .3-.1.6-.3.8s-.5.3-.8.3-.6-.1-.8-.3-.4-.5-.4-.8.1-.6.3-.8.5-.3.8-.3.6.1.8.3.4.4.4.8zM2.7 5.5l7.8 7.7c.9.9 2.1.8 2.8.1s.7-1.9 0-2.7L5.5 2.9" class="st0"/><path d="M5.5 2.7c0 1.5-1.2 2.7-2.7 2.7S0 4.3 0 2.7 1.2 0 2.7 0c.7 0 1.4.3 1.9.8s.9 1.2.9 1.9zM25 10.2H12.2c-1.3 0-2 .9-2 1.9 0 1.1.9 1.9 1.9 1.9H25" class="st0"/></svg>