<svg xmlns="http://www.w3.org/2000/svg" xml:space="preserve" id="图层_1" x="0" y="0" viewBox="0 0 22.5 25"><style>.st0{fill:none;stroke:#fff;stroke-miterlimit:10}</style><path d="M13.4 9.9v3.5m9.1 8.6H4.6m0-6h6.7l2.2 3.9 2.2-3.9h6.8" class="st0"/><path d="M0 13.1h4.6V25h4.6M0 0zm11.4 5.1 1-.1c.1.5.2.8.5 1q.3.3.9.3c.4 0 .8-.2 1.1-.5s.4-.7.4-1.2-.1-.9-.4-1.2-.6-.4-1.1-.4c-.3 0-.5.1-.8.2-.2.1-.4.3-.5.5l-.8-.1.6-3.6h3.5v.8H13l-.4 1.9c.4-.3.9-.4 1.3-.4.6 0 1.1.2 1.6.6.4.4.6 1 .6 1.7 0 .6-.2 1.2-.6 1.7-.5.6-1.1.9-1.9.9-.6 0-1.2-.2-1.6-.5s-.5-1-.6-1.6zM0 0" class="st0"/></svg>