<svg xmlns="http://www.w3.org/2000/svg" xml:space="preserve" id="图层_1" x="0" y="0" viewBox="0 0 25 14.8"><style>.st0{fill:none;stroke:#fff;stroke-miterlimit:10}</style><path d="M8 5.9H6.7L7.4 4zM18.1 9l-1.1.6 1.4 1.4zM4.6 3.8v-2m.9 2.9H4.4l-.7 1.2L3 4.7H1.9m0 1.8h3.7M1.9 7V4.2m1.8 3.3-1.8 3.7m3.6 0H0V7.5h5.5m8.3 1.8h1.9m-5.5 0h1.9" class="st0"/><path d="M5.5 3.8h14.8v7.4H5.5zm13 11v-3.7m-3.7 3.7V9.3m0-5.6V0M13 3.8v7.4m-1.9-.1V9.3m-3.7 1.9V5.8m7.4-2 2.8 5.5m2.8 0 .4-1.9.8 3.6.8-3.6.8 3.6.8-3.6.8 3.6.2-1.8" class="st0"/></svg>