<svg xmlns="http://www.w3.org/2000/svg" xml:space="preserve" id="图层_1" x="0" y="0" viewBox="0 0 25 11.8"><style>.st0{fill:none;stroke:#fff;stroke-miterlimit:10}</style><path d="M1.9 7.4c0 .3-.2.5-.5.5-.2-.1-.4-.3-.4-.5 0-.3.2-.5.5-.5.2 0 .4.2.4.5zm8.9-2.7h-1l.5-1.5zm8 2.5-.9.5 1.1 1zM.7 6.3v-.7c0-.4.4-.8.7-.8.5 0 .7.5.7.8v.7" class="st0"/><path d="M0 6.3h2.9v2.2H0zm15.4 1.1h1.5m8.1.7h-4.4M25 6.7h-4.4m3.2 2.2H25v-3h-1.2M12.5 7.4H14m-9.6.7h4.4M4.4 6.7h4.4M5.6 8.9H4.4v-3h1.2M8.8 3h11.8v5.9H8.8zm10.3 8.8V8.9m-3 2.9V7.4m0-4.4V0m-1.4 3v5.9m-1.5 0V7.4m-3 1.5V4.7M16.1 3l2.2 4.4" class="st0"/></svg>