<svg xmlns="http://www.w3.org/2000/svg" xml:space="preserve" id="图层_1" x="0" y="0" viewBox="0 0 25 11.6"><style>.st0{fill:none;stroke:#fff;stroke-miterlimit:10}</style><path d="M1.5 3.7c0 .2-.2.4-.5.4s-.4-.2-.4-.4.2-.5.4-.5.5.2.5.5zm18.1 3.4-.9.5 1.1 1.1zm-7.9-2.5h-1l.5-1.5zm-10.6.2 3.1 3c.4.3.8.3 1.1 0s.3-.8 0-1l-3-3" class="st0"/><path d="M2.1 3.7c0 .6-.5 1.1-1.1 1.1s-1-.5-1-1.1.5-1.1 1.1-1.1 1 .5 1 1.1zm7.7 2.9h-5c-.5 0-.8.3-.8.7s.3.7.7.7h5m11.7-.7.3-1.5.6 2.8.6-2.8.6 2.8.6-2.8.6 2.8.3-1.4M17 3l2.2 4.3m-8 1.4V4.6m2.9 4.1V7.3M15.6 3v5.8M17 2.9V0m0 11.6V7.3m2.9 4.3V8.8" class="st0"/><path d="M9.7 3h11.6v5.8H9.7zm3.7 4.3h1.5m1.3 0h1.5" class="st0"/></svg>