<svg xmlns="http://www.w3.org/2000/svg" xml:space="preserve" id="图层_1" x="0" y="0" viewBox="0 0 25 11.4"><style>.st0{fill:none;stroke:#fff;stroke-miterlimit:10}</style><path d="M11.9 4.4h-.8l.4-1.3zm7.8 2.7-.8.4 1 1zm1.7.1.3-1.4.6 2.8.6-2.8.6 2.8.6-2.8.6 2.8.3-1.5m-7.9-4.2 2.2 4.4m-7.9 1.3V4.4m2.9 4.2V7.1m1.4-4.2v5.7m1.4-5.7V0m0 11.4V7.1m2.9 4.3V8.6" class="st0"/><path d="M10 2.9h11.4v5.7H10zm3.6 4.2h1.5m1.3 0h1.5M10 8.6H5.8V5.7H10" class="st0"/><path d="m5.8 5.7 2.4 1.4-2.4 1.5" class="st0"/><path d="M0 7.2h3.6l.2-.7.4 1.4.3-1.4.4 1.4.3-1.4.4 1.4.2-.7" class="st0"/></svg>