<svg xmlns="http://www.w3.org/2000/svg" xml:space="preserve" id="图层_1" x="0" y="0" viewBox="0 0 25 11.1"><style>.st0{fill:none;stroke:#fff;stroke-miterlimit:10}</style><path d="M8 4.5 7.2 4l1.1-1zm.1 2.2-.9.5 1.1 1zm11.8.1h-1l.5 1.4zm-2.7-2.4h-1l.5-1.4zM.7 4.1 1 5.6l.6-2.7.6 2.7.6-2.7.6 2.7.6-2.7.3 1.4m1.2 4.1 2.1-4.1M13.9 7v4.1m0-11.1v4.2M5.5 2.8l2.1 4.1m3.5-2.7V0m0 11.1V7M9.7 2.8v5.5" class="st0"/><path d="M4.2 2.8h16.7v5.5H4.2zm0 5.6H0V5.6h4.2m-1.4 0L1.4 8.4" class="st0"/><path d="M24.3 4.1 24 5.5l-.6-2.7-.6 2.7-.6-2.7-.6 2.7-.6-2.7-.3 1.4m-5.4-1.4v5.5m1.4-3.9v4m2.7-5.5v3.9m-9-2.6h1.5M10.4 7h1.5m1.2-2.8h1.5M13.1 7h1.5m6.2 1.4H25V5.6h-4.2m1.4 0 1.4 2.8" class="st0"/></svg>