<svg xmlns="http://www.w3.org/2000/svg" xml:space="preserve" id="图层_1" x="0" y="0" viewBox="0 0 25 14.3"><style>.st0{fill:none;stroke:#fff;stroke-miterlimit:10}</style><path d="m10.4 5.7-1.2-.5 1.4-1.3zm8.1 3.1h-1.2l.6 1.8zm-3.6-3.2h-1.3l.6-1.8zm-4.5 3.1-1.2.6 1.4 1.3zm13.2-5.9V.9m-4.1 6.3H25m-1.8 3.6-1.8-3.6m-1.8-3.5h.7l.7 1.1.7-1.1H23l.6 1.1.6-1.1h.8v7.1h-5.4" class="st0"/><path d="M5.3 3.6h14.3v7.1H5.3zm7.2.1v7.1M3.6 7.2l-1.8 3.6" class="st0"/><path d="M5.3 10.8H0V7.2h5.3m9 7.1V5.6m0-2V0M7.1 3.6l2.7 5.3m8-8.9v8.8m0 1.9v3.6M7.1 10.7l2.7-5.3" class="st0"/></svg>