<svg xmlns="http://www.w3.org/2000/svg" xml:space="preserve" id="图层_1" x="0" y="0" viewBox="0 0 25 12.1"><style>.st0{fill:none;stroke:#fff;stroke-miterlimit:10}</style><path d="m21.2 7.7.3-1.5.6 3 .6-3 .6 3 .6-3 .6 3 .5-1.6M10.6 9.1l2.3-4.5m6.8 4.5v3.1m0-12.2v7.5m-9.1-4.4 2.3 4.5m3.7-4.5V0m0 12.1V4.7m-1.5-1.6v6" class="st0"/><path d="M9.1 3.1h12.1v6H9.1zm0 6H0v-3h9.1M3 6.1l-1.5 3M0 0z" class="st0"/><path d="M4.6 9V6.2l2.8 1.4zm8.7-4.1-.9-.5 1.2-1.1zm6.9 2.6h-1.1l.6 1.5zm-3-2.8h-1.1l.5-1.5zm-3.9 2.7-.9.5L13.5 9zM0 0" class="st0"/></svg>