<svg xmlns="http://www.w3.org/2000/svg" xml:space="preserve" id="图层_1" x="0" y="0" viewBox="0 0 25 14.8"><style>.st0{fill:none;stroke:#fff;stroke-miterlimit:10}</style><path d="m10.8 5.9-1.2-.6L11 4zm8.3 3.3h-1.3l.6 1.9zm-3.7-3.6h-1.3l.6-1.9zM10.8 9l-1.2.6L11 11zm-3.4 2.1 2.8-5.5m8.3 5.5v3.7m0-14.8v9.2m1.9.1.4-1.9.8 3.6.8-3.6.8 3.6.8-3.6.8 3.6.2-1.8M7.4 3.8l2.8 5.5m4.6-5.6V0m0 14.8V5.6" class="st0"/><path d="M5.5 3.8h14.8v7.4H5.5zm0 7.4H0V7.5h5.5m-1.8 0-1.8 3.7m0-4.2V4.2m0 2.3h3.7m-.1-1.8H4.4l-.7 1.2L3 4.7H1.9m2.7-.9v-2m8.4 2v7.4" class="st0"/></svg>