<svg xmlns="http://www.w3.org/2000/svg" xml:space="preserve" id="图层_1" x="0" y="0" viewBox="0 0 25 8.6"><style>.st0{fill:none;stroke:#fff;stroke-miterlimit:10}</style><path d="M12 5.4h-1.1M13.6 0v8.6m-2.1-3.2v3.2m0-8.6v4.3h2.1m-4.9 1h1.1M7.2 2.2v4.2m2.1-1.1v1.1m0-4.2v2.1H7.2M25 8.6v-.9m0-.4v-.7m0-.4v-.8h-.8m-.5 0h-.8m-1.9 0h-.8m-.5 0h-.8M0 8.6v-.9m0-.4v-.7m0-.4v-.8h.8m.5 0h.8m1.9 0h.8m.5 0h.8M3.5 3.2l.2 1.1.4-2.1.4 2.1.5-2.1.4 2.1.4-2.1.2 1.1m4.4-1.1v4.2" class="st0"/><path d="M6.1 2.2h12.7v4.2H6.1zm15.4 1-.2 1.1-.4-2.1-.4 2.1-.5-2.1-.4 2.1-.4-2.1-.2 1.1m-4.4-1.1v4.2m1.1-3v3m2.1-4.2v3M0 0z" class="st0"/><path d="M13.3 4.3q0 .3.3.3c.1 0 .1 0 .2-.1s.1-.1.1-.2 0-.1-.1-.2c-.1 0-.2-.1-.2-.1-.2 0-.3.2-.3.3zm-5.8 0q0 .3-.3.3c-.1 0-.1 0-.2-.1 0-.1-.1-.1-.1-.2s.1-.2.1-.2c.1-.1.1-.1.2-.1q.3 0 .3.3zm15.4 2.2V4.2l-2 1.1zm-20.8 0V4.2l2 1.1zm16.1-1.3h-.7l.4 1.1zm-2.1-1.8h-.7l.4-1.1zM0 0" class="st0"/></svg>