<svg xmlns="http://www.w3.org/2000/svg" xml:space="preserve" id="图层_1" x="0" y="0" viewBox="0 0 25 9.3"><style>.st1{fill:none;stroke:#fff;stroke-miterlimit:10;stroke-dasharray:5,5}</style><path d="M14.3 3.7h-.8l.4-1.2zm6.4 1.9L20 6l.9.9zM0 0" style="fill:none;stroke:#fff;stroke-miterlimit:10"/><path d="M0 4.7h2.1m2 0h1.8M0 0zm9.9 4.7c0 1-.8 1.7-1.7 1.7-1 0-1.7-.8-1.7-1.7 0-1 .8-1.7 1.7-1.7s1.7.7 1.7 1.7zM2.1 5.9V3.5l2 1.2zm8.4-1.8h2.3m-2.3 1.2h2.3" class="st1"/><path d="M5.8 2.4h4.6V7H5.8zm16.3 3.5.2-1.2.5 2.3.5-2.3.5 2.3.5-2.3.4 2.3.3-1.2m-6.4-3.4 1.7 3.5M13.9 7V3.7M16.3 7V5.8m1.1-3.4V7m1.2-4.7V0m0 9.3V5.8m2.3 3.5V7" class="st1"/><path d="M12.8 2.4h9.3V7h-9.3zm2.9 3.4h1.2m1.1 0h1.2" class="st1"/></svg>