<svg xmlns="http://www.w3.org/2000/svg" xml:space="preserve" id="图层_1" x="0" y="0" viewBox="0 0 25 12.9"><style>.st0{fill:none;stroke:#fff;stroke-miterlimit:10}</style><path d="m22.1 4.6 1 .5.2-1.7zm-4.5 3.2h-1.1l.5 1.6zM8.8 4.6l-1 .5-.2-1.7zm5.6 3.2h-1.1l.6 1.6zm-8.6-.5H1.5M1 8.8h4.8m-5-2.5.9.2-.9 3.1-.8-.2M24.3 8h-1.7m-2.4 1.6v3.3M23.4 8v4.9m-.8-8-2.4 4.7M8.3 4.9l2.4 4.8M23.4 0v3.3m-9.6 4.5V3.3" class="st0"/><path d="M5.8 3.3H25v6.4H5.8zm9.6 0v6.4M7.5 8v1.6M6.6 8h1.7M17 0v7.8m0 1.8v3.3" class="st0"/></svg>