<svg xmlns="http://www.w3.org/2000/svg" xml:space="preserve" id="图层_1" x="0" y="0" viewBox="0 0 25 14.5"><style>.st0{fill:none;stroke:#fff;stroke-miterlimit:10}</style><path d="m10.3 8.8.3 1.9-1.4-1.3zm3.3-3 .7-1.8.6 1.8zM9.7 9 7.1 3.8m11.4 5.5c0 .4-.3.6-.6.6s-.6-.3-.6-.6c0-.4.3-.7.6-.7s.6.3.6.7zm-4.2-3.5v8.7m0-10.7V0M7.8 9.2c0 .4-.3.6-.7.6s-.7-.3-.7-.6c0-.4.3-.6.7-.6s.7.3.7.6zM19.7 9l.3-1.7.7 3.6.7-3.6.7 3.6.9-3.6.7 3.6.4-1.9m-1.2-4.8H24m-3.5 0h1l2.2-.9" class="st0"/><path d="M19.7 3.8V1.1H25v5.4h-5.3m-1.9 3.7v4.3m-1.3-5.7 1.4 1.4 1.4-1.4m-13.5 0 1.4 1.5 1.4-1.5m-1.5 2.1v-.7m5.4-6.4v7.1m-10.8 0 1.8-3.6m1.8 3.6H0V7.3h5.4" class="st0"/><path d="M5.4 3.8h14.3v7.1H5.4zM0 0" class="st0"/></svg>