<svg xmlns="http://www.w3.org/2000/svg" xml:space="preserve" id="图层_1" x="0" y="0" viewBox="0 0 25 6.7"><style>.st0{fill:none;stroke:#fff;stroke-miterlimit:10}</style><path d="m18.2 4.3-.5-.3-.1.9zM9.5 2.6h-.6l.3-.8zM6.8 4.3l.5-.3.1.9zm2.7-.1h-.6l.3.8zm9-1.8.5.2.1-.8zm-2.4 1.7h-.6l.3.8zM6.5 2.4l-.5.2-.1-.8zm9.6.2h-.6l.3-.8zm8.1-.5h-1.7M24.2 5l-.8-1.7M22.5 5l-1.2-.8 1.2-.8m-.4-.9-.2.9-.3-1.7-.4 1.7-.3-1.7-.3 1.7-.4-1.7-.2.9m4.2.4h-1.7m1.7.2V1.9" class="st0"/><path d="M20 3.4h5V5h-5m2.5 0V1.7M.8 2.1h1.7M.8 5l.8-1.7M2.5 5l1.2-.8-1.2-.8m.4-.9.2.9.3-1.7.4 1.7.3-1.7.3 1.7.4-1.7.2.9M.8 3h1.7m-1.7.2V1.9m9.6.6h.9m2.4 0h.9M12 4.2h.9m2.9-1.6v1.5m-5.4.1h.9m-.5 0v2.5m4.2-5V5" class="st0"/><path d="M5 1.7h15V5H5zm1.2.8L7 4.2m11.8-1.7L18 4.2m1.2 0V5m-6.7-.8v2.5m7.1-2.5h-.9m-13.3 0h.9m-.5 0V5m7.9-.8h.9m-.4 0v2.5m-4.2-5V5m.8-5v2.5M14.2 0v2.5M5 3.4H0V5h5M2.5 5V1.7m6.7.9v1.5" class="st0"/></svg>