<svg xmlns="http://www.w3.org/2000/svg" xml:space="preserve" id="图层_1" x="0" y="0" viewBox="0 0 25 7.2"><style>.st1{fill:none;stroke:#fff;stroke-miterlimit:10;stroke-dasharray:5,5}</style><path d="M21.9 4.5h-1.3m4.4 0h-1.6m-20.3 0h1.3M0 4.5h1.6M0 0zm9.2 4.4h-.6l.3.9zm1.8 0h-.6l.3.8zm3.6 0H14l.3.8zm4.3-1.9.6.3.1-.9zm-2.5 1.9h-.6l.3.9zM6.1 2.5l-.6.3-.1-.9zm3.7-.7v3.6m-.9-3.6v2.6M10.7 0v4.4m-5.3.1v.9m.5-.9h-1m7.6 0v2.7m.5-2.7h-1M2.2 2.7l.2.9.4-1.8.4 1.8.4-1.8.4 1.8.4-1.8.2.9m18.8 2.6-1.5-.9 1.5-.9zm-.6-2.6-.2.9-.4-1.8-.4 1.8-.4-1.8-.4 1.8-.4-1.8-.2.9M1.6 5.3l1.5-.9-1.5-.8zm14.5-3.5v2.6m-1.8.9v1.8m.9-5.3v3.6" class="st1"/><path d="M4.5 1.8h16.1v3.6H4.5zm1.3.8 1.4 2.7m12-2.7-1.4 2.7m1.8-.8v.9m.5-.9h-1m-8.4.8v1.8M14.3 0v4.4" class="st1"/></svg>