<svg xmlns="http://www.w3.org/2000/svg" xml:space="preserve" id="图层_1" x="0" y="0" viewBox="0 0 25 10.1"><style>.st0{fill:none;stroke:#fff;stroke-miterlimit:10}</style><path d="m8.5 3.5-.8.4-.1-1.2zm7 2.7h-.9l.4 1.2zM19 3.5l.8.4.1-1.2zm-6.1 2.7H12l.4 1.2zm-.4-3.6v3.7M20 0v2.6M7.5 6.3v1.2m-.7-1.2h1.3m12.6 0h-1.3m-1.9 1.2v2.6M20 6.3v3.8m-.6-6.4-1.9 3.8M8.1 3.7 10 7.5" class="st0"/><path d="M6.3 2.6h15v5h-15zm7.5 0v5m1.2-.1v2.6M15 0v6.2M2.2 7.5l2.1-1.2-2.1-1.2zM21.3 5H25v2.5h-3.7" class="st0"/><path d="M24.4 3.8 24.1 5l-.5-2.5-.5 2.5-.5-2.5L22 5l-.5-2.5-.3 1.3M25 7.5l-1.9-1.2L25 5m-1.9 1.3h-1.9" class="st0"/><path d="M0 0zm4.4 6.3h1.9M0 6.3h2.2" style="fill:none;stroke:#fff;stroke-miterlimit:10;stroke-dasharray:5,5"/></svg>