<svg xmlns="http://www.w3.org/2000/svg" xml:space="preserve" id="图层_1" x="0" y="0" viewBox="0 0 25 22.6"><style>.st0{fill:none;stroke:#fff;stroke-miterlimit:10}</style><path d="m22.1 9.6-.3-2.9-1.5 2.5zM7.3 9l1-2.8 1 2.8z" class="st0"/><path d="M5.5 5.8h11.1V17H5.5zM3.4 8.7h2.2M0 6.5v2.2h2.2M0 3v2.3m2.2-5H0v1.6m7-.1L5.5.3H3.4m5.7 3.6L7.5 2.3m3.6 3.5L9.6 4.4M11.1 17v5.6m5.6-8.6.6-2.7 1.1 5.6 1.1-5.6 1.1 5.6 1.1-5.6 1.1 5.6.7-2.9M11.1 5.8V0M8.3 9.1V17m12.8-7.6L19 19.1m3.2-2.3v2.4" class="st0"/><path d="M22.2 20.3v2.2m-2.8-2.2v2.2H25v-2.2" style="fill:none;stroke:#fff;stroke-miterlimit:10;stroke-dasharray:5,5"/></svg>