<svg xmlns="http://www.w3.org/2000/svg" xml:space="preserve" id="图层_1" x="0" y="0" viewBox="0 0 25 22.6"><style>.st0{fill:none;stroke:#fff;stroke-miterlimit:10}</style><path d="m22.1 9.6-.3-2.9-1.5 2.5zM7.3 9l1-2.8 1 2.8zm14.9 11.3v2.2m0-5.7v2.4m-1.1-9.8L19 19.1M8.3 9.1V17m2.8-11.2V0m5.6 14 .6-2.7 1.1 5.6 1.1-5.6 1.1 5.6 1.1-5.6 1.1 5.6.7-2.9m-12.4 3v5.6m0-5.6-1.5 1.4m-.5.5-1.6 1.5M7 21l-1.5 1.5H3.4m-1.2 0H0v-1.6m0-1.1v-2.3m0-1.2v-2.2h2.2m1.2 0h2.2" class="st0"/><path d="M5.5 5.8h11.1V17H5.5zM0 0" class="st0"/><path d="M19.4 20.3v2.2H25v-2.2" style="fill:none;stroke:#fff;stroke-miterlimit:10;stroke-dasharray:5,5"/></svg>