<svg xmlns="http://www.w3.org/2000/svg" xml:space="preserve" id="图层_1" x="0" y="0" viewBox="0 0 24.8 25"><style>.st0{fill:none;stroke:#fff;stroke-miterlimit:10}</style><path d="M4.2 12.1c0 .4-.3.6-.6.6s-.6-.3-.6-.6c0-.4.3-.6.6-.6s.6.3.6.6z" class="st0"/><path d="m2.2 12.5 1.4-1.4L5 12.5" class="st0"/><path d="M3.5 11.2V5.4h10.6m0 14.2H3.5v-6.8m17.7 10.7V25m0-3.2v1m0-2.9v1m0-2.7v1.1m0-5.1v1.5m0 .7v1" class="st0"/><path d="M0 3.6h24.8v17.7H0z" class="st0"/><path d="M10.6 7.2h7.1v7.1h-7.1zm-1.4 5.3h1.4m-3.5 1.4v-1.4h1.4m-1.4 3.6v-1.5m1.4 3.3H7.1v-1m4.4 0-1 1H9.2m3.7-2.3-1 1m2.3-2.3-.9.9m.9-.9v10.6m3.5-12.5.4-1.7.7 3.6.7-3.6.7 3.6.7-3.6.7 3.6.4-1.8m-7.8-5.3V0m-1.8 9.3v5m8.2-4.8-1.4 6.2M0 0zm14.5 5.4q0 .3-.3.3t-.3-.3.3-.3.3.3zm0 14.2q0 .3-.3.3t-.3-.3.3-.3.3.3zm6.7-10L21 7.7l-1 1.6z" class="st0"/><path d="m11.8 9.2.6-1.8.6 1.8zM0 0" class="st0"/></svg>