<svg xmlns="http://www.w3.org/2000/svg" xml:space="preserve" id="图层_1" x="0" y="0" viewBox="0 0 25 17.5"><style>.st1{fill:none;stroke:#fff;stroke-miterlimit:10;stroke-dasharray:5,5}</style><path d="m23.8 7.4-.2-2.3-1.2 2zm-11.5-.3.7-2.2.7 2.2zM0 0" style="fill:none;stroke:#fff;stroke-miterlimit:10"/><path d="M0 10.9h4m3.7 0H11M0 0zm4 8.7 3.7 2.2L4 13.1zm19.1-1.4-1.7 7.5m-8.3-7.7v6m2.2-8.6V0m4.3 10.9.4-2.1.9 4.3.9-4.3.9 4.3.9-4.3.9 4.3.5-2.2m-9.7 2.2v4.4" class="st1"/><path d="M11 4.5h8.6v8.6H11zM0 0" class="st1"/></svg>