<svg xmlns="http://www.w3.org/2000/svg" xml:space="preserve" id="图层_1" x="0" y="0" viewBox="0 0 25 17.6"><style>.st1{fill:none;stroke:#fff;stroke-miterlimit:10;stroke-dasharray:5,5}</style><path d="M17.3 15.8v1.7h4.3v-1.7M0 0zm4.4 2.4H2.6M0 5v1.4m8.7-1.9L7.5 3.4M7.1 3l-.6-.6H5.3m-3.6 0H0v1.7m0 3v1.4m0 .8V11h1.7m.9 0h1.7m8.7 2.2h6.5m0 2.6v1.7M13 8.9h6.5V15m3.6-7.7-1.7 7.6m-12.7-8v6.4m0-8.8V0m10.9 10.9.4-2.1.9 4.4.9-4.4.9 4.4.9-4.4.9 4.4.5-2.3M8.7 13.2v4.4" class="st1"/><path d="M4.3 4.5H13v8.7H4.3zM0 0zm15.7 13.1V9l3.6 2.1z" class="st1"/><path d="m7.9 6.8.7-2.2.7 2.2zm15.9.6-.2-2.3-1.2 2zM0 0" class="st1"/></svg>