<svg xmlns="http://www.w3.org/2000/svg" xml:space="preserve" id="图层_1" x="0" y="0" viewBox="0 0 20.7 25"><style>.st0{fill:none;stroke:#fff;stroke-miterlimit:10}</style><path d="m17.7 10.4-2.1 2.1 2.1 2.1m-6.4 0 2.1-2.1-2.1-2.1m-1.9 0-2.1 2.1 2.1 2.1m-6.3 0 2.1-2.1L3 10.4" class="st0"/><path d="M0 4.2h20.7v16.5H0zm10.3 12.4V25" class="st0"/><path d="M6.2 0v16.6h8.3V0M0 0z" class="st0"/><path d="m13.8 8.4.7-2.2.7 2.2zm-3.1 8.3c0 .1 0 .2-.1.2-.1.1-.2.1-.3.1-.2 0-.3-.2-.3-.3 0-.2.2-.3.3-.3.2-.1.4.1.4.3zM5.5 8.4l.7-2.2.7 2.2zM0 0" class="st0"/></svg>