<svg xmlns="http://www.w3.org/2000/svg" xml:space="preserve" id="图层_1" x="0" y="0" viewBox="0 0 20.7 25"><style>.st0{fill:none;stroke:#fff;stroke-miterlimit:10}</style><path d="M6.2 25V8.4h8.3V25M10.3 8.4V0" class="st0"/><path d="M0 4.2h20.7v16.5H0z" class="st0"/><path d="m3.1 18.7 2.1-2.1L3 14.4m6.4 0-2.1 2.1 2.1 2.1m1.9.1 2.1-2.1-2.1-2.1m6.4-.1-2.1 2.1 2.1 2.1M0 0zm5.5 10.9.7-2.2.7 2.2zm5.2-2.6c0-.2-.2-.3-.3-.3-.3 0-.4.2-.4.3 0 .2.2.3.3.3.2.1.4-.1.4-.3zm3.1 2.6.7-2.2.7 2.2zM0 0" class="st0"/></svg>