<svg xmlns="http://www.w3.org/2000/svg" xml:space="preserve" id="图层_1" x="0" y="0" viewBox="0 0 25 23.6"><style>.st0{fill:none;stroke:#fff;stroke-miterlimit:10;stroke-dasharray:5,5}</style><path d="m11.6 20.4.1 3.2h5.9l-.1-3.2M0 0zm0 6.6v1.7m8.8-2.4L7.3 4.4m-.6-.5L5.8 3H3.6M2.3 3H0v2.3m0 4.1v1.8m0 1.2v2.3h2.3m1.3 0h2.3M0 0zm7.8 14.3 1 3 1-3zm15.7-4.4-.3-3.1-1.6 2.7zM7.8 9.2l1-3 1 3zm6.8 14.4v-5.9M8.8 0v5.9" class="st0"/><path d="M17.6 5.9v11.8H5.8V5.9zm0 8.7.6-2.8 1.2 5.9 1.2-5.9 1.2 5.9 1.2-5.9 1.2 5.9.7-3.1m-2.5-4.9L20 20M8.8 9.2v5m0 9.4v-5.9" class="st0"/></svg>