<svg xmlns="http://www.w3.org/2000/svg" xml:space="preserve" id="图层_1" x="0" y="0" viewBox="0 0 19.8 25"><style>.st0{fill:none;stroke:#fff;stroke-miterlimit:10}</style><path d="M13.5 16.2h1.1M11 14.9l1.3 1.3h.7m-6.3 0h.7l1.3-1.3m-3.8 1.3h1.3M14.8 0v8.3M16 9.5c0 .7-.5 1.2-1.2 1.2s-1.2-.5-1.2-1.2.5-1.2 1.2-1.2 1.2.5 1.2 1.2zm-1.2 1.8V25" class="st0"/><path d="m12.3 8.7 2.6 2.5 2.5-2.5M4.9 0v8.3m1.2 1.2c0 .7-.5 1.2-1.2 1.2s-1.2-.5-1.2-1.2.5-1.2 1.2-1.2c.6 0 1.2.5 1.2 1.2zm-1.2 1.8V25" class="st0"/><path d="m2.3 8.7 2.6 2.5 2.5-2.5" class="st0"/><path d="M0 5h19.8v14.9H0zm6.1 5 1.4 1.4" class="st0"/><path d="m8.5 12.4 1.4 1.3 1.3-1.4m1.1-1 1.1-1.2M0 0zm15.2 16.2c0 .2-.2.4-.4.4s-.4-.2-.4-.4.2-.4.4-.4.4.2.4.4zm-9.9 0c0 .2-.2.4-.4.4s-.4-.2-.4-.4c0-.1 0-.2.1-.3s.2-.1.3-.1.2 0 .3.1.1.2.1.3zM0 0" class="st0"/></svg>