<svg xmlns="http://www.w3.org/2000/svg" xml:space="preserve" id="图层_1" x="0" y="0" viewBox="0 0 12.4 25"><style>.st0{fill:none;stroke:#fff;stroke-miterlimit:10}</style><path d="M9.9 23v2m-1.4-6.4L9.9 20v2m-3.8-5.8 1.4 1.4" class="st0"/><path d="M0 5h12.4v15H0z" class="st0"/><path d="m2.3 14.9 2.6 2.5 2.5-2.5m-2.5 2.5V25m0-25v14.4l2.4-.5-4.8-1 4.8-1-4.8-1 4.8-1-4.8-1 2.4-.6" class="st0"/><path d="M6.1 15.6c0 .7-.5 1.2-1.2 1.2s-1.2-.5-1.2-1.2.5-1.2 1.2-1.2c.6 0 1.2.6 1.2 1.2zM0 0" class="st0"/></svg>