<svg xmlns="http://www.w3.org/2000/svg" xml:space="preserve" id="图层_1" x="0" y="0" viewBox="0 0 25 11.9"><style>.st0,.st1{fill:none;stroke:#fff;stroke-miterlimit:10}.st1{stroke-dasharray:1,1}</style><path d="M6.2 8.9c0 .4-.3.7-.7.7s-.7-.3-.7-.7.3-.7.7-.7.7.3.7.7zM8.9 0v8.9m2.9-1.5 1.5 1.5-1.5 1.5M6.3 8.9h11.5" class="st0"/><path d="M6 7.5 4.5 8.9 6 10.4M0 8.9h4.5" class="st0"/><path d="M3 6h11.8v5.9H3zM0 0z" class="st0"/><path d="M9.1 8.9c0 .1-.1.2-.2.2s-.2 0-.2-.2c0-.1.1-.2.2-.2s.2.1.2.2zM0 0" class="st0"/><path d="m8.9 6 2.9-3h4.5v4.5h-1.5m8.9.7L25 9l-1.3.8m-3-.9v1.5m1.5-2.9V9m-2.9 0V7.5" class="st1"/><path d="M17.7 7.5h6v2.9h-6zM0 0" class="st1"/></svg>