<svg xmlns="http://www.w3.org/2000/svg" xml:space="preserve" id="图层_1" x="0" y="0" viewBox="0 0 25 11.2"><style>.st0{fill:none;stroke:#fff;stroke-miterlimit:10}</style><path d="m7.3 7.4.8-.4.1 1.3zM23 4.7l.9.2-.2-1.3zM7.3 4l.8.4.1-1.3zM2 4.7l-.9.2.2-1.3zM19.9 7H19l.5 1.3zm-2.8-2.7h-.9l.5-1.3zM4.8 9.1h15.4M9.7 8.5V2.9m-4.2 0 2.1 4.3m14.7 2.5 1.1-4.9M5.5 8.5l2.1-4.3M2.7 9.7 1.6 4.8m13.7 3.7V2.9m4.2-.1V7m4.8-5.6L24 2.9 23.4.1l-.6 2.8-.6-2.8-.6 2.8L21 .1l-.3 1.5M11.9 7h-1.5m.7 4.2V7m3.5 0h-1.5m.8 4.2V7m-2-2.7h-1.5m.7-4.2v4.2m3.5 0h-1.5m.8-4.2v4.2M.7 1.4 1 2.9 1.6.1l.6 2.8.6-2.8.6 2.8L4 .1l.3 1.5M1.4 8.5l1.4-2.8m19.4 0 1.4 2.8m-6.9 0V4.3M4.8 2.2h15.4M4.2 0v8.5m16.6-5.6H4.2m16.6 5.6V.1" class="st0"/><path d="M4.2 5.7H0v2.8h25V5.7h-4.2" class="st0"/></svg>