<svg xmlns="http://www.w3.org/2000/svg" xml:space="preserve" id="图层_1" x="0" y="0" viewBox="0 0 25 13.9"><style>.st0{fill:none;stroke:#fff;stroke-miterlimit:10}</style><path d="M3.5 8.7H2.1m-.8 0H0V10m0 .7v1m0 .8v1.3h1.3m.8 0h1.3l.9-.9m.4-.3 1-1m.3-.3.9-.9M0 0zm18.4 5.8-1.1-.2.9-1.4zM5.7 5.3H4.6l.5-1.5zm16-.9v-.6h-.5v-.2h.8v.9c-.1.1-.2.1-.4.2-.1 0-.3.1-.4.1-.3 0-.6-.1-.8-.3s-.3-.5-.3-.8.1-.6.3-.8.4-.3.8-.3c.1 0 .3 0 .4.1.1 0 .2.1.3.1V3c-.1-.1-.2-.2-.3-.2s-.2-.1-.4-.1c-.3 0-.5.1-.6.2s-.2.4-.2.6c0 .3.1.5.2.6s.3.2.6.2h.3c.1.1.2.1.2.1zM0 0zm22.1 8.3-1-.5 1-.5m.5-.3 1-.5v1m.1.6v1l-1-.5m.2-6.3v-.9c0-.6.4-1 .9-1 .4 0 .8.4.8 1v.8M19.8 0 25 5.2" class="st0"/><path d="M19.8 0H25v10.4h-5.2zm0 5.2H25M3.5 3.5h6.9v6.9H3.5zm16.3 6.9h-5.2V6.9h5.2M5.2 10.4V5.2m1.7-1.7V0m0 10.4v3.5" class="st0"/><path d="m10.3 8.4.4-1.4.7 3.5.7-3.5.7 3.5.7-3.5.7 3.5.4-1.7M16.4 7l1.7 3.5m-1.6 1.3 1.4-6.2" class="st0"/></svg>