<svg xmlns="http://www.w3.org/2000/svg" xml:space="preserve" id="图层_1" x="0" y="0" viewBox="0 0 25 16.8"><style>.st0{fill:none;stroke:#fff;stroke-miterlimit:10}</style><path d="M4.2 10.5H2.6m-1 0H0v1.6m0 .9v1.2m0 .9v1.6h1.6m.9 0h1.6l1.1-1.1m.5-.4 1.1-1.1m.4-.5 1.1-1.1M0 0zm6.9 6.4H5.6l.7-1.9zm10.2.6-1.3-.3L16.9 5zm-4.6 5.5h6.3m-6.3-4.2h6.3m4.6 1.5V11l-1.2-.6m-.6-.4-1.2-.6 1.2-.6m.6-.3 1.2-.6V9" class="st0"/><path d="M18.8 6.3H25v6.2h-6.2zM4.2 4.2h8.3v8.3H4.2zm2 8.3V6.3m2.1-2V0m0 12.5v4.2m6.3-8.3 2.1 4.2m-1.9 1.6 1.7-7.4" class="st0"/></svg>