<svg xmlns="http://www.w3.org/2000/svg" xml:space="preserve" id="图层_1" x="0" y="0" viewBox="0 0 25 19.3"><style>.st0{fill:none;stroke:#fff;stroke-miterlimit:10}</style><path d="M2.3 14.8 4 11.4m-1.7-1.2L4 13.6m9.6-3.4v3.3m-7.9 1.2v-4.5m4.5 4.5v-4.5m12.6 2.3c0 1.3-1 2.3-2.3 2.3s-2.3-1-2.3-2.3 1-2.3 2.3-2.3c1.2 0 2.3 1 2.3 2.3z" class="st0"/><path d="M0 0h25v17H0z" class="st0"/><path d="M2.9 1.1h3.4v4.6H2.9zm-1.7 9.1h13.6v4.6H1.2zm5.1-9.1h6.8v1.7m-6.8 0H17v4h-2.3" class="st0"/><path d="M17.1 6.3h-2.3V8M4 5.7V1.1M6.3 4H17M6.3 5.7h6.8V4m-.6 1.7V8H9.1v3.4m-.6 0h1.2M3.4 5.7V8h3.4v3.4m-.6 0h1.2M1.7 9.6h12.6m-8.1 4h1.2m-.5 0v5.6m1.6-5.6h1.2m-.6 0v5.7m5.7-7.4h3.5m-.1 1.2h-3.5m4.9-.5v-1.7l.8.8.8-.8v1.7m.1.4v.6h-1.7v.6m-8.2.5v-3.2m-9.7 3.8h12.6M0 0zm3.6 11.2.8-.9-.2 1.2z" class="st0"/><path d="m14.4 7.9.4 1.1.4-1.1zM3.6 13.8l.8.9-.2-1.2zm9.7-.3.4 1.1.4-1.1zm-2.3-2 .4-1.1.4 1.1zM0 0" class="st0"/></svg>