<svg xmlns="http://www.w3.org/2000/svg" xml:space="preserve" id="图层_1" x="0" y="0" viewBox="0 0 15 25"><style>.st0{fill:none;stroke:#fff;stroke-miterlimit:10}</style><path d="m1.3 0 2.4.7-2.4.7 2.4.7-2.4.7 2.4.7-2.4.6 2.4.7-2.4.7 2.2.7M0 6.2h9.9M0 15h15M5 25v-5" class="st0"/><path d="m5 20-5-5V0h9.9v15zM0 0zm11.8 12.6v1.1h.7c.2 0 .4 0 .5-.1s.2-.2.2-.4-.1-.3-.2-.4-.3-.1-.5-.1h-.7zm0-1.3v.9h.6c.2 0 .4 0 .5-.1s.1-.2.1-.3c0-.2 0-.3-.1-.3-.1-.1-.3-.1-.5-.1h-.6z" class="st0"/><path d="M11.4 11h1.1c.3 0 .6.1.7.2q.3.15.3.6c0 .2 0 .3-.1.4s-.2.2-.4.2c.2 0 .4.1.5.3.1.1.2.3.2.5q0 .45-.3.6c-.2.2-.4.2-.8.2h-1.1v-3zm-9 9.6-.6 1.5H3z" class="st0"/><path d="M2.2 20.2h.5l1.2 3h-.5l-.3-.8H1.7l-.3.8H1zM0 0" class="st0"/></svg>