<svg xmlns="http://www.w3.org/2000/svg" xml:space="preserve" id="图层_1" x="0" y="0" viewBox="0 0 17.3 25"><style>.st0{fill:none;stroke:#fff;stroke-miterlimit:10}</style><path d="M4 20.9h.4l1 2.6H5l-.2-.7H3.6l-.2.7H3z" class="st0"/><path d="m4.2 21.2-.5 1.3h1zm7.8-8.4h.9c.3 0 .5.1.6.2s.2.3.2.5 0 .3-.1.4c0 .1-.1.1-.3.1.2 0 .3.1.4.2s.1.3.1.4c0 .2-.1.4-.2.5-.2.1-.4.2-.7.2H12z" class="st0"/><path d="M12.4 13.1v.8h.5c.2 0 .3 0 .4-.1s.1-.2.1-.3 0-.2-.1-.3-.2-.1-.4-.1zm0 1.1v1h.6c.2 0 .3 0 .4-.1s.1-.2.1-.4 0-.3-.1-.4-.2-.1-.4-.1zM0 0zm0 5.4h12.9m0 2.2H0m12.9 2.2h4.4M2.1 11.9H0V0h12.9v11.9h-2.2" class="st0"/><path d="M10.8 7.6v8.7l-4.3 4.3-4.3-4.3V7.6M6.4 25v-4.4m4.4-4.3h4.4M2.1 15.2h8.6M1 0l2.1.6-2.1.6 2.1.6-2.1.6 2.1.6-2.1.6 2.1.6-2.1.6 2.1.6" class="st0"/><path d="M4.8 15.2V19H8v-3.8" class="st0"/></svg>