<svg xmlns="http://www.w3.org/2000/svg" xml:space="preserve" id="图层_1" x="0" y="0" viewBox="0 0 25 12.9"><style>.st0{fill:none;stroke:#fff;stroke-miterlimit:10}</style><path d="M10.8 3.3v-.4h-.3v-.2h.5v.7c-.1.1-.2.1-.3.1h-.3c-.2 0-.4-.1-.6-.2-.1-.1-.2-.3-.2-.6s.1-.5.2-.6c.2-.1.3-.2.6-.2h.3c.1 0 .2.1.3.1v.2c-.1-.1-.2-.1-.3-.1h-.3c-.2 0-.3.1-.4.2s-.2.2-.2.4 0 .4.1.5.2.2.4.2h.2c.2-.1.2-.1.3-.1zm-3.9 0v-.4h-.3v-.2h.6v.7c-.1 0-.2.1-.3.1h-.3c-.3 0-.5 0-.6-.2-.1-.1-.2-.3-.2-.6s.1-.4.2-.6c.1-.1.3-.2.6-.2h.3l.2.2v.2l-.2-.2c-.1 0-.2-.1-.3-.1-.2 0-.3.1-.4.2s-.2.3-.2.5 0 .4.1.5.2.2.4.2h.2c.1-.1.2-.1.2-.1zM0 0zm7.7 3.8v3.9M0 6.4h3.8v3.9H0zm8-4.8V1c0-.4.3-.7.6-.7.4 0 .7.3.7.7v.6M11.5 0 7.7 3.8m9 6.5V5.2m-5.1 0h10.2v5.1H11.6zM3.8 7.7h7.7m.1 2.6H3.8m8.3-5.8h9.1m0 6.4h-9" class="st0"/><path d="m21.7 9.1.3-1.4.5 2.6.5-2.6.5 2.6.5-2.6.5 2.6L25 9M6.4 7.7l-1.3 2.6m1.2 1-1-4.6M18.5 9h1.4m-.7 0v3.9m0-10.4v3.9m-.7 0h1.4m-5.8 3.9V6.4M1.7 7.8 1 7.4v.7m0 .5v.7l.8-.4m.3-.1.8-.4-.8-.4m5.6-8v3.8M4.2 1.6V1c0-.4.3-.7.6-.7s.6.3.6.7v.6M7.7 0 3.9 3.8" class="st0"/><path d="M3.9 0h7.7v3.8H3.9zM0 0zm7.7 10.2V7.7l2.2 1.2zM4.9 6.8l.8-.2-.7-1zm9.6-.4h-.8l.4-1.1zM0 0" class="st0"/></svg>