<svg xmlns="http://www.w3.org/2000/svg" xml:space="preserve" id="图层_1" x="0" y="0" viewBox="0 0 25 8.1"><style>.st0{fill:none;stroke:#fff;stroke-miterlimit:10}</style><path d="M.8 4.5h.1l.2.3.2-.3h.1l-.3.4.3.4h-.1l-.2-.4-.3.4H.7l.3-.4zM2.4 7h.1l.2.3.2-.3H3l-.2.4.2.4h-.1l-.2-.4-.2.4h-.1l.3-.4zM0 0zm23.7 1.2v1.6m.3-1.6v1.6m.3-.8.4-1.3m-1.4.5H25M0 5.1v.7m22.9-3v3.9h-9.2" class="st0"/><path d="M11.1 6.7H2V2.8h22.2" class="st0"/><path d="M8.2 5.5c0 .4-.3.6-.6.6-.4 0-.6-.3-.6-.6s.3-.6.6-.6c.3-.1.6.2.6.6z" class="st0"/><path d="M7.2 5c.2.2.5.2.7 0m-.7.9c.2-.2.5-.2.7 0M0 0zm24.5.6L25 0v.8zM0 0" class="st0"/><path d="M0 5.4h12.4v1.4M3.3 8.1V5.4" style="fill:none;stroke:#fff;stroke-miterlimit:10;stroke-dasharray:5,5"/></svg>