<svg xmlns="http://www.w3.org/2000/svg" xml:space="preserve" id="图层_1" x="0" y="0" viewBox="0 0 15 25"><style>.st0{fill:none;stroke:#fff;stroke-miterlimit:10}</style><path d="M2.2 20.2h.5l1.2 3h-.5l-.3-.8H1.7l-.3.8H1z" class="st0"/><path d="m2.4 20.6-.6 1.5H3zm9-9.6h1c.3 0 .6.1.7.2q.3.15.3.6c0 .2 0 .3-.1.4s-.2.2-.4.2c.2 0 .4.1.5.3.1.1.2.3.2.5q0 .45-.3.6c-.2.2-.5.2-.8.2h-1.1z" class="st0"/><path d="M11.8 11.3v.9h.6c.2 0 .3 0 .4-.1s.2-.2.2-.3 0-.3-.2-.3c-.1-.1-.2-.1-.4-.1h-.6zm0 1.3v1.1h.7c.2 0 .4 0 .5-.1s.2-.2.2-.4-.1-.3-.2-.4-.3-.1-.5-.1h-.7zM0 0zm7.4 10c0 1.4-1.1 2.5-2.4 2.5S2.5 11.3 2.5 10c0-1.4 1.1-2.5 2.5-2.5S7.4 8.6 7.4 10z" class="st0"/><path d="M6.5 8.7c-.7.8-.8 1.7 0 2.6M3.4 8.7c.7.8.8 1.7 0 2.6M6.8 15H5v-1.3" class="st0"/><path d="M3.1 13.7V18h3.6v-4.3M5 11.1v1.3m0-3.8v1.5m0-3.9v1.2M0 6.2h9.9M1.2 0l2.4.7-2.4.7 2.4.7-2.4.7 2.4.7-2.4.7 2.4.7-2.4.6 2.4.7M9.9 15H15M0 13.7h9.9M5 25v-5" class="st0"/><path d="M9.9 0v15l-5 5-5-5V0zM0 0" class="st0"/></svg>