<svg xmlns="http://www.w3.org/2000/svg" xml:space="preserve" id="图层_1" x="0" y="0" viewBox="0 0 15 25"><style>.st0{fill:none;stroke:#fff;stroke-miterlimit:10}</style><path d="M11.5 10.4v1.1h.7c.2 0 .4 0 .5-.1s.2-.2.2-.4-.1-.3-.2-.4-.3-.1-.5-.1h-.7zm0-1.2v.9h.6c.2 0 .4 0 .5-.1s.2-.2.2-.3c0-.2-.1-.3-.2-.3-.1-.1-.2-.1-.5-.1h-.6z" class="st0"/><path d="M11.1 8.8h1c.3 0 .6.1.7.2s.3.3.3.6c0 .2 0 .3-.1.4s-.2.2-.4.2c.2 0 .4.1.5.3.1.1.2.3.2.5q0 .45-.3.6c-.2.1-.4.2-.8.2h-1.1zM3.2 21l-.6 1.5h1.1z" class="st0"/><path d="M3 20.6h.5l1.2 3h-.5l-.3-.8H2.5l-.3.8h-.4zM0 0zm9.9 0v20H0V0zM5 25v-5m-5-2.5h9.9m0-5H15" class="st0"/><path d="m1.2 0 2.4.7-2.4.7 2.4.7-2.4.7 2.4.7-2.4.7 2.4.7-2.4.6 2.4.7M0 6.2h9.9M5 6.2v2m0 1.1v2.1m0 6.1v-5.1M9.9 15H5M3.4 8.7c.7.8.8 1.7 0 2.6m3.1-2.6c-.7.8-.8 1.7 0 2.6M0 0zm5.6 15c0 .2-.1.3-.2.5-.1.1-.3.2-.5.2s-.3-.1-.5-.2-.1-.3-.1-.5.1-.3.2-.5c.1-.1.3-.2.5-.2s.3.1.5.2.1.4.1.5zM0 0" class="st0"/></svg>