<svg xmlns="http://www.w3.org/2000/svg" xml:space="preserve" id="图层_1" x="0" y="0" viewBox="0 0 25 6.3"><style>.st0,.st1{fill:none;stroke:#fff;stroke-miterlimit:10}.st1{stroke-dasharray:5,5}</style><path d="M4.2 1.7c.2.2.2.6 0 .8m.9-.8c-.2.3-.2.6 0 .8" class="st0"/><path d="M4.7 2.9c-.4 0-.8-.3-.8-.8 0-.4.3-.8.8-.8s.8.3.8.8c-.1.5-.4.8-.8.8z" class="st0"/><path d="M10.9 4.7H0V0h25v4.7H14M0 0zm22.7 6v-.4l-.4-.5h.1l.2.3c0 .1.1.1.1.2 0 0 .1-.1.1-.2l.2-.3h.1l-.4.5zM20 5.9V6h-.6v-.1s0-.1.1-.1l.1-.1c.1-.1.2-.1.2-.2l.1-.1s0-.1-.1-.1h-.1c-.1 0-.1 0-.1.1 0 0 0 .1-.1.1h-.1c0-.1 0-.2.1-.2s.1-.1.2-.1.2 0 .2.1c.1-.1.1 0 .1 0v.1s0 .1-.1.1l-.2.2-.1.1v.1zm-1.4.1v-.1l.4-.6.1-.1h-.5v-.1h.7v.1l-.5.6-.1.1h.6V6zM4.4 6h-.2v-.7l-.1.1s-.1 0-.1.1v-.2c.1 0 .1-.1.2-.1l.1-.1h.1zM3.1 6v-.1l.5-.6.1-.1h-.5v-.1h.7v.1l-.6.7h-.1.6V6zM.5 5.1h.1l.2.4.2-.4h.1l-.2.4.4.5h-.2l-.3-.4-.2.4H.4l.3-.5zM0 0" class="st0"/><path d="M0 0zm20.3 6.3V0m3.1 6.3V0M4.7 6.3V0M1.5 6.3V0m3.2 3.5h7.8v1.2M0 0z" class="st1"/><path d="M4.8 3.5s0 .1 0 0l-.1.1c-.1 0-.1-.1-.1-.1 0-.1.1-.1.1-.1l.1.1c0-.1 0 0 0 0zM0 0" class="st1"/></svg>