<svg xmlns="http://www.w3.org/2000/svg" xml:space="preserve" id="图层_1" x="0" y="0" viewBox="0 0 25 12.5"><style>.st1{fill:none;stroke:#fff;stroke-miterlimit:10;stroke-dasharray:5,5}</style><path d="M.4 11.2h.1l.2.4.3-.4h.1l-.3.5.3.5H1l-.3-.4-.3.4.3-.5zm2.7 1V12l.5-.6.1-.1h-.5v-.1h.7v.1l-.6.7h.6v.1h-.8zm1.3 0h-.1v-.7l-.1.1s-.1 0-.1.1v-.1c.1 0 .1-.1.2-.1l.1-.1h.1v.8zm17.9-1h.1l.3.4.3-.4h.1l-.3.5v.5h-.1v-.5zM0 0" style="fill:none;stroke:#fff;stroke-miterlimit:10"/><path d="M0 0zm7.8 3.1h1.6v3.1m14.1 6.3V6.2h-3.2m-3.1 0-1.6-1.6V3.1H18v1.5M1.6 12.5V3.1h1.6m9.3 3.1V11" class="st1"/><path d="M4.7 12.5V6.2h12.5M0 0zm7 3.4v-.6l.8.3z" class="st1"/><path d="M9.5 6.2c0 .1-.1.1-.1.1s-.1 0-.1-.1.1-.1.1-.1zm9.8 3.1.1-.5.7.4zm.1-3.6v-.5l.8.3zm-6.8.5c0 .1-.1.1-.1.1-.1 0-.1-.1-.1-.1 0-.1.1-.1.1-.1.1 0 .1 0 .1.1zM3.9 4c.6-.6 1.7-.6 2.4 0M3.9 2.2c.6.6 1.7.6 2.4 0m-3.2.9H7" class="st1"/><path d="M3.1 1.5h4.7v3.1H3.1zm14.1 3.9h2.2m-2.2-.8h3.1v3.1h-3.1z" class="st1"/><path d="M10.9 10.9H0V0h25v10.9H14" class="st1"/><path d="m18 7.8.8.2-1.6.3 1.6.3-1.6.3 1.6.3-1.6.3.8.3m-1.4-1.4 2.8.6" class="st1"/></svg>