<svg xmlns="http://www.w3.org/2000/svg" xml:space="preserve" id="图层_1" x="0" y="0" viewBox="0 0 25 12.5"><style>.st0,.st1{fill:none;stroke:#fff;stroke-miterlimit:10}.st1{stroke-dasharray:5,5}</style><path d="M4.7 12.5V6.2h12.5m-4.7 0V11" class="st0"/><path d="M1.6 12.5v-11h18v.7" class="st0"/><path d="m17.2 6.2-1.6-1.6V3.1H18v1.5" class="st0"/><path d="M23.5 12.5V6.2h-3.2M0 0zm.4 11.2h.1l.2.4.3-.4h.1l-.3.5.3.5H1l-.3-.4-.3.4.3-.5zm2.7 1V12l.5-.6.1-.1h-.5v-.1h.7v.1l-.6.7h.6v.1h-.8zm1.3 0h-.1v-.7l-.1.1s-.1 0-.1.1v-.1c.1 0 .1-.1.2-.1l.1-.1h.1v.8z" class="st1"/><path d="M22.3 11.2h.1l.3.4.3-.4h.1l-.3.5v.5h-.1v-.5zM0 0zm18.8 4.6V2.3h1.6v2.3" class="st1"/><path d="M10.9 10.9H0V0h25v10.9H14" class="st1"/><path d="M17.2 4.6h3.1v3.1h-3.1zm0 .8h2.2m-2.8 3 2.8.6M18 7.8l.8.2-1.6.3 1.6.3-1.6.3 1.6.3-1.6.3.8.3M12 9c.2.2.2.6 0 .8m1-.8c-.2.2-.2.6 0 .8" class="st1"/><path d="M12.5 10.1c-.4 0-.8-.3-.8-.8 0-.4.3-.8.8-.8s.8.3.8.8-.4.8-.8.8zM0 0zm19.5 3.7-.7-1.4h1.5zm-6.9 2.5c0 .1-.1.1-.1.1-.1 0-.1-.1-.1-.1 0-.1.1-.1.1-.1.1 0 .1 0 .1.1zm6.8-.5v-.5l.8.3zm-.1 3.6.1-.5.7.4zM0 0" class="st1"/></svg>