<svg xmlns="http://www.w3.org/2000/svg" xml:space="preserve" id="图层_1" x="0" y="0" viewBox="0 0 25 23.5"><style>.st0,.st1{fill:none;stroke:#fff;stroke-miterlimit:10}.st1{stroke-dasharray:5,5}</style><path d="M12.5 15.6v-1.5H4.7m15.6 3.1V1.6h-5.5" class="st0"/><path d="M4.7 17.2V1.6h8.6" class="st0"/><path d="M1.6 17.2V7.8h11.7V6.3" class="st0"/><path d="M14.9 6.3v1.5h8.6v9.4M0 0zm14.6 19.6v.3h.4l.1-.1c0-.1 0-.1-.1-.1h-.4zm0-.4v.3h.3v-.2h-.3z" class="st1"/><path d="M14.5 19.1h.3c.1 0 .2 0 .2.1.1 0 .1.1.1.2v.1l-.1.1c.1 0 .1 0 .1.1 0 0 .1.1.1.2s0 .1-.1.2c-.1-.1-.1-.1-.2-.1h-.3v-.9zm-2.8 3-.2.5h.4z" class="st1"/><path d="M11.6 22h.1l.4 1H12l-.1-.2h-.4l-.1.2h-.1zM.4 15.9h.1l.2.4.3-.4h.1l-.3.5.3.5H1l-.3-.4-.3.4.3-.5zm2.7 1v-.1l.5-.6.1-.1h-.5V16h.7l-.5.6-.1.1h.6v.1h-.8zm1.3 0h-.1v-.7l-.1.1s-.1 0-.1.1v-.1c.1 0 .1-.1.2-.1l.1-.1h.1v.8zm14.2 0v-.1l.5-.6.1-.1h-.5V16h.7v.1l-.5.6-.1.1h.6v.1z" class="st1"/><path d="M20 16.8v.1h-.6v-.1s0-.1.1-.1l.1-.1c.1-.1.2-.1.2-.2s.1-.1.1-.1 0-.1-.1-.1h-.2s0 .1-.1.1h-.1c0-.1 0-.2.1-.2s.1-.1.2-.1.2 0 .2.1c.1 0 .1.1.1.2v.1s0 .1-.1.1l-.2.2-.1.1v.1h.4zm2.6.1v-.4l-.4-.5h.2l.2.3c0 .1.1.1.1.2 0 0 .1-.1.1-.2l.2-.3h.1l-.4.5v.4zM13.9 2.3v.3h.4l.1-.1c0-.1 0-.1-.1-.1h-.4zm0-.4v.3h.2V2h-.2z" class="st1"/><path d="M13.7 1.8h.3c.1 0 .2 0 .2.1.1 0 .1.1.1.2v.1l-.1.1c.1 0 .1 0 .1.1 0 0 .1.1.1.2s0 .1-.1.2c-.1 0-.1.1-.2.1h-.3V1.8zm-1.2.2-.2.5h.4z" class="st1"/><path d="M12.4 1.8h.1l.4 1h-.1l-.1-.2h-.4l-.1.2h-.1zM12.3 7h.4v-.2l-.1-.1h-.3z" class="st1"/><path d="M12.2 7.5v-1h.6l.1.1v.1c0 .1 0 .1-.1.2s-.1.1-.3.1h-.2v.4h-.1zm1.8 0v-.8h-.3v-.2h.7v.1h-.3v.8H14zM0 0zm11.2 3.8.5-.6-.1.8zm-.1 1.8.5.6-.1-.8zM13 4l.2-.8.3.8zm1.6 1.4.2.8.2-.8zm-6.8.9.8-1.6m.8 1.6H7V4.7h2.3M0 9.4h25M12.5 3.1v3.1m2.4-.8V1.6M13.3 4v2.3m-2-.8-1.1-2.4" class="st1"/><path d="M9.4 3.1h6.2v3.1H9.4zM0 0" class="st1"/><path d="m15.6 5.5.2-.7.3 1.6.3-1.6.3 1.6.3-1.5.3 1.6.2-.8M1.6 11.9c-.4 0-.8-.3-.8-.8 0-.4.3-.8.8-.8.4 0 .8.3.8.8-.1.5-.4.8-.8.8zM0 0" class="st1"/><path d="M2 10.7c-.2.2-.2.6 0 .8m-.9-.8c.2.2.2.6 0 .8m3.6.4c-.4 0-.8-.3-.8-.8 0-.4.3-.8.8-.8s.8.3.8.8-.4.8-.8.8zM0 0" class="st1"/><path d="M5.2 10.7c-.2.2-.2.6 0 .8m-1-.8c.2.2.2.6 0 .8m19.3.4c-.4 0-.8-.3-.8-.8 0-.4.3-.8.8-.8.4 0 .8.3.8.8-.1.5-.4.8-.8.8zM0 0" class="st1"/><path d="M23.9 10.7c-.2.2-.2.6 0 .8m-.9-.8c.2.2.2.6 0 .8m-11.1 8.4h1.2v1.4l-.1.1h-1l-.1-.1zm-.5-16-1.2 2.4" class="st1"/><path d="M25 15.6H0V0h25zM13.3 3.1V1.6m.8 14v4.7l-1.6 1.6-1.6-1.6v-4.7m1.6 7.9v-1.6m1.6-1.6h1.6m-4.8-.4H14m-3.1-2.3H14" class="st1"/><path d="m11.3 15.6.8.2-.8.2.8.2-.8.2.8.2-.8.2.8.2-.8.2.8.2M0 0zm4.8 14.1c0 .1-.1.1-.1.1-.1 0-.1-.1-.1-.1 0-.1 0-.1.1-.1s.1 0 .1.1zM0 0" class="st1"/></svg>