<svg xmlns="http://www.w3.org/2000/svg" xml:space="preserve" id="图层_1" x="0" y="0" viewBox="0 0 25 23.5"><style>.st0,.st1{fill:none;stroke:#fff;stroke-miterlimit:10}.st1{stroke-dasharray:5,5}</style><path d="M14.9 18h5.5V1.6h-5.5v1.6m-1.6-.1V1.6H4.7v10.9h7.8v1.9" class="st0"/><path d="M1.6 20.4V7.8h11.7V6.3" class="st0"/><path d="M14.9 6.3v1.5h8.6v12.6M0 0zm14 7.5v-.8h-.3v-.2h.7v.1h-.3v.8H14zm-1.8 0v-1h.6l.1.1v.1c0 .1 0 .1-.1.2s-.1.1-.3.1h-.2v.4h-.1z" class="st1"/><path d="M12.3 7h.4v-.2l-.1-.1h-.3zm.1-5.2h.1l.4 1h-.1l-.1-.2h-.4l-.1.2h-.1z" class="st1"/><path d="m12.5 2-.2.5h.4zm1.2-.2h.3c.1 0 .2 0 .2.1.1 0 .1.1.1.2v.1l-.1.1c.1 0 .1 0 .1.1 0 0 .1.1.1.2s0 .1-.1.2c-.1 0-.1.1-.2.1h-.3V1.8z" class="st1"/><path d="M13.9 1.9v.3h.2V2h-.2zm0 .4v.3h.4l.1-.1c0-.1 0-.1-.1-.1h-.4zM22.6 20v-.4l-.4-.5h.1l.2.3c0 .1.1.1.1.2 0 0 .1-.1.1-.2l.2-.3h.1l-.4.5zM.4 19.1h.1l.2.4.3-.4h.1l-.3.5.4.4H1l-.3-.4-.2.4H.4l.3-.5zM11.6 22h.1l.4 1H12l-.1-.2h-.4l-.1.2h-.1z" class="st1"/><path d="m11.7 22.1-.2.5h.4zm2.8-3h.3c.1 0 .2 0 .2.1.1 0 .1.1.1.2v.1l-.1.1c.1 0 .1 0 .1.1 0 0 .1.1.1.2s0 .1-.1.2c-.1-.1-.1-.1-.2-.1h-.3v-.9z" class="st1"/><path d="M14.6 19.2v.3h.3v-.2h-.3zm0 .4v.3h.4l.1-.1c0-.1 0-.1-.1-.1h-.4zM0 0zm14.6 5.4.2.8.2-.8zM13 3.9l.2-.8.2.8zm-1.9 1.7.5.6-.1-.8zm0-1.8.5-.6-.1.8zm-.9 14.9v-4.3h4.7v4.3m-4.7-2.3h4.7" class="st1"/><path d="m10.5 14.4.8.2-.8.2.8.2-.8.2.8.2-.8.2.8.2-.8.2.8.2m-1.1 1h4.7m-4 2.7H14m.1.4h1.6m-3.2 3.2v-1.6m1.6-4.7v3.1l-1.6 1.6-1.6-1.6v-3.1" class="st1"/><path d="M10.9 18.7H0V0h25v18.7H14.1M11.3 3.9l-1.2 2.3m1.8 13.7h1.2v1.4l-.1.1h-1l-.1-.1z" class="st1"/><path d="M23 10.7c.2.2.2.6 0 .8m.9-.8c-.2.2-.2.6 0 .8" class="st1"/><path d="M23.5 11.9c-.4 0-.8-.3-.8-.8 0-.4.3-.8.8-.8.4 0 .8.3.8.8-.1.5-.4.8-.8.8zM4.2 10.7c.2.2.2.6 0 .8m1-.8c-.2.2-.2.6 0 .8" class="st1"/><path d="M4.7 11.9c-.4 0-.8-.3-.8-.8 0-.4.3-.8.8-.8s.8.3.8.8-.4.8-.8.8zm-3.6-1.2c.2.2.2.6 0 .8m.9-.8c-.2.2-.2.6 0 .8" class="st1"/><path d="M1.6 11.9c-.4 0-.8-.3-.8-.8 0-.4.3-.8.8-.8.4 0 .8.3.8.8-.1.5-.4.8-.8.8zm14-6.4.2-.7.3 1.6.3-1.6.3 1.6.3-1.5.3 1.6.2-.8" class="st1"/><path d="M9.4 3.1h6.2v3.1H9.4zm1.9 2.4-1.2-2.4m3.2.8v2.3m1.6-.8V3.1m-2.4 0v3.1M0 9.4h25M9.4 6.3H7V4.7h2.3M7.8 6.3l.8-1.6" class="st1"/></svg>