<svg xmlns="http://www.w3.org/2000/svg" xml:space="preserve" id="图层_1" x="0" y="0" viewBox="0 0 25 17.2"><style>.st1{fill:none;stroke:#fff;stroke-miterlimit:10;stroke-dasharray:5,5}</style><path d="M13.6 4.3v4.3m7.8-4.3h2.1V10m-4.9-5.7-1.4-1.4V1.4h2.2v1.4M0 4.3h18.6m-5 11.4h-10V4.3" style="fill:none;stroke:#fff;stroke-miterlimit:10"/><path d="M6.4 4.3V10M0 0zm0 3.9v.8m18.6-1.9h2.9v2.9h-2.9zm1.9 4.1L18 6.3m1.3-.6.7.2-1.4.3 1.4.2-1.4.3L20 7l-1.4.3.8.2m-15.8.3c-.4 0-.7-.3-.7-.7s.3-.7.7-.7.7.3.7.7-.3.7-.7.7z" class="st1"/><path d="M4 6.8c-.2.2-.2.5 0 .7m-.9-.7c.2.2.2.5 0 .7m10.5.3c-.4 0-.7-.3-.7-.7s.3-.7.7-.7.7.3.7.7-.3.7-.7.7z" class="st1"/><path d="M14 6.8c-.2.2-.2.5 0 .7m-.9-.7c.2.2.2.5 0 .7m7.5-4h-2.1" class="st1"/><path d="M2.2 8.6V0H25v8.6zm12.8 0v4.3l-1.4 1.4-1.4-1.4V8.6m1.4 8.6v-2.9m-1.4-1.4h4.3m-4.3-2.5H15" class="st1"/><path d="m12.5 8.6.7.2-.7.2.7.2-.7.2.7.2-.7.2.7.2-.7.2.7.2M0 0zm22.8 9.7v-.4l-.3-.5h.1l.2.3.1.1s.1-.1.1-.2l.2-.3h.1l-.3.5v.4h-.2zm-7.3 2.5v.3h.3v-.2h-.3zm0-.4v.3h.3v-.2h-.3z" class="st1"/><path d="M15.4 11.7h.3c.1 0 .2 0 .2.1 0 0 .1.1.1.2v.1l-.1.1c.1 0 .1 0 .1.1v.1c0 .1 0 .1-.1.2-.1 0-.1.1-.2.1h-.3zm-2.9 2.8-.2.4h.3z" class="st1"/><path d="M12.4 14.4h.1l.3.9h-.1V15h-.4l-.1.2h-.1zM1.1 3.1h.1l.2.3.2-.3h.1l-.2.4.3.5h-.1l-.3-.4-.2.4h-.1l.3-.5zm1.4 5.7h.1l.2.3.2-.3h.1l-.2.5.3.5h-.1l-.2-.5-.3.4h-.1l.3-.5zm2.5.9v-.1l.5-.6.1-.1h-.5v-.1h.6v.1l-.5.6v.1h.5v.1zm1.2 0h-.1V9S6 9 6 9.1c0 0-.1 0-.1.1v-.1C5.9 9 6 9 6 9l.1-.1h.1zM0 0zm20.6 3.4.7.2-.7.2zm-.1 3.7.7-.1-.6-.4zm-6.8 8.6c0 .1-.1.1-.1.1-.1 0-.1-.1-.1-.1 0-.1.1-.1.1-.1s.1 0 .1.1zm0-11.4c0 .1-.1.1-.1.1-.1 0-.1-.1-.1-.1 0-.1.1-.1.1-.1s.1 0 .1.1zm-7.2 0c0 .1-.1.1-.1.1-.1 0-.1-.1-.1-.1 0-.1.1-.1.1-.1.1 0 .1 0 .1.1zm-2.8 0c0 .1-.1.1-.1.1-.1 0-.1-.1-.1-.1 0-.1.1-.1.1-.1s.1 0 .1.1zM0 0" class="st1"/></svg>