<svg xmlns="http://www.w3.org/2000/svg" xml:space="preserve" id="图层_1" x="0" y="0" viewBox="0 0 25 12.5"><style>.st1{fill:none;stroke:#fff;stroke-miterlimit:10;stroke-dasharray:5,5}</style><path d="M20.1 12.1v.1h-.6v-.1s0-.1.1-.1c0 0 .1-.1.2-.1.1-.1.2-.1.2-.2l.1-.1v-.1H20c-.1 0-.1 0-.1.1l-.1.1h-.1c0-.1 0-.2.1-.2s.1-.1.2-.1.2 0 .2.1c.1 0 .1.1.1.2v.1s0 .1-.1.1l-.2.2-.1.1v.1h.2zm-1.5.1v-.1l.5-.6.1-.1h-.5v-.1h.7v.1l-.6.6-.1.1h.6v.1zm-14.2 0h-.1v-.7l-.1.1s-.1 0-.1.1v-.1c.1 0 .1-.1.2-.1l.1-.1h.1v.8zm-1.3 0v-.1l.5-.6.1-.1h-.5v-.1h.7v.1l-.6.6-.1.1h.6v.1zm-2.7-1h.1l.2.4.3-.4h.1l-.3.5.3.5H1l-.3-.4-.3.4.3-.5zM0 0" style="fill:none;stroke:#fff;stroke-miterlimit:10"/><path d="M0 0zm12.5 3.1V11m-11 1.5V3.1h7.8" class="st1"/><path d="M4.7 12.5V5.4h12.5V3.1h-1.6" class="st1"/><path d="M20.3 12.5V7h-7.8M0 0zm14.7 3.1c0 .1 0 .2-.1.3s-.2.1-.3.1c-.2 0-.4-.2-.4-.4s.2-.4.4-.4c.1 0 .2 0 .3.1 0 .1.1.2.1.3zm-5.3 0h4.5" class="st1"/><path d="m14.1 3.9.8-.8-.8-.8M11 3.9l-.8-.8.8-.8" class="st1"/><path d="M9.4 1.5h6.3v3.1H9.4z" class="st1"/><path d="M10.9 10.9H0V0h25v10.9H14" class="st1"/><path d="M12.5 10.1c-.4 0-.8-.3-.8-.8 0-.4.3-.8.8-.8s.8.3.8.8-.4.8-.8.8z" class="st1"/><path d="M13 9c-.2.2-.2.6 0 .8M12 9c.2.2.2.6 0 .8m2.9-6.7h.8M0 0zm12.6 7s0 .1 0 0l-.1.1c-.1 0-.1-.1-.1-.1 0-.1.1-.1.1-.1s.1 0 .1.1c0-.1 0 0 0 0zm0-3.9q0 .15 0 0l-.1.1c-.1 0-.1-.1-.1-.1 0-.1.1-.1.1-.1s.1 0 .1.1zM0 0" class="st1"/></svg>