<svg xmlns="http://www.w3.org/2000/svg" xml:space="preserve" id="图层_1" x="0" y="0" viewBox="0 0 19.8 25"><style>.st0,.st1{fill:none;stroke:#fff;stroke-miterlimit:10}.st1{stroke-dasharray:5,5}</style><path d="M10.4 5v-.6h-.2.5v.1h-.2zM9.1 5v-.6h.4l.1.1v.1c0 .1 0 .1-.1.1 0 0-.1.1-.2.1h-.1z" class="st0"/><path d="M9.2 4.7h.3v-.2h-.3zm1.1-3.1v.2h.2v-.2zm0-.3v.2h.2v-.2z" class="st0"/><path d="M10.2 1.2h.4l.1.1v.1h-.1s.1 0 .1.1v.1c0 .1 0 .1-.1.1h-.4zm-.9.1-.1.3h.2z" class="st0"/><path d="m9.3 1.2.3.6h-.1v-.1h-.3l-.1.1zm9.4 14.2v-.3l-.2-.4h.1l.1.2s0 .1.1.1c0 0 0-.1.1-.1l.1-.2-.2.4zm-2.1 4.2v-.3l-.2-.3h.1l.1.2s0 .1.1.1c0 0 0-.1.1-.1l.1-.2h.1l-.2.4zm-5.3 1.8v.2h.2v-.2zm0-.3v.2h.2v-.2z" class="st0"/><path d="M11.2 21h.4l.1.1v.1h-.1s.1 0 .1.1v.1c0 .1 0 .1-.1.1h-.4zm-2.1 2-.1.4h.2z" class="st0"/><path d="m9 23 .3.6-.1-.2H9l-.1.2h-.1zM.8 14.8l.2.2.2-.2h.1l-.2.3.2.3h-.1l-.2-.3-.2.3.2-.3zm1 4.1.2.2.2-.2h.1l-.2.3.2.3-.2-.3-.2.3h-.1l.2-.3zM0 0zm8.7 3.6.1.5-.4-.4zm.1-1 .1-.5-.4.4zm2.3 1-.2.5-.2-.5zm-1.1-1-.1-.5-.2.5zm2.6 7.2-.2.5-.2-.5zM15 9v-.5l-.3.5zm0 6 .5.2-.5.1zm-.1 2.7h.5l-.4-.3zM10 23.9c0 .1-.1.1 0 0-.1.1-.2 0-.2 0h.2c-.1 0 0 0 0 0zm0-8.3c0 .1-.1.1 0 0-.1.1-.2 0-.2 0s0-.1.2 0c-.1-.1 0 0 0 0zm-7.3 0q0 .15 0 0c-.1.1-.2 0-.2 0s.1-.1.2 0c0-.1 0 0 0 0zm14.5 0q0 .15 0 0c-.1.1-.2 0-.2 0 .1 0 .1-.1.2 0 0-.1 0 0 0 0zm0-4.2q0 .15 0 0c-.1.1-.2 0-.2 0zM0 0" class="st0"/><path d="M17 18.7v1.1M10.9 4.2v1h6.2v14.6m-1.5-4.2h4.2M0 15.6h13.5m-3.6 8.3H2.6v-8.3M9.9 4.2v14.6m3.6-3.2-1-1v-1H14v1" class="st1"/><path d="M10.9 2.1V1h4.2v6.2H13v1m0 .1-1-1h-1.1v1.6h1m1.1 1.5v1h4.2M0 0zm0 15.3v.6m13.5-1.3h2.1v2.1h-2.1zm1.4 2.9-1.8-.4" class="st1"/><path d="m14.1 16.7.5.1-1 .2 1 .2-1 .2 1 .2-1 .2.5.1m-11.5.3c-.3 0-.5-.2-.5-.5s.2-.5.5-.5.5.2.5.5-.2.5-.5.5zM0 0" class="st1"/><path d="M2.9 17.4c-.2.1-.1.4 0 .5m-.6-.5c.2.1.1.4 0 .5M9.9 14c-.3 0-.5-.2-.5-.5s.2-.5.5-.5.5.2.5.5-.2.5-.5.5zM0 0" class="st1"/><path d="M10.2 13.3c-.2.1-.1.4 0 .5m-.6-.5c.2.1.1.4 0 .5m5.4 1.3h-1.5" class="st1"/><path d="M1.6 18.7V0h16.6v18.7zm9.3 0v3.1l-1 1-1-1v-3.1m1 6.3v-2.1m-1.1-1H12M8.8 20h2.1" class="st1"/><path d="m9.1 18.7.5.2-.5.1.5.1-.5.1.5.1-.5.1.5.1-.5.1.5.4m5.3-11-.4 1.8m-.5-.9.1-.5.2 1 .2-1 .2 1 .2-1 .2 1 .1-.5m-2.5-6.2-.1.5-.2-1-.2 1-.2-1-.2 1-.2-1-.1.5m8.3 11.6v.6M12 8.3h2v2.1h-2zm.5 1.5V8.3M7.3 2.1h4.2v2.1H7.3zm2.6.5v1.5m1-.5V2.1m-2.3.5-.8 1.5m.8-.5-.8-1.5" class="st1"/><path d="M7.3 4.1H5.7v-1h1.6m-.5 0-.5 1m3.6-2V1m-.3 0h.6m-.8 1.1v2.1m8.8 2H1.6m16.6 6.3H1.6" class="st1"/></svg>