<svg xmlns="http://www.w3.org/2000/svg" xml:space="preserve" id="图层_1" x="0" y="0" viewBox="0 0 25 24"><style>.st0{fill:none;stroke:#fff;stroke-miterlimit:10}</style><path d="M7.2 13.2H0v-2.4h7.2m16.6-2.6c.8 2.2 1 4.4.4 6.4m-10 9.4v-4.9m0-19.1v4.9" class="st0"/><path d="M21.3 12c0 3.9-3.2 7.1-7.1 7.1S7.1 15.9 7.1 12s3.2-7.1 7.1-7.1 7.1 3.2 7.1 7.1z" class="st0"/><path d="M23.1 3.1 3.4 22.8M19.2 17l4.5 4.6V24M0 0zm11.7 14.9 2.5 4.2 2.5-4.2zm13-.3-1.2 2 .2-2.3zm-13-5.5 2.5-4.2 2.5 4.2zm10.8-6.6L25 1.2l-1.3 2.5zM0 0" style="fill:none;stroke:#fff;stroke-miterlimit:10;stroke-dasharray:5,5"/></svg>