<svg xmlns="http://www.w3.org/2000/svg" xml:space="preserve" id="图层_1" x="0" y="0" viewBox="0 0 25 24.3"><style>.st0{fill:none;stroke:#fff;stroke-miterlimit:10}</style><path d="M7.3 13.3H0v-2.4h7.2M24 8.3c.8 2.2 1 4.5.4 6.5m-10.1 9.5v-4.9m0-19.4v5" class="st0"/><path d="M21.5 12.1c0 4-3.2 7.2-7.2 7.2-1.9 0-3.7-.8-5.1-2.1S7.1 14 7.1 12.1c0-4 3.2-7.2 7.2-7.2 4 .1 7.2 3.3 7.2 7.2zM0 0z" class="st0"/><path d="m11.8 18.9 2.5-4.2 2.6 4.2c-.8.3-1.7.5-2.6.5-.9-.1-1.7-.3-2.5-.5zm0-9.7L14.3 5l2.6 4.2zm13.1 5.6-1.2 2 .2-2.3zM0 0" class="st0"/></svg>