<svg xmlns="http://www.w3.org/2000/svg" xml:space="preserve" id="图层_1" x="0" y="0" viewBox="0 0 25 21.9"><style>.st1{fill:none;stroke:#fff;stroke-miterlimit:10;stroke-dasharray:5,5}</style><path d="M21.7 6.2h1.7v7.9M12.5 6.3v6.2m6.1-6.2L17 4.7V3.1h2.4v1.6" style="fill:none;stroke:#fff;stroke-miterlimit:10"/><path d="M12.5 20.3H1.6v-14h17M0 0zm.4 12.8h.1l.2.4.3-.4h.1l-.3.5.3.5-.3-.4-.3.4H.4l.3-.5z" class="st1"/><path d="M11.2 19h.1l.4.9h-.1l-.1-.2h-.4l-.1.3h-.1z" class="st1"/><path d="m11.3 19.2-.2.5h.3zm3.2-3.3h.3c.1 0 .2 0 .2.1.1 0 .1.1.1.2v.1l-.1.1c.1 0 .1 0 .1.1 0 0 .1.1.1.2s0 .2-.1.2-.1.1-.2.1h-.3v-1.1z" class="st1"/><path d="M14.6 16v.3h.3v-.2h-.3zm0 .4v.3h.4l.1-.1s0-.1-.1-.1h-.4zm8-2.6v-.4l-.4-.5h.1l.2.3c0 .1.1.1.1.2 0 0 .1-.1.1-.2l.2-.3h.1l-.4.5zM0 0zm13 9.2c-.2.3-.2.5 0 .8m-1-.8c.2.3.2.5 0 .8" class="st1"/><path d="M13.3 9.6c0 .4-.3.8-.8.8-.4 0-.8-.3-.8-.8s.3-.8.8-.8c.4 0 .8.4.8.8zM2 9.2c-.2.3-.2.5 0 .8m-.9-.8c.2.3.2.5 0 .8" class="st1"/><path d="M2.3 9.6c0 .4-.3.8-.8.8-.4 0-.8-.3-.8-.8s.3-.8.8-.8.8.4.8.8zm9.1 2.9.7.2-.7.3.7.2-.7.2.7.2-.7.2.7.2-.7.2.8.2m-1.3.1H14m-3.1 2.7h4.7m-3.1 4.7v-3.2" class="st1"/><path d="M14.1 12.5v6.2H11v-6.2m-11 0V0h25v12.5zm20.8-7h-2.3" class="st1"/><path d="m19.4 7.8.7.2-1.6.3 1.6.3-1.5.4 1.5.3-1.6.3.8.2m1.4-.7L18 8.5" class="st1"/><path d="M18.6 4.7h3.1v3.1h-3.1zM10.9 18H14m-1.5 0v-.8M0 0zm12.6 20.3c0 .1-.1.1-.1.1-.1 0-.1-.1-.1-.1 0-.1.1-.1.1-.1.1 0 .1.1.1.1zm0-14.1c0 .1-.1.1-.1.1-.1 0-.1-.1-.1-.1 0-.1.1-.1.1-.1.1 0 .1.1.1.1zm0 11c0 .1-.1.1-.1.1-.1 0-.1-.1-.1-.1 0-.1.1-.1.1-.1.1-.1.1 0 .1.1zm8-7.9.8-.1-.7-.4z" class="st1"/><path d="m20.8 5.2.8.2-.8.2zM0 0" class="st1"/></svg>