<svg xmlns="http://www.w3.org/2000/svg" xml:space="preserve" id="图层_1" x="0" y="0" viewBox="0 0 25 24"><style>.st0{fill:none;stroke:#fff;stroke-miterlimit:10}</style><path d="M7.2 13.2H0v-2.4h7.2m17-1.3c.4 1.8.5 3.5 0 5.1m-10 9.4v-4.9m0-19.1v4.9" class="st0"/><path d="M21.3 12c0 3.9-3.2 7.1-7.1 7.1S7.1 15.9 7.1 12s3.2-7.1 7.1-7.1 7.1 3.2 7.1 7.1z" class="st0"/><path d="M23.1 3.1 3.4 22.8M19.2 17l4.5 4.6V24M0 0zm14.2 19.1c-.4 0-.8 0-1.3-.1l2.6-4.2h-2.6l2.6 4.2c-.4.1-.9.1-1.3.1zm0-14.2c-.5 0-.8 0-1.3.1l2.6 4.2h-2.6L15.5 5c-.3 0-.9-.1-1.3-.1zm10.5 4.6-1.2-2 .2 2.3zm0 5.1-1.2 2 .2-2.3zM22.5 2.5 25 1.2l-1.3 2.5zM0 0" style="fill:none;stroke:#fff;stroke-miterlimit:10;stroke-dasharray:5,5"/></svg>