<svg xmlns="http://www.w3.org/2000/svg" xml:space="preserve" id="图层_1" x="0" y="0" viewBox="0 0 25 23.7"><style>.st1{fill:none;stroke:#fff;stroke-miterlimit:10;stroke-dasharray:5,5}</style><path d="M12.6 22.4c0 .1 0 .1-.1.1s-.1 0-.1-.1 0-.1.1-.1.1 0 .1.1zM3.4 11.8c0 .1 0 .1-.1.1s-.1 0-.1-.1 0-.1.1-.1.1.1.1.1zm18.4 0c0 .1 0 .1-.1.1s-.1 0-.1-.1 0-.1.1-.1.1.1.1.1zm-9.2 0c0 .1 0 .1-.1.1s-.1 0-.1-.1 0-.1.1-.1.1.1.1.1zM0 0" style="fill:none;stroke:#fff;stroke-miterlimit:10"/><path d="M9.9 4h11.8v13.2m-2-5.4H25m-12.5 0v3.9" class="st1"/><path d="m17.1 11.8-1.3-1.3V9.2h2v1.3M0 11.8h17.1m-4.6 10.6H3.3V4h3.9m0 0L5.9 2.6V1.3h2v1.3M0 0zm2.3 16h.1l.2.3.2-.3H3l-.3.4.3.4h-.1l-.2-.3-.2.3h-.2l.3-.4zM1 10.8h.1l.2.3.2-.3h.1l-.3.4.3.4h-.1l-.2-.3-.2.3H1l.3-.4z" class="st1"/><path d="M11.4 21.1h.1l.3.8h-.1l-.1-.2h-.4l-.1.2H11z" class="st1"/><path d="m11.5 21.2-.1.4h.3zm2.7-2.5h.3c.1 0 .1 0 .2.1l.1.1v.1s-.1 0-.1.1c.1 0 .1 0 .1.1v.1c0 .1 0 .1-.1.2 0 0-.1.1-.2.1h-.3z" class="st1"/><path d="M14.3 18.8v.2h.3v-.2zm0 .3v.3h.3v-.2h-.3zm6.7-2.3v-.3l-.3-.5h.1l.2.2.1.1.1-.1.2-.2h.1l-.3.5v.3zm2.6-5.2v-.3l-.3-.5h.1l.2.2.1.1.1-.1.2-.2-.3.5v.3zM0 0zm18.9 14.4h.7l-.6-.3zM19 11l.6.2-.6.2zM9.1 3.1l.6.2-.6.2zM9 6.7h.7l-.6-.4zm0-.2L6.7 6M2.9 8.9c.2.2.2.5 0 .7m.8-.7c-.2.2-.2.5 0 .7" class="st1"/><path d="M3.3 9.9c-.4 0-.7-.3-.7-.7s.3-.6.7-.6.7.3.7.6c-.1.4-.3.7-.7.7zm19.7-2H2m5.2-1.3 1.3-.7m0-.7v2H7.2v-2m1.9-1.9H7.2" class="st1"/><path d="M7.2 2.6h2.6v2.6H7.2zM25 11.5v.7m-13.5 3.6.6.2-.6.2.6.2-.6.2.6.2-.6.2.6.2-.6.2.6.2m-.9-.2h2.6m-2.6 2.3h4m-2.7 4V21" class="st1"/><path d="M13.8 15.8v4l-1.3 1.3-1.3-1.3v-4m-9.2 0V0h21v15.8zm17-4.6h-1.9" class="st1"/><path d="M12.1 14.1c.2.2.2.5 0 .7m.8-.7c-.2.2-.2.5 0 .7" class="st1"/><path d="M12.5 15.1c-.4 0-.7-.3-.7-.7s.3-.7.7-.7.7.3.7.7-.3.7-.7.7zm-9.6-1c.2.2.2.5 0 .7m.8-.7c-.2.2-.2.5 0 .7" class="st1"/><path d="M3.3 15.1c-.4 0-.6-.3-.6-.7s.3-.7.6-.7c.4 0 .7.3.7.7-.1.4-.4.7-.7.7zm14.5-1.9.6.1-1.3.3 1.3.3-1.3.3 1.3.3-1.3.3.7.1m1.1-.7-2.3-.5m.5-3.2h2.6v2.6h-2.6zM0 11.5v.7" class="st1"/></svg>