<svg xmlns="http://www.w3.org/2000/svg" xml:space="preserve" id="图层_1" x="0" y="0" viewBox="0 0 21.5 25"><style>.st2{fill:none;stroke:#fff;stroke-miterlimit:10;stroke-dasharray:1,1}</style><path d="m2.4 12.5 1 2 1.1-2zm8.8-3.7 1.2-2 1.2 2zM0 0" style="fill:none;stroke:#fff;stroke-miterlimit:10"/><path d="M3.4 12.5V4.6h6.8l2.2 2.3" style="fill:none;stroke:#fff;stroke-miterlimit:10;stroke-dasharray:5,5"/><path d="m14.8 12.6 2.2 2.2v8.5" class="st2"/><path d="M15.9 21.9v1.3h2.3v-1.3M0 0zm7.5 11.5.6 1-.1-1.1zm8.9-5.8 1.2-.6-.6 1.2zM2.8 15.9v3.4m1.2 0v-3.4m-1.7 3.4h2.3m-2.3-6.8h2.3v3.4H2.3z" class="st2"/><path d="M0 2.3h19.3v18.1H0z" class="st2"/><path d="M15.8 10.8h5.7V9.7h-5.7M12.5 25V13.6M16.7 6l-9.9 9.9H4.6M12.5 0v6.9" class="st2"/><path d="M15.8 10.2c0 1.9-1.5 3.4-3.4 3.4S9 12.1 9 10.2s1.5-3.4 3.4-3.4c1.9.1 3.4 1.6 3.4 3.4zm-8-1.4c-.3.9-.3 1.9-.1 2.7" class="st2"/></svg>