<svg xmlns="http://www.w3.org/2000/svg" xml:space="preserve" id="图层_1" x="0" y="0" viewBox="0 0 25 18.8"><style>.st0{fill:none;stroke:#fff;stroke-miterlimit:10}</style><path d="M12.5 0v4.2m-9.9 10 8.7-8.7m1.2 13.3v-4.2M2.1 2.1H23v14.6H2.1z" class="st0"/><path d="M20.8 8.9H25v1h-4.2m-7.5.7c-.2-.8-.2-1.5 0-2.2m4.4 4.2v2.1H7.3v-2.1m0-6.3V4.2h10.4v2.1m-3.1 3.1c0-1.7 1.4-3.1 3.1-3.1s3.1 1.4 3.1 3.1-1.4 3.1-3.1 3.1c-1.7.1-3.1-1.3-3.1-3.1zM4.2 10H0V9h4.2m7.3-1.2c.3 1 .4 2 .2 2.8m-1.3-1.1c0 1.7-1.4 3.1-3.1 3.1s-3.1-1.4-3.1-3.1 1.4-3.1 3.1-3.1c1.7-.1 3.1 1.3 3.1 3.1zM0 0z" class="st0"/><path d="M12.7 4.2v.1h-.2l-.1-.1v-.1h.1s.1 0 .1.1.1 0 .1 0zm0 10.5v.1h-.2l-.1-.1s0-.1.1-.1h.2c-.1 0 0 0 0 .1zm-1.8-9.4 1.2-.7-.7 1.2zm2.2 5.3.5.9-.1-1zm5.7-4.1-1.1 1.9-1.1-1.9c.3-.1.7-.2 1.1-.2s.7.1 1.1.2zM8.4 10.7l-1.1 1.9-1.1-1.9zm8.2 1.7 1.1-1.9 1.1 1.9c-.4.1-.7.2-1.1.2s-.8-.1-1.1-.2zM6.1 8.2l1.2-1.9 1.1 1.9zm7 .1.5-.9-.1 1zm-1.2 2.3-.5.9.1-1zM0 0" class="st0"/></svg>