<svg xmlns="http://www.w3.org/2000/svg" xml:space="preserve" id="图层_1" x="0" y="0" viewBox="0 0 22.6 25"><style>.st2{fill:none;stroke:#fff;stroke-miterlimit:10;stroke-dasharray:1,1}</style><path d="m3.5 12.5 1 2 1.1-2zm8.9-3.7 1.2-2 1.2 2zM0 0" style="fill:none;stroke:#fff;stroke-miterlimit:10"/><path d="M4.5 12.5V4.6h6.8l2.2 2.3" style="fill:none;stroke:#fff;stroke-miterlimit:10;stroke-dasharray:5,5"/><path d="m16 12.6 2.2 2.2V25" class="st2"/><path d="M17 23.6V25h2.3v-1.3M0 0zm17.5 5.7 1.2-.6-.6 1.2zM8.6 9l.6-.9L9 9.2zM6.8 20.4l1.1-.2-2.2-.5 2.2-.5-2.2-.5 2.2-.5-2.2-.5 1.1-.2" class="st2"/><path d="M8.9 11.7c-.3-.9-.3-1.9-.1-2.7m8.1 1.2c0 1.9-1.5 3.4-3.4 3.4s-3.4-1.5-3.4-3.4 1.5-3.4 3.4-3.4c1.9.1 3.4 1.6 3.4 3.4zM13.6 0v6.9" class="st2"/><path d="m17.8 6-9.9 9.9H1.1v4.5h8.1m4.4 4.6V13.6m3.3-2.8h5.7V9.7h-5.7" class="st2"/><path d="M0 2.3h20.4v20.4H0z" class="st2"/><path d="M3.4 15.9v-3.4h2.3v3.4m-3.4 2.8-1.1-.3 2.2-.4-2.2-.5 2.2-.5-2.2-.5 2.2-.5-1.1-.2" class="st2"/></svg>