<svg xmlns="http://www.w3.org/2000/svg" xml:space="preserve" id="图层_1" x="0" y="0" viewBox="0 0 25 19.9"><style>.st0,.st2{fill:none;stroke:#fff;stroke-miterlimit:10}.st2{stroke-dasharray:1,1}</style><path d="M11.3 8.9h1.6v4.8h-1.6z" class="st0"/><path d="M9.7 1.6h13.7v12.9H9.7z" class="st0"/><path d="M20.9 7.7H25v-.8h-4.1m-2.4 9.3V9.7m3.1-5.4-7 7.1h-3.2M18.5 0v4.9" class="st0"/><path d="M20.9 7.3c0 1.3-1.1 2.4-2.4 2.4s-2.4-1.1-2.4-2.4 1.1-2.4 2.4-2.4c1.4 0 2.4 1.1 2.4 2.4zm-5.7 1.1c-.2-.7-.2-1.4-.1-2M0 0zm3.4 15.1v.6l-.9-.3zm2.9 3.7-.1-.5h1z" class="st0"/><path d="m15 6.4.4-.7-.1.8zm6.4-2.3.8-.5-.4.9zm-10.1 8.2.7 1.4.8-1.4zm0-3.4.7 1.4.8-1.4zm6.4-2.6.9-1.4.9 1.4zM0 0" class="st0"/><path d="M6.7 16.2h5.4v-2.5m0-4.8V3.3h4.8l1.6 1.6" style="fill:none;stroke:#fff;stroke-miterlimit:10;stroke-dasharray:5,5"/><path d="m20.2 9 1.5 1.6v6" class="st2"/><path d="M21 15.6v.9h1.6v-.9M4.8 14.5v-1.6h2.4v1.6l-1.6 1.6h1m-2 1.7L4 18l1.7.3-1.7.3 1.7.4-1.7.3 1.7.3-.9.3m-1.5-.8 2.9-.6M0 16.9v.9h1.6v-.9" class="st2"/><path d="M.8 17.8v-1.6h1.6m1-.8h2.3" class="st2"/><path d="M2.4 14.5h3.3v3.3H2.4zM0 0" class="st2"/></svg>