<svg xmlns="http://www.w3.org/2000/svg" xml:space="preserve" id="图层_1" x="0" y="0" viewBox="0 0 25 22.4"><style>.st1{fill:none;stroke:#fff;stroke-miterlimit:10;stroke-dasharray:1,1}</style><path d="m20.4 13.4 1.5 1.5v7.4m-10.2-9V7.9h5.5l1.5 1.6" style="fill:none;stroke:#fff;stroke-miterlimit:10"/><path d="M7.8 18.8h3.9V18m7.9-13.2C19 4 19 3 19.6 2.4m-1.7 2.4c.6-.8.6-1.7 0-2.4m.8-2.4v4.7m-14 12.5v-1.5H7v1.5l-1.6 1.6" class="st1"/><path d="M5.5 18.8h2.4V1.6h10.9M4.5 20.4l-.6.2 1.6.3-1.6.3 1.6.3-1.6.3 1.6.3-.8.3m-1.5-.8L6 21m-6-1.5v.8h1.6v-.8" class="st1"/><path d="M.8 20.3v-1.6h1.5m1.1-.7h2.1" class="st1"/><path d="M2.3 17.2h3.2v3.2H2.3zM19.5 3.3l-2 .9m3.6 17.2v.9h1.6v-.9M0 0zm14.1 15.7.8.2-1.6.3 1.6.3-1.6.3 1.6.3-1.6.3.9.2m-1.6-1 2.8-.6m.1-3.2c-.2-.6-.2-1.3 0-1.9m5.6.9c0 1.3-1 2.3-2.3 2.3s-2.3-1-2.3-2.3 1-2.3 2.3-2.3c1.2-.1 2.3 1 2.3 2.3zm-2.4-7.1v4.7" class="st1"/><path d="m21.7 8.8-6.8 6.8H11m7.7 6.3v-7.8m2.4-2H25v-.8h-3.9" class="st1"/><path d="M9.4 6.3h14.1v14.1H9.4z" class="st1"/><path d="M11 13.3h1.6V18H11zM0 0zm18.9 1.6c0 .1-.1.1-.1.1-.1 0-.1-.1-.1-.1 0-.1.1-.1.1-.1s.1 0 .1.1zm-11 17.2c0 .1-.1.1-.1.1-.1 0-.1-.1-.1-.1 0-.1.1-.1.1-.1.1 0 .1 0 .1.1zm7.6-2.5-.1-.5h1zm6-7.7.8-.4-.4.8zm-6.2 2.3.4-.7-.1.8zM6.1 21.3l-.1-.5h1zm-2.7-3.6v.6l-.9-.3zm14.5-6.9.8-1.4.8 1.4z" class="st1"/><path d="m11 13.3.7 1.3.8-1.3zm0 4.7.7-1.4.8 1.4zm8.6-14.4-.2-.6 1-.1zM0 0" class="st1"/></svg>