<svg xmlns="http://www.w3.org/2000/svg" xml:space="preserve" id="图层_1" x="0" y="0" viewBox="0 0 25 19.9"><style>.st0{fill:none;stroke:#fff;stroke-miterlimit:10}</style><path d="M20 7.5h5M10 19.7v-5.3m5 .1v5.4M12.5 0v14.9M5.3 6.2l2.1 1.3-2.2 1.2M0 7.5h5.1" class="st0"/><path d="M19.9 7.5c0 2-.8 3.8-2.2 5.2s-3.3 2.2-5.2 2.2c-4.1 0-7.4-3.3-7.4-7.4S8.4.1 12.5.1c2 0 3.8.8 5.2 2.2s2.2 3.2 2.2 5.2zM0 0z" class="st0"/><path d="M7.5 4.5c0 .3.1.5.2.6s.2.2.4.2.3-.1.4-.2.2-.3.2-.6-.1-.5-.2-.6c-.1-.2-.2-.2-.4-.2-.1 0-.3 0-.4.2-.1.1-.2.3-.2.6z" class="st0"/><path d="M7.2 6.4v-3h.3v.3c.1-.1.2-.2.3-.2.1-.1.2-.1.3-.1.2 0 .3 0 .5.1s.3.2.4.4c0 .2.1.4.1.6s0 .4-.1.6l-.4.4c-.2.1-.3.1-.5.1-.1 0-.2 0-.3-.1-.1 0-.2-.1-.2-.2v1h-.4zm3.6-.8h-.4V3.2l-.3.3c-.2.1-.3.1-.4.2v-.4c.2-.1.4-.2.5-.3.2-.1.3-.3.3-.4h.2v3zM14 4.5c0 .3.1.5.2.6s.2.2.4.2.3-.1.4-.2.2-.3.2-.6-.1-.5-.2-.6-.2-.2-.4-.2-.3.1-.4.2-.2.3-.2.6z" class="st0"/><path d="M13.7 6.4v-3h.3v.3c.1-.1.2-.2.3-.2.1-.1.2-.1.4-.1s.3 0 .5.1c.1.1.2.2.3.4s.1.4.1.6 0 .4-.1.6-.2.3-.3.4-.3.1-.5.1c-.1 0-.2 0-.3-.1-.1 0-.2-.1-.2-.2v1h-.5zm4.1-1.2v.3h-2v-.3c.2 0 .2-.2.3-.3s.3-.3.5-.4c.3-.3.5-.5.7-.6.1-.2.2-.3.2-.4s-.1-.3-.2-.4-.2-.1-.4-.1-.3.1-.4.2-.2.2-.2.4h-.4q0-.45.3-.6c.2-.1.4-.2.7-.2s.5.1.7.2q.3.3.3.6c0 .1 0 .2-.1.3 0 .1-.1.2-.2.4-.1.1-.3.3-.6.5-.2.2-.4.3-.4.4l-.2.2h1.4zM0 0zm17.3 6 2.4 1.5L17.3 9zM0 0" class="st0"/></svg>