<svg xmlns="http://www.w3.org/2000/svg" xml:space="preserve" id="图层_1" x="0" y="0" viewBox="0 0 25 22.1"><style>.st0{fill:none;stroke:#fff;stroke-miterlimit:10}</style><path d="M8.5 3.6 6.6 3l1.8-3zm9.7-1.5v-2l-3.4 1zm2.5 0v-2l3.4 1zm-4.5 9.8v-2l-3.4 1zm2.4 0v-2l3.4 1zM2.7 21.4 7.6 3.2m10.6-2.1h2.6m-4.7 9.8h2.6M8.3 13.6h1.4V8H8.3m0-2.7v11.1" class="st0"/><path d="M0 5.3h25v11.1H0zm1.3 11.1v5.7M13.9 5.3V2.5H25v2.8" class="st0"/><path d="M2.7 13.6H1.4V8h1.4m20.8 8.4v5.7M2.7 5.3v11.1" class="st0"/></svg>