<svg xmlns="http://www.w3.org/2000/svg" xml:space="preserve" id="图层_1" x="0" y="0" viewBox="0 0 25 18.9"><style>.st0{fill:none;stroke:#fff;stroke-miterlimit:10}</style><path d="M21.2 1.6h.8l2-.8" class="st0"/><path d="M18.7 0H25v6.3h-6.3zM2 6.3v8.3m15.7 0v4.3M0 6.3V2.1h8.3v4.2M1 14.6v4.3" class="st0"/><path d="M0 6.3h18.7v8.3H0zm6.2 0v8.3m17.3-13h.9M18.7 0 25 6.3M0 0z" class="st0"/><path d="M5.4 13.1H3V7.7h2.3V9h-1v2.9h1.1zm-4-7.7V3h5.4v2.3H5.6v-1H2.7v1.1zm19.2-.9v-.3h1.1v.9c-.2.1-.3.2-.5.3s-.3.1-.5.1-.5-.1-.7-.2-.4-.3-.5-.5-.2-.4-.2-.7c0-.2.1-.5.2-.7s.2-.4.4-.5c.2.1.4.1.7.1.2 0 .3 0 .5.1.1.1.3.1.3.2.1.1.1.2.2.4l-.3.1c0-.1-.1-.2-.1-.3l-.2-.2c-.1 0-.2-.1-.3-.1s-.3 0-.4.1c-.1 0-.2.1-.3.2s-.1.2-.2.2c-.1.2-.1.3-.1.5s0 .4.1.6q.15.3.3.3c.1.1.3.1.5.1.1 0 .3 0 .4-.1s.2-.1.3-.2v-.4zM0 0" class="st0"/></svg>