<svg xmlns="http://www.w3.org/2000/svg" xml:space="preserve" id="图层_1" x="0" y="0" viewBox="0 0 25 9"><style>.st0{fill:none;stroke:#fff;stroke-miterlimit:10}</style><path d="M5.7.7h-.4m1.5 0h-.5L5.4.4M8 0 5 3" class="st0"/><path d="M8 0H5v3h3zm16.3.7h.4m-1.5 0h.5l.9-.4M22 0l3 3M9 5.5H0v-1h9m-1 0V3h9v1.5m0 1V7H8V5.5M8.5 9V7m8 2V7M9 7V3m2 4V3" class="st0"/><path d="M22 4.5V0h3v3h-3M11 4.5h9v1h-9M0 0zm7.3 2.3v-.2h.5v.4l-.2.2h-.3c-.1 0-.2 0-.3-.1-.1 0-.2-.1-.2-.2s-.1-.2-.1-.3 0-.2.1-.3c0-.1.1-.2.2-.2s.2-.1.3-.1h.2c.1 0 .1.1.2.1 0 0 .1.1.1.2h-.1c0-.1 0-.1-.1-.1l-.1-.1h-.4c0 .1-.1.1-.1.2l-.1.1v.2c0 .1 0 .2.1.3 0 .1 0 .1.1.2.1 0 .1.1.2.1h.2c.1 0 .1-.1.1-.1v-.3z" class="st0"/><path d="M22.8 2.3v-.2h.5v.4c-.1.1-.2.1-.2.1h-.3c-.1 0-.2 0-.3-.1s-.2-.1-.2-.2-.1-.2-.1-.3 0-.2.1-.3c0-.1.1-.2.2-.2s.2-.1.3-.1h.2c.1 0 .1.1.2.1 0 .1.1.1.1.2h-.1c0-.1 0-.1-.1-.1l-.1-.1h-.4c-.1 0-.1.1-.1.1l-.1.1v.2c0 .1 0 .2.1.3 0 .1.1.1.2.2.1 0 .1.1.2.1h.2c.1 0 .1-.1.1-.1v-.1zM0 0" class="st0"/></svg>