<svg xmlns="http://www.w3.org/2000/svg" xml:space="preserve" id="图层_1" x="0" y="0" viewBox="0 0 25 15.8"><style>.st0{fill:none;stroke:#fff;stroke-miterlimit:10}</style><path d="M17.6 7.8v1m5.8.3L21 7.8l2.4-1.4zm-5.8.3-2.1-1v1M25 7.8h-1.6M4.2 9.4h18v1.4h-18m0 2.2V7.3M1.4 13V7.3m10.5 8.5V13M.7 15.8V13" class="st0"/><path d="M12.7 10.8V13H0V7.3h12.7v2.1m6.4-5.9h-2.8v4.2h2.8z" class="st0"/><path d="m17.6 0 1.4.3-2.9.6 2.9.6-2.9.6 2.9.6-2.9.6 1.4.3m1.6 4.2-1.4-2.4-1.4 2.4m4.7 0h-1.9" class="st0"/></svg>