<svg xmlns="http://www.w3.org/2000/svg" xml:space="preserve" id="图层_1" x="0" y="0" viewBox="0 0 4.6 25"><style>.st0{fill:none;stroke:#fff;stroke-miterlimit:10}</style><path d="M2.3 15.9v-2.3m0 11.4v-6.3m-1.2-5.1h2.4M0 18.2l2.3-2.3 2.3 2.3" class="st0"/><path d="M3.5 17.5c0-.3-.1-.6-.3-.8s-.5-.3-.8-.3-.6.1-.8.3-.3.5-.3.8c0 .6.5 1.1 1.1 1.1s1.1-.4 1.1-1.1zM2.3 9.1v2.3M2.3 0v6.3m-1.2 5.1h2.4M0 6.8l2.3 2.3 2.3-2.3" class="st0"/><path d="M3.5 7.5c0 .6-.5 1.1-1.1 1.1s-1.1-.5-1.1-1.1.5-1.1 1.1-1.1 1.1.4 1.1 1.1zM0 0" class="st0"/></svg>