<svg xmlns="http://www.w3.org/2000/svg" xml:space="preserve" id="图层_1" x="0" y="0" viewBox="0 0 25 21.5"><style>.st0{fill:none;stroke:#fff;stroke-miterlimit:10}</style><path d="M20.9 7.9v2.8h1.9" class="st0"/><path d="M15.9 10.6H18l4.5-1.9" class="st0"/><path d="M14.3 1.8H25v10.7H14.3zM4.7 5.9c1.1 1.5 3.7 1.5 4.9 0-1.3-1.6-3.7-1.6-4.9 0zm9.6 1.2H0m7.2-4.7v2.3" class="st0"/><path d="M14.3 7.1c0 3.9-3.2 7.2-7.1 7.2-4 0-7.2-3.2-7.2-7.2C0 3.2 3.2 0 7.2 0c3.9 0 7.1 3.2 7.1 7.1zm-7.1 7.1v7.3M0 0zm20 7.1v-1h-1.8v-.5l1.9-2.8h.4v2.8h.6v.5h-.6v1z" class="st0"/><path d="M20 5.6V3.7l-1.3 1.9zM0 0" class="st0"/></svg>