<svg xmlns="http://www.w3.org/2000/svg" xml:space="preserve" id="图层_1" x="0" y="0" viewBox="0 0 25 19.4"><style>.st0{fill:none;stroke:#fff;stroke-miterlimit:10}</style><path d="M12.7 7.3V4h.4v2.9h1.6v.4zM0 0zm14.3 12.6-1.6-2.9 2.9 1.6zm7.9 1.3v-3m-1.8 0v3m2.6-.8h-3.5m.1-1.4H23M11.2 0l8.3 8.2" class="st0"/><path d="M11.2 8.2H25v8.3H11.2zm-5.6 5.6v5.7" class="st0"/><path d="M11.2 8.3c0 3.1-2.5 5.6-5.6 5.6C2.5 13.8 0 11.3 0 8.3c0-3.1 2.5-5.6 5.6-5.6s5.6 2.5 5.6 5.6zM5.6 4.5v1.8m5.6 2H0" class="st0"/><path d="M3.7 7.3c.8 1.2 2.9 1.2 3.8 0-1-1.3-2.9-1.2-3.8 0zm7.5.9V0h8.3v8.2" class="st0"/><path d="M15.7 3.5V2.2c0-.8.6-1.5 1.4-1.5.7 0 1.3.7 1.3 1.5v1.4m-3.6 8.3 3 3" class="st0"/></svg>