<svg xmlns="http://www.w3.org/2000/svg" xml:space="preserve" id="图层_1" x="0" y="0" viewBox="0 0 25 23"><style>.st1{fill:none;stroke:#fff;stroke-miterlimit:10;stroke-dasharray:5,5}</style><path d="M12.8 12H0" style="fill:none;stroke:#fff;stroke-miterlimit:10"/><path d="M0 0zm16.3 3.6-1.4-2.5 2.5 1.4zm-9.9-.2h7.4m9.5 0c0 .9-.8 1.7-1.7 1.7s-1.7-.8-1.7-1.7.8-1.7 1.7-1.7c1 0 1.7.7 1.7 1.7zm-4.1 2L16.8 3m3.6-.8 2.4 2.4m-2.4-.1 2.3-2.3" class="st1"/><path d="M13.8 0H25v6.8H13.8zM6.4 5.7V1.1m0 21.9v-4.6M0 12l6.4-6.3 6.4 6.3-6.4 6.4zM0 0zm6.8 3.4c0 .2-.2.4-.4.4-.1 0-.2 0-.3-.1S6 3.5 6 3.4s0-.2.1-.3.2-.1.3-.1c.2 0 .4.2.4.4zM0 0" class="st1"/></svg>