<svg xmlns="http://www.w3.org/2000/svg" xml:space="preserve" id="图层_1" x="0" y="0" viewBox="0 0 25 20.6"><style>.st1{fill:none;stroke:#fff;stroke-miterlimit:10;stroke-dasharray:5,5}</style><path d="M8.4 10.3H0" style="fill:none;stroke:#fff;stroke-miterlimit:10"/><path d="M0 0zm14.2 13.4v4.1m1.4-5.7L14 10.2m.2-7.1v4.4m7.9 2.9h-.8m3 0h-.8l-2-.8" class="st1"/><path d="M20.6 8.2H25v4.5h-4.4z" class="st1"/><path d="M22.8 12.6v4.8H4.2m0-14.3h18.5v5.1M4.2 6.1V0m0 20.6v-6M0 10.3l4.2-4.2 4.2 4.2-4.2 4.2zm17.2.1c0 1.6-1.3 3-3 3s-3-1.3-3-3c0-1.6 1.3-3 3-3s3 1.4 3 3zM0 0z" class="st1"/><path d="m14.3 9.9-.6.6-.8-1.5zm.2-6.8c0 .1-.1.2-.2.2s-.2-.1-.2-.2.1-.2.2-.2.2.1.2.2zm-10.1 0c0 .1-.1.2-.2.2-.1.1-.2-.1-.2-.2s.1-.2.2-.2.2.1.2.2zm10.1 14.4c0 .1-.1.2-.2.2s-.2-.1-.2-.2.1-.2.2-.2.2.1.2.2zm-10.1 0c0 .1-.1.2-.2.2s-.2-.1-.2-.2.1-.2.2-.2.2.1.2.2zM0 0" class="st1"/></svg>