<svg xmlns="http://www.w3.org/2000/svg" xml:space="preserve" id="图层_1" x="0" y="0" viewBox="0 0 19.3 25"><style>.st1{fill:none;stroke:#fff;stroke-miterlimit:10;stroke-dasharray:5,5}</style><path d="M17.2 12.4H6.8" style="fill:none;stroke:#fff;stroke-miterlimit:10"/><path d="M0 0zm6.2 15.3c-1.4-1.6-1.6-3.8 0-5.7m-4.1 5.7c1.4-1.6 1.6-3.8 0-5.7" class="st1"/><path d="M0 3.7h19.3v17.5H0z" class="st1"/><path d="M12 19.4H4.1V5.6H12m0 1.6V0m0 25v-7.4" class="st1"/><path d="M6.8 12.4 12 7.2l5.2 5.2-5.2 5.2zM0 0zm12.3 19.4c0 .1 0 .2-.1.2s-.2.1-.2.1c-.1 0-.2 0-.3-.1s-.1-.2-.1-.3 0-.2.1-.2c.1-.1.2-.1.2-.1.1 0 .2 0 .2.1.2.1.2.2.2.3zm0-13.8c0 .1 0 .2-.1.2s-.1.1-.2.1c-.2 0-.3-.2-.3-.3s0-.2.1-.2c.1-.1.2-.1.2-.1.1 0 .2 0 .3.1s0 .1 0 .2zM0 0" class="st1"/></svg>