<svg xmlns="http://www.w3.org/2000/svg" xml:space="preserve" id="图层_1" x="0" y="0" viewBox="0 0 23.6 25"><style>.st1{fill:none;stroke:#fff;stroke-miterlimit:10;stroke-dasharray:5,5}</style><path d="M13.2 13.7H0" style="fill:none;stroke:#fff;stroke-miterlimit:10"/><path d="M0 0zm21.1 6.8-2.5-2.5m5 .4c0 2.6-2.1 4.7-4.7 4.7s-4.7-2.1-4.7-4.7S16.3 0 18.9 0s4.7 2.1 4.7 4.7zM0 13.7l6.6-6.6 6.6 6.6-6.6 6.6zM6.6 25v-4.7m0-13.2V2.3m0 2.4h7.6M0 0z" class="st1"/><path d="m18.1 4.9-1.4-2.5 2.5 1.4zm-11-.2c0 .2-.2.4-.4.4-.1 0-.2 0-.3-.1-.2-.1-.2-.2-.2-.3s0-.2.1-.3.2-.1.3-.1c.3 0 .5.2.5.4zM0 0" class="st1"/></svg>