<svg xmlns="http://www.w3.org/2000/svg" xml:space="preserve" id="图层_1" x="0" y="0" viewBox="0 0 25 16.4"><style>.st1{fill:none;stroke:#fff;stroke-miterlimit:10;stroke-dasharray:5,5}</style><path d="M8.4 16.4v-6m11.8-3.3 1.2 1.2v3.6h-4.7V9.5" style="fill:none;stroke:#fff;stroke-miterlimit:10"/><path d="M8.4 9.3V3.8M0 0zm14.5 3.7 4.2-.9m-3.2 1.9h4.7v4.7h-4.7zm4.7 2.4H25m-20 0 3.4-3.3 3.3 3.3-3.3 3.4zm2.2 2.2h2.4m2.1-2.2H19m-14 0H0" class="st1"/><path d="M3.6 0h19v14.2h-19z" class="st1"/><path d="m16.6 1.8-1.1.2 2.4.5-2.4.5 2.4.5-2.4.5 2.4.5-1.2.2M0 0zm18.6 2.4 1.2.1-1.1.6zm.4 4.3 1.2.4-1.2.4zM0 0" class="st1"/></svg>