<svg xmlns="http://www.w3.org/2000/svg" xml:space="preserve" id="图层_1" x="0" y="0" viewBox="0 0 25 11.7"><style>.st1{fill:none;stroke:#fff;stroke-miterlimit:10;stroke-dasharray:3,2}</style><path d="M1.5 0h22v10.3h-22zM0 0" style="fill:none;stroke:#fff;stroke-miterlimit:10"/><path d="m12.9 5.9.7.7v1.5h-2.9V6.6m-4.8.6V3.8M0 0zm5.9 11.7V8m3.5-5 2.6-.5" class="st1"/><path d="M10 3.7h2.9v2.9H10zm2.9 2.2h5.6m-14.7 0 2.1-2.1L8 5.9 5.9 8zm1.4 1.3h1.5M8 5.9h2m-6.2 0H0m10.7-4.1L10 2l1.5.3-1.5.3 1.5.3-1.5.3 1.5.3-.8.1m7.8 2.3 2.1-2.1 2.1 2.1L20.6 8zm2.1-2.1v1.3m-4.5-1.5-.8-.8m7.3 3.1H25m-14.3 0h1.4m3.3 0V4.4m-5.4.3-.7-.3.7-.4m6.9-1.1c0 .8-.7 1.5-1.5 1.5s-1.5-.7-1.5-1.5.7-1.5 1.5-1.5c.8.1 1.5.7 1.5 1.5zM0 0z" class="st1"/><path d="m15.5 2.7-.6-.3.3.6zm-3.5 0 .6-.3-.7-.1zm.1 3 .6.2-.6.2zm-1.4 0-.7.2.6.2v-.4zM0 0" class="st1"/></svg>