<svg xmlns="http://www.w3.org/2000/svg" xml:space="preserve" id="图层_1" x="0" y="0" viewBox="0 0 22.8 25"><style>.st0{fill:none;stroke:#fff;stroke-miterlimit:10}</style><path d="M12.7 13.6c0 .7-.6 1.3-1.3 1.3s-1.3-.6-1.3-1.3.6-1.3 1.3-1.3c.8 0 1.3.6 1.3 1.3zM6.3 1.3l1.3 2.3 1-1zm6.8 1 2.5 2.4m-2.5.1 2.5-2.5m.4 1.2c0 1-.8 1.7-1.7 1.7-.5 0-.9-.2-1.2-.5s-.5-.8-.5-1.2c0-.5.2-.9.5-1.2s.8-.5 1.2-.5c.5 0 .9.2 1.2.5.4.3.5.8.5 1.2z" class="st0"/><path d="M5.6 0h11.7v7H5.6zM9 17.9h4.8m4.2-4.3h4.8m-18 0L11.4 7l6.6 6.6-6.6 6.6zm-4.8 0h4.8M8.1 3.1l2.6 2.5m.7 14.6V25" class="st0"/></svg>