<svg xmlns="http://www.w3.org/2000/svg" xml:space="preserve" id="图层_1" x="0" y="0" viewBox="0 0 25 15.4"><style>.st0{fill:none;stroke:#fff;stroke-miterlimit:10}</style><path d="M21.8 7.3V8l1-.3zm-4 0V8l-1-.3zm-5.6 1H8.7m3.5-1.1H8.7" class="st0"/><path d="m16.7 7.7 3.1-3.1 3.1 3.1-3.1 3.1zm5.1 0h-4m2-7.7v15.4" class="st0"/><path d="M0 2.2h25v11H0z" class="st0"/><path d="M8.8 7.7c0 1.8-1.5 3.3-3.3 3.3S2.2 9.6 2.2 7.7s1.5-3.3 3.3-3.3 3.3 1.5 3.3 3.3zm3-1.5c-.1-.3.2-.6.5-.6s.6.3.5.7l-1 3.1c-.1.4.2.7.5.7.4 0 .6-.4.5-.7zM0 0z" class="st0"/><path d="M3.8 5.9h.3l1.3 1.3 1.3-1.3H7v3.4h-.2v-3L5.5 7.7 4.1 6.3v3h-.3zM0 0" class="st0"/></svg>