<svg xmlns="http://www.w3.org/2000/svg" xml:space="preserve" id="图层_1" x="0" y="0" viewBox="0 0 25 22.8"><style>.st0{fill:none;stroke:#fff;stroke-miterlimit:10}</style><path d="m12.6 8.8-2.1.4 4.2.9-4.2.9 4.2.9-4.2.9 4.2.9-2.1.5m-2.2.2 2.1 2.1 2.2-2.1" class="st0"/><path d="M13.5 15c0 .5-.4 1-1 1-.5 0-1-.4-1-1s.4-1 1-1c.6.1 1 .5 1 1zm-1 1.5v6.3m0-17.7V14M0 4.1h25" class="st0"/><path d="M4.3 0h16.5v18.6H4.3z" class="st0"/><path d="M9.4 6.4c1.9-1.7 4.4-1.6 6.2 0M9.4 1.9c1.9 1.7 4.4 1.6 6.2 0" class="st0"/></svg>