<svg xmlns="http://www.w3.org/2000/svg" xml:space="preserve" id="图层_1" x="0" y="0" viewBox="0 0 25 20.5"><style>.st0{fill:none;stroke:#fff;stroke-miterlimit:10;stroke-dasharray:5,5}</style><path d="M12.5 11.4v2.3h4.8l.4.5M0 0zm15.9 6.9.2-1.2.5 2.3.4-2.3.5 2.3.5-2.3.5 2.3.2-1.2m-8.5-3.3v3.4m-2.3 0V8m-.6-1.1h1.2M5.7 5.7 4.5 8m2.3 0H3.4V5.7h3.4m0-2.2h9.1V8H6.8z" class="st0"/><path d="M14.7 6.9v10.2h3.4M14.7 0v3.5L13 7m2.3-.1h-1.2" class="st0"/><path d="M12.5 8v3.4H25" class="st0"/><path d="M0 2.3h22.7v15.9H0z" class="st0"/><path d="m17 14.9 1.1-1.1 1.2 1.1" class="st0"/><path d="M18.7 14.5c0 .3-.2.5-.5.5s-.5-.2-.5-.5.2-.5.5-.5c.2 0 .5.3.5.5zm-.6.6v5.4m0-8.6v1.8m-1.7-1.1c1-.9 2.4-.9 3.4 0m-3.4-2.4c1 .9 2.4.9 3.4 0m-8.5-6.7V8M0 0zm12.5 7.9.1-1.1.6.3zm-2.3 0-.3-1h.7zm2.5 3.5c0 .1-.1.2-.2.2s-.1 0-.1-.1l-.1-.1s0-.1.1-.1.1-.1.1-.1c.1 0 .2.1.2.2zm5.6 5.7c0 .1-.1.2-.2.2s-.1 0-.1-.1l-.1-.1c0-.1.1-.2.2-.2s.2.1.2.2zM0 0" class="st0"/></svg>