<svg xmlns="http://www.w3.org/2000/svg" viewBox="0 0 107 151"><title>3-D Valve,fail indeterminate（3d阀 故障不确定）</title><defs><linearGradient id="a" x1="49.993%" x2="49.993%" y1="100.095%" y2="0%"><stop offset="0%" stop-color="#b7b7b7"/><stop offset="3%" stop-color="#9b9d9d"/><stop offset="7%" stop-color="#878b8b"/><stop offset="9%" stop-color="#808484"/><stop offset="20%" stop-color="#a3a6a6"/><stop offset="49%" stop-color="#f6f6f6"/><stop offset="61%" stop-color="#f3f3f3"/><stop offset="70%" stop-color="#eaeaea"/><stop offset="77%" stop-color="#dbdbdb"/><stop offset="83%" stop-color="#c5c5c5"/><stop offset="90%" stop-color="#aaa"/><stop offset="95%" stop-color="#888"/><stop offset="100%" stop-color="#666"/></linearGradient><linearGradient id="b" x1="0%" x2="100%" y1="49.995%" y2="49.995%"><stop offset="0%" stop-color="#b7b7b7"/><stop offset="3%" stop-color="#9b9d9d"/><stop offset="7%" stop-color="#878b8b"/><stop offset="9%" stop-color="#808484"/><stop offset="20%" stop-color="#a3a6a6"/><stop offset="49%" stop-color="#f6f6f6"/><stop offset="61%" stop-color="#f3f3f3"/><stop offset="70%" stop-color="#eaeaea"/><stop offset="77%" stop-color="#dbdbdb"/><stop offset="83%" stop-color="#c5c5c5"/><stop offset="90%" stop-color="#aaa"/><stop offset="95%" stop-color="#888"/><stop offset="100%" stop-color="#666"/></linearGradient><linearGradient id="c" x1="50.009%" x2="50.009%" y1="100%" y2="0%"><stop offset="0%" stop-color="#b7b7b7"/><stop offset="3%" stop-color="#9b9d9d"/><stop offset="7%" stop-color="#878b8b"/><stop offset="9%" stop-color="#808484"/><stop offset="20%" stop-color="#a3a6a6"/><stop offset="49%" stop-color="#f6f6f6"/><stop offset="61%" stop-color="#f3f3f3"/><stop offset="70%" stop-color="#eaeaea"/><stop offset="77%" stop-color="#dbdbdb"/><stop offset="83%" stop-color="#c5c5c5"/><stop offset="90%" stop-color="#aaa"/><stop offset="95%" stop-color="#888"/><stop offset="100%" stop-color="#666"/></linearGradient><linearGradient id="d" x1="50%" x2="50%" y1="100.024%" y2="0%"><stop offset="0%" stop-color="#b7b7b7"/><stop offset="3%" stop-color="#9b9d9d"/><stop offset="7%" stop-color="#878b8b"/><stop offset="9%" stop-color="#808484"/><stop offset="20%" stop-color="#a3a6a6"/><stop offset="49%" stop-color="#f6f6f6"/><stop offset="61%" stop-color="#f3f3f3"/><stop offset="70%" stop-color="#eaeaea"/><stop offset="77%" stop-color="#dbdbdb"/><stop offset="83%" stop-color="#c5c5c5"/><stop offset="90%" stop-color="#aaa"/><stop offset="95%" stop-color="#888"/><stop offset="100%" stop-color="#666"/></linearGradient></defs><g fill="none" fill-rule="nonzero"><path fill="url(#a)" d="M19.42 77.07h67.63v10.5H19.42z" transform="translate(0 .403)"/><path fill="url(#b)" d="M49.4 27.68h7.67v101.09H49.4z" transform="translate(0 .403)"/><path fill="url(#c)" d="M0 150.01v-42.48l53.23 21.39z" transform="translate(0 .403)"/><path fill="url(#d)" d="M106.47 150.01v-42.48l-53.24 21.39z" transform="translate(0 .403)"/><path fill="#e1e1e1" d="M93.43 39.723v-.11a.4.4 0 0 0 0-.11v-.32H87v.54h6.42"/><path fill="#e1e1e1" d="M87 39.723h6.42v-.11a.4.4 0 0 0 0-.11v-.32H87z"/><path fill="#e0e0e0" d="M87 39.723h6.42v-.11a.4.4 0 0 0 0-.11v-.32H87z"/><path fill="#dfdfdf" d="M87 39.723h6.42v-.11a.4.4 0 0 0 0-.11v-.32H87z"/><path fill="#dedede" d="M87 39.723h6.42v-.11a.4.4 0 0 0 0-.11v-.32H87z"/><path fill="#dcdcdc" d="M87 39.723h6.42v-.11a.4.4 0 0 0 0-.11v-.32H87z"/><path fill="#dbdbdb" d="M87 39.723h6.42v-.11a.4.4 0 0 0 0-.11v-.32H87z"/><path fill="#dadada" d="M87 39.723h6.42v-.11a.4.4 0 0 0 0-.11v-.32H87z"/><path fill="#d8d8d8" d="M87 39.723h6.42v-.11a.4.4 0 0 0 0-.11v-.32H87z"/><path fill="#d6d6d6" d="M87 39.723h6.42v-.11a.4.4 0 0 0 0-.11v-.32H87z"/><path fill="#d4d4d4" d="M87 39.723h6.42v-.11a.4.4 0 0 0 0-.11v-.32H87z"/><path fill="#cecece" d="M87 39.723h6.42v-.11a.4.4 0 0 0 0-.11v-.32H87z"/><path fill="#cacaca" d="M87 39.723h6.42v-.11a.4.4 0 0 0 0-.11v-.32H87z"/><path fill="#c6c6c6" d="M87 39.723h6.42v-.11a.4.4 0 0 0 0-.11v-.32H87z"/><path fill="#c2c2c2" d="M87 39.723h6.42v-.11a.4.4 0 0 0 0-.11v-.32H87z"/><path fill="#bebebe" d="M87 39.723h6.42v-.11a.4.4 0 0 0 0-.11v-.32H87z"/><path fill="#b9b9b9" d="M87 39.723h6.42v-.11a.4.4 0 0 0 0-.11v-.32H87z"/><path fill="#b5b5b5" d="M87 39.723h6.42v-.11a.4.4 0 0 0 0-.11v-.32H87z"/><path fill="#b1b1b1" d="M87 39.723h6.42v-.11a.4.4 0 0 0 0-.11v-.32H87z"/><path fill="#adadad" d="M87 39.723h6.42v-.11a.4.4 0 0 0 0-.11v-.32H87z"/><path fill="#a9a9a9" d="M87 39.723h6.42v-.11a.4.4 0 0 0 0-.11v-.32H87z"/><path fill="#a5a5a5" d="M87 39.723h6.42v-.11a.4.4 0 0 0 0-.11v-.32H87z"/><path fill="#a1a1a1" d="M87 39.723h6.42v-.11a.4.4 0 0 0 0-.11v-.32H87z"/><path fill="#9d9d9d" d="M87 39.723h6.42v-.11a.4.4 0 0 0 0-.11v-.32H87z"/><path fill="#989898" d="M87 39.723h6.42v-.11a.4.4 0 0 0 0-.11v-.32H87z"/><path fill="#949494" d="M87 39.723h6.42v-.11a.4.4 0 0 0 0-.11v-.32H87z"/><path fill="#909090" d="M87 39.723h6.42v-.11a.4.4 0 0 0 0-.11v-.32H87z"/><path fill="#8c8c8c" d="M87 39.723h6.42v-.11a.4.4 0 0 0 0-.11v-.32H87z"/><path fill="#888" d="M87 39.723h6.42v-.11a.4.4 0 0 0 0-.11v-.32H87z"/><path fill="#848484" d="M87 39.723h6.42v-.11a.4.4 0 0 0 0-.11v-.32H87z"/><path fill="gray" d="M87 39.723h6.42v-.11a.4.4 0 0 0 0-.11v-.32H87z"/><path fill="#7c7c7c" d="M87 39.723h6.42v-.11a.4.4 0 0 0 0-.11v-.32H87z"/><path fill="#777" d="M87 39.723h6.42v-.11a.4.4 0 0 0 0-.11v-.32H87z"/><path fill="#737373" d="M87 39.723h6.42v-.11a.4.4 0 0 0 0-.11v-.32H87z"/><path fill="#6f6f6f" d="M87 39.723h6.42v-.11a.4.4 0 0 0 0-.11v-.32H87z"/><path fill="#6b6b6b" d="M87 39.723h6.42v-.11a.4.4 0 0 0 0-.11v-.32H87z"/><path fill="#e1e1e1" d="M93.46 39.183a38 38 0 0 0-.52-6.28c-.38-1.81-1-4.2-1.51-6a38.1 38.1 0 0 0-5.65-10.64A40.3 40.3 0 0 0 72 4.743 40.9 40.9 0 0 0 53.67.403C72.1.403 87 17.773 87 39.183h6.42"/><path fill="#e1e1e1" d="M87 39.183h6.42a38 38 0 0 0-.52-6.28c-.38-1.81-1-4.2-1.51-6a38.1 38.1 0 0 0-5.65-10.64c-1.14-1.4-2.73-3.21-4-4.52l-2.25-2-2.32-1.85-2.54-1.67L72 4.743l-2.84-1.28-2.92-1.06-3-.85-3.12-.63-3.19-.38-3.26-.14C72.1.403 87 17.773 87 39.183"/><path fill="#e0e0e0" d="M87 39.183h6.42a38 38 0 0 0-.52-6.28c-.38-1.81-1-4.2-1.51-6a38.1 38.1 0 0 0-5.65-10.64c-1.14-1.4-2.73-3.21-4-4.52l-2.25-2-2.32-1.85-2.54-1.67L72 4.743l-2.84-1.28-2.92-1.06-3-.85-3.12-.63-3.19-.38-3.26-.14C72.1.403 87 17.773 87 39.183"/><path fill="#dfdfdf" d="M87 39.183h6.42a38 38 0 0 0-.52-6.28c-.38-1.81-1-4.2-1.51-6a38.1 38.1 0 0 0-5.65-10.64c-1.14-1.4-2.73-3.21-4-4.52l-2.25-2-2.32-1.85-2.54-1.67L72 4.743l-2.84-1.28-2.92-1.06-3-.85-3.12-.63-3.19-.38-3.26-.14C72.1.403 87 17.773 87 39.183"/><path fill="#dedede" d="M87 39.183h6.42a38 38 0 0 0-.52-6.28c-.38-1.81-1-4.2-1.51-6a38.1 38.1 0 0 0-5.65-10.64c-1.14-1.4-2.73-3.21-4-4.52l-2.25-2-2.32-1.85-2.54-1.67L72 4.743l-2.84-1.28-2.92-1.06-3-.85-3.12-.63-3.19-.38-3.26-.14C72.1.403 87 17.773 87 39.183"/><path fill="#dcdcdc" d="M87 39.183h6.42a38 38 0 0 0-.52-6.28c-.38-1.81-1-4.2-1.51-6a38.1 38.1 0 0 0-5.65-10.64c-1.14-1.4-2.73-3.21-4-4.52l-2.25-2-2.32-1.85-2.54-1.67L72 4.743l-2.84-1.28-2.92-1.06-3-.85-3.12-.63-3.19-.38-3.26-.14C72.1.403 87 17.773 87 39.183"/><path fill="#dbdbdb" d="M87 39.183h6.42a38 38 0 0 0-.52-6.28c-.38-1.81-1-4.2-1.51-6a38.1 38.1 0 0 0-5.65-10.64c-1.14-1.4-2.73-3.21-4-4.52l-2.25-2-2.32-1.85-2.54-1.67L72 4.743l-2.84-1.28-2.92-1.06-3-.85-3.12-.63-3.19-.38-3.26-.14C72.1.403 87 17.773 87 39.183"/><path fill="#dadada" d="M87 39.183h6.42a38 38 0 0 0-.52-6.28c-.38-1.81-1-4.2-1.51-6a38.1 38.1 0 0 0-5.65-10.64c-1.14-1.4-2.73-3.21-4-4.52l-2.25-2-2.32-1.85-2.54-1.67L72 4.743l-2.84-1.28-2.92-1.06-3-.85-3.12-.63-3.19-.38-3.26-.14C72.1.403 87 17.773 87 39.183"/><path fill="#d8d8d8" d="M87 39.183h6.42a38 38 0 0 0-.52-6.28c-.38-1.81-1-4.2-1.51-6a38.1 38.1 0 0 0-5.65-10.64c-1.14-1.4-2.73-3.21-4-4.52l-2.25-2-2.32-1.85-2.54-1.67L72 4.743l-2.84-1.28-2.92-1.06-3-.85-3.12-.63-3.19-.38-3.26-.14C72.1.403 87 17.773 87 39.183"/><path fill="#d6d6d6" d="M87 39.183h6.42a38 38 0 0 0-.52-6.28c-.38-1.81-1-4.2-1.51-6a38.1 38.1 0 0 0-5.65-10.64c-1.14-1.4-2.73-3.21-4-4.52l-2.25-2-2.32-1.85-2.54-1.67L72 4.743l-2.84-1.28-2.92-1.06-3-.85-3.12-.63-3.19-.38-3.26-.14C72.1.403 87 17.773 87 39.183"/><path fill="#d4d4d4" d="M87 39.183h6.42a38 38 0 0 0-.52-6.28c-.38-1.81-1-4.2-1.51-6a38.1 38.1 0 0 0-5.65-10.64c-1.14-1.4-2.73-3.21-4-4.52l-2.25-2-2.32-1.85-2.54-1.67L72 4.743l-2.84-1.28-2.92-1.06-3-.85-3.12-.63-3.19-.38-3.26-.14C72.1.403 87 17.773 87 39.183"/><path fill="#cecece" d="M87 39.183h6.42a38 38 0 0 0-.52-6.28c-.38-1.81-1-4.2-1.51-6a38.1 38.1 0 0 0-5.65-10.64c-1.14-1.4-2.73-3.21-4-4.52l-2.25-2-2.32-1.85-2.54-1.67L72 4.743l-2.84-1.28-2.92-1.06-3-.85-3.12-.63-3.19-.38-3.26-.14C72.1.403 87 17.773 87 39.183"/><path fill="#cacaca" d="M87 39.183h6.42a38 38 0 0 0-.52-6.28c-.38-1.81-1-4.2-1.51-6a38.1 38.1 0 0 0-5.65-10.64c-1.14-1.4-2.73-3.21-4-4.52l-2.25-2-2.32-1.85-2.54-1.67L72 4.743l-2.84-1.28-2.92-1.06-3-.85-3.12-.63-3.19-.38-3.26-.14C72.1.403 87 17.773 87 39.183"/><path fill="#c6c6c6" d="M87 39.183h6.42a38 38 0 0 0-.52-6.28c-.38-1.81-1-4.2-1.51-6a38.1 38.1 0 0 0-5.65-10.64c-1.14-1.4-2.73-3.21-4-4.52l-2.25-2-2.32-1.85-2.54-1.67L72 4.743l-2.84-1.28-2.92-1.06-3-.85-3.12-.63-3.19-.38-3.26-.14C72.1.403 87 17.773 87 39.183"/><path fill="#c2c2c2" d="M87 39.183h6.42a38 38 0 0 0-.52-6.28c-.38-1.81-1-4.2-1.51-6a38.1 38.1 0 0 0-5.65-10.64c-1.14-1.4-2.73-3.21-4-4.52l-2.25-2-2.32-1.85-2.54-1.67L72 4.743l-2.84-1.28-2.92-1.06-3-.85-3.12-.63-3.19-.38-3.26-.14C72.1.403 87 17.773 87 39.183"/><path fill="#bebebe" d="M87 39.183h6.42a38 38 0 0 0-.52-6.28c-.38-1.81-1-4.2-1.51-6a38.1 38.1 0 0 0-5.65-10.64c-1.14-1.4-2.73-3.21-4-4.52l-2.25-2-2.32-1.85-2.54-1.67L72 4.743l-2.84-1.28-2.92-1.06-3-.85-3.12-.63-3.19-.38-3.26-.14C72.1.403 87 17.773 87 39.183"/><path fill="#b9b9b9" d="M87 39.183h6.42a38 38 0 0 0-.52-6.28c-.38-1.81-1-4.2-1.51-6a38.1 38.1 0 0 0-5.65-10.64c-1.14-1.4-2.73-3.21-4-4.52l-2.25-2-2.32-1.85-2.54-1.67L72 4.743l-2.84-1.28-2.92-1.06-3-.85-3.12-.63-3.19-.38-3.26-.14C72.1.403 87 17.773 87 39.183"/><path fill="#b5b5b5" d="M87 39.183h6.42a38 38 0 0 0-.52-6.28c-.38-1.81-1-4.2-1.51-6a38.1 38.1 0 0 0-5.65-10.64c-1.14-1.4-2.73-3.21-4-4.52l-2.25-2-2.32-1.85-2.54-1.67L72 4.743l-2.84-1.28-2.92-1.06-3-.85-3.12-.63-3.19-.38-3.26-.14C72.1.403 87 17.773 87 39.183"/><path fill="#b1b1b1" d="M87 39.183h6.42a38 38 0 0 0-.52-6.28c-.38-1.81-1-4.2-1.51-6a38.1 38.1 0 0 0-5.65-10.64c-1.14-1.4-2.73-3.21-4-4.52l-2.25-2-2.32-1.85-2.54-1.67L72 4.743l-2.84-1.28-2.92-1.06-3-.85-3.12-.63-3.19-.38-3.26-.14C72.1.403 87 17.773 87 39.183"/><path fill="#adadad" d="M87 39.183h6.42a38 38 0 0 0-.52-6.28c-.38-1.81-1-4.2-1.51-6a38.1 38.1 0 0 0-5.65-10.64c-1.14-1.4-2.73-3.21-4-4.52l-2.25-2-2.32-1.85-2.54-1.67L72 4.743l-2.84-1.28-2.92-1.06-3-.85-3.12-.63-3.19-.38-3.26-.14C72.1.403 87 17.773 87 39.183"/><path fill="#a9a9a9" d="M87 39.183h6.42a38 38 0 0 0-.52-6.28c-.38-1.81-1-4.2-1.51-6a38.1 38.1 0 0 0-5.65-10.64c-1.14-1.4-2.73-3.21-4-4.52l-2.25-2-2.32-1.85-2.54-1.67L72 4.743l-2.84-1.28-2.92-1.06-3-.85-3.12-.63-3.19-.38-3.26-.14C72.1.403 87 17.773 87 39.183"/><path fill="#a5a5a5" d="M87 39.183h6.42a38 38 0 0 0-.52-6.28c-.38-1.81-1-4.2-1.51-6a38.1 38.1 0 0 0-5.65-10.64c-1.14-1.4-2.73-3.21-4-4.52l-2.25-2-2.32-1.85-2.54-1.67L72 4.743l-2.84-1.28-2.92-1.06-3-.85-3.12-.63-3.19-.38-3.26-.14C72.1.403 87 17.773 87 39.183"/><path fill="#a1a1a1" d="M87 39.183h6.42a38 38 0 0 0-.52-6.28c-.38-1.81-1-4.2-1.51-6a38.1 38.1 0 0 0-5.65-10.64c-1.14-1.4-2.73-3.21-4-4.52l-2.25-2-2.32-1.85-2.54-1.67L72 4.743l-2.84-1.28-2.92-1.06-3-.85-3.12-.63-3.19-.38-3.26-.14C72.1.403 87 17.773 87 39.183"/><path fill="#9d9d9d" d="M87 39.183h6.42a38 38 0 0 0-.52-6.28c-.38-1.81-1-4.2-1.51-6a38.1 38.1 0 0 0-5.65-10.64c-1.14-1.4-2.73-3.21-4-4.52l-2.25-2-2.32-1.85-2.54-1.67L72 4.743l-2.84-1.28-2.92-1.06-3-.85-3.12-.63-3.19-.38-3.26-.14C72.1.403 87 17.773 87 39.183"/><path fill="#989898" d="M87 39.183h6.42a38 38 0 0 0-.52-6.28c-.38-1.81-1-4.2-1.51-6a38.1 38.1 0 0 0-5.65-10.64c-1.14-1.4-2.73-3.21-4-4.52l-2.25-2-2.32-1.85-2.54-1.67L72 4.743l-2.84-1.28-2.92-1.06-3-.85-3.12-.63-3.19-.38-3.26-.14C72.1.403 87 17.773 87 39.183"/><path fill="#949494" d="M87 39.183h6.42a38 38 0 0 0-.52-6.28c-.38-1.81-1-4.2-1.51-6a38.1 38.1 0 0 0-5.65-10.64c-1.14-1.4-2.73-3.21-4-4.52l-2.25-2-2.32-1.85-2.54-1.67L72 4.743l-2.84-1.28-2.92-1.06-3-.85-3.12-.63-3.19-.38-3.26-.14C72.1.403 87 17.773 87 39.183"/><path fill="#909090" d="M87 39.183h6.42a38 38 0 0 0-.52-6.28c-.38-1.81-1-4.2-1.51-6a38.1 38.1 0 0 0-5.65-10.64c-1.14-1.4-2.73-3.21-4-4.52l-2.25-2-2.32-1.85-2.54-1.67L72 4.743l-2.84-1.28-2.92-1.06-3-.85-3.12-.63-3.19-.38-3.26-.14C72.1.403 87 17.773 87 39.183"/><path fill="#8c8c8c" d="M87 39.183h6.42a38 38 0 0 0-.52-6.28c-.38-1.81-1-4.2-1.51-6a38.1 38.1 0 0 0-5.65-10.64c-1.14-1.4-2.73-3.21-4-4.52l-2.25-2-2.32-1.85-2.54-1.67L72 4.743l-2.84-1.28-2.92-1.06-3-.85-3.12-.63-3.19-.38-3.26-.14C72.1.403 87 17.773 87 39.183"/><path fill="#888" d="M87 39.183h6.42a38 38 0 0 0-.52-6.28c-.38-1.81-1-4.2-1.51-6a38.1 38.1 0 0 0-5.65-10.64c-1.14-1.4-2.73-3.21-4-4.52l-2.25-2-2.32-1.85-2.54-1.67L72 4.743l-2.84-1.28-2.92-1.06-3-.85-3.12-.63-3.19-.38-3.26-.14C72.1.403 87 17.773 87 39.183"/><path fill="#848484" d="M87 39.183h6.42a38 38 0 0 0-.52-6.28c-.38-1.81-1-4.2-1.51-6a38.1 38.1 0 0 0-5.65-10.64c-1.14-1.4-2.73-3.21-4-4.52l-2.25-2-2.32-1.85-2.54-1.67L72 4.743l-2.84-1.28-2.92-1.06-3-.85-3.12-.63-3.19-.38-3.26-.14C72.1.403 87 17.773 87 39.183"/><path fill="gray" d="M87 39.183h6.42a38 38 0 0 0-.52-6.28c-.38-1.81-1-4.2-1.51-6a38.1 38.1 0 0 0-5.65-10.64c-1.14-1.4-2.73-3.21-4-4.52l-2.25-2-2.32-1.85-2.54-1.67L72 4.743l-2.84-1.28-2.92-1.06-3-.85-3.12-.63-3.19-.38-3.26-.14C72.1.403 87 17.773 87 39.183"/><path fill="#7c7c7c" d="M87 39.183h6.42a38 38 0 0 0-.52-6.28c-.38-1.81-1-4.2-1.51-6a38.1 38.1 0 0 0-5.65-10.64c-1.14-1.4-2.73-3.21-4-4.52l-2.25-2-2.32-1.85-2.54-1.67L72 4.743l-2.84-1.28-2.92-1.06-3-.85-3.12-.63-3.19-.38-3.26-.14C72.1.403 87 17.773 87 39.183"/><path fill="#777" d="M87 39.183h6.42a38 38 0 0 0-.52-6.28c-.38-1.81-1-4.2-1.51-6a38.1 38.1 0 0 0-5.65-10.64c-1.14-1.4-2.73-3.21-4-4.52l-2.25-2-2.32-1.85-2.54-1.67L72 4.743l-2.84-1.28-2.92-1.06-3-.85-3.12-.63-3.19-.38-3.26-.14C72.1.403 87 17.773 87 39.183"/><path fill="#737373" d="M87 39.183h6.42a38 38 0 0 0-.52-6.28c-.38-1.81-1-4.2-1.51-6a38.1 38.1 0 0 0-5.65-10.64c-1.14-1.4-2.73-3.21-4-4.52l-2.25-2-2.32-1.85-2.54-1.67L72 4.743l-2.84-1.28-2.92-1.06-3-.85-3.12-.63-3.19-.38-3.26-.14C72.1.403 87 17.773 87 39.183"/><path fill="#6f6f6f" d="M87 39.183h6.42a38 38 0 0 0-.52-6.28c-.38-1.81-1-4.2-1.51-6a38.1 38.1 0 0 0-5.65-10.64c-1.14-1.4-2.73-3.21-4-4.52l-2.25-2-2.32-1.85-2.54-1.67L72 4.743l-2.84-1.28-2.92-1.06-3-.85-3.12-.63-3.19-.38-3.26-.14C72.1.403 87 17.773 87 39.183"/><path fill="#6b6b6b" d="M87 39.183h6.42a38 38 0 0 0-.52-6.28c-.38-1.81-1-4.2-1.51-6a38.1 38.1 0 0 0-5.65-10.64c-1.14-1.4-2.73-3.21-4-4.52l-2.25-2-2.32-1.85-2.54-1.67L72 4.743l-2.84-1.28-2.92-1.06-3-.85-3.12-.63-3.19-.38-3.26-.14C72.1.403 87 17.773 87 39.183"/><path fill="#e1e1e1" d="M13.87 39.183v.54H87v-.54z"/><path fill="#e1e1e1" d="M13.9 39.723h29.19a50 50 0 0 1-5.22-.22c1-.49 11.08-.19 11.88-.14-1.37.71-2.83.17-4.24.36H87v-.54H13.87v.54"/><path fill="#e0e0e0" d="M13.9 39.723H41c-3.49-.17-3.49-.17-3.84-.22 1.84-.59 13.44-.1 13.52-.1-1.35.4-2.76 0-4.12.29H87v-.54H13.87v.54"/><path fill="#dfdfdf" d="M48 39.213a16.5 16.5 0 0 1 3.28.22c-1.18.58-2.44.16-3.66.29H87v-.54H45h3m-34.1.54h25.37a24 24 0 0 1-2.82-.22s0-.11.08-.13c.23-.15 2.23-.16 7.55-.19H13.87v.54"/><path fill="#dedede" d="M49.19 39.213a9.8 9.8 0 0 1 2.66.22c-.16.08-.16.08-3.19.29H87v-.54H46.25h2.94m-35.29.54h24.56a19 19 0 0 1-2.71-.22v-.13a46 46 0 0 1 5.11-.19h-27v.54"/><path fill="#dcdcdc" d="M50 39.213a12.5 12.5 0 0 1 2.42.22c-.26.14-.29.15-2.72.29H87v-.54H47.56h2.46m-36.12.54h23.76a12.8 12.8 0 0 1-2.66-.22s0-.1.06-.13a16.3 16.3 0 0 1 3.35-.18c.14 0 .37.09.47 0h-25v.54"/><path fill="#dbdbdb" d="M50 39.203a10.6 10.6 0 0 1 3 .2c-.21.11-.21.11-2.55.29H87v-.54H48.87h1.15m-36.12.57h23a16 16 0 0 1-2.53-.22s0-.1.06-.13a25 25 0 0 1 3.5-.19h-24v.54"/><path fill="#dadada" d="M51.62 39.213a6.3 6.3 0 0 1 2 .22c-.24.13-.24.13-2.49.29H87v-.54H50.11h1.51m-37.72.54h22.16a11.4 11.4 0 0 1-2.57-.22s0-.1.06-.13a19 19 0 0 1 3.32-.19h-23v.54"/><path fill="#d8d8d8" d="M52.32 39.213q.874.03 1.74.16c-.21.21-.21.21-2.28.35H87v-.54H50.88h1.44m-38.42.54h21.37a10.3 10.3 0 0 1-2.61-.22s0-.1.05-.13c1-.85 2.15.83 3.14-.19h-22v.54"/><path fill="#d6d6d6" d="M53 39.213q.825.03 1.64.16c-.21.23-.21.23-2.21.35H87v-.54H51.66h1.35m-39.11.54h20.59a9 9 0 0 1-2.65-.22.13.13 0 0 1 0-.13 9.4 9.4 0 0 1 2.55-.18c.13 0 .33.08.42 0h-21v.54"/><path fill="#d4d4d4" d="M53.7 39.213q.774.03 1.54.16c-.2.24-.2.24-2.15.35H87v-.54H52.43h1.27m-39.8.54h19.54c-2.13-.08-2.4-.18-2.42-.23s0-.09.05-.12a15 15 0 0 1 2.69-.19H13.87v.54"/><path fill="#cecece" d="M54.4 39.213a6 6 0 0 1 1.66.22c-.16.1-.29.18-2.32.29H87v-.54H53.2h1.2m-40.5.54h18.49a7 7 0 0 1-2.16-.23.08.08 0 0 1 0-.09 6.9 6.9 0 0 1 2.18-.21h.23-18.77v.54"/><path fill="#cacaca" d="M55.09 39.213a4.8 4.8 0 0 1 1.67.22c-.17.11-.3.19-2.37.29H87v-.54H54h1.11m-41.21.54h17.45a7 7 0 0 1-2.1-.28 7.3 7.3 0 0 1 2.26-.26H13.87v.54"/><path fill="#c6c6c6" d="M55.35 39.203c.67-.008 1.34.048 2 .17-.2.24-.21.25-2.29.35H87v-.54H54.75h.6m-41.45.54h16.44a8.2 8.2 0 0 1-2.34-.32 8.4 8.4 0 0 1 2.35-.25H13.87v.54"/><path fill="#c2c2c2" d="M56.67 39.213a7.4 7.4 0 0 1 1.33.19.14.14 0 0 1 0 .15s-.17.12-2.22.2H87v-.54H55.55zm-42.77.51h15.23c-.58 0-2.33-.08-2.31-.28a7.7 7.7 0 0 1 2.4-.26H13.87v.54"/><path fill="#bebebe" d="M57.48 39.213a5.2 5.2 0 0 1 1.31.18s0 .11-.08.13a7.1 7.1 0 0 1-2.07.2H87v-.54H56.45h1m-43.55.54h13.62c-1.23-.06-1.85-.15-1.84-.28s1.42-.24 2-.26H13.87v.54"/><path fill="#b9b9b9" d="M58.29 39.213a4.8 4.8 0 0 1 1.19.18s0 .11-.07.13a6.3 6.3 0 0 1-1.92.2H87v-.54H57.35h.94m-44.39.54H26c-1.41-.1-1.65-.21-1.66-.26a4.4 4.4 0 0 1 1.93-.28h-12.4v.54"/><path fill="#b5b5b5" d="M59.1 39.213a4 4 0 0 1 1.07.18s0 .11-.07.13a5.1 5.1 0 0 1-1.76.2H87v-.54H58.25h.85m-45.2.54h10.56c-.95-.08-1.44-.17-1.47-.26s1.36-.26 1.82-.28H13.87v.54"/><path fill="#b1b1b1" d="M59.91 39.213a7 7 0 0 1 1.09.19c.06.16-.58.27-1.8.33H87v-.54H59.14h.77m-46.01.53H23a3.5 3.5 0 0 1-1.23-.25.2.2 0 0 1 0-.07 4 4 0 0 1 1.58-.22h-9.48v.54"/><path fill="#adadad" d="M87 39.723v-.54H60c1.82.08 1.92.17 2.06.28a6.6 6.6 0 0 1-2.07.26zm-73.1 0h7.74c-.77-.13-1-.17-1-.25a.2.2 0 0 1 0-.07s.26-.16 1.33-.22h-8.1v.54"/><path fill="#a9a9a9" d="M87 39.723v-.54H61c.63 0 2.11.08 2.09.28s-.29.19-2.15.26zm-73.1 0h6.61c-.62-.11-1.1-.2-.86-.35a3.6 3.6 0 0 1 1.14-.19h-6.92v.54"/><path fill="#a5a5a5" d="M87 39.723v-.54H62.33c.56 0 1.88.08 1.86.28s-.26.19-1.88.26zm-73.1 0h5.56c-.49-.1-1-.19-.75-.35a2.6 2.6 0 0 1 1-.19h-5.84v.54"/><path fill="#a1a1a1" d="M64.29 39.213a3 3 0 0 1 .91.18s0 .1-.06.13-.32.14-1.53.2H87v-.54H63.59h.7m-50.39.54h4.63c-.38-.09-.9-.21-.6-.38a2.1 2.1 0 0 1 .79-.16h-4.85v.54"/><path fill="#9d9d9d" d="M65.45 39.213s1 .11 1 .22 0 .19-1.55.29H87v-.54H64.85h.6m-51.55.54h3.82c-.29-.07-.82-.2-.54-.38.215-.105.45-.16.69-.16h-4v.54"/><path fill="#989898" d="M66.87 39.213c.3 0 1 .12 1 .22s-.19.2-1.6.29H87v-.54H66.18h.69m-52.97.54H17c-.53-.14-.67-.28-.43-.41.173-.08.36-.124.55-.13h-3.25v.54"/><path fill="#949494" d="M68.39 39.213c.26 0 .91.12.92.22s-.16.2-1.41.29H87v-.54H67.76h.63m-54.49.54h2.42c-.6-.18-.49-.33-.37-.41a1 1 0 0 1 .46-.13h-2.54v.54"/><path fill="#909090" d="M69.88 39.213c.24 0 .82.12.83.22s-.2.2-1.23.29H87v-.54H69.32h.56m-55.98.54h1.84c-.63-.2-.34-.4-.28-.44s.1-.06.34-.1h-1.93v.54"/><path fill="#8c8c8c" d="M71.44 39.213c.24 0 .86.12.87.22s-.41.21-1.25.29H87v-.54H70.87h.57m-57.54.54h1.33c-.54-.21-.3-.44-.11-.51s.12-.06.15 0h-1.4v.54"/><path fill="#888" d="M73.08 39.213c.12 0 .77.11.79.22s-.11.19-1.15.29H87v-.54H72.57h.51m-59.18.54h.89c-.4-.17-.29-.43-.1-.51h.12-.94v.54"/><path fill="#848484" d="M74.68 39.213s.78.09.72.25-.09.16-1.06.26H87v-.54H74.22h.46m-60.78.54h.53a.35.35 0 0 1-.2-.29.25.25 0 0 1 .21-.25h-.57v.54"/><path fill="gray" d="M76.36 39.213s.77.09.73.25-.09.16-1.1.26H87v-.54H75.89h.47m-62.46.54h.27a.36.36 0 0 1-.17-.32.23.23 0 0 1 .13-.25h-.28v.54"/><path fill="#7c7c7c" d="M78.08 39.213s.68.09.65.25-.09.17-1 .26H87v-.54h-9.33.41m-64.18.54h.1c-.07-.09-.12-.44 0-.54h-.08v.54"/><path fill="#777" d="M79.74 39.213c.21 0 .68.12.7.22s-.08.19-1.06.29H87v-.54h-7.61.35"/><path fill="#737373" d="M87 39.723v-.54h-5.62c1 .09.92.27.89.31s-.76.21-1 .23z"/><path fill="#6f6f6f" d="M87 39.723v-.54h-3.7c.24 0 1 .13.82.31s-.71.2-1 .23z"/><path fill="#6b6b6b" d="M87 39.723v-.54h-1.21c.59.11.62.27.45.38a1.3 1.3 0 0 1-.54.16z"/><path fill="#e2e2e2" d="M38.49 39.463a67 67 0 0 0 10.6 0c-.36-.41-10.08-.24-10.61 0"/><path fill="#e2e2e2" d="M39.2 39.463s8.44.39 8.87 0a52.6 52.6 0 0 0-8.88 0"/><path fill="#e3e3e3" d="M40.59 39.463c.3.12 6.09.3 6.43 0-1-.33-6.43 0-6.44 0"/><path fill="#e4e4e4" d="M42.44 39.463c1.172.14 2.357.14 3.53 0a13.2 13.2 0 0 0-3.57 0"/><path fill="#e5e5e5" d="M44.31 39.463c.201.04.409.04.61 0a.7.7 0 0 0-.23 0 2 2 0 0 0-.42 0"/><path fill="#e1e1e1" d="M53.67.403c-2 .08-4.53.28-6.46.51a40.4 40.4 0 0 0-17.05 6.98 41 41 0 0 0-4.63 3.88 39 39 0 0 0-4 4.52 37.88 37.88 0 0 0-7.68 22.89H87C87 17.773 72.1.403 53.67.403"/><path fill="#e1e1e1" d="M47.21.923a40.34 40.34 0 0 0-17.05 6.97 41 41 0 0 0-4.63 3.88 39 39 0 0 0-4 4.52 37.88 37.88 0 0 0-7.68 22.89H87C87 17.773 72.1.403 53.67.403l-3.27.14z"/><path fill="#e0e0e0" d="M47.21.923a40.34 40.34 0 0 0-17.05 6.97 41 41 0 0 0-4.63 3.88 39 39 0 0 0-4 4.52 37.88 37.88 0 0 0-7.68 22.89H87C87 17.773 72.1.403 53.67.403l-3.27.14z"/><path fill="#dfdfdf" d="M47.21.923a40.34 40.34 0 0 0-17.05 6.97 41 41 0 0 0-4.63 3.88 39 39 0 0 0-4 4.52 37.88 37.88 0 0 0-7.68 22.89h30.23l.62-.11c16 .11 33 .11 42.34.11C87 17.773 72.1.403 53.67.403l-3.27.14z"/><path fill="#dedede" d="M47.21.923a40.34 40.34 0 0 0-17.05 6.97 41 41 0 0 0-4.63 3.88 39 39 0 0 0-4 4.52 37.88 37.88 0 0 0-7.68 22.89h27c3.79-.69 3.79-.69 5.34 0H87C87 17.773 72.1.403 53.67.403l-3.27.14z"/><path fill="#dcdcdc" d="M47.21.923a40.34 40.34 0 0 0-17.05 6.97 41 41 0 0 0-4.63 3.88 39 39 0 0 0-4 4.52 37.88 37.88 0 0 0-7.68 22.89h25.07c3.46-2.3 7.19-.64 8.59 0h39.53C87 17.773 72.1.403 53.67.403l-3.27.14z"/><path fill="#dbdbdb" d="M47.21.923a40.34 40.34 0 0 0-17.05 6.97 41 41 0 0 0-4.63 3.88 39 39 0 0 0-4 4.52 37.88 37.88 0 0 0-7.68 22.89h24c4.39-2.91 6.73-1.88 11 0H87C87 17.773 72.1.403 53.67.403l-3.27.14z"/><path fill="#dadada" d="M47.21.923a40.34 40.34 0 0 0-17.05 6.97 41 41 0 0 0-4.63 3.88 39 39 0 0 0-4 4.52 37.88 37.88 0 0 0-7.68 22.89h23c5.31-3.52 6.66-2.93 13.15-.08 14.29.08 28.71.08 37 .08C87 17.773 72.1.403 53.67.403l-3.27.14z"/><path fill="#d8d8d8" d="M47.21.923a40.34 40.34 0 0 0-17.05 6.97 41 41 0 0 0-4.63 3.88 39 39 0 0 0-4 4.52 37.88 37.88 0 0 0-7.68 22.89h22c2.58-1.72 8.62-5.76 15 0H87C87 17.773 72.1.403 53.67.403l-3.27.14z"/><path fill="#d6d6d6" d="M47.21.923a40.34 40.34 0 0 0-17.05 6.97 41 41 0 0 0-4.63 3.88 39 39 0 0 0-4 4.52 37.88 37.88 0 0 0-7.68 22.89h21c4-2.73 9.59-6.47 16.81 0H87C87 17.773 72.1.403 53.67.403l-3.27.14z"/><path fill="#d4d4d4" d="M47.21.923a40.34 40.34 0 0 0-17.05 6.97 41 41 0 0 0-4.63 3.88 39 39 0 0 0-4 4.52 37.88 37.88 0 0 0-7.68 22.89h19.91c8.15-7.79 15.71-2.64 18.58-.07l.09.07H87C87 17.773 72.1.403 53.67.403l-3.27.14z"/><path fill="#cecece" d="M47.21.923a40.34 40.34 0 0 0-17.05 6.97 41 41 0 0 0-4.63 3.88 39 39 0 0 0-4 4.52 37.88 37.88 0 0 0-7.68 22.89h18.78c2.47-2.35 10-9.5 20.57 0H87C87 17.773 72.1.403 53.67.403l-3.27.14z"/><path fill="#cacaca" d="M47.21.923a40.34 40.34 0 0 0-17.05 6.97 41 41 0 0 0-4.63 3.88 39 39 0 0 0-4 4.52 37.88 37.88 0 0 0-7.68 22.89h17.66c4.66-4.47 12.05-9.33 22.47 0H87C87 17.773 72.1.403 53.67.403l-3.27.14z"/><path fill="#c6c6c6" d="M47.21.923a40.34 40.34 0 0 0-17.05 6.97 41 41 0 0 0-4.63 3.88 39 39 0 0 0-4 4.52 37.88 37.88 0 0 0-7.68 22.89h16.57c8-8 15.92-8 24.33 0H87C87 17.773 72.1.403 53.67.403l-3.27.14z"/><path fill="#c2c2c2" d="M47.21.923a40.34 40.34 0 0 0-17.05 6.97 41 41 0 0 0-4.63 3.88 39 39 0 0 0-4 4.52 37.88 37.88 0 0 0-7.68 22.89h15.37c5.6-6.65 15.81-10.71 26.13-.24 12.54.24 24.44.24 31.69.24C87 17.773 72.1.403 53.67.403l-3.27.14z"/><path fill="#bebebe" d="M47.21.923a40.34 40.34 0 0 0-17.05 6.97 41 41 0 0 0-4.63 3.88 39 39 0 0 0-4 4.52 37.88 37.88 0 0 0-7.68 22.89h13.86c8.24-9.84 20.6-9.84 28.74 0H87C87 17.773 72.1.403 53.67.403l-3.27.14z"/><path fill="#b9b9b9" d="M47.21.923a40.34 40.34 0 0 0-17.05 6.97 41 41 0 0 0-4.63 3.88 39 39 0 0 0-4 4.52 37.88 37.88 0 0 0-7.68 22.89h12.41c1.54-2 6.21-8 13.3-8 4.95 0 6.8 0 10.5 1.66 3.06 1.38 4.26 4.89 7.26 6.33h29.72C87 17.773 72.1.403 53.67.403l-3.27.14z"/><path fill="#b5b5b5" d="M47.21.923a40.34 40.34 0 0 0-17.05 6.97 41 41 0 0 0-4.63 3.88 39 39 0 0 0-4 4.52 37.88 37.88 0 0 0-7.68 22.89h10.96c5.07-8.22 21-15.47 33.44 0H87C87 17.773 72.1.403 53.67.403l-3.27.14z"/><path fill="#b1b1b1" d="M47.21.923a40.34 40.34 0 0 0-17.05 6.97 41 41 0 0 0-4.63 3.88 39 39 0 0 0-4 4.52 37.88 37.88 0 0 0-7.68 22.89h9.47c4.92-8.18 11.75-9.9 16.61-9.9 7.94 0 14.09 2.92 18.3 8.68.26.36.49 1 .89 1.22H87C87 17.773 72.1.403 53.67.403l-3.27.14z"/><path fill="#adadad" d="M47.21.923a40.34 40.34 0 0 0-17.05 6.97 41 41 0 0 0-4.63 3.88 39 39 0 0 0-4 4.52 37.88 37.88 0 0 0-7.68 22.89H22c1.4-2.67 5.75-10.78 18-10.78 6.49 0 10 1.88 10.07 1.9 6.41 3.46 7.28 4.81 9.2 7.78.22.34.37.93.72 1.12H87c0-21.43-14.9-38.8-33.33-38.8l-3.27.14z"/><path fill="#a9a9a9" d="M47.21.923a40.34 40.34 0 0 0-17.05 6.97 41 41 0 0 0-4.63 3.88 39 39 0 0 0-4 4.52 37.88 37.88 0 0 0-7.68 22.89h6.92c4.48-10.4 14.07-12 19.38-12q1.403.09 2.79.33a23.35 23.35 0 0 1 17.47 10.62c.18.32.32.88.64 1.05H87C87 17.773 72.1.403 53.67.403l-3.27.14z"/><path fill="#a5a5a5" d="M47.21.923a40.34 40.34 0 0 0-17.05 6.97 41 41 0 0 0-4.63 3.88 39 39 0 0 0-4 4.52 37.88 37.88 0 0 0-7.68 22.89h5.85c1.3-3.24 5.13-13.11 20.62-13.13 6.31 0 16.77 4.65 20.3 10.44.49.81.86 2.2 1.68 2.65h24.74C87 17.773 72.1.403 53.67.403l-3.27.14z"/><path fill="#a1a1a1" d="M47.21.923a40.34 40.34 0 0 0-17.05 6.97 41 41 0 0 0-4.63 3.88 39 39 0 0 0-4 4.52 37.88 37.88 0 0 0-7.68 22.89h4.85c1.87-6.51 7.16-14.28 21.76-14.28.14 0 14.89.36 22.49 13.22.18.32.3.88.62 1.06H87C87 17.773 72.1.403 53.67.403l-3.27.14z"/><path fill="#9d9d9d" d="M47.21.923a40.34 40.34 0 0 0-17.05 6.97 41 41 0 0 0-4.63 3.88 39 39 0 0 0-4 4.52 37.88 37.88 0 0 0-7.68 22.89h4c6.72-23 35.78-17 45-3.73.72 1 .91 3.07 2 3.73H87C87 17.773 72.1.403 53.67.403l-3.27.14z"/><path fill="#989898" d="M47.21.923a40.34 40.34 0 0 0-17.05 6.97 41 41 0 0 0-4.63 3.88 39 39 0 0 0-4 4.52 37.88 37.88 0 0 0-7.68 22.89h3.25c6.58-25.57 37.64-18.57 47.25-3.73a40 40 0 0 1 1.83 3.73H87C87 17.773 72.1.403 53.67.403l-3.27.14z"/><path fill="#949494" d="M47.21.923a40.34 40.34 0 0 0-17.05 6.97 41 41 0 0 0-4.63 3.88 39 39 0 0 0-4 4.52 37.88 37.88 0 0 0-7.68 22.89h2.54c5-25.51 38.29-21.36 49.32-3.91.71 1.12.91 3.21 2 3.91H87C87 17.773 72.1.403 53.67.403l-3.27.14z"/><path fill="#909090" d="M47.21.923a40.34 40.34 0 0 0-17.05 6.97 41 41 0 0 0-4.63 3.88 39 39 0 0 0-4 4.52 37.88 37.88 0 0 0-7.68 22.89h1.95c5.38-27.78 40.18-23 51.63-4 .67 1.13.79 3.24 1.89 4H87C87 17.773 72.1.403 53.67.403l-3.27.14z"/><path fill="#8c8c8c" d="M47.21.923a40.34 40.34 0 0 0-17.05 6.97 41 41 0 0 0-4.63 3.88 39 39 0 0 0-4 4.52 37.88 37.88 0 0 0-7.68 22.89h1.4c4.55-27.64 37.83-25.23 51.52-7.36a20 20 0 0 1 3.73 6.5c.07.17.08.44.22.54 6.51.32 12.16.32 16.3.32C87 17.773 72.1.403 53.67.403l-3.27.14z"/><path fill="#888" d="M47.21.923a40.34 40.34 0 0 0-17.05 6.97 41 41 0 0 0-4.63 3.88 39 39 0 0 0-4 4.52 37.88 37.88 0 0 0-7.68 22.89h.94c3.64-27.68 38.43-28.53 53.87-7.36a24.6 24.6 0 0 1 3.54 6.5c.1.26.11.71.35.86H87C87 17.773 72.1.403 53.67.403l-3.27.14z"/><path fill="#848484" d="M47.21.923a40.34 40.34 0 0 0-17.05 6.97 41 41 0 0 0-4.63 3.88 39 39 0 0 0-4 4.52 37.88 37.88 0 0 0-7.68 22.89h.57c3.48-29.94 37.41-29.24 53.41-10.88a31.1 31.1 0 0 1 6.39 10.88H87C87 17.773 72.1.403 53.67.403l-3.27.14z"/><path fill="gray" d="M47.21.923a40.34 40.34 0 0 0-17.05 6.97 41 41 0 0 0-4.63 3.88 39 39 0 0 0-4 4.52 37.88 37.88 0 0 0-7.68 22.89h.28C16.85 9.333 52 6.623 69.89 28.303a29.9 29.9 0 0 1 5.51 9.52c.15.41.14 1.11.49 1.36H87C87 17.773 72.1.403 53.67.403l-3.27.14z"/><path fill="#7c7c7c" d="M47.21.923a40.34 40.34 0 0 0-17.05 6.97 41 41 0 0 0-4.63 3.88 39 39 0 0 0-4 4.52 37.88 37.88 0 0 0-7.68 22.89H14c2.08-30.28 36.82-34.62 55.65-13.67 5.65 6.29 7.14 10.91 8 13.67H87C87 17.773 72.1.403 53.67.403l-3.27.14z"/><path fill="#777" d="M47.21.923a40.34 40.34 0 0 0-17.05 6.97 41 41 0 0 0-4.63 3.88 39 39 0 0 0-4 4.52 37.88 37.88 0 0 0-7.68 22.89c1.48-32 38-36.59 57.62-14.26 5.8 6.6 7.23 11.8 7.7 13.51.06.23 0 .61.2.75H87C87 17.773 72.1.403 53.67.403l-3.27.14z"/><path fill="#737373" d="M47.21.923a40.34 40.34 0 0 0-17.05 6.97 41 41 0 0 0-4.63 3.88 39 39 0 0 0-4 4.52 38 38 0 0 0-7.14 16.61c0 .21-.07.42-.1.64 5.56-31.23 45.53-30.14 62.19-5.24a36.5 36.5 0 0 1 3 5.66c.77 1.69.11 3.89 1.87 5.22H87C87 17.773 72.1.403 53.67.403l-3.27.14z"/><path fill="#6f6f6f" d="M47.21.923a40.34 40.34 0 0 0-17.05 6.97 41 41 0 0 0-4.63 3.88 38.1 38.1 0 0 0-9.63 15.16c-.09.25-.17.51-.25.76 11.09-30.15 51.72-23.17 65.26 4.13a23.4 23.4 0 0 1 2.28 6.66c0 .21 0 .57.15.7H87C87 17.773 72.1.403 53.67.403l-3.27.14z"/><path fill="#6b6b6b" d="M47.21.923a40.34 40.34 0 0 0-17.05 6.97 41 41 0 0 0-4.63 3.88 39 39 0 0 0-7.1 9.38c17.4-29.13 58.87-11.33 66.5 14.3.33 1.1 0 3 .86 3.73H87C87 17.773 72.1.403 53.67.403l-3.27.14z"/><path fill="#e1e1e1" d="M13.87 39.183a37.8 37.8 0 0 1 2-12.25 38.76 38.76 0 0 1 9.63-15.16 41 41 0 0 1 4.63-3.88 40.4 40.4 0 0 1 5.22-3.15A40.3 40.3 0 0 1 47.21.923C53.28.203 60-.197 69.16 3.463a40.64 40.64 0 0 1 16.62 12.83 38.1 38.1 0 0 1 5.65 10.64 79 79 0 0 1 1.51 6 38 38 0 0 1 .52 6.28H13.87"/><path fill="#e1e1e1" d="M60.12.923c1.85.37 4.31 1 6.12 1.47l2.92 1.07L72 4.743l2.68 1.48 2.54 1.67 2.39 1.86 2.25 2 2.07 2.18 1.9 2.34a38.1 38.1 0 0 1 5.65 10.64 79 79 0 0 1 1.51 6 38 38 0 0 1 .52 6.28H13.87c.08-1.89.29-4.41.52-6.28a38 38 0 0 1 7.16-16.61 39 39 0 0 1 4-4.52 41 41 0 0 1 4.63-3.88 40.4 40.4 0 0 1 5.22-3.15A40.3 40.3 0 0 1 47.21.923c1.93-.23 4.51-.43 6.46-.52l3.26.13 3.19.38"/><path fill="#e0e0e0" d="M60.12.923c1.85.37 4.31 1 6.12 1.47l2.92 1.07L72 4.743l2.68 1.48 2.54 1.67 2.39 1.86 2.25 2 2.07 2.18 1.9 2.34a38.1 38.1 0 0 1 5.65 10.64 79 79 0 0 1 1.51 6 38 38 0 0 1 .52 6.28H13.87c.08-1.89.29-4.41.52-6.28a38 38 0 0 1 7.16-16.61 39 39 0 0 1 4-4.52 41 41 0 0 1 4.63-3.88 40.4 40.4 0 0 1 5.22-3.15A40.3 40.3 0 0 1 47.21.923c1.93-.23 4.51-.43 6.46-.52l3.26.13 3.19.38"/><path fill="#dfdfdf" d="M60.12.923c1.85.37 4.31 1 6.12 1.47l2.92 1.07L72 4.743l2.68 1.48 2.54 1.67 2.39 1.86 2.25 2 2.07 2.18 1.9 2.34a38.1 38.1 0 0 1 5.65 10.64 79 79 0 0 1 1.51 6 38 38 0 0 1 .52 6.28H13.87c.08-1.89.29-4.41.52-6.28a38 38 0 0 1 7.16-16.61 39 39 0 0 1 4-4.52 41 41 0 0 1 4.63-3.88 40.4 40.4 0 0 1 5.22-3.15A40.3 40.3 0 0 1 47.21.923c1.93-.23 4.51-.43 6.46-.52l3.26.13 3.19.38"/><path fill="#dedede" d="M60.12.923c1.85.37 4.31 1 6.12 1.47l2.92 1.07L72 4.743l2.68 1.48 2.54 1.67 2.39 1.86 2.25 2 2.07 2.18 1.9 2.34a38.1 38.1 0 0 1 5.65 10.64 79 79 0 0 1 1.51 6 38 38 0 0 1 .52 6.28H13.87c.08-1.89.29-4.41.52-6.28a38 38 0 0 1 7.16-16.61 39 39 0 0 1 4-4.52 41 41 0 0 1 4.63-3.88 40.4 40.4 0 0 1 5.22-3.15A40.3 40.3 0 0 1 47.21.923c1.93-.23 4.51-.43 6.46-.52l3.26.13 3.19.38"/><path fill="#dcdcdc" d="M60.12.923c1.85.37 4.31 1 6.12 1.47l2.92 1.07L72 4.743l2.68 1.48 2.54 1.67 2.39 1.86 2.25 2 2.07 2.18 1.9 2.34a38.1 38.1 0 0 1 5.65 10.64 79 79 0 0 1 1.51 6 38 38 0 0 1 .52 6.28H13.87c.08-1.89.29-4.41.52-6.28a38 38 0 0 1 7.16-16.61 39 39 0 0 1 4-4.52 41 41 0 0 1 4.63-3.88 40.4 40.4 0 0 1 5.22-3.15A40.3 40.3 0 0 1 47.21.923c1.93-.23 4.51-.43 6.46-.52l3.26.13 3.19.38"/><path fill="#dbdbdb" d="M60.12.923c1.85.37 4.31 1 6.12 1.47l2.92 1.07L72 4.743l2.68 1.48 2.54 1.67 2.39 1.86 2.25 2 2.07 2.18 1.9 2.34a38.1 38.1 0 0 1 5.65 10.64 79 79 0 0 1 1.51 6 38 38 0 0 1 .52 6.28H13.87c.08-1.89.29-4.41.52-6.28a38 38 0 0 1 7.16-16.61 39 39 0 0 1 4-4.52 41 41 0 0 1 4.63-3.88 40.4 40.4 0 0 1 5.22-3.15A40.3 40.3 0 0 1 47.21.923c1.93-.23 4.51-.43 6.46-.52l3.26.13 3.19.38"/><path fill="#dadada" d="M60.12.923c1.85.37 4.31 1 6.12 1.47l2.92 1.07L72 4.743l2.68 1.48 2.54 1.67 2.39 1.86 2.25 2 2.07 2.18 1.9 2.34a38.1 38.1 0 0 1 5.65 10.64 79 79 0 0 1 1.51 6 38 38 0 0 1 .52 6.28H13.87c.08-1.89.29-4.41.52-6.28a38 38 0 0 1 7.16-16.61 39 39 0 0 1 4-4.52 41 41 0 0 1 4.63-3.88 40.4 40.4 0 0 1 5.22-3.15A40.3 40.3 0 0 1 47.21.923c1.93-.23 4.51-.43 6.46-.52l3.26.13 3.19.38"/><path fill="#d8d8d8" d="M60.12.923c1.85.37 4.31 1 6.12 1.47l2.92 1.07L72 4.743l2.68 1.48 2.54 1.67 2.39 1.86 2.25 2 2.07 2.18 1.9 2.34a38.1 38.1 0 0 1 5.65 10.64 79 79 0 0 1 1.51 6 38 38 0 0 1 .52 6.28H72.76c9.46-16.38-9.39-19.21-11.27-18.94-.17 0-16.29 2.8-6.32 18.94h-41.3c.08-1.89.29-4.41.52-6.28a38 38 0 0 1 7.16-16.61 39 39 0 0 1 4-4.52 41 41 0 0 1 4.63-3.88 40.4 40.4 0 0 1 5.22-3.15A40.3 40.3 0 0 1 47.21.923c1.93-.23 4.51-.43 6.46-.52l3.26.13 3.19.38"/><path fill="#d6d6d6" d="M60.12.923c1.85.37 4.31 1 6.12 1.47l2.92 1.07L72 4.743l2.68 1.48 2.54 1.67 2.39 1.86 2.25 2 2.07 2.18 1.9 2.34a38.1 38.1 0 0 1 5.65 10.64 79 79 0 0 1 1.51 6 38 38 0 0 1 .52 6.28H73.76c9.08-17.37-10.37-19.92-12.36-19.62-.17 0-16.61 3-6.94 19.61H13.87c.08-1.89.29-4.41.52-6.28a38 38 0 0 1 7.16-16.61 39 39 0 0 1 4-4.52 41 41 0 0 1 4.63-3.88A40.34 40.34 0 0 1 47.21.923c1.93-.23 4.51-.43 6.46-.52l3.26.13 3.19.38"/><path fill="#d4d4d4" d="M60.12.923c1.85.37 4.31 1 6.12 1.47l2.92 1.07L72 4.743l2.68 1.48 2.54 1.67 2.39 1.86 2.25 2 2.07 2.18 1.9 2.34a38.1 38.1 0 0 1 5.65 10.64 79 79 0 0 1 1.51 6 38 38 0 0 1 .52 6.28H74.77c8.23-17.89-10.69-22.67-17.92-18.88-10.58 5.56-5 15.58-3.1 18.87H13.87c.08-1.89.29-4.41.52-6.28a38 38 0 0 1 7.16-16.61 39 39 0 0 1 4-4.52 41 41 0 0 1 4.63-3.88A40.34 40.34 0 0 1 47.21.923c1.93-.23 4.51-.43 6.46-.52l3.26.13 3.19.38"/><path fill="#cecece" d="M60.12.923c1.85.37 4.31 1 6.12 1.47l2.92 1.07L72 4.743l2.68 1.48 2.54 1.67 2.39 1.86 2.25 2 2.07 2.18 1.9 2.34a38.1 38.1 0 0 1 5.65 10.64 79 79 0 0 1 1.51 6 38 38 0 0 1 .52 6.28H75.77c7.94-20-10.94-23.79-19-19.66-5.2 2.7-10.11 8.31-3.77 19.65H13.87c.08-1.89.29-4.41.52-6.28a38 38 0 0 1 7.16-16.61 39 39 0 0 1 4-4.52 41 41 0 0 1 4.63-3.88A40.34 40.34 0 0 1 47.21.923c1.93-.23 4.51-.43 6.46-.52l3.26.13 3.19.38"/><path fill="#cacaca" d="M60.12.923c1.85.37 4.31 1 6.12 1.47l2.92 1.07L72 4.743l2.68 1.48 2.54 1.67 2.39 1.86 2.25 2 2.07 2.18 1.9 2.34a38.1 38.1 0 0 1 5.65 10.64 79 79 0 0 1 1.51 6 38 38 0 0 1 .52 6.28H76.74c8-21.78-12-24.54-20-20.44-5.59 2.89-10.89 8.77-4.44 20.44H13.87c.08-1.89.29-4.41.52-6.28a38 38 0 0 1 7.16-16.61 39 39 0 0 1 4-4.52 41 41 0 0 1 4.63-3.88 40.4 40.4 0 0 1 5.22-3.15A40.3 40.3 0 0 1 47.21.923c1.93-.23 4.51-.43 6.46-.52l3.26.13 3.19.38"/><path fill="#c6c6c6" d="M60.12.923c1.85.37 4.31 1 6.12 1.47l2.92 1.07L72 4.743l2.68 1.48 2.54 1.67 2.39 1.86 2.25 2 2.07 2.18 1.9 2.34a38.1 38.1 0 0 1 5.65 10.64 79 79 0 0 1 1.51 6 38 38 0 0 1 .52 6.28H77.7c8-16.48-6.2-25.42-16.82-23-.19.05-18.93 4.52-9.31 23h-37.7c.08-1.89.29-4.41.52-6.28a38 38 0 0 1 7.16-16.61 39 39 0 0 1 4-4.52 41 41 0 0 1 4.63-3.88 40.4 40.4 0 0 1 5.22-3.15A40.3 40.3 0 0 1 47.21.923c1.93-.23 4.51-.43 6.46-.52l3.26.13 3.19.38"/><path fill="#c2c2c2" d="M60.12.923c1.85.37 4.31 1 6.12 1.47l2.92 1.07L72 4.743l2.68 1.48 2.54 1.67 2.39 1.86 2.25 2 2.07 2.18 1.9 2.34a38.1 38.1 0 0 1 5.65 10.64 79 79 0 0 1 1.51 6 38 38 0 0 1 .52 6.28H79.12c8.33-20-10.36-26.49-18.44-24.16-3.16.92-18.47 6.38-9.94 24.16H13.87c.08-1.89.29-4.41.52-6.28a38 38 0 0 1 7.16-16.61 39 39 0 0 1 4-4.52 41 41 0 0 1 4.63-3.88 40.4 40.4 0 0 1 5.22-3.15A40.3 40.3 0 0 1 47.21.923c1.93-.23 4.51-.43 6.46-.52l3.26.13 3.19.38"/><path fill="#bebebe" d="M60.12.923c1.85.37 4.31 1 6.12 1.47l2.92 1.07L72 4.743l2.68 1.48 2.54 1.67 2.39 1.86 2.25 2 2.07 2.18 1.9 2.34a38.1 38.1 0 0 1 5.65 10.64 79 79 0 0 1 1.51 6 38 38 0 0 1 .52 6.28h-13c8.49-24.17-14.9-28.93-23.96-23.79s-11.29 13.2-6.63 23.78H13.87c.08-1.89.29-4.41.52-6.28a38 38 0 0 1 7.16-16.61 39 39 0 0 1 4-4.52 41 41 0 0 1 4.63-3.88A40.34 40.34 0 0 1 47.21.923c1.93-.23 4.51-.43 6.46-.52l3.26.13 3.19.38"/><path fill="#b9b9b9" d="M60.12.923c1.85.37 4.31 1 6.12 1.47l2.92 1.07L72 4.743l2.68 1.48 2.54 1.67 2.39 1.86 2.25 2 2.07 2.18 1.9 2.34a38.1 38.1 0 0 1 5.65 10.64 79 79 0 0 1 1.51 6 38 38 0 0 1 .52 6.28H81.76c8.82-23.24-14.57-31.12-25.32-25.18-6.5 3.6-13.06 10.89-7.34 25.17H13.87c.08-1.89.29-4.41.52-6.28a38 38 0 0 1 7.16-16.61 39 39 0 0 1 4-4.52 41 41 0 0 1 4.63-3.88A40.34 40.34 0 0 1 47.21.923c1.93-.23 4.51-.43 6.46-.52l3.26.13 3.19.38"/><path fill="#b5b5b5" d="M60.12.923c1.85.37 4.31 1 6.12 1.47l2.92 1.07L72 4.743l2.68 1.48 2.54 1.67 2.39 1.86 2.25 2 2.07 2.18 1.9 2.34a38.1 38.1 0 0 1 5.65 10.64 79 79 0 0 1 1.51 6 38 38 0 0 1 .52 6.28H83.22c7.77-22.53-14.48-33-26.9-26.57-14.84 7.73-9.72 21.91-8 26.57H13.87c.08-1.89.29-4.41.52-6.28a38 38 0 0 1 7.16-16.61 39 39 0 0 1 4-4.52 41 41 0 0 1 4.63-3.88 40.4 40.4 0 0 1 5.22-3.15A40.3 40.3 0 0 1 47.21.923c1.93-.23 4.51-.43 6.46-.52l3.26.13 3.19.38"/><path fill="#b1b1b1" d="M60.12.923c1.85.37 4.31 1 6.12 1.47l2.92 1.07L72 4.743l2.68 1.48 2.54 1.67 2.39 1.86 2.25 2 2.07 2.18 1.9 2.34a38.1 38.1 0 0 1 5.65 10.64 79 79 0 0 1 1.51 6 38 38 0 0 1 .52 6.28H84.6c7.15-23-15.95-34.37-28.41-28-15.63 8-10.43 23.06-8.72 28h-33.6c.08-1.89.29-4.41.52-6.28a38 38 0 0 1 7.16-16.61 39 39 0 0 1 4-4.52 41 41 0 0 1 4.63-3.88 40.4 40.4 0 0 1 5.22-3.15A40.3 40.3 0 0 1 47.21.923c1.93-.23 4.51-.43 6.46-.52l3.26.13 3.19.38"/><path fill="#adadad" d="M60.12.923c1.85.37 4.31 1 6.12 1.47l2.92 1.07L72 4.743l2.68 1.48 2.54 1.67 2.39 1.86 2.25 2 2.07 2.18 1.9 2.34a38.1 38.1 0 0 1 5.65 10.64 79 79 0 0 1 1.51 6 38 38 0 0 1 .52 6.28h-7.6c6.21-24.72-18.58-35.88-31.28-28.63-3.88 2.21-15.9 10.81-8 28.62H13.87c.08-1.89.29-4.41.52-6.28a38 38 0 0 1 7.16-16.61 39 39 0 0 1 4-4.52 41 41 0 0 1 4.63-3.88A40.34 40.34 0 0 1 47.21.923c1.93-.23 4.51-.43 6.46-.52l3.26.13 3.19.38"/><path fill="#a9a9a9" d="M60.12.923c1.85.37 4.31 1 6.12 1.47l2.92 1.07L72 4.743l2.68 1.48 2.54 1.67 2.39 1.86 2.25 2 2.07 2.18 1.9 2.34a38.1 38.1 0 0 1 5.65 10.64 79 79 0 0 1 1.51 6 38 38 0 0 1 .52 6.28H87c5.52-24.79-19.31-37.79-34.46-28.94-.62.37-15.07 9.08-7.1 28.93H13.87c.08-1.89.29-4.41.52-6.28a38 38 0 0 1 7.16-16.61 39 39 0 0 1 4-4.52 41 41 0 0 1 4.63-3.88A40.34 40.34 0 0 1 47.21.923c1.93-.23 4.51-.43 6.46-.52l3.26.13 3.19.38"/><path fill="#a5a5a5" d="M60.12.923c1.85.37 4.31 1 6.12 1.47l2.92 1.07L72 4.743l2.68 1.48 2.54 1.67 2.39 1.86 2.25 2 2.07 2.18 1.9 2.34a38.1 38.1 0 0 1 5.65 10.64 79 79 0 0 1 1.51 6 38 38 0 0 1 .52 6.28H88c5.23-24.15-20.76-38.72-35.38-30.38-4.81 2.74-15.26 11.19-8.36 30.37H13.87c.08-1.89.29-4.41.52-6.28a38 38 0 0 1 7.16-16.61 39 39 0 0 1 4-4.52 41 41 0 0 1 4.63-3.88A40.34 40.34 0 0 1 47.21.923c1.93-.23 4.51-.43 6.46-.52l3.26.13 3.19.38"/><path fill="#a1a1a1" d="M60.12.923c1.85.37 4.31 1 6.12 1.47l2.92 1.07L72 4.743l2.68 1.48 2.54 1.67 2.39 1.86 2.25 2 2.07 2.18 1.9 2.34a38.1 38.1 0 0 1 5.65 10.64 79 79 0 0 1 1.51 6 38 38 0 0 1 .52 6.28h-4.58c4.24-27.36-24.52-40.49-39.78-29.56-12.59 9-7.68 24.48-6.07 29.55H13.87c.08-1.89.29-4.41.52-6.28a38 38 0 0 1 7.16-16.61 39 39 0 0 1 4-4.52 41 41 0 0 1 4.63-3.88A40.34 40.34 0 0 1 47.21.923c1.93-.23 4.51-.43 6.46-.52l3.26.13 3.19.38"/><path fill="#9d9d9d" d="M60.12.923c1.85.37 4.31 1 6.12 1.47l2.92 1.07L72 4.743l2.68 1.48 2.54 1.67 2.39 1.86 2.25 2 2.07 2.18 1.9 2.34a38.1 38.1 0 0 1 5.65 10.64 79 79 0 0 1 1.51 6 38 38 0 0 1 .52 6.28h-3.76C93.59 9.823 62.6-1.367 49 8.313s-9.49 22.93-7.1 30.87H13.87c.08-1.89.29-4.41.52-6.28a38 38 0 0 1 7.16-16.61 39 39 0 0 1 4-4.52 41 41 0 0 1 4.63-3.88A40.34 40.34 0 0 1 47.21.923c1.93-.23 4.51-.43 6.46-.52l3.26.13 3.19.38"/><path fill="#989898" d="M60.12.923c1.85.37 4.31 1 6.12 1.47l2.92 1.07L72 4.743l2.68 1.48 2.54 1.67 2.39 1.86 2.25 2 2.07 2.18 1.9 2.34a38.1 38.1 0 0 1 5.65 10.64 79 79 0 0 1 1.51 6 38 38 0 0 1 .52 6.28h-3c3.56-26.9-25.4-43.27-43.41-30.88-4.24 2.92-13.37 11.77-6.6 30.87H13.87c.08-1.89.29-4.41.52-6.28a38 38 0 0 1 7.16-16.61 39 39 0 0 1 4-4.52 41 41 0 0 1 4.63-3.88A40.34 40.34 0 0 1 47.21.923c1.93-.23 4.51-.43 6.46-.52l3.26.13 3.19.38"/><path fill="#949494" d="M60.12.923c1.85.37 4.31 1 6.12 1.47l2.92 1.07L72 4.743l2.68 1.48 2.54 1.67 2.39 1.86 2.25 2 2.07 2.18 1.9 2.34a38.1 38.1 0 0 1 5.65 10.64 79 79 0 0 1 1.51 6 38 38 0 0 1 .52 6.28h-2.38C93.71 8.763 61.2-4.447 45.3 8.313c-12.95 10.4-8.13 25.28-6.3 30.87H13.87c.08-1.89.29-4.41.52-6.28a38 38 0 0 1 7.16-16.61 39 39 0 0 1 4-4.52 41 41 0 0 1 4.63-3.88A40.34 40.34 0 0 1 47.21.923c1.93-.23 4.51-.43 6.46-.52l3.26.13 3.19.38"/><path fill="#909090" d="M60.12.923c1.85.37 4.31 1 6.12 1.47l2.92 1.07L72 4.743l2.68 1.48 2.54 1.67 2.39 1.86 2.25 2 2.07 2.18 1.9 2.34a38.1 38.1 0 0 1 5.65 10.64 79 79 0 0 1 1.51 6 38 38 0 0 1 .52 6.28h-1.8c2.02-31.86-33.06-44.79-48.65-30.4-11.27 10.43-7.7 22.93-5.57 30.39H13.87c.08-1.89.29-4.41.52-6.28a38 38 0 0 1 7.16-16.61 39 39 0 0 1 4-4.52 41 41 0 0 1 4.63-3.88A40.34 40.34 0 0 1 47.21.923c1.93-.23 4.51-.43 6.46-.52l3.26.13 3.19.38"/><path fill="#8c8c8c" d="M60.12.923c1.85.37 4.31 1 6.12 1.47l2.92 1.07L72 4.743l2.68 1.48 2.54 1.67 2.39 1.86 2.25 2 2.07 2.18 1.9 2.34a38.1 38.1 0 0 1 5.65 10.64 79 79 0 0 1 1.51 6 38 38 0 0 1 .52 6.28H92.2C94.37 9.523 59.84-7.227 42 8.313c-12.33 10.76-7.61 25.9-6.06 30.87H13.87c.08-1.89.29-4.41.52-6.28a38 38 0 0 1 7.16-16.61 39 39 0 0 1 4-4.52 41 41 0 0 1 4.63-3.88A40.34 40.34 0 0 1 47.21.923c1.93-.23 4.51-.43 6.46-.52l3.26.13 3.19.38"/><path fill="#888" d="M60.12.923c1.85.37 4.31 1 6.12 1.47l2.92 1.07L72 4.743l2.68 1.48 2.54 1.67 2.39 1.86 2.25 2 2.07 2.18 1.9 2.34a38.1 38.1 0 0 1 5.65 10.64 79 79 0 0 1 1.51 6 38 38 0 0 1 .52 6.28h-.83c.81-31.32-33.91-47.36-52.11-30.96-12 10.84-7.85 25.45-6.28 31H13.87c.08-1.89.29-4.41.52-6.28a38 38 0 0 1 7.16-16.61 39 39 0 0 1 4-4.52 41 41 0 0 1 4.63-3.88 40.4 40.4 0 0 1 5.22-3.15A40.3 40.3 0 0 1 47.21.923c1.93-.23 4.51-.43 6.46-.52l3.26.13 3.19.38"/><path fill="#848484" d="M60.12.923c1.85.37 4.31 1 6.12 1.47l2.92 1.07L72 4.743l2.68 1.48 2.54 1.67 2.39 1.86 2.25 2 2.07 2.18 1.9 2.34a38.1 38.1 0 0 1 5.65 10.64 79 79 0 0 1 1.51 6 38 38 0 0 1 .52 6.28H93c.22-32.26-35.69-48.11-54-30.88-11.33 10.65-8.06 23.81-6.29 30.87H13.87c.08-1.89.29-4.41.52-6.28a38 38 0 0 1 7.16-16.61 39 39 0 0 1 4-4.52 41 41 0 0 1 4.63-3.88A40.34 40.34 0 0 1 47.21.923c1.93-.23 4.51-.43 6.46-.52l3.26.13 3.19.38"/><path fill="gray" d="M91.43 26.933a79 79 0 0 1 1.51 6 38 38 0 0 1 .52 6.28h-.23a34.4 34.4 0 0 0-2.33-13.7c.19.48.36 1 .53 1.45M60.12.923c1.85.37 4.31 1 6.12 1.47l2.92 1.07L72 4.743c1 .53 2.06 1.1 3 1.71-24.52-13.89-52.38 1.24-44 32.73H13.87c.08-1.89.29-4.41.52-6.28a38 38 0 0 1 7.16-16.61 39 39 0 0 1 4-4.52 41 41 0 0 1 4.63-3.88A40.34 40.34 0 0 1 47.21.923c1.93-.23 4.51-.43 6.46-.52l3.26.13 3.19.38"/><path fill="#7c7c7c" d="M92.94 32.903a38 38 0 0 1 .52 6.28 41 41 0 0 0-.48-6.32M60.12.923c1.85.37 4.31 1 6.12 1.47.54.17 1.06.35 1.59.55-23.18-7.85-45.54 6.57-38.55 36.24H13.87c.08-1.89.29-4.41.52-6.28a38 38 0 0 1 7.16-16.61 39 39 0 0 1 4-4.52 41 41 0 0 1 4.63-3.88A40.34 40.34 0 0 1 47.21.923c1.93-.23 4.51-.43 6.46-.52l3.26.13 3.19.38"/><path fill="#777" d="M60.12.923c.41.06.82.14 1.22.21-18.34-3.15-40.28 8.27-33.72 38.05H13.87c.08-1.89.29-4.41.52-6.28a38 38 0 0 1 7.16-16.61 39 39 0 0 1 4-4.52 41 41 0 0 1 4.63-3.88A40.34 40.34 0 0 1 47.21.923c1.93-.23 4.51-.43 6.46-.52l3.26.13 3.19.38"/><path fill="#737373" d="M53.66.403c-13.89.15-33.79 10.81-28 38.77H13.87c.08-1.89.29-4.41.52-6.28a38 38 0 0 1 7.16-16.61 39 39 0 0 1 4-4.52 41 41 0 0 1 4.63-3.88 40.4 40.4 0 0 1 5.22-3.15A40.3 40.3 0 0 1 47.21.923c1.93-.23 4.51-.43 6.46-.52"/><path fill="#6f6f6f" d="M20.3 39.183h-6.43c.08-1.89.29-4.41.52-6.28a38 38 0 0 1 7.16-16.61 39 39 0 0 1 4-4.52 41 41 0 0 1 4.63-3.88A40.34 40.34 0 0 1 47.21.923l1.39-.2h-.2c-13 1.91-19 9.89-20.59 12.28-6.81 10.64-5.29 19.26-4.07 26.18z"/><path fill="#6b6b6b" d="M20.3 39.183h-6.43c.08-1.89.29-4.41.52-6.28a38 38 0 0 1 7.16-16.61 39 39 0 0 1 4-4.52 41 41 0 0 1 4.63-3.88 40.4 40.4 0 0 1 5.22-3.15c1.68-.77 4-1.71 5.7-2.35l-.46.16c-10.68 4-22.72 13.56-19.51 36.63z"/><path fill="#dadada" d="M74.08 35.453a24.7 24.7 0 0 1-2.21 3.73h-16c-5.2-7.92-4.12-9.78-1.5-14.26.9-1.54 5.39-5.23 11.9-3.54.8.21 5 1.53 7.94 6.92 1.53 2.75.05 6.71-.13 7.15"/><path fill="#dbdbdb" d="M73.27 35.453c-.11.27-2.21 3.69-2.3 3.73H56.58c-1.58-2.29-5.3-7.65-3.44-10.88 2.52-4.37 2.61-4.55 3.85-5.12 1.72-.81 5.3-2.48 9.41-1.07a15 15 0 0 1 4.53 2.81 12.7 12.7 0 0 1 2.47 3.38c.46.9 1.55 3-.13 7.15"/><path fill="#dcdcdc" d="M72.76 34.463c-.28 1.15-.28 1.15-2.69 4.72H57.29c-2.8-3.84-2.8-3.84-4-7.36a5.06 5.06 0 0 1 .39-3.52c1.11-2 2.38-4.06 3.3-4.46a18.7 18.7 0 0 1 4.7-1.68 12.1 12.1 0 0 1 4.8.62 12.22 12.22 0 0 1 6 5.52c1.16 2.17 1.09 2.47.19 6.16"/><path fill="#dedede" d="M72.59 32.203a17 17 0 0 1-.74 3.25 29 29 0 0 1-2.69 3.73H58.5a9.07 9.07 0 0 1-3.37-3.73c-1.49-3.86-1.49-3.86-.84-7.15a27.4 27.4 0 0 1 2.71-3.79 10.84 10.84 0 0 1 4.74-1.82 13.9 13.9 0 0 1 4.85.76c.89.33 1.708.83 2.41 1.47 4.19 3.68 3.74 6.71 3.61 7.28"/><path fill="#dfdfdf" d="M71.18 35.453a24.4 24.4 0 0 1-2.94 3.73h-8.51a16.6 16.6 0 0 1-4-3.73 5.93 5.93 0 0 1-1.32-3.63c.54-4.14.54-4.14 2.69-6.61.12-.13 4.49-1.95 4.77-2a9.47 9.47 0 0 1 4.9.89 16.2 16.2 0 0 1 4.39 4.17c1.54 2 .79 5.65.05 7.15"/><path fill="#e0e0e0" d="M70.5 35.453a13 13 0 0 1-2.65 3.26 4.4 4.4 0 0 1-1.52.47H61c-1.09-.7-2.82-1.33-3.64-2.33a11.7 11.7 0 0 1-2.41-5c.21-3.44.22-3.57 2.2-5.84a23.6 23.6 0 0 1 4.79-2.2 10.1 10.1 0 0 1 5 1c.26.14 3.59 3.45 3.61 3.48 2.17 3 .14 7 0 7.15"/><path fill="#e1e1e1" d="M69.82 35.453c-1.16 2.18-1.16 2.18-4.84 3.32-.39.13-1.08.08-1.32.41h-1.49c-1.46-.94-3.7-1.83-4.87-3.11-1-1.1-1.87-4.23-1.88-4.25 0-3.07 1-4.23 1.7-5.07a26.6 26.6 0 0 1 4.88-2.42 10.64 10.64 0 0 1 5 1.24 9.1 9.1 0 0 1 2.81 2.73c1.91 2.71.86 5.64.06 7.15"/><path fill="#e2e2e2" d="M69.13 35.453a3.94 3.94 0 0 1-1.3 1.6c-1.47.74-3.57 1.93-5.2 1.71 0 0-5.08-3.07-5.33-3.59-.48-1-1.33-2.27-1.35-3.35 0 0 .15-3.36 1.2-4.29 0 0 4.76-2.63 4.85-2.64s5 1.43 5 1.44c2.22.73 3.19 5.44 3.19 5.49a8.7 8.7 0 0 1-1.11 3.63"/><path fill="#e2e2e2" d="M68.44 35.453a1.87 1.87 0 0 1-.63.78c-1.51.68-3.54 2.05-5.18 1.85-1.45-.17-3-1.72-4.09-2.63a6.1 6.1 0 0 1-1.26-1.64 5.2 5.2 0 0 1-.81-2 6.5 6.5 0 0 1 .7-3.47 8 8 0 0 1 4.88-2.87c1.6-.17 3.63 1 5.1 1.62.502.29.921.703 1.22 1.2a7.66 7.66 0 0 1 1.25 3.52 8.3 8.3 0 0 1-1.18 3.63"/><path fill="#e3e3e3" d="M67.78 35.403c-.14.22-5.12 2-5.16 2-.71-.07-4.23-2.57-5.36-4.95-.76-1.61 1-4.14 1.05-4.16a6.92 6.92 0 0 1 3.8-2.21s5 1.36 5.56 2.21a8.2 8.2 0 0 1 1.33 3.53 7.2 7.2 0 0 1-1.22 3.58"/><path fill="#e4e4e4" d="M67.71 33.803c-1.47 2.29-5.07 2.94-5.1 2.94a4.06 4.06 0 0 1-2-1.29c-1-1-2.69-2.26-2.85-3.63-.13-1.16.9-2.64 1.66-3.52a4.86 4.86 0 0 1 2.74-1.6c1.39-.13 3.12 1 4.38 1.6.337.246.622.555.84.91a4.71 4.71 0 0 1 .33 4.59"/><path fill="#e5e5e5" d="M67.62 32.253a15 15 0 0 1-3.4 3.2 2.74 2.74 0 0 1-1.62.62 1.9 1.9 0 0 1-1-.62c-.94-1-2.74-2.25-2.89-3.63-.12-1.18 1.06-2.58 1.78-3.52a2.75 2.75 0 0 1 1.67-1 4 4 0 0 1 2.69 1 19 19 0 0 1 2.66 2.94c.188.301.214.676.07 1"/><path fill="#e6e6e6" d="M62.59 35.403c-1.36-.11-2.72-2.18-2.85-3.53s1.26-2.56 1.89-3.57a.94.94 0 0 1 .62-.36 1.53 1.53 0 0 1 1 .36c1.07 1 3.37 2.07 3.31 3.52s-2.38 3.67-4 3.53"/><path fill="#e6e6e6" d="M62.55 34.073c-.86-.08-1.75-1.39-1.82-2.25s.62-2.72 1.59-2.85c1.18-.17 2.81 1.66 2.76 2.85a2.89 2.89 0 0 1-2.53 2.25"/><path fill="#e7e7e7" d="M62.51 32.793c-.38 0-.76-.6-.8-1s.27-1.2.7-1.25 1.22.73 1.2 1.25a1.24 1.24 0 0 1-1.1 1"/><path fill="#e1e1e1" d="M13.87 39.183v.37a1 1 0 0 1 0 .11v.06zh79.59v.32a.4.4 0 0 1 0 .11v.11H13.9v-.54"/><path fill="#e1e1e1" d="M13.9 39.613v.11a.7.7 0 0 0 0-.14m-.01 0v-.13zm0-.13v-.27a3 3 0 0 0 0 .27"/><path fill="#e1e1e1" d="M93.46 39.293v.43H13.9v-.54h79.56z"/><path fill="#e0e0e0" d="M13.9 39.613v.11a.7.7 0 0 0 0-.14m-.01 0v-.13zm0-.13v-.27a3 3 0 0 0 0 .27"/><path fill="#e0e0e0" d="M93.46 39.293v.43H13.9v-.54h79.56z"/><path fill="#dfdfdf" d="M13.9 39.613v.11a.7.7 0 0 0 0-.14m-.01 0v-.13zm0-.13v-.27a3 3 0 0 0 0 .27"/><path fill="#dfdfdf" d="M93.46 39.293v.43H13.9v-.54h79.56z"/><path fill="#dedede" d="M13.9 39.613v.11a.7.7 0 0 0 0-.14m-.01 0v-.13zm0-.13v-.27a3 3 0 0 0 0 .27"/><path fill="#dedede" d="M93.46 39.293v.43H68.87c-3.68-.08-3.8-.08-10.2 0H13.9v-.54h79.56z"/><path fill="#dcdcdc" d="M13.9 39.613v.11a.7.7 0 0 0 0-.14m-.01 0v-.13zm0-.13v-.27a3 3 0 0 0 0 .27"/><path fill="#dcdcdc" d="M93.46 39.293v.43H69.68c-4.44-.1-4.44-.1-12.07 0H13.9v-.54h79.56z"/><path fill="#dbdbdb" d="M13.9 39.613v.11a.7.7 0 0 0 0-.14m-.01 0v-.13zm0-.13v-.27a3 3 0 0 0 0 .27"/><path fill="#dbdbdb" d="M93.46 39.293v.43h-23c-6.83-.19-9-.13-13.63 0H13.9v-.54h79.56z"/><path fill="#dadada" d="M13.9 39.613v.11a.7.7 0 0 0 0-.14m-.01 0v-.13zm0-.13v-.27a3 3 0 0 0 0 .27"/><path fill="#dadada" d="M93.46 39.293v.43H71.27c-6.62-.24-7.42-.22-15.07 0H13.9v-.54h79.56z"/><path fill="#d8d8d8" d="M13.9 39.613v.11a.7.7 0 0 0 0-.14m-.01 0v-.13zm0-.13v-.27a3 3 0 0 0 0 .27"/><path fill="#d8d8d8" d="M62.46 39.463c-.07 0-.07 0-6.91.26H13.9v-.54h41.3c.06 0 6.82.19 7.28.25m30.98-.14v.43h-21.4c-.69 0-.69 0-8.77-.26 0 0 6.33-.21 9.47-.28h20.7z"/><path fill="#d6d6d6" d="M13.9 39.613v.11a.7.7 0 0 0 0-.14m-.01 0v-.13zm0-.13v-.27a3 3 0 0 0 0 .27"/><path fill="#d6d6d6" d="M60.82 39.463c-.08 0-.52.06-5.92.26h-41v-.54h40.56c.72 0 5.85.19 6.36.25m32.64-.14v.43H72.84c-1.49-.12-3-.07-4.49-.25a47 47 0 0 1 5.41-.29h19.7z"/><path fill="#d4d4d4" d="M13.9 39.613v.11a.7.7 0 0 0 0-.14m-.01 0v-.13zm0-.13v-.27a3 3 0 0 0 0 .27"/><path fill="#d4d4d4" d="M59.18 39.463s-.1 0-4.93.26H13.9v-.54h39.85c2.49.06 5.09.2 5.43.25m34.28-.14v.43H73.89c-1.33-.12-2.67-.07-4-.25a35 35 0 0 1 4.88-.29h18.69z"/><path fill="#cecece" d="M13.9 39.613v.11a.7.7 0 0 0 0-.14m-.01 0v-.13zm0-.13v-.27a3 3 0 0 0 0 .27"/><path fill="#cecece" d="M57.53 39.463a32 32 0 0 1-3.94.26H13.9v-.54H53c2.2.06 3.71.14 4.5.25m35.96-.14v.43H74.94c-1.17-.15-2.36-.06-3.53-.25.06 0 .26-.17 4.36-.29h17.69z"/><path fill="#cacaca" d="M13.9 39.613v.11a.7.7 0 0 0 0-.14m-.01 0v-.13zm0-.13v-.27a3 3 0 0 0 0 .27"/><path fill="#cacaca" d="m56.43 39.463-3.48.26H13.9v-.54h38.43c3 .08 4 .21 4 .21s.09 0 .13.07m37-.17a1 1 0 0 0 0 .1v.11a.4.4 0 0 1 0 .11v.11H76c-1-.19-2-.06-3.07-.25.06 0 .22-.17 3.83-.29h16.7z"/><path fill="#c6c6c6" d="M13.9 39.613v.11a.7.7 0 0 0 0-.14m-.01 0v-.13zm0-.13v-.27a3 3 0 0 0 0 .27"/><path fill="#c6c6c6" d="M55.41 39.463c-1 .68-2.08.16-3.11.26H13.9v-.54h37.7c2.71.08 3.72.21 3.72.21a1 1 0 0 0 .12.07m38.02-.17a1 1 0 0 0 0 .1v.11a.4.4 0 0 1 0 .11v.11H77c-.84-.11-1.7-.07-2.53-.25a20.4 20.4 0 0 1 3.24-.29h15.75z"/><path fill="#c2c2c2" d="M13.9 39.613v.11a.7.7 0 0 0 0-.14m-.01 0v-.13zm0-.13v-.27a3 3 0 0 0 0 .27"/><path fill="#c2c2c2" d="M54.4 39.463c-.9.65-1.91.15-2.86.26H13.9v-.54h36.84a34 34 0 0 1 3.54.21.5.5 0 0 0 .12.07m39.06-.17a1 1 0 0 0 0 .1v.11a.4.4 0 0 1 0 .11v.11H78.2l-2.2-.25c.07-.08.57-.21 3.15-.29h14.31z"/><path fill="#bebebe" d="M13.9 39.613v.11a.7.7 0 0 0 0-.14m-.01 0v-.13zm0-.13v-.27a3 3 0 0 0 0 .27"/><path fill="#bebebe" d="M53.38 39.463c-.84.65-1.8.13-2.69.26H13.9v-.54h36.02a26 26 0 0 1 3.36.21.4.4 0 0 0 .1.07m40.08-.17a1 1 0 0 0 0 .1v.11a.4.4 0 0 1 0 .11v.11H79.81a5 5 0 0 0-.58-.06 10 10 0 0 1-1.8-.19 12.6 12.6 0 0 1 3-.29h13v.11"/><path fill="#b9b9b9" d="M13.9 39.613v.11a.7.7 0 0 0 0-.14m-.01 0v-.13zm0-.13v-.27a3 3 0 0 0 0 .27"/><path fill="#b9b9b9" d="M52.37 39.463c-.79.65-1.69.1-2.53.26H13.9v-.54h35.2a18 18 0 0 1 3.27.25m41.09-.14a1 1 0 0 0 0 .1v.11a.4.4 0 0 1 0 .11v.11H81.34c-.18 0-.42 0-.6-.06a11 11 0 0 1-1.56-.19 11.3 11.3 0 0 1 2.58-.29h11.7z"/><path fill="#b5b5b5" d="M13.9 39.613v.11a.7.7 0 0 0 0-.14m-.01 0v-.13zm0-.13v-.27a3 3 0 0 0 0 .27"/><path fill="#b5b5b5" d="M51.27 39.463c-.7.59-1.52.11-2.27.26H13.9v-.54h34.38q1.457.013 2.9.21s.07 0 .09.07m42.19-.17a1 1 0 0 0 0 .1v.11a.4.4 0 0 1 0 .11v.11H82.87a13 13 0 0 1-2-.25 6.7 6.7 0 0 1 2.33-.29h10.26z"/><path fill="#b1b1b1" d="M13.9 39.613v.11a.7.7 0 0 0 0-.14m-.01 0v-.13zm0-.13v-.27a3 3 0 0 0 0 .27"/><path fill="#b1b1b1" d="M50.14 39.463c-.61.55-1.34.06-2 .26H13.9v-.54h33.6a19 19 0 0 1 2.61.22l.06.06m43.29-.17a1 1 0 0 0 0 .1v.11a.4.4 0 0 1 0 .11v.11h-9.11a7 7 0 0 1-1.83-.25v-.07a9 9 0 0 1 2-.22h8.86v.11"/><path fill="#adadad" d="M13.9 39.613v.11a.7.7 0 0 0 0-.14m-.01 0v-.13zm0-.13v-.27a3 3 0 0 0 0 .27"/><path fill="#adadad" d="M49 39.463c-.51.5-1.18-.1-1.7.26H13.9v-.54h32.74a10.6 10.6 0 0 1 2.36.22m44.46-.11v.21a.4.4 0 0 1 0 .11v.11h-7.77c-1.47-.14-1.61-.23-1.62-.25s0 0 0-.07a7 7 0 0 1 1.76-.22h7.6v.11"/><path fill="#a9a9a9" d="M13.9 39.613v.11a.7.7 0 0 0 0-.14m-.01 0v-.13zm0-.13v-.27a3 3 0 0 0 0 .27"/><path fill="#a9a9a9" d="M47.88 39.463c-.46.5-1.1-.34-1.55.22H13.9v-.54h31.54a11.4 11.4 0 0 1 2.44.25m45.58-.1v.21a.4.4 0 0 1 0 .11v.11h-6.64c-.452 0-.9-.084-1.32-.25v-.07a4.8 4.8 0 0 1 1.5-.22h6.47v.11"/><path fill="#a5a5a5" d="M13.9 39.613v.11a.7.7 0 0 0 0-.14m-.01 0v-.13zm0-.13v-.27a3 3 0 0 0 0 .27"/><path fill="#a5a5a5" d="M46.75 39.463c-.5.58-1.2-.15-1.73.26H13.9v-.54h30.36a9.6 9.6 0 0 1 2.49.25m46.71-.14v.21a.4.4 0 0 1 0 .11v.11h-5.59c-.81-.1-1.2-.2-1.18-.29s.11-.15 1.33-.25h5.44z"/><path fill="#a1a1a1" d="M13.9 39.613v.11a.7.7 0 0 0 0-.14m-.01 0v-.13zm0-.13v-.27a3 3 0 0 0 0 .27"/><path fill="#a1a1a1" d="M45.3 39.463c-.46.52-1.08 0-1.58.26H13.9v-.54h29.18a8.4 8.4 0 0 1 2.22.22m48.16-.11v.21a.4.4 0 0 1 0 .11v.11H88.8c-1-.16-1-.25-1-.28s.09-.16 1.13-.26h4.53z"/><path fill="#9d9d9d" d="M13.9 39.613v.11a.7.7 0 0 0 0-.14m-.01 0v-.13zm0-.13v-.27a3 3 0 0 0 0 .27"/><path fill="#9d9d9d" d="M43.84 39.463c-.4.49-1 .1-1.41.26H13.9v-.54h28.02c1.71.09 1.92.24 1.92.25m49.62-.14v.21a.4.4 0 0 1 0 .11v.11h-3.85c-.66-.13-.9-.22-.8-.32a2.1 2.1 0 0 1 .94-.22h3.71z"/><path fill="#989898" d="M13.9 39.613v.11a.7.7 0 0 0 0-.14m-.01 0v-.13zm0-.13v-.27a3 3 0 0 0 0 .27"/><path fill="#989898" d="M42.4 39.463c-.38.5-.92.14-1.36.26H13.9v-.54h26.6c1.83.09 1.89.24 1.9.25m51.06-.14v.21a.4.4 0 0 1 0 .11v.11h-3.11c-.44-.1-.86-.21-.64-.35a2.4 2.4 0 0 1 .77-.19h3v.11"/><path fill="#949494" d="M13.9 39.613v.11a.7.7 0 0 0 0-.14m-.01 0v-.13zm0-.13v-.27a3 3 0 0 0 0 .27"/><path fill="#949494" d="M40.86 39.463c-.4.51-1 .15-1.43.26H13.9v-.54H39c1.71.09 1.86.24 1.86.25m52.6-.14v.21a.4.4 0 0 1 0 .11v.11H91c-.38-.11-.78-.23-.48-.38a2.3 2.3 0 0 1 .6-.16h2.33v.11"/><path fill="#909090" d="M13.9 39.613v.11a.7.7 0 0 0 0-.14m-.01 0v-.13zm0-.13v-.27a3 3 0 0 0 0 .27"/><path fill="#909090" d="M39.17 39.463c-.36.49-.88.17-1.32.26h-24v-.54h23.64c1.54.09 1.68.24 1.68.25m54.29-.14v.21a.4.4 0 0 1 0 .11v.11h-1.87c-.38-.15-.66-.25-.33-.41a1.4 1.4 0 0 1 .45-.13h1.75z"/><path fill="#8c8c8c" d="M13.9 39.613v.11a.7.7 0 0 0 0-.14m-.01 0v-.13zm0-.13v-.27a3 3 0 0 0 0 .27"/><path fill="#8c8c8c" d="M37.51 39.463c0 .07 0 .07-1.24.26H13.9v-.54h22.04c1.46.09 1.57.24 1.57.25m55.95-.14v.21a.4.4 0 0 1 0 .11v.11H92.1c-.32-.16-.65-.32 0-.51h1.41v.11"/><path fill="#888" d="M13.9 39.613v.11a.7.7 0 0 0 0-.14m-.01 0v-.13zm0-.13v-.27a3 3 0 0 0 0 .27"/><path fill="#888" d="m35.81 39.463-1.2.26H13.9v-.54h20.39c1.41.09 1.52.24 1.52.25m57.65-.14v.21a.4.4 0 0 1 0 .11v.11h-.89a3 3 0 0 1-.25-.16.17.17 0 0 1-.06-.12s0-.16.4-.26h.83v.11"/><path fill="#848484" d="M13.9 39.613v.11a.7.7 0 0 0 0-.14m-.01 0v-.13zm0-.13v-.27a3 3 0 0 0 0 .27"/><path fill="#848484" d="M34.06 39.463a5.5 5.5 0 0 1-1.07.26H13.9v-.54h18.79c1.26.09 1.36.24 1.37.25m59.4-.14v.21a.4.4 0 0 1 0 .11v.11h-.56c-.06-.06-.13-.1-.18-.16a.18.18 0 0 1 0-.13s0-.15.3-.25h.48v.11"/><path fill="gray" d="M13.9 39.613v.11a.7.7 0 0 0 0-.14m-.01 0v-.13zm0-.13v-.27a3 3 0 0 0 0 .27"/><path fill="gray" d="M32.35 39.463c-.25.42-.67.17-1 .26H13.9v-.54H31c1.22.09 1.33.22 1.33.25m61.13-.14v.21a.4.4 0 0 1 0 .11v.11h-.27c0-.1-.15-.17-.13-.29a.4.4 0 0 1 .2-.25h.23v.11"/><path fill="#7c7c7c" d="M13.9 39.613v.11a.7.7 0 0 0 0-.14m-.01 0v-.13zm0-.13v-.27a3 3 0 0 0 0 .27"/><path fill="#7c7c7c" d="M30.5 39.463c-.21.37-.6.13-.89.26H13.9v-.54h15.38c1.12.09 1.22.24 1.22.25m62.96-.14v.21a.4.4 0 0 1 0 .11v.11h-.07c0-.1-.09-.19-.08-.29a.6.6 0 0 1 .13-.25v.11"/><path fill="#777" d="M13.9 39.613v.11a.7.7 0 0 0 0-.14m-.01 0v-.13zm0-.13v-.27a3 3 0 0 0 0 .27m14.77.01c-.15.31-.5.09-.71.26h-14v-.54h13.67c1 .09 1 .24 1 .25m64.84-.14v.21a.4.4 0 0 1 0 .11v.11a2 2 0 0 1 0-.26 2 2 0 0 1 0-.26z"/><path fill="#737373" d="M13.9 39.613v.11a.7.7 0 0 0 0-.14m-.01 0v-.13zm0-.13v-.27a3 3 0 0 0 0 .27"/><path fill="#737373" d="M26.7 39.463c-.16.31-.53-.08-.69.22H13.9v-.54h11.72c1.07.1 1.08.26 1.08.28"/><path fill="#6f6f6f" d="M13.9 39.613v.11a.7.7 0 0 0 0-.14m-.01 0v-.13zm0-.13v-.27a3 3 0 0 0 0 .27"/><path fill="#6f6f6f" d="M24.55 39.463c0 .1-.33.17-.51.22h.08H13.9v-.54h9.87c.81.1.82.26.81.28"/><path fill="#6b6b6b" d="M13.9 39.613v.11a.7.7 0 0 0 0-.14m-.01 0v-.13zm0-.13v-.27a3 3 0 0 0 0 .27"/><path fill="#6b6b6b" d="M21.86 39.463c0 .1-.31.17-.47.22h.24-7.73v-.54h7.24c.68.09.75.25.75.25"/><path fill="#dadada" d="M70.34 39.213c-5.75.15-5.75.15-14.47 0h16z"/><path fill="#dbdbdb" d="M69.29 39.213c-5.25.12-5.39.12-12.71 0H71h-1.68"/><path fill="#dcdcdc" d="M68.23 39.213c-2.68.06-2.68.06-10.91 0h12.75z"/><path fill="#dedede" d="M67.85 39.203H58.5h10.66z"/><path fill="#dfdfdf" d="M67.85 39.193h-8.12z"/><path fill="#e0e0e0" d="M62.63 39.203h-1.68 5.38z"/></g></svg>