<svg xmlns="http://www.w3.org/2000/svg" viewBox="0 0 150 139"><title>3-D Valve（3d阀）</title><defs><linearGradient id="a" x1="0%" x2="100%" y1="50.006%" y2="50.006%"><stop offset="0%" stop-color="#b7b7b7"/><stop offset="3%" stop-color="#9b9d9d"/><stop offset="7%" stop-color="#878b8b"/><stop offset="9%" stop-color="#808484"/><stop offset="20%" stop-color="#a3a6a6"/><stop offset="49%" stop-color="#f6f6f6"/><stop offset="61%" stop-color="#f3f3f3"/><stop offset="70%" stop-color="#eaeaea"/><stop offset="77%" stop-color="#dbdbdb"/><stop offset="83%" stop-color="#c5c5c5"/><stop offset="90%" stop-color="#aaa"/><stop offset="95%" stop-color="#888"/><stop offset="100%" stop-color="#666"/></linearGradient><linearGradient id="b" x1="49.993%" x2="49.993%" y1="100%" y2="0%"><stop offset="0%" stop-color="#b7b7b7"/><stop offset="3%" stop-color="#9b9d9d"/><stop offset="7%" stop-color="#878b8b"/><stop offset="9%" stop-color="#808484"/><stop offset="20%" stop-color="#a3a6a6"/><stop offset="49%" stop-color="#f6f6f6"/><stop offset="61%" stop-color="#f3f3f3"/><stop offset="70%" stop-color="#eaeaea"/><stop offset="77%" stop-color="#dbdbdb"/><stop offset="83%" stop-color="#c5c5c5"/><stop offset="90%" stop-color="#aaa"/><stop offset="95%" stop-color="#888"/><stop offset="100%" stop-color="#666"/></linearGradient><linearGradient id="c" x1="50%" x2="50%" y1="100.019%" y2="0%"><stop offset="0%" stop-color="#b7b7b7"/><stop offset="3%" stop-color="#9b9d9d"/><stop offset="7%" stop-color="#878b8b"/><stop offset="9%" stop-color="#808484"/><stop offset="20%" stop-color="#a3a6a6"/><stop offset="49%" stop-color="#f6f6f6"/><stop offset="61%" stop-color="#f3f3f3"/><stop offset="70%" stop-color="#eaeaea"/><stop offset="77%" stop-color="#dbdbdb"/><stop offset="83%" stop-color="#c5c5c5"/><stop offset="90%" stop-color="#aaa"/><stop offset="95%" stop-color="#888"/><stop offset="100%" stop-color="#666"/></linearGradient></defs><g fill="none" fill-rule="nonzero"><path fill="url(#a)" d="M69.29 21.101h10.75v90.07H69.29z" transform="translate(0 .413)"/><g transform="translate(22.62 .413)"><ellipse cx="52.448" cy="51.325" fill="#737373" rx="1" ry="51.94" transform="rotate(-89.65 52.448 51.325)"/><path fill="#e1e1e1" d="M104.38 51.63v-.69s-2.88-.11-8.89-.19v.69c6 .08 8.89.15 8.89.19m.05-.69v.69z"/><path fill="#e1e1e1" d="M95.5 51.44c6 .08 8.89.15 8.89.19v-.69s-2.88-.11-8.89-.19z"/><path fill="#e0e0e0" d="M104.43 50.94v.69zm-8.93.5c6 .08 8.89.15 8.89.19v-.69s-2.88-.11-8.89-.19z"/><path fill="#dfdfdf" d="M104.43 50.94v.69zm-8.93.5c6 .08 8.89.15 8.89.19v-.69s-2.88-.11-8.89-.19z"/><path fill="#dedede" d="M95.5 51.44c6 .08 8.89.15 8.89.19v-.69s-2.88-.11-8.89-.19z"/><path fill="#dcdcdc" d="M95.5 51.44c6 .08 8.89.15 8.89.19v-.69s-2.88-.11-8.89-.19z"/><path fill="#dbdbdb" d="M95.5 51.44c6 .08 8.89.15 8.89.19v-.69s-2.88-.11-8.89-.19z"/><path fill="#dadada" d="M95.5 51.44c6 .08 8.89.15 8.89.19v-.69s-2.88-.11-8.89-.19z"/><path fill="#d8d8d8" d="M104.38 51.63v-.69zm-8.88-.19c6 .08 8.89.15 8.89.19v-.69s-2.88-.11-8.89-.19z"/><path fill="#d6d6d6" d="M95.5 51.44c6 .08 8.89.15 8.89.19v-.69s-2.88-.11-8.89-.19z"/><path fill="#d4d4d4" d="M104.38 51.63v-.69zm-8.88-.19c6 .08 8.89.15 8.89.19v-.69s-2.88-.11-8.89-.19z"/><path fill="#cecece" d="M95.5 51.44c6 .08 8.89.15 8.89.19v-.69s-2.88-.11-8.89-.19z"/><path fill="#cacaca" d="M104.43 50.94v.69zm-8.93.5c6 .08 8.89.15 8.89.19v-.69s-2.88-.11-8.89-.19z"/><path fill="#c6c6c6" d="M104.43 50.94v.69zm-8.93.5c6 .08 8.89.15 8.89.19v-.69s-2.88-.11-8.89-.19z"/><path fill="#c2c2c2" d="M104.43 50.94v.69zm-8.93.5c6 .08 8.89.15 8.89.19v-.69s-2.88-.11-8.89-.19z"/><path fill="#bebebe" d="M104.38 51.63v-.69zm-8.88-.19c6 .08 8.89.15 8.89.19v-.69s-2.88-.11-8.89-.19z"/><path fill="#b9b9b9" d="M95.5 51.44c6 .08 8.89.15 8.89.19v-.69s-2.88-.11-8.89-.19z"/><path fill="#b5b5b5" d="M95.5 51.44c6 .08 8.89.15 8.89.19v-.69s-2.88-.11-8.89-.19z"/><path fill="#b1b1b1" d="M104.38 51.63v-.69zm-8.88-.19c6 .08 8.89.15 8.89.19v-.69s-2.88-.11-8.89-.19z"/><path fill="#adadad" d="M95.5 51.44c6 .08 8.89.15 8.89.19v-.69s-2.88-.11-8.89-.19z"/><path fill="#a9a9a9" d="M104.38 51.63v-.69zm-8.88-.19c6 .08 8.89.15 8.89.19v-.69s-2.88-.11-8.89-.19z"/><path fill="#a5a5a5" d="M104.38 51.63v-.69zm-8.88-.19c6 .08 8.89.15 8.89.19v-.69s-2.88-.11-8.89-.19z"/><path fill="#a1a1a1" d="M95.5 51.44c6 .08 8.89.15 8.89.19v-.69s-2.88-.11-8.89-.19z"/><path fill="#9d9d9d" d="M95.5 51.44c6 .08 8.89.15 8.89.19v-.69s-2.88-.11-8.89-.19z"/><path fill="#989898" d="M95.5 51.44c6 .08 8.89.15 8.89.19v-.69s-2.88-.11-8.89-.19z"/><path fill="#949494" d="M104.38 51.63v-.69zm-8.88-.19c6 .08 8.89.15 8.89.19v-.69s-2.88-.11-8.89-.19z"/><path fill="#909090" d="M95.5 51.44c6 .08 8.89.15 8.89.19v-.69s-2.88-.11-8.89-.19z"/><path fill="#8c8c8c" d="M95.5 51.44c6 .08 8.89.15 8.89.19v-.69s-2.88-.11-8.89-.19z"/><path fill="#888" d="M104.43 50.94v.69zm-8.93.5c6 .08 8.89.15 8.89.19v-.69s-2.88-.11-8.89-.19z"/><path fill="#848484" d="M104.43 50.94v.69zm-8.93.5c6 .08 8.89.15 8.89.19v-.69s-2.88-.11-8.89-.19z"/><path fill="gray" d="M104.43 50.94v.69zm-8.93.5c6 .08 8.89.15 8.89.19v-.69s-2.88-.11-8.89-.19z"/><path fill="#7c7c7c" d="M104.38 51.63v-.69zm-8.88-.19c6 .08 8.89.15 8.89.19v-.69s-2.88-.11-8.89-.19z"/><path fill="#777" d="M104.38 51.63v-.67zm-8.88-.19c6 .08 8.89.15 8.89.19v-.67c0-.22-2.92-.13-8.89-.21z"/><path fill="#737373" d="M95.5 51.44c5.45.07 8.33.13 8.81.18 0-.12.15-.52 0-.67-.6 0-3.47-.1-8.77-.17v.69"/><path fill="#6f6f6f" d="M95.5 51.44c4.67.06 7.45.12 8.46.16.09-.12.33-.45 0-.66-1.08 0-3.83-.09-8.35-.15v.69"/><path fill="#6b6b6b" d="M95.5 51.44c3.7.05 6.21.09 7.59.13h-.1c.3-.28.5-.47-.14-.66-1.43 0-3.85-.08-7.31-.12v.69"/><path fill="#e1e1e1" d="M.47 50.31v.7c0-.09 8-.12 22.9-.08 23.78.07 56.06.3 72.1.51v-.69c-16-.22-48.36-.44-72.15-.51-14.89 0-22.92 0-22.92.07"/><path fill="#e1e1e1" d="M.5 51c0-.09 8-.12 22.9-.08l15.84.08h-.18c-6.11-.14-6.11-.14-7.11-.28 1.54-.68 15.18-.11 15.3-.09-2.23 1.19-4.63-.26-6.89.41 20.45.1 42.69.27 55.14.44v-.69c-16-.22-48.36-.44-72.15-.51-14.89 0-22.92 0-22.92.07v.7"/><path fill="#e0e0e0" d="M.5 51c0-.09 8-.12 22.9-.08h13.73-.53a35.5 35.5 0 0 1-5.58-.27c1.49-.65 16-.23 17.21 0-2 .87-4.13.16-6.18.38 20 .1 41.34.27 53.45.43v-.69c-16-.22-48.36-.44-72.15-.51-14.89 0-22.92 0-22.92.07v.7"/><path fill="#dfdfdf" d="M.5 51c0-.09 8-.12 22.9-.08h11.64-.87a26.4 26.4 0 0 1-4.1-.27c1.53-.66 17.56-.25 19 0-.14.07-.14.07-5.27.39 19.48.1 40 .26 51.75.42v-.69c-16-.22-48.36-.44-72.15-.51-14.89 0-22.92 0-22.92.07v.7"/><path fill="#dedede" d="M46.31 50.38a23 23 0 0 1 3.61.3c-.37.17-.37.17-4.46.35 19 .1 38.62.26 50 .41v-.69c-12.23-.17-33.9-.34-54-.44h4.85M.5 51c0-.09 8-.12 22.9-.08h9.62-.57a24 24 0 0 1-3.28-.26c0-.05.06-.13.11-.16.32-.2 3.78-.21 8.17-.22l-14.07-.04c-14.89 0-22.92 0-22.92.07v.7"/><path fill="#dcdcdc" d="M46.78 50.37a26 26 0 0 1 3.93.31c-.17.09-.17.09-3.73.35 18.49.11 37.41.26 48.52.41v-.69c-11.81-.16-32.41-.33-52-.43h3.2M.5 51c0-.09 8-.12 22.9-.08h8.53-.64a23 23 0 0 1-3-.26c0-.05 0-.13.1-.16s.87-.21 6.05-.23h-11c-14.89 0-22.92 0-22.92.07v.7"/><path fill="#dbdbdb" d="M46.78 50.35a26 26 0 0 1 4.71.34c-.23.13-.23.13-3.63.35 18.2.1 36.7.25 47.64.4v-.69c-11.39-.16-30.95-.31-49.85-.42h1.09M.5 51c0-.09 8-.12 22.9-.08h7.45-.71a19 19 0 0 1-2.76-.25c0-.05.05-.13.09-.17a39 39 0 0 1 4.87-.23h-8.92c-14.89 0-22.92 0-22.92.07v.7"/><path fill="#dadada" d="M49.38 50.4a11.7 11.7 0 0 1 2.89.29c-.28.16-.28.16-3.54.35 17.92.11 36 .26 46.76.4v-.69c-11.07-.15-29.85-.3-48.25-.41h2.1M.5 51c0-.09 8-.12 22.9-.08h6.37-.76a13 13 0 0 1-2.63-.26c.2-.24.63-.33 4.56-.39h-7.57c-14.89 0-22.92 0-22.92.07v.7"/><path fill="#d8d8d8" d="M50.38 50.4a10.2 10.2 0 0 1 2.74.3c-.34.19-.34.19-3.45.35 17.63.1 35.29.25 45.88.39v-.69c-10.86-.15-29.14-.3-47.2-.4h2.03M.5 51c0-.09 8-.12 22.9-.08h5.3-.82a17.5 17.5 0 0 1-2.62-.25s0-.13.1-.16.63-.17 4.25-.24h-6.22c-14.89 0-22.92 0-22.92.07v.7"/><path fill="#d6d6d6" d="M51.28 50.41a10 10 0 0 1 2.59.29c-.36.2-.55.22-3.37.35 17.33.11 34.59.25 45 .39v-.69c-10.64-.15-28.43-.29-46.14-.39h1.88M.5 51c0-.09 8-.12 22.9-.08h4.24-.88a13.5 13.5 0 0 1-2.65-.25s.05-.13.09-.17.72-.17 4.08-.23h-4.89c-14.89 0-22.92 0-22.92.07v.7"/><path fill="#d4d4d4" d="M52.23 50.41a13 13 0 0 1 2.51.3c-.26.16-.37.22-3.36.35 17 .1 33.89.24 44.12.38v-.69c-10.43-.14-27.72-.29-45.09-.39h1.78M.5 51c0-.09 8-.12 22.9-.08h3.15c-3.24-.1-3.55-.25-3.57-.29s0-.13.07-.16a25.5 25.5 0 0 1 3.91-.24h-3.58c-14.89 0-22.92 0-22.92.07v.7"/><path fill="#cecece" d="M53.17 50.42a9 9 0 0 1 2.45.29c-.25.16-.37.24-3.36.36 16.73.1 33.18.24 43.24.37v-.69c-10.22-.14-27-.28-44-.38h1.66M.5 51c0-.09 8-.12 22.9-.08h1.69c-2.53-.09-3.15-.21-3.23-.29a.18.18 0 0 1 0-.12 16.3 16.3 0 0 1 3.62-.28h-2.1c-14.89 0-22.92 0-22.92.07v.7"/><path fill="#cacaca" d="M53.75 50.41c.922-.004 1.842.1 2.74.31-.28.18-.52.24-3.35.35 16.43.1 32.48.24 42.36.37v-.69c-10-.14-26.33-.28-43-.38h1.18M.5 51c0-.09 8-.12 22.9-.08h.2-1a7 7 0 0 1-1.88-.26.13.13 0 0 1 0-.12 12.8 12.8 0 0 1 3.11-.28h-.45c-14.89 0-22.92 0-22.92.07v.7"/><path fill="#c6c6c6" d="M53.75 50.38a15.4 15.4 0 0 1 3.61.34c-.24.17-.52.27-3.28.36 16.1.1 31.73.23 41.42.36v-.69c-9.8-.13-25.65-.27-41.92-.37h.13M.5 51c0-.08 7.57-.11 21.63-.08h-.85a7.1 7.1 0 0 1-2.09-.33 11 11 0 0 1 3.13-.32c-14.2 0-21.85 0-21.85.07v.7"/><path fill="#c2c2c2" d="M56.23 50.44c1.64.09 1.86.23 2 .33-.4.15-.64.23-3.08.31 15.72.1 30.87.23 40.35.36v-.69c-9.57-.13-24.91-.26-40.77-.36h1.46M.5 51c0-.08 7.06-.11 20.21-.08h-.31c-2.71-.09-2.89-.29-2.89-.35 0-.21 2.09-.28 3.31-.33-13.24 0-20.35 0-20.35.08v.7"/><path fill="#bebebe" d="M57.27 50.44c1.51.1 1.69.24 1.83.34-.39.15-.62.23-2.88.31 15.34.1 30 .23 39.28.35v-.69c-9.34-.13-24.16-.26-39.62-.36h1.35M.5 51c0-.08 6.33-.11 18.16-.09h-.85s-1.93-.11-1.89-.33 1-.27 3-.33c-12 0-18.44 0-18.44.08v.7"/><path fill="#b9b9b9" d="M58.3 50.45c.542.016 1.08.1 1.6.25-.26.24-.34.32-2.61.4 15 .09 29.17.22 38.21.34v-.69c-9.1-.13-23.43-.25-38.46-.35h1.21M.5 51c0-.07 5.57-.1 16-.09h-.59a5.6 5.6 0 0 1-1.68-.29c0-.06.13-.27 2.65-.36-10.73 0-16.44 0-16.44.08V51"/><path fill="#b5b5b5" d="M59.38 50.46a4.8 4.8 0 0 1 1.57.29c-.32.22-.87.29-2.55.35 14.55.1 28.31.22 37.14.34v-.69c-8.87-.12-22.7-.24-37.31-.34h1.15M.5 51c0-.07 4.86-.1 14-.09h-.43c-1.06-.09-1.57-.21-1.59-.29s.38-.28 2.49-.36c-9.47 0-14.51 0-14.51.08V51"/><path fill="#b1b1b1" d="M60.38 50.47a5.6 5.6 0 0 1 1.85.29c-.16.12-.34.26-2.79.35 14.15.1 27.46.21 36.07.33v-.69c-8.64-.12-22-.24-36.17-.33h1.04M.5 51c0-.06 4.18-.1 12.08-.09h-.34c-.4 0-1.35-.15-1.39-.28a.07.07 0 0 1 0-.08c.06-.08.43-.22 2.2-.3-8.24 0-12.6 0-12.6.09V51"/><path fill="#adadad" d="M95.5 51.44v-.69c-8.41-.12-21.26-.23-35-.32h.14a9.9 9.9 0 0 1 2.87.34c-.3.24-1.05.27-3 .35 13.75.09 26.61.21 35 .32M.5 51c0-.06 3.55-.09 10.29-.09h-.26c-.74-.09-1.13-.19-1.16-.28s.26-.29 1.89-.38c-7.07 0-10.79 0-10.79.09V51"/><path fill="#a9a9a9" d="M95.5 51.44v-.69c-8.09-.11-20.29-.22-33.46-.31h.94a6.2 6.2 0 0 1 1.81.3c-.21.19-.66.29-2.78.35 13.17.09 25.37.2 33.45.31M.5 51s3-.08 8.77-.09h-.21c-.43-.06-1.08-.16-1-.33s.2-.24 1.63-.33c-6 0-9.18 0-9.18.09V51"/><path fill="#a5a5a5" d="M64.7 50.5s1.45.11 1.43.33-.33.24-2.43.31c12.53.09 24.06.2 31.8.3v-.69c-7.76-.11-19.3-.21-31.85-.3h1.01M.5 51s2.54-.08 7.4-.09h-.19c-.38-.07-1.18-.2-.86-.41a3.9 3.9 0 0 1 1.38-.25c-5.1 0-7.76 0-7.76.08v.7"/><path fill="#a1a1a1" d="M66.18 50.51c.406.02.808.102 1.19.24a.19.19 0 0 1-.06.17 5.7 5.7 0 0 1-2 .23c11.89.09 22.76.19 30.16.29v-.69c-7.42-.1-18.32-.2-30.25-.29h.89M.5 51s2.1-.07 6.15-.09h-.16c-.32-.07-1-.2-.73-.41a2.9 2.9 0 0 1 1.16-.25c-4.24 0-6.45 0-6.45.08v.66"/><path fill="#9d9d9d" d="M67.38 50.5a5.9 5.9 0 0 1 1.83.31c-.16.14-.27.25-2.29.35 11.26.09 21.48.18 28.54.28v-.69c-7.09-.1-17.36-.2-28.66-.28h.54M.5 51s1.73-.07 5.08-.08h-.16c-.24 0-1-.21-.58-.44a2.3 2.3 0 0 1 .94-.22c-3.5 0-5.31 0-5.31.08V51"/><path fill="#989898" d="M69.68 50.53c.48.015.954.113 1.4.29 0 .12-.35.27-2.16.36 10.48.08 19.93.17 26.58.26v-.69c-6.7-.09-16.21-.18-26.76-.27h.9M.5 51s1.4-.06 4.1-.08h-.14c-.55-.13-.73-.29-.51-.45a1.9 1.9 0 0 1 .82-.21c-2.84 0-4.3 0-4.3.07v.7"/><path fill="#949494" d="M71.63 50.55c.33 0 1.23.17 1.25.29s-.61.28-1.89.36c9.65.07 18.3.16 24.51.24v-.69c-6.26-.09-15-.17-24.73-.25h.82M.5 51s1.1-.06 3.23-.07H3.6c-.38-.09-.71-.28-.38-.48a1.3 1.3 0 0 1 .63-.18c-2.23 0-3.38 0-3.38.07V51"/><path fill="#909090" d="M73.54 50.56q.62.06 1.21.26a.11.11 0 0 1 0 .11s-.2.17-1.72.28c8.83.07 16.7.15 22.47.23v-.69c-5.83-.08-13.8-.16-22.72-.23h.72M.5 51s.83 0 2.46-.07h-.12c-.31-.09-.64-.31-.25-.53a.9.9 0 0 1 .45-.13c-1.7 0-2.57 0-2.57.06v.7"/><path fill="#8c8c8c" d="M75.65 50.58c.398.027.79.114 1.16.26a.14.14 0 0 1 0 .11s-.15.16-1.67.28c8 .07 15 .14 20.35.21v-.69c-5.37-.08-12.55-.15-20.63-.22h.74M.5 51a16 16 0 0 1 1.79 0h-.11c-.23-.08-.58-.33-.13-.58a.8.8 0 0 1 .29-.08c-1.24 0-1.87 0-1.87.05v.7"/><path fill="#888" d="M77.77 50.6c.367.03.728.115 1.07.25q.015.06 0 .12s-.11.16-1.54.28c7.09.06 13.38.12 18.2.19v-.69c-4.88-.07-11.26-.13-18.44-.2h.67M.5 51a9 9 0 0 1 1.21 0h-.09c-.36-.14-.39-.48 0-.62a.7.7 0 0 1 .17 0 11 11 0 0 0-1.28 0v.7"/><path fill="#848484" d="M79.85 50.62s1.13.14 1.09.33-.43.22-1.53.32c6.22 0 11.75.11 16.09.17v-.69c-4.39-.06-10-.12-16.3-.18h.61M.5 51a3.6 3.6 0 0 1 .73 0h-.08a.42.42 0 0 1-.2-.37.3.3 0 0 1 .11-.2l.15-.09H.45V51"/><path fill="gray" d="M82.1 50.64s1 .13 1 .33c0 0-.11.21-1.48.32l13.88.15v-.69c-3.86-.06-8.66-.11-14-.16h.61M.5 51h.36-.05a.56.56 0 0 1-.14-.37.32.32 0 0 1 .18-.29 1.6 1.6 0 0 0-.38 0v.7"/><path fill="#7c7c7c" d="M84.31 50.66c.18 0 .87.16.89.29s-.07.25-1.36.36l11.66.13v-.69c-3.31 0-7.3-.09-11.76-.14h.53M.5 51h.11s-.16-.51 0-.66H.49v.7"/><path fill="#777" d="M86.59 50.68c.18 0 .9.16.93.29s-.07.26-1.5.36l9.48.11v-.69c-2.74 0-6-.08-9.51-.11h.56"/><path fill="#737373" d="M95.5 51.44v-.69l-6.89-.09h.38s1 .16.8.38a2.5 2.5 0 0 1-1.27.28l6.94.08"/><path fill="#6f6f6f" d="M95.5 51.44v-.69l-4.36-.06h.38s1 .16.81.38-.61.21-1.41.27l4.54.06"/><path fill="#6b6b6b" d="M95.5 51.44v-.69h-1.2.18s.82.2.41.46a1.7 1.7 0 0 1-.67.19h1.24"/><path fill="#e2e2e2" d="M32.74 50.64c.25.35 12 .41 14 .07-1-.47-13.1-.41-14-.12"/><path fill="#e2e2e2" d="M34.23 50.65c.06.06 10.47.51 10.84 0a65 65 0 0 0-10.81-.06"/><path fill="#e3e3e3" d="M36.06 50.65c0 .05 6.92.46 7.29 0-1.27-.28-7.06-.28-7.29 0"/><path fill="#e4e4e4" d="M37.91 50.66c1.24.17 2.5.17 3.74 0a13.4 13.4 0 0 0-3.74 0"/><path fill="#e5e5e5" d="M39.77 50.67a.14.14 0 0 0 .17 0 .14.14 0 0 0-.17 0"/><path fill="#e1e1e1" d="M104.38 51.63v-.69c-.21-6-.78-21.8-15-35.88S59.04.3 52.92 0c23.63.06 42.79 22.78 42.62 50.74 6 .08 8.89.14 8.89.19v.69"/><path fill="#e1e1e1" d="M95.54 50.75c6 .08 8.89.14 8.89.19v.69-.69c0-1.24-.11-2.9-.15-4.15s-.29-2.85-.48-4.06l-.81-4c-.33-1.15-.73-2.71-1.12-3.84l-1.41-3.72c-.51-1.07-1.14-2.52-1.69-3.57l-2-3.41c-.67-1-1.52-2.3-2.22-3.24l-2.47-3.07c-.81-.86-1.85-2-2.69-2.86l-2.91-2.66c-.94-.74-2.16-1.75-3.12-2.44l-3.3-2.2c-1-.59-2.42-1.41-3.49-2l-3.61-1.61c-1.14-.43-2.64-1-3.79-1.43l-3.92-1.12c-1.22-.26-2.87-.64-4.07-.84L57.09.2c-1.3-.06-3-.19-4.34-.2 23.8.07 43 22.79 42.79 50.75"/><path fill="#e0e0e0" d="M95.54 50.75c6 .08 8.89.14 8.89.19v.69-.69c0-1.24-.11-2.9-.15-4.15s-.29-2.85-.48-4.06l-.81-4c-.33-1.15-.73-2.71-1.12-3.84l-1.41-3.72c-.51-1.07-1.14-2.52-1.69-3.57l-2-3.41c-.67-1-1.52-2.3-2.22-3.24l-2.47-3.07c-.81-.86-1.85-2-2.69-2.86l-2.91-2.66c-.94-.74-2.16-1.75-3.12-2.44l-3.3-2.2c-1-.59-2.42-1.41-3.49-2l-3.61-1.61c-1.14-.43-2.64-1-3.79-1.43l-3.92-1.12c-1.22-.26-2.87-.64-4.07-.84L57.09.2c-1.3-.06-3-.19-4.34-.2 23.8.07 43 22.79 42.79 50.75"/><path fill="#dfdfdf" d="M95.54 50.75c6 .08 8.89.14 8.89.19v.69-.69c0-1.24-.11-2.9-.15-4.15s-.29-2.85-.48-4.06l-.81-4c-.33-1.15-.73-2.71-1.12-3.84l-1.41-3.72c-.51-1.07-1.14-2.52-1.69-3.57l-2-3.41c-.67-1-1.52-2.3-2.22-3.24l-2.47-3.07c-.81-.86-1.85-2-2.69-2.86l-2.91-2.66c-.94-.74-2.16-1.75-3.12-2.44l-3.3-2.2c-1-.59-2.42-1.41-3.49-2l-3.61-1.61c-1.14-.43-2.64-1-3.79-1.43l-3.92-1.12c-1.22-.26-2.87-.64-4.07-.84L57.09.2c-1.3-.06-3-.19-4.34-.2 23.8.07 43 22.79 42.79 50.75"/><path fill="#dedede" d="M95.54 50.75c6 .08 8.89.14 8.89.19v.69-.69c0-1.24-.11-2.9-.15-4.15s-.29-2.85-.48-4.06l-.81-4c-.33-1.15-.73-2.71-1.12-3.84l-1.41-3.72c-.51-1.07-1.14-2.52-1.69-3.57l-2-3.41c-.67-1-1.52-2.3-2.22-3.24l-2.47-3.07c-.81-.86-1.85-2-2.69-2.86l-2.91-2.66c-.94-.74-2.16-1.75-3.12-2.44l-3.3-2.2c-1-.59-2.42-1.41-3.49-2l-3.61-1.61c-1.14-.43-2.64-1-3.79-1.43l-3.92-1.12c-1.22-.26-2.87-.64-4.07-.84L57.09.2c-1.3-.06-3-.19-4.34-.2 23.8.07 43 22.79 42.79 50.75"/><path fill="#dcdcdc" d="M95.54 50.75c6 .08 8.89.14 8.89.19v.69-.69c0-1.24-.11-2.9-.15-4.15s-.29-2.85-.48-4.06l-.81-4c-.33-1.15-.73-2.71-1.12-3.84l-1.41-3.72c-.51-1.07-1.14-2.52-1.69-3.57l-2-3.41c-.67-1-1.52-2.3-2.22-3.24l-2.47-3.07c-.81-.86-1.85-2-2.69-2.86l-2.91-2.66c-.94-.74-2.16-1.75-3.12-2.44l-3.3-2.2c-1-.59-2.42-1.41-3.49-2l-3.61-1.61c-1.14-.43-2.64-1-3.79-1.43l-3.92-1.12c-1.22-.26-2.87-.64-4.07-.84L57.09.2c-1.3-.06-3-.19-4.34-.2 23.8.07 43 22.79 42.79 50.75"/><path fill="#dbdbdb" d="M95.54 50.75c6 .08 8.89.14 8.89.19v.69-.69c0-1.24-.11-2.9-.15-4.15s-.29-2.85-.48-4.06l-.81-4c-.33-1.15-.73-2.71-1.12-3.84l-1.41-3.72c-.51-1.07-1.14-2.52-1.69-3.57l-2-3.41c-.67-1-1.52-2.3-2.22-3.24l-2.47-3.07c-.81-.86-1.85-2-2.69-2.86l-2.91-2.66c-.94-.74-2.16-1.75-3.12-2.44l-3.3-2.2c-1-.59-2.42-1.41-3.49-2l-3.61-1.61c-1.14-.43-2.64-1-3.79-1.43l-3.92-1.12c-1.22-.26-2.87-.64-4.07-.84L57.09.2c-1.3-.06-3-.19-4.34-.2 23.8.07 43 22.79 42.79 50.75"/><path fill="#dadada" d="M104.38 51.63v-.69zm-8.84-.88c6 .08 8.89.14 8.89.19 0-1.24-.11-2.9-.15-4.15s-.29-2.85-.48-4.06l-.81-4c-.33-1.15-.73-2.71-1.12-3.84l-1.41-3.72c-.51-1.07-1.14-2.52-1.69-3.57l-2-3.41c-.67-1-1.52-2.3-2.22-3.24l-2.47-3.07c-.81-.86-1.85-2-2.69-2.86l-2.91-2.66c-.94-.74-2.16-1.75-3.12-2.44l-3.3-2.2c-1-.59-2.42-1.41-3.49-2l-3.61-1.61c-1.14-.43-2.64-1-3.79-1.43l-3.92-1.12c-1.22-.26-2.87-.64-4.07-.84L57.09.2c-1.3-.06-3-.19-4.34-.2 23.8.07 43 22.79 42.79 50.75"/><path fill="#d8d8d8" d="M104.38 51.63v-.69zm-8.84-.88c6 .08 8.89.14 8.89.19 0-1.24-.11-2.9-.15-4.15s-.29-2.85-.48-4.06l-.81-4c-.33-1.15-.73-2.71-1.12-3.84l-1.41-3.72c-.51-1.07-1.14-2.52-1.69-3.57l-2-3.41c-.67-1-1.52-2.3-2.22-3.24l-2.47-3.07c-.81-.86-1.85-2-2.69-2.86l-2.91-2.66c-.94-.74-2.16-1.75-3.12-2.44l-3.3-2.2c-1-.59-2.42-1.41-3.49-2l-3.61-1.61c-1.14-.43-2.64-1-3.79-1.43l-3.92-1.12c-1.22-.26-2.87-.64-4.07-.84L57.09.2c-1.3-.06-3-.19-4.34-.2 23.8.07 43 22.79 42.79 50.75"/><path fill="#d6d6d6" d="M95.54 50.75c6 .08 8.89.14 8.89.19v.69-.69c0-1.24-.11-2.9-.15-4.15s-.29-2.85-.48-4.06l-.81-4c-.33-1.15-.73-2.71-1.12-3.84l-1.41-3.72c-.51-1.07-1.14-2.52-1.69-3.57l-2-3.41c-.67-1-1.52-2.3-2.22-3.24l-2.47-3.07c-.81-.86-1.85-2-2.69-2.86l-2.91-2.66c-.94-.74-2.16-1.75-3.12-2.44l-3.3-2.2c-1-.59-2.42-1.41-3.49-2l-3.61-1.61c-1.14-.43-2.64-1-3.79-1.43l-3.92-1.12c-1.22-.26-2.87-.64-4.07-.84L57.09.2c-1.3-.06-3-.19-4.34-.2 23.8.07 43 22.79 42.79 50.75"/><path fill="#d4d4d4" d="M104.38 51.63v-.69zm-8.84-.88c6 .08 8.89.14 8.89.19 0-1.24-.11-2.9-.15-4.15s-.29-2.85-.48-4.06l-.81-4c-.33-1.15-.73-2.71-1.12-3.84l-1.41-3.72c-.51-1.07-1.14-2.52-1.69-3.57l-2-3.41c-.67-1-1.52-2.3-2.22-3.24l-2.47-3.07c-.81-.86-1.85-2-2.69-2.86l-2.91-2.66c-.94-.74-2.16-1.75-3.12-2.44l-3.3-2.2c-1-.59-2.42-1.41-3.49-2l-3.61-1.61c-1.14-.43-2.64-1-3.79-1.43l-3.92-1.12c-1.22-.26-2.87-.64-4.07-.84L57.09.2c-1.3-.06-3-.19-4.34-.2 23.8.07 43 22.79 42.79 50.75"/><path fill="#cecece" d="M104.38 51.63v-.69zm-8.84-.88c6 .08 8.89.14 8.89.19 0-1.24-.11-2.9-.15-4.15s-.29-2.85-.48-4.06l-.81-4c-.33-1.15-.73-2.71-1.12-3.84l-1.41-3.72c-.51-1.07-1.14-2.52-1.69-3.57l-2-3.41c-.67-1-1.52-2.3-2.22-3.24l-2.47-3.07c-.81-.86-1.85-2-2.69-2.86l-2.91-2.66c-.94-.74-2.16-1.75-3.12-2.44l-3.3-2.2c-1-.59-2.42-1.41-3.49-2l-3.61-1.61c-1.14-.43-2.64-1-3.79-1.43l-3.92-1.12c-1.22-.26-2.87-.64-4.07-.84L57.09.2c-1.3-.06-3-.19-4.34-.2 23.8.07 43 22.79 42.79 50.75"/><path fill="#cacaca" d="M104.38 51.63v-.69zm-8.84-.88c6 .08 8.89.14 8.89.19 0-1.24-.11-2.9-.15-4.15s-.29-2.85-.48-4.06l-.81-4c-.33-1.15-.73-2.71-1.12-3.84l-1.41-3.72c-.51-1.07-1.14-2.52-1.69-3.57l-2-3.41c-.67-1-1.52-2.3-2.22-3.24l-2.47-3.07c-.81-.86-1.85-2-2.69-2.86l-2.91-2.66c-.94-.74-2.16-1.75-3.12-2.44l-3.3-2.2c-1-.59-2.42-1.41-3.49-2l-3.61-1.61c-1.14-.43-2.64-1-3.79-1.43l-3.92-1.12c-1.22-.26-2.87-.64-4.07-.84L57.09.2c-1.3-.06-3-.19-4.34-.2 23.8.07 43 22.79 42.79 50.75"/><path fill="#c6c6c6" d="M104.38 51.63v-.69zm-8.84-.88c6 .08 8.89.14 8.89.19 0-1.24-.11-2.9-.15-4.15s-.29-2.85-.48-4.06l-.81-4c-.33-1.15-.73-2.71-1.12-3.84l-1.41-3.72c-.51-1.07-1.14-2.52-1.69-3.57l-2-3.41c-.67-1-1.52-2.3-2.22-3.24l-2.47-3.07c-.81-.86-1.85-2-2.69-2.86l-2.91-2.66c-.94-.74-2.16-1.75-3.12-2.44l-3.3-2.2c-1-.59-2.42-1.41-3.49-2l-3.61-1.61c-1.14-.43-2.64-1-3.79-1.43l-3.92-1.12c-1.22-.26-2.87-.64-4.07-.84L57.09.2c-1.3-.06-3-.19-4.34-.2 23.8.07 43 22.79 42.79 50.75"/><path fill="#c2c2c2" d="M104.38 51.63v-.69zm-8.84-.88c6 .08 8.89.14 8.89.19 0-1.24-.11-2.9-.15-4.15s-.29-2.85-.48-4.06l-.81-4c-.33-1.15-.73-2.71-1.12-3.84l-1.41-3.72c-.51-1.07-1.14-2.52-1.69-3.57l-2-3.41c-.67-1-1.52-2.3-2.22-3.24l-2.47-3.07c-.81-.86-1.85-2-2.69-2.86l-2.91-2.66c-.94-.74-2.16-1.75-3.12-2.44l-3.3-2.2c-1-.59-2.42-1.41-3.49-2l-3.61-1.61c-1.14-.43-2.64-1-3.79-1.43l-3.92-1.12c-1.22-.26-2.87-.64-4.07-.84L57.09.2c-1.3-.06-3-.19-4.34-.2 23.8.07 43 22.79 42.79 50.75"/><path fill="#bebebe" d="M95.54 50.75c6 .08 8.89.14 8.89.19v.69-.69c0-1.24-.11-2.9-.15-4.15s-.29-2.85-.48-4.06l-.81-4c-.33-1.15-.73-2.71-1.12-3.84l-1.41-3.72c-.51-1.07-1.14-2.52-1.69-3.57l-2-3.41c-.67-1-1.52-2.3-2.22-3.24l-2.47-3.07c-.81-.86-1.85-2-2.69-2.86l-2.91-2.66c-.94-.74-2.16-1.75-3.12-2.44l-3.3-2.2c-1-.59-2.42-1.41-3.49-2l-3.61-1.61c-1.14-.43-2.64-1-3.79-1.43l-3.92-1.12c-1.22-.26-2.87-.64-4.07-.84L57.09.2c-1.3-.06-3-.19-4.34-.2 23.8.07 43 22.79 42.79 50.75"/><path fill="#b9b9b9" d="M95.54 50.75c6 .08 8.89.14 8.89.19v.69-.69c0-1.24-.11-2.9-.15-4.15s-.29-2.85-.48-4.06l-.81-4c-.33-1.15-.73-2.71-1.12-3.84l-1.41-3.72c-.51-1.07-1.14-2.52-1.69-3.57l-2-3.41c-.67-1-1.52-2.3-2.22-3.24l-2.47-3.07c-.81-.86-1.85-2-2.69-2.86l-2.91-2.66c-.94-.74-2.16-1.75-3.12-2.44l-3.3-2.2c-1-.59-2.42-1.41-3.49-2l-3.61-1.61c-1.14-.43-2.64-1-3.79-1.43l-3.92-1.12c-1.22-.26-2.87-.64-4.07-.84L57.09.2c-1.3-.06-3-.19-4.34-.2 23.8.07 43 22.79 42.79 50.75"/><path fill="#b5b5b5" d="M104.38 51.63v-.69zm-8.84-.88c6 .08 8.89.14 8.89.19 0-1.24-.11-2.9-.15-4.15s-.29-2.85-.48-4.06l-.81-4c-.33-1.15-.73-2.71-1.12-3.84l-1.41-3.72c-.51-1.07-1.14-2.52-1.69-3.57l-2-3.41c-.67-1-1.52-2.3-2.22-3.24l-2.47-3.07c-.81-.86-1.85-2-2.69-2.86l-2.91-2.66c-.94-.74-2.16-1.75-3.12-2.44l-3.3-2.2c-1-.59-2.42-1.41-3.49-2l-3.61-1.61c-1.14-.43-2.64-1-3.79-1.43l-3.92-1.12c-1.22-.26-2.87-.64-4.07-.84L57.09.2c-1.3-.06-3-.19-4.34-.2 23.8.07 43 22.79 42.79 50.75"/><path fill="#b1b1b1" d="M95.54 50.75c6 .08 8.89.14 8.89.19v.69-.69c0-1.24-.11-2.9-.15-4.15s-.29-2.85-.48-4.06l-.81-4c-.33-1.15-.73-2.71-1.12-3.84l-1.41-3.72c-.51-1.07-1.14-2.52-1.69-3.57l-2-3.41c-.67-1-1.52-2.3-2.22-3.24l-2.47-3.07c-.81-.86-1.85-2-2.69-2.86l-2.91-2.66c-.94-.74-2.16-1.75-3.12-2.44l-3.3-2.2c-1-.59-2.42-1.41-3.49-2l-3.61-1.61c-1.14-.43-2.64-1-3.79-1.43l-3.92-1.12c-1.22-.26-2.87-.64-4.07-.84L57.09.2c-1.3-.06-3-.19-4.34-.2 23.8.07 43 22.79 42.79 50.75"/><path fill="#adadad" d="M95.54 50.75c6 .08 8.89.14 8.89.19v.69-.69c0-1.24-.11-2.9-.15-4.15s-.29-2.85-.48-4.06l-.81-4c-.33-1.15-.73-2.71-1.12-3.84l-1.41-3.72c-.51-1.07-1.14-2.52-1.69-3.57l-2-3.41c-.67-1-1.52-2.3-2.22-3.24l-2.47-3.07c-.81-.86-1.85-2-2.69-2.86l-2.91-2.66c-.94-.74-2.16-1.75-3.12-2.44l-3.3-2.2c-1-.59-2.42-1.41-3.49-2l-3.61-1.61c-1.14-.43-2.64-1-3.79-1.43l-3.92-1.12c-1.22-.26-2.87-.64-4.07-.84L57.09.2c-1.3-.06-3-.19-4.34-.2 23.8.07 43 22.79 42.79 50.75"/><path fill="#a9a9a9" d="M104.38 51.63v-.69zm-8.84-.88c6 .08 8.89.14 8.89.19 0-1.24-.11-2.9-.15-4.15s-.29-2.85-.48-4.06l-.81-4c-.33-1.15-.73-2.71-1.12-3.84l-1.41-3.72c-.51-1.07-1.14-2.52-1.69-3.57l-2-3.41c-.67-1-1.52-2.3-2.22-3.24l-2.47-3.07c-.81-.86-1.85-2-2.69-2.86l-2.91-2.66c-.94-.74-2.16-1.75-3.12-2.44l-3.3-2.2c-1-.59-2.42-1.41-3.49-2l-3.61-1.61c-1.14-.43-2.64-1-3.79-1.43l-3.92-1.12c-1.22-.26-2.87-.64-4.07-.84L57.09.2c-1.3-.06-3-.19-4.34-.2 23.8.07 43 22.79 42.79 50.75"/><path fill="#a5a5a5" d="M104.38 51.63v-.69zm-8.84-.88c6 .08 8.89.14 8.89.19 0-1.24-.11-2.9-.15-4.15s-.29-2.85-.48-4.06l-.81-4c-.33-1.15-.73-2.71-1.12-3.84l-1.41-3.72c-.51-1.07-1.14-2.52-1.69-3.57l-2-3.41c-.67-1-1.52-2.3-2.22-3.24l-2.47-3.07c-.81-.86-1.85-2-2.69-2.86l-2.91-2.66c-.94-.74-2.16-1.75-3.12-2.44l-3.3-2.2c-1-.59-2.42-1.41-3.49-2l-3.61-1.61c-1.14-.43-2.64-1-3.79-1.43l-3.92-1.12c-1.22-.26-2.87-.64-4.07-.84L57.09.2c-1.3-.06-3-.19-4.34-.2 23.8.07 43 22.79 42.79 50.75"/><path fill="#a1a1a1" d="M95.54 50.75c6 .08 8.89.14 8.89.19v.69-.69c0-1.24-.11-2.9-.15-4.15s-.29-2.85-.48-4.06l-.81-4c-.33-1.15-.73-2.71-1.12-3.84l-1.41-3.72c-.51-1.07-1.14-2.52-1.69-3.57l-2-3.41c-.67-1-1.52-2.3-2.22-3.24l-2.47-3.07c-.81-.86-1.85-2-2.69-2.86l-2.91-2.66c-.94-.74-2.16-1.75-3.12-2.44l-3.3-2.2c-1-.59-2.42-1.41-3.49-2l-3.61-1.61c-1.14-.43-2.64-1-3.79-1.43l-3.92-1.12c-1.22-.26-2.87-.64-4.07-.84L57.09.2c-1.3-.06-3-.19-4.34-.2 23.8.07 43 22.79 42.79 50.75"/><path fill="#9d9d9d" d="M95.54 50.75c6 .08 8.89.14 8.89.19v.69-.69c0-1.24-.11-2.9-.15-4.15s-.29-2.85-.48-4.06l-.81-4c-.33-1.15-.73-2.71-1.12-3.84l-1.41-3.72c-.51-1.07-1.14-2.52-1.69-3.57l-2-3.41c-.67-1-1.52-2.3-2.22-3.24l-2.47-3.07c-.81-.86-1.85-2-2.69-2.86l-2.91-2.66c-.94-.74-2.16-1.75-3.12-2.44l-3.3-2.2c-1-.59-2.42-1.41-3.49-2l-3.61-1.61c-1.14-.43-2.64-1-3.79-1.43l-3.92-1.12c-1.22-.26-2.87-.64-4.07-.84L57.09.2c-1.3-.06-3-.19-4.34-.2 23.8.07 43 22.79 42.79 50.75"/><path fill="#989898" d="M95.54 50.75c6 .08 8.89.14 8.89.19v.69-.69c0-1.24-.11-2.9-.15-4.15s-.29-2.85-.48-4.06l-.81-4c-.33-1.15-.73-2.71-1.12-3.84l-1.41-3.72c-.51-1.07-1.14-2.52-1.69-3.57l-2-3.41c-.67-1-1.52-2.3-2.22-3.24l-2.47-3.07c-.81-.86-1.85-2-2.69-2.86l-2.91-2.66c-.94-.74-2.16-1.75-3.12-2.44l-3.3-2.2c-1-.59-2.42-1.41-3.49-2l-3.61-1.61c-1.14-.43-2.64-1-3.79-1.43l-3.92-1.12c-1.22-.26-2.87-.64-4.07-.84L57.09.2c-1.3-.06-3-.19-4.34-.2 23.8.07 43 22.79 42.79 50.75"/><path fill="#949494" d="M104.38 51.63v-.69zm-8.84-.88c6 .08 8.89.14 8.89.19 0-1.24-.11-2.9-.15-4.15s-.29-2.85-.48-4.06l-.81-4c-.33-1.15-.73-2.71-1.12-3.84l-1.41-3.72c-.51-1.07-1.14-2.52-1.69-3.57l-2-3.41c-.67-1-1.52-2.3-2.22-3.24l-2.47-3.07c-.81-.86-1.85-2-2.69-2.86l-2.91-2.66c-.94-.74-2.16-1.75-3.12-2.44l-3.3-2.2c-1-.59-2.42-1.41-3.49-2l-3.61-1.61c-1.14-.43-2.64-1-3.79-1.43l-3.92-1.12c-1.22-.26-2.87-.64-4.07-.84L57.09.2c-1.3-.06-3-.19-4.34-.2 23.8.07 43 22.79 42.79 50.75"/><path fill="#909090" d="M104.38 51.63v-.69zm-8.84-.88c6 .08 8.89.14 8.89.19 0-1.24-.11-2.9-.15-4.15s-.29-2.85-.48-4.06l-.81-4c-.33-1.15-.73-2.71-1.12-3.84l-1.41-3.72c-.51-1.07-1.14-2.52-1.69-3.57l-2-3.41c-.67-1-1.52-2.3-2.22-3.24l-2.47-3.07c-.81-.86-1.85-2-2.69-2.86l-2.91-2.66c-.94-.74-2.16-1.75-3.12-2.44l-3.3-2.2c-1-.59-2.42-1.41-3.49-2l-3.61-1.61c-1.14-.43-2.64-1-3.79-1.43l-3.92-1.12c-1.22-.26-2.87-.64-4.07-.84L57.09.2c-1.3-.06-3-.19-4.34-.2 23.8.07 43 22.79 42.79 50.75"/><path fill="#8c8c8c" d="M104.38 51.63v-.69zm-8.84-.88c6 .08 8.89.14 8.89.19 0-1.24-.11-2.9-.15-4.15s-.29-2.85-.48-4.06l-.81-4c-.33-1.15-.73-2.71-1.12-3.84l-1.41-3.72c-.51-1.07-1.14-2.52-1.69-3.57l-2-3.41c-.67-1-1.52-2.3-2.22-3.24l-2.47-3.07c-.81-.86-1.85-2-2.69-2.86l-2.91-2.66c-.94-.74-2.16-1.75-3.12-2.44l-3.3-2.2c-1-.59-2.42-1.41-3.49-2l-3.61-1.61c-1.14-.43-2.64-1-3.79-1.43l-3.92-1.12c-1.22-.26-2.87-.64-4.07-.84L57.09.2c-1.3-.06-3-.19-4.34-.2 23.8.07 43 22.79 42.79 50.75"/><path fill="#888" d="M104.38 51.63v-.69zm-8.84-.88c6 .08 8.89.14 8.89.19 0-1.24-.11-2.9-.15-4.15s-.29-2.85-.48-4.06l-.81-4c-.33-1.15-.73-2.71-1.12-3.84l-1.41-3.72c-.51-1.07-1.14-2.52-1.69-3.57l-2-3.41c-.67-1-1.52-2.3-2.22-3.24l-2.47-3.07c-.81-.86-1.85-2-2.69-2.86l-2.91-2.66c-.94-.74-2.16-1.75-3.12-2.44l-3.3-2.2c-1-.59-2.42-1.41-3.49-2l-3.61-1.61c-1.14-.43-2.64-1-3.79-1.43l-3.92-1.12c-1.22-.26-2.87-.64-4.07-.84L57.09.2c-1.3-.06-3-.19-4.34-.2 23.8.07 43 22.79 42.79 50.75"/><path fill="#848484" d="M95.54 50.75c6 .08 8.89.14 8.89.19v.69-.69c0-1.24-.11-2.9-.15-4.15s-.29-2.85-.48-4.06l-.81-4c-.33-1.15-.73-2.71-1.12-3.84l-1.41-3.72c-.51-1.07-1.14-2.52-1.69-3.57l-2-3.41c-.67-1-1.52-2.3-2.22-3.24l-2.47-3.07c-.81-.86-1.85-2-2.69-2.86l-2.91-2.66c-.94-.74-2.16-1.75-3.12-2.44l-3.3-2.2c-1-.59-2.42-1.41-3.49-2l-3.61-1.61c-1.14-.43-2.64-1-3.79-1.43l-3.92-1.12c-1.22-.26-2.87-.64-4.07-.84L57.09.2c-1.3-.06-3-.19-4.34-.2 23.8.07 43 22.79 42.79 50.75"/><path fill="gray" d="M104.38 51.63v-.69zm-8.84-.88c6 .08 8.89.14 8.89.19 0-1.24-.11-2.9-.15-4.15s-.29-2.85-.48-4.06l-.81-4c-.33-1.15-.73-2.71-1.12-3.84l-1.41-3.72c-.51-1.07-1.14-2.52-1.69-3.57l-2-3.41c-.67-1-1.52-2.3-2.22-3.24l-2.47-3.07c-.81-.86-1.85-2-2.69-2.86l-2.91-2.66c-.94-.74-2.16-1.75-3.12-2.44l-3.3-2.2c-1-.59-2.42-1.41-3.49-2l-3.61-1.61c-1.14-.43-2.64-1-3.79-1.43l-3.92-1.12c-1.22-.26-2.87-.64-4.07-.84L57.09.2c-1.3-.06-3-.19-4.34-.2 23.8.07 43 22.79 42.79 50.75"/><path fill="#7c7c7c" d="M95.54 50.75c6 .08 8.89.14 8.89.19v.69-.69c0-1.24-.11-2.9-.15-4.15s-.29-2.85-.48-4.06l-.81-4c-.33-1.15-.73-2.71-1.12-3.84l-1.41-3.72c-.51-1.07-1.14-2.52-1.69-3.57l-2-3.41c-.67-1-1.52-2.3-2.22-3.24l-2.47-3.07c-.81-.86-1.85-2-2.69-2.86l-2.91-2.66c-.94-.74-2.16-1.75-3.12-2.44l-3.3-2.2c-1-.59-2.42-1.41-3.49-2l-3.61-1.61c-1.14-.43-2.64-1-3.79-1.43l-3.92-1.12c-1.22-.26-2.87-.64-4.07-.84L57.09.2c-1.3-.06-3-.19-4.34-.2 23.8.07 43 22.79 42.79 50.75"/><path fill="#777" d="M104.38 51.63v-.69zm-8.84-.88c6 .08 8.89.14 8.89.19 0-1.24-.11-2.9-.15-4.15s-.29-2.85-.48-4.06l-.81-4c-.33-1.15-.73-2.71-1.12-3.84l-1.41-3.72c-.51-1.07-1.14-2.52-1.69-3.57l-2-3.41c-.67-1-1.52-2.3-2.22-3.24l-2.47-3.07c-.81-.86-1.85-2-2.69-2.86l-2.91-2.66c-.94-.74-2.16-1.75-3.12-2.44l-3.3-2.2c-1-.59-2.42-1.41-3.49-2l-3.61-1.61c-1.14-.43-2.64-1-3.79-1.43l-3.92-1.12c-1.22-.26-2.87-.64-4.07-.84L57.09.2c-1.3-.06-3-.19-4.34-.2 23.8.07 43 22.79 42.79 50.75"/><path fill="#737373" d="M104.38 51.63v-.69zm-8.84-.88c6 .08 8.89.14 8.89.19 0-1.24-.11-2.9-.15-4.15s-.29-2.85-.48-4.06l-.81-4c-.33-1.15-.73-2.71-1.12-3.84l-1.41-3.72c-.51-1.07-1.14-2.52-1.69-3.57l-2-3.41c-.67-1-1.52-2.3-2.22-3.24l-2.47-3.07c-.81-.86-1.85-2-2.69-2.86l-2.91-2.66c-.94-.74-2.16-1.75-3.12-2.44l-3.3-2.2c-1-.59-2.42-1.41-3.49-2l-3.61-1.61c-1.14-.43-2.64-1-3.79-1.43l-3.92-1.12c-1.22-.26-2.87-.64-4.07-.84L57.09.2c-1.3-.06-3-.19-4.34-.2 23.8.07 43 22.79 42.79 50.75"/><path fill="#6f6f6f" d="M104.38 51.63v-.69zm-8.84-.88c6 .08 8.89.14 8.89.19 0-1.24-.11-2.9-.15-4.15s-.29-2.85-.48-4.06l-.81-4c-.33-1.15-.73-2.71-1.12-3.84l-1.41-3.72c-.51-1.07-1.14-2.52-1.69-3.57l-2-3.41c-.67-1-1.52-2.3-2.22-3.24l-2.47-3.07c-.81-.86-1.85-2-2.69-2.86l-2.91-2.66c-.94-.74-2.16-1.75-3.12-2.44l-3.3-2.2c-1-.59-2.42-1.41-3.49-2l-3.61-1.61c-1.14-.43-2.64-1-3.79-1.43l-3.92-1.12c-1.22-.26-2.87-.64-4.07-.84L57.09.2c-1.3-.06-3-.19-4.34-.2 23.8.07 43 22.79 42.79 50.75"/><path fill="#6b6b6b" d="M104.38 51.63v-.69zm-8.84-.88c6 .08 8.89.14 8.89.19 0-1.24-.11-2.9-.15-4.15s-.29-2.85-.48-4.06l-.81-4c-.33-1.15-.73-2.71-1.12-3.84l-1.41-3.72c-.51-1.07-1.14-2.52-1.69-3.57l-2-3.41c-.67-1-1.52-2.3-2.22-3.24l-2.47-3.07c-.81-.86-1.85-2-2.69-2.86l-2.91-2.66c-.94-.74-2.16-1.75-3.12-2.44l-3.3-2.2c-1-.59-2.42-1.41-3.49-2l-3.61-1.61c-1.14-.43-2.64-1-3.79-1.43l-3.92-1.12c-1.22-.26-2.87-.64-4.07-.84L57.09.2c-1.3-.06-3-.19-4.34-.2 23.8.07 43 22.79 42.79 50.75"/><path fill="#e1e1e1" d="M.5 51v-.7s2.88.12 8.89.2c16.05.21 48.35.44 72.15.5 14.89.05 22.92 0 22.92-.07v.69c0 .23-8 .12-22.9.08-23.85-.06-56.18-.28-72.18-.5-6-.08-8.88-.14-8.88-.19"/><path fill="#e1e1e1" d="M104.38 51.63c0 .09-8 .12-22.9.08l-15.85-.06h-1.1c-20.45-.1-42.69-.27-55.15-.44-6-.08-8.88-.14-8.88-.19v-.7s2.88.12 8.89.2c16.05.21 48.35.44 72.15.5 14.89.05 22.92 0 22.92-.07v.69"/><path fill="#e0e0e0" d="M104.38 51.63c0 .09-8 .12-22.9.08l-13.73-.05h-4.91c-20-.1-41.35-.27-53.46-.43-6-.08-8.88-.14-8.88-.19v-.66s2.88.12 8.89.2c16.05.21 48.35.44 72.15.5 14.89.05 22.92 0 22.92-.07v.69"/><path fill="#dfdfdf" d="M104.38 51.63c0 .09-8 .12-22.9.08H61.13c-19.48-.1-40-.26-51.76-.42-6-.08-8.88-.14-8.88-.19v-.66s2.88.12 8.89.2c16.05.21 48.35.44 72.15.5 14.89.05 22.92 0 22.92-.07v.69"/><path fill="#dedede" d="M104.38 51.63c0 .09-8 .12-22.9.08h-9.62c-6.58-.08-6.58-.08-12.44-.05-19-.11-38.62-.27-50-.42-6-.08-8.88-.14-8.88-.19v-.7s2.88.12 8.89.2c16.05.21 48.35.44 72.15.5 14.89.05 22.92 0 22.92-.07v.69"/><path fill="#dcdcdc" d="M104.38 51.63c0 .09-8 .12-22.9.08h-9.69c-9.73-.12-9.73-.12-13.89 0-18.52-.21-37.4-.36-48.52-.51-6-.08-8.88-.14-8.88-.19v-.66s2.88.12 8.89.2c16.05.21 48.35.44 72.15.5 14.89.05 22.92 0 22.92-.07v.69"/><path fill="#dbdbdb" d="M104.38 51.63c0 .09-8 .12-22.9.08h-8.79c-6.65-.21-11-.13-15.67 0-18.2-.21-36.64-.36-47.64-.51-6-.08-8.88-.14-8.88-.19v-.7s2.88.12 8.89.2c16.05.21 48.35.44 72.15.5 14.89.05 22.92 0 22.92-.07v.69"/><path fill="#dadada" d="M104.38 51.63c0 .09-8 .12-22.9.08H74c-7.36-.25-9-.22-17.86 0-17.92-.11-36-.25-46.77-.4-6-.08-8.88-.14-8.88-.19v-.7s2.88.12 8.89.2c16.05.21 48.35.44 72.15.5 14.89.05 22.92 0 22.92-.07v.69"/><path fill="#d8d8d8" d="M104.38 51.63c0 .09-8 .12-22.9.08h-6.17c-8.35-.31-8.35-.31-20-.06-17.63-.1-35.3-.25-45.89-.39-6-.08-8.88-.14-8.88-.19v-.7s2.88.12 8.89.2c16.05.21 48.35.44 72.15.5 14.89.05 22.92 0 22.92-.07v.69"/><path fill="#d6d6d6" d="m63.62 51.31-9.23.28c-17.34-.1-34.59-.25-45-.39-6-.08-8.88-.14-8.88-.19v-.7s2.88.12 8.89.2c10.3.14 27.29.28 44.43.38h1.5c.06 0 8 .31 8.27.33l.06.05m40.72.36c0 .09-8 .12-22.9.08h-4.87c-2.75-.12-5.5-.18-8.25-.32.36-.05 1.1-.15 9.85-.33h3.29c14.89.05 22.92 0 22.92-.07v.69"/><path fill="#d4d4d4" d="m61.02 51.3-7.51.28c-17-.1-33.89-.24-44.13-.38-6-.08-8.88-.14-8.88-.19v-.66s2.88.12 8.89.2c10.1.13 26.65.27 43.46.37h1.42s6.1.26 6.72.32h.06m43.33.39c0 .09-8 .12-22.9.08h-3.57c-4.86-.24-4.86-.24-5.27-.3.47-.21 5.88-.33 7-.35h1.91c14.89.05 22.92 0 22.92-.07v.69"/><path fill="#cecece" d="M58.38 51.28c-.06.07-.6.09-5.78.3-16.74-.1-33.19-.24-43.25-.38-6-.08-8.88-.14-8.88-.19v-.7s2.88.12 8.89.2c9.91.13 26 .27 42.5.37h1.34s3.45.11 5.21.32m45.97.43c0 .09-8 .12-22.9.08h-2.05c-4.12-.21-4.27-.23-4.74-.3a55 55 0 0 1 6.31-.36h.5c14.89.05 22.92 0 22.92-.07v.69"/><path fill="#cacaca" d="m56.86 51.28-5.11.29c-16.43-.1-32.48-.24-42.37-.37-6-.08-8.88-.14-8.88-.19v-.66s2.88.12 8.89.2c9.71.13 25.38.26 41.51.36h.28c3.51.11 5.45.31 5.45.31a2 2 0 0 0 .26.09m47.49.32c0 .09-8 .12-22.9.08h-.47a34 34 0 0 1-4.29-.3c.09 0 .37-.21 5.66-.35 14.32 0 22 0 22-.08v.69"/><path fill="#c6c6c6" d="M55.45 51.27a20 20 0 0 1-3.1.22c-1 0-1 0-1.54.08-16.1-.1-31.73-.24-41.43-.37-6-.08-8.88-.14-8.88-.19v-.7s2.88.12 8.89.2c9.5.13 24.7.26 40.46.36h1.26c1.41 0 4.08.24 4.13.27q.117.052.24.09m48.9.4c0 .08-7.57.12-21.63.08h-.19a35 35 0 0 1-3.81-.3c.09-.05.34-.21 5-.36 13.46 0 20.7 0 20.7-.08v.69"/><path fill="#c2c2c2" d="M54.04 51.26q-1.419.192-2.85.22c-1 0-1 0-1.45.08-15.72-.1-30.88-.23-40.36-.36-6-.08-8.88-.14-8.88-.19v-.7s2.88.12 8.89.2c9.29.12 24 .25 39.4.35 3.71.13 5.06.31 5.06.31q.105.056.22.09m50.31.37c0 .08-7.06.11-20.21.08h-.11c-2.9-.24-2.9-.24-3.15-.29a31.5 31.5 0 0 1 4.39-.37c12.45 0 19.12 0 19.12-.08v.69"/><path fill="#bebebe" d="M52.62 51.25c-1.2 1.43-2.64.17-4 .3-15.33-.1-30-.22-39.28-.35-6-.08-8.88-.14-8.88-.19v-.66s2.88.12 8.89.2c9.08.12 23.36.25 38.35.34h1.11q1.807.03 3.6.27.098.053.2.09m51.77.38c0 .08-6.33.11-18.16.09H86a19 19 0 0 1-3-.29c.07-.06.27-.23 4.19-.36 11.22 0 17.22 0 17.22-.09v.69"/><path fill="#b9b9b9" d="M51.21 51.24c-1.09 1.32-2.41.15-3.62.3-14.94-.09-29.16-.22-38.21-.34-6-.08-8.88-.14-8.88-.19v-.66s2.88.12 8.89.2c8.87.12 22.69.24 37.31.34a23.3 23.3 0 0 1 4.54.39m53.14.35c0 .07-5.57.11-16 .09h-.33a18 18 0 0 1-2.87-.29 18 18 0 0 1 3.85-.37c10.06 0 15.42 0 15.42-.09v.69"/><path fill="#b5b5b5" d="M49.72 51.23c-1 1.17-2.14.1-3.19.31-14.55-.1-28.31-.22-37.15-.34-6-.08-8.88-.14-8.88-.19v-.7s2.88.12 8.89.2c8.65.11 22 .23 36.26.33h.92a27 27 0 0 1 3 .26.7.7 0 0 0 .17.09m54.64.44c0 .07-4.86.1-14 .09h-.44a12.7 12.7 0 0 1-2.4-.29 14.3 14.3 0 0 1 3.29-.37c8.89 0 13.6 0 13.6-.09v.69"/><path fill="#b1b1b1" d="M48.23 51.22c-.82 1-1.86.09-2.77.31-14.15-.09-27.46-.21-36.08-.33-6-.08-8.88-.14-8.88-.19v-.7s2.88.12 8.89.2c8.44.11 21.38.23 35.22.32h.82a22 22 0 0 1 2.68.26.5.5 0 0 0 .15.09m56.12.45c0 .06-4.18.1-12.08.1h-.43a11 11 0 0 1-2.12-.29c-.06-.21 2.59-.35 2.9-.37 7.7 0 11.77 0 11.77-.09v.69"/><path fill="#adadad" d="M46.74 51.21c-.68.88-1.6-.12-2.34.31-13.76-.09-26.61-.21-35-.32-6-.08-8.88-.14-8.88-.19v-.7s2.88.12 8.89.2c8.17.11 20.54.22 33.87.31h1a15.4 15.4 0 0 1 2.4.27.4.4 0 0 0 .1.08m57.6.46c0 .06-3.55.09-10.29.1h-.42a9.4 9.4 0 0 1-1.87-.28c-.05-.22 2.28-.36 2.55-.38 6.6 0 10.07 0 10.07-.09v.69"/><path fill="#a9a9a9" d="M45.26 51.2c-.68.93-1.65 0-2.42.31-13.17-.09-25.37-.2-33.46-.31-6-.08-8.88-.14-8.88-.19v-.7s2.88.12 8.89.2c7.86.1 19.62.21 32.37.3h.92a11.3 11.3 0 0 1 2.59.31m59.11.51c0 .06-3 .09-8.77.09h-.35a7.8 7.8 0 0 1-1.55-.28c0-.18 1.51-.34 2.12-.38 5.64 0 8.59 0 8.59-.09v.69"/><path fill="#a5a5a5" d="M43.65 51.19c-.71.93-1.67 0-2.46.31-12.53-.09-24.06-.19-31.81-.3-6-.08-8.88-.14-8.88-.19v-.66s2.88.12 8.89.2c7.55.1 18.71.2 30.88.29q1.666.04 3.31.31a.4.4 0 0 0 .1.08m60.7.4s-2.54.08-7.41.09h-.3a5 5 0 0 1-1.29-.32 4.4 4.4 0 0 1 1.82-.33c4.76 0 7.24 0 7.24-.09v.69"/><path fill="#a1a1a1" d="M41.75 51.18c-.62.84-1.48.08-2.2.31-11.89-.09-22.76-.19-30.17-.29-6-.08-8.88-.14-8.88-.19v-.7s2.88.12 8.89.2c7.25.1 17.81.2 29.4.28h.72a10.2 10.2 0 0 1 2.18.27l.09.08m62.6.49s-2.11.08-6.16.09a3.7 3.7 0 0 1-1.37-.31s.11-.19 1.6-.34c4 0 6 0 6-.08v.69"/><path fill="#9d9d9d" d="M39.86 51.17c-.53.75-1.3.13-1.93.31-11.26-.09-21.48-.18-28.55-.28-6-.08-8.88-.14-8.88-.19v-.7s2.88.12 8.89.2c6.93.09 16.88.19 27.87.27h.25a9.2 9.2 0 0 1 2.37.33v.05m64.5.47s-1.73.07-5.08.08h-.2c-.24 0-1-.18-1-.32s.14-.21 1.33-.34c3.26 0 4.94 0 4.94-.08v.69"/><path fill="#989898" d="M37.99 51.15c-.53.81-1.36.16-2 .31-10.48-.08-19.93-.17-26.59-.26-6-.08-8.88-.14-8.88-.19v-.7s2.88.12 8.89.2c6.51.09 15.7.18 25.9.25 2.58.15 2.72.34 2.72.35m66.35.52s-1.4.06-4.11.08h-.16c-1-.2-.83-.32-.78-.37a2.44 2.44 0 0 1 1.12-.29c2.62 0 4 0 4-.08v.69"/><path fill="#949494" d="M35.87 51.14c-.52.78-1.32.18-2 .31-9.65-.08-18.3-.16-24.52-.25-6-.08-8.88-.14-8.88-.19v-.7s2.88.12 8.89.2 14.53.16 24 .24h.65a7.4 7.4 0 0 1 1.83.26s.08.05.07.09m68.47.53s-1.1.06-3.23.07h-.09c-.51-.13-.91-.25-.65-.41a2.5 2.5 0 0 1 .9-.26c2 0 3.11 0 3.11-.07v.65"/><path fill="#909090" d="M33.68 51.12q-.9.215-1.82.31c-8.83-.07-16.7-.15-22.48-.23-6-.08-8.88-.14-8.88-.19v-.7s2.88.12 8.89.2c5.68.08 13.39.15 22 .22h.58c1.53.17 1.68.27 1.69.3m70.72.6s-.83 0-2.46.07h-.1c-.42-.13-.79-.25-.44-.44a2.6 2.6 0 0 1 .7-.22q1.171.03 2.34-.06v.65"/><path fill="#8c8c8c" d="M31.52 51.1c0 .07 0 .07-1.78.31-8-.06-15-.14-20.36-.21-6-.08-8.88-.14-8.88-.19v-.7s2.88.12 8.89.2c5.21.07 12.14.14 19.94.21 2 .13 2.21.33 2.21.33v.05m72.84.53q-.893.09-1.79.06h-.07c-.38-.17-.82-.36 0-.62h.2c1.11 0 1.68 0 1.68-.06v.69"/><path fill="#888" d="M29.25 51.08c0 .05 0 .05-1.66.31-7.09-.06-13.38-.12-18.21-.19-6-.08-8.88-.14-8.88-.19v-.7s2.88.12 8.89.2c4.73.06 10.88.13 17.81.19h.54c1.37.16 1.51.27 1.53.3m75.11.63a9 9 0 0 1-1.22 0h-.05c-.37-.21-.39-.23-.36-.32s.09-.22.55-.34a7.4 7.4 0 0 0 1.12-.05v.69"/><path fill="#848484" d="M26.96 51.06a7.3 7.3 0 0 1-1.48.32c-6.23-.06-11.76-.12-16.1-.18-6-.08-8.88-.14-8.88-.19v-.7s2.88.12 8.89.2c4.25.06 9.65.11 15.73.17h.49c1.23.16 1.36.27 1.37.3m77.4.65a3.7 3.7 0 0 1-.73 0c-.07-.06-.16-.09-.22-.17a.18.18 0 0 1-.06-.16s0-.18.43-.33a3 3 0 0 0 .65 0v.69"/><path fill="gray" d="M24.72 51c-.34.61-1 .2-1.45.32-5.33 0-10.07-.11-13.89-.16-6-.08-8.88-.14-8.88-.19v-.7s2.88.12 8.89.2l13.48.15h.49a4 4 0 0 1 1.34.26s.06 0 .05.08m79.63.67h-.36c0-.07-.11-.1-.14-.17a.2.2 0 0 1 0-.16.6.6 0 0 1 .29-.33 1.3 1.3 0 0 0 .31 0v.69"/><path fill="#7c7c7c" d="M22.27 51c-.27.53-.82.16-1.22.31-4.43 0-8.38-.08-11.67-.13-6-.08-8.88-.14-8.88-.19v-.7s2.88.12 8.89.2l11.26.13h.44c1.08.15 1.16.25 1.16.26s.06.05 0 .08m82.13.67h-.11c0-.07-.06-.11-.09-.17a.4.4 0 0 1 0-.16.65.65 0 0 1 .2-.3h.08v.69"/><path fill="#777" d="M19.9 51c-.21.46-.73.07-1 .31-3.54 0-6.75-.07-9.48-.11-6-.08-8.88-.14-8.88-.19v-.7s2.88.12 8.89.2l9 .1h.47a2.9 2.9 0 0 1 1 .26s.05.06 0 .09m84.48.67a3 3 0 0 1 0-.28v-.36.67"/><path fill="#737373" d="M17.25 51c-.2.41-.69 0-.93.27l-7-.09c-6-.08-8.88-.14-8.88-.19v-.7s2.88.12 8.89.2l6.46.08h.38c.93.15 1 .26 1 .33"/><path fill="#6f6f6f" d="M14.53 50.94c0 .1-.36.21-.78.28h.18l-4.55-.02c-6-.08-8.88-.14-8.88-.19v-.7s2.88.12 8.89.2l3.86.05h.43c.31 0 .89.18.88.33"/><path fill="#6b6b6b" d="M10.96 50.9c0 .12-.39.21-.61.27h.28l-1.25.03c-6-.08-8.88-.14-8.88-.19v-.7s2.88.12 8.89.2h.89c.61.15.7.26.71.3"/><path fill="#d8d8d8" d="M75.15 51c-7.93.18-7.93.18-20.4-.14 7.62 0 15.25.08 22.3.1h-1.9"/><path fill="#dadada" d="M73.77 51c-7.08.15-7.08.15-18-.13l20.11.13z"/><path fill="#dbdbdb" d="M72.38 51c-6.17.12-8 .08-15.7-.11l18 .08h-2.3"/><path fill="#dcdcdc" d="M71.82 51c-9.36 0-9.36 0-14.17-.1l15.85.1z"/><path fill="#dedede" d="M71.82 51c-6.66 0-6.66 0-12.68-.07L72.3 51z"/><path fill="#dfdfdf" d="M65.04 51h-3.92 9.13-5.17"/><path fill="#e0e0e0" d="M65.04 51h-2 4.56z"/><path fill="#e1e1e1" d="M.5 51c-.37-7 2-18.53 7.92-27.31 8.13-12 16.35-16.37 24.08-19.84 9.92-4.45 34-8.4 54 8.54a51.1 51.1 0 0 1 14 18.81c3.54 7.61 3.83 15.8 4 19.73 0 .08-8 .12-22.92.07-23.87 0-56.2-.28-72.2-.49-6-.08-8.89-.15-8.89-.2s8-.11 22.92-.07c23.79.07 56.1.29 72.15.51.17-28-19-50.68-42.79-50.75A53.8 53.8 0 0 0 32.5 3.86a52.1 52.1 0 0 0-16.59 10.75A49.43 49.43 0 0 0 .5 51"/><path fill="#e1e1e1" d="M23.38 50.24c23.79.07 56.1.29 72.15.51.17-28-19-50.68-42.79-50.75l-4.16.14c-1.28.14-3 .28-4.26.47l-4 .78c-1.19.33-2.79.72-4 1.1L32.5 3.86c-1.12.49-2.58 1.14-3.66 1.65l-3.46 1.91c-1 .65-2.36 1.48-3.33 2.17L18.86 12c-.89.78-2.1 1.8-2.95 2.62l-2.73 2.83c-.75.91-1.78 2.09-2.5 3l-2.3 3.25c-.6 1-1.45 2.35-2 3.39l-1.74 3.54c-.43 1.11-1.06 2.58-1.45 3.7l-1.17 3.83c-.25 1.18-.64 2.75-.85 4l-.53 4c-.06 1.25-.19 2.91-.2 4.15 0-.08 8-.11 22.92-.07M.5 51v-.7.66"/><path fill="#e1e1e1" d="M61.18.72a50 50 0 0 1 8 2l3.78 1.38c1.09.51 2.57 1.15 3.64 1.7l3.49 2c1 .67 2.34 1.51 3.3 2.21l3.12 2.44c.87.79 2.07 1.82 2.91 2.66l2.69 2.86c.74.92 1.76 2.12 2.47 3.07l2.22 3.24c.59 1 1.42 2.37 2 3.41l1.69 3.57c.43 1.12 1 2.59 1.41 3.72l1.12 3.84c.24 1.19.61 2.76.81 4l.48 4.06c0 1.25.16 2.91.15 4.15 0 .08-8 .12-22.92.07-23.83-.1-56.16-.38-72.16-.59-6-.08-8.89-.15-8.89-.2l.2-4.15c.16-1.21.32-2.84.53-4l.85-4c.35-1.15.77-2.7 1.17-3.83l1.45-3.69c.53-1.07 1.18-2.51 1.74-3.55l2-3.39c.68-1 1.55-2.28 2.26-3.22l2.5-3c.82-.86 1.88-2 2.73-2.84L18.86 12c.94-.72 2.17-1.72 3.14-2.4l3.38-2.18c1-.57 2.43-1.38 3.51-1.91l3.66-1.65c1.14-.41 2.65-1 3.81-1.37l3.88-1.09c1.22-.23 2.85-.6 4.08-.79l4.06-.46c1.3 0 3-.15 4.34-.15l4.18.19c1.27.16 3 .29 4.25.53"/><path fill="#e0e0e0" d="M23.38 50.24c23.79.07 56.1.29 72.15.51.17-28-19-50.68-42.79-50.75l-4.16.14c-1.28.14-3 .28-4.26.47l-4 .78c-1.19.33-2.79.72-4 1.1L32.5 3.86c-1.12.49-2.58 1.14-3.66 1.65l-3.46 1.91c-1 .65-2.36 1.48-3.33 2.17L18.86 12c-.89.78-2.1 1.8-2.95 2.62l-2.73 2.83c-.75.91-1.78 2.09-2.5 3l-2.3 3.25c-.6 1-1.45 2.35-2 3.39l-1.74 3.54c-.43 1.11-1.06 2.58-1.45 3.7l-1.17 3.83c-.25 1.18-.64 2.75-.85 4l-.53 4c-.06 1.25-.19 2.91-.2 4.15 0-.08 8-.11 22.92-.07M.5 51v-.7.66"/><path fill="#e0e0e0" d="M61.18.72a50 50 0 0 1 8 2l3.78 1.38c1.09.51 2.57 1.15 3.64 1.7l3.49 2c1 .67 2.34 1.51 3.3 2.21l3.12 2.44c.87.79 2.07 1.82 2.91 2.66l2.69 2.86c.74.92 1.76 2.12 2.47 3.07l2.22 3.24c.59 1 1.42 2.37 2 3.41l1.69 3.57c.43 1.12 1 2.59 1.41 3.72l1.12 3.84c.24 1.19.61 2.76.81 4l.48 4.06c0 1.25.16 2.91.15 4.15 0 .08-8 .12-22.92.07-23.83-.1-56.16-.38-72.16-.59-6-.08-8.89-.15-8.89-.2l.2-4.15c.16-1.21.32-2.84.53-4l.85-4c.35-1.15.77-2.7 1.17-3.83l1.45-3.69c.53-1.07 1.18-2.51 1.74-3.55l2-3.39c.68-1 1.55-2.28 2.26-3.22l2.5-3c.82-.86 1.88-2 2.73-2.84L18.86 12c.94-.72 2.17-1.72 3.14-2.4l3.38-2.18c1-.57 2.43-1.38 3.51-1.91l3.66-1.65c1.14-.41 2.65-1 3.81-1.37l3.88-1.09c1.22-.23 2.85-.6 4.08-.79l4.06-.46c1.3 0 3-.15 4.34-.15l4.18.19c1.27.16 3 .29 4.25.53"/><path fill="#dfdfdf" d="M23.38 50.24c23.79.07 56.1.29 72.15.51.17-28-19-50.68-42.79-50.75l-4.16.14c-1.28.14-3 .28-4.26.47l-4 .78c-1.19.33-2.79.72-4 1.1L32.5 3.86c-1.12.49-2.58 1.14-3.66 1.65l-3.46 1.91c-1 .65-2.36 1.48-3.33 2.17L18.86 12c-.89.78-2.1 1.8-2.95 2.62l-2.73 2.83c-.75.91-1.78 2.09-2.5 3l-2.3 3.25c-.6 1-1.45 2.35-2 3.39l-1.74 3.54c-.43 1.11-1.06 2.58-1.45 3.7l-1.17 3.83c-.25 1.18-.64 2.75-.85 4l-.53 4c-.06 1.25-.19 2.91-.2 4.15 0-.08 8-.11 22.92-.07M.5 51v-.7.66"/><path fill="#dfdfdf" d="M61.18.72a50 50 0 0 1 8 2l3.78 1.38c1.09.51 2.57 1.15 3.64 1.7l3.49 2c1 .67 2.34 1.51 3.3 2.21l3.12 2.44c.87.79 2.07 1.82 2.91 2.66l2.69 2.86c.74.92 1.76 2.12 2.47 3.07l2.22 3.24c.59 1 1.42 2.37 2 3.41l1.69 3.57c.43 1.12 1 2.59 1.41 3.72l1.12 3.84c.24 1.19.61 2.76.81 4l.48 4.06c0 1.25.16 2.91.15 4.15 0 .08-8 .12-22.92.07-23.83-.1-56.16-.38-72.16-.59-6-.08-8.89-.15-8.89-.2l.2-4.15c.16-1.21.32-2.84.53-4l.85-4c.35-1.15.77-2.7 1.17-3.83l1.45-3.69c.53-1.07 1.18-2.51 1.74-3.55l2-3.39c.68-1 1.55-2.28 2.26-3.22l2.5-3c.82-.86 1.88-2 2.73-2.84L18.86 12c.94-.72 2.17-1.72 3.14-2.4l3.38-2.18c1-.57 2.43-1.38 3.51-1.91l3.66-1.65c1.14-.41 2.65-1 3.81-1.37l3.88-1.09c1.22-.23 2.85-.6 4.08-.79l4.06-.46c1.3 0 3-.15 4.34-.15l4.18.19c1.27.16 3 .29 4.25.53"/><path fill="#dedede" d="M23.38 50.24c23.79.07 56.1.29 72.15.51.17-28-19-50.68-42.79-50.75l-4.16.14c-1.28.14-3 .28-4.26.47l-4 .78c-1.19.33-2.79.72-4 1.1L32.5 3.86c-1.12.49-2.58 1.14-3.66 1.65l-3.46 1.91c-1 .65-2.36 1.48-3.33 2.17L18.86 12c-.89.78-2.1 1.8-2.95 2.62l-2.73 2.83c-.75.91-1.78 2.09-2.5 3l-2.3 3.25c-.6 1-1.45 2.35-2 3.39l-1.74 3.54c-.43 1.11-1.06 2.58-1.45 3.7l-1.17 3.83c-.25 1.18-.64 2.75-.85 4l-.53 4c-.06 1.25-.19 2.91-.2 4.15 0-.08 8-.11 22.92-.07M.5 51v-.7.66"/><path fill="#dedede" d="M61.18.72a50 50 0 0 1 8 2l3.78 1.38c1.09.51 2.57 1.15 3.64 1.7l3.49 2c1 .67 2.34 1.51 3.3 2.21l3.12 2.44c.87.79 2.07 1.82 2.91 2.66l2.69 2.86c.74.92 1.76 2.12 2.47 3.07l2.22 3.24c.59 1 1.42 2.37 2 3.41l1.69 3.57c.43 1.12 1 2.59 1.41 3.72l1.12 3.84c.24 1.19.61 2.76.81 4l.48 4.06c0 1.25.16 2.91.15 4.15 0 .08-8 .12-22.92.07-23.83-.1-56.16-.38-72.16-.59-6-.08-8.89-.15-8.89-.2l.2-4.15c.16-1.21.32-2.84.53-4l.85-4c.35-1.15.77-2.7 1.17-3.83l1.45-3.69c.53-1.07 1.18-2.51 1.74-3.55l2-3.39c.68-1 1.55-2.28 2.26-3.22l2.5-3c.82-.86 1.88-2 2.73-2.84L18.86 12c.94-.72 2.17-1.72 3.14-2.4l3.38-2.18c1-.57 2.43-1.38 3.51-1.91l3.66-1.65c1.14-.41 2.65-1 3.81-1.37l3.88-1.09c1.22-.23 2.85-.6 4.08-.79l4.06-.46c1.3 0 3-.15 4.34-.15l4.18.19c1.27.16 3 .29 4.25.53"/><path fill="#dcdcdc" d="M23.38 50.24c23.79.07 56.1.29 72.15.51.17-28-19-50.68-42.79-50.75l-4.16.14c-1.28.14-3 .28-4.26.47l-4 .78c-1.19.33-2.79.72-4 1.1L32.5 3.86c-1.12.49-2.58 1.14-3.66 1.65l-3.46 1.91c-1 .65-2.36 1.48-3.33 2.17L18.86 12c-.89.78-2.1 1.8-2.95 2.62l-2.73 2.83c-.75.91-1.78 2.09-2.5 3l-2.3 3.25c-.6 1-1.45 2.35-2 3.39l-1.74 3.54c-.43 1.11-1.06 2.58-1.45 3.7l-1.17 3.83c-.25 1.18-.64 2.75-.85 4l-.53 4c-.06 1.25-.19 2.91-.2 4.15 0-.08 8-.11 22.92-.07M.5 51v-.7.66"/><path fill="#dcdcdc" d="M61.18.72a50 50 0 0 1 8 2l3.78 1.38c1.09.51 2.57 1.15 3.64 1.7l3.49 2c1 .67 2.34 1.51 3.3 2.21l3.12 2.44c.87.79 2.07 1.82 2.91 2.66l2.69 2.86c.74.92 1.76 2.12 2.47 3.07l2.22 3.24c.59 1 1.42 2.37 2 3.41l1.69 3.57c.43 1.12 1 2.59 1.41 3.72l1.12 3.84c.24 1.19.61 2.76.81 4l.48 4.06c0 1.25.16 2.91.15 4.15 0 .08-8 .12-22.92.07-23.83-.1-56.16-.38-72.16-.59-6-.08-8.89-.15-8.89-.2l.2-4.15c.16-1.21.32-2.84.53-4l.85-4c.35-1.15.77-2.7 1.17-3.83l1.45-3.69c.53-1.07 1.18-2.51 1.74-3.55l2-3.39c.68-1 1.55-2.28 2.26-3.22l2.5-3c.82-.86 1.88-2 2.73-2.84L18.86 12c.94-.72 2.17-1.72 3.14-2.4l3.38-2.18c1-.57 2.43-1.38 3.51-1.91l3.66-1.65c1.14-.41 2.65-1 3.81-1.37l3.88-1.09c1.22-.23 2.85-.6 4.08-.79l4.06-.46c1.3 0 3-.15 4.34-.15l4.18.19c1.27.16 3 .29 4.25.53"/><path fill="#dbdbdb" d="M23.38 50.24c23.79.07 56.1.29 72.15.51.17-28-19-50.68-42.79-50.75l-4.16.14c-1.28.14-3 .28-4.26.47l-4 .78c-1.19.33-2.79.72-4 1.1L32.5 3.86c-1.12.49-2.58 1.14-3.66 1.65l-3.46 1.91c-1 .65-2.36 1.48-3.33 2.17L18.86 12c-.89.78-2.1 1.8-2.95 2.62l-2.73 2.83c-.75.91-1.78 2.09-2.5 3l-2.3 3.25c-.6 1-1.45 2.35-2 3.39l-1.74 3.54c-.43 1.11-1.06 2.58-1.45 3.7l-1.17 3.83c-.25 1.18-.64 2.75-.85 4l-.53 4c-.06 1.25-.19 2.91-.2 4.15 0-.08 8-.11 22.92-.07M.5 51v-.7.66"/><path fill="#dbdbdb" d="M61.18.72a50 50 0 0 1 8 2l3.78 1.38c1.09.51 2.57 1.15 3.64 1.7l3.49 2c1 .67 2.34 1.51 3.3 2.21l3.12 2.44c.87.79 2.07 1.82 2.91 2.66l2.69 2.86c.74.92 1.76 2.12 2.47 3.07l2.22 3.24c.59 1 1.42 2.37 2 3.41l1.69 3.57c.43 1.12 1 2.59 1.41 3.72l1.12 3.84c.24 1.19.61 2.76.81 4l.48 4.06c0 1.25.16 2.91.15 4.15 0 .08-8 .12-22.92.07-23.83-.1-56.16-.38-72.16-.59-6-.08-8.89-.15-8.89-.2l.2-4.15c.16-1.21.32-2.84.53-4l.85-4c.35-1.15.77-2.7 1.17-3.83l1.45-3.69c.53-1.07 1.18-2.51 1.74-3.55l2-3.39c.68-1 1.55-2.28 2.26-3.22l2.5-3c.82-.86 1.88-2 2.73-2.84L18.86 12c.94-.72 2.17-1.72 3.14-2.4l3.38-2.18c1-.57 2.43-1.38 3.51-1.91l3.66-1.65c1.14-.41 2.65-1 3.81-1.37l3.88-1.09c1.22-.23 2.85-.6 4.08-.79l4.06-.46c1.3 0 3-.15 4.34-.15l4.18.19c1.27.16 3 .29 4.25.53"/><path fill="#dadada" d="M23.38 50.24c23.79.07 56.1.29 72.15.51.17-28-19-50.68-42.79-50.75l-4.16.14c-1.28.14-3 .28-4.26.47l-4 .78c-1.19.33-2.79.72-4 1.1L32.5 3.86c-1.12.49-2.58 1.14-3.66 1.65l-3.46 1.91c-1 .65-2.36 1.48-3.33 2.17L18.86 12c-.89.78-2.1 1.8-2.95 2.62l-2.73 2.83c-.75.91-1.78 2.09-2.5 3l-2.3 3.25c-.6 1-1.45 2.35-2 3.39l-1.74 3.54c-.43 1.11-1.06 2.58-1.45 3.7l-1.17 3.83c-.25 1.18-.64 2.75-.85 4l-.53 4c-.06 1.25-.19 2.91-.2 4.15 0-.08 8-.11 22.92-.07M.5 51v-.7.66"/><path fill="#dadada" d="M61.18.72a50 50 0 0 1 8 2l3.78 1.38c1.09.51 2.57 1.15 3.64 1.7l3.49 2c1 .67 2.34 1.51 3.3 2.21l3.12 2.44c.87.79 2.07 1.82 2.91 2.66l2.69 2.86c.74.92 1.76 2.12 2.47 3.07l2.22 3.24c.59 1 1.42 2.37 2 3.41l1.69 3.57c.43 1.12 1 2.59 1.41 3.72l1.12 3.84c.24 1.19.61 2.76.81 4l.48 4.06c0 1.25.16 2.91.15 4.15 0 .08-8 .12-22.92.07-23.83-.1-56.16-.38-72.16-.59-6-.08-8.89-.15-8.89-.2l.2-4.15c.16-1.21.32-2.84.53-4l.85-4c.35-1.15.77-2.7 1.17-3.83l1.45-3.69c.53-1.07 1.18-2.51 1.74-3.55l2-3.39c.68-1 1.55-2.28 2.26-3.22l2.5-3c.82-.86 1.88-2 2.73-2.84L18.86 12c.94-.72 2.17-1.72 3.14-2.4l3.38-2.18c1-.57 2.43-1.38 3.51-1.91l3.66-1.65c1.14-.41 2.65-1 3.81-1.37l3.88-1.09c1.22-.23 2.85-.6 4.08-.79l4.06-.46c1.3 0 3-.15 4.34-.15l4.18.19c1.27.16 3 .29 4.25.53"/><path fill="#d8d8d8" d="M23.38 50.24c23.79.07 56.1.29 72.15.51.17-28-19-50.68-42.79-50.75l-4.16.14c-1.28.14-3 .28-4.26.47l-4 .78c-1.19.33-2.79.72-4 1.1L32.5 3.86c-1.12.49-2.58 1.14-3.66 1.65l-3.46 1.91c-1 .65-2.36 1.48-3.33 2.17L18.86 12c-.89.78-2.1 1.8-2.95 2.62l-2.73 2.83c-.75.91-1.78 2.09-2.5 3l-2.3 3.25c-.6 1-1.45 2.35-2 3.39l-1.74 3.54c-.43 1.11-1.06 2.58-1.45 3.7l-1.17 3.83c-.25 1.18-.64 2.75-.85 4l-.53 4c-.06 1.25-.19 2.91-.2 4.15 0-.08 8-.11 22.92-.07M.5 51v-.7.66"/><path fill="#d8d8d8" d="M61.18.72a50 50 0 0 1 8 2l3.78 1.38c1.09.51 2.57 1.15 3.64 1.7l3.49 2c1 .67 2.34 1.51 3.3 2.21l3.12 2.44c.87.79 2.07 1.82 2.91 2.66l2.69 2.86c.74.92 1.76 2.12 2.47 3.07l2.22 3.24c.59 1 1.42 2.37 2 3.41l1.69 3.57c.43 1.12 1 2.59 1.41 3.72l1.12 3.84c.24 1.19.61 2.76.81 4l.48 4.06c0 1.25.16 2.91.15 4.15 0 .08-8 .12-22.92.07-23.83-.1-56.16-.38-72.16-.59-6-.08-8.89-.15-8.89-.2l.2-4.15c.16-1.21.32-2.84.53-4l.85-4c.35-1.15.77-2.7 1.17-3.83l1.45-3.69c.53-1.07 1.18-2.51 1.74-3.55l2-3.39c.68-1 1.55-2.28 2.26-3.22l2.5-3c.82-.86 1.88-2 2.73-2.84L18.86 12c.94-.72 2.17-1.72 3.14-2.4l3.38-2.18c1-.57 2.43-1.38 3.51-1.91l3.66-1.65c1.14-.41 2.65-1 3.81-1.37l3.88-1.09c1.22-.23 2.85-.6 4.08-.79l4.06-.46c1.3 0 3-.15 4.34-.15l4.18.19c1.27.16 3 .29 4.25.53"/><path fill="#d6d6d6" d="M23.38 50.24c23.79.07 56.1.29 72.15.51.17-28-19-50.68-42.79-50.75l-4.16.14c-1.28.14-3 .28-4.26.47l-4 .78c-1.19.33-2.79.72-4 1.1L32.5 3.86c-1.12.49-2.58 1.14-3.66 1.65l-3.46 1.91c-1 .65-2.36 1.48-3.33 2.17L18.86 12c-.89.78-2.1 1.8-2.95 2.62l-2.73 2.83c-.75.91-1.78 2.09-2.5 3l-2.3 3.25c-.6 1-1.45 2.35-2 3.39l-1.74 3.54c-.43 1.11-1.06 2.58-1.45 3.7l-1.17 3.83c-.25 1.18-.64 2.75-.85 4l-.53 4c-.06 1.25-.19 2.91-.2 4.15 0-.08 8-.11 22.92-.07M.5 51v-.7.66"/><path fill="#d6d6d6" d="M61.18.72a50 50 0 0 1 8 2l3.78 1.38c1.09.51 2.57 1.15 3.64 1.7l3.49 2c1 .67 2.34 1.51 3.3 2.21l3.12 2.44c.87.79 2.07 1.82 2.91 2.66l2.69 2.86c.74.92 1.76 2.12 2.47 3.07l2.22 3.24c.59 1 1.42 2.37 2 3.41l1.69 3.57c.43 1.12 1 2.59 1.41 3.72l1.12 3.84c.24 1.19.61 2.76.81 4l.48 4.06c0 1.25.16 2.91.15 4.15 0 .08-8 .12-22.92.07h-3.29l.14-.24C91.16 29 66.11 24.74 63.38 25c-.25 0-23.94 3.59-9.63 25.92-17.14-.1-34.13-.24-44.43-.38-6-.08-8.89-.15-8.89-.2l.2-4.15c.16-1.21.32-2.84.53-4l.85-4c.35-1.15.77-2.7 1.17-3.83l1.45-3.69c.53-1.07 1.18-2.51 1.74-3.55l2-3.39c.68-1 1.55-2.28 2.26-3.22l2.5-3c.82-.86 1.88-2 2.73-2.84l3-2.67c.94-.72 2.17-1.72 3.14-2.4l3.38-2.18c1-.57 2.43-1.38 3.51-1.91l3.66-1.65c1.14-.41 2.65-1 3.81-1.37l3.88-1.09c1.22-.23 2.85-.6 4.08-.79l4.06-.46c1.3 0 3-.15 4.34-.15l4.18.19c1.27.16 3 .29 4.25.53"/><path fill="#d4d4d4" d="M23.38 50.24c23.79.07 56.1.29 72.15.51.17-28-19-50.68-42.79-50.75l-4.16.14c-1.28.14-3 .28-4.26.47l-4 .78c-1.19.33-2.79.72-4 1.1L32.5 3.86c-1.12.49-2.58 1.14-3.66 1.65l-3.46 1.91c-1 .65-2.36 1.48-3.33 2.17L18.86 12c-.89.78-2.1 1.8-2.95 2.62l-2.73 2.83c-.75.91-1.78 2.09-2.5 3l-2.3 3.25c-.6 1-1.45 2.35-2 3.39l-1.74 3.54c-.43 1.11-1.06 2.58-1.45 3.7l-1.17 3.83c-.25 1.18-.64 2.75-.85 4l-.53 4c-.06 1.25-.19 2.91-.2 4.15 0-.08 8-.11 22.92-.07M.5 51v-.7.66"/><path fill="#d4d4d4" d="M61.18.72a50 50 0 0 1 8 2l3.78 1.38c1.09.51 2.57 1.15 3.64 1.7l3.49 2c1 .67 2.34 1.51 3.3 2.21l3.12 2.44c.87.79 2.07 1.82 2.91 2.66l2.69 2.86c.74.92 1.76 2.12 2.47 3.07l2.22 3.24c.59 1 1.42 2.37 2 3.41l1.69 3.57c.43 1.12 1 2.59 1.41 3.72l1.12 3.84c.24 1.19.61 2.76.81 4l.48 4.06c0 1.25.16 2.91.15 4.15 0 .08-8 .12-22.92.07h-1.91l1.88-3.52c7.58-15.17-10.41-28.19-24-21.94-3.79 1.75-15.35 8.74-4.69 25.33-16.81-.1-33.36-.24-43.46-.37-6-.08-8.89-.15-8.89-.2l.2-4.15c.16-1.21.32-2.84.53-4l.85-4c.35-1.15.77-2.7 1.17-3.83l1.45-3.69c.53-1.07 1.18-2.51 1.74-3.55l2-3.39c.68-1 1.55-2.28 2.26-3.22l2.5-3c.82-.86 1.88-2 2.73-2.84L18.86 12c.94-.72 2.17-1.72 3.14-2.4l3.38-2.18c1-.57 2.43-1.38 3.51-1.91l3.66-1.65c1.14-.41 2.65-1 3.81-1.37l3.88-1.09c1.22-.23 2.85-.6 4.08-.79l4.06-.46c1.3 0 3-.15 4.34-.15l4.18.19c1.27.16 3 .29 4.25.53"/><path fill="#cecece" d="M23.38 50.24c23.79.07 56.1.29 72.15.51.17-28-19-50.68-42.79-50.75l-4.16.14c-1.28.14-3 .28-4.26.47l-4 .78c-1.19.33-2.79.72-4 1.1L32.5 3.86c-1.12.49-2.58 1.14-3.66 1.65l-3.46 1.91c-1 .65-2.36 1.48-3.33 2.17L18.86 12c-.89.78-2.1 1.8-2.95 2.62l-2.73 2.83c-.75.91-1.78 2.09-2.5 3l-2.3 3.25c-.6 1-1.45 2.35-2 3.39l-1.74 3.54c-.43 1.11-1.06 2.58-1.45 3.7l-1.17 3.83c-.25 1.18-.64 2.75-.85 4l-.53 4c-.06 1.25-.19 2.91-.2 4.15 0-.08 8-.11 22.92-.07M.5 51v-.7.66"/><path fill="#cecece" d="M61.18.72a50 50 0 0 1 8 2l3.78 1.38c1.09.51 2.57 1.15 3.64 1.7l3.49 2c1 .67 2.34 1.51 3.3 2.21l3.12 2.44c.87.79 2.07 1.82 2.91 2.66l2.69 2.86c.74.92 1.76 2.12 2.47 3.07l2.22 3.24c.59 1 1.42 2.37 2 3.41l1.69 3.57c.43 1.12 1 2.59 1.41 3.72l1.12 3.84c.24 1.19.61 2.76.81 4l.48 4.06c0 1.25.16 2.91.15 4.15 0 .08-8 .12-22.92.07l1.18-3.61c7.07-16.51-10.94-29.47-25.24-22.81-4 1.86-16.26 9.28-5.59 26.29-16.48-.1-32.59-.24-42.5-.37-6-.08-8.89-.15-8.89-.2l.2-4.15c.16-1.21.32-2.84.53-4l.85-4c.35-1.15.77-2.7 1.17-3.83l1.45-3.69c.53-1.07 1.18-2.51 1.74-3.55l2-3.39c.68-1 1.55-2.28 2.26-3.22l2.5-3c.82-.86 1.88-2 2.73-2.84L18.86 12c.94-.72 2.17-1.72 3.14-2.4l3.38-2.18c1-.57 2.43-1.38 3.51-1.91l3.66-1.65c1.14-.41 2.65-1 3.81-1.37l3.88-1.09c1.22-.23 2.85-.6 4.08-.79l4.06-.46c1.3 0 3-.15 4.34-.15l4.18.19c1.27.16 3 .29 4.25.53"/><path fill="#cacaca" d="M23.38 50.24c23.79.07 56.1.29 72.15.51.17-28-19-50.68-42.79-50.75l-4.16.14c-1.28.14-3 .28-4.26.47l-4 .78c-1.19.33-2.79.72-4 1.1L32.5 3.86c-1.12.49-2.58 1.14-3.66 1.65l-3.46 1.91c-1 .65-2.36 1.48-3.33 2.17L18.86 12c-.89.78-2.1 1.8-2.95 2.62l-2.73 2.83c-.75.91-1.78 2.09-2.5 3l-2.3 3.25c-.6 1-1.45 2.35-2 3.39l-1.74 3.54c-.43 1.11-1.06 2.58-1.45 3.7l-1.17 3.83c-.25 1.18-.64 2.75-.85 4l-.53 4c-.06 1.25-.19 2.91-.2 4.15 0-.08 8-.11 22.92-.07M.5 51v-.7.66"/><path fill="#cacaca" d="M61.18.72a50 50 0 0 1 8 2l3.78 1.38c1.09.51 2.57 1.15 3.64 1.7l3.49 2c1 .67 2.34 1.51 3.3 2.21l3.12 2.44c.87.79 2.07 1.82 2.91 2.66l2.69 2.86c.74.92 1.76 2.12 2.47 3.07l2.22 3.24c.59 1 1.42 2.37 2 3.41l1.69 3.57c.43 1.12 1 2.59 1.41 3.72l1.12 3.84c.24 1.19.61 2.76.81 4l.48 4.06c0 1.25.16 2.91.15 4.15 0 .08-7.72.11-22 .08l1.47-3.72c7.3-20.57-14.5-29.9-26.55-23.93-7.8 3.86-15.25 11.75-6.51 27.41-16.13-.1-31.8-.23-41.51-.36-6-.08-8.89-.15-8.89-.2l.2-4.15c.16-1.21.32-2.84.53-4l.85-4c.35-1.15.77-2.7 1.17-3.83l1.45-3.69c.53-1.07 1.18-2.51 1.74-3.55l2-3.39c.68-1 1.55-2.28 2.26-3.22l2.5-3c.82-.86 1.88-2 2.73-2.84L18.86 12c.94-.72 2.17-1.72 3.14-2.4l3.38-2.18c1-.57 2.43-1.38 3.51-1.91l3.66-1.65c1.14-.41 2.65-1 3.81-1.37l3.88-1.09c1.22-.23 2.85-.6 4.08-.79l4.06-.46c1.3 0 3-.15 4.34-.15l4.18.19c1.27.16 3 .29 4.25.53"/><path fill="#c6c6c6" d="M23.38 50.24c23.79.07 56.1.29 72.15.51.17-28-19-50.68-42.79-50.75l-4.16.14c-1.28.14-3 .28-4.26.47l-4 .78c-1.19.33-2.79.72-4 1.1L32.5 3.86c-1.12.49-2.58 1.14-3.66 1.65l-3.46 1.91c-1 .65-2.36 1.48-3.33 2.17L18.86 12c-.89.78-2.1 1.8-2.95 2.62l-2.73 2.83c-.75.91-1.78 2.09-2.5 3l-2.3 3.25c-.6 1-1.45 2.35-2 3.39l-1.74 3.54c-.43 1.11-1.06 2.58-1.45 3.7l-1.17 3.83c-.25 1.18-.64 2.75-.85 4l-.53 4c-.06 1.25-.19 2.91-.2 4.15 0-.08 8-.11 22.92-.07M.5 51v-.7.66"/><path fill="#c6c6c6" d="M61.18.72a50 50 0 0 1 8 2l3.78 1.38c1.09.51 2.57 1.15 3.64 1.7l3.49 2c1 .67 2.34 1.51 3.3 2.21l3.12 2.44c.87.79 2.07 1.82 2.91 2.66l2.69 2.86c.74.92 1.76 2.12 2.47 3.07l2.22 3.24c.59 1 1.42 2.37 2 3.41l1.69 3.57c.43 1.12 1 2.59 1.41 3.72l1.12 3.84c.24 1.19.61 2.76.81 4l.48 4.06c0 1.25.16 2.91.15 4.15 0 .08-7.24.11-20.7.08l.77-2c10.07-20.74-12-34.27-27.21-27-6.7 3.2-16.57 11.21-7.47 28.78-15.76-.1-31-.23-40.46-.36-6-.08-8.89-.15-8.89-.2l.2-4.15c.16-1.21.32-2.84.53-4l.85-4c.35-1.15.77-2.7 1.17-3.83l1.45-3.69c.53-1.07 1.18-2.51 1.74-3.55l2-3.39c.68-1 1.55-2.28 2.26-3.22l2.5-3c.82-.86 1.88-2 2.73-2.84L18.86 12c.94-.72 2.17-1.72 3.14-2.4l3.38-2.18c1-.57 2.43-1.38 3.51-1.91l3.66-1.65c1.14-.41 2.65-1 3.81-1.37l3.88-1.09c1.22-.23 2.85-.6 4.08-.79l4.06-.46c1.3 0 3-.15 4.34-.15l4.18.19c1.27.16 3 .29 4.25.53"/><path fill="#c2c2c2" d="M23.38 50.24c23.79.07 56.1.29 72.15.51.17-28-19-50.68-42.79-50.75l-4.16.14c-1.28.14-3 .28-4.26.47l-4 .78c-1.19.33-2.79.72-4 1.1L32.5 3.86c-1.12.49-2.58 1.14-3.66 1.65l-3.46 1.91c-1 .65-2.36 1.48-3.33 2.17L18.86 12c-.89.78-2.1 1.8-2.95 2.62l-2.73 2.83c-.75.91-1.78 2.09-2.5 3l-2.3 3.25c-.6 1-1.45 2.35-2 3.39l-1.74 3.54c-.43 1.11-1.06 2.58-1.45 3.7l-1.17 3.83c-.25 1.18-.64 2.75-.85 4l-.53 4c-.06 1.25-.19 2.91-.2 4.15 0-.08 8-.11 22.92-.07M.5 51v-.7.66"/><path fill="#c2c2c2" d="M61.18.72a50 50 0 0 1 8 2l3.78 1.38c1.09.51 2.57 1.15 3.64 1.7l3.49 2c1 .67 2.34 1.51 3.3 2.21l3.12 2.44c.87.79 2.07 1.82 2.91 2.66l2.69 2.86c.74.92 1.76 2.12 2.47 3.07l2.22 3.24c.59 1 1.42 2.37 2 3.41l1.69 3.57c.43 1.12 1 2.59 1.41 3.72l1.12 3.84c.24 1.19.61 2.76.81 4l.48 4.06c0 1.25.16 2.91.15 4.15 0 .08-6.67.11-19.12.08l1.66-3.5c7.21-16.85-10-36.24-29.78-26.78-6.93 3.31-17.24 11.63-8.43 30.12-15.38-.1-30.11-.23-39.4-.35-6-.08-8.89-.15-8.89-.2l.2-4.15c.16-1.21.32-2.84.53-4l.85-4c.35-1.15.77-2.7 1.17-3.83l1.45-3.69c.53-1.07 1.18-2.51 1.74-3.55l2-3.39c.68-1 1.55-2.28 2.26-3.22l2.5-3c.82-.86 1.88-2 2.73-2.84L18.86 12c.94-.72 2.17-1.72 3.14-2.4l3.38-2.18c1-.57 2.43-1.38 3.51-1.91l3.66-1.65c1.14-.41 2.65-1 3.81-1.37l3.88-1.09c1.22-.23 2.85-.6 4.08-.79l4.06-.46c1.3 0 3-.15 4.34-.15l4.18.19c1.27.16 3 .29 4.25.53"/><path fill="#bebebe" d="M23.38 50.24c23.79.07 56.1.29 72.15.51.17-28-19-50.68-42.79-50.75l-4.16.14c-1.28.14-3 .28-4.26.47l-4 .78c-1.19.33-2.79.72-4 1.1L32.5 3.86c-1.12.49-2.58 1.14-3.66 1.65l-3.46 1.91c-1 .65-2.36 1.48-3.33 2.17L18.86 12c-.89.78-2.1 1.8-2.95 2.62l-2.73 2.83c-.75.91-1.78 2.09-2.5 3l-2.3 3.25c-.6 1-1.45 2.35-2 3.39l-1.74 3.54c-.43 1.11-1.06 2.58-1.45 3.7l-1.17 3.83c-.25 1.18-.64 2.75-.85 4l-.53 4c-.06 1.25-.19 2.91-.2 4.15 0-.08 8-.11 22.92-.07M.5 51v-.7.66"/><path fill="#bebebe" d="M61.18.72a50 50 0 0 1 8 2l3.78 1.38c1.09.51 2.57 1.15 3.64 1.7l3.49 2c1 .67 2.34 1.51 3.3 2.21l3.12 2.44c.87.79 2.07 1.82 2.91 2.66l2.69 2.86c.74.92 1.76 2.12 2.47 3.07l2.22 3.24c.59 1 1.42 2.37 2 3.41l1.69 3.57c.43 1.12 1 2.59 1.41 3.72l1.12 3.84c.24 1.19.61 2.76.81 4l.48 4.06c0 1.25.16 2.91.15 4.15 0 .07-6 .11-17.22.09l1.45-3.6c7.55-21-14.81-37-31.6-28.31-8.63 4.46-17.26 13.58-9.35 31.73-15-.09-29.27-.22-38.35-.34-6-.08-8.89-.15-8.89-.2l.2-4.15c.16-1.21.32-2.84.53-4l.85-4c.35-1.15.77-2.7 1.17-3.83l1.45-3.69c.53-1.07 1.18-2.51 1.74-3.55l2-3.39c.68-1 1.55-2.28 2.26-3.22l2.5-3c.82-.86 1.88-2 2.73-2.84L18.86 12c.94-.72 2.17-1.72 3.14-2.4l3.38-2.18c1-.57 2.43-1.38 3.51-1.91l3.66-1.65c1.14-.41 2.65-1 3.81-1.37l3.88-1.09c1.22-.23 2.85-.6 4.08-.79l4.06-.46c1.3 0 3-.15 4.34-.15l4.18.19c1.27.16 3 .29 4.25.53"/><path fill="#b9b9b9" d="M23.38 50.24c23.79.07 56.1.29 72.15.51.17-28-19-50.68-42.79-50.75l-4.16.14c-1.28.14-3 .28-4.26.47l-4 .78c-1.19.33-2.79.72-4 1.1L32.5 3.86c-1.12.49-2.58 1.14-3.66 1.65l-3.46 1.91c-1 .65-2.36 1.48-3.33 2.17L18.86 12c-.89.78-2.1 1.8-2.95 2.62l-2.73 2.83c-.75.91-1.78 2.09-2.5 3l-2.3 3.25c-.6 1-1.45 2.35-2 3.39l-1.74 3.54c-.43 1.11-1.06 2.58-1.45 3.7l-1.17 3.83c-.25 1.18-.64 2.75-.85 4l-.53 4c-.06 1.25-.19 2.91-.2 4.15 0-.08 8-.11 22.92-.07M.5 51v-.7.66"/><path fill="#b9b9b9" d="M61.18.72a50 50 0 0 1 8 2l3.78 1.38c1.09.51 2.57 1.15 3.64 1.7l3.49 2c1 .67 2.34 1.51 3.3 2.21l3.12 2.44c.87.79 2.07 1.82 2.91 2.66l2.69 2.86c.74.92 1.76 2.12 2.47 3.07l2.22 3.24c.59 1 1.42 2.37 2 3.41l1.69 3.57c.43 1.12 1 2.59 1.41 3.72l1.12 3.84c.24 1.19.61 2.76.81 4l.48 4.06c0 1.25.16 2.91.15 4.15 0 .07-5.36.1-15.42.09l.88-2.36c8.9-24.26-16.68-39.68-33-31.32C37.38 27.37 44.38 45 46.67 50.85c-14.62-.1-28.44-.22-37.31-.34-6-.08-8.89-.15-8.89-.2l.2-4.15c.16-1.21.32-2.84.53-4l.85-4c.35-1.15.77-2.7 1.17-3.83l1.45-3.69c.53-1.07 1.18-2.51 1.74-3.55l2-3.39c.68-1 1.55-2.28 2.26-3.22l2.5-3c.82-.86 1.88-2 2.73-2.84L18.86 12c.94-.72 2.17-1.72 3.14-2.4l3.38-2.18c1-.57 2.43-1.38 3.51-1.91l3.66-1.65c1.14-.41 2.65-1 3.81-1.37l3.88-1.09c1.22-.23 2.85-.6 4.08-.79l4.06-.46c1.3 0 3-.15 4.34-.15l4.18.19c1.27.16 3 .29 4.25.53"/><path fill="#b5b5b5" d="M23.38 50.24c23.79.07 56.1.29 72.15.51.17-28-19-50.68-42.79-50.75l-4.16.14c-1.28.14-3 .28-4.26.47l-4 .78c-1.19.33-2.79.72-4 1.1L32.5 3.86c-1.12.49-2.58 1.14-3.66 1.65l-3.46 1.91c-1 .65-2.36 1.48-3.33 2.17L18.86 12c-.89.78-2.1 1.8-2.95 2.62l-2.73 2.83c-.75.91-1.78 2.09-2.5 3l-2.3 3.25c-.6 1-1.45 2.35-2 3.39l-1.74 3.54c-.43 1.11-1.06 2.58-1.45 3.7l-1.17 3.83c-.25 1.18-.64 2.75-.85 4l-.53 4c-.06 1.25-.19 2.91-.2 4.15 0-.08 8-.11 22.92-.07M.5 51v-.7.66"/><path fill="#b5b5b5" d="M61.18.72a50 50 0 0 1 8 2l3.78 1.38c1.09.51 2.57 1.15 3.64 1.7l3.49 2c1 .67 2.34 1.51 3.3 2.21l3.12 2.44c.87.79 2.07 1.82 2.91 2.66l2.69 2.86c.74.92 1.76 2.12 2.47 3.07l2.22 3.24c.59 1 1.42 2.37 2 3.41l1.69 3.57c.43 1.12 1 2.59 1.41 3.72l1.12 3.84c.24 1.19.61 2.76.81 4l.48 4.06c0 1.25.16 2.91.15 4.15 0 .06-4.71.1-13.6.09l1.31-3.57c7.21-22.78-17.39-40.73-35.45-32.04-20.54 9.88-13.43 29-11.1 35.33-14.24-.1-27.61-.22-36.24-.33-6-.08-8.89-.15-8.89-.2l.2-4.15c.16-1.21.32-2.84.53-4l.85-4c.35-1.15.77-2.7 1.17-3.83l1.45-3.69c.53-1.07 1.18-2.51 1.74-3.55l2-3.39c.68-1 1.55-2.28 2.26-3.22l2.5-3c.82-.86 1.88-2 2.73-2.84L18.86 12c.94-.72 2.17-1.72 3.14-2.4l3.38-2.18c1-.57 2.43-1.38 3.51-1.91l3.66-1.65c1.14-.41 2.65-1 3.81-1.37l3.88-1.09c1.22-.23 2.85-.6 4.08-.79l4.06-.46c1.3 0 3-.15 4.34-.15l4.18.19c1.27.16 3 .29 4.25.53"/><path fill="#b1b1b1" d="M23.38 50.24c23.79.07 56.1.29 72.15.51.17-28-19-50.68-42.79-50.75l-4.16.14c-1.28.14-3 .28-4.26.47l-4 .78c-1.19.33-2.79.72-4 1.1L32.5 3.86c-1.12.49-2.58 1.14-3.66 1.65l-3.46 1.91c-1 .65-2.36 1.48-3.33 2.17L18.86 12c-.89.78-2.1 1.8-2.95 2.62l-2.73 2.83c-.75.91-1.78 2.09-2.5 3l-2.3 3.25c-.6 1-1.45 2.35-2 3.39l-1.74 3.54c-.43 1.11-1.06 2.58-1.45 3.7l-1.17 3.83c-.25 1.18-.64 2.75-.85 4l-.53 4c-.06 1.25-.19 2.91-.2 4.15 0-.08 8-.11 22.92-.07M.5 51v-.7.66"/><path fill="#b1b1b1" d="M61.18.72a50 50 0 0 1 8 2l3.78 1.38c1.09.51 2.57 1.15 3.64 1.7l3.49 2c1 .67 2.34 1.51 3.3 2.21l3.12 2.44c.87.79 2.07 1.82 2.91 2.66l2.69 2.86c.74.92 1.76 2.12 2.47 3.07l2.22 3.24c.59 1 1.42 2.37 2 3.41l1.69 3.57c.43 1.12 1 2.59 1.41 3.72l1.12 3.84c.24 1.19.61 2.76.81 4l.48 4.06c0 1.25.16 2.91.15 4.15 0 .06-4.07.09-11.77.09l1.17-3.61C100.2 24.2 74.5 5.13 56.52 13.67c-10.22 4.86-20.6 15.25-11.94 37.16-13.84-.09-26.78-.21-35.22-.32-6-.08-8.89-.15-8.89-.2l.2-4.15c.16-1.21.32-2.84.53-4l.85-4c.35-1.15.77-2.7 1.17-3.83l1.45-3.69c.53-1.07 1.18-2.51 1.74-3.55l2-3.39c.68-1 1.55-2.28 2.26-3.22l2.5-3c.82-.86 1.88-2 2.73-2.84L18.86 12c.94-.72 2.17-1.72 3.14-2.4l3.38-2.18c1-.57 2.43-1.38 3.51-1.91l3.66-1.65c1.14-.41 2.65-1 3.81-1.37l3.88-1.09c1.22-.23 2.85-.6 4.08-.79l4.06-.46c1.3 0 3-.15 4.34-.15l4.18.19c1.27.16 3 .29 4.25.53"/><path fill="#adadad" d="M23.38 50.24c23.79.07 56.1.29 72.15.51.17-28-19-50.68-42.79-50.75l-4.16.14c-1.28.14-3 .28-4.26.47l-4 .78c-1.19.33-2.79.72-4 1.1L32.5 3.86c-1.12.49-2.58 1.14-3.66 1.65l-3.46 1.91c-1 .65-2.36 1.48-3.33 2.17L18.86 12c-.89.78-2.1 1.8-2.95 2.62l-2.73 2.83c-.75.91-1.78 2.09-2.5 3l-2.3 3.25c-.6 1-1.45 2.35-2 3.39l-1.74 3.54c-.43 1.11-1.06 2.58-1.45 3.7l-1.17 3.83c-.25 1.18-.64 2.75-.85 4l-.53 4c-.06 1.25-.19 2.91-.2 4.15 0-.08 8-.11 22.92-.07M.5 51v-.7.66"/><path fill="#adadad" d="M61.18.72a50 50 0 0 1 8 2l3.78 1.38c1.09.51 2.57 1.15 3.64 1.7l3.49 2c1 .67 2.34 1.51 3.3 2.21l3.12 2.44c.87.79 2.07 1.82 2.91 2.66l2.69 2.86c.74.92 1.76 2.12 2.47 3.07l2.22 3.24c.59 1 1.42 2.37 2 3.41l1.69 3.57c.43 1.12 1 2.59 1.41 3.72l1.12 3.84c.24 1.19.61 2.76.81 4l.48 4.06c0 1.25.16 2.91.15 4.15 0 .06-3.47.09-10.07.09l.14-.42C103.15 17 68.26 3 51.77 14.36c-5.65 3.89-17.79 15.22-8.54 36.46-13.33-.09-25.7-.2-33.87-.31-6-.08-8.89-.15-8.89-.2l.2-4.15c.16-1.21.32-2.84.53-4l.85-4c.35-1.15.77-2.7 1.17-3.83l1.45-3.69c.53-1.07 1.18-2.51 1.74-3.55l2-3.39c.68-1 1.55-2.28 2.26-3.22l2.5-3c.82-.86 1.88-2 2.73-2.84L18.86 12c.94-.72 2.17-1.72 3.14-2.4l3.38-2.18c1-.57 2.43-1.38 3.51-1.91l3.66-1.65c1.14-.41 2.65-1 3.81-1.37l3.88-1.09c1.22-.23 2.85-.6 4.08-.79l4.06-.46c1.3 0 3-.15 4.34-.15l4.18.19c1.27.16 3 .29 4.25.53"/><path fill="#a9a9a9" d="M23.38 50.24c23.79.07 56.1.29 72.15.51.17-28-19-50.68-42.79-50.75l-4.16.14c-1.28.14-3 .28-4.26.47l-4 .78c-1.19.33-2.79.72-4 1.1L32.5 3.86c-1.12.49-2.58 1.14-3.66 1.65l-3.46 1.91c-1 .65-2.36 1.48-3.33 2.17L18.86 12c-.89.78-2.1 1.8-2.95 2.62l-2.73 2.83c-.75.91-1.78 2.09-2.5 3l-2.3 3.25c-.6 1-1.45 2.35-2 3.39l-1.74 3.54c-.43 1.11-1.06 2.58-1.45 3.7l-1.17 3.83c-.25 1.18-.64 2.75-.85 4l-.53 4c-.06 1.25-.19 2.91-.2 4.15 0-.08 8-.11 22.92-.07M.5 51v-.7.66"/><path fill="#a9a9a9" d="M61.18.72a50 50 0 0 1 8 2l3.78 1.38c1.09.51 2.57 1.15 3.64 1.7l3.49 2c1 .67 2.34 1.51 3.3 2.21l3.12 2.44c.87.79 2.07 1.82 2.91 2.66l2.69 2.86c.74.92 1.76 2.12 2.47 3.07l2.22 3.24c.59 1 1.42 2.37 2 3.41l1.69 3.57c.43 1.12 1 2.59 1.41 3.72l1.12 3.84c.24 1.19.61 2.76.81 4l.48 4.06c0 1.25.16 2.91.15 4.15 0 .05-3 .08-8.59.09 7.5-31.82-24.33-49.53-44-38.68-2.12 1.17-20.38 12.16-10.11 38.46-12.75-.09-24.51-.2-32.37-.3-6-.08-8.89-.15-8.89-.2l.2-4.15c.16-1.21.32-2.84.53-4l.85-4c.35-1.15.77-2.7 1.17-3.83l1.45-3.69c.53-1.07 1.18-2.51 1.74-3.55l2-3.39c.68-1 1.55-2.28 2.26-3.22l2.5-3c.82-.86 1.88-2 2.73-2.84L18.86 12c.94-.72 2.17-1.72 3.14-2.4l3.38-2.18c1-.57 2.43-1.38 3.51-1.91l3.66-1.65c1.14-.41 2.65-1 3.81-1.37l3.88-1.09c1.22-.23 2.85-.6 4.08-.79l4.06-.46c1.3 0 3-.15 4.34-.15l4.18.19c1.27.16 3 .29 4.25.53"/><path fill="#a5a5a5" d="M23.38 50.24c23.79.07 56.1.29 72.15.51.17-28-19-50.68-42.79-50.75l-4.16.14c-1.28.14-3 .28-4.26.47l-4 .78c-1.19.33-2.79.72-4 1.1L32.5 3.86c-1.12.49-2.58 1.14-3.66 1.65l-3.46 1.91c-1 .65-2.36 1.48-3.33 2.17L18.86 12c-.89.78-2.1 1.8-2.95 2.62l-2.73 2.83c-.75.91-1.78 2.09-2.5 3l-2.3 3.25c-.6 1-1.45 2.35-2 3.39l-1.74 3.54c-.43 1.11-1.06 2.58-1.45 3.7l-1.17 3.83c-.25 1.18-.64 2.75-.85 4l-.53 4c-.06 1.25-.19 2.91-.2 4.15 0-.08 8-.11 22.92-.07M.5 51v-.7.66"/><path fill="#a5a5a5" d="M61.18.72a50 50 0 0 1 8 2l3.78 1.38c1.09.51 2.57 1.15 3.64 1.7l3.49 2c1 .67 2.34 1.51 3.3 2.21l3.12 2.44c.87.79 2.07 1.82 2.91 2.66l2.69 2.86c.74.92 1.76 2.12 2.47 3.07l2.22 3.24c.59 1 1.42 2.37 2 3.41l1.69 3.57c.43 1.12 1 2.59 1.41 3.72l1.12 3.84c.24 1.19.61 2.76.81 4l.48 4.06c0 1.25.16 2.91.15 4.15 0 .05-2.48.08-7.24.09.24-1.12.55-2.62.78-3.74 4.52-28.15-29-50.66-50.56-33.91-10.55 8.09-12.96 20.68-7.2 37.33-12.17-.09-23.33-.19-30.88-.29-6-.08-8.89-.15-8.89-.2l.2-4.15c.16-1.21.32-2.84.53-4l.85-4c.35-1.15.77-2.7 1.17-3.83l1.45-3.69c.53-1.07 1.18-2.51 1.74-3.55l2-3.39c.68-1 1.55-2.28 2.26-3.22l2.5-3c.82-.86 1.88-2 2.73-2.84L18.86 12c.94-.72 2.17-1.72 3.14-2.4l3.38-2.18c1-.57 2.43-1.38 3.51-1.91l3.66-1.65c1.14-.41 2.65-1 3.81-1.37l3.88-1.09c1.22-.23 2.85-.6 4.08-.79l4.06-.46c1.3 0 3-.15 4.34-.15l4.18.19c1.27.16 3 .29 4.25.53"/><path fill="#a1a1a1" d="M23.38 50.24c23.79.07 56.1.29 72.15.51.17-28-19-50.68-42.79-50.75l-4.16.14c-1.28.14-3 .28-4.26.47l-4 .78c-1.19.33-2.79.72-4 1.1L32.5 3.86c-1.12.49-2.58 1.14-3.66 1.65l-3.46 1.91c-1 .65-2.36 1.48-3.33 2.17L18.86 12c-.89.78-2.1 1.8-2.95 2.62l-2.73 2.83c-.75.91-1.78 2.09-2.5 3l-2.3 3.25c-.6 1-1.45 2.35-2 3.39l-1.74 3.54c-.43 1.11-1.06 2.58-1.45 3.7l-1.17 3.83c-.25 1.18-.64 2.75-.85 4l-.53 4c-.06 1.25-.19 2.91-.2 4.15 0-.08 8-.11 22.92-.07M.5 51v-.7.66"/><path fill="#a1a1a1" d="M61.18.72a50 50 0 0 1 8 2l3.78 1.38c1.09.51 2.57 1.15 3.64 1.7l3.49 2c1 .67 2.34 1.51 3.3 2.21l3.12 2.44c.87.79 2.07 1.82 2.91 2.66l2.69 2.86c.74.92 1.76 2.12 2.47 3.07l2.22 3.24c.59 1 1.42 2.37 2 3.41l1.69 3.57c.43 1.12 1 2.59 1.41 3.72l1.12 3.84c.24 1.19.61 2.76.81 4l.48 4.06c0 1.25.16 2.91.15 4.15 0 0-2 .07-6 .08.19-1.13.45-2.65.64-3.79 3.72-32.06-34.56-51-53.76-34.15-14.37 12.6-9.47 28.32-6.54 37.71-11.59-.08-22.15-.18-29.4-.28-6-.08-8.89-.15-8.89-.2l.2-4.15c.16-1.21.32-2.84.53-4l.85-4c.35-1.15.77-2.7 1.17-3.83l1.45-3.69c.53-1.07 1.18-2.51 1.74-3.55l2-3.39c.68-1 1.55-2.28 2.26-3.22l2.5-3c.82-.86 1.88-2 2.73-2.84L18.86 12c.94-.72 2.17-1.72 3.14-2.4l3.38-2.18c1-.57 2.43-1.38 3.51-1.91l3.66-1.65c1.14-.41 2.65-1 3.81-1.37l3.88-1.09c1.22-.23 2.85-.6 4.08-.79l4.06-.46c1.3 0 3-.15 4.34-.15l4.18.19c1.27.16 3 .29 4.25.53"/><path fill="#9d9d9d" d="M23.38 50.24c23.79.07 56.1.29 72.15.51.17-28-19-50.68-42.79-50.75l-4.16.14c-1.28.14-3 .28-4.26.47l-4 .78c-1.19.33-2.79.72-4 1.1L32.5 3.86c-1.12.49-2.58 1.14-3.66 1.65l-3.46 1.91c-1 .65-2.36 1.48-3.33 2.17L18.86 12c-.89.78-2.1 1.8-2.95 2.62l-2.73 2.83c-.75.91-1.78 2.09-2.5 3l-2.3 3.25c-.6 1-1.45 2.35-2 3.39l-1.74 3.54c-.43 1.11-1.06 2.58-1.45 3.7l-1.17 3.83c-.25 1.18-.64 2.75-.85 4l-.53 4c-.06 1.25-.19 2.91-.2 4.15 0-.08 8-.11 22.92-.07M.5 51v-.7.66"/><path fill="#9d9d9d" d="M61.18.72a50 50 0 0 1 8 2l3.78 1.38c1.09.51 2.57 1.15 3.64 1.7l3.49 2c1 .67 2.34 1.51 3.3 2.21l3.12 2.44c.87.79 2.07 1.82 2.91 2.66l2.69 2.86c.74.92 1.76 2.12 2.47 3.07l2.22 3.24c.59 1 1.42 2.37 2 3.41l1.69 3.57c.43 1.12 1 2.59 1.41 3.72l1.12 3.84c.24 1.19.61 2.76.81 4l.48 4.06c0 1.25.16 2.91.15 4.15 0 0-1.68.07-4.94.08l.55-3.82C102.87 16 64.23-6.87 42.6 13.28c-9.66 9-11.47 21.62-5.37 37.5-11-.08-20.94-.18-27.87-.27-6-.08-8.89-.15-8.89-.2l.2-4.15c.16-1.21.32-2.84.53-4l.85-4c.35-1.15.77-2.7 1.17-3.83l1.45-3.69c.53-1.07 1.18-2.51 1.74-3.55l2-3.39c.68-1 1.55-2.28 2.26-3.22l2.5-3c.82-.86 1.88-2 2.73-2.84L18.86 12c.94-.72 2.17-1.72 3.14-2.4l3.38-2.18c1-.57 2.43-1.38 3.51-1.91l3.66-1.65c1.14-.41 2.65-1 3.81-1.37l3.88-1.09c1.22-.23 2.85-.6 4.08-.79l4.06-.46c1.3 0 3-.15 4.34-.15l4.18.19c1.27.16 3 .29 4.25.53"/><path fill="#989898" d="M23.38 50.24c23.79.07 56.1.29 72.15.51.17-28-19-50.68-42.79-50.75l-4.16.14c-1.28.14-3 .28-4.26.47l-4 .78c-1.19.33-2.79.72-4 1.1L32.5 3.86c-1.12.49-2.58 1.14-3.66 1.65l-3.46 1.91c-1 .65-2.36 1.48-3.33 2.17L18.86 12c-.89.78-2.1 1.8-2.95 2.62l-2.73 2.83c-.75.91-1.78 2.09-2.5 3l-2.3 3.25c-.6 1-1.45 2.35-2 3.39l-1.74 3.54c-.43 1.11-1.06 2.58-1.45 3.7l-1.17 3.83c-.25 1.18-.64 2.75-.85 4l-.53 4c-.06 1.25-.19 2.91-.2 4.15 0-.08 8-.11 22.92-.07M.5 51v-.7.66"/><path fill="#989898" d="M61.18.72a50 50 0 0 1 8 2l3.78 1.38c1.09.51 2.57 1.15 3.64 1.7l3.49 2c1 .67 2.34 1.51 3.3 2.21l3.12 2.44c.87.79 2.07 1.82 2.91 2.66l2.69 2.86c.74.92 1.76 2.12 2.47 3.07l2.22 3.24c.59 1 1.42 2.37 2 3.41l1.69 3.57c.43 1.12 1 2.59 1.41 3.72l1.12 3.84c.24 1.19.61 2.76.81 4l.48 4.06c0 1.25.16 2.91.15 4.15 0 0-1.35.06-4 .08.14-1.15.32-2.69.46-3.84C103.14 16.52 67.31-6.5 43.7 10.51c-8.22 5.83-16.32 17.64-8.44 40.25-10.2-.07-19.39-.16-25.9-.25-6-.08-8.89-.15-8.89-.2l.2-4.15c.16-1.21.32-2.84.53-4l.85-4c.35-1.15.77-2.7 1.17-3.83l1.45-3.69c.53-1.07 1.18-2.51 1.74-3.55l2-3.39c.68-1 1.55-2.28 2.26-3.22l2.5-3c.82-.86 1.88-2 2.73-2.84L18.86 12c.94-.72 2.17-1.72 3.14-2.4l3.38-2.18c1-.57 2.43-1.38 3.51-1.91l3.66-1.65c1.14-.41 2.65-1 3.81-1.37l3.88-1.09c1.22-.23 2.85-.6 4.08-.79l4.06-.46c1.3 0 3-.15 4.34-.15l4.18.19c1.27.16 3 .29 4.25.53"/><path fill="#949494" d="M23.38 50.24c23.79.07 56.1.29 72.15.51.17-28-19-50.68-42.79-50.75l-4.16.14c-1.28.14-3 .28-4.26.47l-4 .78c-1.19.33-2.79.72-4 1.1L32.5 3.86c-1.12.49-2.58 1.14-3.66 1.65l-3.46 1.91c-1 .65-2.36 1.48-3.33 2.17L18.86 12c-.89.78-2.1 1.8-2.95 2.62l-2.73 2.83c-.75.91-1.78 2.09-2.5 3l-2.3 3.25c-.6 1-1.45 2.35-2 3.39l-1.74 3.54c-.43 1.11-1.06 2.58-1.45 3.7l-1.17 3.83c-.25 1.18-.64 2.75-.85 4l-.53 4c-.06 1.25-.19 2.91-.2 4.15 0-.08 8-.11 22.92-.07M.5 51v-.7.66"/><path fill="#949494" d="M61.18.72a50 50 0 0 1 8 2l3.78 1.38c1.09.51 2.57 1.15 3.64 1.7l3.49 2c1 .67 2.34 1.51 3.3 2.21l3.12 2.44c.87.79 2.07 1.82 2.91 2.66l2.69 2.86c.74.92 1.76 2.12 2.47 3.07l2.22 3.24c.59 1 1.42 2.37 2 3.41l1.69 3.57c.43 1.12 1 2.59 1.41 3.72l1.12 3.84c.24 1.19.61 2.76.81 4l.48 4.06c0 1.25.16 2.91.15 4.15 0 0-1.06.05-3.11.07.12-1.16.26-2.7.38-3.86 1.47-33.89-38.86-56.27-62.55-34.7-13.94 12.69-7.84 32-5.83 38.3-9.43-.08-17.87-.16-24-.24s-8.89-.15-8.89-.2l.2-4.15c.16-1.21.32-2.84.53-4l.85-4c.35-1.15.77-2.7 1.17-3.83l1.45-3.69c.53-1.07 1.18-2.51 1.74-3.55l2-3.39c.68-1 1.55-2.28 2.26-3.22l2.5-3c.82-.86 1.88-2 2.73-2.84L18.86 12c.94-.72 2.17-1.72 3.14-2.4l3.38-2.18c1-.57 2.43-1.38 3.51-1.91l3.66-1.65c1.14-.41 2.65-1 3.81-1.37l3.88-1.09c1.22-.23 2.85-.6 4.08-.79l4.06-.46c1.3 0 3-.15 4.34-.15l4.18.19c1.27.16 3 .29 4.25.53"/><path fill="#909090" d="M23.38 50.24c23.79.07 56.1.29 72.15.51.17-28-19-50.68-42.79-50.75l-4.16.14c-1.28.14-3 .28-4.26.47l-4 .78c-1.19.33-2.79.72-4 1.1L32.5 3.86c-1.12.49-2.58 1.14-3.66 1.65l-3.46 1.91c-1 .65-2.36 1.48-3.33 2.17L18.86 12c-.89.78-2.1 1.8-2.95 2.62l-2.73 2.83c-.75.91-1.78 2.09-2.5 3l-2.3 3.25c-.6 1-1.45 2.35-2 3.39l-1.74 3.54c-.43 1.11-1.06 2.58-1.45 3.7l-1.17 3.83c-.25 1.18-.64 2.75-.85 4l-.53 4c-.06 1.25-.19 2.91-.2 4.15 0-.08 8-.11 22.92-.07M.5 51v-.7.66"/><path fill="#909090" d="M61.18.72a50 50 0 0 1 8 2l3.78 1.38c1.09.51 2.57 1.15 3.64 1.7l3.49 2c1 .67 2.34 1.51 3.3 2.21l3.12 2.44c.87.79 2.07 1.82 2.91 2.66l2.69 2.86c.74.92 1.76 2.12 2.47 3.07l2.22 3.24c.59 1 1.42 2.37 2 3.41l1.69 3.57c.43 1.12 1 2.59 1.41 3.72l1.12 3.84c.24 1.19.61 2.76.81 4l.48 4.06c0 1.25.16 2.91.15 4.15q-1.169.09-2.34.06c.08-1.16.2-2.71.28-3.88.75-35.5-41.44-57.79-65.42-34.56-13.16 12.62-7.85 30.46-5.6 38.08-8.65-.07-16.36-.14-22-.22-6-.08-8.89-.15-8.89-.2l.2-4.15c.16-1.21.32-2.84.53-4l.85-4c.35-1.15.77-2.7 1.17-3.83l1.45-3.69c.53-1.07 1.18-2.51 1.74-3.55l2-3.39c.68-1 1.55-2.28 2.26-3.22l2.5-3c.82-.86 1.88-2 2.73-2.84L18.86 12c.94-.72 2.17-1.72 3.14-2.4l3.38-2.18c1-.57 2.43-1.38 3.51-1.91l3.66-1.65c1.14-.41 2.65-1 3.81-1.37l3.88-1.09c1.22-.23 2.85-.6 4.08-.79l4.06-.46c1.3 0 3-.15 4.34-.15l4.18.19c1.27.16 3 .29 4.25.53"/><path fill="#8c8c8c" d="M23.38 50.24c23.79.07 56.1.29 72.15.51.17-28-19-50.68-42.79-50.75l-4.16.14c-1.28.14-3 .28-4.26.47l-4 .78c-1.19.33-2.79.72-4 1.1L32.5 3.86c-1.12.49-2.58 1.14-3.66 1.65l-3.46 1.91c-1 .65-2.36 1.48-3.33 2.17L18.86 12c-.89.78-2.1 1.8-2.95 2.62l-2.73 2.83c-.75.91-1.78 2.09-2.5 3l-2.3 3.25c-.6 1-1.45 2.35-2 3.39l-1.74 3.54c-.43 1.11-1.06 2.58-1.45 3.7l-1.17 3.83c-.25 1.18-.64 2.75-.85 4l-.53 4c-.06 1.25-.19 2.91-.2 4.15 0-.08 8-.11 22.92-.07M.5 51v-.7.66"/><path fill="#8c8c8c" d="M61.18.72a50 50 0 0 1 8 2l3.78 1.38c1.09.51 2.57 1.15 3.64 1.7l3.49 2c1 .67 2.34 1.51 3.3 2.21l3.12 2.44c.87.79 2.07 1.82 2.91 2.66l2.69 2.86c.74.92 1.76 2.12 2.47 3.07l2.22 3.24c.59 1 1.42 2.37 2 3.41l1.69 3.57c.43 1.12 1 2.59 1.41 3.72l1.12 3.84c.24 1.19.61 2.76.81 4l.48 4.06c0 1.25.16 2.91.15 4.15 0 0-.57 0-1.68.06l.2-3.9c.07-36.71-43.83-58.93-68.09-34.46-8.77 8.85-10.64 21.66-5.56 38.08-7.8-.07-14.73-.14-19.94-.21-6-.08-8.89-.15-8.89-.2l.2-4.15c.16-1.21.32-2.84.53-4l.85-4c.35-1.15.77-2.7 1.17-3.83l1.45-3.69c.53-1.07 1.18-2.51 1.74-3.55l2-3.39c.68-1 1.55-2.28 2.26-3.22l2.5-3c.82-.86 1.88-2 2.73-2.84L18.86 12c.94-.72 2.17-1.72 3.14-2.4l3.38-2.18c1-.57 2.43-1.38 3.51-1.91l3.66-1.65c1.14-.41 2.65-1 3.81-1.37l3.88-1.09c1.22-.23 2.85-.6 4.08-.79l4.06-.46c1.3 0 3-.15 4.34-.15l4.18.19c1.27.16 3 .29 4.25.53"/><path fill="#888" d="M23.38 50.24c23.79.07 56.1.29 72.15.51.17-28-19-50.68-42.79-50.75l-4.16.14c-1.28.14-3 .28-4.26.47l-4 .78c-1.19.33-2.79.72-4 1.1L32.5 3.86c-1.12.49-2.58 1.14-3.66 1.65l-3.46 1.91c-1 .65-2.36 1.48-3.33 2.17L18.86 12c-.89.78-2.1 1.8-2.95 2.62l-2.73 2.83c-.75.91-1.78 2.09-2.5 3l-2.3 3.25c-.6 1-1.45 2.35-2 3.39l-1.74 3.54c-.43 1.11-1.06 2.58-1.45 3.7l-1.17 3.83c-.25 1.18-.64 2.75-.85 4l-.53 4c-.06 1.25-.19 2.91-.2 4.15 0-.08 8-.11 22.92-.07M.5 51v-.7.66"/><path fill="#888" d="M61.18.72a50 50 0 0 1 8 2l3.78 1.38c1.09.51 2.57 1.15 3.64 1.7l3.49 2c1 .67 2.34 1.51 3.3 2.21l3.12 2.44c.87.79 2.07 1.82 2.91 2.66l2.69 2.86c.74.92 1.76 2.12 2.47 3.07l2.22 3.24c.59 1 1.42 2.37 2 3.41l1.69 3.57c.43 1.12 1 2.59 1.41 3.72l1.12 3.84c.24 1.19.61 2.76.81 4l.48 4.06c0 1.25.16 2.91.15 4.15a7.4 7.4 0 0 1-1.12.05c0-1.17.1-2.73.14-3.9-.62-37.68-46.14-59.86-70.59-34.4-12.71 13.24-7.61 31.23-5.69 38-6.93-.06-13.08-.13-17.81-.19-6-.08-8.89-.15-8.89-.2l.2-4.15c.16-1.21.32-2.84.53-4l.85-4c.35-1.15.77-2.7 1.17-3.83l1.45-3.69c.53-1.07 1.18-2.51 1.74-3.55l2-3.39c.68-1 1.55-2.28 2.26-3.22l2.5-3c.82-.86 1.88-2 2.73-2.84L18.86 12c.94-.72 2.17-1.72 3.14-2.4l3.38-2.18c1-.57 2.43-1.38 3.51-1.91l3.66-1.65c1.14-.41 2.65-1 3.81-1.37l3.88-1.09c1.22-.23 2.85-.6 4.08-.79l4.06-.46c1.3 0 3-.15 4.34-.15l4.18.19c1.27.16 3 .29 4.25.53"/><path fill="#848484" d="M23.38 50.24c23.79.07 56.1.29 72.15.51.17-28-19-50.68-42.79-50.75l-4.16.14c-1.28.14-3 .28-4.26.47l-4 .78c-1.19.33-2.79.72-4 1.1L32.5 3.86c-1.12.49-2.58 1.14-3.66 1.65l-3.46 1.91c-1 .65-2.36 1.48-3.33 2.17L18.86 12c-.89.78-2.1 1.8-2.95 2.62l-2.73 2.83c-.75.91-1.78 2.09-2.5 3l-2.3 3.25c-.6 1-1.45 2.35-2 3.39l-1.74 3.54c-.43 1.11-1.06 2.58-1.45 3.7l-1.17 3.83c-.25 1.18-.64 2.75-.85 4l-.53 4c-.06 1.25-.19 2.91-.2 4.15 0-.08 8-.11 22.92-.07M.5 51v-.7.66"/><path fill="#848484" d="M61.18.72a50 50 0 0 1 8 2l3.78 1.38c1.09.51 2.57 1.15 3.64 1.7l3.49 2c1 .67 2.34 1.51 3.3 2.21l3.12 2.44c.87.79 2.07 1.82 2.91 2.66l2.69 2.86c.74.92 1.76 2.12 2.47 3.07l2.22 3.24c.59 1 1.42 2.37 2 3.41l1.69 3.57c.43 1.12 1 2.59 1.41 3.72l1.12 3.84c.24 1.19.61 2.76.81 4l.48 4.06c0 1.25.16 2.91.15 4.15a3 3 0 0 1-.65 0c0-1.18 0-2.75.06-3.92-1.49-38.53-48.49-60.66-72.93-34.37C18.52 26.09 23.3 44 25.09 50.68c-6.08-.06-11.48-.11-15.73-.17-6-.08-8.89-.15-8.89-.2l.2-4.15c.16-1.21.32-2.84.53-4l.85-4c.35-1.15.77-2.7 1.17-3.83l1.45-3.69c.53-1.07 1.18-2.51 1.74-3.55l2-3.39c.68-1 1.55-2.28 2.26-3.22l2.5-3c.82-.86 1.88-2 2.73-2.84L18.86 12c.94-.72 2.17-1.72 3.14-2.4l3.38-2.18c1-.57 2.43-1.38 3.51-1.91l3.66-1.65c1.14-.41 2.65-1 3.81-1.37l3.88-1.09c1.22-.23 2.85-.6 4.08-.79l4.06-.46c1.3 0 3-.15 4.34-.15l4.18.19c1.27.16 3 .29 4.25.53"/><path fill="gray" d="M23.38 50.24c23.79.07 56.1.29 72.15.51.17-28-19-50.68-42.79-50.75l-4.16.14c-1.28.14-3 .28-4.26.47l-4 .78c-1.19.33-2.79.72-4 1.1L32.5 3.86c-1.12.49-2.58 1.14-3.66 1.65l-3.46 1.91c-1 .65-2.36 1.48-3.33 2.17L18.86 12c-.89.78-2.1 1.8-2.95 2.62l-2.73 2.83c-.75.91-1.78 2.09-2.5 3l-2.3 3.25c-.6 1-1.45 2.35-2 3.39l-1.74 3.54c-.43 1.11-1.06 2.58-1.45 3.7l-1.17 3.83c-.25 1.18-.64 2.75-.85 4l-.53 4c-.06 1.25-.19 2.91-.2 4.15 0-.08 8-.11 22.92-.07M.5 51v-.7.66m101.37-16.03a49 49 0 0 1 1.93 7.8l.48 4.06c0 1.25.16 2.91.15 4.15a1.3 1.3 0 0 1-.31 0v-2.62a44.8 44.8 0 0 0-3-15.44c.22.6.53 1.41.72 2"/><path fill="gray" d="M61.18.72a50 50 0 0 1 8 2l3.78 1.38c1.09.51 2.57 1.15 3.64 1.7l3.49 2 .17.11-3.15-1.84C49.19-8.15 11.84 8.51 22.84 50.66l-13.46-.15c-6-.08-8.89-.15-8.89-.2l.2-4.15c.16-1.21.32-2.84.53-4l.85-4c.35-1.15.77-2.7 1.17-3.83l1.45-3.69c.53-1.07 1.18-2.51 1.74-3.55l2-3.39c.68-1 1.55-2.28 2.26-3.22l2.5-3c.82-.86 1.88-2 2.73-2.84L18.86 12c.94-.72 2.17-1.72 3.14-2.4l3.38-2.18c1-.57 2.43-1.38 3.51-1.91l3.66-1.65c1.14-.41 2.65-1 3.81-1.37l3.88-1.09c1.22-.23 2.85-.6 4.08-.79l4.06-.46c1.3 0 3-.15 4.34-.15l4.18.19c1.27.16 3 .29 4.25.53"/><path fill="#7c7c7c" d="M23.38 50.24c23.79.07 56.1.29 72.15.51.17-28-19-50.68-42.79-50.75l-4.16.14c-1.28.14-3 .28-4.26.47l-4 .78c-1.19.33-2.79.72-4 1.1L32.5 3.86c-1.12.49-2.58 1.14-3.66 1.65l-3.46 1.91c-1 .65-2.36 1.48-3.33 2.17L18.86 12c-.89.78-2.1 1.8-2.95 2.62l-2.73 2.83c-.75.91-1.78 2.09-2.5 3l-2.3 3.25c-.6 1-1.45 2.35-2 3.39l-1.74 3.54c-.43 1.11-1.06 2.58-1.45 3.7l-1.17 3.83c-.25 1.18-.64 2.75-.85 4l-.53 4c-.06 1.25-.19 2.91-.2 4.15 0-.08 8-.11 22.92-.07M.5 51v-.7.66m103.3-8.23a51 51 0 0 1 .63 8.21h-.08c0-1.18 0-2.75-.07-3.93-.1-1.36-.35-3.16-.52-4.51v.21"/><path fill="#7c7c7c" d="M61.18.72a50 50 0 0 1 8 2l1.83.65-2.68-.91C43.18-5 11.38 10.4 20.62 50.64l-11.24-.13c-6-.08-8.89-.15-8.89-.2l.2-4.15c.16-1.21.32-2.84.53-4l.85-4c.35-1.15.77-2.7 1.17-3.83l1.45-3.69c.53-1.07 1.18-2.51 1.74-3.55l2-3.39c.68-1 1.55-2.28 2.26-3.22l2.5-3c.82-.86 1.88-2 2.73-2.84L18.86 12c.94-.72 2.17-1.72 3.14-2.4l3.38-2.18c1-.57 2.43-1.38 3.51-1.91l3.66-1.65c1.14-.41 2.65-1 3.81-1.37l3.88-1.09c1.22-.23 2.85-.6 4.08-.79l4.06-.46c1.3 0 3-.15 4.34-.15l4.18.19c1.27.16 3 .29 4.25.53"/><path fill="#777" d="M23.38 50.24c23.79.07 56.1.29 72.15.51.17-28-19-50.68-42.79-50.75l-4.16.14c-1.28.14-3 .28-4.26.47l-4 .78c-1.19.33-2.79.72-4 1.1L32.5 3.86c-1.12.49-2.58 1.14-3.66 1.65l-3.46 1.91c-1 .65-2.36 1.48-3.33 2.17L18.86 12c-.89.78-2.1 1.8-2.95 2.62l-2.73 2.83c-.75.91-1.78 2.09-2.5 3l-2.3 3.25c-.6 1-1.45 2.35-2 3.39l-1.74 3.54c-.43 1.11-1.06 2.58-1.45 3.7l-1.17 3.83c-.25 1.18-.64 2.75-.85 4l-.53 4c-.06 1.25-.19 2.91-.2 4.15 0-.08 8-.11 22.92-.07M.5 51v-.7.66"/><path fill="#777" d="m61.18.72 1.35.28-1.5-.3c-26.89-4-51 15.55-42.69 49.91l-9-.1c-6-.08-8.89-.15-8.89-.2l.2-4.15c.16-1.21.32-2.84.53-4l.85-4c.35-1.15.77-2.7 1.17-3.83l1.45-3.69c.53-1.07 1.18-2.51 1.74-3.55l2-3.39c.68-1 1.55-2.28 2.26-3.22l2.5-3c.82-.86 1.88-2 2.73-2.84L18.86 12c.94-.72 2.17-1.72 3.14-2.4l3.38-2.18c1-.57 2.43-1.38 3.51-1.91l3.66-1.65c1.14-.41 2.65-1 3.81-1.37l3.88-1.09c1.22-.23 2.85-.6 4.08-.79l4.06-.46c1.3 0 3-.15 4.34-.15l4.18.19c1.27.16 3 .31 4.25.53"/><path fill="#737373" d="M23.38 50.24c23.79.07 56.1.29 72.15.51.17-28-19-50.68-42.79-50.75l-4.16.14c-1.28.14-3 .28-4.26.47l-4 .78c-1.19.33-2.79.72-4 1.1L32.5 3.86c-1.12.49-2.58 1.14-3.66 1.65l-3.46 1.91c-1 .65-2.36 1.48-3.33 2.17L18.86 12c-.89.78-2.1 1.8-2.95 2.62l-2.73 2.83c-.75.91-1.78 2.09-2.5 3l-2.3 3.25c-.6 1-1.45 2.35-2 3.39l-1.74 3.54c-.43 1.11-1.06 2.58-1.45 3.7l-1.17 3.83c-.25 1.18-.64 2.75-.85 4l-.53 4c-.06 1.25-.19 2.91-.2 4.15 0-.08 8-.11 22.92-.07M.5 51v-.7.66"/><path fill="#737373" d="M52.68 0c-13 .06-45 9.26-36.86 50.59l-6.44-.08c-6-.08-8.89-.15-8.89-.2l.2-4.15c.16-1.21.32-2.84.53-4l.85-4c.35-1.15.77-2.7 1.17-3.83l1.45-3.69c.53-1.07 1.18-2.51 1.74-3.55l2-3.39c.68-1 1.55-2.28 2.26-3.22l2.5-3c.82-.86 1.88-2 2.73-2.84L18.86 12c.94-.72 2.17-1.72 3.14-2.4l3.38-2.18c1-.57 2.43-1.38 3.51-1.91l3.66-1.65c1.14-.41 2.65-1 3.81-1.37l3.88-1.09c1.22-.23 2.85-.6 4.08-.79l4.06-.46c1.3 0 3-.15 4.34-.15z"/><path fill="#6f6f6f" d="M23.38 50.24c23.79.07 56.1.29 72.15.51.15-22.92-12.7-42.32-30.45-48.61A47.9 47.9 0 0 0 45.7.42c-1.64.23-3.8.66-5.42 1-1.19.33-2.79.72-4 1.1L32.5 3.86c-1.12.49-2.58 1.14-3.66 1.65l-3.46 1.91c-1 .65-2.36 1.48-3.33 2.17L18.86 12c-.89.78-2.1 1.8-2.95 2.62l-2.73 2.83c-.75.91-1.78 2.09-2.5 3l-2.3 3.25c-.6 1-1.45 2.35-2 3.39l-1.74 3.54c-.43 1.11-1.06 2.58-1.45 3.7l-1.17 3.83c-.25 1.18-.64 2.75-.85 4l-.53 4c-.06 1.25-.19 2.91-.2 4.15 0-.08 8-.11 22.92-.07M.5 51v-.7.66"/><path fill="#6f6f6f" d="M9.38 50.51c-6-.08-8.89-.15-8.89-.2l.2-4.15c.16-1.21.32-2.84.53-4l.85-4c.35-1.15.77-2.7 1.17-3.83l1.45-3.69c.53-1.07 1.18-2.51 1.74-3.55l2-3.39c.68-1 1.55-2.28 2.26-3.22l2.5-3c.82-.86 1.88-2 2.73-2.84L18.86 12c.94-.72 2.17-1.72 3.14-2.4l3.38-2.18c1-.57 2.43-1.38 3.51-1.91l3.66-1.65c1.14-.41 2.65-1 3.81-1.37l3.88-1.09c1.22-.23 2.85-.6 4.08-.79L45.7.42l-1 .14C25.04 3.89 6.79 21 13.22 50.56z"/><path fill="#6b6b6b" d="M23.38 50.24c23.79.07 56.1.29 72.15.51.1-17.53-7.39-33-18.85-42.12C62.38.51 48.69-1.51 35.9 2.62L32.1 4l-3.26 1.51-3.46 1.91c-1 .65-2.36 1.48-3.33 2.17L18.86 12c-.89.78-2.1 1.8-2.95 2.62l-2.73 2.83c-.75.91-1.78 2.09-2.5 3l-2.3 3.25c-.6 1-1.45 2.35-2 3.39l-1.74 3.54c-.43 1.11-1.06 2.58-1.45 3.7l-1.17 3.83c-.25 1.18-.64 2.75-.85 4l-.53 4c-.06 1.25-.19 2.91-.2 4.15 0-.08 8-.11 22.92-.07M.5 51v-.7.66"/><path fill="#6b6b6b" d="M9.38 50.51c-6-.08-8.89-.15-8.89-.2l.2-4.15c.16-1.21.32-2.84.53-4l.85-4c.35-1.15.77-2.7 1.17-3.83l1.45-3.69c.53-1.07 1.18-2.51 1.74-3.55l2-3.39c.68-1 1.55-2.28 2.26-3.22l2.5-3c.82-.86 1.88-2 2.73-2.84L18.86 12c.94-.72 2.17-1.72 3.14-2.4l3.38-2.18c1-.57 2.43-1.38 3.51-1.91l3.66-1.65 3.4-1.24-1.46.51C20.58 8.44 14.97 18.69 14.38 19.84 7.6 33 8.55 40 9.99 50.52h-.61"/><path fill="#d8d8d8" d="M79.94 46.13c-.66 1.57-1.41 4-2.89 4.87-7 0-14.68-.06-22.3-.1l-2.26-3.43c-4.22-6.33-2.78-12.17-.27-15.23 5.87-7.18 12.68-7 17.36-5.66 5.56 1.65 14.63 9.3 10.36 19.55"/><path fill="#dadada" d="M78.81 46.13c-.09.2-2.88 4.84-2.93 4.87l-20.16-.1-2.34-3.36C45.47 36.38 56.23 23.4 69.8 27.7c1 .32 6.68 4.61 6.72 4.65s2.74 4.25 2.83 4.44c.46.93 1.85 3.77-.54 9.34"/><path fill="#dbdbdb" d="M78.19 44.6a13.1 13.1 0 0 1-3.5 6.4l-18-.08-2.44-3.3c-4.54-6.07-2.58-10.91-2.56-11 2-4.28 2.16-4.54 6-7.44l6.07-1.63a16 16 0 0 1 6.22 1.1 15.4 15.4 0 0 1 5.33 3.66c4.66 5.49 3.87 8.47 2.87 12.25"/><path fill="#dcdcdc" d="M77.98 41.72a24.7 24.7 0 0 1-1 4.4c-.78 1.61-1.85 4.06-3.44 4.87l-15.85-.08-2.52-3.23c-4.82-6.11-2.77-10.82-2.68-11 1.89-4.18 3.5-5.38 5.25-6.68 1.54-1.12 4.22-1.57 6.12-1.64a17.9 17.9 0 0 1 6.29 1.22 14 14 0 0 1 4 2.73 12.26 12.26 0 0 1 3.86 9.38"/><path fill="#dedede" d="M76.07 46.12c-.82 1.66-2.11 4.06-3.77 4.86l-13.16-.06-1-.5c-4-5-6.46-8.06-4.91-13.75a17.1 17.1 0 0 1 4.57-5.82 12.47 12.47 0 0 1 6.16-1.76 12.77 12.77 0 0 1 6.36 1.45c2.84 1.77 2.84 1.77 6 6.24 1.58 2.21.9 7-.25 9.34"/><path fill="#dfdfdf" d="M75.18 46.12A11.1 11.1 0 0 1 70.25 51h-9.13c-3.07-1.58-3.07-1.58-5.74-5a11.7 11.7 0 0 1-1.91-4.75c-.81-4.75 3.94-9.36 4.37-9.6a13.5 13.5 0 0 1 6.21-1.88s5.31.76 7.65 2.54c1.39 1.07 3.29 2.77 3.79 4.44 1.22 4.13 1.22 4.13 0 8.38a5.4 5.4 0 0 1-.29 1"/><path fill="#e0e0e0" d="M74.3 46.12c-1.43 2.65-1.43 2.65-6.65 4.84h-4.56l-3.6-1.77c-4.25-2.07-5.34-7.85-5.34-7.9a10.44 10.44 0 0 1 .59-4.59s2.15-3.82 3.76-4.41 3.83-1.79 5.6-1.77c.2 0 6.4 1.87 6.5 2 2.62 2.3 7.5 6.58 3.7 13.67"/><path fill="#e1e1e1" d="M73.38 46.11a5.4 5.4 0 0 1-1.59 2c-1.91 1.1-4.57 2.91-6.77 2.84s-5.24-1.8-6.92-3.39c-1.14-1.08-1.14-1.08-3.27-6.28 0 0-.43-5.05 3-7.76a11.55 11.55 0 0 1 6.29-2.29s1.68.07 6.58 2.32c3.56 1.64 4.19 7.77 4.18 7.83a11.9 11.9 0 0 1-1.5 4.73"/><path fill="#e2e2e2" d="M72.51 46.11a2.3 2.3 0 0 1-.73.89c-2 1-4.52 3.12-6.74 3.08 0 0-6.88-2.95-7.38-4-.65-1.42-2.14-3.2-2.11-4.76 0-2.13.11-5 2.36-6.79 0 0 4.51-2 6.33-2.55.37-.11.88.22 1.24.37 1.63.69 4.19 1 5.41 2.33s3.36 3.51 3.26 6.73a12 12 0 0 1-1.64 4.74"/><path fill="#e2e2e2" d="M71.75 45.76c-.42.7-6.66 3.45-6.71 3.45s-6.44-2.88-6.92-3.81c-.63-1.2-1.84-2.76-1.87-4.12 0 0 0-4.5 1.69-5.81s4.29-2.77 6.37-2.76 4.76 2 6.71 3a2.9 2.9 0 0 1 .92 1 10.3 10.3 0 0 1 1.44 4.65 10.15 10.15 0 0 1-1.6 4.4"/><path fill="#e3e3e3" d="M71.67 43.82a7.65 7.65 0 0 1-2 2.28c-1.29.88-3.12 2.27-4.68 2.25-1.12 0-6.09-3.13-6.94-4.55a6.2 6.2 0 0 1-1.15-2.51s.63-4.51 1-4.83c1.65-1.33 4.29-3 6.41-2.94a9.33 9.33 0 0 1 6.59 3.24c2.64 3.73 1.23 6.15.7 7.06"/><path fill="#e4e4e4" d="M71.56 41.9c0 .06-3.91 5.62-6.53 5.59a5.75 5.75 0 0 1-2.83-1.43c-1.35-1-3.33-2.34-4.11-3.84-1.25-2.37 1.29-5.49 1.29-5.52a8.55 8.55 0 0 1 5.06-2.36 8 8 0 0 1 4.94 2.41s2.92 3.93 2.21 5.15"/><path fill="#e5e5e5" d="M66.19 46.08a2.3 2.3 0 0 1-1.17.56 2.07 2.07 0 0 1-1.13-.57c-1.61-1.37-4.81-2.7-5.15-4.77-.26-1.55 1.4-3.45 2.47-4.59a5.25 5.25 0 0 1 3.3-1.54 5.32 5.32 0 0 1 3.21 1.57c1.12 1.16 2.92 3 2.76 4.61-.19 1.91-2.75 3.59-4.29 4.73"/><path fill="#e6e6e6" d="M65 45.56c-1.88 0-4.35-2.39-4.63-4.26-.24-1.57 1.68-3.33 2.67-4.58a2.18 2.18 0 0 1 1.53-.72 2.25 2.25 0 0 1 1.5.74c1 1.26 3.1 3 2.94 4.61s-2.27 4.16-4 4.21"/><path fill="#e6e6e6" d="M64.96 44a3.62 3.62 0 0 1-3-2.71c-.21-1.49 1.86-3 2.64-4.28.87 1.29 3 2.76 2.88 4.31A3.39 3.39 0 0 1 64.96 44"/><path fill="#e7e7e7" d="M64.92 42.49a1.58 1.58 0 0 1-1.3-1.17c-.09-.66.81-1.32 1.16-1.88.38.57 1.31 1.22 1.25 1.89a1.47 1.47 0 0 1-1.11 1.16"/></g><path fill="url(#b)" d="M0 137.65V84.69l74.67 26.67z" transform="translate(0 .413)"/><path fill="url(#c)" d="M149.33 137.65V84.69l-74.66 26.67z" transform="translate(0 .413)"/></g></svg>