<svg xmlns="http://www.w3.org/2000/svg" viewBox="0 0 107 151"><title>3-D Valve with long shaft（长轴3d阀门）</title><defs><linearGradient id="a" x1="0%" x2="100%" y1="49.995%" y2="49.995%"><stop offset="0%" stop-color="#b7b7b7"/><stop offset="3%" stop-color="#9b9d9d"/><stop offset="7%" stop-color="#878b8b"/><stop offset="9%" stop-color="#808484"/><stop offset="20%" stop-color="#a3a6a6"/><stop offset="49%" stop-color="#f6f6f6"/><stop offset="61%" stop-color="#f3f3f3"/><stop offset="70%" stop-color="#eaeaea"/><stop offset="77%" stop-color="#dbdbdb"/><stop offset="83%" stop-color="#c5c5c5"/><stop offset="90%" stop-color="#aaa"/><stop offset="95%" stop-color="#888"/><stop offset="100%" stop-color="#666"/></linearGradient><linearGradient id="b" x1="50.009%" x2="50.009%" y1="100%" y2="0%"><stop offset="0%" stop-color="#b7b7b7"/><stop offset="3%" stop-color="#9b9d9d"/><stop offset="7%" stop-color="#878b8b"/><stop offset="9%" stop-color="#808484"/><stop offset="20%" stop-color="#a3a6a6"/><stop offset="49%" stop-color="#f6f6f6"/><stop offset="61%" stop-color="#f3f3f3"/><stop offset="70%" stop-color="#eaeaea"/><stop offset="77%" stop-color="#dbdbdb"/><stop offset="83%" stop-color="#c5c5c5"/><stop offset="90%" stop-color="#aaa"/><stop offset="95%" stop-color="#888"/><stop offset="100%" stop-color="#666"/></linearGradient><linearGradient id="c" x1="50%" x2="50%" y1="100%" y2="-.024%"><stop offset="0%" stop-color="#b7b7b7"/><stop offset="3%" stop-color="#9b9d9d"/><stop offset="7%" stop-color="#878b8b"/><stop offset="9%" stop-color="#808484"/><stop offset="20%" stop-color="#a3a6a6"/><stop offset="49%" stop-color="#f6f6f6"/><stop offset="61%" stop-color="#f3f3f3"/><stop offset="70%" stop-color="#eaeaea"/><stop offset="77%" stop-color="#dbdbdb"/><stop offset="83%" stop-color="#c5c5c5"/><stop offset="90%" stop-color="#aaa"/><stop offset="95%" stop-color="#888"/><stop offset="100%" stop-color="#666"/></linearGradient></defs><g fill="none" fill-rule="nonzero"><path fill="url(#a)" d="M49.87 27.68h7.67v101.09h-7.67z" transform="translate(0 .403)"/><path fill="url(#b)" d="M0 150.01v-42.48l53.23 21.39z" transform="translate(0 .403)"/><path fill="url(#c)" d="M106.47 150.01v-42.48l-53.24 21.39z" transform="translate(0 .403)"/><path fill="#e5e5e5" d="M93.46 39.713v-.53h-6.4v.53h6.42"/><path fill="#e5e5e5" d="M87 39.713h6.42v-.53h-6.36v.53"/><path fill="#e4e4e4" d="M87 39.713h6.42v-.53h-6.36v.53"/><path fill="#e3e3e3" d="M87 39.713h6.42v-.53h-6.36v.53"/><path fill="#e2e2e2" d="M87 39.713h6.42v-.53h-6.36v.53"/><path fill="#e2e2e2" d="M87 39.713h6.42v-.53h-6.36v.53"/><path fill="#e1e1e1" d="M87 39.713h6.42v-.53h-6.36v.53"/><path fill="#e0e0e0" d="M87 39.713h6.42v-.53h-6.36v.53"/><path fill="#dfdfdf" d="M87 39.713h6.42v-.53h-6.36v.53"/><path fill="#dedede" d="M87 39.713h6.42v-.53h-6.36v.53"/><path fill="#dcdcdc" d="M87 39.713h6.42v-.53h-6.36v.53"/><path fill="#dbdbdb" d="M87 39.713h6.42v-.53h-6.36v.53"/><path fill="#dadada" d="M87 39.713h6.42v-.53h-6.36v.53"/><path fill="#d8d8d8" d="M87 39.713h6.42v-.53h-6.36v.53"/><path fill="#d6d6d6" d="M87 39.713h6.42v-.53h-6.36v.53"/><path fill="#d4d4d4" d="M87 39.713h6.42v-.53h-6.36v.53"/><path fill="#cecece" d="M87 39.713h6.42v-.53h-6.36v.53"/><path fill="#cacaca" d="M87 39.713h6.42v-.53h-6.36v.53"/><path fill="#c6c6c6" d="M87 39.713h6.42v-.53h-6.36v.53"/><path fill="#c2c2c2" d="M87 39.713h6.42v-.53h-6.36v.53"/><path fill="#bebebe" d="M87 39.713h6.42v-.53h-6.36v.53"/><path fill="#b9b9b9" d="M87 39.713h6.42v-.53h-6.36v.53"/><path fill="#b5b5b5" d="M87 39.713h6.42v-.53h-6.36v.53"/><path fill="#b1b1b1" d="M87 39.713h6.42v-.53h-6.36v.53"/><path fill="#adadad" d="M87 39.713h6.42v-.53h-6.36v.53"/><path fill="#a9a9a9" d="M87 39.713h6.42v-.53h-6.36v.53"/><path fill="#a5a5a5" d="M87 39.713h6.42v-.53h-6.36v.53"/><path fill="#a1a1a1" d="M87 39.713h6.42v-.53h-6.36v.53"/><path fill="#9d9d9d" d="M87 39.713h6.42v-.53h-6.36v.53"/><path fill="#989898" d="M87 39.713h6.42v-.53h-6.36v.53"/><path fill="#949494" d="M87 39.713h6.42v-.53h-6.36v.53"/><path fill="#909090" d="M87 39.713h6.42v-.53h-6.36v.53"/><path fill="#8c8c8c" d="M87 39.713h6.42v-.53h-6.36v.53"/><path fill="#888" d="M87 39.713h6.42v-.53h-6.36v.53"/><path fill="#848484" d="M87 39.713h6.42v-.53h-6.36v.53"/><path fill="gray" d="M87 39.713h6.42v-.53h-6.36v.53"/><path fill="#7c7c7c" d="M87 39.713h6.42v-.53h-6.36v.53"/><path fill="#777" d="M87 39.713h6.42v-.53h-6.36v.53"/><path fill="#737373" d="M87 39.713h6.42v-.53h-6.36v.53"/><path fill="#6f6f6f" d="M87 39.713h6.42v-.53h-6.36v.53"/><path fill="#6b6b6b" d="M87 39.713h6.42v-.53h-6.36v.53"/><path fill="#e5e5e5" d="M93.49 39.183a37.3 37.3 0 0 0-1.99-12.29 38 38 0 0 0-2.5-5.49c-.91-1.56-2.2-3.59-3.23-5.08a39.9 39.9 0 0 0-8.62-8.39A38.6 38.6 0 0 0 72 4.743a40 40 0 0 0-5.73-2.34 39 39 0 0 0-6.12-1.48c-1.93-.23-4.52-.43-6.46-.52 18.43 0 33.37 17.37 33.37 38.78z"/><path fill="#e5e5e5" d="M87.06 39.183h6.43a37.3 37.3 0 0 0-1.99-12.29 38 38 0 0 0-2.5-5.49c-.91-1.56-2.2-3.59-3.23-5.08a39.9 39.9 0 0 0-8.62-8.39A38.6 38.6 0 0 0 72 4.743a40 40 0 0 0-5.73-2.34 39 39 0 0 0-6.12-1.48c-1.93-.23-4.52-.43-6.46-.52 18.43 0 33.37 17.37 33.37 38.78"/><path fill="#e4e4e4" d="M87.06 39.183h6.43a37.3 37.3 0 0 0-1.99-12.29 38 38 0 0 0-2.5-5.49c-.91-1.56-2.2-3.59-3.23-5.08a39.9 39.9 0 0 0-8.62-8.39A38.6 38.6 0 0 0 72 4.743a40 40 0 0 0-5.73-2.34 39 39 0 0 0-6.12-1.48c-1.93-.23-4.52-.43-6.46-.52 18.43 0 33.37 17.37 33.37 38.78"/><path fill="#e3e3e3" d="M87.06 39.183h6.43a37.3 37.3 0 0 0-1.99-12.29 38 38 0 0 0-2.5-5.49c-.91-1.56-2.2-3.59-3.23-5.08a39.9 39.9 0 0 0-8.62-8.39A38.6 38.6 0 0 0 72 4.743a40 40 0 0 0-5.73-2.34 39 39 0 0 0-6.12-1.48c-1.93-.23-4.52-.43-6.46-.52 18.43 0 33.37 17.37 33.37 38.78"/><path fill="#e2e2e2" d="M87.06 39.183h6.43a37.3 37.3 0 0 0-1.99-12.29 38 38 0 0 0-2.5-5.49c-.91-1.56-2.2-3.59-3.23-5.08a39.9 39.9 0 0 0-8.62-8.39A38.6 38.6 0 0 0 72 4.743a40 40 0 0 0-5.73-2.34 39 39 0 0 0-6.12-1.48c-1.93-.23-4.52-.43-6.46-.52 18.43 0 33.37 17.37 33.37 38.78"/><path fill="#e2e2e2" d="M87.06 39.183h6.43a37.3 37.3 0 0 0-1.99-12.29 38 38 0 0 0-2.5-5.49c-.91-1.56-2.2-3.59-3.23-5.08a39.9 39.9 0 0 0-8.62-8.39A38.6 38.6 0 0 0 72 4.743a40 40 0 0 0-5.73-2.34 39 39 0 0 0-6.12-1.48c-1.93-.23-4.52-.43-6.46-.52 18.43 0 33.37 17.37 33.37 38.78"/><path fill="#e1e1e1" d="M87.06 39.183h6.43a37.3 37.3 0 0 0-1.99-12.29 38 38 0 0 0-2.5-5.49c-.91-1.56-2.2-3.59-3.23-5.08a39.9 39.9 0 0 0-8.62-8.39A38.6 38.6 0 0 0 72 4.743a40 40 0 0 0-5.73-2.34 39 39 0 0 0-6.12-1.48c-1.93-.23-4.52-.43-6.46-.52 18.43 0 33.37 17.37 33.37 38.78"/><path fill="#e0e0e0" d="M87.06 39.183h6.43a37.3 37.3 0 0 0-1.99-12.29 38 38 0 0 0-2.5-5.49c-.91-1.56-2.2-3.59-3.23-5.08a39.9 39.9 0 0 0-8.62-8.39A38.6 38.6 0 0 0 72 4.743a40 40 0 0 0-5.73-2.34 39 39 0 0 0-6.12-1.48c-1.93-.23-4.52-.43-6.46-.52 18.43 0 33.37 17.37 33.37 38.78"/><path fill="#dfdfdf" d="M87.06 39.183h6.43a37.3 37.3 0 0 0-1.99-12.29 38 38 0 0 0-2.5-5.49c-.91-1.56-2.2-3.59-3.23-5.08a39.9 39.9 0 0 0-8.62-8.39A38.6 38.6 0 0 0 72 4.743a40 40 0 0 0-5.73-2.34 39 39 0 0 0-6.12-1.48c-1.93-.23-4.52-.43-6.46-.52 18.43 0 33.37 17.37 33.37 38.78"/><path fill="#dedede" d="M87.06 39.183h6.43a37.3 37.3 0 0 0-1.99-12.29 38 38 0 0 0-2.5-5.49c-.91-1.56-2.2-3.59-3.23-5.08a39.9 39.9 0 0 0-8.62-8.39A38.6 38.6 0 0 0 72 4.743a40 40 0 0 0-5.73-2.34 39 39 0 0 0-6.12-1.48c-1.93-.23-4.52-.43-6.46-.52 18.43 0 33.37 17.37 33.37 38.78"/><path fill="#dcdcdc" d="M87.06 39.183h6.43a37.3 37.3 0 0 0-1.99-12.29 38 38 0 0 0-2.5-5.49c-.91-1.56-2.2-3.59-3.23-5.08a39.9 39.9 0 0 0-8.62-8.39A38.6 38.6 0 0 0 72 4.743a40 40 0 0 0-5.73-2.34 39 39 0 0 0-6.12-1.48c-1.93-.23-4.52-.43-6.46-.52 18.43 0 33.37 17.37 33.37 38.78"/><path fill="#dbdbdb" d="M87.06 39.183h6.43a37.3 37.3 0 0 0-1.99-12.29 38 38 0 0 0-2.5-5.49c-.91-1.56-2.2-3.59-3.23-5.08a39.9 39.9 0 0 0-8.62-8.39A38.6 38.6 0 0 0 72 4.743a40 40 0 0 0-5.73-2.34 39 39 0 0 0-6.12-1.48c-1.93-.23-4.52-.43-6.46-.52 18.43 0 33.37 17.37 33.37 38.78"/><path fill="#dadada" d="M87.06 39.183h6.43a37.3 37.3 0 0 0-1.99-12.29 38 38 0 0 0-2.5-5.49c-.91-1.56-2.2-3.59-3.23-5.08a39.9 39.9 0 0 0-8.62-8.39A38.6 38.6 0 0 0 72 4.743a40 40 0 0 0-5.73-2.34 39 39 0 0 0-6.12-1.48c-1.93-.23-4.52-.43-6.46-.52 18.43 0 33.37 17.37 33.37 38.78"/><path fill="#d8d8d8" d="M87.06 39.183h6.43a37.3 37.3 0 0 0-1.99-12.29 38 38 0 0 0-2.5-5.49c-.91-1.56-2.2-3.59-3.23-5.08a39.9 39.9 0 0 0-8.62-8.39A38.6 38.6 0 0 0 72 4.743a40 40 0 0 0-5.73-2.34 39 39 0 0 0-6.12-1.48c-1.93-.23-4.52-.43-6.46-.52 18.43 0 33.37 17.37 33.37 38.78"/><path fill="#d6d6d6" d="M87.06 39.183h6.43a37.3 37.3 0 0 0-1.99-12.29 38 38 0 0 0-2.5-5.49c-.91-1.56-2.2-3.59-3.23-5.08a39.9 39.9 0 0 0-8.62-8.39A38.6 38.6 0 0 0 72 4.743a40 40 0 0 0-5.73-2.34 39 39 0 0 0-6.12-1.48c-1.93-.23-4.52-.43-6.46-.52 18.43 0 33.37 17.37 33.37 38.78"/><path fill="#d4d4d4" d="M87.06 39.183h6.43a37.3 37.3 0 0 0-1.99-12.29 38 38 0 0 0-2.5-5.49c-.91-1.56-2.2-3.59-3.23-5.08a39.9 39.9 0 0 0-8.62-8.39A38.6 38.6 0 0 0 72 4.743a40 40 0 0 0-5.73-2.34 39 39 0 0 0-6.12-1.48c-1.93-.23-4.52-.43-6.46-.52 18.43 0 33.37 17.37 33.37 38.78"/><path fill="#cecece" d="M87.06 39.183h6.43a37.3 37.3 0 0 0-1.99-12.29 38 38 0 0 0-2.5-5.49c-.91-1.56-2.2-3.59-3.23-5.08a39.9 39.9 0 0 0-8.62-8.39A38.6 38.6 0 0 0 72 4.743a40 40 0 0 0-5.73-2.34 39 39 0 0 0-6.12-1.48c-1.93-.23-4.52-.43-6.46-.52 18.43 0 33.37 17.37 33.37 38.78"/><path fill="#cacaca" d="M87.06 39.183h6.43a37.3 37.3 0 0 0-1.99-12.29 38 38 0 0 0-2.5-5.49c-.91-1.56-2.2-3.59-3.23-5.08a39.9 39.9 0 0 0-8.62-8.39A38.6 38.6 0 0 0 72 4.743a40 40 0 0 0-5.73-2.34 39 39 0 0 0-6.12-1.48c-1.93-.23-4.52-.43-6.46-.52 18.43 0 33.37 17.37 33.37 38.78"/><path fill="#c6c6c6" d="M87.06 39.183h6.43a37.3 37.3 0 0 0-1.99-12.29 38 38 0 0 0-2.5-5.49c-.91-1.56-2.2-3.59-3.23-5.08a39.9 39.9 0 0 0-8.62-8.39A38.6 38.6 0 0 0 72 4.743a40 40 0 0 0-5.73-2.34 39 39 0 0 0-6.12-1.48c-1.93-.23-4.52-.43-6.46-.52 18.43 0 33.37 17.37 33.37 38.78"/><path fill="#c2c2c2" d="M87.06 39.183h6.43a37.3 37.3 0 0 0-1.99-12.29 38 38 0 0 0-2.5-5.49c-.91-1.56-2.2-3.59-3.23-5.08a39.9 39.9 0 0 0-8.62-8.39A38.6 38.6 0 0 0 72 4.743a40 40 0 0 0-5.73-2.34 39 39 0 0 0-6.12-1.48c-1.93-.23-4.52-.43-6.46-.52 18.43 0 33.37 17.37 33.37 38.78"/><path fill="#bebebe" d="M87.06 39.183h6.43a37.3 37.3 0 0 0-1.99-12.29 38 38 0 0 0-2.5-5.49c-.91-1.56-2.2-3.59-3.23-5.08a39.9 39.9 0 0 0-8.62-8.39A38.6 38.6 0 0 0 72 4.743a40 40 0 0 0-5.73-2.34 39 39 0 0 0-6.12-1.48c-1.93-.23-4.52-.43-6.46-.52 18.43 0 33.37 17.37 33.37 38.78"/><path fill="#b9b9b9" d="M87.06 39.183h6.43a37.3 37.3 0 0 0-1.99-12.29 38 38 0 0 0-2.5-5.49c-.91-1.56-2.2-3.59-3.23-5.08a39.9 39.9 0 0 0-8.62-8.39A38.6 38.6 0 0 0 72 4.743a40 40 0 0 0-5.73-2.34 39 39 0 0 0-6.12-1.48c-1.93-.23-4.52-.43-6.46-.52 18.43 0 33.37 17.37 33.37 38.78"/><path fill="#b5b5b5" d="M87.06 39.183h6.43a37.3 37.3 0 0 0-1.99-12.29 38 38 0 0 0-2.5-5.49c-.91-1.56-2.2-3.59-3.23-5.08a39.9 39.9 0 0 0-8.62-8.39A38.6 38.6 0 0 0 72 4.743a40 40 0 0 0-5.73-2.34 39 39 0 0 0-6.12-1.48c-1.93-.23-4.52-.43-6.46-.52 18.43 0 33.37 17.37 33.37 38.78"/><path fill="#b1b1b1" d="M87.06 39.183h6.43a37.3 37.3 0 0 0-1.99-12.29 38 38 0 0 0-2.5-5.49c-.91-1.56-2.2-3.59-3.23-5.08a39.9 39.9 0 0 0-8.62-8.39A38.6 38.6 0 0 0 72 4.743a40 40 0 0 0-5.73-2.34 39 39 0 0 0-6.12-1.48c-1.93-.23-4.52-.43-6.46-.52 18.43 0 33.37 17.37 33.37 38.78"/><path fill="#adadad" d="M87.06 39.183h6.43a37.3 37.3 0 0 0-1.99-12.29 38 38 0 0 0-2.5-5.49c-.91-1.56-2.2-3.59-3.23-5.08a39.9 39.9 0 0 0-8.62-8.39A38.6 38.6 0 0 0 72 4.743a40 40 0 0 0-5.73-2.34 39 39 0 0 0-6.12-1.48c-1.93-.23-4.52-.43-6.46-.52 18.43 0 33.37 17.37 33.37 38.78"/><path fill="#a9a9a9" d="M87.06 39.183h6.43a37.3 37.3 0 0 0-1.99-12.29 38 38 0 0 0-2.5-5.49c-.91-1.56-2.2-3.59-3.23-5.08a39.9 39.9 0 0 0-8.62-8.39A38.6 38.6 0 0 0 72 4.743a40 40 0 0 0-5.73-2.34 39 39 0 0 0-6.12-1.48c-1.93-.23-4.52-.43-6.46-.52 18.43 0 33.37 17.37 33.37 38.78"/><path fill="#a5a5a5" d="M87.06 39.183h6.43a37.3 37.3 0 0 0-1.99-12.29 38 38 0 0 0-2.5-5.49c-.91-1.56-2.2-3.59-3.23-5.08a39.9 39.9 0 0 0-8.62-8.39A38.6 38.6 0 0 0 72 4.743a40 40 0 0 0-5.73-2.34 39 39 0 0 0-6.12-1.48c-1.93-.23-4.52-.43-6.46-.52 18.43 0 33.37 17.37 33.37 38.78"/><path fill="#a1a1a1" d="M87.06 39.183h6.43a37.3 37.3 0 0 0-1.99-12.29 38 38 0 0 0-2.5-5.49c-.91-1.56-2.2-3.59-3.23-5.08a39.9 39.9 0 0 0-8.62-8.39A38.6 38.6 0 0 0 72 4.743a40 40 0 0 0-5.73-2.34 39 39 0 0 0-6.12-1.48c-1.93-.23-4.52-.43-6.46-.52 18.43 0 33.37 17.37 33.37 38.78"/><path fill="#9d9d9d" d="M87.06 39.183h6.43a37.3 37.3 0 0 0-1.99-12.29 38 38 0 0 0-2.5-5.49c-.91-1.56-2.2-3.59-3.23-5.08a39.9 39.9 0 0 0-8.62-8.39A38.6 38.6 0 0 0 72 4.743a40 40 0 0 0-5.73-2.34 39 39 0 0 0-6.12-1.48c-1.93-.23-4.52-.43-6.46-.52 18.43 0 33.37 17.37 33.37 38.78"/><path fill="#989898" d="M87.06 39.183h6.43a37.3 37.3 0 0 0-1.99-12.29 38 38 0 0 0-2.5-5.49c-.91-1.56-2.2-3.59-3.23-5.08a39.9 39.9 0 0 0-8.62-8.39A38.6 38.6 0 0 0 72 4.743a40 40 0 0 0-5.73-2.34 39 39 0 0 0-6.12-1.48c-1.93-.23-4.52-.43-6.46-.52 18.43 0 33.37 17.37 33.37 38.78"/><path fill="#949494" d="M87.06 39.183h6.43a37.3 37.3 0 0 0-1.99-12.29 38 38 0 0 0-2.5-5.49c-.91-1.56-2.2-3.59-3.23-5.08a39.9 39.9 0 0 0-8.62-8.39A38.6 38.6 0 0 0 72 4.743a40 40 0 0 0-5.73-2.34 39 39 0 0 0-6.12-1.48c-1.93-.23-4.52-.43-6.46-.52 18.43 0 33.37 17.37 33.37 38.78"/><path fill="#909090" d="M87.06 39.183h6.43a37.3 37.3 0 0 0-1.99-12.29 38 38 0 0 0-2.5-5.49c-.91-1.56-2.2-3.59-3.23-5.08a39.9 39.9 0 0 0-8.62-8.39A38.6 38.6 0 0 0 72 4.743a40 40 0 0 0-5.73-2.34 39 39 0 0 0-6.12-1.48c-1.93-.23-4.52-.43-6.46-.52 18.43 0 33.37 17.37 33.37 38.78"/><path fill="#8c8c8c" d="M87.06 39.183h6.43a37.3 37.3 0 0 0-1.99-12.29 38 38 0 0 0-2.5-5.49c-.91-1.56-2.2-3.59-3.23-5.08a39.9 39.9 0 0 0-8.62-8.39A38.6 38.6 0 0 0 72 4.743a40 40 0 0 0-5.73-2.34 39 39 0 0 0-6.12-1.48c-1.93-.23-4.52-.43-6.46-.52 18.43 0 33.37 17.37 33.37 38.78"/><path fill="#888" d="M87.06 39.183h6.43a37.3 37.3 0 0 0-1.99-12.29 38 38 0 0 0-2.5-5.49c-.91-1.56-2.2-3.59-3.23-5.08a39.9 39.9 0 0 0-8.62-8.39A38.6 38.6 0 0 0 72 4.743a40 40 0 0 0-5.73-2.34 39 39 0 0 0-6.12-1.48c-1.93-.23-4.52-.43-6.46-.52 18.43 0 33.37 17.37 33.37 38.78"/><path fill="#848484" d="M87.06 39.183h6.43a37.3 37.3 0 0 0-1.99-12.29 38 38 0 0 0-2.5-5.49c-.91-1.56-2.2-3.59-3.23-5.08a39.9 39.9 0 0 0-8.62-8.39A38.6 38.6 0 0 0 72 4.743a40 40 0 0 0-5.73-2.34 39 39 0 0 0-6.12-1.48c-1.93-.23-4.52-.43-6.46-.52 18.43 0 33.37 17.37 33.37 38.78"/><path fill="gray" d="M87.06 39.183h6.43a37.3 37.3 0 0 0-1.99-12.29 38 38 0 0 0-2.5-5.49c-.91-1.56-2.2-3.59-3.23-5.08a39.9 39.9 0 0 0-8.62-8.39A38.6 38.6 0 0 0 72 4.743a40 40 0 0 0-5.73-2.34 39 39 0 0 0-6.12-1.48c-1.93-.23-4.52-.43-6.46-.52 18.43 0 33.37 17.37 33.37 38.78"/><path fill="#7c7c7c" d="M87.06 39.183h6.43a37.3 37.3 0 0 0-1.99-12.29 38 38 0 0 0-2.5-5.49c-.91-1.56-2.2-3.59-3.23-5.08a39.9 39.9 0 0 0-8.62-8.39A38.6 38.6 0 0 0 72 4.743a40 40 0 0 0-5.73-2.34 39 39 0 0 0-6.12-1.48c-1.93-.23-4.52-.43-6.46-.52 18.43 0 33.37 17.37 33.37 38.78"/><path fill="#777" d="M87.06 39.183h6.43a37.3 37.3 0 0 0-1.99-12.29 38 38 0 0 0-2.5-5.49c-.91-1.56-2.2-3.59-3.23-5.08a39.9 39.9 0 0 0-8.62-8.39A38.6 38.6 0 0 0 72 4.743a40 40 0 0 0-5.73-2.34 39 39 0 0 0-6.12-1.48c-1.93-.23-4.52-.43-6.46-.52 18.43 0 33.37 17.37 33.37 38.78"/><path fill="#737373" d="M87.06 39.183h6.43a37.3 37.3 0 0 0-1.99-12.29 38 38 0 0 0-2.5-5.49c-.91-1.56-2.2-3.59-3.23-5.08a39.9 39.9 0 0 0-8.62-8.39A38.6 38.6 0 0 0 72 4.743a40 40 0 0 0-5.73-2.34 39 39 0 0 0-6.12-1.48c-1.93-.23-4.52-.43-6.46-.52 18.43 0 33.37 17.37 33.37 38.78"/><path fill="#6f6f6f" d="M87.06 39.183h6.43a37.3 37.3 0 0 0-1.99-12.29 38 38 0 0 0-2.5-5.49c-.91-1.56-2.2-3.59-3.23-5.08a39.9 39.9 0 0 0-8.62-8.39A38.6 38.6 0 0 0 72 4.743a40 40 0 0 0-5.73-2.34 39 39 0 0 0-6.12-1.48c-1.93-.23-4.52-.43-6.46-.52 18.43 0 33.37 17.37 33.37 38.78"/><path fill="#6b6b6b" d="M87.06 39.183h6.43a37.3 37.3 0 0 0-1.99-12.29 38 38 0 0 0-2.5-5.49c-.91-1.56-2.2-3.59-3.23-5.08a39.9 39.9 0 0 0-8.62-8.39A38.6 38.6 0 0 0 72 4.743a40 40 0 0 0-5.73-2.34 39 39 0 0 0-6.12-1.48c-1.93-.23-4.52-.43-6.46-.52 18.43 0 33.37 17.37 33.37 38.78"/><path fill="#e5e5e5" d="M13.9 39.183v.22a1 1 0 0 1 0 .16v.16H87v-.53H13.9"/><path fill="#e5e5e5" d="M13.9 39.403c0 .32 6.41.32 18.14.32H87v-.53H13.9z"/><path fill="#e4e4e4" d="M13.9 39.403c0 .32 6.41.32 18.14.32H87v-.53H13.9z"/><path fill="#e3e3e3" d="M13.9 39.403c0 .32 6.41.32 18.14.32H43.1a11 11 0 0 1-1.48-.12 16 16 0 0 1 4.63-.11l-.31.2c.22 0 .52.06.74.06H87v-.53H13.9z"/><path fill="#e2e2e2" d="M13.9 39.403c0 .32 6.41.32 18.14.32h8.79c-.34 0-.79-.08-1.13-.13a33.8 33.8 0 0 1 7.62-.11l-.31.2q.288.045.58.06H87v-.53H13.9z"/><path fill="#e2e2e2" d="M13.9 39.403c0 .32 6.41.32 18.14.32h7c0-.09.09-.26.18-.31a55 55 0 0 1 9.18 0l-.57.23H87v-.53H13.9z"/><path fill="#e1e1e1" d="M13.9 39.403c0 .32 6.41.32 18.14.32h6.34c.08-.1.15-.28.26-.34a71 71 0 0 1 10.83.08l-.56.23H87v-.53H13.9z"/><path fill="#e0e0e0" d="M13.9 39.403c0 .32 6.41.32 18.14.32h5.69l-.34-.15c1.48-.58 12.17-.41 13 0l-.38.12H87v-.53H13.9z"/><path fill="#dfdfdf" d="M47.53 39.213c3 .07 3.16.16 3.49.31-.07 0-.19.06-.24.12a.2.2 0 0 0 0 .07H87v-.53H44.87h2.66m-33.63.22a1 1 0 0 1 0 .16 1 1 0 0 1 0 .16h23.18c-.11 0-.32 0-.36-.12s0-.13.09-.16a30 30 0 0 1 5.27-.24c.68 0 1.8.48 2.28 0H13.9z"/><path fill="#dedede" d="M48.75 39.213a15 15 0 0 1 2.78.24 1.4 1.4 0 0 1-.21.26H87v-.53H46.18h2.57m-34.85.22a1 1 0 0 1 0 .16 1 1 0 0 1 0 .16h22.54c-.43-.1-.44-.1-.45-.12s0-.12.09-.16a30.6 30.6 0 0 1 5.08-.25H13.9z"/><path fill="#dcdcdc" d="M50 39.213q1.097.009 2.17.24c0 .11-.17.21-.26.26H87v-.53H47.49h2.47m-36.06.22a1 1 0 0 1 0 .16 1 1 0 0 1 0 .16h21.9c-.45-.06-.52-.11-.53-.12a.15.15 0 0 1 0-.13 19 19 0 0 1 3.73-.29H13.9z"/><path fill="#dbdbdb" d="M50 39.203a11 11 0 0 1 2.69.25l-.32.26H87v-.53H48.8h1.24m-36.14.22a1 1 0 0 1 0 .16 1 1 0 0 1 0 .16h21.27a1.5 1.5 0 0 1-.61-.12.15.15 0 0 1 0-.13 16 16 0 0 1 3.44-.29H13.9z"/><path fill="#dadada" d="M51.41 39.213a8.6 8.6 0 0 1 1.92.24c.05.14-.1.19-.37.26H87v-.53H50h1.33m-37.43.22a1 1 0 0 1 0 .16 1 1 0 0 1 0 .16h20.64c-.65 0-.76 0-.82-.12a.15.15 0 0 1 0-.13c.06-.08.55-.22 3.23-.28H13.9z"/><path fill="#d8d8d8" d="M52.12 39.213c1.49.07 1.78.24 1.89.31a.87.87 0 0 1-.5.19H87v-.53H50.86h1.26m-38.22.22a1 1 0 0 1 0 .16 1 1 0 0 1 0 .16h19.78c-.41 0-.84-.05-.85-.16 0-.29 2.16-.35 3.1-.37h-22v.21"/><path fill="#d6d6d6" d="M52.83 39.213c1.4.07 1.67.24 1.78.31a.8.8 0 0 1-.55.19H87v-.53H51.63h1.2m-38.93.22a1 1 0 0 1 0 .16 1 1 0 0 1 0 .16h18.9c-.49 0-.69 0-.77-.12a.12.12 0 0 1 0-.1c.08-.24 2.22-.29 2.92-.31h-21v.21"/><path fill="#d4d4d4" d="M53.53 39.213c1.32.07 1.57.24 1.68.31-.21.15-.21.15-.61.19H87v-.53H52.41h1.12m-39.63.22a1 1 0 0 1 0 .16 1 1 0 0 1 0 .16h18c-.51 0-.82-.05-.77-.22s.38-.25 2.43-.3h.24-19.9z"/><path fill="#cecece" d="M54.24 39.213a4.4 4.4 0 0 1 1.64.31c-.22.15-.22.15-.73.19H87v-.53H53.18h1.06m-40.34.22a1 1 0 0 1 0 .16 1 1 0 0 1 0 .16h17.18c-.51 0-.76-.05-.71-.22s.43-.25 2.13-.3h.2-18.8z"/><path fill="#cacaca" d="M54.94 39.213c1.29.08 1.53.23 1.65.31-.22.15-.22.15-.79.19H87v-.53H54h1m-41.1.22a1 1 0 0 1 0 .16 1 1 0 0 1 0 .16h16.35c-.35 0-.71 0-.75-.15s0-.08 0-.1a5.7 5.7 0 0 1 2-.28H13.9z"/><path fill="#c6c6c6" d="M55.38 39.203c.9 0 1.91.17 1.91.32s-.22.16-.76.19H87v-.53H54.73h.65m-41.48.22a1 1 0 0 1 0 .16 1 1 0 0 1 0 .16h15.3c-.93 0-.93 0-1-.15a.13.13 0 0 1 0-.1s.29-.2 2.22-.28H13.9z"/><path fill="#c2c2c2" d="M56.53 39.213c.24 0 1.46.13 1.47.31s-.15.15-.74.19H87v-.53H55.53h1m-42.63.22a1 1 0 0 1 0 .16 1 1 0 0 1 0 .16h13.83c-.63 0-.68 0-.71-.15a.12.12 0 0 1 0-.1 7.1 7.1 0 0 1 2.25-.28H13.9z"/><path fill="#bebebe" d="M57.35 39.213c.22 0 1.35.13 1.35.31s-.07.15-.72.19H87v-.53H56.44h.91m-43.45.22a1 1 0 0 1 0 .16 1 1 0 0 1 0 .16h12.44c-.23 0-.46-.05-.49-.15a.12.12 0 0 1 0-.1c.16-.22 1.42-.26 1.89-.28H13.9z"/><path fill="#b9b9b9" d="M58.18 39.213s1.24.1 1.22.34c0 .06 0 .12-.69.16H87v-.53H57.34h.84m-44.28.22a1 1 0 0 1 0 .16 1 1 0 0 1 0 .16h11c-.1 0-.42-.07-.42-.18s.09-.27 1.82-.35H13.9z"/><path fill="#b5b5b5" d="M59 39.213c.35 0 1.06.15 1.09.28s-.05.12-.1.15-.39.06-.56.07H87v-.53H58.24 59m-45.1.22a1 1 0 0 1 0 .16 1 1 0 0 1 0 .16h9.54c-.1 0-.31-.09-.31-.18s.17-.28 1.72-.35h-11v.21"/><path fill="#b1b1b1" d="M59.82 39.213c.345.02.683.102 1 .24a.16.16 0 0 1 0 .16s0 .06-.64.1H87v-.53H59.14h.68m-45.92.22a1 1 0 0 1 0 .16v.16h8.17c-.2-.15-.2-.15-.2-.18s.14-.28 1.5-.35H13.9z"/><path fill="#adadad" d="M60.64 39.213c.27 0 1.3.14 1.31.31s0 .15-.94.19H87v-.53H60h.61m-46.71.22a1 1 0 0 1 0 .16v.16h7c-.13-.12-.49-.44 1.09-.53H13.9z"/><path fill="#a9a9a9" d="M61.83 39.213c.18 0 1.18.13 1.19.31s0 .15-.82.19H87v-.53H61h.79m-47.89.22a1 1 0 0 1 0 .16v.16h6c-.15-.26-.15-.26 0-.34a2.4 2.4 0 0 1 1-.19h-7z"/><path fill="#a5a5a5" d="M63 39.213c.17 0 1.06.13 1.06.31s0 .15-.69.19H87v-.53H62.32h.7m-49.12.22a1 1 0 0 1 0 .16v.16h5c-.14-.23-.27-.44.83-.53H13.9z"/><path fill="#a1a1a1" d="M64.21 39.213c.14 0 .92.13.93.31s0 .15-.57.19H87v-.53H63.59h.62m-50.31.22a1 1 0 0 1 0 .16v.16h4.16c-.11-.13-.36-.43.68-.53H13.9z"/><path fill="#9d9d9d" d="M65.39 39.213q.46.06.89.24a.15.15 0 0 1 0 .13s0 .08-.58.13H87v-.53H64.85h.54m-51.49.22a1 1 0 0 1 0 .16v.16h3.4c-.38-.38.28-.5.58-.53h-4v.21"/><path fill="#989898" d="M66.79 39.213s1 .12 1 .34c0 .05 0 .11-.52.16H87v-.53H66.18h.61m-52.89.22a1 1 0 0 1 0 .16v.16h2.72c-.05 0-.2-.18-.07-.31a.9.9 0 0 1 .56-.22H13.9z"/><path fill="#949494" d="M68.32 39.213c.25 0 .86.16.89.28s-.24.2-.42.22H87v-.53H67.77h.55m-54.42.22a1 1 0 0 1 0 .16v.16H16c-.18-.16-.15-.45.41-.53H13.9z"/><path fill="#909090" d="M69.82 39.213c.2 0 .75.15.8.28s-.22.2-.33.22H87v-.53H69.33h.49m-55.92.22a1 1 0 0 1 0 .16v.16h1.59c-.16-.13-.18-.44.32-.53H13.9z"/><path fill="#8c8c8c" d="M71.37 39.213s.88.12.84.34-.23.14-.34.16H87v-.53H70.88h.49m-57.47.22a1 1 0 0 1 0 .16v.16h1.13c-.13-.11-.17-.44.25-.53H13.9z"/><path fill="#888" d="M73 39.213c.17 0 .77.15.77.31s-.23.17-.32.19H87v-.53H72.58h.44m-59.12.22a1 1 0 0 1 0 .16v.16h.73a.33.33 0 0 1 .19-.53h-.92z"/><path fill="#848484" d="M74.63 39.213s.91.15.66.4c-.06.06-.06.06-.26.1H87v-.53H74.23h.4m-60.73.22a1 1 0 0 1 0 .16v.16h.42a.4.4 0 0 1-.05-.31.26.26 0 0 1 .17-.22h-.54z"/><path fill="gray" d="M76.31 39.213s1 .17.62.44c-.05 0-.05 0-.24.06H87v-.53H75.9h.41m-62.41.22a1 1 0 0 1 0 .16v.16h.19a.5.5 0 0 1 0-.31.25.25 0 0 1 .12-.22h-.31z"/><path fill="#7c7c7c" d="M78 39.213s.87.16.55.43l-.26.07H87v-.53h-9.31.35m-64.14.22a1 1 0 0 1 0 .16v.16c0-.05-.07-.43 0-.53z"/><path fill="#777" d="M79.71 39.213s.93.18.57.43l-.31.07H87v-.53h-7.59.3"/><path fill="#737373" d="M81.7 39.213c.53.1.66.37.43.47q-.135.015-.27 0H87v-.53h-5.61a3 3 0 0 1 .31 0"/><path fill="#6f6f6f" d="M83.59 39.213c.66.16.59.4.42.47a1.5 1.5 0 0 1-.37 0H87v-.53h-3.7a2 2 0 0 1 .23 0"/><path fill="#6b6b6b" d="M86 39.213c.37.12.43.37.27.47a.4.4 0 0 1-.12 0H87v-.53h-1.19.14"/><path fill="#e4e4e4" d="M43.54 39.553a3.7 3.7 0 0 0 1.87 0 3.7 3.7 0 0 0-1.94 0z"/><path fill="#e5e5e5" d="M53.69.403a40.5 40.5 0 0 0-18.29 4.34 39 39 0 0 0-5.21 3.15 38.9 38.9 0 0 0-11.85 13.51 37 37 0 0 0-2.41 5.57 37 37 0 0 0-1.51 6 38.4 38.4 0 0 0-.52 6.29h73.16c0-21.49-14.94-38.86-33.37-38.86"/><path fill="#e5e5e5" d="M47.24.923c-1.86.37-4.31 1-6.13 1.47a41 41 0 0 0-5.71 2.35 39 39 0 0 0-5.21 3.15 86 86 0 0 0-4.64 3.88l-2.07 2.18-1.91 2.33a39.6 39.6 0 0 0-3.23 5.12 37 37 0 0 0-2.41 5.57 37 37 0 0 0-1.51 6 38.4 38.4 0 0 0-.52 6.29h73.16c0-21.49-14.94-38.86-33.37-38.86l-3.26.14z"/><path fill="#e4e4e4" d="M47.24.923c-1.86.37-4.31 1-6.13 1.47a41 41 0 0 0-5.71 2.35 39 39 0 0 0-5.21 3.15 86 86 0 0 0-4.64 3.88l-2.07 2.18-1.91 2.33a39.6 39.6 0 0 0-3.23 5.12 37 37 0 0 0-2.41 5.57 37 37 0 0 0-1.51 6 38.4 38.4 0 0 0-.52 6.29h73.16c0-21.49-14.94-38.86-33.37-38.86l-3.26.14z"/><path fill="#e3e3e3" d="M47.24.923c-1.86.37-4.31 1-6.13 1.47a41 41 0 0 0-5.71 2.35 39 39 0 0 0-5.21 3.15 86 86 0 0 0-4.64 3.88l-2.07 2.18-1.91 2.33a39.6 39.6 0 0 0-3.23 5.12 37 37 0 0 0-2.41 5.57 37 37 0 0 0-1.51 6 38.4 38.4 0 0 0-.52 6.29h73.16c0-21.49-14.94-38.86-33.37-38.86l-3.26.14z"/><path fill="#e2e2e2" d="M47.24.923c-1.86.37-4.31 1-6.13 1.47a41 41 0 0 0-5.71 2.35 39 39 0 0 0-5.21 3.15 86 86 0 0 0-4.64 3.88l-2.07 2.18-1.91 2.33a39.6 39.6 0 0 0-3.23 5.12 37 37 0 0 0-2.41 5.57 37 37 0 0 0-1.51 6 38.4 38.4 0 0 0-.52 6.29h73.16c0-21.49-14.94-38.86-33.37-38.86l-3.26.14z"/><path fill="#e2e2e2" d="M47.24.923c-1.86.37-4.31 1-6.13 1.47a41 41 0 0 0-5.71 2.35 39 39 0 0 0-5.21 3.15 86 86 0 0 0-4.64 3.88l-2.07 2.18-1.91 2.33a39.6 39.6 0 0 0-3.23 5.12 37 37 0 0 0-2.41 5.57 37 37 0 0 0-1.51 6 38.4 38.4 0 0 0-.52 6.29h73.16c0-21.49-14.94-38.86-33.37-38.86l-3.26.14z"/><path fill="#e1e1e1" d="M47.24.923c-1.86.37-4.31 1-6.13 1.47a41 41 0 0 0-5.71 2.35 39 39 0 0 0-5.21 3.15 86 86 0 0 0-4.64 3.88l-2.07 2.18-1.91 2.33a39.6 39.6 0 0 0-3.23 5.12 37 37 0 0 0-2.41 5.57 37 37 0 0 0-1.51 6 38.4 38.4 0 0 0-.52 6.29h73.16c0-21.49-14.94-38.86-33.37-38.86l-3.26.14z"/><path fill="#e0e0e0" d="M47.24.923c-1.86.37-4.31 1-6.13 1.47a41 41 0 0 0-5.71 2.35 39 39 0 0 0-5.21 3.15 86 86 0 0 0-4.64 3.88l-2.07 2.18-1.91 2.33a39.6 39.6 0 0 0-3.23 5.12 37 37 0 0 0-2.41 5.57 37 37 0 0 0-1.51 6 38.4 38.4 0 0 0-.52 6.29h73.16c0-21.49-14.94-38.86-33.37-38.86l-3.26.14z"/><path fill="#dfdfdf" d="M47.24.923c-1.86.37-4.31 1-6.13 1.47a41 41 0 0 0-5.71 2.35 39 39 0 0 0-5.21 3.15 86 86 0 0 0-4.64 3.88l-2.07 2.18-1.91 2.33a39.6 39.6 0 0 0-3.23 5.12 37 37 0 0 0-2.41 5.57 37 37 0 0 0-1.51 6 38.4 38.4 0 0 0-.52 6.29h30.46l.37-.07.14.07h42.19c0-21.49-14.94-38.86-33.37-38.86l-3.26.14z"/><path fill="#dedede" d="M47.24.923c-1.86.37-4.31 1-6.13 1.47a41 41 0 0 0-5.71 2.35 39 39 0 0 0-5.21 3.15 86 86 0 0 0-4.64 3.88l-2.07 2.18-1.91 2.33a39.6 39.6 0 0 0-3.23 5.12 37 37 0 0 0-2.41 5.57 37 37 0 0 0-1.51 6 38.4 38.4 0 0 0-.52 6.29h27.26c3.57-.65 3.57-.65 5 0h40.9c0-21.49-14.94-38.86-33.37-38.86l-3.26.14z"/><path fill="#dcdcdc" d="M47.24.923c-1.86.37-4.31 1-6.13 1.47a41 41 0 0 0-5.71 2.35 39 39 0 0 0-5.21 3.15 86 86 0 0 0-4.64 3.88l-2.07 2.18-1.91 2.33a39.6 39.6 0 0 0-3.23 5.12 37 37 0 0 0-2.41 5.57 37 37 0 0 0-1.51 6 38.4 38.4 0 0 0-.52 6.29H39c3.4-2.28 7.22-.56 8.48 0h39.58c0-21.49-14.94-38.86-33.37-38.86l-3.26.14z"/><path fill="#dbdbdb" d="M47.24.923c-1.86.37-4.31 1-6.13 1.47a41 41 0 0 0-5.71 2.35 39 39 0 0 0-5.21 3.15 86 86 0 0 0-4.64 3.88l-2.07 2.18-1.91 2.33a39.6 39.6 0 0 0-3.23 5.12 37 37 0 0 0-2.41 5.57 37 37 0 0 0-1.51 6 38.4 38.4 0 0 0-.52 6.29H38c4.33-2.9 6.77-1.81 10.82 0h38.24c0-21.49-14.94-38.86-33.37-38.86l-3.26.14z"/><path fill="#dadada" d="M47.24.923c-1.86.37-4.31 1-6.13 1.47a41 41 0 0 0-5.71 2.35 39 39 0 0 0-5.21 3.15 86 86 0 0 0-4.64 3.88l-2.07 2.18-1.91 2.33a39.6 39.6 0 0 0-3.23 5.12 37 37 0 0 0-2.41 5.57 37 37 0 0 0-1.51 6 38.4 38.4 0 0 0-.52 6.29H37c5.26-3.52 6.61-2.92 13.09 0h37C87.06 17.773 72.12.403 53.69.403l-3.26.14z"/><path fill="#d8d8d8" d="M47.24.923c-1.86.37-4.31 1-6.13 1.47a41 41 0 0 0-5.71 2.35 39 39 0 0 0-5.21 3.15 86 86 0 0 0-4.64 3.88l-2.07 2.18-1.91 2.33a39.6 39.6 0 0 0-3.23 5.12 37 37 0 0 0-2.41 5.57 37 37 0 0 0-1.51 6 38.4 38.4 0 0 0-.52 6.29h22c2.56-1.73 8.56-5.77 14.93 0h36.2C87.06 17.773 72.12.403 53.69.403l-3.26.14z"/><path fill="#d6d6d6" d="M47.24.923c-1.86.37-4.31 1-6.13 1.47a41 41 0 0 0-5.71 2.35 39 39 0 0 0-5.21 3.15 86 86 0 0 0-4.64 3.88l-2.07 2.18-1.91 2.33a39.6 39.6 0 0 0-3.23 5.12 37 37 0 0 0-2.41 5.57 37 37 0 0 0-1.51 6 38.4 38.4 0 0 0-.52 6.29h21c4-2.74 9.55-6.49 16.71 0h35.45c0-21.49-14.94-38.86-33.37-38.86l-3.26.14z"/><path fill="#d4d4d4" d="M47.24.923c-1.86.37-4.31 1-6.13 1.47a41 41 0 0 0-5.71 2.35 39 39 0 0 0-5.21 3.15 86 86 0 0 0-4.64 3.88l-2.07 2.18-1.91 2.33a39.6 39.6 0 0 0-3.23 5.12 37 37 0 0 0-2.41 5.57 37 37 0 0 0-1.51 6 38.4 38.4 0 0 0-.52 6.29h19.94c8.11-7.82 15.65-2.64 18.52 0h34.7c0-21.49-14.94-38.86-33.37-38.86l-3.26.14z"/><path fill="#cecece" d="M47.24.923c-1.86.37-4.31 1-6.13 1.47a41 41 0 0 0-5.71 2.35 39 39 0 0 0-5.21 3.15 86 86 0 0 0-4.64 3.88l-2.07 2.18-1.91 2.33a39.6 39.6 0 0 0-3.23 5.12 37 37 0 0 0-2.41 5.57 37 37 0 0 0-1.51 6 38.4 38.4 0 0 0-.52 6.29h18.8c6.6-6.34 13.49-6.34 20.48 0h33.88c0-21.49-14.94-38.86-33.37-38.86l-3.26.14z"/><path fill="#cacaca" d="M47.24.923c-1.86.37-4.31 1-6.13 1.47a41 41 0 0 0-5.71 2.35 39 39 0 0 0-5.21 3.15 86 86 0 0 0-4.64 3.88l-2.07 2.18-1.91 2.33a39.6 39.6 0 0 0-3.23 5.12 37 37 0 0 0-2.41 5.57 37 37 0 0 0-1.51 6 38.4 38.4 0 0 0-.52 6.29h17.68c4.64-4.49 12-9.38 22.38 0h33.1c0-21.49-14.94-38.86-33.37-38.86l-3.26.14z"/><path fill="#c6c6c6" d="M47.24.923c-1.86.37-4.31 1-6.13 1.47a41 41 0 0 0-5.71 2.35 39 39 0 0 0-5.21 3.15 86 86 0 0 0-4.64 3.88l-2.07 2.18-1.91 2.33a39.6 39.6 0 0 0-3.23 5.12 37 37 0 0 0-2.41 5.57 37 37 0 0 0-1.51 6 38.4 38.4 0 0 0-.52 6.29h16.58c7.84-7.9 16-7.9 24.25 0h32.33c0-21.49-14.94-38.86-33.37-38.86l-3.26.14z"/><path fill="#c2c2c2" d="M47.24.923c-1.86.37-4.31 1-6.13 1.47a41 41 0 0 0-5.71 2.35 39 39 0 0 0-5.21 3.15 86 86 0 0 0-4.64 3.88l-2.07 2.18-1.91 2.33a39.6 39.6 0 0 0-3.23 5.12 37 37 0 0 0-2.41 5.57 37 37 0 0 0-1.51 6 38.4 38.4 0 0 0-.52 6.29h15.39c1.24-1.49 12.52-14.15 26.09-.19 12.51.19 24.43.19 31.68.19 0-21.49-14.94-38.86-33.37-38.86l-3.26.14z"/><path fill="#bebebe" d="M47.24.923c-1.86.37-4.31 1-6.13 1.47a41 41 0 0 0-5.71 2.35 39 39 0 0 0-5.21 3.15 86 86 0 0 0-4.64 3.88l-2.07 2.18-1.91 2.33a39.6 39.6 0 0 0-3.23 5.12 37 37 0 0 0-2.41 5.57 37 37 0 0 0-1.51 6 38.4 38.4 0 0 0-.52 6.29h13.86c1.48-1.78 6-7.2 12-7.2 5.71 0 6.74 0 10.33 1.55 2.74 1.18 3.69 4.39 6.36 5.65h30.61c0-21.49-14.94-38.86-33.37-38.86l-3.26.14z"/><path fill="#b9b9b9" d="M47.24.923c-1.86.37-4.31 1-6.13 1.47a41 41 0 0 0-5.71 2.35 39 39 0 0 0-5.21 3.15 86 86 0 0 0-4.64 3.88l-2.07 2.18-1.91 2.33a39.6 39.6 0 0 0-3.23 5.12 37 37 0 0 0-2.41 5.57 37 37 0 0 0-1.51 6 38.4 38.4 0 0 0-.52 6.29h12.42c1.52-2 6.15-8 13.27-8 5 0 6.82 0 10.5 1.66 3.06 1.38 4.24 4.91 7.24 6.35h29.73c0-21.5-14.94-38.87-33.37-38.87l-3.26.14z"/><path fill="#b5b5b5" d="M47.24.923c-1.86.37-4.31 1-6.13 1.47a41 41 0 0 0-5.71 2.35 39 39 0 0 0-5.21 3.15 86 86 0 0 0-4.64 3.88l-2.07 2.18-1.91 2.33a39.6 39.6 0 0 0-3.23 5.12 37 37 0 0 0-2.41 5.57 37 37 0 0 0-1.51 6 38.4 38.4 0 0 0-.52 6.29h11a18 18 0 0 1 15-9c4.31 0 4.31 0 7.85 1.2s3.7 1.26 7.47 4.06c1.16.86 1.73 3.1 3 3.73h28.84c0-21.48-14.94-38.85-33.37-38.85l-3.26.14z"/><path fill="#b1b1b1" d="M47.24.923c-1.86.37-4.31 1-6.13 1.47a41 41 0 0 0-5.71 2.35 39 39 0 0 0-5.21 3.15 86 86 0 0 0-4.64 3.88l-2.07 2.18-1.91 2.33a39.6 39.6 0 0 0-3.23 5.12 37 37 0 0 0-2.41 5.57 37 37 0 0 0-1.51 6 38.4 38.4 0 0 0-.52 6.29h9.49c4.88-8.18 11.71-9.9 16.58-9.9 8 0 14.13 2.92 18.29 8.68.26.37.48 1 .88 1.22h27.92c0-21.49-14.94-38.86-33.37-38.86l-3.26.14z"/><path fill="#adadad" d="M47.24.923c-1.86.37-4.31 1-6.13 1.47a41 41 0 0 0-5.71 2.35 39 39 0 0 0-5.21 3.15 86 86 0 0 0-4.64 3.88l-2.07 2.18-1.91 2.33a39.6 39.6 0 0 0-3.23 5.12 37 37 0 0 0-2.41 5.57 37 37 0 0 0-1.51 6 38.4 38.4 0 0 0-.52 6.29H22c7.73-14.59 28.69-14.59 38 0h27C87.06 17.773 72.12.403 53.69.403l-3.26.14z"/><path fill="#a9a9a9" d="M47.24.923c-1.86.37-4.31 1-6.13 1.47a41 41 0 0 0-5.71 2.35 39 39 0 0 0-5.21 3.15 86 86 0 0 0-4.64 3.88l-2.07 2.18-1.91 2.33a39.6 39.6 0 0 0-3.23 5.12 37 37 0 0 0-2.41 5.57 37 37 0 0 0-1.51 6 38.4 38.4 0 0 0-.52 6.29h6.93c4.44-10.41 14-12 19.37-12q1.403.09 2.79.33a23.49 23.49 0 0 1 17.43 10.55c.18.32.31.86.62 1h26C87.06 17.773 72.12.403 53.69.403l-3.26.14z"/><path fill="#a5a5a5" d="M47.24.923c-1.86.37-4.31 1-6.13 1.47a41 41 0 0 0-5.71 2.35 39 39 0 0 0-5.21 3.15 86 86 0 0 0-4.64 3.88l-2.07 2.18-1.91 2.33a39.6 39.6 0 0 0-3.23 5.12 37 37 0 0 0-2.41 5.57 37 37 0 0 0-1.51 6 38.4 38.4 0 0 0-.52 6.29h5.84c1.26-3.25 5.09-13.12 20.6-13.13 7.08 0 17.13 5.18 20.3 10.45.49.81.85 2.21 1.67 2.66h24.75c0-21.47-14.94-38.84-33.37-38.84l-3.26.14z"/><path fill="#a1a1a1" d="M47.24.923c-1.86.37-4.31 1-6.13 1.47a41 41 0 0 0-5.71 2.35 39 39 0 0 0-5.21 3.15 86 86 0 0 0-4.64 3.88l-2.07 2.18-1.91 2.33a39.6 39.6 0 0 0-3.23 5.12 37 37 0 0 0-2.41 5.57 37 37 0 0 0-1.51 6 38.4 38.4 0 0 0-.52 6.29h4.86c5-17.8 32.69-20.79 44.83 0h23.47c0-21.49-14.94-38.86-33.37-38.86l-3.26.14z"/><path fill="#9d9d9d" d="M47.24.923c-1.86.37-4.31 1-6.13 1.47a41 41 0 0 0-5.71 2.35 39 39 0 0 0-5.21 3.15 86 86 0 0 0-4.64 3.88l-2.07 2.18-1.91 2.33a39.6 39.6 0 0 0-3.23 5.12 37 37 0 0 0-2.41 5.57 37 37 0 0 0-1.51 6 38.4 38.4 0 0 0-.52 6.29h4c6.71-23.15 35.76-17.09 45-3.73a36 36 0 0 1 2 3.73h22.16c0-21.49-14.94-38.86-33.37-38.86l-3.26.14z"/><path fill="#989898" d="M47.24.923c-1.86.37-4.31 1-6.13 1.47a41 41 0 0 0-5.71 2.35 39 39 0 0 0-5.21 3.15 86 86 0 0 0-4.64 3.88l-2.07 2.18-1.91 2.33a39.6 39.6 0 0 0-3.23 5.12 37 37 0 0 0-2.41 5.57 37 37 0 0 0-1.51 6 38.4 38.4 0 0 0-.52 6.29h3.23c6.42-25.2 37.87-18.34 47.25-3.81.67 1 .75 3.07 1.8 3.73h20.88c0-21.41-14.94-38.78-33.37-38.78l-3.26.14z"/><path fill="#949494" d="M47.24.923c-1.86.37-4.31 1-6.13 1.47a41 41 0 0 0-5.71 2.35 39 39 0 0 0-5.21 3.15 86 86 0 0 0-4.64 3.88l-2.07 2.18-1.91 2.33a39.6 39.6 0 0 0-3.23 5.12 37 37 0 0 0-2.41 5.57 37 37 0 0 0-1.51 6 38.4 38.4 0 0 0-.52 6.29h2.54c5-25.66 38.27-21.47 49.31-3.91.71 1.11.9 3.21 2 3.91h19.31c0-21.49-14.94-38.86-33.37-38.86l-3.26.14z"/><path fill="#909090" d="M47.24.923c-1.86.37-4.31 1-6.13 1.47a41 41 0 0 0-5.71 2.35 39 39 0 0 0-5.21 3.15 86 86 0 0 0-4.64 3.88l-2.07 2.18-1.91 2.33a39.6 39.6 0 0 0-3.23 5.12 37 37 0 0 0-2.41 5.57 37 37 0 0 0-1.51 6 38.4 38.4 0 0 0-.52 6.29h1.93c5.37-27.92 40.16-23.14 51.62-4a39 39 0 0 1 1.88 4h17.73c0-21.49-14.94-38.86-33.37-38.86l-3.26.14z"/><path fill="#8c8c8c" d="M47.24.923c-1.86.37-4.31 1-6.13 1.47a41 41 0 0 0-5.71 2.35 39 39 0 0 0-5.21 3.15 86 86 0 0 0-4.64 3.88l-2.07 2.18-1.91 2.33a39.6 39.6 0 0 0-3.23 5.12 37 37 0 0 0-2.41 5.57 37 37 0 0 0-1.51 6 38.4 38.4 0 0 0-.52 6.29h1.4c4.52-27.68 37.81-25.26 51.52-7.37 2.31 3 2.38 3.18 4 7.09l.11.28h16.13c0-21.49-14.94-38.86-33.37-38.86l-3.26.14z"/><path fill="#888" d="M47.24.923c-1.86.37-4.31 1-6.13 1.47a41 41 0 0 0-5.71 2.35 39 39 0 0 0-5.21 3.15 86 86 0 0 0-4.64 3.88l-2.07 2.18-1.91 2.33a39.6 39.6 0 0 0-3.23 5.12 37 37 0 0 0-2.41 5.57 37 37 0 0 0-1.51 6 38.4 38.4 0 0 0-.52 6.29h.94c3.61-27.73 38.4-28.57 53.87-7.37a24 24 0 0 1 3.52 6.51c.11.26.12.7.35.86h14.48c0-21.49-14.94-38.86-33.37-38.86l-3.26.14z"/><path fill="#848484" d="M47.24.923c-1.86.37-4.31 1-6.13 1.47a41 41 0 0 0-5.71 2.35 39 39 0 0 0-5.21 3.15 86 86 0 0 0-4.64 3.88l-2.07 2.18-1.91 2.33a39.6 39.6 0 0 0-3.23 5.12 37 37 0 0 0-2.41 5.57 37 37 0 0 0-1.51 6 38.4 38.4 0 0 0-.52 6.29h.56c3.45-30 37.38-29.25 53.4-10.88a31.8 31.8 0 0 1 6.08 10.02c.09.25.08.67.29.82h12.83c0-21.45-14.94-38.82-33.37-38.82l-3.26.14z"/><path fill="gray" d="M47.24.923c-1.86.37-4.31 1-6.13 1.47a41 41 0 0 0-5.71 2.35 39 39 0 0 0-5.21 3.15 86 86 0 0 0-4.64 3.88l-2.07 2.18-1.91 2.33a39.6 39.6 0 0 0-3.23 5.12 37 37 0 0 0-2.41 5.57 37 37 0 0 0-1.51 6 38.4 38.4 0 0 0-.52 6.29h.28C16.87 9.313 52 6.603 69.92 28.303a29.8 29.8 0 0 1 5.51 9.54c.14.4.13 1.1.47 1.34h11.16c0-21.41-14.94-38.78-33.37-38.78l-3.26.14z"/><path fill="#7c7c7c" d="M47.24.923c-1.86.37-4.31 1-6.13 1.47a41 41 0 0 0-5.71 2.35 39 39 0 0 0-5.21 3.15 86 86 0 0 0-4.64 3.88l-2.07 2.18-1.91 2.33a39.6 39.6 0 0 0-3.23 5.12 37 37 0 0 0-2.41 5.57 37 37 0 0 0-1.51 6 38.4 38.4 0 0 0-.52 6.29h.1c2.1-30.36 36.84-34.71 55.68-13.75 5 5.59 6.78 9.82 7.75 12.88.08.23 0 .64.26.79h9.37c0-21.41-14.94-38.78-33.37-38.78l-3.26.14z"/><path fill="#777" d="M47.24.923c-1.86.37-4.31 1-6.13 1.47a41 41 0 0 0-5.71 2.35 39 39 0 0 0-5.21 3.15 86 86 0 0 0-4.64 3.88l-2.07 2.18-1.91 2.33a39.6 39.6 0 0 0-3.23 5.12 37 37 0 0 0-2.41 5.57 37 37 0 0 0-1.51 6 38.4 38.4 0 0 0-.52 6.29c1.47-32 38-36.6 57.62-14.27 5.82 6.55 7.22 11.74 7.68 13.41.06.23 0 .61.21.75h7.65c0-21.38-14.94-38.75-33.37-38.75l-3.26.14z"/><path fill="#737373" d="M47.24.923c-1.86.37-4.31 1-6.13 1.47a41 41 0 0 0-5.71 2.35 39 39 0 0 0-5.21 3.15 86 86 0 0 0-4.64 3.88l-2.07 2.18-1.91 2.33a39.6 39.6 0 0 0-3.23 5.12 37 37 0 0 0-2.41 5.57 37 37 0 0 0-1.51 6c0 .22-.07.43-.1.65 5.55-31.32 45.53-30.22 62.19-5.32a35.5 35.5 0 0 1 3 5.66c.77 1.69.11 3.89 1.86 5.22h5.67C87.06 17.773 72.12.403 53.69.403l-3.26.14z"/><path fill="#6f6f6f" d="M47.24.923c-1.86.37-4.31 1-6.13 1.47a41 41 0 0 0-5.71 2.35 39 39 0 0 0-5.21 3.15 86 86 0 0 0-4.64 3.88l-2.07 2.18-1.91 2.33a39.6 39.6 0 0 0-3.23 5.12 37 37 0 0 0-2.41 5.57l-.26.76.92-2.5c15.07-31 57.76-15.36 65.87 10.26.35 1.1 0 3 .9 3.73h3.7c0-21.45-14.94-38.82-33.37-38.82l-3.26.14z"/><path fill="#6b6b6b" d="M47.24.923c-1.86.37-4.31 1-6.13 1.47a41 41 0 0 0-5.71 2.35 39 39 0 0 0-5.21 3.15 86 86 0 0 0-4.64 3.88l-2.07 2.18-1.91 2.33a39 39 0 0 0-3.11 4.87C35.87-8.007 77.34 9.793 85 35.453c.32 1.1 0 3 .85 3.73h1.25C87.06 17.773 72.12.403 53.69.403l-3.26.14zM53.69.413v39.3zm0 0v39.3zm0 0v39.3zm0 0v39.3zm0 0v39.3zm0 0v39.3zm0 0v39.3zm0 0v39.3z"/><path fill="#dcdcdc" d="M13.9 39.183c0-2.107.174-4.211.52-6.29a37 37 0 0 1 1.51-6 37 37 0 0 1 2.41-5.49 38.9 38.9 0 0 1 11.85-13.51 39 39 0 0 1 5.21-3.15 41 41 0 0 1 5.71-2.34c7.4-2.1 11.31-2.4 19.04-1.48a39 39 0 0 1 6.12 1.48A40 40 0 0 1 72 4.743a38.6 38.6 0 0 1 5.21 3.15 39.9 39.9 0 0 1 8.62 8.39c1 1.49 2.32 3.52 3.23 5.08a38 38 0 0 1 2.42 5.57 38 38 0 0 1 1.5 6 37.3 37.3 0 0 1 .53 6.29H13.9"/><path fill="#dcdcdc" d="M60.15.923a39 39 0 0 1 6.12 1.48A40 40 0 0 1 72 4.743a38.6 38.6 0 0 1 5.21 3.15 39.9 39.9 0 0 1 8.62 8.39c1 1.49 2.32 3.52 3.23 5.08a38 38 0 0 1 2.42 5.57 38 38 0 0 1 1.5 6 37.3 37.3 0 0 1 .53 6.29H13.9c0-2.107.174-4.211.52-6.29a37.2 37.2 0 0 1 3.92-11.53 39.6 39.6 0 0 1 3.23-5.08c1.15-1.4 2.74-3.21 4-4.51l2.24-2 2.4-1.85a39 39 0 0 1 5.19-3.22 41 41 0 0 1 5.71-2.34c1.82-.52 4.27-1.1 6.13-1.47l3.19-.39 3.26-.14 3.31.14 3.19.38"/><path fill="#dbdbdb" d="M60.15.923a39 39 0 0 1 6.12 1.48A40 40 0 0 1 72 4.743a38.6 38.6 0 0 1 5.21 3.15 39.9 39.9 0 0 1 8.62 8.39c1 1.49 2.32 3.52 3.23 5.08a38 38 0 0 1 2.42 5.57 38 38 0 0 1 1.5 6 37.3 37.3 0 0 1 .53 6.29H13.9c0-2.107.174-4.211.52-6.29a37.2 37.2 0 0 1 3.92-11.53 39.6 39.6 0 0 1 3.23-5.08c1.15-1.4 2.74-3.21 4-4.51l2.24-2 2.4-1.85a39 39 0 0 1 5.19-3.22 41 41 0 0 1 5.71-2.34c1.82-.52 4.27-1.1 6.13-1.47l3.19-.39 3.26-.14 3.31.14 3.19.38"/><path fill="#dadada" d="M60.15.923a39 39 0 0 1 6.12 1.48A40 40 0 0 1 72 4.743a38.6 38.6 0 0 1 5.21 3.15 39.9 39.9 0 0 1 8.62 8.39c1 1.49 2.32 3.52 3.23 5.08a38 38 0 0 1 2.42 5.57 38 38 0 0 1 1.5 6 37.3 37.3 0 0 1 .53 6.29H13.9c0-2.107.174-4.211.52-6.29a37.2 37.2 0 0 1 3.92-11.53 39.6 39.6 0 0 1 3.23-5.08c1.15-1.4 2.74-3.21 4-4.51l2.24-2 2.4-1.85a39 39 0 0 1 5.19-3.22 41 41 0 0 1 5.71-2.34c1.82-.52 4.27-1.1 6.13-1.47l3.19-.39 3.26-.14 3.31.14 3.19.38"/><path fill="#d8d8d8" d="M60.15.923a39 39 0 0 1 6.12 1.48A40 40 0 0 1 72 4.743a38.6 38.6 0 0 1 5.21 3.15 39.9 39.9 0 0 1 8.62 8.39c1 1.49 2.32 3.52 3.23 5.08a38 38 0 0 1 2.42 5.57 38 38 0 0 1 1.5 6 37.3 37.3 0 0 1 .53 6.29H72.83c9.44-16.68-9.37-19.22-11.32-18.94-.16 0-16.15 2.78-6.36 18.94H13.9c0-2.107.174-4.211.52-6.29a37.2 37.2 0 0 1 3.92-11.53 39.6 39.6 0 0 1 3.23-5.08c1.15-1.4 2.74-3.21 4-4.51l2.24-2 2.4-1.85a39 39 0 0 1 5.19-3.22 41 41 0 0 1 5.71-2.34c1.82-.52 4.27-1.1 6.13-1.47l3.19-.39 3.26-.14 3.31.14 3.19.38"/><path fill="#d6d6d6" d="M60.15.923a39 39 0 0 1 6.12 1.48A40 40 0 0 1 72 4.743a38.6 38.6 0 0 1 5.21 3.15 39.9 39.9 0 0 1 8.62 8.39c1 1.49 2.32 3.52 3.23 5.08a38 38 0 0 1 2.42 5.57 38 38 0 0 1 1.5 6 37.3 37.3 0 0 1 .53 6.29H73.83c8.86-17.33-10.44-19.91-12.4-19.61-.17 0-16.64 2.68-7 19.61H13.9c0-2.107.174-4.211.52-6.29a37.2 37.2 0 0 1 3.92-11.53 39.6 39.6 0 0 1 3.23-5.08c1.15-1.4 2.74-3.21 4-4.51l2.24-2 2.4-1.85a39 39 0 0 1 5.19-3.22 41 41 0 0 1 5.71-2.34c1.82-.52 4.27-1.1 6.13-1.47l3.19-.39 3.26-.14 3.31.14 3.19.38"/><path fill="#d4d4d4" d="M60.15.923a39 39 0 0 1 6.12 1.48A40 40 0 0 1 72 4.743a38.6 38.6 0 0 1 5.21 3.15 39.9 39.9 0 0 1 8.62 8.39c1 1.49 2.32 3.52 3.23 5.08a38 38 0 0 1 2.42 5.57 38 38 0 0 1 1.5 6 37.3 37.3 0 0 1 .53 6.29H74.83c8.22-18.22-10.62-22.72-17.95-18.87-10.5 5.51-5 15.57-3.14 18.87H13.9c0-2.107.174-4.211.52-6.29a37.2 37.2 0 0 1 3.92-11.53 39.6 39.6 0 0 1 3.23-5.08c1.15-1.4 2.74-3.21 4-4.51l2.24-2 2.4-1.85a39 39 0 0 1 5.19-3.22 41 41 0 0 1 5.71-2.34c1.82-.52 4.27-1.1 6.13-1.47l3.19-.39 3.26-.14 3.31.14 3.19.38"/><path fill="#cecece" d="M60.15.923a39 39 0 0 1 6.12 1.48A40 40 0 0 1 72 4.743a38.6 38.6 0 0 1 5.21 3.15 39.9 39.9 0 0 1 8.62 8.39c1 1.49 2.32 3.52 3.23 5.08a38 38 0 0 1 2.42 5.57 38 38 0 0 1 1.5 6 37.3 37.3 0 0 1 .53 6.29H75.83c7.71-19.86-11.07-23.75-19-19.66-7.56 3.84-8.83 10.48-3.83 19.62H13.9c0-2.107.174-4.211.52-6.29a37 37 0 0 1 1.51-6 37 37 0 0 1 2.41-5.49 39.6 39.6 0 0 1 3.23-5.08c1.15-1.4 2.74-3.21 4-4.51l2.24-2 2.4-1.85a39 39 0 0 1 5.19-3.22 41 41 0 0 1 5.71-2.34c1.82-.52 4.27-1.1 6.13-1.47l3.19-.39 3.26-.14 3.31.14 3.19.38"/><path fill="#cacaca" d="M60.15.923a39 39 0 0 1 6.12 1.48A40 40 0 0 1 72 4.743a38.6 38.6 0 0 1 5.21 3.15 39.9 39.9 0 0 1 8.62 8.39c1 1.49 2.32 3.52 3.23 5.08a38 38 0 0 1 2.42 5.57 38 38 0 0 1 1.5 6 37.3 37.3 0 0 1 .53 6.29H76.8c8.33-23.15-13.28-23.91-20-20.44-5.58 2.88-10.88 8.77-4.47 20.44H13.9c0-2.107.174-4.211.52-6.29a37.2 37.2 0 0 1 3.92-11.53 39.6 39.6 0 0 1 3.23-5.08c1.15-1.4 2.74-3.21 4-4.51l2.24-2 2.4-1.85a39 39 0 0 1 5.19-3.22 41 41 0 0 1 5.71-2.34c1.82-.52 4.27-1.1 6.13-1.47l3.19-.39 3.26-.14 3.31.14 3.19.38"/><path fill="#c6c6c6" d="M60.15.923a39 39 0 0 1 6.12 1.48A40 40 0 0 1 72 4.743a38.6 38.6 0 0 1 5.21 3.15 39.9 39.9 0 0 1 8.62 8.39c1 1.49 2.32 3.52 3.23 5.08a38 38 0 0 1 2.42 5.57 38 38 0 0 1 1.5 6 37.3 37.3 0 0 1 .53 6.29H77.77c7.79-16.45-6.36-25.4-16.87-23-.19 0-18.79 4.48-9.34 23H13.9c0-2.107.174-4.211.52-6.29a37.2 37.2 0 0 1 3.92-11.53 39.6 39.6 0 0 1 3.23-5.08c1.15-1.4 2.74-3.21 4-4.51l2.24-2 2.4-1.85a39 39 0 0 1 5.19-3.22 41 41 0 0 1 5.71-2.34c1.82-.52 4.27-1.1 6.13-1.47l3.19-.39 3.26-.14 3.31.14 3.19.38"/><path fill="#c2c2c2" d="M60.15.923a39 39 0 0 1 6.12 1.48A40 40 0 0 1 72 4.743a38.6 38.6 0 0 1 5.21 3.15 39.9 39.9 0 0 1 8.62 8.39c1 1.49 2.32 3.52 3.23 5.08a38 38 0 0 1 2.42 5.57 38 38 0 0 1 1.5 6 37.3 37.3 0 0 1 .53 6.29H79.18c8.27-20.35-10.18-26.59-18.48-24.2-3.13.91-18.35 6.34-10 24.16H13.9c0-2.107.174-4.211.52-6.29a37 37 0 0 1 1.51-6 37 37 0 0 1 2.41-5.49 39.6 39.6 0 0 1 3.23-5.08c1.15-1.4 2.74-3.21 4-4.51l2.24-2 2.4-1.85a39 39 0 0 1 5.19-3.22 41 41 0 0 1 5.71-2.34c1.82-.52 4.27-1.1 6.13-1.47l3.19-.39 3.26-.14 3.31.14 3.19.38"/><path fill="#bebebe" d="M60.15.923a39 39 0 0 1 6.12 1.48A40 40 0 0 1 72 4.743a38.6 38.6 0 0 1 5.21 3.15 39.9 39.9 0 0 1 8.62 8.39c1 1.49 2.32 3.52 3.23 5.08a38 38 0 0 1 2.42 5.57 38 38 0 0 1 1.5 6 37.3 37.3 0 0 1 .53 6.29h-13c8.49-24.63-14.7-29.07-23.93-23.82-13.58 7.78-8.37 19.82-6.66 23.78h-36c0-2.107.174-4.211.52-6.29a37.2 37.2 0 0 1 3.9-11.49 39.6 39.6 0 0 1 3.23-5.08c1.15-1.4 2.74-3.21 4-4.51l2.24-2 2.4-1.85a39 39 0 0 1 5.19-3.22 41 41 0 0 1 5.71-2.34c1.82-.52 4.27-1.1 6.13-1.47l3.19-.39 3.26-.14 3.31.14 3.19.38"/><path fill="#b9b9b9" d="M60.15.923a39 39 0 0 1 6.12 1.48A40 40 0 0 1 72 4.743a38.6 38.6 0 0 1 5.21 3.15 39.9 39.9 0 0 1 8.62 8.39c1 1.49 2.32 3.52 3.23 5.08a38 38 0 0 1 2.42 5.57 38 38 0 0 1 1.5 6 37.3 37.3 0 0 1 .53 6.29h-11.7c8.66-23.19-14.67-31.11-25.34-25.21-9.41 5.2-11.89 13.67-7.37 25.17H13.9c0-2.107.174-4.211.52-6.29a37 37 0 0 1 1.51-6 37 37 0 0 1 2.41-5.49 39.6 39.6 0 0 1 3.23-5.08c1.15-1.4 2.74-3.21 4-4.51l2.24-2 2.4-1.85a39 39 0 0 1 5.19-3.22 41 41 0 0 1 5.71-2.34c1.82-.52 4.27-1.1 6.13-1.47l3.19-.39 3.26-.14 3.31.14 3.19.38"/><path fill="#b5b5b5" d="M60.15.923a39 39 0 0 1 6.12 1.48A40 40 0 0 1 72 4.743a38.6 38.6 0 0 1 5.21 3.15 39.9 39.9 0 0 1 8.62 8.39c1 1.49 2.32 3.52 3.23 5.08a38 38 0 0 1 2.42 5.57 38 38 0 0 1 1.5 6 37.3 37.3 0 0 1 .53 6.29H83.27c7.59-22.44-14.61-33-26.92-26.58-14.75 7.69-9.72 21.91-8.07 26.58H13.9c0-2.107.174-4.211.52-6.29a37.2 37.2 0 0 1 3.92-11.53 39.6 39.6 0 0 1 3.23-5.08c1.15-1.4 2.74-3.21 4-4.51l2.24-2 2.4-1.85a39 39 0 0 1 5.19-3.22 41 41 0 0 1 5.71-2.34c1.82-.52 4.27-1.1 6.13-1.47l3.19-.39 3.26-.14 3.31.14 3.19.38"/><path fill="#b1b1b1" d="M60.15.923a39 39 0 0 1 6.12 1.48A40 40 0 0 1 72 4.743a38.6 38.6 0 0 1 5.21 3.15 39.9 39.9 0 0 1 8.62 8.39c1 1.49 2.32 3.52 3.23 5.08a38 38 0 0 1 2.42 5.57 38 38 0 0 1 1.5 6 37.3 37.3 0 0 1 .53 6.29h-8.86c7-22.93-16.07-34.33-28.44-28-15.53 7.91-10.42 23.05-8.74 28H13.9c0-2.107.174-4.211.52-6.29a37.2 37.2 0 0 1 3.92-11.53 39.6 39.6 0 0 1 3.23-5.08c1.15-1.4 2.74-3.21 4-4.51l2.24-2 2.4-1.85a39 39 0 0 1 5.19-3.22 41 41 0 0 1 5.71-2.34c1.82-.52 4.27-1.1 6.13-1.47l3.19-.39 3.26-.14 3.31.14 3.19.38"/><path fill="#adadad" d="M60.15.923a39 39 0 0 1 6.12 1.48A40 40 0 0 1 72 4.743a38.6 38.6 0 0 1 5.21 3.15 39.9 39.9 0 0 1 8.62 8.39c1 1.49 2.32 3.52 3.23 5.08a38 38 0 0 1 2.42 5.57 38 38 0 0 1 1.5 6 37.3 37.3 0 0 1 .53 6.29h-7.6c6.09-24.68-18.63-35.82-31.26-28.66-3.85 2.19-15.8 10.75-8 28.62H13.9c0-2.107.174-4.211.52-6.29a37 37 0 0 1 1.51-6 37 37 0 0 1 2.41-5.49 39.6 39.6 0 0 1 3.23-5.08c1.15-1.4 2.74-3.21 4-4.51l2.24-2 2.4-1.85a39 39 0 0 1 5.19-3.22 41 41 0 0 1 5.71-2.34c1.82-.52 4.27-1.1 6.13-1.47l3.19-.39 3.26-.14 3.31.14 3.19.38"/><path fill="#a9a9a9" d="M60.15.923a39 39 0 0 1 6.12 1.48A40 40 0 0 1 72 4.743a38.6 38.6 0 0 1 5.21 3.15 39.9 39.9 0 0 1 8.62 8.39c1 1.49 2.32 3.52 3.23 5.08a38 38 0 0 1 2.42 5.57 38 38 0 0 1 1.5 6 37.3 37.3 0 0 1 .53 6.29H87c5.44-24.76-19.36-37.76-34.43-28.97-1.54.9-14.84 9.36-7.13 28.93H13.9c0-2.107.174-4.211.52-6.29a37 37 0 0 1 1.51-6 37 37 0 0 1 2.41-5.49 39.6 39.6 0 0 1 3.23-5.08c1.15-1.4 2.74-3.21 4-4.51l2.24-2 2.4-1.85a39 39 0 0 1 5.19-3.22 41 41 0 0 1 5.71-2.34c1.82-.52 4.27-1.1 6.13-1.47l3.19-.39 3.26-.14 3.31.14 3.19.38"/><path fill="#a5a5a5" d="M60.15.923a39 39 0 0 1 6.12 1.48A40 40 0 0 1 72 4.743a38.6 38.6 0 0 1 5.21 3.15 39.9 39.9 0 0 1 8.62 8.39c1 1.49 2.32 3.52 3.23 5.08a38 38 0 0 1 2.42 5.57 38 38 0 0 1 1.5 6 37.3 37.3 0 0 1 .53 6.29h-5.45C93.3 14.483 67.59.283 52.64 8.813c-4.78 2.72-15.17 11.14-8.38 30.37H13.9c0-2.107.174-4.211.52-6.29a37 37 0 0 1 1.51-6 37 37 0 0 1 2.41-5.49 39.6 39.6 0 0 1 3.23-5.08c1.15-1.4 2.74-3.21 4-4.51l2.24-2 2.4-1.85a39 39 0 0 1 5.19-3.22 41 41 0 0 1 5.71-2.34c1.82-.52 4.27-1.1 6.13-1.47l3.19-.39 3.26-.14 3.31.14 3.19.38"/><path fill="#a1a1a1" d="M60.15.923a39 39 0 0 1 6.12 1.48A40 40 0 0 1 72 4.743a38.6 38.6 0 0 1 5.21 3.15 39.9 39.9 0 0 1 8.62 8.39c1 1.49 2.32 3.52 3.23 5.08a38 38 0 0 1 2.42 5.57 38 38 0 0 1 1.5 6 37.3 37.3 0 0 1 .53 6.29H89c4.11-27.32-24.63-40.47-39.82-29.59-12.52 9-7.68 24.46-6.09 29.55H13.9c0-2.107.174-4.211.52-6.29a37 37 0 0 1 1.51-6 37 37 0 0 1 2.41-5.49 39.6 39.6 0 0 1 3.23-5.08c1.15-1.4 2.74-3.21 4-4.51l2.24-2 2.4-1.85a39 39 0 0 1 5.19-3.22 41 41 0 0 1 5.71-2.34c1.82-.52 4.27-1.1 6.13-1.47l3.19-.39 3.26-.14 3.31.14 3.19.38"/><path fill="#9d9d9d" d="M60.15.923a39 39 0 0 1 6.12 1.48A40 40 0 0 1 72 4.743a38.6 38.6 0 0 1 5.21 3.15 39.9 39.9 0 0 1 8.62 8.39c1 1.49 2.32 3.52 3.23 5.08a38 38 0 0 1 2.42 5.57 38 38 0 0 1 1.5 6 37.3 37.3 0 0 1 .53 6.29h-3.73c3.76-29.34-27.2-40.55-40.73-30.91s-9.48 22.9-7.13 30.87h-28c0-2.107.174-4.211.52-6.29a37.2 37.2 0 0 1 3.9-11.49 39.6 39.6 0 0 1 3.23-5.08c1.15-1.4 2.74-3.21 4-4.51l2.24-2 2.4-1.85a39 39 0 0 1 5.19-3.22 41 41 0 0 1 5.71-2.34c1.82-.52 4.27-1.1 6.13-1.47l3.19-.39 3.26-.14 3.31.14 3.19.38"/><path fill="#989898" d="M60.15.923a39 39 0 0 1 6.12 1.48A40 40 0 0 1 72 4.743a38.6 38.6 0 0 1 5.21 3.15 39.9 39.9 0 0 1 8.62 8.39c1 1.49 2.32 3.52 3.23 5.08a38 38 0 0 1 2.42 5.57 38 38 0 0 1 1.5 6 37.3 37.3 0 0 1 .53 6.29h-3c3.49-26.9-25.42-43.27-43.38-30.91-5.24 3.6-13.06 12.41-6.62 30.87H13.9c0-2.107.174-4.211.52-6.29a37 37 0 0 1 1.51-6 37 37 0 0 1 2.41-5.49 39.6 39.6 0 0 1 3.23-5.08c1.15-1.4 2.74-3.21 4-4.51l2.24-2 2.4-1.85a39 39 0 0 1 5.19-3.22 41 41 0 0 1 5.71-2.34c1.82-.52 4.27-1.1 6.13-1.47l3.19-.39 3.26-.14 3.31.14 3.19.38"/><path fill="#949494" d="M60.15.923a39 39 0 0 1 6.12 1.48A40 40 0 0 1 72 4.743a38.6 38.6 0 0 1 5.21 3.15 39.9 39.9 0 0 1 8.62 8.39c1 1.49 2.32 3.52 3.23 5.08a38 38 0 0 1 2.42 5.57 38 38 0 0 1 1.5 6 37.3 37.3 0 0 1 .53 6.29h-2.34c2.51-30.37-30-43.6-45.84-30.87-12.88 10.3-8.13 25.22-6.33 30.83H13.9c0-2.107.174-4.211.52-6.29a37 37 0 0 1 1.51-6 37 37 0 0 1 2.41-5.49 39.6 39.6 0 0 1 3.23-5.08c1.15-1.4 2.74-3.21 4-4.51l2.24-2 2.4-1.85a39 39 0 0 1 5.19-3.22 41 41 0 0 1 5.71-2.34c1.82-.52 4.27-1.1 6.13-1.47l3.19-.39 3.26-.14 3.31.14 3.19.38"/><path fill="#909090" d="M60.15.923a39 39 0 0 1 6.12 1.48A40 40 0 0 1 72 4.743a38.6 38.6 0 0 1 5.21 3.15 39.9 39.9 0 0 1 8.62 8.39c1 1.49 2.32 3.52 3.23 5.08a38 38 0 0 1 2.42 5.57 38 38 0 0 1 1.5 6 37.3 37.3 0 0 1 .53 6.29h-1.77c1.97-31.82-33.11-44.82-48.65-30.43-11.21 10.37-7.83 22.42-5.59 30.39H13.9c0-2.107.174-4.211.52-6.29a37 37 0 0 1 1.51-6 37 37 0 0 1 2.41-5.49 39.6 39.6 0 0 1 3.23-5.08c1.15-1.4 2.74-3.21 4-4.51l2.24-2 2.4-1.85a39 39 0 0 1 5.19-3.22 41 41 0 0 1 5.71-2.34c1.82-.52 4.27-1.1 6.13-1.47l3.19-.39 3.26-.14 3.31.14 3.19.38"/><path fill="#8c8c8c" d="M60.15.923a39 39 0 0 1 6.12 1.48A40 40 0 0 1 72 4.743a38.6 38.6 0 0 1 5.21 3.15 39.9 39.9 0 0 1 8.62 8.39c1 1.49 2.32 3.52 3.23 5.08a38 38 0 0 1 2.42 5.57 38 38 0 0 1 1.5 6 37.3 37.3 0 0 1 .53 6.29h-1.28C94.37 9.543 59.84-7.217 42 8.313c-12.25 10.7-7.58 25.88-6 30.87H13.9c0-2.107.174-4.211.52-6.29a37 37 0 0 1 1.51-6 37 37 0 0 1 2.41-5.49 39.6 39.6 0 0 1 3.23-5.08c1.15-1.4 2.74-3.21 4-4.51l2.24-2 2.4-1.85a39 39 0 0 1 5.19-3.22 41 41 0 0 1 5.71-2.34c1.82-.52 4.27-1.1 6.13-1.47l3.19-.39 3.26-.14 3.31.14 3.19.38"/><path fill="#888" d="M60.15.923a39 39 0 0 1 6.12 1.48A40 40 0 0 1 72 4.743a38.6 38.6 0 0 1 5.21 3.15 39.9 39.9 0 0 1 8.62 8.39c1 1.49 2.32 3.52 3.23 5.08a38 38 0 0 1 2.42 5.57 38 38 0 0 1 1.5 6 37.3 37.3 0 0 1 .53 6.29h-.83c.8-31.32-33.91-47.37-52.09-30.99-12 10.79-8 24.92-6.29 31H13.9c0-2.107.174-4.211.52-6.29a37 37 0 0 1 1.51-6 37 37 0 0 1 2.41-5.54 39.6 39.6 0 0 1 3.23-5.08c1.15-1.4 2.74-3.21 4-4.51l2.24-2 2.4-1.85a39 39 0 0 1 5.19-3.22 41 41 0 0 1 5.71-2.34c1.82-.52 4.27-1.1 6.13-1.47l3.19-.39 3.26-.14 3.31.14 3.19.38"/><path fill="#848484" d="M60.15.923a39 39 0 0 1 6.12 1.48A40 40 0 0 1 72 4.743a38.6 38.6 0 0 1 5.21 3.15 39.9 39.9 0 0 1 8.62 8.39c1 1.49 2.32 3.52 3.23 5.08a38 38 0 0 1 2.42 5.57 38 38 0 0 1 1.5 6 37.3 37.3 0 0 1 .53 6.29H93c.23-32.27-35.68-48.12-54-30.91-11.28 10.6-8 23.79-6.3 30.87H13.9c0-2.107.174-4.211.52-6.29a37 37 0 0 1 1.51-6 37 37 0 0 1 2.41-5.49 39.6 39.6 0 0 1 3.23-5.08c1.15-1.4 2.74-3.21 4-4.51l2.24-2 2.4-1.85a39 39 0 0 1 5.19-3.22 41 41 0 0 1 5.71-2.34c1.82-.52 4.27-1.1 6.13-1.47l3.19-.39 3.26-.14 3.31.14 3.19.38"/><path fill="gray" d="M91.46 26.933a38 38 0 0 1 1.5 6 37.3 37.3 0 0 1 .53 6.29h-.23a34.5 34.5 0 0 0-2.33-13.7l.53 1.45M60.15.923a39 39 0 0 1 6.12 1.48A40 40 0 0 1 72 4.743c1 .52 2.06 1.09 3 1.71-24.37-13.83-52.23 1.32-44 32.73H13.9c0-2.107.174-4.211.52-6.29a37 37 0 0 1 1.51-6 37 37 0 0 1 2.41-5.49 39.6 39.6 0 0 1 3.23-5.08c1.15-1.4 2.74-3.21 4-4.51l2.24-2 2.4-1.85a39 39 0 0 1 5.19-3.22 41 41 0 0 1 5.71-2.34c1.82-.52 4.27-1.1 6.13-1.47l3.19-.39 3.26-.14 3.31.14 3.19.38"/><path fill="#7c7c7c" d="M93 32.893a37.3 37.3 0 0 1 .53 6.29h-.06a42 42 0 0 0-.47-6.32M60.15.923a39 39 0 0 1 6.12 1.48l1.58.55-2-.67c-19.28-5.65-43.7 6.2-36.58 36.91H13.9c0-2.107.174-4.211.52-6.29a36.7 36.7 0 0 1 3.92-11.5 39.6 39.6 0 0 1 3.23-5.08c1.15-1.4 2.74-3.21 4-4.51l2.24-2 2.4-1.85a39 39 0 0 1 5.19-3.22 41 41 0 0 1 5.71-2.34c1.82-.52 4.27-1.1 6.13-1.47l3.19-.39 3.26-.14 3.31.14 3.19.38"/><path fill="#777" d="M60.15.923c.41.06.81.13 1.22.21-18.31-3.15-40.21 8.32-33.74 38.05H13.9c0-2.107.174-4.211.52-6.29a37 37 0 0 1 1.51-6 37 37 0 0 1 2.41-5.49 39.6 39.6 0 0 1 3.23-5.08c1.15-1.4 2.74-3.21 4-4.51l2.24-2 2.4-1.85a39 39 0 0 1 5.19-3.22 41 41 0 0 1 5.71-2.34c1.82-.52 4.27-1.1 6.13-1.47l3.19-.39 3.26-.14 3.31.14 3.19.38"/><path fill="#737373" d="M53.69.403C39.83.563 20 11.223 25.64 39.183H13.9c0-2.107.174-4.211.52-6.29a37 37 0 0 1 1.51-6 37 37 0 0 1 2.41-5.49 39.6 39.6 0 0 1 3.23-5.08c1.15-1.4 2.74-3.21 4-4.51l2.24-2 2.4-1.85a39 39 0 0 1 5.19-3.22 41 41 0 0 1 5.71-2.34c1.82-.52 4.27-1.1 6.13-1.47l3.19-.39z"/><path fill="#6f6f6f" d="M20.32 39.183H13.9c0-2.107.174-4.211.52-6.29a37 37 0 0 1 1.51-6 37 37 0 0 1 2.41-5.49 39.6 39.6 0 0 1 3.23-5.08c1.15-1.4 2.74-3.21 4-4.51l2.24-2 2.4-1.85a39 39 0 0 1 5.19-3.22 41 41 0 0 1 5.71-2.34c1.82-.52 4.27-1.1 6.13-1.47.46-.08.92-.14 1.38-.2-3.16.4-30.69 4.9-24.87 38.46h-3.43"/><path fill="#6b6b6b" d="M20.32 39.183H13.9c0-2.107.174-4.211.52-6.29a37 37 0 0 1 1.51-6 37 37 0 0 1 2.41-5.49 39.6 39.6 0 0 1 3.23-5.08c1.15-1.4 2.74-3.21 4-4.51l2.24-2 2.4-1.85a39 39 0 0 1 5.19-3.22 40 40 0 0 1 5.7-2.34c-8.94 3-23.41 11.73-20 36.79h-.81"/><path fill="#dadada" d="M74.11 35.453a27 27 0 0 1-2.17 3.73H55.85c-5.14-8-4.06-9.82-1.45-14.27.9-1.51 5.39-5.22 11.9-3.51.8.21 4.94 1.52 7.94 6.92 1.49 2.67.15 6.42-.13 7.15"/><path fill="#dbdbdb" d="M73.3 35.453c-.11.27-2.17 3.69-2.25 3.73H56.56c-1.57-2.3-5.24-7.7-3.39-10.88 2.63-4.56 2.63-4.56 3.85-5.13 1.72-.8 5.29-2.47 9.41-1.07a15.3 15.3 0 0 1 4.57 2.81 12.7 12.7 0 0 1 2.46 3.39c.5 1 1.54 3-.12 7.15"/><path fill="#dcdcdc" d="M72.78 34.463c-.28 1.15-.28 1.15-2.63 4.72H57.27c-1.89-2.64-5.41-7.55-3.53-10.88 1.1-1.95 2.35-4 3.3-4.46a19 19 0 0 1 4.71-1.69 12.25 12.25 0 0 1 4.8.62 12.18 12.18 0 0 1 6 5.53c1.16 2.17 1.09 2.47.18 6.16"/><path fill="#dedede" d="M72.61 32.203a17 17 0 0 1-.73 3.25 30 30 0 0 1-2.64 3.73h-10.8a8.66 8.66 0 0 1-3.28-3.73c-1.5-3.95-1.5-3.95-.84-7.15a26.5 26.5 0 0 1 2.75-3.8 10.8 10.8 0 0 1 4.74-1.81 13.5 13.5 0 0 1 4.85.76 7.6 7.6 0 0 1 2.34 1.46c4.19 3.69 3.74 6.72 3.6 7.29"/><path fill="#dfdfdf" d="M71.2 35.453a24.4 24.4 0 0 1-2.87 3.73h-8.67a16.4 16.4 0 0 1-3.93-3.73 6 6 0 0 1-1.33-3.64c.58-4.17.58-4.17 2.7-6.6.12-.14 4.48-1.95 4.76-2a9.54 9.54 0 0 1 4.91.9 16.2 16.2 0 0 1 4.39 4.17c1.47 1.92.89 5.4 0 7.15"/><path fill="#e0e0e0" d="M70.52 35.453c-1.5 2.94-3.16 3.47-4 3.73h-5.64c-1.06-.69-2.75-1.33-3.55-2.31a11.9 11.9 0 0 1-2.4-5.06c.24-3.52.24-3.59 2.19-5.84a24.4 24.4 0 0 1 4.8-2.19 10 10 0 0 1 5 1c.26.14 3.59 3.45 3.6 3.48 2.17 2.93.14 7 0 7.15"/><path fill="#e1e1e1" d="M69.84 35.453c-1.16 2.21-1.16 2.21-6 3.73H62.1c-1.43-.94-3.63-1.84-4.77-3.11s-1.88-4.23-1.88-4.26c0-3.09.93-4.18 1.7-5.06a26.2 26.2 0 0 1 4.85-2.42 10.55 10.55 0 0 1 5 1.23 9.3 9.3 0 0 1 2.8 2.74c.82 1.15 1.92 3.62.06 7.15"/><path fill="#e2e2e2" d="M69.16 35.453a4 4 0 0 1-1.31 1.62c-1.46.76-3.56 2-5.19 1.74 0 0-5.08-3.11-5.34-3.64-.47-1-1.32-2.27-1.35-3.36 0 0 .16-3.35 1.2-4.28 0 0 4.77-2.64 4.86-2.65s5 1.43 5 1.45c2.22.72 3.18 5.44 3.18 5.48a8.65 8.65 0 0 1-1.1 3.64"/><path fill="#e2e2e2" d="M68.47 35.453a1.9 1.9 0 0 1-.64.79c-1.5.69-3.53 2.07-5.18 1.88-1.45-.17-2.94-1.75-4.08-2.67a6.1 6.1 0 0 1-1.26-1.64 5 5 0 0 1-.81-2 6.4 6.4 0 0 1 .7-3.47 8 8 0 0 1 4.88-2.86c1.59-.18 3.63 1 5.09 1.62a3.27 3.27 0 0 1 1.22 1.2 7.5 7.5 0 0 1 1.26 3.51 8.6 8.6 0 0 1-1.18 3.64"/><path fill="#e3e3e3" d="M67.81 35.403c-.15.22-5.13 2.07-5.16 2.07-.69-.08-4.26-2.64-5.36-5-.77-1.61 1-4.14 1-4.16a7 7 0 0 1 3.8-2.21s5 1.36 5.56 2.21a7.9 7.9 0 0 1 1.35 3.5 7.34 7.34 0 0 1-1.19 3.59"/><path fill="#e4e4e4" d="M67.74 33.803c-1.45 2.25-5.07 3-5.1 3a4 4 0 0 1-2-1.3c-1-1-2.7-2.26-2.85-3.64-.13-1.15.89-2.63 1.65-3.51a4.86 4.86 0 0 1 2.74-1.6c1.39-.13 3.12 1 4.38 1.6.34.16.61.62.84.91a4.71 4.71 0 0 1 .34 4.59"/><path fill="#e5e5e5" d="M67.65 32.243a14.9 14.9 0 0 1-3.41 3.21 2.67 2.67 0 0 1-1.61.62 1.8 1.8 0 0 1-1-.62c-.94-1-2.75-2.25-2.89-3.64-.12-1.17 1-2.58 1.77-3.51a2.8 2.8 0 0 1 1.68-1 4.08 4.08 0 0 1 2.69 1 19.5 19.5 0 0 1 2.66 2.94c.186.302.212.675.07 1"/><path fill="#e6e6e6" d="M62.61 35.403c-1.35-.12-2.72-2.18-2.84-3.54-.11-1.19 1.24-2.51 1.89-3.51a1 1 0 0 1 .61-.36 1.5 1.5 0 0 1 1 .36c1.08 1 3.38 2.07 3.31 3.51-.07 1.6-2.37 3.68-4 3.54"/><path fill="#e6e6e6" d="M62.58 34.063c-.87-.07-1.75-1.38-1.83-2.25s.62-2.71 1.59-2.85c1.18-.16 2.82 1.66 2.77 2.85a2.87 2.87 0 0 1-2.53 2.25"/><path fill="#e7e7e7" d="M62.53 32.793c-.37 0-.76-.6-.79-1s.27-1.19.69-1.25 1.23.73 1.21 1.25a1.28 1.28 0 0 1-1.11 1"/><path fill="#dcdcdc" d="M13.92 39.713v-.16a1 1 0 0 0 0-.16v-.21h79.57v.53z"/><path fill="#dcdcdc" d="M93.48 39.283v.43H13.92v-.53h79.57v.1"/><path fill="#dbdbdb" d="M93.48 39.283v.43H13.92v-.53h79.57v.1"/><path fill="#dadada" d="M93.48 39.283v.43H68.52c-3.2-.1-3.2-.1-8.66 0H13.92v-.53h79.57v.1"/><path fill="#d8d8d8" d="M61.42 39.553a17.4 17.4 0 0 1-2.83.16H13.92a3 3 0 0 0 0-.32c0-.21 2.07-.21 6.42-.21h34.81c.41 0 5.61.22 6.21.31zm32.06-.27v.28c0 .11-6.38.11-18.11.11H69.6c-1.53-.06-2.23-.14-2.51-.18 0 0 4.68-.32 5.74-.35h20.66v.1"/><path fill="#d6d6d6" d="M59.83 39.553a17 17 0 0 1-2.5.16H13.92a3 3 0 0 0 0-.32c0-.21 2.07-.21 6.42-.21h34.1c1.51 0 4.8.23 5.34.31v.06m33.7-.27v.28c0 .11-6.38.11-18.11.11h-4.7a8.5 8.5 0 0 1-1.49-.15 31.6 31.6 0 0 1 4.65-.38h19.66v.1"/><path fill="#d4d4d4" d="M58.24 39.553c-.568.1-1.144.153-1.72.16h-42.6a3 3 0 0 0 0-.32c0-.21 2.07-.21 6.42-.21h33.4c2.77.08 4.44.31 4.45.31s0 0 .05.06m35.24-.27v.28c0 .11-6.38.11-18.11.11h-3.63a7 7 0 0 1-1.13-.15 24 24 0 0 1 4.22-.38h18.66v.1"/><path fill="#cecece" d="M56.91 39.553a3.9 3.9 0 0 1-1.2.16H13.92a3 3 0 0 0 0-.32c0-.21 2.07-.21 6.42-.21H53a23.5 23.5 0 0 1 3.84.31s.05 0 0 .06m36.64-.27v.39H72.79a7 7 0 0 1-.77-.16 19 19 0 0 1 3.81-.37h17.66v.1"/><path fill="#cacaca" d="M55.94 39.553s-.11.09-1 .16h-41a3 3 0 0 0 0-.32c0-.21 2.07-.21 6.42-.21h32a20 20 0 0 1 3.57.31v.06m37.55-.27v.43H74.1c-.21-.06-.43-.08-.64-.16a16 16 0 0 1 3.34-.37h16.69v.1"/><path fill="#c6c6c6" d="M55 39.553a3.8 3.8 0 0 1-.87.16H13.92a3 3 0 0 0 0-.32v-.21h37.64a17.6 17.6 0 0 1 3.36.31v.06m38.56-.27v.43h-18c-.15-.08-.33-.09-.49-.16a12.2 12.2 0 0 1 2.84-.37h15.66v.1"/><path fill="#c2c2c2" d="m54 39.553-.69.16H13.92a3 3 0 0 0 0-.32v-.21h36.82a13.5 13.5 0 0 1 3.21.31v.06m39.53-.27v.43H76.71h.09c-.45-.11-.45-.11-.44-.15s.21-.26 2.82-.35h14.31v.1"/><path fill="#bebebe" d="M53 39.553c-.15.14-.37 0-.52.16H13.92a3 3 0 0 0 0-.32v-.21h36a11 11 0 0 1 3 .31v.06m40.56-.27v.43H78.1h.13c-.46-.11-.46-.11-.46-.13 0-.19 1.88-.33 2.76-.37h13v.1"/><path fill="#b9b9b9" d="M52 39.553c-.12.11-.35.1-.5.13H13.92a3 3 0 0 0 0-.32v-.21H49.1a13.6 13.6 0 0 1 2.9.31v.06m41.48-.24v.43H79.91c-.12-.06-.35 0-.39-.16s1.56-.33 2.29-.37h11.68v.1"/><path fill="#b5b5b5" d="M50.93 39.553c-.1.1-.31.1-.45.13h.08-36.64a3 3 0 0 0 0-.32v-.21h34.36a14.4 14.4 0 0 1 2.54.27s.12.06.11.1m42.55-.24v.43H81.62c-.43-.12-.43-.12-.44-.16a.07.07 0 0 1 0-.06 5.5 5.5 0 0 1 2.08-.31h10.23v.1"/><path fill="#b1b1b1" d="M49.83 39.553c-.07.07-.23.09-.29.16H13.92a3 3 0 0 0 0-.32v-.21h33.55a12 12 0 0 1 2.27.27s.1.06.09.1m43.65-.27v.43H83.23c-.39-.08-.45-.14-.46-.16s.66-.3 1.88-.37h8.84v.1"/><path fill="#adadad" d="M48.74 39.553c-.05.05-.17 0-.21.09a.2.2 0 0 0 0 .07H13.92a3 3 0 0 0 0-.32v-.21h32.71a8.7 8.7 0 0 1 2 .27s.08.06.08.1m44.77-.27v.43h-8.74c-.35-.06-.43-.12-.44-.15a.2.2 0 0 1 0-.07 3.8 3.8 0 0 1 1.6-.31h7.58z"/><path fill="#a9a9a9" d="M47.65 39.553c0 .05-.16 0-.18.09s0 0 0 .07H13.92a3 3 0 0 0 0-.32v-.21h31.52c2.09.09 2.21.31 2.22.34m45.82-.24v.43h-7.43c-.49-.1-.35-.22-.32-.25a3.1 3.1 0 0 1 1.3-.28h6.46v.1"/><path fill="#a5a5a5" d="M46.51 39.553a.45.45 0 0 1-.21.09l.1.07H13.92a3 3 0 0 0 0-.32v-.21h30.34a9.3 9.3 0 0 1 2.17.27s.09.06.08.1m46.97-.27v.43h-6.3c-.24-.06-.43-.16-.23-.28a2.8 2.8 0 0 1 1.11-.25h5.43v.1"/><path fill="#a1a1a1" d="M45.07 39.553c0 .05-.17 0-.18.09s0 0 0 .07h-31v-.16a1 1 0 0 0 0-.16v-.21h29.2a7.5 7.5 0 0 1 1.91.27s.08.07.07.1m48.41-.27v.43h-5.25c-.12 0-.46-.15-.14-.31a2.6 2.6 0 0 1 .88-.22h4.52v.1"/><path fill="#9d9d9d" d="M43.65 39.553c0 .05-.14 0-.16.09s0 0 0 .07H13.92v-.16a1 1 0 0 0 0-.16v-.21h28c1.26.08 1.72.28 1.73.34m49.83-.24v.43h-4.35c-.21-.08-.37-.21 0-.37a2 2 0 0 1 .63-.16h3.71v.1"/><path fill="#989898" d="M42.23 39.553c0 .06-.14.1-.17.16H13.92v-.16a1 1 0 0 0 0-.16v-.21h26.59c1.64.09 1.72.33 1.73.34m51.24-.24v.43h-3.55c-.52-.28.35-.49.36-.49h3.22v.1"/><path fill="#949494" d="M40.68 39.553c0 .07-.16.11-.21.16H13.92v-.16a1 1 0 0 0 0-.16v-.21H39a4.9 4.9 0 0 1 1.63.27s.07.07.06.1m52.79-.27v.43h-2.8c-.47-.35.5-.53.51-.53h2.32v.1"/><path fill="#909090" d="M39 39.553c-.05.07-.16.11-.22.16H13.92v-.16a1 1 0 0 0 0-.16v-.21H37.5c1.26.09 1.51.31 1.51.31v.06m54.47-.27v.43H91.3c-.3-.35.26-.49.44-.53h1.75v.1"/><path fill="#8c8c8c" d="M37.38 39.553c-.05.09-.18.07-.22.16H13.92v-.16a1 1 0 0 0 0-.16v-.21H36c1.24.08 1.42.31 1.42.31a.13.13 0 0 1 0 .06m56.06-.27v.43h-1.61c-.1-.2-.1-.2 0-.28a.67.67 0 0 1 .4-.25h1.26v.1"/><path fill="#888" d="M35.68 39.553c0 .09-.18.06-.22.16H13.92v-.16a1 1 0 0 0 0-.16v-.21H34.3c1 .08 1.39.26 1.38.37m57.8-.27v.43h-1.13c0-.05 0-.1-.06-.16a.3.3 0 0 1 0-.12.58.58 0 0 1 .34-.25h.83v.1"/><path fill="#848484" d="M33.94 39.553c0 .07-.12.11-.17.16H13.92v-.53H32.7c.92.07 1.24.26 1.24.37m59.54-.27v.43h-.69v-.06a.23.23 0 0 1 0-.22.44.44 0 0 1 .25-.25h.48v.1"/><path fill="gray" d="M32.24 39.553c0 .06-.1.11-.13.16H13.92v-.53H31c.91.07 1.23.24 1.23.37m61.25-.27v.43h-.37v-.06a.4.4 0 0 1 0-.22.44.44 0 0 1 .17-.25h.23v.1"/><path fill="#7c7c7c" d="M30.4 39.553c0 .05-.09.11-.09.16H13.92v-.53h15.37c.82.07 1.11.26 1.11.37m63.08-.27v.43h-.14a.13.13 0 0 0 0-.06.8.8 0 0 1 0-.22.7.7 0 0 1 .1-.25h.06v.1"/><path fill="#777" d="M28.58 39.553c0 .05-.08.1-.12.13h.09-14.63v-.5h13.71c.84.09 1 .32.95.37m64.9-.27v.43-.51a.3.3 0 0 0 0 .08"/><path fill="#737373" d="M20.34 39.713h-6.42v-.53h11.72c.67.07 1.09.27.93.43a.3.3 0 0 1-.09.07h.16-6.3"/><path fill="#6f6f6f" d="M20.34 39.713h-6.42v-.16a1 1 0 0 0 0-.16v-.21h9.85s1 .15.65.5h.2-4.28"/><path fill="#6b6b6b" d="M20.34 39.713h-6.42v-.16a1 1 0 0 0 0-.16v-.21h7.23c.2 0 .92.21.59.5h.37-1.77"/><path fill="#dadada" d="M70.68 39.213c-5.42.19-5.42.19-14.83 0h16.09z"/><path fill="#dbdbdb" d="M69.66 39.213c-5 .16-5 .16-13.1 0h14.49z"/><path fill="#dcdcdc" d="M68.63 39.213c-4.45.13-4.58.13-11.36 0h12.88z"/><path fill="#dedede" d="M67.88 39.213h-9.44 10.8z"/><path fill="#dfdfdf" d="M67.88 39.193h-8.22z"/><path fill="#e0e0e0" d="M62.66 39.203h-1.78 5.68z"/></g></svg>