<svg xmlns="http://www.w3.org/2000/svg" viewBox="0 0 107 151"><title>3-D Valve,fail locked（3d阀 故障锁定）</title><defs><linearGradient id="a" x1="49.993%" x2="49.993%" y1="100.095%" y2="0%"><stop offset="0%" stop-color="#b7b7b7"/><stop offset="3%" stop-color="#9b9d9d"/><stop offset="7%" stop-color="#878b8b"/><stop offset="9%" stop-color="#808484"/><stop offset="20%" stop-color="#a3a6a6"/><stop offset="49%" stop-color="#f6f6f6"/><stop offset="61%" stop-color="#f3f3f3"/><stop offset="70%" stop-color="#eaeaea"/><stop offset="77%" stop-color="#dbdbdb"/><stop offset="83%" stop-color="#c5c5c5"/><stop offset="90%" stop-color="#aaa"/><stop offset="95%" stop-color="#888"/><stop offset="100%" stop-color="#666"/></linearGradient><linearGradient id="b" x1="50.007%" x2="50.007%" y1="100%" y2="0%"><stop offset="0%" stop-color="#b7b7b7"/><stop offset="3%" stop-color="#9b9d9d"/><stop offset="7%" stop-color="#878b8b"/><stop offset="9%" stop-color="#808484"/><stop offset="20%" stop-color="#a3a6a6"/><stop offset="49%" stop-color="#f6f6f6"/><stop offset="61%" stop-color="#f3f3f3"/><stop offset="70%" stop-color="#eaeaea"/><stop offset="77%" stop-color="#dbdbdb"/><stop offset="83%" stop-color="#c5c5c5"/><stop offset="90%" stop-color="#aaa"/><stop offset="95%" stop-color="#888"/><stop offset="100%" stop-color="#666"/></linearGradient><linearGradient id="c" x1="0%" x2="100%" y1="49.995%" y2="49.995%"><stop offset="0%" stop-color="#b7b7b7"/><stop offset="3%" stop-color="#9b9d9d"/><stop offset="7%" stop-color="#878b8b"/><stop offset="9%" stop-color="#808484"/><stop offset="20%" stop-color="#a3a6a6"/><stop offset="49%" stop-color="#f6f6f6"/><stop offset="61%" stop-color="#f3f3f3"/><stop offset="70%" stop-color="#eaeaea"/><stop offset="77%" stop-color="#dbdbdb"/><stop offset="83%" stop-color="#c5c5c5"/><stop offset="90%" stop-color="#aaa"/><stop offset="95%" stop-color="#888"/><stop offset="100%" stop-color="#666"/></linearGradient><linearGradient id="d" x1="50.009%" x2="50.009%" y1="100%" y2="0%"><stop offset="0%" stop-color="#b7b7b7"/><stop offset="3%" stop-color="#9b9d9d"/><stop offset="7%" stop-color="#878b8b"/><stop offset="9%" stop-color="#808484"/><stop offset="20%" stop-color="#a3a6a6"/><stop offset="49%" stop-color="#f6f6f6"/><stop offset="61%" stop-color="#f3f3f3"/><stop offset="70%" stop-color="#eaeaea"/><stop offset="77%" stop-color="#dbdbdb"/><stop offset="83%" stop-color="#c5c5c5"/><stop offset="90%" stop-color="#aaa"/><stop offset="95%" stop-color="#888"/><stop offset="100%" stop-color="#666"/></linearGradient><linearGradient id="e" x1="50%" x2="50%" y1="100%" y2="0%"><stop offset="0%" stop-color="#b7b7b7"/><stop offset="3%" stop-color="#9b9d9d"/><stop offset="7%" stop-color="#878b8b"/><stop offset="9%" stop-color="#808484"/><stop offset="20%" stop-color="#a3a6a6"/><stop offset="49%" stop-color="#f6f6f6"/><stop offset="61%" stop-color="#f3f3f3"/><stop offset="70%" stop-color="#eaeaea"/><stop offset="77%" stop-color="#dbdbdb"/><stop offset="83%" stop-color="#c5c5c5"/><stop offset="90%" stop-color="#aaa"/><stop offset="95%" stop-color="#888"/><stop offset="100%" stop-color="#666"/></linearGradient></defs><g fill="none" fill-rule="nonzero"><path fill="url(#a)" d="M19.42 77.06h67.63v10.5H19.42z" transform="translate(0 .413)"/><path fill="url(#b)" d="M19.89 55.44h67.63v10.5H19.89z" transform="translate(0 .413)"/><path fill="url(#c)" d="M49.4 27.67h7.67v101.09H49.4z" transform="translate(0 .413)"/><path fill="url(#d)" d="M0 150v-42.48l53.23 21.39z" transform="translate(0 .413)"/><path fill="url(#e)" d="M106.47 150v-42.48l-53.24 21.39z" transform="translate(0 .413)"/><path fill="#e1e1e1" d="M53.64.413c-2 .08-4.53.28-6.46.51a40.1 40.1 0 0 0-17 7 39.9 39.9 0 0 0-8.62 8.39c-4.18 6-5.65 9.45-7.15 16.61a37.4 37.4 0 0 0-.52 6.29H83c0-21.44-13.14-38.8-29.36-38.8"/><path fill="#e1e1e1" d="M47.18.923a40.1 40.1 0 0 0-17 7 39.9 39.9 0 0 0-8.62 8.39c-1 1.49-2.32 3.52-3.23 5.08l-1.33 2.7-1.1 2.84-.9 2.94-.63 3a37.4 37.4 0 0 0-.52 6.29H83C83 17.773 69.86.413 53.64.413l-3.27.13z"/><path fill="#e0e0e0" d="M47.18.923a40.1 40.1 0 0 0-17 7 39.9 39.9 0 0 0-8.62 8.39c-1 1.49-2.32 3.52-3.23 5.08l-1.33 2.7-1.1 2.84-.9 2.94-.63 3a37.4 37.4 0 0 0-.52 6.29H83C83 17.773 69.86.413 53.64.413l-3.27.13z"/><path fill="#dfdfdf" d="M47.18.923a40.1 40.1 0 0 0-17 7 39.9 39.9 0 0 0-8.62 8.39c-1 1.49-2.32 3.52-3.23 5.08l-1.33 2.7-1.1 2.84-.9 2.94-.63 3a37.4 37.4 0 0 0-.52 6.29h29c.38-.11 1 .24 1.33 0H83C83 17.773 69.86.413 53.64.413l-3.27.13z"/><path fill="#dedede" d="M47.18.923a40.1 40.1 0 0 0-17 7 39.9 39.9 0 0 0-8.62 8.39c-1 1.49-2.32 3.52-3.23 5.08l-1.33 2.7-1.1 2.84-.9 2.94-.63 3a37.4 37.4 0 0 0-.52 6.29h27a9.76 9.76 0 0 1 5.09 0H83C83 17.773 69.86.413 53.64.413l-3.27.13z"/><path fill="#dcdcdc" d="M47.18.923a40.1 40.1 0 0 0-17 7 39.9 39.9 0 0 0-8.62 8.39c-1 1.49-2.32 3.52-3.23 5.08l-1.33 2.7-1.1 2.84-.9 2.94-.63 3a37.4 37.4 0 0 0-.52 6.29H39c4.58-1.37 4.58-1.37 7.46-.44.41.13 1 .7 1.37.44H83C83 17.773 69.86.413 53.64.413l-3.27.13z"/><path fill="#dbdbdb" d="M47.18.923a40.1 40.1 0 0 0-17 7 39.9 39.9 0 0 0-8.62 8.39c-1 1.49-2.32 3.52-3.23 5.08l-1.33 2.7-1.1 2.84-.9 2.94-.63 3a37.4 37.4 0 0 0-.52 6.29h23.86c3.19-2.36 8.53-2.36 11.44 0H83C83 17.773 69.86.413 53.64.413l-3.27.13z"/><path fill="#dadada" d="M47.18.923a40.1 40.1 0 0 0-17 7 39.9 39.9 0 0 0-8.62 8.39c-1 1.49-2.32 3.52-3.23 5.08l-1.33 2.7-1.1 2.84-.9 2.94-.63 3a37.4 37.4 0 0 0-.52 6.29h22.88c6.4-4.74 11.74-1.2 13.22 0H83C83 17.773 69.86.413 53.64.413l-3.27.13z"/><path fill="#d8d8d8" d="M47.18.923a40.1 40.1 0 0 0-17 7 39.9 39.9 0 0 0-8.62 8.39c-1 1.49-2.32 3.52-3.23 5.08l-1.33 2.7-1.1 2.84-.9 2.94-.63 3a37.4 37.4 0 0 0-.52 6.29h21.9c2.14-1.59 7.81-5.8 15 0H83C83 17.773 69.86.413 53.64.413l-3.27.13z"/><path fill="#d6d6d6" d="M47.18.923a40.1 40.1 0 0 0-17 7 39.9 39.9 0 0 0-8.62 8.39c-1 1.49-2.32 3.52-3.23 5.08l-1.33 2.7-1.1 2.84-.9 2.94-.63 3a37.4 37.4 0 0 0-.52 6.29h20.93c3.88-2.9 8.7-6.52 16.77 0H83C83 17.773 69.86.413 53.64.413l-3.27.13z"/><path fill="#d4d4d4" d="M47.18.923a40.1 40.1 0 0 0-17 7 39.9 39.9 0 0 0-8.62 8.39c-1 1.49-2.32 3.52-3.23 5.08l-1.33 2.7-1.1 2.84-.9 2.94-.63 3a37.4 37.4 0 0 0-.52 6.29h20c5.12-3.88 9.55-7.23 18.53 0H83C83 17.773 69.86.413 53.64.413l-3.27.13z"/><path fill="#cecece" d="M47.18.923a40.1 40.1 0 0 0-17 7 39.9 39.9 0 0 0-8.62 8.39c-1 1.49-2.32 3.52-3.23 5.08l-1.33 2.7-1.1 2.84-.9 2.94-.63 3a37.4 37.4 0 0 0-.52 6.29h18.86c7.94-8.07 14.52-4.77 20.45 0H83C83 17.773 69.86.413 53.64.413l-3.27.13z"/><path fill="#cacaca" d="M47.18.923a40.1 40.1 0 0 0-17 7 39.9 39.9 0 0 0-8.62 8.39c-1 1.49-2.32 3.52-3.23 5.08l-1.33 2.7-1.1 2.84-.9 2.94-.63 3a37.4 37.4 0 0 0-.52 6.29h17.69c9-9.06 16.07-5.35 22.42 0H83C83 17.773 69.86.413 53.64.413l-3.27.13z"/><path fill="#c6c6c6" d="M47.18.923a40.1 40.1 0 0 0-17 7 39.9 39.9 0 0 0-8.62 8.39c-1 1.49-2.32 3.52-3.23 5.08l-1.33 2.7-1.1 2.84-.9 2.94-.63 3a37.4 37.4 0 0 0-.52 6.29h16.54c3.61-3.63 5.91-6.05 13.28-6.05 4.81 0 7.28 4.3 11.13 6.07H83C83 17.773 69.86.413 53.64.413l-3.27.13z"/><path fill="#c2c2c2" d="M47.18.923a40.1 40.1 0 0 0-17 7 39.9 39.9 0 0 0-8.62 8.39c-1 1.49-2.32 3.52-3.23 5.08l-1.33 2.7-1.1 2.84-.9 2.94-.63 3a37.4 37.4 0 0 0-.52 6.29h15.42c6.41-7.32 17.39-10.44 26.37 0H83C83 17.773 69.86.413 53.64.413l-3.27.13z"/><path fill="#bebebe" d="M47.18.923a40.1 40.1 0 0 0-17 7 39.9 39.9 0 0 0-8.62 8.39c-1 1.49-2.32 3.52-3.23 5.08l-1.33 2.7-1.1 2.84-.9 2.94-.63 3a37.4 37.4 0 0 0-.52 6.29h14c3.41-4.21 5.87-7.25 15.91-7.25a16 16 0 0 1 2.87.61c3 .65 3 .65 6.36 2.91 1.46 1 1.86 3 3.53 3.73H83C83 17.773 69.86.413 53.64.413l-3.27.13z"/><path fill="#b9b9b9" d="M47.18.923a40.1 40.1 0 0 0-17 7 39.9 39.9 0 0 0-8.62 8.39c-1 1.49-2.32 3.52-3.23 5.08l-1.33 2.7-1.1 2.84-.9 2.94-.63 3a37.4 37.4 0 0 0-.52 6.29h12.41c4.36-5.48 7.52-8.06 17.51-8.06.85.134 1.683.366 2.48.69 4.1 1.15 4.1 1.15 7.84 3.63 1.23.82 1.89 3.12 3.24 3.74H83C83 17.773 69.86.413 53.64.413l-3.27.13z"/><path fill="#b5b5b5" d="M47.18.923a40.1 40.1 0 0 0-17 7 39.9 39.9 0 0 0-8.62 8.39c-1 1.49-2.32 3.52-3.23 5.08l-1.33 2.7-1.1 2.84-.9 2.94-.63 3a37.4 37.4 0 0 0-.52 6.29h10.94c5.37-7.74 11.11-8.9 14.06-8.9 6.23 0 7 0 10 1.38 5.4 2.49 5.73 2.92 8.3 6.24.29.39.55 1.07 1 1.28H83C83 17.773 69.86.413 53.64.413l-3.27.13z"/><path fill="#b1b1b1" d="M47.18.923a40.1 40.1 0 0 0-17 7 39.9 39.9 0 0 0-8.62 8.39c-1 1.49-2.32 3.52-3.23 5.08l-1.33 2.7-1.1 2.84-.9 2.94-.63 3a37.4 37.4 0 0 0-.52 6.29h9.46c5.49-9.37 14-9.85 15.63-9.85 3.66 0 7.13 0 10 1.4 6.06 3 6.79 3.7 9.26 7.3.24.35.43 1 .8 1.17h24C83 17.773 69.86.413 53.64.413l-3.27.13z"/><path fill="#adadad" d="M47.18.923a40.1 40.1 0 0 0-17 7 39.9 39.9 0 0 0-8.62 8.39c-1 1.49-2.32 3.52-3.23 5.08l-1.33 2.7-1.1 2.84-.9 2.94-.63 3a37.4 37.4 0 0 0-.52 6.29h8.09c5-9.36 12.86-10.75 17.06-10.75 6.47 0 9.07 1 9.89 1.4 5.39 2.77 7.4 3.8 10.35 8.26.22.34.39.93.74 1.12H83C83 17.773 69.86.413 53.64.413l-3.27.13z"/><path fill="#a9a9a9" d="M47.18.923a40.1 40.1 0 0 0-17 7 39.9 39.9 0 0 0-8.62 8.39c-1 1.49-2.32 3.52-3.23 5.08l-1.33 2.7-1.1 2.84-.9 2.94-.63 3a37.4 37.4 0 0 0-.52 6.29h6.87c5.78-14.68 28.87-17.33 40.4-.11l.08.11H83C83 17.773 69.86.413 53.64.413l-3.27.13z"/><path fill="#a5a5a5" d="M47.18.923a40.1 40.1 0 0 0-17 7 39.9 39.9 0 0 0-8.62 8.39c-1 1.49-2.32 3.52-3.23 5.08l-1.33 2.7-1.1 2.84-.9 2.94-.63 3a37.4 37.4 0 0 0-.52 6.29h5.8c6.82-17.72 31.57-17.72 42.72 0H83C83 17.773 69.86.413 53.64.413l-3.27.13z"/><path fill="#a1a1a1" d="M47.18.923a40.1 40.1 0 0 0-17 7 39.9 39.9 0 0 0-8.62 8.39c-1 1.49-2.32 3.52-3.23 5.08l-1.33 2.7-1.1 2.84-.9 2.94-.63 3a37.4 37.4 0 0 0-.52 6.29h4.83c3.25-9.5 10.26-14.32 20.84-14.32a28 28 0 0 1 12.1 3 25.9 25.9 0 0 1 7.7 5.32c1.81 1.71 1.91 4.62 4.21 6H83C83 17.773 69.86.413 53.64.413l-3.27.13z"/><path fill="#9d9d9d" d="M47.18.923a40.1 40.1 0 0 0-17 7 39.9 39.9 0 0 0-8.62 8.39c-1 1.49-2.32 3.52-3.23 5.08l-1.33 2.7-1.1 2.84-.9 2.94-.63 3a37.4 37.4 0 0 0-.52 6.29h4c6-21.71 34.9-18.43 45-3.73a29.5 29.5 0 0 1 1.76 3.51l.11.22H83C83 17.773 69.86.413 53.64.413l-3.27.13z"/><path fill="#989898" d="M47.18.923a40.1 40.1 0 0 0-17 7 39.9 39.9 0 0 0-8.62 8.39c-1 1.49-2.32 3.52-3.23 5.08l-1.33 2.7-1.1 2.84-.9 2.94-.63 3a37.4 37.4 0 0 0-.52 6.29h3.2c6.16-24.1 36.51-20.18 47.21-3.75l2 3.73H83C83 17.773 69.86.413 53.64.413l-3.27.13z"/><path fill="#949494" d="M47.18.923a40.1 40.1 0 0 0-17 7 39.9 39.9 0 0 0-8.62 8.39c-1 1.49-2.32 3.52-3.23 5.08l-1.33 2.7-1.1 2.84-.9 2.94-.63 3a37.4 37.4 0 0 0-.52 6.29h2.52c6.1-27.4 39.68-19.66 49.52-3.75.66 1.06 1.32 2.6 1.86 3.73H83C83 17.773 69.86.413 53.64.413l-3.27.13z"/><path fill="#909090" d="M47.18.923a40.1 40.1 0 0 0-17 7 39.9 39.9 0 0 0-8.62 8.39c-1 1.49-2.32 3.52-3.23 5.08l-1.33 2.7-1.1 2.84-.9 2.94-.63 3a37.4 37.4 0 0 0-.52 6.29h1.91c5.33-27.75 40.67-22.91 51.8-3.75.62 1.06.65 3.06 1.68 3.73H83C83 17.773 69.86.413 53.64.413l-3.27.13z"/><path fill="#8c8c8c" d="M47.18.923a40.1 40.1 0 0 0-17 7 39.9 39.9 0 0 0-8.62 8.39c-1 1.49-2.32 3.52-3.23 5.08l-1.33 2.7-1.1 2.84-.9 2.94-.63 3a37.4 37.4 0 0 0-.52 6.29h1.38c4.55-27.59 37.85-25.2 51.54-7.37a31 31 0 0 1 2.82 4.49c.38.86.48 2.36 1.27 2.87H83C83 17.773 69.86.413 53.64.413l-3.27.13z"/><path fill="#888" d="M47.18.923a40.1 40.1 0 0 0-17 7 39.9 39.9 0 0 0-8.62 8.39c-1 1.49-2.32 3.52-3.23 5.08l-1.33 2.7-1.1 2.84-.9 2.94-.63 3a37.4 37.4 0 0 0-.52 6.29h.94c3.82-27.75 38.1-28.59 53.84-7.35a22.8 22.8 0 0 1 3.55 6.52c.1.26.1.7.33.85H83C83 17.773 69.86.413 53.64.413l-3.27.13z"/><path fill="#848484" d="M47.18.923a40.1 40.1 0 0 0-17 7 39.9 39.9 0 0 0-8.62 8.39c-1 1.49-2.32 3.52-3.23 5.08l-1.33 2.7-1.1 2.84-.9 2.94-.63 3a37.4 37.4 0 0 0-.52 6.29h.56c3.42-29.07 37.88-30.75 54.78-9.13a25.8 25.8 0 0 1 4.65 8.38c.08.24.07.66.28.81H83C83 17.773 69.86.413 53.64.413l-3.27.13z"/><path fill="gray" d="M47.18.923a40.1 40.1 0 0 0-17 7 39.9 39.9 0 0 0-8.62 8.39c-1 1.49-2.32 3.52-3.23 5.08l-1.33 2.7-1.1 2.84-.9 2.94-.63 3a37.4 37.4 0 0 0-.52 6.29h.27C17 7.463 54 8.573 69.87 28.303a34 34 0 0 1 5.7 10.11c.09.24.08.67.3.82H83C83 17.773 69.86.413 53.64.413l-3.27.13z"/><path fill="#7c7c7c" d="M47.18.923a40.1 40.1 0 0 0-17 7 39.9 39.9 0 0 0-8.62 8.39c-1 1.49-2.32 3.52-3.23 5.08l-1.33 2.7-1.1 2.84-.9 2.94-.63 3a37.4 37.4 0 0 0-.52 6.29h.08c1.37-29.51 36.34-34.43 55.13-14.25a35.8 35.8 0 0 1 8.29 13.5c.08.24.05.64.25.78H83C83 17.773 69.86.413 53.64.413l-3.27.13z"/><path fill="#777" d="M47.18.923a40.1 40.1 0 0 0-17 7 39.9 39.9 0 0 0-8.62 8.39c-1 1.49-2.32 3.52-3.23 5.08l-1.33 2.7-1.1 2.84-.9 2.94-.63 3a37.4 37.4 0 0 0-.52 6.29c1.45-31.75 37.97-36.31 57.58-14.25 5.3 6 6.71 10.46 7.47 12.87.14.42.09 1.14.45 1.4H83C83 17.773 69.86.413 53.64.413l-3.27.13z"/><path fill="#737373" d="M47.18.923a40.1 40.1 0 0 0-17 7 39.9 39.9 0 0 0-8.62 8.39c-1 1.49-2.32 3.52-3.23 5.08l-1.33 2.7-1.1 2.84-.9 2.94-.63 3-.08.49.28-1.57c8.19-31.8 47.43-25.7 61.84-3.49a39.5 39.5 0 0 1 4.67 10.11c.06.23 0 .62.21.76H83C83 17.773 69.86.413 53.64.413l-3.27.13z"/><path fill="#6f6f6f" d="M47.18.923a40.1 40.1 0 0 0-17 7 39.9 39.9 0 0 0-8.62 8.39c-1 1.49-2.32 3.52-3.23 5.08l-1.33 2.7-1.1 2.84c-.07.21-.14.41-.2.62 11.85-31.88 53.79-20.31 65 4.26a35 35 0 0 1 2.3 6.78C82.77 17.413 69.71.413 53.64.413l-3.27.13z"/><path fill="#6b6b6b" d="M47.18.923a40.1 40.1 0 0 0-17 7 39.9 39.9 0 0 0-8.62 8.39c-1 1.39-2.18 3.28-3 4.73l1.26-2.09c14.44-21.61 50.04-15.27 62.37 11.09-3.12-17-14.72-29.63-28.55-29.63l-3.27.13z"/><path fill="#e1e1e1" d="M13.85 39.183v.45-.53h79.57v.53-.53H83v.53h10.4v-.53a37.3 37.3 0 0 0-.52-6.29 38 38 0 0 0-1.5-6 38 38 0 0 0-2.38-5.4 38.6 38.6 0 0 0-3.23-5.08 40.2 40.2 0 0 0-8.61-8.39 40.4 40.4 0 0 0-5.22-3.15A40.3 40.3 0 0 0 60.09.923c-1.93-.23-4.51-.43-6.45-.51C69.86.413 83 17.773 83 39.183zm.02.48v-.43.48"/><path fill="#e1e1e1" d="M83 39.713h10.4v-.53H83zM83 39.183h10.42a37.4 37.4 0 0 0-.52-6.29 38 38 0 0 0-1.5-6 38 38 0 0 0-2.4-5.48 38.6 38.6 0 0 0-3.23-5.08 40.2 40.2 0 0 0-8.61-8.39 40.4 40.4 0 0 0-5.22-3.15A40.3 40.3 0 0 0 60.09.923c-1.93-.23-4.51-.43-6.45-.51C69.86.413 83 17.773 83 39.183"/><path fill="#e0e0e0" d="M13.87 39.663v-.43.48m69.13 0h10.4v-.53H83z"/><path fill="#e0e0e0" d="M83 39.183h10.42a37.4 37.4 0 0 0-.52-6.29 38 38 0 0 0-1.5-6 38 38 0 0 0-2.4-5.48 38.6 38.6 0 0 0-3.23-5.08 40.2 40.2 0 0 0-8.61-8.39 40.4 40.4 0 0 0-5.22-3.15A40.3 40.3 0 0 0 60.09.923c-1.93-.23-4.51-.43-6.45-.51C69.86.413 83 17.773 83 39.183"/><path fill="#dfdfdf" d="M13.87 39.663v-.43.48m79.55-.48H80.48zm-10.42.48h10.4v-.53H83z"/><path fill="#dfdfdf" d="M83 39.183h10.42a37.4 37.4 0 0 0-.52-6.29 38 38 0 0 0-1.5-6 38 38 0 0 0-2.4-5.48 38.6 38.6 0 0 0-3.23-5.08 40.2 40.2 0 0 0-8.61-8.39 40.4 40.4 0 0 0-5.22-3.15A40.3 40.3 0 0 0 60.09.923c-1.93-.23-4.51-.43-6.45-.51C69.86.413 83 17.773 83 39.183"/><path fill="#dedede" d="M13.87 39.663v-.43.48m69.13 0h10.4v-.53H83z"/><path fill="#dedede" d="M83 39.183h10.42a37.4 37.4 0 0 0-.52-6.29 38 38 0 0 0-1.5-6 38 38 0 0 0-2.4-5.48 38.6 38.6 0 0 0-3.23-5.08 40.2 40.2 0 0 0-8.61-8.39 40.4 40.4 0 0 0-5.22-3.15A40.3 40.3 0 0 0 60.09.923c-1.93-.23-4.51-.43-6.45-.51C69.86.413 83 17.773 83 39.183"/><path fill="#dcdcdc" d="M13.87 39.663v-.43.48m69.13 0h10.4v-.53H83z"/><path fill="#dcdcdc" d="M83 39.183h10.42a37.4 37.4 0 0 0-.52-6.29 38 38 0 0 0-1.5-6 38 38 0 0 0-2.4-5.48 38.6 38.6 0 0 0-3.23-5.08 40.2 40.2 0 0 0-8.61-8.39 40.4 40.4 0 0 0-5.22-3.15A40.3 40.3 0 0 0 60.09.923c-1.93-.23-4.51-.43-6.45-.51C69.86.413 83 17.773 83 39.183"/><path fill="#dbdbdb" d="M13.87 39.663v-.43.48m69.13 0h10.4v-.53H83z"/><path fill="#dbdbdb" d="M83 39.183h10.42a37.4 37.4 0 0 0-.52-6.29 38 38 0 0 0-1.5-6 38 38 0 0 0-2.4-5.48 38.6 38.6 0 0 0-3.23-5.08 40.2 40.2 0 0 0-8.61-8.39 40.4 40.4 0 0 0-5.22-3.15A40.3 40.3 0 0 0 60.09.923c-1.93-.23-4.51-.43-6.45-.51C69.86.413 83 17.773 83 39.183"/><path fill="#dadada" d="M13.87 39.663v-.43.48m79.55-.48H80.48zm-10.42.48h10.4v-.53H83z"/><path fill="#dadada" d="M83 39.183h10.42a37.4 37.4 0 0 0-.52-6.29 38 38 0 0 0-1.5-6 38 38 0 0 0-2.4-5.48 38.6 38.6 0 0 0-3.23-5.08 40.2 40.2 0 0 0-8.61-8.39 40.4 40.4 0 0 0-5.22-3.15A40.3 40.3 0 0 0 60.09.923c-1.93-.23-4.51-.43-6.45-.51C69.86.413 83 17.773 83 39.183"/><path fill="#d8d8d8" d="M13.87 39.663v-.43.48m79.55-.48H80.48zm-10.42.48h10.4v-.53H83z"/><path fill="#d8d8d8" d="M83 39.183h10.42a37.4 37.4 0 0 0-.52-6.29 38 38 0 0 0-1.5-6 38 38 0 0 0-2.4-5.48 38.6 38.6 0 0 0-3.23-5.08 40.2 40.2 0 0 0-8.61-8.39 40.4 40.4 0 0 0-5.22-3.15A40.3 40.3 0 0 0 60.09.923c-1.93-.23-4.51-.43-6.45-.51C69.86.413 83 17.773 83 39.183"/><path fill="#d6d6d6" d="M13.87 39.663v-.43.48m79.55-.48H80.48zm-10.42.48h10.4v-.53H83z"/><path fill="#d6d6d6" d="M83 39.183h10.42a37.4 37.4 0 0 0-.52-6.29 38 38 0 0 0-1.5-6 38 38 0 0 0-2.4-5.48 38.6 38.6 0 0 0-3.23-5.08 40.2 40.2 0 0 0-8.61-8.39 40.4 40.4 0 0 0-5.22-3.15A40.3 40.3 0 0 0 60.09.923c-1.93-.23-4.51-.43-6.45-.51C69.86.413 83 17.773 83 39.183"/><path fill="#d4d4d4" d="M13.87 39.663v-.43.48m69.13 0h10.4v-.53H83z"/><path fill="#d4d4d4" d="M83 39.183h10.42a37.4 37.4 0 0 0-.52-6.29 38 38 0 0 0-1.5-6 38 38 0 0 0-2.4-5.48 38.6 38.6 0 0 0-3.23-5.08 40.2 40.2 0 0 0-8.61-8.39 40.4 40.4 0 0 0-5.22-3.15A40.3 40.3 0 0 0 60.09.923c-1.93-.23-4.51-.43-6.45-.51C69.86.413 83 17.773 83 39.183"/><path fill="#cecece" d="M13.87 39.663v-.43.48m79.55-.48H80.48zm-10.42.48h10.4v-.53H83z"/><path fill="#cecece" d="M83 39.183h10.42a37.4 37.4 0 0 0-.52-6.29 38 38 0 0 0-1.5-6 38 38 0 0 0-2.4-5.48 38.6 38.6 0 0 0-3.23-5.08 40.2 40.2 0 0 0-8.61-8.39 40.4 40.4 0 0 0-5.22-3.15A40.3 40.3 0 0 0 60.09.923c-1.93-.23-4.51-.43-6.45-.51C69.86.413 83 17.773 83 39.183"/><path fill="#cacaca" d="M13.87 39.663v-.43.48m79.55-.48H80.48zm-10.42.48h10.4v-.53H83z"/><path fill="#cacaca" d="M83 39.183h10.42a37.4 37.4 0 0 0-.52-6.29 38 38 0 0 0-1.5-6 38 38 0 0 0-2.4-5.48 38.6 38.6 0 0 0-3.23-5.08 40.2 40.2 0 0 0-8.61-8.39 40.4 40.4 0 0 0-5.22-3.15A40.3 40.3 0 0 0 60.09.923c-1.93-.23-4.51-.43-6.45-.51C69.86.413 83 17.773 83 39.183"/><path fill="#c6c6c6" d="M13.87 39.663v-.43.48m79.55-.48H80.48zm-10.42.48h10.4v-.53H83z"/><path fill="#c6c6c6" d="M83 39.183h10.42a37.4 37.4 0 0 0-.52-6.29 38 38 0 0 0-1.5-6 38 38 0 0 0-2.4-5.48 38.6 38.6 0 0 0-3.23-5.08 40.2 40.2 0 0 0-8.61-8.39 40.4 40.4 0 0 0-5.22-3.15A40.3 40.3 0 0 0 60.09.923c-1.93-.23-4.51-.43-6.45-.51C69.86.413 83 17.773 83 39.183"/><path fill="#c2c2c2" d="M13.87 39.663v-.43.48m79.55-.48H80.48zm-10.42.48h10.4v-.53H83z"/><path fill="#c2c2c2" d="M83 39.183h10.42a37.4 37.4 0 0 0-.52-6.29 38 38 0 0 0-1.5-6 38 38 0 0 0-2.4-5.48 38.6 38.6 0 0 0-3.23-5.08 40.2 40.2 0 0 0-8.61-8.39 40.4 40.4 0 0 0-5.22-3.15A40.3 40.3 0 0 0 60.09.923c-1.93-.23-4.51-.43-6.45-.51C69.86.413 83 17.773 83 39.183"/><path fill="#bebebe" d="M13.87 39.663v-.43.48m79.55-.48H80.48zm-10.42.48h10.4v-.53H83z"/><path fill="#bebebe" d="M83 39.183h10.42a37.4 37.4 0 0 0-.52-6.29 38 38 0 0 0-1.5-6 38 38 0 0 0-2.4-5.48 38.6 38.6 0 0 0-3.23-5.08 40.2 40.2 0 0 0-8.61-8.39 40.4 40.4 0 0 0-5.22-3.15A40.3 40.3 0 0 0 60.09.923c-1.93-.23-4.51-.43-6.45-.51C69.86.413 83 17.773 83 39.183"/><path fill="#b9b9b9" d="M13.87 39.663v-.43.48m79.55-.48H80.48zm-10.42.48h10.4v-.53H83z"/><path fill="#b9b9b9" d="M83 39.183h10.42a37.4 37.4 0 0 0-.52-6.29 38 38 0 0 0-1.5-6 38 38 0 0 0-2.4-5.48 38.6 38.6 0 0 0-3.23-5.08 40.2 40.2 0 0 0-8.61-8.39 40.4 40.4 0 0 0-5.22-3.15A40.3 40.3 0 0 0 60.09.923c-1.93-.23-4.51-.43-6.45-.51C69.86.413 83 17.773 83 39.183"/><path fill="#b5b5b5" d="M13.87 39.663v-.43.48m79.55-.48H80.48zm-10.42.48h10.4v-.53H83z"/><path fill="#b5b5b5" d="M83 39.183h10.42a37.4 37.4 0 0 0-.52-6.29 38 38 0 0 0-1.5-6 38 38 0 0 0-2.4-5.48 38.6 38.6 0 0 0-3.23-5.08 40.2 40.2 0 0 0-8.61-8.39 40.4 40.4 0 0 0-5.22-3.15A40.3 40.3 0 0 0 60.09.923c-1.93-.23-4.51-.43-6.45-.51C69.86.413 83 17.773 83 39.183"/><path fill="#b1b1b1" d="M13.87 39.663v-.43.48m79.55-.48H80.48zm-10.42.48h10.4v-.53H83z"/><path fill="#b1b1b1" d="M83 39.183h10.42a37.4 37.4 0 0 0-.52-6.29 38 38 0 0 0-1.5-6 38 38 0 0 0-2.4-5.48 38.6 38.6 0 0 0-3.23-5.08 40.2 40.2 0 0 0-8.61-8.39 40.4 40.4 0 0 0-5.22-3.15A40.3 40.3 0 0 0 60.09.923c-1.93-.23-4.51-.43-6.45-.51C69.86.413 83 17.773 83 39.183"/><path fill="#adadad" d="M13.87 39.663v-.43.48m79.55-.48H80.48zm-10.42.48h10.4v-.53H83z"/><path fill="#adadad" d="M83 39.183h10.42a37.4 37.4 0 0 0-.52-6.29 38 38 0 0 0-1.5-6 38 38 0 0 0-2.4-5.48 38.6 38.6 0 0 0-3.23-5.08 40.2 40.2 0 0 0-8.61-8.39 40.4 40.4 0 0 0-5.22-3.15A40.3 40.3 0 0 0 60.09.923c-1.93-.23-4.51-.43-6.45-.51C69.86.413 83 17.773 83 39.183"/><path fill="#a9a9a9" d="M13.87 39.663v-.43.48m69.13 0h10.4v-.53H83z"/><path fill="#a9a9a9" d="M83 39.183h10.42a37.4 37.4 0 0 0-.52-6.29 38 38 0 0 0-1.5-6 38 38 0 0 0-2.4-5.48 38.6 38.6 0 0 0-3.23-5.08 40.2 40.2 0 0 0-8.61-8.39 40.4 40.4 0 0 0-5.22-3.15A40.3 40.3 0 0 0 60.09.923c-1.93-.23-4.51-.43-6.45-.51C69.86.413 83 17.773 83 39.183"/><path fill="#a5a5a5" d="M13.87 39.663v-.43.48m69.13 0h10.4v-.53H83z"/><path fill="#a5a5a5" d="M83 39.183h10.42a37.4 37.4 0 0 0-.52-6.29 38 38 0 0 0-1.5-6 38 38 0 0 0-2.4-5.48 38.6 38.6 0 0 0-3.23-5.08 40.2 40.2 0 0 0-8.61-8.39 40.4 40.4 0 0 0-5.22-3.15A40.3 40.3 0 0 0 60.09.923c-1.93-.23-4.51-.43-6.45-.51C69.86.413 83 17.773 83 39.183"/><path fill="#a1a1a1" d="M13.87 39.663v-.43.48m69.13 0h10.4v-.53H83z"/><path fill="#a1a1a1" d="M83 39.183h10.42a37.4 37.4 0 0 0-.52-6.29 38 38 0 0 0-1.5-6 38 38 0 0 0-2.4-5.48 38.6 38.6 0 0 0-3.23-5.08 40.2 40.2 0 0 0-8.61-8.39 40.4 40.4 0 0 0-5.22-3.15A40.3 40.3 0 0 0 60.09.923c-1.93-.23-4.51-.43-6.45-.51C69.86.413 83 17.773 83 39.183"/><path fill="#9d9d9d" d="M13.87 39.663v-.43.48m69.13 0h10.4v-.53H83z"/><path fill="#9d9d9d" d="M83 39.183h10.42a37.4 37.4 0 0 0-.52-6.29 38 38 0 0 0-1.5-6 38 38 0 0 0-2.4-5.48 38.6 38.6 0 0 0-3.23-5.08 40.2 40.2 0 0 0-8.61-8.39 40.4 40.4 0 0 0-5.22-3.15A40.3 40.3 0 0 0 60.09.923c-1.93-.23-4.51-.43-6.45-.51C69.86.413 83 17.773 83 39.183"/><path fill="#989898" d="M13.87 39.663v-.43.48m69.13 0h10.4v-.53H83z"/><path fill="#989898" d="M83 39.183h10.42a37.4 37.4 0 0 0-.52-6.29 38 38 0 0 0-1.5-6 38 38 0 0 0-2.4-5.48 38.6 38.6 0 0 0-3.23-5.08 40.2 40.2 0 0 0-8.61-8.39 40.4 40.4 0 0 0-5.22-3.15A40.3 40.3 0 0 0 60.09.923c-1.93-.23-4.51-.43-6.45-.51C69.86.413 83 17.773 83 39.183"/><path fill="#949494" d="M13.87 39.663v-.43.48m69.13 0h10.4v-.53H83z"/><path fill="#949494" d="M83 39.183h10.42a37.4 37.4 0 0 0-.52-6.29 38 38 0 0 0-1.5-6 38 38 0 0 0-2.4-5.48 38.6 38.6 0 0 0-3.23-5.08 40.2 40.2 0 0 0-8.61-8.39 40.4 40.4 0 0 0-5.22-3.15A40.3 40.3 0 0 0 60.09.923c-1.93-.23-4.51-.43-6.45-.51C69.86.413 83 17.773 83 39.183"/><path fill="#909090" d="M13.87 39.663v-.43.48m79.55-.48H80.48zm-10.42.48h10.4v-.53H83z"/><path fill="#909090" d="M83 39.183h10.42a37.4 37.4 0 0 0-.52-6.29 38 38 0 0 0-1.5-6 38 38 0 0 0-2.4-5.48 38.6 38.6 0 0 0-3.23-5.08 40.2 40.2 0 0 0-8.61-8.39 40.4 40.4 0 0 0-5.22-3.15A40.3 40.3 0 0 0 60.09.923c-1.93-.23-4.51-.43-6.45-.51C69.86.413 83 17.773 83 39.183"/><path fill="#8c8c8c" d="M13.87 39.663v-.43.48m79.55-.48H80.48zm-10.42.48h10.4v-.53H83z"/><path fill="#8c8c8c" d="M83 39.183h10.42a37.4 37.4 0 0 0-.52-6.29 38 38 0 0 0-1.5-6 38 38 0 0 0-2.4-5.48 38.6 38.6 0 0 0-3.23-5.08 40.2 40.2 0 0 0-8.61-8.39 40.4 40.4 0 0 0-5.22-3.15A40.3 40.3 0 0 0 60.09.923c-1.93-.23-4.51-.43-6.45-.51C69.86.413 83 17.773 83 39.183"/><path fill="#888" d="M13.87 39.663v-.43.48m69.13 0h10.4v-.53H83z"/><path fill="#888" d="M83 39.183h10.42a37.4 37.4 0 0 0-.52-6.29 38 38 0 0 0-1.5-6 38 38 0 0 0-2.4-5.48 38.6 38.6 0 0 0-3.23-5.08 40.2 40.2 0 0 0-8.61-8.39 40.4 40.4 0 0 0-5.22-3.15A40.3 40.3 0 0 0 60.09.923c-1.93-.23-4.51-.43-6.45-.51C69.86.413 83 17.773 83 39.183"/><path fill="#848484" d="M13.87 39.663v-.43.48m79.55-.48H80.48zm-10.42.48h10.4v-.53H83z"/><path fill="#848484" d="M83 39.183h10.42a37.4 37.4 0 0 0-.52-6.29 38 38 0 0 0-1.5-6 38 38 0 0 0-2.4-5.48 38.6 38.6 0 0 0-3.23-5.08 40.2 40.2 0 0 0-8.61-8.39 40.4 40.4 0 0 0-5.22-3.15A40.3 40.3 0 0 0 60.09.923c-1.93-.23-4.51-.43-6.45-.51C69.86.413 83 17.773 83 39.183"/><path fill="gray" d="M13.87 39.663v-.43.48m79.55-.48H80.48zm-10.42.48h10.4v-.53H83z"/><path fill="gray" d="M83 39.183h10.42a37.4 37.4 0 0 0-.52-6.29 38 38 0 0 0-1.5-6 38 38 0 0 0-2.4-5.48 38.6 38.6 0 0 0-3.23-5.08 40.2 40.2 0 0 0-8.61-8.39 40.4 40.4 0 0 0-5.22-3.15A40.3 40.3 0 0 0 60.09.923c-1.93-.23-4.51-.43-6.45-.51C69.86.413 83 17.773 83 39.183"/><path fill="#7c7c7c" d="M13.87 39.663v-.43.48m69.13 0h10.4v-.53H83z"/><path fill="#7c7c7c" d="M83 39.183h10.42a37.4 37.4 0 0 0-.52-6.29 38 38 0 0 0-1.5-6 38 38 0 0 0-2.4-5.48 38.6 38.6 0 0 0-3.23-5.08 40.2 40.2 0 0 0-8.61-8.39 40.4 40.4 0 0 0-5.22-3.15A40.3 40.3 0 0 0 60.09.923c-1.93-.23-4.51-.43-6.45-.51C69.86.413 83 17.773 83 39.183"/><path fill="#777" d="M13.85 39.193v-.01zm79.57.04H80.48zm-10.42.48h10.4v-.53H83z"/><path fill="#777" d="M83 39.183h10.42a37.4 37.4 0 0 0-.52-6.29 38 38 0 0 0-1.5-6 38 38 0 0 0-2.4-5.48 38.6 38.6 0 0 0-3.23-5.08 40.2 40.2 0 0 0-8.61-8.39 40.4 40.4 0 0 0-5.22-3.15A40.3 40.3 0 0 0 60.09.923c-1.93-.23-4.51-.43-6.45-.51C69.86.413 83 17.773 83 39.183"/><path fill="#737373" d="M83 39.713h10.4v-.53H83zM83 39.183h10.42a37.4 37.4 0 0 0-.52-6.29 38 38 0 0 0-1.5-6 38 38 0 0 0-2.4-5.48 38.6 38.6 0 0 0-3.23-5.08 40.2 40.2 0 0 0-8.61-8.39 40.4 40.4 0 0 0-5.22-3.15A40.3 40.3 0 0 0 60.09.923c-1.93-.23-4.51-.43-6.45-.51C69.86.413 83 17.773 83 39.183"/><path fill="#6f6f6f" d="M93.42 39.233H80.48zm-.02.48v-.53H83.22c.31 0 1 .12.91.28s-.5.19-.7.22h-.21H93.4"/><path fill="#6f6f6f" d="M83 38.593c.07.18.06.48.22.59h10.2a37.4 37.4 0 0 0-.52-6.29 38 38 0 0 0-1.5-6 38 38 0 0 0-2.4-5.48 38.6 38.6 0 0 0-3.23-5.08 40.2 40.2 0 0 0-8.61-8.39 40.4 40.4 0 0 0-5.22-3.15A40.3 40.3 0 0 0 60.09.923c-1.93-.23-4.51-.43-6.45-.51 16.07 0 29.13 17 29.36 38.18"/><path fill="#6b6b6b" d="M93.4 39.713v-.53h-7.49c.58.09.65.24.54.34a1 1 0 0 1-.37.16h-.34 7.66m-11.21-9.64a21.9 21.9 0 0 1 3.56 8.37c0 .23 0 .6.16.74h7.51a37.4 37.4 0 0 0-.52-6.29 38 38 0 0 0-1.5-6 38 38 0 0 0-2.4-5.45 38.6 38.6 0 0 0-3.23-5.08 40.2 40.2 0 0 0-8.61-8.39 40.4 40.4 0 0 0-5.22-3.15A40.3 40.3 0 0 0 60.09.923c-1.93-.23-4.51-.43-6.45-.51 13.83 0 25.43 12.63 28.55 29.63"/><path fill="#e1e1e1" d="M13.87 39.713v-.53a37.5 37.5 0 0 1 .52-6.29c1.5-7.16 3-10.57 7.15-16.61A40.1 40.1 0 0 1 47.18.923a41.1 41.1 0 0 1 12.91 0 40.34 40.34 0 0 1 17.05 6.97 40.2 40.2 0 0 1 8.61 8.39 38.6 38.6 0 0 1 3.25 5.13 38 38 0 0 1 2.42 5.57 38 38 0 0 1 1.5 6 37.5 37.5 0 0 1 .52 6.29v.53H13.87"/><path fill="#e1e1e1" d="M60.09.923a40.34 40.34 0 0 1 17.05 6.97 40.2 40.2 0 0 1 8.61 8.39 38.6 38.6 0 0 1 3.25 5.13 38 38 0 0 1 2.42 5.57 38 38 0 0 1 1.5 6 37.5 37.5 0 0 1 .52 6.29v.53H13.87v-.53a37.5 37.5 0 0 1 .52-6.29c.38-1.8 1-4.19 1.5-6l1.11-2.89 1.29-2.68 1.52-2.6 1.71-2.48A40.1 40.1 0 0 1 47.18.923c1.93-.23 4.51-.43 6.46-.51l3.26.13z"/><path fill="#e0e0e0" d="M60.09.923a40.34 40.34 0 0 1 17.05 6.97 40.2 40.2 0 0 1 8.61 8.39 38.6 38.6 0 0 1 3.25 5.13 38 38 0 0 1 2.42 5.57 38 38 0 0 1 1.5 6 37.5 37.5 0 0 1 .52 6.29v.53H13.87v-.53a37.5 37.5 0 0 1 .52-6.29c.38-1.8 1-4.19 1.5-6l1.11-2.89 1.29-2.68 1.52-2.6 1.71-2.48A40.1 40.1 0 0 1 47.18.923c1.93-.23 4.51-.43 6.46-.51l3.26.13z"/><path fill="#dfdfdf" d="M60.09.923a40.34 40.34 0 0 1 17.05 6.97 40.2 40.2 0 0 1 8.61 8.39 38.6 38.6 0 0 1 3.25 5.13 38 38 0 0 1 2.42 5.57 38 38 0 0 1 1.5 6 37.5 37.5 0 0 1 .52 6.29v.53H13.87v-.53a37.5 37.5 0 0 1 .52-6.29c.38-1.8 1-4.19 1.5-6l1.11-2.89 1.29-2.68 1.52-2.6 1.71-2.48A40.1 40.1 0 0 1 47.18.923c1.93-.23 4.51-.43 6.46-.51l3.26.13z"/><path fill="#dedede" d="M60.09.923a40.34 40.34 0 0 1 17.05 6.97 40.2 40.2 0 0 1 8.61 8.39 38.6 38.6 0 0 1 3.25 5.13 38 38 0 0 1 2.42 5.57 38 38 0 0 1 1.5 6 37.5 37.5 0 0 1 .52 6.29v.53h-24.5c-7.2-.08-7.2-.08-10.69 0H13.87v-.53a37.5 37.5 0 0 1 .52-6.29c.38-1.8 1-4.19 1.5-6l1.11-2.89 1.29-2.68 1.52-2.6 1.71-2.48A40.1 40.1 0 0 1 47.18.923c1.93-.23 4.51-.43 6.46-.51l3.26.13z"/><path fill="#dcdcdc" d="M60.09.923a40.34 40.34 0 0 1 17.05 6.97 40.2 40.2 0 0 1 8.61 8.39 38.6 38.6 0 0 1 3.25 5.13 38 38 0 0 1 2.42 5.57 38 38 0 0 1 1.5 6 37.5 37.5 0 0 1 .52 6.29v.53h-23.7c-5.49-.14-7.82-.1-12.15 0H13.87v-.53a37.5 37.5 0 0 1 .52-6.29c.38-1.8 1-4.19 1.5-6l1.11-2.89 1.29-2.68 1.52-2.6 1.71-2.48A40.1 40.1 0 0 1 47.18.923c1.93-.23 4.51-.43 6.46-.51l3.26.13z"/><path fill="#dbdbdb" d="M60.09.923a40.34 40.34 0 0 1 17.05 6.97 40.2 40.2 0 0 1 8.61 8.39 38.6 38.6 0 0 1 3.25 5.13 38 38 0 0 1 2.42 5.57 38 38 0 0 1 1.5 6 37.5 37.5 0 0 1 .52 6.29v.53h-22.9c-6.12-.17-6.83-.16-13.62 0H13.87v-.53a37.5 37.5 0 0 1 .52-6.29c.38-1.8 1-4.19 1.5-6l1.11-2.89 1.29-2.68 1.52-2.6 1.71-2.48A40.1 40.1 0 0 1 47.18.923c1.93-.23 4.51-.43 6.46-.51l3.26.13z"/><path fill="#dadada" d="M60.09.923a40.34 40.34 0 0 1 17.05 6.97 40.2 40.2 0 0 1 8.61 8.39 38.6 38.6 0 0 1 3.25 5.13 38 38 0 0 1 2.42 5.57 38 38 0 0 1 1.5 6 37.5 37.5 0 0 1 .52 6.29v.53H71.33c-6.4-.23-6.4-.23-15.07 0H13.87v-.53a37.5 37.5 0 0 1 .52-6.29c.38-1.8 1-4.19 1.5-6l1.11-2.89 1.29-2.68 1.52-2.6 1.71-2.48A40.1 40.1 0 0 1 47.18.923c1.93-.23 4.51-.43 6.46-.51l3.26.13z"/><path fill="#d8d8d8" d="M60.09.923a40.34 40.34 0 0 1 17.05 6.97 40.2 40.2 0 0 1 8.61 8.39 38.6 38.6 0 0 1 3.25 5.13 38 38 0 0 1 2.42 5.57 38 38 0 0 1 1.5 6 37.5 37.5 0 0 1 .52 6.29v.53H72.12c-2.43-.11-4.86-.13-7.29-.25 2.54-.21 5.14 1.07 7.64-.27 4-2.15 5-15.12-5.45-18.36-8.95-2.87-18.53 4.99-14.27 14.49.16.35 2.32 3.67 2.44 3.73 2.6 1.43 5.28 0 7.92.25-.44.07-.44.07-7.52.28H13.87v-.53a37.5 37.5 0 0 1 .52-6.29c.38-1.8 1-4.19 1.5-6l1.11-2.76 1.29-2.68 1.52-2.6 1.71-2.48A40.1 40.1 0 0 1 47.18.923c1.93-.23 4.51-.43 6.46-.51l3.26.13z"/><path fill="#d6d6d6" d="M60.09.923a40.34 40.34 0 0 1 17.05 6.97 40.2 40.2 0 0 1 8.61 8.39 38.6 38.6 0 0 1 3.25 5.13 38 38 0 0 1 2.42 5.57 38 38 0 0 1 1.5 6 37.5 37.5 0 0 1 .52 6.29v.53H72.89c-1.56-.11-3.12-.15-4.68-.25 6.68-.86 6.68-.86 7.38-4 .74-3.36 1.77-7.95-3.67-12.64-9.76-8.4-22 .26-20.92 9 .28 2.36 2.5 6.85 3.45 7.37 2.12 1.16 4.33 0 6.49.25-.49.08-.56.09-6 .28H13.87v-.53a37.5 37.5 0 0 1 .52-6.29c.38-1.8 1-4.19 1.5-6l1.11-2.9 1.29-2.68 1.52-2.6 1.71-2.48A40.1 40.1 0 0 1 47.18.923c1.93-.23 4.51-.43 6.46-.51l3.26.13z"/><path fill="#d4d4d4" d="M60.09.923a40.34 40.34 0 0 1 17.05 6.97 40.2 40.2 0 0 1 8.61 8.39 38.6 38.6 0 0 1 3.25 5.13 38 38 0 0 1 2.42 5.57 38 38 0 0 1 1.5 6 37.5 37.5 0 0 1 .52 6.29v.53H73.66c-1.16-.08-2.33-.12-3.49-.22 1.47-.34 3 .61 4.46-.31 2.26-1.45 5.94-16.64-8-20.1-8.09-2-21.86 5.5-13.58 19.08.19.31.35.84.66 1 1.63.91 3.35.07 5 .25a36 36 0 0 1-4.46.28H13.87v-.53a37.5 37.5 0 0 1 .52-6.29c.38-1.8 1-4.19 1.5-6l1.11-2.87 1.29-2.68 1.52-2.6 1.71-2.48A40.1 40.1 0 0 1 47.18.923c1.93-.23 4.51-.43 6.46-.51l3.26.13z"/><path fill="#cecece" d="M60.09.923a40.34 40.34 0 0 1 17.05 6.97 40.2 40.2 0 0 1 8.61 8.39 38.6 38.6 0 0 1 3.25 5.13 38 38 0 0 1 2.42 5.57 38 38 0 0 1 1.5 6 37.5 37.5 0 0 1 .52 6.29v.53H74.78c-1.11-.08-2.22-.1-3.33-.25 1.32-.23 2.71.54 4-.27 2-1.29 5.67-18.52-9.06-21.1a14.49 14.49 0 0 0-15.14 6.73c-4 6.38 1.3 14 1.72 14.27 1.48.89 3.05 0 4.57.24a25 25 0 0 1-3.94.29H13.87v-.53a37.5 37.5 0 0 1 .52-6.29c.38-1.8 1-4.19 1.5-6l1.11-2.8 1.29-2.68 1.52-2.6 1.71-2.48A40.1 40.1 0 0 1 47.18.923c1.93-.23 4.51-.43 6.46-.51l3.26.13z"/><path fill="#cacaca" d="M60.09.923a40.34 40.34 0 0 1 17.05 6.97 40.2 40.2 0 0 1 8.61 8.39 38.6 38.6 0 0 1 3.25 5.13 38 38 0 0 1 2.42 5.57 38 38 0 0 1 1.5 6 37.5 37.5 0 0 1 .52 6.29v.53H75.9c-1-.08-2-.09-3-.25 1.2-.25 2.48.52 3.64-.27 2.13-1.45 6-19.93-10.43-22.26-2.29-.33-10.16-.71-15.58 8-3.57 5.73 1 13.87 1.7 14.27 1.27.8 2.62.08 3.93.19-.35.16-.35.16-3.24.34h-39v-.53a37.5 37.5 0 0 1 .52-6.29c.38-1.8 1-4.19 1.5-6l1.06-2.91 1.29-2.68 1.52-2.6 1.71-2.48A40.1 40.1 0 0 1 47.18.923c1.93-.23 4.51-.43 6.46-.51l3.26.13z"/><path fill="#c6c6c6" d="M60.09.923a40.34 40.34 0 0 1 17.05 6.97 40.2 40.2 0 0 1 8.61 8.39 38.6 38.6 0 0 1 3.25 5.13 38 38 0 0 1 2.42 5.57 38 38 0 0 1 1.5 6 37.5 37.5 0 0 1 .52 6.29v.53H77c-.84-.09-1.68-.13-2.52-.21 1-.37 2.11.34 3.08-.31 1.88-1.26 7-19.69-10-23a16.11 16.11 0 0 0-15.78 5.52c-6.72 9.57-.47 17.45-.39 17.5 1.19.77 2.45.08 3.67.19-.26.13-.26.13-3 .34H13.87v-.53a37.5 37.5 0 0 1 .52-6.29c.38-1.8 1-4.19 1.5-6l1.11-2.92 1.29-2.68 1.52-2.6 1.71-2.48A40.1 40.1 0 0 1 47.18.923c1.93-.23 4.51-.43 6.46-.51l3.26.13z"/><path fill="#c2c2c2" d="M60.09.923a40.34 40.34 0 0 1 17.05 6.97 40.2 40.2 0 0 1 8.61 8.39 38.6 38.6 0 0 1 3.25 5.13 38 38 0 0 1 2.42 5.57 38 38 0 0 1 1.5 6 37.5 37.5 0 0 1 .52 6.29v.53H78.08c-.62-.08-1.24-.12-1.86-.18.86-.4 1.85.21 2.69-.35 2.56-1.7 6.1-20.06-9.56-24.15-7.68-2-15 2.05-18.57 6.65-5.57 7.2-.54 17.22-.12 17.5 1.16.78 2.4.08 3.59.21-.955.193-1.926.3-2.9.32H13.87v-.53a37.5 37.5 0 0 1 .52-6.29c.38-1.8 1-4.19 1.5-6l1.11-2.89 1.29-2.68 1.52-2.6 1.71-2.48A40.1 40.1 0 0 1 47.18.923c1.93-.23 4.51-.43 6.46-.51l3.26.13z"/><path fill="#bebebe" d="M60.09.923a40.34 40.34 0 0 1 17.05 6.97 40.2 40.2 0 0 1 8.61 8.39 38.6 38.6 0 0 1 3.25 5.13 38 38 0 0 1 2.42 5.57 38 38 0 0 1 1.5 6 37.5 37.5 0 0 1 .52 6.29v.53H79.66c-.66-.06-1.33-.1-2-.18.8-.45 1.75.19 2.54-.34 2.8-1.99 5.8-22-11.54-25.81-2.61-.58-11.69-1.68-18.91 8.21-5.07 7-.58 17 .14 17.5 1 .73 2.19.07 3.28.21a21 21 0 0 1-2.6.32h-36.7v-.53a37.5 37.5 0 0 1 .52-6.29c.38-1.8 1-4.19 1.5-6l1.11-2.8 1.29-2.68 1.52-2.6 1.71-2.48A40.1 40.1 0 0 1 47.18.923c1.93-.23 4.51-.43 6.46-.51l3.26.13z"/><path fill="#b9b9b9" d="M60.09.923a40.34 40.34 0 0 1 17.05 6.97 40.2 40.2 0 0 1 8.61 8.39 38.6 38.6 0 0 1 3.25 5.13 38 38 0 0 1 2.42 5.57 38 38 0 0 1 1.5 6 37.5 37.5 0 0 1 .52 6.29v.53H81.31c-.67-.06-1.34-.11-2-.18.74-.38 1.61.15 2.33-.34 2.45-1.77 5.22-24.01-13.64-27.26-19.8-3.4-24.48 21.18-19 26.85.1.11.1.11 3.13.52a11 11 0 0 1-2.34.32H13.87v-.53a37.5 37.5 0 0 1 .52-6.29c.38-1.8 1-4.19 1.5-6l1.11-2.8 1.29-2.68 1.52-2.6 1.71-2.48A40.1 40.1 0 0 1 47.18.923c1.93-.23 4.51-.43 6.46-.51l3.26.13z"/><path fill="#b5b5b5" d="M60.09.923a40.34 40.34 0 0 1 17.05 6.97 40.2 40.2 0 0 1 8.61 8.39 38.6 38.6 0 0 1 3.25 5.13 38 38 0 0 1 2.42 5.57 38 38 0 0 1 1.5 6 37.5 37.5 0 0 1 .52 6.29v.53H82.86c-1.14-.1-1.18-.1-1.8-.18.63-.38 1.4.1 2-.34 2.56-1.87 4.53-25.55-15.82-28.61-3.43-.51-12.11-.65-18.59 9.13a17.5 17.5 0 0 0-.29 19.38c.81.58 1.69.09 2.53.18-.59.25-1.25.15-1.86.35H13.87v-.53a37.5 37.5 0 0 1 .52-6.29c.38-1.8 1-4.19 1.5-6l1.11-2.8 1.29-2.68 1.52-2.6 1.71-2.48A40.1 40.1 0 0 1 47.18.923c1.93-.23 4.51-.43 6.46-.51l3.26.13z"/><path fill="#b1b1b1" d="M60.09.923a40.34 40.34 0 0 1 17.05 6.97 40.2 40.2 0 0 1 8.61 8.39 38.6 38.6 0 0 1 3.25 5.13 38 38 0 0 1 2.42 5.57 38 38 0 0 1 1.5 6 37.5 37.5 0 0 1 .52 6.29v.53h-9.12c-1-.09-1.13-.11-1.62-.18.54-.36 1.23.06 1.76-.34 2.61-2 3.74-27-17.92-29.71-7.43-.93-14.18 2.4-18.5 9.13a19 19 0 0 0-.57 20.57c.81.55 1.71.08 2.56.22a12 12 0 0 1-1.77.31H13.87v-.53a37.5 37.5 0 0 1 .52-6.29c.38-1.8 1-4.19 1.5-6l1.11-2.89 1.29-2.68 1.52-2.6 1.71-2.48A40.1 40.1 0 0 1 47.18.923c1.93-.23 4.51-.43 6.46-.51l3.26.13z"/><path fill="#adadad" d="M60.09.923a40.34 40.34 0 0 1 17.05 6.97 40.2 40.2 0 0 1 8.61 8.39 38.6 38.6 0 0 1 3.25 5.13 38 38 0 0 1 2.42 5.57 38 38 0 0 1 1.5 6 37.5 37.5 0 0 1 .52 6.29v.53h-7.76a11 11 0 0 1-1.57-.21c.52-.26 1.15 0 1.66-.31.07-.05 4.57-9-2.62-20.08-2.28-3.61-8.5-9.79-17.33-10.79-5.43-.61-13.18.67-19.22 10.25-5.4 8.56-1.32 19.8-.21 20.57.82.58 1.76 0 2.62.24a4.9 4.9 0 0 1-1.75.26H13.87v-.53a37.5 37.5 0 0 1 .52-6.29c.38-1.8 1-4.19 1.5-6l1.11-2.82 1.29-2.68 1.52-2.6 1.71-2.48A40.1 40.1 0 0 1 47.18.923c1.93-.23 4.51-.43 6.46-.51l3.26.13z"/><path fill="#a9a9a9" d="M60.09.923a40.34 40.34 0 0 1 17.05 6.97 40.2 40.2 0 0 1 8.61 8.39 38.6 38.6 0 0 1 3.25 5.13 38 38 0 0 1 2.42 5.57 38 38 0 0 1 1.5 6 37.5 37.5 0 0 1 .52 6.29v.53h-6.61a7 7 0 0 1-1.32-.22c.44-.22 1 .05 1.4-.3 2.62-2.35 1.63-29.65-21.79-31.87C40 4.943 41.88 36.693 45.3 39.183c.77.56 1.62.08 2.42.18-.52.25-1.13 0-1.64.35H13.87v-.53a37.5 37.5 0 0 1 .52-6.29c.38-1.8 1-4.19 1.5-6l1.11-2.8 1.29-2.68 1.52-2.6 1.71-2.48A40.1 40.1 0 0 1 47.18.923c1.93-.23 4.51-.43 6.46-.51l3.26.13z"/><path fill="#a5a5a5" d="M60.09.923a40.34 40.34 0 0 1 17.05 6.97 40.2 40.2 0 0 1 8.61 8.39 38.6 38.6 0 0 1 3.25 5.13 38 38 0 0 1 2.42 5.57 38 38 0 0 1 1.5 6 37.5 37.5 0 0 1 .52 6.29v.53h-5.59c-.27 0-.64-.1-.91-.15.26-.19.76-.16 1-.37 2.62-2.45.67-30.72-23.55-32.87a20.15 20.15 0 0 0-19.14 9.28c-7.16 11.63-1.12 23.39-1 23.46.74.56 1.58.07 2.35.24-.54.18-1.15 0-1.67.29h-31v-.53a37.5 37.5 0 0 1 .52-6.29c.38-1.8 1-4.19 1.5-6l1.05-2.77 1.29-2.68 1.52-2.6 1.71-2.48A40.1 40.1 0 0 1 47.18.923c1.93-.23 4.51-.43 6.46-.51l3.26.13z"/><path fill="#a1a1a1" d="M60.09.923a40.34 40.34 0 0 1 17.05 6.97 40.2 40.2 0 0 1 8.61 8.39 38.6 38.6 0 0 1 3.25 5.13 38 38 0 0 1 2.42 5.57 38 38 0 0 1 1.5 6 37.5 37.5 0 0 1 .52 6.29v.53h-4.65l-.8-.15c.23-.18.68-.17.89-.37 2.6-2.48-.35-31.7-25.21-33.59a21.1 21.1 0 0 0-20 10.12c-6.8 11.13-.62 23.39-.53 23.46.58.46 1.24.09 1.86.18-.29.18-.29.18-1.29.35H13.87v-.53a37.5 37.5 0 0 1 .52-6.29c.38-1.8 1-4.19 1.5-6l1.11-2.89 1.29-2.68 1.52-2.6 1.71-2.48A40.1 40.1 0 0 1 47.18.923c1.93-.23 4.51-.43 6.46-.51l3.26.13z"/><path fill="#9d9d9d" d="M60.09.923a40.34 40.34 0 0 1 17.05 6.97 40.2 40.2 0 0 1 8.61 8.39 38.6 38.6 0 0 1 3.25 5.13 38 38 0 0 1 2.42 5.57 38 38 0 0 1 1.5 6 37.5 37.5 0 0 1 .52 6.29v.53H89.6a5 5 0 0 1-.82-.25c.26-.13.71-.07.91-.27 3.25-3.32-2.78-35.12-29-34.42s-21.33 32.55-18.83 34.32c.6.44 1.28.08 1.91.21a3.4 3.4 0 0 1-1.28.32H13.87v-.53a37.5 37.5 0 0 1 .52-6.29c.38-1.8 1-4.19 1.5-6l1.11-2.8 1.29-2.68 1.52-2.6 1.71-2.48A40.1 40.1 0 0 1 47.18.923c1.93-.23 4.51-.43 6.46-.51l3.26.13z"/><path fill="#989898" d="M60.09.923a40.34 40.34 0 0 1 17.05 6.97 40.2 40.2 0 0 1 8.61 8.39 38.6 38.6 0 0 1 3.25 5.13 38 38 0 0 1 2.42 5.57 38 38 0 0 1 1.5 6 37.5 37.5 0 0 1 .52 6.29v.53h-3.11c-.14 0-.41 0-.46-.12s.14-.24.21-.35c1.45-2.39 1-11.59-2.23-17.56-1.47-2.71-5.94-10.94-16-15.21-11.04-4.81-25.85-3.15-32.3 11.58-4.08 9.36.78 21 .86 21 .58.44 1.25.08 1.87.19a5.3 5.3 0 0 1-1.35.34H13.87v-.53a37.5 37.5 0 0 1 .52-6.29c.38-1.8 1-4.19 1.5-6l1.11-2.76 1.29-2.68 1.52-2.6 1.71-2.48A40.1 40.1 0 0 1 47.18.923c1.93-.23 4.51-.43 6.46-.51l3.26.13z"/><path fill="#949494" d="M60.09.923a40.34 40.34 0 0 1 17.05 6.97 40.2 40.2 0 0 1 8.61 8.39 38.6 38.6 0 0 1 3.25 5.13 38 38 0 0 1 2.42 5.57 38 38 0 0 1 1.5 6 37.5 37.5 0 0 1 .52 6.29v.53H91c-.11 0-.35 0-.38-.12s.19-.26.28-.37c.83-1.12 1.16-10.52-2.63-17.54a34.3 34.3 0 0 0-15.68-15.46c-15.06-7-28.47-.37-33.44 9.41-5.77 11.37-.27 23.4-.18 23.46.47.37 1 .08 1.51.15-.3.22-.3.22-1.09.38H13.87v-.53a37.5 37.5 0 0 1 .52-6.29c.38-1.8 1-4.19 1.5-6l1.11-2.8 1.29-2.68 1.52-2.6 1.71-2.48A40.1 40.1 0 0 1 47.18.923c1.93-.23 4.51-.43 6.46-.51l3.26.13z"/><path fill="#909090" d="M60.09.923a40.34 40.34 0 0 1 17.05 6.97 40.2 40.2 0 0 1 8.61 8.39 38.6 38.6 0 0 1 3.25 5.13 38 38 0 0 1 2.42 5.57 38 38 0 0 1 1.5 6 37.5 37.5 0 0 1 .52 6.29v.53h-1.87c-.12 0-.35 0-.38-.15s.21-.24.3-.34c.65-.74 1.07-10.11-2.91-17.54a35.43 35.43 0 0 0-15.19-15.46c-12.73-6.5-27.07-3.68-34.09 6.72-8.23 12.18-1.87 26.07-1.77 26.15.43.33.92.08 1.38.15-.33.26-.33.26-1 .38h-24v-.53a37.5 37.5 0 0 1 .52-6.29c.38-1.8 1-4.19 1.5-6l1.07-2.8 1.29-2.68 1.52-2.6 1.71-2.48A40.1 40.1 0 0 1 47.18.923c1.93-.23 4.51-.43 6.46-.51l3.26.13z"/><path fill="#8c8c8c" d="M60.09.923a40.34 40.34 0 0 1 17.05 6.97 40.2 40.2 0 0 1 8.61 8.39 38.6 38.6 0 0 1 3.25 5.13 38 38 0 0 1 2.42 5.57 38 38 0 0 1 1.5 6 37.5 37.5 0 0 1 .52 6.29v.53h-1.37c-.11-.06-.35-.09-.36-.21-.25-2.58.74-5.1.32-7.69a33.2 33.2 0 0 0-3.19-10.13A36.4 36.4 0 0 0 74 6.313c-9.81-5.45-24.7-6.45-34.26 4.25-10.65 11.92-4 28.52-3.84 28.62.43.34.93.08 1.39.15-.32.26-.32.26-1 .38H13.87v-.53a37.5 37.5 0 0 1 .52-6.29c.38-1.8 1-4.19 1.5-6l1.11-2.8 1.29-2.68 1.52-2.6 1.71-2.48A40.1 40.1 0 0 1 47.18.923c1.93-.23 4.51-.43 6.46-.51l3.26.13z"/><path fill="#888" d="M60.09.923a40.34 40.34 0 0 1 17.05 6.97 40.2 40.2 0 0 1 8.61 8.39 38.6 38.6 0 0 1 3.25 5.13 38 38 0 0 1 2.42 5.57 38 38 0 0 1 1.5 6 37.5 37.5 0 0 1 .52 6.29v.53h-.91c-.08-.08-.29-.16-.28-.28s.27-.13.33-.23c4.09-7.72-13.58-45.81-42.94-36.22-23.33 7.62-16.47 35.19-15.34 36.11.42.34.91.09 1.36.18a2 2 0 0 1-1 .35H13.87v-.53a37.5 37.5 0 0 1 .52-6.29c.38-1.8 1-4.19 1.5-6l1.11-2.8 1.29-2.68 1.52-2.6 1.71-2.48A40.1 40.1 0 0 1 47.18.923c1.93-.23 4.51-.43 6.46-.51l3.26.13z"/><path fill="#848484" d="M60.09.923a40.34 40.34 0 0 1 17.05 6.97 40.2 40.2 0 0 1 8.61 8.39 38.6 38.6 0 0 1 3.25 5.13 38 38 0 0 1 2.42 5.57 38 38 0 0 1 1.5 6 37.5 37.5 0 0 1 .52 6.29v.53h-.54c-.44-1 0-2.48.11-3.53.3-3.32-1.79-12-5.61-17.57a38.64 38.64 0 0 0-19.66-15.58c-15-5.23-30.59 1.58-35.46 15.49a31.17 31.17 0 0 0 .44 20.57c.38.31.84.09 1.26.19a2 2 0 0 1-.95.34H13.87v-.53a37.5 37.5 0 0 1 .52-6.29c.38-1.8 1-4.19 1.5-6l1.11-2.8 1.29-2.68 1.52-2.6 1.71-2.48A40.1 40.1 0 0 1 47.18.923c1.93-.23 4.51-.43 6.46-.51l3.26.13z"/><path fill="gray" d="M91.4 26.933a38 38 0 0 1 1.5 6 37.3 37.3 0 0 1 .52 6.29v.53h-.26c-.13-.19-.13-.19.06-.53 0 0 .94-4-2.26-13.5.16.41.31.83.46 1.25M60.09.923a40.3 40.3 0 0 1 11.83 3.82c1 .51 2 1.06 3 1.66-18-10.19-30.47-3.46-35-.09-16.39 12.24-9.1 32.73-8.92 32.87.35.29.76.08 1.13.15-.21.23-.21.23-.8.38H13.87v-.53a37.5 37.5 0 0 1 .52-6.29c.38-1.8 1-4.19 1.5-6l1.11-2.8 1.29-2.68 1.52-2.6 1.71-2.48A40.1 40.1 0 0 1 47.18.923c1.93-.23 4.51-.43 6.46-.51l3.26.13z"/><path fill="#7c7c7c" d="M93.42 39.183v.53h-.08c-.08-.22-.08-.22.05-.52 0 0 .24-.8-.44-6.17a39 39 0 0 1 .49 6.16M60.09.923a40 40 0 0 1 6.12 1.49c.53.17 1 .35 1.55.54-16.63-5.62-27 1-31.68 5.38-13 12.31-6.91 30.76-6.77 30.87.3.26.78-.27 1 .15 0 .07 0 .2-.1.26s-.39 0-.56.12H13.87v-.53a37.5 37.5 0 0 1 .52-6.29c.38-1.8 1-4.19 1.5-6l1.11-2.82 1.29-2.68 1.52-2.6 1.71-2.48A40.1 40.1 0 0 1 47.18.923c1.93-.23 4.51-.43 6.46-.51l3.26.13z"/><path fill="#777" d="M93.4 39.713v-.25a2 2 0 0 0 0-.26zM60.09.923l1.23.21c-14.65-2.51-23.58 3.55-28.48 9.07-10.62 12-5.43 28.88-5.32 29 .33.28.93-.32 1.1.18.12.35-.49.18-.69.35H13.87v-.53a37.5 37.5 0 0 1 .52-6.29c.38-1.8 1-4.19 1.5-6l1.11-2.82 1.29-2.68 1.52-2.6 1.71-2.48A40.1 40.1 0 0 1 47.18.923c1.93-.23 4.51-.43 6.46-.51l3.26.13z"/><path fill="#737373" d="M53.64.413a29.48 29.48 0 0 0-24 12.2c-8.69 12-4.1 26.49-4 26.57.28.26.77-.23.95.19 0 0 0 .14-.08.18s-.35.09-.5.13H13.87v-.53a37.5 37.5 0 0 1 .52-6.29c.38-1.8 1-4.19 1.5-6l1.11-2.77 1.29-2.68 1.52-2.6 1.71-2.48A40.1 40.1 0 0 1 47.18.923c1.93-.23 4.51-.43 6.46-.51"/><path fill="#6f6f6f" d="M24.57 39.463c-.07.12-.33.17-.64.22h.16-10.22v-.53a37.5 37.5 0 0 1 .52-6.29c.38-1.8 1-4.19 1.5-6l1.11-2.77 1.29-2.68 1.52-2.6 1.71-2.48A40.1 40.1 0 0 1 47.18.923c.45-.07.9-.14 1.35-.19-29.76 4-26.56 37.09-25 38.45.28.25.68-.1 1 .18 0 0 .07.06.07.1"/><path fill="#6b6b6b" d="M21.81 39.463c0 .1-.23.15-.34.19l.13.06h-7.73v-.53a37.5 37.5 0 0 1 .52-6.29c.38-1.8 1-4.19 1.5-6l1.11-2.8 1.29-2.68 1.52-2.6 1.71-2.48A40 40 0 0 1 41 2.413c-25.25 8.8-20.87 35.75-19.87 36.77.17.18.45 0 .62.18 0 0 .06.07.06.1"/><path fill="#dadada" d="M73.89 35.413c0 .09-2 3.72-2 3.73-.35.21-15.57.21-16 0-.17-.09-1.79-1.11-3.79-7.37-.32-1 .19-2.46.31-3.51.2-1.7 3.31-5.25 5.54-6.32l4.54-1.15s4.48.84 4.68.89c1.66.35 3.37 2.1 4.67 3.19a9.42 9.42 0 0 1 2 10.54"/><path fill="#dbdbdb" d="M73.52 33.753c-.91 4.15-2.47 5.42-2.49 5.43-.25.15-14.09.15-14.37 0-1.1-.58-4.06-6.08-4-7.37.28-3.45.35-3.56.49-3.81 1.43-2.48 2.46-4.28 4.82-5.43l4.61-1.05c4.83.87 4.83.87 8.32 3.39.11.08 2.23 3.24 2.27 3.39.86 2.94.86 2.94.31 5.45"/><path fill="#dcdcdc" d="M72.54 35.413c-.5 1.23-1.22 3.09-2.38 3.73-.23.13-12.52.13-12.76 0-1.22-.62-4.19-5.92-4.13-7.37 0-1.06-.12-2.58.39-3.51.73-1.32 2.25-4.07 4.38-5.12a9.23 9.23 0 0 1 4.65-1.09c4.2.61 5 .83 7.31 2.82a9.48 9.48 0 0 1 2.54 10.54"/><path fill="#dedede" d="M71.89 35.413c-.55 1.25-1.4 3.1-2.61 3.73-.15.08-11 .08-11.15 0-1.28-.63-4.31-5.8-4.31-7.37a8.1 8.1 0 0 1 .45-3.51s2.18-3.7 3.81-4.51a9.7 9.7 0 0 1 4.68-1.15c.68.07 4.2.51 6.29 2.27 3.42 2.89 4.48 6.83 2.84 10.54"/><path fill="#dfdfdf" d="M71.23 35.413s-1.8 3.29-3.22 3.73h-8.62c-2.59-.56-4.89-6.12-5-7.37a7 7 0 0 1 .51-3.51s2.44-3.5 3.24-3.9a10.84 10.84 0 0 1 4.71-1.22s4.6 1.15 5.27 1.73c1.71 1.5 5.71 5 3.13 10.54"/><path fill="#e0e0e0" d="M70.57 35.413a8.77 8.77 0 0 1-4.24 3.73h-5.22c-5.21-1.21-6.19-7.3-6.19-7.37a7.44 7.44 0 0 1 3.23-6.77c.13-.07 4.65-1.31 4.74-1.31a26.5 26.5 0 0 1 5 1.73c2.57 1.86 4.83 5.59 2.72 10"/><path fill="#e1e1e1" d="M69.91 35.413c-1 2.06-5.12 4.23-7.09 3.73-1.38-.34-3.34-.86-4.35-1.86a10.85 10.85 0 0 1-3-5.51 7.06 7.06 0 0 1 2.71-6.08c1.37-.6 3.28-1.53 4.77-1.44a22 22 0 0 1 5 2c1.42 1 4.46 4 1.94 9.15"/><path fill="#e2e2e2" d="M69.24 35.413c-.66 1.31-5.48 3.41-5.52 3.41-1.72.12-3.72-1.41-5.25-2.23a2.63 2.63 0 0 1-.94-1.18c-.48-1-1.61-2.42-1.53-3.6.16-2 .31-4.07 2.2-5.38 0 0 4.54-1.73 5-1.52 1.47.66 3.71 1.12 4.85 2.24a7.44 7.44 0 0 1 2.25 4.66 9.1 9.1 0 0 1-1.06 3.6"/><path fill="#e2e2e2" d="M68.74 34.983c-.49 1-5 3.19-5 3.2s-5.19-1.91-5.6-2.73c-.53-1.06-1.58-2.45-1.56-3.64 0 0 .1-3.56 1.68-4.67a8.8 8.8 0 0 1 4.81-1.73s5.05 2.28 5.39 2.85a8.65 8.65 0 0 1 1.24 3.55 7.9 7.9 0 0 1-1 3.17"/><path fill="#e3e3e3" d="M68.65 33.303a6.7 6.7 0 0 1-1.38 2.11c-.94.79-2.33 2-3.56 2.05 0 0-4.82-1.84-5.26-2.62a7.9 7.9 0 0 1-1.34-3.07s.4-3.41 1.16-4a8.9 8.9 0 0 1 4.86-1.79 6.72 6.72 0 0 1 4.35 2.24c2.17 2.85 1.54 4.2 1.17 5"/><path fill="#e4e4e4" d="M66.09 35.413a4.6 4.6 0 0 1-2.39 1.37c-1 .05-4.71-2.27-5.27-3.26-1.93-3.44.48-5.24.5-5.26a7.83 7.83 0 0 1 4.26-1.63c1.192.2 2.29.77 3.14 1.63.89.86 2.15 2.28 2.12 3.51s-1.45 2.79-2.36 3.64"/><path fill="#e5e5e5" d="M64.91 35.413a2.4 2.4 0 0 1-1.22.69 2.73 2.73 0 0 1-1.56-.69c-.61-.48-3.64-2.89-3.92-3.64s2.39-3.49 2.42-3.51a4.73 4.73 0 0 1 2.61-1 3.33 3.33 0 0 1 1.94 1c.86.92 2.29 2.26 2.27 3.51s-1.55 2.79-2.54 3.64"/><path fill="#e6e6e6" d="M63.72 35.413s-4.3-3.62-4.31-3.66c-.11-1.37 2-2.54 2.94-3.51a1.5 1.5 0 0 1 1-.38c.282.032.542.167.73.38.81 1 2.44 2.24 2.41 3.51s-1.75 2.8-2.77 3.66"/><path fill="#e6e6e6" d="M63.64 34.183a3.12 3.12 0 0 1-2.78-2.37c-.09-1.14 1.36-2.94 2.51-2.89s2.06 1.83 2 2.89c0 .89-.89 2.26-1.77 2.36"/><path fill="#e7e7e7" d="M63.59 32.873a1.38 1.38 0 0 1-1.25-1.06c0-.51.61-1.34 1.13-1.31s.93.83.92 1.31-.4 1-.8 1.06"/></g></svg>