<svg xmlns="http://www.w3.org/2000/svg" viewBox="0 0 108 150"><title>Meter 9(仪表9)</title><defs><linearGradient id="a" x1="0%" x2="100%" y1="50%" y2="50%"><stop offset="0%" stop-color="#b7b7b7"/><stop offset="28%" stop-color="#d6d6d6"/><stop offset="45%" stop-color="#e4e4e4"/><stop offset="48%" stop-color="#ededed"/><stop offset="53%" stop-color="#f4f4f4"/><stop offset="67%" stop-color="#f6f6f6"/><stop offset="76%" stop-color="#f4f4f4"/><stop offset="80%" stop-color="#ededed"/><stop offset="82%" stop-color="#e2e2e2"/><stop offset="83%" stop-color="#dedede"/><stop offset="92%" stop-color="#c8c8c8"/><stop offset="100%" stop-color="#b3b3b3"/></linearGradient><linearGradient id="b" x1="0%" x2="99.964%" y1="50%" y2="50%"><stop offset="0%" stop-color="#6b6b6b"/><stop offset="11%" stop-color="#767676"/><stop offset="30%" stop-color="#959595"/><stop offset="41%" stop-color="#aaa"/><stop offset="56%" stop-color="#ccc"/><stop offset="71%" stop-color="#eaeaea"/><stop offset="80%" stop-color="#f6f6f6"/><stop offset="83%" stop-color="#ededed"/><stop offset="87%" stop-color="#d4d4d4"/><stop offset="92%" stop-color="#ababab"/><stop offset="98%" stop-color="#737373"/><stop offset="99%" stop-color="#666"/></linearGradient><linearGradient id="c" x1="0%" x2="99.847%" y1="50%" y2="50%"><stop offset="0%" stop-color="#6b6b6b"/><stop offset="11%" stop-color="#767676"/><stop offset="30%" stop-color="#959595"/><stop offset="41%" stop-color="#aaa"/><stop offset="56%" stop-color="#ccc"/><stop offset="71%" stop-color="#eaeaea"/><stop offset="80%" stop-color="#f6f6f6"/><stop offset="83%" stop-color="#ededed"/><stop offset="87%" stop-color="#d4d4d4"/><stop offset="92%" stop-color="#ababab"/><stop offset="98%" stop-color="#737373"/><stop offset="99%" stop-color="#666"/></linearGradient><linearGradient id="d" x1="0%" x2="100%" y1="50%" y2="50%"><stop offset="0%" stop-color="#6b6b6b"/><stop offset="11%" stop-color="#767676"/><stop offset="30%" stop-color="#959595"/><stop offset="41%" stop-color="#aaa"/><stop offset="56%" stop-color="#ccc"/><stop offset="71%" stop-color="#eaeaea"/><stop offset="80%" stop-color="#f6f6f6"/><stop offset="83%" stop-color="#ededed"/><stop offset="87%" stop-color="#d4d4d4"/><stop offset="92%" stop-color="#ababab"/><stop offset="98%" stop-color="#737373"/><stop offset="99%" stop-color="#666"/></linearGradient><linearGradient id="e" x1="0%" x2="100%" y1="50.038%" y2="50.038%"><stop offset="0%" stop-color="#b7b7b7"/><stop offset="5%" stop-color="#d6d6d6"/><stop offset="8%" stop-color="#e4e4e4"/><stop offset="15%" stop-color="#ededed"/><stop offset="26%" stop-color="#f4f4f4"/><stop offset="56%" stop-color="#f6f6f6"/><stop offset="77%" stop-color="#f4f4f4"/><stop offset="84%" stop-color="#ededed"/><stop offset="89%" stop-color="#e2e2e2"/><stop offset="90%" stop-color="#dedede"/><stop offset="95%" stop-color="#c8c8c8"/><stop offset="100%" stop-color="#b3b3b3"/></linearGradient><linearGradient id="f" x1="0%" x2="100%" y1="50.038%" y2="50.038%"><stop offset="0%" stop-color="#b7b7b7"/><stop offset="1%" stop-color="#9b9d9d"/><stop offset="2%" stop-color="#878b8b"/><stop offset="2%" stop-color="#808484"/><stop offset="28%" stop-color="#a3a6a6"/><stop offset="93%" stop-color="#f6f6f6"/><stop offset="95%" stop-color="#f3f3f3"/><stop offset="96%" stop-color="#eaeaea"/><stop offset="97%" stop-color="#dbdbdb"/><stop offset="98%" stop-color="#c5c5c5"/><stop offset="99%" stop-color="#aaa"/><stop offset="99%" stop-color="#888"/><stop offset="100%" stop-color="#666"/></linearGradient><linearGradient id="g" x1="0%" x2="100%" y1="50%" y2="50%"><stop offset="0%" stop-color="#cecece"/><stop offset="17%" stop-color="#c2c3c3"/><stop offset="70%" stop-color="#a4a4a4"/><stop offset="99%" stop-color="#989999"/></linearGradient><linearGradient id="h" x1="0%" x2="100%" y1="50.003%" y2="50.003%"><stop offset="0%" stop-color="#6b6b6b"/><stop offset="11%" stop-color="#767676"/><stop offset="30%" stop-color="#959595"/><stop offset="41%" stop-color="#aaa"/><stop offset="56%" stop-color="#ccc"/><stop offset="71%" stop-color="#eaeaea"/><stop offset="80%" stop-color="#f6f6f6"/><stop offset="83%" stop-color="#ededed"/><stop offset="87%" stop-color="#d4d4d4"/><stop offset="92%" stop-color="#ababab"/><stop offset="98%" stop-color="#737373"/><stop offset="99%" stop-color="#666"/></linearGradient><linearGradient id="i" x1="0%" x2="100%" y1="50.028%" y2="50.028%"><stop offset="0%" stop-color="#6b6b6b"/><stop offset="11%" stop-color="#767676"/><stop offset="30%" stop-color="#959595"/><stop offset="41%" stop-color="#aaa"/><stop offset="56%" stop-color="#ccc"/><stop offset="71%" stop-color="#eaeaea"/><stop offset="80%" stop-color="#f6f6f6"/><stop offset="83%" stop-color="#ededed"/><stop offset="87%" stop-color="#d4d4d4"/><stop offset="92%" stop-color="#ababab"/><stop offset="98%" stop-color="#737373"/><stop offset="99%" stop-color="#666"/></linearGradient><linearGradient id="j" x1="0%" x2="100%" y1="50%" y2="50%"><stop offset="0%" stop-color="#6b6b6b"/><stop offset="11%" stop-color="#767676"/><stop offset="30%" stop-color="#959595"/><stop offset="41%" stop-color="#aaa"/><stop offset="56%" stop-color="#ccc"/><stop offset="71%" stop-color="#eaeaea"/><stop offset="80%" stop-color="#f6f6f6"/><stop offset="83%" stop-color="#ededed"/><stop offset="87%" stop-color="#d4d4d4"/><stop offset="92%" stop-color="#ababab"/><stop offset="98%" stop-color="#737373"/><stop offset="99%" stop-color="#666"/></linearGradient><linearGradient id="k" x1="0%" x2="100.059%" y1="50%" y2="50%"><stop offset="0%" stop-color="#6b6b6b"/><stop offset="11%" stop-color="#767676"/><stop offset="30%" stop-color="#959595"/><stop offset="41%" stop-color="#aaa"/><stop offset="56%" stop-color="#ccc"/><stop offset="71%" stop-color="#eaeaea"/><stop offset="80%" stop-color="#f6f6f6"/><stop offset="83%" stop-color="#ededed"/><stop offset="87%" stop-color="#d4d4d4"/><stop offset="92%" stop-color="#ababab"/><stop offset="98%" stop-color="#737373"/><stop offset="99%" stop-color="#666"/></linearGradient><linearGradient id="l" x1="0%" x2="100%" y1="50%" y2="50%"><stop offset="0%" stop-color="#b7b7b7"/><stop offset="3%" stop-color="#d6d6d6"/><stop offset="4%" stop-color="#e4e4e4"/><stop offset="11%" stop-color="#ededed"/><stop offset="23%" stop-color="#f4f4f4"/><stop offset="56%" stop-color="#f6f6f6"/><stop offset="80%" stop-color="#f4f4f4"/><stop offset="89%" stop-color="#ededed"/><stop offset="95%" stop-color="#e2e2e2"/><stop offset="97%" stop-color="#dedede"/><stop offset="98%" stop-color="#c8c8c8"/><stop offset="100%" stop-color="#b3b3b3"/></linearGradient><linearGradient id="m" x1="0%" x2="100%" y1="50.123%" y2="50.123%"><stop offset="0%" stop-color="#6b6b6b"/><stop offset="11%" stop-color="#767676"/><stop offset="30%" stop-color="#959595"/><stop offset="41%" stop-color="#aaa"/><stop offset="56%" stop-color="#ccc"/><stop offset="71%" stop-color="#eaeaea"/><stop offset="80%" stop-color="#f6f6f6"/><stop offset="83%" stop-color="#ededed"/><stop offset="87%" stop-color="#d4d4d4"/><stop offset="92%" stop-color="#ababab"/><stop offset="98%" stop-color="#737373"/><stop offset="99%" stop-color="#666"/></linearGradient></defs><g fill="none" fill-rule="nonzero"><rect width="90.91" height="115.9" x="8.29" y="16.521" fill="url(#a)" rx="3.28"/><path fill="url(#b)" d="M40.31 60.231h27.67v26.34H40.31z"/><path fill="url(#c)" d="M33.29 16.661h6.53v13.2h-6.53z"/><path fill="url(#d)" d="M67.54 16.661h6.53v13.2h-6.53z"/><path fill="url(#d)" d="M50.22 16.661h6.53v13.2h-6.53z"/><path fill="#b9b9b9" d="M21.35 28.601h64.27v31.63H21.35z"/><rect width="13.19" height="46.32" x="47.095" y="25.976" fill="#7f7f7f" rx="1.84" transform="rotate(90 53.69 49.136)"/><path fill="url(#e)" d="M40.97 42.541h4.27v13.19h-4.27z"/><path fill="url(#e)" d="M36.64 42.541h4.27v13.19h-4.27z"/><path fill="url(#e)" d="M45.24 42.541h4.27v13.19h-4.27z"/><path fill="url(#e)" d="M49.51 42.541h4.27v13.19h-4.27z"/><path fill="url(#f)" d="M53.78 42.541h4.27v13.19h-4.27z"/><path fill="url(#f)" d="M58.05 42.541h4.27v13.19h-4.27z"/><path fill="url(#f)" d="M62.32 42.541h4.27v13.19h-4.27z"/><path fill="url(#f)" d="M66.59 42.541h4.27v13.19h-4.27z"/><path fill="url(#g)" d="M21.35 86.571h64.27v34.08H21.35z"/><path fill="url(#h)" d="M37 .001h33.48a.82.82 0 0 1 .82.82v15.76H36.14V.821a.82.82 0 0 1 .86-.82"/><path fill="url(#i)" d="M35.91 132.421h35.15v16.73a.82.82 0 0 1-.82.82H36.73a.82.82 0 0 1-.82-.82z"/><path fill="url(#j)" d="M.73 60.231h16.33v26.34H.73a.73.73 0 0 1-.73-.73v-24.84a.73.73 0 0 1 .73-.73z"/><path fill="url(#k)" d="M91.08 60.231h16.32v26.34H91.08a.73.73 0 0 1-.73-.73v-24.84a.73.73 0 0 1 .73-.73z" transform="matrix(-1 0 0 -1 197.75 146.802)"/><ellipse cx="53.73" cy="9.481" fill="#7f7f7f" rx="14.25" ry="5.75"/><path fill="url(#l)" d="M26.67 5.421h53.8v7.4h-53.8z"/><path fill="url(#m)" d="M39.85 132.421h1.79v8.16h-1.79z"/><path fill="url(#m)" d="M48.47 132.421h1.79v8.16h-1.79z"/><path fill="url(#m)" d="M57.24 132.421h1.79v8.16h-1.79z"/><path fill="url(#m)" d="M65.64 132.421h1.79v8.16h-1.79z"/></g></svg>