<svg xmlns="http://www.w3.org/2000/svg" viewBox="0 0 147 150"><title>Meter 10(仪表10)</title><defs><linearGradient id="a" x1="0%" x2="100.035%" y1="50%" y2="50%"><stop offset="0%" stop-color="#e2e2e2"/><stop offset="3%" stop-color="#d0d0d0"/><stop offset="6%" stop-color="#bcbcbc"/><stop offset="9%" stop-color="#b5b5b5"/><stop offset="49%" stop-color="#f6f6f6"/><stop offset="63%" stop-color="#f3f3f3"/><stop offset="73%" stop-color="#eaeaea"/><stop offset="82%" stop-color="#dbdbdb"/><stop offset="90%" stop-color="#c6c6c6"/><stop offset="97%" stop-color="#aaa"/><stop offset="100%" stop-color="#9b9b9b"/></linearGradient><linearGradient id="b" x1=".623%" x2="100.432%" y1="48.086%" y2="48.086%"><stop offset="0%" stop-color="#6b6b6b"/><stop offset="11%" stop-color="#767676"/><stop offset="30%" stop-color="#959595"/><stop offset="41%" stop-color="#aaa"/><stop offset="56%" stop-color="#ccc"/><stop offset="71%" stop-color="#eaeaea"/><stop offset="80%" stop-color="#f6f6f6"/><stop offset="83%" stop-color="#ededed"/><stop offset="87%" stop-color="#d4d4d4"/><stop offset="92%" stop-color="#ababab"/><stop offset="98%" stop-color="#737373"/><stop offset="99%" stop-color="#666"/></linearGradient><linearGradient id="c" x1="-2.735%" x2="96.898%" y1="49.321%" y2="49.321%"><stop offset="0%" stop-color="#6b6b6b"/><stop offset="11%" stop-color="#767676"/><stop offset="30%" stop-color="#959595"/><stop offset="41%" stop-color="#aaa"/><stop offset="56%" stop-color="#ccc"/><stop offset="71%" stop-color="#eaeaea"/><stop offset="80%" stop-color="#f6f6f6"/><stop offset="83%" stop-color="#ededed"/><stop offset="87%" stop-color="#d4d4d4"/><stop offset="92%" stop-color="#ababab"/><stop offset="98%" stop-color="#737373"/><stop offset="99%" stop-color="#666"/></linearGradient><linearGradient id="d" x1="3.428%" x2="103.159%" y1="49.347%" y2="49.347%"><stop offset="0%" stop-color="#6b6b6b"/><stop offset="11%" stop-color="#767676"/><stop offset="30%" stop-color="#959595"/><stop offset="41%" stop-color="#aaa"/><stop offset="56%" stop-color="#ccc"/><stop offset="71%" stop-color="#eaeaea"/><stop offset="80%" stop-color="#f6f6f6"/><stop offset="83%" stop-color="#ededed"/><stop offset="87%" stop-color="#d4d4d4"/><stop offset="92%" stop-color="#ababab"/><stop offset="98%" stop-color="#737373"/><stop offset="99%" stop-color="#666"/></linearGradient><linearGradient id="e" x1="0%" x2="100%" y1="50%" y2="50%"><stop offset="0%" stop-color="#e2e2e2"/><stop offset="3%" stop-color="#d0d0d0"/><stop offset="6%" stop-color="#bcbcbc"/><stop offset="9%" stop-color="#b5b5b5"/><stop offset="49%" stop-color="#f6f6f6"/><stop offset="63%" stop-color="#f3f3f3"/><stop offset="73%" stop-color="#eaeaea"/><stop offset="82%" stop-color="#dbdbdb"/><stop offset="90%" stop-color="#c6c6c6"/><stop offset="97%" stop-color="#aaa"/><stop offset="100%" stop-color="#9b9b9b"/></linearGradient><linearGradient id="f" x1="14.72%" x2="85.431%" y1="14.606%" y2="85.317%"><stop offset="0%" stop-color="#b7b7b7"/><stop offset="3%" stop-color="#9b9d9d"/><stop offset="7%" stop-color="#878b8b"/><stop offset="9%" stop-color="#808484"/><stop offset="20%" stop-color="#a3a6a6"/><stop offset="49%" stop-color="#f6f6f6"/><stop offset="61%" stop-color="#f3f3f3"/><stop offset="70%" stop-color="#eaeaea"/><stop offset="77%" stop-color="#dbdbdb"/><stop offset="83%" stop-color="#c5c5c5"/><stop offset="90%" stop-color="#aaa"/><stop offset="95%" stop-color="#888"/><stop offset="100%" stop-color="#666"/></linearGradient><linearGradient id="g" x1="-216.822%" x2="-116.706%" y1="-269.042%" y2="-269.042%"><stop offset="0%" stop-color="#b7b7b7"/><stop offset="3%" stop-color="#9b9d9d"/><stop offset="7%" stop-color="#878b8b"/><stop offset="9%" stop-color="#808484"/><stop offset="20%" stop-color="#a3a6a6"/><stop offset="49%" stop-color="#f6f6f6"/><stop offset="61%" stop-color="#f3f3f3"/><stop offset="70%" stop-color="#eaeaea"/><stop offset="77%" stop-color="#dbdbdb"/><stop offset="83%" stop-color="#c5c5c5"/><stop offset="90%" stop-color="#aaa"/><stop offset="95%" stop-color="#888"/><stop offset="100%" stop-color="#666"/></linearGradient><linearGradient id="h" x1="373.131%" x2="473.248%" y1="-92.757%" y2="-92.757%"><stop offset="0%" stop-color="#b7b7b7"/><stop offset="3%" stop-color="#9b9d9d"/><stop offset="7%" stop-color="#878b8b"/><stop offset="9%" stop-color="#808484"/><stop offset="20%" stop-color="#a3a6a6"/><stop offset="49%" stop-color="#f6f6f6"/><stop offset="61%" stop-color="#f3f3f3"/><stop offset="70%" stop-color="#eaeaea"/><stop offset="77%" stop-color="#dbdbdb"/><stop offset="83%" stop-color="#c5c5c5"/><stop offset="90%" stop-color="#aaa"/><stop offset="95%" stop-color="#888"/><stop offset="100%" stop-color="#666"/></linearGradient><linearGradient id="i" x1="100%" x2="-.035%" y1="50.035%" y2="50.035%"><stop offset="0%" stop-color="#e2e2e2"/><stop offset="3%" stop-color="#d0d0d0"/><stop offset="6%" stop-color="#bcbcbc"/><stop offset="9%" stop-color="#b5b5b5"/><stop offset="49%" stop-color="#f6f6f6"/><stop offset="63%" stop-color="#f3f3f3"/><stop offset="73%" stop-color="#eaeaea"/><stop offset="82%" stop-color="#dbdbdb"/><stop offset="90%" stop-color="#c6c6c6"/><stop offset="97%" stop-color="#aaa"/><stop offset="100%" stop-color="#9b9b9b"/></linearGradient><linearGradient id="j" x1=".212%" x2="99.943%" y1="57.973%" y2="57.973%"><stop offset="0%" stop-color="#6b6b6b"/><stop offset="11%" stop-color="#767676"/><stop offset="30%" stop-color="#959595"/><stop offset="41%" stop-color="#aaa"/><stop offset="56%" stop-color="#ccc"/><stop offset="71%" stop-color="#eaeaea"/><stop offset="80%" stop-color="#f6f6f6"/><stop offset="83%" stop-color="#ededed"/><stop offset="87%" stop-color="#d4d4d4"/><stop offset="92%" stop-color="#ababab"/><stop offset="98%" stop-color="#737373"/><stop offset="99%" stop-color="#666"/></linearGradient><linearGradient id="k" x1="8.883%" x2="108.516%" y1="49.027%" y2="49.027%"><stop offset="0%" stop-color="#6b6b6b"/><stop offset="11%" stop-color="#767676"/><stop offset="30%" stop-color="#959595"/><stop offset="41%" stop-color="#aaa"/><stop offset="56%" stop-color="#ccc"/><stop offset="71%" stop-color="#eaeaea"/><stop offset="80%" stop-color="#f6f6f6"/><stop offset="83%" stop-color="#ededed"/><stop offset="87%" stop-color="#d4d4d4"/><stop offset="92%" stop-color="#ababab"/><stop offset="98%" stop-color="#737373"/><stop offset="99%" stop-color="#666"/></linearGradient><linearGradient id="l" x1="-8.622%" x2="91.011%" y1="49.928%" y2="49.928%"><stop offset="0%" stop-color="#6b6b6b"/><stop offset="11%" stop-color="#767676"/><stop offset="30%" stop-color="#959595"/><stop offset="41%" stop-color="#aaa"/><stop offset="56%" stop-color="#ccc"/><stop offset="71%" stop-color="#eaeaea"/><stop offset="80%" stop-color="#f6f6f6"/><stop offset="83%" stop-color="#ededed"/><stop offset="87%" stop-color="#d4d4d4"/><stop offset="92%" stop-color="#ababab"/><stop offset="98%" stop-color="#737373"/><stop offset="99%" stop-color="#666"/></linearGradient><linearGradient id="m" x1="99.933%" x2="-.067%" y1="50%" y2="50%"><stop offset="0%" stop-color="#e2e2e2"/><stop offset="3%" stop-color="#d0d0d0"/><stop offset="6%" stop-color="#bcbcbc"/><stop offset="9%" stop-color="#b5b5b5"/><stop offset="49%" stop-color="#f6f6f6"/><stop offset="63%" stop-color="#f3f3f3"/><stop offset="73%" stop-color="#eaeaea"/><stop offset="82%" stop-color="#dbdbdb"/><stop offset="90%" stop-color="#c6c6c6"/><stop offset="97%" stop-color="#aaa"/><stop offset="100%" stop-color="#9b9b9b"/></linearGradient><linearGradient id="n" x1="85.304%" x2="14.593%" y1="85.392%" y2="14.681%"><stop offset="0%" stop-color="#b7b7b7"/><stop offset="3%" stop-color="#9b9d9d"/><stop offset="7%" stop-color="#878b8b"/><stop offset="9%" stop-color="#808484"/><stop offset="20%" stop-color="#a3a6a6"/><stop offset="49%" stop-color="#f6f6f6"/><stop offset="61%" stop-color="#f3f3f3"/><stop offset="70%" stop-color="#eaeaea"/><stop offset="77%" stop-color="#dbdbdb"/><stop offset="83%" stop-color="#c5c5c5"/><stop offset="90%" stop-color="#aaa"/><stop offset="95%" stop-color="#888"/><stop offset="100%" stop-color="#666"/></linearGradient><linearGradient id="o" x1="85.396%" x2="14.685%" y1="85.375%" y2="14.664%"><stop offset="0%" stop-color="#b7b7b7"/><stop offset="3%" stop-color="#9b9d9d"/><stop offset="7%" stop-color="#878b8b"/><stop offset="9%" stop-color="#808484"/><stop offset="20%" stop-color="#a3a6a6"/><stop offset="49%" stop-color="#f6f6f6"/><stop offset="61%" stop-color="#f3f3f3"/><stop offset="70%" stop-color="#eaeaea"/><stop offset="77%" stop-color="#dbdbdb"/><stop offset="83%" stop-color="#c5c5c5"/><stop offset="90%" stop-color="#aaa"/><stop offset="95%" stop-color="#888"/><stop offset="100%" stop-color="#666"/></linearGradient><linearGradient id="p" x1="85.382%" x2="14.671%" y1="85.318%" y2="14.607%"><stop offset="0%" stop-color="#b7b7b7"/><stop offset="3%" stop-color="#9b9d9d"/><stop offset="7%" stop-color="#878b8b"/><stop offset="9%" stop-color="#808484"/><stop offset="20%" stop-color="#a3a6a6"/><stop offset="49%" stop-color="#f6f6f6"/><stop offset="61%" stop-color="#f3f3f3"/><stop offset="70%" stop-color="#eaeaea"/><stop offset="77%" stop-color="#dbdbdb"/><stop offset="83%" stop-color="#c5c5c5"/><stop offset="90%" stop-color="#aaa"/><stop offset="95%" stop-color="#888"/><stop offset="100%" stop-color="#666"/></linearGradient></defs><g fill="none" fill-rule="evenodd" transform="translate(0 .001)"><rect width="146.88" height="149.37" fill="#7f7f7f" fill-rule="nonzero" rx=".29"/><rect width="129.7" height="131.56" x="8.39" y="8.85" fill="#b9b9b9" fill-rule="nonzero" rx=".29"/><rect width="124.12" height="125.64" x="10.99" y="11.89" fill="#faf9f9" fill-rule="nonzero" rx=".29"/><path fill="#7f7f7f" fill-rule="nonzero" d="M65.02 71.57 41.25 43.63l-2.61 2.92z"/><circle cx="31.41" cy="36.77" r="14.14" fill="url(#a)" fill-rule="nonzero"/><path stroke="#7f7f7f" stroke-width=".25" d="m52.33 78.18-3.77-5.35m-16.9 8.62-.07-6.54m40.96-17.99-5.9-2.84m8.58-15.88-6.54-.16"/><path fill="url(#b)" fill-rule="nonzero" d="M21.817 25.847h4.59a.53.53 0 0 1 .53.53v6.42h-5.65v-6.42a.53.53 0 0 1 .53-.53" transform="rotate(-48.01 24.112 29.322)"/><path fill="url(#c)" fill-rule="nonzero" d="M21.19 41.22h5.66v6.42a.53.53 0 0 1-.53.53h-4.59a.53.53 0 0 1-.53-.53v-6.42z" transform="rotate(48.01 24.02 44.694)"/><path fill="url(#d)" fill-rule="nonzero" d="M36.582 26.004h5.66v6.42a.53.53 0 0 1-.53.53h-4.59a.53.53 0 0 1-.53-.53v-6.42z" transform="rotate(228.01 39.412 29.48)"/><circle cx="31.8" cy="37.16" r="7.51" fill="url(#e)" fill-rule="nonzero"/><circle cx="31.66" cy="36.97" r="3.6" fill="url(#f)" fill-rule="nonzero"/><path fill="#7f7f7f" fill-rule="nonzero" d="M31.18 34.34h1.28v5.56h-1.28z"/><circle cx="60.8" cy="18.16" r="4.28" fill="url(#g)" fill-rule="nonzero"/><path fill="#7f7f7f" fill-rule="nonzero" d="m62.784 15.474 1.075 1.075-4.681 4.68-1.075-1.074z"/><path fill="#7f7f7f" fill-rule="nonzero" d="M63.856 20.144 62.78 21.22l-4.68-4.681 1.074-1.075z"/><circle cx="17.34" cy="71.57" r="4.28" fill="url(#h)" fill-rule="nonzero"/><path fill="#7f7f7f" fill-rule="nonzero" d="m19.327 68.88 1.075 1.075-4.681 4.68-1.075-1.074z"/><path fill="#7f7f7f" fill-rule="nonzero" d="m20.4 73.557-1.075 1.075-4.68-4.681 1.074-1.075zM79.81 77.98l23.77 27.94 2.61-2.92z"/><circle cx="113.42" cy="112.78" r="14.14" fill="url(#i)" fill-rule="nonzero"/><path stroke="#7f7f7f" stroke-width=".25" d="m92.49 71.37 3.78 5.35m16.9-8.62.07 6.54m-40.96 18 5.89 2.83m-8.57 15.88 6.54.16"/><path fill="url(#j)" fill-rule="nonzero" d="M118.473 116.737h4.57a.53.53 0 0 1 .53.53v6.42h-5.66v-6.42a.53.53 0 0 1 .56-.53" transform="rotate(131.99 120.743 120.211)"/><path fill="url(#k)" fill-rule="nonzero" d="M117.95 101.369h5.66v6.42a.53.53 0 0 1-.53.53h-4.59a.53.53 0 0 1-.53-.53v-6.42z" transform="rotate(228.01 120.78 104.844)"/><path fill="url(#l)" fill-rule="nonzero" d="M102.6 116.606h5.66v6.4a.53.53 0 0 1-.53.53h-4.59a.53.53 0 0 1-.53-.53v-6.4z" transform="rotate(48.01 105.43 120.07)"/><circle cx="113.03" cy="112.39" r="7.51" fill="url(#m)" fill-rule="nonzero"/><circle cx="113.17" cy="112.58" r="3.6" fill="url(#n)" fill-rule="nonzero"/><path fill="#7f7f7f" fill-rule="nonzero" d="M113.65 115.21h-1.28v-5.56h1.28z"/><circle cx="84.03" cy="131.39" r="4.28" fill="url(#o)" fill-rule="nonzero"/><path fill="#7f7f7f" fill-rule="nonzero" d="m82.043 134.085-1.075-1.075 4.681-4.68 1.075 1.074z"/><path fill="#7f7f7f" fill-rule="nonzero" d="m80.965 129.403 1.075-1.075 4.68 4.681-1.074 1.075z"/><circle cx="127.49" cy="77.98" r="4.28" fill="url(#p)" fill-rule="nonzero"/><path fill="#7f7f7f" fill-rule="nonzero" d="m125.505 80.67-1.075-1.075 4.681-4.68 1.075 1.074z"/><path fill="#7f7f7f" fill-rule="nonzero" d="m124.43 75.995 1.075-1.075 4.68 4.681-1.074 1.075z"/><path fill="#000" fill-rule="nonzero" d="M122 40.94h-3.23l-1.88-5.22H111l-1.89 5.22h-3.23l6.73-17h2.69zm-5.78-7.09-2.16-6h-.27l-2.15 6z"/></g></svg>