<svg xmlns="http://www.w3.org/2000/svg" viewBox="0 0 117 150"><title>Meter 7(仪表7)</title><defs><linearGradient id="a" x1="0%" x2="100%" y1="49.996%" y2="49.996%"><stop offset="0%" stop-color="#6b6b6b"/><stop offset="1%" stop-color="#767676"/><stop offset="3%" stop-color="#959595"/><stop offset="4%" stop-color="#aaa"/><stop offset="37%" stop-color="#ccc"/><stop offset="74%" stop-color="#eaeaea"/><stop offset="94%" stop-color="#f6f6f6"/><stop offset="95%" stop-color="#ededed"/><stop offset="96%" stop-color="#d4d4d4"/><stop offset="97%" stop-color="#ababab"/><stop offset="99%" stop-color="#737373"/><stop offset="99%" stop-color="#666"/></linearGradient><linearGradient id="b" x1="0%" x2="100%" y1="50.005%" y2="50.005%"><stop offset="0%" stop-color="#b7b7b7"/><stop offset="3%" stop-color="#d6d6d6"/><stop offset="4%" stop-color="#e4e4e4"/><stop offset="11%" stop-color="#ededed"/><stop offset="23%" stop-color="#f4f4f4"/><stop offset="56%" stop-color="#f6f6f6"/><stop offset="80%" stop-color="#f4f4f4"/><stop offset="89%" stop-color="#ededed"/><stop offset="95%" stop-color="#e2e2e2"/><stop offset="97%" stop-color="#dedede"/><stop offset="98%" stop-color="#c8c8c8"/><stop offset="100%" stop-color="#b3b3b3"/></linearGradient><linearGradient id="c" x1="0%" x2="100%" y1="49.985%" y2="49.985%"><stop offset="0%" stop-color="#b7b7b7"/><stop offset="3%" stop-color="#d6d6d6"/><stop offset="4%" stop-color="#e4e4e4"/><stop offset="11%" stop-color="#ededed"/><stop offset="23%" stop-color="#f4f4f4"/><stop offset="56%" stop-color="#f6f6f6"/><stop offset="80%" stop-color="#f4f4f4"/><stop offset="89%" stop-color="#ededed"/><stop offset="95%" stop-color="#e2e2e2"/><stop offset="97%" stop-color="#dedede"/><stop offset="98%" stop-color="#c8c8c8"/><stop offset="100%" stop-color="#b3b3b3"/></linearGradient><linearGradient id="d" x1="0%" x2="100%" y1="50.048%" y2="50.048%"><stop offset="0%" stop-color="#b7b7b7"/><stop offset="3%" stop-color="#d6d6d6"/><stop offset="4%" stop-color="#e4e4e4"/><stop offset="11%" stop-color="#ededed"/><stop offset="23%" stop-color="#f4f4f4"/><stop offset="56%" stop-color="#f6f6f6"/><stop offset="80%" stop-color="#f4f4f4"/><stop offset="89%" stop-color="#ededed"/><stop offset="95%" stop-color="#e2e2e2"/><stop offset="97%" stop-color="#dedede"/><stop offset="98%" stop-color="#c8c8c8"/><stop offset="100%" stop-color="#b3b3b3"/></linearGradient><linearGradient id="e" x1="49.922%" x2="49.922%" y1="100%" y2="0%"><stop offset="0%" stop-color="#6b6b6b"/><stop offset="11%" stop-color="#767676"/><stop offset="30%" stop-color="#959595"/><stop offset="41%" stop-color="#aaa"/><stop offset="56%" stop-color="#ccc"/><stop offset="71%" stop-color="#eaeaea"/><stop offset="80%" stop-color="#f6f6f6"/><stop offset="83%" stop-color="#ededed"/><stop offset="87%" stop-color="#d4d4d4"/><stop offset="92%" stop-color="#ababab"/><stop offset="98%" stop-color="#737373"/><stop offset="99%" stop-color="#666"/></linearGradient><linearGradient id="f" x1="0%" x2="100%" y1="50%" y2="50%"><stop offset="0%" stop-color="#b7b7b7"/><stop offset="3%" stop-color="#9b9d9d"/><stop offset="7%" stop-color="#878b8b"/><stop offset="9%" stop-color="#808484"/><stop offset="20%" stop-color="#a3a6a6"/><stop offset="49%" stop-color="#f6f6f6"/><stop offset="61%" stop-color="#f3f3f3"/><stop offset="70%" stop-color="#eaeaea"/><stop offset="77%" stop-color="#dbdbdb"/><stop offset="83%" stop-color="#c5c5c5"/><stop offset="90%" stop-color="#aaa"/><stop offset="95%" stop-color="#888"/><stop offset="100%" stop-color="#666"/></linearGradient><linearGradient id="g" x1="50.078%" x2="50.078%" y1="100%" y2="0%"><stop offset="0%" stop-color="#6b6b6b"/><stop offset="11%" stop-color="#767676"/><stop offset="30%" stop-color="#959595"/><stop offset="41%" stop-color="#aaa"/><stop offset="56%" stop-color="#ccc"/><stop offset="71%" stop-color="#eaeaea"/><stop offset="80%" stop-color="#f6f6f6"/><stop offset="83%" stop-color="#ededed"/><stop offset="87%" stop-color="#d4d4d4"/><stop offset="92%" stop-color="#ababab"/><stop offset="98%" stop-color="#737373"/><stop offset="99%" stop-color="#666"/></linearGradient></defs><g fill="none" fill-rule="nonzero" transform="translate(0 .001)"><rect width="116.16" height="117.01" fill="url(#a)" rx=".29"/><rect width="110.01" height="110.01" x="2.67" y="3.46" fill="url(#b)" rx=".29"/><path fill="#7f7f7f" d="M11.32 17.02h93.78V100H11.32z"/><path fill="#dcdcdd" d="M13.49 19.34h88.68v78.5H13.49z"/><path fill="url(#c)" d="M25.08 116.93h65.7V150h-65.7z"/><path fill="url(#d)" d="M51.33 116.85h13.06v10.43H51.33z"/><path fill="#7f7f7f" d="M88.02 42.21H75.13V30.16h12.89a.73.73 0 0 1 .73.73v10.59a.73.73 0 0 1-.73.73M28.19 30.16h44.39v12.05H28.19a.73.73 0 0 1-.73-.73V30.89a.73.73 0 0 1 .73-.73"/><rect width="55.3" height="9.84" x="30.37" y="65.68" fill="#7f7f7f" rx=".49"/><path fill="url(#e)" d="M30.26 31.24h6.39v9.77h-6.39z"/><rect width="16.54" height="12.9" x="24.83" y="80.34" fill="#fff" rx=".27"/><rect width="16.54" height="12.9" x="50.13" y="80.34" fill="#fff" rx=".27"/><circle cx="57.86" cy="122.07" r="3.56" fill="url(#f)"/><rect width="16.54" height="12.9" x="75.55" y="80.34" fill="#fff" rx=".27"/><path fill="#dcdcdd" d="M30.37 69.8h19.1v1.56h-19.1z"/><path fill="#fff" d="M49.47 69.8h36.2v1.56h-36.2z"/><rect width="61.83" height="4.56" x="27.59" y="47.47" fill="#fff" rx=".62"/><path fill="url(#g)" d="M38.25 31.3h6.39v9.77h-6.39z"/><path fill="url(#e)" d="M46.89 31.24h6.39v9.77h-6.39z"/><path fill="url(#g)" d="M55.29 31.3h6.39v9.77h-6.39z"/><path fill="url(#g)" d="M63.14 31.24h6.39v9.77h-6.39z"/><path fill="url(#g)" d="M78.74 31.3h6.39v9.77h-6.39z"/><path fill="#7f7f7f" d="m55.689 120.562.898-.898 3.896 3.896-.898.898z"/></g></svg>