<svg xmlns="http://www.w3.org/2000/svg" viewBox="0 0 148 150"><title>Meter3(仪表3)</title><defs><linearGradient id="a" x1="0%" x2="100%" y1="50.003%" y2="50.003%"><stop offset="0%" stop-color="#b7b7b7"/><stop offset="3%" stop-color="#d6d6d6"/><stop offset="4%" stop-color="#e4e4e4"/><stop offset="11%" stop-color="#ededed"/><stop offset="23%" stop-color="#f4f4f4"/><stop offset="56%" stop-color="#f6f6f6"/><stop offset="80%" stop-color="#f4f4f4"/><stop offset="89%" stop-color="#ededed"/><stop offset="95%" stop-color="#e2e2e2"/><stop offset="97%" stop-color="#dedede"/><stop offset="98%" stop-color="#c8c8c8"/><stop offset="100%" stop-color="#b3b3b3"/></linearGradient><linearGradient id="b" x1=".123%" x2="100%" y1="50%" y2="50%"><stop offset="0%" stop-color="#e2e2e2"/><stop offset="3%" stop-color="#d0d0d0"/><stop offset="6%" stop-color="#bcbcbc"/><stop offset="9%" stop-color="#b5b5b5"/><stop offset="49%" stop-color="#f6f6f6"/><stop offset="63%" stop-color="#f3f3f3"/><stop offset="73%" stop-color="#eaeaea"/><stop offset="82%" stop-color="#dbdbdb"/><stop offset="90%" stop-color="#c6c6c6"/><stop offset="97%" stop-color="#aaa"/><stop offset="100%" stop-color="#9b9b9b"/></linearGradient><linearGradient id="c" x1="0%" x2="100%" y1="50%" y2="50%"><stop offset="0%" stop-color="#e2e2e2"/><stop offset="3%" stop-color="#d0d0d0"/><stop offset="6%" stop-color="#bcbcbc"/><stop offset="9%" stop-color="#b5b5b5"/><stop offset="49%" stop-color="#f6f6f6"/><stop offset="63%" stop-color="#f3f3f3"/><stop offset="73%" stop-color="#eaeaea"/><stop offset="82%" stop-color="#dbdbdb"/><stop offset="90%" stop-color="#c6c6c6"/><stop offset="97%" stop-color="#aaa"/><stop offset="100%" stop-color="#9b9b9b"/></linearGradient><linearGradient id="d" x1="-.058%" x2="100.108%" y1="50.139%" y2="49.828%"><stop offset="0%" stop-color="#b7b7b7"/><stop offset="3%" stop-color="#d6d6d6"/><stop offset="4%" stop-color="#e4e4e4"/><stop offset="11%" stop-color="#ededed"/><stop offset="23%" stop-color="#f4f4f4"/><stop offset="56%" stop-color="#f6f6f6"/><stop offset="80%" stop-color="#f4f4f4"/><stop offset="89%" stop-color="#ededed"/><stop offset="95%" stop-color="#e2e2e2"/><stop offset="97%" stop-color="#dedede"/><stop offset="98%" stop-color="#c8c8c8"/><stop offset="100%" stop-color="#b3b3b3"/></linearGradient></defs><g fill="none" fill-rule="evenodd" transform="translate(0 .001)"><rect width="147.76" height="149.71" fill="url(#a)" fill-rule="nonzero" rx=".29"/><path fill="#7f7f7f" fill-rule="nonzero" d="M137.35 10.06H10.18a1.34 1.34 0 0 0-1.35 1.34v129.07a1.34 1.34 0 0 0 1.35 1.34h78.91l49.6-48.28V11.4c0-.74-.6-1.34-1.34-1.34"/><path fill="#dcdcdd" fill-rule="nonzero" d="M134.67 12.63H12.85a1.29 1.29 0 0 0-1.29 1.29v123.64c0 .712.578 1.29 1.29 1.29h75.6L136 92.59V13.92a1.29 1.29 0 0 0-1.33-1.29"/><circle cx="128.86" cy="78.55" r="4.05" fill="url(#b)" fill-rule="nonzero"/><circle cx="74.4" cy="132.91" r="4.05" fill="url(#c)" fill-rule="nonzero"/><path stroke="#7f7f7f" stroke-width=".25" d="m70.38 29.77 7.52 10.65m33.68-17.17.14 13.04M30.09 72.14l11.75 5.65m-17.08 31.65 13.03.32"/><path fill="#faf9f9" fill-rule="nonzero" d="M17.74 19.78H59v15.31H17.74z"/><path fill="#7f7f7f" fill-rule="nonzero" d="M45.54 42.41 90.02 94.7l4.87-5.47z"/><path fill="url(#d)" fill-rule="nonzero" stroke="#c1c1c1" stroke-width=".5" d="M136.36 90.48c-13.495-13.13-34.983-13.154-48.507-.054s-14.186 34.577-1.493 48.484z"/></g></svg>