<svg xmlns="http://www.w3.org/2000/svg" xml:space="preserve" viewBox="0 0 25 20.6"><path d="M1 0C.4 0 0 .4 0 1c0 .3.1.6.4.8-.3.2-.4.4-.4.7s.1.6.4.8c-.3.2-.4.5-.4.8s.1.6.4.8c-.3.2-.4.4-.4.7s.1.6.4.8c-.3.2-.4.5-.4.8s.1.6.4.8c-.3.2-.4.4-.4.7s.1.6.4.8c-.3.2-.4.5-.4.8s.1.6.4.8c-.3.2-.4.4-.4.7s.1.6.4.8c-.3.2-.4.5-.4.8s.1.6.4.8c-.3.2-.4.4-.4.7s.1.6.4.8c-.3.2-.4.5-.4.8s.1.6.4.8c-.3.2-.4.4-.4.7s.1.6.4.8c-.3.2-.4.5-.4.8 0 .5.4 1 1 1 .3 0 .6-.2.8-.4.2.3.5.4.8.4s.6-.2.8-.4c.2.3.5.4.8.4s.6-.2.8-.4c.2.3.5.4.8.4s.6-.2.8-.4c.2.3.5.4.8.4s.6-.2.8-.4c.2.3.5.4.8.4s.6-.2.8-.4c.2.3.5.4.8.4s.6-.2.8-.4c.2.3.5.4.8.4s.6-.2.8-.4c.2.3.5.4.8.4s.6-.2.8-.4c.2.3.5.4.8.4s.6-.2.8-.4c.2.3.5.4.8.4s.6-.2.8-.4c.2.3.5.4.8.4s.6-.2.8-.4c.2.3.5.4.8.4s.6-.2.8-.4c.2.3.5.4.8.4s.6-.2.8-.4c.2.3.5.4.8.4.5 0 1-.4 1-1 0-.3-.1-.6-.4-.8.2-.2.4-.5.4-.8s-.1-.6-.4-.8c.2-.2.4-.5.4-.8s-.1-.6-.4-.8c.2-.2.4-.5.4-.8s-.1-.6-.4-.8c.2-.2.4-.5.4-.8s-.1-.6-.4-.8c.2-.2.4-.5.4-.8s-.1-.6-.4-.8c.2-.2.4-.5.4-.8s-.1-.6-.4-.8c.9.1 1-.2 1-.5s-.1-.5-.4-.7c.3-.2.4-.5.4-.8s-.1-.6-.4-.8c.3-.2.4-.5.4-.8s-.1-.6-.4-.8c.3-.1.4-.4.4-.7s-.1-.6-.4-.8c.3-.2.4-.5.4-.8s-.1-.5-.4-.7c.3-.2.4-.5.4-.8 0-.5-.4-1-1-1-.3 0-.6.2-.8.4-.2-.2-.5-.4-.9-.4-.3 0-.6.2-.8.4-.2-.2-.5-.4-.8-.4s-.6.2-.8.4c-.2-.2-.5-.4-.8-.4s-.6.2-.8.4c-.2-.2-.6-.4-.9-.4s-.6.2-.8.4c-.2-.2-.5-.4-.8-.4s-.6.2-.8.4c-.2-.2-.5-.4-.9-.4-.3 0-.6.2-.8.4-.2-.2-.5-.4-.8-.4s-.6.2-.8.4c-.2-.2-.5-.4-.8-.4s-.7.2-.9.4C9.9.2 9.5 0 9.2 0s-.6.2-.8.4C8.2.2 7.9 0 7.6 0s-.7.2-.8.4C6.6.2 6.3 0 5.9 0c-.3 0-.6.2-.8.4-.2-.2-.5-.4-.8-.4s-.6.2-.8.4C3.3.2 3 0 2.7 0c-.4 0-.7.2-.9.4C1.6.2 1.3 0 1 0zM0 0" style="fill:none;stroke:#fff;stroke-miterlimit:10"/></svg>