<svg xmlns="http://www.w3.org/2000/svg" xml:space="preserve" viewBox="0 0 25 17"><path d="M3.3 8.8c-.9.3-2 0-2.5-.7S.2 6.2.8 5.5s1.6-1.1 2.5-.7c0-1.4.8-2.6 2.1-3.1s2.8-.1 3.7.9C9.7 1 11.2 0 12.7 0s3 1 3.6 2.4c.9-.8 2.3-1.1 3.5-.6s2 1.6 2.1 2.8c.9-.3 2 0 2.5.7s.6 1.9 0 2.6-1.6 1.1-2.5.7c-.1 1.3-1 2.5-2.3 2.9s-2.7 0-3.5-1c-.7 1.2-2 1.9-3.3 1.9s-2.6-.7-3.3-1.9c-.7 1.3-2.6 2-4.3 1.5s-2.5-1.9-1.9-3.2zM0 0" style="fill:none;stroke:#fff;stroke-miterlimit:10"/><path d="M0 0zm0 0" style="fill:none;stroke:#fff;stroke-miterlimit:10;stroke-linejoin:round"/></svg>