<svg xmlns="http://www.w3.org/2000/svg" xml:space="preserve" id="图层_1" x="0" y="0" viewBox="0 0 17.1 25"><style>.st0{fill:none;stroke:#fff;stroke-miterlimit:10}</style><path d="m10.3 22.1-.4.9s0 .3.5.2l.4-.2.4-.5.1-.1V22c.1-.3 0-.6.1-.9.2-.6.4-1.2.7-1.8.2-.5-.1-1 .1-1.5l-1.4-.4c-.1 1.5-.1 2.8-.2 4.3-.1 0-.2.2-.3.4zm3.6-.1v.2l.3.4.7.5h.3c.2-.3.3-.3.3-.3-.3-.3-.5-.4-.7-.8-.1-.2-.2-.4-.2-.6.1-1.4.2-2.7.3-4l-1.4.3c-.2 0-.1.2-.1.3q-.15.45 0 .9c0 .3.2.5.2.9.3.7.4 1.4.3 2.2zM3.9.9c0 .1 0 .2.1.3 0 .3-.1.5-.2.8-.1 0-.1.1-.2.1s-.2-.2-.3-.2c0-.1-.2.1-.3.2.3.2.5.6.3.9-.2-.4-.5-.8-.7-1.3-.1-.2-.1-.6.1-.8.3-.3.6-.6.9-.7.5-.1 1-.2 1.6-.2-.5.3-.9.5-1.3.9q-.15 0 0 0zm1.8 0c-.2.3-.3.5-.5.7.1-.1 0-.1 0-.1H5s0-.1.1-.1c0-.1.2 0 .2 0C5.6 1 5 .7 5 .4c.3 0 .6.3.9.3-.2 0-.2.2-.2.2zM0 0" class="st0"/><path d="M4.4 1.5c-.1 0-.2.1-.2 0-.1-.3.3-.1.5-.2 0 .2-.2.3-.3.2zm.5.6h-.2c.1 0 .2-.1.3-.2 0 .1 0 .2.1.2zm0 .5h-.5c.1-.1.2-.1.2-.1.1-.1.4-.2.5.1zm-.1.1c.2 0 0 0 0 0-.1.2-.2.1-.2 0zm1.3 21c.5.3.9.6 1.4.9-.1.1-.1.2-.1.2H6.3c-.3-.1-.6-.3-.9-.4l-.1.2c-.3.1-.6 0-.8-.2-.2-.1 0-.4-.1-.6zM0 0" class="st0"/><path d="M4.4 23.8c-.2-3.1-.1-6.2-.2-9.2-.5 3-.9 5.9-1.5 9.1 0 0-.2 0-.2.1H1c.1-.2 0-.3 0-.5.2-1.6.4-3.3.5-4.9 0-1.6.1-3.3.2-5 0-.3.2-.6.1-.9 0-.1-.2-.2-.3-.2l.3-.9c-.5-.5-1-1-1.5-1.6-.2-.1-.3-.5-.3-.7.1-1.4.4-2.8.4-4.3.7-.4 1.6-.5 2.3-.9.3 0 .6-.2.6-.6.5.3.7.6 1.2.9.1 0 .1-.1.1-.2h.1c0-.1 0-.2.1-.3v-.1c.1 0 .1-.2.2-.2 0 .1.2.2.3.3.4.3 1 .5 1.6.8.2.1.4.3.5.4.1.2 0 .3 0 .6 0 .2-.1.4-.1.7 0 .9.3 2 .3 3-.4.5-.8 1.1-1.1 1.7.1.5.3.9.3 1.5 0 0-.3.1-.3.2 0 .5.1 1.1.1 1.7-.2 3.2-.2 6.3-.5 9.5zM0 0" class="st0"/><path d="M2.5 23.7c-.1.2.1.4 0 .6-.2.2-.4.3-.7.4-.1 0 0 .2-.2.2-.4.1-.8.1-1.3.1.1-.3 0-.5.1-.7.2-.3.5-.3.6-.6zM2 8.7c0-.4 0-.7-.1-1.2q-.3.6-.3 1.2c0 .2.3.3.3.5.2-.1.1-.3.1-.5zm9-4.2c-.1-.1-.3-.1-.3-.3.1 0 .3 0 .3-.1-.3-.1-.3-.3-.3-.4s.1-.2.1-.2c.2.1.2.3.2.3 0 .1.1 0 .1 0 0-.1 0-.2-.1-.3q.3.15.3 0c0-.2-.3-.3-.1-.5.1 0 .2.2.3.1 0-.2-.2-.3-.2-.4s.2-.1.3-.2c0-.2-.1-.4-.1-.5.2-.5.5-1 .7-1.3.5-.1.8-.6 1.6-.1h-.1c0 .1 0 .1.1.1s.3 0 .3.1-.1.2-.1.3c.1.1.3.1.3.2 0 .2-.3.4-.2.6 0 .2.3.2.3.3.1.2 0 .3.1.5.1-.1.2-.1.3-.2 0 .2.1.3.1.3.1-.1.3-.2.3-.3.1.1 0 .3 0 .3 0 .2-.2.4-.4.4 0 .1 0 .1-.1.1l-.2-.2c-.1.1.2.2.1.2v.2c.1.2.3 0 .4 0 .1.3-.3.3-.3.4-.1.1.1.1.2.1 0 .2-.2.3-.3.3m.9 18.5c.3.2.4.5.6.7 0 .1-.1.2-.2.2-.4 0-.8.1-1.1-.1-.3-.1-.3-.5-.7-.7-.1 0-.1.2-.1.4h-.1c-.1-.4-.4-.9 0-1.3v.1l.3.5.7.5h.3c.2-.3.3-.3.3-.3zM0 0" class="st0"/><path d="M12.2 17.9c.1-.2.3-.2.6-.2.1 0 .1.3.2.3.2 0 .3-.3.5-.3.1 0 .1.1.2.2l.5-.2.5.3.3-.4h.1c0-.1.1-.1.1-.1.3-1.6.3-3.3.5-5 0-.2-.1-.4-.1-.7.1 0 .2-.1.3 0 0-.4-.2-.8-.2-1.1.5-.6 1-1.2 1.5-1.9.1-.1.1-.3 0-.5-.2-.5-.3-1-.5-1.5-.4-.8-.7-1.6-.9-2.3-.3-.1-.7-.1-1-.2l-1.5-.2-2.3.4c-.4.2-.9.3-1.4.6-.1.8 0 1.5-.1 2.2 0 .5-.1.8-.2 1.3 0 .2-.1.3 0 .5.1.3.1.5.2.7.4.4.9.6 1.4 1 0 .3-.1.5-.2.9-.1.1.1.1.1.1 0 .2-.2.4-.2.6-.2 1.7-.2 3.4-.1 5.1 0 0 .3-.1.3 0l.3.3.6-.2c.5.4.5.4.5.3m2.1-14.3c-.1-.1-.3-.2-.3-.3 0 .1-.1.1-.1.1 0 .2-.1.3.1.3.1 0 0-.2 0-.3 0 .2 0 .3.1.3.1.1.1 0 .2-.1zM0 0" class="st0"/><path d="M13.9 5c-.1 0-.1 0-.1-.1h.2c0 .1 0 .1-.1.1.1-.3.1-.5.1-.7 0-.1-.2-.1-.3-.2-.1-.2-.2-.7 0-.6.3 0 .3-.7.4-1.1.1-.2 0-.3-.1-.4v.1c-.1.1-.3.1-.3.1-.1-.1-.1-.2 0-.2 0-.1.3-.2.3-.1 0-.3-.1-.3-.2-.5-.1.1-.2.1-.3.1.1-.1.1-.3 0-.3-.2.1-.2.3-.4.3v-.3c-.1.1-.2.3-.3.3 0 0 0-.3-.1-.2-.2.2.1.3 0 .4-.1.3-.1.6-.3.9v.2s.1.1.2.1c0 .1-.1 0-.2.1v.2c.1.1.2.1.3.1-.1.2-.3.3-.4.1-.1.3.1.4.3.5-.1.1-.3 0-.3.1-.1.1 0 .3 0 .3h-.1c-.1.2 0 .3.1.5 0-.1 0-.1.1-.1.1.1 0 .1 0 .2h-.1c-.1.1 0 .1 0 .2.3.2.7.3 1 .3.1 0 .3-.1.3-.2-.1-.1-.3 0-.2-.2h.5c-.1 0-.2.1-.1.2.1-.1.2-.1.2-.2h-.1q.15 0 0 0zM0 0" class="st0"/><path d="M13.4 2.1c-.2 0-.3 0-.4-.2.2 0 .4-.1.5 0 .1.2 0 .2-.1.2zm.6.5c-.1.2-.2 0-.3.1 0-.1.1-.2.3-.1zm-.2.3c-.1 0-.2.1-.3 0 .2-.1.4 0 .6-.1v.1zm-.4 2.4s-.2 0-.2-.2c.1 0 .1-.1.2 0 .1 0 .1.1 0 .2zM0 0" class="st0"/><path d="M13.2 5.3c-.1 0-.1-.1 0 0-.1-.1-.2-.2-.1-.2s.1-.1.2 0c0 .1 0 .1-.1.2zm-.3-.1c-.1 0-.1 0-.2-.1 0 0 0-.1.1-.1s.2 0 .1.2zm-.2-.2c-.1 0 0-.1 0 0q.15 0 0 0zm1.1-1.9c-.1 0-.1 0-.2-.1h.3c.1.1 0 .1-.1.1zM3 3.9l.5 1.5L4.6 8l.5-2.7V3.8l-.3-.2-.3.6-1.2-.8c0 .2-.3.5-.3.5zM0 0" class="st0"/><path d="m4.4 4.3.2.1.1-.2.1.3-.3.1.3 2.4-.2 1-.5-1.1.3-2.3-.2-.1zm8 .8.2.5 1.3 2.5.4-2.3L14 5c-.6.7-1.6.1-1.6.1zm-1.2 17.2-.4.5-.4.2c-.5.2-.5-.2-.5-.2l.3-.8c-.2.3-.3.5-.5.8s-.3.5-.3.8c0 0 .2.1.3.1.3-.1.6-.1.9-.3.3-.1.4-.4.6-.6.1.1 0 .3.1.3-.1-.2-.1-.5-.1-.8zm4.5-15.4c-.4-.5-.7-.1-.7-.1-.2.3.1.5.1.5-.2-.3.1-.5.1-.5.2.3.5.1.5.1zM0 0" class="st0"/><path d="M15.6 6.2c0-.2-.3-.1-.3 0-.1 0 0-.1 0-.1 0-.1-.1-.1-.2-.1v.2c-.1-.1-.3-.2-.3.1-.1.1.1 0 .2.2-.1 0-.2-.1-.2 0 0 0-.1.1 0 .2.1 0 .2-.1.3-.1 0 .1-.1.3.1.2.1 0 .1-.2.1-.3 0 .1.1.1.2.2 0-.1.1-.1.1-.2.1-.2-.1-.1-.2-.2.1.1.2 0 .2-.1zM0 0" class="st0"/></svg>