<svg xmlns="http://www.w3.org/2000/svg" xml:space="preserve" id="图层_1" x="0" y="0" viewBox="0 0 17.4 25"><style>.st1{fill:none;stroke:#fff;stroke-miterlimit:10;stroke-width:.67;stroke-linejoin:round}</style><path d="M16.8 9c.6-.8-.9-1.2-.9-1.2m0-5.8-.8.6h-6L10 2zm-.8 5.4V2.7h-6v4.7z" class="st1"/><path d="M15.9 6.9V2l-.8.7v4.8zM7.1 1.5c0 .5-.4.9.3 1.7.1.1-.1.4-.2.4-.1.1-.1.4-.1.5 0 0-.1.2-.1.3-.1.2.1.4-.1.5s-.6.1-.8.3c-.2.1-.4.4-.5.7h-.3c-.4-.5-1-1.5-1.7-1.7-.2-.7.2-1.3.6-1.9.3-.6 1-1.1 1.8-1.1" class="st1"/><path d="M3.5 4.1c.1.1.3 0 .4 0 .3.2.6.2.8 0 .3-.1.4-.5.5-.7 0-.1 0-.2.1-.2.3 0 .7.1.8-.1.3-.4-.1-1 .4-1.2.4-.2 1-.3.9-.8C6.4.5 5.2 0 4.2.3c-.4.1-.6.5-.9.8-.1.1-.2.1-.2.2 0 .7-.1 1.3.1 2 0 .3.1.7.3.8zm5.6 12.8v1.2c-.4.3-.3.7-.3 1.1.4.3.9.2 1.3.2v-.2c.4-.1.9-.1 1.3-.2.1-.3.1-.6.1-.9-.4-.3-.9-.2-1.1-.6s-.2-.9-.2-1.3" class="st1"/><path d="M7.6 16.3c1 .2 1.8-.4 2.8-.8.2-.1.5 0 .9 0 0 1.1-.1 2-.1 3 .5 0 1 .1 1.5 0 .3 0 .5-.2.8-.3 0-1.4.1-2.8-.1-4.3 0-.2-.2-.4-.3-.5 0-.1-.2-.1-.3-.2-1.2-.3-1.3-.1-2.6-.3-.1 0 .3-.6.2-.7-.2-.3-2.9-.1-3.3-.1" class="st1"/><path d="M12.5 18.5c0 .2-.1.4 0 .5 0 .1.2.1.3.2.1 0 .2.2.3.2.2.1.4.1.5.2.3 0 .5-.1.8 0 0 .1.1.1.2.1.1.2.2.4.1.6-.3.3-.5.5-.9.6-.5.1-1 0-1.5.1-.1 0 0 0-.1.1 0 0 .1.3 0 .3-.4 0-1.1.1-1.4-.4-.1-.2-.1-.4-.1-.6.2-.2.2-.4.3-.6.1-.3 0-.3.1-.4.2-.3.1-.5.1-.8m-5 .2v1.3L8.8 19c.4-.1.5.4.5.4v.4H9v.4c-.2.4-.5 0-.5 0v-.4l-2 1 2.4 2c.4.5.1 1 .1 1 .3.4-.3.8-.3.8-.6.4-.6-.4-.6-.4-.1-.4.4-.4.4-.4l.1-.3-2.8-2.6L2.1 23l-.1.4c.4.6-.2.8-.2.8-.8.2-.4-.5-.4-.5-.1-.4.3-.4.3-.4l.1-.3s.2.1 0-.1c-.3-.2-.1-.7-.1-.7l3.5-1.7-1.2-1-.4.2c0 .6-.4.4-.4.4-.4 0-.2-.4-.2-.4.2-.2.4-.3.4-.3l.3-.5.9.4 1.1.8v-1.2m2-1.5 3-1.4c.2-.3-.1-.6-.1-.6l-2.8 1.1m6.9-9.6V3.3H9.6v3.6zm.5 1.6v-.8h-6v.9h6zm-.7 1.6v-.4H7.7v.4zm2.3-.2v-.2h-1v.2zm0-.3.4-.7h-1l-.4.7zm.5-.1v-.6l-.4.8v.2zm-1.8-.4v-.6l-1 1.2v.4z" class="st1"/><path d="M16 8V6.9l-.8.7v1.2zm-.8-.3v-.2H9.3v.2z" class="st1"/><path d="m15.9 7-.8.4v.2zm-.5 1.5-.9 1.2H7.8l1.1-1.2zm-2.3-.4h1.6M6.9 2.6l-.1.3M10.1 9h.4m.1 0h.4M9.1 9h.4m0 0h.4m1.2 0h.4m.1 0h.4m.1 0h.4m0 0h.4m.2 0h.4m.1 0h.4m.1 0h.4m-4.6.3h.4m.1 0h.4m-1.9 0h.4m0 0h.4m1.2 0h.4m.1 0h.4m.1 0h.4m.1 0h.4m.1 0h.4m.1 0h.4m.1 0h.4m-4.6.2h.4m.1 0h.4m-1.9 0h.4m.1 0h.4m1.2 0h.4m0 0h.4m.1 0h.4m.1 0h.4m.1 0h.4m.2 0h.4m0 0h.4" class="st1"/><path d="M7.9 8.4c.3 0 .5 0 .8-.1.2 0 .3-.2.4-.3.3 0 .4-.1.6 0 0 .1.1.1.1.2.3 0 .5 0 .7.2.1.2 0 .4 0 .5 0 0-.1.1-.1 0-.1-.1-.1-.3-.3-.4-.1 0-.3-.1-.4 0-.1 0 0 .2.1.2s.4.1.2.2c-.4.4-.9.3-1.4.2-.2 0-.3-.1-.5-.1m3.8 2c.1 0 .2-.1.4-.1.1-.1.2 0 .3-.1.3-.1.4-.2.6-.3.1-.4.1-.7.2-1.1l.4-.1V9c-.4-.1-1 0-1.3.1v.1c-.2 0-.4 0-.5.1-.3.1-.2.4-.2.6s-.2.3-.3.3c-.1.1-.3.1-.3.2" class="st1"/><path d="M6.7 8.3c.4 0 1-.1 1.2.1.1.1.3.7.1.9 0 .1-.4.1-.6.1" class="st1"/><path d="M3.4 4.3c.2 0 .5-.1.6 0 .5.4 1.1 1 1.5 1.6.3.4.6.7.8 1.1.1.4.2.9.4 1.2.4.9.8 1.5 1.3 2.2.1.1.4.1.5.2l.2.2c.4 0 .6.1.9 0 .5-.3 1.1-.4 1.5-.5.3.5.9.7.9 1.2-.5.4-1.2.6-1.7.9-.4.2-.8.5-1.2.5-.3 0-1.4-.5-1.5-.4-.2.6.9 1.8.7 2.5-.2.8-.3 1.5-.4 2.3-.1.3-.2.4-.2.7-.1.2-.2.4-.3.4-.3.2-.4.4-.7.4-.3.1-.5 0-.8.2-.2 0-.4.1-.5.1-.3.2-.6.1-.6-.1-.3-.7-.1-1.6-.4-2.3-.5-1.5-1-2.8-2-4.5-.3-.4-1-.2-1.2-.6-.8-1.3-.2-3.5.3-5.4.1-.5.5-1.2 1-1.3.2-.1.3-.2.4-.3.2-.2.2-.3.5-.3zM0 0" class="st1"/><path d="m2.4 18.3 2.5.9v-2.1c-1.9-4.7-2.1-4.7-2.1-4.7C2.1 12 2 12 2 12c-.9 0-1.3-1-1.3-1-.4-.2-.7.1-.7.1zM0 0" class="st1"/></svg>