<svg xmlns="http://www.w3.org/2000/svg" xml:space="preserve" id="图层_1" x="0" y="0" viewBox="0 0 22.4 25"><style>.st0{fill:none;stroke:#fff;stroke-miterlimit:10}</style><path d="M0 0zm17 1.6L15.6 1l-1.9 1.4 1.1 1.1.2-.1.3.3h.3l.1-.3h.1v-.3l.2.2.1-.3.3.1.2-.1v-.7l.3-.1zm.1 10.5.6-.7.3.1 1 .3.3.9h-.4l-.1.4-.4-.1-.3.4-.1-.4h-.3l-.3-.7zM4.7 8.4l-.6.3L4 9l-.9.7.1.1.8-.4-.7.7.1.1.7-.4-.6.9.1.1.6-.7-.1.7h.3l.4-1H5l.3.6h.3l-.3-.8.1-.7zm13 4.7h.1v.3l-.1.6-.3-.3v-.3zm1.6-.8.4.3v.4l-.3.1v-.4z" class="st0"/><path d="m21 12.7-5.1 1.7 1 3.6.9.7 4.7-1.9-.6-3.7zm-3.6 10.6-.6.6-.8-.2-.1.7.1.6h1.1l.3-.1.7.1h1.4l.4-.1-.1-.4-1.4-.3-.7-.6zM2.3 20.4l-.4-.7.3-.9-.6-.3H.9l-.3 1.1.1.4-.4.6L0 22l.1.6.4-.1.6-1.3.7-.7h.5zm5.6-8.1-.7-.6 1.4-2.4.6-3.6-1.5.9-1.3 2.3L4.9 8l1.6-3.1 3.7-2.3 3 .1L14.9 4l1.4 2-.6.6-.1 2.7 2.1 1.9-1.4 1.1-2.4-2.1v2.7zM0 0" class="st0"/><path d="m13.9 12.9 2.3 3.9 2 5.7-2.4.7-1.9-5.2-2.9-4.1-1.6 4.4-5.9 2.4-1-2L7 17l.1-.6h.4l.6-3.1-.3-1zM0 0" class="st0"/><path d="m7.7 12.1 4 1.3 1.9-.9zM17 1.6h.4l-.3-.7-1.2-.9H15l-.7.4-.6 2 .6-.6.7-.2.1.1.5.3.3-.7zM0 0" class="st0"/></svg>