<svg xmlns="http://www.w3.org/2000/svg" xml:space="preserve" id="图层_1" x="0" y="0" viewBox="0 0 15.8 25"><style>.st0{fill:none;stroke:#fff;stroke-miterlimit:10}</style><path d="m4.2 2.8-4-.2L0 3l1 3.4 4.3-.2.2-.2zM9.4 0 11 1.2l-.3.4.1.7.4.7 1.5.7.3-.9-.4-.3.1-.6-.9-1.8zm.1.6-.4.7-.2.8L8.5 1z" class="st0"/><path d="m9.2 1 .2.1.1.1V.9l.2.1.2.3.3.2v-.3l.1-.2.1.1.3.1h.3L9.8.2h-.7l-.2.2zm.2 2.4h.7zm0 0h.7M8.9 1.9v1.2h-.3l-.3-.3.2-.3.1-.3.1-.6zM5.7 6.2l-4.4.5-.3.1.1.6 1.9.7 4.3-.4.2-.6zm-.6-.5-3.5.1-.9-2.7H4z" class="st0"/><path d="m4.9 8.2-.3-.8L4 7v.1l-.7-.3v.3L2.8 7l.2.3-.3-.2.3.6.4.3.9.4zM6 12.4l-1.8.4-.3.6v1l.9 4.2v1.6l-.6.9h1.3l.7-.4.3-.2v-.7l-.4-.9-.1-.7.1-1.9L6 15z" class="st0"/><path d="M6.4 19.5h-.3l-.4.4-.6.7-.6.1.3-.3-.6.6-.9.4v.2l1 .1.7.1.4-.3.6-.7.1 1h.2l.4-1.2v-.7z" class="st0"/><path d="m8.2 12.4-2.1.3-.3.6-.2.6L7.1 18v1.6l-.6.9h1.3l.7-.4.3-.1v-.7l-.4-.9-.2-.7v-1.9l-.1-1.2v-2.2z" class="st0"/><path d="M8.8 18.9h-.3l-.5.4-.6.7-.6.2.2-.3-.4.4-.9.4v.3l.9.2.9.1.4-.3.3-.6.3.9h.1l.4-1.2v-.7zM11.5 4l-1.7.5-1.5.1-1.2.5-.4.4.4 2.1-.4.7h-.5l-.1.3-.7-.6h-.6l-.6.5.1.9 1.8 1.2 1.3.1.6-.4-.7 1.8-1.3.4-.6 1.2.6 1.6 3 .6 1.6.1 1.5-.1.9-.7.1-.7.1-.6.3-.4-.4-1.3-.1-1.5h.4l.7-.3.6-4.6-.4-.7-1.3-.6zM0 0" class="st0"/><path d="m9.1.9.7-.1 1.3.4.3 2.1-.1.9-1.6.4-.8-.9-.1-1.2zM13.2 14l-.6-.3-.6.6-1.6.3-1.8-.7-1.3-1.8-1.3.4-.6 1.2.6 1.6 4 .7 2.1-.1.9-.7z" class="st0"/><path d="m8.9 3.1.4.7.3.3h.4v.7l-.6.4h-.2l-.9.2-.4-.2-.3-.4.3.1.1-.1-.3-.2-.1-.3V4l.3.2h.3L8 4v-.1l.3-.1.2-.2v-.3l.1-.4zm2.4 0v.3l-.1.1h-.3l.1.2h.3V4l-.3.2-.3-.2.1.3h.6v.1l-.1.3-.3.2.3.2h.3l-.2.1v.4l.3-.1.1-.3.2.3.3.1.6.1h.4l.4-.1v-.2h-.5l.1-.1.1-.1.2-.4-.2-.2-.1.2-.1.1v-.6h-.5l.4-.3v-.6l-.1.1-.2.2-.3-.2.1-.1v-.3l-.1-.1v.1h-.3v-.3h-.6zM0 0" class="st0"/><path d="m11.3 5.2-.4.6-.4-.6s-.4.8-.5.5l-.2-.5-.3.3s-.7.1-.6 0c.1-.2.1-.4.1-.4l1.2-1.2h1.5zm-1 11.2-.2 2.6-3.6.9c-.6-.1-.7.6-.7.6v.4h.3l-.1.5c.3.6.7.2.7.2l.1-.6 2.8-1-2.5 1.9c-.4.7-.1 1.5-.1 1.5-.3.6.3 1.2.3 1.2.7.4.7-.6.7-.6.1-.6-.4-.6-.4-.6l-.2-.4 3.1-2.7 3.7 2.5.1.4c-.4.7.3 1 .3 1 1 .3.6-.6.6-.6.1-.4-.3-.6-.3-.6l-.3-.3.1-.1c.3-.1 0-.9 0-.9l-3.4-1.9 2.5.6.4.4c0 .7.6.6.6.6.6 0 .3-.7.3-.7-.3-.2-.4-.3-.4-.3l-.3-.4-1.5-.4L11 19v-2.4m-1.6.5-4.8-1.6c-.3-.3 0-.9 0-.9l4.8 1.5" class="st0"/><path d="m12.8 15.9-3.3 1.3v-2.8C11.9 8 12.3 8 12.3 8c.9-.4 1-.4 1-.4 1.2 0 1.6-.4 1.6-.4.3-.3.7.2.7.2zM0 0" class="st0"/></svg>