<svg xmlns="http://www.w3.org/2000/svg" xml:space="preserve" viewBox="0 0 9.2 25"><path d="M0 13.4h2.1L.6 19.1h1.7L2.1 25h.8l1.3-5.9H5L6.5 25h.8l-.2-5.9h1.5l-1.5-5.7h2.1l-.4-2.9c0-.6-.4-3.2-.6-3.8-.2-.4-1.3-1.2-1.9-1.5C5.9 5 4.8 5 4.2 5s-1.3.2-1.9.5c-.4 0-1.1.8-1.3 1.3C1 7.4.6 8.9.6 9.5zM0 0" style="fill:none;stroke:#fff;stroke-miterlimit:10"/><path d="M5.9 5H3.8c-.2.2-.9.2-.9.2h-.2l1.9 3.2 1.7-3.2c0-.2-.2 0-.2-.2M4.6 5c1.3 0 2.3-1.3 2.3-2.5 0-1.4-1-2.5-2.3-2.5-1.4 0-2.5 1.1-2.5 2.5C2.1 3.8 3.2 5 4.6 5zM0 0" style="fill:none;stroke:#fff;stroke-miterlimit:10;stroke-width:.67"/><path d="M2.1 2.1S1.5 4 .6 3.8c0 0 1.1.8 2.1.4m4.2-2.1S7.5 4 8.6 3.8c0 0-1.3.8-2.3.4zM6.3.8C5.9.4 5.2 0 4.6 0c-.8 0-1.4.4-1.9.8.4.4 1.1.6 1.7.6.8.1 1.5-.1 1.9-.6M0 0" style="fill:none;stroke:#fff;stroke-miterlimit:10;stroke-width:.67;stroke-linecap:round;stroke-linejoin:round"/></svg>