<svg xmlns="http://www.w3.org/2000/svg" viewBox="0 0 151 129"><title>factory(工厂)</title><defs><linearGradient id="a" x1="0%" x2="100%" y1="50%" y2="50%"><stop offset="0%" stop-color="#e2e2e2"/><stop offset="3%" stop-color="#d0d0d0"/><stop offset="6%" stop-color="#bcbcbc"/><stop offset="9%" stop-color="#b5b5b5"/><stop offset="49%" stop-color="#f6f6f6"/><stop offset="63%" stop-color="#f3f3f3"/><stop offset="73%" stop-color="#eaeaea"/><stop offset="82%" stop-color="#dbdbdb"/><stop offset="90%" stop-color="#c6c6c6"/><stop offset="97%" stop-color="#aaa"/><stop offset="100%" stop-color="#9b9b9b"/></linearGradient><linearGradient id="b" x1=".172%" x2="100%" y1="50%" y2="50%"><stop offset="0%" stop-color="#e2e2e2"/><stop offset="3%" stop-color="#d0d0d0"/><stop offset="6%" stop-color="#bcbcbc"/><stop offset="9%" stop-color="#b5b5b5"/><stop offset="49%" stop-color="#f6f6f6"/><stop offset="63%" stop-color="#f3f3f3"/><stop offset="73%" stop-color="#eaeaea"/><stop offset="82%" stop-color="#dbdbdb"/><stop offset="90%" stop-color="#c6c6c6"/><stop offset="97%" stop-color="#aaa"/><stop offset="100%" stop-color="#9b9b9b"/></linearGradient><linearGradient id="c" x1="0%" x2="100%" y1="50%" y2="50%"><stop offset="0%" stop-color="#6b6b6b"/><stop offset="11%" stop-color="#767676"/><stop offset="30%" stop-color="#959595"/><stop offset="41%" stop-color="#aaa"/><stop offset="56%" stop-color="#ccc"/><stop offset="71%" stop-color="#eaeaea"/><stop offset="80%" stop-color="#f6f6f6"/><stop offset="83%" stop-color="#ededed"/><stop offset="87%" stop-color="#d4d4d4"/><stop offset="92%" stop-color="#ababab"/><stop offset="98%" stop-color="#737373"/><stop offset="99%" stop-color="#666"/></linearGradient><linearGradient id="d" x1="0%" x2="100%" y1="49.776%" y2="49.776%"><stop offset="0%" stop-color="#6b6b6b"/><stop offset="11%" stop-color="#767676"/><stop offset="30%" stop-color="#959595"/><stop offset="41%" stop-color="#aaa"/><stop offset="56%" stop-color="#ccc"/><stop offset="71%" stop-color="#eaeaea"/><stop offset="80%" stop-color="#f6f6f6"/><stop offset="83%" stop-color="#ededed"/><stop offset="87%" stop-color="#d4d4d4"/><stop offset="92%" stop-color="#ababab"/><stop offset="98%" stop-color="#737373"/><stop offset="99%" stop-color="#666"/></linearGradient><linearGradient id="e" x1="0%" x2="100%" y1="50%" y2="50%"><stop offset="0%" stop-color="#e2e2e2"/><stop offset="3%" stop-color="#d0d0d0"/><stop offset="6%" stop-color="#bcbcbc"/><stop offset="9%" stop-color="#b5b5b5"/><stop offset="49%" stop-color="#f6f6f6"/><stop offset="63%" stop-color="#f3f3f3"/><stop offset="73%" stop-color="#eaeaea"/><stop offset="82%" stop-color="#dbdbdb"/><stop offset="90%" stop-color="#c6c6c6"/><stop offset="97%" stop-color="#aaa"/><stop offset="100%" stop-color="#9b9b9b"/></linearGradient><linearGradient id="f" x1="0%" x2="100%" y1="50.224%" y2="50.224%"><stop offset="0%" stop-color="#6b6b6b"/><stop offset="11%" stop-color="#767676"/><stop offset="30%" stop-color="#959595"/><stop offset="41%" stop-color="#aaa"/><stop offset="56%" stop-color="#ccc"/><stop offset="71%" stop-color="#eaeaea"/><stop offset="80%" stop-color="#f6f6f6"/><stop offset="83%" stop-color="#ededed"/><stop offset="87%" stop-color="#d4d4d4"/><stop offset="92%" stop-color="#ababab"/><stop offset="98%" stop-color="#737373"/><stop offset="99%" stop-color="#666"/></linearGradient></defs><g fill="none" fill-rule="evenodd"><path fill="#8ebed7" fill-rule="nonzero" d="m100.662 68.71 49.26-10.21.14 59.42-49.26 10.21z"/><path fill="#6f979e" fill-rule="nonzero" d="m105.972 83.49 8.36-1.58.07 11.04-8.37 1.59zm10.64-2.25 8.36-1.68.06 11.68-8.36 1.68zm10.63-2.34 8.37-1.68.06 11.67-8.36 1.68zm10.64-2.29 8.37-1.73.06 12.03-8.36 1.72z"/><path fill="#bad9e2" fill-rule="nonzero" d="m.042 60.94 32.36-6.29 99.14 7.66-30.88 6.4z"/><path fill="#bad9e2" fill-rule="nonzero" d="m55.842 64.83 49.26-10.21 44.82 3.88-49.26 10.21z"/><path fill="#d9ecf4" fill-rule="nonzero" d="m100.662 68.71.14 59.42-100.62-7.77-.14-59.42z"/><path fill="url(#a)" fill-rule="nonzero" d="m44.13 22.84.01 37.6-11.62-.9-.01-37.6z" transform="translate(.042 .5)"/><path fill="url(#b)" fill-rule="nonzero" d="M41.23.45v24.73l-5.81-.45L35.41 0z" transform="translate(.042 .5)"/><path fill="url(#c)" fill-rule="nonzero" d="M41.23 3.79v1.79l-5.81-.45V3.34z" transform="translate(.042 .5)"/><path fill="url(#d)" fill-rule="nonzero" d="M41.23 7.5v1.78l-5.81-.45V7.05z" transform="translate(.042 .5)"/><path fill="#90c3d1" fill-rule="nonzero" d="m23.792 78.81.03 11.26-19.07-1.47-.03-11.26z"/><path fill="#82a7af" fill-rule="nonzero" d="m5.932 78.17 17.87 1.38-.01-.74-19.07-1.47.03 11.26 1.2.09z"/><path fill="#90c3d1" fill-rule="nonzero" d="m47.892 80.58.03 11.26-19.07-1.47-.03-11.26z"/><path fill="#82a7af" fill-rule="nonzero" d="m30.032 79.93 17.86 1.38v-.73l-19.07-1.47.03 11.26 1.2.09z"/><path fill="#90c3d1" fill-rule="nonzero" d="m71.992 82.23.03 11.27-19.07-1.48-.03-11.26z"/><path fill="#82a7af" fill-rule="nonzero" d="m54.132 81.59 17.86 1.38v-.74l-19.07-1.47.03 11.26 1.2.09z"/><path fill="#90c3d1" fill-rule="nonzero" d="m96.092 83.89.03 11.26-19.07-1.47-.03-11.26z"/><path fill="#82a7af" fill-rule="nonzero" d="m78.222 83.24 17.87 1.38v-.73l-19.07-1.47.03 11.26 1.2.09z"/><path fill="#90c3d1" fill-rule="nonzero" d="m23.792 99.57.03 11.26-19.07-1.47-.03-11.26z"/><path fill="#82a7af" fill-rule="nonzero" d="m5.932 98.92 17.87 1.38-.01-.73-19.07-1.47.03 11.26 1.2.09z"/><path fill="#90c3d1" fill-rule="nonzero" d="m47.892 101.22.03 11.26-19.07-1.47-.03-11.26z"/><path fill="#82a7af" fill-rule="nonzero" d="m30.032 100.58 17.86 1.38v-.74l-19.07-1.47.03 11.26 1.2.09z"/><path fill="#90c3d1" fill-rule="nonzero" d="m71.992 102.88.03 11.26-19.07-1.47-.03-11.27z"/><path fill="#82a7af" fill-rule="nonzero" d="m54.132 102.23 17.86 1.38v-.73l-19.07-1.48.03 11.27 1.2.09z"/><path fill="#90c3d1" fill-rule="nonzero" d="m96.092 104.53.03 11.26-19.07-1.47-.03-11.26z"/><path fill="#82a7af" fill-rule="nonzero" d="m78.222 103.89 17.87 1.38v-.74l-19.07-1.47.03 11.26 1.2.09z"/><path stroke="#5b7b82" d="m.042 76.52 100.76 7.81m49.26-10.56-49.4 10.56m49.4 1.36-49.47 10.36"/><path fill="#6f979e" fill-rule="nonzero" d="m105.972 104.01 8.36-1.58.07 11.04-8.37 1.59zm10.64-2.25 8.36-1.67.06 11.67-8.36 1.68zm10.63-2.34 8.37-1.68.06 11.67-8.36 1.68zm10.64-2.29 8.37-1.73.06 12.03-8.36 1.72z"/><path stroke="#5b7b82" d="m150.062 94.29-49.4 10.56m49.4 1.36-49.47 10.36M.042 88.21l100.76 7.81M.062 97.5l100.76 7.81M.042 108.85l100.76 7.81"/><path fill="url(#a)" fill-rule="nonzero" d="m44.13 22.84.01 37.6-11.62-.9-.01-37.6z" transform="translate(.042 .5)"/><path fill="url(#a)" fill-rule="nonzero" d="m68.22 24.35.01 37.6-11.62-.9-.01-37.6z" transform="translate(.042 .5)"/><path fill="url(#e)" fill-rule="nonzero" d="M65.32 1.96v24.73l-5.81-.45V1.51z" transform="translate(.042 .5)"/><path fill="url(#d)" fill-rule="nonzero" d="M65.32 5.3v1.79l-5.81-.45V4.86z" transform="translate(.042 .5)"/><path fill="url(#f)" fill-rule="nonzero" d="M65.32 9.01v1.78l-5.81-.45V8.56z" transform="translate(.042 .5)"/><path fill="url(#a)" fill-rule="nonzero" d="m68.22 24.35.01 37.6-11.62-.9-.01-37.6z" transform="translate(.042 .5)"/></g></svg>