<svg xmlns="http://www.w3.org/2000/svg" viewBox="0 0 151 77"><title>Industrial building with slanted roof(斜屋顶工业建筑)</title><g fill="none" fill-rule="evenodd"><path fill="#8e8e8e" fill-rule="nonzero" d="m135.712.57 14.35 23.73h-21.53"/><path fill="#c9c9c9" fill-rule="nonzero" d="m5.422 35.38 11.96-7.4 115.19.86-11.96 7.4z"/><path fill="#b2b2b2" fill-rule="nonzero" d="m119.592 27.91 13.45-19.81 6.68 16.2v40.87l-18.67 11.4z"/><path fill="#e5e5e5" fill-rule="nonzero" d="m5.862 75.64-.44-40.33 115.19.86.44 40.33z"/><path fill="#acdddb" fill-rule="nonzero" d="m64.812 55.9-.15-13.77 14.93.15.15 13.77z"/><path fill="#d9d9d9" fill-rule="nonzero" stroke="#aaa" d="m24.562 75.47-.15-35.99 14.92.18.16 36.19z"/><path fill="#99b5b4" fill-rule="nonzero" d="m65.812 43.39 13.79.14-.01-1.25-14.93-.15.15 13.77 1.14.01z"/><path stroke="#fff" stroke-linecap="round" stroke-linejoin="round" d="m73.962 48.17-5.91 5.91" opacity=".65"/><path stroke="#a3c1c0" stroke-linecap="round" stroke-linejoin="round" d="m76.802 49.56-4.83 4.83" opacity=".33"/><path stroke="#fff" stroke-linecap="round" stroke-linejoin="round" d="m72.592 45-4.83 4.83" opacity=".65"/><path fill="#acdddb" fill-rule="nonzero" d="m85.322 55.9-.15-13.77 14.92.15.16 13.77z"/><path fill="#99b5b4" fill-rule="nonzero" d="m86.322 43.39 13.79.14-.02-1.25-14.92-.15.15 13.77 1.14.01z"/><path stroke="#fff" stroke-linecap="round" stroke-linejoin="round" d="m94.472 48.17-5.91 5.91" opacity=".65"/><path stroke="#a3c1c0" stroke-linecap="round" stroke-linejoin="round" d="m97.312 49.56-4.83 4.83" opacity=".33"/><path stroke="#fff" stroke-linecap="round" stroke-linejoin="round" d="m93.102 45-4.83 4.83" opacity=".65"/><path fill="#acdddb" fill-rule="nonzero" d="m26.082 52.21-.12-10.93 11.85.12.12 10.93z"/><path fill="#99b5b4" fill-rule="nonzero" d="m26.882 42.28 10.94.11-.01-.99-11.85-.12.12 10.93.91.01z"/><path stroke="#fff" stroke-linecap="round" stroke-linejoin="round" d="m33.342 46.07-4.68 4.69" opacity=".65"/><path stroke="#a3c1c0" stroke-linecap="round" stroke-linejoin="round" d="m35.602 47.18-3.84 3.83" opacity=".33"/><path stroke="#fff" stroke-linecap="round" stroke-linejoin="round" d="m32.262 43.56-3.83 3.83" opacity=".65"/><path fill="#acdddb" fill-rule="nonzero" d="m104.662 55.9-.15-13.77 14.93.15.15 13.77z"/><path fill="#99b5b4" fill-rule="nonzero" d="m105.662 43.39 13.79.14-.01-1.25-14.93-.15.15 13.77 1.14.01z"/><path stroke="#fff" stroke-linecap="round" stroke-linejoin="round" d="m113.812 48.17-5.91 5.91" opacity=".65"/><path stroke="#a3c1c0" stroke-linecap="round" stroke-linejoin="round" d="m116.652 49.56-4.83 4.83" opacity=".33"/><path stroke="#fff" stroke-linecap="round" stroke-linejoin="round" d="m112.442 45-4.83 4.83" opacity=".65"/><path fill="#d9d9d9" fill-rule="nonzero" d="M125.482 35.27H.182L10.402.57h125.31z"/><path stroke="#999" stroke-width=".5" d="M10.472.57.242 35.27M16.432.57l-10.23 34.7M22.392.57l-10.23 34.7M28.352.57l-10.23 34.7M34.312.57l-10.23 34.7M40.272.57l-10.23 34.7M46.232.57l-10.23 34.7M52.192.57l-10.22 34.7M58.152.57l-10.22 34.7M64.112.57l-10.22 34.7M70.072.57l-10.22 34.7M76.032.57l-10.22 34.7M82.002.57l-10.23 34.7M87.962.57l-10.23 34.7M93.922.57l-10.23 34.7M99.882.57l-10.23 34.7m16.19-34.7-10.23 34.7m16.19-34.7-10.23 34.7m16.19-34.7-10.23 34.7m16.19-34.7-10.23 34.7m16.19-34.7-10.22 34.7m16.18-34.7-10.22 34.7"/></g></svg>