<svg xmlns="http://www.w3.org/2000/svg" viewBox="0 0 149 151"><title>Industrial building (工業建築)</title><defs><linearGradient id="a" x1="0%" x2="100%" y1="49.985%" y2="49.985%"><stop offset="0%" stop-color="#e2e2e2"/><stop offset="3%" stop-color="#d0d0d0"/><stop offset="6%" stop-color="#bcbcbc"/><stop offset="9%" stop-color="#b5b5b5"/><stop offset="49%" stop-color="#f6f6f6"/><stop offset="63%" stop-color="#f3f3f3"/><stop offset="73%" stop-color="#eaeaea"/><stop offset="82%" stop-color="#dbdbdb"/><stop offset="90%" stop-color="#c6c6c6"/><stop offset="97%" stop-color="#aaa"/><stop offset="100%" stop-color="#9b9b9b"/></linearGradient><linearGradient id="b" x1="0%" x2="100%" y1="50%" y2="50%"><stop offset="0%" stop-color="#e2e2e2"/><stop offset="3%" stop-color="#d0d0d0"/><stop offset="6%" stop-color="#bcbcbc"/><stop offset="9%" stop-color="#b5b5b5"/><stop offset="49%" stop-color="#f6f6f6"/><stop offset="63%" stop-color="#f3f3f3"/><stop offset="73%" stop-color="#eaeaea"/><stop offset="82%" stop-color="#dbdbdb"/><stop offset="90%" stop-color="#c6c6c6"/><stop offset="97%" stop-color="#aaa"/><stop offset="100%" stop-color="#9b9b9b"/></linearGradient><linearGradient id="c" x1="0%" x2="100%" y1="49.975%" y2="49.975%"><stop offset="0%" stop-color="#e2e2e2"/><stop offset="3%" stop-color="#d0d0d0"/><stop offset="6%" stop-color="#bcbcbc"/><stop offset="9%" stop-color="#b5b5b5"/><stop offset="49%" stop-color="#f6f6f6"/><stop offset="63%" stop-color="#f3f3f3"/><stop offset="73%" stop-color="#eaeaea"/><stop offset="82%" stop-color="#dbdbdb"/><stop offset="90%" stop-color="#c6c6c6"/><stop offset="97%" stop-color="#aaa"/><stop offset="100%" stop-color="#9b9b9b"/></linearGradient><linearGradient id="d" x1="0%" x2="100%" y1="50%" y2="50%"><stop offset="0%" stop-color="#e2e2e2"/><stop offset="3%" stop-color="#d0d0d0"/><stop offset="6%" stop-color="#bcbcbc"/><stop offset="9%" stop-color="#b5b5b5"/><stop offset="49%" stop-color="#f6f6f6"/><stop offset="63%" stop-color="#f3f3f3"/><stop offset="73%" stop-color="#eaeaea"/><stop offset="82%" stop-color="#dbdbdb"/><stop offset="90%" stop-color="#c6c6c6"/><stop offset="97%" stop-color="#aaa"/><stop offset="100%" stop-color="#9b9b9b"/></linearGradient></defs><g fill="none" fill-rule="nonzero"><path fill="#8ebed7" d="m111.882 54.2 35.99-10.18.16 96.24-35.99 10.18z"/><path fill="#bad9e2" d="m.002 41.62 35.98-10.18 111.89 12.58-35.99 10.18z"/><path fill="#d9ecf4" d="m111.882 54.2.16 96.24L.162 137.85l-.16-96.23z"/><path fill="#90c3d1" d="m26.412 53.27.03 18.24-21.2-2.39-.03-18.24z"/><path fill="url(#a)" d="m62.16 11.59.02 31.28-11.62-1.31-.02-31.28z" transform="translate(.002 .5)"/><path fill="#82a7af" d="m6.552 52.22 19.87 2.24-.01-1.19-21.2-2.39.03 18.24 1.34.15z"/><path fill="#90c3d1" d="m53.212 55.95.03 18.24-21.2-2.39-.03-18.24z"/><path fill="#82a7af" d="m33.352 54.9 19.86 2.24v-1.19l-21.2-2.39.03 18.24 1.33.15z"/><path fill="#90c3d1" d="m80.012 58.63.03 18.23-21.21-2.38-.03-18.24z"/><path fill="#82a7af" d="m60.142 57.58 19.87 2.24v-1.19l-21.21-2.39.03 18.24 1.34.15z"/><path fill="#90c3d1" d="m106.802 61.31.03 18.24-21.2-2.39-.03-18.24z"/><path fill="#82a7af" d="m86.942 60.26 19.86 2.24v-1.19l-21.2-2.39.03 18.24 1.34.15z"/><path fill="#90c3d1" d="m26.412 78.72.03 18.24-21.2-2.38-.03-18.24z"/><path fill="#82a7af" d="m6.552 77.68 19.87 2.23-.01-1.19-21.2-2.38.03 18.24 1.34.15z"/><path fill="#90c3d1" d="m53.212 81.4.03 18.24-21.2-2.38-.03-18.24z"/><path fill="#82a7af" d="m33.352 80.36 19.86 2.23V81.4l-21.2-2.38.03 18.24 1.33.15z"/><path fill="#90c3d1" d="m80.012 84.08.03 18.24-21.21-2.38-.03-18.24z"/><path fill="#82a7af" d="m60.142 83.04 19.87 2.23v-1.19l-21.21-2.38.03 18.24 1.34.15z"/><path fill="#90c3d1" d="m106.802 86.76.03 18.24-21.2-2.38-.03-18.24z"/><path fill="#82a7af" d="m86.942 85.72 19.86 2.23v-1.19l-21.2-2.38.03 18.24 1.34.15z"/><path fill="#90c3d1" d="m26.412 104.18.03 18.24-21.2-2.39-.03-18.23z"/><path fill="#82a7af" d="m6.552 103.14 19.87 2.23-.01-1.19-21.2-2.38.03 18.23 1.34.15z"/><path fill="#90c3d1" d="m53.212 106.86.03 18.24-21.2-2.39-.03-18.24z"/><path fill="#82a7af" d="m33.352 105.81 19.86 2.24v-1.19l-21.2-2.39.03 18.24 1.33.15z"/><path fill="#90c3d1" d="m80.012 109.54.03 18.24-21.21-2.39-.03-18.24z"/><path fill="#82a7af" d="m60.142 108.49 19.87 2.24v-1.19l-21.21-2.39.03 18.24 1.34.15z"/><path fill="#90c3d1" d="m106.802 112.22.03 18.24-21.2-2.39-.03-18.24z"/><path fill="#82a7af" d="m86.942 111.17 19.86 2.24v-1.19l-21.2-2.39.03 18.24 1.34.15z"/><path fill="url(#b)" d="m66.58 2.04.02 10-21.18-2.05L45.4 0z" transform="translate(.002 .5)"/><path fill="url(#c)" d="m100 27.34.01 19.55-7.26-.82-.01-19.55z" transform="translate(.002 .5)"/><path fill="url(#d)" d="m102.77 21.37.01 6.25-13.24-1.28-.01-6.24z" transform="translate(.002 .5)"/></g></svg>