<svg xmlns="http://www.w3.org/2000/svg" viewBox="0 0 150 58"><title>Modular office (模塊化辦公室)</title><g fill="none" fill-rule="evenodd"><path fill="#c9c9c9" fill-rule="nonzero" d="M.002 9.21 14.072.5l135.41 1.01-14.07 8.71z"/><path fill="#b2b2b2" fill-rule="nonzero" d="m135.412 10.22 14.07-8.71.52 47.41-14.07 8.71z"/><path fill="#e5e5e5" fill-rule="nonzero" d="M.522 56.53.002 9.12l135.41 1.01.52 47.41z"/><path stroke="#b2b2b2" d="M21.512 9.21v47.4m23.04-47.12V56.9m23.04-47.15v47.41M90.632 9.9v47.41m23.04-47.09v47.41"/><path fill="#acdddb" fill-rule="nonzero" d="m1.612 33.33-.18-16.19 17.55.17.18 16.19z"/><path fill="#99b5b4" fill-rule="nonzero" d="m2.782 18.62 16.21.16-.01-1.47-17.55-.17.18 16.19 1.33.01z"/><path stroke="#fff" stroke-linecap="round" stroke-linejoin="round" d="m12.362 24.24-6.94 6.94" opacity=".65"/><path stroke="#a3c1c0" stroke-linecap="round" stroke-linejoin="round" d="m15.702 25.88-5.68 5.67" opacity=".33"/><path stroke="#fff" stroke-linecap="round" stroke-linejoin="round" d="m10.752 20.52-5.67 5.67" opacity=".65"/><path fill="#acdddb" fill-rule="nonzero" d="m24.342 33.33-.17-16.19 17.55.17.17 16.19z"/><path fill="#99b5b4" fill-rule="nonzero" d="m25.522 18.62 16.21.16-.01-1.47-17.55-.17.17 16.19 1.34.01z"/><path stroke="#fff" stroke-linecap="round" stroke-linejoin="round" d="m35.102 24.24-6.95 6.94" opacity=".65"/><path stroke="#a3c1c0" stroke-linecap="round" stroke-linejoin="round" d="m38.442 25.88-5.68 5.67" opacity=".33"/><path stroke="#fff" stroke-linecap="round" stroke-linejoin="round" d="m33.492 20.52-5.68 5.67" opacity=".65"/><path fill="#acdddb" fill-rule="nonzero" d="m47.082 33.33-.17-16.19 17.54.17.18 16.19z"/><path fill="#99b5b4" fill-rule="nonzero" d="m48.262 18.62 16.21.16-.02-1.47-17.54-.17.17 16.19 1.34.01z"/><path stroke="#fff" stroke-linecap="round" stroke-linejoin="round" d="m57.842 24.24-6.95 6.94" opacity=".65"/><path stroke="#a3c1c0" stroke-linecap="round" stroke-linejoin="round" d="m61.172 25.88-5.67 5.67" opacity=".33"/><path stroke="#fff" stroke-linecap="round" stroke-linejoin="round" d="m56.232 20.52-5.68 5.67" opacity=".65"/><path fill="#acdddb" fill-rule="nonzero" d="m69.822 33.33-.18-16.19 17.55.17.18 16.19z"/><path fill="#99b5b4" fill-rule="nonzero" d="m71.002 18.62 16.21.16-.02-1.47-17.55-.17.18 16.19 1.34.01z"/><path stroke="#fff" stroke-linecap="round" stroke-linejoin="round" d="m80.572 24.24-6.94 6.94" opacity=".65"/><path stroke="#a3c1c0" stroke-linecap="round" stroke-linejoin="round" d="m83.912 25.88-5.67 5.67" opacity=".33"/><path stroke="#fff" stroke-linecap="round" stroke-linejoin="round" d="m78.972 20.52-5.68 5.67" opacity=".65"/><path fill="#acdddb" fill-rule="nonzero" d="m93.932 33.33-.18-16.19 17.55.17.18 16.19z"/><path fill="#99b5b4" fill-rule="nonzero" d="m95.102 18.62 16.21.16-.01-1.47-17.55-.17.18 16.19 1.34.01z"/><path stroke="#fff" stroke-linecap="round" stroke-linejoin="round" d="m104.682 24.24-6.94 6.94" opacity=".65"/><path stroke="#a3c1c0" stroke-linecap="round" stroke-linejoin="round" d="m108.022 25.88-5.68 5.67" opacity=".33"/><path stroke="#fff" stroke-linecap="round" stroke-linejoin="round" d="m103.082 20.52-5.68 5.67" opacity=".65"/><path fill="#acdddb" fill-rule="nonzero" d="m116.672 33.33-.18-16.19 17.55.17.18 16.19z"/><path fill="#99b5b4" fill-rule="nonzero" d="m117.842 18.62 16.21.16-.01-1.47-17.55-.17.18 16.19 1.33.01z"/><path stroke="#fff" stroke-linecap="round" stroke-linejoin="round" d="m127.422 24.24-6.94 6.94" opacity=".65"/><path stroke="#a3c1c0" stroke-linecap="round" stroke-linejoin="round" d="m130.762 25.88-5.68 5.67" opacity=".33"/><path stroke="#fff" stroke-linecap="round" stroke-linejoin="round" d="m125.812 20.52-5.67 5.67" opacity=".65"/></g></svg>