<svg xmlns="http://www.w3.org/2000/svg" viewBox="0 0 117 151"><title>Outdoor enclosure（室外围墙）</title><g fill="none" fill-rule="evenodd"><path fill="#ccc" fill-rule="nonzero" d="m69.892.5-22.53 21.97L.422 45.6l22.53-21.97z"/><path fill="#8e8e8e" fill-rule="nonzero" d="m115.802 128.53-22.53 21.97.42-94.22 22.53-21.97z"/><path fill="#b2b2b2" fill-rule="nonzero" d="m116.222 34.31-22.53 21.97-46.33-33.81L69.892.5z"/><path fill="#e5e5e5" fill-rule="nonzero" d="m47.362 22.47 46.33 33.81-.42 94.22-93.27-10.68.42-94.22z"/><path stroke="#b2b2b2" d="m.422 45.6 93.27 10.68M.212 132.55l93.27 10.68"/><path stroke="#777" stroke-linecap="round" stroke-linejoin="round" d="m93.322 143.23 22.54-21.49m-19.4-67.72v86.68m2.96-90.07v86.68m2.96-88.89v86.68m2.96-90.06v86.68m2.96-88.89v86.68m2.96-90.07v86.68m2.96-88.89v86.68"/><path stroke="#b2b2b2" d="M7.712 46.44v86.88m18.51 2.53V48.96m18.5 1.35v86.88m18.51-84.36v86.89m18.5-84.36v86.88"/><path fill="#b2b2b2" fill-rule="nonzero" stroke="#777" d="m59.322 134.57-29.19-3.38v-75.9l29.19 3.38z"/><path fill="#b2b2b2" fill-rule="nonzero" stroke="#777" stroke-width=".5" d="m55.422 128.6-21.4-2.48V61.04l21.4 2.48z"/><path fill="#777" fill-rule="nonzero" stroke="#b2b2b2" stroke-width=".5" d="m61.302 74-3.55-.42V63.04l3.55.43zm0 26.84-3.55-.42V89.88l3.55.43zm-25.5 3.44-3.55-.42V93.32l3.55.43zm25.5 23.4-3.55-.43v-10.53l3.55.42z"/></g></svg>