<svg xmlns="http://www.w3.org/2000/svg" viewBox="0 0 150 87"><title>Utility building (公用工程建筑）</title><g fill="none" fill-rule="evenodd" transform="translate(.002 .5)"><path fill="#878787" fill-rule="nonzero" d="m138.71 10.49 11-10.49.13 75-11.01 10.49z"/><path fill="#c6c6c6" fill-rule="nonzero" d="M.5 13.83h138.2v71.76H.5z"/><path stroke="#b2b2b2" d="M.5 85.58V13.83m2.62 0v71.75m6.42 0V13.83m2.62 0v71.75m6.42 0V13.83m2.62 0v71.75m6.42 0V13.83m2.62 0v71.75m6.42 0V13.83m2.62 0v71.75m6.41 0V13.83m2.63 0v71.75m6.41 0V13.83m2.63 0v71.75m6.41 0V13.83m2.62 0v71.75m6.42 0V13.83m9.04 71.75V13.83m2.62 0v71.75m9.04-71.75v71.75m6.42 0V13.83m2.62 0v71.75m6.42 0V13.83m2.62 0v71.75m6.41 0V13.83m2.63 0v71.75m6.41 0V13.83m2.63 0v71.75m6.41 0V13.83m2.62 0v71.75"/><path fill="#d8d8d8" fill-rule="nonzero" d="M.02 10.61h139.16v3.22H.02z"/><path fill="#bababa" fill-rule="nonzero" d="M138.42 10.61H.02L11.31 0h138.4zM36.66 32.08h22.75V85.9H36.66z"/><path fill="#9e9e9e" fill-rule="nonzero" d="M40.15 34.77h19.26v-2.69H36.66V85.9h3.49z" opacity=".98"/><circle cx="55.68" cy="62.13" r="1.68" fill="#9e9e9e" fill-rule="nonzero"/><path stroke="#b2b2b2" d="M75.43 13.83v71.75m15.46 0V13.83"/></g></svg>