<svg xmlns="http://www.w3.org/2000/svg" viewBox="0 0 151 102"><title>Absorption chiller（吸收式制冷机）</title><defs><linearGradient id="a" x1="0%" x2="100%" y1="49.992%" y2="49.992%"><stop offset="0%" stop-color="#b7b7b7"/><stop offset="3%" stop-color="#9b9d9d"/><stop offset="7%" stop-color="#878b8b"/><stop offset="9%" stop-color="#808484"/><stop offset="20%" stop-color="#a3a6a6"/><stop offset="49%" stop-color="#f6f6f6"/><stop offset="61%" stop-color="#f3f3f3"/><stop offset="70%" stop-color="#eaeaea"/><stop offset="77%" stop-color="#dbdbdb"/><stop offset="83%" stop-color="#c5c5c5"/><stop offset="90%" stop-color="#aaa"/><stop offset="95%" stop-color="#888"/><stop offset="100%" stop-color="#666"/></linearGradient><linearGradient id="b" x1="0%" x2="100.442%" y1="50%" y2="50%"><stop offset="0%" stop-color="#b7b7b7"/><stop offset="3%" stop-color="#9b9d9d"/><stop offset="7%" stop-color="#878b8b"/><stop offset="9%" stop-color="#808484"/><stop offset="20%" stop-color="#a3a6a6"/><stop offset="49%" stop-color="#f6f6f6"/><stop offset="61%" stop-color="#f3f3f3"/><stop offset="70%" stop-color="#eaeaea"/><stop offset="77%" stop-color="#dbdbdb"/><stop offset="83%" stop-color="#c5c5c5"/><stop offset="90%" stop-color="#aaa"/><stop offset="95%" stop-color="#888"/><stop offset="100%" stop-color="#666"/></linearGradient></defs><g fill="none" fill-rule="nonzero"><path fill="#cecece" d="M3.215 1.055h144.16v81.53H3.215z"/><path fill="#b0b0b1" d="M107.395 24.175h30.66v53.96h-30.66z"/><path fill="url(#a)" d="M95.43 30.78h2.26v58.97h-2.26z" transform="translate(.385 .005)"/><path fill="url(#b)" d="M63.74 57.47H66v65.64h-2.26z" transform="rotate(-90 65.065 90.1)"/><path fill="#cecece" d="M132.395 82.585h7.01v12.72h-7.01zM.385 95.305h150v5.75h-150z"/><path fill="#fff" d="M2.575 17.775h146.31v2.35H2.575z"/><path fill="#b0b0b1" d="M147.375.005h3.01v82.93h-3.01zm-55.98 27.18h11.11v3.57h-11.11z"/><path fill="#5b5b5b" d="M91.395 17.605h11.11v9.58h-11.11z"/><path fill="#cecece" d="M112.755 32.405h19.95v11.28h-19.95z"/><path fill="#5b5b5b" d="M114.255 33.845h16.94v8.23h-16.94zm-6.88 16.66h30.68v1.31h-30.68z"/></g></svg>