<svg xmlns="http://www.w3.org/2000/svg" viewBox="0 0 76 151"><title>Chiller（冷却器） (3)</title><defs><linearGradient id="a" x1="0%" x2="100%" y1="50.036%" y2="50.036%"><stop offset="0%" stop-color="#b7b7b7"/><stop offset="3%" stop-color="#9b9d9d"/><stop offset="7%" stop-color="#878b8b"/><stop offset="9%" stop-color="#808484"/><stop offset="20%" stop-color="#a3a6a6"/><stop offset="49%" stop-color="#f6f6f6"/><stop offset="61%" stop-color="#f3f3f3"/><stop offset="70%" stop-color="#eaeaea"/><stop offset="77%" stop-color="#dbdbdb"/><stop offset="83%" stop-color="#c5c5c5"/><stop offset="90%" stop-color="#aaa"/><stop offset="95%" stop-color="#888"/><stop offset="100%" stop-color="#666"/></linearGradient><linearGradient id="b" x1="0%" x2="100.125%" y1="50%" y2="50%"><stop offset="0%" stop-color="#b7b7b7"/><stop offset="3%" stop-color="#9b9d9d"/><stop offset="7%" stop-color="#878b8b"/><stop offset="9%" stop-color="#808484"/><stop offset="20%" stop-color="#a3a6a6"/><stop offset="49%" stop-color="#f6f6f6"/><stop offset="61%" stop-color="#f3f3f3"/><stop offset="70%" stop-color="#eaeaea"/><stop offset="77%" stop-color="#dbdbdb"/><stop offset="83%" stop-color="#c5c5c5"/><stop offset="90%" stop-color="#aaa"/><stop offset="95%" stop-color="#888"/><stop offset="100%" stop-color="#666"/></linearGradient></defs><g fill="none" fill-rule="nonzero" transform="translate(.385 .005)"><path fill="#cecece" d="M0 59.43h75.5V150H0z"/><path fill="#b0b0b1" d="M0 23.34h75.5v36.09H0z"/><path fill="#cecece" d="M6.98 23.67h61.46v29.57H6.98z"/><path fill="#5b5b5b" d="M14.08 30.27h47.09v15.7H14.08z"/><path fill="#cecece" d="M18.56 33.39h30.4v8.85h-30.4z"/><circle cx="56.82" cy="49.81" r="2.32" fill="#e5e5e5" stroke="#9c9cb5" stroke-width=".25"/><circle cx="49.07" cy="49.81" r="2.32" fill="#e5e5e5" stroke="#9c9cb5" stroke-width=".25"/><circle cx="41.31" cy="49.81" r="2.32" fill="#e5e5e5" stroke="#9c9cb5" stroke-width=".25"/><path fill="#5b5b5b" d="M6.98 67.28h60.3v74H6.98z"/><path fill="#cecece" d="M18.56 33.39h30.4v8.85h-30.4z"/><path fill="#e5e5e5" d="M7 67.28v74h60.3v-74zm15.88 68.21h-10.8a1.25 1.25 0 1 1 0-2.5h10.78a1.25 1.25 0 1 1 0 2.5zm0-6.73h-10.8a1.25 1.25 0 0 1 0-2.49h10.78a1.25 1.25 0 1 1 0 2.49zm0-6.73h-10.8a1.25 1.25 0 0 1 0-2.49h10.78a1.25 1.25 0 1 1 0 2.49zm0-6.73h-10.8a1.25 1.25 0 0 1 0-2.49h10.78a1.25 1.25 0 1 1 0 2.49zm0-6.72h-10.8a1.25 1.25 0 1 1 0-2.5h10.78a1.25 1.25 0 1 1 0 2.5zm0-6.73h-10.8a1.25 1.25 0 0 1 0-2.49h10.78a1.25 1.25 0 1 1 0 2.49zm0-6.73h-10.8a1.25 1.25 0 0 1 0-2.49h10.78a1.25 1.25 0 1 1 0 2.49zm0-6.73h-10.8a1.25 1.25 0 0 1 0-2.49h10.78a1.25 1.25 0 1 1 0 2.49zm0-6.72h-10.8a1.25 1.25 0 0 1 0-2.5h10.78a1.25 1.25 0 0 1 0 2.5zm0-6.73h-10.8a1.25 1.25 0 0 1 0-2.49h10.78a1.25 1.25 0 1 1 0 2.49zM43 135.49H32.24a1.25 1.25 0 1 1 0-2.5H43a1.25 1.25 0 1 1 0 2.5m0-6.73H32.24a1.25 1.25 0 1 1 0-2.49H43a1.25 1.25 0 1 1 0 2.49m0-6.76H32.24a1.25 1.25 0 1 1 0-2.49H43a1.25 1.25 0 1 1 0 2.49m0-6.73H32.24a1.25 1.25 0 1 1 0-2.49H43a1.25 1.25 0 1 1 0 2.49m0-6.72H32.24a1.25 1.25 0 1 1 0-2.5H43a1.25 1.25 0 1 1 0 2.5m0-6.73H32.24a1.25 1.25 0 1 1 0-2.49H43a1.25 1.25 0 1 1 0 2.49m0-6.73H32.24a1.25 1.25 0 1 1 0-2.49H43a1.25 1.25 0 1 1 0 2.49m0-6.73H32.24a1.25 1.25 0 1 1 0-2.49H43a1.25 1.25 0 1 1 0 2.49m0-6.72H32.24a1.25 1.25 0 0 1 0-2.5H43a1.25 1.25 0 1 1 0 2.5m0-6.73H32.24a1.25 1.25 0 1 1 0-2.49H43a1.25 1.25 0 1 1 0 2.49m20.15 60.55H52.39a1.25 1.25 0 1 1 0-2.5h10.77a1.25 1.25 0 1 1 0 2.5zm0-6.73H52.39a1.25 1.25 0 1 1 0-2.49h10.77a1.25 1.25 0 1 1 0 2.49zm0-6.73H52.39a1.25 1.25 0 1 1 0-2.49h10.77a1.25 1.25 0 1 1 0 2.49zm0-6.73H52.39a1.25 1.25 0 1 1 0-2.49h10.77a1.25 1.25 0 1 1 0 2.49zm0-6.72H52.39a1.25 1.25 0 1 1 0-2.5h10.77a1.25 1.25 0 1 1 0 2.5zm0-6.73H52.39a1.25 1.25 0 1 1 0-2.49h10.77a1.25 1.25 0 1 1 0 2.49zm0-6.73H52.39a1.25 1.25 0 1 1 0-2.49h10.77a1.25 1.25 0 1 1 0 2.49zm0-6.73H52.39a1.25 1.25 0 1 1 0-2.49h10.77a1.25 1.25 0 1 1 0 2.49zm0-6.72H52.39a1.25 1.25 0 0 1 0-2.5h10.77a1.25 1.25 0 0 1 0 2.5zm0-6.73H52.39a1.25 1.25 0 1 1 0-2.49h10.77a1.25 1.25 0 1 1 0 2.49z"/><path fill="url(#a)" d="M12.79 9.88h12.46v13.79H12.79z"/><path fill="url(#b)" d="M15.03 0H23v9.88h-7.97z"/><circle cx="19.02" cy="4.98" r="2.53" fill="#5b5b5b"/><path fill="url(#a)" d="M50.59 9.88h12.46v13.79H50.59z"/><path fill="url(#b)" d="M52.83 0h7.97v9.88h-7.97z"/><circle cx="56.82" cy="4.98" r="2.53" fill="#5b5b5b"/></g></svg>