<svg xmlns="http://www.w3.org/2000/svg" viewBox="0 0 83 150"><title>Chiller（冷却器） (6)</title><defs><linearGradient id="a" x1="100.014%" x2=".014%" y1="50.002%" y2="50.002%"><stop offset="0%" stop-color="#b7b7b7"/><stop offset="3%" stop-color="#9b9d9d"/><stop offset="7%" stop-color="#878b8b"/><stop offset="9%" stop-color="#808484"/><stop offset="20%" stop-color="#a3a6a6"/><stop offset="49%" stop-color="#f6f6f6"/><stop offset="61%" stop-color="#f3f3f3"/><stop offset="70%" stop-color="#eaeaea"/><stop offset="77%" stop-color="#dbdbdb"/><stop offset="83%" stop-color="#c5c5c5"/><stop offset="90%" stop-color="#aaa"/><stop offset="95%" stop-color="#888"/><stop offset="100%" stop-color="#666"/></linearGradient><linearGradient id="b" x1="50%" x2="50%" y1="0%" y2="100%"><stop offset="0%" stop-color="#b7b7b7"/><stop offset="3%" stop-color="#9b9d9d"/><stop offset="7%" stop-color="#878b8b"/><stop offset="9%" stop-color="#808484"/><stop offset="20%" stop-color="#a3a6a6"/><stop offset="49%" stop-color="#f6f6f6"/><stop offset="61%" stop-color="#f3f3f3"/><stop offset="70%" stop-color="#eaeaea"/><stop offset="77%" stop-color="#dbdbdb"/><stop offset="83%" stop-color="#c5c5c5"/><stop offset="90%" stop-color="#aaa"/><stop offset="95%" stop-color="#888"/><stop offset="100%" stop-color="#666"/></linearGradient><linearGradient id="c" x1="49.738%" x2="49.738%" y1="0%" y2="100%"><stop offset="0%" stop-color="#b7b7b7"/><stop offset="3%" stop-color="#9b9d9d"/><stop offset="7%" stop-color="#878b8b"/><stop offset="9%" stop-color="#808484"/><stop offset="20%" stop-color="#a3a6a6"/><stop offset="49%" stop-color="#f6f6f6"/><stop offset="61%" stop-color="#f3f3f3"/><stop offset="70%" stop-color="#eaeaea"/><stop offset="77%" stop-color="#dbdbdb"/><stop offset="83%" stop-color="#c5c5c5"/><stop offset="90%" stop-color="#aaa"/><stop offset="95%" stop-color="#888"/><stop offset="100%" stop-color="#666"/></linearGradient></defs><g fill="none" fill-rule="nonzero"><path fill="url(#a)" d="M76.22 15.005v119.29a46.27 46.27 0 0 1-68.9.65l-.87-1-.75-118.8.07-.07a48.77 48.77 0 0 1 70.45-.07" transform="translate(.385)"/><path fill="url(#b)" d="M39.31-22.575h3.82v82.2h-3.82z" transform="rotate(-90 41.413 18.332)"/><path fill="url(#b)" d="M39.31-16.605h3.82v82.2h-3.82z" transform="rotate(-90 41.413 24.303)"/><path fill="url(#b)" d="M39.23 85.425h3.82v82.2h-3.82z" transform="rotate(-90 41.332 126.332)"/><path fill="url(#c)" d="M39.19 91.405h3.82v82.2h-3.82z" transform="rotate(-90 41.293 132.313)"/></g></svg>