<svg xmlns="http://www.w3.org/2000/svg" viewBox="0 0 151 62"><title>Chiller（冷却器） (5)</title><defs><linearGradient id="a" x1="49.986%" x2="49.986%" y1="100%" y2="0%"><stop offset="0%" stop-color="#b7b7b7"/><stop offset="3%" stop-color="#9b9d9d"/><stop offset="7%" stop-color="#878b8b"/><stop offset="9%" stop-color="#808484"/><stop offset="20%" stop-color="#a3a6a6"/><stop offset="49%" stop-color="#f6f6f6"/><stop offset="61%" stop-color="#f3f3f3"/><stop offset="70%" stop-color="#eaeaea"/><stop offset="77%" stop-color="#dbdbdb"/><stop offset="83%" stop-color="#c5c5c5"/><stop offset="90%" stop-color="#aaa"/><stop offset="95%" stop-color="#888"/><stop offset="100%" stop-color="#666"/></linearGradient><linearGradient id="b" x1="49.867%" x2="49.867%" y1="0%" y2="100%"><stop offset="0%" stop-color="#b7b7b7"/><stop offset="3%" stop-color="#9b9d9d"/><stop offset="7%" stop-color="#878b8b"/><stop offset="9%" stop-color="#808484"/><stop offset="20%" stop-color="#a3a6a6"/><stop offset="49%" stop-color="#f6f6f6"/><stop offset="61%" stop-color="#f3f3f3"/><stop offset="70%" stop-color="#eaeaea"/><stop offset="77%" stop-color="#dbdbdb"/><stop offset="83%" stop-color="#c5c5c5"/><stop offset="90%" stop-color="#aaa"/><stop offset="95%" stop-color="#888"/><stop offset="100%" stop-color="#666"/></linearGradient></defs><g fill="none" fill-rule="nonzero"><path fill="#cdcece" d="M28.165 50.285h11.38v5.4h-11.38z"/><path fill="#cdcece" d="M26.315 55.675h15.09v3.56h-15.09z"/><path fill="#eaeaea" d="M26.315 59.235h15.09v2.31h-15.09z"/><path fill="#cdcece" d="M111.365 50.045h11.38v5.4h-11.38zm-1.86 5.4h15.09v3.56h-15.09z"/><path fill="#eaeaea" d="M109.505 59.005h15.09v2.31h-15.09z"/><path fill="url(#a)" d="M143.459 50.16H5.989l-.29-.53a48.28 48.28 0 0 1-1-43.53l138.63-.47.05.07a40.82 40.82 0 0 1 .11 44.46z" transform="translate(.396 .005)"/><path fill="url(#b)" d="M139.629 0h3.75v55.67h-3.75z" transform="translate(.396 .005)"/><path fill="url(#b)" d="M4.279 0h3.75v55.67h-3.75z" transform="translate(.396 .005)"/></g></svg>