<svg xmlns="http://www.w3.org/2000/svg" viewBox="0 0 151 111"><title>Cold generator chiller（冷发电机冷却器）</title><defs><linearGradient id="a" x1="49.997%" x2="49.997%" y1="100%" y2="0%"><stop offset="0%" stop-color="#b7b7b7"/><stop offset="3%" stop-color="#9b9d9d"/><stop offset="7%" stop-color="#878b8b"/><stop offset="9%" stop-color="#808484"/><stop offset="20%" stop-color="#a3a6a6"/><stop offset="49%" stop-color="#f6f6f6"/><stop offset="61%" stop-color="#f3f3f3"/><stop offset="70%" stop-color="#eaeaea"/><stop offset="77%" stop-color="#dbdbdb"/><stop offset="83%" stop-color="#c5c5c5"/><stop offset="90%" stop-color="#aaa"/><stop offset="95%" stop-color="#888"/><stop offset="100%" stop-color="#666"/></linearGradient><linearGradient id="b" x1="49.861%" x2="49.861%" y1="0%" y2="100%"><stop offset="0%" stop-color="#b7b7b7"/><stop offset="10%" stop-color="#9fa0a0"/><stop offset="22%" stop-color="#888c8c"/><stop offset="30%" stop-color="#808484"/><stop offset="42%" stop-color="#a3a6a6"/><stop offset="71%" stop-color="#f6f6f6"/><stop offset="78%" stop-color="#f3f3f3"/><stop offset="83%" stop-color="#eaeaea"/><stop offset="87%" stop-color="#dbdbdb"/><stop offset="91%" stop-color="#c5c5c5"/><stop offset="94%" stop-color="#aaa"/><stop offset="97%" stop-color="#888"/><stop offset="100%" stop-color="#666"/></linearGradient><linearGradient id="c" x1="49.861%" x2="49.861%" y1="0%" y2="99.539%"><stop offset="0%" stop-color="#b7b7b7"/><stop offset="2%" stop-color="#b0b1b1"/><stop offset="6%" stop-color="#9ea0a0"/><stop offset="10%" stop-color="#808484"/><stop offset="31%" stop-color="#808484"/><stop offset="37%" stop-color="#848888"/><stop offset="44%" stop-color="#919494"/><stop offset="51%" stop-color="#a6a8a8"/><stop offset="58%" stop-color="#c3c5c5"/><stop offset="65%" stop-color="#e8e9e9"/><stop offset="67%" stop-color="#f6f6f6"/><stop offset="75%" stop-color="#f3f3f3"/><stop offset="81%" stop-color="#eaeaea"/><stop offset="85%" stop-color="#dbdbdb"/><stop offset="89%" stop-color="#c5c5c5"/><stop offset="93%" stop-color="#aaa"/><stop offset="97%" stop-color="#888"/><stop offset="100%" stop-color="#666"/></linearGradient><linearGradient id="d" x1="49.861%" x2="49.861%" y1="0%" y2="100%"><stop offset="0%" stop-color="#b7b7b7"/><stop offset="2%" stop-color="#b0b1b1"/><stop offset="6%" stop-color="#9ea0a0"/><stop offset="10%" stop-color="#808484"/><stop offset="18%" stop-color="#808484"/><stop offset="27%" stop-color="#848888"/><stop offset="36%" stop-color="#919494"/><stop offset="45%" stop-color="#a6a8a8"/><stop offset="55%" stop-color="#c3c5c5"/><stop offset="64%" stop-color="#e8e9e9"/><stop offset="67%" stop-color="#f6f6f6"/><stop offset="75%" stop-color="#f3f3f3"/><stop offset="81%" stop-color="#eaeaea"/><stop offset="85%" stop-color="#dbdbdb"/><stop offset="89%" stop-color="#c5c5c5"/><stop offset="93%" stop-color="#aaa"/><stop offset="97%" stop-color="#888"/><stop offset="100%" stop-color="#666"/></linearGradient><linearGradient id="e" x1="49.861%" x2="49.861%" y1="-.461%" y2="99.539%"><stop offset="0%" stop-color="#b7b7b7"/><stop offset="2%" stop-color="#b0b1b1"/><stop offset="6%" stop-color="#9ea0a0"/><stop offset="10%" stop-color="#808484"/><stop offset="18%" stop-color="#808484"/><stop offset="27%" stop-color="#848888"/><stop offset="36%" stop-color="#919494"/><stop offset="45%" stop-color="#a6a8a8"/><stop offset="55%" stop-color="#c3c5c5"/><stop offset="64%" stop-color="#e8e9e9"/><stop offset="67%" stop-color="#f6f6f6"/><stop offset="75%" stop-color="#f3f3f3"/><stop offset="81%" stop-color="#eaeaea"/><stop offset="85%" stop-color="#dbdbdb"/><stop offset="89%" stop-color="#c5c5c5"/><stop offset="93%" stop-color="#aaa"/><stop offset="97%" stop-color="#888"/><stop offset="100%" stop-color="#666"/></linearGradient><linearGradient id="f" x1="49.861%" x2="49.861%" y1="0%" y2="99.539%"><stop offset="0%" stop-color="#b7b7b7"/><stop offset="2%" stop-color="#b0b1b1"/><stop offset="6%" stop-color="#9ea0a0"/><stop offset="10%" stop-color="#808484"/><stop offset="18%" stop-color="#808484"/><stop offset="27%" stop-color="#848888"/><stop offset="36%" stop-color="#919494"/><stop offset="45%" stop-color="#a6a8a8"/><stop offset="55%" stop-color="#c3c5c5"/><stop offset="64%" stop-color="#e8e9e9"/><stop offset="67%" stop-color="#f6f6f6"/><stop offset="75%" stop-color="#f3f3f3"/><stop offset="81%" stop-color="#eaeaea"/><stop offset="85%" stop-color="#dbdbdb"/><stop offset="89%" stop-color="#c5c5c5"/><stop offset="93%" stop-color="#aaa"/><stop offset="97%" stop-color="#888"/><stop offset="100%" stop-color="#666"/></linearGradient><linearGradient id="g" x1="49.861%" x2="49.861%" y1="0%" y2="100%"><stop offset="0%" stop-color="#b7b7b7"/><stop offset="2%" stop-color="#b0b1b1"/><stop offset="6%" stop-color="#9ea0a0"/><stop offset="10%" stop-color="#808484"/><stop offset="18%" stop-color="#808484"/><stop offset="27%" stop-color="#848888"/><stop offset="36%" stop-color="#919494"/><stop offset="45%" stop-color="#a6a8a8"/><stop offset="55%" stop-color="#c3c5c5"/><stop offset="64%" stop-color="#e8e9e9"/><stop offset="67%" stop-color="#f6f6f6"/><stop offset="75%" stop-color="#f3f3f3"/><stop offset="81%" stop-color="#eaeaea"/><stop offset="85%" stop-color="#dbdbdb"/><stop offset="89%" stop-color="#c5c5c5"/><stop offset="93%" stop-color="#aaa"/><stop offset="97%" stop-color="#888"/><stop offset="100%" stop-color="#666"/></linearGradient><linearGradient id="h" x1="50.139%" x2="50.139%" y1="100%" y2="0%"><stop offset="0%" stop-color="#b7b7b7"/><stop offset="10%" stop-color="#9fa0a0"/><stop offset="22%" stop-color="#888c8c"/><stop offset="30%" stop-color="#808484"/><stop offset="42%" stop-color="#a3a6a6"/><stop offset="71%" stop-color="#f6f6f6"/><stop offset="78%" stop-color="#f3f3f3"/><stop offset="83%" stop-color="#eaeaea"/><stop offset="87%" stop-color="#dbdbdb"/><stop offset="91%" stop-color="#c5c5c5"/><stop offset="94%" stop-color="#aaa"/><stop offset="97%" stop-color="#888"/><stop offset="100%" stop-color="#666"/></linearGradient><linearGradient id="i" x1="50.139%" x2="50.139%" y1="99.539%" y2="0%"><stop offset="0%" stop-color="#b7b7b7"/><stop offset="2%" stop-color="#b0b1b1"/><stop offset="6%" stop-color="#9ea0a0"/><stop offset="10%" stop-color="#808484"/><stop offset="31%" stop-color="#808484"/><stop offset="37%" stop-color="#848888"/><stop offset="44%" stop-color="#919494"/><stop offset="51%" stop-color="#a6a8a8"/><stop offset="58%" stop-color="#c3c5c5"/><stop offset="65%" stop-color="#e8e9e9"/><stop offset="67%" stop-color="#f6f6f6"/><stop offset="75%" stop-color="#f3f3f3"/><stop offset="81%" stop-color="#eaeaea"/><stop offset="85%" stop-color="#dbdbdb"/><stop offset="89%" stop-color="#c5c5c5"/><stop offset="93%" stop-color="#aaa"/><stop offset="97%" stop-color="#888"/><stop offset="100%" stop-color="#666"/></linearGradient><linearGradient id="j" x1="50.139%" x2="50.139%" y1="100%" y2="0%"><stop offset="0%" stop-color="#b7b7b7"/><stop offset="2%" stop-color="#b0b1b1"/><stop offset="6%" stop-color="#9ea0a0"/><stop offset="10%" stop-color="#808484"/><stop offset="18%" stop-color="#808484"/><stop offset="27%" stop-color="#848888"/><stop offset="36%" stop-color="#919494"/><stop offset="45%" stop-color="#a6a8a8"/><stop offset="55%" stop-color="#c3c5c5"/><stop offset="64%" stop-color="#e8e9e9"/><stop offset="67%" stop-color="#f6f6f6"/><stop offset="75%" stop-color="#f3f3f3"/><stop offset="81%" stop-color="#eaeaea"/><stop offset="85%" stop-color="#dbdbdb"/><stop offset="89%" stop-color="#c5c5c5"/><stop offset="93%" stop-color="#aaa"/><stop offset="97%" stop-color="#888"/><stop offset="100%" stop-color="#666"/></linearGradient><linearGradient id="k" x1="50.139%" x2="50.139%" y1="99.539%" y2="0%"><stop offset="0%" stop-color="#b7b7b7"/><stop offset="2%" stop-color="#b0b1b1"/><stop offset="6%" stop-color="#9ea0a0"/><stop offset="10%" stop-color="#808484"/><stop offset="18%" stop-color="#808484"/><stop offset="27%" stop-color="#848888"/><stop offset="36%" stop-color="#919494"/><stop offset="45%" stop-color="#a6a8a8"/><stop offset="55%" stop-color="#c3c5c5"/><stop offset="64%" stop-color="#e8e9e9"/><stop offset="67%" stop-color="#f6f6f6"/><stop offset="75%" stop-color="#f3f3f3"/><stop offset="81%" stop-color="#eaeaea"/><stop offset="85%" stop-color="#dbdbdb"/><stop offset="89%" stop-color="#c5c5c5"/><stop offset="93%" stop-color="#aaa"/><stop offset="97%" stop-color="#888"/><stop offset="100%" stop-color="#666"/></linearGradient><linearGradient id="l" x1="50%" x2="50%" y1="100%" y2="0%"><stop offset="0%" stop-color="#b7b7b7"/><stop offset="3%" stop-color="#9b9d9d"/><stop offset="7%" stop-color="#878b8b"/><stop offset="9%" stop-color="#808484"/><stop offset="20%" stop-color="#a3a6a6"/><stop offset="49%" stop-color="#f6f6f6"/><stop offset="61%" stop-color="#f3f3f3"/><stop offset="70%" stop-color="#eaeaea"/><stop offset="77%" stop-color="#dbdbdb"/><stop offset="83%" stop-color="#c5c5c5"/><stop offset="90%" stop-color="#aaa"/><stop offset="95%" stop-color="#888"/><stop offset="100%" stop-color="#666"/></linearGradient><linearGradient id="m" x1="49.861%" x2="49.861%" y1="0%" y2="99.539%"><stop offset="0%" stop-color="#b7b7b7"/><stop offset="10%" stop-color="#9fa0a0"/><stop offset="22%" stop-color="#888c8c"/><stop offset="30%" stop-color="#808484"/><stop offset="42%" stop-color="#a3a6a6"/><stop offset="71%" stop-color="#f6f6f6"/><stop offset="78%" stop-color="#f3f3f3"/><stop offset="83%" stop-color="#eaeaea"/><stop offset="87%" stop-color="#dbdbdb"/><stop offset="91%" stop-color="#c5c5c5"/><stop offset="94%" stop-color="#aaa"/><stop offset="97%" stop-color="#888"/><stop offset="100%" stop-color="#666"/></linearGradient><linearGradient id="n" x1="49.861%" x2="49.861%" y1="0%" y2="100%"><stop offset="0%" stop-color="#b7b7b7"/><stop offset="2%" stop-color="#b0b1b1"/><stop offset="6%" stop-color="#9ea0a0"/><stop offset="10%" stop-color="#808484"/><stop offset="31%" stop-color="#808484"/><stop offset="37%" stop-color="#848888"/><stop offset="44%" stop-color="#919494"/><stop offset="51%" stop-color="#a6a8a8"/><stop offset="58%" stop-color="#c3c5c5"/><stop offset="65%" stop-color="#e8e9e9"/><stop offset="67%" stop-color="#f6f6f6"/><stop offset="75%" stop-color="#f3f3f3"/><stop offset="81%" stop-color="#eaeaea"/><stop offset="85%" stop-color="#dbdbdb"/><stop offset="89%" stop-color="#c5c5c5"/><stop offset="93%" stop-color="#aaa"/><stop offset="97%" stop-color="#888"/><stop offset="100%" stop-color="#666"/></linearGradient><linearGradient id="o" x1="50.139%" x2="50.139%" y1="99.539%" y2="0%"><stop offset="0%" stop-color="#b7b7b7"/><stop offset="10%" stop-color="#9fa0a0"/><stop offset="22%" stop-color="#888c8c"/><stop offset="30%" stop-color="#808484"/><stop offset="42%" stop-color="#a3a6a6"/><stop offset="71%" stop-color="#f6f6f6"/><stop offset="78%" stop-color="#f3f3f3"/><stop offset="83%" stop-color="#eaeaea"/><stop offset="87%" stop-color="#dbdbdb"/><stop offset="91%" stop-color="#c5c5c5"/><stop offset="94%" stop-color="#aaa"/><stop offset="97%" stop-color="#888"/><stop offset="100%" stop-color="#666"/></linearGradient><linearGradient id="p" x1="50.139%" x2="50.139%" y1="100%" y2="0%"><stop offset="0%" stop-color="#b7b7b7"/><stop offset="2%" stop-color="#b0b1b1"/><stop offset="6%" stop-color="#9ea0a0"/><stop offset="10%" stop-color="#808484"/><stop offset="31%" stop-color="#808484"/><stop offset="37%" stop-color="#848888"/><stop offset="44%" stop-color="#919494"/><stop offset="51%" stop-color="#a6a8a8"/><stop offset="58%" stop-color="#c3c5c5"/><stop offset="65%" stop-color="#e8e9e9"/><stop offset="67%" stop-color="#f6f6f6"/><stop offset="75%" stop-color="#f3f3f3"/><stop offset="81%" stop-color="#eaeaea"/><stop offset="85%" stop-color="#dbdbdb"/><stop offset="89%" stop-color="#c5c5c5"/><stop offset="93%" stop-color="#aaa"/><stop offset="97%" stop-color="#888"/><stop offset="100%" stop-color="#666"/></linearGradient><linearGradient id="q" x1="50%" x2="50%" y1="99.969%" y2="0%"><stop offset="0%" stop-color="#b7b7b7"/><stop offset="3%" stop-color="#9b9d9d"/><stop offset="7%" stop-color="#878b8b"/><stop offset="9%" stop-color="#808484"/><stop offset="20%" stop-color="#a3a6a6"/><stop offset="49%" stop-color="#f6f6f6"/><stop offset="61%" stop-color="#f3f3f3"/><stop offset="70%" stop-color="#eaeaea"/><stop offset="77%" stop-color="#dbdbdb"/><stop offset="83%" stop-color="#c5c5c5"/><stop offset="90%" stop-color="#aaa"/><stop offset="95%" stop-color="#888"/><stop offset="100%" stop-color="#666"/></linearGradient><linearGradient id="r" x1="49.861%" x2="49.861%" y1="0%" y2="100%"><stop offset="0%" stop-color="#b7b7b7"/><stop offset="10%" stop-color="#9fa0a0"/><stop offset="22%" stop-color="#888c8c"/><stop offset="30%" stop-color="#808484"/><stop offset="42%" stop-color="#a3a6a6"/><stop offset="71%" stop-color="#f6f6f6"/><stop offset="78%" stop-color="#f3f3f3"/><stop offset="83%" stop-color="#eaeaea"/><stop offset="87%" stop-color="#dbdbdb"/><stop offset="91%" stop-color="#c5c5c5"/><stop offset="94%" stop-color="#aaa"/><stop offset="97%" stop-color="#888"/><stop offset="100%" stop-color="#666"/></linearGradient><linearGradient id="s" x1="49.861%" x2="49.861%" y1="0%" y2="99.539%"><stop offset="0%" stop-color="#b7b7b7"/><stop offset="2%" stop-color="#b0b1b1"/><stop offset="6%" stop-color="#9ea0a0"/><stop offset="10%" stop-color="#808484"/><stop offset="31%" stop-color="#808484"/><stop offset="37%" stop-color="#848888"/><stop offset="44%" stop-color="#919494"/><stop offset="51%" stop-color="#a6a8a8"/><stop offset="58%" stop-color="#c3c5c5"/><stop offset="65%" stop-color="#e8e9e9"/><stop offset="67%" stop-color="#f6f6f6"/><stop offset="75%" stop-color="#f3f3f3"/><stop offset="81%" stop-color="#eaeaea"/><stop offset="85%" stop-color="#dbdbdb"/><stop offset="89%" stop-color="#c5c5c5"/><stop offset="93%" stop-color="#aaa"/><stop offset="97%" stop-color="#888"/><stop offset="100%" stop-color="#666"/></linearGradient><linearGradient id="t" x1="49.861%" x2="49.861%" y1="0%" y2="99.539%"><stop offset="0%" stop-color="#b7b7b7"/><stop offset="10%" stop-color="#9fa0a0"/><stop offset="22%" stop-color="#888c8c"/><stop offset="30%" stop-color="#808484"/><stop offset="42%" stop-color="#a3a6a6"/><stop offset="71%" stop-color="#f6f6f6"/><stop offset="78%" stop-color="#f3f3f3"/><stop offset="83%" stop-color="#eaeaea"/><stop offset="87%" stop-color="#dbdbdb"/><stop offset="91%" stop-color="#c5c5c5"/><stop offset="94%" stop-color="#aaa"/><stop offset="97%" stop-color="#888"/><stop offset="100%" stop-color="#666"/></linearGradient><linearGradient id="u" x1="49.861%" x2="49.861%" y1="0%" y2="100%"><stop offset="0%" stop-color="#b7b7b7"/><stop offset="2%" stop-color="#b0b1b1"/><stop offset="6%" stop-color="#9ea0a0"/><stop offset="10%" stop-color="#808484"/><stop offset="31%" stop-color="#808484"/><stop offset="37%" stop-color="#848888"/><stop offset="44%" stop-color="#919494"/><stop offset="51%" stop-color="#a6a8a8"/><stop offset="58%" stop-color="#c3c5c5"/><stop offset="65%" stop-color="#e8e9e9"/><stop offset="67%" stop-color="#f6f6f6"/><stop offset="75%" stop-color="#f3f3f3"/><stop offset="81%" stop-color="#eaeaea"/><stop offset="85%" stop-color="#dbdbdb"/><stop offset="89%" stop-color="#c5c5c5"/><stop offset="93%" stop-color="#aaa"/><stop offset="97%" stop-color="#888"/><stop offset="100%" stop-color="#666"/></linearGradient></defs><g fill="none" fill-rule="nonzero" transform="translate(.385 .005)"><path fill="#cecece" d="M83.22 0h45.42v41.31H83.22zM34.81 0h45.42v41.31H34.81zM22.1 52.71h105.05v57.95H22.1z"/><path fill="#5b5b5b" d="M119.24 57.39h7.85v26.08h-7.85zm-97.89 0h7.85v26.08h-7.85z"/><rect width="150.11" height="28.08" y="41.29" fill="url(#a)" rx="2.59"/><path fill="url(#b)" d="M10.95 40.25h3.61v2.17h-3.61z" transform="matrix(-1 0 0 -1 25.51 82.67)"/><path fill="url(#c)" d="M10.95 45.75h3.61v2.17h-3.61z" transform="matrix(-1 0 0 -1 25.51 93.67)"/><path fill="url(#d)" d="M10.95 51.26h3.61v2.17h-3.61z" transform="matrix(-1 0 0 -1 25.51 104.69)"/><path fill="url(#e)" d="M10.95 56.76h3.61v2.17h-3.61z" transform="matrix(-1 0 0 -1 25.51 115.69)"/><path fill="url(#f)" d="M10.95 62.27h3.61v2.17h-3.61z" transform="matrix(-1 0 0 -1 25.51 126.71)"/><path fill="url(#g)" d="M10.95 67.78h3.61v2.17h-3.61z" transform="matrix(-1 0 0 -1 25.51 137.73)"/><path fill="url(#h)" d="M21.72 40.25h3.61v2.17h-3.61z"/><path fill="url(#i)" d="M21.72 45.76h3.61v2.17h-3.61z"/><path fill="url(#j)" d="M21.72 51.26h3.61v2.17h-3.61z"/><path fill="url(#j)" d="M21.72 56.77h3.61v2.17h-3.61z"/><path fill="url(#k)" d="M21.72 62.28h3.61v2.17h-3.61z"/><path fill="url(#j)" d="M21.72 67.78h3.61v2.17h-3.61z"/><path fill="url(#l)" stroke="#999" stroke-width=".1" d="M14.56 39.21h7.16v31.78h-7.16z"/><path fill="url(#m)" d="M125.41 40.07h3.61v2.17h-3.61z" transform="matrix(-1 0 0 -1 254.43 82.31)"/><path fill="url(#n)" d="M125.41 45.58h3.61v2.17h-3.61z" transform="matrix(-1 0 0 -1 254.43 93.33)"/><path fill="url(#g)" d="M125.41 51.09h3.61v2.17h-3.61z" transform="matrix(-1 0 0 -1 254.43 104.35)"/><path fill="url(#f)" d="M125.41 56.59h3.61v2.17h-3.61z" transform="matrix(-1 0 0 -1 254.43 115.35)"/><path fill="url(#d)" d="M125.41 62.1h3.61v2.17h-3.61z" transform="matrix(-1 0 0 -1 254.43 126.37)"/><path fill="url(#f)" d="M125.41 67.6h3.61v2.17h-3.61z" transform="matrix(-1 0 0 -1 254.43 137.37)"/><path fill="url(#o)" d="M136.18 40.08h3.61v2.17h-3.61z"/><path fill="url(#p)" d="M136.18 45.58h3.61v2.17h-3.61z"/><path fill="url(#j)" d="M136.18 51.09h3.61v2.17h-3.61z"/><path fill="url(#k)" d="M136.18 56.6h3.61v2.17h-3.61z"/><path fill="url(#j)" d="M136.18 62.1h3.61v2.17h-3.61z"/><path fill="url(#k)" d="M136.18 67.61h3.61v2.17h-3.61z"/><path fill="url(#q)" stroke="#999" stroke-width=".1" d="M129.02 39.04h7.16v31.78h-7.16z"/><rect width="150.11" height="28.08" y="77.3" fill="url(#a)" rx="2.59"/><path fill="url(#r)" d="M10.95 76.26h3.61v2.17h-3.61z" transform="matrix(-1 0 0 -1 25.51 154.69)"/><path fill="url(#s)" d="M10.95 81.76h3.61v2.17h-3.61z" transform="matrix(-1 0 0 -1 25.51 165.69)"/><path fill="url(#d)" d="M10.95 87.27h3.61v2.17h-3.61z" transform="matrix(-1 0 0 -1 25.51 176.71)"/><path fill="url(#g)" d="M10.95 92.78h3.61v2.17h-3.61z" transform="matrix(-1 0 0 -1 25.51 187.73)"/><path fill="url(#f)" d="M10.95 98.28h3.61v2.17h-3.61z" transform="matrix(-1 0 0 -1 25.51 198.73)"/><path fill="url(#d)" d="M10.95 103.79h3.61v2.17h-3.61z" transform="matrix(-1 0 0 -1 25.51 209.75)"/><path fill="url(#h)" d="M21.72 76.26h3.61v2.17h-3.61z"/><path fill="url(#i)" d="M21.72 81.77h3.61v2.17h-3.61z"/><path fill="url(#j)" d="M21.72 87.27h3.61v2.17h-3.61z"/><path fill="url(#j)" d="M21.72 92.78h3.61v2.17h-3.61z"/><path fill="url(#k)" d="M21.72 98.29h3.61v2.17h-3.61z"/><path fill="url(#j)" d="M21.72 103.79h3.61v2.17h-3.61z"/><path fill="url(#l)" stroke="#999" stroke-width=".1" d="M14.56 75.22h7.16V107h-7.16z"/><path fill="url(#t)" d="M125.41 76.08h3.61v2.17h-3.61z" transform="matrix(-1 0 0 -1 254.43 154.33)"/><path fill="url(#u)" d="M125.41 81.59h3.61v2.17h-3.61z" transform="matrix(-1 0 0 -1 254.43 165.35)"/><path fill="url(#d)" d="M125.41 87.1h3.61v2.17h-3.61z" transform="matrix(-1 0 0 -1 254.43 176.37)"/><path fill="url(#f)" d="M125.41 92.6h3.61v2.17h-3.61z" transform="matrix(-1 0 0 -1 254.43 187.37)"/><path fill="url(#g)" d="M125.41 98.11h3.61v2.17h-3.61z" transform="matrix(-1 0 0 -1 254.43 198.39)"/><path fill="url(#f)" d="M125.41 103.61h3.61v2.17h-3.61z" transform="matrix(-1 0 0 -1 254.43 209.39)"/><path fill="url(#o)" d="M136.18 76.09h3.61v2.17h-3.61z"/><path fill="url(#p)" d="M136.18 81.59h3.61v2.17h-3.61z"/><path fill="url(#j)" d="M136.18 87.1h3.61v2.17h-3.61z"/><path fill="url(#k)" d="M136.18 92.61h3.61v2.17h-3.61z"/><path fill="url(#j)" d="M136.18 98.11h3.61v2.17h-3.61z"/><path fill="url(#k)" d="M136.18 103.62h3.61v2.17h-3.61z"/><path fill="url(#q)" stroke="#999" stroke-width=".1" d="M129.02 75.05h7.16v31.78h-7.16z"/><path fill="#bfbfbf" stroke="#969696" stroke-width=".1" d="M46.07 3.37h23.05v8.87H46.07z"/><path fill="#5b5b5b" stroke="#969696" stroke-width=".1" d="M48.84 5.43h17.1v4.1h-17.1z"/><circle cx="51.9" cy="16.29" r="1.09" fill="#ff1010" stroke="#969696" stroke-width=".1"/><circle cx="54.75" cy="16.21" r="1.09" fill="#b8fffd" stroke="#969696" stroke-width=".1"/><circle cx="57.41" cy="16.21" r="1.09" fill="#b8fffd" stroke="#969696" stroke-width=".1"/><circle cx="60.08" cy="16.21" r="1.09" fill="#ff1010" stroke="#969696" stroke-width=".1"/><circle cx="62.75" cy="16.21" r="1.09" fill="#ff1010" stroke="#969696" stroke-width=".1"/></g></svg>