<svg xmlns="http://www.w3.org/2000/svg" viewBox="0 0 151 118"><title>Cooling tower（冷却塔）</title><defs><linearGradient id="a" x1="0%" x2="100.024%" y1="50%" y2="50%"><stop offset="0%" stop-color="#b7b7b7"/><stop offset="3%" stop-color="#9b9d9d"/><stop offset="7%" stop-color="#878b8b"/><stop offset="9%" stop-color="#808484"/><stop offset="20%" stop-color="#a3a6a6"/><stop offset="49%" stop-color="#f6f6f6"/><stop offset="61%" stop-color="#f3f3f3"/><stop offset="70%" stop-color="#eaeaea"/><stop offset="77%" stop-color="#dbdbdb"/><stop offset="83%" stop-color="#c5c5c5"/><stop offset="90%" stop-color="#aaa"/><stop offset="95%" stop-color="#888"/><stop offset="100%" stop-color="#666"/></linearGradient><linearGradient id="b" x1="100%" x2="0%" y1="50.154%" y2="50.154%"><stop offset="0%" stop-color="#b7b7b7"/><stop offset="3%" stop-color="#9b9d9d"/><stop offset="7%" stop-color="#878b8b"/><stop offset="9%" stop-color="#808484"/><stop offset="20%" stop-color="#a3a6a6"/><stop offset="49%" stop-color="#f6f6f6"/><stop offset="61%" stop-color="#f3f3f3"/><stop offset="70%" stop-color="#eaeaea"/><stop offset="77%" stop-color="#dbdbdb"/><stop offset="83%" stop-color="#c5c5c5"/><stop offset="90%" stop-color="#aaa"/><stop offset="95%" stop-color="#888"/><stop offset="100%" stop-color="#666"/></linearGradient><linearGradient id="c" x1="100%" x2="0%" y1="50.15%" y2="50.15%"><stop offset="0%" stop-color="#b7b7b7"/><stop offset="3%" stop-color="#9b9d9d"/><stop offset="7%" stop-color="#878b8b"/><stop offset="9%" stop-color="#808484"/><stop offset="20%" stop-color="#a3a6a6"/><stop offset="49%" stop-color="#f6f6f6"/><stop offset="61%" stop-color="#f3f3f3"/><stop offset="70%" stop-color="#eaeaea"/><stop offset="77%" stop-color="#dbdbdb"/><stop offset="83%" stop-color="#c5c5c5"/><stop offset="90%" stop-color="#aaa"/><stop offset="95%" stop-color="#888"/><stop offset="100%" stop-color="#666"/></linearGradient><linearGradient id="d" x1="100.588%" x2="0%" y1="50.15%" y2="50.15%"><stop offset="0%" stop-color="#b7b7b7"/><stop offset="3%" stop-color="#9b9d9d"/><stop offset="7%" stop-color="#878b8b"/><stop offset="9%" stop-color="#808484"/><stop offset="20%" stop-color="#a3a6a6"/><stop offset="49%" stop-color="#f6f6f6"/><stop offset="61%" stop-color="#f3f3f3"/><stop offset="70%" stop-color="#eaeaea"/><stop offset="77%" stop-color="#dbdbdb"/><stop offset="83%" stop-color="#c5c5c5"/><stop offset="90%" stop-color="#aaa"/><stop offset="95%" stop-color="#888"/><stop offset="100%" stop-color="#666"/></linearGradient><linearGradient id="e" x1="0%" x2="100%" y1="49.994%" y2="49.994%"><stop offset="0%" stop-color="#b7b7b7"/><stop offset="3%" stop-color="#9b9d9d"/><stop offset="7%" stop-color="#878b8b"/><stop offset="9%" stop-color="#808484"/><stop offset="20%" stop-color="#a3a6a6"/><stop offset="49%" stop-color="#f6f6f6"/><stop offset="61%" stop-color="#f3f3f3"/><stop offset="70%" stop-color="#eaeaea"/><stop offset="77%" stop-color="#dbdbdb"/><stop offset="83%" stop-color="#c5c5c5"/><stop offset="90%" stop-color="#aaa"/><stop offset="95%" stop-color="#888"/><stop offset="100%" stop-color="#666"/></linearGradient><linearGradient id="f" x1="0%" x2="100%" y1="49.994%" y2="49.994%"><stop offset="0%" stop-color="#ccc"/><stop offset="3%" stop-color="#bbb"/><stop offset="6%" stop-color="#a7a7a7"/><stop offset="9%" stop-color="#a0a0a0"/><stop offset="10%" stop-color="#a3a3a3"/><stop offset="49%" stop-color="#f6f6f6"/><stop offset="62%" stop-color="#f3f3f3"/><stop offset="72%" stop-color="#eaeaea"/><stop offset="80%" stop-color="#dbdbdb"/><stop offset="87%" stop-color="#c5c5c5"/><stop offset="94%" stop-color="#aaa"/><stop offset="100%" stop-color="#898989"/></linearGradient><linearGradient id="g" x1="100%" x2="0%" y1="50%" y2="50%"><stop offset="0%" stop-color="#b7b7b7"/><stop offset="3%" stop-color="#9b9d9d"/><stop offset="7%" stop-color="#878b8b"/><stop offset="9%" stop-color="#808484"/><stop offset="20%" stop-color="#a3a6a6"/><stop offset="49%" stop-color="#f6f6f6"/><stop offset="61%" stop-color="#f3f3f3"/><stop offset="70%" stop-color="#eaeaea"/><stop offset="77%" stop-color="#dbdbdb"/><stop offset="83%" stop-color="#c5c5c5"/><stop offset="90%" stop-color="#aaa"/><stop offset="95%" stop-color="#888"/><stop offset="100%" stop-color="#666"/></linearGradient><linearGradient id="h" x1="0%" x2="100%" y1="50%" y2="50%"><stop offset="0%" stop-color="#b7b7b7"/><stop offset="3%" stop-color="#9b9d9d"/><stop offset="7%" stop-color="#878b8b"/><stop offset="9%" stop-color="#808484"/><stop offset="20%" stop-color="#a3a6a6"/><stop offset="49%" stop-color="#f6f6f6"/><stop offset="61%" stop-color="#f3f3f3"/><stop offset="70%" stop-color="#eaeaea"/><stop offset="77%" stop-color="#dbdbdb"/><stop offset="83%" stop-color="#c5c5c5"/><stop offset="90%" stop-color="#aaa"/><stop offset="95%" stop-color="#888"/><stop offset="100%" stop-color="#666"/></linearGradient><linearGradient id="i" x1="100.588%" x2="0%" y1="49.85%" y2="49.85%"><stop offset="0%" stop-color="#b7b7b7"/><stop offset="3%" stop-color="#9b9d9d"/><stop offset="7%" stop-color="#878b8b"/><stop offset="9%" stop-color="#808484"/><stop offset="20%" stop-color="#a3a6a6"/><stop offset="49%" stop-color="#f6f6f6"/><stop offset="61%" stop-color="#f3f3f3"/><stop offset="70%" stop-color="#eaeaea"/><stop offset="77%" stop-color="#dbdbdb"/><stop offset="83%" stop-color="#c5c5c5"/><stop offset="90%" stop-color="#aaa"/><stop offset="95%" stop-color="#888"/><stop offset="100%" stop-color="#666"/></linearGradient><linearGradient id="j" x1="100%" x2="0%" y1="49.85%" y2="49.85%"><stop offset="0%" stop-color="#b7b7b7"/><stop offset="3%" stop-color="#9b9d9d"/><stop offset="7%" stop-color="#878b8b"/><stop offset="9%" stop-color="#808484"/><stop offset="20%" stop-color="#a3a6a6"/><stop offset="49%" stop-color="#f6f6f6"/><stop offset="61%" stop-color="#f3f3f3"/><stop offset="70%" stop-color="#eaeaea"/><stop offset="77%" stop-color="#dbdbdb"/><stop offset="83%" stop-color="#c5c5c5"/><stop offset="90%" stop-color="#aaa"/><stop offset="95%" stop-color="#888"/><stop offset="100%" stop-color="#666"/></linearGradient><linearGradient id="k" x1="0%" x2="100%" y1="50.006%" y2="50.006%"><stop offset="0%" stop-color="#b7b7b7"/><stop offset="3%" stop-color="#9b9d9d"/><stop offset="7%" stop-color="#878b8b"/><stop offset="9%" stop-color="#808484"/><stop offset="20%" stop-color="#a3a6a6"/><stop offset="49%" stop-color="#f6f6f6"/><stop offset="61%" stop-color="#f3f3f3"/><stop offset="70%" stop-color="#eaeaea"/><stop offset="77%" stop-color="#dbdbdb"/><stop offset="83%" stop-color="#c5c5c5"/><stop offset="90%" stop-color="#aaa"/><stop offset="95%" stop-color="#888"/><stop offset="100%" stop-color="#666"/></linearGradient><linearGradient id="l" x1="0%" x2="100%" y1="50.006%" y2="50.006%"><stop offset="0%" stop-color="#ccc"/><stop offset="3%" stop-color="#bbb"/><stop offset="6%" stop-color="#a7a7a7"/><stop offset="9%" stop-color="#a0a0a0"/><stop offset="10%" stop-color="#a3a3a3"/><stop offset="49%" stop-color="#f6f6f6"/><stop offset="62%" stop-color="#f3f3f3"/><stop offset="72%" stop-color="#eaeaea"/><stop offset="80%" stop-color="#dbdbdb"/><stop offset="87%" stop-color="#c5c5c5"/><stop offset="94%" stop-color="#aaa"/><stop offset="100%" stop-color="#898989"/></linearGradient><linearGradient id="m" x1="0%" x2="99.98%" y1="49.822%" y2="49.822%"><stop offset="0%" stop-color="#b7b7b7"/><stop offset="3%" stop-color="#9b9d9d"/><stop offset="7%" stop-color="#878b8b"/><stop offset="9%" stop-color="#808484"/><stop offset="20%" stop-color="#a3a6a6"/><stop offset="49%" stop-color="#f6f6f6"/><stop offset="61%" stop-color="#f3f3f3"/><stop offset="70%" stop-color="#eaeaea"/><stop offset="77%" stop-color="#dbdbdb"/><stop offset="83%" stop-color="#c5c5c5"/><stop offset="90%" stop-color="#aaa"/><stop offset="95%" stop-color="#888"/><stop offset="100%" stop-color="#666"/></linearGradient><linearGradient id="n" x1="100%" x2="0%" y1="50%" y2="50%"><stop offset="0%" stop-color="#b7b7b7"/><stop offset="3%" stop-color="#9b9d9d"/><stop offset="7%" stop-color="#878b8b"/><stop offset="9%" stop-color="#808484"/><stop offset="20%" stop-color="#a3a6a6"/><stop offset="49%" stop-color="#f6f6f6"/><stop offset="61%" stop-color="#f3f3f3"/><stop offset="70%" stop-color="#eaeaea"/><stop offset="77%" stop-color="#dbdbdb"/><stop offset="83%" stop-color="#c5c5c5"/><stop offset="90%" stop-color="#aaa"/><stop offset="95%" stop-color="#888"/><stop offset="100%" stop-color="#666"/></linearGradient><linearGradient id="o" x1="100%" x2="0%" y1="49.873%" y2="49.873%"><stop offset="0%" stop-color="#b7b7b7"/><stop offset="3%" stop-color="#9b9d9d"/><stop offset="7%" stop-color="#878b8b"/><stop offset="9%" stop-color="#808484"/><stop offset="20%" stop-color="#a3a6a6"/><stop offset="49%" stop-color="#f6f6f6"/><stop offset="61%" stop-color="#f3f3f3"/><stop offset="70%" stop-color="#eaeaea"/><stop offset="77%" stop-color="#dbdbdb"/><stop offset="83%" stop-color="#c5c5c5"/><stop offset="90%" stop-color="#aaa"/><stop offset="95%" stop-color="#888"/><stop offset="100%" stop-color="#666"/></linearGradient><linearGradient id="p" x1="100%" x2="0%" y1="50.127%" y2="50.127%"><stop offset="0%" stop-color="#b7b7b7"/><stop offset="3%" stop-color="#9b9d9d"/><stop offset="7%" stop-color="#878b8b"/><stop offset="9%" stop-color="#808484"/><stop offset="20%" stop-color="#a3a6a6"/><stop offset="49%" stop-color="#f6f6f6"/><stop offset="61%" stop-color="#f3f3f3"/><stop offset="70%" stop-color="#eaeaea"/><stop offset="77%" stop-color="#dbdbdb"/><stop offset="83%" stop-color="#c5c5c5"/><stop offset="90%" stop-color="#aaa"/><stop offset="95%" stop-color="#888"/><stop offset="100%" stop-color="#666"/></linearGradient><linearGradient id="q" x1="-.047%" x2="100%" y1="50.005%" y2="50.005%"><stop offset="0%" stop-color="#b7b7b7"/><stop offset="3%" stop-color="#9b9d9d"/><stop offset="7%" stop-color="#878b8b"/><stop offset="9%" stop-color="#808484"/><stop offset="20%" stop-color="#a3a6a6"/><stop offset="49%" stop-color="#f6f6f6"/><stop offset="61%" stop-color="#f3f3f3"/><stop offset="70%" stop-color="#eaeaea"/><stop offset="77%" stop-color="#dbdbdb"/><stop offset="83%" stop-color="#c5c5c5"/><stop offset="90%" stop-color="#aaa"/><stop offset="95%" stop-color="#888"/><stop offset="100%" stop-color="#666"/></linearGradient><linearGradient id="r" x1="0%" x2="100%" y1="49.995%" y2="49.995%"><stop offset="0%" stop-color="#ccc"/><stop offset="3%" stop-color="#bbb"/><stop offset="6%" stop-color="#a7a7a7"/><stop offset="9%" stop-color="#a0a0a0"/><stop offset="10%" stop-color="#a3a3a3"/><stop offset="49%" stop-color="#f6f6f6"/><stop offset="62%" stop-color="#f3f3f3"/><stop offset="72%" stop-color="#eaeaea"/><stop offset="80%" stop-color="#dbdbdb"/><stop offset="87%" stop-color="#c5c5c5"/><stop offset="94%" stop-color="#aaa"/><stop offset="100%" stop-color="#898989"/></linearGradient><linearGradient id="s" x1="100.455%" x2="0%" y1="50.005%" y2="50.005%"><stop offset="0%" stop-color="#b7b7b7"/><stop offset="3%" stop-color="#9b9d9d"/><stop offset="7%" stop-color="#878b8b"/><stop offset="9%" stop-color="#808484"/><stop offset="20%" stop-color="#a3a6a6"/><stop offset="49%" stop-color="#f6f6f6"/><stop offset="61%" stop-color="#f3f3f3"/><stop offset="70%" stop-color="#eaeaea"/><stop offset="77%" stop-color="#dbdbdb"/><stop offset="83%" stop-color="#c5c5c5"/><stop offset="90%" stop-color="#aaa"/><stop offset="95%" stop-color="#888"/><stop offset="100%" stop-color="#666"/></linearGradient><linearGradient id="t" x1="100%" x2="0%" y1="50.005%" y2="50.005%"><stop offset="0%" stop-color="#b7b7b7"/><stop offset="3%" stop-color="#9b9d9d"/><stop offset="7%" stop-color="#878b8b"/><stop offset="9%" stop-color="#808484"/><stop offset="20%" stop-color="#a3a6a6"/><stop offset="49%" stop-color="#f6f6f6"/><stop offset="61%" stop-color="#f3f3f3"/><stop offset="70%" stop-color="#eaeaea"/><stop offset="77%" stop-color="#dbdbdb"/><stop offset="83%" stop-color="#c5c5c5"/><stop offset="90%" stop-color="#aaa"/><stop offset="95%" stop-color="#888"/><stop offset="100%" stop-color="#666"/></linearGradient></defs><g fill="none" fill-rule="nonzero" transform="translate(.385 .005)"><rect width="42.4" height="2.38" x="92.44" y="18.02" fill="url(#a)" rx=".28"/><path fill="url(#b)" d="M92.87 17.07h1.7v3.25h-1.7z"/><path fill="url(#c)" d="M97.57 17.09h1.7v3.33h-1.7z"/><path fill="url(#c)" d="M101.31 17.13h1.7v3.33h-1.7z"/><path fill="url(#d)" d="M106.12 17.09h1.7v3.33h-1.7z"/><path fill="url(#c)" d="M110.62 17.13h1.7v3.33h-1.7z"/><path fill="url(#c)" d="M114.77 17.13h1.7v3.33h-1.7z"/><path fill="url(#c)" d="M119.11 17.03h1.7v3.33h-1.7z"/><path fill="url(#d)" d="M123.56 17.09h1.7v3.33h-1.7z"/><path fill="url(#d)" d="M127.9 17.13h1.7v3.33h-1.7z"/><path fill="url(#d)" d="M132.2 17.13h1.7v3.33h-1.7z"/><path fill="url(#e)" d="M150 112.69H77.69S99.07 61.52 93 27.32h41.09C126.75 80.73 150 112.69 150 112.69"/><path fill="url(#f)" d="M145.85 105.7H80.4s17.17-51.17 11.52-85.37h42.93c-9.58 49.91 11 85.37 11 85.37"/><path fill="url(#g)" d="M97.91 20.08h1.87v86.06h-1.87z"/><path fill="url(#g)" d="M107.83 20.08h1.87v86.06h-1.87z"/><path fill="url(#g)" d="M117.58 20.08h1.87v86.06h-1.87z"/><path fill="url(#g)" d="M127.26 20.08h1.87v86.06h-1.87z"/><rect width="42.4" height="2.38" x="14.76" y="18.12" fill="url(#h)" rx=".28"/><path fill="url(#b)" d="M15.19 17.17h1.7v3.25h-1.7z"/><path fill="url(#i)" d="M19.88 17.19h1.7v3.33h-1.7z"/><path fill="url(#i)" d="M23.62 17.23h1.7v3.33h-1.7z"/><path fill="url(#j)" d="M28.44 17.19h1.7v3.33h-1.7z"/><path fill="url(#j)" d="M32.93 17.23h1.7v3.33h-1.7z"/><path fill="url(#j)" d="M37.08 17.23h1.7v3.33h-1.7z"/><path fill="url(#c)" d="M41.42 17.13h1.7v3.33h-1.7z"/><path fill="url(#i)" d="M45.87 17.19h1.7v3.33h-1.7z"/><path fill="url(#i)" d="M50.21 17.23h1.7v3.33h-1.7z"/><path fill="url(#j)" d="M54.52 17.23h1.7v3.33h-1.7z"/><path fill="url(#k)" d="M72.31 112.78H0s21.38-51.16 15.27-85.37h41.09c-7.3 53.42 15.95 85.37 15.95 85.37"/><path fill="url(#l)" d="M68.17 105.79H2.71s17.17-51.16 11.53-85.37h42.92c-9.58 49.92 11.01 85.37 11.01 85.37"/><path fill="url(#g)" d="M20.23 20.17h1.87v86.06h-1.87z"/><path fill="url(#g)" d="M30.14 20.17h1.87v86.06h-1.87z"/><path fill="url(#g)" d="M39.9 20.17h1.87v86.06H39.9z"/><path fill="url(#g)" d="M49.58 20.17h1.87v86.06h-1.87z"/><rect width="50.01" height="2.81" x="50.36" y="1.17" fill="url(#m)" rx=".28"/><path fill="url(#n)" d="M50.87.05h2v3.84h-2z"/><path fill="url(#o)" d="M56.4.07h2.01V4H56.4z"/><path fill="url(#p)" d="M60.81.11h2.01v3.93h-2.01z"/><path fill="url(#o)" d="M66.49.07h2.01V4h-2.01z"/><path fill="url(#p)" d="M71.79.11h2.01v3.93h-2.01z"/><path fill="url(#p)" d="M76.68.11h2.01v3.93h-2.01z"/><path fill="url(#p)" d="M81.8 0h2.01v3.93H81.8z"/><path fill="url(#o)" d="M87.05.07h2.01V4h-2.01z"/><path fill="url(#p)" d="M92.17.11h2.01v3.93h-2.01z"/><path fill="url(#p)" d="M97.25.11h2.01v3.93h-2.01z"/><path fill="url(#q)" d="M118.23 112.8H33S58.17 52.47 51 12.13h48.42c-8.6 62.99 18.81 100.67 18.81 100.67"/><path fill="url(#r)" d="M113.34 104.56H36.16S56.4 44.22 49.75 3.89h50.61c-11.3 58.86 12.98 100.67 12.98 100.67"/><path fill="url(#s)" d="M56.81 3.59h2.2v101.49h-2.2z"/><path fill="url(#t)" d="M68.5 3.59h2.2v101.49h-2.2z"/><path fill="url(#t)" d="M80.01 3.59h2.2v101.49h-2.2z"/><path fill="url(#t)" d="M91.42 3.59h2.2v101.49h-2.2z"/><path fill="#b0b0b1" d="M0 112.78h150v5.04H0z"/></g></svg>