<svg xmlns="http://www.w3.org/2000/svg" viewBox="0 0 88 151"><title>Large portable chiller（大型便携式冷水机）</title><defs><linearGradient id="a" x1="0%" x2="100%" y1="50%" y2="50%"><stop offset="0%" stop-color="#ccc"/><stop offset="0%" stop-color="#bbb"/><stop offset="0%" stop-color="#a7a7a7"/><stop offset="0%" stop-color="#a0a0a0"/><stop offset="0%" stop-color="#a0a0a0"/><stop offset="5%" stop-color="#bbb"/><stop offset="10%" stop-color="#d1d1d1"/><stop offset="16%" stop-color="#e2e2e2"/><stop offset="24%" stop-color="#ededed"/><stop offset="35%" stop-color="#f4f4f4"/><stop offset="65%" stop-color="#f6f6f6"/><stop offset="80%" stop-color="#f4f4f4"/><stop offset="86%" stop-color="#ededed"/><stop offset="90%" stop-color="#e2e2e2"/><stop offset="93%" stop-color="#d1d1d1"/><stop offset="96%" stop-color="#bbb"/><stop offset="98%" stop-color="#a0a0a0"/><stop offset="100%" stop-color="#898989"/></linearGradient><linearGradient id="b" x1="0%" x2="100%" y1="50.086%" y2="50.086%"><stop offset="0%" stop-color="#b7b7b7"/><stop offset="3%" stop-color="#9b9d9d"/><stop offset="7%" stop-color="#878b8b"/><stop offset="9%" stop-color="#808484"/><stop offset="20%" stop-color="#a3a6a6"/><stop offset="49%" stop-color="#f6f6f6"/><stop offset="61%" stop-color="#f3f3f3"/><stop offset="70%" stop-color="#eaeaea"/><stop offset="77%" stop-color="#dbdbdb"/><stop offset="83%" stop-color="#c5c5c5"/><stop offset="90%" stop-color="#aaa"/><stop offset="95%" stop-color="#888"/><stop offset="100%" stop-color="#666"/></linearGradient></defs><g fill="none" fill-rule="evenodd" transform="translate(.385 .005)"><path fill="#b0b0b1" fill-rule="nonzero" d="M.42 4.7h85.46v135.18H.42z"/><path fill="url(#a)" fill-rule="nonzero" d="M0 0h86.52v5.08H0z"/><path fill="#e5e5e5" fill-rule="nonzero" d="M17.28 14.91h57.51v58.48H17.28zm0 63.69h57.51v51.71H17.28z"/><path fill="#d5d5db" fill-rule="nonzero" d="M25.13 102.36h41.8v4.19h-41.8z"/><path fill="url(#a)" fill-rule="nonzero" d="M.19 139.33h86.52v5.08H.19z"/><path fill="#d5d5db" fill-rule="nonzero" d="M19.31 17.41h7.62v6.23h-7.62zm0 10.29h7.62v6.23h-7.62z"/><path fill="#b0b0b1" fill-rule="nonzero" d="M33.92 25.66h24.71v18.23H33.92z"/><path fill="#cecece" fill-rule="nonzero" d="M36.49 27.7h19.57v13.91H36.49z"/><path fill="url(#b)" fill-rule="nonzero" d="M47.95 31.93H44.6l-1.68 2.91 1.68 2.9h3.35l1.68-2.9z"/><circle cx="46.28" cy="34.96" r="1.82" fill="#b0b0b1" fill-rule="nonzero"/><circle cx="9.12" cy="48.17" r="5.17" fill="#b0b0b1" fill-rule="nonzero"/><path fill="#b0b0b1" fill-rule="nonzero" d="M7.71 144.41h9.06V150H7.71zm63.14 0h9.06V150h-9.06z"/><circle cx="9.12" cy="31.08" r="5.17" fill="#cecece" fill-rule="nonzero"/><circle cx="9.12" cy="31.08" r="4.4" fill="#cecece" fill-rule="nonzero" stroke="#909093" stroke-width=".1"/><circle cx="9.12" cy="31.08" r="1" fill="#909093" fill-rule="nonzero"/><path stroke="#a5a5a5" stroke-width=".05" d="M5.05 31.08h.76m3.31-4v.76m2.8.49-.54.54m-4.99-.54.54.54m5.49 2.21h.76"/><path fill="#909093" fill-rule="nonzero" d="m11.36 28.14-3.61 4.43.53.37z"/><path fill="#cecece" fill-rule="nonzero" stroke="#909093" stroke-width=".1" d="M7.26 33.37h3.73v1H7.26z"/><circle cx="9.12" cy="48.17" r="5.17" fill="#cecece" fill-rule="nonzero"/><circle cx="9.12" cy="48.17" r="4.4" fill="#cecece" fill-rule="nonzero" stroke="#909093" stroke-width=".1"/><circle cx="9.12" cy="48.17" r="1" fill="#909093" fill-rule="nonzero"/><path stroke="#a5a5a5" stroke-width=".05" d="M5.05 48.17h.76m3.31-4v.76m2.8.48-.54.54m-4.99-.54.54.54m5.49 2.22h.76"/><path fill="#909093" fill-rule="nonzero" d="m11.36 45.22-3.61 4.44.53.37z"/><path fill="#cecece" fill-rule="nonzero" stroke="#909093" stroke-width=".1" d="M7.26 50.45h3.73v1H7.26z"/></g></svg>