<svg xmlns="http://www.w3.org/2000/svg" viewBox="0 0 111 150"><title>Temperature control unit（单元控制温度）</title><defs><linearGradient id="a" x1="0%" x2="100%" y1="50%" y2="50%"><stop offset="0%" stop-color="#8c8c8c"/><stop offset="1%" stop-color="#969696"/><stop offset="4%" stop-color="#acacac"/><stop offset="8%" stop-color="#bdbdbd"/><stop offset="13%" stop-color="#c8c8c8"/><stop offset="19%" stop-color="#cfcfcf"/><stop offset="37%" stop-color="#d1d1d1"/><stop offset="72%" stop-color="#d3d3d3"/><stop offset="84%" stop-color="#dadada"/><stop offset="93%" stop-color="#e5e5e5"/><stop offset="100%" stop-color="#f6f6f6"/><stop offset="100%" stop-color="#f7f7f7"/></linearGradient><linearGradient id="b" x1="-.212%" x2="100%" y1="49.924%" y2="49.924%"><stop offset="0%" stop-color="#e2e2e2"/><stop offset="3%" stop-color="#d0d0d0"/><stop offset="6%" stop-color="#bcbcbc"/><stop offset="9%" stop-color="#b5b5b5"/><stop offset="49%" stop-color="#f6f6f6"/><stop offset="63%" stop-color="#f3f3f3"/><stop offset="73%" stop-color="#eaeaea"/><stop offset="82%" stop-color="#dbdbdb"/><stop offset="90%" stop-color="#c6c6c6"/><stop offset="97%" stop-color="#aaa"/><stop offset="100%" stop-color="#9b9b9b"/></linearGradient><linearGradient id="c" x1="0%" x2="100%" y1="49.924%" y2="49.924%"><stop offset="0%" stop-color="#e2e2e2"/><stop offset="3%" stop-color="#d0d0d0"/><stop offset="6%" stop-color="#bcbcbc"/><stop offset="9%" stop-color="#b5b5b5"/><stop offset="49%" stop-color="#f6f6f6"/><stop offset="63%" stop-color="#f3f3f3"/><stop offset="73%" stop-color="#eaeaea"/><stop offset="82%" stop-color="#dbdbdb"/><stop offset="90%" stop-color="#c6c6c6"/><stop offset="97%" stop-color="#aaa"/><stop offset="100%" stop-color="#9b9b9b"/></linearGradient><linearGradient id="d" x1="50%" x2="50%" y1="100.141%" y2="0%"><stop offset="0%" stop-color="#e2e2e2"/><stop offset="3%" stop-color="#d0d0d0"/><stop offset="6%" stop-color="#bcbcbc"/><stop offset="9%" stop-color="#b5b5b5"/><stop offset="49%" stop-color="#f6f6f6"/><stop offset="63%" stop-color="#f3f3f3"/><stop offset="73%" stop-color="#eaeaea"/><stop offset="82%" stop-color="#dbdbdb"/><stop offset="90%" stop-color="#c6c6c6"/><stop offset="97%" stop-color="#aaa"/><stop offset="100%" stop-color="#9b9b9b"/></linearGradient><linearGradient id="e" x1="50.034%" x2="50.034%" y1="100%" y2="0%"><stop offset="0%" stop-color="#e2e2e2"/><stop offset="3%" stop-color="#d0d0d0"/><stop offset="6%" stop-color="#bcbcbc"/><stop offset="9%" stop-color="#b5b5b5"/><stop offset="49%" stop-color="#f6f6f6"/><stop offset="63%" stop-color="#f3f3f3"/><stop offset="73%" stop-color="#eaeaea"/><stop offset="82%" stop-color="#dbdbdb"/><stop offset="90%" stop-color="#c6c6c6"/><stop offset="97%" stop-color="#aaa"/><stop offset="100%" stop-color="#9b9b9b"/></linearGradient><linearGradient id="f" x1="50%" x2="50%" y1="100%" y2="0%"><stop offset="0%" stop-color="#e2e2e2"/><stop offset="3%" stop-color="#d0d0d0"/><stop offset="6%" stop-color="#bcbcbc"/><stop offset="9%" stop-color="#b5b5b5"/><stop offset="49%" stop-color="#f6f6f6"/><stop offset="63%" stop-color="#f3f3f3"/><stop offset="73%" stop-color="#eaeaea"/><stop offset="82%" stop-color="#dbdbdb"/><stop offset="90%" stop-color="#c6c6c6"/><stop offset="97%" stop-color="#aaa"/><stop offset="100%" stop-color="#9b9b9b"/></linearGradient><linearGradient id="g" x1="0%" x2="100%" y1="50.049%" y2="50.049%"><stop offset="0%" stop-color="#e2e2e2"/><stop offset="3%" stop-color="#d0d0d0"/><stop offset="6%" stop-color="#bcbcbc"/><stop offset="9%" stop-color="#b5b5b5"/><stop offset="49%" stop-color="#f6f6f6"/><stop offset="63%" stop-color="#f3f3f3"/><stop offset="73%" stop-color="#eaeaea"/><stop offset="82%" stop-color="#dbdbdb"/><stop offset="90%" stop-color="#c6c6c6"/><stop offset="97%" stop-color="#aaa"/><stop offset="100%" stop-color="#9b9b9b"/></linearGradient><linearGradient id="h" x1="0%" x2="100.885%" y1="50.054%" y2="50.054%"><stop offset="0%" stop-color="#e2e2e2"/><stop offset="3%" stop-color="#d0d0d0"/><stop offset="6%" stop-color="#bcbcbc"/><stop offset="9%" stop-color="#b5b5b5"/><stop offset="49%" stop-color="#f6f6f6"/><stop offset="63%" stop-color="#f3f3f3"/><stop offset="73%" stop-color="#eaeaea"/><stop offset="82%" stop-color="#dbdbdb"/><stop offset="90%" stop-color="#c6c6c6"/><stop offset="97%" stop-color="#aaa"/><stop offset="100%" stop-color="#9b9b9b"/></linearGradient><linearGradient id="i" x1="0%" x2="100%" y1="50%" y2="50%"><stop offset="0%" stop-color="#e2e2e2"/><stop offset="3%" stop-color="#d0d0d0"/><stop offset="6%" stop-color="#bcbcbc"/><stop offset="9%" stop-color="#b5b5b5"/><stop offset="49%" stop-color="#f6f6f6"/><stop offset="63%" stop-color="#f3f3f3"/><stop offset="73%" stop-color="#eaeaea"/><stop offset="82%" stop-color="#dbdbdb"/><stop offset="90%" stop-color="#c6c6c6"/><stop offset="97%" stop-color="#aaa"/><stop offset="100%" stop-color="#9b9b9b"/></linearGradient><linearGradient id="j" x1="0%" x2="100.887%" y1="50.053%" y2="50.053%"><stop offset="0%" stop-color="#e2e2e2"/><stop offset="3%" stop-color="#d0d0d0"/><stop offset="6%" stop-color="#bcbcbc"/><stop offset="9%" stop-color="#b5b5b5"/><stop offset="49%" stop-color="#f6f6f6"/><stop offset="63%" stop-color="#f3f3f3"/><stop offset="73%" stop-color="#eaeaea"/><stop offset="82%" stop-color="#dbdbdb"/><stop offset="90%" stop-color="#c6c6c6"/><stop offset="97%" stop-color="#aaa"/><stop offset="100%" stop-color="#9b9b9b"/></linearGradient><linearGradient id="k" x1="0%" x2="100.887%" y1="50.088%" y2="50.088%"><stop offset="0%" stop-color="#e2e2e2"/><stop offset="3%" stop-color="#d0d0d0"/><stop offset="6%" stop-color="#bcbcbc"/><stop offset="9%" stop-color="#b5b5b5"/><stop offset="49%" stop-color="#f6f6f6"/><stop offset="63%" stop-color="#f3f3f3"/><stop offset="73%" stop-color="#eaeaea"/><stop offset="82%" stop-color="#dbdbdb"/><stop offset="90%" stop-color="#c6c6c6"/><stop offset="97%" stop-color="#aaa"/><stop offset="100%" stop-color="#9b9b9b"/></linearGradient><linearGradient id="l" x1="0%" x2="100%" y1="50.014%" y2="50.014%"><stop offset="0%" stop-color="#e2e2e2"/><stop offset="3%" stop-color="#d0d0d0"/><stop offset="6%" stop-color="#bcbcbc"/><stop offset="9%" stop-color="#b5b5b5"/><stop offset="49%" stop-color="#f6f6f6"/><stop offset="63%" stop-color="#f3f3f3"/><stop offset="73%" stop-color="#eaeaea"/><stop offset="82%" stop-color="#dbdbdb"/><stop offset="90%" stop-color="#c6c6c6"/><stop offset="97%" stop-color="#aaa"/><stop offset="100%" stop-color="#9b9b9b"/></linearGradient><linearGradient id="m" x1="0%" x2="100%" y1="50%" y2="50%"><stop offset="0%" stop-color="#e2e2e2"/><stop offset="3%" stop-color="#d0d0d0"/><stop offset="6%" stop-color="#bcbcbc"/><stop offset="9%" stop-color="#b5b5b5"/><stop offset="49%" stop-color="#f6f6f6"/><stop offset="63%" stop-color="#f3f3f3"/><stop offset="73%" stop-color="#eaeaea"/><stop offset="82%" stop-color="#dbdbdb"/><stop offset="90%" stop-color="#c6c6c6"/><stop offset="97%" stop-color="#aaa"/><stop offset="100%" stop-color="#9b9b9b"/></linearGradient><linearGradient id="n" x1="50.014%" x2="50.014%" y1="0%" y2="100.063%"><stop offset="0%" stop-color="#b7b7b7"/><stop offset="3%" stop-color="#9b9d9d"/><stop offset="7%" stop-color="#878b8b"/><stop offset="9%" stop-color="#808484"/><stop offset="20%" stop-color="#a3a6a6"/><stop offset="49%" stop-color="#f6f6f6"/><stop offset="61%" stop-color="#f3f3f3"/><stop offset="70%" stop-color="#eaeaea"/><stop offset="77%" stop-color="#dbdbdb"/><stop offset="83%" stop-color="#c5c5c5"/><stop offset="90%" stop-color="#aaa"/><stop offset="95%" stop-color="#888"/><stop offset="100%" stop-color="#666"/></linearGradient><linearGradient id="o" x1="50.042%" x2="50.042%" y1="0%" y2="99.927%"><stop offset="0%" stop-color="#b7b7b7"/><stop offset="3%" stop-color="#9b9d9d"/><stop offset="7%" stop-color="#878b8b"/><stop offset="9%" stop-color="#808484"/><stop offset="16%" stop-color="#a3a6a6"/><stop offset="33%" stop-color="#f6f6f6"/><stop offset="42%" stop-color="#d3d3d3"/><stop offset="54%" stop-color="#acacac"/><stop offset="67%" stop-color="#8e8e8e"/><stop offset="78%" stop-color="#787878"/><stop offset="90%" stop-color="#6a6a6a"/><stop offset="100%" stop-color="#666"/></linearGradient></defs><g fill="none" fill-rule="evenodd" transform="translate(.385 .005)"><path fill="url(#a)" fill-rule="nonzero" d="M0 9.84h85.35v133.54H0z"/><rect width="59.1" height="33.54" x="12.95" y="18.18" fill="#b0b0b1" fill-rule="nonzero" rx="1.11"/><path fill="#e5e5e5" fill-rule="nonzero" d="M17.91 23.54h30.67v22.4H17.91zM52 23.49h14.73v22.4H52z"/><rect width="18.38" height="13.81" x="14.64" y="114.61" fill="#b0b0b1" fill-rule="nonzero" rx=".4"/><path fill="url(#b)" fill-rule="nonzero" d="M7 143.39h4.7v6.37a.24.24 0 0 1-.24.24H7.23a.24.24 0 0 1-.24-.24v-6.37z"/><path fill="url(#c)" fill-rule="nonzero" d="M71.89 143.39h4.71v6.37a.24.24 0 0 1-.24.24h-4.23a.24.24 0 0 1-.24-.24z"/><path fill="url(#d)" fill-rule="nonzero" d="M84.85 118.92h25.46V126H84.85z"/><path fill="url(#e)" fill-rule="nonzero" d="M92.59 117.73h14.89v9.86H92.59z"/><path fill="url(#f)" fill-rule="nonzero" d="M84.85 19.06h25.46v7.08H84.85z"/><path fill="url(#g)" fill-rule="nonzero" d="M93.79 1.79h10.17v10.17H93.79z"/><path fill="url(#h)" fill-rule="nonzero" d="M21.95 0h5a.32.32 0 0 1 .32.32v9.17h-5.65V.32a.32.32 0 0 1 .33-.32"/><path fill="url(#i)" fill-rule="nonzero" d="M20.14 5.56h9.19v4.28h-9.19z"/><path fill="url(#j)" fill-rule="nonzero" d="M67.05 0h5a.32.32 0 0 1 .32.32v9.17h-5.64V.32a.32.32 0 0 1 .32-.32"/><path fill="url(#k)" fill-rule="nonzero" d="M57.07 31.51h5a.32.32 0 0 1 .32.32v5.37h-5.64v-5.37a.32.32 0 0 1 .32-.32"/><path fill="url(#i)" fill-rule="nonzero" d="M65.24 5.56h9.19v4.28h-9.19z"/><path fill="url(#l)" fill-rule="nonzero" d="M95.91 11.96h5.93v34.57h-5.93z"/><circle cx="98.87" cy="22.56" r="7.56" fill="#cecece" fill-rule="nonzero"/><circle cx="98.87" cy="22.56" r="6.43" fill="#cecece" fill-rule="nonzero" stroke="#909093" stroke-width=".1"/><circle cx="98.87" cy="22.56" r="1" fill="#909093" fill-rule="nonzero"/><path stroke="#a5a5a5" stroke-width=".05" d="M92.92 22.56h1.12m4.83-5.84v1.11m4.09.71-.79.79m-7.29-.79.79.79m8.02 3.23h1.11"/><path fill="#909093" fill-rule="nonzero" d="m102.14 18.26-5.27 6.48.77.55z"/><path fill="#cecece" fill-rule="nonzero" stroke="#909093" stroke-width=".1" d="M96.15 25.9h5.45v1.21h-5.45z"/><circle cx="63.15" cy="43.29" r="1.06" fill="#88d821" fill-rule="nonzero" stroke="#9c9cb5" stroke-width=".1"/><circle cx="59.59" cy="43.29" r="1.06" fill="#88d821" fill-rule="nonzero" stroke="#9c9cb5" stroke-width=".1"/><circle cx="56.04" cy="43.29" r="1.06" fill="#ff5050" fill-rule="nonzero" stroke="#9c9cb5" stroke-width=".1"/><path fill="url(#m)" fill-rule="nonzero" d="M95.16 31.64h7.42v6.12h-7.42z"/><circle cx="60.45" cy="93.27" r="2.38" stroke="#5b5b5b" stroke-width=".1"/><path fill="url(#n)" fill-rule="nonzero" d="M59.93 77.47A15.54 15.54 0 0 0 44.7 89.94l-5.53 3.81a5.8 5.8 0 0 0 3.42 10.59l6.47-.22a15.53 15.53 0 1 0 10.87-26.65m-.27 29.1a13.12 13.12 0 0 1-12.52-9.27 3.89 3.89 0 0 1-3.9 5.17 4.12 4.12 0 1 1 3.68-5.89 13 13 0 0 1-.44-3.19 13.18 13.18 0 1 1 13.18 13.18"/><path fill="url(#o)" fill-rule="nonzero" d="M59.51 79.52a13.87 13.87 0 0 0-13.6 11.14L41 94a5.18 5.18 0 0 0 3 9.5l5.78-.19a13.87 13.87 0 1 0 9.72-23.76zm-16.27 22.81a4 4 0 1 1 0-8 4 4 0 0 1 0 8m16.42 4c-7.18 0-13-5.82-13-13s5.82-13 13-13 13 5.82 13 13a13 13 0 0 1-13 13.03z"/></g></svg>