<svg xmlns="http://www.w3.org/2000/svg" viewBox="0 0 94 151"><title>Blowing sand(扬沙)</title><defs><linearGradient id="a" x1="50.009%" x2="50.009%" y1="100.035%" y2="-.03%"><stop offset="0%" stop-color="#f4b87a"/><stop offset="100%" stop-color="#b5bdc1"/></linearGradient></defs><g fill="none" fill-rule="nonzero"><path fill="url(#a)" d="M32.642 47.14a9 9 0 0 0 2.78 6.55 27.6 27.6 0 0 0 6.84 4.91 57 57 0 0 0 8.53 3.61q4.45 1.47 8 2.78a154 154 0 0 1 15.47 6.55 50.6 50.6 0 0 1 10.82 7 22.2 22.2 0 0 1 6.14 8.52 26.7 26.7 0 0 1 1.69 10.81q-.411 16.22-12.3 26.12t-36.3 10.57a57.4 57.4 0 0 1-16.76-1.72 100 100 0 0 1-13.55-4.45 29.2 29.2 0 0 1-8.23-4.84 18.4 18.4 0 0 1-4.46-5.48 11 11 0 0 1-1.31-5.41 6.8 6.8 0 0 1 1.68-4.42 9.58 9.58 0 0 1 6.65-4 12.3 12.3 0 0 1 7.24 1.4q3 1.63 6.25 3.52a63 63 0 0 0 6.94 3.44 50 50 0 0 0 7.74 2.54 37.7 37.7 0 0 0 8.82 1 27.3 27.3 0 0 0 7.85-1.14 22.6 22.6 0 0 0 6.83-3.32 16.1 16.1 0 0 0 4.76-5.33 14.67 14.67 0 0 0 1.79-7.29 11.3 11.3 0 0 0-2.18-6.88 24 24 0 0 0-5.25-5.18 32 32 0 0 0-6.74-3.68 63 63 0 0 0-6.65-2.32q-8.32-2.45-15.57-5.32a56 56 0 0 1-12.6-6.8 31.1 31.1 0 0 1-8.56-9.29 24.9 24.9 0 0 1-3.14-12.78A24.9 24.9 0 0 1 9.732 33a32 32 0 0 1 10.21-9.91 49.5 49.5 0 0 1 14.38-5.9 63.3 63.3 0 0 1 16.37-1.8 66.6 66.6 0 0 1 17.31 2.42 49 49 0 0 1 13.19 5.74q5.2 3.45 7.09 7.45a7.1 7.1 0 0 1-.7 7.62 10 10 0 0 1-3.47 2.86 15.2 15.2 0 0 1-4.36 1.52 13.7 13.7 0 0 1-4.46.08 8.24 8.24 0 0 1-3.57-1.31 274 274 0 0 0-4.57-2.54 54 54 0 0 0-5.45-2.54 48 48 0 0 0-6.15-2 27 27 0 0 0-6.65-.82 17.5 17.5 0 0 0-6.74 1.23 17.3 17.3 0 0 0-5.06 3.11 14.5 14.5 0 0 0-3.27 4.26 10.3 10.3 0 0 0-1.19 4.67" transform="translate(.317 .642)"/><path fill="#f4f0ec" d="M64.459 24.672 46.799.642l-17.66 24.03h10.18v125.97h14.96V24.672z"/></g></svg>