<svg xmlns="http://www.w3.org/2000/svg" viewBox="0 0 151 143"><title>Cloudy（多云(白天)）</title><defs><linearGradient id="a" x1="85.324%" x2="14.706%" y1="85.312%" y2="14.637%"><stop offset="0%" stop-color="#ffa620"/><stop offset="100%" stop-color="#ffb100"/></linearGradient><linearGradient id="b" x1="85.353%" x2="14.647%" y1="85.353%" y2="14.647%"><stop offset="0%" stop-color="#ffb820"/><stop offset="100%" stop-color="#ffe600"/></linearGradient><linearGradient id="c" x1="15.184%" x2="65.82%" y1="85.111%" y2="18.882%"><stop offset="40%" stop-color="#8aafe6"/><stop offset="100%" stop-color="#ebeff5"/></linearGradient><linearGradient id="d" x1="27.224%" x2="64.212%" y1="96.919%" y2="6.205%"><stop offset="34%" stop-color="#8aafe6"/><stop offset="100%" stop-color="#cce0ff"/></linearGradient><linearGradient id="e" x1="98.74%" x2="1.26%" y1="98.399%" y2="1.562%"><stop offset="50%" stop-color="#bddcff" stop-opacity="0"/><stop offset="57%" stop-color="#bfdbf8" stop-opacity=".02"/><stop offset="66%" stop-color="#c5d7e2" stop-opacity=".07"/><stop offset="74%" stop-color="#ced0be" stop-opacity=".16"/><stop offset="83%" stop-color="#dcc78b" stop-opacity=".28"/><stop offset="92%" stop-color="#edbb4a" stop-opacity=".43"/><stop offset="100%" stop-color="#ffaf06" stop-opacity=".6"/></linearGradient><linearGradient id="f" x1="85.355%" x2="14.645%" y1="85.355%" y2="14.657%"><stop offset="50%" stop-color="#bddcff" stop-opacity="0"/><stop offset="100%" stop-color="#ffde99" stop-opacity=".6"/></linearGradient><linearGradient id="g" x1="75%" x2="24.988%" y1="93.316%" y2="6.697%"><stop offset="0%" stop-color="#8aafe6"/><stop offset="100%" stop-color="#cce0ff"/></linearGradient><linearGradient id="h" x1="85.343%" x2="14.645%" y1="85.355%" y2="14.657%"><stop offset="50%" stop-color="#bddcff" stop-opacity="0"/><stop offset="100%" stop-color="#ffde99" stop-opacity=".6"/></linearGradient></defs><g fill="none" fill-rule="nonzero" transform="translate(.319 .64)"><path fill="url(#a)" d="M57.1 5.732 53 1.622a5.53 5.53 0 0 0-8.7 1.14l-2.91 5a5.53 5.53 0 0 1-6.21 2.58l-5.62-1.47a5.53 5.53 0 0 0-7 5.33v5.8a5.52 5.52 0 0 1-4.09 5.34l-5.62 1.5a5.52 5.52 0 0 0-3.31 8.16l2.91 5a5.53 5.53 0 0 1-.88 6.67l-4.12 4.11a5.53 5.53 0 0 0 1.15 8.69l5 2.91a5.52 5.52 0 0 1 2.57 6.21l-1.47 5.62a5.52 5.52 0 0 0 5.34 7h5.82a5.51 5.51 0 0 1 5.33 4.1l1.51 5.62a5.51 5.51 0 0 0 8.09 3.35l5-2.91a5.52 5.52 0 0 1 6.67.88l4.12 4.12a5.52 5.52 0 0 0 8.68-1.15l2.91-5a5.53 5.53 0 0 1 6.22-2.57l5.62 1.5a5.52 5.52 0 0 0 7-5.33v-5.91a5.51 5.51 0 0 1 4.09-5.33l5.62-1.51a5.53 5.53 0 0 0 3.36-8.1l-2.91-5a5.52 5.52 0 0 1 .83-6.7l4.12-4.12a5.53 5.53 0 0 0-1.12-8.69l-5-2.91a5.52 5.52 0 0 1-2.58-6.21l1.51-5.62a5.52 5.52 0 0 0-5.33-6.95h-5.86a5.53 5.53 0 0 1-5.33-4.09l-1.51-5.63a5.52 5.52 0 0 0-8.09-3.35l-5 2.91a5.52 5.52 0 0 1-6.71-.88"/><circle cx="54.8" cy="49.002" r="36.15" fill="url(#b)"/><path fill="url(#c)" d="M107.79 59.912H41.18a.09.09 0 0 0-.09.1v82.07a.09.09 0 0 0 .09.1h67.68A41.14 41.14 0 0 0 150 99.642c-.77-22.35-19.86-39.73-42.21-39.73"/><path fill="url(#d)" d="M116.14 66.852c.026-21.5-16.507-39.393-37.94-41.065-21.435-1.672-40.542 13.442-43.85 34.685a42 42 0 0 0-.49 6.38c0 22.723 18.417 41.145 41.14 41.15a40 40 0 0 0 6.77-.56c-3.01 19.116-18.932 33.552-38.25 34.68 1 0 2 .07 3 .07a69.63 69.63 0 0 0 69.64-69.62c0-1.07 0-2.14-.08-3.19.03-.83.06-1.69.06-2.53"/><path fill="url(#e)" d="M82.27 101.002a41 41 0 0 1-.5 6.39c-2.235.396-4.5.6-6.77.61-22.723-.005-41.14-18.427-41.14-41.15 0-2.136.164-4.269.49-6.38a41.15 41.15 0 0 1 47.92 40.53"/><circle cx="75" cy="66.852" r="41.14" fill="url(#f)"/><circle cx="41.14" cy="101.042" r="41.14" fill="url(#g)"/><circle cx="41.14" cy="101.042" r="41.14" fill="url(#h)"/></g></svg>