<svg xmlns="http://www.w3.org/2000/svg" viewBox="0 0 118 151"><title>Floating sand(浮尘)</title><defs><linearGradient id="a" x1="49.987%" x2="49.987%" y1="99.991%" y2=".011%"><stop offset="0%" stop-color="#f4b87a"/><stop offset="100%" stop-color="#b5bdc1"/></linearGradient></defs><path fill="url(#a)" fill-rule="nonzero" d="M41.002 40.017a11.3 11.3 0 0 0 3.49 8.24 35.2 35.2 0 0 0 8.61 6.18 72 72 0 0 0 10.72 4.53 290 290 0 0 1 10.1 3.5 190 190 0 0 1 19.48 8.21 63 63 0 0 1 13.6 8.85 28.26 28.26 0 0 1 7.73 10.71 33.85 33.85 0 0 1 2.12 13.59q-.51 20.39-15.47 32.85t-45.63 13.28a72.2 72.2 0 0 1-21.08-2.16 123 123 0 0 1-17.08-5.66 37.1 37.1 0 0 1-10.35-6.12 23 23 0 0 1-5.61-6.9 13.9 13.9 0 0 1-1.63-6.75 8.6 8.6 0 0 1 2.12-5.56 12 12 0 0 1 8.35-5.05 15.5 15.5 0 0 1 9.11 1.75 667 667 0 0 1 7.85 4.43 80 80 0 0 0 8.73 4.32 62.3 62.3 0 0 0 9.73 3.2 47.3 47.3 0 0 0 11.11 1.23 34.6 34.6 0 0 0 9.86-1.44 28.6 28.6 0 0 0 8.6-4.12 20.2 20.2 0 0 0 6-6.69 18.43 18.43 0 0 0 2.25-9.17 14.15 14.15 0 0 0-2.75-8.65 29.9 29.9 0 0 0-6.6-6.48 40 40 0 0 0-8.48-4.64 81 81 0 0 0-8.36-2.88q-10.52-3.09-19.6-6.69a70 70 0 0 1-15.84-8.55 38.9 38.9 0 0 1-10.72-11.74 31.14 31.14 0 0 1-4-16.06 31.4 31.4 0 0 1 4.87-17.41 40.4 40.4 0 0 1 12.84-12.46 62.4 62.4 0 0 1 18.08-7.41 79.4 79.4 0 0 1 20.58-2.28 82.5 82.5 0 0 1 21.69 3.11 61.6 61.6 0 0 1 16.58 7.2q6.6 4.33 9 9.37a8.92 8.92 0 0 1-.87 9.58 12.7 12.7 0 0 1-4.36 3.6 19.4 19.4 0 0 1-5.49 1.86 17.1 17.1 0 0 1-5.61.1 10.2 10.2 0 0 1-4.49-1.65c-1.66-1-3.58-2-5.73-3.19a66 66 0 0 0-6.86-3.19 61 61 0 0 0-7.73-2.47 34.2 34.2 0 0 0-8.36-1 21.7 21.7 0 0 0-14.84 5.46 18.3 18.3 0 0 0-4.11 5.35 13 13 0 0 0-1.55 5.87" transform="translate(.317 .626)"/></svg>