<svg xmlns="http://www.w3.org/2000/svg" viewBox="0 0 98 151"><title>Hail（冰雹）</title><defs><linearGradient id="a" x1="69.171%" x2="40.722%" y1="101.467%" y2="25.093%"><stop offset="0%" stop-color="#d3e7eb"/><stop offset="100%" stop-color="#e9f8fa"/></linearGradient><linearGradient id="b" x1="40.722%" x2="69.171%" y1="74.907%" y2="-1.467%"><stop offset="0%" stop-color="#dae9eb"/><stop offset="80%" stop-color="#9bc5cc"/></linearGradient><linearGradient id="c" x1="30.829%" x2="59.272%" y1="101.467%" y2="25.093%"><stop offset="0%" stop-color="#c5d8db"/><stop offset="100%" stop-color="#e9f8fa"/></linearGradient><linearGradient id="d" x1="30.829%" x2="59.284%" y1="-1.467%" y2="74.907%"><stop offset="20%" stop-color="#87acb2"/><stop offset="100%" stop-color="#dae9eb"/></linearGradient></defs><g fill="none" fill-rule="nonzero"><path fill="url(#a)" d="M48.39 0v75H0L40.75 4.4A8.75 8.75 0 0 1 48.39 0" transform="translate(.319 .642)"/><path fill="url(#b)" d="M48.39 75v75a8.75 8.75 0 0 1-7.64-4.4L0 75z" transform="translate(.319 .642)"/><path fill="url(#c)" d="M96.77 75H48.39V0A8.75 8.75 0 0 1 56 4.4z" transform="translate(.319 .642)"/><path fill="url(#d)" d="M96.77 75 56 145.6a8.75 8.75 0 0 1-7.63 4.4V75z" transform="translate(.319 .642)"/></g></svg>