<svg xmlns="http://www.w3.org/2000/svg" viewBox="0 0 109 151"><title>Hurricane（15级风）</title><defs><linearGradient id="a" x1=".371%" x2="99.629%" y1="50.025%" y2="50.025%"><stop offset="20%" stop-color="#90bdcf"/><stop offset="100%" stop-color="#e6f0f7"/></linearGradient><linearGradient id="b" x1="-661.539%" x2="-661.539%" y1="-1001.134%" y2="-1101.575%"><stop offset="20%" stop-color="#90bdcf"/><stop offset="100%" stop-color="#e6f0f7"/></linearGradient><linearGradient id="c" x1="43.741%" x2="57.092%" y1="86.837%" y2="8.542%"><stop offset="0%" stop-color="#90bdcf"/><stop offset="100%" stop-color="#e6f0f7"/></linearGradient><linearGradient id="d" x1="34.395%" x2="67.021%" y1="92.781%" y2="1.591%"><stop offset="0%" stop-color="#90bdcf"/><stop offset="100%" stop-color="#e6f0f7"/></linearGradient></defs><g fill="none" fill-rule="nonzero"><path fill="#90bdcf" d="M10.479 150.642c-5.612 0-10.16-4.55-10.16-10.16V10.802a10.16 10.16 0 1 1 20.31 0v129.68c0 5.607-4.543 10.154-10.15 10.16"/><path fill="url(#a)" d="M75.319 20.629h-64.84a10.16 10.16 0 1 1 0-20.31h64.84a10.16 10.16 0 1 1 0 20.31" transform="translate(0 .323)"/><path fill="url(#b)" d="M10.479 85.479a10.16 10.16 0 0 1-7.16-17.34l64.82-64.82a10.16 10.16 0 0 1 14.36 14.34l-64.84 64.84a10.15 10.15 0 0 1-7.18 2.98" transform="translate(0 .323)"/><path fill="url(#c)" d="M53.989 144.499q0 4-6.4 4t-6.4-4v-54.83h-5a2.79 2.79 0 0 1-2.64-1.22c-.48-.82-.72-2.51-.72-5.08s.33-4.13 1-5.08a3.36 3.36 0 0 1 3-1.42h10.15q7 0 7 5.28z" transform="translate(0 .323)"/><path fill="url(#d)" d="M80.489 101.749c.82-.14 1.58-.24 2.29-.31s1.91-.1 3.6-.1a25.6 25.6 0 0 1 9.35 1.63 19.8 19.8 0 0 1 7.11 4.67 20.9 20.9 0 0 1 4.52 7.31 27.7 27.7 0 0 1 1.57 9.55 23.9 23.9 0 0 1-1.78 9.14 24.4 24.4 0 0 1-5 7.72 23.7 23.7 0 0 1-7.57 5.28 22.3 22.3 0 0 1-9.55 1.82 26.3 26.3 0 0 1-10.36-1.82 22.14 22.14 0 0 1-8.12-6.5 5.85 5.85 0 0 1-2-3.91q-.15-2.19 2.18-5.44a4 4 0 0 1 2.49-1.47c1.08-.23 2.2.26 3.35 1.47a18.7 18.7 0 0 0 5.89 4.27 14.7 14.7 0 0 0 6.1 1.62 9.67 9.67 0 0 0 4.87-1.21 12.6 12.6 0 0 0 3.61-3.1 14.2 14.2 0 0 0 2.28-4.05c.49-1.354.747-2.78.76-4.22 0-3.45-.9-6.18-2.69-8.17s-4.55-3-8.28-3c-1.62 0-3 0-4.21.1a27 27 0 0 0-3.2.36 12.3 12.3 0 0 0-2.54.71 13.2 13.2 0 0 0-2.38 1.22 3.5 3.5 0 0 1-1.93.61 3.22 3.22 0 0 1-1.88-.61 3.76 3.76 0 0 1-1.32-1.83 5.9 5.9 0 0 1-.16-3l4.17-28.17a9.1 9.1 0 0 1 1.57-4.21c.71-.85 2-1.27 4-1.27h26.51q3.15 0 3.15 5.89t-3.15 5.89h-21.32z" transform="translate(0 .323)"/></g></svg>