<svg xmlns="http://www.w3.org/2000/svg" viewBox="0 0 110 151"><title>Hurricane（12级风）</title><defs><linearGradient id="a" x1=".371%" x2="99.629%" y1="50.025%" y2="50.025%"><stop offset="20%" stop-color="#90bdcf"/><stop offset="100%" stop-color="#e6f0f7"/></linearGradient><linearGradient id="b" x1="46.871%" x2="46.871%" y1="-292.87%" y2="-393.311%"><stop offset="20%" stop-color="#90bdcf"/><stop offset="100%" stop-color="#e6f0f7"/></linearGradient><linearGradient id="c" x1="43.742%" x2="57.086%" y1="86.837%" y2="8.542%"><stop offset="0%" stop-color="#90bdcf"/><stop offset="100%" stop-color="#e6f0f7"/></linearGradient><linearGradient id="d" x1="35.117%" x2="67.917%" y1="101.35%" y2="9.95%"><stop offset="0%" stop-color="#90bdcf"/><stop offset="100%" stop-color="#e6f0f7"/></linearGradient></defs><g fill="none" fill-rule="nonzero"><path fill="#90bdcf" d="M10.479 150.642c-5.612 0-10.16-4.55-10.16-10.16V10.802a10.16 10.16 0 1 1 20.31 0v129.68c0 5.607-4.543 10.154-10.15 10.16"/><path fill="url(#a)" d="M75.319 20.629h-64.84a10.16 10.16 0 1 1 0-20.31h64.84a10.16 10.16 0 1 1 0 20.31" transform="translate(0 .323)"/><path fill="url(#b)" d="M10.479 85.479a10.16 10.16 0 0 1-7.16-17.34l64.82-64.82a10.16 10.16 0 0 1 14.36 14.34l-64.84 64.84a10.17 10.17 0 0 1-7.18 2.98" transform="translate(0 .323)"/><path fill="url(#c)" d="M53.989 144.499q0 4-6.4 4c-4.26 0-6.4-1.32-6.4-4v-54.83h-5a2.79 2.79 0 0 1-2.64-1.22c-.48-.82-.71-2.51-.71-5.08s.32-4.13 1-5.08a3.36 3.36 0 0 1 3-1.42h10.14q7 0 7 5.28z" transform="translate(0 .323)"/><path fill="url(#d)" d="M109.949 141.559c0 3.93-1.16 5.89-3.46 5.89h-37.17c-1.08 0-2-.8-2.89-2.39a10.4 10.4 0 0 1-1.11-5.63 17 17 0 0 1 .56-3.3 9.7 9.7 0 0 1 1.58-3.2 19.3 19.3 0 0 1 3-3 1645 1645 0 0 0 5.54-4.87c2.09-1.87 4.31-4 6.65-6.3a73 73 0 0 0 6.4-7.31 47 47 0 0 0 4.82-7.77 18 18 0 0 0 1.93-7.92 8.66 8.66 0 0 0-2.13-6.09 7.32 7.32 0 0 0-5.66-2.35 7 7 0 0 0-5.94 2.64c-1.32 1.76-2 4.26-2 7.52 0 2.16-.46 3.7-1.37 4.62s-2.53 1.37-4.83 1.37q-4.161 0-5.58-1.22c-.95-.82-1.42-2.4-1.42-4.77q0-10.15 5.48-16t16.86-5.89q9.54 0 14.72 5.38 5.18 5.379 5.18 14.22a22 22 0 0 1-1.22 7.16 41.4 41.4 0 0 1-3.19 7.11 58.5 58.5 0 0 1-4.52 6.8c-1.7 2.2-3.42 4.28-5.18 6.25q-3.15 3.45-6.65 6.75t-7.37 6.45h25.49c2.32-.04 3.48 1.92 3.48 5.85" transform="translate(0 .323)"/></g></svg>