<svg xmlns="http://www.w3.org/2000/svg" viewBox="0 0 109 151"><title>Hurricane（16级风）</title><defs><linearGradient id="a" x1=".371%" x2="99.629%" y1="50.025%" y2="50.025%"><stop offset="20%" stop-color="#90bdcf"/><stop offset="100%" stop-color="#e6f0f7"/></linearGradient><linearGradient id="b" x1="-897.593%" x2="-897.593%" y1="-1237.139%" y2="-1337.58%"><stop offset="20%" stop-color="#90bdcf"/><stop offset="100%" stop-color="#e6f0f7"/></linearGradient><linearGradient id="c" x1="43.742%" x2="57.086%" y1="86.837%" y2="8.542%"><stop offset="0%" stop-color="#90bdcf"/><stop offset="100%" stop-color="#e6f0f7"/></linearGradient><linearGradient id="d" x1="38.381%" x2="67.829%" y1="94.165%" y2="11.042%"><stop offset="0%" stop-color="#90bdcf"/><stop offset="100%" stop-color="#e6f0f7"/></linearGradient></defs><g fill="none" fill-rule="nonzero"><path fill="#90bdcf" d="M10.479 150.642c-5.612 0-10.16-4.55-10.16-10.16V10.802a10.16 10.16 0 1 1 20.31 0v129.68c0 5.607-4.543 10.154-10.15 10.16"/><path fill="url(#a)" d="M75.319 20.629h-64.84a10.16 10.16 0 1 1 0-20.31h64.84a10.16 10.16 0 1 1 0 20.31" transform="translate(0 .323)"/><path fill="url(#b)" d="M10.479 85.479a10.16 10.16 0 0 1-7.16-17.34l64.82-64.82a10.16 10.16 0 0 1 14.36 14.34l-64.84 64.84a10.15 10.15 0 0 1-7.18 2.98" transform="translate(0 .323)"/><path fill="url(#c)" d="M53.989 144.499q0 4-6.4 4c-4.26 0-6.4-1.32-6.4-4v-54.83h-5a2.79 2.79 0 0 1-2.64-1.22c-.48-.82-.71-2.51-.71-5.08s.32-4.13 1-5.08a3.36 3.36 0 0 1 3-1.42h10.14q7 0 7 5.28z" transform="translate(0 .323)"/><path fill="url(#d)" d="M83.029 100.839a7 7 0 0 1 1.83-.61 10 10 0 0 1 1.46-.11 24 24 0 0 1 9.45 1.78 20.1 20.1 0 0 1 7.06 5 21.6 21.6 0 0 1 4.41 7.67 29.9 29.9 0 0 1 1.53 9.74 26.2 26.2 0 0 1-1.53 8.79 24.1 24.1 0 0 1-4.41 7.72 22.7 22.7 0 0 1-7.15 5.5 20.8 20.8 0 0 1-9.5 2.13 21.6 21.6 0 0 1-9.49-2 20.2 20.2 0 0 1-6.91-5.33 23.7 23.7 0 0 1-4.26-7.72 28.2 28.2 0 0 1-1.48-9.08c.01-3.496.386-6.982 1.12-10.4a64.7 64.7 0 0 1 3.16-10.55 62.5 62.5 0 0 1 4.92-9.9 56 56 0 0 1 6.55-8.68 57 57 0 0 1 7.62-7.06q3-2.18 4.67-2.18a5.6 5.6 0 0 1 2.79.71 7.4 7.4 0 0 1 2.19 1.83 5.73 5.73 0 0 1 1.37 3.5 4 4 0 0 1-1.78 3.3 50 50 0 0 0-7.33 6.43 41.8 41.8 0 0 0-6.29 9.52m3.15 36.25a8.25 8.25 0 0 0 4.32-1.12 10.9 10.9 0 0 0 3.2-2.89 13.6 13.6 0 0 0 2-4.06 16 16 0 0 0 .71-4.73q0-6.18-2.64-9.49a9.08 9.08 0 0 0-7.52-3.3 8.77 8.77 0 0 0-7.41 3.3q-2.52 3.3-2.52 9.52c-.004 1.6.218 3.192.66 4.73a13.1 13.1 0 0 0 1.93 4.06 10.5 10.5 0 0 0 3.1 2.89 7.76 7.76 0 0 0 4.17 1.09" transform="translate(0 .323)"/></g></svg>