<svg xmlns="http://www.w3.org/2000/svg" viewBox="0 0 151 140"><title>Moderate Rain（中雨）</title><defs><linearGradient id="a" x1="15.184%" x2="65.82%" y1="85.119%" y2="18.881%"><stop offset="40%" stop-color="#788e99"/><stop offset="100%" stop-color="#f5f9ff"/></linearGradient><linearGradient id="b" x1="27.216%" x2="64.217%" y1="96.927%" y2="6.206%"><stop offset="34%" stop-color="#788e99"/><stop offset="100%" stop-color="#ebf2f5"/></linearGradient><linearGradient id="c" x1="98.74%" x2="1.26%" y1="98.398%" y2="1.58%"><stop offset="50%" stop-color="#bddcff" stop-opacity="0"/><stop offset="57%" stop-color="#bfdbf8" stop-opacity=".02"/><stop offset="66%" stop-color="#c5d7e2" stop-opacity=".07"/><stop offset="74%" stop-color="#ced0be" stop-opacity=".16"/><stop offset="83%" stop-color="#dcc78b" stop-opacity=".28"/><stop offset="92%" stop-color="#edbb4a" stop-opacity=".43"/><stop offset="100%" stop-color="#ffaf06" stop-opacity=".6"/></linearGradient><linearGradient id="d" x1="75%" x2="24.988%" y1="93.303%" y2="6.697%"><stop offset="0%" stop-color="#788e99"/><stop offset="100%" stop-color="#f5f9ff"/></linearGradient><linearGradient id="e" x1=".468%" x2="88.482%" y1="100.102%" y2="12.397%"><stop offset="0%" stop-color="#788e99"/><stop offset="100%" stop-color="#f5f9ff"/></linearGradient><linearGradient id="f" x1=".392%" x2="88.473%" y1="100.172%" y2="12.339%"><stop offset="0%" stop-color="#788e99"/><stop offset="100%" stop-color="#f5f9ff"/></linearGradient></defs><g fill="none" fill-rule="nonzero" transform="translate(.319 .591)"><path fill="url(#a)" d="M107.79 34.241H41.18a.1.1 0 0 0-.09.1v82.08a.1.1 0 0 0 .09.1h67.68A41.15 41.15 0 0 0 150 73.971c-.77-22.34-19.86-39.73-42.21-39.73"/><path fill="url(#b)" d="M116.14 41.191C116.166 19.692 99.633 1.798 78.2.126 56.764-1.546 37.657 13.568 34.35 34.811a42 42 0 0 0-.49 6.38 41.14 41.14 0 0 0 47.91 40.58c-3.01 19.116-18.932 33.552-38.25 34.68 1 0 2 .06 3 .06a69.62 69.62 0 0 0 69.64-69.62c0-1.06 0-2.13-.08-3.18.03-.83.06-1.66.06-2.52"/><path fill="url(#c)" d="M82.27 75.371a41 41 0 0 1-.5 6.4 41.14 41.14 0 0 1-47.91-40.58c0-2.136.164-4.269.49-6.38a40 40 0 0 1 6.78-.56 41.13 41.13 0 0 1 41.14 41.12"/><circle cx="41.14" cy="75.381" r="41.14" fill="url(#d)"/><path fill="url(#e)" d="M68.9 130.641a5.64 5.64 0 0 0-6-6c-7.87 0-8.24 14.19-8.24 14.19s14.24-.2 14.24-8.19"/><path fill="url(#f)" d="M95.29 130.641a5.65 5.65 0 0 0-6-6c-7.86 0-8.23 14.19-8.23 14.19s14.23-.2 14.23-8.19"/></g></svg>