<svg xmlns="http://www.w3.org/2000/svg" viewBox="0 0 86 151"><title>Moderate breeze（4级风）</title><defs><linearGradient id="a" x1=".374%" x2="100.363%" y1="49.975%" y2="49.975%"><stop offset="20%" stop-color="#90bdcf"/><stop offset="100%" stop-color="#e6f0f7"/></linearGradient><linearGradient id="b" x1="66.931%" x2="66.931%" y1="385.063%" y2="-33.981%"><stop offset="20%" stop-color="#90bdcf"/><stop offset="100%" stop-color="#e6f0f7"/></linearGradient><linearGradient id="c" x1="143.07%" x2="143.07%" y1="65.969%" y2="-353.075%"><stop offset="20%" stop-color="#90bdcf"/><stop offset="100%" stop-color="#e6f0f7"/></linearGradient></defs><g fill="none" fill-rule="nonzero"><path fill="#90bdcf" d="M10.479 150.642c-5.612 0-10.16-4.55-10.16-10.16V10.802a10.16 10.16 0 1 1 20.31 0v129.68c0 5.607-4.543 10.154-10.15 10.16"/><path fill="url(#a)" d="M75.319 20.629h-64.84a10.16 10.16 0 1 1 0-20.31h64.84a10.16 10.16 0 0 1 0 20.31" transform="translate(0 .323)"/><path fill="url(#b)" d="M75.319 85.479h-64.84a10.16 10.16 0 1 1 0-20.31h64.84a10.16 10.16 0 0 1 0 20.31" transform="translate(0 .323)"/><path fill="url(#c)" d="M75.319 150.319h-64.84a10.16 10.16 0 1 1 0-20.31h64.84a10.16 10.16 0 0 1 0 20.31" transform="translate(0 .323)"/></g></svg>