<svg xmlns="http://www.w3.org/2000/svg" viewBox="0 0 104 151"><title>Storm（10级风）</title><defs><linearGradient id="a" x1=".371%" x2="99.617%" y1="49.975%" y2="49.975%"><stop offset="20%" stop-color="#90bdcf"/><stop offset="100%" stop-color="#e6f0f7"/></linearGradient><linearGradient id="b" x1="-1376.107%" x2="-1376.107%" y1="-1236.078%" y2="-1336.507%"><stop offset="20%" stop-color="#90bdcf"/><stop offset="100%" stop-color="#e6f0f7"/></linearGradient><linearGradient id="c" x1="43.743%" x2="57.076%" y1="86.892%" y2="8.594%"><stop offset="0%" stop-color="#90bdcf"/><stop offset="100%" stop-color="#e6f0f7"/></linearGradient><linearGradient id="d" x1="33.84%" x2="66.023%" y1="91.051%" y2="8.721%"><stop offset="0%" stop-color="#90bdcf"/><stop offset="100%" stop-color="#e6f0f7"/></linearGradient></defs><g fill="none" fill-rule="nonzero"><path fill="#90bdcf" d="M10.479 150.642c-5.612 0-10.16-4.55-10.16-10.16V10.802a10.16 10.16 0 1 1 20.31 0v129.68c0 5.607-4.543 10.154-10.15 10.16"/><path fill="url(#a)" d="M75.319 20.629h-64.84a10.16 10.16 0 1 1 0-20.31h64.84a10.16 10.16 0 1 1 0 20.31" transform="translate(0 .323)"/><path fill="url(#b)" d="M10.479 85.479a10.16 10.16 0 0 1-7.16-17.34l64.82-64.82a10.16 10.16 0 0 1 14.36 14.34l-64.84 64.84a10.15 10.15 0 0 1-7.18 2.98" transform="translate(0 .323)"/><path fill="url(#c)" d="M47.559 144.599q0 3.76-6.08 3.76t-6.08-3.76v-52.1h-4.72a2.64 2.64 0 0 1-2.51-1.18c-.45-.77-.68-2.37-.68-4.82s.31-3.92.92-4.82a3.2 3.2 0 0 1 2.85-1.36h9.64q6.66 0 6.66 5z" transform="translate(0 .323)"/><path fill="url(#d)" d="M80.559 79.089a19.8 19.8 0 0 1 10.85 2.85 22.1 22.1 0 0 1 7.28 7.62 35.4 35.4 0 0 1 4.06 11.05 67.7 67.7 0 0 1 1.25 13.21 58.3 58.3 0 0 1-1.45 13.22 36.6 36.6 0 0 1-4.34 11 22.9 22.9 0 0 1-7.33 7.53 19.16 19.16 0 0 1-10.42 2.75 19 19 0 0 1-10.37-2.75 22.6 22.6 0 0 1-7.29-7.43 35 35 0 0 1-4.29-10.82 60 60 0 0 1-1.4-13.17 67 67 0 0 1 1.3-13.31 37.2 37.2 0 0 1 4.1-11.19 22 22 0 0 1 7.29-7.67 19.63 19.63 0 0 1 10.76-2.89m0 57.12a7.5 7.5 0 0 0 5.25-2 14.06 14.06 0 0 0 3.51-5.14 30.5 30.5 0 0 0 1.88-7.14 56 56 0 0 0 .58-8 64 64 0 0 0-.58-8.44 34.3 34.3 0 0 0-1.93-7.77 16.6 16.6 0 0 0-3.47-5.64 7.34 7.34 0 0 0-10.42 0 16.5 16.5 0 0 0-3.48 5.64 35.3 35.3 0 0 0-2 7.77 59 59 0 0 0-.63 8.63 56 56 0 0 0 .58 8.06 27 27 0 0 0 1.93 7.09 14.5 14.5 0 0 0 3.47 5 7.56 7.56 0 0 0 5.31 1.94" transform="translate(0 .323)"/></g></svg>