<svg xmlns="http://www.w3.org/2000/svg" viewBox="0 0 86 151"><title>Strong breeze(6级风)</title><defs><linearGradient id="a" x1=".374%" x2="100.363%" y1="49.975%" y2="49.975%"><stop offset="20%" stop-color="#90bdcf"/><stop offset="100%" stop-color="#e6f0f7"/></linearGradient><linearGradient id="b" x1="-428.16%" x2="-428.16%" y1="-1477.039%" y2="-1896.084%"><stop offset="20%" stop-color="#90bdcf"/><stop offset="100%" stop-color="#e6f0f7"/></linearGradient><linearGradient id="c" x1="-377.397%" x2="-377.397%" y1="-1689.785%" y2="-2108.829%"><stop offset="20%" stop-color="#90bdcf"/><stop offset="100%" stop-color="#e6f0f7"/></linearGradient></defs><g fill="none" fill-rule="nonzero"><path fill="#90bdcf" d="M10.479 150.642c-5.612 0-10.16-4.55-10.16-10.16V10.802a10.16 10.16 0 1 1 20.31 0v129.68c0 5.607-4.543 10.154-10.15 10.16"/><path fill="url(#a)" d="M75.319 20.629h-64.84a10.16 10.16 0 1 1 0-20.31h64.84a10.16 10.16 0 0 1 0 20.31" transform="translate(0 .323)"/><path fill="url(#b)" d="M75.319 63.859h-64.84a10.16 10.16 0 1 1 0-20.31h64.84a10.16 10.16 0 0 1 0 20.31" transform="translate(0 .323)"/><path fill="url(#c)" d="M75.319 107.089h-64.84a10.16 10.16 0 1 1 0-20.31h64.84a10.16 10.16 0 0 1 0 20.31" transform="translate(0 .323)"/></g></svg>