<svg xmlns="http://www.w3.org/2000/svg" viewBox="0 0 86 151"><title>Strong Gale（9级风）</title><defs><linearGradient id="a" x1=".371%" x2="99.617%" y1="49.975%" y2="49.975%"><stop offset="20%" stop-color="#90bdcf"/><stop offset="100%" stop-color="#e6f0f7"/></linearGradient><linearGradient id="b" x1="-1151.095%" x2="-1151.095%" y1="-1011.112%" y2="-1111.541%"><stop offset="20%" stop-color="#90bdcf"/><stop offset="100%" stop-color="#e6f0f7"/></linearGradient><linearGradient id="c" x1="32.163%" x2="61.571%" y1="89.036%" y2="5.915%"><stop offset="0%" stop-color="#90bdcf"/><stop offset="100%" stop-color="#e6f0f7"/></linearGradient></defs><g fill="none" fill-rule="nonzero"><path fill="#90bdcf" d="M10.479 150.642c-5.612 0-10.16-4.55-10.16-10.16V10.802a10.16 10.16 0 1 1 20.31 0v129.68c0 5.607-4.543 10.154-10.15 10.16"/><path fill="url(#a)" d="M75.319 20.629h-64.84a10.16 10.16 0 1 1 0-20.31h64.84a10.16 10.16 0 1 1 0 20.31" transform="translate(0 .323)"/><path fill="url(#b)" d="M10.479 85.479a10.16 10.16 0 0 1-7.16-17.34l64.82-64.82a10.16 10.16 0 0 1 14.36 14.34l-64.84 64.84a10.15 10.15 0 0 1-7.18 2.98" transform="translate(0 .323)"/><path fill="url(#c)" d="M50.159 124.319a7 7 0 0 1-1.73.58 10 10 0 0 1-1.35.09 22.7 22.7 0 0 1-9-1.68 18.9 18.9 0 0 1-6.71-4.73 20.9 20.9 0 0 1-4.2-7.24 28.5 28.5 0 0 1-1.44-9.31 25.1 25.1 0 0 1 1.44-8.29 23 23 0 0 1 4.2-7.38 21.5 21.5 0 0 1 6.71-5.26 19.6 19.6 0 0 1 9.06-2 20.3 20.3 0 0 1 9 1.93 19.8 19.8 0 0 1 6.61 5.12 22.8 22.8 0 0 1 4 7.33 26.7 26.7 0 0 1 1.4 8.58 49.6 49.6 0 0 1-1.6 12.35 59.2 59.2 0 0 1-4.53 12.11 62.4 62.4 0 0 1-7 10.95 52.5 52.5 0 0 1-9 8.88 9.35 9.35 0 0 1-4.7 1.97 5.64 5.64 0 0 1-4.15-2 6.44 6.44 0 0 1-1.59-3.52 3.4 3.4 0 0 1 1.69-3.33 47.7 47.7 0 0 0 6.91-6.15 39.3 39.3 0 0 0 5.98-9m-3-34.44a7.85 7.85 0 0 0-4.1 1.06 10.2 10.2 0 0 0-3 2.75 12.7 12.7 0 0 0-1.93 3.86 15 15 0 0 0-.68 4.48c0 3.93.84 6.93 2.51 9a8.61 8.61 0 0 0 7.14 3.14 8.35 8.35 0 0 0 7-3.14c1.61-2.09 2.41-5.09 2.41-9a16.4 16.4 0 0 0-.62-4.48 12.5 12.5 0 0 0-1.84-3.86 9.9 9.9 0 0 0-2.94-2.75 7.43 7.43 0 0 0-3.94-1.04z" transform="translate(0 .323)"/></g></svg>