<svg xmlns="http://www.w3.org/2000/svg" viewBox="0 0 141 151"><title>Thunder  shower(雷阵雨)</title><defs><linearGradient id="a" x1="15.189%" x2="65.827%" y1="85.095%" y2="18.839%"><stop offset="40%" stop-color="#55616c"/><stop offset="100%" stop-color="#c8d5e3"/></linearGradient><linearGradient id="b" x1="15.189%" x2="65.827%" y1="85.095%" y2="18.839%"><stop offset="0%" stop-color="#ffde99" stop-opacity=".6"/><stop offset="8%" stop-color="#eedaab" stop-opacity=".43"/><stop offset="17%" stop-color="#ded5bd" stop-opacity=".28"/><stop offset="26%" stop-color="#d1d2ca" stop-opacity=".16"/><stop offset="34%" stop-color="#c8d0d4" stop-opacity=".07"/><stop offset="43%" stop-color="#c3ceda" stop-opacity=".02"/><stop offset="50%" stop-color="#c1cedc" stop-opacity="0"/></linearGradient><linearGradient id="c" x1="27.238%" x2="64.211%" y1="96.924%" y2="6.227%"><stop offset="34%" stop-color="#55616c"/><stop offset="100%" stop-color="#c8d5e3"/></linearGradient><linearGradient id="d" x1="50%" x2="50%" y1="100%" y2=".066%"><stop offset="0%" stop-color="#ffde99" stop-opacity=".6"/><stop offset="8%" stop-color="#eedaab" stop-opacity=".43"/><stop offset="17%" stop-color="#ded5bd" stop-opacity=".28"/><stop offset="26%" stop-color="#d1d2ca" stop-opacity=".16"/><stop offset="34%" stop-color="#c8d0d4" stop-opacity=".07"/><stop offset="43%" stop-color="#c3ceda" stop-opacity=".02"/><stop offset="50%" stop-color="#c1cedc" stop-opacity="0"/></linearGradient><linearGradient id="e" x1="98.718%" x2="1.282%" y1="98.293%" y2="1.56%"><stop offset="50%" stop-color="#bddcff" stop-opacity="0"/><stop offset="57%" stop-color="#bfdbf8" stop-opacity=".02"/><stop offset="66%" stop-color="#c5d7e2" stop-opacity=".07"/><stop offset="74%" stop-color="#ced0be" stop-opacity=".16"/><stop offset="83%" stop-color="#dcc78b" stop-opacity=".28"/><stop offset="92%" stop-color="#edbb4a" stop-opacity=".43"/><stop offset="100%" stop-color="#ffaf06" stop-opacity=".6"/></linearGradient><linearGradient id="f" x1="75.013%" x2="25%" y1="93.314%" y2="6.686%"><stop offset="0%" stop-color="#55616c"/><stop offset="100%" stop-color="#c8d5e3"/></linearGradient><linearGradient id="g" x1="85.367%" x2="14.646%" y1="85.354%" y2="14.633%"><stop offset="0%" stop-color="#ffde99" stop-opacity=".6"/><stop offset="8%" stop-color="#eedaab" stop-opacity=".43"/><stop offset="17%" stop-color="#ded5bd" stop-opacity=".28"/><stop offset="26%" stop-color="#d1d2ca" stop-opacity=".16"/><stop offset="34%" stop-color="#c8d0d4" stop-opacity=".07"/><stop offset="43%" stop-color="#c3ceda" stop-opacity=".02"/><stop offset="50%" stop-color="#c1cedc" stop-opacity="0"/></linearGradient><linearGradient id="h" x1=".108%" x2="88.455%" y1="100.07%" y2="11.723%"><stop offset="0%" stop-color="#788e99"/><stop offset="100%" stop-color="#f5f9ff"/></linearGradient><linearGradient id="i" x1="35.311%" x2="66.146%" y1="95.517%" y2="1.376%"><stop offset="0%" stop-color="#ffd470"/><stop offset="100%" stop-color="#ffa620"/></linearGradient></defs><g fill="none" fill-rule="nonzero" transform="translate(.319 .57)"><path fill="url(#a)" d="M100.73 32.072H38.49a.1.1 0 0 0-.09.1v76.7c0 .05.04.09.09.09h63.25a38.443 38.443 0 0 0 38.42-39.76c-.7-20.93-18.54-37.13-39.43-37.13"/><path fill="url(#b)" d="M100.73 32.072H38.49a.1.1 0 0 0-.09.1v76.7c0 .05.04.09.09.09h63.25a38.443 38.443 0 0 0 38.42-39.76c-.7-20.93-18.54-37.13-39.43-37.13"/><path fill="url(#c)" d="M108.54 38.522C108.577 18.427 93.133 1.692 73.1.12c-20.035-1.573-37.901 12.547-41 32.402a40.4 40.4 0 0 0-.46 6c.006 21.232 17.219 38.44 38.45 38.44a37.6 37.6 0 0 0 6.32-.52c-2.81 17.864-17.688 31.355-35.74 32.41.92 0 1.86.06 2.79.06a65.07 65.07 0 0 0 65.08-65.07c0-1 0-2-.08-3 .05-.77.08-1.54.08-2.32"/><path fill="url(#d)" d="M108.54 38.522C108.577 18.427 93.133 1.692 73.1.12c-20.035-1.573-37.901 12.547-41 32.402a40.4 40.4 0 0 0-.46 6c.006 21.232 17.219 38.44 38.45 38.44a37.6 37.6 0 0 0 6.32-.52c-2.81 17.864-17.688 31.355-35.74 32.41.92 0 1.86.06 2.79.06a65.07 65.07 0 0 0 65.08-65.07c0-1 0-2-.08-3 .05-.77.08-1.54.08-2.32"/><path fill="url(#e)" d="M76.89 70.462a37 37 0 0 1-.48 6 37.6 37.6 0 0 1-6.32.52 38.45 38.45 0 0 1-38.45-38.46 40.4 40.4 0 0 1 .46-6 38 38 0 0 1 6.34-.45c21.212 0 38.417 17.178 38.45 38.39"/><circle cx="38.44" cy="70.472" r="38.44" fill="url(#f)"/><circle cx="38.44" cy="70.472" r="38.44" fill="url(#g)"/><path fill="url(#h)" d="M99.14 126.012a6.23 6.23 0 0 0-6.56-6.56c-8.66 0-9.07 15.63-9.07 15.63s15.63-.28 15.63-9.07"/><path fill="url(#i)" d="M79.61 122.812h-8.9l9.66-26.48a1.12 1.12 0 0 0-1.8-1.26l-28.79 25.77a1.13 1.13 0 0 0 .75 2h13.1l-9.41 25.74a1.12 1.12 0 0 0 1.86 1.17l24.33-25a1.12 1.12 0 0 0-.8-1.94"/></g></svg>