<svg xmlns="http://www.w3.org/2000/svg" viewBox="0 0 98 151"><title>Typhoon（台风）</title><defs><linearGradient id="a" x1="0%" x2="100.02%" y1="49.99%" y2="49.99%"><stop offset="0%" stop-color="#e6f0f7"/><stop offset="100%" stop-color="#90bdcf"/></linearGradient></defs><path fill="url(#a)" fill-rule="nonzero" d="M97.16 73.98v-1.1a35 35 0 0 0-.6-4.8c-.2-1-.44-2-.73-3.07-.19-.67-.4-1.33-.63-2a35.6 35.6 0 0 0-3.07-6.63 44 44 0 0 0-15-15.2c-.07-.06-.14-.08-.22-.14-.41-.24-.83-.48-1.23-.76a23.12 23.12 0 0 1-9.5-12 19 19 0 0 1-.57-2.11 19 19 0 0 1-.42-4 11 11 0 0 1 .16-1.8 12.9 12.9 0 0 1 1.58-4.19c2.33-4.05 6.61-7.67 10.74-10.51a.7.7 0 0 0 .21-.13l.12-.15.1-.07a.7.7 0 0 0 .12-.12 2.9 2.9 0 0 0 1-2.2 3 3 0 0 0-3-3H76l-.47.06c-23 2.84-43.05 13.26-56.74 28.2a64 64 0 0 0-3.56 4.18 72.3 72.3 0 0 0-7.37 11.28c-.19.36-.38.73-.56 1.1-.34.63-.65 1.26-.92 1.9s-.59 1.26-.87 1.86a.2.2 0 0 0 0 .06c-.37.82-.71 1.66-1 2.49-.19.53-.4 1.06-.59 1.59-.62 1.59-1.12 3.26-1.56 4.83-.15.55-.29 1.09-.43 1.64s-.26 1.1-.38 1.66-.19.84-.26 1.26c-.23 1.13-.43 2.26-.59 3.4-.06.34-.1.68-.13 1s-.1.71-.13 1.06a38 38 0 0 0-.18 1.71c-.1 1.15-.16 2.3-.2 3.46C0 73.47 0 74.17 0 74.91v2.24a36 36 0 0 0 .6 4.76c.21 1 .44 2 .74 3.07.19.67.39 1.33.63 2H2a35.5 35.5 0 0 0 3.1 6.63 44.2 44.2 0 0 0 15.05 15.2c.08.06.15.08.22.14.41.24.84.48 1.23.76a23.07 23.07 0 0 1 9.5 12q.36 1.035.57 2.11a19.6 19.6 0 0 1 .43 4.07 10.4 10.4 0 0 1-.16 1.76 12.9 12.9 0 0 1-1.59 4.19c-2.33 4-6.61 7.67-10.74 10.51a.7.7 0 0 0-.2.13l-.18.12-.1.07a.5.5 0 0 0-.12.12 2.87 2.87 0 0 0-1 2.2 3 3 0 0 0 3 3h.13l.47-.06c33.41-4.15 60.73-24.31 71.07-51.09.2-.53.4-1.06.59-1.59a56 56 0 0 0 1.53-4.83c.14-.55.29-1.09.42-1.64s.26-1.1.38-1.66c.1-.41.19-.84.27-1.26.23-1.12.42-2.26.58-3.4.06-.34.1-.68.13-1s.11-.71.14-1.06c.07-.57.13-1.14.17-1.71.1-1.13.16-2.27.21-3.42 0-.72.06-1.43.06-2.15v-.19c.05-.33.03-.67 0-.95m-32.27 5.21a16.6 16.6 0 0 1-.89 2.62 16.83 16.83 0 0 1-30.72 0 15.6 15.6 0 0 1-.92-2.62 17 17 0 0 1-.53-4.2 17.3 17.3 0 0 1 .53-4.22 18 18 0 0 1 .92-2.62 16.83 16.83 0 0 1 30.72 0 16.1 16.1 0 0 1 1.41 6.83 17.5 17.5 0 0 1-.52 4.21" transform="translate(.319 .662)"/></svg>