<svg xmlns="http://www.w3.org/2000/svg" viewBox="0 0 141 151"><title>Very Heavy Rainstorm（特大暴雨）</title><defs><linearGradient id="a" x1="15.19%" x2="65.816%" y1="85.134%" y2="18.879%"><stop offset="40%" stop-color="#788e99"/><stop offset="100%" stop-color="#f5f9ff"/></linearGradient><linearGradient id="b" x1="27.228%" x2="64.217%" y1="96.948%" y2="6.218%"><stop offset="34%" stop-color="#788e99"/><stop offset="100%" stop-color="#ebf2f5"/></linearGradient><linearGradient id="c" x1="98.743%" x2="1.257%" y1="98.463%" y2="1.537%"><stop offset="50%" stop-color="#bddcff" stop-opacity="0"/><stop offset="57%" stop-color="#bfdbf8" stop-opacity=".02"/><stop offset="66%" stop-color="#c5d7e2" stop-opacity=".07"/><stop offset="74%" stop-color="#ced0be" stop-opacity=".16"/><stop offset="83%" stop-color="#dcc78b" stop-opacity=".28"/><stop offset="92%" stop-color="#edbb4a" stop-opacity=".43"/><stop offset="100%" stop-color="#ffaf06" stop-opacity=".6"/></linearGradient><linearGradient id="d" x1="75.006%" x2="24.994%" y1="93.304%" y2="6.683%"><stop offset="0%" stop-color="#788e99"/><stop offset="100%" stop-color="#f5f9ff"/></linearGradient><linearGradient id="e" x1=".116%" x2="88.422%" y1="100.027%" y2="11.986%"><stop offset="0%" stop-color="#788e99"/><stop offset="100%" stop-color="#f5f9ff"/></linearGradient><linearGradient id="f" x1=".069%" x2="88.379%" y1="100.08%" y2="12.035%"><stop offset="0%" stop-color="#788e99"/><stop offset="100%" stop-color="#f5f9ff"/></linearGradient><linearGradient id="g" x1=".298%" x2="88.47%" y1="99.943%" y2="11.957%"><stop offset="0%" stop-color="#788e99"/><stop offset="100%" stop-color="#f5f9ff"/></linearGradient><linearGradient id="h" x1=".116%" x2="88.422%" y1="100.017%" y2="11.778%"><stop offset="0%" stop-color="#788e99"/><stop offset="100%" stop-color="#f5f9ff"/></linearGradient><linearGradient id="i" x1=".123%" x2="88.432%" y1="100.017%" y2="11.774%"><stop offset="0%" stop-color="#788e99"/><stop offset="100%" stop-color="#f5f9ff"/></linearGradient><linearGradient id="j" x1=".245%" x2="88.417%" y1="99.88%" y2="11.895%"><stop offset="0%" stop-color="#788e99"/><stop offset="100%" stop-color="#f5f9ff"/></linearGradient></defs><g fill="none" fill-rule="nonzero" transform="translate(.319 .576)"><path fill="url(#a)" d="M101 32.065H38.58a.09.09 0 0 0-.1.09v76.91a.1.1 0 0 0 .026.075q.032.03.074.027H102a38.533 38.533 0 0 0 38.5-39.851c-.72-20.94-18.6-37.25-39.5-37.25"/><path fill="url(#b)" d="M108.78 38.596C108.814 18.459 93.335 1.692 73.26.119S35.282 12.7 32.18 32.596a39 39 0 0 0-.46 6c0 21.281 17.249 38.534 38.53 38.54a38 38 0 0 0 6.34-.53c-2.828 17.897-17.741 31.408-35.83 32.46.93 0 1.86.06 2.8.06a65.21 65.21 0 0 0 65.22-65.21c0-1 0-2-.07-3 .05-.73.07-1.53.07-2.32"/><path fill="url(#c)" d="M77.06 70.616a38 38 0 0 1-.47 6 38 38 0 0 1-6.34.53 38.54 38.54 0 0 1-38.53-38.55 39 39 0 0 1 .46-6 38 38 0 0 1 6.35-.53 38.53 38.53 0 0 1 38.53 38.55"/><circle cx="38.53" cy="70.626" r="38.53" fill="url(#d)"/><path fill="url(#e)" d="M51.94 122.386a5.29 5.29 0 0 0-5.58-5.58c-7.36 0-7.72 13.26-7.72 13.26s13.3-.2 13.3-7.68"/><path fill="url(#f)" d="M76.9 122.386a5.3 5.3 0 0 0-5.58-5.58c-7.32 0-7.72 13.26-7.72 13.26s13.3-.2 13.3-7.68"/><path fill="url(#g)" d="M101.61 122.386a5.29 5.29 0 0 0-5.61-5.58c-7.37 0-7.71 13.29-7.71 13.29s13.32-.23 13.32-7.71"/><path fill="url(#h)" d="M51.94 142.356a5.29 5.29 0 0 0-5.58-5.58c-7.36 0-7.72 13.29-7.72 13.29s13.3-.23 13.3-7.71"/><path fill="url(#i)" d="M76.9 142.356a5.3 5.3 0 0 0-5.58-5.58c-7.32 0-7.72 13.29-7.72 13.29s13.3-.23 13.3-7.71"/><path fill="url(#j)" d="M101.61 142.356a5.29 5.29 0 0 0-5.61-5.58c-7.37 0-7.71 13.29-7.71 13.29s13.32-.23 13.32-7.71"/></g></svg>