<svg xmlns="http://www.w3.org/2000/svg" viewBox="0 0 141 151"><title>Very Heavy Snowstorm（特大暴雪）</title><defs><linearGradient id="a" x1="15.195%" x2="65.839%" y1="85.128%" y2="18.872%"><stop offset="40%" stop-color="#87acb2"/><stop offset="100%" stop-color="#e4f3f5"/></linearGradient><linearGradient id="b" x1="27.221%" x2="64.205%" y1="96.919%" y2="6.233%"><stop offset="30%" stop-color="#87acb2"/><stop offset="100%" stop-color="#e4f3f5"/></linearGradient><linearGradient id="c" x1="98.738%" x2="1.262%" y1="98.479%" y2="1.543%"><stop offset="50%" stop-color="#bddcff" stop-opacity="0"/><stop offset="57%" stop-color="#bfdbf8" stop-opacity=".02"/><stop offset="66%" stop-color="#c5d7e2" stop-opacity=".07"/><stop offset="74%" stop-color="#ced0be" stop-opacity=".16"/><stop offset="83%" stop-color="#dcc78b" stop-opacity=".28"/><stop offset="92%" stop-color="#edbb4a" stop-opacity=".43"/><stop offset="100%" stop-color="#ffaf06" stop-opacity=".6"/></linearGradient><linearGradient id="d" x1="75%" x2="25%" y1="93.304%" y2="6.696%"><stop offset="0%" stop-color="#87acb2"/><stop offset="100%" stop-color="#e4f3f5"/></linearGradient><linearGradient id="e" x1="75.027%" x2="24.829%" y1="88.62%" y2="11.286%"><stop offset="0%" stop-color="#87acb2"/><stop offset="100%" stop-color="#e4f3f5"/></linearGradient><linearGradient id="f" x1="75.076%" x2="24.845%" y1="88.67%" y2="11.235%"><stop offset="0%" stop-color="#87acb2"/><stop offset="100%" stop-color="#e4f3f5"/></linearGradient><linearGradient id="g" x1="75.024%" x2="24.828%" y1="88.616%" y2="11.231%"><stop offset="0%" stop-color="#87acb2"/><stop offset="100%" stop-color="#e4f3f5"/></linearGradient><linearGradient id="h" x1="75.034%" x2="24.831%" y1="88.758%" y2="11.279%"><stop offset="0%" stop-color="#87acb2"/><stop offset="100%" stop-color="#e4f3f5"/></linearGradient><linearGradient id="i" x1="75.084%" x2="24.848%" y1="88.809%" y2="11.228%"><stop offset="0%" stop-color="#87acb2"/><stop offset="100%" stop-color="#e4f3f5"/></linearGradient><linearGradient id="j" x1="75.032%" x2="24.831%" y1="88.8%" y2="11.282%"><stop offset="0%" stop-color="#87acb2"/><stop offset="100%" stop-color="#e4f3f5"/></linearGradient></defs><g fill="none" fill-rule="nonzero" transform="translate(.319 .564)"><path fill="url(#a)" d="M100.56 31.978H38.42a.09.09 0 0 0-.09.09v76.58c0 .05.04.09.09.09h63.15a38.37 38.37 0 0 0 38.35-39.66c-.69-20.88-18.5-37.1-39.36-37.1"/><path fill="url(#b)" d="M108.35 38.458C108.39 18.398 92.976 1.692 72.979.12S35.146 12.639 32.05 32.458a39 39 0 0 0-.46 6A38.39 38.39 0 0 0 70 76.838a37.6 37.6 0 0 0 6.32-.52c-2.812 17.844-17.685 31.314-35.72 32.35.92 0 1.85.07 2.79.07 35.899 0 65-29.102 65-65 0-1 0-2-.07-3 .01-.66.03-1.5.03-2.28"/><path fill="url(#c)" d="M76.76 70.348a38 38 0 0 1-.47 6 37.6 37.6 0 0 1-6.32.52 38.39 38.39 0 0 1-38.38-38.41 39 39 0 0 1 .46-6 38 38 0 0 1 6.33-.52 38.37 38.37 0 0 1 38.38 38.41"/><circle cx="38.38" cy="70.358" r="38.38" fill="url(#d)"/><path fill="url(#e)" d="m76 125.078 1-.58a1.24 1.24 0 0 0 0-2.16l-1-.59a1.9 1.9 0 0 0-1.86 0l-.94.52-.61-1.06.93-.57c.557-.343.9-.946.91-1.6v-1.18a1.24 1.24 0 0 0-1.87-1.09l-1 .59a1.91 1.91 0 0 0-1 1.62v1.07h-1.19v-1.07a1.92 1.92 0 0 0-.92-1.58l-1-.61a1.24 1.24 0 0 0-1.88 1.07v1.18a1.91 1.91 0 0 0 .92 1.63l.9.54-.59 1-.85-.49a1.92 1.92 0 0 0-1.87 0l-1.06.59a1.24 1.24 0 0 0 0 2.18l1.07.58a1.91 1.91 0 0 0 1.84 0l.87-.49.58 1-.84.49a1.92 1.92 0 0 0-.94 1.62v1.21a1.23 1.23 0 0 0 1.89 1.08l1-.63a1.92 1.92 0 0 0 .9-1.6v-1h1.17v1c.01.667.36 1.282.93 1.63l1 .62a1.24 1.24 0 0 0 1.88-1.1v-1.21a1.9 1.9 0 0 0-.93-1.58l-.86-.52.59-1 1 .52a1.91 1.91 0 0 0 1.83-.03m-6-.1a1.57 1.57 0 1 1 1.57-1.56 1.56 1.56 0 0 1-1.57 1.55z"/><path fill="url(#f)" d="m100.85 125.078 1-.58a1.24 1.24 0 0 0 0-2.16l-1-.59a1.92 1.92 0 0 0-1.87 0l-.93.52-.61-1.06.93-.57a1.93 1.93 0 0 0 .91-1.6v-1.18a1.24 1.24 0 0 0-1.87-1.09l-1 .59a1.91 1.91 0 0 0-1 1.62v1.07h-1.18v-1.07a1.9 1.9 0 0 0-.93-1.58l-1-.61a1.24 1.24 0 0 0-1.88 1.07v1.18c.01.667.36 1.282.93 1.63l.9.54-.59 1-.85-.49a1.92 1.92 0 0 0-1.87 0l-1.06.59a1.24 1.24 0 0 0 0 2.18l1.07.58a1.89 1.89 0 0 0 1.83 0l.87-.49.59 1-.84.49a1.92 1.92 0 0 0-.94 1.62v1.21a1.24 1.24 0 0 0 1.9 1.08l1-.63c.557-.343.9-.946.91-1.6v-1h1.16v1a1.91 1.91 0 0 0 .92 1.63l1.05.62a1.24 1.24 0 0 0 1.88-1.1v-1.21a1.9 1.9 0 0 0-.93-1.58l-.87-.52.6-1 1 .52c.56.28 1.22.269 1.77-.03m-6-.1a1.57 1.57 0 1 1 1.56-1.56 1.56 1.56 0 0 1-1.58 1.55z"/><path fill="url(#g)" d="m51.13 125.078 1-.58a1.23 1.23 0 0 0 0-2.16l-1-.59a1.92 1.92 0 0 0-1.87 0l-.94.52-.61-1.06.93-.57c.557-.343.9-.946.91-1.6v-1.18a1.24 1.24 0 0 0-1.87-1.09l-1 .59a1.93 1.93 0 0 0-1 1.62v1.1h-1.17v-1.07a1.87 1.87 0 0 0-.92-1.58l-1-.61a1.24 1.24 0 0 0-1.88 1.07v1.18a1.91 1.91 0 0 0 .92 1.63l.91.54-.6 1-.85-.49a1.91 1.91 0 0 0-1.87 0l-1.06.59a1.24 1.24 0 0 0 0 2.18l1.07.58a1.91 1.91 0 0 0 1.77-.02l.87-.49.58 1-.84.49a1.92 1.92 0 0 0-.94 1.62v1.21a1.23 1.23 0 0 0 1.89 1.08l1-.63a1.93 1.93 0 0 0 .91-1.6v-1h1.17v1c.01.667.36 1.282.93 1.63l1 .62a1.24 1.24 0 0 0 1.88-1.1v-1.21a1.9 1.9 0 0 0-.85-1.62l-.86-.52.59-1 1 .52c.562.3 1.238.3 1.8 0m-6-.1a1.57 1.57 0 1 1 1.57-1.56 1.56 1.56 0 0 1-1.59 1.55z"/><path fill="url(#h)" d="m76 144.958 1-.58a1.25 1.25 0 0 0 0-2.17l-1-.58a1.9 1.9 0 0 0-1.86 0l-.94.52-.61-1.07.93-.58a1.89 1.89 0 0 0 .91-1.59v-1.18a1.25 1.25 0 0 0-1.87-1.1l-1 .6a1.9 1.9 0 0 0-1 1.61v1.07h-1.19v-1.06a1.93 1.93 0 0 0-.92-1.59l-1-.61a1.25 1.25 0 0 0-1.88 1.08v1.18a1.88 1.88 0 0 0 .92 1.62l.9.55-.59 1-.85-.48a1.92 1.92 0 0 0-1.87 0l-1.06.59a1.24 1.24 0 0 0 0 2.18l1.07.58a1.94 1.94 0 0 0 1.84 0l.87-.49.58 1-.84.49a1.92 1.92 0 0 0-.94 1.61v1.22a1.24 1.24 0 0 0 1.89 1.08l1-.64a1.9 1.9 0 0 0 .9-1.59v-1h1.17v1a1.91 1.91 0 0 0 .93 1.62l1 .63a1.24 1.24 0 0 0 1.88-1.1v-1.21a1.92 1.92 0 0 0-.93-1.59l-.86-.52.59-1 1 .52a1.94 1.94 0 0 0 1.83-.02m-6-.1a1.57 1.57 0 1 1 1.57-1.57 1.56 1.56 0 0 1-1.57 1.57"/><path fill="url(#i)" d="m100.85 144.958 1-.58a1.25 1.25 0 0 0 0-2.17l-1-.58a1.92 1.92 0 0 0-1.87 0l-.93.52-.6-1.07.93-.58c.554-.34.897-.94.91-1.59v-1.18a1.25 1.25 0 0 0-1.87-1.1l-1 .6a1.9 1.9 0 0 0-1 1.61v1.07h-1.19v-1.06a1.92 1.92 0 0 0-.93-1.59l-1-.61a1.25 1.25 0 0 0-1.88 1.08v1.18a1.91 1.91 0 0 0 .93 1.62l.9.55-.59 1-.85-.48a1.92 1.92 0 0 0-1.87 0l-1.06.59a1.24 1.24 0 0 0 0 2.18l1.07.58c.57.31 1.26.31 1.83 0l.87-.49.59 1-.84.49a1.92 1.92 0 0 0-.94 1.61v1.22a1.25 1.25 0 0 0 1.9 1.08l1-.64a1.89 1.89 0 0 0 .91-1.59v-1h1.16v1a1.88 1.88 0 0 0 .92 1.62l1.05.63a1.24 1.24 0 0 0 1.88-1.1v-1.21a1.92 1.92 0 0 0-.93-1.59l-.87-.52.6-1 1 .52a1.94 1.94 0 0 0 1.77-.02m-6-.1a1.57 1.57 0 1 1 1.56-1.57 1.56 1.56 0 0 1-1.58 1.57z"/><path fill="url(#j)" d="m51.13 144.958 1-.58a1.24 1.24 0 0 0 0-2.17l-1-.58a1.92 1.92 0 0 0-1.87 0l-.94.52-.59-1.07.93-.58a1.89 1.89 0 0 0 .91-1.59v-1.18a1.24 1.24 0 0 0-1.87-1.1l-1 .6a1.93 1.93 0 0 0-1 1.61v1.07h-1.19v-1.06a1.89 1.89 0 0 0-.92-1.59l-1-.61a1.25 1.25 0 0 0-1.88 1.08v1.18a1.88 1.88 0 0 0 .92 1.62l.91.55-.6 1-.85-.48a1.91 1.91 0 0 0-1.87 0l-1.06.59a1.24 1.24 0 0 0 0 2.18l1.07.58a1.94 1.94 0 0 0 1.84 0l.87-.49.58 1-.84.49a1.92 1.92 0 0 0-.94 1.61v1.22a1.24 1.24 0 0 0 1.89 1.08l1-.64c.554-.34.897-.94.91-1.59v-1h1.17v1a1.91 1.91 0 0 0 .93 1.62l1 .63a1.24 1.24 0 0 0 1.88-1.1v-1.21a1.92 1.92 0 0 0-.93-1.59l-.86-.52.59-1 1 .52a1.94 1.94 0 0 0 1.81-.02m-6-.1a1.57 1.57 0 1 1 1.57-1.57 1.56 1.56 0 0 1-1.59 1.57z"/></g></svg>