<svg xmlns="http://www.w3.org/2000/svg" viewBox="0 0 87 151"><title>Violent storm（11级风）</title><defs><linearGradient id="a" x1=".371%" x2="99.617%" y1="49.975%" y2="49.975%"><stop offset="20%" stop-color="#90bdcf"/><stop offset="100%" stop-color="#e6f0f7"/></linearGradient><linearGradient id="b" x1="269.264%" x2="269.264%" y1="-70.523%" y2="-170.952%"><stop offset="20%" stop-color="#90bdcf"/><stop offset="100%" stop-color="#e6f0f7"/></linearGradient><linearGradient id="c" x1="43.742%" x2="57.086%" y1="86.837%" y2="8.542%"><stop offset="0%" stop-color="#90bdcf"/><stop offset="100%" stop-color="#e6f0f7"/></linearGradient><linearGradient id="d" x1="43.747%" x2="57.085%" y1="86.837%" y2="8.542%"><stop offset="0%" stop-color="#90bdcf"/><stop offset="100%" stop-color="#e6f0f7"/></linearGradient></defs><g fill="none" fill-rule="nonzero"><path fill="#90bdcf" d="M10.479 150.642c-5.612 0-10.16-4.55-10.16-10.16V10.802a10.16 10.16 0 1 1 20.31 0v129.68c0 5.607-4.543 10.154-10.15 10.16"/><path fill="url(#a)" d="M75.319 20.629h-64.84a10.16 10.16 0 1 1 0-20.31h64.84a10.16 10.16 0 1 1 0 20.31" transform="translate(0 .323)"/><path fill="url(#b)" d="M10.479 85.479a10.16 10.16 0 0 1-7.16-17.34l64.82-64.82a10.16 10.16 0 0 1 14.36 14.34l-64.84 64.84a10.17 10.17 0 0 1-7.18 2.98" transform="translate(0 .323)"/><path fill="url(#c)" d="M53.989 144.499q0 4-6.4 4c-4.26 0-6.4-1.32-6.4-4v-54.83h-5a2.79 2.79 0 0 1-2.64-1.22c-.48-.82-.71-2.51-.71-5.08s.32-4.13 1-5.08a3.36 3.36 0 0 1 3-1.42h10.14q7 0 7 5.28z" transform="translate(0 .323)"/><path fill="url(#d)" d="M86.989 144.499q0 4-6.39 4t-6.4-4v-54.83h-5a2.8 2.8 0 0 1-2.64-1.22c-.47-.82-.71-2.51-.71-5.08s.32-4.13 1-5.08a3.35 3.35 0 0 1 3-1.42h10.14q7 0 7 5.28z" transform="translate(0 .323)"/></g></svg>