<svg xmlns="http://www.w3.org/2000/svg" viewBox="0 0 151 87"><title>Volcano（火山喷发）</title><defs><linearGradient id="a" x1="49.983%" x2="49.983%" y1="100%" y2="0%"><stop offset="0%" stop-color="#ea3c2f"/><stop offset="12%" stop-color="#ea3e30" stop-opacity=".98"/><stop offset="25%" stop-color="#ea4231" stop-opacity=".92"/><stop offset="38%" stop-color="#ea4a33" stop-opacity=".83"/><stop offset="52%" stop-color="#ea5537" stop-opacity=".69"/><stop offset="67%" stop-color="#ea643b" stop-opacity=".52"/><stop offset="82%" stop-color="#ea7541" stop-opacity=".31"/><stop offset="96%" stop-color="#ea8947" stop-opacity=".07"/><stop offset="100%" stop-color="#ea8f49" stop-opacity="0"/></linearGradient><linearGradient id="c" x1="49.987%" x2="49.987%" y1="100%" y2="-.045%"><stop offset="0%" stop-color="#a86f54"/><stop offset="100%" stop-color="#ffd9cc"/></linearGradient><linearGradient id="d" x1="50%" x2="50%" y1="100%" y2="-.667%"><stop offset="0%" stop-color="#ea5449"/><stop offset="100%" stop-color="#ea8f49" stop-opacity="0"/></linearGradient><radialGradient id="b" cx="49.774%" cy="50.851%" r="78.451%" fx="49.774%" fy="50.851%" gradientTransform="matrix(1 0 0 .74915 0 .128)"><stop offset="0%" stop-color="#fff699"/><stop offset="8%" stop-color="#fef1a8" stop-opacity=".75"/><stop offset="15%" stop-color="#fdecb5" stop-opacity=".53"/><stop offset="23%" stop-color="#fce8c1" stop-opacity=".34"/><stop offset="30%" stop-color="#fce5ca" stop-opacity=".19"/><stop offset="37%" stop-color="#fbe3d0" stop-opacity=".09"/><stop offset="43%" stop-color="#fbe1d4" stop-opacity=".02"/><stop offset="47%" stop-color="#fbe1d5" stop-opacity="0"/></radialGradient></defs><g fill="none" fill-rule="nonzero" transform="translate(.383 .642)"><path fill="url(#a)" d="M60.505 0h29.71l-5.88 19.83h-17.95z"/><ellipse cx="75.075" cy="19.7" fill="url(#b)" rx="13.2" ry="17.62"/><path fill="url(#c)" d="M147.765 85.82H2.105a2.17 2.17 0 0 1-1.1-4 171.85 171.85 0 0 0 56.8-55.91c1.35-2.2 2.3-3.88 2.85-4.9a2.15 2.15 0 0 1 1.91-1.14h25.46a2.15 2.15 0 0 1 2 1.27c.47 1 1.24 2.67 2.34 4.77 6.16 11.61 22.84 37.58 56.44 55.85a2.17 2.17 0 0 1-1.04 4.06"/><path fill="url(#d)" d="M92.345 25.88h-34.54c2.33-3.78 3.45-6 3.45-6h28.2s.9 2.22 2.89 6"/></g></svg>