<svg xmlns="http://www.w3.org/2000/svg" viewBox="0 0 151 151"><title>iot-管道(21)-06</title><defs><radialGradient id="a" cx="50%" cy="50%" r="50%" fx="50%" fy="50%"><stop offset="0%" stop-color="#b7b7b7"/><stop offset="14%" stop-color="#bfbfbf"/><stop offset="36%" stop-color="#c6c6c6"/><stop offset="47%" stop-color="silver"/><stop offset="62%" stop-color="#afafaf"/><stop offset="79%" stop-color="#939393"/><stop offset="98%" stop-color="#6c6c6c"/><stop offset="100%" stop-color="#666"/></radialGradient><radialGradient id="c" cx="72.898%" cy="40.745%" r="72.312%" fx="72.898%" fy="40.745%" gradientTransform="scale(1 .9997)"><stop offset="0%" stop-color="#a3a3a3"/><stop offset="1%" stop-color="#a9a9a9"/><stop offset="4%" stop-color="#b9b9b9"/><stop offset="8%" stop-color="#c3c3c3"/><stop offset="12%" stop-color="#c6c6c6"/><stop offset="23%" stop-color="silver"/><stop offset="38%" stop-color="#afafaf"/><stop offset="56%" stop-color="#939393"/><stop offset="74%" stop-color="#6c6c6c"/><stop offset="90%" stop-color="#444"/></radialGradient><linearGradient id="b" x1="75%" x2="25%" y1="93.306%" y2="6.685%"><stop offset="0%" stop-color="#a0a0a0"/><stop offset="4%" stop-color="#ababab"/><stop offset="15%" stop-color="#bfbfbf"/><stop offset="22%" stop-color="#c6c6c6"/><stop offset="24%" stop-color="#bebebe"/><stop offset="36%" stop-color="#949494"/><stop offset="48%" stop-color="#727272"/><stop offset="61%" stop-color="#575757"/><stop offset="73%" stop-color="#444"/><stop offset="86%" stop-color="#393939"/><stop offset="100%" stop-color="#353535"/></linearGradient></defs><g fill="none" fill-rule="nonzero" transform="translate(.17 .3)"><circle cx="75" cy="75" r="75" fill="url(#a)"/><circle cx="75" cy="75" r="54.08" fill="url(#b)"/><path fill="url(#c)" d="M125.31 77.44v-4.88h-5.55a46 46 0 0 0-.84-6.81l5.31-1.42-1.23-4.71-5.32 1.43a45 45 0 0 0-2.68-6.33l4.79-2.72-2.44-4.22-4.78 2.76a45 45 0 0 0-4.19-5.42l3.92-3.92-3.45-3.45-3.92 3.92a45 45 0 0 0-5.42-4.2l2.76-4.77L98 30.21 95.28 35A45 45 0 0 0 89 32.35L90.38 27l-4.71-1.26-1.43 5.31a45 45 0 0 0-6.8-.84v-5.52h-4.88v5.55a45 45 0 0 0-6.8.84l-1.43-5.31L59.62 27l1.43 5.32A45 45 0 0 0 54.72 35L52 30.21l-4.23 2.44 2.76 4.77a45 45 0 0 0-5.42 4.2l-3.96-3.92-3.45 3.45 3.92 3.92a45 45 0 0 0-4.19 5.42l-4.78-2.76L30.21 52 35 54.72a45 45 0 0 0-2.64 6.33L27 59.62l-1.27 4.71 5.31 1.42a46 46 0 0 0-.84 6.81h-5.51v4.88h5.55a46 46 0 0 0 .84 6.8l-5.31 1.42L27 90.37 32.36 89A44.5 44.5 0 0 0 35 95.27L30.21 98l2.44 4.22 4.78-2.76a46 46 0 0 0 4.19 5.43l-3.92 3.92 3.45 3.44 3.92-3.92a45 45 0 0 0 5.42 4.2l-2.76 4.78 4.27 2.47 2.72-4.78a45 45 0 0 0 6.33 2.64L59.62 123l4.71 1.26 1.43-5.31a43.6 43.6 0 0 0 6.8.84v5.55h4.88v-5.55a43.6 43.6 0 0 0 6.8-.84l1.43 5.31 4.71-1.26-1.38-5.36a45 45 0 0 0 6.28-2.64l2.72 4.78 4.23-2.43-2.76-4.78a45 45 0 0 0 5.42-4.2l3.92 3.92 3.45-3.44-3.92-3.92a46 46 0 0 0 4.19-5.43l4.78 2.76 2.48-4.26-4.79-2.73a44.5 44.5 0 0 0 2.64-6.27l5.36 1.37 1.27-4.71-5.31-1.42a46 46 0 0 0 .84-6.8z"/></g></svg>