<svg xmlns="http://www.w3.org/2000/svg" viewBox="0 0 234 219"><title>iot-管道(21)-04</title><defs><linearGradient id="a" x1="100.016%" x2=".016%" y1="49.984%" y2="49.984%"><stop offset="0%" stop-color="#b7b7b7"/><stop offset="3%" stop-color="#9b9d9d"/><stop offset="7%" stop-color="#878b8b"/><stop offset="9%" stop-color="#808484"/><stop offset="20%" stop-color="#a3a6a6"/><stop offset="49%" stop-color="#f6f6f6"/><stop offset="61%" stop-color="#f3f3f3"/><stop offset="70%" stop-color="#eaeaea"/><stop offset="77%" stop-color="#dbdbdb"/><stop offset="83%" stop-color="#c5c5c5"/><stop offset="90%" stop-color="#aaa"/><stop offset="95%" stop-color="#888"/><stop offset="100%" stop-color="#666"/></linearGradient><linearGradient id="b" x1="100.016%" x2=".016%" y1="50%" y2="50%"><stop offset="0%" stop-color="#b7b7b7"/><stop offset="3%" stop-color="#9b9d9d"/><stop offset="7%" stop-color="#878b8b"/><stop offset="9%" stop-color="#808484"/><stop offset="20%" stop-color="#a3a6a6"/><stop offset="49%" stop-color="#f6f6f6"/><stop offset="61%" stop-color="#f3f3f3"/><stop offset="70%" stop-color="#eaeaea"/><stop offset="77%" stop-color="#dbdbdb"/><stop offset="83%" stop-color="#c5c5c5"/><stop offset="90%" stop-color="#aaa"/><stop offset="95%" stop-color="#888"/><stop offset="100%" stop-color="#666"/></linearGradient><linearGradient id="c" x1="50%" x2="50%" y1="100%" y2=".015%"><stop offset="0%" stop-color="#b7b7b7"/><stop offset="3%" stop-color="#9b9d9d"/><stop offset="7%" stop-color="#878b8b"/><stop offset="9%" stop-color="#808484"/><stop offset="20%" stop-color="#a3a6a6"/><stop offset="49%" stop-color="#f6f6f6"/><stop offset="61%" stop-color="#f3f3f3"/><stop offset="70%" stop-color="#eaeaea"/><stop offset="77%" stop-color="#dbdbdb"/><stop offset="83%" stop-color="#c5c5c5"/><stop offset="90%" stop-color="#aaa"/><stop offset="95%" stop-color="#888"/><stop offset="100%" stop-color="#666"/></linearGradient></defs><g fill="none" fill-rule="nonzero"><g transform="translate(.02 .25)"><circle cx="31.05" cy="31.05" r="31.05" fill="url(#a)"/><circle cx="31.05" cy="32.28" r="31.05" fill="url(#b)"/><circle cx="31.05" cy="33.52" r="31.05" fill="url(#b)"/><circle cx="31.05" cy="34.76" r="31.05" fill="url(#b)"/><circle cx="31.05" cy="36" r="31.05" fill="url(#a)"/><circle cx="31.05" cy="37.23" r="31.05" fill="url(#b)"/><circle cx="31.05" cy="38.47" r="31.05" fill="url(#b)"/><circle cx="31.05" cy="39.71" r="31.05" fill="url(#b)"/><circle cx="31.05" cy="40.95" r="31.05" fill="url(#b)"/><circle cx="31.05" cy="42.18" r="31.05" fill="url(#b)"/><circle cx="31.05" cy="43.42" r="31.05" fill="url(#b)"/><circle cx="31.05" cy="44.66" r="31.05" fill="url(#b)"/><circle cx="31.05" cy="45.9" r="31.05" fill="url(#b)"/><circle cx="31.05" cy="47.13" r="31.05" fill="url(#b)"/><circle cx="31.05" cy="48.37" r="31.05" fill="url(#b)"/><circle cx="31.05" cy="49.61" r="31.05" fill="url(#b)"/><circle cx="31.05" cy="50.85" r="31.05" fill="url(#b)"/><circle cx="31.05" cy="52.08" r="31.05" fill="url(#b)"/><circle cx="31.05" cy="53.32" r="31.05" fill="url(#b)"/><circle cx="31.05" cy="54.56" r="31.05" fill="url(#b)"/><circle cx="31.05" cy="55.8" r="31.05" fill="url(#b)"/><circle cx="31.05" cy="57.03" r="31.05" fill="url(#b)"/><circle cx="31.05" cy="58.27" r="31.05" fill="url(#b)"/><circle cx="31.05" cy="59.51" r="31.05" fill="url(#b)"/><circle cx="31.05" cy="60.75" r="31.05" fill="url(#b)"/><circle cx="31.05" cy="61.98" r="31.05" fill="url(#b)"/><circle cx="31.05" cy="63.22" r="31.05" fill="url(#b)"/><circle cx="31.05" cy="64.46" r="31.05" fill="url(#b)"/><circle cx="31.05" cy="65.7" r="31.05" fill="url(#b)"/><circle cx="31.05" cy="66.93" r="31.05" fill="url(#b)"/><circle cx="31.05" cy="68.17" r="31.05" fill="url(#b)"/><circle cx="31.05" cy="69.41" r="31.05" fill="url(#b)"/><circle cx="31.05" cy="70.65" r="31.05" fill="url(#b)"/><circle cx="31.05" cy="71.88" r="31.05" fill="url(#b)"/><circle cx="31.05" cy="73.12" r="31.05" fill="url(#b)"/><circle cx="31.05" cy="74.36" r="31.05" fill="url(#b)"/><circle cx="31.05" cy="75.6" r="31.05" fill="url(#b)"/><circle cx="31.05" cy="76.84" r="31.05" fill="url(#a)"/><circle cx="31.05" cy="78.07" r="31.05" fill="url(#b)"/><circle cx="31.05" cy="79.31" r="31.05" fill="url(#b)"/><circle cx="31.05" cy="80.55" r="31.05" fill="url(#b)"/><circle cx="31.05" cy="81.79" r="31.05" fill="url(#a)"/><circle cx="31.05" cy="83.02" r="31.05" fill="url(#b)"/><circle cx="31.05" cy="84.26" r="31.05" fill="url(#b)"/><circle cx="31.05" cy="85.5" r="31.05" fill="url(#b)"/><circle cx="31.05" cy="86.74" r="31.05" fill="url(#a)"/><circle cx="31.05" cy="87.97" r="31.05" fill="url(#b)"/><circle cx="31.05" cy="89.21" r="31.05" fill="url(#b)"/><circle cx="31.05" cy="90.45" r="31.05" fill="url(#b)"/><circle cx="31.05" cy="91.69" r="31.05" fill="url(#a)"/><circle cx="31.05" cy="92.92" r="31.05" fill="url(#b)"/><circle cx="31.05" cy="94.16" r="31.05" fill="url(#b)"/><circle cx="31.05" cy="95.4" r="31.05" fill="url(#b)"/><circle cx="31.05" cy="96.64" r="31.05" fill="url(#a)"/><circle cx="31.05" cy="97.87" r="31.05" fill="url(#b)"/><circle cx="31.05" cy="99.11" r="31.05" fill="url(#b)"/><circle cx="31.05" cy="100.35" r="31.05" fill="url(#b)"/><circle cx="31.05" cy="101.59" r="31.05" fill="url(#a)"/><circle cx="31.05" cy="102.82" r="31.05" fill="url(#b)"/><circle cx="31.05" cy="104.06" r="31.05" fill="url(#b)"/><circle cx="31.05" cy="105.3" r="31.05" fill="url(#b)"/><circle cx="31.05" cy="106.54" r="31.05" fill="url(#a)"/><circle cx="31.05" cy="107.77" r="31.05" fill="url(#b)"/><circle cx="31.05" cy="109.01" r="31.05" fill="url(#b)"/><circle cx="31.05" cy="110.25" r="31.05" fill="url(#b)"/><circle cx="31.05" cy="111.49" r="31.05" fill="url(#a)"/><circle cx="31.05" cy="112.72" r="31.05" fill="url(#b)"/><circle cx="31.05" cy="113.96" r="31.05" fill="url(#b)"/><circle cx="31.05" cy="115.2" r="31.05" fill="url(#b)"/><circle cx="31.05" cy="116.44" r="31.05" fill="url(#a)"/><circle cx="31.05" cy="117.67" r="31.05" fill="url(#b)"/><circle cx="31.05" cy="118.91" r="31.05" fill="url(#b)"/><circle cx="31.05" cy="120.15" r="31.05" fill="url(#b)"/><circle cx="31.05" cy="121.39" r="31.05" fill="url(#a)"/><circle cx="31.05" cy="122.62" r="31.05" fill="url(#b)"/><circle cx="31.05" cy="123.86" r="31.05" fill="url(#b)"/><circle cx="31.05" cy="125.1" r="31.05" fill="url(#b)"/><circle cx="31.05" cy="126.34" r="31.05" fill="url(#a)"/><circle cx="31.05" cy="127.57" r="31.05" fill="url(#b)"/><circle cx="31.05" cy="128.81" r="31.05" fill="url(#b)"/><circle cx="31.05" cy="130.05" r="31.05" fill="url(#b)"/><circle cx="31.05" cy="131.29" r="31.05" fill="url(#b)"/><circle cx="31.05" cy="132.52" r="31.05" fill="url(#b)"/><circle cx="31.05" cy="133.76" r="31.05" fill="url(#b)"/><circle cx="31.05" cy="135" r="31.05" fill="url(#b)"/><circle cx="31.05" cy="136.24" r="31.05" fill="url(#b)"/><circle cx="31.05" cy="137.47" r="31.05" fill="url(#b)"/><circle cx="31.05" cy="138.71" r="31.05" fill="url(#b)"/><circle cx="31.05" cy="139.95" r="31.05" fill="url(#b)"/><circle cx="31.05" cy="141.19" r="31.05" fill="url(#b)"/><circle cx="31.05" cy="142.42" r="31.05" fill="url(#b)"/><circle cx="31.05" cy="143.66" r="31.05" fill="url(#b)"/><circle cx="31.05" cy="144.9" r="31.05" fill="url(#b)"/><circle cx="31.05" cy="146.14" r="31.05" fill="url(#b)"/><circle cx="31.05" cy="147.37" r="31.05" fill="url(#b)"/><circle cx="31.05" cy="148.61" r="31.05" fill="url(#b)"/><circle cx="31.05" cy="149.85" r="31.05" fill="url(#b)"/><circle cx="31.05" cy="151.09" r="31.05" fill="url(#b)"/><circle cx="31.05" cy="152.32" r="31.05" fill="url(#b)"/><circle cx="31.05" cy="153.56" r="31.05" fill="url(#b)"/><circle cx="31.05" cy="154.8" r="31.05" fill="url(#b)"/><circle cx="31.05" cy="156.04" r="31.05" fill="url(#b)"/><circle cx="31.05" cy="157.27" r="31.05" fill="url(#b)"/><circle cx="31.05" cy="158.51" r="31.05" fill="url(#b)"/><circle cx="31.05" cy="159.75" r="31.05" fill="url(#b)"/><circle cx="31.05" cy="160.99" r="31.05" fill="url(#b)"/><circle cx="31.05" cy="162.23" r="31.05" fill="url(#a)"/><circle cx="31.05" cy="163.46" r="31.05" fill="url(#b)"/><circle cx="31.05" cy="164.7" r="31.05" fill="url(#b)"/><circle cx="31.05" cy="165.94" r="31.05" fill="url(#b)"/><circle cx="31.05" cy="167.18" r="31.05" fill="url(#a)"/><circle cx="31.05" cy="168.41" r="31.05" fill="url(#b)"/><circle cx="31.05" cy="169.65" r="31.05" fill="url(#b)"/><circle cx="31.05" cy="170.89" r="31.05" fill="url(#b)"/><circle cx="31.05" cy="172.13" r="31.05" fill="url(#a)"/><circle cx="31.05" cy="173.36" r="31.05" fill="url(#b)"/><circle cx="31.05" cy="174.6" r="31.05" fill="url(#b)"/><circle cx="31.05" cy="175.84" r="31.05" fill="url(#b)"/><circle cx="31.05" cy="177.08" r="31.05" fill="url(#a)"/><circle cx="31.05" cy="178.31" r="31.05" fill="url(#b)"/><circle cx="31.05" cy="179.55" r="31.05" fill="url(#b)"/><circle cx="31.05" cy="180.79" r="31.05" fill="url(#b)"/><circle cx="31.05" cy="182.03" r="31.05" fill="url(#a)"/><circle cx="31.05" cy="183.26" r="31.05" fill="url(#b)"/><circle cx="31.05" cy="184.5" r="31.05" fill="url(#b)"/><circle cx="31.05" cy="185.74" r="31.05" fill="url(#b)"/><circle cx="31.05" cy="186.98" r="31.05" fill="url(#a)"/></g><g fill="url(#c)" transform="translate(25.21 76.78)"><ellipse cx="42.85" cy="33.16" rx="42.85" ry="33.16"/><ellipse cx="44.56" cy="33.16" rx="42.85" ry="33.16"/><ellipse cx="46.26" cy="33.16" rx="42.85" ry="33.16"/><ellipse cx="47.97" cy="33.16" rx="42.85" ry="33.16"/><ellipse cx="49.68" cy="33.16" rx="42.85" ry="33.16"/><ellipse cx="51.39" cy="33.16" rx="42.85" ry="33.16"/><ellipse cx="53.09" cy="33.16" rx="42.85" ry="33.16"/><ellipse cx="54.8" cy="33.16" rx="42.85" ry="33.16"/><ellipse cx="56.51" cy="33.16" rx="42.85" ry="33.16"/><ellipse cx="58.22" cy="33.16" rx="42.85" ry="33.16"/><ellipse cx="59.92" cy="33.16" rx="42.85" ry="33.16"/><ellipse cx="61.63" cy="33.16" rx="42.85" ry="33.16"/><ellipse cx="63.34" cy="33.16" rx="42.85" ry="33.16"/><ellipse cx="65.05" cy="33.16" rx="42.85" ry="33.16"/><ellipse cx="66.75" cy="33.16" rx="42.85" ry="33.16"/><ellipse cx="68.46" cy="33.16" rx="42.85" ry="33.16"/><ellipse cx="70.17" cy="33.16" rx="42.85" ry="33.16"/><ellipse cx="71.88" cy="33.16" rx="42.85" ry="33.16"/><ellipse cx="73.58" cy="33.16" rx="42.85" ry="33.16"/><ellipse cx="75.29" cy="33.16" rx="42.85" ry="33.16"/><ellipse cx="77" cy="33.16" rx="42.85" ry="33.16"/><ellipse cx="78.71" cy="33.16" rx="42.85" ry="33.16"/><ellipse cx="80.41" cy="33.16" rx="42.85" ry="33.16"/><ellipse cx="82.12" cy="33.16" rx="42.85" ry="33.16"/><ellipse cx="83.83" cy="33.16" rx="42.85" ry="33.16"/><ellipse cx="85.54" cy="33.16" rx="42.85" ry="33.16"/><ellipse cx="87.24" cy="33.16" rx="42.85" ry="33.16"/><ellipse cx="88.95" cy="33.16" rx="42.85" ry="33.16"/><ellipse cx="90.66" cy="33.16" rx="42.85" ry="33.16"/><ellipse cx="92.37" cy="33.16" rx="42.85" ry="33.16"/><ellipse cx="94.07" cy="33.16" rx="42.85" ry="33.16"/><ellipse cx="95.78" cy="33.16" rx="42.85" ry="33.16"/><ellipse cx="97.49" cy="33.16" rx="42.85" ry="33.16"/><ellipse cx="99.2" cy="33.16" rx="42.85" ry="33.16"/><ellipse cx="100.9" cy="33.16" rx="42.85" ry="33.16"/><ellipse cx="102.61" cy="33.16" rx="42.85" ry="33.16"/><ellipse cx="104.32" cy="33.16" rx="42.85" ry="33.16"/><ellipse cx="106.03" cy="33.16" rx="42.85" ry="33.16"/><ellipse cx="107.73" cy="33.16" rx="42.85" ry="33.16"/><ellipse cx="109.44" cy="33.16" rx="42.85" ry="33.16"/><ellipse cx="111.15" cy="33.16" rx="42.85" ry="33.16"/><ellipse cx="112.86" cy="33.16" rx="42.85" ry="33.16"/><ellipse cx="114.56" cy="33.16" rx="42.85" ry="33.16"/><ellipse cx="116.27" cy="33.16" rx="42.85" ry="33.16"/><ellipse cx="117.98" cy="33.16" rx="42.85" ry="33.16"/><ellipse cx="119.69" cy="33.16" rx="42.85" ry="33.16"/><ellipse cx="121.39" cy="33.16" rx="42.85" ry="33.16"/><ellipse cx="123.1" cy="33.16" rx="42.85" ry="33.16"/><ellipse cx="124.81" cy="33.16" rx="42.85" ry="33.16"/><ellipse cx="126.52" cy="33.16" rx="42.85" ry="33.16"/><ellipse cx="128.22" cy="33.16" rx="42.85" ry="33.16"/><ellipse cx="129.93" cy="33.16" rx="42.85" ry="33.16"/><ellipse cx="131.64" cy="33.16" rx="42.85" ry="33.16"/><ellipse cx="133.35" cy="33.16" rx="42.85" ry="33.16"/><ellipse cx="135.05" cy="33.16" rx="42.85" ry="33.16"/><ellipse cx="136.76" cy="33.16" rx="42.85" ry="33.16"/><ellipse cx="138.47" cy="33.16" rx="42.85" ry="33.16"/><ellipse cx="140.18" cy="33.16" rx="42.85" ry="33.16"/><ellipse cx="141.88" cy="33.16" rx="42.85" ry="33.16"/><ellipse cx="143.59" cy="33.16" rx="42.85" ry="33.16"/><ellipse cx="145.3" cy="33.16" rx="42.85" ry="33.16"/><ellipse cx="147.01" cy="33.16" rx="42.85" ry="33.16"/><ellipse cx="148.71" cy="33.16" rx="42.85" ry="33.16"/><ellipse cx="150.42" cy="33.16" rx="42.85" ry="33.16"/><ellipse cx="152.13" cy="33.16" rx="42.85" ry="33.16"/><ellipse cx="153.84" cy="33.16" rx="42.85" ry="33.16"/><ellipse cx="155.54" cy="33.16" rx="42.85" ry="33.16"/><ellipse cx="157.25" cy="33.16" rx="42.85" ry="33.16"/><ellipse cx="158.96" cy="33.16" rx="42.85" ry="33.16"/><ellipse cx="160.67" cy="33.16" rx="42.85" ry="33.16"/><ellipse cx="162.37" cy="33.16" rx="42.85" ry="33.16"/><ellipse cx="164.08" cy="33.16" rx="42.85" ry="33.16"/><ellipse cx="165.79" cy="33.16" rx="42.85" ry="33.16"/></g></g></svg>