<svg xmlns="http://www.w3.org/2000/svg" viewBox="0 0 125 151"><title>iot-管道(21)-19</title><defs><linearGradient id="a" x1="0%" x2="100%" y1="49.985%" y2="49.985%"><stop offset="0%" stop-color="#b7b7b7"/><stop offset="3%" stop-color="#9b9d9d"/><stop offset="7%" stop-color="#878b8b"/><stop offset="9%" stop-color="#808484"/><stop offset="20%" stop-color="#a3a6a6"/><stop offset="49%" stop-color="#f6f6f6"/><stop offset="61%" stop-color="#f3f3f3"/><stop offset="70%" stop-color="#eaeaea"/><stop offset="77%" stop-color="#dbdbdb"/><stop offset="83%" stop-color="#c5c5c5"/><stop offset="90%" stop-color="#aaa"/><stop offset="95%" stop-color="#888"/><stop offset="100%" stop-color="#666"/></linearGradient><linearGradient id="b" x1="0%" x2="100%" y1="49.985%" y2="49.985%"><stop offset="0%" stop-color="#b7b7b7"/><stop offset="3%" stop-color="#9b9d9d"/><stop offset="7%" stop-color="#878b8b"/><stop offset="9%" stop-color="#808484"/><stop offset="20%" stop-color="#a3a6a6"/><stop offset="49%" stop-color="#f6f6f6"/><stop offset="61%" stop-color="#f3f3f3"/><stop offset="70%" stop-color="#eaeaea"/><stop offset="77%" stop-color="#dbdbdb"/><stop offset="83%" stop-color="#c5c5c5"/><stop offset="90%" stop-color="#aaa"/><stop offset="95%" stop-color="#888"/><stop offset="100%" stop-color="#666"/></linearGradient><linearGradient id="c" x1="0%" x2="99.988%" y1="50.048%" y2="50.048%"><stop offset="0%" stop-color="#b7b7b7"/><stop offset="3%" stop-color="#9b9d9d"/><stop offset="7%" stop-color="#878b8b"/><stop offset="9%" stop-color="#808484"/><stop offset="20%" stop-color="#a3a6a6"/><stop offset="49%" stop-color="#f6f6f6"/><stop offset="61%" stop-color="#f3f3f3"/><stop offset="70%" stop-color="#eaeaea"/><stop offset="77%" stop-color="#dbdbdb"/><stop offset="83%" stop-color="#c5c5c5"/><stop offset="90%" stop-color="#aaa"/><stop offset="95%" stop-color="#888"/><stop offset="100%" stop-color="#666"/></linearGradient><linearGradient id="d" x1="100%" x2="0%" y1="50%" y2="50%"><stop offset="0%" stop-color="#b7b7b7"/><stop offset="3%" stop-color="#9b9d9d"/><stop offset="7%" stop-color="#878b8b"/><stop offset="9%" stop-color="#808484"/><stop offset="20%" stop-color="#a3a6a6"/><stop offset="49%" stop-color="#f6f6f6"/><stop offset="61%" stop-color="#f3f3f3"/><stop offset="70%" stop-color="#eaeaea"/><stop offset="77%" stop-color="#dbdbdb"/><stop offset="83%" stop-color="#c5c5c5"/><stop offset="90%" stop-color="#aaa"/><stop offset="95%" stop-color="#888"/><stop offset="100%" stop-color="#666"/></linearGradient><linearGradient id="e" x1="100%" x2="0%" y1="49.977%" y2="49.977%"><stop offset="0%" stop-color="#b7b7b7"/><stop offset="3%" stop-color="#9b9d9d"/><stop offset="7%" stop-color="#878b8b"/><stop offset="9%" stop-color="#808484"/><stop offset="20%" stop-color="#a3a6a6"/><stop offset="49%" stop-color="#f6f6f6"/><stop offset="61%" stop-color="#f3f3f3"/><stop offset="70%" stop-color="#eaeaea"/><stop offset="77%" stop-color="#dbdbdb"/><stop offset="83%" stop-color="#c5c5c5"/><stop offset="90%" stop-color="#aaa"/><stop offset="95%" stop-color="#888"/><stop offset="100%" stop-color="#666"/></linearGradient></defs><g fill="none" fill-rule="nonzero" transform="translate(.17 .59)"><path fill="url(#a)" d="M64.94 58.82h64.81v32.35H64.94z" transform="rotate(-90 97.345 74.995)"/><path fill="url(#b)" d="M55.76 58.68h18.47v32.35H55.76z" transform="rotate(-90 64.995 74.855)"/><path fill="url(#c)" d="M77.47 69.61h82.59V80.1H77.47z" transform="rotate(-90 118.765 74.855)"/><ellipse cx="41.01" cy="128.39" fill="url(#d)" rx="17.4" ry="21.32"/><ellipse cx="41.01" cy="127.54" fill="url(#d)" rx="17.4" ry="21.32"/><ellipse cx="41.01" cy="126.69" fill="url(#d)" rx="17.4" ry="21.32"/><ellipse cx="41.01" cy="125.84" fill="url(#d)" rx="17.4" ry="21.32"/><ellipse cx="41.01" cy="124.99" fill="url(#d)" rx="17.4" ry="21.32"/><ellipse cx="41.01" cy="124.14" fill="url(#d)" rx="17.4" ry="21.32"/><ellipse cx="41.01" cy="123.29" fill="url(#d)" rx="17.4" ry="21.32"/><ellipse cx="41.01" cy="122.44" fill="url(#d)" rx="17.4" ry="21.32"/><ellipse cx="41.01" cy="121.59" fill="url(#d)" rx="17.4" ry="21.32"/><ellipse cx="41.01" cy="120.74" fill="url(#d)" rx="17.4" ry="21.32"/><ellipse cx="41.01" cy="119.89" fill="url(#d)" rx="17.4" ry="21.32"/><ellipse cx="41.01" cy="119.04" fill="url(#d)" rx="17.4" ry="21.32"/><ellipse cx="41.01" cy="118.19" fill="url(#d)" rx="17.4" ry="21.32"/><ellipse cx="41.01" cy="117.34" fill="url(#d)" rx="17.4" ry="21.32"/><ellipse cx="41.01" cy="116.49" fill="url(#d)" rx="17.4" ry="21.32"/><ellipse cx="41.01" cy="115.64" fill="url(#d)" rx="17.4" ry="21.32"/><ellipse cx="41.01" cy="114.79" fill="url(#d)" rx="17.4" ry="21.32"/><ellipse cx="41.01" cy="113.94" fill="url(#d)" rx="17.4" ry="21.32"/><ellipse cx="41.01" cy="113.09" fill="url(#d)" rx="17.4" ry="21.32"/><ellipse cx="41.01" cy="112.24" fill="url(#d)" rx="17.4" ry="21.32"/><ellipse cx="41.01" cy="111.39" fill="url(#d)" rx="17.4" ry="21.32"/><ellipse cx="41.01" cy="110.54" fill="url(#d)" rx="17.4" ry="21.32"/><ellipse cx="41.01" cy="109.69" fill="url(#d)" rx="17.4" ry="21.32"/><ellipse cx="41.01" cy="108.84" fill="url(#d)" rx="17.4" ry="21.32"/><ellipse cx="41.01" cy="107.99" fill="url(#d)" rx="17.4" ry="21.32"/><ellipse cx="41.01" cy="107.14" fill="url(#d)" rx="17.4" ry="21.32"/><ellipse cx="41.01" cy="106.29" fill="url(#d)" rx="17.4" ry="21.32"/><ellipse cx="41.01" cy="105.45" fill="url(#e)" rx="17.4" ry="21.32"/><ellipse cx="41.01" cy="104.6" fill="url(#e)" rx="17.4" ry="21.32"/><ellipse cx="41.01" cy="103.75" fill="url(#e)" rx="17.4" ry="21.32"/><ellipse cx="41.01" cy="102.9" fill="url(#e)" rx="17.4" ry="21.32"/><ellipse cx="41.01" cy="102.05" fill="url(#e)" rx="17.4" ry="21.32"/><ellipse cx="41.01" cy="101.2" fill="url(#e)" rx="17.4" ry="21.32"/><ellipse cx="41.01" cy="100.35" fill="url(#e)" rx="17.4" ry="21.32"/><ellipse cx="41.01" cy="99.5" fill="url(#d)" rx="17.4" ry="21.32"/><ellipse cx="41.01" cy="98.65" fill="url(#d)" rx="17.4" ry="21.32"/><ellipse cx="41.01" cy="97.8" fill="url(#d)" rx="17.4" ry="21.32"/><ellipse cx="41.01" cy="96.95" fill="url(#d)" rx="17.4" ry="21.32"/><ellipse cx="41.01" cy="96.1" fill="url(#d)" rx="17.4" ry="21.32"/><ellipse cx="41.01" cy="95.25" fill="url(#d)" rx="17.4" ry="21.32"/><ellipse cx="41.01" cy="94.4" fill="url(#d)" rx="17.4" ry="21.32"/><ellipse cx="41.01" cy="93.55" fill="url(#d)" rx="17.4" ry="21.32"/><ellipse cx="41.01" cy="92.7" fill="url(#d)" rx="17.4" ry="21.32"/><ellipse cx="41.01" cy="91.85" fill="url(#d)" rx="17.4" ry="21.32"/><ellipse cx="41.01" cy="91" fill="url(#d)" rx="17.4" ry="21.32"/><ellipse cx="41.01" cy="90.15" fill="url(#d)" rx="17.4" ry="21.32"/><ellipse cx="41.01" cy="89.3" fill="url(#d)" rx="17.4" ry="21.32"/><ellipse cx="41.01" cy="88.45" fill="url(#d)" rx="17.4" ry="21.32"/><ellipse cx="41.01" cy="87.6" fill="url(#d)" rx="17.4" ry="21.32"/><ellipse cx="41.01" cy="86.75" fill="url(#d)" rx="17.4" ry="21.32"/><ellipse cx="41.01" cy="85.9" fill="url(#d)" rx="17.4" ry="21.32"/><ellipse cx="41.01" cy="85.05" fill="url(#d)" rx="17.4" ry="21.32"/><ellipse cx="41.01" cy="84.2" fill="url(#d)" rx="17.4" ry="21.32"/><ellipse cx="41.01" cy="83.35" fill="url(#d)" rx="17.4" ry="21.32"/><ellipse cx="41.01" cy="82.5" fill="url(#d)" rx="17.4" ry="21.32"/><ellipse cx="41.01" cy="81.65" fill="url(#d)" rx="17.4" ry="21.32"/><ellipse cx="41.01" cy="80.8" fill="url(#d)" rx="17.4" ry="21.32"/><ellipse cx="41.01" cy="79.95" fill="url(#d)" rx="17.4" ry="21.32"/><ellipse cx="41.01" cy="79.1" fill="url(#d)" rx="17.4" ry="21.32"/><ellipse cx="41.01" cy="78.25" fill="url(#d)" rx="17.4" ry="21.32"/><ellipse cx="41.01" cy="77.4" fill="url(#d)" rx="17.4" ry="21.32"/><ellipse cx="41.01" cy="76.55" fill="url(#d)" rx="17.4" ry="21.32"/><ellipse cx="41.01" cy="75.7" fill="url(#d)" rx="17.4" ry="21.32"/><ellipse cx="41.01" cy="74.85" fill="url(#d)" rx="17.4" ry="21.32"/><ellipse cx="41.01" cy="74" fill="url(#d)" rx="17.4" ry="21.32"/><ellipse cx="41.01" cy="73.16" fill="url(#e)" rx="17.4" ry="21.32"/><ellipse cx="41.01" cy="72.31" fill="url(#e)" rx="17.4" ry="21.32"/><ellipse cx="41.01" cy="71.46" fill="url(#e)" rx="17.4" ry="21.32"/><ellipse cx="41.01" cy="70.61" fill="url(#e)" rx="17.4" ry="21.32"/><ellipse cx="41.01" cy="69.76" fill="url(#e)" rx="17.4" ry="21.32"/><ellipse cx="41.01" cy="68.91" fill="url(#e)" rx="17.4" ry="21.32"/><ellipse cx="41.01" cy="68.06" fill="url(#d)" rx="17.4" ry="21.32"/><ellipse cx="41.01" cy="67.21" fill="url(#d)" rx="17.4" ry="21.32"/><ellipse cx="41.01" cy="66.36" fill="url(#d)" rx="17.4" ry="21.32"/><ellipse cx="41.01" cy="65.51" fill="url(#d)" rx="17.4" ry="21.32"/><ellipse cx="41.01" cy="64.66" fill="url(#d)" rx="17.4" ry="21.32"/><ellipse cx="41.01" cy="63.81" fill="url(#d)" rx="17.4" ry="21.32"/><ellipse cx="41.01" cy="62.96" fill="url(#d)" rx="17.4" ry="21.32"/><ellipse cx="41.01" cy="62.11" fill="url(#d)" rx="17.4" ry="21.32"/><ellipse cx="41.01" cy="61.26" fill="url(#d)" rx="17.4" ry="21.32"/><ellipse cx="41.01" cy="60.41" fill="url(#d)" rx="17.4" ry="21.32"/><ellipse cx="41.01" cy="59.56" fill="url(#d)" rx="17.4" ry="21.32"/><ellipse cx="41.01" cy="58.71" fill="url(#d)" rx="17.4" ry="21.32"/><ellipse cx="41.01" cy="57.86" fill="url(#d)" rx="17.4" ry="21.32"/><ellipse cx="41.01" cy="57.01" fill="url(#d)" rx="17.4" ry="21.32"/><ellipse cx="41.01" cy="56.16" fill="url(#d)" rx="17.4" ry="21.32"/><ellipse cx="41.01" cy="55.31" fill="url(#d)" rx="17.4" ry="21.32"/><ellipse cx="41.01" cy="54.46" fill="url(#d)" rx="17.4" ry="21.32"/><ellipse cx="41.01" cy="53.61" fill="url(#d)" rx="17.4" ry="21.32"/><ellipse cx="41.01" cy="52.76" fill="url(#d)" rx="17.4" ry="21.32"/><ellipse cx="41.01" cy="51.91" fill="url(#d)" rx="17.4" ry="21.32"/><ellipse cx="41.01" cy="51.06" fill="url(#d)" rx="17.4" ry="21.32"/><ellipse cx="41.01" cy="50.21" fill="url(#d)" rx="17.4" ry="21.32"/><ellipse cx="41.01" cy="49.36" fill="url(#d)" rx="17.4" ry="21.32"/><ellipse cx="41.01" cy="48.51" fill="url(#d)" rx="17.4" ry="21.32"/><ellipse cx="41.01" cy="47.66" fill="url(#d)" rx="17.4" ry="21.32"/><ellipse cx="41.01" cy="46.81" fill="url(#d)" rx="17.4" ry="21.32"/><ellipse cx="41.01" cy="45.96" fill="url(#d)" rx="17.4" ry="21.32"/><ellipse cx="41.01" cy="45.11" fill="url(#d)" rx="17.4" ry="21.32"/><ellipse cx="41.01" cy="44.26" fill="url(#d)" rx="17.4" ry="21.32"/><ellipse cx="41.01" cy="43.41" fill="url(#d)" rx="17.4" ry="21.32"/><ellipse cx="41.01" cy="42.56" fill="url(#d)" rx="17.4" ry="21.32"/><ellipse cx="41.01" cy="41.72" fill="url(#e)" rx="17.4" ry="21.32"/><ellipse cx="41.01" cy="40.87" fill="url(#e)" rx="17.4" ry="21.32"/><ellipse cx="41.01" cy="40.02" fill="url(#e)" rx="17.4" ry="21.32"/><ellipse cx="41.01" cy="39.17" fill="url(#e)" rx="17.4" ry="21.32"/><ellipse cx="41.01" cy="38.32" fill="url(#e)" rx="17.4" ry="21.32"/><ellipse cx="41.01" cy="37.47" fill="url(#e)" rx="17.4" ry="21.32"/><ellipse cx="41.01" cy="36.62" fill="url(#e)" rx="17.4" ry="21.32"/><ellipse cx="41.01" cy="35.77" fill="url(#d)" rx="17.4" ry="21.32"/><ellipse cx="41.01" cy="34.92" fill="url(#d)" rx="17.4" ry="21.32"/><ellipse cx="41.01" cy="34.07" fill="url(#d)" rx="17.4" ry="21.32"/><ellipse cx="41.01" cy="33.22" fill="url(#d)" rx="17.4" ry="21.32"/><ellipse cx="41.01" cy="32.37" fill="url(#d)" rx="17.4" ry="21.32"/><ellipse cx="41.01" cy="31.52" fill="url(#d)" rx="17.4" ry="21.32"/><ellipse cx="41.01" cy="30.67" fill="url(#d)" rx="17.4" ry="21.32"/><ellipse cx="41.01" cy="29.82" fill="url(#d)" rx="17.4" ry="21.32"/><ellipse cx="41.01" cy="28.97" fill="url(#d)" rx="17.4" ry="21.32"/><ellipse cx="41.01" cy="28.12" fill="url(#d)" rx="17.4" ry="21.32"/><ellipse cx="41.01" cy="27.27" fill="url(#d)" rx="17.4" ry="21.32"/><ellipse cx="41.01" cy="26.42" fill="url(#d)" rx="17.4" ry="21.32"/><ellipse cx="41.01" cy="25.57" fill="url(#d)" rx="17.4" ry="21.32"/><ellipse cx="41.01" cy="24.72" fill="url(#d)" rx="17.4" ry="21.32"/><ellipse cx="41.01" cy="23.87" fill="url(#d)" rx="17.4" ry="21.32"/><ellipse cx="41.01" cy="23.02" fill="url(#d)" rx="17.4" ry="21.32"/><ellipse cx="41.01" cy="22.17" fill="url(#d)" rx="17.4" ry="21.32"/><ellipse cx="41.01" cy="21.32" fill="url(#d)" rx="17.4" ry="21.32"/><g opacity=".6" transform="translate(0 33.99)"><circle cx="41.01" cy="41.01" r="41.01" fill="#ff2727"/><circle cx="41.01" cy="41.01" r="34.53" fill="#ff2727" stroke="#fff"/><path fill="#fff" d="M16.24 32.67h49.54v16.68H16.24z"/></g></g></svg>