<svg xmlns="http://www.w3.org/2000/svg" viewBox="0 0 151 125"><title>iot-管道(21)-05</title><defs><linearGradient id="a" x1="0%" x2="100%" y1="50.015%" y2="50.015%"><stop offset="0%" stop-color="#b7b7b7"/><stop offset="3%" stop-color="#9b9d9d"/><stop offset="7%" stop-color="#878b8b"/><stop offset="9%" stop-color="#808484"/><stop offset="20%" stop-color="#a3a6a6"/><stop offset="49%" stop-color="#f6f6f6"/><stop offset="61%" stop-color="#f3f3f3"/><stop offset="70%" stop-color="#eaeaea"/><stop offset="77%" stop-color="#dbdbdb"/><stop offset="83%" stop-color="#c5c5c5"/><stop offset="90%" stop-color="#aaa"/><stop offset="95%" stop-color="#888"/><stop offset="100%" stop-color="#666"/></linearGradient><linearGradient id="b" x1="0%" x2="100%" y1="50.015%" y2="50.015%"><stop offset="0%" stop-color="#b7b7b7"/><stop offset="3%" stop-color="#9b9d9d"/><stop offset="7%" stop-color="#878b8b"/><stop offset="9%" stop-color="#808484"/><stop offset="20%" stop-color="#a3a6a6"/><stop offset="49%" stop-color="#f6f6f6"/><stop offset="61%" stop-color="#f3f3f3"/><stop offset="70%" stop-color="#eaeaea"/><stop offset="77%" stop-color="#dbdbdb"/><stop offset="83%" stop-color="#c5c5c5"/><stop offset="90%" stop-color="#aaa"/><stop offset="95%" stop-color="#888"/><stop offset="100%" stop-color="#666"/></linearGradient><linearGradient id="c" x1="0%" x2="100%" y1="49.952%" y2="49.952%"><stop offset="0%" stop-color="#b7b7b7"/><stop offset="3%" stop-color="#9b9d9d"/><stop offset="7%" stop-color="#878b8b"/><stop offset="9%" stop-color="#808484"/><stop offset="20%" stop-color="#a3a6a6"/><stop offset="49%" stop-color="#f6f6f6"/><stop offset="61%" stop-color="#f3f3f3"/><stop offset="70%" stop-color="#eaeaea"/><stop offset="77%" stop-color="#dbdbdb"/><stop offset="83%" stop-color="#c5c5c5"/><stop offset="90%" stop-color="#aaa"/><stop offset="95%" stop-color="#888"/><stop offset="100%" stop-color="#666"/></linearGradient><linearGradient id="d" x1="50.023%" x2="50.023%" y1="0%" y2="100%"><stop offset="0%" stop-color="#b7b7b7"/><stop offset="3%" stop-color="#9b9d9d"/><stop offset="7%" stop-color="#878b8b"/><stop offset="9%" stop-color="#808484"/><stop offset="20%" stop-color="#a3a6a6"/><stop offset="49%" stop-color="#f6f6f6"/><stop offset="61%" stop-color="#f3f3f3"/><stop offset="70%" stop-color="#eaeaea"/><stop offset="77%" stop-color="#dbdbdb"/><stop offset="83%" stop-color="#c5c5c5"/><stop offset="90%" stop-color="#aaa"/><stop offset="95%" stop-color="#888"/><stop offset="100%" stop-color="#666"/></linearGradient><linearGradient id="e" x1="50%" x2="50%" y1="0%" y2="100%"><stop offset="0%" stop-color="#b7b7b7"/><stop offset="3%" stop-color="#9b9d9d"/><stop offset="7%" stop-color="#878b8b"/><stop offset="9%" stop-color="#808484"/><stop offset="20%" stop-color="#a3a6a6"/><stop offset="49%" stop-color="#f6f6f6"/><stop offset="61%" stop-color="#f3f3f3"/><stop offset="70%" stop-color="#eaeaea"/><stop offset="77%" stop-color="#dbdbdb"/><stop offset="83%" stop-color="#c5c5c5"/><stop offset="90%" stop-color="#aaa"/><stop offset="95%" stop-color="#888"/><stop offset="100%" stop-color="#666"/></linearGradient></defs><g fill="none" fill-rule="nonzero" transform="translate(.32 .21)"><path fill="url(#a)" d="M42.68 10.52h64.93v32.41H42.68z" transform="matrix(-1 0 0 -1 150.29 53.45)"/><path fill="url(#b)" d="M65.74 42.93h18.51v32.41H65.74z" transform="matrix(-1 0 0 -1 149.99 118.27)"/><path fill="url(#c)" d="M33.62 0h82.75v10.51H33.62z" transform="matrix(-1 0 0 -1 149.99 10.51)"/><ellipse cx="128.63" cy="83.16" fill="url(#d)" rx="21.36" ry="17.43"/><ellipse cx="127.78" cy="83.16" fill="url(#d)" rx="21.36" ry="17.43"/><ellipse cx="126.93" cy="83.16" fill="url(#e)" rx="21.36" ry="17.43"/><ellipse cx="126.08" cy="83.16" fill="url(#e)" rx="21.36" ry="17.43"/><ellipse cx="125.23" cy="83.16" fill="url(#e)" rx="21.36" ry="17.43"/><ellipse cx="124.38" cy="83.16" fill="url(#e)" rx="21.36" ry="17.43"/><ellipse cx="123.52" cy="83.16" fill="url(#d)" rx="21.36" ry="17.43"/><ellipse cx="122.67" cy="83.16" fill="url(#d)" rx="21.36" ry="17.43"/><ellipse cx="121.82" cy="83.16" fill="url(#d)" rx="21.36" ry="17.43"/><ellipse cx="120.97" cy="83.16" fill="url(#e)" rx="21.36" ry="17.43"/><ellipse cx="120.12" cy="83.16" fill="url(#e)" rx="21.36" ry="17.43"/><ellipse cx="119.27" cy="83.16" fill="url(#e)" rx="21.36" ry="17.43"/><ellipse cx="118.42" cy="83.16" fill="url(#e)" rx="21.36" ry="17.43"/><ellipse cx="117.56" cy="83.16" fill="url(#d)" rx="21.36" ry="17.43"/><ellipse cx="116.71" cy="83.16" fill="url(#d)" rx="21.36" ry="17.43"/><ellipse cx="115.86" cy="83.16" fill="url(#d)" rx="21.36" ry="17.43"/><ellipse cx="115.01" cy="83.16" fill="url(#e)" rx="21.36" ry="17.43"/><ellipse cx="114.16" cy="83.16" fill="url(#e)" rx="21.36" ry="17.43"/><ellipse cx="113.31" cy="83.16" fill="url(#e)" rx="21.36" ry="17.43"/><ellipse cx="112.46" cy="83.16" fill="url(#e)" rx="21.36" ry="17.43"/><ellipse cx="111.61" cy="83.16" fill="url(#e)" rx="21.36" ry="17.43"/><ellipse cx="110.75" cy="83.16" fill="url(#d)" rx="21.36" ry="17.43"/><ellipse cx="109.9" cy="83.16" fill="url(#d)" rx="21.36" ry="17.43"/><ellipse cx="109.05" cy="83.16" fill="url(#d)" rx="21.36" ry="17.43"/><ellipse cx="108.2" cy="83.16" fill="url(#e)" rx="21.36" ry="17.43"/><ellipse cx="107.35" cy="83.16" fill="url(#e)" rx="21.36" ry="17.43"/><ellipse cx="106.5" cy="83.16" fill="url(#e)" rx="21.36" ry="17.43"/><ellipse cx="105.65" cy="83.16" fill="url(#e)" rx="21.36" ry="17.43"/><ellipse cx="104.79" cy="83.16" fill="url(#d)" rx="21.36" ry="17.43"/><ellipse cx="103.94" cy="83.16" fill="url(#d)" rx="21.36" ry="17.43"/><ellipse cx="103.09" cy="83.16" fill="url(#d)" rx="21.36" ry="17.43"/><ellipse cx="102.24" cy="83.16" fill="url(#e)" rx="21.36" ry="17.43"/><ellipse cx="101.39" cy="83.16" fill="url(#e)" rx="21.36" ry="17.43"/><ellipse cx="100.54" cy="83.16" fill="url(#e)" rx="21.36" ry="17.43"/><ellipse cx="99.69" cy="83.16" fill="url(#e)" rx="21.36" ry="17.43"/><ellipse cx="98.83" cy="83.16" fill="url(#d)" rx="21.36" ry="17.43"/><ellipse cx="97.98" cy="83.16" fill="url(#d)" rx="21.36" ry="17.43"/><ellipse cx="97.13" cy="83.16" fill="url(#d)" rx="21.36" ry="17.43"/><ellipse cx="96.28" cy="83.16" fill="url(#e)" rx="21.36" ry="17.43"/><ellipse cx="95.43" cy="83.16" fill="url(#e)" rx="21.36" ry="17.43"/><ellipse cx="94.58" cy="83.16" fill="url(#e)" rx="21.36" ry="17.43"/><ellipse cx="93.73" cy="83.16" fill="url(#e)" rx="21.36" ry="17.43"/><ellipse cx="92.87" cy="83.16" fill="url(#d)" rx="21.36" ry="17.43"/><ellipse cx="92.02" cy="83.16" fill="url(#d)" rx="21.36" ry="17.43"/><ellipse cx="91.17" cy="83.16" fill="url(#d)" rx="21.36" ry="17.43"/><ellipse cx="90.32" cy="83.16" fill="url(#d)" rx="21.36" ry="17.43"/><ellipse cx="89.47" cy="83.16" fill="url(#e)" rx="21.36" ry="17.43"/><ellipse cx="88.62" cy="83.16" fill="url(#e)" rx="21.36" ry="17.43"/><ellipse cx="87.77" cy="83.16" fill="url(#e)" rx="21.36" ry="17.43"/><ellipse cx="86.92" cy="83.16" fill="url(#e)" rx="21.36" ry="17.43"/><ellipse cx="86.06" cy="83.16" fill="url(#d)" rx="21.36" ry="17.43"/><ellipse cx="85.21" cy="83.16" fill="url(#d)" rx="21.36" ry="17.43"/><ellipse cx="84.36" cy="83.16" fill="url(#d)" rx="21.36" ry="17.43"/><ellipse cx="83.51" cy="83.16" fill="url(#e)" rx="21.36" ry="17.43"/><ellipse cx="82.66" cy="83.16" fill="url(#e)" rx="21.36" ry="17.43"/><ellipse cx="81.81" cy="83.16" fill="url(#e)" rx="21.36" ry="17.43"/><ellipse cx="80.96" cy="83.16" fill="url(#e)" rx="21.36" ry="17.43"/><ellipse cx="80.1" cy="83.16" fill="url(#d)" rx="21.36" ry="17.43"/><ellipse cx="79.25" cy="83.16" fill="url(#d)" rx="21.36" ry="17.43"/><ellipse cx="78.4" cy="83.16" fill="url(#d)" rx="21.36" ry="17.43"/><ellipse cx="77.55" cy="83.16" fill="url(#e)" rx="21.36" ry="17.43"/><ellipse cx="76.7" cy="83.16" fill="url(#e)" rx="21.36" ry="17.43"/><ellipse cx="75.85" cy="83.16" fill="url(#e)" rx="21.36" ry="17.43"/><ellipse cx="75" cy="83.16" fill="url(#e)" rx="21.36" ry="17.43"/><ellipse cx="74.14" cy="83.16" fill="url(#d)" rx="21.36" ry="17.43"/><ellipse cx="73.29" cy="83.16" fill="url(#d)" rx="21.36" ry="17.43"/><ellipse cx="72.44" cy="83.16" fill="url(#d)" rx="21.36" ry="17.43"/><ellipse cx="71.59" cy="83.16" fill="url(#e)" rx="21.36" ry="17.43"/><ellipse cx="70.74" cy="83.16" fill="url(#e)" rx="21.36" ry="17.43"/><ellipse cx="69.89" cy="83.16" fill="url(#e)" rx="21.36" ry="17.43"/><ellipse cx="69.04" cy="83.16" fill="url(#e)" rx="21.36" ry="17.43"/><ellipse cx="68.18" cy="83.16" fill="url(#d)" rx="21.36" ry="17.43"/><ellipse cx="67.33" cy="83.16" fill="url(#d)" rx="21.36" ry="17.43"/><ellipse cx="66.48" cy="83.16" fill="url(#d)" rx="21.36" ry="17.43"/><ellipse cx="65.63" cy="83.16" fill="url(#d)" rx="21.36" ry="17.43"/><ellipse cx="64.78" cy="83.16" fill="url(#e)" rx="21.36" ry="17.43"/><ellipse cx="63.93" cy="83.16" fill="url(#e)" rx="21.36" ry="17.43"/><ellipse cx="63.08" cy="83.16" fill="url(#e)" rx="21.36" ry="17.43"/><ellipse cx="62.23" cy="83.16" fill="url(#e)" rx="21.36" ry="17.43"/><ellipse cx="61.37" cy="83.16" fill="url(#d)" rx="21.36" ry="17.43"/><ellipse cx="60.52" cy="83.16" fill="url(#d)" rx="21.36" ry="17.43"/><ellipse cx="59.67" cy="83.16" fill="url(#d)" rx="21.36" ry="17.43"/><ellipse cx="58.82" cy="83.16" fill="url(#e)" rx="21.36" ry="17.43"/><ellipse cx="57.97" cy="83.16" fill="url(#e)" rx="21.36" ry="17.43"/><ellipse cx="57.12" cy="83.16" fill="url(#e)" rx="21.36" ry="17.43"/><ellipse cx="56.27" cy="83.16" fill="url(#e)" rx="21.36" ry="17.43"/><ellipse cx="55.41" cy="83.16" fill="url(#d)" rx="21.36" ry="17.43"/><ellipse cx="54.56" cy="83.16" fill="url(#d)" rx="21.36" ry="17.43"/><ellipse cx="53.71" cy="83.16" fill="url(#d)" rx="21.36" ry="17.43"/><ellipse cx="52.86" cy="83.16" fill="url(#e)" rx="21.36" ry="17.43"/><ellipse cx="52.01" cy="83.16" fill="url(#e)" rx="21.36" ry="17.43"/><ellipse cx="51.16" cy="83.16" fill="url(#e)" rx="21.36" ry="17.43"/><ellipse cx="50.31" cy="83.16" fill="url(#e)" rx="21.36" ry="17.43"/><ellipse cx="49.45" cy="83.16" fill="url(#d)" rx="21.36" ry="17.43"/><ellipse cx="48.6" cy="83.16" fill="url(#d)" rx="21.36" ry="17.43"/><ellipse cx="47.75" cy="83.16" fill="url(#d)" rx="21.36" ry="17.43"/><ellipse cx="46.9" cy="83.16" fill="url(#e)" rx="21.36" ry="17.43"/><ellipse cx="46.05" cy="83.16" fill="url(#e)" rx="21.36" ry="17.43"/><ellipse cx="45.2" cy="83.16" fill="url(#e)" rx="21.36" ry="17.43"/><ellipse cx="44.35" cy="83.16" fill="url(#e)" rx="21.36" ry="17.43"/><ellipse cx="43.5" cy="83.16" fill="url(#e)" rx="21.36" ry="17.43"/><ellipse cx="42.64" cy="83.16" fill="url(#d)" rx="21.36" ry="17.43"/><ellipse cx="41.79" cy="83.16" fill="url(#d)" rx="21.36" ry="17.43"/><ellipse cx="40.94" cy="83.16" fill="url(#d)" rx="21.36" ry="17.43"/><ellipse cx="40.09" cy="83.16" fill="url(#e)" rx="21.36" ry="17.43"/><ellipse cx="39.24" cy="83.16" fill="url(#e)" rx="21.36" ry="17.43"/><ellipse cx="38.39" cy="83.16" fill="url(#e)" rx="21.36" ry="17.43"/><ellipse cx="37.54" cy="83.16" fill="url(#e)" rx="21.36" ry="17.43"/><ellipse cx="36.68" cy="83.16" fill="url(#d)" rx="21.36" ry="17.43"/><ellipse cx="35.83" cy="83.16" fill="url(#d)" rx="21.36" ry="17.43"/><ellipse cx="34.98" cy="83.16" fill="url(#d)" rx="21.36" ry="17.43"/><ellipse cx="34.13" cy="83.16" fill="url(#e)" rx="21.36" ry="17.43"/><ellipse cx="33.28" cy="83.16" fill="url(#e)" rx="21.36" ry="17.43"/><ellipse cx="32.43" cy="83.16" fill="url(#e)" rx="21.36" ry="17.43"/><ellipse cx="31.58" cy="83.16" fill="url(#e)" rx="21.36" ry="17.43"/><ellipse cx="30.72" cy="83.16" fill="url(#d)" rx="21.36" ry="17.43"/><ellipse cx="29.87" cy="83.16" fill="url(#d)" rx="21.36" ry="17.43"/><ellipse cx="29.02" cy="83.16" fill="url(#d)" rx="21.36" ry="17.43"/><ellipse cx="28.17" cy="83.16" fill="url(#e)" rx="21.36" ry="17.43"/><ellipse cx="27.32" cy="83.16" fill="url(#e)" rx="21.36" ry="17.43"/><ellipse cx="26.47" cy="83.16" fill="url(#e)" rx="21.36" ry="17.43"/><ellipse cx="25.62" cy="83.16" fill="url(#e)" rx="21.36" ry="17.43"/><ellipse cx="24.76" cy="83.16" fill="url(#d)" rx="21.36" ry="17.43"/><ellipse cx="23.91" cy="83.16" fill="url(#d)" rx="21.36" ry="17.43"/><ellipse cx="23.06" cy="83.16" fill="url(#d)" rx="21.36" ry="17.43"/><ellipse cx="22.21" cy="83.16" fill="url(#e)" rx="21.36" ry="17.43"/><ellipse cx="21.36" cy="83.16" fill="url(#e)" rx="21.36" ry="17.43"/><g opacity=".6" transform="translate(34.05 42.07)"><circle cx="41.09" cy="41.09" r="41.09" fill="#ff2727"/><circle cx="41.09" cy="41.09" r="34.59" fill="#ff2727" stroke="#fff"/><path fill="#fff" d="M16.27 32.74h49.64v16.72H16.27z"/></g></g></svg>