<svg xmlns="http://www.w3.org/2000/svg" viewBox="0 0 214 64"><title>iot-管道(21)-12</title><defs><linearGradient id="a" x1="50%" x2="50%" y1="0%" y2="100%"><stop offset="0%" stop-color="#b7b7b7"/><stop offset="3%" stop-color="#9b9d9d"/><stop offset="7%" stop-color="#878b8b"/><stop offset="9%" stop-color="#808484"/><stop offset="20%" stop-color="#a3a6a6"/><stop offset="49%" stop-color="#f6f6f6"/><stop offset="61%" stop-color="#f3f3f3"/><stop offset="70%" stop-color="#eaeaea"/><stop offset="77%" stop-color="#dbdbdb"/><stop offset="83%" stop-color="#c5c5c5"/><stop offset="90%" stop-color="#aaa"/><stop offset="95%" stop-color="#888"/><stop offset="100%" stop-color="#666"/></linearGradient><linearGradient id="b" x1="50.016%" x2="50.016%" y1="0%" y2="100%"><stop offset="0%" stop-color="#b7b7b7"/><stop offset="3%" stop-color="#9b9d9d"/><stop offset="7%" stop-color="#878b8b"/><stop offset="9%" stop-color="#808484"/><stop offset="20%" stop-color="#a3a6a6"/><stop offset="49%" stop-color="#f6f6f6"/><stop offset="61%" stop-color="#f3f3f3"/><stop offset="70%" stop-color="#eaeaea"/><stop offset="77%" stop-color="#dbdbdb"/><stop offset="83%" stop-color="#c5c5c5"/><stop offset="90%" stop-color="#aaa"/><stop offset="95%" stop-color="#888"/><stop offset="100%" stop-color="#666"/></linearGradient></defs><g fill="none" fill-rule="nonzero" transform="translate(.91 .3)"><circle cx="180.78" cy="31.48" r="31.48" fill="url(#a)"/><circle cx="179.52" cy="31.48" r="31.48" fill="url(#b)"/><circle cx="178.27" cy="31.48" r="31.48" fill="url(#a)"/><circle cx="177.02" cy="31.48" r="31.48" fill="url(#a)"/><circle cx="175.76" cy="31.48" r="31.48" fill="url(#a)"/><circle cx="174.51" cy="31.48" r="31.48" fill="url(#a)"/><circle cx="173.25" cy="31.48" r="31.48" fill="url(#a)"/><circle cx="172" cy="31.48" r="31.48" fill="url(#a)"/><circle cx="170.74" cy="31.48" r="31.48" fill="url(#a)"/><circle cx="169.49" cy="31.48" r="31.48" fill="url(#a)"/><circle cx="168.23" cy="31.48" r="31.48" fill="url(#b)"/><circle cx="166.98" cy="31.48" r="31.48" fill="url(#a)"/><circle cx="165.72" cy="31.48" r="31.48" fill="url(#b)"/><circle cx="164.47" cy="31.48" r="31.48" fill="url(#a)"/><circle cx="163.21" cy="31.48" r="31.48" fill="url(#b)"/><circle cx="161.96" cy="31.48" r="31.48" fill="url(#a)"/><circle cx="160.71" cy="31.48" r="31.48" fill="url(#a)"/><circle cx="159.45" cy="31.48" r="31.48" fill="url(#a)"/><circle cx="158.2" cy="31.48" r="31.48" fill="url(#a)"/><circle cx="156.94" cy="31.48" r="31.48" fill="url(#a)"/><circle cx="155.69" cy="31.48" r="31.48" fill="url(#a)"/><circle cx="154.43" cy="31.48" r="31.48" fill="url(#a)"/><circle cx="153.18" cy="31.48" r="31.48" fill="url(#a)"/><circle cx="151.92" cy="31.48" r="31.48" fill="url(#b)"/><circle cx="150.67" cy="31.48" r="31.48" fill="url(#a)"/><circle cx="149.41" cy="31.48" r="31.48" fill="url(#b)"/><circle cx="148.16" cy="31.48" r="31.48" fill="url(#a)"/><circle cx="146.91" cy="31.48" r="31.48" fill="url(#a)"/><circle cx="145.65" cy="31.48" r="31.48" fill="url(#a)"/><circle cx="144.4" cy="31.48" r="31.48" fill="url(#a)"/><circle cx="143.14" cy="31.48" r="31.48" fill="url(#a)"/><circle cx="141.89" cy="31.48" r="31.48" fill="url(#a)"/><circle cx="140.63" cy="31.48" r="31.48" fill="url(#a)"/><circle cx="139.38" cy="31.48" r="31.48" fill="url(#a)"/><circle cx="138.12" cy="31.48" r="31.48" fill="url(#b)"/><circle cx="136.87" cy="31.48" r="31.48" fill="url(#a)"/><circle cx="135.61" cy="31.48" r="31.48" fill="url(#b)"/><circle cx="134.36" cy="31.48" r="31.48" fill="url(#a)"/><circle cx="133.1" cy="31.48" r="31.48" fill="url(#b)"/><circle cx="131.85" cy="31.48" r="31.48" fill="url(#a)"/><circle cx="130.6" cy="31.48" r="31.48" fill="url(#a)"/><circle cx="129.34" cy="31.48" r="31.48" fill="url(#a)"/><circle cx="128.09" cy="31.48" r="31.48" fill="url(#a)"/><circle cx="126.83" cy="31.48" r="31.48" fill="url(#a)"/><circle cx="125.58" cy="31.48" r="31.48" fill="url(#a)"/><circle cx="124.32" cy="31.48" r="31.48" fill="url(#a)"/><circle cx="123.07" cy="31.48" r="31.48" fill="url(#a)"/><circle cx="121.81" cy="31.48" r="31.48" fill="url(#b)"/><circle cx="120.56" cy="31.48" r="31.48" fill="url(#a)"/><circle cx="119.3" cy="31.48" r="31.48" fill="url(#b)"/><circle cx="118.05" cy="31.48" r="31.48" fill="url(#a)"/><circle cx="116.8" cy="31.48" r="31.48" fill="url(#a)"/><circle cx="115.54" cy="31.48" r="31.48" fill="url(#a)"/><circle cx="114.29" cy="31.48" r="31.48" fill="url(#a)"/><circle cx="113.03" cy="31.48" r="31.48" fill="url(#a)"/><circle cx="111.78" cy="31.48" r="31.48" fill="url(#a)"/><circle cx="110.52" cy="31.48" r="31.48" fill="url(#a)"/><circle cx="109.27" cy="31.48" r="31.48" fill="url(#a)"/><circle cx="108.01" cy="31.48" r="31.48" fill="url(#b)"/><circle cx="106.76" cy="31.48" r="31.48" fill="url(#a)"/><circle cx="105.5" cy="31.48" r="31.48" fill="url(#b)"/><circle cx="104.25" cy="31.48" r="31.48" fill="url(#a)"/><circle cx="103" cy="31.48" r="31.48" fill="url(#a)"/><circle cx="101.74" cy="31.48" r="31.48" fill="url(#a)"/><circle cx="100.49" cy="31.48" r="31.48" fill="url(#a)"/><circle cx="99.23" cy="31.48" r="31.48" fill="url(#a)"/><circle cx="97.98" cy="31.48" r="31.48" fill="url(#a)"/><circle cx="96.72" cy="31.48" r="31.48" fill="url(#a)"/><circle cx="95.47" cy="31.48" r="31.48" fill="url(#a)"/><circle cx="94.21" cy="31.48" r="31.48" fill="url(#a)"/><circle cx="92.96" cy="31.48" r="31.48" fill="url(#a)"/><circle cx="91.7" cy="31.48" r="31.48" fill="url(#b)"/><circle cx="90.45" cy="31.48" r="31.48" fill="url(#a)"/><circle cx="89.19" cy="31.48" r="31.48" fill="url(#b)"/><circle cx="87.94" cy="31.48" r="31.48" fill="url(#a)"/><circle cx="86.69" cy="31.48" r="31.48" fill="url(#a)"/><circle cx="85.43" cy="31.48" r="31.48" fill="url(#a)"/><circle cx="84.18" cy="31.48" r="31.48" fill="url(#a)"/><circle cx="82.92" cy="31.48" r="31.48" fill="url(#a)"/><circle cx="81.67" cy="31.48" r="31.48" fill="url(#a)"/><circle cx="80.41" cy="31.48" r="31.48" fill="url(#a)"/><circle cx="79.16" cy="31.48" r="31.48" fill="url(#a)"/><circle cx="77.9" cy="31.48" r="31.48" fill="url(#b)"/><circle cx="76.65" cy="31.48" r="31.48" fill="url(#a)"/><circle cx="75.39" cy="31.48" r="31.48" fill="url(#b)"/><circle cx="74.14" cy="31.48" r="31.48" fill="url(#a)"/><circle cx="72.89" cy="31.48" r="31.48" fill="url(#a)"/><circle cx="71.63" cy="31.48" r="31.48" fill="url(#a)"/><circle cx="70.38" cy="31.48" r="31.48" fill="url(#a)"/><circle cx="69.12" cy="31.48" r="31.48" fill="url(#a)"/><circle cx="67.87" cy="31.48" r="31.48" fill="url(#a)"/><circle cx="66.61" cy="31.48" r="31.48" fill="url(#a)"/><circle cx="65.36" cy="31.48" r="31.48" fill="url(#a)"/><circle cx="64.1" cy="31.48" r="31.48" fill="url(#a)"/><circle cx="62.85" cy="31.48" r="31.48" fill="url(#a)"/><circle cx="61.59" cy="31.48" r="31.48" fill="url(#b)"/><circle cx="60.34" cy="31.48" r="31.48" fill="url(#a)"/><circle cx="59.08" cy="31.48" r="31.48" fill="url(#b)"/><circle cx="57.83" cy="31.48" r="31.48" fill="url(#a)"/><circle cx="56.58" cy="31.48" r="31.48" fill="url(#a)"/><circle cx="55.32" cy="31.48" r="31.48" fill="url(#a)"/><circle cx="54.07" cy="31.48" r="31.48" fill="url(#a)"/><circle cx="52.81" cy="31.48" r="31.48" fill="url(#a)"/><circle cx="51.56" cy="31.48" r="31.48" fill="url(#a)"/><circle cx="50.3" cy="31.48" r="31.48" fill="url(#a)"/><circle cx="49.05" cy="31.48" r="31.48" fill="url(#a)"/><circle cx="47.79" cy="31.48" r="31.48" fill="url(#b)"/><circle cx="46.54" cy="31.48" r="31.48" fill="url(#a)"/><circle cx="45.28" cy="31.48" r="31.48" fill="url(#b)"/><circle cx="44.03" cy="31.48" r="31.48" fill="url(#a)"/><circle cx="42.78" cy="31.48" r="31.48" fill="url(#a)"/><circle cx="41.52" cy="31.48" r="31.48" fill="url(#a)"/><circle cx="40.27" cy="31.48" r="31.48" fill="url(#a)"/><circle cx="39.01" cy="31.48" r="31.48" fill="url(#a)"/><circle cx="37.76" cy="31.48" r="31.48" fill="url(#a)"/><circle cx="36.5" cy="31.48" r="31.48" fill="url(#a)"/><circle cx="35.25" cy="31.48" r="31.48" fill="url(#a)"/><circle cx="33.99" cy="31.48" r="31.48" fill="url(#a)"/><circle cx="32.74" cy="31.48" r="31.48" fill="url(#a)"/><circle cx="31.48" cy="31.48" r="31.48" fill="url(#b)"/></g></svg>