<svg xmlns="http://www.w3.org/2000/svg" viewBox="0 0 208 239"><title>iot-管道(21)-02</title><defs><linearGradient id="a" x1="50%" x2="50%" y1="100.017%" y2="0%"><stop offset="0%" stop-color="#b7b7b7"/><stop offset="3%" stop-color="#9b9d9d"/><stop offset="7%" stop-color="#878b8b"/><stop offset="9%" stop-color="#808484"/><stop offset="20%" stop-color="#a3a6a6"/><stop offset="49%" stop-color="#f6f6f6"/><stop offset="61%" stop-color="#f3f3f3"/><stop offset="70%" stop-color="#eaeaea"/><stop offset="77%" stop-color="#dbdbdb"/><stop offset="83%" stop-color="#c5c5c5"/><stop offset="90%" stop-color="#aaa"/><stop offset="95%" stop-color="#888"/><stop offset="100%" stop-color="#666"/></linearGradient><linearGradient id="b" x1="-.017%" x2="100%" y1="50%" y2="50%"><stop offset="0%" stop-color="#b7b7b7"/><stop offset="3%" stop-color="#9b9d9d"/><stop offset="7%" stop-color="#878b8b"/><stop offset="9%" stop-color="#808484"/><stop offset="20%" stop-color="#a3a6a6"/><stop offset="49%" stop-color="#f6f6f6"/><stop offset="61%" stop-color="#f3f3f3"/><stop offset="70%" stop-color="#eaeaea"/><stop offset="77%" stop-color="#dbdbdb"/><stop offset="83%" stop-color="#c5c5c5"/><stop offset="90%" stop-color="#aaa"/><stop offset="95%" stop-color="#888"/><stop offset="100%" stop-color="#666"/></linearGradient><linearGradient id="c" x1="-.017%" x2="100%" y1="49.989%" y2="49.989%"><stop offset="0%" stop-color="#b7b7b7"/><stop offset="3%" stop-color="#9b9d9d"/><stop offset="7%" stop-color="#878b8b"/><stop offset="9%" stop-color="#808484"/><stop offset="20%" stop-color="#a3a6a6"/><stop offset="49%" stop-color="#f6f6f6"/><stop offset="61%" stop-color="#f3f3f3"/><stop offset="70%" stop-color="#eaeaea"/><stop offset="77%" stop-color="#dbdbdb"/><stop offset="83%" stop-color="#c5c5c5"/><stop offset="90%" stop-color="#aaa"/><stop offset="95%" stop-color="#888"/><stop offset="100%" stop-color="#666"/></linearGradient></defs><g fill="none" fill-rule="nonzero" transform="translate(.39 .3)"><circle cx="29.45" cy="29.45" r="29.45" fill="url(#a)"/><circle cx="30.62" cy="29.45" r="29.45" fill="url(#a)"/><circle cx="31.79" cy="29.45" r="29.45" fill="url(#a)"/><circle cx="32.97" cy="29.45" r="29.45" fill="url(#a)"/><circle cx="34.14" cy="29.45" r="29.45" fill="url(#a)"/><circle cx="35.32" cy="29.45" r="29.45" fill="url(#a)"/><circle cx="36.49" cy="29.45" r="29.45" fill="url(#a)"/><circle cx="37.66" cy="29.45" r="29.45" fill="url(#a)"/><circle cx="38.84" cy="29.45" r="29.45" fill="url(#a)"/><circle cx="40.01" cy="29.45" r="29.45" fill="url(#a)"/><circle cx="41.19" cy="29.45" r="29.45" fill="url(#a)"/><circle cx="42.36" cy="29.45" r="29.45" fill="url(#a)"/><circle cx="43.53" cy="29.45" r="29.45" fill="url(#a)"/><circle cx="44.71" cy="29.45" r="29.45" fill="url(#a)"/><circle cx="45.88" cy="29.45" r="29.45" fill="url(#a)"/><circle cx="47.05" cy="29.45" r="29.45" fill="url(#a)"/><circle cx="48.23" cy="29.45" r="29.45" fill="url(#a)"/><circle cx="49.4" cy="29.45" r="29.45" fill="url(#a)"/><circle cx="50.58" cy="29.45" r="29.45" fill="url(#a)"/><circle cx="51.75" cy="29.45" r="29.45" fill="url(#a)"/><circle cx="52.92" cy="29.45" r="29.45" fill="url(#a)"/><circle cx="54.1" cy="29.45" r="29.45" fill="url(#a)"/><circle cx="55.27" cy="29.45" r="29.45" fill="url(#a)"/><circle cx="56.44" cy="29.45" r="29.45" fill="url(#a)"/><circle cx="57.62" cy="29.45" r="29.45" fill="url(#a)"/><circle cx="58.79" cy="29.45" r="29.45" fill="url(#a)"/><circle cx="59.97" cy="29.45" r="29.45" fill="url(#a)"/><circle cx="61.14" cy="29.45" r="29.45" fill="url(#a)"/><circle cx="62.31" cy="29.45" r="29.45" fill="url(#a)"/><circle cx="63.49" cy="29.45" r="29.45" fill="url(#a)"/><circle cx="64.66" cy="29.45" r="29.45" fill="url(#a)"/><circle cx="65.84" cy="29.45" r="29.45" fill="url(#a)"/><circle cx="67.01" cy="29.45" r="29.45" fill="url(#a)"/><circle cx="68.18" cy="29.45" r="29.45" fill="url(#a)"/><circle cx="69.36" cy="29.45" r="29.45" fill="url(#a)"/><circle cx="70.53" cy="29.45" r="29.45" fill="url(#a)"/><circle cx="71.7" cy="29.45" r="29.45" fill="url(#a)"/><circle cx="72.88" cy="29.45" r="29.45" fill="url(#a)"/><circle cx="74.05" cy="29.45" r="29.45" fill="url(#a)"/><circle cx="75.23" cy="29.45" r="29.45" fill="url(#a)"/><circle cx="76.4" cy="29.45" r="29.45" fill="url(#a)"/><circle cx="77.57" cy="29.45" r="29.45" fill="url(#a)"/><circle cx="78.75" cy="29.45" r="29.45" fill="url(#a)"/><circle cx="79.92" cy="29.45" r="29.45" fill="url(#a)"/><circle cx="81.09" cy="29.45" r="29.45" fill="url(#a)"/><circle cx="82.27" cy="29.45" r="29.45" fill="url(#a)"/><circle cx="83.44" cy="29.45" r="29.45" fill="url(#a)"/><circle cx="84.62" cy="29.45" r="29.45" fill="url(#a)"/><circle cx="85.79" cy="29.45" r="29.45" fill="url(#a)"/><circle cx="86.96" cy="29.45" r="29.45" fill="url(#a)"/><circle cx="88.14" cy="29.45" r="29.45" fill="url(#a)"/><circle cx="89.31" cy="29.45" r="29.45" fill="url(#a)"/><circle cx="90.49" cy="29.45" r="29.45" fill="url(#a)"/><circle cx="91.66" cy="29.45" r="29.45" fill="url(#a)"/><circle cx="92.83" cy="29.45" r="29.45" fill="url(#a)"/><circle cx="94.01" cy="29.45" r="29.45" fill="url(#a)"/><circle cx="95.18" cy="29.45" r="29.45" fill="url(#a)"/><circle cx="96.35" cy="29.45" r="29.45" fill="url(#a)"/><circle cx="97.53" cy="29.45" r="29.45" fill="url(#a)"/><circle cx="98.7" cy="29.45" r="29.45" fill="url(#a)"/><circle cx="99.88" cy="29.45" r="29.45" fill="url(#a)"/><circle cx="101.05" cy="29.45" r="29.45" fill="url(#a)"/><circle cx="102.22" cy="29.45" r="29.45" fill="url(#a)"/><circle cx="103.4" cy="29.45" r="29.45" fill="url(#a)"/><circle cx="104.57" cy="29.45" r="29.45" fill="url(#a)"/><circle cx="105.74" cy="29.45" r="29.45" fill="url(#a)"/><circle cx="106.92" cy="29.45" r="29.45" fill="url(#a)"/><circle cx="108.09" cy="29.45" r="29.45" fill="url(#a)"/><circle cx="109.27" cy="29.45" r="29.45" fill="url(#a)"/><circle cx="110.44" cy="29.45" r="29.45" fill="url(#a)"/><circle cx="111.61" cy="29.45" r="29.45" fill="url(#a)"/><circle cx="112.79" cy="29.45" r="29.45" fill="url(#a)"/><circle cx="113.96" cy="29.45" r="29.45" fill="url(#a)"/><circle cx="115.14" cy="29.45" r="29.45" fill="url(#a)"/><circle cx="116.31" cy="29.45" r="29.45" fill="url(#a)"/><circle cx="117.48" cy="29.45" r="29.45" fill="url(#a)"/><circle cx="118.66" cy="29.45" r="29.45" fill="url(#a)"/><circle cx="119.83" cy="29.45" r="29.45" fill="url(#a)"/><circle cx="121" cy="29.45" r="29.45" fill="url(#a)"/><circle cx="122.18" cy="29.45" r="29.45" fill="url(#a)"/><circle cx="123.35" cy="29.45" r="29.45" fill="url(#a)"/><circle cx="124.53" cy="29.45" r="29.45" fill="url(#a)"/><circle cx="125.7" cy="29.45" r="29.45" fill="url(#a)"/><circle cx="126.87" cy="29.45" r="29.45" fill="url(#a)"/><circle cx="128.05" cy="29.45" r="29.45" fill="url(#a)"/><circle cx="129.22" cy="29.45" r="29.45" fill="url(#a)"/><circle cx="130.39" cy="29.45" r="29.45" fill="url(#a)"/><circle cx="131.57" cy="29.45" r="29.45" fill="url(#a)"/><circle cx="132.74" cy="29.45" r="29.45" fill="url(#a)"/><circle cx="133.92" cy="29.45" r="29.45" fill="url(#a)"/><circle cx="135.09" cy="29.45" r="29.45" fill="url(#a)"/><circle cx="136.26" cy="29.45" r="29.45" fill="url(#a)"/><circle cx="137.44" cy="29.45" r="29.45" fill="url(#a)"/><circle cx="138.61" cy="29.45" r="29.45" fill="url(#a)"/><circle cx="139.79" cy="29.45" r="29.45" fill="url(#a)"/><circle cx="140.96" cy="29.45" r="29.45" fill="url(#a)"/><circle cx="142.13" cy="29.45" r="29.45" fill="url(#a)"/><circle cx="143.31" cy="29.45" r="29.45" fill="url(#a)"/><circle cx="144.48" cy="29.45" r="29.45" fill="url(#a)"/><circle cx="145.65" cy="29.45" r="29.45" fill="url(#a)"/><circle cx="146.83" cy="29.45" r="29.45" fill="url(#a)"/><circle cx="148" cy="29.45" r="29.45" fill="url(#a)"/><circle cx="149.18" cy="29.45" r="29.45" fill="url(#a)"/><circle cx="150.35" cy="29.45" r="29.45" fill="url(#a)"/><circle cx="151.52" cy="29.45" r="29.45" fill="url(#a)"/><circle cx="152.7" cy="29.45" r="29.45" fill="url(#a)"/><circle cx="153.87" cy="29.45" r="29.45" fill="url(#a)"/><circle cx="155.04" cy="29.45" r="29.45" fill="url(#a)"/><circle cx="156.22" cy="29.45" r="29.45" fill="url(#a)"/><circle cx="157.39" cy="29.45" r="29.45" fill="url(#a)"/><circle cx="158.57" cy="29.45" r="29.45" fill="url(#a)"/><circle cx="159.74" cy="29.45" r="29.45" fill="url(#a)"/><circle cx="160.91" cy="29.45" r="29.45" fill="url(#a)"/><circle cx="162.09" cy="29.45" r="29.45" fill="url(#a)"/><circle cx="163.26" cy="29.45" r="29.45" fill="url(#a)"/><circle cx="164.44" cy="29.45" r="29.45" fill="url(#a)"/><circle cx="165.61" cy="29.45" r="29.45" fill="url(#a)"/><circle cx="166.78" cy="29.45" r="29.45" fill="url(#a)"/><circle cx="167.96" cy="29.45" r="29.45" fill="url(#a)"/><circle cx="169.13" cy="29.45" r="29.45" fill="url(#a)"/><circle cx="170.3" cy="29.45" r="29.45" fill="url(#a)"/><circle cx="171.48" cy="29.45" r="29.45" fill="url(#a)"/><circle cx="172.65" cy="29.45" r="29.45" fill="url(#a)"/><circle cx="173.83" cy="29.45" r="29.45" fill="url(#a)"/><circle cx="175" cy="29.45" r="29.45" fill="url(#a)"/><circle cx="176.17" cy="29.45" r="29.45" fill="url(#a)"/><circle cx="177.35" cy="29.45" r="29.45" fill="url(#a)"/><g transform="translate(73.95 20.25)"><ellipse cx="29.45" cy="44.85" fill="url(#b)" rx="29.45" ry="44.85"/><ellipse cx="29.45" cy="46.64" fill="url(#b)" rx="29.45" ry="44.85"/><ellipse cx="29.45" cy="48.43" fill="url(#c)" rx="29.45" ry="44.85"/><ellipse cx="29.45" cy="50.21" fill="url(#b)" rx="29.45" ry="44.85"/><ellipse cx="29.45" cy="52" fill="url(#b)" rx="29.45" ry="44.85"/><ellipse cx="29.45" cy="53.79" fill="url(#b)" rx="29.45" ry="44.85"/><ellipse cx="29.45" cy="55.57" fill="url(#b)" rx="29.45" ry="44.85"/><ellipse cx="29.45" cy="57.36" fill="url(#b)" rx="29.45" ry="44.85"/><ellipse cx="29.45" cy="59.15" fill="url(#b)" rx="29.45" ry="44.85"/><ellipse cx="29.45" cy="60.94" fill="url(#c)" rx="29.45" ry="44.85"/><ellipse cx="29.45" cy="62.72" fill="url(#b)" rx="29.45" ry="44.85"/><ellipse cx="29.45" cy="64.51" fill="url(#b)" rx="29.45" ry="44.85"/><ellipse cx="29.45" cy="66.3" fill="url(#b)" rx="29.45" ry="44.85"/><ellipse cx="29.45" cy="68.09" fill="url(#c)" rx="29.45" ry="44.85"/><ellipse cx="29.45" cy="69.87" fill="url(#b)" rx="29.45" ry="44.85"/><ellipse cx="29.45" cy="71.66" fill="url(#b)" rx="29.45" ry="44.85"/><ellipse cx="29.45" cy="73.45" fill="url(#c)" rx="29.45" ry="44.85"/><ellipse cx="29.45" cy="75.23" fill="url(#b)" rx="29.45" ry="44.85"/><ellipse cx="29.45" cy="77.02" fill="url(#b)" rx="29.45" ry="44.85"/><ellipse cx="29.45" cy="78.81" fill="url(#b)" rx="29.45" ry="44.85"/><ellipse cx="29.45" cy="80.6" fill="url(#c)" rx="29.45" ry="44.85"/><ellipse cx="29.45" cy="82.38" fill="url(#b)" rx="29.45" ry="44.85"/><ellipse cx="29.45" cy="84.17" fill="url(#b)" rx="29.45" ry="44.85"/><ellipse cx="29.45" cy="85.96" fill="url(#b)" rx="29.45" ry="44.85"/><ellipse cx="29.45" cy="87.74" fill="url(#b)" rx="29.45" ry="44.85"/><ellipse cx="29.45" cy="89.53" fill="url(#b)" rx="29.45" ry="44.85"/><ellipse cx="29.45" cy="91.32" fill="url(#b)" rx="29.45" ry="44.85"/><ellipse cx="29.45" cy="93.11" fill="url(#c)" rx="29.45" ry="44.85"/><ellipse cx="29.45" cy="94.89" fill="url(#b)" rx="29.45" ry="44.85"/><ellipse cx="29.45" cy="96.68" fill="url(#b)" rx="29.45" ry="44.85"/><ellipse cx="29.45" cy="98.47" fill="url(#b)" rx="29.45" ry="44.85"/><ellipse cx="29.45" cy="100.26" fill="url(#c)" rx="29.45" ry="44.85"/><ellipse cx="29.45" cy="102.04" fill="url(#b)" rx="29.45" ry="44.85"/><ellipse cx="29.45" cy="103.83" fill="url(#b)" rx="29.45" ry="44.85"/><ellipse cx="29.45" cy="105.62" fill="url(#c)" rx="29.45" ry="44.85"/><ellipse cx="29.45" cy="107.4" fill="url(#b)" rx="29.45" ry="44.85"/><ellipse cx="29.45" cy="109.19" fill="url(#b)" rx="29.45" ry="44.85"/><ellipse cx="29.45" cy="110.98" fill="url(#b)" rx="29.45" ry="44.85"/><ellipse cx="29.45" cy="112.77" fill="url(#c)" rx="29.45" ry="44.85"/><ellipse cx="29.45" cy="114.55" fill="url(#b)" rx="29.45" ry="44.85"/><ellipse cx="29.45" cy="116.34" fill="url(#b)" rx="29.45" ry="44.85"/><ellipse cx="29.45" cy="118.13" fill="url(#b)" rx="29.45" ry="44.85"/><ellipse cx="29.45" cy="119.91" fill="url(#b)" rx="29.45" ry="44.85"/><ellipse cx="29.45" cy="121.7" fill="url(#b)" rx="29.45" ry="44.85"/><ellipse cx="29.45" cy="123.49" fill="url(#b)" rx="29.45" ry="44.85"/><ellipse cx="29.45" cy="125.28" fill="url(#c)" rx="29.45" ry="44.85"/><ellipse cx="29.45" cy="127.06" fill="url(#b)" rx="29.45" ry="44.85"/><ellipse cx="29.45" cy="128.85" fill="url(#b)" rx="29.45" ry="44.85"/><ellipse cx="29.45" cy="130.64" fill="url(#b)" rx="29.45" ry="44.85"/><ellipse cx="29.45" cy="132.43" fill="url(#c)" rx="29.45" ry="44.85"/><ellipse cx="29.45" cy="134.21" fill="url(#b)" rx="29.45" ry="44.85"/><ellipse cx="29.45" cy="136" fill="url(#b)" rx="29.45" ry="44.85"/><ellipse cx="29.45" cy="137.79" fill="url(#c)" rx="29.45" ry="44.85"/><ellipse cx="29.45" cy="139.57" fill="url(#b)" rx="29.45" ry="44.85"/><ellipse cx="29.45" cy="141.36" fill="url(#b)" rx="29.45" ry="44.85"/><ellipse cx="29.45" cy="143.15" fill="url(#b)" rx="29.45" ry="44.85"/><ellipse cx="29.45" cy="144.94" fill="url(#c)" rx="29.45" ry="44.85"/><ellipse cx="29.45" cy="146.72" fill="url(#b)" rx="29.45" ry="44.85"/><ellipse cx="29.45" cy="148.51" fill="url(#b)" rx="29.45" ry="44.85"/><ellipse cx="29.45" cy="150.3" fill="url(#c)" rx="29.45" ry="44.85"/><ellipse cx="29.45" cy="152.08" fill="url(#b)" rx="29.45" ry="44.85"/><ellipse cx="29.45" cy="153.87" fill="url(#b)" rx="29.45" ry="44.85"/><ellipse cx="29.45" cy="155.66" fill="url(#b)" rx="29.45" ry="44.85"/><ellipse cx="29.45" cy="157.45" fill="url(#c)" rx="29.45" ry="44.85"/><ellipse cx="29.45" cy="159.23" fill="url(#b)" rx="29.45" ry="44.85"/><ellipse cx="29.45" cy="161.02" fill="url(#b)" rx="29.45" ry="44.85"/><ellipse cx="29.45" cy="162.81" fill="url(#b)" rx="29.45" ry="44.85"/><ellipse cx="29.45" cy="164.6" fill="url(#c)" rx="29.45" ry="44.85"/><ellipse cx="29.45" cy="166.38" fill="url(#b)" rx="29.45" ry="44.85"/><ellipse cx="29.45" cy="168.17" fill="url(#b)" rx="29.45" ry="44.85"/><ellipse cx="29.45" cy="169.96" fill="url(#c)" rx="29.45" ry="44.85"/><ellipse cx="29.45" cy="171.74" fill="url(#b)" rx="29.45" ry="44.85"/><ellipse cx="29.45" cy="173.53" fill="url(#b)" rx="29.45" ry="44.85"/></g></g></svg>