<svg xmlns="http://www.w3.org/2000/svg" xml:space="preserve" id="图层_1" x="0" y="0" viewBox="0 0 25 25"><style>.st0{fill:none;stroke:#fff;stroke-miterlimit:10}</style><path d="M12.5 0C19.4 0 25 5.6 25 12.5c0 3.3-1.3 6.5-3.7 8.8S15.8 25 12.5 25 6 23.7 3.7 21.3 0 15.8 0 12.5C0 5.6 5.6 0 12.5 0z" class="st0"/><path d="M19.8 5.2 9.9 9.9l-4.7 9.9 9.9-4.7z" class="st0"/><path d="M12.5 10.9c.4 0 .8.2 1.1.5s.5.7.5 1.1-.2.8-.5 1.1-.7.5-1.1.5-.8-.2-1.1-.5-.5-.7-.5-1.1c0-.9.7-1.6 1.6-1.6zM0 0" class="st0"/></svg>