<svg xmlns="http://www.w3.org/2000/svg" xml:space="preserve" id="图层_1" x="0" y="0" viewBox="0 0 24.4 25"><style>.st0{fill:none;stroke:#fff;stroke-miterlimit:10}</style><path d="m.6 6.6 2.2 1.7-.2 1.8-2.5 1 .8 3.4 2.8-.4 1.1 1.5-1 2.4 2.9 1.8 1.7-2.2 1.9.2 1 2.5 3.4-.8-.3-2.8 1.5-1.2 2.3 1.2 2-3-2.3-1.8.2-1.8 2.6-1-1-3.1-3 .3-1-1.3 1.1-2.6-3-1.7L12 2.8l-1.8-.3L9 0 5.8.9l.3 2.8-1.2 1-2.6-1.1z" class="st0"/><path d="M6.6 10.5c0-2 1.6-3.6 3.6-3.6s3.6 1.6 3.6 3.6-1.6 3.6-3.6 3.6-3.6-1.7-3.6-3.6z" class="st0"/><path d="m4.4 11.1 2.2 1.7-.2 1.8-2.5 1 .7 3.4 2.8-.4 1.1 1.5-1 2.4 2.9 1.8 1.7-2.2 1.9.2 1 2.5 3.4-.8-.3-2.8 1.5-1.2 2.3 1.2 2-3-2.3-1.8.2-1.8 2.6-1-.8-3.4-3 .3-1-1.3 1.1-2.6-3-1.7-1.9 2.2L14 7l-1.1-2.5-3.3.9.3 2.8-1.2 1-2.5-1.1z" class="st0"/><path d="M10.5 15c0-2 1.6-3.6 3.6-3.6s3.6 1.6 3.6 3.6-1.6 3.6-3.6 3.6-3.6-1.7-3.6-3.6zM0 0" class="st0"/></svg>