<svg xmlns="http://www.w3.org/2000/svg" viewBox="0 0 150 108"><title>F5（负载均衡器）</title><defs><linearGradient id="a" x1="27.118%" x2="72.882%" y1="63.25%" y2="36.75%"><stop offset="0%" stop-color="#e1e4e6"/><stop offset="100%" stop-color="#b8c0cc"/></linearGradient><linearGradient id="b" x1="17.97%" x2="82.03%" y1="100.028%" y2="-.042%"><stop offset="0%" stop-color="#8e9bb3"/><stop offset="100%" stop-color="#474e66"/></linearGradient><linearGradient id="c" x1="0%" x2="100%" y1="50%" y2="50%"><stop offset="0%" stop-color="#b8c0cc"/><stop offset="100%" stop-color="#7a8599"/></linearGradient><linearGradient id="d" x1="46.07%" x2="53.93%" y1="55.156%" y2="44.844%"><stop offset="0%" stop-color="#798499"/><stop offset="100%" stop-color="#474e66"/></linearGradient><linearGradient id="e" x1="50.118%" x2="50.118%" y1="100%" y2="0%"><stop offset="0%" stop-color="#f73"/><stop offset="100%" stop-color="#f53"/></linearGradient><linearGradient id="f" x1="49.782%" x2="49.782%" y1="100%" y2="0%"><stop offset="0%" stop-color="#ff6a4d"/><stop offset="100%" stop-color="#cc2414"/></linearGradient><linearGradient id="g" x1="29.276%" x2="70.724%" y1="61.962%" y2="38.038%"><stop offset="0%" stop-color="#ffb84d"/><stop offset="100%" stop-color="#f53"/></linearGradient><linearGradient id="h" x1="49.944%" x2="49.944%" y1="100%" y2="0%"><stop offset="0%" stop-color="#63e670"/><stop offset="100%" stop-color="#179958"/></linearGradient><linearGradient id="i" x1="39.976%" x2="60.087%" y1="95.861%" y2="4.305%"><stop offset="0%" stop-color="#35b357"/><stop offset="100%" stop-color="#064"/></linearGradient><linearGradient id="j" x1="33.69%" x2="66.31%" y1="59.518%" y2="40.482%"><stop offset="0%" stop-color="#98f56a"/><stop offset="100%" stop-color="#3dcc6d"/></linearGradient></defs><g fill="none" fill-rule="nonzero"><path fill="url(#a)" d="M150 49.75 86.22 86.81.06 37.06 63.83 0z" transform="translate(0 .177)"/><path fill="url(#b)" d="m150 49.75-.06 20.51-63.77 37.06.05-20.51z" transform="translate(0 .177)"/><path fill="url(#c)" d="m86.22 86.81-.05 20.51L0 57.57l.06-20.51z" transform="translate(0 .177)"/><path fill="url(#d)" d="m2.52 56.12.04-14.71L83.7 88.26l-.04 14.71z" opacity=".6" transform="translate(0 .177)"/><path fill="#474e66" d="M8 57.177a3.66 3.66 0 0 1-1.76-2.77v-6c0-1 .8-1.3 1.76-.74a3.68 3.68 0 0 1 1.77 2.78v6c.04 1-.77 1.33-1.77.73m6.74 3.91a3.69 3.69 0 0 1-1.74-2.77v-6c0-1 .8-1.3 1.76-.74a3.68 3.68 0 0 1 1.77 2.78v6c-.02.96-.82 1.29-1.79.73m6.7 3.87a3.69 3.69 0 0 1-1.76-2.78v-6c0-1 .8-1.3 1.76-.74a3.68 3.68 0 0 1 1.77 2.74v6c0 1-.8 1.34-1.77.78m6.71 3.87a3.68 3.68 0 0 1-1.77-2.78v-6c0-1 .8-1.3 1.77-.74a3.66 3.66 0 0 1 1.76 2.77v6c0 .97-.8 1.31-1.76.75m39.15 22.61a3.69 3.69 0 0 1-1.76-2.78v-6c0-1 .8-1.31 1.76-.75a3.66 3.66 0 0 1 1.76 2.78v6c0 .97-.79 1.31-1.76.75m6.7 3.87a3.69 3.69 0 0 1-1.76-2.78v-6c0-1 .8-1.31 1.76-.75a3.66 3.66 0 0 1 1.76 2.78v6c0 .97-.76 1.31-1.76.75"/><path fill="url(#e)" d="m4.25 3.76-.02 4.73L0 6.05l.03-4.73z" transform="translate(55.92 78.177)"/><path fill="url(#f)" d="m4.25 3.76 2.27-1.32-.03 4.73-2.26 1.32z" transform="translate(55.92 78.177)"/><path fill="url(#g)" d="M.03 1.32 2.3 0l4.22 2.44-2.27 1.32z" transform="translate(55.92 78.177)"/><path fill="url(#h)" d="m8.97 6.53-.03 4.72L0 6.05l.02-4.73z" transform="translate(32.74 64.667)"/><path fill="url(#i)" d="m8.97 6.53 2.27-1.32-.03 4.72-2.27 1.32z" transform="translate(32.74 64.667)"/><path fill="url(#j)" d="M.02 1.32 2.29 0l8.95 5.21-2.27 1.32z" transform="translate(32.74 64.667)"/></g></svg>