<svg xmlns="http://www.w3.org/2000/svg" viewBox="0 0 122 151"><title>PC server（PC服务器）</title><defs><linearGradient id="a" x1="32.006%" x2="67.979%" y1="60.402%" y2="39.598%"><stop offset="0%" stop-color="#e1e4e6"/><stop offset="100%" stop-color="#b8c0cc"/></linearGradient><linearGradient id="b" x1="32.537%" x2="67.463%" y1="60.103%" y2="39.897%"><stop offset="0%" stop-color="#8e9bb3"/><stop offset="100%" stop-color="#474e66"/></linearGradient><linearGradient id="c" x1="0%" x2="100%" y1="50%" y2="50%"><stop offset="0%" stop-color="#8e9bb3"/><stop offset="100%" stop-color="#474e66"/></linearGradient><linearGradient id="d" x1="0%" x2="100%" y1="50%" y2="50%"><stop offset="0%" stop-color="#b8c0cc"/><stop offset="100%" stop-color="#7a8599"/></linearGradient><linearGradient id="e" x1=".233%" x2="100%" y1="49.799%" y2="49.799%"><stop offset="0%" stop-color="#e1e4e6"/><stop offset="100%" stop-color="#b8c0cc"/></linearGradient><linearGradient id="f" x1="0%" x2="100%" y1="50.228%" y2="50.228%"><stop offset="0%" stop-color="#8e9bb3"/><stop offset="100%" stop-color="#474e66"/></linearGradient><linearGradient id="g" x1="0%" x2="99.537%" y1="50%" y2="50%"><stop offset="0%" stop-color="#b8c0cc"/><stop offset="100%" stop-color="#7a8599"/></linearGradient><linearGradient id="h" x1="0%" x2="100%" y1="49.799%" y2="49.799%"><stop offset="0%" stop-color="#e1e4e6"/><stop offset="100%" stop-color="#b8c0cc"/></linearGradient><linearGradient id="i" x1="0%" x2="100%" y1="50%" y2="50%"><stop offset="0%" stop-color="#b8c0cc"/><stop offset="100%" stop-color="#7a8599"/></linearGradient><linearGradient id="j" x1="0%" x2="100%" y1="50.201%" y2="50.201%"><stop offset="0%" stop-color="#e1e4e6"/><stop offset="100%" stop-color="#b8c0cc"/></linearGradient><linearGradient id="k" x1="0%" x2="100%" y1="50.228%" y2="50.228%"><stop offset="0%" stop-color="#8e9bb3"/><stop offset="100%" stop-color="#474e66"/></linearGradient><linearGradient id="l" x1="0%" x2="100%" y1="50%" y2="50%"><stop offset="0%" stop-color="#b8c0cc"/><stop offset="100%" stop-color="#7a8599"/></linearGradient><linearGradient id="m" x1="0%" x2="100%" y1="50%" y2="50%"><stop offset="0%" stop-color="#e1e4e6"/><stop offset="100%" stop-color="#b8c0cc"/></linearGradient><linearGradient id="n" x1="0%" x2="100%" y1="49.772%" y2="49.772%"><stop offset="0%" stop-color="#8e9bb3"/><stop offset="100%" stop-color="#474e66"/></linearGradient><linearGradient id="o" x1="0%" x2="100.465%" y1="49.772%" y2="49.772%"><stop offset="0%" stop-color="#b8c0cc"/><stop offset="100%" stop-color="#7a8599"/></linearGradient><linearGradient id="p" x1="-.465%" x2="100%" y1="50.228%" y2="50.228%"><stop offset="0%" stop-color="#b8c0cc"/><stop offset="100%" stop-color="#7a8599"/></linearGradient><linearGradient id="q" x1="0%" x2="100%" y1="49.772%" y2="49.772%"><stop offset="0%" stop-color="#8e9bb3"/><stop offset="100%" stop-color="#474e66"/></linearGradient><linearGradient id="r" x1="0%" x2="100%" y1="50.228%" y2="50.228%"><stop offset="0%" stop-color="#b8c0cc"/><stop offset="100%" stop-color="#7a8599"/></linearGradient><linearGradient id="s" x1=".463%" x2="100%" y1="49.772%" y2="49.772%"><stop offset="0%" stop-color="#b8c0cc"/><stop offset="100%" stop-color="#7a8599"/></linearGradient><linearGradient id="t" x1="0%" x2="100%" y1="49.772%" y2="49.772%"><stop offset="0%" stop-color="#b8c0cc"/><stop offset="100%" stop-color="#7a8599"/></linearGradient><linearGradient id="u" x1="0%" x2="100%" y1="50%" y2="50%"><stop offset="0%" stop-color="#8e9bb3"/><stop offset="100%" stop-color="#474e66"/></linearGradient><linearGradient id="v" x1="0%" x2="100%" y1="50%" y2="50%"><stop offset="0%" stop-color="#e1e4e6"/><stop offset="100%" stop-color="#b8c0cc"/></linearGradient><linearGradient id="w" x1="0%" x2="100.233%" y1="50.201%" y2="50.201%"><stop offset="0%" stop-color="#e1e4e6"/><stop offset="100%" stop-color="#b8c0cc"/></linearGradient><linearGradient id="x" x1="0%" x2="100.467%" y1="50.228%" y2="50.228%"><stop offset="0%" stop-color="#8e9bb3"/><stop offset="100%" stop-color="#474e66"/></linearGradient><linearGradient id="y" x1="-.233%" x2="100%" y1="50.201%" y2="50.201%"><stop offset="0%" stop-color="#e1e4e6"/><stop offset="100%" stop-color="#b8c0cc"/></linearGradient><linearGradient id="z" x1="0%" x2="100%" y1="50%" y2="50%"><stop offset="0%" stop-color="#8e9bb3"/><stop offset="100%" stop-color="#474e66"/></linearGradient><linearGradient id="A" x1=".233%" x2="100%" y1="50.201%" y2="50.201%"><stop offset="0%" stop-color="#e1e4e6"/><stop offset="100%" stop-color="#b8c0cc"/></linearGradient><linearGradient id="B" x1="0%" x2="100%" y1="50.201%" y2="50.201%"><stop offset="0%" stop-color="#e1e4e6"/><stop offset="100%" stop-color="#b8c0cc"/></linearGradient><linearGradient id="C" x1="0%" x2="100%" y1="49.799%" y2="49.799%"><stop offset="0%" stop-color="#e1e4e6"/><stop offset="100%" stop-color="#b8c0cc"/></linearGradient><linearGradient id="D" x1=".463%" x2="100%" y1="50%" y2="50%"><stop offset="0%" stop-color="#b8c0cc"/><stop offset="100%" stop-color="#7a8599"/></linearGradient><linearGradient id="E" x1="50.031%" x2="50.031%" y1="100%" y2="0%"><stop offset="0%" stop-color="#b8c0cc"/><stop offset="100%" stop-color="#7a8599"/></linearGradient><linearGradient id="F" x1="18.332%" x2="89.386%" y1="86.013%" y2="21.495%"><stop offset="0%" stop-color="#e6e8eb"/><stop offset="39%" stop-color="#b3bcc8"/><stop offset="100%" stop-color="#7a8599"/></linearGradient><linearGradient id="G" x1="-.121%" x2="99.995%" y1="50%" y2="50%"><stop offset="0%" stop-color="#8e9bb3"/><stop offset="100%" stop-color="#474e66"/></linearGradient><linearGradient id="H" x1="0%" x2="100%" y1="49.978%" y2="49.978%"><stop offset="0%" stop-color="#8e9bb3"/><stop offset="100%" stop-color="#474e66"/></linearGradient><linearGradient id="I" x1="0%" x2="100%" y1="50.046%" y2="50.046%"><stop offset="0%" stop-color="#8e9bb3"/><stop offset="100%" stop-color="#474e66"/></linearGradient><linearGradient id="J" x1="81.664%" x2="18.336%" y1="100%" y2="0%"><stop offset="0%" stop-color="#2477b5"/><stop offset="50.102%" stop-color="#3fa9d3"/><stop offset="100%" stop-color="#5ac9f7"/></linearGradient><linearGradient id="K" x1="48.329%" x2="51.671%" y1="89.114%" y2="10.901%"><stop offset="0%" stop-color="#8e9bb3"/><stop offset="100%" stop-color="#474e66"/></linearGradient><linearGradient id="L" x1="0%" x2="100%" y1="50.009%" y2="50.009%"><stop offset="0%" stop-color="#e1e4e6"/><stop offset="100%" stop-color="#b8c0cc"/></linearGradient></defs><g fill="none" fill-rule="nonzero"><path fill="url(#a)" d="M67.81 29.12 50.44 39.21.01 10.1 17.37 0z" transform="translate(0 109.077)"/><path fill="url(#b)" d="m2.31 10.09 15.07-8.75L65.5 29.12l-15.06 8.76z" transform="translate(0 109.077)"/><path fill="url(#c)" d="m67.81 29.12-.01 1.89L50.43 41.1l.01-1.89z" transform="translate(0 109.077)"/><path fill="url(#d)" d="m50.44 39.21-.01 1.89L0 11.98l.01-1.88z" transform="translate(0 109.077)"/><path fill="url(#e)" d="m19.52 3.2-2.14 1.25-2.16-1.24 2.15-1.25z" transform="translate(0 109.077)"/><path fill="url(#f)" d="M19.52 3.2v.94l-2.15 1.25.01-.94z" transform="translate(0 109.077)"/><path fill="url(#g)" d="m17.38 4.45-.01.94-2.15-1.24v-.94z" transform="translate(0 109.077)"/><path fill="url(#h)" d="m16.3 5.11-2.14 1.25-2.15-1.24 2.14-1.25z" transform="translate(0 109.077)"/><path fill="url(#f)" d="M16.3 5.11v.94L14.15 7.3l.01-.94z" transform="translate(0 109.077)"/><path fill="url(#i)" d="m14.16 6.36-.01.94L12 6.06l.01-.94z" transform="translate(0 109.077)"/><path fill="url(#j)" d="m13.08 7.04-2.14 1.25-2.15-1.24 2.14-1.25z" transform="translate(0 109.077)"/><path fill="url(#k)" d="M13.08 7.04v.95l-2.14 1.24v-.94z" transform="translate(0 109.077)"/><path fill="url(#l)" d="M10.94 8.29v.94L8.79 7.99v-.94z" transform="translate(0 109.077)"/><path fill="url(#h)" d="m9.58 9.01-2.14 1.25-2.15-1.24 2.14-1.25z" transform="translate(0 109.077)"/><path fill="url(#f)" d="M9.58 9.01v.94L7.43 11.2l.01-.94z" transform="translate(0 109.077)"/><path fill="url(#i)" d="m7.44 10.26-.01.94-2.15-1.24.01-.94z" transform="translate(0 109.077)"/><path fill="url(#m)" d="m22.7 5.04-2.15 1.24-2.14-1.24 2.14-1.24z" transform="translate(0 109.077)"/><path fill="url(#n)" d="M22.7 5.04v.94l-2.15 1.25v-.95z" transform="translate(0 109.077)"/><path fill="url(#o)" d="M20.55 6.28v.95L18.4 5.99l.01-.95z" transform="translate(0 109.077)"/><path fill="url(#m)" d="m19.48 6.95-2.14 1.24-2.15-1.24 2.14-1.24z" transform="translate(0 109.077)"/><path fill="url(#n)" d="M19.48 6.95v.94l-2.15 1.25.01-.95z" transform="translate(0 109.077)"/><path fill="url(#p)" d="m17.34 8.19-.01.95-2.14-1.24v-.95z" transform="translate(0 109.077)"/><path fill="url(#h)" d="m16.26 8.88-2.14 1.25-2.15-1.25 2.14-1.24z" transform="translate(0 109.077)"/><path fill="url(#q)" d="M16.26 8.88v.94l-2.14 1.25v-.94z" transform="translate(0 109.077)"/><path fill="url(#r)" d="M14.12 10.13v.94l-2.15-1.24v-.95z" transform="translate(0 109.077)"/><path fill="url(#m)" d="m12.76 10.85-2.14 1.24-2.15-1.24 2.14-1.24z" transform="translate(0 109.077)"/><path fill="url(#n)" d="M12.76 10.85v.94l-2.15 1.25.01-.95z" transform="translate(0 109.077)"/><path fill="url(#s)" d="m10.62 12.09-.01.95-2.15-1.25.01-.94z" transform="translate(0 109.077)"/><path fill="url(#m)" d="m25.92 6.88-2.14 1.24-2.15-1.24 2.14-1.24z" transform="translate(0 109.077)"/><path fill="url(#n)" d="M25.92 6.88v.94l-2.15 1.25.01-.95z" transform="translate(0 109.077)"/><path fill="url(#t)" d="m23.78 8.12-.01.95-2.14-1.25v-.94z" transform="translate(0 109.077)"/><path fill="url(#m)" d="m22.7 8.79-2.14 1.24-2.15-1.24 2.14-1.24z" transform="translate(0 109.077)"/><path fill="url(#q)" d="M22.7 8.79v.94l-2.14 1.25v-.95z" transform="translate(0 109.077)"/><path fill="url(#t)" d="M20.56 10.03v.95l-2.15-1.24v-.95z" transform="translate(0 109.077)"/><path fill="url(#h)" d="m19.48 10.72-2.14 1.25-2.15-1.24 2.15-1.25z" transform="translate(0 109.077)"/><path fill="url(#q)" d="M19.48 10.72v.94l-2.14 1.25v-.94z" transform="translate(0 109.077)"/><path fill="url(#l)" d="M17.34 11.97v.94l-2.15-1.24v-.94z" transform="translate(0 109.077)"/><path fill="url(#m)" d="m15.98 12.69-2.14 1.24-2.15-1.24 2.14-1.24z" transform="translate(0 109.077)"/><path fill="url(#q)" d="M15.98 12.69v.94l-2.14 1.25v-.95z" transform="translate(0 109.077)"/><path fill="url(#t)" d="M13.84 13.93v.95l-2.15-1.25v-.94z" transform="translate(0 109.077)"/><path fill="url(#j)" d="M29.14 8.71 27 9.96l-2.15-1.24 2.14-1.25z" transform="translate(0 109.077)"/><path fill="url(#k)" d="M29.14 8.71v.95L27 10.9v-.94z" transform="translate(0 109.077)"/><path fill="url(#l)" d="M27 9.96v.94l-2.15-1.24v-.94z" transform="translate(0 109.077)"/><path fill="url(#j)" d="m25.92 10.63-2.14 1.24-2.15-1.24 2.14-1.25z" transform="translate(0 109.077)"/><path fill="url(#u)" d="M25.92 10.63v.94l-2.14 1.24v-.94z" transform="translate(0 109.077)"/><path fill="url(#l)" d="M23.78 11.87v.94l-2.15-1.24v-.94z" transform="translate(0 109.077)"/><path fill="url(#v)" d="m22.71 12.56-2.15 1.24-2.15-1.24 2.15-1.24z" transform="translate(0 109.077)"/><path fill="url(#n)" d="m22.71 12.56-.01.94-2.14 1.25v-.95z" transform="translate(0 109.077)"/><path fill="url(#t)" d="M20.56 13.8v.95l-2.15-1.24v-.95z" transform="translate(0 109.077)"/><path fill="url(#j)" d="m19.2 14.52-2.14 1.25-2.15-1.24 2.14-1.25z" transform="translate(0 109.077)"/><path fill="url(#k)" d="M19.2 14.52v.95l-2.14 1.24v-.94z" transform="translate(0 109.077)"/><path fill="url(#l)" d="M17.06 15.77v.94l-2.15-1.24v-.94z" transform="translate(0 109.077)"/><path fill="url(#w)" d="m32.23 10.55-2.14 1.25-2.15-1.24 2.15-1.25z" transform="translate(0 109.077)"/><path fill="url(#x)" d="M32.23 10.55v.95l-2.14 1.24v-.94z" transform="translate(0 109.077)"/><path fill="url(#l)" d="M30.09 11.8v.94l-2.15-1.24v-.94z" transform="translate(0 109.077)"/><path fill="url(#y)" d="m29.02 12.46-2.15 1.25-2.14-1.24 2.14-1.25z" transform="translate(0 109.077)"/><path fill="url(#f)" d="m29.02 12.46-.01.95-2.14 1.24v-.94z" transform="translate(0 109.077)"/><path fill="url(#l)" d="M26.87 13.71v.94l-2.15-1.24.01-.94z" transform="translate(0 109.077)"/><path fill="url(#m)" d="m25.8 14.4-2.14 1.24-2.15-1.24 2.14-1.24z" transform="translate(0 109.077)"/><path fill="url(#z)" d="M25.8 14.4v.94l-2.15 1.24.01-.94z" transform="translate(0 109.077)"/><path fill="url(#i)" d="m23.66 15.64-.01.94-2.15-1.24.01-.94z" transform="translate(0 109.077)"/><path fill="url(#A)" d="m22.3 16.36-2.15 1.25L18 16.37l2.15-1.25z" transform="translate(0 109.077)"/><path fill="url(#f)" d="m22.3 16.36-.01.95-2.14 1.24v-.94z" transform="translate(0 109.077)"/><path fill="url(#l)" d="M20.15 17.61v.94L18 17.31v-.94z" transform="translate(0 109.077)"/><path fill="url(#j)" d="m35.47 12.46-2.14 1.25-2.15-1.24 2.15-1.25z" transform="translate(0 109.077)"/><path fill="url(#k)" d="M35.47 12.46v.95l-2.14 1.24v-.94z" transform="translate(0 109.077)"/><path fill="url(#l)" d="M33.33 13.71v.94l-2.15-1.24v-.94z" transform="translate(0 109.077)"/><path fill="url(#B)" d="m32.26 14.38-2.15 1.24-2.15-1.24 2.15-1.25z" transform="translate(0 109.077)"/><path fill="url(#z)" d="m32.26 14.38-.01.94-2.14 1.24v-.94z" transform="translate(0 109.077)"/><path fill="url(#l)" d="M30.11 15.62v.94l-2.15-1.24v-.94z" transform="translate(0 109.077)"/><path fill="url(#m)" d="m29.04 16.31-2.15 1.24-2.14-1.24 2.14-1.24z" transform="translate(0 109.077)"/><path fill="url(#n)" d="M29.04 16.31v.94l-2.15 1.25v-.95z" transform="translate(0 109.077)"/><path fill="url(#o)" d="M26.89 17.55v.95l-2.15-1.24.01-.95z" transform="translate(0 109.077)"/><path fill="url(#B)" d="m25.54 18.27-2.15 1.25-2.15-1.24 2.15-1.25z" transform="translate(0 109.077)"/><path fill="url(#f)" d="m25.54 18.27-.01.95-2.14 1.24v-.94z" transform="translate(0 109.077)"/><path fill="url(#l)" d="M23.39 19.52v.94l-2.15-1.24v-.94z" transform="translate(0 109.077)"/><path fill="url(#C)" d="m38.7 14.3-2.15 1.25-2.15-1.24 2.15-1.25z" transform="translate(0 109.077)"/><path fill="url(#f)" d="m38.7 14.3-.01.94-2.14 1.25v-.94z" transform="translate(0 109.077)"/><path fill="url(#l)" d="M36.55 15.55v.94l-2.15-1.24v-.94z" transform="translate(0 109.077)"/><path fill="url(#e)" d="m35.48 16.21-2.15 1.25-2.15-1.24 2.15-1.25z" transform="translate(0 109.077)"/><path fill="url(#f)" d="M35.48 16.21v.95l-2.15 1.24v-.94z" transform="translate(0 109.077)"/><path fill="url(#l)" d="M33.33 17.46v.94l-2.15-1.24v-.94z" transform="translate(0 109.077)"/><path fill="url(#j)" d="m32.26 18.14-2.14 1.25-2.15-1.24 2.14-1.25z" transform="translate(0 109.077)"/><path fill="url(#f)" d="M32.26 18.14v.95l-2.15 1.24.01-.94z" transform="translate(0 109.077)"/><path fill="url(#D)" d="m30.12 19.39-.01.94-2.15-1.24.01-.94z" transform="translate(0 109.077)"/><path fill="url(#h)" d="m28.76 20.11-2.15 1.25-2.14-1.24 2.14-1.25z" transform="translate(0 109.077)"/><path fill="url(#f)" d="m28.76 20.11-.01.95-2.14 1.24v-.94z" transform="translate(0 109.077)"/><path fill="url(#l)" d="M26.61 21.36v.94l-2.15-1.24.01-.94z" transform="translate(0 109.077)"/><path fill="url(#A)" d="m50.53 21.04-2.15 1.25-2.15-1.24 2.15-1.25z" transform="translate(0 109.077)"/><path fill="url(#f)" d="m50.53 21.04-.01.95-2.14 1.24v-.94z" transform="translate(0 109.077)"/><path fill="url(#l)" d="M48.38 22.29v.94l-2.15-1.24v-.94z" transform="translate(0 109.077)"/><path fill="url(#j)" d="m47.31 22.95-2.14 1.25-2.15-1.24 2.14-1.25z" transform="translate(0 109.077)"/><path fill="url(#f)" d="M47.31 22.95v.95l-2.15 1.24.01-.94z" transform="translate(0 109.077)"/><path fill="url(#i)" d="m45.17 24.2-.01.94-2.15-1.24.01-.94z" transform="translate(0 109.077)"/><path fill="url(#m)" d="m44.09 24.89-2.14 1.24-2.15-1.24 2.14-1.24z" transform="translate(0 109.077)"/><path fill="url(#u)" d="M44.09 24.89v.94l-2.14 1.24v-.94z" transform="translate(0 109.077)"/><path fill="url(#l)" d="M41.95 26.13v.94l-2.15-1.24v-.94z" transform="translate(0 109.077)"/><path fill="url(#j)" d="m40.59 26.85-2.14 1.25-2.15-1.24 2.14-1.25z" transform="translate(0 109.077)"/><path fill="url(#f)" d="M40.59 26.85v.95l-2.15 1.24.01-.94z" transform="translate(0 109.077)"/><path fill="url(#i)" d="m38.45 28.1-.01.94-2.15-1.24.01-.94z" transform="translate(0 109.077)"/><path fill="url(#B)" d="m53.77 22.95-2.15 1.25-2.15-1.24 2.15-1.25z" transform="translate(0 109.077)"/><path fill="url(#f)" d="m53.77 22.95-.01.95-2.14 1.24v-.94z" transform="translate(0 109.077)"/><path fill="url(#l)" d="M51.62 24.2v.94l-2.15-1.24v-.94z" transform="translate(0 109.077)"/><path fill="url(#y)" d="m50.55 24.86-2.15 1.25-2.14-1.24 2.14-1.25z" transform="translate(0 109.077)"/><path fill="url(#f)" d="m50.55 24.86-.01.95-2.14 1.24v-.94z" transform="translate(0 109.077)"/><path fill="url(#l)" d="M48.4 26.11v.94l-2.15-1.24.01-.94z" transform="translate(0 109.077)"/><path fill="url(#m)" d="m47.33 26.8-2.14 1.24-2.15-1.24 2.14-1.24z" transform="translate(0 109.077)"/><path fill="url(#z)" d="M47.33 26.8v.94l-2.15 1.24.01-.94z" transform="translate(0 109.077)"/><path fill="url(#i)" d="m45.19 28.04-.01.94-2.15-1.24.01-.94z" transform="translate(0 109.077)"/><path fill="url(#A)" d="m43.83 28.76-2.14 1.25-2.16-1.24 2.15-1.25z" transform="translate(0 109.077)"/><path fill="url(#f)" d="M43.83 28.76v.95l-2.15 1.24.01-.94z" transform="translate(0 109.077)"/><path fill="url(#g)" d="m41.69 30.01-.01.94-2.15-1.24v-.94z" transform="translate(0 109.077)"/><path fill="url(#h)" d="m56.99 24.79-2.15 1.25-2.14-1.25 2.14-1.24z" transform="translate(0 109.077)"/><path fill="url(#f)" d="m56.99 24.79-.01.94-2.14 1.25v-.94z" transform="translate(0 109.077)"/><path fill="url(#r)" d="M54.84 26.04v.94l-2.15-1.24.01-.95z" transform="translate(0 109.077)"/><path fill="url(#h)" d="m53.77 26.7-2.14 1.25-2.15-1.24 2.14-1.25z" transform="translate(0 109.077)"/><path fill="url(#f)" d="M53.77 26.7v.94l-2.15 1.25.01-.94z" transform="translate(0 109.077)"/><path fill="url(#i)" d="m51.63 27.95-.01.94-2.15-1.24.01-.94z" transform="translate(0 109.077)"/><path fill="url(#j)" d="m50.55 28.63-2.14 1.25-2.15-1.24 2.14-1.25z" transform="translate(0 109.077)"/><path fill="url(#k)" d="M50.55 28.63v.95l-2.14 1.24v-.94z" transform="translate(0 109.077)"/><path fill="url(#l)" d="M48.41 29.88v.94l-2.15-1.24v-.94z" transform="translate(0 109.077)"/><path fill="url(#h)" d="m47.05 30.6-2.14 1.25-2.15-1.25 2.14-1.24z" transform="translate(0 109.077)"/><path fill="url(#f)" d="M47.05 30.6v.94l-2.15 1.25.01-.94z" transform="translate(0 109.077)"/><path fill="url(#p)" d="m44.91 31.85-.01.94-2.14-1.24v-.95z" transform="translate(0 109.077)"/><path fill="url(#E)" d="m36.68 126.41-16.3-9.48-.01-1.88 16.31 9.47z" transform="translate(19.95 .177)"/><path fill="url(#F)" d="m59.66 98.12-16.31-9.47c.66 2.8.05 6.47-1.72 10.07a19.4 19.4 0 0 1-7.26 8.28l-14 8.09 16.31 9.47 14-8.08a19.4 19.4 0 0 0 7.26-8.24c1.76-3.65 2.38-7.31 1.72-10.12" transform="translate(19.95 .177)"/><path fill="url(#G)" d="m52.47 60.13 8.78 36.63c.79 3.3.06 7.62-2 11.85a22.9 22.9 0 0 1-8.54 9.71l-14 8.09v-1.89l14-8.08a19.4 19.4 0 0 0 7.26-8.24c1.76-3.61 2.38-7.27 1.72-10.08l-8.82-36.64z" transform="translate(19.95 .177)"/><path fill="url(#H)" d="m59.66 98.13-16.31-9.48-8.78-36.64 16.3 9.47z" transform="translate(19.95 .177)"/><path fill="url(#I)" d="m50.87 61.48-16.3-9.47 1.59-1.36 16.31 9.48z" transform="translate(19.95 .177)"/><path fill="url(#J)" d="m96.68 58.55-.19 65.78L0 68.63.19 2.84z" transform="translate(19.95 .177)"/><path fill="url(#K)" d="m96.68 58.55 4.89-2.84-.19 65.78-4.89 2.84z" transform="translate(19.95 .177)"/><path fill="url(#L)" d="M.19 2.84 5.08 0l96.49 55.71-4.89 2.84z" transform="translate(19.95 .177)"/></g></svg>