<svg xmlns="http://www.w3.org/2000/svg" viewBox="0 0 132 151"><title>Routers（路由器）</title><defs><linearGradient id="a" x1="0%" x2="100%" y1="49.997%" y2="49.997%"><stop offset="0%" stop-color="#6de9fc"/><stop offset="100%" stop-color="#2474b3"/></linearGradient><linearGradient id="b" x1="33.241%" x2="66.758%" y1="21.218%" y2="78.775%"><stop offset="0%" stop-color="#6effff"/><stop offset="100%" stop-color="#5ac8f7"/></linearGradient><linearGradient id="c" x1="0%" x2="100.319%" y1="50.105%" y2="50.105%"><stop offset="0%" stop-color="#6de9fc"/><stop offset="100%" stop-color="#2474b3"/></linearGradient><linearGradient id="d" x1="0%" x2="100%" y1="50.033%" y2="50.033%"><stop offset="0%" stop-color="#6de9fc"/><stop offset="100%" stop-color="#2474b3"/></linearGradient><linearGradient id="e" x1="0%" x2="100%" y1="50%" y2="50%"><stop offset="0%" stop-color="#6de9fc"/><stop offset="100%" stop-color="#2474b3"/></linearGradient><linearGradient id="f" x1=".316%" x2="100.475%" y1="50.311%" y2="50.311%"><stop offset="0%" stop-color="#6de9fc"/><stop offset="100%" stop-color="#2474b3"/></linearGradient><linearGradient id="g" x1="0%" x2="100%" y1="50.014%" y2="50.014%"><stop offset="0%" stop-color="#6de9fc"/><stop offset="100%" stop-color="#2474b3"/></linearGradient><linearGradient id="h" x1="0%" x2="99.721%" y1="49.904%" y2="49.904%"><stop offset="0%" stop-color="#6de9fc"/><stop offset="100%" stop-color="#2474b3"/></linearGradient><linearGradient id="i" x1="-.043%" x2="100%" y1="50%" y2="50%"><stop offset="0%" stop-color="#6de9fc"/><stop offset="100%" stop-color="#2474b3"/></linearGradient><linearGradient id="j" x1="0%" x2="100%" y1="49.866%" y2="49.866%"><stop offset="0%" stop-color="#6de9fc"/><stop offset="100%" stop-color="#2474b3"/></linearGradient></defs><g fill="none" fill-rule="nonzero"><path fill="url(#a)" d="m131.26 38.297-.26 74.13c0 9.65-6.36 19.28-19 26.64-25.49 14.81-66.95 14.81-92.61 0C6.42 131.607 0 121.827 0 112.057l.28-74.13c0 9.77 6.42 19.55 19.33 27 25.67 14.81 67.12 14.81 92.62 0 12.66-7.35 19.01-16.98 19.03-26.63"/><ellipse cx="65.774" cy="38.113" fill="url(#b)" rx="37.93" ry="65.49" transform="rotate(-89.84 65.774 38.113)"/><path fill="#fff" d="M39.17 55.787v1.63a1.6 1.6 0 0 0 0-.38v-1.63q.015.19 0 .38"/><path fill="url(#c)" d="M0 18.07v-1.63a2.65 2.65 0 0 1 1.54-2.18 8.06 8.06 0 0 1 4.72-.86v1.63a8.2 8.2 0 0 0-4.72.83A2.66 2.66 0 0 0 0 18.07" transform="translate(28.46 39.317)"/><path fill="#0f5499" d="m62.32 43.557-23.19 13.48a2.46 2.46 0 0 1-1.51 2.56 8.32 8.32 0 0 1-7.57 0c-2.05-1.21-2.13-3.17-.05-4.42a8.2 8.2 0 0 1 4.73-.86l23.07-13.37z"/><path fill="url(#d)" d="M6.28 15.03V13.4L29.34 0v1.63z" transform="translate(28.46 39.317)"/><path fill="url(#e)" d="M29.34 1.63V0l4.53 2.62-.01 1.62z" transform="translate(28.46 39.317)"/><path fill="#fff" d="M92.88 57.386v-1.63a2 2 0 0 1 0-.35v1.63c.02.14.01.23 0 .35"/><path fill="url(#f)" d="M73.76 38.23a8.14 8.14 0 0 0-4.74-.86V39a8.2 8.2 0 0 1 4.74.83 2.7 2.7 0 0 1 1.58 2.21v-1.6a2.68 2.68 0 0 0-1.58-2.21" transform="translate(28.24 15.346)"/><path fill="url(#g)" d="m10.64 5.28.01-1.63 58.4 33.72-.01 1.63z" transform="translate(28.24 15.346)"/><path fill="url(#h)" d="M0 4.72V3.09A2.65 2.65 0 0 1 1.56.91a8.34 8.34 0 0 1 7.58 0 2.68 2.68 0 0 1 1.62 2.21v1.63a2.68 2.68 0 0 0-1.58-2.21 8.34 8.34 0 0 0-7.58 0A2.69 2.69 0 0 0 0 4.72" transform="translate(28.24 15.346)"/><path fill="#0f5499" d="M102 55.176c2.09 1.21 2.1 3.18 0 4.39a8.37 8.37 0 0 1-7.58 0 2.5 2.5 0 0 1-1.55-2.56l-58.63-33.83a8.1 8.1 0 0 1-4.42-.89c-2.1-1.21-2.1-3.18 0-4.39a8.34 8.34 0 0 1 7.58 0c1.3.75 1.79 1.78 1.5 2.74l58.4 33.72a8.2 8.2 0 0 1 4.7.82"/><path fill="url(#i)" d="M.01 18.667v-1.62l23.04-13.4v1.63z" transform="translate(69.71 15.35)"/><path fill="url(#j)" d="M32.11.907a8.37 8.37 0 0 0-7.58 0 2.65 2.65 0 0 0-1.56 2.19v1.63a2.64 2.64 0 0 1 1.55-2.19 8.39 8.39 0 0 1 7.59 0 2.7 2.7 0 0 1 1.58 2.21v-1.63a2.66 2.66 0 0 0-1.58-2.21" transform="translate(69.71 15.35)"/><path fill="#0f5499" d="M101.82 17.887c2.1 1.21 2.1 3.18 0 4.39a7.93 7.93 0 0 1-4.41.88l-23.17 13.48-4.53-2.62 23.05-13.39c-.29-1 .19-2 1.47-2.74a8.39 8.39 0 0 1 7.59 0"/></g></svg>