<svg xmlns="http://www.w3.org/2000/svg" viewBox="0 0 117 151"><title>Switches（交换机）</title><defs><linearGradient id="a" x1="31.819%" x2="68.181%" y1="60.517%" y2="39.483%"><stop offset="0%" stop-color="#98f56a"/><stop offset="100%" stop-color="#3dcc6d"/></linearGradient><linearGradient id="b" x1="42.163%" x2="57.834%" y1="94.156%" y2="5.844%"><stop offset="0%" stop-color="#35b357"/><stop offset="100%" stop-color="#064"/></linearGradient><linearGradient id="c" x1="41.176%" x2="58.824%" y1="73.48%" y2="26.52%"><stop offset="0%" stop-color="#63e670"/><stop offset="100%" stop-color="#179958"/></linearGradient></defs><g fill="none" fill-rule="nonzero"><path fill="url(#a)" d="M116.7 49.55 86.06 67.36.23 17.8 30.87 0z" transform="translate(0 .177)"/><path fill="url(#b)" d="m116.7 49.55-.24 82.65L85.83 150l.23-82.64z" transform="translate(0 .177)"/><path fill="url(#c)" d="M86.06 67.36 85.83 150 0 100.45.23 17.8z" transform="translate(0 .177)"/><path fill="#0a6647" d="m72.59 117.917-7.34-4.24-18.24-28.77 18.24-7.71 7.34 4.23v2.49h8.64l-8.64-9.97v2.48l-9.41-5.43-19.7 8.33-19.71-31.09-9.41-5.43v-2.48H5.72l8.64 9.97v-2.49l7.34 4.24 18.24 28.77-18.24 7.72-7.34-4.24v-2.49H5.72l8.64 9.98v-2.49l9.41 5.43 19.71-8.33 19.7 31.09 9.41 5.43v2.49l8.64-.01-8.64-9.97z"/><path fill="#004c3a" d="m72.59 117.917-7.34-4.24-18.24-28.77 18.24-7.71 7.34 4.23v2.49h8.64l-8.64-9.97v2.48l-9.41-5.43-19.7 8.33-19.71-31.09-9.41-5.43v-2.48H5.72l8.64 9.97v-2.49l7.34 4.24 18.24 28.77-18.24 7.72-7.34-4.24v-2.49H5.72l8.64 9.98v-2.49l9.41 5.43 19.71-8.33 19.7 31.09 9.41 5.43v2.49l8.64-.01-8.64-9.97z"/></g></svg>