<svg xmlns="http://www.w3.org/2000/svg" viewBox="0 0 93 151"><title>Beaker 3(烧杯)</title><defs><linearGradient id="b" x1="50.011%" x2="50.011%" y1="100.725%" y2="-.705%"><stop offset="0%" stop-color="#fff" stop-opacity="0"/><stop offset="2%" stop-color="#fff" stop-opacity=".03"/><stop offset="39%" stop-color="#fff" stop-opacity=".44"/><stop offset="69%" stop-color="#fff" stop-opacity=".74"/><stop offset="90%" stop-color="#fff" stop-opacity=".93"/><stop offset="100%" stop-color="#fff"/></linearGradient><linearGradient id="c" x1="53.869%" x2="53.869%" y1="100.918%" y2="-.933%"><stop offset="0%" stop-color="#acafb3"/><stop offset="16%" stop-color="#b8bbbe" stop-opacity=".75"/><stop offset="36%" stop-color="#c5c8cb" stop-opacity=".49"/><stop offset="55%" stop-color="#d0d2d4" stop-opacity=".28"/><stop offset="73%" stop-color="#d7d9db" stop-opacity=".12"/><stop offset="88%" stop-color="#dbdde0" stop-opacity=".03"/><stop offset="100%" stop-color="#dddfe1" stop-opacity="0"/></linearGradient><linearGradient id="d" x1=".083%" x2="100%" y1="50%" y2="50%"><stop offset="0%" stop-color="#a9b1bb"/><stop offset="6%" stop-color="#5d6166"/><stop offset="78%" stop-color="#e2eaf2"/><stop offset="93%" stop-color="#9ba1ab"/><stop offset="100%" stop-color="#767b82"/></linearGradient><linearGradient id="e" x1="-.567%" x2="100.523%" y1="49.994%" y2="49.994%"><stop offset="0%" stop-color="#767b82"/><stop offset="7%" stop-color="#9ba1ab"/><stop offset="22%" stop-color="#eef7ff" stop-opacity="0"/><stop offset="94%" stop-color="#5d6166"/><stop offset="100%" stop-color="#e6f1ff" stop-opacity="0"/></linearGradient><linearGradient id="f" x1="0%" x2="100%" y1="49.934%" y2="49.934%"><stop offset="0%" stop-color="#a9b1bb"/><stop offset="6%" stop-color="#5d6166"/><stop offset="78%" stop-color="#e2eaf2"/><stop offset="93%" stop-color="#9ba1ab"/><stop offset="100%" stop-color="#767b82"/></linearGradient><linearGradient id="g" x1="-1.286%" x2="102.34%" y1="50%" y2="50%"><stop offset="0%" stop-color="#e6f1ff"/><stop offset="6%" stop-color="#5d6166"/><stop offset="78%" stop-color="#eef7ff"/><stop offset="93%" stop-color="#9ba1ab"/><stop offset="100%" stop-color="#767b82"/></linearGradient><linearGradient id="h" x1="50%" x2="50%" y1="100%" y2="0%"><stop offset="0%" stop-color="#fff" stop-opacity="0"/><stop offset="14%" stop-color="#fff" stop-opacity=".01"/><stop offset="27%" stop-color="#fff" stop-opacity=".06"/><stop offset="39%" stop-color="#fff" stop-opacity=".13"/><stop offset="51%" stop-color="#fff" stop-opacity=".24"/><stop offset="63%" stop-color="#fff" stop-opacity=".37"/><stop offset="74%" stop-color="#fff" stop-opacity=".53"/><stop offset="86%" stop-color="#fff" stop-opacity=".73"/><stop offset="97%" stop-color="#fff" stop-opacity=".94"/><stop offset="100%" stop-color="#fff"/></linearGradient><linearGradient id="i" x1="50%" x2="50%" y1="0%" y2="100%"><stop offset="0%" stop-color="#fff" stop-opacity="0"/><stop offset="14%" stop-color="#fff" stop-opacity=".01"/><stop offset="27%" stop-color="#fff" stop-opacity=".06"/><stop offset="39%" stop-color="#fff" stop-opacity=".13"/><stop offset="51%" stop-color="#fff" stop-opacity=".24"/><stop offset="63%" stop-color="#fff" stop-opacity=".37"/><stop offset="74%" stop-color="#fff" stop-opacity=".53"/><stop offset="86%" stop-color="#fff" stop-opacity=".73"/><stop offset="97%" stop-color="#fff" stop-opacity=".94"/><stop offset="100%" stop-color="#fff"/></linearGradient><radialGradient id="a" cx="50%" cy="50%" r="50%" fx="50%" fy="50%"><stop offset="0%" stop-color="#fff" stop-opacity="0"/><stop offset="19%" stop-color="#fbfbfb" stop-opacity=".03"/><stop offset="36%" stop-color="#eff0f1" stop-opacity=".12"/><stop offset="53%" stop-color="#dbddde" stop-opacity=".26"/><stop offset="70%" stop-color="#bfc2c5" stop-opacity=".47"/><stop offset="86%" stop-color="#9c9fa4" stop-opacity=".73"/><stop offset="100%" stop-color="#767b82"/></radialGradient></defs><g fill="none" fill-rule="evenodd" transform="translate(.643 .005)"><circle cx="45.56" cy="104.7" r="45.56" fill="url(#a)" fill-rule="nonzero" opacity=".3"/><path stroke="url(#b)" stroke-linecap="round" stroke-linejoin="round" stroke-width="2" d="M57.55 9v52.56c21.56 6 35.376 27.003 32.348 49.177S67.93 149.441 45.55 149.441s-41.32-16.53-44.348-38.704S11.989 67.56 33.55 61.56V9" opacity=".7"/><ellipse cx="45.56" cy="139.56" fill="url(#c)" fill-rule="nonzero" rx="24.31" ry="7.68"/><path fill="url(#d)" fill-rule="nonzero" d="M57.55 7.82v52.92a45.73 45.73 0 0 0-24 0V7.82z" opacity=".2"/><path stroke="url(#e)" stroke-linejoin="round" d="M57.5 60.72h.09V7.82h-24v52.92h.09C11.63 66.706-2.592 88.078.417 110.72c3.01 22.644 22.32 39.558 45.163 39.558s42.154-16.914 45.163-39.557c3.01-22.643-11.214-44.015-33.263-49.981z"/><rect width="27.42" height="7.57" x="31.85" y=".26" fill="url(#f)" fill-rule="nonzero" opacity=".2" rx="3.18"/><path fill="url(#g)" fill-rule="nonzero" d="M56.09 8.83c-5.38.05-10.75.17-16.13.17h-5a4.4 4.4 0 0 1-1.33-.27A3.73 3.73 0 0 1 31.5 7a4.1 4.1 0 0 1-.3-2.48l.11-1a5.3 5.3 0 0 1 .25-1.11A3.71 3.71 0 0 1 35.03 0h21.18c.363.01.721.08 1.06.21a3.4 3.4 0 0 1 1.67 1.32 4 4 0 0 1 .61 2c0 .34.05.67.1 1a4 4 0 0 1 0 1.15 3.93 3.93 0 0 1-1.15 2.18 3.52 3.52 0 0 1-2.41.97m0-2a3.05 3.05 0 0 0 1.41-.28 2.38 2.38 0 0 0 1.13-1.11 2.9 2.9 0 0 0 .27-.84c0-.34.07-.67.1-1a2.66 2.66 0 0 0-.5-1.79A3 3 0 0 0 57.1.68 5.4 5.4 0 0 0 55.19.5h-4L35.03.52a2.71 2.71 0 0 0-2.64 2.09 2.6 2.6 0 0 0 0 .87l.12 1c.076.53.347 1.01.76 1.35a3 3 0 0 0 1.08.75c.208.08.428.12.65.12h5c5.34-.07 10.71.07 16.09.13"/><path fill="url(#h)" fill-rule="nonzero" d="M81.33 87.82a60.15 60.15 0 0 0-35.77-11.5 60.13 60.13 0 0 0-35.77 11.5C14.18 73.72 28.5 63.4 45.56 63.4s31.4 10.32 35.77 24.42"/><path fill="url(#i)" fill-rule="nonzero" d="M81.33 129.66c-9.75 4.66-22.19 7.46-35.77 7.46s-26-2.8-35.77-7.46c4.39 9.15 18.75 15.85 35.77 15.85s31.4-6.7 35.77-15.85" opacity=".4"/></g></svg>