<svg xmlns="http://www.w3.org/2000/svg" viewBox="0 0 36 152"><title>Beaker 2(烧杯)</title><defs><linearGradient id="a" x1="0%" x2="100%" y1="50%" y2="50%"><stop offset="0%" stop-color="#a9b1bb"/><stop offset="6%" stop-color="#5d6166"/><stop offset="78%" stop-color="#e2eaf2"/><stop offset="93%" stop-color="#9ba1ab"/><stop offset="100%" stop-color="#767b82"/></linearGradient><linearGradient id="b" x1="-1.674%" x2="101.674%" y1="50%" y2="50%"><stop offset="0%" stop-color="#e6f1ff" stop-opacity="0"/><stop offset="4%" stop-color="#5d6166"/><stop offset="64%" stop-color="#eef7ff" stop-opacity="0"/><stop offset="88%" stop-color="#9ba1ab"/><stop offset="100%" stop-color="#767b82"/></linearGradient><linearGradient id="c" x1="50%" x2="50%" y1="100.128%" y2="0%"><stop offset="0%" stop-color="#acafb3"/><stop offset="16%" stop-color="#b8bbbe" stop-opacity=".75"/><stop offset="36%" stop-color="#c5c8cb" stop-opacity=".49"/><stop offset="55%" stop-color="#d0d2d4" stop-opacity=".28"/><stop offset="73%" stop-color="#d7d9db" stop-opacity=".12"/><stop offset="88%" stop-color="#dbdde0" stop-opacity=".03"/><stop offset="100%" stop-color="#dddfe1" stop-opacity="0"/></linearGradient><linearGradient id="d" x1="0%" x2="100%" y1="50%" y2="50%"><stop offset="0%" stop-color="#a9b1bb"/><stop offset="6%" stop-color="#5d6166"/><stop offset="78%" stop-color="#e2eaf2"/><stop offset="93%" stop-color="#9ba1ab"/><stop offset="100%" stop-color="#767b82"/></linearGradient><linearGradient id="e" x1="-1.462%" x2="101.462%" y1="50%" y2="50%"><stop offset="0%" stop-color="#767b82"/><stop offset="12%" stop-color="#9ba1ab"/><stop offset="36%" stop-color="#eef7ff" stop-opacity="0"/><stop offset="94%" stop-color="#5d6166"/><stop offset="100%" stop-color="#e6f1ff" stop-opacity="0"/></linearGradient><linearGradient id="f" x1="49.327%" x2="50.673%" y1="62.868%" y2="37.12%"><stop offset="0%" stop-color="#fff" stop-opacity="0"/><stop offset="10%" stop-color="#fff" stop-opacity=".02"/><stop offset="22%" stop-color="#fff" stop-opacity=".09"/><stop offset="36%" stop-color="#fff" stop-opacity=".19"/><stop offset="51%" stop-color="#fff" stop-opacity=".34"/><stop offset="68%" stop-color="#fff" stop-opacity=".53"/><stop offset="84%" stop-color="#fff" stop-opacity=".76"/><stop offset="100%" stop-color="#fff"/></linearGradient></defs><g fill="none" fill-rule="evenodd" transform="translate(.843 .505)"><path fill="url(#a)" fill-rule="nonzero" d="M2.17 6.16h29.86v128.91c0 8.246-6.684 14.93-14.93 14.93a14.93 14.93 0 0 1-14.93-14.93z" opacity=".3"/><path stroke="url(#b)" d="M2.17 6.16h29.86v128.91c0 8.246-6.684 14.93-14.93 14.93a14.93 14.93 0 0 1-14.93-14.93z"/><ellipse cx="17.1" cy="142.85" fill="url(#c)" fill-rule="nonzero" rx="11.92" ry="3.92"/><rect width="34.2" height="6.16" fill="url(#d)" fill-rule="nonzero" opacity=".3" rx="3.08"/><rect width="34.2" height="6.16" stroke="url(#e)" rx="3.08"/><rect width="2.61" height="86.53" x="24.58" y="7.25" fill="url(#f)" fill-rule="nonzero" rx="1.305"/></g></svg>