<svg xmlns="http://www.w3.org/2000/svg" viewBox="0 0 151 120"><title>Benchtop fume hood(台式通风柜)</title><defs><linearGradient id="a" x1="87.84%" x2="12.16%" y1="28.083%" y2="72.153%"><stop offset="0%" stop-color="#d7dce0"/><stop offset="100%" stop-color="#8a9099"/></linearGradient><linearGradient id="b" x1="85.767%" x2="14.24%" y1="34.224%" y2="67.149%"><stop offset="0%" stop-color="#abafb3"/><stop offset="100%" stop-color="#45484d"/></linearGradient><linearGradient id="c" x1="63.145%" x2="14.678%" y1="56.234%" y2="33.239%"><stop offset="0%" stop-color="#e8f0fd" stop-opacity="0"/><stop offset="16%" stop-color="#e8f0fd" stop-opacity=".01"/><stop offset="29%" stop-color="#e8f0fd" stop-opacity=".05"/><stop offset="41%" stop-color="#e9f0fd" stop-opacity=".12"/><stop offset="53%" stop-color="#e9f1fd" stop-opacity=".21"/><stop offset="63%" stop-color="#eaf1fe" stop-opacity=".33"/><stop offset="74%" stop-color="#ebf1fe" stop-opacity=".48"/><stop offset="84%" stop-color="#ecf2fe" stop-opacity=".66"/><stop offset="94%" stop-color="#edf3ff" stop-opacity=".85"/><stop offset="100%" stop-color="#eef3ff"/></linearGradient><linearGradient id="d" x1="75%" x2="25%" y1="48.196%" y2="52.569%"><stop offset="0%" stop-color="#ebf0f5"/><stop offset="100%" stop-color="#b8c0cc"/></linearGradient><linearGradient id="e" x1="75.234%" x2="24.766%" y1="47.861%" y2="53.135%"><stop offset="0%" stop-color="#ebf0f5"/><stop offset="100%" stop-color="#b8c0cc"/></linearGradient><linearGradient id="f" x1="83.246%" x2="16.754%" y1="39.056%" y2="60.944%"><stop offset="0%" stop-color="#d7dce0"/><stop offset="100%" stop-color="#8a9099"/></linearGradient></defs><g fill="none" fill-rule="nonzero"><path fill="url(#a)" d="M150 111.22a8.27 8.27 0 0 1-8.26 7.91H8.26A8.27 8.27 0 0 1 0 111.22l5.17-79.13.28-.3h139.1l.28.3z" transform="translate(.143 .005)"/><path fill="url(#b)" d="M142.41 109.13H7.58l4.03-62.07h126.78z" transform="translate(.143 .005)"/><path fill="url(#c)" d="m7.58 109.13 4.03-62.07h126.78z" transform="translate(.143 .005)"/><path fill="url(#d)" d="M130.46 17.25H19.54l43.58-9.7h23.76z" transform="translate(.143 .005)"/><path fill="url(#e)" d="M144.55 31.79H5.45l13.01-14.3 1.08-.24h110.92l1.08.24z" transform="translate(.143 .005)"/><path fill="url(#f)" d="M63.54 0h22.92v7.55H63.54z" transform="translate(.143 .005)"/></g></svg>