<svg xmlns="http://www.w3.org/2000/svg" viewBox="0 0 116 151"><title>Exhaust hood(排气罩)</title><defs><linearGradient id="a" x1="79.58%" x2="20.42%" y1="44.58%" y2="55.42%"><stop offset="0%" stop-color="#abafb3"/><stop offset="100%" stop-color="#45484d"/></linearGradient><linearGradient id="b" x1="87.155%" x2="13.027%" y1="27.348%" y2="106.902%"><stop offset="0%" stop-color="#d7dce0"/><stop offset="100%" stop-color="#8a9099"/></linearGradient><linearGradient id="c" x1="96.349%" x2="3.68%" y1="10.446%" y2="89.554%"><stop offset="0%" stop-color="#ebf0f5"/><stop offset="100%" stop-color="#b8c0cc"/></linearGradient><linearGradient id="d" x1="50%" x2="50%" y1="100%" y2="0%"><stop offset="0%" stop-color="#878d93" stop-opacity="0"/><stop offset="100%" stop-color="#2e3033"/></linearGradient></defs><g fill="none" fill-rule="nonzero"><path fill="url(#a)" d="M0 128.95h114.89V150H0z" transform="translate(.143 .005)"/><path fill="url(#b)" d="M75.11 30.16H72.9V5.65H42.47v24.51h-2.69L0 128.95h114.89z" transform="translate(.143 .005)"/><path fill="url(#c)" d="M75.11 0v30.16h-3.27L70.03 6.49H44.85l-1.81 23.67h-3.26V0z" transform="translate(.143 .005)"/><path fill="url(#d)" d="m71.29 23.01-3.69-9.74H47.29l-3.7 9.74 1.26-16.52h25.19z" opacity=".8" transform="translate(.143 .005)"/></g></svg>