<svg xmlns="http://www.w3.org/2000/svg" viewBox="0 0 91 151"><title>Flask 1(烧瓶)</title><defs><linearGradient id="a" x1="0%" x2="99.964%" y1="50%" y2="50%"><stop offset="0%" stop-color="#a9b1bb"/><stop offset="6%" stop-color="#5d6166"/><stop offset="78%" stop-color="#e2eaf2"/><stop offset="93%" stop-color="#9ba1ab"/><stop offset="100%" stop-color="#767b82"/></linearGradient><linearGradient id="b" x1="12.864%" x2="77.171%" y1="59.516%" y2="45.554%"><stop offset="0%" stop-color="#a9b1bb"/><stop offset="6%" stop-color="#5d6166"/><stop offset="78%" stop-color="#e2eaf2"/><stop offset="93%" stop-color="#9ba1ab"/><stop offset="100%" stop-color="#767b82"/></linearGradient><linearGradient id="c" x1="49.994%" x2="49.994%" y1="100.341%" y2="-.32%"><stop offset="0%" stop-color="#767b82"/><stop offset="7%" stop-color="#9ba1ab"/><stop offset="22%" stop-color="#eef7ff"/><stop offset="94%" stop-color="#5d6166"/><stop offset="100%" stop-color="#e6f1ff"/></linearGradient><linearGradient id="d" x1="0%" x2="100%" y1="50.081%" y2="50.081%"><stop offset="0%" stop-color="#a9b1bb"/><stop offset="6%" stop-color="#5d6166"/><stop offset="78%" stop-color="#e2eaf2"/><stop offset="93%" stop-color="#9ba1ab"/><stop offset="100%" stop-color="#767b82"/></linearGradient><linearGradient id="e" x1="-1.944%" x2="101.868%" y1="50.029%" y2="50.029%"><stop offset="0%" stop-color="#e6f1ff"/><stop offset="6%" stop-color="#5d6166"/><stop offset="78%" stop-color="#eef7ff"/><stop offset="93%" stop-color="#9ba1ab"/><stop offset="100%" stop-color="#767b82"/></linearGradient><linearGradient id="f" x1="57.356%" x2="49.098%" y1="56.777%" y2="49.54%"><stop offset="0%" stop-color="#fff"/><stop offset="3%" stop-color="#fff" stop-opacity=".94"/><stop offset="14%" stop-color="#fff" stop-opacity=".73"/><stop offset="26%" stop-color="#fff" stop-opacity=".53"/><stop offset="37%" stop-color="#fff" stop-opacity=".37"/><stop offset="49%" stop-color="#fff" stop-opacity=".24"/><stop offset="61%" stop-color="#fff" stop-opacity=".13"/><stop offset="73%" stop-color="#fff" stop-opacity=".06"/><stop offset="86%" stop-color="#fff" stop-opacity=".01"/><stop offset="100%" stop-color="#fff" stop-opacity="0"/></linearGradient><linearGradient id="g" x1="0%" x2="100%" y1="50%" y2="50%"><stop offset="0%" stop-color="#fff" stop-opacity="0"/><stop offset="10%" stop-color="#fff" stop-opacity=".02"/><stop offset="22%" stop-color="#fff" stop-opacity=".09"/><stop offset="36%" stop-color="#fff" stop-opacity=".19"/><stop offset="51%" stop-color="#fff" stop-opacity=".34"/><stop offset="68%" stop-color="#fff" stop-opacity=".53"/><stop offset="84%" stop-color="#fff" stop-opacity=".76"/><stop offset="100%" stop-color="#fff"/></linearGradient><linearGradient id="h" x1="0%" x2="100%" y1="50.032%" y2="50.032%"><stop offset="0%" stop-color="#fff" stop-opacity="0"/><stop offset="10%" stop-color="#fff" stop-opacity=".02"/><stop offset="22%" stop-color="#fff" stop-opacity=".09"/><stop offset="36%" stop-color="#fff" stop-opacity=".19"/><stop offset="51%" stop-color="#fff" stop-opacity=".34"/><stop offset="68%" stop-color="#fff" stop-opacity=".53"/><stop offset="84%" stop-color="#fff" stop-opacity=".76"/><stop offset="100%" stop-color="#fff"/></linearGradient><linearGradient id="i" x1="50%" x2="50%" y1="100%" y2="-.109%"><stop offset="0%" stop-color="#acafb3"/><stop offset="16%" stop-color="#b8bbbe" stop-opacity=".75"/><stop offset="36%" stop-color="#c5c8cb" stop-opacity=".49"/><stop offset="55%" stop-color="#d0d2d4" stop-opacity=".28"/><stop offset="73%" stop-color="#d7d9db" stop-opacity=".12"/><stop offset="88%" stop-color="#dbdde0" stop-opacity=".03"/><stop offset="100%" stop-color="#dddfe1" stop-opacity="0"/></linearGradient></defs><g fill="none" fill-rule="evenodd" transform="translate(.655 .002)"><path fill="url(#a)" fill-rule="nonzero" d="M30.787 6.433h27.68v33.96h-27.68z" opacity=".2"/><path fill="url(#b)" fill-rule="nonzero" d="M75.327 150.263h-61.41a13.92 13.92 0 0 1-13.22-18.26l30.09-91.61h27.7l30.06 91.61a13.92 13.92 0 0 1-13.22 18.26" opacity=".3"/><path stroke="url(#c)" d="m88.547 132.003-30.06-91.61v-34h-27.7v34l-30.09 91.61a13.92 13.92 0 0 0 13.22 18.27h61.41a13.918 13.918 0 0 0 13.22-18.27Z"/><rect width="31.67" height="6.17" x="28.787" y=".263" fill="url(#d)" fill-rule="nonzero" opacity=".2" rx="3.085"/><path fill="url(#e)" fill-rule="nonzero" d="M57.367 7.433c-5.86.06-11.73.2-17.59.16h-7.7a6 6 0 0 1-.67 0 3.4 3.4 0 0 1-.71-.2 4 4 0 0 1-1.95-1.94 3.84 3.84 0 0 1-.34-2.5 3.56 3.56 0 0 1 3.47-2.95h25.29a3.6 3.6 0 0 1 1.16.14 3.82 3.82 0 0 1 2.61 3.71 3.75 3.75 0 0 1-1 2.42 3.5 3.5 0 0 1-2.57 1.16m0-2a2.9 2.9 0 0 0 1.49-.36 2.36 2.36 0 0 0 1.05-1.35 2.4 2.4 0 0 0-.17-1.88 2.56 2.56 0 0 0-1.55-1.22 8.6 8.6 0 0 0-2.12-.12h-24.19a2.7 2.7 0 0 0-1.82.72 2.53 2.53 0 0 0-.82 1.78 2.3 2.3 0 0 0 .56 1.71 2.1 2.1 0 0 0 1.48.65q.185.015.37 0h8.13c5.86-.12 11.71.02 17.59.07"/><path fill="url(#f)" fill-rule="nonzero" d="M30.487 140.443h-16.66l22.56-88.15a2.54 2.54 0 0 1 5.04.46v76.71c-.01 6.044-4.896 10.947-10.94 10.98"/><rect width="5.38" height="30.9" x="35.107" y="6.433" fill="url(#g)" fill-rule="nonzero" rx="2.3"/><rect width="5.38" height="30.9" x="46.937" y="6.443" fill="url(#h)" fill-rule="nonzero" rx="2.3" transform="matrix(-1 0 0 -1 99.254 43.787)"/><path stroke="#606060" stroke-width=".25" d="M39.827 131.033h19.23m-19.23-6.95h9.22m-9.22-14.26h9.22m-9.22-14.27h9.22m-9.22-14.26h9.22m-9.22 35.85h18.44m-18.44-14.26h18.44m-18.44-14.27h18.44m-18.44-14.26h18.44" opacity=".6"/><g fill="#000" fill-rule="nonzero" opacity=".6"><path d="m29.747 127.353-.89.26v-.83l1.07-.33h.47l-.09 5.62h-.68zM32.887 132.153a1.1 1.1 0 0 1-.54-.13 1 1 0 0 1-.4-.46 2.9 2.9 0 0 1-.26-.91 8.5 8.5 0 0 1-.08-1.44 9 9 0 0 1 .1-1.42 3 3 0 0 1 .26-.86c.09-.181.228-.334.4-.44a1.1 1.1 0 0 1 .52-.12c.18-.003.359.038.52.12a1 1 0 0 1 .4.44c.13.271.218.561.26.86q.115.705.1 1.42a8.5 8.5 0 0 1-.08 1.44 3.3 3.3 0 0 1-.25.91 1 1 0 0 1-.41.46 1.1 1.1 0 0 1-.54.13m0-.9a.48.48 0 0 0 .29-.09.65.65 0 0 0 .19-.32 2.7 2.7 0 0 0 .11-.63 9 9 0 0 0 0-1v-1a3 3 0 0 0-.12-.61.6.6 0 0 0-.19-.31.42.42 0 0 0-.28-.08.44.44 0 0 0-.28.08.6.6 0 0 0-.19.31 3.2 3.2 0 0 0-.11.61v2q.024.32.11.63a.65.65 0 0 0 .19.32.5.5 0 0 0 .28.09m3.11.9a1.08 1.08 0 0 1-.93-.61 2.9 2.9 0 0 1-.27-.91 8 8 0 0 1-.11-1.44 9.5 9.5 0 0 1 .07-1.42 3 3 0 0 1 .25-.86 1 1 0 0 1 .39-.44 1.1 1.1 0 0 1 .52-.12c.18-.002.359.039.52.12a1 1 0 0 1 .41.44c.134.27.225.56.27.86q.132.703.13 1.42.058.72 0 1.44a3 3 0 0 1-.24.91 1 1 0 0 1-.4.46 1 1 0 0 1-.61.15m0-.9a.48.48 0 0 0 .29-.09.64.64 0 0 0 .18-.32 2.8 2.8 0 0 0 .1-.63v-1c0-.4 0-.74-.06-1a2.5 2.5 0 0 0-.13-.61.7.7 0 0 0-.19-.31.47.47 0 0 0-.29-.08.44.44 0 0 0-.28.08.7.7 0 0 0-.18.31 2.7 2.7 0 0 0-.1.61 10 10 0 0 0 0 1c0 .4 0 .74.05 1q.03.32.12.63a.65.65 0 0 0 .2.32.5.5 0 0 0 .27.09zM30.097 110.173l-.79.21v-.66l1-.27h.42l-.07 4.46h-.61zm2.51 3.83a1.9 1.9 0 0 1-.7-.06v-.72q.155.056.32.08.17.015.34 0 .16.023.32 0a.8.8 0 0 0 .26-.13.7.7 0 0 0 .16-.25 1 1 0 0 0 .06-.38.88.88 0 0 0-.19-.61.87.87 0 0 0-.61-.17h-.32l-.33.07.23-2.34h1.59v.68h-1.13l-.11 1a1 1 0 0 1 .16 0h.19a1 1 0 0 1 .83.33 2 2 0 0 1-.07 2.19 1.35 1.35 0 0 1-1 .31M35.647 114.003a1.1 1.1 0 0 1-.48-.1.93.93 0 0 1-.37-.37 2.3 2.3 0 0 1-.24-.71 6 6 0 0 1-.09-1.15 5 5 0 0 1 .07-1.11 2.1 2.1 0 0 1 .22-.69.74.74 0 0 1 .35-.35 1 1 0 0 1 .46-.1 1 1 0 0 1 .46.1.8.8 0 0 1 .36.35 2 2 0 0 1 .25.69q.104.55.11 1.11a6.6 6.6 0 0 1 0 1.15 2.1 2.1 0 0 1-.22.71.8.8 0 0 1-.35.37 1.06 1.06 0 0 1-.53.1m0-.71a.4.4 0 0 0 .25-.07.48.48 0 0 0 .17-.25 2.4 2.4 0 0 0 .09-.5 7 7 0 0 0 0-.8 5.4 5.4 0 0 0-.05-.78 1.7 1.7 0 0 0-.11-.48.48.48 0 0 0-.17-.25.55.55 0 0 0-.5 0 .47.47 0 0 0-.16.25 1.5 1.5 0 0 0-.09.48 6 6 0 0 0 0 .78v.8q.026.256.11.5a.48.48 0 0 0 .17.25.44.44 0 0 0 .28.04zM29.487 97.693c.28-.27.51-.5.69-.7s.32-.36.43-.5a2 2 0 0 0 .21-.39.8.8 0 0 0 .07-.33.7.7 0 0 0 0-.27.3.3 0 0 0-.11-.16.4.4 0 0 0-.17-.09h-.5l-.34.09v-.53l.34-.08q.19-.015.38 0a1 1 0 0 1 .7.24 1 1 0 0 1 .25.75q0 .212-.05.42a1.5 1.5 0 0 1-.17.4 3 3 0 0 1-.33.45c-.15.17-.33.36-.55.58l-.19.17v.05h1.34v.55h-2zM32.897 98.363a1.2 1.2 0 0 1-.43-.08.83.83 0 0 1-.32-.3 1.6 1.6 0 0 1-.21-.57 4.7 4.7 0 0 1-.06-.91 4.3 4.3 0 0 1 .08-.89 1.7 1.7 0 0 1 .21-.55.7.7 0 0 1 .32-.28 1.1 1.1 0 0 1 .82 0 .7.7 0 0 1 .32.28q.154.255.21.55.08.44.08.89a4.6 4.6 0 0 1-.07.91 1.6 1.6 0 0 1-.2.57.8.8 0 0 1-.33.3 1.1 1.1 0 0 1-.42.08m0-.57a.4.4 0 0 0 .22-.06.33.33 0 0 0 .16-.2 1.4 1.4 0 0 0 .09-.39 4 4 0 0 0 0-.64 5 5 0 0 0 0-.62 1.6 1.6 0 0 0-.09-.39.4.4 0 0 0-.15-.19.4.4 0 0 0-.22-.06.44.44 0 0 0-.23.06.4.4 0 0 0-.15.19 1.7 1.7 0 0 0-.08.39v.62a6 6 0 0 0 0 .64q.017.2.09.39a.36.36 0 0 0 .15.2.4.4 0 0 0 .21.06m2.46.57a1.2 1.2 0 0 1-.43-.08.8.8 0 0 1-.33-.3 1.7 1.7 0 0 1-.22-.57 5.8 5.8 0 0 1 0-1.8 2 2 0 0 1 .2-.55.7.7 0 0 1 .32-.28 1 1 0 0 1 .41-.08c.14-.001.28.026.41.08a.73.73 0 0 1 .33.28q.154.255.21.55.098.439.1.89a5 5 0 0 1-.05.91 1.4 1.4 0 0 1-.19.57.76.76 0 0 1-.32.3 1.1 1.1 0 0 1-.44.08m0-.57a.4.4 0 0 0 .22-.06.36.36 0 0 0 .15-.2 1.2 1.2 0 0 0 .08-.39 6 6 0 0 0 0-.64v-.62a2 2 0 0 0-.1-.39.44.44 0 0 0-.22-.19.4.4 0 0 0-.22-.06.44.44 0 0 0-.23.06.4.4 0 0 0-.14.19 1.3 1.3 0 0 0-.08.39 4 4 0 0 0 0 .62 4 4 0 0 0 0 .64q.017.2.09.39a.33.33 0 0 0 .16.2.4.4 0 0 0 .28.06zM29.797 84.813c.25-.22.46-.4.62-.56a4 4 0 0 0 .38-.41q.116-.145.2-.31a2 2 0 0 0 .06-.27.5.5 0 0 0 0-.22.26.26 0 0 0-.1-.13.35.35 0 0 0-.15-.07h-.45a2 2 0 0 0-.31.07v-.43a1.3 1.3 0 0 1 .3-.06q.17-.015.34 0a1 1 0 0 1 .64.2.76.76 0 0 1 .22.61q.017.165 0 .33a1.2 1.2 0 0 1-.15.33 4 4 0 0 1-.3.37c-.13.13-.29.28-.5.46l-.16.14h1.15v.44h-1.8zm2.87.54h-.56v-.46h.53q.13.015.26 0a.44.44 0 0 0 .2-.08.34.34 0 0 0 .13-.16.6.6 0 0 0 0-.25.47.47 0 0 0-.15-.39.86.86 0 0 0-.49-.11 1.2 1.2 0 0 0-.26 0h-.26l.18-1.52h1.28v.44h-.91l-.09.65h.28a1 1 0 0 1 .67.21 1.09 1.09 0 0 1 .01 1.44 1.2 1.2 0 0 1-.82.23M35.107 85.353a1.1 1.1 0 0 1-.38-.06.63.63 0 0 1-.3-.24 1.2 1.2 0 0 1-.19-.46 3.6 3.6 0 0 1-.08-.74 3.6 3.6 0 0 1 .06-.72c.028-.161.09-.315.18-.45a.6.6 0 0 1 .28-.22 1.1 1.1 0 0 1 .37-.07q.196 0 .38.07a.6.6 0 0 1 .29.22c.094.134.159.288.19.45q.084.355.09.72a3.2 3.2 0 0 1 0 .74 1.2 1.2 0 0 1-.17.46.6.6 0 0 1-.29.24 1.1 1.1 0 0 1-.43.06m0-.45a.46.46 0 0 0 .21-.05.3.3 0 0 0 .13-.16.8.8 0 0 0 .07-.32 4 4 0 0 0 0-.52v-.5a1 1 0 0 0-.09-.31.28.28 0 0 0-.14-.16.4.4 0 0 0-.2 0 .4.4 0 0 0-.2 0 .3.3 0 0 0-.13.16 1 1 0 0 0-.07.31 2.5 2.5 0 0 0 0 .5 4 4 0 0 0 0 .52 1 1 0 0 0 .09.32.28.28 0 0 0 .14.16.4.4 0 0 0 .18.05zM30.657 74.893h-.54v-.38q.13.012.26 0h.48a.5.5 0 0 0 .17-.06.3.3 0 0 0 .12-.11.35.35 0 0 0 0-.18.3.3 0 0 0-.16-.3 1.1 1.1 0 0 0-.45-.07h-.18v-.34h.18a.83.83 0 0 0 .42-.08.27.27 0 0 0 .15-.27c0-.12 0-.2-.11-.24a.6.6 0 0 0-.33-.07h-.47v-.29h.51a1.2 1.2 0 0 1 .34 0 .7.7 0 0 1 .26.1.5.5 0 0 1 .16.2.65.65 0 0 1 0 .29.53.53 0 0 1-.1.34.74.74 0 0 1-.3.19.52.52 0 0 1 .34.19.62.62 0 0 1 .11.37q.11.71-.86.71M32.897 74.893a1 1 0 0 1-.35-.06.53.53 0 0 1-.26-.19 1.1 1.1 0 0 1-.17-.38 2.2 2.2 0 0 1-.05-.61 2.6 2.6 0 0 1 .06-.61 1.1 1.1 0 0 1 .17-.37.6.6 0 0 1 .26-.19 1.2 1.2 0 0 1 .34 0 1.2 1.2 0 0 1 .34 0 .6.6 0 0 1 .26.19.9.9 0 0 1 .17.37q.072.3.07.61a2.7 2.7 0 0 1-.06.61 1.1 1.1 0 0 1-.16.38.6.6 0 0 1-.27.19 1 1 0 0 1-.35.06m0-.38a.4.4 0 0 0 .19 0 .3.3 0 0 0 .12-.13.9.9 0 0 0 .08-.27v-.42a2.5 2.5 0 0 0 0-.43.8.8 0 0 0-.07-.25.28.28 0 0 0-.12-.14.5.5 0 0 0-.19 0 .5.5 0 0 0-.18 0 .36.36 0 0 0-.13.14 1 1 0 0 0-.07.25v.43a2.6 2.6 0 0 0 0 .42q.02.138.07.27a.3.3 0 0 0 .12.13.4.4 0 0 0 .18 0m2.01.38a1 1 0 0 1-.35-.06.6.6 0 0 1-.27-.19 1.1 1.1 0 0 1-.17-.38 3.3 3.3 0 0 1-.07-.61 2.6 2.6 0 0 1 .06-.61.9.9 0 0 1 .16-.37.6.6 0 0 1 .26-.19 1.2 1.2 0 0 1 .34 0 1.3 1.3 0 0 1 .34 0 .6.6 0 0 1 .26.19.9.9 0 0 1 .18.37q.072.3.07.61a2.3 2.3 0 0 1 0 .61 1.1 1.1 0 0 1-.16.38.53.53 0 0 1-.26.19 1 1 0 0 1-.39.06m0-.38a.36.36 0 0 0 .19 0 .3.3 0 0 0 .12-.13.7.7 0 0 0 .07-.27 2.6 2.6 0 0 0 0-.42 4 4 0 0 0 0-.43.7.7 0 0 0-.08-.25.28.28 0 0 0-.12-.14.5.5 0 0 0-.19 0 .5.5 0 0 0-.18 0 .28.28 0 0 0-.12.14 1 1 0 0 0-.07.25v.85q.024.139.08.27.046.083.13.13a.34.34 0 0 0 .16 0z"/></g><ellipse cx="44.647" cy="143.263" fill="url(#i)" fill-rule="nonzero" rx="41.38" ry="4.59"/></g></svg>