<svg xmlns="http://www.w3.org/2000/svg" viewBox="0 0 98 152"><title>Funnel（漏斗）</title><defs><linearGradient id="a" x1="84.733%" x2="-3.622%" y1="55.228%" y2="29.371%"><stop offset="0%" stop-color="#767b82"/><stop offset="7%" stop-color="#9ba1ab"/><stop offset="22%" stop-color="#e2eaf2"/><stop offset="94%" stop-color="#5d6166"/><stop offset="100%" stop-color="#a9b1bb"/></linearGradient><linearGradient id="b" x1="50.005%" x2="50.005%" y1="100.324%" y2="-.647%"><stop offset="0%" stop-color="#767b82"/><stop offset="7%" stop-color="#9ba1ab"/><stop offset="22%" stop-color="#eef7ff" stop-opacity="0"/><stop offset="94%" stop-color="#5d6166"/><stop offset="100%" stop-color="#e6f1ff"/></linearGradient><linearGradient id="c" x1="80.586%" x2="-1.55%" y1="52.88%" y2="23.901%"><stop offset="0%" stop-color="#767b82"/><stop offset="7%" stop-color="#9ba1ab"/><stop offset="16%" stop-color="#e2eaf2"/><stop offset="94%" stop-color="#5d6166"/><stop offset="100%" stop-color="#a9b1bb"/></linearGradient><linearGradient id="d" x1="-.524%" x2="100.524%" y1="49.75%" y2="49.75%"><stop offset="0%" stop-color="#767b82"/><stop offset="7%" stop-color="#9ba1ab"/><stop offset="22%" stop-color="#eef7ff" stop-opacity="0"/><stop offset="94%" stop-color="#5d6166"/><stop offset="100%" stop-color="#e6f1ff"/></linearGradient><linearGradient id="e" x1="0%" x2="100%" y1="50%" y2="50%"><stop offset="0%" stop-color="#a9b1bb"/><stop offset="6%" stop-color="#5d6166"/><stop offset="78%" stop-color="#e2eaf2"/><stop offset="93%" stop-color="#9ba1ab"/><stop offset="100%" stop-color="#767b82"/></linearGradient><linearGradient id="f" x1="-5.118%" x2="105.118%" y1="50.66%" y2="50.66%"><stop offset="0%" stop-color="#767b82"/><stop offset="7%" stop-color="#9ba1ab"/><stop offset="22%" stop-color="#eef7ff" stop-opacity="0"/><stop offset="94%" stop-color="#5d6166"/><stop offset="100%" stop-color="#e6f1ff"/></linearGradient><linearGradient id="g" x1="34.5%" x2="65.5%" y1="48%" y2="48%"><stop offset="0%" stop-color="#a9b1bb"/><stop offset="6%" stop-color="#5d6166"/><stop offset="78%" stop-color="#e2eaf2"/><stop offset="93%" stop-color="#9ba1ab"/><stop offset="100%" stop-color="#767b82"/></linearGradient><linearGradient id="h" x1="35%" x2="65%" y1="48%" y2="48%"><stop offset="0%" stop-color="#a9b1bb"/><stop offset="6%" stop-color="#5d6166"/><stop offset="78%" stop-color="#e2eaf2"/><stop offset="93%" stop-color="#9ba1ab"/><stop offset="100%" stop-color="#767b82"/></linearGradient></defs><g fill="none" fill-rule="evenodd"><path fill="url(#a)" fill-rule="nonzero" d="M96.445 4.5c0-2.5-21.51-4.5-48.04-4.5S.355 2 .355 4.5a.67.67 0 0 0 .29.48l42.87 72.26h9.77l42.87-72.28a.67.67 0 0 0 .29-.46" opacity=".3" transform="translate(.288 .505)"/><path stroke="url(#b)" d="m53.285 77.24 42.87-72.28a.67.67 0 0 0 .29-.46c0-2.5-21.51-4.5-48.04-4.5S.355 2 .355 4.5a.67.67 0 0 0 .29.48l42.87 72.26" transform="translate(.288 .505)"/><path fill="url(#c)" fill-rule="nonzero" d="m96.155 4.98-42.87 72.25h-9.76L.655 4.98c2.67 2.23 23 4 47.75 4s45.07-1.77 47.75-4" opacity=".3" transform="translate(.288 .505)"/><path stroke="url(#d)" stroke-linecap="round" d="M.655 4.98c2.67 2.23 23 4 47.75 4s45.07-1.74 47.75-4" transform="translate(.288 .505)"/><path fill="url(#e)" fill-rule="nonzero" d="m53.285 143.16-9.77 6.84V77.24h9.77z" opacity=".3" transform="translate(.288 .505)"/><path stroke="url(#f)" d="M53.285 77.24v65.92l-3.33 2.34-6.44 4.5V77.24" transform="translate(.288 .505)"/><path fill="url(#g)" fill-rule="nonzero" d="m.345 4.5.31.5a.64.64 0 0 1-.31-.5" transform="translate(.288 .505)"/><path fill="url(#h)" fill-rule="nonzero" d="M96.455 4.5a.65.65 0 0 1-.3.5z" transform="translate(.288 .505)"/></g></svg>