<svg xmlns="http://www.w3.org/2000/svg" viewBox="0 0 151 62"><title>Glass bowl(玻璃碗)</title><defs><linearGradient id="a" x1="35.907%" x2="72.887%" y1="33.475%" y2="59.337%"><stop offset="0%" stop-color="#a9b1bb"/><stop offset="6%" stop-color="#5d6166"/><stop offset="87%" stop-color="#e2eaf2"/><stop offset="93%" stop-color="#9ba1ab"/><stop offset="100%" stop-color="#767b82"/></linearGradient><linearGradient id="b" x1="49.997%" x2="49.997%" y1="100.759%" y2="-.825%"><stop offset="0%" stop-color="#e6f1ff"/><stop offset="6%" stop-color="#5d6166"/><stop offset="78%" stop-color="#eef7ff"/><stop offset="93%" stop-color="#9ba1ab"/><stop offset="100%" stop-color="#767b82"/></linearGradient><linearGradient id="c" x1="0%" x2="100%" y1="50%" y2="50%"><stop offset="0%" stop-color="#8b9199"/><stop offset="3%" stop-color="#a6aab0" stop-opacity=".77"/><stop offset="5%" stop-color="#bdc1c5" stop-opacity=".57"/><stop offset="9%" stop-color="#d2d4d7" stop-opacity=".39"/><stop offset="12%" stop-color="#e3e4e6" stop-opacity=".24"/><stop offset="17%" stop-color="#eff0f1" stop-opacity=".13"/><stop offset="22%" stop-color="#f8f9f9" stop-opacity=".06"/><stop offset="29%" stop-color="#fefefe" stop-opacity=".01"/><stop offset="50%" stop-color="#fff" stop-opacity="0"/><stop offset="71%" stop-color="#fefefe" stop-opacity=".01"/><stop offset="78%" stop-color="#f9f9f9" stop-opacity=".06"/><stop offset="83%" stop-color="#f1f1f1" stop-opacity=".13"/><stop offset="88%" stop-color="#e5e6e6" stop-opacity=".24"/><stop offset="91%" stop-color="#d6d7d7" stop-opacity=".39"/><stop offset="95%" stop-color="#c4c4c5" stop-opacity=".57"/><stop offset="97%" stop-color="#aeafb0" stop-opacity=".77"/><stop offset="100%" stop-color="#969799"/></linearGradient><linearGradient id="d" x1="22.859%" x2="69.512%" y1="83.186%" y2="3.81%"><stop offset="0%" stop-color="#fff" stop-opacity="0"/><stop offset="14%" stop-color="#fff" stop-opacity=".01"/><stop offset="27%" stop-color="#fff" stop-opacity=".06"/><stop offset="39%" stop-color="#fff" stop-opacity=".13"/><stop offset="51%" stop-color="#fff" stop-opacity=".24"/><stop offset="63%" stop-color="#fff" stop-opacity=".37"/><stop offset="74%" stop-color="#fff" stop-opacity=".53"/><stop offset="86%" stop-color="#fff" stop-opacity=".73"/><stop offset="97%" stop-color="#fff" stop-opacity=".94"/><stop offset="100%" stop-color="#fff"/></linearGradient><linearGradient id="e" x1="50%" x2="50%" y1="100%" y2="0%"><stop offset="0%" stop-color="#acafb3"/><stop offset="16%" stop-color="#b8bbbe" stop-opacity=".75"/><stop offset="36%" stop-color="#c5c8cb" stop-opacity=".49"/><stop offset="55%" stop-color="#d0d2d4" stop-opacity=".28"/><stop offset="73%" stop-color="#d7d9db" stop-opacity=".12"/><stop offset="88%" stop-color="#dbdde0" stop-opacity=".03"/><stop offset="100%" stop-color="#dddfe1" stop-opacity="0"/></linearGradient></defs><g fill="none" fill-rule="evenodd" transform="translate(.323 .505)"><path fill="url(#a)" fill-rule="nonzero" d="M150 0H0s0 24.2 31.91 56.12l1.37 4.45h83.67l1.14-4.45C149.88 24.34 150 0 150 0" opacity=".3"/><path stroke="url(#b)" stroke-linejoin="round" d="M146.66 0H3.32A3.002 3.002 0 0 0 .36 3.5c1.24 7.77 6.78 27.89 31.55 52.66l1.37 4.45h83.67l1.14-4.45c24.67-24.66 30.27-44.9 31.54-52.66a3 3 0 0 0-2.97-3.5Z"/><path fill="url(#c)" fill-rule="nonzero" d="M146.06 0H3.94s0 23 30.23 53.35l1.3 4.23h79.28l1.07-4.23C145.94 23.13 146.06 0 146.06 0"/><path fill="url(#d)" fill-rule="nonzero" d="M136.55 4.23s-.08 16.9-18.91 40.68h-5a89.34 89.34 0 0 0 8.34-40.68z"/><ellipse cx="75" cy="52.89" fill="url(#e)" fill-rule="nonzero" rx="45.41" ry="3.38"/></g></svg>