<svg xmlns="http://www.w3.org/2000/svg" viewBox="0 0 40 151"><title>Graduated cylinder（量筒）</title><defs><linearGradient id="a" x1="0%" x2="100.036%" y1="50%" y2="50%"><stop offset="0%" stop-color="#a9b1bb"/><stop offset="6%" stop-color="#5d6166"/><stop offset="84%" stop-color="#e2eaf2"/><stop offset="93%" stop-color="#9ba1ab"/><stop offset="100%" stop-color="#767b82"/></linearGradient><linearGradient id="b" x1="50.086%" x2="50.086%" y1="100.339%" y2="-.163%"><stop offset="0%" stop-color="#898f99"/><stop offset="12%" stop-color="#b9c0cc"/><stop offset="22%" stop-color="#eef7ff" stop-opacity="0"/><stop offset="94%" stop-color="#5e6266"/><stop offset="100%" stop-color="#e6f1ff"/></linearGradient><linearGradient id="c" x1="0%" x2="100%" y1="50%" y2="50%"><stop offset="0%" stop-color="#5d6166"/><stop offset="50%" stop-color="#e2eaf2"/><stop offset="53%" stop-color="#767b82"/><stop offset="100%" stop-color="#e2eaf2"/></linearGradient><linearGradient id="d" x1="43.773%" x2="70.296%" y1="61.749%" y2="11.788%"><stop offset="0%" stop-color="#a9b1bb"/><stop offset="6%" stop-color="#5d6166"/><stop offset="84%" stop-color="#e2eaf2"/><stop offset="93%" stop-color="#9ba1ab"/><stop offset="100%" stop-color="#767b82"/></linearGradient></defs><g fill="none" fill-rule="evenodd"><path fill="url(#a)" fill-rule="nonzero" d="M6.74 0h27.95v147.44H6.74z" opacity=".3" transform="translate(.803 .245)"/><path stroke="url(#b)" d="M34.7 0v147.44H6.74V12.32L0 0" transform="translate(.803 .245)"/><path fill="url(#c)" fill-rule="nonzero" d="M3.16 147.44h35.12V150H3.16z" opacity=".2" transform="translate(.803 .245)"/><path fill="url(#d)" fill-rule="nonzero" d="M6.79 12.81 0 0h6.79z" opacity=".2" transform="translate(.803 .245)"/><path stroke="#606060" stroke-width=".25" d="M7.593 136.385h27.91m-27.91-12.78h27.91m-27.91 11.51h5.14m-5.14-1.28h5.14m-5.14-1.28h5.14m-5.14-1.28h5.14m-5.14-1.28h6.68m-6.68-1.28h5.14m-5.14-1.27h5.14m-5.14-1.28h5.14m-5.14-1.28h5.14m-5.14-1.28h13.93m-13.93-12.78h13.93m-13.93 11.5h5.14m-5.14-1.28h5.14m-5.14-1.27h5.14m-5.14-1.28h5.14m-5.14-1.28h6.68m-6.68-1.28h5.14m-5.14-1.28h5.14m-5.14-1.28h5.14m-5.14-1.27h5.14m-5.14-1.28h27.91m-27.91-12.79h27.91m-27.91 11.51h5.14m-5.14-1.28h5.14m-5.14-1.28h5.14m-5.14-1.28h5.14m-5.14-1.27h6.68m-6.68-1.28h5.14m-5.14-1.28h5.14m-5.14-1.28h5.14m-5.14-1.28h5.14m-5.14-1.28h13.93m-13.93-12.78h13.93m-13.93 11.51h5.14m-5.14-1.28h5.14m-5.14-1.28h5.14m-5.14-1.28h5.14m-5.14-1.28h6.68m-6.68-1.28h5.14m-5.14-1.27h5.14m-5.14-1.28h5.14m-5.14-1.28h5.14m-5.14-1.28h27.91m-27.91-12.78h27.91m-27.91 11.5h5.14m-5.14-1.28h5.14m-5.14-1.27h5.14m-5.14-1.28h5.14m-5.14-1.28h6.68m-6.68-1.28h5.14m-5.14-1.28h5.14m-5.14-1.28h5.14m-5.14-1.27h5.14m-5.14-1.28h13.93m-13.93-1.28h5.14m-5.14-1.28h5.14m-5.14-1.28h5.14m-5.14-1.28h5.14m-5.14-1.27h6.68m-6.68-1.28h5.14m-5.14-1.28h5.14m-5.14-1.28h5.14m-5.14-1.28h5.14m-5.14-1.44h27.91m-27.91-12.78h27.91m-27.91 11.51h5.14m-5.14-1.28h5.14m-5.14-1.28h5.14m-5.14-1.28h5.14m-5.14-1.28h6.68m-6.68-1.28h5.14m-5.14-1.27h5.14m-5.14-1.28h5.14m-5.14-1.28h5.14m-5.14-1.28h13.93m-13.93-12.78h13.93m-13.93 11.5h5.14m-5.14-1.28h5.14m-5.14-1.27h5.14m-5.14-1.28h5.14m-5.14-1.28h6.68m-6.68-1.28h5.14m-5.14-1.28h5.14m-5.14-1.28h5.14m-5.14-1.27h5.14m-5.14-1.28h27.91m-27.91-12.79h27.91m-27.91 11.51h5.14m-5.14-1.28h5.14m-5.14-1.28h5.14m-5.14-1.28h5.14m-5.14-1.27h6.68m-6.68-1.28h5.14m-5.14-1.28h5.14m-5.14-1.28h5.14m-5.14-1.28h5.14" opacity=".6"/><g fill="#000" fill-rule="nonzero" opacity=".6"><path d="m18.353 132.565-.75.14v-.46l.91-.19h.41v3.06h-.57zM21.033 135.155a1.2 1.2 0 0 1-.44-.07.73.73 0 0 1-.34-.24 1.2 1.2 0 0 1-.22-.48 3.4 3.4 0 0 1-.08-.78 3.3 3.3 0 0 1 .08-.77 1.2 1.2 0 0 1 .22-.49.67.67 0 0 1 .34-.24q.213-.076.44-.07c.153-.004.306.02.45.07a.67.67 0 0 1 .34.24c.106.146.181.313.22.49q.08.38.07.77a3.5 3.5 0 0 1-.07.78 1.3 1.3 0 0 1-.22.48.73.73 0 0 1-.34.24 1.3 1.3 0 0 1-.45.07m0-.48a.55.55 0 0 0 .24 0c.07-.04.13-.1.17-.17a1.2 1.2 0 0 0 .09-.34 5 5 0 0 0 0-1.08 1.3 1.3 0 0 0-.09-.34.46.46 0 0 0-.17-.17.6.6 0 0 0-.48 0 .44.44 0 0 0-.16.17 1.3 1.3 0 0 0-.09.34 5 5 0 0 0 0 1.08q.02.177.09.34a.44.44 0 0 0 .16.17.6.6 0 0 0 .24 0m2.58.48a1.3 1.3 0 0 1-.45-.07.8.8 0 0 1-.34-.24 1.2 1.2 0 0 1-.22-.48 3.4 3.4 0 0 1-.08-.78 3.3 3.3 0 0 1 .08-.77 1.2 1.2 0 0 1 .22-.49.7.7 0 0 1 .34-.24 1.3 1.3 0 0 1 .45-.07q.227-.006.44.07a.67.67 0 0 1 .34.24c.11.144.186.312.22.49q.086.38.08.77a3.4 3.4 0 0 1-.08.78 1.2 1.2 0 0 1-.22.48.73.73 0 0 1-.34.24 1.2 1.2 0 0 1-.44.07m0-.48a.5.5 0 0 0 .23 0c.07-.04.13-.1.17-.17a1.2 1.2 0 0 0 .09-.34 5 5 0 0 0 .04-1.16 1.3 1.3 0 0 0-.09-.34.46.46 0 0 0-.17-.17.5.5 0 0 0-.23-.05.54.54 0 0 0-.24.05.46.46 0 0 0-.17.17 1.3 1.3 0 0 0-.1.34 5 5 0 0 0 0 1.08q.02.177.09.34c.04.07.1.13.17.17a.6.6 0 0 0 .21.08M17.413 121.805c.29-.23.52-.42.71-.59a5 5 0 0 0 .44-.43q.136-.152.22-.34a.58.58 0 0 0 .02-.51.44.44 0 0 0-.12-.15.5.5 0 0 0-.18-.07.8.8 0 0 0-.22 0 2 2 0 0 0-.32 0 2 2 0 0 0-.36.08v-.47l.37-.07q.2-.015.4 0c.27-.015.537.058.76.21.195.157.3.4.28.65q0 .184-.05.36a1.1 1.1 0 0 1-.17.35 3 3 0 0 1-.35.39 6 6 0 0 1-.56.48l-.19.15h1.41v.46h-2.09zM21.033 122.365a1.5 1.5 0 0 1-.44-.06.76.76 0 0 1-.34-.25 1.1 1.1 0 0 1-.22-.48 3.8 3.8 0 0 1 0-1.55 1.2 1.2 0 0 1 .22-.48.76.76 0 0 1 .34-.25 1.5 1.5 0 0 1 .44-.06 1.5 1.5 0 0 1 .45.06.76.76 0 0 1 .34.25c.104.144.18.307.22.48q.08.38.07.77a3.4 3.4 0 0 1-.07.78 1.2 1.2 0 0 1-.22.48.76.76 0 0 1-.34.25 1.5 1.5 0 0 1-.45.06m0-.47a.54.54 0 0 0 .24 0 .4.4 0 0 0 .17-.17 1.1 1.1 0 0 0 .09-.33 4 4 0 0 0 0-.55 4 4 0 0 0 0-.54 1.1 1.1 0 0 0-.09-.33.4.4 0 0 0-.17-.17.54.54 0 0 0-.24 0 .6.6 0 0 0-.24 0 .4.4 0 0 0-.16.17 1.1 1.1 0 0 0-.09.33 4 4 0 0 0 0 .54 4 4 0 0 0 0 .55 1.1 1.1 0 0 0 .09.33.4.4 0 0 0 .16.17.6.6 0 0 0 .24 0m2.58.47a1.5 1.5 0 0 1-.45-.06.8.8 0 0 1-.34-.25 1.1 1.1 0 0 1-.22-.48 3.8 3.8 0 0 1 0-1.55 1.2 1.2 0 0 1 .22-.48.8.8 0 0 1 .34-.25 1.5 1.5 0 0 1 .45-.06 1.5 1.5 0 0 1 .44.06.76.76 0 0 1 .34.25c.108.142.184.306.22.48a3.8 3.8 0 0 1 0 1.55 1.1 1.1 0 0 1-.22.48.76.76 0 0 1-.34.25 1.5 1.5 0 0 1-.44.06m0-.47a.5.5 0 0 0 .23 0 .4.4 0 0 0 .17-.17 1.1 1.1 0 0 0 .09-.33 4 4 0 0 0 0-.55 4 4 0 0 0 0-.54 1.1 1.1 0 0 0-.09-.33.4.4 0 0 0-.17-.17.5.5 0 0 0-.23 0 .54.54 0 0 0-.24 0 .4.4 0 0 0-.17.17 1.1 1.1 0 0 0-.09.33 4 4 0 0 0 0 .54 4 4 0 0 0 0 .55 1.1 1.1 0 0 0 .09.33.4.4 0 0 0 .17.17.54.54 0 0 0 .24 0M18.143 109.585h-.7v-.47h.95a.6.6 0 0 0 .22-.08.36.36 0 0 0 .16-.14.5.5 0 0 0 .05-.23.37.37 0 0 0-.21-.37 1.3 1.3 0 0 0-.58-.1h-.24v-.43h.24c.185.01.37-.024.54-.1a.37.37 0 0 0 .19-.35.35.35 0 0 0-.15-.32.9.9 0 0 0-.44-.08q-.15-.015-.3 0l-.3.06v-.45l.3-.06q.185-.015.37 0a2 2 0 0 1 .44 0 .8.8 0 0 1 .34.14.64.64 0 0 1 .21.25.9.9 0 0 1 .08.38.65.65 0 0 1-.13.43.77.77 0 0 1-.38.25.67.67 0 0 1 .44.25.72.72 0 0 1 .15.47c.03.65-.39.95-1.25.95M21.033 109.585a1.2 1.2 0 0 1-.44-.07.67.67 0 0 1-.34-.24 1.2 1.2 0 0 1-.22-.48 3.3 3.3 0 0 1-.08-.78 3.3 3.3 0 0 1 .08-.77c.034-.175.11-.34.22-.48a.76.76 0 0 1 .34-.25q.213-.076.44-.07c.153-.004.306.02.45.07a.76.76 0 0 1 .34.25c.106.143.181.306.22.48q.094.375.1.76a3.4 3.4 0 0 1-.07.78 1.3 1.3 0 0 1-.22.48.67.67 0 0 1-.34.24 1.3 1.3 0 0 1-.48.08m0-.47a.54.54 0 0 0 .24 0 .4.4 0 0 0 .17-.17 1.1 1.1 0 0 0 .09-.33 4 4 0 0 0 0-.55 4 4 0 0 0 0-.54 1.1 1.1 0 0 0-.09-.33.35.35 0 0 0-.17-.17.43.43 0 0 0-.24 0 .5.5 0 0 0-.24 0 .33.33 0 0 0-.16.17 1.1 1.1 0 0 0-.09.33 4 4 0 0 0 0 .54 4 4 0 0 0 0 .55 1.1 1.1 0 0 0 .09.33.4.4 0 0 0 .16.17.6.6 0 0 0 .24 0m2.58.47a1.3 1.3 0 0 1-.45-.07.7.7 0 0 1-.34-.24 1.2 1.2 0 0 1-.22-.48 3.3 3.3 0 0 1-.08-.78 3.3 3.3 0 0 1 .08-.77c.034-.175.11-.34.22-.48a.8.8 0 0 1 .34-.25 1.3 1.3 0 0 1 .45-.07q.227-.006.44.07a.76.76 0 0 1 .34.25c.11.14.186.305.22.48q.086.38.08.77a3.3 3.3 0 0 1-.08.78 1.2 1.2 0 0 1-.22.48.67.67 0 0 1-.34.24 1.2 1.2 0 0 1-.44.07m0-.47a.5.5 0 0 0 .23 0 .4.4 0 0 0 .17-.17 1.1 1.1 0 0 0 .09-.33 4 4 0 0 0 0-.55 4 4 0 0 0 0-.54 1.1 1.1 0 0 0-.09-.33.35.35 0 0 0-.17-.17.4.4 0 0 0-.23 0 .43.43 0 0 0-.24 0 .35.35 0 0 0-.17.17 1.1 1.1 0 0 0-.09.33 4 4 0 0 0 0 .54 4 4 0 0 0 0 .55 1.1 1.1 0 0 0 .09.33.4.4 0 0 0 .17.17.54.54 0 0 0 .24 0m-4.05-13.04h-.34v.69h-.53v-.69h-1.39v-.56l1.27-1.81h.65v1.9h.34zm-.87-.47v-1.32l-.89 1.29zm2.34 1.2a1.2 1.2 0 0 1-.44-.07.73.73 0 0 1-.34-.24 1.2 1.2 0 0 1-.22-.48 3.4 3.4 0 0 1-.08-.78 3.3 3.3 0 0 1 .08-.77 1.2 1.2 0 0 1 .22-.49.73.73 0 0 1 .34-.24q.213-.075.44-.07c.153-.004.306.02.45.07a.73.73 0 0 1 .34.24c.106.146.181.313.22.49q.08.38.07.77a3.5 3.5 0 0 1-.07.78 1.3 1.3 0 0 1-.22.48.73.73 0 0 1-.34.24 1.3 1.3 0 0 1-.45.07m0-.48a.55.55 0 0 0 .24 0c.07-.04.13-.1.17-.17a1.2 1.2 0 0 0 .09-.34 5 5 0 0 0 0-1.08 1.3 1.3 0 0 0-.09-.34.46.46 0 0 0-.17-.17.6.6 0 0 0-.48 0 .44.44 0 0 0-.16.17 1.3 1.3 0 0 0-.09.34 5 5 0 0 0 0 1.08q.02.177.09.34a.44.44 0 0 0 .16.17.6.6 0 0 0 .24 0m2.58.48a1.3 1.3 0 0 1-.45-.07.8.8 0 0 1-.34-.24 1.2 1.2 0 0 1-.22-.48 3.4 3.4 0 0 1-.08-.78 3.3 3.3 0 0 1 .08-.77 1.2 1.2 0 0 1 .22-.49.8.8 0 0 1 .34-.24 1.3 1.3 0 0 1 .45-.07q.227-.005.44.07a.73.73 0 0 1 .34.24c.11.144.186.312.22.49q.086.38.08.77a3.4 3.4 0 0 1-.08.78 1.2 1.2 0 0 1-.22.48.73.73 0 0 1-.34.24 1.2 1.2 0 0 1-.44.07m0-.48a.5.5 0 0 0 .23 0c.07-.04.13-.1.17-.17a1.2 1.2 0 0 0 .09-.34 5 5 0 0 0 0-1.08 1.3 1.3 0 0 0-.09-.34.46.46 0 0 0-.17-.17.5.5 0 0 0-.23-.05.54.54 0 0 0-.24.05.46.46 0 0 0-.17.17 1.3 1.3 0 0 0-.09.34 5 5 0 0 0 0 1.08q.02.177.09.34c.04.07.1.13.17.17a.55.55 0 0 0 .24 0M18.203 84.005h-.66v-.48l.3.06h.6a1 1 0 0 0 .24-.09.5.5 0 0 0 .15-.17.5.5 0 0 0 .05-.26.45.45 0 0 0-.17-.41 1.05 1.05 0 0 0-.57-.12h-.62l.21-1.63h1.52v.47h-1.06l-.11.7h.34a1.2 1.2 0 0 1 .78.23 1.05 1.05 0 0 1-.06 1.47 1.6 1.6 0 0 1-.94.23M21.033 84.005a1.5 1.5 0 0 1-.44-.07.76.76 0 0 1-.34-.25 1.1 1.1 0 0 1-.22-.48 3.8 3.8 0 0 1 0-1.55 1.2 1.2 0 0 1 .22-.48.76.76 0 0 1 .34-.25 1.5 1.5 0 0 1 .44-.06 1.5 1.5 0 0 1 .45.06.76.76 0 0 1 .34.25c.104.144.18.307.22.48q.08.38.07.77a3.4 3.4 0 0 1-.07.78 1.2 1.2 0 0 1-.22.48.76.76 0 0 1-.34.25 1.5 1.5 0 0 1-.45.07m0-.48a.54.54 0 0 0 .24-.05.4.4 0 0 0 .17-.17 1.1 1.1 0 0 0 .09-.33 4 4 0 0 0 0-.55 4 4 0 0 0 0-.54 1.1 1.1 0 0 0-.09-.33.4.4 0 0 0-.17-.17.6.6 0 0 0-.48 0 .4.4 0 0 0-.16.17 1.1 1.1 0 0 0-.09.33 4 4 0 0 0 0 .54 4 4 0 0 0 0 .55 1.1 1.1 0 0 0 .09.33.4.4 0 0 0 .16.17.6.6 0 0 0 .24.07zm2.58.48a1.5 1.5 0 0 1-.47 0 .8.8 0 0 1-.34-.25 1.1 1.1 0 0 1-.22-.48 3.8 3.8 0 0 1 0-1.55 1.2 1.2 0 0 1 .22-.48.8.8 0 0 1 .34-.25 1.5 1.5 0 0 1 .45-.06 1.5 1.5 0 0 1 .44.06.76.76 0 0 1 .34.25c.108.142.184.306.22.48a3.8 3.8 0 0 1 0 1.55 1.1 1.1 0 0 1-.22.48.76.76 0 0 1-.34.25 1.5 1.5 0 0 1-.42 0m0-.48a.5.5 0 0 0 .23-.05.4.4 0 0 0 .17-.17 1.1 1.1 0 0 0 .13-.3 4 4 0 0 0 0-.55 4 4 0 0 0 0-.54 1.1 1.1 0 0 0-.09-.33.4.4 0 0 0-.17-.17.5.5 0 0 0-.23-.05.54.54 0 0 0-.24.05.4.4 0 0 0-.17.17 1.1 1.1 0 0 0-.09.33 4 4 0 0 0 0 .54 4 4 0 0 0-.01.55 1.1 1.1 0 0 0 .09.33.4.4 0 0 0 .17.17.5.5 0 0 0 .21.04zm-5.15-12.29a1.4 1.4 0 0 1-.41-.06.73.73 0 0 1-.34-.2.9.9 0 0 1-.23-.37 1.7 1.7 0 0 1-.08-.59 3.2 3.2 0 0 1 .09-.79c.06-.223.166-.43.31-.61a1.4 1.4 0 0 1 .54-.38 2 2 0 0 1 .78-.14v.48a1.3 1.3 0 0 0-.82.23.9.9 0 0 0-.33.62.93.93 0 0 1 .61-.21.94.94 0 0 1 .69.25 1 1 0 0 1 .24.73 1.3 1.3 0 0 1-.06.42.9.9 0 0 1-.19.33 1.1 1.1 0 0 1-.33.22 1.4 1.4 0 0 1-.47.07m0-.44a.53.53 0 0 0 .41-.15.6.6 0 0 0 .15-.45.57.57 0 0 0-.14-.42.48.48 0 0 0-.37-.14.62.62 0 0 0-.45.14.6.6 0 0 0-.13.38.74.74 0 0 0 .14.48.5.5 0 0 0 .38.16zm2.57.44a1.2 1.2 0 0 1-.44-.07.67.67 0 0 1-.34-.24 1.2 1.2 0 0 1-.22-.48 3.3 3.3 0 0 1-.08-.78 3.3 3.3 0 0 1 .08-.77 1.2 1.2 0 0 1 .22-.48.76.76 0 0 1 .34-.25 1.5 1.5 0 0 1 .44-.07q.23 0 .45.07a.76.76 0 0 1 .34.25c.104.144.18.307.22.48q.08.38.07.77a3.4 3.4 0 0 1-.07.78 1.3 1.3 0 0 1-.22.48.67.67 0 0 1-.34.24 1.3 1.3 0 0 1-.45.07m0-.47a.54.54 0 0 0 .24-.05.4.4 0 0 0 .17-.17 1.1 1.1 0 0 0 .09-.33 4 4 0 0 0 0-.55 4 4 0 0 0 0-.54 1.1 1.1 0 0 0-.09-.33.43.43 0 0 0-.41-.22.47.47 0 0 0-.24.05.4.4 0 0 0-.16.17 1.1 1.1 0 0 0-.09.33 4 4 0 0 0 0 .54 4 4 0 0 0 0 .55 1.1 1.1 0 0 0 .09.33.4.4 0 0 0 .16.17.6.6 0 0 0 .24.05m2.58.47a1.3 1.3 0 0 1-.45-.07.7.7 0 0 1-.34-.24 1.2 1.2 0 0 1-.22-.48 3.3 3.3 0 0 1-.08-.78 3.3 3.3 0 0 1 .08-.77 1.2 1.2 0 0 1 .22-.48.8.8 0 0 1 .34-.25 1.5 1.5 0 0 1 .45-.07 1.5 1.5 0 0 1 .44.07.76.76 0 0 1 .34.25c.108.142.184.306.22.48q.086.38.08.77a3.3 3.3 0 0 1-.08.78 1.2 1.2 0 0 1-.22.48.67.67 0 0 1-.34.24 1.2 1.2 0 0 1-.44.07m0-.47a.5.5 0 0 0 .23-.05.4.4 0 0 0 .17-.17 1.1 1.1 0 0 0 .09-.33 4 4 0 0 0 0-.55 4 4 0 0 0 0-.54 1.1 1.1 0 0 0-.09-.33.4.4 0 0 0-.17-.17.4.4 0 0 0-.23-.05.43.43 0 0 0-.41.22 1.1 1.1 0 0 0-.09.33 4 4 0 0 0 0 .54 4 4 0 0 0 0 .55 1.1 1.1 0 0 0 .09.33.4.4 0 0 0 .17.17.54.54 0 0 0 .24.05M18.943 55.675h-1.53v-.48h2v.54l-1.14 2.52h-.58zM21.033 58.295a1.2 1.2 0 0 1-.44-.07.67.67 0 0 1-.34-.24 1.2 1.2 0 0 1-.22-.48 3.4 3.4 0 0 1-.08-.78 3.3 3.3 0 0 1 .08-.77 1.2 1.2 0 0 1 .22-.49.73.73 0 0 1 .34-.24q.213-.075.44-.07c.153-.004.306.02.45.07a.73.73 0 0 1 .34.24c.106.146.181.313.22.49q.08.38.07.77a3.5 3.5 0 0 1-.07.78 1.3 1.3 0 0 1-.22.48.67.67 0 0 1-.34.24 1.3 1.3 0 0 1-.45.07m0-.47a.54.54 0 0 0 .24 0c.07-.04.13-.1.17-.17a1.1 1.1 0 0 0 .09-.34 5 5 0 0 0 0-1.08 1.1 1.1 0 0 0-.09-.33.43.43 0 0 0-.17-.18.55.55 0 0 0-.24 0 .6.6 0 0 0-.24 0 .4.4 0 0 0-.16.18 1.1 1.1 0 0 0-.09.33 5 5 0 0 0 0 1.08q.017.177.09.34a.44.44 0 0 0 .16.17.6.6 0 0 0 .24 0m2.58.47a1.3 1.3 0 0 1-.45-.07.7.7 0 0 1-.34-.24 1.2 1.2 0 0 1-.22-.48 3.4 3.4 0 0 1-.08-.78 3.3 3.3 0 0 1 .08-.77 1.2 1.2 0 0 1 .22-.49.8.8 0 0 1 .34-.24 1.3 1.3 0 0 1 .45-.07q.227-.005.44.07a.73.73 0 0 1 .34.24c.11.144.186.312.22.49q.086.38.08.77a3.4 3.4 0 0 1-.08.78 1.2 1.2 0 0 1-.22.48.67.67 0 0 1-.34.24 1.2 1.2 0 0 1-.44.07m0-.47a.5.5 0 0 0 .23 0c.07-.04.13-.1.17-.17a1.1 1.1 0 0 0 .09-.34 5 5 0 0 0 0-1.08 1.1 1.1 0 0 0-.09-.33.43.43 0 0 0-.17-.18.5.5 0 0 0-.23 0 .55.55 0 0 0-.24 0 .43.43 0 0 0-.17.18 1.1 1.1 0 0 0-.09.33 5 5 0 0 0 0 1.08q.017.177.09.34c.04.07.1.13.17.17a.54.54 0 0 0 .24 0m-5.15-12.31a1.3 1.3 0 0 1-.8-.21.72.72 0 0 1-.29-.64.75.75 0 0 1 .05-.31 1 1 0 0 1 .11-.22.6.6 0 0 1 .17-.14l.18-.1a1 1 0 0 1-.16-.11.44.44 0 0 1-.13-.14.6.6 0 0 1-.09-.19 1 1 0 0 1 0-.26.78.78 0 0 1 .24-.6 1.39 1.39 0 0 1 1.5 0 .78.78 0 0 1 .24.6.75.75 0 0 1-.11.45.7.7 0 0 1-.33.25 1 1 0 0 1 .21.1.46.46 0 0 1 .17.14.8.8 0 0 1 .12.22 1 1 0 0 1 0 .31.72.72 0 0 1-.29.64 1.3 1.3 0 0 1-.79.21m0-.44a.66.66 0 0 0 .44-.12.43.43 0 0 0 .14-.34.46.46 0 0 0-.15-.38.78.78 0 0 0-.86 0 .46.46 0 0 0-.15.38.43.43 0 0 0 .14.34.66.66 0 0 0 .44.12m0-1.38a.5.5 0 0 0 .39-.14.48.48 0 0 0 .11-.32.41.41 0 0 0-.12-.32.54.54 0 0 0-.38-.12c-.33 0-.5.15-.5.44a.48.48 0 0 0 .11.32.47.47 0 0 0 .39.14m2.57 1.82a1.5 1.5 0 0 1-.44-.07.76.76 0 0 1-.34-.25 1.1 1.1 0 0 1-.22-.48 3.3 3.3 0 0 1-.08-.77 3.3 3.3 0 0 1 .08-.78 1.2 1.2 0 0 1 .22-.48.67.67 0 0 1 .34-.24q.213-.075.44-.07c.153-.004.306.02.45.07a.67.67 0 0 1 .34.24c.104.144.18.307.22.48a3.4 3.4 0 0 1 .07.78 3.3 3.3 0 0 1-.07.77 1.2 1.2 0 0 1-.22.48.76.76 0 0 1-.34.25 1.5 1.5 0 0 1-.45.07m0-.48a.43.43 0 0 0 .24-.05.35.35 0 0 0 .17-.17 1.1 1.1 0 0 0 .09-.33 5 5 0 0 0 0-1.08 1.2 1.2 0 0 0-.09-.34.4.4 0 0 0-.17-.17.54.54 0 0 0-.24 0 .6.6 0 0 0-.24 0 .4.4 0 0 0-.16.17 1.2 1.2 0 0 0-.09.34 5 5 0 0 0 0 1.08 1.1 1.1 0 0 0 .09.33.33.33 0 0 0 .16.17.5.5 0 0 0 .24.02zm2.58.48a1.5 1.5 0 0 1-.45-.07.8.8 0 0 1-.34-.25 1.1 1.1 0 0 1-.22-.48 3.3 3.3 0 0 1-.08-.77 3.3 3.3 0 0 1 .08-.78 1.2 1.2 0 0 1 .22-.48.7.7 0 0 1 .34-.24 1.3 1.3 0 0 1 .45-.07q.227-.005.44.07a.67.67 0 0 1 .34.24c.108.142.184.306.22.48q.086.385.08.78a3.3 3.3 0 0 1-.08.77 1.1 1.1 0 0 1-.22.48.76.76 0 0 1-.34.25 1.5 1.5 0 0 1-.44.07m0-.48a.4.4 0 0 0 .23-.03.35.35 0 0 0 .17-.17 1.1 1.1 0 0 0 .09-.33 5 5 0 0 0 0-1.08 1.2 1.2 0 0 0-.09-.34.4.4 0 0 0-.17-.17.5.5 0 0 0-.23 0 .54.54 0 0 0-.24 0 .4.4 0 0 0-.17.17 1.2 1.2 0 0 0-.09.34 5 5 0 0 0 0 1.08 1.1 1.1 0 0 0 .09.33.35.35 0 0 0 .17.17.43.43 0 0 0 .24 0zm-5.81-12.78a1.4 1.4 0 0 0 .82-.21.84.84 0 0 0 .34-.62.9.9 0 0 1-.59.2 1 1 0 0 1-.71-.24 1 1 0 0 1-.25-.73 1.2 1.2 0 0 1 .07-.42.75.75 0 0 1 .19-.34.8.8 0 0 1 .33-.23c.15-.056.31-.083.47-.08a1.2 1.2 0 0 1 .42.07.9.9 0 0 1 .34.2 1 1 0 0 1 .22.39c.065.193.096.396.09.6a3.3 3.3 0 0 1-.09.8 1.44 1.44 0 0 1-.3.59 1.3 1.3 0 0 1-.53.37 2.1 2.1 0 0 1-.8.13zm.62-1a.54.54 0 0 0 .44-.14.55.55 0 0 0 .13-.38.74.74 0 0 0-.13-.48.48.48 0 0 0-.4-.18.52.52 0 0 0-.42.16.72.72 0 0 0-.14.46.57.57 0 0 0 .14.42.5.5 0 0 0 .38.1zm2.61 1.47a1.2 1.2 0 0 1-.44-.07.67.67 0 0 1-.34-.24 1.2 1.2 0 0 1-.22-.48 3.8 3.8 0 0 1 0-1.55 1.2 1.2 0 0 1 .22-.48.76.76 0 0 1 .34-.25 1.5 1.5 0 0 1 .44-.07q.23 0 .45.07a.76.76 0 0 1 .34.25c.104.144.18.307.22.48q.08.38.07.77a3.4 3.4 0 0 1-.07.78 1.3 1.3 0 0 1-.22.48.67.67 0 0 1-.34.24 1.3 1.3 0 0 1-.45.07m0-.47a.54.54 0 0 0 .24 0 .4.4 0 0 0 .17-.25 1.1 1.1 0 0 0 .09-.33 4 4 0 0 0 0-.55 4 4 0 0 0 0-.54 1.1 1.1 0 0 0-.09-.33.43.43 0 0 0-.41-.22.47.47 0 0 0-.24.05.4.4 0 0 0-.16.17 1.1 1.1 0 0 0-.09.33 4 4 0 0 0 0 .54 4 4 0 0 0 0 .55 1.1 1.1 0 0 0 .09.33.4.4 0 0 0 .16.17.6.6 0 0 0 .24.08m2.58.47a1.3 1.3 0 0 1-.45-.07.7.7 0 0 1-.34-.24 1.2 1.2 0 0 1-.22-.48 3.8 3.8 0 0 1 0-1.55 1.2 1.2 0 0 1 .22-.48.8.8 0 0 1 .34-.25 1.5 1.5 0 0 1 .45-.07 1.5 1.5 0 0 1 .44.07.76.76 0 0 1 .34.25c.108.142.184.306.22.48a3.8 3.8 0 0 1 0 1.55 1.2 1.2 0 0 1-.22.48.67.67 0 0 1-.34.24 1.2 1.2 0 0 1-.44.07m0-.47a.5.5 0 0 0 .23 0 .4.4 0 0 0 .17-.17 1.1 1.1 0 0 0 .13-.38 4 4 0 0 0 0-.55 4 4 0 0 0 0-.54 1.1 1.1 0 0 0-.09-.33.4.4 0 0 0-.17-.17.4.4 0 0 0-.23-.05.43.43 0 0 0-.41.22 1.1 1.1 0 0 0-.09.33 4 4 0 0 0 0 .54 4 4 0 0 0 0 .55 1.1 1.1 0 0 0 .09.33.4.4 0 0 0 .17.17.5.5 0 0 0 .2.05M18.353 17.155l-.75.15v-.47l.91-.18h.41v3.05h-.57zM21.033 19.745a1.5 1.5 0 0 1-.44-.06.76.76 0 0 1-.34-.25 1.1 1.1 0 0 1-.22-.48 3.8 3.8 0 0 1 0-1.55 1.2 1.2 0 0 1 .22-.48.76.76 0 0 1 .34-.25 1.5 1.5 0 0 1 .44-.07q.23 0 .45.07a.76.76 0 0 1 .34.25c.104.144.18.307.22.48q.08.38.07.77a3.4 3.4 0 0 1-.07.78 1.3 1.3 0 0 1-.22.48.76.76 0 0 1-.34.25 1.5 1.5 0 0 1-.45.06m0-.47a.54.54 0 0 0 .24-.05.4.4 0 0 0 .17-.17 1.1 1.1 0 0 0 .09-.33 4 4 0 0 0 0-.55 4 4 0 0 0 0-.54 1.1 1.1 0 0 0-.09-.33.4.4 0 0 0-.17-.17.6.6 0 0 0-.48 0 .4.4 0 0 0-.16.17 1.1 1.1 0 0 0-.09.33 4 4 0 0 0 0 .54 4 4 0 0 0 0 .55 1.1 1.1 0 0 0 .09.33.4.4 0 0 0 .16.17.6.6 0 0 0 .24.05m2.58.47a1.5 1.5 0 0 1-.45-.06.8.8 0 0 1-.34-.25 1.1 1.1 0 0 1-.22-.48 3.8 3.8 0 0 1 0-1.55 1.2 1.2 0 0 1 .22-.48.8.8 0 0 1 .34-.25 1.5 1.5 0 0 1 .45-.07 1.5 1.5 0 0 1 .44.07.76.76 0 0 1 .34.25c.108.142.184.306.22.48a3.8 3.8 0 0 1 0 1.55 1.1 1.1 0 0 1-.22.48.76.76 0 0 1-.34.25 1.5 1.5 0 0 1-.44.06m0-.47a.5.5 0 0 0 .23-.05.4.4 0 0 0 .17-.17 1.1 1.1 0 0 0 .09-.33 4 4 0 0 0 0-.55 4 4 0 0 0 0-.54 1.1 1.1 0 0 0-.09-.33.4.4 0 0 0-.17-.17.5.5 0 0 0-.23-.05.54.54 0 0 0-.24.05.4.4 0 0 0-.17.17 1.1 1.1 0 0 0-.09.33 4 4 0 0 0 0 .54 4 4 0 0 0 0 .55 1.1 1.1 0 0 0 .09.33.4.4 0 0 0 .17.17.54.54 0 0 0 .24.05m2.53.47a1.6 1.6 0 0 1-.45-.06.8.8 0 0 1-.34-.25 1.3 1.3 0 0 1-.21-.43 3.4 3.4 0 0 1-.07-.78 3.3 3.3 0 0 1 .07-.82 1.3 1.3 0 0 1 .22-.48.8.8 0 0 1 .34-.25 1.6 1.6 0 0 1 .44-.07 1.5 1.5 0 0 1 .44.07.7.7 0 0 1 .34.25c.108.142.184.306.22.48a3.8 3.8 0 0 1 0 1.6 1.1 1.1 0 0 1-.22.48.7.7 0 0 1-.34.25 1.5 1.5 0 0 1-.44.01m0-.47a.6.6 0 0 0 .24-.05.4.4 0 0 0 .16-.17 1.1 1.1 0 0 0 .09-.33 4 4 0 0 0 0-.55 4 4 0 0 0 0-.54 1.1 1.1 0 0 0-.09-.33.4.4 0 0 0-.16-.17.6.6 0 0 0-.48 0 .33.33 0 0 0-.16.17 1.1 1.1 0 0 0-.09.33 2.7 2.7 0 0 0 0 .54 3 3 0 0 0 0 .55 1.1 1.1 0 0 0 .09.33.33.33 0 0 0 .16.17.54.54 0 0 0 .24.05"/></g></g></svg>