<svg xmlns="http://www.w3.org/2000/svg" viewBox="0 0 85 151"><title>Microscope(显微镜)</title><defs><linearGradient id="a" x1="6.461%" x2="93.071%" y1="45.477%" y2="53.119%"><stop offset="0%" stop-color="#a9b1bb"/><stop offset="6%" stop-color="#5d6166"/><stop offset="78%" stop-color="#e2eaf2"/><stop offset="93%" stop-color="#9ba1ab"/><stop offset="100%" stop-color="#767b82"/></linearGradient><linearGradient id="b" x1="54.007%" x2="50.016%" y1="53.899%" y2="48.99%"><stop offset="0%" stop-color="#878d93" stop-opacity="0"/><stop offset="100%" stop-color="#2e3033"/></linearGradient><linearGradient id="c" x1="24.971%" x2="75.029%" y1="39.454%" y2="53.122%"><stop offset="0%" stop-color="#a9b1bb"/><stop offset="6%" stop-color="#5d6166"/><stop offset="82%" stop-color="#e2eaf2"/><stop offset="93%" stop-color="#9ba1ab"/><stop offset="100%" stop-color="#767b82"/></linearGradient><linearGradient id="d" x1=".203%" x2="100.203%" y1="50.073%" y2="50.073%"><stop offset="0%" stop-color="#a9b1bb"/><stop offset="6%" stop-color="#5d6166"/><stop offset="78%" stop-color="#e2eaf2"/><stop offset="93%" stop-color="#9ba1ab"/><stop offset="100%" stop-color="#767b82"/></linearGradient><linearGradient id="e" x1="-.175%" x2="99.651%" y1="50.021%" y2="50.021%"><stop offset="0%" stop-color="#a9b1bb"/><stop offset="6%" stop-color="#5d6166"/><stop offset="78%" stop-color="#e2eaf2"/><stop offset="93%" stop-color="#9ba1ab"/><stop offset="100%" stop-color="#767b82"/></linearGradient><linearGradient id="f" x1="-.206%" x2="99.794%" y1="50%" y2="50%"><stop offset="0%" stop-color="#a9b1bb"/><stop offset="6%" stop-color="#5d6166"/><stop offset="78%" stop-color="#e2eaf2"/><stop offset="93%" stop-color="#9ba1ab"/><stop offset="100%" stop-color="#767b82"/></linearGradient><linearGradient id="g" x1="6.667%" x2="106.667%" y1="50.169%" y2="50.169%"><stop offset="0%" stop-color="#a9b1bb"/><stop offset="6%" stop-color="#5d6166"/><stop offset="78%" stop-color="#e2eaf2"/><stop offset="93%" stop-color="#9ba1ab"/><stop offset="100%" stop-color="#767b82"/></linearGradient><linearGradient id="h" x1="0%" x2="106.667%" y1="50.169%" y2="50.169%"><stop offset="0%" stop-color="#a9b1bb"/><stop offset="6%" stop-color="#5d6166"/><stop offset="78%" stop-color="#e2eaf2"/><stop offset="93%" stop-color="#9ba1ab"/><stop offset="100%" stop-color="#767b82"/></linearGradient><linearGradient id="i" x1="0%" x2="100%" y1="50.169%" y2="50.169%"><stop offset="0%" stop-color="#a9b1bb"/><stop offset="6%" stop-color="#5d6166"/><stop offset="78%" stop-color="#e2eaf2"/><stop offset="93%" stop-color="#9ba1ab"/><stop offset="100%" stop-color="#767b82"/></linearGradient><linearGradient id="j" x1="58.764%" x2="37.401%" y1="26.598%" y2="75.997%"><stop offset="0%" stop-color="#a9b1bb"/><stop offset="6%" stop-color="#5d6166"/><stop offset="82%" stop-color="#e2eaf2"/><stop offset="93%" stop-color="#9ba1ab"/><stop offset="100%" stop-color="#767b82"/></linearGradient><linearGradient id="k" x1="66.534%" x2="33.544%" y1="44.497%" y2="67.109%"><stop offset="0%" stop-color="#a9b1bb"/><stop offset="6%" stop-color="#5d6166"/><stop offset="78%" stop-color="#e2eaf2"/><stop offset="93%" stop-color="#9ba1ab"/><stop offset="100%" stop-color="#767b82"/></linearGradient><linearGradient id="l" x1="68.717%" x2="31.369%" y1="43.204%" y2="68.03%"><stop offset="0%" stop-color="#a9b1bb"/><stop offset="6%" stop-color="#5d6166"/><stop offset="78%" stop-color="#e2eaf2"/><stop offset="93%" stop-color="#9ba1ab"/><stop offset="100%" stop-color="#767b82"/></linearGradient><linearGradient id="m" x1="94.68%" x2="4.144%" y1="35.816%" y2="71.821%"><stop offset="0%" stop-color="#a9b1bb"/><stop offset="6%" stop-color="#5d6166"/><stop offset="78%" stop-color="#e2eaf2"/><stop offset="93%" stop-color="#9ba1ab"/><stop offset="100%" stop-color="#767b82"/></linearGradient><linearGradient id="n" x1="-6.667%" x2="100%" y1="50.169%" y2="50.169%"><stop offset="0%" stop-color="#a9b1bb"/><stop offset="6%" stop-color="#5d6166"/><stop offset="78%" stop-color="#e2eaf2"/><stop offset="93%" stop-color="#9ba1ab"/><stop offset="100%" stop-color="#767b82"/></linearGradient><linearGradient id="o" x1="0%" x2="100%" y1="49.831%" y2="49.831%"><stop offset="0%" stop-color="#a9b1bb"/><stop offset="6%" stop-color="#5d6166"/><stop offset="78%" stop-color="#e2eaf2"/><stop offset="93%" stop-color="#9ba1ab"/><stop offset="100%" stop-color="#767b82"/></linearGradient><linearGradient id="p" x1="0%" x2="100%" y1="49.831%" y2="49.831%"><stop offset="0%" stop-color="#a9b1bb"/><stop offset="6%" stop-color="#5d6166"/><stop offset="78%" stop-color="#e2eaf2"/><stop offset="93%" stop-color="#9ba1ab"/><stop offset="100%" stop-color="#767b82"/></linearGradient><linearGradient id="q" x1="0%" x2="106.667%" y1="49.831%" y2="49.831%"><stop offset="0%" stop-color="#a9b1bb"/><stop offset="6%" stop-color="#5d6166"/><stop offset="78%" stop-color="#e2eaf2"/><stop offset="93%" stop-color="#9ba1ab"/><stop offset="100%" stop-color="#767b82"/></linearGradient><linearGradient id="r" x1="0%" x2="106.667%" y1="49.831%" y2="49.831%"><stop offset="0%" stop-color="#a9b1bb"/><stop offset="6%" stop-color="#5d6166"/><stop offset="78%" stop-color="#e2eaf2"/><stop offset="93%" stop-color="#9ba1ab"/><stop offset="100%" stop-color="#767b82"/></linearGradient><linearGradient id="s" x1="6.667%" x2="106.667%" y1="49.831%" y2="49.831%"><stop offset="0%" stop-color="#a9b1bb"/><stop offset="6%" stop-color="#5d6166"/><stop offset="78%" stop-color="#e2eaf2"/><stop offset="93%" stop-color="#9ba1ab"/><stop offset="100%" stop-color="#767b82"/></linearGradient><linearGradient id="t" x1="-6.667%" x2="100%" y1="49.831%" y2="49.831%"><stop offset="0%" stop-color="#a9b1bb"/><stop offset="6%" stop-color="#5d6166"/><stop offset="78%" stop-color="#e2eaf2"/><stop offset="93%" stop-color="#9ba1ab"/><stop offset="100%" stop-color="#767b82"/></linearGradient><linearGradient id="u" x1="-6.667%" x2="93.333%" y1="49.831%" y2="49.831%"><stop offset="0%" stop-color="#a9b1bb"/><stop offset="6%" stop-color="#5d6166"/><stop offset="78%" stop-color="#e2eaf2"/><stop offset="93%" stop-color="#9ba1ab"/><stop offset="100%" stop-color="#767b82"/></linearGradient><linearGradient id="v" x1="18.336%" x2="81.728%" y1="40.402%" y2="54.735%"><stop offset="0%" stop-color="#a9b1bb"/><stop offset="6%" stop-color="#5d6166"/><stop offset="82%" stop-color="#e2eaf2"/><stop offset="93%" stop-color="#9ba1ab"/><stop offset="100%" stop-color="#767b82"/></linearGradient><linearGradient id="w" x1="4.063%" x2="67.396%" y1="72.692%" y2="72.692%"><stop offset="0%" stop-color="#a9b1bb"/><stop offset="6%" stop-color="#5d6166"/><stop offset="78%" stop-color="#e2eaf2"/><stop offset="93%" stop-color="#9ba1ab"/><stop offset="100%" stop-color="#767b82"/></linearGradient><linearGradient id="x" x1="3.142%" x2="98.756%" y1="52.958%" y2="42.072%"><stop offset="0%" stop-color="#a9b1bb"/><stop offset="6%" stop-color="#5d6166"/><stop offset="78%" stop-color="#e2eaf2"/><stop offset="93%" stop-color="#9ba1ab"/><stop offset="100%" stop-color="#767b82"/></linearGradient><linearGradient id="y" x1="0%" x2="106.25%" y1="49.831%" y2="49.831%"><stop offset="0%" stop-color="#a9b1bb"/><stop offset="6%" stop-color="#5d6166"/><stop offset="78%" stop-color="#e2eaf2"/><stop offset="93%" stop-color="#9ba1ab"/><stop offset="100%" stop-color="#767b82"/></linearGradient><linearGradient id="z" x1="0%" x2="100%" y1="50.169%" y2="50.169%"><stop offset="0%" stop-color="#a9b1bb"/><stop offset="6%" stop-color="#5d6166"/><stop offset="78%" stop-color="#e2eaf2"/><stop offset="93%" stop-color="#9ba1ab"/><stop offset="100%" stop-color="#767b82"/></linearGradient><linearGradient id="A" x1="0%" x2="100%" y1="50.169%" y2="50.169%"><stop offset="0%" stop-color="#a9b1bb"/><stop offset="6%" stop-color="#5d6166"/><stop offset="78%" stop-color="#e2eaf2"/><stop offset="93%" stop-color="#9ba1ab"/><stop offset="100%" stop-color="#767b82"/></linearGradient><linearGradient id="B" x1="0%" x2="106.25%" y1="49.831%" y2="49.831%"><stop offset="0%" stop-color="#a9b1bb"/><stop offset="6%" stop-color="#5d6166"/><stop offset="78%" stop-color="#e2eaf2"/><stop offset="93%" stop-color="#9ba1ab"/><stop offset="100%" stop-color="#767b82"/></linearGradient><linearGradient id="C" x1="0%" x2="100%" y1="49.831%" y2="49.831%"><stop offset="0%" stop-color="#a9b1bb"/><stop offset="6%" stop-color="#5d6166"/><stop offset="78%" stop-color="#e2eaf2"/><stop offset="93%" stop-color="#9ba1ab"/><stop offset="100%" stop-color="#767b82"/></linearGradient><linearGradient id="D" x1="0%" x2="106.25%" y1="50.169%" y2="50.169%"><stop offset="0%" stop-color="#a9b1bb"/><stop offset="6%" stop-color="#5d6166"/><stop offset="78%" stop-color="#e2eaf2"/><stop offset="93%" stop-color="#9ba1ab"/><stop offset="100%" stop-color="#767b82"/></linearGradient><linearGradient id="E" x1="0%" x2="100%" y1="49.831%" y2="49.831%"><stop offset="0%" stop-color="#a9b1bb"/><stop offset="6%" stop-color="#5d6166"/><stop offset="78%" stop-color="#e2eaf2"/><stop offset="93%" stop-color="#9ba1ab"/><stop offset="100%" stop-color="#767b82"/></linearGradient><linearGradient id="F" x1="6.25%" x2="106.25%" y1="49.831%" y2="49.831%"><stop offset="0%" stop-color="#a9b1bb"/><stop offset="6%" stop-color="#5d6166"/><stop offset="78%" stop-color="#e2eaf2"/><stop offset="93%" stop-color="#9ba1ab"/><stop offset="100%" stop-color="#767b82"/></linearGradient><linearGradient id="G" x1="0%" x2="100%" y1="50%" y2="50%"><stop offset="0%" stop-color="#2e3033"/><stop offset="100%" stop-color="#4a4b4d"/></linearGradient><linearGradient id="H" x1="-87.139%" x2="13.648%" y1="326.812%" y2="326.812%"><stop offset="0%" stop-color="#a9b1bb"/><stop offset="6%" stop-color="#5d6166"/><stop offset="78%" stop-color="#e2eaf2"/><stop offset="93%" stop-color="#9ba1ab"/><stop offset="100%" stop-color="#767b82"/></linearGradient><linearGradient id="I" x1="0%" x2="100%" y1="50%" y2="50%"><stop offset="0%" stop-color="#2e3033"/><stop offset="100%" stop-color="#4a4b4d"/></linearGradient><linearGradient id="J" x1="6.058%" x2="106.999%" y1="81.465%" y2="81.465%"><stop offset="0%" stop-color="#a9b1bb"/><stop offset="6%" stop-color="#5d6166"/><stop offset="78%" stop-color="#e2eaf2"/><stop offset="93%" stop-color="#9ba1ab"/><stop offset="100%" stop-color="#767b82"/></linearGradient><linearGradient id="K" x1="1.565%" x2="99.067%" y1="55.017%" y2="45.735%"><stop offset="0%" stop-color="#7a8088"/><stop offset="9%" stop-color="#2d2f33"/><stop offset="19%" stop-color="#35373b"/><stop offset="33%" stop-color="#4a4d51"/><stop offset="51%" stop-color="#6d7176"/><stop offset="71%" stop-color="#9da3a8"/><stop offset="78%" stop-color="#b0b7bc"/><stop offset="93%" stop-color="#6d7177"/><stop offset="100%" stop-color="#5c6067"/></linearGradient><linearGradient id="L" x1=".031%" x2="100.031%" y1="50%" y2="50%"><stop offset="0%" stop-color="#2e3033"/><stop offset="100%" stop-color="#4a4b4d"/></linearGradient><linearGradient id="M" x1="50.66%" x2="49.341%" y1="50.675%" y2="49.325%"><stop offset="0%" stop-color="#4a4b4d"/><stop offset="100%" stop-color="#17181a"/></linearGradient><linearGradient id="N" x1="50.016%" x2="50.016%" y1="100.044%" y2="0%"><stop offset="0%" stop-color="#cfd9e6"/><stop offset="9%" stop-color="#a2aab3"/><stop offset="27%" stop-color="#aab2bb"/><stop offset="54%" stop-color="#c0c8d1"/><stop offset="75%" stop-color="#d6dee6"/><stop offset="93%" stop-color="#d0d8e6"/><stop offset="100%" stop-color="#b9c1cc"/></linearGradient><linearGradient id="O" x1="0%" x2="100%" y1="50%" y2="50%"><stop offset="0%" stop-color="#cfd9e6"/><stop offset="9%" stop-color="#a2aab3"/><stop offset="27%" stop-color="#aab2bb"/><stop offset="54%" stop-color="#c0c8d1"/><stop offset="75%" stop-color="#d6dee6"/><stop offset="93%" stop-color="#d0d8e6"/><stop offset="100%" stop-color="#b9c1cc"/></linearGradient><linearGradient id="P" x1="0%" x2="100%" y1="50.213%" y2="50.213%"><stop offset="0%" stop-color="#cfd9e6"/><stop offset="9%" stop-color="#a2aab3"/><stop offset="27%" stop-color="#aab2bb"/><stop offset="54%" stop-color="#c0c8d1"/><stop offset="75%" stop-color="#d6dee6"/><stop offset="93%" stop-color="#d0d8e6"/><stop offset="100%" stop-color="#b9c1cc"/></linearGradient><linearGradient id="Q" x1="0%" x2="100%" y1="50.213%" y2="50.213%"><stop offset="0%" stop-color="#2e3033"/><stop offset="100%" stop-color="#878d93" stop-opacity="0"/></linearGradient><linearGradient id="R" x1="9.728%" x2="84.74%" y1="44.184%" y2="53.352%"><stop offset="0%" stop-color="#cfd9e6"/><stop offset="9%" stop-color="#a2aab3"/><stop offset="27%" stop-color="#aab2bb"/><stop offset="54%" stop-color="#c0c8d1"/><stop offset="75%" stop-color="#d6dee6"/><stop offset="93%" stop-color="#d0d8e6"/><stop offset="100%" stop-color="#b9c1cc"/></linearGradient><linearGradient id="S" x1="49.976%" x2="49.976%" y1="100%" y2="0%"><stop offset="0%" stop-color="#2e3033"/><stop offset="100%" stop-color="#878d93" stop-opacity="0"/></linearGradient><linearGradient id="T" x1="79.974%" x2="20.048%" y1="44.054%" y2="55.95%"><stop offset="0%" stop-color="#4a4b4d"/><stop offset="100%" stop-color="#2e3033"/></linearGradient><linearGradient id="U" x1="0%" x2="99.947%" y1="49.837%" y2="49.837%"><stop offset="0%" stop-color="#64696e"/><stop offset="6%" stop-color="#17181a"/><stop offset="78%" stop-color="#535659"/><stop offset="93%" stop-color="#56595f"/><stop offset="100%" stop-color="#313335"/></linearGradient><linearGradient id="V" x1="0%" x2="100%" y1="50.163%" y2="50.163%"><stop offset="0%" stop-color="#64696e"/><stop offset="6%" stop-color="#17181a"/><stop offset="78%" stop-color="#535659"/><stop offset="93%" stop-color="#56595f"/><stop offset="100%" stop-color="#313335"/></linearGradient><linearGradient id="W" x1="0%" x2="99.706%" y1="50%" y2="50%"><stop offset="0%" stop-color="#64696e"/><stop offset="6%" stop-color="#17181a"/><stop offset="78%" stop-color="#535659"/><stop offset="93%" stop-color="#56595f"/><stop offset="100%" stop-color="#313335"/></linearGradient><linearGradient id="X" x1="0%" x2="100.074%" y1="50%" y2="50%"><stop offset="0%" stop-color="#64696e"/><stop offset="6%" stop-color="#17181a"/><stop offset="78%" stop-color="#535659"/><stop offset="93%" stop-color="#56595f"/><stop offset="100%" stop-color="#313335"/></linearGradient><linearGradient id="Y" x1="0%" x2="99.953%" y1="50.106%" y2="50.106%"><stop offset="0%" stop-color="#64696e"/><stop offset="6%" stop-color="#17181a"/><stop offset="78%" stop-color="#535659"/><stop offset="93%" stop-color="#56595f"/><stop offset="100%" stop-color="#313335"/></linearGradient><linearGradient id="Z" x1="0%" x2="100%" y1="50.058%" y2="50.058%"><stop offset="0%" stop-color="#64696e"/><stop offset="6%" stop-color="#17181a"/><stop offset="78%" stop-color="#535659"/><stop offset="93%" stop-color="#56595f"/><stop offset="100%" stop-color="#313335"/></linearGradient><linearGradient id="aa" x1="0%" x2="100%" y1="50%" y2="50%"><stop offset="0%" stop-color="#64696e"/><stop offset="6%" stop-color="#17181a"/><stop offset="78%" stop-color="#535659"/><stop offset="93%" stop-color="#56595f"/><stop offset="100%" stop-color="#313335"/></linearGradient><linearGradient id="ab" x1="0%" x2="100%" y1="50%" y2="50%"><stop offset="0%" stop-color="#a9b1bb"/><stop offset="6%" stop-color="#5d6166"/><stop offset="78%" stop-color="#e2eaf2"/><stop offset="93%" stop-color="#9ba1ab"/><stop offset="100%" stop-color="#767b82"/></linearGradient><linearGradient id="ac" x1="0%" x2="100%" y1="50%" y2="50%"><stop offset="0%" stop-color="#a9b1bb"/><stop offset="6%" stop-color="#5d6166"/><stop offset="78%" stop-color="#e2eaf2"/><stop offset="93%" stop-color="#9ba1ab"/><stop offset="100%" stop-color="#767b82"/></linearGradient><linearGradient id="ad" x1="0%" x2="100%" y1="49.921%" y2="49.921%"><stop offset="0%" stop-color="#64696e"/><stop offset="6%" stop-color="#17181a"/><stop offset="78%" stop-color="#535659"/><stop offset="93%" stop-color="#56595f"/><stop offset="100%" stop-color="#313335"/></linearGradient><linearGradient id="ae" x1="0%" x2="100%" y1="49.921%" y2="49.921%"><stop offset="0%" stop-color="#64696e"/><stop offset="6%" stop-color="#17181a"/><stop offset="78%" stop-color="#535659"/><stop offset="93%" stop-color="#56595f"/><stop offset="100%" stop-color="#313335"/></linearGradient><linearGradient id="af" x1="0%" x2="100.166%" y1="50.154%" y2="50.154%"><stop offset="0%" stop-color="#64696e"/><stop offset="6%" stop-color="#17181a"/><stop offset="78%" stop-color="#535659"/><stop offset="93%" stop-color="#56595f"/><stop offset="100%" stop-color="#313335"/></linearGradient><linearGradient id="ag" x1="0%" x2="100%" y1="50%" y2="50%"><stop offset="0%" stop-color="#cfd9e6"/><stop offset="9%" stop-color="#a2aab3"/><stop offset="27%" stop-color="#aab2bb"/><stop offset="54%" stop-color="#c0c8d1"/><stop offset="75%" stop-color="#d6dee6"/><stop offset="93%" stop-color="#d0d8e6"/><stop offset="100%" stop-color="#b9c1cc"/></linearGradient><linearGradient id="ah" x1="0%" x2="100.077%" y1="49.978%" y2="49.978%"><stop offset="0%" stop-color="#a9b1bb"/><stop offset="6%" stop-color="#5d6166"/><stop offset="78%" stop-color="#e2eaf2"/><stop offset="93%" stop-color="#9ba1ab"/><stop offset="100%" stop-color="#767b82"/></linearGradient><linearGradient id="ai" x1="0%" x2="100%" y1="49.738%" y2="49.738%"><stop offset="0%" stop-color="#a9b1bb"/><stop offset="6%" stop-color="#5d6166"/><stop offset="78%" stop-color="#e2eaf2"/><stop offset="93%" stop-color="#9ba1ab"/><stop offset="100%" stop-color="#767b82"/></linearGradient><linearGradient id="aj" x1="0%" x2="100%" y1="59.403%" y2="59.403%"><stop offset="0%" stop-color="#a9b1bb"/><stop offset="6%" stop-color="#5d6166"/><stop offset="78%" stop-color="#e2eaf2"/><stop offset="93%" stop-color="#9ba1ab"/><stop offset="100%" stop-color="#767b82"/></linearGradient><linearGradient id="ak" x1="26.609%" x2="73.391%" y1="57.058%" y2="45.305%"><stop offset="0%" stop-color="#a9b1bb"/><stop offset="6%" stop-color="#5d6166"/><stop offset="78%" stop-color="#e2eaf2"/><stop offset="93%" stop-color="#9ba1ab"/><stop offset="100%" stop-color="#767b82"/></linearGradient><linearGradient id="al" x1="50%" x2="50%" y1="100.069%" y2="0%"><stop offset="0%" stop-color="#2e3033"/><stop offset="100%" stop-color="#4a4b4d"/></linearGradient><linearGradient id="am" x1="50.069%" x2="50.069%" y1="99.93%" y2="0%"><stop offset="0%" stop-color="#45484d"/><stop offset="100%" stop-color="#939699"/></linearGradient><linearGradient id="an" x1="50%" x2="50%" y1="100%" y2=".115%"><stop offset="0%" stop-color="#61666b"/><stop offset="7%" stop-color="#696e73"/><stop offset="18%" stop-color="#7e8489"/><stop offset="32%" stop-color="#a1a7ae"/><stop offset="48%" stop-color="#d1d8e0"/><stop offset="53%" stop-color="#e2eaf2"/><stop offset="100%" stop-color="#767b82"/></linearGradient><linearGradient id="ao" x1="50%" x2="50%" y1="100%" y2="0%"><stop offset="0%" stop-color="#2e3033"/><stop offset="100%" stop-color="#4a4b4d"/></linearGradient><linearGradient id="ap" x1="50%" x2="50%" y1="99.8%" y2="0%"><stop offset="0%" stop-color="#45484d"/><stop offset="100%" stop-color="#939699"/></linearGradient><linearGradient id="aq" x1="50%" x2="50%" y1="100%" y2="-.004%"><stop offset="0%" stop-color="#cfd9e6"/><stop offset="9%" stop-color="#a2aab3"/><stop offset="27%" stop-color="#aab2bb"/><stop offset="54%" stop-color="#c0c8d1"/><stop offset="75%" stop-color="#d6dee6"/><stop offset="93%" stop-color="#d0d8e6"/><stop offset="100%" stop-color="#b9c1cc"/></linearGradient><linearGradient id="ar" x1="50%" x2="50%" y1="100%" y2="0%"><stop offset="0%" stop-color="#cfd9e6"/><stop offset="9%" stop-color="#a2aab3"/><stop offset="27%" stop-color="#aab2bb"/><stop offset="54%" stop-color="#c0c8d1"/><stop offset="75%" stop-color="#d6dee6"/><stop offset="93%" stop-color="#d0d8e6"/><stop offset="100%" stop-color="#b9c1cc"/></linearGradient><linearGradient id="as" x1="50%" x2="50%" y1="100%" y2="0%"><stop offset="0%" stop-color="#61666b"/><stop offset="7%" stop-color="#696e73"/><stop offset="18%" stop-color="#7e8489"/><stop offset="32%" stop-color="#a1a7ae"/><stop offset="48%" stop-color="#d1d8e0"/><stop offset="53%" stop-color="#e2eaf2"/><stop offset="100%" stop-color="#767b82"/></linearGradient><linearGradient id="at" x1="0%" x2="100%" y1="49.942%" y2="49.942%"><stop offset="0%" stop-color="#64696e"/><stop offset="6%" stop-color="#17181a"/><stop offset="78%" stop-color="#535659"/><stop offset="93%" stop-color="#56595f"/><stop offset="100%" stop-color="#313335"/></linearGradient><linearGradient id="au" x1="0%" x2="103.571%" y1="49.942%" y2="49.942%"><stop offset="0%" stop-color="#64696e"/><stop offset="6%" stop-color="#17181a"/><stop offset="78%" stop-color="#535659"/><stop offset="93%" stop-color="#56595f"/><stop offset="100%" stop-color="#313335"/></linearGradient></defs><g fill="none" fill-rule="nonzero" transform="translate(.143 .005)"><path fill="url(#a)" d="M66.2 82.31c-13.06 3.5-16.77-.46-16.77-.46l31.06-8.33s-1.23 5.29-14.29 8.79"/><path fill="url(#b)" d="M66.2 82.31c-13.06 3.5-16.77-.46-16.77-.46l31.06-8.33s-1.23 5.29-14.29 8.79" opacity=".3"/><path fill="url(#c)" d="m58.68 85.13-2.85 1.1-2.83-1.1a4.15 4.15 0 0 0-1.44-1.24h8.57a5.2 5.2 0 0 0-1.45 1.24"/><path fill="url(#d)" d="M58.31 95.56a4.3 4.3 0 0 1-2.47.64 4.27 4.27 0 0 1-2.46-.64v-9.74a7.2 7.2 0 0 0 2.46.38 7.4 7.4 0 0 0 2.47-.38z"/><path fill="url(#e)" d="M58.71 95.13a5.6 5.6 0 0 1-2.88.65 5.43 5.43 0 0 1-2.83-.65v-10a9.3 9.3 0 0 0 2.85.39 9.7 9.7 0 0 0 2.88-.39z"/><path fill="url(#f)" d="M60.71 83.89a37 37 0 0 1-4.88.42 36 36 0 0 1-4.83-.42v-1.84q2.417.3 4.85.32a43 43 0 0 0 4.88-.32z"/><path fill="url(#g)" d="M0 0h1v2.95H0z" transform="translate(51.37 81.7)"/><path fill="url(#h)" d="M.56 0h1v2.95h-1z" transform="translate(51.37 81.7)"/><path fill="url(#i)" d="M1.12 0h1v2.95h-1z" transform="translate(51.37 81.7)"/><path fill="url(#i)" d="M1.68 0h1v2.95h-1z" transform="translate(51.37 81.7)"/><path fill="url(#g)" d="M2.23 0h1v2.95h-1z" transform="translate(51.37 81.7)"/><path fill="url(#h)" d="M2.79 0h1v2.95h-1z" transform="translate(51.37 81.7)"/><path fill="url(#h)" d="M3.35 0h1v2.95h-1z" transform="translate(51.37 81.7)"/><path fill="url(#i)" d="M3.91 0h1v2.95h-1z" transform="translate(51.37 81.7)"/><path fill="url(#g)" d="M4.46 0h1v2.95h-1z" transform="translate(51.37 81.7)"/><path fill="url(#g)" d="M5.02 0h1v2.95h-1z" transform="translate(51.37 81.7)"/><path fill="url(#h)" d="M5.58 0h1v2.95h-1z" transform="translate(51.37 81.7)"/><path fill="url(#i)" d="M6.14 0h1v2.95h-1z" transform="translate(51.37 81.7)"/><path fill="url(#g)" d="M6.69 0h1v2.95h-1z" transform="translate(51.37 81.7)"/><path fill="url(#g)" d="M7.25 0h1v2.95h-1z" transform="translate(51.37 81.7)"/><path fill="url(#h)" d="M7.81 0h1v2.95h-1z" transform="translate(51.37 81.7)"/><path fill="url(#i)" d="M8.37 0h1v2.95h-1z" transform="translate(51.37 81.7)"/><path fill="url(#g)" d="M8.92 0h1v2.95h-1z" transform="translate(51.37 81.7)"/><path fill="url(#j)" d="m74.51 80.89 3-.47 1.9-2.37a4.4 4.4 0 0 1 .64-1.8l-7.43 4.29a5.1 5.1 0 0 1 1.89.35"/><path fill="url(#k)" d="M80.05 89.74a4.4 4.4 0 0 0 2.47-.69 4.2 4.2 0 0 0 1.8-1.78l-4.87-8.43a7.2 7.2 0 0 1-1.93 1.55 7.3 7.3 0 0 1-2.34.91z"/><path fill="url(#l)" d="M79.49 89.56a5.56 5.56 0 0 0 2.82-.87 5.36 5.36 0 0 0 2.14-2l-5-8.65a9.3 9.3 0 0 1-2.27 1.76 9.5 9.5 0 0 1-2.69 1.1z"/><path fill="url(#m)" d="M72.14 80.83a36.5 36.5 0 0 0 4.43-2.08 36 36 0 0 0 4-2.79l-.92-1.6a43 43 0 0 1-4.05 2.71 41 41 0 0 1-4.38 2.16z"/><path fill="url(#n)" d="M8.443-.16h1v2.95h-1z" transform="rotate(150 34.208 47.999)"/><path fill="url(#o)" d="M7.967.112h1v2.95h-1z" transform="rotate(150 33.732 48.27)"/><path fill="url(#p)" d="M7.483.39h1v2.95h-1z" transform="rotate(150 33.248 48.549)"/><path fill="url(#o)" d="M6.999.677h1v2.95h-1z" transform="rotate(150 32.764 48.836)"/><path fill="url(#q)" d="M6.523.95h1V3.9h-1z" transform="rotate(150 32.288 49.109)"/><path fill="url(#r)" d="M6.039 1.227h1v2.95h-1z" transform="rotate(150 31.804 49.386)"/><path fill="url(#o)" d="M5.545 1.505h1v2.95h-1z" transform="rotate(150 31.31 49.664)"/><path fill="url(#i)" d="M5.065 1.791h1v2.95h-1z" transform="rotate(150 30.83 49.95)"/><path fill="url(#g)" d="M4.59 2.064h1v2.95h-1z" transform="rotate(150 30.355 50.223)"/><path fill="url(#r)" d="M4.105 2.351h1v2.95h-1z" transform="rotate(150 29.87 50.51)"/><path fill="url(#o)" d="M3.621 2.629h1v2.95h-1z" transform="rotate(150 29.386 50.788)"/><path fill="url(#s)" d="M3.135 2.901h1v2.95h-1z" transform="rotate(150 28.9 51.06)"/><path fill="url(#s)" d="M2.651 3.179h1v2.95h-1z" transform="rotate(150 28.416 51.338)"/><path fill="url(#t)" d="M2.167 3.456h1v2.95h-1z" transform="rotate(150 27.932 51.615)"/><path fill="url(#u)" d="M1.682 3.744h1v2.95h-1z" transform="rotate(150 27.447 51.903)"/><path fill="url(#o)" d="M1.207 4.016h1v2.95h-1z" transform="rotate(150 26.972 52.175)"/><path fill="url(#i)" d="M.727 4.302h1v2.95h-1z" transform="rotate(150 26.492 52.46)"/><path fill="url(#v)" d="m69.09 81.44-2.64 1.85-3.19-.29a4.6 4.6 0 0 0-1.81-.8l8.81-2.36c-.484.458-.88 1-1.17 1.6"/><path fill="url(#w)" d="M72.84 95.33a9 9 0 0 0-3.06.37A8.6 8.6 0 0 0 67 96.91L63.24 83a11 11 0 0 1 2.83-1.13 11.4 11.4 0 0 1 3.05-.45z"/><path fill="url(#x)" d="M70.48 78.31a42 42 0 0 0-5.11.93A42 42 0 0 0 60.49 81l.51 1.77a45 45 0 0 1 4.9-1.65 46 46 0 0 1 5.09-1z"/><path fill="url(#y)" d="M.379 2.44h1v2.95h-1z" transform="rotate(-15 325.654 -187.772)"/><path fill="url(#z)" d="M1.305 2.528h1v2.963h-1z" transform="rotate(-15.005 326.48 -187.6)"/><path fill="url(#A)" d="M1.53 2.123h1v2.95h-1z" transform="rotate(-15 326.805 -188.09)"/><path fill="url(#B)" d="M2.101 1.98h1v2.95h-1z" transform="rotate(-15 327.376 -188.231)"/><path fill="url(#A)" d="M2.68 1.816h1v2.95h-1z" transform="rotate(-15 327.955 -188.397)"/><path fill="url(#z)" d="M3.608 1.911h1v2.963h-1z" transform="rotate(-15.005 328.783 -188.217)"/><path fill="url(#C)" d="M3.814 1.511h1v2.95h-1z" transform="rotate(-15 329.089 -188.701)"/><path fill="url(#D)" d="M4.383 1.359h1v2.95h-1z" transform="rotate(-15 329.658 -188.853)"/><path fill="url(#A)" d="M4.964 1.204h1v2.95h-1z" transform="rotate(-15 330.239 -189.008)"/><path fill="url(#E)" d="M5.901 1.294h1v2.963h-1z" transform="rotate(-15.005 331.075 -188.834)"/><path fill="url(#D)" d="M6.105.899h1v2.95h-1z" transform="rotate(-15 331.38 -189.313)"/><path fill="url(#F)" d="M6.677.747h1v2.95h-1z" transform="rotate(-15 331.952 -189.465)"/><path fill="url(#C)" d="M7.258.592h1v2.95h-1z" transform="rotate(-15 332.533 -189.62)"/><path fill="url(#A)" d="M7.828.44h1v2.95h-1z" transform="rotate(-15 333.103 -189.772)"/><path fill="url(#y)" d="M8.399.288h1v2.95h-1z" transform="rotate(-15 333.675 -189.924)"/><path fill="url(#F)" d="M8.971.135h1v2.95h-1z" transform="rotate(-15 334.246 -190.077)"/><path fill="url(#A)" d="M9.55-.03h1v2.95h-1z" transform="rotate(-15 334.825 -190.242)"/><ellipse cx="69.913" cy="96.15" fill="url(#G)" rx="3.04" ry="1" transform="rotate(-15 69.913 96.15)"/><path fill="url(#H)" d="M71.88 96.11a5.5 5.5 0 0 0-1.93.24 5.4 5.4 0 0 0-1.77.75l-.11-.4a7.4 7.4 0 0 1 1.79-.7 7.5 7.5 0 0 1 1.91-.28z"/><ellipse cx="70.443" cy="96.941" fill="url(#I)" rx="1.928" ry="1" transform="rotate(-15.005 70.443 96.94)"/><path fill="url(#J)" d="M80.52 73.63s-8.81 3.12-15.34 4.87S49.46 82 49.46 82l-.8-3s8.65-1.57 15.72-3.46 15.34-4.87 15.34-4.87z"/><path fill="url(#K)" d="M79.72 70.65s-8.81 3.12-15.34 4.87S48.66 79 48.66 79l-.8-3s8.65-1.56 15.72-3.46 15.35-4.86 15.35-4.86z"/><ellipse cx="63.366" cy="71.773" fill="url(#L)" rx="16.08" ry="1" transform="rotate(-15 63.366 71.773)"/><path fill="url(#M)" d="M78.61 67.54c-1.44 0-7.84 1.42-15.44 3.46-8.58 2.3-15.44 4.51-15.33 4.93 0 0 .12.07.3.07 1.44 0 7.84-1.42 15.44-3.46C72.16 70.24 79 68 78.91 67.61c0 0-.12-.07-.3-.07"/><path fill="url(#N)" d="M19.22 84.15v17.36a10.8 10.8 0 0 0 2.93 7.49 9.7 9.7 0 0 0 7.06 3 9.9 9.9 0 0 0 8.39-4.8h1.62v26.7c-17.62 0-31.91-15-31.91-33.61V76.74c0-18.56 14.29-33.61 31.91-33.61v35h-1.59A9.82 9.82 0 0 0 28 73.37c-5.1.63-8.78 5.41-8.78 10.78"/><path fill="url(#O)" d="M47.51 29.72h20.97V67.8H47.51z"/><path fill="url(#P)" d="M50.58 72.24h14.83v2.35H50.58z"/><path fill="url(#Q)" d="M50.58 72.24h14.83v2.35H50.58z" opacity=".5"/><path fill="url(#R)" d="M65.41 72.24H50.58l-3.07-4.44h20.97z"/><path fill="url(#S)" d="M65.41 72.24H50.58l-3.07-4.44h20.97z" opacity=".5"/><path fill="url(#T)" d="M33.69 98.99h45.74v9.08H33.69z"/><path fill="url(#U)" d="M51.28 108.07h18.87v3.07H51.28z"/><path fill="url(#U)" d="M51.28 113.44h18.87v3.07H51.28z"/><path fill="url(#V)" d="M52.2 116.5h17.03v3.07H52.2z"/><path fill="url(#W)" d="M3.92 147.74h3.4V150h-3.4z"/><path fill="url(#W)" d="M73.49 147.74h3.4V150h-3.4z"/><path fill="url(#X)" d="M53.95 111.14h13.51v2.3H53.95z"/><path fill="url(#Y)" d="M48.7 130.52h21.45v4.71H48.7z"/><path fill="url(#Z)" d="M39.22 117.1h10.39v8.59H39.22z"/><path fill="url(#aa)" d="M40.86 112.84h7.12v4.26h-7.12z"/><path fill="url(#ab)" d="M41.88 97.61h5.08v1.38h-5.08z"/><path fill="url(#ac)" d="M42.56 108.04h3.71v4.8h-3.71z"/><path fill="url(#ad)" d="M40.03 128.95h8.78v6.29h-8.78z"/><path fill="url(#ae)" d="M40.68 128.95h1v6.29h-1z"/><path fill="url(#ae)" d="M41.73 128.95h1v6.29h-1z"/><path fill="url(#ae)" d="M42.79 128.95h1v6.29h-1z"/><path fill="url(#ae)" d="M43.84 128.95h1v6.29h-1z"/><path fill="url(#ae)" d="M44.9 128.95h1v6.29h-1z"/><path fill="url(#ae)" d="M45.95 128.95h1v6.29h-1z"/><path fill="url(#ae)" d="M47.01 128.95h1v6.29h-1z"/><path fill="url(#ae)" d="M48.06 128.95h1v6.29h-1z"/><path fill="url(#af)" d="M41.41 125.69h6.01v3.25h-6.01z"/><path fill="url(#ag)" d="M39.22 43.13h8.29v35.1h-8.29z"/><path fill="url(#ah)" d="M51.48 1.91H64.5v22.85H51.48z"/><path fill="url(#ai)" d="M50.07 0h15.85v1.91H50.07z"/><path fill="url(#aj)" d="M47.51 27.81h20.97v1.91H47.51z"/><path fill="url(#ak)" d="M64.49 24.76H51.5l-3.99 3.05h20.97z"/><circle cx="42.78" cy="54.79" r="7.29" fill="url(#al)"/><path fill="url(#am)" d="M42.78 48a6.8 6.8 0 1 1 .04 13.6 6.8 6.8 0 0 1-.04-13.6m0-.5a7.3 7.3 0 1 0 7.29 7.29 7.29 7.29 0 0 0-7.29-7.29"/><circle cx="42.78" cy="54.79" r="4.34" fill="url(#an)"/><circle cx="32.7" cy="69.61" r="4.99" fill="url(#ao)"/><path fill="url(#ap)" d="M32.7 66.62a3 3 0 1 1 0 6 3 3 0 0 1 0-6m0-2a5 5 0 1 0 0 10 5 5 0 0 0 0-10"/><path fill="url(#aq)" d="M36.46 139.18h-24.2l15.86-25.58a4.88 4.88 0 0 1 8.34 3.46z"/><rect width="79.44" height="8.56" y="139.18" fill="url(#ar)" rx="2.01"/><circle cx="31.15" cy="119.54" r="3.44" fill="url(#as)"/><path fill="url(#at)" d="M40.15 117.1h1v8.57h-1z"/><path fill="url(#au)" d="M41.2 117.1h1v8.57h-1z"/><path fill="url(#at)" d="M42.26 117.1h1v8.57h-1z"/><path fill="url(#au)" d="M43.31 117.1h1v8.57h-1z"/><path fill="url(#at)" d="M44.37 117.1h1v8.57h-1z"/><path fill="url(#au)" d="M45.42 117.1h1v8.57h-1z"/><path fill="url(#at)" d="M46.48 117.1h1v8.57h-1z"/><path fill="url(#au)" d="M47.53 117.1h1v8.57h-1z"/><path fill="url(#au)" d="M48.66 117.1h1v8.57h-1z"/></g></svg>