<svg xmlns="http://www.w3.org/2000/svg" viewBox="0 0 151 119"><title>Mortar and pestle（研钵和杵）</title><defs><linearGradient id="a" x1="0%" x2="100%" y1="49.87%" y2="49.87%"><stop offset="0%" stop-color="#b7b9bb"/><stop offset="6%" stop-color="#afb1b3"/><stop offset="62%" stop-color="#d7d9db"/><stop offset="93%" stop-color="#e1e3e6"/><stop offset="100%" stop-color="#c8cacc"/></linearGradient><linearGradient id="b" x1="50%" x2="50%" y1="100%" y2="-.209%"><stop offset="0%" stop-color="#878d93" stop-opacity="0"/><stop offset="26%" stop-color="#7e848a" stop-opacity=".1"/><stop offset="57%" stop-color="#656a6e" stop-opacity=".38"/><stop offset="91%" stop-color="#3c3e42" stop-opacity=".85"/><stop offset="100%" stop-color="#2e3033"/></linearGradient><linearGradient id="c" x1="37.592%" x2="62.587%" y1="37.4%" y2="62.345%"><stop offset="0%" stop-color="#c8cacc"/><stop offset="7%" stop-color="#e1e3e6"/><stop offset="38%" stop-color="#e6e9eb"/><stop offset="94%" stop-color="#afb1b3"/><stop offset="100%" stop-color="#b7b9bb"/></linearGradient><linearGradient id="d" x1="-.002%" x2="100.002%" y1="50%" y2="50%"><stop offset="0%" stop-color="#b7b9bb"/><stop offset="6%" stop-color="#afb1b3"/><stop offset="62%" stop-color="#e6e9eb"/><stop offset="93%" stop-color="#e1e3e6"/><stop offset="100%" stop-color="#c8cacc"/></linearGradient></defs><g fill="none" fill-rule="nonzero"><path fill="url(#a)" d="M120.187 118.175h-90.38a67.6 67.6 0 0 1 3.27-19.17 161.4 161.4 0 0 0 41.92 6.46 161.4 161.4 0 0 0 41.92-6.46 67.6 67.6 0 0 1 3.27 19.17" transform="translate(.145)"/><path fill="url(#b)" d="M120.187 118.175h-90.38a67.6 67.6 0 0 1 3.27-19.17 161.4 161.4 0 0 0 41.92 6.46 161.4 161.4 0 0 0 41.92-6.46 67.6 67.6 0 0 1 3.27 19.17" opacity=".5" transform="translate(.145)"/><path fill="url(#c)" d="M134.057 19.565c3.1-3.24 1.62-9.79-3.27-14.68s-11.43-6.36-14.67-3.26a5.92 5.92 0 0 0-1.73 3.69 9 9 0 0 1-2.82 5.63l-67.57 55.89c-8.38 7.53-9.59 19.89-2.42 27.06s19.53 6 27.06-2.42l55.75-67.33a8.87 8.87 0 0 1 5.78-2.83 6 6 0 0 0 3.89-1.75" transform="translate(.145)"/><path fill="url(#d)" d="M131.617 92.005c-11.32 9.07-42.34 13.46-56.62 13.46s-45.3-4.39-56.62-13.46c-7.86-6.3-15.38-32.58-18.25-43.76a4.07 4.07 0 0 1 3.93-5.08h141.88a4.07 4.07 0 0 1 3.93 5.08c-2.87 11.18-10.39 37.46-18.25 43.76" transform="translate(.145)"/></g></svg>