<svg xmlns="http://www.w3.org/2000/svg" viewBox="0 0 151 151"><title>Pills（药丸）</title><defs><linearGradient id="a" x1="49.952%" x2="49.952%" y1="100%" y2="0%"><stop offset="0%" stop-color="#e1e3e6"/><stop offset="67%" stop-color="#b8c0cc"/></linearGradient><linearGradient id="b" x1="50%" x2="50%" y1="100%" y2="0%"><stop offset="0%" stop-color="#e1e3e6"/><stop offset="100%" stop-color="#f5faff"/></linearGradient><linearGradient id="c" x1="0%" x2="100%" y1="50.033%" y2="50.033%"><stop offset="33%" stop-color="#b8c0cc"/><stop offset="89%" stop-color="#e7eaee"/><stop offset="100%" stop-color="#eaeef2"/></linearGradient><linearGradient id="d" x1="49.952%" x2="49.952%" y1="100%" y2="-.038%"><stop offset="0%" stop-color="#e1e3e6"/><stop offset="67%" stop-color="#b8c0cc"/></linearGradient><linearGradient id="e" x1="49.962%" x2="49.962%" y1="100%" y2="-.032%"><stop offset="0%" stop-color="#e1e3e6"/><stop offset="100%" stop-color="#f5faff"/></linearGradient><linearGradient id="f" x1="0%" x2="100%" y1="50%" y2="50%"><stop offset="33%" stop-color="#b8c0cc"/><stop offset="89%" stop-color="#e7eaee"/><stop offset="100%" stop-color="#eaeef2"/></linearGradient><linearGradient id="g" x1="26.919%" x2="60.631%" y1="71.094%" y2="17.659%"><stop offset="0%" stop-color="#5caae6"/><stop offset="9%" stop-color="#2474b3"/><stop offset="20%" stop-color="#2c7ab7"/><stop offset="37%" stop-color="#428ac2"/><stop offset="58%" stop-color="#67a4d4"/><stop offset="75%" stop-color="#8abee6"/><stop offset="93%" stop-color="#8abde6"/><stop offset="100%" stop-color="#5296cc"/></linearGradient><linearGradient id="h" x1="0%" x2="100%" y1="50.075%" y2="50.075%"><stop offset="0%" stop-color="#e1e3e6"/><stop offset="100%" stop-color="#f5faff"/></linearGradient><linearGradient id="i" x1="26.285%" x2="62.998%" y1="76.692%" y2="14.717%"><stop offset="0%" stop-color="#e6e8eb"/><stop offset="9%" stop-color="#c8cacc"/><stop offset="27%" stop-color="#d0d2d4"/><stop offset="55%" stop-color="#e6e8ea"/><stop offset="75%" stop-color="#fafcff"/><stop offset="93%" stop-color="#f5f7fa"/><stop offset="100%" stop-color="#ebedf0"/></linearGradient></defs><g fill="none" fill-rule="nonzero" transform="translate(.193 .056)"><path fill="url(#a)" d="m52.39 86.219-.06 11.32c0 3.86-2.54 7.71-7.6 10.65-10.19 5.92-26.78 5.92-37 0-5.16-3-7.74-6.89-7.73-10.8l.01-11.33c0 3.91 2.57 7.82 7.73 10.8 10.27 5.93 26.85 5.93 37 0 5.1-2.91 7.64-6.78 7.65-10.64"/><path fill="url(#b)" d="M52.39 86.059c0 3.91-2.48 7.83-7.61 10.81-10.19 5.92-26.77 5.92-37 0-5.17-2.92-7.77-6.85-7.77-10.73 0 0 2.64-15.69 26.16-15.69s26.22 15.61 26.22 15.61"/><rect width="4.73" height="30.74" x="23.26" y="70.529" fill="url(#c)" rx="2.365"/><path fill="url(#d)" d="m149.95 123.539-.06 11.32c0 3.86-2.54 7.71-7.6 10.65-10.19 5.92-26.78 5.92-37 0-5.16-3-7.74-6.89-7.73-10.8l.06-11.32c0 3.91 2.57 7.82 7.73 10.8 10.27 5.93 26.85 5.93 37 0 5.06-2.94 7.6-6.79 7.6-10.65"/><path fill="url(#e)" d="M149.95 123.379c0 3.91-2.47 7.83-7.61 10.81-10.19 5.92-26.77 5.92-37 0-5.13-3-7.73-6.84-7.73-10.72 0 0 2.64-15.69 26.16-15.69s26.18 15.6 26.18 15.6"/><rect width="4.73" height="30.74" x="120.82" y="107.859" fill="url(#f)" rx="2.365"/><path fill="url(#g)" d="m35.34 3.769-.07-.06-.42-.27-.08-.05-.55-.33a1 1 0 0 1-.18-.1 24 24 0 0 0-3-1.41l-.15-.07a17 17 0 0 0-2.3-.76l-.31-.07h-.08a17.7 17.7 0 0 0-3-.52l-.61-.08h-.46a21 21 0 0 0-2.85 0h-.79l-.54.06h-.15a2 2 0 0 0-.21 0 23 23 0 0 0-3.07.64 20 20 0 0 0-2.2.74l-.3.13c-.6.25-1.22.52-1.71.78l-.42.23-.3.16c-.16.08-.67.37-1.35.81-.34.22-.72.48-1 .72l-.13.1c-.34.25-.69.52-1 .81l-.28.25-.22.2-.12.1-.45.43a1 1 0 0 0-.14.14l-.28.27a2 2 0 0 0-.14.14l-.22.19-.46.49c-.45.49-.79.91-1 1.19l-.08.11a20.5 20.5 0 0 0-2.34 3.73 1 1 0 0 0-.07.13c-.07.14-.14.29-.22.43a19 19 0 0 0-.83 2c-.12.3-.24.69-.34 1s-.24.78-.35 1.23c0 .09 0 .18-.07.28v.1c-.12.49-.24 1.12-.34 1.79a.3.3 0 0 0 0 .1c0 .07 0 .25-.07.51v.17c0 .34-.08.68-.09 1v4.25c0 .11 0 .35.06.52a.2.2 0 0 0 0 .07v.11c.07.47.15.9.22 1.28 0 .11.05.22.07.33.09.39.17.73.24 1q.04.172.1.34c.1.35.2.68.31 1a.6.6 0 0 1 0 .12 23.4 23.4 0 0 0 1.56 3.53l.08.16c.08.13.15.27.21.37.23.42.48.81.74 1.19a20 20 0 0 0 1.22 1.67l.09.11v.05c.06.06.12.14.18.21l.29.34c.23.27.48.55.7.77l.09.08.62.62a23 23 0 0 0 1.96 1.62.7.7 0 0 1 .13.11 17 17 0 0 0 1.5 1l.5.31.11.07.53.31.14.07h.08l.55.29.17.08h.07l32.45 18.92c-2.91-1.69-4.71-5.28-4.72-10.39 0-10.25 7.18-22.75 16.11-27.91 4.5-2.6 8.57-2.84 11.51-1.13z" transform="translate(35.36)"/><path fill="url(#h)" d="M56.36 23.809c8.94-5.17 16.2-1 16.23 9.24s-7.18 22.78-16.12 27.9-16.19 1-16.22-9.27 7.18-22.73 16.11-27.87" transform="translate(35.36)"/><g transform="translate(75.61 21.586)"><path fill="url(#i)" d="M27.62 1.092c-2.94-1.71-7-1.47-11.51 1.13C7.18 7.362-.03 19.882 0 30.132c0 5.11 1.81 8.7 4.72 10.39l34.62 20.12c-2.9-1.68-4.71-5.28-4.72-10.39 0-10.25 7.18-22.75 16.12-27.91 4.49-2.6 8.56-2.84 11.5-1.13z"/><path fill="#dcdee0" d="m37.14 58.812-.1-.12a11 11 0 0 1-.67-1 1 1 0 0 0-.07-.13c-.2-.36-.39-.73-.56-1.12l-.06-.13c-.16-.41-.32-.83-.45-1.27v-.13a14 14 0 0 1-.33-1.43v-.1c-.09-.51-.15-1-.2-1.6v-.06c0-.57-.06-1.16-.06-1.78.13-10.37 7.49-22.81 16.43-27.8q.41-.23.81-.42l.27-.13.53-.25.32-.13.47-.2.33-.12.44-.15.34-.11.42-.12.34-.08.41-.1.33-.06.4-.07h3.05l.35.06.28.06.35.1.25.07a3 3 0 0 1 .36.13l.23.08.4.18.16.08.55.29h.08l.14.07.52.31.12.07.5.31q.796.533 1.52 1.16l.13.1a22 22 0 0 1 1.87 1.58l.62.62.08.09c.23.21.47.49.71.76l.29.34.17.21.09.11a20 20 0 0 1 1.22 1.67c.25.38.51.77.74 1.19.06.1.13.24.2.37l.09.16a22.5 22.5 0 0 1 1.55 3.53.6.6 0 0 1 0 .12c.11.33.22.66.31 1l.09.34c.07.27.16.61.24 1a3 3 0 0 1 .07.32c.08.38.16.82.22 1.28a.4.4 0 0 1 0 .11v.07l.06.52v2.87c0 .47 0 .89-.05 1.28v.11c0 .31-.05.65-.09 1v.12c0 .26-.06.44-.07.51s0 .07 0 .1c-.1.67-.23 1.3-.34 1.79v.1c0 .11 0 .2-.07.28-.11.45-.23.87-.35 1.24s-.22.68-.34 1a19 19 0 0 1-.84 2l-.21.43-.07.13a21.5 21.5 0 0 1-1.79 3c-.13.19-.33.45-.55.73l-.08.11c-.22.28-.56.7-1 1.19-.15.17-.3.34-.45.49l-.08.08-.14.15-.28.27-.14.13-.46.43-.11.11-.23.19-.28.25c-.35.29-.69.56-1 .82h-.05l-.13.1c-.32.24-.71.5-1 .72-.68.44-1.2.73-1.36.81l-.3.16-.41.23c-.5.26-1.11.53-1.72.78l-.3.13a20 20 0 0 1-2.19.74 23 23 0 0 1-3.07.64h-.37c-.17 0-.35 0-.53.06h-.83a21 21 0 0 1-2.85 0h-.46c-.21 0-.41 0-.61-.06a18 18 0 0 1-3-.52h-.09l-.29-.07a17 17 0 0 1-2.34-.76l-.15-.07a23 23 0 0 1-3-1.41l-.18-.1-.55-.33h-.08l-.42-.27-.07-.06a7 7 0 0 1-.86-.67l-.12-.1a10 10 0 0 1-.6-.71"/><path fill="#dddfe1" d="M57.11 21.132h2.65l.34.06.27.06.34.09.25.07.35.12.22.09.38.17.17.07.54.28h.07l.14.08.51.29.11.07.49.3q.755.456 1.45 1l.12.1a19 19 0 0 1 1.83 1.67l.6.6.08.08c.22.21.46.48.69.75.1.11.18.22.27.33q.077.107.17.2l.09.1c.23.29.66.85 1.18 1.63.24.36.49.74.71 1.14l.2.36.09.16a21.5 21.5 0 0 1 1.51 3.42v.12c.11.32.21.64.3 1l.09.33c.07.26.15.59.23 1 0 .1.05.21.07.31.07.37.15.79.21 1.25a.4.4 0 0 1 0 .1v.07l.06.5v4.13c0 .3 0 .63-.09 1v.12c0 .24-.06.42-.07.49s0 .06 0 .1c-.11.64-.23 1.26-.34 1.73a.4.4 0 0 1 0 .1 2 2 0 0 1-.07.27c-.11.44-.22.84-.34 1.2s-.21.66-.32 1c-.23.6-.49 1.27-.81 1.93l-.21.42-.07.12c-.5 1-1.081 1.957-1.74 2.86-.13.18-.31.43-.53.71l.04.08a13 13 0 0 1-1 1.16l-.44.48-.08.07a2 2 0 0 1-.14.14l-.26.26-.14.14-.44.41-.12.1-.21.19-.27.24c-.34.29-.68.55-1 .79l-.13.09c-.32.23-.68.48-1 .69-.66.43-1.16.71-1.31.79l-.29.15-.41.22a17 17 0 0 1-1.66.76l-.29.13a21 21 0 0 1-2.13.72 26 26 0 0 1-3 .62h-.36l-.52.06h-.8q-1.38.09-2.76 0h-.45l-.59-.06a16.4 16.4 0 0 1-2.87-.51h-.09l-.24.06a16.5 16.5 0 0 1-2.26-.73l-.15-.07a25 25 0 0 1-2.86-1.38l-.18-.09-.53-.32h-.08l-.41-.26-.07-.06a7 7 0 0 1-.83-.65l-.11-.1a8 8 0 0 1-.74-.8l-.09-.11a10 10 0 0 1-.65-.94l-.07-.13a11 11 0 0 1-.55-1.08 1 1 0 0 0 0-.13 11 11 0 0 1-.43-1.23.6.6 0 0 0 0-.12c-.12-.44-.23-.9-.32-1.39a.3.3 0 0 0 0-.09 15 15 0 0 1-.19-1.56c0-.56-.06-1.13 0-1.73.13-10 7.26-22.11 15.93-26.94.26-.15.52-.28.78-.41l.26-.13.51-.24.31-.13.46-.19.32-.11c.14 0 .28-.11.43-.15l.32-.1.41-.12.33-.08.4-.1.32-.06.38-.06z"/><path fill="#dee0e2" d="M57.47 22.062h2.57l.33.06.26.05.34.09.24.07.34.12.21.08.37.17.16.07.52.28h.13l.13.08.49.29.11.06.47.29q.734.461 1.41 1l.12.1a20 20 0 0 1 1.74 1.5l.57.58.08.08c.21.21.44.47.66.72l.27.32.17.2a1 1 0 0 1 .08.11q.616.755 1.15 1.57c.23.35.47.72.69 1.11l.19.35.08.15a22 22 0 0 1 1.45 3.31.4.4 0 0 0 0 .11c.1.31.2.63.28 1l.09.32c.06.25.14.57.22.93 0 .1 0 .2.07.31.07.35.14.76.2 1.2v.1a.15.15 0 0 0 0 .07c0 .15 0 .32.05.48s0 .22 0 .32v3.68c0 .29-.05.61-.09.93v.16l-.06.48v.09c-.1.63-.22 1.22-.32 1.68v.1c0 .04-.05.18-.07.26-.11.42-.21.82-.33 1.16l-.31.93c-.22.59-.48 1.23-.79 1.87-.07.13-.14.27-.2.4l-.07.12a19 19 0 0 1-1.68 2.77l-.52.69a1 1 0 0 0-.07.1c-.21.26-.53.65-.95 1.12l-.43.46-.08.07-.13.14-.26.25a2 2 0 0 1-.13.13l-.43.4-.11.1-.21.18-.13.38c-.33.28-.66.53-1 .77l-.13.09c-.31.23-.66.47-1 .67-.64.42-1.12.69-1.27.77l-.28.15-.39.21a16 16 0 0 1-1.61.73l-.28.13c-.6.24-1.42.52-2.06.7a25 25 0 0 1-2.88.6h-.35l-.5.05-.25.13h-.53a18.4 18.4 0 0 1-2.68 0h-.44l-.57-.06a17.5 17.5 0 0 1-2.78-.49h-.08l-.28-.07a15 15 0 0 1-2.19-.72l-.15-.06a27 27 0 0 1-2.77-1.34 1.4 1.4 0 0 1-.17-.09l-.51-.31h-.08l-.4-.26h-.06a7 7 0 0 1-.8-.63l-.11-.1a9 9 0 0 1-.72-.77l-.09-.11a10 10 0 0 1-.62-.91s0-.08-.07-.13a10 10 0 0 1-.53-1.05v-.12c-.15-.38-.3-.77-.42-1.19v-.12a13 13 0 0 1-.31-1.34v-.09c-.08-.48-.15-1-.19-1.5v-.06c0-.54-.06-1.09 0-1.67.13-9.73 7-21.4 15.42-26.08.25-.15.51-.28.76-.4a2 2 0 0 1 .25-.12l.5-.24.3-.12q.214-.105.44-.18l.31-.12.41-.14.32-.1.4-.12.31-.08.39-.08q.152-.045.31-.06l.37-.07z"/><path fill="#dfe1e3" d="M57.82 23.002h2.5q.163.015.32.06l.25.05.33.08.23.07.33.11.21.08.36.16.15.07.5.26h.07l.13.07.48.28.1.06.46.28q.71.46 1.36 1l.12.1q.886.672 1.68 1.45l.55.57.08.08c.2.2.42.45.64.7l.26.31.16.19.08.1c.22.27.62.79 1.11 1.52.22.34.45.7.66 1.07.05.1.12.22.19.34l.07.14a20.5 20.5 0 0 1 1.4 3.2v.11c.1.3.19.6.28.91l.09.31c.06.24.13.55.21.91l.06.29c.07.35.14.74.2 1.16v.17l.06.47v2.6c0 .42 0 .81-.05 1.16v.1c0 .29-.05.59-.08.9v.16c0 .23-.06.39-.07.46s0 .06 0 .09c-.1.6-.21 1.18-.32 1.62v.09c0 .1 0 .18-.06.26-.11.41-.21.79-.32 1.12s-.2.62-.31.9a18 18 0 0 1-.76 1.81l-.19.39-.07.12a19 19 0 0 1-1.38 2.85l-.5.67-.08.09c-.2.26-.51.64-.92 1.09l-.41.44-.07.07-.13.13-.25.25a.8.8 0 0 0-.13.13l-.42.38-.1.1-.21.17-.25.23c-.32.27-.63.51-.94.74l-.12.09c-.29.21-.64.45-.94.64-.62.41-1.09.67-1.23.75l-.28.14-.37.2a16 16 0 0 1-1.56.72l-.27.11a17 17 0 0 1-2 .68 24 24 0 0 1-2.8.59h-1.57a21 21 0 0 1-2.6 0h-.97a16 16 0 0 1-2.73-.41h-.08l-.27-.06a16 16 0 0 1-2.13-.7l-.13-.06a23 23 0 0 1-2.68-1.3 1.4 1.4 0 0 1-.17-.09l-.49-.3h-.08l-.38-.25h-.06a7.5 7.5 0 0 1-.78-.61l-.1-.1a8 8 0 0 1-.69-.74l-.09-.11a9 9 0 0 1-.6-.88 1 1 0 0 1-.07-.12 10 10 0 0 1-.51-1 .4.4 0 0 0 0-.11 11 11 0 0 1-.4-1.16v-.11a13 13 0 0 1-.3-1.3.3.3 0 0 1 0-.09 13 13 0 0 1-.18-1.45v-1.62c.12-9.41 6.8-20.69 14.91-25.23l.74-.39.24-.11.48-.23.29-.12.43-.17.3-.11.4-.15.3-.09.39-.11.3-.08.38-.08.3-.06.36-.06z"/><path fill="#e1e2e4" d="M58.18 23.932h2.98l.31.08.23.07.32.11.2.07.35.16.15.07.49.26h.07l.13.07.46.27.1.06.45.27a15 15 0 0 1 1.32.93l.11.1a16 16 0 0 1 1.62 1.41l.54.55.07.08c.2.19.41.43.62.67l.25.3.15.19.08.1c.21.26.6.77 1.06 1.47.22.33.44.67.65 1l.17.32s0 .1.08.14c.539.99.99 2.023 1.35 3.09v.11l.27.88c0 .1.06.2.08.3s.14.53.21.87l.06.28c.07.34.13.72.19 1.13a.3.3 0 0 0 0 .09v.07q0 .21.06.45v2.52c0 .4 0 .77-.05 1.11v.1c0 .28-.05.57-.08.87v.15l-.06.45v.08c-.09.59-.2 1.14-.3 1.57v.09l-.06.25c-.1.39-.2.76-.31 1.08s-.2.6-.3.87a18 18 0 0 1-.73 1.74c-.07.13-.13.26-.2.38l-.05.12a20.6 20.6 0 0 1-1.58 2.58c-.12.17-.29.39-.48.64a.4.4 0 0 0-.07.1c-.2.25-.5.61-.89 1l-.4.42-.07.07-.13.13-.24.24-.12.12-.4.37-.11.09-.19.18-.25.21c-.3.26-.61.5-.9.72l-.12.09c-.28.21-.62.44-.91.63-.6.38-1 .64-1.19.71l-.26.14-.37.2c-.43.23-1 .47-1.5.69l-.26.11a18 18 0 0 1-1.93.66 25 25 0 0 1-2.51.93h-.32l-.47.06h-.73a16 16 0 0 1-2.51 0h-.41l-.56.04a15 15 0 0 1-2.61-.47h-.08l-.26-.06a15 15 0 0 1-2-.67l-.13-.06a25 25 0 0 1-2.59-1.26l-.16-.09-.48-.29a.2.2 0 0 0-.07-.05l-.37-.24h-.06a6 6 0 0 1-.74-.6l-.1-.09a6.6 6.6 0 0 1-.67-.72.4.4 0 0 1-.08-.11 6 6 0 0 1-.58-.84 1 1 0 0 1-.07-.12 9 9 0 0 1-.49-1 1 1 0 0 0 0-.11c-.14-.36-.27-.73-.39-1.12v-.1a12 12 0 0 1-.28-1.26v-.09c-.07-.45-.13-.91-.17-1.4v-1.56c.13-9.09 6.58-20 14.42-24.37l.71-.38.23-.11.47-.22.27-.11.42-.17.29-.11.38-.14.3-.09.37-.11.3-.07.35-.08.3-.06.34-.06z"/><path fill="#e2e3e5" d="M58.54 24.872h2.9l.31.08q.106.024.21.06l.31.11.2.07q.175.063.34.15l.14.06.48.24h.11l.12.07.45.26.09.06.43.27q.664.411 1.28.89l.11.1a17 17 0 0 1 1.56 1.36l.52.54.07.08q.314.31.59.65.129.138.24.29c0 .06.1.12.14.17a1 1 0 0 0 .08.09c.2.26.58.75 1 1.42.21.32.43.65.62 1l.17.32.07.13a20 20 0 0 1 1.3 3v.1c.09.28.18.56.26.85 0 .1.06.19.08.29s.13.51.2.84l.06.28c.06.32.12.69.18 1.08v.09a.13.13 0 0 1 0 .06v4.04c0 .27 0 .55-.08.84v.11c0 .21-.05.37-.06.43s0 0 0 .08c-.09.57-.2 1.1-.3 1.51v.42c0 .09-.05.16-.07.24-.09.38-.19.73-.29 1s-.19.58-.29.84c-.2.53-.43 1.11-.71 1.68-.06.13-.13.25-.19.37v.11q-.663 1.304-1.52 2.49c-.12.16-.28.38-.47.62l-.07.09c-.18.24-.48.59-.86 1-.13.15-.25.29-.38.42l-.07.06-.12.13a3 3 0 0 0-.23.23l-.12.11a7 7 0 0 1-.39.36l-.1.09-.19.17-.23.21c-.3.25-.6.47-.88.69l-.11.08c-.27.21-.6.43-.88.61-.58.37-1 .62-1.15.69l-.25.13-.35.2c-.42.22-.94.45-1.45.66l-.25.11q-.91.375-1.86.63-1.288.36-2.61.56h-1l-.47.05q-1.214.083-2.43 0h-.91a15 15 0 0 1-2.51-.45h-.08l-.25-.06a14 14 0 0 1-2-.66l-.13-.05a21 21 0 0 1-2.49-1.23l-.15-.08-.47-.29h-.07l-.35-.23h-.06a6.5 6.5 0 0 1-.72-.58l-.1-.09a7 7 0 0 1-.64-.69 1 1 0 0 0-.08-.11 8 8 0 0 1-.56-.81l-.06-.12a8 8 0 0 1-.47-.94v-.11a11 11 0 0 1-.29-1.13v-.1c-.11-.39-.2-.79-.28-1.21v-.08c-.07-.44-.13-.89-.16-1.36v-1.55c.13-8.77 6.35-19.28 13.91-23.51l.69-.37.22-.1.45-.22.27-.11.4-.16.28-.1.22-.13.28-.08.36-.11.29-.07.34-.08.28-.06.34-.05z"/><path fill="#e3e4e6" d="M58.89 25.812h2a2 2 0 0 1 .24 0h.52l.3.08.21.06.3.1.19.07.33.14.13.07.46.24h.07l.12.06.43.25.09.06.42.26a13 13 0 0 1 1.23.87l.11.08a16 16 0 0 1 1.5 1.33l.5.52.07.07c.18.18.38.41.57.63l.23.28.14.17.08.09c.19.24.55.71 1 1.36.2.31.41.63.59 1l.17.3a.5.5 0 0 0 .07.13 18 18 0 0 1 1.38 3.05v.1c.09.27.17.54.25.82q.028.137.07.27c.05.22.12.5.19.82a2 2 0 0 1 .05.26c.07.31.12.66.18 1v.08a.13.13 0 0 1 0 .06c0 .14 0 .28.05.42v3.43a8 8 0 0 1-.08.81v.14l-.06.42v.08c-.08.54-.19 1.06-.28 1.45v.09l-.06.23q-.12.507-.29 1c-.08.24-.18.56-.27.81a15 15 0 0 1-.69 1.62l-.18.35-.05.11a18 18 0 0 1-1.47 2.4c-.11.16-.27.37-.45.6l-.06.09c-.18.23-.46.57-.83 1-.12.14-.25.27-.37.4l-.07.06-.11.12-.23.22-.11.12-.37.34-.1.09-.18.16-.23.2-.84.67-.11.08c-.26.19-.57.41-.85.58-.55.36-1 .6-1.1.67l-.25.13-.34.18a14 14 0 0 1-1.39.64l-.25.11a15 15 0 0 1-1.79.61 22 22 0 0 1-2.51.54h-1.42a17 17 0 0 1-2.35 0h-.37l-.5-.06a14 14 0 0 1-2.43-.43h-.07l-.24-.06a13 13 0 0 1-1.91-.63l-.12-.05a23 23 0 0 1-2.41-.96l-.14-.08-.45-.28h-.07l-.34-.23a7 7 0 0 1-.69-.56l-.1-.09a7 7 0 0 1-.61-.67.4.4 0 0 1-.08-.1 8 8 0 0 1-.54-.79l-.06-.1a9 9 0 0 1-.45-.91v-.11c-.13-.33-.25-.67-.36-1a.3.3 0 0 1 0-.09 11 11 0 0 1-.27-1.17v-.08c-.07-.42-.13-.85-.16-1.3a14 14 0 0 1 0-1.45c.12-8.45 6.12-18.58 13.41-22.66l.66-.35.21-.1.44-.2.25-.11.39-.16.27-.1.36-.13.27-.08.35-.1.27-.07.33-.08.27-.05.33-.06z"/><path fill="#e4e5e7" d="M59.25 26.742h2.19l.29.05h.22l.28.07.21.06.28.1.19.06.31.14.12.14.44.22h.06l.12.06.41.24.1.06.4.25a11 11 0 0 1 1.18.84l.1.08a15 15 0 0 1 1.46 1.29l.47.5.07.07.55.61.22.26.14.17.07.09q.535.634 1 1.32c.19.29.39.6.57.93 0 .08.1.18.15.29a1 1 0 0 1 .07.12 18 18 0 0 1 1.19 2.77v.1c.09.25.17.52.24.79q.028.137.07.27l.18.78c0 .08 0 .17.05.25.06.3.12.64.17 1v2.92c0 .36 0 .69-.05 1v.09c0 .25 0 .51-.07.78v.14c0 .19-.05.34-.06.4s0 0 0 .07c-.09.53-.19 1-.28 1.4v.08a2 2 0 0 1-.06.22 16 16 0 0 1-.55 1.78 14 14 0 0 1-.66 1.56 4 4 0 0 1-.17.34v.1a16.3 16.3 0 0 1-1.41 2.31l-.43.58-.07.08c-.17.22-.44.55-.79.94l-.36.38-.06.06-.12.12-.21.21-.11.11c-.13.12-.24.23-.36.33l-.09.09-.18.15-.22.19c-.27.24-.55.45-.81.65l-.11.08c-.25.19-.55.39-.81.56-.54.35-.94.58-1.07.65l-.23.12-.33.18c-.39.21-.87.42-1.34.62l-.24.1a16 16 0 0 1-1.72.59 22 22 0 0 1-2.42.52h-.93a3 3 0 0 1-.44 0 15.5 15.5 0 0 1-2.26 0h-.85a14 14 0 0 1-2.33-.42h-.07l-.24-.06a13 13 0 0 1-1.83-.61l-.12-.06a20 20 0 0 1-2.31-1.14l-.14-.08-.43-.27h-.07l-.32-.22h-.05a7 7 0 0 1-.67-.54l-.09-.09a6 6 0 0 1-.59-.64l-.08-.1a7 7 0 0 1-.51-.76l-.06-.1a8 8 0 0 1-.43-.88v-.1a10 10 0 0 1-.34-1v-.1c-.1-.36-.18-.73-.25-1.12a.2.2 0 0 1 0-.08c-.07-.4-.12-.82-.16-1.25v-1.39c.13-8.13 5.9-17.87 12.91-21.8l.64-.34.2-.1.42-.19.25-.11.37-.15.26-.1.34-.12.27-.08.33-.1.26-.07.32-.07.26-.05H59z"/><path fill="#e5e7e8" d="M59.61 27.682h2.11l.28.05h.21l.27.07.2.06q.143.036.28.09l.18.06.3.14a1 1 0 0 1 .13.06l.43.22h.06l.11.06.4.24.09.05.38.24q.597.375 1.15.81l.09.08q.74.577 1.4 1.24l.46.49.06.07c.17.17.35.37.53.58l.21.26.13.16.07.08c.18.23.51.67.91 1.27.18.28.37.58.54.89l.15.28.07.12q.684 1.283 1.15 2.66v.09c.08.25.16.5.23.76l.06.25c.06.2.12.46.18.75 0 .08 0 .16.05.25 0 .28.11.61.16 1v.64a2 2 0 0 1 0 .25v1.64q.008.135 0 .27v1.08c0 .24 0 .5-.07.75v.59c-.08.5-.17 1-.26 1.34v.08c0 .08 0 .15-.05.21-.09.34-.18.66-.27.93s-.17.52-.26.75a15 15 0 0 1-.63 1.5c-.06.11-.11.22-.17.32l-.05.1a15.5 15.5 0 0 1-1.36 2.22c-.1.15-.24.34-.41.55l-.06.08c-.17.22-.43.53-.77.91l-.34.37h-.06l-.11.11-.21.21-.1.1-.35.32-.09.08-.17.15-.21.19c-.26.22-.52.42-.77.61l-.1.08c-.24.18-.53.37-.78.54-.52.33-.9.55-1 .61l-.23.12-.31.17c-.38.2-.84.41-1.29.6l-.23.1a15 15 0 0 1-1.65.56 19 19 0 0 1-2.33.5h-.28l-.41.05h-.64a14 14 0 0 1-2.17 0h-.35l-.46-.05a13 13 0 0 1-2.25-.4h-.29q-.901-.24-1.76-.6h-.12a20 20 0 0 1-2.21-1.1l-.14-.08-.41-.26h-.06l-.32-.21h-.05a6 6 0 0 1-.63-.53l-.06-.2a6 6 0 0 1-.57-.62l-.07-.09a6 6 0 0 1-.49-.73l-.06-.09c-.15-.27-.29-.55-.42-.85v-.1c-.12-.3-.23-.62-.33-1v-.09c-.1-.35-.18-.71-.25-1.08a.2.2 0 0 0 0-.08c-.06-.38-.11-.78-.14-1.2v-1.34c.01-7.73 5.55-17.13 12.33-20.9q.3-.18.6-.33l.2-.09.4-.19.24-.1.36-.15.25-.09.33-.12.25-.08.32-.09.25-.07.31-.07.25-.05h.3z"/><path fill="#e6e8e9" d="M59.96 28.612h2.02l.27.05h.2l.27.06.19.06.27.09a1 1 0 0 1 .16.06l.3.12.12.06.41.21h.06l.11.05.38.23h.09l.37.23q.571.36 1.1.78l.09.08q.713.551 1.34 1.2l.44.47.06.07c.16.16.33.36.5.56l.21.24.12.16a.3.3 0 0 1 .07.08q.463.582.86 1.21c.18.27.36.56.53.86l.14.26.06.12c.43.82.794 1.673 1.09 2.55v.09c.07.24.15.48.21.73l.06.25c0 .19.11.43.17.72 0 .07 0 .15.05.23q.07.42.15.93a.2.2 0 0 0 0 .07v2.25a2 2 0 0 1 0 .25v1c0 .23 0 .48-.07.72v.13l-.06.36v.07c-.08.49-.17.94-.26 1.3v.07a2 2 0 0 0-.05.2c-.09.33-.17.63-.26.89s-.17.5-.25.72c-.17.45-.37 1-.61 1.44l-.16.31v.09a15.5 15.5 0 0 1-1.3 2.13c-.1.14-.24.33-.4.53l-.06.08c-.16.21-.41.51-.73.86q-.17.19-.33.36h-.06l-.1.11-.2.2a.5.5 0 0 0-.1.1l-.33.3-.09.08-.16.14-.2.18c-.26.22-.51.41-.75.59l-.1.07c-.23.17-.51.36-.75.52-.49.32-.86.53-1 .59l-.22.12-.3.16c-.35.19-.8.39-1.23.57l-.22.09q-.778.325-1.59.55a19 19 0 0 1-2.15.74h-1.27q-1.04.075-2.08 0h-.78a12.5 12.5 0 0 1-2.16-.39h-.07l-.21-.05a12.4 12.4 0 0 1-1.69-.57h-.11a17.5 17.5 0 0 1-2.13-1.07l-.13-.07s-.16-.1-.39-.25h-.06l-.3-.2a8 8 0 0 1-.61-.51.6.6 0 0 1-.08-.08 6 6 0 0 1-.55-.59l-.06-.09a7 7 0 0 1-.48-.7.4.4 0 0 0 0-.09c-.14-.26-.28-.53-.4-.81a.4.4 0 0 0 0-.09c-.11-.3-.22-.6-.31-.92v-.09a10 10 0 0 1-.23-1v-.07c-.06-.37-.11-.76-.14-1.16v-1.29c.13-7.48 5.44-16.45 11.9-20.08l.58-.31.19-.09.39-.18.23-.1.34-.14.24-.09.31-.11.25-.08.3-.09.25-.06.29-.07.24-.05h.29z"/><path fill="#e7e9ea" d="M60.34 29.552h1.96l.26.05h.2l.25.07h.18l.26.09.16.06.29.12.12.05.39.2h.15l.38.22h.08l.36.22q.547.345 1.05.75l.09.08a12 12 0 0 1 1.28 1.16c.13.13.28.29.42.45l.12.29c.15.15.32.34.48.53l.19.24.12.14.06.08c.16.21.46.61.82 1.16.17.26.34.53.5.82l.14.26.06.11a16 16 0 0 1 1 2.44v.09c.07.22.14.45.2.69l.06.24c0 .18.1.42.16.69v.22c.05.27.1.57.14.89v.43a2 2 0 0 1 0 .23v.39a2 2 0 0 1 0 .23v.89a2 2 0 0 1 0 .25v.95c0 .22 0 .46-.07.69v.12c0 .17 0 .3-.05.35a.2.2 0 0 0 0 .07c-.08.46-.17.9-.25 1.24v.07a1 1 0 0 1 0 .19 14 14 0 0 1-.48 1.54c-.17.43-.35.91-.59 1.38l-.15.29-.05.09a15 15 0 0 1-1.24 2l-.39.51-.05.07c-.16.2-.4.49-.71.83-.1.12-.21.23-.31.34l-.06.05-.1.11-.19.18a.5.5 0 0 1-.1.1l-.31.29a.6.6 0 0 0-.08.08l-.16.13a1.5 1.5 0 0 1-.19.17c-.24.21-.48.39-.72.57l-.09.06c-.22.17-.49.35-.72.5-.47.31-.82.51-.93.57l-.21.11-.29.16c-.34.18-.77.37-1.18.54l-.21.09a16 16 0 0 1-1.52.53 19 19 0 0 1-2.15.46H57.5q-1 .075-2 0h-.75a11.7 11.7 0 0 1-2.07-.38h-.26a14 14 0 0 1-1.63-.55h-.1a17 17 0 0 1-2-1l-.13-.07-.37-.24h-.06l-.29-.2a7 7 0 0 1-.59-.49l-.07-.08a4.6 4.6 0 0 1-.52-.56l-.07-.09a7 7 0 0 1-.45-.67v-.09a6 6 0 0 1-.38-.77v-.09a8 8 0 0 1-.31-.88v-.08a10 10 0 0 1-.22-1 .2.2 0 0 1 0-.07c-.06-.36-.1-.72-.13-1.11v-1.23c.13-7.16 5.22-15.75 11.4-19.22l.56-.3.19-.09.36-.17.22-.09.33-.14.23-.08.3-.11.23-.07.3-.09.23-.06.28-.07h.23l.27-.05z"/><path fill="#e8eaeb" d="M60.68 30.482H63l.24.06h.18l.25.09h.15l.28.12h.11l.38.2h.05l.09.06.36.2.08.05.34.21a9 9 0 0 1 1 .72l.09.08a10 10 0 0 1 1.22 1.11l.4.44.06.06.46.52.18.22.11.14.05.07c.16.2.45.59.79 1.11q.256.383.47.79l.13.24.06.11a14 14 0 0 1 1 2.33v.08c.07.22.13.44.19.67l.06.22.15.66v.22c.05.25.09.53.13.84v.46a1.5 1.5 0 0 0 0 .22v2.59c0 .21 0 .44-.06.66v.52c-.07.44-.16.85-.24 1.18v.25c-.08.3-.15.57-.24.81s-.15.46-.22.66a13 13 0 0 1-.57 1.31q-.06.15-.14.29v.09a15.6 15.6 0 0 1-1.2 2l-.36.48-.06.07c-.15.19-.37.46-.67.79l-.3.32h-.05l-.1.1-.18.18-.1.09-.3.28a.3.3 0 0 1-.08.07 1 1 0 0 1-.14.13l-.19.17-.68.54-.09.07c-.21.16-.46.33-.69.47-.44.29-.78.49-.89.55l-.2.1-.27.15a12 12 0 0 1-1.13.52l-.2.09a15 15 0 0 1-1.45.5 16 16 0 0 1-2.06.45h-1.17q-.96.075-1.92 0h-.71a11.4 11.4 0 0 1-2-.36h-.26a10.5 10.5 0 0 1-1.55-.53h-.1a17 17 0 0 1-1.94-1l-.12-.07s-.14-.09-.35-.23h-.06l-.27-.19a6 6 0 0 1-.55-.46l-.08-.07a7 7 0 0 1-.49-.55l-.06-.08a6 6 0 0 1-.43-.64 1 1 0 0 0-.05-.08c-.13-.24-.25-.48-.36-.74v-.09a8 8 0 0 1-.29-.84.2.2 0 0 1 0-.08 7 7 0 0 1-.21-.94.2.2 0 0 1 0-.07c-.06-.34-.1-.69-.13-1a11 11 0 0 1 0-1.18c.13-6.84 5-15 10.9-18.36l.53-.29.18-.08.35-.17.21-.09.31-.13.22-.08.29-.1.22-.07.28-.09h.22l.27-.07h.22l.26-.05z"/><path fill="#eaebec" d="M61.03 31.422h2.23l.24.06h.17l.23.08h.15l.26.12h.11l.37.18.09.05.46.45h.07l.33.2c.3.2.69.46 1 .69l.08.08a11 11 0 0 1 1.17 1.07l.38.42.05.06c.13.14.29.32.43.49s.12.14.18.21l.11.13v.07c.15.19.42.55.75 1.05.15.24.31.49.45.75l.12.24a.3.3 0 0 1 .05.1 15 15 0 0 1 .94 2.22v.08q.1.31.18.63.035.109.05.22.07.261.15.63a2 2 0 0 0 0 .2c0 .24.09.51.12.81a.15.15 0 0 1 0 .07v.32a2 2 0 0 1 0 .22v.35a2 2 0 0 0 0 .21v1.9c0 .2 0 .42-.06.63v.4a.13.13 0 0 0 0 .06c-.07.42-.16.82-.23 1.13v.24c-.08.28-.15.54-.23.77s-.14.44-.22.63c-.15.39-.32.83-.53 1.25l-.14.27v.09a15 15 0 0 1-1.14 1.86l-.35.46-.05.06c-.14.18-.36.45-.64.76l-.29.31v.05l-.09.09-.18.17-.09.09-.28.26-.08.07-.14.13-.18.15c-.22.19-.44.36-.65.52l-.08.06-.65.46c-.43.27-.75.46-.86.51a1 1 0 0 1-.19.1l-.26.15c-.31.17-.7.34-1.07.5l-.19.08a13 13 0 0 1-1.39.48 16 16 0 0 1-2 .43h-1.12a14 14 0 0 1-1.83 0h-.69a11.5 11.5 0 0 1-1.89-.35h-.24q-.759-.201-1.48-.51h-.09a14 14 0 0 1-1.85-1l-.11-.06-.35-.22h-.05l-.26-.18a4.4 4.4 0 0 1-.53-.45l-.07-.06c-.16-.16-.32-.34-.47-.52l-.06-.08a5 5 0 0 1-.4-.61v-.08a7 7 0 0 1-.34-.71v-.08a6 6 0 0 1-.28-.8v-.07c-.08-.29-.14-.59-.2-.9a.2.2 0 0 0 0-.07c0-.32-.09-.65-.11-1v-1.12c.13-6.53 4.76-14.33 10.39-17.51l.51-.27.17-.08.33-.16.2-.08.3-.13.2-.07.28-.1.21-.07.27-.08h.21l.26-.07h.46z"/><path fill="#ebeced" d="M61.39 32.362h2.52l.23.08.14.05.25.1h.11l.34.18h.08q.172.084.33.19h.07l.32.19q.482.305.92.67l.08.06q.587.465 1.11 1l.36.41.05.06.41.46.17.21.1.13.05.07c.14.18.4.53.71 1 .14.22.29.46.42.71q.066.107.12.22a1 1 0 0 1 .05.1q.532 1.024.89 2.12v.08q.09.291.18.6.035.098.05.2c0 .16.09.37.14.6v.19q.081.383.12.77a.15.15 0 0 1 0 .07v3.31c0 .19 0 .39-.07.59v.1c0 .15 0 .26-.05.31v.06c-.07.4-.14.77-.22 1.07v.04a1 1 0 0 0 0 .17c-.08.27-.14.52-.22.73s-.14.41-.21.6q-.225.608-.51 1.19c0 .09-.09.18-.13.26v.08a13 13 0 0 1-.96 1.75l-.33.43v.07c-.13.17-.34.42-.61.72l-.27.29h-.05l-.09.08-.16.17-.09.08-.27.25a.5.5 0 0 1-.13.13l-.13.12-.17.14c-.21.18-.42.34-.62.5l-.08.06-.62.43c-.41.26-.71.44-.81.49l-.18.1-.25.13c-.3.16-.67.33-1 .48l-.18.08a11 11 0 0 1-1.31.45 14 14 0 0 1-1.87.42h-1.07a11.4 11.4 0 0 1-1.75 0h-.65a9.3 9.3 0 0 1-1.8-.33h-.18a10 10 0 0 1-1.41-.48h-.09a13 13 0 0 1-1.76-.91l-.1-.06-.33-.22-.24-.17a4 4 0 0 1-.5-.43l-.07-.06a5 5 0 0 1-.44-.5l-.06-.07a5 5 0 0 1-.39-.58.3.3 0 0 0 0-.08 4.6 4.6 0 0 1-.32-.67v-.08a6 6 0 0 1-.26-.76.2.2 0 0 1 0-.07 8 8 0 0 1-.19-.85v-.06c-.05-.31-.09-.63-.11-1v-1.06c.12-6.21 4.53-13.63 9.89-16.65l.48-.26.16-.08.32-.15.19-.08.28-.12.19-.07.27-.09.2-.07.25-.07.2-.06h.68z"/><path fill="#ecedee" d="M61.75 33.292h2.04l.21.05h.16l.22.07h.13l.24.1h.1l.33.16h.13l.32.18h.06l.3.18a8 8 0 0 1 .88.64l.08.06a9.5 9.5 0 0 1 1 1l.39.63.05.06c.12.13.26.28.39.44l.15.19.1.12.05.06c.13.18.38.51.66 1 .14.21.28.44.41.67l.11.21a1 1 0 0 1 0 .1q.499.966.83 2v.07c.06.19.12.38.17.57v.2c0 .15.08.34.12.56a1 1 0 0 1 0 .19c0 .21.08.46.11.72v.07a3 3 0 0 1 0 .29 1 1 0 0 1 0 .19v.32a1 1 0 0 1 0 .19v1.78c0 .18 0 .37-.07.56v.39c-.07.38-.14.74-.21 1v.06c0 .06 0 .11-.05.16-.06.25-.13.49-.2.7s-.13.38-.2.56a11 11 0 0 1-.49 1.13l-.12.25v.07a12.4 12.4 0 0 1-1 1.68l-.32.41v.06c-.13.17-.33.4-.58.68l-.26.28h-.05l-.08.08-.16.15a.3.3 0 0 1-.08.08l-.26.25-.06.06a.7.7 0 0 0-.13.11l-.16.14c-.2.17-.4.32-.59.47h-.08c-.18.14-.4.29-.59.41-.38.25-.67.42-.77.47l-.17.09-.23.13c-.29.15-.64.31-1 .45l-.17.08q-.609.25-1.24.43a15 15 0 0 1-1.78.4l-.05.21h-.89a13 13 0 0 1-1.66 0h-.62a10 10 0 0 1-1.72-.31h-.22a9 9 0 0 1-1.33-.47h-.09a13 13 0 0 1-1.66-.87l-.1-.06-.31-.21-.23-.17a4.5 4.5 0 0 1-.47-.41l-.06-.06a5 5 0 0 1-.42-.47v-.07a4.4 4.4 0 0 1-.37-.55v-.07c-.11-.21-.21-.42-.31-.64v-.07a5 5 0 0 1-.25-.73v-.06a7 7 0 0 1-.17-.82 8 8 0 0 1-.1-.91v-1c.13-5.89 4.31-12.92 9.39-15.79l.46-.25.15-.07.3-.15.18-.07.27-.12.18-.07.26-.09.19-.06.24-.07h.19l.23-.05h.41z"/><path fill="#edeeef" d="M62.1 34.232h1.98l.21.05h.14l.21.07h.13l.23.1h.09l.32.16h.08l.3.17h.07l.28.17q.438.275.83.61l.07.06a7 7 0 0 1 1 .95l.32.37.05.06c.11.12.24.26.36.41l.15.19.09.11c.12.17.35.48.62.91.13.2.26.41.38.64 0 .06.07.13.1.2a1 1 0 0 0 .05.08q.47.92.79 1.9v.07q.08.261.15.54v.18l.11.53q.008.09 0 .18c0 .2.07.44.1.69v2.63l-.06.53v.09a2 2 0 0 1 0 .28c-.06.36-.13.7-.2 1q.004.075 0 .15c-.06.24-.13.47-.19.67l-.19.53c-.13.34-.28.71-.46 1.07l-.12.23v.07a11.6 11.6 0 0 1-1 1.59c-.07.1-.17.24-.29.39v.06c-.12.15-.31.38-.55.64l-.24.27a.3.3 0 0 0-.08.08l-.15.14-.08.08-.24.23h-.07l-.12.11-.15.13c-.19.16-.37.31-.55.44l-.07.06c-.17.13-.38.27-.56.39-.36.24-.63.39-.72.45l-.16.08-.23.13c-.27.14-.6.29-.92.42l-.16.07q-.58.242-1.18.42a15 15 0 0 1-1.69.38h-.96a9.3 9.3 0 0 1-1.58 0h-.59a8 8 0 0 1-1.62-.3h-.21a9.5 9.5 0 0 1-1.26-.45h-.08a13 13 0 0 1-1.58-.83l-.09-.06s-.12-.08-.29-.2l-.22-.16a5 5 0 0 1-.44-.39l-.06-.06c-.14-.14-.27-.29-.4-.44a.2.2 0 0 0 0-.07c-.12-.16-.23-.34-.34-.52v-.07c-.1-.19-.2-.39-.29-.6a.2.2 0 0 1 0-.07 5 5 0 0 1-.23-.68v-.07c-.07-.24-.12-.5-.17-.77v-.05a8 8 0 0 1-.1-.86v-.95c.13-5.57 4.08-12.22 8.89-14.94l.43-.23.14-.07.29-.14.17-.07.25-.1.17-.07.24-.09h.18l.23-.07h.18l.22-.05h.39z"/><path fill="#eeeff0" d="M62.46 35.162h1.86l.19.05h.14l.2.06h.12l.22.09h.09l.3.14h.07l.29.16H66l.27.17q.41.264.79.57l.06.06q.509.41.94.9l.31.36.34.4.14.17a1 1 0 0 1 .08.11v.06q.318.41.59.85c.12.19.24.39.35.6l.1.19v.08q.436.866.73 1.79v.06c0 .17.1.34.14.51 0 .06 0 .12.05.17s.07.31.1.51v.16c0 .2.07.42.1.65v.78a1 1 0 0 0 0 .17v1.53l.25.85v.35c-.06.33-.13.65-.19.9a1 1 0 0 0 0 .14c-.06.23-.12.44-.19.63s-.12.34-.17.5c-.13.32-.27.67-.44 1a1.5 1.5 0 0 0-.11.22v.06a11 11 0 0 1-.92 1.5l-.28.37c-.12.15-.29.36-.52.61l-.23.25-.08.07a1 1 0 0 1-.14.14.5.5 0 0 1-.07.07l-.23.22-.06.05-.11.1-.15.13c-.17.15-.35.28-.52.41h-.07l-.52.36c-.34.23-.6.37-.69.42l-.15.08-.21.12c-.25.14-.57.28-.87.41l-.15.06q-.544.226-1.11.39a12 12 0 0 1-1.6.37h-.91q-.75.053-1.5 0h-.55a8 8 0 0 1-1.53-.29h-.15a8 8 0 0 1-1.19-.42h-.08a12 12 0 0 1-1.48-.8l-.09-.05-.27-.19-.21-.15a4 4 0 0 1-.42-.38h-.06a5 5 0 0 1-.37-.42v-.06a4 4 0 0 1-.32-.49.3.3 0 0 1 0-.07 5 5 0 0 1-.27-.56.3.3 0 0 1 0-.07 6 6 0 0 1-.22-.64v-.06a6 6 0 0 1-.16-.73c0-.26-.07-.52-.09-.8v-.9c.13-5.25 3.85-11.51 8.38-14.08l.41-.22.13-.07.27-.12.16-.07.24-.1.16-.07.23-.08h.17l.21-.07h.17l.21-.05h.36z"/><path fill="#eff0f1" d="M62.82 36.102h2.08l.18.06h.12l.21.08h.08l.28.14h.07l.27.15h.06l.25.16q.394.245.75.54l.06.06q.481.394.89.86c.08.11.18.22.28.34v.05l.32.37.13.17.08.1v.05c.11.15.31.43.55.8.11.18.23.37.33.57l.09.18v.07q.418.808.68 1.68v.06c.05.16.09.32.13.48a1 1 0 0 1 0 .16c0 .13.07.29.1.47v.16c0 .18.06.38.09.61a2 2 0 0 1 0 .25v1.97l-.06.47v.32c-.05.32-.12.62-.18.85v.13c-.06.21-.12.41-.18.59s-.11.32-.17.47a9 9 0 0 1-.41.95c0 .07-.07.13-.1.2v.06q-.376.738-.86 1.41l-.27.35-.48.57-.22.23-.07.07-.13.13-.07.06-.22.21h-.05l-.11.09-.13.12-.49.39h-.06c-.15.12-.33.24-.49.35-.32.21-.56.34-.65.39l-.14.08-.2.11a8 8 0 0 1-.81.38l-.14.06c-.31.13-.72.27-1 .37q-.744.22-1.51.34h-.86a9.5 9.5 0 0 1-1.41 0h-.53a9 9 0 0 1-1.44-.27h-.15a7.4 7.4 0 0 1-1.11-.41h-.08a10 10 0 0 1-1.38-.76h-.09a2 2 0 0 0-.25-.18l-.19-.14a4 4 0 0 1-.38-.36h-.06a4 4 0 0 1-.34-.39l-.05-.06-.3-.46v-.06a5 5 0 0 1-.25-.54.14.14 0 0 1 0-.06 4 4 0 0 1-.2-.6v-.06a7 7 0 0 1-.14-.68c0-.25-.06-.5-.08-.76v-.84a17.29 17.29 0 0 1 7.88-13.23l.39-.2.12-.06c.09 0 .17-.09.26-.12l.15-.07.22-.09.15-.06.21-.08.16-.05.2-.06h.16l.2-.05h.34z"/><path fill="#f0f1f2" d="M63.17 37.032h2.26l.19.08h.09l.27.13h.07l.25.15h.06l.24.15a7 7 0 0 1 .7.51l.06.06q.452.372.83.82l.26.32v.05l.29.35q.064.072.12.15l.08.09c.1.14.29.4.51.76q.165.257.3.53.051.077.09.16v.07q.382.759.63 1.57v.06q.06.21.12.45a1 1 0 0 1 0 .15c0 .12.06.27.09.44v.15c0 .17 0 .36.08.57v.38q.007.12 0 .24a1 1 0 0 1 0 .16v1.29c0 .14 0 .29-.06.44v.3c0 .29-.12.57-.17.79v.05a.6.6 0 0 1 0 .12 5 5 0 0 1-.16.55l-.16.44a8 8 0 0 1-.39.88l-.09.2a9 9 0 0 1-.81 1.32l-.25.32c-.1.13-.26.32-.46.54l-.2.21-.06.06a.7.7 0 0 1-.13.12l-.06.07-.2.19h-.06l-.09.09-.07.8c-.16.14-.31.26-.46.37h-.06l-.46.32-.6.37-.13.07-.19.1a8 8 0 0 1-.76.36l-.13.06a12 12 0 0 1-2.39.67h-.81a8.5 8.5 0 0 1-1.33 0h-.49a7.5 7.5 0 0 1-1.35-.26h-.14a7 7 0 0 1-1.05-.38h-.06a10 10 0 0 1-1.3-.72l-.08-.05-.23-.17-.18-.14c-.13-.11-.24-.22-.36-.34v-.05a3 3 0 0 1-.32-.37v-.05c-.1-.14-.19-.28-.28-.43v-.06a6 6 0 0 1-.23-.5.14.14 0 0 1 0-.06 5 5 0 0 1-.19-.56c-.06-.21-.1-.42-.14-.64 0-.23-.06-.46-.08-.71v-.78a16.2 16.2 0 0 1 7.38-12.37l.36-.19.11-.06.24-.11.14-.06.21-.09.14-.06.2-.07.15-.05.19-.06h.65z"/><path fill="#f1f2f3" d="M63.53 37.972h2.13l.18.07h.08l.26.12h.06l.24.14h.05l.23.14q.344.22.65.49l.06.05a5 5 0 0 1 1.01 1.09l.27.32.11.14.07.09v.05c.09.13.26.37.47.7.09.15.19.32.28.49s0 .1.07.16v.06q.35.712.58 1.47c0 .14.08.28.11.42v.15l.08.41v.13c0 .16.05.34.07.53v.29a.7.7 0 0 1 0 .14v1.57c0 .13 0 .27-.05.41v.28a7 7 0 0 1-.16.74v.12c0 .04-.1.36-.15.51s-.1.28-.15.41-.22.54-.36.82a2 2 0 0 1-.1.18v.06q-.341.635-.76 1.22l-.23.3c-.09.12-.24.29-.42.49l-.19.21-.06.06-.11.11-.06.06-.19.18h-.05l-.09.08-.12.11-.43.34-.06.05-.43.3c-.27.18-.48.3-.56.35l-.12.06-.17.1c-.21.11-.46.23-.71.33l-.12.06c-.27.11-.63.24-.91.32a10 10 0 0 1-1.32.31h-.76a7.3 7.3 0 0 1-1.24 0h-.47a7 7 0 0 1-1.26-.25h-.12a7 7 0 0 1-1-.36h-.06a8 8 0 0 1-1.2-.69h-.08a2 2 0 0 0-.21-.16l-.16-.13c-.12-.1-.23-.21-.34-.32v-.05c-.1-.1-.2-.22-.3-.34v-.05c-.09-.13-.18-.26-.26-.4v-.06a3 3 0 0 1-.21-.46.2.2 0 0 1 0-.05 3.3 3.3 0 0 1-.17-.53c0-.19-.09-.38-.12-.59a5 5 0 0 1-.07-.66 6 6 0 0 1 0-.73 15.1 15.1 0 0 1 6.87-11.51 3 3 0 0 1 .34-.18l.11-.06.21-.1.13-.06.2-.08.13-.05.19-.07h.91z"/><path fill="#f3f3f4" d="M63.88 38.912h1.98l.17.06h.07l.24.12h.11l.22.12.21.13q.326.209.62.46h.05q.391.335.71.74l.23.3.25.3q.054.063.1.13l.06.08c.08.12.24.35.42.65a5 5 0 0 1 .26.46l.07.14v.06c.289.541.52 1.111.69 1.7 0 .13.07.25.1.39v.13c0 .1 0 .23.07.38a.5.5 0 0 1 0 .13c0 .14.05.31.07.49v.07a1 1 0 0 1 0 .19v2.23c-.05.25-.1.49-.15.68v.11a4 4 0 0 1-.15.47l-.13.38c-.1.24-.21.5-.34.76l-.09.17a10 10 0 0 1-.71 1.13l-.21.28-.4.46-.17.19-.06.06-.1.1-.06.05-.18.17-.09.07-.1.1-.4.32-.39.27c-.26.17-.45.28-.52.32l-.12.07-.16.08a7 7 0 0 1-.65.31l-.12.06c-.24.1-.57.22-.84.3q-.601.184-1.22.29h-.71a7.5 7.5 0 0 1-1.16 0h-.43a6.4 6.4 0 0 1-1.17-.23h-.11a4.7 4.7 0 0 1-.91-.34h-.06a7 7 0 0 1-1.11-.64h-.06l-.21-.15-.15-.12-.31-.31a2.6 2.6 0 0 1-.27-.31v-.05c-.08-.12-.16-.24-.23-.37-.07-.14-.14-.28-.2-.43-.06-.16-.11-.32-.16-.49 0-.18-.08-.36-.11-.55 0-.19-.05-.39-.06-.61v-.68a14.05 14.05 0 0 1 6.38-10.65l.31-.16h.1l.2-.1.12-.05.18-.08h.12l.17-.06h.85z"/><path fill="#f4f4f5" d="M64.24 39.842h1.88l.16.06h.07l.22.1h.05l.21.11.2.12q.3.195.57.43.362.316.65.7a3 3 0 0 1 .21.28c.06.09.15.18.22.28l.1.12a.4.4 0 0 1 0 .08c.08.12.22.32.39.6q.128.204.23.42l.07.13v.06q.286.611.47 1.26a2 2 0 0 1 .09.35v.12c0 .04.05.22.07.35s0 .08 0 .12 0 .29.06.45v.68a1.3 1.3 0 0 1 0 .2v.12q.015.15 0 .3v1.13q.007.09 0 .18c-.05.24-.1.46-.15.63v.1c-.05.15-.09.3-.14.43s-.08.24-.13.35a5 5 0 0 1-.31.7 1 1 0 0 1-.08.15 10 10 0 0 1-.65 1l-.2.26a5 5 0 0 1-.36.43l-.16.17v.05a1 1 0 0 0-.1.1l-.16.15a.3.3 0 0 0-.08.07.4.4 0 0 0-.1.08l-.37.3h-.05l-.36.26-.48.29-.1.06-.15.08c-.18.1-.39.19-.6.29h-.11a7 7 0 0 1-.77.28 9 9 0 0 1-1.14.28h-.14a1 1 0 0 1-.2 0h-.31q-.54.045-1.08 0h-.39a5.4 5.4 0 0 1-1.09-.21h-.11a5 5 0 0 1-.83-.32 6 6 0 0 1-1-.6h-.06l-.19-.14-.13-.11a2.5 2.5 0 0 1-.28-.28 2.4 2.4 0 0 1-.46-.63l-.18-.39v-.05a3 3 0 0 1-.14-.45 4 4 0 0 1-.1-.5c0-.18 0-.37-.05-.56v-.63a13 13 0 0 1 5.87-9.79l.28-.15h.1l.18-.09h.11l.17-.07h.11l.16-.06h.12l.14-.05h.52z"/><path fill="#f5f5f6" d="M64.6 40.782h1.75l.15.06h.06l.21.1h.05l.19.1.19.11a4 4 0 0 1 .52.4h.05q.334.295.6.65l.18.27.2.26a.4.4 0 0 1 .08.11l.06.07c.07.1.2.29.35.54s.14.25.21.39l.06.12v.05q.266.556.43 1.15c0 .11.05.22.08.33v.11c0 .04 0 .19.06.32s0 .07 0 .1v.47a1 1 0 0 1 0 .17v.28a.5.5 0 0 1 0 .11 3 3 0 0 1 0 .28v.66c0 .1 0 .21-.05.32v.06a.7.7 0 0 0 0 .16c0 .21-.09.41-.13.57a.3.3 0 0 0 0 .09c-.05.14-.09.27-.13.39l-.12.32c-.08.2-.17.42-.28.64l-.08.14a8 8 0 0 1-.6 1l-.18.24-.33.39-.15.16h-.05l-.08.09-.15.14-.07.07-.09.08-.33.26a4 4 0 0 1-.33.24l-.43.27h-.1l-.13.08c-.16.09-.36.17-.55.26h-.1c-.21.09-.48.19-.7.26a9 9 0 0 1-1.05.26h-.61a5.4 5.4 0 0 1-1 0h-.37a5.3 5.3 0 0 1-1-.2h-.1a5 5 0 0 1-.76-.3 6.5 6.5 0 0 1-.93-.56 1.3 1.3 0 0 0-.17-.14.7.7 0 0 1-.13-.11 3 3 0 0 1-.25-.26l-.22-.26c-.06-.1-.13-.2-.19-.32a3 3 0 0 1-.16-.36c0-.13-.09-.26-.13-.4l-.09-.46c0-.17 0-.34-.05-.51a5 5 0 0 1 0-.57 11.87 11.87 0 0 1 5.37-8.93l.25-.14.09-.05.17-.08h.1l.15-.07h.95z"/><path fill="#f6f6f7" d="M64.95 41.712h1.82l.19.08h.05l.18.1.16.1q.255.166.48.37a3 3 0 0 1 .55.61q.087.12.16.25l.18.23.07.1v.06c.06.09.18.27.31.49s.13.23.18.35v.11q.217.489.37 1c0 .1.05.19.07.29v.1c0 .03 0 .18.05.29s0 .06 0 .1a4 4 0 0 1 0 .37v.25a1 1 0 0 1 0 .16v.1a2 2 0 0 1 0 .25v.88a1 1 0 0 1 0 .15c0 .19-.09.37-.13.51v.09a3 3 0 0 1-.11.35c0 .09-.07.2-.11.29s-.16.38-.26.58l-.07.12a7 7 0 0 1-.54.86l-.16.21c-.07.09-.17.21-.3.35l-.13.15a.6.6 0 0 1-.08.08l-.13.13-.06.06-.09.07-.26 1.01a3 3 0 0 1-.3.21l-.39.25h-.09l-.12.07c-.14.08-.32.16-.49.24h-.09l-.64.24a9 9 0 0 1-.95.24h-.56q-.45.038-.9 0h-.33a4.3 4.3 0 0 1-.91-.18h-.09a3.4 3.4 0 0 1-.69-.28h-.05a5 5 0 0 1-.83-.53h-.05l-.15-.13-.12-.1c-.08-.07-.15-.16-.23-.24a2.8 2.8 0 0 1-.36-.54 3 3 0 0 1-.14-.33 2 2 0 0 1-.11-.36c0-.13-.06-.27-.08-.41a3.4 3.4 0 0 1 0-.46 4 4 0 0 1 0-.51 10.81 10.81 0 0 1 4.67-8.18l.23-.12h.08l.15-.08h.09l.14-.06h.86z"/><path fill="#f7f8f8" d="M65.34 42.652h1.68l.17.08h.05l.16.09.15.09q.23.157.44.34a3 3 0 0 1 .49.56l.15.24.16.2a.4.4 0 0 0 .06.09c0 .09.15.24.27.45s.11.2.16.31v.1q.199.452.32.93l.06.26a.2.2 0 0 0 0 .08v.86a.3.3 0 0 1 0 .09v.23a2 2 0 0 1 0 .22v.49a.3.3 0 0 1 0 .1 3 3 0 0 1 0 .32 2 2 0 0 1 0 .26 1 1 0 0 0 0 .13 3.5 3.5 0 0 1-.11.46.14.14 0 0 1 0 .07c0 .12-.07.23-.1.32l-.1.26c-.07.16-.15.34-.24.52l-.06.11q-.21.404-.48.77l-.15.19-.08.49-.12.13a.5.5 0 0 0-.07.07l-.12.11h-.06l-.07.06-.27.22-.27.19a3 3 0 0 1-.36.22l-.07.05-.11.06-.44.21h-.08l-.57.21a8 8 0 0 1-.86.23h-.7a4.4 4.4 0 0 1-.81 0h-.31a4 4 0 0 1-.81-.17h-.08a3.6 3.6 0 0 1-.61-.26 4.4 4.4 0 0 1-.75-.49s-.06-.06-.13-.12l-.1-.09a2 2 0 0 1-.19-.23 2 2 0 0 1-.17-.22 1.4 1.4 0 0 1-.15-.26l-.12-.29c0-.11-.07-.22-.1-.33 0-.12-.05-.24-.06-.37v-.87a9.74 9.74 0 0 1 4.36-7.22l.21-.11h.07l.14-.07h.08l.12-.06h.08l.12-.05h.57z"/><path fill="#f8f9f9" d="M65.67 43.582h1.53l.16.06.15.08.14.08a3 3 0 0 1 .39.31q.251.23.43.52c0 .07.09.14.13.22 0 0 .09.11.13.18l.06.08q.13.187.23.39c.05.09.1.18.14.27v.09q.171.399.27.82v.54a.2.2 0 0 0 0 .07 3 3 0 0 1 0 .29v.78a1.3 1.3 0 0 1 0 .2v.1a.2.2 0 0 1 0 .08 3 3 0 0 1 0 .29 2 2 0 0 1 0 .23 1 1 0 0 1 0 .12c0 .15-.07.29-.11.41a.14.14 0 0 0 0 .06 2 2 0 0 1-.1.28 2 2 0 0 1-.08.23c-.07.14-.13.3-.22.45v.1a4.5 4.5 0 0 1-.43.68s-.08.1-.13.17a2.3 2.3 0 0 1-.24.28l-.1.11-.06.06-.11.1h-.06l-.06.06-.24.19-.24.17-.31.19h-.17c-.11.07-.25.13-.39.2h-.06c-.15.07-.35.13-.5.19a8 8 0 0 1-.77.21h-.46a6 6 0 0 1-.73 0h-.27a3.3 3.3 0 0 1-.73-.16h-.07a3 3 0 0 1-.55-.23 4.3 4.3 0 0 1-.65-.45s-.05 0-.11-.11l-.09-.08c-.06-.06-.11-.14-.17-.21l-.15-.2a2 2 0 0 1-.12-.23 2.5 2.5 0 0 1-.18-.54l-.06-.32v-.77a8.65 8.65 0 0 1 3.63-6.13l.18-.11h.06l.12-.06h.85z"/><path fill="#f9fafa" d="M66.02 44.522h1.35l.14.06.13.07.12.07q.189.13.35.29.226.212.38.48c0 .06.07.13.1.2l.11.16v.07l.19.34q.061.117.11.24v.07a5 5 0 0 1 .22.71 1 1 0 0 1 0 .2v.32a2 2 0 0 1 0 .26v.35a1 1 0 0 1 0 .17v.08a.15.15 0 0 1 0 .07v.25a1.4 1.4 0 0 1 0 .2v.1c0 .13-.06.26-.09.36v.07q0 .141-.09.24a2 2 0 0 1-.08.2 3 3 0 0 1-.18.39l-.05.09a6 6 0 0 1-.38.59l-.12.15-.21.24-.09.1v.06l-.09.09h-.06l-.2.17-.21.15-.27.17h-.06l-.08.05-.34.17h-.06a3 3 0 0 1-.43.16 4.5 4.5 0 0 1-.67.19h-.32a2.8 2.8 0 0 1-.65 0h-.23a2.8 2.8 0 0 1-.64-.14h-.06a2 2 0 0 1-.48-.22 2.7 2.7 0 0 1-.55-.42s0-.05-.09-.1l-.07-.07-.14-.19a1 1 0 0 1-.13-.17l-.11-.2-.09-.22a2.7 2.7 0 0 1-.12-.53v-.66a7.56 7.56 0 0 1 3.35-5.51l.16-.09h.05l.11-.06h.73z"/><path fill="#fafbfb" d="M66.34 45.452h1.4l.12.06.11.07q.166.113.31.25.193.196.32.44.05.091.08.19a1 1 0 0 0 .09.14v.06c0 .06.09.16.15.29l.09.2v.07q.116.292.17.6v.22a1 1 0 0 0 0 .16v.06q.007.105 0 .21v.29a1 1 0 0 0 0 .15v.58q0 .171-.09.3a2 2 0 0 1-.07.21l-.07.16c-.05.11-.1.22-.16.33v.07q-.15.255-.33.49a1 1 0 0 1-.09.12 2 2 0 0 1-.17.21.3.3 0 0 0-.08.08h-.05l-.08.07-.17.14-.18.13-.22.15h-.07l-.29.14a3 3 0 0 1-.36.15 4 4 0 0 1-.59.17h-.3a3.5 3.5 0 0 1-.56 0h-.21a3 3 0 0 1-.55-.13h-.06a2 2 0 0 1-.41-.2 2.3 2.3 0 0 1-.47-.37l-.08-.09-.06-.07-.11-.17-.09-.14-.08-.17c0-.06 0-.12-.07-.19a2 2 0 0 1 0-.21v-.23a2 2 0 0 1 0-.26v-.29a6.52 6.52 0 0 1 2.86-4.65l.13-.08h.54-.25z"/><path fill="#fcfcfc" d="M66.74 46.362h1.24l.1.06.1.06q.14.098.26.22.16.181.26.4s0 .11.07.17a.6.6 0 0 0 .06.11q.048.124.11.24l.06.17v.05q.07.242.11.49a.7.7 0 0 1 0 .14v.05a.7.7 0 0 0 0 .14v.7a.4.4 0 0 0 0 .11v.48c0 .08 0 .17-.07.24l-.06.17-.06.13c0 .09-.09.18-.14.27v.06c-.08.12-.15.24-.27.4l-.08.1-.15.16-.06.07-.07.06-.15.12-.14.1-.19.12h-.06l-.23.12-.29.13a5 5 0 0 1-.5.15h-.3a2.6 2.6 0 0 1-.48 0h-.17a1.5 1.5 0 0 1-.46-.11 1.7 1.7 0 0 1-.7-.5.2.2 0 0 0-.07-.08v-.06c0-.05-.05-.1-.09-.16l-.07-.12-.06-.13s0-.1-.05-.15a1 1 0 0 1 0-.17 1 1 0 0 1 0-.19v-.23a2 2 0 0 1 0-.23 5.44 5.44 0 0 1 2.35-3.79l.11-.07h.32z"/><path fill="#fdfdfd" d="M67.09 47.362h1.27a1 1 0 0 1 .22.19q.135.16.2.36.03.075.05.15l.05.09q.03.093.07.18v.14q.047.193.06.39v.22a.7.7 0 0 0 0 .14v.59a1 1 0 0 1-.07.19 1 1 0 0 0 0 .13.5.5 0 0 0-.05.1l-.11.21a2.3 2.3 0 0 1-.22.31l-.06.08-.11.13h-.05l-.11.1-.11.08a1 1 0 0 1-.15.1l-.18.09-.23.1-.4.14h-.25a1.8 1.8 0 0 1-.4 0h-.14a1.7 1.7 0 0 1-.37-.09 1.1 1.1 0 0 1-.26-.16 2 2 0 0 1-.28-.29v-.07l-.06-.14v-.09a.3.3 0 0 1 0-.1v-.12a.7.7 0 0 1 0-.14v-.49a4.38 4.38 0 0 1 1.85-2.94h.32z"/><path fill="#fefefe" d="M67.45 48.262h.94a.7.7 0 0 1 .17.16q.095.145.14.31v.71a.2.2 0 0 1 0 .08v.56a.2.2 0 0 0 0 .07.7.7 0 0 1-.05.13l-.05.09a.3.3 0 0 1 0 .07 1 1 0 0 1-.08.15 2 2 0 0 1-.16.22l-.05.06a1 1 0 0 0-.09.09l-.08.06-.08.06-.1.07-.13.08-.16.08a3 3 0 0 1-.31.12h-.16a1.1 1.1 0 0 1-.31 0h-.11a.9.9 0 0 1-.28-.08.83.83 0 0 1-.38-.39v-.19a.14.14 0 0 1 0-.07.3.3 0 0 0 0-.07v-.08a.3.3 0 0 1 0-.09v-.1a.4.4 0 0 1 0-.11v-.13a3.42 3.42 0 0 1 1.35-2.07h.06-.19.12z"/><ellipse cx="67.808" cy="50.329" fill="#fff" rx="1.5" ry="1" transform="rotate(-53.05 67.808 50.33)"/></g></g></svg>