<svg xmlns="http://www.w3.org/2000/svg" viewBox="0 0 54 148"><title>bottle(瓶子)</title><g fill="none" fill-rule="evenodd"><path fill="#eaeaea" fill-rule="nonzero" d="M36.71 25.94V0H16.46v25.94a20.53 20.53 0 0 1-3.87 12L9 42.9a47.7 47.7 0 0 0-9 27.89v70.52h53.17V70.79a47.7 47.7 0 0 0-9-27.89l-3.59-5a20.46 20.46 0 0 1-3.87-11.96" opacity=".81"/><path fill="#d6d6d6" fill-rule="nonzero" d="M31.54 119.44S12.31 118.53 7 123V79.9c4.34-4.34 24.56-3.55 24.56-3.55z"/><path stroke="#fff" stroke-linecap="round" stroke-linejoin="round" stroke-width="3" d="M39.94 52a9.7 9.7 0 0 1 4.92 9.23m.85 23.46v34"/><ellipse cx="26.58" cy="141.31" fill="#d6d6d6" fill-rule="nonzero" rx="26.58" ry="6.66"/></g></svg>