<svg xmlns="http://www.w3.org/2000/svg" viewBox="0 0 150 138"><title>crate（木箱）</title><defs><linearGradient id="a" x1="50.138%" x2="50.138%" y1="100%" y2="0%"><stop offset="0%" stop-color="#ad845b"/><stop offset="3%" stop-color="#b68d66"/><stop offset="10%" stop-color="#cfa685"/><stop offset="10%" stop-color="#d3aa89"/><stop offset="17%" stop-color="#d2a988"/><stop offset="88%" stop-color="#c6a383"/><stop offset="92%" stop-color="#c09c7a"/><stop offset="98%" stop-color="#b18861"/><stop offset="99%" stop-color="#ad845b"/></linearGradient><linearGradient id="b" x1="49.996%" x2="49.996%" y1="99.938%" y2="0%"><stop offset="0%" stop-color="#ad845b"/><stop offset="3%" stop-color="#b68d66"/><stop offset="10%" stop-color="#cfa685"/><stop offset="10%" stop-color="#d3aa89"/><stop offset="17%" stop-color="#d2a988"/><stop offset="88%" stop-color="#c6a383"/><stop offset="92%" stop-color="#c09c7a"/><stop offset="98%" stop-color="#b18861"/><stop offset="99%" stop-color="#ad845b"/></linearGradient><linearGradient id="c" x1="50.004%" x2="50.004%" y1="100%" y2="0%"><stop offset="0%" stop-color="#ad845b"/><stop offset="3%" stop-color="#b68d66"/><stop offset="10%" stop-color="#cfa685"/><stop offset="10%" stop-color="#d3aa89"/><stop offset="17%" stop-color="#d2a988"/><stop offset="88%" stop-color="#c6a383"/><stop offset="92%" stop-color="#c09c7a"/><stop offset="98%" stop-color="#b18861"/><stop offset="99%" stop-color="#ad845b"/></linearGradient><linearGradient id="d" x1="49.996%" x2="49.996%" y1="100%" y2="0%"><stop offset="0%" stop-color="#ad845b"/><stop offset="3%" stop-color="#b68d66"/><stop offset="10%" stop-color="#cfa685"/><stop offset="10%" stop-color="#d3aa89"/><stop offset="17%" stop-color="#d2a988"/><stop offset="88%" stop-color="#c6a383"/><stop offset="92%" stop-color="#c09c7a"/><stop offset="98%" stop-color="#b18861"/><stop offset="99%" stop-color="#ad845b"/></linearGradient><linearGradient id="e" x1="0%" x2="100%" y1="50.042%" y2="50.042%"><stop offset="0%" stop-color="#ad845b"/><stop offset="3%" stop-color="#b68d66"/><stop offset="10%" stop-color="#cfa685"/><stop offset="10%" stop-color="#d3aa89"/><stop offset="17%" stop-color="#d2a988"/><stop offset="88%" stop-color="#c6a383"/><stop offset="92%" stop-color="#c09c7a"/><stop offset="98%" stop-color="#b18861"/><stop offset="99%" stop-color="#ad845b"/></linearGradient><linearGradient id="f" x1="0%" x2="100%" y1="50%" y2="50%"><stop offset="0%" stop-color="#ad845b"/><stop offset="3%" stop-color="#b68d66"/><stop offset="10%" stop-color="#cfa685"/><stop offset="10%" stop-color="#d3aa89"/><stop offset="17%" stop-color="#d2a988"/><stop offset="88%" stop-color="#c6a383"/><stop offset="92%" stop-color="#c09c7a"/><stop offset="98%" stop-color="#b18861"/><stop offset="99%" stop-color="#ad845b"/></linearGradient><linearGradient id="g" x1="0%" x2="100%" y1="50%" y2="50%"><stop offset="0%" stop-color="#ad845b"/><stop offset="3%" stop-color="#b68d66"/><stop offset="10%" stop-color="#cfa685"/><stop offset="10%" stop-color="#d3aa89"/><stop offset="17%" stop-color="#d2a988"/><stop offset="88%" stop-color="#c6a383"/><stop offset="92%" stop-color="#c09c7a"/><stop offset="98%" stop-color="#b18861"/><stop offset="99%" stop-color="#ad845b"/></linearGradient><linearGradient id="h" x1="0%" x2="100%" y1="50%" y2="50%"><stop offset="0%" stop-color="#ad845b"/><stop offset="3%" stop-color="#b68d66"/><stop offset="10%" stop-color="#cfa685"/><stop offset="10%" stop-color="#d3aa89"/><stop offset="17%" stop-color="#d2a988"/><stop offset="88%" stop-color="#c6a383"/><stop offset="92%" stop-color="#c09c7a"/><stop offset="98%" stop-color="#b18861"/><stop offset="99%" stop-color="#ad845b"/></linearGradient><linearGradient id="i" x1="0%" x2="100%" y1="50%" y2="50%"><stop offset="0%" stop-color="#ad845b"/><stop offset="3%" stop-color="#b68d66"/><stop offset="10%" stop-color="#cfa685"/><stop offset="10%" stop-color="#d3aa89"/><stop offset="17%" stop-color="#d2a988"/><stop offset="88%" stop-color="#c6a383"/><stop offset="92%" stop-color="#c09c7a"/><stop offset="98%" stop-color="#b18861"/><stop offset="99%" stop-color="#ad845b"/></linearGradient><linearGradient id="j" x1="0%" x2="100%" y1="50%" y2="50%"><stop offset="0%" stop-color="#ad845b"/><stop offset="3%" stop-color="#b68d66"/><stop offset="10%" stop-color="#cfa685"/><stop offset="10%" stop-color="#d3aa89"/><stop offset="17%" stop-color="#d2a988"/><stop offset="88%" stop-color="#c6a383"/><stop offset="92%" stop-color="#c09c7a"/><stop offset="98%" stop-color="#b18861"/><stop offset="99%" stop-color="#ad845b"/></linearGradient></defs><g fill="none" fill-rule="nonzero"><path fill="#ad845b" d="M130.74 11.8h15.96v115.56h-15.96z"/><path fill="#b89471" d="M0 11.8h125.75v125.75H0z"/><path fill="url(#a)" d="M-6.743 65.262h140.66v16.24H-6.743z" transform="rotate(45 63.587 73.382)"/><path fill="url(#b)" d="M0 11.8h125.75v16.24H0z"/><path fill="url(#c)" d="M54.745 66.545h125.75v16.24H54.745z" transform="rotate(90 117.62 74.665)"/><path fill="url(#d)" d="M-54.755 66.555h125.75v16.24h-125.75z" transform="rotate(90 8.12 74.675)"/><path fill="url(#d)" d="M0 121.3h125.75v16.24H0z"/><path fill="#ad845b" d="M125.75 11.79H0L24.18 0h125.75z"/><path fill="url(#e)" d="M16.24 11.79H0L24.25 0h16.24z"/><path fill="url(#e)" d="M125.75 11.79h-16.24L133.76 0H150z"/><path fill="url(#f)" d="M125.8 11.79 0 11.7l3.23-1.47h125.74z"/><path fill="url(#g)" d="M146.77 1.28H21.03L24.25 0H150z"/><path fill="url(#h)" d="m132.2 134.31-6.45 3.48v-126l6.45-3.1z"/><path fill="url(#i)" d="m149.93 125.62-6.46 3.48V3.1l6.46-3.1z"/><path fill="url(#j)" d="M125.75 22.02V11.79L150 0v10.23z"/><path fill="url(#j)" d="M125.75 137.54v-10.23L150 115.52v10.23z"/><path fill="#b89471" d="M68.08 4.94a1.5 1.5 0 1 0 0-3 1.5 1.5 0 0 0 0 3"/></g></svg>