<svg xmlns="http://www.w3.org/2000/svg" viewBox="0 0 150 84"><title>Fiberglass square mesh grating（玻璃纤维方形网格格栅）</title><g fill="none" fill-rule="nonzero"><path fill="#595651" d="M4.9 10.55h142.2v3.88H4.9zm0 8.46h142.2v3.88H4.9zm0 8.45h142.2v3.88H4.9zm0 8.45h142.2v3.88H4.9zm0 8.45h142.2v3.88H4.9zm0 8.45h142.2v3.88H4.9zm0 8.46h142.2v3.88H4.9zm0 8.45h142.2v3.88H4.9z"/><path fill="#595651" d="M10.63 5.23h4.66v72.79h-4.66zm10.35 0h4.66v72.79h-4.66zm10.35 0h4.66v72.79h-4.66zm10.35 0h4.66v72.79h-4.66zm10.35 0h4.66v72.79h-4.66zm10.35 0h4.66v72.79h-4.66zm10.35 0h4.66v72.79h-4.66zm10.34 0h4.66v72.79h-4.66zm10.35 0h4.66v72.79h-4.66zm10.35 0h4.66v72.79h-4.66zm10.35 0h4.66v72.79h-4.66zm10.35 0h4.66v72.79h-4.66zm10.35 0h4.66v72.79h-4.66z"/><path fill="#77736d" d="M150 83.26H0V0h150zM4.84 78h140.32V5.23H4.84z"/></g></svg>