<svg xmlns="http://www.w3.org/2000/svg" viewBox="0 0 70 151"><title>Plastic container(塑料容器)</title><defs><linearGradient id="a" x1="0%" x2="100.071%" y1="49.985%" y2="49.985%"><stop offset="0%" stop-color="#6b6b6b"/><stop offset="4%" stop-color="#767676"/><stop offset="11%" stop-color="#959595"/><stop offset="15%" stop-color="#aaa"/><stop offset="20%" stop-color="#aeaeae"/><stop offset="62%" stop-color="#ccc"/><stop offset="85%" stop-color="#d8d8d8"/><stop offset="90%" stop-color="#cfcfcf"/><stop offset="98%" stop-color="#b6b6b6"/><stop offset="99%" stop-color="#b2b2b2"/></linearGradient><linearGradient id="b" x1="0%" x2="100%" y1="50%" y2="50%"><stop offset="0%" stop-color="#e2e2e2"/><stop offset="3%" stop-color="#dadada"/><stop offset="8%" stop-color="#d3d3d3"/><stop offset="49%" stop-color="#f6f6f6"/><stop offset="63%" stop-color="#f3f3f3"/><stop offset="73%" stop-color="#eaeaea"/><stop offset="82%" stop-color="#dbdbdb"/><stop offset="90%" stop-color="#c6c6c6"/><stop offset="97%" stop-color="#aaa"/><stop offset="100%" stop-color="#9b9b9b"/></linearGradient><linearGradient id="c" x1="0%" x2="100%" y1="50%" y2="50%"><stop offset="0%" stop-color="#e2e2e2"/><stop offset="3%" stop-color="#dadada"/><stop offset="8%" stop-color="#d3d3d3"/><stop offset="49%" stop-color="#f6f6f6"/><stop offset="63%" stop-color="#f3f3f3"/><stop offset="73%" stop-color="#eaeaea"/><stop offset="82%" stop-color="#dbdbdb"/><stop offset="90%" stop-color="#c6c6c6"/><stop offset="97%" stop-color="#aaa"/><stop offset="100%" stop-color="#9b9b9b"/></linearGradient><linearGradient id="d" x1="0%" x2="102.778%" y1="50%" y2="50%"><stop offset="0%" stop-color="#e2e2e2"/><stop offset="3%" stop-color="#dadada"/><stop offset="8%" stop-color="#d3d3d3"/><stop offset="49%" stop-color="#f6f6f6"/><stop offset="63%" stop-color="#f3f3f3"/><stop offset="73%" stop-color="#eaeaea"/><stop offset="82%" stop-color="#dbdbdb"/><stop offset="90%" stop-color="#c6c6c6"/><stop offset="97%" stop-color="#aaa"/><stop offset="100%" stop-color="#9b9b9b"/></linearGradient></defs><g fill="none" fill-rule="nonzero"><path fill="url(#a)" d="M69 35.86A10.89 10.89 0 0 0 64.38 27l-13.62-9.5v-2.7H19.1v2.7L4.85 27A10.9 10.9 0 0 0 0 36.05L.31 145a5.06 5.06 0 0 0 5.06 5H64.3a5 5 0 0 0 5-5.07z" opacity=".64"/><path fill="url(#b)" d="M19.78 0H49.9c.37 0 .67.3.67.67v14.09H19.11V.67c0-.37.3-.67.67-.67"/><path fill="url(#c)" d="M19.69 0h1v14.76h-1z"/><path fill="url(#c)" d="M20.59 0h1v14.76h-1z"/><path fill="url(#c)" d="M21.5 0h1v14.76h-1z"/><path fill="url(#c)" d="M22.4 0h1v14.76h-1z"/><path fill="url(#c)" d="M23.3 0h1v14.76h-1z"/><path fill="url(#d)" d="M24.2 0h1v14.76h-1z"/><path fill="url(#c)" d="M25.11 0h1v14.76h-1z"/><path fill="url(#c)" d="M26.01 0h1v14.76h-1z"/><path fill="url(#c)" d="M26.91 0h1v14.76h-1z"/><path fill="url(#c)" d="M27.82 0h1v14.76h-1z"/><path fill="url(#c)" d="M28.72 0h1v14.76h-1z"/><path fill="url(#c)" d="M29.62 0h1v14.76h-1z"/><path fill="url(#d)" d="M30.52 0h1v14.76h-1z"/><path fill="url(#c)" d="M31.43 0h1v14.76h-1z"/><path fill="url(#c)" d="M32.33 0h1v14.76h-1z"/><path fill="url(#c)" d="M33.23 0h1v14.76h-1z"/><path fill="url(#c)" d="M34.14 0h1v14.76h-1z"/><path fill="url(#c)" d="M35.04 0h1v14.76h-1z"/><path fill="url(#c)" d="M35.94 0h1v14.76h-1z"/><path fill="url(#c)" d="M36.85 0h1v14.76h-1z"/><path fill="url(#c)" d="M37.75 0h1v14.76h-1z"/><path fill="url(#c)" d="M38.65 0h1v14.76h-1z"/><path fill="url(#c)" d="M39.55 0h1v14.76h-1z"/><path fill="url(#c)" d="M40.46 0h1v14.76h-1z"/><path fill="url(#c)" d="M41.36 0h1v14.76h-1z"/><path fill="url(#c)" d="M42.26 0h1v14.76h-1z"/><path fill="url(#c)" d="M43.17 0h1v14.76h-1z"/><path fill="url(#c)" d="M44.07 0h1v14.76h-1z"/><path fill="url(#c)" d="M44.97 0h1v14.76h-1z"/><path fill="url(#d)" d="M45.87 0h1v14.76h-1z"/><path fill="url(#c)" d="M46.78 0h1v14.76h-1z"/><path fill="url(#c)" d="M47.68 0h1v14.76h-1z"/><path fill="url(#c)" d="M48.58 0h1v14.76h-1z"/><path fill="url(#c)" d="M49.49 0h1v14.76h-1z"/><path fill="#f4f4f4" d="M7.43 33.87h54.49v109.25H7.43z" opacity=".29"/><path fill="#fff" d="M61.92 98.39 7.43 77.45V33.87h54.49z" opacity=".29"/><path fill="#fff" d="M50.66 21.55c2.64 1.37 5.27 2.64 7.88 4.13A18 18 0 0 1 65.05 32a18.74 18.74 0 0 1 2.3 8.92l.19 8.86c.13 5.91.18 11.82.27 17.73l.1 17.74c0 11.82 0 23.64-.25 35.46q-.14 8.86-.39 17.74l-.07 2.21a9 9 0 0 1-.32 2.34 7 7 0 0 1-2.62 3.87 6.62 6.62 0 0 1-4.4 1.2l-4.43-.23 4.43-.23a5.93 5.93 0 0 0 3.88-1.39 6.17 6.17 0 0 0 2-3.5 7.8 7.8 0 0 0 .13-2.06l-.08-2.21c-.18-5.91-.35-11.82-.47-17.73-.26-11.83-.35-23.65-.41-35.47V67.52c.06-5.91.08-11.82.19-17.74l.15-8.86a16.9 16.9 0 0 0-1.59-8.2 17.35 17.35 0 0 0-5.62-6.35c-1.17-.86-2.45-1.62-3.69-2.42z"/><path fill="#707070" d="M19.1 17.46c.2.22 0 .08.08.13v.05l-.11.1-.21.21-.42.41-.86.82c-.58.54-1.16 1.06-1.76 1.58-1.2 1-2.43 2-3.71 2.95-.64.47-1.29.92-1.95 1.36s-1.34.83-1.95 1.29a15.5 15.5 0 0 0-3.2 3.27 15.36 15.36 0 0 0-2.5 8.65c0 3.09.13 6.28.19 9.41l.72 37.76c.25 12.59.68 25.18.57 37.77-.05 6.28-.13 12.61-.31 18.85a9.6 9.6 0 0 0 .7 4.19c.272.602.7 1.12 1.24 1.5q.406.31.87.52c.33.11.65.25 1 .33a26.3 26.3 0 0 0 4.57.44c1.57.07 3.15.17 4.72.28v.3c-1.57.11-3.15.21-4.72.28l-2.36.13a13 13 0 0 1-2.56-.04 5.89 5.89 0 0 1-4.36-2.86 11.3 11.3 0 0 1-1.27-5c-.3-6.36-.44-12.61-.6-18.91-.28-12.59 0-25.18 0-37.77l.18-37.76c0-3.16 0-6.27.12-9.47a16.3 16.3 0 0 1 3-9.13 15.8 15.8 0 0 1 3.48-3.34c.66-.47 1.37-.86 2-1.26s1.33-.84 2-1.28c1.3-.88 2.55-1.82 3.77-2.8.61-.5 1.21-1 1.8-1.52l.88-.78.43-.4.22-.2.11-.1.05-.05c.05.05-.07-.12.15.09"/></g></svg>