<svg xmlns="http://www.w3.org/2000/svg" viewBox="0 0 87 151"><title>Bulk bag discharger(散装袋卸料器)</title><defs><linearGradient id="a" x1="0%" x2="100%" y1="49.975%" y2="49.975%"><stop offset="0%" stop-color="#e2e2e2"/><stop offset="3%" stop-color="#d0d0d0"/><stop offset="6%" stop-color="#bcbcbc"/><stop offset="9%" stop-color="#b5b5b5"/><stop offset="49%" stop-color="#f6f6f6"/><stop offset="63%" stop-color="#f3f3f3"/><stop offset="73%" stop-color="#eaeaea"/><stop offset="82%" stop-color="#dbdbdb"/><stop offset="90%" stop-color="#c6c6c6"/><stop offset="97%" stop-color="#aaa"/><stop offset="100%" stop-color="#9b9b9b"/></linearGradient><linearGradient id="b" x1="0%" x2="100%" y1="50%" y2="50%"><stop offset="0%" stop-color="#6b6b6b"/><stop offset="1%" stop-color="#767676"/><stop offset="3%" stop-color="#959595"/><stop offset="4%" stop-color="#aaa"/><stop offset="37%" stop-color="#ccc"/><stop offset="74%" stop-color="#eaeaea"/><stop offset="94%" stop-color="#f6f6f6"/><stop offset="95%" stop-color="#ededed"/><stop offset="96%" stop-color="#d4d4d4"/><stop offset="97%" stop-color="#ababab"/><stop offset="99%" stop-color="#737373"/><stop offset="99%" stop-color="#666"/></linearGradient><linearGradient id="c" x1="0%" x2="99.858%" y1="0%" y2="0%"><stop offset="0%" stop-color="#6b6b6b"/><stop offset="1%" stop-color="#767676"/><stop offset="3%" stop-color="#959595"/><stop offset="4%" stop-color="#aaa"/><stop offset="37%" stop-color="#ccc"/><stop offset="74%" stop-color="#eaeaea"/><stop offset="94%" stop-color="#f6f6f6"/><stop offset="95%" stop-color="#ededed"/><stop offset="96%" stop-color="#d4d4d4"/><stop offset="97%" stop-color="#ababab"/><stop offset="99%" stop-color="#737373"/><stop offset="99%" stop-color="#666"/></linearGradient><linearGradient id="d" x1="50.096%" x2="50.096%" y1="100.097%" y2="0%"><stop offset="0%" stop-color="#6b6b6b"/><stop offset="1%" stop-color="#767676"/><stop offset="3%" stop-color="#959595"/><stop offset="4%" stop-color="#aaa"/><stop offset="37%" stop-color="#ccc"/><stop offset="74%" stop-color="#eaeaea"/><stop offset="94%" stop-color="#f6f6f6"/><stop offset="95%" stop-color="#ededed"/><stop offset="96%" stop-color="#d4d4d4"/><stop offset="97%" stop-color="#ababab"/><stop offset="99%" stop-color="#737373"/><stop offset="99%" stop-color="#666"/></linearGradient><linearGradient id="e" x1="50%" x2="50%" y1="100%" y2="0%"><stop offset="0%" stop-color="#6b6b6b"/><stop offset="1%" stop-color="#767676"/><stop offset="3%" stop-color="#959595"/><stop offset="4%" stop-color="#aaa"/><stop offset="37%" stop-color="#ccc"/><stop offset="74%" stop-color="#eaeaea"/><stop offset="94%" stop-color="#f6f6f6"/><stop offset="95%" stop-color="#ededed"/><stop offset="96%" stop-color="#d4d4d4"/><stop offset="97%" stop-color="#ababab"/><stop offset="99%" stop-color="#737373"/><stop offset="99%" stop-color="#666"/></linearGradient><linearGradient id="f" x1="50%" x2="50%" y1="100%" y2="0%"><stop offset="0%" stop-color="#6b6b6b"/><stop offset="1%" stop-color="#767676"/><stop offset="3%" stop-color="#959595"/><stop offset="4%" stop-color="#aaa"/><stop offset="37%" stop-color="#ccc"/><stop offset="74%" stop-color="#eaeaea"/><stop offset="94%" stop-color="#f6f6f6"/><stop offset="95%" stop-color="#ededed"/><stop offset="96%" stop-color="#d4d4d4"/><stop offset="97%" stop-color="#ababab"/><stop offset="99%" stop-color="#737373"/><stop offset="99%" stop-color="#666"/></linearGradient><linearGradient id="g" x1="0%" x2="100%" y1="50.151%" y2="50.151%"><stop offset="0%" stop-color="#e2e2e2"/><stop offset="3%" stop-color="#d0d0d0"/><stop offset="6%" stop-color="#bcbcbc"/><stop offset="9%" stop-color="#b5b5b5"/><stop offset="49%" stop-color="#f6f6f6"/><stop offset="63%" stop-color="#f3f3f3"/><stop offset="73%" stop-color="#eaeaea"/><stop offset="82%" stop-color="#dbdbdb"/><stop offset="90%" stop-color="#c6c6c6"/><stop offset="97%" stop-color="#aaa"/><stop offset="100%" stop-color="#9b9b9b"/></linearGradient><linearGradient id="h" x1="0%" x2="100%" y1="49.615%" y2="49.615%"><stop offset="0%" stop-color="#e2e2e2"/><stop offset="3%" stop-color="#d0d0d0"/><stop offset="6%" stop-color="#bcbcbc"/><stop offset="9%" stop-color="#b5b5b5"/><stop offset="49%" stop-color="#f6f6f6"/><stop offset="63%" stop-color="#f3f3f3"/><stop offset="73%" stop-color="#eaeaea"/><stop offset="82%" stop-color="#dbdbdb"/><stop offset="90%" stop-color="#c6c6c6"/><stop offset="97%" stop-color="#aaa"/><stop offset="100%" stop-color="#9b9b9b"/></linearGradient></defs><g fill="none" fill-rule="nonzero"><path fill="url(#a)" d="M31.52 101.48H54v19.67H31.52z" transform="translate(.12 .01)"/><g opacity=".89"><path fill="#e8e6e6" d="M80.39 55.08c0 21.54 9.9 41.15-36.36 39-46.69-2.18-36.36-17.46-36.36-39 0-14.13.69-33.38 12.83-38.94 2.74-1.26 16.76 5.64 23.66 5.64 7.29 0 18-5.8 21.36-5.8 14.6.03 14.87 25.39 14.87 39.1"/><path fill="#c4c4c4" d="M80.39 55.08c0 5.63.73 11.22.9 16.85a34.2 34.2 0 0 1-.64 8.39 15.8 15.8 0 0 1-1.45 4 15 15 0 0 1-1.08 1.77 15 15 0 0 1-1.4 1.58 19.1 19.1 0 0 1-7.23 4.28 44 44 0 0 1-8.24 1.85c-5.6.636-11.242.816-16.87.54a128.5 128.5 0 0 1-16.82-1.61 51 51 0 0 1-8.23-2 24.5 24.5 0 0 1-7.57-3.94 14.6 14.6 0 0 1-2.9-3.22 14.1 14.1 0 0 1-1.78-3.94 27.9 27.9 0 0 1-.77-8.51c.23-5.66 1-11.22.9-16.82a124 124 0 0 1 .91-16.9 51.5 51.5 0 0 1 1.82-8.3 27.9 27.9 0 0 1 3.68-7.7 16.8 16.8 0 0 1 6.52-5.53 2.3 2.3 0 0 1 .58-.21q.292-.053.59-.05.557-.005 1.11.08 1.063.174 2.1.47c1.37.37 2.71.8 4.05 1.25 2.67.89 5.32 1.83 8 2.63 1.34.4 2.69.77 4.06 1a15.5 15.5 0 0 0 4.12.41 32 32 0 0 0 8.17-1.67c2.68-.84 5.3-1.86 8-2.79A21.6 21.6 0 0 1 65 15.85a10.5 10.5 0 0 1 4.2.58 12.23 12.23 0 0 1 6.18 5.58 29.2 29.2 0 0 1 3 7.87 63 63 0 0 1 1.38 8.32 158 158 0 0 1 .63 16.88m0 0a160 160 0 0 0-.71-16.84 63 63 0 0 0-1.42-8.3 29.1 29.1 0 0 0-3-7.82 11.9 11.9 0 0 0-6.14-5.43 10.35 10.35 0 0 0-4.09-.53 22.4 22.4 0 0 0-4 1.18c-2.64 1-5.25 2-7.93 2.88a32.8 32.8 0 0 1-8.3 1.79 16.8 16.8 0 0 1-4.25-.38c-1.39-.27-2.76-.63-4.12-1-2.71-.78-5.37-1.69-8-2.55-1.34-.43-2.68-.84-4-1.19a18 18 0 0 0-2-.42 3 3 0 0 0-1.84.13 16 16 0 0 0-6.15 5.32 27.1 27.1 0 0 0-3.53 7.47 50 50 0 0 0-1.79 8.14 125 125 0 0 0-.9 16.76c.06 5.66-.71 11.28-1 16.86a27.2 27.2 0 0 0 .7 8.22 13.2 13.2 0 0 0 1.66 3.72 14.2 14.2 0 0 0 2.71 3 24.4 24.4 0 0 0 7.26 3.92 51 51 0 0 0 8.1 2.07 128 128 0 0 0 16.72 1.78 104 104 0 0 0 16.81-.35 43.3 43.3 0 0 0 8.21-1.75 18.7 18.7 0 0 0 7.2-4.17 15 15 0 0 0 1.4-1.58 16 16 0 0 0 1.13-1.78 16 16 0 0 0 1.45-3.93 33.6 33.6 0 0 0 .68-8.37c-.13-5.62-.88-11.22-.86-16.85"/></g><path fill="url(#b)" d="M0 0h7.03v150H0z" transform="translate(.12 .01)"/><path fill="url(#c)" d="M79.72 0h7.03v150h-7.03z" transform="translate(.12 .01)"/><path fill="url(#d)" d="M67.21 8.07h5.21v10.27h-5.21z" transform="translate(.12 .01)"/><path fill="url(#d)" d="M14.62 8.07h5.21v10.27h-5.21z" transform="translate(.12 .01)"/><path fill="url(#e)" d="M0 0h86.74v8.07H0z" transform="translate(.12 .01)"/><path fill="url(#f)" d="M0 97.53h86.74v6.66H0z" transform="translate(.12 .01)"/><path fill="url(#f)" d="M0 134.11h86.74v6.66H0z" transform="translate(.12 .01)"/><path fill="url(#g)" d="M36.12 121.14H49.4v6.62H36.12z" transform="translate(.12 .01)"/><path fill="url(#h)" d="M34.4 127.77h16.64v2.6H34.4z" transform="translate(.12 .01)"/></g></svg>