<svg xmlns="http://www.w3.org/2000/svg" viewBox="0 0 117 151"><title>Flow meter（流量计）</title><defs><linearGradient id="a" x1="49.82%" x2="49.82%" y1="100%" y2="0%"><stop offset="0%" stop-color="#e2e2e2"/><stop offset="3%" stop-color="#d0d0d0"/><stop offset="6%" stop-color="#bcbcbc"/><stop offset="9%" stop-color="#b5b5b5"/><stop offset="49%" stop-color="#f6f6f6"/><stop offset="63%" stop-color="#f3f3f3"/><stop offset="73%" stop-color="#eaeaea"/><stop offset="82%" stop-color="#dbdbdb"/><stop offset="90%" stop-color="#c6c6c6"/><stop offset="97%" stop-color="#aaa"/><stop offset="100%" stop-color="#9b9b9b"/></linearGradient><linearGradient id="b" x1="49.967%" x2="49.967%" y1="100%" y2="0%"><stop offset="0%" stop-color="#e2e2e2"/><stop offset="3%" stop-color="#d0d0d0"/><stop offset="6%" stop-color="#bcbcbc"/><stop offset="9%" stop-color="#b5b5b5"/><stop offset="49%" stop-color="#f6f6f6"/><stop offset="63%" stop-color="#f3f3f3"/><stop offset="73%" stop-color="#eaeaea"/><stop offset="82%" stop-color="#dbdbdb"/><stop offset="90%" stop-color="#c6c6c6"/><stop offset="97%" stop-color="#aaa"/><stop offset="100%" stop-color="#9b9b9b"/></linearGradient><linearGradient id="c" x1="50.043%" x2="50.043%" y1="100%" y2="0%"><stop offset="0%" stop-color="#e2e2e2"/><stop offset="3%" stop-color="#d0d0d0"/><stop offset="6%" stop-color="#bcbcbc"/><stop offset="9%" stop-color="#b5b5b5"/><stop offset="49%" stop-color="#f6f6f6"/><stop offset="63%" stop-color="#f3f3f3"/><stop offset="73%" stop-color="#eaeaea"/><stop offset="82%" stop-color="#dbdbdb"/><stop offset="90%" stop-color="#c6c6c6"/><stop offset="97%" stop-color="#aaa"/><stop offset="100%" stop-color="#9b9b9b"/></linearGradient><linearGradient id="d" x1="50.041%" x2="50.041%" y1="100%" y2="0%"><stop offset="0%" stop-color="#e2e2e2"/><stop offset="3%" stop-color="#d0d0d0"/><stop offset="6%" stop-color="#bcbcbc"/><stop offset="9%" stop-color="#b5b5b5"/><stop offset="49%" stop-color="#f6f6f6"/><stop offset="63%" stop-color="#f3f3f3"/><stop offset="73%" stop-color="#eaeaea"/><stop offset="82%" stop-color="#dbdbdb"/><stop offset="90%" stop-color="#c6c6c6"/><stop offset="97%" stop-color="#aaa"/><stop offset="100%" stop-color="#9b9b9b"/></linearGradient><linearGradient id="e" x1="50.041%" x2="50.041%" y1="98.936%" y2="0%"><stop offset="0%" stop-color="#e2e2e2"/><stop offset="3%" stop-color="#d0d0d0"/><stop offset="6%" stop-color="#bcbcbc"/><stop offset="9%" stop-color="#b5b5b5"/><stop offset="49%" stop-color="#f6f6f6"/><stop offset="63%" stop-color="#f3f3f3"/><stop offset="73%" stop-color="#eaeaea"/><stop offset="82%" stop-color="#dbdbdb"/><stop offset="90%" stop-color="#c6c6c6"/><stop offset="97%" stop-color="#aaa"/><stop offset="100%" stop-color="#9b9b9b"/></linearGradient><linearGradient id="f" x1="0%" x2="100%" y1="50%" y2="50%"><stop offset="0%" stop-color="#e2e2e2"/><stop offset="3%" stop-color="#d0d0d0"/><stop offset="6%" stop-color="#bcbcbc"/><stop offset="9%" stop-color="#b5b5b5"/><stop offset="49%" stop-color="#f6f6f6"/><stop offset="63%" stop-color="#f3f3f3"/><stop offset="73%" stop-color="#eaeaea"/><stop offset="82%" stop-color="#dbdbdb"/><stop offset="90%" stop-color="#c6c6c6"/><stop offset="97%" stop-color="#aaa"/><stop offset="100%" stop-color="#9b9b9b"/></linearGradient><linearGradient id="g" x1="0%" x2="100%" y1="50%" y2="50%"><stop offset="0%" stop-color="#b7b7b7"/><stop offset="3%" stop-color="#d6d6d6"/><stop offset="4%" stop-color="#e4e4e4"/><stop offset="11%" stop-color="#ededed"/><stop offset="23%" stop-color="#f4f4f4"/><stop offset="56%" stop-color="#f6f6f6"/><stop offset="80%" stop-color="#f4f4f4"/><stop offset="89%" stop-color="#ededed"/><stop offset="95%" stop-color="#e2e2e2"/><stop offset="97%" stop-color="#dedede"/><stop offset="98%" stop-color="#c8c8c8"/><stop offset="100%" stop-color="#b3b3b3"/></linearGradient><linearGradient id="h" x1="0%" x2="100%" y1="50.336%" y2="50.336%"><stop offset="0%" stop-color="#e2e2e2"/><stop offset="3%" stop-color="#d0d0d0"/><stop offset="6%" stop-color="#bcbcbc"/><stop offset="9%" stop-color="#b5b5b5"/><stop offset="49%" stop-color="#f6f6f6"/><stop offset="63%" stop-color="#f3f3f3"/><stop offset="73%" stop-color="#eaeaea"/><stop offset="82%" stop-color="#dbdbdb"/><stop offset="90%" stop-color="#c6c6c6"/><stop offset="97%" stop-color="#aaa"/><stop offset="100%" stop-color="#9b9b9b"/></linearGradient><linearGradient id="i" x1="50.062%" x2="50.062%" y1="101.923%" y2="0%"><stop offset="0%" stop-color="#e2e2e2"/><stop offset="3%" stop-color="#d0d0d0"/><stop offset="6%" stop-color="#bcbcbc"/><stop offset="9%" stop-color="#b5b5b5"/><stop offset="49%" stop-color="#f6f6f6"/><stop offset="63%" stop-color="#f3f3f3"/><stop offset="73%" stop-color="#eaeaea"/><stop offset="82%" stop-color="#dbdbdb"/><stop offset="90%" stop-color="#c6c6c6"/><stop offset="97%" stop-color="#aaa"/><stop offset="100%" stop-color="#9b9b9b"/></linearGradient><linearGradient id="j" x1="50.062%" x2="50.062%" y1="100%" y2="0%"><stop offset="0%" stop-color="#e2e2e2"/><stop offset="3%" stop-color="#d0d0d0"/><stop offset="6%" stop-color="#bcbcbc"/><stop offset="9%" stop-color="#b5b5b5"/><stop offset="49%" stop-color="#f6f6f6"/><stop offset="63%" stop-color="#f3f3f3"/><stop offset="73%" stop-color="#eaeaea"/><stop offset="82%" stop-color="#dbdbdb"/><stop offset="90%" stop-color="#c6c6c6"/><stop offset="97%" stop-color="#aaa"/><stop offset="100%" stop-color="#9b9b9b"/></linearGradient><linearGradient id="k" x1="50%" x2="50%" y1="100%" y2="0%"><stop offset="0%" stop-color="#e2e2e2"/><stop offset="3%" stop-color="#d0d0d0"/><stop offset="6%" stop-color="#bcbcbc"/><stop offset="9%" stop-color="#b5b5b5"/><stop offset="49%" stop-color="#f6f6f6"/><stop offset="63%" stop-color="#f3f3f3"/><stop offset="73%" stop-color="#eaeaea"/><stop offset="82%" stop-color="#dbdbdb"/><stop offset="90%" stop-color="#c6c6c6"/><stop offset="97%" stop-color="#aaa"/><stop offset="100%" stop-color="#9b9b9b"/></linearGradient><linearGradient id="l" x1="49.924%" x2="49.924%" y1="100%" y2="0%"><stop offset="0%" stop-color="#e2e2e2"/><stop offset="3%" stop-color="#d0d0d0"/><stop offset="6%" stop-color="#bcbcbc"/><stop offset="9%" stop-color="#b5b5b5"/><stop offset="49%" stop-color="#f6f6f6"/><stop offset="63%" stop-color="#f3f3f3"/><stop offset="73%" stop-color="#eaeaea"/><stop offset="82%" stop-color="#dbdbdb"/><stop offset="90%" stop-color="#c6c6c6"/><stop offset="97%" stop-color="#aaa"/><stop offset="100%" stop-color="#9b9b9b"/></linearGradient><linearGradient id="m" x1="49.951%" x2="49.951%" y1="100%" y2="0%"><stop offset="0%" stop-color="#e2e2e2"/><stop offset="3%" stop-color="#d0d0d0"/><stop offset="6%" stop-color="#bcbcbc"/><stop offset="9%" stop-color="#b5b5b5"/><stop offset="49%" stop-color="#f6f6f6"/><stop offset="63%" stop-color="#f3f3f3"/><stop offset="73%" stop-color="#eaeaea"/><stop offset="82%" stop-color="#dbdbdb"/><stop offset="90%" stop-color="#c6c6c6"/><stop offset="97%" stop-color="#aaa"/><stop offset="100%" stop-color="#9b9b9b"/></linearGradient><linearGradient id="n" x1="50.076%" x2="50.076%" y1="0%" y2="100%"><stop offset="0%" stop-color="#e2e2e2"/><stop offset="3%" stop-color="#d0d0d0"/><stop offset="6%" stop-color="#bcbcbc"/><stop offset="9%" stop-color="#b5b5b5"/><stop offset="49%" stop-color="#f6f6f6"/><stop offset="63%" stop-color="#f3f3f3"/><stop offset="73%" stop-color="#eaeaea"/><stop offset="82%" stop-color="#dbdbdb"/><stop offset="90%" stop-color="#c6c6c6"/><stop offset="97%" stop-color="#aaa"/><stop offset="100%" stop-color="#9b9b9b"/></linearGradient><linearGradient id="o" x1="50.049%" x2="50.049%" y1="0%" y2="100%"><stop offset="0%" stop-color="#e2e2e2"/><stop offset="3%" stop-color="#d0d0d0"/><stop offset="6%" stop-color="#bcbcbc"/><stop offset="9%" stop-color="#b5b5b5"/><stop offset="49%" stop-color="#f6f6f6"/><stop offset="63%" stop-color="#f3f3f3"/><stop offset="73%" stop-color="#eaeaea"/><stop offset="82%" stop-color="#dbdbdb"/><stop offset="90%" stop-color="#c6c6c6"/><stop offset="97%" stop-color="#aaa"/><stop offset="100%" stop-color="#9b9b9b"/></linearGradient><linearGradient id="p" x1="50%" x2="50%" y1="100%" y2="0%"><stop offset="0%" stop-color="#6b6b6b"/><stop offset="11%" stop-color="#767676"/><stop offset="30%" stop-color="#959595"/><stop offset="41%" stop-color="#aaa"/><stop offset="56%" stop-color="#ccc"/><stop offset="71%" stop-color="#eaeaea"/><stop offset="80%" stop-color="#f6f6f6"/><stop offset="83%" stop-color="#ededed"/><stop offset="87%" stop-color="#d4d4d4"/><stop offset="92%" stop-color="#ababab"/><stop offset="98%" stop-color="#737373"/><stop offset="99%" stop-color="#666"/></linearGradient><linearGradient id="q" x1="50.142%" x2="50.142%" y1="100%" y2="0%"><stop offset="0%" stop-color="#e2e2e2"/><stop offset="3%" stop-color="#d0d0d0"/><stop offset="6%" stop-color="#bcbcbc"/><stop offset="9%" stop-color="#b5b5b5"/><stop offset="49%" stop-color="#f6f6f6"/><stop offset="63%" stop-color="#f3f3f3"/><stop offset="73%" stop-color="#eaeaea"/><stop offset="82%" stop-color="#dbdbdb"/><stop offset="90%" stop-color="#c6c6c6"/><stop offset="97%" stop-color="#aaa"/><stop offset="100%" stop-color="#9b9b9b"/></linearGradient><linearGradient id="r" x1="49.858%" x2="49.858%" y1="99.973%" y2="0%"><stop offset="0%" stop-color="#e2e2e2"/><stop offset="3%" stop-color="#d0d0d0"/><stop offset="6%" stop-color="#bcbcbc"/><stop offset="9%" stop-color="#b5b5b5"/><stop offset="49%" stop-color="#f6f6f6"/><stop offset="63%" stop-color="#f3f3f3"/><stop offset="73%" stop-color="#eaeaea"/><stop offset="82%" stop-color="#dbdbdb"/><stop offset="90%" stop-color="#c6c6c6"/><stop offset="97%" stop-color="#aaa"/><stop offset="100%" stop-color="#9b9b9b"/></linearGradient><linearGradient id="s" x1=".074%" x2="100%" y1="49.968%" y2="49.968%"><stop offset="0%" stop-color="#e2e2e2"/><stop offset="3%" stop-color="#d0d0d0"/><stop offset="6%" stop-color="#bcbcbc"/><stop offset="9%" stop-color="#b5b5b5"/><stop offset="49%" stop-color="#f6f6f6"/><stop offset="63%" stop-color="#f3f3f3"/><stop offset="73%" stop-color="#eaeaea"/><stop offset="82%" stop-color="#dbdbdb"/><stop offset="90%" stop-color="#c6c6c6"/><stop offset="97%" stop-color="#aaa"/><stop offset="100%" stop-color="#9b9b9b"/></linearGradient><linearGradient id="t" x1="0%" x2="100%" y1="50%" y2="50%"><stop offset="0%" stop-color="#e2e2e2"/><stop offset="3%" stop-color="#d0d0d0"/><stop offset="6%" stop-color="#bcbcbc"/><stop offset="9%" stop-color="#b5b5b5"/><stop offset="49%" stop-color="#f6f6f6"/><stop offset="63%" stop-color="#f3f3f3"/><stop offset="73%" stop-color="#eaeaea"/><stop offset="82%" stop-color="#dbdbdb"/><stop offset="90%" stop-color="#c6c6c6"/><stop offset="97%" stop-color="#aaa"/><stop offset="100%" stop-color="#9b9b9b"/></linearGradient><linearGradient id="u" x1="0%" x2="100%" y1="50%" y2="50%"><stop offset="0%" stop-color="#e2e2e2"/><stop offset="3%" stop-color="#d0d0d0"/><stop offset="6%" stop-color="#bcbcbc"/><stop offset="9%" stop-color="#b5b5b5"/><stop offset="49%" stop-color="#f6f6f6"/><stop offset="63%" stop-color="#f3f3f3"/><stop offset="73%" stop-color="#eaeaea"/><stop offset="82%" stop-color="#dbdbdb"/><stop offset="90%" stop-color="#c6c6c6"/><stop offset="97%" stop-color="#aaa"/><stop offset="100%" stop-color="#9b9b9b"/></linearGradient><linearGradient id="v" x1="0%" x2="100%" y1="49.829%" y2="49.829%"><stop offset="0%" stop-color="#6b6b6b"/><stop offset="11%" stop-color="#767676"/><stop offset="30%" stop-color="#959595"/><stop offset="41%" stop-color="#aaa"/><stop offset="56%" stop-color="#ccc"/><stop offset="71%" stop-color="#eaeaea"/><stop offset="80%" stop-color="#f6f6f6"/><stop offset="83%" stop-color="#ededed"/><stop offset="87%" stop-color="#d4d4d4"/><stop offset="92%" stop-color="#ababab"/><stop offset="98%" stop-color="#737373"/><stop offset="99%" stop-color="#666"/></linearGradient><linearGradient id="w" x1="0%" x2="100%" y1="50%" y2="50%"><stop offset="0%" stop-color="#e2e2e2"/><stop offset="3%" stop-color="#d0d0d0"/><stop offset="6%" stop-color="#bcbcbc"/><stop offset="9%" stop-color="#b5b5b5"/><stop offset="49%" stop-color="#f6f6f6"/><stop offset="63%" stop-color="#f3f3f3"/><stop offset="73%" stop-color="#eaeaea"/><stop offset="82%" stop-color="#dbdbdb"/><stop offset="90%" stop-color="#c6c6c6"/><stop offset="97%" stop-color="#aaa"/><stop offset="100%" stop-color="#9b9b9b"/></linearGradient><linearGradient id="x" x1="49.359%" x2="49.359%" y1="100%" y2="0%"><stop offset="0%" stop-color="#e2e2e2"/><stop offset="3%" stop-color="#d0d0d0"/><stop offset="6%" stop-color="#bcbcbc"/><stop offset="9%" stop-color="#b5b5b5"/><stop offset="49%" stop-color="#f6f6f6"/><stop offset="63%" stop-color="#f3f3f3"/><stop offset="73%" stop-color="#eaeaea"/><stop offset="82%" stop-color="#dbdbdb"/><stop offset="90%" stop-color="#c6c6c6"/><stop offset="97%" stop-color="#aaa"/><stop offset="100%" stop-color="#9b9b9b"/></linearGradient><linearGradient id="y" x1="49.782%" x2="49.782%" y1="100%" y2="0%"><stop offset="0%" stop-color="#e2e2e2"/><stop offset="3%" stop-color="#d0d0d0"/><stop offset="6%" stop-color="#bcbcbc"/><stop offset="9%" stop-color="#b5b5b5"/><stop offset="49%" stop-color="#f6f6f6"/><stop offset="63%" stop-color="#f3f3f3"/><stop offset="73%" stop-color="#eaeaea"/><stop offset="82%" stop-color="#dbdbdb"/><stop offset="90%" stop-color="#c6c6c6"/><stop offset="97%" stop-color="#aaa"/><stop offset="100%" stop-color="#9b9b9b"/></linearGradient><linearGradient id="z" x1="49.789%" x2="49.789%" y1="100%" y2="0%"><stop offset="0%" stop-color="#e2e2e2"/><stop offset="3%" stop-color="#d0d0d0"/><stop offset="6%" stop-color="#bcbcbc"/><stop offset="9%" stop-color="#b5b5b5"/><stop offset="49%" stop-color="#f6f6f6"/><stop offset="63%" stop-color="#f3f3f3"/><stop offset="73%" stop-color="#eaeaea"/><stop offset="82%" stop-color="#dbdbdb"/><stop offset="90%" stop-color="#c6c6c6"/><stop offset="97%" stop-color="#aaa"/><stop offset="100%" stop-color="#9b9b9b"/></linearGradient><linearGradient id="A" x1="49.749%" x2="49.749%" y1="100%" y2="0%"><stop offset="0%" stop-color="#e2e2e2"/><stop offset="3%" stop-color="#d0d0d0"/><stop offset="6%" stop-color="#bcbcbc"/><stop offset="9%" stop-color="#b5b5b5"/><stop offset="49%" stop-color="#f6f6f6"/><stop offset="63%" stop-color="#f3f3f3"/><stop offset="73%" stop-color="#eaeaea"/><stop offset="82%" stop-color="#dbdbdb"/><stop offset="90%" stop-color="#c6c6c6"/><stop offset="97%" stop-color="#aaa"/><stop offset="100%" stop-color="#9b9b9b"/></linearGradient><linearGradient id="B" x1="49.359%" x2="49.359%" y1="100.087%" y2="0%"><stop offset="0%" stop-color="#e2e2e2"/><stop offset="3%" stop-color="#d0d0d0"/><stop offset="6%" stop-color="#bcbcbc"/><stop offset="9%" stop-color="#b5b5b5"/><stop offset="49%" stop-color="#f6f6f6"/><stop offset="63%" stop-color="#f3f3f3"/><stop offset="73%" stop-color="#eaeaea"/><stop offset="82%" stop-color="#dbdbdb"/><stop offset="90%" stop-color="#c6c6c6"/><stop offset="97%" stop-color="#aaa"/><stop offset="100%" stop-color="#9b9b9b"/></linearGradient><linearGradient id="C" x1="49.683%" x2="49.683%" y1="100%" y2="0%"><stop offset="0%" stop-color="#e2e2e2"/><stop offset="3%" stop-color="#d0d0d0"/><stop offset="6%" stop-color="#bcbcbc"/><stop offset="9%" stop-color="#b5b5b5"/><stop offset="49%" stop-color="#f6f6f6"/><stop offset="63%" stop-color="#f3f3f3"/><stop offset="73%" stop-color="#eaeaea"/><stop offset="82%" stop-color="#dbdbdb"/><stop offset="90%" stop-color="#c6c6c6"/><stop offset="97%" stop-color="#aaa"/><stop offset="100%" stop-color="#9b9b9b"/></linearGradient></defs><g fill="none" fill-rule="evenodd" transform="translate(.12 .01)"><path fill="url(#a)" fill-rule="nonzero" d="M36.67 21.88h5.56v5.33h-5.56z"/><path fill="url(#b)" fill-rule="nonzero" d="M30.8 26.27h14.97v8.75H30.8z"/><path fill="url(#c)" fill-rule="nonzero" d="M30.8 13.13h11.73v8.75H30.8z"/><path fill="url(#d)" fill-rule="nonzero" d="M30.8 13.13h12.23v1H30.8z"/><path fill="url(#d)" fill-rule="nonzero" d="M30.8 14.67h12.23v1H30.8z"/><path fill="url(#d)" fill-rule="nonzero" d="M30.8 16.22h12.23v1H30.8z"/><path fill="url(#d)" fill-rule="nonzero" d="M30.8 17.77h12.23v1H30.8z"/><path fill="url(#e)" fill-rule="nonzero" d="M30.8 19.32h12.23v1H30.8z"/><path fill="url(#d)" fill-rule="nonzero" d="M30.8 20.86h12.23v1H30.8z"/><path fill="url(#c)" fill-rule="nonzero" d="M30.8 26.27h11.73v8.75H30.8z"/><path fill="url(#d)" fill-rule="nonzero" d="M30.8 26.27h12.23v1H30.8z"/><path fill="url(#d)" fill-rule="nonzero" d="M30.8 27.82h12.23v1H30.8z"/><path fill="url(#d)" fill-rule="nonzero" d="M30.8 29.36h12.23v1H30.8z"/><path fill="url(#d)" fill-rule="nonzero" d="M30.8 30.91h12.23v1H30.8z"/><path fill="url(#d)" fill-rule="nonzero" d="M30.8 32.46h12.23v1H30.8z"/><path fill="url(#e)" fill-rule="nonzero" d="M30.8 34.01h12.23v1H30.8z"/><path fill="url(#f)" fill-rule="nonzero" d="M57.37 44.15h8v11.98h-8z"/><path fill="url(#g)" fill-rule="nonzero" d="M80.61 15.45h8.67v13.96h-8.67z"/><circle cx="61.37" cy="22.48" r="20.54" fill="#fff" fill-rule="nonzero"/><path fill="#eaeaea" fill-rule="nonzero" d="M40.83 22.48a20.53 20.53 0 0 0 9 17 22 22 0 0 0 3.05.24c12.257-.11 22.105-10.133 22-22.39a22.46 22.46 0 0 0-4.23-13.15 20.5 20.5 0 0 0-29.82 18.3"/><path fill="#7f7f7f" fill-rule="nonzero" d="M61.37 0C48.955 0 38.89 10.065 38.89 22.48s10.065 22.48 22.48 22.48 22.48-10.065 22.48-22.48A22.47 22.47 0 0 0 61.37 0m0 43A20.54 20.54 0 1 1 81.9 22.48C81.889 33.812 72.702 42.994 61.37 43"/><path fill="#7f7f7f" fill-rule="nonzero" d="M57.14 35.69h8.45v4.15h-8.45z"/><path stroke="#dedede" stroke-width=".1" d="M57.62 36.23h7.5v3.07h-7.5z"/><circle cx="61.37" cy="22.48" r="19.72" fill="#c1c1c1" fill-rule="nonzero" opacity=".51"/><path fill="url(#h)" fill-rule="nonzero" d="M60.17 56.13h2.39v1.49h-2.39z"/><path fill="url(#i)" fill-rule="nonzero" d="M57.31 49.85h8.11v1h-8.11z"/><path fill="url(#j)" fill-rule="nonzero" d="M57.31 51.17h8.11v1h-8.11z"/><path fill="url(#i)" fill-rule="nonzero" d="M57.31 52.4h8.11v1h-8.11z"/><path fill="url(#i)" fill-rule="nonzero" d="M57.31 53.55h8.11v1h-8.11z"/><path fill="url(#j)" fill-rule="nonzero" d="M57.31 54.66h8.11v1h-8.11z"/><path fill="#7f7f7f" fill-rule="nonzero" d="M68.81 18.81 66.6 16.6a.86.86 0 0 0-1.21 0 1 1 0 0 0-.08.12v.06c0 .07-.06.13-.08.19a15.1 15.1 0 0 1-2.4 3.67c-2.86 3-15 14.24-15 14.24s12.89-10.24 16.89-13a17.8 17.8 0 0 1 3.7-1.58.7.7 0 0 0 .24-.07.85.85 0 0 0 .15-1.42"/><circle cx="62.06" cy="22.74" r="1.78" fill="#7f7f7f" fill-rule="nonzero"/><path stroke="#7f7f7f" stroke-width=".25" d="m70.19 6.17-1.45 2.74m-15.6-2.74 1.45 2.74m-11.3 11.14 3.06.44m33.89-.53-3.06.44"/><circle cx="62.06" cy="22.74" r="1.01" fill="#dedede" fill-rule="nonzero"/><path fill="url(#k)" fill-rule="nonzero" d="M19.1 101.67h82.96v32.4H19.1z"/><path fill="url(#l)" fill-rule="nonzero" d="M96.3 96.91h6.59v43.02H96.3z"/><path fill="url(#m)" fill-rule="nonzero" d="M102.89 88.49h10.25V150h-10.25z"/><path fill="url(#n)" fill-rule="nonzero" d="M13.79 96.91h6.59v43.02h-6.59z" transform="matrix(-1 0 0 -1 34.17 236.84)"/><path fill="url(#o)" fill-rule="nonzero" d="M3.54 88.49h10.25V150H3.54z" transform="matrix(-1 0 0 -1 17.33 238.49)"/><path fill="url(#p)" fill-rule="nonzero" d="M27.51 101.67h1.78v32.4h-1.78z"/><path fill="url(#p)" fill-rule="nonzero" d="M86.78 101.67h1.78v32.4h-1.78z"/><path fill="url(#q)" fill-rule="nonzero" d="M0 99.29h3.53v37.53H0z"/><path fill="url(#r)" fill-rule="nonzero" d="M113.14 99.66h3.53v37.53h-3.53z"/><path fill="url(#s)" fill-rule="nonzero" d="M53.85 76.41h13.46v25.12a6.26 6.26 0 0 1-6.26 6.26h-.95a6.26 6.26 0 0 1-6.26-6.26V76.41z"/><path fill="url(#t)" fill-rule="nonzero" d="M51.44 73.84H70.3v2.56H51.44z"/><path fill="url(#u)" fill-rule="nonzero" d="M49.8 59.38h22.15v14.46H49.8z"/><path fill="url(#v)" fill-rule="nonzero" d="M43.94 56.45h32.77v2.93H43.94z"/><path fill="url(#w)" fill-rule="nonzero" d="M43.94 40.89h32.77v15.56H43.94z"/><path fill="url(#x)" fill-rule="nonzero" d="M29.25 11.6h1.56v11.44h-1.56z"/><path fill="url(#y)" fill-rule="nonzero" d="M26.96 13.13h2.29v8.6h-2.29z"/><path fill="url(#z)" fill-rule="nonzero" d="M22.09 13.2H25v8.6h-2.91a1.82 1.82 0 0 1-1.83-1.8v-5a1.82 1.82 0 0 1 1.83-1.8"/><path fill="url(#A)" fill-rule="nonzero" d="M24.97 14.67h1.99v5.58h-1.99z"/><path fill="url(#B)" fill-rule="nonzero" d="M29.25 24.92h1.56v11.44h-1.56z"/><path fill="url(#y)" fill-rule="nonzero" d="M26.96 26.45h2.29v8.6h-2.29z"/><path fill="url(#C)" fill-rule="nonzero" d="M22.09 26.53H25v8.6h-2.91a1.82 1.82 0 0 1-1.82-1.82v-5a1.82 1.82 0 0 1 1.82-1.78"/><path fill="url(#A)" fill-rule="nonzero" d="M24.97 28h1.99v5.58h-1.99z"/></g></svg>