<svg xmlns="http://www.w3.org/2000/svg" viewBox="0 0 64 151"><title>Three-stage wet collector（三级湿式收集器）</title><defs><linearGradient id="a" x1="0%" x2="100%" y1="50.005%" y2="50.005%"><stop offset="0%" stop-color="#6b6b6b"/><stop offset="1%" stop-color="#767676"/><stop offset="3%" stop-color="#959595"/><stop offset="4%" stop-color="#aaa"/><stop offset="37%" stop-color="#ccc"/><stop offset="74%" stop-color="#eaeaea"/><stop offset="94%" stop-color="#f6f6f6"/><stop offset="95%" stop-color="#ededed"/><stop offset="96%" stop-color="#d4d4d4"/><stop offset="97%" stop-color="#ababab"/><stop offset="99%" stop-color="#737373"/><stop offset="99%" stop-color="#666"/></linearGradient><linearGradient id="b" x1="0%" x2="100%" y1="50%" y2="50%"><stop offset="0%" stop-color="#6b6b6b"/><stop offset="1%" stop-color="#767676"/><stop offset="3%" stop-color="#959595"/><stop offset="4%" stop-color="#aaa"/><stop offset="37%" stop-color="#ccc"/><stop offset="74%" stop-color="#eaeaea"/><stop offset="94%" stop-color="#f6f6f6"/><stop offset="95%" stop-color="#ededed"/><stop offset="96%" stop-color="#d4d4d4"/><stop offset="97%" stop-color="#ababab"/><stop offset="99%" stop-color="#737373"/><stop offset="99%" stop-color="#666"/></linearGradient><linearGradient id="c" x1="0%" x2="100%" y1="50.186%" y2="50.186%"><stop offset="0%" stop-color="#6b6b6b"/><stop offset="1%" stop-color="#767676"/><stop offset="3%" stop-color="#959595"/><stop offset="4%" stop-color="#aaa"/><stop offset="37%" stop-color="#ccc"/><stop offset="74%" stop-color="#eaeaea"/><stop offset="94%" stop-color="#f6f6f6"/><stop offset="95%" stop-color="#ededed"/><stop offset="96%" stop-color="#d4d4d4"/><stop offset="97%" stop-color="#ababab"/><stop offset="99%" stop-color="#737373"/><stop offset="99%" stop-color="#666"/></linearGradient><linearGradient id="d" x1="0%" x2="100.213%" y1="50%" y2="50%"><stop offset="0%" stop-color="#6b6b6b"/><stop offset="1%" stop-color="#767676"/><stop offset="3%" stop-color="#959595"/><stop offset="4%" stop-color="#aaa"/><stop offset="37%" stop-color="#ccc"/><stop offset="74%" stop-color="#eaeaea"/><stop offset="94%" stop-color="#f6f6f6"/><stop offset="95%" stop-color="#ededed"/><stop offset="96%" stop-color="#d4d4d4"/><stop offset="97%" stop-color="#ababab"/><stop offset="99%" stop-color="#737373"/><stop offset="99%" stop-color="#666"/></linearGradient><linearGradient id="e" x1="0%" x2="100%" y1="50.026%" y2="50.026%"><stop offset="0%" stop-color="#6b6b6b"/><stop offset="1%" stop-color="#767676"/><stop offset="3%" stop-color="#959595"/><stop offset="4%" stop-color="#aaa"/><stop offset="37%" stop-color="#ccc"/><stop offset="74%" stop-color="#eaeaea"/><stop offset="94%" stop-color="#f6f6f6"/><stop offset="95%" stop-color="#ededed"/><stop offset="96%" stop-color="#d4d4d4"/><stop offset="97%" stop-color="#ababab"/><stop offset="99%" stop-color="#737373"/><stop offset="99%" stop-color="#666"/></linearGradient><linearGradient id="f" x1="0%" x2="100.204%" y1="50%" y2="50%"><stop offset="0%" stop-color="#e2e2e2"/><stop offset="3%" stop-color="#d0d0d0"/><stop offset="6%" stop-color="#bcbcbc"/><stop offset="9%" stop-color="#b5b5b5"/><stop offset="49%" stop-color="#f6f6f6"/><stop offset="63%" stop-color="#f3f3f3"/><stop offset="73%" stop-color="#eaeaea"/><stop offset="82%" stop-color="#dbdbdb"/><stop offset="90%" stop-color="#c6c6c6"/><stop offset="97%" stop-color="#aaa"/><stop offset="100%" stop-color="#9b9b9b"/></linearGradient><linearGradient id="g" x1="0%" x2="100%" y1="50%" y2="50%"><stop offset="0%" stop-color="#e2e2e2"/><stop offset="3%" stop-color="#d0d0d0"/><stop offset="6%" stop-color="#bcbcbc"/><stop offset="9%" stop-color="#b5b5b5"/><stop offset="49%" stop-color="#f6f6f6"/><stop offset="63%" stop-color="#f3f3f3"/><stop offset="73%" stop-color="#eaeaea"/><stop offset="82%" stop-color="#dbdbdb"/><stop offset="90%" stop-color="#c6c6c6"/><stop offset="97%" stop-color="#aaa"/><stop offset="100%" stop-color="#9b9b9b"/></linearGradient><linearGradient id="h" x1="0%" x2="100%" y1="50.022%" y2="50.022%"><stop offset="0%" stop-color="#e2e2e2"/><stop offset="3%" stop-color="#d0d0d0"/><stop offset="6%" stop-color="#bcbcbc"/><stop offset="9%" stop-color="#b5b5b5"/><stop offset="49%" stop-color="#f6f6f6"/><stop offset="63%" stop-color="#f3f3f3"/><stop offset="73%" stop-color="#eaeaea"/><stop offset="82%" stop-color="#dbdbdb"/><stop offset="90%" stop-color="#c6c6c6"/><stop offset="97%" stop-color="#aaa"/><stop offset="100%" stop-color="#9b9b9b"/></linearGradient></defs><g fill="none" fill-rule="nonzero"><path fill="url(#a)" d="M2.71 42.12h57.92v96.35H2.71z" transform="translate(.12 .01)"/><path fill="#b9b8bc" stroke="#565656" d="M20.04 116.71h24.63v14.43H20.04zM8.83 51.74h8.24v6.68H8.83zm12.49 0h8.24v6.68h-8.24zm12.49 0h8.24v6.68h-8.24zm12.5 0h8.24v6.68h-8.24z"/><path fill="url(#b)" d="M2.71 138.48H7.4v8.84H2.71z" transform="translate(.12 .01)"/><path fill="url(#c)" d="M0 147.31h10.02V150H0z" transform="translate(.12 .01)"/><path fill="url(#d)" d="M55.93 138.48h4.69v8.84h-4.69z" transform="translate(.12 .01)"/><path fill="url(#c)" d="M53.23 147.31h10.02V150H53.23z" transform="translate(.12 .01)"/><path fill="url(#e)" d="M11.49 22.73h40.35v19.39H11.49z" transform="translate(.12 .01)"/><path fill="url(#f)" d="M4.32 38.76h4.89v3.36H4.32z" transform="translate(.12 .01)"/><path fill="url(#g)" d="M54.43 38.76h4.89v3.36h-4.89z" transform="translate(.12 .01)"/><path fill="#b9b8bc" stroke="#565656" stroke-width=".25" d="M22.42 24.29h3.6v1.7h-3.6zm5.99 0h3.6v1.7h-3.6zm5.99 0H38v1.7h-3.6zm6 0H44v1.7h-3.6zm5.99 0h3.6v1.7h-3.6zm-23.97 2.67h3.6v1.7h-3.6zm5.99 0h3.6v1.7h-3.6zm5.99 0H38v1.7h-3.6zm6 0H44v1.7h-3.6zm5.99 0h3.6v1.7h-3.6zm-23.97 2.66h3.6v1.7h-3.6zm5.99 0h3.6v1.7h-3.6zm5.99 0H38v1.7h-3.6zm6 0H44v1.7h-3.6zm5.99 0h3.6v1.7h-3.6zm-23.97 2.67h3.6v1.7h-3.6zm5.99 0h3.6v1.7h-3.6zm5.99 0H38v1.7h-3.6zm6 0H44v1.7h-3.6zm5.99 0h3.6v1.7h-3.6zm-23.97 2.66h3.6v1.7h-3.6zm5.99 0h3.6v1.7h-3.6zm5.99 0H38v1.7h-3.6zm6 0H44v1.7h-3.6zm5.99 0h3.6v1.7h-3.6zm-23.97 2.66h3.6v1.7h-3.6zm5.99 0h3.6v1.7h-3.6zm5.99 0H38v1.7h-3.6zm6 0H44v1.7h-3.6zm5.99 0h3.6v1.7h-3.6zm-23.97 2.67h3.6v1.7h-3.6zm5.99 0h3.6v1.7h-3.6zm5.99 0H38v1.7h-3.6zm6 0H44v1.7h-3.6zm5.99 0h3.6v1.7h-3.6z"/><path fill="url(#h)" d="M19.04 0h12.85v22.73H19.04z" transform="translate(.12 .01)"/></g></svg>