<svg xmlns="http://www.w3.org/2000/svg" viewBox="0 0 133 151"><title>truck(卡车)</title><defs><linearGradient id="a" x1="50.024%" x2="50.024%" y1="100%" y2="0%"><stop offset="0%" stop-color="#e2e2e2"/><stop offset="3%" stop-color="#d0d0d0"/><stop offset="6%" stop-color="#bcbcbc"/><stop offset="9%" stop-color="#b5b5b5"/><stop offset="49%" stop-color="#f6f6f6"/><stop offset="63%" stop-color="#f3f3f3"/><stop offset="73%" stop-color="#eaeaea"/><stop offset="82%" stop-color="#dbdbdb"/><stop offset="90%" stop-color="#c6c6c6"/><stop offset="97%" stop-color="#aaa"/><stop offset="100%" stop-color="#9b9b9b"/></linearGradient><linearGradient id="b" x1="49.756%" x2="49.756%" y1="100%" y2="0%"><stop offset="0%" stop-color="#6b6b6b"/><stop offset="11%" stop-color="#767676"/><stop offset="30%" stop-color="#959595"/><stop offset="41%" stop-color="#aaa"/><stop offset="56%" stop-color="#ccc"/><stop offset="71%" stop-color="#eaeaea"/><stop offset="80%" stop-color="#f6f6f6"/><stop offset="83%" stop-color="#ededed"/><stop offset="87%" stop-color="#d4d4d4"/><stop offset="92%" stop-color="#ababab"/><stop offset="98%" stop-color="#737373"/><stop offset="99%" stop-color="#666"/></linearGradient><linearGradient id="c" x1="0%" x2="100%" y1="50%" y2="50%"><stop offset="0%" stop-color="#6b6b6b"/><stop offset="1%" stop-color="#767676"/><stop offset="3%" stop-color="#959595"/><stop offset="4%" stop-color="#aaa"/><stop offset="37%" stop-color="#ccc"/><stop offset="74%" stop-color="#eaeaea"/><stop offset="94%" stop-color="#f6f6f6"/><stop offset="95%" stop-color="#ededed"/><stop offset="96%" stop-color="#d4d4d4"/><stop offset="97%" stop-color="#ababab"/><stop offset="99%" stop-color="#737373"/><stop offset="99%" stop-color="#666"/></linearGradient><linearGradient id="d" x1="0%" x2="100%" y1="50.007%" y2="50.007%"><stop offset="0%" stop-color="#6b6b6b"/><stop offset="1%" stop-color="#767676"/><stop offset="3%" stop-color="#959595"/><stop offset="4%" stop-color="#aaa"/><stop offset="37%" stop-color="#ccc"/><stop offset="74%" stop-color="#eaeaea"/><stop offset="94%" stop-color="#f6f6f6"/><stop offset="95%" stop-color="#ededed"/><stop offset="96%" stop-color="#d4d4d4"/><stop offset="97%" stop-color="#ababab"/><stop offset="99%" stop-color="#737373"/><stop offset="99%" stop-color="#666"/></linearGradient><linearGradient id="e" x1="0%" x2="100%" y1="49.948%" y2="49.948%"><stop offset="0%" stop-color="#6b6b6b"/><stop offset="1%" stop-color="#767676"/><stop offset="3%" stop-color="#959595"/><stop offset="4%" stop-color="#aaa"/><stop offset="37%" stop-color="#ccc"/><stop offset="74%" stop-color="#eaeaea"/><stop offset="94%" stop-color="#f6f6f6"/><stop offset="95%" stop-color="#ededed"/><stop offset="96%" stop-color="#d4d4d4"/><stop offset="97%" stop-color="#ababab"/><stop offset="99%" stop-color="#737373"/><stop offset="99%" stop-color="#666"/></linearGradient><linearGradient id="f" x1="0%" x2="100%" y1="50%" y2="50%"><stop offset="0%" stop-color="#6b6b6b"/><stop offset="1%" stop-color="#767676"/><stop offset="3%" stop-color="#959595"/><stop offset="4%" stop-color="#aaa"/><stop offset="37%" stop-color="#ccc"/><stop offset="74%" stop-color="#eaeaea"/><stop offset="94%" stop-color="#f6f6f6"/><stop offset="95%" stop-color="#ededed"/><stop offset="96%" stop-color="#d4d4d4"/><stop offset="97%" stop-color="#ababab"/><stop offset="99%" stop-color="#737373"/><stop offset="99%" stop-color="#666"/></linearGradient><linearGradient id="g" x1="50.004%" x2="50.004%" y1="100%" y2="0%"><stop offset="0%" stop-color="#6b6b6b"/><stop offset="1%" stop-color="#767676"/><stop offset="3%" stop-color="#959595"/><stop offset="4%" stop-color="#aaa"/><stop offset="37%" stop-color="#ccc"/><stop offset="74%" stop-color="#eaeaea"/><stop offset="94%" stop-color="#f6f6f6"/><stop offset="95%" stop-color="#ededed"/><stop offset="96%" stop-color="#d4d4d4"/><stop offset="97%" stop-color="#ababab"/><stop offset="99%" stop-color="#737373"/><stop offset="99%" stop-color="#666"/></linearGradient><linearGradient id="h" x1="0%" x2="100%" y1="50%" y2="50%"><stop offset="0%" stop-color="#e2e2e2"/><stop offset="3%" stop-color="#d0d0d0"/><stop offset="6%" stop-color="#bcbcbc"/><stop offset="9%" stop-color="#b5b5b5"/><stop offset="49%" stop-color="#f6f6f6"/><stop offset="63%" stop-color="#f3f3f3"/><stop offset="73%" stop-color="#eaeaea"/><stop offset="82%" stop-color="#dbdbdb"/><stop offset="90%" stop-color="#c6c6c6"/><stop offset="97%" stop-color="#aaa"/><stop offset="100%" stop-color="#9b9b9b"/></linearGradient><linearGradient id="i" x1="50%" x2="50%" y1="100%" y2="0%"><stop offset="0%" stop-color="#e2e2e2"/><stop offset="3%" stop-color="#d0d0d0"/><stop offset="6%" stop-color="#bcbcbc"/><stop offset="9%" stop-color="#b5b5b5"/><stop offset="49%" stop-color="#f6f6f6"/><stop offset="63%" stop-color="#f3f3f3"/><stop offset="73%" stop-color="#eaeaea"/><stop offset="82%" stop-color="#dbdbdb"/><stop offset="90%" stop-color="#c6c6c6"/><stop offset="97%" stop-color="#aaa"/><stop offset="100%" stop-color="#9b9b9b"/></linearGradient><linearGradient id="j" x1="50%" x2="50%" y1="99.457%" y2="0%"><stop offset="0%" stop-color="#e2e2e2"/><stop offset="3%" stop-color="#d0d0d0"/><stop offset="6%" stop-color="#bcbcbc"/><stop offset="9%" stop-color="#b5b5b5"/><stop offset="49%" stop-color="#f6f6f6"/><stop offset="63%" stop-color="#f3f3f3"/><stop offset="73%" stop-color="#eaeaea"/><stop offset="82%" stop-color="#dbdbdb"/><stop offset="90%" stop-color="#c6c6c6"/><stop offset="97%" stop-color="#aaa"/><stop offset="100%" stop-color="#9b9b9b"/></linearGradient></defs><g fill="none" fill-rule="nonzero"><path fill="url(#a)" d="M5.19 108.879h21.23v41.36H5.19z" transform="translate(.12)"/><path fill="url(#b)" d="M14.91 108.879h2.05v41.36h-2.05z" transform="translate(.12)"/><path fill="url(#a)" d="M107.41 108.879h21.23v41.36h-21.23z" transform="translate(.12)"/><path fill="url(#b)" d="M117.13 108.879h2.05v41.36h-2.05z" transform="translate(.12)"/><path fill="url(#c)" d="M8.09 80.289h115.45v18.9H8.09z" transform="translate(.12)"/><path fill="url(#d)" d="M36.17.019h56.88v69.03H36.17z" transform="translate(.12)"/><path fill="#7a797c" d="M42.12 92.74a49.87 49.87 0 0 0 28.56 6.27 49.63 49.63 0 0 0 42.93-65.3A49.94 49.94 0 0 0 69.12.07C48.718-1.01 29.754 10.573 21.4 29.22c-9.06 20.07-4.84 48.33 20.72 63.52"/><path fill="#7a797c" d="M66.53 97.23C21.46 98.37 6.38 49.38 28.12 28.67 51.04 6.83 94.88 31.88 93.26 65.9c-1.08 22.7-17.14 28.11-26.73 31.33a38.45 38.45 0 0 1-24.41-4.49l2.54 1.34c1.14.53 2.67 1.22 3.83 1.7l2.09.77c.74.23 1.72.55 2.46.77l1.69.44c.54.13 1.25.3 1.78.41l1.42.27 1.42.23 1.23.17 1.22.13 1.13.09c.34 0 .79.06 1.12.07h5.44l1.19-.12 1.24-.12 1.31-.15 1.61-.25a50 50 0 0 0 10-2.8l2.54-1.09a48 48 0 0 0 5.57-3l2.77-1.87c1.21-.95 2.82-2.21 4-3.22l2.59-2.5c.92-1 2.16-2.38 3-3.45l2.22-3c.7-1.11 1.66-2.58 2.31-3.72l1.73-3.38c.5-1.2 1.2-2.77 1.64-4l1.18-3.7c.29-1.26.72-2.94 1-4.21l.56-3.94c.08-1.48.23-3.45.25-4.92l-.16-4c-.15-1.3-.32-3-.53-4.32l-.81-3.85c-.36-1.23-.8-2.88-1.22-4.1l-1.36-3.63c-.56-1.15-1.26-2.7-1.87-3.83l-1.93-3.24c-.74-1.06-1.71-2.5-2.5-3.52l-2.36-2.82c-.94-1-2.18-2.28-3.17-3.2l-2.61-2.25a51.5 51.5 0 0 0-6.56-4.46l-2.58-1.34c-1.14-.53-2.67-1.23-3.83-1.7l-2.09-.77c-.74-.23-1.72-.55-2.46-.77l-1.69-.45-1.78-.43-1.42-.24-1.42-.23-1.23-.17-1.23-.13-1.12-.1-1.15-.07-1-.06h-3.29l-1.12.08-1.16.09-1.24.11L60 .45 58.37.7a50.6 50.6 0 0 0-10.57 3l-2.57 1.16a48 48 0 0 0-5.44 3l-2.77 1.96c-1.19.95-2.77 2.19-3.9 3.19l-2.57 2.53c-.91 1-2.13 2.4-3 3.47l-2.19 3c-.69 1.12-1.63 2.59-2.27 3.74l-1.7 3.41c-.49 1.2-1.17 2.78-1.6 4l-1.14 3.71c-.28 1.27-.69 2.95-.92 4.23l-.52 4c-.06 1.33-.19 3.09-.2 4.41l.16 4.05c.25 2.13.66 5 1.07 7.06l1 3.77c.42 1.2 1 2.82 1.44 4l1.59 3.49c.62 1.12 1.41 2.63 2.08 3.72l2.09 3.11c.8 1 1.86 2.42 2.71 3.41l2.49 2.65c1 .94 2.36 2.21 3.41 3.09l2.69 2.06c1.3.87 3 2 4.38 2.81a38.45 38.45 0 0 0 24.38 4.49"/><path fill="#767678" d="M49.89 96.01C11.35 81.82 8.12 35.11 36.46 21.68c29.73-14.08 68 22.19 56.85 53.89-8.63 24.57-32.19 24.13-43.42 20.44a37 37 0 0 1-7.77-3.27l2.54 1.34c1.14.53 2.67 1.22 3.83 1.7l2.09.77c.74.23 1.72.55 2.46.77l1.69.44c.54.13 1.25.3 1.78.41l1.42.27 1.42.23 1.23.17 1.22.13 1.13.09c.34 0 .79.06 1.12.07h5.44l1.19-.12 1.24-.12 1.31-.15 1.61-.25a50 50 0 0 0 10-2.8l2.54-1.09a48 48 0 0 0 5.57-3l2.77-1.87c1.21-.95 2.82-2.21 4-3.22l2.59-2.5c.92-1 2.16-2.38 3-3.45l2.22-3c.7-1.11 1.66-2.58 2.31-3.72l1.73-3.38c.5-1.2 1.2-2.77 1.64-4l1.18-3.7c.29-1.26.72-2.94 1-4.21l.56-3.94c.08-1.48.23-3.45.25-4.92l-.16-4c-.15-1.3-.32-3-.53-4.32l-.81-3.85c-.36-1.23-.8-2.88-1.22-4.1l-1.36-3.63c-.56-1.15-1.26-2.7-1.87-3.83l-1.93-3.24c-.74-1.06-1.71-2.5-2.5-3.52l-2.36-2.82c-.94-1-2.18-2.28-3.17-3.2l-2.61-2.25a51.5 51.5 0 0 0-6.56-4.46l-2.58-1.34c-1.14-.53-2.67-1.23-3.83-1.7l-2.09-.77c-.74-.23-1.72-.55-2.46-.77l-1.69-.45-1.78-.43-1.42-.24-1.42-.23-1.23-.17-1.23-.13-1.12-.1-1.15-.07-1-.06h-3.29l-1.12.08-1.16.09-1.24.11L60 .45 58.37.7a50.6 50.6 0 0 0-10.57 3l-2.57 1.16a48 48 0 0 0-5.44 3l-2.77 1.96c-1.19.95-2.77 2.19-3.9 3.19l-2.57 2.53c-.91 1-2.13 2.4-3 3.47l-2.19 3c-.69 1.12-1.63 2.59-2.27 3.74l-1.7 3.41c-.49 1.2-1.17 2.78-1.6 4l-1.14 3.71c-.28 1.27-.69 2.95-.92 4.23l-.52 4c-.06 1.33-.19 3.09-.2 4.41l.16 4.05c.25 2.13.66 5 1.07 7.06l1 3.77c.42 1.2 1 2.82 1.44 4l1.59 3.49c.62 1.12 1.41 2.63 2.08 3.72l2.09 3.11c.8 1 1.86 2.42 2.71 3.41l2.49 2.65c1 .94 2.36 2.21 3.41 3.09l2.69 2.06c1.3.87 3 2 4.38 2.81a37 37 0 0 0 7.77 3.28"/><path fill="#737275" d="M19.12 63.76c-9.69-34.43 22-58.35 53.73-40.63 32.3 18 32.23 65.09-.12 74-6.61 1.88-17.13 2.66-29.71-3.91l-.9-.48 2.54 1.34c1.14.53 2.67 1.22 3.83 1.7l2.09.77c.74.23 1.72.55 2.46.77l1.69.44c.54.13 1.25.3 1.78.41l1.42.27 1.42.23 1.23.17 1.22.13 1.13.09c.34 0 .79.06 1.12.07h5.44l1.19-.12 1.24-.12 1.31-.15 1.61-.25a50 50 0 0 0 10-2.8l2.54-1.09a48 48 0 0 0 5.57-3l2.77-1.87c1.21-.95 2.82-2.21 4-3.22l2.59-2.5c.92-1 2.16-2.38 3-3.45l2.22-3c.7-1.11 1.66-2.58 2.31-3.72l1.73-3.38c.5-1.2 1.2-2.77 1.64-4l1.18-3.7c.29-1.26.72-2.94 1-4.21l.56-3.94c.08-1.48.23-3.45.25-4.92l-.16-4c-.15-1.3-.32-3-.53-4.32l-.81-3.85c-.36-1.23-.8-2.88-1.22-4.1l-1.36-3.63c-.56-1.15-1.26-2.7-1.87-3.83l-1.93-3.24c-.74-1.06-1.71-2.5-2.5-3.52l-2.36-2.82c-.94-1-2.18-2.28-3.17-3.2l-2.61-2.25a51.5 51.5 0 0 0-6.56-4.46l-2.58-1.34c-1.14-.53-2.67-1.23-3.83-1.7l-2.09-.77c-.74-.23-1.72-.55-2.46-.77l-1.69-.45-1.78-.43-1.42-.24-1.42-.23-1.23-.17-1.23-.13-1.12-.1-1.15-.07-1-.06h-3.29l-1.12.08-1.16.09-1.24.11L60 .45 58.37.7a50.6 50.6 0 0 0-10.57 3l-2.57 1.16a48 48 0 0 0-5.44 3l-2.77 1.96c-1.19.95-2.77 2.19-3.9 3.19l-2.57 2.53c-.91 1-2.13 2.4-3 3.47l-2.19 3c-.69 1.12-1.63 2.59-2.27 3.74l-1.7 3.41c-.49 1.2-1.17 2.78-1.6 4l-1.14 3.71c-.28 1.27-.69 2.95-.92 4.23l-.52 4c-.06 1.33-.19 3.09-.2 4.41l.16 4.05c.25 2.13.66 5 1.07 7.06l1 3.77 1.08 3.09-1.2-3.53c0-.06 0-.13-.05-.19"/><path fill="#737275" d="M43.02 93.22c-.9-.49-2.06-1.21-2.9-1.72l2 1.24.87.48"/><path fill="#6f6e71" d="M17.62 57.35C12.94 17.81 53.29 3.7 80.74 26.09c29.38 24 21.19 69.42-13.08 72.58a41.3 41.3 0 0 1-17.83-2.4l2.07.7 1.17.35 1.69.44c.54.13 1.25.3 1.78.41l1.42.27 1.42.23 1.23.17 1.22.13 1.13.09c.34 0 .79.06 1.12.07h5.44l1.16-.12 1.24-.12 1.31-.15 1.61-.25a50 50 0 0 0 10-2.8l2.54-1.09a48 48 0 0 0 5.57-3l2.77-1.87c1.21-.95 2.82-2.21 4-3.22l2.59-2.5c.92-1 2.16-2.38 3-3.45l2.22-3c.7-1.11 1.66-2.58 2.31-3.72l1.73-3.38c.5-1.2 1.2-2.77 1.64-4l1.18-3.7c.29-1.26.72-2.94 1-4.21l.56-3.94c.08-1.48.23-3.45.25-4.92l-.16-4c-.15-1.3-.32-3-.53-4.32l-.81-3.85c-.36-1.23-.8-2.88-1.22-4.1l-1.36-3.63c-.56-1.15-1.26-2.7-1.87-3.83l-1.93-3.24c-.74-1.06-1.71-2.5-2.5-3.52l-2.36-2.82c-.94-1-2.18-2.28-3.17-3.2l-2.61-2.25a51.5 51.5 0 0 0-6.56-4.46l-2.58-1.34c-1.14-.53-2.67-1.23-3.83-1.7l-2.09-.77c-.74-.23-1.72-.55-2.46-.77l-1.69-.45-1.78-.43-1.42-.24-1.42-.23-1.23-.17-1.23-.13-1.12-.1-1.15-.07-1-.06h-3.29l-1.12.08-1.16.09-1.24.11L60 .45 58.37.7a50.6 50.6 0 0 0-10.57 3l-2.57 1.16a48 48 0 0 0-5.44 3l-2.77 1.96c-1.19.95-2.77 2.19-3.9 3.19l-2.57 2.53c-.91 1-2.13 2.4-3 3.47l-2.19 3c-.69 1.12-1.63 2.59-2.27 3.74l-1.7 3.41c-.49 1.2-1.17 2.78-1.6 4l-1.14 3.71c-.28 1.27-.69 2.95-.92 4.23l-.52 4c-.06 1.33-.19 3.09-.2 4.41l.16 4.05c.16 1.36.34 3.18.57 4.53l-.13-.75"/><path fill="#6b6b6d" d="M17.02 49.48c1.99-42.2 47.7-44.65 69.95-20.47 26.57 28.82 12.45 71.4-23.23 70.09a43 43 0 0 1-6.11-.68l1.38.23.37.06 1.23.17 1.22.13 1.13.09c.34 0 .79.06 1.12.07h5.44l1.16-.16 1.24-.12 1.31-.15 1.61-.25a50 50 0 0 0 10-2.8l2.54-1.09a48 48 0 0 0 5.57-3l2.77-1.87c1.21-.95 2.82-2.21 4-3.22l2.59-2.5c.92-1 2.16-2.38 3-3.45l2.22-3c.7-1.11 1.66-2.58 2.31-3.72l1.73-3.38c.5-1.2 1.2-2.77 1.64-4l1.18-3.7c.29-1.26.72-2.94 1-4.21l.56-3.94c.08-1.48.23-3.45.25-4.92l-.16-4c-.15-1.3-.32-3-.53-4.32l-.81-3.85c-.36-1.23-.8-2.88-1.22-4.1l-1.36-3.63c-.56-1.15-1.26-2.7-1.87-3.83l-1.93-3.24c-.74-1.06-1.71-2.5-2.5-3.52l-2.36-2.82c-.94-1-2.18-2.28-3.17-3.2l-2.61-2.25a51.5 51.5 0 0 0-6.56-4.46l-2.58-1.34c-1.14-.53-2.67-1.23-3.83-1.7l-2.09-.77c-.74-.23-1.72-.55-2.46-.77l-1.69-.45-1.78-.43-1.42-.24-1.42-.23-1.23-.17-1.23-.13-1.12-.1-1.15-.07-1-.06h-3.29l-1.12.08-1.16.09-1.24.11L60 .45 58.37.7a50.6 50.6 0 0 0-10.57 3l-2.57 1.16a48 48 0 0 0-5.44 3l-2.77 1.96c-1.19.95-2.77 2.19-3.9 3.19l-2.57 2.53c-.91 1-2.13 2.4-3 3.47l-2.19 3c-.69 1.12-1.63 2.59-2.27 3.74l-1.7 3.41c-.49 1.2-1.17 2.78-1.6 4l-1.14 3.71c-.28 1.27-.69 2.95-.92 4.23l-.52 4c-.06 1.33-.19 3.09-.2 4.41"/><path fill="#686769" d="M18.12 39.29c8.47-36.06 56.45-37.5 77.78-2.34 17.61 29 1 62.76-30.58 62.23h4.21l1.15-.17 1.24-.12 1.31-.15 1.61-.25a50 50 0 0 0 10-2.8l2.54-1.09a48 48 0 0 0 5.57-3l2.77-1.87c1.21-.95 2.82-2.21 4-3.22l2.59-2.5c.92-1 2.16-2.38 3-3.45l2.22-3c.7-1.11 1.66-2.58 2.31-3.72l1.73-3.38c.5-1.2 1.2-2.77 1.64-4l1.18-3.7c.29-1.26.72-2.94 1-4.21l.56-3.94c.08-1.48.23-3.45.25-4.92l-.16-4c-.15-1.3-.32-3-.53-4.32l-.81-3.85c-.36-1.23-.8-2.88-1.22-4.1l-1.36-3.63c-.56-1.15-1.26-2.7-1.87-3.83l-1.93-3.24c-.74-1.06-1.71-2.5-2.5-3.52l-2.36-2.82c-.94-1-2.18-2.28-3.17-3.2l-2.61-2.25a51.5 51.5 0 0 0-6.56-4.46l-2.58-1.34c-1.14-.53-2.67-1.23-3.83-1.7l-2.09-.77c-.74-.23-1.72-.55-2.46-.77l-1.69-.45-1.78-.43-1.42-.24-1.42-.23-1.23-.17-1.23-.13-1.12-.1-1.15-.07-1-.06h-3.29l-1.12.08-1.16.09-1.24.11L60 .45 58.37.7a50.6 50.6 0 0 0-10.57 3l-2.57 1.16a48 48 0 0 0-5.44 3l-2.77 1.96c-1.19.95-2.77 2.19-3.9 3.19l-2.57 2.53c-.91 1-2.13 2.4-3 3.47l-2.19 3c-.69 1.12-1.63 2.59-2.27 3.74l-1.7 3.41c-.49 1.2-1.17 2.78-1.6 4l-1.14 3.71c-.28 1.27-.69 2.95-.92 4.23l-.2 1.27c.18-.94.39-2.2.58-3.14"/><path fill="#646366" d="M19.45 34.24c14.56-38.5 64.05-29.66 80.82 5.31 12.7 26.46-.31 55.22-26.76 59.17l1.61-.26a51 51 0 0 0 9.74-2.75l2.54-1.09a48 48 0 0 0 5.57-3l2.77-1.87c1.21-.95 2.82-2.21 4-3.22l2.59-2.5c.92-1 2.16-2.38 3-3.45l2.22-3c.7-1.11 1.66-2.58 2.31-3.72l1.73-3.38c.5-1.2 1.2-2.77 1.64-4l1.18-3.7c.29-1.26.72-2.94 1-4.21l.56-3.94c.08-1.48.23-3.45.25-4.92l-.16-4c-.15-1.3-.32-3-.53-4.32l-.81-3.85c-.36-1.23-.8-2.88-1.22-4.1l-1.38-3.65c-.56-1.15-1.26-2.7-1.87-3.83l-1.93-3.24c-.74-1.06-1.71-2.5-2.5-3.52l-2.36-2.82c-.94-1-2.18-2.28-3.17-3.2l-2.61-2.25a51.5 51.5 0 0 0-6.56-4.46l-2.58-1.34c-1.14-.53-2.67-1.23-3.83-1.7l-2.09-.77c-.74-.23-1.72-.55-2.46-.77l-1.69-.45-1.78-.43-1.42-.24-1.42-.23-1.23-.17-1.23-.13-1.12-.1-1.15-.07-1-.06h-3.29l-1.12.08-1.16.09-1.24.11L60 .45 58.37.7a50.6 50.6 0 0 0-10.57 3l-2.57 1.16a48 48 0 0 0-5.44 3l-2.77 1.96c-1.19.95-2.77 2.19-3.9 3.19l-2.57 2.53c-.91 1-2.13 2.4-3 3.47l-2.19 3c-.69 1.12-1.63 2.59-2.27 3.74l-1.7 3.41c-.49 1.2-1.17 2.78-1.6 4l-.51 1.54c0-.16.11-.37.16-.52"/><path fill="#606062" d="M25.01 22.72c23.47-33.54 75.11-10.44 81.76 27.11 6.35 36.03-22.15 46.1-25.42 47.18l1.81-.6 1.72-.65 2.54-1.09a48 48 0 0 0 5.57-3l2.77-1.87c1.21-.95 2.82-2.21 4-3.22l2.59-2.5c.92-1 2.16-2.38 3-3.45l2.22-3c.7-1.11 1.66-2.58 2.31-3.72l1.73-3.38c.5-1.2 1.2-2.77 1.64-4l1.18-3.7c.29-1.26.72-2.94 1-4.21l.56-3.94c.08-1.48.23-3.45.25-4.92l-.16-4c-.15-1.3-.32-3-.53-4.32l-.81-3.85c-.36-1.23-.8-2.88-1.22-4.1l-1.4-3.7c-.56-1.15-1.26-2.7-1.87-3.83l-1.93-3.24c-.74-1.06-1.71-2.5-2.5-3.52l-2.36-2.82c-.94-1-2.18-2.28-3.17-3.2l-2.61-2.25a51.5 51.5 0 0 0-6.56-4.46l-2.58-1.34c-1.14-.53-2.67-1.23-3.83-1.7l-2.09-.77c-.74-.23-1.72-.55-2.46-.77l-1.69-.45-1.78-.43-1.42-.24-1.42-.23-1.23-.17-1.23-.13-1.12-.1-1.15-.07-1-.06h-3.29l-1.12.08-1.16.09-1.24.11L60 .45 58.37.7a50.6 50.6 0 0 0-10.57 3l-2.57 1.16a48 48 0 0 0-5.44 3l-2.77 1.96c-1.19.95-2.77 2.19-3.9 3.19l-2.57 2.53c-.91 1-2.13 2.4-3 3.47l-2.19 3c-.69 1.12-1.63 2.59-2.27 3.74l1.36-2.26.55-.83"/><path fill="#7e7d80" d="M52.91 96.11c31.05 6.11 49.88-27.13 31-54.73-19.49-28.46-60.24-23.83-65.08 7.4-3.2 20.63 13.04 43.23 34.08 47.33"/><path fill="#828184" d="M48.39 94.43c32.33 10 50.91-22.24 36.3-48.3-17.78-31.71-57.46-27.71-64.42-.86-5.82 22.41 9.85 43.51 28.12 49.16"/><path fill="#858487" d="M42.17 91.32c27.88 14.43 51.91-10 44.42-35.69-10-34.11-50.65-39.26-63.42-15.17-9.09 17.14-.21 40.91 19 50.86"/><path fill="#89888b" d="M40.24 89.71c26.09 14.74 52.33-5.46 44.56-34.31-7.33-27.25-48.51-40.39-61.68-12.52-8.29 17.55 2.15 38.38 17.1 46.83"/><path fill="#8d8c8f" d="M37.3 87.16c23.82 16.19 50.51.63 46.82-27.31-3.79-28.47-41.41-41.84-57.51-20.46-11.55 15.33-3.88 37.86 10.69 47.77"/><path fill="#909093" d="M36.93 86.14c24.54 17.6 49.81-1.52 45.64-26.46-4.95-29.67-43.45-37.67-56-17.99-10.03 15.69-2.45 35.32 10.36 44.45"/><path fill="#949396" d="M37.32 85.59c25.32 17.88 47.85-4.33 43.7-26.07-5.61-29.38-41.9-35.62-54.4-15.4-8 12.89-3.3 31.14 10.7 41.47"/><path fill="#98979a" d="M34.39 82.16c22 20 46 2.8 45.52-18.33-.63-29-34.89-37.09-49-22.71-11.78 12-7.7 30.9 3.5 41"/><path fill="#9b9b9e" d="M35.05 81.6c20.85 18.86 46.29 1.52 43.37-22.31-2.83-23.1-35.7-32.68-48.84-14.23-8.89 12.48-3.82 28.14 5.47 36.54"/><path fill="#9f9ea2" d="M35.88 81.01c21.24 18.57 44.29-1.58 41.49-21.8-3-21.72-33.25-30.58-46.25-13.55-9.85 12.9-3.14 28.44 4.76 35.35"/><path fill="#a3a2a5" d="M33.72 77.18c17.18 20.1 41.56 5.48 42.74-13.63 1.36-22.06-27.05-32.74-40.88-20.07-13.62 12.46-7.17 27.53-1.86 33.7"/><path fill="#a7a6a9" d="M34.86 76.59c16.06 18.25 39.26 4.48 40.55-13.11 1.39-18.79-22.56-33.47-39.16-18.59-11.29 10.12-7.61 24.63-1.39 31.7"/><path fill="#aaa9ad" d="M36.25 76.01c14.87 16.5 36.71 3.57 38.1-12.59 1.46-16.84-20.5-32.91-38-16.6-5.85 5.44-9.25 19-.08 29.15"/><path fill="#aeadb1" d="M37.85 75.37c13.37 13.64 33.81 4.21 35.47-12C75.21 44.91 53.4 34.01 39 46.19c-9.71 8.22-8.44 21.73-1.15 29.18"/><path fill="#b2b1b4" d="M36.7 71.2c10.67 16 33.9 8.31 35.89-7.87 2-15.91-16.67-27-30.65-18.23-8.35 5.23-10.82 17.67-5.24 26.1"/><path fill="#b5b4b8" d="M38.36 70.7c9.54 13.86 31.14 9.09 33.5-7.39 1.07-7.5-2.74-14.3-10.48-18.72-2.1-1.2-9.69-4.6-19.34 1.73-5.76 3.77-10.39 14.63-3.68 24.38"/><path fill="#b9b8bc" d="M39.74 70.33c9.6 12.16 29 7.81 31.38-7 .55-3.32.68-11.72-9.72-17.86-3.14-1.89-9.68-4.18-18.28 1.3-7.51 4.79-9.16 16.24-3.38 23.56"/><path fill="#c1c1c4" d="M41.19 70.01c9.93 11.77 26.93 5.89 29.2-6.75 2.41-13.17-13.55-23.84-25.11-16.8-12.03 7.34-7.16 19.81-4.09 23.55"/><path fill="#c5c4c7" d="M41.36 67.87c2.66 4.14 7.76 8.65 16.95 7.14 4.47-.73 10.1-5.64 11.34-11.77 1.17-5.76-1.37-11.08-7.53-15.83-3.31-2.55-11.24-3.21-14.63-1.22-6.83 4-7.15 5.16-8.71 10.68-.23.82-1.19 5.18 2.6 11"/><path fill="#c8c7ca" d="M43.57 69.47c4.25 4.37 12.21 5.72 14.55 4.74 5.95-2.48 6.06-2.52 9.07-6.75a13.15 13.15 0 0 0 1.93-8.62 16 16 0 0 0-4.9-9.07c-2.55-2.38-2.55-2.38-9.37-4.17-4.31-1.14-11.75 4.07-13 6-6.1 9.57 1.44 17.49 1.76 17.82"/><path fill="#cac9cc" d="M41.81 65.4c1.76 3.34 6.19 8.82 16.18 8 2.74-.23 9.05-4.78 10.18-10.19 1.68-8-4.61-13.21-4.88-13.43a20.7 20.7 0 0 0-8.44-3.55 12.8 12.8 0 0 0-6.42 1 16.85 16.85 0 0 0-5.39 4.18c-.47.54-2.53 5-2.54 5.08a15 15 0 0 0 1.31 8.87"/><path fill="#cccbce" d="M42.65 65.24c1.09 1.92 5.4 8.14 15.18 7.33l4.73-2c2.51-2.45 4-3.92 4.9-7.33 1.46-5.73-1.66-10.68-5.07-13.41-2.27-1.82-7.46-2.97-7.51-2.98a13.64 13.64 0 0 0-6.4 1.16 13.93 13.93 0 0 0-7.09 8.36 14 14 0 0 0 1.26 8.88"/><path fill="#cecdd0" d="M43.5 65.08s3 3.54 3.41 3.8a39 39 0 0 0 5.75 2.81c1.36.64 3.52.2 5 .07a8.9 8.9 0 0 0 4.82-2 14.45 14.45 0 0 0 4.27-6.51c.63-2.26 1.38-8.09-5.27-13.38a13.74 13.74 0 0 0-6.59-2.34 14.54 14.54 0 0 0-6.36 1.24c-4.08 1.86-9.4 9.11-5 16.36"/><path fill="#cfcfd1" d="M44.37 64.93c1.55 2.57 5.33 6.78 13.19 6.16a9.26 9.26 0 0 0 4.87-2.21 17.1 17.1 0 0 0 3.69-5.68c1.33-4.39-.46-9.32-4.56-12.55a35.6 35.6 0 0 0-6.57-2.54 14.06 14.06 0 0 0-6.33 1.34c-.11.05-9.75 6.37-4.25 15.48"/><path fill="#d1d0d3" d="M45.26 64.78c1.75 2.88 5.62 4.67 6.86 5.23 1.45.67 3.71.49 5.29.37a9.66 9.66 0 0 0 4.97-2.37c1.05-1 3-4.82 3-4.85 1.42-4.35-.82-9.34-3.79-11.66a14.6 14.6 0 0 0-6.62-2.8 13.4 13.4 0 0 0-6.29 1.44c-.07 0-8.52 6.24-3.43 14.6"/><path fill="#d2d2d4" d="M46.12 64.65a19.4 19.4 0 0 0 5.93 4.61 12.3 12.3 0 0 0 5.31.46s4.49-2.13 5-2.57a10 10 0 0 0 2.39-3.94c1.89-5.53-2-10.08-3.12-10.9a32 32 0 0 0-6.56-2.95 57 57 0 0 0-6.26 1.58c-1.53 1-3.48 3-3.84 4.85-.49 2.52-1.11 5.66 1.16 8.86"/><path fill="#d4d3d5" d="M46.9 64.53s4.32 3.65 4.9 3.9a12.7 12.7 0 0 0 5.41.6 23 23 0 0 0 5-2.89 7.16 7.16 0 0 0 1.76-2.92 9.63 9.63 0 0 0-2.41-10.09s-6.12-3.12-6.5-3.12c-.23 0-6 1.65-6.2 1.81-3.22 2.2-5.39 8.17-2 12.73"/><path fill="#d5d4d7" d="M47.74 64.41a10.8 10.8 0 0 0 3.84 3.1 13.3 13.3 0 0 0 5.52.82c.58 0 5.05-3.18 5.08-3.21a4.4 4.4 0 0 0 1.14-1.89 10 10 0 0 0-1.69-9.28c-1.76-1.3-4.34-3-6.52-3.26a10.6 10.6 0 0 0-6.15 2c-2.66 1.85-4.51 7.48-1.22 11.75"/><path fill="#d6d6d8" d="M48.59 64.3a7.6 7.6 0 0 0 2.76 2.25c1.6.63 4 1.42 5.63 1.06s3.66-2.37 5.14-3.51a1.85 1.85 0 0 0 .51-.85c1.67-5.41-.54-8-1.57-8.84-1.52-1.27-3.92-2.84-5.9-3s-4.3 1.38-6.1 2.09c-2.19.87-2.38 6.53-2.38 6.58a10.1 10.1 0 0 0 1.91 4.21"/><path fill="#d7d7d9" d="M49.44 64.19a4.5 4.5 0 0 0 1.68 1.39c1.65.59 4 1.6 5.72 1.24s3.54-2.4 5-3.55c.16-.13.17-.44.22-.63.26-1.12.82-2.68.52-3.78a9.7 9.7 0 0 0-2.75-4.41c-1.19-1-3.06-2.21-4.59-2.3-1.93-.11-4.3 1.39-6.05 2.21a2.16 2.16 0 0 0-.79 1 8.11 8.11 0 0 0 1.06 8.86"/><path fill="#d8d8da" d="M50.3 64.09c.158.227.376.407.63.52 1.72.51 4 1.75 5.81 1.41a7.3 7.3 0 0 0 3.74-2.71 9.7 9.7 0 0 0 1.38-4 .9.9 0 0 0 0-.61 20.5 20.5 0 0 0-3.28-4.17 6.73 6.73 0 0 0-3.28-1.62 8.4 8.4 0 0 0-6 2.33 7 7 0 0 0-1 4.68 9.5 9.5 0 0 0 2.07 4.2"/><path fill="#dad9db" d="M50.59 63.01a3.1 3.1 0 0 0 1.13 1c1.43.53 3.41 1.56 4.91 1.28a4.6 4.6 0 0 0 2.49-1.92c.78-1.19 1.85-3 1.63-4.46-.25-1.65-2.29-3.18-3.48-4.34a3.5 3.5 0 0 0-2-1c-1.68-.08-9.58 3.17-4.74 9.36"/><path fill="#dbdadc" d="M50.12 60.33A16.6 16.6 0 0 0 54 63.72a4.1 4.1 0 0 0 2.54.68 2.2 2.2 0 0 0 1.31-1c.7-1.26 2-3 1.75-4.48 0-.05-3.25-4.59-4.18-4.63-.66 0-1.14-.06-5.49 4.87-.23.26 0 .86.19 1.13"/><path fill="#dcdbdd" d="M56.24 63.54a.25.25 0 0 0 .16 0 38 38 0 0 0 2-4.58c-.19-1.33-1.52-3.38-2.87-3.45-1.68-.08-4.05 2.28-4 4 .1 1.86 3.08 3.14 4.71 4"/><path fill="#dddcde" d="M56.12 61.53c.78-.19 1.15-1.66 1-2.45s-.8-1.75-1.5-1.78a2.44 2.44 0 0 0-2.07 2c0 1 1.56 2.43 2.54 2.2"/><path fill="#dedddf" d="M55.89 59.35c.06 0 .09-.13.08-.2s-.06-.13-.12-.13-.16.09-.16.15.12.2.2.18"/><path fill="#7a797c" d="M73.23 98.76a49.77 49.77 0 0 1-31.08-6c-12.11-6.9-20.03-20.49-20.03-37.17 0-26.31 20-50.31 44.58-53.58-24.58 3.27-44.58 27.27-44.58 53.58 0 16.68 7.92 30.27 20 37.15-9.24-5.73-15.85-12.56-19.61-20.43-4.25-8.91-6.7-17.55-4.83-30.8 2.2-15.5 14.84-34.7 37.44-40.13 20.266-4.864 41.408 3.473 52.9 20.86 9 12.82 12.76 35.44 0 54.8a49.5 49.5 0 0 1-34.7 21.72"/><path fill="#7a797c" d="M22.12 55.59c0 16.68 7.92 30.27 20 37.15l-2.79-1.73c-1.29-.92-3-2.15-4.25-3.14l-2.68-2.38c-1-1-2.29-2.31-3.22-3.36l-2.33-2.89c-.73-1.08-1.73-2.51-2.47-3.63l-1.87-3.3c-.55-1.17-1.31-2.72-1.8-3.91l-1.33-3.63c-.34-1.24-.84-2.89-1.13-4.14l-.72-3.89c-.22-2.16-.44-5-.51-7.22l.17-4c.16-1.29.34-3 .55-4.31l.82-3.85c.37-1.23.82-2.88 1.24-4.09l1.41-3.58c.56-1.15 1.28-2.7 1.89-3.83l1.93-3.23c.75-1.06 1.73-2.5 2.53-3.53l2.35-2.79c.96-1.02 2.21-2.3 3.21-3.3l2.6-2.23c1.21-.9 2.82-2.09 4.07-2.92l2.51-1.52a48 48 0 0 1 5.5-2.66l1.82-.67A50.7 50.7 0 0 1 60 .45L61.29.3l1.26-.12L63.7.09h1.13l1.09-.08h2.2l1 .06 1.11.07 1.13.1 1.21.13 1.25.17 1.38.22 1.49.25 1.64.37 1.79.51 2 .63c.75.27 1.76.62 2.51.91l2.53 1.07c1.16.58 2.7 1.35 3.84 2l2.85 1.75a51 51 0 0 1 6.33 5l2.59 2.57c.89 1 2.1 2.38 2.94 3.45l2.19 3c.68 1.11 1.61 2.58 2.24 3.72l1.69 3.43c.48 1.19 1.16 2.77 1.58 4l1.13 3.73c.27 1.27.68 2.95.9 4.22l.5 4c.06 1.32.18 3.08.19 4.41l-.17 4c-.18 1.44-.39 3.38-.64 4.81l-.86 3.84c-.38 1.22-.85 2.87-1.28 4.07l-1.36 3.51c-.58 1.15-1.31 2.69-1.93 3.81l-2 3.21c-.77 1.06-1.76 2.48-2.57 3.51l-2.37 2.76c-1 1-2.24 2.27-3.25 3.19l-2.58 2.2c-1.22.89-2.86 2.07-4.13 2.9l-2.49 1.47a48 48 0 0 1-5.62 2.65l-1.8.67a51.3 51.3 0 0 1-9.85 2.38l-1.29.15-1.26.1-1.15.08-1.13.06h-4.32l-1.11-.06-1.14-.08-1.2-.13-1.25-.17-1.38-.22-1.46-.28-1.64-.37-1.78-.52-2-.63c-.75-.27-1.76-.62-2.51-.91l-2.53-1.08c-1.16-.57-2.7-1.34-3.84-2-12.2-6.84-20.12-20.43-20.12-37.11 0-26.31 20-50.31 44.58-53.58h-.06c-42.78 12.14-27.52 59.45-1.41 72.35 30.09 14.85 57.88-8.94 48-41-3.66-11.85-14.54-31.6-46.53-31.35-24.58 3.27-44.58 27.27-44.58 53.58"/><path fill="#767678" d="M22.12 55.59c0 16.68 7.92 30.27 20 37.15l-2.79-1.73c-1.29-.92-3-2.15-4.25-3.14l-2.68-2.38c-1-1-2.29-2.31-3.22-3.36l-2.33-2.89c-.73-1.08-1.73-2.51-2.47-3.63l-1.87-3.3c-.55-1.17-1.31-2.72-1.8-3.91l-1.33-3.63c-.34-1.24-.84-2.89-1.13-4.14l-.72-3.89c-.22-2.16-.44-5-.51-7.22l.17-4c.16-1.29.34-3 .55-4.31l.82-3.85c.37-1.23.82-2.88 1.24-4.09l1.41-3.58c.56-1.15 1.28-2.7 1.89-3.83l1.93-3.23c.75-1.06 1.73-2.5 2.53-3.53l2.35-2.79c.96-1.02 2.21-2.3 3.21-3.3l2.6-2.23c1.21-.9 2.82-2.09 4.07-2.92l2.51-1.52a48 48 0 0 1 5.5-2.66l1.82-.67A50.7 50.7 0 0 1 60 .45L61.29.3l1.26-.12L63.7.09h1.13l1.09-.08h2.2l1 .06 1.11.07 1.13.1 1.21.13 1.25.17 1.38.22 1.49.25 1.64.37 1.79.51 2 .63c.75.27 1.76.62 2.51.91l2.53 1.07c1.16.58 2.7 1.35 3.84 2l2.85 1.75a51 51 0 0 1 6.33 5l2.59 2.57c.89 1 2.1 2.38 2.94 3.45l2.19 3c.68 1.11 1.61 2.58 2.24 3.72l1.69 3.43c.48 1.19 1.16 2.77 1.58 4l1.13 3.73c.27 1.27.68 2.95.9 4.22l.5 4c.06 1.32.18 3.08.19 4.41l-.17 4c-.18 1.44-.39 3.38-.64 4.81l-.86 3.84c-.38 1.22-.85 2.87-1.28 4.07l-1.36 3.51c-.58 1.15-1.31 2.69-1.93 3.81l-2 3.21c-.77 1.06-1.76 2.48-2.57 3.51l-2.37 2.76c-1 1-2.24 2.27-3.25 3.19l-2.58 2.2c-1.22.89-2.86 2.07-4.13 2.9l-2.49 1.47a48 48 0 0 1-5.62 2.65l-1.8.67a51.3 51.3 0 0 1-9.85 2.38l-1.29.15-1.26.1-1.15.08-1.13.06h-4.32l-1.11-.06-1.14-.08-1.2-.13-1.25-.17-1.38-.22-1.46-.28-1.64-.37-1.78-.52-2-.63c-.75-.27-1.76-.62-2.51-.91l-2.53-1.08c-1.16-.57-2.7-1.34-3.84-2-12.2-6.84-20.12-20.43-20.12-37.11 0-21.83 13.77-42.07 32.5-50.22l-.38.21C24.12 24.82 39.6 69.49 71.56 78.89c31.78 9.34 55.15-21.82 39.08-52.1C98.88 4.64 73.23-5.16 54.62 5.37c-18.73 8.15-32.5 28.39-32.5 50.22"/><path fill="#737275" d="M113.49 33.37a50 50 0 0 1 2 8l.5 4c.06 1.32.18 3.08.19 4.41l-.17 4c-.18 1.44-.39 3.38-.64 4.81l-.86 3.84c-.38 1.22-.85 2.87-1.28 4.07l-1.41 3.51c-.58 1.15-1.31 2.69-1.93 3.81l-2 3.21c-.77 1.06-1.76 2.48-2.57 3.51l-2.37 2.76c-1 1-2.24 2.27-3.25 3.19l-2.58 2.2c-1.22.89-2.86 2.07-4.13 2.9l-2.49 1.47a48 48 0 0 1-5.62 2.65l-1.8.67a51.3 51.3 0 0 1-9.85 2.38l-1.29.15-1.26.1-1.15.08-1.13.06h-4.32l-1.11-.06-1.14-.08-1.2-.13-1.25-.17-1.38-.22-1.46-.28-1.64-.37-1.78-.52-2-.63c-.75-.27-1.76-.62-2.51-.91l-2.53-1.08c-1.16-.57-2.7-1.34-3.84-2-12.2-6.84-20.12-20.43-20.12-37.11A56.36 56.36 0 0 1 47.43 9.24l-.69.63c-27.24 28.37 1.58 73.58 36.5 72.36 24.9-.87 39.3-25.45 29.62-50.57.19.52.46 1.2.63 1.71"/><path fill="#737275" d="M22.12 55.59c0 16.68 7.92 30.27 20 37.15l-2.79-1.73c-1.29-.92-3-2.15-4.25-3.14l-2.68-2.38c-1-1-2.29-2.31-3.22-3.36l-2.33-2.89c-.73-1.08-1.73-2.51-2.47-3.63l-1.87-3.3c-.55-1.17-1.31-2.72-1.8-3.91l-1.33-3.63c-.34-1.24-.84-2.89-1.13-4.14l-.72-3.89c-.22-2.16-.44-5-.51-7.22l.17-4c.16-1.29.34-3 .55-4.31l.82-3.85c.37-1.23.82-2.88 1.24-4.09l1.41-3.58c.56-1.15 1.28-2.7 1.89-3.83l1.93-3.23c.75-1.06 1.73-2.5 2.53-3.53l2.35-2.79c.96-1.02 2.21-2.3 3.21-3.3l2.6-2.23c1.21-.9 2.82-2.09 4.07-2.92l2.51-1.52a48 48 0 0 1 5.5-2.66l1.82-.67A50.7 50.7 0 0 1 60 .45L61.29.3l1.26-.12L63.7.09h1.13l1.09-.08h2.2l1 .06 1.11.07 1.13.1 1.21.13 1.25.17 1.38.22 1.49.25 1.64.37 1.79.51 2 .63c.75.27 1.76.62 2.51.91l2.53 1.07c1.16.58 2.7 1.35 3.84 2l2.11 1.27-2.76-1.7c-24.76-12.33-40.1.48-42.92 3.17a56.36 56.36 0 0 0-25.31 46.35"/><path fill="#6f6e71" d="M115.52 41.32c.46 2.766.69 5.565.69 8.37l-.17 4c-.18 1.44-.39 3.38-.64 4.81l-.86 3.84c-.38 1.22-.85 2.87-1.28 4.07l-1.44 3.6c-.58 1.15-1.31 2.69-1.93 3.81l-2 3.21c-.77 1.06-1.76 2.48-2.57 3.51l-2.37 2.76c-1 1-2.24 2.27-3.25 3.19l-2.58 2.2c-1.22.89-2.86 2.07-4.13 2.9l-2.49 1.47a48 48 0 0 1-5.62 2.65l-1.8.67a51.3 51.3 0 0 1-9.85 2.38l-1.29.15-1.26.1-1.15.08-1.13.06h-4.32l-1.11-.06-1.14-.08-1.2-.13-1.25-.17-1.38-.22-1.46-.28-1.64-.37-1.78-.52-2-.63c-.75-.27-1.76-.62-2.51-.91l-2.53-1.08c-1.16-.57-2.7-1.34-3.84-2-12.2-6.84-20.12-20.43-20.12-37.11A56.4 56.4 0 0 1 41.98 13.3c-24 33 11.39 76.62 46.32 70.15 19.18-3.56 30.62-21.35 27.19-42.32a1 1 0 0 0 0 .19"/><path fill="#6f6e71" d="M22.12 55.59c0 16.68 7.92 30.27 20 37.15l-2.79-1.73c-1.29-.92-3-2.15-4.25-3.14l-2.68-2.38c-1-1-2.29-2.31-3.22-3.36l-2.33-2.89c-.73-1.08-1.73-2.51-2.47-3.63l-1.87-3.3c-.55-1.17-1.31-2.72-1.8-3.91l-1.33-3.63c-.34-1.24-.84-2.89-1.13-4.14l-.72-3.89c-.22-2.16-.44-5-.51-7.22l.17-4c.16-1.29.34-3 .55-4.31l.82-3.85c.37-1.23.82-2.88 1.24-4.09l1.41-3.58c.56-1.15 1.28-2.7 1.89-3.83l1.93-3.23c.75-1.06 1.73-2.5 2.53-3.53l2.35-2.79c.96-1.02 2.21-2.3 3.21-3.3l2.6-2.23c1.21-.9 2.82-2.09 4.07-2.92l2.51-1.52a48 48 0 0 1 5.5-2.66l1.82-.67A50.7 50.7 0 0 1 60 .45L61.29.3l1.26-.12L63.7.09h1.13l1.09-.08h2.2l1 .06 1.11.07 1.13.1 1.21.13 1.25.17 1.38.22 1.49.25 1.64.37 1.79.51 2 .63 1.2.42-2.6-.85C62.42-3.14 48.69 4.46 41.98 13.3a56.4 56.4 0 0 0-19.86 42.29"/><path fill="#6b6b6d" d="M116.21 49.69a50.3 50.3 0 0 1-.81 8.86l-.86 3.84c-.38 1.22-.85 2.87-1.28 4.07l-1.44 3.55c-.58 1.15-1.31 2.69-1.93 3.81l-2 3.21c-.77 1.06-1.76 2.48-2.57 3.51l-2.37 2.76c-1 1-2.24 2.27-3.25 3.19l-2.58 2.2c-1.22.89-2.86 2.07-4.13 2.9l-2.49 1.47a48 48 0 0 1-5.62 2.65l-1.8.67a51.3 51.3 0 0 1-9.85 2.38l-1.29.15-1.26.1-1.15.08-1.13.06h-4.32l-1.11-.06-1.14-.08-1.2-.13-1.25-.17-1.38-.22-1.46-.28-1.64-.37-1.78-.52-2-.63c-.75-.27-1.76-.62-2.51-.91l-2.53-1.08c-1.16-.57-2.7-1.34-3.84-2-12.2-6.84-20.12-20.43-20.12-37.11a56.17 56.17 0 0 1 15.24-37.88l-.5.88c-18.31 37.27 22.38 76.42 55.8 65.35 11.4-3.77 23.56-14.85 23.55-34.62z"/><path fill="#6b6b6d" d="M22.12 55.59c0 16.68 7.92 30.27 20 37.15l-2.79-1.73c-1.29-.92-3-2.15-4.25-3.14l-2.68-2.38c-1-1-2.29-2.31-3.22-3.36l-2.33-2.89c-.73-1.08-1.73-2.51-2.47-3.63l-1.87-3.3c-.55-1.17-1.31-2.72-1.8-3.91l-1.33-3.63c-.34-1.24-.84-2.89-1.13-4.14l-.72-3.89c-.22-2.16-.44-5-.51-7.22l.17-4c.16-1.29.34-3 .55-4.31l.82-3.85c.37-1.23.82-2.88 1.24-4.09l1.41-3.58c.56-1.15 1.28-2.7 1.89-3.83l1.93-3.23c.75-1.06 1.73-2.5 2.53-3.53l2.35-2.79c.96-1.02 2.21-2.3 3.21-3.3l2.6-2.23c1.21-.9 2.82-2.09 4.07-2.92l2.51-1.52a48 48 0 0 1 5.5-2.66l1.82-.67A50.7 50.7 0 0 1 60 .45L61.29.3l1.26-.12L63.7.09h1.13l1.09-.08h2.2l1 .06 1.11.07 1.13.1 1.21.13 1.25.17 1.38.22.37.07-.4-.07c-26.33-4.11-36.74 14.78-37.84 17a56.17 56.17 0 0 0-15.21 37.83"/><path fill="#686769" d="M115.4 58.55a50 50 0 0 1-2.14 7.91l-1.44 3.55c-.58 1.15-1.31 2.69-1.93 3.81l-2 3.21c-.77 1.06-1.76 2.48-2.57 3.51l-2.37 2.76c-1 1-2.24 2.27-3.25 3.19l-2.58 2.2c-1.22.89-2.86 2.07-4.13 2.9l-2.49 1.47a48 48 0 0 1-5.62 2.65l-1.8.67a51.3 51.3 0 0 1-9.85 2.38l-1.29.15-1.26.1-1.15.08-1.13.06h-4.32l-1.11-.06-1.14-.08-1.2-.13-1.25-.17-1.38-.22-1.46-.28-1.64-.37-1.78-.52-2-.63c-.75-.27-1.76-.62-2.51-.91l-2.53-1.08c-1.16-.57-2.7-1.34-3.84-2-12.2-6.84-20.12-20.43-20.12-37.11a55.82 55.82 0 0 1 11.15-33c-.34.93-.81 2.17-1.15 3.11-11.14 42.4 35.91 75.11 66.66 57 13.6-8 16.11-21.51 16.93-25.94-.09.53-.19 1.24-.29 1.77"/><path fill="#686769" d="M22.12 55.59c0 16.68 7.92 30.27 20 37.15l-2.79-1.73c-1.29-.92-3-2.15-4.25-3.14l-2.68-2.38c-1-1-2.29-2.31-3.22-3.36l-2.33-2.89c-.73-1.08-1.73-2.51-2.47-3.63l-1.87-3.3c-.55-1.17-1.31-2.72-1.8-3.91l-1.33-3.63c-.34-1.24-.84-2.89-1.13-4.14l-.72-3.89c-.22-2.16-.44-5-.51-7.22l.17-4c.16-1.29.34-3 .55-4.31l.82-3.85c.37-1.23.82-2.88 1.24-4.09l1.41-3.58c.56-1.15 1.28-2.7 1.89-3.83l1.93-3.23c.75-1.06 1.73-2.5 2.53-3.53l2.35-2.79c.96-1.02 2.21-2.3 3.21-3.3l2.6-2.23c1.21-.9 2.82-2.09 4.07-2.92l2.51-1.52a48 48 0 0 1 5.5-2.66l1.82-.67A50.7 50.7 0 0 1 60 .45L61.29.3l1.26-.12L63.7.09h1.13l1.09-.08h1.99-.79c-25.43.12-33 20.32-33.83 22.62a55.82 55.82 0 0 0-11.17 32.96"/><path fill="#646366" d="M113.26 66.46a49 49 0 0 1-3.37 7.37l-2 3.21c-.77 1.06-1.76 2.48-2.57 3.51l-2.37 2.76c-1 1-2.24 2.27-3.25 3.19l-2.58 2.19c-1.22.89-2.86 2.07-4.13 2.9l-2.49 1.47a48 48 0 0 1-5.62 2.65l-1.8.67a51.3 51.3 0 0 1-9.85 2.38l-1.29.15-1.26.1-1.15.08-1.13.06h-4.32l-1.11-.06-1.14-.08-1.2-.13-1.25-.17-1.38-.22-1.46-.28-1.64-.37-1.78-.52-2-.63c-.75-.27-1.76-.62-2.51-.91l-2.53-1.08c-1.16-.57-2.7-1.34-3.84-2-12.2-6.84-20.12-20.43-20.12-37.11a55.3 55.3 0 0 1 7.39-27.21l-.3 1.17c-8.53 42.64 40.3 73.69 69.83 54.61a36.33 36.33 0 0 0 14.92-19.7c-.2.6-.46 1.41-.68 2"/><path fill="#646366" d="M22.12 55.59c0 16.68 7.92 30.27 20 37.15l-2.79-1.73c-1.29-.92-3-2.15-4.25-3.14l-2.68-2.38c-1-1-2.29-2.31-3.22-3.36l-2.33-2.89c-.73-1.08-1.73-2.51-2.47-3.63l-1.87-3.3c-.55-1.17-1.31-2.72-1.8-3.91l-1.33-3.63c-.34-1.24-.84-2.89-1.13-4.14l-.72-3.89c-.22-2.16-.44-5-.51-7.22l.17-4c.16-1.29.34-3 .55-4.31l.82-3.85c.37-1.23.82-2.88 1.24-4.09l1.41-3.58c.56-1.15 1.28-2.7 1.89-3.83l1.93-3.23c.75-1.06 1.73-2.5 2.53-3.53l2.35-2.79c.96-1.02 2.21-2.3 3.21-3.3l2.6-2.23c1.21-.9 2.82-2.09 4.07-2.92l2.51-1.52a48 48 0 0 1 5.5-2.66l1.82-.67A51 51 0 0 1 59.72.49l-.77.12c-17.51 3-27.54 16.52-29.46 27.77a55.3 55.3 0 0 0-7.37 27.21"/><path fill="#606062" d="M109.89 73.83a50 50 0 0 1-4.53 6.72l-2.37 2.76c-1 1-2.24 2.27-3.25 3.19l-2.62 2.19c-1.22.89-2.86 2.07-4.13 2.9l-2.49 1.47a48 48 0 0 1-5.62 2.65l-1.8.67a51.3 51.3 0 0 1-9.85 2.38l-1.29.15-1.26.1-1.15.08-1.13.06h-4.32l-1.11-.06-1.14-.08-1.2-.13-1.25-.17-1.38-.22-1.46-.28-1.64-.37-1.78-.52-2-.63c-.75-.27-1.76-.62-2.51-.91l-2.53-1.08c-1.16-.57-2.7-1.34-3.84-2-12.2-6.84-20.12-20.43-20.12-37.11a54.3 54.3 0 0 1 3.84-19.83c-4.46 40.25 44.37 72.25 74.62 48.81a36.65 36.65 0 0 0 9.73-11.51z"/><path fill="#606062" d="M22.12 55.59c0 16.68 7.92 30.27 20 37.15l-2.79-1.73c-1.29-.92-3-2.15-4.25-3.14l-2.68-2.38c-1-1-2.29-2.31-3.22-3.36l-2.33-2.89c-.73-1.08-1.73-2.51-2.47-3.63l-1.87-3.3c-.55-1.17-1.31-2.72-1.8-3.91l-1.33-3.63c-.34-1.24-.84-2.89-1.13-4.14l-.72-3.89c-.22-2.16-.44-5-.51-7.22l.17-4c.16-1.29.34-3 .55-4.31l.82-3.85c.37-1.23.82-2.88 1.24-4.09l1.41-3.58c.56-1.15 1.28-2.7 1.89-3.83l1.93-3.23c.75-1.06 1.73-2.5 2.53-3.53l2.35-2.79c.96-1.02 2.21-2.3 3.21-3.3l2.6-2.23c1.21-.9 2.82-2.09 4.07-2.92l2.51-1.52a48 48 0 0 1 5.5-2.66l1.82-.67c.75-.26 1.76-.61 2.53-.85h-.06c-17.72 5.61-25.9 20.9-26.15 33.57a54.3 54.3 0 0 0-3.82 19.86"/><path fill="#7e7d80" d="M88.57 5.8c31.14 14.66 35.63 57.9 7.18 69.05C65.9 86.54 31.69 51.01 44.19 21.28c8-19 28.84-22.79 44.38-15.48"/><path fill="#828184" d="M92.81 8.39c30 18.25 28.53 60.4-2.31 66.32-32.54 6.3-60.06-34.1-40.91-59.96C60.54.01 79.63.36 92.81 8.39"/><path fill="#858487" d="M96.67 11.4c27 20.78 19.52 56.61-5.9 61.59-28.26 5.55-58.1-29.56-39.92-57.41 8.1-12.4 28.44-17 45.82-4.18"/><path fill="#89888b" d="M100.12 14.81c24.53 23.52 11.12 57.07-15.31 57.06-31 0-50.25-38.89-29.4-59.43C68.27-.24 88.63 3.8 100.12 14.81"/><path fill="#8d8c8f" d="M99.98 15.37c22.25 20.81 13 54.61-15 54.79-30.2.2-48.08-36.85-27.73-57.45 10.54-10.7 29.73-9.51 42.73 2.66"/><path fill="#909093" d="M102.81 19.18c18.18 22.3 5.37 51.59-21.42 49-31.12-3-40.71-41.1-20.68-56.48 13.67-10.49 32.49-4.27 42.1 7.51"/><path fill="#949396" d="M102.42 19.74c18.09 22.34 3.16 51.53-23.84 46.61-29.12-5.31-35-41-15.13-54.84 11.38-7.95 28.86-4.26 39 8.23"/><path fill="#98979a" d="M104.53 23.95c14.24 23.52-3.83 45.14-25.93 40.94-29.4-5.58-31.73-39.51-14.92-51.64 15.61-11.27 33.76-1 40.85 10.7"/><path fill="#9b9b9e" d="M103.87 24.52c12.87 21.63-4.58 42.74-25.26 38.89-27.38-5.09-31.43-35.77-12.56-49.91 10-7.49 28.7-4.31 37.82 11"/><path fill="#9f9ea2" d="M103.06 25.1c11.91 20.49-4.65 39.91-24.45 37.13-24.81-3.49-29.62-33.95-12.63-46.61 14.14-10.61 30.93-1.1 37.08 9.48"/><path fill="#a3a2a5" d="M104.12 29.72c8 21.42-14 37.4-32.21 29.45-21.64-9.43-18.25-37.77.43-45.3 11.72-4.72 26.84 2.83 31.78 15.85"/><path fill="#a7a6a9" d="M102.88 30.32c6.65 19.19-12.17 36.09-31 27.83-20.45-9-17-35.27.86-42.62 12.52-5.16 26.23 3.56 30.12 14.79"/><path fill="#aaa9ad" d="M101.51 30.92c6.34 19-13.73 33.36-29.62 26.34-19.3-8.51-15.63-33.64 1.37-40.2 12.34-4.76 24.79 3.49 28.25 13.86"/><path fill="#aeadb1" d="M100.04 31.49c6 18-13.07 31.56-28.16 24.89-16.67-7.37-15.56-31.05 1.76-37.82 8.16-3.2 22.15.18 26.4 12.93"/><path fill="#b2b1b4" d="M99.45 36.42c.93 13.47-8.45 17.81-11.53 19.24-10.71 5-18.63-1.84-21.24-4.07-12.31-10.58-5.56-30.25 11.17-32.4 11.57-1.5 21 7.86 21.6 17.23"/><path fill="#b5b4b8" d="M98.03 36.83c1.24 9.69-6.76 16-6.84 16.06-5.16 3.28-5.3 3.29-12.67 3.7 0 0-5.92-1.35-7.59-2.56-18.67-13.52-6.59-29.91 3.33-32.93a18.88 18.88 0 0 1 23.77 15.73"/><path fill="#b9b8bc" d="M96.89 37.13c1.43 12.88-13.77 25.61-28.08 14.31-14.62-11.54-3.55-29.8 9.94-29.77 5.73 0 16.93 4.56 18.14 15.46"/><path fill="#c1c1c4" d="M95.7 37.43c.42 4.43-.42 12.51-10.73 16.87-3 1.29-11.38 1.79-17.73-4.84-9-9.46-3.43-26.91 11.93-26.54 9.42.23 16 8.6 16.53 14.51"/><path fill="#c5c4c7" d="M94.47 37.71c1.65 16.8-17.71 20.69-26.35 11.74-10.6-11-1.43-26.63 11.34-25.58a16.39 16.39 0 0 1 15 13.84"/><path fill="#c8c7ca" d="M93.55 37.91c1.27 8.51-4 11.83-8.69 14.76-.66.42-6.51 2.36-13.07-1.09-.91-.48-8.79-5-7.47-15.6.31-2.49 4-9.42 10.76-11 5.64-1.3 16.94 2.62 18.47 12.91"/><path fill="#cac9cc" d="M92.73 42.68a48 48 0 0 1-2.54 5.08c-1.33 1.56-3.72 3-5.39 4.18s-4.47.88-6.42 1c-.6.05-8.4-1.15-12.08-8.1-4.57-8.65 2.38-20.74 13.76-19.14 8 1.13 14.45 9.68 12.67 16.94"/><path fill="#cccbce" d="M91.84 42.85c-2.29 8.59-10.43 9.25-13.49 9.5-2.08.18-4.85-1.09-6.6-2.23-1.56-1-4.73-5.2-4.75-5.23-4.26-7.73 1.3-20.1 13.33-18.2.5.07 5.81 2.49 5.84 2.51 1.15.83 2.06 1.47 4.41 4.77s1.27 8.83 1.26 8.88"/><path fill="#cecdd0" d="M90.92 43.01c-1.1 3.92-4.57 6.32-6.24 7.47s-4.42 1.09-6.36 1.25c-2.09.17-4.82-1.21-6.58-2.34a14.3 14.3 0 0 1-4-4.51 11.58 11.58 0 0 1 .91-13.14c3.65-4.92 9.87-4.71 12-4.22a18.6 18.6 0 0 1 5.75 2.81c.33.24 3.39 3.77 3.41 3.8 2.44 3.78 1.31 8.37 1.11 8.88"/><path fill="#cfcfd1" d="M89.99 43.16a14.6 14.6 0 0 1-5.38 6.6c-1.6 1.09-4.39 1.19-6.33 1.34a39.3 39.3 0 0 1-6.57-2.54 11.7 11.7 0 0 1-3.31-3.68c-3.85-6.56-.14-11.52 1.08-13.15.41-.56 1.68-2.25 6.19-3.61a10.85 10.85 0 0 1 5.12.21c.13 0 12.41 4 9.2 14.83"/><path fill="#d1d0d3" d="M89.4 40.91a6.9 6.9 0 0 1-.28 2.38 19.2 19.2 0 0 1-3.79 5.13c-.82.71-1 .83-7.11 2.05-.06 0-6.29-.92-9.1-5.54-3.91-6.42-.33-11.19 1.19-13.22.94-1.25 5.41-2.9 5.45-2.91a12 12 0 0 1 5.22.34c3.44.9 6.93 5.25 7 5.29a8.27 8.27 0 0 1 1.43 6.48"/><path fill="#d2d2d4" d="M88.31 43.42a11.73 11.73 0 0 1-3.84 4.85c-.3.18-5.62 1.53-6.26 1.58 0 0-6.18-1.36-8.41-5-3.86-6.29-.25-11 1.12-12.8.13-.17 4.65-2.5 5-2.57a13 13 0 0 1 5.32.46c3.11.87 9.76 7 7.09 13.47"/><path fill="#d4d3d5" d="M87.46 43.54a9.3 9.3 0 0 1-3.09 3.87c-.33.2-6 1.84-6.2 1.81s-6.51-3.11-6.54-3.14c-1.22-1.07-1.94-3.26-2.51-4.76-1.35-3.45.82-7.35 1.87-8.25a25.4 25.4 0 0 1 5-2.89 12.4 12.4 0 0 1 5.41.6c.48.14 4.88 3.87 4.9 3.9a16.8 16.8 0 0 1 1.73 4.22 10 10 0 0 1-.6 4.64"/><path fill="#d5d4d7" d="M86.59 43.66a6.8 6.8 0 0 1-2.28 2.85c-1.69 1-4.27 2.37-6.19 2a14.84 14.84 0 0 1-6.52-3.26c-1-.94-2.21-4.85-2.21-4.88s0-5.11 1.66-6.29c.17-.13 4.29-3 5.08-3.21a9.94 9.94 0 0 1 5.52.82 11.5 11.5 0 0 1 3.84 3.1c.84 1.09 1.29 2.94 1.82 4.21s-.13 3.36-.72 4.65"/><path fill="#d6d6d8" d="M85.72 43.77a4.35 4.35 0 0 1-1.55 1.93c-1.71.9-4.21 2.5-6.1 2.09a14.2 14.2 0 0 1-5.91-3c-1.13-1-2.13-4.41-2.13-4.43s-.07-3.63 1.09-5.25a9.85 9.85 0 0 1 5.14-3.52c1.68-.36 4 .44 5.62 1.07a7.64 7.64 0 0 1 2.77 2.25 9.85 9.85 0 0 1 1.91 4.2 9.7 9.7 0 0 1-.83 4.66"/><path fill="#d7d7d9" d="M84.85 43.87a2.2 2.2 0 0 1-.79 1c-1.75.82-4.12 2.33-6 2.21-1.53-.1-3.35-1.39-4.59-2.3a9 9 0 0 1-1.94-2.49c-1.78-3-.09-6.3-.07-6.33a9.93 9.93 0 0 1 5-3.55c1.66-.4 3.98.6 5.66 1.22a4.24 4.24 0 0 1 1.67 1.38 10.24 10.24 0 0 1 2 4.2 9.6 9.6 0 0 1-.93 4.65"/><path fill="#d8d8da" d="M83.97 44.01a8.52 8.52 0 0 1-6 2.35 6.3 6.3 0 0 1-3.28-1.63 15.6 15.6 0 0 1-3.28-4.16c-.33-.65 1.32-4.61 1.35-4.64a7.26 7.26 0 0 1 3.74-2.71c1.76-.35 4.09.9 5.81 1.41.257.106.477.287.63.52a10.9 10.9 0 0 1 2.07 4.2 9.5 9.5 0 0 1-1 4.66"/><path fill="#dad9db" d="M83.66 42.01c-1.55 2.92-5.72 3.6-5.76 3.6a3.57 3.57 0 0 1-2-1c-1.19-1.17-3.22-2.69-3.48-4.34-.22-1.41.85-3.27 1.63-4.46a4.6 4.6 0 0 1 2.55-1.8c1.5-.28 3.48.75 4.91 1.28a3.4 3.4 0 0 1 1.13 1c1.16 1.32 1.84 4.21 1 5.76"/><path fill="#dbdadc" d="M83.33 40.01c-.85 1.63-2.89 3.2-4.28 4.42a1.92 1.92 0 0 1-1.21.45c-1 0-4.18-4.58-4.18-4.63-.22-1.43 1-3.22 1.75-4.48.29-.492.76-.85 1.31-1a3.63 3.63 0 0 1 2.54.68 35 35 0 0 1 3.86 3.43c.261.314.34.742.21 1.13"/><path fill="#dcdbdd" d="M77.73 43.65c-1.35-.08-2.68-2.12-2.87-3.45a44 44 0 0 1 2-4.58.25.25 0 0 1 .16 0c1.42 1.19 4.61 2.16 4.71 4 .08 1.68-2.29 4-4 4"/><path fill="#dddcde" d="M77.56 41.91c-.7 0-1.39-1.09-1.5-1.78s.25-2.27 1-2.45c1-.23 2.5 1.19 2.54 2.2a2.44 2.44 0 0 1-2.07 2"/><path fill="#dedddf" d="M77.38 40.19c-.06 0-.11-.08-.12-.14s0-.17.08-.19.2.1.2.18-.09.16-.16.15"/><path fill="url(#e)" d="M0 99.189h132.6v9.69H0z" transform="translate(.12)"/><path fill="url(#f)" d="M8.55 108.879h11.03v22.06H8.55z" transform="translate(.12)"/><path fill="url(#f)" d="M112.51 108.879h11.03v22.06h-11.03z" transform="translate(.12)"/><path fill="url(#g)" d="M5.19 130.939h123.45v5.51H5.19z" transform="translate(.12)"/><path fill="url(#h)" d="M96.56.019h1.84v99.74h-1.84z" transform="translate(.12)"/><path fill="url(#h)" d="M111.64.019h1.84v99.74h-1.84z" transform="translate(.12)"/><path fill="url(#i)" d="M98.4 4.449h13.24v1.84H98.4z" transform="translate(.12)"/><path fill="url(#i)" d="M98.4 11.899h13.24v1.84H98.4z" transform="translate(.12)"/><path fill="url(#i)" d="M98.4 19.339h13.24v1.84H98.4z" transform="translate(.12)"/><path fill="url(#i)" d="M98.4 26.789h13.24v1.84H98.4z" transform="translate(.12)"/><path fill="url(#i)" d="M98.4 34.229h13.24v1.84H98.4z" transform="translate(.12)"/><path fill="url(#i)" d="M98.4 41.679h13.24v1.84H98.4z" transform="translate(.12)"/><path fill="url(#j)" d="M98.4 49.129h13.24v1.84H98.4z" transform="translate(.12)"/><path fill="url(#i)" d="M98.4 56.569h13.24v1.84H98.4z" transform="translate(.12)"/><path fill="url(#i)" d="M98.4 64.019h13.24v1.84H98.4z" transform="translate(.12)"/><path fill="url(#i)" d="M98.4 71.459h13.24v1.84H98.4z" transform="translate(.12)"/><path fill="url(#i)" d="M98.4 78.909h13.24v1.84H98.4z" transform="translate(.12)"/><path fill="url(#i)" d="M98.4 86.349h13.24v1.84H98.4z" transform="translate(.12)"/><path fill="url(#i)" d="M98.4 93.799h13.24v1.84H98.4z" transform="translate(.12)"/></g></svg>