<svg xmlns="http://www.w3.org/2000/svg" viewBox="0 0 151 141"><title>Wire mesh container(金属丝网容器)</title><defs><linearGradient id="a" x1="49.996%" x2="49.996%" y1="100%" y2="0%"><stop offset="0%" stop-color="#6b6b6b"/><stop offset="11%" stop-color="#767676"/><stop offset="30%" stop-color="#959595"/><stop offset="41%" stop-color="#aaa"/><stop offset="56%" stop-color="#ccc"/><stop offset="71%" stop-color="#eaeaea"/><stop offset="80%" stop-color="#f6f6f6"/><stop offset="83%" stop-color="#ededed"/><stop offset="87%" stop-color="#d4d4d4"/><stop offset="92%" stop-color="#ababab"/><stop offset="98%" stop-color="#737373"/><stop offset="99%" stop-color="#666"/></linearGradient><linearGradient id="b" x1="50.004%" x2="50.004%" y1="100%" y2="0%"><stop offset="0%" stop-color="#6b6b6b"/><stop offset="11%" stop-color="#767676"/><stop offset="30%" stop-color="#959595"/><stop offset="41%" stop-color="#aaa"/><stop offset="56%" stop-color="#ccc"/><stop offset="71%" stop-color="#eaeaea"/><stop offset="80%" stop-color="#f6f6f6"/><stop offset="83%" stop-color="#ededed"/><stop offset="87%" stop-color="#d4d4d4"/><stop offset="92%" stop-color="#ababab"/><stop offset="98%" stop-color="#737373"/><stop offset="99%" stop-color="#666"/></linearGradient><linearGradient id="c" x1="0%" x2="100.369%" y1="50.005%" y2="50.005%"><stop offset="0%" stop-color="#6b6b6b"/><stop offset="11%" stop-color="#767676"/><stop offset="30%" stop-color="#959595"/><stop offset="41%" stop-color="#aaa"/><stop offset="56%" stop-color="#ccc"/><stop offset="71%" stop-color="#eaeaea"/><stop offset="80%" stop-color="#f6f6f6"/><stop offset="83%" stop-color="#ededed"/><stop offset="87%" stop-color="#d4d4d4"/><stop offset="92%" stop-color="#ababab"/><stop offset="98%" stop-color="#737373"/><stop offset="99%" stop-color="#666"/></linearGradient><linearGradient id="d" x1="0%" x2="100.592%" y1="49.995%" y2="49.995%"><stop offset="0%" stop-color="#6b6b6b"/><stop offset="11%" stop-color="#767676"/><stop offset="30%" stop-color="#959595"/><stop offset="41%" stop-color="#aaa"/><stop offset="56%" stop-color="#ccc"/><stop offset="71%" stop-color="#eaeaea"/><stop offset="80%" stop-color="#f6f6f6"/><stop offset="83%" stop-color="#ededed"/><stop offset="87%" stop-color="#d4d4d4"/><stop offset="92%" stop-color="#ababab"/><stop offset="98%" stop-color="#737373"/><stop offset="99%" stop-color="#666"/></linearGradient><linearGradient id="e" x1="0%" x2="100%" y1="49.995%" y2="49.995%"><stop offset="0%" stop-color="#6b6b6b"/><stop offset="11%" stop-color="#767676"/><stop offset="30%" stop-color="#959595"/><stop offset="41%" stop-color="#aaa"/><stop offset="56%" stop-color="#ccc"/><stop offset="71%" stop-color="#eaeaea"/><stop offset="80%" stop-color="#f6f6f6"/><stop offset="83%" stop-color="#ededed"/><stop offset="87%" stop-color="#d4d4d4"/><stop offset="92%" stop-color="#ababab"/><stop offset="98%" stop-color="#737373"/><stop offset="99%" stop-color="#666"/></linearGradient><linearGradient id="f" x1="0%" x2="100%" y1="50%" y2="50%"><stop offset="0%" stop-color="#6b6b6b"/><stop offset="11%" stop-color="#767676"/><stop offset="30%" stop-color="#959595"/><stop offset="41%" stop-color="#aaa"/><stop offset="56%" stop-color="#ccc"/><stop offset="71%" stop-color="#eaeaea"/><stop offset="80%" stop-color="#f6f6f6"/><stop offset="83%" stop-color="#ededed"/><stop offset="87%" stop-color="#d4d4d4"/><stop offset="92%" stop-color="#ababab"/><stop offset="98%" stop-color="#737373"/><stop offset="99%" stop-color="#666"/></linearGradient><linearGradient id="g" x1="0%" x2="100%" y1="50.005%" y2="50.005%"><stop offset="0%" stop-color="#6b6b6b"/><stop offset="11%" stop-color="#767676"/><stop offset="30%" stop-color="#959595"/><stop offset="41%" stop-color="#aaa"/><stop offset="56%" stop-color="#ccc"/><stop offset="71%" stop-color="#eaeaea"/><stop offset="80%" stop-color="#f6f6f6"/><stop offset="83%" stop-color="#ededed"/><stop offset="87%" stop-color="#d4d4d4"/><stop offset="92%" stop-color="#ababab"/><stop offset="98%" stop-color="#737373"/><stop offset="99%" stop-color="#666"/></linearGradient><linearGradient id="h" x1="50.004%" x2="50.004%" y1="100.213%" y2="0%"><stop offset="0%" stop-color="#e2e2e2"/><stop offset="3%" stop-color="#d0d0d0"/><stop offset="6%" stop-color="#bcbcbc"/><stop offset="9%" stop-color="#b5b5b5"/><stop offset="49%" stop-color="#f6f6f6"/><stop offset="63%" stop-color="#f3f3f3"/><stop offset="73%" stop-color="#eaeaea"/><stop offset="82%" stop-color="#dbdbdb"/><stop offset="90%" stop-color="#c6c6c6"/><stop offset="97%" stop-color="#aaa"/><stop offset="100%" stop-color="#9b9b9b"/></linearGradient><linearGradient id="i" x1="0%" x2="100%" y1="50.009%" y2="50.009%"><stop offset="0%" stop-color="#6b6b6b"/><stop offset="1%" stop-color="#767676"/><stop offset="3%" stop-color="#959595"/><stop offset="4%" stop-color="#aaa"/><stop offset="37%" stop-color="#ccc"/><stop offset="74%" stop-color="#eaeaea"/><stop offset="94%" stop-color="#f6f6f6"/><stop offset="95%" stop-color="#ededed"/><stop offset="96%" stop-color="#d4d4d4"/><stop offset="97%" stop-color="#ababab"/><stop offset="99%" stop-color="#737373"/><stop offset="99%" stop-color="#666"/></linearGradient><linearGradient id="j" x1="0%" x2="100%" y1="50%" y2="50%"><stop offset="0%" stop-color="#6b6b6b"/><stop offset="1%" stop-color="#767676"/><stop offset="3%" stop-color="#959595"/><stop offset="4%" stop-color="#aaa"/><stop offset="37%" stop-color="#ccc"/><stop offset="74%" stop-color="#eaeaea"/><stop offset="94%" stop-color="#f6f6f6"/><stop offset="95%" stop-color="#ededed"/><stop offset="96%" stop-color="#d4d4d4"/><stop offset="97%" stop-color="#ababab"/><stop offset="99%" stop-color="#737373"/><stop offset="99%" stop-color="#666"/></linearGradient><linearGradient id="k" x1="5.583%" x2="105.564%" y1="47.812%" y2="47.812%"><stop offset="0%" stop-color="#e2e2e2"/><stop offset="3%" stop-color="#d0d0d0"/><stop offset="6%" stop-color="#bcbcbc"/><stop offset="9%" stop-color="#b5b5b5"/><stop offset="49%" stop-color="#f6f6f6"/><stop offset="63%" stop-color="#f3f3f3"/><stop offset="73%" stop-color="#eaeaea"/><stop offset="82%" stop-color="#dbdbdb"/><stop offset="90%" stop-color="#c6c6c6"/><stop offset="97%" stop-color="#aaa"/><stop offset="100%" stop-color="#9b9b9b"/></linearGradient><linearGradient id="l" x1="8.626%" x2="108.948%" y1="51.669%" y2="51.669%"><stop offset="0%" stop-color="#e2e2e2"/><stop offset="3%" stop-color="#d0d0d0"/><stop offset="6%" stop-color="#bcbcbc"/><stop offset="9%" stop-color="#b5b5b5"/><stop offset="49%" stop-color="#f6f6f6"/><stop offset="63%" stop-color="#f3f3f3"/><stop offset="73%" stop-color="#eaeaea"/><stop offset="82%" stop-color="#dbdbdb"/><stop offset="90%" stop-color="#c6c6c6"/><stop offset="97%" stop-color="#aaa"/><stop offset="100%" stop-color="#9b9b9b"/></linearGradient><linearGradient id="m" x1=".453%" x2="100.843%" y1="50.073%" y2="50.073%"><stop offset="0%" stop-color="#e2e2e2"/><stop offset="3%" stop-color="#d0d0d0"/><stop offset="6%" stop-color="#bcbcbc"/><stop offset="9%" stop-color="#b5b5b5"/><stop offset="49%" stop-color="#f6f6f6"/><stop offset="63%" stop-color="#f3f3f3"/><stop offset="73%" stop-color="#eaeaea"/><stop offset="82%" stop-color="#dbdbdb"/><stop offset="90%" stop-color="#c6c6c6"/><stop offset="97%" stop-color="#aaa"/><stop offset="100%" stop-color="#9b9b9b"/></linearGradient><linearGradient id="n" x1="0%" x2="100%" y1="50.005%" y2="50.005%"><stop offset="0%" stop-color="#6b6b6b"/><stop offset="11%" stop-color="#767676"/><stop offset="30%" stop-color="#959595"/><stop offset="41%" stop-color="#aaa"/><stop offset="56%" stop-color="#ccc"/><stop offset="71%" stop-color="#eaeaea"/><stop offset="80%" stop-color="#f6f6f6"/><stop offset="83%" stop-color="#ededed"/><stop offset="87%" stop-color="#d4d4d4"/><stop offset="92%" stop-color="#ababab"/><stop offset="98%" stop-color="#737373"/><stop offset="99%" stop-color="#666"/></linearGradient><linearGradient id="o" x1="0%" x2="100.369%" y1="50.005%" y2="50.005%"><stop offset="0%" stop-color="#6b6b6b"/><stop offset="11%" stop-color="#767676"/><stop offset="30%" stop-color="#959595"/><stop offset="41%" stop-color="#aaa"/><stop offset="56%" stop-color="#ccc"/><stop offset="71%" stop-color="#eaeaea"/><stop offset="80%" stop-color="#f6f6f6"/><stop offset="83%" stop-color="#ededed"/><stop offset="87%" stop-color="#d4d4d4"/><stop offset="92%" stop-color="#ababab"/><stop offset="98%" stop-color="#737373"/><stop offset="99%" stop-color="#666"/></linearGradient><linearGradient id="p" x1="0%" x2="100%" y1="50.005%" y2="50.005%"><stop offset="0%" stop-color="#6b6b6b"/><stop offset="1%" stop-color="#767676"/><stop offset="3%" stop-color="#959595"/><stop offset="4%" stop-color="#aaa"/><stop offset="37%" stop-color="#ccc"/><stop offset="74%" stop-color="#eaeaea"/><stop offset="94%" stop-color="#f6f6f6"/><stop offset="95%" stop-color="#ededed"/><stop offset="96%" stop-color="#d4d4d4"/><stop offset="97%" stop-color="#ababab"/><stop offset="99%" stop-color="#737373"/><stop offset="99%" stop-color="#666"/></linearGradient><linearGradient id="q" x1="50%" x2="50%" y1="100%" y2="0%"><stop offset="0%" stop-color="#6b6b6b"/><stop offset="1%" stop-color="#767676"/><stop offset="3%" stop-color="#959595"/><stop offset="4%" stop-color="#aaa"/><stop offset="37%" stop-color="#ccc"/><stop offset="74%" stop-color="#eaeaea"/><stop offset="94%" stop-color="#f6f6f6"/><stop offset="95%" stop-color="#ededed"/><stop offset="96%" stop-color="#d4d4d4"/><stop offset="97%" stop-color="#ababab"/><stop offset="99%" stop-color="#737373"/><stop offset="99%" stop-color="#666"/></linearGradient><linearGradient id="r" x1="0%" x2="100%" y1="50.042%" y2="50.042%"><stop offset="0%" stop-color="#6b6b6b"/><stop offset="1%" stop-color="#767676"/><stop offset="3%" stop-color="#959595"/><stop offset="4%" stop-color="#aaa"/><stop offset="37%" stop-color="#ccc"/><stop offset="74%" stop-color="#eaeaea"/><stop offset="94%" stop-color="#f6f6f6"/><stop offset="95%" stop-color="#ededed"/><stop offset="96%" stop-color="#d4d4d4"/><stop offset="97%" stop-color="#ababab"/><stop offset="99%" stop-color="#737373"/><stop offset="99%" stop-color="#666"/></linearGradient><linearGradient id="s" x1="50%" x2="50%" y1="0%" y2="100%"><stop offset="0%" stop-color="#6b6b6b"/><stop offset="1%" stop-color="#767676"/><stop offset="3%" stop-color="#959595"/><stop offset="4%" stop-color="#aaa"/><stop offset="37%" stop-color="#ccc"/><stop offset="74%" stop-color="#eaeaea"/><stop offset="94%" stop-color="#f6f6f6"/><stop offset="95%" stop-color="#ededed"/><stop offset="96%" stop-color="#d4d4d4"/><stop offset="97%" stop-color="#ababab"/><stop offset="99%" stop-color="#737373"/><stop offset="99%" stop-color="#666"/></linearGradient><linearGradient id="t" x1="-.502%" x2="99.889%" y1="49.714%" y2="49.714%"><stop offset="0%" stop-color="#e2e2e2"/><stop offset="3%" stop-color="#d0d0d0"/><stop offset="6%" stop-color="#bcbcbc"/><stop offset="9%" stop-color="#b5b5b5"/><stop offset="49%" stop-color="#f6f6f6"/><stop offset="63%" stop-color="#f3f3f3"/><stop offset="73%" stop-color="#eaeaea"/><stop offset="82%" stop-color="#dbdbdb"/><stop offset="90%" stop-color="#c6c6c6"/><stop offset="97%" stop-color="#aaa"/><stop offset="100%" stop-color="#9b9b9b"/></linearGradient><linearGradient id="u" x1="50%" x2="50%" y1="100%" y2="0%"><stop offset="0%" stop-color="#e2e2e2"/><stop offset="3%" stop-color="#d0d0d0"/><stop offset="6%" stop-color="#bcbcbc"/><stop offset="9%" stop-color="#b5b5b5"/><stop offset="49%" stop-color="#f6f6f6"/><stop offset="63%" stop-color="#f3f3f3"/><stop offset="73%" stop-color="#eaeaea"/><stop offset="82%" stop-color="#dbdbdb"/><stop offset="90%" stop-color="#c6c6c6"/><stop offset="97%" stop-color="#aaa"/><stop offset="100%" stop-color="#9b9b9b"/></linearGradient><linearGradient id="v" x1="0%" x2="100%" y1="50.005%" y2="50.005%"><stop offset="0%" stop-color="#6b6b6b"/><stop offset="1%" stop-color="#767676"/><stop offset="3%" stop-color="#959595"/><stop offset="4%" stop-color="#aaa"/><stop offset="37%" stop-color="#ccc"/><stop offset="74%" stop-color="#eaeaea"/><stop offset="94%" stop-color="#f6f6f6"/><stop offset="95%" stop-color="#ededed"/><stop offset="96%" stop-color="#d4d4d4"/><stop offset="97%" stop-color="#ababab"/><stop offset="99%" stop-color="#737373"/><stop offset="99%" stop-color="#666"/></linearGradient></defs><g fill="none" fill-rule="nonzero"><path fill="url(#a)" d="M5.15 29.386h139.27v4.69H5.15z" transform="translate(.17 .014)"/><path fill="url(#b)" d="M6.16 54.336h139.27v4.69H6.16z" transform="translate(.17 .014)"/><path fill="url(#b)" d="M7.18 79.286h139.27v4.69H7.18z" transform="translate(.17 .014)"/><path fill="url(#a)" d="M8.2 104.236h139.27v4.69H8.2z" transform="translate(.17 .014)"/><path fill="url(#c)" d="M17.17 2.316h2.71v103.19h-2.71z" transform="translate(.17 .014)"/><path fill="url(#d)" d="M6.16 7.146h1.69v103.19H6.16z" transform="translate(.17 .014)"/><path fill="url(#e)" d="M3.94 8.506h1.69v103.19H3.94z" transform="translate(.17 .014)"/><path fill="url(#f)" d="M143.35 9.636h1.69v98.28h-1.69z" transform="translate(.17 .014)"/><path fill="url(#d)" d="M141.12 6.086h1.69v103.19h-1.69z" transform="translate(.17 .014)"/><path fill="url(#g)" d="M22.26 2.316h2.71v103.19h-2.71z" transform="translate(.17 .014)"/><path fill="url(#g)" d="M27.34 2.316h2.71v103.19h-2.71z" transform="translate(.17 .014)"/><path fill="url(#g)" d="M32.42 2.316h2.71v103.19h-2.71z" transform="translate(.17 .014)"/><path fill="url(#g)" d="M37.51 2.316h2.71v103.19h-2.71z" transform="translate(.17 .014)"/><path fill="url(#g)" d="M42.59 2.316h2.71v103.19h-2.71z" transform="translate(.17 .014)"/><path fill="url(#g)" d="M47.67 2.316h2.71v103.19h-2.71z" transform="translate(.17 .014)"/><path fill="url(#g)" d="M52.76 2.316h2.71v103.19h-2.71z" transform="translate(.17 .014)"/><path fill="url(#g)" d="M57.84 2.316h2.71v103.19h-2.71z" transform="translate(.17 .014)"/><path fill="url(#g)" d="M62.92 2.316h2.71v103.19h-2.71z" transform="translate(.17 .014)"/><path fill="url(#g)" d="M68.01 2.316h2.71v103.19h-2.71z" transform="translate(.17 .014)"/><path fill="url(#g)" d="M73.09 2.316h2.71v103.19h-2.71z" transform="translate(.17 .014)"/><path fill="url(#g)" d="M78.17 2.316h2.71v103.19h-2.71z" transform="translate(.17 .014)"/><path fill="url(#c)" d="M83.25 2.316h2.71v103.19h-2.71z" transform="translate(.17 .014)"/><path fill="url(#g)" d="M88.34 2.316h2.71v103.19h-2.71z" transform="translate(.17 .014)"/><path fill="url(#g)" d="M93.42 2.316h2.71v103.19h-2.71z" transform="translate(.17 .014)"/><path fill="url(#c)" d="M98.5 2.316h2.71v103.19H98.5z" transform="translate(.17 .014)"/><path fill="url(#g)" d="M103.59 2.316h2.71v103.19h-2.71z" transform="translate(.17 .014)"/><path fill="url(#g)" d="M108.67 2.316h2.71v103.19h-2.71z" transform="translate(.17 .014)"/><path fill="url(#g)" d="M113.75 2.316h2.71v103.19h-2.71z" transform="translate(.17 .014)"/><path fill="url(#g)" d="M118.84 2.316h2.71v103.19h-2.71z" transform="translate(.17 .014)"/><path fill="url(#g)" d="M123.92 2.316h2.71v103.19h-2.71z" transform="translate(.17 .014)"/><path fill="url(#g)" d="M129 2.316h2.71v103.19H129z" transform="translate(.17 .014)"/><path fill="url(#g)" d="M134.09 2.316h2.71v103.19h-2.71z" transform="translate(.17 .014)"/><path fill="#7f7f7f" d="M6.39 106.14h136.9v14.23H6.39z"/><path fill="url(#h)" d="M6.5 104.876h139.27v4.69H6.5z" transform="translate(.17 .014)"/><path fill="url(#i)" d="M8.82.066h6.32v109.5H8.82z" transform="translate(.17 .014)"/><path fill="url(#j)" d="M135.78.066h4.74v109.36h-4.74z" transform="translate(.17 .014)"/><path fill="url(#k)" d="M4.117 107.522h4.22v17.89h-4.22z" transform="rotate(29.27 6.285 116.8)"/><path fill="url(#l)" d="M141.239 107.381h4.22v17.89h-4.22z" transform="rotate(150.73 143.433 116.355)"/><path fill="url(#m)" d="M142.439-.428h2.87v18.66h-2.87z" transform="rotate(150.73 143.957 8.931)"/><path fill="url(#n)" d="M12.43 15.576h2.71v108.05h-2.71z" transform="translate(.17 .014)"/><path fill="url(#n)" d="M18.53 15.576h2.71v108.05h-2.71z" transform="translate(.17 .014)"/><path fill="url(#n)" d="M24.63 15.576h2.71v108.05h-2.71z" transform="translate(.17 .014)"/><path fill="url(#n)" d="M30.73 15.576h2.71v108.05h-2.71z" transform="translate(.17 .014)"/><path fill="url(#n)" d="M36.83 15.576h2.71v108.05h-2.71z" transform="translate(.17 .014)"/><path fill="url(#n)" d="M42.93 15.576h2.71v108.05h-2.71z" transform="translate(.17 .014)"/><path fill="url(#n)" d="M49.03 15.576h2.71v108.05h-2.71z" transform="translate(.17 .014)"/><path fill="url(#n)" d="M55.13 15.576h2.71v108.05h-2.71z" transform="translate(.17 .014)"/><path fill="url(#n)" d="M61.23 15.576h2.71v108.05h-2.71z" transform="translate(.17 .014)"/><path fill="url(#n)" d="M67.33 15.576h2.71v108.05h-2.71z" transform="translate(.17 .014)"/><path fill="url(#n)" d="M73.43 15.576h2.71v108.05h-2.71z" transform="translate(.17 .014)"/><path fill="url(#n)" d="M79.53 15.576h2.71v108.05h-2.71z" transform="translate(.17 .014)"/><path fill="url(#n)" d="M85.63 15.576h2.71v108.05h-2.71z" transform="translate(.17 .014)"/><path fill="url(#n)" d="M91.73 15.576h2.71v108.05h-2.71z" transform="translate(.17 .014)"/><path fill="url(#n)" d="M97.83 15.576h2.71v108.05h-2.71z" transform="translate(.17 .014)"/><path fill="url(#n)" d="M103.93 15.576h2.71v108.05h-2.71z" transform="translate(.17 .014)"/><path fill="url(#n)" d="M110.03 15.576h2.71v108.05h-2.71z" transform="translate(.17 .014)"/><path fill="url(#n)" d="M116.13 15.576h2.71v108.05h-2.71z" transform="translate(.17 .014)"/><path fill="url(#n)" d="M122.23 15.576h2.71v108.05h-2.71z" transform="translate(.17 .014)"/><path fill="url(#o)" d="M128.32 15.576h2.71v108.05h-2.71z" transform="translate(.17 .014)"/><path fill="url(#o)" d="M134.42 15.576h2.71v108.05h-2.71z" transform="translate(.17 .014)"/><path fill="url(#o)" d="M140.52 15.576h2.71v108.05h-2.71z" transform="translate(.17 .014)"/><path fill="url(#h)" d="M4.41 15.576h139.27v4.69H4.41z" transform="translate(.17 .014)"/><path fill="url(#b)" d="M4.41 41.416h139.27v4.69H4.41z" transform="translate(.17 .014)"/><path fill="url(#b)" d="M4.41 67.256h139.27v4.69H4.41z" transform="translate(.17 .014)"/><path fill="url(#b)" d="M4.41 93.096h139.27v4.69H4.41z" transform="translate(.17 .014)"/><path fill="url(#h)" d="M4.41 118.926h139.27v4.69H4.41z" transform="translate(.17 .014)"/><path fill="url(#p)" d="M141.2 15.576h8.42v108.05h-8.42z" transform="translate(.17 .014)"/><path fill="url(#q)" d="M0 123.626h17.4v5.26H0z" transform="translate(.17 .014)"/><path fill="url(#r)" d="M0 128.886h6.78v11.97H0z" transform="translate(.17 .014)"/><path fill="url(#s)" d="M132.49 123.186h17.4v5.26h-17.4z" transform="matrix(-1 0 0 -1 282.55 251.646)"/><path fill="url(#r)" d="M143.11 128.456h6.78v11.97h-6.78z" transform="matrix(-1 0 0 -1 293.17 268.896)"/><path fill="url(#t)" d="M4.196-.44h2.87v17.89h-2.87z" transform="rotate(29.27 5.688 8.838)"/><path fill="url(#u)" d="M8.82.066h131.7v2.76H8.82z" transform="translate(.17 .014)"/><path fill="url(#v)" d="M0 15.576h8.82v108.05H0z" transform="translate(.17 .014)"/></g></svg>