<svg xmlns="http://www.w3.org/2000/svg" viewBox="0 0 151 151"><title>3</title><defs><linearGradient id="a" x1="0%" x2="100%" y1="50%" y2="50%"><stop offset="0%" stop-color="#1e4366"/><stop offset="100%" stop-color="#245480"/></linearGradient><linearGradient id="b" x1="50%" x2="50%" y1="100%" y2="0%"><stop offset="0%" stop-color="#1e4366"/><stop offset="27%" stop-color="#1f4669"/><stop offset="45%" stop-color="#214f71"/><stop offset="61%" stop-color="#255e7f"/><stop offset="75%" stop-color="#2a7392"/><stop offset="87%" stop-color="#318eac"/><stop offset="99%" stop-color="#3aafca"/><stop offset="100%" stop-color="#3ab1cc"/></linearGradient><linearGradient id="c" x1="50%" x2="50%" y1="100%" y2="0%"><stop offset="0%" stop-color="#8b9299"/><stop offset="100%" stop-color="#a5b9cc"/></linearGradient><linearGradient id="d" x1="50%" x2="50%" y1="100.427%" y2="-.427%"><stop offset="0%" stop-color="#61676b" stop-opacity="0"/><stop offset="20%" stop-color="#62686d" stop-opacity=".01"/><stop offset="34%" stop-color="#676d72" stop-opacity=".05"/><stop offset="45%" stop-color="#6e757a" stop-opacity=".1"/><stop offset="56%" stop-color="#798087" stop-opacity=".19"/><stop offset="65%" stop-color="#878e97" stop-opacity=".3"/><stop offset="74%" stop-color="#98a0aa" stop-opacity=".43"/><stop offset="83%" stop-color="#acb4c2" stop-opacity=".59"/><stop offset="91%" stop-color="#c3cddd" stop-opacity=".77"/><stop offset="99%" stop-color="#dde7fb" stop-opacity=".97"/><stop offset="100%" stop-color="#e1ebff"/></linearGradient></defs><g fill="none" fill-rule="nonzero" transform="translate(.63 .56)"><path fill="url(#a)" d="M150 14.09v121.82c-.006 7.78-6.31 14.084-14.09 14.09H14.09C6.31 149.994.006 143.69 0 135.91V14.09C.006 6.31 6.31.006 14.09 0h121.82c7.78.006 14.084 6.31 14.09 14.09"/><path fill="url(#b)" d="M135.91 2c6.675.006 12.084 5.415 12.09 12.09v121.82c-.006 6.675-5.415 12.084-12.09 12.09H14.09c-6.675-.006-12.084-5.415-12.09-12.09V14.09C2.006 7.415 7.415 2.006 14.09 2zm0-2H14.09C6.31.006.006 6.31 0 14.09v121.82c.006 7.78 6.31 14.084 14.09 14.09h121.82c7.78-.006 14.084-6.31 14.09-14.09V14.09C149.994 6.31 143.69.006 135.91 0"/><path fill="#17334d" d="M145.52 145.52a14 14 0 0 1-9.91 4.11H14.39a14 14 0 0 1-9.91-4.11l17.1-17.1h106.84z"/><path fill="#3275b3" d="m145.52 4.48-17.1 17.1H21.58L4.48 4.48A14 14 0 0 1 14.39.37h121.22a14 14 0 0 1 9.91 4.11"/><path fill="#16324d" d="M149.63 14.39v121.22a14 14 0 0 1-4.11 9.91l-17.1-17.1V21.58l17.1-17.1a14 14 0 0 1 4.11 9.91M21.58 21.58v106.84l-17.1 17.1a14 14 0 0 1-4.11-9.91V14.39a14 14 0 0 1 4.11-9.91z"/><rect width="117.1" height="117.1" x="16.45" y="16.45" fill="url(#c)" stroke="url(#d)" rx="9.34"/><path fill="#fff" d="M71.63 69.27h1.64A5 5 0 0 0 77 67.88a4.7 4.7 0 0 0 1.35-3.49A5.12 5.12 0 0 0 77 60.84a4.83 4.83 0 0 0-3.46-1.39 4.27 4.27 0 0 0-2.77 1A5.12 5.12 0 0 0 69 63.59h-4.75a10.07 10.07 0 0 1 3-6.39 8.56 8.56 0 0 1 6.13-2.63 9.4 9.4 0 0 1 7.18 3 10 10 0 0 1 2.59 6.75 10.5 10.5 0 0 1-.7 3.8 8.07 8.07 0 0 1-2.93 3.26 8.5 8.5 0 0 1 3.11 3.37 9.7 9.7 0 0 1 .92 4.13 10.24 10.24 0 0 1-2.88 7.57 9.77 9.77 0 0 1-7.17 2.88 8.9 8.9 0 0 1-6-2.25 10.72 10.72 0 0 1-3.38-6.5h4.74a6.8 6.8 0 0 0 1.8 2.77 4.37 4.37 0 0 0 3.13 1.11 4.73 4.73 0 0 0 3.5-1.46 5.36 5.36 0 0 0 1.5-4 5.55 5.55 0 0 0-1.5-4 5 5 0 0 0-3.63-1.39h-2z"/></g></svg>