<svg xmlns="http://www.w3.org/2000/svg" viewBox="0 0 151 151"><title>6</title><defs><linearGradient id="a" x1="0%" x2="100%" y1="50%" y2="50%"><stop offset="0%" stop-color="#1e4366"/><stop offset="100%" stop-color="#245480"/></linearGradient><linearGradient id="b" x1="50%" x2="50%" y1="100%" y2="0%"><stop offset="0%" stop-color="#1e4366"/><stop offset="27%" stop-color="#1f4669"/><stop offset="45%" stop-color="#214f71"/><stop offset="61%" stop-color="#255e7f"/><stop offset="75%" stop-color="#2a7392"/><stop offset="87%" stop-color="#318eac"/><stop offset="99%" stop-color="#3aafca"/><stop offset="100%" stop-color="#3ab1cc"/></linearGradient><linearGradient id="c" x1="50%" x2="50%" y1="100%" y2="0%"><stop offset="0%" stop-color="#8b9299"/><stop offset="100%" stop-color="#a5b9cc"/></linearGradient><linearGradient id="d" x1="50%" x2="50%" y1="100.427%" y2="-.427%"><stop offset="0%" stop-color="#61676b" stop-opacity="0"/><stop offset="20%" stop-color="#62686d" stop-opacity=".01"/><stop offset="34%" stop-color="#676d72" stop-opacity=".05"/><stop offset="45%" stop-color="#6e757a" stop-opacity=".1"/><stop offset="56%" stop-color="#798087" stop-opacity=".19"/><stop offset="65%" stop-color="#878e97" stop-opacity=".3"/><stop offset="74%" stop-color="#98a0aa" stop-opacity=".43"/><stop offset="83%" stop-color="#acb4c2" stop-opacity=".59"/><stop offset="91%" stop-color="#c3cddd" stop-opacity=".77"/><stop offset="99%" stop-color="#dde7fb" stop-opacity=".97"/><stop offset="100%" stop-color="#e1ebff"/></linearGradient></defs><g fill="none" fill-rule="nonzero" transform="translate(.63 .56)"><path fill="url(#a)" d="M150 14.09v121.82c-.006 7.78-6.31 14.084-14.09 14.09H14.09C6.31 149.994.006 143.69 0 135.91V14.09C.006 6.31 6.31.006 14.09 0h121.82c7.78.006 14.084 6.31 14.09 14.09"/><path fill="url(#b)" d="M135.91 2c6.675.006 12.084 5.415 12.09 12.09v121.82c-.006 6.675-5.415 12.084-12.09 12.09H14.09c-6.675-.006-12.084-5.415-12.09-12.09V14.09C2.006 7.415 7.415 2.006 14.09 2zm0-2H14.09C6.31.006.006 6.31 0 14.09v121.82c.006 7.78 6.31 14.084 14.09 14.09h121.82c7.78-.006 14.084-6.31 14.09-14.09V14.09C149.994 6.31 143.69.006 135.91 0"/><path fill="#17334d" d="M145.52 145.52a14 14 0 0 1-9.91 4.11H14.39a14 14 0 0 1-9.91-4.11l17.1-17.1h106.84z"/><path fill="#3275b3" d="m145.52 4.48-17.1 17.1H21.58L4.48 4.48A14 14 0 0 1 14.39.37h121.22a14 14 0 0 1 9.91 4.11"/><path fill="#16324d" d="M149.63 14.39v121.22a14 14 0 0 1-4.11 9.91l-17.1-17.1V21.58l17.1-17.1a14 14 0 0 1 4.11 9.91M21.58 21.58v106.84l-17.1 17.1a14 14 0 0 1-4.11-9.91V14.39a14 14 0 0 1 4.11-9.91z"/><rect width="117.1" height="117.1" x="16.45" y="16.45" fill="url(#c)" stroke="url(#d)" rx="9.34"/><path fill="#fff" d="M81.29 54.5a2.5 2.5 0 0 1-.22.51l-.67 1.37c-.28.58-.61 1.24-1 2l-1.19 2.37c-.41.83-.83 1.66-1.26 2.51l-1.24 2.41-1.09 2.09c-.33.62-.6 1.12-.82 1.5a3.5 3.5 0 0 1 1.53-.48 14 14 0 0 1 2 0 7.4 7.4 0 0 1 6.34 3.57c.362.588.664 1.211.9 1.86a9 9 0 0 1 .43 1.63q.114.61.13 1.23v3.07c0 .21-.06.4-.15.86a10 10 0 0 1-.47 1.64 12.3 12.3 0 0 1-1 2 9.3 9.3 0 0 1-1.66 2.06 9.8 9.8 0 0 1-2.51 1.68 10 10 0 0 1-3.52.87 10.3 10.3 0 0 1-3.76-.25 9 9 0 0 1-2.84-1.33 8.6 8.6 0 0 1-2-2A10.3 10.3 0 0 1 66 83.33a10 10 0 0 1-.63-2.33 7.7 7.7 0 0 1-.06-1.88A26 26 0 0 1 66 75.4c.15-.54.32-1.09.5-1.62s.41-1.11.66-1.73c.06-.16.23-.53.52-1.12s.62-1.31 1-2.17.88-1.8 1.39-2.83 1-2.08 1.55-3.14l4.1-8.28zm-1 25c0-.59 0-1.25-.07-2a5.6 5.6 0 0 0-.53-2.05 4.13 4.13 0 0 0-1.49-1.67 6 6 0 0 0-2.91-.78 4 4 0 0 0-1.61.19 4.4 4.4 0 0 0-1.29.7 5.3 5.3 0 0 0-1 1 8 8 0 0 0-.66 1.11 5.3 5.3 0 0 0-.38 1 3.3 3.3 0 0 0-.12.74v1.3q.028.721.16 1.43c.082.477.227.94.43 1.38.204.453.5.858.87 1.19.421.37.91.656 1.44.84a6.3 6.3 0 0 0 2.19.33 4.8 4.8 0 0 0 1.86-.21 5 5 0 0 0 1.34-.75 4.3 4.3 0 0 0 .9-1 6 6 0 0 0 .55-1.1q.18-.489.27-1a4 4 0 0 0 .07-.64z"/></g></svg>