<svg xmlns="http://www.w3.org/2000/svg" viewBox="0 0 248 151"><title>Back</title><defs><linearGradient id="a" x1="0%" x2="100%" y1="50%" y2="50%"><stop offset="0%" stop-color="#1e4366"/><stop offset="100%" stop-color="#245480"/></linearGradient><linearGradient id="b" x1="50%" x2="50%" y1="100%" y2="0%"><stop offset="0%" stop-color="#1e4366"/><stop offset="27%" stop-color="#1f4669"/><stop offset="45%" stop-color="#214f71"/><stop offset="61%" stop-color="#255e7f"/><stop offset="75%" stop-color="#2a7392"/><stop offset="87%" stop-color="#318eac"/><stop offset="99%" stop-color="#3aafca"/><stop offset="100%" stop-color="#3ab1cc"/></linearGradient><linearGradient id="c" x1="50%" x2="50%" y1="100%" y2="0%"><stop offset="0%" stop-color="#61666b"/><stop offset="100%" stop-color="#7c8b99"/></linearGradient><linearGradient id="d" x1="50%" x2="50%" y1="100.427%" y2="-.427%"><stop offset="0%" stop-color="#61676b" stop-opacity="0"/><stop offset="21%" stop-color="#62686c" stop-opacity=".01"/><stop offset="35%" stop-color="#666c71" stop-opacity=".05"/><stop offset="47%" stop-color="#6d7479" stop-opacity=".12"/><stop offset="58%" stop-color="#777e85" stop-opacity=".21"/><stop offset="68%" stop-color="#848b93" stop-opacity=".33"/><stop offset="77%" stop-color="#939ba5" stop-opacity=".48"/><stop offset="86%" stop-color="#a6aebb" stop-opacity=".65"/><stop offset="94%" stop-color="#bbc3d3" stop-opacity=".85"/><stop offset="100%" stop-color="#cbd4e6"/></linearGradient></defs><g fill="none" fill-rule="nonzero" transform="translate(.17 .56)"><path fill="url(#a)" d="M246.92 14.09v121.82c-.006 7.78-6.31 14.084-14.09 14.09H14.09C6.31 149.994.006 143.69 0 135.91V14.09C.006 6.31 6.31.006 14.09 0h218.74c7.78.006 14.084 6.31 14.09 14.09"/><path fill="url(#b)" d="M232.83 2c6.675.006 12.084 5.415 12.09 12.09v121.82c-.006 6.675-5.415 12.084-12.09 12.09H14.09c-6.675-.006-12.084-5.415-12.09-12.09V14.09C2.006 7.415 7.415 2.006 14.09 2zm0-2H14.09C6.31.006.006 6.31 0 14.09v121.82c.006 7.78 6.31 14.084 14.09 14.09h218.74c7.78-.006 14.084-6.31 14.09-14.09V14.09C246.914 6.31 240.61.006 232.83 0"/><path fill="#0b1926" d="M242.44 145.52a14 14 0 0 1-9.91 4.11H14.39a14 14 0 0 1-9.91-4.11l17.1-17.1h203.76z"/><path fill="#3275b3" d="m242.44 4.48-17.1 17.1H21.58L4.48 4.48A14 14 0 0 1 14.39.37h218.14a14 14 0 0 1 9.91 4.11"/><path fill="#16324d" d="M246.55 14.39v121.22a14 14 0 0 1-4.11 9.91l-17.1-17.1V21.58l17.1-17.1a14 14 0 0 1 4.11 9.91M21.58 21.58v106.84l-17.1 17.1a14 14 0 0 1-4.11-9.91V14.39a14 14 0 0 1 4.11-9.91z"/><rect width="214.02" height="117.1" x="16.45" y="16.45" fill="url(#c)" stroke="url(#d)" rx="9.34"/><path fill="#fff" d="M70.7 67.06h5.61a4.45 4.45 0 0 1 3.21 1.11 4 4 0 0 1 1.08 2.9 3.57 3.57 0 0 1-.43 1.77 2.8 2.8 0 0 1-.65.75 4.6 4.6 0 0 1-1 .69 3 3 0 0 1 1.79 1.28c.378.66.574 1.41.57 2.17a4.17 4.17 0 0 1-1.18 3.06A3.8 3.8 0 0 1 76.8 82h-6.1zm2.19 2v4.3h3.17a2.25 2.25 0 0 0 1.77-.65 2.1 2.1 0 0 0 .58-1.5 2.2 2.2 0 0 0-.58-1.54 2.46 2.46 0 0 0-1.77-.61zm0 6.31v4.5h3.39a2.26 2.26 0 0 0 1.79-.69 2.25 2.25 0 0 0-1.79-3.81zm15.84 5.7a1.8 1.8 0 0 1-.9.8 4.1 4.1 0 0 1-1.65.27 3.7 3.7 0 0 1-2.66-1 3 3 0 0 1-1-2.3 3.07 3.07 0 0 1 .85-2.23 3.35 3.35 0 0 1 2.51-.92h2.86v-1.07c0-1-.69-1.4-2.11-1.37a3.6 3.6 0 0 0-1.22.16 1.52 1.52 0 0 0-.74.66L83 72.79a4 4 0 0 1 3.49-1.55 5.3 5.3 0 0 1 3.1.76 3.1 3.1 0 0 1 1.18 2.74V82h-2.04zm0-3.57h-2.48c-1.21 0-1.81.46-1.79 1.28-.002.365.169.71.46.93.428.32.959.469 1.49.42a3.53 3.53 0 0 0 1.84-.32c.32-.23.48-.74.48-1.54zM101.41 80.3a5.7 5.7 0 0 1-1.59 1.3 4.54 4.54 0 0 1-5.32-.75A5.44 5.44 0 0 1 93 76.7a5.58 5.58 0 0 1 1.47-4.2 4.68 4.68 0 0 1 5.32-.75 5.2 5.2 0 0 1 1.59 1.34l-1.53 1.4a2.57 2.57 0 0 0-2.1-1.12q-2.64 0-2.68 3.33t2.71 3.3a2.49 2.49 0 0 0 2.1-1.11zm1.73-13.24h2.07v9.3l4-5h2.48l-3.55 4.15 4 6.49h-2.61l-2.74-5-1.58 2v3h-2.07zm11.2 11.7a4.26 4.26 0 0 0 3.27 1.37 2.7 2.7 0 0 0 1.46-.36 1.14 1.14 0 0 0 .57-1 .88.88 0 0 0-.34-.8 1.76 1.76 0 0 0-.92-.25l-1.84-.17a3.4 3.4 0 0 1-2.11-.9 2.76 2.76 0 0 1-.86-2.12 2.9 2.9 0 0 1 1.12-2.46 4.37 4.37 0 0 1 2.73-.82 8 8 0 0 1 1.28.09q.544.094 1.06.29a5.8 5.8 0 0 1 1.71 1.07l-1.28 1.55a6.5 6.5 0 0 0-1.27-.74 4.1 4.1 0 0 0-1.51-.25 2.06 2.06 0 0 0-1.36.35 1.19 1.19 0 0 0-.41.93.72.72 0 0 0 .31.63 1.85 1.85 0 0 0 1 .38l1.71.13a3.18 3.18 0 0 1 2.33 1 3.46 3.46 0 0 1 .67 2.19 2.79 2.79 0 0 1-1.22 2.39 5.2 5.2 0 0 1-3 .89 6.43 6.43 0 0 1-4.54-1.91zM124.12 71.37h2.07v1.11a3.49 3.49 0 0 1 2.66-1.24 3.18 3.18 0 0 1 2.77 1.39c.31.398.51.87.58 1.37q.185 1.368.15 2.75a17 17 0 0 1-.15 2.71 2.94 2.94 0 0 1-.58 1.34 3.25 3.25 0 0 1-1.12 1 3.65 3.65 0 0 1-1.65.4 2.8 2.8 0 0 1-1.42-.36 4.6 4.6 0 0 1-1.24-.9v5.44h-2.07zm4.11 8.63a2.1 2.1 0 0 0 1.16-.28A1.7 1.7 0 0 0 130 79a4 4 0 0 0 .26-1.08V75.5a3.7 3.7 0 0 0-.26-1.07 1.5 1.5 0 0 0-.61-.76 2.17 2.17 0 0 0-1.16-.26 1.85 1.85 0 0 0-1.11.3 1.76 1.76 0 0 0-.62.78 3.8 3.8 0 0 0-.25 1q-.06.6-.06 1.2 0 .566.06 1.13c.031.37.116.734.25 1.08.124.319.34.594.62.79a1.85 1.85 0 0 0 1.11.31m12.21 1.07a1.77 1.77 0 0 1-.9.8 4 4 0 0 1-1.65.27 3.7 3.7 0 0 1-2.66-1 3 3 0 0 1-1-2.3 3.1 3.1 0 0 1 .85-2.23 3.35 3.35 0 0 1 2.51-.92h2.87v-1.07c0-1-.7-1.4-2.12-1.37a3.6 3.6 0 0 0-1.22.16 1.52 1.52 0 0 0-.74.66l-1.63-1.28a4 4 0 0 1 3.49-1.55 5.3 5.3 0 0 1 3.1.76 3.1 3.1 0 0 1 1.18 2.74V82h-2.06zm0-3.57H138c-1.21 0-1.81.46-1.79 1.28-.002.365.169.71.46.93.428.32.959.469 1.49.42a3.53 3.53 0 0 0 1.84-.32c.32-.23.49-.74.49-1.54zM153.11 80.3a5.7 5.7 0 0 1-1.59 1.3 4.54 4.54 0 0 1-5.32-.75 5.44 5.44 0 0 1-1.47-4.15 5.58 5.58 0 0 1 1.47-4.2 4.68 4.68 0 0 1 5.32-.75 5.2 5.2 0 0 1 1.59 1.34l-1.53 1.4a2.59 2.59 0 0 0-2.1-1.12q-2.64 0-2.68 3.33t2.68 3.3a2.5 2.5 0 0 0 2.1-1.11zM156.4 77.5a2.55 2.55 0 0 0 .71 2 2.37 2.37 0 0 0 1.75.68 3.07 3.07 0 0 0 2.26-1l1.5 1.33a4.8 4.8 0 0 1-3.71 1.72 5.3 5.3 0 0 1-1.59-.25 4 4 0 0 1-.76-.36 3.5 3.5 0 0 1-.72-.48 4.2 4.2 0 0 1-1.06-1.66 6.7 6.7 0 0 1-.45-2.67 7.5 7.5 0 0 1 .39-2.62 4.4 4.4 0 0 1 1-1.68 3.7 3.7 0 0 1 1.38-.91 4.4 4.4 0 0 1 1.49-.27 4.2 4.2 0 0 1 3 1.2 4.5 4.5 0 0 1 1.26 3.3v1.67zm4.36-1.76a2.8 2.8 0 0 0-.65-1.89 2.26 2.26 0 0 0-3.07 0 3 3 0 0 0-.64 1.89z"/></g></svg>