<svg xmlns="http://www.w3.org/2000/svg" viewBox="0 0 261 151"><title>Caps Lock</title><defs><linearGradient id="a" x1="0%" x2="100%" y1="50%" y2="50%"><stop offset="0%" stop-color="#1e4366"/><stop offset="100%" stop-color="#245480"/></linearGradient><linearGradient id="b" x1="50%" x2="50%" y1="100%" y2="0%"><stop offset="0%" stop-color="#1e4366"/><stop offset="27%" stop-color="#1f4669"/><stop offset="45%" stop-color="#214f71"/><stop offset="61%" stop-color="#255e7f"/><stop offset="75%" stop-color="#2a7392"/><stop offset="87%" stop-color="#318eac"/><stop offset="99%" stop-color="#3aafca"/><stop offset="100%" stop-color="#3ab1cc"/></linearGradient><linearGradient id="c" x1="50%" x2="50%" y1="100%" y2="0%"><stop offset="0%" stop-color="#61666b"/><stop offset="100%" stop-color="#7c8b99"/></linearGradient><linearGradient id="d" x1="50%" x2="50%" y1="100.427%" y2="-.427%"><stop offset="0%" stop-color="#61676b" stop-opacity="0"/><stop offset="21%" stop-color="#62686c" stop-opacity=".01"/><stop offset="35%" stop-color="#666c71" stop-opacity=".05"/><stop offset="47%" stop-color="#6d7479" stop-opacity=".12"/><stop offset="58%" stop-color="#777e85" stop-opacity=".21"/><stop offset="68%" stop-color="#848b93" stop-opacity=".33"/><stop offset="77%" stop-color="#939ba5" stop-opacity=".48"/><stop offset="86%" stop-color="#a6aebb" stop-opacity=".65"/><stop offset="94%" stop-color="#bbc3d3" stop-opacity=".85"/><stop offset="100%" stop-color="#cbd4e6"/></linearGradient></defs><g fill="none" fill-rule="nonzero" transform="translate(.63 .56)"><path fill="url(#a)" d="M260 14.09v121.82c-.006 7.78-6.31 14.084-14.09 14.09H14.09C6.31 149.994.006 143.69 0 135.91V14.09C.006 6.31 6.31.006 14.09 0h231.82c7.78.006 14.084 6.31 14.09 14.09"/><path fill="url(#b)" d="M245.91 2c6.675.006 12.084 5.415 12.09 12.09v121.82c-.006 6.675-5.415 12.084-12.09 12.09H14.09c-6.675-.006-12.084-5.415-12.09-12.09V14.09C2.006 7.415 7.415 2.006 14.09 2zm0-2H14.09C6.31.006.006 6.31 0 14.09v121.82c.006 7.78 6.31 14.084 14.09 14.09h231.82c7.78-.006 14.084-6.31 14.09-14.09V14.09C259.994 6.31 253.69.006 245.91 0"/><path fill="#0b1926" d="M255.52 145.52a14 14 0 0 1-9.91 4.11H14.39a14 14 0 0 1-9.91-4.11l17.1-17.1h216.84z"/><path fill="#3275b3" d="m255.52 4.48-17.1 17.1H21.58L4.48 4.48A14 14 0 0 1 14.39.37h231.22a14 14 0 0 1 9.91 4.11"/><path fill="#16324d" d="M259.63 14.39v121.22a14 14 0 0 1-4.11 9.91l-17.1-17.1V21.58l17.1-17.1a14 14 0 0 1 4.11 9.91M21.58 21.58v106.84l-17.1 17.1a14 14 0 0 1-4.11-9.91V14.39a14 14 0 0 1 4.11-9.91z"/><rect width="227.1" height="117.1" x="16.45" y="16.45" fill="url(#c)" stroke="url(#d)" rx="9.34"/><path fill="#fff" d="M119.72 63.67a5.58 5.58 0 0 1-1.82 3.19 5.06 5.06 0 0 1-3.27 1.14 5 5 0 0 1-2.85-.86 5.1 5.1 0 0 1-1.69-1.83c-.1-.22-.2-.44-.28-.64a4 4 0 0 1-.2-.8 26 26 0 0 1-.15-3.47 25.5 25.5 0 0 1 .15-3.48 4.3 4.3 0 0 1 .48-1.43 5.25 5.25 0 0 1 1.69-1.85 5 5 0 0 1 2.85-.84 4.85 4.85 0 0 1 3.42 1.28 5.7 5.7 0 0 1 1.67 3.15h-2.33a3.25 3.25 0 0 0-1-1.54 2.77 2.77 0 0 0-1.79-.63 2.94 2.94 0 0 0-1.34.32 2.75 2.75 0 0 0-.91.77 2.4 2.4 0 0 0-.57 1.24 19 19 0 0 0-.16 3 19 19 0 0 0 .16 3c.067.468.265.909.57 1.27.247.311.557.567.91.75a2.6 2.6 0 0 0 1.34.33 3 3 0 0 0 2.76-2zM126.86 66.9a1.7 1.7 0 0 1-.89.8 4.1 4.1 0 0 1-1.65.27 3.7 3.7 0 0 1-2.66-.94 3 3 0 0 1-1-2.31 3 3 0 0 1 .85-2.22 3.33 3.33 0 0 1 2.5-.93h2.87v-1.12c0-.94-.69-1.4-2.11-1.37a3.7 3.7 0 0 0-1.23.16 1.5 1.5 0 0 0-.73.66l-1.63-1.28a4 4 0 0 1 3.48-1.55 5.43 5.43 0 0 1 3.11.76 3.14 3.14 0 0 1 1.18 2.75v7.27h-2.07zm0-3.57h-2.49c-1.2 0-1.8.46-1.79 1.29.002.364.177.705.47.92.424.32.952.47 1.48.42a3.53 3.53 0 0 0 1.84-.32c.33-.22.49-.74.49-1.54zM132 57.2h2v1.11a3.49 3.49 0 0 1 2.66-1.24 3.19 3.19 0 0 1 2.77 1.39 3 3 0 0 1 .58 1.33q.186 1.368.15 2.75a17 17 0 0 1-.15 2.7 3 3 0 0 1-.59 1.35 3.05 3.05 0 0 1-1.12 1 3.46 3.46 0 0 1-1.64.4 2.8 2.8 0 0 1-1.42-.36 4.1 4.1 0 0 1-1.24-.9v5.44h-2zm4.1 8.64c.41.02.816-.082 1.17-.29a1.65 1.65 0 0 0 .6-.76 4.3 4.3 0 0 0 .27-1.07v-2.43a4 4 0 0 0-.27-1.07 1.5 1.5 0 0 0-.6-.76 2.3 2.3 0 0 0-1.17-.26 1.82 1.82 0 0 0-1.1.3 1.85 1.85 0 0 0-.63.78 3.8 3.8 0 0 0-.24 1 12 12 0 0 0-.06 1.21q0 .566.06 1.13a4 4 0 0 0 .24 1.08c.134.313.352.583.63.78.302.23.67.357 1.05.36zM143.15 64.6a4.23 4.23 0 0 0 3.26 1.4 2.7 2.7 0 0 0 1.47-.36 1.11 1.11 0 0 0 .56-1 .89.89 0 0 0-.33-.8 1.7 1.7 0 0 0-.93-.26l-1.83-.16a3.47 3.47 0 0 1-2.12-.91 2.78 2.78 0 0 1-.86-2.12 2.94 2.94 0 0 1 1.13-2.46 4.32 4.32 0 0 1 2.72-.82q.643-.006 1.28.09a7 7 0 0 1 1.07.29 6.1 6.1 0 0 1 1.71 1.08l-1.28 1.5a6.7 6.7 0 0 0-1.26-.73 4.2 4.2 0 0 0-1.51-.26 2 2 0 0 0-1.37.36 1.19 1.19 0 0 0-.41.92.75.75 0 0 0 .31.63c.303.237.675.37 1.06.38l1.71.13a3.16 3.16 0 0 1 2.33 1c.459.632.692 1.4.66 2.18a2.79 2.79 0 0 1-1.22 2.4 5.17 5.17 0 0 1-3 .88 6.47 6.47 0 0 1-4.54-1.91zm-32.82 13.5h2.19v12.82h7.06v2.13h-9.25zM121.31 87.71a9.5 9.5 0 0 1 .27-2.58 3.8 3.8 0 0 1 .85-1.49c.33-.41.737-.75 1.2-1a4.2 4.2 0 0 1 1.93-.42 4.3 4.3 0 0 1 2 .42c.448.25.84.59 1.15 1 .414.413.714.926.87 1.49a10 10 0 0 1 .25 2.58 10 10 0 0 1-.25 2.57 4.1 4.1 0 0 1-1.36 2 2.2 2.2 0 0 1-.66.44 4.05 4.05 0 0 1-2 .46 3.9 3.9 0 0 1-1.93-.46 4.2 4.2 0 0 1-1.2-.9 4.2 4.2 0 0 1-.85-1.53 9.3 9.3 0 0 1-.27-2.58m6.43 0a9.5 9.5 0 0 0-.1-1.67 1.9 1.9 0 0 0-.41-.89 1.5 1.5 0 0 0-.67-.56 2.31 2.31 0 0 0-2 0 1.85 1.85 0 0 0-.7.56 2.6 2.6 0 0 0-.39.89 8 8 0 0 0-.12 1.64 8 8 0 0 0 .12 1.63c.072.331.204.646.39.93.201.218.438.4.7.54a2.22 2.22 0 0 0 2 0 2 2 0 0 0 .67-.54c.212-.27.353-.59.41-.93a9 9 0 0 0 .1-1.57zM139.91 91.33a5.5 5.5 0 0 1-1.59 1.3 4.27 4.27 0 0 1-2.11.54 4.6 4.6 0 0 1-3.21-1.28 5.43 5.43 0 0 1-1.46-4.15 5.5 5.5 0 0 1 1.46-4.21 4.5 4.5 0 0 1 3.2-1.26 4.45 4.45 0 0 1 2.11.51 5.4 5.4 0 0 1 1.59 1.34l-1.53 1.4a2.57 2.57 0 0 0-2.09-1.12q-2.64 0-2.69 3.34t2.69 3.3a2.53 2.53 0 0 0 2.09-1.11zm1.74-13.23h2.07v9.3l4-5h2.49l-3.56 4.16 4 6.49h-2.6l-2.74-5-1.59 1.95v3.07h-2.07z"/></g></svg>