<svg xmlns="http://www.w3.org/2000/svg" viewBox="0 0 151 151"><title>Delete</title><defs><linearGradient id="a" x1="0%" x2="100%" y1="50%" y2="50%"><stop offset="0%" stop-color="#1e4366"/><stop offset="100%" stop-color="#245480"/></linearGradient><linearGradient id="b" x1="50%" x2="50%" y1="100%" y2="0%"><stop offset="0%" stop-color="#1e4366"/><stop offset="27%" stop-color="#1f4669"/><stop offset="45%" stop-color="#214f71"/><stop offset="61%" stop-color="#255e7f"/><stop offset="75%" stop-color="#2a7392"/><stop offset="87%" stop-color="#318eac"/><stop offset="99%" stop-color="#3aafca"/><stop offset="100%" stop-color="#3ab1cc"/></linearGradient><linearGradient id="c" x1="50%" x2="50%" y1="100%" y2="0%"><stop offset="0%" stop-color="#61666b"/><stop offset="100%" stop-color="#7c8b99"/></linearGradient><linearGradient id="d" x1="50%" x2="50%" y1="100.427%" y2="-.427%"><stop offset="0%" stop-color="#61676b" stop-opacity="0"/><stop offset="21%" stop-color="#62686c" stop-opacity=".01"/><stop offset="35%" stop-color="#666c71" stop-opacity=".05"/><stop offset="47%" stop-color="#6d7479" stop-opacity=".12"/><stop offset="58%" stop-color="#777e85" stop-opacity=".21"/><stop offset="68%" stop-color="#848b93" stop-opacity=".33"/><stop offset="77%" stop-color="#939ba5" stop-opacity=".48"/><stop offset="86%" stop-color="#a6aebb" stop-opacity=".65"/><stop offset="94%" stop-color="#bbc3d3" stop-opacity=".85"/><stop offset="100%" stop-color="#cbd4e6"/></linearGradient></defs><g fill="none" fill-rule="nonzero" transform="translate(.63 .56)"><path fill="url(#a)" d="M150 14.09v121.82c-.006 7.78-6.31 14.084-14.09 14.09H14.09C6.31 149.994.006 143.69 0 135.91V14.09C.006 6.31 6.31.006 14.09 0h121.82c7.78.006 14.084 6.31 14.09 14.09"/><path fill="url(#b)" d="M135.91 2c6.675.006 12.084 5.415 12.09 12.09v121.82c-.006 6.675-5.415 12.084-12.09 12.09H14.09c-6.675-.006-12.084-5.415-12.09-12.09V14.09C2.006 7.415 7.415 2.006 14.09 2zm0-2H14.09C6.31.006.006 6.31 0 14.09v121.82c.006 7.78 6.31 14.084 14.09 14.09h121.82c7.78-.006 14.084-6.31 14.09-14.09V14.09C149.994 6.31 143.69.006 135.91 0"/><path fill="#0b1926" d="M145.52 145.52a14 14 0 0 1-9.91 4.11H14.39a14 14 0 0 1-9.91-4.11l17.1-17.1h106.84z"/><path fill="#3275b3" d="m145.52 4.48-17.1 17.1H21.58L4.48 4.48A14 14 0 0 1 14.39.37h121.22a14 14 0 0 1 9.91 4.11"/><path fill="#16324d" d="M149.63 14.39v121.22a14 14 0 0 1-4.11 9.91l-17.1-17.1V21.58l17.1-17.1a14 14 0 0 1 4.11 9.91M21.58 21.58v106.84l-17.1 17.1a14 14 0 0 1-4.11-9.91V14.39a14 14 0 0 1 4.11-9.91z"/><rect width="117.1" height="117.1" x="16.45" y="16.45" fill="url(#c)" stroke="url(#d)" rx="9.34"/><path fill="#fff" d="M48.54 67.06h5.07A4.85 4.85 0 0 1 58 69.59a4.6 4.6 0 0 1 .66 1.76 29 29 0 0 1 .11 3.19 21 21 0 0 1-.17 3.36 4 4 0 0 1-.23.86 8 8 0 0 1-.41.77 5.2 5.2 0 0 1-1.77 1.75 4.93 4.93 0 0 1-2.75.73h-4.9zm2.19 12.82h2.63a2.93 2.93 0 0 0 2.64-1.3 2.5 2.5 0 0 0 .47-1.23q.115-1.363.09-2.73 0-2-.09-2.79a2.6 2.6 0 0 0-.57-1.37 2.87 2.87 0 0 0-2.58-1.26h-2.59zm12.41-2.38a2.51 2.51 0 0 0 .72 2c.46.46 1.09.706 1.74.68a3.05 3.05 0 0 0 2.26-1l1.5 1.33a4.8 4.8 0 0 1-3.71 1.72 5 5 0 0 1-1.59-.25 4 4 0 0 1-.76-.36 4 4 0 0 1-.72-.48 4.2 4.2 0 0 1-1.06-1.66 6.7 6.7 0 0 1-.45-2.67 7.6 7.6 0 0 1 .39-2.62 4.7 4.7 0 0 1 1-1.68 3.7 3.7 0 0 1 1.38-.91 4.4 4.4 0 0 1 1.49-.27 4.2 4.2 0 0 1 3 1.2 4.4 4.4 0 0 1 1.26 3.3v1.67zm4.36-1.76a2.8 2.8 0 0 0-.65-1.89 2.25 2.25 0 0 0-3.06 0 3 3 0 0 0-.65 1.89zM72.08 67.06h2.07v12.22c0 .48.26.73.78.73h.72v2h-.93a2.9 2.9 0 0 1-1.86-.58 2.34 2.34 0 0 1-.78-2zM79.05 77.5a2.51 2.51 0 0 0 .72 2 2.35 2.35 0 0 0 1.75.68 3 3 0 0 0 2.25-1l1.51 1.33a4.82 4.82 0 0 1-3.72 1.72 5.1 5.1 0 0 1-1.56-.34 4 4 0 0 1-.75-.36 3.8 3.8 0 0 1-.73-.48 4.3 4.3 0 0 1-1.06-1.66 6.7 6.7 0 0 1-.46-2.67 7.6 7.6 0 0 1 .38-2.62 4.7 4.7 0 0 1 1-1.68 3.8 3.8 0 0 1 1.39-.91 4.3 4.3 0 0 1 1.48-.27 4.18 4.18 0 0 1 3 1.2 4.4 4.4 0 0 1 1.26 3.3v1.76zm4.36-1.76a2.8 2.8 0 0 0-.64-1.89 2.26 2.26 0 0 0-3.07 0 3 3 0 0 0-.65 1.89zM88.12 68.13h2.07v3.24h1.51V73h-1.51v6.21c0 .54.23.8.73.79h.78v2h-1.08a2.44 2.44 0 0 1-1.79-.69 2.54 2.54 0 0 1-.71-1.93V73h-1v-1.63h1zM95.39 77.5a2.55 2.55 0 0 0 .71 2 2.37 2.37 0 0 0 1.75.68 3.07 3.07 0 0 0 2.26-1l1.5 1.33a4.8 4.8 0 0 1-3.71 1.72 5 5 0 0 1-1.59-.25 4 4 0 0 1-.76-.36 3.5 3.5 0 0 1-.72-.48 4.2 4.2 0 0 1-1.06-1.66 6.7 6.7 0 0 1-.45-2.67 7.6 7.6 0 0 1 .39-2.62 4.5 4.5 0 0 1 1-1.68 3.7 3.7 0 0 1 1.38-.91 4.4 4.4 0 0 1 1.49-.27 4.2 4.2 0 0 1 3 1.2 4.5 4.5 0 0 1 1.26 3.3v1.67zm4.36-1.76a2.8 2.8 0 0 0-.65-1.89 2.07 2.07 0 0 0-1.53-.6 2 2 0 0 0-1.53.6 2.9 2.9 0 0 0-.65 1.89z"/></g></svg>