<svg xmlns="http://www.w3.org/2000/svg" viewBox="0 0 151 321"><title>Enter 2</title><defs><linearGradient id="a" x1="0%" x2="100%" y1="49.994%" y2="49.994%"><stop offset="0%" stop-color="#1e4366"/><stop offset="100%" stop-color="#245480"/></linearGradient><linearGradient id="b" x1="50%" x2="50%" y1="99.984%" y2="0%"><stop offset="0%" stop-color="#1e4366"/><stop offset="27%" stop-color="#1f4669"/><stop offset="45%" stop-color="#214f71"/><stop offset="61%" stop-color="#255e7f"/><stop offset="75%" stop-color="#2a7392"/><stop offset="87%" stop-color="#318eac"/><stop offset="99%" stop-color="#3aafca"/><stop offset="100%" stop-color="#3ab1cc"/></linearGradient><linearGradient id="c" x1="50%" x2="50%" y1="100%" y2="0%"><stop offset="0%" stop-color="#61666b"/><stop offset="100%" stop-color="#7c8b99"/></linearGradient><linearGradient id="d" x1="50%" x2="50%" y1="100.174%" y2="-.174%"><stop offset="0%" stop-color="#61676b" stop-opacity="0"/><stop offset="21%" stop-color="#62686c" stop-opacity=".01"/><stop offset="35%" stop-color="#666c71" stop-opacity=".05"/><stop offset="47%" stop-color="#6d7479" stop-opacity=".12"/><stop offset="58%" stop-color="#777e85" stop-opacity=".21"/><stop offset="68%" stop-color="#848b93" stop-opacity=".33"/><stop offset="77%" stop-color="#939ba5" stop-opacity=".48"/><stop offset="86%" stop-color="#a6aebb" stop-opacity=".65"/><stop offset="94%" stop-color="#bbc3d3" stop-opacity=".85"/><stop offset="100%" stop-color="#cbd4e6"/></linearGradient></defs><g fill="none" fill-rule="nonzero" transform="translate(.63 .56)"><path fill="url(#a)" d="M150 14.09v291.77A14.1 14.1 0 0 1 135.91 320H14.09A14.1 14.1 0 0 1 0 305.86V14.09C.006 6.31 6.31.006 14.09 0h121.82c7.78.006 14.085 6.31 14.09 14.09"/><path fill="url(#b)" d="M135.91 2c6.675.006 12.085 5.415 12.09 12.09v291.77A12.1 12.1 0 0 1 135.91 318H14.09A12.1 12.1 0 0 1 2 305.86V14.09C2.006 7.415 7.415 2.006 14.09 2zm0-2H14.09C6.31.006.006 6.31 0 14.09v291.77A14.1 14.1 0 0 0 14.09 320h121.82A14.1 14.1 0 0 0 150 305.86V14.09C149.995 6.31 143.69.006 135.91 0"/><path fill="#0b1926" d="M145.52 315.47a14 14 0 0 1-9.91 4.11H14.39a14 14 0 0 1-9.91-4.11l17.1-17.1h106.84z"/><path fill="#3275b3" d="m145.52 4.48-17.1 17.1H21.58L4.48 4.48A14 14 0 0 1 14.39.37h121.22a14 14 0 0 1 9.91 4.11"/><path fill="#16324d" d="M149.63 14.39v291.17a14 14 0 0 1-4.11 9.91l-17.1-17.1V21.58l17.1-17.1a14 14 0 0 1 4.11 9.91M21.58 21.58v276.79l-17.1 17.1a14 14 0 0 1-4.11-9.91V14.39a14 14 0 0 1 4.11-9.91z"/><rect width="117.1" height="287.05" x="16.45" y="16.45" fill="url(#c)" stroke="url(#d)" rx="9.34"/><path fill="#fff" d="M52.8 145h9.25v2.14H55v4.27h6v2h-6v4.4h7.06V160H52.8zm11.49 4.33h2.07v1.13a3.28 3.28 0 0 1 2.68-1.26 3.48 3.48 0 0 1 2.34.93 3.66 3.66 0 0 1 1.1 2.77v7.1h-2.03v-6.34a2.33 2.33 0 0 0-.57-1.7 2.09 2.09 0 0 0-2.93 0 2.3 2.3 0 0 0-.59 1.7V160h-2.07zm11.4-3.24h2.07v3.24h1.51V151h-1.51v6.21c0 .54.23.8.74.79h.77v2h-1.08a2.4 2.4 0 0 1-1.78-.69 2.5 2.5 0 0 1-.72-1.93V151h-1v-1.64h1zM83 155.46a2.5 2.5 0 0 0 .72 1.95 2.33 2.33 0 0 0 1.75.68 3 3 0 0 0 2.25-1l1.5 1.33a4.8 4.8 0 0 1-3.71 1.72 5.1 5.1 0 0 1-1.59-.25 3.7 3.7 0 0 1-.75-.36 3.8 3.8 0 0 1-.73-.48 4.2 4.2 0 0 1-1.06-1.66 6.7 6.7 0 0 1-.45-2.67 7.6 7.6 0 0 1 .39-2.62 4.7 4.7 0 0 1 1-1.68 3.7 3.7 0 0 1 1.38-.91 4.4 4.4 0 0 1 1.49-.27 4.18 4.18 0 0 1 3 1.2 4.4 4.4 0 0 1 1.26 3.3v1.76zm4.36-1.76a2.8 2.8 0 0 0-.65-1.89 2.25 2.25 0 0 0-3.06 0 3 3 0 0 0-.65 1.89zM91.91 149.33H94v1.13a3.39 3.39 0 0 1 4.85-.44l-1.52 1.84a2.14 2.14 0 0 0-1.36-.53 1.94 1.94 0 0 0-1.36.53 2.18 2.18 0 0 0-.66 1.7V160h-2.04z"/></g></svg>