<svg xmlns="http://www.w3.org/2000/svg" viewBox="0 0 321 151"><title>Enter 1</title><defs><linearGradient id="a" x1="0%" x2="100%" y1="50%" y2="50%"><stop offset="0%" stop-color="#1e4366"/><stop offset="100%" stop-color="#245480"/></linearGradient><linearGradient id="b" x1="50%" x2="50%" y1="100%" y2="0%"><stop offset="0%" stop-color="#1e4366"/><stop offset="27%" stop-color="#1f4669"/><stop offset="45%" stop-color="#214f71"/><stop offset="61%" stop-color="#255e7f"/><stop offset="75%" stop-color="#2a7392"/><stop offset="87%" stop-color="#318eac"/><stop offset="99%" stop-color="#3aafca"/><stop offset="100%" stop-color="#3ab1cc"/></linearGradient><linearGradient id="c" x1="50%" x2="50%" y1="100%" y2="0%"><stop offset="0%" stop-color="#61666b"/><stop offset="100%" stop-color="#7c8b99"/></linearGradient><linearGradient id="d" x1="50%" x2="50%" y1="100.427%" y2="-.427%"><stop offset="0%" stop-color="#61676b" stop-opacity="0"/><stop offset="21%" stop-color="#62686c" stop-opacity=".01"/><stop offset="35%" stop-color="#666c71" stop-opacity=".05"/><stop offset="47%" stop-color="#6d7479" stop-opacity=".12"/><stop offset="58%" stop-color="#777e85" stop-opacity=".21"/><stop offset="68%" stop-color="#848b93" stop-opacity=".33"/><stop offset="77%" stop-color="#939ba5" stop-opacity=".48"/><stop offset="86%" stop-color="#a6aebb" stop-opacity=".65"/><stop offset="94%" stop-color="#bbc3d3" stop-opacity=".85"/><stop offset="100%" stop-color="#cbd4e6"/></linearGradient></defs><g fill="none" fill-rule="nonzero" transform="translate(.63 .56)"><path fill="url(#a)" d="M320 14.09v121.82c-.006 7.78-6.31 14.084-14.09 14.09H14.09C6.31 149.994.006 143.69 0 135.91V14.09C.006 6.31 6.31.006 14.09 0h291.82c7.78.006 14.084 6.31 14.09 14.09"/><path fill="url(#b)" d="M305.91 2c6.675.006 12.084 5.415 12.09 12.09v121.82c-.006 6.675-5.415 12.084-12.09 12.09H14.09c-6.675-.006-12.084-5.415-12.09-12.09V14.09C2.006 7.415 7.415 2.006 14.09 2zm0-2H14.09C6.31.006.006 6.31 0 14.09v121.82c.006 7.78 6.31 14.084 14.09 14.09h291.82c7.78-.006 14.084-6.31 14.09-14.09V14.09C319.994 6.31 313.69.006 305.91 0"/><path fill="#0b1926" d="M315.52 145.52a14 14 0 0 1-9.91 4.11H14.39a14 14 0 0 1-9.91-4.11l17.1-17.1h276.84z"/><path fill="#3275b3" d="m315.52 4.48-17.1 17.1H21.58L4.48 4.48A14 14 0 0 1 14.39.37h291.22a14 14 0 0 1 9.91 4.11"/><path fill="#16324d" d="M319.63 14.39v121.22a14 14 0 0 1-4.11 9.91l-17.1-17.1V21.58l17.1-17.1a14 14 0 0 1 4.11 9.91M21.58 21.58v106.84l-17.1 17.1a14 14 0 0 1-4.11-9.91V14.39a14 14 0 0 1 4.11-9.91z"/><rect width="287.1" height="117.1" x="16.45" y="16.45" fill="url(#c)" stroke="url(#d)" rx="9.34"/><path fill="#fff" d="M132.8 67.06h9.25v2.14H135v4.27h6v2h-6v4.4h7.06V82h-9.26zm11.49 4.31h2.07v1.13a3.29 3.29 0 0 1 2.68-1.26 3.48 3.48 0 0 1 2.34.93 3.66 3.66 0 0 1 1.1 2.77V82h-2.07v-6.33a2.35 2.35 0 0 0-.57-1.71A2.11 2.11 0 0 0 147 74a2.32 2.32 0 0 0-.59 1.71V82h-2.07zm11.4-3.24h2.07v3.24h1.51V73h-1.51v6.2c0 .55.24.81.74.79h.77v2h-1.08a2.42 2.42 0 0 1-1.78-.69 2.5 2.5 0 0 1-.72-1.93V73h-1v-1.63h1zM163 77.5a2.51 2.51 0 0 0 .72 2 2.33 2.33 0 0 0 1.75.68 3 3 0 0 0 2.25-1l1.5 1.32a4.78 4.78 0 0 1-3.71 1.73 5.4 5.4 0 0 1-1.59-.25 3.7 3.7 0 0 1-.75-.36 3.8 3.8 0 0 1-.73-.48 4.3 4.3 0 0 1-1.06-1.66 6.7 6.7 0 0 1-.45-2.67 7.5 7.5 0 0 1 .39-2.62 4.7 4.7 0 0 1 1-1.68 3.7 3.7 0 0 1 1.38-.91 4.4 4.4 0 0 1 1.49-.27 4.18 4.18 0 0 1 3 1.2 4.4 4.4 0 0 1 1.26 3.3v1.67zm4.36-1.76a2.8 2.8 0 0 0-.64-1.89 2.26 2.26 0 0 0-3.07 0 3 3 0 0 0-.65 1.89zM171.91 71.37H174v1.13a3.41 3.41 0 0 1 4.85-.45l-1.51 1.85a2.2 2.2 0 0 0-1.37-.53 1.94 1.94 0 0 0-1.36.53 2.14 2.14 0 0 0-.65 1.7V82h-2.07z"/></g></svg>