<svg xmlns="http://www.w3.org/2000/svg" viewBox="0 0 151 151"><title>F9</title><defs><linearGradient id="a" x1="0%" x2="100%" y1="50%" y2="50%"><stop offset="0%" stop-color="#1e4366"/><stop offset="100%" stop-color="#245480"/></linearGradient><linearGradient id="b" x1="50%" x2="50%" y1="100%" y2="0%"><stop offset="0%" stop-color="#1e4366"/><stop offset="27%" stop-color="#1f4669"/><stop offset="45%" stop-color="#214f71"/><stop offset="61%" stop-color="#255e7f"/><stop offset="75%" stop-color="#2a7392"/><stop offset="87%" stop-color="#318eac"/><stop offset="99%" stop-color="#3aafca"/><stop offset="100%" stop-color="#3ab1cc"/></linearGradient><linearGradient id="c" x1="50%" x2="50%" y1="100%" y2="0%"><stop offset="0%" stop-color="#61666b"/><stop offset="100%" stop-color="#7c8b99"/></linearGradient><linearGradient id="d" x1="50%" x2="50%" y1="100.427%" y2="-.427%"><stop offset="0%" stop-color="#61676b" stop-opacity="0"/><stop offset="21%" stop-color="#62686c" stop-opacity=".01"/><stop offset="35%" stop-color="#666c71" stop-opacity=".05"/><stop offset="47%" stop-color="#6d7479" stop-opacity=".12"/><stop offset="58%" stop-color="#777e85" stop-opacity=".21"/><stop offset="68%" stop-color="#848b93" stop-opacity=".33"/><stop offset="77%" stop-color="#939ba5" stop-opacity=".48"/><stop offset="86%" stop-color="#a6aebb" stop-opacity=".65"/><stop offset="94%" stop-color="#bbc3d3" stop-opacity=".85"/><stop offset="100%" stop-color="#cbd4e6"/></linearGradient></defs><g fill="none" fill-rule="nonzero" transform="translate(.63 .56)"><path fill="url(#a)" d="M150 14.09v121.82c-.006 7.78-6.31 14.084-14.09 14.09H14.09C6.31 149.994.006 143.69 0 135.91V14.09C.006 6.31 6.31.006 14.09 0h121.82c7.78.006 14.084 6.31 14.09 14.09"/><path fill="url(#b)" d="M135.91 2c6.675.006 12.084 5.415 12.09 12.09v121.82c-.006 6.675-5.415 12.084-12.09 12.09H14.09c-6.675-.006-12.084-5.415-12.09-12.09V14.09C2.006 7.415 7.415 2.006 14.09 2zm0-2H14.09C6.31.006.006 6.31 0 14.09v121.82c.006 7.78 6.31 14.084 14.09 14.09h121.82c7.78-.006 14.084-6.31 14.09-14.09V14.09C149.994 6.31 143.69.006 135.91 0"/><path fill="#0b1926" d="M145.52 145.52a14 14 0 0 1-9.91 4.11H14.39a14 14 0 0 1-9.91-4.11l17.1-17.1h106.84z"/><path fill="#3275b3" d="m145.52 4.48-17.1 17.1H21.58L4.48 4.48A14 14 0 0 1 14.39.37h121.22a14 14 0 0 1 9.91 4.11"/><path fill="#16324d" d="M149.63 14.39v121.22a14 14 0 0 1-4.11 9.91l-17.1-17.1V21.58l17.1-17.1a14 14 0 0 1 4.11 9.91M21.58 21.58v106.84l-17.1 17.1a14 14 0 0 1-4.11-9.91V14.39a14 14 0 0 1 4.11-9.91z"/><rect width="117.1" height="117.1" x="16.45" y="16.45" fill="url(#c)" stroke="url(#d)" rx="9.34"/><path fill="#fff" d="M59.31 63h15.86v3.66h-12.1v7.58H73.4v3.46H63.07v11h-3.76zM79.83 88.65a4 4 0 0 1 .29-.64l.88-1.66 1.14-2.27c.43-.83.84-1.65 1.25-2.46s.79-1.55 1.15-2.23.65-1.21.87-1.6a2.7 2.7 0 0 1-1.15.36 12 12 0 0 1-1.48 0 5.6 5.6 0 0 1-2-.42 5.4 5.4 0 0 1-1.51-1 5.8 5.8 0 0 1-1-1.29 9.3 9.3 0 0 1-.68-1.39 8.4 8.4 0 0 1-.37-1.27 6 6 0 0 1-.11-.92v-1.71a5 5 0 0 1 0-.59c0-.09 0-.29.12-.63a7 7 0 0 1 .36-1.2 8.6 8.6 0 0 1 .74-1.5 6.4 6.4 0 0 1 1.23-1.51 7 7 0 0 1 1.89-1.21 8 8 0 0 1 2.55-.59 8.2 8.2 0 0 1 2.82.19 6.6 6.6 0 0 1 2.1 1 5.7 5.7 0 0 1 1.46 1.48A7.7 7.7 0 0 1 91.71 69a5.5 5.5 0 0 1 0 1.39c-.07.58-.14 1.09-.22 1.54q-.12.675-.3 1.29c-.12.41-.19.78-.34 1.18s-.31.83-.49 1.3c0 .13-.18.41-.38.84s-.47 1-.78 1.59l-1 2.09c-.37.77-.74 1.54-1.13 2.32l-3 6.11zm.79-18.56c0 .46 0 1 .07 1.51.04.54.178 1.07.41 1.56.247.502.62.932 1.08 1.25a4 4 0 0 0 2.08.59 3.1 3.1 0 0 0 1.21-.17 4 4 0 0 0 1-.54 3.7 3.7 0 0 0 .72-.75 4.7 4.7 0 0 0 .51-.84 3.2 3.2 0 0 0 .29-.76 2.5 2.5 0 0 0 .09-.57v-1a9 9 0 0 0-.11-1.11 4.6 4.6 0 0 0-.32-1.08 2.8 2.8 0 0 0-.65-.9 3.1 3.1 0 0 0-1.09-.61 4.5 4.5 0 0 0-1.64-.17 3.3 3.3 0 0 0-1.78.55 4.2 4.2 0 0 0-1.1 1.09 3.9 3.9 0 0 0-.56 1.16 3.2 3.2 0 0 0-.21.79"/></g></svg>