<svg xmlns="http://www.w3.org/2000/svg" viewBox="0 0 151 151"><title>Home</title><defs><linearGradient id="a" x1="0%" x2="100%" y1="50%" y2="50%"><stop offset="0%" stop-color="#1e4366"/><stop offset="100%" stop-color="#245480"/></linearGradient><linearGradient id="b" x1="50%" x2="50%" y1="100%" y2="0%"><stop offset="0%" stop-color="#1e4366"/><stop offset="27%" stop-color="#1f4669"/><stop offset="45%" stop-color="#214f71"/><stop offset="61%" stop-color="#255e7f"/><stop offset="75%" stop-color="#2a7392"/><stop offset="87%" stop-color="#318eac"/><stop offset="99%" stop-color="#3aafca"/><stop offset="100%" stop-color="#3ab1cc"/></linearGradient><linearGradient id="c" x1="50%" x2="50%" y1="100%" y2="0%"><stop offset="0%" stop-color="#61666b"/><stop offset="100%" stop-color="#7c8b99"/></linearGradient><linearGradient id="d" x1="50%" x2="50%" y1="100.427%" y2="-.427%"><stop offset="0%" stop-color="#61676b" stop-opacity="0"/><stop offset="21%" stop-color="#62686c" stop-opacity=".01"/><stop offset="35%" stop-color="#666c71" stop-opacity=".05"/><stop offset="47%" stop-color="#6d7479" stop-opacity=".12"/><stop offset="58%" stop-color="#777e85" stop-opacity=".21"/><stop offset="68%" stop-color="#848b93" stop-opacity=".33"/><stop offset="77%" stop-color="#939ba5" stop-opacity=".48"/><stop offset="86%" stop-color="#a6aebb" stop-opacity=".65"/><stop offset="94%" stop-color="#bbc3d3" stop-opacity=".85"/><stop offset="100%" stop-color="#cbd4e6"/></linearGradient></defs><g fill="none" fill-rule="nonzero" transform="translate(.63 .56)"><path fill="url(#a)" d="M150 14.09v121.82c-.006 7.78-6.31 14.084-14.09 14.09H14.09C6.31 149.994.006 143.69 0 135.91V14.09C.006 6.31 6.31.006 14.09 0h121.82c7.78.006 14.084 6.31 14.09 14.09"/><path fill="url(#b)" d="M135.91 2c6.675.006 12.084 5.415 12.09 12.09v121.82c-.006 6.675-5.415 12.084-12.09 12.09H14.09c-6.675-.006-12.084-5.415-12.09-12.09V14.09C2.006 7.415 7.415 2.006 14.09 2zm0-2H14.09C6.31.006.006 6.31 0 14.09v121.82c.006 7.78 6.31 14.084 14.09 14.09h121.82c7.78-.006 14.084-6.31 14.09-14.09V14.09C149.994 6.31 143.69.006 135.91 0"/><path fill="#0b1926" d="M145.52 145.52a14 14 0 0 1-9.91 4.11H14.39a14 14 0 0 1-9.91-4.11l17.1-17.1h106.84z"/><path fill="#3275b3" d="m145.52 4.48-17.1 17.1H21.58L4.48 4.48A14 14 0 0 1 14.39.37h121.22a14 14 0 0 1 9.91 4.11"/><path fill="#16324d" d="M149.63 14.39v121.22a14 14 0 0 1-4.11 9.91l-17.1-17.1V21.58l17.1-17.1a14 14 0 0 1 4.11 9.91M21.58 21.58v106.84l-17.1 17.1a14 14 0 0 1-4.11-9.91V14.39a14 14 0 0 1 4.11-9.91z"/><rect width="117.1" height="117.1" x="16.45" y="16.45" fill="url(#c)" stroke="url(#d)" rx="9.34"/><path fill="#fff" d="M58.22 75.48h-5.75V82h-2.19V67h2.19v6.41h5.75v-6.35h2.19V82h-2.19zM63.19 76.68a9.6 9.6 0 0 1 .27-2.59 3.8 3.8 0 0 1 .85-1.49 3.9 3.9 0 0 1 1.19-.94 4.2 4.2 0 0 1 1.94-.42 4.34 4.34 0 0 1 2 .42 3.8 3.8 0 0 1 1.15 1c.416.412.716.926.87 1.49.19.846.273 1.713.25 2.58a10.4 10.4 0 0 1-.25 2.57 3.7 3.7 0 0 1-.87 1.52 3.6 3.6 0 0 1-.49.46 2.2 2.2 0 0 1-.67.45 4.1 4.1 0 0 1-2 .46 4.06 4.06 0 0 1-1.94-.46 3.9 3.9 0 0 1-1.19-.91 4.1 4.1 0 0 1-.85-1.52 9.3 9.3 0 0 1-.26-2.62m6.43 0a10.6 10.6 0 0 0-.1-1.66 2 2 0 0 0-.41-.89 1.55 1.55 0 0 0-.68-.57 2.2 2.2 0 0 0-1-.21 2.3 2.3 0 0 0-1 .21 1.84 1.84 0 0 0-.69.57 2.5 2.5 0 0 0-.39.89 11.2 11.2 0 0 0 0 3.27c.07.329.203.641.39.92.195.224.428.41.69.55a2.2 2.2 0 0 0 1 .22 2.1 2.1 0 0 0 1-.22 1.9 1.9 0 0 0 .68-.55c.21-.269.35-.584.41-.92a10 10 0 0 0 .1-1.59zM74.12 71.37h2.07v1.13A3.44 3.44 0 0 1 79 71.24a3.9 3.9 0 0 1 1.78.38 5 5 0 0 1 1.22 1 4.21 4.21 0 0 1 3.36-1.39 3.66 3.66 0 0 1 2.42.93 3.6 3.6 0 0 1 1.13 2.77V82h-2.07v-6.33a2.28 2.28 0 0 0-.59-1.67 2.1 2.1 0 0 0-1.53-.59 2.15 2.15 0 0 0-1.55.59 2.25 2.25 0 0 0-.61 1.71V82h-2.07v-6.33a2.28 2.28 0 0 0-.6-1.71 2.3 2.3 0 0 0-3.08 0 2.25 2.25 0 0 0-.62 1.71V82h-2.07zM93.65 77.5a2.51 2.51 0 0 0 .72 2 2.33 2.33 0 0 0 1.75.68 3 3 0 0 0 2.25-1l1.5 1.33a4.8 4.8 0 0 1-3.71 1.72 5.4 5.4 0 0 1-1.59-.25 3.7 3.7 0 0 1-.75-.36 3.8 3.8 0 0 1-.73-.48A4.2 4.2 0 0 1 92 79.39a6.7 6.7 0 0 1-.45-2.67A7.5 7.5 0 0 1 92 74.1a4.7 4.7 0 0 1 1-1.68 3.7 3.7 0 0 1 1.38-.91 4.4 4.4 0 0 1 1.49-.27 4.2 4.2 0 0 1 3 1.2 4.4 4.4 0 0 1 1.26 3.3v1.76zM98 75.74a2.8 2.8 0 0 0-.65-1.89 2.25 2.25 0 0 0-3.06 0 3 3 0 0 0-.65 1.89z"/></g></svg>