<svg xmlns="http://www.w3.org/2000/svg" viewBox="0 0 151 151"><title>Num Lock</title><defs><linearGradient id="a" x1="0%" x2="100%" y1="50%" y2="50%"><stop offset="0%" stop-color="#1e4366"/><stop offset="100%" stop-color="#245480"/></linearGradient><linearGradient id="b" x1="50%" x2="50%" y1="100%" y2="0%"><stop offset="0%" stop-color="#1e4366"/><stop offset="27%" stop-color="#1f4669"/><stop offset="45%" stop-color="#214f71"/><stop offset="61%" stop-color="#255e7f"/><stop offset="75%" stop-color="#2a7392"/><stop offset="87%" stop-color="#318eac"/><stop offset="99%" stop-color="#3aafca"/><stop offset="100%" stop-color="#3ab1cc"/></linearGradient><linearGradient id="c" x1="50%" x2="50%" y1="100%" y2="0%"><stop offset="0%" stop-color="#61666b"/><stop offset="100%" stop-color="#7c8b99"/></linearGradient><linearGradient id="d" x1="50%" x2="50%" y1="100.427%" y2="-.427%"><stop offset="0%" stop-color="#61676b" stop-opacity="0"/><stop offset="21%" stop-color="#62686c" stop-opacity=".01"/><stop offset="35%" stop-color="#666c71" stop-opacity=".05"/><stop offset="47%" stop-color="#6d7479" stop-opacity=".12"/><stop offset="58%" stop-color="#777e85" stop-opacity=".21"/><stop offset="68%" stop-color="#848b93" stop-opacity=".33"/><stop offset="77%" stop-color="#939ba5" stop-opacity=".48"/><stop offset="86%" stop-color="#a6aebb" stop-opacity=".65"/><stop offset="94%" stop-color="#bbc3d3" stop-opacity=".85"/><stop offset="100%" stop-color="#cbd4e6"/></linearGradient></defs><g fill="none" fill-rule="nonzero" transform="translate(.63 .56)"><path fill="url(#a)" d="M150 14.09v121.82c-.006 7.78-6.31 14.084-14.09 14.09H14.09C6.31 149.994.006 143.69 0 135.91V14.09C.006 6.31 6.31.006 14.09 0h121.82c7.78.006 14.084 6.31 14.09 14.09"/><path fill="url(#b)" d="M135.91 2c6.675.006 12.084 5.415 12.09 12.09v121.82c-.006 6.675-5.415 12.084-12.09 12.09H14.09c-6.675-.006-12.084-5.415-12.09-12.09V14.09C2.006 7.415 7.415 2.006 14.09 2zm0-2H14.09C6.31.006.006 6.31 0 14.09v121.82c.006 7.78 6.31 14.084 14.09 14.09h121.82c7.78-.006 14.084-6.31 14.09-14.09V14.09C149.994 6.31 143.69.006 135.91 0"/><path fill="#0b1926" d="M145.52 145.52a14 14 0 0 1-9.91 4.11H14.39a14 14 0 0 1-9.91-4.11l17.1-17.1h106.84z"/><path fill="#3275b3" d="m145.52 4.48-17.1 17.1H21.58L4.48 4.48A14 14 0 0 1 14.39.37h121.22a14 14 0 0 1 9.91 4.11"/><path fill="#16324d" d="M149.63 14.39v121.22a14 14 0 0 1-4.11 9.91l-17.1-17.1V21.58l17.1-17.1a14 14 0 0 1 4.11 9.91M21.58 21.58v106.84l-17.1 17.1a14 14 0 0 1-4.11-9.91V14.39a14 14 0 0 1 4.11-9.91z"/><rect width="117.1" height="117.1" x="16.45" y="16.45" fill="url(#c)" stroke="url(#d)" rx="9.34"/><path fill="#fff" d="M54.76 52.66h2.07l6.55 10.63V52.66h2.2v15h-2.04L57 57v10.61h-2.24zM68.94 57H71v6.35a2.28 2.28 0 0 0 .6 1.65 2.06 2.06 0 0 0 2.93 0 2.36 2.36 0 0 0 .57-1.68V57h2.07v10.61H75.1v-1.13a3.27 3.27 0 0 1-2.67 1.26 3.5 3.5 0 0 1-2.31-1 3.38 3.38 0 0 1-1.14-2.73zm11.2 0h2.07v1.1A3.44 3.44 0 0 1 85 56.84a3.9 3.9 0 0 1 1.78.38 5 5 0 0 1 1.22 1 4.19 4.19 0 0 1 3.36-1.39 3.68 3.68 0 0 1 2.42.93 3.57 3.57 0 0 1 1.12 2.77v7.07h-2.04v-6.33a2.3 2.3 0 0 0-.59-1.7 2.28 2.28 0 0 0-3.08 0 2.23 2.23 0 0 0-.62 1.7v6.34h-2.06v-6.34a2.26 2.26 0 0 0-.6-1.7 2.28 2.28 0 0 0-3.08 0 2.23 2.23 0 0 0-.62 1.7v6.34h-2.07zM55.33 77.86h2.19v12.82h7.06v2.13h-9.25zM66.31 87.48a9.6 9.6 0 0 1 .27-2.59 4.24 4.24 0 0 1 2-2.43 4.2 4.2 0 0 1 1.98-.46 4.3 4.3 0 0 1 2 .42 3.8 3.8 0 0 1 1.15 1c.414.413.714.926.87 1.49a10 10 0 0 1 .25 2.58 10 10 0 0 1-.25 2.57 3.7 3.7 0 0 1-.87 1.52 4.4 4.4 0 0 1-.49.47 2.3 2.3 0 0 1-.67.44 4.38 4.38 0 0 1-3.91 0 4 4 0 0 1-1.19-.91 4.1 4.1 0 0 1-.85-1.52 9.3 9.3 0 0 1-.29-2.58m6.43 0a9.5 9.5 0 0 0-.1-1.66 2 2 0 0 0-.41-.89 1.47 1.47 0 0 0-.68-.56 2.1 2.1 0 0 0-1-.22 2.2 2.2 0 0 0-1 .22 1.8 1.8 0 0 0-.69.56 2.6 2.6 0 0 0-.39.89 8 8 0 0 0-.12 1.64 8 8 0 0 0 .12 1.63c.07.329.203.641.39.92.197.222.43.408.69.55.31.156.653.234 1 .23a2.1 2.1 0 0 0 1-.23 1.9 1.9 0 0 0 .68-.55c.21-.269.35-.584.41-.92a9 9 0 0 0 .1-1.59zM84.91 91.1a5.7 5.7 0 0 1-1.59 1.3 4.5 4.5 0 0 1-2.12.54 4.58 4.58 0 0 1-3.2-1.28 5.48 5.48 0 0 1-1.47-4.16A5.58 5.58 0 0 1 78 83.3a4.68 4.68 0 0 1 5.32-.75 5.2 5.2 0 0 1 1.59 1.34l-1.53 1.4a2.57 2.57 0 0 0-2.1-1.12q-2.64 0-2.68 3.33t2.68 3.31a2.52 2.52 0 0 0 2.1-1.12zm1.73-13.24h2.07v9.3h.05l4-5h2.44l-3.55 4.15 4 6.49h-2.6l-2.75-5-1.63 1.91v3.06h-2.03z"/></g></svg>