<svg xmlns="http://www.w3.org/2000/svg" viewBox="0 0 151 151"><title>Page Down</title><defs><linearGradient id="a" x1="0%" x2="100%" y1="50%" y2="50%"><stop offset="0%" stop-color="#1e4366"/><stop offset="100%" stop-color="#245480"/></linearGradient><linearGradient id="b" x1="50%" x2="50%" y1="100%" y2="0%"><stop offset="0%" stop-color="#1e4366"/><stop offset="27%" stop-color="#1f4669"/><stop offset="45%" stop-color="#214f71"/><stop offset="61%" stop-color="#255e7f"/><stop offset="75%" stop-color="#2a7392"/><stop offset="87%" stop-color="#318eac"/><stop offset="99%" stop-color="#3aafca"/><stop offset="100%" stop-color="#3ab1cc"/></linearGradient><linearGradient id="c" x1="50%" x2="50%" y1="100%" y2="0%"><stop offset="0%" stop-color="#61666b"/><stop offset="100%" stop-color="#7c8b99"/></linearGradient><linearGradient id="d" x1="50%" x2="50%" y1="100.427%" y2="-.427%"><stop offset="0%" stop-color="#61676b" stop-opacity="0"/><stop offset="21%" stop-color="#62686c" stop-opacity=".01"/><stop offset="35%" stop-color="#666c71" stop-opacity=".05"/><stop offset="47%" stop-color="#6d7479" stop-opacity=".12"/><stop offset="58%" stop-color="#777e85" stop-opacity=".21"/><stop offset="68%" stop-color="#848b93" stop-opacity=".33"/><stop offset="77%" stop-color="#939ba5" stop-opacity=".48"/><stop offset="86%" stop-color="#a6aebb" stop-opacity=".65"/><stop offset="94%" stop-color="#bbc3d3" stop-opacity=".85"/><stop offset="100%" stop-color="#cbd4e6"/></linearGradient></defs><g fill="none" fill-rule="nonzero" transform="translate(.63 .56)"><path fill="url(#a)" d="M150 14.09v121.82c-.006 7.78-6.31 14.084-14.09 14.09H14.09C6.31 149.994.006 143.69 0 135.91V14.09C.006 6.31 6.31.006 14.09 0h121.82c7.78.006 14.084 6.31 14.09 14.09"/><path fill="url(#b)" d="M135.91 2c6.675.006 12.084 5.415 12.09 12.09v121.82c-.006 6.675-5.415 12.084-12.09 12.09H14.09c-6.675-.006-12.084-5.415-12.09-12.09V14.09C2.006 7.415 7.415 2.006 14.09 2zm0-2H14.09C6.31.006.006 6.31 0 14.09v121.82c.006 7.78 6.31 14.084 14.09 14.09h121.82c7.78-.006 14.084-6.31 14.09-14.09V14.09C149.994 6.31 143.69.006 135.91 0"/><path fill="#0b1926" d="M145.52 145.52a14 14 0 0 1-9.91 4.11H14.39a14 14 0 0 1-9.91-4.11l17.1-17.1h106.84z"/><path fill="#3275b3" d="m145.52 4.48-17.1 17.1H21.58L4.48 4.48A14 14 0 0 1 14.39.37h121.22a14 14 0 0 1 9.91 4.11"/><path fill="#16324d" d="M149.63 14.39v121.22a14 14 0 0 1-4.11 9.91l-17.1-17.1V21.58l17.1-17.1a14 14 0 0 1 4.11 9.91M21.58 21.58v106.84l-17.1 17.1a14 14 0 0 1-4.11-9.91V14.39a14 14 0 0 1 4.11-9.91z"/><rect width="117.1" height="117.1" x="16.45" y="16.45" fill="url(#c)" stroke="url(#d)" rx="9.34"/><path fill="#fff" d="M54.62 52.66h5.25a8 8 0 0 1 1.65.17 4.45 4.45 0 0 1 1.61.88 3.6 3.6 0 0 1 1.11 1.44 4.85 4.85 0 0 1 .44 2.13 4.58 4.58 0 0 1-1.13 3 4.24 4.24 0 0 1-3.4 1.48h-3.34v5.83h-2.19zm2.19 7h3.25a2.29 2.29 0 0 0 1.84-.79 2.53 2.53 0 0 0 .59-1.64 3 3 0 0 0-.24-1.23 1.86 1.86 0 0 0-.69-.73A2.64 2.64 0 0 0 60 54.8h-3.19zm14.96 7.01a1.75 1.75 0 0 1-.89.8 4.1 4.1 0 0 1-1.65.27 3.7 3.7 0 0 1-2.66-.95 3 3 0 0 1-1-2.3 3.07 3.07 0 0 1 .85-2.23 3.33 3.33 0 0 1 2.5-.92h2.87v-1.12c0-.94-.69-1.4-2.11-1.37a3.7 3.7 0 0 0-1.23.16 1.5 1.5 0 0 0-.73.66l-1.63-1.28a4 4 0 0 1 3.48-1.55 5.33 5.33 0 0 1 3.11.76 3.13 3.13 0 0 1 1.18 2.74v7.27h-2.09zm0-3.57h-2.49c-1.2 0-1.8.46-1.79 1.28.002.367.176.71.47.93.424.32.952.47 1.48.42a3.53 3.53 0 0 0 1.84-.32c.33-.23.49-.74.49-1.54zm10.88 3.4A3.46 3.46 0 0 1 80 67.74a3.3 3.3 0 0 1-1.67-.44 3.8 3.8 0 0 1-1.06-.87 3.2 3.2 0 0 1-.58-1.28 13.6 13.6 0 0 1-.19-2.85 14 14 0 0 1 .19-2.9 3.2 3.2 0 0 1 .58-1.27A3.38 3.38 0 0 1 80 56.84a3.45 3.45 0 0 1 2.66 1.26V57h2.07v10.36A4.29 4.29 0 0 1 80.25 72a4.62 4.62 0 0 1-3.57-1.78l1.6-1.32c.273.261.583.48.92.65.33.197.706.307 1.09.32A2.37 2.37 0 0 0 82 69.3a2.33 2.33 0 0 0 .65-1.71zm-4.09-4.2a11 11 0 0 0 .08 1.7c.03.291.14.569.32.8.172.221.39.402.64.53a1.92 1.92 0 0 0 2 0 1.9 1.9 0 0 0 .61-.53 1.7 1.7 0 0 0 .35-.8q.075-.843.06-1.69a17 17 0 0 0-.06-1.73 1.56 1.56 0 0 0-.35-.78 2.4 2.4 0 0 0-.61-.56 2.11 2.11 0 0 0-2 0 2.4 2.4 0 0 0-.64.56 1.46 1.46 0 0 0-.32.78 11.5 11.5 0 0 0-.08 1.72m10.75.8a2.5 2.5 0 0 0 .69 1.95 2.35 2.35 0 0 0 1.75.68 3 3 0 0 0 2.25-1L95.53 66a4.79 4.79 0 0 1-3.71 1.72 5.1 5.1 0 0 1-1.59-.25 3.7 3.7 0 0 1-.75-.36 3.8 3.8 0 0 1-.73-.48A4.3 4.3 0 0 1 87.69 65a6.7 6.7 0 0 1-.45-2.67 7.6 7.6 0 0 1 .39-2.62 4.7 4.7 0 0 1 1-1.68 3.7 3.7 0 0 1 1.37-.92 4.4 4.4 0 0 1 1.49-.27 4.18 4.18 0 0 1 3 1.2 4.4 4.4 0 0 1 1.26 3.3v1.76zm4.36-1.76a2.8 2.8 0 0 0-.67-1.89 2.26 2.26 0 0 0-3.07 0 3 3 0 0 0-.65 1.89zM51.44 77.86h5.07a4.85 4.85 0 0 1 4.41 2.53 4.7 4.7 0 0 1 .67 1.76c.07.62.1 1.68.1 3.19a23 23 0 0 1-.16 3.36 4.6 4.6 0 0 1-.24.86 8 8 0 0 1-.41.77 5 5 0 0 1-1.77 1.75 4.9 4.9 0 0 1-2.75.73h-4.92zm2.2 12.82h2.62a3 3 0 0 0 2.74-1.3c.258-.36.416-.78.46-1.22a27 27 0 0 0 .09-2.74q0-2-.09-2.79a2.7 2.7 0 0 0-.56-1.37A2.88 2.88 0 0 0 56.26 80h-2.62zM64 87.48a9.6 9.6 0 0 1 .27-2.59 4 4 0 0 1 .85-1.49 3.9 3.9 0 0 1 1.2-.94 4.2 4.2 0 0 1 1.9-.46 4.3 4.3 0 0 1 2 .42c.448.25.84.59 1.15 1 .414.413.714.926.87 1.49a10 10 0 0 1 .25 2.58 10 10 0 0 1-.25 2.57 3.7 3.7 0 0 1-.87 1.52 2.7 2.7 0 0 1-.49.46 2.2 2.2 0 0 1-.66.45 4.2 4.2 0 0 1-2 .46 4.24 4.24 0 0 1-3.13-1.37 4.3 4.3 0 0 1-.85-1.52 9.3 9.3 0 0 1-.24-2.58m6.43 0a9.5 9.5 0 0 0-.1-1.66 1.87 1.87 0 0 0-.41-.89 1.44 1.44 0 0 0-.67-.56 2.31 2.31 0 0 0-2 0 1.76 1.76 0 0 0-.7.56 2.5 2.5 0 0 0-.39.89 8 8 0 0 0-.16 1.66 8 8 0 0 0 .12 1.63c.07.329.203.641.39.92.198.224.435.41.7.55a2.22 2.22 0 0 0 2 0 1.9 1.9 0 0 0 .67-.55 2 2 0 0 0 .41-.92 9 9 0 0 0 .11-1.61zM81 85.36l-2.15 7.45H77l-3.3-10.64h2.2l2 7.47 2.35-7.47h1.5l2.34 7.47 2-7.47h2.19L85 92.81h-1.84zm9.15-3.19h2.07v1.13a3.28 3.28 0 0 1 2.72-1.3 3.48 3.48 0 0 1 2.34.93 3.66 3.66 0 0 1 1.1 2.77v7.07h-2.07v-6.3a2.33 2.33 0 0 0-.57-1.7 2.09 2.09 0 0 0-2.93 0 2.3 2.3 0 0 0-.59 1.7v6.34h-2.07z"/></g></svg>