<svg xmlns="http://www.w3.org/2000/svg" viewBox="0 0 151 151"><title>Page Up</title><defs><linearGradient id="a" x1="0%" x2="100%" y1="50%" y2="50%"><stop offset="0%" stop-color="#1e4366"/><stop offset="100%" stop-color="#245480"/></linearGradient><linearGradient id="b" x1="50%" x2="50%" y1="100%" y2="0%"><stop offset="0%" stop-color="#1e4366"/><stop offset="27%" stop-color="#1f4669"/><stop offset="45%" stop-color="#214f71"/><stop offset="61%" stop-color="#255e7f"/><stop offset="75%" stop-color="#2a7392"/><stop offset="87%" stop-color="#318eac"/><stop offset="99%" stop-color="#3aafca"/><stop offset="100%" stop-color="#3ab1cc"/></linearGradient><linearGradient id="c" x1="50%" x2="50%" y1="100%" y2="0%"><stop offset="0%" stop-color="#61666b"/><stop offset="100%" stop-color="#7c8b99"/></linearGradient><linearGradient id="d" x1="50%" x2="50%" y1="100.427%" y2="-.427%"><stop offset="0%" stop-color="#61676b" stop-opacity="0"/><stop offset="21%" stop-color="#62686c" stop-opacity=".01"/><stop offset="35%" stop-color="#666c71" stop-opacity=".05"/><stop offset="47%" stop-color="#6d7479" stop-opacity=".12"/><stop offset="58%" stop-color="#777e85" stop-opacity=".21"/><stop offset="68%" stop-color="#848b93" stop-opacity=".33"/><stop offset="77%" stop-color="#939ba5" stop-opacity=".48"/><stop offset="86%" stop-color="#a6aebb" stop-opacity=".65"/><stop offset="94%" stop-color="#bbc3d3" stop-opacity=".85"/><stop offset="100%" stop-color="#cbd4e6"/></linearGradient></defs><g fill="none" fill-rule="nonzero" transform="translate(.63 .56)"><path fill="url(#a)" d="M150 14.09v121.82c-.006 7.78-6.31 14.084-14.09 14.09H14.09C6.31 149.994.006 143.69 0 135.91V14.09C.006 6.31 6.31.006 14.09 0h121.82c7.78.006 14.084 6.31 14.09 14.09"/><path fill="url(#b)" d="M135.91 2c6.675.006 12.084 5.415 12.09 12.09v121.82c-.006 6.675-5.415 12.084-12.09 12.09H14.09c-6.675-.006-12.084-5.415-12.09-12.09V14.09C2.006 7.415 7.415 2.006 14.09 2zm0-2H14.09C6.31.006.006 6.31 0 14.09v121.82c.006 7.78 6.31 14.084 14.09 14.09h121.82c7.78-.006 14.084-6.31 14.09-14.09V14.09C149.994 6.31 143.69.006 135.91 0"/><path fill="#0b1926" d="M145.52 145.52a14 14 0 0 1-9.91 4.11H14.39a14 14 0 0 1-9.91-4.11l17.1-17.1h106.84z"/><path fill="#3275b3" d="m145.52 4.48-17.1 17.1H21.58L4.48 4.48A14 14 0 0 1 14.39.37h121.22a14 14 0 0 1 9.91 4.11"/><path fill="#16324d" d="M149.63 14.39v121.22a14 14 0 0 1-4.11 9.91l-17.1-17.1V21.58l17.1-17.1a14 14 0 0 1 4.11 9.91M21.58 21.58v106.84l-17.1 17.1a14 14 0 0 1-4.11-9.91V14.39a14 14 0 0 1 4.11-9.91z"/><rect width="117.1" height="117.1" x="16.45" y="16.45" fill="url(#c)" stroke="url(#d)" rx="9.34"/><path fill="#fff" d="M54.62 52.66h5.24a8 8 0 0 1 1.65.17 4.4 4.4 0 0 1 1.62.88 3.6 3.6 0 0 1 1.11 1.44 4.85 4.85 0 0 1 .44 2.13 4.58 4.58 0 0 1-1.13 3 4.24 4.24 0 0 1-3.4 1.48h-3.34v5.83h-2.19zm2.19 7h3.25a2.29 2.29 0 0 0 1.84-.79 2.58 2.58 0 0 0 .59-1.64 3 3 0 0 0-.24-1.23 1.86 1.86 0 0 0-.69-.73A2.64 2.64 0 0 0 60 54.8h-3.19zm14.96 7.01a1.75 1.75 0 0 1-.89.8 4.1 4.1 0 0 1-1.65.27 3.7 3.7 0 0 1-2.66-.95 3 3 0 0 1-1-2.3 3.07 3.07 0 0 1 .85-2.23 3.33 3.33 0 0 1 2.5-.92h2.87v-1.12c0-.94-.69-1.4-2.11-1.37a3.7 3.7 0 0 0-1.23.16 1.5 1.5 0 0 0-.73.66l-1.63-1.28a4 4 0 0 1 3.48-1.55 5.35 5.35 0 0 1 3.11.76 3.13 3.13 0 0 1 1.18 2.74v7.27h-2.09zm0-3.57h-2.49c-1.2 0-1.8.46-1.79 1.28.002.367.176.71.47.93.424.32.952.47 1.48.42a3.53 3.53 0 0 0 1.84-.32c.33-.23.49-.74.49-1.54zm10.88 3.4A3.46 3.46 0 0 1 80 67.74a3.3 3.3 0 0 1-1.67-.44 3.8 3.8 0 0 1-1.06-.87 3.14 3.14 0 0 1-.58-1.28 13.6 13.6 0 0 1-.19-2.85 14 14 0 0 1 .19-2.9 3.1 3.1 0 0 1 .58-1.27A3.38 3.38 0 0 1 80 56.84a3.45 3.45 0 0 1 2.66 1.26V57h2.07v10.36A4.29 4.29 0 0 1 80.25 72a4.65 4.65 0 0 1-3.58-1.78l1.61-1.32c.273.261.583.48.92.65.33.197.706.307 1.09.32A2.37 2.37 0 0 0 82 69.3a2.33 2.33 0 0 0 .65-1.71zm-4.09-4.2a11 11 0 0 0 .08 1.7c.03.291.14.569.32.8.172.221.39.402.64.53a1.7 1.7 0 0 0 1 .29 1.75 1.75 0 0 0 1-.29 1.9 1.9 0 0 0 .61-.53 1.7 1.7 0 0 0 .35-.8q.075-.843.06-1.69a17 17 0 0 0-.06-1.73 1.56 1.56 0 0 0-.35-.78 2.4 2.4 0 0 0-.61-.56 2.1 2.1 0 0 0-1-.26c-.35 0-.694.09-1 .26a2.4 2.4 0 0 0-.64.56 1.46 1.46 0 0 0-.32.78 11.5 11.5 0 0 0-.08 1.72m10.75.8a2.5 2.5 0 0 0 .69 1.95 2.35 2.35 0 0 0 1.75.68 3 3 0 0 0 2.25-1L95.53 66a4.8 4.8 0 0 1-3.71 1.72 5.1 5.1 0 0 1-1.59-.25 3.7 3.7 0 0 1-.75-.36 3.8 3.8 0 0 1-.73-.48A4.3 4.3 0 0 1 87.69 65a6.7 6.7 0 0 1-.45-2.67 7.6 7.6 0 0 1 .39-2.62 4.7 4.7 0 0 1 1-1.68 3.7 3.7 0 0 1 1.37-.92 4.4 4.4 0 0 1 1.49-.27 4.18 4.18 0 0 1 3 1.2 4.4 4.4 0 0 1 1.26 3.3v1.76zm4.36-1.76a2.8 2.8 0 0 0-.67-1.89 2.26 2.26 0 0 0-3.07 0 3 3 0 0 0-.65 1.89zM64.2 77.86h2.19v9.65a3.1 3.1 0 0 0 .86 2.33 2.78 2.78 0 0 0 2.09.84 2.85 2.85 0 0 0 2.12-.84 3.14 3.14 0 0 0 .84-2.33v-9.65h2.19v9.89a5.18 5.18 0 0 1-8.78 3.74 4.86 4.86 0 0 1-1.51-3.74zM77.51 82.17h2.07v1.11A3.51 3.51 0 0 1 82.24 82 3.19 3.19 0 0 1 85 83.43c.303.383.503.838.58 1.32q.185 1.368.15 2.75a17 17 0 0 1-.15 2.71 2.85 2.85 0 0 1-.58 1.34 3.1 3.1 0 0 1-1.12 1 3.6 3.6 0 0 1-1.64.4 2.8 2.8 0 0 1-1.42-.36 4.5 4.5 0 0 1-1.24-.9v5.44h-2.07zm4.1 8.64c.41.02.816-.082 1.17-.29a1.65 1.65 0 0 0 .6-.76 4.4 4.4 0 0 0 .27-1.07v-2.43a4 4 0 0 0-.27-1.07 1.5 1.5 0 0 0-.6-.76 2.2 2.2 0 0 0-1.17-.26 1.82 1.82 0 0 0-1.1.3 1.76 1.76 0 0 0-.62.78 3.8 3.8 0 0 0-.25 1q-.06.6-.06 1.2 0 .567.06 1.13c.031.37.116.734.25 1.08.124.319.34.594.62.79a1.82 1.82 0 0 0 1.1.36"/></g></svg>