<svg xmlns="http://www.w3.org/2000/svg" viewBox="0 0 151 151"><title>S</title><defs><linearGradient id="a" x1="0%" x2="100%" y1="50%" y2="50%"><stop offset="0%" stop-color="#1e4366"/><stop offset="100%" stop-color="#245480"/></linearGradient><linearGradient id="b" x1="50%" x2="50%" y1="100%" y2="0%"><stop offset="0%" stop-color="#1e4366"/><stop offset="27%" stop-color="#1f4669"/><stop offset="45%" stop-color="#214f71"/><stop offset="61%" stop-color="#255e7f"/><stop offset="75%" stop-color="#2a7392"/><stop offset="87%" stop-color="#318eac"/><stop offset="99%" stop-color="#3aafca"/><stop offset="100%" stop-color="#3ab1cc"/></linearGradient><linearGradient id="c" x1="97.66%" x2="2.34%" y1="97.66%" y2="2.34%"><stop offset="0%" stop-color="#8b9299"/><stop offset="100%" stop-color="#a5b9cc"/></linearGradient><linearGradient id="d" x1="50%" x2="50%" y1="100.427%" y2="-.427%"><stop offset="0%" stop-color="#61676b" stop-opacity="0"/><stop offset="20%" stop-color="#62686d" stop-opacity=".01"/><stop offset="34%" stop-color="#676d72" stop-opacity=".05"/><stop offset="45%" stop-color="#6e757a" stop-opacity=".1"/><stop offset="56%" stop-color="#798087" stop-opacity=".19"/><stop offset="65%" stop-color="#878e97" stop-opacity=".3"/><stop offset="74%" stop-color="#98a0aa" stop-opacity=".43"/><stop offset="83%" stop-color="#acb4c2" stop-opacity=".59"/><stop offset="91%" stop-color="#c3cddd" stop-opacity=".77"/><stop offset="99%" stop-color="#dde7fb" stop-opacity=".97"/><stop offset="100%" stop-color="#e1ebff"/></linearGradient></defs><g fill="none" fill-rule="nonzero" transform="translate(.63 .56)"><path fill="url(#a)" d="M150 14.09v121.82c-.006 7.78-6.31 14.084-14.09 14.09H14.09C6.31 149.994.006 143.69 0 135.91V14.09C.006 6.31 6.31.006 14.09 0h121.82c7.78.006 14.084 6.31 14.09 14.09"/><path fill="url(#b)" d="M135.91 2c6.675.006 12.084 5.415 12.09 12.09v121.82c-.006 6.675-5.415 12.084-12.09 12.09H14.09c-6.675-.006-12.084-5.415-12.09-12.09V14.09C2.006 7.415 7.415 2.006 14.09 2zm0-2H14.09C6.31.006.006 6.31 0 14.09v121.82c.006 7.78 6.31 14.084 14.09 14.09h121.82c7.78-.006 14.084-6.31 14.09-14.09V14.09C149.994 6.31 143.69.006 135.91 0"/><path fill="#17334d" d="M145.52 145.52a14 14 0 0 1-9.91 4.11H14.39a14 14 0 0 1-9.91-4.11l17.1-17.1h106.84z"/><path fill="#3275b3" d="m145.52 4.48-17.1 17.1H21.58L4.48 4.48A14 14 0 0 1 14.39.37h121.22a14 14 0 0 1 9.91 4.11"/><path fill="#16324d" d="M149.63 14.39v121.22a14 14 0 0 1-4.11 9.91l-17.1-17.1V21.58l17.1-17.1a14 14 0 0 1 4.11 9.91M21.58 21.58v106.84l-17.1 17.1a14 14 0 0 1-4.11-9.91V14.39a14 14 0 0 1 4.11-9.91z"/><rect width="117.1" height="117.1" x="16.45" y="16.45" fill="url(#c)" stroke="url(#d)" rx="9.34"/><path fill="#fff" d="M65.14 80.75a14.2 14.2 0 0 0 9.4 3.4q6.45-.09 6.54-4.76.06-3.83-4.31-4.6-2-.27-4.38-.63a10.7 10.7 0 0 1-6.5-3.26 9.25 9.25 0 0 1-2.29-6.33 9.53 9.53 0 0 1 2.88-7.23q2.79-2.72 7.92-2.77a18.23 18.23 0 0 1 10.72 3.53l-2.79 4.26a14.8 14.8 0 0 0-8.2-2.63 6.17 6.17 0 0 0-3.86 1.19 4.5 4.5 0 0 0-1.66 3.71 3.8 3.8 0 0 0 1.11 2.67 6.26 6.26 0 0 0 3.57 1.7q1.36.24 3.72.54 4.67.66 6.88 3.45a9.9 9.9 0 0 1 2.21 6.38q-.25 9.81-11.62 10a18.43 18.43 0 0 1-12.63-4.67z"/></g></svg>