<svg xmlns="http://www.w3.org/2000/svg" viewBox="0 0 451 151"><title>Shift 2</title><defs><linearGradient id="a" x1="0%" x2="100%" y1="50%" y2="50%"><stop offset="0%" stop-color="#1e4366"/><stop offset="100%" stop-color="#245480"/></linearGradient><linearGradient id="b" x1="50%" x2="50%" y1="100%" y2="0%"><stop offset="0%" stop-color="#1e4366"/><stop offset="27%" stop-color="#1f4669"/><stop offset="45%" stop-color="#214f71"/><stop offset="61%" stop-color="#255e7f"/><stop offset="75%" stop-color="#2a7392"/><stop offset="87%" stop-color="#318eac"/><stop offset="99%" stop-color="#3aafca"/><stop offset="100%" stop-color="#3ab1cc"/></linearGradient><linearGradient id="c" x1="50%" x2="50%" y1="100%" y2="0%"><stop offset="0%" stop-color="#61666b"/><stop offset="100%" stop-color="#7c8b99"/></linearGradient><linearGradient id="d" x1="50%" x2="50%" y1="100.427%" y2="-.427%"><stop offset="0%" stop-color="#61676b" stop-opacity="0"/><stop offset="21%" stop-color="#62686c" stop-opacity=".01"/><stop offset="35%" stop-color="#666c71" stop-opacity=".05"/><stop offset="47%" stop-color="#6d7479" stop-opacity=".12"/><stop offset="58%" stop-color="#777e85" stop-opacity=".21"/><stop offset="68%" stop-color="#848b93" stop-opacity=".33"/><stop offset="77%" stop-color="#939ba5" stop-opacity=".48"/><stop offset="86%" stop-color="#a6aebb" stop-opacity=".65"/><stop offset="94%" stop-color="#bbc3d3" stop-opacity=".85"/><stop offset="100%" stop-color="#cbd4e6"/></linearGradient></defs><g fill="none" fill-rule="nonzero" transform="translate(.63 .56)"><path fill="url(#a)" d="M450 14.09v121.82c-.006 7.78-6.31 14.084-14.09 14.09H14.09C6.31 149.994.006 143.69 0 135.91V14.09C.006 6.31 6.31.006 14.09 0h421.82c7.78.006 14.084 6.31 14.09 14.09"/><path fill="url(#b)" d="M435.91 2c6.675.006 12.084 5.415 12.09 12.09v121.82c-.006 6.675-5.415 12.084-12.09 12.09H14.09c-6.675-.006-12.084-5.415-12.09-12.09V14.09C2.006 7.415 7.415 2.006 14.09 2zm0-2H14.09C6.31.006.006 6.31 0 14.09v121.82c.006 7.78 6.31 14.084 14.09 14.09h421.82c7.78-.006 14.084-6.31 14.09-14.09V14.09C449.994 6.31 443.69.006 435.91 0"/><path fill="#0b1926" d="M445.52 145.52a14 14 0 0 1-9.91 4.11H14.39a14 14 0 0 1-9.91-4.11l17.1-17.1h406.84z"/><path fill="#3275b3" d="m445.52 4.48-17.1 17.1H21.58L4.48 4.48A14 14 0 0 1 14.39.37h421.22a14 14 0 0 1 9.91 4.11"/><path fill="#16324d" d="M449.63 14.39v121.22a14 14 0 0 1-4.11 9.91l-17.1-17.1V21.58l17.1-17.1a14 14 0 0 1 4.11 9.91M21.58 21.58v106.84l-17.1 17.1a14 14 0 0 1-4.11-9.91V14.39a14 14 0 0 1 4.11-9.91z"/><rect width="417.1" height="117.1" x="16.45" y="16.45" fill="url(#c)" stroke="url(#d)" rx="9.34"/><path fill="#fff" d="M211.7 78.39a6.2 6.2 0 0 0 4.11 1.49c1.88 0 2.84-.72 2.86-2.08 0-1.12-.61-1.79-1.88-2l-1.92-.28a4.65 4.65 0 0 1-2.87-1.44 4 4 0 0 1-1-2.77 4.17 4.17 0 0 1 1.26-3.16 4.84 4.84 0 0 1 3.47-1.21 8 8 0 0 1 4.69 1.54l-1.22 1.87a6.5 6.5 0 0 0-3.59-1.16 2.7 2.7 0 0 0-1.69.53 2 2 0 0 0-.72 1.62c.003.437.175.857.48 1.17a2.8 2.8 0 0 0 1.56.74c.4.07.94.15 1.63.23a4.5 4.5 0 0 1 3 1.51 4.36 4.36 0 0 1 1 2.79q-.12 4.31-5.08 4.36a8.07 8.07 0 0 1-5.53-2zm11.68-11.33h2.07v5.44a3.28 3.28 0 0 1 2.68-1.26 3.48 3.48 0 0 1 2.34.93 3.66 3.66 0 0 1 1.1 2.77V82h-2.07v-6.33A2.35 2.35 0 0 0 229 74a2.11 2.11 0 0 0-3 0 2.28 2.28 0 0 0-.59 1.71V82h-2.07zM234.72 67.06h2.07v2.13h-2.07zm0 4.31h2.07V82h-2.07zM240 73h-1v-1.63h1V70a2.81 2.81 0 0 1 .82-2.24 3 3 0 0 1 2-.67h1.34v2H243c-.63 0-.93.28-.9.89v1.41h2.08V73h-2.08v9H240zm5.65-4.87h2.07v3.24h1.51V73h-1.51v6.21c0 .54.23.8.74.78h.77v2h-1.08a2.4 2.4 0 0 1-1.78-.69 2.5 2.5 0 0 1-.72-1.93V73h-1v-1.63h1z"/></g></svg>