<svg xmlns="http://www.w3.org/2000/svg" viewBox="0 0 151 151"><title>{ [</title><defs><linearGradient id="a" x1="0%" x2="100%" y1="50%" y2="50%"><stop offset="0%" stop-color="#1e4366"/><stop offset="100%" stop-color="#245480"/></linearGradient><linearGradient id="b" x1="50%" x2="50%" y1="100%" y2="0%"><stop offset="0%" stop-color="#1e4366"/><stop offset="27%" stop-color="#1f4669"/><stop offset="45%" stop-color="#214f71"/><stop offset="61%" stop-color="#255e7f"/><stop offset="75%" stop-color="#2a7392"/><stop offset="87%" stop-color="#318eac"/><stop offset="99%" stop-color="#3aafca"/><stop offset="100%" stop-color="#3ab1cc"/></linearGradient><linearGradient id="c" x1="50%" x2="50%" y1="100%" y2="0%"><stop offset="0%" stop-color="#61666b"/><stop offset="100%" stop-color="#7c8b99"/></linearGradient><linearGradient id="d" x1="50%" x2="50%" y1="100.427%" y2="-.427%"><stop offset="0%" stop-color="#61676b" stop-opacity="0"/><stop offset="21%" stop-color="#62686c" stop-opacity=".01"/><stop offset="35%" stop-color="#666c71" stop-opacity=".05"/><stop offset="47%" stop-color="#6d7479" stop-opacity=".12"/><stop offset="58%" stop-color="#777e85" stop-opacity=".21"/><stop offset="68%" stop-color="#848b93" stop-opacity=".33"/><stop offset="77%" stop-color="#939ba5" stop-opacity=".48"/><stop offset="86%" stop-color="#a6aebb" stop-opacity=".65"/><stop offset="94%" stop-color="#bbc3d3" stop-opacity=".85"/><stop offset="100%" stop-color="#cbd4e6"/></linearGradient></defs><g fill="none" fill-rule="nonzero" transform="translate(.63 .56)"><path fill="url(#a)" d="M150 14.09v121.82c-.006 7.78-6.31 14.084-14.09 14.09H14.09C6.31 149.994.006 143.69 0 135.91V14.09C.006 6.31 6.31.006 14.09 0h121.82c7.78.006 14.084 6.31 14.09 14.09"/><path fill="url(#b)" d="M135.91 2c6.675.006 12.084 5.415 12.09 12.09v121.82c-.006 6.675-5.415 12.084-12.09 12.09H14.09c-6.675-.006-12.084-5.415-12.09-12.09V14.09C2.006 7.415 7.415 2.006 14.09 2zm0-2H14.09C6.31.006.006 6.31 0 14.09v121.82c.006 7.78 6.31 14.084 14.09 14.09h121.82c7.78-.006 14.084-6.31 14.09-14.09V14.09C149.994 6.31 143.69.006 135.91 0"/><path fill="#0b1926" d="M145.52 145.52a14 14 0 0 1-9.91 4.11H14.39a14 14 0 0 1-9.91-4.11l17.1-17.1h106.84z"/><path fill="#3275b3" d="m145.52 4.48-17.1 17.1H21.58L4.48 4.48A14 14 0 0 1 14.39.37h121.22a14 14 0 0 1 9.91 4.11"/><path fill="#16324d" d="M149.63 14.39v121.22a14 14 0 0 1-4.11 9.91l-17.1-17.1V21.58l17.1-17.1a14 14 0 0 1 4.11 9.91M21.58 21.58v106.84l-17.1 17.1a14 14 0 0 1-4.11-9.91V14.39a14 14 0 0 1 4.11-9.91z"/><rect width="117.1" height="117.1" x="16.45" y="16.45" fill="url(#c)" stroke="url(#d)" rx="9.34"/><path fill="#fff" d="M78.71 33.89V36h-1.42c-.86 0-1.29.48-1.29 1.49v4.61a3 3 0 0 1-2.09 3 3.05 3.05 0 0 1 2.09 3v4.63c0 1 .43 1.47 1.29 1.47h1.42v2.1h-1.9a3.12 3.12 0 0 1-2.52-1 4 4 0 0 1-.79-2.59v-4.4a2 2 0 0 0-.43-1.48 2.5 2.5 0 0 0-1.78-.65v-2.12a2.9 2.9 0 0 0 1.78-.62 2.27 2.27 0 0 0 .43-1.51v-4.37a4 4 0 0 1 .79-2.62 3 3 0 0 1 2.52-1zm-.55 57.6v2.23h-3.82v18h3.82v2.23h-6.32V91.49z"/></g></svg>