<svg xmlns="http://www.w3.org/2000/svg" viewBox="0 0 321 151"><title>小键盘0</title><defs><linearGradient id="a" x1="0%" x2="100%" y1="50%" y2="50%"><stop offset="0%" stop-color="#1e4366"/><stop offset="100%" stop-color="#245480"/></linearGradient><linearGradient id="b" x1="49.998%" x2="49.998%" y1="100%" y2="0%"><stop offset="0%" stop-color="#1e4366"/><stop offset="27%" stop-color="#1f4669"/><stop offset="45%" stop-color="#214f71"/><stop offset="61%" stop-color="#255e7f"/><stop offset="75%" stop-color="#2a7392"/><stop offset="87%" stop-color="#318eac"/><stop offset="99%" stop-color="#3aafca"/><stop offset="100%" stop-color="#3ab1cc"/></linearGradient><linearGradient id="c" x1="50%" x2="50%" y1="100%" y2="0%"><stop offset="0%" stop-color="#61666b"/><stop offset="100%" stop-color="#7c8b99"/></linearGradient><linearGradient id="d" x1="50%" x2="50%" y1="100.427%" y2="-.427%"><stop offset="0%" stop-color="#61676b" stop-opacity="0"/><stop offset="21%" stop-color="#62686c" stop-opacity=".01"/><stop offset="35%" stop-color="#666c71" stop-opacity=".05"/><stop offset="47%" stop-color="#6d7479" stop-opacity=".12"/><stop offset="58%" stop-color="#777e85" stop-opacity=".21"/><stop offset="68%" stop-color="#848b93" stop-opacity=".33"/><stop offset="77%" stop-color="#939ba5" stop-opacity=".48"/><stop offset="86%" stop-color="#a6aebb" stop-opacity=".65"/><stop offset="94%" stop-color="#bbc3d3" stop-opacity=".85"/><stop offset="100%" stop-color="#cbd4e6"/></linearGradient></defs><g fill="none" fill-rule="nonzero" transform="translate(.485 .56)"><path fill="url(#a)" d="M320.29 14.09v121.82c-.017 7.775-6.315 14.073-14.09 14.09H14.09C6.31 149.994.006 143.69 0 135.91V14.09C.006 6.31 6.31.006 14.09 0H306.2c7.775.017 14.073 6.315 14.09 14.09"/><path fill="url(#b)" d="M306.2 2c6.67.016 12.074 5.42 12.09 12.09v121.82c-.006 6.675-5.415 12.084-12.09 12.09H14.09c-6.675-.006-12.084-5.415-12.09-12.09V14.09C2.006 7.415 7.415 2.006 14.09 2zm0-2H14.09C6.31.006.006 6.31 0 14.09v121.82c.006 7.78 6.31 14.084 14.09 14.09H306.2c7.775-.017 14.073-6.315 14.09-14.09V14.09C320.273 6.315 313.975.017 306.2 0"/><path fill="#0b1926" d="M315.8 145.52a14 14 0 0 1-9.9 4.11H14.39a14 14 0 0 1-9.91-4.11l17.1-17.1H298.7z"/><path fill="#3275b3" d="m315.8 4.48-17.1 17.1H21.58L4.48 4.48A14 14 0 0 1 14.39.37H305.9a14 14 0 0 1 9.9 4.11"/><path fill="#16324d" d="M319.91 14.39v121.22a14 14 0 0 1-4.11 9.91l-17.1-17.1V21.58l17.1-17.1a14 14 0 0 1 4.11 9.91M21.58 21.58v106.84l-17.1 17.1a14 14 0 0 1-4.11-9.91V14.39a14 14 0 0 1 4.11-9.91z"/><rect width="287.38" height="117.1" x="16.45" y="16.45" fill="url(#c)" stroke="url(#d)" rx="9.34"/><path fill="#fff" d="M150.38 64.38a9.32 9.32 0 0 1 2.94-7.28 9.13 9.13 0 0 1 6.45-2.53 9.28 9.28 0 0 1 6.57 2.54 9.72 9.72 0 0 1 2.84 7.28v15.07a9.7 9.7 0 0 1-2.84 7.27 9.45 9.45 0 0 1-6.57 2.58 9.43 9.43 0 0 1-9.39-9.83zm14.07.3c-.1-3.42-1.65-5.17-4.68-5.23s-4.6 1.81-4.66 5.23V79.2c.06 3.46 1.62 5.21 4.66 5.24s4.58-1.78 4.68-5.24z"/></g></svg>