<svg xmlns="http://www.w3.org/2000/svg" viewBox="0 0 151 100"><title>Biogas power generation（沼气发电）</title><defs><linearGradient id="a" x1="49.984%" x2="49.984%" y1="100.041%" y2="0%"><stop offset="0%" stop-color="#e2e2e2"/><stop offset="3%" stop-color="#d0d0d0"/><stop offset="6%" stop-color="#bcbcbc"/><stop offset="9%" stop-color="#b5b5b5"/><stop offset="49%" stop-color="#f6f6f6"/><stop offset="63%" stop-color="#f3f3f3"/><stop offset="73%" stop-color="#eaeaea"/><stop offset="82%" stop-color="#dbdbdb"/><stop offset="90%" stop-color="#c6c6c6"/><stop offset="97%" stop-color="#aaa"/><stop offset="100%" stop-color="#9b9b9b"/></linearGradient><linearGradient id="b" x1="50%" x2="50%" y1="100%" y2="0%"><stop offset="0%" stop-color="#e2e2e2"/><stop offset="3%" stop-color="#d0d0d0"/><stop offset="6%" stop-color="#bcbcbc"/><stop offset="9%" stop-color="#b5b5b5"/><stop offset="49%" stop-color="#f6f6f6"/><stop offset="63%" stop-color="#f3f3f3"/><stop offset="73%" stop-color="#eaeaea"/><stop offset="82%" stop-color="#dbdbdb"/><stop offset="90%" stop-color="#c6c6c6"/><stop offset="97%" stop-color="#aaa"/><stop offset="100%" stop-color="#9b9b9b"/></linearGradient><linearGradient id="c" x1="99.977%" x2="-.023%" y1="50%" y2="50%"><stop offset="0%" stop-color="#6b6b6b"/><stop offset="1%" stop-color="#767676"/><stop offset="3%" stop-color="#959595"/><stop offset="4%" stop-color="#aaa"/><stop offset="37%" stop-color="#ccc"/><stop offset="74%" stop-color="#eaeaea"/><stop offset="94%" stop-color="#f6f6f6"/><stop offset="95%" stop-color="#ededed"/><stop offset="96%" stop-color="#d4d4d4"/><stop offset="97%" stop-color="#ababab"/><stop offset="99%" stop-color="#737373"/><stop offset="99%" stop-color="#666"/></linearGradient><linearGradient id="d" x1="50%" x2="50%" y1="100%" y2="0%"><stop offset="0%" stop-color="#6b6b6b"/><stop offset="11%" stop-color="#767676"/><stop offset="30%" stop-color="#959595"/><stop offset="41%" stop-color="#aaa"/><stop offset="56%" stop-color="#ccc"/><stop offset="71%" stop-color="#eaeaea"/><stop offset="80%" stop-color="#f6f6f6"/><stop offset="83%" stop-color="#ededed"/><stop offset="87%" stop-color="#d4d4d4"/><stop offset="92%" stop-color="#ababab"/><stop offset="98%" stop-color="#737373"/><stop offset="99%" stop-color="#666"/></linearGradient><linearGradient id="e" x1="50%" x2="50%" y1="100%" y2="0%"><stop offset="0%" stop-color="#e2e2e2"/><stop offset="3%" stop-color="#d0d0d0"/><stop offset="6%" stop-color="#bcbcbc"/><stop offset="9%" stop-color="#b5b5b5"/><stop offset="49%" stop-color="#f6f6f6"/><stop offset="63%" stop-color="#f3f3f3"/><stop offset="73%" stop-color="#eaeaea"/><stop offset="82%" stop-color="#dbdbdb"/><stop offset="90%" stop-color="#c6c6c6"/><stop offset="97%" stop-color="#aaa"/><stop offset="100%" stop-color="#9b9b9b"/></linearGradient><linearGradient id="f" x1="50%" x2="50%" y1="100%" y2="0%"><stop offset="0%" stop-color="#6b6b6b"/><stop offset="11%" stop-color="#767676"/><stop offset="30%" stop-color="#959595"/><stop offset="41%" stop-color="#aaa"/><stop offset="56%" stop-color="#ccc"/><stop offset="71%" stop-color="#eaeaea"/><stop offset="80%" stop-color="#f6f6f6"/><stop offset="83%" stop-color="#ededed"/><stop offset="87%" stop-color="#d4d4d4"/><stop offset="92%" stop-color="#ababab"/><stop offset="98%" stop-color="#737373"/><stop offset="99%" stop-color="#666"/></linearGradient><linearGradient id="g" x1="50.088%" x2="50.088%" y1="100%" y2="0%"><stop offset="0%" stop-color="#6b6b6b"/><stop offset="11%" stop-color="#767676"/><stop offset="30%" stop-color="#959595"/><stop offset="41%" stop-color="#aaa"/><stop offset="56%" stop-color="#ccc"/><stop offset="71%" stop-color="#eaeaea"/><stop offset="80%" stop-color="#f6f6f6"/><stop offset="83%" stop-color="#ededed"/><stop offset="87%" stop-color="#d4d4d4"/><stop offset="92%" stop-color="#ababab"/><stop offset="98%" stop-color="#737373"/><stop offset="99%" stop-color="#666"/></linearGradient><linearGradient id="h" x1="50%" x2="50%" y1="100%" y2=".04%"><stop offset="0%" stop-color="#6b6b6b"/><stop offset="11%" stop-color="#767676"/><stop offset="30%" stop-color="#959595"/><stop offset="41%" stop-color="#aaa"/><stop offset="56%" stop-color="#ccc"/><stop offset="71%" stop-color="#eaeaea"/><stop offset="80%" stop-color="#f6f6f6"/><stop offset="83%" stop-color="#ededed"/><stop offset="87%" stop-color="#d4d4d4"/><stop offset="92%" stop-color="#ababab"/><stop offset="98%" stop-color="#737373"/><stop offset="99%" stop-color="#666"/></linearGradient><linearGradient id="i" x1="49.153%" x2="49.153%" y1="100.041%" y2="0%"><stop offset="0%" stop-color="#6b6b6b"/><stop offset="11%" stop-color="#767676"/><stop offset="30%" stop-color="#959595"/><stop offset="41%" stop-color="#aaa"/><stop offset="56%" stop-color="#ccc"/><stop offset="71%" stop-color="#eaeaea"/><stop offset="80%" stop-color="#f6f6f6"/><stop offset="83%" stop-color="#ededed"/><stop offset="87%" stop-color="#d4d4d4"/><stop offset="92%" stop-color="#ababab"/><stop offset="98%" stop-color="#737373"/><stop offset="99%" stop-color="#666"/></linearGradient><linearGradient id="j" x1="49.984%" x2="49.984%" y1="98.936%" y2="0%"><stop offset="0%" stop-color="#e2e2e2"/><stop offset="3%" stop-color="#d0d0d0"/><stop offset="6%" stop-color="#bcbcbc"/><stop offset="9%" stop-color="#b5b5b5"/><stop offset="49%" stop-color="#f6f6f6"/><stop offset="63%" stop-color="#f3f3f3"/><stop offset="73%" stop-color="#eaeaea"/><stop offset="82%" stop-color="#dbdbdb"/><stop offset="90%" stop-color="#c6c6c6"/><stop offset="97%" stop-color="#aaa"/><stop offset="100%" stop-color="#9b9b9b"/></linearGradient><linearGradient id="k" x1="50%" x2="50%" y1="100%" y2="0%"><stop offset="0%" stop-color="#e2e2e2"/><stop offset="3%" stop-color="#d0d0d0"/><stop offset="6%" stop-color="#bcbcbc"/><stop offset="9%" stop-color="#b5b5b5"/><stop offset="49%" stop-color="#f6f6f6"/><stop offset="63%" stop-color="#f3f3f3"/><stop offset="73%" stop-color="#eaeaea"/><stop offset="82%" stop-color="#dbdbdb"/><stop offset="90%" stop-color="#c6c6c6"/><stop offset="97%" stop-color="#aaa"/><stop offset="100%" stop-color="#9b9b9b"/></linearGradient><linearGradient id="l" x1="50%" x2="50%" y1="98.701%" y2="0%"><stop offset="0%" stop-color="#6b6b6b"/><stop offset="11%" stop-color="#767676"/><stop offset="30%" stop-color="#959595"/><stop offset="41%" stop-color="#aaa"/><stop offset="56%" stop-color="#ccc"/><stop offset="71%" stop-color="#eaeaea"/><stop offset="80%" stop-color="#f6f6f6"/><stop offset="83%" stop-color="#ededed"/><stop offset="87%" stop-color="#d4d4d4"/><stop offset="92%" stop-color="#ababab"/><stop offset="98%" stop-color="#737373"/><stop offset="99%" stop-color="#666"/></linearGradient><linearGradient id="m" x1="50%" x2="50%" y1="100%" y2="0%"><stop offset="0%" stop-color="#6b6b6b"/><stop offset="11%" stop-color="#767676"/><stop offset="30%" stop-color="#959595"/><stop offset="41%" stop-color="#aaa"/><stop offset="56%" stop-color="#ccc"/><stop offset="71%" stop-color="#eaeaea"/><stop offset="80%" stop-color="#f6f6f6"/><stop offset="83%" stop-color="#ededed"/><stop offset="87%" stop-color="#d4d4d4"/><stop offset="92%" stop-color="#ababab"/><stop offset="98%" stop-color="#737373"/><stop offset="99%" stop-color="#666"/></linearGradient><linearGradient id="n" x1="50%" x2="50%" y1="100%" y2="0%"><stop offset="0%" stop-color="#e2e2e2"/><stop offset="3%" stop-color="#d0d0d0"/><stop offset="6%" stop-color="#bcbcbc"/><stop offset="9%" stop-color="#b5b5b5"/><stop offset="49%" stop-color="#f6f6f6"/><stop offset="63%" stop-color="#f3f3f3"/><stop offset="73%" stop-color="#eaeaea"/><stop offset="82%" stop-color="#dbdbdb"/><stop offset="90%" stop-color="#c6c6c6"/><stop offset="97%" stop-color="#aaa"/><stop offset="100%" stop-color="#9b9b9b"/></linearGradient><linearGradient id="o" x1="50%" x2="50%" y1="98.936%" y2="0%"><stop offset="0%" stop-color="#e2e2e2"/><stop offset="3%" stop-color="#d0d0d0"/><stop offset="6%" stop-color="#bcbcbc"/><stop offset="9%" stop-color="#b5b5b5"/><stop offset="49%" stop-color="#f6f6f6"/><stop offset="63%" stop-color="#f3f3f3"/><stop offset="73%" stop-color="#eaeaea"/><stop offset="82%" stop-color="#dbdbdb"/><stop offset="90%" stop-color="#c6c6c6"/><stop offset="97%" stop-color="#aaa"/><stop offset="100%" stop-color="#9b9b9b"/></linearGradient><linearGradient id="p" x1="0%" x2="99.817%" y1="49.996%" y2="49.996%"><stop offset="0%" stop-color="#6b6b6b"/><stop offset="11%" stop-color="#767676"/><stop offset="30%" stop-color="#959595"/><stop offset="41%" stop-color="#aaa"/><stop offset="56%" stop-color="#ccc"/><stop offset="71%" stop-color="#eaeaea"/><stop offset="80%" stop-color="#f6f6f6"/><stop offset="83%" stop-color="#ededed"/><stop offset="87%" stop-color="#d4d4d4"/><stop offset="92%" stop-color="#ababab"/><stop offset="98%" stop-color="#737373"/><stop offset="99%" stop-color="#666"/></linearGradient><linearGradient id="q" x1="0%" x2="100%" y1="49.996%" y2="49.996%"><stop offset="0%" stop-color="#6b6b6b"/><stop offset="11%" stop-color="#767676"/><stop offset="30%" stop-color="#959595"/><stop offset="41%" stop-color="#aaa"/><stop offset="56%" stop-color="#ccc"/><stop offset="71%" stop-color="#eaeaea"/><stop offset="80%" stop-color="#f6f6f6"/><stop offset="83%" stop-color="#ededed"/><stop offset="87%" stop-color="#d4d4d4"/><stop offset="92%" stop-color="#ababab"/><stop offset="98%" stop-color="#737373"/><stop offset="99%" stop-color="#666"/></linearGradient><linearGradient id="r" x1="50.051%" x2="50.051%" y1="100%" y2="0%"><stop offset="0%" stop-color="#6b6b6b"/><stop offset="1%" stop-color="#767676"/><stop offset="3%" stop-color="#959595"/><stop offset="4%" stop-color="#aaa"/><stop offset="37%" stop-color="#ccc"/><stop offset="74%" stop-color="#eaeaea"/><stop offset="94%" stop-color="#f6f6f6"/><stop offset="95%" stop-color="#ededed"/><stop offset="96%" stop-color="#d4d4d4"/><stop offset="97%" stop-color="#ababab"/><stop offset="99%" stop-color="#737373"/><stop offset="99%" stop-color="#666"/></linearGradient><linearGradient id="s" x1="0%" x2="100%" y1="50%" y2="50%"><stop offset="0%" stop-color="#6b6b6b"/><stop offset="11%" stop-color="#767676"/><stop offset="30%" stop-color="#959595"/><stop offset="41%" stop-color="#aaa"/><stop offset="56%" stop-color="#ccc"/><stop offset="71%" stop-color="#eaeaea"/><stop offset="80%" stop-color="#f6f6f6"/><stop offset="83%" stop-color="#ededed"/><stop offset="87%" stop-color="#d4d4d4"/><stop offset="92%" stop-color="#ababab"/><stop offset="98%" stop-color="#737373"/><stop offset="99%" stop-color="#666"/></linearGradient></defs><g fill="none" fill-rule="evenodd" transform="translate(.01 .049)"><path fill="#a3a3a3" fill-rule="nonzero" d="M103.87 89.96h-5.49l.51-3.29h4.56zm-41.89 0H56.5l.51-3.29h4.56z"/><path fill="url(#a)" fill-rule="nonzero" d="M44.42 62.31h31.77v24.35H44.42z"/><path fill="url(#b)" fill-rule="nonzero" d="M80.12 62.28h32.84v24.99H80.12z"/><path fill="url(#c)" fill-rule="nonzero" d="M53.44-31.73h43.68v139.66H53.44z" transform="rotate(90 75.28 38.1)"/><path fill="#3e3938" fill-rule="nonzero" d="M70.45 34.17v23.61H11.57V34.17zM137.79 34.17v23.61H73.23V34.17z"/><path fill="#a3a3a3" fill-rule="nonzero" d="M32.07 35.8h37.25v20.84H32.07z"/><path fill="url(#d)" fill-rule="nonzero" d="M26.82 62.31h14.2v26.17h-14.2z"/><path fill="url(#e)" fill-rule="nonzero" d="M41.01 62.31h3.4v26.17h-3.4z"/><path fill="url(#f)" fill-rule="nonzero" d="M76.21 62.28h3.9v24.99h-3.9z"/><path fill="url(#g)" fill-rule="nonzero" d="M112.96 62.28h5.65v24.99h-5.65z"/><path fill="url(#h)" fill-rule="nonzero" d="M120.85 87.27h-2.24v-25h2.24s1.9 4.46 1.9 12.5a44.6 44.6 0 0 1-1.9 12.5"/><path fill="url(#i)" fill-rule="nonzero" d="M44.42 62.31h1v24.57h-1z"/><path fill="url(#i)" fill-rule="nonzero" d="M48.94 62.31h1v24.57h-1z"/><path fill="url(#i)" fill-rule="nonzero" d="M54.44 62.17h1v24.57h-1z"/><path fill="url(#i)" fill-rule="nonzero" d="M61.57 62.31h1v24.57h-1z"/><path fill="url(#j)" fill-rule="nonzero" d="M44.42 63.14h31.79v1H44.42z"/><path fill="url(#k)" fill-rule="nonzero" d="M80.12 62.9h32.84v1.43H80.12z"/><path fill="url(#l)" fill-rule="nonzero" d="M80.12 65.35h32.84v1H80.12z"/><path fill="url(#m)" fill-rule="nonzero" d="M80.12 68.04h32.84v1H80.12z"/><path fill="url(#l)" fill-rule="nonzero" d="M80.12 70.88h32.84v1H80.12z"/><path fill="url(#m)" fill-rule="nonzero" d="M80.12 73.72h32.84v1H80.12z"/><path fill="url(#m)" fill-rule="nonzero" d="M80.12 76.4h32.84v1H80.12z"/><path fill="url(#m)" fill-rule="nonzero" d="M80.12 79.13h32.84v1H80.12z"/><path fill="url(#m)" fill-rule="nonzero" d="M80.12 81.88h32.84v1H80.12z"/><path fill="url(#k)" fill-rule="nonzero" d="M80.12 83.85h32.84v1.43H80.12z"/><path fill="url(#n)" fill-rule="nonzero" d="M76.21 62.75h3.9v2.17h-3.9z"/><path fill="url(#n)" fill-rule="nonzero" d="M76.21 83.48h3.9v2.17h-3.9z"/><path fill="#a3a3a3" fill-rule="nonzero" d="M55.09 89.96h8.53v2.53h-8.53zm41.88 0h8.53v2.53h-8.53z"/><path fill="url(#o)" fill-rule="nonzero" d="M44.57 84.1h31.64v1H44.57z"/><path fill="#a3a3a3" fill-rule="nonzero" d="M76.59 39.95h14.22v12.21H76.59z"/><path fill="url(#p)" fill-rule="nonzero" d="M72.3 25.3h5.45v139.85H72.3z" transform="rotate(90 75.025 95.225)"/><path fill="url(#p)" fill-rule="nonzero" d="M71.9-66.12h5.45V73.73H71.9z" transform="rotate(90 74.625 3.805)"/><path fill="url(#q)" fill-rule="nonzero" d="M74.175-8.805h2.38v139.85h-2.38z" transform="rotate(90 75.365 61.12)"/><path fill="url(#r)" fill-rule="nonzero" d="M70.02-53.2h9.73V75.97h-9.73z" transform="rotate(90 74.885 11.385)"/><path fill="#c1c1c1" fill-rule="nonzero" d="M139.47 19.34v12.79H10.3V19.34z"/><path fill="url(#s)" fill-rule="nonzero" d="M0 0h5.45v98.96H0z"/><path fill="url(#s)" fill-rule="nonzero" d="M144.55.06H150v98.96h-5.45z"/><rect width="4.4" height="4.4" x="35.11" y="37.75" stroke="#c2c1c1" stroke-width=".1" rx=".13"/><rect width="4.4" height="4.4" x="41.66" y="37.75" stroke="#c2c1c1" stroke-width=".1" rx=".13"/><rect width="4.4" height="4.4" x="48.47" y="37.75" stroke="#c2c1c1" stroke-width=".1" rx=".13"/><rect width="4.4" height="4.4" x="55.41" y="37.75" stroke="#c2c1c1" stroke-width=".1" rx=".13"/><rect width="4.4" height="4.4" x="61.91" y="37.75" stroke="#c2c1c1" stroke-width=".1" rx=".13"/><rect width="4.4" height="4.4" x="35.07" y="45.32" stroke="#c2c1c1" stroke-width=".1" rx=".13"/><rect width="4.4" height="4.4" x="41.61" y="45.32" stroke="#c2c1c1" stroke-width=".1" rx=".13"/><rect width="4.4" height="4.4" x="48.42" y="45.32" stroke="#c2c1c1" stroke-width=".1" rx=".13"/><rect width="4.4" height="4.4" x="55.37" y="45.32" stroke="#c2c1c1" stroke-width=".1" rx=".13"/><rect width="4.4" height="4.4" x="61.87" y="45.32" stroke="#c2c1c1" stroke-width=".1" rx=".13"/><path stroke="#c2c1c1" stroke-width=".1" d="M14.13 36.02h15.71v19.74H14.13zM14.13 39.61l15.71-.05M92.94 36.22h11.98v19.87H92.94zM92.94 39.84l11.97-.05M107.86 36.22h11.98v19.87h-11.98zM107.86 39.84l11.97-.05M123 36.22h11.98v19.87H123zM123 39.84l11.98-.05"/></g></svg>