<svg xmlns="http://www.w3.org/2000/svg" viewBox="0 0 150 136"><title>Circuit breaker（断路器）</title><defs><linearGradient id="a" x1="0%" x2="100%" y1="50%" y2="50%"><stop offset="0%" stop-color="#6b6b6b"/><stop offset="1%" stop-color="#767676"/><stop offset="3%" stop-color="#959595"/><stop offset="4%" stop-color="#aaa"/><stop offset="37%" stop-color="#ccc"/><stop offset="74%" stop-color="#eaeaea"/><stop offset="94%" stop-color="#f6f6f6"/><stop offset="95%" stop-color="#ededed"/><stop offset="96%" stop-color="#d4d4d4"/><stop offset="97%" stop-color="#ababab"/><stop offset="99%" stop-color="#737373"/><stop offset="99%" stop-color="#666"/></linearGradient><linearGradient id="b" x1="0%" x2="100%" y1="50%" y2="50%"><stop offset="0%" stop-color="#b9b9b9"/><stop offset="8%" stop-color="#dbdbdb"/><stop offset="95%" stop-color="#dbdbdb"/><stop offset="100%" stop-color="#fff"/></linearGradient><linearGradient id="c" x1="49.988%" x2="49.988%" y1="100%" y2="0%"><stop offset="0%" stop-color="#e2e2e2"/><stop offset="3%" stop-color="#d0d0d0"/><stop offset="6%" stop-color="#bcbcbc"/><stop offset="9%" stop-color="#b5b5b5"/><stop offset="49%" stop-color="#f6f6f6"/><stop offset="63%" stop-color="#f3f3f3"/><stop offset="73%" stop-color="#eaeaea"/><stop offset="82%" stop-color="#dbdbdb"/><stop offset="90%" stop-color="#c6c6c6"/><stop offset="97%" stop-color="#aaa"/><stop offset="100%" stop-color="#9b9b9b"/></linearGradient><linearGradient id="d" x1="50.012%" x2="50.012%" y1="99.939%" y2="0%"><stop offset="0%" stop-color="#e2e2e2"/><stop offset="3%" stop-color="#d0d0d0"/><stop offset="6%" stop-color="#bcbcbc"/><stop offset="9%" stop-color="#b5b5b5"/><stop offset="49%" stop-color="#f6f6f6"/><stop offset="63%" stop-color="#f3f3f3"/><stop offset="73%" stop-color="#eaeaea"/><stop offset="82%" stop-color="#dbdbdb"/><stop offset="90%" stop-color="#c6c6c6"/><stop offset="97%" stop-color="#aaa"/><stop offset="100%" stop-color="#9b9b9b"/></linearGradient><linearGradient id="e" x1="50.012%" x2="50.012%" y1="100%" y2="0%"><stop offset="0%" stop-color="#e2e2e2"/><stop offset="3%" stop-color="#d0d0d0"/><stop offset="6%" stop-color="#bcbcbc"/><stop offset="9%" stop-color="#b5b5b5"/><stop offset="49%" stop-color="#f6f6f6"/><stop offset="63%" stop-color="#f3f3f3"/><stop offset="73%" stop-color="#eaeaea"/><stop offset="82%" stop-color="#dbdbdb"/><stop offset="90%" stop-color="#c6c6c6"/><stop offset="97%" stop-color="#aaa"/><stop offset="100%" stop-color="#9b9b9b"/></linearGradient><linearGradient id="f" x1="50.003%" x2="50.003%" y1="100%" y2="0%"><stop offset="0%" stop-color="#6b6b6b"/><stop offset="11%" stop-color="#767676"/><stop offset="30%" stop-color="#959595"/><stop offset="41%" stop-color="#aaa"/><stop offset="56%" stop-color="#ccc"/><stop offset="71%" stop-color="#eaeaea"/><stop offset="80%" stop-color="#f6f6f6"/><stop offset="83%" stop-color="#ededed"/><stop offset="87%" stop-color="#d4d4d4"/><stop offset="92%" stop-color="#ababab"/><stop offset="98%" stop-color="#737373"/><stop offset="99%" stop-color="#666"/></linearGradient><linearGradient id="g" x1="49.979%" x2="49.979%" y1="100%" y2="0%"><stop offset="0%" stop-color="#6b6b6b"/><stop offset="11%" stop-color="#767676"/><stop offset="30%" stop-color="#959595"/><stop offset="41%" stop-color="#aaa"/><stop offset="56%" stop-color="#ccc"/><stop offset="71%" stop-color="#eaeaea"/><stop offset="80%" stop-color="#f6f6f6"/><stop offset="83%" stop-color="#ededed"/><stop offset="87%" stop-color="#d4d4d4"/><stop offset="92%" stop-color="#ababab"/><stop offset="98%" stop-color="#737373"/><stop offset="99%" stop-color="#666"/></linearGradient><linearGradient id="h" x1="50.021%" x2="50.021%" y1="100%" y2="0%"><stop offset="0%" stop-color="#6b6b6b"/><stop offset="11%" stop-color="#767676"/><stop offset="30%" stop-color="#959595"/><stop offset="41%" stop-color="#aaa"/><stop offset="56%" stop-color="#ccc"/><stop offset="71%" stop-color="#eaeaea"/><stop offset="80%" stop-color="#f6f6f6"/><stop offset="83%" stop-color="#ededed"/><stop offset="87%" stop-color="#d4d4d4"/><stop offset="92%" stop-color="#ababab"/><stop offset="98%" stop-color="#737373"/><stop offset="99%" stop-color="#666"/></linearGradient><linearGradient id="i" x1="0%" x2="100%" y1="50%" y2="50%"><stop offset="0%" stop-color="#e2e2e2"/><stop offset="3%" stop-color="#d0d0d0"/><stop offset="6%" stop-color="#bcbcbc"/><stop offset="9%" stop-color="#b5b5b5"/><stop offset="49%" stop-color="#f6f6f6"/><stop offset="63%" stop-color="#f3f3f3"/><stop offset="73%" stop-color="#eaeaea"/><stop offset="82%" stop-color="#dbdbdb"/><stop offset="90%" stop-color="#c6c6c6"/><stop offset="97%" stop-color="#aaa"/><stop offset="100%" stop-color="#9b9b9b"/></linearGradient><linearGradient id="j" x1="0%" x2="100%" y1="50%" y2="50%"><stop offset="0%" stop-color="#e2e2e2"/><stop offset="3%" stop-color="#d0d0d0"/><stop offset="6%" stop-color="#bcbcbc"/><stop offset="9%" stop-color="#b5b5b5"/><stop offset="49%" stop-color="#f6f6f6"/><stop offset="63%" stop-color="#f3f3f3"/><stop offset="73%" stop-color="#eaeaea"/><stop offset="82%" stop-color="#dbdbdb"/><stop offset="90%" stop-color="#c6c6c6"/><stop offset="97%" stop-color="#aaa"/><stop offset="100%" stop-color="#9b9b9b"/></linearGradient></defs><g fill="none" fill-rule="nonzero" transform="translate(.01 .049)"><path fill="#b4b4bc" stroke="#3f3f3f" stroke-width=".1" d="M33.54 56.43h18.54v6.74H33.54z"/><rect width="139.29" height="135.74" x="5.17" fill="url(#a)" rx=".31"/><rect width="149.18" height="83.1" y="25.92" fill="url(#b)" rx=".31"/><path fill="url(#c)" stroke="#b5b5b5" stroke-width=".25" d="M5.2 71.77h41.45v16.47H5.2z"/><path fill="#b4b4bc" stroke="#4e4f41" stroke-width=".1" d="M33.54 56.42h18.54v6.74H33.54z"/><path fill="#e6e6e6" d="M10.62 72.95H41.3v14.72H10.62z"/><path fill="#fff" d="M46.65 56.69h5.17v6.21h-5.17z"/><path fill="url(#d)" stroke="#b5b5b5" stroke-width=".25" d="M103.06 72.08h41.45v16.47h-41.45z"/><path fill="url(#e)" stroke="#b5b5b5" stroke-width=".25" d="M53.86 71.77h41.45v16.47H53.86z"/><path fill="#e6e6e6" d="M108.48 73.25h30.68v14.72h-30.68z"/><path fill="url(#f)" d="M1.03 87.67h146.29v15.06H1.03z"/><path fill="#fff" d="M33.99 95.56h81.64v3.81H33.99z"/><path fill="#b4b4bc" d="M18.23 92.57h113.5v8.2H18.23z"/><path fill="#4e4f41" stroke="#4e4f41" stroke-width=".1" d="M84.79 56.69h18.54v6.74H84.79z"/><path fill="#4e4f41" d="M107.46 95.92h6.71v3.09h-6.71zm-71.89-.36h6.71v3.09h-6.71z"/><path fill="#fff" d="M97.89 56.95h5.17v6.21h-5.17z"/><path fill="#4e4f41" stroke="#4e4f41" stroke-width=".1" d="M129.62 56.42h18.54v6.74h-18.54z"/><path fill="#fff" d="M142.73 56.69h5.17v6.21h-5.17z"/><path fill="#b4b4bc" d="M10.57 76.07h30.62v1H10.57z"/><path fill="url(#g)" d="M13.84 76.07h24.09v10.96H13.84z"/><path fill="#e6e6e6" d="M59.28 72.95h30.68v14.72H59.28z"/><path fill="#848484" d="M18.23 92.57h113.5v1H18.23z"/><path fill="#e6e6e6" d="M42.93 87.67h63.88v17.42H42.93z" opacity=".6"/><path fill="#b4b4bc" d="M59.24 76.07h30.62v1H59.24z"/><path fill="url(#h)" d="M62.5 76.07h24.09v10.96H62.5z"/><path fill="#b4b4bc" d="M108.44 76.37h30.62v1h-30.62z"/><path fill="url(#h)" d="M111.7 76.37h24.09v10.96H111.7z"/><circle cx="23.11" cy="15.03" r="5.38" fill="url(#i)"/><rect width="7.87" height="1.52" x="19.182" y="14.273" fill="#000" rx=".14" transform="rotate(45 23.117 15.033)"/><rect width="7.87" height="1.52" x="19.178" y="14.263" fill="#000" rx=".14" transform="rotate(-45 23.113 15.023)"/><circle cx="23.11" cy="118.53" r="5.38" fill="url(#i)"/><rect width="7.87" height="1.52" x="19.176" y="117.768" fill="#000" rx=".14" transform="rotate(45 23.111 118.528)"/><rect width="7.87" height="1.52" x="19.183" y="117.769" fill="#000" rx=".14" transform="rotate(-45 23.118 118.529)"/><circle cx="69.21" cy="118.53" r="5.38" fill="url(#i)"/><rect width="7.87" height="1.52" x="65.274" y="117.776" fill="#000" rx=".14" transform="rotate(45 69.209 118.536)"/><rect width="7.87" height="1.52" x="65.281" y="117.761" fill="#000" rx=".14" transform="rotate(-45 69.216 118.521)"/><circle cx="114.79" cy="118.53" r="5.38" fill="url(#j)"/><rect width="7.87" height="1.52" x="110.854" y="117.776" fill="#000" rx=".14" transform="rotate(45 114.789 118.536)"/><rect width="7.87" height="1.52" x="110.861" y="117.761" fill="#000" rx=".14" transform="rotate(-45 114.796 118.521)"/><circle cx="69.21" cy="15.03" r="5.38" fill="url(#i)"/><rect width="7.87" height="1.52" x="65.28" y="14.28" fill="#000" rx=".14" transform="rotate(45 69.215 15.04)"/><rect width="7.87" height="1.52" x="65.275" y="14.265" fill="#000" rx=".14" transform="rotate(-45 69.21 15.025)"/><circle cx="114.79" cy="15.03" r="5.38" fill="url(#j)"/><rect width="7.87" height="1.52" x="110.86" y="14.27" fill="#000" rx=".14" transform="rotate(45 114.795 15.03)"/><rect width="7.87" height="1.52" x="110.855" y="14.265" fill="#000" rx=".14" transform="rotate(-45 114.79 15.025)"/><path fill="#b4b4bc" d="M4.64 34.18h140.5v5.31H4.64z"/></g></svg>