<svg xmlns="http://www.w3.org/2000/svg" viewBox="0 0 150 88"><title>Diesel backed UPS system（柴油备用系统）</title><defs><linearGradient id="a" x1="50.029%" x2="50.029%" y1="100%" y2="0%"><stop offset="0%" stop-color="#6b6b6b"/><stop offset="1%" stop-color="#767676"/><stop offset="3%" stop-color="#959595"/><stop offset="4%" stop-color="#aaa"/><stop offset="37%" stop-color="#ccc"/><stop offset="74%" stop-color="#eaeaea"/><stop offset="94%" stop-color="#f6f6f6"/><stop offset="95%" stop-color="#ededed"/><stop offset="96%" stop-color="#d4d4d4"/><stop offset="97%" stop-color="#ababab"/><stop offset="99%" stop-color="#737373"/><stop offset="99%" stop-color="#666"/></linearGradient><linearGradient id="b" x1="50.029%" x2="50.029%" y1="100%" y2="0%"><stop offset="0%" stop-color="#6b6b6b"/><stop offset="1%" stop-color="#767676"/><stop offset="3%" stop-color="#959595"/><stop offset="4%" stop-color="#aaa"/><stop offset="37%" stop-color="#ccc"/><stop offset="74%" stop-color="#eaeaea"/><stop offset="94%" stop-color="#f6f6f6"/><stop offset="95%" stop-color="#ededed"/><stop offset="96%" stop-color="#d4d4d4"/><stop offset="97%" stop-color="#ababab"/><stop offset="99%" stop-color="#737373"/><stop offset="99%" stop-color="#666"/></linearGradient><linearGradient id="c" x1="0%" x2="100%" y1="49.78%" y2="49.78%"><stop offset="0%" stop-color="#6b6b6b"/><stop offset="11%" stop-color="#767676"/><stop offset="30%" stop-color="#959595"/><stop offset="41%" stop-color="#aaa"/><stop offset="56%" stop-color="#ccc"/><stop offset="71%" stop-color="#eaeaea"/><stop offset="80%" stop-color="#f6f6f6"/><stop offset="83%" stop-color="#ededed"/><stop offset="87%" stop-color="#d4d4d4"/><stop offset="92%" stop-color="#ababab"/><stop offset="98%" stop-color="#737373"/><stop offset="99%" stop-color="#666"/></linearGradient><linearGradient id="d" x1="100%" x2="0%" y1="49.987%" y2="49.987%"><stop offset="0%" stop-color="#6b6b6b"/><stop offset="1%" stop-color="#767676"/><stop offset="3%" stop-color="#959595"/><stop offset="4%" stop-color="#aaa"/><stop offset="37%" stop-color="#ccc"/><stop offset="74%" stop-color="#eaeaea"/><stop offset="94%" stop-color="#f6f6f6"/><stop offset="95%" stop-color="#ededed"/><stop offset="96%" stop-color="#d4d4d4"/><stop offset="97%" stop-color="#ababab"/><stop offset="99%" stop-color="#737373"/><stop offset="99%" stop-color="#666"/></linearGradient><linearGradient id="e" x1="100%" x2="0%" y1="50.273%" y2="50.273%"><stop offset="0%" stop-color="#6b6b6b"/><stop offset="11%" stop-color="#767676"/><stop offset="30%" stop-color="#959595"/><stop offset="41%" stop-color="#aaa"/><stop offset="56%" stop-color="#ccc"/><stop offset="71%" stop-color="#eaeaea"/><stop offset="80%" stop-color="#f6f6f6"/><stop offset="83%" stop-color="#ededed"/><stop offset="87%" stop-color="#d4d4d4"/><stop offset="92%" stop-color="#ababab"/><stop offset="98%" stop-color="#737373"/><stop offset="99%" stop-color="#666"/></linearGradient><linearGradient id="f" x1="50.011%" x2="50.011%" y1="100%" y2="0%"><stop offset="0%" stop-color="#6b6b6b"/><stop offset="11%" stop-color="#767676"/><stop offset="30%" stop-color="#959595"/><stop offset="41%" stop-color="#aaa"/><stop offset="56%" stop-color="#ccc"/><stop offset="71%" stop-color="#eaeaea"/><stop offset="80%" stop-color="#f6f6f6"/><stop offset="83%" stop-color="#ededed"/><stop offset="87%" stop-color="#d4d4d4"/><stop offset="92%" stop-color="#ababab"/><stop offset="98%" stop-color="#737373"/><stop offset="99%" stop-color="#666"/></linearGradient><linearGradient id="g" x1="100%" x2="0%" y1="50.34%" y2="50.34%"><stop offset="0%" stop-color="#6b6b6b"/><stop offset="11%" stop-color="#767676"/><stop offset="30%" stop-color="#959595"/><stop offset="41%" stop-color="#aaa"/><stop offset="56%" stop-color="#ccc"/><stop offset="71%" stop-color="#eaeaea"/><stop offset="80%" stop-color="#f6f6f6"/><stop offset="83%" stop-color="#ededed"/><stop offset="87%" stop-color="#d4d4d4"/><stop offset="92%" stop-color="#ababab"/><stop offset="98%" stop-color="#737373"/><stop offset="99%" stop-color="#666"/></linearGradient><linearGradient id="h" x1="99.55%" x2="0%" y1="49.66%" y2="49.66%"><stop offset="0%" stop-color="#6b6b6b"/><stop offset="11%" stop-color="#767676"/><stop offset="30%" stop-color="#959595"/><stop offset="41%" stop-color="#aaa"/><stop offset="56%" stop-color="#ccc"/><stop offset="71%" stop-color="#eaeaea"/><stop offset="80%" stop-color="#f6f6f6"/><stop offset="83%" stop-color="#ededed"/><stop offset="87%" stop-color="#d4d4d4"/><stop offset="92%" stop-color="#ababab"/><stop offset="98%" stop-color="#737373"/><stop offset="99%" stop-color="#666"/></linearGradient><linearGradient id="i" x1="100%" x2="0%" y1="49.992%" y2="49.992%"><stop offset="0%" stop-color="#6b6b6b"/><stop offset="1%" stop-color="#767676"/><stop offset="3%" stop-color="#959595"/><stop offset="4%" stop-color="#aaa"/><stop offset="37%" stop-color="#ccc"/><stop offset="74%" stop-color="#eaeaea"/><stop offset="94%" stop-color="#f6f6f6"/><stop offset="95%" stop-color="#ededed"/><stop offset="96%" stop-color="#d4d4d4"/><stop offset="97%" stop-color="#ababab"/><stop offset="99%" stop-color="#737373"/><stop offset="99%" stop-color="#666"/></linearGradient><linearGradient id="j" x1="50%" x2="50%" y1="100%" y2="0%"><stop offset="0%" stop-color="#6b6b6b"/><stop offset="11%" stop-color="#767676"/><stop offset="30%" stop-color="#959595"/><stop offset="41%" stop-color="#aaa"/><stop offset="68%" stop-color="#acacac"/><stop offset="78%" stop-color="#b3b3b3"/><stop offset="85%" stop-color="#bebebe"/><stop offset="91%" stop-color="#cfcfcf"/><stop offset="95%" stop-color="#e5e5e5"/><stop offset="99%" stop-color="#f6f6f6"/><stop offset="99%" stop-color="#ededed"/><stop offset="99%" stop-color="#d4d4d4"/><stop offset="99%" stop-color="#adadad"/></linearGradient><linearGradient id="k" x1="100%" x2="0%" y1="50.019%" y2="50.019%"><stop offset="0%" stop-color="#6b6b6b"/><stop offset="11%" stop-color="#767676"/><stop offset="30%" stop-color="#959595"/><stop offset="41%" stop-color="#aaa"/><stop offset="56%" stop-color="#ccc"/><stop offset="71%" stop-color="#eaeaea"/><stop offset="80%" stop-color="#f6f6f6"/><stop offset="83%" stop-color="#ededed"/><stop offset="87%" stop-color="#d4d4d4"/><stop offset="92%" stop-color="#ababab"/><stop offset="98%" stop-color="#737373"/><stop offset="99%" stop-color="#666"/></linearGradient><linearGradient id="l" x1="100%" x2="0%" y1="49.981%" y2="49.981%"><stop offset="0%" stop-color="#6b6b6b"/><stop offset="11%" stop-color="#767676"/><stop offset="30%" stop-color="#959595"/><stop offset="41%" stop-color="#aaa"/><stop offset="56%" stop-color="#ccc"/><stop offset="71%" stop-color="#eaeaea"/><stop offset="80%" stop-color="#f6f6f6"/><stop offset="83%" stop-color="#ededed"/><stop offset="87%" stop-color="#d4d4d4"/><stop offset="92%" stop-color="#ababab"/><stop offset="98%" stop-color="#737373"/><stop offset="99%" stop-color="#666"/></linearGradient><linearGradient id="m" x1="100.962%" x2=".962%" y1="50.019%" y2="50.019%"><stop offset="0%" stop-color="#6b6b6b"/><stop offset="11%" stop-color="#767676"/><stop offset="30%" stop-color="#959595"/><stop offset="41%" stop-color="#aaa"/><stop offset="56%" stop-color="#ccc"/><stop offset="71%" stop-color="#eaeaea"/><stop offset="80%" stop-color="#f6f6f6"/><stop offset="83%" stop-color="#ededed"/><stop offset="87%" stop-color="#d4d4d4"/><stop offset="92%" stop-color="#ababab"/><stop offset="98%" stop-color="#737373"/><stop offset="99%" stop-color="#666"/></linearGradient><linearGradient id="n" x1="0%" x2="100%" y1="49.971%" y2="49.971%"><stop offset="0%" stop-color="#6b6b6b"/><stop offset="11%" stop-color="#767676"/><stop offset="30%" stop-color="#959595"/><stop offset="41%" stop-color="#aaa"/><stop offset="56%" stop-color="#ccc"/><stop offset="71%" stop-color="#eaeaea"/><stop offset="80%" stop-color="#f6f6f6"/><stop offset="83%" stop-color="#ededed"/><stop offset="87%" stop-color="#d4d4d4"/><stop offset="92%" stop-color="#ababab"/><stop offset="98%" stop-color="#737373"/><stop offset="99%" stop-color="#666"/></linearGradient><linearGradient id="o" x1="0%" x2="100%" y1="49.992%" y2="49.992%"><stop offset="0%" stop-color="#6b6b6b"/><stop offset="11%" stop-color="#767676"/><stop offset="30%" stop-color="#959595"/><stop offset="41%" stop-color="#aaa"/><stop offset="56%" stop-color="#ccc"/><stop offset="71%" stop-color="#eaeaea"/><stop offset="80%" stop-color="#f6f6f6"/><stop offset="83%" stop-color="#ededed"/><stop offset="87%" stop-color="#d4d4d4"/><stop offset="92%" stop-color="#ababab"/><stop offset="98%" stop-color="#737373"/><stop offset="99%" stop-color="#666"/></linearGradient><linearGradient id="p" x1="0%" x2="99.893%" y1="50%" y2="50%"><stop offset="0%" stop-color="#6b6b6b"/><stop offset="11%" stop-color="#767676"/><stop offset="30%" stop-color="#959595"/><stop offset="41%" stop-color="#aaa"/><stop offset="56%" stop-color="#ccc"/><stop offset="71%" stop-color="#eaeaea"/><stop offset="80%" stop-color="#f6f6f6"/><stop offset="83%" stop-color="#ededed"/><stop offset="87%" stop-color="#d4d4d4"/><stop offset="92%" stop-color="#ababab"/><stop offset="98%" stop-color="#737373"/><stop offset="99%" stop-color="#666"/></linearGradient><linearGradient id="q" x1="0%" x2="100%" y1="50%" y2="50%"><stop offset="0%" stop-color="#6b6b6b"/><stop offset="11%" stop-color="#767676"/><stop offset="30%" stop-color="#959595"/><stop offset="41%" stop-color="#aaa"/><stop offset="56%" stop-color="#ccc"/><stop offset="71%" stop-color="#eaeaea"/><stop offset="80%" stop-color="#f6f6f6"/><stop offset="83%" stop-color="#ededed"/><stop offset="87%" stop-color="#d4d4d4"/><stop offset="92%" stop-color="#ababab"/><stop offset="98%" stop-color="#737373"/><stop offset="99%" stop-color="#666"/></linearGradient><linearGradient id="r" x1="0%" x2="100%" y1="50%" y2="50%"><stop offset="0%" stop-color="#6b6b6b"/><stop offset="11%" stop-color="#767676"/><stop offset="30%" stop-color="#959595"/><stop offset="41%" stop-color="#aaa"/><stop offset="56%" stop-color="#ccc"/><stop offset="71%" stop-color="#eaeaea"/><stop offset="80%" stop-color="#f6f6f6"/><stop offset="83%" stop-color="#ededed"/><stop offset="87%" stop-color="#d4d4d4"/><stop offset="92%" stop-color="#ababab"/><stop offset="98%" stop-color="#737373"/><stop offset="99%" stop-color="#666"/></linearGradient><linearGradient id="s" x1="0%" x2="99.854%" y1="49.953%" y2="49.953%"><stop offset="0%" stop-color="#6b6b6b"/><stop offset="11%" stop-color="#767676"/><stop offset="30%" stop-color="#959595"/><stop offset="41%" stop-color="#aaa"/><stop offset="56%" stop-color="#ccc"/><stop offset="71%" stop-color="#eaeaea"/><stop offset="80%" stop-color="#f6f6f6"/><stop offset="83%" stop-color="#ededed"/><stop offset="87%" stop-color="#d4d4d4"/><stop offset="92%" stop-color="#ababab"/><stop offset="98%" stop-color="#737373"/><stop offset="99%" stop-color="#666"/></linearGradient><linearGradient id="t" x1="50%" x2="50%" y1="100.057%" y2=".057%"><stop offset="0%" stop-color="#6b6b6b"/><stop offset="11%" stop-color="#767676"/><stop offset="30%" stop-color="#959595"/><stop offset="41%" stop-color="#aaa"/><stop offset="56%" stop-color="#ccc"/><stop offset="71%" stop-color="#eaeaea"/><stop offset="80%" stop-color="#f6f6f6"/><stop offset="83%" stop-color="#ededed"/><stop offset="87%" stop-color="#d4d4d4"/><stop offset="92%" stop-color="#ababab"/><stop offset="98%" stop-color="#737373"/><stop offset="99%" stop-color="#666"/></linearGradient><linearGradient id="u" x1="49.275%" x2="49.275%" y1="99.967%" y2="0%"><stop offset="0%" stop-color="#6b6b6b"/><stop offset="11%" stop-color="#767676"/><stop offset="30%" stop-color="#959595"/><stop offset="41%" stop-color="#aaa"/><stop offset="56%" stop-color="#ccc"/><stop offset="71%" stop-color="#eaeaea"/><stop offset="80%" stop-color="#f6f6f6"/><stop offset="83%" stop-color="#ededed"/><stop offset="87%" stop-color="#d4d4d4"/><stop offset="92%" stop-color="#ababab"/><stop offset="98%" stop-color="#737373"/><stop offset="99%" stop-color="#666"/></linearGradient><linearGradient id="v" x1="49.275%" x2="49.275%" y1="99.967%" y2="-.033%"><stop offset="0%" stop-color="#6b6b6b"/><stop offset="11%" stop-color="#767676"/><stop offset="30%" stop-color="#959595"/><stop offset="41%" stop-color="#aaa"/><stop offset="56%" stop-color="#ccc"/><stop offset="71%" stop-color="#eaeaea"/><stop offset="80%" stop-color="#f6f6f6"/><stop offset="83%" stop-color="#ededed"/><stop offset="87%" stop-color="#d4d4d4"/><stop offset="92%" stop-color="#ababab"/><stop offset="98%" stop-color="#737373"/><stop offset="99%" stop-color="#666"/></linearGradient><linearGradient id="w" x1="50%" x2="50%" y1="99.965%" y2="-.035%"><stop offset="0%" stop-color="#6b6b6b"/><stop offset="11%" stop-color="#767676"/><stop offset="30%" stop-color="#959595"/><stop offset="41%" stop-color="#aaa"/><stop offset="56%" stop-color="#ccc"/><stop offset="71%" stop-color="#eaeaea"/><stop offset="80%" stop-color="#f6f6f6"/><stop offset="83%" stop-color="#ededed"/><stop offset="87%" stop-color="#d4d4d4"/><stop offset="92%" stop-color="#ababab"/><stop offset="98%" stop-color="#737373"/><stop offset="99%" stop-color="#666"/></linearGradient></defs><g fill="none" fill-rule="nonzero" transform="translate(.02 .049)"><path fill="url(#a)" d="M32.01-1.4h16.95v61.33H32.01z" transform="rotate(90 40.485 29.265)"/><path fill="url(#b)" d="M30.615 14.475h17.47v59.06h-17.47z" transform="rotate(90 39.35 44.005)"/><path fill="url(#c)" d="M61.31 28.08h21.95v6.83H61.31z" transform="rotate(90 72.285 31.495)"/><path fill="url(#d)" d="M43.465 10.685h14.3v39.93h-14.3z" transform="rotate(90 50.615 30.65)"/><path fill="url(#e)" d="M63.9 30.81h25.45v1.83H63.9z" transform="rotate(90 76.625 31.725)"/><path fill="url(#f)" d="M77.53 46.12V16.54h39.93s6.46 1.8 6.46 14.79c0 13.37-6.46 14.79-6.46 14.79z"/><path fill="url(#g)" d="M75.695 17.605h2.22v1.47h-2.22z" transform="rotate(90 76.805 18.34)"/><path fill="url(#h)" d="M75.685 26.355h2.22v1.47h-2.22z" transform="rotate(90 76.795 27.09)"/><path fill="url(#h)" d="M75.685 35.165h2.22v1.47h-2.22z" transform="rotate(90 76.795 35.9)"/><path fill="url(#h)" d="M75.685 43.975h2.22v1.47h-2.22z" transform="rotate(90 76.795 44.71)"/><path fill="url(#i)" d="M31.635-17.745h15.74v61.33h-15.74z" transform="rotate(90 39.505 12.92)"/><path fill="#595757" d="M149.9 53.31v34.42H0V53.31z"/><path fill="url(#j)" d="M36.98 14.22h4.74v59.06h-4.74z" transform="rotate(90 39.35 43.75)"/><path fill="#c3c3c3" d="M102.92 1.57v1.84h-25.1V1.57zM108.78 46.3v3.69H83.19V46.3zM97.69 3.42v9.51H81.45V3.42z"/><path fill="#939393" d="M96.5 12.9v1H82.66v-1z"/><path fill="url(#k)" d="M95.665 8.455h1.04v26.95h-1.04z" transform="rotate(90 96.185 21.93)"/><path fill="url(#l)" d="M95.655 10.545h1.04v26.95h-1.04z" transform="rotate(90 96.175 24.02)"/><path fill="url(#k)" d="M95.665 12.645h1.04v26.95h-1.04z" transform="rotate(90 96.185 26.12)"/><path fill="url(#k)" d="M95.665 14.735h1.04v26.95h-1.04z" transform="rotate(90 96.185 28.21)"/><path fill="url(#l)" d="M95.655 16.825h1.04v26.95h-1.04z" transform="rotate(90 96.175 30.3)"/><path fill="url(#k)" d="M95.665 18.925h1.04v26.95h-1.04z" transform="rotate(90 96.185 32.4)"/><path fill="url(#k)" d="M95.665 21.015h1.04v26.95h-1.04z" transform="rotate(90 96.185 34.49)"/><path fill="url(#l)" d="M95.655 23.105h1.04v26.95h-1.04z" transform="rotate(90 96.175 36.58)"/><path fill="url(#k)" d="M95.665 25.205h1.04v26.95h-1.04z" transform="rotate(90 96.185 38.68)"/><path fill="url(#k)" d="M95.665 27.295h1.04v26.95h-1.04z" transform="rotate(90 96.185 40.77)"/><path fill="url(#l)" d="M95.655 29.385h1.04v26.95h-1.04z" transform="rotate(90 96.175 42.86)"/><path fill="url(#l)" d="M95.655 31.745h1.04v26.95h-1.04z" transform="rotate(90 96.175 45.22)"/><path fill="url(#m)" d="M95.605 4.335h1.04v26.95h-1.04z" transform="rotate(90 96.125 17.81)"/><path fill="url(#m)" d="M95.605 6.485h1.04v26.95h-1.04z" transform="rotate(90 96.125 19.96)"/><path fill="#e6e6e6" d="M108.79 50v1.49H83.2V50zM108.79 44.33v1.86H83.2v-1.86z"/><path fill="#c3c3c3" d="M70.17 20.47v1H9.81v-1zM70.67 23.35v1H30.46v-1z"/><path fill="url(#n)" d="M31.99 20.79h3.36V37.8h-3.36z"/><path fill="url(#o)" d="M37.675 10.165h3.58v58.83h-3.58z" transform="rotate(90 39.465 39.58)"/><path fill="url(#p)" d="M10.32 25.05h9.34v9.88h-9.34z" transform="rotate(90 14.99 29.99)"/><rect width="10.37" height="1.98" x="3.875" y="29.125" fill="url(#q)" rx=".26" transform="rotate(90 9.06 30.115)"/><rect width="17.81" height="1.98" x="-1.045" y="12.065" fill="url(#r)" rx=".26" transform="rotate(90 7.86 13.055)"/><path fill="url(#s)" d="M21.88 24.66h6.83v10.73h-6.83z" transform="rotate(90 25.295 30.025)"/><rect width="1.1" height="17.61" x="89.025" y="-.915" fill="url(#t)" rx=".14" transform="rotate(90 89.575 7.89)"/><path fill="url(#u)" d="M80.35 16.44h1v30.03h-1z" transform="matrix(-1 0 0 -1 161.39 62.91)"/><path fill="#e6e6e6" d="M110.25 46.5h-1V16.47h1z"/><path fill="url(#v)" d="M116.75 16.47h1V46.5h-1z" transform="matrix(-1 0 0 -1 234.19 62.97)"/><rect width="1.1" height="17.61" x="89.025" y="-2.245" fill="url(#t)" rx=".14" transform="rotate(90 89.575 6.56)"/><rect width="1.58" height="28.68" x="89.61" y="-13.55" fill="url(#w)" rx=".14" transform="rotate(90 90.4 .79)"/><path fill="#c3c3c3" d="M96.47 13.54v4.65H82.63v-4.65z"/><path fill="#e6e6e6" d="M32.81 57.98v25.1H6.04v-25.1zM69.23 57.97v25.1H42.46v-25.1zM106.61 57.97v25.1H79.84v-25.1zM143.84 57.98v25.1h-26.77v-25.1z"/></g></svg>