<svg xmlns="http://www.w3.org/2000/svg" viewBox="0 0 151 60"><title>Electrolyzer（电解槽）</title><defs><linearGradient id="a" x1="50%" x2="50%" y1="100%" y2="0%"><stop offset="0%" stop-color="#6b6b6b"/><stop offset="11%" stop-color="#767676"/><stop offset="30%" stop-color="#959595"/><stop offset="41%" stop-color="#aaa"/><stop offset="56%" stop-color="#ccc"/><stop offset="71%" stop-color="#eaeaea"/><stop offset="80%" stop-color="#f6f6f6"/><stop offset="83%" stop-color="#ededed"/><stop offset="87%" stop-color="#d4d4d4"/><stop offset="92%" stop-color="#ababab"/><stop offset="98%" stop-color="#737373"/><stop offset="99%" stop-color="#666"/></linearGradient><linearGradient id="b" x1="50.078%" x2="50.078%" y1="100%" y2="0%"><stop offset="0%" stop-color="#6b6b6b"/><stop offset="11%" stop-color="#767676"/><stop offset="30%" stop-color="#959595"/><stop offset="41%" stop-color="#aaa"/><stop offset="56%" stop-color="#ccc"/><stop offset="71%" stop-color="#eaeaea"/><stop offset="80%" stop-color="#f6f6f6"/><stop offset="83%" stop-color="#ededed"/><stop offset="87%" stop-color="#d4d4d4"/><stop offset="92%" stop-color="#ababab"/><stop offset="98%" stop-color="#737373"/><stop offset="99%" stop-color="#666"/></linearGradient><linearGradient id="c" x1="49.951%" x2="49.951%" y1="100%" y2="0%"><stop offset="0%" stop-color="#6b6b6b"/><stop offset="11%" stop-color="#767676"/><stop offset="30%" stop-color="#959595"/><stop offset="41%" stop-color="#aaa"/><stop offset="56%" stop-color="#ccc"/><stop offset="71%" stop-color="#eaeaea"/><stop offset="80%" stop-color="#f6f6f6"/><stop offset="83%" stop-color="#ededed"/><stop offset="87%" stop-color="#d4d4d4"/><stop offset="92%" stop-color="#ababab"/><stop offset="98%" stop-color="#737373"/><stop offset="99%" stop-color="#666"/></linearGradient></defs><g fill="none" fill-rule="nonzero"><path fill="#bbb" d="M84.89 6.319H62.65L54.06.049l-7.71 8.84 18.42 3.26.06-1.2h20.06z"/><path fill="#4f4d4d" d="M43.59 8.639h43.33v4.63H43.59z"/><path fill="#424242" d="M129.08 45.069v-32.92H.01v42.24h145.4v-9.32z"/><path fill="#c1c1c1" d="M9.41 19.419h113.61v29.08H9.41z"/><path fill="#4f4d4d" d="M.01 54.389h145.4v5.45H.01z"/><path fill="url(#a)" d="M129.15 14.52h4.3V43.1h-4.3z" transform="translate(.01 .049)"/><path fill="url(#b)" d="M133.45 17.59h6.39v22.33h-6.39z" transform="translate(.01 .049)"/><path fill="url(#c)" d="m150 36.29-10.15 1.28V20.02L150 21.16z" transform="translate(.01 .049)"/></g></svg>