<svg xmlns="http://www.w3.org/2000/svg" viewBox="0 0 151 117"><title>Generator（发电机）</title><defs><linearGradient id="a" x1="0%" x2="100%" y1="50%" y2="50%"><stop offset="0%" stop-color="#6b6b6b"/><stop offset="1%" stop-color="#767676"/><stop offset="3%" stop-color="#959595"/><stop offset="4%" stop-color="#aaa"/><stop offset="37%" stop-color="#ccc"/><stop offset="74%" stop-color="#eaeaea"/><stop offset="94%" stop-color="#f6f6f6"/><stop offset="95%" stop-color="#ededed"/><stop offset="96%" stop-color="#d4d4d4"/><stop offset="97%" stop-color="#ababab"/><stop offset="99%" stop-color="#737373"/><stop offset="99%" stop-color="#666"/></linearGradient><linearGradient id="b" x1="0%" x2="100%" y1="50.016%" y2="50.016%"><stop offset="0%" stop-color="#6b6b6b"/><stop offset="1%" stop-color="#767676"/><stop offset="3%" stop-color="#959595"/><stop offset="4%" stop-color="#aaa"/><stop offset="37%" stop-color="#ccc"/><stop offset="74%" stop-color="#eaeaea"/><stop offset="94%" stop-color="#f6f6f6"/><stop offset="95%" stop-color="#ededed"/><stop offset="96%" stop-color="#d4d4d4"/><stop offset="97%" stop-color="#ababab"/><stop offset="99%" stop-color="#737373"/><stop offset="99%" stop-color="#666"/></linearGradient><linearGradient id="c" x1="50.015%" x2="50.015%" y1="100%" y2="0%"><stop offset="0%" stop-color="#6b6b6b"/><stop offset="1%" stop-color="#767676"/><stop offset="3%" stop-color="#959595"/><stop offset="4%" stop-color="#aaa"/><stop offset="37%" stop-color="#ccc"/><stop offset="74%" stop-color="#eaeaea"/><stop offset="94%" stop-color="#f6f6f6"/><stop offset="95%" stop-color="#ededed"/><stop offset="96%" stop-color="#d4d4d4"/><stop offset="97%" stop-color="#ababab"/><stop offset="99%" stop-color="#737373"/><stop offset="99%" stop-color="#666"/></linearGradient><linearGradient id="d" x1="50%" x2="50%" y1="100%" y2="0%"><stop offset="0%" stop-color="#6b6b6b"/><stop offset="1%" stop-color="#767676"/><stop offset="3%" stop-color="#959595"/><stop offset="4%" stop-color="#aaa"/><stop offset="37%" stop-color="#ccc"/><stop offset="74%" stop-color="#eaeaea"/><stop offset="94%" stop-color="#f6f6f6"/><stop offset="95%" stop-color="#ededed"/><stop offset="96%" stop-color="#d4d4d4"/><stop offset="97%" stop-color="#ababab"/><stop offset="99%" stop-color="#737373"/><stop offset="99%" stop-color="#666"/></linearGradient><linearGradient id="e" x1="50%" x2="50%" y1="100%" y2="0%"><stop offset="0%" stop-color="#6b6b6b"/><stop offset="11%" stop-color="#767676"/><stop offset="30%" stop-color="#959595"/><stop offset="41%" stop-color="#aaa"/><stop offset="56%" stop-color="#ccc"/><stop offset="71%" stop-color="#eaeaea"/><stop offset="80%" stop-color="#f6f6f6"/><stop offset="83%" stop-color="#ededed"/><stop offset="87%" stop-color="#d4d4d4"/><stop offset="92%" stop-color="#ababab"/><stop offset="98%" stop-color="#737373"/><stop offset="99%" stop-color="#666"/></linearGradient><linearGradient id="f" x1="50.073%" x2="50.073%" y1="100.043%" y2="0%"><stop offset="0%" stop-color="#6b6b6b"/><stop offset="11%" stop-color="#767676"/><stop offset="30%" stop-color="#959595"/><stop offset="41%" stop-color="#aaa"/><stop offset="56%" stop-color="#ccc"/><stop offset="71%" stop-color="#eaeaea"/><stop offset="80%" stop-color="#f6f6f6"/><stop offset="83%" stop-color="#ededed"/><stop offset="87%" stop-color="#d4d4d4"/><stop offset="92%" stop-color="#ababab"/><stop offset="98%" stop-color="#737373"/><stop offset="99%" stop-color="#666"/></linearGradient><linearGradient id="g" x1="50.028%" x2="50.028%" y1="100%" y2="0%"><stop offset="0%" stop-color="#6b6b6b"/><stop offset="11%" stop-color="#767676"/><stop offset="30%" stop-color="#959595"/><stop offset="41%" stop-color="#aaa"/><stop offset="56%" stop-color="#ccc"/><stop offset="71%" stop-color="#eaeaea"/><stop offset="80%" stop-color="#f6f6f6"/><stop offset="83%" stop-color="#ededed"/><stop offset="87%" stop-color="#d4d4d4"/><stop offset="92%" stop-color="#ababab"/><stop offset="98%" stop-color="#737373"/><stop offset="99%" stop-color="#666"/></linearGradient><linearGradient id="h" x1="50.02%" x2="50.02%" y1="100%" y2="0%"><stop offset="0%" stop-color="#6b6b6b"/><stop offset="11%" stop-color="#767676"/><stop offset="30%" stop-color="#959595"/><stop offset="41%" stop-color="#aaa"/><stop offset="56%" stop-color="#ccc"/><stop offset="71%" stop-color="#eaeaea"/><stop offset="80%" stop-color="#f6f6f6"/><stop offset="83%" stop-color="#ededed"/><stop offset="87%" stop-color="#d4d4d4"/><stop offset="92%" stop-color="#ababab"/><stop offset="98%" stop-color="#737373"/><stop offset="99%" stop-color="#666"/></linearGradient><linearGradient id="i" x1="49.965%" x2="49.965%" y1="100%" y2="0%"><stop offset="0%" stop-color="#6b6b6b"/><stop offset="11%" stop-color="#767676"/><stop offset="30%" stop-color="#959595"/><stop offset="41%" stop-color="#aaa"/><stop offset="56%" stop-color="#ccc"/><stop offset="71%" stop-color="#eaeaea"/><stop offset="80%" stop-color="#f6f6f6"/><stop offset="83%" stop-color="#ededed"/><stop offset="87%" stop-color="#d4d4d4"/><stop offset="92%" stop-color="#ababab"/><stop offset="98%" stop-color="#737373"/><stop offset="99%" stop-color="#666"/></linearGradient><linearGradient id="j" x1="50.164%" x2="50.164%" y1="100%" y2="0%"><stop offset="0%" stop-color="#6b6b6b"/><stop offset="11%" stop-color="#767676"/><stop offset="30%" stop-color="#959595"/><stop offset="41%" stop-color="#aaa"/><stop offset="56%" stop-color="#ccc"/><stop offset="71%" stop-color="#eaeaea"/><stop offset="80%" stop-color="#f6f6f6"/><stop offset="83%" stop-color="#ededed"/><stop offset="87%" stop-color="#d4d4d4"/><stop offset="92%" stop-color="#ababab"/><stop offset="98%" stop-color="#737373"/><stop offset="99%" stop-color="#666"/></linearGradient></defs><g fill="none" fill-rule="evenodd" transform="translate(.26 .299)"><path stroke="#3b3a3a" stroke-width=".5" d="M0 0h150v116H0z"/><path fill="url(#a)" fill-rule="nonzero" d="M5.05 14.06h137.97v25.48H5.05z"/><path fill="url(#b)" fill-rule="nonzero" d="M1.65 40.31h145.77V72.5H1.65z"/><path fill="#c6c6c6" fill-rule="nonzero" d="M1.65 35.26h145.77v5.05H1.65zm0 37.24h145.77v5.05H1.65z"/><path fill="url(#c)" fill-rule="nonzero" d="M73.68 77.55h32.87v31.97H73.68z"/><path fill="url(#d)" fill-rule="nonzero" d="M106.55 78.76h14.94v28.56h-14.94z"/><path fill="url(#e)" fill-rule="nonzero" d="M121.49 77.55h10.96v31.61h-10.96z"/><path fill="url(#f)" fill-rule="nonzero" d="M66.87 79.8h6.81v23.34h-6.81z"/><path fill="url(#g)" fill-rule="nonzero" d="M45.67 77.55h18.15v29.33H45.67z"/><path fill="url(#h)" fill-rule="nonzero" d="M20.98 77.55h24.69v28.56H20.98z"/><path fill="#000" fill-rule="nonzero" d="M9.67 42.29h56.68v27.68H9.67zm64.13 0h67.13v27.68H73.8z"/><path fill="url(#i)" fill-rule="nonzero" d="M8.11 77.55h12.87v29.33H8.11c-.85 0-1.54-.69-1.54-1.54V79.1a1.54 1.54 0 0 1 1.54-1.55"/><path fill="url(#j)" fill-rule="nonzero" d="M63.82 77.55h3.05v31.97h-3.05z"/><path fill="#fff" fill-rule="nonzero" d="M12.47 46.91h16.36v20.44H12.47zm19.28 0h32.07v12.3H31.75zm60.64-1.47h14.19v22.82H92.39zm16.09.6h25.86v18.94h-25.86z"/><path fill="#000" fill-rule="nonzero" d="M13.39 49.68h14.5v16.36h-14.5zm79.82-.52h12.3v17.2h-12.3zm16.75-.66h22.48v15.15h-22.48z"/><path fill="#595757" fill-rule="nonzero" d="M21.64 59.48h4.23v3.84h-4.23zm78.23-.65h4.54v5.1h-4.54z"/><path fill="#fff" fill-rule="nonzero" d="M31.75 62.2h14.91v5.32H31.75zm17.16 0h14.91v5.32H48.91zm28.65-12.24h10.38v9.69H77.56z"/><rect width="29.38" height="9.19" x="32.84" y="49.14" fill="#000" fill-rule="nonzero" rx=".33"/><path fill="#c6c6c6" fill-rule="nonzero" d="M33.2 53.17h27.95v1H33.2z"/><path fill="#c6c6c6" fill-rule="nonzero" d="M46.66 53.73h1v3.63h-1z"/></g></svg>