<svg xmlns="http://www.w3.org/2000/svg" viewBox="0 0 81 150"><title>Meter gauge（仪表）</title><defs><linearGradient id="a" x1="0%" x2="99.929%" y1="49.976%" y2="49.976%"><stop offset="0%" stop-color="#e2e2e2"/><stop offset="3%" stop-color="#d0d0d0"/><stop offset="6%" stop-color="#bcbcbc"/><stop offset="9%" stop-color="#b5b5b5"/><stop offset="49%" stop-color="#f6f6f6"/><stop offset="63%" stop-color="#f3f3f3"/><stop offset="73%" stop-color="#eaeaea"/><stop offset="82%" stop-color="#dbdbdb"/><stop offset="90%" stop-color="#c6c6c6"/><stop offset="97%" stop-color="#aaa"/><stop offset="100%" stop-color="#9b9b9b"/></linearGradient><linearGradient id="b" x1="0%" x2="100%" y1="50.189%" y2="50.189%"><stop offset="0%" stop-color="#e2e2e2"/><stop offset="3%" stop-color="#d0d0d0"/><stop offset="6%" stop-color="#bcbcbc"/><stop offset="9%" stop-color="#b5b5b5"/><stop offset="49%" stop-color="#f6f6f6"/><stop offset="63%" stop-color="#f3f3f3"/><stop offset="73%" stop-color="#eaeaea"/><stop offset="82%" stop-color="#dbdbdb"/><stop offset="90%" stop-color="#c6c6c6"/><stop offset="97%" stop-color="#aaa"/><stop offset="100%" stop-color="#9b9b9b"/></linearGradient><linearGradient id="c" x1="49.93%" x2="49.93%" y1="98.925%" y2="0%"><stop offset="0%" stop-color="#e2e2e2"/><stop offset="3%" stop-color="#d0d0d0"/><stop offset="6%" stop-color="#bcbcbc"/><stop offset="9%" stop-color="#b5b5b5"/><stop offset="49%" stop-color="#f6f6f6"/><stop offset="63%" stop-color="#f3f3f3"/><stop offset="73%" stop-color="#eaeaea"/><stop offset="82%" stop-color="#dbdbdb"/><stop offset="90%" stop-color="#c6c6c6"/><stop offset="97%" stop-color="#aaa"/><stop offset="100%" stop-color="#9b9b9b"/></linearGradient><linearGradient id="d" x1="49.93%" x2="49.93%" y1="100%" y2="0%"><stop offset="0%" stop-color="#e2e2e2"/><stop offset="3%" stop-color="#d0d0d0"/><stop offset="6%" stop-color="#bcbcbc"/><stop offset="9%" stop-color="#b5b5b5"/><stop offset="49%" stop-color="#f6f6f6"/><stop offset="63%" stop-color="#f3f3f3"/><stop offset="73%" stop-color="#eaeaea"/><stop offset="82%" stop-color="#dbdbdb"/><stop offset="90%" stop-color="#c6c6c6"/><stop offset="97%" stop-color="#aaa"/><stop offset="100%" stop-color="#9b9b9b"/></linearGradient><linearGradient id="e" x1="0%" x2="99.929%" y1="5388.554%" y2="5388.554%"><stop offset="0%" stop-color="#e2e2e2"/><stop offset="3%" stop-color="#d0d0d0"/><stop offset="6%" stop-color="#bcbcbc"/><stop offset="9%" stop-color="#b5b5b5"/><stop offset="49%" stop-color="#f6f6f6"/><stop offset="63%" stop-color="#f3f3f3"/><stop offset="73%" stop-color="#eaeaea"/><stop offset="82%" stop-color="#dbdbdb"/><stop offset="90%" stop-color="#c6c6c6"/><stop offset="97%" stop-color="#aaa"/><stop offset="100%" stop-color="#9b9b9b"/></linearGradient><linearGradient id="f" x1="0%" x2="100%" y1="49.811%" y2="49.811%"><stop offset="0%" stop-color="#e2e2e2"/><stop offset="3%" stop-color="#d0d0d0"/><stop offset="6%" stop-color="#bcbcbc"/><stop offset="9%" stop-color="#b5b5b5"/><stop offset="49%" stop-color="#f6f6f6"/><stop offset="63%" stop-color="#f3f3f3"/><stop offset="73%" stop-color="#eaeaea"/><stop offset="82%" stop-color="#dbdbdb"/><stop offset="90%" stop-color="#c6c6c6"/><stop offset="97%" stop-color="#aaa"/><stop offset="100%" stop-color="#9b9b9b"/></linearGradient><linearGradient id="g" x1="50%" x2="50%" y1="100%" y2="0%"><stop offset="0%" stop-color="#e2e2e2"/><stop offset="3%" stop-color="#d0d0d0"/><stop offset="6%" stop-color="#bcbcbc"/><stop offset="9%" stop-color="#b5b5b5"/><stop offset="49%" stop-color="#f6f6f6"/><stop offset="63%" stop-color="#f3f3f3"/><stop offset="73%" stop-color="#eaeaea"/><stop offset="82%" stop-color="#dbdbdb"/><stop offset="90%" stop-color="#c6c6c6"/><stop offset="97%" stop-color="#aaa"/><stop offset="100%" stop-color="#9b9b9b"/></linearGradient><linearGradient id="h" x1="50%" x2="50%" y1="98.925%" y2="0%"><stop offset="0%" stop-color="#e2e2e2"/><stop offset="3%" stop-color="#d0d0d0"/><stop offset="6%" stop-color="#bcbcbc"/><stop offset="9%" stop-color="#b5b5b5"/><stop offset="49%" stop-color="#f6f6f6"/><stop offset="63%" stop-color="#f3f3f3"/><stop offset="73%" stop-color="#eaeaea"/><stop offset="82%" stop-color="#dbdbdb"/><stop offset="90%" stop-color="#c6c6c6"/><stop offset="97%" stop-color="#aaa"/><stop offset="100%" stop-color="#9b9b9b"/></linearGradient><linearGradient id="i" x1="0%" x2="100%" y1="50%" y2="50%"><stop offset="0%" stop-color="#e2e2e2"/><stop offset="3%" stop-color="#d0d0d0"/><stop offset="6%" stop-color="#bcbcbc"/><stop offset="9%" stop-color="#b5b5b5"/><stop offset="49%" stop-color="#f6f6f6"/><stop offset="63%" stop-color="#f3f3f3"/><stop offset="73%" stop-color="#eaeaea"/><stop offset="82%" stop-color="#dbdbdb"/><stop offset="90%" stop-color="#c6c6c6"/><stop offset="97%" stop-color="#aaa"/><stop offset="100%" stop-color="#9b9b9b"/></linearGradient></defs><g fill="none" fill-rule="evenodd" transform="translate(.01 .049)"><path fill="url(#a)" fill-rule="nonzero" d="M33.32 78.23H47.5v21.23H33.32z"/><circle cx="40.4" cy="39.84" r="36.39" fill="#fff" fill-rule="nonzero"/><path fill="#eaeaea" fill-rule="nonzero" d="M4 39.84A36.35 36.35 0 0 0 19.91 69.9a38.4 38.4 0 0 0 5.4.43c21.54 0 39-17.76 39-39.67a39.83 39.83 0 0 0-7.45-23.25A36.34 36.34 0 0 0 4 39.84"/><path fill="#7f7f7f" fill-rule="nonzero" d="M40.4 0C18.397 0 .56 17.837.56 39.84S18.397 79.68 40.4 79.68s39.84-17.837 39.84-39.84A39.83 39.83 0 0 0 40.4 0m0 76.23a36.4 36.4 0 1 1 36.4-36.39c-.006 20.1-16.3 36.39-36.4 36.39"/><path fill="#7f7f7f" fill-rule="nonzero" d="M32.92 63.24h14.97v7.35H32.92z"/><path stroke="#dedede" stroke-width=".1" d="M33.76 64.2h13.29v5.44H33.76z"/><circle cx="40.4" cy="39.84" r="34.93" fill="#c1c1c1" fill-rule="nonzero" opacity=".51"/><path fill="url(#b)" fill-rule="nonzero" d="M35.74 99.46h9.4v2.65h-9.4z"/><path fill="#b4b5b5" fill-rule="nonzero" d="M31.61 102.11h5.46v23h-5.46z"/><path fill="#eee" fill-rule="nonzero" d="M43.96 102.11h5.46v23h-5.46z"/><path fill="url(#c)" fill-rule="nonzero" d="M33.22 88.34H47.6v1H33.22z"/><path fill="url(#d)" fill-rule="nonzero" d="M33.22 90.67H47.6v1H33.22z"/><path fill="url(#c)" fill-rule="nonzero" d="M33.22 92.86H47.6v1H33.22z"/><path fill="url(#d)" fill-rule="nonzero" d="M33.22 94.89H47.6v1H33.22z"/><path fill="url(#d)" fill-rule="nonzero" d="M33.22 96.85H47.6v1H33.22z"/><path fill="url(#e)" fill-rule="nonzero" d="M33.36 125.15h14.18v21.23H33.36z"/><path fill="url(#f)" fill-rule="nonzero" d="M38.32 146.39h4.24v2.65h-4.24z"/><path fill="url(#g)" fill-rule="nonzero" d="M33.25 135.26h14.38v1H33.25z"/><path fill="url(#h)" fill-rule="nonzero" d="M33.25 137.6h14.38v1H33.25z"/><path fill="url(#g)" fill-rule="nonzero" d="M33.25 139.78h14.38v1H33.25z"/><path fill="url(#g)" fill-rule="nonzero" d="M33.25 141.82h14.38v1H33.25z"/><path fill="url(#g)" fill-rule="nonzero" d="M33.25 143.78h14.38v1H33.25z"/><path fill="#7f7f7f" fill-rule="nonzero" d="M49.11 53.79 53 49.87a1.51 1.51 0 0 0 0-2.14 1.5 1.5 0 0 0-.21-.14h-.12a1 1 0 0 0-.33-.16 26.8 26.8 0 0 1-6.5-4.25C40.62 38.06 20.66 16.5 20.66 16.5S38.8 39.34 43.77 46.43a30.2 30.2 0 0 1 2.8 6.57 2 2 0 0 0 .13.42v.06q.082.192.23.34a1.5 1.5 0 0 0 2.18-.03"/><circle cx="41.63" cy="40.29" r="3.15" fill="#7f7f7f" fill-rule="nonzero"/><path stroke="#7f7f7f" stroke-width=".25" d="m56.05 10.94-2.58 4.84m-27.64-4.84 2.57 4.84M8.37 35.53l5.43.78m60.06-.94-5.44.77"/><circle cx="41.63" cy="40.29" r="1.8" fill="#dedede" fill-rule="nonzero"/><path fill="#cdcece" fill-rule="nonzero" d="M35.74 102.11h9.4v23h-9.4z"/><path fill="url(#i)" fill-rule="nonzero" d="M0 108.96h79.67v9.34H0z"/></g></svg>