<svg xmlns="http://www.w3.org/2000/svg" viewBox="0 0 100 151"><title>Meter（仪表）</title><defs><linearGradient id="a" x1="49.964%" x2="49.964%" y1="100%" y2="0%"><stop offset="0%" stop-color="#6b6b6b"/><stop offset="1%" stop-color="#767676"/><stop offset="3%" stop-color="#959595"/><stop offset="4%" stop-color="#aaa"/><stop offset="37%" stop-color="#ccc"/><stop offset="74%" stop-color="#eaeaea"/><stop offset="94%" stop-color="#f6f6f6"/><stop offset="95%" stop-color="#ededed"/><stop offset="96%" stop-color="#d4d4d4"/><stop offset="97%" stop-color="#ababab"/><stop offset="99%" stop-color="#737373"/><stop offset="99%" stop-color="#666"/></linearGradient><linearGradient id="b" x1="50%" x2="50%" y1="100%" y2="0%"><stop offset="0%" stop-color="#6b6b6b"/><stop offset="1%" stop-color="#767676"/><stop offset="3%" stop-color="#959595"/><stop offset="4%" stop-color="#aaa"/><stop offset="37%" stop-color="#ccc"/><stop offset="74%" stop-color="#eaeaea"/><stop offset="94%" stop-color="#f6f6f6"/><stop offset="95%" stop-color="#ededed"/><stop offset="96%" stop-color="#d4d4d4"/><stop offset="97%" stop-color="#ababab"/><stop offset="99%" stop-color="#737373"/><stop offset="99%" stop-color="#666"/></linearGradient><linearGradient id="c" x1=".001%" x2="100%" y1="50.005%" y2="50.005%"><stop offset="0%" stop-color="#6b6b6b"/><stop offset="11%" stop-color="#767676"/><stop offset="30%" stop-color="#959595"/><stop offset="41%" stop-color="#aaa"/><stop offset="68%" stop-color="#acacac"/><stop offset="78%" stop-color="#b3b3b3"/><stop offset="85%" stop-color="#bebebe"/><stop offset="91%" stop-color="#cfcfcf"/><stop offset="95%" stop-color="#e5e5e5"/><stop offset="99%" stop-color="#f6f6f6"/><stop offset="99%" stop-color="#ededed"/><stop offset="99%" stop-color="#d4d4d4"/><stop offset="99%" stop-color="#adadad"/></linearGradient><linearGradient id="d" x1="50%" x2="50%" y1="99.99%" y2="-.01%"><stop offset="0%" stop-color="#6b6b6b"/><stop offset="1%" stop-color="#767676"/><stop offset="3%" stop-color="#959595"/><stop offset="4%" stop-color="#aaa"/><stop offset="37%" stop-color="#ccc"/><stop offset="74%" stop-color="#eaeaea"/><stop offset="94%" stop-color="#f6f6f6"/><stop offset="95%" stop-color="#ededed"/><stop offset="96%" stop-color="#d4d4d4"/><stop offset="97%" stop-color="#ababab"/><stop offset="99%" stop-color="#737373"/><stop offset="99%" stop-color="#666"/></linearGradient><linearGradient id="e" x1="0%" x2="100.221%" y1="50%" y2="50%"><stop offset="0%" stop-color="#e2e2e2"/><stop offset="3%" stop-color="#d0d0d0"/><stop offset="6%" stop-color="#bcbcbc"/><stop offset="9%" stop-color="#b5b5b5"/><stop offset="49%" stop-color="#f6f6f6"/><stop offset="63%" stop-color="#f3f3f3"/><stop offset="73%" stop-color="#eaeaea"/><stop offset="82%" stop-color="#dbdbdb"/><stop offset="90%" stop-color="#c6c6c6"/><stop offset="97%" stop-color="#aaa"/><stop offset="100%" stop-color="#9b9b9b"/></linearGradient><linearGradient id="f" x1="0%" x2="100%" y1="50%" y2="50%"><stop offset="0%" stop-color="#e2e2e2"/><stop offset="3%" stop-color="#d0d0d0"/><stop offset="6%" stop-color="#bcbcbc"/><stop offset="9%" stop-color="#b5b5b5"/><stop offset="49%" stop-color="#f6f6f6"/><stop offset="63%" stop-color="#f3f3f3"/><stop offset="73%" stop-color="#eaeaea"/><stop offset="82%" stop-color="#dbdbdb"/><stop offset="90%" stop-color="#c6c6c6"/><stop offset="97%" stop-color="#aaa"/><stop offset="100%" stop-color="#9b9b9b"/></linearGradient><linearGradient id="g" x1="0%" x2="100.221%" y1="50%" y2="50%"><stop offset="0%" stop-color="#e2e2e2"/><stop offset="3%" stop-color="#d0d0d0"/><stop offset="6%" stop-color="#bcbcbc"/><stop offset="9%" stop-color="#b5b5b5"/><stop offset="49%" stop-color="#f6f6f6"/><stop offset="63%" stop-color="#f3f3f3"/><stop offset="73%" stop-color="#eaeaea"/><stop offset="82%" stop-color="#dbdbdb"/><stop offset="90%" stop-color="#c6c6c6"/><stop offset="97%" stop-color="#aaa"/><stop offset="100%" stop-color="#9b9b9b"/></linearGradient><linearGradient id="h" x1="-.221%" x2="100%" y1="50%" y2="50%"><stop offset="0%" stop-color="#e2e2e2"/><stop offset="3%" stop-color="#d0d0d0"/><stop offset="6%" stop-color="#bcbcbc"/><stop offset="9%" stop-color="#b5b5b5"/><stop offset="49%" stop-color="#f6f6f6"/><stop offset="63%" stop-color="#f3f3f3"/><stop offset="73%" stop-color="#eaeaea"/><stop offset="82%" stop-color="#dbdbdb"/><stop offset="90%" stop-color="#c6c6c6"/><stop offset="97%" stop-color="#aaa"/><stop offset="100%" stop-color="#9b9b9b"/></linearGradient></defs><g fill="none" fill-rule="nonzero" transform="translate(0 .049)"><rect width="73.73" height="90.15" x="12.78" y="46.85" fill="#bcbcbc" rx=".62" transform="rotate(90 49.645 91.925)"/><rect width="28.08" height="72.91" x="35.385" y="78.305" fill="url(#a)" rx=".62" transform="rotate(90 49.425 114.76)"/><rect width="104.84" height="93.2" x="-2.93" y="5.82" fill="url(#b)" rx=".62" transform="rotate(90 49.49 52.42)"/><path fill="url(#c)" d="M7.22 89.76V7a2.85 2.85 0 0 1 2.84-2.9h79.18A2.86 2.86 0 0 1 92.09 7v82.76a2.85 2.85 0 0 1-2.85 2.85s-31.5 3.3-42 3.24c-9.32 0-37.14-3.24-37.14-3.24a2.84 2.84 0 0 1-2.88-2.85"/><rect width="73.73" height="66.09" x="8.12" y="11.16" fill="#eaeaea" rx=".62" transform="rotate(90 44.985 44.205)"/><rect width="28.08" height="99.03" x="35.475" y="86.445" fill="url(#d)" rx=".62" transform="rotate(90 49.515 135.96)"/><path fill="#595757" d="M70.66 22.27v17.97h-51.7V22.27zM78.03 49.02v5.94h-66.1v-5.94zM69.48 60.16v2.28H20.82v-2.28zM58.88 66.1v5.94H30.54V66.1z"/><path fill="#a60614" d="M89.51 35.67v8.54h-8.98v-8.54z"/><path fill="#383433" d="M89.51 23.94v8.54h-8.98v-8.54z"/><circle cx="89.51" cy="110.93" r="2.26" fill="url(#e)"/><rect width="3.31" height="1" x="87.855" y="110.609" fill="#000" rx=".05" transform="rotate(45 89.51 110.929)"/><rect width="3.31" height="1" x="87.864" y="110.61" fill="#000" rx=".05" transform="rotate(-45 89.519 110.93)"/><circle cx="9.48" cy="110.93" r="2.26" fill="url(#f)"/><rect width="3.31" height="1" x="7.818" y="110.602" fill="#000" rx=".05" transform="rotate(45 9.473 110.922)"/><rect width="3.31" height="1" x="7.827" y="110.617" fill="#000" rx=".05" transform="rotate(-45 9.482 110.937)"/><circle cx="5.96" cy="145.88" r="2.26" fill="url(#g)"/><rect width="3.31" height="1" x="4.313" y="145.564" fill="#000" rx=".05" transform="rotate(45 5.968 145.884)"/><rect width="3.31" height="1" x="4.309" y="145.562" fill="#000" rx=".05" transform="rotate(-45 5.964 145.882)"/><circle cx="93.83" cy="145.88" r="2.26" fill="url(#h)"/><rect width="3.31" height="1" x="92.169" y="145.56" fill="#000" rx=".05" transform="rotate(45 93.824 145.88)"/><rect width="3.31" height="1" x="92.165" y="145.566" fill="#000" rx=".05" transform="rotate(-45 93.82 145.886)"/></g></svg>