<svg xmlns="http://www.w3.org/2000/svg" viewBox="0 0 99 150"><title>Power monitor（电源监视器）</title><defs><linearGradient id="a" x1="0%" x2="100%" y1="49.997%" y2="49.997%"><stop offset="0%" stop-color="#6b6b6b"/><stop offset="1%" stop-color="#767676"/><stop offset="3%" stop-color="#959595"/><stop offset="4%" stop-color="#aaa"/><stop offset="37%" stop-color="#ccc"/><stop offset="74%" stop-color="#eaeaea"/><stop offset="94%" stop-color="#f6f6f6"/><stop offset="95%" stop-color="#ededed"/><stop offset="96%" stop-color="#d4d4d4"/><stop offset="97%" stop-color="#ababab"/><stop offset="99%" stop-color="#737373"/><stop offset="99%" stop-color="#666"/></linearGradient></defs><g fill="none" fill-rule="nonzero" transform="translate(.01 .049)"><rect width="98.58" height="149.89" fill="url(#a)" rx=".35"/><path fill="#595757" d="M8.97 15.09h80.09v40.5H8.97z"/><path fill="#eaeaea" d="M11.17 17.18h75.42v36.23H11.17z"/><circle cx="24.72" cy="7.97" r="2.46" fill="#efcd22"/><circle cx="48.77" cy="7.97" r="2.46" fill="#dc6d70"/><circle cx="72.71" cy="7.97" r="2.46" fill="#59b984"/><rect width="15.23" height="7.64" x="11.17" y="65.82" fill="#dc6d70" rx=".99"/><rect width="15.26" height="7.64" x="11.09" y="87.08" fill="#c1c1c1" rx=".99"/><rect width="15.65" height="7.64" x="31.51" y="87.08" fill="#c1c1c1" rx=".99"/><rect width="15.93" height="7.64" x="51.57" y="87.08" fill="#c1c1c1" rx=".99"/><rect width="15.26" height="7.64" x="72.97" y="87.08" fill="#c1c1c1" rx=".99"/><rect width="15.26" height="7.64" x="11.09" y="101.25" fill="#c1c1c1" rx=".99"/><rect width="15.65" height="7.64" x="31.51" y="101.25" fill="#c1c1c1" rx=".99"/><rect width="15.93" height="7.64" x="51.57" y="101.25" fill="#c1c1c1" rx=".99"/><rect width="15.26" height="7.64" x="72.97" y="101.25" fill="#c1c1c1" rx=".99"/><rect width="15.26" height="7.64" x="11.09" y="115.42" fill="#c1c1c1" rx=".99"/><rect width="15.65" height="7.64" x="31.51" y="115.42" fill="#c1c1c1" rx=".99"/><rect width="15.93" height="7.64" x="51.57" y="115.42" fill="#c1c1c1" rx=".99"/><rect width="15.26" height="7.64" x="72.97" y="115.42" fill="#c1c1c1" rx=".99"/><rect width="15.26" height="7.64" x="11.09" y="129.05" fill="#c1c1c1" rx=".99"/><rect width="15.65" height="7.64" x="31.51" y="129.05" fill="#c1c1c1" rx=".99"/><rect width="15.93" height="7.64" x="51.57" y="129.05" fill="#c1c1c1" rx=".99"/><rect width="15.26" height="7.64" x="72.97" y="129.05" fill="#c1c1c1" rx=".99"/><rect width="15.49" height="7.64" x="72.82" y="66.93" fill="#52b47f" rx=".99"/><path fill="#c1c1c1" d="M60.23 69.95H38.35v-4.1l3.06-2.83h15.37l3.45 2.7zm0 1.94H38.35v3.9l3.06 2.7h15.37l3.45-2.58z"/></g></svg>