<svg xmlns="http://www.w3.org/2000/svg" viewBox="0 0 151 101"><title>SCR assembly（scr组件）</title><defs><linearGradient id="a" x1="0%" x2="100.007%" y1="50%" y2="50%"><stop offset="0%" stop-color="#6b6b6b"/><stop offset="1%" stop-color="#767676"/><stop offset="3%" stop-color="#959595"/><stop offset="4%" stop-color="#aaa"/><stop offset="37%" stop-color="#ccc"/><stop offset="74%" stop-color="#eaeaea"/><stop offset="94%" stop-color="#f6f6f6"/><stop offset="95%" stop-color="#ededed"/><stop offset="96%" stop-color="#d4d4d4"/><stop offset="97%" stop-color="#ababab"/><stop offset="99%" stop-color="#737373"/><stop offset="99%" stop-color="#666"/></linearGradient><linearGradient id="b" x1="0%" x2="100%" y1="50%" y2="50%"><stop offset="0%" stop-color="#e2e2e2"/><stop offset="3%" stop-color="#d0d0d0"/><stop offset="6%" stop-color="#bcbcbc"/><stop offset="9%" stop-color="#b5b5b5"/><stop offset="49%" stop-color="#f6f6f6"/><stop offset="63%" stop-color="#f3f3f3"/><stop offset="73%" stop-color="#eaeaea"/><stop offset="82%" stop-color="#dbdbdb"/><stop offset="90%" stop-color="#c6c6c6"/><stop offset="97%" stop-color="#aaa"/><stop offset="100%" stop-color="#9b9b9b"/></linearGradient><linearGradient id="c" x1="50%" x2="50%" y1="100%" y2="0%"><stop offset="0%" stop-color="#e2e2e2"/><stop offset="3%" stop-color="#d0d0d0"/><stop offset="6%" stop-color="#bcbcbc"/><stop offset="9%" stop-color="#b5b5b5"/><stop offset="49%" stop-color="#f6f6f6"/><stop offset="63%" stop-color="#f3f3f3"/><stop offset="73%" stop-color="#eaeaea"/><stop offset="82%" stop-color="#dbdbdb"/><stop offset="90%" stop-color="#c6c6c6"/><stop offset="97%" stop-color="#aaa"/><stop offset="100%" stop-color="#9b9b9b"/></linearGradient></defs><g fill="none" fill-rule="nonzero" transform="translate(.01 .049)"><path fill="url(#a)" d="M7.09 0H142.7v100.5H7.09z"/><circle cx="14.01" cy="95.64" r="4" fill="#3e3938"/><circle cx="14.01" cy="95.64" r="2.55" fill="url(#b)"/><rect width="3.73" height="1" x="12.14" y="95.281" fill="#000" rx=".05" transform="rotate(45 14.005 95.64)"/><rect width="3.73" height="1" x="12.136" y="95.285" fill="#000" rx=".05" transform="rotate(-45 14 95.645)"/><rect width="150" height="1.7" y="17.69" fill="url(#c)" rx=".23"/><rect width="150" height="1.7" y="20.1" fill="url(#c)" rx=".23"/><rect width="17.77" height="2.73" x="16.98" y="37" fill="#3e3938" rx=".36"/><rect width="17.77" height="2.73" x="16.98" y="32.3" fill="#3e3938" rx=".36"/><rect width="17.77" height="2.73" x="16.98" y="41.7" fill="#3e3938" rx=".36"/><rect width="17.77" height="2.73" x="16.98" y="46.4" fill="#3e3938" rx=".36"/><rect width="17.77" height="2.73" x="16.98" y="51.1" fill="#3e3938" rx=".36"/><rect width="17.77" height="2.73" x="16.98" y="55.8" fill="#3e3938" rx=".36"/><rect width="17.77" height="2.73" x="16.98" y="65.41" fill="#3e3938" rx=".36"/><rect width="17.77" height="2.73" x="16.98" y="70.11" fill="#3e3938" rx=".36"/><rect width="17.77" height="2.73" x="16.98" y="74.81" fill="#3e3938" rx=".36"/><rect width="17.77" height="2.73" x="16.98" y="79.51" fill="#3e3938" rx=".36"/><rect width="17.77" height="2.73" x="16.98" y="84.21" fill="#3e3938" rx=".36"/><rect width="17.77" height="2.73" x="16.98" y="88.91" fill="#3e3938" rx=".36"/><rect width="17.77" height="2.73" x="41.63" y="65.41" fill="#3e3938" rx=".36"/><rect width="17.77" height="2.73" x="41.63" y="70.11" fill="#3e3938" rx=".36"/><rect width="17.77" height="2.73" x="41.63" y="74.81" fill="#3e3938" rx=".36"/><rect width="17.77" height="2.73" x="41.63" y="79.51" fill="#3e3938" rx=".36"/><rect width="17.77" height="2.73" x="41.63" y="84.21" fill="#3e3938" rx=".36"/><path fill="#3e3938" d="M38.73 96.93h71.79v3.57H38.73z"/><rect width="17.77" height="2.73" x="41.63" y="32.3" fill="#3e3938" rx=".36"/><rect width="17.77" height="2.73" x="41.63" y="37" fill="#3e3938" rx=".36"/><rect width="17.77" height="2.73" x="41.63" y="41.7" fill="#3e3938" rx=".36"/><rect width="17.77" height="2.73" x="41.63" y="46.4" fill="#3e3938" rx=".36"/><rect width="17.77" height="2.73" x="41.63" y="51.1" fill="#3e3938" rx=".36"/><rect width="17.77" height="2.73" x="41.63" y="55.8" fill="#3e3938" rx=".36"/><rect width="17.77" height="2.73" x="89.78" y="32.3" fill="#3e3938" rx=".36"/><rect width="17.77" height="2.73" x="89.78" y="37" fill="#3e3938" rx=".36"/><rect width="17.77" height="2.73" x="89.78" y="41.7" fill="#3e3938" rx=".36"/><rect width="17.77" height="2.73" x="89.78" y="46.4" fill="#3e3938" rx=".36"/><rect width="17.77" height="2.73" x="89.78" y="51.1" fill="#3e3938" rx=".36"/><rect width="17.77" height="2.73" x="89.78" y="55.8" fill="#3e3938" rx=".36"/><rect width="17.77" height="2.73" x="89.78" y="65.41" fill="#3e3938" rx=".36"/><rect width="17.77" height="2.73" x="89.78" y="70.11" fill="#3e3938" rx=".36"/><rect width="17.77" height="2.73" x="89.78" y="74.81" fill="#3e3938" rx=".36"/><rect width="17.77" height="2.73" x="89.78" y="79.51" fill="#3e3938" rx=".36"/><rect width="17.77" height="2.73" x="89.78" y="84.21" fill="#3e3938" rx=".36"/><rect width="17.77" height="2.73" x="89.78" y="88.91" fill="#3e3938" rx=".36"/><rect width="17.77" height="2.73" x="114.42" y="65.41" fill="#3e3938" rx=".36"/><rect width="17.77" height="2.73" x="114.42" y="70.11" fill="#3e3938" rx=".36"/><rect width="17.77" height="2.73" x="114.42" y="74.81" fill="#3e3938" rx=".36"/><rect width="17.77" height="2.73" x="114.42" y="79.51" fill="#3e3938" rx=".36"/><rect width="17.77" height="2.73" x="114.42" y="84.21" fill="#3e3938" rx=".36"/><rect width="17.77" height="2.73" x="114.42" y="88.91" fill="#3e3938" rx=".36"/><rect width="17.77" height="2.73" x="114.42" y="32.3" fill="#3e3938" rx=".36"/><rect width="17.77" height="2.73" x="114.42" y="37" fill="#3e3938" rx=".36"/><rect width="17.77" height="2.73" x="114.42" y="41.7" fill="#3e3938" rx=".36"/><rect width="17.77" height="2.73" x="114.42" y="46.4" fill="#3e3938" rx=".36"/><rect width="17.77" height="2.73" x="114.42" y="51.1" fill="#3e3938" rx=".36"/><rect width="17.77" height="2.73" x="114.42" y="55.8" fill="#3e3938" rx=".36"/></g></svg>