<svg xmlns="http://www.w3.org/2000/svg" viewBox="0 0 69 150"><title>Splice box（接线盒）</title><defs><linearGradient id="a" x1="50%" x2="50%" y1="99.845%" y2="0%"><stop offset="0%" stop-color="#6b6b6b"/><stop offset="11%" stop-color="#767676"/><stop offset="30%" stop-color="#959595"/><stop offset="41%" stop-color="#aaa"/><stop offset="56%" stop-color="#ccc"/><stop offset="71%" stop-color="#eaeaea"/><stop offset="80%" stop-color="#f6f6f6"/><stop offset="83%" stop-color="#ededed"/><stop offset="87%" stop-color="#d4d4d4"/><stop offset="92%" stop-color="#ababab"/><stop offset="98%" stop-color="#737373"/><stop offset="99%" stop-color="#666"/></linearGradient><linearGradient id="b" x1="50%" x2="50%" y1="99.845%" y2="-.155%"><stop offset="0%" stop-color="#6b6b6b"/><stop offset="11%" stop-color="#767676"/><stop offset="30%" stop-color="#959595"/><stop offset="41%" stop-color="#aaa"/><stop offset="56%" stop-color="#ccc"/><stop offset="71%" stop-color="#eaeaea"/><stop offset="80%" stop-color="#f6f6f6"/><stop offset="83%" stop-color="#ededed"/><stop offset="87%" stop-color="#d4d4d4"/><stop offset="92%" stop-color="#ababab"/><stop offset="98%" stop-color="#737373"/><stop offset="99%" stop-color="#666"/></linearGradient><linearGradient id="c" x1="0%" x2="100%" y1="50%" y2="50%"><stop offset="0%" stop-color="#6b6b6b"/><stop offset="1%" stop-color="#767676"/><stop offset="3%" stop-color="#959595"/><stop offset="4%" stop-color="#aaa"/><stop offset="37%" stop-color="#ccc"/><stop offset="74%" stop-color="#eaeaea"/><stop offset="94%" stop-color="#f6f6f6"/><stop offset="95%" stop-color="#ededed"/><stop offset="96%" stop-color="#d4d4d4"/><stop offset="97%" stop-color="#ababab"/><stop offset="99%" stop-color="#737373"/><stop offset="99%" stop-color="#666"/></linearGradient><linearGradient id="d" x1="49.996%" x2="49.996%" y1="100%" y2="0%"><stop offset="0%" stop-color="#6b6b6b"/><stop offset="11%" stop-color="#767676"/><stop offset="30%" stop-color="#959595"/><stop offset="41%" stop-color="#aaa"/><stop offset="56%" stop-color="#ccc"/><stop offset="71%" stop-color="#eaeaea"/><stop offset="80%" stop-color="#f6f6f6"/><stop offset="83%" stop-color="#ededed"/><stop offset="87%" stop-color="#d4d4d4"/><stop offset="92%" stop-color="#ababab"/><stop offset="98%" stop-color="#737373"/><stop offset="99%" stop-color="#666"/></linearGradient><linearGradient id="e" x1="0%" x2="100%" y1="49.923%" y2="49.923%"><stop offset="0%" stop-color="#6b6b6b"/><stop offset="11%" stop-color="#767676"/><stop offset="30%" stop-color="#959595"/><stop offset="41%" stop-color="#aaa"/><stop offset="56%" stop-color="#ccc"/><stop offset="71%" stop-color="#eaeaea"/><stop offset="80%" stop-color="#f6f6f6"/><stop offset="83%" stop-color="#ededed"/><stop offset="87%" stop-color="#d4d4d4"/><stop offset="92%" stop-color="#ababab"/><stop offset="98%" stop-color="#737373"/><stop offset="99%" stop-color="#666"/></linearGradient><linearGradient id="f" x1="49.991%" x2="49.991%" y1="99.363%" y2="0%"><stop offset="0%" stop-color="#6b6b6b"/><stop offset="11%" stop-color="#767676"/><stop offset="30%" stop-color="#959595"/><stop offset="41%" stop-color="#aaa"/><stop offset="56%" stop-color="#ccc"/><stop offset="71%" stop-color="#eaeaea"/><stop offset="80%" stop-color="#f6f6f6"/><stop offset="83%" stop-color="#ededed"/><stop offset="87%" stop-color="#d4d4d4"/><stop offset="92%" stop-color="#ababab"/><stop offset="98%" stop-color="#737373"/><stop offset="99%" stop-color="#666"/></linearGradient><linearGradient id="g" x1="49.991%" x2="49.991%" y1="100%" y2="0%"><stop offset="0%" stop-color="#6b6b6b"/><stop offset="11%" stop-color="#767676"/><stop offset="30%" stop-color="#959595"/><stop offset="41%" stop-color="#aaa"/><stop offset="56%" stop-color="#ccc"/><stop offset="71%" stop-color="#eaeaea"/><stop offset="80%" stop-color="#f6f6f6"/><stop offset="83%" stop-color="#ededed"/><stop offset="87%" stop-color="#d4d4d4"/><stop offset="92%" stop-color="#ababab"/><stop offset="98%" stop-color="#737373"/><stop offset="99%" stop-color="#666"/></linearGradient><linearGradient id="h" x1="0%" x2="100%" y1="50.029%" y2="50.029%"><stop offset="0%" stop-color="#6b6b6b"/><stop offset="1%" stop-color="#767676"/><stop offset="3%" stop-color="#959595"/><stop offset="4%" stop-color="#aaa"/><stop offset="37%" stop-color="#ccc"/><stop offset="74%" stop-color="#eaeaea"/><stop offset="94%" stop-color="#f6f6f6"/><stop offset="95%" stop-color="#ededed"/><stop offset="96%" stop-color="#d4d4d4"/><stop offset="97%" stop-color="#ababab"/><stop offset="99%" stop-color="#737373"/><stop offset="99%" stop-color="#666"/></linearGradient></defs><g fill="none" fill-rule="nonzero" transform="translate(.01 .049)"><rect width="68.58" height="6.47" x="-20.835" y="106.625" fill="url(#a)" rx=".87" transform="rotate(90 13.455 109.86)"/><rect width="68.58" height="6.47" x="21.335" y="106.625" fill="url(#b)" rx=".87" transform="rotate(90 55.625 109.86)"/><rect width="53.9" height="126.22" x="7.14" fill="url(#c)" rx="1.28"/><path fill="url(#d)" d="M-28.5 62.44H97.65v1.57H-28.5z" transform="rotate(90 34.575 63.225)"/><path fill="url(#d)" d="M-44.63 62.44H81.52v1.57H-44.63z" transform="rotate(90 18.445 63.225)"/><rect width="68.58" height="6.47" y="125.43" fill="url(#e)" rx=".87"/><path fill="url(#f)" d="M6.15 8.75h55.71v1.57H6.15z"/><path fill="url(#g)" d="M6.15 16.84h55.71v1.57H6.15z"/><path fill="url(#f)" d="M6.15 24.26h55.71v1.57H6.15z"/><path fill="url(#f)" d="M6.15 28.01h55.71v1.57H6.15z"/><path fill="url(#g)" d="M6.15 31.75h55.71v1.57H6.15z"/><path fill="url(#g)" d="M6.15 35.5h55.71v1.57H6.15z"/><path fill="url(#g)" d="M6.15 42.34h55.71v1.57H6.15z"/><path fill="url(#g)" d="M6.15 49.72h55.71v1.57H6.15z"/><path fill="url(#g)" d="M6.15 56.74h55.71v1.57H6.15z"/><path fill="url(#f)" d="M6.15 63.7h55.71v1.57H6.15z"/><path fill="url(#f)" d="M6.15 71.47h55.71v1.57H6.15z"/><path fill="url(#g)" d="M6.15 78.45h55.71v1.57H6.15z"/><path fill="url(#g)" d="M6.15 85.83h55.71v1.57H6.15z"/><path fill="url(#g)" d="M6.15 93.21h55.71v1.57H6.15z"/><path fill="url(#g)" d="M6.15 100.26h55.71v1.57H6.15z"/><path fill="url(#g)" d="M6.15 109.18h55.71v1.57H6.15z"/><path fill="url(#g)" d="M6.15 112.75h55.71v1.57H6.15z"/><path fill="url(#g)" d="M6.15 116.32h55.71v1.57H6.15z"/><path fill="url(#g)" d="M6.15 120.21h55.71v1.57H6.15z"/><path fill="url(#h)" d="M21.57 131.89h26.24v17.33H21.57z"/></g></svg>