<svg xmlns="http://www.w3.org/2000/svg" viewBox="0 0 139 150"><title>Starter（启动装置）</title><defs><linearGradient id="a" x1="0%" x2="100%" y1="50.005%" y2="50.005%"><stop offset="0%" stop-color="#6b6b6b"/><stop offset="1%" stop-color="#767676"/><stop offset="3%" stop-color="#959595"/><stop offset="4%" stop-color="#aaa"/><stop offset="37%" stop-color="#ccc"/><stop offset="74%" stop-color="#eaeaea"/><stop offset="94%" stop-color="#f6f6f6"/><stop offset="95%" stop-color="#ededed"/><stop offset="96%" stop-color="#d4d4d4"/><stop offset="97%" stop-color="#ababab"/><stop offset="99%" stop-color="#737373"/><stop offset="99%" stop-color="#666"/></linearGradient><linearGradient id="b" x1="0%" x2="99.93%" y1="50.012%" y2="50.012%"><stop offset="0%" stop-color="#6b6b6b"/><stop offset="11%" stop-color="#767676"/><stop offset="30%" stop-color="#959595"/><stop offset="41%" stop-color="#aaa"/><stop offset="68%" stop-color="#acacac"/><stop offset="78%" stop-color="#b3b3b3"/><stop offset="85%" stop-color="#bebebe"/><stop offset="91%" stop-color="#cfcfcf"/><stop offset="95%" stop-color="#e5e5e5"/><stop offset="99%" stop-color="#f6f6f6"/><stop offset="99%" stop-color="#ededed"/><stop offset="99%" stop-color="#d4d4d4"/><stop offset="99%" stop-color="#adadad"/></linearGradient><linearGradient id="c" x1="-.213%" x2="100%" y1="49.887%" y2="49.887%"><stop offset="0%" stop-color="#6b6b6b"/><stop offset="1%" stop-color="#767676"/><stop offset="3%" stop-color="#959595"/><stop offset="4%" stop-color="#aaa"/><stop offset="37%" stop-color="#ccc"/><stop offset="74%" stop-color="#eaeaea"/><stop offset="94%" stop-color="#f6f6f6"/><stop offset="95%" stop-color="#ededed"/><stop offset="96%" stop-color="#d4d4d4"/><stop offset="97%" stop-color="#ababab"/><stop offset="99%" stop-color="#737373"/><stop offset="99%" stop-color="#666"/></linearGradient><linearGradient id="d" x1="-.167%" x2="100%" y1="49.887%" y2="49.887%"><stop offset="0%" stop-color="#6b6b6b"/><stop offset="1%" stop-color="#767676"/><stop offset="3%" stop-color="#959595"/><stop offset="4%" stop-color="#aaa"/><stop offset="37%" stop-color="#ccc"/><stop offset="74%" stop-color="#eaeaea"/><stop offset="94%" stop-color="#f6f6f6"/><stop offset="95%" stop-color="#ededed"/><stop offset="96%" stop-color="#d4d4d4"/><stop offset="97%" stop-color="#ababab"/><stop offset="99%" stop-color="#737373"/><stop offset="99%" stop-color="#666"/></linearGradient></defs><g fill="none" fill-rule="evenodd" transform="translate(.01 .049)"><path fill="url(#a)" fill-rule="nonzero" d="M12.39 41.27h113.53v100.61H12.39z"/><rect width="95.35" height="42.79" x="21.69" y="43.2" fill="#dadada" fill-rule="nonzero" rx="1.16"/><path fill="url(#b)" fill-rule="nonzero" d="M13.35 0H125a1 1 0 0 1 1 1v40.27H12.39V1a1 1 0 0 1 1-1z"/><rect width="87.01" height="20.78" x="25.76" y="12.38" fill="#dadada" fill-rule="nonzero" rx="1.4"/><rect width="8.27" height="81.56" x="130.06" y="41.95" fill="#bab9ba" fill-rule="nonzero" rx=".52"/><rect width="8.27" height="89.19" x="4.12" y="35.96" fill="#bab9ba" fill-rule="nonzero" rx=".52"/><rect width="4.12" height="92.65" y="33.89" fill="#bab9ba" fill-rule="nonzero" rx=".52"/><rect width="90.58" height="37.8" x="23.79" y="45.69" stroke="#bab9ba" stroke-width=".5" rx=".79"/><rect width="115.6" height="7.94" x="11.25" y="141.88" fill="#bab9ba" fill-rule="nonzero" rx=".68"/><path fill="url(#c)" fill-rule="nonzero" d="M46.58 60.6a9.93 9.93 0 0 0-5.83-9 3.53 3.53 0 0 0-3.52-3.45h-1a3.51 3.51 0 0 0-3.49 3.33 9.95 9.95 0 0 0 0 18.28v1.33a3.54 3.54 0 0 0 3.53 3.54h1a3.55 3.55 0 0 0 3.54-3.54v-1.47a9.93 9.93 0 0 0 5.77-9.02"/><circle cx="36.63" cy="60.6" r="8.81" fill="#bab9ba" fill-rule="nonzero"/><path fill="url(#d)" fill-rule="nonzero" d="M111.05 61.46a9.94 9.94 0 0 0-5.82-9 3.53 3.53 0 0 0-3.52-3.46h-1a3.51 3.51 0 0 0-3.49 3.34 9.93 9.93 0 0 0 0 18.27v1.34a3.53 3.53 0 0 0 3.53 3.53h1a3.53 3.53 0 0 0 3.53-3.53v-1.47a9.94 9.94 0 0 0 5.77-9.02"/><circle cx="101.1" cy="61.46" r="8.81" fill="#bab9ba" fill-rule="nonzero"/><ellipse cx="54.51" cy="61.36" fill="#bab9ba" fill-rule="nonzero" rx="6.21" ry="4.5"/><ellipse cx="75.35" cy="60.48" fill="#bab9ba" fill-rule="nonzero" rx="11.91" ry="5.02"/><circle cx="68.53" cy="60.6" r="2.02" fill="#aad6d8" fill-rule="nonzero"/><circle cx="75.43" cy="60.6" r="2.02" fill="#c1a0b4" fill-rule="nonzero"/><circle cx="82.44" cy="60.6" r="2.02" fill="#e2be72" fill-rule="nonzero"/><path fill="#dadada" fill-rule="nonzero" d="M38.76 90.73v.85c0 16.464 13.346 29.81 29.81 29.81s29.81-13.346 29.81-29.81v-.85z"/><path stroke="#bab9ba" stroke-width=".5" d="M43.69 93.27v.71c.46 13.391 11.446 24.011 24.845 24.016 13.4.006 24.394-10.605 24.865-23.996v-.71z"/><rect width="8.27" height="92.54" x="125.92" y="33.67" fill="#3e3938" fill-rule="nonzero" rx=".52"/></g></svg>