<svg xmlns="http://www.w3.org/2000/svg" viewBox="0 0 150 121"><title>Transformer monitor（监视变压器）</title><g fill="none" fill-rule="nonzero" transform="translate(.01 .049)"><rect width="149.54" height="120.16" fill="#3e3938" rx="1.17"/><path fill="#c1c1c1" d="M6.25 6.53h137.13v106.55H6.25z"/><path fill="#3e3938" d="M38.09 23.08h74.12v63.24H38.09zm-20.53 1.66h10.1v10.1h-10.1z"/><path fill="#eaeaea" d="M17.56 13.9h34.37v2.72H17.56z"/><path fill="#3e3938" d="M27.66 28.85h10.43v1H27.66zm0 15.72h10.43v1H27.66zm0 15.08h10.43v1H27.66zm0 15.51h10.43v1H27.66zm84.55-46.31h10.43v1h-10.43zm0 15.72h10.43v1h-10.43zm0 15.08h10.43v1h-10.43zm0 15.51h10.43v1h-10.43zm-94.65-34.7h10.1v10.1h-10.1zm0 15.26h10.1v10.1h-10.1zm0 15.33h10.1v10.1h-10.1z"/><path fill="#3e3938" d="M122.39 24.74h10.1v10.1h-10.1zm0 15.72h10.1v10.1h-10.1zm0 15.26h10.1v10.1h-10.1zm0 15.33h10.1v10.1h-10.1zM45.88 91.37h11.11V103H45.88zm23.72-.36h11.11v11.63H69.6zm22.43.36h11.11V103H92.03z"/></g></svg>