<svg xmlns="http://www.w3.org/2000/svg" viewBox="0 0 84 150"><title>Uninterruptable power supply（不间断电源）</title><defs><linearGradient id="a" x1="0%" x2="100%" y1="50.003%" y2="50.003%"><stop offset="0%" stop-color="#6b6b6b"/><stop offset="11%" stop-color="#767676"/><stop offset="30%" stop-color="#959595"/><stop offset="41%" stop-color="#aaa"/><stop offset="68%" stop-color="#acacac"/><stop offset="78%" stop-color="#b3b3b3"/><stop offset="85%" stop-color="#bebebe"/><stop offset="91%" stop-color="#cfcfcf"/><stop offset="95%" stop-color="#e5e5e5"/><stop offset="99%" stop-color="#f6f6f6"/><stop offset="99%" stop-color="#ededed"/><stop offset="99%" stop-color="#d4d4d4"/><stop offset="99%" stop-color="#adadad"/></linearGradient><linearGradient id="b" x1="49.994%" x2="49.994%" y1="100%" y2="0%"><stop offset="0%" stop-color="#6b6b6b"/><stop offset="1%" stop-color="#767676"/><stop offset="3%" stop-color="#959595"/><stop offset="4%" stop-color="#aaa"/><stop offset="37%" stop-color="#ccc"/><stop offset="74%" stop-color="#eaeaea"/><stop offset="94%" stop-color="#f6f6f6"/><stop offset="95%" stop-color="#ededed"/><stop offset="96%" stop-color="#d4d4d4"/><stop offset="97%" stop-color="#ababab"/><stop offset="99%" stop-color="#737373"/><stop offset="99%" stop-color="#666"/></linearGradient><linearGradient id="c" x1="0%" x2="100%" y1="50%" y2="50%"><stop offset="0%" stop-color="#6b6b6b"/><stop offset="1%" stop-color="#767676"/><stop offset="3%" stop-color="#959595"/><stop offset="4%" stop-color="#aaa"/><stop offset="37%" stop-color="#ccc"/><stop offset="74%" stop-color="#eaeaea"/><stop offset="94%" stop-color="#f6f6f6"/><stop offset="95%" stop-color="#ededed"/><stop offset="96%" stop-color="#d4d4d4"/><stop offset="97%" stop-color="#ababab"/><stop offset="99%" stop-color="#737373"/><stop offset="99%" stop-color="#666"/></linearGradient><linearGradient id="d" x1="50%" x2="50%" y1="100%" y2="0%"><stop offset="0%" stop-color="#6b6b6b"/><stop offset="1%" stop-color="#767676"/><stop offset="3%" stop-color="#959595"/><stop offset="4%" stop-color="#aaa"/><stop offset="37%" stop-color="#ccc"/><stop offset="74%" stop-color="#eaeaea"/><stop offset="94%" stop-color="#f6f6f6"/><stop offset="95%" stop-color="#ededed"/><stop offset="96%" stop-color="#d4d4d4"/><stop offset="97%" stop-color="#ababab"/><stop offset="99%" stop-color="#737373"/><stop offset="99%" stop-color="#666"/></linearGradient></defs><g fill="none" fill-rule="nonzero"><path fill="url(#a)" d="M0 0h83.1v149.73H0z" transform="translate(.01 .049)"/><path fill="url(#b)" d="M.14 25.22h82.97v16.31H.14z" transform="translate(.01 .049)"/><path fill="url(#c)" d="M19.17 8.16h44.04V58H19.17z" transform="translate(.01 .049)"/><path fill="#3e3938" d="M22.47 10.829h38.09v34.22H22.47z"/><path fill="#dadada" d="M26.41 22.909H56.5v19.52H26.41zm.26 24.24h6.3v4.27h-6.3z"/><path fill="url(#d)" d="M22.05 53.56h39.06v2.42H22.05z" transform="translate(.01 .049)"/><path fill="#3e3938" d="M.01 72.859h83.1v2.06H.01zm.02 7.07h18.32v2.06H.03zm0 6.17h18.32v2.06H.03zm0 6.18h18.32v2.06H.03zm64.76-12.49h18.32v2.06H64.79zm0 6.17h18.32v2.06H64.79zm0 6.18h18.32v2.06H64.79zM.01 99.109h83.1v2.06H.01zm.02 7.07h18.32v2.06H.03zm0 6.17h18.32v2.06H.03zm0 6.18h18.32v2.06H.03zm64.76-12.49h18.32v2.06H64.79zm0 6.17h18.32v2.06H64.79zm0 6.18h18.32v2.06H64.79zm-64.78 6.97h83.1v2.06H.01zm.02 7.07h18.32v2.06H.03zm0 6.17h18.32v2.06H.03zm0 6.18h18.32v2.06H.03zm64.76-12.49h18.32v2.06H64.79zm0 6.17h18.32v2.06H64.79zm0 6.18h18.32v2.06H64.79z"/><path fill="#dadada" d="M34.49 47.149h6.3v4.27h-6.3zm7.89 0h6.3v4.27h-6.3zm7.96 0h6.3v4.27h-6.3z"/></g></svg>