<svg xmlns="http://www.w3.org/2000/svg" viewBox="0 0 179 151"><title>Utility pole with two sets of cables（带两组电缆的电线杆）</title><defs><linearGradient id="a" x1="0%" x2="100.078%" y1="50%" y2="50%"><stop offset="0%" stop-color="#6b6b6b"/><stop offset="11%" stop-color="#767676"/><stop offset="30%" stop-color="#959595"/><stop offset="41%" stop-color="#aaa"/><stop offset="56%" stop-color="#ccc"/><stop offset="71%" stop-color="#eaeaea"/><stop offset="80%" stop-color="#f6f6f6"/><stop offset="83%" stop-color="#ededed"/><stop offset="87%" stop-color="#d4d4d4"/><stop offset="92%" stop-color="#ababab"/><stop offset="98%" stop-color="#737373"/><stop offset="99%" stop-color="#666"/></linearGradient><linearGradient id="b" x1="0%" x2="101.333%" y1="50.247%" y2="50.247%"><stop offset="0%" stop-color="#6b6b6b"/><stop offset="11%" stop-color="#767676"/><stop offset="30%" stop-color="#959595"/><stop offset="41%" stop-color="#aaa"/><stop offset="56%" stop-color="#ccc"/><stop offset="71%" stop-color="#eaeaea"/><stop offset="80%" stop-color="#f6f6f6"/><stop offset="83%" stop-color="#ededed"/><stop offset="87%" stop-color="#d4d4d4"/><stop offset="92%" stop-color="#ababab"/><stop offset="98%" stop-color="#737373"/><stop offset="99%" stop-color="#666"/></linearGradient><linearGradient id="c" x1="0%" x2="100.496%" y1="50.247%" y2="50.247%"><stop offset="0%" stop-color="#6b6b6b"/><stop offset="11%" stop-color="#767676"/><stop offset="30%" stop-color="#959595"/><stop offset="41%" stop-color="#aaa"/><stop offset="56%" stop-color="#ccc"/><stop offset="71%" stop-color="#eaeaea"/><stop offset="80%" stop-color="#f6f6f6"/><stop offset="83%" stop-color="#ededed"/><stop offset="87%" stop-color="#d4d4d4"/><stop offset="92%" stop-color="#ababab"/><stop offset="98%" stop-color="#737373"/><stop offset="99%" stop-color="#666"/></linearGradient><linearGradient id="d" x1="0%" x2="101.333%" y1="49.67%" y2="49.67%"><stop offset="0%" stop-color="#6b6b6b"/><stop offset="11%" stop-color="#767676"/><stop offset="30%" stop-color="#959595"/><stop offset="41%" stop-color="#aaa"/><stop offset="56%" stop-color="#ccc"/><stop offset="71%" stop-color="#eaeaea"/><stop offset="80%" stop-color="#f6f6f6"/><stop offset="83%" stop-color="#ededed"/><stop offset="87%" stop-color="#d4d4d4"/><stop offset="92%" stop-color="#ababab"/><stop offset="98%" stop-color="#737373"/><stop offset="99%" stop-color="#666"/></linearGradient><linearGradient id="e" x1="0%" x2="101.333%" y1="50.33%" y2="50.33%"><stop offset="0%" stop-color="#6b6b6b"/><stop offset="11%" stop-color="#767676"/><stop offset="30%" stop-color="#959595"/><stop offset="41%" stop-color="#aaa"/><stop offset="56%" stop-color="#ccc"/><stop offset="71%" stop-color="#eaeaea"/><stop offset="80%" stop-color="#f6f6f6"/><stop offset="83%" stop-color="#ededed"/><stop offset="87%" stop-color="#d4d4d4"/><stop offset="92%" stop-color="#ababab"/><stop offset="98%" stop-color="#737373"/><stop offset="99%" stop-color="#666"/></linearGradient></defs><g fill="none" fill-rule="evenodd" transform="translate(.01 .049)"><rect width="12.76" height="150.24" x="34.17" fill="url(#a)" fill-rule="nonzero" rx=".94"/><path fill="#909191" fill-rule="nonzero" d="M6.87 34.11 0 31.01v-3.93l6.87 3.1zm.67 20.33-6.87-3.1v-3.92l6.87 3.1z"/><path stroke="#bababa" stroke-width=".25" d="M70.57 20.45s29.67 18.21 108 24"/><path fill="#bababa" fill-rule="nonzero" d="M79.76 20.45 6.87 30.18 0 27.08l72.9-9.73z"/><path fill="#dbdbdb" fill-rule="nonzero" d="M79.76 24.38 6.87 34.11v-3.93l72.89-9.73z"/><path fill="url(#b)" fill-rule="nonzero" d="M7.71 23.63v5c.13.6 1.4 1.07 3 1.07s2.87-.47 3-1.07v-5z"/><ellipse cx="10.75" cy="23.63" fill="#bababa" fill-rule="nonzero" rx="3.04" ry="1.29"/><path fill="url(#c)" fill-rule="nonzero" d="M66.32 15.47v5h.05c.13.6 1.4 1.07 3 1.07s2.87-.47 3-1.07v-5z"/><ellipse cx="69.36" cy="15.47" fill="#bababa" fill-rule="nonzero" rx="3.04" ry="1.29"/><path fill="#bababa" fill-rule="nonzero" d="m80.46 40.79-72.9 9.73-6.87-3.1 72.9-9.73z"/><path fill="#dbdbdb" fill-rule="nonzero" d="m80.44 44.71-72.9 9.73v-3.92l72.9-9.73z"/><path fill="url(#d)" fill-rule="nonzero" d="M8.38 44v5c.12.59 1.4 1.06 3 1.06s2.87-.47 3-1.06v-5z"/><ellipse cx="11.42" cy="43.96" fill="#bababa" fill-rule="nonzero" rx="3.04" ry="1.29"/><path fill="url(#e)" fill-rule="nonzero" d="M67 35.8v5c.13.59 1.4 1.06 3 1.06s2.86-.47 3-1.06v-5z"/><ellipse cx="70.04" cy="35.8" fill="#bababa" fill-rule="nonzero" rx="3.04" ry="1.29"/><path stroke="#bababa" stroke-width=".25" d="M12.87 29.38s69.95 46.94 156.27 48"/></g></svg>