<svg xmlns="http://www.w3.org/2000/svg" viewBox="0 0 178 150"><title>Utility pole with cables（带电缆的电线杆）</title><defs><linearGradient id="a" x1="0%" x2="100.079%" y1="50%" y2="50%"><stop offset="0%" stop-color="#6b6b6b"/><stop offset="11%" stop-color="#767676"/><stop offset="30%" stop-color="#959595"/><stop offset="41%" stop-color="#aaa"/><stop offset="56%" stop-color="#ccc"/><stop offset="71%" stop-color="#eaeaea"/><stop offset="80%" stop-color="#f6f6f6"/><stop offset="83%" stop-color="#ededed"/><stop offset="87%" stop-color="#d4d4d4"/><stop offset="92%" stop-color="#ababab"/><stop offset="98%" stop-color="#737373"/><stop offset="99%" stop-color="#666"/></linearGradient><linearGradient id="b" x1="0%" x2="100.165%" y1="50.165%" y2="50.165%"><stop offset="0%" stop-color="#6b6b6b"/><stop offset="11%" stop-color="#767676"/><stop offset="30%" stop-color="#959595"/><stop offset="41%" stop-color="#aaa"/><stop offset="56%" stop-color="#ccc"/><stop offset="71%" stop-color="#eaeaea"/><stop offset="80%" stop-color="#f6f6f6"/><stop offset="83%" stop-color="#ededed"/><stop offset="87%" stop-color="#d4d4d4"/><stop offset="92%" stop-color="#ababab"/><stop offset="98%" stop-color="#737373"/><stop offset="99%" stop-color="#666"/></linearGradient><linearGradient id="c" x1=".167%" x2="101.167%" y1="50%" y2="50%"><stop offset="0%" stop-color="#6b6b6b"/><stop offset="11%" stop-color="#767676"/><stop offset="30%" stop-color="#959595"/><stop offset="41%" stop-color="#aaa"/><stop offset="56%" stop-color="#ccc"/><stop offset="71%" stop-color="#eaeaea"/><stop offset="80%" stop-color="#f6f6f6"/><stop offset="83%" stop-color="#ededed"/><stop offset="87%" stop-color="#d4d4d4"/><stop offset="92%" stop-color="#ababab"/><stop offset="98%" stop-color="#737373"/><stop offset="99%" stop-color="#666"/></linearGradient></defs><g fill="none" fill-rule="evenodd" transform="translate(.01 .049)"><path fill="#bababa" fill-rule="nonzero" d="M79.39 20.22 6.83 29.91 0 26.82l72.56-9.68z"/><rect width="12.7" height="149.54" x="34.01" fill="url(#a)" fill-rule="nonzero" rx=".94"/><path fill="#dbdbdb" fill-rule="nonzero" d="M79.39 24.26 6.83 33.95v-3.91l72.56-9.68z"/><path fill="#909191" fill-rule="nonzero" d="M6.83 33.95 0 30.86v-3.9l6.83 3.08z"/><path stroke="#bababa" stroke-width=".25" d="M12.81 29.25S82.44 76 168.35 77.06m-98.11-56.7s29.54 18.12 107.48 23.91"/><path fill="url(#b)" fill-rule="nonzero" d="M7.67 23.52v5c.12.59 1.39 1.06 3 1.06s2.85-.47 3-1.06h.05v-5z"/><ellipse cx="10.7" cy="23.52" fill="#bababa" fill-rule="nonzero" rx="3.03" ry="1.29"/><path fill="url(#c)" fill-rule="nonzero" d="M66 15.4v5c.13.59 1.39 1.06 3 1.06s2.86-.47 3-1.06v-5z"/><ellipse cx="69.04" cy="15.4" fill="#bababa" fill-rule="nonzero" rx="3.03" ry="1.29"/></g></svg>