<svg xmlns="http://www.w3.org/2000/svg" viewBox="0 0 96 150"><title>Variable-speed drive（变速驱动）</title><defs><linearGradient id="a" x1="0%" x2="100%" y1="49.997%" y2="49.997%"><stop offset="0%" stop-color="#6b6b6b"/><stop offset="1%" stop-color="#767676"/><stop offset="3%" stop-color="#959595"/><stop offset="4%" stop-color="#aaa"/><stop offset="37%" stop-color="#ccc"/><stop offset="74%" stop-color="#eaeaea"/><stop offset="94%" stop-color="#f6f6f6"/><stop offset="95%" stop-color="#ededed"/><stop offset="96%" stop-color="#d4d4d4"/><stop offset="97%" stop-color="#ababab"/><stop offset="99%" stop-color="#737373"/><stop offset="99%" stop-color="#666"/></linearGradient><linearGradient id="b" x1="0%" x2="100%" y1="50%" y2="50%"><stop offset="0%" stop-color="#6b6b6b"/><stop offset="11%" stop-color="#767676"/><stop offset="30%" stop-color="#959595"/><stop offset="41%" stop-color="#aaa"/><stop offset="68%" stop-color="#acacac"/><stop offset="78%" stop-color="#b3b3b3"/><stop offset="85%" stop-color="#bebebe"/><stop offset="91%" stop-color="#cfcfcf"/><stop offset="95%" stop-color="#e5e5e5"/><stop offset="99%" stop-color="#f6f6f6"/><stop offset="99%" stop-color="#ededed"/><stop offset="99%" stop-color="#d4d4d4"/><stop offset="99%" stop-color="#adadad"/></linearGradient><linearGradient id="c" x1="-.158%" x2="100%" y1="50%" y2="50%"><stop offset="0%" stop-color="#e2e2e2"/><stop offset="3%" stop-color="#d0d0d0"/><stop offset="6%" stop-color="#bcbcbc"/><stop offset="9%" stop-color="#b5b5b5"/><stop offset="49%" stop-color="#f6f6f6"/><stop offset="63%" stop-color="#f3f3f3"/><stop offset="73%" stop-color="#eaeaea"/><stop offset="82%" stop-color="#dbdbdb"/><stop offset="90%" stop-color="#c6c6c6"/><stop offset="97%" stop-color="#aaa"/><stop offset="100%" stop-color="#9b9b9b"/></linearGradient></defs><g fill="none" fill-rule="nonzero" transform="translate(.01 .049)"><path fill="url(#a)" d="M0 0h95.41v149.29H0z"/><path fill="url(#b)" d="M86.62 78.35s-6.29 8.84-31.79 8.84c-24.8 0-32.92-8.84-32.92-8.84V31.67h64.71z"/><circle cx="54.83" cy="57.76" r="11.97" fill="#d9d9d9"/><path fill="#3e3938" d="M22.19 0H86.9v31.67H22.19zM0 93.58h95.41v1.79H0z"/><circle cx="47.71" cy="142.68" r="3.17" fill="url(#c)"/><rect width="3.21" height="1" x="46.108" y="142.373" fill="#000" rx=".05" transform="rotate(45 47.713 142.683)"/><rect width="3.21" height="1" x="46.098" y="142.367" fill="#000" rx=".05" transform="rotate(-45 47.703 142.677)"/><path fill="#c1c1c1" d="M32.38 9.39h43.77v13.32H32.38z"/><circle cx="32.35" cy="41.15" r="4.34" fill="#c1c1c1"/><circle cx="32.35" cy="57.28" r="4.34" fill="#c1c1c1"/><circle cx="32.35" cy="72.95" r="4.34" fill="#c1c1c1"/><circle cx="54.55" cy="77.73" r="4.34" fill="#c1c1c1"/><circle cx="76.34" cy="72.95" r="4.34" fill="#c1c1c1"/><circle cx="76.34" cy="57.05" r="4.34" fill="#c1c1c1"/><circle cx="76.34" cy="41.68" r="4.34" fill="#c1c1c1"/><circle cx="61.45" cy="57.69" r="3.93" fill="#c1c1c1"/></g></svg>