<svg xmlns="http://www.w3.org/2000/svg" viewBox="0 0 76 151"><title>Beer can(啤酒罐)</title><defs><linearGradient id="a" x1="0%" x2="100%" y1="50%" y2="50%"><stop offset="0%" stop-color="#a9b1bb"/><stop offset="9%" stop-color="#61666b"/><stop offset="18%" stop-color="#696e73"/><stop offset="32%" stop-color="#7e8489"/><stop offset="49%" stop-color="#a1a7ae"/><stop offset="69%" stop-color="#d1d8e0"/><stop offset="75%" stop-color="#e2eaf2"/><stop offset="93%" stop-color="#9ba1ab"/><stop offset="100%" stop-color="#767b82"/></linearGradient><linearGradient id="b" x1="2.831%" x2="93.217%" y1="45.975%" y2="53.052%"><stop offset="0%" stop-color="#9299a1"/><stop offset="9%" stop-color="#4a4e51"/><stop offset="17%" stop-color="#525659"/><stop offset="29%" stop-color="#676b6f"/><stop offset="44%" stop-color="#898f94"/><stop offset="62%" stop-color="#b8bfc6"/><stop offset="75%" stop-color="#e2eaf2"/><stop offset="93%" stop-color="#848992"/><stop offset="100%" stop-color="#5f6368"/></linearGradient><linearGradient id="c" x1="4.661%" x2="92.969%" y1="48.156%" y2="51.459%"><stop offset="0%" stop-color="#9299a1"/><stop offset="9%" stop-color="#4a4e51"/><stop offset="17%" stop-color="#525659"/><stop offset="29%" stop-color="#676b6f"/><stop offset="44%" stop-color="#898f94"/><stop offset="62%" stop-color="#b8bfc6"/><stop offset="75%" stop-color="#e2eaf2"/><stop offset="93%" stop-color="#848992"/><stop offset="100%" stop-color="#5f6368"/></linearGradient><linearGradient id="d" x1="1.549%" x2="93.247%" y1="55.513%" y2="45.757%"><stop offset="0%" stop-color="#9299a1"/><stop offset="9%" stop-color="#4a4e51"/><stop offset="17%" stop-color="#525659"/><stop offset="29%" stop-color="#676b6f"/><stop offset="43%" stop-color="#898f94"/><stop offset="60%" stop-color="#b8bfc6"/><stop offset="73%" stop-color="#e2eaf2"/><stop offset="93%" stop-color="#848992"/><stop offset="100%" stop-color="#5f6368"/></linearGradient><linearGradient id="e" x1="0%" x2="100%" y1="50%" y2="50%"><stop offset="0%" stop-color="#a9b1bb"/><stop offset="9%" stop-color="#61666b"/><stop offset="18%" stop-color="#696e73"/><stop offset="32%" stop-color="#7e8489"/><stop offset="49%" stop-color="#a1a7ae"/><stop offset="69%" stop-color="#d1d8e0"/><stop offset="75%" stop-color="#e2eaf2"/><stop offset="93%" stop-color="#9ba1ab"/><stop offset="100%" stop-color="#767b82"/></linearGradient></defs><g fill="none" fill-rule="nonzero" transform="translate(0 .079)"><path fill="url(#a)" d="M0 24.68h75.52V138.3H0z"/><path fill="#fff" d="M10.57 52.3h54.39v51.34H10.57z" opacity=".6"/><path fill="url(#b)" d="M59.92 150H15.6c-1.78 0-3.38-2.42-4-6.12l-1-5.58H65l-1 5.58c-.7 3.7-2.3 6.12-4.08 6.12"/><path fill="url(#c)" d="M68.53 146.06H7A6.07 6.07 0 0 1 1.38 142L0 138.3h75.52l-1.38 3.7a6.07 6.07 0 0 1-5.61 4.06"/><path fill="url(#d)" d="M75.52 24.68H0C0 17.87 5.08 6.84 5.08 6.84V2.6h65.3v4.07s5.14 11.11 5.14 18.01"/><rect width="66.76" height="4.14" x="4.38" fill="url(#e)" rx="1.92"/></g></svg>