<svg xmlns="http://www.w3.org/2000/svg" viewBox="0 0 140 151"><title>Benchtop homogenizer(台式均质机)</title><defs><linearGradient id="a" x1="-.407%" x2="100.407%" y1="50%" y2="50%"><stop offset="0%" stop-color="#f1f5ff"/><stop offset="100%" stop-color="#5a5e66"/></linearGradient><linearGradient id="b" x1="-.826%" x2="100.826%" y1="50.162%" y2="50.162%"><stop offset="0%" stop-color="#f1f5ff"/><stop offset="100%" stop-color="#5a5e66"/></linearGradient><linearGradient id="c" x1="50.009%" x2="50.009%" y1="100%" y2="0%"><stop offset="0%" stop-color="#a9b1bb"/><stop offset="9%" stop-color="#61666b"/><stop offset="16%" stop-color="#696e73"/><stop offset="27%" stop-color="#7e8489"/><stop offset="39%" stop-color="#a1a7ae"/><stop offset="54%" stop-color="#d1d8e0"/><stop offset="59%" stop-color="#e2eaf2"/><stop offset="93%" stop-color="#9ba1ab"/><stop offset="100%" stop-color="#767b82"/></linearGradient><linearGradient id="d" x1="82.872%" x2="17.128%" y1="39.645%" y2="60.352%"><stop offset="0%" stop-color="#d7dce0"/><stop offset="100%" stop-color="#8a9099"/></linearGradient><linearGradient id="e" x1="85.214%" x2="14.786%" y1="35.618%" y2="64.382%"><stop offset="0%" stop-color="#d7dce0"/><stop offset="100%" stop-color="#8a9099"/></linearGradient><linearGradient id="f" x1="76.695%" x2="23.305%" y1="46.833%" y2="54.092%"><stop offset="0%" stop-color="#ebf0f5"/><stop offset="100%" stop-color="#b8c0cc"/></linearGradient><linearGradient id="g" x1="77.785%" x2="22.215%" y1="45.445%" y2="56.091%"><stop offset="0%" stop-color="#ebf0f5"/><stop offset="100%" stop-color="#b8c0cc"/></linearGradient><linearGradient id="h" x1="77.785%" x2="22.215%" y1="43.909%" y2="54.555%"><stop offset="0%" stop-color="#abafb3"/><stop offset="100%" stop-color="#45484d"/></linearGradient><linearGradient id="i" x1="0%" x2="100%" y1="49.961%" y2="49.961%"><stop offset="0%" stop-color="#a9b1bb"/><stop offset="9%" stop-color="#61666b"/><stop offset="18%" stop-color="#696e73"/><stop offset="32%" stop-color="#7e8489"/><stop offset="49%" stop-color="#a1a7ae"/><stop offset="69%" stop-color="#d1d8e0"/><stop offset="75%" stop-color="#e2eaf2"/><stop offset="93%" stop-color="#9ba1ab"/><stop offset="100%" stop-color="#767b82"/></linearGradient><linearGradient id="j" x1="0%" x2="100%" y1="50.849%" y2="50.849%"><stop offset="0%" stop-color="#a9b1bb"/><stop offset="9%" stop-color="#61666b"/><stop offset="18%" stop-color="#696e73"/><stop offset="32%" stop-color="#7e8489"/><stop offset="49%" stop-color="#a1a7ae"/><stop offset="69%" stop-color="#d1d8e0"/><stop offset="75%" stop-color="#e2eaf2"/><stop offset="93%" stop-color="#9ba1ab"/><stop offset="100%" stop-color="#767b82"/></linearGradient><linearGradient id="k" x1="0%" x2="100%" y1="50%" y2="50%"><stop offset="0%" stop-color="#a9b1bb"/><stop offset="9%" stop-color="#61666b"/><stop offset="16%" stop-color="#696e73"/><stop offset="27%" stop-color="#7e8489"/><stop offset="39%" stop-color="#a1a7ae"/><stop offset="54%" stop-color="#d1d8e0"/><stop offset="59%" stop-color="#e2eaf2"/><stop offset="93%" stop-color="#9ba1ab"/><stop offset="100%" stop-color="#767b82"/></linearGradient><linearGradient id="l" x1="8.662%" x2="83.655%" y1="34.545%" y2="52.986%"><stop offset="0%" stop-color="#a9b1bb"/><stop offset="9%" stop-color="#61666b"/><stop offset="18%" stop-color="#696e73"/><stop offset="32%" stop-color="#7e8489"/><stop offset="49%" stop-color="#a1a7ae"/><stop offset="69%" stop-color="#d1d8e0"/><stop offset="75%" stop-color="#e2eaf2"/><stop offset="93%" stop-color="#9ba1ab"/><stop offset="100%" stop-color="#767b82"/></linearGradient><linearGradient id="m" x1="100.495%" x2="-.413%" y1="49.977%" y2="49.977%"><stop offset="0%" stop-color="#f1f5ff"/><stop offset="100%" stop-color="#5a5e66"/></linearGradient><linearGradient id="n" x1="33.63%" x2="66.422%" y1="13.688%" y2="86.312%"><stop offset="0%" stop-color="#ebf0f5"/><stop offset="100%" stop-color="#b8c0cc"/></linearGradient><linearGradient id="o" x1="17.18%" x2="67.099%" y1="39.694%" y2="55.375%"><stop offset="0%" stop-color="#e6f1ff" stop-opacity="0"/><stop offset="16%" stop-color="#e6f1ff" stop-opacity=".01"/><stop offset="29%" stop-color="#e6f1ff" stop-opacity=".05"/><stop offset="41%" stop-color="#e7f1ff" stop-opacity=".12"/><stop offset="53%" stop-color="#e8f2ff" stop-opacity=".21"/><stop offset="63%" stop-color="#e9f2ff" stop-opacity=".33"/><stop offset="74%" stop-color="#eaf2ff" stop-opacity=".48"/><stop offset="84%" stop-color="#ebf3ff" stop-opacity=".66"/><stop offset="94%" stop-color="#edf4ff" stop-opacity=".85"/><stop offset="100%" stop-color="#eef4ff"/></linearGradient><linearGradient id="p" x1="83.926%" x2="16.092%" y1="37.896%" y2="62.104%"><stop offset="0%" stop-color="#d7dce0"/><stop offset="100%" stop-color="#8a9099"/></linearGradient><linearGradient id="q" x1="-.32%" x2="100.384%" y1="50%" y2="50%"><stop offset="0%" stop-color="#f1f5ff"/><stop offset="100%" stop-color="#5a5e66"/></linearGradient><linearGradient id="r" x1="-.437%" x2="100.546%" y1="50%" y2="50%"><stop offset="0%" stop-color="#f1f5ff"/><stop offset="100%" stop-color="#5a5e66"/></linearGradient></defs><g fill="none" fill-rule="evenodd" transform="translate(0 .079)"><path fill="#515359" fill-rule="nonzero" stroke="url(#a)" stroke-width=".1" d="M132.06 35h-1.72v.28a6 6 0 0 0-1.51.67c-1 1.5-1.7 4.64-1.7 8.26s.69 6.77 1.7 8.28c.472.288.98.513 1.51.67v.28h1.72c4.06 0 7.34-4.12 7.34-9.22S136.12 35 132.06 35Z"/><path fill="#252629" fill-rule="nonzero" stroke="url(#b)" stroke-width=".1" d="M133.18 44.21c0 4.52-1.07 8.28-2.46 9.07a1.2 1.2 0 0 1-.56.15 1.74 1.74 0 0 1-1.33-.94c-1-1.51-1.7-4.64-1.7-8.28s.69-6.76 1.7-8.26a1.73 1.73 0 0 1 1.33-1c.198.002.391.057.56.16 1.39.89 2.46 4.6 2.46 9.1Z"/><path fill="url(#c)" fill-rule="nonzero" d="M73.74 41.88h56.41v4.68H73.74z"/><path fill="url(#d)" fill-rule="nonzero" d="M8.87 33.3h92.77v29.22H8.87z"/><path fill="url(#e)" fill-rule="nonzero" d="M0 83.69h110.51v45.14H0z"/><path fill="url(#f)" fill-rule="nonzero" d="M101.64 33.3H8.87l6.31-12.61h80.15z"/><path fill="url(#g)" fill-rule="nonzero" d="M110.51 83.69H0l8.87-21.17h92.77z"/><path fill="url(#h)" fill-rule="nonzero" d="M110.51 128.83H0L8.87 150h92.77z"/><path fill="url(#i)" fill-rule="nonzero" d="M83.53.73h35.79v12.83H83.53z"/><path fill="url(#j)" fill-rule="nonzero" d="M82.34 0h38.17v1H82.34z"/><path fill="url(#k)" fill-rule="nonzero" d="M98.6 28.79h5.65v7.28H98.6z"/><path fill="url(#l)" fill-rule="nonzero" d="M103.9 28.79h-4.95L83.53 13.55h35.79z"/><path fill="#252628" fill-rule="nonzero" d="m65.42 36.07-1.89 1.89v19.29h38.11V36.07z" opacity=".6"/><path fill="#252629" fill-rule="nonzero" stroke="url(#m)" stroke-width=".1" d="M23.855 33.425h12.12v21.69h-12.12z" transform="rotate(90 29.915 44.27)"/><path fill="url(#n)" fill-rule="nonzero" d="M25.975 35.535h7.89v17.46h-7.89z" transform="rotate(90 29.92 44.265)"/><path fill="#45474d" fill-rule="nonzero" d="M23.75 42.01h12.33v3.87H23.75z"/><path fill="url(#o)" fill-rule="nonzero" d="M23.75 45.88v-3.87h12.34z"/><path fill="url(#p)" fill-rule="nonzero" d="M65.14 36h55.37v19.76H65.14z"/><circle cx="104.19" cy="44.22" r="9.22" fill="#252629" fill-rule="nonzero"/><ellipse cx="106.82" cy="44.22" fill="#515359" fill-rule="nonzero" stroke="url(#q)" stroke-width=".1" rx="7.81" ry="9.22"/><ellipse cx="106.82" cy="44.22" stroke="url(#r)" stroke-width=".1" rx="4.58" ry="5.4"/><path fill="#7c8084" fill-rule="nonzero" d="M7.37 94.87h10.65v18.19H7.37zm61.38.81h24.08v1.49H68.75zm0 4.31h24.08v6.27H68.75z"/><path fill="#cc543d" fill-rule="nonzero" d="M7.37 107.91h10.65v5.15H7.37z"/></g></svg>