<svg xmlns="http://www.w3.org/2000/svg" viewBox="0 0 92 151"><title>Can(金属罐)</title><defs><linearGradient id="a" x1="0%" x2="100%" y1="50%" y2="50%"><stop offset="0%" stop-color="#a9b1bb"/><stop offset="9%" stop-color="#61666b"/><stop offset="18%" stop-color="#696e73"/><stop offset="32%" stop-color="#7e8489"/><stop offset="49%" stop-color="#a1a7ae"/><stop offset="69%" stop-color="#d1d8e0"/><stop offset="75%" stop-color="#e2eaf2"/><stop offset="93%" stop-color="#9ba1ab"/><stop offset="100%" stop-color="#767b82"/></linearGradient><linearGradient id="b" x1="0%" x2="100%" y1="50%" y2="50%"><stop offset="0%" stop-color="#9299a1"/><stop offset="9%" stop-color="#4a4e51"/><stop offset="17%" stop-color="#525659"/><stop offset="29%" stop-color="#676b6f"/><stop offset="44%" stop-color="#898f94"/><stop offset="62%" stop-color="#b8bfc6"/><stop offset="75%" stop-color="#e2eaf2"/><stop offset="93%" stop-color="#848992"/><stop offset="100%" stop-color="#5f6368"/></linearGradient></defs><g fill="none" fill-rule="evenodd"><path fill="url(#a)" fill-rule="nonzero" d="M1.59 0h88.15v150H1.59z" transform="translate(0 .079)"/><path fill="url(#b)" fill-rule="nonzero" d="M0 0h91.33v5.44H0z" transform="translate(0 .079)"/><path fill="url(#b)" fill-rule="nonzero" d="M0 144.56h91.33V150H0z" transform="translate(0 .079)"/><path stroke="#d2dae6" stroke-width=".25" d="M1.59 41.629h88.15"/><path stroke="#5e6266" stroke-width=".25" d="M89.74 46.149H1.59"/><path stroke="#d2dae6" stroke-width=".25" d="M1.59 49.469h88.15"/><path stroke="#5e6266" stroke-width=".25" d="M89.74 53.989H1.59"/><path stroke="#d2dae6" stroke-width=".25" d="M1.59 57.299h88.15"/><path stroke="#5e6266" stroke-width=".25" d="M89.74 61.829H1.59"/><path stroke="#d2dae6" stroke-width=".25" d="M1.59 65.139h88.15"/><path stroke="#5e6266" stroke-width=".25" d="M89.74 69.659H1.59"/><path stroke="#d2dae6" stroke-width=".25" d="M1.59 72.979h88.15"/><path stroke="#5e6266" stroke-width=".25" d="M89.74 77.499H1.59"/><path stroke="#d2dae6" stroke-width=".25" d="M1.59 80.819h88.15"/><path stroke="#5e6266" stroke-width=".25" d="M89.74 85.339H1.59"/><path stroke="#d2dae6" stroke-width=".25" d="M1.59 88.659h88.15"/><path stroke="#5e6266" stroke-width=".25" d="M89.74 93.179H1.59"/><path stroke="#d2dae6" stroke-width=".25" d="M1.59 96.499h88.15"/><path stroke="#5e6266" stroke-width=".25" d="M89.74 101.019H1.59"/><path stroke="#d2dae6" stroke-width=".25" d="M1.59 104.329h88.15"/><path stroke="#5e6266" stroke-width=".25" d="M89.74 108.859H1.59"/></g></svg>