<svg xmlns="http://www.w3.org/2000/svg" viewBox="0 0 73 151"><title>Closer(密封器)</title><defs><linearGradient id="a" x1="0%" x2="100%" y1="50%" y2="50%"><stop offset="0%" stop-color="#a9b1bb"/><stop offset="9%" stop-color="#61666b"/><stop offset="18%" stop-color="#696e73"/><stop offset="32%" stop-color="#7e8489"/><stop offset="49%" stop-color="#a1a7ae"/><stop offset="69%" stop-color="#d1d8e0"/><stop offset="75%" stop-color="#e2eaf2"/><stop offset="93%" stop-color="#9ba1ab"/><stop offset="100%" stop-color="#767b82"/></linearGradient><linearGradient id="b" x1="0%" x2="100%" y1="50.011%" y2="50.011%"><stop offset="0%" stop-color="#a9b1bb"/><stop offset="9%" stop-color="#61666b"/><stop offset="18%" stop-color="#696e73"/><stop offset="32%" stop-color="#7e8489"/><stop offset="49%" stop-color="#a1a7ae"/><stop offset="69%" stop-color="#d1d8e0"/><stop offset="75%" stop-color="#e2eaf2"/><stop offset="93%" stop-color="#9ba1ab"/><stop offset="100%" stop-color="#767b82"/></linearGradient><linearGradient id="c" x1="0%" x2="100%" y1="50.016%" y2="50.016%"><stop offset="0%" stop-color="#a9b1bb"/><stop offset="9%" stop-color="#61666b"/><stop offset="18%" stop-color="#696e73"/><stop offset="32%" stop-color="#7e8489"/><stop offset="49%" stop-color="#a1a7ae"/><stop offset="69%" stop-color="#d1d8e0"/><stop offset="75%" stop-color="#e2eaf2"/><stop offset="93%" stop-color="#9ba1ab"/><stop offset="100%" stop-color="#767b82"/></linearGradient><linearGradient id="d" x1="98.09%" x2="1.91%" y1="5.605%" y2="94.416%"><stop offset="0%" stop-color="#abafb3"/><stop offset="100%" stop-color="#45484d"/></linearGradient><linearGradient id="e" x1="0%" x2="100%" y1="50.012%" y2="50.012%"><stop offset="0%" stop-color="#a9b1bb"/><stop offset="9%" stop-color="#61666b"/><stop offset="18%" stop-color="#696e73"/><stop offset="32%" stop-color="#7e8489"/><stop offset="49%" stop-color="#a1a7ae"/><stop offset="69%" stop-color="#d1d8e0"/><stop offset="75%" stop-color="#e2eaf2"/><stop offset="93%" stop-color="#9ba1ab"/><stop offset="100%" stop-color="#767b82"/></linearGradient><linearGradient id="f" x1="0%" x2="100%" y1="49.984%" y2="49.984%"><stop offset="0%" stop-color="#a9b1bb"/><stop offset="9%" stop-color="#61666b"/><stop offset="18%" stop-color="#696e73"/><stop offset="32%" stop-color="#7e8489"/><stop offset="49%" stop-color="#a1a7ae"/><stop offset="69%" stop-color="#d1d8e0"/><stop offset="75%" stop-color="#e2eaf2"/><stop offset="93%" stop-color="#9ba1ab"/><stop offset="100%" stop-color="#767b82"/></linearGradient></defs><g fill="none" fill-rule="evenodd"><path fill="url(#a)" fill-rule="nonzero" d="M2.87 0h67.06v54.74H2.87z" transform="translate(0 .079)"/><path fill="url(#b)" fill-rule="nonzero" d="M22.02 104.75h28.76V150H22.02z" transform="translate(0 .079)"/><path fill="url(#c)" fill-rule="nonzero" d="M10.24 104.75h52.32v31.89H10.24z" transform="translate(0 .079)"/><path fill="#252628" fill-rule="nonzero" d="M10.24 104.829h52.32v9.52H10.24z" opacity=".6"/><path fill="#fff" fill-rule="nonzero" d="M17.47 104.829h4.55v9.52h-4.55zm17.56 0h6.94v9.52h-6.94zm10.02 0h6.94v9.52h-6.94z" opacity=".6"/><path fill="url(#d)" fill-rule="nonzero" d="M14.41 64.14h43.98v40.61H14.41z" transform="translate(0 .079)"/><path fill="#252628" fill-rule="nonzero" d="M22.02 64.219h28.76v40.61H22.02z"/><path fill="url(#e)" fill-rule="nonzero" d="M30.67 64.14h11.46v40.61H30.67z" transform="translate(0 .079)"/><path fill="#767780" fill-rule="nonzero" d="m2.87 54.819 2.24 2.7v6.7h62.58v-6.7l2.24-2.7z"/><path fill="#252628" fill-rule="nonzero" d="M7.75 57.519h2.79v8.94H7.75zm4.59 0h2.79v8.94h-2.79zm4.58 0h2.79v8.94h-2.79zm4.58 0h2.79v8.94H21.5zm4.59 0h2.79v8.94h-2.79zm4.58 0h2.79v8.94h-2.79zm4.58 0h2.79v8.94h-2.79zm4.59 0h2.79v8.94h-2.79zm4.58 0h2.79v8.94h-2.79zm4.58 0h2.79v8.94H49zm4.59 0h2.79v8.94h-2.79zm4.58 0h2.79v8.94h-2.79zm4.58 0h2.79v8.94h-2.79z"/><path stroke="#252628" stroke-width=".25" d="M2.87 4.199h67.06" opacity=".6"/><path fill="url(#f)" fill-rule="nonzero" d="M0 9.03h72.8v32.05H0z" transform="translate(0 .079)"/><path fill="#fff" fill-rule="nonzero" d="M0 9.109h72.8v32.05H0z" opacity=".2"/></g></svg>