<svg xmlns="http://www.w3.org/2000/svg" viewBox="0 0 150 151"><title>Contamination-free positive displacement pump(无污染容积泵)</title><defs><linearGradient id="a" x1="88.541%" x2="15.572%" y1="30.092%" y2="68.527%"><stop offset="0%" stop-color="#abafb3"/><stop offset="100%" stop-color="#45484d"/></linearGradient><linearGradient id="b" x1="50%" x2="50%" y1="0%" y2="99.967%"><stop offset="0%" stop-color="#abafb3"/><stop offset="100%" stop-color="#45484d"/></linearGradient><linearGradient id="c" x1="81.911%" x2="18.113%" y1="6.601%" y2="93.366%"><stop offset="0%" stop-color="#d7dce0"/><stop offset="100%" stop-color="#8a9099"/></linearGradient><linearGradient id="d" x1="50.246%" x2="50.246%" y1="-.028%" y2="100%"><stop offset="0%" stop-color="#abafb3"/><stop offset="100%" stop-color="#45484d"/></linearGradient><linearGradient id="e" x1="51.494%" x2="48.507%" y1="23.565%" y2="76.407%"><stop offset="0%" stop-color="#d7dce0"/><stop offset="100%" stop-color="#8a9099"/></linearGradient><linearGradient id="f" x1="50.078%" x2="50.078%" y1="0%" y2="100%"><stop offset="0%" stop-color="#767b82"/><stop offset="7%" stop-color="#9ba1ab"/><stop offset="22%" stop-color="#e2eaf2"/><stop offset="94%" stop-color="#5d6166"/><stop offset="100%" stop-color="#a9b1bb"/></linearGradient><linearGradient id="g" x1="0%" x2="100.144%" y1="49.928%" y2="49.928%"><stop offset="0%" stop-color="#9ba1ab"/><stop offset="0%" stop-color="#abb1ba"/><stop offset="9%" stop-color="#abb1ba"/><stop offset="46%" stop-color="#f5faff"/><stop offset="100%" stop-color="#a9b1bb"/></linearGradient><linearGradient id="h" x1="81.911%" x2="18.113%" y1="6.634%" y2="93.399%"><stop offset="0%" stop-color="#d7dce0"/><stop offset="100%" stop-color="#8a9099"/></linearGradient><linearGradient id="i" x1="51.494%" x2="48.507%" y1="23.593%" y2="76.407%"><stop offset="0%" stop-color="#d7dce0"/><stop offset="100%" stop-color="#8a9099"/></linearGradient><linearGradient id="j" x1="50.078%" x2="50.078%" y1="0%" y2="100%"><stop offset="0%" stop-color="#767b82"/><stop offset="7%" stop-color="#9ba1ab"/><stop offset="22%" stop-color="#e2eaf2"/><stop offset="94%" stop-color="#5d6166"/><stop offset="100%" stop-color="#a9b1bb"/></linearGradient><linearGradient id="k" x1="0%" x2="100%" y1="50.072%" y2="50.072%"><stop offset="0%" stop-color="#9ba1ab"/><stop offset="0%" stop-color="#abb1ba"/><stop offset="9%" stop-color="#abb1ba"/><stop offset="46%" stop-color="#f5faff"/><stop offset="100%" stop-color="#a9b1bb"/></linearGradient><linearGradient id="l" x1="85.304%" x2="14.688%" y1="14.641%" y2="85.303%"><stop offset="0%" stop-color="#abafb3"/><stop offset="100%" stop-color="#45484d"/></linearGradient><linearGradient id="m" x1=".064%" x2="100.21%" y1="50.074%" y2="50.074%"><stop offset="0%" stop-color="#9ba1ab"/><stop offset="0%" stop-color="#abb1ba"/><stop offset="9%" stop-color="#abb1ba"/><stop offset="46%" stop-color="#f5faff"/><stop offset="100%" stop-color="#a9b1bb"/></linearGradient><linearGradient id="n" x1=".064%" x2="100.21%" y1="50.204%" y2="50.204%"><stop offset="0%" stop-color="#9ba1ab"/><stop offset="0%" stop-color="#abb1ba"/><stop offset="9%" stop-color="#abb1ba"/><stop offset="46%" stop-color="#f5faff"/><stop offset="100%" stop-color="#a9b1bb"/></linearGradient><linearGradient id="o" x1="-.038%" x2="100.107%" y1="49.844%" y2="49.844%"><stop offset="0%" stop-color="#9ba1ab"/><stop offset="0%" stop-color="#abb1ba"/><stop offset="9%" stop-color="#abb1ba"/><stop offset="46%" stop-color="#f5faff"/><stop offset="100%" stop-color="#a9b1bb"/></linearGradient><linearGradient id="p" x1="-.147%" x2="99.998%" y1="49.844%" y2="49.844%"><stop offset="0%" stop-color="#9ba1ab"/><stop offset="0%" stop-color="#abb1ba"/><stop offset="9%" stop-color="#abb1ba"/><stop offset="46%" stop-color="#f5faff"/><stop offset="100%" stop-color="#a9b1bb"/></linearGradient><linearGradient id="q" x1="-.239%" x2="100%" y1="50.239%" y2="50.239%"><stop offset="0%" stop-color="#9ba1ab"/><stop offset="0%" stop-color="#abb1ba"/><stop offset="9%" stop-color="#abb1ba"/><stop offset="46%" stop-color="#f5faff"/><stop offset="100%" stop-color="#a9b1bb"/></linearGradient><linearGradient id="r" x1="0%" x2="100.239%" y1="50.239%" y2="50.239%"><stop offset="0%" stop-color="#9ba1ab"/><stop offset="0%" stop-color="#abb1ba"/><stop offset="9%" stop-color="#abb1ba"/><stop offset="46%" stop-color="#f5faff"/><stop offset="100%" stop-color="#a9b1bb"/></linearGradient><linearGradient id="s" x1="-.239%" x2="99.761%" y1="50%" y2="50%"><stop offset="0%" stop-color="#9ba1ab"/><stop offset="0%" stop-color="#abb1ba"/><stop offset="9%" stop-color="#abb1ba"/><stop offset="46%" stop-color="#f5faff"/><stop offset="100%" stop-color="#a9b1bb"/></linearGradient><linearGradient id="t" x1="0%" x2="100%" y1="50%" y2="50%"><stop offset="0%" stop-color="#9ba1ab"/><stop offset="0%" stop-color="#abb1ba"/><stop offset="9%" stop-color="#abb1ba"/><stop offset="46%" stop-color="#f5faff"/><stop offset="100%" stop-color="#a9b1bb"/></linearGradient><linearGradient id="u" x1=".043%" x2="100.228%" y1="50.078%" y2="50.145%"><stop offset="0%" stop-color="#9ba1ab"/><stop offset="0%" stop-color="#abb1ba"/><stop offset="9%" stop-color="#abb1ba"/><stop offset="46%" stop-color="#f5faff"/><stop offset="100%" stop-color="#a9b1bb"/></linearGradient><linearGradient id="v" x1=".066%" x2="100.25%" y1="49.977%" y2="50.043%"><stop offset="0%" stop-color="#9ba1ab"/><stop offset="0%" stop-color="#abb1ba"/><stop offset="9%" stop-color="#abb1ba"/><stop offset="46%" stop-color="#f5faff"/><stop offset="100%" stop-color="#a9b1bb"/></linearGradient><linearGradient id="w" x1="22.522%" x2="122.244%" y1="26.9%" y2="26.866%"><stop offset="0%" stop-color="#9ba1ab"/><stop offset="0%" stop-color="#abb1ba"/><stop offset="9%" stop-color="#abb1ba"/><stop offset="46%" stop-color="#f5faff"/><stop offset="100%" stop-color="#a9b1bb"/></linearGradient><linearGradient id="x" x1="34.464%" x2="134.278%" y1="24.885%" y2="24.632%"><stop offset="0%" stop-color="#9ba1ab"/><stop offset="0%" stop-color="#abb1ba"/><stop offset="9%" stop-color="#abb1ba"/><stop offset="46%" stop-color="#f5faff"/><stop offset="100%" stop-color="#a9b1bb"/></linearGradient><linearGradient id="y" x1=".082%" x2="100.358%" y1="49.975%" y2="50.13%"><stop offset="0%" stop-color="#9ba1ab"/><stop offset="0%" stop-color="#abb1ba"/><stop offset="9%" stop-color="#abb1ba"/><stop offset="46%" stop-color="#f5faff"/><stop offset="100%" stop-color="#a9b1bb"/></linearGradient><linearGradient id="z" x1="-.02%" x2="100.256%" y1="49.998%" y2="50.153%"><stop offset="0%" stop-color="#9ba1ab"/><stop offset="0%" stop-color="#abb1ba"/><stop offset="9%" stop-color="#abb1ba"/><stop offset="46%" stop-color="#f5faff"/><stop offset="100%" stop-color="#a9b1bb"/></linearGradient><linearGradient id="A" x1=".02%" x2="100.205%" y1="49.808%" y2="49.742%"><stop offset="0%" stop-color="#9ba1ab"/><stop offset="0%" stop-color="#abb1ba"/><stop offset="9%" stop-color="#abb1ba"/><stop offset="46%" stop-color="#f5faff"/><stop offset="100%" stop-color="#a9b1bb"/></linearGradient><linearGradient id="B" x1=".043%" x2="100.228%" y1="49.91%" y2="49.843%"><stop offset="0%" stop-color="#9ba1ab"/><stop offset="0%" stop-color="#abb1ba"/><stop offset="9%" stop-color="#abb1ba"/><stop offset="46%" stop-color="#f5faff"/><stop offset="100%" stop-color="#a9b1bb"/></linearGradient><linearGradient id="C" x1="0%" x2="99.999%" y1="49.951%" y2="49.951%"><stop offset="0%" stop-color="#767b82"/><stop offset="8%" stop-color="#9ba1ab"/><stop offset="91%" stop-color="#9ba1ab"/><stop offset="96%" stop-color="#d7dce0"/><stop offset="98%" stop-color="#767b82"/></linearGradient><linearGradient id="D" x1="100.07%" x2=".07%" y1="49.983%" y2="49.983%"><stop offset="0%" stop-color="#767b82"/><stop offset="8%" stop-color="#9ba1ab"/><stop offset="91%" stop-color="#9ba1ab"/><stop offset="96%" stop-color="#d7dce0"/><stop offset="98%" stop-color="#767b82"/></linearGradient><linearGradient id="E" x1="82.63%" x2="17.417%" y1="6.342%" y2="93.658%"><stop offset="0%" stop-color="#ebf0f5"/><stop offset="100%" stop-color="#b8c0cc"/></linearGradient><linearGradient id="F" x1="82.583%" x2="17.417%" y1="6.342%" y2="93.658%"><stop offset="0%" stop-color="#ebf0f5"/><stop offset="100%" stop-color="#b8c0cc"/></linearGradient><linearGradient id="G" x1="81.017%" x2="18.983%" y1="13.692%" y2="86.308%"><stop offset="0%" stop-color="#ebf0f5"/><stop offset="100%" stop-color="#b8c0cc"/></linearGradient><linearGradient id="H" x1="78.184%" x2="21.816%" y1="14.949%" y2="85.051%"><stop offset="0%" stop-color="#494b4d"/><stop offset="100%" stop-color="#2e3033"/></linearGradient><linearGradient id="I" x1="83.519%" x2="8.498%" y1="29.131%" y2="66.781%"><stop offset="0%" stop-color="#ebf0f5"/><stop offset="100%" stop-color="#b8c0cc"/></linearGradient></defs><g fill="none" fill-rule="nonzero" transform="translate(0 .079)"><path fill="url(#a)" d="m121.42 133.61-59.47-13.28L9 132.53 2.04 72.5l119.38-1.77z"/><path fill="url(#b)" d="M119.96 5.5H81.42v30.45h42.04V5.5z"/><path fill="url(#c)" d="M141.95 5.5h-20.53v30.45h22.39V5.5z"/><path fill="url(#d)" d="M121.25 2.69h-1.86v36.07h2.03V2.69z"/><path fill="url(#e)" d="M123.29 2.69h-1.87v36.07h2.04V2.69z"/><path fill="url(#f)" d="M149.47 0h-5.86v41.44H150V0z"/><path fill="url(#g)" stroke="#505458" stroke-width=".08" d="M114.44 8.97h-2.89l-2.04 2.04v2.89l2.04 2.04h2.89l2.03-2.04v-2.89z"/><path fill="url(#h)" d="M141.95 87.07h-20.53v30.45h22.39V87.07z"/><path fill="url(#i)" d="M123.29 84.26h-1.87v36.07h2.04V84.26z"/><path fill="url(#j)" d="M149.47 81.57h-5.86v41.45H150V81.57z"/><path fill="url(#k)" stroke="#505458" stroke-width=".08" d="M117.21 106.47h-2.89l-2.04 2.04v2.89l2.04 2.04h2.89l2.04-2.04v-2.89z"/><path fill="url(#l)" d="M123.7 57.17a1.3 1.3 0 0 1 0-.2C121.249 26.908 97.52 2.972 67.48.26 65.67.08 63.81 0 61.93 0c-1.49 0-3 .06-4.41.16C27.007 2.37 2.666 26.506.2 57c-.14 1.61-.2 3.28-.2 5s.06 3.33.2 5c2.448 30.497 26.802 54.635 57.32 56.81 1.45.1 2.92.16 4.41.16 1.88 0 3.74-.08 5.55-.24 30.042-2.718 53.769-26.664 56.21-56.73.14-1.63.2-3.29.2-5s-.06-3.26-.19-4.83"/><circle cx="62.5" cy="116.21" r="2.09" fill="url(#m)" stroke="#505458" stroke-width=".08"/><circle cx="62.5" cy="6.9" r="2.09" fill="url(#n)" stroke="#505458" stroke-width=".08"/><circle cx="117.15" cy="61.56" r="2.09" fill="url(#o)" stroke="#505458" stroke-width=".08"/><circle cx="7.85" cy="61.56" r="2.09" fill="url(#p)" stroke="#505458" stroke-width=".08"/><circle cx="101.15" cy="100.2" r="2.09" fill="url(#q)" stroke="#505458" stroke-width=".08"/><circle cx="23.85" cy="22.91" r="2.09" fill="url(#r)" stroke="#505458" stroke-width=".08"/><circle cx="101.15" cy="22.91" r="2.09" fill="url(#s)" stroke="#505458" stroke-width=".08"/><circle cx="23.85" cy="100.2" r="2.09" fill="url(#t)" stroke="#505458" stroke-width=".08"/><circle cx="83.41" cy="112.05" r="2.09" fill="url(#u)" stroke="#505458" stroke-width=".08"/><circle cx="41.58" cy="11.07" r="2.09" fill="url(#v)" stroke="#505458" stroke-width=".08"/><circle cx="112.99" cy="40.64" r="2.09" fill="url(#w)" stroke="#505458" stroke-width=".08"/><circle cx="12.01" cy="82.47" r="2.09" fill="url(#x)" stroke="#505458" stroke-width=".08"/><circle cx="112.99" cy="82.47" r="2.09" fill="url(#y)" stroke="#505458" stroke-width=".08"/><circle cx="12.01" cy="40.64" r="2.09" fill="url(#z)" stroke="#505458" stroke-width=".08"/><circle cx="83.41" cy="11.07" r="2.09" fill="url(#A)" stroke="#505458" stroke-width=".08"/><circle cx="41.58" cy="112.05" r="2.09" fill="url(#B)" stroke="#505458" stroke-width=".08"/><path fill="url(#C)" d="M19.07 119.25v28.47a2.26 2.26 0 0 1-2.26 2.28H4.88v-4.54h7.41a2.26 2.26 0 0 0 2.26-2.26v-23.95z"/><path fill="url(#D)" d="M102.35 120.25v27.47a2.26 2.26 0 0 0 2.26 2.26h11.93v-4.54h-7.41a2.26 2.26 0 0 1-2.26-2.26v-22.93z"/><path fill="url(#E)" d="M29.09 51.62h11.65v15.61H29.09z"/><path fill="url(#F)" d="M41.7 51.62h11.65v15.61H41.7z"/><path fill="url(#G)" d="m68.14 79.88-8.22-20.45 8.22-20.45h18.5l8.22 20.45-8.22 20.45z"/><path fill="url(#H)" d="M84.1 42.74H70.68l-6.71 16.69 6.71 16.69H84.1l6.71-16.69z"/><path fill="url(#I)" d="m83.21 57.45-11.65 1.89V53.5h11.65z"/></g></svg>