<svg xmlns="http://www.w3.org/2000/svg" viewBox="0 0 151 68"><title>Cross belt separator(传送带分离器)</title><defs><linearGradient id="a" x1="50%" x2="50%" y1="100.13%" y2="0%"><stop offset="0%" stop-color="#5c6066"/><stop offset="100%" stop-color="#dce1e6"/></linearGradient><linearGradient id="b" x1="0%" x2="100%" y1="50%" y2="50%"><stop offset="0%" stop-color="#dce1e6"/><stop offset="100%" stop-color="#5c6066"/></linearGradient><linearGradient id="c" x1="-2.553%" x2="102.553%" y1="50%" y2="50%"><stop offset="0%" stop-color="#dce1e6"/><stop offset="100%" stop-color="#5c6066"/></linearGradient><linearGradient id="d" x1=".282%" x2="100%" y1="50%" y2="50%"><stop offset="0%" stop-color="#dce1e6"/><stop offset="100%" stop-color="#5c6066"/></linearGradient><linearGradient id="e" x1=".14%" x2="100%" y1="50%" y2="50%"><stop offset="0%" stop-color="#767b82"/><stop offset="1%" stop-color="#d7dce0"/><stop offset="2%" stop-color="#9ba1ab"/><stop offset="98%" stop-color="#9ba1ab"/><stop offset="100%" stop-color="#767b82"/></linearGradient><linearGradient id="f" x1=".543%" x2="100%" y1="50%" y2="50%"><stop offset="0%" stop-color="#61666b"/><stop offset="7%" stop-color="#696e73"/><stop offset="18%" stop-color="#7e8489"/><stop offset="32%" stop-color="#a1a7ae"/><stop offset="48%" stop-color="#d1d8e0"/><stop offset="53%" stop-color="#e2eaf2"/><stop offset="100%" stop-color="#767b82"/></linearGradient><linearGradient id="g" x1="50%" x2="50%" y1="150.259%" y2="250.389%"><stop offset="0%" stop-color="#5c6066"/><stop offset="100%" stop-color="#dce1e6"/></linearGradient><linearGradient id="h" x1="0%" x2="100%" y1="50%" y2="50%"><stop offset="0%" stop-color="#dce1e6"/><stop offset="100%" stop-color="#5c6066"/></linearGradient><linearGradient id="i" x1="0%" x2="99.718%" y1="50%" y2="50%"><stop offset="0%" stop-color="#dce1e6"/><stop offset="100%" stop-color="#5c6066"/></linearGradient><linearGradient id="j" x1="0%" x2="99.457%" y1="50%" y2="50%"><stop offset="0%" stop-color="#61666b"/><stop offset="7%" stop-color="#696e73"/><stop offset="18%" stop-color="#7e8489"/><stop offset="32%" stop-color="#a1a7ae"/><stop offset="48%" stop-color="#d1d8e0"/><stop offset="53%" stop-color="#e2eaf2"/><stop offset="100%" stop-color="#767b82"/></linearGradient><linearGradient id="k" x1="50%" x2="50%" y1="100%" y2=".042%"><stop offset="0%" stop-color="#5c6066"/><stop offset="100%" stop-color="#dce1e6"/></linearGradient><linearGradient id="l" x1="50.001%" x2="50.001%" y1="99.956%" y2="0%"><stop offset="0%" stop-color="#dce1e6"/><stop offset="100%" stop-color="#5c6066"/></linearGradient><linearGradient id="m" x1="50%" x2="50%" y1="100%" y2="0%"><stop offset="0%" stop-color="#929699"/><stop offset="100%" stop-color="#2e3033"/></linearGradient><linearGradient id="n" x1="50%" x2="50%" y1="101.167%" y2="-1.077%"><stop offset="0%" stop-color="#dce1e6"/><stop offset="100%" stop-color="#5c6066"/></linearGradient><linearGradient id="o" x1="50%" x2="50%" y1="100%" y2="0%"><stop offset="0%" stop-color="#dce1e6"/><stop offset="100%" stop-color="#5c6066"/></linearGradient><linearGradient id="p" x1="50.085%" x2="50.085%" y1="99.956%" y2="0%"><stop offset="0%" stop-color="#dce1e6"/><stop offset="100%" stop-color="#5c6066"/></linearGradient><linearGradient id="q" x1="0%" x2="99.917%" y1="50%" y2="50%"><stop offset="0%" stop-color="#767b82"/><stop offset="2%" stop-color="#9ba1ab"/><stop offset="98%" stop-color="#9ba1ab"/><stop offset="99%" stop-color="#d7dce0"/><stop offset="100%" stop-color="#767b82"/></linearGradient><linearGradient id="r" x1="0%" x2="99.917%" y1="50%" y2="50%"><stop offset="0%" stop-color="#9ba1ab" stop-opacity="0"/><stop offset="100%" stop-color="#2e3033"/></linearGradient><linearGradient id="s" x1="0%" x2="100.45%" y1="50%" y2="50%"><stop offset="0%" stop-color="#767b82"/><stop offset="2%" stop-color="#9ba1ab"/><stop offset="98%" stop-color="#9ba1ab"/><stop offset="99%" stop-color="#d7dce0"/><stop offset="100%" stop-color="#767b82"/></linearGradient><linearGradient id="t" x1="0%" x2="100%" y1="50.007%" y2="50.007%"><stop offset="0%" stop-color="#767b82"/><stop offset="2%" stop-color="#9ba1ab"/><stop offset="98%" stop-color="#9ba1ab"/><stop offset="99%" stop-color="#d7dce0"/><stop offset="100%" stop-color="#767b82"/></linearGradient><linearGradient id="u" x1=".063%" x2="100.063%" y1="50%" y2="50%"><stop offset="0%" stop-color="#767b82"/><stop offset="1%" stop-color="#d7dce0"/><stop offset="2%" stop-color="#9ba1ab"/><stop offset="98%" stop-color="#9ba1ab"/><stop offset="100%" stop-color="#767b82"/></linearGradient><linearGradient id="v" x1="0%" x2="100%" y1="50%" y2="50%"><stop offset="0%" stop-color="#9ba1ab" stop-opacity="0"/><stop offset="100%" stop-color="#2e3033"/></linearGradient><linearGradient id="w" x1="0%" x2="100%" y1="49.959%" y2="49.959%"><stop offset="0%" stop-color="#767b82"/><stop offset="2%" stop-color="#9ba1ab"/><stop offset="98%" stop-color="#9ba1ab"/><stop offset="99%" stop-color="#d7dce0"/><stop offset="100%" stop-color="#767b82"/></linearGradient><linearGradient id="x" x1="50%" x2="50%" y1="100.397%" y2="0%"><stop offset="0%" stop-color="#9ba1ab"/><stop offset="0%" stop-color="#abb1ba"/><stop offset="9%" stop-color="#abb1ba"/><stop offset="46%" stop-color="#d7dce0"/><stop offset="100%" stop-color="#a9b1bb"/></linearGradient><linearGradient id="y" x1="50%" x2="50%" y1="-1011.111%" y2="-910.714%"><stop offset="0%" stop-color="#9ba1ab"/><stop offset="0%" stop-color="#abb1ba"/><stop offset="9%" stop-color="#abb1ba"/><stop offset="46%" stop-color="#d7dce0"/><stop offset="100%" stop-color="#a9b1bb"/></linearGradient><linearGradient id="z" x1="50%" x2="50%" y1="-534.921%" y2="-434.524%"><stop offset="0%" stop-color="#9ba1ab"/><stop offset="0%" stop-color="#abb1ba"/><stop offset="9%" stop-color="#abb1ba"/><stop offset="46%" stop-color="#d7dce0"/><stop offset="100%" stop-color="#a9b1bb"/></linearGradient><linearGradient id="A" x1="0%" x2="100%" y1="50.008%" y2="50.008%"><stop offset="0%" stop-color="#767b82"/><stop offset="1%" stop-color="#d7dce0"/><stop offset="2%" stop-color="#9ba1ab"/><stop offset="98%" stop-color="#9ba1ab"/><stop offset="100%" stop-color="#767b82"/></linearGradient></defs><g fill="none" fill-rule="nonzero"><path fill="#252628" d="M148.89 12.689a9.56 9.56 0 1 0-15.68 7.33v11.4h13.68v-12.9a9.52 9.52 0 0 0 2-5.83"/><circle cx="46.27" cy="24.279" r="3.86" fill="url(#a)"/><path fill="url(#b)" d="M46.27 20.669a3.61 3.61 0 1 1 0 7.22 3.61 3.61 0 0 1 0-7.22m0-.25a3.86 3.86 0 1 0 0 7.72 3.86 3.86 0 0 0 0-7.72"/><circle cx="46.27" cy="24.279" r="2.35" fill="#252628" stroke="url(#c)" stroke-width=".25"/><circle cx="46.27" cy="24.279" r="1.77" fill="url(#d)"/><path fill="url(#e)" d="M42.7 22.689h7.14v10.32H42.7z" transform="rotate(-90 46.27 27.849)"/><circle cx="46.27" cy="24.279" r="1" fill="url(#f)"/><circle cx="102.35" cy="24.279" r="3.86" fill="url(#g)"/><path fill="url(#h)" d="M102.35 20.669a3.61 3.61 0 1 1 0 7.22 3.61 3.61 0 0 1 0-7.22m0-.25a3.86 3.86 0 1 0 0 7.72 3.86 3.86 0 0 0 0-7.72"/><circle cx="102.35" cy="24.279" r="2.35" fill="#252628" stroke="url(#c)" stroke-width=".25"/><circle cx="102.35" cy="24.279" r="1.77" fill="url(#i)"/><path fill="url(#e)" d="M98.78 22.689h7.14v10.32h-7.14z" transform="rotate(-90 102.35 27.849)"/><circle cx="102.35" cy="24.279" r="1" fill="url(#j)"/><path fill="#5c6066" d="M100.77 15.779h-2v4h2zm-32 0h-2v4h2zm-33.31 5.57-1.55 1.27 2.54 3.09 1.12-.92.41-.33-2.54-3.09zM14 47.869v2.08h4v-1.86l-4-.08zm27.18 16.05h-2v4h2zm32 0h-2v4h2zm32 0h-2v4h2zm26.39-11.9a16 16 0 0 1-.45 1.5l-.08.21 3.73 1.44q.45-1.177.75-2.4l-3.88-1zm-13.69-27.94-2.53 3.09 1.54 1.27 2.54-3.09z"/><path fill="#5c6066" d="M100.77 20.779a14.54 14.54 0 0 1 9.23 3.3l15.67 12.87a14.65 14.65 0 0 1 5.33 11.34c0 9.48-2.33 14.63-14.58 14.63H30a11 11 0 0 1-11-11.05v-3.58a14.6 14.6 0 0 1 5.35-11.33L40 24.079a14.54 14.54 0 0 1 9.22-3.3h51.54m0-1H49.23a15.54 15.54 0 0 0-9.86 3.53l-15.68 12.88a15.67 15.67 0 0 0-5.69 12.1v3.58a12 12 0 0 0 12 12.05h86.46c13 0 15.58-5.91 15.58-15.63a15.66 15.66 0 0 0-5.73-12.11l-15.68-12.87a15.54 15.54 0 0 0-9.86-3.53z"/><circle cx="29.82" cy="51.839" r="11.84" fill="url(#k)"/><path fill="url(#l)" d="M29.82 40.759a11.09 11.09 0 1 1-11.09 11.08c.011-6.119 4.971-11.075 11.09-11.08m0-.75a11.84 11.84 0 1 0 11.84 11.83c-.006-6.535-5.305-11.83-11.84-11.83"/><circle cx="29.82" cy="51.839" r="10.88" fill="url(#m)"/><circle cx="29.82" cy="51.839" r="5.57" fill="#252628" stroke="url(#n)" stroke-width=".25"/><circle cx="29.82" cy="51.839" r="3.61" fill="url(#o)"/><circle cx="120.18" cy="51.839" r="11.84" fill="url(#k)"/><path fill="url(#p)" d="M120.18 40.759a11.09 11.09 0 1 1-11.09 11.08c.011-6.119 4.971-11.075 11.09-11.08m0-.75A11.84 11.84 0 1 0 132 51.839c-.006-6.535-5.305-11.83-11.84-11.83z"/><circle cx="120.18" cy="51.839" r="10.88" fill="url(#m)"/><circle cx="120.18" cy="51.839" r="5.57" fill="#252628" stroke="url(#n)" stroke-width=".25"/><circle cx="120.18" cy="51.839" r="3.61" fill="url(#o)"/><path fill="url(#q)" d="M68.965-35.336h12.07v150h-12.07z" transform="rotate(-90 75 39.664)"/><path fill="url(#r)" d="M68.965-35.336h12.07v150h-12.07z" opacity=".2" transform="rotate(-90 75 39.664)"/><path fill="url(#s)" d="M73.89-42.471h2.22v150h-2.22z" transform="rotate(-90 75 32.529)"/><path fill="url(#t)" d="M73.89-28.191h2.22v150h-2.22z" transform="rotate(-90 75 46.809)"/><path fill="url(#u)" d="M67.005 24.594h15.99v62.66h-15.99z" transform="rotate(-90 75 55.924)"/><path fill="url(#v)" d="M71 20.589h8v62.66h-8z" opacity=".2" transform="rotate(-90 75 51.919)"/><path fill="url(#w)" d="M37.63 33.639h2.27v12.07h-2.27z"/><path fill="url(#w)" d="M107.63 33.639h2.27v12.07h-2.27z"/><circle cx="3.67" cy="36.819" r="1.26" fill="url(#x)" stroke="#505458" stroke-width=".25"/><circle cx="3.67" cy="42.819" r="1.26" fill="url(#y)" stroke="#505458" stroke-width=".25"/><circle cx="43.67" cy="36.819" r="1.26" fill="url(#z)" stroke="#505458" stroke-width=".25"/><circle cx="43.67" cy="42.819" r="1.26" fill="url(#y)" stroke="#505458" stroke-width=".25"/><circle cx="104.67" cy="36.819" r="1.26" fill="url(#z)" stroke="#505458" stroke-width=".25"/><circle cx="104.67" cy="42.819" r="1.26" fill="url(#y)" stroke="#505458" stroke-width=".25"/><circle cx="145.67" cy="36.819" r="1.26" fill="url(#z)" stroke="#505458" stroke-width=".25"/><circle cx="145.67" cy="42.819" r="1.26" fill="url(#y)" stroke="#505458" stroke-width=".25"/><rect width="18.76" height="61.39" x="120.031" y="1.095" fill="url(#A)" rx="9.38" transform="rotate(24.91 129.41 31.79)"/></g></svg>