<svg xmlns="http://www.w3.org/2000/svg" viewBox="0 0 150 87"><title>Filling system(充填系统)</title><defs><linearGradient id="a" x1="100%" x2="0%" y1="0%" y2="100%"><stop offset="0%" stop-color="#c4c8cc"/><stop offset="100%" stop-color="#8a9099"/></linearGradient><linearGradient id="b" x1="63.095%" x2="36.889%" y1="15.496%" y2="84.504%"><stop offset="0%" stop-color="#abafb3"/><stop offset="100%" stop-color="#45484d"/></linearGradient><linearGradient id="c" x1="81.448%" x2="18.552%" y1="6.788%" y2="93.212%"><stop offset="0%" stop-color="#c4c8cc"/><stop offset="100%" stop-color="#8a9099"/></linearGradient><linearGradient id="d" x1="90.804%" x2="9.196%" y1="24.205%" y2="75.795%"><stop offset="0%" stop-color="#c4c8cc"/><stop offset="100%" stop-color="#8a9099"/></linearGradient><linearGradient id="e" x1="51.308%" x2="48.694%" y1="23.735%" y2="76.226%"><stop offset="0%" stop-color="#dce1e6"/><stop offset="100%" stop-color="#8a9099"/></linearGradient><linearGradient id="f" x1="51.306%" x2="48.692%" y1="-1876.809%" y2="-1929.3%"><stop offset="0%" stop-color="#dce1e6"/><stop offset="100%" stop-color="#8a9099"/></linearGradient><linearGradient id="g" x1="94.375%" x2="5.625%" y1="15.575%" y2="84.425%"><stop offset="0%" stop-color="#c4c8cc"/><stop offset="100%" stop-color="#8a9099"/></linearGradient><linearGradient id="h" x1="51.308%" x2="48.694%" y1="-1876.809%" y2="-1929.3%"><stop offset="0%" stop-color="#dce1e6"/><stop offset="100%" stop-color="#8a9099"/></linearGradient><linearGradient id="i" x1="0%" x2="100%" y1="49.908%" y2="49.908%"><stop offset="0%" stop-color="#767b82"/><stop offset="1%" stop-color="#5c6066"/><stop offset="88%" stop-color="#7a7d80"/><stop offset="94%" stop-color="#767b82"/><stop offset="100%" stop-color="#b9c0cc"/></linearGradient><linearGradient id="j" x1="0%" x2="100%" y1="49.929%" y2="49.929%"><stop offset="0%" stop-color="#767b82"/><stop offset="1%" stop-color="#5c6066"/><stop offset="88%" stop-color="#7a7d80"/><stop offset="94%" stop-color="#767b82"/><stop offset="100%" stop-color="#b9c0cc"/></linearGradient><linearGradient id="k" x1="0%" x2="100.488%" y1="49.908%" y2="49.908%"><stop offset="0%" stop-color="#767b82"/><stop offset="1%" stop-color="#5c6066"/><stop offset="88%" stop-color="#7a7d80"/><stop offset="94%" stop-color="#767b82"/><stop offset="100%" stop-color="#b9c0cc"/></linearGradient><linearGradient id="l" x1="62.806%" x2="37.187%" y1="15.675%" y2="84.325%"><stop offset="0%" stop-color="#c4c8cc"/><stop offset="100%" stop-color="#8a9099"/></linearGradient><linearGradient id="m" x1="91.418%" x2="8.582%" y1="22.8%" y2="77.2%"><stop offset="0%" stop-color="#c4c8cc"/><stop offset="100%" stop-color="#8a9099"/></linearGradient><linearGradient id="n" x1="94.08%" x2="5.92%" y1="16.317%" y2="83.683%"><stop offset="0%" stop-color="#c4c8cc"/><stop offset="100%" stop-color="#8a9099"/></linearGradient></defs><g fill="none" fill-rule="evenodd"><path fill="#2f3033" fill-rule="nonzero" d="M9.6 79.829h9.19v1H9.6z"/><path fill="#47484d" fill-rule="nonzero" d="M18.78 81.409H150v1H18.78z"/><path fill="url(#a)" fill-rule="nonzero" d="M18.78 55.55h25.78v25.78H18.78z" transform="translate(0 .079)"/><path fill="url(#b)" fill-rule="nonzero" d="M9.6 55.55h9.19v24.2H9.6z" transform="translate(0 .079)"/><path fill="url(#c)" fill-rule="nonzero" d="M131.23 55.55H150v25.78h-18.77z" transform="translate(0 .079)"/><path fill="url(#d)" fill-rule="nonzero" d="M46.23 55.55h40.78v25.78H46.23z" transform="translate(0 .079)"/><path fill="#494d53" fill-rule="nonzero" d="M44.56 55.709h1.67v25.7h-1.67z"/><path fill="#dde4ec" fill-rule="nonzero" d="M44.75 55.709h1.47v25.7h-1.47z"/><path fill="url(#e)" fill-rule="nonzero" d="M44.75 55.63h1.28v25.7h-1.28z" transform="translate(0 .079)"/><path fill="#494d53" fill-rule="nonzero" d="M87.01 55.709h1.67v25.7h-1.67z"/><path fill="#dde4ec" fill-rule="nonzero" d="M87.21 55.709h1.47v25.7h-1.47z"/><path fill="url(#f)" fill-rule="nonzero" d="M87.21 55.63h1.28v25.7h-1.28z" transform="translate(0 .079)"/><path fill="url(#g)" fill-rule="nonzero" d="M0 36.94h24v18.61H0z" transform="translate(0 .079)"/><path fill="#5f6266" fill-rule="nonzero" d="M5.99 38.379h16.97v12.42H5.99z"/><path fill="#303133" fill-rule="nonzero" d="M5.99 51.849h16.93v2.69H5.99z"/><path fill="url(#d)" fill-rule="nonzero" d="M88.68 55.55h40.78v25.78H88.68z" transform="translate(0 .079)"/><path fill="#494d53" fill-rule="nonzero" d="M129.56 55.709h1.67v25.7h-1.67z"/><path fill="#dde4ec" fill-rule="nonzero" d="M129.75 55.709h1.47v25.7h-1.47z"/><path fill="url(#h)" fill-rule="nonzero" d="M129.75 55.63h1.28v25.7h-1.28z" transform="translate(0 .079)"/><path fill="url(#i)" fill-rule="nonzero" d="M33.55 81.33h2.05v5.45h-2.05z" transform="translate(0 .079)"/><path fill="url(#j)" fill-rule="nonzero" d="M11.6 79.75h2.05v7.03H11.6z" transform="translate(0 .079)"/><path fill="url(#k)" fill-rule="nonzero" d="M60.93 81.33h2.05v5.45h-2.05z" transform="translate(0 .079)"/><path fill="url(#i)" fill-rule="nonzero" d="M91.81 81.33h2.05v5.45h-2.05z" transform="translate(0 .079)"/><path fill="url(#i)" fill-rule="nonzero" d="M121.51 81.33h2.05v5.45h-2.05z" transform="translate(0 .079)"/><path fill="url(#i)" fill-rule="nonzero" d="M145.33 81.33h2.05v5.45h-2.05z" transform="translate(0 .079)"/><path fill="url(#l)" fill-rule="nonzero" d="M24 0h20.76v55.63H24z" transform="translate(0 .079)"/><path fill="#8e9299" fill-rule="nonzero" d="M33.15 49.009V1.539h-8.22v52.79h18.83v-5.32z"/><path fill="#5f6266" fill-rule="nonzero" d="M35.06 26.429H24.93v8.54h10.13v19.36h1.57v-27.9z"/><path fill="url(#m)" fill-rule="nonzero" d="M44.75 0h84.71v55.63H44.75z" transform="translate(0 .079)"/><path fill="#303133" fill-rule="nonzero" d="M45.69 51.849h82.85v2.69H45.69z"/><path fill="#8e9299" fill-rule="nonzero" d="M59.5 1.539h47.89v47.89H59.5z"/><path fill="#777a80" fill-rule="nonzero" d="M106.18 42.899v-18.41h-8.19v-13.6H60.94v41.8h67.59v-9.79z"/><path fill="#777a80" fill-rule="nonzero" d="M108.84 24.079h11.24v28.61h-11.24z"/><path fill="#5f6266" fill-rule="nonzero" d="M54.13 41.289h22.46v11.4H54.13zm37.68 6.03h31.14v5.37H91.81z"/><path fill="#5f6266" fill-rule="nonzero" d="M110.27 38.429h12.69v8.93h-12.69z"/><path fill="#fff" fill-rule="nonzero" d="M45.69 1.539h82.85v53H45.69z" opacity=".3"/><path fill="#a9aeb3" fill-rule="nonzero" d="M87.54 1.539h1.62v53h-1.62z"/><path fill="#a9aeb3" fill-rule="nonzero" d="M128.53 20.419v1.62H89.15v-1.62zM128.53 34.859v1.62H89.15v-1.62z"/><path fill="#fff" fill-rule="nonzero" d="M24.93 1.539h18.82v52.79H24.93zM1.11 38.379h21.82v16.16H1.11z" opacity=".3"/><path stroke="#fff" stroke-width=".25" d="m68.8 18.109-8.74 8.75m15.18-11.11-14.16 14.16M108.82 18.109l-8.74 8.75m15.18-11.11-14.16 14.16M34.71 18.109l-8.75 8.75m15.18-11.11-14.16 14.16M13.43 44.929l-6.13 6.13m10.64-7.78-9.92 9.93" opacity=".5"/><path fill="url(#n)" fill-rule="nonzero" d="M129.56 39.94H150v15.61h-20.44z" transform="translate(0 .079)"/><path fill="#5f6266" fill-rule="nonzero" d="M135.55 41.379h13.41v9.42h-13.41z"/><path fill="#303133" fill-rule="nonzero" d="M135.55 51.849h13.37v2.69h-13.37z"/><path fill="#fff" fill-rule="nonzero" d="M130.67 41.379h18.26v13.16h-18.26z" opacity=".3"/><path stroke="#fff" stroke-width=".25" d="m142.99 44.929-6.13 6.13m10.64-7.78-9.92 9.93" opacity=".5"/><path fill="#5d5f62" fill-rule="nonzero" d="M21.4 66.709h1.09v3.61H21.4zm19.69 0h1.09v3.61h-1.09zm92.75 0h1.09v3.61h-1.09zm12.69 0h1.09v3.61h-1.09zm-97.69 0h1.09v3.61h-1.09zm34.7 0h1.09v3.61h-1.09zm7.75 0h1.09v3.61h-1.09zm34.7 0h1.09v3.61h-1.09z"/></g></svg>