<svg xmlns="http://www.w3.org/2000/svg" viewBox="0 0 42 151"><title>Glass bottle with cap(带盖玻璃瓶)</title><defs><linearGradient id="a" x1="0%" x2="100%" y1="50%" y2="50%"><stop offset="0%" stop-color="#a9b1bb"/><stop offset="9%" stop-color="#61666b"/><stop offset="29%" stop-color="#686d73"/><stop offset="59%" stop-color="#7d8289"/><stop offset="93%" stop-color="#9ba1ab"/><stop offset="100%" stop-color="#767b82"/></linearGradient><linearGradient id="b" x1=".004%" x2="99.996%" y1="49.978%" y2="49.978%"><stop offset="0%" stop-color="#61666b"/><stop offset="9%" stop-color="#696e73"/><stop offset="22%" stop-color="#7e8489"/><stop offset="38%" stop-color="#a1a7ae"/><stop offset="50%" stop-color="#bec5cc"/><stop offset="93%" stop-color="#9ba1ab"/><stop offset="100%" stop-color="#767b82"/></linearGradient><linearGradient id="c" x1="0%" x2="100%" y1="50.028%" y2="50.028%"><stop offset="0%" stop-color="#fff"/><stop offset="100%" stop-color="#e2eaf2" stop-opacity=".2"/></linearGradient><linearGradient id="d" x1="0%" x2="100%" y1="50%" y2="50%"><stop offset="0%" stop-color="#a9b1bb"/><stop offset="9%" stop-color="#61666b"/><stop offset="18%" stop-color="#696e73"/><stop offset="32%" stop-color="#7e8489"/><stop offset="49%" stop-color="#a1a7ae"/><stop offset="69%" stop-color="#d1d8e0"/><stop offset="75%" stop-color="#e2eaf2"/><stop offset="93%" stop-color="#9ba1ab"/><stop offset="100%" stop-color="#767b82"/></linearGradient><linearGradient id="e" x1="0%" x2="100%" y1="49.903%" y2="49.903%"><stop offset="0%" stop-color="#a9b1bb"/><stop offset="9%" stop-color="#61666b"/><stop offset="18%" stop-color="#696e73"/><stop offset="32%" stop-color="#7e8489"/><stop offset="49%" stop-color="#a1a7ae"/><stop offset="69%" stop-color="#d1d8e0"/><stop offset="75%" stop-color="#e2eaf2"/><stop offset="93%" stop-color="#9ba1ab"/><stop offset="100%" stop-color="#767b82"/></linearGradient><linearGradient id="f" x1="0%" x2="100%" y1="49.832%" y2="49.832%"><stop offset="0%" stop-color="#a9b1bb"/><stop offset="9%" stop-color="#61666b"/><stop offset="18%" stop-color="#696e73"/><stop offset="32%" stop-color="#7e8489"/><stop offset="49%" stop-color="#a1a7ae"/><stop offset="69%" stop-color="#d1d8e0"/><stop offset="75%" stop-color="#e2eaf2"/><stop offset="93%" stop-color="#9ba1ab"/><stop offset="100%" stop-color="#767b82"/></linearGradient><linearGradient id="g" x1="0%" x2="100%" y1="49.791%" y2="49.791%"><stop offset="0%" stop-color="#a9b1bb" stop-opacity="0"/><stop offset="1%" stop-color="#9da4ae" stop-opacity=".16"/><stop offset="4%" stop-color="#899097" stop-opacity=".42"/><stop offset="7%" stop-color="#787e85" stop-opacity=".63"/><stop offset="11%" stop-color="#6b7177" stop-opacity=".8"/><stop offset="16%" stop-color="#63686d" stop-opacity=".92"/><stop offset="22%" stop-color="#5d6268" stop-opacity=".98"/><stop offset="40%" stop-color="#5c6166"/><stop offset="45%" stop-color="#64696e"/><stop offset="53%" stop-color="#797f84"/><stop offset="63%" stop-color="#9ca3a9"/><stop offset="75%" stop-color="#ccd4db"/><stop offset="80%" stop-color="#c8d0d7"/><stop offset="86%" stop-color="#bdc5cc"/><stop offset="91%" stop-color="#abb1b8"/><stop offset="96%" stop-color="#91979e"/><stop offset="100%" stop-color="#767b82"/></linearGradient></defs><g fill="none" fill-rule="nonzero"><path fill="url(#a)" d="M40.53 59.65v86.28a4.07 4.07 0 0 1-4.07 4.07H4.06A4.07 4.07 0 0 1 0 145.93V59.65C0 52 6.16 43.44 6.16 43.44l4.62-10.7 1.56-21.68h1.46l-1.45 21.63-4.51 10.89c-.05.07-5.69 7.17-5.69 14V144a1.93 1.93 0 0 0 1.91 2h32.4a1.93 1.93 0 0 0 1.91-2V57.58c0-6.81-5.63-13.93-5.69-14l-4.5-10.89-1.45-21.63h1.46l1.55 21.68 4.62 10.7s6.17 8.56 6.17 16.21" transform="translate(.54 .079)"/><path fill="url(#b)" d="M4.07 146a1.93 1.93 0 0 1-1.92-2V57.58c0-6.84 5.63-13.93 5.69-14l4.5-10.89 1.46-21.63h12.92l1.46 21.63 4.51 10.89c.05.07 5.69 7.2 5.69 14V144a1.93 1.93 0 0 1-1.92 2z" opacity=".7" transform="translate(.54 .079)"/><path fill="url(#c)" d="m27.69 50.47 6.88 6.16-.29 12.01-2.35-10.55z" transform="translate(.54 .079)"/><path fill="url(#d)" d="M28.74 8.1h-17.2l-.84.86v1.23l.84.87h17.2l.84-.87V8.96z" transform="translate(.54 .079)"/><path fill="url(#e)" d="M10.7.81v3.45l.84.87h17.2l.84-.87V.81S28.98 0 20.26 0 10.7.81 10.7.81" transform="translate(.54 .079)"/><path fill="url(#f)" d="M28.74 5.13h-17.2l.54.87v1.23l-.54.87h17.2l-.54-.87V6z" transform="translate(.54 .079)"/><g fill="url(#g)" opacity=".8" transform="translate(12.08 1.619)"><path d="M0 0h1v2.39H0z"/><path d="M1.08 0h1v2.39h-1z"/><path d="M2.15 0h1v2.39h-1z"/><path d="M3.23 0h1v2.39h-1z"/><path d="M4.3 0h1v2.39h-1z"/><path d="M5.38 0h1v2.39h-1z"/><path d="M6.45 0h1v2.39h-1z"/><path d="M7.53 0h1v2.39h-1z"/><path d="M8.61 0h1v2.39h-1z"/><path d="M9.68 0h1v2.39h-1z"/><path d="M10.76 0h1v2.39h-1z"/><path d="M11.83 0h1v2.39h-1z"/><path d="M12.91 0h1v2.39h-1z"/><path d="M13.98 0h1v2.39h-1z"/><path d="M15.06 0h1v2.39h-1z"/><path d="M16.13 0h1v2.39h-1z"/></g></g></svg>