<svg xmlns="http://www.w3.org/2000/svg" viewBox="0 0 44 151"><title>Glass bottle no cap(无盖盖玻璃瓶)</title><defs><linearGradient id="a" x1="0%" x2="100%" y1="50%" y2="50%"><stop offset="0%" stop-color="#a9b1bb"/><stop offset="9%" stop-color="#61666b"/><stop offset="29%" stop-color="#686d73"/><stop offset="59%" stop-color="#7d8289"/><stop offset="93%" stop-color="#9ba1ab"/><stop offset="100%" stop-color="#767b82"/></linearGradient><linearGradient id="b" x1="-.078%" x2="100.052%" y1="50%" y2="50%"><stop offset="0%" stop-color="#61666b"/><stop offset="9%" stop-color="#696e73"/><stop offset="22%" stop-color="#7e8489"/><stop offset="38%" stop-color="#a1a7ae"/><stop offset="50%" stop-color="#bec5cc"/><stop offset="93%" stop-color="#9ba1ab"/><stop offset="100%" stop-color="#767b82"/></linearGradient><linearGradient id="c" x1="0%" x2="100%" y1="50%" y2="50%"><stop offset="0%" stop-color="#fff"/><stop offset="100%" stop-color="#e2eaf2" stop-opacity=".2"/></linearGradient><linearGradient id="d" x1="0%" x2="100%" y1="50%" y2="50%"><stop offset="0%" stop-color="#61666b"/><stop offset="9%" stop-color="#696e73"/><stop offset="22%" stop-color="#7e8489"/><stop offset="38%" stop-color="#a1a7ae"/><stop offset="50%" stop-color="#bec5cc"/><stop offset="93%" stop-color="#9ba1ab"/><stop offset="100%" stop-color="#767b82"/></linearGradient></defs><g fill="none" fill-rule="nonzero"><path fill="url(#a)" d="M42.84 54.5v91.2a4.29 4.29 0 0 1-4.3 4.3H4.3a4.29 4.29 0 0 1-4.3-4.3V54.5c0-8.1 6.52-17.14 6.52-17.14l4.88-11.3 1.64-22.92h1.58L13.05 26 8.29 37.5c-.06.08-6 7.59-6 14.81v91.37a2 2 0 0 0 2 2h34.25a2 2 0 0 0 2-2V52.31c0-7.2-6-14.73-6-14.81L29.79 26 28.25 3.14h1.55l1.64 22.92 4.89 11.3s6.51 9.04 6.51 17.14" transform="translate(.38 .079)"/><path fill="url(#b)" d="M4.3 145.72a2 2 0 0 1-2-2V52.31c0-7.23 6-14.73 6-14.8L13.05 26l1.57-22.86h13.63L29.79 26l4.76 11.51c.06.07 6 7.61 6 14.8v91.37a2 2 0 0 1-2 2z" opacity=".7" transform="translate(.38 .079)"/><path fill="url(#c)" d="m29.27 44.8 7.28 6.5-.31 12.7-2.48-11.15z" transform="translate(.38 .079)"/><path fill="url(#d)" d="M30.38 0H12.2l-.88.92v1.3l.88.92h18.18l.89-.92V.92z" opacity=".7" transform="translate(.38 .079)"/></g></svg>