<svg xmlns="http://www.w3.org/2000/svg" viewBox="0 0 103 151"><title>Grain silo(粮仓)</title><defs><linearGradient id="a" x1="0%" x2="100%" y1="50.005%" y2="50.005%"><stop offset="0%" stop-color="#a9b1bb"/><stop offset="9%" stop-color="#61666b"/><stop offset="18%" stop-color="#696e73"/><stop offset="32%" stop-color="#7e8489"/><stop offset="49%" stop-color="#a1a7ae"/><stop offset="69%" stop-color="#d1d8e0"/><stop offset="75%" stop-color="#e2eaf2"/><stop offset="93%" stop-color="#9ba1ab"/><stop offset="100%" stop-color="#767b82"/></linearGradient><linearGradient id="b" x1="49.995%" x2="49.995%" y1="100%" y2="0%"><stop offset="0%" stop-color="#9ba1ab" stop-opacity="0"/><stop offset="100%" stop-color="#2e3033"/></linearGradient><linearGradient id="c" x1="49.995%" x2="49.995%" y1="100%" y2="0%"><stop offset="0%" stop-color="#61666b"/><stop offset="100%" stop-color="#b9c0cc"/></linearGradient><linearGradient id="d" x1="49.995%" x2="49.995%" y1="100.847%" y2="0%"><stop offset="0%" stop-color="#61666b"/><stop offset="100%" stop-color="#b9c0cc"/></linearGradient><linearGradient id="e" x1="25.003%" x2="74.997%" y1="38.308%" y2="53.027%"><stop offset="0%" stop-color="#7a8088"/><stop offset="9%" stop-color="#2d2f33"/><stop offset="18%" stop-color="#35373b"/><stop offset="32%" stop-color="#4a4d51"/><stop offset="49%" stop-color="#6d7176"/><stop offset="69%" stop-color="#9da3a8"/><stop offset="76%" stop-color="#b0b7bc"/><stop offset="93%" stop-color="#6d7177"/><stop offset="100%" stop-color="#5c6067"/></linearGradient><linearGradient id="f" x1="37.501%" x2="62.499%" y1="53.212%" y2="48.153%"><stop offset="0%" stop-color="#a9b1bb"/><stop offset="9%" stop-color="#61666b"/><stop offset="18%" stop-color="#696e73"/><stop offset="32%" stop-color="#7e8489"/><stop offset="49%" stop-color="#a1a7ae"/><stop offset="69%" stop-color="#d1d8e0"/><stop offset="75%" stop-color="#e2eaf2"/><stop offset="93%" stop-color="#9ba1ab"/><stop offset="100%" stop-color="#767b82"/></linearGradient><linearGradient id="g" x1="0%" x2="100%" y1="50.268%" y2="50.268%"><stop offset="0%" stop-color="#a9b1bb"/><stop offset="9%" stop-color="#61666b"/><stop offset="18%" stop-color="#696e73"/><stop offset="32%" stop-color="#7e8489"/><stop offset="49%" stop-color="#a1a7ae"/><stop offset="69%" stop-color="#d1d8e0"/><stop offset="75%" stop-color="#e2eaf2"/><stop offset="93%" stop-color="#9ba1ab"/><stop offset="100%" stop-color="#767b82"/></linearGradient><linearGradient id="h" x1="0%" x2="100%" y1="50%" y2="50%"><stop offset="0%" stop-color="#767b82"/><stop offset="1%" stop-color="#5c6066"/><stop offset="88%" stop-color="#7a7d80"/><stop offset="94%" stop-color="#767b82"/><stop offset="100%" stop-color="#b9c0cc"/></linearGradient><linearGradient id="i" x1="0%" x2="99.774%" y1="50%" y2="50%"><stop offset="0%" stop-color="#767b82"/><stop offset="8%" stop-color="#747880"/><stop offset="91%" stop-color="#9ba1ab"/><stop offset="96%" stop-color="#d7dce0"/><stop offset="98%" stop-color="#767b82"/></linearGradient><linearGradient id="j" x1="0%" x2="100%" y1="50%" y2="50%"><stop offset="0%" stop-color="#767b82"/><stop offset="8%" stop-color="#9ba1ab"/><stop offset="91%" stop-color="#9ba1ab"/><stop offset="96%" stop-color="#d7dce0"/><stop offset="98%" stop-color="#767b82"/></linearGradient><linearGradient id="k" x1="50%" x2="50%" y1="102.11%" y2="-1.948%"><stop offset="0%" stop-color="#dce1e6"/><stop offset="100%" stop-color="#5c6066"/></linearGradient><linearGradient id="l" x1="0%" x2="100.061%" y1="50%" y2="50%"><stop offset="0%" stop-color="#a9b1bb"/><stop offset="9%" stop-color="#61666b"/><stop offset="18%" stop-color="#696e73"/><stop offset="32%" stop-color="#7e8489"/><stop offset="49%" stop-color="#a1a7ae"/><stop offset="69%" stop-color="#d1d8e0"/><stop offset="75%" stop-color="#e2eaf2"/><stop offset="93%" stop-color="#9ba1ab"/><stop offset="100%" stop-color="#767b82"/></linearGradient><linearGradient id="m" x1="50%" x2="50%" y1="100%" y2="0%"><stop offset="0%" stop-color="#2e3033"/><stop offset="100%" stop-color="#9ba1ab" stop-opacity="0"/></linearGradient><linearGradient id="n" x1="50%" x2="50%" y1="104.063%" y2="-3.75%"><stop offset="0%" stop-color="#dce1e6"/><stop offset="100%" stop-color="#5c6066"/></linearGradient></defs><g fill="none" fill-rule="nonzero" transform="translate(0 .077)"><path fill="#252628" d="M34.36 112.722h4.43v37.28h-4.43zm29.47 0h4.43v37.28h-4.43z"/><path fill="url(#a)" d="M5.39 14.192h91.59v98.53H5.39z"/><path fill="url(#b)" d="M5.39 14.192h91.59v17.14H5.39z" opacity=".3"/><rect width="92.19" height="1.18" x="5.09" y="25.562" fill="url(#c)" rx=".57"/><rect width="92.19" height="1.18" x="5.09" y="43.642" fill="url(#c)" rx=".57"/><rect width="92.19" height="1.18" x="5.09" y="61.712" fill="url(#d)" rx=".57"/><rect width="92.19" height="1.18" x="5.09" y="79.792" fill="url(#c)" rx=".57"/><rect width="92.19" height="1.18" x="5.09" y="97.872" fill="url(#c)" rx=".57"/><path fill="url(#e)" d="M54.49 139.682h-6.61l-42.49-26.96h91.59z"/><path fill="url(#f)" d="M102.37 14.192H0l39.6-11.96h23.17z"/><path fill="url(#g)" d="M62.59 2.232H39.78v-1a50 50 0 0 1 11.4-1.23 50.2 50.2 0 0 1 11.41 1.21z"/><path fill="url(#h)" d="M5.39 112.722h3.22v37.28H5.39z"/><path fill="url(#h)" d="M93.76 112.722h3.22v37.28h-3.22z"/><path fill="url(#i)" d="M21.45 112.722h4.43v37.28h-4.43z"/><path fill="url(#j)" d="M48.33 112.722h5.95v37.28h-5.95z"/><path fill="url(#i)" d="M76.74 112.722h4.43v37.28h-4.43z"/><circle cx="78.46" cy="34.412" r="3.08" fill="#252628" stroke="url(#k)" stroke-width=".25"/><ellipse cx="53.31" cy="8.662" fill="url(#l)" rx="8.25" ry="4.68"/><ellipse cx="53.31" cy="8.662" fill="url(#m)" opacity=".3" rx="8.25" ry="4.68"/><ellipse cx="53.31" cy="8.162" fill="#8f959c" rx="8.25" ry="4.17"/><ellipse cx="53.31" cy="8.022" fill="#959ba3" rx="7.78" ry="3.93"/><ellipse cx="53.31" cy="7.882" fill="#9ca2a9" rx="7.31" ry="3.69"/><ellipse cx="53.31" cy="7.742" fill="#a2a8b0" rx="6.83" ry="3.46"/><ellipse cx="53.31" cy="7.592" fill="#a8afb7" rx="6.36" ry="3.22"/><ellipse cx="53.31" cy="7.452" fill="#aeb5be" rx="5.89" ry="2.98"/><ellipse cx="53.31" cy="7.312" fill="#b5bcc4" rx="5.42" ry="2.74"/><ellipse cx="53.31" cy="7.172" fill="#bbc2cb" rx="4.94" ry="2.5"/><ellipse cx="53.31" cy="7.032" fill="#c1c9d2" rx="4.47" ry="2.26"/><ellipse cx="53.31" cy="6.892" fill="#c7cfd9" rx="4" ry="2.02"/><ellipse cx="53.31" cy="6.752" fill="#ced6df" rx="3.53" ry="1.78"/><ellipse cx="53.31" cy="6.612" fill="#d4dce6" rx="3.05" ry="1.54"/><ellipse cx="53.31" cy="6.512" fill="#ebf4ff" opacity=".6" rx="1.42" ry="1"/><circle cx="79.94" cy="104.062" r="1.6" fill="#252628" stroke="url(#n)" stroke-width=".25"/></g></svg>