<svg xmlns="http://www.w3.org/2000/svg" viewBox="0 0 150 132"><title>Grate magnet(栅式磁铁)</title><defs><linearGradient id="a" x1="0%" x2="100.052%" y1="50%" y2="50%"><stop offset="0%" stop-color="#a9b1bb"/><stop offset="9%" stop-color="#61666b"/><stop offset="18%" stop-color="#696e73"/><stop offset="32%" stop-color="#7e8489"/><stop offset="49%" stop-color="#a1a7ae"/><stop offset="69%" stop-color="#d1d8e0"/><stop offset="75%" stop-color="#e2eaf2"/><stop offset="93%" stop-color="#9ba1ab"/><stop offset="100%" stop-color="#767b82"/></linearGradient><linearGradient id="b" x1="0%" x2="100%" y1="50%" y2="50%"><stop offset="0%" stop-color="#a9b1bb"/><stop offset="9%" stop-color="#61666b"/><stop offset="18%" stop-color="#696e73"/><stop offset="32%" stop-color="#7e8489"/><stop offset="49%" stop-color="#a1a7ae"/><stop offset="69%" stop-color="#d1d8e0"/><stop offset="75%" stop-color="#e2eaf2"/><stop offset="93%" stop-color="#9ba1ab"/><stop offset="100%" stop-color="#767b82"/></linearGradient><linearGradient id="c" x1="0%" x2="100%" y1="50%" y2="50%"><stop offset="0%" stop-color="#a9b1bb"/><stop offset="9%" stop-color="#61666b"/><stop offset="18%" stop-color="#696e73"/><stop offset="32%" stop-color="#7e8489"/><stop offset="49%" stop-color="#a1a7ae"/><stop offset="69%" stop-color="#d1d8e0"/><stop offset="75%" stop-color="#e2eaf2"/><stop offset="93%" stop-color="#9ba1ab"/><stop offset="100%" stop-color="#767b82"/></linearGradient><linearGradient id="d" x1="50%" x2="50%" y1="100%" y2="0%"><stop offset="0%" stop-color="#767b82"/><stop offset="8%" stop-color="#9ba1ab"/><stop offset="91%" stop-color="#9ba1ab"/><stop offset="96%" stop-color="#d7dce0"/><stop offset="98%" stop-color="#767b82"/></linearGradient><linearGradient id="e" x1="0%" x2=".667%" y1="50.185%" y2="49.815%"><stop offset="0%" stop-color="#767b82"/><stop offset="8%" stop-color="#9ba1ab"/><stop offset="91%" stop-color="#9ba1ab"/><stop offset="96%" stop-color="#d7dce0"/><stop offset="98%" stop-color="#767b82"/></linearGradient></defs><g fill="none" fill-rule="nonzero"><path fill="url(#a)" d="M11.36 0h19.11v131.22H11.36z" transform="translate(0 .079)"/><path fill="url(#b)" d="M32.86 0h7.17v131.22h-7.17z" transform="translate(0 .079)"/><path fill="url(#b)" d="M67.83 0H75v131.22h-7.17z" transform="translate(0 .079)"/><path fill="url(#b)" d="M104.06 0h7.17v131.22h-7.17z" transform="translate(0 .079)"/><path fill="url(#c)" d="M47.06 0h19.11v131.22H47.06z" transform="translate(0 .079)"/><path fill="url(#c)" d="M82.75 0h19.11v131.22H82.75z" transform="translate(0 .079)"/><path fill="url(#c)" d="M118.45 0h19.11v131.22h-19.11z" transform="translate(0 .079)"/><path fill="url(#d)" d="M0 5.42h150v4.56H0z" transform="translate(0 .079)"/><path fill="url(#e)" d="M0 114.39h150v9.13H0z" transform="translate(0 .079)"/></g></svg>