<svg xmlns="http://www.w3.org/2000/svg" viewBox="0 0 142 151"><title>Inline mixer emulsifier 1(直列式混合乳化剂1)</title><defs><linearGradient id="a" x1=".23%" x2="100.23%" y1="50%" y2="50%"><stop offset="0%" stop-color="#767b82"/><stop offset="7%" stop-color="#9ba1ab"/><stop offset="25%" stop-color="#e2eaf2"/><stop offset="31%" stop-color="#d1d8e0"/><stop offset="51%" stop-color="#a1a7ae"/><stop offset="68%" stop-color="#7e8489"/><stop offset="82%" stop-color="#696e73"/><stop offset="91%" stop-color="#61666b"/><stop offset="100%" stop-color="#a9b1bb"/></linearGradient><linearGradient id="b" x1="50%" x2="50%" y1="0%" y2="100%"><stop offset="0%" stop-color="#a9b1bb"/><stop offset="9%" stop-color="#61666b"/><stop offset="18%" stop-color="#696e73"/><stop offset="32%" stop-color="#7e8489"/><stop offset="49%" stop-color="#a1a7ae"/><stop offset="69%" stop-color="#d1d8e0"/><stop offset="75%" stop-color="#e2eaf2"/><stop offset="93%" stop-color="#9ba1ab"/><stop offset="100%" stop-color="#767b82"/></linearGradient><linearGradient id="c" x1="100%" x2="0%" y1="50.072%" y2="50.072%"><stop offset="0%" stop-color="#767b82"/><stop offset="7%" stop-color="#9ba1ab"/><stop offset="25%" stop-color="#e2eaf2"/><stop offset="31%" stop-color="#d1d8e0"/><stop offset="51%" stop-color="#a1a7ae"/><stop offset="68%" stop-color="#7e8489"/><stop offset="82%" stop-color="#696e73"/><stop offset="91%" stop-color="#61666b"/><stop offset="100%" stop-color="#a9b1bb"/></linearGradient><linearGradient id="d" x1="0%" x2="100%" y1="50.781%" y2="50.781%"><stop offset="0%" stop-color="#a9b1bb"/><stop offset="9%" stop-color="#61666b"/><stop offset="18%" stop-color="#696e73"/><stop offset="32%" stop-color="#7e8489"/><stop offset="49%" stop-color="#a1a7ae"/><stop offset="69%" stop-color="#d1d8e0"/><stop offset="75%" stop-color="#e2eaf2"/><stop offset="93%" stop-color="#9ba1ab"/><stop offset="100%" stop-color="#767b82"/></linearGradient><linearGradient id="e" x1="-.137%" x2="100%" y1="50.781%" y2="50.781%"><stop offset="0%" stop-color="#a9b1bb"/><stop offset="9%" stop-color="#61666b"/><stop offset="18%" stop-color="#696e73"/><stop offset="32%" stop-color="#7e8489"/><stop offset="49%" stop-color="#a1a7ae"/><stop offset="69%" stop-color="#d1d8e0"/><stop offset="75%" stop-color="#e2eaf2"/><stop offset="93%" stop-color="#9ba1ab"/><stop offset="100%" stop-color="#767b82"/></linearGradient><linearGradient id="f" x1="0%" x2="99.982%" y1="50.008%" y2="50.008%"><stop offset="0%" stop-color="#a9b1bb"/><stop offset="9%" stop-color="#61666b"/><stop offset="18%" stop-color="#696e73"/><stop offset="32%" stop-color="#7e8489"/><stop offset="49%" stop-color="#a1a7ae"/><stop offset="69%" stop-color="#d1d8e0"/><stop offset="75%" stop-color="#e2eaf2"/><stop offset="93%" stop-color="#9ba1ab"/><stop offset="100%" stop-color="#767b82"/></linearGradient><linearGradient id="g" x1="0%" x2="100%" y1="50.382%" y2="50.382%"><stop offset="0%" stop-color="#a9b1bb"/><stop offset="9%" stop-color="#61666b"/><stop offset="18%" stop-color="#696e73"/><stop offset="32%" stop-color="#7e8489"/><stop offset="49%" stop-color="#a1a7ae"/><stop offset="69%" stop-color="#d1d8e0"/><stop offset="75%" stop-color="#e2eaf2"/><stop offset="93%" stop-color="#9ba1ab"/><stop offset="100%" stop-color="#767b82"/></linearGradient><linearGradient id="h" x1="49.991%" x2="49.991%" y1="100%" y2="0%"><stop offset="0%" stop-color="#2e3033"/><stop offset="100%" stop-color="#9ba1ab" stop-opacity="0"/></linearGradient><linearGradient id="i" x1="8.769%" x2="83.788%" y1="33.791%" y2="52.726%"><stop offset="0%" stop-color="#a9b1bb"/><stop offset="9%" stop-color="#61666b"/><stop offset="18%" stop-color="#696e73"/><stop offset="32%" stop-color="#7e8489"/><stop offset="49%" stop-color="#a1a7ae"/><stop offset="69%" stop-color="#d1d8e0"/><stop offset="75%" stop-color="#e2eaf2"/><stop offset="93%" stop-color="#9ba1ab"/><stop offset="100%" stop-color="#767b82"/></linearGradient><linearGradient id="j" x1="50%" x2="50%" y1="0%" y2="100%"><stop offset="0%" stop-color="#767b82"/><stop offset="7%" stop-color="#9ba1ab"/><stop offset="25%" stop-color="#e2eaf2"/><stop offset="31%" stop-color="#d1d8e0"/><stop offset="51%" stop-color="#a1a7ae"/><stop offset="68%" stop-color="#7e8489"/><stop offset="82%" stop-color="#696e73"/><stop offset="91%" stop-color="#61666b"/><stop offset="100%" stop-color="#a9b1bb"/></linearGradient><linearGradient id="k" x1="0%" x2="100%" y1="49.964%" y2="49.964%"><stop offset="0%" stop-color="#a9b1bb"/><stop offset="9%" stop-color="#61666b"/><stop offset="18%" stop-color="#696e73"/><stop offset="32%" stop-color="#7e8489"/><stop offset="49%" stop-color="#a1a7ae"/><stop offset="69%" stop-color="#d1d8e0"/><stop offset="75%" stop-color="#e2eaf2"/><stop offset="93%" stop-color="#9ba1ab"/><stop offset="100%" stop-color="#767b82"/></linearGradient><linearGradient id="l" x1="86.907%" x2="23.568%" y1="15.799%" y2="78.99%"><stop offset="0%" stop-color="#767b82"/><stop offset="7%" stop-color="#9ba1ab"/><stop offset="25%" stop-color="#e2eaf2"/><stop offset="31%" stop-color="#d1d8e0"/><stop offset="51%" stop-color="#a1a7ae"/><stop offset="68%" stop-color="#7e8489"/><stop offset="82%" stop-color="#696e73"/><stop offset="91%" stop-color="#61666b"/><stop offset="100%" stop-color="#a9b1bb"/></linearGradient><linearGradient id="m" x1="85.128%" x2="21.525%" y1="35.889%" y2="64.274%"><stop offset="0%" stop-color="#767b82"/><stop offset="7%" stop-color="#9ba1ab"/><stop offset="25%" stop-color="#e2eaf2"/><stop offset="31%" stop-color="#d1d8e0"/><stop offset="51%" stop-color="#a1a7ae"/><stop offset="68%" stop-color="#7e8489"/><stop offset="82%" stop-color="#696e73"/><stop offset="91%" stop-color="#61666b"/><stop offset="100%" stop-color="#a9b1bb"/></linearGradient><linearGradient id="n" x1="50.057%" x2="50.057%" y1="99.907%" y2="0%"><stop offset="0%" stop-color="#a9b1bb"/><stop offset="9%" stop-color="#61666b"/><stop offset="18%" stop-color="#696e73"/><stop offset="32%" stop-color="#7e8489"/><stop offset="49%" stop-color="#a1a7ae"/><stop offset="69%" stop-color="#d1d8e0"/><stop offset="75%" stop-color="#e2eaf2"/><stop offset="93%" stop-color="#9ba1ab"/><stop offset="100%" stop-color="#767b82"/></linearGradient><linearGradient id="o" x1="0%" x2="100%" y1="49.954%" y2="49.954%"><stop offset="0%" stop-color="#2e3033"/><stop offset="100%" stop-color="#9ba1ab" stop-opacity="0"/></linearGradient><linearGradient id="p" x1="50%" x2="50%" y1="100.087%" y2="0%"><stop offset="0%" stop-color="#a9b1bb"/><stop offset="9%" stop-color="#61666b"/><stop offset="18%" stop-color="#696e73"/><stop offset="32%" stop-color="#7e8489"/><stop offset="49%" stop-color="#a1a7ae"/><stop offset="69%" stop-color="#d1d8e0"/><stop offset="75%" stop-color="#e2eaf2"/><stop offset="93%" stop-color="#9ba1ab"/><stop offset="100%" stop-color="#767b82"/></linearGradient><linearGradient id="q" x1="49.955%" x2="49.955%" y1="100%" y2="0%"><stop offset="0%" stop-color="#a9b1bb"/><stop offset="9%" stop-color="#61666b"/><stop offset="18%" stop-color="#696e73"/><stop offset="32%" stop-color="#7e8489"/><stop offset="49%" stop-color="#a1a7ae"/><stop offset="69%" stop-color="#d1d8e0"/><stop offset="75%" stop-color="#e2eaf2"/><stop offset="93%" stop-color="#9ba1ab"/><stop offset="100%" stop-color="#767b82"/></linearGradient><linearGradient id="r" x1="0%" x2="100%" y1="50%" y2="50%"><stop offset="0%" stop-color="#2e3033"/><stop offset="100%" stop-color="#9ba1ab" stop-opacity="0"/></linearGradient><linearGradient id="s" x1="50%" x2="50%" y1="100.051%" y2="0%"><stop offset="0%" stop-color="#a9b1bb"/><stop offset="9%" stop-color="#61666b"/><stop offset="18%" stop-color="#696e73"/><stop offset="32%" stop-color="#7e8489"/><stop offset="49%" stop-color="#a1a7ae"/><stop offset="69%" stop-color="#d1d8e0"/><stop offset="75%" stop-color="#e2eaf2"/><stop offset="93%" stop-color="#9ba1ab"/><stop offset="100%" stop-color="#767b82"/></linearGradient><linearGradient id="t" x1="0%" x2="100%" y1="50.026%" y2="50.026%"><stop offset="0%" stop-color="#2e3033"/><stop offset="100%" stop-color="#9ba1ab" stop-opacity="0"/></linearGradient><linearGradient id="u" x1="50%" x2="50%" y1="100.051%" y2="0%"><stop offset="0%" stop-color="#7a8088"/><stop offset="9%" stop-color="#2d2f33"/><stop offset="19%" stop-color="#35373b"/><stop offset="33%" stop-color="#4a4d51"/><stop offset="51%" stop-color="#6d7176"/><stop offset="71%" stop-color="#9da3a8"/><stop offset="78%" stop-color="#b0b7bc"/><stop offset="93%" stop-color="#6d7177"/><stop offset="100%" stop-color="#5c6067"/></linearGradient><linearGradient id="v" x1="50%" x2="50%" y1="100.038%" y2="0%"><stop offset="0%" stop-color="#a9b1bb"/><stop offset="9%" stop-color="#61666b"/><stop offset="18%" stop-color="#696e73"/><stop offset="32%" stop-color="#7e8489"/><stop offset="49%" stop-color="#a1a7ae"/><stop offset="69%" stop-color="#d1d8e0"/><stop offset="75%" stop-color="#e2eaf2"/><stop offset="93%" stop-color="#9ba1ab"/><stop offset="100%" stop-color="#767b82"/></linearGradient><linearGradient id="w" x1="0%" x2="100.137%" y1="50%" y2="50%"><stop offset="0%" stop-color="#a9b1bb"/><stop offset="9%" stop-color="#61666b"/><stop offset="18%" stop-color="#696e73"/><stop offset="32%" stop-color="#7e8489"/><stop offset="49%" stop-color="#a1a7ae"/><stop offset="69%" stop-color="#d1d8e0"/><stop offset="75%" stop-color="#e2eaf2"/><stop offset="93%" stop-color="#9ba1ab"/><stop offset="100%" stop-color="#767b82"/></linearGradient><linearGradient id="x" x1="49.405%" x2="49.405%" y1="100%" y2="0%"><stop offset="0%" stop-color="#a9b1bb"/><stop offset="9%" stop-color="#61666b"/><stop offset="18%" stop-color="#696e73"/><stop offset="32%" stop-color="#7e8489"/><stop offset="49%" stop-color="#a1a7ae"/><stop offset="69%" stop-color="#d1d8e0"/><stop offset="75%" stop-color="#e2eaf2"/><stop offset="93%" stop-color="#9ba1ab"/><stop offset="100%" stop-color="#767b82"/></linearGradient><linearGradient id="y" x1="0%" x2="100%" y1="49.993%" y2="49.993%"><stop offset="0%" stop-color="#767b82"/><stop offset="8%" stop-color="#9ba1ab"/><stop offset="91%" stop-color="#9ba1ab"/><stop offset="96%" stop-color="#d7dce0"/><stop offset="98%" stop-color="#767b82"/></linearGradient><linearGradient id="z" x1="50%" x2="50%" y1="100%" y2="0%"><stop offset="0%" stop-color="#2e3033"/><stop offset="100%" stop-color="#9ba1ab" stop-opacity="0"/></linearGradient><linearGradient id="A" x1="0%" x2="100%" y1="49.219%" y2="49.219%"><stop offset="0%" stop-color="#a9b1bb"/><stop offset="9%" stop-color="#61666b"/><stop offset="18%" stop-color="#696e73"/><stop offset="32%" stop-color="#7e8489"/><stop offset="49%" stop-color="#a1a7ae"/><stop offset="69%" stop-color="#d1d8e0"/><stop offset="75%" stop-color="#e2eaf2"/><stop offset="93%" stop-color="#9ba1ab"/><stop offset="100%" stop-color="#767b82"/></linearGradient><linearGradient id="B" x1="50.019%" x2="50.019%" y1="100%" y2="0%"><stop offset="0%" stop-color="#767b82"/><stop offset="1%" stop-color="#5c6066"/><stop offset="88%" stop-color="#7a7d80"/><stop offset="94%" stop-color="#767b82"/><stop offset="100%" stop-color="#b9c0cc"/></linearGradient><linearGradient id="C" x1="50.021%" x2="50.021%" y1="100%" y2="0%"><stop offset="0%" stop-color="#767b82"/><stop offset="8%" stop-color="#9ba1ab"/><stop offset="91%" stop-color="#9ba1ab"/><stop offset="96%" stop-color="#d7dce0"/><stop offset="98%" stop-color="#767b82"/></linearGradient><linearGradient id="D" x1="50.021%" x2="50.021%" y1="100%" y2="0%"><stop offset="0%" stop-color="#2e3033"/><stop offset="100%" stop-color="#9ba1ab" stop-opacity="0"/></linearGradient><linearGradient id="E" x1="50.004%" x2="50.004%" y1="100%" y2="0%"><stop offset="0%" stop-color="#767b82"/><stop offset="8%" stop-color="#9ba1ab"/><stop offset="91%" stop-color="#9ba1ab"/><stop offset="96%" stop-color="#d7dce0"/><stop offset="98%" stop-color="#767b82"/></linearGradient><linearGradient id="F" x1="50.104%" x2="50.104%" y1="100%" y2="0%"><stop offset="0%" stop-color="#dce1e6"/><stop offset="100%" stop-color="#5c6066"/></linearGradient><linearGradient id="G" x1="49.965%" x2="49.965%" y1="-1894.681%" y2="0%"><stop offset="0%" stop-color="#dce1e6"/><stop offset="100%" stop-color="#5c6066"/></linearGradient><linearGradient id="H" x1="31.249%" x2="77.756%" y1="31.005%" y2="73.039%"><stop offset="0%" stop-color="#a9b1bb"/><stop offset="9%" stop-color="#61666b"/><stop offset="18%" stop-color="#696e73"/><stop offset="32%" stop-color="#7e8489"/><stop offset="49%" stop-color="#a1a7ae"/><stop offset="69%" stop-color="#d1d8e0"/><stop offset="75%" stop-color="#e2eaf2"/><stop offset="93%" stop-color="#9ba1ab"/><stop offset="100%" stop-color="#767b82"/></linearGradient><linearGradient id="I" x1="68.783%" x2="22.337%" y1="31.005%" y2="73.039%"><stop offset="0%" stop-color="#a9b1bb"/><stop offset="9%" stop-color="#61666b"/><stop offset="18%" stop-color="#696e73"/><stop offset="32%" stop-color="#7e8489"/><stop offset="49%" stop-color="#a1a7ae"/><stop offset="69%" stop-color="#d1d8e0"/><stop offset="75%" stop-color="#e2eaf2"/><stop offset="93%" stop-color="#9ba1ab"/><stop offset="100%" stop-color="#767b82"/></linearGradient></defs><g fill="none" fill-rule="nonzero"><path fill="url(#a)" d="m82 5.08-4.34 3.07v103.11H82z" transform="translate(0 .079)"/><path fill="url(#b)" d="M69.13 4.34h5.29L77.66 0H65.88z" transform="translate(0 .079)"/><path fill="url(#c)" d="m61.54 5.09 4.34 3.07v10.73h-4.34z" transform="translate(0 .079)"/><path fill="url(#d)" d="M76.17 8.67h7.31v1.28h-7.31z" transform="matrix(-1 0 0 -1 159.65 18.699)"/><path fill="url(#e)" d="M60.06 8.67h7.31v1.28h-7.31z" transform="matrix(-1 0 0 -1 127.43 18.699)"/><path fill="url(#f)" d="M18.62 11.89h54.29V75.3H18.62z" transform="translate(0 .079)"/><path fill="url(#g)" d="M17.84 11.89h55.85v1.31H17.84z" transform="translate(0 .079)"/><path fill="url(#h)" d="M18.62 61.71h54.29v13.6H18.62z" opacity=".2" transform="translate(0 .079)"/><path fill="url(#i)" d="M47.95 99.04h-4.38L18.62 75.31H72.9z" transform="translate(0 .079)"/><path fill="url(#j)" d="m47.79 120.16 3.07-4.34h14.75v4.34z" transform="translate(0 .079)"/><path fill="url(#k)" d="M47.93 99.04v12.29l-4.34 1.72V99.04z" transform="translate(0 .079)"/><path fill="url(#l)" d="m50.86 115.82-2.27-1.74-3.84 3.38 3.04 2.7z" transform="translate(0 .079)"/><path fill="url(#m)" d="m47.93 111.33.66 2.75-3.84 3.38-1.16-4.41z" transform="translate(0 .079)"/><path fill="url(#n)" d="M65.61 112.6h8.81v10.79h-8.81z" transform="translate(0 .079)"/><path fill="url(#o)" d="M67.29 112.6h3.22v10.79h-3.22z" opacity=".2" transform="translate(0 .079)"/><path fill="url(#p)" d="M65.61 112.23h1.68v11.51h-1.68z" transform="translate(0 .079)"/><path fill="url(#q)" d="M74.43 110.5h11.03v14.98H74.43z" transform="translate(0 .079)"/><path fill="url(#r)" d="M76.05 110.5h3.22v14.98h-3.22z" opacity=".2" transform="translate(0 .079)"/><path fill="url(#s)" d="M89.83 108.19h45.72v19.59H89.83z" transform="translate(0 .079)"/><path fill="url(#t)" d="M89.83 108.19h3.22v19.59h-3.22z" opacity=".2" transform="translate(0 .079)"/><path fill="url(#u)" d="M124.51 108.19h11.04v19.59h-11.04z" transform="translate(0 .079)"/><path fill="url(#v)" d="M85.45 104.76h4.38v26.45h-4.38z" transform="translate(0 .079)"/><path fill="url(#w)" d="M42.1 104.76h7.31v1.28H42.1z" transform="translate(0 .079)"/><path fill="url(#x)" d="M74.43 110.04h1.68v15.9h-1.68z" transform="translate(0 .079)"/><path fill="url(#y)" d="M42.27 70.99h7.66v75.25h-7.66z" transform="translate(0 .079)"/><path fill="url(#z)" d="M29.27 134.29h7.66v8.19h-7.66z" opacity=".2" transform="translate(0 .079)"/><path fill="url(#A)" d="M49.745 117.355h7.31v1.28h-7.31z" transform="rotate(-90 53.44 118.034)"/><path fill="url(#B)" d="M106.63 127.79h25.89v6.5h-25.89z" transform="translate(0 .079)"/><path fill="url(#C)" d="M85.45 134.29h47.06v8.19H85.45z" transform="translate(0 .079)"/><path fill="url(#D)" d="M85.45 137.54h47.06v4.94H85.45z" opacity=".2" transform="translate(0 .079)"/><path fill="url(#E)" d="M0 142.48h141.01V150H0z" transform="translate(0 .079)"/><path fill="#252628" d="M8.03 142.559h14.46v7.52H8.03z"/><path fill="url(#F)" d="M22.24 142.73v7h-14v-7zm.25-.25H8V150h14.49z" transform="translate(0 .079)"/><path fill="#252628" d="M109 142.559h14.46v7.52H109z"/><path fill="url(#G)" d="M123.22 142.73v7h-14v-7zm.25-.25H109V150h14.47z" transform="translate(0 .079)"/><path fill="url(#H)" d="m69.13 4.34-3.25 3.82-4.34-3.07L65.88 0z" transform="translate(0 .079)"/><path fill="url(#I)" d="m74.42 4.34 3.24 3.82L82 5.09 77.66 0z" transform="translate(0 .079)"/></g></svg>