<svg xmlns="http://www.w3.org/2000/svg" viewBox="0 0 68 151"><title>Inline mixer emulsifier 2(直列式混合乳化剂2)</title><defs><linearGradient id="a" x1=".265%" x2="100%" y1="50%" y2="50%"><stop offset="0%" stop-color="#767b82"/><stop offset="7%" stop-color="#9ba1ab"/><stop offset="25%" stop-color="#e2eaf2"/><stop offset="31%" stop-color="#d1d8e0"/><stop offset="51%" stop-color="#a1a7ae"/><stop offset="68%" stop-color="#7e8489"/><stop offset="82%" stop-color="#696e73"/><stop offset="91%" stop-color="#61666b"/><stop offset="100%" stop-color="#a9b1bb"/></linearGradient><linearGradient id="b" x1="50.034%" x2="50.034%" y1="0%" y2="99.735%"><stop offset="0%" stop-color="#a9b1bb"/><stop offset="9%" stop-color="#61666b"/><stop offset="18%" stop-color="#696e73"/><stop offset="32%" stop-color="#7e8489"/><stop offset="49%" stop-color="#a1a7ae"/><stop offset="69%" stop-color="#d1d8e0"/><stop offset="75%" stop-color="#e2eaf2"/><stop offset="93%" stop-color="#9ba1ab"/><stop offset="100%" stop-color="#767b82"/></linearGradient><linearGradient id="c" x1="100%" x2="-.265%" y1="50%" y2="50%"><stop offset="0%" stop-color="#767b82"/><stop offset="7%" stop-color="#9ba1ab"/><stop offset="25%" stop-color="#e2eaf2"/><stop offset="31%" stop-color="#d1d8e0"/><stop offset="51%" stop-color="#a1a7ae"/><stop offset="68%" stop-color="#7e8489"/><stop offset="82%" stop-color="#696e73"/><stop offset="91%" stop-color="#61666b"/><stop offset="100%" stop-color="#a9b1bb"/></linearGradient><linearGradient id="d" x1="0%" x2="100%" y1="49.55%" y2="49.55%"><stop offset="0%" stop-color="#a9b1bb"/><stop offset="9%" stop-color="#61666b"/><stop offset="18%" stop-color="#696e73"/><stop offset="32%" stop-color="#7e8489"/><stop offset="49%" stop-color="#a1a7ae"/><stop offset="69%" stop-color="#d1d8e0"/><stop offset="75%" stop-color="#e2eaf2"/><stop offset="93%" stop-color="#9ba1ab"/><stop offset="100%" stop-color="#767b82"/></linearGradient><linearGradient id="e" x1="0%" x2="99.843%" y1="49.55%" y2="49.55%"><stop offset="0%" stop-color="#a9b1bb"/><stop offset="9%" stop-color="#61666b"/><stop offset="18%" stop-color="#696e73"/><stop offset="32%" stop-color="#7e8489"/><stop offset="49%" stop-color="#a1a7ae"/><stop offset="69%" stop-color="#d1d8e0"/><stop offset="75%" stop-color="#e2eaf2"/><stop offset="93%" stop-color="#9ba1ab"/><stop offset="100%" stop-color="#767b82"/></linearGradient><linearGradient id="f" x1="31.371%" x2="77.78%" y1="30.986%" y2="72.958%"><stop offset="0%" stop-color="#a9b1bb"/><stop offset="9%" stop-color="#61666b"/><stop offset="18%" stop-color="#696e73"/><stop offset="32%" stop-color="#7e8489"/><stop offset="49%" stop-color="#a1a7ae"/><stop offset="69%" stop-color="#d1d8e0"/><stop offset="75%" stop-color="#e2eaf2"/><stop offset="93%" stop-color="#9ba1ab"/><stop offset="100%" stop-color="#767b82"/></linearGradient><linearGradient id="g" x1="68.592%" x2="22.244%" y1="30.986%" y2="72.958%"><stop offset="0%" stop-color="#a9b1bb"/><stop offset="9%" stop-color="#61666b"/><stop offset="18%" stop-color="#696e73"/><stop offset="32%" stop-color="#7e8489"/><stop offset="49%" stop-color="#a1a7ae"/><stop offset="69%" stop-color="#d1d8e0"/><stop offset="75%" stop-color="#e2eaf2"/><stop offset="93%" stop-color="#9ba1ab"/><stop offset="100%" stop-color="#767b82"/></linearGradient><linearGradient id="h" x1="0%" x2="100%" y1="49.988%" y2="49.988%"><stop offset="0%" stop-color="#a9b1bb"/><stop offset="9%" stop-color="#61666b"/><stop offset="18%" stop-color="#696e73"/><stop offset="32%" stop-color="#7e8489"/><stop offset="49%" stop-color="#a1a7ae"/><stop offset="69%" stop-color="#d1d8e0"/><stop offset="75%" stop-color="#e2eaf2"/><stop offset="93%" stop-color="#9ba1ab"/><stop offset="100%" stop-color="#767b82"/></linearGradient><linearGradient id="i" x1="0%" x2="100%" y1="50%" y2="50%"><stop offset="0%" stop-color="#a9b1bb"/><stop offset="9%" stop-color="#61666b"/><stop offset="18%" stop-color="#696e73"/><stop offset="32%" stop-color="#7e8489"/><stop offset="49%" stop-color="#a1a7ae"/><stop offset="69%" stop-color="#d1d8e0"/><stop offset="75%" stop-color="#e2eaf2"/><stop offset="93%" stop-color="#9ba1ab"/><stop offset="100%" stop-color="#767b82"/></linearGradient><linearGradient id="j" x1="0%" x2="100%" y1="50%" y2="50%"><stop offset="0%" stop-color="#a9b1bb"/><stop offset="9%" stop-color="#61666b"/><stop offset="18%" stop-color="#696e73"/><stop offset="32%" stop-color="#7e8489"/><stop offset="49%" stop-color="#a1a7ae"/><stop offset="69%" stop-color="#d1d8e0"/><stop offset="75%" stop-color="#e2eaf2"/><stop offset="93%" stop-color="#9ba1ab"/><stop offset="100%" stop-color="#767b82"/></linearGradient><linearGradient id="k" x1="0%" x2="100%" y1="49.973%" y2="49.973%"><stop offset="0%" stop-color="#a9b1bb"/><stop offset="9%" stop-color="#61666b"/><stop offset="18%" stop-color="#696e73"/><stop offset="32%" stop-color="#7e8489"/><stop offset="49%" stop-color="#a1a7ae"/><stop offset="69%" stop-color="#d1d8e0"/><stop offset="75%" stop-color="#e2eaf2"/><stop offset="93%" stop-color="#9ba1ab"/><stop offset="100%" stop-color="#767b82"/></linearGradient><linearGradient id="l" x1="0%" x2="100%" y1="50%" y2="50%"><stop offset="0%" stop-color="#a9b1bb"/><stop offset="9%" stop-color="#61666b"/><stop offset="18%" stop-color="#696e73"/><stop offset="32%" stop-color="#7e8489"/><stop offset="49%" stop-color="#a1a7ae"/><stop offset="69%" stop-color="#d1d8e0"/><stop offset="75%" stop-color="#e2eaf2"/><stop offset="93%" stop-color="#9ba1ab"/><stop offset="100%" stop-color="#767b82"/></linearGradient><linearGradient id="m" x1="0%" x2="100%" y1="50%" y2="50%"><stop offset="0%" stop-color="#7a8088"/><stop offset="9%" stop-color="#2d2f33"/><stop offset="19%" stop-color="#35373b"/><stop offset="33%" stop-color="#4a4d51"/><stop offset="51%" stop-color="#6d7176"/><stop offset="71%" stop-color="#9da3a8"/><stop offset="78%" stop-color="#b0b7bc"/><stop offset="93%" stop-color="#6d7177"/><stop offset="100%" stop-color="#5c6067"/></linearGradient><linearGradient id="n" x1="0%" x2="100%" y1="50%" y2="50%"><stop offset="0%" stop-color="#a9b1bb"/><stop offset="9%" stop-color="#61666b"/><stop offset="18%" stop-color="#696e73"/><stop offset="32%" stop-color="#7e8489"/><stop offset="49%" stop-color="#a1a7ae"/><stop offset="69%" stop-color="#d1d8e0"/><stop offset="75%" stop-color="#e2eaf2"/><stop offset="93%" stop-color="#9ba1ab"/><stop offset="100%" stop-color="#767b82"/></linearGradient><linearGradient id="o" x1="0%" x2="100%" y1="49.425%" y2="49.425%"><stop offset="0%" stop-color="#a9b1bb"/><stop offset="9%" stop-color="#61666b"/><stop offset="18%" stop-color="#696e73"/><stop offset="32%" stop-color="#7e8489"/><stop offset="49%" stop-color="#a1a7ae"/><stop offset="69%" stop-color="#d1d8e0"/><stop offset="75%" stop-color="#e2eaf2"/><stop offset="93%" stop-color="#9ba1ab"/><stop offset="100%" stop-color="#767b82"/></linearGradient><linearGradient id="p" x1="50%" x2="50%" y1="100%" y2="0%"><stop offset="0%" stop-color="#2e3033"/><stop offset="100%" stop-color="#9ba1ab" stop-opacity="0"/></linearGradient><linearGradient id="q" x1="8.144%" x2="83.158%" y1="34.283%" y2="53.209%"><stop offset="0%" stop-color="#a9b1bb"/><stop offset="9%" stop-color="#61666b"/><stop offset="18%" stop-color="#696e73"/><stop offset="32%" stop-color="#7e8489"/><stop offset="49%" stop-color="#a1a7ae"/><stop offset="69%" stop-color="#d1d8e0"/><stop offset="75%" stop-color="#e2eaf2"/><stop offset="93%" stop-color="#9ba1ab"/><stop offset="100%" stop-color="#767b82"/></linearGradient><linearGradient id="r" x1="0%" x2="100%" y1="50.014%" y2="50.014%"><stop offset="0%" stop-color="#a9b1bb"/><stop offset="9%" stop-color="#61666b"/><stop offset="18%" stop-color="#696e73"/><stop offset="32%" stop-color="#7e8489"/><stop offset="49%" stop-color="#a1a7ae"/><stop offset="69%" stop-color="#d1d8e0"/><stop offset="75%" stop-color="#e2eaf2"/><stop offset="93%" stop-color="#9ba1ab"/><stop offset="100%" stop-color="#767b82"/></linearGradient><linearGradient id="s" x1="0%" x2="100%" y1="50.023%" y2="50.023%"><stop offset="0%" stop-color="#a9b1bb"/><stop offset="9%" stop-color="#61666b"/><stop offset="18%" stop-color="#696e73"/><stop offset="32%" stop-color="#7e8489"/><stop offset="49%" stop-color="#a1a7ae"/><stop offset="69%" stop-color="#d1d8e0"/><stop offset="75%" stop-color="#e2eaf2"/><stop offset="93%" stop-color="#9ba1ab"/><stop offset="100%" stop-color="#767b82"/></linearGradient><linearGradient id="t" x1="0%" x2="100.265%" y1="50.005%" y2="50.005%"><stop offset="0%" stop-color="#a9b1bb"/><stop offset="9%" stop-color="#61666b"/><stop offset="18%" stop-color="#696e73"/><stop offset="32%" stop-color="#7e8489"/><stop offset="49%" stop-color="#a1a7ae"/><stop offset="69%" stop-color="#d1d8e0"/><stop offset="75%" stop-color="#e2eaf2"/><stop offset="93%" stop-color="#9ba1ab"/><stop offset="100%" stop-color="#767b82"/></linearGradient><linearGradient id="u" x1="0%" x2="100%" y1="50%" y2="50%"><stop offset="0%" stop-color="#767b82"/><stop offset="2%" stop-color="#9ba1ab"/><stop offset="98%" stop-color="#9ba1ab"/><stop offset="99%" stop-color="#d7dce0"/><stop offset="100%" stop-color="#767b82"/></linearGradient><linearGradient id="v" x1=".265%" x2="100.265%" y1="49.995%" y2="49.995%"><stop offset="0%" stop-color="#a9b1bb"/><stop offset="9%" stop-color="#61666b"/><stop offset="18%" stop-color="#696e73"/><stop offset="32%" stop-color="#7e8489"/><stop offset="49%" stop-color="#a1a7ae"/><stop offset="69%" stop-color="#d1d8e0"/><stop offset="75%" stop-color="#e2eaf2"/><stop offset="93%" stop-color="#9ba1ab"/><stop offset="100%" stop-color="#767b82"/></linearGradient><linearGradient id="w" x1="100%" x2=".114%" y1="50%" y2="50%"><stop offset="0%" stop-color="#767b82"/><stop offset="2%" stop-color="#9ba1ab"/><stop offset="98%" stop-color="#9ba1ab"/><stop offset="99%" stop-color="#d7dce0"/><stop offset="100%" stop-color="#767b82"/></linearGradient><linearGradient id="x" x1="100%" x2="0%" y1="50.575%" y2="50.575%"><stop offset="0%" stop-color="#a9b1bb"/><stop offset="9%" stop-color="#61666b"/><stop offset="18%" stop-color="#696e73"/><stop offset="32%" stop-color="#7e8489"/><stop offset="49%" stop-color="#a1a7ae"/><stop offset="69%" stop-color="#d1d8e0"/><stop offset="75%" stop-color="#e2eaf2"/><stop offset="93%" stop-color="#9ba1ab"/><stop offset="100%" stop-color="#767b82"/></linearGradient><linearGradient id="y" x1="100%" x2="0%" y1="50%" y2="50%"><stop offset="0%" stop-color="#7a8088"/><stop offset="9%" stop-color="#2d2f33"/><stop offset="19%" stop-color="#35373b"/><stop offset="33%" stop-color="#4a4d51"/><stop offset="51%" stop-color="#6d7176"/><stop offset="71%" stop-color="#9da3a8"/><stop offset="78%" stop-color="#b0b7bc"/><stop offset="93%" stop-color="#6d7177"/><stop offset="100%" stop-color="#5c6067"/></linearGradient><linearGradient id="z" x1="26.225%" x2="126.225%" y1="50.824%" y2="50.824%"><stop offset="0%" stop-color="#767b82"/><stop offset="7%" stop-color="#9ba1ab"/><stop offset="25%" stop-color="#e2eaf2"/><stop offset="31%" stop-color="#d1d8e0"/><stop offset="51%" stop-color="#a1a7ae"/><stop offset="68%" stop-color="#7e8489"/><stop offset="82%" stop-color="#696e73"/><stop offset="91%" stop-color="#61666b"/><stop offset="100%" stop-color="#a9b1bb"/></linearGradient><linearGradient id="A" x1="50.077%" x2="50.077%" y1="102.003%" y2="-1.849%"><stop offset="0%" stop-color="#5c6066"/><stop offset="100%" stop-color="#dce1e6"/></linearGradient><linearGradient id="B" x1="0%" x2="100%" y1="49.916%" y2="49.916%"><stop offset="0%" stop-color="#7a8088"/><stop offset="9%" stop-color="#2d2f33"/><stop offset="19%" stop-color="#35373b"/><stop offset="33%" stop-color="#4a4d51"/><stop offset="51%" stop-color="#6d7176"/><stop offset="71%" stop-color="#9da3a8"/><stop offset="78%" stop-color="#b0b7bc"/><stop offset="93%" stop-color="#6d7177"/><stop offset="100%" stop-color="#5c6067"/></linearGradient><linearGradient id="C" x1="50.077%" x2="50.077%" y1="102.003%" y2="-2.003%"><stop offset="0%" stop-color="#5c6066"/><stop offset="100%" stop-color="#dce1e6"/></linearGradient><linearGradient id="D" x1="0%" x2="100%" y1="50%" y2="50%"><stop offset="0%" stop-color="#767b82"/><stop offset="7%" stop-color="#9ba1ab"/><stop offset="25%" stop-color="#e2eaf2"/><stop offset="31%" stop-color="#d1d8e0"/><stop offset="51%" stop-color="#a1a7ae"/><stop offset="68%" stop-color="#7e8489"/><stop offset="82%" stop-color="#696e73"/><stop offset="91%" stop-color="#61666b"/><stop offset="100%" stop-color="#a9b1bb"/></linearGradient><linearGradient id="E" x1="0%" x2="100%" y1="50.084%" y2="50.084%"><stop offset="0%" stop-color="#7a8088"/><stop offset="9%" stop-color="#2d2f33"/><stop offset="19%" stop-color="#35373b"/><stop offset="33%" stop-color="#4a4d51"/><stop offset="51%" stop-color="#6d7176"/><stop offset="71%" stop-color="#9da3a8"/><stop offset="78%" stop-color="#b0b7bc"/><stop offset="93%" stop-color="#6d7177"/><stop offset="100%" stop-color="#5c6067"/></linearGradient><linearGradient id="F" x1="50.077%" x2="50.077%" y1="101.849%" y2="-2.003%"><stop offset="0%" stop-color="#5c6066"/><stop offset="100%" stop-color="#dce1e6"/></linearGradient><linearGradient id="G" x1="0%" x2="99.438%" y1="49.916%" y2="49.916%"><stop offset="0%" stop-color="#7a8088"/><stop offset="9%" stop-color="#2d2f33"/><stop offset="19%" stop-color="#35373b"/><stop offset="33%" stop-color="#4a4d51"/><stop offset="51%" stop-color="#6d7176"/><stop offset="71%" stop-color="#9da3a8"/><stop offset="78%" stop-color="#b0b7bc"/><stop offset="93%" stop-color="#6d7177"/><stop offset="100%" stop-color="#5c6067"/></linearGradient><linearGradient id="H" x1="49.923%" x2="49.923%" y1="101.849%" y2="-2.003%"><stop offset="0%" stop-color="#5c6066"/><stop offset="100%" stop-color="#dce1e6"/></linearGradient></defs><g fill="none" fill-rule="nonzero"><path fill="url(#a)" d="m58.96 4.42-3.78 2.66v81.46h3.78z" transform="translate(0 .079)"/><path fill="url(#b)" d="m43.41 3.77 8.95.01L55.18 0H40.59z" transform="translate(0 .079)"/><path fill="url(#c)" d="m36.82 4.43 3.77 2.67v9.33h-3.77z" transform="translate(0 .079)"/><path fill="url(#d)" d="M53.89 7.53h6.36v1.11h-6.36z" transform="matrix(-1 0 0 -1 114.14 16.249)"/><path fill="url(#e)" d="M35.52 7.53h6.36v1.11h-6.36z" transform="matrix(-1 0 0 -1 77.4 16.249)"/><path fill="url(#f)" d="M43.41 3.77 40.59 7.1l-3.77-2.67L40.59 0z" transform="translate(0 .079)"/><path fill="url(#g)" d="m52.36 3.77 2.82 3.33 3.78-2.67L55.19 0z" transform="translate(0 .079)"/><path fill="url(#h)" d="M6.91 12.99h36.1v42.17H6.91z" transform="translate(0 .079)"/><path fill="url(#i)" d="M21.5 70.93h6.91v11.94H21.5z" transform="translate(0 .079)"/><path fill="url(#j)" d="M20.48 74.38h8.96v2.2h-8.96z" transform="translate(0 .079)"/><path fill="url(#k)" d="M20.48 82.87h8.96v18.63h-8.96z" transform="translate(0 .079)"/><path fill="url(#l)" d="M16.55 101.5h16.82v30.64H16.55z" transform="translate(0 .079)"/><path fill="url(#m)" d="M16.55 128.5h16.82v3.64H16.55z" transform="translate(0 .079)"/><path fill="url(#n)" d="M20.48 79.92h8.96v1h-8.96z" transform="translate(0 .079)"/><path fill="url(#o)" d="M6.39 12.99h37.14v1H6.39z" transform="translate(0 .079)"/><path fill="url(#p)" d="M6.91 46.11h36.1v9.04H6.91z" opacity=".2" transform="translate(0 .079)"/><path fill="url(#q)" d="M28.23 70.93h-6.55L6.91 55.15h36.1z" transform="translate(0 .079)"/><path fill="url(#r)" d="M45.34 70.75h3.77v35.57h-3.77z" transform="rotate(-90 47.265 88.575)"/><path fill="url(#s)" d="M22.225 112.005h3.77v44.06h-3.77z" transform="rotate(-90 24.15 134.075)"/><path fill="url(#t)" d="M.2 49.36h3.77v97.21H.2z" transform="translate(0 .079)"/><path fill="url(#u)" d="M8.97 40.08v9.28H.2z" transform="translate(0 .079)"/><path fill="url(#v)" d="M45.59 49.37h3.77v97.21h-3.77z" transform="matrix(-1 0 0 -1 94.95 196.029)"/><path fill="url(#w)" d="M40.59 40.08v9.28h8.77z" transform="translate(0 .079)"/><path fill="url(#x)" d="M1.38 146.57h1.41v1.74H1.38z" transform="translate(0 .079)"/><path fill="url(#y)" d="M0 148.32h4.18V150H0z" transform="translate(0 .079)"/><path fill="url(#x)" d="M46.77 146.57h1.41v1.74h-1.41z" transform="translate(0 .079)"/><path fill="url(#y)" d="M45.38 148.32h4.18V150h-4.18z" transform="translate(0 .079)"/><path fill="url(#z)" d="M58.796 20.684h1.02v7.15h-1.02z" transform="rotate(-30 59.453 24.3)"/><path fill="#8e9399" stroke="url(#A)" stroke-width=".25" d="M58.42 17.67h-2.69l-1.9 1.9v2.69l1.9 1.9h2.69l1.9-1.9v-2.69z" transform="translate(0 .079)"/><path fill="url(#B)" d="M60.05 26.91h1.78v5.93h-1.78z" transform="translate(0 .079)"/><path fill="#8e9399" stroke="url(#C)" stroke-width=".25" d="M65.6 84.6h-2.69l-1.9 1.9v2.69l1.9 1.9h2.69l1.9-1.9V86.5z" transform="translate(0 .079)"/><path fill="url(#D)" d="M63.65 91.09h1.21v3.52h-1.21z" transform="translate(0 .079)"/><path fill="url(#E)" d="M63.37 93.83h1.78v5.93h-1.78z" transform="translate(0 .079)"/><path fill="#8e9399" stroke="url(#F)" stroke-width=".25" d="M51.93 42.87h-2.69l-1.9 1.9v2.68l1.9 1.91h2.69l1.9-1.91v-2.68z" transform="translate(0 .079)"/><path fill="url(#D)" d="M49.98 49.36h1.21v3.52h-1.21z" transform="translate(0 .079)"/><path fill="url(#G)" d="M49.7 52.1h1.78v5.93H49.7z" transform="translate(0 .079)"/><path fill="#8e9399" stroke="url(#H)" stroke-width=".25" d="M38.23 74.25h-2.69l-1.9 1.9v2.69l1.9 1.9h2.69l1.9-1.9v-2.69z" transform="translate(0 .079)"/><path fill="url(#B)" d="M35.99 80.74h1.78v5.93h-1.78z" transform="translate(0 .079)"/></g></svg>