<svg xmlns="http://www.w3.org/2000/svg" viewBox="0 0 150 126"><title>Micro flowmeter(微流量计)</title><defs><linearGradient id="a" x1="49.867%" x2="49.867%" y1="100%" y2="0%"><stop offset="0%" stop-color="#a9b1bb"/><stop offset="6%" stop-color="#5d6166"/><stop offset="78%" stop-color="#e2eaf2"/><stop offset="93%" stop-color="#9ba1ab"/><stop offset="100%" stop-color="#767b82"/></linearGradient><linearGradient id="b" x1="0%" x2="100%" y1="50.013%" y2="50.013%"><stop offset="0%" stop-color="#2e3033"/><stop offset="100%" stop-color="#9ba1ab" stop-opacity="0"/></linearGradient><linearGradient id="c" x1="50%" x2="50%" y1="100%" y2="0%"><stop offset="0%" stop-color="#a9b1bb"/><stop offset="6%" stop-color="#5d6166"/><stop offset="78%" stop-color="#e2eaf2"/><stop offset="93%" stop-color="#9ba1ab"/><stop offset="100%" stop-color="#767b82"/></linearGradient><linearGradient id="d" x1="50%" x2="50%" y1="100%" y2="0%"><stop offset="0%" stop-color="#a9b1bb"/><stop offset="6%" stop-color="#5d6166"/><stop offset="78%" stop-color="#e2eaf2"/><stop offset="93%" stop-color="#9ba1ab"/><stop offset="100%" stop-color="#767b82"/></linearGradient><linearGradient id="e" x1="0%" x2="100%" y1="50.012%" y2="50.012%"><stop offset="0%" stop-color="#9ba1ab" stop-opacity="0"/><stop offset="100%" stop-color="#2e3033"/></linearGradient><linearGradient id="f" x1="49.988%" x2="49.988%" y1="100%" y2="0%"><stop offset="0%" stop-color="#a9b1bb"/><stop offset="6%" stop-color="#5d6166"/><stop offset="78%" stop-color="#e2eaf2"/><stop offset="93%" stop-color="#9ba1ab"/><stop offset="100%" stop-color="#767b82"/></linearGradient><linearGradient id="g" x1="0%" x2="100%" y1="50%" y2="50%"><stop offset="0%" stop-color="#a9b1bb"/><stop offset="6%" stop-color="#5d6166"/><stop offset="78%" stop-color="#e2eaf2"/><stop offset="93%" stop-color="#9ba1ab"/><stop offset="100%" stop-color="#767b82"/></linearGradient><linearGradient id="h" x1="0%" x2="100%" y1="50.064%" y2="50.064%"><stop offset="0%" stop-color="#a9b1bb"/><stop offset="6%" stop-color="#5d6166"/><stop offset="78%" stop-color="#e2eaf2"/><stop offset="93%" stop-color="#9ba1ab"/><stop offset="100%" stop-color="#767b82"/></linearGradient><linearGradient id="i" x1="65.184%" x2="15.155%" y1="55.98%" y2="36.278%"><stop offset="0%" stop-color="#e6f1ff" stop-opacity="0"/><stop offset="26%" stop-color="#e6f1ff" stop-opacity=".01"/><stop offset="40%" stop-color="#e6f1ff" stop-opacity=".04"/><stop offset="51%" stop-color="#e7f1ff" stop-opacity=".09"/><stop offset="60%" stop-color="#e7f2ff" stop-opacity=".17"/><stop offset="69%" stop-color="#e8f2ff" stop-opacity=".26"/><stop offset="76%" stop-color="#e9f2ff" stop-opacity=".38"/><stop offset="83%" stop-color="#eaf3ff" stop-opacity=".53"/><stop offset="90%" stop-color="#ecf3ff" stop-opacity=".69"/><stop offset="96%" stop-color="#edf4ff" stop-opacity=".87"/><stop offset="100%" stop-color="#eef4ff"/></linearGradient><linearGradient id="j" x1="50%" x2="50%" y1="100%" y2="0%"><stop offset="0%" stop-color="#5c6066"/><stop offset="100%" stop-color="#f5faff"/></linearGradient><linearGradient id="k" x1="50.001%" x2="50.001%" y1="99.872%" y2="-.158%"><stop offset="0%" stop-color="#494a4d"/><stop offset="100%" stop-color="#17181a"/></linearGradient><linearGradient id="l" x1="85.434%" x2="14.723%" y1="14.411%" y2="85.122%"><stop offset="0%" stop-color="#9ba1ab"/><stop offset="0%" stop-color="#abb1ba"/><stop offset="9%" stop-color="#abb1ba"/><stop offset="46%" stop-color="#f5faff"/><stop offset="100%" stop-color="#a9b1bb"/></linearGradient><linearGradient id="m" x1="147332.877%" x2="147332.877%" y1="-44004.11%" y2="-43903.425%"><stop offset="0%" stop-color="#9ba1ab"/><stop offset="0%" stop-color="#abb1ba"/><stop offset="9%" stop-color="#abb1ba"/><stop offset="46%" stop-color="#f5faff"/><stop offset="100%" stop-color="#a9b1bb"/></linearGradient><linearGradient id="n" x1="14.842%" x2="86.037%" y1="14.562%" y2="85.757%"><stop offset="0%" stop-color="#9ba1ab"/><stop offset="0%" stop-color="#abb1ba"/><stop offset="9%" stop-color="#abb1ba"/><stop offset="46%" stop-color="#f5faff"/><stop offset="100%" stop-color="#a9b1bb"/></linearGradient><linearGradient id="o" x1="14.842%" x2="86.037%" y1="14.275%" y2="85.47%"><stop offset="0%" stop-color="#9ba1ab"/><stop offset="0%" stop-color="#abb1ba"/><stop offset="9%" stop-color="#abb1ba"/><stop offset="46%" stop-color="#f5faff"/><stop offset="100%" stop-color="#a9b1bb"/></linearGradient><linearGradient id="p" x1="49.978%" x2="49.978%" y1="100%" y2="0%"><stop offset="0%" stop-color="#767b82"/><stop offset="8%" stop-color="#9ba1ab"/><stop offset="91%" stop-color="#9ba1ab"/><stop offset="96%" stop-color="#d7dce0"/><stop offset="98%" stop-color="#767b82"/></linearGradient><linearGradient id="q" x1="49.995%" x2="49.995%" y1="100.047%" y2="0%"><stop offset="0%" stop-color="#767b82"/><stop offset="8%" stop-color="#9ba1ab"/><stop offset="91%" stop-color="#9ba1ab"/><stop offset="96%" stop-color="#d7dce0"/><stop offset="98%" stop-color="#767b82"/></linearGradient><linearGradient id="r" x1="50%" x2="50%" y1="100%" y2="0%"><stop offset="0%" stop-color="#a9b1bb"/><stop offset="53%" stop-color="#747a80"/><stop offset="56%" stop-color="#7c8288"/><stop offset="61%" stop-color="#91989e"/><stop offset="68%" stop-color="#b4bcc3"/><stop offset="75%" stop-color="#e2eaf2"/><stop offset="80%" stop-color="#dee6ee"/><stop offset="85%" stop-color="#d3dbe3"/><stop offset="89%" stop-color="#c1c8cf"/><stop offset="94%" stop-color="#a7adb4"/><stop offset="98%" stop-color="#858b92"/><stop offset="100%" stop-color="#767b82"/></linearGradient><linearGradient id="s" x1="50%" x2="50%" y1="100%" y2="0%"><stop offset="0%" stop-color="#a9b1bb"/><stop offset="53%" stop-color="#747a80"/><stop offset="56%" stop-color="#7c8288"/><stop offset="61%" stop-color="#91989e"/><stop offset="68%" stop-color="#b4bcc3"/><stop offset="75%" stop-color="#e2eaf2"/><stop offset="80%" stop-color="#dee6ee"/><stop offset="85%" stop-color="#d3dbe3"/><stop offset="89%" stop-color="#c1c8cf"/><stop offset="94%" stop-color="#a7adb4"/><stop offset="98%" stop-color="#858b92"/><stop offset="100%" stop-color="#767b82"/></linearGradient><linearGradient id="t" x1="50%" x2="50%" y1="100%" y2="0%"><stop offset="0%" stop-color="#a9b1bb"/><stop offset="9%" stop-color="#61666b"/><stop offset="18%" stop-color="#696e73"/><stop offset="32%" stop-color="#7e8489"/><stop offset="49%" stop-color="#a1a7ae"/><stop offset="69%" stop-color="#d1d8e0"/><stop offset="75%" stop-color="#e2eaf2"/><stop offset="93%" stop-color="#9ba1ab"/><stop offset="100%" stop-color="#767b82"/></linearGradient><linearGradient id="u" x1="39.035%" x2="56.034%" y1="106.618%" y2="7.286%"><stop offset="0%" stop-color="#a9b1bb"/><stop offset="9%" stop-color="#61666b"/><stop offset="17%" stop-color="#696e73"/><stop offset="29%" stop-color="#7e8489"/><stop offset="44%" stop-color="#a1a7ae"/><stop offset="60%" stop-color="#d1d8e0"/><stop offset="66%" stop-color="#e2eaf2"/><stop offset="93%" stop-color="#9ba1ab"/><stop offset="100%" stop-color="#767b82"/></linearGradient><linearGradient id="v" x1="48.659%" x2="51.341%" y1="99.804%" y2=".196%"><stop offset="0%" stop-color="#a9b1bb"/><stop offset="9%" stop-color="#61666b"/><stop offset="17%" stop-color="#696e73"/><stop offset="29%" stop-color="#7e8489"/><stop offset="44%" stop-color="#a1a7ae"/><stop offset="60%" stop-color="#d1d8e0"/><stop offset="66%" stop-color="#e2eaf2"/><stop offset="93%" stop-color="#9ba1ab"/><stop offset="100%" stop-color="#767b82"/></linearGradient><linearGradient id="w" x1="60.9%" x2="43.901%" y1="106.618%" y2="7.286%"><stop offset="0%" stop-color="#a9b1bb"/><stop offset="9%" stop-color="#61666b"/><stop offset="17%" stop-color="#696e73"/><stop offset="29%" stop-color="#7e8489"/><stop offset="44%" stop-color="#a1a7ae"/><stop offset="60%" stop-color="#d1d8e0"/><stop offset="66%" stop-color="#e2eaf2"/><stop offset="93%" stop-color="#9ba1ab"/><stop offset="100%" stop-color="#767b82"/></linearGradient><linearGradient id="x" x1="48.659%" x2="51.341%" y1=".196%" y2="99.804%"><stop offset="0%" stop-color="#a9b1bb"/><stop offset="9%" stop-color="#61666b"/><stop offset="17%" stop-color="#696e73"/><stop offset="29%" stop-color="#7e8489"/><stop offset="44%" stop-color="#a1a7ae"/><stop offset="60%" stop-color="#d1d8e0"/><stop offset="66%" stop-color="#e2eaf2"/><stop offset="93%" stop-color="#9ba1ab"/><stop offset="100%" stop-color="#767b82"/></linearGradient><linearGradient id="y" x1="50%" x2="50%" y1="100%" y2="0%"><stop offset="0%" stop-color="#a9b1bb"/><stop offset="6%" stop-color="#5d6166"/><stop offset="78%" stop-color="#e2eaf2"/><stop offset="93%" stop-color="#9ba1ab"/><stop offset="100%" stop-color="#767b82"/></linearGradient><linearGradient id="z" x1="104.953%" x2="23.579%" y1="7.895%" y2="91.813%"><stop offset="0%" stop-color="#abafb3"/><stop offset="100%" stop-color="#45484d"/></linearGradient><linearGradient id="A" x1="84.55%" x2="13.482%" y1="16.402%" y2="83.598%"><stop offset="0%" stop-color="#d7dce0"/><stop offset="100%" stop-color="#8a9099"/></linearGradient><linearGradient id="B" x1="50%" x2="50%" y1="102.427%" y2="-2.427%"><stop offset="0%" stop-color="#dce1e6"/><stop offset="100%" stop-color="#5c6066"/></linearGradient></defs><g fill="none" fill-rule="evenodd" transform="translate(0 .079)"><path fill="url(#a)" fill-rule="nonzero" d="M108.01 1.79h3.75v39.65h-3.75z"/><path fill="url(#b)" fill-rule="nonzero" d="M108.01 1.79h3.75v39.65h-3.75z" opacity=".1"/><path fill="url(#c)" fill-rule="nonzero" d="m115.66 40.01-3.9 1.43V1.79l3.9 1.43z"/><path fill="url(#d)" fill-rule="nonzero" d="m97.17 43.23-4.98-2.11V2.11L97.17 0z"/><path fill="url(#e)" fill-rule="nonzero" d="m97.17 43.23-4.98-2.11V2.11L97.17 0z" opacity=".3"/><path fill="url(#f)" fill-rule="nonzero" d="M53.26 1.79h40.59v39.65H53.26z"/><path fill="url(#g)" fill-rule="nonzero" d="M66.45 41.31h17.09v4.1H66.45z"/><path fill="url(#h)" fill-rule="nonzero" d="M84.54 51.52s-1.32 1.72-9.7 1.72-9.39-1.72-9.39-1.72v-6.11h19.09z"/><path fill="url(#i)" fill-rule="nonzero" d="M66.45 25.11v-6.73h17.09z"/><path fill="url(#j)" fill-rule="nonzero" d="M96.67 20C95.82 9.444 87.488 1.035 76.94.09 76.31 0 75.66 0 75 0s-1 0-1.55.06C62.74.826 54.192 9.297 53.33 20c0 .57-.07 1.16-.07 1.75s0 1.17.07 1.74c.858 10.705 9.407 19.179 20.12 19.94.51 0 1 .06 1.55.06s1.31 0 1.94-.09c10.548-.945 18.88-9.354 19.73-19.91 0-.57.07-1.15.07-1.74s-.02-1.18-.07-1.75M75 37.54a15.8 15.8 0 1 1 15.79-15.79c-.011 8.716-7.074 15.779-15.79 15.79"/><path fill="#fff" fill-rule="nonzero" d="M96.74 21.75c0 .59 0 1.17-.07 1.74h-3.36A18.42 18.42 0 0 1 76.94 40v3.4c-.63.06-1.28.09-1.94.09s-1 0-1.55-.06v-3.36a18.44 18.44 0 0 1-16.76-16.58h-3.36c0-.57-.07-1.15-.07-1.74s0-1.18.07-1.75h3.36A18.43 18.43 0 0 1 73.45 3.42V.06C74 0 74.47 0 75 0s1.31 0 1.94.09v3.37A18.43 18.43 0 0 1 93.31 20h3.36c.05.57.07 1.16.07 1.75" opacity=".6"/><path fill="url(#k)" fill-rule="nonzero" d="M90.79 21.75A15.79 15.79 0 1 1 75 6c8.698.016 15.752 7.052 15.79 15.75"/><path fill="#a3b372" fill-rule="nonzero" d="M66.23 15.72h17.53v12.06H66.23z"/><path fill="#646e46" fill-rule="nonzero" d="M83.54 15.94v11.62H66.45V15.94zm.46-.44H66V28h18z"/><circle cx="55.01" cy="21.61" r="1" fill="url(#l)" fill-rule="nonzero" stroke="#505458" stroke-width=".09"/><path fill="#505458" fill-rule="nonzero" d="m54.73 21.25.29.29.28-.29.06.06-.28.29.28.28v.06l-.36-.29-.32.31-.06-.06.31-.31-.28-.29z"/><circle cx="95.38" cy="21.61" r="1" fill="url(#m)" fill-rule="nonzero" stroke="#505458" stroke-width=".09"/><path fill="#505458" fill-rule="nonzero" d="m95.11 21.25.29.29.28-.29.06.06-.28.29.28.28v.06l-.29-.29-.31.31-.14-.06.31-.31-.28-.29z"/><circle cx="75.19" cy="1.42" r="1" fill="url(#n)" fill-rule="nonzero" stroke="#505458" stroke-width=".09"/><path fill="#505458" fill-rule="nonzero" d="m74.84 1.69.28-.28-.28-.29.06-.06.29.29.28-.29v.05l-.28.29.31.31-.06.06-.31-.31-.29.29z"/><path fill="#fff" fill-rule="nonzero" d="M86.21 10.61c-.21.48-.42 1-.66 1.42a43.4 43.4 0 0 1-20.27 20.26q-.52.27-1.08.51l-.33.15c-5.958-6.204-5.858-16.034.224-22.116s15.912-6.182 22.116-.224" opacity=".1"/><path fill="#fff" fill-rule="nonzero" d="M85.55 12a43.4 43.4 0 0 1-20.27 20.29c-5.61-6-5.79-15.09-.31-20.57S79.59 6.4 85.55 12" opacity=".1"/><circle cx="75.19" cy="41.8" r="1" fill="url(#o)" fill-rule="nonzero" stroke="#505458" stroke-width=".09"/><path fill="#505458" fill-rule="nonzero" d="m74.84 42.07.28-.28-.28-.29.06-.06.29.29.28-.29v.05l-.28.29.31.31-.06.06-.31-.31-.29.28z"/><path fill="url(#p)" fill-rule="nonzero" d="M87.22 125.82H62.78a11.53 11.53 0 0 1-10.54-7.39l-33-65.19h111.57l-33 65.19a11.53 11.53 0 0 1-10.59 7.39"/><path fill="url(#q)" fill-rule="nonzero" d="M28.31 53.24h93.39v21.11H28.31z"/><rect width="49.2" height="8.88" x="50.4" y="80.65" fill="url(#r)" fill-rule="nonzero" rx="4.44"/><rect width="36.38" height="8.88" x="56.81" y="98.57" fill="url(#s)" fill-rule="nonzero" rx="4.44"/><path fill="url(#t)" fill-rule="nonzero" d="M28.31 74.36 23.75 63.8h-4.56V53.24h9.12z"/><path fill="url(#u)" fill-rule="nonzero" d="m4.67 66 14.52-2.2V53.24l-14.52-2.2z"/><path fill="url(#v)" fill-rule="nonzero" d="M0 43.23h4.67v30.58H0z"/><path fill="url(#t)" fill-rule="nonzero" d="m121.69 74.36 4.56-10.56h4.56V53.24h-9.12z"/><path fill="url(#w)" fill-rule="nonzero" d="m145.33 66-14.52-2.2V53.24l14.52-2.2z"/><path fill="url(#x)" fill-rule="nonzero" d="M145.33 43.23H150v30.58h-4.67z" transform="matrix(-1 0 0 -1 295.33 117.04)"/><path fill="url(#y)" fill-rule="nonzero" d="M97.17 0h10.84v43.23H97.17z"/><path stroke="#252628" stroke-width=".25" d="M105.47 0v43.23" opacity=".6"/><path fill="url(#z)" fill-rule="nonzero" d="M84.54 46.91v3.42h-1.61a1.8 1.8 0 0 1-.76-.18 1.71 1.71 0 0 1 .76-3.24z"/><path fill="url(#A)" fill-rule="nonzero" d="m84.46 48.62-.88 1.53h-1.41a1.71 1.71 0 0 1 0-3.06h1.41z"/><circle cx="82.69" cy="48.62" r="1.03" fill="#252628" fill-rule="nonzero" stroke="url(#B)" stroke-width=".1"/></g></svg>