<svg xmlns="http://www.w3.org/2000/svg" viewBox="0 0 112 151"><title>Online moisture and constituent analyzer(在线水分和成分分析仪)</title><defs><linearGradient id="a" x1="0%" x2="100%" y1="50%" y2="50%"><stop offset="0%" stop-color="#7a8088"/><stop offset="9%" stop-color="#2d2f33"/><stop offset="18%" stop-color="#35373b"/><stop offset="32%" stop-color="#4a4d51"/><stop offset="49%" stop-color="#6d7176"/><stop offset="69%" stop-color="#9da3a8"/><stop offset="76%" stop-color="#b0b7bc"/><stop offset="93%" stop-color="#6d7177"/><stop offset="100%" stop-color="#5c6067"/></linearGradient><linearGradient id="b" x1="0%" x2="99.863%" y1="50%" y2="50%"><stop offset="0%" stop-color="#a9b1bb"/><stop offset="9%" stop-color="#61666b"/><stop offset="18%" stop-color="#696e73"/><stop offset="32%" stop-color="#7e8489"/><stop offset="49%" stop-color="#a1a7ae"/><stop offset="69%" stop-color="#d1d8e0"/><stop offset="75%" stop-color="#e2eaf2"/><stop offset="93%" stop-color="#9ba1ab"/><stop offset="100%" stop-color="#767b82"/></linearGradient><linearGradient id="c" x1="50%" x2="50%" y1="0%" y2="100%"><stop offset="0%" stop-color="#abafb3"/><stop offset="100%" stop-color="#45484d"/></linearGradient><linearGradient id="d" x1="50%" x2="50%" y1="100%" y2="0%"><stop offset="0%" stop-color="#767b82"/><stop offset="8%" stop-color="#9ba1ab"/><stop offset="91%" stop-color="#9ba1ab"/><stop offset="96%" stop-color="#d7dce0"/><stop offset="98%" stop-color="#767b82"/></linearGradient></defs><g fill="none" fill-rule="nonzero"><path fill="url(#a)" d="M8.61 62.65h27.96v19.26H8.61z" transform="translate(0 .079)"/><path fill="url(#b)" d="M97.65 62.65h7.32v83h-7.32z" transform="translate(0 .079)"/><path fill="url(#c)" d="M108.93 62.65H0V57.4L12.19 2.11 14.79 0h94.14l2.67 2.66V60z" transform="translate(0 .079)"/><path fill="url(#d)" d="M0 145.65h111.6V150H0z" transform="translate(0 .079)"/><path fill="#fff" d="M84.72 4.919h21.29v4.6H84.72zM6.2 55.179h16.39v4.6H6.2z" opacity=".8"/><path fill="#e65336" d="M5.24 69.039h3.37v6.01H5.24z"/></g></svg>