<svg xmlns="http://www.w3.org/2000/svg" viewBox="0 0 150 79"><title>Sanitary inline mixer(卫生型直列混合器)</title><defs><linearGradient id="a" x1="50%" x2="50%" y1="100%" y2="0%"><stop offset="0%" stop-color="#a9b1bb"/><stop offset="9%" stop-color="#61666b"/><stop offset="18%" stop-color="#696e73"/><stop offset="32%" stop-color="#7e8489"/><stop offset="49%" stop-color="#a1a7ae"/><stop offset="69%" stop-color="#d1d8e0"/><stop offset="75%" stop-color="#e2eaf2"/><stop offset="93%" stop-color="#9ba1ab"/><stop offset="100%" stop-color="#767b82"/></linearGradient><linearGradient id="b" x1="50%" x2="50%" y1="100%" y2="0%"><stop offset="0%" stop-color="#a9b1bb"/><stop offset="9%" stop-color="#61666b"/><stop offset="18%" stop-color="#696e73"/><stop offset="32%" stop-color="#7e8489"/><stop offset="49%" stop-color="#a1a7ae"/><stop offset="69%" stop-color="#d1d8e0"/><stop offset="75%" stop-color="#e2eaf2"/><stop offset="93%" stop-color="#9ba1ab"/><stop offset="100%" stop-color="#767b82"/></linearGradient><linearGradient id="c" x1="50%" x2="50%" y1="99.824%" y2="0%"><stop offset="0%" stop-color="#a9b1bb"/><stop offset="9%" stop-color="#61666b"/><stop offset="18%" stop-color="#696e73"/><stop offset="32%" stop-color="#7e8489"/><stop offset="49%" stop-color="#a1a7ae"/><stop offset="69%" stop-color="#d1d8e0"/><stop offset="75%" stop-color="#e2eaf2"/><stop offset="93%" stop-color="#9ba1ab"/><stop offset="100%" stop-color="#767b82"/></linearGradient><linearGradient id="d" x1="49.994%" x2="49.994%" y1="100%" y2="0%"><stop offset="0%" stop-color="#a9b1bb"/><stop offset="9%" stop-color="#61666b"/><stop offset="18%" stop-color="#696e73"/><stop offset="32%" stop-color="#7e8489"/><stop offset="49%" stop-color="#a1a7ae"/><stop offset="69%" stop-color="#d1d8e0"/><stop offset="75%" stop-color="#e2eaf2"/><stop offset="93%" stop-color="#9ba1ab"/><stop offset="100%" stop-color="#767b82"/></linearGradient><linearGradient id="e" x1="0%" x2="100%" y1="50.011%" y2="50.011%"><stop offset="0%" stop-color="#2e3033"/><stop offset="100%" stop-color="#9ba1ab" stop-opacity="0"/></linearGradient><linearGradient id="f" x1="50%" x2="50%" y1="100%" y2="0%"><stop offset="0%" stop-color="#a9b1bb"/><stop offset="9%" stop-color="#61666b"/><stop offset="18%" stop-color="#696e73"/><stop offset="32%" stop-color="#7e8489"/><stop offset="49%" stop-color="#a1a7ae"/><stop offset="69%" stop-color="#d1d8e0"/><stop offset="75%" stop-color="#e2eaf2"/><stop offset="93%" stop-color="#9ba1ab"/><stop offset="100%" stop-color="#767b82"/></linearGradient><linearGradient id="g" x1="49.955%" x2="49.955%" y1="100%" y2="0%"><stop offset="0%" stop-color="#a9b1bb"/><stop offset="9%" stop-color="#61666b"/><stop offset="18%" stop-color="#696e73"/><stop offset="32%" stop-color="#7e8489"/><stop offset="49%" stop-color="#a1a7ae"/><stop offset="69%" stop-color="#d1d8e0"/><stop offset="75%" stop-color="#e2eaf2"/><stop offset="93%" stop-color="#9ba1ab"/><stop offset="100%" stop-color="#767b82"/></linearGradient><linearGradient id="h" x1="49.967%" x2="49.967%" y1="100%" y2="0%"><stop offset="0%" stop-color="#a9b1bb"/><stop offset="9%" stop-color="#61666b"/><stop offset="18%" stop-color="#696e73"/><stop offset="32%" stop-color="#7e8489"/><stop offset="49%" stop-color="#a1a7ae"/><stop offset="69%" stop-color="#d1d8e0"/><stop offset="75%" stop-color="#e2eaf2"/><stop offset="93%" stop-color="#9ba1ab"/><stop offset="100%" stop-color="#767b82"/></linearGradient><linearGradient id="i" x1="50%" x2="50%" y1="100%" y2="0%"><stop offset="0%" stop-color="#a9b1bb"/><stop offset="9%" stop-color="#61666b"/><stop offset="18%" stop-color="#696e73"/><stop offset="32%" stop-color="#7e8489"/><stop offset="49%" stop-color="#a1a7ae"/><stop offset="69%" stop-color="#d1d8e0"/><stop offset="75%" stop-color="#e2eaf2"/><stop offset="93%" stop-color="#9ba1ab"/><stop offset="100%" stop-color="#767b82"/></linearGradient><linearGradient id="j" x1="49.798%" x2="49.798%" y1="100%" y2="0%"><stop offset="0%" stop-color="#a9b1bb"/><stop offset="9%" stop-color="#61666b"/><stop offset="18%" stop-color="#696e73"/><stop offset="32%" stop-color="#7e8489"/><stop offset="49%" stop-color="#a1a7ae"/><stop offset="69%" stop-color="#d1d8e0"/><stop offset="75%" stop-color="#e2eaf2"/><stop offset="93%" stop-color="#9ba1ab"/><stop offset="100%" stop-color="#767b82"/></linearGradient><linearGradient id="k" x1="49.869%" x2="49.869%" y1="100%" y2="0%"><stop offset="0%" stop-color="#a9b1bb"/><stop offset="9%" stop-color="#61666b"/><stop offset="18%" stop-color="#696e73"/><stop offset="32%" stop-color="#7e8489"/><stop offset="49%" stop-color="#a1a7ae"/><stop offset="69%" stop-color="#d1d8e0"/><stop offset="75%" stop-color="#e2eaf2"/><stop offset="93%" stop-color="#9ba1ab"/><stop offset="100%" stop-color="#767b82"/></linearGradient><linearGradient id="l" x1="0%" x2="100%" y1="50%" y2="50%"><stop offset="0%" stop-color="#2e3033"/><stop offset="100%" stop-color="#9ba1ab" stop-opacity="0"/></linearGradient><linearGradient id="m" x1="49.81%" x2="49.81%" y1="100%" y2="0%"><stop offset="0%" stop-color="#676b70"/><stop offset="2%" stop-color="#484b4d"/><stop offset="19%" stop-color="#747980"/><stop offset="20%" stop-color="#d1d5db"/><stop offset="79%" stop-color="#c7cfdb"/><stop offset="80%" stop-color="#edf5ff"/><stop offset="81%" stop-color="#c3c7cc"/><stop offset="100%" stop-color="#929599"/></linearGradient><linearGradient id="n" x1="50%" x2="50%" y1="100%" y2="0%"><stop offset="0%" stop-color="#676b70"/><stop offset="2%" stop-color="#484b4d"/><stop offset="19%" stop-color="#747980"/><stop offset="20%" stop-color="#d1d5db"/><stop offset="79%" stop-color="#c7cfdb"/><stop offset="80%" stop-color="#edf5ff"/><stop offset="81%" stop-color="#c3c7cc"/><stop offset="100%" stop-color="#929599"/></linearGradient><linearGradient id="o" x1="49.81%" x2="49.81%" y1="99.824%" y2="0%"><stop offset="0%" stop-color="#676b70"/><stop offset="2%" stop-color="#484b4d"/><stop offset="19%" stop-color="#747980"/><stop offset="20%" stop-color="#d1d5db"/><stop offset="79%" stop-color="#c7cfdb"/><stop offset="80%" stop-color="#edf5ff"/><stop offset="81%" stop-color="#c3c7cc"/><stop offset="100%" stop-color="#929599"/></linearGradient><linearGradient id="p" x1="88.034%" x2="11.966%" y1="4.56%" y2="95.406%"><stop offset="0%" stop-color="#ebf0f5"/><stop offset="100%" stop-color="#b8c0cc"/></linearGradient><linearGradient id="q" x1="88.064%" x2="11.936%" y1="4.592%" y2="95.408%"><stop offset="0%" stop-color="#8a9099"/><stop offset="100%" stop-color="#65676b"/></linearGradient><linearGradient id="r" x1="50.023%" x2="50.023%" y1="0%" y2="100%"><stop offset="0%" stop-color="#f5faff"/><stop offset="100%" stop-color="#5c6066"/></linearGradient><linearGradient id="s" x1="85.054%" x2="14.343%" y1="14.261%" y2="84.972%"><stop offset="0%" stop-color="#9ba1ab"/><stop offset="0%" stop-color="#abb1ba"/><stop offset="9%" stop-color="#abb1ba"/><stop offset="46%" stop-color="#f5faff"/><stop offset="100%" stop-color="#a9b1bb"/></linearGradient><linearGradient id="t" x1="1243.75%" x2="1243.75%" y1="385.625%" y2="485%"><stop offset="0%" stop-color="#9ba1ab"/><stop offset="0%" stop-color="#abb1ba"/><stop offset="9%" stop-color="#abb1ba"/><stop offset="46%" stop-color="#f5faff"/><stop offset="100%" stop-color="#a9b1bb"/></linearGradient><linearGradient id="u" x1="24.375%" x2="24.375%" y1="30.625%" y2="130.625%"><stop offset="0%" stop-color="#9ba1ab"/><stop offset="0%" stop-color="#abb1ba"/><stop offset="9%" stop-color="#abb1ba"/><stop offset="46%" stop-color="#f5faff"/><stop offset="100%" stop-color="#a9b1bb"/></linearGradient><linearGradient id="v" x1="940%" x2="940%" y1="-348.125%" y2="-248.125%"><stop offset="0%" stop-color="#9ba1ab"/><stop offset="0%" stop-color="#abb1ba"/><stop offset="9%" stop-color="#abb1ba"/><stop offset="46%" stop-color="#f5faff"/><stop offset="100%" stop-color="#a9b1bb"/></linearGradient><linearGradient id="w" x1="22.633%" x2="69.073%" y1="43.476%" y2="53.07%"><stop offset="0%" stop-color="#a9b1bb"/><stop offset="9%" stop-color="#61666b"/><stop offset="20%" stop-color="#696e73"/><stop offset="36%" stop-color="#7e8489"/><stop offset="56%" stop-color="#a1a7ae"/><stop offset="78%" stop-color="#d1d8e0"/><stop offset="86%" stop-color="#e2eaf2"/><stop offset="93%" stop-color="#9ba1ab"/><stop offset="100%" stop-color="#767b82"/></linearGradient><linearGradient id="x" x1="0%" x2="100%" y1="49.655%" y2="49.655%"><stop offset="0%" stop-color="#a9b1bb"/><stop offset="9%" stop-color="#61666b"/><stop offset="20%" stop-color="#696e73"/><stop offset="36%" stop-color="#7e8489"/><stop offset="56%" stop-color="#a1a7ae"/><stop offset="78%" stop-color="#d1d8e0"/><stop offset="86%" stop-color="#e2eaf2"/><stop offset="93%" stop-color="#9ba1ab"/><stop offset="100%" stop-color="#767b82"/></linearGradient><linearGradient id="y" x1="-.308%" x2="99.692%" y1="49.945%" y2="49.945%"><stop offset="0%" stop-color="#a9b1bb"/><stop offset="9%" stop-color="#61666b"/><stop offset="18%" stop-color="#696e73"/><stop offset="32%" stop-color="#7e8489"/><stop offset="49%" stop-color="#a1a7ae"/><stop offset="69%" stop-color="#d1d8e0"/><stop offset="75%" stop-color="#e2eaf2"/><stop offset="93%" stop-color="#9ba1ab"/><stop offset="100%" stop-color="#767b82"/></linearGradient><linearGradient id="z" x1="0%" x2="100%" y1="49.95%" y2="49.95%"><stop offset="0%" stop-color="#a9b1bb"/><stop offset="9%" stop-color="#61666b"/><stop offset="18%" stop-color="#696e73"/><stop offset="32%" stop-color="#7e8489"/><stop offset="49%" stop-color="#a1a7ae"/><stop offset="69%" stop-color="#d1d8e0"/><stop offset="75%" stop-color="#e2eaf2"/><stop offset="93%" stop-color="#9ba1ab"/><stop offset="100%" stop-color="#767b82"/></linearGradient><linearGradient id="A" x1="50%" x2="50%" y1="100%" y2="0%"><stop offset="0%" stop-color="#767b82"/><stop offset="8%" stop-color="#9ba1ab"/><stop offset="91%" stop-color="#9ba1ab"/><stop offset="96%" stop-color="#d7dce0"/><stop offset="98%" stop-color="#767b82"/></linearGradient><linearGradient id="B" x1="50.09%" x2="50.09%" y1="100%" y2="0%"><stop offset="0%" stop-color="#767b82"/><stop offset="2%" stop-color="#9ba1ab"/><stop offset="98%" stop-color="#9ba1ab"/><stop offset="99%" stop-color="#d7dce0"/><stop offset="100%" stop-color="#767b82"/></linearGradient><linearGradient id="C" x1="49.91%" x2="49.91%" y1="100%" y2="0%"><stop offset="0%" stop-color="#767b82"/><stop offset="2%" stop-color="#9ba1ab"/><stop offset="98%" stop-color="#9ba1ab"/><stop offset="99%" stop-color="#d7dce0"/><stop offset="100%" stop-color="#767b82"/></linearGradient><linearGradient id="D" x1="50%" x2="50%" y1="100%" y2="0%"><stop offset="0%" stop-color="#a9b1bb"/><stop offset="9%" stop-color="#a2aab3"/><stop offset="66%" stop-color="#a2a8b3"/><stop offset="90%" stop-color="#e2eaf2"/><stop offset="100%" stop-color="#767b82"/></linearGradient><linearGradient id="E" x1="51.515%" x2="51.515%" y1="100%" y2="0%"><stop offset="0%" stop-color="#676b70"/><stop offset="2%" stop-color="#484b4d"/><stop offset="19%" stop-color="#747980"/><stop offset="20%" stop-color="#d1d5db"/><stop offset="79%" stop-color="#c7cfdb"/><stop offset="80%" stop-color="#edf5ff"/><stop offset="81%" stop-color="#c3c7cc"/><stop offset="100%" stop-color="#929599"/></linearGradient><linearGradient id="F" x1="50%" x2="50%" y1="100%" y2=".704%"><stop offset="0%" stop-color="#676b70"/><stop offset="2%" stop-color="#484b4d"/><stop offset="19%" stop-color="#747980"/><stop offset="20%" stop-color="#d1d5db"/><stop offset="79%" stop-color="#c7cfdb"/><stop offset="80%" stop-color="#edf5ff"/><stop offset="81%" stop-color="#c3c7cc"/><stop offset="100%" stop-color="#929599"/></linearGradient><linearGradient id="G" x1="0%" x2="100%" y1="50.189%" y2="50.189%"><stop offset="0%" stop-color="#a9b1bb"/><stop offset="9%" stop-color="#61666b"/><stop offset="18%" stop-color="#696e73"/><stop offset="32%" stop-color="#7e8489"/><stop offset="49%" stop-color="#a1a7ae"/><stop offset="69%" stop-color="#d1d8e0"/><stop offset="75%" stop-color="#e2eaf2"/><stop offset="93%" stop-color="#9ba1ab"/><stop offset="100%" stop-color="#767b82"/></linearGradient><linearGradient id="H" x1="50%" x2="50%" y1="105.169%" y2="-5.274%"><stop offset="0%" stop-color="#a9b1bb"/><stop offset="9%" stop-color="#61666b"/><stop offset="18%" stop-color="#696e73"/><stop offset="32%" stop-color="#7e8489"/><stop offset="49%" stop-color="#a1a7ae"/><stop offset="69%" stop-color="#d1d8e0"/><stop offset="75%" stop-color="#e2eaf2"/><stop offset="93%" stop-color="#9ba1ab"/><stop offset="100%" stop-color="#767b82"/></linearGradient></defs><g fill="none" fill-rule="evenodd" transform="translate(0 .579)"><path fill="url(#a)" fill-rule="nonzero" d="M130.42 31.05H150v12.33h-19.58z"/><path fill="url(#b)" fill-rule="nonzero" d="M97.81 16.94h19.1v5.67h-19.1z"/><path fill="url(#b)" fill-rule="nonzero" d="M97.81 28.22h19.1v5.67h-19.1z"/><path fill="url(#b)" fill-rule="nonzero" d="M97.81 39.49h19.1v5.67h-19.1z"/><path fill="url(#c)" fill-rule="nonzero" d="M97.81 50.77h19.1v5.67h-19.1z"/><path fill="url(#d)" fill-rule="nonzero" d="M0 15.38h84.05v43.67H0z"/><path fill="url(#e)" fill-rule="nonzero" d="M10.48 15.38h7.36v43.67h-7.36z" opacity=".3"/><path fill="url(#f)" fill-rule="nonzero" d="M0 13.92h10.48v46.6H0z"/><path fill="url(#g)" fill-rule="nonzero" d="M84.05 13.92h11.13v46.6H84.05z"/><path fill="url(#h)" fill-rule="nonzero" d="M97.81 13.92h15.11v46.6H97.81z"/><path fill="url(#i)" fill-rule="nonzero" d="M120.63 21.53h19.58v31.38h-19.58z"/><path fill="url(#j)" fill-rule="nonzero" d="M114.33 13.92h2.47v46.6h-2.47z"/><path fill="url(#k)" fill-rule="nonzero" d="m120.63 53.08-3.83 7.44v-46.6l3.83 7.44z"/><path fill="url(#l)" fill-rule="nonzero" d="m120.63 53.08-3.83 7.44v-46.6l3.83 7.44z" opacity=".1"/><path fill="url(#m)" fill-rule="nonzero" d="M95.18 16.94h2.63v5.67h-2.63z"/><path fill="url(#n)" fill-rule="nonzero" d="M140.21 23.97h1.02v3.84h-1.02z"/><path fill="url(#n)" fill-rule="nonzero" d="M140.21 35.3h1.02v3.84h-1.02z"/><path fill="url(#n)" fill-rule="nonzero" d="M140.21 46.62h1.02v3.84h-1.02z"/><path fill="url(#m)" fill-rule="nonzero" d="M95.18 28.22h2.63v5.67h-2.63z"/><path fill="url(#m)" fill-rule="nonzero" d="M95.18 39.49h2.63v5.67h-2.63z"/><path fill="url(#o)" fill-rule="nonzero" d="M95.18 50.77h2.63v5.67h-2.63z"/><path stroke="#252628" stroke-width=".25" d="M91.54 13.92v46.6m44.78-38.99v31.38" opacity=".8"/><rect width="24.25" height="28.95" x="14.87" y="25.02" fill="url(#p)" fill-rule="nonzero" rx=".52"/><rect width="21.35" height="25.48" x="16.32" y="26.75" fill="url(#q)" fill-rule="nonzero" rx=".46"/><path fill="url(#r)" fill-rule="nonzero" d="M37.21 27a.21.21 0 0 1 .21.21v24.56a.21.21 0 0 1-.21.21H16.78a.21.21 0 0 1-.21-.21V27.21a.21.21 0 0 1 .21-.21zm0-.25H16.78a.47.47 0 0 0-.46.46v24.56c0 .254.206.46.46.46h20.43a.46.46 0 0 0 .46-.46V27.21a.47.47 0 0 0-.46-.46"/><circle cx="18.7" cy="29.25" r="1" fill="url(#s)" fill-rule="nonzero" stroke="#505458" stroke-width=".25"/><path fill="#505458" fill-rule="nonzero" d="m18.4 28.86.31.31.31-.31.07.07-.31.31.31.31-.09.05-.31-.31-.34.34-.07-.06.35-.34-.32-.31z"/><circle cx="18.7" cy="49.96" r="1" fill="url(#t)" fill-rule="nonzero" stroke="#505458" stroke-width=".25"/><path fill="#505458" fill-rule="nonzero" d="m18.4 49.57.31.31.31-.31.07.07-.31.31.31.31-.06.06-.31-.31-.34.34-.07-.07.35-.34-.32-.31z"/><circle cx="35.3" cy="29.25" r="1" fill="url(#u)" fill-rule="nonzero" stroke="#505458" stroke-width=".25"/><path fill="#505458" fill-rule="nonzero" d="m35 28.86.31.31.31-.31.07.07-.31.31.31.31-.06.05-.31-.31-.34.34-.07-.06.34-.34-.31-.31z"/><circle cx="35.3" cy="49.96" r="1" fill="url(#v)" fill-rule="nonzero" stroke="#505458" stroke-width=".25"/><path fill="#505458" fill-rule="nonzero" d="m35 49.57.31.31.31-.31.07.07-.31.31.31.31-.06.06-.31-.31-.34.34-.07-.07.34-.34-.31-.31z"/><path fill="url(#w)" fill-rule="nonzero" d="M135.3 2.69h-12.43l2.32 18.24h7.79z"/><rect width="13.67" height="1.45" x="122.35" y="1.55" fill="url(#x)" fill-rule="nonzero" rx=".725"/><path fill="url(#y)" fill-rule="nonzero" d="M134 21.55a19.3 19.3 0 0 1-4.87.55 19.2 19.2 0 0 1-4.87-.55l.79-1.51a37 37 0 0 0 4.06.2 38 38 0 0 0 4.1-.2z"/><path fill="url(#z)" fill-rule="nonzero" d="M41.51 15.55a12.4 12.4 0 0 1-3.4.42 12.4 12.4 0 0 1-3.4-.42l.55-1.16H41z"/><path fill="url(#A)" fill-rule="nonzero" d="M0 68.45h150v9.05H0z"/><path fill="url(#B)" fill-rule="nonzero" d="M24.98 64.75h5.55v3.7h-5.55z"/><path fill="url(#C)" fill-rule="nonzero" d="M61.64 64.75h5.55v3.7h-5.55z"/><path fill="url(#D)" fill-rule="nonzero" d="M27.73 59.05h36.1v5.7h-36.1z"/><path fill="url(#E)" fill-rule="nonzero" d="M28.8 63.71h1v1.42h-1z" transform="rotate(90 29.13 64.42)"/><path fill="url(#F)" fill-rule="nonzero" d="M62.39 63.71h1v1.42h-1z" transform="rotate(90 62.72 64.42)"/><path fill="url(#G)" fill-rule="nonzero" d="M36.72 9.1h2.75v5.28h-2.75z"/><ellipse cx="38.11" cy="4.74" stroke="url(#H)" rx="3.54" ry="4.74"/></g></svg>