<svg xmlns="http://www.w3.org/2000/svg" viewBox="0 0 150 151"><title>Separator 2(分离器2)</title><defs><linearGradient id="a" x1="50%" x2="50%" y1="100%" y2="0%"><stop offset="0%" stop-color="#a9b1bb"/><stop offset="9%" stop-color="#61666b"/><stop offset="18%" stop-color="#696e73"/><stop offset="32%" stop-color="#7e8489"/><stop offset="49%" stop-color="#a1a7ae"/><stop offset="69%" stop-color="#d1d8e0"/><stop offset="75%" stop-color="#e2eaf2"/><stop offset="93%" stop-color="#9ba1ab"/><stop offset="100%" stop-color="#767b82"/></linearGradient><linearGradient id="b" x1="50.01%" x2="50.01%" y1="100%" y2="0%"><stop offset="0%" stop-color="#a9b1bb"/><stop offset="9%" stop-color="#61666b"/><stop offset="18%" stop-color="#696e73"/><stop offset="32%" stop-color="#7e8489"/><stop offset="49%" stop-color="#a1a7ae"/><stop offset="69%" stop-color="#d1d8e0"/><stop offset="75%" stop-color="#e2eaf2"/><stop offset="93%" stop-color="#9ba1ab"/><stop offset="100%" stop-color="#767b82"/></linearGradient><linearGradient id="c" x1="45.076%" x2="52.638%" y1="74.993%" y2="24.98%"><stop offset="0%" stop-color="#a9b1bb"/><stop offset="9%" stop-color="#61666b"/><stop offset="18%" stop-color="#696e73"/><stop offset="32%" stop-color="#7e8489"/><stop offset="49%" stop-color="#a1a7ae"/><stop offset="69%" stop-color="#d1d8e0"/><stop offset="75%" stop-color="#e2eaf2"/><stop offset="93%" stop-color="#9ba1ab"/><stop offset="100%" stop-color="#767b82"/></linearGradient><linearGradient id="d" x1="81.122%" x2="15.199%" y1="37.805%" y2="63.641%"><stop offset="0%" stop-color="#ebf0f5"/><stop offset="100%" stop-color="#8a9099"/></linearGradient><linearGradient id="e" x1="77.991%" x2="22.009%" y1="46.654%" y2="53.346%"><stop offset="0%" stop-color="#abafb3"/><stop offset="100%" stop-color="#45484d"/></linearGradient><linearGradient id="f" x1="0%" x2="100.013%" y1="50%" y2="50%"><stop offset="0%" stop-color="#a9b1bb"/><stop offset="9%" stop-color="#a2aab3"/><stop offset="66%" stop-color="#a2a8b3"/><stop offset="90%" stop-color="#e2eaf2"/><stop offset="100%" stop-color="#767b82"/></linearGradient><linearGradient id="g" x1="47.469%" x2="51.926%" y1="99.937%" y2="-.139%"><stop offset="0%" stop-color="#ebf0f5"/><stop offset="100%" stop-color="#8a9099"/></linearGradient><linearGradient id="h" x1="49.992%" x2="49.992%" y1="100%" y2="0%"><stop offset="0%" stop-color="#767b82"/><stop offset="8%" stop-color="#9ba1ab"/><stop offset="91%" stop-color="#9ba1ab"/><stop offset="96%" stop-color="#d7dce0"/><stop offset="98%" stop-color="#767b82"/></linearGradient><linearGradient id="i" x1="49.992%" x2="49.992%" y1="100%" y2=".112%"><stop offset="0%" stop-color="#767b82"/><stop offset="8%" stop-color="#9ba1ab"/><stop offset="91%" stop-color="#9ba1ab"/><stop offset="96%" stop-color="#d7dce0"/><stop offset="98%" stop-color="#767b82"/></linearGradient><linearGradient id="j" x1="50.005%" x2="50.005%" y1="99.888%" y2="0%"><stop offset="0%" stop-color="#767b82"/><stop offset="8%" stop-color="#9ba1ab"/><stop offset="91%" stop-color="#9ba1ab"/><stop offset="96%" stop-color="#d7dce0"/><stop offset="98%" stop-color="#767b82"/></linearGradient><linearGradient id="k" x1="0%" x2="100%" y1="50%" y2="50%"><stop offset="0%" stop-color="#a9b1bb"/><stop offset="9%" stop-color="#61666b"/><stop offset="18%" stop-color="#696e73"/><stop offset="32%" stop-color="#7e8489"/><stop offset="49%" stop-color="#a1a7ae"/><stop offset="69%" stop-color="#d1d8e0"/><stop offset="75%" stop-color="#e2eaf2"/><stop offset="93%" stop-color="#9ba1ab"/><stop offset="100%" stop-color="#767b82"/></linearGradient><linearGradient id="l" x1="0%" x2="100%" y1="49.935%" y2="49.935%"><stop offset="0%" stop-color="#ebf0f5"/><stop offset="100%" stop-color="#8a9099"/></linearGradient><linearGradient id="m" x1="66.893%" x2="40.949%" y1="11.454%" y2="65.743%"><stop offset="0%" stop-color="#ebf0f5"/><stop offset="100%" stop-color="#8a9099"/></linearGradient><linearGradient id="n" x1="50.182%" x2="50.182%" y1="104.364%" y2="-4.727%"><stop offset="0%" stop-color="#dce1e6"/><stop offset="100%" stop-color="#5c6066"/></linearGradient><linearGradient id="o" x1="88.836%" x2="11.194%" y1="28.526%" y2="71.49%"><stop offset="0%" stop-color="#abafb3"/><stop offset="100%" stop-color="#45484d"/></linearGradient><linearGradient id="p" x1="86.633%" x2="13.299%" y1="67.095%" y2="32.889%"><stop offset="0%" stop-color="#dce1e6"/><stop offset="100%" stop-color="#8a9099"/></linearGradient></defs><g fill="none" fill-rule="nonzero"><path fill="#252628" d="M118.22 106.559v-6.47h-4.53v-3.88h-4.11v-6.44l-52.51-49.5V2.829l-35.75 11.98v74.96l-12.39-.38v13.01h74.89v4.16z"/><path fill="url(#a)" d="M94.54 61.48H150v9.68H94.54z" transform="translate(0 .079)"/><path fill="url(#b)" d="M85.15 47.41H134v37.83H85.15z" transform="translate(0 .079)"/><path fill="url(#c)" d="M134 85.24V47.41s5.72 5.11 5.72 18.91S134 85.24 134 85.24" transform="translate(0 .079)"/><path fill="url(#d)" d="M128.64 78.12H31.86V40.19h89.66z" transform="translate(0 .079)"/><path fill="url(#e)" d="M31.86 78.12h96.78v11.57H31.86z" transform="translate(0 .079)"/><path fill="url(#f)" d="M-26.82 41.55h74.96v21.32h-74.96z" transform="rotate(-90 10.7 52.25)"/><path fill="url(#g)" d="m55.3 0-2.14 34.47H25.21L27.35 0z" transform="translate(0 .079)"/><path fill="url(#h)" d="M-25.88 115.19h60.69v8.93h-60.69z" transform="rotate(90 4.426 119.694)"/><path fill="url(#i)" d="M56.93 115.19h60.69v8.93H56.93z" transform="rotate(90 87.236 119.695)"/><path fill="url(#j)" d="M0 93.4h99.73v8.93H0z" transform="translate(0 .079)"/><path fill="url(#k)" d="M65.835-1.035h19.93v37.46h-19.93z" transform="rotate(-90 75.84 17.734)"/><path fill="url(#l)" d="M81.355 18.505h4.14v7.71h-4.14z" opacity=".6" transform="rotate(-90 83.465 22.4)"/><path fill="#252628" d="M59.88 23.949v-1.94h15.03v1.94zM59.88 26.549v-1.94h15.03v1.94zM59.88 21.349v-1.94h15.03v1.94zM59.88 18.749v-1.94h15.03v1.94zM59.88 16.149v-1.94h15.03v1.94zM59.88 13.549v-1.94h15.03v1.94zM59.88 10.949v-1.94h15.03v1.94z"/><path fill="url(#m)" d="M24.08 40.19V51.6l7.78 7.36v-4.88h1.19V40.19z" transform="translate(0 .079)"/><path fill="#252628" stroke="url(#n)" stroke-width=".25" d="M28.54 42.17H27.4l-.81.8v1.14l.81.81h1.14l.8-.81v-1.14z" transform="translate(0 .079)"/><path fill="url(#o)" d="M91.31 102.32h33.59v18.58H91.31z" transform="translate(0 .079)"/><path fill="#494d53" d="M123.22 119.329H92.98v-14.56h30.24z"/><path fill="#dde4ec" d="M122.8 119.329H92.98v-14.14h29.82z"/><path fill="url(#p)" d="M93.39 105.11h29.4v13.72h-29.4z" transform="matrix(-1 0 0 -1 216.18 224.019)"/></g></svg>