<svg xmlns="http://www.w3.org/2000/svg" viewBox="0 0 141 151"><title>Separator 1(分离器1)</title><defs><linearGradient id="a" x1="0%" x2="100%" y1="50%" y2="50%"><stop offset="0%" stop-color="#a9b1bb"/><stop offset="9%" stop-color="#61666b"/><stop offset="18%" stop-color="#696e73"/><stop offset="32%" stop-color="#7e8489"/><stop offset="49%" stop-color="#a1a7ae"/><stop offset="69%" stop-color="#d1d8e0"/><stop offset="75%" stop-color="#e2eaf2"/><stop offset="93%" stop-color="#9ba1ab"/><stop offset="100%" stop-color="#767b82"/></linearGradient><linearGradient id="b" x1="43.258%" x2="59.831%" y1="55.774%" y2="45.811%"><stop offset="0%" stop-color="#ebf0f5"/><stop offset="6%" stop-color="#dde2e8"/><stop offset="22%" stop-color="#bfc4cb"/><stop offset="38%" stop-color="#a8adb5"/><stop offset="56%" stop-color="#979da5"/><stop offset="75%" stop-color="#8d939c"/><stop offset="100%" stop-color="#8a9099"/></linearGradient><linearGradient id="c" x1="77.863%" x2="22.147%" y1="46.815%" y2="53.185%"><stop offset="0%" stop-color="#ebf0f5"/><stop offset="100%" stop-color="#8a9099"/></linearGradient><linearGradient id="d" x1="24.651%" x2="75.349%" y1="46.529%" y2="52.323%"><stop offset="0%" stop-color="#8a9099"/><stop offset="100%" stop-color="#abafb3"/></linearGradient><linearGradient id="e" x1="0%" x2="100%" y1="50%" y2="50%"><stop offset="0%" stop-color="#a9b1bb"/><stop offset="9%" stop-color="#a2aab3"/><stop offset="74%" stop-color="#a2a8b3"/><stop offset="90%" stop-color="#e2eaf2"/><stop offset="100%" stop-color="#767b82"/></linearGradient><linearGradient id="f" x1="-.023%" x2="99.977%" y1="50%" y2="50%"><stop offset="0%" stop-color="#a9b1bb"/><stop offset="9%" stop-color="#61666b"/><stop offset="18%" stop-color="#696e73"/><stop offset="32%" stop-color="#7e8489"/><stop offset="49%" stop-color="#a1a7ae"/><stop offset="69%" stop-color="#d1d8e0"/><stop offset="75%" stop-color="#e2eaf2"/><stop offset="93%" stop-color="#9ba1ab"/><stop offset="100%" stop-color="#767b82"/></linearGradient><linearGradient id="g" x1="50%" x2="50%" y1="100%" y2="0%"><stop offset="0%" stop-color="#9ba1ab" stop-opacity="0"/><stop offset="100%" stop-color="#2e3033"/></linearGradient><linearGradient id="h" x1="49.976%" x2="49.976%" y1="100%" y2="0%"><stop offset="0%" stop-color="#cfd9e6"/><stop offset="9%" stop-color="#a2aab3"/><stop offset="23%" stop-color="#aab2bb"/><stop offset="43%" stop-color="#c0c8d1"/><stop offset="69%" stop-color="#e4edf5"/><stop offset="75%" stop-color="#eef7ff"/><stop offset="93%" stop-color="#d0d8e6"/><stop offset="100%" stop-color="#b9c1cc"/></linearGradient><linearGradient id="i" x1="0%" x2="100%" y1="50.063%" y2="50.063%"><stop offset="0%" stop-color="#a9b1bb"/><stop offset="9%" stop-color="#61666b"/><stop offset="18%" stop-color="#696e73"/><stop offset="32%" stop-color="#7e8489"/><stop offset="49%" stop-color="#a1a7ae"/><stop offset="69%" stop-color="#d1d8e0"/><stop offset="75%" stop-color="#e2eaf2"/><stop offset="93%" stop-color="#9ba1ab"/><stop offset="100%" stop-color="#767b82"/></linearGradient><linearGradient id="j" x1="50%" x2="50%" y1="100%" y2="0%"><stop offset="0%" stop-color="#9ba1ab" stop-opacity="0"/><stop offset="100%" stop-color="#2e3033"/></linearGradient><linearGradient id="k" x1="0%" x2="100%" y1="49.874%" y2="49.874%"><stop offset="0%" stop-color="#a9b1bb"/><stop offset="9%" stop-color="#61666b"/><stop offset="18%" stop-color="#696e73"/><stop offset="32%" stop-color="#7e8489"/><stop offset="49%" stop-color="#a1a7ae"/><stop offset="69%" stop-color="#d1d8e0"/><stop offset="75%" stop-color="#e2eaf2"/><stop offset="93%" stop-color="#9ba1ab"/><stop offset="100%" stop-color="#767b82"/></linearGradient><linearGradient id="l" x1="50%" x2="50%" y1="100%" y2="0%"><stop offset="0%" stop-color="#9ba1ab" stop-opacity="0"/><stop offset="100%" stop-color="#2e3033"/></linearGradient><linearGradient id="m" x1="0%" x2="99.976%" y1="50%" y2="50%"><stop offset="0%" stop-color="#a9b1bb"/><stop offset="9%" stop-color="#61666b"/><stop offset="18%" stop-color="#696e73"/><stop offset="32%" stop-color="#7e8489"/><stop offset="49%" stop-color="#a1a7ae"/><stop offset="69%" stop-color="#d1d8e0"/><stop offset="75%" stop-color="#e2eaf2"/><stop offset="93%" stop-color="#9ba1ab"/><stop offset="100%" stop-color="#767b82"/></linearGradient><linearGradient id="n" x1="0%" x2="100%" y1="50%" y2="50%"><stop offset="0%" stop-color="#a9b1bb"/><stop offset="9%" stop-color="#61666b"/><stop offset="18%" stop-color="#696e73"/><stop offset="32%" stop-color="#7e8489"/><stop offset="49%" stop-color="#a1a7ae"/><stop offset="69%" stop-color="#d1d8e0"/><stop offset="75%" stop-color="#e2eaf2"/><stop offset="93%" stop-color="#9ba1ab"/><stop offset="100%" stop-color="#767b82"/></linearGradient><linearGradient id="o" x1="0%" x2="100%" y1="50%" y2="50%"><stop offset="0%" stop-color="#cfd9e6"/><stop offset="9%" stop-color="#a2aab3"/><stop offset="23%" stop-color="#aab2bb"/><stop offset="43%" stop-color="#c0c8d1"/><stop offset="69%" stop-color="#e4edf5"/><stop offset="75%" stop-color="#eef7ff"/><stop offset="93%" stop-color="#d0d8e6"/><stop offset="100%" stop-color="#b9c1cc"/></linearGradient><linearGradient id="p" x1="0%" x2="100%" y1="50.07%" y2="50.07%"><stop offset="0%" stop-color="#cfd9e6"/><stop offset="9%" stop-color="#a2aab3"/><stop offset="23%" stop-color="#aab2bb"/><stop offset="43%" stop-color="#c0c8d1"/><stop offset="69%" stop-color="#e4edf5"/><stop offset="75%" stop-color="#eef7ff"/><stop offset="93%" stop-color="#d0d8e6"/><stop offset="100%" stop-color="#b9c1cc"/></linearGradient><linearGradient id="q" x1="0%" x2="100%" y1="50%" y2="50%"><stop offset="0%" stop-color="#cfd9e6"/><stop offset="9%" stop-color="#a2aab3"/><stop offset="23%" stop-color="#aab2bb"/><stop offset="43%" stop-color="#c0c8d1"/><stop offset="69%" stop-color="#e4edf5"/><stop offset="75%" stop-color="#eef7ff"/><stop offset="93%" stop-color="#d0d8e6"/><stop offset="100%" stop-color="#b9c1cc"/></linearGradient><linearGradient id="r" x1="0%" x2="100%" y1="49.853%" y2="49.853%"><stop offset="0%" stop-color="#cfd9e6"/><stop offset="9%" stop-color="#a2aab3"/><stop offset="23%" stop-color="#aab2bb"/><stop offset="43%" stop-color="#c0c8d1"/><stop offset="69%" stop-color="#e4edf5"/><stop offset="75%" stop-color="#eef7ff"/><stop offset="93%" stop-color="#d0d8e6"/><stop offset="100%" stop-color="#b9c1cc"/></linearGradient><linearGradient id="s" x1="4.305%" x2="79.588%" y1="70.15%" y2="45.601%"><stop offset="0%" stop-color="#cfd9e6"/><stop offset="9%" stop-color="#a2aab3"/><stop offset="79%" stop-color="#e4edf5"/><stop offset="93%" stop-color="#d0d8e6"/><stop offset="100%" stop-color="#b9c1cc"/></linearGradient><linearGradient id="t" x1="50%" x2="50%" y1="100%" y2="0%"><stop offset="0%" stop-color="#2e3033"/><stop offset="100%" stop-color="#9ba1ab" stop-opacity="0"/></linearGradient><linearGradient id="u" x1="0%" x2="100%" y1="49.889%" y2="49.889%"><stop offset="0%" stop-color="#a9b1bb"/><stop offset="9%" stop-color="#61666b"/><stop offset="18%" stop-color="#696e73"/><stop offset="32%" stop-color="#7e8489"/><stop offset="49%" stop-color="#a1a7ae"/><stop offset="69%" stop-color="#d1d8e0"/><stop offset="75%" stop-color="#e2eaf2"/><stop offset="93%" stop-color="#9ba1ab"/><stop offset="100%" stop-color="#767b82"/></linearGradient><linearGradient id="v" x1="50%" x2="50%" y1="100%" y2="0%"><stop offset="0%" stop-color="#9ba1ab" stop-opacity="0"/><stop offset="100%" stop-color="#2e3033"/></linearGradient><linearGradient id="w" x1="0%" x2="99.976%" y1="49.952%" y2="49.952%"><stop offset="0%" stop-color="#a9b1bb"/><stop offset="9%" stop-color="#61666b"/><stop offset="18%" stop-color="#696e73"/><stop offset="32%" stop-color="#7e8489"/><stop offset="49%" stop-color="#a1a7ae"/><stop offset="69%" stop-color="#d1d8e0"/><stop offset="75%" stop-color="#e2eaf2"/><stop offset="93%" stop-color="#9ba1ab"/><stop offset="100%" stop-color="#767b82"/></linearGradient><linearGradient id="x" x1="0%" x2="100%" y1="50%" y2="50%"><stop offset="0%" stop-color="#a9b1bb"/><stop offset="9%" stop-color="#61666b"/><stop offset="18%" stop-color="#696e73"/><stop offset="32%" stop-color="#7e8489"/><stop offset="49%" stop-color="#a1a7ae"/><stop offset="69%" stop-color="#d1d8e0"/><stop offset="75%" stop-color="#e2eaf2"/><stop offset="93%" stop-color="#9ba1ab"/><stop offset="100%" stop-color="#767b82"/></linearGradient><linearGradient id="y" x1="49.976%" x2="49.976%" y1="100%" y2="0%"><stop offset="0%" stop-color="#9ba1ab" stop-opacity="0"/><stop offset="100%" stop-color="#2e3033"/></linearGradient><linearGradient id="z" x1=".559%" x2="94.748%" y1="53.625%" y2="47.354%"><stop offset="0%" stop-color="#a9b1bb"/><stop offset="9%" stop-color="#61666b"/><stop offset="18%" stop-color="#696e73"/><stop offset="32%" stop-color="#7e8489"/><stop offset="49%" stop-color="#a1a7ae"/><stop offset="68%" stop-color="#d1d8e0"/><stop offset="74%" stop-color="#e2eaf2"/><stop offset="93%" stop-color="#9ba1ab"/><stop offset="100%" stop-color="#767b82"/></linearGradient><linearGradient id="A" x1="0%" x2="100%" y1="50%" y2="50%"><stop offset="0%" stop-color="#8a9099"/><stop offset="100%" stop-color="#d7dce0"/></linearGradient><linearGradient id="B" x1="0%" x2="100%" y1="50%" y2="50%"><stop offset="0%" stop-color="#868c95"/><stop offset="100%" stop-color="#d0d5d9"/></linearGradient><linearGradient id="C" x1="0%" x2="100%" y1="50%" y2="50%"><stop offset="0%" stop-color="#838991"/><stop offset="100%" stop-color="#c9cdd1"/></linearGradient><linearGradient id="D" x1="0%" x2="100%" y1="50%" y2="50%"><stop offset="0%" stop-color="#7f858d"/><stop offset="100%" stop-color="#c2c6ca"/></linearGradient><linearGradient id="E" x1="0%" x2="100%" y1="50%" y2="50%"><stop offset="0%" stop-color="#7c8189"/><stop offset="100%" stop-color="#babfc2"/></linearGradient><linearGradient id="F" x1="0%" x2="100%" y1="50%" y2="50%"><stop offset="0%" stop-color="#787e85"/><stop offset="100%" stop-color="#b3b7bb"/></linearGradient><linearGradient id="G" x1="0%" x2="100%" y1="50%" y2="50%"><stop offset="0%" stop-color="#757a81"/><stop offset="100%" stop-color="#acb0b4"/></linearGradient><linearGradient id="H" x1="0%" x2="100%" y1="50%" y2="50%"><stop offset="0%" stop-color="#71767e"/><stop offset="100%" stop-color="#a5a9ac"/></linearGradient><linearGradient id="I" x1="0%" x2="100%" y1="50%" y2="50%"><stop offset="0%" stop-color="#6e727a"/><stop offset="100%" stop-color="#9ea2a5"/></linearGradient><linearGradient id="J" x1="0%" x2="100%" y1="50%" y2="50%"><stop offset="0%" stop-color="#6a6f76"/><stop offset="100%" stop-color="#979a9e"/></linearGradient><linearGradient id="K" x1="0%" x2="100%" y1="50%" y2="50%"><stop offset="0%" stop-color="#676b72"/><stop offset="100%" stop-color="#8f9396"/></linearGradient><linearGradient id="L" x1="0%" x2="100%" y1="50%" y2="50%"><stop offset="0%" stop-color="#63676e"/><stop offset="100%" stop-color="#888c8f"/></linearGradient><linearGradient id="M" x1="0%" x2="100%" y1="50%" y2="50%"><stop offset="0%" stop-color="#60646a"/><stop offset="100%" stop-color="#818487"/></linearGradient><linearGradient id="N" x1="0%" x2="100%" y1="50%" y2="50%"><stop offset="0%" stop-color="#5c6066"/><stop offset="100%" stop-color="#7a7d80"/></linearGradient><linearGradient id="O" x1="100%" x2="0%" y1="50%" y2="50%"><stop offset="0%" stop-color="#ebf0f5"/><stop offset="100%" stop-color="#8a9099"/></linearGradient><linearGradient id="P" x1="100%" x2="-.467%" y1="50%" y2="50%"><stop offset="0%" stop-color="#e6ebf0"/><stop offset="100%" stop-color="#8a9099"/></linearGradient><linearGradient id="Q" x1="100%" x2="-.457%" y1="50%" y2="50%"><stop offset="0%" stop-color="#e1e6eb"/><stop offset="100%" stop-color="#8a9099"/></linearGradient><linearGradient id="R" x1="100%" x2="0%" y1="50%" y2="50%"><stop offset="0%" stop-color="#dce1e6"/><stop offset="100%" stop-color="#8a9099"/></linearGradient><linearGradient id="S" x1="100%" x2="0%" y1="50%" y2="50%"><stop offset="0%" stop-color="#d7dce1"/><stop offset="100%" stop-color="#8a9099"/></linearGradient><linearGradient id="T" x1="100%" x2="0%" y1="50%" y2="50%"><stop offset="0%" stop-color="#d2d7dc"/><stop offset="100%" stop-color="#8a9099"/></linearGradient><linearGradient id="U" x1="100%" x2="0%" y1="50%" y2="50%"><stop offset="0%" stop-color="#cdd2d7"/><stop offset="100%" stop-color="#8a9099"/></linearGradient><linearGradient id="V" x1="100%" x2="0%" y1="50%" y2="50%"><stop offset="0%" stop-color="#c9cdd1"/><stop offset="100%" stop-color="#8a9099"/></linearGradient><linearGradient id="W" x1="100%" x2="0%" y1="50%" y2="50%"><stop offset="0%" stop-color="#c4c8cc"/><stop offset="100%" stop-color="#8a9099"/></linearGradient><linearGradient id="X" x1="100%" x2="0%" y1="50%" y2="50%"><stop offset="0%" stop-color="#bfc3c7"/><stop offset="100%" stop-color="#8a9099"/></linearGradient><linearGradient id="Y" x1="100%" x2="-.392%" y1="50%" y2="50%"><stop offset="0%" stop-color="#babec2"/><stop offset="100%" stop-color="#8a9099"/></linearGradient><linearGradient id="Z" x1="100%" x2="-.385%" y1="50%" y2="50%"><stop offset="0%" stop-color="#b5b9bd"/><stop offset="100%" stop-color="#8a9099"/></linearGradient><linearGradient id="aa" x1="100%" x2="0%" y1="50%" y2="50%"><stop offset="0%" stop-color="#b0b4b8"/><stop offset="100%" stop-color="#8a9099"/></linearGradient><linearGradient id="ab" x1="100%" x2="0%" y1="50%" y2="50%"><stop offset="0%" stop-color="#abafb3"/><stop offset="100%" stop-color="#8a9099"/></linearGradient><linearGradient id="ac" x1="50%" x2="50%" y1="99.87%" y2="0%"><stop offset="0%" stop-color="#f5faff"/><stop offset="100%" stop-color="#737880"/></linearGradient><linearGradient id="ad" x1="50.261%" x2="50.261%" y1="99.869%" y2=".001%"><stop offset="0%" stop-color="#5c6066"/><stop offset="100%" stop-color="#f5faff"/></linearGradient><linearGradient id="ae" x1="191.932%" x2="191.932%" y1="62.204%" y2="-38.226%"><stop offset="0%" stop-color="#676b70"/><stop offset="2%" stop-color="#484b4d"/><stop offset="19%" stop-color="#747980"/><stop offset="20%" stop-color="#d1d5db"/><stop offset="79%" stop-color="#c7cfdb"/><stop offset="80%" stop-color="#edf5ff"/><stop offset="81%" stop-color="#c3c7cc"/><stop offset="100%" stop-color="#929599"/></linearGradient><linearGradient id="af" x1="192.689%" x2="192.689%" y1="59.438%" y2="-40.992%"><stop offset="0%" stop-color="#676b70"/><stop offset="2%" stop-color="#484b4d"/><stop offset="19%" stop-color="#747980"/><stop offset="20%" stop-color="#d1d5db"/><stop offset="79%" stop-color="#c7cfdb"/><stop offset="80%" stop-color="#edf5ff"/><stop offset="81%" stop-color="#c3c7cc"/><stop offset="100%" stop-color="#929599"/></linearGradient><linearGradient id="ag" x1="-.049%" x2="100%" y1="50%" y2="50%"><stop offset="0%" stop-color="#61666b"/><stop offset="7%" stop-color="#696e73"/><stop offset="18%" stop-color="#7e8489"/><stop offset="32%" stop-color="#a1a7ae"/><stop offset="48%" stop-color="#d1d8e0"/><stop offset="53%" stop-color="#e2eaf2"/><stop offset="100%" stop-color="#767b82"/></linearGradient><linearGradient id="ah" x1="14.964%" x2="85.131%" y1="14.783%" y2="84.949%"><stop offset="0%" stop-color="#9ba1ab"/><stop offset="0%" stop-color="#abb1ba"/><stop offset="9%" stop-color="#abb1ba"/><stop offset="46%" stop-color="#f5faff"/><stop offset="100%" stop-color="#a9b1bb"/></linearGradient><linearGradient id="ai" x1="124474.615%" x2="124474.615%" y1="-27276.154%" y2="-27176.923%"><stop offset="0%" stop-color="#9ba1ab"/><stop offset="0%" stop-color="#abb1ba"/><stop offset="9%" stop-color="#abb1ba"/><stop offset="46%" stop-color="#f5faff"/><stop offset="100%" stop-color="#a9b1bb"/></linearGradient><linearGradient id="aj" x1="124496.923%" x2="124496.923%" y1="-26430%" y2="-26330.769%"><stop offset="0%" stop-color="#9ba1ab"/><stop offset="0%" stop-color="#abb1ba"/><stop offset="9%" stop-color="#abb1ba"/><stop offset="46%" stop-color="#f5faff"/><stop offset="100%" stop-color="#a9b1bb"/></linearGradient><linearGradient id="ak" x1="-1.147%" x2="94.387%" y1="55.843%" y2="45.913%"><stop offset="0%" stop-color="#a9b1bb"/><stop offset="9%" stop-color="#61666b"/><stop offset="18%" stop-color="#696e73"/><stop offset="32%" stop-color="#7e8489"/><stop offset="49%" stop-color="#a1a7ae"/><stop offset="68%" stop-color="#d1d8e0"/><stop offset="74%" stop-color="#e2eaf2"/><stop offset="93%" stop-color="#9ba1ab"/><stop offset="100%" stop-color="#767b82"/></linearGradient><linearGradient id="al" x1="0%" x2="100%" y1="49.982%" y2="49.982%"><stop offset="0%" stop-color="#767b82"/><stop offset="2%" stop-color="#9ba1ab"/><stop offset="98%" stop-color="#9ba1ab"/><stop offset="99%" stop-color="#d7dce0"/><stop offset="100%" stop-color="#767b82"/></linearGradient><linearGradient id="am" x1="50%" x2="50%" y1="100%" y2="0%"><stop offset="0%" stop-color="#fff"/><stop offset="100%" stop-color="#cfcfcf"/></linearGradient><linearGradient id="an" x1="1.928%" x2="90.193%" y1="42.135%" y2="53.304%"><stop offset="0%" stop-color="#a9b1bb"/><stop offset="9%" stop-color="#61666b"/><stop offset="18%" stop-color="#696e73"/><stop offset="32%" stop-color="#7e8489"/><stop offset="49%" stop-color="#a1a7ae"/><stop offset="69%" stop-color="#d1d8e0"/><stop offset="75%" stop-color="#e2eaf2"/><stop offset="93%" stop-color="#9ba1ab"/><stop offset="100%" stop-color="#767b82"/></linearGradient><linearGradient id="ao" x1="50.017%" x2="50.017%" y1="100%" y2="0%"><stop offset="0%" stop-color="#9ba1ab" stop-opacity="0"/><stop offset="100%" stop-color="#2e3033"/></linearGradient><linearGradient id="ap" x1="0%" x2="100%" y1="50%" y2="50%"><stop offset="0%" stop-color="#7a8088"/><stop offset="9%" stop-color="#2d2f33"/><stop offset="19%" stop-color="#35373b"/><stop offset="33%" stop-color="#4a4d51"/><stop offset="51%" stop-color="#6d7176"/><stop offset="71%" stop-color="#9da3a8"/><stop offset="78%" stop-color="#b0b7bc"/><stop offset="93%" stop-color="#6d7177"/><stop offset="100%" stop-color="#5c6067"/></linearGradient><linearGradient id="aq" x1="0%" x2="100%" y1="49.693%" y2="49.693%"><stop offset="0%" stop-color="#a9b1bb"/><stop offset="9%" stop-color="#61666b"/><stop offset="18%" stop-color="#696e73"/><stop offset="31%" stop-color="#7e8489"/><stop offset="47%" stop-color="#a1a7ae"/><stop offset="65%" stop-color="#d0d9e0"/><stop offset="75%" stop-color="#eef7ff"/><stop offset="93%" stop-color="#9ba1ab"/><stop offset="100%" stop-color="#767b82"/></linearGradient><linearGradient id="ar" x1="0%" x2="100%" y1="49.931%" y2="49.931%"><stop offset="0%" stop-color="#a9b1bb"/><stop offset="9%" stop-color="#61666b"/><stop offset="18%" stop-color="#696e73"/><stop offset="32%" stop-color="#7e8489"/><stop offset="49%" stop-color="#a1a7ae"/><stop offset="69%" stop-color="#d1d8e0"/><stop offset="75%" stop-color="#e2eaf2"/><stop offset="93%" stop-color="#9ba1ab"/><stop offset="100%" stop-color="#767b82"/></linearGradient><linearGradient id="as" x1="0%" x2="100%" y1="50%" y2="50%"><stop offset="0%" stop-color="#7a8088"/><stop offset="9%" stop-color="#2d2f33"/><stop offset="19%" stop-color="#35373b"/><stop offset="33%" stop-color="#4a4d51"/><stop offset="51%" stop-color="#6d7176"/><stop offset="71%" stop-color="#9da3a8"/><stop offset="78%" stop-color="#b0b7bc"/><stop offset="93%" stop-color="#6d7177"/><stop offset="100%" stop-color="#5c6067"/></linearGradient><linearGradient id="at" x1="0%" x2="100%" y1="50%" y2="50%"><stop offset="0%" stop-color="#cfd9e6"/><stop offset="9%" stop-color="#a2aab3"/><stop offset="23%" stop-color="#aab2bb"/><stop offset="43%" stop-color="#c0c8d1"/><stop offset="69%" stop-color="#e4edf5"/><stop offset="75%" stop-color="#eef7ff"/><stop offset="93%" stop-color="#d0d8e6"/><stop offset="100%" stop-color="#b9c1cc"/></linearGradient></defs><g fill="none" fill-rule="nonzero" transform="translate(0 .079)"><path fill="url(#a)" d="M139 75.48h-29.57V61.29L139 52.94z"/><ellipse cx="124.075" cy="57.337" fill="url(#b)" rx="15.52" ry="4.88" transform="rotate(-16.42 124.075 57.337)"/><path fill="url(#c)" d="M0 84.05h107.42v12.28H0z"/><path fill="url(#d)" d="M96.62 128.61H10.8L0 116.33h107.42z"/><path fill="url(#e)" d="M0 96.33h107.42v20H0z"/><path fill="url(#f)" d="M107.42 96.33H70.91C63.89 90.19 63 84.05 63 84.05h44.43z"/><path fill="url(#g)" d="M107.42 84.05v5.77H65.35A17.2 17.2 0 0 1 63 84.05z" opacity=".6"/><path fill="url(#h)" d="M74.94 7.21h20.49v1.32H74.94z"/><path fill="url(#i)" d="M61 65.53h48.36v16H61z"/><path fill="url(#j)" d="M61 65.43h48.36v8.11H61z" opacity=".6"/><path fill="url(#k)" d="M107.37 84.72s-5.74.79-22.19.79S63 84.72 63 84.72l-2-3.18h48.36z"/><path fill="url(#l)" d="M107.37 84.72s-5.74.79-22.19.79S63 84.72 63 84.72l-2-3.18h48.36z" opacity=".1"/><path fill="url(#m)" d="M3.37 17.21h41.14v13.74H3.37z"/><path fill="url(#n)" d="M50.54 50.83h69.28v10.58H50.54z"/><path fill="url(#o)" d="M50.54 48.67h69.28v2.16H50.54z"/><path fill="url(#p)" d="M78.85 11.63h12.67v7.13H78.85z"/><path fill="url(#q)" d="M82.36 3.41H88v8.22h-5.64z"/><path fill="url(#r)" d="M83.3 0h3.76v3.41H83.3z"/><path fill="url(#s)" d="M111.66 48.67H58.7l17.07-29.91H94.6z"/><path fill="url(#t)" d="M111.65 48.67H58.71l3.58-6.27h45.79z" opacity=".1"/><path fill="url(#u)" d="M117 65s-8.23.9-31.79.9S53.4 65 53.4 65l-2.86-3.59h69.28z"/><path fill="url(#v)" d="M117 65s-8.23.9-31.79.9S53.4 65 53.4 65l-2.86-3.59h69.28z" opacity=".1"/><path fill="url(#w)" d="M3.37 70.78h41.14v10.43H3.37z"/><path fill="url(#x)" d="M0 81.11h47.87v2.94H0z"/><path fill="#222a34" d="M3.37 29.75h41.14v41.12H3.37z"/><path fill="url(#y)" d="M3.37 17.21h41.14v6.32H3.37z" opacity=".1"/><path fill="url(#z)" d="M44.5 17.3H3.37c0-5.11 4.14-10.22 4.14-10.22h32.84s4.15 5.11 4.15 10.22"/><path fill="url(#A)" d="m3.41 70.87-2.1-3.64V33.39l2.1-3.64z"/><path fill="url(#B)" d="m4.99 70.87-2.14-3.64V33.39l2.14-3.64z"/><path fill="url(#C)" d="m6.57 70.87-2.19-3.64V33.39l2.19-3.64z"/><path fill="url(#D)" d="m8.15 70.87-2.24-3.64V33.39l2.24-3.64z"/><path fill="url(#E)" d="m9.73 70.87-2.28-3.64V33.39l2.28-3.64z"/><path fill="url(#F)" d="m11.31 70.87-2.33-3.64V33.39l2.33-3.64z"/><path fill="url(#G)" d="m12.89 70.87-2.38-3.64V33.39l2.38-3.64z"/><path fill="url(#H)" d="m14.46 70.87-2.41-3.64V33.39l2.41-3.64z"/><path fill="url(#I)" d="m16.04 70.87-2.46-3.64V33.39l2.46-3.64z"/><path fill="url(#J)" d="m17.62 70.87-2.51-3.64V33.39l2.51-3.64z"/><path fill="url(#K)" d="m19.2 70.87-2.55-3.64V33.39l2.55-3.64z"/><path fill="url(#L)" d="m20.78 70.87-2.6-3.64V33.39l2.6-3.64z"/><path fill="url(#M)" d="m22.36 70.87-2.65-3.64V33.39l2.65-3.64z"/><path fill="url(#N)" d="m23.94 70.87-2.69-3.64V33.39l2.69-3.64z"/><path fill="url(#O)" d="m44.48 70.87 2.1-3.64V33.39l-2.1-3.64z"/><path fill="url(#P)" d="m42.91 70.87 2.14-3.64V33.39l-2.14-3.64z"/><path fill="url(#Q)" d="m41.33 70.87 2.19-3.64V33.39l-2.19-3.64z"/><path fill="url(#R)" d="m39.75 70.87 2.23-3.64V33.39l-2.23-3.64z"/><path fill="url(#S)" d="m38.17 70.87 2.28-3.64V33.39l-2.28-3.64z"/><path fill="url(#T)" d="m36.59 70.87 2.33-3.64V33.39l-2.33-3.64z"/><path fill="url(#U)" d="m35.01 70.87 2.37-3.64V33.39l-2.37-3.64z"/><path fill="url(#V)" d="m33.43 70.87 2.42-3.64V33.39l-2.42-3.64z"/><path fill="url(#W)" d="m31.85 70.87 2.47-3.64V33.39l-2.47-3.64z"/><path fill="url(#X)" d="m30.27 70.87 2.51-3.64V33.39l-2.51-3.64z"/><path fill="url(#Y)" d="m28.7 70.87 2.55-3.64V33.39l-2.55-3.64z"/><path fill="url(#Z)" d="m27.12 70.87 2.6-3.64V33.39l-2.6-3.64z"/><path fill="url(#aa)" d="m25.54 70.87 2.64-3.64V33.39l-2.64-3.64z"/><path fill="url(#ab)" d="m23.96 70.87 2.69-3.64V33.39l-2.69-3.64z"/><circle cx="85.18" cy="14.75" r="3.84" fill="url(#ac)"/><path fill="url(#ad)" d="M85.18 11.37a3.38 3.38 0 1 1 .02 6.76 3.38 3.38 0 0 1-.02-6.76m0-.46A3.84 3.84 0 1 0 89 14.75a3.84 3.84 0 0 0-3.84-3.84z"/><circle cx="85.18" cy="14.75" r="3.21" fill="#fff"/><path fill="#a63c27" d="m86.86 13.07-3.29 2.86.43.43z"/><circle cx="85.14" cy="14.74" r="1" fill="#a8afb5"/><path fill="url(#ae)" d="M9.355 78.645h1.32v3.63h-1.32z" transform="rotate(90 10.015 80.46)"/><path fill="url(#af)" d="M35.625 78.645h1.32v3.63h-1.32z" transform="rotate(90 36.285 80.46)"/><circle cx="12.48" cy="106.33" r="10.11" fill="url(#ag)"/><circle cx="7.57" cy="100" r="1" fill="url(#ah)" stroke="#505458" stroke-width=".11"/><path fill="#505458" d="m7.26 100.24.25-.25-.25-.25v-.06l.25.25.25-.25h.05l-.25.25.27.28-.28-.21-.25.25z"/><circle cx="7.57" cy="113.13" r="1" fill="url(#ai)" stroke="#505458" stroke-width=".11"/><path fill="#505458" d="m7.26 113.37.25-.25-.25-.25v-.05l.25.25.25-.25h.05l-.25.25.27.28-.28-.27-.25.25z"/><circle cx="20.7" cy="107.29" r="1" fill="url(#aj)" stroke="#505458" stroke-width=".11"/><path fill="#505458" d="m20.39 107.53.25-.25-.25-.25h.06l.25.25.3-.28-.25.25.28.27h-.06l-.27-.27-.25.25z"/><path fill="url(#ak)" d="M23.93 150H7.36A16.1 16.1 0 0 1 9 143.57h13.26a16.2 16.2 0 0 1 1.67 6.43"/><path fill="url(#al)" d="M10.5 116.45h10.3v27.13H10.5z"/><path fill="#5c6066" d="M11.81 119.77h7.68v18.83h-7.68z"/><path fill="url(#am)" d="M19.39 119.87v18.63h-7.48v-18.63zm.1-.1h-7.68v18.83h7.68z"/><path fill="url(#ak)" d="M99.8 150H83.23a16.2 16.2 0 0 1 1.67-6.43h13.23A16.2 16.2 0 0 1 99.8 150"/><path fill="url(#al)" d="M86.37 116.45h10.3v27.13h-10.3z"/><path fill="#5c6066" d="M87.68 119.77h7.68v18.83h-7.68z"/><path fill="url(#am)" d="M95.26 119.87v18.63h-7.48v-18.63zm.1-.1h-7.68v18.83h7.68z"/><path fill="url(#an)" d="M130.66 85.76h-12.89l-8.34-10.28H139z"/><path fill="url(#ao)" d="M130.66 85.76h-12.89l-8.34-10.28H139z" opacity=".3"/><path fill="url(#ap)" d="M117.77 85.76h13.25v43.42h-13.25z"/><path fill="url(#aq)" d="M117.77 89.82h13.25v1.63h-13.25z"/><path fill="url(#aq)" d="M117.77 93.57h13.25v1.63h-13.25z"/><path fill="url(#ar)" d="M128.73 54.43c-2.64 2.78-8.91 2.78-8.91 2.78v-7.27h8.91z"/><path fill="url(#as)" d="M122.04 48.38h4.82v1.56h-4.82z"/><path fill="url(#at)" d="M122.67 47.6h3.57v1h-3.57z"/></g></svg>