<svg xmlns="http://www.w3.org/2000/svg" viewBox="0 0 150 70"><title>Shell and tube heat transfer(管壳式换热器)</title><defs><linearGradient id="a" x1="49.996%" x2="49.996%" y1="100%" y2="0%"><stop offset="0%" stop-color="#a9b1bb"/><stop offset="9%" stop-color="#61666b"/><stop offset="18%" stop-color="#696e73"/><stop offset="32%" stop-color="#7e8489"/><stop offset="49%" stop-color="#a1a7ae"/><stop offset="69%" stop-color="#d1d8e0"/><stop offset="75%" stop-color="#e2eaf2"/><stop offset="93%" stop-color="#9ba1ab"/><stop offset="100%" stop-color="#767b82"/></linearGradient><linearGradient id="b" x1="0%" x2="99.96%" y1="50.012%" y2="50.012%"><stop offset="0%" stop-color="#2e3033"/><stop offset="100%" stop-color="#9ba1ab" stop-opacity="0"/></linearGradient><linearGradient id="c" x1="0%" x2="99.96%" y1="50.012%" y2="50.012%"><stop offset="0%" stop-color="#9ba1ab" stop-opacity="0"/><stop offset="100%" stop-color="#2e3033"/></linearGradient><linearGradient id="d" x1="49.947%" x2="49.947%" y1="100%" y2="0%"><stop offset="0%" stop-color="#a9b1bb"/><stop offset="9%" stop-color="#61666b"/><stop offset="18%" stop-color="#696e73"/><stop offset="32%" stop-color="#7e8489"/><stop offset="49%" stop-color="#a1a7ae"/><stop offset="69%" stop-color="#d1d8e0"/><stop offset="75%" stop-color="#e2eaf2"/><stop offset="93%" stop-color="#9ba1ab"/><stop offset="100%" stop-color="#767b82"/></linearGradient><linearGradient id="e" x1="50%" x2="50%" y1="99.952%" y2="0%"><stop offset="0%" stop-color="#a9b1bb"/><stop offset="9%" stop-color="#61666b"/><stop offset="18%" stop-color="#696e73"/><stop offset="32%" stop-color="#7e8489"/><stop offset="49%" stop-color="#a1a7ae"/><stop offset="69%" stop-color="#d1d8e0"/><stop offset="75%" stop-color="#e2eaf2"/><stop offset="93%" stop-color="#9ba1ab"/><stop offset="100%" stop-color="#767b82"/></linearGradient><linearGradient id="f" x1="0%" x2="100%" y1="50.025%" y2="50.025%"><stop offset="0%" stop-color="#a9b1bb"/><stop offset="9%" stop-color="#61666b"/><stop offset="18%" stop-color="#696e73"/><stop offset="32%" stop-color="#7e8489"/><stop offset="49%" stop-color="#a1a7ae"/><stop offset="69%" stop-color="#d1d8e0"/><stop offset="75%" stop-color="#e2eaf2"/><stop offset="93%" stop-color="#9ba1ab"/><stop offset="100%" stop-color="#767b82"/></linearGradient><linearGradient id="g" x1="0%" x2="100%" y1="49.884%" y2="49.884%"><stop offset="0%" stop-color="#a9b1bb"/><stop offset="9%" stop-color="#61666b"/><stop offset="18%" stop-color="#696e73"/><stop offset="32%" stop-color="#7e8489"/><stop offset="49%" stop-color="#a1a7ae"/><stop offset="69%" stop-color="#d1d8e0"/><stop offset="75%" stop-color="#e2eaf2"/><stop offset="93%" stop-color="#9ba1ab"/><stop offset="100%" stop-color="#767b82"/></linearGradient><linearGradient id="h" x1="50%" x2="50%" y1="100%" y2="0%"><stop offset="0%" stop-color="#a9b1bb"/><stop offset="9%" stop-color="#61666b"/><stop offset="18%" stop-color="#696e73"/><stop offset="32%" stop-color="#7e8489"/><stop offset="49%" stop-color="#a1a7ae"/><stop offset="69%" stop-color="#d1d8e0"/><stop offset="75%" stop-color="#e2eaf2"/><stop offset="93%" stop-color="#9ba1ab"/><stop offset="100%" stop-color="#767b82"/></linearGradient><linearGradient id="i" x1="-.41%" x2="99.59%" y1="50.025%" y2="50.025%"><stop offset="0%" stop-color="#a9b1bb"/><stop offset="9%" stop-color="#61666b"/><stop offset="18%" stop-color="#696e73"/><stop offset="32%" stop-color="#7e8489"/><stop offset="49%" stop-color="#a1a7ae"/><stop offset="69%" stop-color="#d1d8e0"/><stop offset="75%" stop-color="#e2eaf2"/><stop offset="93%" stop-color="#9ba1ab"/><stop offset="100%" stop-color="#767b82"/></linearGradient><linearGradient id="j" x1="50.053%" x2="50.053%" y1="100%" y2="0%"><stop offset="0%" stop-color="#a9b1bb"/><stop offset="9%" stop-color="#61666b"/><stop offset="18%" stop-color="#696e73"/><stop offset="32%" stop-color="#7e8489"/><stop offset="49%" stop-color="#a1a7ae"/><stop offset="69%" stop-color="#d1d8e0"/><stop offset="75%" stop-color="#e2eaf2"/><stop offset="93%" stop-color="#9ba1ab"/><stop offset="100%" stop-color="#767b82"/></linearGradient><linearGradient id="k" x1="49.789%" x2="49.789%" y1="100%" y2="0%"><stop offset="0%" stop-color="#676b70"/><stop offset="2%" stop-color="#484b4d"/><stop offset="19%" stop-color="#747980"/><stop offset="20%" stop-color="#d1d5db"/><stop offset="79%" stop-color="#c7cfdb"/><stop offset="80%" stop-color="#edf5ff"/><stop offset="81%" stop-color="#c3c7cc"/><stop offset="100%" stop-color="#929599"/></linearGradient><linearGradient id="l" x1="49.789%" x2="49.789%" y1="99.666%" y2="0%"><stop offset="0%" stop-color="#676b70"/><stop offset="2%" stop-color="#484b4d"/><stop offset="19%" stop-color="#747980"/><stop offset="20%" stop-color="#d1d5db"/><stop offset="79%" stop-color="#c7cfdb"/><stop offset="80%" stop-color="#edf5ff"/><stop offset="81%" stop-color="#c3c7cc"/><stop offset="100%" stop-color="#929599"/></linearGradient><linearGradient id="m" x1="50.211%" x2="50.211%" y1="100%" y2="0%"><stop offset="0%" stop-color="#676b70"/><stop offset="2%" stop-color="#484b4d"/><stop offset="19%" stop-color="#747980"/><stop offset="20%" stop-color="#d1d5db"/><stop offset="79%" stop-color="#c7cfdb"/><stop offset="80%" stop-color="#edf5ff"/><stop offset="81%" stop-color="#c3c7cc"/><stop offset="100%" stop-color="#929599"/></linearGradient><linearGradient id="n" x1="50.211%" x2="50.211%" y1="99.666%" y2="0%"><stop offset="0%" stop-color="#676b70"/><stop offset="2%" stop-color="#484b4d"/><stop offset="19%" stop-color="#747980"/><stop offset="20%" stop-color="#d1d5db"/><stop offset="79%" stop-color="#c7cfdb"/><stop offset="80%" stop-color="#edf5ff"/><stop offset="81%" stop-color="#c3c7cc"/><stop offset="100%" stop-color="#929599"/></linearGradient></defs><g fill="none" fill-rule="evenodd"><path fill="url(#a)" fill-rule="nonzero" d="M9.49 21.83h131.03v43.05H9.49z" transform="translate(0 .079)"/><path fill="url(#b)" fill-rule="nonzero" d="M9.49 21.83h24.98v43.05H9.49z" opacity=".3" transform="translate(0 .079)"/><path fill="url(#c)" fill-rule="nonzero" d="M115.54 21.83h24.98v43.05h-24.98z" opacity=".3" transform="translate(0 .079)"/><path fill="url(#d)" fill-rule="nonzero" d="M0 17.39h9.49v51.94H0z" transform="translate(0 .079)"/><path fill="url(#e)" fill-rule="nonzero" d="M34.785-8.635h3.74v21.01h-3.74z" transform="rotate(90 36.615 1.91)"/><path fill="url(#f)" fill-rule="nonzero" d="M42.77 21.83s-1.69 1.82-6.11 1.82-6.11-1.82-6.11-1.82V3.74h12.22z" transform="translate(0 .079)"/><path fill="url(#g)" fill-rule="nonzero" d="M73.73 22a1.5 1.5 0 0 1-2.81 0v-9.67h2.81z" transform="translate(0 .079)"/><path fill="url(#h)" fill-rule="nonzero" d="M114.185-8.635h3.74v21.01h-3.74z" transform="rotate(90 116.016 1.91)"/><path fill="url(#i)" fill-rule="nonzero" d="M122.16 21.83s-1.68 1.82-6.1 1.82-6.06-1.82-6.06-1.82V3.74h12.21z" transform="translate(0 .079)"/><path fill="url(#j)" fill-rule="nonzero" d="M140.51 17.39H150v51.94h-9.49z" transform="translate(0 .079)"/><path stroke="#252628" stroke-width=".25" d="M145.26 69.409v-51.94" opacity=".6"/><path fill="url(#k)" fill-rule="nonzero" d="M9.49 22.96h2.37v2.99H9.49z" transform="translate(0 .079)"/><path fill="url(#l)" fill-rule="nonzero" d="M9.49 29.31h2.37v2.99H9.49z" transform="translate(0 .079)"/><path fill="url(#l)" fill-rule="nonzero" d="M9.49 35.65h2.37v2.99H9.49z" transform="translate(0 .079)"/><path fill="url(#k)" fill-rule="nonzero" d="M9.49 41.99h2.37v2.99H9.49z" transform="translate(0 .079)"/><path fill="url(#k)" fill-rule="nonzero" d="M9.49 48.33h2.37v2.99H9.49z" transform="translate(0 .079)"/><path fill="url(#l)" fill-rule="nonzero" d="M9.49 54.68h2.37v2.99H9.49z" transform="translate(0 .079)"/><path fill="url(#k)" fill-rule="nonzero" d="M9.49 61.02h2.37v2.99H9.49z" transform="translate(0 .079)"/><path fill="url(#m)" fill-rule="nonzero" d="M138.14 22.96h2.37v2.99h-2.37z" transform="translate(0 .079)"/><path fill="url(#n)" fill-rule="nonzero" d="M138.14 29.31h2.37v2.99h-2.37z" transform="translate(0 .079)"/><path fill="url(#n)" fill-rule="nonzero" d="M138.14 35.65h2.37v2.99h-2.37z" transform="translate(0 .079)"/><path fill="url(#m)" fill-rule="nonzero" d="M138.14 41.99h2.37v2.99h-2.37z" transform="translate(0 .079)"/><path fill="url(#m)" fill-rule="nonzero" d="M138.14 48.33h2.37v2.99h-2.37z" transform="translate(0 .079)"/><path fill="url(#n)" fill-rule="nonzero" d="M138.14 54.68h2.37v2.99h-2.37z" transform="translate(0 .079)"/><path fill="url(#m)" fill-rule="nonzero" d="M138.14 61.02h2.37v2.99h-2.37z" transform="translate(0 .079)"/></g></svg>