<svg xmlns="http://www.w3.org/2000/svg" viewBox="0 0 77 151"><title>Stainless steel blender 1_closed(不锈钢搅拌机1_关)</title><defs><linearGradient id="a" x1="0%" x2="100%" y1="49.994%" y2="49.994%"><stop offset="0%" stop-color="#767b82"/><stop offset="8%" stop-color="#9ba1ab"/><stop offset="91%" stop-color="#9ba1ab"/><stop offset="96%" stop-color="#d7dce0"/><stop offset="98%" stop-color="#767b82"/></linearGradient><linearGradient id="b" x1="0%" x2="100%" y1="49.993%" y2="49.993%"><stop offset="0%" stop-color="#767b82"/><stop offset="8%" stop-color="#9ba1ab"/><stop offset="91%" stop-color="#9ba1ab"/><stop offset="96%" stop-color="#d7dce0"/><stop offset="98%" stop-color="#767b82"/></linearGradient><linearGradient id="c" x1="49.939%" x2="49.939%" y1="-.077%" y2="99.923%"><stop offset="0%" stop-color="#a9b1bb"/><stop offset="9%" stop-color="#61666b"/><stop offset="18%" stop-color="#696e73"/><stop offset="32%" stop-color="#7e8489"/><stop offset="49%" stop-color="#a1a7ae"/><stop offset="69%" stop-color="#d1d8e0"/><stop offset="75%" stop-color="#e2eaf2"/><stop offset="93%" stop-color="#9ba1ab"/><stop offset="100%" stop-color="#767b82"/></linearGradient><linearGradient id="d" x1="50%" x2="50%" y1="0%" y2="100.014%"><stop offset="0%" stop-color="#767b82"/><stop offset="2%" stop-color="#9ba1ab"/><stop offset="98%" stop-color="#9ba1ab"/><stop offset="99%" stop-color="#d7dce0"/><stop offset="100%" stop-color="#767b82"/></linearGradient><linearGradient id="e" x1="50%" x2="50%" y1="0%" y2="100%"><stop offset="0%" stop-color="#a9b1bb"/><stop offset="9%" stop-color="#61666b"/><stop offset="18%" stop-color="#696e73"/><stop offset="32%" stop-color="#7e8489"/><stop offset="49%" stop-color="#a1a7ae"/><stop offset="69%" stop-color="#d1d8e0"/><stop offset="75%" stop-color="#e2eaf2"/><stop offset="93%" stop-color="#9ba1ab"/><stop offset="100%" stop-color="#767b82"/></linearGradient><linearGradient id="f" x1=".042%" x2="100%" y1="49.973%" y2="49.973%"><stop offset="0%" stop-color="#a9b1bb"/><stop offset="9%" stop-color="#61666b"/><stop offset="18%" stop-color="#696e73"/><stop offset="32%" stop-color="#7e8489"/><stop offset="49%" stop-color="#a1a7ae"/><stop offset="69%" stop-color="#d1d8e0"/><stop offset="75%" stop-color="#e2eaf2"/><stop offset="93%" stop-color="#9ba1ab"/><stop offset="100%" stop-color="#767b82"/></linearGradient><linearGradient id="g" x1="0%" x2="100.034%" y1="50%" y2="50%"><stop offset="0%" stop-color="#a9b1bb"/><stop offset="9%" stop-color="#61666b"/><stop offset="18%" stop-color="#696e73"/><stop offset="32%" stop-color="#7e8489"/><stop offset="49%" stop-color="#a1a7ae"/><stop offset="69%" stop-color="#d1d8e0"/><stop offset="75%" stop-color="#e2eaf2"/><stop offset="93%" stop-color="#9ba1ab"/><stop offset="100%" stop-color="#767b82"/></linearGradient><linearGradient id="h" x1=".04%" x2="100%" y1="50.038%" y2="50.038%"><stop offset="0%" stop-color="#45484d"/><stop offset="100%" stop-color="#abafb3"/></linearGradient><linearGradient id="i" x1="37.497%" x2="62.637%" y1="57.32%" y2="46.383%"><stop offset="0%" stop-color="#a9b1bb"/><stop offset="9%" stop-color="#61666b"/><stop offset="18%" stop-color="#696e73"/><stop offset="32%" stop-color="#7e8489"/><stop offset="49%" stop-color="#a1a7ae"/><stop offset="69%" stop-color="#d1d8e0"/><stop offset="75%" stop-color="#e2eaf2"/><stop offset="93%" stop-color="#9ba1ab"/><stop offset="100%" stop-color="#767b82"/></linearGradient><linearGradient id="j" x1="49.819%" x2="49.819%" y1="0%" y2="100%"><stop offset="0%" stop-color="#a9b1bb"/><stop offset="9%" stop-color="#61666b"/><stop offset="18%" stop-color="#696e73"/><stop offset="32%" stop-color="#7e8489"/><stop offset="49%" stop-color="#a1a7ae"/><stop offset="69%" stop-color="#d1d8e0"/><stop offset="75%" stop-color="#e2eaf2"/><stop offset="93%" stop-color="#9ba1ab"/><stop offset="100%" stop-color="#767b82"/></linearGradient></defs><g fill="none" fill-rule="nonzero"><path fill="#5e6266" d="M38.14 74.999 0 68.269h76.28z"/><path fill="#cad0d6" d="M38.14 41.709 0 15.149h76.28z"/><path fill="#8d9399" d="M38.14 41.709 0 68.269h76.28z"/><path fill="#a6acb3" d="M38.14 41.709 0 68.269v-53.12zm0 0 38.14 26.56v-53.12z"/><path fill="url(#a)" d="M0 68.19h4.61V150H0z" transform="translate(0 .079)"/><path fill="url(#b)" d="M35.84 65h4.61v67.07h-4.61z" transform="rotate(-90 38.184 98.574)"/><path fill="url(#a)" d="M71.67 68.19h4.61V150h-4.61z" transform="translate(0 .079)"/><path fill="url(#c)" d="M34.07 71.18h8.15v12.95h-8.15z" transform="rotate(-90 38.184 77.694)"/><path fill="url(#d)" d="M37.115-21.785h2.04v71.67h-2.04z" transform="rotate(-90 38.175 14.09)"/><path fill="url(#e)" d="M30.895 86.445h14.5v5.09h-14.5z" transform="rotate(-90 38.185 89.03)"/><path fill="url(#f)" d="M26.31 100.85h23.66v18.67H26.31z" transform="translate(0 .079)"/><path fill="#252628" d="M30.48 100.929h2.41v18.67h-2.41zm-3.23 0h2.41v18.67h-2.41zm6.46 0h2.41v18.67h-2.41zm3.23 0h2.41v18.67h-2.41zm3.23 0h2.41v18.67h-2.41zm3.23 0h2.41v18.67H43.4zm3.23 0h2.41v18.67h-2.41z"/><path fill="url(#g)" d="M23.59 119.52h29.1v5.88h-29.1z" transform="translate(0 .079)"/><path fill="url(#h)" d="m35.93 0 2.21 1.65v8.62h-19.8l-1.62 2.76h-3.33l3.18-6.89z" transform="translate(0 .079)"/><path fill="url(#i)" d="M60.44 10.26H15.85c12.645-11.485 31.945-11.485 44.59 0" transform="translate(0 .079)"/><path fill="url(#j)" d="M36.75-10.65h2.77v44.59h-2.77z" transform="rotate(-90 38.175 11.684)"/></g></svg>