<svg xmlns="http://www.w3.org/2000/svg" viewBox="0 0 125 151"><title>Stainless steel blender 3(不锈钢搅拌机3)</title><defs><linearGradient id="a" x1="0%" x2="100%" y1="50.522%" y2="50.522%"><stop offset="0%" stop-color="#a9b1bb"/><stop offset="9%" stop-color="#61666b"/><stop offset="18%" stop-color="#696e73"/><stop offset="32%" stop-color="#7e8489"/><stop offset="49%" stop-color="#a1a7ae"/><stop offset="69%" stop-color="#d1d8e0"/><stop offset="75%" stop-color="#e2eaf2"/><stop offset="93%" stop-color="#9ba1ab"/><stop offset="100%" stop-color="#767b82"/></linearGradient><linearGradient id="b" x1="50%" x2="50%" y1="100.1%" y2="0%"><stop offset="0%" stop-color="#767b82"/><stop offset="1%" stop-color="#5c6066"/><stop offset="88%" stop-color="#7a7d80"/><stop offset="94%" stop-color="#767b82"/><stop offset="100%" stop-color="#b9c0cc"/></linearGradient><linearGradient id="c" x1="0%" x2="100.039%" y1="50%" y2="50%"><stop offset="0%" stop-color="#a9b1bb"/><stop offset="9%" stop-color="#61666b"/><stop offset="18%" stop-color="#696e73"/><stop offset="32%" stop-color="#7e8489"/><stop offset="49%" stop-color="#a1a7ae"/><stop offset="69%" stop-color="#d1d8e0"/><stop offset="75%" stop-color="#e2eaf2"/><stop offset="93%" stop-color="#9ba1ab"/><stop offset="100%" stop-color="#767b82"/></linearGradient><linearGradient id="d" x1="0%" x2="100.013%" y1="50.012%" y2="50.012%"><stop offset="0%" stop-color="#a9b1bb"/><stop offset="9%" stop-color="#61666b"/><stop offset="18%" stop-color="#696e73"/><stop offset="32%" stop-color="#7e8489"/><stop offset="49%" stop-color="#a1a7ae"/><stop offset="69%" stop-color="#d1d8e0"/><stop offset="75%" stop-color="#e2eaf2"/><stop offset="93%" stop-color="#9ba1ab"/><stop offset="100%" stop-color="#767b82"/></linearGradient><linearGradient id="e" x1="0%" x2="100%" y1="51.625%" y2="51.625%"><stop offset="0%" stop-color="#cfd9e6"/><stop offset="9%" stop-color="#a2aab3"/><stop offset="23%" stop-color="#aab2bb"/><stop offset="43%" stop-color="#c0c8d1"/><stop offset="69%" stop-color="#e4edf5"/><stop offset="75%" stop-color="#eef7ff"/><stop offset="93%" stop-color="#d0d8e6"/><stop offset="100%" stop-color="#b9c1cc"/></linearGradient><linearGradient id="f" x1="89.487%" x2="10.513%" y1="28.792%" y2="71.602%"><stop offset="0%" stop-color="#ebf0f5"/><stop offset="100%" stop-color="#8a9099"/></linearGradient><linearGradient id="g" x1="50.021%" x2="50.021%" y1="100.529%" y2=".806%"><stop offset="0%" stop-color="#676b70"/><stop offset="2%" stop-color="#484b4d"/><stop offset="19%" stop-color="#747980"/><stop offset="20%" stop-color="#d1d5db"/><stop offset="79%" stop-color="#c7cfdb"/><stop offset="80%" stop-color="#edf5ff"/><stop offset="81%" stop-color="#c3c7cc"/><stop offset="100%" stop-color="#929599"/></linearGradient><linearGradient id="h" x1="50%" x2="50%" y1="178.445%" y2="270.842%"><stop offset="0%" stop-color="#676b70"/><stop offset="2%" stop-color="#484b4d"/><stop offset="19%" stop-color="#747980"/><stop offset="20%" stop-color="#d1d5db"/><stop offset="79%" stop-color="#c7cfdb"/><stop offset="80%" stop-color="#edf5ff"/><stop offset="81%" stop-color="#c3c7cc"/><stop offset="100%" stop-color="#929599"/></linearGradient><linearGradient id="i" x1="15.746%" x2="82.856%" y1="42.624%" y2="52.968%"><stop offset="0%" stop-color="#a9b1bb"/><stop offset="9%" stop-color="#61666b"/><stop offset="18%" stop-color="#696e73"/><stop offset="32%" stop-color="#7e8489"/><stop offset="49%" stop-color="#a1a7ae"/><stop offset="69%" stop-color="#d1d8e0"/><stop offset="75%" stop-color="#e2eaf2"/><stop offset="93%" stop-color="#9ba1ab"/><stop offset="100%" stop-color="#767b82"/></linearGradient><linearGradient id="j" x1="50.007%" x2="50.007%" y1="100%" y2="0%"><stop offset="0%" stop-color="#2e3033"/><stop offset="100%" stop-color="#9ba1ab" stop-opacity="0"/></linearGradient><linearGradient id="k" x1="0%" x2="100%" y1="49.988%" y2="49.988%"><stop offset="0%" stop-color="#a9b1bb"/><stop offset="9%" stop-color="#61666b"/><stop offset="18%" stop-color="#696e73"/><stop offset="32%" stop-color="#7e8489"/><stop offset="49%" stop-color="#a1a7ae"/><stop offset="69%" stop-color="#d1d8e0"/><stop offset="75%" stop-color="#e2eaf2"/><stop offset="93%" stop-color="#9ba1ab"/><stop offset="100%" stop-color="#767b82"/></linearGradient><linearGradient id="l" x1="0%" x2="100%" y1="50%" y2="50%"><stop offset="0%" stop-color="#7a8088"/><stop offset="9%" stop-color="#2d2f33"/><stop offset="16%" stop-color="#35373b"/><stop offset="26%" stop-color="#4a4d51"/><stop offset="39%" stop-color="#6d7176"/><stop offset="53%" stop-color="#9da3a8"/><stop offset="59%" stop-color="#b0b7bc"/><stop offset="93%" stop-color="#6d7177"/><stop offset="100%" stop-color="#5c6067"/></linearGradient><linearGradient id="m" x1="50.004%" x2="50.004%" y1="99.815%" y2="0%"><stop offset="0%" stop-color="#767b82"/><stop offset="8%" stop-color="#9ba1ab"/><stop offset="91%" stop-color="#9ba1ab"/><stop offset="96%" stop-color="#d7dce0"/><stop offset="98%" stop-color="#767b82"/></linearGradient><linearGradient id="n" x1="0%" x2="100%" y1="50.011%" y2="50.011%"><stop offset="0%" stop-color="#767b82"/><stop offset="2%" stop-color="#9ba1ab"/><stop offset="100%" stop-color="#767b82"/></linearGradient><linearGradient id="o" x1="0%" x2="100%" y1="50%" y2="50%"><stop offset="0%" stop-color="#767b82"/><stop offset="8%" stop-color="#9ba1ab"/><stop offset="91%" stop-color="#9ba1ab"/><stop offset="96%" stop-color="#d7dce0"/><stop offset="98%" stop-color="#767b82"/></linearGradient><linearGradient id="p" x1="50.008%" x2="50.008%" y1="100%" y2="0%"><stop offset="0%" stop-color="#767b82"/><stop offset="8%" stop-color="#9ba1ab"/><stop offset="91%" stop-color="#9ba1ab"/><stop offset="96%" stop-color="#d7dce0"/><stop offset="98%" stop-color="#767b82"/></linearGradient><linearGradient id="q" x1="0%" x2="100%" y1="50.028%" y2="50.028%"><stop offset="0%" stop-color="#a9b1bb"/><stop offset="9%" stop-color="#61666b"/><stop offset="18%" stop-color="#696e73"/><stop offset="32%" stop-color="#7e8489"/><stop offset="49%" stop-color="#a1a7ae"/><stop offset="69%" stop-color="#d1d8e0"/><stop offset="75%" stop-color="#e2eaf2"/><stop offset="93%" stop-color="#9ba1ab"/><stop offset="100%" stop-color="#767b82"/></linearGradient></defs><g fill="none" fill-rule="nonzero"><path fill="url(#a)" d="M83.34 24.35h7.98v14.4h-7.98z" transform="translate(0 .079)"/><path fill="url(#b)" d="M2.48 128.71h52.96v10H2.48z" transform="translate(0 .079)"/><path fill="url(#c)" d="M24.23 79.55h25.63v45.18H24.23z" transform="translate(0 .079)"/><path fill="#252628" d="M28.74 93.939h2.61v30.87h-2.61zm-3.5 0h2.61v30.87h-2.61zm7 0h2.61v30.87h-2.61zm3.5 0h2.61v30.87h-2.61zm3.5 0h2.61v30.87h-2.61zm3.5 0h2.61v30.87h-2.61zm3.51 0h2.61v30.87h-2.61zm-22.02 30.87h25.63v3.98H24.23z"/><path fill="url(#d)" d="M49.76 42.47h75.13v42.85H49.76z" transform="translate(0 .079)"/><path fill="url(#e)" d="M52.47 38.75h69.72v3.73H52.47z" transform="translate(0 .079)"/><path fill="#252628" d="M74.55 20.989h25.56v6.15H74.55z"/><path fill="url(#f)" d="M70.16 2.25h34.34v18.66H70.16z" transform="translate(0 .079)"/><path fill="url(#g)" d="M64.56 2.25h-20l-4.01 3.36v11.93l4.01 3.37h20z" transform="translate(0 .079)"/><path fill="url(#h)" d="M70.16 2.25 64.56 0v23.15l5.6-2.24z" transform="translate(0 .079)"/><path fill="url(#i)" d="M104.5 101.87H70.16l-20.4-16.54h75.13z" transform="translate(0 .079)"/><path fill="url(#j)" d="M104.5 101.87H70.16l-20.4-16.54h75.13z" opacity=".6" transform="translate(0 .079)"/><path fill="url(#k)" d="M70.16 101.87h34.34v42.73H70.16z" transform="translate(0 .079)"/><path fill="url(#l)" d="M70.16 137.64h34.34v6.96H70.16z" transform="translate(0 .079)"/><path fill="#252628" d="M70.16 140.799h34.34v1H70.16z" opacity=".6"/><path fill="url(#m)" d="M.44 132.23h124.45v5.42H.44z" transform="translate(0 .079)"/><path fill="url(#n)" d="M55.28 102.81v5.7l-5.41 1.91-38.22 13.45A10.37 10.37 0 0 0 5 133.8V150H0v-16.2c0-6.9 4.06-13 10.1-15.08l39.77-14z" transform="translate(0 .079)"/><path fill="url(#o)" d="M49.87 85.32h5.41V150h-5.41z" transform="translate(0 .079)"/><path fill="url(#p)" d="M89.855 114.955h64.67v5.42h-64.67z" transform="rotate(90 122.15 117.705)"/><path fill="#252628" d="m68.42 3.309-3.11-.98v18.66l3.11-.98z" opacity=".6"/><path fill="url(#q)" d="M124.9 42.47h-4.39c0-6.55-13.31-13.57-33.13-13.57s-33.13 7-33.13 13.57h-4.38c0-9.95 16.48-17.75 37.51-17.75s37.52 7.8 37.52 17.75" transform="translate(0 .079)"/></g></svg>