<svg xmlns="http://www.w3.org/2000/svg" viewBox="0 0 150 155"><title>Stainless steel speed reducer(不锈钢减速器)</title><defs><linearGradient id="a" x1="50%" x2="50%" y1="100%" y2="0%"><stop offset="0%" stop-color="#a9b1bb"/><stop offset="9%" stop-color="#a2aab3"/><stop offset="80%" stop-color="#a2a8b3"/><stop offset="94%" stop-color="#e2eaf2"/><stop offset="100%" stop-color="#767b82"/></linearGradient><linearGradient id="b" x1="85.351%" x2="14.649%" y1="14.64%" y2="85.351%"><stop offset="0%" stop-color="#d7dce0"/><stop offset="100%" stop-color="#8a9099"/></linearGradient><linearGradient id="c" x1="50%" x2="50%" y1="100%" y2=".104%"><stop offset="0%" stop-color="#17181a"/><stop offset="100%" stop-color="#4a4b4d"/></linearGradient><linearGradient id="d" x1="50%" x2="50%" y1="101.25%" y2="-1.25%"><stop offset="0%" stop-color="#5c6066"/><stop offset="100%" stop-color="#dce1e6"/></linearGradient><linearGradient id="e" x1="50%" x2="50%" y1="100%" y2="-.023%"><stop offset="0%" stop-color="#17181a"/><stop offset="100%" stop-color="#4a4b4d"/></linearGradient><linearGradient id="f" x1="50%" x2="50%" y1="105.627%" y2="-5.665%"><stop offset="0%" stop-color="#dce1e6"/><stop offset="100%" stop-color="#5c6066"/></linearGradient><linearGradient id="g" x1="50%" x2="50%" y1="100%" y2="-.016%"><stop offset="0%" stop-color="#676b70"/><stop offset="2%" stop-color="#484b4d"/><stop offset="19%" stop-color="#747980"/><stop offset="20%" stop-color="#d1d5db"/><stop offset="79%" stop-color="#c7cfdb"/><stop offset="80%" stop-color="#edf5ff"/><stop offset="81%" stop-color="#c3c7cc"/><stop offset="100%" stop-color="#929599"/></linearGradient><linearGradient id="h" x1="50%" x2="50%" y1="100%" y2="0%"><stop offset="0%" stop-color="#a9b1bb"/><stop offset="9%" stop-color="#61666b"/><stop offset="18%" stop-color="#696e73"/><stop offset="32%" stop-color="#7e8489"/><stop offset="49%" stop-color="#a1a7ae"/><stop offset="69%" stop-color="#d1d8e0"/><stop offset="75%" stop-color="#e2eaf2"/><stop offset="93%" stop-color="#9ba1ab"/><stop offset="100%" stop-color="#767b82"/></linearGradient></defs><g fill="none" fill-rule="nonzero" transform="translate(0 .079)"><path fill="url(#a)" d="M32.84 20.12H150V150H32.84z"/><circle cx="91.42" cy="97.44" r="56.9" fill="url(#b)"/><circle cx="56.33" cy="61.92" r="4.8" fill="url(#c)" stroke="url(#d)" stroke-width=".25"/><circle cx="56.33" cy="132.48" r="4.8" fill="url(#c)" stroke="url(#d)" stroke-width=".25"/><circle cx="126.89" cy="61.92" r="4.8" fill="url(#c)" stroke="url(#d)" stroke-width=".25"/><circle cx="126.89" cy="132.48" r="4.8" fill="url(#c)" stroke="url(#d)" stroke-width=".25"/><circle cx="91.42" cy="97.44" r="21.69" fill="url(#e)"/><circle cx="91.42" cy="97.44" r="13.24" fill="#252628" stroke="url(#f)" stroke-width="3"/><path fill="url(#g)" d="m8.14 78.7 24.7-4.45V20.12l-24.7-4.44z"/><path fill="url(#h)" d="M14.16 18.73V9.82L8.14 7.69V0H0v94.38h8.14V83.45l6.02-2.12v-8.91l-6.02-2.13V20.85z"/><path fill="#191a1b" d="M91.42 86.19a11.25 11.25 0 1 1-11.24 11.25c.011-6.205 5.035-11.233 11.24-11.25m0-.5c-6.49 0-11.75 5.26-11.75 11.75s5.26 11.75 11.75 11.75 11.75-5.26 11.75-11.75-5.26-11.75-11.75-11.75"/></g></svg>