<svg xmlns="http://www.w3.org/2000/svg" viewBox="0 0 93 151"><title>Turbo emulsifier(涡轮乳化剂)</title><defs><linearGradient id="a" x1="0%" x2="100%" y1="49.987%" y2="49.987%"><stop offset="0%" stop-color="#a9b1bb"/><stop offset="9%" stop-color="#61666b"/><stop offset="18%" stop-color="#696e73"/><stop offset="32%" stop-color="#7e8489"/><stop offset="49%" stop-color="#a1a7ae"/><stop offset="69%" stop-color="#d1d8e0"/><stop offset="75%" stop-color="#e2eaf2"/><stop offset="93%" stop-color="#9ba1ab"/><stop offset="100%" stop-color="#767b82"/></linearGradient><linearGradient id="b" x1="0%" x2="100%" y1="50.009%" y2="50.009%"><stop offset="0%" stop-color="#767b82"/><stop offset="1%" stop-color="#5c6066"/><stop offset="88%" stop-color="#7a7d80"/><stop offset="94%" stop-color="#767b82"/><stop offset="100%" stop-color="#b9c0cc"/></linearGradient><linearGradient id="c" x1="0%" x2="100%" y1="50.007%" y2="50.007%"><stop offset="0%" stop-color="#767b82"/><stop offset="8%" stop-color="#9ba1ab"/><stop offset="91%" stop-color="#9ba1ab"/><stop offset="96%" stop-color="#d7dce0"/><stop offset="98%" stop-color="#767b82"/></linearGradient><linearGradient id="d" x1="0%" x2="100%" y1="50%" y2="50%"><stop offset="0%" stop-color="#767b82"/><stop offset="1%" stop-color="#5c6066"/><stop offset="88%" stop-color="#7a7d80"/><stop offset="94%" stop-color="#767b82"/><stop offset="100%" stop-color="#b9c0cc"/></linearGradient><linearGradient id="e" x1=".024%" x2="100%" y1="50%" y2="50%"><stop offset="0%" stop-color="#a9b1bb"/><stop offset="9%" stop-color="#61666b"/><stop offset="18%" stop-color="#696e73"/><stop offset="32%" stop-color="#7e8489"/><stop offset="49%" stop-color="#a1a7ae"/><stop offset="69%" stop-color="#d1d8e0"/><stop offset="75%" stop-color="#e2eaf2"/><stop offset="93%" stop-color="#9ba1ab"/><stop offset="100%" stop-color="#767b82"/></linearGradient><linearGradient id="f" x1=".758%" x2="91.426%" y1="38.449%" y2="53.675%"><stop offset="0%" stop-color="#a9b1bb"/><stop offset="9%" stop-color="#61666b"/><stop offset="18%" stop-color="#696e73"/><stop offset="31%" stop-color="#7e8489"/><stop offset="48%" stop-color="#a1a7ae"/><stop offset="66%" stop-color="#d1d8e0"/><stop offset="73%" stop-color="#e2eaf2"/><stop offset="93%" stop-color="#9ba1ab"/><stop offset="100%" stop-color="#767b82"/></linearGradient><linearGradient id="g" x1="0%" x2="100%" y1="49.99%" y2="49.99%"><stop offset="0%" stop-color="#767b82"/><stop offset="8%" stop-color="#9ba1ab"/><stop offset="91%" stop-color="#9ba1ab"/><stop offset="96%" stop-color="#d7dce0"/><stop offset="98%" stop-color="#767b82"/></linearGradient><linearGradient id="h" x1="0%" x2="100%" y1="50%" y2="50%"><stop offset="0%" stop-color="#767b82"/><stop offset="8%" stop-color="#9ba1ab"/><stop offset="91%" stop-color="#9ba1ab"/><stop offset="96%" stop-color="#d7dce0"/><stop offset="98%" stop-color="#767b82"/></linearGradient><linearGradient id="i" x1="0%" x2="100.024%" y1="49.867%" y2="49.867%"><stop offset="0%" stop-color="#a9b1bb"/><stop offset="9%" stop-color="#61666b"/><stop offset="18%" stop-color="#696e73"/><stop offset="32%" stop-color="#7e8489"/><stop offset="49%" stop-color="#a1a7ae"/><stop offset="69%" stop-color="#d1d8e0"/><stop offset="75%" stop-color="#e2eaf2"/><stop offset="93%" stop-color="#9ba1ab"/><stop offset="100%" stop-color="#767b82"/></linearGradient><linearGradient id="j" x1="0%" x2="100%" y1="50%" y2="50%"><stop offset="0%" stop-color="#a9b1bb"/><stop offset="9%" stop-color="#61666b"/><stop offset="18%" stop-color="#696e73"/><stop offset="32%" stop-color="#7e8489"/><stop offset="49%" stop-color="#a1a7ae"/><stop offset="69%" stop-color="#d1d8e0"/><stop offset="75%" stop-color="#e2eaf2"/><stop offset="93%" stop-color="#9ba1ab"/><stop offset="100%" stop-color="#767b82"/></linearGradient><linearGradient id="k" x1="0%" x2="100%" y1="50.013%" y2="50.013%"><stop offset="0%" stop-color="#a9b1bb"/><stop offset="9%" stop-color="#61666b"/><stop offset="18%" stop-color="#696e73"/><stop offset="32%" stop-color="#7e8489"/><stop offset="49%" stop-color="#a1a7ae"/><stop offset="69%" stop-color="#d1d8e0"/><stop offset="75%" stop-color="#e2eaf2"/><stop offset="93%" stop-color="#9ba1ab"/><stop offset="100%" stop-color="#767b82"/></linearGradient><linearGradient id="l" x1="0%" x2="100%" y1="50%" y2="50%"><stop offset="0%" stop-color="#a9b1bb"/><stop offset="9%" stop-color="#61666b"/><stop offset="18%" stop-color="#696e73"/><stop offset="32%" stop-color="#7e8489"/><stop offset="49%" stop-color="#a1a7ae"/><stop offset="69%" stop-color="#d1d8e0"/><stop offset="75%" stop-color="#e2eaf2"/><stop offset="93%" stop-color="#9ba1ab"/><stop offset="100%" stop-color="#767b82"/></linearGradient><linearGradient id="m" x1="0%" x2="99.972%" y1="50%" y2="50%"><stop offset="0%" stop-color="#7a8088"/><stop offset="9%" stop-color="#2d2f33"/><stop offset="19%" stop-color="#35373b"/><stop offset="33%" stop-color="#4a4d51"/><stop offset="51%" stop-color="#6d7176"/><stop offset="71%" stop-color="#9da3a8"/><stop offset="78%" stop-color="#b0b7bc"/><stop offset="93%" stop-color="#6d7177"/><stop offset="100%" stop-color="#5c6067"/></linearGradient><linearGradient id="n" x1="0%" x2="100%" y1="50%" y2="50%"><stop offset="0%" stop-color="#a9b1bb"/><stop offset="9%" stop-color="#61666b"/><stop offset="18%" stop-color="#696e73"/><stop offset="32%" stop-color="#7e8489"/><stop offset="49%" stop-color="#a1a7ae"/><stop offset="69%" stop-color="#d1d8e0"/><stop offset="75%" stop-color="#e2eaf2"/><stop offset="93%" stop-color="#9ba1ab"/><stop offset="100%" stop-color="#767b82"/></linearGradient><linearGradient id="o" x1="0%" x2="100%" y1="50%" y2="50%"><stop offset="0%" stop-color="#a9b1bb"/><stop offset="9%" stop-color="#61666b"/><stop offset="18%" stop-color="#696e73"/><stop offset="32%" stop-color="#7e8489"/><stop offset="49%" stop-color="#a1a7ae"/><stop offset="69%" stop-color="#d1d8e0"/><stop offset="75%" stop-color="#e2eaf2"/><stop offset="93%" stop-color="#9ba1ab"/><stop offset="100%" stop-color="#767b82"/></linearGradient><linearGradient id="p" x1="100%" x2="0%" y1="50%" y2="50%"><stop offset="0%" stop-color="#a9b1bb"/><stop offset="9%" stop-color="#61666b"/><stop offset="18%" stop-color="#696e73"/><stop offset="32%" stop-color="#7e8489"/><stop offset="49%" stop-color="#a1a7ae"/><stop offset="69%" stop-color="#d1d8e0"/><stop offset="75%" stop-color="#e2eaf2"/><stop offset="93%" stop-color="#9ba1ab"/><stop offset="100%" stop-color="#767b82"/></linearGradient><linearGradient id="q" x1="0%" x2="99.693%" y1="50%" y2="50%"><stop offset="0%" stop-color="#a9b1bb"/><stop offset="9%" stop-color="#61666b"/><stop offset="18%" stop-color="#696e73"/><stop offset="32%" stop-color="#7e8489"/><stop offset="49%" stop-color="#a1a7ae"/><stop offset="69%" stop-color="#d1d8e0"/><stop offset="75%" stop-color="#e2eaf2"/><stop offset="93%" stop-color="#9ba1ab"/><stop offset="100%" stop-color="#767b82"/></linearGradient><linearGradient id="r" x1="0%" x2="100%" y1="50%" y2="50%"><stop offset="0%" stop-color="#a9b1bb"/><stop offset="9%" stop-color="#61666b"/><stop offset="18%" stop-color="#696e73"/><stop offset="32%" stop-color="#7e8489"/><stop offset="49%" stop-color="#a1a7ae"/><stop offset="69%" stop-color="#d1d8e0"/><stop offset="75%" stop-color="#e2eaf2"/><stop offset="93%" stop-color="#9ba1ab"/><stop offset="100%" stop-color="#767b82"/></linearGradient><linearGradient id="s" x1="0%" x2="100%" y1="50%" y2="50%"><stop offset="0%" stop-color="#a9b1bb"/><stop offset="9%" stop-color="#61666b"/><stop offset="18%" stop-color="#696e73"/><stop offset="32%" stop-color="#7e8489"/><stop offset="49%" stop-color="#a1a7ae"/><stop offset="69%" stop-color="#d1d8e0"/><stop offset="75%" stop-color="#e2eaf2"/><stop offset="93%" stop-color="#9ba1ab"/><stop offset="100%" stop-color="#767b82"/></linearGradient><linearGradient id="t" x1="0%" x2="100%" y1="50%" y2="50%"><stop offset="0%" stop-color="#a9b1bb"/><stop offset="9%" stop-color="#61666b"/><stop offset="18%" stop-color="#696e73"/><stop offset="32%" stop-color="#7e8489"/><stop offset="49%" stop-color="#a1a7ae"/><stop offset="69%" stop-color="#d1d8e0"/><stop offset="75%" stop-color="#e2eaf2"/><stop offset="93%" stop-color="#9ba1ab"/><stop offset="100%" stop-color="#767b82"/></linearGradient><linearGradient id="u" x1="0%" x2="100%" y1="49.973%" y2="49.973%"><stop offset="0%" stop-color="#a9b1bb"/><stop offset="9%" stop-color="#61666b"/><stop offset="18%" stop-color="#696e73"/><stop offset="32%" stop-color="#7e8489"/><stop offset="49%" stop-color="#a1a7ae"/><stop offset="69%" stop-color="#d1d8e0"/><stop offset="75%" stop-color="#e2eaf2"/><stop offset="93%" stop-color="#9ba1ab"/><stop offset="100%" stop-color="#767b82"/></linearGradient><linearGradient id="v" x1="0%" x2="100%" y1="50.021%" y2="50.021%"><stop offset="0%" stop-color="#a9b1bb"/><stop offset="9%" stop-color="#61666b"/><stop offset="18%" stop-color="#696e73"/><stop offset="32%" stop-color="#7e8489"/><stop offset="49%" stop-color="#a1a7ae"/><stop offset="69%" stop-color="#d1d8e0"/><stop offset="75%" stop-color="#e2eaf2"/><stop offset="93%" stop-color="#9ba1ab"/><stop offset="100%" stop-color="#767b82"/></linearGradient><linearGradient id="w" x1="0%" x2="100%" y1="50%" y2="50%"><stop offset="0%" stop-color="#a9b1bb"/><stop offset="9%" stop-color="#61666b"/><stop offset="18%" stop-color="#696e73"/><stop offset="32%" stop-color="#7e8489"/><stop offset="49%" stop-color="#a1a7ae"/><stop offset="69%" stop-color="#d1d8e0"/><stop offset="75%" stop-color="#e2eaf2"/><stop offset="93%" stop-color="#9ba1ab"/><stop offset="100%" stop-color="#767b82"/></linearGradient><linearGradient id="x" x1="0%" x2="102.256%" y1="50.021%" y2="50.021%"><stop offset="0%" stop-color="#a9b1bb"/><stop offset="9%" stop-color="#61666b"/><stop offset="18%" stop-color="#696e73"/><stop offset="32%" stop-color="#7e8489"/><stop offset="49%" stop-color="#a1a7ae"/><stop offset="69%" stop-color="#d1d8e0"/><stop offset="75%" stop-color="#e2eaf2"/><stop offset="93%" stop-color="#9ba1ab"/><stop offset="100%" stop-color="#767b82"/></linearGradient><linearGradient id="y" x1="0%" x2="100%" y1="50%" y2="50%"><stop offset="0%" stop-color="#a9b1bb"/><stop offset="9%" stop-color="#61666b"/><stop offset="18%" stop-color="#696e73"/><stop offset="32%" stop-color="#7e8489"/><stop offset="49%" stop-color="#a1a7ae"/><stop offset="69%" stop-color="#d1d8e0"/><stop offset="75%" stop-color="#e2eaf2"/><stop offset="93%" stop-color="#9ba1ab"/><stop offset="100%" stop-color="#767b82"/></linearGradient><linearGradient id="z" x1="0%" x2="100%" y1="50.588%" y2="50.588%"><stop offset="0%" stop-color="#a9b1bb"/><stop offset="9%" stop-color="#61666b"/><stop offset="18%" stop-color="#696e73"/><stop offset="32%" stop-color="#7e8489"/><stop offset="49%" stop-color="#a1a7ae"/><stop offset="69%" stop-color="#d1d8e0"/><stop offset="75%" stop-color="#e2eaf2"/><stop offset="93%" stop-color="#9ba1ab"/><stop offset="100%" stop-color="#767b82"/></linearGradient><linearGradient id="A" x1="0%" x2="100%" y1="50%" y2="50%"><stop offset="0%" stop-color="#a9b1bb"/><stop offset="9%" stop-color="#61666b"/><stop offset="18%" stop-color="#696e73"/><stop offset="32%" stop-color="#7e8489"/><stop offset="49%" stop-color="#a1a7ae"/><stop offset="69%" stop-color="#d1d8e0"/><stop offset="75%" stop-color="#e2eaf2"/><stop offset="93%" stop-color="#9ba1ab"/><stop offset="100%" stop-color="#767b82"/></linearGradient><linearGradient id="B" x1="0%" x2="100%" y1="48.936%" y2="48.936%"><stop offset="0%" stop-color="#a9b1bb"/><stop offset="9%" stop-color="#61666b"/><stop offset="18%" stop-color="#696e73"/><stop offset="32%" stop-color="#7e8489"/><stop offset="49%" stop-color="#a1a7ae"/><stop offset="69%" stop-color="#d1d8e0"/><stop offset="75%" stop-color="#e2eaf2"/><stop offset="93%" stop-color="#9ba1ab"/><stop offset="100%" stop-color="#767b82"/></linearGradient><linearGradient id="C" x1="0%" x2="100%" y1="44.444%" y2="44.444%"><stop offset="0%" stop-color="#a9b1bb"/><stop offset="9%" stop-color="#61666b"/><stop offset="18%" stop-color="#696e73"/><stop offset="32%" stop-color="#7e8489"/><stop offset="49%" stop-color="#a1a7ae"/><stop offset="69%" stop-color="#d1d8e0"/><stop offset="75%" stop-color="#e2eaf2"/><stop offset="93%" stop-color="#9ba1ab"/><stop offset="100%" stop-color="#767b82"/></linearGradient><linearGradient id="D" x1="0%" x2="100%" y1="50%" y2="50%"><stop offset="0%" stop-color="#a9b1bb"/><stop offset="9%" stop-color="#61666b"/><stop offset="18%" stop-color="#696e73"/><stop offset="32%" stop-color="#7e8489"/><stop offset="49%" stop-color="#a1a7ae"/><stop offset="69%" stop-color="#d1d8e0"/><stop offset="75%" stop-color="#e2eaf2"/><stop offset="93%" stop-color="#9ba1ab"/><stop offset="100%" stop-color="#767b82"/></linearGradient><linearGradient id="E" x1=".151%" x2="100%" y1="50%" y2="50%"><stop offset="0%" stop-color="#a9b1bb"/><stop offset="9%" stop-color="#61666b"/><stop offset="18%" stop-color="#696e73"/><stop offset="32%" stop-color="#7e8489"/><stop offset="49%" stop-color="#a1a7ae"/><stop offset="69%" stop-color="#d1d8e0"/><stop offset="75%" stop-color="#e2eaf2"/><stop offset="93%" stop-color="#9ba1ab"/><stop offset="100%" stop-color="#767b82"/></linearGradient><linearGradient id="F" x1="0%" x2="99.465%" y1="50%" y2="50%"><stop offset="0%" stop-color="#a9b1bb"/><stop offset="9%" stop-color="#61666b"/><stop offset="18%" stop-color="#696e73"/><stop offset="32%" stop-color="#7e8489"/><stop offset="49%" stop-color="#a1a7ae"/><stop offset="69%" stop-color="#d1d8e0"/><stop offset="75%" stop-color="#e2eaf2"/><stop offset="93%" stop-color="#9ba1ab"/><stop offset="100%" stop-color="#767b82"/></linearGradient><linearGradient id="G" x1="100%" x2="0%" y1="50%" y2="50%"><stop offset="0%" stop-color="#a9b1bb"/><stop offset="9%" stop-color="#61666b"/><stop offset="18%" stop-color="#696e73"/><stop offset="32%" stop-color="#7e8489"/><stop offset="49%" stop-color="#a1a7ae"/><stop offset="69%" stop-color="#d1d8e0"/><stop offset="75%" stop-color="#e2eaf2"/><stop offset="93%" stop-color="#9ba1ab"/><stop offset="100%" stop-color="#767b82"/></linearGradient><linearGradient id="H" x1="0%" x2="100%" y1="55.556%" y2="55.556%"><stop offset="0%" stop-color="#a9b1bb"/><stop offset="9%" stop-color="#61666b"/><stop offset="18%" stop-color="#696e73"/><stop offset="32%" stop-color="#7e8489"/><stop offset="49%" stop-color="#a1a7ae"/><stop offset="69%" stop-color="#d1d8e0"/><stop offset="75%" stop-color="#e2eaf2"/><stop offset="93%" stop-color="#9ba1ab"/><stop offset="100%" stop-color="#767b82"/></linearGradient><linearGradient id="I" x1="0%" x2="100%" y1="50%" y2="50%"><stop offset="0%" stop-color="#a9b1bb"/><stop offset="9%" stop-color="#61666b"/><stop offset="18%" stop-color="#696e73"/><stop offset="32%" stop-color="#7e8489"/><stop offset="49%" stop-color="#a1a7ae"/><stop offset="69%" stop-color="#d1d8e0"/><stop offset="75%" stop-color="#e2eaf2"/><stop offset="93%" stop-color="#9ba1ab"/><stop offset="100%" stop-color="#767b82"/></linearGradient><linearGradient id="J" x1=".151%" x2="100%" y1="50.251%" y2="50.251%"><stop offset="0%" stop-color="#a9b1bb"/><stop offset="9%" stop-color="#61666b"/><stop offset="18%" stop-color="#696e73"/><stop offset="32%" stop-color="#7e8489"/><stop offset="49%" stop-color="#a1a7ae"/><stop offset="69%" stop-color="#d1d8e0"/><stop offset="75%" stop-color="#e2eaf2"/><stop offset="93%" stop-color="#9ba1ab"/><stop offset="100%" stop-color="#767b82"/></linearGradient><linearGradient id="K" x1="100%" x2="0%" y1="50.251%" y2="50.251%"><stop offset="0%" stop-color="#a9b1bb"/><stop offset="9%" stop-color="#61666b"/><stop offset="18%" stop-color="#696e73"/><stop offset="32%" stop-color="#7e8489"/><stop offset="49%" stop-color="#a1a7ae"/><stop offset="69%" stop-color="#d1d8e0"/><stop offset="75%" stop-color="#e2eaf2"/><stop offset="93%" stop-color="#9ba1ab"/><stop offset="100%" stop-color="#767b82"/></linearGradient><linearGradient id="L" x1="0%" x2="100%" y1="50.118%" y2="50.118%"><stop offset="0%" stop-color="#a9b1bb"/><stop offset="9%" stop-color="#61666b"/><stop offset="18%" stop-color="#696e73"/><stop offset="32%" stop-color="#7e8489"/><stop offset="49%" stop-color="#a1a7ae"/><stop offset="69%" stop-color="#d1d8e0"/><stop offset="75%" stop-color="#e2eaf2"/><stop offset="93%" stop-color="#9ba1ab"/><stop offset="100%" stop-color="#767b82"/></linearGradient><linearGradient id="M" x1="25.075%" x2="75.025%" y1="55.624%" y2="47.212%"><stop offset="0%" stop-color="#a9b1bb"/><stop offset="9%" stop-color="#61666b"/><stop offset="18%" stop-color="#696e73"/><stop offset="31%" stop-color="#7e8489"/><stop offset="48%" stop-color="#a1a7ae"/><stop offset="66%" stop-color="#d1d8e0"/><stop offset="73%" stop-color="#e2eaf2"/><stop offset="93%" stop-color="#9ba1ab"/><stop offset="100%" stop-color="#767b82"/></linearGradient></defs><g fill="none" fill-rule="nonzero" transform="translate(0 .079)"><path fill="url(#a)" d="M27.385 13.585h5.5v38.15h-5.5z" transform="rotate(-90 30.135 32.66)"/><path fill="url(#b)" d="M50.825 100.065h7.38v53.07h-7.38z" transform="rotate(-90 54.515 126.6)"/><path fill="url(#c)" d="M50.295 5.915h8.44v72.91h-8.44z" transform="rotate(-90 54.515 42.37)"/><path fill="url(#d)" d="M70.98 85.45H38.06L25.3 90.33v5.94h58.44v-5.94z"/><path fill="url(#e)" d="m72.77 91.39 2.86 1.84H33.41l2.86-1.84z"/><path fill="url(#f)" d="m75.63 97-.41 3.85s-2.92 15.62-20.7 15.62-20.7-15.62-20.7-15.62L33.41 97z"/><path fill="url(#g)" d="M18.06 96.17h12.07v51.59H18.06z"/><path fill="url(#h)" d="M16.67 147.76h14.85V150H16.67z"/><path fill="#000" d="M18.06 147.65h12.07v1H18.06z" opacity=".3"/><path fill="url(#g)" d="M78.91 96.17h12.07v51.59H78.91z"/><path fill="url(#h)" d="M77.52 147.76h14.85V150H77.52z"/><path fill="#000" d="M78.91 147.65h12.07v1H78.91z" opacity=".3"/><path fill="url(#i)" d="M33.41 93.24h42.21v3.77H33.41z"/><path fill="url(#j)" d="M21.91 46.59h3.25v49.58h-3.25z"/><path fill="url(#j)" d="M83.32 46.59h3.25v49.58h-3.25z"/><path fill="url(#k)" d="M49.13 0h10.79v38.15H49.13z"/><path fill="#252628" d="M51.18 4.86h1.05v11.66h-1.05zm-1.41 0h1.05v11.66h-1.05zm2.82 0h1.05v11.66h-1.05zm1.41 0h1.05v11.66H54zm1.4 0h1.05v11.66H55.4zm1.41 0h1.05v11.66h-1.05zm1.41 0h1.05v11.66h-1.05z"/><path fill="url(#k)" d="M13.68 13.58h10.79v38.15H13.68z" transform="rotate(-90 19.075 32.655)"/><path fill="url(#l)" d="M47.74 27.31H61.3v1.2H47.74z"/><path fill="url(#l)" d="M47.74 17.88H61.3v1.2H47.74z"/><path fill="url(#m)" d="M36.49 83.93h36.07v7.46H36.49z"/><path fill="url(#n)" d="M34.54 80.97H74.5v2.96H34.54z"/><path fill="url(#o)" d="m52.83 65.49-.75 1.63-4.9-.88v-.96l6.62-.16-.08.23z"/><path fill="url(#p)" d="m55.66 65.49.74 1.63 4.9-.88v-.96l-6.62-.16.08.23z"/><path fill="url(#q)" d="M52.63 47.75h3.26v4.84h-3.26z"/><path fill="url(#r)" d="M52.43 52.59h3.64v1h-3.64z"/><path fill="url(#s)" d="M48.67 77.22h11.16v1H48.67z"/><path fill="url(#t)" d="M52.43 45.43h3.65v2.32h-3.65z"/><path fill="url(#u)" d="M53.57 53.59h1.36v18.53h-1.36z"/><path fill="url(#v)" d="M40.77 51.81h1.36v23.07a.68.68 0 0 1-1.36 0z"/><rect width="1.36" height="9.44" x="44.566" y="71.558" fill="url(#w)" rx=".68" transform="rotate(-70 45.246 76.278)"/><path fill="url(#x)" d="M67.03 51.82a.68.68 0 0 1 .68.68v23.07h-1.33V52.5a.68.68 0 0 1 .68-.68z" transform="matrix(-1 0 0 -1 134.09 127.39)"/><rect width="1.36" height="9.44" x="62.554" y="71.564" fill="url(#w)" rx=".68" transform="rotate(250 63.234 76.284)"/><path fill="url(#y)" d="m59.1 72.67-4.78 1.35-4.86-1.31v-.77h9.64z"/><path fill="url(#z)" d="M53.32 71.94h1.87v1.7h-1.87z"/><path fill="url(#A)" d="M53.32 53.59h1.87v1h-1.87z"/><path fill="url(#B)" d="M53.32 56.64h1.87v1h-1.87z"/><path fill="url(#C)" d="M53.32 65.04h1.87v1h-1.87z"/><path fill="url(#D)" d="M53.32 65.4h1.87v1h-1.87z"/><path fill="url(#E)" d="m65.56 62.27-.74 1.63-4.91-.88v-.96l6.63-.16-.08.23z"/><path fill="url(#F)" d="M66.06 61.81h1.87v1h-1.87z"/><path fill="url(#F)" d="M66.06 62.18h1.87v1h-1.87z"/><path fill="url(#G)" d="m42.74 62.27.74 1.63 4.91-.88v-.96l-6.62-.16.07.23z"/><path fill="url(#H)" d="M40.38 61.82h1.87v1h-1.87z" transform="matrix(-1 0 0 -1 82.63 123.82)"/><path fill="url(#I)" d="M40.38 62.18h1.87v1h-1.87z" transform="matrix(-1 0 0 -1 82.63 124.54)"/><path fill="url(#J)" d="m65.56 69.33-.74 1.62-4.91-.87v-.96l6.63-.16-.08.22z"/><path fill="url(#F)" d="M66.06 68.87h1.87v1h-1.87z"/><path fill="url(#F)" d="M66.06 69.24h1.87v1h-1.87z"/><path fill="url(#K)" d="m42.74 69.33.74 1.62 4.91-.87v-.96l-6.62-.16.07.22z"/><path fill="url(#I)" d="M40.38 68.87h1.87v1h-1.87z" transform="matrix(-1 0 0 -1 82.63 137.92)"/><path fill="url(#I)" d="M40.38 69.24h1.87v1h-1.87z" transform="matrix(-1 0 0 -1 82.63 138.66)"/><path fill="url(#o)" d="m52.83 59.09-.75 1.63-4.9-.88v-.96l6.62-.16-.08.23z"/><path fill="url(#p)" d="m55.66 59.09.74 1.63 4.9-.88v-.96l-6.62-.16.08.23z"/><path fill="url(#D)" d="M53.32 58.63h1.87v1h-1.87z"/><path fill="url(#D)" d="M53.32 59h1.87v1h-1.87z"/><path fill="url(#L)" d="M34.54 47.56H74.5v4.25H34.54z"/><path fill="url(#M)" d="M74.5 47.56h-40c11.821-8.981 28.179-8.981 40 0"/><path fill="#252628" d="M2.18 36v-1.05h11.66V36zM2.18 37.41v-1.05h11.66v1.05zM2.18 34.59v-1.05h11.66v1.05zM2.17 33.18v-1.05h11.66v1.05zM2.18 31.77v-1.05h11.66v1.05zM2.18 30.37v-1.05h11.66v1.05zM2.18 28.96v-1.05h11.66v1.05zM13.84 27.31h1v10.74h-1zM59.89 4.86v1H49.15v-1z"/></g></svg>