<svg xmlns="http://www.w3.org/2000/svg" viewBox="0 0 150 151"><title>Vacuum stuffer(真空充填机)</title><defs><linearGradient id="a" x1="35.243%" x2="100.515%" y1="12.75%" y2="86.75%"><stop offset="0%" stop-color="#ebf0f5"/><stop offset="100%" stop-color="#8a9099"/></linearGradient><linearGradient id="b" x1="2.113%" x2="103.521%" y1="50.1%" y2="50.1%"><stop offset="0%" stop-color="#a9b1bb"/><stop offset="9%" stop-color="#61666b"/><stop offset="18%" stop-color="#696e73"/><stop offset="32%" stop-color="#7e8489"/><stop offset="49%" stop-color="#a1a7ae"/><stop offset="69%" stop-color="#d1d8e0"/><stop offset="75%" stop-color="#e2eaf2"/><stop offset="93%" stop-color="#9ba1ab"/><stop offset="100%" stop-color="#767b82"/></linearGradient><linearGradient id="c" x1="47.839%" x2="52.152%" y1="49.989%" y2="49.996%"><stop offset="0%" stop-color="#a9b1bb"/><stop offset="9%" stop-color="#61666b"/><stop offset="18%" stop-color="#696e73"/><stop offset="32%" stop-color="#7e8489"/><stop offset="49%" stop-color="#a1a7ae"/><stop offset="69%" stop-color="#d1d8e0"/><stop offset="75%" stop-color="#e2eaf2"/><stop offset="93%" stop-color="#9ba1ab"/><stop offset="100%" stop-color="#767b82"/></linearGradient><linearGradient id="d" x1="64.908%" x2="-.026%" y1="13%" y2="87%"><stop offset="0%" stop-color="#ebf0f5"/><stop offset="100%" stop-color="#8a9099"/></linearGradient><linearGradient id="e" x1="1.408%" x2="103.521%" y1="49.986%" y2="49.986%"><stop offset="0%" stop-color="#a9b1bb"/><stop offset="9%" stop-color="#61666b"/><stop offset="18%" stop-color="#696e73"/><stop offset="32%" stop-color="#7e8489"/><stop offset="49%" stop-color="#a1a7ae"/><stop offset="69%" stop-color="#d1d8e0"/><stop offset="75%" stop-color="#e2eaf2"/><stop offset="93%" stop-color="#9ba1ab"/><stop offset="100%" stop-color="#767b82"/></linearGradient><linearGradient id="f" x1=".27%" x2="100.539%" y1="50.196%" y2="50.196%"><stop offset="0%" stop-color="#a9b1bb"/><stop offset="9%" stop-color="#61666b"/><stop offset="18%" stop-color="#696e73"/><stop offset="32%" stop-color="#7e8489"/><stop offset="49%" stop-color="#a1a7ae"/><stop offset="69%" stop-color="#d1d8e0"/><stop offset="75%" stop-color="#e2eaf2"/><stop offset="93%" stop-color="#9ba1ab"/><stop offset="100%" stop-color="#767b82"/></linearGradient><linearGradient id="g" x1="97.039%" x2="2.961%" y1="8.523%" y2="91.469%"><stop offset="0%" stop-color="#ebf0f5"/><stop offset="100%" stop-color="#8a9099"/></linearGradient><linearGradient id="h" x1="95.959%" x2="4.051%" y1="11.497%" y2="88.511%"><stop offset="0%" stop-color="#ebf0f5"/><stop offset="100%" stop-color="#8a9099"/></linearGradient><linearGradient id="i" x1="49.984%" x2="49.984%" y1="100%" y2="0%"><stop offset="0%" stop-color="#a9b1bb"/><stop offset="9%" stop-color="#61666b"/><stop offset="18%" stop-color="#696e73"/><stop offset="32%" stop-color="#7e8489"/><stop offset="49%" stop-color="#a1a7ae"/><stop offset="69%" stop-color="#d1d8e0"/><stop offset="75%" stop-color="#e2eaf2"/><stop offset="93%" stop-color="#9ba1ab"/><stop offset="100%" stop-color="#767b82"/></linearGradient><linearGradient id="j" x1="49.829%" x2="49.829%" y1="100%" y2="0%"><stop offset="0%" stop-color="#a9b1bb"/><stop offset="9%" stop-color="#61666b"/><stop offset="18%" stop-color="#696e73"/><stop offset="32%" stop-color="#7e8489"/><stop offset="49%" stop-color="#a1a7ae"/><stop offset="69%" stop-color="#d1d8e0"/><stop offset="75%" stop-color="#e2eaf2"/><stop offset="93%" stop-color="#9ba1ab"/><stop offset="100%" stop-color="#767b82"/></linearGradient><linearGradient id="k" x1="58.504%" x2="41.491%" y1="18.296%" y2="81.704%"><stop offset="0%" stop-color="#ebf0f5"/><stop offset="100%" stop-color="#8a9099"/></linearGradient><linearGradient id="l" x1="79.488%" x2="20.502%" y1="44.698%" y2="55.3%"><stop offset="0%" stop-color="#ebf0f5"/><stop offset="100%" stop-color="#8a9099"/></linearGradient><linearGradient id="m" x1="50%" x2="50%" y1="99.812%" y2="0%"><stop offset="0%" stop-color="#5b5f66"/><stop offset="100%" stop-color="#7b7d80"/></linearGradient><linearGradient id="n" x1="78.463%" x2="21.537%" y1="46.056%" y2="53.946%"><stop offset="0%" stop-color="#ebf0f5"/><stop offset="100%" stop-color="#b8c0cc"/></linearGradient><linearGradient id="o" x1="86.701%" x2="13.299%" y1="32.822%" y2="67.178%"><stop offset="0%" stop-color="#ebf0f5"/><stop offset="100%" stop-color="#8a9099"/></linearGradient><linearGradient id="p" x1="85.195%" x2="14.805%" y1="35.655%" y2="64.341%"><stop offset="0%" stop-color="#abafb3"/><stop offset="100%" stop-color="#45484d"/></linearGradient><linearGradient id="q" x1="0%" x2="100%" y1="50%" y2="50%"><stop offset="0%" stop-color="#a9b1bb"/><stop offset="9%" stop-color="#61666b"/><stop offset="18%" stop-color="#696e73"/><stop offset="32%" stop-color="#7e8489"/><stop offset="49%" stop-color="#a1a7ae"/><stop offset="69%" stop-color="#d1d8e0"/><stop offset="75%" stop-color="#e2eaf2"/><stop offset="93%" stop-color="#9ba1ab"/><stop offset="100%" stop-color="#767b82"/></linearGradient><linearGradient id="r" x1="50%" x2="50%" y1="100%" y2="0%"><stop offset="0%" stop-color="#8a9099"/><stop offset="100%" stop-color="#dce1e6"/></linearGradient><linearGradient id="s" x1="49.911%" x2="49.911%" y1="100%" y2="0%"><stop offset="0%" stop-color="#5c6066"/><stop offset="100%" stop-color="#dce1e6"/></linearGradient><linearGradient id="t" x1="50%" x2="50%" y1="100%" y2="0%"><stop offset="0%" stop-color="#abafb3"/><stop offset="100%" stop-color="#45484d"/></linearGradient><linearGradient id="u" x1="50%" x2="50%" y1="100%" y2="0%"><stop offset="0%" stop-color="#61666b"/><stop offset="7%" stop-color="#696e73"/><stop offset="18%" stop-color="#7e8489"/><stop offset="32%" stop-color="#a1a7ae"/><stop offset="48%" stop-color="#d1d8e0"/><stop offset="53%" stop-color="#e2eaf2"/><stop offset="100%" stop-color="#767b82"/></linearGradient><linearGradient id="v" x1="-.075%" x2="100%" y1="49.925%" y2="49.925%"><stop offset="0%" stop-color="#dce1e6"/><stop offset="100%" stop-color="#5c6066"/></linearGradient><linearGradient id="w" x1="61.673%" x2="38.364%" y1="20.459%" y2="79.541%"><stop offset="0%" stop-color="#abafb3"/><stop offset="100%" stop-color="#45484d"/></linearGradient><linearGradient id="x" x1="0%" x2="100%" y1="50%" y2="50%"><stop offset="2%" stop-color="#767b82"/><stop offset="4%" stop-color="#d7dce0"/><stop offset="9%" stop-color="#9ba1ab"/><stop offset="92%" stop-color="#9ba1ab"/><stop offset="100%" stop-color="#767b82"/></linearGradient><linearGradient id="y" x1="100.075%" x2=".001%" y1="49.924%" y2="49.924%"><stop offset="0%" stop-color="#dce1e6"/><stop offset="100%" stop-color="#5c6066"/></linearGradient><linearGradient id="z" x1="61.636%" x2="38.327%" y1="79.541%" y2="20.459%"><stop offset="0%" stop-color="#abafb3"/><stop offset="100%" stop-color="#45484d"/></linearGradient><linearGradient id="A" x1="100%" x2="0%" y1="50%" y2="50%"><stop offset="2%" stop-color="#767b82"/><stop offset="4%" stop-color="#d7dce0"/><stop offset="9%" stop-color="#9ba1ab"/><stop offset="92%" stop-color="#9ba1ab"/><stop offset="100%" stop-color="#767b82"/></linearGradient><linearGradient id="B" x1="99.95%" x2=".05%" y1=".101%" y2="99.899%"><stop offset="0%" stop-color="#ebf0f5"/><stop offset="100%" stop-color="#8a9099"/></linearGradient><linearGradient id="C" x1="93.725%" x2="6.275%" y1="17.249%" y2="82.709%"><stop offset="0%" stop-color="#abafb3"/><stop offset="100%" stop-color="#45484d"/></linearGradient><linearGradient id="D" x1="50%" x2="50%" y1="100%" y2="0%"><stop offset="0%" stop-color="#f5faff"/><stop offset="100%" stop-color="#737880"/></linearGradient><linearGradient id="E" x1="51.824%" x2="51.824%" y1="98.365%" y2=".034%"><stop offset="0%" stop-color="#5c6066"/><stop offset="100%" stop-color="#f5faff"/></linearGradient><linearGradient id="F" x1="50%" x2="50%" y1="100%" y2=".216%"><stop offset="0%" stop-color="#f5faff"/><stop offset="100%" stop-color="#737880"/></linearGradient><linearGradient id="G" x1="51.293%" x2="51.293%" y1="99.8%" y2=".017%"><stop offset="0%" stop-color="#5c6066"/><stop offset="100%" stop-color="#f5faff"/></linearGradient><linearGradient id="H" x1="50%" x2="50%" y1="100.314%" y2="0%"><stop offset="0%" stop-color="#f5faff"/><stop offset="100%" stop-color="#737880"/></linearGradient><linearGradient id="I" x1="50%" x2="50%" y1="100%" y2="0%"><stop offset="0%" stop-color="#5c6066"/><stop offset="100%" stop-color="#f5faff"/></linearGradient><linearGradient id="J" x1="50%" x2="50%" y1="100%" y2="0%"><stop offset="0%" stop-color="#f5faff"/><stop offset="100%" stop-color="#737880"/></linearGradient><linearGradient id="K" x1="50.944%" x2="50.944%" y1="100.636%" y2=".638%"><stop offset="0%" stop-color="#5c6066"/><stop offset="100%" stop-color="#f5faff"/></linearGradient><linearGradient id="L" x1="85.616%" x2="14.384%" y1="85.616%" y2="14.384%"><stop offset="0%" stop-color="#61666b"/><stop offset="7%" stop-color="#696e73"/><stop offset="18%" stop-color="#7e8489"/><stop offset="32%" stop-color="#a1a7ae"/><stop offset="48%" stop-color="#d1d8e0"/><stop offset="53%" stop-color="#e2eaf2"/><stop offset="100%" stop-color="#767b82"/></linearGradient><linearGradient id="M" x1="85.616%" x2="15.068%" y1="85.616%" y2="14.384%"><stop offset="0%" stop-color="#61666b"/><stop offset="7%" stop-color="#696e73"/><stop offset="18%" stop-color="#7e8489"/><stop offset="32%" stop-color="#a1a7ae"/><stop offset="48%" stop-color="#d1d8e0"/><stop offset="53%" stop-color="#e2eaf2"/><stop offset="100%" stop-color="#767b82"/></linearGradient></defs><g fill="none" fill-rule="nonzero" transform="translate(0 .079)"><path fill="url(#a)" d="m4.87 65.17 8.81 3.44v-12L4.87 60a2.77 2.77 0 0 0 0 5.17"/><path fill="url(#b)" d="M11.606 10.339h1.426v52.11h-1.426z" transform="rotate(15.005 12.319 36.394)"/><path fill="url(#c)" d="M6.886 40.72h3.71v17.89h-3.71z" transform="rotate(14.98 8.74 49.665)"/><path fill="url(#d)" d="m125.36 64-8.81 3.44v-12l8.81 3.43a2.78 2.78 0 0 1 0 5.13"/><path fill="url(#e)" d="M117.185 9.145h1.42v51.89h-1.42z" transform="rotate(165.02 117.895 35.09)"/><path fill="url(#f)" d="M119.646 39.583h3.71v17.89h-3.71z" transform="rotate(165.02 121.501 48.528)"/><path fill="url(#g)" d="M13.68 48.84h102.34v90.23H13.68z"/><path fill="url(#h)" d="M15.48 48.71h98.73v82.74H15.48z"/><path fill="#8a9099" d="M114.09 48.84v82.49H15.61V48.84zm.25-.25h-99v83h99z"/><path fill="url(#i)" d="M116.02 110.39h31.05v18.68h-31.05z"/><path fill="url(#j)" d="M147.07 107.62H150v24.22h-2.93z"/><path fill="url(#k)" d="M116.02 63.75h15.97v59.52h-15.97z"/><path fill="url(#l)" d="M15.61 48.84h98.48v17.7H15.61z"/><path fill="#fff" d="M36.39 55.17h10.22v7.39H36.39zm65.02 0h10.22v7.39h-10.22z" opacity=".6"/><path fill="url(#m)" d="M15.61 66.54h98.48v5.31H15.61z"/><path fill="url(#n)" d="M15.61 71.84h98.48v13.65H15.61z"/><path fill="url(#o)" d="M13.68.94h102.34v47.9H13.68z"/><path fill="#e7ecf0" d="M13.68 0h102.34v1H13.68z"/><path fill="url(#p)" d="M17.94 5.77h93.82v38.24H17.94z"/><path fill="url(#q)" d="M64.06 5.77h2.32v38.24h-2.32z"/><ellipse cx="25.57" cy="58.87" fill="url(#r)" rx="5.62" ry="5.61"/><path fill="url(#s)" d="M25.57 53.76a5.11 5.11 0 1 1 0 10.22 5.11 5.11 0 0 1 0-10.22m0-.5a5.61 5.61 0 1 0 .02 11.22 5.61 5.61 0 0 0-.02-11.22"/><circle cx="25.57" cy="58.87" r="5.1" fill="url(#t)"/><circle cx="25.57" cy="58.87" r="4.88" fill="url(#u)"/><circle cx="6.63" cy="143.37" r="6.63" fill="#252628"/><path fill="url(#v)" d="M6.63 137a6.38 6.38 0 1 1-6.38 6.37A6.39 6.39 0 0 1 6.63 137m0-.25a6.63 6.63 0 1 0 .02 13.26 6.63 6.63 0 0 0-.02-13.26"/><rect width="4.12" height="10.46" x="4.57" y="134.97" fill="url(#w)" rx="1.88"/><path fill="url(#x)" d="M13.62 136.75H.24l13.38-7.74z"/><circle cx="123.01" cy="143.37" r="6.63" fill="#252628"/><path fill="url(#y)" d="M123 137a6.38 6.38 0 1 1-.02 12.76A6.38 6.38 0 0 1 123 137m0-.25a6.63 6.63 0 1 0 0 13.26 6.63 6.63 0 0 0 0-13.26"/><rect width="4.12" height="10.46" x="120.94" y="134.97" fill="url(#z)" rx="1.88" transform="matrix(-1 0 0 -1 246 280.4)"/><path fill="url(#A)" d="M116.02 136.75h13.62l-13.62-7.74z"/><path fill="url(#B)" d="M71.1 81.33h19.87v19.84H71.1z"/><path fill="url(#C)" d="M72.11 86.8h17.85v13.37H72.11z"/><ellipse cx="82.89" cy="96.7" fill="url(#D)" rx="2.88" ry="2.95"/><path fill="url(#E)" d="M82.89 94.1a2.6 2.6 0 1 1-2.54 2.6 2.58 2.58 0 0 1 2.54-2.6m0-.35a3 3 0 1 0 2.89 3 2.92 2.92 0 0 0-2.89-3"/><ellipse cx="82.89" cy="96.7" fill="#fff" rx="2.41" ry="2.47"/><path fill="#a63c27" d="m84.15 95.41-2.47 2.2.32.33z"/><circle cx="82.86" cy="96.7" r="1" fill="#a8afb5"/><ellipse cx="79.11" cy="90.08" fill="url(#F)" rx="2.26" ry="2.32"/><path fill="url(#G)" d="M79.11 88.05a2 2 0 1 1 0 4 2 2 0 0 1 0-4m0-.28a2.32 2.32 0 1 0 2.26 2.31 2.3 2.3 0 0 0-2.26-2.31"/><ellipse cx="79.11" cy="90.08" fill="#fff" rx="1.89" ry="1.94"/><path fill="#a63c27" d="m80.1 89.07-1.94 1.73.25.26z"/><circle cx="79.09" cy="90.08" r="1" fill="#a8afb5"/><ellipse cx="75.77" cy="94.1" fill="url(#H)" rx="1.56" ry="1.59"/><path fill="url(#I)" d="M75.77 92.7a1.41 1.41 0 1 1-1.37 1.4 1.39 1.39 0 0 1 1.37-1.4m0-.19a1.6 1.6 0 0 0 0 3.19 1.6 1.6 0 0 0 0-3.19"/><ellipse cx="75.77" cy="94.1" fill="#ffe549" rx="1.3" ry="1.33"/><path fill="#a63c27" d="m76.45 93.41-1.33 1.18.17.18z"/><circle cx="75.76" cy="94.1" r="1" fill="#a8afb5"/><ellipse cx="86.86" cy="92.02" fill="url(#J)" rx="1.56" ry="1.59"/><path fill="url(#K)" d="M86.86 90.62A1.4 1.4 0 1 1 85.49 92a1.39 1.39 0 0 1 1.37-1.4m0-.19A1.59 1.59 0 1 0 88.42 92a1.58 1.58 0 0 0-1.56-1.59"/><ellipse cx="86.86" cy="92.02" fill="#ffe549" rx="1.3" ry="1.33"/><path fill="#a63c27" d="m87.54 91.33-1.33 1.18.17.18z"/><circle cx="86.85" cy="92.02" r="1" fill="#a8afb5"/><path fill="#ffe549" d="M72.11 86.8h17.85v6.55H72.11z" opacity=".2"/><circle cx="73.72" cy="83.6" r="1" fill="url(#L)"/><circle cx="80.68" cy="83.6" r="1" fill="url(#M)"/><circle cx="87.65" cy="83.6" r="1" fill="url(#L)"/></g></svg>