<svg xmlns="http://www.w3.org/2000/svg" viewBox="0 0 138 151"><title>Vacuum system(真空系统)</title><defs><linearGradient id="a" x1="74.37%" x2="25.63%" y1="9.832%" y2="90.168%"><stop offset="0%" stop-color="#ebf0f5"/><stop offset="100%" stop-color="#8a9099"/></linearGradient><linearGradient id="b" x1="0%" x2="100%" y1="50%" y2="50%"><stop offset="0%" stop-color="#a9b1bb"/><stop offset="9%" stop-color="#61666b"/><stop offset="18%" stop-color="#696e73"/><stop offset="32%" stop-color="#7e8489"/><stop offset="49%" stop-color="#a1a7ae"/><stop offset="69%" stop-color="#d1d8e0"/><stop offset="75%" stop-color="#e2eaf2"/><stop offset="93%" stop-color="#9ba1ab"/><stop offset="100%" stop-color="#767b82"/></linearGradient><linearGradient id="c" x1="76.832%" x2="23.18%" y1="48.04%" y2="51.959%"><stop offset="0%" stop-color="#ebf0f5"/><stop offset="100%" stop-color="#8a9099"/></linearGradient><linearGradient id="d" x1="37.509%" x2="62.509%" y1="52.119%" y2="48.557%"><stop offset="0%" stop-color="#a9b1bb"/><stop offset="9%" stop-color="#61666b"/><stop offset="18%" stop-color="#696e73"/><stop offset="32%" stop-color="#7e8489"/><stop offset="49%" stop-color="#a1a7ae"/><stop offset="69%" stop-color="#d1d8e0"/><stop offset="75%" stop-color="#e2eaf2"/><stop offset="93%" stop-color="#9ba1ab"/><stop offset="100%" stop-color="#767b82"/></linearGradient><linearGradient id="e" x1="86.259%" x2="13.741%" y1="33.671%" y2="66.329%"><stop offset="0%" stop-color="#dce1e6"/><stop offset="100%" stop-color="#8a9099"/></linearGradient><linearGradient id="f" x1="50%" x2="50%" y1="100.985%" y2="-.985%"><stop offset="0%" stop-color="#dce1e6"/><stop offset="100%" stop-color="#5c6066"/></linearGradient><linearGradient id="g" x1="85.202%" x2="14.798%" y1="14.671%" y2="85.329%"><stop offset="0%" stop-color="#ebf0f5"/><stop offset="100%" stop-color="#8a9099"/></linearGradient><linearGradient id="h" x1="49.815%" x2="49.815%" y1="100%" y2="0%"><stop offset="0%" stop-color="#767b82"/><stop offset="1%" stop-color="#5c6066"/><stop offset="88%" stop-color="#7a7d80"/><stop offset="94%" stop-color="#767b82"/><stop offset="100%" stop-color="#b9c0cc"/></linearGradient></defs><g fill="none" fill-rule="evenodd" transform="translate(0 .079)"><path fill="url(#a)" fill-rule="nonzero" d="M0 10.56h84.6V150H0z"/><path fill="#f2f2f2" fill-rule="nonzero" d="M8.7 60.81h67.2v14.62H8.7z" opacity=".8"/><path fill="url(#b)" fill-rule="nonzero" d="M84.6 4.38h53.24V150H84.6z"/><path stroke="#d2dae6" stroke-width=".25" d="M0 56.44h84.6"/><path stroke="#5e6266" stroke-width=".25" d="M84.6 58.75H0m137.84-48.19H84.6"/><path stroke="#d2dae6" stroke-width=".25" d="M0 81.07h84.6"/><path stroke="#5e6266" stroke-width=".25" d="M84.6 83.37H0"/><path stroke="#d2dae6" stroke-width=".25" d="M0 105.69h84.6"/><path stroke="#5e6266" stroke-width=".25" d="M84.6 108H0"/><path stroke="#d2dae6" stroke-width=".25" d="M0 130.32h84.6"/><path stroke="#5e6266" stroke-width=".25" d="M84.6 132.62H0"/><path fill="url(#c)" fill-rule="nonzero" d="M0 4.38h84.6v6.18H0z"/><path fill="url(#d)" fill-rule="nonzero" d="M137.84 4.38H84.6S93.36 0 111.22 0s26.62 4.38 26.62 4.38"/><path fill="#494d53" fill-rule="nonzero" d="M32.11 25.4h13.58v6.67H32.11z"/><path fill="#dde4ec" fill-rule="nonzero" d="M32.61 25.4H45.7v6.17H32.61z"/><path fill="url(#e)" fill-rule="nonzero" d="M32.61 25.9H45.2v5.67H32.61z"/><circle cx="15.94" cy="28.74" r="6.09" fill="#252628" fill-rule="nonzero" stroke="url(#f)" stroke-width=".25"/><path fill="url(#g)" fill-rule="nonzero" d="M17.33 25.4h-2.77l-1.95 1.96v2.76l1.95 1.96h2.77l1.95-1.96v-2.76z"/><path fill="#f2f2f2" fill-rule="nonzero" d="M117.79 24.67h20.05v7.31h-20.05zM117.79 22.49h20.05v1.15h-20.05zM117.79 33.02h20.05v1.15h-20.05z" opacity=".8"/><path fill="url(#h)" fill-rule="nonzero" d="M103.06 5.03h2.71v11.05h-2.71z"/></g></svg>