<svg xmlns="http://www.w3.org/2000/svg" viewBox="0 0 61 151"><title>Vertical blender(立式搅拌机)</title><defs><linearGradient id="a" x1="34.68%" x2="75.326%" y1="75.317%" y2="34.719%"><stop offset="0%" stop-color="#a9b1bb"/><stop offset="9%" stop-color="#61666b"/><stop offset="18%" stop-color="#696e73"/><stop offset="32%" stop-color="#7e8489"/><stop offset="49%" stop-color="#a1a7ae"/><stop offset="69%" stop-color="#d1d8e0"/><stop offset="75%" stop-color="#e2eaf2"/><stop offset="93%" stop-color="#9ba1ab"/><stop offset="100%" stop-color="#767b82"/></linearGradient><linearGradient id="b" x1="81.037%" x2="18.878%" y1="73.024%" y2="27.039%"><stop offset="0%" stop-color="#ebf0f5"/><stop offset="100%" stop-color="#8a9099"/></linearGradient><linearGradient id="c" x1="0%" x2="100%" y1="50.056%" y2="50.056%"><stop offset="0%" stop-color="#a9b1bb"/><stop offset="9%" stop-color="#61666b"/><stop offset="18%" stop-color="#696e73"/><stop offset="32%" stop-color="#7e8489"/><stop offset="49%" stop-color="#a1a7ae"/><stop offset="69%" stop-color="#d1d8e0"/><stop offset="75%" stop-color="#e2eaf2"/><stop offset="93%" stop-color="#9ba1ab"/><stop offset="100%" stop-color="#767b82"/></linearGradient><linearGradient id="d" x1="0%" x2="100.125%" y1="49.587%" y2="49.587%"><stop offset="0%" stop-color="#a9b1bb"/><stop offset="9%" stop-color="#61666b"/><stop offset="18%" stop-color="#696e73"/><stop offset="32%" stop-color="#7e8489"/><stop offset="49%" stop-color="#a1a7ae"/><stop offset="69%" stop-color="#d1d8e0"/><stop offset="75%" stop-color="#e2eaf2"/><stop offset="93%" stop-color="#9ba1ab"/><stop offset="100%" stop-color="#767b82"/></linearGradient><linearGradient id="e" x1="0%" x2="100%" y1="50.056%" y2="50.056%"><stop offset="0%" stop-color="#a9b1bb"/><stop offset="9%" stop-color="#61666b"/><stop offset="18%" stop-color="#696e73"/><stop offset="32%" stop-color="#7e8489"/><stop offset="49%" stop-color="#a1a7ae"/><stop offset="69%" stop-color="#d1d8e0"/><stop offset="75%" stop-color="#e2eaf2"/><stop offset="93%" stop-color="#9ba1ab"/><stop offset="100%" stop-color="#767b82"/></linearGradient><linearGradient id="f" x1="0%" x2="99.843%" y1="50%" y2="50%"><stop offset="0%" stop-color="#767b82"/><stop offset="1%" stop-color="#5c6066"/><stop offset="88%" stop-color="#7a7d80"/><stop offset="94%" stop-color="#767b82"/><stop offset="100%" stop-color="#b9c0cc"/></linearGradient><linearGradient id="g" x1="90.827%" x2="16.195%" y1="33.27%" y2="70.261%"><stop offset="0%" stop-color="#ebf0f5"/><stop offset="100%" stop-color="#8a9099"/></linearGradient><linearGradient id="h" x1="88.109%" x2="18.913%" y1="30.004%" y2="66.365%"><stop offset="0%" stop-color="#ebf0f5"/><stop offset="100%" stop-color="#8a9099"/></linearGradient><linearGradient id="i" x1="0%" x2="100%" y1="49.873%" y2="49.873%"><stop offset="0%" stop-color="#a9b1bb"/><stop offset="9%" stop-color="#61666b"/><stop offset="18%" stop-color="#696e73"/><stop offset="32%" stop-color="#7e8489"/><stop offset="49%" stop-color="#a1a7ae"/><stop offset="69%" stop-color="#d1d8e0"/><stop offset="75%" stop-color="#e2eaf2"/><stop offset="93%" stop-color="#9ba1ab"/><stop offset="100%" stop-color="#767b82"/></linearGradient><linearGradient id="j" x1="0%" x2="100%" y1="50%" y2="50%"><stop offset="0%" stop-color="#a9b1bb"/><stop offset="9%" stop-color="#61666b"/><stop offset="18%" stop-color="#696e73"/><stop offset="32%" stop-color="#7e8489"/><stop offset="49%" stop-color="#a1a7ae"/><stop offset="69%" stop-color="#d1d8e0"/><stop offset="75%" stop-color="#e2eaf2"/><stop offset="93%" stop-color="#9ba1ab"/><stop offset="100%" stop-color="#767b82"/></linearGradient><linearGradient id="k" x1="0%" x2="100%" y1="49.587%" y2="49.587%"><stop offset="0%" stop-color="#a9b1bb"/><stop offset="9%" stop-color="#61666b"/><stop offset="18%" stop-color="#696e73"/><stop offset="32%" stop-color="#7e8489"/><stop offset="49%" stop-color="#a1a7ae"/><stop offset="69%" stop-color="#d1d8e0"/><stop offset="75%" stop-color="#e2eaf2"/><stop offset="93%" stop-color="#9ba1ab"/><stop offset="100%" stop-color="#767b82"/></linearGradient><linearGradient id="l" x1="11.901%" x2="74.911%" y1="39.543%" y2="53.328%"><stop offset="0%" stop-color="#a9b1bb"/><stop offset="9%" stop-color="#61666b"/><stop offset="18%" stop-color="#696e73"/><stop offset="32%" stop-color="#7e8489"/><stop offset="49%" stop-color="#a1a7ae"/><stop offset="69%" stop-color="#d1d8e0"/><stop offset="75%" stop-color="#e2eaf2"/><stop offset="93%" stop-color="#9ba1ab"/><stop offset="100%" stop-color="#767b82"/></linearGradient><linearGradient id="m" x1="24.954%" x2="75.066%" y1="55.761%" y2="47.154%"><stop offset="0%" stop-color="#a9b1bb"/><stop offset="9%" stop-color="#61666b"/><stop offset="18%" stop-color="#696e73"/><stop offset="32%" stop-color="#7e8489"/><stop offset="49%" stop-color="#a1a7ae"/><stop offset="69%" stop-color="#d1d8e0"/><stop offset="75%" stop-color="#e2eaf2"/><stop offset="93%" stop-color="#9ba1ab"/><stop offset="100%" stop-color="#767b82"/></linearGradient><linearGradient id="n" x1="0%" x2="100%" y1="50.055%" y2="50.055%"><stop offset="0%" stop-color="#a9b1bb"/><stop offset="9%" stop-color="#61666b"/><stop offset="18%" stop-color="#696e73"/><stop offset="32%" stop-color="#7e8489"/><stop offset="49%" stop-color="#a1a7ae"/><stop offset="69%" stop-color="#d1d8e0"/><stop offset="75%" stop-color="#e2eaf2"/><stop offset="93%" stop-color="#9ba1ab"/><stop offset="100%" stop-color="#767b82"/></linearGradient><linearGradient id="o" x1="50.09%" x2="50.09%" y1="99.999%" y2="0%"><stop offset="0%" stop-color="#dce1e6"/><stop offset="100%" stop-color="#5c6066"/></linearGradient><linearGradient id="p" x1="50%" x2="50%" y1="100%" y2="0%"><stop offset="0%" stop-color="#f5faff"/><stop offset="100%" stop-color="#737880"/></linearGradient><linearGradient id="q" x1="50%" x2="50%" y1="100%" y2="0%"><stop offset="0%" stop-color="#5c6066"/><stop offset="100%" stop-color="#f5faff"/></linearGradient><linearGradient id="r" x1="0%" x2="99.758%" y1="50%" y2="50%"><stop offset="0%" stop-color="#a9b1bb"/><stop offset="9%" stop-color="#61666b"/><stop offset="18%" stop-color="#696e73"/><stop offset="32%" stop-color="#7e8489"/><stop offset="49%" stop-color="#a1a7ae"/><stop offset="69%" stop-color="#d1d8e0"/><stop offset="75%" stop-color="#e2eaf2"/><stop offset="93%" stop-color="#9ba1ab"/><stop offset="100%" stop-color="#767b82"/></linearGradient><linearGradient id="s" x1="0%" x2="100%" y1="50%" y2="50%"><stop offset="0%" stop-color="#7a8088"/><stop offset="9%" stop-color="#2d2f33"/><stop offset="16%" stop-color="#35373b"/><stop offset="26%" stop-color="#4a4d51"/><stop offset="39%" stop-color="#6d7176"/><stop offset="53%" stop-color="#9da3a8"/><stop offset="59%" stop-color="#b0b7bc"/><stop offset="93%" stop-color="#6d7177"/><stop offset="100%" stop-color="#5c6067"/></linearGradient><linearGradient id="t" x1=".242%" x2="100%" y1="50%" y2="50%"><stop offset="0%" stop-color="#a9b1bb"/><stop offset="9%" stop-color="#61666b"/><stop offset="18%" stop-color="#696e73"/><stop offset="32%" stop-color="#7e8489"/><stop offset="49%" stop-color="#a1a7ae"/><stop offset="69%" stop-color="#d1d8e0"/><stop offset="75%" stop-color="#e2eaf2"/><stop offset="93%" stop-color="#9ba1ab"/><stop offset="100%" stop-color="#767b82"/></linearGradient><linearGradient id="u" x1="0%" x2="100%" y1="50.011%" y2="50.011%"><stop offset="0%" stop-color="#7a8088"/><stop offset="9%" stop-color="#2d2f33"/><stop offset="16%" stop-color="#35373b"/><stop offset="26%" stop-color="#4a4d51"/><stop offset="39%" stop-color="#6d7176"/><stop offset="53%" stop-color="#9da3a8"/><stop offset="59%" stop-color="#b0b7bc"/><stop offset="93%" stop-color="#6d7177"/><stop offset="100%" stop-color="#5c6067"/></linearGradient><linearGradient id="v" x1="0%" x2="100.157%" y1="50%" y2="50%"><stop offset="0%" stop-color="#7a8088"/><stop offset="9%" stop-color="#2d2f33"/><stop offset="16%" stop-color="#35373b"/><stop offset="26%" stop-color="#4a4d51"/><stop offset="39%" stop-color="#6d7176"/><stop offset="53%" stop-color="#9da3a8"/><stop offset="59%" stop-color="#b0b7bc"/><stop offset="93%" stop-color="#6d7177"/><stop offset="100%" stop-color="#5c6067"/></linearGradient><linearGradient id="w" x1="50%" x2="50%" y1="100%" y2="0%"><stop offset="0%" stop-color="#767b82"/><stop offset="1%" stop-color="#5c6066"/><stop offset="88%" stop-color="#7a7d80"/><stop offset="94%" stop-color="#767b82"/><stop offset="100%" stop-color="#b9c0cc"/></linearGradient><linearGradient id="x" x1="50%" x2="50%" y1="100%" y2="0%"><stop offset="0%" stop-color="#767b82"/><stop offset="8%" stop-color="#9ba1ab"/><stop offset="91%" stop-color="#9ba1ab"/><stop offset="96%" stop-color="#d7dce0"/><stop offset="98%" stop-color="#767b82"/></linearGradient><linearGradient id="y" x1="14.719%" x2="85.338%" y1="85.228%" y2="14.634%"><stop offset="0%" stop-color="#767b82"/><stop offset="1%" stop-color="#5c6066"/><stop offset="88%" stop-color="#7a7d80"/><stop offset="94%" stop-color="#767b82"/><stop offset="100%" stop-color="#b9c0cc"/></linearGradient><linearGradient id="z" x1="25.857%" x2="59.109%" y1="58.45%" y2="25.198%"><stop offset="0%" stop-color="#767b82"/><stop offset="1%" stop-color="#5c6066"/><stop offset="88%" stop-color="#7a7d80"/><stop offset="94%" stop-color="#767b82"/><stop offset="100%" stop-color="#b9c0cc"/></linearGradient><linearGradient id="A" x1="74.075%" x2="40.95%" y1="41.874%" y2="75.062%"><stop offset="0%" stop-color="#767b82"/><stop offset="1%" stop-color="#5c6066"/><stop offset="88%" stop-color="#7a7d80"/><stop offset="94%" stop-color="#767b82"/><stop offset="100%" stop-color="#b9c0cc"/></linearGradient><linearGradient id="B" x1="59.708%" x2="49.573%" y1="60.508%" y2="43.899%"><stop offset="0%" stop-color="#767b82"/><stop offset="1%" stop-color="#5c6066"/><stop offset="88%" stop-color="#7a7d80"/><stop offset="94%" stop-color="#767b82"/><stop offset="100%" stop-color="#b9c0cc"/></linearGradient><linearGradient id="C" x1="40.262%" x2="50.438%" y1="39.479%" y2="56.035%"><stop offset="0%" stop-color="#767b82"/><stop offset="1%" stop-color="#5c6066"/><stop offset="88%" stop-color="#7a7d80"/><stop offset="94%" stop-color="#767b82"/><stop offset="100%" stop-color="#b9c0cc"/></linearGradient><linearGradient id="D" x1="54.293%" x2="37.512%" y1="56.528%" y2="46.383%"><stop offset="0%" stop-color="#767b82"/><stop offset="1%" stop-color="#5c6066"/><stop offset="88%" stop-color="#7a7d80"/><stop offset="94%" stop-color="#767b82"/><stop offset="100%" stop-color="#b9c0cc"/></linearGradient><linearGradient id="E" x1="45.669%" x2="62.566%" y1="43.321%" y2="53.483%"><stop offset="0%" stop-color="#767b82"/><stop offset="1%" stop-color="#5c6066"/><stop offset="88%" stop-color="#7a7d80"/><stop offset="94%" stop-color="#767b82"/><stop offset="100%" stop-color="#b9c0cc"/></linearGradient><linearGradient id="F" x1="0%" x2="100%" y1="50%" y2="50%"><stop offset="0%" stop-color="#b9c0cc"/><stop offset="6%" stop-color="#767b82"/><stop offset="12%" stop-color="#7a7d80"/><stop offset="99%" stop-color="#5c6066"/><stop offset="100%" stop-color="#767b82"/></linearGradient><linearGradient id="G" x1="50%" x2="50%" y1="100.261%" y2=".261%"><stop offset="0%" stop-color="#a9b1bb"/><stop offset="9%" stop-color="#61666b"/><stop offset="18%" stop-color="#696e73"/><stop offset="32%" stop-color="#7e8489"/><stop offset="49%" stop-color="#a1a7ae"/><stop offset="69%" stop-color="#d1d8e0"/><stop offset="75%" stop-color="#e2eaf2"/><stop offset="93%" stop-color="#9ba1ab"/><stop offset="100%" stop-color="#767b82"/></linearGradient><linearGradient id="H" x1="73.16%" x2="26.84%" y1="18.848%" y2="81.152%"><stop offset="0%" stop-color="#ebf0f5"/><stop offset="100%" stop-color="#8a9099"/></linearGradient><linearGradient id="I" x1="0%" x2="100%" y1="50.111%" y2="50.111%"><stop offset="0%" stop-color="#b9c0cc"/><stop offset="6%" stop-color="#767b82"/><stop offset="12%" stop-color="#7a7d80"/><stop offset="99%" stop-color="#5c6066"/><stop offset="100%" stop-color="#767b82"/></linearGradient><linearGradient id="J" x1="77.85%" x2="21.173%" y1="40.875%" y2="59.337%"><stop offset="0%" stop-color="#ebf0f5"/><stop offset="100%" stop-color="#8a9099"/></linearGradient></defs><g fill="none" fill-rule="nonzero" transform="translate(0 .079)"><path fill="url(#a)" d="M59.27 83.78 48.18 72.69 39.87 81 51 92.09c1.7 1.7 4.94 1.22 7.23-1.08s2.77-5.53 1.04-7.23"/><ellipse cx="44.028" cy="76.84" fill="url(#b)" rx="5.88" ry="4.35" transform="rotate(-45 44.028 76.84)"/><path fill="url(#c)" d="M14.21 16.43h3.32v8.99h-3.32z"/><path fill="url(#d)" d="M11.88 15.23h7.97v1.21h-7.97z"/><path fill="url(#e)" d="M40.69 16.43h7.95v8.99h-7.95z"/><path fill="url(#f)" d="M26.88 9.63h6.36v9.9h-6.36z"/><path fill="url(#g)" d="M34.47 16.43h-8.83l1.24-4.37h7.59z"/><path fill="url(#h)" d="M34.47 10.05h-7.59l-1.24-4.64h8.83z"/><path fill="url(#i)" d="M28.94 0h2.23v3.95h-2.23z"/><path fill="url(#j)" d="M32.85 5.41h-5.58l1.66-1.46h2.26z"/><path fill="url(#k)" d="M39.69 15.23h9.95v1.21h-9.95z"/><path fill="url(#l)" d="M39.98 97.06H20.14L5.35 35.76h49.41z"/><path fill="url(#m)" d="M54.76 26.75H5.35s6-8.49 24.71-8.49 24.7 8.49 24.7 8.49"/><path fill="url(#n)" d="M5.35 26.75h49.41v9.01H5.35z"/><path fill="#252628" d="M5.35 29.34h49.41v3.82H5.35z" opacity=".6"/><circle cx="30.06" cy="67.05" r="5.61" fill="#252628"/><path fill="url(#o)" d="M30.06 61.69a5.36 5.36 0 1 1 0 10.72 5.36 5.36 0 0 1 0-10.72m0-.25a5.61 5.61 0 1 0-.02 11.22 5.61 5.61 0 0 0 .02-11.22"/><circle cx="30.06" cy="67.05" r="4.27" fill="url(#p)"/><path fill="url(#q)" d="M30.06 63.29a3.76 3.76 0 1 1 0 7.52 3.76 3.76 0 0 1 0-7.52m0-.51a4.27 4.27 0 1 0 0 8.54 4.27 4.27 0 0 0 0-8.54"/><circle cx="30.06" cy="67.05" r="3.57" fill="#fff"/><path fill="#a63c27" d="m31.92 65.19-3.66 3.18.48.48z"/><circle cx="30.01" cy="67.05" r="1" fill="#a8afb5"/><path fill="#767a80" d="M10.71 33.17v10.65H3.73v-6.96L6 33.17z"/><path fill="#a5abb3" d="M0 36.89h3.73v6.93H0z"/><path fill="#d4dce6" d="M2.63 33.17H6l-2.27 3.72H0z"/><path fill="url(#r)" d="M2.98 43.82h4.14V148.3H2.98z"/><path fill="url(#s)" d="M1.87 148.3h6.36v1.7H1.87z"/><path fill="#767a80" d="M49.64 33.17v10.65h6.97v-6.96l-2.27-3.69z"/><path fill="#a5abb3" d="M60.35 43.82h-3.73v-6.93h3.73z"/><path fill="#d4dce6" d="M57.72 33.17h-3.38l2.27 3.72h3.74z"/><path fill="url(#t)" d="M53.23 43.82h4.14V148.3h-4.14z" transform="matrix(-1 0 0 -1 110.6 192.12)"/><path fill="url(#s)" d="M52.12 148.3h6.36v1.7h-6.36z" transform="matrix(-1 0 0 -1 110.6 298.3)"/><path fill="url(#u)" d="M28.13 102.95h4.14v45.35h-4.14z" transform="matrix(-1 0 0 -1 60.4 251.25)"/><path fill="url(#v)" d="M27.02 148.3h6.36v1.7h-6.36z"/><path fill="url(#w)" d="M21.62 97.06h16.56v5.89H21.62z"/><path fill="url(#x)" d="M25.1 99.65h11.58v5.89H25.1z"/><path fill="url(#y)" d="M33.76 101.12a6.25 6.25 0 0 0 7.93 9.6q.498-.33.92-.75a7.6 7.6 0 0 0 .81-1 6.26 6.26 0 0 0-9.66-7.86zm9.24 7.56a6 6 0 0 1-.74.89 6 6 0 0 1-.82.69 5.7 5.7 0 1 1 1.56-1.58"/><path fill="url(#z)" d="M43.42 109a7.6 7.6 0 0 1-.81 1 6 6 0 0 1-.92.75l-.3-.46-3.18-4.75 4.79 3.14z"/><path fill="url(#A)" d="M33 102a6.3 6.3 0 0 1 .81-1 6 6 0 0 1 .91-.76l.31.46 3.18 4.76-4.74-3.17z"/><path fill="url(#B)" d="M43.82 102.73q.287.576.45 1.2.16.575.2 1.17h-.56l-5.7.38 5.12-2.48z"/><path fill="url(#C)" d="M32.59 108.28a7 7 0 0 1-.44-1.2 5.2 5.2 0 0 1-.2-1.16h.56l5.7-.37-5.12 2.45z"/><path fill="url(#D)" d="M38.62 99.26a6 6 0 0 1 1.25.21 5.6 5.6 0 0 1 1.11.41l-.24.5-2.53 5.13.37-5.7z"/><path fill="url(#E)" d="M37.8 111.75a6 6 0 0 1-1.25-.21 5.4 5.4 0 0 1-1.12-.41l.25-.5 2.53-5.12-.37 5.69z"/><path fill="url(#F)" d="m25.64 5.41-3.16 1.98v6.79l3.16 2.25 1.24-4.37v-2.01z"/><path fill="url(#G)" d="M29.52 9h-5.11v3.83h5.11c.78 0 1.41-.86 1.41-1.92S30.3 9 29.52 9"/><ellipse cx="24.41" cy="10.92" fill="url(#H)" rx="1.42" ry="1.91"/><path fill="url(#I)" d="m20.38 10.8 2.1.88V7.39l-2.1-.2z"/><path fill="url(#J)" d="m20.38 7.19.6-.66h2.17l.3.25-.97.61z"/></g></svg>