<svg xmlns="http://www.w3.org/2000/svg" viewBox="0 0 45 46"><title>编组</title><g fill="none" fill-opacity=".1" fill-rule="evenodd"><path fill="#6dd400" stroke="#6dd400" d="M22.92 1.332c4.28 0 8.155 1.735 10.96 4.54a15.45 15.45 0 0 1 4.54 10.96v18.706h-31V16.832c0-4.28 1.735-8.155 4.54-10.96a15.45 15.45 0 0 1 10.96-4.54Z"/><path fill="#6dd400" stroke="#6dd400" d="M22.92 8.882c3.001 0 5.718 1.216 7.685 3.183a10.83 10.83 0 0 1 3.183 7.684v15.79H12.052v-15.79c0-3 1.217-5.718 3.183-7.684a10.83 10.83 0 0 1 7.685-3.183Z"/><path fill="#0091ff" stroke="#0091ff" d="M1.42 35.568h43v9h-43z"/></g></svg>