<svg xmlns="http://www.w3.org/2000/svg" viewBox="0 0 32 32"><title>untitled16</title><path d="M21.063 31.969H2.282a2.25 2.25 0 0 1-2.25-2.25V2.281a2.25 2.25 0 0 1 2.25-2.25h18.781a2.25 2.25 0 0 1 2.25 2.25v27.438a2.25 2.25 0 0 1-2.25 2.25M2.281 1.531a.75.75 0 0 0-.75.75v27.438c0 .413.337.75.75.75h18.781c.413 0 .75-.337.75-.75V2.281a.75.75 0 0 0-.75-.75zM31.2 22.722c-.15 0-.3-.044-.428-.134l-8.637-5.972a.75.75 0 0 1 0-1.232l8.637-5.972a.75.75 0 0 1 .775-.047.75.75 0 0 1 .403.666v11.944a.76.76 0 0 1-.403.666.8.8 0 0 1-.347.081M23.881 16l6.569 4.541V11.46l-6.569 4.541zm-8.95-9.891a1.626 1.626 0 0 0 3.25 0 1.626 1.626 0 0 0-3.25 0m3.25 22.157H5.162c-.416 0-.75-.334-.75-.75s.334-.75.75-.75h13.016c.416 0 .75.334.75.75s-.334.75-.747.75"/></svg>