<svg xmlns="http://www.w3.org/2000/svg" viewBox="0 0 37 38"><title>编组</title><g fill="none" fill-rule="evenodd" stroke="#6dd400" stroke-width=".5" transform="translate(.923 .156)"><path fill="#d8d8d8" d="m24.265 8.87 6.396 11.079-6.396 11.08H11.474l-6.398-11.08 6.397-11.078z"/><circle cx="17.869" cy="19.95" r="6.606"/><path fill="#6dd400" fill-opacity=".301" d="M13.118 11.522a7.08 7.08 0 0 0 4.751 1.821 7.08 7.08 0 0 0 4.75-1.82v7.81a4.74 4.74 0 0 1-1.391 3.36 4.74 4.74 0 0 1-3.359 1.39c-1.312 0-2.5-.531-3.359-1.39a4.74 4.74 0 0 1-1.391-3.36Z"/><circle cx="17.869" cy="6.856" r="6.606" fill="#6dd400" fill-opacity=".299"/></g></svg>