<svg xmlns="http://www.w3.org/2000/svg" viewBox="0 0 47 150"><title>3-D Mixer（3d混频器）</title><defs><linearGradient id="a" x1="0%" x2="100%" y1="50%" y2="50%"><stop offset="0%" stop-color="#b7b7b7"/><stop offset="3%" stop-color="#9b9d9d"/><stop offset="7%" stop-color="#878b8b"/><stop offset="9%" stop-color="#808484"/><stop offset="20%" stop-color="#a3a6a6"/><stop offset="49%" stop-color="#f6f6f6"/><stop offset="61%" stop-color="#f3f3f3"/><stop offset="70%" stop-color="#eaeaea"/><stop offset="77%" stop-color="#dbdbdb"/><stop offset="83%" stop-color="#c5c5c5"/><stop offset="90%" stop-color="#aaa"/><stop offset="95%" stop-color="#888"/><stop offset="100%" stop-color="#666"/></linearGradient><linearGradient id="b" x1="0%" x2="100%" y1="50%" y2="50%"><stop offset="0%" stop-color="#b7b7b7"/><stop offset="3%" stop-color="#9b9d9d"/><stop offset="7%" stop-color="#878b8b"/><stop offset="9%" stop-color="#808484"/><stop offset="20%" stop-color="#a3a6a6"/><stop offset="49%" stop-color="#f6f6f6"/><stop offset="61%" stop-color="#f3f3f3"/><stop offset="70%" stop-color="#eaeaea"/><stop offset="77%" stop-color="#dbdbdb"/><stop offset="83%" stop-color="#c5c5c5"/><stop offset="90%" stop-color="#aaa"/><stop offset="95%" stop-color="#888"/><stop offset="100%" stop-color="#666"/></linearGradient><linearGradient id="c" x1="0%" x2="100.085%" y1="49.969%" y2="49.969%"><stop offset="0%" stop-color="#b7b7b7"/><stop offset="3%" stop-color="#9b9d9d"/><stop offset="7%" stop-color="#878b8b"/><stop offset="9%" stop-color="#808484"/><stop offset="20%" stop-color="#a3a6a6"/><stop offset="49%" stop-color="#f6f6f6"/><stop offset="61%" stop-color="#f3f3f3"/><stop offset="70%" stop-color="#eaeaea"/><stop offset="77%" stop-color="#dbdbdb"/><stop offset="83%" stop-color="#c5c5c5"/><stop offset="90%" stop-color="#aaa"/><stop offset="95%" stop-color="#888"/><stop offset="100%" stop-color="#666"/></linearGradient><linearGradient id="d" x1="0%" x2="100%" y1="49.994%" y2="49.994%"><stop offset="0%" stop-color="#b7b7b7"/><stop offset="3%" stop-color="#9b9d9d"/><stop offset="7%" stop-color="#878b8b"/><stop offset="9%" stop-color="#808484"/><stop offset="20%" stop-color="#a3a6a6"/><stop offset="49%" stop-color="#f6f6f6"/><stop offset="61%" stop-color="#f3f3f3"/><stop offset="70%" stop-color="#eaeaea"/><stop offset="77%" stop-color="#dbdbdb"/><stop offset="83%" stop-color="#c5c5c5"/><stop offset="90%" stop-color="#aaa"/><stop offset="95%" stop-color="#888"/><stop offset="100%" stop-color="#666"/></linearGradient><linearGradient id="e" x1="0%" x2="100%" y1="50%" y2="50%"><stop offset="0%" stop-color="#b7b7b7"/><stop offset="3%" stop-color="#9b9d9d"/><stop offset="7%" stop-color="#878b8b"/><stop offset="9%" stop-color="#808484"/><stop offset="20%" stop-color="#a3a6a6"/><stop offset="49%" stop-color="#f6f6f6"/><stop offset="61%" stop-color="#f3f3f3"/><stop offset="70%" stop-color="#eaeaea"/><stop offset="77%" stop-color="#dbdbdb"/><stop offset="83%" stop-color="#c5c5c5"/><stop offset="90%" stop-color="#aaa"/><stop offset="95%" stop-color="#888"/><stop offset="100%" stop-color="#666"/></linearGradient><linearGradient id="f" x1="0%" x2="100%" y1="50%" y2="50%"><stop offset="0%" stop-color="#ccc"/><stop offset="3%" stop-color="#bbb"/><stop offset="6%" stop-color="#a7a7a7"/><stop offset="9%" stop-color="#a0a0a0"/><stop offset="10%" stop-color="#a3a3a3"/><stop offset="49%" stop-color="#f6f6f6"/><stop offset="62%" stop-color="#f3f3f3"/><stop offset="72%" stop-color="#eaeaea"/><stop offset="80%" stop-color="#dbdbdb"/><stop offset="87%" stop-color="#c5c5c5"/><stop offset="94%" stop-color="#aaa"/><stop offset="100%" stop-color="#898989"/></linearGradient><linearGradient id="g" x1="0%" x2="100.002%" y1="49.937%" y2="49.937%"><stop offset="0%" stop-color="#b7b7b7"/><stop offset="3%" stop-color="#9b9d9d"/><stop offset="7%" stop-color="#878b8b"/><stop offset="9%" stop-color="#808484"/><stop offset="20%" stop-color="#a3a6a6"/><stop offset="49%" stop-color="#f6f6f6"/><stop offset="61%" stop-color="#f3f3f3"/><stop offset="70%" stop-color="#eaeaea"/><stop offset="77%" stop-color="#dbdbdb"/><stop offset="83%" stop-color="#c5c5c5"/><stop offset="90%" stop-color="#aaa"/><stop offset="95%" stop-color="#888"/><stop offset="100%" stop-color="#666"/></linearGradient><linearGradient id="h" x1="99.95%" x2="-.002%" y1="49.937%" y2="49.937%"><stop offset="0%" stop-color="#b7b7b7"/><stop offset="3%" stop-color="#9b9d9d"/><stop offset="7%" stop-color="#878b8b"/><stop offset="9%" stop-color="#808484"/><stop offset="20%" stop-color="#a3a6a6"/><stop offset="49%" stop-color="#f6f6f6"/><stop offset="61%" stop-color="#f3f3f3"/><stop offset="70%" stop-color="#eaeaea"/><stop offset="77%" stop-color="#dbdbdb"/><stop offset="83%" stop-color="#c5c5c5"/><stop offset="90%" stop-color="#aaa"/><stop offset="95%" stop-color="#888"/><stop offset="100%" stop-color="#666"/></linearGradient><linearGradient id="i" x1="99.95%" x2="-.002%" y1="49.838%" y2="49.838%"><stop offset="0%" stop-color="#b7b7b7"/><stop offset="3%" stop-color="#9b9d9d"/><stop offset="7%" stop-color="#878b8b"/><stop offset="9%" stop-color="#808484"/><stop offset="20%" stop-color="#a3a6a6"/><stop offset="49%" stop-color="#f6f6f6"/><stop offset="61%" stop-color="#f3f3f3"/><stop offset="70%" stop-color="#eaeaea"/><stop offset="77%" stop-color="#dbdbdb"/><stop offset="83%" stop-color="#c5c5c5"/><stop offset="90%" stop-color="#aaa"/><stop offset="95%" stop-color="#888"/><stop offset="100%" stop-color="#666"/></linearGradient><linearGradient id="j" x1="100%" x2="-.002%" y1="49.869%" y2="49.869%"><stop offset="0%" stop-color="#b7b7b7"/><stop offset="3%" stop-color="#9b9d9d"/><stop offset="7%" stop-color="#878b8b"/><stop offset="9%" stop-color="#808484"/><stop offset="20%" stop-color="#a3a6a6"/><stop offset="49%" stop-color="#f6f6f6"/><stop offset="61%" stop-color="#f3f3f3"/><stop offset="70%" stop-color="#eaeaea"/><stop offset="77%" stop-color="#dbdbdb"/><stop offset="83%" stop-color="#c5c5c5"/><stop offset="90%" stop-color="#aaa"/><stop offset="95%" stop-color="#888"/><stop offset="100%" stop-color="#666"/></linearGradient><linearGradient id="k" x1="0%" x2="100.002%" y1="49.928%" y2="49.928%"><stop offset="0%" stop-color="#b7b7b7"/><stop offset="3%" stop-color="#9b9d9d"/><stop offset="7%" stop-color="#878b8b"/><stop offset="9%" stop-color="#808484"/><stop offset="20%" stop-color="#a3a6a6"/><stop offset="49%" stop-color="#f6f6f6"/><stop offset="61%" stop-color="#f3f3f3"/><stop offset="70%" stop-color="#eaeaea"/><stop offset="77%" stop-color="#dbdbdb"/><stop offset="83%" stop-color="#c5c5c5"/><stop offset="90%" stop-color="#aaa"/><stop offset="95%" stop-color="#888"/><stop offset="100%" stop-color="#666"/></linearGradient><linearGradient id="l" x1="0%" x2="100.002%" y1="49.868%" y2="49.868%"><stop offset="0%" stop-color="#b7b7b7"/><stop offset="3%" stop-color="#9b9d9d"/><stop offset="7%" stop-color="#878b8b"/><stop offset="9%" stop-color="#808484"/><stop offset="20%" stop-color="#a3a6a6"/><stop offset="49%" stop-color="#f6f6f6"/><stop offset="61%" stop-color="#f3f3f3"/><stop offset="70%" stop-color="#eaeaea"/><stop offset="77%" stop-color="#dbdbdb"/><stop offset="83%" stop-color="#c5c5c5"/><stop offset="90%" stop-color="#aaa"/><stop offset="95%" stop-color="#888"/><stop offset="100%" stop-color="#666"/></linearGradient><linearGradient id="m" x1="0%" x2="100%" y1="50.031%" y2="50.031%"><stop offset="0%" stop-color="#b7b7b7"/><stop offset="3%" stop-color="#9b9d9d"/><stop offset="7%" stop-color="#878b8b"/><stop offset="9%" stop-color="#808484"/><stop offset="20%" stop-color="#a3a6a6"/><stop offset="49%" stop-color="#f6f6f6"/><stop offset="61%" stop-color="#f3f3f3"/><stop offset="70%" stop-color="#eaeaea"/><stop offset="77%" stop-color="#dbdbdb"/><stop offset="83%" stop-color="#c5c5c5"/><stop offset="90%" stop-color="#aaa"/><stop offset="95%" stop-color="#888"/><stop offset="100%" stop-color="#666"/></linearGradient><linearGradient id="n" x1="0%" x2="100%" y1="49.954%" y2="49.954%"><stop offset="0%" stop-color="#b7b7b7"/><stop offset="3%" stop-color="#9b9d9d"/><stop offset="7%" stop-color="#878b8b"/><stop offset="9%" stop-color="#808484"/><stop offset="20%" stop-color="#a3a6a6"/><stop offset="49%" stop-color="#f6f6f6"/><stop offset="61%" stop-color="#f3f3f3"/><stop offset="70%" stop-color="#eaeaea"/><stop offset="77%" stop-color="#dbdbdb"/><stop offset="83%" stop-color="#c5c5c5"/><stop offset="90%" stop-color="#aaa"/><stop offset="95%" stop-color="#888"/><stop offset="100%" stop-color="#666"/></linearGradient></defs><g fill="none" fill-rule="nonzero"><path fill="url(#a)" d="M13.48 0h16.08v4.76H13.48z" transform="translate(.613 .001)"/><path fill="url(#b)" d="M9.52 4.76h23.9v23.22H9.52z" transform="translate(.613 .001)"/><path fill="url(#c)" d="M15.44 33.87h11.74v16.31H15.44z" transform="translate(.613 .001)"/><path fill="url(#d)" d="M17.41 50.18h8.04v89.71h-8.04z" transform="translate(.613 .001)"/><path fill="url(#e)" d="M7.82 30.13h27.52v3.74H7.82z" transform="translate(.613 .001)"/><path fill="url(#f)" d="M9.52 26.39h23.9v3.74H9.52z" transform="translate(.613 .001)"/><path fill="url(#g)" d="M26.2 72.61v5.56c4.93 2.72 11.79 3.26 15.54 2.06 2.12-.68 4.83-2.87 4.29-5.6a4.3 4.3 0 0 0-3.83-3.36 24.3 24.3 0 0 0-5.1.38c-2.69.49-6.39 1.54-10.9 1z" transform="translate(.613 .001)"/><path fill="url(#h)" d="M20.28 72.61v5.56c-4.89 2.72-11.79 3.26-15.54 2.06-2.12-.68-4.83-2.87-4.29-5.6a4.3 4.3 0 0 1 3.83-3.36 24.3 24.3 0 0 1 5.1.38c2.69.49 6.39 1.54 10.9 1z" transform="translate(.613 .001)"/><path fill="url(#i)" d="M20.28 106.48V112c-4.89 2.76-11.79 3.3-15.54 2.1-2.12-.69-4.83-2.87-4.29-5.6a4.3 4.3 0 0 1 3.83-3.36 25 25 0 0 1 5.1.37c2.69.5 6.39 1.54 10.9 1z" transform="translate(.613 .001)"/><path fill="url(#j)" d="M19.9 140.5v5.56c-4.93 2.71-11.79 3.26-15.54 2.05-2.12-.68-4.83-2.86-4.29-5.59a4.3 4.3 0 0 1 3.83-3.36 24.2 24.2 0 0 1 5.1.37c2.69.5 6.39 1.54 10.9 1z" transform="translate(.613 .001)"/><path fill="url(#k)" d="M26.2 106.75v5.55c4.93 2.72 11.79 3.26 15.54 2.06 2.12-.68 4.83-2.87 4.29-5.6a4.32 4.32 0 0 0-3.83-3.36 25 25 0 0 0-5.1.38c-2.69.5-6.39 1.54-10.9 1z" transform="translate(.613 .001)"/><path fill="url(#l)" d="M26.2 141.14v5.56c4.93 2.71 11.79 3.26 15.54 2.05 2.12-.68 4.83-2.86 4.29-5.59a4.3 4.3 0 0 0-3.83-3.36 24.3 24.3 0 0 0-5.1.37c-2.69.5-6.39 1.54-10.9 1z" transform="translate(.613 .001)"/><path fill="url(#m)" d="M16.5 64.9h9.7v16.31h-9.7z" transform="translate(.613 .001)"/><path fill="url(#n)" d="M16.58 104.47h9.7v10.87h-9.7z" transform="translate(.613 .001)"/><path fill="url(#n)" d="M16.58 139.13h9.7V150h-9.7z" transform="translate(.613 .001)"/></g></svg>