<svg xmlns="http://www.w3.org/2000/svg" viewBox="0 0 150 150"><title>Impeller（叶轮）</title><defs><linearGradient id="a" x1="100.047%" x2="0%" y1="49.975%" y2="49.975%"><stop offset="0%" stop-color="#b7b7b7"/><stop offset="3%" stop-color="#9b9d9d"/><stop offset="7%" stop-color="#878b8b"/><stop offset="9%" stop-color="#808484"/><stop offset="20%" stop-color="#a3a6a6"/><stop offset="49%" stop-color="#f6f6f6"/><stop offset="61%" stop-color="#f3f3f3"/><stop offset="70%" stop-color="#eaeaea"/><stop offset="77%" stop-color="#dbdbdb"/><stop offset="83%" stop-color="#c5c5c5"/><stop offset="90%" stop-color="#aaa"/><stop offset="95%" stop-color="#888"/><stop offset="100%" stop-color="#666"/></linearGradient><linearGradient id="b" x1="-.02%" x2="100%" y1="49.988%" y2="49.988%"><stop offset="0%" stop-color="#b7b7b7"/><stop offset="3%" stop-color="#9b9d9d"/><stop offset="7%" stop-color="#878b8b"/><stop offset="9%" stop-color="#808484"/><stop offset="20%" stop-color="#a3a6a6"/><stop offset="49%" stop-color="#f6f6f6"/><stop offset="61%" stop-color="#f3f3f3"/><stop offset="70%" stop-color="#eaeaea"/><stop offset="77%" stop-color="#dbdbdb"/><stop offset="83%" stop-color="#c5c5c5"/><stop offset="90%" stop-color="#aaa"/><stop offset="95%" stop-color="#888"/><stop offset="100%" stop-color="#666"/></linearGradient><linearGradient id="c" x1=".111%" x2="100.06%" y1="49.965%" y2="49.965%"><stop offset="0%" stop-color="#b7b7b7"/><stop offset="3%" stop-color="#9b9d9d"/><stop offset="7%" stop-color="#878b8b"/><stop offset="9%" stop-color="#808484"/><stop offset="20%" stop-color="#a3a6a6"/><stop offset="49%" stop-color="#f6f6f6"/><stop offset="61%" stop-color="#f3f3f3"/><stop offset="70%" stop-color="#eaeaea"/><stop offset="77%" stop-color="#dbdbdb"/><stop offset="83%" stop-color="#c5c5c5"/><stop offset="90%" stop-color="#aaa"/><stop offset="95%" stop-color="#888"/><stop offset="100%" stop-color="#666"/></linearGradient><linearGradient id="d" x1="0%" x2="100%" y1="50.02%" y2="50.02%"><stop offset="0%" stop-color="#b7b7b7"/><stop offset="3%" stop-color="#9b9d9d"/><stop offset="7%" stop-color="#878b8b"/><stop offset="9%" stop-color="#808484"/><stop offset="20%" stop-color="#a3a6a6"/><stop offset="49%" stop-color="#f6f6f6"/><stop offset="61%" stop-color="#f3f3f3"/><stop offset="70%" stop-color="#eaeaea"/><stop offset="77%" stop-color="#dbdbdb"/><stop offset="83%" stop-color="#c5c5c5"/><stop offset="90%" stop-color="#aaa"/><stop offset="95%" stop-color="#888"/><stop offset="100%" stop-color="#666"/></linearGradient><linearGradient id="e" x1="0%" x2="100%" y1="49.977%" y2="49.977%"><stop offset="0%" stop-color="#b7b7b7"/><stop offset="3%" stop-color="#9b9d9d"/><stop offset="7%" stop-color="#878b8b"/><stop offset="9%" stop-color="#808484"/><stop offset="20%" stop-color="#a3a6a6"/><stop offset="49%" stop-color="#f6f6f6"/><stop offset="61%" stop-color="#f3f3f3"/><stop offset="70%" stop-color="#eaeaea"/><stop offset="77%" stop-color="#dbdbdb"/><stop offset="83%" stop-color="#c5c5c5"/><stop offset="90%" stop-color="#aaa"/><stop offset="95%" stop-color="#888"/><stop offset="100%" stop-color="#666"/></linearGradient><linearGradient id="f" x1="0%" x2="100%" y1="49.902%" y2="49.902%"><stop offset="0%" stop-color="#b7b7b7"/><stop offset="3%" stop-color="#9b9d9d"/><stop offset="7%" stop-color="#878b8b"/><stop offset="9%" stop-color="#808484"/><stop offset="20%" stop-color="#a3a6a6"/><stop offset="49%" stop-color="#f6f6f6"/><stop offset="61%" stop-color="#f3f3f3"/><stop offset="70%" stop-color="#eaeaea"/><stop offset="77%" stop-color="#dbdbdb"/><stop offset="83%" stop-color="#c5c5c5"/><stop offset="90%" stop-color="#aaa"/><stop offset="95%" stop-color="#888"/><stop offset="100%" stop-color="#666"/></linearGradient><linearGradient id="g" x1="0%" x2="99.977%" y1="50.014%" y2="50.014%"><stop offset="0%" stop-color="#b7b7b7"/><stop offset="3%" stop-color="#9b9d9d"/><stop offset="7%" stop-color="#878b8b"/><stop offset="9%" stop-color="#808484"/><stop offset="20%" stop-color="#a3a6a6"/><stop offset="49%" stop-color="#f6f6f6"/><stop offset="61%" stop-color="#f3f3f3"/><stop offset="70%" stop-color="#eaeaea"/><stop offset="77%" stop-color="#dbdbdb"/><stop offset="83%" stop-color="#c5c5c5"/><stop offset="90%" stop-color="#aaa"/><stop offset="95%" stop-color="#888"/><stop offset="100%" stop-color="#666"/></linearGradient><linearGradient id="h" x1="0%" x2="100%" y1="50.011%" y2="50.011%"><stop offset="0%" stop-color="#b7b7b7"/><stop offset="3%" stop-color="#9b9d9d"/><stop offset="7%" stop-color="#878b8b"/><stop offset="9%" stop-color="#808484"/><stop offset="20%" stop-color="#a3a6a6"/><stop offset="49%" stop-color="#f6f6f6"/><stop offset="61%" stop-color="#f3f3f3"/><stop offset="70%" stop-color="#eaeaea"/><stop offset="77%" stop-color="#dbdbdb"/><stop offset="83%" stop-color="#c5c5c5"/><stop offset="90%" stop-color="#aaa"/><stop offset="95%" stop-color="#888"/><stop offset="100%" stop-color="#666"/></linearGradient><linearGradient id="i" x1="0%" x2="99.948%" y1="50%" y2="50%"><stop offset="0%" stop-color="#b7b7b7"/><stop offset="3%" stop-color="#9b9d9d"/><stop offset="7%" stop-color="#878b8b"/><stop offset="9%" stop-color="#808484"/><stop offset="20%" stop-color="#a3a6a6"/><stop offset="49%" stop-color="#f6f6f6"/><stop offset="61%" stop-color="#f3f3f3"/><stop offset="70%" stop-color="#eaeaea"/><stop offset="77%" stop-color="#dbdbdb"/><stop offset="83%" stop-color="#c5c5c5"/><stop offset="90%" stop-color="#aaa"/><stop offset="95%" stop-color="#888"/><stop offset="100%" stop-color="#666"/></linearGradient><linearGradient id="j" x1="0%" x2="99.988%" y1="50%" y2="50%"><stop offset="0%" stop-color="#b7b7b7"/><stop offset="3%" stop-color="#9b9d9d"/><stop offset="7%" stop-color="#878b8b"/><stop offset="9%" stop-color="#808484"/><stop offset="20%" stop-color="#a3a6a6"/><stop offset="49%" stop-color="#f6f6f6"/><stop offset="61%" stop-color="#f3f3f3"/><stop offset="70%" stop-color="#eaeaea"/><stop offset="77%" stop-color="#dbdbdb"/><stop offset="83%" stop-color="#c5c5c5"/><stop offset="90%" stop-color="#aaa"/><stop offset="95%" stop-color="#888"/><stop offset="100%" stop-color="#666"/></linearGradient><linearGradient id="k" x1="50%" x2="50%" y1="100%" y2="0%"><stop offset="0%" stop-color="#b7b7b7"/><stop offset="1%" stop-color="#bababa"/><stop offset="8%" stop-color="#dbdbdb"/><stop offset="13%" stop-color="#efefef"/><stop offset="17%" stop-color="#f6f6f6"/><stop offset="37%" stop-color="#f3f3f3"/><stop offset="51%" stop-color="#eaeaea"/><stop offset="63%" stop-color="#dbdbdb"/><stop offset="73%" stop-color="#c5c5c5"/><stop offset="83%" stop-color="#aaa"/><stop offset="92%" stop-color="#888"/><stop offset="100%" stop-color="#666"/></linearGradient><linearGradient id="l" x1="0%" x2="100%" y1="50.16%" y2="50.16%"><stop offset="0%" stop-color="#b7b7b7"/><stop offset="3%" stop-color="#9b9d9d"/><stop offset="7%" stop-color="#878b8b"/><stop offset="9%" stop-color="#808484"/><stop offset="20%" stop-color="#a3a6a6"/><stop offset="49%" stop-color="#f6f6f6"/><stop offset="61%" stop-color="#f3f3f3"/><stop offset="70%" stop-color="#eaeaea"/><stop offset="77%" stop-color="#dbdbdb"/><stop offset="83%" stop-color="#c5c5c5"/><stop offset="90%" stop-color="#aaa"/><stop offset="95%" stop-color="#888"/><stop offset="100%" stop-color="#666"/></linearGradient><linearGradient id="m" x1="0%" x2="100%" y1="50.072%" y2="50.072%"><stop offset="0%" stop-color="#ccc"/><stop offset="3%" stop-color="#bbb"/><stop offset="6%" stop-color="#a7a7a7"/><stop offset="9%" stop-color="#a0a0a0"/><stop offset="10%" stop-color="#a3a3a3"/><stop offset="49%" stop-color="#f6f6f6"/><stop offset="62%" stop-color="#f3f3f3"/><stop offset="72%" stop-color="#eaeaea"/><stop offset="80%" stop-color="#dbdbdb"/><stop offset="87%" stop-color="#c5c5c5"/><stop offset="94%" stop-color="#aaa"/><stop offset="100%" stop-color="#898989"/></linearGradient><linearGradient id="n" x1="-11.78%" x2="104.458%" y1="56.23%" y2="44.612%"><stop offset="0%" stop-color="#b7b7b7"/><stop offset="3%" stop-color="#9b9d9d"/><stop offset="7%" stop-color="#878b8b"/><stop offset="9%" stop-color="#808484"/><stop offset="20%" stop-color="#a3a6a6"/><stop offset="49%" stop-color="#f6f6f6"/><stop offset="61%" stop-color="#f3f3f3"/><stop offset="70%" stop-color="#eaeaea"/><stop offset="77%" stop-color="#dbdbdb"/><stop offset="83%" stop-color="#c5c5c5"/><stop offset="90%" stop-color="#aaa"/><stop offset="95%" stop-color="#888"/><stop offset="100%" stop-color="#666"/></linearGradient><linearGradient id="o" x1="60.335%" x2="39.691%" y1="49.919%" y2="50.076%"><stop offset="0%" stop-color="#ccc"/><stop offset="3%" stop-color="#bbb"/><stop offset="6%" stop-color="#a7a7a7"/><stop offset="9%" stop-color="#a0a0a0"/><stop offset="10%" stop-color="#a3a3a3"/><stop offset="49%" stop-color="#f6f6f6"/><stop offset="62%" stop-color="#f3f3f3"/><stop offset="72%" stop-color="#eaeaea"/><stop offset="80%" stop-color="#dbdbdb"/><stop offset="87%" stop-color="#c5c5c5"/><stop offset="94%" stop-color="#aaa"/><stop offset="100%" stop-color="#898989"/></linearGradient><linearGradient id="p" x1="-9.59%" x2="140.715%" y1="47.995%" y2="52.314%"><stop offset="9%" stop-color="#808484"/><stop offset="22%" stop-color="#a3a6a6"/><stop offset="54%" stop-color="#f6f6f6"/><stop offset="61%" stop-color="#f3f3f3"/><stop offset="66%" stop-color="#eaeaea"/><stop offset="70%" stop-color="#dbdbdb"/><stop offset="73%" stop-color="#c5c5c5"/><stop offset="76%" stop-color="#aaa"/><stop offset="79%" stop-color="#888"/><stop offset="82%" stop-color="#666"/></linearGradient><linearGradient id="q" x1="62.652%" x2="35.69%" y1="49.741%" y2="50.017%"><stop offset="0%" stop-color="#ccc"/><stop offset="3%" stop-color="#bbb"/><stop offset="6%" stop-color="#a7a7a7"/><stop offset="9%" stop-color="#a0a0a0"/><stop offset="10%" stop-color="#a3a3a3"/><stop offset="49%" stop-color="#f6f6f6"/><stop offset="62%" stop-color="#f3f3f3"/><stop offset="72%" stop-color="#eaeaea"/><stop offset="80%" stop-color="#dbdbdb"/><stop offset="87%" stop-color="#c5c5c5"/><stop offset="94%" stop-color="#aaa"/><stop offset="100%" stop-color="#898989"/></linearGradient><linearGradient id="r" x1="100.346%" x2="-.291%" y1="49.69%" y2="50.235%"><stop offset="0%" stop-color="#b7b7b7"/><stop offset="3%" stop-color="#9b9d9d"/><stop offset="7%" stop-color="#878b8b"/><stop offset="9%" stop-color="#808484"/><stop offset="20%" stop-color="#a3a6a6"/><stop offset="49%" stop-color="#f6f6f6"/><stop offset="61%" stop-color="#f3f3f3"/><stop offset="70%" stop-color="#eaeaea"/><stop offset="77%" stop-color="#dbdbdb"/><stop offset="83%" stop-color="#c5c5c5"/><stop offset="90%" stop-color="#aaa"/><stop offset="95%" stop-color="#888"/><stop offset="100%" stop-color="#666"/></linearGradient><linearGradient id="s" x1="60.377%" x2="39.597%" y1="49.86%" y2="50.108%"><stop offset="0%" stop-color="#ccc"/><stop offset="3%" stop-color="#bbb"/><stop offset="6%" stop-color="#a7a7a7"/><stop offset="9%" stop-color="#a0a0a0"/><stop offset="10%" stop-color="#a3a3a3"/><stop offset="49%" stop-color="#f6f6f6"/><stop offset="62%" stop-color="#f3f3f3"/><stop offset="72%" stop-color="#eaeaea"/><stop offset="80%" stop-color="#dbdbdb"/><stop offset="87%" stop-color="#c5c5c5"/><stop offset="94%" stop-color="#aaa"/><stop offset="100%" stop-color="#898989"/></linearGradient><linearGradient id="t" x1="-.227%" x2="100.385%" y1="50.666%" y2="49.776%"><stop offset="0%" stop-color="#b7b7b7"/><stop offset="3%" stop-color="#9b9d9d"/><stop offset="7%" stop-color="#878b8b"/><stop offset="9%" stop-color="#808484"/><stop offset="20%" stop-color="#a3a6a6"/><stop offset="49%" stop-color="#f6f6f6"/><stop offset="61%" stop-color="#f3f3f3"/><stop offset="70%" stop-color="#eaeaea"/><stop offset="77%" stop-color="#dbdbdb"/><stop offset="83%" stop-color="#c5c5c5"/><stop offset="90%" stop-color="#aaa"/><stop offset="95%" stop-color="#888"/><stop offset="100%" stop-color="#666"/></linearGradient><linearGradient id="u" x1="60.436%" x2="39.556%" y1="49.805%" y2="50.179%"><stop offset="0%" stop-color="#ccc"/><stop offset="3%" stop-color="#bbb"/><stop offset="6%" stop-color="#a7a7a7"/><stop offset="9%" stop-color="#a0a0a0"/><stop offset="10%" stop-color="#a3a3a3"/><stop offset="49%" stop-color="#f6f6f6"/><stop offset="62%" stop-color="#f3f3f3"/><stop offset="72%" stop-color="#eaeaea"/><stop offset="80%" stop-color="#dbdbdb"/><stop offset="87%" stop-color="#c5c5c5"/><stop offset="94%" stop-color="#aaa"/><stop offset="100%" stop-color="#898989"/></linearGradient><linearGradient id="v" x1="-.507%" x2="100.54%" y1="50.273%" y2="49.427%"><stop offset="0%" stop-color="#b7b7b7"/><stop offset="3%" stop-color="#9b9d9d"/><stop offset="7%" stop-color="#878b8b"/><stop offset="9%" stop-color="#808484"/><stop offset="20%" stop-color="#a3a6a6"/><stop offset="49%" stop-color="#f6f6f6"/><stop offset="61%" stop-color="#f3f3f3"/><stop offset="70%" stop-color="#eaeaea"/><stop offset="77%" stop-color="#dbdbdb"/><stop offset="83%" stop-color="#c5c5c5"/><stop offset="90%" stop-color="#aaa"/><stop offset="95%" stop-color="#888"/><stop offset="100%" stop-color="#666"/></linearGradient><linearGradient id="w" x1="60.517%" x2="39.605%" y1="49.827%" y2="50.319%"><stop offset="0%" stop-color="#ccc"/><stop offset="3%" stop-color="#bbb"/><stop offset="6%" stop-color="#a7a7a7"/><stop offset="9%" stop-color="#a0a0a0"/><stop offset="10%" stop-color="#a3a3a3"/><stop offset="49%" stop-color="#f6f6f6"/><stop offset="62%" stop-color="#f3f3f3"/><stop offset="72%" stop-color="#eaeaea"/><stop offset="80%" stop-color="#dbdbdb"/><stop offset="87%" stop-color="#c5c5c5"/><stop offset="94%" stop-color="#aaa"/><stop offset="100%" stop-color="#898989"/></linearGradient><linearGradient id="x" x1="100.096%" x2="-1.176%" y1="49.626%" y2="50.722%"><stop offset="0%" stop-color="#b7b7b7"/><stop offset="3%" stop-color="#9b9d9d"/><stop offset="7%" stop-color="#878b8b"/><stop offset="9%" stop-color="#808484"/><stop offset="20%" stop-color="#a3a6a6"/><stop offset="49%" stop-color="#f6f6f6"/><stop offset="61%" stop-color="#f3f3f3"/><stop offset="70%" stop-color="#eaeaea"/><stop offset="77%" stop-color="#dbdbdb"/><stop offset="83%" stop-color="#c5c5c5"/><stop offset="90%" stop-color="#aaa"/><stop offset="95%" stop-color="#888"/><stop offset="100%" stop-color="#666"/></linearGradient><linearGradient id="y" x1="60.504%" x2="39.463%" y1="49.831%" y2="50.334%"><stop offset="0%" stop-color="#ccc"/><stop offset="3%" stop-color="#bbb"/><stop offset="6%" stop-color="#a7a7a7"/><stop offset="9%" stop-color="#a0a0a0"/><stop offset="10%" stop-color="#a3a3a3"/><stop offset="49%" stop-color="#f6f6f6"/><stop offset="62%" stop-color="#f3f3f3"/><stop offset="72%" stop-color="#eaeaea"/><stop offset="80%" stop-color="#dbdbdb"/><stop offset="87%" stop-color="#c5c5c5"/><stop offset="94%" stop-color="#aaa"/><stop offset="100%" stop-color="#898989"/></linearGradient><linearGradient id="z" x1="-9.052%" x2="108.734%" y1="35.143%" y2="65.122%"><stop offset="0%" stop-color="#b7b7b7"/><stop offset="3%" stop-color="#9b9d9d"/><stop offset="7%" stop-color="#878b8b"/><stop offset="9%" stop-color="#808484"/><stop offset="20%" stop-color="#a3a6a6"/><stop offset="49%" stop-color="#f6f6f6"/><stop offset="61%" stop-color="#f3f3f3"/><stop offset="70%" stop-color="#eaeaea"/><stop offset="77%" stop-color="#dbdbdb"/><stop offset="83%" stop-color="#c5c5c5"/><stop offset="90%" stop-color="#aaa"/><stop offset="95%" stop-color="#888"/><stop offset="100%" stop-color="#666"/></linearGradient><linearGradient id="A" x1="60.574%" x2="39.516%" y1="49.858%" y2="50.38%"><stop offset="0%" stop-color="#ccc"/><stop offset="3%" stop-color="#bbb"/><stop offset="6%" stop-color="#a7a7a7"/><stop offset="9%" stop-color="#a0a0a0"/><stop offset="10%" stop-color="#a3a3a3"/><stop offset="49%" stop-color="#f6f6f6"/><stop offset="62%" stop-color="#f3f3f3"/><stop offset="72%" stop-color="#eaeaea"/><stop offset="80%" stop-color="#dbdbdb"/><stop offset="87%" stop-color="#c5c5c5"/><stop offset="94%" stop-color="#aaa"/><stop offset="100%" stop-color="#898989"/></linearGradient><linearGradient id="B" x1="-8.91%" x2="109.008%" y1="85.281%" y2="15.005%"><stop offset="0%" stop-color="#b7b7b7"/><stop offset="3%" stop-color="#9b9d9d"/><stop offset="7%" stop-color="#878b8b"/><stop offset="9%" stop-color="#808484"/><stop offset="20%" stop-color="#a3a6a6"/><stop offset="49%" stop-color="#f6f6f6"/><stop offset="61%" stop-color="#f3f3f3"/><stop offset="70%" stop-color="#eaeaea"/><stop offset="77%" stop-color="#dbdbdb"/><stop offset="83%" stop-color="#c5c5c5"/><stop offset="90%" stop-color="#aaa"/><stop offset="95%" stop-color="#888"/><stop offset="100%" stop-color="#666"/></linearGradient><linearGradient id="C" x1="60.574%" x2="39.404%" y1="49.78%" y2="50.366%"><stop offset="0%" stop-color="#ccc"/><stop offset="3%" stop-color="#bbb"/><stop offset="6%" stop-color="#a7a7a7"/><stop offset="9%" stop-color="#a0a0a0"/><stop offset="10%" stop-color="#a3a3a3"/><stop offset="49%" stop-color="#f6f6f6"/><stop offset="62%" stop-color="#f3f3f3"/><stop offset="72%" stop-color="#eaeaea"/><stop offset="80%" stop-color="#dbdbdb"/><stop offset="87%" stop-color="#c5c5c5"/><stop offset="94%" stop-color="#aaa"/><stop offset="100%" stop-color="#898989"/></linearGradient><linearGradient id="D" x1="-.514%" x2="101.07%" y1="50.732%" y2="49.101%"><stop offset="0%" stop-color="#b7b7b7"/><stop offset="3%" stop-color="#9b9d9d"/><stop offset="7%" stop-color="#878b8b"/><stop offset="9%" stop-color="#808484"/><stop offset="20%" stop-color="#a3a6a6"/><stop offset="49%" stop-color="#f6f6f6"/><stop offset="61%" stop-color="#f3f3f3"/><stop offset="70%" stop-color="#eaeaea"/><stop offset="77%" stop-color="#dbdbdb"/><stop offset="83%" stop-color="#c5c5c5"/><stop offset="90%" stop-color="#aaa"/><stop offset="95%" stop-color="#888"/><stop offset="100%" stop-color="#666"/></linearGradient><linearGradient id="E" x1="60.614%" x2="39.312%" y1="49.45%" y2="50.206%"><stop offset="0%" stop-color="#ccc"/><stop offset="3%" stop-color="#bbb"/><stop offset="6%" stop-color="#a7a7a7"/><stop offset="9%" stop-color="#a0a0a0"/><stop offset="10%" stop-color="#a3a3a3"/><stop offset="49%" stop-color="#f6f6f6"/><stop offset="62%" stop-color="#f3f3f3"/><stop offset="72%" stop-color="#eaeaea"/><stop offset="80%" stop-color="#dbdbdb"/><stop offset="87%" stop-color="#c5c5c5"/><stop offset="94%" stop-color="#aaa"/><stop offset="100%" stop-color="#898989"/></linearGradient><linearGradient id="F" x1="101.207%" x2="-.54%" y1="48.968%" y2="50.894%"><stop offset="0%" stop-color="#b7b7b7"/><stop offset="3%" stop-color="#9b9d9d"/><stop offset="7%" stop-color="#878b8b"/><stop offset="9%" stop-color="#808484"/><stop offset="20%" stop-color="#a3a6a6"/><stop offset="49%" stop-color="#f6f6f6"/><stop offset="61%" stop-color="#f3f3f3"/><stop offset="70%" stop-color="#eaeaea"/><stop offset="77%" stop-color="#dbdbdb"/><stop offset="83%" stop-color="#c5c5c5"/><stop offset="90%" stop-color="#aaa"/><stop offset="95%" stop-color="#888"/><stop offset="100%" stop-color="#666"/></linearGradient><linearGradient id="G" x1="60.693%" x2="39.344%" y1="49.677%" y2="50.501%"><stop offset="0%" stop-color="#ccc"/><stop offset="3%" stop-color="#bbb"/><stop offset="6%" stop-color="#a7a7a7"/><stop offset="9%" stop-color="#a0a0a0"/><stop offset="10%" stop-color="#a3a3a3"/><stop offset="49%" stop-color="#f6f6f6"/><stop offset="62%" stop-color="#f3f3f3"/><stop offset="72%" stop-color="#eaeaea"/><stop offset="80%" stop-color="#dbdbdb"/><stop offset="87%" stop-color="#c5c5c5"/><stop offset="94%" stop-color="#aaa"/><stop offset="100%" stop-color="#898989"/></linearGradient><linearGradient id="H" x1="109.732%" x2="-9.194%" y1="32.802%" y2="67.196%"><stop offset="0%" stop-color="#b7b7b7"/><stop offset="3%" stop-color="#9b9d9d"/><stop offset="7%" stop-color="#878b8b"/><stop offset="9%" stop-color="#808484"/><stop offset="20%" stop-color="#a3a6a6"/><stop offset="49%" stop-color="#f6f6f6"/><stop offset="61%" stop-color="#f3f3f3"/><stop offset="70%" stop-color="#eaeaea"/><stop offset="77%" stop-color="#dbdbdb"/><stop offset="83%" stop-color="#c5c5c5"/><stop offset="90%" stop-color="#aaa"/><stop offset="95%" stop-color="#888"/><stop offset="100%" stop-color="#666"/></linearGradient><linearGradient id="I" x1="60.703%" x2="39.266%" y1="49.553%" y2="50.562%"><stop offset="0%" stop-color="#ccc"/><stop offset="3%" stop-color="#bbb"/><stop offset="6%" stop-color="#a7a7a7"/><stop offset="9%" stop-color="#a0a0a0"/><stop offset="10%" stop-color="#a3a3a3"/><stop offset="49%" stop-color="#f6f6f6"/><stop offset="62%" stop-color="#f3f3f3"/><stop offset="72%" stop-color="#eaeaea"/><stop offset="80%" stop-color="#dbdbdb"/><stop offset="87%" stop-color="#c5c5c5"/><stop offset="94%" stop-color="#aaa"/><stop offset="100%" stop-color="#898989"/></linearGradient></defs><g fill="none" fill-rule="nonzero" transform="translate(.003)"><path fill="url(#a)" d="m68.53.471 5.39-.37a55 55 0 0 1 27 5.25l5.12 2.44-9.19 11.81a50.9 50.9 0 0 0-8.85 17.4l-24.47-3.67a4.9 4.9 0 0 0 1.82-2.1c1-2.63.33-8.62.76-19.28A42.6 42.6 0 0 1 68.53.471"/><path fill="url(#b)" d="m117.91 13.941 4.37 3.17a55.06 55.06 0 0 1 17.36 21.37l2.36 5.16-14.65 3.14a50.8 50.8 0 0 0-17.91 7.67L93 35.921a4.87 4.87 0 0 0 2.74-.44c2.41-1.41 5.79-6.4 13-14.29a42.7 42.7 0 0 1 9.17-7.25"/><path fill="url(#c)" d="m147.13 56.001 1.32 5.24a54.94 54.94 0 0 1-.45 27.48l-1.5 5.47-13.24-7a51 51 0 0 0-18.66-5.62l-.73-24.76a4.9 4.9 0 0 0 2.38 1.42c2.76.47 8.55-1.19 19.12-2.64a42.2 42.2 0 0 1 11.76.41"/><path fill="url(#d)" d="m142.57 106.931-2.35 4.87a55 55 0 0 1-18 20.84l-4.66 3.23-5.65-13.87a50.9 50.9 0 0 0-10.7-16.28l15.34-19.45a4.8 4.8 0 0 0 .91 2.61c1.81 2.13 7.32 4.57 16.35 10.24a42.6 42.6 0 0 1 8.76 7.81"/><path fill="url(#e)" d="m106.36 143.101-4.93 2.22a54.9 54.9 0 0 1-27.16 4.44l-5.65-.51 4.54-14.25a50.7 50.7 0 0 0 2.25-19.35l24.25-5.08a4.9 4.9 0 0 0-1 2.59c0 2.8 2.68 8.21 6 18.35a42.6 42.6 0 0 1 1.7 11.59"/><path fill="url(#f)" d="m55.38 147.591-5.21-1.46a55 55 0 0 1-23.68-14l-4-4 12.64-8a50.7 50.7 0 0 0 14.15-13.4l21.85 11.67a4.93 4.93 0 0 0-2.42 1.36c-1.77 2.16-3.21 8-7.19 17.9a42.7 42.7 0 0 1-6.14 9.93"/><path fill="url(#g)" d="m13.4 118.311-3.05-4.46a54.9 54.9 0 0 1-9.16-26l-.49-5.61 14.84 2A50.8 50.8 0 0 0 35 83.001l9.27 23a4.84 4.84 0 0 0-2.73-.5c-2.75.51-7.6 4.08-17 9.1a42.3 42.3 0 0 1-11.14 3.71"/><path fill="url(#h)" d="m0 68.911.52-5.37a55 55 0 0 1 9.64-25.79l3.25-4.65 10.12 11a50.9 50.9 0 0 0 15.69 11.6l-7.64 23.57a4.87 4.87 0 0 0-1.77-2.14c-2.44-1.37-8.45-1.75-18.89-3.93A42.8 42.8 0 0 1 0 68.911"/><path fill="url(#i)" d="m21.43 22.441 3.85-3.79a55 55 0 0 1 23.94-13.59l5.48-1.48.68 15A50.8 50.8 0 0 0 60 37.471l-21 13.17a4.85 4.85 0 0 0 0-2.77c-1-2.61-5.36-6.76-12-15.14a42.4 42.4 0 0 1-5.57-10.29"/><circle cx="74.69" cy="75.171" r="42.93" fill="url(#j)"/><circle cx="74.69" cy="75.171" r="39.26" fill="#5b5b5b"/><circle cx="74.69" cy="75.171" r="6.49" fill="url(#k)"/><circle cx="74.69" cy="75.171" r="2.36" fill="#b0b0b1"/><path fill="url(#l)" d="M73.12 35.911h3.13v3.13h-3.13z"/><path fill="url(#m)" d="M73.12 39.041h3.13v6.91h-3.13z"/><path fill="url(#n)" d="M92.032 41h3.13v3.13h-3.13z" transform="rotate(30.1 93.597 42.565)"/><path fill="url(#o)" d="M90.022 43.529h3.141v6.934h-3.141z" transform="rotate(29.887 91.593 46.996)"/><path fill="url(#p)" d="M105.815 54.872h3.13v3.13h-3.13z" transform="rotate(60.21 107.38 56.437)"/><path fill="url(#q)" d="M101.468 55.476h3.13v6.91h-3.13z" transform="rotate(60.21 103.033 58.93)"/><path fill="url(#r)" d="M110.813 73.802h3.13v3.13h-3.13z" transform="rotate(90.31 112.378 75.367)"/><path fill="url(#s)" d="M105.296 71.548h3.13v6.91h-3.13z" transform="rotate(90.573 106.861 75.003)"/><path fill="url(#t)" d="M105.455 92.069h3.13v3.13h-3.13z" transform="rotate(120.669 107.02 93.634)"/><path fill="url(#u)" d="M101.298 88.26h3.13v6.91h-3.13z" transform="rotate(120.41 102.863 91.715)"/><path fill="url(#v)" d="M91.673 106.423h3.13v3.13h-3.13z" transform="rotate(150.51 93.238 107.988)"/><path fill="url(#w)" d="M89.208 100.165h3.13v6.91h-3.13z" transform="rotate(150.51 90.773 103.62)"/><path fill="url(#x)" d="M72.726 111.294h3.13v3.13h-3.13z" transform="rotate(180.62 74.29 112.859)"/><path fill="url(#y)" d="M72.781 104.383h3.13v6.91h-3.13z" transform="rotate(180.62 74.346 107.838)"/><path fill="url(#z)" d="M53.873 106.008h3.13v3.13h-3.13z" transform="rotate(210.72 55.438 107.573)"/><path fill="url(#A)" d="M56.435 99.804h3.13v6.91h-3.13z" transform="rotate(210.72 58 103.26)"/><path fill="url(#B)" d="M40.211 91.984h3.13v3.13h-3.13z" transform="rotate(240.82 41.776 93.55)"/><path fill="url(#C)" d="M44.591 87.646h3.13v6.91h-3.13z" transform="rotate(240.82 46.156 91.101)"/><path fill="url(#D)" d="M35.434 73.003h3.13v3.13h-3.13z" transform="rotate(-89.08 37 74.568)"/><path fill="url(#E)" d="M40.455 71.185h3.13v6.91h-3.13z" transform="rotate(-89.08 42.02 74.64)"/><path fill="url(#F)" d="M40.822 54.182h3.13v3.13h-3.13z" transform="rotate(-58.97 42.387 55.747)"/><path fill="url(#G)" d="M45.124 54.879h3.13v6.91h-3.13z" transform="rotate(-58.97 46.69 58.334)"/><path fill="url(#H)" d="M54.918 40.599h3.13v3.13h-3.13z" transform="rotate(-28.87 56.483 42.164)"/><path fill="url(#I)" d="M57.346 43.1h3.13v6.91h-3.13z" transform="rotate(-28.87 58.91 46.555)"/></g></svg>