<svg xmlns="http://www.w3.org/2000/svg" viewBox="0 0 91 150"><title>Mixer（搅拌机） (2)</title><defs><linearGradient id="a" x1="0%" x2="100%" y1="49.953%" y2="49.953%"><stop offset="0%" stop-color="#b7b7b7"/><stop offset="3%" stop-color="#9b9d9d"/><stop offset="7%" stop-color="#878b8b"/><stop offset="9%" stop-color="#808484"/><stop offset="20%" stop-color="#a3a6a6"/><stop offset="49%" stop-color="#f6f6f6"/><stop offset="61%" stop-color="#f3f3f3"/><stop offset="70%" stop-color="#eaeaea"/><stop offset="77%" stop-color="#dbdbdb"/><stop offset="83%" stop-color="#c5c5c5"/><stop offset="90%" stop-color="#aaa"/><stop offset="95%" stop-color="#888"/><stop offset="100%" stop-color="#666"/></linearGradient><linearGradient id="b" x1="0%" x2="100%" y1="50%" y2="50%"><stop offset="0%" stop-color="#b7b7b7"/><stop offset="3%" stop-color="#9b9d9d"/><stop offset="7%" stop-color="#878b8b"/><stop offset="9%" stop-color="#808484"/><stop offset="20%" stop-color="#a3a6a6"/><stop offset="49%" stop-color="#f6f6f6"/><stop offset="61%" stop-color="#f3f3f3"/><stop offset="70%" stop-color="#eaeaea"/><stop offset="77%" stop-color="#dbdbdb"/><stop offset="83%" stop-color="#c5c5c5"/><stop offset="90%" stop-color="#aaa"/><stop offset="95%" stop-color="#888"/><stop offset="100%" stop-color="#666"/></linearGradient><linearGradient id="c" x1="49.945%" x2="49.945%" y1="100%" y2="0%"><stop offset="0%" stop-color="#b7b7b7"/><stop offset="3%" stop-color="#9b9d9d"/><stop offset="7%" stop-color="#878b8b"/><stop offset="9%" stop-color="#808484"/><stop offset="20%" stop-color="#a3a6a6"/><stop offset="49%" stop-color="#f6f6f6"/><stop offset="61%" stop-color="#f3f3f3"/><stop offset="70%" stop-color="#eaeaea"/><stop offset="77%" stop-color="#dbdbdb"/><stop offset="83%" stop-color="#c5c5c5"/><stop offset="90%" stop-color="#aaa"/><stop offset="95%" stop-color="#888"/><stop offset="100%" stop-color="#666"/></linearGradient><linearGradient id="d" x1="50%" x2="50%" y1="100%" y2="0%"><stop offset="0%" stop-color="#b7b7b7"/><stop offset="3%" stop-color="#9b9d9d"/><stop offset="7%" stop-color="#878b8b"/><stop offset="9%" stop-color="#808484"/><stop offset="20%" stop-color="#a3a6a6"/><stop offset="49%" stop-color="#f6f6f6"/><stop offset="61%" stop-color="#f3f3f3"/><stop offset="70%" stop-color="#eaeaea"/><stop offset="77%" stop-color="#dbdbdb"/><stop offset="83%" stop-color="#c5c5c5"/><stop offset="90%" stop-color="#aaa"/><stop offset="95%" stop-color="#888"/><stop offset="100%" stop-color="#666"/></linearGradient><linearGradient id="e" x1="50%" x2="50%" y1="102.5%" y2="2.5%"><stop offset="0%" stop-color="#b7b7b7"/><stop offset="3%" stop-color="#9b9d9d"/><stop offset="7%" stop-color="#878b8b"/><stop offset="9%" stop-color="#808484"/><stop offset="20%" stop-color="#a3a6a6"/><stop offset="49%" stop-color="#f6f6f6"/><stop offset="61%" stop-color="#f3f3f3"/><stop offset="70%" stop-color="#eaeaea"/><stop offset="77%" stop-color="#dbdbdb"/><stop offset="83%" stop-color="#c5c5c5"/><stop offset="90%" stop-color="#aaa"/><stop offset="95%" stop-color="#888"/><stop offset="100%" stop-color="#666"/></linearGradient><linearGradient id="f" x1="50%" x2="50%" y1="100%" y2="0%"><stop offset="0%" stop-color="#b7b7b7"/><stop offset="3%" stop-color="#9b9d9d"/><stop offset="7%" stop-color="#878b8b"/><stop offset="9%" stop-color="#808484"/><stop offset="20%" stop-color="#a3a6a6"/><stop offset="49%" stop-color="#f6f6f6"/><stop offset="61%" stop-color="#f3f3f3"/><stop offset="70%" stop-color="#eaeaea"/><stop offset="77%" stop-color="#dbdbdb"/><stop offset="83%" stop-color="#c5c5c5"/><stop offset="90%" stop-color="#aaa"/><stop offset="95%" stop-color="#888"/><stop offset="100%" stop-color="#666"/></linearGradient><linearGradient id="g" x1="50%" x2="50%" y1="102.5%" y2="0%"><stop offset="0%" stop-color="#b7b7b7"/><stop offset="3%" stop-color="#9b9d9d"/><stop offset="7%" stop-color="#878b8b"/><stop offset="9%" stop-color="#808484"/><stop offset="20%" stop-color="#a3a6a6"/><stop offset="49%" stop-color="#f6f6f6"/><stop offset="61%" stop-color="#f3f3f3"/><stop offset="70%" stop-color="#eaeaea"/><stop offset="77%" stop-color="#dbdbdb"/><stop offset="83%" stop-color="#c5c5c5"/><stop offset="90%" stop-color="#aaa"/><stop offset="95%" stop-color="#888"/><stop offset="100%" stop-color="#666"/></linearGradient><linearGradient id="h" x1="50.055%" x2="50.055%" y1="100%" y2="0%"><stop offset="0%" stop-color="#b7b7b7"/><stop offset="3%" stop-color="#9b9d9d"/><stop offset="7%" stop-color="#878b8b"/><stop offset="9%" stop-color="#808484"/><stop offset="20%" stop-color="#a3a6a6"/><stop offset="49%" stop-color="#f6f6f6"/><stop offset="61%" stop-color="#f3f3f3"/><stop offset="70%" stop-color="#eaeaea"/><stop offset="77%" stop-color="#dbdbdb"/><stop offset="83%" stop-color="#c5c5c5"/><stop offset="90%" stop-color="#aaa"/><stop offset="95%" stop-color="#888"/><stop offset="100%" stop-color="#666"/></linearGradient><linearGradient id="i" x1="49.842%" x2="49.842%" y1="100%" y2="0%"><stop offset="0%" stop-color="#b7b7b7"/><stop offset="3%" stop-color="#9b9d9d"/><stop offset="7%" stop-color="#878b8b"/><stop offset="9%" stop-color="#808484"/><stop offset="20%" stop-color="#a3a6a6"/><stop offset="49%" stop-color="#f6f6f6"/><stop offset="61%" stop-color="#f3f3f3"/><stop offset="70%" stop-color="#eaeaea"/><stop offset="77%" stop-color="#dbdbdb"/><stop offset="83%" stop-color="#c5c5c5"/><stop offset="90%" stop-color="#aaa"/><stop offset="95%" stop-color="#888"/><stop offset="100%" stop-color="#666"/></linearGradient><linearGradient id="j" x1="49.189%" x2="49.189%" y1="100%" y2="0%"><stop offset="0%" stop-color="#b7b7b7"/><stop offset="3%" stop-color="#9b9d9d"/><stop offset="7%" stop-color="#878b8b"/><stop offset="9%" stop-color="#808484"/><stop offset="20%" stop-color="#a3a6a6"/><stop offset="49%" stop-color="#f6f6f6"/><stop offset="61%" stop-color="#f3f3f3"/><stop offset="70%" stop-color="#eaeaea"/><stop offset="77%" stop-color="#dbdbdb"/><stop offset="83%" stop-color="#c5c5c5"/><stop offset="90%" stop-color="#aaa"/><stop offset="95%" stop-color="#888"/><stop offset="100%" stop-color="#666"/></linearGradient><linearGradient id="k" x1="50.06%" x2="50.06%" y1="100%" y2="0%"><stop offset="0%" stop-color="#b7b7b7"/><stop offset="3%" stop-color="#9b9d9d"/><stop offset="7%" stop-color="#878b8b"/><stop offset="9%" stop-color="#808484"/><stop offset="20%" stop-color="#a3a6a6"/><stop offset="49%" stop-color="#f6f6f6"/><stop offset="61%" stop-color="#f3f3f3"/><stop offset="70%" stop-color="#eaeaea"/><stop offset="77%" stop-color="#dbdbdb"/><stop offset="83%" stop-color="#c5c5c5"/><stop offset="90%" stop-color="#aaa"/><stop offset="95%" stop-color="#888"/><stop offset="100%" stop-color="#666"/></linearGradient><linearGradient id="l" x1="49.94%" x2="49.94%" y1="98.246%" y2="0%"><stop offset="0%" stop-color="#b7b7b7"/><stop offset="3%" stop-color="#9b9d9d"/><stop offset="7%" stop-color="#878b8b"/><stop offset="9%" stop-color="#808484"/><stop offset="20%" stop-color="#a3a6a6"/><stop offset="49%" stop-color="#f6f6f6"/><stop offset="61%" stop-color="#f3f3f3"/><stop offset="70%" stop-color="#eaeaea"/><stop offset="77%" stop-color="#dbdbdb"/><stop offset="83%" stop-color="#c5c5c5"/><stop offset="90%" stop-color="#aaa"/><stop offset="95%" stop-color="#888"/><stop offset="100%" stop-color="#666"/></linearGradient><linearGradient id="m" x1="49.94%" x2="49.94%" y1="98.246%" y2="0%"><stop offset="0%" stop-color="#b7b7b7"/><stop offset="3%" stop-color="#9b9d9d"/><stop offset="7%" stop-color="#878b8b"/><stop offset="9%" stop-color="#808484"/><stop offset="20%" stop-color="#a3a6a6"/><stop offset="49%" stop-color="#f6f6f6"/><stop offset="61%" stop-color="#f3f3f3"/><stop offset="70%" stop-color="#eaeaea"/><stop offset="77%" stop-color="#dbdbdb"/><stop offset="83%" stop-color="#c5c5c5"/><stop offset="90%" stop-color="#aaa"/><stop offset="95%" stop-color="#888"/><stop offset="100%" stop-color="#666"/></linearGradient><linearGradient id="n" x1="49.94%" x2="49.94%" y1="100%" y2="0%"><stop offset="0%" stop-color="#b7b7b7"/><stop offset="3%" stop-color="#9b9d9d"/><stop offset="7%" stop-color="#878b8b"/><stop offset="9%" stop-color="#808484"/><stop offset="20%" stop-color="#a3a6a6"/><stop offset="49%" stop-color="#f6f6f6"/><stop offset="61%" stop-color="#f3f3f3"/><stop offset="70%" stop-color="#eaeaea"/><stop offset="77%" stop-color="#dbdbdb"/><stop offset="83%" stop-color="#c5c5c5"/><stop offset="90%" stop-color="#aaa"/><stop offset="95%" stop-color="#888"/><stop offset="100%" stop-color="#666"/></linearGradient><linearGradient id="o" x1="49.94%" x2="49.94%" y1="100%" y2="0%"><stop offset="0%" stop-color="#b7b7b7"/><stop offset="3%" stop-color="#9b9d9d"/><stop offset="7%" stop-color="#878b8b"/><stop offset="9%" stop-color="#808484"/><stop offset="20%" stop-color="#a3a6a6"/><stop offset="49%" stop-color="#f6f6f6"/><stop offset="61%" stop-color="#f3f3f3"/><stop offset="70%" stop-color="#eaeaea"/><stop offset="77%" stop-color="#dbdbdb"/><stop offset="83%" stop-color="#c5c5c5"/><stop offset="90%" stop-color="#aaa"/><stop offset="95%" stop-color="#888"/><stop offset="100%" stop-color="#666"/></linearGradient><linearGradient id="p" x1="49.947%" x2="49.947%" y1="0%" y2="100%"><stop offset="0%" stop-color="#b7b7b7"/><stop offset="3%" stop-color="#9b9d9d"/><stop offset="7%" stop-color="#878b8b"/><stop offset="9%" stop-color="#808484"/><stop offset="20%" stop-color="#a3a6a6"/><stop offset="49%" stop-color="#f6f6f6"/><stop offset="61%" stop-color="#f3f3f3"/><stop offset="70%" stop-color="#eaeaea"/><stop offset="77%" stop-color="#dbdbdb"/><stop offset="83%" stop-color="#c5c5c5"/><stop offset="90%" stop-color="#aaa"/><stop offset="95%" stop-color="#888"/><stop offset="100%" stop-color="#666"/></linearGradient><linearGradient id="q" x1="49.885%" x2="49.885%" y1="-.076%" y2="99.924%"><stop offset="0%" stop-color="#b7b7b7"/><stop offset="3%" stop-color="#9b9d9d"/><stop offset="7%" stop-color="#878b8b"/><stop offset="9%" stop-color="#808484"/><stop offset="20%" stop-color="#a3a6a6"/><stop offset="49%" stop-color="#f6f6f6"/><stop offset="61%" stop-color="#f3f3f3"/><stop offset="70%" stop-color="#eaeaea"/><stop offset="77%" stop-color="#dbdbdb"/><stop offset="83%" stop-color="#c5c5c5"/><stop offset="90%" stop-color="#aaa"/><stop offset="95%" stop-color="#888"/><stop offset="100%" stop-color="#666"/></linearGradient><linearGradient id="r" x1="49.885%" x2="49.885%" y1="0%" y2="100%"><stop offset="0%" stop-color="#b7b7b7"/><stop offset="3%" stop-color="#9b9d9d"/><stop offset="7%" stop-color="#878b8b"/><stop offset="9%" stop-color="#808484"/><stop offset="20%" stop-color="#a3a6a6"/><stop offset="49%" stop-color="#f6f6f6"/><stop offset="61%" stop-color="#f3f3f3"/><stop offset="70%" stop-color="#eaeaea"/><stop offset="77%" stop-color="#dbdbdb"/><stop offset="83%" stop-color="#c5c5c5"/><stop offset="90%" stop-color="#aaa"/><stop offset="95%" stop-color="#888"/><stop offset="100%" stop-color="#666"/></linearGradient><linearGradient id="s" x1="49.885%" x2="49.885%" y1="-2.5%" y2="100%"><stop offset="0%" stop-color="#b7b7b7"/><stop offset="3%" stop-color="#9b9d9d"/><stop offset="7%" stop-color="#878b8b"/><stop offset="9%" stop-color="#808484"/><stop offset="20%" stop-color="#a3a6a6"/><stop offset="49%" stop-color="#f6f6f6"/><stop offset="61%" stop-color="#f3f3f3"/><stop offset="70%" stop-color="#eaeaea"/><stop offset="77%" stop-color="#dbdbdb"/><stop offset="83%" stop-color="#c5c5c5"/><stop offset="90%" stop-color="#aaa"/><stop offset="95%" stop-color="#888"/><stop offset="100%" stop-color="#666"/></linearGradient><linearGradient id="t" x1="49.885%" x2="49.885%" y1="0%" y2="102.5%"><stop offset="0%" stop-color="#b7b7b7"/><stop offset="3%" stop-color="#9b9d9d"/><stop offset="7%" stop-color="#878b8b"/><stop offset="9%" stop-color="#808484"/><stop offset="20%" stop-color="#a3a6a6"/><stop offset="49%" stop-color="#f6f6f6"/><stop offset="61%" stop-color="#f3f3f3"/><stop offset="70%" stop-color="#eaeaea"/><stop offset="77%" stop-color="#dbdbdb"/><stop offset="83%" stop-color="#c5c5c5"/><stop offset="90%" stop-color="#aaa"/><stop offset="95%" stop-color="#888"/><stop offset="100%" stop-color="#666"/></linearGradient><linearGradient id="u" x1="49.885%" x2="49.885%" y1="0%" y2="100%"><stop offset="0%" stop-color="#b7b7b7"/><stop offset="3%" stop-color="#9b9d9d"/><stop offset="7%" stop-color="#878b8b"/><stop offset="9%" stop-color="#808484"/><stop offset="20%" stop-color="#a3a6a6"/><stop offset="49%" stop-color="#f6f6f6"/><stop offset="61%" stop-color="#f3f3f3"/><stop offset="70%" stop-color="#eaeaea"/><stop offset="77%" stop-color="#dbdbdb"/><stop offset="83%" stop-color="#c5c5c5"/><stop offset="90%" stop-color="#aaa"/><stop offset="95%" stop-color="#888"/><stop offset="100%" stop-color="#666"/></linearGradient><linearGradient id="v" x1="49.935%" x2="49.935%" y1="0%" y2="100%"><stop offset="0%" stop-color="#b7b7b7"/><stop offset="3%" stop-color="#9b9d9d"/><stop offset="7%" stop-color="#878b8b"/><stop offset="9%" stop-color="#808484"/><stop offset="20%" stop-color="#a3a6a6"/><stop offset="49%" stop-color="#f6f6f6"/><stop offset="61%" stop-color="#f3f3f3"/><stop offset="70%" stop-color="#eaeaea"/><stop offset="77%" stop-color="#dbdbdb"/><stop offset="83%" stop-color="#c5c5c5"/><stop offset="90%" stop-color="#aaa"/><stop offset="95%" stop-color="#888"/><stop offset="100%" stop-color="#666"/></linearGradient><linearGradient id="w" x1="50.115%" x2="50.115%" y1="-.076%" y2="99.924%"><stop offset="0%" stop-color="#b7b7b7"/><stop offset="3%" stop-color="#9b9d9d"/><stop offset="7%" stop-color="#878b8b"/><stop offset="9%" stop-color="#808484"/><stop offset="20%" stop-color="#a3a6a6"/><stop offset="49%" stop-color="#f6f6f6"/><stop offset="61%" stop-color="#f3f3f3"/><stop offset="70%" stop-color="#eaeaea"/><stop offset="77%" stop-color="#dbdbdb"/><stop offset="83%" stop-color="#c5c5c5"/><stop offset="90%" stop-color="#aaa"/><stop offset="95%" stop-color="#888"/><stop offset="100%" stop-color="#666"/></linearGradient><linearGradient id="x" x1="50.115%" x2="50.115%" y1="2.5%" y2="102.5%"><stop offset="0%" stop-color="#b7b7b7"/><stop offset="3%" stop-color="#9b9d9d"/><stop offset="7%" stop-color="#878b8b"/><stop offset="9%" stop-color="#808484"/><stop offset="20%" stop-color="#a3a6a6"/><stop offset="49%" stop-color="#f6f6f6"/><stop offset="61%" stop-color="#f3f3f3"/><stop offset="70%" stop-color="#eaeaea"/><stop offset="77%" stop-color="#dbdbdb"/><stop offset="83%" stop-color="#c5c5c5"/><stop offset="90%" stop-color="#aaa"/><stop offset="95%" stop-color="#888"/><stop offset="100%" stop-color="#666"/></linearGradient><linearGradient id="y" x1="50.115%" x2="50.115%" y1="0%" y2="100%"><stop offset="0%" stop-color="#b7b7b7"/><stop offset="3%" stop-color="#9b9d9d"/><stop offset="7%" stop-color="#878b8b"/><stop offset="9%" stop-color="#808484"/><stop offset="20%" stop-color="#a3a6a6"/><stop offset="49%" stop-color="#f6f6f6"/><stop offset="61%" stop-color="#f3f3f3"/><stop offset="70%" stop-color="#eaeaea"/><stop offset="77%" stop-color="#dbdbdb"/><stop offset="83%" stop-color="#c5c5c5"/><stop offset="90%" stop-color="#aaa"/><stop offset="95%" stop-color="#888"/><stop offset="100%" stop-color="#666"/></linearGradient><linearGradient id="z" x1="50.115%" x2="50.115%" y1="0%" y2="100%"><stop offset="0%" stop-color="#b7b7b7"/><stop offset="3%" stop-color="#9b9d9d"/><stop offset="7%" stop-color="#878b8b"/><stop offset="9%" stop-color="#808484"/><stop offset="20%" stop-color="#a3a6a6"/><stop offset="49%" stop-color="#f6f6f6"/><stop offset="61%" stop-color="#f3f3f3"/><stop offset="70%" stop-color="#eaeaea"/><stop offset="77%" stop-color="#dbdbdb"/><stop offset="83%" stop-color="#c5c5c5"/><stop offset="90%" stop-color="#aaa"/><stop offset="95%" stop-color="#888"/><stop offset="100%" stop-color="#666"/></linearGradient><linearGradient id="A" x1="50.115%" x2="50.115%" y1="-2.5%" y2="100%"><stop offset="0%" stop-color="#b7b7b7"/><stop offset="3%" stop-color="#9b9d9d"/><stop offset="7%" stop-color="#878b8b"/><stop offset="9%" stop-color="#808484"/><stop offset="20%" stop-color="#a3a6a6"/><stop offset="49%" stop-color="#f6f6f6"/><stop offset="61%" stop-color="#f3f3f3"/><stop offset="70%" stop-color="#eaeaea"/><stop offset="77%" stop-color="#dbdbdb"/><stop offset="83%" stop-color="#c5c5c5"/><stop offset="90%" stop-color="#aaa"/><stop offset="95%" stop-color="#888"/><stop offset="100%" stop-color="#666"/></linearGradient><linearGradient id="B" x1="50.115%" x2="50.115%" y1="0%" y2="102.5%"><stop offset="0%" stop-color="#b7b7b7"/><stop offset="3%" stop-color="#9b9d9d"/><stop offset="7%" stop-color="#878b8b"/><stop offset="9%" stop-color="#808484"/><stop offset="20%" stop-color="#a3a6a6"/><stop offset="49%" stop-color="#f6f6f6"/><stop offset="61%" stop-color="#f3f3f3"/><stop offset="70%" stop-color="#eaeaea"/><stop offset="77%" stop-color="#dbdbdb"/><stop offset="83%" stop-color="#c5c5c5"/><stop offset="90%" stop-color="#aaa"/><stop offset="95%" stop-color="#888"/><stop offset="100%" stop-color="#666"/></linearGradient><linearGradient id="C" x1="50.055%" x2="50.055%" y1="100%" y2="0%"><stop offset="0%" stop-color="#b7b7b7"/><stop offset="3%" stop-color="#9b9d9d"/><stop offset="7%" stop-color="#878b8b"/><stop offset="9%" stop-color="#808484"/><stop offset="20%" stop-color="#a3a6a6"/><stop offset="49%" stop-color="#f6f6f6"/><stop offset="61%" stop-color="#f3f3f3"/><stop offset="70%" stop-color="#eaeaea"/><stop offset="77%" stop-color="#dbdbdb"/><stop offset="83%" stop-color="#c5c5c5"/><stop offset="90%" stop-color="#aaa"/><stop offset="95%" stop-color="#888"/><stop offset="100%" stop-color="#666"/></linearGradient><linearGradient id="D" x1="50%" x2="50%" y1="100%" y2="0%"><stop offset="0%" stop-color="#b7b7b7"/><stop offset="3%" stop-color="#9b9d9d"/><stop offset="7%" stop-color="#878b8b"/><stop offset="9%" stop-color="#808484"/><stop offset="20%" stop-color="#a3a6a6"/><stop offset="49%" stop-color="#f6f6f6"/><stop offset="61%" stop-color="#f3f3f3"/><stop offset="70%" stop-color="#eaeaea"/><stop offset="77%" stop-color="#dbdbdb"/><stop offset="83%" stop-color="#c5c5c5"/><stop offset="90%" stop-color="#aaa"/><stop offset="95%" stop-color="#888"/><stop offset="100%" stop-color="#666"/></linearGradient><linearGradient id="E" x1="-.055%" x2="100%" y1="49.995%" y2="49.995%"><stop offset="0%" stop-color="#ccc"/><stop offset="3%" stop-color="#bbb"/><stop offset="6%" stop-color="#a7a7a7"/><stop offset="9%" stop-color="#a0a0a0"/><stop offset="10%" stop-color="#a3a3a3"/><stop offset="49%" stop-color="#f6f6f6"/><stop offset="62%" stop-color="#f3f3f3"/><stop offset="72%" stop-color="#eaeaea"/><stop offset="80%" stop-color="#dbdbdb"/><stop offset="87%" stop-color="#c5c5c5"/><stop offset="94%" stop-color="#aaa"/><stop offset="100%" stop-color="#898989"/></linearGradient><linearGradient id="F" x1="0%" x2="100%" y1="50%" y2="50%"><stop offset="0%" stop-color="#b7b7b7"/><stop offset="3%" stop-color="#9b9d9d"/><stop offset="7%" stop-color="#878b8b"/><stop offset="9%" stop-color="#808484"/><stop offset="20%" stop-color="#a3a6a6"/><stop offset="49%" stop-color="#f6f6f6"/><stop offset="61%" stop-color="#f3f3f3"/><stop offset="70%" stop-color="#eaeaea"/><stop offset="77%" stop-color="#dbdbdb"/><stop offset="83%" stop-color="#c5c5c5"/><stop offset="90%" stop-color="#aaa"/><stop offset="95%" stop-color="#888"/><stop offset="100%" stop-color="#666"/></linearGradient><linearGradient id="G" x1="0%" x2="100.169%" y1="49.901%" y2="49.901%"><stop offset="0%" stop-color="#b7b7b7"/><stop offset="3%" stop-color="#9b9d9d"/><stop offset="7%" stop-color="#878b8b"/><stop offset="9%" stop-color="#808484"/><stop offset="20%" stop-color="#a3a6a6"/><stop offset="49%" stop-color="#f6f6f6"/><stop offset="61%" stop-color="#f3f3f3"/><stop offset="70%" stop-color="#eaeaea"/><stop offset="77%" stop-color="#dbdbdb"/><stop offset="83%" stop-color="#c5c5c5"/><stop offset="90%" stop-color="#aaa"/><stop offset="95%" stop-color="#888"/><stop offset="100%" stop-color="#666"/></linearGradient><linearGradient id="H" x1="100.016%" x2=".041%" y1="49.985%" y2="49.985%"><stop offset="0%" stop-color="#b7b7b7"/><stop offset="3%" stop-color="#9b9d9d"/><stop offset="7%" stop-color="#878b8b"/><stop offset="9%" stop-color="#808484"/><stop offset="20%" stop-color="#a3a6a6"/><stop offset="49%" stop-color="#f6f6f6"/><stop offset="61%" stop-color="#f3f3f3"/><stop offset="70%" stop-color="#eaeaea"/><stop offset="77%" stop-color="#dbdbdb"/><stop offset="83%" stop-color="#c5c5c5"/><stop offset="90%" stop-color="#aaa"/><stop offset="95%" stop-color="#888"/><stop offset="100%" stop-color="#666"/></linearGradient><linearGradient id="I" x1="-.037%" x2="99.928%" y1="49.985%" y2="49.985%"><stop offset="0%" stop-color="#b7b7b7"/><stop offset="3%" stop-color="#9b9d9d"/><stop offset="7%" stop-color="#878b8b"/><stop offset="9%" stop-color="#808484"/><stop offset="20%" stop-color="#a3a6a6"/><stop offset="49%" stop-color="#f6f6f6"/><stop offset="61%" stop-color="#f3f3f3"/><stop offset="70%" stop-color="#eaeaea"/><stop offset="77%" stop-color="#dbdbdb"/><stop offset="83%" stop-color="#c5c5c5"/><stop offset="90%" stop-color="#aaa"/><stop offset="95%" stop-color="#888"/><stop offset="100%" stop-color="#666"/></linearGradient></defs><g fill="none" fill-rule="nonzero"><path fill="url(#a)" d="M38.71 1.85h13.14v21.08H38.71z" transform="translate(.003 .001)"/><path fill="url(#b)" d="M41.78 26.07h7v10.58h-7z" transform="translate(.003 .001)"/><path fill="url(#c)" d="M.44 69.43h9.07V79.5H.44z" transform="translate(.003 .001)"/><path fill="url(#d)" d="M0 68.02h4.16V81.1H0z" transform="translate(.003 .001)"/><path fill="url(#e)" d="M0 80.69h4.16v1H0z" transform="translate(.003 .001)"/><path fill="url(#f)" d="M0 79.03h4.16v1H0z" transform="translate(.003 .001)"/><path fill="url(#e)" d="M0 77.76h4.16v1H0z" transform="translate(.003 .001)"/><path fill="url(#f)" d="M0 76.28h4.16v1H0z" transform="translate(.003 .001)"/><path fill="url(#e)" d="M0 74.91h4.16v1H0z" transform="translate(.003 .001)"/><path fill="url(#e)" d="M0 73.67h4.16v1H0z" transform="translate(.003 .001)"/><path fill="url(#e)" d="M0 72.18h4.16v1H0z" transform="translate(.003 .001)"/><path fill="url(#f)" d="M0 70.81h4.16v1H0z" transform="translate(.003 .001)"/><path fill="url(#e)" d="M0 69.29h4.16v1H0z" transform="translate(.003 .001)"/><path fill="url(#g)" d="M0 68.02h4.16v1H0z" transform="translate(.003 .001)"/><path fill="url(#h)" d="M40.74 37.81h9.07v14.67h-9.07z" transform="rotate(90 45.276 45.147)"/><path fill="url(#i)" d="M43.695 16.515h3.17v15.96h-3.17z" transform="rotate(90 45.281 24.497)"/><path fill="url(#j)" d="M44.35-4.02h1.85v9.89h-1.85z" transform="rotate(90 45.276 .927)"/><path fill="url(#k)" d="M41.12 31.58h8.31v18.43h-8.31z" transform="rotate(90 45.276 40.797)"/><path fill="url(#l)" d="M32.19 40.52h8.31v1h-8.31z" transform="rotate(90 36.346 40.807)"/><path fill="url(#m)" d="M34.54 40.52h8.31v1h-8.31z" transform="rotate(90 38.696 40.807)"/><path fill="url(#n)" d="M36.32 40.52h8.31v1h-8.31z" transform="rotate(90 40.476 40.807)"/><path fill="url(#n)" d="M38.42 40.52h8.31v1h-8.31z" transform="rotate(90 42.576 40.807)"/><path fill="url(#n)" d="M40.34 40.52h8.31v1h-8.31z" transform="rotate(90 44.496 40.807)"/><path fill="url(#n)" d="M42.09 40.52h8.31v1h-8.31z" transform="rotate(90 46.246 40.807)"/><path fill="url(#o)" d="M44.19 40.52h8.31v1h-8.31z" transform="rotate(90 48.346 40.807)"/><path fill="url(#l)" d="M46.13 40.52h8.31v1h-8.31z" transform="rotate(90 50.286 40.807)"/><path fill="url(#n)" d="M48.26 40.52h8.31v1h-8.31z" transform="rotate(90 52.416 40.807)"/><path fill="url(#o)" d="M50.06 40.52h8.31v1h-8.31z" transform="rotate(90 54.216 40.807)"/><path fill="url(#p)" d="M80.73 69.35h9.49v9.88h-9.49z" transform="matrix(-1 0 0 -1 170.953 148.581)"/><path fill="url(#q)" d="M86.33 68.11h4.35v13.16h-4.35z" transform="matrix(-1 0 0 -1 177.013 149.381)"/><path fill="url(#r)" d="M86.33 80.88h4.35v1h-4.35z" transform="matrix(-1 0 0 -1 177.013 162.161)"/><path fill="url(#r)" d="M86.33 79.2h4.35v1h-4.35z" transform="matrix(-1 0 0 -1 177.013 158.801)"/><path fill="url(#r)" d="M86.33 77.93h4.35v1h-4.35z" transform="matrix(-1 0 0 -1 177.013 156.261)"/><path fill="url(#r)" d="M86.33 76.43h4.35v1h-4.35z" transform="matrix(-1 0 0 -1 177.013 153.261)"/><path fill="url(#r)" d="M86.33 75.06h4.35v1h-4.35z" transform="matrix(-1 0 0 -1 177.013 150.521)"/><path fill="url(#s)" d="M86.33 73.81h4.35v1h-4.35z" transform="matrix(-1 0 0 -1 177.013 148.021)"/><path fill="url(#s)" d="M86.33 72.31h4.35v1h-4.35z" transform="matrix(-1 0 0 -1 177.013 145.021)"/><path fill="url(#t)" d="M86.33 70.92h4.35v1h-4.35z" transform="matrix(-1 0 0 -1 177.013 142.241)"/><path fill="url(#u)" d="M86.33 69.4h4.35v1h-4.35z" transform="matrix(-1 0 0 -1 177.013 139.201)"/><path fill="url(#r)" d="M86.33 68.12h4.35v1h-4.35z" transform="matrix(-1 0 0 -1 177.013 136.641)"/><path fill="url(#v)" d="M80.73 95.5h7.73v9.88h-7.73z" transform="matrix(-1 0 0 -1 169.193 200.881)"/><path fill="url(#w)" d="M84.58 94.26h4.35v13.16h-4.35z" transform="matrix(-1 0 0 -1 173.513 201.681)"/><path fill="url(#x)" d="M84.58 107.03h4.35v1h-4.35z" transform="matrix(-1 0 0 -1 173.513 214.461)"/><path fill="url(#y)" d="M84.58 105.35h4.35v1h-4.35z" transform="matrix(-1 0 0 -1 173.513 211.101)"/><path fill="url(#z)" d="M84.58 104.08h4.35v1h-4.35z" transform="matrix(-1 0 0 -1 173.513 208.561)"/><path fill="url(#A)" d="M84.58 102.58h4.35v1h-4.35z" transform="matrix(-1 0 0 -1 173.513 205.561)"/><path fill="url(#z)" d="M84.58 101.21h4.35v1h-4.35z" transform="matrix(-1 0 0 -1 173.513 202.821)"/><path fill="url(#A)" d="M84.58 99.96h4.35v1h-4.35z" transform="matrix(-1 0 0 -1 173.513 200.321)"/><path fill="url(#A)" d="M84.58 98.46h4.35v1h-4.35z" transform="matrix(-1 0 0 -1 173.513 197.321)"/><path fill="url(#B)" d="M84.58 97.07h4.35v1h-4.35z" transform="matrix(-1 0 0 -1 173.513 194.541)"/><path fill="url(#A)" d="M84.58 95.55h4.35v1h-4.35z" transform="matrix(-1 0 0 -1 173.513 191.501)"/><path fill="url(#y)" d="M84.58 94.27h4.35v1h-4.35z" transform="matrix(-1 0 0 -1 173.513 188.941)"/><path fill="url(#C)" d="M.65 108.02h9.07v10.07H.65z" transform="translate(.003 .001)"/><path fill="url(#d)" d="M.22 106.61h4.16v13.08H.22z" transform="translate(.003 .001)"/><path fill="url(#e)" d="M.22 119.28h4.16v1H.22z" transform="translate(.003 .001)"/><path fill="url(#D)" d="M.22 117.62h4.16v1H.22z" transform="translate(.003 .001)"/><path fill="url(#e)" d="M.22 116.35h4.16v1H.22z" transform="translate(.003 .001)"/><path fill="url(#D)" d="M.22 114.87h4.16v1H.22z" transform="translate(.003 .001)"/><path fill="url(#e)" d="M.22 113.5h4.16v1H.22z" transform="translate(.003 .001)"/><path fill="url(#e)" d="M.22 112.26h4.16v1H.22z" transform="translate(.003 .001)"/><path fill="url(#e)" d="M.22 110.77h4.16v1H.22z" transform="translate(.003 .001)"/><path fill="url(#f)" d="M.22 109.4h4.16v1H.22z" transform="translate(.003 .001)"/><path fill="url(#e)" d="M.22 107.88h4.16v1H.22z" transform="translate(.003 .001)"/><path fill="url(#g)" d="M.22 106.61h4.16v1H.22z" transform="translate(.003 .001)"/><path fill="url(#E)" d="M12.17 49.68h66.22a3.21 3.21 0 0 1 3.21 3.21v92.76a4.28 4.28 0 0 1-4.28 4.28H13.24A4.28 4.28 0 0 1 9 145.65V52.89a3.21 3.21 0 0 1 3.17-3.21" transform="translate(.003 .001)"/><path fill="#b0b0b1" d="M9.663 63.661h71.23v1.37H9.663zm.28 67.77h70.68v1.37H9.943z"/><path fill="#b0b0b1" d="M73.003 65.031v66.4h-55.45v-66.4z"/><path fill="url(#F)" d="M42.77 65.02h5.01v32.9h-5.01z" transform="translate(.003 .001)"/><path fill="url(#G)" d="M42.32 97.86h5.91v5.07h-5.91z" transform="translate(.003 .001)"/><path fill="url(#H)" d="M42.69 99.51c-1.49-1.77-13.15-3.7-17.63-3.37a2.7 2.7 0 0 0-1.25.37c-2.74 1.8-3 6.54-.39 8.33a3.5 3.5 0 0 0 1.67.5c3.86-.18 15.09-.83 17.6-2.59.06-.04 0-3.24 0-3.24" transform="translate(.003 .001)"/><path fill="url(#I)" d="M47.05 99.51c1.49-1.77 13.16-3.7 17.63-3.37.444.02.876.147 1.26.37 2.73 1.8 3 6.54.39 8.33a3.5 3.5 0 0 1-1.68.5c-3.86-.18-15.09-.83-17.6-2.59-.05-.04 0-3.24 0-3.24" transform="translate(.003 .001)"/></g></svg>