<svg xmlns="http://www.w3.org/2000/svg" viewBox="0 0 129 151"><title>Hospital（医院）</title><defs><linearGradient id="a" x1="37.472%" x2="62.524%" y1="84.163%" y2="15.826%"><stop offset="0%" stop-color="#2a6aaf" stop-opacity="0"/><stop offset="100%" stop-color="#5ac8f7" stop-opacity=".6"/></linearGradient><linearGradient id="b" x1="34.113%" x2="65.887%" y1="72.295%" y2="27.705%"><stop offset="0%" stop-color="#2a6aaf" stop-opacity="0"/><stop offset="100%" stop-color="#5ac8f7" stop-opacity=".6"/></linearGradient><linearGradient id="c" x1="81.41%" x2="18.598%" y1="66.629%" y2="39.854%"><stop offset="0%" stop-color="#5ac8f7" stop-opacity=".6"/><stop offset="100%" stop-color="#2a6aaf" stop-opacity="0"/></linearGradient><linearGradient id="d" x1="31.414%" x2="68.594%" y1="61.17%" y2="45.315%"><stop offset="0%" stop-color="#2a6aaf" stop-opacity="0"/><stop offset="100%" stop-color="#5ac8f7" stop-opacity=".6"/></linearGradient><linearGradient id="e" x1="81.41%" x2="18.59%" y1="66.635%" y2="39.846%"><stop offset="0%" stop-color="#5ac8f7" stop-opacity=".6"/><stop offset="100%" stop-color="#2a6aaf" stop-opacity="0"/></linearGradient><linearGradient id="f" x1="16.435%" x2="83.557%" y1="78.58%" y2="20.644%"><stop offset="0%" stop-color="#2a6aaf" stop-opacity="0"/><stop offset="100%" stop-color="#5ac8f7" stop-opacity=".6"/></linearGradient><linearGradient id="g" x1="50%" x2="50%" y1="100.117%" y2="-.118%"><stop offset="0%" stop-color="#2a6aaf" stop-opacity="0"/><stop offset="11%" stop-color="#337cbd" stop-opacity=".11"/><stop offset="31%" stop-color="#4197d1" stop-opacity=".29"/><stop offset="51%" stop-color="#4cace2" stop-opacity=".42"/><stop offset="69%" stop-color="#54bced" stop-opacity=".52"/><stop offset="86%" stop-color="#58c5f5" stop-opacity=".58"/><stop offset="100%" stop-color="#5ac8f7" stop-opacity=".6"/></linearGradient><linearGradient id="h" x1="48.816%" x2="51.184%" y1="75%" y2="25%"><stop offset="0%" stop-color="#2a6aaf" stop-opacity="0"/><stop offset="100%" stop-color="#5ac8f7" stop-opacity=".6"/></linearGradient><linearGradient id="i" x1="48.819%" x2="51.184%" y1="74.976%" y2="25.024%"><stop offset="0%" stop-color="#2a6aaf" stop-opacity="0"/><stop offset="100%" stop-color="#5ac8f7" stop-opacity=".6"/></linearGradient><linearGradient id="j" x1="-.008%" x2="100%" y1="49.952%" y2="49.952%"><stop offset="0%" stop-color="#2a6aaf" stop-opacity="0"/><stop offset="100%" stop-color="#5ac8f7" stop-opacity=".6"/></linearGradient><linearGradient id="k" x1="0%" x2="100%" y1="50.047%" y2="50.047%"><stop offset="0%" stop-color="#2a6aaf" stop-opacity="0"/><stop offset="100%" stop-color="#5ac8f7" stop-opacity=".6"/></linearGradient><linearGradient id="l" x1="0%" x2="100%" y1="50.032%" y2="50.032%"><stop offset="0%" stop-color="#2a6aaf" stop-opacity="0"/><stop offset="100%" stop-color="#5ac8f7" stop-opacity=".6"/></linearGradient><linearGradient id="m" x1="0%" x2="100%" y1="49.978%" y2="49.978%"><stop offset="0%" stop-color="#2a6aaf" stop-opacity="0"/><stop offset="100%" stop-color="#5ac8f7" stop-opacity=".6"/></linearGradient><linearGradient id="n" x1="4.056%" x2="95.977%" y1="88.549%" y2="11.451%"><stop offset="0%" stop-color="#2a6aaf" stop-opacity="0"/><stop offset="100%" stop-color="#5ac8f7" stop-opacity=".6"/></linearGradient><linearGradient id="o" x1="26.827%" x2="74.768%" y1="64.641%" y2="35.394%"><stop offset="0%" stop-color="#2a6aaf" stop-opacity="0"/><stop offset="100%" stop-color="#5ac8f7" stop-opacity=".6"/></linearGradient><linearGradient id="p" x1="45.746%" x2="54.249%" y1="69.666%" y2="30.334%"><stop offset="0%" stop-color="#2a6aaf" stop-opacity="0"/><stop offset="100%" stop-color="#5ac8f7" stop-opacity=".6"/></linearGradient><linearGradient id="q" x1="76.196%" x2="18.029%" y1="62.504%" y2="35.131%"><stop offset="0%" stop-color="#5ac8f7" stop-opacity=".6"/><stop offset="100%" stop-color="#2a6aaf" stop-opacity="0"/></linearGradient><linearGradient id="r" x1="76.194%" x2="18.028%" y1="62.483%" y2="35.115%"><stop offset="0%" stop-color="#5ac8f7" stop-opacity=".6"/><stop offset="100%" stop-color="#2a6aaf" stop-opacity="0"/></linearGradient><linearGradient id="s" x1="91.691%" x2="6.335%" y1="80.375%" y2="2.322%"><stop offset="0%" stop-color="#5ac8f7" stop-opacity=".6"/><stop offset="100%" stop-color="#2a6aaf" stop-opacity="0"/></linearGradient></defs><g fill="none" fill-rule="evenodd"><g opacity=".2"><path fill="url(#a)" fill-rule="nonzero" d="M.21 20.57 35.63 0l-.22 76.6L0 97.18z" transform="translate(.13 .13)"/><path fill="url(#a)" fill-rule="nonzero" stroke="#5ac8f7" stroke-linejoin="round" stroke-width=".25" d="M.21 20.57 35.63 0l-.22 76.6L0 97.18z" transform="translate(.13 .13)"/><path stroke="#5ac8f7" stroke-linejoin="round" stroke-width=".25" d="M.34 20.7 35.76.13l-.22 76.6L.13 97.31z"/></g><g opacity=".2"><path fill="url(#b)" fill-rule="nonzero" d="m.22 0 92.39 53.34-.22 76.6L0 76.6z" transform="translate(35.54 .13)"/><path fill="url(#b)" fill-rule="nonzero" stroke="#5ac8f7" stroke-linejoin="round" stroke-width=".25" d="m.22 0 92.39 53.34-.22 76.6L0 76.6z" transform="translate(35.54 .13)"/><path stroke="#5ac8f7" stroke-linejoin="round" stroke-width=".25" d="m35.76.13 92.39 53.34-.22 76.6-92.39-53.34z"/></g><g opacity=".2"><path fill="url(#c)" fill-rule="nonzero" d="M127.81 53.34c-2.72.48-54.48 9.57-127.81-32.76L35.42 0z" transform="translate(.12 76.73)"/><path fill="url(#c)" fill-rule="nonzero" stroke="#5ac8f7" stroke-linejoin="round" stroke-width=".25" d="M127.81 53.34c-2.72.48-54.48 9.57-127.81-32.76L35.42 0z" transform="translate(.12 76.73)"/><path stroke="#5ac8f7" stroke-linejoin="round" stroke-width=".25" d="M127.93 130.07c-2.72.48-54.48 9.57-127.81-32.76l35.42-20.58z"/></g><path fill="url(#d)" fill-rule="nonzero" d="M127.81 53.35c-2.72.53-54.48 9.53-127.81-32.76L35.42 0z" transform="translate(.34 .12)"/><path fill="url(#e)" fill-rule="nonzero" stroke="#5ac8f7" stroke-linejoin="round" stroke-width=".25" d="M127.81 53.35c-2.72.53-54.48 9.53-127.81-32.76L35.42 0z" transform="translate(.34 .12)"/><path stroke="#5ac8f7" stroke-linejoin="round" stroke-width=".25" d="M128.15 53.47C125.43 54 73.67 63 .34 20.71L35.76.12z"/><path fill="url(#f)" fill-rule="nonzero" stroke="url(#g)" stroke-linejoin="round" stroke-width=".25" d="m.22 20.59-.21 76.6c73.32 42.33 125.08 33.24 127.8 32.76l.22-76.6c-2.72.53-54.48 9.53-127.81-32.76Z" transform="translate(.12 .12)"/><path fill="url(#h)" fill-rule="nonzero" stroke="#5ac8f7" stroke-linejoin="round" stroke-width=".25" d="M109.63 109.97v21.12" opacity=".2" transform="translate(.12 .12)"/><path fill="url(#i)" fill-rule="nonzero" stroke="#5ac8f7" stroke-linejoin="round" stroke-width=".25" d="M12.16 103.85V82.71" opacity=".2" transform="translate(.12 .12)"/><path stroke="#5ac8f7" stroke-linejoin="round" stroke-width=".25" d="M12.28 82.83s66.77 27.26 97.47 27.26"/><path fill="url(#j)" fill-rule="nonzero" stroke="#5ac8f7" stroke-linejoin="round" stroke-width=".25" d="M58.09 99.4c-15.65-5.12-46-16.68-46-16.68s-8 .79-12.07 1.41v21.07c34.9-5.42 70.62.89 94.6 14.73a77.2 77.2 0 0 1 13.68 9.95 49.8 49.8 0 0 1 11.65 15.4l.06-21.07c-2.41-5.15-10.5-14.31-10.5-14.31s-22.4-1.02-51.42-10.5Z" opacity=".2" transform="translate(.12 .12)"/><g opacity=".2"><path fill="url(#k)" fill-rule="nonzero" d="M94.6 16.624c11.76 6.79 20.7 15.39 25.34 25.31l-30.76 4.77c-3.13-6.68-9.15-12.47-17.07-17.05-16.17-9.29-40.24-13.54-63.76-9.88L0 1.934c34.87-5.42 70.62.89 94.6 14.69" transform="translate(.13 103.376)"/><path fill="url(#k)" fill-rule="nonzero" stroke="#5ac8f7" stroke-linejoin="round" stroke-width=".25" d="M94.6 16.624c11.76 6.79 20.7 15.39 25.34 25.31l-30.76 4.77c-3.13-6.68-9.15-12.47-17.07-17.05-16.17-9.29-40.24-13.54-63.76-9.88L0 1.934c34.87-5.42 70.62.89 94.6 14.69Z" transform="translate(.13 103.376)"/><path stroke="#5ac8f7" stroke-linejoin="round" stroke-width=".25" d="M94.73 120c11.76 6.79 20.7 15.39 25.34 25.31l-30.76 4.77c-3.13-6.68-9.15-12.47-17.07-17.05-16.17-9.29-40.24-13.54-63.76-9.88L.13 105.31c34.87-5.42 70.62.89 94.6 14.69Z"/></g><path fill="url(#l)" fill-rule="nonzero" d="M109.51 27.17s7.73 7.73 10.44 14.25L89.19 46.2c-3.13-6.68-9.15-12.48-17.07-17-16.17-9.34-40.24-13.59-63.76-9.93L0 1.42C4 .8 12 .01 12 .01s29.9 11.76 49.55 17.66c31.2 9.36 47.96 9.5 47.96 9.5" transform="translate(.18 82.83)"/><path fill="url(#m)" fill-rule="nonzero" stroke="#5ac8f7" stroke-linejoin="round" stroke-width=".25" d="M109.46 27.17s7.88 8 10.49 14.31l-30.76 4.78c-3.13-6.68-9.15-12.48-17.07-17-16.17-9.34-40.24-13.59-63.76-9.93L0 1.42C4 .79 12.09 0 12.09 0s25.81 10.11 45 16.27c34.23 10.99 52.37 10.9 52.37 10.9Z" transform="translate(.18 82.83)"/><path stroke="#5ac8f7" stroke-linejoin="round" stroke-width=".25" d="M109.69 110s7.73 7.73 10.44 14.25l-30.76 4.78c-3.13-6.68-9.15-12.48-17.07-17-16.17-9.34-40.24-13.59-63.76-9.93L.18 84.25c4-.62 12-1.41 12-1.41s29.9 11.76 49.55 17.66c31.2 9.36 47.96 9.5 47.96 9.5Z"/><path fill="url(#n)" fill-rule="nonzero" d="m30.82 0-.06 21.07L0 25.85.06 4.78z" transform="translate(89.31 124.28)"/><path fill="url(#n)" fill-rule="nonzero" stroke="#5ac8f7" stroke-linejoin="round" stroke-width=".25" d="m30.82 0-.06 21.07L0 25.85.06 4.78z" transform="translate(89.31 124.28)"/><path stroke="#5ac8f7" stroke-linejoin="round" stroke-width=".25" d="m120.13 124.28-.06 21.07-30.76 4.78.06-21.07z"/><path fill="url(#o)" fill-rule="nonzero" stroke="#5ac8f7" stroke-linejoin="round" stroke-width=".25" d="M72.18 111.88c-16.17-9.34-40.24-13.59-63.76-9.93l-.06 21.07c23.52-3.66 47.59.59 63.76 9.92 7.92 4.58 13.94 10.37 17.07 17.05l.06-21.06c-3.13-6.67-9.15-12.47-17.07-17.05Z" transform="translate(.12 .12)"/><path fill="url(#p)" fill-rule="nonzero" d="M8.41 17.83 8.35 38.9 0 21.06.05 0z" transform="translate(.13 84.25)"/><path fill="url(#p)" fill-rule="nonzero" stroke="#5ac8f7" stroke-linejoin="round" stroke-width=".25" d="M8.41 17.83 8.35 38.9 0 21.06.05 0z" transform="translate(.13 84.25)"/><path stroke="#5ac8f7" stroke-linejoin="round" stroke-width=".25" d="m8.54 102.08-.06 21.07-8.35-17.84.05-21.06z"/><path fill="url(#q)" fill-rule="nonzero" stroke="#5ac8f7" stroke-linejoin="round" stroke-width=".25" d="M24.29 5.37a6.7 6.7 0 0 1-3.43 4c-4.75 2.76-12.48 2.76-17.26 0C-.83 6.81-1.18 2.78 2.6 0h.06a108 108 0 0 1 10.79 2c4.84 1.21 10.84 3.31 10.84 3.31a.2.2 0 0 1 0 .06Z" opacity=".2" transform="translate(37.71 122.85)"/><path fill="url(#r)" fill-rule="nonzero" stroke="#5ac8f7" stroke-linejoin="round" stroke-width=".25" d="M61.88 112.96a6.67 6.67 0 0 1-3.43 4c-4.75 2.76-12.48 2.76-17.26 0-4.43-2.56-4.78-6.59-1-9.36h.06a110 110 0 0 1 10.79 2c4.84 1.2 10.84 3.28 10.84 3.28a.3.3 0 0 1 0 .08Z" transform="translate(.12 .12)"/><path fill="url(#s)" fill-rule="nonzero" stroke="#5ac8f7" stroke-linejoin="round" stroke-width=".25" d="M61.88 112.96v15.14a6.78 6.78 0 0 1-3.44 4c-4.75 2.76-12.48 2.76-17.26 0-2.41-1.39-3.61-3.21-3.61-5v-15.16c0 1.82 1.2 3.64 3.61 5 4.78 2.76 12.51 2.76 17.26 0a6.8 6.8 0 0 0 3.44-3.98Z" transform="translate(.12 .12)"/></g></svg>