<svg xmlns="http://www.w3.org/2000/svg" viewBox="0 0 58 152"><title>Hotel(酒店)</title><defs><linearGradient id="a" x1="25.092%" x2="74.908%" y1="59.513%" y2="30.546%"><stop offset="0%" stop-color="#2a6aaf" stop-opacity="0"/><stop offset="2%" stop-color="#2c6fb2" stop-opacity=".04"/><stop offset="9%" stop-color="#3688c0" stop-opacity=".24"/><stop offset="16%" stop-color="#3e9fcd" stop-opacity=".42"/><stop offset="24%" stop-color="#46b2d9" stop-opacity=".58"/><stop offset="33%" stop-color="#4cc3e2" stop-opacity=".71"/><stop offset="42%" stop-color="#51d0ea" stop-opacity=".82"/><stop offset="52%" stop-color="#55daf0" stop-opacity=".9"/><stop offset="63%" stop-color="#58e1f4" stop-opacity=".96"/><stop offset="77%" stop-color="#5ae6f6" stop-opacity=".99"/><stop offset="100%" stop-color="#5ae7f7"/></linearGradient><linearGradient id="b" x1="24.954%" x2="75.046%" y1="59.548%" y2="30.474%"><stop offset="0%" stop-color="#2a6aaf" stop-opacity="0"/><stop offset="2%" stop-color="#2c6fb2" stop-opacity=".04"/><stop offset="9%" stop-color="#3688c0" stop-opacity=".24"/><stop offset="16%" stop-color="#3e9fcd" stop-opacity=".42"/><stop offset="24%" stop-color="#46b2d9" stop-opacity=".58"/><stop offset="33%" stop-color="#4cc3e2" stop-opacity=".71"/><stop offset="42%" stop-color="#51d0ea" stop-opacity=".82"/><stop offset="52%" stop-color="#55daf0" stop-opacity=".9"/><stop offset="63%" stop-color="#58e1f4" stop-opacity=".96"/><stop offset="77%" stop-color="#5ae6f6" stop-opacity=".99"/><stop offset="100%" stop-color="#5ae7f7"/></linearGradient><linearGradient id="c" x1="42.267%" x2="57.71%" y1="76.965%" y2="14.534%"><stop offset="0%" stop-color="#2a6aaf" stop-opacity="0"/><stop offset="2%" stop-color="#2c6fb2" stop-opacity=".04"/><stop offset="9%" stop-color="#3688c0" stop-opacity=".24"/><stop offset="16%" stop-color="#3e9fcd" stop-opacity=".42"/><stop offset="24%" stop-color="#46b2d9" stop-opacity=".58"/><stop offset="33%" stop-color="#4cc3e2" stop-opacity=".71"/><stop offset="42%" stop-color="#51d0ea" stop-opacity=".82"/><stop offset="52%" stop-color="#55daf0" stop-opacity=".9"/><stop offset="63%" stop-color="#58e1f4" stop-opacity=".96"/><stop offset="77%" stop-color="#5ae6f6" stop-opacity=".99"/><stop offset="100%" stop-color="#5ae7f7"/></linearGradient><linearGradient id="d" x1="44.012%" x2="56.01%" y1="69.835%" y2="21.664%"><stop offset="0%" stop-color="#2a6aaf" stop-opacity="0"/><stop offset="2%" stop-color="#2c6fb2" stop-opacity=".04"/><stop offset="9%" stop-color="#3688c0" stop-opacity=".24"/><stop offset="16%" stop-color="#3e9fcd" stop-opacity=".42"/><stop offset="24%" stop-color="#46b2d9" stop-opacity=".58"/><stop offset="33%" stop-color="#4cc3e2" stop-opacity=".71"/><stop offset="42%" stop-color="#51d0ea" stop-opacity=".82"/><stop offset="52%" stop-color="#55daf0" stop-opacity=".9"/><stop offset="63%" stop-color="#58e1f4" stop-opacity=".96"/><stop offset="77%" stop-color="#5ae6f6" stop-opacity=".99"/><stop offset="100%" stop-color="#5ae7f7"/></linearGradient><linearGradient id="e" x1="42.29%" x2="57.733%" y1="76.965%" y2="14.625%"><stop offset="0%" stop-color="#2a6aaf" stop-opacity="0"/><stop offset="2%" stop-color="#2c6fb2" stop-opacity=".04"/><stop offset="9%" stop-color="#3688c0" stop-opacity=".24"/><stop offset="16%" stop-color="#3e9fcd" stop-opacity=".42"/><stop offset="24%" stop-color="#46b2d9" stop-opacity=".58"/><stop offset="33%" stop-color="#4cc3e2" stop-opacity=".71"/><stop offset="42%" stop-color="#51d0ea" stop-opacity=".82"/><stop offset="52%" stop-color="#55daf0" stop-opacity=".9"/><stop offset="63%" stop-color="#58e1f4" stop-opacity=".96"/><stop offset="77%" stop-color="#5ae6f6" stop-opacity=".99"/><stop offset="100%" stop-color="#5ae7f7"/></linearGradient><linearGradient id="f" x1="43.99%" x2="56.01%" y1="69.835%" y2="21.664%"><stop offset="0%" stop-color="#2a6aaf" stop-opacity="0"/><stop offset="2%" stop-color="#2c6fb2" stop-opacity=".04"/><stop offset="9%" stop-color="#3688c0" stop-opacity=".24"/><stop offset="16%" stop-color="#3e9fcd" stop-opacity=".42"/><stop offset="24%" stop-color="#46b2d9" stop-opacity=".58"/><stop offset="33%" stop-color="#4cc3e2" stop-opacity=".71"/><stop offset="42%" stop-color="#51d0ea" stop-opacity=".82"/><stop offset="52%" stop-color="#55daf0" stop-opacity=".9"/><stop offset="63%" stop-color="#58e1f4" stop-opacity=".96"/><stop offset="77%" stop-color="#5ae6f6" stop-opacity=".99"/><stop offset="100%" stop-color="#5ae7f7"/></linearGradient><linearGradient id="g" x1="42.267%" x2="57.733%" y1="80.79%" y2="18.4%"><stop offset="0%" stop-color="#2a6aaf" stop-opacity="0"/><stop offset="2%" stop-color="#2c6eb2" stop-opacity=".03"/><stop offset="11%" stop-color="#3886c4" stop-opacity=".18"/><stop offset="21%" stop-color="#439ad4" stop-opacity=".31"/><stop offset="32%" stop-color="#4babe1" stop-opacity=".42"/><stop offset="44%" stop-color="#52b8eb" stop-opacity=".5"/><stop offset="57%" stop-color="#56c1f2" stop-opacity=".56"/><stop offset="73%" stop-color="#59c6f6" stop-opacity=".59"/><stop offset="100%" stop-color="#5ac8f7" stop-opacity=".6"/></linearGradient><linearGradient id="h" x1="43.996%" x2="56.004%" y1="73.668%" y2="25.522%"><stop offset="0%" stop-color="#2a6aaf" stop-opacity="0"/><stop offset="2%" stop-color="#2c6eb2" stop-opacity=".03"/><stop offset="11%" stop-color="#3886c4" stop-opacity=".18"/><stop offset="21%" stop-color="#439ad4" stop-opacity=".31"/><stop offset="32%" stop-color="#4babe1" stop-opacity=".42"/><stop offset="44%" stop-color="#52b8eb" stop-opacity=".5"/><stop offset="57%" stop-color="#56c1f2" stop-opacity=".56"/><stop offset="73%" stop-color="#59c6f6" stop-opacity=".59"/><stop offset="100%" stop-color="#5ac8f7" stop-opacity=".6"/></linearGradient><linearGradient id="i" x1="24.996%" x2="75.004%" y1="64.005%" y2="35.048%"><stop offset="0%" stop-color="#2a6aaf" stop-opacity="0"/><stop offset="2%" stop-color="#2c6eb2" stop-opacity=".03"/><stop offset="11%" stop-color="#3886c4" stop-opacity=".18"/><stop offset="21%" stop-color="#439ad4" stop-opacity=".31"/><stop offset="32%" stop-color="#4babe1" stop-opacity=".42"/><stop offset="44%" stop-color="#52b8eb" stop-opacity=".5"/><stop offset="57%" stop-color="#56c1f2" stop-opacity=".56"/><stop offset="73%" stop-color="#59c6f6" stop-opacity=".59"/><stop offset="100%" stop-color="#5ac8f7" stop-opacity=".6"/></linearGradient><linearGradient id="j" x1="24.996%" x2="75.004%" y1="64.005%" y2="35.048%"><stop offset="0%" stop-color="#0c1e33" stop-opacity=".8"/><stop offset="100%" stop-color="#000714"/></linearGradient><linearGradient id="k" x1="42.267%" x2="57.733%" y1="81.199%" y2="18.801%"><stop offset="0%" stop-color="#5ae7f7"/><stop offset="23%" stop-color="#5ae6f6" stop-opacity=".99"/><stop offset="37%" stop-color="#58e1f4" stop-opacity=".96"/><stop offset="48%" stop-color="#55daf0" stop-opacity=".9"/><stop offset="58%" stop-color="#51d0ea" stop-opacity=".82"/><stop offset="67%" stop-color="#4cc3e2" stop-opacity=".71"/><stop offset="76%" stop-color="#46b2d9" stop-opacity=".58"/><stop offset="84%" stop-color="#3e9fcd" stop-opacity=".42"/><stop offset="91%" stop-color="#3688c0" stop-opacity=".24"/><stop offset="98%" stop-color="#2c6fb2" stop-opacity=".04"/><stop offset="100%" stop-color="#2a6aaf" stop-opacity="0"/></linearGradient><linearGradient id="l" x1="43.996%" x2="56.004%" y1="73.67%" y2="25.529%"><stop offset="0%" stop-color="#2a6aaf" stop-opacity="0"/><stop offset="2%" stop-color="#2c6eb2" stop-opacity=".03"/><stop offset="11%" stop-color="#3886c4" stop-opacity=".18"/><stop offset="21%" stop-color="#439ad4" stop-opacity=".31"/><stop offset="32%" stop-color="#4babe1" stop-opacity=".42"/><stop offset="44%" stop-color="#52b8eb" stop-opacity=".5"/><stop offset="57%" stop-color="#56c1f2" stop-opacity=".56"/><stop offset="73%" stop-color="#59c6f6" stop-opacity=".59"/><stop offset="100%" stop-color="#5ac8f7" stop-opacity=".6"/></linearGradient><linearGradient id="m" x1="43.996%" x2="56.004%" y1="74.071%" y2="25.929%"><stop offset="0%" stop-color="#5ae7f7"/><stop offset="23%" stop-color="#5ae6f6" stop-opacity=".99"/><stop offset="37%" stop-color="#58e1f4" stop-opacity=".96"/><stop offset="48%" stop-color="#55daf0" stop-opacity=".9"/><stop offset="58%" stop-color="#51d0ea" stop-opacity=".82"/><stop offset="67%" stop-color="#4cc3e2" stop-opacity=".71"/><stop offset="76%" stop-color="#46b2d9" stop-opacity=".58"/><stop offset="84%" stop-color="#3e9fcd" stop-opacity=".42"/><stop offset="91%" stop-color="#3688c0" stop-opacity=".24"/><stop offset="98%" stop-color="#2c6fb2" stop-opacity=".04"/><stop offset="100%" stop-color="#2a6aaf" stop-opacity="0"/></linearGradient><linearGradient id="n" x1="25.005%" x2="74.995%" y1="63.961%" y2="34.989%"><stop offset="0%" stop-color="#2a6aaf" stop-opacity="0"/><stop offset="2%" stop-color="#2c6eb2" stop-opacity=".03"/><stop offset="11%" stop-color="#3886c4" stop-opacity=".18"/><stop offset="21%" stop-color="#439ad4" stop-opacity=".31"/><stop offset="32%" stop-color="#4babe1" stop-opacity=".42"/><stop offset="44%" stop-color="#52b8eb" stop-opacity=".5"/><stop offset="57%" stop-color="#56c1f2" stop-opacity=".56"/><stop offset="73%" stop-color="#59c6f6" stop-opacity=".59"/><stop offset="100%" stop-color="#5ac8f7" stop-opacity=".6"/></linearGradient><linearGradient id="o" x1="24.99%" x2="75.01%" y1="63.966%" y2="34.983%"><stop offset="0%" stop-color="#0c1e33" stop-opacity=".8"/><stop offset="100%" stop-color="#000714"/></linearGradient><linearGradient id="p" x1="6.216%" x2="93.784%" y1="81.508%" y2="15.745%"><stop offset="0%" stop-color="#2a6aaf" stop-opacity="0"/><stop offset="2%" stop-color="#2c6fb2" stop-opacity=".04"/><stop offset="9%" stop-color="#3688c0" stop-opacity=".24"/><stop offset="16%" stop-color="#3e9fcd" stop-opacity=".42"/><stop offset="24%" stop-color="#46b2d9" stop-opacity=".58"/><stop offset="33%" stop-color="#4cc3e2" stop-opacity=".71"/><stop offset="42%" stop-color="#51d0ea" stop-opacity=".82"/><stop offset="52%" stop-color="#55daf0" stop-opacity=".9"/><stop offset="63%" stop-color="#58e1f4" stop-opacity=".96"/><stop offset="77%" stop-color="#5ae6f6" stop-opacity=".99"/><stop offset="100%" stop-color="#5ae7f7"/></linearGradient><linearGradient id="q" x1="6.216%" x2="93.784%" y1="82.867%" y2="17.133%"><stop offset="0%" stop-color="#5ae7f7"/><stop offset="23%" stop-color="#5ae6f6" stop-opacity=".99"/><stop offset="37%" stop-color="#58e1f4" stop-opacity=".96"/><stop offset="48%" stop-color="#55daf0" stop-opacity=".9"/><stop offset="58%" stop-color="#51d0ea" stop-opacity=".82"/><stop offset="67%" stop-color="#4cc3e2" stop-opacity=".71"/><stop offset="76%" stop-color="#46b2d9" stop-opacity=".58"/><stop offset="84%" stop-color="#3e9fcd" stop-opacity=".42"/><stop offset="91%" stop-color="#3688c0" stop-opacity=".24"/><stop offset="98%" stop-color="#2c6fb2" stop-opacity=".04"/><stop offset="100%" stop-color="#2a6aaf" stop-opacity="0"/></linearGradient><linearGradient id="r" x1="35.066%" x2="64.934%" y1="59.788%" y2="37.499%"><stop offset="0%" stop-color="#2a6aaf" stop-opacity="0"/><stop offset="2%" stop-color="#2c6fb2" stop-opacity=".04"/><stop offset="9%" stop-color="#3688c0" stop-opacity=".24"/><stop offset="16%" stop-color="#3e9fcd" stop-opacity=".42"/><stop offset="24%" stop-color="#46b2d9" stop-opacity=".58"/><stop offset="33%" stop-color="#4cc3e2" stop-opacity=".71"/><stop offset="42%" stop-color="#51d0ea" stop-opacity=".82"/><stop offset="52%" stop-color="#55daf0" stop-opacity=".9"/><stop offset="63%" stop-color="#58e1f4" stop-opacity=".96"/><stop offset="77%" stop-color="#5ae6f6" stop-opacity=".99"/><stop offset="100%" stop-color="#5ae7f7"/></linearGradient><linearGradient id="s" x1="6.216%" x2="93.784%" y1="81.508%" y2="15.774%"><stop offset="0%" stop-color="#2a6aaf" stop-opacity="0"/><stop offset="2%" stop-color="#2c6eb2" stop-opacity=".03"/><stop offset="11%" stop-color="#3886c4" stop-opacity=".18"/><stop offset="21%" stop-color="#439ad4" stop-opacity=".31"/><stop offset="32%" stop-color="#4babe1" stop-opacity=".42"/><stop offset="44%" stop-color="#52b8eb" stop-opacity=".5"/><stop offset="57%" stop-color="#56c1f2" stop-opacity=".56"/><stop offset="73%" stop-color="#59c6f6" stop-opacity=".59"/><stop offset="100%" stop-color="#5ac8f7" stop-opacity=".6"/></linearGradient><linearGradient id="t" x1="35.066%" x2="64.934%" y1="59.788%" y2="37.499%"><stop offset="0%" stop-color="#2a6aaf" stop-opacity="0"/><stop offset="2%" stop-color="#2c6eb2" stop-opacity=".03"/><stop offset="11%" stop-color="#3886c4" stop-opacity=".18"/><stop offset="21%" stop-color="#439ad4" stop-opacity=".31"/><stop offset="32%" stop-color="#4babe1" stop-opacity=".42"/><stop offset="44%" stop-color="#52b8eb" stop-opacity=".5"/><stop offset="57%" stop-color="#56c1f2" stop-opacity=".56"/><stop offset="73%" stop-color="#59c6f6" stop-opacity=".59"/><stop offset="100%" stop-color="#5ac8f7" stop-opacity=".6"/></linearGradient><linearGradient id="u" x1="42.267%" x2="57.71%" y1="81.17%" y2="18.83%"><stop offset="0%" stop-color="#5ae7f7"/><stop offset="23%" stop-color="#5ae6f6" stop-opacity=".99"/><stop offset="37%" stop-color="#58e1f4" stop-opacity=".96"/><stop offset="48%" stop-color="#55daf0" stop-opacity=".9"/><stop offset="58%" stop-color="#51d0ea" stop-opacity=".82"/><stop offset="67%" stop-color="#4cc3e2" stop-opacity=".71"/><stop offset="76%" stop-color="#46b2d9" stop-opacity=".58"/><stop offset="84%" stop-color="#3e9fcd" stop-opacity=".42"/><stop offset="91%" stop-color="#3688c0" stop-opacity=".24"/><stop offset="98%" stop-color="#2c6fb2" stop-opacity=".04"/><stop offset="100%" stop-color="#2a6aaf" stop-opacity="0"/></linearGradient><linearGradient id="v" x1="44.012%" x2="56.01%" y1="69.835%" y2="21.664%"><stop offset="0%" stop-color="#5ae7f7"/><stop offset="23%" stop-color="#5ae6f6" stop-opacity=".99"/><stop offset="37%" stop-color="#58e1f4" stop-opacity=".96"/><stop offset="48%" stop-color="#55daf0" stop-opacity=".9"/><stop offset="58%" stop-color="#51d0ea" stop-opacity=".82"/><stop offset="67%" stop-color="#4cc3e2" stop-opacity=".71"/><stop offset="76%" stop-color="#46b2d9" stop-opacity=".58"/><stop offset="84%" stop-color="#3e9fcd" stop-opacity=".42"/><stop offset="91%" stop-color="#3688c0" stop-opacity=".24"/><stop offset="98%" stop-color="#2c6fb2" stop-opacity=".04"/><stop offset="100%" stop-color="#2a6aaf" stop-opacity="0"/></linearGradient><linearGradient id="w" x1="44.012%" x2="56.01%" y1="74.04%" y2="25.96%"><stop offset="0%" stop-color="#2a6aaf" stop-opacity="0"/><stop offset="2%" stop-color="#2c6fb2" stop-opacity=".04"/><stop offset="9%" stop-color="#3688c0" stop-opacity=".24"/><stop offset="16%" stop-color="#3e9fcd" stop-opacity=".42"/><stop offset="24%" stop-color="#46b2d9" stop-opacity=".58"/><stop offset="33%" stop-color="#4cc3e2" stop-opacity=".71"/><stop offset="42%" stop-color="#51d0ea" stop-opacity=".82"/><stop offset="52%" stop-color="#55daf0" stop-opacity=".9"/><stop offset="63%" stop-color="#58e1f4" stop-opacity=".96"/><stop offset="77%" stop-color="#5ae6f6" stop-opacity=".99"/><stop offset="100%" stop-color="#5ae7f7"/></linearGradient><linearGradient id="x" x1="43.99%" x2="56.01%" y1="69.835%" y2="21.755%"><stop offset="0%" stop-color="#2a6aaf" stop-opacity="0"/><stop offset="2%" stop-color="#2c6fb2" stop-opacity=".04"/><stop offset="9%" stop-color="#3688c0" stop-opacity=".24"/><stop offset="16%" stop-color="#3e9fcd" stop-opacity=".42"/><stop offset="24%" stop-color="#46b2d9" stop-opacity=".58"/><stop offset="33%" stop-color="#4cc3e2" stop-opacity=".71"/><stop offset="42%" stop-color="#51d0ea" stop-opacity=".82"/><stop offset="52%" stop-color="#55daf0" stop-opacity=".9"/><stop offset="63%" stop-color="#58e1f4" stop-opacity=".96"/><stop offset="77%" stop-color="#5ae6f6" stop-opacity=".99"/><stop offset="100%" stop-color="#5ae7f7"/></linearGradient><linearGradient id="y" x1="24.954%" x2="75.046%" y1="59.464%" y2="30.59%"><stop offset="0%" stop-color="#2a6aaf" stop-opacity="0"/><stop offset="2%" stop-color="#2c6fb2" stop-opacity=".04"/><stop offset="9%" stop-color="#3688c0" stop-opacity=".24"/><stop offset="16%" stop-color="#3e9fcd" stop-opacity=".42"/><stop offset="24%" stop-color="#46b2d9" stop-opacity=".58"/><stop offset="33%" stop-color="#4cc3e2" stop-opacity=".71"/><stop offset="42%" stop-color="#51d0ea" stop-opacity=".82"/><stop offset="52%" stop-color="#55daf0" stop-opacity=".9"/><stop offset="63%" stop-color="#58e1f4" stop-opacity=".96"/><stop offset="77%" stop-color="#5ae6f6" stop-opacity=".99"/><stop offset="100%" stop-color="#5ae7f7"/></linearGradient><linearGradient id="z" x1="25.139%" x2="75.046%" y1="59.464%" y2="30.59%"><stop offset="0%" stop-color="#2a6aaf" stop-opacity="0"/><stop offset="2%" stop-color="#2c6fb2" stop-opacity=".04"/><stop offset="9%" stop-color="#3688c0" stop-opacity=".24"/><stop offset="16%" stop-color="#3e9fcd" stop-opacity=".42"/><stop offset="24%" stop-color="#46b2d9" stop-opacity=".58"/><stop offset="33%" stop-color="#4cc3e2" stop-opacity=".71"/><stop offset="42%" stop-color="#51d0ea" stop-opacity=".82"/><stop offset="52%" stop-color="#55daf0" stop-opacity=".9"/><stop offset="63%" stop-color="#58e1f4" stop-opacity=".96"/><stop offset="77%" stop-color="#5ae6f6" stop-opacity=".99"/><stop offset="100%" stop-color="#5ae7f7"/></linearGradient><linearGradient id="A" x1="42.276%" x2="57.747%" y1="76.944%" y2="14.547%"><stop offset="0%" stop-color="#2a6aaf" stop-opacity="0"/><stop offset="2%" stop-color="#2c6fb2" stop-opacity=".04"/><stop offset="9%" stop-color="#3688c0" stop-opacity=".24"/><stop offset="16%" stop-color="#3e9fcd" stop-opacity=".42"/><stop offset="24%" stop-color="#46b2d9" stop-opacity=".58"/><stop offset="33%" stop-color="#4cc3e2" stop-opacity=".71"/><stop offset="42%" stop-color="#51d0ea" stop-opacity=".82"/><stop offset="52%" stop-color="#55daf0" stop-opacity=".9"/><stop offset="63%" stop-color="#58e1f4" stop-opacity=".96"/><stop offset="77%" stop-color="#5ae6f6" stop-opacity=".99"/><stop offset="100%" stop-color="#5ae7f7"/></linearGradient><linearGradient id="B" x1="42.276%" x2="57.747%" y1="81.153%" y2="18.756%"><stop offset="0%" stop-color="#5ae7f7"/><stop offset="23%" stop-color="#5ae6f6" stop-opacity=".99"/><stop offset="37%" stop-color="#58e1f4" stop-opacity=".96"/><stop offset="48%" stop-color="#55daf0" stop-opacity=".9"/><stop offset="58%" stop-color="#51d0ea" stop-opacity=".82"/><stop offset="67%" stop-color="#4cc3e2" stop-opacity=".71"/><stop offset="76%" stop-color="#46b2d9" stop-opacity=".58"/><stop offset="84%" stop-color="#3e9fcd" stop-opacity=".42"/><stop offset="91%" stop-color="#3688c0" stop-opacity=".24"/><stop offset="98%" stop-color="#2c6fb2" stop-opacity=".04"/><stop offset="100%" stop-color="#2a6aaf" stop-opacity="0"/></linearGradient><linearGradient id="C" x1="43.979%" x2="56.021%" y1="69.808%" y2="21.683%"><stop offset="0%" stop-color="#2a6aaf" stop-opacity="0"/><stop offset="2%" stop-color="#2c6fb2" stop-opacity=".04"/><stop offset="9%" stop-color="#3688c0" stop-opacity=".24"/><stop offset="16%" stop-color="#3e9fcd" stop-opacity=".42"/><stop offset="24%" stop-color="#46b2d9" stop-opacity=".58"/><stop offset="33%" stop-color="#4cc3e2" stop-opacity=".71"/><stop offset="42%" stop-color="#51d0ea" stop-opacity=".82"/><stop offset="52%" stop-color="#55daf0" stop-opacity=".9"/><stop offset="63%" stop-color="#58e1f4" stop-opacity=".96"/><stop offset="77%" stop-color="#5ae6f6" stop-opacity=".99"/><stop offset="100%" stop-color="#5ae7f7"/></linearGradient><linearGradient id="D" x1="43.979%" x2="56.021%" y1="74.108%" y2="25.892%"><stop offset="0%" stop-color="#5ae7f7"/><stop offset="23%" stop-color="#5ae6f6" stop-opacity=".99"/><stop offset="37%" stop-color="#58e1f4" stop-opacity=".96"/><stop offset="48%" stop-color="#55daf0" stop-opacity=".9"/><stop offset="58%" stop-color="#51d0ea" stop-opacity=".82"/><stop offset="67%" stop-color="#4cc3e2" stop-opacity=".71"/><stop offset="76%" stop-color="#46b2d9" stop-opacity=".58"/><stop offset="84%" stop-color="#3e9fcd" stop-opacity=".42"/><stop offset="91%" stop-color="#3688c0" stop-opacity=".24"/><stop offset="98%" stop-color="#2c6fb2" stop-opacity=".04"/><stop offset="100%" stop-color="#2a6aaf" stop-opacity="0"/></linearGradient><linearGradient id="E" x1="42.253%" x2="57.747%" y1="76.944%" y2="14.547%"><stop offset="0%" stop-color="#2a6aaf" stop-opacity="0"/><stop offset="2%" stop-color="#2c6fb2" stop-opacity=".04"/><stop offset="9%" stop-color="#3688c0" stop-opacity=".24"/><stop offset="16%" stop-color="#3e9fcd" stop-opacity=".42"/><stop offset="24%" stop-color="#46b2d9" stop-opacity=".58"/><stop offset="33%" stop-color="#4cc3e2" stop-opacity=".71"/><stop offset="42%" stop-color="#51d0ea" stop-opacity=".82"/><stop offset="52%" stop-color="#55daf0" stop-opacity=".9"/><stop offset="63%" stop-color="#58e1f4" stop-opacity=".96"/><stop offset="77%" stop-color="#5ae6f6" stop-opacity=".99"/><stop offset="100%" stop-color="#5ae7f7"/></linearGradient><linearGradient id="F" x1="44.012%" x2="55.988%" y1="69.808%" y2="21.683%"><stop offset="0%" stop-color="#2a6aaf" stop-opacity="0"/><stop offset="2%" stop-color="#2c6fb2" stop-opacity=".04"/><stop offset="9%" stop-color="#3688c0" stop-opacity=".24"/><stop offset="16%" stop-color="#3e9fcd" stop-opacity=".42"/><stop offset="24%" stop-color="#46b2d9" stop-opacity=".58"/><stop offset="33%" stop-color="#4cc3e2" stop-opacity=".71"/><stop offset="42%" stop-color="#51d0ea" stop-opacity=".82"/><stop offset="52%" stop-color="#55daf0" stop-opacity=".9"/><stop offset="63%" stop-color="#58e1f4" stop-opacity=".96"/><stop offset="77%" stop-color="#5ae6f6" stop-opacity=".99"/><stop offset="100%" stop-color="#5ae7f7"/></linearGradient><linearGradient id="G" x1="43.979%" x2="55.999%" y1="69.808%" y2="21.683%"><stop offset="0%" stop-color="#2a6aaf" stop-opacity="0"/><stop offset="2%" stop-color="#2c6fb2" stop-opacity=".04"/><stop offset="9%" stop-color="#3688c0" stop-opacity=".24"/><stop offset="16%" stop-color="#3e9fcd" stop-opacity=".42"/><stop offset="24%" stop-color="#46b2d9" stop-opacity=".58"/><stop offset="33%" stop-color="#4cc3e2" stop-opacity=".71"/><stop offset="42%" stop-color="#51d0ea" stop-opacity=".82"/><stop offset="52%" stop-color="#55daf0" stop-opacity=".9"/><stop offset="63%" stop-color="#58e1f4" stop-opacity=".96"/><stop offset="77%" stop-color="#5ae6f6" stop-opacity=".99"/><stop offset="100%" stop-color="#5ae7f7"/></linearGradient><linearGradient id="H" x1="43.979%" x2="55.999%" y1="74.108%" y2="25.892%"><stop offset="0%" stop-color="#5ae7f7"/><stop offset="23%" stop-color="#5ae6f6" stop-opacity=".99"/><stop offset="37%" stop-color="#58e1f4" stop-opacity=".96"/><stop offset="48%" stop-color="#55daf0" stop-opacity=".9"/><stop offset="58%" stop-color="#51d0ea" stop-opacity=".82"/><stop offset="67%" stop-color="#4cc3e2" stop-opacity=".71"/><stop offset="76%" stop-color="#46b2d9" stop-opacity=".58"/><stop offset="84%" stop-color="#3e9fcd" stop-opacity=".42"/><stop offset="91%" stop-color="#3688c0" stop-opacity=".24"/><stop offset="98%" stop-color="#2c6fb2" stop-opacity=".04"/><stop offset="100%" stop-color="#2a6aaf" stop-opacity="0"/></linearGradient><linearGradient id="I" x1="44.001%" x2="56.021%" y1="69.808%" y2="21.683%"><stop offset="0%" stop-color="#2a6aaf" stop-opacity="0"/><stop offset="2%" stop-color="#2c6fb2" stop-opacity=".04"/><stop offset="9%" stop-color="#3688c0" stop-opacity=".24"/><stop offset="16%" stop-color="#3e9fcd" stop-opacity=".42"/><stop offset="24%" stop-color="#46b2d9" stop-opacity=".58"/><stop offset="33%" stop-color="#4cc3e2" stop-opacity=".71"/><stop offset="42%" stop-color="#51d0ea" stop-opacity=".82"/><stop offset="52%" stop-color="#55daf0" stop-opacity=".9"/><stop offset="63%" stop-color="#58e1f4" stop-opacity=".96"/><stop offset="77%" stop-color="#5ae6f6" stop-opacity=".99"/><stop offset="100%" stop-color="#5ae7f7"/></linearGradient><linearGradient id="J" x1="24.982%" x2="75%" y1="64.487%" y2="35.513%"><stop offset="0%" stop-color="#2a6aaf" stop-opacity="0"/><stop offset="2%" stop-color="#2c6eb2" stop-opacity=".03"/><stop offset="11%" stop-color="#3886c4" stop-opacity=".18"/><stop offset="21%" stop-color="#439ad4" stop-opacity=".31"/><stop offset="32%" stop-color="#4babe1" stop-opacity=".42"/><stop offset="44%" stop-color="#52b8eb" stop-opacity=".5"/><stop offset="57%" stop-color="#56c1f2" stop-opacity=".56"/><stop offset="73%" stop-color="#59c6f6" stop-opacity=".59"/><stop offset="100%" stop-color="#5ac8f7" stop-opacity=".6"/></linearGradient><linearGradient id="K" x1="25%" x2="75%" y1="64.009%" y2="35.044%"><stop offset="0%" stop-color="#0c1e33" stop-opacity=".8"/><stop offset="100%" stop-color="#000714"/></linearGradient><linearGradient id="L" x1="25%" x2="75%" y1="64.478%" y2="35.522%"><stop offset="0%" stop-color="#0c1e33" stop-opacity=".8"/><stop offset="100%" stop-color="#000714"/></linearGradient><linearGradient id="M" x1="6.246%" x2="93.754%" y1="81.642%" y2="15.908%"><stop offset="0%" stop-color="#2a6aaf" stop-opacity="0"/><stop offset="2%" stop-color="#2c6fb2" stop-opacity=".04"/><stop offset="9%" stop-color="#3688c0" stop-opacity=".24"/><stop offset="16%" stop-color="#3e9fcd" stop-opacity=".42"/><stop offset="24%" stop-color="#46b2d9" stop-opacity=".58"/><stop offset="33%" stop-color="#4cc3e2" stop-opacity=".71"/><stop offset="42%" stop-color="#51d0ea" stop-opacity=".82"/><stop offset="52%" stop-color="#55daf0" stop-opacity=".9"/><stop offset="63%" stop-color="#58e1f4" stop-opacity=".96"/><stop offset="77%" stop-color="#5ae6f6" stop-opacity=".99"/><stop offset="100%" stop-color="#5ae7f7"/></linearGradient><linearGradient id="N" x1="6.246%" x2="93.754%" y1="82.854%" y2="17.146%"><stop offset="0%" stop-color="#5ae7f7"/><stop offset="23%" stop-color="#5ae6f6" stop-opacity=".99"/><stop offset="37%" stop-color="#58e1f4" stop-opacity=".96"/><stop offset="48%" stop-color="#55daf0" stop-opacity=".9"/><stop offset="58%" stop-color="#51d0ea" stop-opacity=".82"/><stop offset="67%" stop-color="#4cc3e2" stop-opacity=".71"/><stop offset="76%" stop-color="#46b2d9" stop-opacity=".58"/><stop offset="84%" stop-color="#3e9fcd" stop-opacity=".42"/><stop offset="91%" stop-color="#3688c0" stop-opacity=".24"/><stop offset="98%" stop-color="#2c6fb2" stop-opacity=".04"/><stop offset="100%" stop-color="#2a6aaf" stop-opacity="0"/><stop offset="100%" stop-color="#2b6cb0" stop-opacity=".01"/><stop offset="100%" stop-color="#2d71b3" stop-opacity=".06"/><stop offset="100%" stop-color="#2e73b4" stop-opacity=".08"/></linearGradient><linearGradient id="O" x1="35.054%" x2="64.911%" y1="59.928%" y2="37.652%"><stop offset="0%" stop-color="#2a6aaf" stop-opacity="0"/><stop offset="2%" stop-color="#2c6fb2" stop-opacity=".04"/><stop offset="9%" stop-color="#3688c0" stop-opacity=".24"/><stop offset="16%" stop-color="#3e9fcd" stop-opacity=".42"/><stop offset="24%" stop-color="#46b2d9" stop-opacity=".58"/><stop offset="33%" stop-color="#4cc3e2" stop-opacity=".71"/><stop offset="42%" stop-color="#51d0ea" stop-opacity=".82"/><stop offset="52%" stop-color="#55daf0" stop-opacity=".9"/><stop offset="63%" stop-color="#58e1f4" stop-opacity=".96"/><stop offset="77%" stop-color="#5ae6f6" stop-opacity=".99"/><stop offset="100%" stop-color="#5ae7f7"/></linearGradient><linearGradient id="P" x1="6.213%" x2="93.752%" y1="81.664%" y2="15.884%"><stop offset="0%" stop-color="#2a6aaf" stop-opacity="0"/><stop offset="2%" stop-color="#2c6eb2" stop-opacity=".03"/><stop offset="11%" stop-color="#3886c4" stop-opacity=".18"/><stop offset="21%" stop-color="#439ad4" stop-opacity=".31"/><stop offset="32%" stop-color="#4babe1" stop-opacity=".42"/><stop offset="44%" stop-color="#52b8eb" stop-opacity=".5"/><stop offset="57%" stop-color="#56c1f2" stop-opacity=".56"/><stop offset="73%" stop-color="#59c6f6" stop-opacity=".59"/><stop offset="100%" stop-color="#5ac8f7" stop-opacity=".6"/></linearGradient><linearGradient id="Q" x1="35.054%" x2="64.911%" y1="59.928%" y2="37.652%"><stop offset="0%" stop-color="#2a6aaf" stop-opacity="0"/><stop offset="2%" stop-color="#2c6eb2" stop-opacity=".03"/><stop offset="11%" stop-color="#3886c4" stop-opacity=".18"/><stop offset="21%" stop-color="#439ad4" stop-opacity=".31"/><stop offset="32%" stop-color="#4babe1" stop-opacity=".42"/><stop offset="44%" stop-color="#52b8eb" stop-opacity=".5"/><stop offset="57%" stop-color="#56c1f2" stop-opacity=".56"/><stop offset="73%" stop-color="#59c6f6" stop-opacity=".59"/><stop offset="100%" stop-color="#5ac8f7" stop-opacity=".6"/></linearGradient><linearGradient id="R" x1="78.53%" x2="21.476%" y1="64.138%" y2="42.96%"><stop offset="0%" stop-color="#2e73b4" stop-opacity=".08"/><stop offset="0%" stop-color="#2d71b3" stop-opacity=".06"/><stop offset="0%" stop-color="#2b6cb0" stop-opacity=".01"/><stop offset="0%" stop-color="#2a6aaf" stop-opacity="0"/><stop offset="2%" stop-color="#2c6fb2" stop-opacity=".04"/><stop offset="9%" stop-color="#3688c0" stop-opacity=".24"/><stop offset="16%" stop-color="#3e9fcd" stop-opacity=".42"/><stop offset="24%" stop-color="#46b2d9" stop-opacity=".58"/><stop offset="33%" stop-color="#4cc3e2" stop-opacity=".71"/><stop offset="42%" stop-color="#51d0ea" stop-opacity=".82"/><stop offset="52%" stop-color="#55daf0" stop-opacity=".9"/><stop offset="63%" stop-color="#58e1f4" stop-opacity=".96"/><stop offset="77%" stop-color="#5ae6f6" stop-opacity=".99"/><stop offset="100%" stop-color="#5ae7f7"/></linearGradient></defs><g fill="none" fill-rule="evenodd"><g opacity=".2"><path fill="url(#a)" fill-rule="nonzero" d="m5.42 1.57-2.7 1.57L0 1.57 2.7 0z" transform="translate(26.04 17.11)"/><path fill="url(#a)" fill-rule="nonzero" stroke="#5ac8f7" stroke-linejoin="round" stroke-width=".25" d="m5.42 1.57-2.7 1.57L0 1.57 2.7 0z" transform="translate(26.04 17.11)"/><path stroke="#5ac8f7" stroke-linejoin="round" stroke-width=".25" d="m31.46 18.68-2.7 1.57-2.72-1.57 2.7-1.57z"/></g><path fill="url(#b)" fill-rule="nonzero" d="m31.273 8.517-2.7 1.57-2.71-1.57 2.69-1.57z" transform="translate(.197 .793)"/><path fill="url(#b)" fill-rule="nonzero" stroke="#5ac8f7" stroke-linejoin="round" stroke-width=".25" d="m31.273 8.517-2.7 1.57-2.71-1.57 2.69-1.57z" opacity=".2" transform="translate(.197 .793)"/><path stroke="#5ac8f7" stroke-linejoin="round" stroke-width=".25" d="m31.47 9.31-2.7 1.57-2.71-1.57 2.69-1.57z"/><path fill="url(#c)" fill-rule="nonzero" d="m31.273 8.517-.01 9.37-2.7 1.57.01-9.37z" transform="translate(.197 .793)"/><path fill="url(#c)" fill-rule="nonzero" stroke="#5ac8f7" stroke-linejoin="round" stroke-width=".25" d="m31.273 8.517-.01 9.37-2.7 1.57.01-9.37z" transform="translate(.197 .793)"/><path stroke="#5ac8f7" stroke-linejoin="round" stroke-width=".25" d="m31.47 9.31-.01 9.37-2.7 1.57.01-9.37z"/><path fill="url(#d)" fill-rule="nonzero" d="m28.573 10.087-.01 9.37-2.72-1.57.02-9.37z" transform="translate(.197 .793)"/><path fill="url(#d)" fill-rule="nonzero" stroke="#5ac8f7" stroke-linejoin="round" stroke-width=".25" d="m28.573 10.087-.01 9.37-2.72-1.57.02-9.37z" transform="translate(.197 .793)"/><path stroke="#5ac8f7" stroke-linejoin="round" stroke-width=".25" d="m28.77 10.88-.01 9.37-2.72-1.57.02-9.37z"/><g opacity=".2"><path fill="url(#e)" fill-rule="nonzero" d="M.02 1.57 2.71 0 2.7 9.37 0 10.94z" transform="translate(26.04 7.74)"/><path fill="url(#e)" fill-rule="nonzero" stroke="#5ac8f7" stroke-linejoin="round" stroke-width=".25" d="M.02 1.57 2.71 0 2.7 9.37 0 10.94z" transform="translate(26.04 7.74)"/><path stroke="#5ac8f7" stroke-linejoin="round" stroke-width=".25" d="m26.06 9.31 2.69-1.57-.01 9.37-2.7 1.57z"/></g><g opacity=".2"><path fill="url(#f)" fill-rule="nonzero" d="m.01 0 2.72 1.57-.01 9.37L0 9.37z" transform="translate(28.74 7.74)"/><path fill="url(#f)" fill-rule="nonzero" stroke="#5ac8f7" stroke-linejoin="round" stroke-width=".25" d="m.01 0 2.72 1.57-.01 9.37L0 9.37z" transform="translate(28.74 7.74)"/><path stroke="#5ac8f7" stroke-linejoin="round" stroke-width=".25" d="m28.75 7.74 2.72 1.57-.01 9.37-2.72-1.57z"/></g><g opacity=".2"><path fill="url(#g)" fill-rule="nonzero" d="M.14 16.46 28.48 0l-.14 98.42L0 114.89z" transform="translate(.26 19.74)"/><path fill="url(#g)" fill-rule="nonzero" stroke="#5ac8f7" stroke-linejoin="round" stroke-width=".25" d="M.14 16.46 28.48 0l-.14 98.42L0 114.89z" transform="translate(.26 19.74)"/><path stroke="#5ac8f7" stroke-linejoin="round" stroke-width=".25" d="m.4 36.2 28.34-16.46-.14 98.42L.26 134.63z"/></g><g opacity=".2"><path fill="url(#h)" fill-rule="nonzero" d="m.14 0 28.51 16.46-.14 98.42L0 98.42z" transform="translate(28.6 19.74)"/><path fill="url(#h)" fill-rule="nonzero" stroke="#5ac8f7" stroke-linejoin="round" stroke-width=".25" d="m.14 0 28.51 16.46-.14 98.42L0 98.42z" transform="translate(28.6 19.74)"/><path stroke="#5ac8f7" stroke-linejoin="round" stroke-width=".25" d="M28.74 19.74 57.25 36.2l-.14 98.42-28.51-16.46z"/></g><g opacity=".2"><path fill="url(#i)" fill-rule="nonzero" d="M56.85 16.46 28.51 32.93 0 16.47 28.34 0z" transform="translate(.26 118.16)"/><path fill="url(#i)" fill-rule="nonzero" stroke="#5ac8f7" stroke-linejoin="round" stroke-width=".25" d="M56.85 16.46 28.51 32.93 0 16.47 28.34 0z" transform="translate(.26 118.16)"/><path stroke="#5ac8f7" stroke-linejoin="round" stroke-width=".25" d="m57.11 134.62-28.34 16.47L.26 134.63l28.34-16.47z"/></g><path fill="url(#j)" fill-rule="nonzero" d="m57.053 35.407-28.33 16.47-28.52-16.47 28.34-16.46z" transform="translate(.197 .793)"/><path fill="url(#j)" fill-rule="nonzero" stroke="#5ac8f7" stroke-linejoin="round" stroke-width=".25" d="m57.053 35.407-28.33 16.47-28.52-16.47 28.34-16.46z" opacity=".2" transform="translate(.197 .793)"/><path stroke="#5ac8f7" stroke-linejoin="round" stroke-width=".25" d="M57.25 36.2 28.92 52.67.4 36.2l28.34-16.46z"/><path fill="url(#g)" fill-rule="nonzero" d="m57.053 35.407-.14 98.42-28.34 16.47.15-98.42z" transform="translate(.197 .793)"/><path fill="url(#k)" fill-rule="nonzero" stroke="#5ac8f7" stroke-linejoin="round" stroke-width=".25" d="m57.053 35.407-.14 98.42-28.34 16.47.15-98.42z" transform="translate(.197 .793)"/><path stroke="#5ac8f7" stroke-linejoin="round" stroke-width=".25" d="m57.25 36.2-.14 98.42-28.34 16.47.15-98.42z"/><path fill="url(#l)" fill-rule="nonzero" d="m28.723 51.877-.15 98.42-28.51-16.46.14-98.43z" transform="translate(.197 .793)"/><path fill="url(#m)" fill-rule="nonzero" stroke="#5ac8f7" stroke-linejoin="round" stroke-width=".25" d="m28.723 51.877-.15 98.42-28.51-16.46.14-98.43z" transform="translate(.197 .793)"/><path stroke="#5ac8f7" stroke-linejoin="round" stroke-width=".25" d="m28.92 52.67-.15 98.42L.26 134.63.4 36.2z"/><g opacity=".2"><path fill="url(#n)" fill-rule="nonzero" d="m50.75 14.7-25.3 14.7L0 14.7 25.29 0z" transform="translate(3.32 21.43)"/><path fill="url(#n)" fill-rule="nonzero" stroke="#5ac8f7" stroke-linejoin="round" stroke-width=".25" d="m50.75 14.7-25.3 14.7L0 14.7 25.29 0z" transform="translate(3.32 21.43)"/><path stroke="#5ac8f7" stroke-linejoin="round" stroke-width=".25" d="m54.07 36.13-25.3 14.7-25.45-14.7 25.29-14.7z"/></g><g opacity=".2"><path fill="url(#o)" fill-rule="nonzero" d="M50.74 14.7 25.45 29.4 0 14.7 25.29 0z" transform="translate(3.45 17.04)"/><path fill="url(#o)" fill-rule="nonzero" stroke="#5ac8f7" stroke-linejoin="round" stroke-width=".25" d="M50.74 14.7 25.45 29.4 0 14.7 25.29 0z" transform="translate(3.45 17.04)"/><path stroke="#5ac8f7" stroke-linejoin="round" stroke-width=".25" d="M54.19 31.74 28.9 46.44 3.45 31.74l25.29-14.7z"/></g><path fill="url(#p)" fill-rule="nonzero" d="m53.993 30.947-.12 4.39-25.3 14.7.13-4.39z" transform="translate(.197 .793)"/><path fill="url(#q)" fill-rule="nonzero" stroke="#5ac8f7" stroke-linejoin="round" stroke-width=".25" d="m53.993 30.947-.12 4.39-25.3 14.7.13-4.39z" transform="translate(.197 .793)"/><path stroke="#5ac8f7" stroke-linejoin="round" stroke-width=".25" d="m54.19 31.74-.12 4.39-25.3 14.7.13-4.39z"/><path fill="url(#r)" fill-rule="nonzero" d="m28.703 45.647-.13 4.39-25.45-14.7.13-4.39z" transform="translate(.197 .793)"/><path fill="url(#r)" fill-rule="nonzero" stroke="#5ac8f7" stroke-linejoin="round" stroke-width=".25" d="m28.703 45.647-.13 4.39-25.45-14.7.13-4.39z" transform="translate(.197 .793)"/><path stroke="#5ac8f7" stroke-linejoin="round" stroke-width=".25" d="m28.9 46.44-.13 4.39-25.45-14.7.13-4.39z"/><g opacity=".2"><path fill="url(#s)" fill-rule="nonzero" d="M.13 14.7 25.42 0l-.13 4.39L0 19.09z" transform="translate(3.32 17.04)"/><path fill="url(#s)" fill-rule="nonzero" stroke="#5ac8f7" stroke-linejoin="round" stroke-width=".25" d="M.13 14.7 25.42 0l-.13 4.39L0 19.09z" transform="translate(3.32 17.04)"/><path stroke="#5ac8f7" stroke-linejoin="round" stroke-width=".25" d="m3.45 31.74 25.29-14.7-.13 4.39-25.29 14.7z"/></g><g opacity=".2"><path fill="url(#t)" fill-rule="nonzero" d="m.13 0 25.45 14.7-.12 4.39L0 4.39z" transform="translate(28.61 17.04)"/><path fill="url(#t)" fill-rule="nonzero" stroke="#5ac8f7" stroke-linejoin="round" stroke-width=".25" d="m.13 0 25.45 14.7-.12 4.39L0 4.39z" transform="translate(28.61 17.04)"/><path stroke="#5ac8f7" stroke-linejoin="round" stroke-width=".25" d="m28.74 17.04 25.45 14.7-.12 4.39-25.46-14.7z"/></g><g opacity=".2"><path fill="url(#a)" fill-rule="nonzero" d="m5.42 1.57-2.7 1.57L0 1.57 2.7 0z" transform="translate(26.04 43.08)"/><path fill="url(#a)" fill-rule="nonzero" stroke="#5ac8f7" stroke-linejoin="round" stroke-width=".25" d="m5.42 1.57-2.7 1.57L0 1.57 2.7 0z" transform="translate(26.04 43.08)"/><path stroke="#5ac8f7" stroke-linejoin="round" stroke-width=".25" d="m31.46 44.65-2.7 1.57-2.72-1.57 2.7-1.57z"/></g><path fill="url(#b)" fill-rule="nonzero" d="m31.273 34.487-2.7 1.57-2.71-1.57 2.69-1.57z" transform="translate(.197 .793)"/><path fill="url(#b)" fill-rule="nonzero" stroke="#5ac8f7" stroke-linejoin="round" stroke-width=".25" d="m31.273 34.487-2.7 1.57-2.71-1.57 2.69-1.57z" opacity=".2" transform="translate(.197 .793)"/><path stroke="#5ac8f7" stroke-linejoin="round" stroke-width=".25" d="m31.47 35.28-2.7 1.57-2.71-1.57 2.69-1.57z"/><path fill="url(#c)" fill-rule="nonzero" d="m31.273 34.487-.01 9.37-2.7 1.57.01-9.37z" transform="translate(.197 .793)"/><path fill="url(#u)" fill-rule="nonzero" stroke="#5ac8f7" stroke-linejoin="round" stroke-width=".25" d="m31.273 34.487-.01 9.37-2.7 1.57.01-9.37z" transform="translate(.197 .793)"/><path stroke="#5ac8f7" stroke-linejoin="round" stroke-width=".25" d="m31.47 35.28-.01 9.37-2.7 1.57.01-9.37z"/><path fill="url(#v)" fill-rule="nonzero" d="m28.573 36.057-.01 9.37-2.72-1.57.02-9.37z" transform="translate(.197 .793)"/><path fill="url(#w)" fill-rule="nonzero" stroke="#5ac8f7" stroke-linejoin="round" stroke-width=".25" d="m28.573 36.057-.01 9.37-2.72-1.57.02-9.37z" transform="translate(.197 .793)"/><path stroke="#5ac8f7" stroke-linejoin="round" stroke-width=".25" d="m28.77 36.85-.01 9.37-2.72-1.57.02-9.37z"/><g opacity=".2"><path fill="url(#e)" fill-rule="nonzero" d="M.02 1.57 2.71 0 2.7 9.37 0 10.94z" transform="translate(26.04 33.71)"/><path fill="url(#e)" fill-rule="nonzero" stroke="#5ac8f7" stroke-linejoin="round" stroke-width=".25" d="M.02 1.57 2.71 0 2.7 9.37 0 10.94z" transform="translate(26.04 33.71)"/><path stroke="#5ac8f7" stroke-linejoin="round" stroke-width=".25" d="m26.06 35.28 2.69-1.57-.01 9.37-2.7 1.57z"/></g><g opacity=".2"><path fill="url(#x)" fill-rule="nonzero" d="m.01 0 2.72 1.57-.01 9.37L0 9.37z" transform="translate(28.74 33.71)"/><path fill="url(#x)" fill-rule="nonzero" stroke="#5ac8f7" stroke-linejoin="round" stroke-width=".25" d="m.01 0 2.72 1.57-.01 9.37L0 9.37z" transform="translate(28.74 33.71)"/><path stroke="#5ac8f7" stroke-linejoin="round" stroke-width=".25" d="m28.75 33.71 2.72 1.57-.01 9.37-2.72-1.57z"/></g><g opacity=".2"><path fill="url(#y)" fill-rule="nonzero" d="m5.41 1.56-2.7 1.57L0 1.56 2.7 0z" transform="translate(3.32 30.1)"/><path fill="url(#y)" fill-rule="nonzero" stroke="#5ac8f7" stroke-linejoin="round" stroke-width=".25" d="m5.41 1.56-2.7 1.57L0 1.56 2.7 0z" transform="translate(3.32 30.1)"/><path stroke="#5ac8f7" stroke-linejoin="round" stroke-width=".25" d="m8.73 31.66-2.7 1.57-2.71-1.57 2.7-1.56z"/></g><path fill="url(#z)" fill-rule="nonzero" d="m8.543 21.507-2.69 1.56-2.72-1.56 2.7-1.57z" transform="translate(.197 .793)"/><path fill="url(#z)" fill-rule="nonzero" stroke="#5ac8f7" stroke-linejoin="round" stroke-width=".25" d="m8.543 21.507-2.69 1.56-2.72-1.56 2.7-1.57z" opacity=".2" transform="translate(.197 .793)"/><path stroke="#5ac8f7" stroke-linejoin="round" stroke-width=".25" d="m8.74 22.3-2.69 1.56-2.72-1.56 2.7-1.57z"/><path fill="url(#A)" fill-rule="nonzero" d="m8.543 21.507-.01 9.36-2.7 1.57.02-9.37z" transform="translate(.197 .793)"/><path fill="url(#B)" fill-rule="nonzero" stroke="#5ac8f7" stroke-linejoin="round" stroke-width=".25" d="m8.543 21.507-.01 9.36-2.7 1.57.02-9.37z" transform="translate(.197 .793)"/><path stroke="#5ac8f7" stroke-linejoin="round" stroke-width=".25" d="m8.74 22.3-.01 9.36-2.7 1.57.02-9.37z"/><path fill="url(#C)" fill-rule="nonzero" d="m5.853 23.067-.02 9.37-2.71-1.57.01-9.36z" transform="translate(.197 .793)"/><path fill="url(#D)" fill-rule="nonzero" stroke="#5ac8f7" stroke-linejoin="round" stroke-width=".25" d="m5.853 23.067-.02 9.37-2.71-1.57.01-9.36z" transform="translate(.197 .793)"/><path stroke="#5ac8f7" stroke-linejoin="round" stroke-width=".25" d="m6.05 23.86-.02 9.37-2.71-1.57.01-9.36z"/><g opacity=".2"><path fill="url(#E)" fill-rule="nonzero" d="M.01 1.57 2.71 0 2.7 9.37 0 10.93z" transform="translate(3.32 20.73)"/><path fill="url(#E)" fill-rule="nonzero" stroke="#5ac8f7" stroke-linejoin="round" stroke-width=".25" d="M.01 1.57 2.71 0 2.7 9.37 0 10.93z" transform="translate(3.32 20.73)"/><path stroke="#5ac8f7" stroke-linejoin="round" stroke-width=".25" d="m3.33 22.3 2.7-1.57-.01 9.37-2.7 1.56z"/></g><g opacity=".2"><path fill="url(#F)" fill-rule="nonzero" d="m.01 0 2.71 1.57-.01 9.36L0 9.37z" transform="translate(6.02 20.73)"/><path fill="url(#F)" fill-rule="nonzero" stroke="#5ac8f7" stroke-linejoin="round" stroke-width=".25" d="m.01 0 2.71 1.57-.01 9.36L0 9.37z" transform="translate(6.02 20.73)"/><path stroke="#5ac8f7" stroke-linejoin="round" stroke-width=".25" d="m6.03 20.73 2.71 1.57-.01 9.36-2.71-1.56z"/></g><g opacity=".2"><path fill="url(#y)" fill-rule="nonzero" d="m5.41 1.56-2.7 1.57L0 1.56 2.69 0z" transform="translate(48.77 30.1)"/><path fill="url(#y)" fill-rule="nonzero" stroke="#5ac8f7" stroke-linejoin="round" stroke-width=".25" d="m5.41 1.56-2.7 1.57L0 1.56 2.69 0z" transform="translate(48.77 30.1)"/><path stroke="#5ac8f7" stroke-linejoin="round" stroke-width=".25" d="m54.18 31.66-2.7 1.57-2.71-1.57 2.69-1.56z"/></g><path fill="url(#y)" fill-rule="nonzero" d="m53.993 21.507-2.69 1.56-2.72-1.56 2.7-1.57z" transform="translate(.197 .793)"/><path fill="url(#y)" fill-rule="nonzero" stroke="#5ac8f7" stroke-linejoin="round" stroke-width=".25" d="m53.993 21.507-2.69 1.56-2.72-1.56 2.7-1.57z" opacity=".2" transform="translate(.197 .793)"/><path stroke="#5ac8f7" stroke-linejoin="round" stroke-width=".25" d="m54.19 22.3-2.69 1.56-2.72-1.56 2.7-1.57z"/><path fill="url(#A)" fill-rule="nonzero" d="m53.993 21.507-.01 9.36-2.7 1.57.02-9.37z" transform="translate(.197 .793)"/><path fill="url(#B)" fill-rule="nonzero" stroke="#5ac8f7" stroke-linejoin="round" stroke-width=".25" d="m53.993 21.507-.01 9.36-2.7 1.57.02-9.37z" transform="translate(.197 .793)"/><path stroke="#5ac8f7" stroke-linejoin="round" stroke-width=".25" d="m54.19 22.3-.01 9.36-2.7 1.57.02-9.37z"/><path fill="url(#G)" fill-rule="nonzero" d="m51.303 23.067-.02 9.37-2.71-1.57.01-9.36z" transform="translate(.197 .793)"/><path fill="url(#H)" fill-rule="nonzero" stroke="#5ac8f7" stroke-linejoin="round" stroke-width=".25" d="m51.303 23.067-.02 9.37-2.71-1.57.01-9.36z" transform="translate(.197 .793)"/><path stroke="#5ac8f7" stroke-linejoin="round" stroke-width=".25" d="m51.5 23.86-.02 9.37-2.71-1.57.01-9.36z"/><g opacity=".2"><path fill="url(#E)" fill-rule="nonzero" d="M.01 1.57 2.71 0l-.02 9.37L0 10.93z" transform="translate(48.77 20.73)"/><path fill="url(#E)" fill-rule="nonzero" stroke="#5ac8f7" stroke-linejoin="round" stroke-width=".25" d="M.01 1.57 2.71 0l-.02 9.37L0 10.93z" transform="translate(48.77 20.73)"/><path stroke="#5ac8f7" stroke-linejoin="round" stroke-width=".25" d="m48.78 22.3 2.7-1.57-.02 9.37-2.69 1.56z"/></g><g opacity=".2"><path fill="url(#I)" fill-rule="nonzero" d="m.02 0 2.71 1.57-.01 9.36L0 9.37z" transform="translate(51.46 20.73)"/><path fill="url(#I)" fill-rule="nonzero" stroke="#5ac8f7" stroke-linejoin="round" stroke-width=".25" d="m.02 0 2.71 1.57-.01 9.36L0 9.37z" transform="translate(51.46 20.73)"/><path stroke="#5ac8f7" stroke-linejoin="round" stroke-width=".25" d="m51.48 20.73 2.71 1.57-.01 9.36-2.72-1.56z"/></g><g opacity=".2"><path fill="url(#J)" fill-rule="nonzero" d="M56.88 16.47 28.52 32.95 0 16.48 28.35 0z" transform="translate(.25 6.01)"/><path stroke="#5ac8f7" stroke-linejoin="round" stroke-width=".25" d="M57.13 22.48 28.77 38.96.25 22.49 28.6 6.01z"/></g><g opacity=".2"><path fill="url(#K)" fill-rule="nonzero" d="m57.073 16.767-28.35 16.48-28.53-16.47L28.543.297z" transform="translate(.197 .793)"/><path fill="url(#L)" fill-rule="nonzero" stroke="#5ac8f7" stroke-linejoin="round" stroke-width=".25" d="M56.88 16.47 28.53 32.94 0 16.47 28.35 0z" transform="translate(.197 .793)"/><path stroke="#5ac8f7" stroke-linejoin="round" stroke-width=".25" d="M57.27 17.56 28.92 34.04.39 17.57 28.74 1.09z"/></g><path fill="url(#M)" fill-rule="nonzero" d="m57.073 16.767-.14 4.92-28.36 16.48.15-4.92z" transform="translate(.197 .793)"/><path fill="url(#N)" fill-rule="nonzero" stroke="#5ac8f7" stroke-linejoin="round" stroke-width=".25" d="m57.073 16.767-.14 4.92-28.36 16.48.15-4.92z" transform="translate(.197 .793)"/><path stroke="#5ac8f7" stroke-linejoin="round" stroke-width=".25" d="m57.27 17.56-.14 4.92-28.36 16.48.15-4.92z"/><path fill="url(#O)" fill-rule="nonzero" d="m28.723 33.247-.15 4.92-28.52-16.47.14-4.92z" transform="translate(.197 .793)"/><path fill="url(#O)" fill-rule="nonzero" stroke="#5ac8f7" stroke-linejoin="round" stroke-width=".25" d="m28.723 33.247-.15 4.92-28.52-16.47.14-4.92z" transform="translate(.197 .793)"/><path stroke="#5ac8f7" stroke-linejoin="round" stroke-width=".25" d="m28.92 34.04-.15 4.92L.25 22.49l.14-4.92z"/><g opacity=".2"><path fill="url(#P)" fill-rule="nonzero" d="M.14 16.48 28.49 0l-.14 4.92L0 21.4z" transform="translate(.25 1.09)"/><path fill="url(#P)" fill-rule="nonzero" stroke="#5ac8f7" stroke-linejoin="round" stroke-width=".25" d="M.14 16.48 28.49 0l-.14 4.92L0 21.4z" transform="translate(.25 1.09)"/><path stroke="#5ac8f7" stroke-linejoin="round" stroke-width=".25" d="M.39 17.57 28.74 1.09l-.14 4.92L.25 22.49z"/></g><g opacity=".2"><path fill="url(#Q)" fill-rule="nonzero" d="m.14 0 28.53 16.47-.14 4.92L0 4.92z" transform="translate(28.6 1.09)"/><path fill="url(#Q)" fill-rule="nonzero" stroke="#5ac8f7" stroke-linejoin="round" stroke-width=".25" d="m.14 0 28.53 16.47-.14 4.92L0 4.92z" transform="translate(28.6 1.09)"/><path stroke="#5ac8f7" stroke-linejoin="round" stroke-width=".25" d="m28.74 1.09 28.53 16.47-.14 4.92L28.6 6.01z"/></g><path fill="url(#R)" fill-rule="nonzero" stroke="#5ac8f7" stroke-linejoin="round" stroke-width=".25" d="M46.343 19.747a11.6 11.6 0 0 0-4.77-4.65c-7.3-4.22-19.1-4.22-26.36 0a11.5 11.5 0 0 0-4.68 4.58c-1.82-3.65-.27-7.74 4.68-10.61 7.26-4.22 19.06-4.22 26.36 0 5.01 2.89 6.6 7.01 4.77 10.68Z" transform="translate(.197 .793)"/><path stroke="#5ac8f7" stroke-linejoin="round" stroke-width=".25" d="M46.54 20.61a11.6 11.6 0 0 1-4.77 4.65c-7.3 4.22-19.1 4.22-26.36 0a11.6 11.6 0 0 1-4.68-4.59c-1.82 3.65-.27 7.74 4.68 10.62 7.26 4.22 19.06 4.22 26.36 0 5.01-2.89 6.6-7.02 4.77-10.68Z" opacity=".2"/></g></svg>