<svg xmlns="http://www.w3.org/2000/svg" viewBox="0 0 73 151"><title>Large building 4（大厦4）</title><defs><linearGradient id="a" x1="24.997%" x2="75.003%" y1="63.964%" y2="42.443%"><stop offset="0%" stop-color="#2a6aaf" stop-opacity="0"/><stop offset="100%" stop-color="#5ac8f7" stop-opacity=".6"/></linearGradient><linearGradient id="b" x1="43.778%" x2="56.222%" y1="74.046%" y2="25.954%"><stop offset="0%" stop-color="#2a6aaf" stop-opacity="0"/><stop offset="100%" stop-color="#5ac8f7" stop-opacity=".6"/></linearGradient><linearGradient id="c" x1="46.134%" x2="53.866%" y1="78.395%" y2="21.597%"><stop offset="0%" stop-color="#2a6aaf" stop-opacity="0"/><stop offset="100%" stop-color="#5ac8f7" stop-opacity=".6"/></linearGradient><linearGradient id="d" x1="41.921%" x2="58.079%" y1="81.43%" y2="18.57%"><stop offset="0%" stop-color="#2a6aaf" stop-opacity="0"/><stop offset="100%" stop-color="#5ac8f7" stop-opacity=".6"/></linearGradient><linearGradient id="e" x1="74.993%" x2="24.993%" y1="63.959%" y2="42.451%"><stop offset="0%" stop-color="#2a6aaf" stop-opacity="0"/><stop offset="100%" stop-color="#5ac8f7" stop-opacity=".6"/></linearGradient><linearGradient id="f" x1="37.364%" x2="62.639%" y1="81.92%" y2="18.072%"><stop offset="0%" stop-color="#2a6aaf" stop-opacity="0"/><stop offset="100%" stop-color="#5ac8f7" stop-opacity=".6"/></linearGradient><linearGradient id="g" x1="49.046%" x2="50.953%" y1="74.906%" y2="25.094%"><stop offset="0%" stop-color="#2a6aaf" stop-opacity="0"/><stop offset="100%" stop-color="#5ac8f7" stop-opacity=".6"/></linearGradient></defs><g fill="none" fill-rule="evenodd"><g opacity=".2"><path fill="url(#a)" fill-rule="nonzero" d="m71.73 20.77-17.37 10.1-49.92-7.53L0 20.77 35.75 0z" transform="translate(.25 119.26)"/><path fill="url(#a)" fill-rule="nonzero" stroke="#5ac8f7" stroke-linejoin="round" stroke-width=".25" d="m71.73 20.77-17.37 10.1-49.92-7.53L0 20.77 35.75 0z" transform="translate(.25 119.26)"/><path stroke="#5ac8f7" stroke-linejoin="round" stroke-width=".25" d="m71.98 140.03-17.37 10.1-49.92-7.53-4.44-2.57L36 119.26z"/></g><g opacity=".2"><path fill="url(#b)" fill-rule="nonzero" d="M.21 0 36.2 20.77l-.22 119.13L0 119.13z" transform="translate(36 .13)"/><path fill="url(#b)" fill-rule="nonzero" stroke="#5ac8f7" stroke-linejoin="round" stroke-width=".25" d="M.21 0 36.2 20.77l-.22 119.13L0 119.13z" transform="translate(36 .13)"/><path stroke="#5ac8f7" stroke-linejoin="round" stroke-width=".25" d="M36.21.13 72.2 20.9l-.22 119.13L36 119.26z"/></g><path fill="url(#c)" fill-rule="nonzero" d="m71.95 20.77-.22 119.13L54.36 150l.22-119.14z" transform="translate(.25 .13)"/><path fill="url(#c)" fill-rule="nonzero" stroke="#5ac8f7" stroke-linejoin="round" stroke-width=".25" d="m71.95 20.77-.22 119.13L54.36 150l.22-119.14z" transform="translate(.25 .13)"/><path stroke="#5ac8f7" stroke-linejoin="round" stroke-width=".25" d="m72.2 20.9-.22 119.13-17.37 10.1.22-119.14z"/><g opacity=".2"><path fill="url(#d)" fill-rule="nonzero" d="M.21 20.77 35.96 0l-.21 119.13L0 139.9z" transform="translate(.25 .13)"/><path fill="url(#d)" fill-rule="nonzero" stroke="#5ac8f7" stroke-linejoin="round" stroke-width=".25" d="M.21 20.77 35.96 0l-.21 119.13L0 139.9z" transform="translate(.25 .13)"/><path stroke="#5ac8f7" stroke-linejoin="round" stroke-width=".25" d="M.46 20.9 36.21.13 36 119.26.25 140.03z"/></g><path fill="url(#e)" fill-rule="nonzero" d="M71.95 20.77 54.58 30.86 4.66 23.34.21 20.77 35.96 0z" transform="translate(.25 .13)"/><path fill="url(#e)" fill-rule="nonzero" stroke="#5ac8f7" stroke-linejoin="round" stroke-width=".25" d="M71.95 20.77 54.58 30.86 4.66 23.34.21 20.77 35.96 0z" transform="translate(.25 .13)"/><path stroke="#5ac8f7" stroke-linejoin="round" stroke-width=".25" d="M72.2 20.9 54.83 30.99 4.91 23.47.46 20.9 36.21.13z"/><path fill="url(#f)" fill-rule="nonzero" d="M54.58 30.86 54.36 150l-49.92-7.53.22-119.13z" transform="translate(.25 .13)"/><path fill="url(#f)" fill-rule="nonzero" stroke="#5ac8f7" stroke-linejoin="round" stroke-width=".25" d="M54.58 30.86 54.36 150l-49.92-7.53.22-119.13z" transform="translate(.25 .13)"/><path stroke="#5ac8f7" stroke-linejoin="round" stroke-width=".25" d="m54.83 30.99-.22 119.14-49.92-7.53.22-119.13z"/><path fill="url(#g)" fill-rule="nonzero" d="m4.66 23.34-.22 119.13L0 139.9.21 20.77z" transform="translate(.25 .13)"/><path fill="url(#g)" fill-rule="nonzero" stroke="#5ac8f7" stroke-linejoin="round" stroke-width=".25" d="m4.66 23.34-.22 119.13L0 139.9.21 20.77z" transform="translate(.25 .13)"/><path stroke="#5ac8f7" stroke-linejoin="round" stroke-width=".25" d="M4.91 23.47 4.69 142.6l-4.44-2.57L.46 20.9z"/></g></svg>