<svg xmlns="http://www.w3.org/2000/svg" viewBox="0 0 71 151"><title>Large building 2（大厦2）</title><defs><linearGradient id="a" x1="75.007%" x2="24.993%" y1="64.49%" y2="35.51%"><stop offset="0%" stop-color="#2a6aaf" stop-opacity="0"/><stop offset="100%" stop-color="#5ac8f7" stop-opacity=".6"/></linearGradient><linearGradient id="b" x1="24.989%" x2="74.996%" y1="64.487%" y2="35.522%"><stop offset="0%" stop-color="#2a6aaf" stop-opacity="0"/><stop offset="100%" stop-color="#5ac8f7" stop-opacity=".6"/></linearGradient><linearGradient id="c" x1="40.554%" x2="59.446%" y1="82.306%" y2="17.694%"><stop offset="0%" stop-color="#2a6aaf" stop-opacity="0"/><stop offset="100%" stop-color="#5ac8f7" stop-opacity=".6"/></linearGradient><linearGradient id="d" x1="42.967%" x2="57.031%" y1="73.899%" y2="26.092%"><stop offset="0%" stop-color="#2a6aaf" stop-opacity="0"/><stop offset="100%" stop-color="#5ac8f7" stop-opacity=".6"/></linearGradient><linearGradient id="e" x1="40.554%" x2="59.446%" y1="82.313%" y2="17.696%"><stop offset="0%" stop-color="#2a6aaf" stop-opacity="0"/><stop offset="100%" stop-color="#5ac8f7" stop-opacity=".6"/></linearGradient><linearGradient id="f" x1="42.966%" x2="57.034%" y1="73.899%" y2="26.101%"><stop offset="0%" stop-color="#2a6aaf" stop-opacity="0"/><stop offset="100%" stop-color="#5ac8f7" stop-opacity=".6"/></linearGradient><linearGradient id="g" x1="0%" x2="100%" y1="50%" y2="50%"><stop offset="0%" stop-color="#2a6aaf" stop-opacity="0"/><stop offset="100%" stop-color="#5ac8f7" stop-opacity=".6"/></linearGradient><linearGradient id="h" x1="0%" x2="100%" y1="74.981%" y2="24.765%"><stop offset="0%" stop-color="#2a6aaf" stop-opacity="0"/><stop offset="100%" stop-color="#5ac8f7" stop-opacity=".6"/></linearGradient><linearGradient id="i" x1="0%" x2="100%" y1="50%" y2="50%"><stop offset="0%" stop-color="#2a6aaf" stop-opacity="0"/><stop offset="100%" stop-color="#5ac8f7" stop-opacity=".6"/></linearGradient><linearGradient id="j" x1="0%" x2="100%" y1="50%" y2="50%"><stop offset="0%" stop-color="#2a6aaf" stop-opacity="0"/><stop offset="100%" stop-color="#5ac8f7" stop-opacity=".6"/></linearGradient><linearGradient id="k" x1="25.993%" x2="74.007%" y1="49.808%" y2="9.619%"><stop offset="0%" stop-color="#2a6aaf" stop-opacity="0"/><stop offset="100%" stop-color="#5ac8f7" stop-opacity=".6"/></linearGradient></defs><g fill="none" fill-rule="evenodd"><g opacity=".2"><path fill="url(#a)" fill-rule="nonzero" d="M69.86 20.24 35.04 40.48 0 20.24 34.82 0z" transform="translate(.25 109.65)"/><path fill="url(#a)" fill-rule="nonzero" stroke="#5ac8f7" stroke-linejoin="round" stroke-width=".25" d="M69.86 20.24 35.04 40.48 0 20.24 34.82 0z" transform="translate(.25 109.65)"/><path stroke="#5ac8f7" stroke-linejoin="round" stroke-width=".25" d="m70.11 129.89-34.82 20.24L.25 129.89l34.82-20.24z"/></g><path fill="url(#b)" fill-rule="nonzero" d="M70.04 30.3 35.21 50.54.17 30.31l34.82-20.24z" transform="translate(.25 .13)"/><path fill="url(#b)" fill-rule="nonzero" stroke="#5ac8f7" stroke-linejoin="round" stroke-width=".25" d="M70.04 30.3 35.21 50.54.17 30.31l34.82-20.24z" opacity=".2" transform="translate(.25 .13)"/><path stroke="#5ac8f7" stroke-linejoin="round" stroke-width=".25" d="M70.29 30.43 35.46 50.67.42 30.44 35.24 10.2z"/><path fill="url(#c)" fill-rule="nonzero" d="m70.04 30.3-.18 99.46L35.04 150l.17-99.46z" transform="translate(.25 .13)"/><path fill="url(#c)" fill-rule="nonzero" stroke="#5ac8f7" stroke-linejoin="round" stroke-width=".25" d="m70.04 30.3-.18 99.46L35.04 150l.17-99.46z" transform="translate(.25 .13)"/><path stroke="#5ac8f7" stroke-linejoin="round" stroke-width=".25" d="m70.29 30.43-.18 99.46-34.82 20.24.17-99.46z"/><path fill="url(#d)" fill-rule="nonzero" d="M35.21 50.54 35.04 150 0 129.76l.17-99.45z" transform="translate(.25 .13)"/><path fill="url(#d)" fill-rule="nonzero" stroke="#5ac8f7" stroke-linejoin="round" stroke-width=".25" d="M35.21 50.54 35.04 150 0 129.76l.17-99.45z" transform="translate(.25 .13)"/><path stroke="#5ac8f7" stroke-linejoin="round" stroke-width=".25" d="m35.46 50.67-.17 99.46L.25 129.89l.17-99.45z"/><g opacity=".2"><path fill="url(#e)" fill-rule="nonzero" d="M.17 20.24 34.99 0l-.17 99.45L0 119.69z" transform="translate(.25 10.2)"/><path fill="url(#e)" fill-rule="nonzero" stroke="#5ac8f7" stroke-linejoin="round" stroke-width=".25" d="M.17 20.24 34.99 0l-.17 99.45L0 119.69z" transform="translate(.25 10.2)"/><path stroke="#5ac8f7" stroke-linejoin="round" stroke-width=".25" d="M.42 30.44 35.24 10.2l-.17 99.45L.25 129.89z"/></g><g opacity=".2"><path fill="url(#f)" fill-rule="nonzero" d="m.17 0 35.05 20.23-.18 99.46L0 99.45z" transform="translate(35.07 10.2)"/><path fill="url(#f)" fill-rule="nonzero" stroke="#5ac8f7" stroke-linejoin="round" stroke-width=".25" d="m.17 0 35.05 20.23-.18 99.46L0 99.45z" transform="translate(35.07 10.2)"/><path stroke="#5ac8f7" stroke-linejoin="round" stroke-width=".25" d="m35.24 10.2 35.05 20.23-.18 99.46-35.04-20.24z"/></g><path fill="url(#g)" fill-rule="nonzero" stroke="#5ac8f7" stroke-linejoin="round" stroke-width=".25" d="M35.02 0v10.1l35.02 20.22z" opacity=".2" transform="translate(.25 .13)"/><path fill="url(#h)" fill-rule="nonzero" stroke="#5ac8f7" stroke-linejoin="round" stroke-width=".25" d="M35.02 0 0 30.32 35.02 10.1z" opacity=".2" transform="translate(.25 .13)"/><path fill="url(#i)" fill-rule="nonzero" stroke="#5ac8f7" stroke-linejoin="round" stroke-width=".25" d="M69.81 20.22 35.02 40.44 0 20.22 34.79 0z" opacity=".2" transform="translate(.36 10.23)"/><path fill="url(#j)" fill-rule="nonzero" stroke="#5ac8f7" stroke-linejoin="round" stroke-width=".25" d="M35.02 0 0 30.32l35.02 20.22z" transform="translate(.25 .13)"/><path fill="url(#k)" fill-rule="nonzero" stroke="#5ac8f7" stroke-linejoin="round" stroke-width=".25" d="M35.02 0v50.54l35.02-20.22z" transform="translate(.25 .13)"/></g></svg>