<svg xmlns="http://www.w3.org/2000/svg" viewBox="0 0 129 152"><title>School (学校)</title><defs><linearGradient id="a" x1="32.652%" x2="67.342%" y1="86.786%" y2="13.214%"><stop offset="0%" stop-color="#2a6aaf" stop-opacity="0"/><stop offset="100%" stop-color="#5ac8f7" stop-opacity=".6"/></linearGradient><linearGradient id="b" x1="30.768%" x2="69.232%" y1="71.595%" y2="28.405%"><stop offset="0%" stop-color="#2a6aaf" stop-opacity="0"/><stop offset="100%" stop-color="#5ac8f7" stop-opacity=".6"/></linearGradient><linearGradient id="c" x1="81.881%" x2="18.119%" y1="68.437%" y2="31.563%"><stop offset="0%" stop-color="#5ac8f7" stop-opacity=".6"/><stop offset="100%" stop-color="#2a6aaf" stop-opacity="0"/></linearGradient><linearGradient id="d" x1="31.879%" x2="68.121%" y1="60.48%" y2="39.52%"><stop offset="0%" stop-color="#2a6aaf" stop-opacity="0"/><stop offset="100%" stop-color="#5ac8f7" stop-opacity=".6"/></linearGradient><linearGradient id="e" x1="81.875%" x2="18.125%" y1="68.434%" y2="31.566%"><stop offset="0%" stop-color="#5ac8f7" stop-opacity=".6"/><stop offset="100%" stop-color="#2a6aaf" stop-opacity="0"/></linearGradient><linearGradient id="f" x1="32.658%" x2="67.342%" y1="86.786%" y2="13.214%"><stop offset="0%" stop-color="#2a6aaf" stop-opacity="0"/><stop offset="100%" stop-color="#5ac8f7" stop-opacity=".6"/></linearGradient><linearGradient id="g" x1="41.236%" x2="58.764%" y1="73.632%" y2="26.368%"><stop offset="0%" stop-color="#2a6aaf" stop-opacity="0"/><stop offset="100%" stop-color="#5ac8f7" stop-opacity=".6"/></linearGradient><linearGradient id="h" x1="43.068%" x2="56.932%" y1="80.648%" y2="19.352%"><stop offset="0%" stop-color="#2a6aaf" stop-opacity="0"/><stop offset="100%" stop-color="#5ac8f7" stop-opacity=".6"/></linearGradient><linearGradient id="i" x1="47.46%" x2="52.539%" y1="77.314%" y2="22.686%"><stop offset="0%" stop-color="#2a6aaf" stop-opacity="0"/><stop offset="100%" stop-color="#5ac8f7" stop-opacity=".6"/></linearGradient><linearGradient id="j" x1="41.232%" x2="58.768%" y1="73.621%" y2="26.379%"><stop offset="0%" stop-color="#2a6aaf" stop-opacity="0"/><stop offset="100%" stop-color="#5ac8f7" stop-opacity=".6"/></linearGradient><linearGradient id="k" x1="47.461%" x2="52.539%" y1="77.328%" y2="22.672%"><stop offset="0%" stop-color="#2a6aaf" stop-opacity="0"/><stop offset="100%" stop-color="#5ac8f7" stop-opacity=".6"/></linearGradient><linearGradient id="l" x1="43.068%" x2="56.928%" y1="80.648%" y2="19.352%"><stop offset="0%" stop-color="#2a6aaf" stop-opacity="0"/><stop offset="100%" stop-color="#5ac8f7" stop-opacity=".6"/></linearGradient><linearGradient id="m" x1="45.198%" x2="54.802%" y1="74.315%" y2="25.685%"><stop offset="0%" stop-color="#2a6aaf" stop-opacity="0"/><stop offset="100%" stop-color="#5ac8f7" stop-opacity=".6"/></linearGradient><linearGradient id="n" x1="41.48%" x2="58.52%" y1="73.667%" y2="26.333%"><stop offset="0%" stop-color="#2a6aaf" stop-opacity="0"/><stop offset="100%" stop-color="#5ac8f7" stop-opacity=".6"/></linearGradient><linearGradient id="o" x1="45.194%" x2="54.806%" y1="74.302%" y2="25.698%"><stop offset="0%" stop-color="#2a6aaf" stop-opacity="0"/><stop offset="100%" stop-color="#5ac8f7" stop-opacity=".6"/></linearGradient><linearGradient id="p" x1="75%" x2="25%" y1="64.477%" y2="35.506%"><stop offset="0%" stop-color="#5ac8f7" stop-opacity=".6"/><stop offset="100%" stop-color="#2a6aaf" stop-opacity="0"/></linearGradient><linearGradient id="q" x1="1.351%" x2="98.649%" y1="96.018%" y2="3.982%"><stop offset="0%" stop-color="#2a6aaf" stop-opacity="0"/><stop offset="100%" stop-color="#5ac8f7" stop-opacity=".6"/></linearGradient><linearGradient id="r" x1="30.356%" x2="69.644%" y1="68.451%" y2="31.549%"><stop offset="0%" stop-color="#2a6aaf" stop-opacity="0"/><stop offset="100%" stop-color="#5ac8f7" stop-opacity=".6"/></linearGradient><linearGradient id="s" x1="75%" x2="25%" y1="64.478%" y2="35.522%"><stop offset="0%" stop-color="#2a6aaf" stop-opacity="0"/><stop offset="100%" stop-color="#5ac8f7" stop-opacity=".6"/></linearGradient><linearGradient id="t" x1="1.351%" x2="98.649%" y1="96.019%" y2="3.981%"><stop offset="0%" stop-color="#2a6aaf" stop-opacity="0"/><stop offset="100%" stop-color="#5ac8f7" stop-opacity=".6"/></linearGradient><linearGradient id="u" x1="30.338%" x2="69.603%" y1="68.414%" y2="31.531%"><stop offset="0%" stop-color="#2a6aaf" stop-opacity="0"/><stop offset="100%" stop-color="#5ac8f7" stop-opacity=".6"/></linearGradient><linearGradient id="v" x1="75.013%" x2="24.987%" y1="64.468%" y2="35.503%"><stop offset="0%" stop-color="#5ac8f7" stop-opacity=".6"/><stop offset="100%" stop-color="#2a6aaf" stop-opacity="0"/></linearGradient><linearGradient id="w" x1="42.566%" x2="57.434%" y1="80.989%" y2="19.011%"><stop offset="0%" stop-color="#2a6aaf" stop-opacity="0"/><stop offset="100%" stop-color="#5ac8f7" stop-opacity=".6"/></linearGradient><linearGradient id="x" x1="44.188%" x2="55.812%" y1="74.065%" y2="25.935%"><stop offset="0%" stop-color="#2a6aaf" stop-opacity="0"/><stop offset="100%" stop-color="#5ac8f7" stop-opacity=".6"/></linearGradient><linearGradient id="y" x1="75.013%" x2="24.987%" y1="64.495%" y2="35.505%"><stop offset="0%" stop-color="#2a6aaf" stop-opacity="0"/><stop offset="100%" stop-color="#5ac8f7" stop-opacity=".6"/></linearGradient><linearGradient id="z" x1="42.562%" x2="57.438%" y1="81.009%" y2="18.991%"><stop offset="0%" stop-color="#2a6aaf" stop-opacity="0"/><stop offset="100%" stop-color="#5ac8f7" stop-opacity=".6"/></linearGradient><linearGradient id="A" x1="44.186%" x2="55.814%" y1="74.083%" y2="25.917%"><stop offset="0%" stop-color="#2a6aaf" stop-opacity="0"/><stop offset="100%" stop-color="#5ac8f7" stop-opacity=".6"/></linearGradient><linearGradient id="B" x1="40.624%" x2="59.367%" y1="63.479%" y2="40.072%"><stop offset="0%" stop-color="#2a6aaf" stop-opacity="0"/><stop offset="100%" stop-color="#5ac8f7" stop-opacity=".6"/></linearGradient><linearGradient id="C" x1="28.561%" x2="108.045%" y1="79.616%" y2="40.633%"><stop offset="0%" stop-color="#2a6aaf" stop-opacity="0"/><stop offset="100%" stop-color="#5ac8f7" stop-opacity=".6"/></linearGradient><linearGradient id="D" x1="18.31%" x2="82.323%" y1="78.388%" y2="27.976%"><stop offset="0%" stop-color="#2a6aaf" stop-opacity="0"/><stop offset="4%" stop-color="#3076b8" stop-opacity=".08"/><stop offset="11%" stop-color="#3b8cc9" stop-opacity=".22"/><stop offset="20%" stop-color="#459fd7" stop-opacity=".34"/><stop offset="29%" stop-color="#4daee3" stop-opacity=".43"/><stop offset="39%" stop-color="#53baec" stop-opacity=".51"/><stop offset="51%" stop-color="#57c2f2" stop-opacity=".56"/><stop offset="67%" stop-color="#59c7f6" stop-opacity=".59"/><stop offset="100%" stop-color="#5ac8f7" stop-opacity=".6"/></linearGradient><linearGradient id="E" x1="49.948%" x2="50.109%" y1="-.013%" y2="99.987%"><stop offset="0%" stop-color="#2a6aaf" stop-opacity="0"/><stop offset="100%" stop-color="#5ac8f7" stop-opacity=".6"/></linearGradient><linearGradient id="F" x1="32.893%" x2="66.34%" y1="79.17%" y2="20.676%"><stop offset="0%" stop-color="#5ac8f7" stop-opacity=".6"/><stop offset="100%" stop-color="#2a6aaf" stop-opacity="0"/></linearGradient><linearGradient id="G" x1="46.845%" x2="53.144%" y1="76.113%" y2="21.554%"><stop offset="0%" stop-color="#2a6aaf" stop-opacity="0"/><stop offset="100%" stop-color="#5ac8f7" stop-opacity=".6"/></linearGradient><linearGradient id="H" x1="33.378%" x2="66.824%" y1="79.329%" y2="20.835%"><stop offset="0%" stop-color="#5ac8f7" stop-opacity=".6"/><stop offset="100%" stop-color="#2a6aaf" stop-opacity="0"/></linearGradient><linearGradient id="I" x1="49.853%" x2="99.705%" y1="73.787%" y2="-5.213%"><stop offset="0%" stop-color="#2a6aaf" stop-opacity="0"/><stop offset="100%" stop-color="#5ac8f7" stop-opacity=".6"/></linearGradient></defs><g fill="none" fill-rule="evenodd" transform="translate(.25 1.09)"><g opacity=".2"><path fill="url(#a)" fill-rule="nonzero" d="M.14 19.43 33.57 0l-.15 51.79L0 71.21z" transform="translate(0 24.13)"/><path fill="url(#a)" fill-rule="nonzero" stroke="#5ac8f7" stroke-linejoin="round" stroke-width=".25" d="M.14 19.43 33.57 0l-.15 51.79L0 71.21z" transform="translate(0 24.13)"/><path stroke="#5ac8f7" stroke-linejoin="round" stroke-width=".25" d="m.14 43.56 33.43-19.43-.15 51.79L0 95.34z"/></g><path fill="url(#b)" fill-rule="nonzero" stroke="#5ac8f7" stroke-linejoin="round" stroke-width=".25" d="M92.59 58.21 69.23 44.72 33.57 24.13l-.15 51.79 35.66 20.59 23.36 13.48 35.66 20.6.15-51.79z" opacity=".2"/><g opacity=".2"><path fill="url(#c)" fill-rule="nonzero" d="M128.1 54.67 94.68 74.09l-11.4-6.58 13.31-7.74-24.26-14.01-4.93 2.87-23.36-13.49 4.93-2.86L24.7 18.26 11.39 26 0 19.42 33.42 0l35.66 20.59 23.36 13.48z" transform="translate(0 75.92)"/><path fill="url(#c)" fill-rule="nonzero" stroke="#5ac8f7" stroke-linejoin="round" stroke-width=".25" d="M128.1 54.67 94.68 74.09l-11.4-6.58 13.31-7.74-24.26-14.01-4.93 2.87-23.36-13.49 4.93-2.86L24.7 18.26 11.39 26 0 19.42 33.42 0l35.66 20.59 23.36 13.48z" transform="translate(0 75.92)"/><path stroke="#5ac8f7" stroke-linejoin="round" stroke-width=".25" d="m128.1 130.59-33.42 19.42-11.4-6.58 13.31-7.74-24.26-14.01-4.93 2.87-23.36-13.49 4.93-2.86L24.7 94.18l-13.31 7.74L0 95.34l33.42-19.42 35.66 20.59 23.36 13.48z"/></g><path fill="url(#d)" fill-rule="nonzero" d="M128.11 54.67 94.68 74.09l-11.39-6.58 13.31-7.74-24.26-14.01-4.94 2.87-23.35-13.49 4.93-2.86-24.27-14.02L11.39 26 0 19.43 33.43 0l35.66 20.59 23.36 13.49z" transform="translate(.14 24.13)"/><path fill="url(#e)" fill-rule="nonzero" stroke="#5ac8f7" stroke-linejoin="round" stroke-width=".25" d="M128.11 54.67 94.68 74.09l-11.39-6.58 13.31-7.74-24.26-14.01-4.94 2.87-23.35-13.49 4.93-2.86-24.27-14.02L11.39 26 0 19.43 33.43 0l35.66 20.59 23.36 13.49z" transform="translate(.14 24.13)"/><path stroke="#5ac8f7" stroke-linejoin="round" stroke-width=".25" d="M128.25 78.8 94.82 98.22l-11.39-6.58 13.31-7.74-24.26-14.01-4.94 2.87-23.35-13.49 4.93-2.86-24.27-14.02-13.32 7.74L.14 43.56l33.43-19.43 35.66 20.59 23.36 13.49z"/><path fill="url(#f)" fill-rule="nonzero" d="m33.57 0-.15 51.79L0 71.21l.14-51.79z" transform="translate(94.68 78.8)"/><path fill="url(#f)" fill-rule="nonzero" stroke="#5ac8f7" stroke-linejoin="round" stroke-width=".25" d="m33.57 0-.15 51.79L0 71.21l.14-51.79z" transform="translate(94.68 78.8)"/><path stroke="#5ac8f7" stroke-linejoin="round" stroke-width=".25" d="m128.25 78.8-.15 51.79-33.42 19.42.14-51.79z"/><path fill="url(#g)" fill-rule="nonzero" d="m24.41 14.01-.15 51.79L0 51.79.15 0z" transform="translate(72.33 69.89)"/><path fill="url(#g)" fill-rule="nonzero" stroke="#5ac8f7" stroke-linejoin="round" stroke-width=".25" d="m24.41 14.01-.15 51.79L0 51.79.15 0z" transform="translate(72.33 69.89)"/><path stroke="#5ac8f7" stroke-linejoin="round" stroke-width=".25" d="m96.74 83.9-.15 51.79-24.26-14.01.15-51.79z"/><g opacity=".2"><path fill="url(#h)" fill-rule="nonzero" d="M.15 7.74 13.46 0l-.15 51.79L0 59.53z" transform="translate(83.28 83.9)"/><path fill="url(#h)" fill-rule="nonzero" stroke="#5ac8f7" stroke-linejoin="round" stroke-width=".25" d="M.15 7.74 13.46 0l-.15 51.79L0 59.53z" transform="translate(83.28 83.9)"/><path stroke="#5ac8f7" stroke-linejoin="round" stroke-width=".25" d="m83.43 91.64 13.31-7.74-.15 51.79-13.31 7.74z"/></g><path fill="url(#i)" fill-rule="nonzero" d="m5.08 0-.15 51.79L0 54.66.14 2.87z" transform="translate(67.4 69.89)"/><path fill="url(#i)" fill-rule="nonzero" stroke="#5ac8f7" stroke-linejoin="round" stroke-width=".25" d="m5.08 0-.15 51.79L0 54.66.14 2.87z" transform="translate(67.4 69.89)"/><path stroke="#5ac8f7" stroke-linejoin="round" stroke-width=".25" d="m72.48 69.89-.15 51.79-4.93 2.87.14-51.79z"/><path fill="url(#j)" fill-rule="nonzero" d="m24.42 14.02-.15 51.79L0 51.79.15 0z" transform="translate(24.7 42.39)"/><path fill="url(#j)" fill-rule="nonzero" stroke="#5ac8f7" stroke-linejoin="round" stroke-width=".25" d="m24.42 14.02-.15 51.79L0 51.79.15 0z" transform="translate(24.7 42.39)"/><path stroke="#5ac8f7" stroke-linejoin="round" stroke-width=".25" d="m49.12 56.41-.15 51.79L24.7 94.18l.15-51.79z"/><g opacity=".2"><path fill="url(#k)" fill-rule="nonzero" d="M.15 2.86 5.08 0l-.15 51.79L0 54.65z" transform="translate(44.04 56.41)"/><path fill="url(#k)" fill-rule="nonzero" stroke="#5ac8f7" stroke-linejoin="round" stroke-width=".25" d="M.15 2.86 5.08 0l-.15 51.79L0 54.65z" transform="translate(44.04 56.41)"/><path stroke="#5ac8f7" stroke-linejoin="round" stroke-width=".25" d="m44.19 59.27 4.93-2.86-.15 51.79-4.93 2.86z"/></g><path fill="url(#l)" fill-rule="nonzero" d="m13.46 0-.15 51.79L0 59.53.14 7.74z" transform="translate(11.39 42.39)"/><path fill="url(#l)" fill-rule="nonzero" stroke="#5ac8f7" stroke-linejoin="round" stroke-width=".25" d="m13.46 0-.15 51.79L0 59.53.14 7.74z" transform="translate(11.39 42.39)"/><path stroke="#5ac8f7" stroke-linejoin="round" stroke-width=".25" d="m24.85 42.39-.15 51.79-13.31 7.74.14-51.79z"/><path fill="url(#m)" fill-rule="nonzero" d="m11.53 6.57-.14 51.79L0 51.78.14 0z" transform="translate(0 43.56)"/><path fill="url(#m)" fill-rule="nonzero" stroke="#5ac8f7" stroke-linejoin="round" stroke-width=".25" d="m11.53 6.57-.14 51.79L0 51.78.14 0z" transform="translate(0 43.56)"/><path stroke="#5ac8f7" stroke-linejoin="round" stroke-width=".25" d="m11.53 50.13-.14 51.79L0 95.34l.14-51.78z"/><path fill="url(#n)" fill-rule="nonzero" d="m23.5 13.49-.14 51.79L0 51.79.15 0z" transform="translate(44.04 59.27)"/><path fill="url(#n)" fill-rule="nonzero" stroke="#5ac8f7" stroke-linejoin="round" stroke-width=".25" d="m23.5 13.49-.14 51.79L0 51.79.15 0z" transform="translate(44.04 59.27)"/><path stroke="#5ac8f7" stroke-linejoin="round" stroke-width=".25" d="m67.54 72.76-.14 51.79-23.36-13.49.15-51.79z"/><path fill="url(#o)" fill-rule="nonzero" d="m11.54 6.58-.14 51.79L0 51.79.15 0z" transform="translate(83.28 91.64)"/><path fill="url(#o)" fill-rule="nonzero" stroke="#5ac8f7" stroke-linejoin="round" stroke-width=".25" d="m11.54 6.58-.14 51.79L0 51.79.15 0z" transform="translate(83.28 91.64)"/><path stroke="#5ac8f7" stroke-linejoin="round" stroke-width=".25" d="m94.82 98.22-.14 51.79-11.4-6.58.15-51.79z"/><g opacity=".2"><path fill="url(#p)" fill-rule="nonzero" d="m34.12 9.88-17 9.89L0 9.88 17.01 0z" transform="translate(49.78 49.48)"/><path fill="url(#p)" fill-rule="nonzero" stroke="#5ac8f7" stroke-linejoin="round" stroke-width=".25" d="m34.12 9.88-17 9.89L0 9.88 17.01 0z" transform="translate(49.78 49.48)"/><path stroke="#5ac8f7" stroke-linejoin="round" stroke-width=".25" d="m83.9 59.36-17 9.89-17.12-9.89 17.01-9.88z"/></g><g opacity=".2"><path fill="url(#q)" fill-rule="nonzero" d="m.02 9.88 17-9.88-.01 6.21L0 16.09z" transform="translate(49.78 43.27)"/><path fill="url(#q)" fill-rule="nonzero" stroke="#5ac8f7" stroke-linejoin="round" stroke-width=".25" d="m.02 9.88 17-9.88-.01 6.21L0 16.09z" transform="translate(49.78 43.27)"/><path stroke="#5ac8f7" stroke-linejoin="round" stroke-width=".25" d="m49.8 53.15 17-9.88-.01 6.21-17.01 9.88z"/></g><g opacity=".2"><path fill="url(#r)" fill-rule="nonzero" d="m.01 0 17.12 9.88-.02 6.21L0 6.21z" transform="translate(66.79 43.27)"/><path fill="url(#r)" fill-rule="nonzero" stroke="#5ac8f7" stroke-linejoin="round" stroke-width=".25" d="m.01 0 17.12 9.88-.02 6.21L0 6.21z" transform="translate(66.79 43.27)"/><path stroke="#5ac8f7" stroke-linejoin="round" stroke-width=".25" d="m66.8 43.27 17.12 9.88-.02 6.21-17.11-9.88z"/></g><path fill="url(#s)" fill-rule="nonzero" d="m34.12 9.88-17 9.88L0 9.88 17 0z" transform="translate(49.8 43.27)"/><path fill="url(#s)" fill-rule="nonzero" stroke="#5ac8f7" stroke-linejoin="round" stroke-width=".25" d="m34.12 9.88-17 9.88L0 9.88 17 0z" transform="translate(49.8 43.27)"/><path stroke="#5ac8f7" stroke-linejoin="round" stroke-width=".25" d="m83.92 53.15-17 9.88-17.12-9.88 17-9.88z"/><path fill="url(#t)" fill-rule="nonzero" d="M17.02 0 17 6.21 0 16.1l.02-6.22z" transform="translate(66.9 53.15)"/><path fill="url(#t)" fill-rule="nonzero" stroke="#5ac8f7" stroke-linejoin="round" stroke-width=".25" d="M17.02 0 17 6.21 0 16.1l.02-6.22z" transform="translate(66.9 53.15)"/><path stroke="#5ac8f7" stroke-linejoin="round" stroke-width=".25" d="m83.92 53.15-.02 6.21-17 9.89.02-6.22z"/><path fill="url(#u)" fill-rule="nonzero" d="m17.14 9.88-.02 6.22L0 6.21.02 0z" transform="translate(49.78 53.15)"/><path fill="url(#u)" fill-rule="nonzero" stroke="#5ac8f7" stroke-linejoin="round" stroke-width=".25" d="m17.14 9.88-.02 6.22L0 6.21.02 0z" transform="translate(49.78 53.15)"/><path stroke="#5ac8f7" stroke-linejoin="round" stroke-width=".25" d="m66.92 63.03-.02 6.22-17.12-9.89.02-6.21z"/><g opacity=".2"><path fill="url(#v)" fill-rule="nonzero" d="M19.93 5.77 10 11.54 0 5.77 9.93 0z" transform="translate(56.88 47.1)"/><path fill="url(#v)" fill-rule="nonzero" stroke="#5ac8f7" stroke-linejoin="round" stroke-width=".25" d="M19.93 5.77 10 11.54 0 5.77 9.93 0z" transform="translate(56.88 47.1)"/><path stroke="#5ac8f7" stroke-linejoin="round" stroke-width=".25" d="m76.81 52.87-9.93 5.77-10-5.77 9.93-5.77z"/></g><g opacity=".2"><path fill="url(#w)" fill-rule="nonzero" d="M.01 5.78 9.94 0l-.01 35.68L0 41.45z" transform="translate(56.88 11.42)"/><path fill="url(#w)" fill-rule="nonzero" stroke="#5ac8f7" stroke-linejoin="round" stroke-width=".25" d="M.01 5.78 9.94 0l-.01 35.68L0 41.45z" transform="translate(56.88 11.42)"/><path stroke="#5ac8f7" stroke-linejoin="round" stroke-width=".25" d="m56.89 17.2 9.93-5.78-.01 35.68-9.93 5.77z"/></g><g opacity=".2"><path fill="url(#x)" fill-rule="nonzero" d="m.01 0 10 5.78L10 41.45 0 35.68z" transform="translate(66.81 11.42)"/><path fill="url(#x)" fill-rule="nonzero" stroke="#5ac8f7" stroke-linejoin="round" stroke-width=".25" d="m.01 0 10 5.78L10 41.45 0 35.68z" transform="translate(66.81 11.42)"/><path stroke="#5ac8f7" stroke-linejoin="round" stroke-width=".25" d="m66.82 11.42 10 5.78-.01 35.67-10-5.77z"/></g><path fill="url(#y)" fill-rule="nonzero" d="M19.93 5.78 10 11.55 0 5.78 9.93 0z" transform="translate(56.89 11.42)"/><path fill="url(#y)" fill-rule="nonzero" stroke="#5ac8f7" stroke-linejoin="round" stroke-width=".25" d="M19.93 5.78 10 11.55 0 5.78 9.93 0z" transform="translate(56.89 11.42)"/><path stroke="#5ac8f7" stroke-linejoin="round" stroke-width=".25" d="m76.82 17.2-9.93 5.77-10-5.77 9.93-5.78z"/><path fill="url(#z)" fill-rule="nonzero" d="m9.94 0-.01 35.67L0 41.44.01 5.77z" transform="translate(66.88 17.2)"/><path fill="url(#z)" fill-rule="nonzero" stroke="#5ac8f7" stroke-linejoin="round" stroke-width=".25" d="m9.94 0-.01 35.67L0 41.44.01 5.77z" transform="translate(66.88 17.2)"/><path stroke="#5ac8f7" stroke-linejoin="round" stroke-width=".25" d="m76.82 17.2-.01 35.67-9.93 5.77.01-35.67z"/><path fill="url(#A)" fill-rule="nonzero" d="M10.01 5.77 10 41.44 0 35.67.01 0z" transform="translate(56.88 17.2)"/><path fill="url(#A)" fill-rule="nonzero" stroke="#5ac8f7" stroke-linejoin="round" stroke-width=".25" d="M10.01 5.77 10 41.44 0 35.67.01 0z" transform="translate(56.88 17.2)"/><path stroke="#5ac8f7" stroke-linejoin="round" stroke-width=".25" d="m66.89 22.97-.01 35.67-10-5.77.01-35.67z"/><path fill="url(#B)" fill-rule="nonzero" stroke="#5ac8f7" stroke-linejoin="round" stroke-width=".25" d="M49.47 114.2V88.31c0-3.37 2.76-4.54 6.14-2.59 3.38 2 6.14 6.31 6.14 9.68v25.89z"/><path fill="url(#C)" fill-rule="nonzero" stroke="#5ac8f7" stroke-linejoin="round" stroke-width=".25" d="m49.47 114.2 12.28-7.25v14.34z"/><path fill="url(#D)" fill-rule="nonzero" stroke="#5ac8f7" stroke-linejoin="round" stroke-width=".25" d="M72.95 13.72a7.09 7.09 0 0 0-6.08-3.55 7.13 7.13 0 0 0-3.53.9 7 7 0 0 0-2.67 2.64 7.14 7.14 0 0 0-1 3.52 3.5 3.5 0 0 0 2 2.87 11 11 0 0 0 10 .1 3.56 3.56 0 0 0 2.2-2.93 7.1 7.1 0 0 0-.92-3.55Z"/><ellipse cx="7.091" cy="4.12" fill="url(#E)" fill-rule="nonzero" stroke="#5ac8f7" stroke-linejoin="round" stroke-width=".25" opacity=".2" rx="4.1" ry="7.08" transform="rotate(-89.84 43.537 -19.251)"/><circle cx=".601" cy=".352" r="1" fill="url(#F)" fill-rule="nonzero" stroke="#5ac8f7" stroke-linejoin="round" stroke-width=".2" opacity=".2" transform="rotate(-89.84 38.772 -27.84)"/><path fill="url(#G)" fill-rule="nonzero" stroke="#5ac8f7" stroke-linejoin="round" stroke-width=".2" d="M67.46.36v10.06a.31.31 0 0 1-.18.24 1 1 0 0 1-.84 0 .31.31 0 0 1-.18-.25V.36a.31.31 0 0 0 .18.24.89.89 0 0 0 .84 0q.18-.1.18-.24Z"/><circle cx="66.857" cy=".352" r="1" fill="url(#H)" fill-rule="nonzero" stroke="#5ac8f7" stroke-linejoin="round" stroke-width=".2" transform="rotate(-89.84 66.857 .352)"/><path fill="url(#I)" fill-rule="nonzero" stroke="#5ac8f7" stroke-linejoin="round" stroke-width=".2" d="m66.26 4.58-3.37-1.43 3.37-1.95z"/></g></svg>