<svg xmlns="http://www.w3.org/2000/svg" viewBox="0 0 72 151"><title>Storage tank 3（储油罐3）</title><defs><linearGradient id="a" x1="78.931%" x2="21.055%" y1="66.756%" y2="33.244%"><stop offset="0%" stop-color="#5ac8f7" stop-opacity=".6"/><stop offset="100%" stop-color="#2a6aaf" stop-opacity="0"/></linearGradient><linearGradient id="b" x1="22.3%" x2="77.784%" y1="55.524%" y2="37.654%"><stop offset="0%" stop-color="#2a6aaf" stop-opacity="0"/><stop offset="100%" stop-color="#5ac8f7" stop-opacity=".6"/></linearGradient><linearGradient id="c" x1="78.924%" x2="21.06%" y1="66.759%" y2="33.241%"><stop offset="0%" stop-color="#5ac8f7" stop-opacity=".6"/><stop offset="100%" stop-color="#2a6aaf" stop-opacity="0"/></linearGradient><linearGradient id="d" x1="22.311%" x2="77.783%" y1="55.524%" y2="37.651%"><stop offset="0%" stop-color="#2a6aaf" stop-opacity="0"/><stop offset="100%" stop-color="#5ac8f7" stop-opacity=".6"/></linearGradient><linearGradient id="e" x1="33.389%" x2="66.595%" y1="79.375%" y2="10.475%"><stop offset="0%" stop-color="#2a6aaf" stop-opacity="0"/><stop offset="100%" stop-color="#5ac8f7" stop-opacity=".6"/></linearGradient><linearGradient id="f" x1="78.933%" x2="21.065%" y1="66.757%" y2="33.239%"><stop offset="0%" stop-color="#5ac8f7" stop-opacity=".6"/><stop offset="100%" stop-color="#2a6aaf" stop-opacity="0"/></linearGradient><linearGradient id="g" x1="78.938%" x2="21.062%" y1="66.761%" y2="33.239%"><stop offset="0%" stop-color="#5ac8f7" stop-opacity=".6"/><stop offset="100%" stop-color="#2a6aaf" stop-opacity="0"/></linearGradient><linearGradient id="h" x1="22.292%" x2="77.773%" y1="55.524%" y2="37.651%"><stop offset="0%" stop-color="#2a6aaf" stop-opacity="0"/><stop offset="100%" stop-color="#5ac8f7" stop-opacity=".6"/></linearGradient><linearGradient id="i" x1="78.261%" x2="20.595%" y1="67.165%" y2="32.827%"><stop offset="0%" stop-color="#5ac8f7" stop-opacity=".6"/><stop offset="100%" stop-color="#2a6aaf" stop-opacity="0"/></linearGradient><linearGradient id="j" x1="51.32%" x2="48.68%" y1="74.987%" y2="25.013%"><stop offset="0%" stop-color="#5ac8f7" stop-opacity=".6"/><stop offset="100%" stop-color="#2a6aaf" stop-opacity="0"/></linearGradient><linearGradient id="k" x1="75.727%" x2="24.237%" y1="90.793%" y2="9.207%"><stop offset="0%" stop-color="#5ac8f7" stop-opacity=".6"/><stop offset="100%" stop-color="#2a6aaf" stop-opacity="0"/></linearGradient><linearGradient id="l" x1="91.851%" x2="8.095%" y1="78.295%" y2="21.705%"><stop offset="0%" stop-color="#5ac8f7" stop-opacity=".6"/><stop offset="100%" stop-color="#2a6aaf" stop-opacity="0"/></linearGradient><linearGradient id="m" x1="82.698%" x2="17.302%" y1="60.076%" y2="39.909%"><stop offset="0%" stop-color="#5ac8f7" stop-opacity=".6"/><stop offset="100%" stop-color="#2a6aaf" stop-opacity="0"/></linearGradient><linearGradient id="n" x1="75.63%" x2="24.37%" y1="51.437%" y2="48.566%"><stop offset="0%" stop-color="#5ac8f7" stop-opacity=".6"/><stop offset="100%" stop-color="#2a6aaf" stop-opacity="0"/></linearGradient><linearGradient id="o" x1="64.975%" x2="35.025%" y1="56.005%" y2="43.995%"><stop offset="0%" stop-color="#5ac8f7" stop-opacity=".6"/><stop offset="100%" stop-color="#2a6aaf" stop-opacity="0"/></linearGradient><linearGradient id="p" x1="54.647%" x2="45.388%" y1="74.954%" y2="25.046%"><stop offset="0%" stop-color="#5ac8f7" stop-opacity=".6"/><stop offset="100%" stop-color="#2a6aaf" stop-opacity="0"/></linearGradient><linearGradient id="q" x1="84.806%" x2="15.194%" y1="63.653%" y2="36.347%"><stop offset="0%" stop-color="#5ac8f7" stop-opacity=".6"/><stop offset="100%" stop-color="#2a6aaf" stop-opacity="0"/></linearGradient><linearGradient id="r" x1="74.5%" x2="25.5%" y1="51.363%" y2="48.64%"><stop offset="0%" stop-color="#5ac8f7" stop-opacity=".6"/><stop offset="100%" stop-color="#2a6aaf" stop-opacity="0"/></linearGradient><linearGradient id="s" x1="67.363%" x2="32.637%" y1="55.319%" y2="44.681%"><stop offset="0%" stop-color="#5ac8f7" stop-opacity=".6"/><stop offset="100%" stop-color="#2a6aaf" stop-opacity="0"/></linearGradient><linearGradient id="t" x1="58.068%" x2="41.878%" y1="55.469%" y2="44.531%"><stop offset="0%" stop-color="#5ac8f7" stop-opacity=".6"/><stop offset="100%" stop-color="#2a6aaf" stop-opacity="0"/></linearGradient><linearGradient id="u" x1="55.902%" x2="44.098%" y1="59.499%" y2="40.501%"><stop offset="0%" stop-color="#5ac8f7" stop-opacity=".6"/><stop offset="100%" stop-color="#2a6aaf" stop-opacity="0"/></linearGradient><linearGradient id="v" x1="0%" x2="100%" y1="49.589%" y2="49.589%"><stop offset="0%" stop-color="#5ac8f7" stop-opacity=".6"/><stop offset="100%" stop-color="#2a6aaf" stop-opacity="0"/></linearGradient><linearGradient id="w" x1="33.172%" x2="66.749%" y1="49.947%" y2="49.786%"><stop offset="0%" stop-color="#5ac8f7" stop-opacity=".6"/><stop offset="100%" stop-color="#2a6aaf" stop-opacity="0"/></linearGradient><linearGradient id="x" x1="0%" x2="100%" y1="49.529%" y2="49.529%"><stop offset="0%" stop-color="#5ac8f7" stop-opacity=".6"/><stop offset="100%" stop-color="#2a6aaf" stop-opacity="0"/></linearGradient><linearGradient id="y" x1="33.361%" x2="66.743%" y1="49.927%" y2="49.766%"><stop offset="0%" stop-color="#5ac8f7" stop-opacity=".6"/><stop offset="100%" stop-color="#2a6aaf" stop-opacity="0"/></linearGradient><linearGradient id="z" x1="-2.02%" x2="97.98%" y1="50.414%" y2="50.414%"><stop offset="0%" stop-color="#5ac8f7" stop-opacity=".6"/><stop offset="100%" stop-color="#2a6aaf" stop-opacity="0"/></linearGradient><linearGradient id="A" x1="33.311%" x2="66.751%" y1="50.099%" y2="49.937%"><stop offset="0%" stop-color="#5ac8f7" stop-opacity=".6"/><stop offset="100%" stop-color="#2a6aaf" stop-opacity="0"/></linearGradient><linearGradient id="B" x1="1.418%" x2="100%" y1="49.897%" y2="49.897%"><stop offset="0%" stop-color="#5ac8f7" stop-opacity=".6"/><stop offset="100%" stop-color="#2a6aaf" stop-opacity="0"/></linearGradient><linearGradient id="C" x1="33.356%" x2="66.481%" y1="50.036%" y2="49.875%"><stop offset="0%" stop-color="#5ac8f7" stop-opacity=".6"/><stop offset="100%" stop-color="#2a6aaf" stop-opacity="0"/></linearGradient></defs><g fill="none" fill-rule="evenodd" transform="translate(.22 .1)"><path fill="url(#a)" fill-rule="nonzero" stroke="#5ac8f7" stroke-linejoin="round" stroke-width=".2" d="m66.46 10.32 4.84 10.33-4.72 10.32-13 7.56-17.81 2.76-17.84-2.76-13.09-7.56L.01 20.65l4.71-10.33 13.01-7.56L35.53 0l17.85 2.77z" transform="translate(0 106.38)"/><path fill="url(#b)" fill-rule="nonzero" d="m66.58 30.97-13 7.56-17.81 2.77-17.84-2.77-13.09-7.56L.01 20.65 0 22.97 4.84 33.3l13.08 7.55 17.84 2.77 17.81-2.76 13.01-7.56 4.71-10.33.01-2.32z" transform="translate(0 106.38)"/><path stroke="#5ac8f7" stroke-linejoin="round" stroke-width=".2" d="m71.3 127.03-.01 2.32-4.71 10.33v-2.33zM4.84 137.35v2.33L0 129.35l.01-2.32zm61.74 0v2.33l-13.01 7.56.01-2.33zm-48.65 7.56-.01 2.32-13.08-7.55v-2.33z"/><path stroke="#5ac8f7" stroke-linejoin="round" stroke-width=".2" d="m53.58 144.91-.01 2.33L35.76 150l.01-2.32z"/><path stroke="#5ac8f7" stroke-linejoin="round" stroke-width=".2" d="m35.77 147.68-.01 2.32-17.84-2.77.01-2.32z"/><path fill="url(#c)" fill-rule="nonzero" stroke="#5ac8f7" stroke-linejoin="round" stroke-width=".2" d="m59.45 9.24 4.33 9.23-4.22 9.23-11.64 6.76L32 36.94l-15.96-2.48L4.33 27.7.01 18.47l4.22-9.23 11.63-6.77L31.79 0l15.95 2.48z" transform="translate(3.76 106.52)"/><path fill="url(#d)" fill-rule="nonzero" d="m59.56 27.7-11.64 6.77L32 36.94l-15.96-2.48L4.33 27.7.01 18.47 0 20.55l4.33 9.23 11.7 6.76 15.96 2.48 15.93-2.48 11.63-6.76 4.22-9.23.01-2.08z" transform="translate(3.76 106.52)"/><path stroke="#5ac8f7" stroke-linejoin="round" stroke-width=".2" d="m67.54 124.99-.01 2.08-4.22 9.23.01-2.08zm-59.45 9.23v2.08l-4.33-9.23.01-2.08z"/><path stroke="#5ac8f7" stroke-linejoin="round" stroke-width=".2" d="m63.32 134.22-.01 2.08-11.63 6.76v-2.07zm-43.52 6.76-.01 2.08-11.7-6.76v-2.08zm31.88.01v2.07l-15.93 2.48.01-2.08zm-15.92 2.47-.01 2.08-15.96-2.48.01-2.08z"/><g fill-rule="nonzero" stroke="#5ac8f7" stroke-linejoin="round" stroke-width=".25" opacity=".5"><path fill="url(#e)" d="m58.84 17.114-.08 105c0 4.33-2.86 8.65-8.54 11.95-11.43 6.64-30 6.65-41.55 0-5.79-3.34-8.68-7.73-8.67-12.12l.08-105c0 4.39 2.88 8.78 8.67 12.12 11.51 6.65 30.11 6.64 41.55 0 5.68-3.31 8.53-7.63 8.54-11.95Z" transform="translate(6.23 1.786)"/><path fill="url(#f)" d="M50.17 4.984c11.51 6.65 11.57 17.42.13 24.07s-30 6.65-41.55 0-11.57-17.42-.08-24.07 30-6.64 41.5 0Z" transform="translate(6.23 1.786)"/></g><path fill="url(#c)" fill-rule="nonzero" stroke="#5ac8f7" stroke-linejoin="round" stroke-width=".2" d="m59.45 9.23 4.33 9.24-4.22 9.23-11.64 6.76L32 36.94l-15.96-2.48L4.33 27.7.01 18.47l4.22-9.24 11.63-6.76L31.79 0l15.95 2.48z" transform="translate(3.76)"/><path fill="url(#d)" fill-rule="nonzero" d="m59.56 27.7-11.64 6.76L32 36.94l-15.96-2.48L4.33 27.7.01 18.47 0 20.55l4.33 9.23 11.7 6.76 15.96 2.48 15.93-2.48 11.63-6.76 4.22-9.23.01-2.08z" transform="translate(3.76)"/><path stroke="#5ac8f7" stroke-linejoin="round" stroke-width=".2" d="m67.54 18.47-.01 2.08-4.22 9.23.01-2.08zM8.09 27.7v2.08l-4.33-9.23.01-2.08z"/><path stroke="#5ac8f7" stroke-linejoin="round" stroke-width=".2" d="m63.32 27.7-.01 2.08-11.63 6.76v-2.08zM19.8 34.46l-.01 2.08-11.7-6.76V27.7zm31.88 0v2.08l-15.93 2.48.01-2.08zm-15.92 2.48-.01 2.08-15.96-2.48.01-2.08z"/><path fill="url(#g)" fill-rule="nonzero" stroke="#5ac8f7" stroke-linejoin="round" stroke-width=".2" d="m43.03 6.68 3.13 6.69-3.06 6.68-8.42 4.89-11.52 1.79-11.55-1.79-8.47-4.89-3.13-6.68 3.05-6.69 8.42-4.89L23 0l11.56 1.79z" transform="translate(12.57 4.32)"/><path fill="url(#h)" fill-rule="nonzero" d="m43.1 20.05-8.42 4.89-11.52 1.79-11.55-1.79-8.47-4.89-3.13-6.68-.01 1.5 3.13 6.69 8.47 4.89 11.55 1.79 11.53-1.79 8.42-4.89 3.05-6.69.01-1.5z" transform="translate(12.57 4.32)"/><path stroke="#5ac8f7" stroke-linejoin="round" stroke-width=".2" d="m58.73 17.69-.01 1.5-3.05 6.69v-1.51zm-43.02 6.68-.01 1.51-3.13-6.69.01-1.5zm39.96 0v1.51l-8.42 4.89v-1.51z"/><path stroke="#5ac8f7" stroke-linejoin="round" stroke-width=".2" d="m24.18 29.26-.01 1.51-8.47-4.89.01-1.51zm23.07 0v1.51l-11.53 1.79.01-1.51z"/><path stroke="#5ac8f7" stroke-linejoin="round" stroke-width=".2" d="m35.73 31.05-.01 1.51-11.55-1.79.01-1.51z"/><path fill="url(#i)" fill-rule="nonzero" d="M23.13 7.88a3 3 0 0 1-1.51-.37 1.1 1.1 0 0 1-.66-.93c.032-.405.28-.76.65-.93a3.05 3.05 0 0 1 1.5-.36 3.1 3.1 0 0 1 1.51.36c.388.157.66.514.71.93a1.11 1.11 0 0 1-.65.92 3 3 0 0 1-1.55.38" transform="translate(12.57 4.32)"/><path fill="#5ac8f7" fill-rule="nonzero" d="M35.68 9.71a3 3 0 0 1 1.46.35.89.89 0 0 1 0 1.69 3.2 3.2 0 0 1-2.91 0 .89.89 0 0 1 0-1.69 3 3 0 0 1 1.45-.35m0-.2a3 3 0 0 0-1.55.38 1.21 1.21 0 0 0-.7 1c.04.437.31.818.71 1a3.37 3.37 0 0 0 3.11 0 1.21 1.21 0 0 0 .7-1 1.2 1.2 0 0 0-.71-1 3.1 3.1 0 0 0-1.56-.38"/><g fill-rule="nonzero" stroke="#5ac8f7" stroke-linejoin="round" stroke-width=".2" opacity=".5"><path fill="url(#j)" d="M23.07 7.78v18.95" transform="translate(12.58 4.32)"/><path fill="url(#k)" d="m23.85 7.78 10.83 17.16" transform="translate(12.58 4.32)"/><path fill="url(#l)" d="M24.57 7.53 43.1 20.05" transform="translate(12.58 4.32)"/><path fill="url(#m)" d="m25.17 6.9 20.98 6.47" transform="translate(12.58 4.32)"/><path fill="url(#n)" d="m25.17 6.22 17.85.46" transform="translate(12.58 4.32)"/><path fill="url(#o)" d="m24.69 5.74 9.85-3.95" transform="translate(12.58 4.32)"/><path fill="url(#p)" d="M22.99 5.39V0" transform="translate(12.58 4.32)"/><path fill="url(#q)" d="M21.54 5.74 11.47 1.79" transform="translate(12.58 4.32)"/><path fill="url(#r)" d="m21.05 6.31-18 .37" transform="translate(12.58 4.32)"/><path fill="url(#s)" d="M21.05 6.93 0 13.37" transform="translate(12.58 4.32)"/><path fill="url(#t)" d="M21.66 7.53 3.13 20.05" transform="translate(12.58 4.32)"/><path fill="url(#u)" d="M22.23 7.78 11.6 24.94" transform="translate(12.58 4.32)"/></g><g fill-rule="nonzero" stroke="#5ac8f7" stroke-linejoin="round" stroke-width=".2" opacity=".5" transform="translate(31.991 5.123)"><path fill="url(#v)" d="M2.579.777v5.23a.62.62 0 0 1-.37.52 2 2 0 0 1-1.82 0 .61.61 0 0 1-.38-.53V.777a.64.64 0 0 0 .38.53 2 2 0 0 0 1.82 0 .62.62 0 0 0 .37-.53Z"/><ellipse cx="1.292" cy=".754" fill="url(#w)" rx="1" ry="1.29" transform="rotate(-89.84 1.292 .754)"/></g><path fill="url(#x)" fill-rule="nonzero" stroke="#5ac8f7" stroke-linejoin="round" stroke-width=".2" d="M35.08 5.13v.77a.89.89 0 0 1-.52.73 2.8 2.8 0 0 1-2.55 0 .91.91 0 0 1-.53-.73v-.78a.88.88 0 0 0 .53.75c.8.4 1.74.4 2.54 0a.9.9 0 0 0 .53-.74Z"/><ellipse cx="33.19" cy="5.12" fill="url(#y)" fill-rule="nonzero" stroke="#5ac8f7" stroke-linejoin="round" stroke-width=".2" rx="1.04" ry="1.8" transform="rotate(-90 33.19 5.12)"/><g fill-rule="nonzero" stroke="#5ac8f7" stroke-linejoin="round" stroke-width=".2" opacity=".5" transform="translate(36.874 6.668)"><path fill="url(#z)" d="M2.026.582v4a.48.48 0 0 1-.29.4 1.51 1.51 0 0 1-1.4 0 .48.48 0 0 1-.29-.41v-4a.5.5 0 0 0 .29.41c.44.22.959.22 1.4 0a.48.48 0 0 0 .29-.4Z"/><circle cx=".992" cy=".573" r="1" fill="url(#A)" transform="rotate(-89.84 .992 .573)"/></g><path fill="url(#B)" fill-rule="nonzero" stroke="#5ac8f7" stroke-linejoin="round" stroke-width=".2" d="M39.26 6.67v.58a.7.7 0 0 1-.41.57 2.18 2.18 0 0 1-2 0 .71.71 0 0 1-.41-.57v-.59a.71.71 0 0 0 .41.58 2.18 2.18 0 0 0 2 0 .7.7 0 0 0 .41-.57Z"/><ellipse cx="37.866" cy="6.669" fill="url(#C)" fill-rule="nonzero" stroke="#5ac8f7" stroke-linejoin="round" stroke-width=".2" rx="1" ry="1.39" transform="rotate(-89.84 37.866 6.67)"/></g></svg>