<svg xmlns="http://www.w3.org/2000/svg" viewBox="0 0 126 151"><title>Storage tank 2（储油罐2）</title><defs><linearGradient id="a" x1="78.931%" x2="21.069%" y1="66.759%" y2="33.241%"><stop offset="0%" stop-color="#5ac8f7" stop-opacity=".6"/><stop offset="100%" stop-color="#2a6aaf" stop-opacity="0"/></linearGradient><linearGradient id="b" x1="22.3%" x2="77.78%" y1="55.526%" y2="37.65%"><stop offset="0%" stop-color="#2a6aaf" stop-opacity="0"/><stop offset="100%" stop-color="#5ac8f7" stop-opacity=".6"/></linearGradient><linearGradient id="c" x1="78.939%" x2="21.061%" y1="66.76%" y2="33.24%"><stop offset="0%" stop-color="#5ac8f7" stop-opacity=".6"/><stop offset="100%" stop-color="#2a6aaf" stop-opacity="0"/></linearGradient><linearGradient id="d" x1="22.303%" x2="77.787%" y1="55.526%" y2="37.647%"><stop offset="0%" stop-color="#2a6aaf" stop-opacity="0"/><stop offset="100%" stop-color="#5ac8f7" stop-opacity=".6"/></linearGradient><linearGradient id="e" x1="5.865%" x2="94.097%" y1="82.942%" y2="-3.491%"><stop offset="0%" stop-color="#2a6aaf" stop-opacity="0"/><stop offset="100%" stop-color="#5ac8f7" stop-opacity=".6"/></linearGradient><linearGradient id="f" x1="78.899%" x2="21.036%" y1="66.739%" y2="33.227%"><stop offset="0%" stop-color="#5ac8f7" stop-opacity=".6"/><stop offset="100%" stop-color="#2a6aaf" stop-opacity="0"/></linearGradient><linearGradient id="g" x1="22.303%" x2="77.787%" y1="55.529%" y2="37.65%"><stop offset="0%" stop-color="#2a6aaf" stop-opacity="0"/><stop offset="100%" stop-color="#5ac8f7" stop-opacity=".6"/></linearGradient><linearGradient id="h" x1="78.937%" x2="21.075%" y1="66.761%" y2="33.246%"><stop offset="0%" stop-color="#5ac8f7" stop-opacity=".6"/><stop offset="100%" stop-color="#2a6aaf" stop-opacity="0"/></linearGradient><linearGradient id="i" x1="22.299%" x2="77.787%" y1="55.531%" y2="37.65%"><stop offset="0%" stop-color="#2a6aaf" stop-opacity="0"/><stop offset="100%" stop-color="#5ac8f7" stop-opacity=".6"/></linearGradient><linearGradient id="j" x1="78.437%" x2="20.216%" y1="67.185%" y2="32.797%"><stop offset="0%" stop-color="#5ac8f7" stop-opacity=".6"/><stop offset="100%" stop-color="#2a6aaf" stop-opacity="0"/></linearGradient><linearGradient id="k" x1="50.752%" x2="49.248%" y1="75%" y2="25%"><stop offset="0%" stop-color="#5ac8f7" stop-opacity=".6"/><stop offset="100%" stop-color="#2a6aaf" stop-opacity="0"/></linearGradient><linearGradient id="l" x1="75.68%" x2="24.32%" y1="90.764%" y2="9.236%"><stop offset="0%" stop-color="#5ac8f7" stop-opacity=".6"/><stop offset="100%" stop-color="#2a6aaf" stop-opacity="0"/></linearGradient><linearGradient id="m" x1="91.9%" x2="8.1%" y1="78.325%" y2="21.675%"><stop offset="0%" stop-color="#5ac8f7" stop-opacity=".6"/><stop offset="100%" stop-color="#2a6aaf" stop-opacity="0"/></linearGradient><linearGradient id="n" x1="82.73%" x2="17.297%" y1="60.09%" y2="39.91%"><stop offset="0%" stop-color="#5ac8f7" stop-opacity=".6"/><stop offset="100%" stop-color="#2a6aaf" stop-opacity="0"/></linearGradient><linearGradient id="o" x1="75.647%" x2="24.353%" y1="50.82%" y2="49.18%"><stop offset="0%" stop-color="#5ac8f7" stop-opacity=".6"/><stop offset="100%" stop-color="#2a6aaf" stop-opacity="0"/></linearGradient><linearGradient id="p" x1="64.988%" x2="35.012%" y1="56.002%" y2="43.998%"><stop offset="0%" stop-color="#5ac8f7" stop-opacity=".6"/><stop offset="100%" stop-color="#2a6aaf" stop-opacity="0"/></linearGradient><linearGradient id="q" x1="52.643%" x2="47.357%" y1="75.026%" y2="24.974%"><stop offset="0%" stop-color="#5ac8f7" stop-opacity=".6"/><stop offset="100%" stop-color="#2a6aaf" stop-opacity="0"/></linearGradient><linearGradient id="r" x1="84.816%" x2="15.184%" y1="63.639%" y2="36.361%"><stop offset="0%" stop-color="#5ac8f7" stop-opacity=".6"/><stop offset="100%" stop-color="#2a6aaf" stop-opacity="0"/></linearGradient><linearGradient id="s" x1="74.493%" x2="25.507%" y1="50.776%" y2="49.224%"><stop offset="0%" stop-color="#5ac8f7" stop-opacity=".6"/><stop offset="100%" stop-color="#2a6aaf" stop-opacity="0"/></linearGradient><linearGradient id="t" x1="67.353%" x2="32.647%" y1="55.299%" y2="44.701%"><stop offset="0%" stop-color="#5ac8f7" stop-opacity=".6"/><stop offset="100%" stop-color="#2a6aaf" stop-opacity="0"/></linearGradient><linearGradient id="u" x1="58.128%" x2="41.903%" y1="55.483%" y2="44.517%"><stop offset="0%" stop-color="#5ac8f7" stop-opacity=".6"/><stop offset="100%" stop-color="#2a6aaf" stop-opacity="0"/></linearGradient><linearGradient id="v" x1="55.888%" x2="44.112%" y1="59.521%" y2="40.512%"><stop offset="0%" stop-color="#5ac8f7" stop-opacity=".6"/><stop offset="100%" stop-color="#2a6aaf" stop-opacity="0"/></linearGradient><linearGradient id="w" x1="0%" x2="100%" y1="49.99%" y2="49.99%"><stop offset="0%" stop-color="#5ac8f7" stop-opacity=".6"/><stop offset="100%" stop-color="#2a6aaf" stop-opacity="0"/></linearGradient><linearGradient id="x" x1="33.37%" x2="66.841%" y1="49.833%" y2="49.672%"><stop offset="0%" stop-color="#5ac8f7" stop-opacity=".6"/><stop offset="100%" stop-color="#2a6aaf" stop-opacity="0"/></linearGradient><linearGradient id="y" x1="0%" x2="100%" y1="49.991%" y2="49.991%"><stop offset="0%" stop-color="#5ac8f7" stop-opacity=".6"/><stop offset="100%" stop-color="#2a6aaf" stop-opacity="0"/></linearGradient><linearGradient id="z" x1="33.063%" x2="66.813%" y1="50.163%" y2="50.001%"><stop offset="0%" stop-color="#5ac8f7" stop-opacity=".6"/><stop offset="100%" stop-color="#2a6aaf" stop-opacity="0"/></linearGradient><linearGradient id="A" x1="0%" x2="100%" y1="49.983%" y2="49.983%"><stop offset="0%" stop-color="#5ac8f7" stop-opacity=".6"/><stop offset="100%" stop-color="#2a6aaf" stop-opacity="0"/></linearGradient><linearGradient id="B" x1="33.082%" x2="66.775%" y1="49.951%" y2="49.789%"><stop offset="0%" stop-color="#5ac8f7" stop-opacity=".6"/><stop offset="100%" stop-color="#2a6aaf" stop-opacity="0"/></linearGradient><linearGradient id="C" x1="-.206%" x2="100%" y1="49.735%" y2="49.735%"><stop offset="0%" stop-color="#5ac8f7" stop-opacity=".6"/><stop offset="100%" stop-color="#2a6aaf" stop-opacity="0"/></linearGradient><linearGradient id="D" x1="-6.383%" x2="93.617%" y1="49.177%" y2="49.177%"><stop offset="0%" stop-color="#5ac8f7" stop-opacity=".6"/><stop offset="100%" stop-color="#2a6aaf" stop-opacity="0"/></linearGradient></defs><g fill="none" fill-rule="evenodd" transform="translate(.22 .1)"><path fill="url(#a)" fill-rule="nonzero" stroke="#5ac8f7" stroke-linejoin="round" stroke-width=".2" d="m116.5 18.09 8.48 18.1-8.27 18.1-22.79 13.25-31.22 4.84-31.27-4.85L8.49 54.29.01 36.19l8.27-18.1 22.8-13.25L62.29 0l31.27 4.85z" transform="translate(0 73.54)"/><path fill="url(#b)" fill-rule="nonzero" d="M116.71 54.29 93.92 67.54 62.7 72.39l-31.27-4.86L8.49 54.29.01 36.19 0 40.27l8.48 18.09 22.94 13.25 31.27 4.85 31.21-4.85 22.8-13.25 8.27-18.09.01-4.08z" transform="translate(0 73.54)"/><path stroke="#5ac8f7" stroke-linejoin="round" stroke-width=".2" d="m124.98 109.73-.01 4.08-8.27 18.09.01-4.07zM8.49 127.83l-.01 4.07L0 113.81l.01-4.08zm108.22 0-.01 4.07-22.8 13.25.02-4.07zm-85.28 13.24-.01 4.08L8.48 131.9l.01-4.07z"/><path stroke="#5ac8f7" stroke-linejoin="round" stroke-width=".2" d="m93.92 141.08-.02 4.07L62.69 150l.01-4.07zm-31.22 4.85-.01 4.07-31.27-4.85.01-4.08z"/><path fill="url(#c)" fill-rule="nonzero" stroke="#5ac8f7" stroke-linejoin="round" stroke-width=".2" d="m104.2 16.18 7.58 16.19-7.39 16.19L84 60.41l-27.92 4.33-27.97-4.34L7.59 48.56.01 32.37 7.4 16.18 27.79 4.33 55.71 0l27.97 4.33z" transform="translate(6.6 73.79)"/><path fill="url(#d)" fill-rule="nonzero" d="M104.39 48.56 84 60.41l-27.92 4.33-27.97-4.34L7.59 48.56.01 32.37 0 36.01 7.58 52.2 28.1 64.05l27.97 4.34 27.92-4.34 20.39-11.85 7.39-16.18.01-3.65z" transform="translate(6.6 73.79)"/><path stroke="#5ac8f7" stroke-linejoin="round" stroke-width=".2" d="m118.38 106.16-.01 3.65-7.39 16.18.01-3.64zM14.19 122.35l-.01 3.64L6.6 109.8l.01-3.64z"/><path stroke="#5ac8f7" stroke-linejoin="round" stroke-width=".2" d="m110.99 122.35-.01 3.64-20.39 11.85.01-3.64zm-76.28 11.84-.01 3.65-20.52-11.85.01-3.64zM90.6 134.2l-.01 3.64-27.92 4.34.01-3.65z"/><path stroke="#5ac8f7" stroke-linejoin="round" stroke-width=".2" d="m62.68 138.53-.01 3.65-27.97-4.34.01-3.65z"/><g fill-rule="nonzero" stroke="#5ac8f7" stroke-linejoin="round" stroke-width=".25" opacity=".5"><path fill="url(#e)" d="m103.16 29.948-.16 71.08c0 7.59-5 15.16-15 20.95-20 11.65-52.65 11.65-72.83 0C5.07 116.118 0 108.428 0 100.738l.14-71.09c0 7.68 5.05 15.38 15.2 21.24 20.18 11.65 52.79 11.65 72.83 0 9.98-5.78 14.97-13.36 14.99-20.94Z" transform="translate(10.9 3.162)"/><path fill="url(#f)" d="M88 8.738c20.17 11.65 20.28 30.54.23 42.19s-52.65 11.65-72.83 0-20.32-30.57-.27-42.19 52.65-11.68 72.87 0Z" transform="translate(10.9 3.162)"/></g><path fill="url(#c)" fill-rule="nonzero" stroke="#5ac8f7" stroke-linejoin="round" stroke-width=".2" d="m104.2 16.19 7.58 16.19-7.39 16.18L84 60.41l-27.92 4.33-27.97-4.33L7.59 48.56.01 32.37 7.4 16.19 27.79 4.33 55.71 0l27.97 4.34z" transform="translate(6.6)"/><path fill="url(#g)" fill-rule="nonzero" d="M104.39 48.56 84 60.41l-27.92 4.34-27.97-4.34L7.59 48.56.01 32.37 0 36.02l7.58 16.19L28.1 64.05l27.97 4.34 27.92-4.33 20.39-11.85 7.39-16.19.01-3.64z" transform="translate(6.6)"/><path stroke="#5ac8f7" stroke-linejoin="round" stroke-width=".2" d="m118.38 32.38-.01 3.64-7.39 16.19.01-3.65zM14.19 48.56l-.01 3.65L6.6 36.02l.01-3.65zm96.8 0-.01 3.65-20.39 11.85.01-3.65zM34.71 60.41l-.01 3.64-20.52-11.84.01-3.65zm55.89 0-.01 3.65-27.92 4.33.01-3.64z"/><path stroke="#5ac8f7" stroke-linejoin="round" stroke-width=".2" d="m62.68 64.75-.01 3.64-27.97-4.34.01-3.64z"/><path fill="url(#h)" fill-rule="nonzero" stroke="#5ac8f7" stroke-linejoin="round" stroke-width=".2" d="m75.42 11.72 5.48 11.72-5.35 11.71-14.75 8.58-20.21 3.13-20.25-3.14-14.85-8.57L0 23.43l5.35-11.71 14.76-8.58L40.32 0l20.25 3.14z" transform="translate(22.04 7.57)"/><path fill="url(#i)" fill-rule="nonzero" d="M75.55 35.15 60.8 43.73l-20.21 3.13-20.25-3.13-14.85-8.58L0 23.43v2.64l5.48 11.72 14.85 8.57 20.25 3.14 20.21-3.13 14.76-8.58 5.35-11.72v-2.63z" transform="translate(22.04 7.57)"/><path stroke="#5ac8f7" stroke-linejoin="round" stroke-width=".2" d="M102.94 31.01v2.63l-5.35 11.72v-2.64zM27.53 42.72l-.01 2.64-5.48-11.72V31zm70.06 0v2.64l-14.76 8.58.01-2.64z"/><path stroke="#5ac8f7" stroke-linejoin="round" stroke-width=".2" d="m42.38 51.3-.01 2.63-14.85-8.57.01-2.64zm40.46 0-.01 2.64-20.21 3.13.01-2.63z"/><path stroke="#5ac8f7" stroke-linejoin="round" stroke-width=".2" d="m62.63 54.44-.01 2.63-20.25-3.14.01-2.63z"/><path fill="url(#j)" fill-rule="nonzero" d="M40.53 13.73a5.36 5.36 0 0 1-2.61-.62 1.93 1.93 0 0 1-1.06-1.57 1.9 1.9 0 0 1 1.1-1.57 5.76 5.76 0 0 1 5.2 0 1.92 1.92 0 0 1 1.12 1.58 1.9 1.9 0 0 1-1.1 1.56 5.3 5.3 0 0 1-2.65.62" transform="translate(22.04 7.57)"/><path fill="#5ac8f7" fill-rule="nonzero" d="M62.55 17.02a5.17 5.17 0 0 1 2.55.61c1.42.82 1.43 2.14 0 3a5.17 5.17 0 0 1-2.55.61 5.24 5.24 0 0 1-2.56-.61c-1.41-.82-1.42-2.14 0-3a5.15 5.15 0 0 1 2.55-.61m0-.2a5.4 5.4 0 0 0-2.65.64 2 2 0 0 0-1.15 1.65 2 2 0 0 0 1.16 1.65 5.34 5.34 0 0 0 2.66.64 5.3 5.3 0 0 0 2.65-.64 2 2 0 0 0 1.15-1.64 2 2 0 0 0-1.17-1.66 5.4 5.4 0 0 0-2.65-.64"/><g fill-rule="nonzero" stroke="#5ac8f7" stroke-linejoin="round" stroke-width=".2" opacity=".5"><path fill="url(#k)" d="M40.45 13.63v33.24" transform="translate(22.04 7.57)"/><path fill="url(#l)" d="m41.82 13.63 18.97 30.1" transform="translate(22.04 7.57)"/><path fill="url(#m)" d="m43.08 13.2 32.47 21.95" transform="translate(22.04 7.57)"/><path fill="url(#n)" d="M44.13 12.09 80.9 23.43" transform="translate(22.04 7.57)"/><path fill="url(#o)" d="m44.13 10.91 31.29.81" transform="translate(22.04 7.57)"/><path fill="url(#p)" d="m43.29 10.06 17.28-6.92" transform="translate(22.04 7.57)"/><path fill="url(#q)" d="M40.32 9.45V0" transform="translate(22.04 7.57)"/><path fill="url(#r)" d="M37.76 10.06 20.11 3.14" transform="translate(22.04 7.57)"/><path fill="url(#s)" d="m36.91 11.07-31.56.65" transform="translate(22.04 7.57)"/><path fill="url(#t)" d="M36.91 12.16 0 23.43" transform="translate(22.04 7.57)"/><path fill="url(#u)" d="M37.97 13.2 5.49 35.15" transform="translate(22.04 7.57)"/><path fill="url(#v)" d="M38.98 13.63 20.34 43.72" transform="translate(22.04 7.57)"/></g><g fill-rule="nonzero" stroke="#5ac8f7" stroke-linejoin="round" stroke-width=".2" opacity=".5" transform="translate(56.08 8.983)"><path fill="url(#w)" d="M4.52 1.317v9.17a1.12 1.12 0 0 1-.66.92 3.52 3.52 0 0 1-3.19 0 1.15 1.15 0 0 1-.67-.93v-9.17c.036.406.289.762.66.93a3.54 3.54 0 0 0 3.2 0 1.11 1.11 0 0 0 .66-.92Z"/><ellipse cx="2.264" cy="1.316" fill="url(#x)" rx="1.31" ry="2.26" transform="rotate(-89.84 2.264 1.316)"/></g><path fill="url(#y)" fill-rule="nonzero" stroke="#5ac8f7" stroke-linejoin="round" stroke-width=".2" d="M61.5 9v1.32a1.59 1.59 0 0 1-.92 1.28c-1.4.72-3.06.72-4.46 0a1.58 1.58 0 0 1-.93-1.3V8.98a1.58 1.58 0 0 0 .93 1.3 4.94 4.94 0 0 0 4.46 0A1.56 1.56 0 0 0 61.5 9Z"/><ellipse cx="58.343" cy="8.986" fill="url(#z)" fill-rule="nonzero" stroke="#5ac8f7" stroke-linejoin="round" stroke-width=".2" rx="1.83" ry="3.15" transform="rotate(-89.84 58.343 8.986)"/><g fill-rule="nonzero" stroke="#5ac8f7" stroke-linejoin="round" stroke-width=".2" opacity=".5" transform="translate(64.64 11.681)"><path fill="url(#A)" d="M3.48 1.019v7.07a.87.87 0 0 1-.5.71 2.73 2.73 0 0 1-2.46 0 .87.87 0 0 1-.52-.72v-7.07a.87.87 0 0 0 .52.72 2.73 2.73 0 0 0 2.46 0 .87.87 0 0 0 .5-.71Z"/><ellipse cx="1.746" cy="1.015" fill="url(#B)" rx="1.01" ry="1.74" transform="rotate(-89.84 1.746 1.015)"/></g><path fill="url(#C)" fill-rule="nonzero" stroke="#5ac8f7" stroke-linejoin="round" stroke-width=".2" d="M68.82 11.7v1c-.032.437-.3.82-.7 1a3.79 3.79 0 0 1-3.44 0 1.21 1.21 0 0 1-.72-1v-1c.044.438.318.82.72 1 1.08.55 2.36.55 3.44 0a1.25 1.25 0 0 0 .7-1Z"/><ellipse cx="66.386" cy="11.693" fill="url(#D)" fill-rule="nonzero" stroke="#5ac8f7" stroke-linejoin="round" stroke-width=".2" rx="1.41" ry="2.43" transform="rotate(-89.84 66.386 11.693)"/></g></svg>