<svg xmlns="http://www.w3.org/2000/svg" viewBox="0 0 101 151"><title>Storage tank 1（储油罐1）</title><defs><linearGradient id="a" x1="78.934%" x2="21.066%" y1="66.761%" y2="33.239%"><stop offset="0%" stop-color="#5ac8f7" stop-opacity=".6"/><stop offset="100%" stop-color="#2a6aaf" stop-opacity="0"/></linearGradient><linearGradient id="b" x1="22.304%" x2="77.786%" y1="55.528%" y2="37.648%"><stop offset="0%" stop-color="#2a6aaf" stop-opacity="0"/><stop offset="100%" stop-color="#5ac8f7" stop-opacity=".6"/></linearGradient><linearGradient id="c" x1="78.933%" x2="21.067%" y1="66.756%" y2="33.238%"><stop offset="0%" stop-color="#5ac8f7" stop-opacity=".6"/><stop offset="100%" stop-color="#2a6aaf" stop-opacity="0"/></linearGradient><linearGradient id="d" x1="22.297%" x2="77.782%" y1="55.524%" y2="37.653%"><stop offset="0%" stop-color="#2a6aaf" stop-opacity="0"/><stop offset="100%" stop-color="#5ac8f7" stop-opacity=".6"/></linearGradient><linearGradient id="e" x1="20.495%" x2="79.479%" y1="81.791%" y2="2.571%"><stop offset="0%" stop-color="#2a6aaf" stop-opacity="0"/><stop offset="100%" stop-color="#5ac8f7" stop-opacity=".6"/></linearGradient><linearGradient id="f" x1="78.934%" x2="21.055%" y1="66.764%" y2="33.234%"><stop offset="0%" stop-color="#5ac8f7" stop-opacity=".6"/><stop offset="100%" stop-color="#2a6aaf" stop-opacity="0"/></linearGradient><linearGradient id="g" x1="78.928%" x2="21.072%" y1="66.754%" y2="33.246%"><stop offset="0%" stop-color="#5ac8f7" stop-opacity=".6"/><stop offset="100%" stop-color="#2a6aaf" stop-opacity="0"/></linearGradient><linearGradient id="h" x1="22.293%" x2="77.769%" y1="55.526%" y2="37.648%"><stop offset="0%" stop-color="#2a6aaf" stop-opacity="0"/><stop offset="100%" stop-color="#5ac8f7" stop-opacity=".6"/></linearGradient><linearGradient id="i" x1="79.097%" x2="20.736%" y1="67.222%" y2="32.768%"><stop offset="0%" stop-color="#5ac8f7" stop-opacity=".6"/><stop offset="100%" stop-color="#2a6aaf" stop-opacity="0"/></linearGradient><linearGradient id="j" x1="50.941%" x2="49.061%" y1="74.991%" y2="25.009%"><stop offset="0%" stop-color="#5ac8f7" stop-opacity=".6"/><stop offset="100%" stop-color="#2a6aaf" stop-opacity="0"/></linearGradient><linearGradient id="k" x1="75.682%" x2="24.292%" y1="90.739%" y2="9.261%"><stop offset="0%" stop-color="#5ac8f7" stop-opacity=".6"/><stop offset="100%" stop-color="#2a6aaf" stop-opacity="0"/></linearGradient><linearGradient id="l" x1="91.878%" x2="8.083%" y1="78.306%" y2="21.668%"><stop offset="0%" stop-color="#5ac8f7" stop-opacity=".6"/><stop offset="100%" stop-color="#2a6aaf" stop-opacity="0"/></linearGradient><linearGradient id="m" x1="82.699%" x2="17.267%" y1="60.086%" y2="39.914%"><stop offset="0%" stop-color="#5ac8f7" stop-opacity=".6"/><stop offset="100%" stop-color="#2a6aaf" stop-opacity="0"/></linearGradient><linearGradient id="n" x1="75.629%" x2="24.331%" y1="51.026%" y2="48.976%"><stop offset="0%" stop-color="#5ac8f7" stop-opacity=".6"/><stop offset="100%" stop-color="#2a6aaf" stop-opacity="0"/></linearGradient><linearGradient id="o" x1="65.025%" x2="34.975%" y1="56.013%" y2="43.987%"><stop offset="0%" stop-color="#5ac8f7" stop-opacity=".6"/><stop offset="100%" stop-color="#2a6aaf" stop-opacity="0"/></linearGradient><linearGradient id="p" x1="53.307%" x2="46.693%" y1="75%" y2="25%"><stop offset="0%" stop-color="#5ac8f7" stop-opacity=".6"/><stop offset="100%" stop-color="#2a6aaf" stop-opacity="0"/></linearGradient><linearGradient id="q" x1="84.844%" x2="15.227%" y1="63.643%" y2="36.329%"><stop offset="0%" stop-color="#5ac8f7" stop-opacity=".6"/><stop offset="100%" stop-color="#2a6aaf" stop-opacity="0"/></linearGradient><linearGradient id="r" x1="74.495%" x2="25.545%" y1="50.969%" y2="49.031%"><stop offset="0%" stop-color="#5ac8f7" stop-opacity=".6"/><stop offset="100%" stop-color="#2a6aaf" stop-opacity="0"/></linearGradient><linearGradient id="s" x1="67.355%" x2="32.645%" y1="55.306%" y2="44.704%"><stop offset="0%" stop-color="#5ac8f7" stop-opacity=".6"/><stop offset="100%" stop-color="#2a6aaf" stop-opacity="0"/></linearGradient><linearGradient id="t" x1="58.138%" x2="41.901%" y1="55.459%" y2="44.515%"><stop offset="0%" stop-color="#5ac8f7" stop-opacity=".6"/><stop offset="100%" stop-color="#2a6aaf" stop-opacity="0"/></linearGradient><linearGradient id="u" x1="55.876%" x2="44.099%" y1="59.51%" y2="40.49%"><stop offset="0%" stop-color="#5ac8f7" stop-opacity=".6"/><stop offset="100%" stop-color="#2a6aaf" stop-opacity="0"/></linearGradient><linearGradient id="v" x1="0%" x2="100%" y1="50.077%" y2="50.077%"><stop offset="0%" stop-color="#5ac8f7" stop-opacity=".6"/><stop offset="100%" stop-color="#2a6aaf" stop-opacity="0"/></linearGradient><linearGradient id="w" x1="33.184%" x2="66.677%" y1="50.166%" y2="50.005%"><stop offset="0%" stop-color="#5ac8f7" stop-opacity=".6"/><stop offset="100%" stop-color="#2a6aaf" stop-opacity="0"/></linearGradient><linearGradient id="x" x1="0%" x2="100%" y1="50.647%" y2="50.647%"><stop offset="0%" stop-color="#5ac8f7" stop-opacity=".6"/><stop offset="100%" stop-color="#2a6aaf" stop-opacity="0"/></linearGradient><linearGradient id="y" x1="33.11%" x2="66.676%" y1="50.084%" y2="49.923%"><stop offset="0%" stop-color="#5ac8f7" stop-opacity=".6"/><stop offset="100%" stop-color="#2a6aaf" stop-opacity="0"/></linearGradient><linearGradient id="z" x1="1.064%" x2="100%" y1="50.015%" y2="50.015%"><stop offset="0%" stop-color="#5ac8f7" stop-opacity=".6"/><stop offset="100%" stop-color="#2a6aaf" stop-opacity="0"/></linearGradient><linearGradient id="A" x1="32.992%" x2="66.741%" y1="50.024%" y2="49.863%"><stop offset="0%" stop-color="#5ac8f7" stop-opacity=".6"/><stop offset="100%" stop-color="#2a6aaf" stop-opacity="0"/></linearGradient><linearGradient id="B" x1="0%" x2="100%" y1="49.999%" y2="49.999%"><stop offset="0%" stop-color="#5ac8f7" stop-opacity=".6"/><stop offset="100%" stop-color="#2a6aaf" stop-opacity="0"/></linearGradient><linearGradient id="C" x1="33.016%" x2="66.943%" y1="50.241%" y2="50.078%"><stop offset="0%" stop-color="#5ac8f7" stop-opacity=".6"/><stop offset="100%" stop-color="#2a6aaf" stop-opacity="0"/></linearGradient></defs><g fill="none" fill-rule="evenodd" transform="translate(.22 .1)"><path fill="url(#a)" fill-rule="nonzero" stroke="#5ac8f7" stroke-linejoin="round" stroke-width=".2" d="m93.2 14.48 6.78 14.48-6.61 14.47-18.24 10.6-24.97 3.88-25.02-3.88-18.35-10.6L.01 28.95l6.61-14.47 18.24-10.6L49.83 0l25.02 3.88z" transform="translate(0 88.83)"/><path fill="url(#b)" fill-rule="nonzero" d="m93.37 43.43-18.24 10.6-24.97 3.88-25.02-3.88-18.35-10.6L.01 28.95 0 32.21l6.78 14.48 18.35 10.6 25.02 3.88 24.97-3.88 18.24-10.6 6.62-14.47v-3.26z" transform="translate(0 88.83)"/><path stroke="#5ac8f7" stroke-linejoin="round" stroke-width=".2" d="M99.98 117.79v3.26l-6.62 14.47.01-3.26zM6.79 132.26l-.01 3.26L0 121.04l.01-3.26z"/><path stroke="#5ac8f7" stroke-linejoin="round" stroke-width=".2" d="m93.37 132.26-.01 3.26-18.24 10.6.01-3.26zm-68.23 10.6-.01 3.26-18.35-10.6.01-3.26zm49.99 0-.01 3.26L50.15 150l.01-3.26z"/><path stroke="#5ac8f7" stroke-linejoin="round" stroke-width=".2" d="m50.16 146.74-.01 3.26-25.02-3.88.01-3.26z"/><path fill="url(#c)" fill-rule="nonzero" stroke="#5ac8f7" stroke-linejoin="round" stroke-width=".2" d="m83.36 12.95 6.07 12.95-5.92 12.95-16.31 9.48-22.34 3.47-22.37-3.48-16.42-9.47L0 25.9l5.92-12.95 16.31-9.48L44.57 0l22.38 3.47z" transform="translate(5.28 89.03)"/><path fill="url(#d)" fill-rule="nonzero" d="M83.51 38.85 67.2 48.33 44.86 51.8l-22.37-3.47-16.42-9.48L0 25.9v2.91l6.06 12.95 16.42 9.48 22.38 3.47 22.33-3.47 16.32-9.48 5.91-12.95.01-2.91z" transform="translate(5.28 89.03)"/><path stroke="#5ac8f7" stroke-linejoin="round" stroke-width=".2" d="m94.71 114.93-.01 2.91-5.91 12.95v-2.91zm-83.36 12.95-.01 2.91-6.06-12.95v-2.91zm77.44 0v2.91l-16.32 9.48.01-2.91z"/><path stroke="#5ac8f7" stroke-linejoin="round" stroke-width=".2" d="m27.77 137.36-.01 2.91-16.42-9.48.01-2.91zm44.71 0-.01 2.91-22.33 3.47v-2.91z"/><path stroke="#5ac8f7" stroke-linejoin="round" stroke-width=".2" d="M50.14 140.83v2.91l-22.38-3.47.01-2.91z"/><g fill-rule="nonzero" stroke="#5ac8f7" stroke-linejoin="round" stroke-width=".25" opacity=".5"><path fill="url(#e)" d="m82.53 23.98-.11 86.86c0 6.07-4 12.13-12 16.76-16 9.32-42.12 9.33-58.26 0-8.12-4.69-12.18-10.85-12.16-17l.18-86.85c0 6.14 4 12.3 12.16 17 16.14 9.32 42.23 9.31 58.26 0 7.92-4.65 11.91-10.7 11.93-16.77Z" transform="translate(8.72 2.51)"/><path fill="url(#f)" d="M70.37 6.99c16.14 9.32 16.22 24.42.18 33.75s-42.12 9.32-58.26 0-16.22-24.43-.19-33.75 42.08-9.32 58.27 0Z" transform="translate(8.72 2.51)"/></g><path fill="url(#c)" fill-rule="nonzero" stroke="#5ac8f7" stroke-linejoin="round" stroke-width=".2" d="m83.36 12.95 6.07 12.95-5.92 12.95-16.31 9.48-22.34 3.47-22.37-3.48-16.42-9.47L0 25.9l5.92-12.95 16.31-9.48L44.57 0l22.38 3.47z" transform="translate(5.28)"/><path fill="url(#d)" fill-rule="nonzero" d="M83.51 38.85 67.2 48.33 44.86 51.8l-22.37-3.47-16.42-9.48L0 25.9v2.91l6.06 12.96 16.42 9.47 22.38 3.47 22.33-3.46 16.32-9.48 5.91-12.95.01-2.92z" transform="translate(5.28)"/><path stroke="#5ac8f7" stroke-linejoin="round" stroke-width=".2" d="m94.71 25.9-.01 2.92-5.91 12.95v-2.92zM11.35 38.85l-.01 2.92-6.06-12.96V25.9zm77.44 0v2.92l-16.32 9.48.01-2.92z"/><path stroke="#5ac8f7" stroke-linejoin="round" stroke-width=".2" d="m27.77 48.33-.01 2.91-16.42-9.47.01-2.92zm44.71 0-.01 2.92-22.33 3.46V51.8z"/><path stroke="#5ac8f7" stroke-linejoin="round" stroke-width=".2" d="M50.14 51.8v2.91l-22.38-3.47.01-2.91z"/><path fill="url(#g)" fill-rule="nonzero" stroke="#5ac8f7" stroke-linejoin="round" stroke-width=".2" d="m60.34 9.37 4.39 9.37-4.29 9.38-11.8 6.86-16.17 2.51-16.19-2.52-11.89-6.85L0 18.74l4.29-9.37 11.8-6.86L32.26 0l16.2 2.51z" transform="translate(17.63 6.06)"/><path fill="url(#h)" fill-rule="nonzero" d="m60.44 28.12-11.8 6.86-16.17 2.51-16.19-2.51-11.89-6.86L0 18.74v2.11l4.39 9.38 11.88 6.86 16.2 2.51 16.16-2.51 11.81-6.86 4.28-9.37.01-2.11z" transform="translate(17.63 6.06)"/><path stroke="#5ac8f7" stroke-linejoin="round" stroke-width=".2" d="m82.36 24.81-.01 2.11-4.28 9.37v-2.11zm-60.34 9.37v2.11l-4.39-9.38V24.8zm56.05 0v2.11l-11.81 6.86.01-2.11z"/><path stroke="#5ac8f7" stroke-linejoin="round" stroke-width=".2" d="m33.91 41.04-.01 2.11-11.88-6.86v-2.11zm32.36 0-.01 2.11-16.16 2.51v-2.11z"/><path stroke="#5ac8f7" stroke-linejoin="round" stroke-width=".2" d="M50.1 43.55v2.11l-16.2-2.51.01-2.11z"/><path fill="url(#i)" fill-rule="nonzero" d="M32.43 11a4.3 4.3 0 0 1-2.1-.5 1.55 1.55 0 0 1-.9-1.28 1.51 1.51 0 0 1 .89-1.26 4.62 4.62 0 0 1 4.18 0c.513.225.862.712.91 1.27a1.54 1.54 0 0 1-.89 1.27 4.3 4.3 0 0 1-2.09.5" transform="translate(17.63 6.06)"/><path fill="#5ac8f7" fill-rule="nonzero" d="M50.04 13.62a4.1 4.1 0 0 1 2 .49 1.25 1.25 0 0 1 0 2.36 4.51 4.51 0 0 1-4.09 0 1.25 1.25 0 0 1 0-2.36 4.1 4.1 0 0 1 2-.49m0-.2a4.34 4.34 0 0 0-2.05.48 1.62 1.62 0 0 0-.94 1.35 1.65 1.65 0 0 0 .94 1.4 4.4 4.4 0 0 0 2.15.51 4.3 4.3 0 0 0 2.14-.52 1.63 1.63 0 0 0 .94-1.35 1.64 1.64 0 0 0-1-1.36 4.4 4.4 0 0 0-2.14-.51z"/><g fill-rule="nonzero" stroke="#5ac8f7" stroke-linejoin="round" stroke-width=".2" opacity=".5"><path fill="url(#j)" d="M32.36 10.9v26.59" transform="translate(17.63 6.06)"/><path fill="url(#k)" d="m33.46 10.9 15.18 24.08" transform="translate(17.63 6.06)"/><path fill="url(#l)" d="m34.47 10.56 25.98 17.56" transform="translate(17.63 6.06)"/><path fill="url(#m)" d="m35.31 9.67 29.42 9.07" transform="translate(17.63 6.06)"/><path fill="url(#n)" d="m35.31 8.72 25.03.65" transform="translate(17.63 6.06)"/><path fill="url(#o)" d="m34.64 8.05 13.81-5.54" transform="translate(17.63 6.06)"/><path fill="url(#p)" d="M32.26 7.56V0" transform="translate(17.63 6.06)"/><path fill="url(#q)" d="M30.21 8.05 16.09 2.51" transform="translate(17.63 6.06)"/><path fill="url(#r)" d="m29.53 8.85-25.25.52" transform="translate(17.63 6.06)"/><path fill="url(#s)" d="M29.53 9.72 0 18.74" transform="translate(17.63 6.06)"/><path fill="url(#t)" d="M30.38 10.56 4.39 28.12" transform="translate(17.63 6.06)"/><path fill="url(#u)" d="M31.19 10.9 16.28 34.98" transform="translate(17.63 6.06)"/></g><g fill-rule="nonzero" stroke="#5ac8f7" stroke-linejoin="round" stroke-width=".2" opacity=".5" transform="translate(44.868 7.178)"><path fill="url(#v)" d="M3.612 1.062v7.34a.9.9 0 0 1-.53.73 2.8 2.8 0 0 1-2.55 0 .88.88 0 0 1-.53-.74v-7.34a.93.93 0 0 0 .53.75 2.82 2.82 0 0 0 2.56 0 .9.9 0 0 0 .52-.74Z"/><ellipse cx="1.813" cy="1.055" fill="url(#w)" rx="1.05" ry="1.81" transform="rotate(-89.84 1.813 1.055)"/></g><path fill="url(#x)" fill-rule="nonzero" stroke="#5ac8f7" stroke-linejoin="round" stroke-width=".2" d="M49.2 7.2v1.06a1.25 1.25 0 0 1-.74 1 3.94 3.94 0 0 1-3.57 0 1.27 1.27 0 0 1-.74-1V7.18c.053.443.34.825.75 1 1.12.58 2.45.58 3.57 0a1.25 1.25 0 0 0 .73-.98Z"/><ellipse cx="46.671" cy="7.191" fill="url(#y)" fill-rule="nonzero" stroke="#5ac8f7" stroke-linejoin="round" stroke-width=".2" rx="1.46" ry="2.52" transform="rotate(-89.84 46.67 7.19)"/><g fill-rule="nonzero" stroke="#5ac8f7" stroke-linejoin="round" stroke-width=".2" opacity=".5" transform="translate(51.68 9.345)"><path fill="url(#z)" d="M2.82.815v5.66a.69.69 0 0 1-.41.56 2.14 2.14 0 0 1-2 0 .7.7 0 0 1-.41-.57V.805a.67.67 0 0 0 .41.58 2.18 2.18 0 0 0 2 0 .7.7 0 0 0 .41-.57Z"/><ellipse cx="1.429" cy=".814" fill="url(#A)" rx="1" ry="1.39" transform="rotate(-89.84 1.429 .814)"/></g><path fill="url(#B)" fill-rule="nonzero" stroke="#5ac8f7" stroke-linejoin="round" stroke-width=".2" d="M55.05 9.36v.81a1 1 0 0 1-.56.79 3.05 3.05 0 0 1-2.76 0 1 1 0 0 1-.57-.8v-.81a1 1 0 0 0 .58.8 3 3 0 0 0 2.75 0 1 1 0 0 0 .56-.79Z"/><ellipse cx="53.109" cy="9.347" fill="url(#C)" fill-rule="nonzero" stroke="#5ac8f7" stroke-linejoin="round" stroke-width=".2" rx="1.13" ry="1.94" transform="rotate(-89.84 53.109 9.347)"/></g></svg>