<svg xmlns="http://www.w3.org/2000/svg" viewBox="0 0 53 151"><title>Tower（塔楼）</title><defs><linearGradient id="a" x1="80.995%" x2="19.005%" y1="67.938%" y2="32.062%"><stop offset="0%" stop-color="#2a6aaf" stop-opacity="0"/><stop offset="100%" stop-color="#5ac8f7" stop-opacity=".6"/></linearGradient><linearGradient id="b" x1="48.128%" x2="51.872%" y1="72.958%" y2="27.042%"><stop offset="0%" stop-color="#2a6aaf" stop-opacity="0"/><stop offset="100%" stop-color="#5ac8f7" stop-opacity=".6"/></linearGradient><linearGradient id="c" x1="46.017%" x2="53.445%" y1="76.262%" y2="24.726%"><stop offset="0%" stop-color="#2a6aaf" stop-opacity="0"/><stop offset="100%" stop-color="#5ac8f7" stop-opacity=".6"/></linearGradient><linearGradient id="d" x1="45.381%" x2="54.628%" y1="79.98%" y2="23.505%"><stop offset="0%" stop-color="#2a6aaf" stop-opacity="0"/><stop offset="100%" stop-color="#5ac8f7" stop-opacity=".6"/></linearGradient><linearGradient id="e" x1="46.465%" x2="54.083%" y1="76.605%" y2="24.397%"><stop offset="0%" stop-color="#2a6aaf" stop-opacity="0"/><stop offset="100%" stop-color="#5ac8f7" stop-opacity=".6"/></linearGradient><linearGradient id="f" x1="47.75%" x2="52.251%" y1="77.066%" y2="22.941%"><stop offset="0%" stop-color="#2a6aaf" stop-opacity="0"/><stop offset="100%" stop-color="#5ac8f7" stop-opacity=".6"/></linearGradient><linearGradient id="g" x1="45.574%" x2="54.591%" y1="79.429%" y2="21.629%"><stop offset="0%" stop-color="#2a6aaf" stop-opacity="0"/><stop offset="100%" stop-color="#5ac8f7" stop-opacity=".6"/></linearGradient><linearGradient id="h" x1="44.824%" x2="55.198%" y1="80.527%" y2="23.326%"><stop offset="0%" stop-color="#2a6aaf" stop-opacity="0"/><stop offset="100%" stop-color="#5ac8f7" stop-opacity=".6"/></linearGradient><linearGradient id="i" x1="46.341%" x2="53.492%" y1="73.664%" y2="27.41%"><stop offset="0%" stop-color="#2a6aaf" stop-opacity="0"/><stop offset="100%" stop-color="#5ac8f7" stop-opacity=".6"/></linearGradient><linearGradient id="j" x1="80.989%" x2="19.011%" y1="67.911%" y2="32.07%"><stop offset="0%" stop-color="#2a6aaf" stop-opacity="0"/><stop offset="100%" stop-color="#5ac8f7" stop-opacity=".6"/></linearGradient></defs><g fill="none" fill-rule="evenodd"><g opacity=".2"><path fill="url(#a)" fill-rule="nonzero" d="m52.39 8.89.07 12.58-15.29 8.89H15.46l-15.4-8.9L0 8.89 15.29.01 36.99 0z" transform="translate(.25 119.77)"/><path fill="url(#a)" fill-rule="nonzero" stroke="#5ac8f7" stroke-linejoin="round" stroke-width=".25" d="m52.39 8.89.07 12.58-15.29 8.89H15.46l-15.4-8.9L0 8.89 15.29.01 36.99 0z" transform="translate(.25 119.77)"/><path stroke="#5ac8f7" stroke-linejoin="round" stroke-width=".25" d="m52.64 128.66.07 12.58-15.29 8.89H15.71l-15.4-8.9-.06-12.57 15.29-8.88 21.7-.01z"/></g><path fill="url(#b)" fill-rule="nonzero" d="m41.37 5.1.04 7.23 11.05 128.78-.07-12.58z" transform="translate(.25 .13)"/><path fill="url(#b)" fill-rule="nonzero" stroke="#5ac8f7" stroke-linejoin="round" stroke-width=".25" d="m41.37 5.1.04 7.23 11.05 128.78-.07-12.58z" transform="translate(.25 .13)"/><path stroke="#5ac8f7" stroke-linejoin="round" stroke-width=".25" d="m41.62 5.23.04 7.23 11.05 128.78-.07-12.58z"/><path fill="url(#c)" fill-rule="nonzero" d="m41.41 12.33 11.05 128.78L37.17 150 32.62 17.43z" transform="translate(.25 .13)"/><path fill="url(#c)" fill-rule="nonzero" stroke="#5ac8f7" stroke-linejoin="round" stroke-width=".25" d="m41.41 12.33 11.05 128.78L37.17 150 32.62 17.43z" transform="translate(.25 .13)"/><path stroke="#5ac8f7" stroke-linejoin="round" stroke-width=".25" d="m41.66 12.46 11.05 128.78-15.29 8.89-4.55-132.57z"/><path fill="url(#d)" fill-rule="nonzero" d="M32.62 17.43 37.17 150H15.46l4.69-132.57z" transform="translate(.25 .13)"/><path fill="url(#d)" fill-rule="nonzero" stroke="#5ac8f7" stroke-linejoin="round" stroke-width=".25" d="M32.62 17.43 37.17 150H15.46l4.69-132.57z" transform="translate(.25 .13)"/><path stroke="#5ac8f7" stroke-linejoin="round" stroke-width=".25" d="m32.87 17.56 4.55 132.57H15.71L20.4 17.56z"/><path fill="url(#e)" fill-rule="nonzero" d="M20.15 17.43 15.46 150l-15.4-8.9L11.31 12.32z" transform="translate(.25 .13)"/><path fill="url(#e)" fill-rule="nonzero" stroke="#5ac8f7" stroke-linejoin="round" stroke-width=".25" d="M20.15 17.43 15.46 150l-15.4-8.9L11.31 12.32z" transform="translate(.25 .13)"/><path stroke="#5ac8f7" stroke-linejoin="round" stroke-width=".25" d="m20.4 17.56-4.69 132.57-15.4-8.9L11.56 12.45z"/><path fill="url(#f)" fill-rule="nonzero" d="M11.31 12.32.06 141.1 0 128.53 11.27 5.1z" transform="translate(.25 .13)"/><path fill="url(#f)" fill-rule="nonzero" stroke="#5ac8f7" stroke-linejoin="round" stroke-width=".25" d="M11.31 12.32.06 141.1 0 128.53 11.27 5.1z" transform="translate(.25 .13)"/><path stroke="#5ac8f7" stroke-linejoin="round" stroke-width=".25" d="M11.56 12.45.31 141.23l-.06-12.57L11.52 5.23z"/><g opacity=".2"><path fill="url(#g)" fill-rule="nonzero" d="M11.27 5.1 20.05 0l-4.76 119.65L0 128.53z" transform="translate(.25 .13)"/><path fill="url(#g)" fill-rule="nonzero" stroke="#5ac8f7" stroke-linejoin="round" stroke-width=".25" d="M11.27 5.1 20.05 0l-4.76 119.65L0 128.53z" transform="translate(.25 .13)"/><path stroke="#5ac8f7" stroke-linejoin="round" stroke-width=".25" d="M11.52 5.23 20.3.13l-4.76 119.65-15.29 8.88z"/></g><g opacity=".2"><path fill="url(#h)" fill-rule="nonzero" d="M4.76 0h12.47l4.47 119.64-21.7.01z" transform="translate(15.54 .13)"/><path fill="url(#h)" fill-rule="nonzero" stroke="#5ac8f7" stroke-linejoin="round" stroke-width=".25" d="M4.76 0h12.47l4.47 119.64-21.7.01z" transform="translate(15.54 .13)"/><path stroke="#5ac8f7" stroke-linejoin="round" stroke-width=".25" d="M20.3.13h12.47l4.47 119.64-21.7.01z"/></g><g opacity=".2"><path fill="url(#i)" fill-rule="nonzero" d="m0 0 8.85 5.1 11.02 123.43-15.4-8.89z" transform="translate(32.77 .13)"/><path fill="url(#i)" fill-rule="nonzero" stroke="#5ac8f7" stroke-linejoin="round" stroke-width=".25" d="m0 0 8.85 5.1 11.02 123.43-15.4-8.89z" transform="translate(32.77 .13)"/><path stroke="#5ac8f7" stroke-linejoin="round" stroke-width=".25" d="m32.77.13 8.85 5.1 11.02 123.43-15.4-8.89z"/></g><path fill="url(#j)" fill-rule="nonzero" d="m41.37 5.1.04 7.23-8.79 5.1H20.15l-8.84-5.11-.04-7.22L20.05 0h12.47z" transform="translate(.25 .13)"/><path fill="url(#j)" fill-rule="nonzero" stroke="#5ac8f7" stroke-linejoin="round" stroke-width=".25" d="m41.37 5.1.04 7.23-8.79 5.1H20.15l-8.84-5.11-.04-7.22L20.05 0h12.47z" transform="translate(.25 .13)"/><path stroke="#5ac8f7" stroke-linejoin="round" stroke-width=".25" d="m41.62 5.23.04 7.23-8.79 5.1H20.4l-8.84-5.11-.04-7.22L20.3.13h12.47z"/></g></svg>