<svg xmlns="http://www.w3.org/2000/svg" viewBox="0 0 72 151"><title>Windmills（风车）</title><defs><linearGradient id="a" x1="80.986%" x2="19.014%" y1="67.943%" y2="32.057%"><stop offset="0%" stop-color="#2a6aaf" stop-opacity="0"/><stop offset="100%" stop-color="#5ac8f7" stop-opacity=".6"/></linearGradient><linearGradient id="b" x1="48.06%" x2="51.941%" y1="72.88%" y2="27.12%"><stop offset="0%" stop-color="#2a6aaf" stop-opacity="0"/><stop offset="100%" stop-color="#5ac8f7" stop-opacity=".6"/></linearGradient><linearGradient id="c" x1="47.154%" x2="52.436%" y1="75.248%" y2="25.761%"><stop offset="0%" stop-color="#2a6aaf" stop-opacity="0"/><stop offset="100%" stop-color="#5ac8f7" stop-opacity=".6"/></linearGradient><linearGradient id="d" x1="47.211%" x2="52.789%" y1="78.474%" y2="25.008%"><stop offset="0%" stop-color="#2a6aaf" stop-opacity="0"/><stop offset="100%" stop-color="#5ac8f7" stop-opacity=".6"/></linearGradient><linearGradient id="e" x1="47.384%" x2="53.03%" y1="76.796%" y2="24.23%"><stop offset="0%" stop-color="#2a6aaf" stop-opacity="0"/><stop offset="100%" stop-color="#5ac8f7" stop-opacity=".6"/></linearGradient><linearGradient id="f" x1="47.684%" x2="52.318%" y1="77.127%" y2="22.882%"><stop offset="0%" stop-color="#2a6aaf" stop-opacity="0"/><stop offset="100%" stop-color="#5ac8f7" stop-opacity=".6"/></linearGradient><linearGradient id="g" x1="46.849%" x2="53.276%" y1="78.423%" y2="22.66%"><stop offset="0%" stop-color="#2a6aaf" stop-opacity="0"/><stop offset="100%" stop-color="#5ac8f7" stop-opacity=".6"/></linearGradient><linearGradient id="h" x1="46.889%" x2="53.118%" y1="78.871%" y2="24.988%"><stop offset="0%" stop-color="#2a6aaf" stop-opacity="0"/><stop offset="100%" stop-color="#5ac8f7" stop-opacity=".6"/></linearGradient><linearGradient id="i" x1="47.275%" x2="52.599%" y1="73.788%" y2="27.313%"><stop offset="0%" stop-color="#2a6aaf" stop-opacity="0"/><stop offset="100%" stop-color="#5ac8f7" stop-opacity=".6"/></linearGradient><linearGradient id="j" x1="80.905%" x2="18.995%" y1="67.917%" y2="32.083%"><stop offset="0%" stop-color="#2a6aaf" stop-opacity="0"/><stop offset="100%" stop-color="#5ac8f7" stop-opacity=".6"/></linearGradient><linearGradient id="k" x1="64.868%" x2="28.128%" y1="60.919%" y2="33.962%"><stop offset="0%" stop-color="#2a6aaf" stop-opacity="0"/><stop offset="100%" stop-color="#5ac8f7" stop-opacity=".6"/></linearGradient><linearGradient id="l" x1="75.295%" x2="28.952%" y1="89.913%" y2="14.957%"><stop offset="0%" stop-color="#2a6aaf" stop-opacity="0"/><stop offset="100%" stop-color="#5ac8f7" stop-opacity=".6"/></linearGradient><linearGradient id="m" x1="75.282%" x2="28.963%" y1="89.976%" y2="14.965%"><stop offset="0%" stop-color="#2a6aaf" stop-opacity="0"/><stop offset="100%" stop-color="#5ac8f7" stop-opacity=".6"/></linearGradient><linearGradient id="n" x1="15.905%" x2="84.072%" y1="69.153%" y2="25.626%"><stop offset="0%" stop-color="#2a6aaf" stop-opacity="0"/><stop offset="100%" stop-color="#5ac8f7" stop-opacity=".6"/></linearGradient><linearGradient id="o" x1="64.572%" x2="25.351%" y1="62.962%" y2="23.482%"><stop offset="0%" stop-color="#2a6aaf" stop-opacity="0"/><stop offset="100%" stop-color="#5ac8f7" stop-opacity=".6"/></linearGradient><linearGradient id="p" x1="68.074%" x2="31.901%" y1="57.11%" y2="40.272%"><stop offset="0%" stop-color="#2a6aaf" stop-opacity="0"/><stop offset="100%" stop-color="#5ac8f7" stop-opacity=".6"/></linearGradient><linearGradient id="q" x1="18.074%" x2="81.901%" y1="63.563%" y2="33.819%"><stop offset="0%" stop-color="#2a6aaf" stop-opacity="0"/><stop offset="100%" stop-color="#5ac8f7" stop-opacity=".6"/></linearGradient><linearGradient id="r" x1="75.34%" x2="28.913%" y1="89.972%" y2="14.925%"><stop offset="0%" stop-color="#2a6aaf" stop-opacity="0"/><stop offset="100%" stop-color="#5ac8f7" stop-opacity=".6"/></linearGradient><linearGradient id="s" x1="39.422%" x2="64.079%" y1="61.683%" y2="44.438%"><stop offset="0%" stop-color="#5ac8f7" stop-opacity=".6"/><stop offset="100%" stop-color="#2a6aaf" stop-opacity="0"/></linearGradient><linearGradient id="t" x1="75.316%" x2="28.917%" y1="89.991%" y2="14.885%"><stop offset="0%" stop-color="#2a6aaf" stop-opacity="0"/><stop offset="100%" stop-color="#5ac8f7" stop-opacity=".6"/></linearGradient><linearGradient id="u" x1="54.351%" x2="44.658%" y1="71.083%" y2="29.575%"><stop offset="0%" stop-color="#2a6aaf" stop-opacity="0"/><stop offset="100%" stop-color="#5ac8f7" stop-opacity=".6"/></linearGradient><linearGradient id="v" x1="62.453%" x2="42.955%" y1="78.68%" y2="19.503%"><stop offset="0%" stop-color="#2a6aaf" stop-opacity="0"/><stop offset="100%" stop-color="#5ac8f7" stop-opacity=".6"/></linearGradient><linearGradient id="w" x1="77.588%" x2="-1.218%" y1="81.681%" y2="13.241%"><stop offset="0%" stop-color="#2a6aaf" stop-opacity="0"/><stop offset="100%" stop-color="#5ac8f7" stop-opacity=".6"/></linearGradient><linearGradient id="x" x1="15.956%" x2="60.536%" y1="66.872%" y2="28.156%"><stop offset="0%" stop-color="#2a6aaf" stop-opacity="0"/><stop offset="100%" stop-color="#5ac8f7" stop-opacity=".6"/></linearGradient><linearGradient id="y" x1="46.347%" x2="52.628%" y1="75.758%" y2="23.656%"><stop offset="0%" stop-color="#2a6aaf" stop-opacity="0"/><stop offset="100%" stop-color="#5ac8f7" stop-opacity=".6"/></linearGradient><linearGradient id="z" x1="48.041%" x2="51.959%" y1="76.825%" y2="23.175%"><stop offset="0%" stop-color="#2a6aaf" stop-opacity="0"/><stop offset="100%" stop-color="#5ac8f7" stop-opacity=".6"/></linearGradient><linearGradient id="A" x1="46.336%" x2="52.635%" y1="75.75%" y2="23.631%"><stop offset="0%" stop-color="#2a6aaf" stop-opacity="0"/><stop offset="100%" stop-color="#5ac8f7" stop-opacity=".6"/></linearGradient><linearGradient id="B" x1="56.428%" x2="43.572%" y1="77.879%" y2="22.052%"><stop offset="0%" stop-color="#5ac8f7" stop-opacity=".6"/><stop offset="100%" stop-color="#2a6aaf" stop-opacity="0"/></linearGradient><linearGradient id="C" x1="55.665%" x2="44.352%" y1="69.376%" y2="30.624%"><stop offset="0%" stop-color="#5ac8f7" stop-opacity=".6"/><stop offset="100%" stop-color="#2a6aaf" stop-opacity="0"/></linearGradient><linearGradient id="D" x1="21.834%" x2="78.166%" y1="66.612%" y2="33.642%"><stop offset="0%" stop-color="#2a6aaf" stop-opacity="0"/><stop offset="100%" stop-color="#5ac8f7" stop-opacity=".6"/></linearGradient><linearGradient id="E" x1="38.584%" x2="63.335%" y1="56.195%" y2="42.765%"><stop offset="0%" stop-color="#2a6aaf" stop-opacity="0"/><stop offset="100%" stop-color="#5ac8f7" stop-opacity=".6"/></linearGradient><linearGradient id="F" x1="37.193%" x2="62.807%" y1="56.974%" y2="43.026%"><stop offset="0%" stop-color="#2a6aaf" stop-opacity="0"/><stop offset="100%" stop-color="#5ac8f7" stop-opacity=".6"/></linearGradient><linearGradient id="G" x1="38.547%" x2="63.335%" y1="56.195%" y2="42.765%"><stop offset="0%" stop-color="#2a6aaf" stop-opacity="0"/><stop offset="100%" stop-color="#5ac8f7" stop-opacity=".6"/></linearGradient><linearGradient id="H" x1="40.756%" x2="59.326%" y1="57.065%" y2="42.935%"><stop offset="0%" stop-color="#2a6aaf" stop-opacity="0"/><stop offset="100%" stop-color="#5ac8f7" stop-opacity=".6"/></linearGradient><linearGradient id="I" x1="16.95%" x2="83.461%" y1="94.022%" y2="5.978%"><stop offset="0%" stop-color="#2a6aaf" stop-opacity="0"/><stop offset="100%" stop-color="#5ac8f7" stop-opacity=".6"/></linearGradient><linearGradient id="J" x1="31.19%" x2="68.754%" y1="56.379%" y2="43.602%"><stop offset="0%" stop-color="#2a6aaf" stop-opacity="0"/><stop offset="100%" stop-color="#5ac8f7" stop-opacity=".6"/></linearGradient><linearGradient id="K" x1="36.731%" x2="63.269%" y1="72.777%" y2="27.042%"><stop offset="0%" stop-color="#2a6aaf" stop-opacity="0"/><stop offset="100%" stop-color="#5ac8f7" stop-opacity=".6"/></linearGradient><linearGradient id="L" x1="31.042%" x2="68.958%" y1="60.971%" y2="39.029%"><stop offset="0%" stop-color="#2a6aaf" stop-opacity="0"/><stop offset="100%" stop-color="#5ac8f7" stop-opacity=".6"/></linearGradient><linearGradient id="M" x1="40.27%" x2="59.73%" y1="82.579%" y2="17.421%"><stop offset="0%" stop-color="#2a6aaf" stop-opacity="0"/><stop offset="100%" stop-color="#5ac8f7" stop-opacity=".6"/></linearGradient><linearGradient id="N" x1="36.825%" x2="63.281%" y1="72.777%" y2="27.223%"><stop offset="0%" stop-color="#2a6aaf" stop-opacity="0"/><stop offset="100%" stop-color="#5ac8f7" stop-opacity=".6"/></linearGradient><linearGradient id="O" x1="40.275%" x2="59.725%" y1="82.393%" y2="17.607%"><stop offset="0%" stop-color="#2a6aaf" stop-opacity="0"/><stop offset="100%" stop-color="#5ac8f7" stop-opacity=".6"/></linearGradient><linearGradient id="P" x1="31.042%" x2="68.958%" y1="60.993%" y2="39.007%"><stop offset="0%" stop-color="#2a6aaf" stop-opacity="0"/><stop offset="100%" stop-color="#5ac8f7" stop-opacity=".6"/></linearGradient><linearGradient id="Q" x1="80.931%" x2="19.069%" y1="67.896%" y2="32.104%"><stop offset="0%" stop-color="#2a6aaf" stop-opacity="0"/><stop offset="100%" stop-color="#5ac8f7" stop-opacity=".6"/></linearGradient><linearGradient id="R" x1="19.629%" x2="80.469%" y1="67.315%" y2="35.588%"><stop offset="0%" stop-color="#2a6aaf" stop-opacity="0"/><stop offset="100%" stop-color="#5ac8f7" stop-opacity=".6"/></linearGradient><linearGradient id="S" x1="9.814%" x2="97.021%" y1="101.55%" y2="5.943%"><stop offset="0%" stop-color="#2a6aaf" stop-opacity="0"/><stop offset="100%" stop-color="#5ac8f7" stop-opacity=".6"/></linearGradient><linearGradient id="T" x1="36.758%" x2="63.242%" y1="72.751%" y2="26.984%"><stop offset="0%" stop-color="#2a6aaf" stop-opacity="0"/><stop offset="100%" stop-color="#5ac8f7" stop-opacity=".6"/></linearGradient><linearGradient id="U" x1="6.328%" x2="100.868%" y1="95.196%" y2="11.095%"><stop offset="0%" stop-color="#2a6aaf" stop-opacity="0"/><stop offset="100%" stop-color="#5ac8f7" stop-opacity=".6"/></linearGradient><linearGradient id="V" x1="16.797%" x2="83.301%" y1="72.87%" y2="30.72%"><stop offset="0%" stop-color="#2a6aaf" stop-opacity="0"/><stop offset="100%" stop-color="#5ac8f7" stop-opacity=".6"/></linearGradient><linearGradient id="W" x1="66.797%" x2="33.301%" y1="62.41%" y2="41.18%"><stop offset="0%" stop-color="#2a6aaf" stop-opacity="0"/><stop offset="100%" stop-color="#5ac8f7" stop-opacity=".6"/></linearGradient><linearGradient id="X" x1="21.834%" x2="78.166%" y1="66.358%" y2="33.642%"><stop offset="0%" stop-color="#2a6aaf" stop-opacity="0"/><stop offset="100%" stop-color="#5ac8f7" stop-opacity=".6"/></linearGradient><linearGradient id="Y" x1="48.333%" x2="51.669%" y1="75.516%" y2="24.484%"><stop offset="0%" stop-color="#2a6aaf" stop-opacity="0"/><stop offset="100%" stop-color="#5ac8f7" stop-opacity=".6"/></linearGradient><linearGradient id="Z" x1="46.94%" x2="52.309%" y1="74.331%" y2="26.26%"><stop offset="0%" stop-color="#2a6aaf" stop-opacity="0"/><stop offset="100%" stop-color="#5ac8f7" stop-opacity=".6"/></linearGradient><linearGradient id="aa" x1="46.93%" x2="52.314%" y1="74.331%" y2="26.26%"><stop offset="0%" stop-color="#2a6aaf" stop-opacity="0"/><stop offset="100%" stop-color="#5ac8f7" stop-opacity=".6"/></linearGradient><linearGradient id="ab" x1="56.651%" x2="43.349%" y1="78.875%" y2="21.079%"><stop offset="0%" stop-color="#5ac8f7" stop-opacity=".6"/><stop offset="100%" stop-color="#2a6aaf" stop-opacity="0"/></linearGradient><linearGradient id="ac" x1="55.687%" x2="44.313%" y1="70.447%" y2="29.553%"><stop offset="0%" stop-color="#5ac8f7" stop-opacity=".6"/><stop offset="100%" stop-color="#2a6aaf" stop-opacity="0"/></linearGradient><linearGradient id="ad" x1="36.689%" x2="61.431%" y1="57.225%" y2="43.796%"><stop offset="0%" stop-color="#2a6aaf" stop-opacity="0"/><stop offset="100%" stop-color="#5ac8f7" stop-opacity=".6"/></linearGradient><linearGradient id="ae" x1="31.229%" x2="68.771%" y1="56.392%" y2="43.608%"><stop offset="0%" stop-color="#2a6aaf" stop-opacity="0"/><stop offset="100%" stop-color="#5ac8f7" stop-opacity=".6"/></linearGradient><linearGradient id="af" x1="40.674%" x2="59.244%" y1="57.065%" y2="42.935%"><stop offset="0%" stop-color="#2a6aaf" stop-opacity="0"/><stop offset="100%" stop-color="#5ac8f7" stop-opacity=".6"/></linearGradient><linearGradient id="ag" x1="36.652%" x2="61.431%" y1="57.225%" y2="43.796%"><stop offset="0%" stop-color="#2a6aaf" stop-opacity="0"/><stop offset="100%" stop-color="#5ac8f7" stop-opacity=".6"/></linearGradient><linearGradient id="ah" x1="87.197%" x2="12.803%" y1="70.262%" y2="29.738%"><stop offset="0%" stop-color="#5ac8f7" stop-opacity=".6"/><stop offset="100%" stop-color="#2a6aaf" stop-opacity="0"/></linearGradient></defs><g fill="none" fill-rule="evenodd"><g opacity=".2"><path fill="url(#a)" fill-rule="nonzero" d="m29.99 5.09.04 7.2-8.75 5.09H8.85l-8.82-5.1L0 5.09 8.75 0h12.43z" transform="translate(34.24 132.75)"/><path fill="url(#a)" fill-rule="nonzero" stroke="#5ac8f7" stroke-linejoin="round" stroke-width=".25" d="m29.99 5.09.04 7.2-8.75 5.09H8.85l-8.82-5.1L0 5.09 8.75 0h12.43z" transform="translate(34.24 132.75)"/><path stroke="#5ac8f7" stroke-linejoin="round" stroke-width=".25" d="m64.23 137.84.04 7.2-8.75 5.09H43.09l-8.82-5.1-.03-7.19 8.75-5.09h12.43z"/></g><path fill="url(#b)" fill-rule="nonzero" d="m54 26.77.02 2.39 10 115.75-.04-7.2z" transform="translate(.25 .13)"/><path fill="url(#b)" fill-rule="nonzero" stroke="#5ac8f7" stroke-linejoin="round" stroke-width=".25" d="m54 26.77.02 2.39 10 115.75-.04-7.2z" transform="translate(.25 .13)"/><path stroke="#5ac8f7" stroke-linejoin="round" stroke-width=".25" d="m54.25 26.9.02 2.39 10 115.75-.04-7.2z"/><path fill="url(#c)" fill-rule="nonzero" d="m54.02 29.16 10 115.75-8.75 5.09-4.15-119.16z" transform="translate(.25 .13)"/><path fill="url(#c)" fill-rule="nonzero" stroke="#5ac8f7" stroke-linejoin="round" stroke-width=".25" d="m54.02 29.16 10 115.75-8.75 5.09-4.15-119.16z" transform="translate(.25 .13)"/><path stroke="#5ac8f7" stroke-linejoin="round" stroke-width=".25" d="m54.27 29.29 10 115.75-8.75 5.09-4.15-119.16z"/><path fill="url(#d)" fill-rule="nonzero" d="M51.12 30.84 55.27 150H42.84L47 30.84z" transform="translate(.25 .13)"/><path fill="url(#d)" fill-rule="nonzero" stroke="#5ac8f7" stroke-linejoin="round" stroke-width=".25" d="M51.12 30.84 55.27 150H42.84L47 30.84z" transform="translate(.25 .13)"/><path stroke="#5ac8f7" stroke-linejoin="round" stroke-width=".25" d="m51.37 30.97 4.15 119.16H43.09l4.16-119.16z"/><path fill="url(#e)" fill-rule="nonzero" d="M47 30.84 42.84 150l-8.82-5.1L44.08 29.16z" transform="translate(.25 .13)"/><path fill="url(#e)" fill-rule="nonzero" stroke="#5ac8f7" stroke-linejoin="round" stroke-width=".25" d="M47 30.84 42.84 150l-8.82-5.1L44.08 29.16z" transform="translate(.25 .13)"/><path stroke="#5ac8f7" stroke-linejoin="round" stroke-width=".25" d="m47.25 30.97-4.16 119.16-8.82-5.1L44.33 29.29z"/><path fill="url(#f)" fill-rule="nonzero" d="M44.08 29.16 34.02 144.9l-.03-7.19L44.07 26.77z" transform="translate(.25 .13)"/><path fill="url(#f)" fill-rule="nonzero" stroke="#5ac8f7" stroke-linejoin="round" stroke-width=".25" d="M44.08 29.16 34.02 144.9l-.03-7.19L44.07 26.77z" transform="translate(.25 .13)"/><path stroke="#5ac8f7" stroke-linejoin="round" stroke-width=".25" d="M44.33 29.29 34.27 145.03l-.03-7.19L44.32 26.9z"/><g opacity=".2"><path fill="url(#g)" fill-rule="nonzero" d="M10.08 1.68 12.98 0 8.75 107.53 0 112.62z" transform="translate(34.24 25.22)"/><path fill="url(#g)" fill-rule="nonzero" stroke="#5ac8f7" stroke-linejoin="round" stroke-width=".25" d="M10.08 1.68 12.98 0 8.75 107.53 0 112.62z" transform="translate(34.24 25.22)"/><path stroke="#5ac8f7" stroke-linejoin="round" stroke-width=".25" d="m44.32 26.9 2.9-1.68-4.23 107.53-8.75 5.09z"/></g><g opacity=".2"><path fill="url(#h)" fill-rule="nonzero" d="M4.23 0h4.11l4.09 107.53H0z" transform="translate(42.99 25.22)"/><path fill="url(#h)" fill-rule="nonzero" stroke="#5ac8f7" stroke-linejoin="round" stroke-width=".25" d="M4.23 0h4.11l4.09 107.53H0z" transform="translate(42.99 25.22)"/><path stroke="#5ac8f7" stroke-linejoin="round" stroke-width=".25" d="M47.22 25.22h4.11l4.09 107.53H42.99z"/></g><g opacity=".2"><path fill="url(#i)" fill-rule="nonzero" d="m0 0 2.92 1.68 9.98 110.94-8.81-5.09z" transform="translate(51.33 25.22)"/><path fill="url(#i)" fill-rule="nonzero" stroke="#5ac8f7" stroke-linejoin="round" stroke-width=".25" d="m0 0 2.92 1.68 9.98 110.94-8.81-5.09z" transform="translate(51.33 25.22)"/><path stroke="#5ac8f7" stroke-linejoin="round" stroke-width=".25" d="m51.33 25.22 2.92 1.68 9.98 110.94-8.81-5.09z"/></g><g opacity=".2"><path fill="url(#j)" fill-rule="nonzero" d="m9.93 1.68.02 2.39-2.9 1.68H2.93L.01 4.07 0 1.68 2.9 0h4.11z" transform="translate(44.32 25.22)"/><path fill="url(#j)" fill-rule="nonzero" stroke="#5ac8f7" stroke-linejoin="round" stroke-width=".25" d="m9.93 1.68.02 2.39-2.9 1.68H2.93L.01 4.07 0 1.68 2.9 0h4.11z" transform="translate(44.32 25.22)"/><path stroke="#5ac8f7" stroke-linejoin="round" stroke-width=".25" d="m54.25 26.9.02 2.39-2.9 1.68h-4.12l-2.92-1.68-.01-2.39 2.9-1.68h4.11z"/></g><g opacity=".2"><path fill="url(#k)" fill-rule="nonzero" d="M2.51 13.25 0 26.92 35.33 7.4 36.69 0z" transform="translate(29.09 6.8)"/><path fill="url(#k)" fill-rule="nonzero" stroke="#5ac8f7" stroke-linejoin="round" stroke-width=".25" d="M2.51 13.25 0 26.92 35.33 7.4 36.69 0z" transform="translate(29.09 6.8)"/><path stroke="#5ac8f7" stroke-linejoin="round" stroke-width=".25" d="m31.6 20.05-2.51 13.67L64.42 14.2l1.36-7.4z"/></g><g opacity=".2"><path fill="url(#l)" fill-rule="nonzero" d="M1.36 0 0 7.4l7.11 4.1L5.8 2.56z" transform="translate(64.42 6.8)"/><path fill="url(#l)" fill-rule="nonzero" stroke="#5ac8f7" stroke-linejoin="round" stroke-width=".25" d="M1.36 0 0 7.4l7.11 4.1L5.8 2.56z" transform="translate(64.42 6.8)"/><path stroke="#5ac8f7" stroke-linejoin="round" stroke-width=".25" d="m65.78 6.8-1.36 7.4 7.11 4.1-1.31-8.94z"/></g><g opacity=".2"><path fill="url(#m)" fill-rule="nonzero" d="M2.51 0 0 13.67l13.13 7.58-2.42-16.51z" transform="translate(29.09 20.05)"/><path fill="url(#m)" fill-rule="nonzero" stroke="#5ac8f7" stroke-linejoin="round" stroke-width=".25" d="M2.51 0 0 13.67l13.13 7.58-2.42-16.51z" transform="translate(29.09 20.05)"/><path stroke="#5ac8f7" stroke-linejoin="round" stroke-width=".25" d="m31.6 20.05-2.51 13.67 13.13 7.58-2.42-16.51z"/></g><g opacity=".2"><path fill="url(#n)" fill-rule="nonzero" d="m0 19.52 13.13 7.58 29.31-23L35.33 0z" transform="translate(29.09 14.2)"/><path fill="url(#n)" fill-rule="nonzero" stroke="#5ac8f7" stroke-linejoin="round" stroke-width=".25" d="m0 19.52 13.13 7.58 29.31-23L35.33 0z" transform="translate(29.09 14.2)"/><path stroke="#5ac8f7" stroke-linejoin="round" stroke-width=".25" d="m29.09 33.72 13.13 7.58 29.31-23-7.11-4.1z"/></g><path fill="url(#o)" fill-rule="nonzero" d="m2.42 31.94 29.31-23L30.42 0 0 15.43z" transform="translate(39.8 9.36)"/><path fill="url(#o)" fill-rule="nonzero" stroke="#5ac8f7" stroke-linejoin="round" stroke-width=".25" d="m2.42 31.94 29.31-23L30.42 0 0 15.43z" transform="translate(39.8 9.36)"/><path stroke="#5ac8f7" stroke-linejoin="round" stroke-width=".25" d="m42.22 41.3 29.31-23-1.31-8.94L39.8 24.79z"/><path fill="url(#p)" fill-rule="nonzero" d="M8.2 17.99 38.62 2.56 34.18 0 0 13.25z" transform="translate(31.6 6.8)"/><path fill="url(#q)" fill-rule="nonzero" stroke="#5ac8f7" stroke-linejoin="round" stroke-width=".25" d="M8.2 17.99 38.62 2.56 34.18 0 0 13.25z" transform="translate(31.6 6.8)"/><path stroke="#5ac8f7" stroke-linejoin="round" stroke-width=".25" d="M39.8 24.79 70.22 9.36 65.78 6.8 31.6 20.05z"/><g opacity=".2"><path fill="url(#r)" fill-rule="nonzero" d="M2.51 0 0 13.66l13.14 7.58-2.42-16.51z" transform="translate(29.08 20.06)"/><path fill="url(#r)" fill-rule="nonzero" stroke="#5ac8f7" stroke-linejoin="round" stroke-width=".25" d="M2.51 0 0 13.66l13.14 7.58-2.42-16.51z" transform="translate(29.08 20.06)"/><path stroke="#5ac8f7" stroke-linejoin="round" stroke-width=".25" d="m31.59 20.06-2.51 13.66 13.14 7.58-2.42-16.51z"/></g><path fill="url(#s)" fill-rule="nonzero" d="m1.81 0 7.23 4.17 4.1 5.02L0 1.61z" transform="translate(29.08 32.11)"/><path fill="url(#s)" fill-rule="nonzero" stroke="#5ac8f7" stroke-linejoin="round" stroke-width=".25" d="m1.81 0 7.23 4.17 4.1 5.02L0 1.61z" transform="translate(29.08 32.11)"/><path stroke="#5ac8f7" stroke-linejoin="round" stroke-width=".25" d="m30.89 32.11 7.23 4.17 4.1 5.02-13.14-7.58z"/><path fill="url(#t)" fill-rule="nonzero" d="M1.38 0 0 7.52l7.23 4.17L5.89 2.6z" transform="translate(30.89 24.59)"/><path fill="url(#t)" fill-rule="nonzero" stroke="#5ac8f7" stroke-linejoin="round" stroke-width=".25" d="M1.38 0 0 7.52l7.23 4.17L5.89 2.6z" transform="translate(30.89 24.59)"/><path stroke="#5ac8f7" stroke-linejoin="round" stroke-width=".25" d="m32.27 24.59-1.38 7.52 7.23 4.17-1.34-9.09z"/><path fill="url(#u)" fill-rule="nonzero" d="m3.19 4.53-1.38 7.52L0 13.66 2.51 0z" transform="translate(29.08 20.06)"/><path fill="url(#u)" fill-rule="nonzero" stroke="#5ac8f7" stroke-linejoin="round" stroke-width=".25" d="m3.19 4.53-1.38 7.52L0 13.66 2.51 0z" transform="translate(29.08 20.06)"/><path stroke="#5ac8f7" stroke-linejoin="round" stroke-width=".25" d="m32.27 24.59-1.38 7.52-1.81 1.61 2.51-13.66z"/><path fill="url(#v)" fill-rule="nonzero" d="m1.34 11.49 4.1 5.02L3.02 0 0 2.4z" transform="translate(36.78 24.79)"/><path fill="url(#v)" fill-rule="nonzero" stroke="#5ac8f7" stroke-linejoin="round" stroke-width=".25" d="m1.34 11.49 4.1 5.02L3.02 0 0 2.4z" transform="translate(36.78 24.79)"/><path stroke="#5ac8f7" stroke-linejoin="round" stroke-width=".25" d="m38.12 36.28 4.1 5.02-2.42-16.51-3.02 2.4z"/><path fill="url(#w)" fill-rule="nonzero" d="m5.19 7.13 3.02-2.4L0 0l.68 4.53z" transform="translate(31.59 20.06)"/><path fill="url(#x)" fill-rule="nonzero" stroke="#5ac8f7" stroke-linejoin="round" stroke-width=".25" d="m5.19 7.13 3.02-2.4L0 0l.68 4.53z" transform="translate(31.59 20.06)"/><path stroke="#5ac8f7" stroke-linejoin="round" stroke-width=".25" d="m36.78 27.19 3.02-2.4-8.21-4.73.68 4.53z"/><g opacity=".2"><path fill="url(#y)" fill-rule="nonzero" d="m1.8.52 1.9 13.51L0 30.69.9 0z" transform="translate(27.39 35.34)"/><path fill="url(#y)" fill-rule="nonzero" stroke="#5ac8f7" stroke-linejoin="round" stroke-width=".25" d="m1.8.52 1.9 13.51L0 30.69.9 0z" transform="translate(27.39 35.34)"/><path stroke="#5ac8f7" stroke-linejoin="round" stroke-width=".25" d="m29.19 35.86 1.9 13.51-3.7 16.66.9-30.69z"/></g><g opacity=".2"><path fill="url(#z)" fill-rule="nonzero" d="M0 31.5.91.82 2.3 0l-.9 30.69z" transform="translate(25.99 35.34)"/><path fill="url(#z)" fill-rule="nonzero" stroke="#5ac8f7" stroke-linejoin="round" stroke-width=".25" d="M0 31.5.91.82 2.3 0l-.9 30.69z" transform="translate(25.99 35.34)"/><path stroke="#5ac8f7" stroke-linejoin="round" stroke-width=".25" d="m25.99 66.84.91-30.68 1.39-.82-.9 30.69z"/></g><path fill="url(#A)" fill-rule="nonzero" d="m1.8.51 1.91 13.52L0 30.68.91 0z" transform="translate(25.99 36.16)"/><path fill="url(#A)" fill-rule="nonzero" stroke="#5ac8f7" stroke-linejoin="round" stroke-width=".25" d="m1.8.51 1.91 13.52L0 30.68.91 0z" transform="translate(25.99 36.16)"/><path stroke="#5ac8f7" stroke-linejoin="round" stroke-width=".25" d="m27.79 36.67 1.91 13.52-3.71 16.65.91-30.68z"/><path fill="url(#B)" fill-rule="nonzero" d="M0 .81 1.4 0l1.9 13.51-1.39.82z" transform="translate(27.79 35.86)"/><path fill="url(#B)" fill-rule="nonzero" stroke="#5ac8f7" stroke-linejoin="round" stroke-width=".25" d="M0 .81 1.4 0l1.9 13.51-1.39.82z" transform="translate(27.79 35.86)"/><path stroke="#5ac8f7" stroke-linejoin="round" stroke-width=".25" d="m27.79 36.67 1.4-.81 1.9 13.51-1.39.82z"/><path fill="url(#C)" fill-rule="nonzero" d="M3.71.82 5.1 0 1.4 16.66l-1.4.81z" transform="translate(25.99 49.37)"/><path fill="url(#C)" fill-rule="nonzero" stroke="#5ac8f7" stroke-linejoin="round" stroke-width=".25" d="M3.71.82 5.1 0 1.4 16.66l-1.4.81z" transform="translate(25.99 49.37)"/><path stroke="#5ac8f7" stroke-linejoin="round" stroke-width=".25" d="m29.7 50.19 1.39-.82-3.7 16.66-1.4.81z"/><g opacity=".2"><path fill="url(#D)" fill-rule="nonzero" d="M0 .82 1.39 0l.9.52-1.4.81z" transform="translate(26.9 35.34)"/><path fill="url(#D)" fill-rule="nonzero" stroke="#5ac8f7" stroke-linejoin="round" stroke-width=".25" d="M0 .82 1.39 0l.9.52-1.4.81z" transform="translate(26.9 35.34)"/><path stroke="#5ac8f7" stroke-linejoin="round" stroke-width=".25" d="m26.9 36.16 1.39-.82.9.52-1.4.81z"/></g><g opacity=".2"><path fill="url(#E)" fill-rule="nonzero" d="m16.34 5.23 10.77 8.45v1.03L0 0z" transform="translate(1.64 18.71)"/><path fill="url(#E)" fill-rule="nonzero" stroke="#5ac8f7" stroke-linejoin="round" stroke-width=".25" d="m16.34 5.23 10.77 8.45v1.03L0 0z" transform="translate(1.64 18.71)"/><path stroke="#5ac8f7" stroke-linejoin="round" stroke-width=".25" d="m17.98 23.94 10.77 8.45v1.03L1.64 18.71z"/></g><g opacity=".2"><path fill="url(#F)" fill-rule="nonzero" d="M27.11 15.52 0 .81 1.39 0 28.5 14.71z" transform="translate(.25 18.71)"/><path fill="url(#F)" fill-rule="nonzero" stroke="#5ac8f7" stroke-linejoin="round" stroke-width=".25" d="M27.11 15.52 0 .81 1.39 0 28.5 14.71z" transform="translate(.25 18.71)"/><path stroke="#5ac8f7" stroke-linejoin="round" stroke-width=".25" d="M27.36 34.23.25 19.52l1.39-.81 27.11 14.71z"/></g><path fill="url(#G)" fill-rule="nonzero" d="m16.33 5.23 10.78 8.45v1.03L0 0z" transform="translate(.25 19.52)"/><path fill="url(#G)" fill-rule="nonzero" stroke="#5ac8f7" stroke-linejoin="round" stroke-width=".25" d="m16.33 5.23 10.78 8.45v1.03L0 0z" transform="translate(.25 19.52)"/><path stroke="#5ac8f7" stroke-linejoin="round" stroke-width=".25" d="m16.58 24.75 10.78 8.45v1.03L.25 19.52z"/><path fill="url(#H)" fill-rule="nonzero" d="M0 .81 1.4 0l10.77 8.45-1.39.81z" transform="translate(16.58 23.94)"/><path fill="url(#H)" fill-rule="nonzero" stroke="#5ac8f7" stroke-linejoin="round" stroke-width=".25" d="M0 .81 1.4 0l10.77 8.45-1.39.81z" transform="translate(16.58 23.94)"/><path stroke="#5ac8f7" stroke-linejoin="round" stroke-width=".25" d="m16.58 24.75 1.4-.81 10.77 8.45-1.39.81z"/><g opacity=".2"><path fill="url(#I)" fill-rule="nonzero" d="M0 .81 1.39 0v1.03L0 1.84z" transform="translate(27.36 32.39)"/><path fill="url(#I)" fill-rule="nonzero" stroke="#5ac8f7" stroke-linejoin="round" stroke-width=".25" d="M0 .81 1.39 0v1.03L0 1.84z" transform="translate(27.36 32.39)"/><path stroke="#5ac8f7" stroke-linejoin="round" stroke-width=".25" d="m27.36 33.2 1.39-.81v1.03l-1.39.81z"/></g><path fill="url(#J)" fill-rule="nonzero" d="M0 .81 1.39 0l16.34 5.23-1.4.81z" transform="translate(.25 18.71)"/><path fill="url(#J)" fill-rule="nonzero" stroke="#5ac8f7" stroke-linejoin="round" stroke-width=".25" d="M0 .81 1.39 0l16.34 5.23-1.4.81z" transform="translate(.25 18.71)"/><path stroke="#5ac8f7" stroke-linejoin="round" stroke-width=".25" d="m.25 19.52 1.39-.81 16.34 5.23-1.4.81z"/><g opacity=".2"><path fill="url(#K)" fill-rule="nonzero" d="M3.21 1.84 3.2 5.51 0 3.66.01 0z" transform="translate(32.89 27.53)"/><path fill="url(#K)" fill-rule="nonzero" stroke="#5ac8f7" stroke-linejoin="round" stroke-width=".25" d="M3.21 1.84 3.2 5.51 0 3.66.01 0z" transform="translate(32.89 27.53)"/><path stroke="#5ac8f7" stroke-linejoin="round" stroke-width=".25" d="m36.1 29.37-.01 3.67-3.2-1.85.01-3.66z"/></g><g opacity=".2"><path fill="url(#L)" fill-rule="nonzero" d="M3.19 2.61 0 .76 1.31 0l3.2 1.85z" transform="translate(31.58 31.19)"/><path fill="url(#L)" fill-rule="nonzero" stroke="#5ac8f7" stroke-linejoin="round" stroke-width=".25" d="M3.19 2.61 0 .76 1.31 0l3.2 1.85z" transform="translate(31.58 31.19)"/><path stroke="#5ac8f7" stroke-linejoin="round" stroke-width=".25" d="m34.77 33.8-3.19-1.85 1.31-.76 3.2 1.85z"/></g><g opacity=".2"><path fill="url(#M)" fill-rule="nonzero" d="M0 4.42.01.76 1.32 0l-.01 3.66z" transform="translate(31.58 27.53)"/><path fill="url(#M)" fill-rule="nonzero" stroke="#5ac8f7" stroke-linejoin="round" stroke-width=".25" d="M0 4.42.01.76 1.32 0l-.01 3.66z" transform="translate(31.58 27.53)"/><path stroke="#5ac8f7" stroke-linejoin="round" stroke-width=".25" d="m31.58 31.95.01-3.66 1.31-.76-.01 3.66z"/></g><path fill="url(#N)" fill-rule="nonzero" d="m3.2 1.84-.01 3.67L0 3.66.01 0z" transform="translate(31.58 28.29)"/><path fill="url(#N)" fill-rule="nonzero" stroke="#5ac8f7" stroke-linejoin="round" stroke-width=".25" d="m3.2 1.84-.01 3.67L0 3.66.01 0z" opacity=".2" transform="translate(31.58 28.29)"/><path stroke="#5ac8f7" stroke-linejoin="round" stroke-width=".25" d="m34.78 30.13-.01 3.67-3.19-1.85.01-3.66z"/><path fill="url(#O)" fill-rule="nonzero" d="M.01.76 1.33 0l-.01 3.67L0 4.43z" transform="translate(34.77 29.37)"/><path fill="url(#O)" fill-rule="nonzero" stroke="#5ac8f7" stroke-linejoin="round" stroke-width=".25" d="M.01.76 1.33 0l-.01 3.67L0 4.43z" transform="translate(34.77 29.37)"/><path stroke="#5ac8f7" stroke-linejoin="round" stroke-width=".25" d="m34.78 30.13 1.32-.76-.01 3.67-1.32.76z"/><path fill="url(#P)" fill-rule="nonzero" d="M0 .76 1.31 0l3.2 1.84-1.32.76z" transform="translate(31.59 27.53)"/><path fill="url(#Q)" fill-rule="nonzero" stroke="#5ac8f7" stroke-linejoin="round" stroke-width=".25" d="M0 .76 1.31 0l3.2 1.84-1.32.76z" transform="translate(31.59 27.53)"/><path stroke="#5ac8f7" stroke-linejoin="round" stroke-width=".25" d="m31.59 28.29 1.31-.76 3.2 1.84-1.32.76z"/><g opacity=".2"><path fill="url(#N)" fill-rule="nonzero" d="m3.2 1.84-.01 3.67L0 3.67.01 0z" transform="translate(31.58 28.29)"/><path fill="url(#N)" fill-rule="nonzero" stroke="#5ac8f7" stroke-linejoin="round" stroke-width=".25" d="m3.2 1.84-.01 3.67L0 3.67.01 0z" transform="translate(31.58 28.29)"/><path stroke="#5ac8f7" stroke-linejoin="round" stroke-width=".25" d="m34.78 30.13-.01 3.67-3.19-1.84.01-3.67z"/></g><g opacity=".2"><path fill="url(#R)" fill-rule="nonzero" d="M2.19 5.34 0 4.07 7.05 0l3.19 1.84z" transform="translate(24.53 31.96)"/><path fill="url(#R)" fill-rule="nonzero" stroke="#5ac8f7" stroke-linejoin="round" stroke-width=".25" d="M2.19 5.34 0 4.07 7.05 0l3.19 1.84z" transform="translate(24.53 31.96)"/><path stroke="#5ac8f7" stroke-linejoin="round" stroke-width=".25" d="m26.72 37.3-2.19-1.27 7.05-4.07 3.19 1.84z"/></g><g opacity=".2"><path fill="url(#S)" fill-rule="nonzero" d="m0 7.74.01-2.51L7.06 0l-.01 3.67z" transform="translate(24.53 28.29)"/><path fill="url(#S)" fill-rule="nonzero" stroke="#5ac8f7" stroke-linejoin="round" stroke-width=".25" d="m0 7.74.01-2.51L7.06 0l-.01 3.67z" transform="translate(24.53 28.29)"/><path stroke="#5ac8f7" stroke-linejoin="round" stroke-width=".25" d="m24.53 36.03.01-2.51 7.05-5.23-.01 3.67z"/></g><path fill="url(#T)" fill-rule="nonzero" d="m2.2 1.26-.01 2.52L0 2.51.01 0z" transform="translate(24.53 33.52)"/><path fill="url(#T)" fill-rule="nonzero" stroke="#5ac8f7" stroke-linejoin="round" stroke-width=".25" d="m2.2 1.26-.01 2.52L0 2.51.01 0z" transform="translate(24.53 33.52)"/><path stroke="#5ac8f7" stroke-linejoin="round" stroke-width=".25" d="m26.73 34.78-.01 2.52-2.19-1.27.01-2.51z"/><path fill="url(#U)" fill-rule="nonzero" d="M.01 4.65 8.06 0l-.01 3.67L0 7.17z" transform="translate(26.72 30.13)"/><path fill="url(#U)" fill-rule="nonzero" stroke="#5ac8f7" stroke-linejoin="round" stroke-width=".25" d="M.01 4.65 8.06 0l-.01 3.67L0 7.17z" transform="translate(26.72 30.13)"/><path stroke="#5ac8f7" stroke-linejoin="round" stroke-width=".25" d="m26.73 34.78 8.05-4.65-.01 3.67-8.05 3.5z"/><path fill="url(#V)" fill-rule="nonzero" d="M0 5.23 7.05 0l3.19 1.84-8.05 4.65z" transform="translate(24.54 28.29)"/><path fill="url(#W)" fill-rule="nonzero" stroke="#5ac8f7" stroke-linejoin="round" stroke-width=".25" d="M0 5.23 7.05 0l3.19 1.84-8.05 4.65z" transform="translate(24.54 28.29)"/><path stroke="#5ac8f7" stroke-linejoin="round" stroke-width=".25" d="m24.54 33.52 7.05-5.23 3.19 1.84-8.05 4.65z"/><g opacity=".2"><path fill="url(#X)" fill-rule="nonzero" d="M.9 1.33 0 .81 1.39 0l.9.52z" transform="translate(26.81 31.75)"/><path fill="url(#X)" fill-rule="nonzero" stroke="#5ac8f7" stroke-linejoin="round" stroke-width=".25" d="M.9 1.33 0 .81 1.39 0l.9.52z" transform="translate(26.81 31.75)"/><path stroke="#5ac8f7" stroke-linejoin="round" stroke-width=".25" d="m27.71 33.08-.9-.52 1.39-.81.9.52z"/></g><g opacity=".2"><path fill="url(#Y)" fill-rule="nonzero" d="M.73 32.43 0 .81 1.4 0l.72 31.62z" transform="translate(26.08 .13)"/><path fill="url(#Y)" fill-rule="nonzero" stroke="#5ac8f7" stroke-linejoin="round" stroke-width=".25" d="M.73 32.43 0 .81 1.4 0l.72 31.62z" transform="translate(26.08 .13)"/><path stroke="#5ac8f7" stroke-linejoin="round" stroke-width=".25" d="M26.81 32.56 26.08.94l1.4-.81.72 31.62z"/></g><g opacity=".2"><path fill="url(#Z)" fill-rule="nonzero" d="m0 0 3.59 20.87-1.97 11.27-.9-.52z" transform="translate(27.48 .13)"/><path fill="url(#Z)" fill-rule="nonzero" stroke="#5ac8f7" stroke-linejoin="round" stroke-width=".25" d="m0 0 3.59 20.87-1.97 11.27-.9-.52z" transform="translate(27.48 .13)"/><path stroke="#5ac8f7" stroke-linejoin="round" stroke-width=".25" d="M27.48.13 31.07 21 29.1 32.27l-.9-.52z"/></g><path fill="url(#aa)" fill-rule="nonzero" d="m0 0 3.6 20.87-1.97 11.27-.9-.52z" transform="translate(26.08 .94)"/><path fill="url(#aa)" fill-rule="nonzero" stroke="#5ac8f7" stroke-linejoin="round" stroke-width=".25" d="m0 0 3.6 20.87-1.97 11.27-.9-.52z" transform="translate(26.08 .94)"/><path stroke="#5ac8f7" stroke-linejoin="round" stroke-width=".25" d="m26.08.94 3.6 20.87-1.97 11.27-.9-.52z"/><path fill="url(#ab)" fill-rule="nonzero" d="M0 .81 1.4 0l3.59 20.87-1.39.81z" transform="translate(26.08 .13)"/><path fill="url(#ab)" fill-rule="nonzero" stroke="#5ac8f7" stroke-linejoin="round" stroke-width=".25" d="M0 .81 1.4 0l3.59 20.87-1.39.81z" transform="translate(26.08 .13)"/><path stroke="#5ac8f7" stroke-linejoin="round" stroke-width=".25" d="m26.08.94 1.4-.81L31.07 21l-1.39.81z"/><path fill="url(#ac)" fill-rule="nonzero" d="M1.97.81 3.36 0 1.39 11.27 0 12.08z" transform="translate(27.71 21)"/><path fill="url(#ac)" fill-rule="nonzero" stroke="#5ac8f7" stroke-linejoin="round" stroke-width=".25" d="M1.97.81 3.36 0 1.39 11.27 0 12.08z" transform="translate(27.71 21)"/><path stroke="#5ac8f7" stroke-linejoin="round" stroke-width=".25" d="m29.68 21.81 1.39-.81-1.97 11.27-1.39.81z"/><g opacity=".2"><path fill="url(#ad)" fill-rule="nonzero" d="m0 0 27.12 14.72-16.34-5.24L0 1.03z" transform="translate(30.01 33.41)"/><path fill="url(#ad)" fill-rule="nonzero" stroke="#5ac8f7" stroke-linejoin="round" stroke-width=".25" d="m0 0 27.12 14.72-16.34-5.24L0 1.03z" transform="translate(30.01 33.41)"/><path stroke="#5ac8f7" stroke-linejoin="round" stroke-width=".25" d="m30.01 33.41 27.12 14.72-16.34-5.24-10.78-8.45z"/></g><g opacity=".2"><path fill="url(#ae)" fill-rule="nonzero" d="M16.35 6.05 0 .81 1.4 0l16.34 5.24z" transform="translate(39.39 42.89)"/><path fill="url(#ae)" fill-rule="nonzero" stroke="#5ac8f7" stroke-linejoin="round" stroke-width=".25" d="M16.35 6.05 0 .81 1.4 0l16.34 5.24z" transform="translate(39.39 42.89)"/><path stroke="#5ac8f7" stroke-linejoin="round" stroke-width=".25" d="M55.74 48.94 39.39 43.7l1.4-.81 16.34 5.24z"/></g><g opacity=".2"><path fill="url(#af)" fill-rule="nonzero" d="M10.77 9.26 0 .81 1.39 0l10.78 8.45z" transform="translate(28.62 34.44)"/><path fill="url(#af)" fill-rule="nonzero" stroke="#5ac8f7" stroke-linejoin="round" stroke-width=".25" d="M10.77 9.26 0 .81 1.39 0l10.78 8.45z" transform="translate(28.62 34.44)"/><path stroke="#5ac8f7" stroke-linejoin="round" stroke-width=".25" d="m39.39 43.7-10.77-8.45 1.39-.81 10.78 8.45z"/></g><path fill="url(#ag)" fill-rule="nonzero" d="m0 0 27.12 14.72-16.35-5.24L0 1.03z" transform="translate(28.62 34.22)"/><path fill="url(#ag)" fill-rule="nonzero" stroke="#5ac8f7" stroke-linejoin="round" stroke-width=".25" d="m0 0 27.12 14.72-16.35-5.24L0 1.03z" transform="translate(28.62 34.22)"/><path stroke="#5ac8f7" stroke-linejoin="round" stroke-width=".25" d="m28.62 34.22 27.12 14.72-16.35-5.24-10.77-8.45z"/><path fill="url(#I)" fill-rule="nonzero" d="M0 1.84V.81L1.39 0v1.03z" transform="translate(28.62 33.41)"/><path fill="url(#I)" fill-rule="nonzero" stroke="#5ac8f7" stroke-linejoin="round" stroke-width=".25" d="M0 1.84V.81L1.39 0v1.03z" transform="translate(28.62 33.41)"/><path stroke="#5ac8f7" stroke-linejoin="round" stroke-width=".25" d="M28.62 35.25v-1.03l1.39-.81v1.03z"/><path fill="url(#ah)" fill-rule="nonzero" d="M0 .81 1.39 0l27.12 14.72-1.39.81z" transform="translate(28.62 33.41)"/><path fill="url(#ah)" fill-rule="nonzero" stroke="#5ac8f7" stroke-linejoin="round" stroke-width=".25" d="M0 .81 1.39 0l27.12 14.72-1.39.81z" transform="translate(28.62 33.41)"/><path stroke="#5ac8f7" stroke-linejoin="round" stroke-width=".25" d="m28.62 34.22 1.39-.81 27.12 14.72-1.39.81z"/></g></svg>