<svg xmlns="http://www.w3.org/2000/svg" viewBox="0 0 143 150"><title>Compensator（补偿器）</title><defs><linearGradient id="a" x1="50%" x2="50%" y1="100%" y2="0%"><stop offset="0%" stop-color="#e2e2e2"/><stop offset="3%" stop-color="#d0d0d0"/><stop offset="6%" stop-color="#bcbcbc"/><stop offset="9%" stop-color="#b5b5b5"/><stop offset="49%" stop-color="#f6f6f6"/><stop offset="63%" stop-color="#f3f3f3"/><stop offset="73%" stop-color="#eaeaea"/><stop offset="82%" stop-color="#dbdbdb"/><stop offset="90%" stop-color="#c6c6c6"/><stop offset="97%" stop-color="#aaa"/><stop offset="100%" stop-color="#9b9b9b"/></linearGradient><linearGradient id="b" x1="50%" x2="50%" y1="100%" y2="0%"><stop offset="0%" stop-color="#e2e2e2"/><stop offset="3%" stop-color="#d0d0d0"/><stop offset="6%" stop-color="#bcbcbc"/><stop offset="9%" stop-color="#b5b5b5"/><stop offset="49%" stop-color="#f6f6f6"/><stop offset="63%" stop-color="#f3f3f3"/><stop offset="73%" stop-color="#eaeaea"/><stop offset="82%" stop-color="#dbdbdb"/><stop offset="90%" stop-color="#c6c6c6"/><stop offset="97%" stop-color="#aaa"/><stop offset="100%" stop-color="#9b9b9b"/></linearGradient><linearGradient id="c" x1="49.891%" x2="49.891%" y1="100%" y2="0%"><stop offset="0%" stop-color="#6b6b6b"/><stop offset="11%" stop-color="#767676"/><stop offset="30%" stop-color="#959595"/><stop offset="41%" stop-color="#aaa"/><stop offset="56%" stop-color="#ccc"/><stop offset="71%" stop-color="#eaeaea"/><stop offset="80%" stop-color="#f6f6f6"/><stop offset="83%" stop-color="#ededed"/><stop offset="87%" stop-color="#d4d4d4"/><stop offset="92%" stop-color="#ababab"/><stop offset="98%" stop-color="#737373"/><stop offset="99%" stop-color="#666"/></linearGradient><linearGradient id="d" x1="50.109%" x2="50.109%" y1="100%" y2="0%"><stop offset="0%" stop-color="#6b6b6b"/><stop offset="11%" stop-color="#767676"/><stop offset="30%" stop-color="#959595"/><stop offset="41%" stop-color="#aaa"/><stop offset="56%" stop-color="#ccc"/><stop offset="71%" stop-color="#eaeaea"/><stop offset="80%" stop-color="#f6f6f6"/><stop offset="83%" stop-color="#ededed"/><stop offset="87%" stop-color="#d4d4d4"/><stop offset="92%" stop-color="#ababab"/><stop offset="98%" stop-color="#737373"/><stop offset="99%" stop-color="#666"/></linearGradient><linearGradient id="e" x1="50%" x2="50%" y1="-.113%" y2="0%"><stop offset="0%" stop-color="#e2e2e2"/><stop offset="3%" stop-color="#d0d0d0"/><stop offset="6%" stop-color="#bcbcbc"/><stop offset="9%" stop-color="#b5b5b5"/><stop offset="49%" stop-color="#f6f6f6"/><stop offset="63%" stop-color="#f3f3f3"/><stop offset="73%" stop-color="#eaeaea"/><stop offset="82%" stop-color="#dbdbdb"/><stop offset="90%" stop-color="#c6c6c6"/><stop offset="97%" stop-color="#aaa"/><stop offset="100%" stop-color="#9b9b9b"/></linearGradient><linearGradient id="f" x1="50%" x2="50%" y1="99.879%" y2="0%"><stop offset="0%" stop-color="#6b6b6b"/><stop offset="1%" stop-color="#767676"/><stop offset="3%" stop-color="#959595"/><stop offset="4%" stop-color="#aaa"/><stop offset="37%" stop-color="#ccc"/><stop offset="74%" stop-color="#eaeaea"/><stop offset="94%" stop-color="#f6f6f6"/><stop offset="95%" stop-color="#ededed"/><stop offset="96%" stop-color="#d4d4d4"/><stop offset="97%" stop-color="#ababab"/><stop offset="99%" stop-color="#737373"/><stop offset="99%" stop-color="#666"/></linearGradient><linearGradient id="g" x1="50%" x2="50%" y1="100%" y2="0%"><stop offset="0%" stop-color="#6b6b6b"/><stop offset="1%" stop-color="#767676"/><stop offset="3%" stop-color="#959595"/><stop offset="4%" stop-color="#aaa"/><stop offset="37%" stop-color="#ccc"/><stop offset="74%" stop-color="#eaeaea"/><stop offset="94%" stop-color="#f6f6f6"/><stop offset="95%" stop-color="#ededed"/><stop offset="96%" stop-color="#d4d4d4"/><stop offset="97%" stop-color="#ababab"/><stop offset="99%" stop-color="#737373"/><stop offset="99%" stop-color="#666"/></linearGradient></defs><g fill="none" fill-rule="nonzero"><path fill="url(#a)" d="M0 0h9.44v149.83H0z" transform="translate(0 .02)"/><path fill="url(#b)" d="M9.44 37.02h129.22v80.14H9.44z" transform="translate(0 .02)"/><path fill="url(#c)" d="M9.44 37.02h4.57v80.14H9.44z" transform="translate(0 .02)"/><path fill="url(#d)" d="M17.93 37.02h4.57v80.14h-4.57z" transform="translate(0 .02)"/><path fill="url(#d)" d="M26.42 37.02h4.57v80.14h-4.57z" transform="translate(0 .02)"/><path fill="url(#c)" d="M34.92 37.02h4.57v80.14h-4.57z" transform="translate(0 .02)"/><path fill="url(#d)" d="M43.41 37.02h4.57v80.14h-4.57z" transform="translate(0 .02)"/><path fill="url(#d)" d="M51.9 37.02h4.57v80.14H51.9z" transform="translate(0 .02)"/><path fill="url(#c)" d="M60.4 37.02h4.57v80.14H60.4z" transform="translate(0 .02)"/><path fill="url(#d)" d="M68.89 37.02h4.57v80.14h-4.57z" transform="translate(0 .02)"/><path fill="url(#d)" d="M77.38 37.02h4.57v80.14h-4.57z" transform="translate(0 .02)"/><path fill="url(#c)" d="M85.88 37.02h4.57v80.14h-4.57z" transform="translate(0 .02)"/><path fill="url(#d)" d="M94.37 37.02h4.57v80.14h-4.57z" transform="translate(0 .02)"/><path fill="url(#d)" d="M102.86 37.02h4.57v80.14h-4.57z" transform="translate(0 .02)"/><path fill="url(#c)" d="M111.36 37.02h4.57v80.14h-4.57z" transform="translate(0 .02)"/><path fill="url(#d)" d="M119.85 37.02h4.57v80.14h-4.57z" transform="translate(0 .02)"/><path fill="url(#d)" d="M128.34 37.02h4.57v80.14h-4.57z" transform="translate(0 .02)"/><path fill="url(#e)" d="M132.92 0h9.44v149.83h-9.44z" transform="translate(0 .02)"/><path fill="url(#f)" d="M9.44 0h123.48v8.28H9.44z" transform="translate(0 .02)"/><path fill="url(#g)" d="M9.44 141.55h123.48v8.28H9.44z" transform="translate(0 .02)"/></g></svg>