<svg xmlns="http://www.w3.org/2000/svg" viewBox="0 0 89 151"><title>Heat recovery system(热回收系统)</title><defs><linearGradient id="a" x1="0%" x2="100%" y1="50.004%" y2="50.004%"><stop offset="0%" stop-color="#e2e2e2"/><stop offset="3%" stop-color="#d0d0d0"/><stop offset="6%" stop-color="#bcbcbc"/><stop offset="9%" stop-color="#b5b5b5"/><stop offset="49%" stop-color="#f6f6f6"/><stop offset="63%" stop-color="#f3f3f3"/><stop offset="73%" stop-color="#eaeaea"/><stop offset="82%" stop-color="#dbdbdb"/><stop offset="90%" stop-color="#c6c6c6"/><stop offset="97%" stop-color="#aaa"/><stop offset="100%" stop-color="#9b9b9b"/></linearGradient><linearGradient id="b" x1="0%" x2="100%" y1="50.049%" y2="50.049%"><stop offset="0%" stop-color="#6b6b6b"/><stop offset="1%" stop-color="#767676"/><stop offset="3%" stop-color="#959595"/><stop offset="4%" stop-color="#aaa"/><stop offset="37%" stop-color="#ccc"/><stop offset="74%" stop-color="#eaeaea"/><stop offset="94%" stop-color="#f6f6f6"/><stop offset="95%" stop-color="#ededed"/><stop offset="96%" stop-color="#d4d4d4"/><stop offset="97%" stop-color="#ababab"/><stop offset="99%" stop-color="#737373"/><stop offset="99%" stop-color="#666"/></linearGradient><linearGradient id="c" x1="0%" x2="100.318%" y1="50%" y2="50%"><stop offset="0%" stop-color="#e2e2e2"/><stop offset="3%" stop-color="#d0d0d0"/><stop offset="6%" stop-color="#bcbcbc"/><stop offset="9%" stop-color="#b5b5b5"/><stop offset="49%" stop-color="#f6f6f6"/><stop offset="63%" stop-color="#f3f3f3"/><stop offset="73%" stop-color="#eaeaea"/><stop offset="82%" stop-color="#dbdbdb"/><stop offset="90%" stop-color="#c6c6c6"/><stop offset="97%" stop-color="#aaa"/><stop offset="100%" stop-color="#9b9b9b"/></linearGradient><linearGradient id="d" x1="0%" x2="100%" y1="50%" y2="50%"><stop offset="0%" stop-color="#e2e2e2"/><stop offset="3%" stop-color="#d0d0d0"/><stop offset="6%" stop-color="#bcbcbc"/><stop offset="9%" stop-color="#b5b5b5"/><stop offset="49%" stop-color="#f6f6f6"/><stop offset="63%" stop-color="#f3f3f3"/><stop offset="73%" stop-color="#eaeaea"/><stop offset="82%" stop-color="#dbdbdb"/><stop offset="90%" stop-color="#c6c6c6"/><stop offset="97%" stop-color="#aaa"/><stop offset="100%" stop-color="#9b9b9b"/></linearGradient><linearGradient id="e" x1="49.989%" x2="49.989%" y1="0%" y2="100.254%"><stop offset="0%" stop-color="#6b6b6b"/><stop offset="1%" stop-color="#767676"/><stop offset="3%" stop-color="#959595"/><stop offset="4%" stop-color="#aaa"/><stop offset="37%" stop-color="#ccc"/><stop offset="74%" stop-color="#eaeaea"/><stop offset="94%" stop-color="#f6f6f6"/><stop offset="95%" stop-color="#ededed"/><stop offset="96%" stop-color="#d4d4d4"/><stop offset="97%" stop-color="#ababab"/><stop offset="99%" stop-color="#737373"/><stop offset="99%" stop-color="#666"/></linearGradient><linearGradient id="f" x1="49.989%" x2="49.989%" y1="0%" y2="100%"><stop offset="0%" stop-color="#6b6b6b"/><stop offset="1%" stop-color="#767676"/><stop offset="3%" stop-color="#959595"/><stop offset="4%" stop-color="#aaa"/><stop offset="37%" stop-color="#ccc"/><stop offset="74%" stop-color="#eaeaea"/><stop offset="94%" stop-color="#f6f6f6"/><stop offset="95%" stop-color="#ededed"/><stop offset="96%" stop-color="#d4d4d4"/><stop offset="97%" stop-color="#ababab"/><stop offset="99%" stop-color="#737373"/><stop offset="99%" stop-color="#666"/></linearGradient><linearGradient id="g" x1="49.989%" x2="49.989%" y1="0%" y2="100%"><stop offset="0%" stop-color="#6b6b6b"/><stop offset="1%" stop-color="#767676"/><stop offset="3%" stop-color="#959595"/><stop offset="4%" stop-color="#aaa"/><stop offset="37%" stop-color="#ccc"/><stop offset="74%" stop-color="#eaeaea"/><stop offset="94%" stop-color="#f6f6f6"/><stop offset="95%" stop-color="#ededed"/><stop offset="96%" stop-color="#d4d4d4"/><stop offset="97%" stop-color="#ababab"/><stop offset="99%" stop-color="#737373"/><stop offset="99%" stop-color="#666"/></linearGradient></defs><g fill="none" fill-rule="nonzero" transform="translate(0 .85)"><path fill="url(#a)" d="M88.11 139.91H0L9.2 24.19C10.29 10.529 21.695-.002 35.4 0h19.3c13.876 0 25.359 10.79 26.22 24.64z"/><path fill="#565656" stroke="#b9b8bc" d="M21.46 27.18h45.19v82.1H21.46z"/><path fill="url(#b)" d="M12.09 139.91h64.85v10.23H12.09z"/><circle cx="44.52" cy="127.02" r="3.89" fill="#565656" stroke="#b9b8bc"/><circle cx="44.52" cy="9.44" r="2.49" fill="#565656" stroke="#b9b8bc"/><path fill="url(#c)" d="M26.05 27.62h3.14v81.66h-3.14z"/><path fill="url(#c)" d="M32.69 27.62h3.14v81.66h-3.14z"/><path fill="url(#c)" d="M39.33 27.62h3.14v81.66h-3.14z"/><path fill="url(#d)" d="M45.97 27.62h3.14v81.66h-3.14z"/><path fill="url(#d)" d="M52.61 27.62h3.14v81.66h-3.14z"/><path fill="url(#d)" d="M59.25 27.62h3.14v81.66h-3.14z"/><path fill="url(#e)" d="M21.97 37.31h44.15v3.94H21.97z" transform="matrix(-1 0 0 -1 88.09 78.56)"/><path fill="url(#f)" d="M21.97 56.58h44.15v3.94H21.97z" transform="matrix(-1 0 0 -1 88.09 117.1)"/><path fill="url(#g)" d="M21.97 75.86h44.15v3.94H21.97z" transform="matrix(-1 0 0 -1 88.09 155.66)"/><path fill="url(#e)" d="M21.97 95.14h44.15v3.94H21.97z" transform="matrix(-1 0 0 -1 88.09 194.22)"/></g></svg>