<svg xmlns="http://www.w3.org/2000/svg" viewBox="0 0 79 151"><title>Indirect large volume water heater（间接大容量热水器）</title><defs><linearGradient id="a" x1="100%" x2="0%" y1="50%" y2="50%"><stop offset="0%" stop-color="#6b6b6b"/><stop offset="1%" stop-color="#767676"/><stop offset="3%" stop-color="#959595"/><stop offset="4%" stop-color="#aaa"/><stop offset="37%" stop-color="#ccc"/><stop offset="74%" stop-color="#eaeaea"/><stop offset="94%" stop-color="#f6f6f6"/><stop offset="95%" stop-color="#ededed"/><stop offset="96%" stop-color="#d4d4d4"/><stop offset="97%" stop-color="#ababab"/><stop offset="99%" stop-color="#737373"/><stop offset="99%" stop-color="#666"/></linearGradient><linearGradient id="b" x1="0%" x2="100%" y1="50%" y2="50%"><stop offset="0%" stop-color="#e2e2e2"/><stop offset="3%" stop-color="#d0d0d0"/><stop offset="6%" stop-color="#bcbcbc"/><stop offset="9%" stop-color="#b5b5b5"/><stop offset="49%" stop-color="#f6f6f6"/><stop offset="63%" stop-color="#f3f3f3"/><stop offset="73%" stop-color="#eaeaea"/><stop offset="82%" stop-color="#dbdbdb"/><stop offset="90%" stop-color="#c6c6c6"/><stop offset="97%" stop-color="#aaa"/><stop offset="100%" stop-color="#9b9b9b"/></linearGradient><linearGradient id="c" x1="0%" x2="100%" y1="49.848%" y2="49.848%"><stop offset="0%" stop-color="#e2e2e2"/><stop offset="3%" stop-color="#d0d0d0"/><stop offset="6%" stop-color="#bcbcbc"/><stop offset="9%" stop-color="#b5b5b5"/><stop offset="49%" stop-color="#f6f6f6"/><stop offset="63%" stop-color="#f3f3f3"/><stop offset="73%" stop-color="#eaeaea"/><stop offset="82%" stop-color="#dbdbdb"/><stop offset="90%" stop-color="#c6c6c6"/><stop offset="97%" stop-color="#aaa"/><stop offset="100%" stop-color="#9b9b9b"/></linearGradient><linearGradient id="d" x1="50.04%" x2="50.04%" y1="100%" y2="0%"><stop offset="0%" stop-color="#e2e2e2"/><stop offset="3%" stop-color="#d0d0d0"/><stop offset="6%" stop-color="#bcbcbc"/><stop offset="9%" stop-color="#b5b5b5"/><stop offset="49%" stop-color="#f6f6f6"/><stop offset="63%" stop-color="#f3f3f3"/><stop offset="73%" stop-color="#eaeaea"/><stop offset="82%" stop-color="#dbdbdb"/><stop offset="90%" stop-color="#c6c6c6"/><stop offset="97%" stop-color="#aaa"/><stop offset="100%" stop-color="#9b9b9b"/></linearGradient></defs><g fill="none" fill-rule="nonzero"><path fill="url(#a)" d="M0 11.2h78.33V150H0z" transform="translate(0 .85)"/><path fill="url(#b)" d="M56.46 0h7v11.2h-7z" transform="translate(0 .85)"/><path fill="url(#c)" d="M52.11 7.91h15.73v3.29H52.11z" transform="translate(0 .85)"/><path fill="url(#d)" d="M14.24 28.34h12.43v2.8H14.24z" transform="translate(0 .85)"/><path fill="url(#d)" d="M31.63 28.34h12.43v2.8H31.63z" transform="translate(0 .85)"/><path fill="url(#d)" d="M49.02 28.34h12.43v2.8H49.02z" transform="translate(0 .85)"/><path fill="url(#d)" d="M14.24 33.57h12.43v2.8H14.24z" transform="translate(0 .85)"/><path fill="url(#d)" d="M14.24 38.8h12.43v2.8H14.24z" transform="translate(0 .85)"/><path fill="url(#d)" d="M31.63 33.57h12.43v2.8H31.63z" transform="translate(0 .85)"/><path fill="url(#d)" d="M31.63 38.8h12.43v2.8H31.63z" transform="translate(0 .85)"/><path fill="url(#d)" d="M49.02 33.57h12.43v2.8H49.02z" transform="translate(0 .85)"/><path fill="url(#d)" d="M49.02 38.8h12.43v2.8H49.02z" transform="translate(0 .85)"/><path fill="#565656" stroke="#b9b8bc" d="M27.01 54.8h22.9v15.25h-22.9zM16.26 81.45h45.19v17.92H16.26z"/><path fill="#8f949a" d="M9.08 12.05h2.36v138.8H9.08zm56.4 0h2.36v138.8h-2.36z"/><path fill="#8f949a" d="M10.26 118.43h56.4v3.24h-56.4z"/></g></svg>