<svg xmlns="http://www.w3.org/2000/svg" viewBox="0 0 151 35"><title>Screw conveyor(螺旋传送机)</title><defs><linearGradient id="a" x1="49.972%" x2="49.972%" y1="0%" y2="100%"><stop offset="0%" stop-color="#767b82"/><stop offset="7%" stop-color="#9ba1ab"/><stop offset="22%" stop-color="#e2eaf2"/><stop offset="94%" stop-color="#767b82"/><stop offset="100%" stop-color="#a9b1bb"/></linearGradient><linearGradient id="b" x1="-13345.651%" x2="-13345.651%" y1="0%" y2="100%"><stop offset="0%" stop-color="#767b82"/><stop offset="7%" stop-color="#9ba1ab"/><stop offset="22%" stop-color="#e2eaf2"/><stop offset="94%" stop-color="#767b82"/><stop offset="100%" stop-color="#a9b1bb"/></linearGradient><linearGradient id="c" x1="-84094.371%" x2="-84094.371%" y1="0%" y2="100%"><stop offset="0%" stop-color="#767b82"/><stop offset="7%" stop-color="#9ba1ab"/><stop offset="22%" stop-color="#e2eaf2"/><stop offset="94%" stop-color="#767b82"/><stop offset="100%" stop-color="#a9b1bb"/></linearGradient><linearGradient id="d" x1="0%" x2="100%" y1="50%" y2="50%"><stop offset="2%" stop-color="#767b82"/><stop offset="4%" stop-color="#d7dce0"/><stop offset="9%" stop-color="#9ba1ab"/><stop offset="92%" stop-color="#9ba1ab"/><stop offset="100%" stop-color="#767b82"/></linearGradient><linearGradient id="e" x1="99.755%" x2="0%" y1="50%" y2="50%"><stop offset="0%" stop-color="#767b82"/><stop offset="8%" stop-color="#9ba1ab"/><stop offset="91%" stop-color="#9ba1ab"/><stop offset="96%" stop-color="#d7dce0"/><stop offset="98%" stop-color="#767b82"/></linearGradient><linearGradient id="f" x1="-85800%" x2="-85800%" y1="0%" y2="100%"><stop offset="0%" stop-color="#767b82"/><stop offset="7%" stop-color="#9ba1ab"/><stop offset="22%" stop-color="#e2eaf2"/><stop offset="94%" stop-color="#767b82"/><stop offset="100%" stop-color="#a9b1bb"/></linearGradient><linearGradient id="g" x1="-317595%" x2="-317595%" y1="0%" y2="100%"><stop offset="0%" stop-color="#767b82"/><stop offset="7%" stop-color="#9ba1ab"/><stop offset="22%" stop-color="#e2eaf2"/><stop offset="94%" stop-color="#767b82"/><stop offset="100%" stop-color="#a9b1bb"/></linearGradient><linearGradient id="h" x1="-19679.503%" x2="-19679.503%" y1="0%" y2="100%"><stop offset="0%" stop-color="#767b82"/><stop offset="7%" stop-color="#9ba1ab"/><stop offset="22%" stop-color="#e2eaf2"/><stop offset="94%" stop-color="#767b82"/><stop offset="100%" stop-color="#a9b1bb"/></linearGradient><linearGradient id="i" x1="-19679.503%" x2="-19679.503%" y1="0%" y2="96.296%"><stop offset="0%" stop-color="#767b82"/><stop offset="7%" stop-color="#9ba1ab"/><stop offset="22%" stop-color="#e2eaf2"/><stop offset="94%" stop-color="#767b82"/><stop offset="100%" stop-color="#a9b1bb"/></linearGradient><linearGradient id="j" x1="50.5%" x2="50.5%" y1=".108%" y2="100%"><stop offset="0%" stop-color="#767b82"/><stop offset="7%" stop-color="#9ba1ab"/><stop offset="22%" stop-color="#e2eaf2"/><stop offset="94%" stop-color="#767b82"/><stop offset="100%" stop-color="#a9b1bb"/></linearGradient><linearGradient id="k" x1="0%" x2="100%" y1="50%" y2="50%"><stop offset="0%" stop-color="#a9b1bb"/><stop offset="6%" stop-color="#767b82"/><stop offset="78%" stop-color="#e2eaf2"/><stop offset="93%" stop-color="#9ba1ab"/><stop offset="100%" stop-color="#767b82"/></linearGradient><linearGradient id="l" x1="50%" x2="50%" y1="100%" y2="0%"><stop offset="0%" stop-color="#8a9199"/><stop offset="8%" stop-color="#5d6166"/><stop offset="15%" stop-color="#676b71"/><stop offset="27%" stop-color="#81868d"/><stop offset="42%" stop-color="#acb2bc"/><stop offset="47%" stop-color="#bbc2cc"/><stop offset="54%" stop-color="#bbc2cc"/><stop offset="100%" stop-color="#bbc2cc"/></linearGradient><linearGradient id="m" x1="50%" x2="50%" y1="100%" y2="0%"><stop offset="0%" stop-color="#767b82"/><stop offset="8%" stop-color="#9ba1ab"/><stop offset="91%" stop-color="#9ba1ab"/><stop offset="96%" stop-color="#d7dce0"/><stop offset="98%" stop-color="#767b82"/></linearGradient><linearGradient id="n" x1="49.946%" x2="49.946%" y1="100%" y2=".439%"><stop offset="0%" stop-color="#767b82"/><stop offset="8%" stop-color="#9ba1ab"/><stop offset="91%" stop-color="#9ba1ab"/><stop offset="96%" stop-color="#d7dce0"/><stop offset="98%" stop-color="#767b82"/></linearGradient><linearGradient id="o" x1="50.017%" x2="50.017%" y1="100%" y2="0%"><stop offset="0%" stop-color="#767b82"/><stop offset="8%" stop-color="#9ba1ab"/><stop offset="91%" stop-color="#9ba1ab"/><stop offset="96%" stop-color="#d7dce0"/><stop offset="98%" stop-color="#767b82"/></linearGradient><linearGradient id="p" x1="99.902%" x2="0%" y1="49.962%" y2="49.962%"><stop offset="0%" stop-color="#767b82"/><stop offset="8%" stop-color="#9ba1ab"/><stop offset="91%" stop-color="#9ba1ab"/><stop offset="96%" stop-color="#d7dce0"/><stop offset="98%" stop-color="#767b82"/></linearGradient><linearGradient id="q" x1="50%" x2="50%" y1="0%" y2="99.87%"><stop offset="0%" stop-color="#767b82"/><stop offset="7%" stop-color="#9ba1ab"/><stop offset="22%" stop-color="#e2eaf2"/><stop offset="94%" stop-color="#767b82"/><stop offset="100%" stop-color="#a9b1bb"/></linearGradient><linearGradient id="r" x1="0%" x2="100%" y1="49.986%" y2="49.986%"><stop offset="0%" stop-color="#a9b1bb"/><stop offset="6%" stop-color="#767b82"/><stop offset="78%" stop-color="#e2eaf2"/><stop offset="93%" stop-color="#9ba1ab"/><stop offset="100%" stop-color="#767b82"/></linearGradient><linearGradient id="s" x1="0%" x2="100%" y1="49.986%" y2="49.986%"><stop offset="0%" stop-color="#a9b1bb"/><stop offset="6%" stop-color="#767b82"/><stop offset="78%" stop-color="#e2eaf2"/><stop offset="93%" stop-color="#9ba1ab"/><stop offset="100%" stop-color="#767b82"/></linearGradient><linearGradient id="t" x1="0%" x2="99.874%" y1="49.986%" y2="49.986%"><stop offset="0%" stop-color="#a9b1bb"/><stop offset="6%" stop-color="#767b82"/><stop offset="78%" stop-color="#e2eaf2"/><stop offset="93%" stop-color="#9ba1ab"/><stop offset="100%" stop-color="#767b82"/></linearGradient><linearGradient id="u" x1="-.063%" x2="99.937%" y1="49.986%" y2="49.986%"><stop offset="0%" stop-color="#a9b1bb"/><stop offset="6%" stop-color="#767b82"/><stop offset="78%" stop-color="#e2eaf2"/><stop offset="93%" stop-color="#9ba1ab"/><stop offset="100%" stop-color="#767b82"/></linearGradient><linearGradient id="v" x1="0%" x2="100%" y1="49.986%" y2="49.986%"><stop offset="0%" stop-color="#a9b1bb"/><stop offset="6%" stop-color="#767b82"/><stop offset="78%" stop-color="#e2eaf2"/><stop offset="93%" stop-color="#9ba1ab"/><stop offset="100%" stop-color="#767b82"/></linearGradient></defs><g fill="none" fill-rule="evenodd"><path fill="url(#a)" fill-rule="nonzero" d="M131.32 6.18h17.97v9.29h-17.97z" transform="translate(0 .85)"/><path fill="url(#b)" fill-rule="nonzero" d="M112.34 8.55h18.97v4.54h-18.97z" transform="translate(0 .85)"/><path fill="url(#c)" fill-rule="nonzero" d="M128.3 6.81h3.02v8.03h-3.02z" transform="translate(0 .85)"/><path fill="url(#d)" fill-rule="nonzero" d="M127.01 20.2h-4.07l2.07-5.36h2z" transform="translate(0 .85)"/><path fill="url(#e)" fill-rule="nonzero" d="M127.01 20.2h4.08l-2.07-5.36h-2.01z" transform="translate(0 .85)"/><path fill="url(#f)" fill-rule="nonzero" d="M125.33 5.48h2.96v10.83h-2.96z" transform="translate(0 .85)"/><path fill="url(#g)" fill-rule="nonzero" d="M130.52 5.48h1v10.69h-1z" transform="translate(0 .85)"/><path stroke="#000" d="M146.33 7.03h1v9.29h-1z" opacity=".3"/><path fill="#000" fill-rule="nonzero" d="M133.09 7.03h.42v9.29h-.42z" opacity=".3"/><path fill="url(#h)" fill-rule="nonzero" d="M133.35 6.54h12.88v1h-12.88z" transform="translate(0 .85)"/><path fill="url(#h)" fill-rule="nonzero" d="M133.35 14.4h12.88v1h-12.88z" transform="translate(0 .85)"/><path fill="url(#i)" fill-rule="nonzero" d="M133.35 13.53h12.88v1h-12.88z" transform="translate(0 .85)"/><path fill="url(#h)" fill-rule="nonzero" d="M133.35 12.65h12.88v1h-12.88z" transform="translate(0 .85)"/><path fill="url(#h)" fill-rule="nonzero" d="M133.35 11.78h12.88v1h-12.88z" transform="translate(0 .85)"/><path fill="url(#i)" fill-rule="nonzero" d="M133.35 10.91h12.88v1h-12.88z" transform="translate(0 .85)"/><path fill="url(#h)" fill-rule="nonzero" d="M133.35 10.03h12.88v1h-12.88z" transform="translate(0 .85)"/><path fill="url(#h)" fill-rule="nonzero" d="M133.35 9.16h12.88v1h-12.88z" transform="translate(0 .85)"/><path fill="url(#i)" fill-rule="nonzero" d="M133.35 8.29h12.88v1h-12.88z" transform="translate(0 .85)"/><path fill="url(#h)" fill-rule="nonzero" d="M133.35 7.41h12.88v1h-12.88z" transform="translate(0 .85)"/><path fill="url(#j)" fill-rule="nonzero" d="m150 14.1-.71 1.37v-9.3l.71 1.38z" transform="translate(0 .85)"/><path fill="url(#k)" fill-rule="nonzero" d="M135.85 2.23h3.94v3.94h-3.94z" transform="translate(0 .85)"/><path fill="url(#l)" fill-rule="nonzero" d="M0 0h112.34v18.51H0z" transform="translate(0 .85)"/><path fill="url(#m)" fill-rule="nonzero" d="M-2.07 23.59h18.56v2.28H-2.07z" transform="rotate(90 6.785 25.155)"/><path fill="url(#m)" fill-rule="nonzero" d="M40.18 23.58h18.56v2.28H40.18z" transform="rotate(90 49.035 25.145)"/><path fill="url(#n)" fill-rule="nonzero" d="M90.76 23.59h18.56v2.28H90.76z" transform="rotate(90 99.615 25.155)"/><path fill="url(#o)" fill-rule="nonzero" d="M112.34 19.63h29.59v4.33h-29.59z" transform="translate(0 .85)"/><path fill="url(#p)" fill-rule="nonzero" d="M122.51 19.57h-10.17V6.58l9.86 10.34z" transform="translate(0 .85)"/><path fill="url(#q)" fill-rule="nonzero" d="M0 3.81h112.34v7.69H0z" transform="translate(0 .85)"/><path fill="url(#r)" fill-rule="nonzero" d="M17.34 3.82c-1 2.19-2.75 7.69-5.89 7.67H8.66c.64 4.86 5.44 3.75 7.16 0 2.9-6.34 4-7.57 5.89-7.67h2.79c-.71-4.36-5.25-4.14-7.16 0" transform="translate(0 .85)"/><path fill="url(#r)" fill-rule="nonzero" d="M8.68 3.82C7.66 6 5.93 11.51 2.8 11.49H0c.65 4.86 5.44 3.75 7.17 0 2.9-6.34 4-7.57 5.88-7.67h2.79c-.71-4.36-5.25-4.14-7.16 0" transform="translate(0 .85)"/><path fill="url(#r)" fill-rule="nonzero" d="M27 3.82c-1 2.19-2.75 7.69-5.88 7.67h-2.84c.64 4.86 5.44 3.75 7.16 0 2.9-6.34 4-7.57 5.88-7.67h2.8c-.71-4.36-5.25-4.14-7.12 0" transform="translate(0 .85)"/><path fill="url(#s)" fill-rule="nonzero" d="M36.57 3.82c-1 2.19-2.75 7.69-5.88 7.67h-2.8c.65 4.86 5.45 3.75 7.17 0 2.9-6.34 4-7.57 5.88-7.67h2.8c-.74-4.36-5.25-4.14-7.17 0" transform="translate(0 .85)"/><path fill="url(#s)" fill-rule="nonzero" d="M46.19 3.82c-1 2.19-2.75 7.69-5.88 7.67h-2.8c.65 4.86 5.45 3.75 7.17 0 2.9-6.34 4-7.57 5.88-7.67h2.8c-.71-4.36-5.26-4.14-7.17 0" transform="translate(0 .85)"/><path fill="url(#t)" fill-rule="nonzero" d="M55.81 3.82c-1 2.19-2.75 7.69-5.88 7.67h-2.8c.65 4.86 5.44 3.75 7.17 0 2.9-6.34 4-7.57 5.88-7.67H63c-.74-4.36-5.28-4.14-7.19 0" transform="translate(0 .85)"/><path fill="url(#r)" fill-rule="nonzero" d="M65.43 3.82c-1 2.19-2.75 7.69-5.89 7.67h-2.79c.64 4.86 5.44 3.75 7.16 0 2.91-6.34 4-7.57 5.89-7.67h2.79c-.71-4.36-5.25-4.14-7.16 0" transform="translate(0 .85)"/><path fill="url(#r)" fill-rule="nonzero" d="M75.05 3.82C74 6 72.3 11.51 69.16 11.49h-2.79c.64 4.86 5.44 3.75 7.16 0 2.91-6.34 4-7.57 5.89-7.67h2.79c-.71-4.36-5.21-4.14-7.16 0" transform="translate(0 .85)"/><path fill="url(#u)" fill-rule="nonzero" d="M84.66 3.82c-1 2.19-2.75 7.69-5.88 7.67H76c.64 4.86 5.44 3.75 7.16 0 2.9-6.34 4-7.57 5.89-7.67h2.79c-.72-4.36-5.26-4.14-7.18 0" transform="translate(0 .85)"/><path fill="url(#s)" fill-rule="nonzero" d="M94.28 3.82c-1 2.19-2.75 7.69-5.88 7.67h-2.8c.65 4.86 5.45 3.75 7.17 0 2.9-6.34 4-7.57 5.88-7.67h2.8c-.71-4.36-5.25-4.14-7.17 0" transform="translate(0 .85)"/><path fill="url(#v)" fill-rule="nonzero" d="M103.9 3.82c-1 2.19-2.75 7.69-5.88 7.67h-2.8c.65 4.86 5.45 3.75 7.17 0 2.9-6.34 4-7.57 5.88-7.67h2.8c-.71-4.36-5.26-4.14-7.17 0" transform="translate(0 .85)"/></g></svg>