<svg xmlns="http://www.w3.org/2000/svg" viewBox="0 0 150 127"><title>Additive injection system（添加剂注入系统）</title><defs><linearGradient id="a" x1="49.996%" x2="49.996%" y1="0%" y2="100%"><stop offset="0%" stop-color="#808484"/><stop offset="15%" stop-color="#bfc1c1"/><stop offset="29%" stop-color="#f6f6f6"/><stop offset="45%" stop-color="#d3d3d3"/><stop offset="68%" stop-color="#999"/><stop offset="100%" stop-color="#666"/></linearGradient><linearGradient id="b" x1="50.137%" x2="50.137%" y1=".23%" y2="98.622%"><stop offset="0%" stop-color="#808484"/><stop offset="4%" stop-color="#878b8b"/><stop offset="9%" stop-color="#9c9f9f"/><stop offset="16%" stop-color="#bdbfbf"/><stop offset="23%" stop-color="#ebebeb"/><stop offset="25%" stop-color="#f6f6f6"/><stop offset="34%" stop-color="#dbdbdb"/><stop offset="47%" stop-color="#b7b7b7"/><stop offset="58%" stop-color="#a1a1a1"/><stop offset="65%" stop-color="#999"/><stop offset="74%" stop-color="#888"/><stop offset="90%" stop-color="#6f6f6f"/><stop offset="100%" stop-color="#666"/></linearGradient><linearGradient id="c" x1="50%" x2="50%" y1="0%" y2="100.214%"><stop offset="0%" stop-color="#808484"/><stop offset="4%" stop-color="#878b8b"/><stop offset="9%" stop-color="#9c9f9f"/><stop offset="16%" stop-color="#bdbfbf"/><stop offset="23%" stop-color="#ebebeb"/><stop offset="25%" stop-color="#f6f6f6"/><stop offset="34%" stop-color="#dbdbdb"/><stop offset="47%" stop-color="#b7b7b7"/><stop offset="58%" stop-color="#a1a1a1"/><stop offset="65%" stop-color="#999"/><stop offset="74%" stop-color="#888"/><stop offset="90%" stop-color="#6f6f6f"/><stop offset="100%" stop-color="#666"/></linearGradient><linearGradient id="d" x1="49.863%" x2="49.863%" y1="99.77%" y2="1.378%"><stop offset="0%" stop-color="#808484"/><stop offset="4%" stop-color="#878b8b"/><stop offset="9%" stop-color="#9c9f9f"/><stop offset="16%" stop-color="#bdbfbf"/><stop offset="23%" stop-color="#ebebeb"/><stop offset="25%" stop-color="#f6f6f6"/><stop offset="34%" stop-color="#dbdbdb"/><stop offset="47%" stop-color="#b7b7b7"/><stop offset="58%" stop-color="#a1a1a1"/><stop offset="65%" stop-color="#999"/><stop offset="74%" stop-color="#888"/><stop offset="90%" stop-color="#6f6f6f"/><stop offset="100%" stop-color="#666"/></linearGradient><linearGradient id="e" x1="50%" x2="50%" y1="100.214%" y2="0%"><stop offset="0%" stop-color="#808484"/><stop offset="4%" stop-color="#878b8b"/><stop offset="9%" stop-color="#9c9f9f"/><stop offset="16%" stop-color="#bdbfbf"/><stop offset="23%" stop-color="#ebebeb"/><stop offset="25%" stop-color="#f6f6f6"/><stop offset="34%" stop-color="#dbdbdb"/><stop offset="47%" stop-color="#b7b7b7"/><stop offset="58%" stop-color="#a1a1a1"/><stop offset="65%" stop-color="#999"/><stop offset="74%" stop-color="#888"/><stop offset="90%" stop-color="#6f6f6f"/><stop offset="100%" stop-color="#666"/></linearGradient><linearGradient id="f" x1="50.137%" x2="50.137%" y1="99.77%" y2="1.378%"><stop offset="0%" stop-color="#808484"/><stop offset="4%" stop-color="#878b8b"/><stop offset="9%" stop-color="#9c9f9f"/><stop offset="16%" stop-color="#bdbfbf"/><stop offset="23%" stop-color="#ebebeb"/><stop offset="25%" stop-color="#f6f6f6"/><stop offset="34%" stop-color="#dbdbdb"/><stop offset="47%" stop-color="#b7b7b7"/><stop offset="58%" stop-color="#a1a1a1"/><stop offset="65%" stop-color="#999"/><stop offset="74%" stop-color="#888"/><stop offset="90%" stop-color="#6f6f6f"/><stop offset="100%" stop-color="#666"/></linearGradient><linearGradient id="g" x1="50%" x2="50%" y1=".218%" y2="98.691%"><stop offset="0%" stop-color="#808484"/><stop offset="15%" stop-color="#bfc1c1"/><stop offset="29%" stop-color="#f6f6f6"/><stop offset="45%" stop-color="#d3d3d3"/><stop offset="68%" stop-color="#999"/><stop offset="100%" stop-color="#666"/></linearGradient></defs><g fill="none" fill-rule="nonzero"><path fill="url(#a)" d="M12.29 23.84H150v6.63H12.29z"/><path fill="#cecece" d="M0 17.62h150v6.22H0z"/><path fill="#b0b0b1" d="M0 21.5h150v1.2H0z"/><path fill="#cecece" d="M64.24 0v15.06H46.83V0h-2.06v17.62H66.3V0z"/><path fill="#cecece" d="M64.44 0v15.06H47.03V0h-2.06v17.62H66.5V0zm38.18 0v15.06H85.2V0h-2.06v17.62h21.54V0zm38.48 0v15.06h-17.41V0h-2.06v17.62h21.53V0z"/><path fill="url(#b)" d="M78.56 3.29h3.65V12h-3.65z"/><path fill="url(#c)" d="M82.21 5.3h1v4.68h-1z"/><path fill="url(#b)" d="M117.04 3.29h3.65V12h-3.65z"/><path fill="url(#c)" d="M120.69 5.3h1v4.68h-1z"/><path fill="url(#d)" d="M144.09 3.29h3.65V12h-3.65z" transform="matrix(-1 0 0 -1 291.83 15.29)"/><path fill="url(#e)" d="M143.16 5.31h1v4.68h-1z" transform="matrix(-1 0 0 -1 287.26 15.3)"/><path fill="url(#f)" d="M105.62 3.29h3.65V12h-3.65z" transform="matrix(-1 0 0 -1 214.89 15.29)"/><path fill="url(#e)" d="M104.67 5.31h1v4.68h-1z" transform="matrix(-1 0 0 -1 210.28 15.3)"/><path fill="url(#d)" d="M67.23 3.29h3.65V12h-3.65z" transform="matrix(-1 0 0 -1 138.11 15.29)"/><path fill="url(#e)" d="M66.3 5.31h1v4.68h-1z" transform="matrix(-1 0 0 -1 133.54 15.3)"/><path fill="url(#g)" d="M32.31 23.84h26.82v9.17H32.31z"/><path fill="#7a7a7a" d="M32.31 30.35h26.82v2.66H32.31z"/><path fill="#7a7a7a" d="M55.69 23.84h2.36v6.63h-2.36zm-22.04 0h4.72v6.63h-4.72z"/><path fill="url(#g)" d="M70.88 23.84H97.7v9.17H70.88z"/><path fill="#7a7a7a" d="M70.88 30.35H97.7v2.66H70.88z"/><path fill="#7a7a7a" d="M94.26 23.84h2.36v6.63h-2.36zm-22.04 0h4.72v6.63h-4.72z"/><path fill="url(#g)" d="M109.26 23.84h26.82v9.17h-26.82z"/><path fill="#7a7a7a" d="M109.26 30.35h26.82v2.66h-26.82z"/><path fill="#7a7a7a" d="M132.64 23.84H135v6.63h-2.36zm-22.04 0h4.72v6.63h-4.72z"/><path fill="#cecece" d="M0 33.01h150v38.68H0z"/><path fill="#b0b0b1" d="M0 52.85h150v4.65H0z"/><path fill="#cecece" d="M0 115.09h150v4.65H0z"/><path fill="#aaa" d="M47.43 34.52h11.7v16.53h-11.7z"/><path fill="#373332" d="M48.31 36.56h9.94v12.45h-9.94z"/><path fill="#cecece" stroke="#515151" stroke-width=".1" d="M49.47 38.63h7.63v1.91h-7.63z"/><path fill="#b1bcbc" stroke="#657a7a" stroke-width=".1" d="M49.47 42.4h2.07v2.07h-2.07zm2.77 0h2.07v2.07h-2.07zm2.78 0h2.07v2.07h-2.07zm-5.55 3.27h2.07v2.07h-2.07zm2.77 0h2.07v2.07h-2.07zm2.78 0h2.07v2.07h-2.07z"/><path fill="#aaa" d="M89.6 34.52h11.7v16.53H89.6z"/><path fill="#373332" d="M90.48 36.56h9.94v12.45h-9.94z"/><path fill="#cecece" stroke="#515151" stroke-width=".1" d="M91.64 38.63h7.63v1.91h-7.63z"/><path fill="#b1bcbc" stroke="#657a7a" stroke-width=".1" d="M91.64 42.4h2.07v2.07h-2.07zm2.78 0h2.07v2.07h-2.07zm2.77 0h2.07v2.07h-2.07zm-5.55 3.27h2.07v2.07h-2.07zm2.78 0h2.07v2.07h-2.07zm2.77 0h2.07v2.07h-2.07z"/><path fill="#aaa" d="M131.77 34.52h11.7v16.53h-11.7z"/><path fill="#373332" d="M132.65 36.56h9.94v12.45h-9.94z"/><path fill="#cecece" stroke="#515151" stroke-width=".1" d="M133.81 38.63h7.63v1.91h-7.63z"/><path fill="#b1bcbc" stroke="#657a7a" stroke-width=".1" d="M133.81 42.4h2.07v2.07h-2.07zm2.78 0h2.07v2.07h-2.07zm2.77 0h2.07v2.07h-2.07zm-5.55 3.27h2.07v2.07h-2.07zm2.78 0h2.07v2.07h-2.07zm2.77 0h2.07v2.07h-2.07z"/><path fill="#cecece" d="M145.73 71.06H150v55.11h-4.27z"/><path fill="#515151" d="M20.88 98.61h1.6a.31.31 0 0 1 .31.31v13.39h-2.22V98.93a.31.31 0 0 1 .31-.31zm2.9 16.48h-4.21l1-2.77h2.22z"/><path fill="#bcbcbc" d="M20.57 112.01h2.22v1h-2.22z"/><path fill="#515151" d="M74.2 98.61h1.6a.31.31 0 0 1 .31.31v13.39h-2.22V98.93a.31.31 0 0 1 .31-.32m2.91 16.48h-4.22l1-2.77h2.22z"/><path fill="#bcbcbc" d="M73.89 112.01h2.22v1h-2.22z"/><path fill="#515151" d="M127.52 98.61h1.6a.31.31 0 0 1 .31.31v13.39h-2.22V98.93a.31.31 0 0 1 .31-.31zm2.91 16.48h-4.21l.99-2.77h2.22z"/><path fill="#bcbcbc" d="M127.21 112.01h2.22v1h-2.22z"/></g></svg>