<svg xmlns="http://www.w3.org/2000/svg" viewBox="0 0 150 57"><title>Extrusion booster pump（挤压增压泵） (2)</title><defs><linearGradient id="a" x1="50%" x2="50%" y1="0%" y2="100%"><stop offset="0%" stop-color="#b7b7b7"/><stop offset="3%" stop-color="#9b9d9d"/><stop offset="7%" stop-color="#878b8b"/><stop offset="9%" stop-color="#808484"/><stop offset="20%" stop-color="#a3a6a6"/><stop offset="49%" stop-color="#f6f6f6"/><stop offset="61%" stop-color="#f3f3f3"/><stop offset="70%" stop-color="#eaeaea"/><stop offset="77%" stop-color="#dbdbdb"/><stop offset="83%" stop-color="#c5c5c5"/><stop offset="90%" stop-color="#aaa"/><stop offset="95%" stop-color="#888"/><stop offset="100%" stop-color="#666"/></linearGradient><linearGradient id="b" x1="50%" x2="50%" y1="0%" y2="99.981%"><stop offset="0%" stop-color="#b7b7b7"/><stop offset="3%" stop-color="#9b9d9d"/><stop offset="7%" stop-color="#878b8b"/><stop offset="9%" stop-color="#808484"/><stop offset="20%" stop-color="#a3a6a6"/><stop offset="49%" stop-color="#f6f6f6"/><stop offset="61%" stop-color="#f3f3f3"/><stop offset="70%" stop-color="#eaeaea"/><stop offset="77%" stop-color="#dbdbdb"/><stop offset="83%" stop-color="#c5c5c5"/><stop offset="90%" stop-color="#aaa"/><stop offset="95%" stop-color="#888"/><stop offset="100%" stop-color="#666"/></linearGradient></defs><g fill="none" fill-rule="nonzero"><path fill="url(#a)" d="M0 0h9.16v56.4H0z"/><path fill="url(#a)" d="M65.8 0h9.16v56.4H65.8z"/><path fill="url(#b)" d="M9.16 1.77H65.8v52.87H9.16z"/><path fill="url(#a)" d="M75.04 0h9.16v56.4h-9.16z"/><path fill="url(#a)" d="M140.84 0H150v56.4h-9.16z"/><path fill="url(#b)" d="M84.2 1.45h56.64v52.87H84.2z"/><path fill="#c4c4c4" d="m79.62 22.96-4.64 2.68V31l4.64 2.68L84.26 31v-5.36z"/><circle cx="79.62" cy="28.32" r="4.37" fill="#9494a8"/><circle cx="79.62" cy="28.32" r="3.21" fill="#666"/><path fill="#c4c4c4" d="m145.36 22.96-4.65 2.68V31l4.65 2.68L150 31v-5.36z"/><circle cx="145.36" cy="28.32" r="4.37" fill="#9494a8"/><circle cx="145.36" cy="28.32" r="3.21" fill="#666"/></g></svg>