<svg xmlns="http://www.w3.org/2000/svg" viewBox="0 0 150 118"><title>Horizontal baler（卧式打捆机）</title><defs><linearGradient id="a" x1="50.003%" x2="50.003%" y1="100%" y2="0%"><stop offset="0%" stop-color="#b7b7b7"/><stop offset="3%" stop-color="#9b9d9d"/><stop offset="7%" stop-color="#878b8b"/><stop offset="9%" stop-color="#808484"/><stop offset="20%" stop-color="#a3a6a6"/><stop offset="49%" stop-color="#f6f6f6"/><stop offset="61%" stop-color="#f3f3f3"/><stop offset="70%" stop-color="#eaeaea"/><stop offset="77%" stop-color="#dbdbdb"/><stop offset="83%" stop-color="#c5c5c5"/><stop offset="90%" stop-color="#aaa"/><stop offset="95%" stop-color="#888"/><stop offset="100%" stop-color="#666"/></linearGradient><linearGradient id="b" x1="49.776%" x2="49.776%" y1="0%" y2="100%"><stop offset="0%" stop-color="#808484"/><stop offset="5%" stop-color="#9c9f9f"/><stop offset="13%" stop-color="#bcbebe"/><stop offset="20%" stop-color="#d6d7d7"/><stop offset="28%" stop-color="#e8e8e8"/><stop offset="36%" stop-color="#f3f3f3"/><stop offset="46%" stop-color="#f6f6f6"/><stop offset="54%" stop-color="#dbdbdb"/><stop offset="65%" stop-color="#b7b7b7"/><stop offset="75%" stop-color="#a1a1a1"/><stop offset="81%" stop-color="#999"/><stop offset="86%" stop-color="#888"/><stop offset="95%" stop-color="#6f6f6f"/><stop offset="100%" stop-color="#666"/></linearGradient><linearGradient id="c" x1="50.224%" x2="50.224%" y1="0%" y2="100%"><stop offset="0%" stop-color="#808484"/><stop offset="5%" stop-color="#9c9f9f"/><stop offset="13%" stop-color="#bcbebe"/><stop offset="20%" stop-color="#d6d7d7"/><stop offset="28%" stop-color="#e8e8e8"/><stop offset="36%" stop-color="#f3f3f3"/><stop offset="46%" stop-color="#f6f6f6"/><stop offset="54%" stop-color="#dbdbdb"/><stop offset="65%" stop-color="#b7b7b7"/><stop offset="75%" stop-color="#a1a1a1"/><stop offset="81%" stop-color="#999"/><stop offset="86%" stop-color="#888"/><stop offset="95%" stop-color="#6f6f6f"/><stop offset="100%" stop-color="#666"/></linearGradient><linearGradient id="d" x1="50%" x2="50%" y1="0%" y2="100%"><stop offset="0%" stop-color="#808484"/><stop offset="5%" stop-color="#9c9f9f"/><stop offset="13%" stop-color="#bcbebe"/><stop offset="20%" stop-color="#d6d7d7"/><stop offset="28%" stop-color="#e8e8e8"/><stop offset="36%" stop-color="#f3f3f3"/><stop offset="46%" stop-color="#f6f6f6"/><stop offset="54%" stop-color="#dbdbdb"/><stop offset="65%" stop-color="#b7b7b7"/><stop offset="75%" stop-color="#a1a1a1"/><stop offset="81%" stop-color="#999"/><stop offset="86%" stop-color="#888"/><stop offset="95%" stop-color="#6f6f6f"/><stop offset="100%" stop-color="#666"/></linearGradient><linearGradient id="e" x1="49.664%" x2="49.664%" y1="100%" y2="0%"><stop offset="0%" stop-color="#b7b7b7"/><stop offset="3%" stop-color="#9b9d9d"/><stop offset="7%" stop-color="#878b8b"/><stop offset="9%" stop-color="#808484"/><stop offset="20%" stop-color="#a3a6a6"/><stop offset="49%" stop-color="#f6f6f6"/><stop offset="61%" stop-color="#f3f3f3"/><stop offset="70%" stop-color="#eaeaea"/><stop offset="77%" stop-color="#dbdbdb"/><stop offset="83%" stop-color="#c5c5c5"/><stop offset="90%" stop-color="#aaa"/><stop offset="95%" stop-color="#888"/><stop offset="100%" stop-color="#666"/></linearGradient><linearGradient id="f" x1="50%" x2="50%" y1="99.744%" y2="0%"><stop offset="0%" stop-color="#b7b7b7"/><stop offset="3%" stop-color="#9b9d9d"/><stop offset="7%" stop-color="#878b8b"/><stop offset="9%" stop-color="#808484"/><stop offset="20%" stop-color="#a3a6a6"/><stop offset="49%" stop-color="#f6f6f6"/><stop offset="61%" stop-color="#f3f3f3"/><stop offset="70%" stop-color="#eaeaea"/><stop offset="77%" stop-color="#dbdbdb"/><stop offset="83%" stop-color="#c5c5c5"/><stop offset="90%" stop-color="#aaa"/><stop offset="95%" stop-color="#888"/><stop offset="100%" stop-color="#666"/></linearGradient><linearGradient id="g" x1="49.882%" x2="49.882%" y1="100%" y2="0%"><stop offset="0%" stop-color="#b7b7b7"/><stop offset="3%" stop-color="#9b9d9d"/><stop offset="7%" stop-color="#878b8b"/><stop offset="9%" stop-color="#808484"/><stop offset="20%" stop-color="#a3a6a6"/><stop offset="49%" stop-color="#f6f6f6"/><stop offset="61%" stop-color="#f3f3f3"/><stop offset="70%" stop-color="#eaeaea"/><stop offset="77%" stop-color="#dbdbdb"/><stop offset="83%" stop-color="#c5c5c5"/><stop offset="90%" stop-color="#aaa"/><stop offset="95%" stop-color="#888"/><stop offset="100%" stop-color="#666"/></linearGradient><linearGradient id="h" x1="50%" x2="50%" y1="100%" y2="0%"><stop offset="0%" stop-color="#b7b7b7"/><stop offset="3%" stop-color="#9b9d9d"/><stop offset="7%" stop-color="#878b8b"/><stop offset="9%" stop-color="#808484"/><stop offset="20%" stop-color="#a3a6a6"/><stop offset="49%" stop-color="#f6f6f6"/><stop offset="61%" stop-color="#f3f3f3"/><stop offset="70%" stop-color="#eaeaea"/><stop offset="77%" stop-color="#dbdbdb"/><stop offset="83%" stop-color="#c5c5c5"/><stop offset="90%" stop-color="#aaa"/><stop offset="95%" stop-color="#888"/><stop offset="100%" stop-color="#666"/></linearGradient></defs><g fill="none" fill-rule="nonzero"><path fill="#b0b0b1" d="M141.64 0H150v117.28h-8.36zM0 55.45h141.64v60.98H0z"/><path fill="#cecece" d="M38.88 99.54h9.14v6.13h-9.14zM27.94 66.45h9.14v6.41h-9.14zm0 24.82h9.14v6.41h-9.14zm0-16.55h9.14v6.41h-9.14zM38.88 83h9.14v6.41h-9.14zm0-16.55h9.14v6.41h-9.14zm0 8.27h9.14v6.41h-9.14zm0 16.55h9.14v6.41h-9.14zm-10.94 8.27h9.14v6.13h-9.14zm0-16.54h9.14v6.41h-9.14zM17 91.27h9.14v6.41H17zM71.71 83h69.94v6.41H71.71zm0-8.28h69.94v6.41H71.71zm0-16.08h69.94v5.95H71.71zm0 7.81h69.94v6.41H71.71zM17 99.54h9.14v6.13H17zm54.71-8.27h69.94v6.41H71.71zM17 66.45h9.14v6.41H17zm43.76-7.81h9.14v5.95h-9.14zM17 74.72h9.14v6.41H17zM17 83h9.14v6.41H17zm43.76 0h9.14v6.41h-9.14zM5.52 74.72h9.67v6.41H5.52zm0-8.27h9.67v6.41H5.52zm0-7.81h9.67v5.95H5.52zm22.42 0h9.14v5.95h-9.14zm-10.94 0h9.14v5.95H17zm54.71 40.9h69.94v6.13H71.71zM49.82 83h9.14v6.41h-9.14zm-44.3 0h9.67v6.41H5.52zm0 16.54h9.67v6.13H5.52zm0-8.27h9.67v6.41H5.52zm33.36-32.63h9.14v5.95h-9.14zm10.94 40.9h9.14v6.13h-9.14zm0-24.82h9.14v6.41h-9.14zm0-8.27h9.14v6.41h-9.14zm0-7.81h9.14v5.95h-9.14zm0 32.63h9.14v6.41h-9.14zm10.94-24.82h9.14v6.41h-9.14zm0 33.09h9.14v6.13h-9.14zm0-8.27h9.14v6.41h-9.14zm0-16.55h9.14v6.41h-9.14zm8.5-68.98h63.24v3.54H69.26z"/><path fill="#b0b0b1" d="M73.73 52.41h54.82v3.05H73.73z"/><path fill="#cecece" d="M4.14 52.41h56.3v3.05H4.14z"/><path fill="#b0b0b1" d="M70.54 9.28h61.54v23.58H70.54zM5.52 30.06h53.43V52.4H5.52z"/><path fill="#cecece" d="M132.08 32.86H70.54l3.4 19.55h54.53zM6.8 10.73h4.5v19.33H6.8zm46.53 0h4.5v19.33h-4.5z"/><path fill="url(#a)" d="M39.62 30.06H13.69L12.78 28a17.87 17.87 0 0 1 1.38-16.9l25.46.23z"/><path fill="url(#b)" d="M38.46 10.65h2.23v19.87h-2.23z"/><path fill="url(#c)" d="M19.81 10.65h2.23v19.87h-2.23z"/><path fill="url(#d)" d="M44.94 13.82H46v13.53h-1.06z"/><path fill="url(#e)" d="M46 15.43h1.49v10.3H46z"/><path fill="url(#f)" d="M48.83 18.64h4.5v3.9h-4.5z"/><path fill="url(#g)" d="M44.94 26.91a10.3 10.3 0 0 1-4.25 2.6V11.65A9.94 9.94 0 0 1 44.94 14z"/><path fill="url(#h)" d="M48.83 22.55a3.2 3.2 0 0 1-1.34.8v-5.54c.502.13.963.384 1.34.74z"/></g></svg>