<svg xmlns="http://www.w3.org/2000/svg" viewBox="0 0 151 109"><title>Simple wire stripper（简易剥线钳）</title><defs><linearGradient id="a" x1="0%" x2="100%" y1="50%" y2="50%"><stop offset="0%" stop-color="#b7b7b7"/><stop offset="3%" stop-color="#9b9d9d"/><stop offset="7%" stop-color="#878b8b"/><stop offset="9%" stop-color="#808484"/><stop offset="20%" stop-color="#a3a6a6"/><stop offset="49%" stop-color="#f6f6f6"/><stop offset="61%" stop-color="#f3f3f3"/><stop offset="70%" stop-color="#eaeaea"/><stop offset="77%" stop-color="#dbdbdb"/><stop offset="83%" stop-color="#c5c5c5"/><stop offset="90%" stop-color="#aaa"/><stop offset="95%" stop-color="#888"/><stop offset="100%" stop-color="#666"/></linearGradient><linearGradient id="b" x1="0%" x2="100.166%" y1="50%" y2="50%"><stop offset="0%" stop-color="#b7b7b7"/><stop offset="3%" stop-color="#9b9d9d"/><stop offset="7%" stop-color="#878b8b"/><stop offset="9%" stop-color="#808484"/><stop offset="20%" stop-color="#a3a6a6"/><stop offset="49%" stop-color="#f6f6f6"/><stop offset="61%" stop-color="#f3f3f3"/><stop offset="70%" stop-color="#eaeaea"/><stop offset="77%" stop-color="#dbdbdb"/><stop offset="83%" stop-color="#c5c5c5"/><stop offset="90%" stop-color="#aaa"/><stop offset="95%" stop-color="#888"/><stop offset="100%" stop-color="#666"/></linearGradient><linearGradient id="c" x1="0%" x2="100%" y1="49.894%" y2="49.894%"><stop offset="0%" stop-color="#b7b7b7"/><stop offset="3%" stop-color="#9b9d9d"/><stop offset="7%" stop-color="#878b8b"/><stop offset="9%" stop-color="#808484"/><stop offset="20%" stop-color="#a3a6a6"/><stop offset="49%" stop-color="#f6f6f6"/><stop offset="61%" stop-color="#f3f3f3"/><stop offset="70%" stop-color="#eaeaea"/><stop offset="77%" stop-color="#dbdbdb"/><stop offset="83%" stop-color="#c5c5c5"/><stop offset="90%" stop-color="#aaa"/><stop offset="95%" stop-color="#888"/><stop offset="100%" stop-color="#666"/></linearGradient><linearGradient id="d" x1="0%" x2="100%" y1="50.091%" y2="50.091%"><stop offset="0%" stop-color="#b7b7b7"/><stop offset="3%" stop-color="#9b9d9d"/><stop offset="7%" stop-color="#878b8b"/><stop offset="9%" stop-color="#808484"/><stop offset="20%" stop-color="#a3a6a6"/><stop offset="49%" stop-color="#f6f6f6"/><stop offset="61%" stop-color="#f3f3f3"/><stop offset="70%" stop-color="#eaeaea"/><stop offset="77%" stop-color="#dbdbdb"/><stop offset="83%" stop-color="#c5c5c5"/><stop offset="90%" stop-color="#aaa"/><stop offset="95%" stop-color="#888"/><stop offset="100%" stop-color="#666"/></linearGradient><linearGradient id="e" x1="0%" x2="100%" y1="50%" y2="50%"><stop offset="0%" stop-color="#b7b7b7"/><stop offset="3%" stop-color="#9b9d9d"/><stop offset="7%" stop-color="#878b8b"/><stop offset="9%" stop-color="#808484"/><stop offset="20%" stop-color="#a3a6a6"/><stop offset="49%" stop-color="#f6f6f6"/><stop offset="61%" stop-color="#f3f3f3"/><stop offset="70%" stop-color="#eaeaea"/><stop offset="77%" stop-color="#dbdbdb"/><stop offset="83%" stop-color="#c5c5c5"/><stop offset="90%" stop-color="#aaa"/><stop offset="95%" stop-color="#888"/><stop offset="100%" stop-color="#666"/></linearGradient><linearGradient id="f" x1="0%" x2="99.693%" y1="49.894%" y2="49.894%"><stop offset="0%" stop-color="#b7b7b7"/><stop offset="3%" stop-color="#9b9d9d"/><stop offset="7%" stop-color="#878b8b"/><stop offset="9%" stop-color="#808484"/><stop offset="20%" stop-color="#a3a6a6"/><stop offset="49%" stop-color="#f6f6f6"/><stop offset="61%" stop-color="#f3f3f3"/><stop offset="70%" stop-color="#eaeaea"/><stop offset="77%" stop-color="#dbdbdb"/><stop offset="83%" stop-color="#c5c5c5"/><stop offset="90%" stop-color="#aaa"/><stop offset="95%" stop-color="#888"/><stop offset="100%" stop-color="#666"/></linearGradient></defs><g fill="none" fill-rule="nonzero"><path fill="#cecece" d="M3.1 43.44h26.89v60.81H3.1zM116.24 0h30.82v104.25h-30.82z"/><path fill="#cecece" d="M29.99 26.48h60.26v39.3H29.99z"/><path fill="#5b5b5b" d="M29.99 65.77h60.26v9.79H29.99z"/><path fill="#cecece" d="M29.99 75.57h60.26v14.82H29.99z" opacity=".66"/><path fill="#5b5b5b" d="M29.99 90.39h60.26v14.82H29.99z"/><path fill="#cecece" d="M90.25 42.93h25.99v61.32H90.25z"/><path fill="#f4f4f4" d="M120.1 34.23h23.79v41.78H120.1z"/><path fill="#b0b0b1" d="M120.1 5.58h23.79v25.03H120.1z"/><path fill="#5b5b5b" d="M0 95.94h150.17v8.3H0z"/><path fill="url(#a)" d="M78.94 12h11.31v2.24H78.94z"/><path fill="url(#b)" d="M81.7 24.46h6.02v2.02H81.7z"/><path fill="url(#c)" d="M82.97 14.24h3.26v4.71h-3.26z"/><path fill="url(#d)" d="M83.41 18.95h2.35v5.51h-2.35z"/><path fill="url(#a)" d="M29.99 12H41.3v2.24H29.99z"/><path fill="url(#e)" d="M32.75 24.46h6.02v2.02h-6.02z"/><path fill="url(#f)" d="M34.02 14.24h3.26v4.71h-3.26z"/><path fill="url(#d)" d="M34.46 18.95h2.35v5.51h-2.35z"/><path fill="#cecece" d="M0 104.25h150.17v4.1H0z" opacity=".66"/><path fill="#5b5b5b" d="M124.43 10.14h15.14v15.93h-15.14z"/><circle cx="132" cy="18.1" r="6.55" fill="#a2b4c6"/><path fill="#5b5b5b" d="M127.14 52.12h9.72v4.6h-9.72z"/><path fill="#a2b4c6" d="M127.14 58.43h9.72v4.6h-9.72z"/><path fill="#f4f4f4" d="M42.54 35.47H77.7v21.3H42.54z"/><path fill="#a2b4c6" d="M42.54 35.47H77.7v6.83H42.54z"/><path fill="#5b5b5b" d="M90.25 42.93h1v54.36h-1zm25.19 0h1v54.36h-1zm-86.28.56h1v54.36h-1z"/></g></svg>