<svg xmlns="http://www.w3.org/2000/svg" viewBox="0 0 125 150"><title>Simple extruder（简易挤出机）</title><defs><linearGradient id="a" x1="49.949%" x2="49.949%" y1="0%" y2="100%"><stop offset="0%" stop-color="#808484"/><stop offset="5%" stop-color="#9c9f9f"/><stop offset="13%" stop-color="#bcbebe"/><stop offset="20%" stop-color="#d6d7d7"/><stop offset="28%" stop-color="#e8e8e8"/><stop offset="36%" stop-color="#f3f3f3"/><stop offset="46%" stop-color="#f6f6f6"/><stop offset="54%" stop-color="#dbdbdb"/><stop offset="65%" stop-color="#b7b7b7"/><stop offset="75%" stop-color="#a1a1a1"/><stop offset="81%" stop-color="#999"/><stop offset="86%" stop-color="#888"/><stop offset="95%" stop-color="#6f6f6f"/><stop offset="100%" stop-color="#666"/></linearGradient></defs><g fill="none" fill-rule="nonzero"><path fill="#cecece" d="M13.98 137.6h88.92v10.1H13.98z"/><path fill="url(#a)" d="M95.33 44.35h9.81v30.13h-9.81z"/><path fill="#cecece" d="M21.79 73.3v75.33H11.05V73.3zM104.51 42.64h19.92v107.08h-19.92z"/><path fill="#cecece" d="M11.83 73.37h97.35v9.11H11.83z"/><path fill="#b0b0b1" d="M62.49 0h51.36v14.16H62.49zM94.32 39.38H81.93L62.78 14.16h51.36zM8.25 43.34H0V68.4h7v4.9h89.27V43.34z"/><path fill="#5b5b5b" d="M7.16 48.47h89.11v19.7H7.16zm73.68-9.09h14.49v3.96H80.84zm4.97-24.09h4.55v15.88h-4.55z"/></g></svg>