<svg xmlns="http://www.w3.org/2000/svg" viewBox="0 0 150 75"><title>Analog output flow sensor(模拟输出流量传感器)</title><defs><linearGradient id="a" x1="50%" x2="50%" y1="0%" y2="100%"><stop offset="0%" stop-color="#767b82"/><stop offset="7%" stop-color="#9ba1ab"/><stop offset="22%" stop-color="#e2eaf2"/><stop offset="94%" stop-color="#5d6166"/><stop offset="100%" stop-color="#a9b1bb"/></linearGradient><linearGradient id="b" x1="0%" x2="97.778%" y1="50.017%" y2="50.017%"><stop offset="0%" stop-color="#767b82"/><stop offset="7%" stop-color="#9ba1ab"/><stop offset="22%" stop-color="#e2eaf2"/><stop offset="94%" stop-color="#5d6166"/><stop offset="100%" stop-color="#a9b1bb"/></linearGradient><linearGradient id="c" x1="0%" x2="100%" y1="50.017%" y2="50.017%"><stop offset="0%" stop-color="#767b82"/><stop offset="7%" stop-color="#9ba1ab"/><stop offset="22%" stop-color="#e2eaf2"/><stop offset="94%" stop-color="#5d6166"/><stop offset="100%" stop-color="#a9b1bb"/></linearGradient><linearGradient id="d" x1="100.013%" x2="0%" y1="0%" y2="100%"><stop offset="0%" stop-color="#ebf0f5"/><stop offset="100%" stop-color="#b8c0cc"/></linearGradient><linearGradient id="e" x1="50%" x2="50%" y1="100%" y2="0%"><stop offset="0%" stop-color="#737880"/><stop offset="100%" stop-color="#d7dce0"/></linearGradient><linearGradient id="f" x1="50%" x2="50%" y1="101.915%" y2="-1.915%"><stop offset="0%" stop-color="#5c6066"/><stop offset="100%" stop-color="#f5faff"/></linearGradient><linearGradient id="g" x1="85.319%" x2="14.734%" y1="14.815%" y2="85.4%"><stop offset="0%" stop-color="#9ba1ab"/><stop offset="0%" stop-color="#abb1ba"/><stop offset="9%" stop-color="#abb1ba"/><stop offset="46%" stop-color="#f5faff"/><stop offset="100%" stop-color="#a9b1bb"/></linearGradient><linearGradient id="h" x1="19875.801%" x2="19875.801%" y1="-5965.658%" y2="-5865.836%"><stop offset="0%" stop-color="#9ba1ab"/><stop offset="0%" stop-color="#abb1ba"/><stop offset="9%" stop-color="#abb1ba"/><stop offset="46%" stop-color="#f5faff"/><stop offset="100%" stop-color="#a9b1bb"/></linearGradient><linearGradient id="i" x1="19538.612%" x2="19538.612%" y1="-6779.893%" y2="-6680.071%"><stop offset="0%" stop-color="#9ba1ab"/><stop offset="0%" stop-color="#abb1ba"/><stop offset="9%" stop-color="#abb1ba"/><stop offset="46%" stop-color="#f5faff"/><stop offset="100%" stop-color="#a9b1bb"/></linearGradient><linearGradient id="j" x1="20037.544%" x2="20037.544%" y1="-6721.174%" y2="-6621.352%"><stop offset="0%" stop-color="#9ba1ab"/><stop offset="0%" stop-color="#abb1ba"/><stop offset="9%" stop-color="#abb1ba"/><stop offset="46%" stop-color="#f5faff"/><stop offset="100%" stop-color="#a9b1bb"/></linearGradient><linearGradient id="k" x1="19374.911%" x2="19374.911%" y1="-6023.488%" y2="-5923.665%"><stop offset="0%" stop-color="#9ba1ab"/><stop offset="0%" stop-color="#abb1ba"/><stop offset="9%" stop-color="#abb1ba"/><stop offset="46%" stop-color="#f5faff"/><stop offset="100%" stop-color="#a9b1bb"/></linearGradient><linearGradient id="l" x1="19225.267%" x2="19225.267%" y1="-6384.875%" y2="-6285.053%"><stop offset="0%" stop-color="#9ba1ab"/><stop offset="0%" stop-color="#abb1ba"/><stop offset="9%" stop-color="#abb1ba"/><stop offset="46%" stop-color="#f5faff"/><stop offset="100%" stop-color="#a9b1bb"/></linearGradient></defs><g fill="none" fill-rule="nonzero"><path fill="url(#a)" d="M0 10.62h150v27.74H0z"/><rect width="1" height="29.31" x="2.01" y="9.83" fill="url(#b)" rx=".22"/><rect width="1" height="29.31" x="3.8" y="9.83" fill="url(#b)" rx=".22"/><rect width="1" height="29.31" x="5.59" y="9.83" fill="url(#b)" rx=".22"/><rect width="1" height="29.31" x="7.38" y="9.83" fill="url(#b)" rx=".22"/><rect width="1" height="29.31" x="32.32" y="9.83" fill="url(#c)" rx=".22"/><rect width="1" height="29.31" x="30.45" y="9.83" fill="url(#c)" rx=".22"/><rect width="1" height="29.31" x="34.11" y="9.83" fill="url(#c)" rx=".22"/><rect width="1" height="29.31" x="35.9" y="9.83" fill="url(#c)" rx=".22"/><rect width="1" height="29.31" x="113.37" y="9.83" fill="url(#c)" rx=".22"/><rect width="1" height="29.31" x="115.16" y="9.83" fill="url(#c)" rx=".22"/><rect width="1" height="29.31" x="116.95" y="9.83" fill="url(#c)" rx=".22"/><rect width="1" height="29.31" x="118.74" y="9.83" fill="url(#c)" rx=".22"/><rect width="1" height="29.31" x="143.68" y="9.83" fill="url(#c)" rx=".22"/><rect width="1" height="29.31" x="141.82" y="9.83" fill="url(#b)" rx=".22"/><rect width="1" height="29.31" x="145.47" y="9.83" fill="url(#c)" rx=".22"/><rect width="1" height="29.31" x="147.26" y="9.83" fill="url(#c)" rx=".22"/><path fill="url(#d)" d="M37.83 0h74.33v74.33H37.83z"/><rect width="50.64" height="50.64" x="49.68" y="11.85" fill="url(#e)" stroke="url(#f)" stroke-width="1.94" rx="25.32"/><circle cx="60.64" cy="69.36" r="2.81" fill="url(#g)" stroke="#505458" stroke-width=".3"/><path fill="#505458" d="m59.59 68 1.09 1.09L61.77 68l.23.23-1.09 1.08 1.09 1.1-.2.2-1.09-1.09-1.2 1.2-.23-.23 1.2-1.2-1.09-1.09z"/><circle cx="42.64" cy="37.17" r="2.81" fill="url(#h)" stroke="#505458" stroke-width=".3"/><path fill="#505458" d="m41.59 35.81 1.09 1.09 1.09-1.09.23.19-1.09 1.09L44 38.22l-.2.19-1.09-1.08-1.2 1.2-.23-.23 1.2-1.2-1.09-1.1z"/><circle cx="107.36" cy="37.17" r="2.81" fill="url(#i)" stroke="#505458" stroke-width=".3"/><path fill="#505458" d="m106.31 35.81 1.09 1.09 1.09-1.09.23.23-1.09 1.09 1.09 1.09-.19.19-1.09-1.08-1.2 1.2-.24-.23 1.2-1.2-1.1-1.1z"/><circle cx="89.36" cy="69.36" r="2.81" fill="url(#j)" stroke="#505458" stroke-width=".3"/><path fill="#505458" d="m88.31 68 1.09 1.09L90.49 68l.23.23-1.09 1.08 1.09 1.09-.19.2-1.09-1.09-1.2 1.2-.24-.22 1.2-1.2-1.1-1.09z"/><circle cx="60.64" cy="4.81" r="2.81" fill="url(#k)" stroke="#505458" stroke-width=".3"/><path fill="#505458" d="m59.59 3.45 1.09 1.09 1.09-1.09.23.23-1.09 1.09L62 5.86l-.2.19L60.71 5l-1.2 1.21-.23-.23 1.2-1.21-1.09-1.13z"/><circle cx="89.36" cy="4.81" r="2.81" fill="url(#l)" stroke="#505458" stroke-width=".3"/><path fill="#505458" d="m88.31 3.45 1.09 1.09 1.09-1.09.23.23-1.09 1.09 1.09 1.09-.19.19L89.44 5l-1.2 1.21-.24-.27 1.2-1.21-1.1-1.09z"/></g></svg>