<svg xmlns="http://www.w3.org/2000/svg" viewBox="0 0 116 150"><title>Cyclnoic flow meter(旋风流量计)</title><defs><linearGradient id="a" x1="0%" x2="100%" y1="50.026%" y2="50.026%"><stop offset="0%" stop-color="#a9b1bb"/><stop offset="6%" stop-color="#5d6166"/><stop offset="78%" stop-color="#e2eaf2"/><stop offset="93%" stop-color="#9ba1ab"/><stop offset="100%" stop-color="#767b82"/></linearGradient><linearGradient id="b" x1="50.011%" x2="50.011%" y1="101.613%" y2="0%"><stop offset="0%" stop-color="#a9b1bb"/><stop offset="6%" stop-color="#5d6166"/><stop offset="78%" stop-color="#eef6ff"/><stop offset="93%" stop-color="#9ba1ab"/><stop offset="100%" stop-color="#767b82"/></linearGradient><linearGradient id="c" x1="50.011%" x2="50.011%" y1="100%" y2="0%"><stop offset="0%" stop-color="#a9b1bb"/><stop offset="6%" stop-color="#5d6166"/><stop offset="78%" stop-color="#eef6ff"/><stop offset="93%" stop-color="#9ba1ab"/><stop offset="100%" stop-color="#767b82"/></linearGradient><linearGradient id="d" x1="50.004%" x2="50.004%" y1="100%" y2="0%"><stop offset="0%" stop-color="#a9b1bb"/><stop offset="6%" stop-color="#5d6166"/><stop offset="78%" stop-color="#e2eaf2"/><stop offset="93%" stop-color="#9ba1ab"/><stop offset="100%" stop-color="#767b82"/></linearGradient><linearGradient id="e" x1=".019%" x2="100%" y1="49.986%" y2="49.986%"><stop offset="0%" stop-color="#a9b1bb"/><stop offset="6%" stop-color="#5d6166"/><stop offset="78%" stop-color="#e2eaf2"/><stop offset="93%" stop-color="#9ba1ab"/><stop offset="100%" stop-color="#767b82"/></linearGradient><linearGradient id="f" x1="0%" x2="100.019%" y1="50.019%" y2="50.019%"><stop offset="0%" stop-color="#a9b1bb"/><stop offset="6%" stop-color="#5d6166"/><stop offset="78%" stop-color="#e2eaf2"/><stop offset="93%" stop-color="#9ba1ab"/><stop offset="100%" stop-color="#767b82"/></linearGradient><linearGradient id="g" x1="47.664%" x2="47.664%" y1="73.599%" y2="-26.325%"><stop offset="0%" stop-color="#767b82"/><stop offset="5%" stop-color="#9ba1ab"/><stop offset="16%" stop-color="#a7adb3"/><stop offset="89%" stop-color="#64686d"/><stop offset="96%" stop-color="#5d6166"/><stop offset="100%" stop-color="#a9b1bb"/></linearGradient><linearGradient id="h" x1="47.036%" x2="47.036%" y1="73.599%" y2="-26.325%"><stop offset="0%" stop-color="#767b82"/><stop offset="5%" stop-color="#9ba1ab"/><stop offset="16%" stop-color="#a7adb3"/><stop offset="89%" stop-color="#64686d"/><stop offset="96%" stop-color="#5d6166"/><stop offset="100%" stop-color="#a9b1bb"/></linearGradient><linearGradient id="i" x1="47.036%" x2="47.036%" y1="74.004%" y2="-25.92%"><stop offset="0%" stop-color="#767b82"/><stop offset="5%" stop-color="#9ba1ab"/><stop offset="16%" stop-color="#a7adb3"/><stop offset="89%" stop-color="#64686d"/><stop offset="96%" stop-color="#5d6166"/><stop offset="100%" stop-color="#a9b1bb"/></linearGradient><linearGradient id="j" x1="47.099%" x2="47.099%" y1="73.78%" y2="-26.144%"><stop offset="0%" stop-color="#767b82"/><stop offset="5%" stop-color="#9ba1ab"/><stop offset="16%" stop-color="#a7adb3"/><stop offset="89%" stop-color="#64686d"/><stop offset="96%" stop-color="#5d6166"/><stop offset="100%" stop-color="#a9b1bb"/></linearGradient><linearGradient id="k" x1="47.099%" x2="47.099%" y1="73.194%" y2="-26.729%"><stop offset="0%" stop-color="#767b82"/><stop offset="5%" stop-color="#9ba1ab"/><stop offset="16%" stop-color="#a7adb3"/><stop offset="89%" stop-color="#64686d"/><stop offset="96%" stop-color="#5d6166"/><stop offset="100%" stop-color="#a9b1bb"/></linearGradient><linearGradient id="l" x1="49.842%" x2="49.842%" y1="-2.856%" y2="103.147%"><stop offset="0%" stop-color="#b9c1cc"/><stop offset="100%" stop-color="#46494d"/></linearGradient><linearGradient id="m" x1="50%" x2="50%" y1="-2.027%" y2="102.027%"><stop offset="0%" stop-color="#b9c1cc"/><stop offset="100%" stop-color="#46494d"/></linearGradient><linearGradient id="n" x1="47.099%" x2="47.099%" y1="72.79%" y2="-27.134%"><stop offset="0%" stop-color="#767b82"/><stop offset="5%" stop-color="#9ba1ab"/><stop offset="16%" stop-color="#a7adb3"/><stop offset="89%" stop-color="#64686d"/><stop offset="96%" stop-color="#5d6166"/><stop offset="100%" stop-color="#a9b1bb"/></linearGradient><linearGradient id="o" x1="47.664%" x2="47.664%" y1="73.968%" y2="-25.956%"><stop offset="0%" stop-color="#5f6368"/><stop offset="5%" stop-color="#848992"/><stop offset="16%" stop-color="#8f959a"/><stop offset="89%" stop-color="#4d5054"/><stop offset="96%" stop-color="#46494d"/><stop offset="100%" stop-color="#7b8188"/></linearGradient><linearGradient id="p" x1="47.664%" x2="47.664%" y1="72.705%" y2="-27.218%"><stop offset="0%" stop-color="#767b82"/><stop offset="5%" stop-color="#9ba1ab"/><stop offset="16%" stop-color="#a7adb3"/><stop offset="89%" stop-color="#64686d"/><stop offset="96%" stop-color="#5d6166"/><stop offset="100%" stop-color="#a9b1bb"/></linearGradient><linearGradient id="q" x1="0%" x2="100%" y1="50.059%" y2="50.059%"><stop offset="0%" stop-color="#7a8088"/><stop offset="9%" stop-color="#2d2f33"/><stop offset="16%" stop-color="#35373b"/><stop offset="27%" stop-color="#4a4d51"/><stop offset="41%" stop-color="#6d7176"/><stop offset="56%" stop-color="#9da3a8"/><stop offset="62%" stop-color="#b0b7bc"/><stop offset="93%" stop-color="#6d7177"/><stop offset="100%" stop-color="#5c6067"/></linearGradient><linearGradient id="r" x1="50.063%" x2="50.063%" y1="100%" y2="0%"><stop offset="0%" stop-color="#a9b1bb"/><stop offset="6%" stop-color="#5d6166"/><stop offset="78%" stop-color="#e2eaf2"/><stop offset="93%" stop-color="#9ba1ab"/><stop offset="100%" stop-color="#767b82"/></linearGradient></defs><g fill="none" fill-rule="nonzero"><path fill="url(#a)" d="M35.26 104.54h45.43v19.41H35.26z"/><path fill="url(#b)" d="M35.26 106.12h45.43v1H35.26z"/><path fill="url(#b)" d="M35.26 108.16h45.43v1H35.26z"/><path fill="url(#c)" d="M35.26 110.21h45.43v1H35.26z"/><path fill="url(#c)" d="M35.26 112.25h45.43v1H35.26z"/><path fill="url(#c)" d="M35.26 114.29h45.43v1H35.26z"/><path fill="url(#b)" d="M35.26 116.33h45.43v1H35.26z"/><path fill="url(#b)" d="M35.26 118.37h45.43v1H35.26z"/><path fill="url(#c)" d="M35.26 120.42h45.43v1H35.26z"/><path fill="url(#c)" d="M35.26 122.46h45.43v1H35.26z"/><path fill="url(#d)" d="M0 0h115.95v52.72H0z"/><path fill="url(#e)" d="M31.61 110.52V52.91S39 40 58 40s26.34 12.91 26.34 12.91v57.61z"/><path fill="url(#f)" d="M31.61 123.95h52.72V150H31.61z"/><path fill="#000" d="M31.61 79.42h52.72v1H31.61z" opacity=".5"/><path fill="url(#g)" d="M46.86 136.39h22.23v4.99H46.86z" transform="rotate(-90 57.975 138.885)"/><path fill="url(#h)" d="M50.095 87.325h15.76v4.99h-15.76z" transform="rotate(-90 57.975 89.82)"/><path fill="url(#i)" d="M41.375 87.335h15.76v4.99h-15.76z" transform="rotate(-90 49.255 89.83)"/><path fill="url(#j)" d="M32.645 87.335h15.76v4.99h-15.76z" transform="rotate(-90 40.525 89.83)"/><path fill="url(#k)" d="M58.825 87.335h15.76v4.99h-15.76z" transform="rotate(-90 66.705 89.83)"/><path fill="#73787d" stroke="url(#l)" stroke-width=".58" d="M39 58.06h37.96v17.81H39z" transform="matrix(-1 0 0 -1 115.96 133.93)"/><path fill="#8d9399" stroke="url(#m)" stroke-width=".58" d="M43.79 18.33h28.38v14.31H43.79z" transform="matrix(-1 0 0 -1 115.96 50.97)"/><path fill="url(#n)" d="M67.555 87.335h15.76v4.99h-15.76z" transform="rotate(-90 75.435 89.83)"/><path fill="url(#o)" d="M26.64 136.39h22.23v4.99H26.64z" transform="rotate(-90 37.755 138.885)"/><path fill="url(#p)" d="M68.54 136.38h22.23v4.99H68.54z" transform="rotate(-90 79.655 138.875)"/><path fill="url(#q)" d="M31.61 99.67h58.97v8.49H31.61z"/><path fill="url(#r)" d="M90.58 98.69h7.99v10.02h-7.99z"/></g></svg>