<svg xmlns="http://www.w3.org/2000/svg" viewBox="0 0 116 150"><title>Flowmeter1(流量计1)</title><defs><linearGradient id="a" x1="0%" x2="100%" y1="50.004%" y2="50.004%"><stop offset="0%" stop-color="#a9b1bb"/><stop offset="6%" stop-color="#5d6166"/><stop offset="78%" stop-color="#e2eaf2"/><stop offset="93%" stop-color="#9ba1ab"/><stop offset="100%" stop-color="#767b82"/></linearGradient><linearGradient id="b" x1=".285%" x2="100.073%" y1="55.564%" y2="55.564%"><stop offset="0%" stop-color="#a9b1bb"/><stop offset="6%" stop-color="#5d6166"/><stop offset="78%" stop-color="#e2eaf2"/><stop offset="93%" stop-color="#9ba1ab"/><stop offset="100%" stop-color="#767b82"/></linearGradient><linearGradient id="c" x1=".149%" x2="99.922%" y1="51.232%" y2="51.232%"><stop offset="0%" stop-color="#a9b1bb"/><stop offset="6%" stop-color="#5d6166"/><stop offset="78%" stop-color="#e2eaf2"/><stop offset="93%" stop-color="#9ba1ab"/><stop offset="100%" stop-color="#767b82"/></linearGradient><linearGradient id="d" x1="50%" x2="50%" y1="99.874%" y2="0%"><stop offset="0%" stop-color="#5a5e66"/><stop offset="100%" stop-color="#919399"/></linearGradient><linearGradient id="e" x1="50.019%" x2="50.019%" y1="100.126%" y2=".126%"><stop offset="0%" stop-color="#919399"/><stop offset="100%" stop-color="#5a5e66"/></linearGradient><linearGradient id="f" x1="45.549%" x2="53.068%" y1="25.005%" y2="74.995%"><stop offset="0%" stop-color="#d9dde6"/><stop offset="100%" stop-color="#878d99"/></linearGradient><linearGradient id="g" x1="54.451%" x2="46.932%" y1="24.986%" y2="74.976%"><stop offset="0%" stop-color="#d9dde6"/><stop offset="100%" stop-color="#878d99"/></linearGradient><linearGradient id="h" x1="85.34%" x2="14.629%" y1="14.68%" y2="85.39%"><stop offset="0%" stop-color="#9ba1ab"/><stop offset="0%" stop-color="#abb1ba"/><stop offset="9%" stop-color="#abb1ba"/><stop offset="46%" stop-color="#f5faff"/><stop offset="100%" stop-color="#a9b1bb"/></linearGradient><linearGradient id="i" x1="17416.619%" x2="17416.619%" y1="-2825.788%" y2="-2725.788%"><stop offset="0%" stop-color="#9ba1ab"/><stop offset="0%" stop-color="#abb1ba"/><stop offset="9%" stop-color="#abb1ba"/><stop offset="46%" stop-color="#f5faff"/><stop offset="100%" stop-color="#a9b1bb"/></linearGradient><linearGradient id="j" x1="16023.925%" x2="16023.925%" y1="-3402.722%" y2="-3302.722%"><stop offset="0%" stop-color="#9ba1ab"/><stop offset="0%" stop-color="#abb1ba"/><stop offset="9%" stop-color="#abb1ba"/><stop offset="46%" stop-color="#f5faff"/><stop offset="100%" stop-color="#a9b1bb"/></linearGradient><linearGradient id="k" x1="17008.739%" x2="17008.739%" y1="-3810.602%" y2="-3710.602%"><stop offset="0%" stop-color="#9ba1ab"/><stop offset="0%" stop-color="#abb1ba"/><stop offset="9%" stop-color="#abb1ba"/><stop offset="46%" stop-color="#f5faff"/><stop offset="100%" stop-color="#a9b1bb"/></linearGradient><linearGradient id="l" x1="20.094%" x2="70.109%" y1="44.143%" y2="53.937%"><stop offset="0%" stop-color="#fff"/><stop offset="4%" stop-color="#fff" stop-opacity=".91"/><stop offset="15%" stop-color="#fff" stop-opacity=".7"/><stop offset="26%" stop-color="#fff" stop-opacity=".51"/><stop offset="37%" stop-color="#fff" stop-opacity=".35"/><stop offset="49%" stop-color="#fff" stop-opacity=".23"/><stop offset="60%" stop-color="#fff" stop-opacity=".13"/><stop offset="73%" stop-color="#fff" stop-opacity=".06"/><stop offset="85%" stop-color="#fff" stop-opacity=".01"/><stop offset="100%" stop-color="#fff" stop-opacity="0"/></linearGradient></defs><g fill="none" fill-rule="evenodd"><path fill="url(#a)" fill-rule="nonzero" d="M44.06 9.63h27.81v130.73H44.06z"/><path fill="url(#b)" fill-rule="nonzero" d="M91.06 150H25.23l-.18-9.63h65.83z"/><path fill="url(#c)" fill-rule="nonzero" d="M91.06 9.63H25.23L25.05 0h65.83z"/><path fill="#45484d" fill-rule="nonzero" d="M0 121.77V28.23c0-5.976 4.844-10.82 10.82-10.82h93.55c5.972.006 10.81 4.848 10.81 10.82v93.54c0 5.972-4.838 10.814-10.81 10.82H10.82C4.844 132.59 0 127.746 0 121.77"/><path fill="url(#d)" fill-rule="nonzero" d="M4.76 22.17a10.46 10.46 0 0 1 7.42-3.08H103a10.46 10.46 0 0 1 7.42 3.08L97.61 35h-80z"/><path fill="url(#e)" fill-rule="nonzero" d="M4.76 127.83 17.57 115h80l12.81 12.81a10.46 10.46 0 0 1-7.42 3.08H12.18a10.46 10.46 0 0 1-7.42-3.06"/><path fill="url(#f)" fill-rule="nonzero" d="M1.68 120.41V29.59a10.46 10.46 0 0 1 3.08-7.42L17.57 35v80L4.76 127.83a10.46 10.46 0 0 1-3.08-7.42"/><path fill="url(#g)" fill-rule="nonzero" d="M97.61 115V35l12.81-12.81a10.46 10.46 0 0 1 3.08 7.42v90.82a10.46 10.46 0 0 1-3.08 7.42z"/><rect width="91.27" height="91.27" x="11.95" y="29.36" fill="#c1c5cc" fill-rule="nonzero" rx="7.28" transform="matrix(-1 0 0 -1 115.17 149.99)"/><rect width="87" height="87" x="14.09" y="31.5" fill="#e8edf5" fill-rule="nonzero" rx="6.94" transform="matrix(-1 0 0 -1 115.18 150)"/><circle cx="9.63" cy="27.04" r="3.49" fill="url(#h)" fill-rule="nonzero" stroke="#505458" stroke-width=".37"/><path fill="#505458" fill-rule="nonzero" d="m8.32 25.35 1.36 1.36L11 25.35l.29.29L10 27l1.35 1.35-.24.25-1.39-1.36-1.49 1.49-.29-.29L9.44 27l-1.36-1.41z"/><circle cx="9.63" cy="124.25" r="3.49" fill="url(#i)" fill-rule="nonzero" stroke="#505458" stroke-width=".37"/><path fill="#505458" fill-rule="nonzero" d="m8.32 122.56 1.36 1.36 1.32-1.35.29.28-1.29 1.36 1.35 1.35-.24.24-1.36-1.35-1.49 1.49-.29-.28 1.5-1.5-1.39-1.36z"/><circle cx="106.84" cy="27.04" r="3.49" fill="url(#j)" fill-rule="nonzero" stroke="#505458" stroke-width=".37"/><path fill="#505458" fill-rule="nonzero" d="m105.54 25.35 1.36 1.36 1.35-1.36.29.29-1.36 1.36 1.35 1.35-.24.25-1.35-1.35-1.5 1.49-.28-.29 1.49-1.45-1.36-1.36z"/><circle cx="106.84" cy="124.25" r="3.49" fill="url(#k)" fill-rule="nonzero" stroke="#505458" stroke-width=".37"/><path fill="#505458" fill-rule="nonzero" d="m105.54 122.56 1.36 1.36 1.35-1.35.29.28-1.36 1.36 1.35 1.35-.24.24-1.35-1.35-1.5 1.49-.28-.28 1.49-1.5-1.36-1.36z"/><path fill="#45484d" fill-rule="nonzero" d="M83.6 83.18 18.68 67.6l66.16 9a3.37 3.37 0 1 1-.9 6.68z"/><path stroke="#45484d" stroke-linecap="round" stroke-width="2.24" d="M74.41 95c-10.471-.742-18.587-9.453-18.587-19.95S63.94 55.842 74.41 55.1"/><path fill="#a3b372" fill-rule="nonzero" d="M40.67 35.37h34.6v7.27h-34.6z"/><path fill="#646e46" fill-rule="nonzero" d="M75 35.68v6.66H41v-6.66zm.61-.61H40.36V43h35.21v-7.93z"/><path fill="url(#l)" fill-rule="nonzero" d="M0 6.66V0h33.99z" opacity=".8" transform="translate(40.97 35.68)"/><path stroke="#45484d" stroke-width=".28" d="m34.46 111.36-3.9-6.14a55.05 55.05 0 0 1-.18-58.78l4.08-6.51m-1.79 73.4 1.79-1.97M20.91 90.54l2.79-1.05m-2.46-29.31 2.55 1.09m8.34-23.55 2.33 2.21"/><path stroke="#45484d" stroke-dasharray=".11" stroke-width="1.12" d="M23.53 90.84C24.68 96.19 30.78 108 33.88 111"/><path stroke="#45484d" stroke-width="1.12" d="M23.05 61.27v.06"/><path stroke="#45484d" stroke-dasharray=".11" stroke-width="1.12" d="M22.74 62.43c-2.82 11-1.21 23.19.33 26.71m11.21-49.56s-8.4 10.75-10.92 21.51"/><path stroke="#45484d" stroke-dasharray=".22" stroke-width="5.61" d="M32.67 47.64s-18.15 26.1.89 57.82"/><path fill="#8f949a" fill-rule="nonzero" d="M19.24 29.37h76.7a7.29 7.29 0 0 1 7.29 7.28l-84 84a7.28 7.28 0 0 1-7.23-7.3v-76.7a7.28 7.28 0 0 1 7.24-7.28" opacity=".2"/></g></svg>