<svg xmlns="http://www.w3.org/2000/svg" viewBox="0 0 137 150"><title>Flowmeter2(流量计2)</title><defs><linearGradient id="a" x1="50.364%" x2="50.364%" y1="100.046%" y2=".046%"><stop offset="0%" stop-color="#a9b1bb"/><stop offset="6%" stop-color="#5d6166"/><stop offset="78%" stop-color="#e2eaf2"/><stop offset="93%" stop-color="#9ba1ab"/><stop offset="100%" stop-color="#767b82"/></linearGradient><linearGradient id="b" x1="0%" x2="100%" y1="50%" y2="50%"><stop offset="0%" stop-color="#a9b1bb"/><stop offset="6%" stop-color="#5d6166"/><stop offset="78%" stop-color="#e2eaf2"/><stop offset="93%" stop-color="#9ba1ab"/><stop offset="100%" stop-color="#767b82"/></linearGradient><linearGradient id="c" x1="0%" x2="100.059%" y1="49.989%" y2="49.989%"><stop offset="0%" stop-color="#a9b1bb"/><stop offset="6%" stop-color="#5d6166"/><stop offset="78%" stop-color="#e2eaf2"/><stop offset="93%" stop-color="#9ba1ab"/><stop offset="100%" stop-color="#767b82"/></linearGradient><linearGradient id="d" x1="-.071%" x2="99.929%" y1="50%" y2="50%"><stop offset="0%" stop-color="#a9b1bb"/><stop offset="6%" stop-color="#5d6166"/><stop offset="78%" stop-color="#e2eaf2"/><stop offset="93%" stop-color="#9ba1ab"/><stop offset="100%" stop-color="#767b82"/></linearGradient><linearGradient id="e" x1="0%" x2="100%" y1="50.066%" y2="50.066%"><stop offset="0%" stop-color="#a9b1bb"/><stop offset="6%" stop-color="#5d6166"/><stop offset="78%" stop-color="#e2eaf2"/><stop offset="93%" stop-color="#9ba1ab"/><stop offset="100%" stop-color="#767b82"/></linearGradient><linearGradient id="f" x1=".089%" x2="100.089%" y1="49.934%" y2="49.934%"><stop offset="0%" stop-color="#a9b1bb"/><stop offset="6%" stop-color="#5d6166"/><stop offset="78%" stop-color="#e2eaf2"/><stop offset="93%" stop-color="#9ba1ab"/><stop offset="100%" stop-color="#767b82"/></linearGradient><linearGradient id="g" x1="50%" x2="50%" y1="100%" y2="0%"><stop offset="0%" stop-color="#a9b1bb"/><stop offset="6%" stop-color="#5d6166"/><stop offset="78%" stop-color="#e2eaf2"/><stop offset="93%" stop-color="#9ba1ab"/><stop offset="100%" stop-color="#767b82"/></linearGradient><linearGradient id="h" x1="0%" x2="100%" y1="49.214%" y2="49.214%"><stop offset="0%" stop-color="#a9b1bb"/><stop offset="6%" stop-color="#5d6166"/><stop offset="78%" stop-color="#e2eaf2"/><stop offset="93%" stop-color="#9ba1ab"/><stop offset="100%" stop-color="#767b82"/></linearGradient><linearGradient id="i" x1="50%" x2="50%" y1="101.141%" y2="-1.16%"><stop offset="0%" stop-color="#5c6066"/><stop offset="100%" stop-color="#f5faff"/></linearGradient><linearGradient id="j" x1="0%" x2="100%" y1="50%" y2="50%"><stop offset="0%" stop-color="#767b82"/><stop offset="7%" stop-color="#9ba1ab"/><stop offset="22%" stop-color="#e2eaf2"/><stop offset="94%" stop-color="#5d6166"/><stop offset="100%" stop-color="#a9b1bb"/></linearGradient><linearGradient id="k" x1="0%" x2="100%" y1="50.087%" y2="50.087%"><stop offset="0%" stop-color="#767b82"/><stop offset="7%" stop-color="#9ba1ab"/><stop offset="22%" stop-color="#e2eaf2"/><stop offset="94%" stop-color="#5d6166"/><stop offset="100%" stop-color="#a9b1bb"/></linearGradient></defs><g fill="none" fill-rule="evenodd"><path fill="url(#a)" fill-rule="nonzero" d="M0 128.14h136.01V150H0z"/><path fill="url(#b)" fill-rule="nonzero" d="M61.19 8.82H74.8v86.42H61.19z"/><path fill="url(#c)" fill-rule="nonzero" d="M61.135 56.715h17.04v47.41h-17.04z" transform="rotate(-90 69.655 80.42)"/><path fill="url(#d)" fill-rule="nonzero" d="M91.605 75.165h13.99v10.48h-13.99z" transform="rotate(-90 98.6 80.405)"/><path fill="#000" fill-rule="nonzero" d="M91.605 75.165h13.99v10.48h-13.99z" opacity=".3" style="mix-blend-mode:overlay" transform="rotate(-90 98.6 80.405)"/><path fill="url(#e)" fill-rule="nonzero" d="M102.025 76.635h11.18v7.55h-11.18z" transform="rotate(-90 107.615 80.41)"/><path fill="#000" fill-rule="nonzero" d="M102.025 76.635h11.18v7.55h-11.18z" opacity=".6" style="mix-blend-mode:overlay" transform="rotate(-90 107.615 80.41)"/><path fill="url(#d)" fill-rule="nonzero" d="M33.715 75.165h13.99v10.48h-13.99z" transform="rotate(-90 40.71 80.405)"/><path fill="#000" fill-rule="nonzero" d="M33.715 75.165h13.99v10.48h-13.99z" opacity=".3" style="mix-blend-mode:overlay" transform="rotate(-90 40.71 80.405)"/><path fill="url(#f)" fill-rule="nonzero" d="M26.105 76.645h11.18v7.55h-11.18z" transform="rotate(-90 31.695 80.42)"/><path fill="#000" fill-rule="nonzero" d="M26.105 76.645h11.18v7.55h-11.18z" opacity=".6" style="mix-blend-mode:overlay" transform="rotate(-90 31.695 80.42)"/><path fill="url(#g)" fill-rule="nonzero" d="M64.175 84.845h7.64v28.43h-7.64z" transform="rotate(90 67.995 99.06)"/><path fill="url(#h)" fill-rule="nonzero" d="M57.07 128.14v-14.22h21.86v14.22s-1.57 6.07-10.94 6.07-10.92-6.07-10.92-6.07"/><path fill="#e8edf5" fill-rule="nonzero" stroke="url(#i)" stroke-width="1.21" d="M94.2 37.6c-1.034-12.756-11.104-22.914-23.85-24.06-.77-.07-1.56-.11-2.36-.11-.63 0-1.25 0-1.87.07-12.944.93-23.272 11.165-24.32 24.1-.06.7-.08 1.41-.08 2.12s0 1.41.08 2.1c1.039 12.94 11.371 23.183 24.32 24.11.62 0 1.24.07 1.87.07.8 0 1.59 0 2.36-.11 12.746-1.155 22.813-11.314 23.85-24.07.06-.69.08-1.39.08-2.1s-.02-1.42-.08-2.12Z"/><path stroke="#45484d" stroke-dasharray=".15" stroke-width="2.43" d="M84 56.59A23 23 0 0 0 91.1 37c-.07-.6-.17-1.21-.29-1.82s-.28-1.2-.45-1.79C87.242 22.668 76.856 15.748 65.76 17q-1.009.11-2 .32c-.55.11-1.08.24-1.6.38-10.917 3.05-17.967 13.619-16.59 24.87.07.61.17 1.21.29 1.82s.27 1.2.45 1.79a22.86 22.86 0 0 0 14.26 15.19"/><path stroke="#45484d" stroke-width=".3" d="M79.16 58a21.47 21.47 0 0 0 10.21-16.56c0-.57.07-1.14.07-1.72s0-1.16-.07-1.73c-.839-10.408-9.05-18.7-19.45-19.64-.63-.06-1.28-.08-1.92-.08s-1 0-1.53.05C55.9 19.073 47.468 27.437 46.63 38c-.05.57-.08 1.14-.08 1.73s0 1.15.08 1.72A21.38 21.38 0 0 0 56.84 58"/><path stroke="#45484d" stroke-dasharray=".12" stroke-width="1.24" d="M77.82 55.65a18.89 18.89 0 0 0 9-14.6c0-.51.07-1 .07-1.52s0-1-.07-1.52a18.87 18.87 0 0 0-17.13-17.28 16 16 0 0 0-1.69-.08h-1.35c-9.31.669-16.732 8.044-17.46 17.35a15 15 0 0 0-.07 1.52c0 .51 0 1 .07 1.52a18.83 18.83 0 0 0 9 14.6"/><path stroke="#45484d" stroke-width=".27" d="M78.08 56.11a19.38 19.38 0 0 0 9.23-15c0-.51.07-1 .07-1.56s0-1-.07-1.55c-.764-9.402-8.185-16.89-17.58-17.74-.57-.05-1.15-.07-1.73-.07h-1.38c-9.56.683-17.183 8.255-17.93 17.81 0 .51-.07 1-.07 1.55s0 1 .07 1.56a19.31 19.31 0 0 0 9.23 15"/><path fill="#cf4848" fill-rule="nonzero" d="M70.42 39.52a2.44 2.44 0 0 0-2.2-2.23h-.4a2.43 2.43 0 0 0-2.25 2.23v.39a2.44 2.44 0 0 0 2.25 2.23h.4a2.44 2.44 0 0 0 2.2-2.23 1.3 1.3 0 0 0 0-.2 1 1 0 0 0 0-.19"/><path fill="url(#j)" fill-rule="nonzero" d="M39.81 0h57.03v8.82H39.81z"/><path fill="#000" fill-rule="nonzero" d="M39.81 4.38h57.03v1H39.81z" opacity=".5"/><path fill="url(#k)" fill-rule="nonzero" d="M49.07 102.66h38.5v11.54h-38.5z"/><path fill="#000" fill-rule="nonzero" d="M49.07 108.39h38.5v1h-38.5z" opacity=".5"/><path fill="#cf4848" fill-rule="nonzero" d="M77.5 50.83 57.71 29.48l21.35 19.79a1.104 1.104 0 0 1-1.5 1.62z"/><path fill="#fff" fill-rule="nonzero" d="M91 28.34c-6.473-12.703-22.017-17.753-34.72-11.28S38.527 39.077 45 51.78c0 0 10.89 3.27 26.54-4.71S91 28.34 91 28.34" opacity=".3"/></g></svg>