<svg xmlns="http://www.w3.org/2000/svg" viewBox="0 0 98 150"><title>Flow totalizer(流量积算器)</title><defs><linearGradient id="a" x1="0%" x2="100%" y1="50%" y2="50%"><stop offset="0%" stop-color="#a9b1bb"/><stop offset="6%" stop-color="#5d6166"/><stop offset="78%" stop-color="#e2eaf2"/><stop offset="93%" stop-color="#9ba1ab"/><stop offset="100%" stop-color="#767b82"/></linearGradient><linearGradient id="b" x1="50%" x2="50%" y1="100%" y2="0%"><stop offset="0%" stop-color="#9ba1ab" stop-opacity="0"/><stop offset="100%" stop-color="#2e3033"/></linearGradient><linearGradient id="c" x1="50%" x2="50%" y1="100%" y2="0%"><stop offset="0%" stop-color="#9ba1ab" stop-opacity="0"/><stop offset="100%" stop-color="#2e3033"/></linearGradient><linearGradient id="d" x1="49.986%" x2="49.986%" y1="100%" y2="0%"><stop offset="0%" stop-color="#676b70"/><stop offset="2%" stop-color="#484b4d"/><stop offset="19%" stop-color="#747980"/><stop offset="20%" stop-color="#d1d5db"/><stop offset="79%" stop-color="#c7cfdb"/><stop offset="80%" stop-color="#edf5ff"/><stop offset="81%" stop-color="#c3c7cc"/><stop offset="100%" stop-color="#929599"/></linearGradient><linearGradient id="e" x1="100%" x2="0%" y1="50.019%" y2="50.019%"><stop offset="0%" stop-color="#9ba1ab" stop-opacity="0"/><stop offset="100%" stop-color="#2e3033"/></linearGradient><linearGradient id="f" x1="49.994%" x2="49.994%" y1="0%" y2="100%"><stop offset="0%" stop-color="#767b82"/><stop offset="7%" stop-color="#9ba1ab"/><stop offset="22%" stop-color="#e2eaf2"/><stop offset="94%" stop-color="#5d6166"/><stop offset="100%" stop-color="#a9b1bb"/></linearGradient><linearGradient id="g" x1="0%" x2="97.436%" y1="50%" y2="50%"><stop offset="0%" stop-color="#767b82"/><stop offset="7%" stop-color="#9ba1ab"/><stop offset="22%" stop-color="#e2eaf2"/><stop offset="94%" stop-color="#5d6166"/><stop offset="100%" stop-color="#a9b1bb"/></linearGradient><linearGradient id="h" x1="0%" x2="100%" y1="50%" y2="50%"><stop offset="0%" stop-color="#767b82"/><stop offset="7%" stop-color="#9ba1ab"/><stop offset="22%" stop-color="#e2eaf2"/><stop offset="94%" stop-color="#5d6166"/><stop offset="100%" stop-color="#a9b1bb"/></linearGradient><linearGradient id="i" x1="50%" x2="50%" y1="100%" y2="0%"><stop offset="0%" stop-color="#8a9099"/><stop offset="100%" stop-color="#a1a9b3"/></linearGradient><linearGradient id="j" x1="50%" x2="50%" y1="100%" y2="0%"><stop offset="0%" stop-color="#61676b" stop-opacity="0"/><stop offset="20%" stop-color="#62686d" stop-opacity=".01"/><stop offset="34%" stop-color="#676d72" stop-opacity=".05"/><stop offset="45%" stop-color="#6e757a" stop-opacity=".1"/><stop offset="56%" stop-color="#798087" stop-opacity=".19"/><stop offset="65%" stop-color="#878e97" stop-opacity=".3"/><stop offset="74%" stop-color="#98a0aa" stop-opacity=".43"/><stop offset="83%" stop-color="#acb4c2" stop-opacity=".59"/><stop offset="91%" stop-color="#c3cddd" stop-opacity=".77"/><stop offset="99%" stop-color="#dde7fb" stop-opacity=".97"/><stop offset="100%" stop-color="#e1ebff"/></linearGradient><linearGradient id="k" x1="49.993%" x2="49.993%" y1="103.076%" y2="-3.076%"><stop offset="0%" stop-color="#f1f5ff"/><stop offset="100%" stop-color="#5a5e66"/></linearGradient><linearGradient id="l" x1="14.47%" x2="64.47%" y1="35.046%" y2="56.096%"><stop offset="0%" stop-color="#fff"/><stop offset="4%" stop-color="#fff" stop-opacity=".91"/><stop offset="15%" stop-color="#fff" stop-opacity=".7"/><stop offset="26%" stop-color="#fff" stop-opacity=".51"/><stop offset="37%" stop-color="#fff" stop-opacity=".35"/><stop offset="49%" stop-color="#fff" stop-opacity=".23"/><stop offset="60%" stop-color="#fff" stop-opacity=".13"/><stop offset="73%" stop-color="#fff" stop-opacity=".06"/><stop offset="85%" stop-color="#fff" stop-opacity=".01"/><stop offset="100%" stop-color="#fff" stop-opacity="0"/></linearGradient><linearGradient id="m" x1="85.377%" x2="14.666%" y1="14.496%" y2="85.207%"><stop offset="0%" stop-color="#9ba1ab"/><stop offset="0%" stop-color="#abb1ba"/><stop offset="9%" stop-color="#abb1ba"/><stop offset="46%" stop-color="#f5faff"/><stop offset="100%" stop-color="#a9b1bb"/></linearGradient><linearGradient id="n" x1="14496.26%" x2="14496.26%" y1="-16349.803%" y2="-16249.803%"><stop offset="0%" stop-color="#9ba1ab"/><stop offset="0%" stop-color="#abb1ba"/><stop offset="9%" stop-color="#abb1ba"/><stop offset="46%" stop-color="#f5faff"/><stop offset="100%" stop-color="#a9b1bb"/></linearGradient><linearGradient id="o" x1="13175.591%" x2="13175.591%" y1="-17235.63%" y2="-17135.63%"><stop offset="0%" stop-color="#9ba1ab"/><stop offset="0%" stop-color="#abb1ba"/><stop offset="9%" stop-color="#abb1ba"/><stop offset="46%" stop-color="#f5faff"/><stop offset="100%" stop-color="#a9b1bb"/></linearGradient><linearGradient id="p" x1="13992.323%" x2="13992.323%" y1="-17566.535%" y2="-17466.732%"><stop offset="0%" stop-color="#9ba1ab"/><stop offset="0%" stop-color="#abb1ba"/><stop offset="9%" stop-color="#abb1ba"/><stop offset="46%" stop-color="#f5faff"/><stop offset="100%" stop-color="#a9b1bb"/></linearGradient><linearGradient id="q" x1="49.875%" x2="49.875%" y1="100%" y2="0%"><stop offset="0%" stop-color="#676b70"/><stop offset="2%" stop-color="#484b4d"/><stop offset="19%" stop-color="#747980"/><stop offset="20%" stop-color="#d1d5db"/><stop offset="79%" stop-color="#c7cfdb"/><stop offset="80%" stop-color="#edf5ff"/><stop offset="81%" stop-color="#c3c7cc"/><stop offset="100%" stop-color="#929599"/></linearGradient><linearGradient id="r" x1="43.109%" x2="43.109%" y1="100%" y2="0%"><stop offset="0%" stop-color="#d2d9e6"/><stop offset="0%" stop-color="#d2d9e6"/><stop offset="19%" stop-color="#cad1de"/><stop offset="49%" stop-color="#c7cfdb"/><stop offset="50%" stop-color="#edf5ff"/><stop offset="51%" stop-color="#c3c7cc"/><stop offset="94%" stop-color="#626366"/><stop offset="100%" stop-color="#929599"/></linearGradient></defs><g fill="none" fill-rule="nonzero"><path fill="url(#a)" d="M37.27 66.9h23.08v53.46H37.27z"/><path fill="url(#b)" d="M37.27 107.73h23.08v4.93H37.27z" opacity=".2"/><path fill="url(#c)" d="M37.27 68.16h23.08v3.61H37.27z" opacity=".2"/><path fill="url(#d)" d="M31.26 77.06h35.09v26.25H31.26z" transform="rotate(90 48.805 90.185)"/><path fill="url(#e)" d="M45.755 89.365h6.12v26.25h-6.12z" opacity=".2" transform="rotate(90 48.815 102.49)"/><path fill="url(#f)" d="M4.03 120.67H93.6v23.96H4.03z"/><rect width="1" height="25.32" x="81.79" y="119.99" fill="url(#g)" rx=".19"/><rect width="1" height="25.32" x="83.33" y="119.99" fill="url(#h)" rx=".19"/><rect width="1" height="25.32" x="84.88" y="119.99" fill="url(#h)" rx=".19"/><rect width="1" height="25.32" x="86.43" y="119.99" fill="url(#g)" rx=".19"/><rect width="1" height="25.32" x="87.97" y="119.99" fill="url(#h)" rx=".19"/><rect width="1" height="25.32" x="89.52" y="119.99" fill="url(#h)" rx=".19"/><rect width="1" height="25.32" x="91.07" y="119.99" fill="url(#g)" rx=".19"/><rect width="1" height="25.32" x="6.01" y="119.99" fill="url(#g)" rx=".19"/><rect width="1" height="25.32" x="7.55" y="119.99" fill="url(#h)" rx=".19"/><rect width="1" height="25.32" x="9.1" y="119.99" fill="url(#g)" rx=".19"/><rect width="1" height="25.32" x="10.64" y="119.99" fill="url(#h)" rx=".19"/><rect width="1" height="25.32" x="12.19" y="119.99" fill="url(#h)" rx=".19"/><rect width="1" height="25.32" x="13.74" y="119.99" fill="url(#g)" rx=".19"/><rect width="1" height="25.32" x="15.28" y="119.99" fill="url(#h)" rx=".19"/><path fill="url(#i)" d="M0 0h97.62v68.16H0z"/><path fill="url(#j)" d="M96.79.83v66.49H.83V.83h96m.79-.83H0v68.16h97.62z"/><path fill="#d9dee5" stroke="url(#k)" stroke-width="2.59" d="M12.95 12.95h71.73v42.26H12.95z"/><path fill="#a3b372" d="M22.18 21.45h53.26v23.21H22.18z"/><path fill="#646e46" d="M74.76 22.13V44h-51.9V22.13zm1.36-1.36H21.5v24.57h54.62z"/><path fill="url(#l)" d="M0 21.85V0h51.9z" opacity=".8" transform="translate(22.86 22.13)"/><circle cx="4.95" cy="5.05" r="2.54" fill="url(#m)" stroke="#505458" stroke-width=".27"/><path fill="#505458" d="m4 3.82 1 1 1-1 .18.18-1 1 1 1-.18.18-1-1-1.07 1.1-.21-.21L4.81 5l-1-1z"/><circle cx="4.5" cy="63.54" r="2.54" fill="url(#n)" stroke="#505458" stroke-width=".27"/><path fill="#505458" d="m3.55 62.31 1 1 1-1 .21.21-1 1 1 1-.18.17-1-1-1.1 1.08-.21-.21 1.09-1.09-1-1z"/><circle cx="92.36" cy="5.05" r="2.54" fill="url(#o)" stroke="#505458" stroke-width=".27"/><path fill="#505458" d="m91.41 3.82 1 1 1-1 .19.18-1 1 1 1-.17.18-1-1-1.08 1.1-.21-.21L92.23 5l-1-1z"/><circle cx="91.91" cy="63.54" r="2.54" fill="url(#p)" stroke="#505458" stroke-width=".27"/><path fill="#505458" d="m91 62.31 1 1 1-1 .2.21-1 1 1 1-.17.17-1-1-1.13 1.08-.21-.21 1.08-1.09-1-1z"/><path fill="url(#q)" d="M40.825 74.095h15.98v34.69h-15.98z" transform="rotate(90 48.815 91.44)"/><path fill="url(#r)" d="M31.51 115.31h34.62V150H31.51z" transform="matrix(-1 0 0 -1 97.64 265.31)"/></g></svg>