<svg xmlns="http://www.w3.org/2000/svg" viewBox="0 0 150 80"><title>Flow meter with cone(锥形流量计)</title><defs><linearGradient id="a" x1="50.057%" x2="50.057%" y1="0%" y2="100%"><stop offset="0%" stop-color="#767b82"/><stop offset="7%" stop-color="#9ba1ab"/><stop offset="22%" stop-color="#e2eaf2"/><stop offset="94%" stop-color="#5d6166"/><stop offset="100%" stop-color="#a9b1bb"/></linearGradient><linearGradient id="b" x1="50.082%" x2="50.082%" y1="0%" y2="100%"><stop offset="0%" stop-color="#767b82"/><stop offset="7%" stop-color="#9ba1ab"/><stop offset="22%" stop-color="#e2eaf2"/><stop offset="94%" stop-color="#5d6166"/><stop offset="100%" stop-color="#a9b1bb"/></linearGradient><linearGradient id="c" x1="50.057%" x2="50.057%" y1="100%" y2="0%"><stop offset="0%" stop-color="#767b82"/><stop offset="7%" stop-color="#9ba1ab"/><stop offset="22%" stop-color="#e2eaf2"/><stop offset="94%" stop-color="#5d6166"/><stop offset="100%" stop-color="#a9b1bb"/></linearGradient><linearGradient id="d" x1="50.082%" x2="50.082%" y1="100%" y2="0%"><stop offset="0%" stop-color="#767b82"/><stop offset="7%" stop-color="#9ba1ab"/><stop offset="22%" stop-color="#e2eaf2"/><stop offset="94%" stop-color="#5d6166"/><stop offset="100%" stop-color="#a9b1bb"/></linearGradient><linearGradient id="e" x1="49.996%" x2="49.996%" y1="0%" y2="100%"><stop offset="0%" stop-color="#767b82"/><stop offset="7%" stop-color="#9ba1ab"/><stop offset="22%" stop-color="#e2eaf2"/><stop offset="94%" stop-color="#5d6166"/><stop offset="100%" stop-color="#a9b1bb"/></linearGradient><linearGradient id="f" x1="50.004%" x2="50.004%" y1="0%" y2="99.973%"><stop offset="0%" stop-color="#2d2f33"/><stop offset="14%" stop-color="#35373b"/><stop offset="36%" stop-color="#4a4d51"/><stop offset="62%" stop-color="#6d7276"/><stop offset="69%" stop-color="#777c80"/><stop offset="100%" stop-color="#5c6067"/></linearGradient><linearGradient id="g" x1="50.097%" x2="50.097%" y1="0%" y2="100%"><stop offset="0%" stop-color="#767b82"/><stop offset="7%" stop-color="#9ba1ab"/><stop offset="22%" stop-color="#e2eaf2"/><stop offset="94%" stop-color="#5d6166"/><stop offset="100%" stop-color="#a9b1bb"/></linearGradient><linearGradient id="h" x1="100%" x2="0%" y1="50%" y2="50%"><stop offset="0%" stop-color="#5c6067"/><stop offset="7%" stop-color="#6d7177"/><stop offset="31%" stop-color="#b0b7bc"/><stop offset="37%" stop-color="#9da3a8"/><stop offset="55%" stop-color="#6d7176"/><stop offset="70%" stop-color="#4a4d51"/><stop offset="83%" stop-color="#35373b"/><stop offset="91%" stop-color="#2d2f33"/><stop offset="100%" stop-color="#7a8088"/></linearGradient><linearGradient id="i" x1="49.978%" x2="49.978%" y1="0%" y2="100.219%"><stop offset="0%" stop-color="#767b82"/><stop offset="7%" stop-color="#9ba1ab"/><stop offset="28%" stop-color="#e2eaf2"/><stop offset="94%" stop-color="#5d6166"/><stop offset="100%" stop-color="#a9b1bb"/></linearGradient><linearGradient id="j" x1="50.235%" x2="50.235%" y1=".219%" y2="100.219%"><stop offset="0%" stop-color="#a9b1bb"/><stop offset="6%" stop-color="#5d6166"/><stop offset="78%" stop-color="#e2eaf2"/><stop offset="93%" stop-color="#9ba1ab"/><stop offset="100%" stop-color="#767b82"/></linearGradient><linearGradient id="k" x1="166.27%" x2="166.27%" y1="-595.833%" y2="-129.167%"><stop offset="0%" stop-color="#5c6067"/><stop offset="7%" stop-color="#6d7177"/><stop offset="31%" stop-color="#b0b7bc"/><stop offset="37%" stop-color="#9da3a8"/><stop offset="55%" stop-color="#6d7176"/><stop offset="70%" stop-color="#4a4d51"/><stop offset="83%" stop-color="#35373b"/><stop offset="91%" stop-color="#2d2f33"/><stop offset="100%" stop-color="#7a8088"/></linearGradient><linearGradient id="l" x1="90.791%" x2="33.489%" y1="13.62%" y2="76.882%"><stop offset="0%" stop-color="#767b82"/><stop offset="7%" stop-color="#9ba1ab"/><stop offset="22%" stop-color="#e2eaf2"/><stop offset="94%" stop-color="#5d6166"/><stop offset="100%" stop-color="#a9b1bb"/></linearGradient><linearGradient id="m" x1="86.573%" x2="-3.607%" y1="15.788%" y2="54.631%"><stop offset="0%" stop-color="#767b82"/><stop offset="7%" stop-color="#9ba1ab"/><stop offset="22%" stop-color="#e2eaf2"/><stop offset="94%" stop-color="#5d6166"/><stop offset="100%" stop-color="#a9b1bb"/></linearGradient><linearGradient id="n" x1="68.332%" x2="48.975%" y1="9.126%" y2="100%"><stop offset="0%" stop-color="#767b82"/><stop offset="7%" stop-color="#9ba1ab"/><stop offset="22%" stop-color="#e2eaf2"/><stop offset="94%" stop-color="#5d6166"/><stop offset="100%" stop-color="#a9b1bb"/></linearGradient><linearGradient id="o" x1="50%" x2="50%" y1="100%" y2="0%"><stop offset="0%" stop-color="#767b82"/><stop offset="7%" stop-color="#9ba1ab"/><stop offset="50%" stop-color="#e2eaf2"/><stop offset="94%" stop-color="#5d6166"/><stop offset="100%" stop-color="#a9b1bb"/></linearGradient><linearGradient id="p" x1="50%" x2="50%" y1="100%" y2="0%"><stop offset="0%" stop-color="#767b82"/><stop offset="7%" stop-color="#9ba1ab"/><stop offset="50%" stop-color="#e2eaf2"/><stop offset="94%" stop-color="#5d6166"/><stop offset="100%" stop-color="#a9b1bb"/></linearGradient><linearGradient id="q" x1="0%" x2="99.875%" y1="50%" y2="50%"><stop offset="0%" stop-color="#2e3033"/><stop offset="100%" stop-color="#9ba1ab" stop-opacity="0"/></linearGradient></defs><g fill="none" fill-rule="nonzero"><path fill="url(#a)" d="M0 0h8.83v79.05H0z"/><path fill="url(#b)" d="M8.83 13.25h6.09V65.8H8.83z"/><path fill="url(#c)" d="M141.17 0H150v79.05h-8.83z" transform="matrix(-1 0 0 -1 291.17 79.05)"/><path fill="url(#d)" d="M135.08 13.25h6.09V65.8h-6.09z" transform="matrix(-1 0 0 -1 276.25 79.05)"/><path fill="url(#e)" d="M14.93 17.15h120.15V61.9H14.93z"/><path fill="url(#f)" d="M19.19 20.3H130.8v36.77H19.19z"/><path fill="url(#g)" d="M40.265 10.825h5.15v4.56h-5.15z" transform="rotate(90 42.84 13.105)"/><path fill="url(#h)" d="m39.48 17.15 1.07-1.44h4.57l1.08 1.44z"/><path fill="url(#i)" d="M42.845 19.655h22.81v4.56h-22.81z" transform="rotate(90 54.25 21.935)"/><path fill="url(#j)" d="M58.9 35.81h4.26v4.56H58.9z" transform="matrix(-1 0 0 -1 122.06 76.18)"/><path fill="url(#k)" d="m50.88 17.15 1.08-1.44h4.57l1.08 1.44z"/><path fill="url(#l)" d="m56.95 34.27.76.95-1.83 4.63-3.21-2.79z"/><path fill="url(#m)" d="m52.67 37.06-.71-3.72h4.57l.42.93z"/><path fill="url(#n)" d="m55.88 39.85 3.02.52V35.8l-1.19-.58z"/><path fill="url(#o)" d="M98.61 55.88 63.09 40.37V35.8l35.52-15.5z"/><path fill="url(#p)" d="m98.61 55.88 8.02-15.51V35.8l-8.02-15.5z"/><path fill="url(#q)" d="m98.61 55.88 8.02-15.51V35.8l-8.02-15.5z" opacity=".4"/></g></svg>