<svg xmlns="http://www.w3.org/2000/svg" viewBox="0 0 150 60"><title>Flow element(流量元件)</title><defs><linearGradient id="a" x1="50%" x2="50%" y1="98.676%" y2="-1.184%"><stop offset="0%" stop-color="#a9b1bb"/><stop offset="6%" stop-color="#5d6166"/><stop offset="78%" stop-color="#e2eaf2"/><stop offset="93%" stop-color="#9ba1ab"/><stop offset="100%" stop-color="#767b82"/></linearGradient><linearGradient id="b" x1="49.958%" x2="49.958%" y1="-620.946%" y2="-584.36%"><stop offset="0%" stop-color="#a9b1bb"/><stop offset="6%" stop-color="#5d6166"/><stop offset="78%" stop-color="#e2eaf2"/><stop offset="93%" stop-color="#9ba1ab"/><stop offset="100%" stop-color="#767b82"/></linearGradient><linearGradient id="c" x1="50.042%" x2="50.042%" y1="-620.946%" y2="-584.36%"><stop offset="0%" stop-color="#a9b1bb"/><stop offset="6%" stop-color="#5d6166"/><stop offset="78%" stop-color="#e2eaf2"/><stop offset="93%" stop-color="#9ba1ab"/><stop offset="100%" stop-color="#767b82"/></linearGradient><linearGradient id="d" x1="0%" x2="100%" y1="48.746%" y2="48.746%"><stop offset="0%" stop-color="#2e3033"/><stop offset="100%" stop-color="#9ba1ab" stop-opacity="0"/></linearGradient><linearGradient id="e" x1="0%" x2="100%" y1="48.746%" y2="48.746%"><stop offset="0%" stop-color="#9ba1ab" stop-opacity="0"/><stop offset="100%" stop-color="#2e3033"/></linearGradient><linearGradient id="f" x1="50.76%" x2="49.525%" y1="-447.481%" y2="-412.17%"><stop offset="0%" stop-color="#a9b1bb"/><stop offset="6%" stop-color="#5d6166"/><stop offset="78%" stop-color="#e2eaf2"/><stop offset="93%" stop-color="#9ba1ab"/><stop offset="100%" stop-color="#767b82"/></linearGradient><linearGradient id="g" x1="49.238%" x2="50.474%" y1="-447.481%" y2="-412.17%"><stop offset="0%" stop-color="#a9b1bb"/><stop offset="6%" stop-color="#5d6166"/><stop offset="78%" stop-color="#e2eaf2"/><stop offset="93%" stop-color="#9ba1ab"/><stop offset="100%" stop-color="#767b82"/></linearGradient></defs><g fill="none" fill-rule="nonzero"><path fill="url(#a)" d="M22.87 0h104.26v59.16H22.87z"/><path fill="url(#b)" d="M137.97 7.91H150v43.35h-12.03z"/><path fill="#000" d="M143.8 7.91h1v43.35h-1z" opacity=".5"/><path fill="url(#c)" d="M0 7.91h12.03v43.35H0z"/><path fill="#000" d="M5.83 7.91h1v43.35h-1z" opacity=".5"/><path fill="url(#d)" d="M22.87 0h25.85v59.16H22.87z" opacity=".2"/><path fill="url(#e)" d="M101.28 0h25.85v59.16h-25.85z" opacity=".2"/><path fill="url(#f)" d="M22.87 0 12.04 8.01v43.14l10.83 8.01z"/><path fill="url(#g)" d="M137.97 8.01 127.13 0v59.16l10.84-8.01z"/></g></svg>