<svg xmlns="http://www.w3.org/2000/svg" viewBox="0 0 93 150"><title>Magnetic flowmeter 2(磁力流量计2)</title><defs><linearGradient id="a" x1="50.007%" x2="50.007%" y1="0%" y2="99.975%"><stop offset="0%" stop-color="#767b82"/><stop offset="7%" stop-color="#9ba1ab"/><stop offset="22%" stop-color="#e2eaf2"/><stop offset="94%" stop-color="#5d6166"/><stop offset="100%" stop-color="#a9b1bb"/></linearGradient><linearGradient id="b" x1="50%" x2="50%" y1="0%" y2="100%"><stop offset="0%" stop-color="#767b82"/><stop offset="7%" stop-color="#9ba1ab"/><stop offset="22%" stop-color="#e2eaf2"/><stop offset="94%" stop-color="#5d6166"/><stop offset="100%" stop-color="#a9b1bb"/></linearGradient><linearGradient id="c" x1="0%" x2="99.961%" y1="50.457%" y2="50.457%"><stop offset="0%" stop-color="#767b82"/><stop offset="8%" stop-color="#b9c0cc"/><stop offset="91%" stop-color="#b9c0cc"/><stop offset="96%" stop-color="#d7dce0"/><stop offset="98%" stop-color="#767b82"/></linearGradient><linearGradient id="d" x1="0%" x2="100.025%" y1="178.141%" y2="178.141%"><stop offset="0%" stop-color="#767b82"/><stop offset="8%" stop-color="#b9c0cc"/><stop offset="91%" stop-color="#b9c0cc"/><stop offset="96%" stop-color="#d7dce0"/><stop offset="98%" stop-color="#767b82"/></linearGradient><linearGradient id="e" x1="49.989%" x2="49.989%" y1="100%" y2="0%"><stop offset="0%" stop-color="#8a9099"/><stop offset="100%" stop-color="#a1a9b3"/></linearGradient><linearGradient id="f" x1="49.989%" x2="49.989%" y1="100.428%" y2="-.428%"><stop offset="0%" stop-color="#61676b" stop-opacity="0"/><stop offset="20%" stop-color="#62686d" stop-opacity=".01"/><stop offset="34%" stop-color="#676d72" stop-opacity=".05"/><stop offset="45%" stop-color="#6e757a" stop-opacity=".1"/><stop offset="56%" stop-color="#798087" stop-opacity=".19"/><stop offset="65%" stop-color="#878e97" stop-opacity=".3"/><stop offset="74%" stop-color="#98a0aa" stop-opacity=".43"/><stop offset="83%" stop-color="#acb4c2" stop-opacity=".59"/><stop offset="91%" stop-color="#c3cddd" stop-opacity=".77"/><stop offset="99%" stop-color="#dde7fb" stop-opacity=".97"/><stop offset="100%" stop-color="#e1ebff"/></linearGradient><linearGradient id="g" x1="50%" x2="50%" y1="101.834%" y2="-1.804%"><stop offset="0%" stop-color="#f1f5ff"/><stop offset="100%" stop-color="#5a5e66"/></linearGradient><linearGradient id="h" x1="0%" x2="100%" y1="49.893%" y2="49.893%"><stop offset="0%" stop-color="#7a8088"/><stop offset="9%" stop-color="#2d2f33"/><stop offset="16%" stop-color="#35373b"/><stop offset="27%" stop-color="#4a4d51"/><stop offset="41%" stop-color="#6d7176"/><stop offset="56%" stop-color="#9da3a8"/><stop offset="62%" stop-color="#b0b7bc"/><stop offset="93%" stop-color="#6d7177"/><stop offset="100%" stop-color="#5c6067"/></linearGradient><linearGradient id="i" x1="-.667%" x2="99.333%" y1="50.23%" y2="50.23%"><stop offset="0%" stop-color="#7a8088"/><stop offset="9%" stop-color="#2d2f33"/><stop offset="16%" stop-color="#35373b"/><stop offset="27%" stop-color="#4a4d51"/><stop offset="41%" stop-color="#6d7176"/><stop offset="56%" stop-color="#9da3a8"/><stop offset="62%" stop-color="#b0b7bc"/><stop offset="93%" stop-color="#6d7177"/><stop offset="100%" stop-color="#5c6067"/></linearGradient><linearGradient id="j" x1="50.119%" x2="50.119%" y1="99.838%" y2="0%"><stop offset="0%" stop-color="#676b70"/><stop offset="5%" stop-color="#484b4d"/><stop offset="26%" stop-color="#747980"/><stop offset="30%" stop-color="#d1d5db"/><stop offset="44%" stop-color="#cad1db"/><stop offset="70%" stop-color="#c7cfdb"/><stop offset="73%" stop-color="#edf5ff"/><stop offset="77%" stop-color="#c3c7cc"/><stop offset="100%" stop-color="#929599"/></linearGradient><linearGradient id="k" x1="0%" x2="100%" y1="49.451%" y2="49.451%"><stop offset="0%" stop-color="#676b70"/><stop offset="5%" stop-color="#484b4d"/><stop offset="26%" stop-color="#747980"/><stop offset="30%" stop-color="#d1d5db"/><stop offset="44%" stop-color="#cad1db"/><stop offset="70%" stop-color="#c7cfdb"/><stop offset="73%" stop-color="#edf5ff"/><stop offset="77%" stop-color="#c3c7cc"/><stop offset="100%" stop-color="#929599"/></linearGradient><linearGradient id="l" x1="-.203%" x2="99.797%" y1="49.893%" y2="49.893%"><stop offset="0%" stop-color="#7a8088"/><stop offset="9%" stop-color="#2d2f33"/><stop offset="16%" stop-color="#35373b"/><stop offset="27%" stop-color="#4a4d51"/><stop offset="41%" stop-color="#6d7176"/><stop offset="56%" stop-color="#9da3a8"/><stop offset="62%" stop-color="#b0b7bc"/><stop offset="93%" stop-color="#6d7177"/><stop offset="100%" stop-color="#5c6067"/></linearGradient><linearGradient id="m" x1="-.667%" x2="99.333%" y1="49.77%" y2="49.77%"><stop offset="0%" stop-color="#7a8088"/><stop offset="9%" stop-color="#2d2f33"/><stop offset="16%" stop-color="#35373b"/><stop offset="27%" stop-color="#4a4d51"/><stop offset="41%" stop-color="#6d7176"/><stop offset="56%" stop-color="#9da3a8"/><stop offset="62%" stop-color="#b0b7bc"/><stop offset="93%" stop-color="#6d7177"/><stop offset="100%" stop-color="#5c6067"/></linearGradient><linearGradient id="n" x1="-7121.241%" x2="-7121.241%" y1="-5358.9%" y2="-5458.9%"><stop offset="0%" stop-color="#676b70"/><stop offset="5%" stop-color="#484b4d"/><stop offset="26%" stop-color="#747980"/><stop offset="30%" stop-color="#d1d5db"/><stop offset="44%" stop-color="#cad1db"/><stop offset="70%" stop-color="#c7cfdb"/><stop offset="73%" stop-color="#edf5ff"/><stop offset="77%" stop-color="#c3c7cc"/><stop offset="100%" stop-color="#929599"/></linearGradient><linearGradient id="o" x1="0%" x2="100%" y1="50%" y2="50%"><stop offset="0%" stop-color="#676b70"/><stop offset="5%" stop-color="#484b4d"/><stop offset="26%" stop-color="#747980"/><stop offset="30%" stop-color="#d1d5db"/><stop offset="44%" stop-color="#cad1db"/><stop offset="70%" stop-color="#c7cfdb"/><stop offset="73%" stop-color="#edf5ff"/><stop offset="77%" stop-color="#c3c7cc"/><stop offset="100%" stop-color="#929599"/></linearGradient><linearGradient id="p" x1="0%" x2="99.797%" y1="49.893%" y2="49.893%"><stop offset="0%" stop-color="#7a8088"/><stop offset="9%" stop-color="#2d2f33"/><stop offset="16%" stop-color="#35373b"/><stop offset="27%" stop-color="#4a4d51"/><stop offset="41%" stop-color="#6d7176"/><stop offset="56%" stop-color="#9da3a8"/><stop offset="62%" stop-color="#b0b7bc"/><stop offset="93%" stop-color="#6d7177"/><stop offset="100%" stop-color="#5c6067"/></linearGradient><linearGradient id="q" x1="0%" x2="99.333%" y1="49.77%" y2="49.77%"><stop offset="0%" stop-color="#7a8088"/><stop offset="9%" stop-color="#2d2f33"/><stop offset="16%" stop-color="#35373b"/><stop offset="27%" stop-color="#4a4d51"/><stop offset="41%" stop-color="#6d7176"/><stop offset="56%" stop-color="#9da3a8"/><stop offset="62%" stop-color="#b0b7bc"/><stop offset="93%" stop-color="#6d7177"/><stop offset="100%" stop-color="#5c6067"/></linearGradient><linearGradient id="r" x1="-7121.241%" x2="-7121.241%" y1="-5358.738%" y2="-5458.738%"><stop offset="0%" stop-color="#676b70"/><stop offset="5%" stop-color="#484b4d"/><stop offset="26%" stop-color="#747980"/><stop offset="30%" stop-color="#d1d5db"/><stop offset="44%" stop-color="#cad1db"/><stop offset="70%" stop-color="#c7cfdb"/><stop offset="73%" stop-color="#edf5ff"/><stop offset="77%" stop-color="#c3c7cc"/><stop offset="100%" stop-color="#929599"/></linearGradient><linearGradient id="s" x1="0%" x2="99.838%" y1="50%" y2="50%"><stop offset="0%" stop-color="#676b70"/><stop offset="5%" stop-color="#484b4d"/><stop offset="26%" stop-color="#747980"/><stop offset="30%" stop-color="#d1d5db"/><stop offset="44%" stop-color="#cad1db"/><stop offset="70%" stop-color="#c7cfdb"/><stop offset="73%" stop-color="#edf5ff"/><stop offset="77%" stop-color="#c3c7cc"/><stop offset="100%" stop-color="#929599"/></linearGradient><linearGradient id="t" x1=".667%" x2="100%" y1="50%" y2="50%"><stop offset="0%" stop-color="#a9b1bb"/><stop offset="6%" stop-color="#5d6166"/><stop offset="78%" stop-color="#e2eaf2"/><stop offset="93%" stop-color="#9ba1ab"/><stop offset="100%" stop-color="#767b82"/></linearGradient><linearGradient id="u" x1="-2752%" x2="-2652.667%" y1="3473.333%" y2="3473.333%"><stop offset="0%" stop-color="#a9b1bb"/><stop offset="6%" stop-color="#5d6166"/><stop offset="78%" stop-color="#e2eaf2"/><stop offset="93%" stop-color="#9ba1ab"/><stop offset="100%" stop-color="#767b82"/></linearGradient></defs><g fill="none" fill-rule="nonzero"><path fill="url(#a)" d="M10.42 96.98h71.71v39.94H10.42z"/><path fill="url(#b)" d="M81.37 83.89h10.76V150H81.37z"/><path fill="url(#b)" d="M0 83.89h10.76V150H0z"/><path fill="url(#c)" d="M32.74 53.79h25.82v43.19H32.74z"/><path fill="url(#d)" d="M25.71 53.79h39.86v9.79H25.71z"/><path fill="#45484d" d="M76.64 60.93c-1 1-61.15.12-61.15.12l8.74-8.74H68z"/><path fill="#b8c0cc" d="m76.41.13-8.39 8.39H24.23L15.71 0z"/><path fill="#737880" d="m76.64 60.93-8.62-8.62V8.52L76.41.13zm-61.15 0 8.62-8.62V8.52L15.72.13z"/><path fill="url(#e)" stroke="url(#f)" stroke-width=".4" d="M22.74 7.03h46.77V53.8H22.74z"/><path fill="#d9dee5" stroke="url(#g)" stroke-width="1.24" d="M28.94 13.23H63.3v34.36H28.94z"/><path fill="#a3b372" d="M33.37 17.31h25.51v11.12H33.37z"/><path fill="#646e46" d="M58.55 17.63V28.1H33.69V17.63zm.66-.65H33v11.77h26.21z"/><path fill="url(#h)" d="M10.295 20.435h4.92v4.67h-4.92z" transform="rotate(-90 12.755 22.77)"/><path fill="url(#i)" d="M6.495 21.685h1.5v2.17h-1.5z" transform="rotate(-90 7.245 22.77)"/><path fill="url(#j)" d="M8.33 19.69h4.19v6.18H8.33z"/><path fill="url(#k)" d="M11.71 21.87h6.18v1.82h-6.18z" transform="rotate(-90 14.8 22.78)"/><path fill="url(#l)" d="M10.295 29.015h4.92v4.67h-4.92z" transform="rotate(-90 12.755 31.35)"/><path fill="url(#m)" d="M6.495 30.265h1.5v2.17h-1.5z" transform="rotate(-90 7.245 31.35)"/><path fill="url(#n)" d="M8.33 28.27h4.19v6.18H8.33z"/><path fill="url(#o)" d="M11.7 30.44h6.18v1.82H11.7z" transform="rotate(-90 14.79 31.35)"/><path fill="url(#p)" d="M10.295 37.595h4.92v4.67h-4.92z" transform="rotate(-90 12.755 39.93)"/><path fill="url(#q)" d="M6.495 38.845h1.5v2.17h-1.5z" transform="rotate(-90 7.245 39.93)"/><path fill="url(#r)" d="M8.33 36.84h4.19v6.18H8.33z"/><path fill="url(#s)" d="M11.71 39.02h6.18v1.82h-6.18z" transform="rotate(-90 14.8 39.93)"/><path fill="url(#t)" d="M28.19 63.59h1.5v1.5h-1.5z"/><path fill="url(#u)" d="M62.56 63.59h1.5v1.5h-1.5z"/></g></svg>