<svg xmlns="http://www.w3.org/2000/svg" viewBox="0 0 89 150"><title>Magnetic flowmeter 1(磁力流量计1)</title><defs><linearGradient id="a" x1="50%" x2="50%" y1="0%" y2="100%"><stop offset="0%" stop-color="#767b82"/><stop offset="7%" stop-color="#9ba1ab"/><stop offset="22%" stop-color="#e2eaf2"/><stop offset="94%" stop-color="#5d6166"/><stop offset="100%" stop-color="#a9b1bb"/></linearGradient><linearGradient id="b" x1="50%" x2="50%" y1="0%" y2="100%"><stop offset="0%" stop-color="#767b82"/><stop offset="7%" stop-color="#9ba1ab"/><stop offset="22%" stop-color="#e2eaf2"/><stop offset="94%" stop-color="#5d6166"/><stop offset="100%" stop-color="#a9b1bb"/></linearGradient><linearGradient id="c" x1="49.946%" x2="49.946%" y1="0%" y2="100%"><stop offset="0%" stop-color="#767b82"/><stop offset="7%" stop-color="#9ba1ab"/><stop offset="22%" stop-color="#e2eaf2"/><stop offset="94%" stop-color="#5d6166"/><stop offset="100%" stop-color="#a9b1bb"/></linearGradient><linearGradient id="d" x1="0%" x2="100%" y1="49.992%" y2="49.992%"><stop offset="0%" stop-color="#a9b1bb"/><stop offset="6%" stop-color="#5d6166"/><stop offset="78%" stop-color="#e2eaf2"/><stop offset="93%" stop-color="#9ba1ab"/><stop offset="100%" stop-color="#767b82"/></linearGradient><linearGradient id="e" x1="0%" x2="100%" y1="50.992%" y2="50.992%"><stop offset="0%" stop-color="#7a8088"/><stop offset="9%" stop-color="#2d2f33"/><stop offset="16%" stop-color="#35373b"/><stop offset="27%" stop-color="#4a4d51"/><stop offset="41%" stop-color="#6d7176"/><stop offset="56%" stop-color="#9da3a8"/><stop offset="62%" stop-color="#b0b7bc"/><stop offset="93%" stop-color="#6d7177"/><stop offset="100%" stop-color="#5c6067"/></linearGradient><linearGradient id="f" x1="50.079%" x2="50.079%" y1="99.953%" y2="0%"><stop offset="0%" stop-color="#a1a8b3"/><stop offset="100%" stop-color="#f5faff"/></linearGradient><linearGradient id="g" x1="65.159%" x2="15.159%" y1="55.967%" y2="36.286%"><stop offset="0%" stop-color="#e6f1ff" stop-opacity="0"/><stop offset="26%" stop-color="#e6f1ff" stop-opacity=".01"/><stop offset="40%" stop-color="#e6f1ff" stop-opacity=".04"/><stop offset="51%" stop-color="#e7f1ff" stop-opacity=".09"/><stop offset="60%" stop-color="#e7f2ff" stop-opacity=".17"/><stop offset="69%" stop-color="#e8f2ff" stop-opacity=".26"/><stop offset="76%" stop-color="#e9f2ff" stop-opacity=".38"/><stop offset="83%" stop-color="#eaf3ff" stop-opacity=".53"/><stop offset="90%" stop-color="#ecf3ff" stop-opacity=".69"/><stop offset="96%" stop-color="#edf4ff" stop-opacity=".87"/><stop offset="100%" stop-color="#eef4ff"/></linearGradient><linearGradient id="h" x1="50.023%" x2="50.023%" y1="100%" y2="0%"><stop offset="0%" stop-color="#494a4d"/><stop offset="100%" stop-color="#17181a"/></linearGradient><linearGradient id="i" x1="14.493%" x2="85.204%" y1="14.608%" y2="85.319%"><stop offset="0%" stop-color="#9ba1ab"/><stop offset="0%" stop-color="#abb1ba"/><stop offset="9%" stop-color="#abb1ba"/><stop offset="46%" stop-color="#f5faff"/><stop offset="100%" stop-color="#a9b1bb"/></linearGradient><linearGradient id="j" x1="49.993%" x2="49.993%" y1="0%" y2="100%"><stop offset="0%" stop-color="#767b82"/><stop offset="7%" stop-color="#9ba1ab"/><stop offset="22%" stop-color="#e2eaf2"/><stop offset="94%" stop-color="#5d6166"/><stop offset="100%" stop-color="#a9b1bb"/></linearGradient><linearGradient id="k" x1="49.988%" x2="49.988%" y1="0%" y2="100%"><stop offset="0%" stop-color="#767b82"/><stop offset="7%" stop-color="#9ba1ab"/><stop offset="22%" stop-color="#e2eaf2"/><stop offset="94%" stop-color="#5d6166"/><stop offset="100%" stop-color="#a9b1bb"/></linearGradient></defs><g fill="none" fill-rule="nonzero"><path fill="url(#a)" d="M78.98 25.51h5.46v5.18h-5.46z"/><path fill="url(#a)" d="M78.98 32.97h5.46v5.18h-5.46z"/><path fill="url(#b)" d="M66.22 24.06h15.54V39.6H66.22z"/><path fill="url(#c)" d="M78.98 93.33h9.23V150h-9.23z"/><path fill="url(#c)" d="M0 93.33h9.23V150H0z"/><path fill="url(#d)" d="M38.07 56.16h11.35v59.33H38.07z"/><path fill="url(#e)" d="M30.46 53.3h26.57v20.73H30.46z"/><path fill="url(#f)" d="m47.68 1.71 1-1.71 7.52 2v2l6.11 3.53L64 6.5l5.48 5.5-1 1.67L72 19.82h1.95l2 7.56-1.71.95v7.06l1.71 1-2 7.56H72L68.48 50l1 1.67L64 57.16l-1.68-1-6.11 3.53v2l-7.57 2-1-1.71h-7l-1 1.71-7.56-2v-2L26 56.15l-1.67 1-5.54-5.54 1-1.67-3.52-6.11h-2l-2-7.56 1.7-1V28.3l-1.7-.95 2-7.56h2l3.52-6.11-1-1.67 5.58-5.51 1.67 1L32.15 4V2.05l7.56-2 1 1.71z"/><path fill="url(#g)" d="M32.13 36.4v-9.14h23.22z"/><path fill="url(#h)" d="M65.21 31.84c-.006 11.856-9.62 21.464-21.477 21.46-11.856-.004-21.465-9.617-21.463-21.473.002-11.857 9.614-21.467 21.47-21.467 11.857.011 21.464 9.623 21.47 21.48"/><path fill="#a3b372" d="M26.77 25.76h33.95v12.16H26.77z"/><path fill="#646e46" d="M60.44 26v11.63H27.05V26zm.56-.56H26.49v12.75H61z"/><circle cx="44.16" cy="66.2" r="1.55" fill="url(#i)" stroke="#505458" stroke-width=".16"/><path fill="#505458" d="m43.41 66.78.6-.6-.6-.6.13-.13.6.6.6-.6.1.11-.6.6.67.66-.13.13-.66-.67-.6.61z"/><path fill="#fff" d="M59 16.7c-.29.64-.57 1.29-.89 1.93a59 59 0 0 1-27.57 27.53c-.48.24-1 .47-1.47.7l-.44.2A21.471 21.471 0 1 1 59 16.7" opacity=".1"/><path fill="#fff" d="M58.09 18.63a59 59 0 0 1-27.55 27.53c-7.63-8.1-7.87-20.51-.42-28S50 11 58.09 18.63" opacity=".1"/><path fill="url(#j)" d="M9.23 104.55h69.75v34.23H9.23z"/><path fill="url(#k)" d="M24.04 98.19h40.23v46.95H24.04z"/><path fill="#6b7076" d="m54 121.67-4.87-2.51v1.04H34.21v2.93h14.92v1.04z" opacity=".5"/></g></svg>