<svg xmlns="http://www.w3.org/2000/svg" viewBox="0 0 50 150"><title>Mass flowmeter(质量流量计)</title><defs><linearGradient id="a" x1="0%" x2="100%" y1="50%" y2="50%"><stop offset="0%" stop-color="#a9b1bb"/><stop offset="6%" stop-color="#5d6166"/><stop offset="78%" stop-color="#e2eaf2"/><stop offset="93%" stop-color="#9ba1ab"/><stop offset="100%" stop-color="#767b82"/></linearGradient><linearGradient id="b" x1="0%" x2="100%" y1="50%" y2="50%"><stop offset="0%" stop-color="#63686e"/><stop offset="9%" stop-color="#17181a"/><stop offset="16%" stop-color="#1f2022"/><stop offset="27%" stop-color="#343638"/><stop offset="41%" stop-color="#56595d"/><stop offset="56%" stop-color="#858a8f"/><stop offset="62%" stop-color="#989ea3"/><stop offset="93%" stop-color="#56595e"/><stop offset="100%" stop-color="#45484d"/></linearGradient><linearGradient id="c" x1="92.156%" x2="7.926%" y1="21.168%" y2="78.832%"><stop offset="0%" stop-color="#d7dce0"/><stop offset="100%" stop-color="#8a9099"/></linearGradient><linearGradient id="d" x1="73.01%" x2="20.495%" y1="10.738%" y2="89.262%"><stop offset="0%" stop-color="#d7dce0"/><stop offset="100%" stop-color="#8a9099"/></linearGradient><linearGradient id="e" x1="26.99%" x2="79.465%" y1="10.738%" y2="89.262%"><stop offset="0%" stop-color="#d7dce0"/><stop offset="100%" stop-color="#8a9099"/></linearGradient><linearGradient id="f" x1="65.148%" x2="15.148%" y1="55.972%" y2="36.294%"><stop offset="0%" stop-color="#e6f1ff" stop-opacity="0"/><stop offset="26%" stop-color="#e6f1ff" stop-opacity=".01"/><stop offset="40%" stop-color="#e6f1ff" stop-opacity=".04"/><stop offset="51%" stop-color="#e7f1ff" stop-opacity=".09"/><stop offset="60%" stop-color="#e7f2ff" stop-opacity=".17"/><stop offset="69%" stop-color="#e8f2ff" stop-opacity=".26"/><stop offset="76%" stop-color="#e9f2ff" stop-opacity=".38"/><stop offset="83%" stop-color="#eaf3ff" stop-opacity=".53"/><stop offset="90%" stop-color="#ecf3ff" stop-opacity=".69"/><stop offset="96%" stop-color="#edf4ff" stop-opacity=".87"/><stop offset="100%" stop-color="#eef4ff"/></linearGradient><linearGradient id="g" x1="49.941%" x2="49.941%" y1="99.927%" y2="0%"><stop offset="0%" stop-color="#676b70"/><stop offset="2%" stop-color="#484b4d"/><stop offset="19%" stop-color="#747980"/><stop offset="20%" stop-color="#d1d5db"/><stop offset="79%" stop-color="#c7cfdb"/><stop offset="80%" stop-color="#edf5ff"/><stop offset="81%" stop-color="#c3c7cc"/><stop offset="100%" stop-color="#929599"/></linearGradient><linearGradient id="h" x1="50.149%" x2="50.149%" y1="100%" y2="0%"><stop offset="0%" stop-color="#676b70"/><stop offset="2%" stop-color="#484b4d"/><stop offset="19%" stop-color="#747980"/><stop offset="20%" stop-color="#d1d5db"/><stop offset="79%" stop-color="#c7cfdb"/><stop offset="80%" stop-color="#edf5ff"/><stop offset="81%" stop-color="#c3c7cc"/><stop offset="100%" stop-color="#929599"/></linearGradient><linearGradient id="i" x1="50%" x2="50%" y1="100%" y2="0%"><stop offset="0%" stop-color="#676b70"/><stop offset="2%" stop-color="#484b4d"/><stop offset="19%" stop-color="#747980"/><stop offset="20%" stop-color="#d1d5db"/><stop offset="79%" stop-color="#c7cfdb"/><stop offset="80%" stop-color="#edf5ff"/><stop offset="81%" stop-color="#c3c7cc"/><stop offset="100%" stop-color="#929599"/></linearGradient><linearGradient id="j" x1="49.97%" x2="49.97%" y1="99.98%" y2=".001%"><stop offset="0%" stop-color="#5c6066"/><stop offset="100%" stop-color="#f5faff"/></linearGradient><linearGradient id="k" x1="50%" x2="50%" y1="99.972%" y2="0%"><stop offset="0%" stop-color="#494a4d"/><stop offset="100%" stop-color="#17181a"/></linearGradient><linearGradient id="l" x1="85.336%" x2="14.625%" y1="14.439%" y2="85.15%"><stop offset="0%" stop-color="#9ba1ab"/><stop offset="0%" stop-color="#abb1ba"/><stop offset="9%" stop-color="#abb1ba"/><stop offset="46%" stop-color="#f5faff"/><stop offset="100%" stop-color="#a9b1bb"/></linearGradient><linearGradient id="m" x1="57755.952%" x2="57755.952%" y1="-58582.143%" y2="-58482.143%"><stop offset="0%" stop-color="#9ba1ab"/><stop offset="0%" stop-color="#abb1ba"/><stop offset="9%" stop-color="#abb1ba"/><stop offset="46%" stop-color="#f5faff"/><stop offset="100%" stop-color="#a9b1bb"/></linearGradient><linearGradient id="n" x1="14.39%" x2="85.522%" y1="14.576%" y2="85.707%"><stop offset="0%" stop-color="#9ba1ab"/><stop offset="0%" stop-color="#abb1ba"/><stop offset="9%" stop-color="#abb1ba"/><stop offset="46%" stop-color="#f5faff"/><stop offset="100%" stop-color="#a9b1bb"/></linearGradient><linearGradient id="o" x1="14.39%" x2="85.101%" y1="14.682%" y2="85.393%"><stop offset="0%" stop-color="#9ba1ab"/><stop offset="0%" stop-color="#abb1ba"/><stop offset="9%" stop-color="#abb1ba"/><stop offset="46%" stop-color="#f5faff"/><stop offset="100%" stop-color="#a9b1bb"/></linearGradient></defs><g fill="none" fill-rule="nonzero"><path fill="url(#a)" d="M20.7 47.26h8.34V150H20.7z"/><path fill="url(#b)" d="M17.98 56.86h13.79v1.66H17.98z"/><path fill="url(#c)" d="M12.69 0h24.35v16.67H12.69z"/><path fill="url(#d)" d="M46.57 16.67h-9.52V0l11.14 1.62v11.82z"/><path fill="url(#e)" d="M3.22 16.67h9.52V0L1.6 1.62v11.82z"/><path fill="url(#f)" d="M15.1 28.72v-7.69h19.54z"/><path fill="url(#g)" d="M20.63 45.72h8.49v13.79h-8.49z" transform="rotate(90 24.875 52.615)"/><path fill="url(#h)" d="M21.52 56.26h6.7v11.2h-6.7z" transform="rotate(90 24.87 61.86)"/><path fill="url(#i)" d="M21.53 106.56h6.7v11.2h-6.7z" transform="rotate(90 24.88 112.16)"/><path fill="url(#h)" d="M21.52 116.09h6.7v11.2h-6.7z" transform="rotate(90 24.87 121.69)"/><path fill="#fff" d="M48.19 5.56H37.05V3.19L48.19 4zm-35.45 0H1.6V4l11.14-.81z" opacity=".6"/><path fill="url(#j)" d="M49.67 22.88C48.696 10.807 39.164 1.191 27.1.11A21 21 0 0 0 24.87 0Q24 0 23.1.06C10.852.95 1.085 10.64.1 22.88c-.06.65-.08 1.33-.08 2s0 1.34.08 2c.981 12.24 10.752 21.931 23 22.81.58 0 1.17.07 1.77.07s1.5 0 2.23-.1c12.068-1.09 21.597-10.712 22.57-22.79 0-.65.08-1.32.08-2s-.03-1.34-.08-1.99m-24.8 20.06a18.07 18.07 0 1 1 18.07-18.06c-.011 9.974-8.096 18.055-18.07 18.06"/><path fill="#fff" d="M49.75 24.88c0 .67 0 1.34-.08 2h-3.85A21.07 21.07 0 0 1 27.1 45.79v3.86c-.73.07-1.48.1-2.23.1s-1.19 0-1.77-.07v-3.84c-10.135-.883-18.196-8.873-19.17-19H.08C0 26.22 0 25.55 0 24.88s0-1.35.08-2h3.85c.97-10.128 9.033-18.12 19.17-19V.06Q24 0 24.87 0q1.119-.005 2.23.11V4a21.1 21.1 0 0 1 18.72 18.88h3.85c.05.65.08 1.33.08 2" opacity=".6"/><path fill="url(#k)" d="M42.94 24.88c0 9.98-8.09 18.07-18.07 18.07S6.8 34.86 6.8 24.88 14.89 6.81 24.87 6.81c9.975.012 18.059 8.095 18.07 18.07"/><path fill="#a3b372" d="M14.88 20.81h19.99v8.13H14.88z"/><path fill="#646e46" d="M34.64 21v7.69H15.1V21zm.45-.44H14.66v8.57h20.43z"/><circle cx="2" cy="24.72" r="1" fill="url(#l)" stroke="#505458" stroke-width=".09"/><path fill="#505458" d="m1.69 24.31.32.33.33-.33.07.07-.33.33.33.32-.06.06-.35-.32-.36.36-.06-.07.42-.36-.33-.33z"/><circle cx="48.19" cy="24.72" r="1" fill="url(#m)" stroke="#505458" stroke-width=".09"/><path fill="#505458" d="m47.88 24.31.33.33.32-.33.07.07-.33.33.33.32-.06.06-.32-.32-.36.36-.07-.07.36-.36-.33-.33z"/><circle cx="25.1" cy="47.81" r="1" fill="url(#n)" stroke="#505458" stroke-width=".09"/><path fill="#505458" d="m24.69 48.13.31-.33-.33-.32.07-.07.33.32.32-.32.06.06-.32.32.35.36-.06.07-.36-.36-.33.33z"/><circle cx="25.1" cy="1.62" r="1" fill="url(#o)" stroke="#505458" stroke-width=".09"/><path fill="#505458" d="m24.69 1.94.31-.33-.33-.33.07-.06.33.32.32-.32.06.05-.32.33.37.4h-.06l-.36-.36-.33.36z"/><path fill="#fff" d="M37.7 12.14c-.24.54-.49 1.09-.75 1.62a49.7 49.7 0 0 1-23.19 23.18c-.4.2-.82.39-1.24.58l-.37.17A18.07 18.07 0 1 1 37.7 12.14" opacity=".1"/><path fill="#fff" d="M37 13.76a49.7 49.7 0 0 1-23.24 23.18c-6.43-6.83-6.63-17.26-.36-23.54s16.72-6.07 23.6.36" opacity=".1"/></g></svg>