<svg xmlns="http://www.w3.org/2000/svg" viewBox="0 0 150 84"><title>Simple flow rate controller(简单流量控制器)</title><defs><linearGradient id="a" x1="49.989%" x2="49.989%" y1="0%" y2="100%"><stop offset="0%" stop-color="#a9b1bb"/><stop offset="6%" stop-color="#5d6166"/><stop offset="78%" stop-color="#e2eaf2"/><stop offset="93%" stop-color="#9ba1ab"/><stop offset="100%" stop-color="#767b82"/></linearGradient><linearGradient id="b" x1="50.039%" x2="50.039%" y1="0%" y2="100%"><stop offset="0%" stop-color="#a9b1bb"/><stop offset="6%" stop-color="#5d6166"/><stop offset="78%" stop-color="#e2eaf2"/><stop offset="93%" stop-color="#9ba1ab"/><stop offset="100%" stop-color="#767b82"/></linearGradient><linearGradient id="c" x1="49.992%" x2="49.992%" y1="0%" y2="100%"><stop offset="0%" stop-color="#a9b1bb"/><stop offset="6%" stop-color="#5d6166"/><stop offset="78%" stop-color="#e2eaf2"/><stop offset="93%" stop-color="#9ba1ab"/><stop offset="100%" stop-color="#767b82"/></linearGradient><linearGradient id="d" x1="50%" x2="50%" y1="0%" y2="100%"><stop offset="0%" stop-color="#a9b1bb"/><stop offset="6%" stop-color="#5d6166"/><stop offset="78%" stop-color="#e2eaf2"/><stop offset="93%" stop-color="#9ba1ab"/><stop offset="100%" stop-color="#767b82"/></linearGradient><linearGradient id="e" x1="100.077%" x2=".077%" y1="49.988%" y2="49.988%"><stop offset="0%" stop-color="#2e3033"/><stop offset="100%" stop-color="#9ba1ab" stop-opacity="0"/></linearGradient><linearGradient id="f" x1="49.906%" x2="49.906%" y1="100%" y2="0%"><stop offset="0%" stop-color="#a9b1bb"/><stop offset="6%" stop-color="#5d6166"/><stop offset="78%" stop-color="#e2eaf2"/><stop offset="93%" stop-color="#9ba1ab"/><stop offset="100%" stop-color="#767b82"/></linearGradient><linearGradient id="g" x1="50.026%" x2="50.026%" y1="100.049%" y2=".049%"><stop offset="0%" stop-color="#767b82"/><stop offset="7%" stop-color="#9ba1ab"/><stop offset="22%" stop-color="#e2eaf2"/><stop offset="94%" stop-color="#5d6166"/><stop offset="100%" stop-color="#a9b1bb"/></linearGradient><linearGradient id="h" x1="0%" x2="100%" y1="50.023%" y2="50.023%"><stop offset="0%" stop-color="#767b82"/><stop offset="7%" stop-color="#9ba1ab"/><stop offset="22%" stop-color="#e2eaf2"/><stop offset="94%" stop-color="#5d6166"/><stop offset="100%" stop-color="#a9b1bb"/></linearGradient><linearGradient id="i" x1="2.381%" x2="102.381%" y1="50.023%" y2="50.023%"><stop offset="0%" stop-color="#767b82"/><stop offset="7%" stop-color="#9ba1ab"/><stop offset="22%" stop-color="#e2eaf2"/><stop offset="94%" stop-color="#5d6166"/><stop offset="100%" stop-color="#a9b1bb"/></linearGradient><linearGradient id="j" x1="0%" x2="100%" y1="50.023%" y2="50.023%"><stop offset="0%" stop-color="#767b82"/><stop offset="7%" stop-color="#9ba1ab"/><stop offset="22%" stop-color="#e2eaf2"/><stop offset="94%" stop-color="#5d6166"/><stop offset="100%" stop-color="#a9b1bb"/></linearGradient><linearGradient id="k" x1="0%" x2="97.619%" y1="50.023%" y2="50.023%"><stop offset="0%" stop-color="#767b82"/><stop offset="7%" stop-color="#9ba1ab"/><stop offset="22%" stop-color="#e2eaf2"/><stop offset="94%" stop-color="#5d6166"/><stop offset="100%" stop-color="#a9b1bb"/></linearGradient></defs><g fill="none" fill-rule="nonzero"><path fill="url(#a)" d="M18.09 0h44.37v83.03H18.09z" transform="matrix(-1 0 0 -1 80.55 83.03)"/><path fill="url(#b)" d="M5.29 21.44h12.93v40.15H5.29z" transform="matrix(-1 0 0 -1 23.51 83.03)"/><path fill="url(#c)" d="M62.46 21.44h61.21v40.15H62.46z" transform="matrix(-1 0 0 -1 186.13 83.03)"/><path fill="url(#d)" d="M142.82 36.19H150v12.14h-7.18z" transform="matrix(-1 0 0 -1 292.82 84.52)"/><path fill="url(#e)" d="M5.29 21.44h12.93v40.15H5.29z" opacity=".2" transform="matrix(-1 0 0 -1 23.51 83.03)"/><path fill="url(#f)" d="m0 55.73 5.31 5.86V21.44L0 27.31z"/><path fill="#000" d="M27.19.17h1v82.86h-1z" opacity=".5"/><path fill="url(#g)" d="M123.68 32.06h19.15v20.41h-19.15z" transform="matrix(-1 0 0 -1 266.51 84.53)"/><rect width="1" height="21.57" x="135.09" y="31.48" fill="url(#h)" rx=".19" transform="matrix(-1 0 0 -1 270.6 84.53)"/><rect width="1" height="21.57" x="136.69" y="31.48" fill="url(#h)" rx=".19" transform="matrix(-1 0 0 -1 273.8 84.53)"/><rect width="1" height="21.57" x="138.29" y="31.48" fill="url(#i)" rx=".19" transform="matrix(-1 0 0 -1 277 84.53)"/><rect width="1" height="21.57" x="139.88" y="31.48" fill="url(#h)" rx=".19" transform="matrix(-1 0 0 -1 280.18 84.53)"/><rect width="1" height="21.57" x="133.5" y="31.48" fill="url(#i)" rx=".19" transform="matrix(-1 0 0 -1 267.42 84.53)"/><rect width="1" height="21.57" x="131.9" y="31.48" fill="url(#j)" rx=".19" transform="matrix(-1 0 0 -1 264.22 84.53)"/><rect width="1" height="21.57" x="130.3" y="31.48" fill="url(#j)" rx=".19" transform="matrix(-1 0 0 -1 261.02 84.53)"/><rect width="1" height="21.57" x="128.71" y="31.48" fill="url(#i)" rx=".19" transform="matrix(-1 0 0 -1 257.84 84.53)"/><rect width="1" height="21.57" x="127.11" y="31.48" fill="url(#k)" rx=".19" transform="matrix(-1 0 0 -1 254.64 84.53)"/><rect width="1" height="21.57" x="125.51" y="31.48" fill="url(#j)" rx=".19" transform="matrix(-1 0 0 -1 251.44 84.53)"/></g></svg>