<svg xmlns="http://www.w3.org/2000/svg" viewBox="0 0 150 124"><title>Thermal mass flowmeter(热式质量流量计)</title><defs><linearGradient id="a" x1="50%" x2="50%" y1="0%" y2="99.913%"><stop offset="0%" stop-color="#767b82"/><stop offset="7%" stop-color="#9ba1ab"/><stop offset="22%" stop-color="#e2eaf2"/><stop offset="94%" stop-color="#5d6166"/><stop offset="100%" stop-color="#a9b1bb"/></linearGradient><linearGradient id="b" x1="0%" x2="100%" y1="50%" y2="50%"><stop offset="0%" stop-color="#767b82"/><stop offset="7%" stop-color="#9ba1ab"/><stop offset="22%" stop-color="#e2eaf2"/><stop offset="94%" stop-color="#5d6166"/><stop offset="100%" stop-color="#a9b1bb"/></linearGradient><linearGradient id="c" x1="0%" x2="103.448%" y1="50%" y2="50%"><stop offset="0%" stop-color="#767b82"/><stop offset="7%" stop-color="#9ba1ab"/><stop offset="22%" stop-color="#e2eaf2"/><stop offset="94%" stop-color="#5d6166"/><stop offset="100%" stop-color="#a9b1bb"/></linearGradient><linearGradient id="d" x1="83.571%" x2="16.429%" y1="38.496%" y2="61.504%"><stop offset="0%" stop-color="#d7dce0"/><stop offset="100%" stop-color="#8a9099"/></linearGradient><linearGradient id="e" x1="76.107%" x2="23.886%" y1="9.051%" y2="90.949%"><stop offset="0%" stop-color="#5d5f60"/><stop offset="100%" stop-color="#17181a"/></linearGradient><linearGradient id="f" x1="87.717%" x2="12.266%" y1="4.333%" y2="95.647%"><stop offset="0%" stop-color="#5d5f60"/><stop offset="100%" stop-color="#17181a"/></linearGradient><linearGradient id="g" x1="0%" x2="100%" y1="50.057%" y2="50.057%"><stop offset="0%" stop-color="#a9b1bb"/><stop offset="6%" stop-color="#5d6166"/><stop offset="78%" stop-color="#e2eaf2"/><stop offset="93%" stop-color="#9ba1ab"/><stop offset="100%" stop-color="#767b82"/></linearGradient><linearGradient id="h" x1="79.321%" x2="20.679%" y1="44.918%" y2="55.086%"><stop offset="0%" stop-color="#75787a"/><stop offset="100%" stop-color="#2e3034"/></linearGradient><linearGradient id="i" x1="68.75%" x2="31.25%" y1="12.5%" y2="87.358%"><stop offset="0%" stop-color="#75787a"/><stop offset="100%" stop-color="#2e3034"/></linearGradient><linearGradient id="j" x1="74.918%" x2="24.973%" y1="9.649%" y2="90.526%"><stop offset="0%" stop-color="#75787a"/><stop offset="100%" stop-color="#2e3034"/></linearGradient><linearGradient id="k" x1="56.682%" x2="43.318%" y1="19.502%" y2="80.498%"><stop offset="0%" stop-color="#75787a"/><stop offset="100%" stop-color="#2e3034"/></linearGradient><linearGradient id="l" x1="0%" x2="99.911%" y1="50%" y2="50%"><stop offset="0%" stop-color="#676b70"/><stop offset="2%" stop-color="#484b4d"/><stop offset="19%" stop-color="#747980"/><stop offset="20%" stop-color="#d1d5db"/><stop offset="79%" stop-color="#c7cfdb"/><stop offset="80%" stop-color="#edf5ff"/><stop offset="81%" stop-color="#c3c7cc"/><stop offset="100%" stop-color="#929599"/></linearGradient><linearGradient id="m" x1=".057%" x2="100.057%" y1="50%" y2="50%"><stop offset="0%" stop-color="#929599"/><stop offset="19%" stop-color="#c3c7cc"/><stop offset="20%" stop-color="#edf5ff"/><stop offset="21%" stop-color="#c7cfdb"/><stop offset="80%" stop-color="#d1d5db"/><stop offset="81%" stop-color="#747980"/><stop offset="98%" stop-color="#484b4d"/><stop offset="100%" stop-color="#676b70"/></linearGradient><linearGradient id="n" x1="0%" x2="100%" y1="50%" y2="50%"><stop offset="0%" stop-color="#929599"/><stop offset="19%" stop-color="#c3c7cc"/><stop offset="20%" stop-color="#edf5ff"/><stop offset="21%" stop-color="#c7cfdb"/><stop offset="80%" stop-color="#d1d5db"/><stop offset="81%" stop-color="#747980"/><stop offset="98%" stop-color="#484b4d"/><stop offset="100%" stop-color="#676b70"/></linearGradient></defs><g fill="none" fill-rule="evenodd"><path fill="url(#a)" fill-rule="nonzero" d="M0 96.41h150v11.53H0z"/><rect width="1" height="12.18" x="141.42" y="96.08" fill="url(#b)" fill-rule="nonzero" rx=".12"/><rect width="1" height="12.18" x="142.59" y="96.08" fill="url(#b)" fill-rule="nonzero" rx=".12"/><rect width="1" height="12.18" x="143.76" y="96.08" fill="url(#b)" fill-rule="nonzero" rx=".12"/><rect width="1" height="12.18" x="144.93" y="96.08" fill="url(#b)" fill-rule="nonzero" rx=".12"/><rect width="1" height="12.18" x="146.09" y="96.08" fill="url(#c)" fill-rule="nonzero" rx=".12"/><rect width="1" height="12.18" x="147.26" y="96.08" fill="url(#b)" fill-rule="nonzero" rx=".12"/><rect width="1" height="12.18" x="148.43" y="96.08" fill="url(#b)" fill-rule="nonzero" rx=".12"/><rect width="1" height="12.18" x="1.09" y="96.08" fill="url(#c)" fill-rule="nonzero" rx=".12"/><rect width="1" height="12.18" x="2.26" y="96.08" fill="url(#b)" fill-rule="nonzero" rx=".12"/><rect width="1" height="12.18" x="3.43" y="96.08" fill="url(#b)" fill-rule="nonzero" rx=".12"/><rect width="1" height="12.18" x="4.6" y="96.08" fill="url(#b)" fill-rule="nonzero" rx=".12"/><rect width="1" height="12.18" x="5.76" y="96.08" fill="url(#c)" fill-rule="nonzero" rx=".12"/><rect width="1" height="12.18" x="6.93" y="96.08" fill="url(#b)" fill-rule="nonzero" rx=".12"/><rect width="1" height="12.18" x="8.1" y="96.08" fill="url(#b)" fill-rule="nonzero" rx=".12"/><path fill="url(#d)" fill-rule="nonzero" stroke="#767b82" stroke-width=".24" d="M18.16 84.3h114.07v39.09H18.16z"/><path stroke="#767b82" stroke-width=".24" d="M18.16 84.3h12.39v39.09H18.16z"/><path fill="url(#e)" fill-rule="nonzero" d="M18.16 0h53.76v84.3H18.16z"/><path fill="url(#f)" fill-rule="nonzero" d="M80.6 35.14h40.62V84.3H80.6z"/><path fill="url(#g)" fill-rule="nonzero" d="M83.59 17.71h34.63v17.42H83.59z"/><path fill="url(#h)" fill-rule="nonzero" d="M80.6 77.26h40.62v7.04H80.6z"/><path fill="url(#i)" fill-rule="nonzero" d="M71.92 5.52h3.52v7.04h-3.52z"/><path fill="url(#j)" fill-rule="nonzero" d="M71.92 32.47h3.52v5.7h-3.52z"/><path fill="url(#k)" fill-rule="nonzero" d="M71.92 14.5h3.52v16.05h-3.52z"/><path fill="url(#l)" fill-rule="nonzero" d="M83.26 72.8h11.21v4.46H83.26z"/><path fill="url(#l)" fill-rule="nonzero" d="M107.02 72.8h11.21v4.46h-11.21z"/><path fill="url(#m)" fill-rule="nonzero" d="M126.99 98.71h17.4v6.92h-17.4z" transform="rotate(90 135.69 102.17)"/><path fill="url(#n)" fill-rule="nonzero" d="M6 98.71h17.4v6.92H6z" transform="rotate(90 14.7 102.17)"/><path stroke="#222326" stroke-width="2.25" d="M75.44 35.14c5.16 0 4 11.21 1.62 19.61-3.31 11.56-.82 21.06 3.54 21.06"/></g></svg>