<svg xmlns="http://www.w3.org/2000/svg" viewBox="0 0 131 150"><title>Tubing meter 3(油管流量计3)</title><defs><linearGradient id="a" x1="34.313%" x2="65.673%" y1="14.811%" y2="73.589%"><stop offset="0%" stop-color="#c3c7cc"/><stop offset="100%" stop-color="#8a9099"/></linearGradient><linearGradient id="b" x1="155.368%" x2="62.32%" y1="11.994%" y2="98.172%"><stop offset="0%" stop-color="#929599"/><stop offset="100%" stop-color="#5c6066"/></linearGradient><linearGradient id="c" x1="-55.061%" x2="37.987%" y1="11.994%" y2="98.172%"><stop offset="0%" stop-color="#929599"/><stop offset="100%" stop-color="#5c6066"/></linearGradient><linearGradient id="d" x1="50%" x2="50%" y1="0%" y2="100%"><stop offset="0%" stop-color="#767b82"/><stop offset="7%" stop-color="#9ba1ab"/><stop offset="22%" stop-color="#e2eaf2"/><stop offset="94%" stop-color="#5d6166"/><stop offset="100%" stop-color="#a9b1bb"/></linearGradient><linearGradient id="e" x1="50%" x2="50%" y1="0%" y2="-73.933%"><stop offset="0%" stop-color="#767b82"/><stop offset="7%" stop-color="#9ba1ab"/><stop offset="22%" stop-color="#e2eaf2"/><stop offset="94%" stop-color="#5d6166"/><stop offset="100%" stop-color="#a9b1bb"/></linearGradient><linearGradient id="f" x1="50.005%" x2="50.005%" y1="0%" y2="100%"><stop offset="0%" stop-color="#767b82"/><stop offset="7%" stop-color="#9ba1ab"/><stop offset="22%" stop-color="#e2eaf2"/><stop offset="94%" stop-color="#5d6166"/><stop offset="100%" stop-color="#a9b1bb"/></linearGradient><linearGradient id="g" x1="49.992%" x2="49.992%" y1="-.018%" y2="99.982%"><stop offset="0%" stop-color="#a9b1bb"/><stop offset="6%" stop-color="#5d6166"/><stop offset="78%" stop-color="#e2eaf2"/><stop offset="93%" stop-color="#9ba1ab"/><stop offset="100%" stop-color="#767b82"/></linearGradient><linearGradient id="h" x1="0%" x2="100%" y1="50.088%" y2="50.088%"><stop offset="0%" stop-color="#767b82"/><stop offset="7%" stop-color="#9ba1ab"/><stop offset="22%" stop-color="#e2eaf2"/><stop offset="94%" stop-color="#5d6166"/><stop offset="100%" stop-color="#a9b1bb"/></linearGradient><linearGradient id="i" x1="0%" x2="99.988%" y1="49.982%" y2="49.982%"><stop offset="0%" stop-color="#767b82"/><stop offset="7%" stop-color="#9ba1ab"/><stop offset="22%" stop-color="#e2eaf2"/><stop offset="94%" stop-color="#5d6166"/><stop offset="100%" stop-color="#a9b1bb"/></linearGradient></defs><g fill="none" fill-rule="nonzero"><path fill="url(#a)" d="M53.915-8.695h19.86v37.25h-19.86z" transform="rotate(90 63.845 9.93)"/><path fill="url(#b)" d="M45.22 19.86V8.77l-12 11.09z"/><path fill="url(#c)" d="M82.47 19.86V8.77l12 11.09z"/><path fill="url(#d)" d="M114.95 63.76h15.2V150h-15.2z"/><path fill="url(#e)" d="M0 63.76h15.2V150H0z"/><path fill="url(#f)" d="M15.2 78.67h99.75v56.42H15.2z"/><path fill="url(#g)" d="M61.465 46.845h35.44v56.42h-35.44c-15.58 0-28.21-12.63-28.21-28.21s12.63-28.21 28.21-28.21" transform="rotate(-90 65.08 75.055)"/><path fill="url(#h)" d="M27.56 14.49h5.65v5.65h-5.65z"/><path fill="url(#h)" d="M94.52 14.49h5.65v5.65h-5.65z"/><path fill="url(#h)" d="M72.2 14.49h5.65v5.65H72.2z"/><path fill="url(#h)" d="M49.88 14.49h5.65v5.65h-5.65z"/><path fill="url(#i)" d="M23.33 19.86h81.04v27.67H23.33z"/><path fill="#000" d="M23.33 33.59h81.04v1H23.33z" opacity=".5"/></g></svg>