<svg xmlns="http://www.w3.org/2000/svg" viewBox="0 0 150 150"><title>Ultransonic flow transmitter(超声波流量传送器)</title><defs><linearGradient id="a" x1="50%" x2="50%" y1="0%" y2="100%"><stop offset="0%" stop-color="#767b82"/><stop offset="7%" stop-color="#9ba1ab"/><stop offset="22%" stop-color="#e2eaf2"/><stop offset="94%" stop-color="#5d6166"/><stop offset="100%" stop-color="#a9b1bb"/></linearGradient><linearGradient id="b" x1="50%" x2="50%" y1="0%" y2="100%"><stop offset="0%" stop-color="#767b82"/><stop offset="7%" stop-color="#9ba1ab"/><stop offset="22%" stop-color="#e2eaf2"/><stop offset="94%" stop-color="#5d6166"/><stop offset="100%" stop-color="#a9b1bb"/></linearGradient><linearGradient id="c" x1="-1.541%" x2="97.523%" y1="46.068%" y2="46.068%"><stop offset="0%" stop-color="#a9b1bb"/><stop offset="6%" stop-color="#5d6166"/><stop offset="78%" stop-color="#e2eaf2"/><stop offset="93%" stop-color="#9ba1ab"/><stop offset="100%" stop-color="#767b82"/></linearGradient><linearGradient id="d" x1="-.246%" x2="99.571%" y1="53.584%" y2="53.584%"><stop offset="0%" stop-color="#d7e1ee"/><stop offset="6%" stop-color="#8b9199"/><stop offset="78%" stop-color="#eef7ff"/><stop offset="93%" stop-color="#c9d1de"/><stop offset="100%" stop-color="#a4abb5"/></linearGradient><linearGradient id="e" x1="7.037%" x2="106.102%" y1="39.049%" y2="39.049%"><stop offset="0%" stop-color="#a9b1bb"/><stop offset="6%" stop-color="#5d6166"/><stop offset="78%" stop-color="#e2eaf2"/><stop offset="93%" stop-color="#9ba1ab"/><stop offset="100%" stop-color="#767b82"/></linearGradient><linearGradient id="f" x1=".73%" x2="100.547%" y1="59.089%" y2="59.089%"><stop offset="0%" stop-color="#d7e1ee"/><stop offset="6%" stop-color="#8b9199"/><stop offset="78%" stop-color="#eef7ff"/><stop offset="93%" stop-color="#c9d1de"/><stop offset="100%" stop-color="#a4abb5"/></linearGradient><linearGradient id="g" x1="50%" x2="50%" y1="0%" y2="-282.263%"><stop offset="0%" stop-color="#767b82"/><stop offset="7%" stop-color="#9ba1ab"/><stop offset="22%" stop-color="#e2eaf2"/><stop offset="94%" stop-color="#5d6166"/><stop offset="100%" stop-color="#a9b1bb"/></linearGradient><linearGradient id="h" x1="2.145%" x2="101.209%" y1="42.271%" y2="42.271%"><stop offset="0%" stop-color="#a9b1bb"/><stop offset="6%" stop-color="#5d6166"/><stop offset="78%" stop-color="#e2eaf2"/><stop offset="93%" stop-color="#9ba1ab"/><stop offset="100%" stop-color="#767b82"/></linearGradient><linearGradient id="i" x1=".2%" x2="100.017%" y1="56.253%" y2="56.253%"><stop offset="0%" stop-color="#d7e1ee"/><stop offset="6%" stop-color="#8b9199"/><stop offset="78%" stop-color="#eef7ff"/><stop offset="93%" stop-color="#c9d1de"/><stop offset="100%" stop-color="#a4abb5"/></linearGradient><linearGradient id="j" x1="10.902%" x2="109.925%" y1="47.124%" y2="47.124%"><stop offset="0%" stop-color="#a9b1bb"/><stop offset="6%" stop-color="#5d6166"/><stop offset="78%" stop-color="#e2eaf2"/><stop offset="93%" stop-color="#9ba1ab"/><stop offset="100%" stop-color="#767b82"/></linearGradient><linearGradient id="k" x1="1.238%" x2="101.056%" y1="50.749%" y2="50.749%"><stop offset="0%" stop-color="#d7e1ee"/><stop offset="6%" stop-color="#8b9199"/><stop offset="78%" stop-color="#eef7ff"/><stop offset="93%" stop-color="#c9d1de"/><stop offset="100%" stop-color="#a4abb5"/></linearGradient><linearGradient id="l" x1=".174%" x2="99.323%" y1="41.504%" y2="41.504%"><stop offset="0%" stop-color="#a9b1bb"/><stop offset="6%" stop-color="#5d6166"/><stop offset="78%" stop-color="#e2eaf2"/><stop offset="93%" stop-color="#9ba1ab"/><stop offset="100%" stop-color="#767b82"/></linearGradient><linearGradient id="m" x1="49.682%" x2="49.682%" y1="100%" y2="0%"><stop offset="0%" stop-color="#7a8088"/><stop offset="9%" stop-color="#2d2f33"/><stop offset="15%" stop-color="#35373b"/><stop offset="25%" stop-color="#4a4d51"/><stop offset="36%" stop-color="#6d7176"/><stop offset="49%" stop-color="#9da3a8"/><stop offset="54%" stop-color="#b0b7bc"/><stop offset="93%" stop-color="#6d7177"/><stop offset="100%" stop-color="#5c6067"/></linearGradient><linearGradient id="n" x1="50%" x2="50%" y1="100.048%" y2="0%"><stop offset="0%" stop-color="#676b70"/><stop offset="5%" stop-color="#484b4d"/><stop offset="26%" stop-color="#747980"/><stop offset="30%" stop-color="#d1d5db"/><stop offset="44%" stop-color="#cad1db"/><stop offset="70%" stop-color="#c7cfdb"/><stop offset="73%" stop-color="#edf5ff"/><stop offset="77%" stop-color="#c3c7cc"/><stop offset="100%" stop-color="#929599"/></linearGradient><linearGradient id="o" x1="0%" x2="100%" y1="50.22%" y2="50.22%"><stop offset="0%" stop-color="#a9b1bb"/><stop offset="6%" stop-color="#5d6166"/><stop offset="78%" stop-color="#e2eaf2"/><stop offset="93%" stop-color="#9ba1ab"/><stop offset="100%" stop-color="#767b82"/></linearGradient><linearGradient id="p" x1="50.318%" x2="50.318%" y1="100%" y2="0%"><stop offset="0%" stop-color="#7a8088"/><stop offset="9%" stop-color="#2d2f33"/><stop offset="15%" stop-color="#35373b"/><stop offset="25%" stop-color="#4a4d51"/><stop offset="36%" stop-color="#6d7176"/><stop offset="49%" stop-color="#9da3a8"/><stop offset="54%" stop-color="#b0b7bc"/><stop offset="93%" stop-color="#6d7177"/><stop offset="100%" stop-color="#5c6067"/></linearGradient><linearGradient id="q" x1="0%" x2="100.017%" y1="50.22%" y2="50.22%"><stop offset="0%" stop-color="#a9b1bb"/><stop offset="6%" stop-color="#5d6166"/><stop offset="78%" stop-color="#e2eaf2"/><stop offset="93%" stop-color="#9ba1ab"/><stop offset="100%" stop-color="#767b82"/></linearGradient><linearGradient id="r" x1="0%" x2="100%" y1="50%" y2="50%"><stop offset="0%" stop-color="#7a8088"/><stop offset="9%" stop-color="#2d2f33"/><stop offset="16%" stop-color="#35373b"/><stop offset="27%" stop-color="#4a4d51"/><stop offset="41%" stop-color="#6d7176"/><stop offset="56%" stop-color="#9da3a8"/><stop offset="62%" stop-color="#b0b7bc"/><stop offset="93%" stop-color="#6d7177"/><stop offset="100%" stop-color="#5c6067"/></linearGradient><linearGradient id="s" x1="0%" x2="100%" y1="50%" y2="50%"><stop offset="0%" stop-color="#7a8088"/><stop offset="9%" stop-color="#2d2f33"/><stop offset="16%" stop-color="#35373b"/><stop offset="27%" stop-color="#4a4d51"/><stop offset="41%" stop-color="#6d7176"/><stop offset="56%" stop-color="#9da3a8"/><stop offset="62%" stop-color="#b0b7bc"/><stop offset="93%" stop-color="#6d7177"/><stop offset="100%" stop-color="#5c6067"/></linearGradient><linearGradient id="t" x1="0%" x2="99.933%" y1="50.033%" y2="50.033%"><stop offset="0%" stop-color="#7a8088"/><stop offset="9%" stop-color="#2d2f33"/><stop offset="16%" stop-color="#35373b"/><stop offset="27%" stop-color="#4a4d51"/><stop offset="41%" stop-color="#6d7176"/><stop offset="56%" stop-color="#9da3a8"/><stop offset="62%" stop-color="#b0b7bc"/><stop offset="93%" stop-color="#6d7177"/><stop offset="100%" stop-color="#5c6067"/></linearGradient><linearGradient id="u" x1="0%" x2="100%" y1="50.018%" y2="50.018%"><stop offset="0%" stop-color="#a9b1bb"/><stop offset="6%" stop-color="#5d6166"/><stop offset="78%" stop-color="#e2eaf2"/><stop offset="93%" stop-color="#9ba1ab"/><stop offset="100%" stop-color="#767b82"/></linearGradient><linearGradient id="v" x1="0%" x2="100.033%" y1="50%" y2="50%"><stop offset="0%" stop-color="#d7e1ee"/><stop offset="6%" stop-color="#8b9199"/><stop offset="78%" stop-color="#eef7ff"/><stop offset="93%" stop-color="#c9d1de"/><stop offset="100%" stop-color="#a4abb5"/></linearGradient><linearGradient id="w" x1=".044%" x2="99.82%" y1="44.456%" y2="44.456%"><stop offset="0%" stop-color="#d7e1ee"/><stop offset="6%" stop-color="#8b9199"/><stop offset="78%" stop-color="#eef7ff"/><stop offset="93%" stop-color="#c9d1de"/><stop offset="100%" stop-color="#a4abb5"/></linearGradient><linearGradient id="x" x1="50%" x2="50%" y1="100%" y2="-.016%"><stop offset="0%" stop-color="#494a4d"/><stop offset="100%" stop-color="#17181a"/></linearGradient><linearGradient id="y" x1="50%" x2="50%" y1="99.984%" y2="0%"><stop offset="0%" stop-color="#5c6066"/><stop offset="100%" stop-color="#f5faff"/></linearGradient></defs><g fill="none" fill-rule="nonzero"><path fill="#222326" d="M9.51 130.08a4.2 4.2 0 0 1-4.2-4.2c0-64.5 34-78.4 35.49-79a4.2 4.2 0 0 1 3.05 7.82c-1.3.53-30.14 12.9-30.14 71.14a4.2 4.2 0 0 1-4.2 4.24"/><path fill="url(#a)" d="M0 110.76h8.4V150H0z"/><path fill="url(#b)" d="M8.4 120.93h133.2v18.9H8.4z"/><circle cx="45.21" cy="132.84" r="4.92" fill="#27282a"/><path fill="#6c7076" d="M45.22 137a4 4 0 0 1-.78-.07C14.3 131.31.59 103.47 6.83 60.6c3.71-25.48 11.11-41.18 22-46.65a18.37 18.37 0 0 1 16.25-.28 4.203 4.203 0 1 1-3.95 7.42 10 10 0 0 0-8.69.45C21.67 27.15 17 49.18 15.14 61.81 11.91 84 11.62 122.26 46 128.71a4.2 4.2 0 0 1-.77 8.33z"/><path fill="url(#c)" d="M42.11 17.462h11.2v5.16h-11.2z" transform="rotate(-60 47.71 20.042)"/><path fill="url(#d)" d="M35.027 14.414h16.246v5.549H35.027z" transform="rotate(-60.113 43.15 17.189)"/><path fill="url(#e)" d="M29.166 127.758h11.2v4.52h-11.2z" transform="rotate(-60 34.766 130.018)"/><path fill="url(#f)" d="M22.315 124.737h16.19v5.53h-16.19z" transform="rotate(-60 30.41 127.502)"/><path fill="url(#g)" d="M141.6 110.76h8.4V150h-8.4z"/><circle cx="104.87" cy="132.84" r="4.92" fill="#27282a"/><path fill="#6c7076" d="M104.87 137a4.2 4.2 0 0 1-.77-8.33c14.75-2.77 38.38-15.14 30.84-66.9-1.85-12.72-6.58-34.89-17.46-40.35a9.84 9.84 0 0 0-8.48-.4 4.202 4.202 0 0 1-4-7.39 18.36 18.36 0 0 1 16.25.28c10.88 5.47 18.29 21.17 22 46.65 6.24 42.87-7.47 70.71-37.61 76.37a4 4 0 0 1-.77.07"/><path fill="url(#h)" d="M96.775 17.456h11.2v5.16h-11.2z" transform="rotate(240 102.375 20.036)"/><path fill="url(#i)" d="M98.901 14.603h16.19v5.53h-16.19z" transform="rotate(240 106.996 17.368)"/><path fill="url(#j)" d="M109.721 127.76h11.2v4.52h-11.2z" transform="rotate(240 115.32 130.02)"/><path fill="url(#k)" d="M111.58 124.741h16.19v5.53h-16.19z" transform="rotate(240 119.675 127.506)"/><path fill="url(#l)" d="M40.858 46.513h12.65v3.91h-12.65z" transform="rotate(240 47.183 48.468)"/><path fill="url(#m)" d="M96.26 109.72h1.57v33.99h-1.57z"/><path fill="url(#n)" d="M62.47 98.21h24.5v20.94h-24.5z" transform="rotate(90 74.72 108.68)"/><path fill="url(#o)" d="M61.7 116.39h26.04v2.27H61.7z"/><path fill="url(#p)" d="M52.3 109.72h1.57v33.99H52.3z"/><path fill="url(#q)" d="M45.21 118.66h59.01v2.27H45.21z"/><path fill="url(#r)" d="M48.69 117.53h8.8v1.14h-8.8z"/><path fill="url(#s)" d="M50.13 114.79h5.91v2.74h-5.91z"/><path fill="url(#r)" d="M92.64 117.53h8.8v1.14h-8.8z"/><path fill="url(#s)" d="M94.09 114.79H100v2.74h-5.91z"/><path fill="url(#t)" d="M67.3 81.48h14.85v14.95H67.3z"/><path fill="url(#u)" d="M64.25 53.93h20.94v27.55H64.25z"/><path fill="url(#v)" d="M59.69 0h30.05v8.98H59.69z"/><path fill="url(#w)" d="M34.987 48.065h16.19v5.53h-16.19z" transform="rotate(240 43.082 50.83)"/><circle cx="74.72" cy="34.06" r="30.69" fill="url(#x)"/><path fill="url(#y)" d="M74.72 11.76a22.3 22.3 0 1 1-22.29 22.3c.017-12.305 9.985-22.278 22.29-22.3m0-8.4c-16.955 0-30.7 13.745-30.7 30.7s13.745 30.7 30.7 30.7 30.7-13.745 30.7-30.7-13.745-30.7-30.7-30.7"/><path fill="#a3b372" d="M62.38 29.03h24.68v10.05H62.38z"/><path fill="#646e46" d="M86.78 29.31v9.49H62.66v-9.49zm.56-.56H62.1v10.61h25.24z"/><path fill="#fff" d="M90.43 18.18a9.8 9.8 0 0 1-.54 2.22c-1 3-3.78 8.81-11.69 16.72s-14.11 11-17.16 12a12 12 0 0 1-2.18.58c-8.18-8.802-7.924-22.5.58-30.99s22.201-8.724 30.99-.53" opacity=".1"/><path fill="#fff" d="M89.89 20.4c-1 3-3.78 8.81-11.69 16.72s-14.11 11-17.16 12c-7.89-8.57-8.13-21.44-.38-29.19s20.66-7.46 29.23.47" opacity=".1"/></g></svg>