<svg xmlns="http://www.w3.org/2000/svg" viewBox="0 0 150 58"><title>Venturi flow meter(文丘里流量计)</title><defs><linearGradient id="a" x1="50.065%" x2="50.065%" y1="100%" y2="0%"><stop offset="0%" stop-color="#a9b1bb"/><stop offset="6%" stop-color="#5d6166"/><stop offset="78%" stop-color="#e2eaf2"/><stop offset="93%" stop-color="#9ba1ab"/><stop offset="100%" stop-color="#767b82"/></linearGradient><linearGradient id="b" x1="50%" x2="50%" y1="100%" y2="0%"><stop offset="0%" stop-color="#a9b1bb"/><stop offset="6%" stop-color="#5d6166"/><stop offset="78%" stop-color="#e2eaf2"/><stop offset="93%" stop-color="#9ba1ab"/><stop offset="100%" stop-color="#767b82"/></linearGradient><linearGradient id="c" x1="49.95%" x2="49.95%" y1="0%" y2="100%"><stop offset="0%" stop-color="#a9b1bb"/><stop offset="6%" stop-color="#5d6166"/><stop offset="78%" stop-color="#e2eaf2"/><stop offset="93%" stop-color="#9ba1ab"/><stop offset="100%" stop-color="#767b82"/></linearGradient><linearGradient id="d" x1="50%" x2="50%" y1="0%" y2="100.038%"><stop offset="0%" stop-color="#a9b1bb"/><stop offset="6%" stop-color="#5d6166"/><stop offset="78%" stop-color="#e2eaf2"/><stop offset="93%" stop-color="#9ba1ab"/><stop offset="100%" stop-color="#767b82"/></linearGradient><linearGradient id="e" x1="43.856%" x2="53.564%" y1="104.218%" y2="5.323%"><stop offset="0%" stop-color="#a9b1bb"/><stop offset="6%" stop-color="#5d6166"/><stop offset="78%" stop-color="#e2eaf2"/><stop offset="93%" stop-color="#9ba1ab"/><stop offset="100%" stop-color="#767b82"/></linearGradient><linearGradient id="f" x1="50.065%" x2="50.065%" y1="0%" y2="100%"><stop offset="0%" stop-color="#a9b1bb"/><stop offset="6%" stop-color="#5d6166"/><stop offset="78%" stop-color="#e2eaf2"/><stop offset="93%" stop-color="#9ba1ab"/><stop offset="100%" stop-color="#767b82"/></linearGradient><linearGradient id="g" x1="49.935%" x2="49.935%" y1="0%" y2="100%"><stop offset="0%" stop-color="#a9b1bb"/><stop offset="6%" stop-color="#5d6166"/><stop offset="78%" stop-color="#e2eaf2"/><stop offset="93%" stop-color="#9ba1ab"/><stop offset="100%" stop-color="#767b82"/></linearGradient></defs><g fill="none" fill-rule="nonzero"><path fill="url(#a)" d="M142.33 0H150v57.83h-7.67z"/><path fill="url(#b)" d="M137.47 12.49h4.86v32.85h-4.86z"/><path fill="url(#c)" d="M7.67 9h20.02v39.83H7.67z" transform="matrix(-1 0 0 -1 35.36 57.83)"/><path fill="url(#d)" d="M64.89 15.6h72.58v26.64H64.89z" transform="matrix(-1 0 0 -1 202.36 57.84)"/><path fill="url(#e)" d="m27.69 48.83 37.2-6.57v-26.7L27.69 9z"/><path fill="url(#f)" d="M0 0h7.67v57.83H0z" transform="matrix(-1 0 0 -1 7.67 57.83)"/><path fill="url(#g)" d="M20.01 0h7.67v57.83h-7.67z" transform="matrix(-1 0 0 -1 47.69 57.83)"/></g></svg>