<svg xmlns="http://www.w3.org/2000/svg" viewBox="0 0 44 150"><title>Vortex meter(涡流计)</title><defs><linearGradient id="a" x1="50.015%" x2="50.015%" y1="98.619%" y2="-1.268%"><stop offset="0%" stop-color="#a9b1bb"/><stop offset="6%" stop-color="#5d6166"/><stop offset="78%" stop-color="#e2eaf2"/><stop offset="93%" stop-color="#9ba1ab"/><stop offset="100%" stop-color="#767b82"/></linearGradient><linearGradient id="b" x1="0%" x2="99.932%" y1="50%" y2="50%"><stop offset="0%" stop-color="#a9b1bb"/><stop offset="6%" stop-color="#5d6166"/><stop offset="78%" stop-color="#e2eaf2"/><stop offset="93%" stop-color="#9ba1ab"/><stop offset="100%" stop-color="#767b82"/></linearGradient><linearGradient id="c" x1="50%" x2="50%" y1="99.951%" y2="0%"><stop offset="0%" stop-color="#a9b1bb"/><stop offset="6%" stop-color="#5d6166"/><stop offset="78%" stop-color="#e2eaf2"/><stop offset="93%" stop-color="#9ba1ab"/><stop offset="100%" stop-color="#767b82"/></linearGradient><linearGradient id="d" x1="99.643%" x2="-.357%" y1="49.975%" y2="49.975%"><stop offset="0%" stop-color="#9ba1ab" stop-opacity="0"/><stop offset="100%" stop-color="#2e3033"/></linearGradient><linearGradient id="e" x1="7.59%" x2="108.034%" y1="50.407%" y2="50.407%"><stop offset="0%" stop-color="#a9b1bb"/><stop offset="6%" stop-color="#5d6166"/><stop offset="78%" stop-color="#e2eaf2"/><stop offset="93%" stop-color="#9ba1ab"/><stop offset="100%" stop-color="#767b82"/></linearGradient><linearGradient id="f" x1="49.921%" x2="49.921%" y1="100.043%" y2=".043%"><stop offset="0%" stop-color="#a9b1bb"/><stop offset="100%" stop-color="#e2eaf2"/></linearGradient><linearGradient id="g" x1="50%" x2="50%" y1="0%" y2="100%"><stop offset="0%" stop-color="#767b82"/><stop offset="7%" stop-color="#9ba1ab"/><stop offset="22%" stop-color="#e2eaf2"/><stop offset="94%" stop-color="#5d6166"/><stop offset="100%" stop-color="#a9b1bb"/></linearGradient><linearGradient id="h" x1="65.176%" x2="15.118%" y1="55.961%" y2="36.284%"><stop offset="0%" stop-color="#e6f1ff" stop-opacity="0"/><stop offset="26%" stop-color="#e6f1ff" stop-opacity=".01"/><stop offset="40%" stop-color="#e6f1ff" stop-opacity=".04"/><stop offset="51%" stop-color="#e7f1ff" stop-opacity=".09"/><stop offset="60%" stop-color="#e7f2ff" stop-opacity=".17"/><stop offset="69%" stop-color="#e8f2ff" stop-opacity=".26"/><stop offset="76%" stop-color="#e9f2ff" stop-opacity=".38"/><stop offset="83%" stop-color="#eaf3ff" stop-opacity=".53"/><stop offset="90%" stop-color="#ecf3ff" stop-opacity=".69"/><stop offset="96%" stop-color="#edf4ff" stop-opacity=".87"/><stop offset="100%" stop-color="#eef4ff"/></linearGradient><linearGradient id="i" x1="49.977%" x2="49.977%" y1="100%" y2="0%"><stop offset="0%" stop-color="#5c6066"/><stop offset="100%" stop-color="#f5faff"/></linearGradient><linearGradient id="j" x1="50.023%" x2="50.023%" y1="100%" y2="0%"><stop offset="0%" stop-color="#8a9099"/><stop offset="100%" stop-color="#f5faff"/></linearGradient><linearGradient id="k" x1="85.651%" x2="14.94%" y1="13.956%" y2="84.667%"><stop offset="0%" stop-color="#9ba1ab"/><stop offset="0%" stop-color="#abb1ba"/><stop offset="9%" stop-color="#abb1ba"/><stop offset="46%" stop-color="#f5faff"/><stop offset="100%" stop-color="#a9b1bb"/></linearGradient><linearGradient id="l" x1="68706.849%" x2="68706.849%" y1="-34127.397%" y2="-34026.712%"><stop offset="0%" stop-color="#9ba1ab"/><stop offset="0%" stop-color="#abb1ba"/><stop offset="9%" stop-color="#abb1ba"/><stop offset="46%" stop-color="#f5faff"/><stop offset="100%" stop-color="#a9b1bb"/></linearGradient><linearGradient id="m" x1="13.956%" x2="84.667%" y1="15.034%" y2="85.745%"><stop offset="0%" stop-color="#9ba1ab"/><stop offset="0%" stop-color="#abb1ba"/><stop offset="9%" stop-color="#abb1ba"/><stop offset="46%" stop-color="#f5faff"/><stop offset="100%" stop-color="#a9b1bb"/></linearGradient><linearGradient id="n" x1="13.956%" x2="85.151%" y1="14.901%" y2="86.096%"><stop offset="0%" stop-color="#9ba1ab"/><stop offset="0%" stop-color="#abb1ba"/><stop offset="9%" stop-color="#abb1ba"/><stop offset="46%" stop-color="#f5faff"/><stop offset="100%" stop-color="#a9b1bb"/></linearGradient><linearGradient id="o" x1="50%" x2="50%" y1="100%" y2="0%"><stop offset="0%" stop-color="#494a4d"/><stop offset="100%" stop-color="#17181a"/></linearGradient></defs><g fill="none" fill-rule="nonzero" transform="translate(.16)"><path fill="url(#a)" d="M5.2 99.52h33.41V150H5.2z"/><path fill="url(#b)" d="M14.28 37.31h14.73v51.38H14.28z"/><path fill="url(#c)" d="M17.995 81.285h7.26v20.39h-7.26z" transform="rotate(90 21.625 91.48)"/><path fill="url(#d)" d="M18.82 80.46h5.61v20.39h-5.61z" opacity=".2" transform="rotate(90 21.625 90.655)"/><path fill="url(#e)" d="m11.49 87.85 2.81-2.37 14.7-.09 2.78 2.46z"/><path fill="url(#f)" d="M18.5 86.56h6.29v23.41H18.5z" transform="rotate(90 21.645 98.265)"/><path fill="url(#g)" d="M39.59 9.51H0v3.93h43.18V9.51z"/><path fill="url(#h)" d="M13.14 24.99V18.3h17z"/><path fill="url(#i)" d="M43.21 19.9C42.361 9.399 34.073 1.034 23.58.09 22.94 0 22.29 0 21.64 0s-1 0-1.55.06C9.442.834.95 9.259.09 19.9c0 .58-.07 1.16-.07 1.75s0 1.16.07 1.73c.855 10.645 9.349 19.075 20 19.85.51 0 1 .05 1.55.05s1.3 0 1.94-.08c10.497-.945 18.786-9.315 19.63-19.82.05-.57.07-1.15.07-1.73s-.02-1.17-.07-1.75M21.64 37.36a15.72 15.72 0 1 1 15.72-15.71c-.011 8.676-7.044 15.704-15.72 15.71"/><path fill="url(#j)" d="M43.21 19.9h-3.37A18.34 18.34 0 0 0 23.58 3.44V.09C22.94 0 22.29 0 21.64 0s-1 0-1.55.06v3.35A18.33 18.33 0 0 0 3.42 19.9H.07c0 .58-.07 1.16-.07 1.75s0 1.16.07 1.73h3.35a18.34 18.34 0 0 0 16.67 16.5v3.35c.51 0 1 .05 1.55.05s1.3 0 1.94-.08v-3.36a18.33 18.33 0 0 0 16.26-16.46h3.35c.05-.57.07-1.15.07-1.73s0-1.17-.05-1.75"/><circle cx="1.74" cy="21.51" r="1" fill="url(#k)" stroke="#505458" stroke-width=".08"/><path fill="#505458" d="m1.47 21.15.28.29.29-.29.06.06-.26.29.29.28h-.06l-.28-.28-.31.31-.06-.06.31-.31-.28-.29z"/><circle cx="41.93" cy="21.51" r="1" fill="url(#l)" stroke="#505458" stroke-width=".08"/><path fill="#505458" d="m41.66 21.15.28.29.29-.29.06.06-.29.29.28.28-.28-.28-.31.31-.06-.06.31-.31z"/><circle cx="21.84" cy="41.6" r="1" fill="url(#m)" stroke="#505458" stroke-width=".08"/><path fill="#505458" d="m21.48 41.88.29-.29-.29-.28.06-.06.29.28.28-.28h.05l-.28.28.31.31-.06.06-.29-.26-.29.29z"/><circle cx="21.84" cy="1.41" r="1" fill="url(#n)" stroke="#505458" stroke-width=".08"/><path fill="#505458" d="m21.48 1.69.29-.29-.29-.28.06-.06.29.28.28-.28.05.05-.32.28.31.32-.06.06-.25-.32-.29.29z"/><path fill="url(#o)" d="M35.53 21.65c-.006 7.67-6.227 13.884-13.897 13.88S7.748 29.307 7.75 21.637 13.97 7.75 21.64 7.75c7.673.006 13.89 6.227 13.89 13.9"/><path fill="#a3b372" d="M12.37 15.06h18.54v13.16H12.37z"/><path fill="#646e46" d="M30.64 15.33V28h-18V15.33zm.54-.54H12.1v13.7h19.08z"/><path fill="#fff" d="M31.5 11.85c-.19.42-.37.84-.58 1.25A38.2 38.2 0 0 1 13.1 30.92c-.31.15-.63.3-1 .44l-.26.14A13.898 13.898 0 1 1 31.5 11.85" opacity=".1"/><path fill="#fff" d="M30.92 13.1A38.2 38.2 0 0 1 13.1 30.92c-4.94-5.25-5.1-13.27-.28-18.1s12.86-4.67 18.1.28" opacity=".1"/></g></svg>