<svg xmlns="http://www.w3.org/2000/svg" xml:space="preserve" id="图层_1" x="0" y="0" viewBox="0 0 22.7 25"><style>.st0{fill:none;stroke:#fff;stroke-miterlimit:10}</style><path d="M3.4 2.3 5 3.9m-2.7-.5L3.9 5M5 3.2v.7h-.7m-.4.4V5h-.7m19.5 7.5c0 5.6-4.6 10.2-10.2 10.2S2.3 18.1 2.3 12.5 6.9 2.3 12.5 2.3s10.2 4.5 10.2 10.2M0 12.5h9.1" class="st0"/><path d="m9.1 9.1 6.8-6.2V0M9.1 15.9l6.8 6.2V25" class="st0"/><path d="m12.3 20.2 3.4 1.7-1.9-3.2zM0 0" class="st0"/><path d="M9.1 6.8v11.4" style="fill:none;stroke:#fff;stroke-miterlimit:10;stroke-width:2"/></svg>