<svg xmlns="http://www.w3.org/2000/svg" viewBox="0 0 150 72"><title>Fan-powered terminal unit(风机供电终端装置)</title><defs><linearGradient id="a" x1="0%" x2="100%" y1="50%" y2="50%"><stop offset="0%" stop-color="#767b82"/><stop offset="7%" stop-color="#9ba1ab"/><stop offset="22%" stop-color="#e2eaf2"/><stop offset="28%" stop-color="#d1d8e0"/><stop offset="49%" stop-color="#a1a7ae"/><stop offset="67%" stop-color="#7e8489"/><stop offset="81%" stop-color="#696e73"/><stop offset="91%" stop-color="#61666b"/><stop offset="100%" stop-color="#a9b1bb"/></linearGradient><linearGradient id="b" x1="38.347%" x2="61.653%" y1="16.335%" y2="83.665%"><stop offset="7%" stop-color="#9ba1ab"/><stop offset="22%" stop-color="#e2eaf2"/><stop offset="28%" stop-color="#d1d8e0"/><stop offset="49%" stop-color="#a1a7ae"/><stop offset="67%" stop-color="#7e8489"/><stop offset="81%" stop-color="#696e73"/><stop offset="91%" stop-color="#61666b"/></linearGradient><linearGradient id="c" x1="50%" x2="50%" y1="-.884%" y2="100.902%"><stop offset="0%" stop-color="#ccd1d5"/><stop offset="100%" stop-color="#90969f"/></linearGradient><linearGradient id="d" x1="50%" x2="50%" y1="-.989%" y2="100.989%"><stop offset="0%" stop-color="#ccd1d5"/><stop offset="100%" stop-color="#90969f"/></linearGradient><linearGradient id="e" x1="50%" x2="50%" y1="100%" y2="0%"><stop offset="0%" stop-color="#9ba1ab"/><stop offset="0%" stop-color="#abb1ba"/><stop offset="9%" stop-color="#abb1ba"/><stop offset="46%" stop-color="#d7dce0"/><stop offset="100%" stop-color="#a9b1bb"/></linearGradient><linearGradient id="f" x1="50%" x2="50%" y1="3841.139%" y2="3941.139%"><stop offset="0%" stop-color="#9ba1ab"/><stop offset="0%" stop-color="#abb1ba"/><stop offset="9%" stop-color="#abb1ba"/><stop offset="46%" stop-color="#d7dce0"/><stop offset="100%" stop-color="#a9b1bb"/></linearGradient><linearGradient id="g" x1="50%" x2="50%" y1="-4705.696%" y2="-4605.696%"><stop offset="0%" stop-color="#9ba1ab"/><stop offset="0%" stop-color="#abb1ba"/><stop offset="9%" stop-color="#abb1ba"/><stop offset="46%" stop-color="#d7dce0"/><stop offset="100%" stop-color="#a9b1bb"/></linearGradient><linearGradient id="h" x1="49.986%" x2="49.986%" y1="99.138%" y2="-.862%"><stop offset="0%" stop-color="#a9b1bb"/><stop offset="9%" stop-color="#2e3033"/><stop offset="19%" stop-color="#36383b"/><stop offset="34%" stop-color="#4b4d51"/><stop offset="53%" stop-color="#6d7176"/><stop offset="74%" stop-color="#9da1a8"/><stop offset="78%" stop-color="#a7acb3"/><stop offset="93%" stop-color="#747880"/><stop offset="100%" stop-color="#46494d"/></linearGradient><linearGradient id="i" x1="98.677%" x2=".308%" y1="1.694%" y2="99.84%"><stop offset="0%" stop-color="#b7b7b7"/><stop offset="3%" stop-color="#9b9d9d"/><stop offset="7%" stop-color="#878b8b"/><stop offset="9%" stop-color="#808484"/><stop offset="18%" stop-color="#a3a6a6"/><stop offset="40%" stop-color="#f6f6f6"/><stop offset="54%" stop-color="#d9d9d9"/><stop offset="84%" stop-color="#8f8f8f"/><stop offset="100%" stop-color="#666"/></linearGradient><linearGradient id="j" x1="1.347%" x2="99.737%" y1="98.275%" y2=".132%"><stop offset="0%" stop-color="#b7b7b7"/><stop offset="3%" stop-color="#9b9d9d"/><stop offset="7%" stop-color="#878b8b"/><stop offset="9%" stop-color="#808484"/><stop offset="18%" stop-color="#a3a6a6"/><stop offset="40%" stop-color="#f6f6f6"/><stop offset="54%" stop-color="#d9d9d9"/><stop offset="84%" stop-color="#8f8f8f"/><stop offset="100%" stop-color="#666"/></linearGradient><linearGradient id="k" x1="98.334%" x2=".083%" y1="98.702%" y2=".29%"><stop offset="0%" stop-color="#b7b7b7"/><stop offset="3%" stop-color="#9b9d9d"/><stop offset="7%" stop-color="#878b8b"/><stop offset="9%" stop-color="#808484"/><stop offset="18%" stop-color="#a3a6a6"/><stop offset="40%" stop-color="#f6f6f6"/><stop offset="54%" stop-color="#d9d9d9"/><stop offset="84%" stop-color="#8f8f8f"/><stop offset="100%" stop-color="#666"/></linearGradient><linearGradient id="l" x1="1.608%" x2="99.882%" y1="1.29%" y2="99.703%"><stop offset="0%" stop-color="#b7b7b7"/><stop offset="3%" stop-color="#9b9d9d"/><stop offset="7%" stop-color="#878b8b"/><stop offset="9%" stop-color="#808484"/><stop offset="18%" stop-color="#a3a6a6"/><stop offset="40%" stop-color="#f6f6f6"/><stop offset="54%" stop-color="#d9d9d9"/><stop offset="84%" stop-color="#8f8f8f"/><stop offset="100%" stop-color="#666"/></linearGradient><linearGradient id="m" x1="85.469%" x2="14.629%" y1="14.523%" y2="85.363%"><stop offset="0%" stop-color="#e2eaf2"/><stop offset="100%" stop-color="#767b82"/></linearGradient><linearGradient id="n" x1="85.319%" x2="14.903%" y1="14.663%" y2="85.079%"><stop offset="0%" stop-color="#82888f"/><stop offset="17%" stop-color="#9ea4af"/><stop offset="100%" stop-color="#767b82"/></linearGradient></defs><g fill="none" fill-rule="evenodd"><path fill="url(#a)" fill-rule="nonzero" d="M11.85 0H150v71.14H11.85z"/><path stroke="#222a34" stroke-width=".5" d="M81.55 71.14V0" opacity=".6"/><path fill="url(#b)" fill-rule="nonzero" d="M0 18.46h11.85v34.22H0z"/><path fill="#222a34" fill-rule="nonzero" stroke="url(#c)" d="M101.26 7.28h44.54v56.57h-44.54z"/><circle cx="47.75" cy="35.57" r="25.29" fill="#222a34" fill-rule="nonzero"/><circle cx="47.75" cy="35.57" r="25.29" stroke="url(#d)"/><circle cx="29.53" cy="1.81" r="1" fill="url(#e)" fill-rule="nonzero" stroke="#505458" stroke-width=".25"/><circle cx="64.29" cy="1.81" r="1" fill="url(#f)" fill-rule="nonzero" stroke="#505458" stroke-width=".25"/><circle cx="99.04" cy="1.81" r="1" fill="url(#f)" fill-rule="nonzero" stroke="#505458" stroke-width=".25"/><circle cx="133.8" cy="1.81" r="1" fill="url(#f)" fill-rule="nonzero" stroke="#505458" stroke-width=".25"/><circle cx="29.53" cy="69.33" r="1" fill="url(#g)" fill-rule="nonzero" stroke="#505458" stroke-width=".25"/><circle cx="64.29" cy="69.33" r="1" fill="url(#g)" fill-rule="nonzero" stroke="#505458" stroke-width=".25"/><circle cx="99.04" cy="69.33" r="1" fill="url(#g)" fill-rule="nonzero" stroke="#505458" stroke-width=".25"/><circle cx="133.8" cy="69.33" r="1" fill="url(#g)" fill-rule="nonzero" stroke="#505458" stroke-width=".25"/><path fill="url(#h)" fill-rule="nonzero" d="M11.85 35h35.81a.58.58 0 1 1 0 1.16H11.85z"/><path fill="#222a34" fill-rule="nonzero" d="M46.35 33.54a5 5 0 0 1-.6.6l-.3-.22a3.3 3.3 0 0 1 .38-.46l.3-.27a3 3 0 0 1 .22.35m.14 4.08-.21.3a3 3 0 0 1-.45-.37c-.1-.1-.18-.2-.27-.3a1.8 1.8 0 0 1 .35-.21s.62.54.58.58m3.43-4.16a3 3 0 0 1 .37.45l-.3.22-.59-.59a3 3 0 0 1 .21-.34q.169.113.31.26m0 4.09a2.7 2.7 0 0 1-.46.37 4 4 0 0 1-.22-.3l.59-.59q.19.094.36.22c-.09.1-.19.2-.27.3" opacity=".5"/><path fill="url(#i)" fill-rule="nonzero" d="M59.78 21.67c.4-.4 2.93-2.92 3.89-2s-1.56 3.48-2 3.88-13.56 12.32-13.9 12 11.61-13.48 12.01-13.88"/><path fill="url(#j)" fill-rule="nonzero" d="M35.83 49.47c-.4.4-2.92 2.92-3.89 2s1.56-3.48 2-3.88 13.55-12.32 13.9-12-11.61 13.48-12.01 13.88"/><path fill="url(#k)" fill-rule="nonzero" d="M61.71 47.55c.4.4 2.92 2.92 2 3.88s-3.49-1.56-3.89-2-12.32-13.56-12-13.9 13.49 11.61 13.89 12.02"/><path fill="url(#l)" fill-rule="nonzero" d="M33.91 23.59c-.41-.4-2.93-2.92-2-3.88s3.49 1.56 3.89 2 12.32 13.56 12 13.9S34.31 24 33.91 23.59"/><circle cx="47.87" cy="35.51" r="2.72" fill="url(#m)" fill-rule="nonzero"/><circle cx="47.87" cy="35.51" r="1.2" fill="url(#n)" fill-rule="nonzero"/></g></svg>