<svg xmlns="http://www.w3.org/2000/svg" viewBox="0 0 66 150"><title>Inline air filter(内联空气过滤器)</title><defs><linearGradient id="a" x1="0%" x2="100%" y1="49.965%" y2="49.965%"><stop offset="2%" stop-color="#767b82"/><stop offset="27%" stop-color="#9ba1ab"/><stop offset="69%" stop-color="#f5faff"/><stop offset="91%" stop-color="#a9b1bb"/><stop offset="100%" stop-color="#767b82"/></linearGradient><linearGradient id="b" x1="0%" x2="100%" y1="50%" y2="50%"><stop offset="2%" stop-color="#767b82"/><stop offset="27%" stop-color="#9ba1ab"/><stop offset="69%" stop-color="#f5faff"/><stop offset="91%" stop-color="#a9b1bb"/><stop offset="100%" stop-color="#767b82"/></linearGradient><linearGradient id="c" x1="0%" x2="100%" y1="50.041%" y2="50.041%"><stop offset="0%" stop-color="#63696d"/><stop offset="16%" stop-color="#e2eaf7"/><stop offset="48%" stop-color="#fff"/><stop offset="88%" stop-color="#e2eaf7"/><stop offset="100%" stop-color="#63696d"/></linearGradient><linearGradient id="d" x1="0%" x2="100%" y1="49.966%" y2="49.966%"><stop offset="2%" stop-color="#767b82"/><stop offset="27%" stop-color="#9ba1ab"/><stop offset="69%" stop-color="#f5faff"/><stop offset="91%" stop-color="#a9b1bb"/><stop offset="100%" stop-color="#767b82"/></linearGradient><linearGradient id="e" x1="0%" x2="100.031%" y1="50%" y2="50%"><stop offset="0%" stop-color="#0b0c0d"/><stop offset="27%" stop-color="#2e3033"/><stop offset="69%" stop-color="#c4c8cc"/><stop offset="91%" stop-color="#2e3033"/><stop offset="100%" stop-color="#0b0c0d"/></linearGradient><linearGradient id="f" x1="0%" x2="99.937%" y1="49.986%" y2="49.986%"><stop offset="2%" stop-color="#767b82"/><stop offset="27%" stop-color="#9ba1ab"/><stop offset="61%" stop-color="#d7dce0"/><stop offset="91%" stop-color="#a9b1bb"/><stop offset="100%" stop-color="#767b82"/></linearGradient><linearGradient id="g" x1="0%" x2="100.031%" y1="49.98%" y2="49.98%"><stop offset="0%" stop-color="#cca549"/><stop offset="22%" stop-color="#ccb06e"/><stop offset="64%" stop-color="#eae7f7"/><stop offset="88%" stop-color="#ccb06e"/><stop offset="100%" stop-color="#cca549"/></linearGradient><linearGradient id="h" x1="0%" x2="100%" y1="49.966%" y2="49.966%"><stop offset="2%" stop-color="#767b82"/><stop offset="27%" stop-color="#9ba1ab"/><stop offset="69%" stop-color="#f5faff"/><stop offset="91%" stop-color="#a9b1bb"/><stop offset="100%" stop-color="#767b82"/></linearGradient><linearGradient id="i" x1="0%" x2="100%" y1="50%" y2="50%"><stop offset="0%" stop-color="#afb9c1"/><stop offset="6%" stop-color="#e2eaf7"/><stop offset="48%" stop-color="#fff"/><stop offset="92%" stop-color="#e2eaf7"/><stop offset="100%" stop-color="#afb9c1"/></linearGradient><linearGradient id="j" x1="0%" x2="100%" y1="50.028%" y2="50.028%"><stop offset="2%" stop-color="#767b82"/><stop offset="27%" stop-color="#9ba1ab"/><stop offset="69%" stop-color="#f5faff"/><stop offset="91%" stop-color="#a9b1bb"/><stop offset="100%" stop-color="#767b82"/></linearGradient><linearGradient id="k" x1="0%" x2="100%" y1="50.034%" y2="50.034%"><stop offset="2%" stop-color="#767b82"/><stop offset="27%" stop-color="#9ba1ab"/><stop offset="69%" stop-color="#f5faff"/><stop offset="91%" stop-color="#a9b1bb"/><stop offset="100%" stop-color="#767b82"/></linearGradient><linearGradient id="l" x1="0%" x2="100%" y1="49.767%" y2="49.767%"><stop offset="0%" stop-color="#afb9c1"/><stop offset="16%" stop-color="#e2eaf7"/><stop offset="48%" stop-color="#fff"/><stop offset="88%" stop-color="#e2eaf7"/><stop offset="100%" stop-color="#afb9c1"/></linearGradient><linearGradient id="m" x1="0%" x2="100%" y1="49.995%" y2="49.995%"><stop offset="0%" stop-color="#63696d"/><stop offset="16%" stop-color="#e2eaf7"/><stop offset="48%" stop-color="#fff"/><stop offset="88%" stop-color="#e2eaf7"/><stop offset="100%" stop-color="#63696d"/></linearGradient><linearGradient id="n" x1="0%" x2="100%" y1="27.368%" y2="27.368%"><stop offset="0%" stop-color="#63696d"/><stop offset="16%" stop-color="#e2eaf7"/><stop offset="48%" stop-color="#fff"/><stop offset="88%" stop-color="#e2eaf7"/><stop offset="100%" stop-color="#63696d"/></linearGradient><linearGradient id="o" x1="0%" x2="100%" y1="50%" y2="50%"><stop offset="0%" stop-color="#4c4e51"/><stop offset="19%" stop-color="#252628"/><stop offset="63%" stop-color="#b5bcc4"/><stop offset="100%" stop-color="#252628"/></linearGradient><linearGradient id="p" x1="0%" x2="100.031%" y1="50%" y2="50%"><stop offset="0%" stop-color="#4c4e51"/><stop offset="19%" stop-color="#252628"/><stop offset="63%" stop-color="#b5bcc4"/><stop offset="100%" stop-color="#252628"/></linearGradient><linearGradient id="q" x1="0%" x2="99.981%" y1="50%" y2="50%"><stop offset="0%" stop-color="#afb9c1"/><stop offset="16%" stop-color="#e2eaf7"/><stop offset="48%" stop-color="#fff"/><stop offset="88%" stop-color="#e2eaf7"/><stop offset="100%" stop-color="#afb9c1"/></linearGradient></defs><g fill="none" fill-rule="nonzero"><path fill="url(#a)" d="M10.42 114.62h4.25v14.41h-4.25z"/><path fill="url(#b)" d="M9.07 117.89h6.95v7.86H9.07z"/><path fill="url(#c)" d="M8.16 116.91h8.77v12.11H8.16z" opacity=".43"/><path fill="url(#d)" d="M8.26 0h48.7v14.55H8.26z"/><path fill="url(#e)" d="M16.38 25.08h32.45v7.86H16.38z"/><path fill="url(#f)" d="M24.67 82.78h15.89v34.61H24.67z"/><path fill="url(#g)" d="M16.38 32.62h32.45v49.66H16.38z" opacity=".87"/><path fill="url(#h)" d="M0 10.87h65.22v14.55H0z"/><path fill="url(#i)" d="M52.78 75.58H12.12l4.27-42.96h32.12z" opacity=".8"/><path fill="url(#j)" d="M22.99 117.89h19.23v17.89H22.99z"/><path fill="url(#k)" d="M26.34 135.45h12.54V150H26.34z"/><path fill="url(#l)" d="M22.99 133.64h19.23v2.15H22.99z"/><path fill="url(#m)" d="M58.28 117.39H6.09L1.25 25.42h62.71z" opacity=".43"/><path fill="url(#n)" d="M12.12 82.27h40.97v1.33H12.12z" opacity=".43"/><path fill="url(#o)" d="M1.25 24.94h62.71v1.4H1.25z" opacity=".87"/><path fill="url(#p)" d="M16.38 32.94h32.45v1.4H16.38z" opacity=".87"/><path fill="url(#q)" d="M5.9 116.91h52.22v1.4H5.9z"/></g></svg>