<svg xmlns="http://www.w3.org/2000/svg" viewBox="0 0 150 112"><title>Mixed flow inline fan(混流内联风扇)</title><defs><linearGradient id="a" x1="50%" x2="50%" y1="100%" y2="0%"><stop offset="0%" stop-color="#a5afb8"/><stop offset="100%" stop-color="#2f3133"/></linearGradient><linearGradient id="b" x1="50%" x2="50%" y1="0%" y2="100%"><stop offset="0%" stop-color="#767b82"/><stop offset="7%" stop-color="#9ba1ab"/><stop offset="22%" stop-color="#e2eaf2"/><stop offset="24%" stop-color="#dbe3eb"/><stop offset="38%" stop-color="#b7bec5"/><stop offset="53%" stop-color="#9ba1a8"/><stop offset="67%" stop-color="#868c93"/><stop offset="81%" stop-color="#7a7f86"/><stop offset="94%" stop-color="#767b82"/><stop offset="100%" stop-color="#a9b1bb"/></linearGradient><linearGradient id="c" x1="-21.711%" x2="-20.755%" y1="14.005%" y2="86.019%"><stop offset="0%" stop-color="#767b82"/><stop offset="7%" stop-color="#9ba1ab"/><stop offset="22%" stop-color="#e2eaf2"/><stop offset="24%" stop-color="#dbe3eb"/><stop offset="38%" stop-color="#b7bec5"/><stop offset="53%" stop-color="#9ba1a8"/><stop offset="67%" stop-color="#868c93"/><stop offset="81%" stop-color="#7a7f86"/><stop offset="94%" stop-color="#767b82"/><stop offset="100%" stop-color="#a9b1bb"/></linearGradient><linearGradient id="d" x1="50%" x2="50%" y1="0%" y2="100%"><stop offset="0%" stop-color="#767b82"/><stop offset="7%" stop-color="#9ba1ab"/><stop offset="22%" stop-color="#e2eaf2"/><stop offset="94%" stop-color="#767b82"/><stop offset="100%" stop-color="#a9b1bb"/></linearGradient><linearGradient id="e" x1="50.083%" x2="50.083%" y1="0%" y2="100.011%"><stop offset="0%" stop-color="#767b82"/><stop offset="7%" stop-color="#9ba1ab"/><stop offset="22%" stop-color="#e2eaf2"/><stop offset="24%" stop-color="#dbe3eb"/><stop offset="37%" stop-color="#b7bec5"/><stop offset="51%" stop-color="#9ba1a8"/><stop offset="64%" stop-color="#868c93"/><stop offset="77%" stop-color="#7a7f86"/><stop offset="89%" stop-color="#767b82"/><stop offset="90%" stop-color="#858b91"/><stop offset="91%" stop-color="#949aa0"/><stop offset="92%" stop-color="#9ca3a9"/><stop offset="94%" stop-color="#9fa6ac"/><stop offset="97%" stop-color="#979ea4"/><stop offset="100%" stop-color="#949ba1"/></linearGradient><linearGradient id="f" x1="50.208%" x2="50.208%" y1="0%" y2="100.011%"><stop offset="0%" stop-color="#767b82"/><stop offset="7%" stop-color="#9ba1ab"/><stop offset="22%" stop-color="#e2eaf2"/><stop offset="24%" stop-color="#dbe3eb"/><stop offset="37%" stop-color="#b7bec5"/><stop offset="51%" stop-color="#9ba1a8"/><stop offset="64%" stop-color="#868c93"/><stop offset="77%" stop-color="#7a7f86"/><stop offset="89%" stop-color="#767b82"/><stop offset="90%" stop-color="#858b91"/><stop offset="91%" stop-color="#949aa0"/><stop offset="92%" stop-color="#9ca3a9"/><stop offset="94%" stop-color="#9fa6ac"/><stop offset="97%" stop-color="#979ea4"/><stop offset="100%" stop-color="#949ba1"/></linearGradient></defs><g fill="none" fill-rule="nonzero"><path fill="url(#a)" d="M109.66 91.59H45.12v7.87h64.54z"/><path fill="url(#b)" d="M150 48.58c0 20.51-2.51 37.41-5.77 39.88v.33H14l-8.23-.33C2.51 86 0 69.09 0 48.58s5.77-40.2 5.77-40.2h138.46v.33c3.26 2.46 5.77 19.37 5.77 39.87"/><path fill="#000" d="M129.87 48.58a273 273 0 0 1-3.35 40.21h-103a273 273 0 0 1-3.35-40.21 279 279 0 0 1 3.3-40.2h103.1a279 279 0 0 1 3.3 40.2" opacity=".3"/><path fill="url(#c)" d="M127.31 48.58a273 273 0 0 1-4 44.2h-96.6a273 273 0 0 1-4-44.2 280 280 0 0 1 4-44.58h96.58a280 280 0 0 1 4.02 44.58"/><path fill="#000" d="M52.34 94.4H42s-.11-.56-.28-1.62a290 290 0 0 1-4-45.38A296 296 0 0 1 41.35 4h10.33a294 294 0 0 0-3.62 43.4 290 290 0 0 0 4 45.38c.18 1.06.28 1.62.28 1.62m45.37 0H108s.11-.56.28-1.62a290 290 0 0 0 4-45.38A296 296 0 0 0 108.7 4H98.38A296 296 0 0 1 102 47.4a290 290 0 0 1-4 45.38z" opacity=".3"/><path fill="url(#d)" d="m124.68 92.74-8.82 15.7a5.46 5.46 0 0 1-4.89 3.3H39.24a5.46 5.46 0 0 1-4.9-3.3l-8.65-15.78-.37-8.72h24.82l5.68 13.86a2.59 2.59 0 0 0 2.32 1.66h33.92a2.58 2.58 0 0 0 2.32-1.66l5.68-13.86h24.62z"/><path fill="url(#e)" d="M45.51 47.39a290 290 0 0 0 4.28 47H42a291 291 0 0 1-4.27-47A298.6 298.6 0 0 1 42 0h7.77a298 298 0 0 0-4.26 47.39"/><path fill="url(#f)" d="M104.54 47.39a291 291 0 0 1-4.27 47H108a291 291 0 0 0 4.27-47A298.6 298.6 0 0 0 108 0h-7.76a298.6 298.6 0 0 1 4.3 47.39"/></g></svg>