<svg xmlns="http://www.w3.org/2000/svg" viewBox="0 0 124 150"><title>Reciprocating compressor(往复式压缩机)</title><defs><linearGradient id="a" x1="49.975%" x2="49.975%" y1="100%" y2="0%"><stop offset="0%" stop-color="#767b82"/><stop offset="48%" stop-color="#9ba1ab"/><stop offset="80%" stop-color="#d7dce0"/><stop offset="100%" stop-color="#767b82"/></linearGradient><linearGradient id="b" x1="50.018%" x2="50.018%" y1="100.274%" y2=".274%"><stop offset="0%" stop-color="#767b82"/><stop offset="48%" stop-color="#9ba1ab"/><stop offset="80%" stop-color="#d7dce0"/><stop offset="100%" stop-color="#767b82"/></linearGradient><linearGradient id="c" x1="32.883%" x2="-67.124%" y1="39.034%" y2="39.034%"><stop offset="0%" stop-color="#767b82"/><stop offset="48%" stop-color="#9ba1ab"/><stop offset="80%" stop-color="#d7dce0"/><stop offset="100%" stop-color="#767b82"/></linearGradient><linearGradient id="d" x1="-16.95%" x2="-16.95%" y1="-11.23%" y2="88.548%"><stop offset="0%" stop-color="#2e3033"/><stop offset="100%" stop-color="#9ba1ab" stop-opacity="0"/></linearGradient><linearGradient id="e" x1="66.688%" x2="166.696%" y1="39.034%" y2="39.034%"><stop offset="0%" stop-color="#767b82"/><stop offset="48%" stop-color="#9ba1ab"/><stop offset="80%" stop-color="#d7dce0"/><stop offset="100%" stop-color="#767b82"/></linearGradient><linearGradient id="f" x1="116.863%" x2="116.863%" y1="-11.23%" y2="88.548%"><stop offset="0%" stop-color="#2e3033"/><stop offset="100%" stop-color="#9ba1ab" stop-opacity="0"/></linearGradient><linearGradient id="g" x1="100%" x2="0%" y1="49.861%" y2="49.861%"><stop offset="0%" stop-color="#767b82"/><stop offset="48%" stop-color="#9ba1ab"/><stop offset="80%" stop-color="#d7dce0"/><stop offset="100%" stop-color="#767b82"/></linearGradient><linearGradient id="h" x1="0%" x2="100.01%" y1="49.996%" y2="49.996%"><stop offset="0%" stop-color="#767b82"/><stop offset="48%" stop-color="#9ba1ab"/><stop offset="80%" stop-color="#d7dce0"/><stop offset="100%" stop-color="#767b82"/></linearGradient><linearGradient id="i" x1="100.01%" x2="0%" y1="50.004%" y2="50.004%"><stop offset="0%" stop-color="#767b82"/><stop offset="7%" stop-color="#9ba1ab"/><stop offset="22%" stop-color="#e2eaf2"/><stop offset="28%" stop-color="#d1d8e0"/><stop offset="49%" stop-color="#a1a7ae"/><stop offset="67%" stop-color="#7e8489"/><stop offset="81%" stop-color="#696e73"/><stop offset="91%" stop-color="#61666b"/><stop offset="100%" stop-color="#a9b1bb"/></linearGradient><linearGradient id="j" x1="75.246%" x2="24.754%" y1="47.081%" y2="55.599%"><stop offset="0%" stop-color="#767b82"/><stop offset="7%" stop-color="#9ba1ab"/><stop offset="22%" stop-color="#e2eaf2"/><stop offset="28%" stop-color="#d1d8e0"/><stop offset="49%" stop-color="#a1a7ae"/><stop offset="67%" stop-color="#7e8489"/><stop offset="81%" stop-color="#696e73"/><stop offset="91%" stop-color="#61666b"/><stop offset="100%" stop-color="#a9b1bb"/></linearGradient><linearGradient id="k" x1="50%" x2="50%" y1="0%" y2="100%"><stop offset="0%" stop-color="#2e3033"/><stop offset="100%" stop-color="#9ba1ab" stop-opacity="0"/></linearGradient><linearGradient id="l" x1="0%" x2="100%" y1="49.934%" y2="49.934%"><stop offset="0%" stop-color="#767b82"/><stop offset="48%" stop-color="#9ba1ab"/><stop offset="80%" stop-color="#d7dce0"/><stop offset="100%" stop-color="#767b82"/></linearGradient></defs><g fill="none" fill-rule="nonzero"><rect width="19.91" height="3.65" x="100.31" y="49.2" fill="url(#a)" rx="1.82"/><rect width="27.35" height="3.65" x="104.71" y="37.35" fill="url(#b)" rx="1.82" transform="rotate(-90 118.385 39.175)"/><path fill="url(#c)" d="M1.69 138.11h13.77L5.61 150H1.69z"/><path fill="url(#d)" d="M1.69 138.11h13.77L5.61 150H1.69z" opacity=".8"/><path fill="url(#e)" d="M103.28 138.11H89.51L99.36 150h3.92z"/><path fill="url(#f)" d="M103.28 138.11H89.51L99.36 150h3.92z" opacity=".8"/><path fill="url(#g)" d="M113.73 24.57h9.32v3.59h-9.32z" transform="matrix(-1 0 0 -1 236.78 52.73)"/><path fill="url(#h)" d="M1.69 17.12h101.47v120.99H1.69z"/><path fill="url(#i)" d="M1.69 17.12h101.47v120.99H1.69z"/><path fill="url(#j)" d="M103.17 17.12S96.1 0 52.42 0 1.69 17.12 1.69 17.12z"/><path fill="url(#k)" d="M1.69 17.12h101.48v41.72H1.69z" opacity=".2"/><path fill="#222a34" d="M1.69 73.96h101.47v11.15H1.69z" opacity=".8"/><path fill="url(#l)" d="M0 75.76h104.86v7.55H0z"/></g></svg>