<svg xmlns="http://www.w3.org/2000/svg" viewBox="0 0 64 151"><title>Actuator 2(驱动器2)</title><defs><linearGradient id="a" x1="0%" x2="99.957%" y1="49.995%" y2="49.995%"><stop offset="0%" stop-color="#7a8088"/><stop offset="9%" stop-color="#2d2f33"/><stop offset="16%" stop-color="#35373b"/><stop offset="27%" stop-color="#4a4d51"/><stop offset="41%" stop-color="#6d7176"/><stop offset="56%" stop-color="#9da3a8"/><stop offset="62%" stop-color="#b0b7bc"/><stop offset="93%" stop-color="#6d7177"/><stop offset="100%" stop-color="#5c6067"/></linearGradient><linearGradient id="b" x1="14.636%" x2="85.364%" y1="85.364%" y2="14.654%"><stop offset="0%" stop-color="#8a9099"/><stop offset="100%" stop-color="#d7dce0"/></linearGradient><linearGradient id="c" x1="0%" x2="100%" y1="50.98%" y2="50.98%"><stop offset="0%" stop-color="#676b70"/><stop offset="2%" stop-color="#484b4d"/><stop offset="19%" stop-color="#747980"/><stop offset="20%" stop-color="#d1d5db"/><stop offset="79%" stop-color="#c7cfdb"/><stop offset="80%" stop-color="#edf5ff"/><stop offset="81%" stop-color="#c3c7cc"/><stop offset="100%" stop-color="#929599"/></linearGradient><linearGradient id="d" x1="0%" x2="100%" y1="50.118%" y2="50.118%"><stop offset="0%" stop-color="#a9b1bb"/><stop offset="9%" stop-color="#61666b"/><stop offset="18%" stop-color="#696e73"/><stop offset="32%" stop-color="#7e8489"/><stop offset="49%" stop-color="#a1a7ae"/><stop offset="69%" stop-color="#d1d8e0"/><stop offset="75%" stop-color="#e2eaf2"/><stop offset="93%" stop-color="#9ba1ab"/><stop offset="100%" stop-color="#767b82"/></linearGradient><linearGradient id="e" x1="0%" x2="99.937%" y1="49.995%" y2="49.995%"><stop offset="0%" stop-color="#a9b1bb"/><stop offset="9%" stop-color="#61666b"/><stop offset="18%" stop-color="#696e73"/><stop offset="32%" stop-color="#7e8489"/><stop offset="49%" stop-color="#a1a7ae"/><stop offset="69%" stop-color="#d1d8e0"/><stop offset="75%" stop-color="#e2eaf2"/><stop offset="93%" stop-color="#9ba1ab"/><stop offset="100%" stop-color="#767b82"/></linearGradient><linearGradient id="f" x1="85.461%" x2="14.539%" y1="14.539%" y2="85.106%"><stop offset="0%" stop-color="#9ba1ab"/><stop offset="0%" stop-color="#abb1ba"/><stop offset="9%" stop-color="#abb1ba"/><stop offset="46%" stop-color="#d7dce0"/><stop offset="100%" stop-color="#a9b1bb"/></linearGradient><linearGradient id="g" x1="100.027%" x2=".23%" y1="49.902%" y2="49.902%"><stop offset="0%" stop-color="#9ba1ab"/><stop offset="0%" stop-color="#abb1ba"/><stop offset="9%" stop-color="#abb1ba"/><stop offset="46%" stop-color="#d7dce0"/><stop offset="100%" stop-color="#a9b1bb"/></linearGradient><linearGradient id="h" x1="50.102%" x2="50.102%" y1="102.444%" y2="-2.444%"><stop offset="0%" stop-color="#dce1e6"/><stop offset="100%" stop-color="#5c6066"/></linearGradient></defs><g fill="none" fill-rule="nonzero" transform="translate(.006 .446)"><path fill="url(#a)" d="M20.034 57.39h23.39V150h-23.39z"/><path fill="#252628" d="M31.724 0C-4.866 0 .244 45.45.244 45.45h63S68.324 0 31.724 0"/><circle cx="31.724" cy="30.4" r="27.91" fill="url(#b)"/><path fill="#5c6066" d="m24.094 31.8 5.58 5.58 9.33 4.77 6-6.06-19.63-19.65-6.06 6.06zm19.91 3.71a.58.58 0 0 1 0 .82.58.58 0 0 1-.82-.81.57.57 0 0 1 .82-.01m-18-18a.58.58 0 0 1-.405.983.58.58 0 0 1-.405-.983.59.59 0 0 1 .81-.02z"/><path fill="url(#c)" d="M42.279 33.41h2.59v1.02h-2.59z" transform="rotate(225 43.574 33.92)"/><path fill="url(#d)" d="M44.842 29.941h1.17v4.23h-1.17z" transform="rotate(225 45.427 32.056)"/><path fill="url(#c)" d="M26.131 17.268h2.59v1.02h-2.59z" transform="rotate(225 27.426 17.778)"/><path fill="url(#d)" d="M28.702 13.817h1.17v4.23h-1.17z" transform="rotate(225 29.287 15.932)"/><path fill="#dce8f5" d="m41.074 26.91 2.22-8.27-8.29 2.21a10 10 0 1 0 6 6.06z"/><circle cx="31.724" cy="30.4" r="7.47" fill="#252628"/><path fill="url(#e)" d="M.244 45.45h63V137s-7.87 5.14-31.48 5.14S.244 137 .244 137z"/><circle cx="21.634" cy="41.35" r="1.41" fill="url(#f)" stroke="#505458" stroke-width=".1"/><path fill="#505458" d="M21.574 39.94h1v2.82h-1z"/><circle cx="45.764" cy="41.35" r="1.41" fill="url(#g)" stroke="#505458" stroke-width=".1"/><path fill="#505458" d="m46.723 40.314.707.707-1.994 1.994-.707-.707z"/><path fill="#252628" stroke="url(#h)" stroke-width=".25" d="M13.304 106.73h-2.03l-1.44 1.44v2.03l1.44 1.44h2.03l1.44-1.44v-2.03z"/></g></svg>