<svg xmlns="http://www.w3.org/2000/svg" viewBox="0 0 67 151"><title>Actuator 1(驱动器1)</title><defs><linearGradient id="a" x1="68.757%" x2="31.247%" y1="14.228%" y2="85.772%"><stop offset="0%" stop-color="#abafb3"/><stop offset="100%" stop-color="#5c6066"/></linearGradient><linearGradient id="b" x1="50%" x2="50%" y1="102.632%" y2="-2.851%"><stop offset="0%" stop-color="#dce1e6"/><stop offset="100%" stop-color="#5c6066"/></linearGradient><linearGradient id="c" x1="50.155%" x2="50.155%" y1="104.037%" y2="-4.037%"><stop offset="0%" stop-color="#dce1e6"/><stop offset="100%" stop-color="#5c6066"/></linearGradient><linearGradient id="d" x1="50%" x2="50%" y1="102.626%" y2="-2.626%"><stop offset="0%" stop-color="#dce1e6"/><stop offset="100%" stop-color="#5c6066"/></linearGradient><linearGradient id="e" x1="79.934%" x2="20.066%" y1="44.093%" y2="55.907%"><stop offset="0%" stop-color="#d7dce0"/><stop offset="100%" stop-color="#8a9099"/></linearGradient><linearGradient id="f" x1="49.981%" x2="49.981%" y1="100%" y2="0%"><stop offset="0%" stop-color="#abafb3"/><stop offset="100%" stop-color="#45484d"/></linearGradient><linearGradient id="g" x1="50%" x2="50%" y1="100%" y2="0%"><stop offset="0%" stop-color="#abafb3"/><stop offset="100%" stop-color="#45484d"/></linearGradient><linearGradient id="h" x1="0%" x2="100%" y1="49.97%" y2="49.97%"><stop offset="0%" stop-color="#a9b1bb"/><stop offset="9%" stop-color="#61666b"/><stop offset="18%" stop-color="#696e73"/><stop offset="32%" stop-color="#7e8489"/><stop offset="49%" stop-color="#a1a7ae"/><stop offset="69%" stop-color="#d1d8e0"/><stop offset="75%" stop-color="#e2eaf2"/><stop offset="93%" stop-color="#9ba1ab"/><stop offset="100%" stop-color="#767b82"/></linearGradient><linearGradient id="i" x1="-.415%" x2="99.585%" y1="49.474%" y2="49.474%"><stop offset="0%" stop-color="#676b70"/><stop offset="2%" stop-color="#484b4d"/><stop offset="19%" stop-color="#747980"/><stop offset="20%" stop-color="#d1d5db"/><stop offset="79%" stop-color="#c7cfdb"/><stop offset="80%" stop-color="#edf5ff"/><stop offset="81%" stop-color="#c3c7cc"/><stop offset="100%" stop-color="#929599"/></linearGradient><linearGradient id="j" x1="0%" x2="100%" y1="49.746%" y2="49.746%"><stop offset="0%" stop-color="#a9b1bb"/><stop offset="9%" stop-color="#61666b"/><stop offset="18%" stop-color="#696e73"/><stop offset="32%" stop-color="#7e8489"/><stop offset="49%" stop-color="#a1a7ae"/><stop offset="69%" stop-color="#d1d8e0"/><stop offset="75%" stop-color="#e2eaf2"/><stop offset="93%" stop-color="#9ba1ab"/><stop offset="100%" stop-color="#767b82"/></linearGradient><linearGradient id="k" x1="0%" x2="100%" y1="49.474%" y2="49.474%"><stop offset="0%" stop-color="#676b70"/><stop offset="2%" stop-color="#484b4d"/><stop offset="19%" stop-color="#747980"/><stop offset="20%" stop-color="#d1d5db"/><stop offset="79%" stop-color="#c7cfdb"/><stop offset="80%" stop-color="#edf5ff"/><stop offset="81%" stop-color="#c3c7cc"/><stop offset="100%" stop-color="#929599"/></linearGradient></defs><g fill="none" fill-rule="nonzero" transform="translate(.01 .446)"><path fill="url(#a)" d="M60.29 126.23H5.9l-5.9-5.9V5.9L5.9 0h54.39l5.89 5.9v114.43z"/><path fill="#252628" stroke="url(#b)" stroke-width=".25" d="M7.53 4.31H5.64L4.31 5.64v1.89l1.33 1.34h1.89l1.34-1.34V5.64z"/><path fill="#252628" stroke="url(#b)" stroke-width=".25" d="M59.74 4.31h-1.89l-1.34 1.33v1.89l1.34 1.34h1.89l1.33-1.34V5.64z"/><path fill="#252628" stroke="url(#b)" stroke-width=".25" d="M7.53 43.74H5.64l-1.33 1.33v1.89l1.33 1.34h1.89l1.34-1.34v-1.89z"/><path fill="#252628" stroke="url(#b)" stroke-width=".25" d="M59.74 43.74h-1.89l-1.34 1.33v1.89l1.34 1.34h1.89l1.33-1.34v-1.89z"/><path fill="#252628" stroke="url(#b)" stroke-width=".25" d="M47.94 92.09h-1.89l-1.33 1.33v1.89l1.33 1.34h1.89l1.34-1.34v-1.89z"/><path fill="#252628" stroke="url(#c)" stroke-width=".25" d="M23.41 69.84h-1.33l-.95.94v1.34l.95.94h1.33l.95-.94v-1.34z"/><path fill="#252628" stroke="url(#d)" stroke-width=".25" d="M7.53 117.84H5.64l-1.33 1.34v1.89l1.33 1.34h1.89l1.34-1.34v-1.89z"/><path fill="#252628" stroke="url(#d)" stroke-width=".25" d="M59.74 117.84h-1.89l-1.34 1.34v1.89l1.34 1.34h1.89l1.33-1.34v-1.89z"/><path fill="url(#e)" d="m66.18 120.13-9.67 6.1H8.87L0 120.13v13.06h66.18z"/><path fill="url(#f)" d="M66.18 128.05v5.14H40.11z"/><path fill="url(#g)" d="M0 128.05v5.14h26.08z"/><path fill="url(#h)" d="M11.79 133.19H27.8V150H11.79z"/><path fill="#f2f2f2" d="M11.79 147.53H27.8V150H11.79z" opacity=".6"/><path fill="url(#h)" d="M38.38 133.19h16.01V150H38.38z"/><path fill="#f2f2f2" d="M38.38 147.53h16.01V150H38.38z" opacity=".6"/><path fill="#252628" d="M31.72 127.2h2.74v5.99h-2.74z"/><path fill="#d1d8dc" d="M23.8 128.82h2.74v2.74H23.8zm15.76 0h2.74v2.74h-2.74z"/><circle cx="31.72" cy="22.06" r="8.39" fill="#5c6066"/><path fill="#b8c2cc" d="M36.2 21.54 31 26.73l-4.44 8.64L32.21 41l18.28-18.27-5.64-5.64zM32.75 40a.54.54 0 0 1-.75 0 .55.55 0 0 1 0-.76.53.53 0 0 1 .75 0 .54.54 0 0 1 0 .76m16.76-16.73a.54.54 0 1 1-.685-.835.54.54 0 0 1 .685.835"/><path fill="url(#i)" d="M33.023 39.178h2.41v1h-2.41z" transform="rotate(-45 34.228 39.653)"/><path fill="url(#j)" d="M35.416 39.423h1.09v3.94h-1.09z" transform="rotate(-45 35.961 41.393)"/><path fill="url(#k)" d="M48.04 24.177h2.41v1h-2.41z" transform="rotate(-45 49.245 24.652)"/><path fill="url(#j)" d="M50.426 24.406h1.09v3.94h-1.09z" transform="rotate(-45 50.971 26.376)"/><circle cx="31.72" cy="22.06" r="4.63" fill="#252628"/><path fill="#252628" d="M49.24 19.6a14 14 0 0 0-1.62-2.5l.37-.25c.513.87.932 1.791 1.25 2.75m-1.93-2.88a18.6 18.6 0 0 0-2.08-2.08l.68-.68a19 19 0 0 1 1.82 2.46zm-2.46-2.39a17.5 17.5 0 0 0-2.39-1.65l.84-1.22a20.6 20.6 0 0 1 2.26 2.11zM42 12.44a21 21 0 0 0-2.61-1.2l.84-1.8a21 21 0 0 1 2.62 1.7zm-3.02-1.36-2.76-.77.71-2.4 2.88 1.28zm-3.22-.86-2.83-.37.47-3 3.04.88zm-3.3-.41-2.85-.03.16-3.55 3.12.51zm-3.33-.02-2.48.21-.16-4 2.75.18z"/></g></svg>