<svg xmlns="http://www.w3.org/2000/svg" viewBox="0 0 151 51"><title>Air curtain(空气幕)</title><defs><linearGradient id="a" x1="82.087%" x2="17.913%" y1="40.901%" y2="59.099%"><stop offset="0%" stop-color="#ebf0f5"/><stop offset="100%" stop-color="#a1a8b3"/></linearGradient><linearGradient id="b" x1="50%" x2="50%" y1="100%" y2="0%"><stop offset="0%" stop-color="#484a4d" stop-opacity="0"/><stop offset="100%" stop-color="#2e3033"/></linearGradient><linearGradient id="c" x1="50.204%" x2="50.204%" y1="106.161%" y2="-5.687%"><stop offset="0%" stop-color="#dce1e6"/><stop offset="100%" stop-color="#5c6066"/></linearGradient><linearGradient id="d" x1="49.796%" x2="49.796%" y1="106.161%" y2="-5.687%"><stop offset="0%" stop-color="#dce1e6"/><stop offset="100%" stop-color="#5c6066"/></linearGradient></defs><g fill="none" fill-rule="evenodd"><path fill="url(#a)" fill-rule="nonzero" d="M0 0h150v42.53H0z" transform="translate(.01 .446)"/><path fill="#a3a9b3" fill-rule="nonzero" d="M.01 43.026h150v7.86H.01z"/><path fill="url(#b)" fill-rule="nonzero" d="M0 42.58h150v3.93H0z" opacity=".3" transform="translate(.01 .446)"/><path fill="#2f3134" fill-rule="nonzero" d="M4.87 11.996h65.06v26.55H4.87z"/><g stroke="#c7ccd0" stroke-width=".13"><path d="M63.79 10.296H75.8v4.7H63.79zm0-4.84H75.8v4.7H63.79zm0-4.84H75.8v4.7H63.79z"/><path d="M63.79 19.976H75.8v4.7H63.79zm0-4.84H75.8v4.7H63.79zm0-4.84H75.8v4.7H63.79z"/><path d="M63.79 29.666H75.8v4.7H63.79zm0-4.85H75.8v4.7H63.79zm0-4.84H75.8v4.7H63.79z"/><path d="M63.79 39.346H75.8v4.7H63.79zm0-4.84H75.8v4.7H63.79zm0-4.84H75.8v4.7H63.79zm-12.15-19.37h12.01v4.7H51.64zm0-4.84h12.01v4.7H51.64zm0-4.84h12.01v4.7H51.64z"/><path d="M51.64 19.976h12.01v4.7H51.64zm0-4.84h12.01v4.7H51.64zm0-4.84h12.01v4.7H51.64z"/><path d="M51.64 29.666h12.01v4.7H51.64zm0-4.85h12.01v4.7H51.64zm0-4.84h12.01v4.7H51.64z"/><path d="M51.64 39.346h12.01v4.7H51.64zm0-4.84h12.01v4.7H51.64zm0-4.84h12.01v4.7H51.64zm-12.15-19.37H51.5v4.7H39.49zm0-4.84H51.5v4.7H39.49zm0-4.84H51.5v4.7H39.49z"/><path d="M39.49 19.976H51.5v4.7H39.49zm0-4.84H51.5v4.7H39.49zm0-4.84H51.5v4.7H39.49z"/><path d="M39.49 29.666H51.5v4.7H39.49zm0-4.85H51.5v4.7H39.49zm0-4.84H51.5v4.7H39.49z"/><path d="M39.49 39.346H51.5v4.7H39.49zm0-4.84H51.5v4.7H39.49zm0-4.84H51.5v4.7H39.49zm-12.14-19.37h12.01v4.7H27.35zm0-4.84h12.01v4.7H27.35zm0-4.84h12.01v4.7H27.35z"/><path d="M27.35 19.976h12.01v4.7H27.35zm0-4.84h12.01v4.7H27.35zm0-4.84h12.01v4.7H27.35z"/><path d="M27.35 29.666h12.01v4.7H27.35zm0-4.85h12.01v4.7H27.35zm0-4.84h12.01v4.7H27.35z"/><path d="M27.35 39.346h12.01v4.7H27.35zm0-4.84h12.01v4.7H27.35zm0-4.84h12.01v4.7H27.35zM15.2 10.296h12.01v4.7H15.2zm0-4.84h12.01v4.7H15.2zm0-4.84h12.01v4.7H15.2z"/><path d="M15.2 19.976h12.01v4.7H15.2zm0-4.84h12.01v4.7H15.2zm0-4.84h12.01v4.7H15.2z"/><path d="M15.2 29.666h12.01v4.7H15.2zm0-4.85h12.01v4.7H15.2zm0-4.84h12.01v4.7H15.2z"/><path d="M15.2 39.346h12.01v4.7H15.2zm0-4.84h12.01v4.7H15.2zm0-4.84h12.01v4.7H15.2zM3.05 10.296h12.01v4.7H3.05zm0-4.84h12.01v4.7H3.05zm0-4.84h12.01v4.7H3.05z"/><path d="M3.05 19.976h12.01v4.7H3.05zm0-4.84h12.01v4.7H3.05zm0-4.84h12.01v4.7H3.05z"/><path d="M3.05 29.666h12.01v4.7H3.05zm0-4.85h12.01v4.7H3.05zm0-4.84h12.01v4.7H3.05z"/><path d="M3.05 39.346h12.01v4.7H3.05zm0-4.84h12.01v4.7H3.05zm0-4.84h12.01v4.7H3.05z"/></g><path fill="#2f3134" fill-rule="nonzero" d="M79.66 11.996h65.06v26.55H79.66z"/><g stroke="#c7ccd0" stroke-width=".13"><path d="M136.68 10.296h12.01v4.7h-12.01zm0-4.84h12.01v4.7h-12.01zm0-4.84h12.01v4.7h-12.01z"/><path d="M136.68 19.976h12.01v4.7h-12.01zm0-4.84h12.01v4.7h-12.01zm0-4.84h12.01v4.7h-12.01z"/><path d="M136.68 29.666h12.01v4.7h-12.01zm0-4.85h12.01v4.7h-12.01zm0-4.84h12.01v4.7h-12.01z"/><path d="M136.68 39.346h12.01v4.7h-12.01zm0-4.84h12.01v4.7h-12.01zm0-4.84h12.01v4.7h-12.01zm-12.15-19.37h12.01v4.7h-12.01zm0-4.84h12.01v4.7h-12.01zm0-4.84h12.01v4.7h-12.01z"/><path d="M124.53 19.976h12.01v4.7h-12.01zm0-4.84h12.01v4.7h-12.01zm0-4.84h12.01v4.7h-12.01z"/><path d="M124.53 29.666h12.01v4.7h-12.01zm0-4.85h12.01v4.7h-12.01zm0-4.84h12.01v4.7h-12.01z"/><path d="M124.53 39.346h12.01v4.7h-12.01zm0-4.84h12.01v4.7h-12.01zm0-4.84h12.01v4.7h-12.01zm-12.15-19.37h12.01v4.7h-12.01zm0-4.84h12.01v4.7h-12.01zm0-4.84h12.01v4.7h-12.01z"/><path d="M112.38 19.976h12.01v4.7h-12.01zm0-4.84h12.01v4.7h-12.01zm0-4.84h12.01v4.7h-12.01z"/><path d="M112.38 29.666h12.01v4.7h-12.01zm0-4.85h12.01v4.7h-12.01zm0-4.84h12.01v4.7h-12.01z"/><path d="M112.38 39.346h12.01v4.7h-12.01zm0-4.84h12.01v4.7h-12.01zm0-4.84h12.01v4.7h-12.01zm-12.14-19.37h12.01v4.7h-12.01zm0-4.84h12.01v4.7h-12.01zm0-4.84h12.01v4.7h-12.01z"/><path d="M100.24 19.976h12.01v4.7h-12.01zm0-4.84h12.01v4.7h-12.01zm0-4.84h12.01v4.7h-12.01z"/><path d="M100.24 29.666h12.01v4.7h-12.01zm0-4.85h12.01v4.7h-12.01zm0-4.84h12.01v4.7h-12.01z"/><path d="M100.24 39.346h12.01v4.7h-12.01zm0-4.84h12.01v4.7h-12.01zm0-4.84h12.01v4.7h-12.01zm-12.15-19.37h12.01v4.7H88.09zm0-4.84h12.01v4.7H88.09zm0-4.84h12.01v4.7H88.09z"/><path d="M88.09 19.976h12.01v4.7H88.09zm0-4.84h12.01v4.7H88.09zm0-4.84h12.01v4.7H88.09z"/><path d="M88.09 29.666h12.01v4.7H88.09zm0-4.85h12.01v4.7H88.09zm0-4.84h12.01v4.7H88.09z"/><path d="M88.09 39.346h12.01v4.7H88.09zm0-4.84h12.01v4.7H88.09zm0-4.84h12.01v4.7H88.09zm-12.15-19.37h12.01v4.7H75.94zm0-4.84h12.01v4.7H75.94zm0-4.84h12.01v4.7H75.94z"/><path d="M75.94 19.976h12.01v4.7H75.94zm0-4.84h12.01v4.7H75.94zm0-4.84h12.01v4.7H75.94z"/><path d="M75.94 29.666h12.01v4.7H75.94zm0-4.85h12.01v4.7H75.94zm0-4.84h12.01v4.7H75.94z"/><path d="M75.94 39.346h12.01v4.7H75.94zm0-4.84h12.01v4.7H75.94zm0-4.84h12.01v4.7H75.94z"/></g><path fill="#252628" fill-rule="nonzero" stroke="url(#c)" stroke-width=".25" d="M7.38 46.51h2.45v2.11H7.38z" transform="translate(.01 .446)"/><path fill="#252628" fill-rule="nonzero" stroke="url(#d)" stroke-width=".25" d="M140.18 46.51h2.45v2.11h-2.45z" transform="translate(.01 .446)"/></g></svg>