<svg xmlns="http://www.w3.org/2000/svg" viewBox="0 0 83 151"><title>Air capture hood(空气捕捉罩)</title><defs><linearGradient id="a" x1="8.851%" x2="85.714%" y1="43.623%" y2="54.068%"><stop offset="0%" stop-color="#a9b1bb"/><stop offset="9%" stop-color="#61666b"/><stop offset="19%" stop-color="#696e73"/><stop offset="34%" stop-color="#7e8489"/><stop offset="52%" stop-color="#a1a7ae"/><stop offset="73%" stop-color="#d0d8e0"/><stop offset="75%" stop-color="#d6dee6"/><stop offset="93%" stop-color="#9ba1ab"/><stop offset="100%" stop-color="#767b82"/></linearGradient><linearGradient id="b" x1="8.851%" x2="85.714%" y1="56.377%" y2="45.895%"><stop offset="0%" stop-color="#a9b1bb"/><stop offset="9%" stop-color="#61666b"/><stop offset="19%" stop-color="#696e73"/><stop offset="34%" stop-color="#7e8489"/><stop offset="52%" stop-color="#a1a7ae"/><stop offset="73%" stop-color="#d0d8e0"/><stop offset="75%" stop-color="#d6dee6"/><stop offset="93%" stop-color="#9ba1ab"/><stop offset="100%" stop-color="#767b82"/></linearGradient><linearGradient id="c" x1="8.622%" x2="83.915%" y1="59.53%" y2="43.734%"><stop offset="0%" stop-color="#a9b1bb"/><stop offset="9%" stop-color="#61666b"/><stop offset="23%" stop-color="#696e73"/><stop offset="45%" stop-color="#7f8489"/><stop offset="71%" stop-color="#a2a8ae"/><stop offset="75%" stop-color="#a7adb3"/><stop offset="93%" stop-color="#9ba1ab"/><stop offset="100%" stop-color="#767b82"/></linearGradient><linearGradient id="d" x1="50%" x2="50%" y1="100%" y2="0%"><stop offset="0%" stop-color="#878d93" stop-opacity="0"/><stop offset="100%" stop-color="#2e3033"/></linearGradient><linearGradient id="e" x1="8.851%" x2="85.714%" y1="56.34%" y2="45.895%"><stop offset="0%" stop-color="#a9b1bb"/><stop offset="9%" stop-color="#61666b"/><stop offset="19%" stop-color="#696e73"/><stop offset="34%" stop-color="#7e8489"/><stop offset="52%" stop-color="#a1a7ae"/><stop offset="73%" stop-color="#d0d8e0"/><stop offset="75%" stop-color="#d6dee6"/><stop offset="93%" stop-color="#9ba1ab"/><stop offset="100%" stop-color="#767b82"/></linearGradient><linearGradient id="f" x1="8.851%" x2="85.714%" y1="43.623%" y2="54.105%"><stop offset="0%" stop-color="#a9b1bb"/><stop offset="9%" stop-color="#61666b"/><stop offset="19%" stop-color="#696e73"/><stop offset="34%" stop-color="#7e8489"/><stop offset="52%" stop-color="#a1a7ae"/><stop offset="73%" stop-color="#d0d8e0"/><stop offset="75%" stop-color="#d6dee6"/><stop offset="93%" stop-color="#9ba1ab"/><stop offset="100%" stop-color="#767b82"/></linearGradient><linearGradient id="g" x1="8.73%" x2="83.826%" y1="40.548%" y2="56.323%"><stop offset="0%" stop-color="#a9b1bb"/><stop offset="9%" stop-color="#61666b"/><stop offset="23%" stop-color="#696e73"/><stop offset="45%" stop-color="#7f8489"/><stop offset="71%" stop-color="#a2a8ae"/><stop offset="75%" stop-color="#a7adb3"/><stop offset="93%" stop-color="#9ba1ab"/><stop offset="100%" stop-color="#767b82"/></linearGradient><linearGradient id="h" x1="50%" x2="50%" y1="0%" y2="99.662%"><stop offset="0%" stop-color="#878d93" stop-opacity="0"/><stop offset="100%" stop-color="#2e3033"/></linearGradient><linearGradient id="i" x1="91.291%" x2="14.308%" y1="43.603%" y2="54.081%"><stop offset="0%" stop-color="#a9b1bb"/><stop offset="9%" stop-color="#61666b"/><stop offset="19%" stop-color="#696e73"/><stop offset="34%" stop-color="#7e8489"/><stop offset="52%" stop-color="#a1a7ae"/><stop offset="73%" stop-color="#d0d8e0"/><stop offset="75%" stop-color="#d6dee6"/><stop offset="93%" stop-color="#9ba1ab"/><stop offset="100%" stop-color="#767b82"/></linearGradient><linearGradient id="j" x1="91.291%" x2="14.308%" y1="56.397%" y2="45.882%"><stop offset="0%" stop-color="#a9b1bb"/><stop offset="9%" stop-color="#61666b"/><stop offset="19%" stop-color="#696e73"/><stop offset="34%" stop-color="#7e8489"/><stop offset="52%" stop-color="#a1a7ae"/><stop offset="73%" stop-color="#d0d8e0"/><stop offset="75%" stop-color="#d6dee6"/><stop offset="93%" stop-color="#9ba1ab"/><stop offset="100%" stop-color="#767b82"/></linearGradient><linearGradient id="k" x1="91.259%" x2="16.193%" y1="59.53%" y2="43.734%"><stop offset="0%" stop-color="#a9b1bb"/><stop offset="9%" stop-color="#61666b"/><stop offset="23%" stop-color="#696e73"/><stop offset="45%" stop-color="#7f8489"/><stop offset="71%" stop-color="#a2a8ae"/><stop offset="75%" stop-color="#a7adb3"/><stop offset="93%" stop-color="#9ba1ab"/><stop offset="100%" stop-color="#767b82"/></linearGradient><linearGradient id="l" x1="50.09%" x2="50.09%" y1="100%" y2="0%"><stop offset="0%" stop-color="#878d93" stop-opacity="0"/><stop offset="100%" stop-color="#2e3033"/></linearGradient><linearGradient id="m" x1="91.291%" x2="14.308%" y1="56.36%" y2="45.882%"><stop offset="0%" stop-color="#a9b1bb"/><stop offset="9%" stop-color="#61666b"/><stop offset="19%" stop-color="#696e73"/><stop offset="34%" stop-color="#7e8489"/><stop offset="52%" stop-color="#a1a7ae"/><stop offset="73%" stop-color="#d0d8e0"/><stop offset="75%" stop-color="#d6dee6"/><stop offset="93%" stop-color="#9ba1ab"/><stop offset="100%" stop-color="#767b82"/></linearGradient><linearGradient id="n" x1="91.291%" x2="14.308%" y1="43.603%" y2="54.118%"><stop offset="0%" stop-color="#a9b1bb"/><stop offset="9%" stop-color="#61666b"/><stop offset="19%" stop-color="#696e73"/><stop offset="34%" stop-color="#7e8489"/><stop offset="52%" stop-color="#a1a7ae"/><stop offset="73%" stop-color="#d0d8e0"/><stop offset="75%" stop-color="#d6dee6"/><stop offset="93%" stop-color="#9ba1ab"/><stop offset="100%" stop-color="#767b82"/></linearGradient><linearGradient id="o" x1="91.151%" x2="16.281%" y1="40.548%" y2="56.323%"><stop offset="0%" stop-color="#a9b1bb"/><stop offset="9%" stop-color="#61666b"/><stop offset="23%" stop-color="#696e73"/><stop offset="45%" stop-color="#7f8489"/><stop offset="71%" stop-color="#a2a8ae"/><stop offset="75%" stop-color="#a7adb3"/><stop offset="93%" stop-color="#9ba1ab"/><stop offset="100%" stop-color="#767b82"/></linearGradient><linearGradient id="p" x1="50.09%" x2="50.09%" y1="0%" y2="99.662%"><stop offset="0%" stop-color="#878d93" stop-opacity="0"/><stop offset="100%" stop-color="#2e3033"/></linearGradient><linearGradient id="q" x1="0%" x2="100%" y1="50.055%" y2="50.055%"><stop offset="0%" stop-color="#a9b1bb"/><stop offset="9%" stop-color="#61666b"/><stop offset="18%" stop-color="#696e73"/><stop offset="32%" stop-color="#7e8489"/><stop offset="49%" stop-color="#a1a7ae"/><stop offset="69%" stop-color="#d1d8e0"/><stop offset="75%" stop-color="#e2eaf2"/><stop offset="93%" stop-color="#9ba1ab"/><stop offset="100%" stop-color="#767b82"/></linearGradient><linearGradient id="r" x1="0%" x2="100%" y1="50.246%" y2="50.246%"><stop offset="0%" stop-color="#a9b1bb"/><stop offset="9%" stop-color="#61666b"/><stop offset="18%" stop-color="#696e73"/><stop offset="32%" stop-color="#7e8489"/><stop offset="49%" stop-color="#a1a7ae"/><stop offset="69%" stop-color="#d1d8e0"/><stop offset="75%" stop-color="#e2eaf2"/><stop offset="93%" stop-color="#9ba1ab"/><stop offset="100%" stop-color="#767b82"/></linearGradient><linearGradient id="s" x1="0%" x2="100%" y1="50.072%" y2="50.072%"><stop offset="0%" stop-color="#a9b1bb"/><stop offset="9%" stop-color="#61666b"/><stop offset="18%" stop-color="#696e73"/><stop offset="32%" stop-color="#7e8489"/><stop offset="49%" stop-color="#a1a7ae"/><stop offset="69%" stop-color="#d1d8e0"/><stop offset="75%" stop-color="#e2eaf2"/><stop offset="93%" stop-color="#9ba1ab"/><stop offset="100%" stop-color="#767b82"/></linearGradient><linearGradient id="t" x1="50%" x2="50%" y1="100%" y2="0%"><stop offset="0%" stop-color="#2e3033"/><stop offset="100%" stop-color="#878d93" stop-opacity="0"/></linearGradient><linearGradient id="u" x1="74.758%" x2="25.237%" y1="4.452%" y2="79.412%"><stop offset="0%" stop-color="#d7dce0"/><stop offset="100%" stop-color="#8a9099"/></linearGradient><linearGradient id="v" x1="93.38%" x2="6.561%" y1="18.056%" y2="81.987%"><stop offset="0%" stop-color="#dce1e6"/><stop offset="100%" stop-color="#8a9099"/></linearGradient></defs><g fill="none" fill-rule="evenodd"><path stroke="#5b5f66" stroke-width=".15" d="M18.9 130.706H4.27m14.63 15.33H4.27"/><path fill="url(#a)" fill-rule="nonzero" d="M9.46 128.74H3.02l.72 1.52h5z" transform="translate(.01 .446)"/><path fill="url(#b)" fill-rule="nonzero" d="M9.46 128.74H3.02l.72-1.52h5z" transform="translate(.01 .446)"/><path fill="url(#c)" fill-rule="nonzero" d="M9.46 137.92H3.02l.72-7.66h5z" transform="translate(.01 .446)"/><path fill="url(#d)" fill-rule="nonzero" d="M9.02 133.22H3.46l.28-2.96h5z" opacity=".4" transform="translate(.01 .446)"/><path fill="url(#e)" fill-rule="nonzero" d="M9.46 147.11H3.02l.72-1.52h5z" transform="translate(.01 .446)"/><path fill="url(#f)" fill-rule="nonzero" d="M9.46 147.11H3.02l.72 1.52h5z" transform="translate(.01 .446)"/><path fill="url(#g)" fill-rule="nonzero" d="M9.46 137.92H3.02l.72 7.67h5z" transform="translate(.01 .446)"/><path fill="url(#h)" fill-rule="nonzero" d="M9.02 142.63H3.46l.28 2.96h5z" opacity=".4" transform="translate(.01 .446)"/><path stroke="#5b5f66" stroke-width=".15" d="M63.17 130.706H77.8m-14.63 15.33H77.8"/><path fill="url(#i)" fill-rule="nonzero" d="M72.59 128.74h6.43l-.71 1.52H73.3z" transform="translate(.01 .446)"/><path fill="url(#j)" fill-rule="nonzero" d="M72.59 128.74h6.43l-.71-1.52H73.3z" transform="translate(.01 .446)"/><path fill="url(#k)" fill-rule="nonzero" d="M72.59 137.92h6.43l-.71-7.66H73.3z" transform="translate(.01 .446)"/><path fill="url(#l)" fill-rule="nonzero" d="M73.03 133.22h5.55l-.27-2.96H73.3z" opacity=".4" transform="translate(.01 .446)"/><path fill="url(#m)" fill-rule="nonzero" d="M72.59 147.11h6.43l-.71-1.52H73.3z" transform="translate(.01 .446)"/><path fill="url(#n)" fill-rule="nonzero" d="M72.59 147.11h6.43l-.71 1.52H73.3z" transform="translate(.01 .446)"/><path fill="url(#o)" fill-rule="nonzero" d="M72.59 137.92h6.43l-.71 7.67H73.3z" transform="translate(.01 .446)"/><path fill="url(#p)" fill-rule="nonzero" d="M73.03 142.63h5.55l-.27 2.96H73.3z" opacity=".4" transform="translate(.01 .446)"/><path fill="url(#q)" fill-rule="nonzero" d="M16.77 127.82h48.51v18.12H16.77z" transform="translate(.01 .446)"/><path fill="url(#r)" fill-rule="nonzero" d="M14.41 147.97h53.23V150H14.41z" transform="translate(.01 .446)"/><path fill="url(#s)" fill-rule="nonzero" d="M65.96 147.97H16.08l.69-6.93h48.51z" transform="translate(.01 .446)"/><path fill="url(#t)" fill-rule="nonzero" d="M65.96 147.97H16.08l.69-4.4h48.51z" opacity=".3" transform="translate(.01 .446)"/><path fill="url(#u)" fill-rule="nonzero" d="M62.01 127.83H20.04L0 3.63h82.05z" transform="translate(.01 .446)"/><path fill="#8a9199" fill-rule="nonzero" d="M28.97 128.276h-8.92L.01 4.076zm24.12 0h8.93l20.04-124.2z"/><path fill="#8f9499" fill-rule="nonzero" d="M.01.446h82.04v3.63H.01z"/><path fill="#494d53" fill-rule="nonzero" d="M50.3 144.746H31.76v-14.04H50.3z"/><path fill="#dde4ec" fill-rule="nonzero" d="M49.57 144.746H31.76v-13.31h17.81z"/><path fill="url(#v)" fill-rule="nonzero" d="M32.48 131h17.07v12.57H32.48z" transform="matrix(-1 0 0 -1 82.04 275.016)"/><path fill="#a3b372" fill-rule="nonzero" d="M37.1 132.636h7.87v2.33H37.1z"/><path fill="#646e46" fill-rule="nonzero" d="M44.84 132.766v2.08h-7.62v-2.08zm.25-.25h-8.08v2.58h8.12v-2.58z"/><path fill="#d4dbdf" fill-rule="nonzero" d="M37.22 135.616h2.08v2.08h-2.08zm2.77 0h2.08v2.08h-2.08zm2.77 0h2.08v2.08h-2.08zm-5.54 2.75h2.08v2.08h-2.08z"/><path fill="#000" fill-rule="nonzero" d="M33.68 139.976h1v1.52h-1z" opacity=".6"/><path fill="#d4dbdf" fill-rule="nonzero" d="M39.99 138.366h2.08v2.08h-2.08zm2.77 0h2.08v2.08h-2.08zm-5.54 2.71h2.08v2.08h-2.08zm2.77 0h2.08v2.08h-2.08zm2.77 0h2.08v2.08h-2.08z"/></g></svg>