<svg xmlns="http://www.w3.org/2000/svg" viewBox="0 0 151 75"><title>Air handing unit1(空调箱1)</title><defs><linearGradient id="a" x1="10.177%" x2="89.823%" y1="26.393%" y2="73.607%"><stop offset="0%" stop-color="#d7dce0"/><stop offset="100%" stop-color="#8a9099"/></linearGradient><linearGradient id="b" x1="61.209%" x2="38.78%" y1="83.402%" y2="16.632%"><stop offset="0%" stop-color="#abafb3"/><stop offset="100%" stop-color="#45484d"/></linearGradient><linearGradient id="c" x1="30.825%" x2="63.586%" y1="12.288%" y2="76.719%"><stop offset="0%" stop-color="#abafb3"/><stop offset="100%" stop-color="#45484d"/></linearGradient><linearGradient id="d" x1="39.287%" x2="59.583%" y1="16.91%" y2="79.601%"><stop offset="0%" stop-color="#abafb3"/><stop offset="100%" stop-color="#45484d"/></linearGradient><linearGradient id="e" x1="50%" x2="50%" y1="104.61%" y2="-4.61%"><stop offset="0%" stop-color="#ccd1d5"/><stop offset="100%" stop-color="#90969f"/></linearGradient><linearGradient id="f" x1="-8680.142%" x2="-8680.142%" y1="104.61%" y2="-4.965%"><stop offset="0%" stop-color="#ccd1d5"/><stop offset="100%" stop-color="#90969f"/></linearGradient><linearGradient id="g" x1="0%" x2="100%" y1="50%" y2="50%"><stop offset="0%" stop-color="#767b82"/><stop offset="7%" stop-color="#9ba1ab"/><stop offset="22%" stop-color="#e2eaf2"/><stop offset="68%" stop-color="#45484d"/><stop offset="100%" stop-color="#8a9199"/></linearGradient><linearGradient id="h" x1="-8680.142%" x2="-8680.142%" y1="104.61%" y2="-4.61%"><stop offset="0%" stop-color="#ccd1d5"/><stop offset="100%" stop-color="#90969f"/></linearGradient><linearGradient id="i" x1="0%" x2="99.524%" y1="50%" y2="50%"><stop offset="0%" stop-color="#767b82"/><stop offset="7%" stop-color="#9ba1ab"/><stop offset="22%" stop-color="#e2eaf2"/><stop offset="68%" stop-color="#45484d"/><stop offset="100%" stop-color="#8a9199"/></linearGradient><linearGradient id="j" x1="0%" x2="100%" y1="50%" y2="50%"><stop offset="0%" stop-color="#767b82"/><stop offset="7%" stop-color="#9ba1ab"/><stop offset="22%" stop-color="#e2eaf2"/><stop offset="68%" stop-color="#45484d"/><stop offset="100%" stop-color="#8a9199"/></linearGradient></defs><g fill="none" fill-rule="evenodd" transform="translate(.01 .446)"><path fill="url(#a)" fill-rule="nonzero" d="M0 0h125.09v74.16H0z"/><path stroke="#5b5f66" stroke-width=".15" d="M31.84 69.65H5.47V4.51h26.37zM119.62 69.65H89.08V4.51h30.54zM46.48 69.65H31.85V4.51h14.63z"/><path stroke="#5b5f66" stroke-width=".15" d="M60.98 69.65H46.47V4.51h14.51zM89.07 69.65H60.98V4.51h28.09z"/><path fill="url(#b)" fill-rule="nonzero" d="M125.09 5.17h9.75v29.04h-9.75z" transform="matrix(-1 0 0 -1 259.93 39.38)"/><path fill="url(#c)" fill-rule="nonzero" d="m134.69 34.21 8.69 1.06L150 6.22l-15.31-1.06z"/><path fill="url(#d)" fill-rule="nonzero" d="m125.09 69.32 7.64 1.05 2.11-29.04-9.75-1.06z"/><circle cx="128.78" cy="9.97" r="1.41" fill="#222a34" fill-rule="nonzero" stroke="url(#e)" stroke-width=".26"/><circle cx="128.78" cy="19.69" r="1.41" fill="#222a34" fill-rule="nonzero" stroke="url(#f)" stroke-width=".26"/><circle cx="128.78" cy="19.69" r="1" fill="url(#g)" fill-rule="nonzero"/><circle cx="128.78" cy="28.83" r="1.41" fill="#222a34" fill-rule="nonzero" stroke="url(#h)" stroke-width=".26"/><path fill="#222a34" fill-rule="nonzero" d="M8.13 3.46h1.92v2.31H8.13zm20.43 0h1.92v2.31h-1.92zm20.07 0h1.92v2.31h-1.92zm8.45 0H59v2.31h-1.92zm6.34 0h1.92v2.31h-1.92zm21.12 0h1.92v2.31h-1.92zm6.34 0h1.92v2.31h-1.92zm25.35 0h1.92v2.31h-1.92zM8.13 68.41h1.92v2.31H8.13zm20.43 0h1.92v2.31h-1.92zm20.07 0h1.92v2.31h-1.92zm8.45 0H59v2.31h-1.92zm6.34 0h1.92v2.31h-1.92zm21.12 0h1.92v2.31h-1.92zm6.34 0h1.92v2.31h-1.92zm25.35 0h1.92v2.31h-1.92z"/><rect width="2.1" height="11.7" x="17.34" y="30.34" fill="url(#i)" fill-rule="nonzero" rx="1.05"/><path fill="#2f3133" fill-rule="nonzero" d="M18.39 30.34a1 1 0 0 1 1 1v2.06h-2.1v-2.02a1 1 0 0 1 1.1-1.04m-1.05 8.57h2.1V41a1 1 0 0 1-2 0v-2.09z" opacity=".3"/><rect width="2.1" height="11.7" x="52.2" y="30.34" fill="url(#i)" fill-rule="nonzero" rx="1.05"/><path fill="#2f3133" fill-rule="nonzero" d="M53.24 30.34a1 1 0 0 1 1 1v2.06H52.2v-2.02a1 1 0 0 1 1.04-1.04m-1.04 8.57h2.1V41a1 1 0 0 1-2 0v-2.09z" opacity=".3"/><rect width="2.1" height="11.7" x="73.32" y="30.34" fill="url(#j)" fill-rule="nonzero" rx="1.05"/><path fill="#2f3133" fill-rule="nonzero" d="M74.37 30.34a1 1 0 0 1 1 1v2.06h-2.1v-2.02a1 1 0 0 1 1.1-1.04m-1.05 8.57h2.1V41a1 1 0 0 1-2 0v-2.09z" opacity=".3"/><rect width="2.1" height="11.7" x="105.01" y="30.34" fill="url(#j)" fill-rule="nonzero" rx="1.05"/><path fill="#2f3133" fill-rule="nonzero" d="M106.06 30.34a1 1 0 0 1 1 1v2.06H105v-2.02a1 1 0 0 1 1.06-1.04M105 38.91h2.1V41a1 1 0 1 1-2 0v-2.09z" opacity=".3"/></g></svg>