<svg xmlns="http://www.w3.org/2000/svg" viewBox="0 0 151 105"><title>Air conditioner 2(空调2)</title><defs><linearGradient id="a" x1="0%" x2="100%" y1="50%" y2="50%"><stop offset="0%" stop-color="#252628"/><stop offset="6%" stop-color="#5d6166"/><stop offset="78%" stop-color="#bfc5cc"/><stop offset="93%" stop-color="#9ba1ab"/><stop offset="100%" stop-color="#252628"/></linearGradient><linearGradient id="b" x1="0%" x2="100%" y1="50%" y2="50%"><stop offset="0%" stop-color="#252628"/><stop offset="6%" stop-color="#5d6166"/><stop offset="78%" stop-color="#bfc5cc"/><stop offset="93%" stop-color="#9ba1ab"/><stop offset="100%" stop-color="#252628"/></linearGradient><linearGradient id="c" x1="0%" x2="100%" y1="50%" y2="50%"><stop offset="0%" stop-color="#252628"/><stop offset="6%" stop-color="#5d6166"/><stop offset="78%" stop-color="#bfc5cc"/><stop offset="93%" stop-color="#9ba1ab"/><stop offset="100%" stop-color="#252628"/></linearGradient><linearGradient id="d" x1="55.723%" x2="44.27%" y1="20.205%" y2="79.836%"><stop offset="0%" stop-color="#d7dce0"/><stop offset="100%" stop-color="#8a9099"/></linearGradient><linearGradient id="e" x1="55.73%" x2="44.27%" y1="20.205%" y2="79.836%"><stop offset="0%" stop-color="#d7dce0"/><stop offset="100%" stop-color="#8a9099"/></linearGradient><linearGradient id="f" x1="76.1%" x2="23.9%" y1="45.438%" y2="57.432%"><stop offset="0%" stop-color="#d7dce0"/><stop offset="100%" stop-color="#8a9099"/></linearGradient><linearGradient id="g" x1="0%" x2="100%" y1="50.012%" y2="50.012%"><stop offset="0%" stop-color="#a9b1bb"/><stop offset="6%" stop-color="#5d6166"/><stop offset="78%" stop-color="#bfc5cc"/><stop offset="93%" stop-color="#9ba1ab"/><stop offset="100%" stop-color="#767b82"/></linearGradient><linearGradient id="h" x1="0%" x2="100%" y1="50%" y2="50%"><stop offset="0%" stop-color="#252628"/><stop offset="6%" stop-color="#5d6166"/><stop offset="78%" stop-color="#bfc5cc"/><stop offset="93%" stop-color="#9ba1ab"/><stop offset="100%" stop-color="#252628"/></linearGradient><linearGradient id="i" x1="84.644%" x2="15.356%" y1="36.631%" y2="63.391%"><stop offset="0%" stop-color="#d7dce0"/><stop offset="100%" stop-color="#8a9099"/></linearGradient></defs><g fill="none" fill-rule="evenodd"><path stroke="url(#a)" stroke-width=".25" d="M19.26 5.81H88.3" transform="translate(.01 .446)"/><path stroke="url(#b)" stroke-width=".25" d="M19.26 8.4h70.85" transform="translate(.01 .446)"/><path stroke="url(#c)" stroke-width=".25" d="M15.5 11h78.37" transform="translate(.01 .446)"/><path stroke="url(#c)" stroke-width=".25" d="M15.5 13.6h78.37" transform="translate(.01 .446)"/><path fill="url(#d)" fill-rule="nonzero" d="M28.02 2.67h4.68v24.35h-4.68z" transform="translate(.01 .446)"/><path fill="url(#d)" fill-rule="nonzero" d="M48.49 2.67h4.68v24.35h-4.68z" transform="translate(.01 .446)"/><path fill="url(#e)" fill-rule="nonzero" d="M71.56 2.67h4.68v24.35h-4.68z" transform="translate(.01 .446)"/><path fill="url(#f)" fill-rule="nonzero" d="M96.64 21.67 83.38 4.68H22.95L9.7 21.67l-3.69-2.88L20.67 0h64.99l14.66 18.79z" transform="translate(.01 .446)"/><path fill="#2f3134" fill-rule="nonzero" d="M.01 20.286h150v77.45H.01z"/><path fill="#252628" fill-rule="nonzero" d="M1.67 101.906h146.45v2.7H1.67z"/><path fill="url(#g)" fill-rule="nonzero" d="m150 19.84-1.56-5H1.56l-1.56 5h10.12v77.45H0l1.56 4.17h146.88l1.56-4.17h-9.2V19.84zM28 97.29H14.8V19.84H28zm17.89 0h-13.2V19.84h13.22zm17.92 0H50.59V19.84h13.24zm18.24 0h-13.2V19.84h13.22zm17.91 0H86.75V19.84H100zm17.9 0h-13.2V19.84h13.22zm18.24 0h-13.22V19.84h13.24z" transform="translate(.01 .446)"/><path stroke="url(#h)" stroke-width=".25" d="M0 26.37h150" transform="translate(.01 .446)"/><path stroke="url(#h)" stroke-width=".25" d="M0 39.37h150" transform="translate(.01 .446)"/><path stroke="url(#h)" stroke-width=".25" d="M0 52.37h150" transform="translate(.01 .446)"/><path stroke="url(#h)" stroke-width=".25" d="M0 65.37h150" transform="translate(.01 .446)"/><path stroke="url(#h)" stroke-width=".25" d="M0 78.38h150" transform="translate(.01 .446)"/><path stroke="url(#h)" stroke-width=".25" d="M0 91.38h150" transform="translate(.01 .446)"/><path fill="url(#i)" fill-rule="nonzero" d="M57.58 45.35h34.84V58.8H57.58z" transform="translate(.01 .446)"/></g></svg>