<svg xmlns="http://www.w3.org/2000/svg" viewBox="0 0 81 151"><title>Air handing unit 2(空调箱2)</title><defs><linearGradient id="a" x1="50.159%" x2="50.159%" y1="100%" y2="0%"><stop offset="0%" stop-color="#676b70"/><stop offset="2%" stop-color="#777c80"/><stop offset="25%" stop-color="#747980"/><stop offset="26%" stop-color="#d1d5db"/><stop offset="74%" stop-color="#c7cfdb"/><stop offset="75%" stop-color="#edf5ff"/><stop offset="76%" stop-color="#c3c7cc"/><stop offset="100%" stop-color="#929599"/></linearGradient><linearGradient id="b" x1="50.014%" x2="50.014%" y1="100%" y2="0%"><stop offset="0%" stop-color="#f5faff"/><stop offset="100%" stop-color="#2e3033"/></linearGradient><linearGradient id="c" x1="49.913%" x2="49.913%" y1="100%" y2="0%"><stop offset="0%" stop-color="#5c6066"/><stop offset="100%" stop-color="#f5faff"/></linearGradient><linearGradient id="d" x1="50%" x2="50%" y1="100%" y2="0%"><stop offset="0%" stop-color="#5c6066"/><stop offset="100%" stop-color="#f5faff"/></linearGradient><linearGradient id="e" x1="49.824%" x2="49.824%" y1="100%" y2="0%"><stop offset="0%" stop-color="#f5faff"/><stop offset="100%" stop-color="#5c6066"/></linearGradient></defs><g fill="none" fill-rule="evenodd"><path fill="url(#a)" fill-rule="nonzero" d="M-34.64 34.663h150v80.7h-150z" transform="rotate(90 40.143 75.23)"/><path fill="#000" fill-rule="nonzero" d="m80.713.433.002 6.28-80.7.028L.013.461z" opacity=".4"/><path fill="#5c6066" fill-rule="nonzero" d="M23.23 97.686h34.59v42.87H23.23z"/><path fill="url(#b)" fill-rule="nonzero" d="M57.23 97.833v41.7H23.82v-41.7zm.59-.58H23.23v42.86h34.59z" transform="translate(0 .433)"/><path fill="#999" fill-rule="nonzero" d="M55.15 103.076h-1.18v-93.4H50.7v-1.17h4.45z"/><path fill="#000" fill-rule="nonzero" d="m80.703 144.143.002 6.28-80.7.028-.002-6.28zM45.45 55.576v2.35H0v-2.35z" opacity=".4"/><path fill="#a1a8b3" fill-rule="nonzero" d="M36.86 50.846h17.11v11.87H36.86z"/><path fill="url(#c)" fill-rule="nonzero" d="M53.39 51.013v10.69h-16v-10.69zm.62-.6H36.86v11.87h17.15z" transform="translate(0 .433)"/><path fill="#737880" fill-rule="nonzero" d="M43.94 6.546h8.68v5.08h-8.68z"/><path fill="url(#d)" fill-rule="nonzero" d="M52.35 6.383v4.54h-8.14v-4.54zm.27-.27h-8.68v5.08h8.68z" transform="translate(0 .433)"/><path stroke="#5f6366" stroke-width=".29" d="M63.65 20.816h13.44m-13.44 4.81h13.44m-13.44 4.8h13.44m-13.44 4.8h13.44m-13.44 4.8h13.44m-13.44 4.81h13.44m-13.44 4.8h13.44m-13.44 4.8h13.44m-13.44 4.8h13.44m-13.44 4.81h13.44m-13.44 4.8h13.44m-13.44 4.8h13.44m-13.44 4.81h13.44m-13.44 4.8h13.44m-13.44 4.8h13.44m-13.44 4.8h13.44m-13.44 4.81h13.44m-13.44 4.8h13.44m-13.44 4.8h13.44m-13.44 4.8h13.44m-13.44 4.81h13.44m-13.44 4.8h13.44m-13.44 4.8h13.44"/><path fill="#c4c7cc" fill-rule="nonzero" d="M64.88 32.776h11.29v4.9H64.88z"/><path fill="url(#e)" fill-rule="nonzero" d="M76.01 32.553v4.46H65.09v-4.46zm.21-.21H64.88v4.9h11.29v-4.9z" transform="translate(0 .433)"/><path fill="#c4c7cc" fill-rule="nonzero" d="M64.88 66.396h11.29v4.9H64.88z"/><path fill="url(#e)" fill-rule="nonzero" d="M76.01 66.173v4.48H65.09v-4.48zm.21-.21H64.88v4.9h11.29v-4.85z" transform="translate(0 .433)"/><path fill="#c4c7cc" fill-rule="nonzero" d="M64.88 109.146h11.29v4.9H64.88z"/><path fill="url(#e)" fill-rule="nonzero" d="M76.01 108.923v4.49H65.09v-4.49zm.21-.21H64.88v4.9h11.29v-4.9z" transform="translate(0 .433)"/></g></svg>