<svg xmlns="http://www.w3.org/2000/svg" viewBox="0 0 151 58"><title>Building chiller(建筑制冷机)</title><defs><linearGradient id="a" x1="81.756%" x2="18.244%" y1="41.419%" y2="58.581%"><stop offset="0%" stop-color="#d7dce0"/><stop offset="100%" stop-color="#8a9099"/></linearGradient><linearGradient id="b" x1="57.591%" x2="42.405%" y1="18.906%" y2="81.112%"><stop offset="0%" stop-color="#d7dce0"/><stop offset="100%" stop-color="#8a9099"/></linearGradient><linearGradient id="c" x1="55.645%" x2="44.355%" y1="20.296%" y2="79.761%"><stop offset="0%" stop-color="#d7dce0"/><stop offset="100%" stop-color="#8a9099"/></linearGradient><linearGradient id="d" x1="55.645%" x2="44.344%" y1="20.296%" y2="79.761%"><stop offset="0%" stop-color="#d7dce0"/><stop offset="100%" stop-color="#8a9099"/></linearGradient><linearGradient id="e" x1="75.413%" x2="24.579%" y1="49.574%" y2="50.426%"><stop offset="0%" stop-color="#d7dce0"/><stop offset="100%" stop-color="#8a9099"/></linearGradient><linearGradient id="f" x1="91.335%" x2="8.716%" y1="23.066%" y2="76.967%"><stop offset="0%" stop-color="#abafb3"/><stop offset="100%" stop-color="#45484d"/></linearGradient><linearGradient id="g" x1="83.631%" x2="16.369%" y1="38.404%" y2="61.596%"><stop offset="0%" stop-color="#abafb3"/><stop offset="100%" stop-color="#45484d"/></linearGradient><linearGradient id="h" x1="0%" x2="99.941%" y1="50.233%" y2="50.233%"><stop offset="0%" stop-color="#a9b1bb"/><stop offset="6%" stop-color="#5d6166"/><stop offset="78%" stop-color="#e2eaf2"/><stop offset="93%" stop-color="#9ba1ab"/><stop offset="100%" stop-color="#767b82"/></linearGradient><linearGradient id="i" x1="0%" x2="100%" y1="50.233%" y2="50.233%"><stop offset="0%" stop-color="#a9b1bb"/><stop offset="6%" stop-color="#5d6166"/><stop offset="78%" stop-color="#e2eaf2"/><stop offset="93%" stop-color="#9ba1ab"/><stop offset="100%" stop-color="#767b82"/></linearGradient></defs><g fill="none" fill-rule="evenodd"><path fill="#2f3134" fill-rule="nonzero" d="M119.05 48.306v-8.77H83.21v3.65H61.9v3.58H16.64v8.02h120.07v-6.48z"/><path fill="url(#a)" fill-rule="nonzero" d="M0 2.15h136.7v36.94H0z" transform="translate(.01 .446)"/><path fill="#7b7f83" fill-rule="nonzero" d="M7.99 8.886h114.6v24.37H7.99z"/><path fill="url(#b)" fill-rule="nonzero" d="M136.7 2.15H150v54.48h-13.3z" transform="translate(.01 .446)"/><path fill="url(#c)" fill-rule="nonzero" d="M0 39.09h3.33v17.54H0z" transform="translate(.01 .446)"/><path fill="url(#c)" fill-rule="nonzero" d="M26.08 39.09h3.33v17.54h-3.33z" transform="translate(.01 .446)"/><path fill="url(#d)" fill-rule="nonzero" d="M46.5 39.09h3.33v17.54H46.5z" transform="translate(.01 .446)"/><path fill="url(#c)" fill-rule="nonzero" d="M66.91 39.09h3.33v17.54h-3.33z" transform="translate(.01 .446)"/><path fill="url(#c)" fill-rule="nonzero" d="M87.33 39.09h3.33v17.54h-3.33z" transform="translate(.01 .446)"/><path fill="url(#d)" fill-rule="nonzero" d="M107.75 39.09h3.33v17.54h-3.33z" transform="translate(.01 .446)"/><path fill="url(#e)" fill-rule="nonzero" d="M0 54.34h136.7v2.29H0z" transform="translate(.01 .446)"/><path fill="url(#f)" fill-rule="nonzero" d="M16.63 41.54h19.62v12.8H16.63z" transform="translate(.01 .446)"/><path fill="url(#g)" fill-rule="nonzero" d="M93.19 43.15h32.44v11.19H93.19z" transform="translate(.01 .446)"/><path stroke="#5f6366" stroke-width=".25" d="M8.67 9.516h19.34m-19.34 1.56h19.34m-19.34 1.55h19.34m-19.34 1.56h19.34m-19.34 1.55h19.34m-19.34 1.56h19.34m-19.34 1.55h19.34m-19.34 1.55h19.34m-19.34 1.56h19.34m-19.34 1.55h19.34m-19.34 1.56h19.34m-19.34 1.55h19.34m-19.34 1.56h19.34m-19.34 1.55h19.34m-19.34 1.56h19.34m-19.34 1.55h19.34m4.04-23.32h19.33m-19.33 1.56h19.33m-19.33 1.55h19.33m-19.33 1.56h19.33m-19.33 1.55h19.33m-19.33 1.56h19.33m-19.33 1.55h19.33m-19.33 1.55h19.33m-19.33 1.56h19.33m-19.33 1.55h19.33m-19.33 1.56h19.33m-19.33 1.55h19.33m-19.33 1.56h19.33m-19.33 1.55h19.33m-19.33 1.56h19.33m-19.33 1.55h19.33m4.05-23.32h19.33m-19.33 1.56h19.33m-19.33 1.55h19.33m-19.33 1.56h19.33m-19.33 1.55h19.33m-19.33 1.56h19.33m-19.33 1.55h19.33m-19.33 1.55h19.33m-19.33 1.56h19.33m-19.33 1.55h19.33m-19.33 1.56h19.33m-19.33 1.55h19.33m-19.33 1.56h19.33m-19.33 1.55h19.33m-19.33 1.56h19.33m-19.33 1.55h19.33m4.05-23.32h19.33m-19.33 1.56h19.33m-19.33 1.55h19.33m-19.33 1.56h19.33m-19.33 1.55h19.33m-19.33 1.56h19.33m-19.33 1.55h19.33m-19.33 1.55h19.33m-19.33 1.56h19.33m-19.33 1.55h19.33m-19.33 1.56h19.33m-19.33 1.55h19.33m-19.33 1.56h19.33m-19.33 1.55h19.33m-19.33 1.56h19.33m-19.33 1.55h19.33m4.04-23.32h19.34m-19.34 1.56h19.34m-19.34 1.55h19.34m-19.34 1.56h19.34m-19.34 1.55h19.34m-19.34 1.56h19.34m-19.34 1.55h19.34m-19.34 1.55h19.34m-19.34 1.56h19.34m-19.34 1.55h19.34m-19.34 1.56h19.34m-19.34 1.55h19.34m-19.34 1.56h19.34m-19.34 1.55h19.34m-19.34 1.56h19.34m-19.34 1.55h19.34"/><path fill="url(#h)" fill-rule="nonzero" d="M3.33 0h16.81v2.15H3.33z" transform="translate(.01 .446)"/><path fill="url(#i)" fill-rule="nonzero" d="M26 0h16.81v2.15H26z" transform="translate(.01 .446)"/><path fill="url(#i)" fill-rule="nonzero" d="M48.68 0h16.81v2.15H48.68z" transform="translate(.01 .446)"/><path fill="url(#i)" fill-rule="nonzero" d="M71.36 0h16.81v2.15H71.36z" transform="translate(.01 .446)"/><path fill="url(#h)" fill-rule="nonzero" d="M94.04 0h16.81v2.15H94.04z" transform="translate(.01 .446)"/><path fill="url(#i)" fill-rule="nonzero" d="M116.71 0h16.81v2.15h-16.81z" transform="translate(.01 .446)"/></g></svg>