<svg xmlns="http://www.w3.org/2000/svg" viewBox="0 0 100 151"><title>Carbon filter(活性碳过滤器)</title><defs><linearGradient id="a" x1="0%" x2="100.011%" y1="50.04%" y2="50.04%"><stop offset="0%" stop-color="#a9b1bb"/><stop offset="9%" stop-color="#61666b"/><stop offset="18%" stop-color="#696e73"/><stop offset="32%" stop-color="#7e8489"/><stop offset="49%" stop-color="#a1a7ae"/><stop offset="69%" stop-color="#d1d8e0"/><stop offset="75%" stop-color="#e2eaf2"/><stop offset="93%" stop-color="#9ba1ab"/><stop offset="100%" stop-color="#767b82"/></linearGradient><linearGradient id="b" x1="0%" x2="99.984%" y1="50%" y2="50%"><stop offset="0%" stop-color="#a9b1bb"/><stop offset="9%" stop-color="#61666b"/><stop offset="18%" stop-color="#696e73"/><stop offset="32%" stop-color="#7e8489"/><stop offset="49%" stop-color="#a1a7ae"/><stop offset="69%" stop-color="#d1d8e0"/><stop offset="75%" stop-color="#e2eaf2"/><stop offset="93%" stop-color="#9ba1ab"/><stop offset="100%" stop-color="#767b82"/></linearGradient><linearGradient id="c" x1="0%" x2="100.011%" y1="49.995%" y2="49.995%"><stop offset="0%" stop-color="#a9b1bb"/><stop offset="9%" stop-color="#61666b"/><stop offset="18%" stop-color="#696e73"/><stop offset="32%" stop-color="#7e8489"/><stop offset="49%" stop-color="#a1a7ae"/><stop offset="69%" stop-color="#d1d8e0"/><stop offset="75%" stop-color="#e2eaf2"/><stop offset="93%" stop-color="#9ba1ab"/><stop offset="100%" stop-color="#767b82"/></linearGradient><linearGradient id="d" x1="0%" x2="100.011%" y1="49.96%" y2="49.96%"><stop offset="0%" stop-color="#a9b1bb"/><stop offset="9%" stop-color="#61666b"/><stop offset="18%" stop-color="#696e73"/><stop offset="32%" stop-color="#7e8489"/><stop offset="49%" stop-color="#a1a7ae"/><stop offset="69%" stop-color="#d1d8e0"/><stop offset="75%" stop-color="#e2eaf2"/><stop offset="93%" stop-color="#9ba1ab"/><stop offset="100%" stop-color="#767b82"/></linearGradient><linearGradient id="e" x1="50%" x2="50%" y1="104.959%" y2="-5.372%"><stop offset="0%" stop-color="#dce1e6"/><stop offset="100%" stop-color="#5c6066"/></linearGradient><linearGradient id="f" x1="50%" x2="50%" y1="105.372%" y2="-5.372%"><stop offset="0%" stop-color="#dce1e6"/><stop offset="100%" stop-color="#5c6066"/></linearGradient></defs><g fill="none" fill-rule="nonzero" transform="translate(.01 .446)"><path fill="url(#a)" d="M5.97 16.2h87.36v12.57H5.97z"/><path fill="url(#b)" d="M19.08 0h61.16v16.2H19.08z"/><path fill="url(#c)" d="M5.97 28.78h87.36v108.65H5.97z"/><g fill="#252628"><g transform="translate(91.02 21.68)"><circle cx="5.76" cy="7.27" r="1.21"/><circle cx="2.73" cy="7.27" r="1.21"/><circle cx="7.28" cy="4.24" r="1.21"/><circle cx="4.25" cy="4.24" r="1.21"/><circle cx="1.21" cy="4.24" r="1.21"/><circle cx="5.76" cy="1.21" r="1.21"/><circle cx="2.73" cy="1.21" r="1.21"/></g><g transform="translate(91.02 27.74)"><circle cx="5.76" cy="7.28" r="1.21"/><circle cx="2.73" cy="7.28" r="1.21"/><circle cx="7.28" cy="4.25" r="1.21"/><circle cx="4.25" cy="4.25" r="1.21"/><circle cx="1.21" cy="4.25" r="1.21"/><circle cx="5.76" cy="1.21" r="1.21"/><circle cx="2.73" cy="1.21" r="1.21"/></g><g transform="translate(91.02 33.81)"><circle cx="5.76" cy="7.28" r="1.21"/><circle cx="2.73" cy="7.28" r="1.21"/><circle cx="7.28" cy="4.25" r="1.21"/><circle cx="4.25" cy="4.25" r="1.21"/><circle cx="1.21" cy="4.25" r="1.21"/><circle cx="5.76" cy="1.21" r="1.21"/><circle cx="2.73" cy="1.21" r="1.21"/></g><g transform="translate(91.02 39.88)"><circle cx="5.76" cy="7.28" r="1.21"/><circle cx="2.73" cy="7.28" r="1.21"/><circle cx="7.28" cy="4.24" r="1.21"/><circle cx="4.25" cy="4.24" r="1.21"/><circle cx="1.21" cy="4.24" r="1.21"/><circle cx="5.76" cy="1.21" r="1.21"/><circle cx="2.73" cy="1.21" r="1.21"/></g><g transform="translate(91.02 45.95)"><circle cx="5.76" cy="7.28" r="1.21"/><circle cx="2.73" cy="7.28" r="1.21"/><circle cx="7.28" cy="4.24" r="1.21"/><circle cx="4.25" cy="4.24" r="1.21"/><circle cx="1.21" cy="4.24" r="1.21"/><circle cx="5.76" cy="1.21" r="1.21"/><circle cx="2.73" cy="1.21" r="1.21"/></g><g transform="translate(91.02 52.02)"><circle cx="5.76" cy="7.27" r="1.21"/><circle cx="2.73" cy="7.27" r="1.21"/><circle cx="7.28" cy="4.24" r="1.21"/><circle cx="4.25" cy="4.24" r="1.21"/><circle cx="1.21" cy="4.24" r="1.21"/><circle cx="5.76" cy="1.21" r="1.21"/><circle cx="2.73" cy="1.21" r="1.21"/></g><g transform="translate(91.02 58.08)"><circle cx="5.76" cy="7.28" r="1.21"/><circle cx="2.73" cy="7.28" r="1.21"/><circle cx="7.28" cy="4.25" r="1.21"/><circle cx="4.25" cy="4.25" r="1.21"/><circle cx="1.21" cy="4.25" r="1.21"/><circle cx="5.76" cy="1.21" r="1.21"/><circle cx="2.73" cy="1.21" r="1.21"/></g><g transform="translate(91.02 64.15)"><circle cx="5.76" cy="7.28" r="1.21"/><circle cx="2.73" cy="7.28" r="1.21"/><circle cx="7.28" cy="4.25" r="1.21"/><circle cx="4.25" cy="4.25" r="1.21"/><circle cx="1.21" cy="4.25" r="1.21"/><circle cx="5.76" cy="1.21" r="1.21"/><circle cx="2.73" cy="1.21" r="1.21"/></g><g transform="translate(91.02 70.22)"><circle cx="5.76" cy="7.28" r="1.21"/><circle cx="2.73" cy="7.28" r="1.21"/><circle cx="7.28" cy="4.24" r="1.21"/><circle cx="4.25" cy="4.24" r="1.21"/><circle cx="1.21" cy="4.24" r="1.21"/><circle cx="5.76" cy="1.21" r="1.21"/><circle cx="2.73" cy="1.21" r="1.21"/></g><g transform="translate(91.02 76.29)"><circle cx="5.76" cy="7.28" r="1.21"/><circle cx="2.73" cy="7.28" r="1.21"/><circle cx="7.28" cy="4.24" r="1.21"/><circle cx="4.25" cy="4.24" r="1.21"/><circle cx="1.21" cy="4.24" r="1.21"/><circle cx="5.76" cy="1.21" r="1.21"/><circle cx="2.73" cy="1.21" r="1.21"/></g><g transform="translate(91.02 82.36)"><circle cx="5.76" cy="7.27" r="1.21"/><circle cx="2.73" cy="7.27" r="1.21"/><circle cx="7.28" cy="4.24" r="1.21"/><circle cx="4.25" cy="4.24" r="1.21"/><circle cx="1.21" cy="4.24" r="1.21"/><circle cx="5.76" cy="1.21" r="1.21"/><circle cx="2.73" cy="1.21" r="1.21"/></g><g transform="translate(91.02 88.42)"><circle cx="5.76" cy="7.28" r="1.21"/><circle cx="2.73" cy="7.28" r="1.21"/><circle cx="7.28" cy="4.25" r="1.21"/><circle cx="4.25" cy="4.25" r="1.21"/><circle cx="1.21" cy="4.25" r="1.21"/><circle cx="5.76" cy="1.21" r="1.21"/><circle cx="2.73" cy="1.21" r="1.21"/></g><g transform="translate(91.02 94.49)"><circle cx="5.76" cy="7.28" r="1.21"/><circle cx="2.73" cy="7.28" r="1.21"/><circle cx="7.28" cy="4.25" r="1.21"/><circle cx="4.25" cy="4.25" r="1.21"/><circle cx="1.21" cy="4.25" r="1.21"/><circle cx="5.76" cy="1.21" r="1.21"/><circle cx="2.73" cy="1.21" r="1.21"/></g><g transform="translate(91.02 100.56)"><circle cx="5.76" cy="7.28" r="1.21"/><circle cx="2.73" cy="7.28" r="1.21"/><circle cx="7.28" cy="4.24" r="1.21"/><circle cx="4.25" cy="4.24" r="1.21"/><circle cx="1.21" cy="4.24" r="1.21"/><circle cx="5.76" cy="1.21" r="1.21"/><circle cx="2.73" cy="1.21" r="1.21"/></g><g transform="translate(91.02 106.63)"><circle cx="5.76" cy="7.28" r="1.21"/><circle cx="2.73" cy="7.28" r="1.21"/><circle cx="7.28" cy="4.24" r="1.21"/><circle cx="4.25" cy="4.24" r="1.21"/><circle cx="1.21" cy="4.24" r="1.21"/><circle cx="5.76" cy="1.21" r="1.21"/><circle cx="2.73" cy="1.21" r="1.21"/></g><g transform="translate(91.02 112.7)"><circle cx="5.76" cy="7.27" r="1.21"/><circle cx="2.73" cy="7.27" r="1.21"/><circle cx="7.28" cy="4.24" r="1.21"/><circle cx="4.25" cy="4.24" r="1.21"/><circle cx="1.21" cy="4.24" r="1.21"/><circle cx="5.76" cy="1.21" r="1.21"/><circle cx="2.73" cy="1.21" r="1.21"/></g><g transform="translate(91.02 118.76)"><circle cx="5.76" cy="7.28" r="1.21"/><circle cx="2.73" cy="7.28" r="1.21"/><circle cx="7.28" cy="4.25" r="1.21"/><circle cx="4.25" cy="4.25" r="1.21"/><circle cx="1.21" cy="4.25" r="1.21"/><circle cx="5.76" cy="1.21" r="1.21"/><circle cx="2.73" cy="1.21" r="1.21"/></g><g transform="translate(91.02 124.83)"><circle cx="5.76" cy="7.28" r="1.21"/><circle cx="2.73" cy="7.28" r="1.21"/><circle cx="7.28" cy="4.25" r="1.21"/><circle cx="4.25" cy="4.25" r="1.21"/><circle cx="1.21" cy="4.25" r="1.21"/><circle cx="5.76" cy="1.21" r="1.21"/><circle cx="2.73" cy="1.21" r="1.21"/></g><g transform="translate(91.02 130.9)"><circle cx="5.76" cy="7.28" r="1.21"/><circle cx="2.73" cy="7.28" r="1.21"/><circle cx="7.28" cy="4.24" r="1.21"/><circle cx="4.25" cy="4.24" r="1.21"/><circle cx="1.21" cy="4.24" r="1.21"/><circle cx="5.76" cy="1.21" r="1.21"/><circle cx="2.73" cy="1.21" r="1.21"/></g><g transform="translate(84.96 21.68)"><circle cx="5.76" cy="7.27" r="1.21"/><circle cx="2.72" cy="7.27" r="1.21"/><circle cx="7.27" cy="4.24" r="1.21"/><circle cx="4.24" cy="4.24" r="1.21"/><circle cx="1.21" cy="4.24" r="1.21"/><circle cx="5.76" cy="1.21" r="1.21"/><circle cx="2.72" cy="1.21" r="1.21"/></g><g transform="translate(84.96 27.74)"><circle cx="5.76" cy="7.28" r="1.21"/><circle cx="2.72" cy="7.28" r="1.21"/><circle cx="7.27" cy="4.25" r="1.21"/><circle cx="4.24" cy="4.25" r="1.21"/><circle cx="1.21" cy="4.25" r="1.21"/><circle cx="5.76" cy="1.21" r="1.21"/><circle cx="2.72" cy="1.21" r="1.21"/></g><g transform="translate(84.96 33.81)"><circle cx="5.76" cy="7.28" r="1.21"/><circle cx="2.72" cy="7.28" r="1.21"/><circle cx="7.27" cy="4.25" r="1.21"/><circle cx="4.24" cy="4.25" r="1.21"/><circle cx="1.21" cy="4.25" r="1.21"/><circle cx="5.76" cy="1.21" r="1.21"/><circle cx="2.72" cy="1.21" r="1.21"/></g><g transform="translate(84.96 39.88)"><circle cx="5.76" cy="7.28" r="1.21"/><circle cx="2.72" cy="7.28" r="1.21"/><circle cx="7.27" cy="4.24" r="1.21"/><circle cx="4.24" cy="4.24" r="1.21"/><circle cx="1.21" cy="4.24" r="1.21"/><circle cx="5.76" cy="1.21" r="1.21"/><circle cx="2.72" cy="1.21" r="1.21"/></g><g transform="translate(84.96 45.95)"><circle cx="5.76" cy="7.28" r="1.21"/><circle cx="2.72" cy="7.28" r="1.21"/><circle cx="7.27" cy="4.24" r="1.21"/><circle cx="4.24" cy="4.24" r="1.21"/><circle cx="1.21" cy="4.24" r="1.21"/><circle cx="5.76" cy="1.21" r="1.21"/><circle cx="2.72" cy="1.21" r="1.21"/></g><g transform="translate(84.96 52.02)"><circle cx="5.76" cy="7.27" r="1.21"/><circle cx="2.72" cy="7.27" r="1.21"/><circle cx="7.27" cy="4.24" r="1.21"/><circle cx="4.24" cy="4.24" r="1.21"/><circle cx="1.21" cy="4.24" r="1.21"/><circle cx="5.76" cy="1.21" r="1.21"/><circle cx="2.72" cy="1.21" r="1.21"/></g><g transform="translate(84.96 58.08)"><circle cx="5.76" cy="7.28" r="1.21"/><circle cx="2.72" cy="7.28" r="1.21"/><circle cx="7.27" cy="4.25" r="1.21"/><circle cx="4.24" cy="4.25" r="1.21"/><circle cx="1.21" cy="4.25" r="1.21"/><circle cx="5.76" cy="1.21" r="1.21"/><circle cx="2.72" cy="1.21" r="1.21"/></g><g transform="translate(84.96 64.15)"><circle cx="5.76" cy="7.28" r="1.21"/><circle cx="2.72" cy="7.28" r="1.21"/><circle cx="7.27" cy="4.25" r="1.21"/><circle cx="4.24" cy="4.25" r="1.21"/><circle cx="1.21" cy="4.25" r="1.21"/><circle cx="5.76" cy="1.21" r="1.21"/><circle cx="2.72" cy="1.21" r="1.21"/></g><g transform="translate(84.96 70.22)"><circle cx="5.76" cy="7.28" r="1.21"/><circle cx="2.72" cy="7.28" r="1.21"/><circle cx="7.27" cy="4.24" r="1.21"/><circle cx="4.24" cy="4.24" r="1.21"/><circle cx="1.21" cy="4.24" r="1.21"/><circle cx="5.76" cy="1.21" r="1.21"/><circle cx="2.72" cy="1.21" r="1.21"/></g><g transform="translate(84.96 76.29)"><circle cx="5.76" cy="7.28" r="1.21"/><circle cx="2.72" cy="7.28" r="1.21"/><circle cx="7.27" cy="4.24" r="1.21"/><circle cx="4.24" cy="4.24" r="1.21"/><circle cx="1.21" cy="4.24" r="1.21"/><circle cx="5.76" cy="1.21" r="1.21"/><circle cx="2.72" cy="1.21" r="1.21"/></g><g transform="translate(84.96 82.36)"><circle cx="5.76" cy="7.27" r="1.21"/><circle cx="2.72" cy="7.27" r="1.21"/><circle cx="7.27" cy="4.24" r="1.21"/><circle cx="4.24" cy="4.24" r="1.21"/><circle cx="1.21" cy="4.24" r="1.21"/><circle cx="5.76" cy="1.21" r="1.21"/><circle cx="2.72" cy="1.21" r="1.21"/></g><g transform="translate(84.96 88.42)"><circle cx="5.76" cy="7.28" r="1.21"/><circle cx="2.72" cy="7.28" r="1.21"/><circle cx="7.27" cy="4.25" r="1.21"/><circle cx="4.24" cy="4.25" r="1.21"/><circle cx="1.21" cy="4.25" r="1.21"/><circle cx="5.76" cy="1.21" r="1.21"/><circle cx="2.72" cy="1.21" r="1.21"/></g><g transform="translate(84.96 94.49)"><circle cx="5.76" cy="7.28" r="1.21"/><circle cx="2.72" cy="7.28" r="1.21"/><circle cx="7.27" cy="4.25" r="1.21"/><circle cx="4.24" cy="4.25" r="1.21"/><circle cx="1.21" cy="4.25" r="1.21"/><circle cx="5.76" cy="1.21" r="1.21"/><circle cx="2.72" cy="1.21" r="1.21"/></g><g transform="translate(84.96 100.56)"><circle cx="5.76" cy="7.28" r="1.21"/><circle cx="2.72" cy="7.28" r="1.21"/><circle cx="7.27" cy="4.24" r="1.21"/><circle cx="4.24" cy="4.24" r="1.21"/><circle cx="1.21" cy="4.24" r="1.21"/><circle cx="5.76" cy="1.21" r="1.21"/><circle cx="2.72" cy="1.21" r="1.21"/></g><g transform="translate(84.96 106.63)"><circle cx="5.76" cy="7.28" r="1.21"/><circle cx="2.72" cy="7.28" r="1.21"/><circle cx="7.27" cy="4.24" r="1.21"/><circle cx="4.24" cy="4.24" r="1.21"/><circle cx="1.21" cy="4.24" r="1.21"/><circle cx="5.76" cy="1.21" r="1.21"/><circle cx="2.72" cy="1.21" r="1.21"/></g><g transform="translate(84.96 112.7)"><circle cx="5.76" cy="7.27" r="1.21"/><circle cx="2.72" cy="7.27" r="1.21"/><circle cx="7.27" cy="4.24" r="1.21"/><circle cx="4.24" cy="4.24" r="1.21"/><circle cx="1.21" cy="4.24" r="1.21"/><circle cx="5.76" cy="1.21" r="1.21"/><circle cx="2.72" cy="1.21" r="1.21"/></g><g transform="translate(84.96 118.76)"><circle cx="5.76" cy="7.28" r="1.21"/><circle cx="2.72" cy="7.28" r="1.21"/><circle cx="7.27" cy="4.25" r="1.21"/><circle cx="4.24" cy="4.25" r="1.21"/><circle cx="1.21" cy="4.25" r="1.21"/><circle cx="5.76" cy="1.21" r="1.21"/><circle cx="2.72" cy="1.21" r="1.21"/></g><g transform="translate(84.96 124.83)"><circle cx="5.76" cy="7.28" r="1.21"/><circle cx="2.72" cy="7.28" r="1.21"/><circle cx="7.27" cy="4.25" r="1.21"/><circle cx="4.24" cy="4.25" r="1.21"/><circle cx="1.21" cy="4.25" r="1.21"/><circle cx="5.76" cy="1.21" r="1.21"/><circle cx="2.72" cy="1.21" r="1.21"/></g><g transform="translate(84.96 130.9)"><circle cx="5.76" cy="7.28" r="1.21"/><circle cx="2.72" cy="7.28" r="1.21"/><circle cx="7.27" cy="4.24" r="1.21"/><circle cx="4.24" cy="4.24" r="1.21"/><circle cx="1.21" cy="4.24" r="1.21"/><circle cx="5.76" cy="1.21" r="1.21"/><circle cx="2.72" cy="1.21" r="1.21"/></g><g transform="translate(78.89 21.68)"><circle cx="5.76" cy="7.27" r="1.21"/><circle cx="2.72" cy="7.27" r="1.21"/><circle cx="7.28" cy="4.24" r="1.21"/><circle cx="4.24" cy="4.24" r="1.21"/><circle cx="1.21" cy="4.24" r="1.21"/><circle cx="5.76" cy="1.21" r="1.21"/><circle cx="2.72" cy="1.21" r="1.21"/></g><g transform="translate(78.89 27.74)"><circle cx="5.76" cy="7.28" r="1.21"/><circle cx="2.72" cy="7.28" r="1.21"/><circle cx="7.28" cy="4.25" r="1.21"/><circle cx="4.24" cy="4.25" r="1.21"/><circle cx="1.21" cy="4.25" r="1.21"/><circle cx="5.76" cy="1.21" r="1.21"/><circle cx="2.72" cy="1.21" r="1.21"/></g><g transform="translate(78.89 33.81)"><circle cx="5.76" cy="7.28" r="1.21"/><circle cx="2.72" cy="7.28" r="1.21"/><circle cx="7.28" cy="4.25" r="1.21"/><circle cx="4.24" cy="4.25" r="1.21"/><circle cx="1.21" cy="4.25" r="1.21"/><circle cx="5.76" cy="1.21" r="1.21"/><circle cx="2.72" cy="1.21" r="1.21"/></g><g transform="translate(78.89 39.88)"><circle cx="5.76" cy="7.28" r="1.21"/><circle cx="2.72" cy="7.28" r="1.21"/><circle cx="7.28" cy="4.24" r="1.21"/><circle cx="4.24" cy="4.24" r="1.21"/><circle cx="1.21" cy="4.24" r="1.21"/><circle cx="5.76" cy="1.21" r="1.21"/><circle cx="2.72" cy="1.21" r="1.21"/></g><g transform="translate(78.89 45.95)"><circle cx="5.76" cy="7.28" r="1.21"/><circle cx="2.72" cy="7.28" r="1.21"/><circle cx="7.28" cy="4.24" r="1.21"/><circle cx="4.24" cy="4.24" r="1.21"/><circle cx="1.21" cy="4.24" r="1.21"/><circle cx="5.76" cy="1.21" r="1.21"/><circle cx="2.72" cy="1.21" r="1.21"/></g><g transform="translate(78.89 52.02)"><circle cx="5.76" cy="7.27" r="1.21"/><circle cx="2.72" cy="7.27" r="1.21"/><circle cx="7.28" cy="4.24" r="1.21"/><circle cx="4.24" cy="4.24" r="1.21"/><circle cx="1.21" cy="4.24" r="1.21"/><circle cx="5.76" cy="1.21" r="1.21"/><circle cx="2.72" cy="1.21" r="1.21"/></g><g transform="translate(78.89 58.08)"><circle cx="5.76" cy="7.28" r="1.21"/><circle cx="2.72" cy="7.28" r="1.21"/><circle cx="7.28" cy="4.25" r="1.21"/><circle cx="4.24" cy="4.25" r="1.21"/><circle cx="1.21" cy="4.25" r="1.21"/><circle cx="5.76" cy="1.21" r="1.21"/><circle cx="2.72" cy="1.21" r="1.21"/></g><g transform="translate(78.89 64.15)"><circle cx="5.76" cy="7.28" r="1.21"/><circle cx="2.72" cy="7.28" r="1.21"/><circle cx="7.28" cy="4.25" r="1.21"/><circle cx="4.24" cy="4.25" r="1.21"/><circle cx="1.21" cy="4.25" r="1.21"/><circle cx="5.76" cy="1.21" r="1.21"/><circle cx="2.72" cy="1.21" r="1.21"/></g><g transform="translate(78.89 70.22)"><circle cx="5.76" cy="7.28" r="1.21"/><circle cx="2.72" cy="7.28" r="1.21"/><circle cx="7.28" cy="4.24" r="1.21"/><circle cx="4.24" cy="4.24" r="1.21"/><circle cx="1.21" cy="4.24" r="1.21"/><circle cx="5.76" cy="1.21" r="1.21"/><circle cx="2.72" cy="1.21" r="1.21"/></g><g transform="translate(78.89 76.29)"><circle cx="5.76" cy="7.28" r="1.21"/><circle cx="2.72" cy="7.28" r="1.21"/><circle cx="7.28" cy="4.24" r="1.21"/><circle cx="4.24" cy="4.24" r="1.21"/><circle cx="1.21" cy="4.24" r="1.21"/><circle cx="5.76" cy="1.21" r="1.21"/><circle cx="2.72" cy="1.21" r="1.21"/></g><g transform="translate(78.89 82.36)"><circle cx="5.76" cy="7.27" r="1.21"/><circle cx="2.72" cy="7.27" r="1.21"/><circle cx="7.28" cy="4.24" r="1.21"/><circle cx="4.24" cy="4.24" r="1.21"/><circle cx="1.21" cy="4.24" r="1.21"/><circle cx="5.76" cy="1.21" r="1.21"/><circle cx="2.72" cy="1.21" r="1.21"/></g><g transform="translate(78.89 88.42)"><circle cx="5.76" cy="7.28" r="1.21"/><circle cx="2.72" cy="7.28" r="1.21"/><circle cx="7.28" cy="4.25" r="1.21"/><circle cx="4.24" cy="4.25" r="1.21"/><circle cx="1.21" cy="4.25" r="1.21"/><circle cx="5.76" cy="1.21" r="1.21"/><circle cx="2.72" cy="1.21" r="1.21"/></g><g transform="translate(78.89 94.49)"><circle cx="5.76" cy="7.28" r="1.21"/><circle cx="2.72" cy="7.28" r="1.21"/><circle cx="7.28" cy="4.25" r="1.21"/><circle cx="4.24" cy="4.25" r="1.21"/><circle cx="1.21" cy="4.25" r="1.21"/><circle cx="5.76" cy="1.21" r="1.21"/><circle cx="2.72" cy="1.21" r="1.21"/></g><g transform="translate(78.89 100.56)"><circle cx="5.76" cy="7.28" r="1.21"/><circle cx="2.72" cy="7.28" r="1.21"/><circle cx="7.28" cy="4.24" r="1.21"/><circle cx="4.24" cy="4.24" r="1.21"/><circle cx="1.21" cy="4.24" r="1.21"/><circle cx="5.76" cy="1.21" r="1.21"/><circle cx="2.72" cy="1.21" r="1.21"/></g><g transform="translate(78.89 106.63)"><circle cx="5.76" cy="7.28" r="1.21"/><circle cx="2.72" cy="7.28" r="1.21"/><circle cx="7.28" cy="4.24" r="1.21"/><circle cx="4.24" cy="4.24" r="1.21"/><circle cx="1.21" cy="4.24" r="1.21"/><circle cx="5.76" cy="1.21" r="1.21"/><circle cx="2.72" cy="1.21" r="1.21"/></g><g transform="translate(78.89 112.7)"><circle cx="5.76" cy="7.27" r="1.21"/><circle cx="2.72" cy="7.27" r="1.21"/><circle cx="7.28" cy="4.24" r="1.21"/><circle cx="4.24" cy="4.24" r="1.21"/><circle cx="1.21" cy="4.24" r="1.21"/><circle cx="5.76" cy="1.21" r="1.21"/><circle cx="2.72" cy="1.21" r="1.21"/></g><g transform="translate(78.89 118.76)"><circle cx="5.76" cy="7.28" r="1.21"/><circle cx="2.72" cy="7.28" r="1.21"/><circle cx="7.28" cy="4.25" r="1.21"/><circle cx="4.24" cy="4.25" r="1.21"/><circle cx="1.21" cy="4.25" r="1.21"/><circle cx="5.76" cy="1.21" r="1.21"/><circle cx="2.72" cy="1.21" r="1.21"/></g><g transform="translate(78.89 124.83)"><circle cx="5.76" cy="7.28" r="1.21"/><circle cx="2.72" cy="7.28" r="1.21"/><circle cx="7.28" cy="4.25" r="1.21"/><circle cx="4.24" cy="4.25" r="1.21"/><circle cx="1.21" cy="4.25" r="1.21"/><circle cx="5.76" cy="1.21" r="1.21"/><circle cx="2.72" cy="1.21" r="1.21"/></g><g transform="translate(78.89 130.9)"><circle cx="5.76" cy="7.28" r="1.21"/><circle cx="2.72" cy="7.28" r="1.21"/><circle cx="7.28" cy="4.24" r="1.21"/><circle cx="4.24" cy="4.24" r="1.21"/><circle cx="1.21" cy="4.24" r="1.21"/><circle cx="5.76" cy="1.21" r="1.21"/><circle cx="2.72" cy="1.21" r="1.21"/></g><g transform="translate(72.82 21.68)"><circle cx="5.76" cy="7.27" r="1.21"/><circle cx="2.73" cy="7.27" r="1.21"/><circle cx="7.28" cy="4.24" r="1.21"/><circle cx="4.24" cy="4.24" r="1.21"/><circle cx="1.21" cy="4.24" r="1.21"/><circle cx="5.76" cy="1.21" r="1.21"/><circle cx="2.73" cy="1.21" r="1.21"/></g><g transform="translate(72.82 27.74)"><circle cx="5.76" cy="7.28" r="1.21"/><circle cx="2.73" cy="7.28" r="1.21"/><circle cx="7.28" cy="4.25" r="1.21"/><circle cx="4.24" cy="4.25" r="1.21"/><circle cx="1.21" cy="4.25" r="1.21"/><circle cx="5.76" cy="1.21" r="1.21"/><circle cx="2.73" cy="1.21" r="1.21"/></g><g transform="translate(72.82 33.81)"><circle cx="5.76" cy="7.28" r="1.21"/><circle cx="2.73" cy="7.28" r="1.21"/><circle cx="7.28" cy="4.25" r="1.21"/><circle cx="4.24" cy="4.25" r="1.21"/><circle cx="1.21" cy="4.25" r="1.21"/><circle cx="5.76" cy="1.21" r="1.21"/><circle cx="2.73" cy="1.21" r="1.21"/></g><g transform="translate(72.82 39.88)"><circle cx="5.76" cy="7.28" r="1.21"/><circle cx="2.73" cy="7.28" r="1.21"/><circle cx="7.28" cy="4.24" r="1.21"/><circle cx="4.24" cy="4.24" r="1.21"/><circle cx="1.21" cy="4.24" r="1.21"/><circle cx="5.76" cy="1.21" r="1.21"/><circle cx="2.73" cy="1.21" r="1.21"/></g><g transform="translate(72.82 45.95)"><circle cx="5.76" cy="7.28" r="1.21"/><circle cx="2.73" cy="7.28" r="1.21"/><circle cx="7.28" cy="4.24" r="1.21"/><circle cx="4.24" cy="4.24" r="1.21"/><circle cx="1.21" cy="4.24" r="1.21"/><circle cx="5.76" cy="1.21" r="1.21"/><circle cx="2.73" cy="1.21" r="1.21"/></g><g transform="translate(72.82 52.02)"><circle cx="5.76" cy="7.27" r="1.21"/><circle cx="2.73" cy="7.27" r="1.21"/><circle cx="7.28" cy="4.24" r="1.21"/><circle cx="4.24" cy="4.24" r="1.21"/><circle cx="1.21" cy="4.24" r="1.21"/><circle cx="5.76" cy="1.21" r="1.21"/><circle cx="2.73" cy="1.21" r="1.21"/></g><g transform="translate(72.82 58.08)"><circle cx="5.76" cy="7.28" r="1.21"/><circle cx="2.73" cy="7.28" r="1.21"/><circle cx="7.28" cy="4.25" r="1.21"/><circle cx="4.24" cy="4.25" r="1.21"/><circle cx="1.21" cy="4.25" r="1.21"/><circle cx="5.76" cy="1.21" r="1.21"/><circle cx="2.73" cy="1.21" r="1.21"/></g><g transform="translate(72.82 64.15)"><circle cx="5.76" cy="7.28" r="1.21"/><circle cx="2.73" cy="7.28" r="1.21"/><circle cx="7.28" cy="4.25" r="1.21"/><circle cx="4.24" cy="4.25" r="1.21"/><circle cx="1.21" cy="4.25" r="1.21"/><circle cx="5.76" cy="1.21" r="1.21"/><circle cx="2.73" cy="1.21" r="1.21"/></g><g transform="translate(72.82 70.22)"><circle cx="5.76" cy="7.28" r="1.21"/><circle cx="2.73" cy="7.28" r="1.21"/><circle cx="7.28" cy="4.24" r="1.21"/><circle cx="4.24" cy="4.24" r="1.21"/><circle cx="1.21" cy="4.24" r="1.21"/><circle cx="5.76" cy="1.21" r="1.21"/><circle cx="2.73" cy="1.21" r="1.21"/></g><g transform="translate(72.82 76.29)"><circle cx="5.76" cy="7.28" r="1.21"/><circle cx="2.73" cy="7.28" r="1.21"/><circle cx="7.28" cy="4.24" r="1.21"/><circle cx="4.24" cy="4.24" r="1.21"/><circle cx="1.21" cy="4.24" r="1.21"/><circle cx="5.76" cy="1.21" r="1.21"/><circle cx="2.73" cy="1.21" r="1.21"/></g><g transform="translate(72.82 82.36)"><circle cx="5.76" cy="7.27" r="1.21"/><circle cx="2.73" cy="7.27" r="1.21"/><circle cx="7.28" cy="4.24" r="1.21"/><circle cx="4.24" cy="4.24" r="1.21"/><circle cx="1.21" cy="4.24" r="1.21"/><circle cx="5.76" cy="1.21" r="1.21"/><circle cx="2.73" cy="1.21" r="1.21"/></g><g transform="translate(72.82 88.42)"><circle cx="5.76" cy="7.28" r="1.21"/><circle cx="2.73" cy="7.28" r="1.21"/><circle cx="7.28" cy="4.25" r="1.21"/><circle cx="4.24" cy="4.25" r="1.21"/><circle cx="1.21" cy="4.25" r="1.21"/><circle cx="5.76" cy="1.21" r="1.21"/><circle cx="2.73" cy="1.21" r="1.21"/></g><g transform="translate(72.82 94.49)"><circle cx="5.76" cy="7.28" r="1.21"/><circle cx="2.73" cy="7.28" r="1.21"/><circle cx="7.28" cy="4.25" r="1.21"/><circle cx="4.24" cy="4.25" r="1.21"/><circle cx="1.21" cy="4.25" r="1.21"/><circle cx="5.76" cy="1.21" r="1.21"/><circle cx="2.73" cy="1.21" r="1.21"/></g><g transform="translate(72.82 100.56)"><circle cx="5.76" cy="7.28" r="1.21"/><circle cx="2.73" cy="7.28" r="1.21"/><circle cx="7.28" cy="4.24" r="1.21"/><circle cx="4.24" cy="4.24" r="1.21"/><circle cx="1.21" cy="4.24" r="1.21"/><circle cx="5.76" cy="1.21" r="1.21"/><circle cx="2.73" cy="1.21" r="1.21"/></g><g transform="translate(72.82 106.63)"><circle cx="5.76" cy="7.28" r="1.21"/><circle cx="2.73" cy="7.28" r="1.21"/><circle cx="7.28" cy="4.24" r="1.21"/><circle cx="4.24" cy="4.24" r="1.21"/><circle cx="1.21" cy="4.24" r="1.21"/><circle cx="5.76" cy="1.21" r="1.21"/><circle cx="2.73" cy="1.21" r="1.21"/></g><g transform="translate(72.82 112.7)"><circle cx="5.76" cy="7.27" r="1.21"/><circle cx="2.73" cy="7.27" r="1.21"/><circle cx="7.28" cy="4.24" r="1.21"/><circle cx="4.24" cy="4.24" r="1.21"/><circle cx="1.21" cy="4.24" r="1.21"/><circle cx="5.76" cy="1.21" r="1.21"/><circle cx="2.73" cy="1.21" r="1.21"/></g><g transform="translate(72.82 118.76)"><circle cx="5.76" cy="7.28" r="1.21"/><circle cx="2.73" cy="7.28" r="1.21"/><circle cx="7.28" cy="4.25" r="1.21"/><circle cx="4.24" cy="4.25" r="1.21"/><circle cx="1.21" cy="4.25" r="1.21"/><circle cx="5.76" cy="1.21" r="1.21"/><circle cx="2.73" cy="1.21" r="1.21"/></g><g transform="translate(72.82 124.83)"><circle cx="5.76" cy="7.28" r="1.21"/><circle cx="2.73" cy="7.28" r="1.21"/><circle cx="7.28" cy="4.25" r="1.21"/><circle cx="4.24" cy="4.25" r="1.21"/><circle cx="1.21" cy="4.25" r="1.21"/><circle cx="5.76" cy="1.21" r="1.21"/><circle cx="2.73" cy="1.21" r="1.21"/></g><g transform="translate(72.82 130.9)"><circle cx="5.76" cy="7.28" r="1.21"/><circle cx="2.73" cy="7.28" r="1.21"/><circle cx="7.28" cy="4.24" r="1.21"/><circle cx="4.24" cy="4.24" r="1.21"/><circle cx="1.21" cy="4.24" r="1.21"/><circle cx="5.76" cy="1.21" r="1.21"/><circle cx="2.73" cy="1.21" r="1.21"/></g><g transform="translate(66.75 21.68)"><circle cx="5.76" cy="7.27" r="1.21"/><circle cx="2.73" cy="7.27" r="1.21"/><circle cx="7.28" cy="4.24" r="1.21"/><circle cx="4.25" cy="4.24" r="1.21"/><circle cx="1.21" cy="4.24" r="1.21"/><circle cx="5.76" cy="1.21" r="1.21"/><circle cx="2.73" cy="1.21" r="1.21"/></g><g transform="translate(66.75 27.74)"><circle cx="5.76" cy="7.28" r="1.21"/><circle cx="2.73" cy="7.28" r="1.21"/><circle cx="7.28" cy="4.25" r="1.21"/><circle cx="4.25" cy="4.25" r="1.21"/><circle cx="1.21" cy="4.25" r="1.21"/><circle cx="5.76" cy="1.21" r="1.21"/><circle cx="2.73" cy="1.21" r="1.21"/></g><g transform="translate(66.75 33.81)"><circle cx="5.76" cy="7.28" r="1.21"/><circle cx="2.73" cy="7.28" r="1.21"/><circle cx="7.28" cy="4.25" r="1.21"/><circle cx="4.25" cy="4.25" r="1.21"/><circle cx="1.21" cy="4.25" r="1.21"/><circle cx="5.76" cy="1.21" r="1.21"/><circle cx="2.73" cy="1.21" r="1.21"/></g><g transform="translate(66.75 39.88)"><circle cx="5.76" cy="7.28" r="1.21"/><circle cx="2.73" cy="7.28" r="1.21"/><circle cx="7.28" cy="4.24" r="1.21"/><circle cx="4.25" cy="4.24" r="1.21"/><circle cx="1.21" cy="4.24" r="1.21"/><circle cx="5.76" cy="1.21" r="1.21"/><circle cx="2.73" cy="1.21" r="1.21"/></g><g transform="translate(66.75 45.95)"><circle cx="5.76" cy="7.28" r="1.21"/><circle cx="2.73" cy="7.28" r="1.21"/><circle cx="7.28" cy="4.24" r="1.21"/><circle cx="4.25" cy="4.24" r="1.21"/><circle cx="1.21" cy="4.24" r="1.21"/><circle cx="5.76" cy="1.21" r="1.21"/><circle cx="2.73" cy="1.21" r="1.21"/></g><g transform="translate(66.75 52.02)"><circle cx="5.76" cy="7.27" r="1.21"/><circle cx="2.73" cy="7.27" r="1.21"/><circle cx="7.28" cy="4.24" r="1.21"/><circle cx="4.25" cy="4.24" r="1.21"/><circle cx="1.21" cy="4.24" r="1.21"/><circle cx="5.76" cy="1.21" r="1.21"/><circle cx="2.73" cy="1.21" r="1.21"/></g><g transform="translate(66.75 58.08)"><circle cx="5.76" cy="7.28" r="1.21"/><circle cx="2.73" cy="7.28" r="1.21"/><circle cx="7.28" cy="4.25" r="1.21"/><circle cx="4.25" cy="4.25" r="1.21"/><circle cx="1.21" cy="4.25" r="1.21"/><circle cx="5.76" cy="1.21" r="1.21"/><circle cx="2.73" cy="1.21" r="1.21"/></g><g transform="translate(66.75 64.15)"><circle cx="5.76" cy="7.28" r="1.21"/><circle cx="2.73" cy="7.28" r="1.21"/><circle cx="7.28" cy="4.25" r="1.21"/><circle cx="4.25" cy="4.25" r="1.21"/><circle cx="1.21" cy="4.25" r="1.21"/><circle cx="5.76" cy="1.21" r="1.21"/><circle cx="2.73" cy="1.21" r="1.21"/></g><g transform="translate(66.75 70.22)"><circle cx="5.76" cy="7.28" r="1.21"/><circle cx="2.73" cy="7.28" r="1.21"/><circle cx="7.28" cy="4.24" r="1.21"/><circle cx="4.25" cy="4.24" r="1.21"/><circle cx="1.21" cy="4.24" r="1.21"/><circle cx="5.76" cy="1.21" r="1.21"/><circle cx="2.73" cy="1.21" r="1.21"/></g><g transform="translate(66.75 76.29)"><circle cx="5.76" cy="7.28" r="1.21"/><circle cx="2.73" cy="7.28" r="1.21"/><circle cx="7.28" cy="4.24" r="1.21"/><circle cx="4.25" cy="4.24" r="1.21"/><circle cx="1.21" cy="4.24" r="1.21"/><circle cx="5.76" cy="1.21" r="1.21"/><circle cx="2.73" cy="1.21" r="1.21"/></g><g transform="translate(66.75 82.36)"><circle cx="5.76" cy="7.27" r="1.21"/><circle cx="2.73" cy="7.27" r="1.21"/><circle cx="7.28" cy="4.24" r="1.21"/><circle cx="4.25" cy="4.24" r="1.21"/><circle cx="1.21" cy="4.24" r="1.21"/><circle cx="5.76" cy="1.21" r="1.21"/><circle cx="2.73" cy="1.21" r="1.21"/></g><g transform="translate(66.75 88.42)"><circle cx="5.76" cy="7.28" r="1.21"/><circle cx="2.73" cy="7.28" r="1.21"/><circle cx="7.28" cy="4.25" r="1.21"/><circle cx="4.25" cy="4.25" r="1.21"/><circle cx="1.21" cy="4.25" r="1.21"/><circle cx="5.76" cy="1.21" r="1.21"/><circle cx="2.73" cy="1.21" r="1.21"/></g><g transform="translate(66.75 94.49)"><circle cx="5.76" cy="7.28" r="1.21"/><circle cx="2.73" cy="7.28" r="1.21"/><circle cx="7.28" cy="4.25" r="1.21"/><circle cx="4.25" cy="4.25" r="1.21"/><circle cx="1.21" cy="4.25" r="1.21"/><circle cx="5.76" cy="1.21" r="1.21"/><circle cx="2.73" cy="1.21" r="1.21"/></g><g transform="translate(66.75 100.56)"><circle cx="5.76" cy="7.28" r="1.21"/><circle cx="2.73" cy="7.28" r="1.21"/><circle cx="7.28" cy="4.24" r="1.21"/><circle cx="4.25" cy="4.24" r="1.21"/><circle cx="1.21" cy="4.24" r="1.21"/><circle cx="5.76" cy="1.21" r="1.21"/><circle cx="2.73" cy="1.21" r="1.21"/></g><g transform="translate(66.75 106.63)"><circle cx="5.76" cy="7.28" r="1.21"/><circle cx="2.73" cy="7.28" r="1.21"/><circle cx="7.28" cy="4.24" r="1.21"/><circle cx="4.25" cy="4.24" r="1.21"/><circle cx="1.21" cy="4.24" r="1.21"/><circle cx="5.76" cy="1.21" r="1.21"/><circle cx="2.73" cy="1.21" r="1.21"/></g><g transform="translate(66.75 112.7)"><circle cx="5.76" cy="7.27" r="1.21"/><circle cx="2.73" cy="7.27" r="1.21"/><circle cx="7.28" cy="4.24" r="1.21"/><circle cx="4.25" cy="4.24" r="1.21"/><circle cx="1.21" cy="4.24" r="1.21"/><circle cx="5.76" cy="1.21" r="1.21"/><circle cx="2.73" cy="1.21" r="1.21"/></g><g transform="translate(66.75 118.76)"><circle cx="5.76" cy="7.28" r="1.21"/><circle cx="2.73" cy="7.28" r="1.21"/><circle cx="7.28" cy="4.25" r="1.21"/><circle cx="4.25" cy="4.25" r="1.21"/><circle cx="1.21" cy="4.25" r="1.21"/><circle cx="5.76" cy="1.21" r="1.21"/><circle cx="2.73" cy="1.21" r="1.21"/></g><g transform="translate(66.75 124.83)"><circle cx="5.76" cy="7.28" r="1.21"/><circle cx="2.73" cy="7.28" r="1.21"/><circle cx="7.28" cy="4.25" r="1.21"/><circle cx="4.25" cy="4.25" r="1.21"/><circle cx="1.21" cy="4.25" r="1.21"/><circle cx="5.76" cy="1.21" r="1.21"/><circle cx="2.73" cy="1.21" r="1.21"/></g><g transform="translate(66.75 130.9)"><circle cx="5.76" cy="7.28" r="1.21"/><circle cx="2.73" cy="7.28" r="1.21"/><circle cx="7.28" cy="4.24" r="1.21"/><circle cx="4.25" cy="4.24" r="1.21"/><circle cx="1.21" cy="4.24" r="1.21"/><circle cx="5.76" cy="1.21" r="1.21"/><circle cx="2.73" cy="1.21" r="1.21"/></g><g transform="translate(60.68 21.68)"><circle cx="5.76" cy="7.27" r="1.21"/><circle cx="2.73" cy="7.27" r="1.21"/><circle cx="7.28" cy="4.24" r="1.21"/><circle cx="4.25" cy="4.24" r="1.21"/><circle cx="1.21" cy="4.24" r="1.21"/><circle cx="5.76" cy="1.21" r="1.21"/><circle cx="2.73" cy="1.21" r="1.21"/></g><g transform="translate(60.68 27.74)"><circle cx="5.76" cy="7.28" r="1.21"/><circle cx="2.73" cy="7.28" r="1.21"/><circle cx="7.28" cy="4.25" r="1.21"/><circle cx="4.25" cy="4.25" r="1.21"/><circle cx="1.21" cy="4.25" r="1.21"/><circle cx="5.76" cy="1.21" r="1.21"/><circle cx="2.73" cy="1.21" r="1.21"/></g><g transform="translate(60.68 33.81)"><circle cx="5.76" cy="7.28" r="1.21"/><circle cx="2.73" cy="7.28" r="1.21"/><circle cx="7.28" cy="4.25" r="1.21"/><circle cx="4.25" cy="4.25" r="1.21"/><circle cx="1.21" cy="4.25" r="1.21"/><circle cx="5.76" cy="1.21" r="1.21"/><circle cx="2.73" cy="1.21" r="1.21"/></g><g transform="translate(60.68 39.88)"><circle cx="5.76" cy="7.28" r="1.21"/><circle cx="2.73" cy="7.28" r="1.21"/><circle cx="7.28" cy="4.24" r="1.21"/><circle cx="4.25" cy="4.24" r="1.21"/><circle cx="1.21" cy="4.24" r="1.21"/><circle cx="5.76" cy="1.21" r="1.21"/><circle cx="2.73" cy="1.21" r="1.21"/></g><g transform="translate(60.68 45.95)"><circle cx="5.76" cy="7.28" r="1.21"/><circle cx="2.73" cy="7.28" r="1.21"/><circle cx="7.28" cy="4.24" r="1.21"/><circle cx="4.25" cy="4.24" r="1.21"/><circle cx="1.21" cy="4.24" r="1.21"/><circle cx="5.76" cy="1.21" r="1.21"/><circle cx="2.73" cy="1.21" r="1.21"/></g><g transform="translate(60.68 52.02)"><circle cx="5.76" cy="7.27" r="1.21"/><circle cx="2.73" cy="7.27" r="1.21"/><circle cx="7.28" cy="4.24" r="1.21"/><circle cx="4.25" cy="4.24" r="1.21"/><circle cx="1.21" cy="4.24" r="1.21"/><circle cx="5.76" cy="1.21" r="1.21"/><circle cx="2.73" cy="1.21" r="1.21"/></g><g transform="translate(60.68 58.08)"><circle cx="5.76" cy="7.28" r="1.21"/><circle cx="2.73" cy="7.28" r="1.21"/><circle cx="7.28" cy="4.25" r="1.21"/><circle cx="4.25" cy="4.25" r="1.21"/><circle cx="1.21" cy="4.25" r="1.21"/><circle cx="5.76" cy="1.21" r="1.21"/><circle cx="2.73" cy="1.21" r="1.21"/></g><g transform="translate(60.68 64.15)"><circle cx="5.76" cy="7.28" r="1.21"/><circle cx="2.73" cy="7.28" r="1.21"/><circle cx="7.28" cy="4.25" r="1.21"/><circle cx="4.25" cy="4.25" r="1.21"/><circle cx="1.21" cy="4.25" r="1.21"/><circle cx="5.76" cy="1.21" r="1.21"/><circle cx="2.73" cy="1.21" r="1.21"/></g><g transform="translate(60.68 70.22)"><circle cx="5.76" cy="7.28" r="1.21"/><circle cx="2.73" cy="7.28" r="1.21"/><circle cx="7.28" cy="4.24" r="1.21"/><circle cx="4.25" cy="4.24" r="1.21"/><circle cx="1.21" cy="4.24" r="1.21"/><circle cx="5.76" cy="1.21" r="1.21"/><circle cx="2.73" cy="1.21" r="1.21"/></g><g transform="translate(60.68 76.29)"><circle cx="5.76" cy="7.28" r="1.21"/><circle cx="2.73" cy="7.28" r="1.21"/><circle cx="7.28" cy="4.24" r="1.21"/><circle cx="4.25" cy="4.24" r="1.21"/><circle cx="1.21" cy="4.24" r="1.21"/><circle cx="5.76" cy="1.21" r="1.21"/><circle cx="2.73" cy="1.21" r="1.21"/></g><g transform="translate(60.68 82.36)"><circle cx="5.76" cy="7.27" r="1.21"/><circle cx="2.73" cy="7.27" r="1.21"/><circle cx="7.28" cy="4.24" r="1.21"/><circle cx="4.25" cy="4.24" r="1.21"/><circle cx="1.21" cy="4.24" r="1.21"/><circle cx="5.76" cy="1.21" r="1.21"/><circle cx="2.73" cy="1.21" r="1.21"/></g><g transform="translate(60.68 88.42)"><circle cx="5.76" cy="7.28" r="1.21"/><circle cx="2.73" cy="7.28" r="1.21"/><circle cx="7.28" cy="4.25" r="1.21"/><circle cx="4.25" cy="4.25" r="1.21"/><circle cx="1.21" cy="4.25" r="1.21"/><circle cx="5.76" cy="1.21" r="1.21"/><circle cx="2.73" cy="1.21" r="1.21"/></g><g transform="translate(60.68 94.49)"><circle cx="5.76" cy="7.28" r="1.21"/><circle cx="2.73" cy="7.28" r="1.21"/><circle cx="7.28" cy="4.25" r="1.21"/><circle cx="4.25" cy="4.25" r="1.21"/><circle cx="1.21" cy="4.25" r="1.21"/><circle cx="5.76" cy="1.21" r="1.21"/><circle cx="2.73" cy="1.21" r="1.21"/></g><g transform="translate(60.68 100.56)"><circle cx="5.76" cy="7.28" r="1.21"/><circle cx="2.73" cy="7.28" r="1.21"/><circle cx="7.28" cy="4.24" r="1.21"/><circle cx="4.25" cy="4.24" r="1.21"/><circle cx="1.21" cy="4.24" r="1.21"/><circle cx="5.76" cy="1.21" r="1.21"/><circle cx="2.73" cy="1.21" r="1.21"/></g><g transform="translate(60.68 106.63)"><circle cx="5.76" cy="7.28" r="1.21"/><circle cx="2.73" cy="7.28" r="1.21"/><circle cx="7.28" cy="4.24" r="1.21"/><circle cx="4.25" cy="4.24" r="1.21"/><circle cx="1.21" cy="4.24" r="1.21"/><circle cx="5.76" cy="1.21" r="1.21"/><circle cx="2.73" cy="1.21" r="1.21"/></g><g transform="translate(60.68 112.7)"><circle cx="5.76" cy="7.27" r="1.21"/><circle cx="2.73" cy="7.27" r="1.21"/><circle cx="7.28" cy="4.24" r="1.21"/><circle cx="4.25" cy="4.24" r="1.21"/><circle cx="1.21" cy="4.24" r="1.21"/><circle cx="5.76" cy="1.21" r="1.21"/><circle cx="2.73" cy="1.21" r="1.21"/></g><g transform="translate(60.68 118.76)"><circle cx="5.76" cy="7.28" r="1.21"/><circle cx="2.73" cy="7.28" r="1.21"/><circle cx="7.28" cy="4.25" r="1.21"/><circle cx="4.25" cy="4.25" r="1.21"/><circle cx="1.21" cy="4.25" r="1.21"/><circle cx="5.76" cy="1.21" r="1.21"/><circle cx="2.73" cy="1.21" r="1.21"/></g><g transform="translate(60.68 124.83)"><circle cx="5.76" cy="7.28" r="1.21"/><circle cx="2.73" cy="7.28" r="1.21"/><circle cx="7.28" cy="4.25" r="1.21"/><circle cx="4.25" cy="4.25" r="1.21"/><circle cx="1.21" cy="4.25" r="1.21"/><circle cx="5.76" cy="1.21" r="1.21"/><circle cx="2.73" cy="1.21" r="1.21"/></g><g transform="translate(60.68 130.9)"><circle cx="5.76" cy="7.28" r="1.21"/><circle cx="2.73" cy="7.28" r="1.21"/><circle cx="7.28" cy="4.24" r="1.21"/><circle cx="4.25" cy="4.24" r="1.21"/><circle cx="1.21" cy="4.24" r="1.21"/><circle cx="5.76" cy="1.21" r="1.21"/><circle cx="2.73" cy="1.21" r="1.21"/></g><g transform="translate(54.62 21.68)"><circle cx="5.76" cy="7.27" r="1.21"/><circle cx="2.72" cy="7.27" r="1.21"/><circle cx="7.27" cy="4.24" r="1.21"/><circle cx="4.24" cy="4.24" r="1.21"/><circle cx="1.21" cy="4.24" r="1.21"/><circle cx="5.76" cy="1.21" r="1.21"/><circle cx="2.72" cy="1.21" r="1.21"/></g><g transform="translate(54.62 27.74)"><circle cx="5.76" cy="7.28" r="1.21"/><circle cx="2.72" cy="7.28" r="1.21"/><circle cx="7.27" cy="4.25" r="1.21"/><circle cx="4.24" cy="4.25" r="1.21"/><circle cx="1.21" cy="4.25" r="1.21"/><circle cx="5.76" cy="1.21" r="1.21"/><circle cx="2.72" cy="1.21" r="1.21"/></g><g transform="translate(54.62 33.81)"><circle cx="5.76" cy="7.28" r="1.21"/><circle cx="2.72" cy="7.28" r="1.21"/><circle cx="7.27" cy="4.25" r="1.21"/><circle cx="4.24" cy="4.25" r="1.21"/><circle cx="1.21" cy="4.25" r="1.21"/><circle cx="5.76" cy="1.21" r="1.21"/><circle cx="2.72" cy="1.21" r="1.21"/></g><g transform="translate(54.62 39.88)"><circle cx="5.76" cy="7.28" r="1.21"/><circle cx="2.72" cy="7.28" r="1.21"/><circle cx="7.27" cy="4.24" r="1.21"/><circle cx="4.24" cy="4.24" r="1.21"/><circle cx="1.21" cy="4.24" r="1.21"/><circle cx="5.76" cy="1.21" r="1.21"/><circle cx="2.72" cy="1.21" r="1.21"/></g><g transform="translate(54.62 45.95)"><circle cx="5.76" cy="7.28" r="1.21"/><circle cx="2.72" cy="7.28" r="1.21"/><circle cx="7.27" cy="4.24" r="1.21"/><circle cx="4.24" cy="4.24" r="1.21"/><circle cx="1.21" cy="4.24" r="1.21"/><circle cx="5.76" cy="1.21" r="1.21"/><circle cx="2.72" cy="1.21" r="1.21"/></g><g transform="translate(54.62 52.02)"><circle cx="5.76" cy="7.27" r="1.21"/><circle cx="2.72" cy="7.27" r="1.21"/><circle cx="7.27" cy="4.24" r="1.21"/><circle cx="4.24" cy="4.24" r="1.21"/><circle cx="1.21" cy="4.24" r="1.21"/><circle cx="5.76" cy="1.21" r="1.21"/><circle cx="2.72" cy="1.21" r="1.21"/></g><g transform="translate(54.62 58.08)"><circle cx="5.76" cy="7.28" r="1.21"/><circle cx="2.72" cy="7.28" r="1.21"/><circle cx="7.27" cy="4.25" r="1.21"/><circle cx="4.24" cy="4.25" r="1.21"/><circle cx="1.21" cy="4.25" r="1.21"/><circle cx="5.76" cy="1.21" r="1.21"/><circle cx="2.72" cy="1.21" r="1.21"/></g><g transform="translate(54.62 64.15)"><circle cx="5.76" cy="7.28" r="1.21"/><circle cx="2.72" cy="7.28" r="1.21"/><circle cx="7.27" cy="4.25" r="1.21"/><circle cx="4.24" cy="4.25" r="1.21"/><circle cx="1.21" cy="4.25" r="1.21"/><circle cx="5.76" cy="1.21" r="1.21"/><circle cx="2.72" cy="1.21" r="1.21"/></g><g transform="translate(54.62 70.22)"><circle cx="5.76" cy="7.28" r="1.21"/><circle cx="2.72" cy="7.28" r="1.21"/><circle cx="7.27" cy="4.24" r="1.21"/><circle cx="4.24" cy="4.24" r="1.21"/><circle cx="1.21" cy="4.24" r="1.21"/><circle cx="5.76" cy="1.21" r="1.21"/><circle cx="2.72" cy="1.21" r="1.21"/></g><g transform="translate(54.62 76.29)"><circle cx="5.76" cy="7.28" r="1.21"/><circle cx="2.72" cy="7.28" r="1.21"/><circle cx="7.27" cy="4.24" r="1.21"/><circle cx="4.24" cy="4.24" r="1.21"/><circle cx="1.21" cy="4.24" r="1.21"/><circle cx="5.76" cy="1.21" r="1.21"/><circle cx="2.72" cy="1.21" r="1.21"/></g><g transform="translate(54.62 82.36)"><circle cx="5.76" cy="7.27" r="1.21"/><circle cx="2.72" cy="7.27" r="1.21"/><circle cx="7.27" cy="4.24" r="1.21"/><circle cx="4.24" cy="4.24" r="1.21"/><circle cx="1.21" cy="4.24" r="1.21"/><circle cx="5.76" cy="1.21" r="1.21"/><circle cx="2.72" cy="1.21" r="1.21"/></g><g transform="translate(54.62 88.42)"><circle cx="5.76" cy="7.28" r="1.21"/><circle cx="2.72" cy="7.28" r="1.21"/><circle cx="7.27" cy="4.25" r="1.21"/><circle cx="4.24" cy="4.25" r="1.21"/><circle cx="1.21" cy="4.25" r="1.21"/><circle cx="5.76" cy="1.21" r="1.21"/><circle cx="2.72" cy="1.21" r="1.21"/></g><g transform="translate(54.62 94.49)"><circle cx="5.76" cy="7.28" r="1.21"/><circle cx="2.72" cy="7.28" r="1.21"/><circle cx="7.27" cy="4.25" r="1.21"/><circle cx="4.24" cy="4.25" r="1.21"/><circle cx="1.21" cy="4.25" r="1.21"/><circle cx="5.76" cy="1.21" r="1.21"/><circle cx="2.72" cy="1.21" r="1.21"/></g><g transform="translate(54.62 100.56)"><circle cx="5.76" cy="7.28" r="1.21"/><circle cx="2.72" cy="7.28" r="1.21"/><circle cx="7.27" cy="4.24" r="1.21"/><circle cx="4.24" cy="4.24" r="1.21"/><circle cx="1.21" cy="4.24" r="1.21"/><circle cx="5.76" cy="1.21" r="1.21"/><circle cx="2.72" cy="1.21" r="1.21"/></g><g transform="translate(54.62 106.63)"><circle cx="5.76" cy="7.28" r="1.21"/><circle cx="2.72" cy="7.28" r="1.21"/><circle cx="7.27" cy="4.24" r="1.21"/><circle cx="4.24" cy="4.24" r="1.21"/><circle cx="1.21" cy="4.24" r="1.21"/><circle cx="5.76" cy="1.21" r="1.21"/><circle cx="2.72" cy="1.21" r="1.21"/></g><g transform="translate(54.62 112.7)"><circle cx="5.76" cy="7.27" r="1.21"/><circle cx="2.72" cy="7.27" r="1.21"/><circle cx="7.27" cy="4.24" r="1.21"/><circle cx="4.24" cy="4.24" r="1.21"/><circle cx="1.21" cy="4.24" r="1.21"/><circle cx="5.76" cy="1.21" r="1.21"/><circle cx="2.72" cy="1.21" r="1.21"/></g><g transform="translate(54.62 118.76)"><circle cx="5.76" cy="7.28" r="1.21"/><circle cx="2.72" cy="7.28" r="1.21"/><circle cx="7.27" cy="4.25" r="1.21"/><circle cx="4.24" cy="4.25" r="1.21"/><circle cx="1.21" cy="4.25" r="1.21"/><circle cx="5.76" cy="1.21" r="1.21"/><circle cx="2.72" cy="1.21" r="1.21"/></g><g transform="translate(54.62 124.83)"><circle cx="5.76" cy="7.28" r="1.21"/><circle cx="2.72" cy="7.28" r="1.21"/><circle cx="7.27" cy="4.25" r="1.21"/><circle cx="4.24" cy="4.25" r="1.21"/><circle cx="1.21" cy="4.25" r="1.21"/><circle cx="5.76" cy="1.21" r="1.21"/><circle cx="2.72" cy="1.21" r="1.21"/></g><g transform="translate(54.62 130.9)"><circle cx="5.76" cy="7.28" r="1.21"/><circle cx="2.72" cy="7.28" r="1.21"/><circle cx="7.27" cy="4.24" r="1.21"/><circle cx="4.24" cy="4.24" r="1.21"/><circle cx="1.21" cy="4.24" r="1.21"/><circle cx="5.76" cy="1.21" r="1.21"/><circle cx="2.72" cy="1.21" r="1.21"/></g><g transform="translate(48.55 21.68)"><circle cx="5.76" cy="7.27" r="1.21"/><circle cx="2.72" cy="7.27" r="1.21"/><circle cx="7.28" cy="4.24" r="1.21"/><circle cx="4.24" cy="4.24" r="1.21"/><circle cx="1.21" cy="4.24" r="1.21"/><circle cx="5.76" cy="1.21" r="1.21"/><circle cx="2.72" cy="1.21" r="1.21"/></g><g transform="translate(48.55 27.74)"><circle cx="5.76" cy="7.28" r="1.21"/><circle cx="2.72" cy="7.28" r="1.21"/><circle cx="7.28" cy="4.25" r="1.21"/><circle cx="4.24" cy="4.25" r="1.21"/><circle cx="1.21" cy="4.25" r="1.21"/><circle cx="5.76" cy="1.21" r="1.21"/><circle cx="2.72" cy="1.21" r="1.21"/></g><g transform="translate(48.55 33.81)"><circle cx="5.76" cy="7.28" r="1.21"/><circle cx="2.72" cy="7.28" r="1.21"/><circle cx="7.28" cy="4.25" r="1.21"/><circle cx="4.24" cy="4.25" r="1.21"/><circle cx="1.21" cy="4.25" r="1.21"/><circle cx="5.76" cy="1.21" r="1.21"/><circle cx="2.72" cy="1.21" r="1.21"/></g><g transform="translate(48.55 39.88)"><circle cx="5.76" cy="7.28" r="1.21"/><circle cx="2.72" cy="7.28" r="1.21"/><circle cx="7.28" cy="4.24" r="1.21"/><circle cx="4.24" cy="4.24" r="1.21"/><circle cx="1.21" cy="4.24" r="1.21"/><circle cx="5.76" cy="1.21" r="1.21"/><circle cx="2.72" cy="1.21" r="1.21"/></g><g transform="translate(48.55 45.95)"><circle cx="5.76" cy="7.28" r="1.21"/><circle cx="2.72" cy="7.28" r="1.21"/><circle cx="7.28" cy="4.24" r="1.21"/><circle cx="4.24" cy="4.24" r="1.21"/><circle cx="1.21" cy="4.24" r="1.21"/><circle cx="5.76" cy="1.21" r="1.21"/><circle cx="2.72" cy="1.21" r="1.21"/></g><g transform="translate(48.55 52.02)"><circle cx="5.76" cy="7.27" r="1.21"/><circle cx="2.72" cy="7.27" r="1.21"/><circle cx="7.28" cy="4.24" r="1.21"/><circle cx="4.24" cy="4.24" r="1.21"/><circle cx="1.21" cy="4.24" r="1.21"/><circle cx="5.76" cy="1.21" r="1.21"/><circle cx="2.72" cy="1.21" r="1.21"/></g><g transform="translate(48.55 58.08)"><circle cx="5.76" cy="7.28" r="1.21"/><circle cx="2.72" cy="7.28" r="1.21"/><circle cx="7.28" cy="4.25" r="1.21"/><circle cx="4.24" cy="4.25" r="1.21"/><circle cx="1.21" cy="4.25" r="1.21"/><circle cx="5.76" cy="1.21" r="1.21"/><circle cx="2.72" cy="1.21" r="1.21"/></g><g transform="translate(48.55 64.15)"><circle cx="5.76" cy="7.28" r="1.21"/><circle cx="2.72" cy="7.28" r="1.21"/><circle cx="7.28" cy="4.25" r="1.21"/><circle cx="4.24" cy="4.25" r="1.21"/><circle cx="1.21" cy="4.25" r="1.21"/><circle cx="5.76" cy="1.21" r="1.21"/><circle cx="2.72" cy="1.21" r="1.21"/></g><g transform="translate(48.55 70.22)"><circle cx="5.76" cy="7.28" r="1.21"/><circle cx="2.72" cy="7.28" r="1.21"/><circle cx="7.28" cy="4.24" r="1.21"/><circle cx="4.24" cy="4.24" r="1.21"/><circle cx="1.21" cy="4.24" r="1.21"/><circle cx="5.76" cy="1.21" r="1.21"/><circle cx="2.72" cy="1.21" r="1.21"/></g><g transform="translate(48.55 76.29)"><circle cx="5.76" cy="7.28" r="1.21"/><circle cx="2.72" cy="7.28" r="1.21"/><circle cx="7.28" cy="4.24" r="1.21"/><circle cx="4.24" cy="4.24" r="1.21"/><circle cx="1.21" cy="4.24" r="1.21"/><circle cx="5.76" cy="1.21" r="1.21"/><circle cx="2.72" cy="1.21" r="1.21"/></g><g transform="translate(48.55 82.36)"><circle cx="5.76" cy="7.27" r="1.21"/><circle cx="2.72" cy="7.27" r="1.21"/><circle cx="7.28" cy="4.24" r="1.21"/><circle cx="4.24" cy="4.24" r="1.21"/><circle cx="1.21" cy="4.24" r="1.21"/><circle cx="5.76" cy="1.21" r="1.21"/><circle cx="2.72" cy="1.21" r="1.21"/></g><g transform="translate(48.55 88.42)"><circle cx="5.76" cy="7.28" r="1.21"/><circle cx="2.72" cy="7.28" r="1.21"/><circle cx="7.28" cy="4.25" r="1.21"/><circle cx="4.24" cy="4.25" r="1.21"/><circle cx="1.21" cy="4.25" r="1.21"/><circle cx="5.76" cy="1.21" r="1.21"/><circle cx="2.72" cy="1.21" r="1.21"/></g><g transform="translate(48.55 94.49)"><circle cx="5.76" cy="7.28" r="1.21"/><circle cx="2.72" cy="7.28" r="1.21"/><circle cx="7.28" cy="4.25" r="1.21"/><circle cx="4.24" cy="4.25" r="1.21"/><circle cx="1.21" cy="4.25" r="1.21"/><circle cx="5.76" cy="1.21" r="1.21"/><circle cx="2.72" cy="1.21" r="1.21"/></g><g transform="translate(48.55 100.56)"><circle cx="5.76" cy="7.28" r="1.21"/><circle cx="2.72" cy="7.28" r="1.21"/><circle cx="7.28" cy="4.24" r="1.21"/><circle cx="4.24" cy="4.24" r="1.21"/><circle cx="1.21" cy="4.24" r="1.21"/><circle cx="5.76" cy="1.21" r="1.21"/><circle cx="2.72" cy="1.21" r="1.21"/></g><g transform="translate(48.55 106.63)"><circle cx="5.76" cy="7.28" r="1.21"/><circle cx="2.72" cy="7.28" r="1.21"/><circle cx="7.28" cy="4.24" r="1.21"/><circle cx="4.24" cy="4.24" r="1.21"/><circle cx="1.21" cy="4.24" r="1.21"/><circle cx="5.76" cy="1.21" r="1.21"/><circle cx="2.72" cy="1.21" r="1.21"/></g><g transform="translate(48.55 112.7)"><circle cx="5.76" cy="7.27" r="1.21"/><circle cx="2.72" cy="7.27" r="1.21"/><circle cx="7.28" cy="4.24" r="1.21"/><circle cx="4.24" cy="4.24" r="1.21"/><circle cx="1.21" cy="4.24" r="1.21"/><circle cx="5.76" cy="1.21" r="1.21"/><circle cx="2.72" cy="1.21" r="1.21"/></g><g transform="translate(48.55 118.76)"><circle cx="5.76" cy="7.28" r="1.21"/><circle cx="2.72" cy="7.28" r="1.21"/><circle cx="7.28" cy="4.25" r="1.21"/><circle cx="4.24" cy="4.25" r="1.21"/><circle cx="1.21" cy="4.25" r="1.21"/><circle cx="5.76" cy="1.21" r="1.21"/><circle cx="2.72" cy="1.21" r="1.21"/></g><g transform="translate(48.55 124.83)"><circle cx="5.76" cy="7.28" r="1.21"/><circle cx="2.72" cy="7.28" r="1.21"/><circle cx="7.28" cy="4.25" r="1.21"/><circle cx="4.24" cy="4.25" r="1.21"/><circle cx="1.21" cy="4.25" r="1.21"/><circle cx="5.76" cy="1.21" r="1.21"/><circle cx="2.72" cy="1.21" r="1.21"/></g><g transform="translate(48.55 130.9)"><circle cx="5.76" cy="7.28" r="1.21"/><circle cx="2.72" cy="7.28" r="1.21"/><circle cx="7.28" cy="4.24" r="1.21"/><circle cx="4.24" cy="4.24" r="1.21"/><circle cx="1.21" cy="4.24" r="1.21"/><circle cx="5.76" cy="1.21" r="1.21"/><circle cx="2.72" cy="1.21" r="1.21"/></g><g transform="translate(42.48 21.68)"><circle cx="5.76" cy="7.27" r="1.21"/><circle cx="2.73" cy="7.27" r="1.21"/><circle cx="7.28" cy="4.24" r="1.21"/><circle cx="4.24" cy="4.24" r="1.21"/><circle cx="1.21" cy="4.24" r="1.21"/><circle cx="5.76" cy="1.21" r="1.21"/><circle cx="2.73" cy="1.21" r="1.21"/></g><g transform="translate(42.48 27.74)"><circle cx="5.76" cy="7.28" r="1.21"/><circle cx="2.73" cy="7.28" r="1.21"/><circle cx="7.28" cy="4.25" r="1.21"/><circle cx="4.24" cy="4.25" r="1.21"/><circle cx="1.21" cy="4.25" r="1.21"/><circle cx="5.76" cy="1.21" r="1.21"/><circle cx="2.73" cy="1.21" r="1.21"/></g><g transform="translate(42.48 33.81)"><circle cx="5.76" cy="7.28" r="1.21"/><circle cx="2.73" cy="7.28" r="1.21"/><circle cx="7.28" cy="4.25" r="1.21"/><circle cx="4.24" cy="4.25" r="1.21"/><circle cx="1.21" cy="4.25" r="1.21"/><circle cx="5.76" cy="1.21" r="1.21"/><circle cx="2.73" cy="1.21" r="1.21"/></g><g transform="translate(42.48 39.88)"><circle cx="5.76" cy="7.28" r="1.21"/><circle cx="2.73" cy="7.28" r="1.21"/><circle cx="7.28" cy="4.24" r="1.21"/><circle cx="4.24" cy="4.24" r="1.21"/><circle cx="1.21" cy="4.24" r="1.21"/><circle cx="5.76" cy="1.21" r="1.21"/><circle cx="2.73" cy="1.21" r="1.21"/></g><g transform="translate(42.48 45.95)"><circle cx="5.76" cy="7.28" r="1.21"/><circle cx="2.73" cy="7.28" r="1.21"/><circle cx="7.28" cy="4.24" r="1.21"/><circle cx="4.24" cy="4.24" r="1.21"/><circle cx="1.21" cy="4.24" r="1.21"/><circle cx="5.76" cy="1.21" r="1.21"/><circle cx="2.73" cy="1.21" r="1.21"/></g><g transform="translate(42.48 52.02)"><circle cx="5.76" cy="7.27" r="1.21"/><circle cx="2.73" cy="7.27" r="1.21"/><circle cx="7.28" cy="4.24" r="1.21"/><circle cx="4.24" cy="4.24" r="1.21"/><circle cx="1.21" cy="4.24" r="1.21"/><circle cx="5.76" cy="1.21" r="1.21"/><circle cx="2.73" cy="1.21" r="1.21"/></g><g transform="translate(42.48 58.08)"><circle cx="5.76" cy="7.28" r="1.21"/><circle cx="2.73" cy="7.28" r="1.21"/><circle cx="7.28" cy="4.25" r="1.21"/><circle cx="4.24" cy="4.25" r="1.21"/><circle cx="1.21" cy="4.25" r="1.21"/><circle cx="5.76" cy="1.21" r="1.21"/><circle cx="2.73" cy="1.21" r="1.21"/></g><g transform="translate(42.48 64.15)"><circle cx="5.76" cy="7.28" r="1.21"/><circle cx="2.73" cy="7.28" r="1.21"/><circle cx="7.28" cy="4.25" r="1.21"/><circle cx="4.24" cy="4.25" r="1.21"/><circle cx="1.21" cy="4.25" r="1.21"/><circle cx="5.76" cy="1.21" r="1.21"/><circle cx="2.73" cy="1.21" r="1.21"/></g><g transform="translate(42.48 70.22)"><circle cx="5.76" cy="7.28" r="1.21"/><circle cx="2.73" cy="7.28" r="1.21"/><circle cx="7.28" cy="4.24" r="1.21"/><circle cx="4.24" cy="4.24" r="1.21"/><circle cx="1.21" cy="4.24" r="1.21"/><circle cx="5.76" cy="1.21" r="1.21"/><circle cx="2.73" cy="1.21" r="1.21"/></g><g transform="translate(42.48 76.29)"><circle cx="5.76" cy="7.28" r="1.21"/><circle cx="2.73" cy="7.28" r="1.21"/><circle cx="7.28" cy="4.24" r="1.21"/><circle cx="4.24" cy="4.24" r="1.21"/><circle cx="1.21" cy="4.24" r="1.21"/><circle cx="5.76" cy="1.21" r="1.21"/><circle cx="2.73" cy="1.21" r="1.21"/></g><g transform="translate(42.48 82.36)"><circle cx="5.76" cy="7.27" r="1.21"/><circle cx="2.73" cy="7.27" r="1.21"/><circle cx="7.28" cy="4.24" r="1.21"/><circle cx="4.24" cy="4.24" r="1.21"/><circle cx="1.21" cy="4.24" r="1.21"/><circle cx="5.76" cy="1.21" r="1.21"/><circle cx="2.73" cy="1.21" r="1.21"/></g><g transform="translate(42.48 88.42)"><circle cx="5.76" cy="7.28" r="1.21"/><circle cx="2.73" cy="7.28" r="1.21"/><circle cx="7.28" cy="4.25" r="1.21"/><circle cx="4.24" cy="4.25" r="1.21"/><circle cx="1.21" cy="4.25" r="1.21"/><circle cx="5.76" cy="1.21" r="1.21"/><circle cx="2.73" cy="1.21" r="1.21"/></g><g transform="translate(42.48 94.49)"><circle cx="5.76" cy="7.28" r="1.21"/><circle cx="2.73" cy="7.28" r="1.21"/><circle cx="7.28" cy="4.25" r="1.21"/><circle cx="4.24" cy="4.25" r="1.21"/><circle cx="1.21" cy="4.25" r="1.21"/><circle cx="5.76" cy="1.21" r="1.21"/><circle cx="2.73" cy="1.21" r="1.21"/></g><g transform="translate(42.48 100.56)"><circle cx="5.76" cy="7.28" r="1.21"/><circle cx="2.73" cy="7.28" r="1.21"/><circle cx="7.28" cy="4.24" r="1.21"/><circle cx="4.24" cy="4.24" r="1.21"/><circle cx="1.21" cy="4.24" r="1.21"/><circle cx="5.76" cy="1.21" r="1.21"/><circle cx="2.73" cy="1.21" r="1.21"/></g><g transform="translate(42.48 106.63)"><circle cx="5.76" cy="7.28" r="1.21"/><circle cx="2.73" cy="7.28" r="1.21"/><circle cx="7.28" cy="4.24" r="1.21"/><circle cx="4.24" cy="4.24" r="1.21"/><circle cx="1.21" cy="4.24" r="1.21"/><circle cx="5.76" cy="1.21" r="1.21"/><circle cx="2.73" cy="1.21" r="1.21"/></g><g transform="translate(42.48 112.7)"><circle cx="5.76" cy="7.27" r="1.21"/><circle cx="2.73" cy="7.27" r="1.21"/><circle cx="7.28" cy="4.24" r="1.21"/><circle cx="4.24" cy="4.24" r="1.21"/><circle cx="1.21" cy="4.24" r="1.21"/><circle cx="5.76" cy="1.21" r="1.21"/><circle cx="2.73" cy="1.21" r="1.21"/></g><g transform="translate(42.48 118.76)"><circle cx="5.76" cy="7.28" r="1.21"/><circle cx="2.73" cy="7.28" r="1.21"/><circle cx="7.28" cy="4.25" r="1.21"/><circle cx="4.24" cy="4.25" r="1.21"/><circle cx="1.21" cy="4.25" r="1.21"/><circle cx="5.76" cy="1.21" r="1.21"/><circle cx="2.73" cy="1.21" r="1.21"/></g><g transform="translate(42.48 124.83)"><circle cx="5.76" cy="7.28" r="1.21"/><circle cx="2.73" cy="7.28" r="1.21"/><circle cx="7.28" cy="4.25" r="1.21"/><circle cx="4.24" cy="4.25" r="1.21"/><circle cx="1.21" cy="4.25" r="1.21"/><circle cx="5.76" cy="1.21" r="1.21"/><circle cx="2.73" cy="1.21" r="1.21"/></g><g transform="translate(42.48 130.9)"><circle cx="5.76" cy="7.28" r="1.21"/><circle cx="2.73" cy="7.28" r="1.21"/><circle cx="7.28" cy="4.24" r="1.21"/><circle cx="4.24" cy="4.24" r="1.21"/><circle cx="1.21" cy="4.24" r="1.21"/><circle cx="5.76" cy="1.21" r="1.21"/><circle cx="2.73" cy="1.21" r="1.21"/></g><g transform="translate(36.41 21.68)"><circle cx="5.76" cy="7.27" r="1.21"/><circle cx="2.73" cy="7.27" r="1.21"/><circle cx="7.28" cy="4.24" r="1.21"/><circle cx="4.25" cy="4.24" r="1.21"/><circle cx="1.21" cy="4.24" r="1.21"/><circle cx="5.76" cy="1.21" r="1.21"/><circle cx="2.73" cy="1.21" r="1.21"/></g><g transform="translate(36.41 27.74)"><circle cx="5.76" cy="7.28" r="1.21"/><circle cx="2.73" cy="7.28" r="1.21"/><circle cx="7.28" cy="4.25" r="1.21"/><circle cx="4.25" cy="4.25" r="1.21"/><circle cx="1.21" cy="4.25" r="1.21"/><circle cx="5.76" cy="1.21" r="1.21"/><circle cx="2.73" cy="1.21" r="1.21"/></g><g transform="translate(36.41 33.81)"><circle cx="5.76" cy="7.28" r="1.21"/><circle cx="2.73" cy="7.28" r="1.21"/><circle cx="7.28" cy="4.25" r="1.21"/><circle cx="4.25" cy="4.25" r="1.21"/><circle cx="1.21" cy="4.25" r="1.21"/><circle cx="5.76" cy="1.21" r="1.21"/><circle cx="2.73" cy="1.21" r="1.21"/></g><g transform="translate(36.41 39.88)"><circle cx="5.76" cy="7.28" r="1.21"/><circle cx="2.73" cy="7.28" r="1.21"/><circle cx="7.28" cy="4.24" r="1.21"/><circle cx="4.25" cy="4.24" r="1.21"/><circle cx="1.21" cy="4.24" r="1.21"/><circle cx="5.76" cy="1.21" r="1.21"/><circle cx="2.73" cy="1.21" r="1.21"/></g><g transform="translate(36.41 45.95)"><circle cx="5.76" cy="7.28" r="1.21"/><circle cx="2.73" cy="7.28" r="1.21"/><circle cx="7.28" cy="4.24" r="1.21"/><circle cx="4.25" cy="4.24" r="1.21"/><circle cx="1.21" cy="4.24" r="1.21"/><circle cx="5.76" cy="1.21" r="1.21"/><circle cx="2.73" cy="1.21" r="1.21"/></g><g transform="translate(36.41 52.02)"><circle cx="5.76" cy="7.27" r="1.21"/><circle cx="2.73" cy="7.27" r="1.21"/><circle cx="7.28" cy="4.24" r="1.21"/><circle cx="4.25" cy="4.24" r="1.21"/><circle cx="1.21" cy="4.24" r="1.21"/><circle cx="5.76" cy="1.21" r="1.21"/><circle cx="2.73" cy="1.21" r="1.21"/></g><g transform="translate(36.41 58.08)"><circle cx="5.76" cy="7.28" r="1.21"/><circle cx="2.73" cy="7.28" r="1.21"/><circle cx="7.28" cy="4.25" r="1.21"/><circle cx="4.25" cy="4.25" r="1.21"/><circle cx="1.21" cy="4.25" r="1.21"/><circle cx="5.76" cy="1.21" r="1.21"/><circle cx="2.73" cy="1.21" r="1.21"/></g><g transform="translate(36.41 64.15)"><circle cx="5.76" cy="7.28" r="1.21"/><circle cx="2.73" cy="7.28" r="1.21"/><circle cx="7.28" cy="4.25" r="1.21"/><circle cx="4.25" cy="4.25" r="1.21"/><circle cx="1.21" cy="4.25" r="1.21"/><circle cx="5.76" cy="1.21" r="1.21"/><circle cx="2.73" cy="1.21" r="1.21"/></g><g transform="translate(36.41 70.22)"><circle cx="5.76" cy="7.28" r="1.21"/><circle cx="2.73" cy="7.28" r="1.21"/><circle cx="7.28" cy="4.24" r="1.21"/><circle cx="4.25" cy="4.24" r="1.21"/><circle cx="1.21" cy="4.24" r="1.21"/><circle cx="5.76" cy="1.21" r="1.21"/><circle cx="2.73" cy="1.21" r="1.21"/></g><g transform="translate(36.41 76.29)"><circle cx="5.76" cy="7.28" r="1.21"/><circle cx="2.73" cy="7.28" r="1.21"/><circle cx="7.28" cy="4.24" r="1.21"/><circle cx="4.25" cy="4.24" r="1.21"/><circle cx="1.21" cy="4.24" r="1.21"/><circle cx="5.76" cy="1.21" r="1.21"/><circle cx="2.73" cy="1.21" r="1.21"/></g><g transform="translate(36.41 82.36)"><circle cx="5.76" cy="7.27" r="1.21"/><circle cx="2.73" cy="7.27" r="1.21"/><circle cx="7.28" cy="4.24" r="1.21"/><circle cx="4.25" cy="4.24" r="1.21"/><circle cx="1.21" cy="4.24" r="1.21"/><circle cx="5.76" cy="1.21" r="1.21"/><circle cx="2.73" cy="1.21" r="1.21"/></g><g transform="translate(36.41 88.42)"><circle cx="5.76" cy="7.28" r="1.21"/><circle cx="2.73" cy="7.28" r="1.21"/><circle cx="7.28" cy="4.25" r="1.21"/><circle cx="4.25" cy="4.25" r="1.21"/><circle cx="1.21" cy="4.25" r="1.21"/><circle cx="5.76" cy="1.21" r="1.21"/><circle cx="2.73" cy="1.21" r="1.21"/></g><g transform="translate(36.41 94.49)"><circle cx="5.76" cy="7.28" r="1.21"/><circle cx="2.73" cy="7.28" r="1.21"/><circle cx="7.28" cy="4.25" r="1.21"/><circle cx="4.25" cy="4.25" r="1.21"/><circle cx="1.21" cy="4.25" r="1.21"/><circle cx="5.76" cy="1.21" r="1.21"/><circle cx="2.73" cy="1.21" r="1.21"/></g><g transform="translate(36.41 100.56)"><circle cx="5.76" cy="7.28" r="1.21"/><circle cx="2.73" cy="7.28" r="1.21"/><circle cx="7.28" cy="4.24" r="1.21"/><circle cx="4.25" cy="4.24" r="1.21"/><circle cx="1.21" cy="4.24" r="1.21"/><circle cx="5.76" cy="1.21" r="1.21"/><circle cx="2.73" cy="1.21" r="1.21"/></g><g transform="translate(36.41 106.63)"><circle cx="5.76" cy="7.28" r="1.21"/><circle cx="2.73" cy="7.28" r="1.21"/><circle cx="7.28" cy="4.24" r="1.21"/><circle cx="4.25" cy="4.24" r="1.21"/><circle cx="1.21" cy="4.24" r="1.21"/><circle cx="5.76" cy="1.21" r="1.21"/><circle cx="2.73" cy="1.21" r="1.21"/></g><g transform="translate(36.41 112.7)"><circle cx="5.76" cy="7.27" r="1.21"/><circle cx="2.73" cy="7.27" r="1.21"/><circle cx="7.28" cy="4.24" r="1.21"/><circle cx="4.25" cy="4.24" r="1.21"/><circle cx="1.21" cy="4.24" r="1.21"/><circle cx="5.76" cy="1.21" r="1.21"/><circle cx="2.73" cy="1.21" r="1.21"/></g><g transform="translate(36.41 118.76)"><circle cx="5.76" cy="7.28" r="1.21"/><circle cx="2.73" cy="7.28" r="1.21"/><circle cx="7.28" cy="4.25" r="1.21"/><circle cx="4.25" cy="4.25" r="1.21"/><circle cx="1.21" cy="4.25" r="1.21"/><circle cx="5.76" cy="1.21" r="1.21"/><circle cx="2.73" cy="1.21" r="1.21"/></g><g transform="translate(36.41 124.83)"><circle cx="5.76" cy="7.28" r="1.21"/><circle cx="2.73" cy="7.28" r="1.21"/><circle cx="7.28" cy="4.25" r="1.21"/><circle cx="4.25" cy="4.25" r="1.21"/><circle cx="1.21" cy="4.25" r="1.21"/><circle cx="5.76" cy="1.21" r="1.21"/><circle cx="2.73" cy="1.21" r="1.21"/></g><g transform="translate(36.41 130.9)"><circle cx="5.76" cy="7.28" r="1.21"/><circle cx="2.73" cy="7.28" r="1.21"/><circle cx="7.28" cy="4.24" r="1.21"/><circle cx="4.25" cy="4.24" r="1.21"/><circle cx="1.21" cy="4.24" r="1.21"/><circle cx="5.76" cy="1.21" r="1.21"/><circle cx="2.73" cy="1.21" r="1.21"/></g><g transform="translate(30.34 21.68)"><circle cx="5.76" cy="7.27" r="1.21"/><circle cx="2.73" cy="7.27" r="1.21"/><circle cx="7.28" cy="4.24" r="1.21"/><circle cx="4.25" cy="4.24" r="1.21"/><circle cx="1.21" cy="4.24" r="1.21"/><circle cx="5.76" cy="1.21" r="1.21"/><circle cx="2.73" cy="1.21" r="1.21"/></g><g transform="translate(30.34 27.74)"><circle cx="5.76" cy="7.28" r="1.21"/><circle cx="2.73" cy="7.28" r="1.21"/><circle cx="7.28" cy="4.25" r="1.21"/><circle cx="4.25" cy="4.25" r="1.21"/><circle cx="1.21" cy="4.25" r="1.21"/><circle cx="5.76" cy="1.21" r="1.21"/><circle cx="2.73" cy="1.21" r="1.21"/></g><g transform="translate(30.34 33.81)"><circle cx="5.76" cy="7.28" r="1.21"/><circle cx="2.73" cy="7.28" r="1.21"/><circle cx="7.28" cy="4.25" r="1.21"/><circle cx="4.25" cy="4.25" r="1.21"/><circle cx="1.21" cy="4.25" r="1.21"/><circle cx="5.76" cy="1.21" r="1.21"/><circle cx="2.73" cy="1.21" r="1.21"/></g><g transform="translate(30.34 39.88)"><circle cx="5.76" cy="7.28" r="1.21"/><circle cx="2.73" cy="7.28" r="1.21"/><circle cx="7.28" cy="4.24" r="1.21"/><circle cx="4.25" cy="4.24" r="1.21"/><circle cx="1.21" cy="4.24" r="1.21"/><circle cx="5.76" cy="1.21" r="1.21"/><circle cx="2.73" cy="1.21" r="1.21"/></g><g transform="translate(30.34 45.95)"><circle cx="5.76" cy="7.28" r="1.21"/><circle cx="2.73" cy="7.28" r="1.21"/><circle cx="7.28" cy="4.24" r="1.21"/><circle cx="4.25" cy="4.24" r="1.21"/><circle cx="1.21" cy="4.24" r="1.21"/><circle cx="5.76" cy="1.21" r="1.21"/><circle cx="2.73" cy="1.21" r="1.21"/></g><g transform="translate(30.34 52.02)"><circle cx="5.76" cy="7.27" r="1.21"/><circle cx="2.73" cy="7.27" r="1.21"/><circle cx="7.28" cy="4.24" r="1.21"/><circle cx="4.25" cy="4.24" r="1.21"/><circle cx="1.21" cy="4.24" r="1.21"/><circle cx="5.76" cy="1.21" r="1.21"/><circle cx="2.73" cy="1.21" r="1.21"/></g><g transform="translate(30.34 58.08)"><circle cx="5.76" cy="7.28" r="1.21"/><circle cx="2.73" cy="7.28" r="1.21"/><circle cx="7.28" cy="4.25" r="1.21"/><circle cx="4.25" cy="4.25" r="1.21"/><circle cx="1.21" cy="4.25" r="1.21"/><circle cx="5.76" cy="1.21" r="1.21"/><circle cx="2.73" cy="1.21" r="1.21"/></g><g transform="translate(30.34 64.15)"><circle cx="5.76" cy="7.28" r="1.21"/><circle cx="2.73" cy="7.28" r="1.21"/><circle cx="7.28" cy="4.25" r="1.21"/><circle cx="4.25" cy="4.25" r="1.21"/><circle cx="1.21" cy="4.25" r="1.21"/><circle cx="5.76" cy="1.21" r="1.21"/><circle cx="2.73" cy="1.21" r="1.21"/></g><g transform="translate(30.34 70.22)"><circle cx="5.76" cy="7.28" r="1.21"/><circle cx="2.73" cy="7.28" r="1.21"/><circle cx="7.28" cy="4.24" r="1.21"/><circle cx="4.25" cy="4.24" r="1.21"/><circle cx="1.21" cy="4.24" r="1.21"/><circle cx="5.76" cy="1.21" r="1.21"/><circle cx="2.73" cy="1.21" r="1.21"/></g><g transform="translate(30.34 76.29)"><circle cx="5.76" cy="7.28" r="1.21"/><circle cx="2.73" cy="7.28" r="1.21"/><circle cx="7.28" cy="4.24" r="1.21"/><circle cx="4.25" cy="4.24" r="1.21"/><circle cx="1.21" cy="4.24" r="1.21"/><circle cx="5.76" cy="1.21" r="1.21"/><circle cx="2.73" cy="1.21" r="1.21"/></g><g transform="translate(30.34 82.36)"><circle cx="5.76" cy="7.27" r="1.21"/><circle cx="2.73" cy="7.27" r="1.21"/><circle cx="7.28" cy="4.24" r="1.21"/><circle cx="4.25" cy="4.24" r="1.21"/><circle cx="1.21" cy="4.24" r="1.21"/><circle cx="5.76" cy="1.21" r="1.21"/><circle cx="2.73" cy="1.21" r="1.21"/></g><g transform="translate(30.34 88.42)"><circle cx="5.76" cy="7.28" r="1.21"/><circle cx="2.73" cy="7.28" r="1.21"/><circle cx="7.28" cy="4.25" r="1.21"/><circle cx="4.25" cy="4.25" r="1.21"/><circle cx="1.21" cy="4.25" r="1.21"/><circle cx="5.76" cy="1.21" r="1.21"/><circle cx="2.73" cy="1.21" r="1.21"/></g><g transform="translate(30.34 94.49)"><circle cx="5.76" cy="7.28" r="1.21"/><circle cx="2.73" cy="7.28" r="1.21"/><circle cx="7.28" cy="4.25" r="1.21"/><circle cx="4.25" cy="4.25" r="1.21"/><circle cx="1.21" cy="4.25" r="1.21"/><circle cx="5.76" cy="1.21" r="1.21"/><circle cx="2.73" cy="1.21" r="1.21"/></g><g transform="translate(30.34 100.56)"><circle cx="5.76" cy="7.28" r="1.21"/><circle cx="2.73" cy="7.28" r="1.21"/><circle cx="7.28" cy="4.24" r="1.21"/><circle cx="4.25" cy="4.24" r="1.21"/><circle cx="1.21" cy="4.24" r="1.21"/><circle cx="5.76" cy="1.21" r="1.21"/><circle cx="2.73" cy="1.21" r="1.21"/></g><g transform="translate(30.34 106.63)"><circle cx="5.76" cy="7.28" r="1.21"/><circle cx="2.73" cy="7.28" r="1.21"/><circle cx="7.28" cy="4.24" r="1.21"/><circle cx="4.25" cy="4.24" r="1.21"/><circle cx="1.21" cy="4.24" r="1.21"/><circle cx="5.76" cy="1.21" r="1.21"/><circle cx="2.73" cy="1.21" r="1.21"/></g><g transform="translate(30.34 112.7)"><circle cx="5.76" cy="7.27" r="1.21"/><circle cx="2.73" cy="7.27" r="1.21"/><circle cx="7.28" cy="4.24" r="1.21"/><circle cx="4.25" cy="4.24" r="1.21"/><circle cx="1.21" cy="4.24" r="1.21"/><circle cx="5.76" cy="1.21" r="1.21"/><circle cx="2.73" cy="1.21" r="1.21"/></g><g transform="translate(30.34 118.76)"><circle cx="5.76" cy="7.28" r="1.21"/><circle cx="2.73" cy="7.28" r="1.21"/><circle cx="7.28" cy="4.25" r="1.21"/><circle cx="4.25" cy="4.25" r="1.21"/><circle cx="1.21" cy="4.25" r="1.21"/><circle cx="5.76" cy="1.21" r="1.21"/><circle cx="2.73" cy="1.21" r="1.21"/></g><g transform="translate(30.34 124.83)"><circle cx="5.76" cy="7.28" r="1.21"/><circle cx="2.73" cy="7.28" r="1.21"/><circle cx="7.28" cy="4.25" r="1.21"/><circle cx="4.25" cy="4.25" r="1.21"/><circle cx="1.21" cy="4.25" r="1.21"/><circle cx="5.76" cy="1.21" r="1.21"/><circle cx="2.73" cy="1.21" r="1.21"/></g><g transform="translate(30.34 130.9)"><circle cx="5.76" cy="7.28" r="1.21"/><circle cx="2.73" cy="7.28" r="1.21"/><circle cx="7.28" cy="4.24" r="1.21"/><circle cx="4.25" cy="4.24" r="1.21"/><circle cx="1.21" cy="4.24" r="1.21"/><circle cx="5.76" cy="1.21" r="1.21"/><circle cx="2.73" cy="1.21" r="1.21"/></g><g transform="translate(24.28 21.68)"><circle cx="5.76" cy="7.27" r="1.21"/><circle cx="2.72" cy="7.27" r="1.21"/><circle cx="7.27" cy="4.24" r="1.21"/><circle cx="4.24" cy="4.24" r="1.21"/><circle cx="1.21" cy="4.24" r="1.21"/><circle cx="5.76" cy="1.21" r="1.21"/><circle cx="2.72" cy="1.21" r="1.21"/></g><g transform="translate(24.28 27.74)"><circle cx="5.76" cy="7.28" r="1.21"/><circle cx="2.72" cy="7.28" r="1.21"/><circle cx="7.27" cy="4.25" r="1.21"/><circle cx="4.24" cy="4.25" r="1.21"/><circle cx="1.21" cy="4.25" r="1.21"/><circle cx="5.76" cy="1.21" r="1.21"/><circle cx="2.72" cy="1.21" r="1.21"/></g><g transform="translate(24.28 33.81)"><circle cx="5.76" cy="7.28" r="1.21"/><circle cx="2.72" cy="7.28" r="1.21"/><circle cx="7.27" cy="4.25" r="1.21"/><circle cx="4.24" cy="4.25" r="1.21"/><circle cx="1.21" cy="4.25" r="1.21"/><circle cx="5.76" cy="1.21" r="1.21"/><circle cx="2.72" cy="1.21" r="1.21"/></g><g transform="translate(24.28 39.88)"><circle cx="5.76" cy="7.28" r="1.21"/><circle cx="2.72" cy="7.28" r="1.21"/><circle cx="7.27" cy="4.24" r="1.21"/><circle cx="4.24" cy="4.24" r="1.21"/><circle cx="1.21" cy="4.24" r="1.21"/><circle cx="5.76" cy="1.21" r="1.21"/><circle cx="2.72" cy="1.21" r="1.21"/></g><g transform="translate(24.28 45.95)"><circle cx="5.76" cy="7.28" r="1.21"/><circle cx="2.72" cy="7.28" r="1.21"/><circle cx="7.27" cy="4.24" r="1.21"/><circle cx="4.24" cy="4.24" r="1.21"/><circle cx="1.21" cy="4.24" r="1.21"/><circle cx="5.76" cy="1.21" r="1.21"/><circle cx="2.72" cy="1.21" r="1.21"/></g><g transform="translate(24.28 52.02)"><circle cx="5.76" cy="7.27" r="1.21"/><circle cx="2.72" cy="7.27" r="1.21"/><circle cx="7.27" cy="4.24" r="1.21"/><circle cx="4.24" cy="4.24" r="1.21"/><circle cx="1.21" cy="4.24" r="1.21"/><circle cx="5.76" cy="1.21" r="1.21"/><circle cx="2.72" cy="1.21" r="1.21"/></g><g transform="translate(24.28 58.08)"><circle cx="5.76" cy="7.28" r="1.21"/><circle cx="2.72" cy="7.28" r="1.21"/><circle cx="7.27" cy="4.25" r="1.21"/><circle cx="4.24" cy="4.25" r="1.21"/><circle cx="1.21" cy="4.25" r="1.21"/><circle cx="5.76" cy="1.21" r="1.21"/><circle cx="2.72" cy="1.21" r="1.21"/></g><g transform="translate(24.28 64.15)"><circle cx="5.76" cy="7.28" r="1.21"/><circle cx="2.72" cy="7.28" r="1.21"/><circle cx="7.27" cy="4.25" r="1.21"/><circle cx="4.24" cy="4.25" r="1.21"/><circle cx="1.21" cy="4.25" r="1.21"/><circle cx="5.76" cy="1.21" r="1.21"/><circle cx="2.72" cy="1.21" r="1.21"/></g><g transform="translate(24.28 70.22)"><circle cx="5.76" cy="7.28" r="1.21"/><circle cx="2.72" cy="7.28" r="1.21"/><circle cx="7.27" cy="4.24" r="1.21"/><circle cx="4.24" cy="4.24" r="1.21"/><circle cx="1.21" cy="4.24" r="1.21"/><circle cx="5.76" cy="1.21" r="1.21"/><circle cx="2.72" cy="1.21" r="1.21"/></g><g transform="translate(24.28 76.29)"><circle cx="5.76" cy="7.28" r="1.21"/><circle cx="2.72" cy="7.28" r="1.21"/><circle cx="7.27" cy="4.24" r="1.21"/><circle cx="4.24" cy="4.24" r="1.21"/><circle cx="1.21" cy="4.24" r="1.21"/><circle cx="5.76" cy="1.21" r="1.21"/><circle cx="2.72" cy="1.21" r="1.21"/></g><g transform="translate(24.28 82.36)"><circle cx="5.76" cy="7.27" r="1.21"/><circle cx="2.72" cy="7.27" r="1.21"/><circle cx="7.27" cy="4.24" r="1.21"/><circle cx="4.24" cy="4.24" r="1.21"/><circle cx="1.21" cy="4.24" r="1.21"/><circle cx="5.76" cy="1.21" r="1.21"/><circle cx="2.72" cy="1.21" r="1.21"/></g><g transform="translate(24.28 88.42)"><circle cx="5.76" cy="7.28" r="1.21"/><circle cx="2.72" cy="7.28" r="1.21"/><circle cx="7.27" cy="4.25" r="1.21"/><circle cx="4.24" cy="4.25" r="1.21"/><circle cx="1.21" cy="4.25" r="1.21"/><circle cx="5.76" cy="1.21" r="1.21"/><circle cx="2.72" cy="1.21" r="1.21"/></g><g transform="translate(24.28 94.49)"><circle cx="5.76" cy="7.28" r="1.21"/><circle cx="2.72" cy="7.28" r="1.21"/><circle cx="7.27" cy="4.25" r="1.21"/><circle cx="4.24" cy="4.25" r="1.21"/><circle cx="1.21" cy="4.25" r="1.21"/><circle cx="5.76" cy="1.21" r="1.21"/><circle cx="2.72" cy="1.21" r="1.21"/></g><g transform="translate(24.28 100.56)"><circle cx="5.76" cy="7.28" r="1.21"/><circle cx="2.72" cy="7.28" r="1.21"/><circle cx="7.27" cy="4.24" r="1.21"/><circle cx="4.24" cy="4.24" r="1.21"/><circle cx="1.21" cy="4.24" r="1.21"/><circle cx="5.76" cy="1.21" r="1.21"/><circle cx="2.72" cy="1.21" r="1.21"/></g><g transform="translate(24.28 106.63)"><circle cx="5.76" cy="7.28" r="1.21"/><circle cx="2.72" cy="7.28" r="1.21"/><circle cx="7.27" cy="4.24" r="1.21"/><circle cx="4.24" cy="4.24" r="1.21"/><circle cx="1.21" cy="4.24" r="1.21"/><circle cx="5.76" cy="1.21" r="1.21"/><circle cx="2.72" cy="1.21" r="1.21"/></g><g transform="translate(24.28 112.7)"><circle cx="5.76" cy="7.27" r="1.21"/><circle cx="2.72" cy="7.27" r="1.21"/><circle cx="7.27" cy="4.24" r="1.21"/><circle cx="4.24" cy="4.24" r="1.21"/><circle cx="1.21" cy="4.24" r="1.21"/><circle cx="5.76" cy="1.21" r="1.21"/><circle cx="2.72" cy="1.21" r="1.21"/></g><g transform="translate(24.28 118.76)"><circle cx="5.76" cy="7.28" r="1.21"/><circle cx="2.72" cy="7.28" r="1.21"/><circle cx="7.27" cy="4.25" r="1.21"/><circle cx="4.24" cy="4.25" r="1.21"/><circle cx="1.21" cy="4.25" r="1.21"/><circle cx="5.76" cy="1.21" r="1.21"/><circle cx="2.72" cy="1.21" r="1.21"/></g><g transform="translate(24.28 124.83)"><circle cx="5.76" cy="7.28" r="1.21"/><circle cx="2.72" cy="7.28" r="1.21"/><circle cx="7.27" cy="4.25" r="1.21"/><circle cx="4.24" cy="4.25" r="1.21"/><circle cx="1.21" cy="4.25" r="1.21"/><circle cx="5.76" cy="1.21" r="1.21"/><circle cx="2.72" cy="1.21" r="1.21"/></g><g transform="translate(24.28 130.9)"><circle cx="5.76" cy="7.28" r="1.21"/><circle cx="2.72" cy="7.28" r="1.21"/><circle cx="7.27" cy="4.24" r="1.21"/><circle cx="4.24" cy="4.24" r="1.21"/><circle cx="1.21" cy="4.24" r="1.21"/><circle cx="5.76" cy="1.21" r="1.21"/><circle cx="2.72" cy="1.21" r="1.21"/></g><g transform="translate(18.21 21.68)"><circle cx="5.76" cy="7.27" r="1.21"/><circle cx="2.72" cy="7.27" r="1.21"/><circle cx="7.28" cy="4.24" r="1.21"/><circle cx="4.24" cy="4.24" r="1.21"/><circle cx="1.21" cy="4.24" r="1.21"/><circle cx="5.76" cy="1.21" r="1.21"/><circle cx="2.72" cy="1.21" r="1.21"/></g><g transform="translate(18.21 27.74)"><circle cx="5.76" cy="7.28" r="1.21"/><circle cx="2.72" cy="7.28" r="1.21"/><circle cx="7.28" cy="4.25" r="1.21"/><circle cx="4.24" cy="4.25" r="1.21"/><circle cx="1.21" cy="4.25" r="1.21"/><circle cx="5.76" cy="1.21" r="1.21"/><circle cx="2.72" cy="1.21" r="1.21"/></g><g transform="translate(18.21 33.81)"><circle cx="5.76" cy="7.28" r="1.21"/><circle cx="2.72" cy="7.28" r="1.21"/><circle cx="7.28" cy="4.25" r="1.21"/><circle cx="4.24" cy="4.25" r="1.21"/><circle cx="1.21" cy="4.25" r="1.21"/><circle cx="5.76" cy="1.21" r="1.21"/><circle cx="2.72" cy="1.21" r="1.21"/></g><g transform="translate(18.21 39.88)"><circle cx="5.76" cy="7.28" r="1.21"/><circle cx="2.72" cy="7.28" r="1.21"/><circle cx="7.28" cy="4.24" r="1.21"/><circle cx="4.24" cy="4.24" r="1.21"/><circle cx="1.21" cy="4.24" r="1.21"/><circle cx="5.76" cy="1.21" r="1.21"/><circle cx="2.72" cy="1.21" r="1.21"/></g><g transform="translate(18.21 45.95)"><circle cx="5.76" cy="7.28" r="1.21"/><circle cx="2.72" cy="7.28" r="1.21"/><circle cx="7.28" cy="4.24" r="1.21"/><circle cx="4.24" cy="4.24" r="1.21"/><circle cx="1.21" cy="4.24" r="1.21"/><circle cx="5.76" cy="1.21" r="1.21"/><circle cx="2.72" cy="1.21" r="1.21"/></g><g transform="translate(18.21 52.02)"><circle cx="5.76" cy="7.27" r="1.21"/><circle cx="2.72" cy="7.27" r="1.21"/><circle cx="7.28" cy="4.24" r="1.21"/><circle cx="4.24" cy="4.24" r="1.21"/><circle cx="1.21" cy="4.24" r="1.21"/><circle cx="5.76" cy="1.21" r="1.21"/><circle cx="2.72" cy="1.21" r="1.21"/></g><g transform="translate(18.21 58.08)"><circle cx="5.76" cy="7.28" r="1.21"/><circle cx="2.72" cy="7.28" r="1.21"/><circle cx="7.28" cy="4.25" r="1.21"/><circle cx="4.24" cy="4.25" r="1.21"/><circle cx="1.21" cy="4.25" r="1.21"/><circle cx="5.76" cy="1.21" r="1.21"/><circle cx="2.72" cy="1.21" r="1.21"/></g><g transform="translate(18.21 64.15)"><circle cx="5.76" cy="7.28" r="1.21"/><circle cx="2.72" cy="7.28" r="1.21"/><circle cx="7.28" cy="4.25" r="1.21"/><circle cx="4.24" cy="4.25" r="1.21"/><circle cx="1.21" cy="4.25" r="1.21"/><circle cx="5.76" cy="1.21" r="1.21"/><circle cx="2.72" cy="1.21" r="1.21"/></g><g transform="translate(18.21 70.22)"><circle cx="5.76" cy="7.28" r="1.21"/><circle cx="2.72" cy="7.28" r="1.21"/><circle cx="7.28" cy="4.24" r="1.21"/><circle cx="4.24" cy="4.24" r="1.21"/><circle cx="1.21" cy="4.24" r="1.21"/><circle cx="5.76" cy="1.21" r="1.21"/><circle cx="2.72" cy="1.21" r="1.21"/></g><g transform="translate(18.21 76.29)"><circle cx="5.76" cy="7.28" r="1.21"/><circle cx="2.72" cy="7.28" r="1.21"/><circle cx="7.28" cy="4.24" r="1.21"/><circle cx="4.24" cy="4.24" r="1.21"/><circle cx="1.21" cy="4.24" r="1.21"/><circle cx="5.76" cy="1.21" r="1.21"/><circle cx="2.72" cy="1.21" r="1.21"/></g><g transform="translate(18.21 82.36)"><circle cx="5.76" cy="7.27" r="1.21"/><circle cx="2.72" cy="7.27" r="1.21"/><circle cx="7.28" cy="4.24" r="1.21"/><circle cx="4.24" cy="4.24" r="1.21"/><circle cx="1.21" cy="4.24" r="1.21"/><circle cx="5.76" cy="1.21" r="1.21"/><circle cx="2.72" cy="1.21" r="1.21"/></g><g transform="translate(18.21 88.42)"><circle cx="5.76" cy="7.28" r="1.21"/><circle cx="2.72" cy="7.28" r="1.21"/><circle cx="7.28" cy="4.25" r="1.21"/><circle cx="4.24" cy="4.25" r="1.21"/><circle cx="1.21" cy="4.25" r="1.21"/><circle cx="5.76" cy="1.21" r="1.21"/><circle cx="2.72" cy="1.21" r="1.21"/></g><g transform="translate(18.21 94.49)"><circle cx="5.76" cy="7.28" r="1.21"/><circle cx="2.72" cy="7.28" r="1.21"/><circle cx="7.28" cy="4.25" r="1.21"/><circle cx="4.24" cy="4.25" r="1.21"/><circle cx="1.21" cy="4.25" r="1.21"/><circle cx="5.76" cy="1.21" r="1.21"/><circle cx="2.72" cy="1.21" r="1.21"/></g><g transform="translate(18.21 100.56)"><circle cx="5.76" cy="7.28" r="1.21"/><circle cx="2.72" cy="7.28" r="1.21"/><circle cx="7.28" cy="4.24" r="1.21"/><circle cx="4.24" cy="4.24" r="1.21"/><circle cx="1.21" cy="4.24" r="1.21"/><circle cx="5.76" cy="1.21" r="1.21"/><circle cx="2.72" cy="1.21" r="1.21"/></g><g transform="translate(18.21 106.63)"><circle cx="5.76" cy="7.28" r="1.21"/><circle cx="2.72" cy="7.28" r="1.21"/><circle cx="7.28" cy="4.24" r="1.21"/><circle cx="4.24" cy="4.24" r="1.21"/><circle cx="1.21" cy="4.24" r="1.21"/><circle cx="5.76" cy="1.21" r="1.21"/><circle cx="2.72" cy="1.21" r="1.21"/></g><g transform="translate(18.21 112.7)"><circle cx="5.76" cy="7.27" r="1.21"/><circle cx="2.72" cy="7.27" r="1.21"/><circle cx="7.28" cy="4.24" r="1.21"/><circle cx="4.24" cy="4.24" r="1.21"/><circle cx="1.21" cy="4.24" r="1.21"/><circle cx="5.76" cy="1.21" r="1.21"/><circle cx="2.72" cy="1.21" r="1.21"/></g><g transform="translate(18.21 118.76)"><circle cx="5.76" cy="7.28" r="1.21"/><circle cx="2.72" cy="7.28" r="1.21"/><circle cx="7.28" cy="4.25" r="1.21"/><circle cx="4.24" cy="4.25" r="1.21"/><circle cx="1.21" cy="4.25" r="1.21"/><circle cx="5.76" cy="1.21" r="1.21"/><circle cx="2.72" cy="1.21" r="1.21"/></g><g transform="translate(18.21 124.83)"><circle cx="5.76" cy="7.28" r="1.21"/><circle cx="2.72" cy="7.28" r="1.21"/><circle cx="7.28" cy="4.25" r="1.21"/><circle cx="4.24" cy="4.25" r="1.21"/><circle cx="1.21" cy="4.25" r="1.21"/><circle cx="5.76" cy="1.21" r="1.21"/><circle cx="2.72" cy="1.21" r="1.21"/></g><g transform="translate(18.21 130.9)"><circle cx="5.76" cy="7.28" r="1.21"/><circle cx="2.72" cy="7.28" r="1.21"/><circle cx="7.28" cy="4.24" r="1.21"/><circle cx="4.24" cy="4.24" r="1.21"/><circle cx="1.21" cy="4.24" r="1.21"/><circle cx="5.76" cy="1.21" r="1.21"/><circle cx="2.72" cy="1.21" r="1.21"/></g><g transform="translate(12.14 21.68)"><circle cx="5.76" cy="7.27" r="1.21"/><circle cx="2.73" cy="7.27" r="1.21"/><circle cx="7.28" cy="4.24" r="1.21"/><circle cx="4.24" cy="4.24" r="1.21"/><circle cx="1.21" cy="4.24" r="1.21"/><circle cx="5.76" cy="1.21" r="1.21"/><circle cx="2.73" cy="1.21" r="1.21"/></g><g transform="translate(12.14 27.74)"><circle cx="5.76" cy="7.28" r="1.21"/><circle cx="2.73" cy="7.28" r="1.21"/><circle cx="7.28" cy="4.25" r="1.21"/><circle cx="4.24" cy="4.25" r="1.21"/><circle cx="1.21" cy="4.25" r="1.21"/><circle cx="5.76" cy="1.21" r="1.21"/><circle cx="2.73" cy="1.21" r="1.21"/></g><g transform="translate(12.14 33.81)"><circle cx="5.76" cy="7.28" r="1.21"/><circle cx="2.73" cy="7.28" r="1.21"/><circle cx="7.28" cy="4.25" r="1.21"/><circle cx="4.24" cy="4.25" r="1.21"/><circle cx="1.21" cy="4.25" r="1.21"/><circle cx="5.76" cy="1.21" r="1.21"/><circle cx="2.73" cy="1.21" r="1.21"/></g><g transform="translate(12.14 39.88)"><circle cx="5.76" cy="7.28" r="1.21"/><circle cx="2.73" cy="7.28" r="1.21"/><circle cx="7.28" cy="4.24" r="1.21"/><circle cx="4.24" cy="4.24" r="1.21"/><circle cx="1.21" cy="4.24" r="1.21"/><circle cx="5.76" cy="1.21" r="1.21"/><circle cx="2.73" cy="1.21" r="1.21"/></g><g transform="translate(12.14 45.95)"><circle cx="5.76" cy="7.28" r="1.21"/><circle cx="2.73" cy="7.28" r="1.21"/><circle cx="7.28" cy="4.24" r="1.21"/><circle cx="4.24" cy="4.24" r="1.21"/><circle cx="1.21" cy="4.24" r="1.21"/><circle cx="5.76" cy="1.21" r="1.21"/><circle cx="2.73" cy="1.21" r="1.21"/></g><g transform="translate(12.14 52.02)"><circle cx="5.76" cy="7.27" r="1.21"/><circle cx="2.73" cy="7.27" r="1.21"/><circle cx="7.28" cy="4.24" r="1.21"/><circle cx="4.24" cy="4.24" r="1.21"/><circle cx="1.21" cy="4.24" r="1.21"/><circle cx="5.76" cy="1.21" r="1.21"/><circle cx="2.73" cy="1.21" r="1.21"/></g><g transform="translate(12.14 58.08)"><circle cx="5.76" cy="7.28" r="1.21"/><circle cx="2.73" cy="7.28" r="1.21"/><circle cx="7.28" cy="4.25" r="1.21"/><circle cx="4.24" cy="4.25" r="1.21"/><circle cx="1.21" cy="4.25" r="1.21"/><circle cx="5.76" cy="1.21" r="1.21"/><circle cx="2.73" cy="1.21" r="1.21"/></g><g transform="translate(12.14 64.15)"><circle cx="5.76" cy="7.28" r="1.21"/><circle cx="2.73" cy="7.28" r="1.21"/><circle cx="7.28" cy="4.25" r="1.21"/><circle cx="4.24" cy="4.25" r="1.21"/><circle cx="1.21" cy="4.25" r="1.21"/><circle cx="5.76" cy="1.21" r="1.21"/><circle cx="2.73" cy="1.21" r="1.21"/></g><g transform="translate(12.14 70.22)"><circle cx="5.76" cy="7.28" r="1.21"/><circle cx="2.73" cy="7.28" r="1.21"/><circle cx="7.28" cy="4.24" r="1.21"/><circle cx="4.24" cy="4.24" r="1.21"/><circle cx="1.21" cy="4.24" r="1.21"/><circle cx="5.76" cy="1.21" r="1.21"/><circle cx="2.73" cy="1.21" r="1.21"/></g><g transform="translate(12.14 76.29)"><circle cx="5.76" cy="7.28" r="1.21"/><circle cx="2.73" cy="7.28" r="1.21"/><circle cx="7.28" cy="4.24" r="1.21"/><circle cx="4.24" cy="4.24" r="1.21"/><circle cx="1.21" cy="4.24" r="1.21"/><circle cx="5.76" cy="1.21" r="1.21"/><circle cx="2.73" cy="1.21" r="1.21"/></g><g transform="translate(12.14 82.36)"><circle cx="5.76" cy="7.27" r="1.21"/><circle cx="2.73" cy="7.27" r="1.21"/><circle cx="7.28" cy="4.24" r="1.21"/><circle cx="4.24" cy="4.24" r="1.21"/><circle cx="1.21" cy="4.24" r="1.21"/><circle cx="5.76" cy="1.21" r="1.21"/><circle cx="2.73" cy="1.21" r="1.21"/></g><g transform="translate(12.14 88.42)"><circle cx="5.76" cy="7.28" r="1.21"/><circle cx="2.73" cy="7.28" r="1.21"/><circle cx="7.28" cy="4.25" r="1.21"/><circle cx="4.24" cy="4.25" r="1.21"/><circle cx="1.21" cy="4.25" r="1.21"/><circle cx="5.76" cy="1.21" r="1.21"/><circle cx="2.73" cy="1.21" r="1.21"/></g><g transform="translate(12.14 94.49)"><circle cx="5.76" cy="7.28" r="1.21"/><circle cx="2.73" cy="7.28" r="1.21"/><circle cx="7.28" cy="4.25" r="1.21"/><circle cx="4.24" cy="4.25" r="1.21"/><circle cx="1.21" cy="4.25" r="1.21"/><circle cx="5.76" cy="1.21" r="1.21"/><circle cx="2.73" cy="1.21" r="1.21"/></g><g transform="translate(12.14 100.56)"><circle cx="5.76" cy="7.28" r="1.21"/><circle cx="2.73" cy="7.28" r="1.21"/><circle cx="7.28" cy="4.24" r="1.21"/><circle cx="4.24" cy="4.24" r="1.21"/><circle cx="1.21" cy="4.24" r="1.21"/><circle cx="5.76" cy="1.21" r="1.21"/><circle cx="2.73" cy="1.21" r="1.21"/></g><g transform="translate(12.14 106.63)"><circle cx="5.76" cy="7.28" r="1.21"/><circle cx="2.73" cy="7.28" r="1.21"/><circle cx="7.28" cy="4.24" r="1.21"/><circle cx="4.24" cy="4.24" r="1.21"/><circle cx="1.21" cy="4.24" r="1.21"/><circle cx="5.76" cy="1.21" r="1.21"/><circle cx="2.73" cy="1.21" r="1.21"/></g><g transform="translate(12.14 112.7)"><circle cx="5.76" cy="7.27" r="1.21"/><circle cx="2.73" cy="7.27" r="1.21"/><circle cx="7.28" cy="4.24" r="1.21"/><circle cx="4.24" cy="4.24" r="1.21"/><circle cx="1.21" cy="4.24" r="1.21"/><circle cx="5.76" cy="1.21" r="1.21"/><circle cx="2.73" cy="1.21" r="1.21"/></g><g transform="translate(12.14 118.76)"><circle cx="5.76" cy="7.28" r="1.21"/><circle cx="2.73" cy="7.28" r="1.21"/><circle cx="7.28" cy="4.25" r="1.21"/><circle cx="4.24" cy="4.25" r="1.21"/><circle cx="1.21" cy="4.25" r="1.21"/><circle cx="5.76" cy="1.21" r="1.21"/><circle cx="2.73" cy="1.21" r="1.21"/></g><g transform="translate(12.14 124.83)"><circle cx="5.76" cy="7.28" r="1.21"/><circle cx="2.73" cy="7.28" r="1.21"/><circle cx="7.28" cy="4.25" r="1.21"/><circle cx="4.24" cy="4.25" r="1.21"/><circle cx="1.21" cy="4.25" r="1.21"/><circle cx="5.76" cy="1.21" r="1.21"/><circle cx="2.73" cy="1.21" r="1.21"/></g><g transform="translate(12.14 130.9)"><circle cx="5.76" cy="7.28" r="1.21"/><circle cx="2.73" cy="7.28" r="1.21"/><circle cx="7.28" cy="4.24" r="1.21"/><circle cx="4.24" cy="4.24" r="1.21"/><circle cx="1.21" cy="4.24" r="1.21"/><circle cx="5.76" cy="1.21" r="1.21"/><circle cx="2.73" cy="1.21" r="1.21"/></g><g transform="translate(6.07 21.68)"><circle cx="5.76" cy="7.27" r="1.21"/><circle cx="2.73" cy="7.27" r="1.21"/><circle cx="7.28" cy="4.24" r="1.21"/><circle cx="4.25" cy="4.24" r="1.21"/><circle cx="1.21" cy="4.24" r="1.21"/><circle cx="5.76" cy="1.21" r="1.21"/><circle cx="2.73" cy="1.21" r="1.21"/></g><g transform="translate(6.07 27.74)"><circle cx="5.76" cy="7.28" r="1.21"/><circle cx="2.73" cy="7.28" r="1.21"/><circle cx="7.28" cy="4.25" r="1.21"/><circle cx="4.25" cy="4.25" r="1.21"/><circle cx="1.21" cy="4.25" r="1.21"/><circle cx="5.76" cy="1.21" r="1.21"/><circle cx="2.73" cy="1.21" r="1.21"/></g><g transform="translate(6.07 33.81)"><circle cx="5.76" cy="7.28" r="1.21"/><circle cx="2.73" cy="7.28" r="1.21"/><circle cx="7.28" cy="4.25" r="1.21"/><circle cx="4.25" cy="4.25" r="1.21"/><circle cx="1.21" cy="4.25" r="1.21"/><circle cx="5.76" cy="1.21" r="1.21"/><circle cx="2.73" cy="1.21" r="1.21"/></g><g transform="translate(6.07 39.88)"><circle cx="5.76" cy="7.28" r="1.21"/><circle cx="2.73" cy="7.28" r="1.21"/><circle cx="7.28" cy="4.24" r="1.21"/><circle cx="4.25" cy="4.24" r="1.21"/><circle cx="1.21" cy="4.24" r="1.21"/><circle cx="5.76" cy="1.21" r="1.21"/><circle cx="2.73" cy="1.21" r="1.21"/></g><g transform="translate(6.07 45.95)"><circle cx="5.76" cy="7.28" r="1.21"/><circle cx="2.73" cy="7.28" r="1.21"/><circle cx="7.28" cy="4.24" r="1.21"/><circle cx="4.25" cy="4.24" r="1.21"/><circle cx="1.21" cy="4.24" r="1.21"/><circle cx="5.76" cy="1.21" r="1.21"/><circle cx="2.73" cy="1.21" r="1.21"/></g><g transform="translate(6.07 52.02)"><circle cx="5.76" cy="7.27" r="1.21"/><circle cx="2.73" cy="7.27" r="1.21"/><circle cx="7.28" cy="4.24" r="1.21"/><circle cx="4.25" cy="4.24" r="1.21"/><circle cx="1.21" cy="4.24" r="1.21"/><circle cx="5.76" cy="1.21" r="1.21"/><circle cx="2.73" cy="1.21" r="1.21"/></g><g transform="translate(6.07 58.08)"><circle cx="5.76" cy="7.28" r="1.21"/><circle cx="2.73" cy="7.28" r="1.21"/><circle cx="7.28" cy="4.25" r="1.21"/><circle cx="4.25" cy="4.25" r="1.21"/><circle cx="1.21" cy="4.25" r="1.21"/><circle cx="5.76" cy="1.21" r="1.21"/><circle cx="2.73" cy="1.21" r="1.21"/></g><g transform="translate(6.07 64.15)"><circle cx="5.76" cy="7.28" r="1.21"/><circle cx="2.73" cy="7.28" r="1.21"/><circle cx="7.28" cy="4.25" r="1.21"/><circle cx="4.25" cy="4.25" r="1.21"/><circle cx="1.21" cy="4.25" r="1.21"/><circle cx="5.76" cy="1.21" r="1.21"/><circle cx="2.73" cy="1.21" r="1.21"/></g><g transform="translate(6.07 70.22)"><circle cx="5.76" cy="7.28" r="1.21"/><circle cx="2.73" cy="7.28" r="1.21"/><circle cx="7.28" cy="4.24" r="1.21"/><circle cx="4.25" cy="4.24" r="1.21"/><circle cx="1.21" cy="4.24" r="1.21"/><circle cx="5.76" cy="1.21" r="1.21"/><circle cx="2.73" cy="1.21" r="1.21"/></g><g transform="translate(6.07 76.29)"><circle cx="5.76" cy="7.28" r="1.21"/><circle cx="2.73" cy="7.28" r="1.21"/><circle cx="7.28" cy="4.24" r="1.21"/><circle cx="4.25" cy="4.24" r="1.21"/><circle cx="1.21" cy="4.24" r="1.21"/><circle cx="5.76" cy="1.21" r="1.21"/><circle cx="2.73" cy="1.21" r="1.21"/></g><g transform="translate(6.07 82.36)"><circle cx="5.76" cy="7.27" r="1.21"/><circle cx="2.73" cy="7.27" r="1.21"/><circle cx="7.28" cy="4.24" r="1.21"/><circle cx="4.25" cy="4.24" r="1.21"/><circle cx="1.21" cy="4.24" r="1.21"/><circle cx="5.76" cy="1.21" r="1.21"/><circle cx="2.73" cy="1.21" r="1.21"/></g><g transform="translate(6.07 88.42)"><circle cx="5.76" cy="7.28" r="1.21"/><circle cx="2.73" cy="7.28" r="1.21"/><circle cx="7.28" cy="4.25" r="1.21"/><circle cx="4.25" cy="4.25" r="1.21"/><circle cx="1.21" cy="4.25" r="1.21"/><circle cx="5.76" cy="1.21" r="1.21"/><circle cx="2.73" cy="1.21" r="1.21"/></g><g transform="translate(6.07 94.49)"><circle cx="5.76" cy="7.28" r="1.21"/><circle cx="2.73" cy="7.28" r="1.21"/><circle cx="7.28" cy="4.25" r="1.21"/><circle cx="4.25" cy="4.25" r="1.21"/><circle cx="1.21" cy="4.25" r="1.21"/><circle cx="5.76" cy="1.21" r="1.21"/><circle cx="2.73" cy="1.21" r="1.21"/></g><g transform="translate(6.07 100.56)"><circle cx="5.76" cy="7.28" r="1.21"/><circle cx="2.73" cy="7.28" r="1.21"/><circle cx="7.28" cy="4.24" r="1.21"/><circle cx="4.25" cy="4.24" r="1.21"/><circle cx="1.21" cy="4.24" r="1.21"/><circle cx="5.76" cy="1.21" r="1.21"/><circle cx="2.73" cy="1.21" r="1.21"/></g><g transform="translate(6.07 106.63)"><circle cx="5.76" cy="7.28" r="1.21"/><circle cx="2.73" cy="7.28" r="1.21"/><circle cx="7.28" cy="4.24" r="1.21"/><circle cx="4.25" cy="4.24" r="1.21"/><circle cx="1.21" cy="4.24" r="1.21"/><circle cx="5.76" cy="1.21" r="1.21"/><circle cx="2.73" cy="1.21" r="1.21"/></g><g transform="translate(6.07 112.7)"><circle cx="5.76" cy="7.27" r="1.21"/><circle cx="2.73" cy="7.27" r="1.21"/><circle cx="7.28" cy="4.24" r="1.21"/><circle cx="4.25" cy="4.24" r="1.21"/><circle cx="1.21" cy="4.24" r="1.21"/><circle cx="5.76" cy="1.21" r="1.21"/><circle cx="2.73" cy="1.21" r="1.21"/></g><g transform="translate(6.07 118.76)"><circle cx="5.76" cy="7.28" r="1.21"/><circle cx="2.73" cy="7.28" r="1.21"/><circle cx="7.28" cy="4.25" r="1.21"/><circle cx="4.25" cy="4.25" r="1.21"/><circle cx="1.21" cy="4.25" r="1.21"/><circle cx="5.76" cy="1.21" r="1.21"/><circle cx="2.73" cy="1.21" r="1.21"/></g><g transform="translate(6.07 124.83)"><circle cx="5.76" cy="7.28" r="1.21"/><circle cx="2.73" cy="7.28" r="1.21"/><circle cx="7.28" cy="4.25" r="1.21"/><circle cx="4.25" cy="4.25" r="1.21"/><circle cx="1.21" cy="4.25" r="1.21"/><circle cx="5.76" cy="1.21" r="1.21"/><circle cx="2.73" cy="1.21" r="1.21"/></g><g transform="translate(6.07 130.9)"><circle cx="5.76" cy="7.28" r="1.21"/><circle cx="2.73" cy="7.28" r="1.21"/><circle cx="7.28" cy="4.24" r="1.21"/><circle cx="4.25" cy="4.24" r="1.21"/><circle cx="1.21" cy="4.24" r="1.21"/><circle cx="5.76" cy="1.21" r="1.21"/><circle cx="2.73" cy="1.21" r="1.21"/></g><g transform="translate(0 21.68)"><circle cx="5.76" cy="7.27" r="1.21"/><circle cx="2.73" cy="7.27" r="1.21"/><circle cx="7.28" cy="4.24" r="1.21"/><circle cx="4.25" cy="4.24" r="1.21"/><circle cx="1.21" cy="4.24" r="1.21"/><circle cx="5.76" cy="1.21" r="1.21"/><circle cx="2.73" cy="1.21" r="1.21"/></g><g transform="translate(0 27.74)"><circle cx="5.76" cy="7.28" r="1.21"/><circle cx="2.73" cy="7.28" r="1.21"/><circle cx="7.28" cy="4.25" r="1.21"/><circle cx="4.25" cy="4.25" r="1.21"/><circle cx="1.21" cy="4.25" r="1.21"/><circle cx="5.76" cy="1.21" r="1.21"/><circle cx="2.73" cy="1.21" r="1.21"/></g><g transform="translate(0 33.81)"><circle cx="5.76" cy="7.28" r="1.21"/><circle cx="2.73" cy="7.28" r="1.21"/><circle cx="7.28" cy="4.25" r="1.21"/><circle cx="4.25" cy="4.25" r="1.21"/><circle cx="1.21" cy="4.25" r="1.21"/><circle cx="5.76" cy="1.21" r="1.21"/><circle cx="2.73" cy="1.21" r="1.21"/></g><g transform="translate(0 39.88)"><circle cx="5.76" cy="7.28" r="1.21"/><circle cx="2.73" cy="7.28" r="1.21"/><circle cx="7.28" cy="4.24" r="1.21"/><circle cx="4.25" cy="4.24" r="1.21"/><circle cx="1.21" cy="4.24" r="1.21"/><circle cx="5.76" cy="1.21" r="1.21"/><circle cx="2.73" cy="1.21" r="1.21"/></g><g transform="translate(0 45.95)"><circle cx="5.76" cy="7.28" r="1.21"/><circle cx="2.73" cy="7.28" r="1.21"/><circle cx="7.28" cy="4.24" r="1.21"/><circle cx="4.25" cy="4.24" r="1.21"/><circle cx="1.21" cy="4.24" r="1.21"/><circle cx="5.76" cy="1.21" r="1.21"/><circle cx="2.73" cy="1.21" r="1.21"/></g><g transform="translate(0 52.02)"><circle cx="5.76" cy="7.27" r="1.21"/><circle cx="2.73" cy="7.27" r="1.21"/><circle cx="7.28" cy="4.24" r="1.21"/><circle cx="4.25" cy="4.24" r="1.21"/><circle cx="1.21" cy="4.24" r="1.21"/><circle cx="5.76" cy="1.21" r="1.21"/><circle cx="2.73" cy="1.21" r="1.21"/></g><g transform="translate(0 58.08)"><circle cx="5.76" cy="7.28" r="1.21"/><circle cx="2.73" cy="7.28" r="1.21"/><circle cx="7.28" cy="4.25" r="1.21"/><circle cx="4.25" cy="4.25" r="1.21"/><circle cx="1.21" cy="4.25" r="1.21"/><circle cx="5.76" cy="1.21" r="1.21"/><circle cx="2.73" cy="1.21" r="1.21"/></g><g transform="translate(0 64.15)"><circle cx="5.76" cy="7.28" r="1.21"/><circle cx="2.73" cy="7.28" r="1.21"/><circle cx="7.28" cy="4.25" r="1.21"/><circle cx="4.25" cy="4.25" r="1.21"/><circle cx="1.21" cy="4.25" r="1.21"/><circle cx="5.76" cy="1.21" r="1.21"/><circle cx="2.73" cy="1.21" r="1.21"/></g><g transform="translate(0 70.22)"><circle cx="5.76" cy="7.28" r="1.21"/><circle cx="2.73" cy="7.28" r="1.21"/><circle cx="7.28" cy="4.24" r="1.21"/><circle cx="4.25" cy="4.24" r="1.21"/><circle cx="1.21" cy="4.24" r="1.21"/><circle cx="5.76" cy="1.21" r="1.21"/><circle cx="2.73" cy="1.21" r="1.21"/></g><g transform="translate(0 76.29)"><circle cx="5.76" cy="7.28" r="1.21"/><circle cx="2.73" cy="7.28" r="1.21"/><circle cx="7.28" cy="4.24" r="1.21"/><circle cx="4.25" cy="4.24" r="1.21"/><circle cx="1.21" cy="4.24" r="1.21"/><circle cx="5.76" cy="1.21" r="1.21"/><circle cx="2.73" cy="1.21" r="1.21"/></g><g transform="translate(0 82.36)"><circle cx="5.76" cy="7.27" r="1.21"/><circle cx="2.73" cy="7.27" r="1.21"/><circle cx="7.28" cy="4.24" r="1.21"/><circle cx="4.25" cy="4.24" r="1.21"/><circle cx="1.21" cy="4.24" r="1.21"/><circle cx="5.76" cy="1.21" r="1.21"/><circle cx="2.73" cy="1.21" r="1.21"/></g><g transform="translate(0 88.42)"><circle cx="5.76" cy="7.28" r="1.21"/><circle cx="2.73" cy="7.28" r="1.21"/><circle cx="7.28" cy="4.25" r="1.21"/><circle cx="4.25" cy="4.25" r="1.21"/><circle cx="1.21" cy="4.25" r="1.21"/><circle cx="5.76" cy="1.21" r="1.21"/><circle cx="2.73" cy="1.21" r="1.21"/></g><g transform="translate(0 94.49)"><circle cx="5.76" cy="7.28" r="1.21"/><circle cx="2.73" cy="7.28" r="1.21"/><circle cx="7.28" cy="4.25" r="1.21"/><circle cx="4.25" cy="4.25" r="1.21"/><circle cx="1.21" cy="4.25" r="1.21"/><circle cx="5.76" cy="1.21" r="1.21"/><circle cx="2.73" cy="1.21" r="1.21"/></g><g transform="translate(0 100.56)"><circle cx="5.76" cy="7.28" r="1.21"/><circle cx="2.73" cy="7.28" r="1.21"/><circle cx="7.28" cy="4.24" r="1.21"/><circle cx="4.25" cy="4.24" r="1.21"/><circle cx="1.21" cy="4.24" r="1.21"/><circle cx="5.76" cy="1.21" r="1.21"/><circle cx="2.73" cy="1.21" r="1.21"/></g><g transform="translate(0 106.63)"><circle cx="5.76" cy="7.28" r="1.21"/><circle cx="2.73" cy="7.28" r="1.21"/><circle cx="7.28" cy="4.24" r="1.21"/><circle cx="4.25" cy="4.24" r="1.21"/><circle cx="1.21" cy="4.24" r="1.21"/><circle cx="5.76" cy="1.21" r="1.21"/><circle cx="2.73" cy="1.21" r="1.21"/></g><g transform="translate(0 112.7)"><circle cx="5.76" cy="7.27" r="1.21"/><circle cx="2.73" cy="7.27" r="1.21"/><circle cx="7.28" cy="4.24" r="1.21"/><circle cx="4.25" cy="4.24" r="1.21"/><circle cx="1.21" cy="4.24" r="1.21"/><circle cx="5.76" cy="1.21" r="1.21"/><circle cx="2.73" cy="1.21" r="1.21"/></g><g transform="translate(0 118.76)"><circle cx="5.76" cy="7.28" r="1.21"/><circle cx="2.73" cy="7.28" r="1.21"/><circle cx="7.28" cy="4.25" r="1.21"/><circle cx="4.25" cy="4.25" r="1.21"/><circle cx="1.21" cy="4.25" r="1.21"/><circle cx="5.76" cy="1.21" r="1.21"/><circle cx="2.73" cy="1.21" r="1.21"/></g><g transform="translate(0 124.83)"><circle cx="5.76" cy="7.28" r="1.21"/><circle cx="2.73" cy="7.28" r="1.21"/><circle cx="7.28" cy="4.25" r="1.21"/><circle cx="4.25" cy="4.25" r="1.21"/><circle cx="1.21" cy="4.25" r="1.21"/><circle cx="5.76" cy="1.21" r="1.21"/><circle cx="2.73" cy="1.21" r="1.21"/></g><g transform="translate(0 130.9)"><circle cx="5.76" cy="7.28" r="1.21"/><circle cx="2.73" cy="7.28" r="1.21"/><circle cx="7.28" cy="4.24" r="1.21"/><circle cx="4.25" cy="4.24" r="1.21"/><circle cx="1.21" cy="4.24" r="1.21"/><circle cx="5.76" cy="1.21" r="1.21"/><circle cx="2.73" cy="1.21" r="1.21"/></g></g><path fill="url(#d)" d="M5.97 137.43h87.36V150H5.97z"/><circle cx="14.22" cy="22.49" r="1.21" fill="#252628" stroke="url(#e)" stroke-width=".25"/><circle cx="84.3" cy="22.49" r="1.21" fill="#252628" stroke="url(#e)" stroke-width=".25"/><circle cx="14.22" cy="143.95" r="1.21" fill="#252628" stroke="url(#f)" stroke-width=".25"/><circle cx="84.3" cy="143.95" r="1.21" fill="#252628" stroke="url(#f)" stroke-width=".25"/></g></svg>