<svg xmlns="http://www.w3.org/2000/svg" viewBox="0 0 151 83"><title>Chiller(制冷机)</title><defs><linearGradient id="a" x1="50.006%" x2="50.006%" y1="-.246%" y2="99.754%"><stop offset="0%" stop-color="#767b82"/><stop offset="7%" stop-color="#9ba1ab"/><stop offset="25%" stop-color="#e2eaf2"/><stop offset="31%" stop-color="#d1d8e0"/><stop offset="51%" stop-color="#a1a7ae"/><stop offset="68%" stop-color="#7e8489"/><stop offset="82%" stop-color="#696e73"/><stop offset="91%" stop-color="#61666b"/><stop offset="100%" stop-color="#a9b1bb"/></linearGradient><linearGradient id="b" x1="2091.253%" x2="1567.139%" y1="-3270.501%" y2="-3270.501%"><stop offset="0%" stop-color="#767b82"/><stop offset="7%" stop-color="#9ba1ab"/><stop offset="25%" stop-color="#e2eaf2"/><stop offset="31%" stop-color="#d1d8e0"/><stop offset="51%" stop-color="#a1a7ae"/><stop offset="68%" stop-color="#7e8489"/><stop offset="82%" stop-color="#696e73"/><stop offset="91%" stop-color="#61666b"/><stop offset="100%" stop-color="#a9b1bb"/></linearGradient><linearGradient id="c" x1="1531.206%" x2="1099.054%" y1="-4096.061%" y2="-4096.061%"><stop offset="0%" stop-color="#767b82"/><stop offset="7%" stop-color="#9ba1ab"/><stop offset="25%" stop-color="#e2eaf2"/><stop offset="31%" stop-color="#d1d8e0"/><stop offset="51%" stop-color="#a1a7ae"/><stop offset="68%" stop-color="#7e8489"/><stop offset="82%" stop-color="#696e73"/><stop offset="91%" stop-color="#61666b"/><stop offset="100%" stop-color="#a9b1bb"/></linearGradient><linearGradient id="d" x1="85.38%" x2="14.62%" y1="14.62%" y2="85.38%"><stop offset="0%" stop-color="#d7dce0"/><stop offset="100%" stop-color="#737880"/></linearGradient><linearGradient id="e" x1="50%" x2="50%" y1="102.047%" y2="-2.047%"><stop offset="0%" stop-color="#5c6066"/><stop offset="100%" stop-color="#f5faff"/></linearGradient><linearGradient id="f" x1="50%" x2="50%" y1="100%" y2="0%"><stop offset="0%" stop-color="#9ba1ab"/><stop offset="0%" stop-color="#abb1ba"/><stop offset="9%" stop-color="#abb1ba"/><stop offset="46%" stop-color="#d7dce0"/><stop offset="100%" stop-color="#a9b1bb"/></linearGradient><linearGradient id="g" x1="50%" x2="50%" y1="-38213.333%" y2="-38113.333%"><stop offset="0%" stop-color="#9ba1ab"/><stop offset="0%" stop-color="#abb1ba"/><stop offset="9%" stop-color="#abb1ba"/><stop offset="46%" stop-color="#d7dce0"/><stop offset="100%" stop-color="#a9b1bb"/></linearGradient><linearGradient id="h" x1="101.111%" x2="0%" y1="50%" y2="50%"><stop offset="0%" stop-color="#9ba1ab"/><stop offset="0%" stop-color="#abb1ba"/><stop offset="9%" stop-color="#abb1ba"/><stop offset="46%" stop-color="#d7dce0"/><stop offset="100%" stop-color="#a9b1bb"/></linearGradient><linearGradient id="i" x1="359.289%" x2="287.5%" y1="121.933%" y2="50.144%"><stop offset="0%" stop-color="#9ba1ab"/><stop offset="0%" stop-color="#abb1ba"/><stop offset="9%" stop-color="#abb1ba"/><stop offset="46%" stop-color="#d7dce0"/><stop offset="100%" stop-color="#a9b1bb"/></linearGradient><linearGradient id="j" x1="356.1%" x2="284.311%" y1="117.633%" y2="45.844%"><stop offset="0%" stop-color="#9ba1ab"/><stop offset="0%" stop-color="#abb1ba"/><stop offset="9%" stop-color="#abb1ba"/><stop offset="46%" stop-color="#d7dce0"/><stop offset="100%" stop-color="#a9b1bb"/></linearGradient><linearGradient id="k" x1="308.567%" x2="237.567%" y1="-419.989%" y2="-348.989%"><stop offset="0%" stop-color="#9ba1ab"/><stop offset="0%" stop-color="#abb1ba"/><stop offset="9%" stop-color="#abb1ba"/><stop offset="46%" stop-color="#d7dce0"/><stop offset="100%" stop-color="#a9b1bb"/></linearGradient><linearGradient id="l" x1="305.378%" x2="234.378%" y1="-415.689%" y2="-344.689%"><stop offset="0%" stop-color="#9ba1ab"/><stop offset="0%" stop-color="#abb1ba"/><stop offset="9%" stop-color="#abb1ba"/><stop offset="46%" stop-color="#d7dce0"/><stop offset="100%" stop-color="#a9b1bb"/></linearGradient><linearGradient id="m" x1="50%" x2="50%" y1="100%" y2="0%"><stop offset="0%" stop-color="#a9b1bb"/><stop offset="9%" stop-color="#61666b"/><stop offset="18%" stop-color="#696e73"/><stop offset="32%" stop-color="#7e8489"/><stop offset="49%" stop-color="#a1a7ae"/><stop offset="69%" stop-color="#d1d8e0"/><stop offset="75%" stop-color="#e2eaf2"/><stop offset="93%" stop-color="#9ba1ab"/><stop offset="100%" stop-color="#767b82"/></linearGradient><linearGradient id="n" x1="50%" x2="50%" y1="100%" y2="0%"><stop offset="0%" stop-color="#767b82"/><stop offset="32%" stop-color="#f5faff"/><stop offset="55%" stop-color="#9ba1ab"/><stop offset="100%" stop-color="#45484d"/></linearGradient><linearGradient id="o" x1="0%" x2="100%" y1="49.958%" y2="49.958%"><stop offset="0%" stop-color="#45484d"/><stop offset="45%" stop-color="#9ba1ab"/><stop offset="68%" stop-color="#f5faff"/><stop offset="100%" stop-color="#767b82"/></linearGradient><linearGradient id="p" x1="94.677%" x2="26.161%" y1="74.468%" y2="31.141%"><stop offset="0%" stop-color="#767b82"/><stop offset="32%" stop-color="#f5faff"/><stop offset="55%" stop-color="#9ba1ab"/><stop offset="100%" stop-color="#45484d"/></linearGradient><linearGradient id="q" x1="68.946%" x2="40.85%" y1="88.138%" y2="17.274%"><stop offset="0%" stop-color="#767b82"/><stop offset="32%" stop-color="#f5faff"/><stop offset="55%" stop-color="#9ba1ab"/><stop offset="100%" stop-color="#45484d"/></linearGradient><linearGradient id="r" x1="0%" x2="100%" y1="50.4%" y2="50.4%"><stop offset="0%" stop-color="#45484d"/><stop offset="45%" stop-color="#9ba1ab"/><stop offset="68%" stop-color="#f5faff"/><stop offset="100%" stop-color="#767b82"/></linearGradient><linearGradient id="s" x1="49.878%" x2="49.878%" y1="99.2%" y2="0%"><stop offset="0%" stop-color="#2e3033"/><stop offset="100%" stop-color="#9ba1ab" stop-opacity="0"/></linearGradient><linearGradient id="t" x1="50%" x2="50%" y1="100%" y2="0%"><stop offset="0%" stop-color="#767b82"/><stop offset="32%" stop-color="#f5faff"/><stop offset="55%" stop-color="#9ba1ab"/><stop offset="100%" stop-color="#45484d"/></linearGradient><linearGradient id="u" x1="100%" x2="0%" y1="50%" y2="50%"><stop offset="0%" stop-color="#45484d"/><stop offset="45%" stop-color="#9ba1ab"/><stop offset="68%" stop-color="#f5faff"/><stop offset="100%" stop-color="#767b82"/></linearGradient><linearGradient id="v" x1="5.489%" x2="73.71%" y1="74.517%" y2="31.274%"><stop offset="0%" stop-color="#767b82"/><stop offset="32%" stop-color="#f5faff"/><stop offset="55%" stop-color="#9ba1ab"/><stop offset="100%" stop-color="#45484d"/></linearGradient><linearGradient id="w" x1="30.996%" x2="59.225%" y1="87.829%" y2="17.395%"><stop offset="0%" stop-color="#767b82"/><stop offset="32%" stop-color="#f5faff"/><stop offset="55%" stop-color="#9ba1ab"/><stop offset="100%" stop-color="#45484d"/></linearGradient><linearGradient id="x" x1="0%" x2="100%" y1="49.6%" y2="49.6%"><stop offset="0%" stop-color="#45484d"/><stop offset="45%" stop-color="#9ba1ab"/><stop offset="68%" stop-color="#f5faff"/><stop offset="100%" stop-color="#767b82"/></linearGradient><linearGradient id="y" x1="49.878%" x2="49.878%" y1="0%" y2="99.2%"><stop offset="0%" stop-color="#2e3033"/><stop offset="100%" stop-color="#9ba1ab" stop-opacity="0"/></linearGradient><linearGradient id="z" x1="101.186%" x2="81.49%" y1="-2833.588%" y2="-2833.588%"><stop offset="0%" stop-color="#767b82"/><stop offset="7%" stop-color="#9ba1ab"/><stop offset="25%" stop-color="#e2eaf2"/><stop offset="31%" stop-color="#d1d8e0"/><stop offset="51%" stop-color="#a1a7ae"/><stop offset="68%" stop-color="#7e8489"/><stop offset="82%" stop-color="#696e73"/><stop offset="91%" stop-color="#61666b"/><stop offset="100%" stop-color="#a9b1bb"/></linearGradient><linearGradient id="A" x1="0%" x2="99.95%" y1="50.019%" y2="50.019%"><stop offset="0%" stop-color="#2e3033"/><stop offset="100%" stop-color="#9ba1ab" stop-opacity="0"/></linearGradient><linearGradient id="B" x1="46.376%" x2="60.457%" y1="14.373%" y2="90.431%"><stop offset="0%" stop-color="#767b82"/><stop offset="7%" stop-color="#9ba1ab"/><stop offset="28%" stop-color="#e2eaf2"/><stop offset="34%" stop-color="#d1d8e0"/><stop offset="52%" stop-color="#a1a7ae"/><stop offset="69%" stop-color="#7e8489"/><stop offset="82%" stop-color="#696e73"/><stop offset="91%" stop-color="#61666b"/><stop offset="100%" stop-color="#a9b1bb"/></linearGradient><linearGradient id="C" x1="53.612%" x2="39.53%" y1="14.373%" y2="90.431%"><stop offset="0%" stop-color="#767b82"/><stop offset="7%" stop-color="#9ba1ab"/><stop offset="28%" stop-color="#e2eaf2"/><stop offset="34%" stop-color="#d1d8e0"/><stop offset="52%" stop-color="#a1a7ae"/><stop offset="69%" stop-color="#7e8489"/><stop offset="82%" stop-color="#696e73"/><stop offset="91%" stop-color="#61666b"/><stop offset="100%" stop-color="#a9b1bb"/></linearGradient><linearGradient id="D" x1="0%" x2="100%" y1="50%" y2="50%"><stop offset="0%" stop-color="#767b82"/><stop offset="4%" stop-color="#b9c0cc"/><stop offset="92%" stop-color="#b9c0cc"/><stop offset="96%" stop-color="#d7dce0"/><stop offset="100%" stop-color="#767b82"/></linearGradient><linearGradient id="E" x1="0%" x2="100%" y1="50.331%" y2="50.331%"><stop offset="0%" stop-color="#767b82"/><stop offset="4%" stop-color="#b9c0cc"/><stop offset="92%" stop-color="#b9c0cc"/><stop offset="96%" stop-color="#d7dce0"/><stop offset="100%" stop-color="#767b82"/></linearGradient><linearGradient id="F" x1="81.416%" x2="18.584%" y1="6.814%" y2="93.186%"><stop offset="0%" stop-color="#d7dce0"/><stop offset="100%" stop-color="#8a9099"/></linearGradient><linearGradient id="G" x1="81.441%" x2="18.584%" y1="6.814%" y2="93.186%"><stop offset="0%" stop-color="#d7dce0"/><stop offset="100%" stop-color="#8a9099"/></linearGradient><linearGradient id="H" x1="81.389%" x2="18.581%" y1="6.813%" y2="93.187%"><stop offset="0%" stop-color="#d7dce0"/><stop offset="100%" stop-color="#8a9099"/></linearGradient><linearGradient id="I" x1="98.635%" x2="1.365%" y1="4.021%" y2="95.979%"><stop offset="0%" stop-color="#7a7d80"/><stop offset="100%" stop-color="#5c6066"/></linearGradient><linearGradient id="J" x1="49.999%" x2="49.999%" y1="99.254%" y2="-.745%"><stop offset="0%" stop-color="#17181a"/><stop offset="100%" stop-color="#929699"/></linearGradient><linearGradient id="K" x1="50.125%" x2="50.125%" y1="100%" y2="0%"><stop offset="0%" stop-color="#cfdae6"/><stop offset="100%" stop-color="#5c6066"/></linearGradient><linearGradient id="L" x1="50%" x2="50%" y1="101.419%" y2="-1.419%"><stop offset="0%" stop-color="#5c6066"/><stop offset="100%" stop-color="#f5faff"/></linearGradient><linearGradient id="M" x1="50%" x2="50%" y1="105.652%" y2="-5.652%"><stop offset="0%" stop-color="#dce1e6"/><stop offset="100%" stop-color="#5c6066"/></linearGradient></defs><g fill="none" fill-rule="nonzero" transform="translate(.01 .446)"><path fill="url(#a)" d="M116.55 3H42.93a8.13 8.13 0 0 0-8.13 8.13 8.13 8.13 0 0 0 8.13 8.12h73.62z"/><path fill="url(#b)" d="M93.92 0h4.23v22.17h-4.23z"/><path fill="url(#c)" d="M115.66 1.95h4.23v18.28h-4.23z"/><circle cx="107.26" cy="15.33" r="6.84" fill="url(#d)" stroke="url(#e)" stroke-width=".55"/><circle cx="107.26" cy="21.32" r="1" fill="url(#f)" stroke="#747a80" stroke-width=".21"/><circle cx="107.26" cy="9.35" r="1" fill="url(#g)" stroke="#747a80" stroke-width=".21"/><circle cx="113.24" cy="15.33" r="1" fill="url(#h)" stroke="#747a80" stroke-width=".21"/><circle cx="101.27" cy="15.33" r="1" fill="url(#h)" stroke="#747a80" stroke-width=".21"/><circle cx="111.49" cy="19.56" r="1" fill="url(#i)" stroke="#747a80" stroke-width=".21"/><circle cx="103.02" cy="11.1" r="1" fill="url(#j)" stroke="#747a80" stroke-width=".21"/><circle cx="111.49" cy="11.1" r="1" fill="url(#k)" stroke="#747a80" stroke-width=".21"/><circle cx="103.02" cy="19.56" r="1" fill="url(#l)" stroke="#747a80" stroke-width=".21"/><rect width="34.76" height="9.77" x="75.67" y="10.9" fill="url(#m)" rx="4.88"/><path fill="#2f3134" d="M115.66 20.22h4.23V2h-4.23v1H98.15V0h-4.23v3h-51a8.13 8.13 0 0 0-8.13 8.13 8.13 8.13 0 0 0 8.13 8.12h34.17a4.87 4.87 0 0 0 3.47 1.46h13.36v1.5h4.23v-1.5H103a6.84 6.84 0 0 0 9.91-1.46h2.77z" opacity=".3"/><path fill="url(#n)" d="M29.81 22.71v4.12h-5.44l-.9-4.12z"/><path fill="url(#o)" d="M20.81 29.23v10.23H16.7V27.43z"/><path fill="url(#p)" d="m20.81 29.23-4.13-1.8 2.27-3.37 2.45 3.6z"/><path fill="url(#q)" d="m23.47 22.71.89 4.11-2.96.84-2.45-3.6z"/><path fill="url(#r)" d="M16.24 37.97h5.02v1.25h-5.02z"/><path fill="url(#s)" d="M16.7 36.73h4.11v1.25H16.7z" opacity=".2"/><path fill="url(#t)" d="M83.29 25.84v4.12h36.82l.9-4.12z"/><path fill="url(#u)" d="M123.67 32.37v7.09h4.11v-8.9z"/><path fill="url(#v)" d="m123.67 32.37 4.13-1.8-2.27-3.38-2.46 3.61z"/><path fill="url(#w)" d="m121.01 25.85-.9 4.11 2.96.84 2.46-3.61z"/><path fill="url(#x)" d="M123.21 37.97h5.02v1.25h-5.02z" transform="matrix(-1 0 0 -1 251.44 77.19)"/><path fill="url(#y)" d="M123.66 36.72h4.11v1.25h-4.11z" opacity=".2" transform="matrix(-1 0 0 -1 251.43 74.69)"/><path fill="url(#z)" d="M8.41 39.22h133.17v26.23H8.41z"/><path fill="url(#A)" d="M8.41 39.22h19.98v26.23H8.41z" opacity=".2"/><path fill="url(#B)" d="M8.41 39.22S0 41.05 0 52.34s8.41 13.11 8.41 13.11z"/><path fill="url(#C)" d="M141.59 39.22S150 41.05 150 52.34s-8.41 13.11-8.41 13.11z"/><path fill="url(#D)" d="M8.41 37.97h2.25v43.64H8.41z"/><path fill="url(#E)" d="M6.12 80.09h6.83v1.51H6.12z"/><path fill="url(#D)" d="M139.27 37.97h2.25v43.64h-2.25z"/><path fill="url(#E)" d="M136.98 80.09h6.83v1.51h-6.83z"/><path fill="url(#F)" d="M28.39 9.72h21.46v29.5H28.39z"/><path fill="url(#G)" d="M49.85 9.72h21.46v29.5H49.85z"/><path fill="url(#H)" d="M77.35 15h17.62v24.22H77.35z"/><path fill="#494d53" d="M38.8 24.47h3.53v3.38H38.8z"/><path fill="#8f9499" d="M39.1 24.47h3.23v3.07H39.1z"/><path fill="url(#I)" d="M39.1 24.77h2.93v2.77H39.1z"/><path fill="#252628" d="M40.75 29.6h-.33L40 26.21c0-.19.28-.35.63-.35.36 0 .64.16.64.35zM47.89 22.17h1.14v4.31h-1.14z"/><circle cx="85.81" cy="34.98" r="1.34" fill="#d3a91e"/><path fill="url(#J)" d="M85.81 33.89A1.09 1.09 0 1 1 84.73 35a1.09 1.09 0 0 1 1.08-1.09m0-.25A1.34 1.34 0 1 0 87.15 35a1.33 1.33 0 0 0-1.34-1.34"/><path fill="#c7cedb" d="M81.79 20.26h8.06v4.21h-8.06z"/><path fill="url(#K)" d="M89.59 20.51v3.71H82v-3.71h7.55m.25-.25h-8v4.21h8z"/><path fill="#252628" d="M82.12 21.06h7.43v2.62h-7.43z"/><path fill="#fff" d="M82.12 23.57v-2.51h7.44z" opacity=".2"/><circle cx="30.53" cy="65.45" r="4.58" fill="#b1b8bf" stroke="url(#L)" stroke-width=".25"/><circle cx="30.53" cy="65.45" r="1.15" fill="#252628" stroke="url(#M)" stroke-width=".25"/></g></svg>