<svg xmlns="http://www.w3.org/2000/svg" viewBox="0 0 151 120"><title>Chilled water cooling coils(制冷冷却盘管)</title><defs><linearGradient id="a" x1="0%" x2="100%" y1="50%" y2="50%"><stop offset="0%" stop-color="#767b82"/><stop offset="2%" stop-color="#9ba1ab"/><stop offset="98%" stop-color="#9ba1ab"/><stop offset="99%" stop-color="#d7dce0"/><stop offset="100%" stop-color="#767b82"/></linearGradient><linearGradient id="b" x1="49.963%" x2="49.963%" y1="100%" y2="0%"><stop offset="0%" stop-color="#dce1e6"/><stop offset="100%" stop-color="#5c6066"/></linearGradient><linearGradient id="c" x1="50.004%" x2="50.004%" y1="100%" y2="0%"><stop offset="0%" stop-color="#a9b1bb"/><stop offset="9%" stop-color="#61666b"/><stop offset="18%" stop-color="#696e73"/><stop offset="32%" stop-color="#7e8489"/><stop offset="49%" stop-color="#a1a7ae"/><stop offset="69%" stop-color="#d1d8e0"/><stop offset="75%" stop-color="#e2eaf2"/><stop offset="93%" stop-color="#9ba1ab"/><stop offset="100%" stop-color="#767b82"/></linearGradient><linearGradient id="d" x1="50.004%" x2="50.004%" y1="100.183%" y2="0%"><stop offset="0%" stop-color="#a9b1bb"/><stop offset="9%" stop-color="#61666b"/><stop offset="18%" stop-color="#696e73"/><stop offset="32%" stop-color="#7e8489"/><stop offset="49%" stop-color="#a1a7ae"/><stop offset="69%" stop-color="#d1d8e0"/><stop offset="75%" stop-color="#e2eaf2"/><stop offset="93%" stop-color="#9ba1ab"/><stop offset="100%" stop-color="#767b82"/></linearGradient><linearGradient id="e" x1="0%" x2="100%" y1="50%" y2="50%"><stop offset="0%" stop-color="#767b82"/><stop offset="2%" stop-color="#b9c0cc"/><stop offset="96%" stop-color="#b9c0cc"/><stop offset="98%" stop-color="#d7dce0"/><stop offset="100%" stop-color="#767b82"/></linearGradient><linearGradient id="f" x1="50%" x2="50%" y1="100%" y2="0%"><stop offset="0%" stop-color="#9ba1ab" stop-opacity="0"/><stop offset="100%" stop-color="#2e3033"/></linearGradient></defs><g fill="none" fill-rule="nonzero"><path fill="url(#a)" d="M0 0h150v112.06H0z" transform="translate(.01 .446)"/><path fill="#252628" d="M6.96 7.866h136.11v97.22H6.96z"/><path fill="url(#b)" d="M142.55 7.92v96.22H7.45V7.92zm.5-.5H7v97.22h136.1V7.42z" transform="translate(.01 .446)"/><path fill="url(#c)" d="M7.81 94.84h134.41v5.45H7.81z" transform="translate(.01 .446)"/><path fill="url(#c)" d="M7.81 86.45h134.41v5.45H7.81z" transform="translate(.01 .446)"/><path fill="url(#c)" d="M7.81 78.06h134.41v5.45H7.81z" transform="translate(.01 .446)"/><path fill="url(#c)" d="M7.81 69.67h134.41v5.45H7.81z" transform="translate(.01 .446)"/><path fill="url(#d)" d="M7.81 61.28h134.41v5.45H7.81z" transform="translate(.01 .446)"/><path fill="url(#c)" d="M7.81 52.9h134.41v5.45H7.81z" transform="translate(.01 .446)"/><path fill="url(#c)" d="M7.81 44.51h134.41v5.45H7.81z" transform="translate(.01 .446)"/><path fill="url(#c)" d="M7.81 36.12h134.41v5.45H7.81z" transform="translate(.01 .446)"/><path fill="url(#c)" d="M7.81 27.73h134.41v5.45H7.81z" transform="translate(.01 .446)"/><path fill="url(#d)" d="M7.81 19.34h134.41v5.45H7.81z" transform="translate(.01 .446)"/><path fill="url(#c)" d="M7.81 10.96h134.41v5.45H7.81z" transform="translate(.01 .446)"/><path fill="url(#e)" d="M7.81 112.06h7.42v7.42H7.81z" transform="translate(.01 .446)"/><path fill="url(#f)" d="M7.81 112.06h7.42v7.42H7.81z" opacity=".3" transform="translate(.01 .446)"/><path fill="url(#e)" d="M134.8 112.06h7.42v7.42h-7.42z" transform="translate(.01 .446)"/><path fill="url(#f)" d="M134.8 112.06h7.42v7.42h-7.42z" opacity=".3" transform="translate(.01 .446)"/></g></svg>