<svg xmlns="http://www.w3.org/2000/svg" viewBox="0 0 95 151"><title>Chiller system</title><defs><linearGradient id="a" x1="75.736%" x2="24.264%" y1="9.215%" y2="90.778%"><stop offset="0%" stop-color="#d7dce0"/><stop offset="100%" stop-color="#8a9099"/></linearGradient><linearGradient id="b" x1="49.97%" x2="49.97%" y1="100%" y2="0%"><stop offset="0%" stop-color="#e6f2ff"/><stop offset="100%" stop-color="#5c6066"/></linearGradient><linearGradient id="c" x1="89.738%" x2="10.286%" y1="26.592%" y2="73.394%"><stop offset="0%" stop-color="#ebf0f5"/><stop offset="100%" stop-color="#b8c0cc"/></linearGradient><linearGradient id="d" x1="0%" x2="100%" y1="50%" y2="50%"><stop offset="0%" stop-color="#9ba1ab"/><stop offset="0%" stop-color="#abb1ba"/><stop offset="9%" stop-color="#abb1ba"/><stop offset="46%" stop-color="#d7dce0"/><stop offset="100%" stop-color="#a9b1bb"/></linearGradient><linearGradient id="e" x1="89.738%" x2="10.286%" y1="26.599%" y2="73.394%"><stop offset="0%" stop-color="#ebf0f5"/><stop offset="100%" stop-color="#b8c0cc"/></linearGradient><linearGradient id="f" x1="49.839%" x2="49.839%" y1="100%" y2="0%"><stop offset="0%" stop-color="#45484d"/><stop offset="100%" stop-color="#cfdae6"/></linearGradient><linearGradient id="g" x1="49.839%" x2="49.839%" y1="98.701%" y2="0%"><stop offset="0%" stop-color="#45484d"/><stop offset="100%" stop-color="#cfdae6"/></linearGradient><linearGradient id="h" x1="50%" x2="50%" y1="103.297%" y2="-3.571%"><stop offset="0%" stop-color="#767b82"/><stop offset="7%" stop-color="#9ba1ab"/><stop offset="22%" stop-color="#e2eaf2"/><stop offset="94%" stop-color="#5d6166"/><stop offset="100%" stop-color="#a9b1bb"/></linearGradient><linearGradient id="i" x1="50%" x2="50%" y1="101.17%" y2="-1.17%"><stop offset="0%" stop-color="#dce1e6"/><stop offset="100%" stop-color="#5c6066"/></linearGradient><linearGradient id="j" x1="50%" x2="50%" y1="100%" y2="-.138%"><stop offset="0%" stop-color="#d3441e"/><stop offset="100%" stop-color="#d97f68"/></linearGradient></defs><g fill="none" fill-rule="nonzero" transform="translate(.01 .446)"><path fill="url(#a)" d="M89.83 149.88v-9.07H4.93v9.07H.13V.13h94.51v149.75z"/><path fill="#5f6366" d="M94.51.25v149.5H90v-9.06H4.81v9.06H.25V.25zm.25-.25H0v150h5.06v-9.06H89.7V150h5.06z"/><path fill="#c7cedb" d="M5.06 5.42H89.7v21.51H5.06z"/><path fill="url(#b)" d="M89.36 5.76v20.82H5.41V5.76h84m.34-.34H5.06v21.5H89.7V5.42z"/><path fill="url(#c)" d="M5.18 30.84h84.39v49.71H5.18z"/><path fill="#5f6366" d="M89.45 31v49.42H5.31V31zm.25-.25H5.06v50H89.7z"/><circle cx="17.24" cy="16.64" r="6.29" fill="#42474d" stroke="#b4bcc5" stroke-width=".5"/><circle cx="17.24" cy="16.64" r="5.13" fill="#cfd5db"/><path fill="#a63c27" d="m20.22 13.73-5.83 4.87.96.95z"/><circle cx="17.24" cy="16.64" r="1" fill="#a8afb5"/><circle cx="6.67" cy="32.32" r="1" fill="url(#d)" stroke="#505458" stroke-width=".25"/><circle cx="6.67" cy="79.06" r="1" fill="url(#d)" stroke="#505458" stroke-width=".25"/><circle cx="6.67" cy="55.69" r="1" fill="url(#d)" stroke="#505458" stroke-width=".25"/><circle cx="87.82" cy="32.32" r="1" fill="url(#d)" stroke="#505458" stroke-width=".25"/><circle cx="87.82" cy="79.06" r="1" fill="url(#d)" stroke="#505458" stroke-width=".25"/><circle cx="87.82" cy="55.69" r="1" fill="url(#d)" stroke="#505458" stroke-width=".25"/><circle cx="47.38" cy="32.32" r="1" fill="url(#d)" stroke="#505458" stroke-width=".25"/><circle cx="47.38" cy="79.06" r="1" fill="url(#d)" stroke="#505458" stroke-width=".25"/><path fill="url(#e)" d="M5.18 85.53h84.39v49.71H5.18z"/><path fill="#5f6366" d="M89.45 85.65v49.46H5.31V85.65zm.25-.25H5.06v50H89.7z"/><circle cx="6.67" cy="87.01" r="1" fill="url(#d)" stroke="#505458" stroke-width=".25"/><circle cx="6.67" cy="133.75" r="1" fill="url(#d)" stroke="#505458" stroke-width=".25"/><circle cx="6.67" cy="110.38" r="1" fill="url(#d)" stroke="#505458" stroke-width=".25"/><circle cx="87.82" cy="87.01" r="1" fill="url(#d)" stroke="#505458" stroke-width=".25"/><circle cx="87.82" cy="133.75" r="1" fill="url(#d)" stroke="#505458" stroke-width=".25"/><circle cx="87.82" cy="110.38" r="1" fill="url(#d)" stroke="#505458" stroke-width=".25"/><circle cx="47.38" cy="87.01" r="1" fill="url(#d)" stroke="#505458" stroke-width=".25"/><circle cx="47.38" cy="133.75" r="1" fill="url(#d)" stroke="#505458" stroke-width=".25"/><path fill="#242528" d="M36.46 13.27h18.82v8.49H36.46z"/><path fill="#d3441e" d="M58.2 14.86h3.11v2.27H58.2z"/><path fill="url(#f)" d="M61.06 15.11v1.77h-2.61v-1.77zm.25-.25H58.2v2.27h3.11z"/><path fill="#42ba09" d="M58.2 18.69h3.11v2.27H58.2z"/><path fill="url(#g)" d="M61.06 18.94v1.78h-2.61v-1.78zm.25-.25H58.2V21h3.11z"/><circle cx="69.64" cy="39.67" r="1.82" fill="#252628" stroke="url(#h)" stroke-linecap="round" stroke-width=".25"/><circle cx="72.77" cy="16.64" r="5.13" fill="#e5b325" stroke="url(#i)" stroke-width=".25"/><circle cx="72.77" cy="16.64" r="3.62" fill="url(#j)"/><path fill="#fff" d="M76 16.64a3.25 3.25 0 1 0-6.49 0s.74.8 3.24.8 3.25-.8 3.25-.8" opacity=".2"/></g></svg>