<svg xmlns="http://www.w3.org/2000/svg" viewBox="0 0 151 77"><title>Contaminent barrier 2( 污染物隔离2)</title><defs><linearGradient id="a" x1="50%" x2="50%" y1="100%" y2="0%"><stop offset="0%" stop-color="#7a8088"/><stop offset="9%" stop-color="#2d2f33"/><stop offset="15%" stop-color="#35373b"/><stop offset="24%" stop-color="#4a4d51"/><stop offset="35%" stop-color="#6d7176"/><stop offset="48%" stop-color="#9da3a9"/><stop offset="62%" stop-color="#d7dfe6"/><stop offset="93%" stop-color="#6d7177"/><stop offset="100%" stop-color="#5c6067"/></linearGradient><linearGradient id="b" x1="50%" x2="50%" y1="100%" y2="0%"><stop offset="0%" stop-color="#7a8088"/><stop offset="9%" stop-color="#2d2f33"/><stop offset="15%" stop-color="#35373b"/><stop offset="24%" stop-color="#4a4d51"/><stop offset="35%" stop-color="#6d7176"/><stop offset="48%" stop-color="#9da3a9"/><stop offset="62%" stop-color="#d7dfe6"/><stop offset="93%" stop-color="#6d7177"/><stop offset="100%" stop-color="#5c6067"/></linearGradient><linearGradient id="c" x1="50%" x2="50%" y1="100%" y2="0%"><stop offset="0%" stop-color="#7a8088"/><stop offset="9%" stop-color="#2d2f33"/><stop offset="15%" stop-color="#35373b"/><stop offset="24%" stop-color="#4a4d51"/><stop offset="35%" stop-color="#6d7176"/><stop offset="48%" stop-color="#9da3a9"/><stop offset="62%" stop-color="#d7dfe6"/><stop offset="93%" stop-color="#6d7177"/><stop offset="100%" stop-color="#5c6067"/></linearGradient><linearGradient id="d" x1="50%" x2="50%" y1="100%" y2="0%"><stop offset="0%" stop-color="#676b70"/><stop offset="2%" stop-color="#484b4d"/><stop offset="19%" stop-color="#747980"/><stop offset="20%" stop-color="#d1d5db"/><stop offset="79%" stop-color="#c7cfdb"/><stop offset="80%" stop-color="#edf5ff"/><stop offset="81%" stop-color="#c3c7cc"/><stop offset="100%" stop-color="#929599"/></linearGradient><linearGradient id="e" x1="50%" x2="50%" y1="99.982%" y2="0%"><stop offset="0%" stop-color="#7a8088"/><stop offset="9%" stop-color="#2d2f33"/><stop offset="15%" stop-color="#35373b"/><stop offset="24%" stop-color="#4a4d51"/><stop offset="35%" stop-color="#6d7176"/><stop offset="48%" stop-color="#9da3a9"/><stop offset="62%" stop-color="#d7dfe6"/><stop offset="93%" stop-color="#6d7177"/><stop offset="100%" stop-color="#5c6067"/></linearGradient><linearGradient id="f" x1="49.963%" x2="49.963%" y1="100%" y2="0%"><stop offset="0%" stop-color="#7a8088"/><stop offset="9%" stop-color="#2d2f33"/><stop offset="15%" stop-color="#35373b"/><stop offset="24%" stop-color="#4a4d51"/><stop offset="35%" stop-color="#6d7176"/><stop offset="48%" stop-color="#9da3a9"/><stop offset="62%" stop-color="#d7dfe6"/><stop offset="93%" stop-color="#6d7177"/><stop offset="100%" stop-color="#5c6067"/></linearGradient><linearGradient id="g" x1="50.989%" x2="49.147%" y1="99.32%" y2="2.347%"><stop offset="0%" stop-color="#7a8088"/><stop offset="9%" stop-color="#2d2f33"/><stop offset="15%" stop-color="#35373b"/><stop offset="24%" stop-color="#4a4d51"/><stop offset="35%" stop-color="#6d7176"/><stop offset="48%" stop-color="#9da3a9"/><stop offset="62%" stop-color="#d7dfe6"/><stop offset="93%" stop-color="#6d7177"/><stop offset="100%" stop-color="#5c6067"/></linearGradient><linearGradient id="h" x1="0%" x2="100%" y1="50%" y2="50%"><stop offset="0%" stop-color="#9ba1ab" stop-opacity="0"/><stop offset="100%" stop-color="#2e3033"/></linearGradient><linearGradient id="i" x1="49.011%" x2="50.851%" y1="99.32%" y2="2.347%"><stop offset="0%" stop-color="#7a8088"/><stop offset="9%" stop-color="#2d2f33"/><stop offset="15%" stop-color="#35373b"/><stop offset="24%" stop-color="#4a4d51"/><stop offset="35%" stop-color="#6d7176"/><stop offset="48%" stop-color="#9da3a9"/><stop offset="62%" stop-color="#d7dfe6"/><stop offset="93%" stop-color="#6d7177"/><stop offset="100%" stop-color="#5c6067"/></linearGradient><linearGradient id="j" x1="50%" x2="50%" y1="100%" y2="0%"><stop offset="0%" stop-color="#7a8088"/><stop offset="9%" stop-color="#2d2f33"/><stop offset="15%" stop-color="#35373b"/><stop offset="24%" stop-color="#4a4d51"/><stop offset="35%" stop-color="#6d7176"/><stop offset="48%" stop-color="#9da3a9"/><stop offset="62%" stop-color="#d7dfe6"/><stop offset="93%" stop-color="#6d7177"/><stop offset="100%" stop-color="#5c6067"/></linearGradient><linearGradient id="k" x1="50.066%" x2="50.066%" y1="100%" y2="0%"><stop offset="0%" stop-color="#7a8088"/><stop offset="9%" stop-color="#2d2f33"/><stop offset="15%" stop-color="#35373b"/><stop offset="24%" stop-color="#4a4d51"/><stop offset="35%" stop-color="#6d7176"/><stop offset="48%" stop-color="#9da3a9"/><stop offset="62%" stop-color="#d7dfe6"/><stop offset="93%" stop-color="#6d7177"/><stop offset="100%" stop-color="#5c6067"/></linearGradient><linearGradient id="l" x1="100%" x2="0%" y1="50%" y2="50%"><stop offset="0%" stop-color="#9ba1ab" stop-opacity="0"/><stop offset="100%" stop-color="#2e3033"/></linearGradient><linearGradient id="m" x1="50%" x2="50%" y1="100.131%" y2="0%"><stop offset="0%" stop-color="#676b70"/><stop offset="2%" stop-color="#484b4d"/><stop offset="19%" stop-color="#747980"/><stop offset="20%" stop-color="#d1d5db"/><stop offset="79%" stop-color="#c7cfdb"/><stop offset="80%" stop-color="#edf5ff"/><stop offset="81%" stop-color="#c3c7cc"/><stop offset="100%" stop-color="#929599"/></linearGradient></defs><g fill="none" fill-rule="nonzero"><path fill="url(#a)" d="M2.46 66.48h27.58v5.53H2.46z" transform="translate(.01 .446)"/><path fill="url(#a)" d="M2.46 46.59h27.58v5.53H2.46z" transform="translate(.01 .446)"/><path fill="url(#a)" d="M2.46 24.5h27.58v5.53H2.46z" transform="translate(.01 .446)"/><path fill="url(#b)" d="M75.36 31.65H150v12.84H75.36z" transform="translate(.01 .446)"/><path fill="url(#c)" d="M63.89 30.04h77.76v16.05H63.89z" transform="translate(.01 .446)"/><path fill="url(#a)" d="M2.46 5.52h27.58v5.53H2.46z" transform="translate(.01 .446)"/><path fill="url(#d)" d="M0 4.48h2.46v7.61H0z" transform="translate(.01 .446)"/><path fill="url(#e)" d="M30.04 10.6h77.76v54.95H30.04z" transform="translate(.01 .446)"/><path fill="url(#f)" d="M114.45 7.18h13.41v61.78h-13.41z" transform="translate(.01 .446)"/><path fill="url(#g)" d="m114.45 68.96-6.65-3.42V10.6l6.65-3.42z" transform="translate(.01 .446)"/><path fill="url(#h)" d="m114.45 68.96-6.65-3.42V10.6l6.65-3.42z" opacity=".1" transform="translate(.01 .446)"/><path fill="url(#i)" d="m127.85 68.96 6.65-3.42V10.6l-6.65-3.42z" transform="translate(.01 .446)"/><path fill="url(#j)" d="M18.4 0h11.64v76.14H18.4z" transform="translate(.01 .446)"/><path fill="url(#k)" d="M2.46 0h7.57v76.14H2.46z" transform="translate(.01 .446)"/><path fill="#fff" d="M2.47.446h7.57v76.14H2.47z" opacity=".2"/><path fill="url(#l)" d="m127.85 68.96 6.65-3.42V10.6l-6.65-3.42z" opacity=".1" transform="translate(.01 .446)"/><path fill="url(#d)" d="M30.04 4.48h2.46v7.61h-2.46z" transform="translate(.01 .446)"/><path fill="url(#m)" d="M0 23.46h2.46v7.61H0z" transform="translate(.01 .446)"/><path fill="url(#m)" d="M30.04 23.46h2.46v7.61h-2.46z" transform="translate(.01 .446)"/><path fill="url(#m)" d="M0 45.55h2.46v7.61H0z" transform="translate(.01 .446)"/><path fill="url(#m)" d="M30.04 45.55h2.46v7.61h-2.46z" transform="translate(.01 .446)"/><path fill="url(#m)" d="M0 65.43h2.46v7.61H0z" transform="translate(.01 .446)"/><path fill="url(#m)" d="M30.04 65.43h2.46v7.61h-2.46z" transform="translate(.01 .446)"/></g></svg>