<svg xmlns="http://www.w3.org/2000/svg" viewBox="0 0 139 151"><title>Deaerator 2(除氧器2)</title><defs><linearGradient id="a" x1="50%" x2="50%" y1="100%" y2="0%"><stop offset="0%" stop-color="#a9b1bb"/><stop offset="9%" stop-color="#61666b"/><stop offset="18%" stop-color="#696e73"/><stop offset="32%" stop-color="#7e8489"/><stop offset="49%" stop-color="#a1a7ae"/><stop offset="69%" stop-color="#d1d8e0"/><stop offset="75%" stop-color="#e2eaf2"/><stop offset="93%" stop-color="#9ba1ab"/><stop offset="100%" stop-color="#767b82"/></linearGradient><linearGradient id="b" x1=".305%" x2="100.305%" y1="50.004%" y2="50.004%"><stop offset="0%" stop-color="#767b82"/><stop offset="2%" stop-color="#9ba1ab"/><stop offset="98%" stop-color="#9ba1ab"/><stop offset="99%" stop-color="#d7dce0"/><stop offset="100%" stop-color="#767b82"/></linearGradient><linearGradient id="c" x1="33.119%" x2="133.288%" y1="50.004%" y2="50.004%"><stop offset="0%" stop-color="#767b82"/><stop offset="2%" stop-color="#9ba1ab"/><stop offset="98%" stop-color="#9ba1ab"/><stop offset="99%" stop-color="#d7dce0"/><stop offset="100%" stop-color="#767b82"/></linearGradient><linearGradient id="d" x1="133.288%" x2="33.119%" y1="50.004%" y2="50.004%"><stop offset="0%" stop-color="#878d93" stop-opacity="0"/><stop offset="100%" stop-color="#2e3033"/></linearGradient><linearGradient id="e" x1="0%" x2="100.305%" y1="50.004%" y2="50.004%"><stop offset="0%" stop-color="#767b82"/><stop offset="2%" stop-color="#9ba1ab"/><stop offset="98%" stop-color="#9ba1ab"/><stop offset="99%" stop-color="#d7dce0"/><stop offset="100%" stop-color="#767b82"/></linearGradient><linearGradient id="f" x1="50%" x2="50%" y1="100%" y2="0%"><stop offset="0%" stop-color="#a9b1bb"/><stop offset="9%" stop-color="#61666b"/><stop offset="18%" stop-color="#696e73"/><stop offset="32%" stop-color="#7e8489"/><stop offset="49%" stop-color="#a1a7ae"/><stop offset="69%" stop-color="#d1d8e0"/><stop offset="75%" stop-color="#e2eaf2"/><stop offset="93%" stop-color="#9ba1ab"/><stop offset="100%" stop-color="#767b82"/></linearGradient><linearGradient id="g" x1="-.081%" x2="99.919%" y1="50%" y2="50%"><stop offset="0%" stop-color="#2e3033"/><stop offset="100%" stop-color="#878d93" stop-opacity="0"/></linearGradient><linearGradient id="h" x1="0%" x2="99.919%" y1="50%" y2="50%"><stop offset="0%" stop-color="#878d93" stop-opacity="0"/><stop offset="100%" stop-color="#2e3033"/></linearGradient><linearGradient id="i" x1="37.504%" x2="63.138%" y1="54.718%" y2="47.645%"><stop offset="0%" stop-color="#a9b1bb"/><stop offset="9%" stop-color="#61666b"/><stop offset="18%" stop-color="#696e73"/><stop offset="32%" stop-color="#7e8489"/><stop offset="49%" stop-color="#a1a7ae"/><stop offset="69%" stop-color="#d1d8e0"/><stop offset="75%" stop-color="#e2eaf2"/><stop offset="93%" stop-color="#9ba1ab"/><stop offset="100%" stop-color="#767b82"/></linearGradient><linearGradient id="j" x1="12.496%" x2="87.504%" y1="48.305%" y2="51.236%"><stop offset="0%" stop-color="#a9b1bb"/><stop offset="9%" stop-color="#61666b"/><stop offset="18%" stop-color="#696e73"/><stop offset="32%" stop-color="#7e8489"/><stop offset="49%" stop-color="#a1a7ae"/><stop offset="69%" stop-color="#d1d8e0"/><stop offset="75%" stop-color="#e2eaf2"/><stop offset="93%" stop-color="#9ba1ab"/><stop offset="100%" stop-color="#767b82"/></linearGradient><linearGradient id="k" x1="85.348%" x2="14.621%" y1="14.621%" y2="85.348%"><stop offset="0%" stop-color="#d7dce0"/><stop offset="100%" stop-color="#737880"/></linearGradient><linearGradient id="l" x1="50%" x2="50%" y1="100.458%" y2="-.458%"><stop offset="0%" stop-color="#5c6066"/><stop offset="100%" stop-color="#f5faff"/></linearGradient><linearGradient id="m" x1="85.346%" x2="14.654%" y1="14.654%" y2="85.385%"><stop offset="0%" stop-color="#d7dce0"/><stop offset="100%" stop-color="#737880"/></linearGradient><linearGradient id="n" x1="50%" x2="50%" y1="100.596%" y2="-.556%"><stop offset="0%" stop-color="#5c6066"/><stop offset="100%" stop-color="#f5faff"/></linearGradient><linearGradient id="o" x1="50%" x2="50%" y1="103.822%" y2="-3.822%"><stop offset="0%" stop-color="#5c6066"/><stop offset="100%" stop-color="#939699"/></linearGradient><linearGradient id="p" x1="50%" x2="50%" y1="103.289%" y2="-3.07%"><stop offset="0%" stop-color="#5c6066"/><stop offset="100%" stop-color="#f5faff"/></linearGradient><linearGradient id="q" x1="50%" x2="50%" y1="103.289%" y2="-3.289%"><stop offset="0%" stop-color="#5c6066"/><stop offset="100%" stop-color="#f5faff"/></linearGradient><linearGradient id="r" x1="50%" x2="50%" y1="100%" y2="0%"><stop offset="0%" stop-color="#a9b1bb"/><stop offset="9%" stop-color="#61666b"/><stop offset="18%" stop-color="#696e73"/><stop offset="32%" stop-color="#7e8489"/><stop offset="49%" stop-color="#a1a7ae"/><stop offset="69%" stop-color="#d1d8e0"/><stop offset="75%" stop-color="#e2eaf2"/><stop offset="93%" stop-color="#9ba1ab"/><stop offset="100%" stop-color="#767b82"/></linearGradient><linearGradient id="s" x1="50%" x2="50%" y1="100%" y2="0%"><stop offset="0%" stop-color="#a9b1bb"/><stop offset="9%" stop-color="#61666b"/><stop offset="18%" stop-color="#696e73"/><stop offset="32%" stop-color="#7e8489"/><stop offset="49%" stop-color="#a1a7ae"/><stop offset="69%" stop-color="#d1d8e0"/><stop offset="75%" stop-color="#e2eaf2"/><stop offset="93%" stop-color="#9ba1ab"/><stop offset="100%" stop-color="#767b82"/></linearGradient><linearGradient id="t" x1="50.021%" x2="50.021%" y1="99.644%" y2="0%"><stop offset="0%" stop-color="#a9b1bb"/><stop offset="9%" stop-color="#61666b"/><stop offset="18%" stop-color="#696e73"/><stop offset="32%" stop-color="#7e8489"/><stop offset="49%" stop-color="#a1a7ae"/><stop offset="69%" stop-color="#d1d8e0"/><stop offset="75%" stop-color="#e2eaf2"/><stop offset="93%" stop-color="#9ba1ab"/><stop offset="100%" stop-color="#767b82"/></linearGradient><linearGradient id="u" x1="50.021%" x2="50.021%" y1="100%" y2="0%"><stop offset="0%" stop-color="#a9b1bb"/><stop offset="9%" stop-color="#61666b"/><stop offset="18%" stop-color="#696e73"/><stop offset="32%" stop-color="#7e8489"/><stop offset="49%" stop-color="#a1a7ae"/><stop offset="69%" stop-color="#d1d8e0"/><stop offset="75%" stop-color="#e2eaf2"/><stop offset="93%" stop-color="#9ba1ab"/><stop offset="100%" stop-color="#767b82"/></linearGradient><linearGradient id="v" x1="49.991%" x2="49.991%" y1="100%" y2="0%"><stop offset="0%" stop-color="#a9b1bb"/><stop offset="9%" stop-color="#61666b"/><stop offset="18%" stop-color="#696e73"/><stop offset="32%" stop-color="#7e8489"/><stop offset="49%" stop-color="#a1a7ae"/><stop offset="69%" stop-color="#d1d8e0"/><stop offset="75%" stop-color="#e2eaf2"/><stop offset="93%" stop-color="#9ba1ab"/><stop offset="100%" stop-color="#767b82"/></linearGradient><linearGradient id="w" x1="50.012%" x2="50.012%" y1="100%" y2="0%"><stop offset="0%" stop-color="#a9b1bb"/><stop offset="9%" stop-color="#61666b"/><stop offset="18%" stop-color="#696e73"/><stop offset="32%" stop-color="#7e8489"/><stop offset="49%" stop-color="#a1a7ae"/><stop offset="69%" stop-color="#d1d8e0"/><stop offset="75%" stop-color="#e2eaf2"/><stop offset="93%" stop-color="#9ba1ab"/><stop offset="100%" stop-color="#767b82"/></linearGradient><linearGradient id="x" x1="0%" x2="100%" y1="50%" y2="50%"><stop offset="0%" stop-color="#a9b1bb"/><stop offset="9%" stop-color="#61666b"/><stop offset="18%" stop-color="#696e73"/><stop offset="32%" stop-color="#7e8489"/><stop offset="49%" stop-color="#a1a7ae"/><stop offset="69%" stop-color="#d1d8e0"/><stop offset="75%" stop-color="#e2eaf2"/><stop offset="93%" stop-color="#9ba1ab"/><stop offset="100%" stop-color="#767b82"/></linearGradient><linearGradient id="y" x1="50%" x2="50%" y1="100%" y2="0%"><stop offset="0%" stop-color="#737880"/><stop offset="100%" stop-color="#d7dce0"/></linearGradient><linearGradient id="z" x1="50%" x2="50%" y1="100%" y2="0%"><stop offset="0%" stop-color="#5c6066"/><stop offset="100%" stop-color="#f5faff"/></linearGradient><linearGradient id="A" x1="63.565%" x2="13.516%" y1="56.195%" y2="33.254%"><stop offset="0%" stop-color="#e8f0fd" stop-opacity="0"/><stop offset="16%" stop-color="#e8f0fd" stop-opacity=".01"/><stop offset="29%" stop-color="#e8f0fd" stop-opacity=".05"/><stop offset="41%" stop-color="#e9f0fd" stop-opacity=".12"/><stop offset="53%" stop-color="#e9f1fd" stop-opacity=".21"/><stop offset="63%" stop-color="#eaf1fe" stop-opacity=".33"/><stop offset="74%" stop-color="#ebf1fe" stop-opacity=".48"/><stop offset="84%" stop-color="#ecf2fe" stop-opacity=".66"/><stop offset="94%" stop-color="#edf3ff" stop-opacity=".85"/><stop offset="100%" stop-color="#eef3ff"/></linearGradient><linearGradient id="B" x1="49.236%" x2="49.236%" y1="100.006%" y2=".001%"><stop offset="0%" stop-color="#17181a"/><stop offset="100%" stop-color="#929699"/></linearGradient><linearGradient id="C" x1="48.473%" x2="48.473%" y1="100.023%" y2=".001%"><stop offset="0%" stop-color="#17181a"/><stop offset="100%" stop-color="#929699"/></linearGradient><linearGradient id="D" x1="48.092%" x2="48.092%" y1="100.036%" y2="0%"><stop offset="0%" stop-color="#17181a"/><stop offset="100%" stop-color="#929699"/></linearGradient><linearGradient id="E" x1="0%" x2="101.471%" y1="50%" y2="50%"><stop offset="0%" stop-color="#a9b1bb"/><stop offset="9%" stop-color="#61666b"/><stop offset="18%" stop-color="#696e73"/><stop offset="32%" stop-color="#7e8489"/><stop offset="49%" stop-color="#a1a7ae"/><stop offset="69%" stop-color="#d1d8e0"/><stop offset="75%" stop-color="#e2eaf2"/><stop offset="93%" stop-color="#9ba1ab"/><stop offset="100%" stop-color="#767b82"/></linearGradient><linearGradient id="F" x1="0%" x2="100%" y1="50%" y2="50%"><stop offset="0%" stop-color="#a9b1bb"/><stop offset="9%" stop-color="#61666b"/><stop offset="18%" stop-color="#696e73"/><stop offset="32%" stop-color="#7e8489"/><stop offset="49%" stop-color="#a1a7ae"/><stop offset="69%" stop-color="#d1d8e0"/><stop offset="75%" stop-color="#e2eaf2"/><stop offset="93%" stop-color="#9ba1ab"/><stop offset="100%" stop-color="#767b82"/></linearGradient></defs><g fill="none" fill-rule="evenodd" transform="translate(.01 .446)"><path stroke="#000" stroke-linecap="round" stroke-width=".25" d="M117.51 68.61S115 93.83 117 97.76s6.27 4.75 6.86 12.55"/><path fill="url(#a)" fill-rule="nonzero" d="M48.09 90.92h41.28v48.96H48.09z" transform="rotate(90 68.73 115.4)"/><path fill="url(#b)" fill-rule="nonzero" d="M67.485 68.555h3.28v138.25h-3.28z" transform="rotate(90 69.125 137.68)"/><path fill="url(#c)" fill-rule="nonzero" d="M65.43 80.01h7.39v126.03h-7.39z" transform="rotate(90 69.125 143.025)"/><path fill="url(#d)" fill-rule="nonzero" d="M65.43 80.01h7.39v126.03h-7.39z" opacity=".5" transform="rotate(90 69.125 143.025)"/><path fill="url(#e)" fill-rule="nonzero" d="M67.485 79.225h3.28v138.25h-3.28z" transform="rotate(90 69.125 148.35)"/><path fill="url(#f)" fill-rule="nonzero" d="M22.12 25.37h93.22v62.34H22.12z" transform="rotate(90 68.73 56.54)"/><path fill="url(#g)" fill-rule="nonzero" d="M62.555-15.055h12.37v62.34h-12.37z" opacity=".1" transform="rotate(90 68.74 16.115)"/><path fill="url(#h)" fill-rule="nonzero" d="M62.545 65.795h12.37v62.34h-12.37z" opacity=".1" transform="rotate(90 68.73 96.965)"/><path fill="url(#i)" fill-rule="nonzero" d="M37.56 9.93S46.26 0 68.73 0 99.9 9.93 99.9 9.93z"/><path fill="url(#j)" fill-rule="nonzero" d="m37.56 103.15 5.42 3s2.7 1.22 25.75 1.22 25.75-1.22 25.75-1.22l5.42-3z"/><path fill="#313233" fill-rule="nonzero" d="M66.51 53.16h4.96v2.08h-4.96zm0-34.71h4.96v2.08h-4.96zM85.31 39.33v-4.96h2.08v4.96zM50.59 39.33v-4.96h2.08v4.96z"/><circle cx="68.99" cy="36.92" r="16.38" fill="url(#k)" fill-rule="nonzero" stroke="url(#l)" stroke-width=".29"/><circle cx="124.31" cy="119.05" r="12.59" fill="url(#m)" fill-rule="nonzero" stroke="url(#n)" stroke-width=".29"/><circle cx="12.59" cy="12.59" r="12.59" fill="#000" fill-rule="nonzero" opacity=".5" transform="translate(111.72 106.46)"/><circle cx="69.19" cy="92.35" r="1.57" fill="#313233" fill-rule="nonzero" stroke="url(#o)" stroke-width=".25"/><circle cx="69.19" cy="81.38" r="2.28" fill="#b3b8bc" fill-rule="nonzero" stroke="url(#p)" stroke-width=".29"/><circle cx="69.19" cy="69.57" r="2.28" fill="#b3b8bc" fill-rule="nonzero" stroke="url(#q)" stroke-width=".29"/><circle cx="82.94" cy="92.35" r="1.57" fill="#313233" fill-rule="nonzero" stroke="url(#o)" stroke-width=".25"/><path fill="url(#r)" fill-rule="nonzero" d="M99.9 19.49h26.34v2.81H99.9z"/><path fill="url(#s)" fill-rule="nonzero" d="M107.74 17.48h7.68v6.83h-7.68z"/><path fill="url(#t)" fill-rule="nonzero" d="M99.9 90.95h23.35v2.81H99.9z"/><path stroke="#000" stroke-linecap="round" stroke-width=".25" d="M113 69.3s-2.06 20.16 2.35 20.16c3.56 0 5.37 1.32 5.87 2.06.84 1.26 3.12 1.11 3.12 1.41"/><path fill="url(#u)" fill-rule="nonzero" d="M99.9 76.29h23.35v2.81H99.9z"/><path fill="url(#v)" fill-rule="nonzero" d="M72.98 118.71h54.89v4.99H72.98z"/><path fill="url(#w)" fill-rule="nonzero" d="M81.535 91.525h86.22v2.81h-86.22z" transform="rotate(90 124.645 92.93)"/><path fill="url(#x)" fill-rule="nonzero" d="M77.79 118.72v-.31h1.68v.31a1.3 1.3 0 0 1-.84.33 1.28 1.28 0 0 1-.84-.33"/><path fill="url(#y)" fill-rule="nonzero" d="M99.9 42.09h23.94v27.48H99.9z"/><path fill="url(#z)" fill-rule="nonzero" d="M123.59 42.34v27h-23.44v-27zm.25-.25H99.9v27.48h23.94z"/><path fill="#252628" fill-rule="nonzero" d="M106.77 47.48h10.22v4.68h-10.22z"/><path fill="url(#A)" fill-rule="nonzero" d="M116.98 47.48h-10.21v4.68z"/><circle cx="107.67" cy="62.87" r="1.31" fill="#d3441e" fill-rule="nonzero"/><path fill="url(#B)" fill-rule="nonzero" d="M107.67 61.81a1.06 1.06 0 1 1 0 2.12 1.06 1.06 0 0 1 0-2.12m0-.25a1.31 1.31 0 1 0 1.33 1.31 1.3 1.3 0 0 0-1.31-1.31z"/><circle cx="111.65" cy="62.87" r="1.31" fill="#d3a91e" fill-rule="nonzero"/><path fill="url(#C)" fill-rule="nonzero" d="M111.65 61.81a1.06 1.06 0 1 1 0 2.12 1.06 1.06 0 0 1 0-2.12m0-.25a1.31 1.31 0 1 0 .03 0z"/><circle cx="115.64" cy="62.87" r="1.31" fill="#0979ba" fill-rule="nonzero"/><path fill="url(#D)" fill-rule="nonzero" d="M115.64 61.81a1.06 1.06 0 1 1 0 2.12 1.06 1.06 0 0 1 0-2.12m0-.25a1.31 1.31 0 1 0 .05 0z"/><path stroke="#000" stroke-linecap="round" stroke-width=".25" d="M123.25 22.3a48.6 48.6 0 0 0 0 8.79c1.1 7.25 2.81 18.73.59 28.28"/><path fill="url(#E)" fill-rule="nonzero" d="M78.28 116.95h1v1.46h-1z"/><path fill="url(#F)" fill-rule="nonzero" d="M77.43 116.48h2.39v1h-2.39z"/></g></svg>