<svg xmlns="http://www.w3.org/2000/svg" viewBox="0 0 125 151"><title>Doube damper(双挡板)</title><defs><linearGradient id="a" x1="0%" x2="100%" y1="50%" y2="50%"><stop offset="0%" stop-color="#767b82"/><stop offset="2%" stop-color="#9ba1ab"/><stop offset="98%" stop-color="#9ba1ab"/><stop offset="99%" stop-color="#d7dce0"/><stop offset="100%" stop-color="#767b82"/></linearGradient><linearGradient id="b" x1="50.004%" x2="50.004%" y1="100%" y2="0%"><stop offset="0%" stop-color="#767b82"/><stop offset="2%" stop-color="#9ba1ab"/><stop offset="98%" stop-color="#9ba1ab"/><stop offset="99%" stop-color="#d7dce0"/><stop offset="100%" stop-color="#767b82"/></linearGradient><linearGradient id="c" x1="50.004%" x2="50.004%" y1="100%" y2="0%"><stop offset="0%" stop-color="#767b82"/><stop offset="8%" stop-color="#aab0bb"/><stop offset="9%" stop-color="#cfd7e6"/><stop offset="10%" stop-color="#b9c0cc"/><stop offset="100%" stop-color="#d0d8e6"/></linearGradient><linearGradient id="d" x1="50%" x2="50%" y1="100%" y2="0%"><stop offset="0%" stop-color="#767b82"/><stop offset="8%" stop-color="#aab0bb"/><stop offset="9%" stop-color="#cfd7e6"/><stop offset="10%" stop-color="#b9c0cc"/><stop offset="100%" stop-color="#d0d8e6"/></linearGradient><linearGradient id="e" x1="0%" x2="100.26%" y1="0%" y2="0%"><stop offset="0%" stop-color="#767b82"/><stop offset="2%" stop-color="#9ba1ab"/><stop offset="98%" stop-color="#9ba1ab"/><stop offset="99%" stop-color="#d7dce0"/><stop offset="100%" stop-color="#767b82"/></linearGradient><linearGradient id="f" x1="50.004%" x2="50.004%" y1="100.025%" y2="0%"><stop offset="0%" stop-color="#767b82"/><stop offset="8%" stop-color="#aab0bb"/><stop offset="9%" stop-color="#cfd7e6"/><stop offset="10%" stop-color="#b9c0cc"/><stop offset="100%" stop-color="#d0d8e6"/></linearGradient></defs><g fill="none" fill-rule="evenodd"><path fill="url(#a)" fill-rule="nonzero" d="M0 0h3.84v150H0z" transform="translate(.01 .446)"/><path fill="#000" fill-rule="nonzero" d="M.01 37.306h3.84v9.07H.01z" opacity=".8"/><path fill="url(#b)" fill-rule="nonzero" d="M3.84 0h117.17v5.38H3.84z" transform="translate(.01 .446)"/><path fill="url(#c)" fill-rule="nonzero" d="M3.84 21.58h117.17v39.85H3.84z" transform="translate(.01 .446)"/><path fill="url(#d)" fill-rule="nonzero" d="M6.8 36.86h111.26v4.64H6.8z" transform="translate(.01 .446)"/><path fill="url(#e)" fill-rule="nonzero" d="M121.01 0h3.84v150h-3.84z" transform="translate(.01 .446)"/><path stroke="#5b5f66" stroke-width=".15" d="M3.85 31.666h117.17"/><path fill="url(#f)" fill-rule="nonzero" d="M3.84 77.15h117.17V117H3.84z" transform="translate(.01 .446)"/><path fill="url(#d)" fill-rule="nonzero" d="M6.8 92.44h111.26v4.64H6.8z" transform="translate(.01 .446)"/><path stroke="#5b5f66" stroke-width=".15" d="M3.85 87.246h117.17"/><path fill="#000" fill-rule="nonzero" d="M121.01 37.306h3.84v9.07h-3.84zm-121 57h3.84v9.07H.01zm121 0h3.84v9.07h-3.84z" opacity=".8"/></g></svg>