<svg xmlns="http://www.w3.org/2000/svg" viewBox="0 0 90 151"><title>Electronic flowhood(电子流动罩)</title><defs><linearGradient id="a" x1="85.789%" x2="14.219%" y1="-.539%" y2="83.527%"><stop offset="0%" stop-color="#ebf0f5"/><stop offset="100%" stop-color="#b8c0cc"/></linearGradient><linearGradient id="b" x1="82.249%" x2="17.732%" y1="40.619%" y2="59.375%"><stop offset="0%" stop-color="#abafb3"/><stop offset="100%" stop-color="#45484d"/></linearGradient><linearGradient id="c" x1="81.5%" x2="18.5%" y1="40.473%" y2="63.028%"><stop offset="0%" stop-color="#abafb3"/><stop offset="100%" stop-color="#45484d"/></linearGradient><linearGradient id="d" x1="0%" x2="100%" y1="50.014%" y2="50.014%"><stop offset="0%" stop-color="#767b82"/><stop offset="2%" stop-color="#9ba1ab"/><stop offset="98%" stop-color="#9ba1ab"/><stop offset="99%" stop-color="#d7dce0"/><stop offset="100%" stop-color="#767b82"/></linearGradient><linearGradient id="e" x1="85.227%" x2="14.205%" y1="14.205%" y2="85.227%"><stop offset="0%" stop-color="#9ba1ab"/><stop offset="0%" stop-color="#abb1ba"/><stop offset="9%" stop-color="#abb1ba"/><stop offset="46%" stop-color="#d7dce0"/><stop offset="100%" stop-color="#a9b1bb"/></linearGradient><linearGradient id="f" x1="84.793%" x2="14.204%" y1="86.259%" y2="15.482%"><stop offset="0%" stop-color="#5c6066"/><stop offset="100%" stop-color="#cfdae6"/></linearGradient><linearGradient id="g" x1="-.276%" x2="99.724%" y1="49.448%" y2="49.448%"><stop offset="0%" stop-color="#ebf0f5"/><stop offset="100%" stop-color="#b8c0cc"/></linearGradient></defs><g fill="none" fill-rule="nonzero" transform="translate(.01 .446)"><path fill="url(#a)" d="M72 108.23H17.98L0 2.54h89.98z"/><path fill="url(#b)" d="M17.98 108.24h53.97v15.69H17.98z"/><path fill="#252628" d="M17.98 140.08h3.39V150h-3.39zm50.57 0h3.39V150h-3.39z"/><path fill="url(#c)" d="M78.5 147.93H11.42l6.56-24.01h53.96z"/><path fill="url(#d)" d="M31.01 109.64h27.96v35.99H31.01z"/><path fill="#252628" d="M32.86 125.22h24.26v20.41H32.86zm0-13.55h24.26v10.88H32.86z"/><rect width="19.23" height="8.31" x="35.44" y="112.96" fill="#b7c1cd" rx=".5"/><rect width="18.53" height="5.36" x="35.73" y="126.51" fill="#b7c1cd" rx=".5"/><rect width="15.84" height="3.25" x="37.07" y="127.56" fill="#a3b372" rx=".38"/><path fill="#646e46" d="M52.54 127.69a.25.25 0 0 1 .25.25v2.5a.25.25 0 0 1-.25.25H37.45a.25.25 0 0 1-.25-.25v-2.5a.25.25 0 0 1 .25-.25zm0-.25H37.45a.5.5 0 0 0-.5.5v2.5a.5.5 0 0 0 .5.5h15.09a.5.5 0 0 0 .5-.5v-2.5a.5.5 0 0 0-.5-.5"/><rect width="18.53" height="8.37" x="35.73" y="133.65" fill="#b7c1cd" rx=".5"/><circle cx="34.1" cy="112.96" r="1" fill="url(#e)" stroke="#505458" stroke-width=".1"/><circle cx="34.1" cy="121.27" r="1" fill="url(#e)" stroke="#505458" stroke-width=".1"/><circle cx="55.91" cy="112.96" r="1" fill="url(#e)" stroke="#505458" stroke-width=".1"/><circle cx="55.91" cy="121.27" r="1" fill="url(#e)" stroke="#505458" stroke-width=".1"/><path fill="#5c6066" d="M0 0h89.98v2.54H0z"/><path fill="#252628" d="M46.59 115.86a2.27 2.27 0 0 1 .4 2.67 2 2 0 0 1-.4.53 1.9 1.9 0 0 1-.54.4 2.26 2.26 0 0 1-2.65-3.6 2.6 2.6 0 0 1 .53-.4 2.28 2.28 0 0 1 2.66.4"/><path fill="url(#f)" d="M45 115.45a2 2 0 0 1 1.43.59 2 2 0 0 1 .36 2.37 1.9 1.9 0 0 1-.35.48 2 2 0 0 1-.49.35 2.05 2.05 0 0 1-.94.24 2 2 0 0 1-1.77-3 1.6 1.6 0 0 1 .35-.48q.212-.21.47-.36a2 2 0 0 1 .94-.23m0-.25a2.34 2.34 0 0 0-1.06.26 2.6 2.6 0 0 0-.53.4 2.26 2.26 0 0 0 0 3.2 2.23 2.23 0 0 0 2.66.4 1.9 1.9 0 0 0 .54-.4 2 2 0 0 0 .4-.53 2.26 2.26 0 0 0-2-3.33z"/><path fill="url(#g)" d="m44.11 115.65 2.69 2.69a2.6 2.6 0 0 1-.4.53 2.3 2.3 0 0 1-.54.4l-2.68-2.68q.16-.3.4-.54a2.6 2.6 0 0 1 .53-.4"/><path fill="#252628" d="M39 114.67h3.2v1.24H39zm8.63 0h3.2v1.24h-3.2zm-8.54 21.91h2.52v2.52h-2.52zm3.07 0h2.52v2.52h-2.52zm3.08 0h2.52v2.52h-2.52zm3.07 0h2.52v2.52h-2.52z" opacity=".6"/></g></svg>