<svg xmlns="http://www.w3.org/2000/svg" viewBox="0 0 120 151"><title>Expansion joint(伸缩缝)</title><defs><linearGradient id="a" x1="50%" x2="50%" y1="100%" y2="0%"><stop offset="0%" stop-color="#7a8088"/><stop offset="9%" stop-color="#2d2f33"/><stop offset="15%" stop-color="#35373b"/><stop offset="24%" stop-color="#4a4d51"/><stop offset="35%" stop-color="#6d7176"/><stop offset="48%" stop-color="#9da3a9"/><stop offset="62%" stop-color="#d7dfe6"/><stop offset="93%" stop-color="#6d7177"/><stop offset="100%" stop-color="#5c6067"/></linearGradient><linearGradient id="b" x1="49.897%" x2="49.897%" y1="100%" y2="0%"><stop offset="0%" stop-color="#7a8088"/><stop offset="9%" stop-color="#2d2f33"/><stop offset="15%" stop-color="#35373b"/><stop offset="24%" stop-color="#4a4d51"/><stop offset="35%" stop-color="#6d7176"/><stop offset="48%" stop-color="#9da3a9"/><stop offset="62%" stop-color="#d7dfe6"/><stop offset="93%" stop-color="#6d7177"/><stop offset="100%" stop-color="#5c6067"/></linearGradient><linearGradient id="c" x1="49.988%" x2="49.988%" y1="100%" y2=".006%"><stop offset="0%" stop-color="#7a8088"/><stop offset="9%" stop-color="#2d2f33"/><stop offset="15%" stop-color="#35373b"/><stop offset="24%" stop-color="#4a4d51"/><stop offset="35%" stop-color="#6d7176"/><stop offset="48%" stop-color="#9da3a9"/><stop offset="62%" stop-color="#d7dfe6"/><stop offset="93%" stop-color="#6d7177"/><stop offset="100%" stop-color="#5c6067"/></linearGradient><linearGradient id="d" x1="49.974%" x2="49.974%" y1="100%" y2="0%"><stop offset="0%" stop-color="#a9b1bb"/><stop offset="9%" stop-color="#61666b"/><stop offset="18%" stop-color="#696e73"/><stop offset="32%" stop-color="#7e8489"/><stop offset="49%" stop-color="#a1a7ae"/><stop offset="69%" stop-color="#d1d8e0"/><stop offset="75%" stop-color="#e2eaf2"/><stop offset="93%" stop-color="#9ba1ab"/><stop offset="100%" stop-color="#767b82"/></linearGradient><linearGradient id="e" x1="50.026%" x2="50.026%" y1="0%" y2="0%"><stop offset="0%" stop-color="#a9b1bb"/><stop offset="9%" stop-color="#61666b"/><stop offset="18%" stop-color="#696e73"/><stop offset="32%" stop-color="#7e8489"/><stop offset="49%" stop-color="#a1a7ae"/><stop offset="69%" stop-color="#d1d8e0"/><stop offset="75%" stop-color="#e2eaf2"/><stop offset="93%" stop-color="#9ba1ab"/><stop offset="100%" stop-color="#767b82"/></linearGradient><linearGradient id="f" x1="50%" x2="50%" y1="100%" y2="0%"><stop offset="0%" stop-color="#7a8088"/><stop offset="9%" stop-color="#2d2f33"/><stop offset="15%" stop-color="#35373b"/><stop offset="24%" stop-color="#4a4d51"/><stop offset="35%" stop-color="#6d7176"/><stop offset="48%" stop-color="#9da3a9"/><stop offset="62%" stop-color="#d7dfe6"/><stop offset="93%" stop-color="#6d7177"/><stop offset="100%" stop-color="#5c6067"/></linearGradient></defs><g fill="none" fill-rule="nonzero"><path fill="url(#a)" d="M0 33.3h9.68v83.4H0z" transform="translate(.01 .446)"/><path fill="url(#b)" d="M110.22 33.3h9.68v83.4h-9.68z" transform="translate(.01 .446)"/><path fill="url(#c)" d="M81.4 36.54v76.92s-.57.19-1.62.48A75.6 75.6 0 0 1 60 116.7a75.7 75.7 0 0 1-19.81-2.76c-1.06-.29-1.62-.48-1.62-.48V36.54s.55-.23 1.62-.55A68.2 68.2 0 0 1 60 33.3 68 68 0 0 1 79.78 36c1.07.31 1.62.54 1.62.54" transform="translate(.01 .446)"/><path fill="url(#d)" d="M9.75 0h18.93v150H9.75z" transform="translate(.01 .446)"/><path fill="url(#e)" d="M91.28 0h18.93v150H91.28z" transform="translate(.01 .446)"/><path fill="url(#f)" d="m38.56 113.46-9.88-4.04V40.58l9.88-4.04z" transform="translate(.01 .446)"/><path fill="url(#f)" d="m81.4 113.46 9.88-4.04V40.58l-9.88-4.04z" transform="translate(.01 .446)"/><path fill="#000" d="M40.19 36.446v77.95c-1.06-.29-1.62-.48-1.62-.48v-76.93s.55-.23 1.62-.54m41.22.54v76.92s-.57.19-1.62.48v-77.94c1.07.31 1.62.54 1.62.54" opacity=".3"/></g></svg>