<svg xmlns="http://www.w3.org/2000/svg" viewBox="0 0 151 113"><title>Fan（风机）</title><defs><linearGradient id="a" x1="73.216%" x2="30.294%" y1="96.538%" y2="1.108%"><stop offset="0%" stop-color="#a9b1bb"/><stop offset="9%" stop-color="#61666b"/><stop offset="18%" stop-color="#696e73"/><stop offset="32%" stop-color="#7e8489"/><stop offset="49%" stop-color="#a1a7ae"/><stop offset="69%" stop-color="#d1d8e0"/><stop offset="75%" stop-color="#e2eaf2"/><stop offset="93%" stop-color="#9ba1ab"/><stop offset="100%" stop-color="#767b82"/></linearGradient><linearGradient id="b" x1="71.111%" x2="37.375%" y1="96.16%" y2="-4.257%"><stop offset="0%" stop-color="#a9b1bb"/><stop offset="9%" stop-color="#61666b"/><stop offset="18%" stop-color="#696e73"/><stop offset="32%" stop-color="#7e8489"/><stop offset="49%" stop-color="#a1a7ae"/><stop offset="69%" stop-color="#d1d8e0"/><stop offset="75%" stop-color="#e2eaf2"/><stop offset="93%" stop-color="#9ba1ab"/><stop offset="100%" stop-color="#767b82"/></linearGradient><linearGradient id="c" x1="50.5%" x2="45.5%" y1="53.5%" y2="46.5%"><stop offset="0%" stop-color="#a9b1bb"/><stop offset="9%" stop-color="#61666b"/><stop offset="18%" stop-color="#696e73"/><stop offset="32%" stop-color="#7e8489"/><stop offset="49%" stop-color="#a1a7ae"/><stop offset="69%" stop-color="#d1d8e0"/><stop offset="75%" stop-color="#e2eaf2"/><stop offset="93%" stop-color="#9ba1ab"/><stop offset="100%" stop-color="#767b82"/></linearGradient><linearGradient id="d" x1="32.756%" x2="67.236%" y1="57.895%" y2="42.11%"><stop offset="0%" stop-color="#d7dce0"/><stop offset="100%" stop-color="#8a9099"/></linearGradient></defs><g fill="none" fill-rule="evenodd"><g fill-rule="nonzero"><path fill="#fff" d="m150.01 65.496-74.75 43.44L.03 65.496l74.75-43.44z"/><path fill="#7a8799" d="m150.01 65.496-.02 3.55-74.75 43.44.02-3.55z"/><path fill="#c3ccd9" d="m75.26 108.936-.02 3.55L.01 69.046l.02-3.55z"/></g><g fill-rule="nonzero"><path fill="#003899" d="m74.99 66.136 4.58 19.18-7.64-4.41-1.98-17.68z"/><path fill="#1461cc" d="m74.99 66.136 5.33-3.1 4.57 19.19-5.32 3.09z"/><path fill="#dcdcdc" d="m69.95 63.226 5.33-3.1 5.04 2.91-5.33 3.1z"/></g><g fill-rule="nonzero"><path fill="#003899" d="m110.27 46.686 4.58 19.18-7.64-4.4-1.98-17.69z"/><path fill="#1461cc" d="m110.27 46.686 5.33-3.1 4.57 19.19-5.32 3.09z"/><path fill="#dcdcdc" d="m105.23 43.776 5.33-3.1 5.04 2.91-5.33 3.1z"/></g><g fill-rule="nonzero" transform="translate(44.763)"><ellipse cx="62.951" cy="26.923" fill="#898989" rx="13.49" ry="23.3" transform="rotate(-30.16 62.951 26.923)"/><path fill="#858585" d="m68.407 50.686 6.24-3.62a7.7 7.7 0 0 1-1.33.61l-6.24 3.63a7.7 7.7 0 0 0 1.33-.62"/><path fill="#8a8a8a" d="m67.077 51.306 6.24-3.63a7.4 7.4 0 0 1-1.16.32l-6.24 3.63a9 9 0 0 0 1.16-.32"/><path fill="#8f8f8f" d="m65.917 51.626 6.24-3.63c-.31.06-.63.11-1 .14l-6.24 3.63c.32 0 .64-.08 1-.14"/><path fill="#949494" d="m64.967 51.766 6.28-3.63h-.84l-6.25 3.63h.85"/><path fill="#999" d="m64.117 51.806 6.25-3.63h-.8l-6.24 3.63z"/><path fill="#9e9e9e" d="m63.327 51.776 6.24-3.63c-.24 0-.48 0-.73-.07l-6.24 3.63z"/><path fill="#a3a3a3" d="m62.597 51.706 6.24-3.63-.71-.12-6.24 3.63z"/><path fill="#a8a8a8" d="m61.887 51.586 6.24-3.63a9 9 0 0 1-.69-.15l-6.19 3.64.69.15"/><path fill="#adadad" d="m61.247 51.446 6.24-3.63-.67-.19-6.25 3.63z"/><path fill="#b3b3b3" d="m60.517 51.246 6.25-3.63c-.23-.06-.45-.14-.67-.22l-6.25 3.63z"/><path fill="#b8b8b8" d="m59.847 51.026 6.25-3.58c-.22-.07-.44-.16-.67-.25l-6.24 3.63.66.25"/><path fill="#bdbdbd" d="m59.187 50.776 6.24-3.63c-.22-.08-.44-.18-.66-.28l-6.24 3.63z"/><path fill="#c2c2c2" d="m58.527 50.496 6.24-3.63-.67-.31-6.25 3.62z"/><path fill="#c7c7c7" d="m57.847 50.176 6.25-3.62-.68-.36-6.24 3.63z"/><path fill="#ccc" d="m57.177 49.826 6.24-3.63-.23-.12-.46-.27-6.24 3.64.45.26.24.13"/><path fill="#d1d1d1" d="m56.487 49.446 6.24-3.63c-.23-.13-.47-.27-.69-.42l-6.25 3.63z"/><path fill="#d6d6d6" d="m55.787 49.016 6.25-3.63-.71-.47-6.24 3.63z"/><path fill="#dbdbdb" d="m55.087 48.546 6.24-3.63-.71-.5-6.24 3.63z"/><path fill="#e0e0e0" d="m54.377 48.046 6.24-3.6c-.25-.18-.49-.37-.73-.56l-6.24 3.56c.24.19.48.38.73.56"/><path fill="#e6e6e6" d="m53.647 47.446 6.24-3.63c-.25-.19-.49-.39-.73-.59l-6.24 3.62c.24.21.48.41.73.6"/><path fill="#ebebeb" d="m52.917 46.886 6.24-3.62-.74-.65-6.24 3.63c.24.22.49.43.74.64"/><path fill="#f0f0f0" d="m52.177 46.246 6.24-3.63-.72-.67-6.24 3.63z"/><path fill="#f5f5f5" d="m51.457 45.576 6.24-3.63-.7-.69-6.24 3.62c.23.24.46.47.7.7"/><path fill="#fafafa" d="m50.757 44.876 6.24-3.62c-.23-.23-.45-.47-.67-.71l-6.25 3.63z"/><path fill="#fff" d="m50.077 44.176 6.25-3.63c-.22-.23-.44-.47-.65-.71l-6.24 3.61c.21.25.43.49.64.72"/><path fill="#fff" d="m49.437 43.446 6.24-3.62-.64-.75-6.24 3.63c.21.25.42.5.64.74"/><path fill="#fff" d="m48.797 42.716 6.24-3.63-.63-.78-6.24 3.63q.3.39.63.78"/><path fill="#fff" d="m48.167 41.936 6.24-3.63c-.25-.31-.49-.63-.73-1l-6.24 3.63z"/><path fill="#fff" d="m47.437 40.986 6.24-3.63c-.34-.47-.68-.95-1-1.44l-6.24 3.62c.33.49.66 1 1 1.45"/><path fill="#fff" d="m46.427 39.536 6.24-3.62c-.46-.69-.91-1.4-1.33-2.12l-6.24 3.65c.42.72.86 1.42 1.33 2.11"/><path fill="#fff" d="m45.097 37.446 6.24-3.63c-.28-.47-.54-1-.8-1.43l-6.24 3.63c.26.48.52 1 .8 1.43m-.8-1.45 6.24-3.63-.47-.92-6.24 3.63.47.91"/><path fill="#fff" d="m43.827 35.086 6.24-3.64c-.14-.29-.29-.59-.42-.88l-6.25 3.62c.14.3.29.59.43.89"/><path fill="#fff" d="m43.397 34.196 6.25-3.62c-.13-.27-.25-.53-.37-.8l-6.24 3.67.36.79m-.36-.79 6.21-3.67-.34-.79-6.24 3.62c.11.27.23.54.34.8"/><path fill="#fafafa" d="m42.697 32.606 6.24-3.62-.32-.8-6.24 3.63c.1.26.21.53.32.79"/><path fill="#f5f5f5" d="m42.377 31.816 6.24-3.63-.3-.81-6.24 3.63z"/><path fill="#f0f0f0" d="m42.077 31.006 6.24-3.63c-.1-.28-.2-.56-.29-.84l-6.25 3.63z"/><path fill="#ebebeb" d="m41.777 30.166 6.25-3.63c-.1-.29-.19-.57-.28-.85l-6.24 3.62z"/><path fill="#e6e6e6" d="m41.507 29.306 6.24-3.62c-.09-.29-.17-.59-.25-.88l-6.25 3.64c.08.29.16.58.25.87"/><path fill="#e0e0e0" d="m41.247 28.446 6.24-3.63c-.08-.29-.16-.58-.23-.87l-6.24 3.63c.07.29.14.58.23.87"/><path fill="#dbdbdb" d="m41.027 27.566 6.22-3.63-.21-.87-6.24 3.63c.07.29.13.58.21.87"/><path fill="#d6d6d6" d="m40.817 26.696 6.24-3.63c-.06-.29-.12-.57-.17-.86l-6.24 3.63c0 .28.11.57.17.86"/><path fill="#d1d1d1" d="m40.647 25.836 6.24-3.63c0-.28-.1-.56-.14-.84l-6.25 3.63z"/><path fill="#ccc" d="m40.497 24.996 6.25-3.63c0-.28-.09-.55-.12-.83l-6.24 3.63c0 .28.07.55.11.83"/><path fill="#c7c7c7" d="m40.387 24.166 6.24-3.63q-.06-.399-.09-.81l-6.24 3.63q0 .4.09.81"/><path fill="#c2c2c2" d="m40.297 23.356 6.24-3.63c0-.27-.05-.54-.07-.81l-6.22 3.63c0 .27 0 .54.07.81"/><path fill="#bdbdbd" d="m40.247 22.546 6.24-3.63v-.8l-6.3 3.63v.8"/><path fill="#b8b8b8" d="m40.187 21.746 6.25-3.63v-.4a3 3 0 0 1 0-.4l-6.26 3.63v.8"/><path fill="#b3b3b3" d="m40.177 20.946 6.25-3.63v-.79l-6.18 3.63v.79"/><path fill="#adadad" d="m40.247 20.156 6.24-3.63v-.78l-6.24 3.62z"/><path fill="#a8a8a8" d="m40.247 19.366 6.24-3.62c0-.27.05-.53.08-.78l-6.24 3.62c0 .26-.06.52-.08.78"/><path fill="#a3a3a3" d="m40.327 18.586 6.24-3.62c0-.28.08-.54.12-.8l-6.24 3.62z"/><path fill="#9e9e9e" d="m40.447 17.786 6.24-3.62c0-.27.1-.54.16-.79l-6.24 3.62c-.06.26-.11.52-.16.79"/><path fill="#999" d="m40.607 16.996 6.24-3.62c.07-.29.14-.58.22-.86l-6.24 3.63c-.08.28-.15.56-.22.85"/><path fill="#949494" d="m40.827 16.146 6.24-3.63c.09-.3.19-.59.3-.88l-6.25 3.63c-.1.28-.2.58-.29.88"/><path fill="#8f8f8f" d="m41.117 15.266 6.25-3.63a9 9 0 0 1 .4-.95l-6.24 3.62c-.15.31-.28.63-.41 1"/><path fill="#8a8a8a" d="m41.527 14.306 6.24-3.62a9 9 0 0 1 .63-1.13l-6.25 3.63a12 12 0 0 0-.62 1.12"/><path fill="#858585" d="m42.147 13.186 6.25-3.63a8.4 8.4 0 0 1 2.85-2.78l-6.24 3.67a8.4 8.4 0 0 0-2.86 2.78"/><path fill="#9e9e9e" d="m29.487 65.246 3.17 1.85-.21-.13-3.14-1.83z"/><path fill="#a3a3a3" d="m29.307 65.136 3.14 1.83q-1-.57-1.89-1.23l-2.83-1.62c.52.36 1 .71 1.58 1"/><path fill="#a8a8a8" d="m27.727 64.116 2.83 1.62c-.68-.47-1.35-1-2-1.53l-2.5-1.37c.54.45 1.1.88 1.67 1.28"/><path fill="#adadad" d="m26.057 62.836 2.5 1.37c-.78-.64-1.55-1.33-2.29-2.06l-2.13-1c.62.61 1.26 1.19 1.92 1.73"/><path fill="#b3b3b3" d="m24.137 61.106 2.13 1a41 41 0 0 1-3.12-3.41l-1.62-.48a36 36 0 0 0 2.61 2.85"/><path fill="#b8b8b8" d="m21.527 58.256 1.62.48a47.4 47.4 0 0 1-5.52-8.45l-.71.91a39.7 39.7 0 0 0 4.61 7.06"/><path fill="#b3b3b3" d="m16.917 51.196.71-.91a46 46 0 0 1-2-4.37l-.38 1.62a37 37 0 0 0 1.65 3.66"/><path fill="#adadad" d="m15.247 47.536.4-1.62c-.4-1-.75-2-1.06-3.06l-.22 2.12c.26.85.55 1.71.88 2.56"/><path fill="#a8a8a8" d="m14.387 44.976.22-2.12q-.39-1.29-.69-2.58l-.11 2.54c.16.72.36 1.44.58 2.16"/><path fill="#a3a3a3" d="m13.807 42.816.11-2.54c-.18-.79-.34-1.57-.47-2.35v2.92c.11.66.24 1.31.39 2"/><path fill="#9e9e9e" d="M13.417 40.846v-2.92c-.12-.75-.21-1.5-.28-2.24v3.29c.05.62.13 1.25.23 1.87"/><path fill="#999" d="M13.187 38.976v-3.29q-.09-1.1-.12-2.19v3.65c0 .61 0 1.22.1 1.83"/><path fill="#949494" d="M13.087 37.146v-3.7 3.72"/><path fill="#1461cc" d="M79.457 37.306v-.11a3 3 0 0 1 0-.28v-2l-.06-.76c0-.27 0-.54-.09-.82v-.4l-.06-.42a2 2 0 0 1 0-.23l-.06-.35v-.27c0-.09-.05-.24-.07-.36a3 3 0 0 1-.07-.34v-.15c0-.18-.09-.36-.13-.54l-.06-.27v-.06c-.07-.29-.14-.58-.23-.87a1 1 0 0 1-.05-.18c-.07-.22-.13-.45-.2-.67v-.12l-.1-.31c0-.14-.09-.28-.13-.42a2 2 0 0 1-.08-.23l-.12-.34c0-.09-.06-.18-.1-.27s-.09-.26-.14-.38l-.11-.3v-.13c-.1-.26-.2-.51-.31-.77-.11-.27-.23-.53-.34-.8l-.06-.12c0-.09-.08-.19-.13-.28l-.17-.39-.12-.24c-.06-.13-.12-.26-.19-.39l-.12-.25c0-.1-.1-.2-.16-.3l-.21-.41c0-.07-.07-.14-.1-.2l-.11-.19c-.19-.36-.39-.72-.59-1.07l-.1-.17a.4.4 0 0 0 0-.07c-.16-.28-.33-.54-.49-.81l-.13-.21c-.21-.34-.43-.67-.64-1l-.06-.09c-.27-.4-.55-.8-.84-1.19l-.48-.33-.11-.14-.4-.53c-.07-.09-.14-.19-.22-.28l-.09-.12c-.09-.11-.18-.23-.28-.34a4 4 0 0 0-.26-.32c0-.05-.09-.1-.13-.16l-.28-.33c-.08-.08-.15-.17-.23-.26l-.18-.2-.28-.31-.18-.21-.23-.24-.3-.31-.15-.15-.27-.27-.32-.31-.09-.07c-.1-.11-.21-.2-.32-.3l-.32-.3-.08-.07c-.12-.12-.25-.22-.37-.33l-.31-.27h-.06l-.54-.47-.19-.16c-.24-.2-.48-.38-.73-.56l-.17-.12-.52-.37-.09-.06-.3-.2-.38-.24-.18-.11a3 3 0 0 0-.28-.17l-.24-.15-.45-.26-.24-.13-.45-.18-.18-.1-.68-.32-.18-.08-.44-.19h-.13l-.26-.1-.27-.1-.22-.07-.28-.09-.17-.06-.29-.07-.28-.08h-.11l-.36-.08-.27-.06h-.06l-.38-.07-.29-.05h-2.79l-.53.08h-.24l-.37.1-.25.08-.25.07h-.08l-.43.17-.38.02c-.21.1-.41.21-.61.32l-6.24 3.68q.295-.177.61-.32l.2-.09.43-.22.33-.11.25-.08.42-.09.2-.09.58-.1h3.11l.44.08q.136.023.27.06a4 4 0 0 1 .47.11l.28.07.46.14.28.09.48.17.27.1q.287.105.56.24l.19.07.76.36.17.09.69.37c.24.13.47.27.7.41l.28.17.52.33.29.24.61.43.16.12c.27.19.52.39.78.59l.19.15.58.48.31.27.45.4.32.29.43.41.32.31c.14.14.28.28.41.43s.2.2.3.31l.42.44.28.32.41.46.28.33.39.48c.09.11.19.22.28.34s.2.27.31.4l.4.53.22.3c.29.39.57.78.84 1.19l.08.12c.22.33.44.66.65 1q.06.109.13.21l.49.8.13.24q.32.54.6 1.08l.21.38.21.42c.1.18.19.37.28.55l.19.39.29.62c0 .1.09.19.13.29.14.3.27.61.4.92l.36.9c0 .1.07.2.11.29l.24.65.12.35.21.65.1.31.24.79a1 1 0 0 0 0 .18c.08.32.17.64.25 1l.06.27c.06.23.11.46.16.69s0 .23.07.34l.12.63.06.34.09.65v.3c0 .31.07.62.1.93 0 .3.05.6.06.89v1.88a3 3 0 0 0 0 .28v.78a.3.3 0 0 0 0 .1l-.09.85v.3c0 .1 0 .36-.08.54s0 .23-.07.35-.06.3-.1.45l-.12.47a4 4 0 0 1-.1.35c-.07.24-.14.46-.22.68v.15c-.11.29-.24.58-.36.85s-.12.25-.19.37a2 2 0 0 1-.12.23c-.08.15-.16.3-.25.44l-.09.15-.36.52-.1.14-.3.36-.12.14a8 8 0 0 1-.82.8l-.13.1a4 4 0 0 1-.36.27.7.7 0 0 1-.14.1 5 5 0 0 1-.5.32l6.24-3.62.5-.32.14-.1.36-.27.13-.11.45-.4c.13-.13.25-.27.37-.41a1.4 1.4 0 0 0 .12-.13c.11-.12.2-.25.3-.37a2 2 0 0 1 .1-.13c.12-.17.24-.33.35-.5l.09-.16.26-.43c0-.08.07-.16.11-.23l.15-.29a.4.4 0 0 1 0-.09c.13-.27.25-.55.36-.85a1 1 0 0 1 0-.14c.08-.22.15-.44.22-.67v-.08c0-.09 0-.18.07-.27l.12-.47v-.11c0-.11 0-.23.07-.35s0-.23.07-.35 0-.06 0-.09 0-.3.07-.44 0-.2 0-.3v-.06c0-.26.06-.52.08-.78a.3.3 0 0 1 0-.1c.24-.2.26-.42.27-.65"/><path fill="#858585" d="M73.247 43.446v-3.66c.08 6.13-2.34 10.21-6.17 11.56l-1.17 5.92c4.58-1.62 7.47-6.49 7.38-13.82"/><path fill="#8a8a8a" d="m65.887 57.236 1.17-5.92a9 9 0 0 1-1.66.4l-1.5 6a10.7 10.7 0 0 0 2-.48"/><path fill="#8f8f8f" d="m63.897 57.716 1.5-6q-.697.09-1.4.09l-1.77 6a11.4 11.4 0 0 0 1.67-.1"/><path fill="#949494" d="m62.247 57.816 1.77-6a12 12 0 0 1-1.29-.09l-2 6q.766.102 1.54.1"/><path fill="#999" d="m60.687 57.716 2-6a11 11 0 0 1-1.22-.22l-2.22 5.95c.49.11 1 .2 1.46.26"/><path fill="#9e9e9e" d="m59.247 57.446 2.26-6a11 11 0 0 1-1.19-.32l-2.5 5.89q.703.255 1.43.43"/><path fill="#a3a3a3" d="m57.797 57.066 2.5-5.89c-.39-.12-.79-.27-1.18-.43l-2.73 5.81q.72.28 1.41.51"/><path fill="#a8a8a8" d="m56.387 56.556 2.73-5.81q-.6-.24-1.2-.54l-3 5.71c.48.24 1 .45 1.43.64"/><path fill="#adadad" d="m54.957 55.916 3-5.71c-.32-.15-.65-.32-1-.51l-.25-.14-3.2 5.58.3.17c.39.22.78.42 1.17.61"/><path fill="#b3b3b3" d="m53.487 55.136 3.2-5.58q-.63-.36-1.26-.78l-3.45 5.43c.5.32 1 .63 1.51.93"/><path fill="#b8b8b8" d="m51.977 54.206 3.45-5.43c-.44-.29-.87-.59-1.3-.92l-3.7 5.25c.51.38 1 .75 1.55 1.1"/><path fill="#bdbdbd" d="m50.427 53.106 3.7-5.25c-.46-.34-.91-.71-1.35-1.09l-4 5c.53.46 1.07.9 1.62 1.31"/><path fill="#c2c2c2" d="m48.807 51.796 4-5c-.49-.41-1-.85-1.44-1.3l-4.25 4.77c.57.55 1.14 1.07 1.72 1.56"/><path fill="#c7c7c7" d="m47.087 50.236 4.25-4.79c-.53-.51-1-1.05-1.54-1.6l-4.55 4.48c.6.66 1.21 1.3 1.84 1.91"/><path fill="#ccc" d="m45.247 48.326 4.55-4.46c-.65-.72-1.27-1.47-1.87-2.24l-4.92 4c.72.93 1.46 1.83 2.24 2.68"/><path fill="#d1d1d1" d="m43.007 45.646 4.92-4a40.4 40.4 0 0 1-3.68-5.72l-5.63 2.91a49 49 0 0 0 4.38 6.81"/><path fill="#ccc" d="m38.627 38.836 5.62-2.91c-.43-.82-.83-1.66-1.21-2.5l-5.86 2.42c.45 1 .93 2 1.45 3"/><path fill="#c7c7c7" d="m37.177 35.846 5.87-2.4c-.29-.67-.57-1.34-.82-2l-6 2c.3.8.63 1.61 1 2.4"/><path fill="#c2c2c2" d="m36.247 33.446 6-2c-.23-.61-.44-1.21-.63-1.82l-6.17 1.64c.23.73.48 1.45.75 2.18"/><path fill="#bdbdbd" d="m35.447 31.266 6.15-1.67c-.18-.57-.34-1.14-.49-1.7l-6.25 1.33c.18.68.37 1.36.59 2"/><path fill="#b8b8b8" d="m34.857 29.226 6.25-1.33c-.14-.54-.26-1.08-.37-1.61l-6.33 1c.14.64.28 1.28.45 1.92"/><path fill="#b3b3b3" d="m34.407 27.306 6.33-1c-.11-.52-.2-1-.27-1.54l-6.38.68c.09.61.2 1.22.32 1.83"/><path fill="#adadad" d="m34.087 25.446 6.38-.73q-.12-.74-.18-1.47l-6.41.44c.05.58.12 1.17.21 1.76"/><path fill="#a8a8a8" d="m33.877 23.716 6.37-.44v-1.44l-6.43.15c0 .57 0 1.15.11 1.73"/><path fill="#a3a3a3" d="m33.767 21.986 6.48-.15v-1.42l-6.43-.12v1.69"/><path fill="#9e9e9e" d="m33.757 20.296 6.43.12q0-.699.09-1.38l-6.41-.39c-.05.53-.09 1.09-.11 1.65"/><path fill="#999" d="m33.867 18.646 6.41.39c0-.47.11-.93.19-1.37l-6.37-.66c-.1.53-.17 1.08-.23 1.64"/><path fill="#949494" d="m34.097 17.006 6.37.66c.09-.48.2-.94.32-1.39l-6.31-.93a17 17 0 0 0-.38 1.66"/><path fill="#8f8f8f" d="m34.477 15.346 6.31.93q.21-.735.51-1.44l-6.22-1.22a15 15 0 0 0-.6 1.73"/><path fill="#8a8a8a" d="m35.077 13.616 6.22 1.22a11 11 0 0 1 .84-1.64l-6-1.53a13 13 0 0 0-1 1.95"/><path fill="#858585" d="m36.097 11.666 6 1.53c2.79-4.31 8.15-5.27 14.37-1.75l.38.21-3.18-1.9-.42-.25c-7.43-4.14-13.84-3-17.13 2.16M46.797 68.516l20.71-12c-.51.293-1.046.54-1.6.74l-20.66 12a9.6 9.6 0 0 0 1.59-.74"/><path fill="#8a8a8a" d="m45.247 69.256 20.7-12a9 9 0 0 1-1.39.38l-20.7 12a9 9 0 0 0 1.39-.38"/><path fill="#8f8f8f" d="m43.817 69.636 20.7-12q-.56.112-1.13.16l-20.7 12c.38 0 .76-.1 1.13-.17"/><path fill="#949494" d="m42.687 69.806 20.7-12a8 8 0 0 1-1 0l-20.7 12z"/><path fill="#999" d="m41.677 69.846 20.7-12h-1l-20.7 12z"/><path fill="#9e9e9e" d="m40.717 69.816 20.7-12-.86-.09-20.7 12z"/><path fill="#a3a3a3" d="m39.857 69.726 20.7-12c-.28 0-.57-.08-.86-.14l-20.7 12c.29.06.58.11.86.14"/><path fill="#a8a8a8" d="m38.997 69.586 20.7-12-.82-.18-20.7 12.04.82.18"/><path fill="#adadad" d="m38.177 69.446 20.7-12-.81-.22-20.7 12z"/><path fill="#b3b3b3" d="m37.367 69.186 20.7-12-.8-.26-20.7 12z"/><path fill="#b8b8b8" d="m36.567 68.926 20.7-12-.79-.3-20.7 12z"/><path fill="#bdbdbd" d="m35.777 68.626 20.7-12-.8-.34-20.7 12z"/><path fill="#c2c2c2" d="m34.977 68.286 20.7-12-.8-.38-20.7 12z"/><path fill="#c7c7c7" d="m34.177 67.906 20.7-12-.81-.46-20.7 12q.41.22.81.42"/><path fill="#ccc" d="m33.367 67.446 20.7-12-.28-.15-.54-.31-20.7 12 .55.32.28.15"/><path fill="#d1d1d1" d="m32.537 67.016 20.7-12-.82-.5-20.7 12z"/><path fill="#d6d6d6" d="m31.717 66.516 20.7-12c-.29-.18-.57-.37-.85-.56l-20.7 12c.28.19.56.38.85.56"/><path fill="#dbdbdb" d="m30.867 65.956 20.7-12-.84-.6-20.71 12z"/><path fill="#e0e0e0" d="m30.017 65.356 20.71-12-.88-.67-20.7 12z"/><path fill="#e6e6e6" d="m29.147 64.686 20.7-12-.87-.71-20.73 12 .87.71"/><path fill="#ebebeb" d="m28.247 63.976 20.7-12c-.3-.25-.59-.51-.88-.77l-20.71 12z"/><path fill="#f0f0f0" d="m27.387 63.206 20.71-12c-.3-.26-.58-.53-.87-.81l-20.7 12.05.86.8"/><path fill="#f5f5f5" d="m26.527 62.446 20.7-12-.84-.82-20.7 12 .84.83"/><path fill="#fafafa" d="m25.687 61.576 20.7-12-.8-.85-20.7 12c.26.29.53.57.8.85"/><path fill="#fff" d="m24.887 60.726 20.7-12c-.26-.28-.52-.56-.77-.85l-20.7 12c.25.29.51.57.77.85"/><path fill="#fff" d="m24.117 59.876 20.7-12c-.26-.3-.52-.59-.77-.9l-20.7 12c.25.31.51.6.77.9"/><path fill="#fff" d="m23.347 58.976 20.7-12q-.37-.45-.75-.93l-20.7 12z"/><path fill="#fff" d="m22.597 58.046 20.7-12-.87-1.13-20.7 12c.28.38.57.76.87 1.13"/><path fill="#fff" d="m21.727 56.916 20.7-12c-.41-.57-.82-1.14-1.21-1.73l-20.7 12c.39.59.8 1.16 1.21 1.73"/><path fill="#fff" d="m20.517 55.186 20.7-12c-.56-.82-1.09-1.67-1.59-2.53l-20.7 12c.5.86 1 1.71 1.59 2.53"/><path fill="#fff" d="m18.927 52.656 20.7-12a36 36 0 0 1-.95-1.71l-20.7 12c.3.58.62 1.15 1 1.71"/><path fill="#fff" d="m17.977 50.946 20.7-12c-.2-.36-.38-.72-.56-1.09l-20.71 12c.19.37.37.73.57 1.09"/><path fill="#fff" d="m17.407 49.856 20.71-12c-.18-.35-.35-.7-.52-1.05l-20.7 12 .51 1"/><path fill="#fff" d="m16.897 48.806 20.7-12c-.14-.32-.29-.63-.43-.95l-20.7 12c.14.32.29.63.43 1"/><path fill="#fff" d="m16.467 47.856 20.7-12c-.14-.32-.27-.64-.41-1l-20.7 12c.14.31.27.63.41.95"/><path fill="#fafafa" d="m16.057 46.906 20.7-12c-.13-.32-.26-.64-.38-1l-20.7 12c.12.32.25.64.38 1"/><path fill="#f5f5f5" d="m15.677 45.946 20.7-12c-.12-.32-.25-.64-.36-1l-20.7 12q.16.48.36 1"/><path fill="#f0f0f0" d="m15.317 44.986 20.7-12c-.12-.34-.24-.68-.35-1l-20.7 12c.11.33.22.67.35 1"/><path fill="#ebebeb" d="m14.967 43.976 20.7-12q-.18-.51-.33-1l-20.7 12q.15.51.33 1"/><path fill="#e6e6e6" d="m14.637 42.956 20.7-12c-.11-.35-.21-.7-.31-1.05l-20.7 12c.1.35.2.7.31 1"/><path fill="#e0e0e0" d="m14.327 41.906 20.7-12-.27-1-20.7 12z"/><path fill="#dbdbdb" d="m14.057 40.866 20.7-12c-.09-.35-.17-.69-.24-1l-20.7 12c.07.35.15.69.24 1"/><path fill="#d6d6d6" d="m13.817 39.826 20.7-12q-.12-.51-.21-1l-20.7 12q.09.51.21 1"/><path fill="#d1d1d1" d="m13.607 38.806 20.7-12c-.06-.34-.12-.68-.17-1l-20.71 12z"/><path fill="#ccc" d="m13.427 37.796 20.71-12c-.06-.33-.1-.66-.14-1l-20.75 12.01c.05.33.09.66.14 1"/><path fill="#c7c7c7" d="m13.247 36.806 20.71-12c0-.32-.08-.65-.11-1l-20.7 12c0 .32.06.65.1 1"/><path fill="#c2c2c2" d="m13.187 35.836 20.7-12c0-.32-.06-.65-.08-1l-20.7 12c0 .32 0 .65.08 1"/><path fill="#bdbdbd" d="m13.107 34.866 20.7-12v-.95l-20.71 12v1"/><path fill="#b8b8b8" d="m13.057 33.916 20.71-12v-.96l-20.7 12v.98"/><path fill="#b3b3b3" d="m13.047 32.956 20.7-12v-.94l-20.71 12v.94"/><path fill="#adadad" d="m13.067 32.016 20.71-12v-.94l-20.7 12-.06.94"/><path fill="#a8a8a8" d="m13.127 31.076 20.7-12c0-.32.06-.63.1-.94l-20.68 12c0 .31-.07.62-.1.94"/><path fill="#a3a3a3" d="m13.247 30.136 20.7-12c0-.32.09-.64.14-.95l-20.7 12c0 .31-.1.63-.14 1"/><path fill="#9e9e9e" d="m13.367 29.186 20.7-12c.06-.33.12-.64.19-1l-20.7 12c-.07.31-.13.62-.19.95"/><path fill="#999" d="m13.557 28.236 20.7-12q.12-.53.27-1l-20.7 12q-.15.5-.27 1"/><path fill="#949494" d="m13.827 27.216 20.7-12c.1-.36.22-.71.35-1.05l-20.7 12c-.13.34-.25.69-.35 1.05"/><path fill="#8f8f8f" d="m14.177 26.166 20.7-12q.23-.6.48-1.14l-20.7 12q-.27.558-.48 1.14"/><path fill="#8a8a8a" d="m14.657 25.026 20.7-12q.333-.698.75-1.35l-20.7 12a12 12 0 0 0-.75 1.35"/><path fill="#858585" d="m15.407 23.676 20.7-12a10 10 0 0 1 3.41-3.32l-20.7 12a10 10 0 0 0-3.41 3.32"/><path fill="url(#a)" d="M52.547 56.726a.6.6 0 0 1 0-.14v-2.39c0-.34 0-.68-.08-1v-.18c0-.31-.07-.61-.11-.92v-.32a3 3 0 0 0 0-.29l-.09-.59a2 2 0 0 1 0-.24c-.06-.33-.12-.67-.19-1v-.1l-.06-.29c-.06-.28-.13-.56-.19-.84 0-.13-.07-.25-.1-.37s-.05-.22-.07-.32-.09-.31-.13-.46-.07-.26-.11-.39c-.08-.31-.17-.61-.27-.92a2 2 0 0 0-.07-.22c-.12-.37-.24-.75-.37-1.12 0-.1-.07-.19-.1-.28-.09-.26-.18-.51-.28-.77v-.11c0-.04-.15-.38-.23-.57s-.16-.43-.25-.64l-.25-.58c-.07-.16-.13-.33-.21-.49a.6.6 0 0 0-.05-.12c-.2-.45-.41-.91-.63-1.36v-.1c-.21-.42-.42-.84-.64-1.26l-.06-.13-.12-.21c-.25-.47-.51-.94-.78-1.4l-.16-.28c-.3-.51-.61-1-.94-1.53a4 4 0 0 0-.22-.34c-.3-.46-.6-.92-.92-1.37l-.12-.18c-.35-.49-.71-1-1.07-1.45l-.43-.31a2 2 0 0 0-.17-.21c-.24-.31-.48-.61-.73-.91l-.27-.33q-.5-.6-1-1.17l-.33-.36-.53-.57-.39-.4-.58-.55v-.06l-.56-.53-.26-.24c-.29-.27-.59-.53-.89-.79l-.1-.08-.79-.65-.3-.24-.42-.32-.2-.15-.3-.22-.64-.44-.28-.2-.13-.09-.77-.49-.09-.05-.64-.38-.3-.17c-.31-.17-.62-.34-.93-.49l-.14-.07-.1-.05c-.27-.14-.53-.26-.8-.37l-.24-.12c-.15-.06-.29-.13-.44-.18l-.27-.11-.25-.09-.78-.28h-.09l-.83-.24-.27-.1-.35-.09-.26-.05-.29-.06-.61-.1h-.3l-.72-.07h-2.62c-.21 0-.41.07-.62.12h-.13c-.23.05-.45.11-.67.18h-.14l-.25.08-.17.07-.48.2-.31.14c-.16.07-.32.16-.48.25l-.26.14a5 5 0 0 0-.54.36l-.17.11c-.22.16-.45.34-.66.52l-.16.3c-.16.14-.31.29-.46.44l-.22.24-.36.42a3 3 0 0 0-.22.28 5 5 0 0 0-.32.45 3 3 0 0 0-.2.29q-.165.242-.3.5c-.06.1-.12.2-.17.3s-.21.4-.31.61l-.12.25c-.13.3-.26.6-.37.91l-.06.17c-.09.27-.18.53-.26.81l-.09.35-.18.68c0 .14-.05.28-.08.41a18 18 0 0 0-.2 1.13c-.02.15-.06.47-.09.72s0 .29 0 .44 0 .55-.06.82 0 .26 0 .4v4.92-2.39c0-.12 0-.41.08-.61s0-.24.06-.37.06-.38.1-.56.05-.24.07-.35l.15-.57c0-.1.05-.2.08-.3s.14-.45.22-.67v-.14c.1-.26.2-.52.31-.76l.11-.21c.08-.18.16-.35.25-.51a2 2 0 0 1 .14-.25l.25-.42.17-.25.27-.37.18-.23c.1-.13.2-.24.31-.36l.18-.19c.12-.13.25-.25.38-.37l.14-.13c.18-.15.36-.3.55-.44l.14-.09.45-.3.22-.12.41-.21.25-.11.4-.17.26-.09a5 5 0 0 1 .56-.16l.19-.06c.25-.06.51-.1.77-.14h2.1l.66.07h.19l.52.08.24.05q.258.045.51.12l.2.05.72.2h.07l.66.23.21.08.59.25.16.06.73.34c.3.15.61.31.92.49s.52.3.78.46h.08l.75.49q.12.072.23.16l.54.37.25.18.51.4.26.2.65.53.09.08.76.67.21.2.53.49.43.44.33.33c.15.16.3.31.44.47l.31.33c.29.32.57.65.85 1l.23.28.61.75.24.31c.3.4.6.8.89 1.21l.11.15c.26.38.51.76.76 1.14l.19.29c.27.42.53.85.79 1.29l.13.23c.22.39.44.77.65 1.17l.15.29c.19.34.36.69.53 1v.09c.18.37.35.76.53 1.14.07.17.14.34.22.51s.13.32.2.48l.21.53c.07.16.13.33.19.49l.27.72q.047.119.08.24c.12.33.22.65.33 1 0 .06 0 .13.05.19.08.25.16.51.23.76l.09.33c.06.22.11.44.17.65q.031.158.08.31l.15.71.06.24c.06.31.12.61.17.92a1.4 1.4 0 0 0 0 .2c0 .25.07.49.11.74v.26c0 .26.07.52.09.77v.15c0 .3 0 .6.07.9a2 2 0 0 0 0 .23v1.8a.5.5 0 0 0 0 .12v.98l-.06.59v.25l-.12.78c0 .26-.1.51-.16.76a2 2 0 0 1-.06.24c0 .17-.08.33-.13.49s-.07.24-.11.36 0 .25 0 .4-.09.23-.13.35-.09.22-.14.34-.2.44-.31.66a1 1 0 0 0 0 .11c-.13.25-.27.48-.41.71l-.33.49-.07.09c-.1.14-.2.27-.31.4l-.1.12c-.13.15-.26.29-.4.43v.06l-.38.35-.11.1-.45.36a3.5 3.5 0 0 1-.45.3l-.12.08-.49.27c-.17.09-.35.16-.52.24l-.14.05c-.16.07-.33.12-.49.18h-.07a5 5 0 0 1-.57.15h-.14l-.5.09h-.11q-.3 0-.6.06h-2.45l-.67-.11h-.14l-.58-.14h-.17l-.7-.2h-.11l-.63-.22-.21-.17c-.24-.09-.49-.19-.73-.3h-.07l-.68-.32-.2-.1-.72-.43-.36-.2 3.17 1.85.43.24c.3.17.61.32.91.48l.23.11q.4.21.81.39h.09q.44.19.87.36l.22.09.75.26h.13l.84.25h.2l.7.16h.16c.27 0 .54.1.8.13h.19l.65.06h1.9l.72-.08h.13c.2 0 .4-.07.6-.12h.17c.23 0 .46-.11.68-.18h.08l.58-.2.17-.07c.21-.09.42-.18.63-.29.2-.1.39-.21.58-.32l.15-.09.54-.36c.18-.13.36-.28.54-.43l.14-.12.45-.42.06-.06c.17-.17.33-.34.48-.52l.12-.14c.13-.16.25-.32.37-.49l.08-.1c.12-.17.24-.34.35-.52v-.06c.17-.28.34-.56.49-.86a1 1 0 0 0 .07-.13c.13-.26.25-.52.37-.79a.5.5 0 0 1 0-.11l.11-.3c.06-.13.11-.27.16-.41l.15-.46c0-.14.1-.28.14-.43v-.13c0-.15.08-.3.11-.45s.06-.19.08-.29c.07-.3.13-.6.19-.91s.11-.62.15-.94v-1.3c.34-.24.36-.53.37-.82"/><path fill="#2e8be6" d="M52.547 56.726a.6.6 0 0 1 0-.14v-2.39c0-.34 0-.68-.08-1v-.18c0-.31-.07-.61-.11-.92v-.32a3 3 0 0 0 0-.29l-.09-.59a2 2 0 0 1 0-.24c-.06-.33-.12-.67-.19-1v-.1l-.06-.29c-.06-.28-.13-.56-.19-.84 0-.13-.07-.25-.1-.37s-.05-.22-.07-.32-.09-.31-.13-.46-.07-.26-.11-.39c-.08-.31-.17-.61-.27-.92a2 2 0 0 0-.07-.22c-.12-.37-.24-.75-.37-1.12 0-.1-.07-.19-.1-.28-.09-.26-.18-.51-.28-.77v-.11c0-.04-.15-.38-.23-.57s-.16-.43-.25-.64l-.25-.58c-.07-.16-.13-.33-.21-.49a.6.6 0 0 0-.05-.12c-.2-.45-.41-.91-.63-1.36v-.1c-.21-.42-.42-.84-.64-1.26l-.06-.13-.12-.21c-.25-.47-.51-.94-.78-1.4l-.16-.28c-.3-.51-.61-1-.94-1.53a4 4 0 0 0-.22-.34c-.3-.46-.6-.92-.92-1.37l-.12-.18c-.35-.49-.71-1-1.07-1.45l-.43-.31a2 2 0 0 0-.17-.21c-.24-.31-.48-.61-.73-.91l-.27-.33q-.5-.6-1-1.17l-.33-.36-.53-.57-.39-.4-.58-.55v-.06l-.56-.53-.26-.24c-.29-.27-.59-.53-.89-.79l-.1-.08-.79-.65-.3-.24-.42-.32-.2-.15-.3-.22-.64-.44-.28-.2-.13-.09-.77-.49-.09-.05-.64-.38-.3-.17c-.31-.17-.62-.34-.93-.49l-.14-.07-.1-.05c-.27-.14-.53-.26-.8-.37l-.24-.12c-.15-.06-.29-.13-.44-.18l-.27-.11-.25-.09-.78-.28h-.09l-.83-.24-.27-.1-.35-.09-.26-.05-.29-.06-.61-.1h-.3l-.72-.07h-2.62c-.21 0-.41.07-.62.12h-.13c-.23.05-.45.11-.67.18h-.14l-.25.08-.17.07-.48.2-.31.14c-.16.07-.32.16-.48.25l-.26.14a5 5 0 0 0-.54.36l-.17.11c-.22.16-.45.34-.66.52l-.16.3c-.16.14-.31.29-.46.44l-.22.24-.36.42a3 3 0 0 0-.22.28 5 5 0 0 0-.32.45 3 3 0 0 0-.2.29q-.165.242-.3.5c-.06.1-.12.2-.17.3s-.21.4-.31.61l-.12.25c-.13.3-.26.6-.37.91l-.06.17c-.09.27-.18.53-.26.81l-.09.35-.18.68c0 .14-.05.28-.08.41a18 18 0 0 0-.2 1.13c-.02.15-.06.47-.09.72s0 .29 0 .44 0 .55-.06.82 0 .26 0 .4v4.92-2.39c0-.12 0-.41.08-.61s0-.24.06-.37.06-.38.1-.56.05-.24.07-.35l.15-.57c0-.1.05-.2.08-.3s.14-.45.22-.67v-.14c.1-.26.2-.52.31-.76l.11-.21c.08-.18.16-.35.25-.51a2 2 0 0 1 .14-.25l.25-.42.17-.25.27-.37.18-.23c.1-.13.2-.24.31-.36l.18-.19c.12-.13.25-.25.38-.37l.14-.13c.18-.15.36-.3.55-.44l.14-.09.45-.3.22-.12.41-.21.25-.11.4-.17.26-.09a5 5 0 0 1 .56-.16l.19-.06c.25-.06.51-.1.77-.14h2.1l.66.07h.19l.52.08.24.05q.258.045.51.12l.2.05.72.2h.07l.66.23.21.08.59.25.16.06.73.34c.3.15.61.31.92.49s.52.3.78.46h.08l.75.49q.12.072.23.16l.54.37.25.18.51.4.26.2.65.53.09.08.76.67.21.2.53.49.43.44.33.33c.15.16.3.31.44.47l.31.33c.29.32.57.65.85 1l.23.28.61.75.24.31c.3.4.6.8.89 1.21l.11.15c.26.38.51.76.76 1.14l.19.29c.27.42.53.85.79 1.29l.13.23c.22.39.44.77.65 1.17l.15.29c.19.34.36.69.53 1v.09c.18.37.35.76.53 1.14.07.17.14.34.22.51s.13.32.2.48l.21.53c.07.16.13.33.19.49l.27.72q.047.119.08.24c.12.33.22.65.33 1 0 .06 0 .13.05.19.08.25.16.51.23.76l.09.33c.06.22.11.44.17.65q.031.158.08.31l.15.71.06.24c.06.31.12.61.17.92a1.4 1.4 0 0 0 0 .2c0 .25.07.49.11.74v.26c0 .26.07.52.09.77v.15c0 .3 0 .6.07.9a2 2 0 0 0 0 .23v1.8a.5.5 0 0 0 0 .12v.98l-.06.59v.25l-.12.78c0 .26-.1.51-.16.76a2 2 0 0 1-.06.24c0 .17-.08.33-.13.49s-.07.24-.11.36 0 .25 0 .4-.09.23-.13.35-.09.22-.14.34-.2.44-.31.66a1 1 0 0 0 0 .11c-.13.25-.27.48-.41.71l-.33.49-.07.09c-.1.14-.2.27-.31.4l-.1.12c-.13.15-.26.29-.4.43v.06l-.38.35-.11.1-.45.36a3.5 3.5 0 0 1-.45.3l-.12.08-.49.27c-.17.09-.35.16-.52.24l-.14.05c-.16.07-.33.12-.49.18h-.07a5 5 0 0 1-.57.15h-.14l-.5.09h-.11q-.3 0-.6.06h-2.45l-.67-.11h-.14l-.58-.14h-.17l-.7-.2h-.11l-.63-.22-.21-.17c-.24-.09-.49-.19-.73-.3h-.07l-.68-.32-.2-.1-.72-.43-.36-.2 3.17 1.85.43.24c.3.17.61.32.91.48l.23.11q.4.21.81.39h.09q.44.19.87.36l.22.09.75.26h.13l.84.25h.2l.7.16h.16c.27 0 .54.1.8.13h.19l.65.06h1.9l.72-.08h.13c.2 0 .4-.07.6-.12h.17c.23 0 .46-.11.68-.18h.08l.58-.2.17-.07c.21-.09.42-.18.63-.29.2-.1.39-.21.58-.32l.15-.09.54-.36c.18-.13.36-.28.54-.43l.14-.12.45-.42.06-.06c.17-.17.33-.34.48-.52l.12-.14c.13-.16.25-.32.37-.49l.08-.1c.12-.17.24-.34.35-.52v-.06c.17-.28.34-.56.49-.86a1 1 0 0 0 .07-.13c.13-.26.25-.52.37-.79a.5.5 0 0 1 0-.11l.11-.3c.06-.13.11-.27.16-.41l.15-.46c0-.14.1-.28.14-.43v-.13c0-.15.08-.3.11-.45s.06-.19.08-.29c.07-.3.13-.6.19-.91s.11-.62.15-.94v-1.3c.34-.24.36-.53.37-.82"/><path fill="#858585" d="m35.067 70.066 6.24-3.62a7.7 7.7 0 0 1-1.33.62l-6.24 3.62a7.7 7.7 0 0 0 1.33-.61"/><path fill="#8a8a8a" d="m33.737 70.676 6.24-3.62a9 9 0 0 1-1.16.32l-6.24 3.62a8 8 0 0 0 1.16-.32"/><path fill="#8f8f8f" d="m32.577 70.996 6.24-3.62c-.31.06-.63.1-.95.13l-6.24 3.63a7.5 7.5 0 0 0 1-.14"/><path fill="#949494" d="m31.627 71.136 6.24-3.63a8 8 0 0 1-.84 0l-6.25 3.63q.425.023.85 0"/><path fill="#999" d="m30.777 71.176 6.25-3.63a7 7 0 0 1-.8 0l-6.24 3.63z"/><path fill="#9e9e9e" d="m29.987 71.156 6.26-3.63c-.24 0-.48 0-.73-.08l-6.27 3.63.73.08"/><path fill="#a3a3a3" d="m29.247 71.076 6.25-3.63-.71-.11-6.24 3.62.71.12"/><path fill="#a8a8a8" d="m28.547 70.956 6.24-3.62-.69-.16-6.24 3.63q.35.09.69.15"/><path fill="#adadad" d="m27.857 70.806 6.24-3.63-.68-.18-6.24 3.62c.23.07.46.14.68.19"/><path fill="#b3b3b3" d="m27.177 70.616 6.24-3.62-.66-.22-6.25 3.67.67.21"/><path fill="#b8b8b8" d="m26.507 70.446 6.25-3.63-.67-.25-6.24 3.59.66.25"/><path fill="#bdbdbd" d="m25.847 70.156 6.24-3.63-.66-.28-6.24 3.62z"/><path fill="#c2c2c2" d="m25.187 69.866 6.24-3.62-.67-.32-6.25 3.63z"/><path fill="#c7c7c7" d="m24.507 69.556 6.25-3.63-.68-.35-6.24 3.63z"/><path fill="#ccc" d="m23.837 69.206 6.24-3.63a2 2 0 0 1-.23-.13c-.16-.08-.31-.17-.46-.26l-6.24 3.63.45.26z"/><path fill="#d1d1d1" d="m23.147 68.816 6.24-3.63-.69-.42-6.25 3.62z"/><path fill="#d6d6d6" d="m22.447 68.386 6.25-3.62-.71-.47-6.24 3.63z"/><path fill="#dbdbdb" d="m21.747 67.926 6.24-3.63c-.24-.16-.48-.33-.71-.51l-6.24 3.66.71.51"/><path fill="#e0e0e0" d="m21.037 67.446 6.21-3.66-.73-.55-6.24 3.62c.24.19.48.38.73.56"/><path fill="#e6e6e6" d="m20.307 66.856 6.24-3.62-.73-.6-6.24 3.63c.24.2.48.4.73.59"/><path fill="#ebebeb" d="m19.577 66.266 6.24-3.63c-.25-.21-.5-.42-.74-.64l-6.24 3.62z"/><path fill="#f0f0f0" d="m18.837 65.616 6.24-3.62-.72-.67-6.24 3.62z"/><path fill="#f5f5f5" d="m18.117 64.946 6.24-3.62-.7-.7-6.24 3.63c.23.23.46.47.7.69"/><path fill="#fafafa" d="m17.417 64.256 6.24-3.63c-.23-.23-.45-.46-.67-.7l-6.25 3.63z"/><path fill="#fff" d="m16.737 63.556 6.25-3.63-.65-.72-6.24 3.63z"/><path fill="#fff" d="m16.097 62.836 6.24-3.63c-.22-.24-.43-.49-.64-.75l-6.24 3.63zm-.64-.75 6.24-3.64a15 15 0 0 1-.63-.78l-6.24 3.63q.3.39.63.78"/><path fill="#fff" d="m14.827 61.306 6.24-3.63c-.25-.31-.49-.62-.73-.95l-6.24 3.63c.24.32.48.64.73 1"/><path fill="#fff" d="m14.097 60.356 6.24-3.63c-.34-.47-.68-1-1-1.44l-6.24 3.63c.33.49.66 1 1 1.44m-1.01-1.44 6.24-3.63c-.46-.69-.91-1.4-1.33-2.12l-6.24 3.63c.42.72.86 1.43 1.33 2.12m-1.33-2.12 6.24-3.63c-.28-.47-.54-.94-.8-1.43l-6.24 3.63c.26.48.52 1 .8 1.43"/><path fill="#fff" d="m10.957 55.366 6.29-3.63-.47-.91-6.29 3.62c.15.31.31.61.47.91m-.47-.91 6.24-3.63c-.14-.29-.29-.58-.42-.88l-6.25 3.63z"/><path fill="#fff" d="m10.057 53.576 6.25-3.63c-.13-.26-.25-.53-.37-.79l-6.24 3.63zm-.36-.79 6.24-3.63c-.11-.27-.23-.53-.34-.8l-6.24 3.63c.11.27.23.53.34.8"/><path fill="#fafafa" d="m9.357 51.986 6.24-3.63c-.11-.26-.21-.53-.32-.8l-6.24 3.63c.1.27.21.53.32.8"/><path fill="#f5f5f5" d="m9.037 51.186 6.21-3.63-.3-.8-6.24 3.62.3.81"/><path fill="#f0f0f0" d="m8.737 50.376 6.24-3.62c-.1-.28-.2-.57-.29-.85l-6.25 3.63z"/><path fill="#ebebeb" d="m8.437 49.536 6.25-3.63c-.1-.28-.19-.56-.28-.85l-6.24 3.63z"/><path fill="#e6e6e6" d="m8.167 48.686 6.24-3.63c-.09-.29-.17-.58-.25-.87l-6.24 3.62c.08.3.16.59.25.88"/><path fill="#e0e0e0" d="m7.917 47.806 6.24-3.62c-.08-.29-.16-.59-.23-.88l-6.24 3.63c.07.29.14.58.23.87"/><path fill="#dbdbdb" d="m7.687 46.936 6.24-3.63-.21-.86-6.24 3.63c.07.29.13.58.21.87"/><path fill="#d6d6d6" d="m7.477 46.066 6.24-3.62c-.06-.28-.12-.57-.17-.85l-6.24 3.62c0 .29.11.58.17.86"/><path fill="#d1d1d1" d="m7.307 45.206 6.24-3.62-.15-.84-6.24 3.62z"/><path fill="#ccc" d="m7.157 44.366 6.24-3.62c0-.28-.08-.56-.11-.83l-6.24 3.63c0 .27.07.55.11.82"/><path fill="#c7c7c7" d="m7.047 43.546 6.2-3.63q-.06-.399-.09-.81l-6.24 3.62c0 .27 0 .54.09.82"/><path fill="#c2c2c2" d="m6.957 42.726 6.29-3.62c0-.27-.05-.54-.07-.81l-6.24 3.63c0 .26 0 .53.07.8"/><path fill="#bdbdbd" d="m6.887 41.926 6.24-3.63v-.8l-6.28 3.63v.8"/><path fill="#b8b8b8" d="m6.847 41.126 6.25-3.63v-.41a2.5 2.5 0 0 1 0-.39l-6.25 3.63z"/><path fill="#b3b3b3" d="m6.837 40.326 6.25-3.63v-.79l-6.24 3.63v.79"/><path fill="#adadad" d="m6.857 39.536 6.24-3.63v-.79l-6.19 3.63v.79"/><path fill="#a8a8a8" d="m6.907 38.746 6.24-3.63c0-.26.05-.52.08-.78l-6.24 3.63c0 .25-.06.51-.08.78"/><path fill="#a3a3a3" d="m6.987 37.966 6.26-3.63.12-.8-6.24 3.63-.12.8"/><path fill="#9e9e9e" d="m7.107 37.166 6.24-3.63c0-.27.1-.53.16-.79l-6.26 3.63c-.06.26-.11.52-.16.79"/><path fill="#999" d="m7.247 36.376 6.24-3.63c.07-.29.14-.57.22-.85l-6.24 3.63c-.08.27-.15.56-.22.85"/><path fill="#949494" d="m7.487 35.526 6.24-3.63c.09-.3.19-.6.3-.88l-6.25 3.62c-.1.29-.2.58-.29.89"/><path fill="#8f8f8f" d="m7.777 34.636 6.25-3.62q.175-.51.4-1l-6.24 3.63c-.15.3-.28.62-.41.95"/><path fill="#8a8a8a" d="m8.187 33.686 6.24-3.63q.28-.585.63-1.13l-6.25 3.63a12 12 0 0 0-.62 1.13"/><path fill="#858585" d="m8.807 32.556 6.25-3.63a8.3 8.3 0 0 1 2.85-2.77l-6.24 3.62a8.5 8.5 0 0 0-2.86 2.78"/><path fill="url(#b)" d="m54.747 10.446.56.38.41.27.42.31.57.42.43.34.54.43.33.28c.26.21.51.43.76.65l.37.34c.24.22.48.44.71.67s.25.23.37.36.24.24.36.36l.49.5.36.39.48.52.35.39.46.54.34.41c.15.17.29.36.44.54l.36.45.42.56c.12.15.24.3.35.46l.42.58c.11.15.22.3.32.46l.42.61.3.45.42.65.27.43c.16.25.3.5.45.75s.15.24.21.36c.22.37.43.74.64 1.12v.09l.55 1 .16.33c.14.27.27.54.4.81s.14.29.2.43l.33.71.21.48.29.68c.07.16.13.33.2.5l.24.61c.14.37.28.74.41 1.11q.081.141.18.27.24.7.45 1.41l.15.52c.07.24.15.48.21.72s.1.37.14.55l.18.71c0 .21.1.42.14.63l.12.56.12.64c0 .18.07.37.1.55s.07.47.11.7l.06.47c0 .25.06.51.09.76s0 .26 0 .4c0 .37.07.73.09 1.1v1.18-4.64c0-.31 0-.61-.07-.91v-.33c0-.11 0-.43-.07-.64l-.06-.39-.06-.47a.5.5 0 0 1 0-.12l-.09-.46c0-.18-.06-.36-.1-.54s-.06-.31-.1-.46 0-.26-.08-.39 0-.1 0-.14c0-.2-.09-.4-.14-.59l-.12-.46-.18-.61c0-.12-.06-.24-.1-.36a.3.3 0 0 1 0-.07c-.12-.39-.25-.79-.39-1.18a2 2 0 0 0-.08-.24c-.11-.31-.23-.62-.35-.93v-.16l-.15-.35c0-.14-.11-.28-.17-.42l-.24-.57-.17-.4c-.06-.14-.18-.39-.28-.59s-.11-.24-.17-.36-.22-.46-.33-.69a2 2 0 0 1-.13-.26l-.45-.85a.4.4 0 0 0 0-.07c-.17-.32-.35-.63-.53-.94l-.18-.3c-.12-.21-.24-.42-.37-.62l-.23-.36c-.11-.19-.23-.37-.35-.55l-.25-.38-.35-.51-.27-.39-.35-.48c-.1-.13-.19-.26-.29-.38l-.36-.47-.3-.38-.24-.3-.12-.15-.29-.34c-.13-.15-.25-.3-.39-.45l-.29-.33-.4-.44-.3-.32-.41-.42-.3-.3-.31-.14-.19-.17-.59-.56-.31-.28-.64-.55-.19-.17-.08-.06-.45-.36-.37-.29c-.15-.12-.31-.23-.47-.34a4 4 0 0 0-.31-.23 4 4 0 0 0-.4-.29l-.46-.32-.36-.22-.37-.23-.17-.1-3.22-1.82c.22.13.44.26.65.4z"/><path fill="#003899" d="m54.747 10.446.56.38.41.27.42.31.57.42.43.34.54.43.33.28c.26.21.51.43.76.65l.37.34c.24.22.48.44.71.67s.25.23.37.36.24.24.36.36l.49.5.36.39.48.52.35.39.46.54.34.41c.15.17.29.36.44.54l.36.45.42.56c.12.15.24.3.35.46l.42.58c.11.15.22.3.32.46l.42.61.3.45.42.65.27.43c.16.25.3.5.45.75s.15.24.21.36c.22.37.43.74.64 1.12v.09l.55 1 .16.33c.14.27.27.54.4.81s.14.29.2.43l.33.71.21.48.29.68c.07.16.13.33.2.5l.24.61c.14.37.28.74.41 1.11q.081.141.18.27.24.7.45 1.41l.15.52c.07.24.15.48.21.72s.1.37.14.55l.18.71c0 .21.1.42.14.63l.12.56.12.64c0 .18.07.37.1.55s.07.47.11.7l.06.47c0 .25.06.51.09.76s0 .26 0 .4c0 .37.07.73.09 1.1v1.18-4.64c0-.31 0-.61-.07-.91v-.33c0-.11 0-.43-.07-.64l-.06-.39-.06-.47a.5.5 0 0 1 0-.12l-.09-.46c0-.18-.06-.36-.1-.54s-.06-.31-.1-.46 0-.26-.08-.39 0-.1 0-.14c0-.2-.09-.4-.14-.59l-.12-.46-.18-.61c0-.12-.06-.24-.1-.36a.3.3 0 0 1 0-.07c-.12-.39-.25-.79-.39-1.18a2 2 0 0 0-.08-.24c-.11-.31-.23-.62-.35-.93v-.16l-.15-.35c0-.14-.11-.28-.17-.42l-.24-.57-.17-.4c-.06-.14-.18-.39-.28-.59s-.11-.24-.17-.36-.22-.46-.33-.69a2 2 0 0 1-.13-.26l-.45-.85a.4.4 0 0 0 0-.07c-.17-.32-.35-.63-.53-.94l-.18-.3c-.12-.21-.24-.42-.37-.62l-.23-.36c-.11-.19-.23-.37-.35-.55l-.25-.38-.35-.51-.27-.39-.35-.48c-.1-.13-.19-.26-.29-.38l-.36-.47-.3-.38-.24-.3-.12-.15-.29-.34c-.13-.15-.25-.3-.39-.45l-.29-.33-.4-.44-.3-.32-.41-.42-.3-.3-.31-.14-.19-.17-.59-.56-.31-.28-.64-.55-.19-.17-.08-.06-.45-.36-.37-.29c-.15-.12-.31-.23-.47-.34a4 4 0 0 0-.31-.23 4 4 0 0 0-.4-.29l-.46-.32-.36-.22-.37-.23-.17-.1-3.22-1.82c.22.13.44.26.65.4z"/><path fill="#1461cc" d="M73.247 44.826v-2.68a1 1 0 0 0 0-.15c0-.3 0-.6-.07-.91 0-.32-.07-.65-.11-1v-.14c0-.05 0-.23-.05-.35s0-.33-.07-.5 0-.19 0-.28 0-.27-.07-.41l-.06-.32c0-.14 0-.29-.08-.43l-.09-.41v-.18l-.15-.64c0-.11 0-.22-.08-.33s0-.05 0-.07q-.12-.53-.27-1.05l-.06-.21c-.08-.27-.15-.53-.24-.8v-.14l-.12-.38c-.06-.17-.11-.33-.16-.5l-.1-.27c0-.14-.09-.28-.14-.42s-.07-.21-.11-.32-.12-.3-.17-.45-.09-.24-.14-.35l-.06-.16c-.12-.31-.24-.62-.37-.92-.13-.32-.27-.63-.41-.95a1 1 0 0 0-.07-.15l-.15-.33-.21-.47-.14-.28c-.07-.16-.15-.31-.22-.47l-.15-.3-.18-.36-.26-.5-.12-.23-.13-.23c-.23-.43-.47-.86-.71-1.28l-.12-.2a.4.4 0 0 0 0-.09l-.59-1c0-.08-.09-.16-.15-.24-.25-.4-.51-.8-.77-1.19l-.07-.11c-.32-.48-.66-1-1-1.43l-.14-.19a2 2 0 0 0-.13-.16c-.15-.22-.31-.43-.48-.64l-.25-.33-.12-.14-.66-.54-.31-.39-.16-.18c-.11-.13-.22-.27-.34-.4l-.26-.31-.22-.24-.34-.38-.22-.24-.27-.29-.36-.37-.17-.18-.33-.33-.38-.37-.13-.13-.38-.36-.38-.35-.1-.09-.45-.39c-.12-.11-.24-.22-.37-.32l-.06-.06-.62-.5-.15-.19-.95-.73-.2-.14-.62-.44a.4.4 0 0 0-.11-.07 4 4 0 0 0-.32-.22l-.41-.27-.21-.13-.34-.2-.28-.18-.56-.29-.28-.15-.54-.29-.22-.11c-.27-.14-.53-.26-.8-.38l-.34-.13-.52-.22-.16-.06-.32-.12-.32-.12-.25-.08-.34-.11-.21-.07-.34-.09-.36-.13h-.13l-.42-.1-.33-.07h-.07l-.45-.07-.36-.06h-3.36l-.63.11h-.06l-.29.07-.44.12-.3.1c-.1 0-.2 0-.3.09h-.09c-.18.06-.35.14-.52.21l-.25.1a7 7 0 0 0-.73.38l-20.7 12a6 6 0 0 1 .73-.38l.25-.11c.17-.07.34-.15.52-.21l.39-.13.3-.1.44-.11.29-.07q.35-.069.69-.12h.16l.66-.05h2.14l.47.05.36.06.52.09.32.07.56.13.34.1.55.16.34.11.57.2.32.12.67.28.23.1q.45.19.9.42l.21.11c.28.14.55.28.83.44s.56.32.83.49l.34.2.62.4.32.22c.24.16.49.33.73.51l.2.14c.31.23.62.46.93.71l.23.18.68.57c.13.1.25.21.37.32l.55.48.37.35.52.49.38.37.5.51.36.38c.16.17.33.34.49.52l.34.38.48.55c.12.13.23.27.34.4l.47.57.33.41.37.48.48.63.27.35c.34.47.67.95 1 1.43l.1.15c.26.39.52.79.77 1.19l.15.24.59 1 .16.29c.25.42.49.85.72 1.28.08.16.17.31.25.46s.17.34.25.5.23.44.33.66.16.31.23.47.24.5.35.75l.15.33q.26.55.48 1.11c.15.36.29.72.43 1.08q.075.172.13.35c.1.26.2.52.29.78s.09.27.14.41.17.51.26.77l.12.38.28.94.06.21c.11.39.21.77.3 1.15 0 .11 0 .22.07.33.07.27.13.55.19.82s.06.28.08.41.1.5.15.75.05.28.07.41l.12.78v.35c0 .38.09.75.13 1.12 0 .35.06.71.08 1.06v3.55a.5.5 0 0 0 0 .12c0 .35-.07.69-.11 1v.36c0 .12-.07.43-.1.64l-.09.42c0 .18-.07.36-.11.54l-.15.57c0 .14-.07.28-.11.41s-.18.55-.27.81c0 .06 0 .13-.07.19v.08c-.09.23-.18.46-.28.68l-.09.19c-.08.17-.16.34-.25.5a2.4 2.4 0 0 1-.14.28l-.3.52c0 .06-.07.13-.11.18-.14.22-.28.42-.43.63l-.12.15c-.12.15-.23.3-.35.44l-.15.17q-.21.255-.45.48c-.17.17-.35.33-.53.48l-.16.13-.42.32-.17.12-.59.38 20.71-12 .59-.38.17-.12c.14-.1.29-.21.42-.32l.16-.13c.18-.15.36-.31.53-.48h.05c.16-.15.31-.32.45-.48l.15-.17c.12-.14.24-.29.35-.44l.12-.16c.14-.19.28-.39.41-.59 0 0 .07-.12.11-.18s.21-.34.3-.52l.15-.28c.05-.11.12-.22.17-.34s0-.11.08-.16a2 2 0 0 1 .08-.19c.1-.22.19-.45.28-.68a.2.2 0 0 1 0-.08 1 1 0 0 1 0-.16q.14-.39.27-.81v-.09c0-.1 0-.22.08-.32l.15-.57v-.13c0-.13.06-.27.08-.41l.09-.42a.4.4 0 0 1 0-.11c0-.17 0-.35.08-.53s0-.24 0-.36a.15.15 0 0 0 0-.07c0-.3.07-.61.1-.93v-.13c.16-.3.16-.56.16-.83"/><path fill="#1461cc" d="M46.117 56.686v-.11a3 3 0 0 1 0-.28v-2l-.06-.76q0-.399-.09-.81v-.41l-.06-.42a2 2 0 0 1 0-.23l-.06-.34v-.27c0-.09 0-.24-.07-.36s0-.23-.07-.34v-.16c0-.18-.09-.36-.13-.54l-.06-.26v-.07c-.07-.29-.14-.58-.23-.87a1 1 0 0 1 0-.17c-.07-.23-.13-.45-.2-.67v-.12c0-.11-.07-.21-.1-.32s-.09-.28-.13-.42a2 2 0 0 1-.08-.22l-.12-.35c0-.09-.06-.18-.1-.27s-.09-.25-.14-.38l-.11-.29v-.14c-.1-.25-.2-.51-.31-.76-.11-.27-.23-.54-.34-.8l-.41-.24-.13-.28c-.06-.13-.11-.26-.17-.38l-.15-.2c-.06-.13-.12-.26-.19-.39l-.12-.26c0-.1-.1-.2-.16-.3l-.21-.41c0-.07-.07-.13-.1-.2l-.11-.19c-.19-.36-.39-.71-.59-1.07a1 1 0 0 1-.07-.18.4.4 0 0 1 0-.07c-.16-.27-.32-.54-.49-.8l-.13-.22c-.21-.33-.43-.66-.65-1l-.06-.08c-.27-.41-.55-.8-.84-1.2l-.11-.16a2 2 0 0 1-.11-.14l-.4-.52-.22-.29-.09-.11c-.09-.12-.18-.23-.28-.34l-.26-.33-.13-.15-.28-.33c-.08-.09-.15-.18-.23-.26l-.18-.2-.28-.32-.18-.2-.33-.28c-.09-.11-.19-.21-.29-.32l-.15-.14-.31-.3-.32-.31-.11-.11-.32-.3-.25-.29a.6.6 0 0 0-.08-.08l-.37-.32-.31-.27h-.06l-.51-.43-.2-.15c-.24-.19-.48-.38-.73-.56l-.17-.11-.57-.46-.09-.06-.27-.18-.34-.23-.18-.11-.28-.17-.26-.1-.45-.26-.24-.13-.45-.24-.18-.09-.68-.32-.18-.08-.44-.18-.13-.05-.26-.1-.27-.1-.3-.15-.28-.09-.17-.06-.29-.08-.26-.07h-.11l-.36-.08-.27-.06h-.06l-.37-.06-.3-.05h-1.7a5 5 0 0 0-.55 0h-.6l-.53.09h-.05l-.24.06-.37.09-.25.08-.25.08h-.08l-.43.18-.21.09c-.21.1-.41.2-.61.32l-6.24 3.62a6 6 0 0 1 .58-.36 1.2 1.2 0 0 1 .2-.09 4 4 0 0 1 .44-.18l.33-.11.25-.08.37-.09.24-.06.58-.1h2.83l.29.05.44.07.27.06.47.11.28.08.46.13.28.1.48.17.27.1.56.23.19.08.76.35.18.1.68.36c.24.13.47.27.7.41l.28.17.52.34.27.18.61.42.17.12.77.59.2.16.57.47.31.27.45.4.32.3.43.41.32.31.41.42c.11.1.2.21.3.31l.42.45.28.31.41.47.28.33.39.47c.09.12.19.23.28.34s.2.27.31.4l.4.53.22.3c.29.39.57.79.84 1.19a1 1 0 0 1 .08.13c.22.32.44.66.65 1l.13.21.49.81.13.24c.21.35.41.71.6 1.07l.21.39.21.41.28.56.19.38c.1.21.2.42.29.63l.13.28c.14.31.27.62.4.93l.36.91c0 .09.07.19.11.29l.24.65.12.34.21.65c0 .11.07.21.1.32s.16.52.23.79l.06.17c.08.32.17.64.25 1l.06.27c.06.23.11.47.16.7s0 .22.07.34l.12.62.06.35.09.65c0 .1 0 .2.05.3 0 .31.07.62.1.92 0 .3 0 .59.06.89v1.87a3 3 0 0 0 0 .28v.78a.4.4 0 0 0 0 .11l-.09.85v.3c0 .1 0 .36-.08.54s0 .23-.07.34-.06.31-.1.46l-.12.47c0 .12-.06.23-.1.35s-.14.45-.22.68v.14c-.11.3-.24.58-.36.86-.06.12-.12.25-.19.37s-.07.15-.12.23l-.25.44-.09.15-.36.52-.1.13-.3.37-.12.14a8 8 0 0 1-.82.8l-.13.11-.36.27-.14.1-.5.32 6.13-3.53.5-.32.14-.1.36-.27.13-.11c.15-.12.3-.26.45-.4.13-.13.25-.26.37-.4l.12-.14c.11-.12.2-.24.3-.37a9 9 0 0 0 .45-.63l.12-.26c.09-.14.17-.29.26-.44s.07-.15.11-.23l.15-.29v-.08c.13-.28.25-.56.36-.85a.7.7 0 0 1 .12-.11c.08-.22.15-.45.22-.68v-.07c0-.09.05-.19.07-.28l.12-.47v-.11c0-.11.05-.23.07-.34s0-.23.07-.35 0-.06 0-.09l.06-.45v-.3c0-.26.06-.52.08-.79a.4.4 0 0 1 0-.11c.15-.28.17-.5.18-.72"/><ellipse cx="23.37" cy="49.924" fill="#898989" rx="13.49" ry="23.3" transform="rotate(-30.16 23.37 49.924)"/></g><g fill-rule="nonzero" transform="translate(19.73 21.282)"><ellipse cx="47.716" cy="29.146" fill="#898989" rx="14.61" ry="25.22" transform="rotate(-30.16 47.716 29.146)"/><path fill="#fff" d="M49.69 65.594c7.81-5.57 12.66-12.23 15.25-21-2 7.29-8.79 9.8-17 5.25-9.88-5.51-18-19.25-18.15-30.71a59.4 59.4 0 0 0-20.27 5.88c.18 14.77 10.66 32.51 23.4 39.61 6.64 3.7 12.59 3.78 16.73.93"/><path fill="#fff" d="M9.56 25.054c.09 7 2.51 14.74 6.39 21.64l.15-1.53c.62-8.94 11.59-11.63 16.24-7.43 5.52 5 .14 14.89-8.11 14.91a10.7 10.7 0 0 1-5.56-1.61 44.4 44.4 0 0 0 14.29 13.63c6.64 3.7 12.59 3.78 16.73.93l1.07-.77c.33-.25.78-.58 1.1-.84l1-.82c.31-.27.73-.63 1-.91l.94-.88c.29-.29.69-.67 1-1l.88-.93.89-1 .81-1c.24-.32.58-.75.82-1.08l.73-1c.23-.34.53-.79.75-1.14l.67-1.06c.2-.36.47-.83.67-1.2l.57-1.12c.18-.38.42-.88.59-1.26l.5-1.17c.15-.39.36-.92.5-1.32l.41-1.21c.12-.42.29-1 .41-1.4-2 7.49-8.85 10-17 5.45-9.88-5.51-18-19.25-18.15-30.71a59.4 59.4 0 0 0-20.27 5.88"/><path fill="#fff" d="M9.56 25.054c.08 6.66 2.26 13.93 5.79 20.55l.21-1.44c2.8-10.56 15.31-11 18.72-4.66 2.39 4.49-1.32 16.13-14.6 12.9a43.2 43.2 0 0 0 13.28 12.26c6.64 3.7 12.59 3.78 16.73.93 1.41-1 1.44-1 2.17-1.61l1-.82c.31-.27.73-.63 1-.91l.94-.88c.29-.29.69-.67 1-1l.88-.93.89-1 .81-1c.24-.32.58-.75.82-1.08l.73-1c.23-.34.53-.79.75-1.14l.67-1.06c.2-.36.47-.83.67-1.2l.57-1.12c.18-.38.42-.88.59-1.26l.5-1.17c.15-.39.36-.92.5-1.32l.41-1.21c.12-.42.29-1 .41-1.4-2 7.49-8.85 10-17 5.45-9.88-5.51-18-19.25-18.15-30.71a59.4 59.4 0 0 0-20.27 5.88"/><path fill="#fff" d="M9.56 25.054a45.4 45.4 0 0 0 5.22 19.44v-.11c4.5-12.82 16.93-10.51 19.82-5.11 2.74 5.13-1.81 16.47-14.34 14a42.9 42.9 0 0 0 12.7 11.39c6.64 3.7 12.59 3.78 16.73.93l1.07-.77c.33-.25.78-.58 1.1-.84l1-.82c.31-.27.73-.63 1-.91l.94-.88c.29-.29.69-.67 1-1l.88-.93.89-1 .81-1c.24-.32.58-.75.82-1.08l.73-1c.23-.34.53-.79.75-1.14l.67-1.06c.2-.36.47-.83.67-1.2l.57-1.12c.18-.38.42-.88.59-1.26l.5-1.17c.15-.39.36-.92.5-1.32l.41-1.21c.12-.42.29-1 .41-1.4-2 7.49-8.85 10-17 5.45-9.88-5.51-18-19.25-18.15-30.71a59.4 59.4 0 0 0-20.27 5.88"/><path fill="#fff" d="M9.56 25.054a44.9 44.9 0 0 0 4.81 18.62l.43-1.1c4.37-10.22 16.71-9.87 20.16-3.54 3.36 6.16-3.3 16.82-14.06 15a42.2 42.2 0 0 0 12.06 10.63c6.64 3.7 12.59 3.78 16.73.93l1.07-.77c.33-.25.78-.58 1.1-.84l1-.82c.31-.27.73-.63 1-.91l.94-.88c.29-.29.69-.67 1-1l.88-.93.89-1 .81-1c.24-.32.58-.75.82-1.08l.73-1c.23-.34.53-.79.75-1.14l.67-1.06c.2-.36.47-.83.67-1.2l.57-1.12c.18-.38.42-.88.59-1.26l.5-1.17c.15-.39.36-.92.5-1.32l.41-1.21c.12-.42.29-1 .41-1.4-2 7.49-8.85 10-17 5.45-9.88-5.51-18-19.25-18.15-30.71a59.4 59.4 0 0 0-20.27 5.88"/><path fill="#fff" d="M9.56 25.054a44.4 44.4 0 0 0 4.43 17.82l.46-1.06c5.43-10.76 19.63-9.65 21.72-.65 1.35 5.86-4.32 14.38-14.64 13.69a41.5 41.5 0 0 0 11.43 9.81c6.64 3.7 12.59 3.78 16.73.93l1.07-.77c.33-.25.78-.58 1.1-.84l1-.82c.31-.27.73-.63 1-.91l.94-.88c.29-.29.69-.67 1-1l.88-.93.89-1 .81-1c.24-.32.58-.75.82-1.08l.73-1c.23-.34.53-.79.75-1.14l.67-1.06c.2-.36.47-.83.67-1.2l.57-1.12c.18-.38.42-.88.59-1.26l.5-1.17c.15-.39.36-.92.5-1.32l.41-1.21c.12-.42.29-1 .41-1.4-2 7.49-8.85 10-17 5.45-9.88-5.51-18-19.25-18.15-30.71a59.4 59.4 0 0 0-20.27 5.88"/><path fill="#fff" d="M9.56 25.054a44.1 44.1 0 0 0 4.06 17c5-10.67 18.52-10.21 22.14-3.54 3.44 6.33-2 17.14-13.62 17a41 41 0 0 0 10.82 9.1c6.64 3.7 12.59 3.78 16.73.93l1.07-.77c.33-.25.78-.58 1.1-.84l1-.82c.31-.27.73-.63 1-.91l.94-.88c.29-.29.69-.67 1-1l.88-.93.89-1 .81-1c.24-.32.58-.75.82-1.08l.73-1c.23-.34.53-.79.75-1.14l.67-1.01c.2-.36.47-.83.67-1.2l.57-1.12c.18-.38.42-.88.59-1.26l.5-1.17c.15-.39.36-.92.5-1.32l.41-1.21c.12-.42.29-1 .41-1.4-2 7.49-8.85 10-17 5.45-9.88-5.51-18-19.25-18.15-30.71a59.4 59.4 0 0 0-20.27 5.88"/><path fill="#fff" d="M37 40.544c1.49 6.85-4.39 15.22-14.23 15.73a40.2 40.2 0 0 0 10.19 8.39c6.64 3.7 12.59 3.78 16.73.93l1.07-.77c.33-.25.78-.58 1.1-.84l1-.82c.31-.27.73-.63 1-.91l.94-.88c.29-.29.69-.67 1-1l.88-.93.89-1 .81-1c.24-.32.58-.75.82-1.08l.73-1c.23-.34.53-.79.75-1.14l.67-1.06c.2-.36.47-.83.67-1.2l.57-1.12c.18-.38.42-.88.59-1.26l.5-1.17c.15-.39.36-.92.5-1.32l.41-1.21c.12-.42.29-1 .41-1.4-2 7.49-8.85 10-17 5.45a34.9 34.9 0 0 1-11.72-11.54l.57 1.7c0 .14.13.31.16.45"/><path fill="#fff" d="M37.46 40.164c1.36 15.19-13.87 16.79-14 16.81a39.6 39.6 0 0 0 9.52 7.65c6.64 3.7 12.59 3.78 16.73.93l1.07-.77c.33-.25.78-.58 1.1-.84l1-.82c.31-.27.73-.63 1-.91l.94-.88c.29-.29.69-.67 1-1l.88-.93.89-1 .81-1c.24-.32.58-.75.82-1.08l.73-1c.23-.34.53-.79.75-1.14l.65-1.02c.2-.36.47-.83.67-1.2l.57-1.12c.18-.38.42-.88.59-1.26l.5-1.17c.15-.39.36-.92.5-1.32l.41-1.21c.12-.42.29-1 .41-1.4-2 7.49-8.85 10-17 5.45a33.9 33.9 0 0 1-10.59-9.87 1 1 0 0 1 0 .14"/><path fill="#fafafa" d="M38.2 42.574c.24 8.31-8.13 14.27-14 15.21a39 39 0 0 0 8.78 6.88c6.64 3.7 12.59 3.78 16.73.93l1.07-.77c.33-.25.78-.58 1.1-.84l1-.82c.31-.27.73-.63 1-.91l.94-.88c.29-.29.69-.67 1-1l.88-.93.89-1 .81-1c.24-.32.58-.75.82-1.08l.73-1c.23-.34.53-.79.75-1.14l.65-1.06c.2-.36.47-.83.67-1.2l.57-1.12c.18-.38.42-.88.59-1.26l.5-1.17c.15-.39.36-.92.5-1.32l.41-1.21c.12-.42.29-1 .41-1.4-2 7.49-8.85 10-17 5.45a33.25 33.25 0 0 1-9.92-8.95l.12 1.5v.14"/><path fill="#f5f5f5" d="M38.72 42.164c-.15 10.22-8.74 15.1-13.78 16.37a38 38 0 0 0 8 6.12c6.64 3.7 12.59 3.78 16.73.93l1.07-.77c.33-.25.78-.58 1.1-.84l1-.82c.31-.27.73-.63 1-.91l.94-.88c.29-.29.69-.67 1-1l.88-.93.89-1 .81-1c.24-.32.58-.75.82-1.08l.73-1c.23-.34.53-.79.75-1.14l.69-1.05c.2-.36.47-.83.67-1.2l.57-1.12c.18-.38.42-.88.59-1.26l.5-1.17c.15-.39.36-.92.5-1.32l.41-1.21c.12-.42.29-1 .41-1.4-2 7.49-8.85 10-17 5.45a32.6 32.6 0 0 1-9.29-8.15v.44"/><path fill="#f0f0f0" d="M39.28 43.794c-1.12 8.82-8 13.89-13.51 15.55a37.4 37.4 0 0 0 7.19 5.32c6.64 3.7 12.59 3.78 16.73.93l1.07-.77c.33-.25.78-.58 1.1-.84l1-.82c.31-.27.73-.63 1-.91l.94-.88c.29-.29.69-.67 1-1l.88-.93.89-1 .81-1c.24-.32.58-.75.82-1.08l.73-1c.23-.34.53-.79.75-1.14l.67-1.06c.2-.36.47-.83.67-1.2l.57-1.12c.18-.38.42-.88.59-1.26l.5-1.17c.15-.39.36-.92.5-1.32l.41-1.21c.12-.42.29-1 .41-1.4-2 7.49-8.85 10-17 5.45a32.2 32.2 0 0 1-8.72-7.48z"/><path fill="#ebebeb" d="M39.77 44.324c-.67 7.59-7.06 13.43-13.1 15.84a37 37 0 0 0 6.29 4.5c6.64 3.7 12.59 3.78 16.73.93l1.07-.77c.33-.25.78-.58 1.1-.84l1-.82c.31-.27.73-.63 1-.91l.94-.88c.29-.29.69-.67 1-1l.88-.93.89-1 .81-1c.24-.32.58-.75.82-1.08l.73-1c.23-.34.53-.79.75-1.14l.67-1.06c.2-.36.47-.83.67-1.2l.57-1.12c.18-.38.42-.88.59-1.26l.5-1.17c.15-.39.36-.92.5-1.32l.41-1.21c.12-.42.29-1 .41-1.4-2 7.49-8.85 10-17 5.45a31.5 31.5 0 0 1-8.16-6.77c0 .36-.05.85-.07 1.21"/><path fill="#e6e6e6" d="M40.35 45.014c-1.7 9.88-10.19 14.7-12.75 15.94a35.7 35.7 0 0 0 5.36 3.71c6.64 3.7 12.59 3.78 16.73.93l1.07-.77c.33-.25.78-.58 1.1-.84l1-.82c.31-.27.73-.63 1-.91l.94-.88c.29-.29.69-.67 1-1l.88-.93.89-1 .81-1c.24-.32.58-.75.82-1.08l.73-1c.23-.34.53-.79.75-1.14l.67-1.06c.2-.36.47-.83.67-1.2l.57-1.12c.18-.38.42-.88.59-1.26l.5-1.17c.15-.39.36-.92.5-1.32l.41-1.21c.12-.42.29-1 .41-1.4-2 7.49-8.85 10-17 5.45a30.6 30.6 0 0 1-7.56-6.13c0 .38 0 .88-.07 1.26"/><path fill="#e0e0e0" d="M40.95 45.624c-1.67 7.25-5.58 12.37-12.38 16.11a35 35 0 0 0 4.39 2.93c6.64 3.7 12.59 3.78 16.73.93l1.07-.77c.33-.25.78-.58 1.1-.84l1-.82c.31-.27.73-.63 1-.91l.94-.88c.29-.29.69-.67 1-1l.88-.93.89-1 .81-1c.24-.32.58-.75.82-1.08l.73-1c.23-.34.53-.79.75-1.14l.67-1.06c.2-.36.47-.83.67-1.2l.57-1.12c.18-.38.42-.88.59-1.26l.5-1.17c.15-.39.36-.92.5-1.32l.41-1.21c.12-.42.29-1 .41-1.4-2 7.49-8.85 10-17 5.45a30.2 30.2 0 0 1-6.92-5.44c0 .35-.05.83-.11 1.18"/><path fill="#dbdbdb" d="M41.65 45.704c-.13 1.63-1.3 10.1-12.09 16.77a35 35 0 0 0 3.4 2.19c6.64 3.7 12.59 3.78 16.73.93l1.07-.77c.33-.25.78-.58 1.1-.84l1-.82c.31-.27.73-.63 1-.91l.94-.88c.29-.29.69-.67 1-1l.88-.93.89-1 .81-1c.24-.32.58-.75.82-1.08l.73-1c.23-.34.53-.79.75-1.14l.67-1.06c.2-.36.47-.83.67-1.2l.57-1.12c.18-.38.42-.88.59-1.26l.5-1.17c.15-.39.36-.92.5-1.32l.41-1.21c.12-.42.29-1 .41-1.4-2 7.49-8.85 10-17 5.45a29.7 29.7 0 0 1-6.26-4.78l-.07.6"/><path fill="#d6d6d6" d="M42.35 46.934c-1.67 7-5.42 12.16-11.83 16.22.81.55 1.62 1.05 2.44 1.51 6.64 3.7 12.59 3.78 16.73.93l1.07-.77c.33-.25.78-.58 1.1-.84l1-.82c.31-.27.73-.63 1-.91l.94-.88c.29-.29.69-.67 1-1l.88-.93.89-1 .81-1c.24-.32.58-.75.82-1.08l.73-1c.23-.34.53-.79.75-1.14l.67-1.06c.2-.36.47-.83.67-1.2l.57-1.12c.18-.38.42-.88.59-1.26l.5-1.17c.15-.39.36-.92.5-1.32l.41-1.21c.12-.42.29-1 .41-1.4-2 7.49-8.85 10-17 5.45a29 29 0 0 1-5.51-4.06c0 .33-.07.78-.12 1.11"/><path fill="#d1d1d1" d="M43.15 47.374c-.22 1.62-1.78 10-11.65 16.42.49.31 1 .59 1.46.87 6.64 3.7 12.59 3.78 16.73.93 1.41-1 1.44-1 2.17-1.61l1-.82c.31-.27.73-.63 1-.91l.94-.88c.29-.29.69-.67 1-1l.88-.93.89-1 .81-1c.24-.32.58-.75.82-1.08l.73-1c.23-.34.53-.79.75-1.14l.67-1.06c.2-.36.47-.83.67-1.2l.57-1.12c.18-.38.42-.88.59-1.26l.5-1.17c.15-.39.36-.92.5-1.32l.41-1.21c.12-.42.29-1 .41-1.4-2 7.49-8.85 10-17 5.45a28.6 28.6 0 0 1-4.72-3.38c0 .24-.1.57-.13.82"/><path fill="#ccc" d="M44.01 48.314a25.55 25.55 0 0 1-11.55 16.06l.5.29c6.64 3.7 12.59 3.78 16.73.93l1.07-.77c.33-.25.78-.58 1.1-.84l1-.82c.31-.27.73-.63 1-.91l.94-.88c.29-.29.69-.67 1-1l.88-.93.89-1 .81-1c.24-.32.58-.75.82-1.08l.73-1c.23-.34.53-.79.75-1.14l.67-1.06c.2-.36.47-.83.67-1.2l.57-1.12c.18-.38.42-.88.59-1.26l.5-1.17c.15-.39.36-.92.5-1.32l.41-1.21c.12-.42.29-1 .41-1.4-2 7.49-8.85 10-17 5.45a27 27 0 0 1-3.81-2.59c0 .31-.1.72-.16 1"/><path fill="#c7c7c7" d="M45.02 48.564c-1 4.65-3.75 11.27-11.6 16.35 6.46 3.45 12.22 3.47 16.27.68l1.07-.77c.33-.25.78-.58 1.1-.84l1-.82c.31-.27.73-.63 1-.91l.94-.88c.29-.29.69-.67 1-1l.88-.93.89-1 .81-1c.24-.32.58-.75.82-1.08l.73-1c.23-.34.53-.79.75-1.14l.67-1.06c.2-.36.47-.83.67-1.2l.57-1.12c.18-.38.42-.88.59-1.26l.5-1.17c.15-.39.36-.92.5-1.32l.41-1.21c.12-.42.29-1 .41-1.4-2 7.49-8.85 10-17 5.45a26 26 0 0 1-2.85-1.85c0 .16-.08.37-.11.53"/><path fill="#c2c2c2" d="M45.91 49.674a25.7 25.7 0 0 1-11.54 15.72c6.07 3 11.47 2.85 15.32.2l1.07-.77c.33-.25.78-.58 1.1-.84l1-.82c.31-.27.73-.63 1-.91l.94-.88c.29-.29.69-.67 1-1l.88-.93.89-1 .81-1c.24-.32.58-.75.82-1.08l.73-1c.23-.34.53-.79.75-1.14l.67-1.06c.2-.36.47-.83.67-1.2l.57-1.12c.18-.38.42-.88.59-1.26l.5-1.17c.15-.39.36-.92.5-1.32l.41-1.21c.12-.42.29-1 .41-1.4-2 7.49-8.85 10-17 5.45-.63-.35-1.25-.73-1.86-1.15-.06.29-.14.66-.21.94"/><path fill="#bdbdbd" d="M46.91 50.294a26.2 26.2 0 0 1-11.63 15.53c5.69 2.52 10.74 2.28 14.39-.23l1.07-.77c.33-.25.78-.58 1.1-.84l1-.82c.31-.27.73-.63 1-.91l.94-.88c.29-.29.69-.67 1-1l.88-.93.89-1 .81-1c.24-.32.58-.75.82-1.08l.73-1c.23-.34.53-.79.75-1.14l.69-1.06c.2-.36.47-.83.67-1.2l.57-1.12c.18-.38.42-.88.59-1.26l.5-1.17c.15-.39.36-.92.5-1.32l.41-1.21c.12-.42.29-1 .41-1.4-2 7.49-8.85 10-17 5.45l-.84-.49-.23.9"/><path fill="#b8b8b8" d="M47.91 50.864a27 27 0 0 1-11.69 15.35c5.31 2.09 10 1.76 13.47-.62l1.07-.77c.33-.25.78-.58 1.1-.84l1-.82c.31-.27.73-.63 1-.91l.94-.88c.29-.29.69-.67 1-1l.88-.93.89-1 .81-1c.24-.32.58-.75.82-1.08l.73-1c.23-.34.53-.79.75-1.14l.67-1.06c.2-.36.47-.83.67-1.2l.57-1.12c.18-.38.42-.88.59-1.26l.5-1.17c.15-.39.36-.92.5-1.32l.41-1.21c.12-.42.29-1 .41-1.4-2 7.44-8.75 10-16.85 5.55-.07.26-.16.61-.24.88"/><path fill="#b3b3b3" d="M48.91 51.354a27.63 27.63 0 0 1-11 14.74l-.74.46c4.93 1.71 9.29 1.28 12.54-1l1.07-.77c.33-.25.78-.58 1.1-.84l1-.82c.31-.27.73-.63 1-.91l.94-.88c.29-.29.69-.67 1-1l.88-.93.89-1 .81-1c.24-.32.58-.75.82-1.08l.73-1c.23-.34.53-.79.75-1.14l.65-1.02c.2-.36.47-.83.67-1.2l.57-1.12c.18-.38.42-.88.59-1.26l.5-1.17c.15-.39.36-.92.5-1.32l.41-1.21c.12-.42.29-1 .41-1.4-1.93 7.13-8.2 9.75-15.84 6.06-.07.26-.17.61-.25.86"/><path fill="#adadad" d="M49.89 51.784a28.3 28.3 0 0 1-11.07 14.61l-.74.46c4.55 1.35 8.57.84 11.61-1.26l1.07-.77c.33-.25.78-.58 1.1-.84l1-.82c.31-.27.73-.63 1-.91l.94-.88c.29-.29.69-.67 1-1l.88-.93.89-1 .81-1c.24-.32.58-.75.82-1.08l.73-1c.23-.34.53-.79.75-1.14l.67-1.06c.2-.36.47-.83.67-1.2l.57-1.12c.18-.38.42-.88.59-1.26l.5-1.17c.15-.39.36-.92.5-1.32l.41-1.21c.12-.42.29-1 .41-1.4-1.85 6.82-7.66 9.51-14.85 6.51-.07.25-.17.59-.26.84"/><path fill="#a8a8a8" d="M50.88 52.164a29 29 0 0 1-11.11 14.5l-.75.47c4.16 1 7.84.43 10.67-1.52l1.07-.77c.33-.25.78-.58 1.1-.84l1-.82c.31-.27.73-.63 1-.91l.94-.88c.29-.29.69-.67 1-1l.88-.93.89-1 .81-1c.24-.32.58-.75.82-1.08l.73-1c.23-.34.53-.79.75-1.14l.67-1.08c.2-.36.47-.83.67-1.2l.57-1.12c.18-.38.42-.88.59-1.26l.5-1.17c.15-.39.36-.92.5-1.32l.41-1.21c.12-.42.29-1 .41-1.4-1.77 6.5-7.13 9.25-13.86 6.89-.08.25-.18.58-.26.82"/><path fill="#a3a3a3" d="M51.86 52.444a29.14 29.14 0 0 1-11.12 14.41l-.75.46a12.58 12.58 0 0 0 9.7-1.72l1.07-.77c.33-.25.78-.58 1.1-.84l1-.82c.31-.27.73-.63 1-.91l.94-.88c.29-.29.69-.67 1-1l.88-.93.89-1 .81-1c.24-.32.58-.75.82-1.08l.73-1c.23-.34.53-.79.75-1.14l.67-1.06c.2-.36.47-.83.67-1.2l.57-1.12c.18-.38.42-.88.59-1.26l.5-1.17c.15-.39.36-.92.5-1.32l.41-1.21c.12-.42.29-1 .41-1.4-1.68 6.18-6.61 9-12.88 7.2l-.26.81"/><path fill="#9e9e9e" d="M52.87 52.684a30 30 0 0 1-11.14 14.32l-.76.47a12.3 12.3 0 0 0 8.72-1.88l1.07-.77c.33-.25.78-.58 1.1-.84l1-.82c.31-.27.73-.63 1-.91l.94-.88c.29-.29.69-.67 1-1l.88-.93.89-1 .81-1c.24-.32.58-.75.82-1.08l.73-1c.23-.34.53-.79.75-1.14l.67-1.06c.2-.36.47-.83.67-1.2l.57-1.12c.18-.38.42-.88.59-1.26l.5-1.17c.15-.39.36-.92.5-1.32l.41-1.21c.12-.42.29-1 .41-1.4-1.59 5.85-6.09 8.66-11.87 7.45l-.26.8"/><path fill="#999" d="M53.9 52.844a29.85 29.85 0 0 1-11.12 14.25l-.77.48a12 12 0 0 0 7.68-2l1.07-.77c.33-.25.78-.58 1.1-.84l1-.82c.31-.27.73-.63 1-.91l.94-.88c.29-.29.69-.67 1-1l.88-.93.89-1 .81-1c.24-.32.58-.75.82-1.08l.73-1c.23-.34.53-.79.75-1.14l.67-1.04c.2-.36.47-.83.67-1.2l.57-1.12c.18-.38.42-.88.59-1.26l.5-1.17c.15-.39.36-.92.5-1.32l.41-1.21c.12-.42.29-1 .41-1.4-1.49 5.5-5.56 8.32-10.86 7.62-.07.24-.16.56-.24.79"/><path fill="#949494" d="M54.96 52.924a30.15 30.15 0 0 1-11.08 14.24l-.79.48c2.35.01 4.65-.686 6.6-2l1.07-.77c.33-.25.78-.58 1.1-.84l1-.82c.31-.27.73-.63 1-.91l.94-.88c.29-.29.69-.67 1-1l.88-.93.89-1 .81-1c.24-.32.58-.75.82-1.08l.73-1c.23-.34.53-.79.75-1.14l.67-1.11c.2-.36.47-.83.67-1.2l.57-1.12c.18-.38.42-.88.59-1.26l.5-1.17c.15-.39.36-.92.5-1.32l.41-1.21c.12-.42.29-1 .41-1.4-1.39 5.12-5 7.92-9.79 7.72-.07.23-.16.54-.25.77"/><path fill="#8f8f8f" d="M56.13 52.904a30.66 30.66 0 0 1-11.09 14.14l-.78.49a11.45 11.45 0 0 0 5.43-1.94l1.07-.77c.33-.25.78-.58 1.1-.84l1-.82c.31-.27.73-.63 1-.91l.94-.88c.29-.29.69-.67 1-1l.88-.93.89-1 .81-1c.24-.32.58-.75.82-1.08l.73-1c.23-.34.53-.79.75-1.14l.67-1.06c.2-.36.47-.83.67-1.2l.57-1.12c.18-.38.42-.88.59-1.26l.5-1.17c.15-.39.36-.92.5-1.32l.41-1.21c.12-.42.29-1 .41-1.4-1.28 4.7-4.44 7.44-8.63 7.7-.07.23-.16.54-.24.77"/><path fill="#8a8a8a" d="M57.42 52.724a30.4 30.4 0 0 1-11 14.1l-.81.5a11.2 11.2 0 0 0 4.08-1.73l1.07-.77c.33-.25.78-.58 1.1-.84l1-.82c.31-.27.73-.63 1-.91l.94-.88c.29-.29.69-.67 1-1l.88-.93.89-1 .81-1c.24-.32.58-.75.82-1.08l.73-1c.23-.34.53-.79.75-1.14l.67-1.06c.2-.36.47-.83.67-1.2l.57-1.12c.18-.38.42-.88.59-1.26l.5-1.17c.15-.39.36-.92.5-1.32l.41-1.21c.12-.42.29-1 .41-1.4-1.14 4.22-3.8 6.85-7.36 7.54-.07.23-.15.53-.22.75"/><path fill="#858585" d="M49.69 65.594c1.41-1 1.44-1 2.17-1.61l1-.82c.31-.27.73-.63 1-.91l.94-.88c.29-.29.69-.67 1-1l.88-.93.89-1 .81-1c.24-.32.58-.75.82-1.08l.73-1c.23-.34.53-.79.75-1.14l.67-1.06c.2-.36.47-.83.67-1.2l.57-1.12c.18-.38.42-.88.59-1.26l.5-1.17c.15-.39.36-.92.5-1.32l.41-1.21c.12-.42.29-1 .41-1.4-1 3.59-3 6-5.84 7.11-.23.85-2.49 8.44-11.08 14.78l-.8.49a11.2 11.2 0 0 0 2.45-1.27"/><path fill="#fff" d="M9.56 25.054a43.4 43.4 0 0 0 3.72 16.18l.53-1c5.09-7.41 15.89-10.07 22.17-2.29-3.7-5.84-6.07-12.63-6.15-18.78a59.4 59.4 0 0 0-20.27 5.88"/><path fill="#fff" d="M9.56 25.054a42.9 42.9 0 0 0 3.35 15.35l.57-.89c1-1.22 9.79-11.7 21.14-3.87a36.15 36.15 0 0 1-4.79-16.48 59.4 59.4 0 0 0-20.27 5.88"/><path fill="#fafafa" d="M9.56 25.054a42.4 42.4 0 0 0 3 14.51l.6-.83c10.32-11.37 20.77-4.22 20.87-4.15a35.6 35.6 0 0 1-4.2-15.42 59.4 59.4 0 0 0-20.27 5.88"/><path fill="#f5f5f5" d="M9.56 25.054a41.7 41.7 0 0 0 2.72 13.64l.61-.82c3.43-3.57 10.67-8.87 20.75-4.17a34.9 34.9 0 0 1-3.81-14.54 59.4 59.4 0 0 0-20.27 5.88"/><path fill="#f0f0f0" d="M9.56 25.054a41 41 0 0 0 2.35 12.66l.64-.74c3-2.72 11-8.56 20.69-4.05a34.4 34.4 0 0 1-3.41-13.76 59.4 59.4 0 0 0-20.27 5.88"/><path fill="#ebebeb" d="M9.56 25.054a40.3 40.3 0 0 0 2 11.68l.68-.66c10.1-7.91 18.36-5.01 20.65-3.91a33.9 33.9 0 0 1-3.06-13 59.4 59.4 0 0 0-20.27 5.88"/><path fill="#e6e6e6" d="M9.56 25.054a39.6 39.6 0 0 0 1.72 10.65l.7-.63c6.67-4.95 14-6.26 20.59-3.7a33.5 33.5 0 0 1-2.74-12.21 59.4 59.4 0 0 0-20.27 5.88"/><path fill="#e0e0e0" d="M9.56 25.054a38.6 38.6 0 0 0 1.39 9.52l.71-.56c7-4.63 13.88-5.79 20.58-3.42a33 33 0 0 1-2.41-11.43 59.4 59.4 0 0 0-20.27 5.88"/><path fill="#fff" d="M21.33 37.634c-4.66 2.78-4.69 6.63-4.71 9.18 0 3.19 4.57 4.84 4.61 4.86 9.42 2.62 14.74-6.87 12.29-11.71-1.76-3.48-7.35-5.22-12.19-2.33"/><path fill="#dbdbdb" d="M9.56 25.054a38 38 0 0 0 1.1 8.4l.74-.49c7.11-4.28 14.6-5.44 20.54-3.18a32.4 32.4 0 0 1-2.11-10.62 59.4 59.4 0 0 0-20.27 5.88"/><path fill="#fff" d="M21.5 38.014a8.66 8.66 0 0 0-4.29 8.46c.09 1.82 2.19 4.31 4.89 4.91 8.12 1.78 13.52-6.37 11.06-11.22-2.14-4.2-7.86-4.52-11.66-2.18"/><path fill="#d6d6d6" d="M9.56 25.054a37.3 37.3 0 0 0 .84 7.24l.74-.47c6.7-3.84 14.35-4.94 20.47-2.95a32 32 0 0 1-1.78-9.71 59.4 59.4 0 0 0-20.27 5.88"/><path fill="#fff" d="M21.67 38.394c-5.33 3.38-5.31 10.33 0 12.38 6.35 2.44 13.92-4.61 11.13-10.35-1.81-3.7-7-4.65-11.13-2"/><path fill="#d1d1d1" d="M9.56 25.054a35.6 35.6 0 0 0 .61 6.11l.75-.44c9-4.93 16.66-3.83 20.4-2.73a31.3 31.3 0 0 1-1.49-8.83 59.4 59.4 0 0 0-20.27 5.88"/><path fill="#fff" d="M21.85 38.774a7.51 7.51 0 0 0-3.64 7.12c.16 2.67 3.49 4.45 4.33 4.6a8.67 8.67 0 0 0 8.29-2.5c.69-.69 3.15-4.17 1.6-7.34-1.93-3.93-7.12-4.14-10.58-1.88"/><path fill="#ccc" d="M9.56 25.054a35 35 0 0 0 .42 4.93l.75-.42c9.76-5.15 18-3.32 20.28-2.64a30.4 30.4 0 0 1-1.18-7.76 59.4 59.4 0 0 0-20.27 5.88"/><path fill="#fff" d="M22.03 39.164c-4.42 3-4.75 9.13.8 10.93a8.2 8.2 0 0 0 7.72-2.44c1.22-1.22 2.72-4.13 1.5-6.75-1.54-3.33-6.42-4.17-10-1.74"/><path fill="#fff" d="M22.21 39.524a6.82 6.82 0 0 0-3 5.79 5.32 5.32 0 0 0 4.2 4.4c4.41 1.08 10.33-4.11 8.25-8.57a5.1 5.1 0 0 0-1.71-2 10.9 10.9 0 0 0-3.33-1 7.3 7.3 0 0 0-4.42 1.37"/><path fill="#c7c7c7" d="M9.56 25.054q.018 1.903.26 3.79l.76-.42a28.3 28.3 0 0 1 20.15-2.58 29.4 29.4 0 0 1-.9-6.67 59.4 59.4 0 0 0-20.27 5.88"/><path fill="#fff" d="M22.39 39.904a7.33 7.33 0 0 0-2.66 5.11 5.7 5.7 0 0 0 1.18 2.77c.979.634 2.03 1.151 3.13 1.54a7.21 7.21 0 0 0 7.42-4.89 19 19 0 0 0-.2-3c-1.3-2.95-5.78-3.7-8.87-1.49"/><path fill="#c2c2c2" d="M9.56 25.054c0 .88.06 1.76.14 2.66a29.15 29.15 0 0 1 20.76-3 29.3 29.3 0 0 1-.63-5.55 59.4 59.4 0 0 0-20.27 5.88"/><path fill="#fff" d="M22.61 40.344a7.07 7.07 0 0 0-2.33 4.36 6.14 6.14 0 0 0 1.13 2.78 11 11 0 0 0 3.33 1.4 6.87 6.87 0 0 0 6.07-3.92 13.3 13.3 0 0 0 0-3.31l-1.8-2s-3.71-1.53-6.44.7"/><path fill="#fff" d="M22.88 40.854a6.4 6.4 0 0 0-2 3.52c.36 1.1 1.08 2.79 1.09 2.79a10 10 0 0 0 3.45 1.18 6.17 6.17 0 0 0 4.08-2.12 3.18 3.18 0 0 0 .87-1.93 4.5 4.5 0 0 0 .06-2.35l-1.84-2a2.5 2.5 0 0 0-1.1-.23 5.56 5.56 0 0 0-4.57 1.15"/><path fill="#bdbdbd" d="M9.56 25.054v1.54l.76-.41a29.68 29.68 0 0 1 19.96-2.68 28 28 0 0 1-.45-4.34 59.4 59.4 0 0 0-20.27 5.88"/><path fill="#fff" d="M23.15 41.364a5.8 5.8 0 0 0-1.7 2.66 4 4 0 0 0 1 2.81s2.92 1.69 5.32.21 2.12-4.77 2.11-4.8-1.6-2-2.17-2a5.6 5.6 0 0 0-4.59 1.15"/><path fill="#fff" d="M23.43 41.874a5.7 5.7 0 0 0-1.26 1.73 4.06 4.06 0 0 0 .9 2.87c.08.08 2.64 1 4.31 0a4.72 4.72 0 0 0 2-3.87s-2-1.94-2.07-1.94a5 5 0 0 0-3.86 1.22"/><path fill="#b8b8b8" d="M9.56 25.054v.43l.76-.41a30.15 30.15 0 0 1 19.73-2.77 28 28 0 0 1-.22-3.14 59.4 59.4 0 0 0-20.27 5.88"/><path fill="#fff" d="M23.71 42.384c-.19.18-.58.4-.57.67a27 27 0 0 0 .62 3 4.56 4.56 0 0 0 3.15-.26 3.79 3.79 0 0 0 1.8-2.79 3.26 3.26 0 0 0-2.3-1.84 4.7 4.7 0 0 0-2.7 1.21"/><path fill="#b3b3b3" d="M21.01 20.784a31 31 0 0 1 8.92.33c-.06-.65-.09-1.3-.1-1.94a64 64 0 0 0-8.82 1.61"/><path fill="#fff" d="M24.6 43.904c-.08.47-.28 1.27.08 1.59s1.31-.1 1.77-.39c1.26-.78 1.4-1.56 1.4-1.57s-1.87-1.37-2.79-.65a1.9 1.9 0 0 0-.46 1"/><path fill="#adadad" d="M26.91 19.574c1.22.09 2 .21 2.94.35v-.75c-1 .11-1.95.24-2.92.4"/><path fill="#fff" d="M42.99 6.564c-8.9-2.13-17.12-1.24-25.88 2.79-4.75 2.29-7.65 7.76-7.55 15.7a59.4 59.4 0 0 1 20.27-5.89c-.11-9.64 5.45-14.58 13.16-12.6"/><path fill="#fff" d="M40.28 5.984c-1.59-.25-1.69-.26-2.66-.36l-1.24-.1c-.42 0-1-.06-1.41-.07h-2.59l-1.26.07-1.37.13-1.25.17-1.35.22-1.25.25-1.33.32-1.24.33-1.31.41-1.22.42c-.39.15-.91.34-1.3.5l-1.2.5c-.38.18-.88.4-1.26.59-4.68 2.25-7.58 7.72-7.48 15.66a59.4 59.4 0 0 1 20.27-5.86c-.11-9.64 5.45-14.58 13.16-12.6l-1.22-.29z"/><path fill="#fff" d="M40.28 5.984c-1.59-.25-1.69-.26-2.66-.36l-1.24-.1c-.42 0-1-.06-1.41-.07h-2.59l-1.26.07-1.37.13-1.25.17-1.35.22-1.25.25-1.33.32-1.24.33-1.31.41-1.22.42c-.39.15-.91.34-1.3.5l-1.2.5c-.38.18-.88.4-1.26.59-4.68 2.25-7.58 7.72-7.48 15.66a59.4 59.4 0 0 1 20.27-5.86c-.11-9.64 5.45-14.58 13.16-12.6l-1.22-.29z"/><path fill="#fff" d="M40.28 5.984c-1.59-.25-1.69-.26-2.66-.36l-1.24-.1c-.42 0-1-.06-1.41-.07h-2.59l-1.26.07-1.37.13-1.25.17-1.35.22-1.25.25-1.33.32-1.24.33-1.31.41-1.22.42c-.39.15-.91.34-1.3.5l-1.2.5c-.38.18-.88.4-1.26.59-4.68 2.25-7.58 7.72-7.48 15.66a59.4 59.4 0 0 1 20.27-5.86c-.11-9.64 5.45-14.58 13.16-12.6l-1.22-.29z"/><path fill="#fff" d="M40.28 5.984c-1.59-.25-1.69-.26-2.66-.36l-1.24-.1c-.42 0-1-.06-1.41-.07h-2.59l-1.26.07-1.37.13-1.25.17-1.35.22-1.25.25-1.33.32-1.24.33-1.31.41-1.22.42c-.39.15-.91.34-1.3.5l-1.2.5c-.38.18-.88.4-1.26.59-4.68 2.25-7.58 7.72-7.48 15.66a59.4 59.4 0 0 1 20.27-5.86c-.11-9.64 5.45-14.58 13.16-12.6l-1.22-.29z"/><path fill="#fff" d="M40.28 5.984c-1.59-.25-1.69-.26-2.66-.36l-1.24-.1c-.42 0-1-.06-1.41-.07h-2.59l-1.26.07-1.37.13-1.25.17-1.35.22-1.25.25-1.33.32-1.24.33-1.31.41-1.22.42c-.39.15-.91.34-1.3.5l-1.2.5c-.38.18-.88.4-1.26.59-4.68 2.25-7.58 7.72-7.48 15.66a59.4 59.4 0 0 1 20.27-5.86c-.11-9.64 5.45-14.58 13.16-12.6l-1.22-.29z"/><path fill="#fff" d="M40.28 5.984c-1.59-.25-1.69-.26-2.66-.36l-1.24-.1c-.42 0-1-.06-1.41-.07h-2.59l-1.26.07-1.37.13-1.25.17-1.35.22-1.25.25-1.33.32-1.24.33-1.31.41-1.22.42c-.39.15-.91.34-1.3.5l-1.2.5c-.38.18-.88.4-1.26.59-4.68 2.25-7.58 7.72-7.48 15.66a59.4 59.4 0 0 1 20.27-5.86c-.11-9.64 5.45-14.58 13.16-12.6l-1.22-.29z"/><path fill="#fff" d="M40.28 5.984c-1.59-.25-1.69-.26-2.66-.36l-1.24-.1c-.42 0-1-.06-1.41-.07h-2.59l-1.26.07-1.37.13-1.25.17-1.35.22-1.25.25-1.33.32-1.24.33-1.31.41-1.22.42c-.39.15-.91.34-1.3.5l-1.2.5c-.38.18-.88.4-1.26.59-4.68 2.25-7.58 7.72-7.48 15.66a59.4 59.4 0 0 1 20.27-5.86c-.11-9.64 5.45-14.58 13.16-12.6l-1.22-.29z"/><path fill="#fff" d="M40.28 5.984c-1.59-.25-1.69-.26-2.66-.36l-1.24-.1c-.42 0-1-.06-1.41-.07h-2.59l-1.26.07-1.37.13-1.25.17-1.35.22-1.25.25-1.33.32-1.24.33-1.31.41-1.22.42c-.39.15-.91.34-1.3.5l-1.2.5c-.38.18-.88.4-1.26.59-4.68 2.25-7.58 7.72-7.48 15.66a59.4 59.4 0 0 1 20.27-5.86c-.11-9.64 5.45-14.58 13.16-12.6l-1.22-.29z"/><path fill="#fafafa" d="M40.28 5.984c-1.59-.25-1.69-.26-2.66-.36l-1.24-.1c-.42 0-1-.06-1.41-.07h-2.59l-1.26.07-1.37.13-1.25.17-1.35.22-1.25.25-1.33.32-1.24.33-1.31.41-1.22.42c-.39.15-.91.34-1.3.5l-1.2.5c-.38.18-.88.4-1.26.59-4.68 2.25-7.58 7.72-7.48 15.66a59.4 59.4 0 0 1 20.27-5.86c-.11-9.64 5.45-14.58 13.16-12.6l-1.22-.29z"/><path fill="#f5f5f5" d="M40.28 5.984c-1.59-.25-1.69-.26-2.66-.36l-1.24-.1c-.42 0-1-.06-1.41-.07h-2.59l-1.26.07-1.37.13-1.25.17-1.35.22-1.25.25-1.33.32-1.24.33-1.31.41-1.22.42c-.39.15-.91.34-1.3.5l-1.2.5c-.38.18-.88.4-1.26.59-4.68 2.25-7.58 7.72-7.48 15.66a59.4 59.4 0 0 1 20.27-5.86c-.11-9.64 5.45-14.58 13.16-12.6l-1.22-.29z"/><path fill="#f0f0f0" d="M40.28 5.984c-1.59-.25-1.69-.26-2.66-.36l-1.24-.1c-.42 0-1-.06-1.41-.07h-2.59l-1.26.07-1.37.13-1.25.17-1.35.22-1.25.25-1.33.32-1.24.33-1.31.41-1.22.42c-.39.15-.91.34-1.3.5l-1.2.5c-.38.18-.88.4-1.26.59-4.68 2.25-7.58 7.72-7.48 15.66a59.4 59.4 0 0 1 20.27-5.86c-.11-9.64 5.45-14.58 13.16-12.6l-1.22-.29z"/><path fill="#ebebeb" d="M40.28 5.984c-1.59-.25-1.69-.26-2.66-.36l-1.24-.1c-.42 0-1-.06-1.41-.07h-2.59l-1.26.07-1.37.13-1.25.17-1.35.22-1.25.25-1.33.32-1.24.33-1.31.41-1.22.42c-.39.15-.91.34-1.3.5l-1.2.5c-.38.18-.88.4-1.26.59-4.68 2.25-7.58 7.72-7.48 15.66a59.4 59.4 0 0 1 20.27-5.86c-.11-9.64 5.45-14.58 13.16-12.6l-1.22-.29z"/><path fill="#e6e6e6" d="M40.28 5.984c-1.59-.25-1.69-.26-2.66-.36l-1.24-.1c-.42 0-1-.06-1.41-.07h-2.59l-1.26.07-1.37.13-1.25.17-1.35.22-1.25.25-1.33.32-1.24.33-1.31.41-1.22.42c-.39.15-.91.34-1.3.5l-1.2.5c-.38.18-.88.4-1.26.59-4.68 2.25-7.58 7.72-7.48 15.66a59.4 59.4 0 0 1 20.27-5.86c-.11-9.64 5.45-14.58 13.16-12.6l-1.22-.29z"/><path fill="#e0e0e0" d="M40.28 5.984c-1.59-.25-1.69-.26-2.66-.36l-1.24-.1c-.42 0-1-.06-1.41-.07h-2.59l-1.26.07-1.37.13-1.25.17-1.35.22-1.25.25-1.33.32-1.24.33-1.31.41-1.22.42c-.39.15-.91.34-1.3.5l-1.2.5c-.38.18-.88.4-1.26.59-4.68 2.25-7.58 7.72-7.48 15.66a59.4 59.4 0 0 1 20.27-5.86c-.11-9.64 5.45-14.58 13.16-12.6l-1.22-.29z"/><path fill="#dbdbdb" d="M40.28 5.984c-1.59-.25-1.69-.26-2.66-.36l-1.24-.1c-.42 0-1-.06-1.41-.07h-2.59l-1.26.07-1.37.13-1.25.17-1.35.22-1.25.25-1.33.32-1.24.33-1.31.41-1.22.42c-.39.15-.91.34-1.3.5l-1.2.5c-.38.18-.88.4-1.26.59-4.68 2.25-7.58 7.72-7.48 15.66a59.4 59.4 0 0 1 20.27-5.86c-.11-9.64 5.45-14.58 13.16-12.6l-1.22-.29z"/><path fill="#d6d6d6" d="M40.28 5.984c-1.59-.25-1.69-.26-2.66-.36l-1.24-.1c-.42 0-1-.06-1.41-.07h-2.59l-1.26.07-1.37.13-1.25.17-1.35.22-1.25.25-1.33.32-1.24.33-1.31.41-1.22.42c-.39.15-.91.34-1.3.5l-1.2.5c-.38.18-.88.4-1.26.59-4.68 2.25-7.58 7.72-7.48 15.66a59.4 59.4 0 0 1 20.27-5.86c-.11-9.64 5.45-14.58 13.16-12.6l-1.22-.29z"/><path fill="#d1d1d1" d="M40.28 5.984c-1.59-.25-1.69-.26-2.66-.36l-1.24-.1c-.42 0-1-.06-1.41-.07h-2.59l-1.26.07-1.37.13-1.25.17-1.35.22-1.25.25-1.33.32-1.24.33-1.31.41-1.22.42c-.39.15-.91.34-1.3.5l-1.2.5c-.38.18-.88.4-1.26.59-4.68 2.25-7.58 7.72-7.48 15.66a59.4 59.4 0 0 1 20.27-5.86c-.11-9.64 5.45-14.58 13.16-12.6l-1.22-.29z"/><path fill="#ccc" d="M40.28 5.984c-1.59-.25-1.69-.26-2.66-.36l-1.24-.1c-.42 0-1-.06-1.41-.07h-2.59l-1.26.07-1.37.13-1.25.17-1.35.22-1.25.25-1.33.32-1.24.33-1.31.41-1.22.42c-.39.15-.91.34-1.3.5l-1.2.5c-.38.18-.88.4-1.26.59-4.68 2.25-7.58 7.72-7.48 15.66a59.4 59.4 0 0 1 20.27-5.86c-.11-9.64 5.45-14.58 13.16-12.6l-1.22-.29z"/><path fill="#c7c7c7" d="M40.28 5.984c-1.59-.25-1.69-.26-2.66-.36l-1.24-.1c-.42 0-1-.06-1.41-.07h-2.59l-1.26.07-1.37.13-1.25.17-1.35.22-1.25.25-1.33.32-1.24.33-1.31.41-1.22.42c-.39.15-.91.34-1.3.5l-1.2.5c-.38.18-.88.4-1.26.59-4.68 2.25-7.58 7.72-7.48 15.66a59.4 59.4 0 0 1 20.27-5.86c-.11-9.64 5.45-14.58 13.16-12.6l-1.22-.29z"/><path fill="#c2c2c2" d="M40.28 5.984c-1.59-.25-1.69-.26-2.66-.36l-1.24-.1c-.42 0-1-.06-1.41-.07h-2.59l-1.26.07-1.37.13-1.25.17-1.35.22-1.25.25-1.33.32-1.24.33-1.31.41-1.22.42c-.39.15-.91.34-1.3.5l-1.2.5c-.38.18-.88.4-1.26.59-4.68 2.25-7.58 7.72-7.48 15.66a59.4 59.4 0 0 1 20.27-5.86c-.11-9.64 5.45-14.58 13.16-12.6l-1.22-.29z"/><path fill="#bdbdbd" d="M40.28 5.984c-1.59-.25-1.69-.26-2.66-.36l-1.24-.1c-.42 0-1-.06-1.41-.07h-2.59l-1.26.07-1.37.13-1.25.17-1.35.22-1.25.25-1.33.32-1.24.33-1.31.41-1.22.42c-.39.15-.91.34-1.3.5l-1.2.5c-.38.18-.88.4-1.26.59-4.68 2.25-7.58 7.72-7.48 15.66a59.4 59.4 0 0 1 20.27-5.86c-.11-9.64 5.45-14.58 13.16-12.6l-1.22-.29z"/><path fill="#b8b8b8" d="M40.28 5.984c-1.59-.25-1.69-.26-2.66-.36l-1.24-.1c-.42 0-1-.06-1.41-.07h-2.59l-1.26.07-1.37.13-1.25.17-1.35.22-1.25.25-1.33.32-1.24.33-1.31.41-1.22.42c-.39.15-.91.34-1.3.5l-1.2.5c-.38.18-.88.4-1.26.59-4.68 2.25-7.58 7.72-7.48 15.66a59.4 59.4 0 0 1 20.27-5.86c-.11-9.64 5.45-14.58 13.16-12.6l-1.22-.29z"/><path fill="#b3b3b3" d="M40.28 5.984c-1.59-.25-1.69-.26-2.66-.36l-1.24-.1c-.42 0-1-.06-1.41-.07h-2.59l-1.26.07-1.37.13-1.25.17-1.35.22-1.25.25-1.33.32-1.24.33-1.31.41-1.22.42c-.39.15-.91.34-1.3.5l-1.2.5c-.38.18-.88.4-1.26.59-4.54 2.19-7.41 7.41-7.48 15l.76-.42a30.1 30.1 0 0 1 10.69-3.16 64 64 0 0 1 8.82-1.62c-.11-9.64 5.45-14.58 13.16-12.6l-1.22-.29z"/><path fill="#adadad" d="M40.28 5.984c-1.59-.25-1.69-.26-2.66-.36l-1.24-.1c-.42 0-1-.06-1.41-.07h-2.59l-1.26.07-1.37.13-1.25.17-1.35.22-1.25.25-1.33.32-1.24.33-1.31.41-1.22.42c-.39.15-.91.34-1.3.5l-1.2.5c-.38.18-.88.4-1.26.59-4.32 2.08-7.12 6.9-7.45 13.87l.76-.43a30.7 30.7 0 0 1 16.56-3.26c1-.16 1.95-.29 2.92-.4-.11-9.62 5.45-14.56 13.16-12.58l-1.22-.29z"/><path fill="#a8a8a8" d="M40.28 5.984c-1.59-.25-1.69-.26-2.66-.36l-1.24-.1c-.42 0-1-.06-1.41-.07h-2.59l-1.26.07-1.37.13-1.25.17-1.35.22-1.25.25-1.33.32-1.24.33-1.31.41-1.22.42c-.39.15-.91.34-1.3.5l-1.2.5c-.38.18-.88.4-1.26.59-4.09 2-6.82 6.4-7.38 12.79l.77-.44a32 32 0 0 1 19.4-3c.05-9.37 5.59-14.13 13.16-12.18l-1.22-.29z"/><path fill="#a3a3a3" d="M40.28 5.984c-1.59-.25-1.69-.26-2.66-.36l-1.24-.1c-.42 0-1-.06-1.41-.07h-2.59l-1.26.07-1.37.13-1.25.17-1.35.22-1.25.25-1.33.32-1.24.33-1.31.41-1.22.42c-.39.15-.91.34-1.3.5l-1.2.5c-.38.18-.88.4-1.26.59-3.85 1.85-6.5 5.89-7.26 11.68l.77-.44a32.3 32.3 0 0 1 19.32-3c.48-8.6 5.87-12.89 13.12-11l-1.22-.29z"/><path fill="#9e9e9e" d="M40.28 5.984c-1.59-.25-1.69-.26-2.66-.36l-1.24-.1c-.42 0-1-.06-1.41-.07h-2.59l-1.26.07-1.37.13-1.25.17-1.35.22-1.25.25-1.33.32-1.24.33-1.31.41-1.22.42c-.39.15-.91.34-1.3.5l-1.2.5c-.38.18-.88.4-1.26.59-3.61 1.8-6.16 5.42-7.09 10.64l.77-.46a32.64 32.64 0 0 1 19.25-3.11c.88-7.83 6.1-11.65 13-9.87l-1.22-.29z"/><path fill="#999" d="M40.28 5.984c-1.59-.25-1.69-.26-2.66-.36l-1.24-.1c-.42 0-1-.06-1.41-.07h-2.59l-1.26.07-1.37.13-1.25.17-1.35.22-1.25.25-1.33.32-1.24.33-1.31.41-1.22.42c-.39.15-.91.34-1.3.5l-1.2.5c-.38.18-.88.4-1.26.59-3.34 1.61-5.77 4.85-6.85 9.45l.78-.46a32.4 32.4 0 0 1 19.16-3.08c1.24-7.06 6.28-10.44 12.86-8.74l-1.22-.29z"/><path fill="#949494" d="M40.28 5.984c-1.59-.25-1.69-.26-2.66-.36l-1.24-.1c-.42 0-1-.06-1.41-.07h-2.59l-1.26.07-1.37.13-1.25.17-1.35.22-1.25.25-1.33.32-1.24.33-1.31.41-1.22.42c-.39.15-.91.34-1.3.5l-1.2.5c-.38.18-.88.4-1.26.59-3.06 1.47-5.35 4.31-6.55 8.32l.79-.47a32.83 32.83 0 0 1 19.1-3.05c1.58-6.25 6.41-9.16 12.61-7.56l-1.22-.29z"/><path fill="#8f8f8f" d="M40.28 5.984c-1.59-.25-1.69-.26-2.66-.36l-1.24-.1c-.42 0-1-.06-1.41-.07h-2.59l-1.26.07-1.37.13-1.25.17-1.35.22-1.25.25-1.33.32-1.24.33-1.31.41-1.22.42c-.39.15-.91.34-1.3.5l-1.2.5c-.38.18-.88.4-1.26.59a12.43 12.43 0 0 0-6.13 7.07l.8-.47a33.05 33.05 0 0 1 19-3.08c1.87-5.41 6.47-7.84 12.25-6.35l-1.22-.29z"/><path fill="#8a8a8a" d="M40.28 5.984c-1.59-.25-1.69-.26-2.66-.36l-1.24-.1c-.42 0-1-.06-1.41-.07h-2.59l-1.26.07-1.37.13-1.25.17-1.35.22-1.25.25-1.33.32-1.24.33-1.31.41-1.22.42c-.39.15-.91.34-1.3.5l-1.2.5c-.38.18-.88.4-1.26.59a12 12 0 0 0-5.55 5.8l.83-.5c9.86-4.62 18-3.18 18.94-3 2.12-4.5 6.43-6.5 11.73-5.1l-1.22-.29z"/><path fill="#858585" d="M40.28 5.984c-1.59-.25-1.69-.26-2.66-.36l-1.24-.1c-.42 0-1-.06-1.41-.07h-2.59l-1.26.07-1.37.13-1.25.17-1.35.22-1.25.25-1.33.32-1.24.33-1.31.41-1.22.42c-.39.15-.91.34-1.3.5l-1.2.5c-.38.18-.88.4-1.26.59a11.5 11.5 0 0 0-4.66 4.2l.87-.53c10.36-4.8 18.76-2.87 18.85-2.87 2.31-3.44 6.21-4.8 10.89-3.59l-1.22-.29z"/><path fill="#2e8be6" d="M65.53 41.354q0-.46.06-1v-2.19a.4.4 0 0 1 0-.11v-.12a.6.6 0 0 0 0-.13v-.09a.2.2 0 0 0 0-.08v-.57a.6.6 0 0 0 0-.13v-.51a.3.3 0 0 0 0-.1v-.28a.4.4 0 0 1 0-.11v-.62a.8.8 0 0 0-.31-.15v-.26a.7.7 0 0 1 0-.14v-.18a.5.5 0 0 0 0-.12v-.32c0-.07 0-.24-.07-.36a.5.5 0 0 0 0-.11v-.54a.3.3 0 0 0 0-.09l-.09-.41v-.21c0-.07 0-.17-.07-.26s0-.07 0-.1v-.29a1 1 0 0 0 0-.14l-.06-.25a1 1 0 0 1 0-.16c0-.12-.07-.23-.1-.35l-.09-.3c0-.07 0-.14-.07-.22a1 1 0 0 0 0-.13c0-.15-.09-.29-.14-.43l-.06-.19c0-.14-.09-.28-.14-.42a1 1 0 0 0 0-.16l-.09-.23c-.07-.21-.15-.42-.23-.63l-.79-.36a2 2 0 0 1-.1-.25v-.06l-.21-.33-.15-.36c-.1-.24-.2-.48-.31-.72s-.08-.2-.13-.3l-.45-1a43.5 43.5 0 0 0-6.11-9.35c-.06-.08-.13-.15-.2-.23l-.6-.67-.31-.37-.61-.63-.24-.24-.12-.13-.33-.32-.44-.42-.13-.12-.24-.14-.32-.29-.26-.22-.17-.15-.09-.07-.17-.15-.2-.16-.32-.26-.11-.08-.07-.06-.08-.07-.09-.07-.44-.33-.13-.09-.12-.08-.18-.13-.12-.09a.5.5 0 0 0-.09-.06l-.36-.26-.09-.05-.18-.12-.37-.24-.09-.06-.08-.05-.11-.06-.75-.44-.27-.15h-.09c-.31-.17-.63-.34-.95-.49l-.13-.06-.11-.05-.57-.25-.13-.05-.12-.05-.11-.05-.3-.21h-.07l-.25-.09-.17-.06-.34-.12h-.19l-.19-.06h-.06l-.62-.18h-.17l-1.19-.28c-.81-.18-1.32-.26-1.4-.27h-.06l-.25-.05h-.08l-.85-.13-1.26-.15c-.41-.05-1-.09-1.38-.11s-.84-.05-1.23-.06h-3.21l-.8.06h-.16l-1.41.14-.91.13-.54.08c-.45.07-.82.13-1 .17h-.47l-.78.16-1.24.3c-.4.09-.93.24-1.32.36s-.92.27-1.31.41l-.83.29h.06l-.4.14-1.22.47c-.37.14-.7.28-1.16.49l-.11.05-1.19.55c.24-.12.49-.22.74-.32H18l.47-.16h.32l.43-.11h.46l.44-.07h.48l.44-.05h2.49l.55.06h.12l.3.05.39.06h.06l.24.05.27.05.35.08h.15l.24.06.25.07.3.08.2.06.27.08.24.07.25.08.22.08.31.11.24.09.19.07.26.1.38.16.23.1.16.06.24.11c.15.06.3.14.44.21l.3.14.29.14.5.26.81-.01c.38.21.75.44 1.13.67l.1.06.1.06.12.08.11.07h.06l.63.41.17.12.23.15.19.14.1.07.53.38q.16.107.31.23l.28.21.13.1.44.34.26.21.35.29.5.42.23.19.42.38.55.49.09.08.48.46c.21.19.41.39.6.58l.5.5.59.61.61.66.31.35c.23.25.45.5.67.76l.14.16.14.16c.29.34.57.69.85 1l.16.2.71.91.27.37a56 56 0 0 1 4.94 7.78c0 .07.07.15.11.23l.48.95.21.43.1.22.32.68c0 .12.11.24.16.37l.18.39c.09.21.19.43.28.65l.06.14.05.13c.07.16.13.32.2.49s.21.51.31.77c.08.2.15.4.22.6s.2.52.29.78l.09.26c.12.34.23.69.35 1v.1c0 .11.07.22.1.33s.07.22.1.33c.09.29.18.59.26.88 0 .09 0 .18.08.27s.08.32.13.48.15.6.23.9v.08c0 .18.08.37.13.55v.11c.07.29.13.59.19.88s.06.32.1.49v.14c0 .21.08.41.11.62l.06.34.06.37v.39c0 .24.07.47.1.7v.9c0 .29 0 .57.07.85v.18a.4.4 0 0 0 0 .1v.17a.3.3 0 0 0 0 .09v.17c0 .48.05 1 .05 1.45v2.69l-.06.62v.76l-.06.41c0 .15 0 .29-.07.43s0 .17 0 .25a.5.5 0 0 0 0 .11c0 .12 0 .23-.07.34s-.05.23-.07.35l-.1.42c0 .1-.05.2-.08.3s-.05.2-.08.3a1 1 0 0 0 0 .16l-.09.27-.09.3-.09.29v.06l-.12.33c0 .09-.07.18-.11.28s-.13.33-.2.49l-.06.15c0 .1-.09.2-.14.3v.06c-.07.17-.15.33-.23.49l-.15.28-.06.11-.27.47-.15.24-.09.15-.3.44-.13.18-.09.12a1 1 0 0 0-.07.1c-.1.12-.2.25-.31.37a2 2 0 0 1-.1.13l-.07.08-.08.09v.06l-.33.35-.08.08-.05.06h-.06l-.07.07-.4.36h-.06c-.22.17-.44.35-.68.51l.09-.06c.38-.27.72-.51 1-.73.67-.49 1.07-.83 1.08-.83l1-.79 1-.86c.31-.27.71-.65 1-.94l.84-.84.06-.07.2-.2.56-.61.18-.19.14-.17.37-.41.22-.26.1-.12.26-.31.28-.35c.21-.25.41-.5.6-.76l.29-.38c.55-.74 1.07-1.49 1.56-2.27l.12-.18.27-.45c.09-.13.17-.27.25-.4.06-.11.13-.22.19-.31l.32-.59.26-.45v-.06c.19-.37.44-.86.62-1.23s.44-.89.6-1.29v-.09c.15-.35.31-.75.45-1.07l.44-1.17c.15-.41.28-.78.43-1.27v-.18c.11-.35.24-.8.34-1.15l.15-.61a1.3 1.3 0 0 1 0-.19v-.65c0-.09 0-.26.07-.39v-.79a1 1 0 0 0 0-.2z"/><path fill="url(#c)" d="m21.28 7.644-.14.05.43-.15z"/><ellipse cx="32.633" cy="37.915" fill="url(#d)" rx="18.84" ry="32.53" transform="rotate(-30.16 32.633 37.915)"/></g><g fill-rule="nonzero"><path fill="#1461cc" d="M75.78 71.656v-2.27c0-.1 0-.43-.07-.65s0-.25 0-.37v-.13c0-.39-.1-.78-.16-1.17v-.17c0-.33-.11-.65-.17-1v-.18c0-.16-.07-.31-.1-.47s-.07-.38-.12-.57 0-.22-.07-.32l-.12-.52-.36-.39-.12-.47c0-.17-.09-.34-.14-.52s0-.16-.07-.25l-.19-.67c0-.15-.09-.29-.13-.44a.6.6 0 0 0 0-.12c-.12-.41-.25-.81-.38-1.21v-.11c-.12-.35-.24-.71-.37-1.06l-.15-.15-.15-.4c-.08-.2-.15-.39-.22-.58l-.15-.36-.18-.45a3 3 0 0 0-.13-.32l-.22-.7-.15-.35a.6.6 0 0 1 0-.12c-.17-.38-.34-.75-.52-1.13l-.16-.33c-.14-.29-.27-.57-.42-.86a1 1 0 0 0-.07-.14c-.11-.23-.24-.47-.36-.7s-.19-.38-.29-.56l-.09-.16-.18-.34-.53-.94-.21-.37-.14-.25-.28-.45c-.14-.24-.29-.48-.44-.72s-.27-.43-.4-.64l-.47-.72-.29-.27c-.12-.19-.25-.37-.37-.55l-.26-.38c-.28-.4-.56-.79-.85-1.18-.32-.44-.65-.86-1-1.29-.24-.32-.49-.62-.75-.93l-.14-.18-.9-1.06-.05-.05c-.09-.1-.19-.2-.28-.31l-.58-.64-.11-.12-.4-.42-.45-.47-.17-.16-.43-.44-.38-.37-.22-.2-.48-.45-.33-.31-.27-.23-.48-.42-.29-.25-.32-.27-.49-.46-.24-.2-.41-.31a7 7 0 0 0-.44-.34l-.2-.15-.55-.39-.37-.26-.09-.07-1-.66h-.06l-.93-.62-.23-.14-.74-.41-.28-.15-.38-.19-.3-.16-.47-.22-.31-.13-.14-.06c-.31-.14-.62-.28-.93-.4l-.93-.36h-.13l-.33-.11-.54-.19-.24-.07-.41-.11-.32-.09-.33-.07-.41-.09-.19-.05c-.13 0-.26 0-.39-.06l-.47-.08h-.56l-.5-.05H40.2c-.27 0-.55.08-.82.13l-.22.05-.66.16-.31.1-.42.13-.16.06-.14.05-.74.32-.1.05a7 7 0 0 0-.75.4l-2.67 1.54q.38-.21.75-.39l.11-.05c.24-.12.49-.22.74-.32l.14-.05.57-.19.32-.1.66-.16.22-.06c.27 0 .55-.1.84-.13h.23c.26 0 .52-.06.78-.07h1.98l.5.05.56.07.47.07c.2 0 .4.07.6.12a3 3 0 0 1 .41.09l.65.16.41.11.71.22.34.11c.7.25 1.42.53 2.14.86l.34.16.76.37.38.2c.34.18.69.36 1 .56s.76.46 1.14.7h.07c.37.23.74.48 1.1.73l.37.26.73.53.44.34c.22.16.44.33.65.51l.47.38c.21.17.42.34.62.52l.48.42.6.54.47.44c.21.19.4.39.6.58l.44.44c.21.2.41.41.61.63s.27.27.4.42.47.5.7.76l.3.37 1 1.12.14.18.79 1c.34.42.66.85 1 1.29.29.39.57.78.84 1.18l.26.37.53.79.46.71.41.64.44.73.42.7.21.37c.18.31.35.62.52.94q.105.165.19.34l.38.72.36.7c.17.33.33.67.49 1 0 .11.1.21.16.32.2.43.39.87.58 1.3l.15.35c.14.32.28.64.41 1l.18.44.36.94.15.41c.15.41.3.82.44 1.23a.4.4 0 0 0 0 .11c.15.45.29.9.43 1.35l.12.43.27.93c0 .17.09.35.13.52s.15.57.22.86l.12.52c.06.29.13.59.19.89l.09.47c.08.39.15.77.21 1.16v.17q.1.66.18 1.32c0 .13 0 .25.05.38l.09.94v4.67c0 .29 0 .57-.06.85s0 .33-.05.49 0 .47-.08.7 0 .34-.08.51-.07.43-.11.64-.07.37-.11.56-.09.37-.13.56-.11.43-.17.64-.09.33-.14.49-.16.5-.25.74-.1.31-.16.45l-.09.23c-.1.25-.2.5-.31.74a.6.6 0 0 1-.07.14 14 14 0 0 1-.93 1.69l-.1.15c-.13.2-.27.39-.4.58a2 2 0 0 0-.17.22c-.13.17-.27.33-.41.49l-.15.18c-.19.21-.38.42-.58.61l-.09.08q-.27.26-.54.48l-.2.17-.48.36-.2.14q-.34.24-.69.45l2.78-1.57c.24-.14.47-.29.69-.44l.2-.15.48-.36.2-.17q.285-.225.54-.48l.09-.07c.2-.2.39-.4.58-.62l.16-.18c.14-.16.27-.32.4-.49l.17-.22c.14-.19.27-.38.4-.58l.11-.15c.16-.25.31-.51.46-.77s.29-.54.42-.82v-.06l.1-.2c.11-.24.22-.49.32-.74l.09-.22.06-.17c0-.09.06-.19.1-.29s.17-.49.24-.74c0-.07 0-.13.07-.2s0-.19.08-.29.11-.42.16-.64 0-.17.07-.26l.06-.3c0-.18.08-.37.11-.56l.06-.29v-.34c0-.11.06-.34.08-.51s0-.18 0-.26v-.94a1 1 0 0 0 0-.19v-2.3c.29-.35.28-.7.27-1.05"/><path fill="#3af" d="M49.83 33.886c12.91 7.46 23.35 25.56 23.31 40.37s-10.55 20.82-23.46 13.37-23.35-25.53-23.31-40.37 10.55-20.81 23.46-13.37"/><path fill="#003899" d="M60.17 87.046a17.74 17.74 0 0 1-8.6-2.7c-5.68-3.28-11.05-9-15.13-16s-6.31-14.53-6.29-21.05c0-8 3.46-12.81 9.19-12.81a17.84 17.84 0 0 1 8.6 2.7c5.68 3.28 11 9 15.13 16s6.31 14.53 6.29 21c-.03 8.08-3.46 12.86-9.19 12.86"/></g><g fill-rule="nonzero"><path fill="#2e8be6" d="m67.37 18.016 17.54 10.19 24.68-14.25-17.55-10.19z"/><path fill="#1461cc" d="m67.37 18.016.01 7.2 17.54 10.19-.01-7.2z"/><path fill="#004ab3" d="m84.91 28.206.01 7.2 24.68-14.25-.01-7.2z"/></g><g fill-rule="nonzero"><path fill="#2e8be6" d="m87.39 22.996-1.43.83-2.65-1.53 1.42-.83z"/><path fill="#004ab3" d="m87.39 22.996-.01 1.07-1.43.83.01-1.07z"/><path fill="#1461cc" d="m85.96 23.826-.01 1.07-2.65-1.53.01-1.07z"/></g><g fill-rule="nonzero"><path fill="#2e8be6" d="m104.71 12.856-1.43.83-2.65-1.53 1.43-.83z"/><path fill="#004ab3" d="m104.71 12.856-.01 1.07-1.42.83v-1.07z"/><path fill="#1461cc" d="M103.28 13.686v1.07l-2.65-1.53v-1.07z"/></g><path fill="#3af" fill-rule="nonzero" d="M105.72 9.816a2.5 2.5 0 0 0-.09-.63v-.16a2.7 2.7 0 0 0-.23-.54v-.07a2.8 2.8 0 0 0-.38-.48 3.2 3.2 0 0 0-.55-.41l-.23-.11h-.07l-.21-.08h-1.31a3 3 0 0 0-.38.1 2.7 2.7 0 0 0-.46.2l-19.8 11.26-.12.09h-.07l-.17.13a2.7 2.7 0 0 0-.38.38l-.05.07c-.18.236-.322.5-.42.78a4 4 0 0 0-.11.48.4.4 0 0 1 0 .11v.65a1.6 1.6 0 0 0 0 .29q.093.33.26.63.15.255.35.47l.21.2.07.05.24.17.07.05.25.12.15.06.23.07h.11q.193.047.39.06h.63l.24-.06.18-.05.18-.07.33-.15 2.79-1.63 8.37-4.86 3-1.71 5.51-3.2a3 3 0 0 0 .54-.43 2.4 2.4 0 0 0 .38-.5v-.07a2.7 2.7 0 0 0 .22-.54v-.17a3.5 3.5 0 0 0 .06-.49v-.01z"/><g fill-rule="nonzero"><path fill="#2e8be6" d="m78.43 18.306-1.43.83-2.65-1.53 1.43-.83z"/><path fill="#004ab3" d="M78.43 18.306v1.07l-1.43.83v-1.07z"/><path fill="#1461cc" d="M77 19.136v1.07l-2.65-1.53v-1.07z"/></g><g fill-rule="nonzero"><path fill="#2e8be6" d="m95.75 8.166-1.43.83-2.65-1.53 1.43-.83z"/><path fill="#004ab3" d="M95.75 8.166v1.07l-1.43.83v-1.07z"/><path fill="#1461cc" d="M94.32 8.996v1.07l-2.65-1.53v-1.07z"/></g><path fill="#3af" fill-rule="nonzero" d="M96.77 5.126a3 3 0 0 0-.1-.63 1 1 0 0 0 0-.16 2.7 2.7 0 0 0-.23-.54v-.07a2 2 0 0 0-.43-.48v-.05a3 3 0 0 0-.55-.41 2 2 0 0 0-.23-.11h-.07l-.3-.11h-.07l-.24-.12h-1a2.5 2.5 0 0 0-.37.1 2.2 2.2 0 0 0-.45.2l-19.64 11.46-.12.08h-.06l-.18.13a3.4 3.4 0 0 0-.38.38v.08l-.2.29a4 4 0 0 0-.22.49 3 3 0 0 0-.1.48.4.4 0 0 0 0 .11v.3a1.4 1.4 0 0 0 0 .21.7.7 0 0 0 0 .14v.29q.093.33.26.63.14.257.34.47a2 2 0 0 0 .21.2l.07.05q.112.096.24.17l.07.05.25.12.15.06.22.07h.11l.39.06h.63l.24-.05h.18l.18-.07.33-.15 2.79-1.63 8.52-4.72 2.94-1.71 5.51-3.2a3.7 3.7 0 0 0 .55-.47 3 3 0 0 0 .38-.51v-.06a2.7 2.7 0 0 0 .22-.54v-.17a2.5 2.5 0 0 0 .06-.49.3.3 0 0 0 0-.09z"/><g stroke="#3af" stroke-linecap="round" stroke-width=".5" opacity=".6"><path d="m84.12 36.026 5.5-2.15 20.71-12.18.44-1.21m-25.86 16.71 5.77-2.26 20.58-12.11.39-1.05m-25.86 16.71 5.81-2.28 20.59-12.12.36-.98m-25.96 16.82 5.7-2.24 20.59-12.11.38-1.05m-25.77 16.72 5.59-2.2 20.59-12.11.33-.91m-25.92 16.67 5.65-2.22 20.59-12.11.35-.95m-25.99 16.95 5.64-2.21 20.59-12.11.57-.85m-26.14 16.8 5.75-2.26 20.59-12.11.52-.73m-26.33 16.55 5.76-2.26 20.59-12.11.44-.57m-26.47 16.37 6.02-2.36 20.59-12.11.28-.35m-26.6 16.18 6.33-2.39 20.21-11.87.28-.29m-26.46 16.11 5.84-2.13 20.71-12.19.22-.42m-26.46 16.44 5.62-2.05 20.89-12.29.29-.49m-26.77 16.47 6.03-1.94 20.5-12.06m-26.56 16.11 6.18-2.01 20.28-11.92m-26.77 16.09 6.43-1.97 20.34-11.97m-27.43 16.21 6.87-1.88 20.17-11.86m-28.43 16.27 7.41-1.93 20.6-12.12"/><path d="m84.65 67.826 10.39-2.97 21.45-12.77"/></g><path fill="#e6f5ff" fill-rule="nonzero" d="m69.01 69.446-16.06-7.57 10.58-2.51c1-3.61-2.14-6.91-2.14-6.91l-10.19 6.66 1.39-12.77c-2.26-4.95-5.53-5.7-5.53-5.7l1.67 17-8.62-15.51c-4.17-3.39-5.68-1.14-5.68-1.14l12.58 17.45-13.6-9.24c-3.65.15-2.5 4.09-2.5 4.09l16.1 7.61-10.61 2.54c-1 3.61 2.14 6.91 2.14 6.91l10.19-6.67-1.38 12.76c2.25 5 5.52 5.69 5.52 5.69l-1.67-17 8.62 15.51c4.18 3.39 5.68 1.14 5.68 1.14l-12.55-17.44 13.58 9.23c3.64-.13 2.48-4.13 2.48-4.13"/><g fill-rule="nonzero" transform="translate(34.36 46.117)"><path fill="#1461cc" d="M26.91 20.94v-.08a1 1 0 0 1 0-.19 2 2 0 0 1 0-.22v-.37a.6.6 0 0 1 0-.13 3 3 0 0 0 0-.28v-.22c0-.17 0-.35-.07-.52a.15.15 0 0 0 0-.07c0-.15 0-.29-.07-.44s0 0 0-.08v-.2c0-.07 0-.17-.05-.25v-.14l-.06-.23a1 1 0 0 0 0-.17 2 2 0 0 0-.05-.21l-.06-.22v-.12l-.09-.29v-.25c0-.18-.11-.35-.17-.53 0-.16-.1-.31-.16-.47v-.08a1 1 0 0 0-.07-.17l-.09-.25-.06-.16-.08-.2-.06-.14-.12-.29a1 1 0 0 0-.07-.15c-.07-.17-.15-.33-.23-.5a.6.6 0 0 0-.07-.14l-.63-.51v-.06c0-.1-.1-.21-.16-.31l-.13-.25c-.14-.27-.29-.53-.44-.79a.3.3 0 0 1 0-.07v-.07c-.22-.37-.44-.73-.68-1.08v-.06a1 1 0 0 1-.07-.1c-.19-.28-.38-.56-.58-.83l-.43-.57-.51-.48-.06-.07-.39-.47-.17-.13-.26-.28-.18-.19-.19-.2-.07-.07-.2-.2-.16-.16-.1-.09-.22-.27-.14-.14-.12-.1-.21-.19a.7.7 0 0 1-.13-.11l-.14-.11-.26-.17-.11-.09-.18-.14a1.3 1.3 0 0 0-.19-.14l-.08-.06-.24-.17-.15-.12-.44-.29-.4-.25h-.1l-.32-.19-.13-.06-.24-.21h-.13l-.21-.1-.15-.07h-.06l-.41-.17-.41-.16h-.2l-.22-.07h-.1L14 2.71h-1.18l-.17-.38h-1.2l-.48.07h-.1l-.29.08h-.14a1 1 0 0 0-.18.06l-.28.11-.13.06-.38.2-2.22 1.3.38-.2.13-.06.28-.11.22-.07h.14l.29-.07h.1l.48-.07h1.82l.26.05h.19l.28.07H12l.31.1h.15c.31.11.62.23.94.38l.15.07.34.16.16.09.45.24c.17.1.34.2.5.31.17.1.33.21.49.32l.16.11.32.23.19.15.29.23.21.17.27.22.21.19.26.23.25.38.26.25.19.19.27.28.18.18c.1.12.2.23.31.34l.12.14.42.49.06.07.35.44.43.57c.2.27.39.55.58.83 0 0 .07.1.1.16.24.35.46.71.68 1.08l.09.14c.15.26.3.52.44.79l.15.29.16.31.21.43a1 1 0 0 1 .07.15c.09.19.18.38.26.57l.07.15.18.43q.035.097.08.19l.15.42a1 1 0 0 1 .07.17c.07.18.13.37.19.55.06.2.13.4.19.6s0 .12.05.18l.12.41.06.23.09.38.06.22c0 .14 0 .27.08.4s0 .13 0 .2l.09.51a.2.2 0 0 1 0 .08c0 .19.06.39.09.58s0 .11 0 .16v1.19q.015.28 0 .56v1.09q.007.105 0 .21v.31a2 2 0 0 0 0 .23 3 3 0 0 1-.05.28 2 2 0 0 1 0 .24 2 2 0 0 1 0 .25c0 .09-.05.19-.08.28l-.06.21c0 .11-.07.22-.11.33l-.06.17a4 4 0 0 1-.22.52v.06c-.11.22-.23.43-.35.63v.05l-.33.46-.09.11-.35.39a5 5 0 0 1-.41.36l-.11.08a3.5 3.5 0 0 1-.45.3l2.13-1.24a3.5 3.5 0 0 0 .45-.3l.11-.08.41-.35c.12-.12.24-.26.35-.39l.09-.11c.11-.14.22-.3.33-.46.12-.2.24-.41.35-.63a5 5 0 0 0 .22-.53 1 1 0 0 0 0-.13 3 3 0 0 0 .11-.32v-.09a1 1 0 0 1 0-.13c0-.09.05-.19.07-.28v-.11a1 1 0 0 0 0-.13v-.87a1 1 0 0 0 0-.19v-.3a3 3 0 0 0 0-.29v-.65c.42-.37.41-.52.41-.68"/><ellipse cx="14.516" cy="16.721" fill="#3af" rx="8.38" ry="14.47" transform="rotate(-30.16 14.516 16.721)"/></g><g fill-rule="nonzero" transform="translate(41.112 55.059)"><path fill="#1461cc" d="M12.768 9.937a.3.3 0 0 1 0-.09v-.1a.3.3 0 0 1 0-.08v-.29a.2.2 0 0 0 0-.08v-.24a2 2 0 0 0 0-.21.3.3 0 0 1 0-.09v-.38a.3.3 0 0 1 0-.1v-.16a1 1 0 0 0 0-.14v-.09l-.08-.26-.08-.23v-.08l-.05-.12v-.17a.14.14 0 0 0 0-.07l-.06-.14v-.07l-.11-.24a.2.2 0 0 1 0-.07c0-.06-.05-.12-.08-.17l-.07-.15-.06-.12a4 4 0 0 0-.21-.37c-.1-.17-.21-.35-.32-.51l-.27-.39-.2-.27-.16-.2-.19-.22-.06-.06-.87-.65-.08-.09a1 1 0 0 1-.1-.1l-.09-.09-.08-.08-.1-.09a.2.2 0 0 0-.07-.07l-.1-.08-.06-.06h-.07a.39.39 0 0 0-.25-.28h-.05l-.08-.07-.1-.07-.12-.08h-.07l-.21-.13-.19-.12h-.05l-.15-.09h-.37l-.34-.44-.2-.08h-2.3l-.18.09-1 .59.18-.1h.06l.13-.05h2.1q.23.078.45.18h.07l.16.08h.08l.18.29.24.14.22.15.08.06.15.11.1.07.13.11.1.08.13.1.1.09.12.11.1.1.13.12.09.09.12.13.09.09q.078.074.14.16l.06.06c.07.08.14.15.2.23.06.07.11.14.17.2q.109.135.2.28l.28.39v.07c.11.17.22.34.32.52v.06l.21.38a1 1 0 0 1 .07.14l.08.14.1.21v.07c.05.09.09.18.13.27v.07l.08.2v.1c0 .06 0 .13.08.19v.09l.09.26.09.28a.3.3 0 0 0 0 .09l.06.19v.58a.4.4 0 0 1 0 .1v.24q.007.135 0 .27a.3.3 0 0 1 0 .08 1.4 1.4 0 0 1 0 .2v.37a2 2 0 0 1 0 .26q.007.135 0 .27v.07a1 1 0 0 0 0 .18v.6a.5.5 0 0 1 0 .12 1 1 0 0 1 0 .13v.1a1 1 0 0 1 0 .16v.08a2.1 2.1 0 0 1-.27.55l-.16.22-.17.18a1 1 0 0 1-.2.17h-.05l-.21.14 1-.58c.07-.05.14-.09.21-.15h.05l.2-.17a1.5 1.5 0 0 0 .17-.18 2 2 0 0 0 .16-.22c.06-.1.12-.2.17-.3q.06-.12.1-.25a.14.14 0 0 0 0-.06l.06-.15v-.06a1 1 0 0 0 0-.14v-.11a.5.5 0 0 1 0-.12v-.06a.2.2 0 0 0 0-.07v-.11a.3.3 0 0 1 0-.1.4.4 0 0 1 0-.1v-.34a2 2 0 0 0 0-.23v-.24z"/><ellipse cx="6.893" cy="7.94" fill="#3af" rx="3.98" ry="6.87" transform="rotate(-30.16 6.893 7.94)"/></g></g></svg>