<svg xmlns="http://www.w3.org/2000/svg" viewBox="0 0 151 72"><title>heating and cooling unit 1(加热和冷却装置1)</title><defs><linearGradient id="a" x1="50%" x2="50%" y1="100%" y2="0%"><stop offset="0%" stop-color="#767b82"/><stop offset="2%" stop-color="#b9c0cc"/><stop offset="96%" stop-color="#b9c0cc"/><stop offset="98%" stop-color="#d7dce0"/><stop offset="100%" stop-color="#767b82"/></linearGradient><linearGradient id="b" x1="52.372%" x2="47.628%" y1="22.818%" y2="77.182%"><stop offset="0%" stop-color="#abafb3"/><stop offset="100%" stop-color="#45484d"/></linearGradient><linearGradient id="c" x1="45.324%" x2="54.668%" y1="36.804%" y2="63.193%"><stop offset="0%" stop-color="#d7dce0"/><stop offset="100%" stop-color="#8a9099"/></linearGradient><linearGradient id="d" x1="46.215%" x2="54.109%" y1="50.219%" y2="49.781%"><stop offset="0%" stop-color="#d7dce0"/><stop offset="100%" stop-color="#8a9099"/></linearGradient><linearGradient id="e" x1="46.183%" x2="54.078%" y1="50.219%" y2="49.781%"><stop offset="0%" stop-color="#d7dce0"/><stop offset="100%" stop-color="#8a9099"/></linearGradient><linearGradient id="f" x1="44.067%" x2="56.188%" y1="50.614%" y2="49.386%"><stop offset="0%" stop-color="#d7dce0"/><stop offset="100%" stop-color="#8a9099"/></linearGradient><linearGradient id="g" x1="75.592%" x2="24.408%" y1="9.286%" y2="90.714%"><stop offset="0%" stop-color="#dce1e6"/><stop offset="100%" stop-color="#c4c9cd"/></linearGradient><linearGradient id="h" x1="49.885%" x2="49.885%" y1="100%" y2="0%"><stop offset="0%" stop-color="#494b4d"/><stop offset="100%" stop-color="#b7bfcc"/></linearGradient><linearGradient id="i" x1="48.691%" x2="48.691%" y1="100%" y2="0%"><stop offset="55%" stop-color="#7a7d80" stop-opacity="0"/><stop offset="100%" stop-color="#e5efff"/></linearGradient><linearGradient id="j" x1="50.233%" x2="50.233%" y1="100%" y2=".004%"><stop offset="0%" stop-color="#494b4d"/><stop offset="100%" stop-color="#b7bfcc"/></linearGradient><linearGradient id="k" x1="49.885%" x2="49.885%" y1="100%" y2=".004%"><stop offset="0%" stop-color="#494b4d"/><stop offset="100%" stop-color="#b7bfcc"/></linearGradient><linearGradient id="l" x1="48.691%" x2="48.691%" y1="96.694%" y2="-3.306%"><stop offset="55%" stop-color="#7a7d80" stop-opacity="0"/><stop offset="100%" stop-color="#e5efff"/></linearGradient><linearGradient id="m" x1="50%" x2="50%" y1="100%" y2="0%"><stop offset="0%" stop-color="#494b4d"/><stop offset="100%" stop-color="#b7bfcc"/></linearGradient><linearGradient id="n" x1="49.869%" x2="49.869%" y1="100%" y2="0%"><stop offset="55%" stop-color="#7a7d80" stop-opacity="0"/><stop offset="100%" stop-color="#e5efff"/></linearGradient><linearGradient id="o" x1="49.869%" x2="49.869%" y1="96.694%" y2="-3.306%"><stop offset="55%" stop-color="#7a7d80" stop-opacity="0"/><stop offset="100%" stop-color="#e5efff"/></linearGradient><linearGradient id="p" x1="50.131%" x2="50.131%" y1="100%" y2="0%"><stop offset="55%" stop-color="#7a7d80" stop-opacity="0"/><stop offset="100%" stop-color="#e5efff"/></linearGradient><linearGradient id="q" x1="50.131%" x2="50.131%" y1="96.694%" y2="-3.306%"><stop offset="55%" stop-color="#7a7d80" stop-opacity="0"/><stop offset="100%" stop-color="#e5efff"/></linearGradient><linearGradient id="r" x1="49.086%" x2="49.086%" y1="100%" y2="0%"><stop offset="55%" stop-color="#7a7d80" stop-opacity="0"/><stop offset="100%" stop-color="#e5efff"/></linearGradient><linearGradient id="s" x1="49.086%" x2="49.086%" y1="96.694%" y2="-3.306%"><stop offset="55%" stop-color="#7a7d80" stop-opacity="0"/><stop offset="100%" stop-color="#e5efff"/></linearGradient><linearGradient id="t" x1="50.124%" x2="50.124%" y1="-10.619%" y2="111.504%"><stop offset="0%" stop-color="#5c6066"/><stop offset="100%" stop-color="#dce1e6"/></linearGradient><linearGradient id="u" x1="49.827%" x2="49.827%" y1="-10.619%" y2="111.504%"><stop offset="0%" stop-color="#5c6066"/><stop offset="100%" stop-color="#dce1e6"/></linearGradient><linearGradient id="v" x1="50.023%" x2="50.023%" y1="-3.11%" y2="103.11%"><stop offset="0%" stop-color="#5c6066"/><stop offset="100%" stop-color="#dce1e6"/></linearGradient></defs><g fill="none" fill-rule="evenodd"><path fill="url(#a)" fill-rule="nonzero" d="M0 64.21h150v6.43H0z" transform="translate(.01 .446)"/><path fill="url(#b)" fill-rule="nonzero" d="M2.79 3.11h2.44v27.96H2.79z" transform="translate(.01 .446)"/><path fill="url(#c)" fill-rule="nonzero" d="M142.23 2.99v61.23h-4.46L112.51 27.7v36.52H5.24V2.99z" transform="translate(.01 .446)"/><path fill="url(#d)" fill-rule="nonzero" d="M5.23 0h53.64v2.98H5.23z" transform="matrix(-1 0 0 -1 64.11 3.426)"/><path fill="url(#e)" fill-rule="nonzero" d="M58.87 0h53.64v2.98H58.87z" transform="matrix(-1 0 0 -1 171.39 3.426)"/><path fill="url(#f)" fill-rule="nonzero" d="M112.51 0h29.72v2.98h-29.72z" transform="matrix(-1 0 0 -1 254.75 3.426)"/><path fill="url(#b)" fill-rule="nonzero" d="M2.79 32.76h2.44v27.96H2.79z" transform="translate(.01 .446)"/><path fill="#494d53" fill-rule="nonzero" d="M56.44 62.246H9.75V5.866h46.69z"/><path fill="#eaf1fa" fill-rule="nonzero" d="M55.97 62.246H9.74V6.326h46.23z"/><path fill="#b7bcc2" fill-rule="nonzero" d="M55.97 61.776H10.21V6.326h45.76z"/><path fill="#494d53" fill-rule="nonzero" d="M106.97 40.116H64.7V5.856h42.27z"/><path fill="#eaf1fa" fill-rule="nonzero" d="M106.5 40.116H64.7V6.326h41.8z"/><path fill="#b7bcc2" fill-rule="nonzero" d="M106.51 39.646H65.17V6.316h41.34z"/><path fill="#494d53" fill-rule="nonzero" d="M106.97 62.416H64.7v-19.87h42.27z"/><path fill="#eaf1fa" fill-rule="nonzero" d="M106.5 62.416H64.7v-19.41h41.8z"/><path fill="#b7bcc2" fill-rule="nonzero" d="M106.51 61.946H65.17v-18.94h41.34z"/><path fill="#494d53" fill-rule="nonzero" d="M25.77 62.246h-4.65V5.866h4.65z"/><path fill="#eaf1fa" fill-rule="nonzero" d="M25.3 62.246h-4.19V6.326h4.19z"/><path fill="#b7bcc2" fill-rule="nonzero" d="M25.31 61.776h-3.72V6.326h3.72z"/><path fill="#494d53" fill-rule="nonzero" d="M19.63 25.576h-7.97v-12.13h7.97z"/><path fill="#eaf1fa" fill-rule="nonzero" d="M19.17 25.566h-7.5v-11.66h7.5z"/><path fill="url(#g)" fill-rule="nonzero" d="M12.11 13.46h7.04v11.2h-7.04z" transform="matrix(-1 0 0 -1 31.27 38.566)"/><path stroke="#5b5f66" stroke-width=".25" d="M58.88 64.656V3.426m53.64 61.23V3.426"/><path fill="url(#h)" fill-rule="nonzero" d="M67.64 44.78h2.46a.93.93 0 0 1 .93.93v.51H66.7v-.51a.93.93 0 0 1 .93-.93z" transform="translate(.01 .446)"/><path fill="url(#i)" fill-rule="nonzero" d="M3.78 1.2H0V.82A.82.82 0 0 1 .81 0H3a.82.82 0 0 1 .82.82zM.18.97h3.37V.82a.59.59 0 0 0-.59-.58H.76a.58.58 0 0 0-.58.58z" opacity=".6" transform="translate(67.01 45.346)"/><path fill="url(#j)" fill-rule="nonzero" d="M67.64 47.07h2.46a.93.93 0 0 1 .9.93v.51h-4.3V48a.93.93 0 0 1 .94-.93" transform="translate(.01 .446)"/><path fill="url(#i)" fill-rule="nonzero" d="M3.78 1.2H0V.81A.81.81 0 0 1 .81 0H3a.82.82 0 0 1 .82.81zM.18.96h3.37V.81a.59.59 0 0 0-.59-.58H.76a.58.58 0 0 0-.58.58z" opacity=".6" transform="translate(67.01 47.636)"/><path fill="url(#k)" fill-rule="nonzero" d="M67.64 49.35h2.46a.93.93 0 0 1 .93.93v.51H66.7v-.51a.93.93 0 0 1 .94-.93" transform="translate(.01 .446)"/><path fill="url(#i)" fill-rule="nonzero" d="M3.78 1.2H0V.82A.82.82 0 0 1 .81 0H3a.82.82 0 0 1 .82.82zM.18.97h3.37V.82A.59.59 0 0 0 3 .23H.8a.58.58 0 0 0-.58.59z" opacity=".6" transform="translate(67.01 49.916)"/><path fill="url(#k)" fill-rule="nonzero" d="M67.64 51.63h2.46a.93.93 0 0 1 .93.93v.51H66.7v-.51a.93.93 0 0 1 .94-.93" transform="translate(.01 .446)"/><path fill="url(#l)" fill-rule="nonzero" d="M3.78 1.21H0V.82A.82.82 0 0 1 .81 0H3a.82.82 0 0 1 .82.82zM.18.97h3.37V.82A.59.59 0 0 0 3 .21H.8a.58.58 0 0 0-.58.58z" opacity=".6" transform="translate(67.01 52.236)"/><path fill="url(#m)" fill-rule="nonzero" d="M75.93 44.78h2.46a.93.93 0 0 1 .93.93v.51H75v-.51a.93.93 0 0 1 .93-.93" transform="translate(.01 .446)"/><path fill="url(#n)" fill-rule="nonzero" d="M3.83 1.2H0V.82A.82.82 0 0 1 .81 0h2.2a.82.82 0 0 1 .82.82zM.23.97h3.36V.82a.58.58 0 0 0-.58-.58H.81a.58.58 0 0 0-.58.58z" opacity=".6" transform="translate(75.26 45.346)"/><path fill="url(#m)" fill-rule="nonzero" d="M75.93 47.07h2.46a.93.93 0 0 1 .93.93v.51H75V48a.93.93 0 0 1 .93-.93" transform="translate(.01 .446)"/><path fill="url(#n)" fill-rule="nonzero" d="M3.83 1.2H0V.81A.81.81 0 0 1 .81 0h2.2a.82.82 0 0 1 .82.81zM.23.96h3.36V.81a.58.58 0 0 0-.58-.58H.81a.58.58 0 0 0-.58.58z" opacity=".6" transform="translate(75.26 47.636)"/><path fill="url(#m)" fill-rule="nonzero" d="M75.93 49.35h2.46a.93.93 0 0 1 .93.93v.51H75v-.51a.93.93 0 0 1 .93-.93" transform="translate(.01 .446)"/><path fill="url(#n)" fill-rule="nonzero" d="M3.83 1.2H0V.82A.82.82 0 0 1 .81 0h2.2a.82.82 0 0 1 .82.82zM.23.97h3.36V.82a.58.58 0 0 0-.58-.59H.81a.58.58 0 0 0-.58.59z" opacity=".6" transform="translate(75.26 49.916)"/><path fill="url(#m)" fill-rule="nonzero" d="M75.93 51.63h2.46a.93.93 0 0 1 .93.93v.51H75v-.51a.93.93 0 0 1 .93-.93" transform="translate(.01 .446)"/><path fill="url(#o)" fill-rule="nonzero" d="M3.83 1.21H0V.82A.82.82 0 0 1 .81 0h2.2a.82.82 0 0 1 .82.82zM.23.97h3.36V.82a.58.58 0 0 0-.58-.58H.81a.58.58 0 0 0-.58.58z" opacity=".6" transform="translate(75.26 52.236)"/><path fill="url(#m)" fill-rule="nonzero" d="M84.23 44.78h2.46a.93.93 0 0 1 .93.93v.51H83.3v-.51a.93.93 0 0 1 .93-.93" transform="translate(.01 .446)"/><path fill="url(#p)" fill-rule="nonzero" d="M3.83 1.2H0V.82A.82.82 0 0 1 .82 0h2.2a.82.82 0 0 1 .81.82zM.24.97H3.6V.82a.58.58 0 0 0-.58-.58H.82a.58.58 0 0 0-.58.58z" opacity=".6" transform="translate(83.55 45.346)"/><path fill="url(#m)" fill-rule="nonzero" d="M84.23 47.07h2.46a.93.93 0 0 1 .93.93v.51H83.3V48a.93.93 0 0 1 .93-.93" transform="translate(.01 .446)"/><path fill="url(#p)" fill-rule="nonzero" d="M3.83 1.2H0V.81A.82.82 0 0 1 .82 0h2.2a.81.81 0 0 1 .81.81zM.24.96H3.6V.81a.58.58 0 0 0-.58-.58H.82a.58.58 0 0 0-.58.58z" opacity=".6" transform="translate(83.55 47.636)"/><path fill="url(#m)" fill-rule="nonzero" d="M84.23 49.35h2.46a.93.93 0 0 1 .93.93v.51H83.3v-.51a.93.93 0 0 1 .93-.93" transform="translate(.01 .446)"/><path fill="url(#p)" fill-rule="nonzero" d="M3.83 1.2H0V.82A.82.82 0 0 1 .82 0h2.2a.82.82 0 0 1 .81.82zM.24.97H3.6V.82a.58.58 0 0 0-.58-.59H.82a.58.58 0 0 0-.58.59z" opacity=".6" transform="translate(83.55 49.916)"/><path fill="url(#m)" fill-rule="nonzero" d="M84.23 51.63h2.46a.93.93 0 0 1 .93.93v.51H83.3v-.51a.93.93 0 0 1 .93-.93" transform="translate(.01 .446)"/><path fill="url(#q)" fill-rule="nonzero" d="M3.83 1.21H0V.82A.82.82 0 0 1 .82 0h2.2a.82.82 0 0 1 .81.82zM.24.97H3.6V.82a.58.58 0 0 0-.58-.58H.82a.58.58 0 0 0-.58.58z" opacity=".6" transform="translate(83.55 52.236)"/><path fill="url(#h)" fill-rule="nonzero" d="M92.53 44.78H95a.93.93 0 0 1 .93.93v.51H91.6v-.51a.93.93 0 0 1 .93-.93" transform="translate(.01 .446)"/><path fill="url(#p)" fill-rule="nonzero" d="M3.83 1.2H0V.82A.82.82 0 0 1 .82 0h2.2a.82.82 0 0 1 .81.82zM.23.97H3.6V.82a.58.58 0 0 0-.58-.58H.82a.58.58 0 0 0-.59.58z" opacity=".6" transform="translate(91.85 45.346)"/><path fill="url(#h)" fill-rule="nonzero" d="M92.53 47.07H95a.93.93 0 0 1 .93.93v.51H91.6V48a.93.93 0 0 1 .93-.93" transform="translate(.01 .446)"/><path fill="url(#p)" fill-rule="nonzero" d="M3.83 1.2H0V.81A.82.82 0 0 1 .82 0h2.2a.81.81 0 0 1 .81.81zM.23.96H3.6V.81a.58.58 0 0 0-.58-.58H.82a.58.58 0 0 0-.59.58z" opacity=".6" transform="translate(91.85 47.636)"/><path fill="url(#h)" fill-rule="nonzero" d="M92.53 49.35H95a.93.93 0 0 1 .93.93v.51H91.6v-.51a.93.93 0 0 1 .93-.93" transform="translate(.01 .446)"/><path fill="url(#p)" fill-rule="nonzero" d="M3.83 1.2H0V.82A.82.82 0 0 1 .82 0h2.2a.82.82 0 0 1 .81.82zM.23.97H3.6V.82a.58.58 0 0 0-.58-.59H.82a.58.58 0 0 0-.59.59z" opacity=".6" transform="translate(91.85 49.916)"/><path fill="url(#h)" fill-rule="nonzero" d="M92.53 51.63H95a.93.93 0 0 1 .93.93v.51H91.6v-.51a.93.93 0 0 1 .93-.93" transform="translate(.01 .446)"/><path fill="url(#q)" fill-rule="nonzero" d="M3.83 1.21H0V.82A.82.82 0 0 1 .82 0h2.2a.82.82 0 0 1 .81.82zM.23.97H3.6V.82a.58.58 0 0 0-.58-.58H.82a.58.58 0 0 0-.59.58z" opacity=".6" transform="translate(91.85 52.236)"/><path fill="url(#h)" fill-rule="nonzero" d="M100.83 44.78h2.46a.93.93 0 0 1 .93.93v.51h-4.33v-.51a.93.93 0 0 1 .93-.93z" transform="translate(.01 .446)"/><path fill="url(#r)" fill-rule="nonzero" d="M3.83 1.2H0V.82A.82.82 0 0 1 .81 0h2.21a.82.82 0 0 1 .81.82zM.23.97H3.6V.82a.58.58 0 0 0-.58-.58H.83a.58.58 0 0 0-.58.58z" opacity=".6" transform="translate(100.18 45.346)"/><path fill="url(#k)" fill-rule="nonzero" d="M100.83 47.07h2.46a.93.93 0 0 1 .93.93v.51h-4.33V48a.93.93 0 0 1 .94-.93" transform="translate(.01 .446)"/><path fill="url(#r)" fill-rule="nonzero" d="M3.83 1.2H0V.81A.81.81 0 0 1 .81 0h2.21a.81.81 0 0 1 .81.81zM.23.96H3.6V.81a.58.58 0 0 0-.58-.58H.83a.58.58 0 0 0-.58.58z" opacity=".6" transform="translate(100.18 47.636)"/><path fill="url(#k)" fill-rule="nonzero" d="M100.83 49.35h2.46a.93.93 0 0 1 .93.93v.51h-4.33v-.51a.93.93 0 0 1 .94-.93" transform="translate(.01 .446)"/><path fill="url(#r)" fill-rule="nonzero" d="M3.83 1.2H0V.82A.82.82 0 0 1 .81 0h2.21a.82.82 0 0 1 .81.82zM.23.97H3.6V.82a.58.58 0 0 0-.58-.59H.83a.58.58 0 0 0-.58.59z" opacity=".6" transform="translate(100.18 49.916)"/><path fill="url(#k)" fill-rule="nonzero" d="M100.83 51.63h2.46a.93.93 0 0 1 .93.93v.51h-4.33v-.51a.93.93 0 0 1 .94-.93" transform="translate(.01 .446)"/><path fill="url(#s)" fill-rule="nonzero" d="M3.83 1.21H0V.82A.82.82 0 0 1 .81 0h2.21a.82.82 0 0 1 .81.82zM.23.97H3.6V.82a.58.58 0 0 0-.58-.58H.83a.58.58 0 0 0-.58.58z" opacity=".6" transform="translate(100.18 52.236)"/><path fill="#222a34" fill-rule="nonzero" stroke="url(#t)" stroke-width=".25" d="M5.23 66.86h4.03v1.13H5.23z" transform="translate(.01 .446)"/><path fill="#222a34" fill-rule="nonzero" stroke="url(#u)" stroke-width=".25" d="M12.75 66.86h2.89v1.13h-2.89z" transform="translate(.01 .446)"/><path fill="#222a34" fill-rule="nonzero" stroke="url(#t)" stroke-width=".25" d="M130.25 66.86h4.03v1.13h-4.03z" transform="translate(.01 .446)"/><path fill="#222a34" fill-rule="nonzero" stroke="url(#u)" stroke-width=".25" d="M137.77 66.86h2.89v1.13h-2.89z" transform="translate(.01 .446)"/><path fill="#222a34" fill-rule="nonzero" stroke="url(#v)" stroke-width=".25" d="M43.77 65.52h21.59v4.18H43.77z" transform="translate(.01 .446)"/><path fill="#222a34" fill-rule="nonzero" stroke="url(#v)" stroke-width=".25" d="M87.62 65.52h21.59v4.18H87.62z" transform="translate(.01 .446)"/></g></svg>