<svg xmlns="http://www.w3.org/2000/svg" viewBox="0 0 100 151"><title>Heat pump(热泵)</title><defs><linearGradient id="a" x1="77.659%" x2="22.337%" y1="8.387%" y2="91.613%"><stop offset="0%" stop-color="#d7dce0"/><stop offset="100%" stop-color="#8a9099"/></linearGradient><linearGradient id="b" x1="8.172%" x2="58.172%" y1="21.837%" y2="55.498%"><stop offset="0%" stop-color="#fff" stop-opacity="0"/><stop offset="37%" stop-color="#fff" stop-opacity=".01"/><stop offset="51%" stop-color="#fff" stop-opacity=".03"/><stop offset="60%" stop-color="#fff" stop-opacity=".08"/><stop offset="68%" stop-color="#fff" stop-opacity=".15"/><stop offset="75%" stop-color="#fff" stop-opacity=".23"/><stop offset="80%" stop-color="#fff" stop-opacity=".34"/><stop offset="86%" stop-color="#fff" stop-opacity=".47"/><stop offset="91%" stop-color="#fff" stop-opacity=".61"/><stop offset="95%" stop-color="#fff" stop-opacity=".78"/><stop offset="99%" stop-color="#fff" stop-opacity=".96"/><stop offset="100%" stop-color="#fff"/></linearGradient><linearGradient id="c" x1="81.698%" x2="18.302%" y1="41.507%" y2="58.493%"><stop offset="0%" stop-color="#dce1e6"/><stop offset="100%" stop-color="#8a9099"/></linearGradient><linearGradient id="d" x1="50.23%" x2="49.77%" y1="-494.196%" y2="-544.654%"><stop offset="0%" stop-color="#dce1e6"/><stop offset="100%" stop-color="#8a9099"/></linearGradient></defs><g fill="none" fill-rule="nonzero"><path fill="url(#a)" d="M0 0h99.7v150H0z" transform="translate(.01 .446)"/><path fill="#2f3134" d="M6.3 86.246h88.97v59.89H6.3z"/><path fill="url(#b)" d="M0 59.89V0h88.96z" opacity=".2" transform="translate(6.3 86.246)"/><path fill="#2f3134" d="M44.88 11.486h11.79v4.85H44.88z"/><path fill="#494d53" d="M15.46 61.176h72.2v19.96h-72.2z"/><path fill="#dde4ec" d="M15.89 61.176h71.78v19.54H15.89z"/><path fill="url(#c)" d="M15.88 61.15h71.36v19.12H15.88z" transform="translate(.01 .446)"/><path fill="#494d53" d="M1.84.446h2.2v150.21h-2.2z"/><path fill="#dde4ec" d="M2.26.446h1.78v149.79H2.26z"/><path fill="url(#d)" d="M2.25.42h1.36v149.37H2.25z" transform="translate(.01 .446)"/></g></svg>