<svg xmlns="http://www.w3.org/2000/svg" viewBox="0 0 125 151"><title>Portable air conditioner(便携式空调)</title><defs><linearGradient id="a" x1="0%" x2="100%" y1="50%" y2="50%"><stop offset="0%" stop-color="#c3c8cc"/><stop offset="100%" stop-color="#fff"/></linearGradient><linearGradient id="b" x1="67.74%" x2="42.241%" y1="68.097%" y2="42.063%"><stop offset="0%" stop-color="#a9b1bb"/><stop offset="9%" stop-color="#8b9299"/><stop offset="57%" stop-color="#9299a1"/><stop offset="93%" stop-color="#9ba1ab"/><stop offset="100%" stop-color="#767b82"/></linearGradient><linearGradient id="c" x1="-.493%" x2="100.359%" y1="49.53%" y2="49.53%"><stop offset="0%" stop-color="#c3c8cc"/><stop offset="100%" stop-color="#fff"/></linearGradient><linearGradient id="d" x1="-.314%" x2="100.538%" y1="49.553%" y2="49.553%"><stop offset="0%" stop-color="#c3c8cc"/><stop offset="100%" stop-color="#fff"/></linearGradient><linearGradient id="e" x1="-.493%" x2="100.403%" y1="49.578%" y2="49.578%"><stop offset="0%" stop-color="#c3c8cc"/><stop offset="100%" stop-color="#fff"/></linearGradient><linearGradient id="f" x1="-.492%" x2="100.403%" y1="49.535%" y2="49.535%"><stop offset="0%" stop-color="#c3c8cc"/><stop offset="100%" stop-color="#fff"/></linearGradient><linearGradient id="g" x1="-.447%" x2="100.402%" y1="49.639%" y2="49.639%"><stop offset="0%" stop-color="#c3c8cc"/><stop offset="100%" stop-color="#fff"/></linearGradient><linearGradient id="h" x1="-.402%" x2="100.402%" y1="49.903%" y2="49.903%"><stop offset="0%" stop-color="#c3c8cc"/><stop offset="100%" stop-color="#fff"/></linearGradient><linearGradient id="i" x1="-.267%" x2="100.535%" y1="49.577%" y2="49.577%"><stop offset="0%" stop-color="#c3c8cc"/><stop offset="100%" stop-color="#fff"/></linearGradient><linearGradient id="j" x1="-.356%" x2="100.445%" y1="49.583%" y2="49.583%"><stop offset="0%" stop-color="#c3c8cc"/><stop offset="100%" stop-color="#fff"/></linearGradient><linearGradient id="k" x1="-.356%" x2="100.445%" y1="49.673%" y2="49.673%"><stop offset="0%" stop-color="#c3c8cc"/><stop offset="100%" stop-color="#fff"/></linearGradient><linearGradient id="l" x1="-.311%" x2="100.444%" y1="49.598%" y2="49.598%"><stop offset="0%" stop-color="#c3c8cc"/><stop offset="100%" stop-color="#fff"/></linearGradient><linearGradient id="m" x1="-.266%" x2="100.444%" y1="49.199%" y2="49.199%"><stop offset="0%" stop-color="#c3c8cc"/><stop offset="100%" stop-color="#fff"/></linearGradient><linearGradient id="n" x1="-.177%" x2="100.576%" y1="49.641%" y2="49.641%"><stop offset="0%" stop-color="#c3c8cc"/><stop offset="100%" stop-color="#fff"/></linearGradient><linearGradient id="o" x1="-.222%" x2="100.487%" y1="49.663%" y2="49.663%"><stop offset="0%" stop-color="#c3c8cc"/><stop offset="100%" stop-color="#fff"/></linearGradient><linearGradient id="p" x1="-.221%" x2="100.487%" y1="49.571%" y2="49.571%"><stop offset="0%" stop-color="#c3c8cc"/><stop offset="100%" stop-color="#fff"/></linearGradient><linearGradient id="q" x1="-.141%" x2="100.566%" y1="49.639%" y2="49.639%"><stop offset="0%" stop-color="#c3c8cc"/><stop offset="100%" stop-color="#fff"/></linearGradient><linearGradient id="r" x1="-.101%" x2="100.605%" y1="49.599%" y2="49.599%"><stop offset="0%" stop-color="#c3c8cc"/><stop offset="100%" stop-color="#fff"/></linearGradient><linearGradient id="s" x1="-.108%" x2="100.651%" y1="49.63%" y2="49.63%"><stop offset="0%" stop-color="#c3c8cc"/><stop offset="100%" stop-color="#fff"/></linearGradient><linearGradient id="t" x1="0%" x2="100.703%" y1="49.605%" y2="49.605%"><stop offset="0%" stop-color="#c3c8cc"/><stop offset="100%" stop-color="#fff"/></linearGradient><linearGradient id="u" x1="-.191%" x2="100.702%" y1="49.679%" y2="49.679%"><stop offset="0%" stop-color="#c3c8cc"/><stop offset="100%" stop-color="#fff"/></linearGradient><linearGradient id="v" x1="-.14%" x2="100.909%" y1="49.653%" y2="49.653%"><stop offset="0%" stop-color="#c3c8cc"/><stop offset="100%" stop-color="#fff"/></linearGradient><linearGradient id="w" x1="-.31%" x2="100.983%" y1="49.632%" y2="49.632%"><stop offset="0%" stop-color="#c3c8cc"/><stop offset="100%" stop-color="#fff"/></linearGradient><linearGradient id="x" x1="-.431%" x2="100.975%" y1="49.734%" y2="49.734%"><stop offset="0%" stop-color="#c3c8cc"/><stop offset="100%" stop-color="#fff"/></linearGradient><linearGradient id="y" x1="-.579%" x2="101.28%" y1="49.799%" y2="49.799%"><stop offset="0%" stop-color="#c3c8cc"/><stop offset="100%" stop-color="#fff"/></linearGradient><linearGradient id="z" x1="-.756%" x2="101.36%" y1="49.834%" y2="49.834%"><stop offset="0%" stop-color="#c3c8cc"/><stop offset="100%" stop-color="#fff"/></linearGradient><linearGradient id="A" x1="-1.095%" x2="101.551%" y1="49.942%" y2="49.942%"><stop offset="0%" stop-color="#c3c8cc"/><stop offset="100%" stop-color="#fff"/></linearGradient><linearGradient id="B" x1="-1.232%" x2="101.6%" y1="49.964%" y2="49.964%"><stop offset="0%" stop-color="#c3c8cc"/><stop offset="100%" stop-color="#fff"/></linearGradient><linearGradient id="C" x1="-2.174%" x2="101.385%" y1="49.949%" y2="49.949%"><stop offset="0%" stop-color="#c3c8cc"/><stop offset="100%" stop-color="#fff"/></linearGradient><linearGradient id="D" x1="62.859%" x2="37.143%" y1="15.642%" y2="84.358%"><stop offset="0%" stop-color="#d7dce0"/><stop offset="100%" stop-color="#8a9099"/></linearGradient><linearGradient id="E" x1="48.57%" x2="51.615%" y1="26.523%" y2="76.523%"><stop offset="0%" stop-color="#767b82"/><stop offset="7%" stop-color="#9ba1ab"/><stop offset="25%" stop-color="#e2eaf2"/><stop offset="32%" stop-color="#d1d8e0"/><stop offset="55%" stop-color="#a1a7ae"/><stop offset="74%" stop-color="#7e8489"/><stop offset="90%" stop-color="#696e73"/><stop offset="100%" stop-color="#61666b"/></linearGradient><linearGradient id="F" x1="51.814%" x2="48.239%" y1="23.716%" y2="77.074%"><stop offset="0%" stop-color="#d7dce0"/><stop offset="100%" stop-color="#8a9099"/></linearGradient><linearGradient id="G" x1="51.432%" x2="48.383%" y1="26.523%" y2="76.523%"><stop offset="0%" stop-color="#767b82"/><stop offset="7%" stop-color="#9ba1ab"/><stop offset="25%" stop-color="#e2eaf2"/><stop offset="32%" stop-color="#d1d8e0"/><stop offset="55%" stop-color="#a1a7ae"/><stop offset="74%" stop-color="#7e8489"/><stop offset="90%" stop-color="#696e73"/><stop offset="100%" stop-color="#61666b"/></linearGradient><linearGradient id="H" x1="48.186%" x2="51.761%" y1="23.716%" y2="77.074%"><stop offset="0%" stop-color="#d7dce0"/><stop offset="100%" stop-color="#8a9099"/></linearGradient><linearGradient id="I" x1="50.019%" x2="50.019%" y1="100%" y2="0%"><stop offset="0%" stop-color="#2e3033"/><stop offset="100%" stop-color="#878d93" stop-opacity="0"/></linearGradient><linearGradient id="J" x1="49.981%" x2="49.981%" y1="100.105%" y2="0%"><stop offset="0%" stop-color="#dce1e6"/><stop offset="100%" stop-color="#5c6066"/></linearGradient><linearGradient id="K" x1="0%" x2="99.394%" y1="49.987%" y2="49.987%"><stop offset="0%" stop-color="#b9c0cc"/><stop offset="100%" stop-color="#47494d"/></linearGradient><linearGradient id="L" x1="0%" x2="100%" y1="49.987%" y2="49.987%"><stop offset="0%" stop-color="#b9c0cc"/><stop offset="100%" stop-color="#47494d"/></linearGradient><linearGradient id="M" x1="0%" x2="100%" y1="50.01%" y2="50.01%"><stop offset="0%" stop-color="#b9c0cc"/><stop offset="100%" stop-color="#47494d" stop-opacity="0"/></linearGradient></defs><g fill="none" fill-rule="evenodd" transform="translate(.01 .446)"><circle cx="111.28" cy="19.65" r="8.49" fill="url(#a)" fill-rule="nonzero"/><path stroke="url(#b)" stroke-linecap="round" stroke-width="14" d="M85.45 66.5s25.83-2.25 25.83-45.67"/><g stroke-width=".25"><path stroke="url(#c)" d="M17.24 8.223s7.59-15.9 22.29-3.48" transform="translate(85 15.517)"/><path stroke="url(#d)" d="M17 9.873s8.21-15.14 22.31-2.66" transform="translate(85 15.517)"/><path stroke="url(#e)" d="M16.84 11.533s8.82-14.39 22.33-1.85" transform="translate(85 15.517)"/><path stroke="url(#f)" d="M16.64 13.183s9.44-13.62 22.35-1" transform="translate(85 15.517)"/><path stroke="url(#g)" d="M16.44 14.833s10.06-12.86 22.38-.21" transform="translate(85 15.517)"/><path stroke="url(#h)" d="M16.23 16.483s10.69-12.11 22.41.6" transform="translate(85 15.517)"/><path stroke="url(#i)" d="M16 18.143s11.3-11.35 22.43 1.42" transform="translate(85 15.517)"/><path stroke="url(#j)" d="M15.83 19.793s11.92-10.59 22.45 2.24" transform="translate(85 15.517)"/><path stroke="url(#k)" d="M15.63 21.483s12.54-9.87 22.47 3" transform="translate(85 15.517)"/><path stroke="url(#l)" d="M15.43 23.103s13.15-9.08 22.5 3.87" transform="translate(85 15.517)"/><path stroke="url(#m)" d="M15.22 24.753s13.78-8.27 22.53 4.73" transform="translate(85 15.517)"/><path stroke="url(#n)" d="M15 26.403s14.4-7.56 22.55 5.51" transform="translate(85 15.517)"/><path stroke="url(#o)" d="M14.82 28.063s15-6.81 22.57 6.32" transform="translate(85 15.517)"/><path stroke="url(#p)" d="M14.62 29.713s15.63-6 22.59 7.14" transform="translate(85 15.517)"/><path stroke="url(#q)" d="M13.49 30.693s15.25-4.57 21.21 8.84" transform="translate(85 15.517)"/><path stroke="url(#r)" d="M12.36 31.673s14.86-3.1 19.83 10.53" transform="translate(85 15.517)"/><path stroke="url(#s)" d="M11.24 32.663s14.46-1.63 18.44 12.21" transform="translate(85 15.517)"/><path stroke="url(#t)" d="M10.11 33.643s14.08-.16 17.06 13.91" transform="translate(85 15.517)"/><path stroke="url(#u)" d="M9 34.623s13.69 1.31 15.68 15.6" transform="translate(85 15.517)"/><path stroke="url(#v)" d="M7.85 35.603s13.3 2.79 14.3 17.3" transform="translate(85 15.517)"/><path stroke="url(#w)" d="M6.73 36.593a19.93 19.93 0 0 1 12.91 19" transform="translate(85 15.517)"/><path stroke="url(#x)" d="M5.6 37.573a21.34 21.34 0 0 1 11.53 20.67" transform="translate(85 15.517)"/><path stroke="url(#y)" d="M4.47 38.553a23 23 0 0 1 10.15 22.37" transform="translate(85 15.517)"/><path stroke="url(#z)" d="M3.34 39.533s11.75 8.67 8.77 24.06" transform="translate(85 15.517)"/><path stroke="url(#A)" d="M2.22 40.483s11.35 10.17 7.38 25.79" transform="translate(85 15.517)"/><path stroke="url(#B)" d="M1.09 41.483s11 11.61 6 27.44" transform="translate(85 15.517)"/><path stroke="url(#C)" d="M0 42.483s10.58 13.08 4.62 29.13" transform="translate(85 15.517)"/></g><path fill="#cacfd3" fill-rule="nonzero" d="m98.48 69-7.85-12.1a23.3 23.3 0 0 0 6.94-7.22l12.2 7.7A37.6 37.6 0 0 1 98.48 69"/><path fill="url(#D)" fill-rule="nonzero" d="M70.33 0v141.54H49.85l-6-4.64-5.99 4.64h-20.5V0z"/><path fill="url(#E)" fill-rule="nonzero" d="M17.36 141.54H8.74V11.12L17.36 0z"/><path fill="#252628" fill-rule="nonzero" d="M15.91 141.54v7.13a1 1 0 0 1-.73 1l-.2.06c-1.26.37-2.6.37-3.86 0l-.2-.06a1 1 0 0 1-.73-1v-7.13zm61.6 0v7.13a1 1 0 0 1-.74 1l-.19.06c-1.26.37-2.6.37-3.86 0l-.2-.06a1 1 0 0 1-.74-1v-7.13z"/><path fill="url(#F)" fill-rule="nonzero" d="M8.74 141.54H0V13.18l8.74-2.06z"/><path fill="url(#G)" fill-rule="nonzero" d="M70.33 141.54h8.63V11.12L70.33 0z"/><path fill="url(#H)" fill-rule="nonzero" d="M78.96 141.54h8.74V13.18l-8.74-2.06z"/><path fill="url(#I)" fill-rule="nonzero" d="M43.85 31.82V136.9l-5.99 4.64h-20.5V31.82z" opacity=".2"/><path fill="#252628" fill-rule="nonzero" d="M70.33 17.1H17.36v20.33l21.84 4.12 4.65 4.03 4.65-4.03 21.83-4.12z"/><path fill="url(#J)" fill-rule="nonzero" d="M69.83 17.6V37L48.4 41h-.13l-.1.09-4.32 3.74-4.32-3.74-.1-.09h-.14l-21.43-4V17.6h52m.5-.5h-53v20.33l21.84 4.12 4.65 4 4.65-4 21.83-4.12V17.1z"/><g fill-rule="nonzero"><path fill="url(#K)" d="M3.41 0h1.65v38.37H3.41z" transform="translate(17.84 10.95)"/><path fill="url(#L)" d="M8.86 0h1.65v38.37H8.86z" transform="translate(17.84 10.95)"/><path fill="url(#L)" d="M14.32 0h1.65v38.37h-1.65z" transform="translate(17.84 10.95)"/><path fill="url(#L)" d="M19.78 0h1.65v38.37h-1.65z" transform="translate(17.84 10.95)"/><path fill="url(#K)" d="M25.24 0h1.65v38.37h-1.65z" transform="translate(17.84 10.95)"/><path fill="url(#K)" d="M30.7 0h1.65v38.37H30.7z" transform="translate(17.84 10.95)"/><path fill="url(#L)" d="M36.15 0h1.65v38.37h-1.65z" transform="translate(17.84 10.95)"/><path fill="url(#L)" d="M41.61 0h1.65v38.37h-1.65z" transform="translate(17.84 10.95)"/><path fill="url(#L)" d="M47.07 0h1.65v38.37h-1.65z" transform="translate(17.84 10.95)"/><path fill="url(#M)" d="M24.89-9.39h2.07v51.85h-2.07z" transform="rotate(-90 40.32 13.09)"/></g><path fill="#252628" fill-rule="nonzero" d="M70.33 0v4.11S60.39 7.2 43.77 7.2 17.36 4.11 17.36 4.11V0z" opacity=".5"/><path fill="#fff" fill-rule="nonzero" d="M70.33 9.1v.9s-9.94 3.09-26.56 3.09S17.36 10 17.36 10v-.9s9.78 3.09 26.41 3.09S70.33 9.1 70.33 9.1" opacity=".4"/></g></svg>