<svg xmlns="http://www.w3.org/2000/svg" viewBox="0 0 79 151"><title>Pressurization unit(增压装置)</title><defs><linearGradient id="a" x1="69.887%" x2="30.113%" y1="11.94%" y2="88.06%"><stop offset="0%" stop-color="#d7dce0"/><stop offset="100%" stop-color="#8a9099"/></linearGradient><linearGradient id="b" x1="88.56%" x2="11.45%" y1="4.034%" y2="95.966%"><stop offset="0%" stop-color="#dce1e6"/><stop offset="100%" stop-color="#8a9099"/></linearGradient><linearGradient id="c" x1="95.387%" x2="4.628%" y1="-4209.256%" y2="-4283.253%"><stop offset="0%" stop-color="#dce1e6"/><stop offset="100%" stop-color="#8a9099"/></linearGradient><linearGradient id="d" x1="50.009%" x2="50.009%" y1="99.528%" y2="0%"><stop offset="0%" stop-color="#b9c0cc"/><stop offset="100%" stop-color="#47494d"/></linearGradient><linearGradient id="e" x1="50.009%" x2="50.009%" y1="100%" y2="0%"><stop offset="0%" stop-color="#b9c0cc"/><stop offset="100%" stop-color="#47494d"/></linearGradient><linearGradient id="f" x1="-3.916%" x2="95.716%" y1="50.551%" y2="50.551%"><stop offset="0%" stop-color="#45484d"/><stop offset="11%" stop-color="#494c51"/><stop offset="21%" stop-color="#53575d"/><stop offset="31%" stop-color="#666970"/><stop offset="41%" stop-color="#7f838c"/><stop offset="45%" stop-color="#8b9099"/><stop offset="70%" stop-color="#abafb3"/><stop offset="100%" stop-color="#45484d"/></linearGradient><linearGradient id="g" x1="50%" x2="50%" y1="100.058%" y2=".058%"><stop offset="0%" stop-color="#2e3033"/><stop offset="100%" stop-color="#929699"/></linearGradient><linearGradient id="h" x1="85.357%" x2="14.714%" y1="14.714%" y2="85.357%"><stop offset="0%" stop-color="#ebf0f5"/><stop offset="100%" stop-color="#b8c0cc"/></linearGradient><linearGradient id="i" x1="50%" x2="50%" y1="99.857%" y2="0%"><stop offset="0%" stop-color="#dce1e6"/><stop offset="100%" stop-color="#2e3033"/></linearGradient></defs><g fill="none" fill-rule="evenodd" transform="translate(.01 .446)"><path fill="url(#a)" fill-rule="nonzero" d="M0 0h78.37v150H0z"/><path fill="#494d53" fill-rule="nonzero" d="M5.2 6.51h67.97v80.72H5.2z"/><path fill="#dde4ec" fill-rule="nonzero" d="M6.02 6.51h67.15v79.9H6.02z"/><path fill="url(#b)" fill-rule="nonzero" d="M6.02 7.34h66.33v79.08H6.02z"/><path fill="#494d53" fill-rule="nonzero" d="M5.2 89.38h67.97v55.72H5.2z"/><path fill="#dde4ec" fill-rule="nonzero" d="M6.02 89.38h67.15v54.9H6.02z"/><path fill="url(#c)" fill-rule="nonzero" d="M6.02 90.21h66.33v54.08H6.02z"/><path fill="#2f3134" fill-rule="nonzero" d="M9.38 93.02h59.61v47.74H9.38z"/><path fill="url(#d)" fill-rule="nonzero" d="M11.99 95.71h53.89v2.12H11.99z"/><path fill="url(#e)" fill-rule="nonzero" d="M11.99 99.37h53.89v2.12H11.99z"/><path fill="url(#d)" fill-rule="nonzero" d="M11.99 103.04h53.89v2.12H11.99z"/><path fill="url(#e)" fill-rule="nonzero" d="M11.99 106.7h53.89v2.12H11.99z"/><path fill="url(#e)" fill-rule="nonzero" d="M11.99 110.36h53.89v2.12H11.99z"/><path fill="url(#e)" fill-rule="nonzero" d="M11.99 114.03h53.89v2.12H11.99z"/><path fill="url(#e)" fill-rule="nonzero" d="M11.99 117.69h53.89v2.12H11.99z"/><path fill="url(#e)" fill-rule="nonzero" d="M11.99 121.36h53.89v2.12H11.99z"/><path fill="url(#e)" fill-rule="nonzero" d="M11.99 125.02h53.89v2.12H11.99z"/><path fill="url(#d)" fill-rule="nonzero" d="M11.99 128.69h53.89v2.12H11.99z"/><path fill="url(#d)" fill-rule="nonzero" d="M11.99 132.2h53.89v2.12H11.99z"/><path fill="url(#e)" fill-rule="nonzero" d="M11.99 135.7h53.89v2.12H11.99z"/><path fill="#2f3134" fill-rule="nonzero" d="M38.27 95.71h2.55v42.12h-2.55z"/><circle cx="57.5" cy="53.02" r="1.36" fill="#2f3133" fill-rule="nonzero"/><path fill="url(#f)" fill-rule="nonzero" d="M57.5 51.92A1.11 1.11 0 1 1 56.4 53a1.11 1.11 0 0 1 1.1-1.1m0-.25a1.36 1.36 0 1 0 .233 2.71 1.36 1.36 0 0 0-.233-2.71"/><path fill="#46494d" fill-rule="nonzero" d="M57.13 51.67h1v2.71h-1z"/><circle cx="57.5" cy="58.02" r="1.36" fill="#2f3133" fill-rule="nonzero"/><path fill="url(#f)" fill-rule="nonzero" d="M57.5 56.92A1.11 1.11 0 1 1 56.4 58a1.11 1.11 0 0 1 1.1-1.1m0-.25a1.36 1.36 0 1 0 .233 2.71 1.36 1.36 0 0 0-.233-2.71"/><path fill="#46494d" fill-rule="nonzero" d="M57.13 56.67h1v2.71h-1z"/><circle cx="57.5" cy="63.02" r="1.36" fill="#2f3133" fill-rule="nonzero"/><path fill="url(#f)" fill-rule="nonzero" d="M57.5 61.92A1.11 1.11 0 1 1 56.4 63a1.11 1.11 0 0 1 1.1-1.1m0-.25a1.36 1.36 0 1 0 .233 2.71 1.36 1.36 0 0 0-.233-2.71"/><path fill="#46494d" fill-rule="nonzero" d="M57.13 61.67h1v2.71h-1z"/><circle cx="57.5" cy="68.02" r="1.36" fill="#2f3133" fill-rule="nonzero"/><path fill="url(#f)" fill-rule="nonzero" d="M57.5 66.92A1.11 1.11 0 1 1 56.4 68a1.11 1.11 0 0 1 1.1-1.1m0-.25a1.36 1.36 0 1 0 .233 2.71 1.36 1.36 0 0 0-.233-2.71"/><path fill="#46494d" fill-rule="nonzero" d="M57.13 66.67h1v2.71h-1z"/><circle cx="38.27" cy="26.01" r="8.58" fill="#252628" fill-rule="nonzero"/><path fill="url(#g)" fill-rule="nonzero" d="M38.27 19.43A6.58 6.58 0 1 1 31.69 26a6.59 6.59 0 0 1 6.58-6.58m0-2a8.58 8.58 0 1 0 0 17.16 8.58 8.58 0 0 0 0-17.16"/><path fill="url(#h)" fill-rule="nonzero" d="M45.26 26a7 7 0 1 1-14 0 7 7 0 0 1 14 0"/><path fill="#47484d" fill-rule="nonzero" d="M44.52 29.13a7 7 0 0 1-12.5 0z"/><path fill="url(#i)" fill-rule="nonzero" d="M38.27 19.26A6.75 6.75 0 1 1 31.53 26a6.76 6.76 0 0 1 6.74-6.74m0-.25a7 7 0 1 0 0 14 7 7 0 0 0 0-14"/><path stroke="#b33000" d="M34 25.92a4.94 4.94 0 0 1 8.56 0"/><path stroke="#51b31b" d="M34 25.92a5 5 0 0 1 1.49-1.61"/><path fill="#a63c27" fill-rule="nonzero" d="m38.38 21-.17 7.63h.34z"/></g></svg>