<svg xmlns="http://www.w3.org/2000/svg" viewBox="0 0 151 74"><title>Radiator coil(加热盘管)</title><defs><linearGradient id="a" x1="50%" x2="50%" y1="100%" y2="0%"><stop offset="0%" stop-color="#dce1e6"/><stop offset="100%" stop-color="#5c6066"/></linearGradient><linearGradient id="b" x1="0%" x2="100%" y1="50%" y2="50%"><stop offset="0%" stop-color="#767b82"/><stop offset="2%" stop-color="#9ba1ab"/><stop offset="98%" stop-color="#9ba1ab"/><stop offset="99%" stop-color="#d7dce0"/><stop offset="100%" stop-color="#767b82"/></linearGradient><linearGradient id="c" x1="0%" x2="100%" y1="50.008%" y2="50.008%"><stop offset="0%" stop-color="#767b82"/><stop offset="2%" stop-color="#9ba1ab"/><stop offset="98%" stop-color="#9ba1ab"/><stop offset="99%" stop-color="#d7dce0"/><stop offset="100%" stop-color="#767b82"/></linearGradient><linearGradient id="d" x1="0%" x2="100%" y1="50%" y2="50%"><stop offset="0%" stop-color="#767b82"/><stop offset="2%" stop-color="#9ba1ab"/><stop offset="98%" stop-color="#9ba1ab"/><stop offset="99%" stop-color="#d7dce0"/><stop offset="100%" stop-color="#767b82"/></linearGradient><linearGradient id="e" x1="0%" x2="100%" y1="50%" y2="50%"><stop offset="0%" stop-color="#767b82"/><stop offset="2%" stop-color="#9ba1ab"/><stop offset="98%" stop-color="#9ba1ab"/><stop offset="99%" stop-color="#d7dce0"/><stop offset="100%" stop-color="#767b82"/></linearGradient><linearGradient id="f" x1="50.335%" x2="50.335%" y1="100.296%" y2=".296%"><stop offset="0%" stop-color="#676b70"/><stop offset="2%" stop-color="#484b4d"/><stop offset="19%" stop-color="#747980"/><stop offset="20%" stop-color="#d1d5db"/><stop offset="79%" stop-color="#c7cfdb"/><stop offset="80%" stop-color="#edf5ff"/><stop offset="81%" stop-color="#c3c7cc"/><stop offset="100%" stop-color="#929599"/></linearGradient><linearGradient id="g" x1="-1.004%" x2="99.107%" y1="52.219%" y2="52.219%"><stop offset="0%" stop-color="#2e3033"/><stop offset="100%" stop-color="#9ba1ab" stop-opacity="0"/></linearGradient><linearGradient id="h" x1="50.558%" x2="50.558%" y1="131.667%" y2="31.91%"><stop offset="0%" stop-color="#676b70"/><stop offset="2%" stop-color="#484b4d"/><stop offset="19%" stop-color="#747980"/><stop offset="20%" stop-color="#d1d5db"/><stop offset="79%" stop-color="#c7cfdb"/><stop offset="80%" stop-color="#edf5ff"/><stop offset="81%" stop-color="#c3c7cc"/><stop offset="100%" stop-color="#929599"/></linearGradient><linearGradient id="i" x1="22997.545%" x2="22997.545%" y1="-13330.325%" y2="-13430.325%"><stop offset="0%" stop-color="#676b70"/><stop offset="2%" stop-color="#484b4d"/><stop offset="19%" stop-color="#747980"/><stop offset="20%" stop-color="#d1d5db"/><stop offset="79%" stop-color="#c7cfdb"/><stop offset="80%" stop-color="#edf5ff"/><stop offset="81%" stop-color="#c3c7cc"/><stop offset="100%" stop-color="#929599"/></linearGradient><linearGradient id="j" x1="22894.866%" x2="23094.866%" y1="-13378.402%" y2="-13378.402%"><stop offset="0%" stop-color="#2e3033"/><stop offset="100%" stop-color="#9ba1ab" stop-opacity="0"/></linearGradient><linearGradient id="k" x1="50.558%" x2="50.558%" y1="130.556%" y2="30.946%"><stop offset="0%" stop-color="#676b70"/><stop offset="2%" stop-color="#484b4d"/><stop offset="19%" stop-color="#747980"/><stop offset="20%" stop-color="#d1d5db"/><stop offset="79%" stop-color="#c7cfdb"/><stop offset="80%" stop-color="#edf5ff"/><stop offset="81%" stop-color="#c3c7cc"/><stop offset="100%" stop-color="#929599"/></linearGradient><linearGradient id="l" x1="50.335%" x2="50.335%" y1="-.148%" y2="99.852%"><stop offset="0%" stop-color="#676b70"/><stop offset="2%" stop-color="#484b4d"/><stop offset="19%" stop-color="#747980"/><stop offset="20%" stop-color="#d1d5db"/><stop offset="79%" stop-color="#c7cfdb"/><stop offset="80%" stop-color="#edf5ff"/><stop offset="81%" stop-color="#c3c7cc"/><stop offset="100%" stop-color="#929599"/></linearGradient><linearGradient id="m" x1="-1.004%" x2="99.107%" y1="47.781%" y2="47.781%"><stop offset="0%" stop-color="#2e3033"/><stop offset="100%" stop-color="#9ba1ab" stop-opacity="0"/></linearGradient><linearGradient id="n" x1="50.112%" x2="50.112%" y1="-31.753%" y2="68.003%"><stop offset="0%" stop-color="#676b70"/><stop offset="2%" stop-color="#484b4d"/><stop offset="19%" stop-color="#747980"/><stop offset="20%" stop-color="#d1d5db"/><stop offset="79%" stop-color="#c7cfdb"/><stop offset="80%" stop-color="#edf5ff"/><stop offset="81%" stop-color="#c3c7cc"/><stop offset="100%" stop-color="#929599"/></linearGradient><linearGradient id="o" x1="-1.004%" x2="98.996%" y1="47.781%" y2="47.781%"><stop offset="0%" stop-color="#2e3033"/><stop offset="100%" stop-color="#9ba1ab" stop-opacity="0"/></linearGradient><linearGradient id="p" x1="50.112%" x2="50.112%" y1="-30.616%" y2="69.141%"><stop offset="0%" stop-color="#676b70"/><stop offset="2%" stop-color="#484b4d"/><stop offset="19%" stop-color="#747980"/><stop offset="20%" stop-color="#d1d5db"/><stop offset="79%" stop-color="#c7cfdb"/><stop offset="80%" stop-color="#edf5ff"/><stop offset="81%" stop-color="#c3c7cc"/><stop offset="100%" stop-color="#929599"/></linearGradient><linearGradient id="q" x1="50%" x2="50%" y1="104.688%" y2="-3.906%"><stop offset="0%" stop-color="#dce1e6"/><stop offset="100%" stop-color="#5c6066"/></linearGradient><linearGradient id="r" x1="50%" x2="50%" y1="103.906%" y2="-4.688%"><stop offset="0%" stop-color="#dce1e6"/><stop offset="100%" stop-color="#5c6066"/></linearGradient><linearGradient id="s" x1="49.994%" x2="49.994%" y1="100%" y2="0%"><stop offset="0%" stop-color="#a9b1bb"/><stop offset="9%" stop-color="#61666b"/><stop offset="18%" stop-color="#696e73"/><stop offset="32%" stop-color="#7e8489"/><stop offset="49%" stop-color="#a1a7ae"/><stop offset="69%" stop-color="#d1d8e0"/><stop offset="75%" stop-color="#e2eaf2"/><stop offset="93%" stop-color="#9ba1ab"/><stop offset="100%" stop-color="#767b82"/></linearGradient><linearGradient id="t" x1="0%" x2="100%" y1="50%" y2="50%"><stop offset="0%" stop-color="#ff7300"/><stop offset="8%" stop-color="#fe7600" stop-opacity=".96"/><stop offset="23%" stop-color="#fb7e00" stop-opacity=".86"/><stop offset="41%" stop-color="#f78c00" stop-opacity=".7"/><stop offset="62%" stop-color="#f19e00" stop-opacity=".47"/><stop offset="86%" stop-color="#eab600" stop-opacity=".19"/><stop offset="100%" stop-color="#e5c500" stop-opacity="0"/></linearGradient><linearGradient id="u" x1=".143%" x2="100.143%" y1="50.296%" y2="50.296%"><stop offset="0%" stop-color="#ff7300"/><stop offset="8%" stop-color="#fe7600" stop-opacity=".96"/><stop offset="23%" stop-color="#fb7e00" stop-opacity=".86"/><stop offset="41%" stop-color="#f78c00" stop-opacity=".7"/><stop offset="62%" stop-color="#f19e00" stop-opacity=".47"/><stop offset="86%" stop-color="#eab600" stop-opacity=".19"/><stop offset="100%" stop-color="#e5c500" stop-opacity="0"/></linearGradient></defs><g fill="none" fill-rule="nonzero" transform="translate(.01 .446)"><path fill="#252628" d="M32.81 6.14h84.38v60.27H32.81z"/><path fill="url(#a)" d="M116.69 6.64v59.27H33.31V6.64zm.5-.5H32.81v60.27h84.38z"/><path fill="url(#b)" d="M8.97 0h6.14v72.56H8.97z"/><path fill="url(#b)" d="M134.89 0h6.14v72.56h-6.14z"/><path fill="url(#c)" d="M15.11 6.14h17.7v60.27h-17.7z"/><path fill="url(#c)" d="M117.19 6.14h17.7v60.27h-17.7z"/><path fill="url(#d)" d="M71.93 9.59h6.14v119.78h-6.14z" transform="rotate(-90 75 69.48)"/><path fill="url(#e)" d="M71.93-56.82h6.14V62.96h-6.14z" transform="rotate(-90 75 3.07)"/><path fill="url(#f)" d="M4.48 6.09h4.48v6.76H4.48z"/><path fill="url(#g)" d="M4.48 6.09h4.48v6.76H4.48z" opacity=".3"/><path fill="url(#h)" d="M0 3.72h4.48v11.52H0z"/><path fill="url(#i)" d="M4.48 59.88h4.48v6.76H4.48z"/><path fill="url(#j)" d="M4.48 59.88h4.48v6.76H4.48z" opacity=".3"/><path fill="url(#k)" d="M0 57.5h4.48v11.52H0z"/><path fill="url(#l)" d="M141.04 6.1h4.48v6.76h-4.48z" transform="matrix(-1 0 0 -1 286.56 18.96)"/><path fill="url(#m)" d="M141.04 6.1h4.48v6.76h-4.48z" opacity=".3" transform="matrix(-1 0 0 -1 286.56 18.96)"/><path fill="url(#n)" d="M145.52 3.71H150v11.52h-4.48z" transform="matrix(-1 0 0 -1 295.52 18.94)"/><path fill="url(#l)" d="M141.04 59.89h4.48v6.76h-4.48z" transform="matrix(-1 0 0 -1 286.56 126.54)"/><path fill="url(#o)" d="M141.04 59.89h4.48v6.76h-4.48z" opacity=".3" transform="matrix(-1 0 0 -1 286.56 126.54)"/><path fill="url(#p)" d="M145.52 57.51H150v11.52h-4.48z" transform="matrix(-1 0 0 -1 295.52 126.54)"/><circle cx="17.06" cy="3.07" r="1" fill="#252628" stroke="url(#q)" stroke-width=".1"/><circle cx="22.56" cy="3.07" r="1" fill="#252628" stroke="url(#q)" stroke-width=".1"/><circle cx="28.07" cy="3.07" r="1" fill="#252628" stroke="url(#q)" stroke-width=".1"/><circle cx="33.57" cy="3.07" r="1" fill="#252628" stroke="url(#q)" stroke-width=".1"/><circle cx="39.07" cy="3.07" r="1" fill="#252628" stroke="url(#q)" stroke-width=".1"/><circle cx="44.58" cy="3.07" r="1" fill="#252628" stroke="url(#q)" stroke-width=".1"/><circle cx="50.08" cy="3.07" r="1" fill="#252628" stroke="url(#q)" stroke-width=".1"/><circle cx="55.59" cy="3.07" r="1" fill="#252628" stroke="url(#q)" stroke-width=".1"/><circle cx="61.09" cy="3.07" r="1" fill="#252628" stroke="url(#q)" stroke-width=".1"/><circle cx="66.59" cy="3.07" r="1" fill="#252628" stroke="url(#q)" stroke-width=".1"/><circle cx="72.1" cy="3.07" r="1" fill="#252628" stroke="url(#q)" stroke-width=".1"/><circle cx="77.6" cy="3.07" r="1" fill="#252628" stroke="url(#q)" stroke-width=".1"/><circle cx="83.1" cy="3.07" r="1" fill="#252628" stroke="url(#q)" stroke-width=".1"/><circle cx="88.61" cy="3.07" r="1" fill="#252628" stroke="url(#q)" stroke-width=".1"/><circle cx="94.11" cy="3.07" r="1" fill="#252628" stroke="url(#q)" stroke-width=".1"/><circle cx="99.62" cy="3.07" r="1" fill="#252628" stroke="url(#q)" stroke-width=".1"/><circle cx="105.12" cy="3.07" r="1" fill="#252628" stroke="url(#q)" stroke-width=".1"/><circle cx="110.62" cy="3.07" r="1" fill="#252628" stroke="url(#q)" stroke-width=".1"/><circle cx="116.13" cy="3.07" r="1" fill="#252628" stroke="url(#q)" stroke-width=".1"/><circle cx="121.63" cy="3.07" r="1" fill="#252628" stroke="url(#q)" stroke-width=".1"/><circle cx="127.13" cy="3.07" r="1" fill="#252628" stroke="url(#q)" stroke-width=".1"/><circle cx="132.64" cy="3.07" r="1" fill="#252628" stroke="url(#q)" stroke-width=".1"/><circle cx="17.06" cy="70.13" r="1" fill="#252628" stroke="url(#r)" stroke-width=".1"/><circle cx="22.56" cy="70.13" r="1" fill="#252628" stroke="url(#r)" stroke-width=".1"/><circle cx="28.07" cy="70.13" r="1" fill="#252628" stroke="url(#r)" stroke-width=".1"/><circle cx="33.57" cy="70.13" r="1" fill="#252628" stroke="url(#r)" stroke-width=".1"/><circle cx="39.07" cy="70.13" r="1" fill="#252628" stroke="url(#r)" stroke-width=".1"/><circle cx="44.58" cy="70.13" r="1" fill="#252628" stroke="url(#r)" stroke-width=".1"/><circle cx="50.08" cy="70.13" r="1" fill="#252628" stroke="url(#r)" stroke-width=".1"/><circle cx="55.59" cy="70.13" r="1" fill="#252628" stroke="url(#r)" stroke-width=".1"/><circle cx="61.09" cy="70.13" r="1" fill="#252628" stroke="url(#r)" stroke-width=".1"/><circle cx="66.59" cy="70.13" r="1" fill="#252628" stroke="url(#r)" stroke-width=".1"/><circle cx="72.1" cy="70.13" r="1" fill="#252628" stroke="url(#r)" stroke-width=".1"/><circle cx="77.6" cy="70.13" r="1" fill="#252628" stroke="url(#r)" stroke-width=".1"/><circle cx="83.1" cy="70.13" r="1" fill="#252628" stroke="url(#r)" stroke-width=".1"/><circle cx="88.61" cy="70.13" r="1" fill="#252628" stroke="url(#r)" stroke-width=".1"/><circle cx="94.11" cy="70.13" r="1" fill="#252628" stroke="url(#r)" stroke-width=".1"/><circle cx="99.62" cy="70.13" r="1" fill="#252628" stroke="url(#r)" stroke-width=".1"/><circle cx="105.12" cy="70.13" r="1" fill="#252628" stroke="url(#r)" stroke-width=".1"/><circle cx="110.62" cy="70.13" r="1" fill="#252628" stroke="url(#r)" stroke-width=".1"/><circle cx="116.13" cy="70.13" r="1" fill="#252628" stroke="url(#r)" stroke-width=".1"/><circle cx="121.63" cy="70.13" r="1" fill="#252628" stroke="url(#r)" stroke-width=".1"/><circle cx="127.13" cy="70.13" r="1" fill="#252628" stroke="url(#r)" stroke-width=".1"/><circle cx="132.64" cy="70.13" r="1" fill="#252628" stroke="url(#r)" stroke-width=".1"/><path fill="url(#s)" d="M33.35 60.33h83.33v3.38H33.35z"/><path fill="url(#t)" d="M33.35 60.33h6.99v3.38h-6.99z" opacity=".3" style="mix-blend-mode:overlay"/><path fill="url(#u)" d="M109.71 60.34h6.97v3.38h-6.97z" opacity=".3" style="mix-blend-mode:overlay" transform="matrix(-1 0 0 -1 226.39 124.06)"/><path fill="url(#s)" d="M33.35 55.13h83.33v3.38H33.35z"/><path fill="url(#t)" d="M33.35 55.13h6.99v3.38h-6.99z" opacity=".3" style="mix-blend-mode:overlay"/><path fill="url(#u)" d="M109.71 55.14h6.97v3.38h-6.97z" opacity=".3" style="mix-blend-mode:overlay" transform="matrix(-1 0 0 -1 226.39 113.66)"/><path fill="url(#s)" d="M33.35 49.93h83.33v3.38H33.35z"/><path fill="url(#t)" d="M33.35 49.93h6.99v3.38h-6.99z" opacity=".3" style="mix-blend-mode:overlay"/><path fill="url(#u)" d="M109.71 49.94h6.97v3.38h-6.97z" opacity=".3" style="mix-blend-mode:overlay" transform="matrix(-1 0 0 -1 226.39 103.26)"/><path fill="url(#s)" d="M33.35 44.73h83.33v3.38H33.35z"/><path fill="url(#t)" d="M33.35 44.73h6.99v3.38h-6.99z" opacity=".3" style="mix-blend-mode:overlay"/><path fill="url(#u)" d="M109.71 44.74h6.97v3.38h-6.97z" opacity=".3" style="mix-blend-mode:overlay" transform="matrix(-1 0 0 -1 226.39 92.86)"/><path fill="url(#s)" d="M33.35 39.53h83.33v3.38H33.35z"/><path fill="url(#t)" d="M33.35 39.53h6.99v3.38h-6.99z" opacity=".3" style="mix-blend-mode:overlay"/><path fill="url(#u)" d="M109.71 39.54h6.97v3.38h-6.97z" opacity=".3" style="mix-blend-mode:overlay" transform="matrix(-1 0 0 -1 226.39 82.46)"/><path fill="url(#s)" d="M33.35 34.33h83.33v3.38H33.35z"/><path fill="url(#t)" d="M33.35 34.33h6.99v3.38h-6.99z" opacity=".3" style="mix-blend-mode:overlay"/><path fill="url(#u)" d="M109.71 34.34h6.97v3.38h-6.97z" opacity=".3" style="mix-blend-mode:overlay" transform="matrix(-1 0 0 -1 226.39 72.06)"/><path fill="url(#s)" d="M33.35 29.13h83.33v3.38H33.35z"/><path fill="url(#t)" d="M33.35 29.13h6.99v3.38h-6.99z" opacity=".3" style="mix-blend-mode:overlay"/><path fill="url(#u)" d="M109.71 29.14h6.97v3.38h-6.97z" opacity=".3" style="mix-blend-mode:overlay" transform="matrix(-1 0 0 -1 226.39 61.66)"/><path fill="url(#s)" d="M33.35 23.93h83.33v3.38H33.35z"/><path fill="url(#t)" d="M33.35 23.93h6.99v3.38h-6.99z" opacity=".3" style="mix-blend-mode:overlay"/><path fill="url(#u)" d="M109.71 23.94h6.97v3.38h-6.97z" opacity=".3" style="mix-blend-mode:overlay" transform="matrix(-1 0 0 -1 226.39 51.26)"/><path fill="url(#s)" d="M33.35 18.73h83.33v3.38H33.35z"/><path fill="url(#t)" d="M33.35 18.73h6.99v3.38h-6.99z" opacity=".3" style="mix-blend-mode:overlay"/><path fill="url(#u)" d="M109.71 18.74h6.97v3.38h-6.97z" opacity=".3" style="mix-blend-mode:overlay" transform="matrix(-1 0 0 -1 226.39 40.86)"/><path fill="url(#s)" d="M33.35 13.53h83.33v3.38H33.35z"/><path fill="url(#t)" d="M33.35 13.53h6.99v3.38h-6.99z" opacity=".3" style="mix-blend-mode:overlay"/><path fill="url(#u)" d="M109.71 13.54h6.97v3.38h-6.97z" opacity=".3" style="mix-blend-mode:overlay" transform="matrix(-1 0 0 -1 226.39 30.46)"/><path fill="url(#s)" d="M33.35 8.33h83.33v3.38H33.35z"/><path fill="url(#t)" d="M33.35 8.33h6.99v3.38h-6.99z" opacity=".3" style="mix-blend-mode:overlay"/><path fill="url(#u)" d="M109.71 8.34h6.97v3.38h-6.97z" opacity=".3" style="mix-blend-mode:overlay" transform="matrix(-1 0 0 -1 226.39 20.06)"/></g></svg>