<svg xmlns="http://www.w3.org/2000/svg" viewBox="0 0 151 149"><title>Return air grille（回风阀开度）</title><g fill="none" fill-rule="nonzero"><path fill="#f9fafc" d="m150.01 101.516-74.75 43.44-75.23-43.44 74.75-43.44z"/><path fill="#7a8799" d="m150.01 101.516-.02 3.55-74.75 43.44.02-3.55z"/><path fill="#c3ccd9" d="m75.26 144.956-.02 3.55-75.23-43.44.02-3.55z"/><path fill="#596980" d="M48.73 1.266v20.87l-.22 56.11 48.9 28.2 4 2.31 14.09 8.14.22-77zm4.93 23.75 43.88 25.34v6.83l-.13 43.09-43.89-25.33z"/><path fill="#3d4e66" d="m53.71 8.756-1-.57v16.26l-.14 51.5 44.9 25.92 4 2.31 10.1 5.83v-1.56l.19-66.19zm-.19 66.19.14-49.93 43.88 25.34v6.83l-.13 43.09z"/><path fill="#3d4e66" d="m111.71 42.246-.19 66.19-10.1-5.83-4-2.31.13-43.09.02-6.83-.03-.02-43.88-25.34.02-4.6.03-11.66z"/><path fill="#152133" d="m115.72 39.936 1.41-.82-.22 76.99-1.41.82z"/><path fill="#596980" d="m48.73 1.266 1.41-.82 66.99 38.67-1.41.82z"/><path fill="#3d4e66" d="m101.54 48.056-47.86-27.61-1-.58-4-2.3v4.6l4 2.31 1 .57 43.86 25.31v6.83l-.13 43.09v6.17l4 2.31v-6.18l.16-54.53z"/><path fill="#596980" d="m102.8 107.856-.05 16.38-66.99-38.67.22-76.98 14.33 8.27-.17 60.59z"/><path fill="#7a8799" d="m102.96 47.256 12.69-7.37-.22 76.98-12.68 7.37z"/><path fill="#cfd8e6" d="m35.98 8.586 12.68-7.38 66.99 38.68-12.69 7.37z"/><path fill="#3d4e66" d="M101.54 48.056 34.59 9.446l-.22 77 .29.17 66.7 38.51.22-77zm-4 9.15-.16 54.64v2l-55-31.76.18-63.47 55 31.75z"/><path fill="#596980" d="m97.39 113.846-.01 2.72v1.57l-58.72-33.9-.28-.16.19-67.76 1 .57 2.99 1.72-.18 63.47.02.01z"/><path fill="#3d4e66" d="m97.39 111.846.16-54.64-.16 56.64z"/><path fill="#152133" d="m101.57 48.076 1.41-.82-.21 76.98-1.41.82z"/><path fill="#596980" d="m34.59 9.396 1.41-.82 66.98 38.68-1.41.82z"/><path fill="#27354d" d="m38.57 16.316 14.09 8.13-.14 51.5-14.14 8.13z"/><path fill="#7a8799" d="M97.57 51.326v26.81L51.8 51.716l-1.86-5.47-.96-2.84-6.14-18.06-.98-2.88-1.4-4.11z"/><path fill="#b8c0cc" d="M97.57 54.576v2.32l-54.73-31.55-2-1.18a1.003 1.003 0 0 1 1-1.74h.07zm0 16.81v2.31l-47.63-27.45-1.77-1a1 1 0 0 1-.36-1.37 1 1 0 0 1 1.2-.43l.19.08z"/><path fill="#7a8799" d="M97.57 81.216v26.81L51.8 81.606l-1.86-5.47-.96-2.84-6.14-18.06-.98-2.88-1.4-4.11z"/><path fill="#b8c0cc" d="M97.57 84.446v2.32l-54.73-31.53-2-1.18a1.003 1.003 0 0 1 1-1.74h.07zm0 16.83v2.31l-47.63-27.45-1.77-1a1 1 0 0 1-.36-1.37 1 1 0 0 1 1.2-.47l.19.08z"/></g></svg>