<svg xmlns="http://www.w3.org/2000/svg" viewBox="0 0 151 62"><title>Rooftop air conditioner(屋顶空调)</title><defs><linearGradient id="a" x1="84.893%" x2="15.107%" y1="36.192%" y2="63.808%"><stop offset="0%" stop-color="#d7dce0"/><stop offset="100%" stop-color="#8a9099"/></linearGradient><linearGradient id="b" x1="50%" x2="50%" y1="100%" y2="0%"><stop offset="0%" stop-color="#b9c0cc"/><stop offset="100%" stop-color="#47494d"/></linearGradient><linearGradient id="c" x1="50%" x2="50%" y1="100.415%" y2="0%"><stop offset="0%" stop-color="#b9c0cc"/><stop offset="100%" stop-color="#47494d"/></linearGradient><linearGradient id="d" x1="99.472%" x2=".528%" y1="1.573%" y2="98.427%"><stop offset="0%" stop-color="#dce1e6"/><stop offset="100%" stop-color="#8a9099"/></linearGradient><linearGradient id="e" x1="62.535%" x2="37.512%" y1="-6165.098%" y2="-6233.464%"><stop offset="0%" stop-color="#dce1e6"/><stop offset="100%" stop-color="#8a9099"/></linearGradient><linearGradient id="f" x1="62.488%" x2="37.512%" y1="-6165.098%" y2="-6233.464%"><stop offset="0%" stop-color="#dce1e6"/><stop offset="100%" stop-color="#8a9099"/></linearGradient><linearGradient id="g" x1="62.488%" x2="37.512%" y1="-5669.281%" y2="-5737.516%"><stop offset="0%" stop-color="#dce1e6"/><stop offset="100%" stop-color="#8a9099"/></linearGradient><linearGradient id="h" x1="0%" x2="100%" y1="50.244%" y2="50.244%"><stop offset="0%" stop-color="#a9b1bb"/><stop offset="6%" stop-color="#5d6166"/><stop offset="78%" stop-color="#e2eaf2"/><stop offset="93%" stop-color="#9ba1ab"/><stop offset="100%" stop-color="#767b82"/></linearGradient></defs><g fill="none" fill-rule="evenodd"><path fill="url(#a)" fill-rule="nonzero" d="M0 2.05h150v59.36H0z" transform="translate(.01 .446)"/><path stroke="#5b5f66" stroke-width=".25" d="M32.27 61.856V2.496m29.43 0v59.36m0 0V2.496m29.44 0v59.36m29.43-59.36v59.36m-29.43 0V2.496"/><path fill="#2f3134" fill-rule="nonzero" d="M91.14 2.496h29.44v43.23H91.14z"/><path fill="url(#b)" fill-rule="nonzero" d="M92.22 3.35h27.26v2.41H92.22z" transform="translate(.01 .446)"/><path fill="url(#b)" fill-rule="nonzero" d="M92.22 7.53h27.26v2.41H92.22z" transform="translate(.01 .446)"/><path fill="url(#c)" fill-rule="nonzero" d="M92.22 11.7h27.26v2.41H92.22z" transform="translate(.01 .446)"/><path fill="url(#c)" fill-rule="nonzero" d="M92.22 15.88h27.26v2.41H92.22z" transform="translate(.01 .446)"/><path fill="url(#b)" fill-rule="nonzero" d="M92.22 20.06h27.26v2.41H92.22z" transform="translate(.01 .446)"/><path fill="url(#b)" fill-rule="nonzero" d="M92.22 24.24h27.26v2.41H92.22z" transform="translate(.01 .446)"/><path fill="url(#b)" fill-rule="nonzero" d="M92.22 28.42h27.26v2.41H92.22z" transform="translate(.01 .446)"/><path fill="url(#b)" fill-rule="nonzero" d="M92.22 32.6h27.26v2.41H92.22z" transform="translate(.01 .446)"/><path fill="url(#c)" fill-rule="nonzero" d="M92.22 36.77h27.26v2.41H92.22z" transform="translate(.01 .446)"/><path fill="url(#c)" fill-rule="nonzero" d="M92.22 40.95h27.26v2.41H92.22z" transform="translate(.01 .446)"/><path stroke="#5b5f66" stroke-width=".25" d="M120.57 61.856V2.496"/><path fill="#2f3134" fill-rule="nonzero" d="M123.61 35.456h23.37v23.37h-23.37z"/><path stroke="#5b5f66" stroke-width=".25" d="M123.61 14.376h23.37v12.26h-23.37z"/><path fill="#494d53" fill-rule="nonzero" d="M10.45 22.446h12.2v11.96h-12.2z"/><path fill="#dde4ec" fill-rule="nonzero" d="M10.87 22.446h11.78v11.54H10.87z"/><path fill="url(#d)" fill-rule="nonzero" d="M10.86 22.42h11.36v11.12H10.86z" transform="translate(.01 .446)"/><path fill="#494d53" fill-rule="nonzero" d="M27.64 35.426h3.38v8.23h-3.38z"/><path fill="#dde4ec" fill-rule="nonzero" d="M27.92 35.426h3.09v7.94h-3.09z"/><path fill="url(#e)" fill-rule="nonzero" d="M27.91 35.27h2.8v7.65h-2.8z" transform="translate(.01 .446)"/><path fill="#494d53" fill-rule="nonzero" d="M33.55 35.426h3.38v8.23h-3.38z"/><path fill="#dde4ec" fill-rule="nonzero" d="M33.84 35.426h3.09v7.94h-3.09z"/><path fill="url(#e)" fill-rule="nonzero" d="M33.83 35.27h2.8v7.65h-2.8z" transform="translate(.01 .446)"/><path fill="#494d53" fill-rule="nonzero" d="M86.2 35.426h3.38v8.23H86.2z"/><path fill="#dde4ec" fill-rule="nonzero" d="M86.49 35.426h3.09v7.94h-3.09z"/><path fill="url(#f)" fill-rule="nonzero" d="M86.48 35.27h2.8v7.65h-2.8z" transform="translate(.01 .446)"/><path fill="#494d53" fill-rule="nonzero" d="M124.97 16.456h3.38v8.23h-3.38z"/><path fill="#dde4ec" fill-rule="nonzero" d="M125.26 16.456h3.09v7.94h-3.09z"/><path fill="url(#g)" fill-rule="nonzero" d="M125.25 16.3h2.8v7.65h-2.8z" transform="translate(.01 .446)"/><path fill="url(#h)" fill-rule="nonzero" d="M126.79 0h11.99v2.05h-11.99z" transform="translate(.01 .446)"/></g></svg>