<svg xmlns="http://www.w3.org/2000/svg" viewBox="0 0 151 151"><title>Roof vent(屋顶通风口)</title><defs><linearGradient id="a" x1="0%" x2="100%" y1="49.992%" y2="49.992%"><stop offset="0%" stop-color="#a9b1bb"/><stop offset="9%" stop-color="#61666b"/><stop offset="18%" stop-color="#696e73"/><stop offset="32%" stop-color="#7e8489"/><stop offset="49%" stop-color="#a1a7ae"/><stop offset="69%" stop-color="#d1d8e0"/><stop offset="75%" stop-color="#e2eaf2"/><stop offset="93%" stop-color="#9ba1ab"/><stop offset="100%" stop-color="#767b82"/></linearGradient><linearGradient id="b" x1="50%" x2="50%" y1="99.955%" y2="-.045%"><stop offset="0%" stop-color="#2e3033"/><stop offset="100%" stop-color="#9ba1ab" stop-opacity="0"/></linearGradient><linearGradient id="c" x1="50%" x2="50%" y1="100%" y2="-.047%"><stop offset="0%" stop-color="#9ba1ab" stop-opacity="0"/><stop offset="100%" stop-color="#2e3033"/></linearGradient><linearGradient id="d" x1="-320.307%" x2="-295.007%" y1="-101.377%" y2="-118.215%"><stop offset="0%" stop-color="#a9b1bb"/><stop offset="9%" stop-color="#61666b"/><stop offset="18%" stop-color="#696e73"/><stop offset="32%" stop-color="#7e8489"/><stop offset="49%" stop-color="#a1a7ae"/><stop offset="69%" stop-color="#d1d8e0"/><stop offset="75%" stop-color="#e2eaf2"/><stop offset="93%" stop-color="#9ba1ab"/><stop offset="100%" stop-color="#767b82"/></linearGradient><linearGradient id="e" x1="0%" x2="100%" y1="50%" y2="50%"><stop offset="0%" stop-color="#a9b1bb"/><stop offset="9%" stop-color="#61666b"/><stop offset="19%" stop-color="#696e73"/><stop offset="34%" stop-color="#7e8489"/><stop offset="52%" stop-color="#a1a7ae"/><stop offset="73%" stop-color="#d1d8e0"/><stop offset="79%" stop-color="#e2eaf2"/><stop offset="93%" stop-color="#9ba1ab"/><stop offset="100%" stop-color="#767b82"/></linearGradient><linearGradient id="f" x1="77.42%" x2="22.588%" y1="47.348%" y2="52.651%"><stop offset="0%" stop-color="#d7dce0"/><stop offset="100%" stop-color="#8a9099"/></linearGradient><linearGradient id="g" x1="50%" x2="50%" y1="100%" y2="0%"><stop offset="0%" stop-color="#9ba1ab" stop-opacity="0"/><stop offset="100%" stop-color="#2e3033"/></linearGradient><linearGradient id="h" x1="-315.202%" x2="-265.033%" y1="-13.527%" y2="-17.034%"><stop offset="0%" stop-color="#a9b1bb"/><stop offset="9%" stop-color="#61666b"/><stop offset="18%" stop-color="#696e73"/><stop offset="32%" stop-color="#7e8489"/><stop offset="49%" stop-color="#a1a7ae"/><stop offset="69%" stop-color="#d1d8e0"/><stop offset="75%" stop-color="#e2eaf2"/><stop offset="93%" stop-color="#9ba1ab"/><stop offset="100%" stop-color="#767b82"/></linearGradient></defs><g fill="none" fill-rule="evenodd"><path fill="url(#a)" fill-rule="nonzero" d="M7.05 9.5h135.9v59.11H7.05z" transform="translate(.01 .446)"/><path fill="url(#b)" fill-rule="nonzero" d="M7.05 46.58h135.9v22.04H7.05z" opacity=".3" transform="translate(.01 .446)"/><path fill="url(#c)" fill-rule="nonzero" d="M7.05 9.5h135.9v21.26H7.05z" opacity=".2" transform="translate(.01 .446)"/><path fill="url(#d)" fill-rule="nonzero" d="M143 68.61H7.05A56.5 56.5 0 0 0 0 95.36h150a57.94 57.94 0 0 0-7-26.75" transform="translate(.01 .446)"/><path fill="url(#e)" fill-rule="nonzero" d="M18.64 95.36h112.72v41.92H18.64z" transform="translate(.01 .446)"/><path fill="url(#f)" fill-rule="nonzero" d="M9.23 137.28h131.53V150H9.23z" transform="translate(.01 .446)"/><path fill="url(#g)" fill-rule="nonzero" d="M18.64 95.36h112.72v24.18H18.64z" opacity=".3" transform="translate(.01 .446)"/><path fill="url(#h)" fill-rule="nonzero" d="M133.91 0H16.09L7.05 9.5h135.9z" transform="translate(.01 .446)"/><path stroke="#5b5f66" stroke-width=".25" d="M7.06 29.486h135.9M7.06 69.056h135.9"/></g></svg>