<svg xmlns="http://www.w3.org/2000/svg" viewBox="0 0 151 151"><title>Round damper(圆形挡板)</title><defs><linearGradient id="a" x1="50%" x2="50%" y1="100%" y2="0%"><stop offset="0%" stop-color="#2e3033"/><stop offset="100%" stop-color="#dce1e6"/></linearGradient><linearGradient id="b" x1="50%" x2="50%" y1="100%" y2="0%"><stop offset="0%" stop-color="#aab0bb"/><stop offset="100%" stop-color="#d0d8e6"/></linearGradient><linearGradient id="c" x1="50%" x2="50%" y1="100%" y2="0%"><stop offset="0%" stop-color="#767b82"/><stop offset="78%" stop-color="#aab0bb"/><stop offset="79%" stop-color="#cfd7e6"/><stop offset="80%" stop-color="#b9c0cc"/><stop offset="100%" stop-color="#dde6f5"/></linearGradient></defs><g fill="none" fill-rule="nonzero" transform="translate(.01 .446)"><path fill="url(#a)" d="M148 75.5V75c0-23.41-32.7-42.39-73-42.39S2 51.59 2 75v5c0 23.41 32.7 42.39 73 42.39s73-19 73-42.39z"/><ellipse cx="75" cy="75" fill="url(#b)" rx="73.03" ry="42.39"/><path fill="url(#c)" d="M1.97 70.53h146.06v8.18H1.97z"/><path fill="#7b7d80" d="M75 3c39.765 0 72 32.235 72 72s-32.235 72-72 72S3 114.765 3 75C3.044 35.254 35.254 3.044 75 3m0-3C33.579 0 0 33.579 0 75s33.579 75 75 75 75-33.579 75-75A75 75 0 0 0 75 0"/></g></svg>