<svg xmlns="http://www.w3.org/2000/svg" viewBox="0 0 151 73"><title>Simple filter 1(简易滤波器1)</title><defs><linearGradient id="a" x1="50.004%" x2="50.004%" y1="100%" y2="0%"><stop offset="0%" stop-color="#a9b1bb"/><stop offset="9%" stop-color="#61666b"/><stop offset="18%" stop-color="#696e73"/><stop offset="32%" stop-color="#7e8489"/><stop offset="49%" stop-color="#a1a7ae"/><stop offset="69%" stop-color="#d1d8e0"/><stop offset="75%" stop-color="#e2eaf2"/><stop offset="93%" stop-color="#9ba1ab"/><stop offset="100%" stop-color="#767b82"/></linearGradient><linearGradient id="b" x1="50.314%" x2="50.314%" y1="100%" y2="0%"><stop offset="0%" stop-color="#7a8088"/><stop offset="9%" stop-color="#2d2f33"/><stop offset="15%" stop-color="#35373b"/><stop offset="24%" stop-color="#4a4d51"/><stop offset="35%" stop-color="#6d7176"/><stop offset="48%" stop-color="#9da3a9"/><stop offset="62%" stop-color="#d7dfe6"/><stop offset="93%" stop-color="#6d7177"/><stop offset="100%" stop-color="#5c6067"/></linearGradient><linearGradient id="c" x1="50%" x2="50%" y1="100%" y2="0%"><stop offset="0%" stop-color="#7a8088"/><stop offset="9%" stop-color="#2d2f33"/><stop offset="15%" stop-color="#35373b"/><stop offset="24%" stop-color="#4a4d51"/><stop offset="35%" stop-color="#6d7176"/><stop offset="48%" stop-color="#9da3a9"/><stop offset="62%" stop-color="#d7dfe6"/><stop offset="93%" stop-color="#6d7177"/><stop offset="100%" stop-color="#5c6067"/></linearGradient><linearGradient id="d" x1="49.714%" x2="49.714%" y1="100%" y2="0%"><stop offset="0%" stop-color="#7a8088"/><stop offset="9%" stop-color="#2d2f33"/><stop offset="15%" stop-color="#35373b"/><stop offset="24%" stop-color="#4a4d51"/><stop offset="35%" stop-color="#6d7176"/><stop offset="48%" stop-color="#9da3a9"/><stop offset="62%" stop-color="#d7dfe6"/><stop offset="93%" stop-color="#6d7177"/><stop offset="100%" stop-color="#5c6067"/></linearGradient><linearGradient id="e" x1="50.004%" x2="50.004%" y1="100%" y2="0%"><stop offset="0%" stop-color="#a9b1bb"/><stop offset="9%" stop-color="#61666b"/><stop offset="18%" stop-color="#696e73"/><stop offset="32%" stop-color="#7e8489"/><stop offset="49%" stop-color="#a1a7ae"/><stop offset="69%" stop-color="#d1d8e0"/><stop offset="75%" stop-color="#e2eaf2"/><stop offset="93%" stop-color="#9ba1ab"/><stop offset="100%" stop-color="#767b82"/></linearGradient><linearGradient id="f" x1="49.995%" x2="49.995%" y1="100%" y2="0%"><stop offset="0%" stop-color="#7a8088"/><stop offset="9%" stop-color="#2d2f33"/><stop offset="15%" stop-color="#35373b"/><stop offset="24%" stop-color="#4a4d51"/><stop offset="35%" stop-color="#6d7176"/><stop offset="48%" stop-color="#9da3a9"/><stop offset="62%" stop-color="#d7dfe6"/><stop offset="93%" stop-color="#6d7177"/><stop offset="100%" stop-color="#5c6067"/></linearGradient><linearGradient id="g" x1="50.115%" x2="50.115%" y1="100%" y2="0%"><stop offset="0%" stop-color="#7a8088"/><stop offset="9%" stop-color="#2d2f33"/><stop offset="15%" stop-color="#35373b"/><stop offset="24%" stop-color="#4a4d51"/><stop offset="35%" stop-color="#6d7176"/><stop offset="48%" stop-color="#9da3a9"/><stop offset="62%" stop-color="#d7dfe6"/><stop offset="93%" stop-color="#6d7177"/><stop offset="100%" stop-color="#5c6067"/></linearGradient><linearGradient id="h" x1="49.77%" x2="49.77%" y1="100%" y2="0%"><stop offset="0%" stop-color="#7a8088"/><stop offset="9%" stop-color="#2d2f33"/><stop offset="15%" stop-color="#35373b"/><stop offset="24%" stop-color="#4a4d51"/><stop offset="35%" stop-color="#6d7176"/><stop offset="48%" stop-color="#9da3a9"/><stop offset="62%" stop-color="#d7dfe6"/><stop offset="93%" stop-color="#6d7177"/><stop offset="100%" stop-color="#5c6067"/></linearGradient><linearGradient id="i" x1="0%" x2="99.949%" y1="49.987%" y2="49.987%"><stop offset="0%" stop-color="#2e3033"/><stop offset="100%" stop-color="#9ba1ab" stop-opacity="0"/></linearGradient><linearGradient id="j" x1="0%" x2="100%" y1="49.983%" y2="49.983%"><stop offset="0%" stop-color="#767b82"/><stop offset="1%" stop-color="#5c6066"/><stop offset="88%" stop-color="#7a7d80"/><stop offset="94%" stop-color="#767b82"/><stop offset="100%" stop-color="#b9c0cc"/></linearGradient><linearGradient id="k" x1="-.088%" x2="99.912%" y1="50.025%" y2="50.025%"><stop offset="0%" stop-color="#7a8088"/><stop offset="9%" stop-color="#2d2f33"/><stop offset="15%" stop-color="#35373b"/><stop offset="24%" stop-color="#4a4d51"/><stop offset="35%" stop-color="#6d7176"/><stop offset="48%" stop-color="#9da3a9"/><stop offset="62%" stop-color="#d7dfe6"/><stop offset="93%" stop-color="#6d7177"/><stop offset="100%" stop-color="#5c6067"/></linearGradient><linearGradient id="l" x1="0%" x2="100%" y1="50.025%" y2="50.025%"><stop offset="0%" stop-color="#7a8088"/><stop offset="9%" stop-color="#2d2f33"/><stop offset="15%" stop-color="#35373b"/><stop offset="24%" stop-color="#4a4d51"/><stop offset="35%" stop-color="#6d7176"/><stop offset="48%" stop-color="#9da3a9"/><stop offset="62%" stop-color="#d7dfe6"/><stop offset="93%" stop-color="#6d7177"/><stop offset="100%" stop-color="#5c6067"/></linearGradient><linearGradient id="m" x1="0%" x2="100%" y1="49.953%" y2="49.953%"><stop offset="0%" stop-color="#7a8088"/><stop offset="9%" stop-color="#2d2f33"/><stop offset="15%" stop-color="#35373b"/><stop offset="24%" stop-color="#4a4d51"/><stop offset="35%" stop-color="#6d7176"/><stop offset="48%" stop-color="#9da3a9"/><stop offset="62%" stop-color="#d7dfe6"/><stop offset="93%" stop-color="#6d7177"/><stop offset="100%" stop-color="#5c6067"/></linearGradient><linearGradient id="n" x1="0%" x2="100%" y1="49.976%" y2="49.976%"><stop offset="0%" stop-color="#b9c0cc"/><stop offset="6%" stop-color="#767b82"/><stop offset="12%" stop-color="#7a7d80"/><stop offset="99%" stop-color="#5c6066"/><stop offset="100%" stop-color="#767b82"/></linearGradient><linearGradient id="o" x1="49.968%" x2="49.968%" y1="100%" y2="0%"><stop offset="0%" stop-color="#767b82"/><stop offset="1%" stop-color="#5c6066"/><stop offset="88%" stop-color="#7a7d80"/><stop offset="94%" stop-color="#767b82"/><stop offset="100%" stop-color="#b9c0cc"/></linearGradient></defs><g fill="none" fill-rule="evenodd"><path fill="url(#a)" fill-rule="nonzero" d="M7.21 29.9H150v7.99H7.21z" transform="translate(.01 .446)"/><path fill="url(#b)" fill-rule="nonzero" d="M88.27 1.35h3.18v7.99h-3.18z" transform="translate(.01 .446)"/><path fill="url(#c)" fill-rule="nonzero" d="M92.72 2.94h5.56v4.81h-5.56z" transform="translate(.01 .446)"/><path fill="url(#d)" fill-rule="nonzero" d="m93.21 7.82-1.75 1.52V1.35l1.75 1.51z" transform="translate(.01 .446)"/><path fill="url(#e)" fill-rule="nonzero" d="M7.21 26.27h125.33v15.24H7.21z" transform="translate(.01 .446)"/><path fill="url(#f)" fill-rule="nonzero" d="M11.55 14.73h106.43v38.33H11.55z" transform="translate(.01 .446)"/><path fill="url(#g)" fill-rule="nonzero" d="M7.21 14.73h4.33v38.33H7.21z" transform="translate(.01 .446)"/><path fill="url(#h)" fill-rule="nonzero" d="M5.05 17.11h2.17v2.95H5.05z" transform="translate(.01 .446)"/><path fill="url(#h)" fill-rule="nonzero" d="M5.05 32.42h2.17v2.95H5.05z" transform="translate(.01 .446)"/><path fill="url(#h)" fill-rule="nonzero" d="M5.05 47.72h2.17v2.95H5.05z" transform="translate(.01 .446)"/><path fill="url(#i)" fill-rule="nonzero" d="M11.55 14.73h19.78v38.33H11.55z" opacity=".3" transform="translate(.01 .446)"/><path fill="url(#j)" fill-rule="nonzero" d="M28.865 56.245h2.84v29.77h-2.84z" transform="rotate(-90 30.513 71.348)"/><path fill="url(#k)" fill-rule="nonzero" d="M41.58 69.71H19V52.5s2.46-2.92 11.3-2.92 11.3 2.92 11.3 2.92z" transform="translate(.01 .446)"/><path fill="url(#j)" fill-rule="nonzero" d="M80.605 56.245h2.84v29.77h-2.84z" transform="rotate(-90 82.253 71.348)"/><path fill="url(#l)" fill-rule="nonzero" d="M93.32 69.71h-22.6V52.5s2.46-2.92 11.3-2.92 11.3 2.92 11.3 2.92z" transform="translate(.01 .446)"/><path fill="url(#m)" fill-rule="nonzero" d="M109.91 7.63H99.36v7.66s1.14 2.91 5.27 2.91 5.28-2.91 5.28-2.91z" transform="translate(.01 .446)"/><path fill="url(#n)" fill-rule="nonzero" d="M7.21 44.29H0V23.5h7.21v2.38H2.39V41.9h4.82z" transform="translate(.01 .446)"/><path stroke="#5b5f66" stroke-width=".25" d="M89.15 9.786v-7.99"/><path fill="url(#o)" fill-rule="nonzero" d="M109.37 0H99.9l-2.98 3.13v4.43l2.98 3.13h9.47l2.98-3.13V3.13z" transform="translate(.01 .446)"/></g></svg>