<svg xmlns="http://www.w3.org/2000/svg" viewBox="0 0 142 151"><title>Thermal purge unit(热吹扫装置)</title><defs><linearGradient id="a" x1="50.056%" x2="50.056%" y1="100%" y2="0%"><stop offset="0%" stop-color="#a9b1bb"/><stop offset="9%" stop-color="#61666b"/><stop offset="19%" stop-color="#696e73"/><stop offset="33%" stop-color="#7e8489"/><stop offset="51%" stop-color="#a1a7ae"/><stop offset="72%" stop-color="#d1d8e0"/><stop offset="78%" stop-color="#e2eaf2"/><stop offset="93%" stop-color="#9ba1ab"/><stop offset="100%" stop-color="#767b82"/></linearGradient><linearGradient id="b" x1="80.235%" x2="19.772%" y1="43.675%" y2="56.326%"><stop offset="0%" stop-color="#abafb3"/><stop offset="100%" stop-color="#45484d"/></linearGradient><linearGradient id="c" x1="94.889%" x2="5.122%" y1="1.737%" y2="98.252%"><stop offset="0%" stop-color="#abafb3"/><stop offset="100%" stop-color="#45484d"/></linearGradient><linearGradient id="d" x1="75.253%" x2="24.747%" y1="9.436%" y2="90.564%"><stop offset="0%" stop-color="#dce1e6"/><stop offset="100%" stop-color="#8a9099"/></linearGradient><linearGradient id="e" x1="0%" x2="100%" y1="50%" y2="50%"><stop offset="0%" stop-color="#a9b1bb"/><stop offset="9%" stop-color="#61666b"/><stop offset="19%" stop-color="#696e73"/><stop offset="33%" stop-color="#7e8489"/><stop offset="51%" stop-color="#a1a7ae"/><stop offset="72%" stop-color="#d1d8e0"/><stop offset="78%" stop-color="#e2eaf2"/><stop offset="93%" stop-color="#9ba1ab"/><stop offset="100%" stop-color="#767b82"/></linearGradient><linearGradient id="f" x1="49.988%" x2="49.988%" y1="100.096%" y2="0%"><stop offset="0%" stop-color="#9ba1ab" stop-opacity="0"/><stop offset="100%" stop-color="#2e3033"/></linearGradient><linearGradient id="g" x1="24.96%" x2="75.04%" y1="55.835%" y2="47.143%"><stop offset="0%" stop-color="#a9b1bb"/><stop offset="9%" stop-color="#61666b"/><stop offset="19%" stop-color="#696e73"/><stop offset="33%" stop-color="#7e8489"/><stop offset="51%" stop-color="#a1a7ae"/><stop offset="72%" stop-color="#d1d8e0"/><stop offset="78%" stop-color="#e2eaf2"/><stop offset="93%" stop-color="#9ba1ab"/><stop offset="100%" stop-color="#767b82"/></linearGradient><linearGradient id="h" x1="50%" x2="50%" y1="100%" y2="0%"><stop offset="0%" stop-color="#9ba1ab"/><stop offset="0%" stop-color="#abb1ba"/><stop offset="9%" stop-color="#abb1ba"/><stop offset="46%" stop-color="#d7dce0"/><stop offset="100%" stop-color="#a9b1bb"/></linearGradient><linearGradient id="i" x1="50%" x2="50%" y1="-3557.432%" y2="-3457.095%"><stop offset="0%" stop-color="#9ba1ab"/><stop offset="0%" stop-color="#abb1ba"/><stop offset="9%" stop-color="#abb1ba"/><stop offset="46%" stop-color="#d7dce0"/><stop offset="100%" stop-color="#a9b1bb"/></linearGradient><linearGradient id="j" x1="50%" x2="50%" y1="-5039.527%" y2="-4939.527%"><stop offset="0%" stop-color="#9ba1ab"/><stop offset="0%" stop-color="#abb1ba"/><stop offset="9%" stop-color="#abb1ba"/><stop offset="46%" stop-color="#d7dce0"/><stop offset="100%" stop-color="#a9b1bb"/></linearGradient><linearGradient id="k" x1="50%" x2="50%" y1="-3039.527%" y2="-2939.189%"><stop offset="0%" stop-color="#9ba1ab"/><stop offset="0%" stop-color="#abb1ba"/><stop offset="9%" stop-color="#abb1ba"/><stop offset="46%" stop-color="#d7dce0"/><stop offset="100%" stop-color="#a9b1bb"/></linearGradient><linearGradient id="l" x1="50%" x2="50%" y1="2317.905%" y2="2417.905%"><stop offset="0%" stop-color="#9ba1ab"/><stop offset="0%" stop-color="#abb1ba"/><stop offset="9%" stop-color="#abb1ba"/><stop offset="46%" stop-color="#d7dce0"/><stop offset="100%" stop-color="#a9b1bb"/></linearGradient><linearGradient id="m" x1="16.616%" x2="66.646%" y1="38.865%" y2="55.562%"><stop offset="0%" stop-color="#fff"/><stop offset="4%" stop-color="#fff" stop-opacity=".91"/><stop offset="15%" stop-color="#fff" stop-opacity=".7"/><stop offset="26%" stop-color="#fff" stop-opacity=".51"/><stop offset="37%" stop-color="#fff" stop-opacity=".35"/><stop offset="49%" stop-color="#fff" stop-opacity=".23"/><stop offset="60%" stop-color="#fff" stop-opacity=".13"/><stop offset="73%" stop-color="#fff" stop-opacity=".06"/><stop offset="85%" stop-color="#fff" stop-opacity=".01"/><stop offset="100%" stop-color="#fff" stop-opacity="0"/></linearGradient><linearGradient id="n" x1="49.987%" x2="49.987%" y1="0%" y2="100.059%"><stop offset="0%" stop-color="#5c6067"/><stop offset="7%" stop-color="#6d7177"/><stop offset="38%" stop-color="#b0b7bc"/><stop offset="44%" stop-color="#9da3a8"/><stop offset="59%" stop-color="#6d7176"/><stop offset="73%" stop-color="#4a4d51"/><stop offset="84%" stop-color="#35373b"/><stop offset="91%" stop-color="#2d2f33"/><stop offset="100%" stop-color="#7a8088"/></linearGradient><linearGradient id="o" x1="50%" x2="50%" y1="0%" y2="100.043%"><stop offset="0%" stop-color="#767b82"/><stop offset="7%" stop-color="#9ba1ab"/><stop offset="22%" stop-color="#e2eaf2"/><stop offset="94%" stop-color="#5d6166"/><stop offset="100%" stop-color="#a9b1bb"/></linearGradient><linearGradient id="p" x1="50%" x2="50%" y1="0%" y2="100.043%"><stop offset="0%" stop-color="#5c6067"/><stop offset="7%" stop-color="#6d7177"/><stop offset="38%" stop-color="#b0b7bc"/><stop offset="44%" stop-color="#9da3a8"/><stop offset="59%" stop-color="#6d7176"/><stop offset="73%" stop-color="#4a4d51"/><stop offset="84%" stop-color="#35373b"/><stop offset="91%" stop-color="#2d2f33"/><stop offset="100%" stop-color="#7a8088"/></linearGradient><linearGradient id="q" x1="49.606%" x2="49.606%" y1="0%" y2="100.043%"><stop offset="0%" stop-color="#5c6067"/><stop offset="7%" stop-color="#6d7177"/><stop offset="38%" stop-color="#b0b7bc"/><stop offset="44%" stop-color="#9da3a8"/><stop offset="59%" stop-color="#6d7176"/><stop offset="73%" stop-color="#4a4d51"/><stop offset="84%" stop-color="#35373b"/><stop offset="91%" stop-color="#2d2f33"/><stop offset="100%" stop-color="#7a8088"/></linearGradient><linearGradient id="r" x1="50%" x2="50%" y1="0%" y2="100.043%"><stop offset="0%" stop-color="#767b82"/><stop offset="7%" stop-color="#9ba1ab"/><stop offset="22%" stop-color="#e2eaf2"/><stop offset="94%" stop-color="#5d6166"/><stop offset="100%" stop-color="#a9b1bb"/></linearGradient><linearGradient id="s" x1="0%" x2="100%" y1="50.131%" y2="50.131%"><stop offset="0%" stop-color="#a9b1bb"/><stop offset="6%" stop-color="#5d6166"/><stop offset="78%" stop-color="#e2eaf2"/><stop offset="93%" stop-color="#9ba1ab"/><stop offset="100%" stop-color="#767b82"/></linearGradient><linearGradient id="t" x1="0%" x2="100%" y1="50.128%" y2="50.128%"><stop offset="0%" stop-color="#a9b1bb"/><stop offset="6%" stop-color="#5d6166"/><stop offset="78%" stop-color="#e2eaf2"/><stop offset="93%" stop-color="#9ba1ab"/><stop offset="100%" stop-color="#767b82"/></linearGradient><linearGradient id="u" x1="50%" x2="50%" y1="0%" y2="100.633%"><stop offset="0%" stop-color="#767b82"/><stop offset="7%" stop-color="#9ba1ab"/><stop offset="22%" stop-color="#e2eaf2"/><stop offset="94%" stop-color="#5d6166"/><stop offset="100%" stop-color="#a9b1bb"/></linearGradient><linearGradient id="v" x1="50%" x2="50%" y1="0%" y2="100.279%"><stop offset="0%" stop-color="#767b82"/><stop offset="7%" stop-color="#9ba1ab"/><stop offset="22%" stop-color="#e2eaf2"/><stop offset="94%" stop-color="#5d6166"/><stop offset="100%" stop-color="#a9b1bb"/></linearGradient><linearGradient id="w" x1="50%" x2="50%" y1="100%" y2=".356%"><stop offset="0%" stop-color="#7a8088"/><stop offset="9%" stop-color="#2d2f33"/><stop offset="16%" stop-color="#35373b"/><stop offset="27%" stop-color="#4a4d51"/><stop offset="41%" stop-color="#6d7176"/><stop offset="56%" stop-color="#9da3a8"/><stop offset="62%" stop-color="#b0b7bc"/><stop offset="93%" stop-color="#6d7177"/><stop offset="100%" stop-color="#5c6067"/></linearGradient><linearGradient id="x" x1="49.457%" x2="49.457%" y1="100.357%" y2="0%"><stop offset="0%" stop-color="#7a8088"/><stop offset="9%" stop-color="#2d2f33"/><stop offset="16%" stop-color="#35373b"/><stop offset="27%" stop-color="#4a4d51"/><stop offset="41%" stop-color="#6d7176"/><stop offset="56%" stop-color="#9da3a8"/><stop offset="62%" stop-color="#b0b7bc"/><stop offset="93%" stop-color="#6d7177"/><stop offset="100%" stop-color="#5c6067"/></linearGradient><linearGradient id="y" x1="50.327%" x2="50.327%" y1="99.716%" y2="-.284%"><stop offset="0%" stop-color="#676b70"/><stop offset="5%" stop-color="#484b4d"/><stop offset="24%" stop-color="#747980"/><stop offset="25%" stop-color="#d1d5db"/><stop offset="43%" stop-color="#cad1db"/><stop offset="74%" stop-color="#c7cfdb"/><stop offset="75%" stop-color="#edf5ff"/><stop offset="76%" stop-color="#c3c7cc"/><stop offset="100%" stop-color="#929599"/></linearGradient><linearGradient id="z" x1="0%" x2="100%" y1="50.376%" y2="50.376%"><stop offset="0%" stop-color="#676b70"/><stop offset="5%" stop-color="#484b4d"/><stop offset="24%" stop-color="#747980"/><stop offset="25%" stop-color="#d1d5db"/><stop offset="43%" stop-color="#cad1db"/><stop offset="74%" stop-color="#c7cfdb"/><stop offset="75%" stop-color="#edf5ff"/><stop offset="76%" stop-color="#c3c7cc"/><stop offset="100%" stop-color="#929599"/></linearGradient><linearGradient id="A" x1=".357%" x2="100.357%" y1="50.022%" y2="50.022%"><stop offset="0%" stop-color="#5c6067"/><stop offset="7%" stop-color="#6d7177"/><stop offset="38%" stop-color="#b0b7bc"/><stop offset="44%" stop-color="#9da3a8"/><stop offset="59%" stop-color="#6d7176"/><stop offset="73%" stop-color="#4a4d51"/><stop offset="84%" stop-color="#35373b"/><stop offset="91%" stop-color="#2d2f33"/><stop offset="100%" stop-color="#7a8088"/></linearGradient><linearGradient id="B" x1="49.838%" x2="49.838%" y1="100%" y2="0%"><stop offset="0%" stop-color="#676b70"/><stop offset="5%" stop-color="#484b4d"/><stop offset="24%" stop-color="#747980"/><stop offset="25%" stop-color="#d1d5db"/><stop offset="43%" stop-color="#cad1db"/><stop offset="74%" stop-color="#c7cfdb"/><stop offset="75%" stop-color="#edf5ff"/><stop offset="76%" stop-color="#c3c7cc"/><stop offset="100%" stop-color="#929599"/></linearGradient><linearGradient id="C" x1=".284%" x2="100.284%" y1="50%" y2="50%"><stop offset="0%" stop-color="#676b70"/><stop offset="5%" stop-color="#484b4d"/><stop offset="24%" stop-color="#747980"/><stop offset="25%" stop-color="#d1d5db"/><stop offset="43%" stop-color="#cad1db"/><stop offset="74%" stop-color="#c7cfdb"/><stop offset="75%" stop-color="#edf5ff"/><stop offset="76%" stop-color="#c3c7cc"/><stop offset="100%" stop-color="#929599"/></linearGradient><linearGradient id="D" x1="100%" x2="0%" y1="50.089%" y2="50.089%"><stop offset="0%" stop-color="#7a8088"/><stop offset="9%" stop-color="#2d2f33"/><stop offset="16%" stop-color="#35373b"/><stop offset="27%" stop-color="#4a4d51"/><stop offset="41%" stop-color="#6d7176"/><stop offset="56%" stop-color="#9da3a8"/><stop offset="62%" stop-color="#b0b7bc"/><stop offset="93%" stop-color="#6d7177"/><stop offset="100%" stop-color="#5c6067"/></linearGradient><linearGradient id="E" x1="49.921%" x2="49.921%" y1=".357%" y2="100%"><stop offset="0%" stop-color="#5c6067"/><stop offset="7%" stop-color="#6d7177"/><stop offset="38%" stop-color="#b0b7bc"/><stop offset="44%" stop-color="#9da3a8"/><stop offset="59%" stop-color="#6d7176"/><stop offset="73%" stop-color="#4a4d51"/><stop offset="84%" stop-color="#35373b"/><stop offset="91%" stop-color="#2d2f33"/><stop offset="100%" stop-color="#7a8088"/></linearGradient><linearGradient id="F" x1="38.251%" x2="88.251%" y1="39.74%" y2="88.777%"><stop offset="0%" stop-color="#5c6067"/><stop offset="7%" stop-color="#6d7177"/><stop offset="38%" stop-color="#b0b7bc"/><stop offset="44%" stop-color="#9da3a8"/><stop offset="59%" stop-color="#6d7176"/><stop offset="73%" stop-color="#4a4d51"/><stop offset="84%" stop-color="#35373b"/><stop offset="91%" stop-color="#2d2f33"/><stop offset="100%" stop-color="#7a8088"/></linearGradient><linearGradient id="G" x1="50.355%" x2="50.355%" y1="100%" y2="0%"><stop offset="0%" stop-color="#a9b1bb"/><stop offset="9%" stop-color="#61666b"/><stop offset="19%" stop-color="#696e73"/><stop offset="33%" stop-color="#7e8489"/><stop offset="51%" stop-color="#a1a7ae"/><stop offset="72%" stop-color="#d1d8e0"/><stop offset="78%" stop-color="#e2eaf2"/><stop offset="93%" stop-color="#9ba1ab"/><stop offset="100%" stop-color="#767b82"/></linearGradient></defs><g fill="none" fill-rule="nonzero" transform="translate(.01 .446)"><path fill="url(#a)" d="M51.7 94.75h8.93v4.39H51.7z"/><path fill="url(#b)" d="M0 120.39h141.51V150H0z"/><path fill="url(#c)" d="M60.63 33.45h80.88v86.95H60.63z"/><path fill="#494d53" d="M74.92 64.44h26.09v40.5H74.92z"/><path fill="#dde4ec" d="M76.1 65.62h24.92v39.33H76.1z"/><path fill="url(#d)" d="M76.1 65.62h23.75v38.15H76.1z"/><path fill="url(#e)" d="M8.47 79.05H51.7v41.34H8.47z"/><path fill="url(#f)" d="M8.47 79.05H51.7v10.4H8.47z" opacity=".2"/><path fill="url(#g)" d="M51.7 79.05H8.47s5.45-7.5 21.61-7.5 21.62 7.5 21.62 7.5"/><circle cx="3.83" cy="146.17" r="1.48" fill="url(#h)" stroke="#505458" stroke-width=".25"/><circle cx="4.03" cy="124.23" r="1.48" fill="url(#i)" stroke="#505458" stroke-width=".25"/><circle cx="137.6" cy="146.17" r="1.48" fill="url(#j)" stroke="#505458" stroke-width=".25"/><circle cx="137.8" cy="124.23" r="1.48" fill="url(#i)" stroke="#505458" stroke-width=".25"/><circle cx="137.6" cy="116.57" r="1.48" fill="url(#k)" stroke="#505458" stroke-width=".25"/><circle cx="137.8" cy="37.28" r="1.48" fill="url(#l)" stroke="#505458" stroke-width=".25"/><path fill="#a3b372" d="M79.66 71.32h16.62v5.72H79.66z"/><path fill="#646e46" d="M96.16 71.45v5.47H79.79v-5.47zm.25-.25H79.54v6h16.87z"/><path fill="url(#m)" d="M0 5.47V0h16.37z" opacity=".8" transform="translate(79.79 71.45)"/><path fill="#fff" d="M78.61 81.5h3.56v3.56h-3.56zm5.09 0h3.56v3.56H83.7zm5.08 0h3.56v3.56h-3.56zm5.09 0h3.56v3.56h-3.56zm-15.26 4.69h3.56v3.56h-3.56zm5.09 0h3.56v3.56H83.7zm5.08 0h3.56v3.56h-3.56zm5.09 0h3.56v3.56h-3.56zm-15.26 4.69h3.56v3.56h-3.56zm5.09 0h3.56v3.56H83.7zm5.08 0h3.56v3.56h-3.56zm5.09 0h3.56v3.56h-3.56zm-15.26 4.7h3.56v3.56h-3.56zm5.09 0h3.56v3.56H83.7zm5.08 0h3.56v3.56h-3.56zm5.09 0h3.56v3.56h-3.56z"/><path fill="url(#n)" d="M90.51 13.38h37.63V30.2H90.51z"/><path fill="url(#o)" d="M90.37 10.14h13.24v23.3H90.37z"/><path fill="url(#p)" d="M87.83 10.14h2.54v23.3h-2.54z"/><path fill="url(#q)" d="M128.14 10.14h2.54v23.3h-2.54z"/><path fill="url(#r)" d="M108.08 10.14h20.06v23.3h-20.06z"/><path fill="url(#s)" d="M126.73 10s-3 1.41-8.62 1.41-8.62-1.41-8.62-1.41V0h17.24z"/><path fill="url(#t)" d="M107.31 6.23h21.6v3.91h-21.6z"/><path fill="url(#u)" d="M94.7 20.46h21.7v1.58H94.7z"/><path fill="url(#v)" d="M95.98 19.46h1v3.58h-1z"/><path fill="url(#v)" d="M105.52 19.46h1v3.58h-1z"/><path fill="url(#v)" d="M114.74 19.46h1v3.58h-1z"/><path fill="url(#w)" d="M109.03 2.06v2.81H75.21l1.11-2.81z"/><path fill="url(#x)" d="M128.06 2.06h1.84v2.8h-1.84z"/><path fill="url(#y)" d="M104.09 1.71h3.06v3.52h-3.06z"/><path fill="url(#z)" d="M107.055 2.805h3.52v1.33h-3.52z" transform="rotate(-90 108.815 3.47)"/><path fill="url(#z)" d="M125.625 2.805h3.52v1.33h-3.52z" transform="rotate(-90 127.385 3.47)"/><path fill="url(#A)" d="M68.11 9.92h2.8v23.07h-2.8z"/><path fill="url(#B)" d="M67.965 27.795h3.09v3.52h-3.09z" transform="rotate(90 69.51 29.555)"/><path fill="url(#C)" d="M67.75 32.1h3.52v1.34h-3.52z"/><path fill="url(#D)" d="m70.92 5.63-2.8-.77v5.61h2.8z"/><path fill="url(#E)" d="m77.21 2.06-.87 2.8h-4.56l-.86-2.8z"/><path fill="url(#F)" d="m71.78 4.86-.86.77-2.8-.77 2.8-2.8z"/><path fill="url(#G)" d="M51.7 92.66h1.41v8.56H51.7z"/></g></svg>