<svg xmlns="http://www.w3.org/2000/svg" viewBox="0 0 151 73"><title>Unit ventilator(单元通风机)</title><defs><linearGradient id="a" x1="49.997%" x2="49.997%" y1="100%" y2="0%"><stop offset="0%" stop-color="#484a4d" stop-opacity="0"/><stop offset="100%" stop-color="#2e3033"/></linearGradient><linearGradient id="b" x1="86.913%" x2="13.067%" y1="32.379%" y2="67.634%"><stop offset="0%" stop-color="#d7dce0"/><stop offset="100%" stop-color="#8a9099"/></linearGradient></defs><g fill="none" fill-rule="evenodd"><path fill="#747780" fill-rule="nonzero" d="M.01 60.326h149.93v11.73H.01z"/><path fill="url(#a)" fill-rule="nonzero" d="M0 59.88h149.93v2.76H0z" opacity=".5" transform="translate(.01 .446)"/><path fill="url(#b)" fill-rule="nonzero" d="M149.93 56.97V0H0v71.61h2.95V59.88h144.1v11.73H150V56.97z" transform="translate(.01 .446)"/><path stroke="#898f99" stroke-width=".25" d="M2.96 3.356h144.11v54.05H2.96z"/><path stroke="#898f99" stroke-width=".25" d="M29.18 3.356h97.2v54.05h-97.2z"/><path fill="#2f3134" fill-rule="nonzero" d="M31.86 52.176h4.11v1h-4.11zm0 1.53h4.11v1h-4.11zm0 1.52h4.11v1h-4.11zm5.52-3.05h4.11v1h-4.11zm0 1.53h4.11v1h-4.11zm0 1.52h4.11v1h-4.11zm5.52-3.05h4.11v1H42.9zm0 1.53h4.11v1H42.9zm0 1.52h4.11v1H42.9zm5.53-3.05h4.11v1h-4.11zm0 1.53h4.11v1h-4.11zm0 1.52h4.11v1h-4.11zm5.52-3.05h4.11v1h-4.11zm0 1.53h4.11v1h-4.11zm0 1.52h4.11v1h-4.11zm5.52-3.05h4.11v1h-4.11zm0 1.53h4.11v1h-4.11zm0 1.52h4.11v1h-4.11zm5.52-3.05h4.11v1h-4.11zm0 1.53h4.11v1h-4.11zm0 1.52h4.11v1h-4.11zm5.53-3.05h4.11v1h-4.11zm0 1.53h4.11v1h-4.11zm0 1.52h4.11v1h-4.11zm5.52-3.05h4.11v1h-4.11zm0 1.53h4.11v1h-4.11zm0 1.52h4.11v1h-4.11zm5.52-3.05h4.11v1h-4.11zm0 1.53h4.11v1h-4.11zm0 1.52h4.11v1h-4.11zm5.52-3.05h4.11v1h-4.11zm0 1.53h4.11v1h-4.11zm0 1.52h4.11v1h-4.11zm5.52-3.05h4.11v1H92.6zm0 1.53h4.11v1H92.6zm0 1.52h4.11v1H92.6zm5.53-3.05h4.11v1h-4.11zm0 1.53h4.11v1h-4.11zm0 1.52h4.11v1h-4.11zm5.52-3.05h4.11v1h-4.11zm0 1.53h4.11v1h-4.11zm0 1.52h4.11v1h-4.11zm5.52-3.05h4.11v1h-4.11zm0 1.53h4.11v1h-4.11zm0 1.52h4.11v1h-4.11zm5.52-3.05h4.11v1h-4.11zm0 1.53h4.11v1h-4.11zm0 1.52h4.11v1h-4.11zm5.53-3.05h4.11v1h-4.11zm0 1.53h4.11v1h-4.11zm0 1.52h4.11v1h-4.11zm-103.01 8.95h15.88v1H17.21zm0 1.52h15.88v1H17.21zm0 1.53h15.88v1H17.21zm18.57-3.05h29.63v1H35.78zm0 1.52h29.63v1H35.78zm0 1.53h29.63v1H35.78zm32.32-3.05h15.88v1H68.1zm0 1.52h15.88v1H68.1zm0 1.53h15.88v1H68.1zm50.89-3.05h15.88v1h-15.88zm0 1.52h15.88v1h-15.88zm0 1.53h15.88v1h-15.88zm-32.32-3.05h29.63v1H86.67zm0 1.52h29.63v1H86.67zm0 1.53h29.63v1H86.67z"/></g></svg>