<svg xmlns="http://www.w3.org/2000/svg" viewBox="0 0 151 151"><title>Ventilator(通风机)</title><defs><linearGradient id="a" x1="0%" x2="100%" y1="49.978%" y2="49.978%"><stop offset="0%" stop-color="#a9b1bb"/><stop offset="9%" stop-color="#61666b"/><stop offset="18%" stop-color="#696e73"/><stop offset="32%" stop-color="#7e8489"/><stop offset="49%" stop-color="#a1a7ae"/><stop offset="69%" stop-color="#d1d8e0"/><stop offset="75%" stop-color="#e2eaf2"/><stop offset="93%" stop-color="#9ba1ab"/><stop offset="100%" stop-color="#767b82"/></linearGradient><linearGradient id="b" x1="50%" x2="50%" y1="100%" y2="0%"><stop offset="0%" stop-color="#2e3033"/><stop offset="100%" stop-color="#9ba1ab" stop-opacity="0"/></linearGradient><linearGradient id="c" x1="50%" x2="50%" y1="99.943%" y2="-.057%"><stop offset="0%" stop-color="#9ba1ab" stop-opacity="0"/><stop offset="100%" stop-color="#2e3033"/></linearGradient><linearGradient id="d" x1="-276.923%" x2="-276.923%" y1="-13054.887%" y2="-14115.539%"><stop offset="0%" stop-color="#a9b1bb"/><stop offset="9%" stop-color="#61666b"/><stop offset="18%" stop-color="#696e73"/><stop offset="32%" stop-color="#7e8489"/><stop offset="49%" stop-color="#a1a7ae"/><stop offset="69%" stop-color="#d1d8e0"/><stop offset="75%" stop-color="#e2eaf2"/><stop offset="93%" stop-color="#9ba1ab"/><stop offset="100%" stop-color="#767b82"/></linearGradient><linearGradient id="e" x1="-399.598%" x2="-399.598%" y1="-3597.176%" y2="-3865.704%"><stop offset="0%" stop-color="#a9b1bb"/><stop offset="9%" stop-color="#61666b"/><stop offset="18%" stop-color="#696e73"/><stop offset="32%" stop-color="#7e8489"/><stop offset="49%" stop-color="#a1a7ae"/><stop offset="69%" stop-color="#d1d8e0"/><stop offset="75%" stop-color="#e2eaf2"/><stop offset="93%" stop-color="#9ba1ab"/><stop offset="100%" stop-color="#767b82"/></linearGradient><linearGradient id="f" x1="76.113%" x2="23.887%" y1="48.835%" y2="51.165%"><stop offset="0%" stop-color="#d7dce0"/><stop offset="100%" stop-color="#8a9099"/></linearGradient><linearGradient id="g" x1="50.006%" x2="50.006%" y1="100%" y2="0%"><stop offset="0%" stop-color="#9ba1ab" stop-opacity="0"/><stop offset="39%" stop-color="#61656b" stop-opacity=".53"/><stop offset="74%" stop-color="#3b3e42" stop-opacity=".88"/><stop offset="100%" stop-color="#2e3033"/></linearGradient><linearGradient id="h" x1="-167.273%" x2="-117.273%" y1="13.589%" y2="11.009%"><stop offset="0%" stop-color="#a9b1bb"/><stop offset="9%" stop-color="#61666b"/><stop offset="18%" stop-color="#696e73"/><stop offset="32%" stop-color="#7e8489"/><stop offset="49%" stop-color="#a1a7ae"/><stop offset="69%" stop-color="#d1d8e0"/><stop offset="75%" stop-color="#e2eaf2"/><stop offset="93%" stop-color="#9ba1ab"/><stop offset="100%" stop-color="#767b82"/></linearGradient><linearGradient id="i" x1="25%" x2="75%" y1="48.577%" y2="51.157%"><stop offset="0%" stop-color="#a9b1bb"/><stop offset="9%" stop-color="#61666b"/><stop offset="18%" stop-color="#696e73"/><stop offset="32%" stop-color="#7e8489"/><stop offset="49%" stop-color="#a1a7ae"/><stop offset="69%" stop-color="#d1d8e0"/><stop offset="75%" stop-color="#e2eaf2"/><stop offset="93%" stop-color="#9ba1ab"/><stop offset="100%" stop-color="#767b82"/></linearGradient><linearGradient id="j" x1="-228.116%" x2="-228.116%" y1="-7223.229%" y2="-7892.493%"><stop offset="0%" stop-color="#a9b1bb"/><stop offset="9%" stop-color="#61666b"/><stop offset="18%" stop-color="#696e73"/><stop offset="32%" stop-color="#7e8489"/><stop offset="49%" stop-color="#a1a7ae"/><stop offset="69%" stop-color="#d1d8e0"/><stop offset="75%" stop-color="#e2eaf2"/><stop offset="93%" stop-color="#9ba1ab"/><stop offset="100%" stop-color="#767b82"/></linearGradient><linearGradient id="k" x1="-235.587%" x2="-228.794%" y1="-16768.799%" y2="-16768.799%"><stop offset="0%" stop-color="#2e3033"/><stop offset="100%" stop-color="#9ba1ab" stop-opacity="0"/></linearGradient><linearGradient id="l" x1="-226.497%" x2="-220.646%" y1="-19297.83%" y2="-19297.83%"><stop offset="0%" stop-color="#9ba1ab" stop-opacity="0"/><stop offset="100%" stop-color="#2e3033"/></linearGradient><linearGradient id="m" x1="-245.64%" x2="-195.64%" y1="17.208%" y2="15.721%"><stop offset="0%" stop-color="#a9b1bb"/><stop offset="9%" stop-color="#61666b"/><stop offset="18%" stop-color="#696e73"/><stop offset="32%" stop-color="#7e8489"/><stop offset="49%" stop-color="#a1a7ae"/><stop offset="69%" stop-color="#d1d8e0"/><stop offset="75%" stop-color="#e2eaf2"/><stop offset="93%" stop-color="#9ba1ab"/><stop offset="100%" stop-color="#767b82"/></linearGradient><linearGradient id="n" x1="24.995%" x2="74.995%" y1="49.212%" y2="50.699%"><stop offset="0%" stop-color="#a9b1bb"/><stop offset="9%" stop-color="#61666b"/><stop offset="18%" stop-color="#696e73"/><stop offset="32%" stop-color="#7e8489"/><stop offset="49%" stop-color="#a1a7ae"/><stop offset="69%" stop-color="#d1d8e0"/><stop offset="75%" stop-color="#e2eaf2"/><stop offset="93%" stop-color="#9ba1ab"/><stop offset="100%" stop-color="#767b82"/></linearGradient></defs><g fill="none" fill-rule="nonzero"><path fill="url(#a)" d="M0 35.47h150v68.59H0z" transform="translate(.01 .446)"/><path fill="url(#b)" d="M0 86.53h150v17.52H0z" opacity=".3" transform="translate(.01 .446)"/><path fill="url(#c)" d="M0 35.47h150v17.52H0z" opacity=".1" transform="translate(.01 .446)"/><path fill="url(#d)" d="M32.68 19.74h84.63v7.98H32.68z" transform="translate(.01 .446)"/><path fill="url(#e)" d="M32.68 111.79h84.63v31.52H32.68z" transform="translate(.01 .446)"/><path fill="url(#f)" d="M0 143.31h150V150H0z" transform="translate(.01 .446)"/><path fill="#2f3134" d="M11.98 146.336h1.95v1.54h-1.95zm124.04 0h1.95v1.54h-1.95z"/><path fill="url(#g)" d="M32.68 111.79h84.63v19.56H32.68z" opacity=".6" transform="translate(.01 .446)"/><path fill="url(#h)" d="M140.02 27.73H9.98L0 35.47h150z" transform="translate(.01 .446)"/><path fill="url(#i)" d="M140.02 111.79H9.98L0 104.05h150z" transform="translate(.01 .446)"/><path fill="#2f3134" d="M140.03 112.236H9.99l-9.98-7.74h150z" opacity=".5"/><path fill="url(#j)" d="M27.75 2.81h94.5v14.12h-94.5z" transform="translate(.01 .446)"/><path fill="url(#k)" d="M27.75 10.52h94.5v6.41h-94.5z" opacity=".3" transform="translate(.01 .446)"/><path fill="url(#l)" d="M27.75 2.81h94.5v5.53h-94.5z" opacity=".1" transform="translate(.01 .446)"/><path fill="url(#m)" d="M117.32 0H32.68l-4.93 2.81h94.5z" transform="translate(.01 .446)"/><path fill="url(#n)" d="M117.32 19.74H32.68l-4.93-2.81h94.5z" transform="translate(.01 .446)"/><path fill="#2f3134" d="M117.33 20.186H32.69l-4.93-2.81h94.5z" opacity=".5"/></g></svg>