<svg xmlns="http://www.w3.org/2000/svg" viewBox="0 0 80 151"><title>Water heater(热水器)</title><defs><linearGradient id="a" x1="100%" x2="0%" y1="50%" y2="50%"><stop offset="0%" stop-color="#767b82"/><stop offset="7%" stop-color="#9ba1ab"/><stop offset="22%" stop-color="#e2eaf2"/><stop offset="94%" stop-color="#767b82"/><stop offset="100%" stop-color="#a9b1bb"/></linearGradient><linearGradient id="b" x1="100%" x2="0%" y1="49.997%" y2="49.997%"><stop offset="0%" stop-color="#767b82"/><stop offset="7%" stop-color="#9ba1ab"/><stop offset="22%" stop-color="#e2eaf2"/><stop offset="28%" stop-color="#d1d8e0"/><stop offset="49%" stop-color="#a1a7ae"/><stop offset="67%" stop-color="#7e8489"/><stop offset="81%" stop-color="#696e73"/><stop offset="91%" stop-color="#61666b"/><stop offset="100%" stop-color="#a9b1bb"/></linearGradient><linearGradient id="c" x1="0%" x2="100%" y1="49.894%" y2="49.894%"><stop offset="0%" stop-color="#a9b1bb"/><stop offset="9%" stop-color="#61666b"/><stop offset="19%" stop-color="#696e73"/><stop offset="33%" stop-color="#7e8489"/><stop offset="51%" stop-color="#a1a7ae"/><stop offset="72%" stop-color="#d1d8e0"/><stop offset="78%" stop-color="#e2eaf2"/><stop offset="93%" stop-color="#9ba1ab"/><stop offset="100%" stop-color="#767b82"/></linearGradient><linearGradient id="d" x1="80.884%" x2="19.116%" y1="41.647%" y2="58.365%"><stop offset="0%" stop-color="#ebf0f5"/><stop offset="100%" stop-color="#b8c0cc"/></linearGradient><linearGradient id="e" x1="50%" x2="50%" y1="101.297%" y2="-1.198%"><stop offset="0%" stop-color="#dce1e6"/><stop offset="100%" stop-color="#5c6066"/></linearGradient><linearGradient id="f" x1="100.259%" x2="0%" y1="50%" y2="50%"><stop offset="0%" stop-color="#767b82"/><stop offset="7%" stop-color="#9ba1ab"/><stop offset="22%" stop-color="#e2eaf2"/><stop offset="94%" stop-color="#767b82"/><stop offset="100%" stop-color="#a9b1bb"/></linearGradient><linearGradient id="g" x1="50%" x2="50%" y1="100.972%" y2="-1.053%"><stop offset="0%" stop-color="#dce1e6"/><stop offset="100%" stop-color="#5c6066"/></linearGradient><linearGradient id="h" x1="1579.4%" x2="1480%" y1="332.614%" y2="332.614%"><stop offset="0%" stop-color="#767b82"/><stop offset="7%" stop-color="#9ba1ab"/><stop offset="22%" stop-color="#e2eaf2"/><stop offset="28%" stop-color="#d1d8e0"/><stop offset="49%" stop-color="#a1a7ae"/><stop offset="67%" stop-color="#7e8489"/><stop offset="81%" stop-color="#696e73"/><stop offset="91%" stop-color="#61666b"/><stop offset="100%" stop-color="#a9b1bb"/></linearGradient></defs><g fill="none" fill-rule="nonzero" transform="translate(.01 .446)"><path fill="url(#a)" d="M.52.01h72.35v4.38H.52z"/><path fill="url(#b)" d="M.52 0h72.35v145.29H.52z"/><path fill="#252628" d="M32.82 135.9h7.76v3.4h-7.76z"/><path fill="url(#c)" d="M0 145.29h73.39V150H0z"/><path fill="#000" d="M.52.01h72.35v4.71H.52z" opacity=".6"/><path fill="#000" d="M.52 145.14h72.35v1H.52z" opacity=".3"/><rect width="22.39" height="6.06" x="25.5" y="32.2" fill="url(#d)" rx=".67"/><rect width="6.66" height="2.44" x="28.3" y="34.01" fill="#b33000" rx=".16"/><rect width="6.79" height="2.44" x="37.52" y="34.01" fill="#51b31b" rx=".16"/><ellipse cx="67.99" cy="21.45" fill="#252628" stroke="url(#e)" stroke-width=".25" rx="3.42" ry="5.01"/><path fill="url(#f)" d="M71.75 15.77h3.86v9.43a1.93 1.93 0 1 1-3.86 0z" transform="rotate(90 73.68 21.45)"/><circle cx="36.69" cy="104.78" r="6.17" fill="#45484d" stroke="url(#g)" stroke-width=".25"/><path fill="url(#h)" d="M34.21 110.95h5v24.4a2.49 2.49 0 0 1-2.49 2.49 2.49 2.49 0 0 1-2.49-2.49v-24.4z" opacity=".6"/></g></svg>