<svg xmlns="http://www.w3.org/2000/svg" xml:space="preserve" id="图层_1" x="0" y="0" viewBox="0 0 25 4.2"><style>.st0{fill:none;stroke:#fff;stroke-miterlimit:10}</style><path d="M0 2.1h8.3c0-.6.5-1 1-1s1 .5 1 1c0-.6.5-1 1-1 .6 0 1 .5 1 1 0-.6.5-1 1-1 .6 0 1 .5 1 1 0-.6.5-1 1-1s1 .5 1 1H25M2.1 4.2h6.2c0-.6.5-1 1-1s1 .5 1 1c0-.6.5-1 1-1 .6 0 1 .5 1 1 0-.6.5-1 1-1 .6 0 1 .5 1 1 0-.6.5-1 1-1s1 .5 1 1h6.2M8.3 0h8.3" class="st0"/><path d="M6.2 2.1c0 1.2-.9 2.1-2.1 2.1-1.1 0-2-1-2-2.1S3 0 4.2 0c1.1 0 2 .9 2 2.1m16.7 0c0 1.2-.9 2.1-2.1 2.1s-2.1-.9-2.1-2.1 1-2.1 2.1-2.1c1.2 0 2.1.9 2.1 2.1" class="st0"/></svg>