<svg xmlns="http://www.w3.org/2000/svg" xml:space="preserve" viewBox="0 0 25 23.4"><path d="M0 23.4V18c0-1.7 1.4-3.1 3.1-3.1s3.1 1.4 3.1 3.1c0-1.7 1.4-3.1 3.1-3.1s3.1 1.4 3.1 3.1c0-1.7 1.4-3.1 3.1-3.1s3.1 1.4 3.1 3.1c0-1.7 1.4-3.1 3.1-3.1S25 16.2 25 18v5.5m-25-11h25m-25-.8h25m-25-.8h25M0 0v5.5c0 1.7 1.4 3.1 3.1 3.1s3.1-1.4 3.1-3.1c0 1.7 1.4 3.1 3.1 3.1s3.1-1.4 3.1-3.1c0 1.7 1.4 3.1 3.1 3.1s3.1-1.4 3.1-3.1c0 1.7 1.4 3.1 3.1 3.1S25 7.2 25 5.5V0" style="fill:none;stroke:#fff;stroke-miterlimit:10;stroke-linejoin:round"/></svg>