<svg xmlns="http://www.w3.org/2000/svg" xml:space="preserve" viewBox="0 0 25 23.4"><path d="M0 12.5h25m-25-.8h25m-25-.8h25M0 23.4V18c.1-1.4 1.1-2.7 2.5-3.1s2.9 0 3.8 1.2c.7.9 1 2 .8 3.1 0 .4-.3.8-.8.8s-.8-.3-.8-.8c-.2-1.2.1-2.3.7-3.2.8-.9 1.9-1.5 3.1-1.5s2.3.5 3.1 1.5c.7.9 1 2 .8 3.1 0 .4-.3.8-.8.8s-.8-.3-.8-.8c-.2-1.1.1-2.2.8-3.1.8-.9 1.9-1.5 3.1-1.5s2.3.5 3.1 1.5c.7.9 1 2 .8 3.1 0 .4-.3.8-.8.8s-.6-.3-.6-.8c-.2-1.1.1-2.2.8-3.1.9-1.1 2.4-1.6 3.8-1.2s2.4 1.7 2.5 3.1v5.5M0 0v5.5c.1 1.4 1.1 2.7 2.5 3.1s2.9 0 3.8-1.2c.7-.9 1-2 .8-3.1 0-.4-.3-.8-.8-.8s-.8.4-.8.8c-.2 1.1.1 2.2.7 3.1.8.9 1.9 1.5 3.1 1.5s2.3-.5 3.1-1.5c.7-.9 1-2 .8-3.1 0-.4-.3-.8-.8-.8s-.8.3-.8.8c-.2 1.1.1 2.2.8 3.1.8.9 1.9 1.5 3.1 1.5s2.3-.5 3.1-1.5c.7-.9 1-2 .8-3.1 0-.4-.3-.8-.8-.8s-.6.4-.6.8c-.2 1.1.1 2.2.8 3.1.9 1.1 2.4 1.6 3.8 1.2s2.4-1.7 2.5-3.1V0" style="fill:none;stroke:#fff;stroke-miterlimit:10"/></svg>