<svg xmlns="http://www.w3.org/2000/svg" viewBox="0 0 150 87"><title>bicycle（自行车)</title><defs><linearGradient id="a" x1="61.587%" x2="32.482%" y1="50.332%" y2="50.18%"><stop offset="30%" stop-color="#4d5d5f"/><stop offset="38%" stop-color="#7f9199"/><stop offset="47%" stop-color="#a9bdcb"/><stop offset="51%" stop-color="#b9cede"/></linearGradient><linearGradient id="b" x1="48.737%" x2="50.532%" y1="49.391%" y2="51.119%"><stop offset="0%" stop-color="#4d5d5f"/><stop offset="35%" stop-color="#7f9199"/><stop offset="69%" stop-color="#a9bdcb"/><stop offset="86%" stop-color="#b9cede"/></linearGradient><linearGradient id="c" x1="-22.062%" x2="127.047%" y1="68.767%" y2="30.131%"><stop offset="19%" stop-color="#4d5d5f"/><stop offset="42%" stop-color="#7f9199"/><stop offset="64%" stop-color="#a9bdcb"/><stop offset="74%" stop-color="#b9cede"/></linearGradient><linearGradient id="d" x1="49.277%" x2="50.731%" y1="50.054%" y2="50.005%"><stop offset="0%" stop-color="#4d5d5f"/><stop offset="41%" stop-color="#7f9199"/><stop offset="81%" stop-color="#a9bdcb"/><stop offset="100%" stop-color="#b9cede"/></linearGradient><linearGradient id="e" x1="-.202%" x2="100%" y1="50.082%" y2="50.082%"><stop offset="0%" stop-color="#4d5d5f"/><stop offset="41%" stop-color="#7f9199"/><stop offset="81%" stop-color="#a9bdcb"/><stop offset="100%" stop-color="#b9cede"/></linearGradient><linearGradient id="f" x1="48.303%" x2="52.682%" y1="50.151%" y2="46.397%"><stop offset="0%" stop-color="#4d5d5f"/><stop offset="35%" stop-color="#7f9199"/><stop offset="69%" stop-color="#a9bdcb"/><stop offset="86%" stop-color="#b9cede"/></linearGradient><linearGradient id="g" x1="40.128%" x2="60.176%" y1="58.964%" y2="42.518%"><stop offset="36%" stop-color="#4d5d5f"/><stop offset="48%" stop-color="#7f9199"/><stop offset="59%" stop-color="#a9bdcb"/><stop offset="64%" stop-color="#b9cede"/></linearGradient><linearGradient id="h" x1="31.496%" x2="81.016%" y1="29.441%" y2="80.414%"><stop offset="30%" stop-color="#4d5d5f"/><stop offset="38%" stop-color="#7f9199"/><stop offset="47%" stop-color="#a9bdcb"/><stop offset="51%" stop-color="#b9cede"/></linearGradient><linearGradient id="i" x1="46.32%" x2="64.308%" y1="44.696%" y2="70.443%"><stop offset="16%" stop-color="#4d5d5f"/><stop offset="19%" stop-color="#7f9199"/><stop offset="22%" stop-color="#a9bdcb"/><stop offset="24%" stop-color="#b9cede"/></linearGradient><linearGradient id="j" x1="20.671%" x2="81.649%" y1="64.033%" y2="24.707%"><stop offset="31%" stop-color="#4d5d5f"/><stop offset="46%" stop-color="#7f9199"/><stop offset="61%" stop-color="#a9bdcb"/><stop offset="68%" stop-color="#b9cede"/></linearGradient><linearGradient id="k" x1="13.424%" x2="90.259%" y1="61.102%" y2="34.808%"><stop offset="19%" stop-color="#4d5d5f"/><stop offset="42%" stop-color="#7f9199"/><stop offset="64%" stop-color="#a9bdcb"/><stop offset="74%" stop-color="#b9cede"/></linearGradient><linearGradient id="l" x1="48.906%" x2="51.109%" y1="48.525%" y2="50.71%"><stop offset="0%" stop-color="#4d5d5f"/><stop offset="35%" stop-color="#7f9199"/><stop offset="69%" stop-color="#a9bdcb"/><stop offset="86%" stop-color="#b9cede"/></linearGradient></defs><g fill="none" fill-rule="evenodd" transform="translate(2.096 .004)"><rect width="7.17" height="2.05" x="67.43" y="48.6" fill="#4d5d5f" fill-rule="nonzero" rx=".4"/><rect width="6.44" height="1.34" x="67.81" y="48.94" stroke="#b6aba1" stroke-width=".25" rx=".23"/><circle cx="68.95" cy="49.61" r="1" fill="#b6aba1" fill-rule="nonzero"/><circle cx="70.33" cy="49.61" r="1" fill="#b6aba1" fill-rule="nonzero"/><circle cx="71.72" cy="49.61" r="1" fill="#b6aba1" fill-rule="nonzero"/><circle cx="73.11" cy="49.61" r="1" fill="#b6aba1" fill-rule="nonzero"/><path fill="url(#a)" fill-rule="nonzero" d="M68.21 48.52a1.1 1.1 0 0 1 .49 1.29L64.83 62a1.92 1.92 0 0 1-1.75 1.33c-.54 0-.8-.54-.6-1.16l4.12-13a1.1 1.1 0 0 1 1.61-.65"/><path fill="url(#b)" fill-rule="nonzero" d="M30.8 60.66a.9.9 0 0 1-.68-.19 1 1 0 0 1-.18-1.35l25.53-33.54a1 1 0 1 1 1.52 1.17L31.47 60.29a.93.93 0 0 1-.67.37"/><path stroke="#b6aba1" stroke-width=".5" d="m124.863 30.999 6.663 2.832-21.333 50.184-6.663-2.832z"/><path stroke="#b6aba1" stroke-width=".5" d="m140.907 44.125 2.68 6.733-50.714 20.176-2.679-6.733z"/><path stroke="#b6aba1" stroke-width=".5" d="m144.042 64.844-2.832 6.663-50.184-21.333 2.832-6.663z"/><path stroke="#b6aba1" stroke-width=".5" d="m131.095 81.434-6.715 2.708-20.4-50.57 6.714-2.708z"/><path stroke="#b6aba1" stroke-width=".5" d="M113.91 30.25h7.24v54.53h-7.24z"/><path stroke="#b6aba1" stroke-width=".5" d="m134.244 35.674 5.119 5.12-38.559 38.558-5.119-5.12z"/><path stroke="#b6aba1" stroke-width=".5" d="M144.8 53.88v7.24H90.27v-7.24z"/><path stroke="#b6aba1" stroke-width=".5" d="m139.377 74.224-5.12 5.119L95.7 40.784l5.12-5.119zM34.607 30.822l6.663 2.832-21.333 50.184-6.663-2.832z"/><path stroke="#b6aba1" stroke-width=".5" d="m51.202 43.773 2.708 6.714-50.57 20.4-2.708-6.713z"/><path stroke="#b6aba1" stroke-width=".5" d="m53.778 64.658-2.832 6.663L.762 49.988l2.832-6.663z"/><path stroke="#b6aba1" stroke-width=".5" d="m40.828 81.253-6.715 2.708-20.4-50.57 6.714-2.708z"/><path stroke="#b6aba1" stroke-width=".5" d="M23.65 30.07h7.24V84.6h-7.24z"/><path stroke="#b6aba1" stroke-width=".5" d="m43.987 35.493 5.119 5.12L10.547 79.17l-5.119-5.12z"/><path stroke="#b6aba1" stroke-width=".5" d="M54.53 53.71v7.24H0v-7.24z"/><path stroke="#b6aba1" stroke-width=".5" d="m49.108 74.048-5.12 5.119L5.43 40.608l5.12-5.119z"/><path fill="url(#c)" fill-rule="nonzero" d="M109 .85A1.6 1.6 0 0 0 107.48 2l-1 3a6 6 0 0 1-3.54 3.72l-9.27 3.56a1.59 1.59 0 0 0-.92 2.07l.23.59a1.6 1.6 0 0 0 2.07.93l10-3.84a6.76 6.76 0 0 0 4-4.28l1.51-4.81A1.61 1.61 0 0 0 109 .85"/><circle cx="27.27" cy="57.33" r="26.33" stroke="#4f5d5f" stroke-width="6"/><circle cx="27.27" cy="57.33" r="26.33" stroke="#b6aba1" stroke-width="2"/><circle cx="117.61" cy="57.34" r="26.33" stroke="#4f5d5f" stroke-width="6"/><circle cx="27.27" cy="57.33" r="7.42" fill="#4d5d5f" fill-rule="nonzero"/><circle cx="27.27" cy="57.33" r="5.92" fill="#b6aba1" fill-rule="nonzero"/><path fill="#4d5d5f" fill-rule="nonzero" d="M51.74 24.72 44.49 3.74"/><path fill="url(#d)" fill-rule="nonzero" d="M46.666 3.125h2.89v22.2h-2.89z" transform="rotate(-19.06 48.111 14.225)"/><path fill="url(#e)" fill-rule="nonzero" d="M57.74 2.41c0 .78-6.36 1-10.21 2.1-3.26.92-4.54 2-6.84 2.12a7.26 7.26 0 0 1-7.75-6.5c0-.51 5.67.64 11.6.64s13.2.23 13.2 1.64"/><path fill="#4d5d5f" fill-rule="nonzero" d="m92.21 12.67 3.84 6.14"/><circle cx="117.61" cy="57.34" r="26.33" stroke="#b6aba1" stroke-width="2"/><path fill="url(#f)" fill-rule="nonzero" d="M119.02 60.53a2.69 2.69 0 0 1-3.75-.92L92.34 18.05l4.83.66 22.77 38.15a2.7 2.7 0 0 1-.92 3.67"/><path fill="url(#g)" fill-rule="nonzero" d="m69.94 66.1-6.22.6-15.27-41.83a.86.86 0 0 1 .6-1.13l4.89-1.11 1.51 3.69z"/><path fill="url(#h)" fill-rule="nonzero" d="m96.48 26.59-.37.08-.01-.01-26.8 34.01-4.52-3.61L93.55 21.1z"/><path fill="url(#i)" fill-rule="nonzero" d="m92.76 19.36-37.4 6.79-1.46-3.52 37.3-6.65z"/><path fill="url(#j)" fill-rule="nonzero" d="m93.76 18.31-3.08-4.92a1.44 1.44 0 0 1 .46-2 1.44 1.44 0 0 1 2 .46l3.08 4.91z"/><path fill="url(#k)" fill-rule="nonzero" d="m101.6 24.29-5.51 2.37-5.28-10.61 5.55-1.37z"/><path fill="url(#l)" fill-rule="nonzero" d="M27.51 58.12a1 1 0 0 1-.7-1.62l28.86-30.72a1 1 0 0 1 1.4 1.32L28.2 57.82a1 1 0 0 1-.69.3"/></g></svg>