<svg xmlns="http://www.w3.org/2000/svg" viewBox="0 0 151 79"><title>Concrete mixing truck（混凝土搅拌机）</title><defs><linearGradient id="a" x1="49.638%" x2="50.595%" y1="47.655%" y2="61.69%"><stop offset="0%" stop-color="#4d5d5f"/><stop offset="3%" stop-color="#59696d"/><stop offset="14%" stop-color="#82959d"/><stop offset="23%" stop-color="#a0b4c1"/><stop offset="31%" stop-color="#b2c7d6"/><stop offset="36%" stop-color="#b9cede"/></linearGradient><linearGradient id="b" x1="49.436%" x2="50.41%" y1="45.071%" y2="81.021%"><stop offset="0%" stop-color="#4d5d5f"/><stop offset="3%" stop-color="#59696d"/><stop offset="14%" stop-color="#82959d"/><stop offset="23%" stop-color="#a0b4c1"/><stop offset="31%" stop-color="#b2c7d6"/><stop offset="36%" stop-color="#b9cede"/></linearGradient><linearGradient id="c" x1="0%" x2="100%" y1="50%" y2="50%"><stop offset="0%" stop-color="#b7b7b8"/><stop offset="3%" stop-color="#9c9e9e"/><stop offset="7%" stop-color="#888b8b"/><stop offset="9%" stop-color="#818484"/><stop offset="20%" stop-color="#a3a5a5"/><stop offset="49%" stop-color="#f6f6f6"/><stop offset="61%" stop-color="#f3f3f3"/><stop offset="70%" stop-color="#eaeaea"/><stop offset="77%" stop-color="#dbdbdb"/><stop offset="83%" stop-color="#c5c6c6"/><stop offset="90%" stop-color="#aaa"/><stop offset="95%" stop-color="#888989"/><stop offset="100%" stop-color="#666767"/></linearGradient><linearGradient id="d" x1="0%" x2="199.593%" y1="50%" y2="50%"><stop offset="0%" stop-color="#4d5d5f"/><stop offset="3%" stop-color="#59696d"/><stop offset="14%" stop-color="#82959d"/><stop offset="23%" stop-color="#a0b4c1"/><stop offset="31%" stop-color="#b2c7d6"/><stop offset="36%" stop-color="#b9cede"/></linearGradient><linearGradient id="e" x1="0%" x2="199.6%" y1="50.204%" y2="50.204%"><stop offset="0%" stop-color="#4d5d5f"/><stop offset="3%" stop-color="#59696d"/><stop offset="14%" stop-color="#82959d"/><stop offset="23%" stop-color="#a0b4c1"/><stop offset="31%" stop-color="#b2c7d6"/><stop offset="36%" stop-color="#b9cede"/></linearGradient><linearGradient id="f" x1="0%" x2="199.6%" y1="49.796%" y2="49.796%"><stop offset="0%" stop-color="#4d5d5f"/><stop offset="3%" stop-color="#59696d"/><stop offset="14%" stop-color="#82959d"/><stop offset="23%" stop-color="#a0b4c1"/><stop offset="31%" stop-color="#b2c7d6"/><stop offset="36%" stop-color="#b9cede"/></linearGradient><linearGradient id="g" x1="55.336%" x2="27.869%" y1="65.386%" y2="-3.272%"><stop offset="0%" stop-color="#4d5d5f"/><stop offset="3%" stop-color="#59696d"/><stop offset="14%" stop-color="#82959d"/><stop offset="23%" stop-color="#a0b4c1"/><stop offset="31%" stop-color="#b2c7d6"/><stop offset="36%" stop-color="#b9cede"/></linearGradient><linearGradient id="h" x1="50.908%" x2="51.051%" y1="3.868%" y2="284.558%"><stop offset="0%" stop-color="#4d5d5f"/><stop offset="3%" stop-color="#59696d"/><stop offset="14%" stop-color="#82959d"/><stop offset="23%" stop-color="#a0b4c1"/><stop offset="31%" stop-color="#b2c7d6"/><stop offset="36%" stop-color="#b9cede"/></linearGradient></defs><g fill="none" fill-rule="evenodd" transform="translate(.036 .005)"><path fill="#a0a0a0" fill-rule="nonzero" d="M61.55 54.36H50.84l2.24-11.49h5.91z"/><path fill="url(#a)" fill-rule="nonzero" d="M51.339 36.902h19v4.52h-19c-.63 0-1.14-.51-1.14-1.14v-2.28a1.14 1.14 0 0 1 1.14-1.1" transform="rotate(-16.44 60.269 39.162)"/><path fill="url(#b)" fill-rule="nonzero" d="M55.824 33.848h20.19v7.21h-20.19z" transform="rotate(-16.26 65.919 37.453)"/><path fill="#5d5e5e" fill-rule="nonzero" d="M36.61 57.32h102.16V68.6H36.61z"/><path fill="#5d5e5e" fill-rule="nonzero" d="M3.66 49.9h38.75v17.19H3.66z"/><path fill="#dadae0" fill-rule="nonzero" d="M36.19 14.82v37H22.33c-4.08 0-10 1.25-11.25 6.15a6.8 6.8 0 0 0-.18 1.55V60l-5-.07c-2.29 0-4.24-.94-4.24-3.29V30.79a6.34 6.34 0 0 1 .8-3.1l5.37-9.77a6.41 6.41 0 0 1 5.71-3.33z"/><path fill="#a0a0a0" fill-rule="nonzero" d="M11.37 32.87h-6a1.77 1.77 0 0 1-1.57-2.62L10.62 18a1.77 1.77 0 0 1 1.55-1h2.33a1.77 1.77 0 0 1 1.71 2.21l-3.12 12.33a1.78 1.78 0 0 1-1.72 1.33m15.7 0H17a2.07 2.07 0 0 1-2.23-2.41l3.07-11.87A2.24 2.24 0 0 1 20 17h7.06a2.16 2.16 0 0 1 2.28 2v11.89a2.15 2.15 0 0 1-2.27 1.98"/><path stroke="#afafaf" stroke-width=".5" d="M30.58 15.97v36.14M1.66 44.03h28.92v1.17H1.66zm0 5.28h28.92v1.17H1.66z"/><path fill="#afafaf" fill-rule="nonzero" d="M1.66 45.82h28.92v3.05H1.66z"/><circle cx="25.78" cy="35.11" r="1.11" fill="#afafaf" fill-rule="nonzero"/><circle cx="25.78" cy="41.75" r="1.11" fill="#afafaf" fill-rule="nonzero"/><rect width="1.37" height="7.71" x="25.1" y="34.51" fill="#bcbcbc" fill-rule="nonzero" rx=".57"/><path fill="#a0a0a0" fill-rule="nonzero" d="M1.96 34.76h4.7v2.02h-4.7z"/><circle cx="27.2" cy="68.61" r="9.86" fill="#a0a0a0" fill-rule="nonzero"/><circle cx="27.2" cy="68.61" r="8.71" fill="#666767" fill-rule="nonzero"/><circle cx="27.2" cy="68.61" r="5.39" fill="url(#c)" fill-rule="nonzero"/><circle cx="27.2" cy="68.61" r="2.25" fill="#a0a0a0" fill-rule="nonzero"/><circle cx="123.77" cy="68.61" r="9.86" fill="#a0a0a0" fill-rule="nonzero"/><circle cx="123.77" cy="68.61" r="8.71" fill="#666767" fill-rule="nonzero"/><circle cx="123.77" cy="68.61" r="5.39" fill="url(#c)" fill-rule="nonzero"/><circle cx="123.77" cy="68.61" r="2.25" fill="#a0a0a0" fill-rule="nonzero"/><circle cx="99.87" cy="68.61" r="9.86" fill="#a0a0a0" fill-rule="nonzero"/><circle cx="99.87" cy="68.61" r="8.71" fill="#666767" fill-rule="nonzero"/><circle cx="99.87" cy="68.61" r="5.39" fill="url(#c)" fill-rule="nonzero"/><circle cx="99.87" cy="68.61" r="2.25" fill="#a0a0a0" fill-rule="nonzero"/><path fill="#dadae0" fill-rule="nonzero" d="M24.13 53.7c-9.47-.12-11.42 5.3-11.59 8L2 61.6s-1 6.53 1.7 9.7h12.42S11.89 57.39 27 56.46l9.2.27v-3z"/><path fill="#a0a0a0" fill-rule="nonzero" d="M0 51.86h3.58v5.53H0zM2.99 62.5h10.79v1.56H2.99zm0 3.44h6.69v3.09H2.99z"/><path fill="#5d5e5e" fill-rule="nonzero" d="M138.76 57.39h2.86v14.67h-2.86z"/><path fill="#b2b2b2" fill-rule="nonzero" d="M42.69 58.99h36.44V71.3H42.69z"/><path fill="#a0a0a0" fill-rule="nonzero" d="M44.93 58.99h2.65V71.3h-2.65zm5.92 0h2.65V71.3h-2.65zm5.91 0h2.65V71.3h-2.65zm5.91 0h2.65V71.3h-2.65zm5.91 0h2.65V71.3h-2.65zm5.91 0h2.65V71.3h-2.65z"/><path fill="url(#d)" fill-rule="nonzero" d="M38.64 18.67h7.37v33.44h-7.37z"/><path fill="url(#e)" fill-rule="nonzero" d="M35.94 24.13h12.5v2.45h-12.5z"/><path fill="url(#f)" fill-rule="nonzero" d="M35.91 42.16h12.5v2.45h-12.5z"/><path fill="url(#g)" fill-rule="nonzero" d="m70.74 54 37.34-9.84 20.8-13.3-6-22.73-24.65-1.28-37.34 9.84-2.31 7a24.27 24.27 0 0 0 7 25.89z"/><path fill="#dadae0" fill-rule="nonzero" d="M42.41 52.11h102.16v5.28H42.41z"/><path stroke="#dadae0" d="M98.23 6.85S93.51 31 108.08 44.19M115 7.84s-3.43 17.81 7.15 27.55M79.86 11.77s-4.72 24.14 9.84 37.34M60.76 16.44S60 41.75 70.61 53.78"/><path fill="url(#h)" fill-rule="nonzero" d="M54.649 35.469h1.85v10.9h-1.85z" transform="rotate(-16.44 55.574 40.919)"/><path fill="#dadae0" fill-rule="nonzero" d="M142.68 16.44 136.1 0h-10.82l-8.69 33.84v18.02h17.61l-4.17-18.02z"/><path fill="#b2b2b2" fill-rule="nonzero" d="M128.88 15.97 125.28 0h24.69z"/><path stroke="#5d5e5e" stroke-width=".75" d="M132.48 51.86V5.21h7.44v46.65m-7.44-39.15h7.44m-7.44 6.74h7.44m-7.44 6.73h7.44m-7.44 6.74h7.44m-7.44 6.74h7.44m-7.44 6.73h7.44"/></g></svg>