<svg xmlns="http://www.w3.org/2000/svg" viewBox="0 0 151 60"><title>Container car (集装箱车）</title><g fill="none" fill-rule="nonzero" transform="translate(.036 .005)"><path fill="#6d6b6b" d="M147.58 5.53h1.95v1.95h-1.95zm0 4.49h1.95v1.95h-1.95zm0 4.49h1.95v1.95h-1.95zm0 4.48h1.95v1.95h-1.95zm0 4.49h1.95v1.95h-1.95zm0 4.49h1.95v1.95h-1.95zm0 4.49h1.95v1.95h-1.95zm0 4.48h1.95v1.95h-1.95zm0 4.49h1.95v1.95h-1.95z"/><circle cx="12.73" cy="52.49" r="7.49" fill="#a0a0a0"/><circle cx="12.73" cy="52.49" r="6.49" fill="#717070"/><circle cx="12.73" cy="52.49" r="5.91" fill="#a0a0a0"/><circle cx="12.73" cy="52.49" r="2.6" fill="#717070"/><circle cx="12.73" cy="52.49" r="2.22" fill="#a0a0a0"/><circle cx="12.73" cy="52.49" r="2.03" fill="#666767"/><circle cx="33.74" cy="52.49" r="7.49" fill="#a0a0a0"/><circle cx="33.74" cy="52.49" r="6.49" fill="#717070"/><circle cx="33.74" cy="52.49" r="5.91" fill="#a0a0a0"/><circle cx="33.74" cy="52.49" r="2.6" fill="#717070"/><circle cx="33.74" cy="52.49" r="2.22" fill="#a0a0a0"/><circle cx="33.74" cy="52.49" r="2.03" fill="#666767"/><circle cx="117.76" cy="52.49" r="7.49" fill="#a0a0a0"/><circle cx="117.76" cy="52.49" r="6.49" fill="#717070"/><circle cx="117.76" cy="52.49" r="5.91" fill="#a0a0a0"/><circle cx="117.76" cy="52.49" r="2.6" fill="#717070"/><circle cx="117.76" cy="52.49" r="2.22" fill="#a0a0a0"/><circle cx="117.76" cy="52.49" r="2.03" fill="#666767"/><circle cx="138.78" cy="52.49" r="7.49" fill="#a0a0a0"/><circle cx="138.78" cy="52.49" r="6.49" fill="#717070"/><circle cx="138.78" cy="52.49" r="5.91" fill="#a0a0a0"/><circle cx="138.78" cy="52.49" r="2.6" fill="#717070"/><circle cx="138.78" cy="52.49" r="2.22" fill="#a0a0a0"/><circle cx="138.78" cy="52.49" r="2.03" fill="#666767"/><path fill="#dadae0" d="M.03 0h147.41v48.57H.03z"/><path fill="#a0a0a0" d="M0 3h147.11v1H0zm.03-3h147.55v1.47H.03zm0 47.93h147.55v1.47H.03zM0 45h147.11v1H0z"/><path fill="#a0a0a0" d="M58.7 4h1.41v41.26H58.7zm2.45 0h1v41.26h-1zm2.05 0h1v41.26h-1zm2.04 0h1v41.26h-1zm2.04 0h1v41.26h-1zm2.04 0h1v41.26h-1zm2.05 0h1v41.26h-1zm2.04 0h1v41.26h-1zm2.04 0h1v41.26h-1zm2.04 0h1v41.26h-1zm2.05 0h1v41.26h-1zm2.04 0h1v41.26h-1zm2.04 0h1v41.26h-1zm2.04 0h1v41.26h-1zm63.37-.76h1V46h-1zM87.61 4h1.46v41.26h-1.46zm1.85.53h17.51v1H89.46zm0 1.69h17.51v1H89.46zm0 1.69h17.51v1H89.46zm0 1.7h17.51v1H89.46zm0 1.69h17.51v1H89.46zm0 1.69h17.51v1H89.46zm0 1.69h17.51v1H89.46zm0 1.69h17.51v1H89.46zm0 1.69h17.51v1H89.46zm0 1.7h17.51v1H89.46zm0 1.69h17.51v1H89.46zm0 1.69h17.51v1H89.46zm0 1.69h17.51v1H89.46zm0 1.69h17.51v1H89.46zm0 1.69h17.51v1H89.46zm0 1.69h17.51v1H89.46zm0 1.7h17.51v1H89.46zm0 1.69h17.51v1H89.46zm0 1.69h17.51v1H89.46zm0 1.69h17.51v1H89.46zm0 1.69h17.51v1H89.46zm0 1.69h17.51v1H89.46zm0 1.69h17.51v1H89.46zm0 1.7h17.51v1H89.46z"/><path fill="#a0a0a0" d="M58.87 23.79h29.95v1H58.87zM88.72 4.04l18.72 41.81.7-.7L89.42 3.33zM109.02 4.53h17.51v1h-17.51zm0 1.69h17.51v1h-17.51zm0 1.69h17.51v1h-17.51zm0 1.7h17.51v1h-17.51zm0 1.69h17.51v1h-17.51zm0 1.69h17.51v1h-17.51zm0 1.69h17.51v1h-17.51zm0 1.69h17.51v1h-17.51zm0 1.69h17.51v1h-17.51zm0 1.7h17.51v1h-17.51zm0 1.69h17.51v1h-17.51zm0 1.69h17.51v1h-17.51zm0 1.69h17.51v1h-17.51zm0 1.69h17.51v1h-17.51zm0 1.69h17.51v1h-17.51zm0 1.69h17.51v1h-17.51zm0 1.7h17.51v1h-17.51zm0 1.69h17.51v1h-17.51zm0 1.69h17.51v1h-17.51zm0 1.69h17.51v1h-17.51zm0 1.69h17.51v1h-17.51zm0 1.69h17.51v1h-17.51zm0 1.69h17.51v1h-17.51zm0 1.7h17.51v1h-17.51z"/><path fill="#a0a0a0" d="m108.27 4.04 18.72 41.81.71-.7-18.72-41.82zM128.45 4.44h17.51v1h-17.51zm0 1.69h17.51v1h-17.51zm0 1.69h17.51v1h-17.51zm0 1.69h17.51v1h-17.51zm0 1.69h17.51v1h-17.51zm0 1.7h17.51v1h-17.51zm0 1.69h17.51v1h-17.51zm0 1.69h17.51v1h-17.51zm0 1.69h17.51v1h-17.51zm0 1.69h17.51v1h-17.51zm0 1.69h17.51v1h-17.51zm0 1.69h17.51v1h-17.51zm0 1.7h17.51v1h-17.51zm0 1.69h17.51v1h-17.51zm0 1.69h17.51v1h-17.51zm0 1.69h17.51v1h-17.51zm0 1.69h17.51v1h-17.51zm0 1.69h17.51v1h-17.51zm0 1.69h17.51v1h-17.51zm0 1.7h17.51v1h-17.51zm0 1.69h17.51v1h-17.51zm0 1.69h17.51v1h-17.51zm0 1.69h17.51v1h-17.51zm0 1.69h17.51v1h-17.51z"/><path fill="#a0a0a0" d="m127.7 3.95 19.03 23.33.7-.71-19.02-23.33z"/><path fill="#a0a0a0" d="m127.34 45.15 19.04-19.08.71.71-19.04 19.07zm20.09-18.58L128.41 3.24m19.02 23.33L128.41 3.24M108.42 45.13h-1V3.87h1z"/><path fill="#a0a0a0" d="M128 45.13h-1V3.87h1zM58.13 5.54H40.62v-1h17.51zM58.13 7.23H40.62v-1h17.51zM58.13 8.91H40.62v-1h17.51zM58.13 10.6H40.62v-1h17.51zM58.13 12.3H40.62v-1h17.51zM58.13 13.99H40.62v-1h17.51zM58.13 15.68H40.62v-1h17.51zM58.13 17.38H40.62v-1h17.51zM58.13 19.07H40.62v-1h17.51zM58.13 20.75H40.62v-1h17.51zM58.13 22.45H40.62v-1h17.51zM58.13 24.14H40.62v-1h17.51zM58.13 25.83H40.62v-1h17.51zM58.13 27.52H40.62v-1h17.51zM58.13 29.22H40.62v-1h17.51zM58.13 30.9H40.62v-1h17.51zM58.13 32.59H40.62v-1h17.51zM58.13 34.29H40.62v-1h17.51zM58.13 35.98H40.62v-1h17.51zM58.13 37.67H40.62v-1h17.51zM58.13 39.37H40.62v-1h17.51zM58.13 41.06H40.62v-1h17.51zM58.13 42.74H40.62v-1h17.51zM58.13 44.43H40.62v-1h17.51z"/><path fill="#a0a0a0" d="M58.87 4.04 40.15 45.85l-.71-.7L58.16 3.33zM38.57 5.54H21.06v-1h17.51zM38.57 7.23H21.06v-1h17.51zM38.57 8.91H21.06v-1h17.51zM38.57 10.6H21.06v-1h17.51zM38.57 12.3H21.06v-1h17.51zM38.57 13.99H21.06v-1h17.51zM38.57 15.68H21.06v-1h17.51zM38.57 17.38H21.06v-1h17.51zM38.57 19.07H21.06v-1h17.51zM38.57 20.75H21.06v-1h17.51zM38.57 22.45H21.06v-1h17.51zM38.57 24.14H21.06v-1h17.51zM38.57 25.83H21.06v-1h17.51zM38.57 27.52H21.06v-1h17.51zM38.57 29.22H21.06v-1h17.51zM38.57 30.9H21.06v-1h17.51zM38.57 32.59H21.06v-1h17.51zM38.57 34.29H21.06v-1h17.51zM38.57 35.98H21.06v-1h17.51zM38.57 37.67H21.06v-1h17.51zM38.57 39.37H21.06v-1h17.51zM38.57 41.06H21.06v-1h17.51zM38.57 42.74H21.06v-1h17.51zM38.57 44.43H21.06v-1h17.51z"/><path fill="#a0a0a0" d="M39.32 4.04 20.59 45.85l-.7-.7L38.61 3.33zM19.14 5.44H1.63v-1h17.51zM19.14 7.13H1.63v-1h17.51zM19.14 8.82H1.63v-1h17.51zM19.14 10.52H1.63v-1h17.51zM19.14 12.2H1.63v-1h17.51zM19.14 13.89H1.63v-1h17.51zM19.14 15.59H1.63v-1h17.51zM19.14 17.28H1.63v-1h17.51zM19.14 18.97H1.63v-1h17.51zM19.14 20.66H1.63v-1h17.51zM19.14 22.36H1.63v-1h17.51zM19.14 24.04H1.63v-1h17.51zM19.14 25.73H1.63v-1h17.51zM19.14 27.43H1.63v-1h17.51zM19.14 29.12H1.63v-1h17.51zM19.14 30.81H1.63v-1h17.51zM19.14 32.51H1.63v-1h17.51zM19.14 34.2H1.63v-1h17.51zM19.14 35.88H1.63v-1h17.51zM19.14 37.57H1.63v-1h17.51zM19.14 39.27H1.63v-1h17.51zM19.14 40.96H1.63v-1h17.51zM19.14 42.65H1.63v-1h17.51zM19.14 44.35H1.63v-1h17.51z"/><path fill="#a0a0a0" d="M19.89 3.95.86 27.28l-.71-.71L19.18 3.24z"/><path fill="#a0a0a0" d="M20.24 45.15 1.21 26.07l-.71.71 19.03 19.07zM.15 26.57 19.18 3.24M.15 26.57 19.18 3.24"/><path fill="#a0a0a0" d="M39.17 3.87h1v41.26h-1zm-19.58 0h1v41.26h-1zM147.58 48.46h-1V1.18h1z"/><circle cx="137.62" cy="25.83" r="1" fill="#6d6b6b"/><circle cx="145.83" cy="25.93" r="1" fill="#6d6b6b"/><ellipse cx="141.65" cy="25.93" fill="#6d6b6b" rx="4.18" ry="1"/><circle cx="137.62" cy="33.43" r="1" fill="#6d6b6b"/><circle cx="145.83" cy="33.53" r="1" fill="#6d6b6b"/><ellipse cx="141.65" cy="33.53" fill="#6d6b6b" rx="4.18" ry="1"/><circle cx="137.62" cy="37.33" r="1" fill="#6d6b6b"/><circle cx="145.83" cy="37.43" r="1" fill="#6d6b6b"/><ellipse cx="141.65" cy="37.43" fill="#6d6b6b" rx="4.18" ry="1"/><circle cx="137.64" cy="29.41" r="1" fill="#6d6b6b"/><circle cx="145.84" cy="29.52" r="1" fill="#6d6b6b"/><ellipse cx="141.66" cy="29.52" fill="#6d6b6b" rx="4.18" ry="1"/><circle cx="137.64" cy="21.44" r="1" fill="#6d6b6b"/><circle cx="145.84" cy="21.54" r="1" fill="#6d6b6b"/><ellipse cx="141.66" cy="21.54" fill="#6d6b6b" rx="4.18" ry="1"/><circle cx="137.64" cy="16.4" r="1" fill="#6d6b6b"/><circle cx="145.84" cy="16.5" r="1" fill="#6d6b6b"/><ellipse cx="141.66" cy="16.5" fill="#6d6b6b" rx="4.18" ry="1"/><circle cx="137.64" cy="11.36" r="1" fill="#6d6b6b"/><circle cx="145.84" cy="11.46" r="1" fill="#6d6b6b"/><ellipse cx="141.66" cy="11.46" fill="#6d6b6b" rx="4.18" ry="1"/><circle cx="137.64" cy="6.31" r="1" fill="#6d6b6b"/><circle cx="145.84" cy="6.42" r="1" fill="#6d6b6b"/><ellipse cx="141.66" cy="6.42" fill="#6d6b6b" rx="4.18" ry="1"/><circle cx="137.62" cy="41.03" r="1" fill="#6d6b6b"/><circle cx="145.83" cy="41.13" r="1" fill="#6d6b6b"/><ellipse cx="141.65" cy="41.13" fill="#6d6b6b" rx="4.18" ry="1"/><path fill="#a0a0a0" d="M1 48.11H0V.48h1z"/><rect width="11.63" height="1.69" x="58.7" y="37.17" fill="#727272" rx=".845"/><rect width="21.9" height="1.69" x="87.61" y="3.15" fill="#727272" rx=".845"/><rect width="4.59" height="1" x="58.7" y="34.57" fill="#727272" rx=".39"/><rect width="5.41" height="1.24" x="108.42" y="23.14" fill="#727272" rx=".46"/><rect width="4.69" height="1.24" x="121.84" y="8.89" fill="#727272" rx=".46"/><rect width="5.41" height="1.24" x="108.55" y="29.69" fill="#727272" rx=".46"/><rect width="3.41" height="1" x="72.21" y="43.04" fill="#727272" rx=".39"/><circle cx="60.03" cy="38.02" r="1" fill="#dadae0"/><circle cx="59.17" cy="33.19" r="1" fill="#727272"/><circle cx="62.27" cy="38.02" r="1" fill="#dadae0"/><circle cx="64.51" cy="38.02" r="1" fill="#dadae0"/><circle cx="66.75" cy="38.02" r="1" fill="#dadae0"/><circle cx="68.99" cy="38.02" r="1" fill="#dadae0"/><rect width="1" height="3.11" x="59" y="33.11" fill="#949394" rx=".16"/><rect width="1" height="9.15" x="108.85" y="22.45" fill="#949394" rx=".48"/><circle cx="109.33" cy="23.76" r="1" fill="#727272"/><circle cx="123.25" cy="9.51" r="1" fill="#a0a0a0"/><circle cx="125.21" cy="9.51" r="1" fill="#a0a0a0"/><circle cx="109.33" cy="30.31" r="1" fill="#727272"/><path fill="#727272" d="M83.62 3h3.99v1.85h-3.99zM60.11 3h4.09v1.85h-4.09zM49.37 44.58h2.23v1.85h-2.23zm48.21 0h2.23v1.85h-2.23zm19.07 0h2.23v1.85h-2.23zm-87.36 0h2.23v1.85h-2.23zm-20.04 0h2.23v1.85H9.25z"/><path fill="#6d6b6b" d="M145.6 3.41h1V45.5h-1zm-8.21 0h1V45.5h-1z"/><path fill="#727272" d="M137.66 44.58h2.23v1.85h-2.23z"/><circle cx="137.64" cy="45.14" r="1" fill="#6d6b6b"/><circle cx="145.84" cy="45.25" r="1" fill="#6d6b6b"/><ellipse cx="141.66" cy="45.25" fill="#6d6b6b" rx="4.18" ry="1"/></g></svg>