<svg xmlns="http://www.w3.org/2000/svg" viewBox="0 0 151 76"><title>Dump truck (自卸汽车）</title><defs><linearGradient id="a" x1="0%" x2="100%" y1="50%" y2="50%"><stop offset="0%" stop-color="#b7b7b8"/><stop offset="3%" stop-color="#9c9e9e"/><stop offset="7%" stop-color="#888b8b"/><stop offset="9%" stop-color="#818484"/><stop offset="20%" stop-color="#a3a5a5"/><stop offset="49%" stop-color="#f6f6f6"/><stop offset="61%" stop-color="#f3f3f3"/><stop offset="70%" stop-color="#eaeaea"/><stop offset="77%" stop-color="#dbdbdb"/><stop offset="83%" stop-color="#c5c6c6"/><stop offset="90%" stop-color="#aaa"/><stop offset="95%" stop-color="#888989"/><stop offset="100%" stop-color="#666767"/></linearGradient><linearGradient id="b" x1="0%" x2="100.107%" y1="50%" y2="50%"><stop offset="0%" stop-color="#b7b7b8"/><stop offset="3%" stop-color="#9c9e9e"/><stop offset="7%" stop-color="#888b8b"/><stop offset="9%" stop-color="#818484"/><stop offset="20%" stop-color="#a3a5a5"/><stop offset="49%" stop-color="#f6f6f6"/><stop offset="61%" stop-color="#f3f3f3"/><stop offset="70%" stop-color="#eaeaea"/><stop offset="77%" stop-color="#dbdbdb"/><stop offset="83%" stop-color="#c5c6c6"/><stop offset="90%" stop-color="#aaa"/><stop offset="95%" stop-color="#888989"/><stop offset="100%" stop-color="#666767"/></linearGradient></defs><g fill="none" fill-rule="evenodd" transform="translate(.036)"><circle cx="12.22" cy="66.445" r="8.58" fill="#a0a0a0" fill-rule="nonzero"/><circle cx="12.22" cy="66.445" r="7.58" fill="#666767" fill-rule="nonzero"/><circle cx="12.22" cy="66.445" r="4.69" fill="url(#a)" fill-rule="nonzero"/><circle cx="12.22" cy="66.445" r="1.96" fill="#a0a0a0" fill-rule="nonzero"/><path fill="#dadae0" fill-rule="nonzero" d="m30.1 30.275-7 12.3-16.38 3.52a6.68 6.68 0 0 0-5.16 5.23L0 59.005v6.06h2.49a9.83 9.83 0 0 1 19.46 0h26.59v-34.79z"/><path fill="#a0a0a0" fill-rule="nonzero" d="M31.57 45.005h-5.24a1.54 1.54 0 0 1-1.33-2.31l5.92-10.69a1.52 1.52 0 0 1 1.34-.79h2a1.54 1.54 0 0 1 1.49 1.92l-2.69 10.68a1.53 1.53 0 0 1-1.49 1.19m12.08 0h-7.52a1.71 1.71 0 0 1-1.65-2.1l2.28-10.32a1.7 1.7 0 0 1 1.65-1.35h5.24a1.7 1.7 0 0 1 1.69 1.72v10.3a1.7 1.7 0 0 1-1.69 1.75"/><path stroke="#afafaf" stroke-width=".5" d="M46.2 30.275v34.78M23.12 58.855H46.2v1.02H23.12zm0 4.6H46.2v1.02H23.12z"/><path fill="#afafaf" fill-rule="nonzero" d="M23.12 60.425H46.2v2.65H23.12z"/><circle cx="44.11" cy="46.925" r="1" fill="#afafaf" fill-rule="nonzero"/><circle cx="44.11" cy="57.575" r="1" fill="#afafaf" fill-rule="nonzero"/><rect width="1.19" height="11.58" x="43.51" y="46.405" fill="#bcbcbc" fill-rule="nonzero" rx=".57"/><path fill="#dadae0" fill-rule="nonzero" d="M23.12 69.635h-.59l-1.73-13.55 2.32-.31z"/><path stroke="#afafaf" stroke-width=".5" d="M23.12 42.555v22.5"/><path fill="#a0a0a0" fill-rule="nonzero" d="M1.04 58.805h2.21v3.93H1.04zm22.34-12.18h4.09v1.76h-4.09z"/><circle cx="103.87" cy="66.445" r="8.58" fill="#a0a0a0" fill-rule="nonzero"/><circle cx="103.87" cy="66.445" r="7.58" fill="#666767" fill-rule="nonzero"/><circle cx="103.87" cy="66.445" r="4.69" fill="url(#a)" fill-rule="nonzero"/><circle cx="103.87" cy="66.445" r="1.96" fill="#a0a0a0" fill-rule="nonzero"/><circle cx="123.14" cy="66.445" r="8.58" fill="#a0a0a0" fill-rule="nonzero"/><circle cx="123.14" cy="66.445" r="7.58" fill="#666767" fill-rule="nonzero"/><circle cx="123.14" cy="66.445" r="4.69" fill="url(#b)" fill-rule="nonzero"/><circle cx="123.14" cy="66.445" r="1.96" fill="#a0a0a0" fill-rule="nonzero"/><path stroke="#a0a0a0" stroke-width=".5" d="M48.54 30.275v27.3"/><path fill="#a0a0a0" fill-rule="nonzero" d="M48.54 57.575h101.35v4.18H48.54z"/><path fill="#a0a0a0" fill-rule="nonzero" d="M57.91 57.835h-2.44l9.38-27.82h2.43z"/><path fill="#dadae0" fill-rule="nonzero" d="m65.784 0 84.221 30.371-10.397 28.833-84.221-30.371z"/><path stroke="#a0a0a0" stroke-width=".75" d="m67.5 3.221 79.724 28.75-8.745 24.251-79.725-28.75z"/><path stroke="#a0a0a0" stroke-width=".5" d="m72.02 4.845-8.75 24.25m13.18-22.65-8.74 24.25m13.17-22.66-8.74 24.26m13.17-22.66-8.74 24.26m13.18-22.66L81 35.485m13.18-22.65-8.75 24.25m13.18-22.65-8.74 24.25m13.17-22.66-8.74 24.26m13.17-22.66-8.74 24.25m13.18-22.65-8.75 24.25m13.18-22.65-8.75 24.25m13.18-22.65-8.74 24.25m13.17-22.66-8.74 24.26m13.17-22.66-8.74 24.25m13.18-22.65-8.75 24.25m13.18-22.65-8.75 24.25m13.18-22.65-8.74 24.25"/></g></svg>