<svg xmlns="http://www.w3.org/2000/svg" viewBox="0 0 151 144"><title>Gantry crane(龙门起重机)</title><g fill="none" fill-rule="evenodd" transform="translate(.036 .495)"><path fill="#a0a0a0" fill-rule="nonzero" d="M2.04 4.93h134.9v4.82H2.04z"/><path fill="#c7c6c6" fill-rule="nonzero" d="m135.97 19.21 6.06 2.4L150 11.59h-14.03z"/><path fill="#a0a0a0" fill-rule="nonzero" d="M142.43 120.61h-7.62V11.59h7.62z"/><path fill="#a0a0a0" fill-rule="nonzero" d="M145.29 131.92h-13.34v-11.8h13.34zM140.67 133.53h-4.1v-1.61h4.1z"/><circle cx="138.62" cy="137.17" r="5.05" fill="#6e6e6d" fill-rule="nonzero"/><path fill="#c7c6c6" fill-rule="nonzero" d="m14.03 18.97-6.07 2.4L0 11.35h14.03z"/><path fill="#727272" fill-rule="nonzero" d="M15.19 3.73h119.62v1.19H15.19zm0 4.82h119.62v1.19H15.19z"/><path fill="#a0a0a0" fill-rule="nonzero" d="M7.57 11.59h7.62v109.02H7.57zM0 3.07h15.19v8.52H0zm4.71 117.54h13.34v11.8H4.71zM134.81 3.07H150v8.52h-15.19z"/><path fill="#727272" fill-rule="nonzero" d="M0 10.21h15.19v1.39H0zm0-8.53h15.19v1.39H0zm134.81 8.53H150v1.39h-15.19zm0-8.53H150v1.39h-15.19z"/><path fill="#a0a0a0" fill-rule="nonzero" d="M9.33 132.41h4.1v1.61h-4.1z"/><circle cx="11.38" cy="137.65" r="5.05" fill="#6e6e6d" fill-rule="nonzero"/><rect width="1.3" height="13.34" x="14.03" y=".16" fill="#c0bfbf" fill-rule="nonzero" rx=".6"/><rect width="1.3" height="13.34" x="134.81" fill="#c0bfbf" fill-rule="nonzero" rx=".6"/><path fill="#c0bfbf" fill-rule="nonzero" d="M96.35 7.7h14.45v5.63H96.35z"/><path fill="#a0a0a0" fill-rule="nonzero" d="M99.76 11.59h7.64v3.98h-7.64z"/><rect width="22.09" height="10.84" x="92.53" y="15.58" fill="#c0bfbf" fill-rule="nonzero" rx="1.53"/><path fill="#a0a0a0" fill-rule="nonzero" d="M102.4 26.41h2.36v1.04h-2.36zm-1.12 1.05h4.58v7.78h-4.58z"/><path fill="#c0bfbf" fill-rule="nonzero" d="M103.65 36.37a3.36 3.36 0 0 0-3.28 1.82 3.72 3.72 0 0 0 .51 4.13 4.12 4.12 0 0 0 4.42 1.19 4.49 4.49 0 0 0 3-4 4.86 4.86 0 0 1-2.74 4.66 5.24 5.24 0 0 1-5.77-.83 5.62 5.62 0 0 1-1.53-6 6 6 0 0 1 5.36-4h.12a1.51 1.51 0 1 1 .12 3z"/><path stroke="#c0bfbf" stroke-linecap="round" stroke-linejoin="round" d="M110.53 26.41v67.25"/><path fill="#c0bfbf" fill-rule="nonzero" d="M109.39 86.99h2.29v8.89h-2.29z"/><path fill="#c0bfbf" fill-rule="nonzero" d="M107.71 93.66h5.65v10.56h-5.65z"/><circle cx="110.53" cy="96.48" r="1.48" fill="#a0a0a0" fill-rule="nonzero"/><circle cx="110.53" cy="101.48" r="1.48" fill="#7c7c7d" fill-rule="nonzero"/></g></svg>