<svg xmlns="http://www.w3.org/2000/svg" viewBox="0 0 150 125"><title>Lifter（升降机）</title><defs><linearGradient id="a" x1="0%" x2="100%" y1="50%" y2="50%"><stop offset="0%" stop-color="#b7b7b8"/><stop offset="3%" stop-color="#9c9e9e"/><stop offset="7%" stop-color="#888b8b"/><stop offset="9%" stop-color="#818484"/><stop offset="20%" stop-color="#a3a5a5"/><stop offset="49%" stop-color="#f6f6f6"/><stop offset="61%" stop-color="#f3f3f3"/><stop offset="70%" stop-color="#eaeaea"/><stop offset="77%" stop-color="#dbdbdb"/><stop offset="83%" stop-color="#c5c6c6"/><stop offset="90%" stop-color="#aaa"/><stop offset="95%" stop-color="#888989"/><stop offset="100%" stop-color="#666767"/></linearGradient><linearGradient id="b" x1=".34%" x2="100%" y1="50%" y2="50%"><stop offset="0%" stop-color="#b7b7b8"/><stop offset="3%" stop-color="#9c9e9e"/><stop offset="7%" stop-color="#888b8b"/><stop offset="9%" stop-color="#818484"/><stop offset="20%" stop-color="#a3a5a5"/><stop offset="49%" stop-color="#f6f6f6"/><stop offset="61%" stop-color="#f3f3f3"/><stop offset="70%" stop-color="#eaeaea"/><stop offset="77%" stop-color="#dbdbdb"/><stop offset="83%" stop-color="#c5c6c6"/><stop offset="90%" stop-color="#aaa"/><stop offset="95%" stop-color="#888989"/><stop offset="100%" stop-color="#666767"/></linearGradient><linearGradient id="c" x1="0%" x2="99.383%" y1="50%" y2="50%"><stop offset="0%" stop-color="#b7b7b8"/><stop offset="3%" stop-color="#9c9e9e"/><stop offset="7%" stop-color="#888b8b"/><stop offset="9%" stop-color="#818484"/><stop offset="20%" stop-color="#a3a5a5"/><stop offset="49%" stop-color="#f6f6f6"/><stop offset="61%" stop-color="#f3f3f3"/><stop offset="70%" stop-color="#eaeaea"/><stop offset="77%" stop-color="#dbdbdb"/><stop offset="83%" stop-color="#c5c6c6"/><stop offset="90%" stop-color="#aaa"/><stop offset="95%" stop-color="#888989"/><stop offset="100%" stop-color="#666767"/></linearGradient></defs><g fill="none" fill-rule="nonzero" transform="translate(.036 .005)"><path fill="#a0a0a0" d="M96.72 107.63 37.84 86.14v-5.59l58.88 21.49z"/><path fill="#dadae0" d="M33.9 0h91.53v8.15H33.9zm0 104.1h96.22v8.15H33.9z"/><rect width="8.36" height="75.91" x="71.451" y="-5.821" fill="#dadae0" rx="3.93" transform="rotate(-45 75.631 32.134)"/><rect width="8.36" height="75.91" x="71.454" y="-5.816" fill="#dadae0" rx="3.93" transform="rotate(225 75.634 32.139)"/><rect width="8.36" height="75.91" x="71.448" y="43.466" fill="#dadae0" rx="3.93" transform="rotate(-45 75.628 81.42)"/><rect width="8.36" height="75.91" x="71.451" y="43.467" fill="#dadae0" rx="3.93" transform="rotate(225 75.63 81.422)"/><path fill="#dadae0" d="M33.9 77.12h6.95v38.59H33.9zm89.42 1.31h6.95v44.49h-6.95z"/><path fill="#666767" d="M33.9 0h1.15v8.15H33.9zm90.38 0h1.15v8.15h-1.15z"/><path fill="#a0a0a0" d="M33.9 0h91.53v1.51H33.9zm0 6.64h91.53v1.51H33.9z"/><path fill="#dadae0" d="M33.9 104.1h91.53v8.15H33.9z"/><path fill="#666767" d="M33.9 104.1h1.15v8.15H33.9zm95.22 0h1.15v8.15h-1.15z"/><circle cx="76.02" cy="81.42" r="2.6" fill="#666767"/><circle cx="76.02" cy="81.42" r="2.23" fill="#a0a0a0"/><circle cx="76.02" cy="81.42" r="1.47" fill="url(#a)"/><path fill="#666767" d="m76.46 80.682.708.707L76 82.556l-.707-.708z"/><path fill="#666767" d="m76.748 81.85-.707.708-1.167-1.167.708-.707z"/><path fill="#a0a0a0" d="M33.9 104.1h96.38v1.51H33.9zm0 6.64h96.38v1.51H33.9zM2.08 74.3h144.91v8.15H2.08z"/><path fill="#666767" d="M0 74.3h149.68v1.51H0zm0 6.64h149.68v1.51H0zM47.84 2.27h64.1v3.6h-64.1z"/><path fill="#e2e2e1" d="M48.3 2.53h5.42v3.06H48.3zm6.41 0h21.5v3.06h-21.5zm28.81.03h5.42v3.06h-5.42zm6.19-.01h21.5v3.06h-21.5zm-12.9-.01h6.28v1h-6.28zm0 1.15h6.28v1h-6.28z"/><path fill="#e2e2e1" d="M76.81 4.68h6.28v1h-6.28z"/><circle cx="75.78" cy="32.14" r="2.6" fill="#666767"/><circle cx="75.78" cy="32.14" r="2.23" fill="#a0a0a0"/><circle cx="75.78" cy="32.14" r="1.47" fill="url(#a)"/><path fill="#666767" d="m76.216 31.406.708.707-1.167 1.167-.707-.708z"/><path fill="#666767" d="m76.514 32.576-.707.708-1.167-1.167.708-.707z"/><circle cx="99.4" cy="56.58" r="2.6" fill="#666767"/><circle cx="99.4" cy="56.58" r="2.23" fill="#a0a0a0"/><circle cx="99.4" cy="56.58" r="1.47" fill="url(#a)"/><path fill="#666767" d="m99.836 55.864.708.707-1.167 1.167-.707-.708z"/><path fill="#666767" d="m100.116 57.016-.707.708-1.167-1.167.708-.707z"/><circle cx="52.27" cy="56.58" r="2.6" fill="#666767"/><circle cx="52.27" cy="56.58" r="2.23" fill="#a0a0a0"/><circle cx="52.27" cy="56.58" r="1.47" fill="url(#b)"/><path fill="#666767" d="m52.71 55.858.708.707-1.167 1.167-.707-.708z"/><path fill="#666767" d="m53.002 57.01-.707.708-1.167-1.167.708-.707z"/><circle cx="37.84" cy="108.17" r="1.43" fill="#666767"/><circle cx="37.84" cy="108.17" r="1.23" fill="#a0a0a0"/><circle cx="37.84" cy="108.17" r="1" fill="url(#c)"/><path fill="#666767" d="m38.073 107.771.707.708-.707.707-.707-.707z"/><path fill="#666767" d="m38.239 108.413-.708.707-.707-.707.707-.707z"/><circle cx="126.79" cy="108.17" r="1.43" fill="#666767"/><circle cx="126.79" cy="108.17" r="1.23" fill="#a0a0a0"/><circle cx="126.79" cy="108.17" r="1" fill="url(#a)"/><path fill="#666767" d="m127.037 107.775.707.708-.707.707-.707-.707z"/><path fill="#666767" d="m127.195 108.407-.708.707-.707-.707.707-.707z"/><circle cx="17.11" cy="78.37" r="1.43" fill="#666767"/><circle cx="17.11" cy="78.37" r="1.23" fill="#a0a0a0"/><circle cx="17.11" cy="78.37" r="1" fill="url(#a)"/><path fill="#666767" d="m17.353 77.978.707.707-.707.707-.707-.707z"/><path fill="#666767" d="m17.502 78.625-.707.707-.707-.707.707-.707z"/><circle cx="56.51" cy="78.37" r="1.43" fill="#666767"/><circle cx="56.51" cy="78.37" r="1.23" fill="#a0a0a0"/><circle cx="56.51" cy="78.37" r="1" fill="url(#a)"/><path fill="#666767" d="m56.746 77.971.707.708-.707.707-.707-.707z"/><path fill="#666767" d="m56.909 78.616-.708.707-.707-.707.707-.707z"/><circle cx="95.91" cy="78.37" r="1.43" fill="#666767"/><circle cx="95.91" cy="78.37" r="1.23" fill="#a0a0a0"/><circle cx="95.91" cy="78.37" r="1" fill="url(#a)"/><path fill="#666767" d="m96.146 77.971.707.708-.707.707-.707-.707z"/><path fill="#666767" d="m96.309 78.616-.708.707-.707-.707.707-.707z"/><circle cx="135.31" cy="78.37" r="1.43" fill="#666767"/><circle cx="135.31" cy="78.37" r="1.23" fill="#a0a0a0"/><circle cx="135.31" cy="78.37" r="1" fill="url(#a)"/><path fill="#666767" d="m135.546 77.971.707.708-.707.707-.707-.707z"/><path fill="#666767" d="m135.709 78.616-.708.707-.707-.707.707-.707zM33.14 115.71h8.47v8.47h-8.47z"/><path fill="#252525" d="M33.9 116.47h6.95v6.95H33.9z"/><path fill="#666767" d="M122.56 115.71h8.47v8.47h-8.47z"/><path fill="#252525" d="M123.32 116.47h6.95v6.95h-6.95z"/><path fill="#a0a0a0" d="M50.05 112.24h15.54v3.46H50.05z"/><rect width="22.18" height="9.58" x="46.72" y="114.59" fill="#666767" rx="1.35"/><path fill="#666767" d="M50.05 112.24h15.54v1H50.05z"/></g></svg>