<svg xmlns="http://www.w3.org/2000/svg" viewBox="0 0 99 150"><title>Port crane (港口起重机)</title><g fill="none" fill-rule="nonzero"><path fill="#a0a0a0" d="M34.346 93.315h48.12v3.05h-48.12zm0-3.36h48.12v1h-48.12zm0 1.2h48.12v1h-48.12zm-10.48 54.43h69.02v3.05h-69.02zm7.72-28.95h52.44v6.72h-52.44z"/><path fill="#a0a0a0" d="M27.536 150.005h-10.03l23.8-66.75h5.84zm61.27 0h10.04l-23.81-66.75h-5.83z"/><path fill="#a0a0a0" d="M34.346 89.955h1v6.42h-1zm3.17 0h1v6.42h-1zm3.17 0h1v6.42h-1zm3.17 0h1v6.42h-1zm3.17 0h1v6.42h-1zm3.17 0h1v6.42h-1zm3.17 0h1v6.42h-1zm3.17 0h1v6.42h-1zm3.17 0h1v6.42h-1zm3.17 0h1v6.42h-1zm3.17 0h1v6.42h-1zm3.17 0h1v6.42h-1zm3.17 0h1v6.42h-1zm3.17 0h1v6.42h-1zm3.17 0h1v6.42h-1zm3.09 0h1v6.42h-1zm3.47-37.93h1v8.27h-1zm-6.9 0h1v8.27h-1zm-6.9 0h1v8.27h-1zm-6.9 0h1v8.27h-1z"/><path fill="#a0a0a0" d="M54.636 83.255h6.34v66.75h-6.34z"/><path fill="#a0a0a0" d="M60.926 107.145h-2.12l13-11.28h2.12zm-5.42 0h2.12l-13-11.28h-2.12zM28.216 79.755h57.9v3.5h-57.9z"/><path fill="#dadae0" d="M44.286 60.295h41.83v19.47h-41.83z"/><path fill="#a0a0a0" d="M37.516 58.485h48.6v1.8h-48.6zm9.47 1.81h1.13v19.47h-1.13zm5.88 0h1.13v19.47h-1.13zm5.89 0h1.13v19.47h-1.13zm5.89 0h1.13v19.47h-1.13zm5.89 0h1.13v19.47h-1.13zm5.88 0h1.13v19.47h-1.13zm5.89 0h1.13v19.47h-1.13z"/><path fill="#a0a0a0" d="M52.096 65.925h8.69v6.31h-8.69zm17.6 0h8.69v6.31h-8.69zM59.886 60.295h-15.6l12.91-26.46h5.38z"/><path fill="#a0a0a0" d="M56.076 32.635h7.89v1.2h-7.89zm2.68 19.39h27.36v1h-27.36zm0 1.83h27.36v1h-27.36z"/><path fill="#a0a0a0" d="M46.186 58.485h-3.81l-22.05-43.81 2.56-2.48zm26.81-18.23h-7.22l-36.83-39.08h3.81z"/><path fill="#a0a0a0" d="M72.446 59.395h-1.58l-9.84-24.05h1.58zm-66.91-22.71h-3.9l27.21-35.51h3.91zM.036 36.685h6.61v5.37H.036z"/><path fill="#a0a0a0" d="m32.756 2.005-17.89 5.18v-2.01l17.89-5.17z"/><path fill="#a0a0a0" d="M2.746 36.945H.936l13.93-31.57h1.81zM2.846 38.695h1v17.34h-1z"/><path fill="#a0a0a0" d="m22.806 15.495-7.39-7.71v-2.41l7.39 7.72z"/><path fill="#dadae0" d="M52.866 40.255h9.56v1h-9.56zm0 2.18h9.56v1h-9.56z"/><path fill="#dadae0" d="M52.866 40.325h1v2.78h-1z"/><path fill="#dadae0" d="M53.796 40.325h1v2.78h-1z"/><path fill="#dadae0" d="M54.726 40.325h1v2.78h-1z"/><path fill="#dadae0" d="M55.656 40.325h1v2.78h-1z"/><path fill="#dadae0" d="M56.586 40.325h1v2.78h-1z"/><path fill="#dadae0" d="M57.526 40.325h1v2.78h-1z"/><path fill="#dadae0" d="M58.456 40.325h1v2.78h-1z"/><path fill="#dadae0" d="M59.386 40.325h1v2.78h-1z"/><path fill="#dadae0" d="M60.316 40.325h1v2.78h-1z"/><path fill="#dadae0" d="M61.246 40.325h1v2.78h-1z"/><path fill="#dadae0" d="M62.176 40.325h1v2.78h-1z"/><path fill="#a0a0a0" d="M3.346 54.835a2.18 2.18 0 0 1 2 1.44 2 2 0 0 1-.55 2.23 1.94 1.94 0 0 1-2.13.32 1.83 1.83 0 0 1-1-1.74 1.71 1.71 0 0 0 1.13 1.51c.6.204 1.265.03 1.69-.44a1.46 1.46 0 0 0 .21-1.6 1.31 1.31 0 0 0-1.27-.72.51.51 0 0 1-.55-.45.5.5 0 0 1 .45-.55h.1z"/><path fill="#fff" d="m33.485 3.208 2.765 2.765-.707.707-2.765-2.765zM38.015 7.735l2.764 2.764-.707.707-2.764-2.764zM42.552 12.264l2.765 2.765-.707.707-2.765-2.765zM47.082 16.79l2.765 2.765-.707.707-2.765-2.765zM51.602 21.327l2.765 2.765-.707.707-2.765-2.765zM56.125 25.846l2.765 2.765-.707.707-2.765-2.765zM60.655 30.382l2.765 2.765-.707.707-2.765-2.765zM65.185 34.909l2.765 2.765-.707.707-2.765-2.765z"/><path fill="#dadae0" d="M46.636 58.485h.26l11.82-24.65h-.27z"/></g></svg>