<svg xmlns="http://www.w3.org/2000/svg" viewBox="0 0 151 87"><title>Port entrepot storage(港口转口仓库)</title><g fill="none" fill-rule="evenodd" transform="translate(.036 .005)"><path fill="#989898" fill-rule="nonzero" d="M103.3 30.76 46.76 0 93.4 3.5l56.54 30.75z"/><path fill="#9a9a9a" fill-rule="nonzero" d="M56.61 47.37.07 16.61 46.76 0l56.54 30.76z"/><path fill="#818181" fill-rule="nonzero" d="M56.54 86.68 0 55.93l.07-39.32 56.54 30.76z"/><path stroke="#4c4c4c" stroke-linecap="round" stroke-width=".75" d="M2.3 17.99v39.22m2.15-38.06v39.22m2.14-38.06v39.22m2.14-38.06v39.22m2.14-38.06v39.23m2.15-38.07v39.23m2.14-38.07v39.23m2.14-38.06v39.22m2.14-38.06V66.5m2.15-38.06v39.22m2.14-38.06v39.22m2.14-38.06v39.22m2.15-38.06v39.23m2.14-38.07v39.23m2.14-38.07v39.23m2.14-38.06v39.22m2.15-38.06v39.22m2.14-38.06v39.22m2.14-38.06v39.22m2.14-38.06v39.22m2.15-38.06v39.23m2.14-38.07V81.6m2.14-38.07v39.23m2.14-38.06v39.22m2.15-38.06v39.22m0-39.22 46.69-16.62M51.39 44.59l46.69-16.61M49.05 43.32l46.69-16.61M46.72 42.06 93.4 25.44M44.38 40.79l46.69-16.61M42.04 39.52l46.69-16.61M39.7 38.26l46.69-16.62M37.37 36.99l46.68-16.61M35.03 35.72l46.69-16.61M32.69 34.46l46.69-16.62M30.35 33.19l46.69-16.62M28.02 31.92 74.7 15.31M25.68 30.65l46.69-16.61M23.34 29.39l46.69-16.62M21 28.12l46.69-16.61M18.67 26.85l46.68-16.61M16.33 25.59 63.02 8.97M13.99 24.32 60.68 7.71M11.65 23.05 58.34 6.44M9.32 21.79 56 5.17M6.98 20.52 53.67 3.91M4.64 19.25 51.33 2.64M2.3 17.99 48.99 1.37m51.43 27.87 46.64 3.5m-49.35-4.96 46.64 3.49M95 26.31l46.64 3.5M92.3 24.84l46.64 3.5m-49.35-4.96 46.64 3.49m-49.35-4.96 46.64 3.5m-49.34-4.97 46.64 3.5m-49.35-4.96 46.64 3.49m-49.35-4.96 46.65 3.5m-49.35-4.97 46.64 3.5m-49.35-4.97 46.64 3.5m-49.35-4.96 46.65 3.49m-49.35-4.96 46.64 3.5m-49.35-4.97 46.64 3.5M62.52 8.71l46.65 3.49M59.82 7.24l46.64 3.5M57.11 5.77l46.64 3.5M54.4 4.31l46.65 3.49M51.7 2.84l46.64 3.5M48.99 1.37l46.64 3.5"/><path fill="#afafaf" fill-rule="nonzero" d="m56.67 47.37 46.69-16.61L150 34.25l-.07 39.32L56.6 86.68z"/><path stroke="#4c4c4c" stroke-linecap="round" stroke-width=".75" d="M100.47 31.78v48.75m-2.89-47.72v48.12m-2.89-47.09v47.5m-2.88-46.47v46.87m-2.89-45.85v46.26m-2.89-45.23v45.63m-2.89-44.6v45.01m-2.88-43.98v44.38M77.37 40v43.77m-2.89-42.74v43.14m-2.89-42.11v42.52m-2.88-41.49v41.89m-2.89-40.87v41.28m-2.89-40.25v40.65m-2.89-39.62V86.2m43.32-55.21v49.37M106 31.18v48.79m2.65-48.59v48.2m2.64-48.01V79.2m2.65-47.44v47.05m2.65-46.86v46.48m2.64-46.29v45.9m2.65-45.71v45.32m2.64-45.12v44.74m2.65-44.55v44.16m2.64-43.97v43.58m2.65-43.39v43.01m2.65-42.82v42.43m2.64-42.23v41.85m2.65-41.66v41.27m2.64-41.08v40.69m2.65-40.5v40.12m2.64-39.93v39.54"/><path fill="#898989" fill-rule="nonzero" d="m116.78 41.32-.06 36.84-20.35 2.86.07-36.84z"/><path fill="#4c4c4c" fill-rule="nonzero" d="M96.44 44.18v1.61l18.87-2.65-.06 35.22 1.47-.2.06-36.84z"/><ellipse cx="112.713" cy="63.008" fill="#4c4c4c" fill-rule="nonzero" rx="1.41" ry="1.23" transform="rotate(-81.12 112.713 63.008)"/><rect width="5.06" height="1" x="108.032" y="63.09" fill="#4c4c4c" fill-rule="nonzero" rx=".4" transform="rotate(-11.35 110.562 63.495)"/></g></svg>