<svg xmlns="http://www.w3.org/2000/svg" viewBox="0 0 151 54"><title>Standard 40-foot container（标准40英尺集装箱）</title><g fill="none" fill-rule="nonzero" transform="translate(.036 .005)"><path fill="#a0a0a0" d="M2.44 2.13h145.14v50.21H2.44z"/><path fill="#666767" d="M142.27 50H7.74V4.43h134.53zM8.85 49.3h132.32V5.18H8.85z"/><path fill="#666767" d="M15.42 5.03h5.16v44.34h-5.16zm11.16 0h5.16v44.34h-5.16zm11.16 0h5.16v44.34h-5.16zm11.17 0h5.16v44.34h-5.16zm11.16 0h5.16v44.34h-5.16zm11.16 0h5.16v44.34h-5.16zm11.16 0h5.16v44.34h-5.16zm11.17 0h5.16v44.34h-5.16zm11.16 0h5.16v44.34h-5.16zm11.16 0h5.16v44.34h-5.16zm11.16 0h5.16v44.34h-5.16zM49.73 50.04h9.43v2.3h-9.43z"/><path fill="#666767" d="M98.72 48.85h9.43v3.43h-9.43z"/><path fill="#a0a0a0" d="M150.01 53.23h-7.73v-5.31h7.73z"/><path fill="#666767" d="M147.59 47.92h-5.3v-1h5.3zM142.28 52.34h-1v-3.43h1z"/><circle cx="146.15" cy="50.57" r="1.42" fill="#666767"/><path fill="#a0a0a0" d="M.01 47.91h7.73v5.31H.01z"/><path fill="#666767" d="M2.43 47.29h5.3v1h-5.3zm5.31 1.62h1v3.43h-1z"/><circle cx="3.88" cy="50.57" r="1.42" fill="#666767"/><path fill="#a0a0a0" d="M150.01 5.36h-7.73V.05h7.73z"/><path fill="#666767" d="M147.59 5.99h-5.3v-1h5.3zM142.28 4.36h-1V.93h1z"/><circle cx="146.15" cy="2.71" r="1.42" fill="#666767"/><path fill="#a0a0a0" d="M0 0h7.73v5.31H0z"/><path fill="#666767" d="M2.42 5.31h5.3v1h-5.3zM7.73 1h1v3.43h-1z"/><circle cx="3.86" cy="2.66" r="1.42" fill="#666767"/></g></svg>