<svg xmlns="http://www.w3.org/2000/svg" viewBox="0 0 151 77"><title>Standard 20-foot container（标准20英尺集装箱）</title><g fill="none" fill-rule="nonzero" transform="translate(.036 .005)"><path fill="#a0a0a0" d="M2.43 1h145.14v74.7H2.43z"/><path fill="#666767" d="M142.26 72.27H7.73V4.43h134.53zM8.83 71.17h132.33V5.53H8.83z"/><path fill="#a0a0a0" d="M.01 0h7.73v5.31H.01z"/><path fill="#666767" d="M2.43 5.31h5.3v1h-5.3zM7.74 1h1v3.43h-1z"/><circle cx="3.87" cy="2.66" r="1.42" fill="#666767"/><path fill="#a0a0a0" d="M0 71.27h7.73v5.31H0z"/><path fill="#666767" d="M2.42 70.65h5.3v1h-5.3zm5.31 1.61h1v3.43h-1z"/><circle cx="3.86" cy="73.92" r="1.42" fill="#666767"/><path fill="#a0a0a0" d="M150 76.59h-7.73v-5.31H150z"/><path fill="#666767" d="M147.58 71.28h-5.3v-1h5.3zM142.27 75.7h-1v-3.43h1z"/><circle cx="146.14" cy="73.93" r="1.42" fill="#666767"/><path fill="#a0a0a0" d="M149.93 5.43h-7.73V.12h7.73z"/><path fill="#666767" d="M147.51 6.05h-5.3v-1h5.3zM142.21 4.44h-1V1.01h1z"/><circle cx="146.07" cy="2.78" r="1.42" fill="#666767"/><path fill="#666767" d="M15.41 5.31h5.16v65.96h-5.16zm11.16 0h5.16v65.96h-5.16zm11.16 0h5.16v65.96h-5.16zm11.17 0h5.16v65.96H48.9zm11.16 0h5.16v65.96h-5.16zm11.16 0h5.16v65.96h-5.16zm11.16 0h5.16v65.96h-5.16zm11.17 0h5.16v65.96h-5.16zm11.16 0h5.16v65.96h-5.16zm11.16 0h5.16v65.96h-5.16zm11.16 0h5.16v65.96h-5.16zM49.72 72.27h9.43v3.43h-9.43zm48.99-.06h9.43v3.43h-9.43z"/></g></svg>