<svg xmlns="http://www.w3.org/2000/svg" viewBox="0 0 151 49"><title>tanker(油罐车)</title><defs><linearGradient id="a" x1="0%" x2="100.103%" y1="50%" y2="50%"><stop offset="0%" stop-color="#b7b7b8"/><stop offset="3%" stop-color="#9c9e9e"/><stop offset="7%" stop-color="#888b8b"/><stop offset="9%" stop-color="#818484"/><stop offset="20%" stop-color="#a3a5a5"/><stop offset="49%" stop-color="#f6f6f6"/><stop offset="61%" stop-color="#f3f3f3"/><stop offset="70%" stop-color="#eaeaea"/><stop offset="77%" stop-color="#dbdbdb"/><stop offset="83%" stop-color="#c5c6c6"/><stop offset="90%" stop-color="#aaa"/><stop offset="95%" stop-color="#888989"/><stop offset="100%" stop-color="#666767"/></linearGradient><linearGradient id="b" x1="49.995%" x2="49.995%" y1="100%" y2="0%"><stop offset="0%" stop-color="#b7b7b8"/><stop offset="3%" stop-color="#9c9e9e"/><stop offset="7%" stop-color="#888b8b"/><stop offset="9%" stop-color="#818484"/><stop offset="20%" stop-color="#a3a5a5"/><stop offset="49%" stop-color="#f6f6f6"/><stop offset="61%" stop-color="#f3f3f3"/><stop offset="70%" stop-color="#eaeaea"/><stop offset="77%" stop-color="#dbdbdb"/><stop offset="83%" stop-color="#c5c6c6"/><stop offset="90%" stop-color="#aaa"/><stop offset="95%" stop-color="#888989"/><stop offset="100%" stop-color="#666767"/></linearGradient><linearGradient id="c" x1="0%" x2="100%" y1="50%" y2="50%"><stop offset="0%" stop-color="#b7b7b8"/><stop offset="3%" stop-color="#9c9e9e"/><stop offset="7%" stop-color="#888b8b"/><stop offset="9%" stop-color="#818484"/><stop offset="20%" stop-color="#a3a5a5"/><stop offset="49%" stop-color="#f6f6f6"/><stop offset="61%" stop-color="#f3f3f3"/><stop offset="70%" stop-color="#eaeaea"/><stop offset="77%" stop-color="#dbdbdb"/><stop offset="83%" stop-color="#c5c6c6"/><stop offset="90%" stop-color="#aaa"/><stop offset="95%" stop-color="#888989"/><stop offset="100%" stop-color="#666767"/></linearGradient><linearGradient id="d" x1="49.351%" x2="49.351%" y1="100%" y2="0%"><stop offset="0%" stop-color="#b7b7b8"/><stop offset="3%" stop-color="#9c9e9e"/><stop offset="7%" stop-color="#888b8b"/><stop offset="9%" stop-color="#818484"/><stop offset="20%" stop-color="#a3a5a5"/><stop offset="49%" stop-color="#f6f6f6"/><stop offset="61%" stop-color="#f3f3f3"/><stop offset="70%" stop-color="#eaeaea"/><stop offset="77%" stop-color="#dbdbdb"/><stop offset="83%" stop-color="#c5c6c6"/><stop offset="90%" stop-color="#aaa"/><stop offset="95%" stop-color="#888989"/><stop offset="100%" stop-color="#666767"/></linearGradient><linearGradient id="e" x1="50.649%" x2="50.649%" y1="100%" y2="0%"><stop offset="0%" stop-color="#b7b7b8"/><stop offset="3%" stop-color="#9c9e9e"/><stop offset="7%" stop-color="#888b8b"/><stop offset="9%" stop-color="#818484"/><stop offset="20%" stop-color="#a3a5a5"/><stop offset="49%" stop-color="#f6f6f6"/><stop offset="61%" stop-color="#f3f3f3"/><stop offset="70%" stop-color="#eaeaea"/><stop offset="77%" stop-color="#dbdbdb"/><stop offset="83%" stop-color="#c5c6c6"/><stop offset="90%" stop-color="#aaa"/><stop offset="95%" stop-color="#888989"/><stop offset="100%" stop-color="#666767"/></linearGradient></defs><g fill="none" fill-rule="evenodd" transform="translate(.036 .005)"><circle cx="12.69" cy="37.58" r="8.92" fill="#a0a0a0" fill-rule="nonzero"/><circle cx="12.69" cy="37.58" r="7.88" fill="#666767" fill-rule="nonzero"/><circle cx="12.69" cy="37.58" r="4.87" fill="url(#a)" fill-rule="nonzero"/><circle cx="12.69" cy="37.58" r="2.04" fill="#a0a0a0" fill-rule="nonzero"/><path fill="#dadae0" fill-rule="nonzero" d="M31.27 0 24 12.78 7 16.44a7 7 0 0 0-5.36 5.43L0 29.84v6.3h2.58a10.21 10.21 0 0 1 20.22 0h27.63V0z"/><path fill="#a0a0a0" fill-rule="nonzero" d="M32.8 15.28h-5.45A1.59 1.59 0 0 1 26 12.91l6.12-11.12c.29-.497.825-.8 1.4-.79h2.11a1.6 1.6 0 0 1 1.55 2l-2.83 11.08a1.61 1.61 0 0 1-1.55 1.2m12.55 0h-7.81a1.78 1.78 0 0 1-1.72-2.18l2.37-10.73A1.76 1.76 0 0 1 39.91 1h5.44a1.78 1.78 0 0 1 1.76 1.79v10.7a1.78 1.78 0 0 1-1.76 1.79"/><path stroke="#afafaf" stroke-width=".5" d="M48 0v36.14M24.02 29.7h23.97v1.06H24.02zm0 4.78h23.97v1.06H24.02z"/><path fill="#afafaf" fill-rule="nonzero" d="M24.02 31.33h23.97v2.75H24.02z"/><circle cx="45.83" cy="17.3" r="1.01" fill="#afafaf" fill-rule="nonzero"/><circle cx="45.83" cy="28.36" r="1.01" fill="#afafaf" fill-rule="nonzero"/><rect width="1.24" height="12.03" x="45.21" y="16.76" fill="#bcbcbc" fill-rule="nonzero" rx=".58"/><path fill="#dadae0" fill-rule="nonzero" d="M24.02 40.89h-.61l-1.8-14.07 2.41-.33z"/><path stroke="#afafaf" stroke-width=".5" d="M24.02 12.76v23.38"/><path fill="#a0a0a0" fill-rule="nonzero" d="M0 29.99h2.3v4.09H0zm24.29-13h4.25v1.83h-4.25zm26.14-9.41h3.74V29.7h-3.74z"/><circle cx="114.15" cy="39.61" r="8.92" fill="#a0a0a0" fill-rule="nonzero"/><circle cx="114.15" cy="39.61" r="7.88" fill="#666767" fill-rule="nonzero"/><circle cx="114.15" cy="39.61" r="4.87" fill="url(#a)" fill-rule="nonzero"/><circle cx="114.15" cy="39.61" r="2.04" fill="#a0a0a0" fill-rule="nonzero"/><circle cx="134.18" cy="39.61" r="8.92" fill="#a0a0a0" fill-rule="nonzero"/><path fill="url(#b)" fill-rule="nonzero" d="M134.18 29.7a9.9 9.9 0 0 1 6.69 2.61 35.5 35.5 0 0 0-1.37-27.92H55.81l-.57 1.44a38.06 38.06 0 0 0 0 28.27l.57 1.44h49.31a9.9 9.9 0 0 1 18.06 0h2a9.9 9.9 0 0 1 9-5.84"/><circle cx="134.18" cy="39.61" r="7.88" fill="#666767" fill-rule="nonzero"/><circle cx="134.18" cy="39.61" r="4.87" fill="url(#c)" fill-rule="nonzero"/><circle cx="134.18" cy="39.61" r="2.04" fill="#a0a0a0" fill-rule="nonzero"/><path fill="url(#d)" fill-rule="nonzero" d="M58.9 4.39h1V29.7h-1z"/><path fill="url(#d)" fill-rule="nonzero" d="M65.88 4.39h1V29.7h-1z"/><path fill="url(#d)" fill-rule="nonzero" d="M72.86 4.39h1V29.7h-1z"/><path fill="url(#e)" fill-rule="nonzero" d="M79.83 4.39h1V29.7h-1z"/><path fill="url(#e)" fill-rule="nonzero" d="M86.81 4.39h1V29.7h-1z"/><path fill="url(#d)" fill-rule="nonzero" d="M93.79 4.39h1V29.7h-1z"/><path fill="url(#d)" fill-rule="nonzero" d="M100.77 4.39h1V29.7h-1z"/><path fill="url(#d)" fill-rule="nonzero" d="M107.75 4.39h1V29.7h-1z"/><path fill="url(#d)" fill-rule="nonzero" d="M114.73 4.39h1V29.7h-1z"/><path fill="url(#d)" fill-rule="nonzero" d="M121.71 4.39h1V29.7h-1z"/><path fill="url(#d)" fill-rule="nonzero" d="M128.69 4.39h1V29.7h-1z"/><path fill="url(#e)" fill-rule="nonzero" d="M135.66 4.39h1V29.7h-1z"/><path fill="#dadae0" fill-rule="nonzero" d="M50.43 36.14h54.45a9.9 9.9 0 0 1 9.27-6.44H50.43zm83.75-6.44a9.9 9.9 0 0 1 9.27 6.44H150V29.7zm-10.75 6.44h1.48a9.89 9.89 0 0 1 9.27-6.44h-20a9.91 9.91 0 0 1 9.25 6.44"/></g></svg>