<svg xmlns="http://www.w3.org/2000/svg" xml:space="preserve" id="图层_1" x="0" y="0" viewBox="0 0 25 12.5"><style>.st0{fill:none;stroke:#fff;stroke-miterlimit:10}</style><path d="M1.7 4.2h4.2m13.3 0h4.2M11.4 1l1.1 1.1-1.1 1.1M12.7 1l1.1 1.1-1.1 1.1m-8.9 1v7.3h8.8" class="st0"/><path d="m11.4 10.3 1.1 1.1-1.1 1.1m1.3-2.2 1.1 1.1-1.1 1.1m1.1-1.1h7.5V4.2m-7.5-2.1H25m-25 0h12.5m-6.7 0c0 1.2-.9 2.1-2.1 2.1s-2.1-.9-2.1-2.1C1.7.9 2.6 0 3.7 0c1.2 0 2.1.9 2.1 2.1" class="st0"/><path d="M23.3 2.1c0 1.2-.9 2.1-2.1 2.1s-2.1-.9-2.1-2.1 1-2.1 2.1-2.1c1.2 0 2.1.9 2.1 2.1" class="st0"/></svg>