<svg xmlns="http://www.w3.org/2000/svg" xml:space="preserve" id="图层_1" x="0" y="0" viewBox="0 0 23.5 25"><style>.st0{fill:none;stroke:#fff;stroke-miterlimit:10}</style><path d="M5.9 23.5H0V0h23.5v23.5H8.8m-8.8 0L23.5 0" class="st0"/><path d="m16.2 22.1 1.5 1.5-1.5 1.4M5.5 5.5l6.3 6.3m-8.1 3.7 2.1 2.2m-2.9-5.9 4.4 4.4m-4-7 5.5 5.5M4.2 7.2l6.1 6.1m-3.1-9 6 6m-1.4-7.4 4.4 4.4m-.6-3.5 2.1 2.1M9.2 3.4l5.5 5.4m5.9 3c0 4.9-3.9 8.8-8.8 8.8S3 16.7 3 11.8 6.9 3 11.8 3c4.8-.1 8.8 3.9 8.8 8.8" class="st0"/></svg>