<svg xmlns="http://www.w3.org/2000/svg" xml:space="preserve" viewBox="0 0 25 25"><path d="M12.5 0v25M7.2 15c-1.4 0-2.5-1.1-2.5-2.5S5.8 10 7.2 10h10.6c1.4 0 2.5 1.1 2.5 2.5S19.2 15 17.8 15zM2.5 1.2c0 .7-.6 1.3-1.2 1.3S0 1.9 0 1.3.6 0 1.2 0c.7 0 1.3.6 1.3 1.2m22.5 0c0 .7-.6 1.2-1.3 1.2s-1.2-.6-1.2-1.3.6-1.1 1.3-1.1c.6 0 1.2.6 1.2 1.2m0 22.6c0 .7-.6 1.2-1.3 1.2s-1.2-.6-1.2-1.3.6-1.2 1.3-1.2c.6 0 1.2.6 1.2 1.3m-22.5 0c0 .7-.6 1.3-1.2 1.3C.6 25 0 24.4 0 23.8c0-.7.6-1.3 1.2-1.3.7 0 1.3.6 1.3 1.3" style="fill:none;stroke:#fff;stroke-miterlimit:10"/></svg>