<svg xmlns="http://www.w3.org/2000/svg" xml:space="preserve" id="图层_1" x="0" y="0" viewBox="0 0 25 7.1"><style>.st0{fill:none;stroke:#fff;stroke-miterlimit:10}</style><path d="M9.2 0h1.6v5.4H9.2zM1.1 2.2c0 .3-.2.5-.5.5S0 2.5 0 2.2s.2-.5.5-.5c.3-.1.6.2.6.5m6.5 0L6.5 3.3 5.4 2.2H1.1m16.3 0 1.1 1.1 1.1-1.1h4.3" class="st0"/><path d="M2.2 2.4v4.7h20.7V2.4" class="st0"/><path d="M14.1 0h1.6v5.4h-1.6zM25 2.2c0 .3-.2.5-.5.5s-.5-.2-.5-.5.2-.5.5-.5c.3-.1.5.2.5.5m-22.8.1-.6 1.1h1.1zm20.6 0-.5 1.1h1.1zM0 0" class="st0"/></svg>