<svg xmlns="http://www.w3.org/2000/svg" xml:space="preserve" id="图层_1" x="0" y="0" viewBox="0 0 12.5 25"><style>.st0{fill:none;stroke:#fff;stroke-miterlimit:10}</style><path d="M0 0h12.5v25H0zm0 12.5h12.5M0 6.2h12.5M0 18.8h12.5" class="st0"/><path d="M7.1 3.1c0 .5-.4.9-.8.9-.5 0-.9-.4-.9-.9s.4-.8.8-.8c.5 0 .9.4.9.8m0 6.3c0 .5-.4.8-.8.8-.5 0-.8-.4-.8-.8 0-.5.4-.8.8-.8.4-.1.8.3.8.8m0 6.2c0 .5-.4.8-.8.8s-.8-.4-.8-.8c0-.5.4-.8.8-.8s.8.4.8.8m0 6.3c0 .5-.4.8-.8.8s-.8-.4-.8-.8c0-.5.4-.8.8-.8.4-.1.8.3.8.8" class="st0"/></svg>