<svg xmlns="http://www.w3.org/2000/svg" viewBox="0 0 95 151"><title>Glass lined tank（搪玻璃罐）</title><defs><linearGradient id="a" x1="0%" x2="100%" y1="50%" y2="50%"><stop offset="0%" stop-color="#e2e2e2"/><stop offset="3%" stop-color="#d0d0d0"/><stop offset="6%" stop-color="#bcbcbc"/><stop offset="9%" stop-color="#b5b5b5"/><stop offset="49%" stop-color="#f6f6f6"/><stop offset="63%" stop-color="#f3f3f3"/><stop offset="73%" stop-color="#eaeaea"/><stop offset="82%" stop-color="#dbdbdb"/><stop offset="90%" stop-color="#c6c6c6"/><stop offset="97%" stop-color="#aaa"/><stop offset="100%" stop-color="#9b9b9b"/></linearGradient><linearGradient id="b" x1="0%" x2="99.721%" y1="50.213%" y2="50.213%"><stop offset="0%" stop-color="#e2e2e2"/><stop offset="3%" stop-color="#d0d0d0"/><stop offset="6%" stop-color="#bcbcbc"/><stop offset="9%" stop-color="#b5b5b5"/><stop offset="49%" stop-color="#f6f6f6"/><stop offset="63%" stop-color="#f3f3f3"/><stop offset="73%" stop-color="#eaeaea"/><stop offset="82%" stop-color="#dbdbdb"/><stop offset="90%" stop-color="#c6c6c6"/><stop offset="97%" stop-color="#aaa"/><stop offset="100%" stop-color="#9b9b9b"/></linearGradient><linearGradient id="c" x1="0%" x2="100%" y1="50.213%" y2="50.213%"><stop offset="0%" stop-color="#e2e2e2"/><stop offset="3%" stop-color="#d0d0d0"/><stop offset="6%" stop-color="#bcbcbc"/><stop offset="9%" stop-color="#b5b5b5"/><stop offset="49%" stop-color="#f6f6f6"/><stop offset="63%" stop-color="#f3f3f3"/><stop offset="73%" stop-color="#eaeaea"/><stop offset="82%" stop-color="#dbdbdb"/><stop offset="90%" stop-color="#c6c6c6"/><stop offset="97%" stop-color="#aaa"/><stop offset="100%" stop-color="#9b9b9b"/></linearGradient><linearGradient id="d" x1="50%" x2="50%" y1="99.989%" y2="-.011%"><stop offset="0%" stop-color="#e2e2e2"/><stop offset="3%" stop-color="#d0d0d0"/><stop offset="6%" stop-color="#bcbcbc"/><stop offset="9%" stop-color="#b5b5b5"/><stop offset="49%" stop-color="#f6f6f6"/><stop offset="63%" stop-color="#f3f3f3"/><stop offset="73%" stop-color="#eaeaea"/><stop offset="82%" stop-color="#dbdbdb"/><stop offset="90%" stop-color="#c6c6c6"/><stop offset="97%" stop-color="#aaa"/><stop offset="100%" stop-color="#9b9b9b"/></linearGradient><linearGradient id="e" x1="49.838%" x2="49.838%" y1="100.011%" y2="0%"><stop offset="0%" stop-color="#6b6b6b"/><stop offset="11%" stop-color="#767676"/><stop offset="30%" stop-color="#959595"/><stop offset="41%" stop-color="#aaa"/><stop offset="56%" stop-color="#ccc"/><stop offset="71%" stop-color="#eaeaea"/><stop offset="80%" stop-color="#f6f6f6"/><stop offset="83%" stop-color="#ededed"/><stop offset="87%" stop-color="#d4d4d4"/><stop offset="92%" stop-color="#ababab"/><stop offset="98%" stop-color="#737373"/><stop offset="99%" stop-color="#666"/></linearGradient><linearGradient id="f" x1="50.162%" x2="50.162%" y1="100%" y2="0%"><stop offset="0%" stop-color="#6b6b6b"/><stop offset="11%" stop-color="#767676"/><stop offset="30%" stop-color="#959595"/><stop offset="41%" stop-color="#aaa"/><stop offset="56%" stop-color="#ccc"/><stop offset="71%" stop-color="#eaeaea"/><stop offset="80%" stop-color="#f6f6f6"/><stop offset="83%" stop-color="#ededed"/><stop offset="87%" stop-color="#d4d4d4"/><stop offset="92%" stop-color="#ababab"/><stop offset="98%" stop-color="#737373"/><stop offset="99%" stop-color="#666"/></linearGradient><linearGradient id="g" x1="50.431%" x2="50.431%" y1="100%" y2="0%"><stop offset="0%" stop-color="#e2e2e2"/><stop offset="3%" stop-color="#d0d0d0"/><stop offset="6%" stop-color="#bcbcbc"/><stop offset="9%" stop-color="#b5b5b5"/><stop offset="49%" stop-color="#f6f6f6"/><stop offset="63%" stop-color="#f3f3f3"/><stop offset="73%" stop-color="#eaeaea"/><stop offset="82%" stop-color="#dbdbdb"/><stop offset="90%" stop-color="#c6c6c6"/><stop offset="97%" stop-color="#aaa"/><stop offset="100%" stop-color="#9b9b9b"/></linearGradient><linearGradient id="h" x1="50%" x2="50%" y1="100%" y2="0%"><stop offset="0%" stop-color="#e2e2e2"/><stop offset="3%" stop-color="#d0d0d0"/><stop offset="6%" stop-color="#bcbcbc"/><stop offset="9%" stop-color="#b5b5b5"/><stop offset="49%" stop-color="#f6f6f6"/><stop offset="63%" stop-color="#f3f3f3"/><stop offset="73%" stop-color="#eaeaea"/><stop offset="82%" stop-color="#dbdbdb"/><stop offset="90%" stop-color="#c6c6c6"/><stop offset="97%" stop-color="#aaa"/><stop offset="100%" stop-color="#9b9b9b"/></linearGradient><linearGradient id="i" x1="50%" x2="50%" y1="100%" y2="0%"><stop offset="0%" stop-color="#e2e2e2"/><stop offset="3%" stop-color="#d0d0d0"/><stop offset="6%" stop-color="#bcbcbc"/><stop offset="9%" stop-color="#b5b5b5"/><stop offset="49%" stop-color="#f6f6f6"/><stop offset="63%" stop-color="#f3f3f3"/><stop offset="73%" stop-color="#eaeaea"/><stop offset="82%" stop-color="#dbdbdb"/><stop offset="90%" stop-color="#c6c6c6"/><stop offset="97%" stop-color="#aaa"/><stop offset="100%" stop-color="#9b9b9b"/></linearGradient><linearGradient id="j" x1="0%" x2="100%" y1="50.004%" y2="50.004%"><stop offset="0%" stop-color="#e2e2e2"/><stop offset="3%" stop-color="#d0d0d0"/><stop offset="6%" stop-color="#bcbcbc"/><stop offset="9%" stop-color="#b5b5b5"/><stop offset="49%" stop-color="#f6f6f6"/><stop offset="63%" stop-color="#f3f3f3"/><stop offset="73%" stop-color="#eaeaea"/><stop offset="82%" stop-color="#dbdbdb"/><stop offset="90%" stop-color="#c6c6c6"/><stop offset="97%" stop-color="#aaa"/><stop offset="100%" stop-color="#9b9b9b"/></linearGradient><linearGradient id="k" x1="0%" x2="100.667%" y1="50.004%" y2="50.004%"><stop offset="0%" stop-color="#e2e2e2"/><stop offset="3%" stop-color="#d0d0d0"/><stop offset="6%" stop-color="#bcbcbc"/><stop offset="9%" stop-color="#b5b5b5"/><stop offset="49%" stop-color="#f6f6f6"/><stop offset="63%" stop-color="#f3f3f3"/><stop offset="73%" stop-color="#eaeaea"/><stop offset="82%" stop-color="#dbdbdb"/><stop offset="90%" stop-color="#c6c6c6"/><stop offset="97%" stop-color="#aaa"/><stop offset="100%" stop-color="#9b9b9b"/></linearGradient></defs><g fill="none" fill-rule="nonzero" transform="translate(.477 .029)"><path fill="#3d3938" d="M36.16 1.89h21.95v3.85H36.16zM33.06 0H61.2v1.89H33.06z"/><ellipse cx="47.92" cy="13.81" fill="url(#a)" rx="46.13" ry="9.88"/><path fill="#3d3938" d="M4.7 138.64h10.32V150H4.7zm74.76 0h10.32V150H79.46z"/><path fill="url(#b)" d="M1.27 9.78h3.58v2.35H1.27z"/><path fill="url(#b)" d="M12.17 9.78h3.58v2.35h-3.58z"/><path fill="url(#b)" d="M23.4 9.78h3.58v2.35H23.4z"/><path fill="url(#c)" d="M36.8 9.78h3.58v2.35H36.8z"/><path fill="url(#b)" d="M53.65 9.78h3.58v2.35h-3.58z"/><path fill="url(#b)" d="M67.11 9.78h3.58v2.35h-3.58z"/><path fill="url(#b)" d="M78.42 9.78H82v2.35h-3.58z"/><path fill="url(#b)" d="M89.46 9.78h3.58v2.35h-3.58z"/><path fill="#3d3938" d="M1.79 15.22h90.17v120.33H1.79z"/><path fill="url(#d)" d="M46.045-21.495h2.32v90.37h-2.32z" transform="rotate(90 47.205 23.69)"/><path fill="url(#e)" d="M45.51-33.31h3.09v93.99h-3.09z" transform="rotate(90 47.055 13.685)"/><path fill="url(#f)" d="M45.45 90.1h3.09v93.99h-3.09z" transform="rotate(90 46.995 137.095)"/><path fill="url(#g)" d="M46.045-9.725h2.32v90.37h-2.32z" transform="rotate(90 47.205 35.46)"/><path fill="url(#g)" d="M45.615 1.685h2.32v90.37h-2.32z" transform="rotate(90 46.775 46.87)"/><path fill="url(#h)" d="M45.615 13.315h2.32v90.37h-2.32z" transform="rotate(90 46.775 58.5)"/><path fill="url(#g)" d="M45.615 25.085h2.32v90.37h-2.32z" transform="rotate(90 46.775 70.27)"/><path fill="url(#h)" d="M46.045 36.485h2.32v90.37h-2.32z" transform="rotate(90 47.205 81.67)"/><path fill="url(#d)" d="M46.035 48.375h2.32v90.37h-2.32z" transform="rotate(90 47.195 93.56)"/><path fill="url(#h)" d="M46.045 59.845h2.32v90.37h-2.32z" transform="rotate(90 47.205 105.03)"/><path fill="url(#h)" d="M46.045 71.525h2.32v90.37h-2.32z" transform="rotate(90 47.205 116.71)"/><path fill="url(#i)" d="M45.615 82.865h2.32v90.37h-2.32z" transform="rotate(90 46.775 128.05)"/><path fill="url(#j)" d="M1.27 15.22h1.5v120.33h-1.5z"/><path fill="url(#j)" d="M6.39 15.22h1.5v120.33h-1.5z"/><path fill="url(#k)" d="M14.6 15.22h1.5v120.33h-1.5z"/><path fill="url(#j)" d="M24.96 15.22h1.5v120.33h-1.5z"/><path fill="url(#j)" d="M38.17 15.44h1.5v120.33h-1.5z"/><path fill="url(#k)" d="M54.57 15.22h1.5v120.33h-1.5z"/><path fill="url(#k)" d="M68.14 15.44h1.5v120.33h-1.5z"/><path fill="url(#j)" d="M77.96 15.44h1.5v120.33h-1.5z"/><path fill="url(#j)" d="M86.19 15.22h1.5v120.33h-1.5z"/><path fill="url(#j)" d="M91.64 15.22h1.5v120.33h-1.5z"/></g></svg>