<svg xmlns="http://www.w3.org/2000/svg" viewBox="0 0 151 56"><title>Heat exchanger（热交换器）</title><defs><linearGradient id="a" x1="50%" x2="50%" y1="100%" y2="0%"><stop offset="0%" stop-color="#6b6b6b"/><stop offset="11%" stop-color="#767676"/><stop offset="30%" stop-color="#959595"/><stop offset="41%" stop-color="#aaa"/><stop offset="56%" stop-color="#ccc"/><stop offset="71%" stop-color="#eaeaea"/><stop offset="80%" stop-color="#f6f6f6"/><stop offset="83%" stop-color="#ededed"/><stop offset="87%" stop-color="#d4d4d4"/><stop offset="92%" stop-color="#ababab"/><stop offset="98%" stop-color="#737373"/><stop offset="99%" stop-color="#666"/></linearGradient><linearGradient id="b" x1="50%" x2="50%" y1="100%" y2="0%"><stop offset="0%" stop-color="#e2e2e2"/><stop offset="3%" stop-color="#d0d0d0"/><stop offset="6%" stop-color="#bcbcbc"/><stop offset="9%" stop-color="#b5b5b5"/><stop offset="49%" stop-color="#f6f6f6"/><stop offset="63%" stop-color="#f3f3f3"/><stop offset="73%" stop-color="#eaeaea"/><stop offset="82%" stop-color="#dbdbdb"/><stop offset="90%" stop-color="#c6c6c6"/><stop offset="97%" stop-color="#aaa"/><stop offset="100%" stop-color="#9b9b9b"/></linearGradient><linearGradient id="c" x1="0%" x2="100%" y1="50%" y2="50%"><stop offset="0%" stop-color="#e2e2e2"/><stop offset="3%" stop-color="#d0d0d0"/><stop offset="6%" stop-color="#bcbcbc"/><stop offset="9%" stop-color="#b5b5b5"/><stop offset="49%" stop-color="#f6f6f6"/><stop offset="63%" stop-color="#f3f3f3"/><stop offset="73%" stop-color="#eaeaea"/><stop offset="82%" stop-color="#dbdbdb"/><stop offset="90%" stop-color="#c6c6c6"/><stop offset="97%" stop-color="#aaa"/><stop offset="100%" stop-color="#9b9b9b"/></linearGradient><linearGradient id="d" x1="0%" x2="100%" y1="50%" y2="50%"><stop offset="0%" stop-color="#e2e2e2"/><stop offset="3%" stop-color="#d0d0d0"/><stop offset="6%" stop-color="#bcbcbc"/><stop offset="9%" stop-color="#b5b5b5"/><stop offset="49%" stop-color="#f6f6f6"/><stop offset="63%" stop-color="#f3f3f3"/><stop offset="73%" stop-color="#eaeaea"/><stop offset="82%" stop-color="#dbdbdb"/><stop offset="90%" stop-color="#c6c6c6"/><stop offset="97%" stop-color="#aaa"/><stop offset="100%" stop-color="#9b9b9b"/></linearGradient><linearGradient id="e" x1="0%" x2="100.054%" y1="50%" y2="50%"><stop offset="0%" stop-color="#e2e2e2"/><stop offset="3%" stop-color="#d0d0d0"/><stop offset="6%" stop-color="#bcbcbc"/><stop offset="9%" stop-color="#b5b5b5"/><stop offset="49%" stop-color="#f6f6f6"/><stop offset="63%" stop-color="#f3f3f3"/><stop offset="73%" stop-color="#eaeaea"/><stop offset="82%" stop-color="#dbdbdb"/><stop offset="90%" stop-color="#c6c6c6"/><stop offset="97%" stop-color="#aaa"/><stop offset="100%" stop-color="#9b9b9b"/></linearGradient><linearGradient id="f" x1="50%" x2="50%" y1="100.287%" y2="0%"><stop offset="0%" stop-color="#e2e2e2"/><stop offset="3%" stop-color="#d0d0d0"/><stop offset="6%" stop-color="#bcbcbc"/><stop offset="9%" stop-color="#b5b5b5"/><stop offset="49%" stop-color="#f6f6f6"/><stop offset="63%" stop-color="#f3f3f3"/><stop offset="73%" stop-color="#eaeaea"/><stop offset="82%" stop-color="#dbdbdb"/><stop offset="90%" stop-color="#c6c6c6"/><stop offset="97%" stop-color="#aaa"/><stop offset="100%" stop-color="#9b9b9b"/></linearGradient><linearGradient id="g" x1="50%" x2="50%" y1="100%" y2="0%"><stop offset="0%" stop-color="#6b6b6b"/><stop offset="1%" stop-color="#767676"/><stop offset="3%" stop-color="#959595"/><stop offset="4%" stop-color="#aaa"/><stop offset="37%" stop-color="#ccc"/><stop offset="74%" stop-color="#eaeaea"/><stop offset="94%" stop-color="#f6f6f6"/><stop offset="95%" stop-color="#ededed"/><stop offset="96%" stop-color="#d4d4d4"/><stop offset="97%" stop-color="#ababab"/><stop offset="99%" stop-color="#737373"/><stop offset="99%" stop-color="#666"/></linearGradient><linearGradient id="h" x1="50%" x2="50%" y1="100%" y2="0%"><stop offset="0%" stop-color="#e2e2e2"/><stop offset="3%" stop-color="#d0d0d0"/><stop offset="6%" stop-color="#bcbcbc"/><stop offset="9%" stop-color="#b5b5b5"/><stop offset="49%" stop-color="#f6f6f6"/><stop offset="63%" stop-color="#f3f3f3"/><stop offset="73%" stop-color="#eaeaea"/><stop offset="82%" stop-color="#dbdbdb"/><stop offset="90%" stop-color="#c6c6c6"/><stop offset="97%" stop-color="#aaa"/><stop offset="100%" stop-color="#9b9b9b"/></linearGradient></defs><g fill="none" fill-rule="nonzero"><path fill="url(#a)" d="M144.22 11.94H8s-8 .62-8 16.63 8 16.62 8 16.62h136.22s5.7-2.82 5.7-14.74c0-17.96-5.7-18.51-5.7-18.51" transform="translate(.467 .029)"/><path fill="url(#b)" d="M17.25 10.82h10.96v3.48H17.25z" transform="translate(.467 .029)"/><path fill="url(#c)" d="M29.45 0h18.58v3.48H29.45z" transform="translate(.467 .029)"/><path fill="url(#d)" d="M32.07 3.48h13.41v8.18H32.07z" transform="translate(.467 .029)"/><path fill="url(#e)" d="M102.44.2h18.58v3.48h-18.58z" transform="translate(.467 .029)"/><path fill="url(#d)" d="M105.07 3.69h13.41v8.18h-13.41z" transform="translate(.467 .029)"/><path fill="url(#f)" d="M17.25 17.17h10.96v3.48H17.25z" transform="translate(.467 .029)"/><path fill="url(#f)" d="M17.25 23.52h10.96V27H17.25z" transform="translate(.467 .029)"/><path fill="url(#b)" d="M17.25 29.88h10.96v3.48H17.25z" transform="translate(.467 .029)"/><path fill="url(#f)" d="M17.25 36.23h10.96v3.48H17.25z" transform="translate(.467 .029)"/><path fill="url(#f)" d="M17.25 42.58h10.96v3.48H17.25z" transform="translate(.467 .029)"/><path fill="url(#g)" d="M41.78 51.7v-8.02h-9.71v8.02h-.41v3.59h10.6V51.7z" transform="translate(.467 .029)"/><path fill="url(#g)" d="M118.25 51.7v-8.02h-9.7v8.02h-.41v3.59h10.6V51.7z" transform="translate(.467 .029)"/><path fill="url(#h)" d="M20.39 9.95h5.02v36.71h-5.02z" transform="translate(.467 .029)"/><path fill="url(#b)" d="M122.46 10.82h10.96v3.48h-10.96z" transform="translate(.467 .029)"/><path fill="url(#f)" d="M122.46 17.17h10.96v3.48h-10.96z" transform="translate(.467 .029)"/><path fill="url(#f)" d="M122.46 23.52h10.96V27h-10.96z" transform="translate(.467 .029)"/><path fill="url(#b)" d="M122.46 29.88h10.96v3.48h-10.96z" transform="translate(.467 .029)"/><path fill="url(#f)" d="M122.46 36.23h10.96v3.48h-10.96z" transform="translate(.467 .029)"/><path fill="url(#f)" d="M122.46 42.58h10.96v3.48h-10.96z" transform="translate(.467 .029)"/><path fill="url(#h)" d="M125.6 9.95h5.02v36.71h-5.02z" transform="translate(.467 .029)"/></g></svg>