<svg xmlns="http://www.w3.org/2000/svg" viewBox="0 0 108 151"><title>Large cone-bottom polyethylene tank（大锥底聚乙烯罐）</title><defs><linearGradient id="a" x1="-.01%" x2="99.99%" y1="50%" y2="50%"><stop offset="0%" stop-color="#e2e2e2"/><stop offset="3%" stop-color="#d0d0d0"/><stop offset="6%" stop-color="#bcbcbc"/><stop offset="9%" stop-color="#b5b5b5"/><stop offset="49%" stop-color="#f6f6f6"/><stop offset="63%" stop-color="#f3f3f3"/><stop offset="73%" stop-color="#eaeaea"/><stop offset="82%" stop-color="#dbdbdb"/><stop offset="90%" stop-color="#c6c6c6"/><stop offset="97%" stop-color="#aaa"/><stop offset="100%" stop-color="#9b9b9b"/></linearGradient><linearGradient id="b" x1="0%" x2="100%" y1="-59.574%" y2="-59.574%"><stop offset="0%" stop-color="#6b6b6b"/><stop offset="11%" stop-color="#767676"/><stop offset="30%" stop-color="#959595"/><stop offset="41%" stop-color="#aaa"/><stop offset="56%" stop-color="#ccc"/><stop offset="71%" stop-color="#eaeaea"/><stop offset="80%" stop-color="#f6f6f6"/><stop offset="83%" stop-color="#ededed"/><stop offset="87%" stop-color="#d4d4d4"/><stop offset="92%" stop-color="#ababab"/><stop offset="98%" stop-color="#737373"/><stop offset="99%" stop-color="#666"/></linearGradient><linearGradient id="c" x1="0%" x2="100.01%" y1="8432.5%" y2="8432.5%"><stop offset="0%" stop-color="#6b6b6b"/><stop offset="11%" stop-color="#767676"/><stop offset="30%" stop-color="#959595"/><stop offset="41%" stop-color="#aaa"/><stop offset="56%" stop-color="#ccc"/><stop offset="71%" stop-color="#eaeaea"/><stop offset="80%" stop-color="#f6f6f6"/><stop offset="83%" stop-color="#ededed"/><stop offset="87%" stop-color="#d4d4d4"/><stop offset="92%" stop-color="#ababab"/><stop offset="98%" stop-color="#737373"/><stop offset="99%" stop-color="#666"/></linearGradient><linearGradient id="d" x1="0%" x2="100%" y1="7194.658%" y2="7194.658%"><stop offset="0%" stop-color="#6b6b6b"/><stop offset="11%" stop-color="#767676"/><stop offset="30%" stop-color="#959595"/><stop offset="41%" stop-color="#aaa"/><stop offset="56%" stop-color="#ccc"/><stop offset="71%" stop-color="#eaeaea"/><stop offset="80%" stop-color="#f6f6f6"/><stop offset="83%" stop-color="#ededed"/><stop offset="87%" stop-color="#d4d4d4"/><stop offset="92%" stop-color="#ababab"/><stop offset="98%" stop-color="#737373"/><stop offset="99%" stop-color="#666"/></linearGradient></defs><g fill="none" fill-rule="nonzero"><path fill="url(#a)" d="M106.25 116.76V13S96 0 53.74 0 1.24 13 1.24 13v103.76s8.76 13.5 52.5 13.07c46.08-.45 52.51-13.07 52.51-13.07" transform="translate(.467 .029)"/><path fill="url(#b)" d="M1.24 17.22h105.01v1.88H1.24z" transform="translate(.467 .029)"/><path fill="url(#c)" d="M.87 144.4h105.08v5.6H.87z" transform="translate(.467 .029)"/><path fill="#a0a0a0" d="M8.897 144.429v-33.41h7.19v33.41z"/><path fill="#a0a0a0" d="m52.19 137.877-40.097-23.15 2.475-4.286 40.097 23.15z"/><path fill="#a0a0a0" d="m53.292 133.96 40.274-24.17 2.548 4.244-40.274 24.17z"/><path fill="#a0a0a0" d="M49.967 144.429v-33.41h7.19v33.41zM92.617 144.429v-33.41h7.19v33.41z"/><path fill="url(#d)" d="M0 103.69h107.22v7.3H0z" transform="translate(.467 .029)"/></g></svg>