<svg xmlns="http://www.w3.org/2000/svg" viewBox="0 0 151 59"><title>Pond（池塘）</title><g fill="none" fill-rule="nonzero"><path fill="#e2e2e2" d="M.467.029h150v58.86h-150z"/><path fill="#a2d8ee" d="m3.537 1.209.69 12.41a24.5 24.5 0 0 0 15 21.2 32.6 32.6 0 0 1 4.56 2.13l18.62 11.25a49.26 49.26 0 0 0 35.49 6.51l8.65-1.68 22.67-3.41a31.15 31.15 0 0 0 23.33-17l4-8.17 6.87-10a22.5 22.5 0 0 0 3.86-10.61l.26-2.6z"/><path fill="#b6e1f3" d="m6.467.659.66 11.54a22.81 22.81 0 0 0 14.39 19.71 30 30 0 0 1 4.36 2l17.87 10.42a48.53 48.53 0 0 0 34.06 6.05l8.29-1.57 21.77-3.17a29.87 29.87 0 0 0 22.39-15.83l3.88-7.6 5.43-7.64a28.2 28.2 0 0 0 5.08-13.54v-.37z"/><path fill="#fff" d="M23.157 36.339c-.09-.5.94-1.25 1.39-1.49 1.08-.56 4.41-.65 4.85.48.33.88-1.64 3-2.55 2.79-.61-.17-1.2-1.62-1.82-1.76-.39-.09-.76.4-1.15.46a.88.88 0 0 1-.72-.48m63.72 15a4.5 4.5 0 0 1-.41-1.63c0-.71.76-1.27 1.49-.24.57.8 1.25 3.16.88 3.06s-1.19-1.39-1.42-1.44 0 .5 0 .61-.41-.16-.54-.36m-42.75-4.13a2 2 0 0 0 2.16-.11s.64-.76.91-.66.12 1.26.35 1.6h.07a3.75 3.75 0 0 0 2.66 0s.52-.36.67-.26.26.86.19 1.47a3.1 3.1 0 0 1-.56 1.78s-.6.8-.86.8-1.25-.92-1.25-.92a1.67 1.67 0 0 0-2.49-.28.38.38 0 0 1-.44 0l-1.45-1.16a2.1 2.1 0 0 1-.9-1.38s0-1.09.26-1.25.68.37.68.37m52.87.29c0 .9-1.19 1.63-2.66 1.63-.55 0-.71-.83-1.14-1-.7-.29-1.51-.06-1.51-.62 0-.9 1.19-1.63 2.65-1.63.85 0 1.09 1.09 1.57 1.46s1.09-.22 1.09.16m30.97-7c0 .9-.73 0-2.68 0-.75 0-1-.82-1.53-1-.93-.29-2-.07-2-.62 0-.9.39-2.85 2.34-2.85 1.13 0 2.65 2.3 3.3 2.68.46.32.57 1.41.57 1.79m-18.84 9.71c0 .63-.2 0-.72 0-.2 0-.26-.57-.41-.69s-.54-.05-.54-.44c0-.63.1-2 .62-2 .31 0 .72 1.6.89 1.86a3.9 3.9 0 0 1 .16 1.27m-43.91 3.89c-.89 1.22-3.8.59-5.13-.39s-.57-1.93.33-3.15 1.56 1.93 2.89 2.91 2.81-.58 1.91.63m-27.93-9.07c-1.48-.32-2.47-1.5-2.35-2.06s1.31-.28 2.79 0-.79.68-.91 1.23 1.94 1.15.47.83"/></g></svg>