<svg xmlns="http://www.w3.org/2000/svg" viewBox="0 0 66 150"><title>Silo with spiral ladder（螺旋梯筒仓）</title><defs><linearGradient id="a" x1="100.018%" x2=".018%" y1="50%" y2="50%"><stop offset="0%" stop-color="#e2e2e2"/><stop offset="3%" stop-color="#d0d0d0"/><stop offset="6%" stop-color="#bcbcbc"/><stop offset="9%" stop-color="#b5b5b5"/><stop offset="49%" stop-color="#f6f6f6"/><stop offset="63%" stop-color="#f3f3f3"/><stop offset="73%" stop-color="#eaeaea"/><stop offset="82%" stop-color="#dbdbdb"/><stop offset="90%" stop-color="#c6c6c6"/><stop offset="97%" stop-color="#aaa"/><stop offset="100%" stop-color="#9b9b9b"/></linearGradient><linearGradient id="b" x1="100.017%" x2=".017%" y1="49.708%" y2="49.708%"><stop offset="0%" stop-color="#6b6b6b"/><stop offset="11%" stop-color="#767676"/><stop offset="30%" stop-color="#959595"/><stop offset="41%" stop-color="#aaa"/><stop offset="56%" stop-color="#ccc"/><stop offset="71%" stop-color="#eaeaea"/><stop offset="80%" stop-color="#f6f6f6"/><stop offset="83%" stop-color="#ededed"/><stop offset="87%" stop-color="#d4d4d4"/><stop offset="92%" stop-color="#ababab"/><stop offset="98%" stop-color="#737373"/><stop offset="99%" stop-color="#666"/></linearGradient><linearGradient id="c" x1="99.982%" x2="-.018%" y1="50%" y2="50%"><stop offset="0%" stop-color="#e2e2e2"/><stop offset="3%" stop-color="#d0d0d0"/><stop offset="6%" stop-color="#bcbcbc"/><stop offset="9%" stop-color="#b5b5b5"/><stop offset="49%" stop-color="#f6f6f6"/><stop offset="63%" stop-color="#f3f3f3"/><stop offset="73%" stop-color="#eaeaea"/><stop offset="82%" stop-color="#dbdbdb"/><stop offset="90%" stop-color="#c6c6c6"/><stop offset="97%" stop-color="#aaa"/><stop offset="100%" stop-color="#9b9b9b"/></linearGradient><linearGradient id="d" x1="0%" x2="100%" y1="50.046%" y2="50.046%"><stop offset="0%" stop-color="#e2e2e2"/><stop offset="3%" stop-color="#d0d0d0"/><stop offset="6%" stop-color="#bcbcbc"/><stop offset="9%" stop-color="#b5b5b5"/><stop offset="49%" stop-color="#f6f6f6"/><stop offset="63%" stop-color="#f3f3f3"/><stop offset="73%" stop-color="#eaeaea"/><stop offset="82%" stop-color="#dbdbdb"/><stop offset="90%" stop-color="#c6c6c6"/><stop offset="97%" stop-color="#aaa"/><stop offset="100%" stop-color="#9b9b9b"/></linearGradient><linearGradient id="e" x1="99.983%" x2="-.017%" y1="49.708%" y2="49.708%"><stop offset="0%" stop-color="#6b6b6b"/><stop offset="11%" stop-color="#767676"/><stop offset="30%" stop-color="#959595"/><stop offset="41%" stop-color="#aaa"/><stop offset="56%" stop-color="#ccc"/><stop offset="71%" stop-color="#eaeaea"/><stop offset="80%" stop-color="#f6f6f6"/><stop offset="83%" stop-color="#ededed"/><stop offset="87%" stop-color="#d4d4d4"/><stop offset="92%" stop-color="#ababab"/><stop offset="98%" stop-color="#737373"/><stop offset="99%" stop-color="#666"/></linearGradient><linearGradient id="f" x1="100%" x2="0%" y1="50%" y2="50%"><stop offset="0%" stop-color="#6b6b6b"/><stop offset="11%" stop-color="#767676"/><stop offset="30%" stop-color="#959595"/><stop offset="41%" stop-color="#aaa"/><stop offset="56%" stop-color="#ccc"/><stop offset="71%" stop-color="#eaeaea"/><stop offset="80%" stop-color="#f6f6f6"/><stop offset="83%" stop-color="#ededed"/><stop offset="87%" stop-color="#d4d4d4"/><stop offset="92%" stop-color="#ababab"/><stop offset="98%" stop-color="#737373"/><stop offset="99%" stop-color="#666"/></linearGradient><linearGradient id="g" x1="26.471%" x2="100.98%" y1="50%" y2="50%"><stop offset="0%" stop-color="#6b6b6b"/><stop offset="11%" stop-color="#767676"/><stop offset="30%" stop-color="#959595"/><stop offset="41%" stop-color="#aaa"/><stop offset="56%" stop-color="#ccc"/><stop offset="71%" stop-color="#eaeaea"/><stop offset="80%" stop-color="#f6f6f6"/><stop offset="83%" stop-color="#ededed"/><stop offset="87%" stop-color="#d4d4d4"/><stop offset="92%" stop-color="#ababab"/><stop offset="98%" stop-color="#737373"/><stop offset="99%" stop-color="#666"/></linearGradient><linearGradient id="h" x1="26.471%" x2="101.961%" y1="49.838%" y2="49.838%"><stop offset="0%" stop-color="#6b6b6b"/><stop offset="11%" stop-color="#767676"/><stop offset="30%" stop-color="#959595"/><stop offset="41%" stop-color="#aaa"/><stop offset="56%" stop-color="#ccc"/><stop offset="71%" stop-color="#eaeaea"/><stop offset="80%" stop-color="#f6f6f6"/><stop offset="83%" stop-color="#ededed"/><stop offset="87%" stop-color="#d4d4d4"/><stop offset="92%" stop-color="#ababab"/><stop offset="98%" stop-color="#737373"/><stop offset="99%" stop-color="#666"/></linearGradient><linearGradient id="i" x1="26.471%" x2="101.961%" y1="50%" y2="50%"><stop offset="0%" stop-color="#6b6b6b"/><stop offset="11%" stop-color="#767676"/><stop offset="30%" stop-color="#959595"/><stop offset="41%" stop-color="#aaa"/><stop offset="56%" stop-color="#ccc"/><stop offset="71%" stop-color="#eaeaea"/><stop offset="80%" stop-color="#f6f6f6"/><stop offset="83%" stop-color="#ededed"/><stop offset="87%" stop-color="#d4d4d4"/><stop offset="92%" stop-color="#ababab"/><stop offset="98%" stop-color="#737373"/><stop offset="99%" stop-color="#666"/></linearGradient><linearGradient id="j" x1=".307%" x2=".307%" y1="27.685%" y2="103.038%"><stop offset="0%" stop-color="#6b6b6b"/><stop offset="11%" stop-color="#767676"/><stop offset="30%" stop-color="#959595"/><stop offset="41%" stop-color="#aaa"/><stop offset="56%" stop-color="#ccc"/><stop offset="71%" stop-color="#eaeaea"/><stop offset="80%" stop-color="#f6f6f6"/><stop offset="83%" stop-color="#ededed"/><stop offset="87%" stop-color="#d4d4d4"/><stop offset="92%" stop-color="#ababab"/><stop offset="98%" stop-color="#737373"/><stop offset="99%" stop-color="#666"/></linearGradient><linearGradient id="k" x1="642.52%" x2="642.52%" y1="27.674%" y2="103.026%"><stop offset="0%" stop-color="#6b6b6b"/><stop offset="11%" stop-color="#767676"/><stop offset="30%" stop-color="#959595"/><stop offset="41%" stop-color="#aaa"/><stop offset="56%" stop-color="#ccc"/><stop offset="71%" stop-color="#eaeaea"/><stop offset="80%" stop-color="#f6f6f6"/><stop offset="83%" stop-color="#ededed"/><stop offset="87%" stop-color="#d4d4d4"/><stop offset="92%" stop-color="#ababab"/><stop offset="98%" stop-color="#737373"/><stop offset="99%" stop-color="#666"/></linearGradient><linearGradient id="l" x1="-4.73%" x2="-4.73%" y1="27.62%" y2="102.995%"><stop offset="0%" stop-color="#6b6b6b"/><stop offset="11%" stop-color="#767676"/><stop offset="30%" stop-color="#959595"/><stop offset="41%" stop-color="#aaa"/><stop offset="56%" stop-color="#ccc"/><stop offset="71%" stop-color="#eaeaea"/><stop offset="80%" stop-color="#f6f6f6"/><stop offset="83%" stop-color="#ededed"/><stop offset="87%" stop-color="#d4d4d4"/><stop offset="92%" stop-color="#ababab"/><stop offset="98%" stop-color="#737373"/><stop offset="99%" stop-color="#666"/></linearGradient><linearGradient id="m" x1="727.8%" x2="727.8%" y1="27.63%" y2="102.983%"><stop offset="0%" stop-color="#6b6b6b"/><stop offset="11%" stop-color="#767676"/><stop offset="30%" stop-color="#959595"/><stop offset="41%" stop-color="#aaa"/><stop offset="56%" stop-color="#ccc"/><stop offset="71%" stop-color="#eaeaea"/><stop offset="80%" stop-color="#f6f6f6"/><stop offset="83%" stop-color="#ededed"/><stop offset="87%" stop-color="#d4d4d4"/><stop offset="92%" stop-color="#ababab"/><stop offset="98%" stop-color="#737373"/><stop offset="99%" stop-color="#666"/></linearGradient><linearGradient id="n" x1="26.471%" x2="100.98%" y1="49.838%" y2="49.838%"><stop offset="0%" stop-color="#6b6b6b"/><stop offset="11%" stop-color="#767676"/><stop offset="30%" stop-color="#959595"/><stop offset="41%" stop-color="#aaa"/><stop offset="56%" stop-color="#ccc"/><stop offset="71%" stop-color="#eaeaea"/><stop offset="80%" stop-color="#f6f6f6"/><stop offset="83%" stop-color="#ededed"/><stop offset="87%" stop-color="#d4d4d4"/><stop offset="92%" stop-color="#ababab"/><stop offset="98%" stop-color="#737373"/><stop offset="99%" stop-color="#666"/></linearGradient><linearGradient id="o" x1="5.122%" x2="5.122%" y1="27.732%" y2="103.085%"><stop offset="0%" stop-color="#6b6b6b"/><stop offset="11%" stop-color="#767676"/><stop offset="30%" stop-color="#959595"/><stop offset="41%" stop-color="#aaa"/><stop offset="56%" stop-color="#ccc"/><stop offset="71%" stop-color="#eaeaea"/><stop offset="80%" stop-color="#f6f6f6"/><stop offset="83%" stop-color="#ededed"/><stop offset="87%" stop-color="#d4d4d4"/><stop offset="92%" stop-color="#ababab"/><stop offset="98%" stop-color="#737373"/><stop offset="99%" stop-color="#666"/></linearGradient><linearGradient id="p" x1="556.8%" x2="556.8%" y1="27.742%" y2="103.095%"><stop offset="0%" stop-color="#6b6b6b"/><stop offset="11%" stop-color="#767676"/><stop offset="30%" stop-color="#959595"/><stop offset="41%" stop-color="#aaa"/><stop offset="56%" stop-color="#ccc"/><stop offset="71%" stop-color="#eaeaea"/><stop offset="80%" stop-color="#f6f6f6"/><stop offset="83%" stop-color="#ededed"/><stop offset="87%" stop-color="#d4d4d4"/><stop offset="92%" stop-color="#ababab"/><stop offset="98%" stop-color="#737373"/><stop offset="99%" stop-color="#666"/></linearGradient><linearGradient id="q" x1="100%" x2="0%" y1="50.151%" y2="50.151%"><stop offset="0%" stop-color="#6b6b6b"/><stop offset="11%" stop-color="#767676"/><stop offset="30%" stop-color="#959595"/><stop offset="41%" stop-color="#aaa"/><stop offset="56%" stop-color="#ccc"/><stop offset="71%" stop-color="#eaeaea"/><stop offset="80%" stop-color="#f6f6f6"/><stop offset="83%" stop-color="#ededed"/><stop offset="87%" stop-color="#d4d4d4"/><stop offset="92%" stop-color="#ababab"/><stop offset="98%" stop-color="#737373"/><stop offset="99%" stop-color="#666"/></linearGradient></defs><g fill="none" fill-rule="nonzero" transform="translate(.467 .029)"><path fill="url(#a)" d="M4.17 18.13h56.96v127.32H4.17z"/><path fill="url(#b)" d="M3.83 44.78h57.31v1.71H3.83z" transform="matrix(-1 0 0 -1 64.97 91.27)"/><path fill="url(#c)" d="M4.96 12.55h55.45v5.58H4.96z" transform="matrix(-1 0 0 -1 65.37 30.68)"/><path fill="url(#d)" d="M4.3 10.89h56.83V9.24S56.4 0 32.65 0C10 0 4.3 9.24 4.3 9.24z"/><path fill="url(#e)" d="M4.01 79.72h57.31v1.71H4.01z" transform="matrix(-1 0 0 -1 65.33 161.15)"/><path fill="url(#e)" d="M4.01 114.26h57.31v1.71H4.01z" transform="matrix(-1 0 0 -1 65.33 230.23)"/><rect width="65.26" height="5.36" y="144.04" fill="url(#f)" rx=".72" transform="matrix(-1 0 0 -1 65.26 293.44)"/><path fill="url(#g)" d="M2.81 61.13h1.02v6.16H2.81z"/><path fill="url(#g)" d="M7.43 63.56h1.02v6.16H7.43z"/><path fill="url(#g)" d="M12.32 66.26h1.02v6.16h-1.02z"/><path fill="url(#g)" d="M17.36 68.69h1.02v6.16h-1.02z"/><path fill="url(#g)" d="M22.16 71.77h1.02v6.16h-1.02z"/><path fill="url(#g)" d="M27.35 74.85h1.02v6.16h-1.02z"/><path fill="url(#h)" d="M32.15 77.93h1.02v6.16h-1.02z"/><path fill="url(#g)" d="M36.96 81h1.02v6.16h-1.02z"/><path fill="url(#i)" d="M41.76 84.08h1.02v6.16h-1.02z"/><path fill="url(#g)" d="M47.08 86.76h1.02v6.16h-1.02z"/><path fill="url(#g)" d="M51.74 89.11h1.02v6.16h-1.02z"/><path fill="url(#g)" d="M56.4 91.46h1.02v6.16H56.4z"/><path fill="url(#j)" d="M30.764 49.268h3.78v68.39h-3.78z" transform="rotate(-60 32.654 83.463)"/><path fill="url(#k)" d="M31.408 43.424h1.25v68.39h-1.25z" transform="rotate(-60 32.033 77.62)"/><path fill="url(#g)" d="M2.81 18.95h1.02v6.16H2.81z"/><path fill="url(#g)" d="M7.43 21.38h1.02v6.16H7.43z"/><path fill="url(#g)" d="M12.32 24.08h1.02v6.16h-1.02z"/><path fill="url(#g)" d="M17.36 26.51h1.02v6.16h-1.02z"/><path fill="url(#g)" d="M22.16 29.59h1.02v6.16h-1.02z"/><path fill="url(#g)" d="M27.35 32.67h1.02v6.16h-1.02z"/><path fill="url(#h)" d="M32.15 35.75h1.02v6.16h-1.02z"/><path fill="url(#g)" d="M36.96 38.82h1.02v6.16h-1.02z"/><path fill="url(#i)" d="M41.76 41.9h1.02v6.16h-1.02z"/><path fill="url(#g)" d="M47.08 44.58h1.02v6.16h-1.02z"/><path fill="url(#g)" d="M51.74 46.93h1.02v6.16h-1.02z"/><path fill="url(#g)" d="M56.4 49.28h1.02v6.16H56.4z"/><path fill="url(#l)" d="M30.765 7.088h3.78v68.39h-3.78z" transform="rotate(-60 32.655 41.283)"/><path fill="url(#m)" d="M31.409 1.244h1.25v68.39h-1.25z" transform="rotate(-60 32.034 35.44)"/><path fill="url(#g)" d="M2.63 103.27h1.02v6.16H2.63z"/><path fill="url(#g)" d="M7.25 105.7h1.02v6.16H7.25z"/><path fill="url(#g)" d="M12.14 108.4h1.02v6.16h-1.02z"/><path fill="url(#g)" d="M17.18 110.83h1.02v6.16h-1.02z"/><path fill="url(#n)" d="M21.98 113.91H23v6.16h-1.02z"/><path fill="url(#g)" d="M27.17 116.98h1.02v6.16h-1.02z"/><path fill="url(#i)" d="M31.97 120.06h1.02v6.16h-1.02z"/><path fill="url(#g)" d="M36.78 123.14h1.02v6.16h-1.02z"/><path fill="url(#n)" d="M41.58 126.22h1.02v6.16h-1.02z"/><path fill="url(#h)" d="M46.89 128.9h1.02v6.16h-1.02z"/><path fill="url(#h)" d="M51.55 131.25h1.02v6.16h-1.02z"/><path fill="url(#n)" d="M56.22 133.6h1.02v6.16h-1.02z"/><path fill="url(#o)" d="M30.588 91.394h3.78v68.39h-3.78z" transform="rotate(-60 32.478 125.589)"/><path fill="url(#p)" d="M31.218 85.564h1.25v68.39h-1.25z" transform="rotate(-60 31.843 119.759)"/><rect width="58.88" height="3.31" x="3.37" y="9.24" fill="url(#q)" rx=".44" transform="matrix(-1 0 0 -1 65.62 21.79)"/></g></svg>