<svg xmlns="http://www.w3.org/2000/svg" viewBox="0 0 151 139"><title>Storage facility 1（储存设施）</title><defs><linearGradient id="a" x1="0%" x2="100%" y1="50.004%" y2="50.004%"><stop offset="0%" stop-color="#e2e2e2"/><stop offset="3%" stop-color="#d0d0d0"/><stop offset="6%" stop-color="#bcbcbc"/><stop offset="9%" stop-color="#b5b5b5"/><stop offset="49%" stop-color="#f6f6f6"/><stop offset="63%" stop-color="#f3f3f3"/><stop offset="73%" stop-color="#eaeaea"/><stop offset="82%" stop-color="#dbdbdb"/><stop offset="90%" stop-color="#c6c6c6"/><stop offset="97%" stop-color="#aaa"/><stop offset="100%" stop-color="#9b9b9b"/></linearGradient><linearGradient id="b" x1="0%" x2="100%" y1="49.965%" y2="49.965%"><stop offset="0%" stop-color="#e2e2e2"/><stop offset="3%" stop-color="#d0d0d0"/><stop offset="6%" stop-color="#bcbcbc"/><stop offset="9%" stop-color="#b5b5b5"/><stop offset="49%" stop-color="#f6f6f6"/><stop offset="63%" stop-color="#f3f3f3"/><stop offset="73%" stop-color="#eaeaea"/><stop offset="82%" stop-color="#dbdbdb"/><stop offset="90%" stop-color="#c6c6c6"/><stop offset="97%" stop-color="#aaa"/><stop offset="100%" stop-color="#9b9b9b"/></linearGradient><linearGradient id="c" x1="0%" x2="100%" y1="50%" y2="50%"><stop offset="0%" stop-color="#e2e2e2"/><stop offset="3%" stop-color="#d0d0d0"/><stop offset="6%" stop-color="#bcbcbc"/><stop offset="9%" stop-color="#b5b5b5"/><stop offset="49%" stop-color="#f6f6f6"/><stop offset="63%" stop-color="#f3f3f3"/><stop offset="73%" stop-color="#eaeaea"/><stop offset="82%" stop-color="#dbdbdb"/><stop offset="90%" stop-color="#c6c6c6"/><stop offset="97%" stop-color="#aaa"/><stop offset="100%" stop-color="#9b9b9b"/></linearGradient><linearGradient id="d" x1="0%" x2="100.415%" y1="49.965%" y2="49.965%"><stop offset="0%" stop-color="#e2e2e2"/><stop offset="3%" stop-color="#d0d0d0"/><stop offset="6%" stop-color="#bcbcbc"/><stop offset="9%" stop-color="#b5b5b5"/><stop offset="49%" stop-color="#f6f6f6"/><stop offset="63%" stop-color="#f3f3f3"/><stop offset="73%" stop-color="#eaeaea"/><stop offset="82%" stop-color="#dbdbdb"/><stop offset="90%" stop-color="#c6c6c6"/><stop offset="97%" stop-color="#aaa"/><stop offset="100%" stop-color="#9b9b9b"/></linearGradient><linearGradient id="e" x1="26.636%" x2="101.402%" y1="50%" y2="50%"><stop offset="0%" stop-color="#6b6b6b"/><stop offset="11%" stop-color="#767676"/><stop offset="30%" stop-color="#959595"/><stop offset="41%" stop-color="#aaa"/><stop offset="56%" stop-color="#ccc"/><stop offset="71%" stop-color="#eaeaea"/><stop offset="80%" stop-color="#f6f6f6"/><stop offset="83%" stop-color="#ededed"/><stop offset="87%" stop-color="#d4d4d4"/><stop offset="92%" stop-color="#ababab"/><stop offset="98%" stop-color="#737373"/><stop offset="99%" stop-color="#666"/></linearGradient><linearGradient id="f" x1="26.636%" x2="101.869%" y1="50%" y2="50%"><stop offset="0%" stop-color="#6b6b6b"/><stop offset="11%" stop-color="#767676"/><stop offset="30%" stop-color="#959595"/><stop offset="41%" stop-color="#aaa"/><stop offset="56%" stop-color="#ccc"/><stop offset="71%" stop-color="#eaeaea"/><stop offset="80%" stop-color="#f6f6f6"/><stop offset="83%" stop-color="#ededed"/><stop offset="87%" stop-color="#d4d4d4"/><stop offset="92%" stop-color="#ababab"/><stop offset="98%" stop-color="#737373"/><stop offset="99%" stop-color="#666"/></linearGradient><linearGradient id="g" x1="26.168%" x2="101.402%" y1="50%" y2="50%"><stop offset="0%" stop-color="#6b6b6b"/><stop offset="11%" stop-color="#767676"/><stop offset="30%" stop-color="#959595"/><stop offset="41%" stop-color="#aaa"/><stop offset="56%" stop-color="#ccc"/><stop offset="71%" stop-color="#eaeaea"/><stop offset="80%" stop-color="#f6f6f6"/><stop offset="83%" stop-color="#ededed"/><stop offset="87%" stop-color="#d4d4d4"/><stop offset="92%" stop-color="#ababab"/><stop offset="98%" stop-color="#737373"/><stop offset="99%" stop-color="#666"/></linearGradient><linearGradient id="h" x1="0%" x2="100%" y1="49.94%" y2="49.94%"><stop offset="0%" stop-color="#6b6b6b"/><stop offset="11%" stop-color="#767676"/><stop offset="30%" stop-color="#959595"/><stop offset="41%" stop-color="#aaa"/><stop offset="56%" stop-color="#ccc"/><stop offset="71%" stop-color="#eaeaea"/><stop offset="80%" stop-color="#f6f6f6"/><stop offset="83%" stop-color="#ededed"/><stop offset="87%" stop-color="#d4d4d4"/><stop offset="92%" stop-color="#ababab"/><stop offset="98%" stop-color="#737373"/><stop offset="99%" stop-color="#666"/></linearGradient><linearGradient id="i" x1="0%" x2="100%" y1="50%" y2="50%"><stop offset="0%" stop-color="#6b6b6b"/><stop offset="11%" stop-color="#767676"/><stop offset="30%" stop-color="#959595"/><stop offset="41%" stop-color="#aaa"/><stop offset="56%" stop-color="#ccc"/><stop offset="71%" stop-color="#eaeaea"/><stop offset="80%" stop-color="#f6f6f6"/><stop offset="83%" stop-color="#ededed"/><stop offset="87%" stop-color="#d4d4d4"/><stop offset="92%" stop-color="#ababab"/><stop offset="98%" stop-color="#737373"/><stop offset="99%" stop-color="#666"/></linearGradient><linearGradient id="j" x1="0%" x2="100.007%" y1="50%" y2="50%"><stop offset="0%" stop-color="#e2e2e2"/><stop offset="3%" stop-color="#d0d0d0"/><stop offset="6%" stop-color="#bcbcbc"/><stop offset="9%" stop-color="#b5b5b5"/><stop offset="49%" stop-color="#f6f6f6"/><stop offset="63%" stop-color="#f3f3f3"/><stop offset="73%" stop-color="#eaeaea"/><stop offset="82%" stop-color="#dbdbdb"/><stop offset="90%" stop-color="#c6c6c6"/><stop offset="97%" stop-color="#aaa"/><stop offset="100%" stop-color="#9b9b9b"/></linearGradient><linearGradient id="k" x1="0%" x2="100%" y1="50.143%" y2="50.143%"><stop offset="0%" stop-color="#e2e2e2"/><stop offset="3%" stop-color="#d0d0d0"/><stop offset="6%" stop-color="#bcbcbc"/><stop offset="9%" stop-color="#b5b5b5"/><stop offset="49%" stop-color="#f6f6f6"/><stop offset="63%" stop-color="#f3f3f3"/><stop offset="73%" stop-color="#eaeaea"/><stop offset="82%" stop-color="#dbdbdb"/><stop offset="90%" stop-color="#c6c6c6"/><stop offset="97%" stop-color="#aaa"/><stop offset="100%" stop-color="#9b9b9b"/></linearGradient><linearGradient id="l" x1="26.347%" x2="101.796%" y1="50.049%" y2="50.049%"><stop offset="0%" stop-color="#6b6b6b"/><stop offset="11%" stop-color="#767676"/><stop offset="30%" stop-color="#959595"/><stop offset="41%" stop-color="#aaa"/><stop offset="56%" stop-color="#ccc"/><stop offset="71%" stop-color="#eaeaea"/><stop offset="80%" stop-color="#f6f6f6"/><stop offset="83%" stop-color="#ededed"/><stop offset="87%" stop-color="#d4d4d4"/><stop offset="92%" stop-color="#ababab"/><stop offset="98%" stop-color="#737373"/><stop offset="99%" stop-color="#666"/></linearGradient><linearGradient id="m" x1="26.946%" x2="101.796%" y1="49.951%" y2="49.951%"><stop offset="0%" stop-color="#6b6b6b"/><stop offset="11%" stop-color="#767676"/><stop offset="30%" stop-color="#959595"/><stop offset="41%" stop-color="#aaa"/><stop offset="56%" stop-color="#ccc"/><stop offset="71%" stop-color="#eaeaea"/><stop offset="80%" stop-color="#f6f6f6"/><stop offset="83%" stop-color="#ededed"/><stop offset="87%" stop-color="#d4d4d4"/><stop offset="92%" stop-color="#ababab"/><stop offset="98%" stop-color="#737373"/><stop offset="99%" stop-color="#666"/></linearGradient><linearGradient id="n" x1="26.946%" x2="102.395%" y1="49.951%" y2="49.951%"><stop offset="0%" stop-color="#6b6b6b"/><stop offset="11%" stop-color="#767676"/><stop offset="30%" stop-color="#959595"/><stop offset="41%" stop-color="#aaa"/><stop offset="56%" stop-color="#ccc"/><stop offset="71%" stop-color="#eaeaea"/><stop offset="80%" stop-color="#f6f6f6"/><stop offset="83%" stop-color="#ededed"/><stop offset="87%" stop-color="#d4d4d4"/><stop offset="92%" stop-color="#ababab"/><stop offset="98%" stop-color="#737373"/><stop offset="99%" stop-color="#666"/></linearGradient><linearGradient id="o" x1="26.347%" x2="101.796%" y1="49.951%" y2="49.951%"><stop offset="0%" stop-color="#6b6b6b"/><stop offset="11%" stop-color="#767676"/><stop offset="30%" stop-color="#959595"/><stop offset="41%" stop-color="#aaa"/><stop offset="56%" stop-color="#ccc"/><stop offset="71%" stop-color="#eaeaea"/><stop offset="80%" stop-color="#f6f6f6"/><stop offset="83%" stop-color="#ededed"/><stop offset="87%" stop-color="#d4d4d4"/><stop offset="92%" stop-color="#ababab"/><stop offset="98%" stop-color="#737373"/><stop offset="99%" stop-color="#666"/></linearGradient><linearGradient id="p" x1="47.513%" x2="47.513%" y1="26.214%" y2="101.628%"><stop offset="0%" stop-color="#6b6b6b"/><stop offset="11%" stop-color="#767676"/><stop offset="30%" stop-color="#959595"/><stop offset="41%" stop-color="#aaa"/><stop offset="56%" stop-color="#ccc"/><stop offset="71%" stop-color="#eaeaea"/><stop offset="80%" stop-color="#f6f6f6"/><stop offset="83%" stop-color="#ededed"/><stop offset="87%" stop-color="#d4d4d4"/><stop offset="92%" stop-color="#ababab"/><stop offset="98%" stop-color="#737373"/><stop offset="99%" stop-color="#666"/></linearGradient><linearGradient id="q" x1="-362.976%" x2="-362.976%" y1="26.312%" y2="101.659%"><stop offset="0%" stop-color="#6b6b6b"/><stop offset="11%" stop-color="#767676"/><stop offset="30%" stop-color="#959595"/><stop offset="41%" stop-color="#aaa"/><stop offset="56%" stop-color="#ccc"/><stop offset="71%" stop-color="#eaeaea"/><stop offset="80%" stop-color="#f6f6f6"/><stop offset="83%" stop-color="#ededed"/><stop offset="87%" stop-color="#d4d4d4"/><stop offset="92%" stop-color="#ababab"/><stop offset="98%" stop-color="#737373"/><stop offset="99%" stop-color="#666"/></linearGradient></defs><g fill="none" fill-rule="nonzero" transform="translate(.467 .029)"><path fill="url(#a)" d="M148.38 135.21H2.25V53.55S47 14 63.43 4.52C66.09 3 74.35 0 74.35 0a62.5 62.5 0 0 1 16.28 7.3c6.29 4.17 57.75 46.25 57.75 46.25z"/><path fill="url(#b)" d="M2.13 37.6h2.41v14.15H2.13z"/><path fill="url(#c)" d="M74.295-32.275h2.19v147.68h-2.19z" transform="rotate(90 75.39 41.565)"/><path fill="url(#b)" d="M10.11 37.6h2.41v14.15h-2.41z"/><path fill="url(#d)" d="M18.23 37.6h2.41v14.15h-2.41z"/><path fill="url(#b)" d="M26.36 37.6h2.41v14.15h-2.41z"/><path fill="url(#d)" d="M34.48 37.6h2.41v14.15h-2.41z"/><path fill="url(#b)" d="M42.61 37.6h2.41v14.15h-2.41z"/><path fill="url(#b)" d="M50.73 37.6h2.41v14.15h-2.41z"/><path fill="url(#d)" d="M58.85 37.6h2.41v14.15h-2.41z"/><path fill="url(#b)" d="M66.98 37.6h2.41v14.15h-2.41z"/><path fill="url(#b)" d="M75.16 37.6h2.41v14.15h-2.41z"/><path fill="url(#b)" d="M83.23 37.6h2.41v14.15h-2.41z"/><path fill="url(#b)" d="M91.35 37.6h2.41v14.15h-2.41z"/><ellipse cx="3.34" cy="41.57" fill="url(#e)" rx="1.07" ry="1.09"/><ellipse cx="11.32" cy="41.57" fill="url(#e)" rx="1.07" ry="1.09"/><ellipse cx="19.44" cy="41.57" fill="url(#f)" rx="1.07" ry="1.09"/><ellipse cx="27.57" cy="41.57" fill="url(#g)" rx="1.07" ry="1.09"/><ellipse cx="35.69" cy="41.57" fill="url(#f)" rx="1.07" ry="1.09"/><ellipse cx="43.81" cy="41.57" fill="url(#f)" rx="1.07" ry="1.09"/><ellipse cx="51.94" cy="41.57" fill="url(#e)" rx="1.07" ry="1.09"/><ellipse cx="60.06" cy="41.57" fill="url(#f)" rx="1.07" ry="1.09"/><ellipse cx="68.19" cy="41.57" fill="url(#g)" rx="1.07" ry="1.09"/><ellipse cx="76.31" cy="41.57" fill="url(#f)" rx="1.07" ry="1.09"/><ellipse cx="84.43" cy="41.57" fill="url(#f)" rx="1.07" ry="1.09"/><ellipse cx="92.56" cy="41.57" fill="url(#e)" rx="1.07" ry="1.09"/><path fill="url(#d)" d="M99.05 37.6h2.41v14.15h-2.41z"/><ellipse cx="100.26" cy="41.57" fill="url(#f)" rx="1.07" ry="1.09"/><path fill="url(#d)" d="M106.75 37.6h2.41v14.15h-2.41z"/><ellipse cx="107.96" cy="41.57" fill="url(#f)" rx="1.07" ry="1.09"/><path fill="url(#b)" d="M114.46 37.6h2.41v14.15h-2.41z"/><ellipse cx="115.66" cy="41.57" fill="url(#f)" rx="1.07" ry="1.09"/><path fill="url(#b)" d="M122.16 37.6h2.41v14.15h-2.41z"/><ellipse cx="123.36" cy="41.57" fill="url(#f)" rx="1.07" ry="1.09"/><path fill="url(#b)" d="M129.86 37.6h2.41v14.15h-2.41z"/><ellipse cx="131.07" cy="41.57" fill="url(#e)" rx="1.07" ry="1.09"/><path fill="url(#b)" d="M137.56 37.6h2.41v14.15h-2.41z"/><ellipse cx="138.77" cy="41.57" fill="url(#e)" rx="1.07" ry="1.09"/><path fill="url(#d)" d="M145.26 37.6h2.41v14.15h-2.41z"/><ellipse cx="146.47" cy="41.57" fill="url(#f)" rx="1.07" ry="1.09"/><path fill="url(#h)" d="M0 51.75h150.39v8.27H0z"/><path fill="url(#i)" d="M1.06 131.63h147.8v2.38H1.06z"/><rect width="149.88" height="4.2" x=".15" y="134.01" fill="url(#j)" rx=".32"/><path fill="url(#k)" d="M0 53.81h150.39v3.49H0z"/><path fill="url(#l)" d="M2.48 71.43h1.67v10.13H2.48z"/><path fill="url(#l)" d="M10.09 75.43h1.67v10.13h-1.67z"/><path fill="url(#m)" d="M18.14 79.88h1.67v10.13h-1.67z"/><path fill="url(#l)" d="M26.44 83.88h1.67v10.13h-1.67z"/><path fill="url(#n)" d="M34.34 88.95h1.67v10.13h-1.67z"/><path fill="url(#l)" d="M42.89 94.01h1.67v10.13h-1.67z"/><path fill="url(#l)" d="M50.8 99.08h1.67v10.13H50.8z"/><path fill="url(#o)" d="M58.71 104.15h1.67v10.13h-1.67z"/><path fill="url(#l)" d="M66.62 109.21h1.67v10.13h-1.67z"/><path fill="url(#o)" d="M75.37 113.63h1.67v10.13h-1.67z"/><path fill="url(#m)" d="M83.04 117.5h1.67v10.13h-1.67z"/><path fill="url(#o)" d="M90.72 121.37h1.67v10.13h-1.67z"/><path fill="url(#p)" d="M48.707 51.775h5.48v111.75h-5.48z" transform="rotate(-60 51.447 107.65)"/><path fill="url(#q)" d="M49.57 42.271h2.05v112.61h-2.05z" transform="rotate(-60 50.595 98.576)"/></g></svg>