<svg xmlns="http://www.w3.org/2000/svg" viewBox="0 0 151 101"><title>Storage facility 2（储存设施2）</title><defs><linearGradient id="a" x1="0%" x2="100%" y1="50.037%" y2="50.037%"><stop offset="0%" stop-color="#e2e2e2"/><stop offset="3%" stop-color="#d0d0d0"/><stop offset="6%" stop-color="#bcbcbc"/><stop offset="9%" stop-color="#b5b5b5"/><stop offset="49%" stop-color="#f6f6f6"/><stop offset="63%" stop-color="#f3f3f3"/><stop offset="73%" stop-color="#eaeaea"/><stop offset="82%" stop-color="#dbdbdb"/><stop offset="90%" stop-color="#c6c6c6"/><stop offset="97%" stop-color="#aaa"/><stop offset="100%" stop-color="#9b9b9b"/></linearGradient><linearGradient id="b" x1="0%" x2="100%" y1="50%" y2="50%"><stop offset="0%" stop-color="#e2e2e2"/><stop offset="3%" stop-color="#d0d0d0"/><stop offset="6%" stop-color="#bcbcbc"/><stop offset="9%" stop-color="#b5b5b5"/><stop offset="49%" stop-color="#f6f6f6"/><stop offset="63%" stop-color="#f3f3f3"/><stop offset="73%" stop-color="#eaeaea"/><stop offset="82%" stop-color="#dbdbdb"/><stop offset="90%" stop-color="#c6c6c6"/><stop offset="97%" stop-color="#aaa"/><stop offset="100%" stop-color="#9b9b9b"/></linearGradient><linearGradient id="c" x1="0%" x2="99.578%" y1="50.037%" y2="50.037%"><stop offset="0%" stop-color="#e2e2e2"/><stop offset="3%" stop-color="#d0d0d0"/><stop offset="6%" stop-color="#bcbcbc"/><stop offset="9%" stop-color="#b5b5b5"/><stop offset="49%" stop-color="#f6f6f6"/><stop offset="63%" stop-color="#f3f3f3"/><stop offset="73%" stop-color="#eaeaea"/><stop offset="82%" stop-color="#dbdbdb"/><stop offset="90%" stop-color="#c6c6c6"/><stop offset="97%" stop-color="#aaa"/><stop offset="100%" stop-color="#9b9b9b"/></linearGradient><linearGradient id="d" x1="26.667%" x2="101.905%" y1="50%" y2="50%"><stop offset="0%" stop-color="#6b6b6b"/><stop offset="11%" stop-color="#767676"/><stop offset="30%" stop-color="#959595"/><stop offset="41%" stop-color="#aaa"/><stop offset="56%" stop-color="#ccc"/><stop offset="71%" stop-color="#eaeaea"/><stop offset="80%" stop-color="#f6f6f6"/><stop offset="83%" stop-color="#ededed"/><stop offset="87%" stop-color="#d4d4d4"/><stop offset="92%" stop-color="#ababab"/><stop offset="98%" stop-color="#737373"/><stop offset="99%" stop-color="#666"/></linearGradient><linearGradient id="e" x1="26.19%" x2="101.429%" y1="50%" y2="50%"><stop offset="0%" stop-color="#6b6b6b"/><stop offset="11%" stop-color="#767676"/><stop offset="30%" stop-color="#959595"/><stop offset="41%" stop-color="#aaa"/><stop offset="56%" stop-color="#ccc"/><stop offset="71%" stop-color="#eaeaea"/><stop offset="80%" stop-color="#f6f6f6"/><stop offset="83%" stop-color="#ededed"/><stop offset="87%" stop-color="#d4d4d4"/><stop offset="92%" stop-color="#ababab"/><stop offset="98%" stop-color="#737373"/><stop offset="99%" stop-color="#666"/></linearGradient><linearGradient id="f" x1="26.667%" x2="101.429%" y1="50%" y2="50%"><stop offset="0%" stop-color="#6b6b6b"/><stop offset="11%" stop-color="#767676"/><stop offset="30%" stop-color="#959595"/><stop offset="41%" stop-color="#aaa"/><stop offset="56%" stop-color="#ccc"/><stop offset="71%" stop-color="#eaeaea"/><stop offset="80%" stop-color="#f6f6f6"/><stop offset="83%" stop-color="#ededed"/><stop offset="87%" stop-color="#d4d4d4"/><stop offset="92%" stop-color="#ababab"/><stop offset="98%" stop-color="#737373"/><stop offset="99%" stop-color="#666"/></linearGradient><linearGradient id="g" x1="0%" x2="100%" y1="49.759%" y2="49.759%"><stop offset="0%" stop-color="#6b6b6b"/><stop offset="11%" stop-color="#767676"/><stop offset="30%" stop-color="#959595"/><stop offset="41%" stop-color="#aaa"/><stop offset="56%" stop-color="#ccc"/><stop offset="71%" stop-color="#eaeaea"/><stop offset="80%" stop-color="#f6f6f6"/><stop offset="83%" stop-color="#ededed"/><stop offset="87%" stop-color="#d4d4d4"/><stop offset="92%" stop-color="#ababab"/><stop offset="98%" stop-color="#737373"/><stop offset="99%" stop-color="#666"/></linearGradient><linearGradient id="h" x1="0%" x2="100%" y1="49.843%" y2="49.843%"><stop offset="0%" stop-color="#6b6b6b"/><stop offset="11%" stop-color="#767676"/><stop offset="30%" stop-color="#959595"/><stop offset="41%" stop-color="#aaa"/><stop offset="56%" stop-color="#ccc"/><stop offset="71%" stop-color="#eaeaea"/><stop offset="80%" stop-color="#f6f6f6"/><stop offset="83%" stop-color="#ededed"/><stop offset="87%" stop-color="#d4d4d4"/><stop offset="92%" stop-color="#ababab"/><stop offset="98%" stop-color="#737373"/><stop offset="99%" stop-color="#666"/></linearGradient><linearGradient id="i" x1="0%" x2="100%" y1="49.998%" y2="49.998%"><stop offset="0%" stop-color="#e2e2e2"/><stop offset="3%" stop-color="#d0d0d0"/><stop offset="6%" stop-color="#bcbcbc"/><stop offset="9%" stop-color="#b5b5b5"/><stop offset="49%" stop-color="#f6f6f6"/><stop offset="63%" stop-color="#f3f3f3"/><stop offset="73%" stop-color="#eaeaea"/><stop offset="82%" stop-color="#dbdbdb"/><stop offset="90%" stop-color="#c6c6c6"/><stop offset="97%" stop-color="#aaa"/><stop offset="100%" stop-color="#9b9b9b"/></linearGradient><linearGradient id="j" x1="0%" x2="100%" y1="49.875%" y2="49.875%"><stop offset="0%" stop-color="#e2e2e2"/><stop offset="3%" stop-color="#d0d0d0"/><stop offset="6%" stop-color="#bcbcbc"/><stop offset="9%" stop-color="#b5b5b5"/><stop offset="49%" stop-color="#f6f6f6"/><stop offset="63%" stop-color="#f3f3f3"/><stop offset="73%" stop-color="#eaeaea"/><stop offset="82%" stop-color="#dbdbdb"/><stop offset="90%" stop-color="#c6c6c6"/><stop offset="97%" stop-color="#aaa"/><stop offset="100%" stop-color="#9b9b9b"/></linearGradient><linearGradient id="k" x1="0%" x2="100%" y1="50.091%" y2="50.091%"><stop offset="0%" stop-color="#e2e2e2"/><stop offset="3%" stop-color="#d0d0d0"/><stop offset="6%" stop-color="#bcbcbc"/><stop offset="9%" stop-color="#b5b5b5"/><stop offset="49%" stop-color="#f6f6f6"/><stop offset="63%" stop-color="#f3f3f3"/><stop offset="73%" stop-color="#eaeaea"/><stop offset="82%" stop-color="#dbdbdb"/><stop offset="90%" stop-color="#c6c6c6"/><stop offset="97%" stop-color="#aaa"/><stop offset="100%" stop-color="#9b9b9b"/></linearGradient></defs><g fill="none" fill-rule="nonzero" transform="translate(.467 .029)"><path fill="url(#a)" d="M2.22 0h2.37v13.55H2.22z"/><path fill="url(#b)" d="M73.11-68.69h2.1v145h-2.1z" transform="rotate(90 74.16 3.81)"/><path fill="url(#a)" d="M10.05 0h2.37v13.55h-2.37z"/><path fill="url(#a)" d="M18.03 0h2.37v13.55h-2.37z"/><path fill="url(#a)" d="M26.01 0h2.37v13.55h-2.37z"/><path fill="url(#a)" d="M33.98 0h2.37v13.55h-2.37z"/><path fill="url(#a)" d="M41.96 0h2.37v13.55h-2.37z"/><path fill="url(#a)" d="M49.94 0h2.37v13.55h-2.37z"/><path fill="url(#c)" d="M57.92 0h2.37v13.55h-2.37z"/><path fill="url(#a)" d="M65.89 0h2.37v13.55h-2.37z"/><path fill="url(#a)" d="M73.92 0h2.37v13.55h-2.37z"/><path fill="url(#a)" d="M81.85 0h2.37v13.55h-2.37z"/><path fill="url(#a)" d="M89.82 0h2.37v13.55h-2.37z"/><circle cx="3.4" cy="3.8" r="1.05" fill="url(#d)"/><circle cx="11.24" cy="3.8" r="1.05" fill="url(#d)"/><circle cx="19.22" cy="3.8" r="1.05" fill="url(#e)"/><circle cx="27.19" cy="3.8" r="1.05" fill="url(#d)"/><circle cx="35.17" cy="3.8" r="1.05" fill="url(#d)"/><circle cx="43.15" cy="3.8" r="1.05" fill="url(#e)"/><circle cx="51.12" cy="3.8" r="1.05" fill="url(#d)"/><circle cx="59.1" cy="3.8" r="1.05" fill="url(#d)"/><circle cx="67.08" cy="3.8" r="1.05" fill="url(#f)"/><circle cx="75.05" cy="3.8" r="1.05" fill="url(#d)"/><circle cx="83.03" cy="3.8" r="1.05" fill="url(#d)"/><circle cx="91.01" cy="3.8" r="1.05" fill="url(#f)"/><path fill="url(#a)" d="M97.38 0h2.37v13.55h-2.37z"/><circle cx="98.57" cy="3.8" r="1.05" fill="url(#d)"/><path fill="url(#a)" d="M104.95 0h2.37v13.55h-2.37z"/><circle cx="106.13" cy="3.8" r="1.05" fill="url(#d)"/><path fill="url(#a)" d="M112.51 0h2.37v13.55h-2.37z"/><circle cx="113.69" cy="3.8" r="1.05" fill="url(#d)"/><path fill="url(#a)" d="M120.07 0h2.37v13.55h-2.37z"/><circle cx="121.26" cy="3.8" r="1.05" fill="url(#e)"/><path fill="url(#a)" d="M127.63 0H130v13.55h-2.37z"/><circle cx="128.82" cy="3.8" r="1.05" fill="url(#f)"/><path fill="url(#c)" d="M135.2 0h2.37v13.55h-2.37z"/><circle cx="136.38" cy="3.8" r="1.05" fill="url(#d)"/><path fill="url(#a)" d="M142.76 0h2.37v13.55h-2.37z"/><circle cx="143.94" cy="3.8" r="1.05" fill="url(#d)"/><path fill="url(#g)" d="M1.38 17.5h147.03v3.32H1.38z"/><path fill="url(#h)" d="M1.38 92.19h147.03v3.32H1.38z"/><path fill="url(#i)" d="M1.38 20.81h147.03v71.38H1.38z"/><rect width="149.79" height="4.63" x=".21" y="95.51" fill="url(#j)" rx=".46"/><rect width="149.79" height="4.63" y="13.24" fill="url(#k)" rx=".46"/></g></svg>