<svg xmlns="http://www.w3.org/2000/svg" viewBox="0 0 135 151"><title>Tank 1（油箱） (7)</title><defs><linearGradient id="a" x1="99.999%" x2="-.001%" y1="50.002%" y2="50.002%"><stop offset="0%" stop-color="#e2e2e2"/><stop offset="3%" stop-color="#d0d0d0"/><stop offset="6%" stop-color="#bcbcbc"/><stop offset="9%" stop-color="#b5b5b5"/><stop offset="49%" stop-color="#f6f6f6"/><stop offset="63%" stop-color="#f3f3f3"/><stop offset="73%" stop-color="#eaeaea"/><stop offset="82%" stop-color="#dbdbdb"/><stop offset="90%" stop-color="#c6c6c6"/><stop offset="97%" stop-color="#aaa"/><stop offset="100%" stop-color="#9b9b9b"/></linearGradient><linearGradient id="b" x1="49.86%" x2="49.86%" y1="100%" y2="0%"><stop offset="0%" stop-color="#b7b7b7"/><stop offset="3%" stop-color="#9b9d9d"/><stop offset="7%" stop-color="#878b8b"/><stop offset="9%" stop-color="#808484"/><stop offset="20%" stop-color="#a3a6a6"/><stop offset="49%" stop-color="#f6f6f6"/><stop offset="61%" stop-color="#f3f3f3"/><stop offset="70%" stop-color="#eaeaea"/><stop offset="77%" stop-color="#dbdbdb"/><stop offset="83%" stop-color="#c5c5c5"/><stop offset="90%" stop-color="#aaa"/><stop offset="95%" stop-color="#888"/><stop offset="100%" stop-color="#666"/></linearGradient><linearGradient id="c" x1="49.86%" x2="49.86%" y1="100.008%" y2=".008%"><stop offset="0%" stop-color="#b7b7b7"/><stop offset="3%" stop-color="#9b9d9d"/><stop offset="7%" stop-color="#878b8b"/><stop offset="9%" stop-color="#808484"/><stop offset="20%" stop-color="#a3a6a6"/><stop offset="49%" stop-color="#f6f6f6"/><stop offset="61%" stop-color="#f3f3f3"/><stop offset="70%" stop-color="#eaeaea"/><stop offset="77%" stop-color="#dbdbdb"/><stop offset="83%" stop-color="#c5c5c5"/><stop offset="90%" stop-color="#aaa"/><stop offset="95%" stop-color="#888"/><stop offset="100%" stop-color="#666"/></linearGradient><linearGradient id="d" x1="50.024%" x2="50.024%" y1="100%" y2="0%"><stop offset="0%" stop-color="#b7b7b7"/><stop offset="3%" stop-color="#9b9d9d"/><stop offset="7%" stop-color="#878b8b"/><stop offset="9%" stop-color="#808484"/><stop offset="20%" stop-color="#a3a6a6"/><stop offset="49%" stop-color="#f6f6f6"/><stop offset="61%" stop-color="#f3f3f3"/><stop offset="70%" stop-color="#eaeaea"/><stop offset="77%" stop-color="#dbdbdb"/><stop offset="83%" stop-color="#c5c5c5"/><stop offset="90%" stop-color="#aaa"/><stop offset="95%" stop-color="#888"/><stop offset="100%" stop-color="#666"/></linearGradient><linearGradient id="e" x1="49.976%" x2="49.976%" y1="100%" y2="0%"><stop offset="0%" stop-color="#b7b7b7"/><stop offset="3%" stop-color="#9b9d9d"/><stop offset="7%" stop-color="#878b8b"/><stop offset="9%" stop-color="#808484"/><stop offset="20%" stop-color="#a3a6a6"/><stop offset="49%" stop-color="#f6f6f6"/><stop offset="61%" stop-color="#f3f3f3"/><stop offset="70%" stop-color="#eaeaea"/><stop offset="77%" stop-color="#dbdbdb"/><stop offset="83%" stop-color="#c5c5c5"/><stop offset="90%" stop-color="#aaa"/><stop offset="95%" stop-color="#888"/><stop offset="100%" stop-color="#666"/></linearGradient><linearGradient id="f" x1="0%" x2="100%" y1="49.996%" y2="49.996%"><stop offset="0%" stop-color="#b7b7b7"/><stop offset="3%" stop-color="#9b9d9d"/><stop offset="7%" stop-color="#878b8b"/><stop offset="9%" stop-color="#808484"/><stop offset="20%" stop-color="#a3a6a6"/><stop offset="49%" stop-color="#f6f6f6"/><stop offset="61%" stop-color="#f3f3f3"/><stop offset="70%" stop-color="#eaeaea"/><stop offset="77%" stop-color="#dbdbdb"/><stop offset="83%" stop-color="#c5c5c5"/><stop offset="90%" stop-color="#aaa"/><stop offset="95%" stop-color="#888"/><stop offset="100%" stop-color="#666"/></linearGradient></defs><g fill="none" fill-rule="nonzero" transform="translate(.467 .029)"><path fill="url(#a)" d="M.19 144.7S7 149 66.46 149.82c57.75.79 66.2-5.12 66.2-5.12V43s8-43-66.3-43C-6.94 0 .19 43 .19 43z"/><path fill="url(#b)" d="M64.804-28.055h3.57v132.06h-3.57z" transform="rotate(-90 66.59 37.975)"/><path fill="url(#c)" d="M66.004 69.375h3.57v133.12h-3.57z" transform="rotate(-90 67.79 135.935)"/><path fill="url(#d)" d="M25.859 29.18h21.01v2.92h-21.01z"/><path fill="url(#d)" d="M25.859 45.11h21.01v2.92h-21.01z"/><path fill="url(#d)" d="M25.859 61.04h21.01v2.92h-21.01z"/><path fill="url(#d)" d="M25.859 76.96h21.01v2.92h-21.01z"/><path fill="url(#d)" d="M25.859 92.89h21.01v2.92h-21.01z"/><path fill="url(#e)" d="M24.989 110.45h21.01v2.92h-21.01z"/><path fill="url(#d)" d="M25.859 126.46h21.01v2.92h-21.01z"/><path fill="url(#d)" d="M25.859 142.04h21.01v2.92h-21.01z"/><rect width="2.63" height="132.35" x="24.549" y="16.85" fill="url(#f)" rx=".13" transform="matrix(-1 0 0 -1 51.728 166.05)"/><rect width="2.63" height="132.35" x="45.999" y="17.65" fill="url(#f)" rx=".13" transform="matrix(-1 0 0 -1 94.628 167.65)"/></g></svg>