<svg xmlns="http://www.w3.org/2000/svg" viewBox="0 0 151 148"><title>Tank support 1（油箱支架）</title><defs><linearGradient id="a" x1="0%" x2="100%" y1="50.053%" y2="50.053%"><stop offset="0%" stop-color="#6b6b6b"/><stop offset="1%" stop-color="#767676"/><stop offset="3%" stop-color="#959595"/><stop offset="4%" stop-color="#aaa"/><stop offset="37%" stop-color="#ccc"/><stop offset="74%" stop-color="#eaeaea"/><stop offset="94%" stop-color="#f6f6f6"/><stop offset="95%" stop-color="#ededed"/><stop offset="96%" stop-color="#d4d4d4"/><stop offset="97%" stop-color="#ababab"/><stop offset="99%" stop-color="#737373"/><stop offset="99%" stop-color="#666"/></linearGradient><linearGradient id="b" x1="0%" x2="100%" y1="49.947%" y2="49.947%"><stop offset="0%" stop-color="#6b6b6b"/><stop offset="1%" stop-color="#767676"/><stop offset="3%" stop-color="#959595"/><stop offset="4%" stop-color="#aaa"/><stop offset="37%" stop-color="#ccc"/><stop offset="74%" stop-color="#eaeaea"/><stop offset="94%" stop-color="#f6f6f6"/><stop offset="95%" stop-color="#ededed"/><stop offset="96%" stop-color="#d4d4d4"/><stop offset="97%" stop-color="#ababab"/><stop offset="99%" stop-color="#737373"/><stop offset="99%" stop-color="#666"/></linearGradient><linearGradient id="c" x1=".022%" x2="100.342%" y1="50.383%" y2="50.383%"><stop offset="0%" stop-color="#6b6b6b"/><stop offset="1%" stop-color="#767676"/><stop offset="3%" stop-color="#959595"/><stop offset="4%" stop-color="#aaa"/><stop offset="37%" stop-color="#ccc"/><stop offset="74%" stop-color="#eaeaea"/><stop offset="94%" stop-color="#f6f6f6"/><stop offset="95%" stop-color="#ededed"/><stop offset="96%" stop-color="#d4d4d4"/><stop offset="97%" stop-color="#ababab"/><stop offset="99%" stop-color="#737373"/><stop offset="99%" stop-color="#666"/></linearGradient><linearGradient id="d" x1="94.427%" x2="-5.893%" y1="50%" y2="50%"><stop offset="0%" stop-color="#6b6b6b"/><stop offset="1%" stop-color="#767676"/><stop offset="3%" stop-color="#959595"/><stop offset="4%" stop-color="#aaa"/><stop offset="37%" stop-color="#ccc"/><stop offset="74%" stop-color="#eaeaea"/><stop offset="94%" stop-color="#f6f6f6"/><stop offset="95%" stop-color="#ededed"/><stop offset="96%" stop-color="#d4d4d4"/><stop offset="97%" stop-color="#ababab"/><stop offset="99%" stop-color="#737373"/><stop offset="99%" stop-color="#666"/></linearGradient><linearGradient id="e" x1="0%" x2="100%" y1="49.996%" y2="49.996%"><stop offset="0%" stop-color="#6b6b6b"/><stop offset="1%" stop-color="#767676"/><stop offset="3%" stop-color="#959595"/><stop offset="4%" stop-color="#aaa"/><stop offset="37%" stop-color="#ccc"/><stop offset="74%" stop-color="#eaeaea"/><stop offset="94%" stop-color="#f6f6f6"/><stop offset="95%" stop-color="#ededed"/><stop offset="96%" stop-color="#d4d4d4"/><stop offset="97%" stop-color="#ababab"/><stop offset="99%" stop-color="#737373"/><stop offset="99%" stop-color="#666"/></linearGradient><linearGradient id="f" x1="94.859%" x2="-5.461%" y1="49.983%" y2="49.983%"><stop offset="0%" stop-color="#6b6b6b"/><stop offset="1%" stop-color="#767676"/><stop offset="3%" stop-color="#959595"/><stop offset="4%" stop-color="#aaa"/><stop offset="37%" stop-color="#ccc"/><stop offset="74%" stop-color="#eaeaea"/><stop offset="94%" stop-color="#f6f6f6"/><stop offset="95%" stop-color="#ededed"/><stop offset="96%" stop-color="#d4d4d4"/><stop offset="97%" stop-color="#ababab"/><stop offset="99%" stop-color="#737373"/><stop offset="99%" stop-color="#666"/></linearGradient><linearGradient id="g" x1="49.9%" x2="50.1%" y1="50.001%" y2="49.997%"><stop offset="0%" stop-color="#6b6b6b"/><stop offset="1%" stop-color="#767676"/><stop offset="3%" stop-color="#959595"/><stop offset="4%" stop-color="#aaa"/><stop offset="37%" stop-color="#ccc"/><stop offset="74%" stop-color="#eaeaea"/><stop offset="94%" stop-color="#f6f6f6"/><stop offset="95%" stop-color="#ededed"/><stop offset="96%" stop-color="#d4d4d4"/><stop offset="97%" stop-color="#ababab"/><stop offset="99%" stop-color="#737373"/><stop offset="99%" stop-color="#666"/></linearGradient></defs><g fill="none" fill-rule="nonzero"><path fill="url(#a)" d="M12.28 35.17h6.67v9.41h-6.67z" transform="translate(.467 .029)"/><path fill="url(#b)" d="M12.28 96.48h6.67v9.41h-6.67z" transform="translate(.467 .029)"/><path fill="url(#a)" d="M134.19 34.98h6.67v9.41h-6.67z" transform="translate(.467 .029)"/><path fill="url(#b)" d="M134.19 96.29h6.67v9.41h-6.67z" transform="translate(.467 .029)"/><path fill="url(#c)" d="M75.261-13.387h7.87v173.49h-7.87z" transform="rotate(-45 79.465 72.809)"/><path fill="url(#d)" d="M72.429-11.895h7.87v179.49h-7.87z" transform="rotate(225 76.604 77.768)"/><path fill="url(#e)" d="M15.07 10.97h7.76v125.91h-7.76z" transform="translate(.467 .029)"/><path fill="#c1c1c1" d="M2.497 7.549h23.32v3.45H2.497zM.467.219h27.92v7.33H.467zm122.08-.19h27.92v7.33h-27.92zm-119.87 136.5h23.32v3.45H2.677z"/><path fill="#c1c1c1" d="M.647 139.969h27.92v7.33H.647z"/><path fill="url(#e)" d="M136.98 10.78h7.76v125.91h-7.76z" transform="translate(.467 .029)"/><path fill="#c1c1c1" d="M124.407 7.359h23.32v3.45h-23.32z"/><path fill="url(#f)" d="M65.63-11.434h7.87v169.35h-7.87z" transform="rotate(225 69.805 73.159)"/><path fill="url(#g)" d="M68.144-10.471h7.87v176.26h-7.87z" transform="rotate(-45 72.348 77.11)"/><path fill="url(#e)" d="M4.52 10.59h7.76V136.5H4.52z" transform="translate(.467 .029)"/><path fill="url(#e)" d="M126.43 10.4h7.76v125.91h-7.76z" transform="translate(.467 .029)"/><path fill="#c1c1c1" d="M124.587 136.339h23.32v3.45h-23.32z"/><path fill="#c1c1c1" d="M122.547 139.779h27.92v7.33h-27.92z"/></g></svg>