<svg xmlns="http://www.w3.org/2000/svg" viewBox="0 0 88 150"><title>Tank with rivets（带铆钉的油箱）</title><defs><linearGradient id="a" x1="0%" x2="100.012%" y1="50.018%" y2="50.018%"><stop offset="0%" stop-color="#e2e2e2"/><stop offset="3%" stop-color="#d0d0d0"/><stop offset="6%" stop-color="#bcbcbc"/><stop offset="9%" stop-color="#b5b5b5"/><stop offset="49%" stop-color="#f6f6f6"/><stop offset="63%" stop-color="#f3f3f3"/><stop offset="73%" stop-color="#eaeaea"/><stop offset="82%" stop-color="#dbdbdb"/><stop offset="90%" stop-color="#c6c6c6"/><stop offset="97%" stop-color="#aaa"/><stop offset="100%" stop-color="#9b9b9b"/></linearGradient><linearGradient id="b" x1=".012%" x2="99.999%" y1="50.012%" y2="50.012%"><stop offset="0%" stop-color="#e2e2e2"/><stop offset="3%" stop-color="#d0d0d0"/><stop offset="6%" stop-color="#bcbcbc"/><stop offset="9%" stop-color="#b5b5b5"/><stop offset="49%" stop-color="#f6f6f6"/><stop offset="63%" stop-color="#f3f3f3"/><stop offset="73%" stop-color="#eaeaea"/><stop offset="82%" stop-color="#dbdbdb"/><stop offset="90%" stop-color="#c6c6c6"/><stop offset="97%" stop-color="#aaa"/><stop offset="100%" stop-color="#9b9b9b"/></linearGradient><linearGradient id="c" x1="0%" x2="100.012%" y1="49.894%" y2="49.894%"><stop offset="0%" stop-color="#6b6b6b"/><stop offset="11%" stop-color="#767676"/><stop offset="30%" stop-color="#959595"/><stop offset="41%" stop-color="#aaa"/><stop offset="56%" stop-color="#ccc"/><stop offset="71%" stop-color="#eaeaea"/><stop offset="80%" stop-color="#f6f6f6"/><stop offset="83%" stop-color="#ededed"/><stop offset="87%" stop-color="#d4d4d4"/><stop offset="92%" stop-color="#ababab"/><stop offset="98%" stop-color="#737373"/><stop offset="99%" stop-color="#666"/></linearGradient><linearGradient id="d" x1="0%" x2="100%" y1="50%" y2="50%"><stop offset="0%" stop-color="#e2e2e2"/><stop offset="3%" stop-color="#d0d0d0"/><stop offset="6%" stop-color="#bcbcbc"/><stop offset="9%" stop-color="#b5b5b5"/><stop offset="49%" stop-color="#f6f6f6"/><stop offset="63%" stop-color="#f3f3f3"/><stop offset="73%" stop-color="#eaeaea"/><stop offset="82%" stop-color="#dbdbdb"/><stop offset="90%" stop-color="#c6c6c6"/><stop offset="97%" stop-color="#aaa"/><stop offset="100%" stop-color="#9b9b9b"/></linearGradient><linearGradient id="e" x1="0%" x2="100.337%" y1="49.798%" y2="49.798%"><stop offset="0%" stop-color="#6b6b6b"/><stop offset="11%" stop-color="#767676"/><stop offset="30%" stop-color="#959595"/><stop offset="41%" stop-color="#aaa"/><stop offset="56%" stop-color="#ccc"/><stop offset="71%" stop-color="#eaeaea"/><stop offset="80%" stop-color="#f6f6f6"/><stop offset="83%" stop-color="#ededed"/><stop offset="87%" stop-color="#d4d4d4"/><stop offset="92%" stop-color="#ababab"/><stop offset="98%" stop-color="#737373"/><stop offset="99%" stop-color="#666"/></linearGradient><linearGradient id="f" x1="0%" x2="100%" y1="50%" y2="50%"><stop offset="0%" stop-color="#e2e2e2"/><stop offset="3%" stop-color="#d0d0d0"/><stop offset="6%" stop-color="#bcbcbc"/><stop offset="9%" stop-color="#b5b5b5"/><stop offset="49%" stop-color="#f6f6f6"/><stop offset="63%" stop-color="#f3f3f3"/><stop offset="73%" stop-color="#eaeaea"/><stop offset="82%" stop-color="#dbdbdb"/><stop offset="90%" stop-color="#c6c6c6"/><stop offset="97%" stop-color="#aaa"/><stop offset="100%" stop-color="#9b9b9b"/></linearGradient><linearGradient id="g" x1="0%" x2="100%" y1="49.798%" y2="49.798%"><stop offset="0%" stop-color="#6b6b6b"/><stop offset="11%" stop-color="#767676"/><stop offset="30%" stop-color="#959595"/><stop offset="41%" stop-color="#aaa"/><stop offset="56%" stop-color="#ccc"/><stop offset="71%" stop-color="#eaeaea"/><stop offset="80%" stop-color="#f6f6f6"/><stop offset="83%" stop-color="#ededed"/><stop offset="87%" stop-color="#d4d4d4"/><stop offset="92%" stop-color="#ababab"/><stop offset="98%" stop-color="#737373"/><stop offset="99%" stop-color="#666"/></linearGradient><linearGradient id="h" x1="0%" x2="100.249%" y1="50%" y2="50%"><stop offset="0%" stop-color="#e2e2e2"/><stop offset="3%" stop-color="#d0d0d0"/><stop offset="6%" stop-color="#bcbcbc"/><stop offset="9%" stop-color="#b5b5b5"/><stop offset="49%" stop-color="#f6f6f6"/><stop offset="63%" stop-color="#f3f3f3"/><stop offset="73%" stop-color="#eaeaea"/><stop offset="82%" stop-color="#dbdbdb"/><stop offset="90%" stop-color="#c6c6c6"/><stop offset="97%" stop-color="#aaa"/><stop offset="100%" stop-color="#9b9b9b"/></linearGradient><linearGradient id="i" x1="-.249%" x2="100%" y1="50%" y2="50%"><stop offset="0%" stop-color="#e2e2e2"/><stop offset="3%" stop-color="#d0d0d0"/><stop offset="6%" stop-color="#bcbcbc"/><stop offset="9%" stop-color="#b5b5b5"/><stop offset="49%" stop-color="#f6f6f6"/><stop offset="63%" stop-color="#f3f3f3"/><stop offset="73%" stop-color="#eaeaea"/><stop offset="82%" stop-color="#dbdbdb"/><stop offset="90%" stop-color="#c6c6c6"/><stop offset="97%" stop-color="#aaa"/><stop offset="100%" stop-color="#9b9b9b"/></linearGradient><linearGradient id="j" x1="0%" x2="99.99%" y1="50.114%" y2="50.114%"><stop offset="0%" stop-color="#e2e2e2"/><stop offset="3%" stop-color="#d0d0d0"/><stop offset="6%" stop-color="#bcbcbc"/><stop offset="9%" stop-color="#b5b5b5"/><stop offset="49%" stop-color="#f6f6f6"/><stop offset="63%" stop-color="#f3f3f3"/><stop offset="73%" stop-color="#eaeaea"/><stop offset="82%" stop-color="#dbdbdb"/><stop offset="90%" stop-color="#c6c6c6"/><stop offset="97%" stop-color="#aaa"/><stop offset="100%" stop-color="#9b9b9b"/></linearGradient><linearGradient id="k" x1="-.01%" x2="99.99%" y1="50.37%" y2="50.37%"><stop offset="0%" stop-color="#b7b7b7"/><stop offset="3%" stop-color="#9b9d9d"/><stop offset="7%" stop-color="#878b8b"/><stop offset="9%" stop-color="#808484"/><stop offset="20%" stop-color="#a3a6a6"/><stop offset="49%" stop-color="#f6f6f6"/><stop offset="61%" stop-color="#f3f3f3"/><stop offset="70%" stop-color="#eaeaea"/><stop offset="77%" stop-color="#dbdbdb"/><stop offset="83%" stop-color="#c5c5c5"/><stop offset="90%" stop-color="#aaa"/><stop offset="95%" stop-color="#888"/><stop offset="100%" stop-color="#666"/></linearGradient><linearGradient id="l" x1="0%" x2="100%" y1="50.106%" y2="50.106%"><stop offset="0%" stop-color="#6b6b6b"/><stop offset="11%" stop-color="#767676"/><stop offset="30%" stop-color="#959595"/><stop offset="41%" stop-color="#aaa"/><stop offset="56%" stop-color="#ccc"/><stop offset="71%" stop-color="#eaeaea"/><stop offset="80%" stop-color="#f6f6f6"/><stop offset="83%" stop-color="#ededed"/><stop offset="87%" stop-color="#d4d4d4"/><stop offset="92%" stop-color="#ababab"/><stop offset="98%" stop-color="#737373"/><stop offset="99%" stop-color="#666"/></linearGradient><linearGradient id="m" x1="0%" x2="100%" y1="50%" y2="50%"><stop offset="0%" stop-color="#b7b7b7"/><stop offset="3%" stop-color="#9b9d9d"/><stop offset="7%" stop-color="#878b8b"/><stop offset="9%" stop-color="#808484"/><stop offset="20%" stop-color="#a3a6a6"/><stop offset="49%" stop-color="#f6f6f6"/><stop offset="61%" stop-color="#f3f3f3"/><stop offset="70%" stop-color="#eaeaea"/><stop offset="77%" stop-color="#dbdbdb"/><stop offset="83%" stop-color="#c5c5c5"/><stop offset="90%" stop-color="#aaa"/><stop offset="95%" stop-color="#888"/><stop offset="100%" stop-color="#666"/></linearGradient><linearGradient id="n" x1="0%" x2="100%" y1="50%" y2="50%"><stop offset="0%" stop-color="#b7b7b7"/><stop offset="3%" stop-color="#9b9d9d"/><stop offset="7%" stop-color="#878b8b"/><stop offset="9%" stop-color="#808484"/><stop offset="20%" stop-color="#a3a6a6"/><stop offset="49%" stop-color="#f6f6f6"/><stop offset="61%" stop-color="#f3f3f3"/><stop offset="70%" stop-color="#eaeaea"/><stop offset="77%" stop-color="#dbdbdb"/><stop offset="83%" stop-color="#c5c5c5"/><stop offset="90%" stop-color="#aaa"/><stop offset="95%" stop-color="#888"/><stop offset="100%" stop-color="#666"/></linearGradient><linearGradient id="o" x1="0%" x2="100%" y1="50%" y2="50%"><stop offset="0%" stop-color="#6b6b6b"/><stop offset="11%" stop-color="#767676"/><stop offset="30%" stop-color="#959595"/><stop offset="41%" stop-color="#aaa"/><stop offset="56%" stop-color="#ccc"/><stop offset="71%" stop-color="#eaeaea"/><stop offset="80%" stop-color="#f6f6f6"/><stop offset="83%" stop-color="#ededed"/><stop offset="87%" stop-color="#d4d4d4"/><stop offset="92%" stop-color="#ababab"/><stop offset="98%" stop-color="#737373"/><stop offset="99%" stop-color="#666"/></linearGradient><linearGradient id="p" x1="0%" x2="100%" y1="50%" y2="50%"><stop offset="0%" stop-color="#6b6b6b"/><stop offset="11%" stop-color="#767676"/><stop offset="30%" stop-color="#959595"/><stop offset="41%" stop-color="#aaa"/><stop offset="56%" stop-color="#ccc"/><stop offset="71%" stop-color="#eaeaea"/><stop offset="80%" stop-color="#f6f6f6"/><stop offset="83%" stop-color="#ededed"/><stop offset="87%" stop-color="#d4d4d4"/><stop offset="92%" stop-color="#ababab"/><stop offset="98%" stop-color="#737373"/><stop offset="99%" stop-color="#666"/></linearGradient><linearGradient id="q" x1="0%" x2="100.337%" y1="50%" y2="50%"><stop offset="0%" stop-color="#6b6b6b"/><stop offset="11%" stop-color="#767676"/><stop offset="30%" stop-color="#959595"/><stop offset="41%" stop-color="#aaa"/><stop offset="56%" stop-color="#ccc"/><stop offset="71%" stop-color="#eaeaea"/><stop offset="80%" stop-color="#f6f6f6"/><stop offset="83%" stop-color="#ededed"/><stop offset="87%" stop-color="#d4d4d4"/><stop offset="92%" stop-color="#ababab"/><stop offset="98%" stop-color="#737373"/><stop offset="99%" stop-color="#666"/></linearGradient><linearGradient id="r" x1="50.258%" x2="50.258%" y1="0%" y2="100.249%"><stop offset="0%" stop-color="#e2e2e2"/><stop offset="3%" stop-color="#d0d0d0"/><stop offset="6%" stop-color="#bcbcbc"/><stop offset="9%" stop-color="#b5b5b5"/><stop offset="49%" stop-color="#f6f6f6"/><stop offset="63%" stop-color="#f3f3f3"/><stop offset="73%" stop-color="#eaeaea"/><stop offset="82%" stop-color="#dbdbdb"/><stop offset="90%" stop-color="#c6c6c6"/><stop offset="97%" stop-color="#aaa"/><stop offset="100%" stop-color="#9b9b9b"/></linearGradient><linearGradient id="s" x1="50.403%" x2="50.403%" y1="0%" y2="100%"><stop offset="0%" stop-color="#6b6b6b"/><stop offset="11%" stop-color="#767676"/><stop offset="30%" stop-color="#959595"/><stop offset="41%" stop-color="#aaa"/><stop offset="56%" stop-color="#ccc"/><stop offset="71%" stop-color="#eaeaea"/><stop offset="80%" stop-color="#f6f6f6"/><stop offset="83%" stop-color="#ededed"/><stop offset="87%" stop-color="#d4d4d4"/><stop offset="92%" stop-color="#ababab"/><stop offset="98%" stop-color="#737373"/><stop offset="99%" stop-color="#666"/></linearGradient><linearGradient id="t" x1="50.403%" x2="50.403%" y1="0%" y2="100%"><stop offset="0%" stop-color="#6b6b6b"/><stop offset="11%" stop-color="#767676"/><stop offset="30%" stop-color="#959595"/><stop offset="41%" stop-color="#aaa"/><stop offset="56%" stop-color="#ccc"/><stop offset="71%" stop-color="#eaeaea"/><stop offset="80%" stop-color="#f6f6f6"/><stop offset="83%" stop-color="#ededed"/><stop offset="87%" stop-color="#d4d4d4"/><stop offset="92%" stop-color="#ababab"/><stop offset="98%" stop-color="#737373"/><stop offset="99%" stop-color="#666"/></linearGradient><linearGradient id="u" x1="50.258%" x2="50.258%" y1="0%" y2="100.249%"><stop offset="0%" stop-color="#e2e2e2"/><stop offset="3%" stop-color="#d0d0d0"/><stop offset="6%" stop-color="#bcbcbc"/><stop offset="9%" stop-color="#b5b5b5"/><stop offset="49%" stop-color="#f6f6f6"/><stop offset="63%" stop-color="#f3f3f3"/><stop offset="73%" stop-color="#eaeaea"/><stop offset="82%" stop-color="#dbdbdb"/><stop offset="90%" stop-color="#c6c6c6"/><stop offset="97%" stop-color="#aaa"/><stop offset="100%" stop-color="#9b9b9b"/></linearGradient><linearGradient id="v" x1="50.403%" x2="50.403%" y1=".336%" y2="100%"><stop offset="0%" stop-color="#6b6b6b"/><stop offset="11%" stop-color="#767676"/><stop offset="30%" stop-color="#959595"/><stop offset="41%" stop-color="#aaa"/><stop offset="56%" stop-color="#ccc"/><stop offset="71%" stop-color="#eaeaea"/><stop offset="80%" stop-color="#f6f6f6"/><stop offset="83%" stop-color="#ededed"/><stop offset="87%" stop-color="#d4d4d4"/><stop offset="92%" stop-color="#ababab"/><stop offset="98%" stop-color="#737373"/><stop offset="99%" stop-color="#666"/></linearGradient></defs><g fill="none" fill-rule="nonzero" transform="translate(.467 .029)"><path fill="url(#a)" d="M87.12 18.25v112s0 18.11-43.17 18.49C1.91 149.15.77 130.29.77 130.29v-112S2.06.27 43.39.24C86.57.21 87.12 18.25 87.12 18.25"/><path fill="url(#b)" d="M87.13 21.8v107s.85 20.56-42.4 20.92C2.62 150.11.62 128.83.62 128.83V21.8S2.47 0 43.87 0c43.26 0 43.26 21.8 43.26 21.8"/><path fill="url(#c)" d="M.8 20.35h86.48v4.73H.8z"/><ellipse cx="5.69" cy="22.71" fill="url(#d)" rx="2.01" ry="1.94"/><path fill="url(#e)" d="M6.43 21.48H4.95l-.75 1.23.75 1.24h1.48l.74-1.24z"/><ellipse cx="15.28" cy="22.71" fill="url(#f)" rx="2.01" ry="1.94"/><path fill="url(#g)" d="M16.02 21.48h-1.48l-.74 1.23.74 1.24h1.48l.75-1.24z"/><ellipse cx="24.87" cy="22.71" fill="url(#h)" rx="2.01" ry="1.94"/><path fill="url(#g)" d="M25.62 21.48h-1.49l-.74 1.23.74 1.24h1.49l.74-1.24z"/><ellipse cx="34.47" cy="22.71" fill="url(#i)" rx="2.01" ry="1.94"/><path fill="url(#g)" d="M35.21 21.48h-1.49l-.74 1.23.74 1.24h1.49l.74-1.24z"/><ellipse cx="44.06" cy="22.71" fill="url(#i)" rx="2.01" ry="1.94"/><path fill="url(#g)" d="M44.8 21.48h-1.49l-.74 1.23.74 1.24h1.49l.74-1.24z"/><ellipse cx="53.65" cy="22.71" fill="url(#f)" rx="2.01" ry="1.94"/><path fill="url(#e)" d="M54.39 21.48h-1.48l-.75 1.23.75 1.24h1.48l.74-1.24z"/><ellipse cx="63.24" cy="22.71" fill="url(#d)" rx="2.01" ry="1.94"/><path fill="url(#g)" d="M63.98 21.48H62.5l-.74 1.23.74 1.24h1.48l.75-1.24z"/><ellipse cx="72.83" cy="22.71" fill="url(#h)" rx="2.01" ry="1.94"/><path fill="url(#g)" d="M73.58 21.48h-1.49l-.74 1.23.74 1.24h1.49l.74-1.24z"/><ellipse cx="82.43" cy="22.71" fill="url(#i)" rx="2.01" ry="1.94"/><path fill="url(#g)" d="M83.17 21.48h-1.49l-.74 1.23.74 1.24h1.49l.74-1.24z"/><path fill="url(#j)" d="M-19.095 73.145h98.36v4.39h-98.36z" transform="rotate(90 30.085 75.34)"/><path fill="url(#k)" d="M-21.965 74.315h98.36v1.35h-98.36z" transform="rotate(90 27.215 74.99)"/><path fill="url(#l)" d="M.31 123.61h87v4.73h-87z"/><path fill="url(#m)" d="M0 128.34h87v1.46H0z"/><path fill="url(#n)" d="M.8 25.08h86.51v1.46H.8z"/><ellipse cx="5.44" cy="125.97" fill="url(#d)" rx="2.01" ry="1.94"/><path fill="url(#o)" d="M6.18 124.73H4.7l-.75 1.24.75 1.24h1.48l.75-1.24z"/><ellipse cx="15.03" cy="125.97" fill="url(#h)" rx="2.01" ry="1.94"/><path fill="url(#p)" d="M15.78 124.73h-1.49l-.74 1.24.74 1.24h1.49l.74-1.24z"/><ellipse cx="24.62" cy="125.97" fill="url(#h)" rx="2.01" ry="1.94"/><path fill="url(#p)" d="M25.37 124.73h-1.49l-.74 1.24.74 1.24h1.49l.74-1.24z"/><ellipse cx="34.22" cy="125.97" fill="url(#i)" rx="2.01" ry="1.94"/><path fill="url(#p)" d="M34.96 124.73h-1.49l-.74 1.24.74 1.24h1.49l.74-1.24z"/><ellipse cx="43.81" cy="125.97" fill="url(#i)" rx="2.01" ry="1.94"/><path fill="url(#p)" d="M44.55 124.73h-1.49l-.74 1.24.74 1.24h1.49l.74-1.24z"/><ellipse cx="53.4" cy="125.97" fill="url(#f)" rx="2.01" ry="1.94"/><path fill="url(#q)" d="M54.14 124.73h-1.48l-.75 1.24.75 1.24h1.48l.74-1.24z"/><ellipse cx="62.99" cy="125.97" fill="url(#d)" rx="2.01" ry="1.94"/><path fill="url(#p)" d="M63.73 124.73h-1.48l-.74 1.24.74 1.24h1.48l.75-1.24z"/><ellipse cx="72.58" cy="125.97" fill="url(#h)" rx="2.01" ry="1.94"/><path fill="url(#p)" d="M73.33 124.73h-1.49l-.74 1.24.74 1.24h1.49l.74-1.24z"/><ellipse cx="82.18" cy="125.97" fill="url(#i)" rx="2.01" ry="1.94"/><path fill="url(#p)" d="M82.92 124.73h-1.49l-.74 1.24.74 1.24h1.49l.74-1.24z"/><ellipse cx="30.08" cy="30.62" fill="url(#r)" rx="1.94" ry="2.01"/><path fill="url(#s)" d="M31.32 31.36v-1.48l-1.24-.74-1.24.74v1.48l1.24.75z"/><ellipse cx="30.08" cy="41.8" fill="url(#r)" rx="1.94" ry="2.01"/><path fill="url(#t)" d="M31.32 42.55v-1.49l-1.24-.74-1.24.74v1.49l1.24.74z"/><ellipse cx="30.08" cy="52.98" fill="url(#r)" rx="1.94" ry="2.01"/><path fill="url(#t)" d="M31.32 53.73v-1.49l-1.24-.74-1.24.74v1.49l1.24.74z"/><ellipse cx="30.08" cy="64.16" fill="url(#u)" rx="1.94" ry="2.01"/><path fill="url(#t)" d="M31.32 64.91v-1.49l-1.24-.74-1.24.74v1.49l1.24.74z"/><ellipse cx="30.08" cy="75.34" fill="url(#r)" rx="1.94" ry="2.01"/><path fill="url(#t)" d="M31.32 76.08V74.6l-1.24-.74-1.24.74v1.48l1.24.75z"/><ellipse cx="30.08" cy="86.52" fill="url(#r)" rx="1.94" ry="2.01"/><path fill="url(#t)" d="M31.32 87.26v-1.48l-1.24-.74-1.24.74v1.48l1.24.75z"/><ellipse cx="30.08" cy="97.7" fill="url(#r)" rx="1.94" ry="2.01"/><path fill="url(#t)" d="M31.32 98.44v-1.48l-1.24-.74-1.24.74v1.48l1.24.75z"/><ellipse cx="30.08" cy="108.88" fill="url(#r)" rx="1.94" ry="2.01"/><path fill="url(#v)" d="M31.32 109.62v-1.48l-1.24-.75-1.24.75v1.48l1.24.75z"/><ellipse cx="30.08" cy="120.06" fill="url(#r)" rx="1.94" ry="2.01"/><path fill="url(#t)" d="M31.32 120.8v-1.48l-1.24-.74-1.24.74v1.48l1.24.75z"/></g></svg>