<svg xmlns="http://www.w3.org/2000/svg" viewBox="0 0 79 151"><title>Tank with cutaway（带剖面的水箱）</title><defs><linearGradient id="a" x1="0%" x2="100%" y1="50.001%" y2="50.001%"><stop offset="0%" stop-color="#e2e2e2"/><stop offset="3%" stop-color="#d0d0d0"/><stop offset="6%" stop-color="#bcbcbc"/><stop offset="9%" stop-color="#b5b5b5"/><stop offset="49%" stop-color="#f6f6f6"/><stop offset="63%" stop-color="#f3f3f3"/><stop offset="73%" stop-color="#eaeaea"/><stop offset="82%" stop-color="#dbdbdb"/><stop offset="90%" stop-color="#c6c6c6"/><stop offset="97%" stop-color="#aaa"/><stop offset="100%" stop-color="#9b9b9b"/></linearGradient><linearGradient id="b" x1="50.179%" x2="50.179%" y1="100%" y2="0%"><stop offset="0%" stop-color="#b7b7b7"/><stop offset="3%" stop-color="#9b9d9d"/><stop offset="7%" stop-color="#878b8b"/><stop offset="9%" stop-color="#808484"/><stop offset="20%" stop-color="#a3a6a6"/><stop offset="49%" stop-color="#f6f6f6"/><stop offset="61%" stop-color="#f3f3f3"/><stop offset="70%" stop-color="#eaeaea"/><stop offset="77%" stop-color="#dbdbdb"/><stop offset="83%" stop-color="#c5c5c5"/><stop offset="90%" stop-color="#aaa"/><stop offset="95%" stop-color="#888"/><stop offset="100%" stop-color="#666"/></linearGradient><linearGradient id="c" x1="50.179%" x2="50.179%" y1="100%" y2="0%"><stop offset="0%" stop-color="#b7b7b7"/><stop offset="3%" stop-color="#9b9d9d"/><stop offset="7%" stop-color="#878b8b"/><stop offset="9%" stop-color="#808484"/><stop offset="20%" stop-color="#a3a6a6"/><stop offset="49%" stop-color="#f6f6f6"/><stop offset="61%" stop-color="#f3f3f3"/><stop offset="70%" stop-color="#eaeaea"/><stop offset="77%" stop-color="#dbdbdb"/><stop offset="83%" stop-color="#c5c5c5"/><stop offset="90%" stop-color="#aaa"/><stop offset="95%" stop-color="#888"/><stop offset="100%" stop-color="#666"/></linearGradient></defs><g fill="none" fill-rule="nonzero"><path fill="url(#a)" d="M77.9 18.15V131.7s0 17.91-38.73 18.29C1.46 150.37.43 131.7.43 131.7V18.15S2.09 0 39.17 0C77.9 0 77.9 18.15 77.9 18.15" transform="translate(.467 .029)"/><path fill="url(#b)" d="M37.625-17.265h2.79v78.04h-2.79z" transform="rotate(-90 39.268 21.536)"/><path fill="url(#c)" d="M37.695 89.715h2.79v78.04h-2.79z" transform="rotate(-90 39.338 128.516)"/><path fill="#dadbe0" d="M7.737 25.549h63.26v99.54H7.737z"/><path fill="#a0a0a0" d="M11.097 28.909h56.17v92.47h-56.17z"/></g></svg>