<svg xmlns="http://www.w3.org/2000/svg" viewBox="0 0 135 151"><title>tank(油箱)</title><defs><linearGradient id="a" x1="0%" x2="100%" y1="50%" y2="50%"><stop offset="0%" stop-color="#e2e2e2"/><stop offset="3%" stop-color="#d0d0d0"/><stop offset="6%" stop-color="#bcbcbc"/><stop offset="9%" stop-color="#b5b5b5"/><stop offset="49%" stop-color="#f6f6f6"/><stop offset="63%" stop-color="#f3f3f3"/><stop offset="73%" stop-color="#eaeaea"/><stop offset="82%" stop-color="#dbdbdb"/><stop offset="90%" stop-color="#c6c6c6"/><stop offset="97%" stop-color="#aaa"/><stop offset="100%" stop-color="#9b9b9b"/></linearGradient><linearGradient id="b" x1="0%" x2="100%" y1="49.996%" y2="49.996%"><stop offset="0%" stop-color="#b7b7b7"/><stop offset="3%" stop-color="#9b9d9d"/><stop offset="7%" stop-color="#878b8b"/><stop offset="9%" stop-color="#808484"/><stop offset="20%" stop-color="#a3a6a6"/><stop offset="49%" stop-color="#f6f6f6"/><stop offset="61%" stop-color="#f3f3f3"/><stop offset="70%" stop-color="#eaeaea"/><stop offset="77%" stop-color="#dbdbdb"/><stop offset="83%" stop-color="#c5c5c5"/><stop offset="90%" stop-color="#aaa"/><stop offset="95%" stop-color="#888"/><stop offset="100%" stop-color="#666"/></linearGradient><linearGradient id="c" x1="0%" x2="100%" y1="49.996%" y2="49.996%"><stop offset="0%" stop-color="#b7b7b7"/><stop offset="3%" stop-color="#9b9d9d"/><stop offset="7%" stop-color="#878b8b"/><stop offset="9%" stop-color="#808484"/><stop offset="20%" stop-color="#a3a6a6"/><stop offset="49%" stop-color="#f6f6f6"/><stop offset="61%" stop-color="#f3f3f3"/><stop offset="70%" stop-color="#eaeaea"/><stop offset="77%" stop-color="#dbdbdb"/><stop offset="83%" stop-color="#c5c5c5"/><stop offset="90%" stop-color="#aaa"/><stop offset="95%" stop-color="#888"/><stop offset="100%" stop-color="#666"/></linearGradient><linearGradient id="d" x1="0%" x2="100.235%" y1="49.996%" y2="49.996%"><stop offset="0%" stop-color="#b7b7b7"/><stop offset="3%" stop-color="#9b9d9d"/><stop offset="7%" stop-color="#878b8b"/><stop offset="9%" stop-color="#808484"/><stop offset="20%" stop-color="#a3a6a6"/><stop offset="49%" stop-color="#f6f6f6"/><stop offset="61%" stop-color="#f3f3f3"/><stop offset="70%" stop-color="#eaeaea"/><stop offset="77%" stop-color="#dbdbdb"/><stop offset="83%" stop-color="#c5c5c5"/><stop offset="90%" stop-color="#aaa"/><stop offset="95%" stop-color="#888"/><stop offset="100%" stop-color="#666"/></linearGradient><linearGradient id="e" x1="0%" x2="100.235%" y1="49.996%" y2="49.996%"><stop offset="0%" stop-color="#b7b7b7"/><stop offset="3%" stop-color="#9b9d9d"/><stop offset="7%" stop-color="#878b8b"/><stop offset="9%" stop-color="#808484"/><stop offset="20%" stop-color="#a3a6a6"/><stop offset="49%" stop-color="#f6f6f6"/><stop offset="61%" stop-color="#f3f3f3"/><stop offset="70%" stop-color="#eaeaea"/><stop offset="77%" stop-color="#dbdbdb"/><stop offset="83%" stop-color="#c5c5c5"/><stop offset="90%" stop-color="#aaa"/><stop offset="95%" stop-color="#888"/><stop offset="100%" stop-color="#666"/></linearGradient></defs><g fill="none" fill-rule="nonzero" transform="translate(.467 .029)"><rect width="134.34" height="150" fill="url(#a)" rx="1.98"/><path fill="url(#b)" d="M8.8 12.15h4.26V138H8.8z" transform="matrix(-1 0 0 -1 21.86 150.15)"/><path fill="url(#c)" d="M22.44 12.15h4.26V138h-4.26z" transform="matrix(-1 0 0 -1 49.14 150.15)"/><path fill="url(#c)" d="M36.08 12.15h4.26V138h-4.26z" transform="matrix(-1 0 0 -1 76.42 150.15)"/><path fill="url(#d)" d="M49.73 12.15h4.26V138h-4.26z" transform="matrix(-1 0 0 -1 103.72 150.15)"/><path fill="url(#c)" d="M63.78 12.15h4.26V138h-4.26z" transform="matrix(-1 0 0 -1 131.82 150.15)"/><path fill="url(#e)" d="M78.6 12.15h4.26V138H78.6z" transform="matrix(-1 0 0 -1 161.46 150.15)"/><path fill="url(#d)" d="M93.36 12.15h4.26V138h-4.26z" transform="matrix(-1 0 0 -1 190.98 150.15)"/><path fill="url(#b)" d="M105.88 12.15h4.26V138h-4.26z" transform="matrix(-1 0 0 -1 216.02 150.15)"/><path fill="url(#e)" d="M118.41 12.15h4.26V138h-4.26z" transform="matrix(-1 0 0 -1 241.08 150.15)"/></g></svg>