<svg xmlns="http://www.w3.org/2000/svg" viewBox="0 0 151 144"><title>Automatic chucker (自动卡盘)</title><defs><linearGradient id="a" x1="0%" x2="100%" y1="50%" y2="50%"><stop offset="0%" stop-color="#e2e2e2"/><stop offset="3%" stop-color="#d0d0d0"/><stop offset="6%" stop-color="#bcbcbc"/><stop offset="9%" stop-color="#b5b5b5"/><stop offset="49%" stop-color="#f6f6f6"/><stop offset="63%" stop-color="#f3f3f3"/><stop offset="73%" stop-color="#eaeaea"/><stop offset="82%" stop-color="#dbdbdb"/><stop offset="90%" stop-color="#c6c6c6"/><stop offset="97%" stop-color="#aaa"/><stop offset="100%" stop-color="#9b9b9b"/></linearGradient><linearGradient id="b" x1="50%" x2="50%" y1="100%" y2="0%"><stop offset="0%" stop-color="#e2e2e2"/><stop offset="3%" stop-color="#d0d0d0"/><stop offset="6%" stop-color="#bcbcbc"/><stop offset="9%" stop-color="#b5b5b5"/><stop offset="49%" stop-color="#f6f6f6"/><stop offset="63%" stop-color="#f3f3f3"/><stop offset="73%" stop-color="#eaeaea"/><stop offset="82%" stop-color="#dbdbdb"/><stop offset="90%" stop-color="#c6c6c6"/><stop offset="97%" stop-color="#aaa"/><stop offset="100%" stop-color="#9b9b9b"/></linearGradient><linearGradient id="c" x1="50.04%" x2="50.04%" y1="100%" y2="0%"><stop offset="0%" stop-color="#e2e2e2"/><stop offset="3%" stop-color="#d0d0d0"/><stop offset="6%" stop-color="#bcbcbc"/><stop offset="9%" stop-color="#b5b5b5"/><stop offset="49%" stop-color="#f6f6f6"/><stop offset="63%" stop-color="#f3f3f3"/><stop offset="73%" stop-color="#eaeaea"/><stop offset="82%" stop-color="#dbdbdb"/><stop offset="90%" stop-color="#c6c6c6"/><stop offset="97%" stop-color="#aaa"/><stop offset="100%" stop-color="#9b9b9b"/></linearGradient></defs><g fill="none" fill-rule="evenodd"><path fill="#6d6d6d" fill-rule="nonzero" d="M82.46 5.283h6.83v56.28h-6.83zm6.83 4.59h10.29v56.28H89.29zM0 123.083h150.09v10.33H0z"/><path fill="#bdbdbd" fill-rule="nonzero" d="M15.54.033h38.95v51.81H15.54zM82.47.033v123.05H54.98V.033"/><path fill="#bdbdbd" fill-rule="nonzero" d="M0 51.843h54.98v71.24H0zm82.46 9.71h67.63v61.52H82.46z"/><path stroke="#5e5e5e" d="M82.47.033v123.05H54.98V.033m0 51.81H15.54"/><path fill="#6d6d6d" fill-rule="nonzero" d="M0 127.293h5.63v16.52H0zm144.46 0h5.63v16.52h-5.63zm-103.55 4.1h5.21v12.43h-5.21zm64.99 0h5.21v12.43h-5.21z"/><path fill="#686868" fill-rule="nonzero" stroke="#42403f" d="M59.19 5.283h19.3v27.49h-19.3zm0 39.89h4.2v26.1h-4.2z"/><path fill="#848484" fill-rule="nonzero" d="M4.21 55.913h11.33v26.8H4.21zm17.61 0h11.33v26.8H21.82zm17.61 0h11.33v26.8H39.43zM19.5 3.033h11.33v26.8H19.5zm17.74 0h11.33v26.8H37.24z"/><path fill="url(#a)" fill-rule="nonzero" d="M83.14 45.14h3.15v16.38h-3.15z" transform="translate(0 .033)"/><path fill="url(#a)" fill-rule="nonzero" d="M92.97 45.14h3.15v16.38h-3.15z" transform="translate(0 .033)"/><path fill="#6d6d6d" fill-rule="nonzero" d="M89.29 9.873h14.36v14.36H89.29z"/><path fill="url(#b)" fill-rule="nonzero" d="M82.46 16.4h13.66v28.74H82.46z" transform="translate(0 .033)"/><path fill="url(#c)" fill-rule="nonzero" d="M96.12 16.4h12.43v10.62H96.12z" transform="translate(0 .033)"/></g></svg>