<svg xmlns="http://www.w3.org/2000/svg" viewBox="0 0 131 151"><title>CNC coordinate measuring(数控坐标测量)</title><defs><linearGradient id="a" x1="0%" x2="100%" y1="50%" y2="50%"><stop offset="0%" stop-color="#e2e2e2"/><stop offset="3%" stop-color="#d0d0d0"/><stop offset="6%" stop-color="#bcbcbc"/><stop offset="9%" stop-color="#b5b5b5"/><stop offset="49%" stop-color="#f6f6f6"/><stop offset="63%" stop-color="#f3f3f3"/><stop offset="73%" stop-color="#eaeaea"/><stop offset="82%" stop-color="#dbdbdb"/><stop offset="90%" stop-color="#c6c6c6"/><stop offset="97%" stop-color="#aaa"/><stop offset="100%" stop-color="#9b9b9b"/></linearGradient><linearGradient id="b" x1="0%" x2="99.635%" y1="50%" y2="50%"><stop offset="0%" stop-color="#e2e2e2"/><stop offset="3%" stop-color="#d0d0d0"/><stop offset="6%" stop-color="#bcbcbc"/><stop offset="9%" stop-color="#b5b5b5"/><stop offset="49%" stop-color="#f6f6f6"/><stop offset="63%" stop-color="#f3f3f3"/><stop offset="73%" stop-color="#eaeaea"/><stop offset="82%" stop-color="#dbdbdb"/><stop offset="90%" stop-color="#c6c6c6"/><stop offset="97%" stop-color="#aaa"/><stop offset="100%" stop-color="#9b9b9b"/></linearGradient><linearGradient id="c" x1="0%" x2="99.901%" y1="50%" y2="50%"><stop offset="0%" stop-color="#e2e2e2"/><stop offset="3%" stop-color="#d0d0d0"/><stop offset="6%" stop-color="#bcbcbc"/><stop offset="9%" stop-color="#b5b5b5"/><stop offset="49%" stop-color="#f6f6f6"/><stop offset="63%" stop-color="#f3f3f3"/><stop offset="73%" stop-color="#eaeaea"/><stop offset="82%" stop-color="#dbdbdb"/><stop offset="90%" stop-color="#c6c6c6"/><stop offset="97%" stop-color="#aaa"/><stop offset="100%" stop-color="#9b9b9b"/></linearGradient><linearGradient id="d" x1="0%" x2="100%" y1="50%" y2="50%"><stop offset="0%" stop-color="#e2e2e2"/><stop offset="3%" stop-color="#d0d0d0"/><stop offset="6%" stop-color="#bcbcbc"/><stop offset="9%" stop-color="#b5b5b5"/><stop offset="49%" stop-color="#f6f6f6"/><stop offset="63%" stop-color="#f3f3f3"/><stop offset="73%" stop-color="#eaeaea"/><stop offset="82%" stop-color="#dbdbdb"/><stop offset="90%" stop-color="#c6c6c6"/><stop offset="97%" stop-color="#aaa"/><stop offset="100%" stop-color="#9b9b9b"/></linearGradient></defs><g fill="none" fill-rule="evenodd"><path fill="#bdbdbd" fill-rule="nonzero" d="M100.45 42.963h6.53v56.27h-6.53z"/><path fill="#4c4c4c" fill-rule="nonzero" d="M13.77 112.913h93.78v37.12H13.77z"/><path fill="#4c4c4c" fill-rule="nonzero" d="M100.45 87.513h26.25v62.52h-26.25zM0 99.233h20.92v50.8H0z"/><path fill="#bdbdbd" fill-rule="nonzero" d="M13.77 112.913h93.78v22.67H13.77z"/><path fill="#bdbdbd" fill-rule="nonzero" d="M107.55 117.213h22.81v15.73h-22.81z"/><path fill="#828282" fill-rule="nonzero" d="M107.55 129.003h22.81v3.93h-22.81z"/><path fill="#bf0000" fill-rule="nonzero" d="M109.41 118.773h6.01v7.08h-6.01z"/><path stroke="#42403f" stroke-width=".5" d="M107.55 117.213v15.72"/><path fill="#bdbdbd" fill-rule="nonzero" d="M9.01 42.963h6.53v56.27H9.01zm6.53 0h89.28v9.77H15.54z"/><path stroke="#42403f" stroke-width=".5" d="M100.45 52.733v-9.77m-84.91 9.77v-9.77"/><path fill="url(#a)" fill-rule="nonzero" d="M108.43 132.9h2.74V150h-2.74z" transform="translate(0 .033)"/><path fill="url(#b)" fill-rule="nonzero" d="M122.21 132.9h2.74V150h-2.74z" transform="translate(0 .033)"/><path fill="url(#c)" fill-rule="nonzero" d="M52.93 55.77h10.13v29.06H52.93z" transform="translate(0 .033)"/><path fill="#828282" fill-rule="nonzero" d="M44.46 40.963H70v14.83H44.46z"/><path fill="#bdbdbd" fill-rule="nonzero" d="M70 40.963H44.46L49.25.033h15.96z"/><path fill="url(#d)" fill-rule="nonzero" d="m58.12 91.87-3.52-7.04h7.04z" transform="translate(0 .033)"/></g></svg>