<svg xmlns="http://www.w3.org/2000/svg" viewBox="0 0 150 103"><title>CNC chucker（数控卡盘机）</title><defs><linearGradient id="a" x1="0%" x2="100%" y1="49.985%" y2="49.985%"><stop offset="0%" stop-color="#e2e2e2"/><stop offset="3%" stop-color="#d0d0d0"/><stop offset="6%" stop-color="#bcbcbc"/><stop offset="9%" stop-color="#b5b5b5"/><stop offset="49%" stop-color="#f6f6f6"/><stop offset="63%" stop-color="#f3f3f3"/><stop offset="73%" stop-color="#eaeaea"/><stop offset="82%" stop-color="#dbdbdb"/><stop offset="90%" stop-color="#c6c6c6"/><stop offset="97%" stop-color="#aaa"/><stop offset="100%" stop-color="#9b9b9b"/></linearGradient><linearGradient id="b" x1="50%" x2="50%" y1="101.035%" y2="-1.035%"><stop offset="0%" stop-color="#6b6b6b"/><stop offset="1%" stop-color="#767676"/><stop offset="3%" stop-color="#959595"/><stop offset="4%" stop-color="#aaa"/><stop offset="37%" stop-color="#ccc"/><stop offset="74%" stop-color="#eaeaea"/><stop offset="94%" stop-color="#f6f6f6"/><stop offset="95%" stop-color="#ededed"/><stop offset="96%" stop-color="#d4d4d4"/><stop offset="97%" stop-color="#ababab"/><stop offset="99%" stop-color="#737373"/><stop offset="99%" stop-color="#666"/></linearGradient><linearGradient id="c" x1="0%" x2="100%" y1="49.988%" y2="49.988%"><stop offset="0%" stop-color="#e2e2e2"/><stop offset="3%" stop-color="#d0d0d0"/><stop offset="6%" stop-color="#bcbcbc"/><stop offset="9%" stop-color="#b5b5b5"/><stop offset="49%" stop-color="#f6f6f6"/><stop offset="63%" stop-color="#f3f3f3"/><stop offset="73%" stop-color="#eaeaea"/><stop offset="82%" stop-color="#dbdbdb"/><stop offset="90%" stop-color="#c6c6c6"/><stop offset="97%" stop-color="#aaa"/><stop offset="100%" stop-color="#9b9b9b"/></linearGradient></defs><g fill="none" fill-rule="evenodd"><path fill="#8c8c8c" fill-rule="nonzero" d="M101.39 46.713H150v10.59h-48.61z"/><path fill="#bdbdbd" fill-rule="nonzero" d="M10.04 34.033h16.42v49.48H10.04zm46-34h47.57v83.48H56.04zm-29.58 7.98h29.57v75.5H26.46z"/><path stroke="#707070" d="M26.46 83.513v-75.5"/><path fill="#999" fill-rule="nonzero" d="M31.79 8.013h24.25v11.93H31.79z"/><path stroke="#707070" d="M56.04 8.013v75.5"/><path fill="#8c8c8c" fill-rule="nonzero" d="M0 83.513h116.97v12.63H0z"/><path fill="#a8a8a8" fill-rule="nonzero" d="M31.79 83.513h-7.83V1.263l7.83 6.75z"/><path fill="#6d6d6d" fill-rule="nonzero" d="M69.57 10.903h20.25v10.41H69.57z"/><path fill="#848484" fill-rule="nonzero" d="M10.04 59.783h13.91v23.74H10.04zm0-17.39h13.91v5.8H10.04z"/><path fill="#6d6d6d" fill-rule="nonzero" d="M11.87 42.903h3.08v2.66h-3.08zm0 3.4h1.54v1.54h-1.54zm2.71 0h1.54v1.54h-1.54zm2.71 0h1.54v1.54h-1.54zm2.71 0h1.54v1.54H20z"/><path fill="url(#a)" fill-rule="nonzero" d="M10.04 1.23h7.25V34h-7.25z" transform="translate(0 .033)"/><path fill="#6d6d6d" fill-rule="nonzero" d="M7.72 96.143H92.1v6.61H7.72z"/><path fill="#8c8c8c" fill-rule="nonzero" d="M63.78 27.863h20.13v15.04H63.78z"/><path stroke="url(#b)" d="M63.78 27.83h31.06v48.29H63.78z" transform="translate(0 .033)"/><path fill="#8c8c8c" fill-rule="nonzero" d="M69.57 47.073h20.25v29.08H69.57z"/><path fill="#f2f2f2" fill-rule="nonzero" d="M94.14 75.063H64.49v-18.97l29.65-27.14z" opacity=".61"/><path fill="#6d6d6d" fill-rule="nonzero" d="M131.9 99.443h9.07v3.3h-9.07z"/><path fill="url(#c)" fill-rule="nonzero" d="M134.85 57.27h3.17v42.15h-3.17z" transform="translate(0 .033)"/></g></svg>