<svg xmlns="http://www.w3.org/2000/svg" viewBox="0 0 147 151"><title>Corrective roller leveler（校正辊式矫直机）</title><defs><linearGradient id="a" x1="50%" x2="50%" y1="100%" y2="0%"><stop offset="0%" stop-color="#e2e2e2"/><stop offset="3%" stop-color="#d0d0d0"/><stop offset="6%" stop-color="#bcbcbc"/><stop offset="9%" stop-color="#b5b5b5"/><stop offset="49%" stop-color="#f6f6f6"/><stop offset="63%" stop-color="#f3f3f3"/><stop offset="73%" stop-color="#eaeaea"/><stop offset="82%" stop-color="#dbdbdb"/><stop offset="90%" stop-color="#c6c6c6"/><stop offset="97%" stop-color="#aaa"/><stop offset="100%" stop-color="#9b9b9b"/></linearGradient><linearGradient id="b" x1="49.973%" x2="49.973%" y1="0%" y2="100%"><stop offset="0%" stop-color="#e2e2e2"/><stop offset="3%" stop-color="#d0d0d0"/><stop offset="6%" stop-color="#bcbcbc"/><stop offset="9%" stop-color="#b5b5b5"/><stop offset="49%" stop-color="#f6f6f6"/><stop offset="63%" stop-color="#f3f3f3"/><stop offset="73%" stop-color="#eaeaea"/><stop offset="82%" stop-color="#dbdbdb"/><stop offset="90%" stop-color="#c6c6c6"/><stop offset="97%" stop-color="#aaa"/><stop offset="100%" stop-color="#9b9b9b"/></linearGradient><linearGradient id="c" x1="50%" x2="50%" y1="0%" y2="100%"><stop offset="0%" stop-color="#e2e2e2"/><stop offset="3%" stop-color="#d0d0d0"/><stop offset="6%" stop-color="#bcbcbc"/><stop offset="9%" stop-color="#b5b5b5"/><stop offset="49%" stop-color="#f6f6f6"/><stop offset="63%" stop-color="#f3f3f3"/><stop offset="73%" stop-color="#eaeaea"/><stop offset="82%" stop-color="#dbdbdb"/><stop offset="90%" stop-color="#c6c6c6"/><stop offset="97%" stop-color="#aaa"/><stop offset="100%" stop-color="#9b9b9b"/></linearGradient><linearGradient id="d" x1="0%" x2="100%" y1="50%" y2="50%"><stop offset="0%" stop-color="#e2e2e2"/><stop offset="3%" stop-color="#d0d0d0"/><stop offset="6%" stop-color="#bcbcbc"/><stop offset="9%" stop-color="#b5b5b5"/><stop offset="49%" stop-color="#f6f6f6"/><stop offset="63%" stop-color="#f3f3f3"/><stop offset="73%" stop-color="#eaeaea"/><stop offset="82%" stop-color="#dbdbdb"/><stop offset="90%" stop-color="#c6c6c6"/><stop offset="97%" stop-color="#aaa"/><stop offset="100%" stop-color="#9b9b9b"/></linearGradient><linearGradient id="e" x1="0%" x2="99.837%" y1="50%" y2="50%"><stop offset="0%" stop-color="#e2e2e2"/><stop offset="3%" stop-color="#d0d0d0"/><stop offset="6%" stop-color="#bcbcbc"/><stop offset="9%" stop-color="#b5b5b5"/><stop offset="49%" stop-color="#f6f6f6"/><stop offset="63%" stop-color="#f3f3f3"/><stop offset="73%" stop-color="#eaeaea"/><stop offset="82%" stop-color="#dbdbdb"/><stop offset="90%" stop-color="#c6c6c6"/><stop offset="97%" stop-color="#aaa"/><stop offset="100%" stop-color="#9b9b9b"/></linearGradient><linearGradient id="f" x1="49.973%" x2="49.973%" y1="100%" y2="0%"><stop offset="0%" stop-color="#e2e2e2"/><stop offset="3%" stop-color="#d0d0d0"/><stop offset="6%" stop-color="#bcbcbc"/><stop offset="9%" stop-color="#b5b5b5"/><stop offset="49%" stop-color="#f6f6f6"/><stop offset="63%" stop-color="#f3f3f3"/><stop offset="73%" stop-color="#eaeaea"/><stop offset="82%" stop-color="#dbdbdb"/><stop offset="90%" stop-color="#c6c6c6"/><stop offset="97%" stop-color="#aaa"/><stop offset="100%" stop-color="#9b9b9b"/></linearGradient><linearGradient id="g" x1="50%" x2="50%" y1="100%" y2="0%"><stop offset="0%" stop-color="#e2e2e2"/><stop offset="3%" stop-color="#d0d0d0"/><stop offset="6%" stop-color="#bcbcbc"/><stop offset="9%" stop-color="#b5b5b5"/><stop offset="49%" stop-color="#f6f6f6"/><stop offset="63%" stop-color="#f3f3f3"/><stop offset="73%" stop-color="#eaeaea"/><stop offset="82%" stop-color="#dbdbdb"/><stop offset="90%" stop-color="#c6c6c6"/><stop offset="97%" stop-color="#aaa"/><stop offset="100%" stop-color="#9b9b9b"/></linearGradient><linearGradient id="h" x1="0%" x2="100%" y1="50.006%" y2="50.006%"><stop offset="0%" stop-color="#e2e2e2"/><stop offset="3%" stop-color="#d0d0d0"/><stop offset="6%" stop-color="#bcbcbc"/><stop offset="9%" stop-color="#b5b5b5"/><stop offset="49%" stop-color="#f6f6f6"/><stop offset="63%" stop-color="#f3f3f3"/><stop offset="73%" stop-color="#eaeaea"/><stop offset="82%" stop-color="#dbdbdb"/><stop offset="90%" stop-color="#c6c6c6"/><stop offset="97%" stop-color="#aaa"/><stop offset="100%" stop-color="#9b9b9b"/></linearGradient><linearGradient id="i" x1="0%" x2="100.323%" y1="50.006%" y2="50.006%"><stop offset="0%" stop-color="#e2e2e2"/><stop offset="3%" stop-color="#d0d0d0"/><stop offset="6%" stop-color="#bcbcbc"/><stop offset="9%" stop-color="#b5b5b5"/><stop offset="49%" stop-color="#f6f6f6"/><stop offset="63%" stop-color="#f3f3f3"/><stop offset="73%" stop-color="#eaeaea"/><stop offset="82%" stop-color="#dbdbdb"/><stop offset="90%" stop-color="#c6c6c6"/><stop offset="97%" stop-color="#aaa"/><stop offset="100%" stop-color="#9b9b9b"/></linearGradient><linearGradient id="j" x1="0%" x2="100%" y1="50.024%" y2="50.024%"><stop offset="0%" stop-color="#e2e2e2"/><stop offset="3%" stop-color="#d0d0d0"/><stop offset="6%" stop-color="#bcbcbc"/><stop offset="9%" stop-color="#b5b5b5"/><stop offset="49%" stop-color="#f6f6f6"/><stop offset="63%" stop-color="#f3f3f3"/><stop offset="73%" stop-color="#eaeaea"/><stop offset="82%" stop-color="#dbdbdb"/><stop offset="90%" stop-color="#c6c6c6"/><stop offset="97%" stop-color="#aaa"/><stop offset="100%" stop-color="#9b9b9b"/></linearGradient></defs><g fill="none" fill-rule="evenodd" transform="translate(0 .033)"><path fill="#666566" fill-rule="nonzero" d="M38.09 32.35h71.49v31.24H38.09z"/><path fill="#bdbdbd" fill-rule="nonzero" d="M36.77 101.76h-8.28l-8.28-10.05h16.56z"/><path fill="#bdbdbd" fill-rule="nonzero" d="M27.69 12.6h11v89.16h-11zM111.49 101.76h8.29l8.28-10.05h-16.57z"/><path fill="#bdbdbd" fill-rule="nonzero" d="M120.58 101.76h-11V12.6h11zM11.59 126.54h122.56v19.71H11.59z"/><path fill="#383838" fill-rule="nonzero" d="M0 146.25h21.44v3.74H0zm125.06 0h21.44v3.74h-21.44z"/><path fill="#757575" fill-rule="nonzero" d="M11.59 126.54h122.56v3.29H11.59z"/><path fill="#bdbdbd" fill-rule="nonzero" d="M134.15 126.54H11.59l15.46-25.76h91.65z"/><path fill="#666566" fill-rule="nonzero" d="M41.38 100.82h68.19v21.52H41.38z"/><path fill="#9b9b9b" fill-rule="nonzero" d="M26.28 100.82h16.34v8.93H26.28zm-3.61 8.93h23.55v2.48H22.67z"/><path fill="#909191" fill-rule="nonzero" d="M28.95 112.23h3.1v14.32h-3.1zm9.33 0h3.1v14.32h-3.1z"/><path fill="url(#a)" fill-rule="nonzero" d="M15.32 101.76h4.88v5.22h-4.88z"/><path fill="#9b9b9b" fill-rule="nonzero" d="M124.68 109.75h-16.34v-8.93h16.34zM128.28 112.23h-23.55v-2.48h23.55z"/><path fill="#909191" fill-rule="nonzero" d="M122.01 126.54h-3.1v-14.32h3.1zM112.68 126.54h-3.1v-14.32h3.1z"/><path fill="url(#b)" fill-rule="nonzero" d="M112.26 98.56h18.49v11.19h-18.49z" transform="matrix(-1 0 0 -1 243.01 208.31)"/><path fill="url(#c)" fill-rule="nonzero" d="M130.76 101.76h4.88v5.22h-4.88z" transform="matrix(-1 0 0 -1 266.4 208.74)"/><path fill="#c9c9c9" fill-rule="nonzero" d="M41.38 121.25h68.19v5.29H41.38z"/><path fill="#9b9b9b" fill-rule="nonzero" d="M65.8 129.85h17.53v4.72H65.8zm3.54 4.73h3.42v11.68h-3.42zm6.87 0h3.42v11.68h-3.42z"/><path fill="#bdbdbd" fill-rule="nonzero" d="M38.69 63.59h70.88v37.2H38.69z"/><path fill="url(#d)" fill-rule="nonzero" d="M30.13 0h6.12v12.6h-6.12z"/><path fill="url(#e)" fill-rule="nonzero" d="M112.02 0h6.12v12.6h-6.12z"/><path stroke="#6d6d6d" stroke-width=".75" d="M38.69 63.59v37.19m70.88-37.19v37.19"/><path fill="url(#f)" fill-rule="nonzero" d="M20.21 98.56H38.7v11.19H20.21z"/><path fill="url(#g)" fill-rule="nonzero" d="M38.69 39.64h70.88v3.47H38.69z"/><path fill="#bdbdbd" fill-rule="nonzero" stroke="#6d6d6d" stroke-width=".75" d="M56.41 57.63h35.44v9.96H56.41z"/><path fill="url(#h)" fill-rule="nonzero" d="M40.61 43.11h3.1v83.43h-3.1z"/><path fill="url(#i)" fill-rule="nonzero" d="M104.87 43.11h3.1v83.43h-3.1z"/><path fill="#9b9b9b" fill-rule="nonzero" d="M38.69 28.05h70.88v4.66H38.69z"/><path fill="#bdbdbd" fill-rule="nonzero" d="M38.69 12.6h70.88v15.45H38.69zM109.57 12.6H38.69l5.26-5.09h60.37z"/><path stroke="#6d6d6d" stroke-width=".75" d="M109.57 12.6v20.1M38.69 12.6v20.1"/><path fill="url(#j)" fill-rule="nonzero" d="M67.35 100.78h1.99v20.47h-1.99z"/><path fill="url(#j)" fill-rule="nonzero" d="M79.43 100.78h1.99v20.47h-1.99z"/><circle cx="74.57" cy="121" r="9.95" fill="#333" fill-rule="nonzero"/><circle cx="74.57" cy="121" r="5.86" fill="#666" fill-rule="nonzero"/><circle cx="74.57" cy="121" r="2.57" fill="#333" fill-rule="nonzero"/><path fill="#9b9b9b" fill-rule="nonzero" d="M63.45 10.05h21.36v16.08H63.45z"/><path fill="#666566" fill-rule="nonzero" d="M65.78 11.14h16.71v5.61H65.78zm0 6.38h16.71v7.61H65.78z"/></g></svg>