<svg xmlns="http://www.w3.org/2000/svg" viewBox="0 0 25 151"><title>Drill bit(钻头)</title><defs><linearGradient id="a" x1="-.043%" x2="100%" y1="49.997%" y2="49.997%"><stop offset="0%" stop-color="#e2e2e2"/><stop offset="3%" stop-color="#d0d0d0"/><stop offset="6%" stop-color="#bcbcbc"/><stop offset="9%" stop-color="#b5b5b5"/><stop offset="49%" stop-color="#f6f6f6"/><stop offset="63%" stop-color="#f3f3f3"/><stop offset="73%" stop-color="#eaeaea"/><stop offset="82%" stop-color="#dbdbdb"/><stop offset="90%" stop-color="#c6c6c6"/><stop offset="97%" stop-color="#aaa"/><stop offset="100%" stop-color="#9b9b9b"/></linearGradient><linearGradient id="b" x1="57.213%" x2="45.761%" y1="38.944%" y2="57.061%"><stop offset="0%" stop-color="#6b6b6b"/><stop offset="0%" stop-color="#6c6c6c"/><stop offset="18%" stop-color="#989898"/><stop offset="34%" stop-color="#b8b8b8"/><stop offset="48%" stop-color="#ccc"/><stop offset="57%" stop-color="#d3d3d3"/><stop offset="64%" stop-color="#cacaca"/><stop offset="75%" stop-color="#b1b1b1"/><stop offset="89%" stop-color="#888"/><stop offset="99%" stop-color="#666"/></linearGradient><linearGradient id="c" x1="43.5%" x2="54.23%" y1="59.69%" y2="43.449%"><stop offset="0%" stop-color="#6b6b6b"/><stop offset="0%" stop-color="#6c6c6c"/><stop offset="18%" stop-color="#989898"/><stop offset="34%" stop-color="#b8b8b8"/><stop offset="48%" stop-color="#ccc"/><stop offset="57%" stop-color="#d3d3d3"/><stop offset="64%" stop-color="#cacaca"/><stop offset="75%" stop-color="#b1b1b1"/><stop offset="89%" stop-color="#888"/><stop offset="99%" stop-color="#666"/></linearGradient><linearGradient id="d" x1="0%" x2="100.333%" y1="49.902%" y2="49.902%"><stop offset="0%" stop-color="#e2e2e2"/><stop offset="3%" stop-color="#d0d0d0"/><stop offset="6%" stop-color="#bcbcbc"/><stop offset="9%" stop-color="#b5b5b5"/><stop offset="49%" stop-color="#f6f6f6"/><stop offset="63%" stop-color="#f3f3f3"/><stop offset="73%" stop-color="#eaeaea"/><stop offset="82%" stop-color="#dbdbdb"/><stop offset="90%" stop-color="#c6c6c6"/><stop offset="97%" stop-color="#aaa"/><stop offset="100%" stop-color="#9b9b9b"/></linearGradient></defs><g fill="none" fill-rule="nonzero"><path fill="url(#a)" d="M20.35 144.91H.33v-36.62l6.74-13.85-.35-.75c-4.33-6.6-6.39-16-6.39-24.6L.66 0h23.07l-.34 66.92-2.64 24.85 1.05 3A19.6 19.6 0 0 1 23 101l.46 21.31z" transform="translate(.001 .033)"/><path fill="url(#b)" d="M23.39 68.69a9.94 9.94 0 0 0-1.59-4.93C15.74 52 11.86 43.61 7.13 46.58 1.4 50.19 7.31 64.36 14.51 81 17.42 87.65 21 94 21 94c3-6.5 3.14-19.46 2.39-25.31" transform="translate(.001 .033)"/><path fill="url(#c)" d="M1.24 113a55.5 55.5 0 0 0 2.84 8.48c6.37 14.37 13.87 25.29 17.14 23.45 4.09-2.32 3.61-8.42 2-19.8-1-6.61-9.23-17.86-11.73-22.38-4-7.23-8.19-16.79-8.19-16.79-4.36 8.98-3.67 20.65-2.06 27.04" transform="translate(.001 .033)"/><path fill="url(#d)" d="M5.64 144.91h12v1.35a3.74 3.74 0 0 1-3.71 3.74H9.39a3.74 3.74 0 0 1-3.74-3.74v-1.35z" transform="translate(.001 .033)"/></g></svg>