<svg xmlns="http://www.w3.org/2000/svg" viewBox="0 0 150 123"><title>Heavy-duty band sawing machine(重型带锯床)</title><g fill="none" fill-rule="evenodd" transform="translate(0 .033)"><path fill="#bdbdbd" fill-rule="nonzero" d="M23.68 0h117.29v98.8H23.68z"/><path fill="#6d6d6d" fill-rule="nonzero" d="M23.68 88.38h117.29v33.4H23.68z" opacity=".99"/><path fill="#6d6d6d" fill-rule="nonzero" d="M52.55 88.38 23.68 31.04 0 30.63v21.34l23.68.4v36.01z"/><path fill="#42403f" fill-rule="nonzero" stroke="#686868" d="M133.74 104.51h6.61v16.72h-6.61zm-113.98 5.1h7.84v12.16h-7.84z"/><path fill="#bdbdbd" fill-rule="nonzero" d="M1.78 32.25h10.81v5.85H1.78z"/><path stroke="#6d6d6d" stroke-width=".75" d="M82.32 0v88.38"/><path fill="#6d6d6d" fill-rule="nonzero" d="M32.02 8.16h39.66v9.64H32.02z"/><path stroke="#6d6d6d" stroke-width=".75" d="M26.28 20.7h37.65"/><path fill="#6d6d6d" fill-rule="nonzero" d="M93.88 22.62h39.66v9.64H93.88z"/><path stroke="#6d6d6d" stroke-width=".75" d="M88.13 35.15h37.66M23.68 59.5h117.28"/><path fill="#020202" fill-rule="nonzero" stroke="#050101" d="M63.93 46.79h39.25v39.25H63.93z"/><path fill="#6d6d6d" fill-rule="nonzero" d="M63.93 46.79h4.37v39.25h-4.37zm34.88 0h4.37v39.25h-4.37z" opacity=".99"/><path fill="#6d6d6d" fill-rule="nonzero" d="M68.3 68.91h30.52v3.42H68.3z" opacity=".99"/><path fill="#848484" fill-rule="nonzero" d="M68.3 72.33h30.52v13.71H68.3z"/><path fill="#bdbdbd" fill-rule="nonzero" d="M68.3 65.13h30.52v3.78H68.3z"/><path fill="#a5a5a5" fill-rule="nonzero" d="M68.3 46.79h2.84v22.12H68.3zm27.68 0h2.84v22.12h-2.84z"/><circle cx="83.56" cy="64.21" r="4.7" fill="#848484" fill-rule="nonzero"/><path fill="#a5a5a5" fill-rule="nonzero" d="m145.14 105.07-21.52-.04-4.92-25.43H150z"/><path stroke="#333" stroke-width=".5" d="M52.55 88.38H23.68"/><path fill="#e5e5e5" fill-rule="nonzero" d="m145.14 60.99-21.52.03-4.92 18.58H150z"/><path fill="#42403f" fill-rule="nonzero" stroke="#686868" stroke-width=".25" d="m138.68 66.42-6.84.01-1.57 5.91h9.95z"/><path fill="#686868" fill-rule="nonzero" stroke="#42403f" d="M129.51 92.34h8.47v5.49h-8.47z"/><path fill="#42403f" fill-rule="nonzero" stroke="#686868" stroke-width=".25" d="M122.01 76.57h4.84v1.98h-4.84zm6.62 0h4.84v1.98h-4.84zm6.62 0h4.84v1.98h-4.84zm6.62 0h4.84v1.98h-4.84z"/></g></svg>