<svg xmlns="http://www.w3.org/2000/svg" viewBox="0 0 87 151"><title>Mist collector（集雾器）</title><defs><linearGradient id="a" x1="0%" x2="100.228%" y1="50%" y2="50%"><stop offset="0%" stop-color="#e2e2e2"/><stop offset="3%" stop-color="#d0d0d0"/><stop offset="6%" stop-color="#bcbcbc"/><stop offset="9%" stop-color="#b5b5b5"/><stop offset="49%" stop-color="#f6f6f6"/><stop offset="63%" stop-color="#f3f3f3"/><stop offset="73%" stop-color="#eaeaea"/><stop offset="82%" stop-color="#dbdbdb"/><stop offset="90%" stop-color="#c6c6c6"/><stop offset="97%" stop-color="#aaa"/><stop offset="100%" stop-color="#9b9b9b"/></linearGradient><linearGradient id="b" x1="0%" x2="100.024%" y1="50%" y2="50%"><stop offset="0%" stop-color="#e2e2e2"/><stop offset="3%" stop-color="#d0d0d0"/><stop offset="6%" stop-color="#bcbcbc"/><stop offset="9%" stop-color="#b5b5b5"/><stop offset="49%" stop-color="#f6f6f6"/><stop offset="63%" stop-color="#f3f3f3"/><stop offset="73%" stop-color="#eaeaea"/><stop offset="82%" stop-color="#dbdbdb"/><stop offset="90%" stop-color="#c6c6c6"/><stop offset="97%" stop-color="#aaa"/><stop offset="100%" stop-color="#9b9b9b"/></linearGradient><linearGradient id="c" x1="0%" x2="100%" y1="49.985%" y2="49.985%"><stop offset="0%" stop-color="#e2e2e2"/><stop offset="3%" stop-color="#d0d0d0"/><stop offset="6%" stop-color="#bcbcbc"/><stop offset="9%" stop-color="#b5b5b5"/><stop offset="49%" stop-color="#f6f6f6"/><stop offset="63%" stop-color="#f3f3f3"/><stop offset="73%" stop-color="#eaeaea"/><stop offset="82%" stop-color="#dbdbdb"/><stop offset="90%" stop-color="#c6c6c6"/><stop offset="97%" stop-color="#aaa"/><stop offset="100%" stop-color="#9b9b9b"/></linearGradient></defs><g fill="none" fill-rule="nonzero" transform="translate(.5 .033)"><path fill="url(#a)" d="M51.5 8.21h4.38v7.7H51.5z"/><path fill="url(#b)" d="M21.48 34.37H63.3v8.34H21.48z"/><path fill="#a5a5a5" stroke="#42403f" d="M0 42.7h85.48v4.47H0zm12.58 4.48H72.9v79.27H12.58z"/><path fill="#a5a5a5" stroke="#42403f" d="M16.12 59.61h53.24v37.81H16.12zm0 42.93h53.24v17.97H16.12z"/><rect width="11.12" height="4.79" x="8.48" y="63.38" fill="#a5a5a5" stroke="#42403f" rx="1.01"/><rect width="11.12" height="4.79" x="8.48" y="88.35" fill="#a5a5a5" stroke="#42403f" rx="1.01"/><rect width="11.12" height="4.79" x="8.48" y="104.6" fill="#a5a5a5" stroke="#42403f" rx="1.01"/><rect width="11.12" height="4.79" x="67.34" y="63.38" fill="#a5a5a5" stroke="#42403f" rx="1.01"/><rect width="11.12" height="4.79" x="67.34" y="88.35" fill="#a5a5a5" stroke="#42403f" rx="1.01"/><rect width="11.12" height="4.79" x="67.34" y="104.6" fill="#a5a5a5" stroke="#42403f" rx="1.01"/><path fill="url(#c)" d="M33.8 0h18.49v34.37H33.8z"/><path fill="#a5a5a5" stroke="#42403f" d="M19.6 150h-7.02v-23.56h14.03zm46.27.16h7.03V126.6H58.86z"/></g></svg>