<svg xmlns="http://www.w3.org/2000/svg" viewBox="0 0 151 68"><title>Parts washer（零件清洗机）</title><g fill="none" fill-rule="evenodd"><path fill="#a5a5a5" fill-rule="nonzero" stroke="#42403f" stroke-linecap="round" stroke-linejoin="round" d="M128.09 43.553H28.7l-5.62-6.84h111.86z"/><path fill="#a5a5a5" fill-rule="nonzero" stroke="#42403f" d="M142.11 24.393H8.89L.5 29.853v5.46h150v-5.46z"/><path fill="#a5a5a5" fill-rule="nonzero" stroke="#42403f" d="M23.08.533h111.86v36.18H23.08z"/><path stroke="#6d6d6d" stroke-width=".75" d="M56.9.533v36.18M93.58.533v36.18M114.75.233v36.18"/><path fill="#a5a5a5" fill-rule="nonzero" stroke="#42403f" d="M33.08 33.573h95v33.02h-95z"/><path stroke="#6d6d6d" stroke-width=".75" d="M54.92 33.573v33.03m8.8-33.03v33.03m31.44-33.48v33.02m8.79-33.02v33.02"/><path fill="#a5a5a5" fill-rule="nonzero" stroke="#42403f" d="m128.09 33.673-95.01.19 4.56-3.59h85.89z"/><path fill="#42403f" fill-rule="nonzero" d="M15.63 27.153h4.93v2.33h-4.93zm122.47 0h4.93v2.33h-4.93z"/><path fill="#686868" fill-rule="nonzero" stroke="#42403f" d="M26.42 9.713H52.7v13.81H26.42zm36.13 0h26.28v13.81H62.55z"/><path fill="#42403f" fill-rule="nonzero" stroke="#686868" d="M99.05 9.713h10.68v13.81H99.05zm21.53 0h10.68v13.81h-10.68z"/></g></svg>