<svg xmlns="http://www.w3.org/2000/svg" viewBox="0 0 151 95"><title>Power squaring shear（动力平行刃口剪切机）</title><defs><linearGradient id="a" x1="0%" x2="100%" y1="49.958%" y2="49.958%"><stop offset="0%" stop-color="#e2e2e2"/><stop offset="3%" stop-color="#d0d0d0"/><stop offset="6%" stop-color="#bcbcbc"/><stop offset="9%" stop-color="#b5b5b5"/><stop offset="49%" stop-color="#f6f6f6"/><stop offset="63%" stop-color="#f3f3f3"/><stop offset="73%" stop-color="#eaeaea"/><stop offset="82%" stop-color="#dbdbdb"/><stop offset="90%" stop-color="#c6c6c6"/><stop offset="97%" stop-color="#aaa"/><stop offset="100%" stop-color="#9b9b9b"/></linearGradient><linearGradient id="b" x1="0%" x2="99.681%" y1="49.958%" y2="49.958%"><stop offset="0%" stop-color="#e2e2e2"/><stop offset="3%" stop-color="#d0d0d0"/><stop offset="6%" stop-color="#bcbcbc"/><stop offset="9%" stop-color="#b5b5b5"/><stop offset="49%" stop-color="#f6f6f6"/><stop offset="63%" stop-color="#f3f3f3"/><stop offset="73%" stop-color="#eaeaea"/><stop offset="82%" stop-color="#dbdbdb"/><stop offset="90%" stop-color="#c6c6c6"/><stop offset="97%" stop-color="#aaa"/><stop offset="100%" stop-color="#9b9b9b"/></linearGradient><linearGradient id="c" x1="0%" x2="100%" y1="50%" y2="50%"><stop offset="0%" stop-color="#e2e2e2"/><stop offset="3%" stop-color="#d0d0d0"/><stop offset="6%" stop-color="#bcbcbc"/><stop offset="9%" stop-color="#b5b5b5"/><stop offset="49%" stop-color="#f6f6f6"/><stop offset="63%" stop-color="#f3f3f3"/><stop offset="73%" stop-color="#eaeaea"/><stop offset="82%" stop-color="#dbdbdb"/><stop offset="90%" stop-color="#c6c6c6"/><stop offset="97%" stop-color="#aaa"/><stop offset="100%" stop-color="#9b9b9b"/></linearGradient><linearGradient id="d" x1="50%" x2="50%" y1="100%" y2="0%"><stop offset="0%" stop-color="#e2e2e2"/><stop offset="3%" stop-color="#d0d0d0"/><stop offset="6%" stop-color="#bcbcbc"/><stop offset="9%" stop-color="#b5b5b5"/><stop offset="49%" stop-color="#f6f6f6"/><stop offset="63%" stop-color="#f3f3f3"/><stop offset="73%" stop-color="#eaeaea"/><stop offset="82%" stop-color="#dbdbdb"/><stop offset="90%" stop-color="#c6c6c6"/><stop offset="97%" stop-color="#aaa"/><stop offset="100%" stop-color="#9b9b9b"/></linearGradient><linearGradient id="e" x1="49.934%" x2="49.934%" y1="100%" y2="0%"><stop offset="0%" stop-color="#e2e2e2"/><stop offset="3%" stop-color="#d0d0d0"/><stop offset="6%" stop-color="#bcbcbc"/><stop offset="9%" stop-color="#b5b5b5"/><stop offset="49%" stop-color="#f6f6f6"/><stop offset="63%" stop-color="#f3f3f3"/><stop offset="73%" stop-color="#eaeaea"/><stop offset="82%" stop-color="#dbdbdb"/><stop offset="90%" stop-color="#c6c6c6"/><stop offset="97%" stop-color="#aaa"/><stop offset="100%" stop-color="#9b9b9b"/></linearGradient><linearGradient id="f" x1="50%" x2="50%" y1="100%" y2="0%"><stop offset="0%" stop-color="#e2e2e2"/><stop offset="3%" stop-color="#d0d0d0"/><stop offset="6%" stop-color="#bcbcbc"/><stop offset="9%" stop-color="#b5b5b5"/><stop offset="49%" stop-color="#f6f6f6"/><stop offset="63%" stop-color="#f3f3f3"/><stop offset="73%" stop-color="#eaeaea"/><stop offset="82%" stop-color="#dbdbdb"/><stop offset="90%" stop-color="#c6c6c6"/><stop offset="97%" stop-color="#aaa"/><stop offset="100%" stop-color="#9b9b9b"/></linearGradient><linearGradient id="g" x1="0%" x2="100%" y1="50%" y2="50%"><stop offset="0%" stop-color="#e2e2e2"/><stop offset="3%" stop-color="#d0d0d0"/><stop offset="6%" stop-color="#bcbcbc"/><stop offset="9%" stop-color="#b5b5b5"/><stop offset="49%" stop-color="#f6f6f6"/><stop offset="63%" stop-color="#f3f3f3"/><stop offset="73%" stop-color="#eaeaea"/><stop offset="82%" stop-color="#dbdbdb"/><stop offset="90%" stop-color="#c6c6c6"/><stop offset="97%" stop-color="#aaa"/><stop offset="100%" stop-color="#9b9b9b"/></linearGradient><linearGradient id="h" x1="0%" x2="100%" y1="50%" y2="50%"><stop offset="0%" stop-color="#e2e2e2"/><stop offset="3%" stop-color="#d0d0d0"/><stop offset="6%" stop-color="#bcbcbc"/><stop offset="9%" stop-color="#b5b5b5"/><stop offset="49%" stop-color="#f6f6f6"/><stop offset="63%" stop-color="#f3f3f3"/><stop offset="73%" stop-color="#eaeaea"/><stop offset="82%" stop-color="#dbdbdb"/><stop offset="90%" stop-color="#c6c6c6"/><stop offset="97%" stop-color="#aaa"/><stop offset="100%" stop-color="#9b9b9b"/></linearGradient><linearGradient id="i" x1="0%" x2="100%" y1="50%" y2="50%"><stop offset="0%" stop-color="#e2e2e2"/><stop offset="3%" stop-color="#d0d0d0"/><stop offset="6%" stop-color="#bcbcbc"/><stop offset="9%" stop-color="#b5b5b5"/><stop offset="49%" stop-color="#f6f6f6"/><stop offset="63%" stop-color="#f3f3f3"/><stop offset="73%" stop-color="#eaeaea"/><stop offset="82%" stop-color="#dbdbdb"/><stop offset="90%" stop-color="#c6c6c6"/><stop offset="97%" stop-color="#aaa"/><stop offset="100%" stop-color="#9b9b9b"/></linearGradient><linearGradient id="j" x1="49.995%" x2="49.995%" y1="100%" y2="0%"><stop offset="0%" stop-color="#e2e2e2"/><stop offset="3%" stop-color="#d0d0d0"/><stop offset="6%" stop-color="#bcbcbc"/><stop offset="9%" stop-color="#b5b5b5"/><stop offset="49%" stop-color="#f6f6f6"/><stop offset="63%" stop-color="#f3f3f3"/><stop offset="73%" stop-color="#eaeaea"/><stop offset="82%" stop-color="#dbdbdb"/><stop offset="90%" stop-color="#c6c6c6"/><stop offset="97%" stop-color="#aaa"/><stop offset="100%" stop-color="#9b9b9b"/></linearGradient><linearGradient id="k" x1="49.946%" x2="49.946%" y1="100%" y2="0%"><stop offset="0%" stop-color="#e2e2e2"/><stop offset="3%" stop-color="#d0d0d0"/><stop offset="6%" stop-color="#bcbcbc"/><stop offset="9%" stop-color="#b5b5b5"/><stop offset="49%" stop-color="#f6f6f6"/><stop offset="63%" stop-color="#f3f3f3"/><stop offset="73%" stop-color="#eaeaea"/><stop offset="82%" stop-color="#dbdbdb"/><stop offset="90%" stop-color="#c6c6c6"/><stop offset="97%" stop-color="#aaa"/><stop offset="100%" stop-color="#9b9b9b"/></linearGradient><linearGradient id="l" x1="49.967%" x2="49.967%" y1="100%" y2="0%"><stop offset="0%" stop-color="#e2e2e2"/><stop offset="3%" stop-color="#d0d0d0"/><stop offset="6%" stop-color="#bcbcbc"/><stop offset="9%" stop-color="#b5b5b5"/><stop offset="49%" stop-color="#f6f6f6"/><stop offset="63%" stop-color="#f3f3f3"/><stop offset="73%" stop-color="#eaeaea"/><stop offset="82%" stop-color="#dbdbdb"/><stop offset="90%" stop-color="#c6c6c6"/><stop offset="97%" stop-color="#aaa"/><stop offset="100%" stop-color="#9b9b9b"/></linearGradient></defs><g fill="none" fill-rule="nonzero"><path fill="#686868" stroke="#42403f" d="M130.68 14.163H150v44.94h-19.32zm-126.3-2.24H127v77.9H4.38z"/><path fill="#686868" stroke="#42403f" d="M50.55 26.613h25.7v10.58h-25.7z"/><path fill="url(#a)" d="M4.04 48.61h3.13v11.97H4.04z" transform="translate(0 .033)"/><path fill="url(#b)" d="M14.82 48.61h3.13v11.97h-3.13z" transform="translate(0 .033)"/><path fill="url(#a)" d="M25.59 48.61h3.13v11.97h-3.13z" transform="translate(0 .033)"/><path fill="url(#b)" d="M36.37 48.61h3.13v11.97h-3.13z" transform="translate(0 .033)"/><path fill="url(#a)" d="M47.14 48.61h3.13v11.97h-3.13z" transform="translate(0 .033)"/><path fill="url(#a)" d="M57.92 48.61h3.13v11.97h-3.13z" transform="translate(0 .033)"/><path fill="url(#a)" d="M68.69 48.61h3.13v11.97h-3.13z" transform="translate(0 .033)"/><path fill="url(#a)" d="M79.47 48.61h3.13v11.97h-3.13z" transform="translate(0 .033)"/><path fill="url(#a)" d="M90.24 48.61h3.13v11.97h-3.13z" transform="translate(0 .033)"/><path fill="url(#a)" d="M101.02 48.61h3.13v11.97h-3.13z" transform="translate(0 .033)"/><path fill="url(#a)" d="M111.79 48.61h3.13v11.97h-3.13z" transform="translate(0 .033)"/><path fill="url(#a)" d="M122.57 48.61h3.13v11.97h-3.13z" transform="translate(0 .033)"/><path fill="url(#c)" d="M1.88 48.61h7.78v1.52H1.88z" transform="translate(0 .033)"/><path fill="url(#c)" d="M1.72 59.06H9.5v1.52H1.72z" transform="translate(0 .033)"/><path fill="url(#c)" d="M12.49 59.06h7.78v1.52h-7.78z" transform="translate(0 .033)"/><path fill="url(#c)" d="M23.27 59.06h7.78v1.52h-7.78z" transform="translate(0 .033)"/><path fill="url(#c)" d="M34.04 59.06h7.78v1.52h-7.78z" transform="translate(0 .033)"/><path fill="url(#c)" d="M44.82 59.06h7.78v1.52h-7.78z" transform="translate(0 .033)"/><path fill="url(#c)" d="M55.59 59.06h7.78v1.52h-7.78z" transform="translate(0 .033)"/><path fill="url(#c)" d="M66.37 59.06h7.78v1.52h-7.78z" transform="translate(0 .033)"/><path fill="url(#c)" d="M77.14 59.06h7.78v1.52h-7.78z" transform="translate(0 .033)"/><path fill="url(#c)" d="M87.92 59.06h7.78v1.52h-7.78z" transform="translate(0 .033)"/><path fill="url(#c)" d="M98.69 59.06h7.78v1.52h-7.78z" transform="translate(0 .033)"/><path fill="url(#c)" d="M109.47 59.06h7.78v1.52h-7.78z" transform="translate(0 .033)"/><path fill="url(#c)" d="M120.24 59.06h7.78v1.52h-7.78z" transform="translate(0 .033)"/><path fill="url(#c)" d="M12.49 48.61h7.78v1.52h-7.78z" transform="translate(0 .033)"/><path fill="url(#c)" d="M23.27 48.61h7.78v1.52h-7.78z" transform="translate(0 .033)"/><path fill="url(#c)" d="M34.04 48.61h7.78v1.52h-7.78z" transform="translate(0 .033)"/><path fill="url(#c)" d="M44.82 48.61h7.78v1.52h-7.78z" transform="translate(0 .033)"/><path fill="url(#c)" d="M55.59 48.61h7.78v1.52h-7.78z" transform="translate(0 .033)"/><path fill="url(#c)" d="M66.37 48.61h7.78v1.52h-7.78z" transform="translate(0 .033)"/><path fill="url(#c)" d="M77.14 48.61h7.78v1.52h-7.78z" transform="translate(0 .033)"/><path fill="url(#c)" d="M87.92 48.61h7.78v1.52h-7.78z" transform="translate(0 .033)"/><path fill="url(#c)" d="M98.69 48.61h7.78v1.52h-7.78z" transform="translate(0 .033)"/><path fill="url(#c)" d="M109.47 48.61h7.78v1.52h-7.78z" transform="translate(0 .033)"/><path fill="url(#c)" d="M120.24 48.61h7.78v1.52h-7.78z" transform="translate(0 .033)"/><path fill="url(#d)" d="M.84 60.58h129.84v3.51H.84z" transform="translate(0 .033)"/><path fill="#707070" d="M0 89.823h131.39v4.79H0z"/><path fill="url(#e)" d="M10.42 59.06H25.6v6.43H10.42z" transform="translate(0 .033)"/><path fill="url(#f)" d="M52.75 59.06h15.18v6.43H52.75z" transform="translate(0 .033)"/><path fill="url(#g)" d="M0 11.89h4.38v77.9H0z" transform="translate(0 .033)"/><path fill="url(#g)" d="M127.01 11.89h4.38v77.9h-4.38z" transform="translate(0 .033)"/><path fill="#ccc" d="M4.52 18.313H127v29.37H4.52z"/><path fill="#686868" stroke="#42403f" d="M51.32 27.253h20.84v9.94H51.32zm53.19 9.42h19.99v9.58h-19.99z"/><path fill="#ccc" d="M106.79 38.103h15.42v2.39h-15.42z"/><path fill="#0f0f0f" d="M106.79 41.873h15.42v3.23h-15.42z"/><path fill="url(#h)" d="M4.52 9.98h12.24v8.3H4.52z" transform="translate(0 .033)"/><path fill="url(#i)" d="M7.53 0h6.23v9.98H7.53z" transform="translate(0 .033)"/><path fill="url(#h)" d="M114.77 9.98h12.24v8.3h-12.24z" transform="translate(0 .033)"/><path fill="url(#i)" d="M117.77 0H124v9.98h-6.23z" transform="translate(0 .033)"/><path fill="url(#j)" d="M16.76 9.98h98.01v4.63H16.76z" transform="translate(0 .033)"/><path fill="url(#k)" d="M131.39 64.09h9.27v23.4h-9.27z" transform="translate(0 .033)"/><path fill="url(#l)" d="M131.39 17.07h5.67a9.6 9.6 0 0 1 9.6 9.6v17.05a9.6 9.6 0 0 1-9.6 9.6h-5.67z" transform="translate(0 .033)"/></g></svg>