<svg xmlns="http://www.w3.org/2000/svg" viewBox="0 0 136 151"><title>Production machining center(生产加工中心)</title><defs><linearGradient id="a" x1="0%" x2="100%" y1="49.95%" y2="49.95%"><stop offset="0%" stop-color="#6b6b6b"/><stop offset="1%" stop-color="#767676"/><stop offset="3%" stop-color="#959595"/><stop offset="4%" stop-color="#aaa"/><stop offset="37%" stop-color="#ccc"/><stop offset="74%" stop-color="#eaeaea"/><stop offset="94%" stop-color="#f6f6f6"/><stop offset="95%" stop-color="#ededed"/><stop offset="96%" stop-color="#d4d4d4"/><stop offset="97%" stop-color="#ababab"/><stop offset="99%" stop-color="#737373"/><stop offset="99%" stop-color="#666"/></linearGradient><linearGradient id="b" x1="49.993%" x2="49.993%" y1="100.781%" y2="-.797%"><stop offset="0%" stop-color="#6b6b6b"/><stop offset="1%" stop-color="#767676"/><stop offset="3%" stop-color="#959595"/><stop offset="4%" stop-color="#aaa"/><stop offset="37%" stop-color="#ccc"/><stop offset="74%" stop-color="#eaeaea"/><stop offset="94%" stop-color="#f6f6f6"/><stop offset="95%" stop-color="#ededed"/><stop offset="96%" stop-color="#d4d4d4"/><stop offset="97%" stop-color="#ababab"/><stop offset="99%" stop-color="#737373"/><stop offset="99%" stop-color="#666"/></linearGradient></defs><g fill="none" fill-rule="evenodd" transform="translate(0 .033)"><path fill="#bdbdbd" fill-rule="nonzero" d="M0 19.97h135.54v99.87H0z"/><path fill="#e5e5e5" fill-rule="nonzero" d="M135.54 19.97H0L8.75 0h118.03z"/><path fill="#909191" fill-rule="nonzero" d="M0 102.45h135.54v17.39H0z"/><path fill="#909191" fill-rule="nonzero" d="M25.59 119.83h86.01v25.86H25.59z"/><path fill="#666" fill-rule="nonzero" d="M25.59 119.83h86.01v4.86H25.59zm22.28 4.86h41.46v11.63H47.87zm-22.28 21h8.99V150h-8.99zm77.02 0h8.99V150h-8.99zm-54.74-6.19h7.28v3.68h-7.28zm34.17 0h7.28v3.68h-7.28z"/><path fill="url(#a)" fill-rule="nonzero" d="M28.9 126.3h14.6v10.03H28.9z"/><path stroke="url(#b)" d="M30.09 30.67h75.27v62.76H30.09z"/><path stroke="#333" d="M68.52 30.67v62.75"/><rect width="21.73" height="46.3" x="77.27" y="39.37" fill="#686868" fill-rule="nonzero" stroke="#42403f" rx="2"/><rect width="21.73" height="46.3" x="38.38" y="39.37" fill="#686868" fill-rule="nonzero" stroke="#42403f" rx="2"/><path fill="#909191" fill-rule="nonzero" d="M109.32 30.67h11.03v4.69h-11.03zm0 10.03h11.03v24.05h-11.03zM4.16 52.73h21.43v18.74H4.16z"/><path fill="#666" fill-rule="nonzero" d="M7.73 65.78h14.15v3.57H7.73z"/><path fill="#333" fill-rule="nonzero" d="M68.52 42.46h4.76v14.38h-4.76zm1.51 18.42h2.23v23.74h-2.23zm-5.41 0h2.23v23.74h-2.23z"/></g></svg>