<svg xmlns="http://www.w3.org/2000/svg" viewBox="0 0 147 151"><title>Thread inspection device（螺纹检查装置）</title><defs><linearGradient id="a" x1="0%" x2="100%" y1="50.027%" y2="50.027%"><stop offset="0%" stop-color="#e2e2e2"/><stop offset="3%" stop-color="#d0d0d0"/><stop offset="6%" stop-color="#bcbcbc"/><stop offset="9%" stop-color="#b5b5b5"/><stop offset="49%" stop-color="#f6f6f6"/><stop offset="63%" stop-color="#f3f3f3"/><stop offset="73%" stop-color="#eaeaea"/><stop offset="82%" stop-color="#dbdbdb"/><stop offset="90%" stop-color="#c6c6c6"/><stop offset="97%" stop-color="#aaa"/><stop offset="100%" stop-color="#9b9b9b"/></linearGradient><linearGradient id="b" x1="0%" x2="100%" y1="50%" y2="50%"><stop offset="0%" stop-color="#e2e2e2"/><stop offset="3%" stop-color="#d0d0d0"/><stop offset="6%" stop-color="#bcbcbc"/><stop offset="9%" stop-color="#b5b5b5"/><stop offset="49%" stop-color="#f6f6f6"/><stop offset="63%" stop-color="#f3f3f3"/><stop offset="73%" stop-color="#eaeaea"/><stop offset="82%" stop-color="#dbdbdb"/><stop offset="90%" stop-color="#c6c6c6"/><stop offset="97%" stop-color="#aaa"/><stop offset="100%" stop-color="#9b9b9b"/></linearGradient></defs><g fill="none" fill-rule="nonzero"><path fill="#a5a5a5" d="M0 6.753h143.28v143.28H0z"/><path fill="#686868" stroke="#42403f" d="M8.47 15.223h126.34v126.34H8.47z"/><path fill="url(#a)" d="M140.92 23.52h5.7v18.63h-5.7z" transform="translate(0 .033)"/><path fill="url(#a)" d="M140.43 114.95h5.7v18.63h-5.7z" transform="translate(0 .033)"/><path fill="url(#b)" d="M20.28 0h14.64v6.72H20.28z" transform="translate(0 .033)"/><path fill="url(#b)" d="M100 0h14.64v6.72H100z" transform="translate(0 .033)"/><path fill="#42403f" stroke="#686868" d="M41.68 32.873h59.21v36.7H41.68z"/><path fill="#a5a5a5" d="M56.71 42.183h29.15v18.07H56.71zm-14.57 61h58.76v25.04H42.14z"/><path fill="#686868" stroke="#42403f" d="M41.68 81.083h10.59v10.59H41.68zm47.73 0H100v10.59H89.41z"/><path fill="#42403f" stroke="#686868" d="M16.19 32.873h12.83v20.01H16.19z"/></g></svg>