<svg xmlns="http://www.w3.org/2000/svg" viewBox="0 0 65 151"><title>Transfer press（多工位压力机）</title><defs><linearGradient id="a" x1="0%" x2="100%" y1="50%" y2="50%"><stop offset="0%" stop-color="#6b6b6b"/><stop offset="1%" stop-color="#767676"/><stop offset="3%" stop-color="#959595"/><stop offset="4%" stop-color="#aaa"/><stop offset="37%" stop-color="#ccc"/><stop offset="74%" stop-color="#eaeaea"/><stop offset="94%" stop-color="#f6f6f6"/><stop offset="95%" stop-color="#ededed"/><stop offset="96%" stop-color="#d4d4d4"/><stop offset="97%" stop-color="#ababab"/><stop offset="99%" stop-color="#737373"/><stop offset="99%" stop-color="#666"/></linearGradient><linearGradient id="b" x1="0%" x2="100%" y1="50.072%" y2="50.072%"><stop offset="0%" stop-color="#6b6b6b"/><stop offset="1%" stop-color="#767676"/><stop offset="3%" stop-color="#959595"/><stop offset="4%" stop-color="#aaa"/><stop offset="37%" stop-color="#ccc"/><stop offset="74%" stop-color="#eaeaea"/><stop offset="94%" stop-color="#f6f6f6"/><stop offset="95%" stop-color="#ededed"/><stop offset="96%" stop-color="#d4d4d4"/><stop offset="97%" stop-color="#ababab"/><stop offset="99%" stop-color="#737373"/><stop offset="99%" stop-color="#666"/></linearGradient><linearGradient id="c" x1="0%" x2="100%" y1="49.829%" y2="49.829%"><stop offset="0%" stop-color="#6b6b6b"/><stop offset="11%" stop-color="#767676"/><stop offset="30%" stop-color="#959595"/><stop offset="41%" stop-color="#aaa"/><stop offset="56%" stop-color="#ccc"/><stop offset="71%" stop-color="#eaeaea"/><stop offset="80%" stop-color="#f6f6f6"/><stop offset="83%" stop-color="#ededed"/><stop offset="87%" stop-color="#d4d4d4"/><stop offset="92%" stop-color="#ababab"/><stop offset="98%" stop-color="#737373"/><stop offset="99%" stop-color="#666"/></linearGradient><linearGradient id="d" x1="0%" x2="100.284%" y1="49.829%" y2="49.829%"><stop offset="0%" stop-color="#6b6b6b"/><stop offset="11%" stop-color="#767676"/><stop offset="30%" stop-color="#959595"/><stop offset="41%" stop-color="#aaa"/><stop offset="56%" stop-color="#ccc"/><stop offset="71%" stop-color="#eaeaea"/><stop offset="80%" stop-color="#f6f6f6"/><stop offset="83%" stop-color="#ededed"/><stop offset="87%" stop-color="#d4d4d4"/><stop offset="92%" stop-color="#ababab"/><stop offset="98%" stop-color="#737373"/><stop offset="99%" stop-color="#666"/></linearGradient><linearGradient id="e" x1="0%" x2="100.284%" y1="50.171%" y2="50.171%"><stop offset="0%" stop-color="#6b6b6b"/><stop offset="11%" stop-color="#767676"/><stop offset="30%" stop-color="#959595"/><stop offset="41%" stop-color="#aaa"/><stop offset="56%" stop-color="#ccc"/><stop offset="71%" stop-color="#eaeaea"/><stop offset="80%" stop-color="#f6f6f6"/><stop offset="83%" stop-color="#ededed"/><stop offset="87%" stop-color="#d4d4d4"/><stop offset="92%" stop-color="#ababab"/><stop offset="98%" stop-color="#737373"/><stop offset="99%" stop-color="#666"/></linearGradient><linearGradient id="f" x1="0%" x2="100%" y1="50.171%" y2="50.171%"><stop offset="0%" stop-color="#6b6b6b"/><stop offset="11%" stop-color="#767676"/><stop offset="30%" stop-color="#959595"/><stop offset="41%" stop-color="#aaa"/><stop offset="56%" stop-color="#ccc"/><stop offset="71%" stop-color="#eaeaea"/><stop offset="80%" stop-color="#f6f6f6"/><stop offset="83%" stop-color="#ededed"/><stop offset="87%" stop-color="#d4d4d4"/><stop offset="92%" stop-color="#ababab"/><stop offset="98%" stop-color="#737373"/><stop offset="99%" stop-color="#666"/></linearGradient><linearGradient id="g" x1="0%" x2="100%" y1="50%" y2="50%"><stop offset="0%" stop-color="#e2e2e2"/><stop offset="3%" stop-color="#d0d0d0"/><stop offset="6%" stop-color="#bcbcbc"/><stop offset="9%" stop-color="#b5b5b5"/><stop offset="49%" stop-color="#f6f6f6"/><stop offset="63%" stop-color="#f3f3f3"/><stop offset="73%" stop-color="#eaeaea"/><stop offset="82%" stop-color="#dbdbdb"/><stop offset="90%" stop-color="#c6c6c6"/><stop offset="97%" stop-color="#aaa"/><stop offset="100%" stop-color="#9b9b9b"/></linearGradient><linearGradient id="h" x1="0%" x2="100%" y1="50.043%" y2="50.043%"><stop offset="0%" stop-color="#6b6b6b"/><stop offset="1%" stop-color="#767676"/><stop offset="3%" stop-color="#959595"/><stop offset="4%" stop-color="#aaa"/><stop offset="37%" stop-color="#ccc"/><stop offset="74%" stop-color="#eaeaea"/><stop offset="94%" stop-color="#f6f6f6"/><stop offset="95%" stop-color="#ededed"/><stop offset="96%" stop-color="#d4d4d4"/><stop offset="97%" stop-color="#ababab"/><stop offset="99%" stop-color="#737373"/><stop offset="99%" stop-color="#666"/></linearGradient><linearGradient id="i" x1="0%" x2="100%" y1="50%" y2="50%"><stop offset="0%" stop-color="#e2e2e2"/><stop offset="3%" stop-color="#d0d0d0"/><stop offset="6%" stop-color="#bcbcbc"/><stop offset="9%" stop-color="#b5b5b5"/><stop offset="49%" stop-color="#f6f6f6"/><stop offset="63%" stop-color="#f3f3f3"/><stop offset="73%" stop-color="#eaeaea"/><stop offset="82%" stop-color="#dbdbdb"/><stop offset="90%" stop-color="#c6c6c6"/><stop offset="97%" stop-color="#aaa"/><stop offset="100%" stop-color="#9b9b9b"/></linearGradient><linearGradient id="j" x1="0%" x2="100%" y1="50%" y2="50%"><stop offset="0%" stop-color="#e2e2e2"/><stop offset="3%" stop-color="#d0d0d0"/><stop offset="6%" stop-color="#bcbcbc"/><stop offset="9%" stop-color="#b5b5b5"/><stop offset="49%" stop-color="#f6f6f6"/><stop offset="63%" stop-color="#f3f3f3"/><stop offset="73%" stop-color="#eaeaea"/><stop offset="82%" stop-color="#dbdbdb"/><stop offset="90%" stop-color="#c6c6c6"/><stop offset="97%" stop-color="#aaa"/><stop offset="100%" stop-color="#9b9b9b"/></linearGradient><linearGradient id="k" x1="0%" x2="101.163%" y1="50%" y2="50%"><stop offset="0%" stop-color="#e2e2e2"/><stop offset="3%" stop-color="#d0d0d0"/><stop offset="6%" stop-color="#bcbcbc"/><stop offset="9%" stop-color="#b5b5b5"/><stop offset="49%" stop-color="#f6f6f6"/><stop offset="63%" stop-color="#f3f3f3"/><stop offset="73%" stop-color="#eaeaea"/><stop offset="82%" stop-color="#dbdbdb"/><stop offset="90%" stop-color="#c6c6c6"/><stop offset="97%" stop-color="#aaa"/><stop offset="100%" stop-color="#9b9b9b"/></linearGradient><linearGradient id="l" x1="0%" x2="100%" y1="49.784%" y2="49.784%"><stop offset="0%" stop-color="#e2e2e2"/><stop offset="3%" stop-color="#d0d0d0"/><stop offset="6%" stop-color="#bcbcbc"/><stop offset="9%" stop-color="#b5b5b5"/><stop offset="49%" stop-color="#f6f6f6"/><stop offset="63%" stop-color="#f3f3f3"/><stop offset="73%" stop-color="#eaeaea"/><stop offset="82%" stop-color="#dbdbdb"/><stop offset="90%" stop-color="#c6c6c6"/><stop offset="97%" stop-color="#aaa"/><stop offset="100%" stop-color="#9b9b9b"/></linearGradient><linearGradient id="m" x1="0%" x2="100%" y1="49.784%" y2="49.784%"><stop offset="0%" stop-color="#e2e2e2"/><stop offset="3%" stop-color="#d0d0d0"/><stop offset="6%" stop-color="#bcbcbc"/><stop offset="9%" stop-color="#b5b5b5"/><stop offset="49%" stop-color="#f6f6f6"/><stop offset="63%" stop-color="#f3f3f3"/><stop offset="73%" stop-color="#eaeaea"/><stop offset="82%" stop-color="#dbdbdb"/><stop offset="90%" stop-color="#c6c6c6"/><stop offset="97%" stop-color="#aaa"/><stop offset="100%" stop-color="#9b9b9b"/></linearGradient><linearGradient id="n" x1="0%" x2="100.028%" y1="50%" y2="50%"><stop offset="0%" stop-color="#6b6b6b"/><stop offset="1%" stop-color="#767676"/><stop offset="3%" stop-color="#959595"/><stop offset="4%" stop-color="#aaa"/><stop offset="37%" stop-color="#ccc"/><stop offset="74%" stop-color="#eaeaea"/><stop offset="94%" stop-color="#f6f6f6"/><stop offset="95%" stop-color="#ededed"/><stop offset="96%" stop-color="#d4d4d4"/><stop offset="97%" stop-color="#ababab"/><stop offset="99%" stop-color="#737373"/><stop offset="99%" stop-color="#666"/></linearGradient><linearGradient id="o" x1="0%" x2="100%" y1="50%" y2="50%"><stop offset="0%" stop-color="#6b6b6b"/><stop offset="1%" stop-color="#767676"/><stop offset="3%" stop-color="#959595"/><stop offset="4%" stop-color="#aaa"/><stop offset="37%" stop-color="#ccc"/><stop offset="74%" stop-color="#eaeaea"/><stop offset="94%" stop-color="#f6f6f6"/><stop offset="95%" stop-color="#ededed"/><stop offset="96%" stop-color="#d4d4d4"/><stop offset="97%" stop-color="#ababab"/><stop offset="99%" stop-color="#737373"/><stop offset="99%" stop-color="#666"/></linearGradient><linearGradient id="p" x1="0%" x2="100%" y1="49.664%" y2="49.664%"><stop offset="0%" stop-color="#6b6b6b"/><stop offset="11%" stop-color="#767676"/><stop offset="30%" stop-color="#959595"/><stop offset="41%" stop-color="#aaa"/><stop offset="56%" stop-color="#ccc"/><stop offset="71%" stop-color="#eaeaea"/><stop offset="80%" stop-color="#f6f6f6"/><stop offset="83%" stop-color="#ededed"/><stop offset="87%" stop-color="#d4d4d4"/><stop offset="92%" stop-color="#ababab"/><stop offset="98%" stop-color="#737373"/><stop offset="99%" stop-color="#666"/></linearGradient><linearGradient id="q" x1="0%" x2="100%" y1="49.975%" y2="49.975%"><stop offset="0%" stop-color="#e2e2e2"/><stop offset="3%" stop-color="#d0d0d0"/><stop offset="6%" stop-color="#bcbcbc"/><stop offset="9%" stop-color="#b5b5b5"/><stop offset="49%" stop-color="#f6f6f6"/><stop offset="63%" stop-color="#f3f3f3"/><stop offset="73%" stop-color="#eaeaea"/><stop offset="82%" stop-color="#dbdbdb"/><stop offset="90%" stop-color="#c6c6c6"/><stop offset="97%" stop-color="#aaa"/><stop offset="100%" stop-color="#9b9b9b"/></linearGradient><linearGradient id="r" x1="0%" x2="100.042%" y1="50.303%" y2="50.303%"><stop offset="0%" stop-color="#6b6b6b"/><stop offset="11%" stop-color="#767676"/><stop offset="30%" stop-color="#959595"/><stop offset="41%" stop-color="#aaa"/><stop offset="56%" stop-color="#ccc"/><stop offset="71%" stop-color="#eaeaea"/><stop offset="80%" stop-color="#f6f6f6"/><stop offset="83%" stop-color="#ededed"/><stop offset="87%" stop-color="#d4d4d4"/><stop offset="92%" stop-color="#ababab"/><stop offset="98%" stop-color="#737373"/><stop offset="99%" stop-color="#666"/></linearGradient><linearGradient id="s" x1="45.251%" x2="58.891%" y1="47.212%" y2="57.134%"><stop offset="0%" stop-color="#6b6b6b"/><stop offset="1%" stop-color="#767676"/><stop offset="3%" stop-color="#959595"/><stop offset="4%" stop-color="#aaa"/><stop offset="37%" stop-color="#ccc"/><stop offset="74%" stop-color="#eaeaea"/><stop offset="94%" stop-color="#f6f6f6"/><stop offset="95%" stop-color="#ededed"/><stop offset="96%" stop-color="#d4d4d4"/><stop offset="97%" stop-color="#ababab"/><stop offset="99%" stop-color="#737373"/><stop offset="99%" stop-color="#666"/></linearGradient><linearGradient id="t" x1="54.726%" x2="41.115%" y1="47.365%" y2="57.257%"><stop offset="0%" stop-color="#6b6b6b"/><stop offset="1%" stop-color="#767676"/><stop offset="3%" stop-color="#959595"/><stop offset="4%" stop-color="#aaa"/><stop offset="37%" stop-color="#ccc"/><stop offset="74%" stop-color="#eaeaea"/><stop offset="94%" stop-color="#f6f6f6"/><stop offset="95%" stop-color="#ededed"/><stop offset="96%" stop-color="#d4d4d4"/><stop offset="97%" stop-color="#ababab"/><stop offset="99%" stop-color="#737373"/><stop offset="99%" stop-color="#666"/></linearGradient></defs><g fill="none" fill-rule="nonzero"><path fill="#666" d="M16.86 137.113H47.6v11.15H16.86zm-16.78-8.99h64.3v8.99H.08z"/><path fill="url(#a)" d="M.08 94.61h64.3v13.82H.08z" transform="translate(0 .033)"/><path fill="url(#b)" d="M.08 114.42h64.3v13.82H.08z" transform="translate(0 .033)"/><path fill="url(#c)" d="M4.61 40.49h3.52v2.93H4.61z" transform="translate(0 .033)"/><path fill="url(#d)" d="M10.05 40.49h3.52v2.93h-3.52z" transform="translate(0 .033)"/><path fill="url(#c)" d="M15.5 40.49h3.52v2.93H15.5z" transform="translate(0 .033)"/><path fill="url(#c)" d="M20.94 40.49h3.52v2.93h-3.52z" transform="translate(0 .033)"/><path fill="url(#d)" d="M26.38 40.49h3.52v2.93h-3.52z" transform="translate(0 .033)"/><path fill="url(#c)" d="M31.83 40.49h3.52v2.93h-3.52z" transform="translate(0 .033)"/><path fill="url(#d)" d="M37.27 40.49h3.52v2.93h-3.52z" transform="translate(0 .033)"/><path fill="url(#c)" d="M42.72 40.49h3.52v2.93h-3.52z" transform="translate(0 .033)"/><path fill="url(#c)" d="M48.16 40.49h3.52v2.93h-3.52z" transform="translate(0 .033)"/><path fill="url(#d)" d="M53.6 40.49h3.52v2.93H53.6z" transform="translate(0 .033)"/><path fill="url(#e)" d="M5.97 91.67h3.52v2.93H5.97z" transform="translate(0 .033)"/><path fill="url(#f)" d="M11.42 91.67h3.52v2.93h-3.52z" transform="translate(0 .033)"/><path fill="url(#f)" d="M16.86 91.67h3.52v2.93h-3.52z" transform="translate(0 .033)"/><path fill="url(#e)" d="M22.3 91.67h3.52v2.93H22.3z" transform="translate(0 .033)"/><path fill="url(#f)" d="M27.75 91.67h3.52v2.93h-3.52z" transform="translate(0 .033)"/><path fill="url(#e)" d="M33.19 91.67h3.52v2.93h-3.52z" transform="translate(0 .033)"/><path fill="url(#f)" d="M38.64 91.67h3.52v2.93h-3.52z" transform="translate(0 .033)"/><path fill="url(#f)" d="M44.08 91.67h3.52v2.93h-3.52z" transform="translate(0 .033)"/><path fill="url(#e)" d="M49.52 91.67h3.52v2.93h-3.52z" transform="translate(0 .033)"/><path fill="url(#f)" d="M54.97 91.67h3.52v2.93h-3.52z" transform="translate(0 .033)"/><path fill="url(#g)" d="M56.97 0h4.08v114.42h-4.08z" transform="translate(0 .033)"/><path fill="url(#g)" d="M3.22 0H7.3v114.42H3.22z" transform="translate(0 .033)"/><path fill="url(#h)" d="M.08 17.22h64.3v23.26H.08z" transform="translate(0 .033)"/><path fill="url(#i)" d="M1.61 12.59h6.52v4.64H1.61z" transform="translate(0 .033)"/><path fill="url(#j)" d="M1.61 12.59h1v4.64h-1z" transform="translate(0 .033)"/><path fill="url(#j)" d="M3.22 12.59h1v4.64h-1z" transform="translate(0 .033)"/><path fill="url(#j)" d="M4.83 12.59h1v4.64h-1z" transform="translate(0 .033)"/><path fill="url(#j)" d="M6.44 12.59h1v4.64h-1z" transform="translate(0 .033)"/><path fill="url(#k)" d="M8.05 12.59h1v4.64h-1z" transform="translate(0 .033)"/><path fill="url(#l)" d="M0 128.25h6.52v4.64H0z" transform="translate(0 .033)"/><path fill="url(#m)" d="M0 128.25h1v4.64H0z" transform="translate(0 .033)"/><path fill="url(#m)" d="M1.61 128.25h1v4.64h-1z" transform="translate(0 .033)"/><path fill="url(#m)" d="M3.22 128.25h1v4.64h-1z" transform="translate(0 .033)"/><path fill="url(#m)" d="M4.83 128.25h1v4.64h-1z" transform="translate(0 .033)"/><path fill="url(#m)" d="M6.44 128.25h1v4.64h-1z" transform="translate(0 .033)"/><path fill="url(#l)" d="M56.97 128.25h6.52v4.64h-6.52z" transform="translate(0 .033)"/><path fill="url(#m)" d="M56.97 128.25h1v4.64h-1z" transform="translate(0 .033)"/><path fill="url(#m)" d="M58.58 128.25h1v4.64h-1z" transform="translate(0 .033)"/><path fill="url(#m)" d="M60.19 128.25h1v4.64h-1z" transform="translate(0 .033)"/><path fill="url(#m)" d="M61.8 128.25h1v4.64h-1z" transform="translate(0 .033)"/><path fill="url(#m)" d="M63.41 128.25h1v4.64h-1z" transform="translate(0 .033)"/><path fill="url(#i)" d="M55.36 12.59h6.52v4.64h-6.52z" transform="translate(0 .033)"/><path fill="url(#j)" d="M55.36 12.59h1v4.64h-1z" transform="translate(0 .033)"/><path fill="url(#j)" d="M56.97 12.59h1v4.64h-1z" transform="translate(0 .033)"/><path fill="url(#j)" d="M58.58 12.59h1v4.64h-1z" transform="translate(0 .033)"/><path fill="url(#j)" d="M60.19 12.59h1v4.64h-1z" transform="translate(0 .033)"/><path fill="url(#j)" d="M61.8 12.59h1v4.64h-1z" transform="translate(0 .033)"/><path fill="url(#n)" d="M14.11 18.86h35.72V38H14.11z" transform="translate(0 .033)"/><path fill="#b9b8bc" stroke="#565656" stroke-width=".25" d="M26.87 19.743h10.21v2.72H26.87z"/><path fill="url(#o)" d="M22.67 32.83h18.61v4.02H22.67z" transform="translate(0 .033)"/><path fill="#b9b8bc" stroke="#565656" stroke-width=".25" d="M24.79 33.763h2.23v2.23h-2.23zm6.05 0h2.23v2.23h-2.23zm6.05 0h2.23v2.23h-2.23z"/><path fill="url(#p)" d="M3.22 45.36H7.3v1.49H3.22z" transform="translate(0 .033)"/><path fill="url(#p)" d="M3.22 49.27H7.3v1.49H3.22z" transform="translate(0 .033)"/><path fill="url(#p)" d="M56.97 45.36h4.08v1.49h-4.08z" transform="translate(0 .033)"/><path fill="url(#p)" d="M56.97 49.27h4.08v1.49h-4.08z" transform="translate(0 .033)"/><path fill="#666" d="M7.3 108.463h49.66v6H7.3z"/><path fill="url(#q)" d="m44.08 139.62-2.7 1.69a17.47 17.47 0 0 1-18.3 0l-2.7-1.69v-11.37h23.7z" transform="translate(0 .033)"/><path fill="url(#r)" d="M20.38 137.08h23.69v1.65H20.38z" transform="translate(0 .033)"/><path fill="url(#s)" d="m19.67 150.08-3-1.34 4.89-11.07a1.64 1.64 0 0 1 .86-.84h.07a1.62 1.62 0 0 1 2.21 1.06c.1.365.071.753-.08 1.1z" transform="translate(0 .033)"/><path fill="url(#t)" d="m44.68 150 3-1.34-4.9-11.07a1.6 1.6 0 0 0-.85-.84h-.07a1.62 1.62 0 0 0-2.21 1.06c-.11.364-.08.756.08 1.1z" transform="translate(0 .033)"/><path fill="#4c4c4c" d="M11.82 148.273h41.79v1.76H11.82z"/></g></svg>