<svg xmlns="http://www.w3.org/2000/svg" viewBox="0 0 150 144"><title>Vertical machining center （立式加工中心）</title><defs><linearGradient id="a" x1="49.989%" x2="49.989%" y1="100%" y2="0%"><stop offset="0%" stop-color="#6b6b6b"/><stop offset="1%" stop-color="#767676"/><stop offset="3%" stop-color="#959595"/><stop offset="4%" stop-color="#aaa"/><stop offset="37%" stop-color="#ccc"/><stop offset="74%" stop-color="#eaeaea"/><stop offset="94%" stop-color="#f6f6f6"/><stop offset="95%" stop-color="#ededed"/><stop offset="96%" stop-color="#d4d4d4"/><stop offset="97%" stop-color="#ababab"/><stop offset="99%" stop-color="#737373"/><stop offset="99%" stop-color="#666"/></linearGradient><linearGradient id="b" x1="0%" x2="100%" y1="49.995%" y2="49.995%"><stop offset="0%" stop-color="#6b6b6b"/><stop offset="1%" stop-color="#767676"/><stop offset="3%" stop-color="#959595"/><stop offset="4%" stop-color="#aaa"/><stop offset="37%" stop-color="#ccc"/><stop offset="74%" stop-color="#eaeaea"/><stop offset="94%" stop-color="#f6f6f6"/><stop offset="95%" stop-color="#ededed"/><stop offset="96%" stop-color="#d4d4d4"/><stop offset="97%" stop-color="#ababab"/><stop offset="99%" stop-color="#737373"/><stop offset="99%" stop-color="#666"/></linearGradient><linearGradient id="c" x1="49.987%" x2="49.987%" y1="100%" y2="0%"><stop offset="0%" stop-color="#6b6b6b"/><stop offset="1%" stop-color="#767676"/><stop offset="3%" stop-color="#959595"/><stop offset="4%" stop-color="#aaa"/><stop offset="37%" stop-color="#ccc"/><stop offset="74%" stop-color="#eaeaea"/><stop offset="94%" stop-color="#f6f6f6"/><stop offset="95%" stop-color="#ededed"/><stop offset="96%" stop-color="#d4d4d4"/><stop offset="97%" stop-color="#ababab"/><stop offset="99%" stop-color="#737373"/><stop offset="99%" stop-color="#666"/></linearGradient><linearGradient id="d" x1="50.018%" x2="50.018%" y1="100.389%" y2="0%"><stop offset="0%" stop-color="#6b6b6b"/><stop offset="1%" stop-color="#767676"/><stop offset="3%" stop-color="#959595"/><stop offset="4%" stop-color="#aaa"/><stop offset="37%" stop-color="#ccc"/><stop offset="74%" stop-color="#eaeaea"/><stop offset="94%" stop-color="#f6f6f6"/><stop offset="95%" stop-color="#ededed"/><stop offset="96%" stop-color="#d4d4d4"/><stop offset="97%" stop-color="#ababab"/><stop offset="99%" stop-color="#737373"/><stop offset="99%" stop-color="#666"/></linearGradient><linearGradient id="e" x1="50.018%" x2="50.018%" y1="100%" y2="0%"><stop offset="0%" stop-color="#6b6b6b"/><stop offset="1%" stop-color="#767676"/><stop offset="3%" stop-color="#959595"/><stop offset="4%" stop-color="#aaa"/><stop offset="37%" stop-color="#ccc"/><stop offset="74%" stop-color="#eaeaea"/><stop offset="94%" stop-color="#f6f6f6"/><stop offset="95%" stop-color="#ededed"/><stop offset="96%" stop-color="#d4d4d4"/><stop offset="97%" stop-color="#ababab"/><stop offset="99%" stop-color="#737373"/><stop offset="99%" stop-color="#666"/></linearGradient><linearGradient id="f" x1="49.996%" x2="49.996%" y1="100%" y2="0%"><stop offset="0%" stop-color="#6b6b6b"/><stop offset="1%" stop-color="#767676"/><stop offset="3%" stop-color="#959595"/><stop offset="4%" stop-color="#aaa"/><stop offset="37%" stop-color="#ccc"/><stop offset="74%" stop-color="#eaeaea"/><stop offset="94%" stop-color="#f6f6f6"/><stop offset="95%" stop-color="#ededed"/><stop offset="96%" stop-color="#d4d4d4"/><stop offset="97%" stop-color="#ababab"/><stop offset="99%" stop-color="#737373"/><stop offset="99%" stop-color="#666"/></linearGradient><linearGradient id="g" x1="0%" x2="100%" y1="50.027%" y2="50.027%"><stop offset="0%" stop-color="#6b6b6b"/><stop offset="1%" stop-color="#767676"/><stop offset="3%" stop-color="#959595"/><stop offset="4%" stop-color="#aaa"/><stop offset="37%" stop-color="#ccc"/><stop offset="74%" stop-color="#eaeaea"/><stop offset="94%" stop-color="#f6f6f6"/><stop offset="95%" stop-color="#ededed"/><stop offset="96%" stop-color="#d4d4d4"/><stop offset="97%" stop-color="#ababab"/><stop offset="99%" stop-color="#737373"/><stop offset="99%" stop-color="#666"/></linearGradient><linearGradient id="h" x1="0%" x2="99.548%" y1="50.027%" y2="50.027%"><stop offset="0%" stop-color="#6b6b6b"/><stop offset="1%" stop-color="#767676"/><stop offset="3%" stop-color="#959595"/><stop offset="4%" stop-color="#aaa"/><stop offset="37%" stop-color="#ccc"/><stop offset="74%" stop-color="#eaeaea"/><stop offset="94%" stop-color="#f6f6f6"/><stop offset="95%" stop-color="#ededed"/><stop offset="96%" stop-color="#d4d4d4"/><stop offset="97%" stop-color="#ababab"/><stop offset="99%" stop-color="#737373"/><stop offset="99%" stop-color="#666"/></linearGradient><linearGradient id="i" x1="50%" x2="50%" y1="99.974%" y2="0%"><stop offset="0%" stop-color="#6b6b6b"/><stop offset="1%" stop-color="#767676"/><stop offset="3%" stop-color="#959595"/><stop offset="4%" stop-color="#aaa"/><stop offset="37%" stop-color="#ccc"/><stop offset="74%" stop-color="#eaeaea"/><stop offset="94%" stop-color="#f6f6f6"/><stop offset="95%" stop-color="#ededed"/><stop offset="96%" stop-color="#d4d4d4"/><stop offset="97%" stop-color="#ababab"/><stop offset="99%" stop-color="#737373"/><stop offset="99%" stop-color="#666"/></linearGradient><linearGradient id="j" x1="50%" x2="50%" y1="100%" y2="0%"><stop offset="0%" stop-color="#6b6b6b"/><stop offset="1%" stop-color="#767676"/><stop offset="3%" stop-color="#959595"/><stop offset="4%" stop-color="#aaa"/><stop offset="37%" stop-color="#ccc"/><stop offset="74%" stop-color="#eaeaea"/><stop offset="94%" stop-color="#f6f6f6"/><stop offset="95%" stop-color="#ededed"/><stop offset="96%" stop-color="#d4d4d4"/><stop offset="97%" stop-color="#ababab"/><stop offset="99%" stop-color="#737373"/><stop offset="99%" stop-color="#666"/></linearGradient><linearGradient id="k" x1="0%" x2="99.963%" y1="50%" y2="50%"><stop offset="0%" stop-color="#6b6b6b"/><stop offset="1%" stop-color="#767676"/><stop offset="3%" stop-color="#959595"/><stop offset="4%" stop-color="#aaa"/><stop offset="37%" stop-color="#ccc"/><stop offset="74%" stop-color="#eaeaea"/><stop offset="94%" stop-color="#f6f6f6"/><stop offset="95%" stop-color="#ededed"/><stop offset="96%" stop-color="#d4d4d4"/><stop offset="97%" stop-color="#ababab"/><stop offset="99%" stop-color="#737373"/><stop offset="99%" stop-color="#666"/></linearGradient><linearGradient id="l" x1="0%" x2="101.477%" y1="50.008%" y2="50.008%"><stop offset="0%" stop-color="#6b6b6b"/><stop offset="1%" stop-color="#767676"/><stop offset="3%" stop-color="#959595"/><stop offset="4%" stop-color="#aaa"/><stop offset="37%" stop-color="#ccc"/><stop offset="74%" stop-color="#eaeaea"/><stop offset="94%" stop-color="#f6f6f6"/><stop offset="95%" stop-color="#ededed"/><stop offset="96%" stop-color="#d4d4d4"/><stop offset="97%" stop-color="#ababab"/><stop offset="99%" stop-color="#737373"/><stop offset="99%" stop-color="#666"/></linearGradient></defs><g fill="none" fill-rule="evenodd" transform="translate(0 .033)"><path fill="url(#a)" fill-rule="nonzero" d="M21.29 25.08h45.55v19.17H21.29z"/><path fill="url(#b)" fill-rule="nonzero" d="M0 43.07h38.33v100.45H0z"/><path stroke="url(#c)" d="M0 58.56h38.33"/><path stroke="url(#c)" d="M38.33 127.18H0"/><rect width="27.77" height="51.3" x="4.67" y="67.71" fill="#999" fill-rule="nonzero" rx="4.45"/><path fill="url(#d)" fill-rule="nonzero" d="M4.67 77.92h27.77v2.57H4.67z"/><path fill="url(#e)" fill-rule="nonzero" d="M4.67 90.21h27.77v2.57H4.67z"/><path fill="url(#d)" fill-rule="nonzero" d="M4.67 102.49h27.77v2.57H4.67z"/><path fill="url(#f)" fill-rule="nonzero" d="M111.67 43.07H38.33v62h73.34v38.44H150V43.07z"/><path stroke="#919191" d="M75.08 43.07v62"/><rect width="27.77" height="44.3" x="79.59" y="54.38" fill="#999" fill-rule="nonzero" rx="4.45"/><rect width="27.77" height="44.3" x="42.78" y="54.38" fill="#999" fill-rule="nonzero" rx="4.45"/><path fill="url(#g)" fill-rule="nonzero" d="M75.49 71.23h2.25v18.63h-2.25z"/><path fill="url(#h)" fill-rule="nonzero" d="M72.43 71.23h2.21v18.63h-2.21z"/><path stroke="#919191" d="M111.67 105.07v-62"/><path fill="url(#i)" fill-rule="nonzero" d="M38.33 105.07h73.76v38.45H38.33z"/><path fill="url(#j)" fill-rule="nonzero" d="M36.73 25.08h13.72v5.72H36.73z"/><path fill="url(#k)" fill-rule="nonzero" d="M66.84 0h27.33v43H66.84z"/><path fill="#999" fill-rule="nonzero" d="M68.47 13.89h23.77v7.61H68.47z"/><path stroke="url(#l)" d="M112.09 54.38h33.86v61.77h-33.86"/><path fill="#4c4c4c" fill-rule="nonzero" d="M114.93 58.56h27.39v14.11h-27.39z"/><path fill="#d3d3d3" fill-rule="nonzero" d="M117.36 60.45h12.74v10.71h-12.74zm14.77 0h1.52v1.52h-1.52zm2.41 0h1.52v1.52h-1.52zm2.41 0h1.52v1.52h-1.52zm2.41 0h1.52v1.52h-1.52zm-7.23 2.3h1.52v1.52h-1.52zm2.41 0h1.52v1.52h-1.52zm2.41 0h1.52v1.52h-1.52zm2.41 0h1.52v1.52h-1.52zm-7.23 2.3h1.52v1.52h-1.52zm2.41 0h1.52v1.52h-1.52zm2.41 0h1.52v1.52h-1.52zm2.41 0h1.52v1.52h-1.52zm-7.23 2.29h1.52v1.52h-1.52zm2.41 0h1.52v1.52h-1.52zm2.41 0h1.52v1.52h-1.52zm2.41 0h1.52v1.52h-1.52zm-7.23 2.3h1.52v1.52h-1.52zm2.41 0h1.52v1.52h-1.52zm2.41 0h1.52v1.52h-1.52zm2.41 0h1.52v1.52h-1.52z"/><circle cx="41.1" cy="109.42" r="1.43" fill="#4c4c4c" fill-rule="nonzero"/><circle cx="51.18" cy="109.42" r="1.43" fill="#4c4c4c" fill-rule="nonzero"/><circle cx="61.27" cy="109.42" r="1.43" fill="#4c4c4c" fill-rule="nonzero"/><circle cx="71.35" cy="109.42" r="1.43" fill="#4c4c4c" fill-rule="nonzero"/><circle cx="81.44" cy="109.42" r="1.43" fill="#4c4c4c" fill-rule="nonzero"/><circle cx="91.53" cy="109.42" r="1.43" fill="#4c4c4c" fill-rule="nonzero"/><circle cx="101.61" cy="109.42" r="1.43" fill="#4c4c4c" fill-rule="nonzero"/><circle cx="41.1" cy="117.58" r="1.43" fill="#4c4c4c" fill-rule="nonzero"/><circle cx="41.1" cy="125.74" r="1.43" fill="#4c4c4c" fill-rule="nonzero"/><circle cx="41.1" cy="133.9" r="1.43" fill="#4c4c4c" fill-rule="nonzero"/><circle cx="108.79" cy="109.42" r="1.43" fill="#4c4c4c" fill-rule="nonzero"/><circle cx="108.79" cy="117.58" r="1.43" fill="#4c4c4c" fill-rule="nonzero"/><circle cx="108.79" cy="125.74" r="1.43" fill="#4c4c4c" fill-rule="nonzero"/><circle cx="108.79" cy="133.9" r="1.43" fill="#4c4c4c" fill-rule="nonzero"/><path fill="#999" fill-rule="nonzero" d="M112.09 129.32H150v8.17h-37.91zm2.84-53.75h27.39v27.39h-27.39z"/><path fill="#4c4c4c" fill-rule="nonzero" d="M115.89 76.53h10.63v6.05h-10.63zm12.45 0h13.08v25.7h-13.08z"/><circle cx="121.2" cy="79.56" r="2.35" fill="#d3d3d3" fill-rule="nonzero"/><path fill="#4c4c4c" fill-rule="nonzero" d="M115.89 83.73h4.23v4.23h-4.23zm6.4 0h4.23v4.23h-4.23z"/><circle cx="117.93" cy="85.85" r="1.62" fill="#d3d3d3" fill-rule="nonzero"/><circle cx="124.4" cy="85.85" r="1.62" fill="#d3d3d3" fill-rule="nonzero"/><path fill="#d3d3d3" fill-rule="nonzero" d="M115.89 88.84h10.63v13.4h-10.63z"/><path fill="#4c4c4c" fill-rule="nonzero" d="M116.83 90.33h1.52v1.52h-1.52zm2.41 0h1.52v1.52h-1.52zm2.4 0h1.52v1.52h-1.52zm2.41 0h1.52v1.52h-1.52zm-7.22 2.3h1.52v1.52h-1.52zm2.41 0h1.52v1.52h-1.52zm2.4 0h1.52v1.52h-1.52zm2.41 0h1.52v1.52h-1.52zm-7.22 2.3h1.52v1.52h-1.52zm2.41 0h1.52v1.52h-1.52zm2.4 0h1.52v1.52h-1.52zm2.41 0h1.52v1.52h-1.52zm-7.22 2.3h1.52v1.52h-1.52zm2.41 0h1.52v1.52h-1.52zm2.4 0h1.52v1.52h-1.52zm2.41 0h1.52v1.52h-1.52zm-7.22 2.29h1.52v1.52h-1.52zm2.41 0h1.52v1.52h-1.52zm2.4 0h1.52v1.52h-1.52zm2.41 0h1.52v1.52h-1.52z"/><path fill="#d3d3d3" fill-rule="nonzero" d="M129.28 78.19h1.52v1.52h-1.52zm2.41 0h1.52v1.52h-1.52zm2.41 0h1.52v1.52h-1.52zm2.41 0h1.52v1.52h-1.52zm2.52 0h1.52v1.52h-1.52zm0 2.29h1.52V82h-1.52zm0 2.3h1.52v1.52h-1.52zm0 2.3h1.52v1.52h-1.52zm0 2.3h1.52v1.52h-1.52zm0 2.29h1.52v1.52h-1.52zm0 2.3h1.52v1.52h-1.52zm0 2.3h1.52v1.52h-1.52zm0 2.3h1.52v1.52h-1.52zm0 2.29h1.52v1.52h-1.52zm-9.75-18.38h1.52V82h-1.52zm2.41 0h1.52V82h-1.52zm2.41 0h1.52V82h-1.52zm2.41 0h1.52V82h-1.52zm-7.23 2.3h1.52v1.52h-1.52zm2.41 0h1.52v1.52h-1.52zm2.41 0h1.52v1.52h-1.52zm2.41 0h1.52v1.52h-1.52zm-7.23 2.3h1.52v1.52h-1.52zm2.41 0h1.52v1.52h-1.52zm2.41 0h1.52v1.52h-1.52zm2.41 0h1.52v1.52h-1.52zm-7.23 2.3h1.52v1.52h-1.52zm2.41 0h1.52v1.52h-1.52zm2.41 0h1.52v1.52h-1.52zm2.41 0h1.52v1.52h-1.52zm-7.23 2.29h1.52v1.52h-1.52zm2.41 0h1.52v1.52h-1.52zm2.41 0h1.52v1.52h-1.52zm2.41 0h1.52v1.52h-1.52zm-7.23 2.3h1.52v1.52h-1.52zm2.41 0h1.52v1.52h-1.52zm2.41 0h1.52v1.52h-1.52zm2.41 0h1.52v1.52h-1.52zm-7.23 2.3h1.52v1.52h-1.52zm2.41 0h1.52v1.52h-1.52zm2.41 0h1.52v1.52h-1.52zm2.41 0h1.52v1.52h-1.52zm-7.23 2.3h1.52v1.52h-1.52zm2.41 0h1.52v1.52h-1.52zm2.41 0h1.52v1.52h-1.52zm2.41 0h1.52v1.52h-1.52zm-7.23 2.29h1.52v1.52h-1.52zm2.41 0h1.52v1.52h-1.52zm2.41 0h1.52v1.52h-1.52zm2.41 0h1.52v1.52h-1.52z"/></g></svg>