<svg xmlns="http://www.w3.org/2000/svg" viewBox="0 0 97 151"><title>Vertical band saw(立式带锯床)</title><defs><linearGradient id="a" x1="0%" x2="100%" y1="50.123%" y2="50.123%"><stop offset="0%" stop-color="#e2e2e2"/><stop offset="3%" stop-color="#d0d0d0"/><stop offset="6%" stop-color="#bcbcbc"/><stop offset="9%" stop-color="#b5b5b5"/><stop offset="49%" stop-color="#f6f6f6"/><stop offset="63%" stop-color="#f3f3f3"/><stop offset="73%" stop-color="#eaeaea"/><stop offset="82%" stop-color="#dbdbdb"/><stop offset="90%" stop-color="#c6c6c6"/><stop offset="97%" stop-color="#aaa"/><stop offset="100%" stop-color="#9b9b9b"/></linearGradient><linearGradient id="b" x1="0%" x2="100%" y1="50.382%" y2="50.382%"><stop offset="0%" stop-color="#e2e2e2"/><stop offset="3%" stop-color="#d0d0d0"/><stop offset="6%" stop-color="#bcbcbc"/><stop offset="9%" stop-color="#b5b5b5"/><stop offset="49%" stop-color="#f6f6f6"/><stop offset="63%" stop-color="#f3f3f3"/><stop offset="73%" stop-color="#eaeaea"/><stop offset="82%" stop-color="#dbdbdb"/><stop offset="90%" stop-color="#c6c6c6"/><stop offset="97%" stop-color="#aaa"/><stop offset="100%" stop-color="#9b9b9b"/></linearGradient><linearGradient id="c" x1="0%" x2="100%" y1="49.983%" y2="49.983%"><stop offset="0%" stop-color="#e2e2e2"/><stop offset="3%" stop-color="#d0d0d0"/><stop offset="6%" stop-color="#bcbcbc"/><stop offset="9%" stop-color="#b5b5b5"/><stop offset="49%" stop-color="#f6f6f6"/><stop offset="63%" stop-color="#f3f3f3"/><stop offset="73%" stop-color="#eaeaea"/><stop offset="82%" stop-color="#dbdbdb"/><stop offset="90%" stop-color="#c6c6c6"/><stop offset="97%" stop-color="#aaa"/><stop offset="100%" stop-color="#9b9b9b"/></linearGradient></defs><g fill="none" fill-rule="evenodd" transform="translate(0 .033)"><path fill="#bdbdbd" fill-rule="nonzero" d="M80.09 84.81H33.66V33.69h46.43V0H0v150h90.46V84.83H80.09z"/><path stroke="#6d6d6d" stroke-width=".75" d="M82.03 143.3H32.65l-4.24-4.03V94.11h53.62zM28.41 0v94.1"/><path fill="#6d6d6d" fill-rule="nonzero" d="M36.92 9.22h38.31v13.11H36.92zM4.64 6.28h16.5V14H4.64z"/><circle cx="12.85" cy="79.73" r="2.96" fill="#686868" fill-rule="nonzero" stroke="#42403f"/><circle cx="12.88" cy="105.09" r="2.96" fill="#bfbfbf" fill-rule="nonzero" stroke="#42403f"/><path fill="#6d6d6d" fill-rule="nonzero" d="M6.94 112.88h15.43v1.24H6.94zm0 3.2h15.43v1.24H6.94zm0 3.19h15.43v1.24H6.94zm0 3.19h15.43v1.24H6.94zm0 3.19h15.43v1.24H6.94zm0 3.2h15.43v1.24H6.94zm0 3.19h15.43v1.24H6.94zm0 3.19h15.43v1.24H6.94zm0 3.2h15.43v1.24H6.94zm0 3.19h15.43v1.24H6.94zm0 3.19h15.43v1.24H6.94z" opacity=".99"/><path fill="#848484" fill-rule="nonzero" d="M33.66 79.73h48.37v5.1H33.66z"/><path fill="#6d6d6d" fill-rule="nonzero" d="M33.66 69.07h63.3v10.66h-63.3z"/><path fill="url(#a)" fill-rule="nonzero" d="M59.89 33.69h1.6v4.07h-1.6z"/><path fill="url(#b)" fill-rule="nonzero" d="M58.32 37.76h4.92v1.31h-4.92z"/><path fill="url(#c)" fill-rule="nonzero" d="M72.04 33.69h5.32v29.97h-5.32z"/></g></svg>