<svg xmlns="http://www.w3.org/2000/svg" viewBox="0 0 61 152"><title>Air conditioner（空调）</title><defs><linearGradient id="a" x1="45.987%" x2="54.012%" y1="74.298%" y2="25.702%"><stop offset="0%" stop-color="#2a6aaf" stop-opacity="0"/><stop offset="100%" stop-color="#5ac8f7" stop-opacity=".6"/></linearGradient><linearGradient id="b" x1="40.287%" x2="59.713%" y1="82.428%" y2="17.572%"><stop offset="0%" stop-color="#2a6aaf" stop-opacity="0"/><stop offset="100%" stop-color="#5ac8f7" stop-opacity=".6"/></linearGradient><linearGradient id="c" x1="70.248%" x2="29.752%" y1="61.716%" y2="38.284%"><stop offset="0%" stop-color="#5ac8f7" stop-opacity=".6"/><stop offset="100%" stop-color="#2a6aaf" stop-opacity="0"/></linearGradient><linearGradient id="d" x1="45.987%" x2="54.013%" y1="74.298%" y2="25.694%"><stop offset="0%" stop-color="#2a6aaf" stop-opacity="0"/><stop offset="100%" stop-color="#5ac8f7" stop-opacity=".6"/></linearGradient><linearGradient id="e" x1="40.287%" x2="59.713%" y1="82.422%" y2="17.578%"><stop offset="0%" stop-color="#2a6aaf" stop-opacity="0"/><stop offset="100%" stop-color="#5ac8f7" stop-opacity=".6"/></linearGradient><linearGradient id="f" x1="70.243%" x2="29.74%" y1="61.72%" y2="38.28%"><stop offset="0%" stop-color="#5ac8f7" stop-opacity=".6"/><stop offset="100%" stop-color="#2a6aaf" stop-opacity="0"/></linearGradient><linearGradient id="g" x1="32.882%" x2="67.068%" y1="64.433%" y2="35.525%"><stop offset="0%" stop-color="#2a6aaf" stop-opacity="0"/><stop offset="100%" stop-color="#5ac8f7" stop-opacity=".6"/></linearGradient><linearGradient id="h" x1="7.229%" x2="92.771%" y1="80.383%" y2="19.599%"><stop offset="0%" stop-color="#2a6aaf" stop-opacity="0"/><stop offset="100%" stop-color="#5ac8f7" stop-opacity=".6"/></linearGradient><linearGradient id="i" x1="32.899%" x2="67.101%" y1="64.477%" y2="35.523%"><stop offset="0%" stop-color="#2a6aaf" stop-opacity="0"/><stop offset="100%" stop-color="#5ac8f7" stop-opacity=".6"/></linearGradient><linearGradient id="j" x1="7.227%" x2="92.747%" y1="80.387%" y2="19.613%"><stop offset="0%" stop-color="#2a6aaf" stop-opacity="0"/><stop offset="100%" stop-color="#5ac8f7" stop-opacity=".6"/></linearGradient><linearGradient id="k" x1="70.273%" x2="29.727%" y1="61.687%" y2="38.303%"><stop offset="0%" stop-color="#5ac8f7" stop-opacity=".6"/><stop offset="100%" stop-color="#2a6aaf" stop-opacity="0"/></linearGradient><linearGradient id="l" x1="15.107%" x2="84.893%" y1="94.449%" y2="5.531%"><stop offset="0%" stop-color="#2a6aaf" stop-opacity="0"/><stop offset="100%" stop-color="#5ac8f7" stop-opacity=".6"/></linearGradient><linearGradient id="m" x1="41.809%" x2="58.294%" y1="81.376%" y2="18.503%"><stop offset="0%" stop-color="#2a6aaf" stop-opacity="0"/><stop offset="100%" stop-color="#5ac8f7" stop-opacity=".6"/></linearGradient><linearGradient id="n" x1="63.529%" x2="36.471%" y1="57.845%" y2="42.155%"><stop offset="0%" stop-color="#2a6aaf" stop-opacity="0"/><stop offset="100%" stop-color="#5ac8f7" stop-opacity=".6"/></linearGradient><linearGradient id="o" x1="63.529%" x2="36.471%" y1="57.783%" y2="42.155%"><stop offset="0%" stop-color="#2a6aaf" stop-opacity="0"/><stop offset="100%" stop-color="#5ac8f7" stop-opacity=".6"/></linearGradient><linearGradient id="p" x1="53.736%" x2="46.264%" y1="78.307%" y2="21.825%"><stop offset="0%" stop-color="#2a6aaf" stop-opacity="0"/><stop offset="100%" stop-color="#5ac8f7" stop-opacity=".6"/></linearGradient><linearGradient id="q" x1="19.689%" x2="80.311%" y1="92.646%" y2="7.354%"><stop offset="0%" stop-color="#5ac8f7" stop-opacity=".6"/><stop offset="100%" stop-color="#2a6aaf" stop-opacity="0"/></linearGradient><linearGradient id="r" x1="53.745%" x2="46.255%" y1="78.278%" y2="21.722%"><stop offset="0%" stop-color="#2a6aaf" stop-opacity="0"/><stop offset="100%" stop-color="#5ac8f7" stop-opacity=".6"/></linearGradient><linearGradient id="s" x1="20.073%" x2="77.464%" y1="90.572%" y2="11.483%"><stop offset="0%" stop-color="#2a6aaf" stop-opacity="0"/><stop offset="23%" stop-color="#2a6bb0" stop-opacity=".01"/><stop offset="36%" stop-color="#2b70b2" stop-opacity=".04"/><stop offset="48%" stop-color="#2d78b7" stop-opacity=".1"/><stop offset="58%" stop-color="#3084bd" stop-opacity=".18"/><stop offset="67%" stop-color="#3493c5" stop-opacity=".28"/><stop offset="75%" stop-color="#38a5cf" stop-opacity=".41"/><stop offset="83%" stop-color="#3dbbdb" stop-opacity=".56"/><stop offset="91%" stop-color="#43d4e9" stop-opacity=".74"/><stop offset="98%" stop-color="#4af0f9" stop-opacity=".93"/><stop offset="100%" stop-color="#4cfafe"/></linearGradient><linearGradient id="t" x1="20.396%" x2="95.325%" y1="98.857%" y2="21.302%"><stop offset="0%" stop-color="#2a6aaf" stop-opacity="0"/><stop offset="23%" stop-color="#2a6bb0" stop-opacity=".01"/><stop offset="36%" stop-color="#2b70b2" stop-opacity=".04"/><stop offset="48%" stop-color="#2d78b7" stop-opacity=".1"/><stop offset="58%" stop-color="#3084bd" stop-opacity=".18"/><stop offset="67%" stop-color="#3493c5" stop-opacity=".28"/><stop offset="75%" stop-color="#38a5cf" stop-opacity=".41"/><stop offset="83%" stop-color="#3dbbdb" stop-opacity=".56"/><stop offset="91%" stop-color="#43d4e9" stop-opacity=".74"/><stop offset="98%" stop-color="#4af0f9" stop-opacity=".93"/><stop offset="100%" stop-color="#4cfafe"/></linearGradient><linearGradient id="u" x1="-3.037%" x2="40.963%" y1="43%" y2="5%"><stop offset="0%" stop-color="#2a6aaf" stop-opacity="0"/><stop offset="23%" stop-color="#2a6bb0" stop-opacity=".01"/><stop offset="36%" stop-color="#2b70b2" stop-opacity=".04"/><stop offset="48%" stop-color="#2d78b7" stop-opacity=".1"/><stop offset="58%" stop-color="#3084bd" stop-opacity=".18"/><stop offset="67%" stop-color="#3493c5" stop-opacity=".28"/><stop offset="75%" stop-color="#38a5cf" stop-opacity=".41"/><stop offset="83%" stop-color="#3dbbdb" stop-opacity=".56"/><stop offset="91%" stop-color="#43d4e9" stop-opacity=".74"/><stop offset="98%" stop-color="#4af0f9" stop-opacity=".93"/><stop offset="100%" stop-color="#4cfafe"/></linearGradient><linearGradient id="v" x1="19.08%" x2="83.27%" y1="96.963%" y2="19.821%"><stop offset="0%" stop-color="#2a6aaf" stop-opacity="0"/><stop offset="23%" stop-color="#2a6bb0" stop-opacity=".01"/><stop offset="36%" stop-color="#2b70b2" stop-opacity=".04"/><stop offset="48%" stop-color="#2d78b7" stop-opacity=".1"/><stop offset="58%" stop-color="#3084bd" stop-opacity=".18"/><stop offset="67%" stop-color="#3493c5" stop-opacity=".28"/><stop offset="75%" stop-color="#38a5cf" stop-opacity=".41"/><stop offset="83%" stop-color="#3dbbdb" stop-opacity=".56"/><stop offset="91%" stop-color="#43d4e9" stop-opacity=".74"/><stop offset="98%" stop-color="#4af0f9" stop-opacity=".93"/><stop offset="100%" stop-color="#4cfafe"/></linearGradient></defs><g fill="none" fill-rule="evenodd"><g opacity=".2"><path fill="url(#a)" fill-rule="nonzero" d="M19.94 11.59 0 0l.16 110.19 19.95 11.59z" transform="translate(40.1 6.32)"/><path fill="url(#a)" fill-rule="nonzero" stroke="#5ac8f7" stroke-linejoin="round" stroke-width=".25" d="M19.94 11.59 0 0l.16 110.19 19.95 11.59z" transform="translate(40.1 6.32)"/><path stroke="#5ac8f7" stroke-linejoin="round" stroke-width=".25" d="M60.04 17.91 40.1 6.32l.16 110.19 19.95 11.59z"/></g><g opacity=".2"><path fill="url(#b)" fill-rule="nonzero" d="M39.71 0 0 22.93l.16 110.18 39.71-22.92z" transform="translate(.39 6.32)"/><path fill="url(#b)" fill-rule="nonzero" stroke="#5ac8f7" stroke-linejoin="round" stroke-width=".25" d="M39.71 0 0 22.93l.16 110.18 39.71-22.92z" transform="translate(.39 6.32)"/><path stroke="#5ac8f7" stroke-linejoin="round" stroke-width=".25" d="M40.1 6.32.39 29.25l.16 110.18 39.71-22.92z"/></g><g opacity=".2"><path fill="url(#c)" fill-rule="nonzero" d="m0 22.92 19.95 11.6 39.71-22.93L39.71 0z" transform="translate(.55 116.51)"/><path fill="url(#c)" fill-rule="nonzero" stroke="#5ac8f7" stroke-linejoin="round" stroke-width=".25" d="m0 22.92 19.95 11.6 39.71-22.93L39.71 0z" transform="translate(.55 116.51)"/><path stroke="#5ac8f7" stroke-linejoin="round" stroke-width=".25" d="m.55 139.43 19.95 11.6 39.71-22.93-19.95-11.59z"/></g><path fill="url(#d)" fill-rule="nonzero" d="m0 0 .16 110.18 19.95 11.6-.17-110.19z" transform="translate(.39 29.25)"/><path fill="url(#d)" fill-rule="nonzero" stroke="#5ac8f7" stroke-linejoin="round" stroke-width=".25" d="m0 0 .16 110.18 19.95 11.6-.17-110.19z" transform="translate(.39 29.25)"/><path stroke="#5ac8f7" stroke-linejoin="round" stroke-width=".25" d="m.39 29.25.16 110.18 19.95 11.6-.17-110.19z"/><path fill="url(#e)" fill-rule="nonzero" d="m0 22.93.17 110.19 39.71-22.93L39.71 0z" transform="translate(20.33 17.91)"/><path fill="url(#e)" fill-rule="nonzero" stroke="#5ac8f7" stroke-linejoin="round" stroke-width=".25" d="m0 22.93.17 110.19 39.71-22.93L39.71 0z" transform="translate(20.33 17.91)"/><path stroke="#5ac8f7" stroke-linejoin="round" stroke-width=".25" d="m20.33 40.84.17 110.19 39.71-22.93-.17-110.19z"/><g opacity=".2"><path fill="url(#f)" fill-rule="nonzero" d="m0 22.93 19.94 11.59 39.71-22.93L39.71 0z" transform="translate(.39 6.32)"/><path fill="url(#f)" fill-rule="nonzero" stroke="#5ac8f7" stroke-linejoin="round" stroke-width=".25" d="m0 22.93 19.94 11.59 39.71-22.93L39.71 0z" transform="translate(.39 6.32)"/><path stroke="#5ac8f7" stroke-linejoin="round" stroke-width=".25" d="m.39 29.25 19.94 11.59 39.71-22.93L40.1 6.32z"/></g><g opacity=".2"><path fill="url(#g)" fill-rule="nonzero" d="M19.95 11.58 0 0v5.28l19.95 11.59z" transform="translate(40.08 1.03)"/><path fill="url(#g)" fill-rule="nonzero" stroke="#5ac8f7" stroke-linejoin="round" stroke-width=".25" d="M19.95 11.58 0 0v5.28l19.95 11.59z" transform="translate(40.08 1.03)"/><path stroke="#5ac8f7" stroke-linejoin="round" stroke-width=".25" d="M60.03 12.61 40.08 1.03v5.28L60.03 17.9z"/></g><g opacity=".2"><path fill="url(#h)" fill-rule="nonzero" d="M39.7 0 0 22.92v5.29L39.7 5.28z" transform="translate(.38 1.03)"/><path fill="url(#h)" fill-rule="nonzero" stroke="#5ac8f7" stroke-linejoin="round" stroke-width=".25" d="M39.7 0 0 22.92v5.29L39.7 5.28z" transform="translate(.38 1.03)"/><path stroke="#5ac8f7" stroke-linejoin="round" stroke-width=".25" d="M40.08 1.03.38 23.95v5.29l39.7-22.93z"/></g><path fill="url(#i)" fill-rule="nonzero" d="M0 0v5.29l19.94 11.59v-5.29z" transform="translate(.38 23.95)"/><path fill="url(#i)" fill-rule="nonzero" stroke="#5ac8f7" stroke-linejoin="round" stroke-width=".25" d="M0 0v5.29l19.94 11.59v-5.29z" transform="translate(.38 23.95)"/><path stroke="#5ac8f7" stroke-linejoin="round" stroke-width=".25" d="M.38 23.95v5.29l19.94 11.59v-5.29z"/><path fill="url(#j)" fill-rule="nonzero" d="M0 22.93v5.29L39.71 5.29V0z" transform="translate(20.32 12.61)"/><path fill="url(#j)" fill-rule="nonzero" stroke="#5ac8f7" stroke-linejoin="round" stroke-width=".25" d="M0 22.93v5.29L39.71 5.29V0z" transform="translate(20.32 12.61)"/><path stroke="#5ac8f7" stroke-linejoin="round" stroke-width=".25" d="M20.32 35.54v5.29L60.03 17.9v-5.29z"/><path fill="url(#k)" fill-rule="nonzero" d="m0 22.92 20.11 11.59 39.7-22.93L39.7 0z" transform="translate(.38 1.03)"/><path fill="url(#k)" fill-rule="nonzero" stroke="#5ac8f7" stroke-linejoin="round" stroke-width=".25" d="m0 22.92 20.11 11.59 39.7-22.93L39.7 0z" transform="translate(.38 1.03)"/><path stroke="#5ac8f7" stroke-linejoin="round" stroke-width=".25" d="m.38 23.95 20.11 11.59 39.7-22.93L40.08 1.03z"/><path fill="url(#l)" fill-rule="nonzero" d="M39.71 0 0 22.92.16 50.8l39.71-22.93z" transform="translate(20.39 100.23)"/><g fill-rule="nonzero" stroke="#5ac8f7" stroke-linejoin="round" stroke-width=".25"><path fill="url(#l)" d="M39.71 0 0 22.92.16 50.8l39.71-22.93z" transform="translate(20.39 100.23)"/><path fill="url(#m)" d="M8.62 17.94v27.98L.17 50.8 0 22.92z" transform="translate(20.39 100.23)"/></g><path stroke="#5ac8f7" stroke-linejoin="round" stroke-width=".25" d="m60.1 100.23-39.71 22.92.16 27.88 39.71-22.93z"/><g opacity=".2"><path fill="url(#n)" fill-rule="nonzero" d="m0 4.84.97.56L9.35.56 8.38 0z" transform="translate(36.65 47.86)"/><path fill="url(#n)" fill-rule="nonzero" stroke="#5ac8f7" stroke-linejoin="round" stroke-width=".25" d="m0 4.84.97.56L9.35.56 8.38 0z" transform="translate(36.65 47.86)"/><path stroke="#5ac8f7" stroke-linejoin="round" stroke-width=".25" d="m36.65 52.7.97.56L46 48.42l-.97-.56z"/></g><path fill="url(#o)" fill-rule="nonzero" d="m0 4.83.97.57L9.35.56 8.38 0z" transform="translate(36.63 40.87)"/><path fill="url(#o)" fill-rule="nonzero" stroke="#5ac8f7" stroke-linejoin="round" stroke-width=".25" d="m0 4.83.97.57L9.35.56 8.38 0z" transform="translate(36.63 40.87)"/><path stroke="#5ac8f7" stroke-linejoin="round" stroke-width=".25" d="m36.63 45.7.97.57 8.38-4.84-.97-.56z"/><path fill="url(#p)" fill-rule="nonzero" d="m.005 0 .02 7 .97.56L.975.57z" transform="translate(36.625 45.7)"/><path fill="url(#p)" fill-rule="nonzero" stroke="#5ac8f7" stroke-linejoin="round" stroke-width=".25" d="m.005 0 .02 7 .97.56L.975.57z" transform="translate(36.625 45.7)"/><path stroke="#5ac8f7" stroke-linejoin="round" stroke-width=".25" d="m36.63 45.7.02 7 .97.56-.02-6.99z"/><path fill="url(#q)" fill-rule="nonzero" d="m37.22 45.24.02 6.99 8.38-4.84-.02-6.99z" transform="translate(.38 1.03)"/><path fill="url(#q)" fill-rule="nonzero" stroke="#5ac8f7" stroke-linejoin="round" stroke-width=".25" d="m37.22 45.24.02 6.99 8.38-4.84-.02-6.99z" transform="translate(.38 1.03)"/><path stroke="#5ac8f7" stroke-linejoin="round" stroke-width=".25" d="m37.6 46.27.02 6.99L46 48.42l-.02-6.99z"/><g opacity=".2"><path fill="url(#r)" fill-rule="nonzero" d="M.975.56.005 0l.02 6.99.97.56z" transform="translate(45.005 40.87)"/><path fill="url(#r)" fill-rule="nonzero" stroke="#5ac8f7" stroke-linejoin="round" stroke-width=".25" d="M.975.56.005 0l.02 6.99.97.56z" transform="translate(45.005 40.87)"/><path stroke="#5ac8f7" stroke-linejoin="round" stroke-width=".25" d="m45.98 41.43-.97-.56.02 6.99.97.56z"/></g><path fill="#82cbd8" fill-rule="nonzero" d="M39.61 48.26v.41l-.25.27v-.49l.06-.07.08-.09zm0 .41.64-.31h.12l-.13.14-.9.42zm.76-.88-.09.1a.1.1 0 0 1-.03.01h-.07l-.53.24h-.12l.08-.1h.13l.53-.25zm-.09-.46-.65.3h-.12l.12-.14.63-.29a.2.2 0 0 1 .12 0h.05zm0 .4v-.39l.15-.17h.06v.41l-.09.09z"/><path fill="url(#s)" fill-rule="nonzero" d="M40 46.12h.05l-.15.16-.65.3h-.12l.12-.14.63-.29a.16.16 0 0 1 .09 0m.11 0h.06v.41l-.09.09h-.11v-.39l.15-.17m-.21.6H40l-.09.1a.12.12 0 0 1-.04.08h-.07l-.53.24h-.12l.08-.1h.13l.53-.25m-.77.47h.1v.41l-.25.27v-.49l.06-.07.08-.09m.77.12H40l-.13.14-.9.42.27-.28.64-.31m.1-1.31a.3.3 0 0 0-.14 0l-.62.29-.13.14a.12.12 0 0 0 0 .1.11.11 0 0 0 .08.07h.18l.53-.25v.22l-.51.24h-.09a.13.13 0 0 0-.07.06l-.09.1-.08.09a.3.3 0 0 0-.06.08v.59a.09.09 0 0 0 .06.09h.12l.9-.42.12-.14a.1.1 0 0 0 0-.1.14.14 0 0 0-.08-.07h-.23l-.54.26v-.22l.52-.24.09-.05.07-.06.09-.1.08-.09a.2.2 0 0 0 0-.07.2.2 0 0 0 0-.09v-.3a.14.14 0 0 0-.11-.11h-.19z" transform="translate(.38 1.03)"/><path fill="#82cbd8" fill-rule="nonzero" d="M41.04 46.9v.51l-.12.14h-.12v-.45l.13-.15zm0 .51.62-.29h.12l-.14.14-.51.24a.3.3 0 0 1-.14 0h-.08zm.89-.23v.52l-.13.13h-.12v-.51l.13-.14zm0-.72v.51l-.13.14h-.12v-.51l.13-.15z"/><path fill="url(#t)" fill-rule="nonzero" d="M41.48 45.39h.12v.51l-.13.14h-.12v-.51l.13-.15m-.94.44h.12v.51l-.12.14h-.12v-.45l.13-.15m.75.26h.12l-.14.14-.51.24a.3.3 0 0 1-.13 0h-.09l.13-.15.62-.29m.15 0h.12v.52l-.13.13h-.12v-.51zm0-.84a.12.12 0 0 0-.08 0l-.12.15a.06.06 0 0 0 0 .06v.47l-.49.23v-.37a.1.1 0 0 0-.07-.1h-.12a.13.13 0 0 0-.07 0l-.13.14v.58a.17.17 0 0 0 .14.12h.19a.5.5 0 0 0 .18-.05l.4-.19v.37a.1.1 0 0 0 .07.11h.12a.1.1 0 0 0 .08 0l.12-.14a.07.07 0 0 0 0-.06v-.51a.12.12 0 0 0-.06-.1.1.1 0 0 0 0-.06v-.52a.11.11 0 0 0-.08-.1h-.11z" transform="translate(.38 1.03)"/><path fill="#82cbd8" fill-rule="nonzero" d="M42.53 47.31v.17l-.25.11v-.17z"/><path fill="url(#u)" fill-rule="nonzero" d="M42.15 46.28v.17l-.25.11v-.17zm0-.1-.25.11a.11.11 0 0 0-.06.09v.16a.11.11 0 0 0 0 .09h.05l.24-.11a.11.11 0 0 0 .06-.09v-.17a.1.1 0 0 0-.05-.08z" transform="translate(.38 1.03)"/><path fill="#82cbd8" fill-rule="nonzero" d="M43.16 46.58V47l-.15.17h-.05v-.4l.12-.14zm0 .42.61-.28h.13l-.06.07a.25.25 0 0 1-.12.08l-.54.25a.15.15 0 0 1-.12 0zm0-1v.41l-.13.15h-.11v-.43c0-.01 0 0 0 0l.08-.09zm.66-.33-.61.28h-.14l.06-.07a.5.5 0 0 1 .11-.09l.56-.26a.2.2 0 0 1 .12 0zm0 1v-.42l.12-.15h.12v.43l-.09.08zm0-.59v-.41l.15-.17h.05v.39l-.13.15z"/><path fill="url(#v)" fill-rule="nonzero" d="m43.54 44.46-.15.16-.61.28h-.14l.06-.07a.5.5 0 0 1 .11-.09l.56-.26h.09m.12 0h.05v.39l-.13.15h-.12v-.41l.15-.17m-1 .46h.12v.41l-.13.15h-.11v-.43c0-.01 0 0 0 0l.08-.09m.91.14h.12v.43l-.09.08h-.12v-.42l.12-.15m-.94.45h.12v.42l-.15.17h-.05v-.4l.12-.14m.75.16h.13l-.06.07a.25.25 0 0 1-.12.08l-.54.25a.2.2 0 0 1-.1 0h-.07l.15-.17.61-.28m.13-1.33h-.13l-.56.26a.44.44 0 0 0-.15.12v.06l-.08.09a.2.2 0 0 0-.06.08.3.3 0 0 0 0 .1v.35a.09.09 0 0 0 0 .09.1.1 0 0 0 0 .06v.41a.14.14 0 0 0 .12.11h.18a.4.4 0 0 0 .14 0l.54-.26a.4.4 0 0 0 .15-.1l.07-.07a.1.1 0 0 0 0-.05l.09-.09a.2.2 0 0 0 .06-.08 1 1 0 0 0 0-.1v-.35a.1.1 0 0 0 0-.09.07.07 0 0 0 0-.06v-.45a.18.18 0 0 0-.13-.11h-.18zm-.63.65.49-.23v.27a.13.13 0 0 0 0 .09.14.14 0 0 0 0 .06v.38l-.4.35v-.27a.12.12 0 0 0 0-.09.14.14 0 0 0 0-.06v-.38z" transform="translate(.38 1.03)"/></g></svg>