<svg xmlns="http://www.w3.org/2000/svg" viewBox="0 0 124 152"><title>Desktop computer（台式机）</title><defs><linearGradient id="a" x1="81.205%" x2="18.783%" y1="68.101%" y2="31.899%"><stop offset="0%" stop-color="#5ac8f7" stop-opacity=".6"/><stop offset="100%" stop-color="#2a6aaf" stop-opacity="0"/></linearGradient><linearGradient id="b" x1="8.333%" x2="91.667%" y1="77.75%" y2="22.222%"><stop offset="0%" stop-color="#2a6aaf" stop-opacity="0"/><stop offset="100%" stop-color="#5ac8f7" stop-opacity=".6"/></linearGradient><linearGradient id="c" x1="8.333%" x2="91.625%" y1="77.778%" y2="22.222%"><stop offset="0%" stop-color="#2a6aaf" stop-opacity="0"/><stop offset="100%" stop-color="#5ac8f7" stop-opacity=".6"/></linearGradient><linearGradient id="d" x1="38.633%" x2="61.367%" y1="57.009%" y2="42.98%"><stop offset="0%" stop-color="#2a6aaf" stop-opacity="0"/><stop offset="100%" stop-color="#5ac8f7" stop-opacity=".6"/></linearGradient><linearGradient id="e" x1="38.639%" x2="61.378%" y1="57.022%" y2="42.988%"><stop offset="0%" stop-color="#2a6aaf" stop-opacity="0"/><stop offset="100%" stop-color="#5ac8f7" stop-opacity=".6"/></linearGradient><linearGradient id="f" x1="81.205%" x2="18.795%" y1="68.101%" y2="31.899%"><stop offset="0%" stop-color="#5ac8f7" stop-opacity=".6"/><stop offset="100%" stop-color="#2a6aaf" stop-opacity="0"/></linearGradient><linearGradient id="g" x1="33.233%" x2="66.767%" y1="71.85%" y2="28.143%"><stop offset="0%" stop-color="#2a6aaf" stop-opacity="0"/><stop offset="100%" stop-color="#5ac8f7" stop-opacity=".6"/></linearGradient><linearGradient id="h" x1="48.027%" x2="51.973%" y1="76.715%" y2="23.285%"><stop offset="0%" stop-color="#2a6aaf" stop-opacity="0"/><stop offset="100%" stop-color="#5ac8f7" stop-opacity=".6"/></linearGradient><linearGradient id="i" x1="48.024%" x2="51.976%" y1="76.706%" y2="23.282%"><stop offset="0%" stop-color="#2a6aaf" stop-opacity="0"/><stop offset="100%" stop-color="#5ac8f7" stop-opacity=".6"/></linearGradient><linearGradient id="j" x1="88.045%" x2="11.955%" y1="72.106%" y2="27.894%"><stop offset="0%" stop-color="#5ac8f7" stop-opacity=".6"/><stop offset="100%" stop-color="#2a6aaf" stop-opacity="0"/></linearGradient><linearGradient id="k" x1="33.23%" x2="66.764%" y1="71.852%" y2="28.148%"><stop offset="0%" stop-color="#2a6aaf" stop-opacity="0"/><stop offset="100%" stop-color="#5ac8f7" stop-opacity=".6"/></linearGradient><linearGradient id="l" x1="88.044%" x2="11.947%" y1="72.104%" y2="27.891%"><stop offset="0%" stop-color="#5ac8f7" stop-opacity=".6"/><stop offset="100%" stop-color="#2a6aaf" stop-opacity="0"/></linearGradient><linearGradient id="m" x1="74.525%" x2="25.475%" y1="64.203%" y2="35.784%"><stop offset="0%" stop-color="#5ac8f7" stop-opacity=".6"/><stop offset="100%" stop-color="#2a6aaf" stop-opacity="0"/></linearGradient><linearGradient id="n" x1="8.14%" x2="91.86%" y1="78.198%" y2="21.802%"><stop offset="0%" stop-color="#2a6aaf" stop-opacity="0"/><stop offset="100%" stop-color="#5ac8f7" stop-opacity=".6"/></linearGradient><linearGradient id="o" x1="36.952%" x2="63.048%" y1="58.92%" y2="41.05%"><stop offset="0%" stop-color="#2a6aaf" stop-opacity="0"/><stop offset="100%" stop-color="#5ac8f7" stop-opacity=".6"/></linearGradient><linearGradient id="p" x1="8.179%" x2="91.821%" y1="78.178%" y2="21.793%"><stop offset="0%" stop-color="#2a6aaf" stop-opacity="0"/><stop offset="100%" stop-color="#5ac8f7" stop-opacity=".6"/></linearGradient><linearGradient id="q" x1="36.923%" x2="63.077%" y1="58.949%" y2="41.051%"><stop offset="0%" stop-color="#2a6aaf" stop-opacity="0"/><stop offset="100%" stop-color="#5ac8f7" stop-opacity=".6"/></linearGradient><linearGradient id="r" x1="74.541%" x2="25.459%" y1="64.21%" y2="35.79%"><stop offset="0%" stop-color="#5ac8f7" stop-opacity=".6"/><stop offset="100%" stop-color="#2a6aaf" stop-opacity="0"/></linearGradient><linearGradient id="s" x1="45.608%" x2="54.433%" y1="78.841%" y2="21.253%"><stop offset="0%" stop-color="#2a6aaf" stop-opacity="0"/><stop offset="100%" stop-color="#5ac8f7" stop-opacity=".6"/></linearGradient><linearGradient id="t" x1="32.777%" x2="67.223%" y1="59.984%" y2="40.016%"><stop offset="0%" stop-color="#2a6aaf" stop-opacity="0"/><stop offset="100%" stop-color="#5ac8f7" stop-opacity=".6"/></linearGradient><linearGradient id="u" x1="30.801%" x2="69.064%" y1="67.667%" y2="32.207%"><stop offset="0%" stop-color="#2a6aaf" stop-opacity="0"/><stop offset="100%" stop-color="#5ac8f7" stop-opacity=".6"/></linearGradient><linearGradient id="v" x1="43.849%" x2="56.104%" y1="77.415%" y2="22.17%"><stop offset="0%" stop-color="#2a6aaf" stop-opacity="0"/><stop offset="100%" stop-color="#5ac8f7" stop-opacity=".6"/></linearGradient><linearGradient id="w" x1="43.224%" x2="56.694%" y1="77.956%" y2="21.547%"><stop offset="0%" stop-color="#2a6aaf" stop-opacity="0"/><stop offset="100%" stop-color="#5ac8f7" stop-opacity=".6"/></linearGradient></defs><g fill="none" fill-rule="evenodd"><g opacity=".2"><path fill="url(#a)" fill-rule="nonzero" d="M82.68 34.25 58.92 47.96 0 13.72 23.75 0z" transform="translate(40.38 88.47)"/><path fill="url(#a)" fill-rule="nonzero" stroke="#5ac8f7" stroke-linejoin="round" stroke-width=".25" d="M82.68 34.25 58.92 47.96 0 13.72 23.75 0z" transform="translate(40.38 88.47)"/><path stroke="#5ac8f7" stroke-linejoin="round" stroke-width=".25" d="M123.06 122.72 99.3 136.43l-58.92-34.24 23.75-13.72z"/><path fill="url(#b)" fill-rule="nonzero" d="m23.75 0 .01 2.12L.01 15.84 0 13.71z" transform="translate(40.37 86.35)"/><path fill="url(#b)" fill-rule="nonzero" stroke="#5ac8f7" stroke-linejoin="round" stroke-width=".25" d="m23.75 0 .01 2.12L.01 15.84 0 13.71z" transform="translate(40.37 86.35)"/><path stroke="#5ac8f7" stroke-linejoin="round" stroke-width=".25" d="m64.12 86.35.01 2.12-23.75 13.72-.01-2.13z"/><path fill="url(#c)" fill-rule="nonzero" d="m23.75 0 .01 2.13L0 15.84v-2.12z" transform="translate(99.3 120.59)"/><path fill="url(#c)" fill-rule="nonzero" stroke="#5ac8f7" stroke-linejoin="round" stroke-width=".25" d="m23.75 0 .01 2.13L0 15.84v-2.12z" transform="translate(99.3 120.59)"/><path stroke="#5ac8f7" stroke-linejoin="round" stroke-width=".25" d="m123.05 120.59.01 2.13-23.76 13.71v-2.12z"/><path fill="url(#d)" fill-rule="nonzero" d="m58.93 34.24.01 2.13L.01 2.12 0 0z" transform="translate(64.12 86.35)"/><path fill="url(#d)" fill-rule="nonzero" stroke="#5ac8f7" stroke-linejoin="round" stroke-width=".25" d="m58.93 34.24.01 2.13L.01 2.12 0 0z" transform="translate(64.12 86.35)"/><path stroke="#5ac8f7" stroke-linejoin="round" stroke-width=".25" d="m123.05 120.59.01 2.13-58.93-34.25-.01-2.12z"/><path fill="url(#e)" fill-rule="nonzero" d="M58.93 36.37.01 2.13 0 0l58.93 34.25z" transform="translate(40.37 100.06)"/><path fill="url(#e)" fill-rule="nonzero" stroke="#5ac8f7" stroke-linejoin="round" stroke-width=".25" d="M58.93 36.37.01 2.13 0 0l58.93 34.25z" transform="translate(40.37 100.06)"/><path stroke="#5ac8f7" stroke-linejoin="round" stroke-width=".25" d="m99.3 136.43-58.92-34.24-.01-2.13 58.93 34.25z"/><path fill="url(#f)" fill-rule="nonzero" d="M58.93 47.96 0 13.71 23.75 0l58.93 34.24z" transform="translate(40.37 86.35)"/><path fill="url(#f)" fill-rule="nonzero" stroke="#5ac8f7" stroke-linejoin="round" stroke-width=".25" d="M58.93 47.96 0 13.71 23.75 0l58.93 34.24z" transform="translate(40.37 86.35)"/><path stroke="#5ac8f7" stroke-linejoin="round" stroke-width=".25" d="m99.3 134.31-58.93-34.25 23.75-13.71 58.93 34.24z"/></g><g opacity=".2"><path fill="url(#g)" fill-rule="nonzero" d="m110.48 64.2.23 80.1L.22 80.09 0 0z" transform="translate(6.33 1.03)"/><path fill="url(#g)" fill-rule="nonzero" stroke="#5ac8f7" stroke-linejoin="round" stroke-width=".25" d="m110.48 64.2.23 80.1L.22 80.09 0 0z" transform="translate(6.33 1.03)"/><path stroke="#5ac8f7" stroke-linejoin="round" stroke-width=".25" d="m116.81 65.23.23 80.1L6.55 81.12 6.33 1.03z"/></g><g opacity=".2"><path fill="url(#h)" fill-rule="nonzero" d="m5.95 0 .22 80.09-5.95 3.44L0 3.43z" transform="translate(.38 1.03)"/><path fill="url(#h)" fill-rule="nonzero" stroke="#5ac8f7" stroke-linejoin="round" stroke-width=".25" d="m5.95 0 .22 80.09-5.95 3.44L0 3.43z" transform="translate(.38 1.03)"/><path stroke="#5ac8f7" stroke-linejoin="round" stroke-width=".25" d="m6.33 1.03.22 80.09L.6 84.56.38 4.46z"/></g><path fill="url(#i)" fill-rule="nonzero" d="m5.95 0 .23 80.1-5.95 3.44L0 3.44z" transform="translate(110.86 65.23)"/><path fill="url(#i)" fill-rule="nonzero" stroke="#5ac8f7" stroke-linejoin="round" stroke-width=".25" d="m5.95 0 .23 80.1-5.95 3.44L0 3.44z" transform="translate(110.86 65.23)"/><path stroke="#5ac8f7" stroke-linejoin="round" stroke-width=".25" d="m116.81 65.23.23 80.1-5.95 3.44-.23-80.1z"/><g opacity=".2"><path fill="url(#j)" fill-rule="nonzero" d="m116.44 64.21-5.95 3.44L0 3.44 5.95 0z" transform="translate(.6 81.12)"/><path fill="url(#j)" fill-rule="nonzero" stroke="#5ac8f7" stroke-linejoin="round" stroke-width=".25" d="m116.44 64.21-5.95 3.44L0 3.44 5.95 0z" transform="translate(.6 81.12)"/><path stroke="#5ac8f7" stroke-linejoin="round" stroke-width=".25" d="m117.04 145.33-5.95 3.44L.6 84.56l5.95-3.44z"/></g><path fill="url(#k)" fill-rule="nonzero" d="M110.71 144.31.22 80.1 0 0l110.48 64.21z" transform="translate(.38 4.46)"/><path fill="url(#k)" fill-rule="nonzero" stroke="#5ac8f7" stroke-linejoin="round" stroke-width=".25" d="M110.71 144.31.22 80.1 0 0l110.48 64.21z" transform="translate(.38 4.46)"/><path stroke="#5ac8f7" stroke-linejoin="round" stroke-width=".25" d="M111.09 148.77.6 84.56.38 4.46l110.48 64.21z"/><path fill="url(#l)" fill-rule="nonzero" d="M110.48 67.64 0 3.43 5.95 0l110.48 64.2z" transform="translate(.38 1.03)"/><path fill="url(#l)" fill-rule="nonzero" stroke="#5ac8f7" stroke-linejoin="round" stroke-width=".25" d="M110.48 67.64 0 3.43 5.95 0l110.48 64.2z" transform="translate(.38 1.03)"/><path stroke="#5ac8f7" stroke-linejoin="round" stroke-width=".25" d="M110.86 68.67.38 4.46l5.95-3.43 110.48 64.2z"/><g opacity=".2"><path fill="url(#m)" fill-rule="nonzero" d="M45.81 12.84 22.1 26.53 0 13.68 23.71 0z" transform="translate(25.36 124.5)"/><path fill="url(#m)" fill-rule="nonzero" stroke="#5ac8f7" stroke-linejoin="round" stroke-width=".25" d="M45.81 12.84 22.1 26.53 0 13.68 23.71 0z" transform="translate(25.36 124.5)"/><path stroke="#5ac8f7" stroke-linejoin="round" stroke-width=".25" d="m71.17 137.34-23.71 13.69-22.1-12.85 23.71-13.68z"/></g><g opacity=".2"><path fill="url(#n)" fill-rule="nonzero" d="m23.7 0 .01 2.3L0 15.98v-2.3z" transform="translate(25.36 122.2)"/><path fill="url(#n)" fill-rule="nonzero" stroke="#5ac8f7" stroke-linejoin="round" stroke-width=".25" d="m23.7 0 .01 2.3L0 15.98v-2.3z" transform="translate(25.36 122.2)"/><path stroke="#5ac8f7" stroke-linejoin="round" stroke-width=".25" d="m49.06 122.2.01 2.3-23.71 13.68v-2.3z"/></g><g opacity=".2"><path fill="url(#o)" fill-rule="nonzero" d="m22.1 12.84.01 2.3L.01 2.3 0 0z" transform="translate(49.06 122.2)"/><path fill="url(#o)" fill-rule="nonzero" stroke="#5ac8f7" stroke-linejoin="round" stroke-width=".25" d="m22.1 12.84.01 2.3L.01 2.3 0 0z" transform="translate(49.06 122.2)"/><path stroke="#5ac8f7" stroke-linejoin="round" stroke-width=".25" d="m71.16 135.04.01 2.3-22.1-12.84-.01-2.3z"/></g><path fill="url(#p)" fill-rule="nonzero" d="m23.71 0 .01 2.3L.01 15.99 0 13.68z" transform="translate(47.45 135.04)"/><path fill="url(#p)" fill-rule="nonzero" stroke="#5ac8f7" stroke-linejoin="round" stroke-width=".25" d="m23.71 0 .01 2.3L.01 15.99 0 13.68z" transform="translate(47.45 135.04)"/><path stroke="#5ac8f7" stroke-linejoin="round" stroke-width=".25" d="m71.16 135.04.01 2.3-23.71 13.69-.01-2.31z"/><path fill="url(#q)" fill-rule="nonzero" d="M22.1 15.15 0 2.3V0l22.09 12.84z" transform="translate(25.36 135.88)"/><path fill="url(#q)" fill-rule="nonzero" stroke="#5ac8f7" stroke-linejoin="round" stroke-width=".25" d="M22.1 15.15 0 2.3V0l22.09 12.84z" transform="translate(25.36 135.88)"/><path stroke="#5ac8f7" stroke-linejoin="round" stroke-width=".25" d="m47.46 151.03-22.1-12.85v-2.3l22.09 12.84z"/><path fill="url(#r)" fill-rule="nonzero" d="M22.09 26.52 0 13.68 23.7 0l22.1 12.84z" transform="translate(25.36 122.2)"/><path fill="url(#r)" fill-rule="nonzero" stroke="#5ac8f7" stroke-linejoin="round" stroke-width=".25" d="M22.09 26.52 0 13.68 23.7 0l22.1 12.84z" transform="translate(25.36 122.2)"/><path stroke="#5ac8f7" stroke-linejoin="round" stroke-width=".25" d="m47.45 148.72-22.09-12.84 23.7-13.68 22.1 12.84z"/><g opacity=".2"><path fill="url(#s)" fill-rule="nonzero" d="M11.37 0v2.55c-5.06 2.92-9.17 10-9.16 15.86l.16 54.54L.16 74.2 0 19.65C-.02 12.46 5.08 3.63 11.37 0" transform="translate(42.42 60.7)"/><path fill="url(#s)" fill-rule="nonzero" stroke="#5ac8f7" stroke-linejoin="round" stroke-width=".25" d="M11.37 0v2.55c-5.06 2.92-9.17 10-9.16 15.86l.16 54.54L.16 74.2 0 19.65C-.02 12.46 5.08 3.63 11.37 0Z" transform="translate(42.42 60.7)"/><path stroke="#5ac8f7" stroke-linejoin="round" stroke-width=".25" d="M53.79 60.7v2.55c-5.06 2.92-9.17 10-9.16 15.86l.16 54.54-2.21 1.25-.16-54.55c-.02-7.19 5.08-16.02 11.37-19.65Z"/></g><g opacity=".2"><path fill="url(#t)" fill-rule="nonzero" d="M9.58 4.28 7.36 5.57 0 1.29 2.22 0z" transform="translate(42.58 133.65)"/><path fill="url(#t)" fill-rule="nonzero" stroke="#5ac8f7" stroke-linejoin="round" stroke-width=".25" d="M9.58 4.28 7.36 5.57 0 1.29 2.22 0z" transform="translate(42.58 133.65)"/><path stroke="#5ac8f7" stroke-linejoin="round" stroke-width=".25" d="m52.16 137.93-2.22 1.29-7.36-4.28 2.22-1.29z"/></g><g opacity=".2"><path fill="url(#u)" fill-rule="nonzero" d="m7.36 4.28.01 2.55L0 2.55V0z" transform="translate(53.8 60.7)"/><path fill="url(#u)" fill-rule="nonzero" stroke="#5ac8f7" stroke-linejoin="round" stroke-width=".25" d="m7.36 4.28.01 2.55L0 2.55V0z" transform="translate(53.8 60.7)"/><path stroke="#5ac8f7" stroke-linejoin="round" stroke-width=".25" d="m61.16 64.98.01 2.55-7.37-4.28V60.7z"/></g><path fill="url(#v)" fill-rule="nonzero" stroke="#5ac8f7" stroke-linejoin="round" stroke-width=".25" d="m18.75 6.83-.92-.52-1.49-.86-.61-.35-2-1.17-1.49-.87-.89-.51c-5.06 2.92-9.17 10-9.16 15.86l.16 54.54 7.39 4.25-.15-54.55c-.02-5.78 4.09-12.9 9.16-15.82Z" opacity=".2" transform="translate(42.42 60.7)"/><path fill="url(#w)" fill-rule="nonzero" stroke="#5ac8f7" stroke-linejoin="round" stroke-width=".25" d="M18.74 4.28 11.37 0C5.08 3.63-.02 12.46 0 19.69L.16 74.2l7.36 4.28-.15-54.55c-.02-7.19 5.08-16.02 11.37-19.65Z" transform="translate(42.42 60.7)"/><path fill="url(#s)" fill-rule="nonzero" d="M11.37 0v2.55c-5.07 2.92-9.18 10-9.16 15.86l.16 54.51L.15 74.2 0 19.65C-.02 12.46 5.08 3.63 11.37 0" transform="translate(49.79 64.98)"/><path fill="url(#s)" fill-rule="nonzero" stroke="#5ac8f7" stroke-linejoin="round" stroke-width=".25" d="M11.37 0v2.55c-5.07 2.92-9.18 10-9.16 15.86l.16 54.51L.15 74.2 0 19.65C-.02 12.46 5.08 3.63 11.37 0Z" transform="translate(49.79 64.98)"/><path stroke="#5ac8f7" stroke-linejoin="round" stroke-width=".25" d="M61.16 64.98v2.55c-5.07 2.92-9.18 10-9.16 15.86l.16 54.51-2.22 1.28-.15-54.55c-.02-7.19 5.08-16.02 11.37-19.65Z"/></g></svg>