<svg xmlns="http://www.w3.org/2000/svg" viewBox="0 0 151 133"><title>Notebook computer（笔记本电脑）</title><defs><linearGradient id="a" x1="8.369%" x2="91.631%" y1="77.707%" y2="22.293%"><stop offset="0%" stop-color="#2a6aaf" stop-opacity="0"/><stop offset="100%" stop-color="#5ac8f7" stop-opacity=".6"/></linearGradient><linearGradient id="b" x1="37.942%" x2="62.046%" y1="57.766%" y2="42.234%"><stop offset="0%" stop-color="#2a6aaf" stop-opacity="0"/><stop offset="100%" stop-color="#5ac8f7" stop-opacity=".6"/></linearGradient><linearGradient id="c" x1="77.432%" x2="22.561%" y1="65.9%" y2="34.096%"><stop offset="0%" stop-color="#5ac8f7" stop-opacity=".6"/><stop offset="100%" stop-color="#2a6aaf" stop-opacity="0"/></linearGradient><linearGradient id="d" x1="8.369%" x2="91.615%" y1="77.709%" y2="22.291%"><stop offset="0%" stop-color="#2a6aaf" stop-opacity="0"/><stop offset="100%" stop-color="#5ac8f7" stop-opacity=".6"/></linearGradient><linearGradient id="e" x1="37.954%" x2="62.046%" y1="57.766%" y2="42.234%"><stop offset="0%" stop-color="#2a6aaf" stop-opacity="0"/><stop offset="100%" stop-color="#5ac8f7" stop-opacity=".6"/></linearGradient><linearGradient id="f" x1="77.439%" x2="22.561%" y1="65.9%" y2="34.1%"><stop offset="0%" stop-color="#5ac8f7" stop-opacity=".6"/><stop offset="100%" stop-color="#2a6aaf" stop-opacity="0"/></linearGradient><linearGradient id="g" x1="34.245%" x2="65.755%" y1="72.074%" y2="27.926%"><stop offset="0%" stop-color="#2a6aaf" stop-opacity="0"/><stop offset="100%" stop-color="#5ac8f7" stop-opacity=".6"/></linearGradient><linearGradient id="h" x1="48.197%" x2="51.803%" y1="76.569%" y2="23.431%"><stop offset="0%" stop-color="#2a6aaf" stop-opacity="0"/><stop offset="100%" stop-color="#5ac8f7" stop-opacity=".6"/></linearGradient><linearGradient id="i" x1="87.997%" x2="12.003%" y1="72.071%" y2="27.929%"><stop offset="0%" stop-color="#5ac8f7" stop-opacity=".6"/><stop offset="100%" stop-color="#2a6aaf" stop-opacity="0"/></linearGradient><linearGradient id="j" x1="48.195%" x2="51.805%" y1="76.559%" y2="23.441%"><stop offset="0%" stop-color="#2a6aaf" stop-opacity="0"/><stop offset="100%" stop-color="#5ac8f7" stop-opacity=".6"/></linearGradient><linearGradient id="k" x1="34.253%" x2="65.747%" y1="72.068%" y2="27.932%"><stop offset="0%" stop-color="#2a6aaf" stop-opacity="0"/><stop offset="100%" stop-color="#5ac8f7" stop-opacity=".6"/></linearGradient><linearGradient id="l" x1="87.996%" x2="11.993%" y1="72.075%" y2="27.925%"><stop offset="0%" stop-color="#5ac8f7" stop-opacity=".6"/><stop offset="100%" stop-color="#2a6aaf" stop-opacity="0"/></linearGradient></defs><g fill="none" fill-rule="evenodd"><g opacity=".2"><path fill="url(#a)" fill-rule="nonzero" d="m62.6 0 .01 5.54L.02 41.67 0 36.14z" transform="translate(.41 39.67)"/><path fill="url(#a)" fill-rule="nonzero" stroke="#5ac8f7" stroke-linejoin="round" stroke-width=".25" d="m62.6 0 .01 5.54L.02 41.67 0 36.14" transform="translate(.41 39.67)"/><path stroke="#5ac8f7" stroke-linejoin="round" stroke-width=".25" d="m63.01 39.67.01 5.54L.43 81.34l-.02-5.53z"/></g><g opacity=".2"><path fill="url(#b)" fill-rule="nonzero" d="m87.35 50.76.02 5.54L.01 5.54 0 0z" transform="translate(63.01 39.67)"/><path fill="url(#b)" fill-rule="nonzero" stroke="#5ac8f7" stroke-linejoin="round" stroke-width=".25" d="m87.35 50.76.02 5.54L.01 5.54 0 0z" transform="translate(63.01 39.67)"/><path stroke="#5ac8f7" stroke-linejoin="round" stroke-width=".25" d="m150.36 90.43.02 5.54-87.36-50.76-.01-5.54z"/></g><g opacity=".2"><path fill="url(#c)" fill-rule="nonzero" d="M149.95 50.76 87.35 86.9 0 36.13 62.59 0z" transform="translate(.43 45.21)"/><path fill="url(#c)" fill-rule="nonzero" stroke="#5ac8f7" stroke-linejoin="round" stroke-width=".25" d="M149.95 50.76 87.35 86.9 0 36.13 62.59 0z" transform="translate(.43 45.21)"/><path stroke="#5ac8f7" stroke-linejoin="round" stroke-width=".25" d="m150.38 95.97-62.6 36.14L.43 81.34l62.59-36.13z"/></g><path fill="url(#d)" fill-rule="nonzero" d="m62.59 0 .02 5.54L.01 41.68 0 36.14z" transform="translate(87.77 90.43)"/><path fill="url(#d)" fill-rule="nonzero" stroke="#5ac8f7" stroke-linejoin="round" stroke-width=".25" d="m62.59 0 .02 5.54L.01 41.68 0 36.14z" transform="translate(87.77 90.43)"/><path stroke="#5ac8f7" stroke-linejoin="round" stroke-width=".25" d="m150.36 90.43.02 5.54-62.6 36.14-.01-5.54z"/><path fill="url(#e)" fill-rule="nonzero" d="M87.37 56.3.02 5.53 0 0l87.36 50.76z" transform="translate(.41 75.81)"/><path fill="url(#e)" fill-rule="nonzero" stroke="#5ac8f7" stroke-linejoin="round" stroke-width=".25" d="M87.37 56.3.02 5.53 0 0l87.36 50.76z" transform="translate(.41 75.81)"/><path stroke="#5ac8f7" stroke-linejoin="round" stroke-width=".25" d="M87.78 132.11.43 81.34l-.02-5.53 87.36 50.76z"/><path fill="url(#f)" fill-rule="nonzero" d="m62.6 0 87.35 50.76L87.36 86.9 0 36.14" transform="translate(.41 39.67)"/><path stroke="#5ac8f7" stroke-linejoin="round" stroke-width=".25" d="m63.01 39.67 87.35 50.76-62.59 36.14L.41 75.81"/><g opacity=".2"><path fill="url(#g)" fill-rule="nonzero" d="m87.35 50.76.21 71.92L.2 71.92 0 0z" transform="translate(5.25 1.03)"/><path fill="url(#g)" fill-rule="nonzero" stroke="#5ac8f7" stroke-linejoin="round" stroke-width=".25" d="m87.35 50.76.21 71.92L.2 71.92 0 0z" transform="translate(5.25 1.03)"/><path stroke="#5ac8f7" stroke-linejoin="round" stroke-width=".25" d="m92.6 51.79.21 71.92L5.45 72.95l-.2-71.92z"/></g><g opacity=".2"><path fill="url(#h)" fill-rule="nonzero" d="m4.87 0 .2 71.92L.2 74.73 0 2.81z" transform="translate(.38 1.03)"/><path fill="url(#h)" fill-rule="nonzero" stroke="#5ac8f7" stroke-linejoin="round" stroke-width=".25" d="m4.87 0 .2 71.92L.2 74.73 0 2.81z" transform="translate(.38 1.03)"/><path stroke="#5ac8f7" stroke-linejoin="round" stroke-width=".25" d="m5.25 1.03.2 71.92-4.87 2.81-.2-71.92z"/></g><g opacity=".2"><path fill="url(#i)" fill-rule="nonzero" d="m92.23 50.76-4.88 2.82L0 2.81 4.87 0z" transform="translate(.58 72.95)"/><path fill="url(#i)" fill-rule="nonzero" stroke="#5ac8f7" stroke-linejoin="round" stroke-width=".25" d="m92.23 50.76-4.88 2.82L0 2.81 4.87 0z" transform="translate(.58 72.95)"/><path stroke="#5ac8f7" stroke-linejoin="round" stroke-width=".25" d="m92.81 123.71-4.88 2.82L.58 75.76l4.87-2.81z"/></g><path fill="url(#j)" fill-rule="nonzero" d="m4.87 0 .21 71.92L.2 74.74 0 2.81z" transform="translate(87.73 51.79)"/><path fill="url(#j)" fill-rule="nonzero" stroke="#5ac8f7" stroke-linejoin="round" stroke-width=".25" d="m4.87 0 .21 71.92L.2 74.74 0 2.81z" transform="translate(87.73 51.79)"/><path stroke="#5ac8f7" stroke-linejoin="round" stroke-width=".25" d="m92.6 51.79.21 71.92-4.88 2.82-.2-71.93z"/><path fill="url(#k)" fill-rule="nonzero" d="M87.55 122.69.2 71.92 0 0l87.35 50.76z" transform="translate(.38 3.84)"/><path fill="url(#k)" fill-rule="nonzero" stroke="#5ac8f7" stroke-linejoin="round" stroke-width=".25" d="M87.55 122.69.2 71.92 0 0l87.35 50.76z" transform="translate(.38 3.84)"/><path stroke="#5ac8f7" stroke-linejoin="round" stroke-width=".25" d="M87.93 126.53.58 75.76.38 3.84 87.73 54.6z"/><path fill="url(#l)" fill-rule="nonzero" d="M87.35 53.57 0 2.81 4.87 0l87.35 50.76z" transform="translate(.38 1.03)"/><path fill="url(#l)" fill-rule="nonzero" stroke="#5ac8f7" stroke-linejoin="round" stroke-width=".25" d="M87.35 53.57 0 2.81 4.87 0l87.35 50.76z" transform="translate(.38 1.03)"/><path stroke="#5ac8f7" stroke-linejoin="round" stroke-width=".25" d="M87.73 54.6.38 3.84l4.87-2.81L92.6 51.79z"/></g></svg>