<svg xmlns="http://www.w3.org/2000/svg" viewBox="0 0 124 152"><title>Radiator（散热器）</title><defs><linearGradient id="a" x1="80.373%" x2="19.627%" y1="67.571%" y2="32.429%"><stop offset="0%" stop-color="#5ac8f7" stop-opacity=".6"/><stop offset="100%" stop-color="#2a6aaf" stop-opacity="0"/></linearGradient><linearGradient id="b" x1="36.923%" x2="63.073%" y1="84.485%" y2="15.515%"><stop offset="0%" stop-color="#2a6aaf" stop-opacity="0"/><stop offset="100%" stop-color="#5ac8f7" stop-opacity=".6"/></linearGradient><linearGradient id="c" x1="35.16%" x2="64.84%" y1="72.491%" y2="27.501%"><stop offset="0%" stop-color="#2a6aaf" stop-opacity="0"/><stop offset="100%" stop-color="#5ac8f7" stop-opacity=".6"/></linearGradient><linearGradient id="d" x1="80.366%" x2="19.634%" y1="67.564%" y2="32.432%"><stop offset="0%" stop-color="#5ac8f7" stop-opacity=".6"/><stop offset="100%" stop-color="#2a6aaf" stop-opacity="0"/></linearGradient><linearGradient id="e" x1="36.928%" x2="63.072%" y1="84.478%" y2="15.522%"><stop offset="0%" stop-color="#2a6aaf" stop-opacity="0"/><stop offset="100%" stop-color="#5ac8f7" stop-opacity=".6"/></linearGradient><linearGradient id="f" x1="33.036%" x2="66.964%" y1="86.585%" y2="13.415%"><stop offset="0%" stop-color="#2a6aaf" stop-opacity="0"/><stop offset="100%" stop-color="#5ac8f7" stop-opacity=".6"/></linearGradient><linearGradient id="g" x1="35.162%" x2="64.832%" y1="72.493%" y2="27.507%"><stop offset="0%" stop-color="#2a6aaf" stop-opacity="0"/><stop offset="100%" stop-color="#5ac8f7" stop-opacity=".6"/></linearGradient><linearGradient id="h" x1="39.623%" x2="60.377%" y1="73.317%" y2="26.698%"><stop offset="0%" stop-color="#2a6aaf" stop-opacity="0"/><stop offset="100%" stop-color="#5ac8f7" stop-opacity=".6"/></linearGradient><linearGradient id="i" x1="39.62%" x2="60.38%" y1="73.313%" y2="26.687%"><stop offset="0%" stop-color="#2a6aaf" stop-opacity="0"/><stop offset="100%" stop-color="#5ac8f7" stop-opacity=".6"/></linearGradient><linearGradient id="j" x1="36.509%" x2="63.491%" y1="59.358%" y2="40.642%"><stop offset="0%" stop-color="#2a6aaf" stop-opacity="0"/><stop offset="100%" stop-color="#5ac8f7" stop-opacity=".6"/></linearGradient><linearGradient id="k" x1="7.568%" x2="92.432%" y1="79.624%" y2="20.376%"><stop offset="0%" stop-color="#2a6aaf" stop-opacity="0"/><stop offset="100%" stop-color="#5ac8f7" stop-opacity=".6"/></linearGradient><linearGradient id="l" x1="24.994%" x2="75.006%" y1="64.489%" y2="35.446%"><stop offset="0%" stop-color="#2a6aaf" stop-opacity="0"/><stop offset="100%" stop-color="#5ac8f7" stop-opacity=".6"/></linearGradient><linearGradient id="m" x1="6.992%" x2="92.956%" y1="80.897%" y2="19.103%"><stop offset="0%" stop-color="#2a6aaf" stop-opacity="0"/><stop offset="100%" stop-color="#5ac8f7" stop-opacity=".6"/></linearGradient><linearGradient id="n" x1="36%" x2="64.053%" y1="60.006%" y2="39.994%"><stop offset="0%" stop-color="#2a6aaf" stop-opacity="0"/><stop offset="100%" stop-color="#5ac8f7" stop-opacity=".6"/></linearGradient><linearGradient id="o" x1="35.947%" x2="64%" y1="60.033%" y2="39.967%"><stop offset="0%" stop-color="#2a6aaf" stop-opacity="0"/><stop offset="100%" stop-color="#5ac8f7" stop-opacity=".6"/></linearGradient><linearGradient id="p" x1="50%" x2="50%" y1="100.883%" y2="-.883%"><stop offset="0%" stop-color="#2a6aaf" stop-opacity="0"/><stop offset="100%" stop-color="#5ac8f7"/></linearGradient><linearGradient id="q" x1="7.044%" x2="92.956%" y1="80.939%" y2="19.061%"><stop offset="0%" stop-color="#2a6aaf" stop-opacity="0"/><stop offset="100%" stop-color="#5ac8f7" stop-opacity=".6"/></linearGradient><linearGradient id="r" x1="6.568%" x2="93.432%" y1="81.282%" y2="18.718%"><stop offset="0%" stop-color="#2a6aaf" stop-opacity="0"/><stop offset="100%" stop-color="#5ac8f7"/></linearGradient><linearGradient id="s" x1="0%" x2="100%" y1="49.846%" y2="49.846%"><stop offset="0%" stop-color="#2a6aaf" stop-opacity="0"/><stop offset="100%" stop-color="#5ac8f7" stop-opacity=".6"/></linearGradient><linearGradient id="t" x1="75%" x2="25%" y1="64.479%" y2="35.521%"><stop offset="0%" stop-color="#5ac8f7" stop-opacity=".6"/><stop offset="100%" stop-color="#2a6aaf" stop-opacity="0"/></linearGradient><linearGradient id="u" x1="1.31%" x2="98.69%" y1="96.188%" y2="3.812%"><stop offset="0%" stop-color="#2a6aaf" stop-opacity="0"/><stop offset="100%" stop-color="#5ac8f7" stop-opacity=".6"/></linearGradient><linearGradient id="v" x1="30.245%" x2="69.755%" y1="68.604%" y2="31.396%"><stop offset="0%" stop-color="#2a6aaf" stop-opacity="0"/><stop offset="100%" stop-color="#5ac8f7" stop-opacity=".6"/></linearGradient><linearGradient id="w" x1="1.258%" x2="98.69%" y1="96.188%" y2="3.861%"><stop offset="0%" stop-color="#2a6aaf" stop-opacity="0"/><stop offset="100%" stop-color="#5ac8f7" stop-opacity=".6"/></linearGradient><linearGradient id="x" x1="75%" x2="25%" y1="64.477%" y2="35.523%"><stop offset="0%" stop-color="#5ac8f7" stop-opacity=".6"/><stop offset="100%" stop-color="#2a6aaf" stop-opacity="0"/></linearGradient><linearGradient id="y" x1="18.474%" x2="81.347%" y1="59.879%" y2="30.345%"><stop offset="0%" stop-color="#2a6aaf" stop-opacity="0"/><stop offset="100%" stop-color="#5ac8f7" stop-opacity=".6"/></linearGradient><linearGradient id="z" x1="33.247%" x2="66.721%" y1="78.996%" y2="20.963%"><stop offset="0%" stop-color="#2a6aaf" stop-opacity="0"/><stop offset="100%" stop-color="#5ac8f7" stop-opacity=".6"/></linearGradient><linearGradient id="A" x1="16.764%" x2="83.281%" y1="73.843%" y2="37.589%"><stop offset="0%" stop-color="#2a6aaf" stop-opacity="0"/><stop offset="100%" stop-color="#5ac8f7" stop-opacity=".6"/></linearGradient><linearGradient id="B" x1="33.266%" x2="66.692%" y1="78.964%" y2="20.936%"><stop offset="0%" stop-color="#2a6aaf" stop-opacity="0"/><stop offset="100%" stop-color="#5ac8f7" stop-opacity=".6"/></linearGradient><linearGradient id="C" x1="18.593%" x2="81.466%" y1="69.692%" y2="40.096%"><stop offset="0%" stop-color="#2a6aaf" stop-opacity="0"/><stop offset="100%" stop-color="#5ac8f7" stop-opacity=".6"/></linearGradient><linearGradient id="D" x1="50%" x2="50%" y1="101.519%" y2="-1.911%"><stop offset="0%" stop-color="#5d84af" stop-opacity="0"/><stop offset="100%" stop-color="#5ac8f7"/></linearGradient><linearGradient id="E" x1="16.682%" x2="83.229%" y1="62.421%" y2="26.128%"><stop offset="0%" stop-color="#2a6aaf" stop-opacity="0"/><stop offset="100%" stop-color="#5ac8f7" stop-opacity=".6"/></linearGradient><linearGradient id="F" x1="78.982%" x2="21.086%" y1="66.783%" y2="33.243%"><stop offset="0%" stop-color="#5ac8f7" stop-opacity=".6"/><stop offset="100%" stop-color="#2a6aaf" stop-opacity="0"/></linearGradient><linearGradient id="G" x1="21.141%" x2="78.859%" y1="66.714%" y2="33.27%"><stop offset="0%" stop-color="#2a6aaf" stop-opacity="0"/><stop offset="100%" stop-color="#5ac8f7" stop-opacity=".6"/></linearGradient><linearGradient id="H" x1="7.527%" x2="92.473%" y1="79.651%" y2="20.349%"><stop offset="0%" stop-color="#2a6aaf" stop-opacity="0"/><stop offset="100%" stop-color="#5ac8f7" stop-opacity=".6"/></linearGradient><linearGradient id="I" x1="24.955%" x2="74.955%" y1="64.487%" y2="35.475%"><stop offset="0%" stop-color="#2a6aaf" stop-opacity="0"/><stop offset="100%" stop-color="#5ac8f7" stop-opacity=".6"/></linearGradient><linearGradient id="J" x1="6.995%" x2="93.005%" y1="80.972%" y2="19.028%"><stop offset="0%" stop-color="#2a6aaf" stop-opacity="0"/><stop offset="100%" stop-color="#5ac8f7" stop-opacity=".6"/></linearGradient><linearGradient id="K" x1="35.947%" x2="64%" y1="60.006%" y2="39.956%"><stop offset="0%" stop-color="#2a6aaf" stop-opacity="0"/><stop offset="100%" stop-color="#5ac8f7" stop-opacity=".6"/></linearGradient><linearGradient id="L" x1="36.509%" x2="63.491%" y1="59.38%" y2="40.651%"><stop offset="0%" stop-color="#2a6aaf" stop-opacity="0"/><stop offset="100%" stop-color="#5ac8f7" stop-opacity=".6"/></linearGradient><linearGradient id="M" x1="35.966%" x2="64.034%" y1="60.043%" y2="39.957%"><stop offset="0%" stop-color="#2a6aaf" stop-opacity="0"/><stop offset="100%" stop-color="#5ac8f7" stop-opacity=".6"/></linearGradient><linearGradient id="N" x1="49.974%" x2="49.974%" y1="100.883%" y2="-.883%"><stop offset="0%" stop-color="#2a6aaf" stop-opacity="0"/><stop offset="100%" stop-color="#5ac8f7"/></linearGradient><linearGradient id="O" x1="6.518%" x2="93.482%" y1="81.315%" y2="18.685%"><stop offset="0%" stop-color="#2a6aaf" stop-opacity="0"/><stop offset="100%" stop-color="#5ac8f7"/></linearGradient><linearGradient id="P" x1="-.022%" x2="99.978%" y1="49.923%" y2="49.923%"><stop offset="0%" stop-color="#2a6aaf" stop-opacity="0"/><stop offset="100%" stop-color="#5ac8f7" stop-opacity=".6"/></linearGradient><linearGradient id="Q" x1="75%" x2="25%" y1="64.493%" y2="35.523%"><stop offset="0%" stop-color="#5ac8f7" stop-opacity=".6"/><stop offset="100%" stop-color="#2a6aaf" stop-opacity="0"/></linearGradient><linearGradient id="R" x1="1.31%" x2="98.69%" y1="96.139%" y2="3.812%"><stop offset="0%" stop-color="#2a6aaf" stop-opacity="0"/><stop offset="100%" stop-color="#5ac8f7" stop-opacity=".6"/></linearGradient><linearGradient id="S" x1="30.208%" x2="69.792%" y1="68.637%" y2="31.412%"><stop offset="0%" stop-color="#2a6aaf" stop-opacity="0"/><stop offset="100%" stop-color="#5ac8f7" stop-opacity=".6"/></linearGradient><linearGradient id="T" x1="30.26%" x2="69.792%" y1="68.623%" y2="31.377%"><stop offset="0%" stop-color="#2a6aaf" stop-opacity="0"/><stop offset="100%" stop-color="#5ac8f7" stop-opacity=".6"/></linearGradient><linearGradient id="U" x1="75%" x2="25%" y1="64.477%" y2="35.507%"><stop offset="0%" stop-color="#5ac8f7" stop-opacity=".6"/><stop offset="100%" stop-color="#2a6aaf" stop-opacity="0"/></linearGradient><linearGradient id="V" x1="18.497%" x2="81.444%" y1="59.927%" y2="30.246%"><stop offset="0%" stop-color="#2a6aaf" stop-opacity="0"/><stop offset="100%" stop-color="#5ac8f7" stop-opacity=".6"/></linearGradient><linearGradient id="W" x1="33.256%" x2="66.73%" y1="79.041%" y2="20.964%"><stop offset="0%" stop-color="#2a6aaf" stop-opacity="0"/><stop offset="100%" stop-color="#5ac8f7" stop-opacity=".6"/></linearGradient><linearGradient id="X" x1="16.808%" x2="83.326%" y1="73.851%" y2="37.59%"><stop offset="0%" stop-color="#2a6aaf" stop-opacity="0"/><stop offset="100%" stop-color="#5ac8f7" stop-opacity=".6"/></linearGradient><linearGradient id="Y" x1="33.312%" x2="66.704%" y1="79.024%" y2="20.996%"><stop offset="0%" stop-color="#2a6aaf" stop-opacity="0"/><stop offset="100%" stop-color="#5ac8f7" stop-opacity=".6"/></linearGradient><linearGradient id="Z" x1="18.545%" x2="81.455%" y1="69.79%" y2="40.222%"><stop offset="0%" stop-color="#2a6aaf" stop-opacity="0"/><stop offset="100%" stop-color="#5ac8f7" stop-opacity=".6"/></linearGradient><linearGradient id="aa" x1="49.97%" x2="49.97%" y1="102.157%" y2="-1.621%"><stop offset="0%" stop-color="#5d84af" stop-opacity="0"/><stop offset="100%" stop-color="#5ac8f7"/></linearGradient><linearGradient id="ab" x1="16.674%" x2="83.192%" y1="62.411%" y2="26.157%"><stop offset="0%" stop-color="#2a6aaf" stop-opacity="0"/><stop offset="100%" stop-color="#5ac8f7" stop-opacity=".6"/></linearGradient><linearGradient id="ac" x1="78.889%" x2="20.948%" y1="66.81%" y2="33.213%"><stop offset="0%" stop-color="#5ac8f7" stop-opacity=".6"/><stop offset="100%" stop-color="#2a6aaf" stop-opacity="0"/></linearGradient><linearGradient id="ad" x1="21.145%" x2="78.86%" y1="66.719%" y2="33.297%"><stop offset="0%" stop-color="#2a6aaf" stop-opacity="0"/><stop offset="100%" stop-color="#5ac8f7" stop-opacity=".6"/></linearGradient></defs><g fill="none" fill-rule="evenodd"><g opacity=".2"><path fill="url(#a)" fill-rule="nonzero" d="M122.38 48.54 84.09 70.8 0 22.25 38.29 0z" transform="translate(.38 80.23)"/><path fill="url(#a)" fill-rule="nonzero" stroke="#5ac8f7" stroke-linejoin="round" stroke-width=".25" d="M122.38 48.54 84.09 70.8 0 22.25 38.29 0z" transform="translate(.38 80.23)"/><path stroke="#5ac8f7" stroke-linejoin="round" stroke-width=".25" d="m122.76 128.77-38.29 22.26L.38 102.48l38.29-22.25z"/></g><g opacity=".2"><path fill="url(#b)" fill-rule="nonzero" d="M.17 22.25 38.47 0l-.18 79.2L0 101.45z" transform="translate(.38 1.03)"/><path fill="url(#b)" fill-rule="nonzero" stroke="#5ac8f7" stroke-linejoin="round" stroke-width=".25" d="M.17 22.25 38.47 0l-.18 79.2L0 101.45z" transform="translate(.38 1.03)"/><path stroke="#5ac8f7" stroke-linejoin="round" stroke-width=".25" d="m.55 23.28 38.3-22.25-.18 79.2L.38 102.48z"/></g><g opacity=".2"><path fill="url(#c)" fill-rule="nonzero" d="m.18 0 84.09 48.53-.18 79.21L0 79.2z" transform="translate(38.67 1.03)"/><path fill="url(#c)" fill-rule="nonzero" stroke="#5ac8f7" stroke-linejoin="round" stroke-width=".25" d="m.18 0 84.09 48.53-.18 79.21L0 79.2z" transform="translate(38.67 1.03)"/><path stroke="#5ac8f7" stroke-linejoin="round" stroke-width=".25" d="m38.85 1.03 84.09 48.53-.18 79.21-84.09-48.54z"/></g><path fill="url(#d)" fill-rule="nonzero" d="M122.39 48.53 84.1 70.79 0 22.25 38.3 0z" transform="translate(.55 1.03)"/><path fill="url(#d)" fill-rule="nonzero" stroke="#5ac8f7" stroke-linejoin="round" stroke-width=".25" d="M122.39 48.53 84.1 70.79 0 22.25 38.3 0z" transform="translate(.55 1.03)"/><path stroke="#5ac8f7" stroke-linejoin="round" stroke-width=".25" d="M122.94 49.56 84.65 71.82.55 23.28l38.3-22.25z"/><path fill="url(#e)" fill-rule="nonzero" d="m38.47 0-.18 79.21L0 101.47l.18-79.21z" transform="translate(84.47 49.56)"/><path fill="url(#e)" fill-rule="nonzero" stroke="#5ac8f7" stroke-linejoin="round" stroke-width=".25" d="m38.47 0-.18 79.21L0 101.47l.18-79.21z" transform="translate(84.47 49.56)"/><path stroke="#5ac8f7" stroke-linejoin="round" stroke-width=".25" d="m122.94 49.56-.18 79.21-38.29 22.26.18-79.21z"/><path fill="url(#f)" fill-rule="nonzero" d="m31.87 0-.15 50.3L0 68.73l.15-50.3z" transform="translate(87.77 56.05)"/><path fill="url(#f)" fill-rule="nonzero" stroke="#5ac8f7" stroke-linejoin="round" stroke-width=".25" d="m31.87 0-.15 50.3L0 68.73l.15-50.3z" transform="translate(87.77 56.05)"/><path stroke="#5ac8f7" stroke-linejoin="round" stroke-width=".25" d="m119.64 56.05-.15 50.3-31.72 18.43.15-50.3z"/><path fill="url(#g)" fill-rule="nonzero" d="m84.27 48.54-.18 79.21L0 79.2.17 0z" transform="translate(.38 23.28)"/><path fill="url(#g)" fill-rule="nonzero" stroke="#5ac8f7" stroke-linejoin="round" stroke-width=".25" d="m84.27 48.54-.18 79.21L0 79.2.17 0z" transform="translate(.38 23.28)"/><path stroke="#5ac8f7" stroke-linejoin="round" stroke-width=".25" d="m84.65 71.82-.18 79.21L.38 102.48l.17-79.2z"/><path fill="url(#h)" fill-rule="nonzero" d="m30.09 17.34-.06 50.23L0 50.24.06 0z" transform="translate(51.5 57.21)"/><path fill="url(#h)" fill-rule="nonzero" stroke="#5ac8f7" stroke-linejoin="round" stroke-width=".25" d="m30.09 17.34-.06 50.23L0 50.24.06 0z" transform="translate(51.5 57.21)"/><path stroke="#5ac8f7" stroke-linejoin="round" stroke-width=".25" d="m81.59 74.55-.06 50.23-30.03-17.33.06-50.24z"/><path fill="url(#i)" fill-rule="nonzero" d="m47.71 54.34-.06 50.23-30.03-17.33.06-50.23z" transform="translate(.38 1.03)"/><path fill="url(#i)" fill-rule="nonzero" stroke="#5ac8f7" stroke-linejoin="round" stroke-width=".25" d="m47.71 54.34-.06 50.23-30.03-17.33.06-50.23z" transform="translate(.38 1.03)"/><path stroke="#5ac8f7" stroke-linejoin="round" stroke-width=".25" d="m48.09 55.37-.06 50.23L18 88.27l.06-50.23z"/><g opacity=".2"><path fill="url(#j)" fill-rule="nonzero" d="m.01 0 22.45 12.96-.01 2.62L0 2.62z" transform="translate(85.71 35.29)"/><path fill="url(#j)" fill-rule="nonzero" stroke="#5ac8f7" stroke-linejoin="round" stroke-width=".25" d="m.01 0 22.45 12.96-.01 2.62L0 2.62z" transform="translate(85.71 35.29)"/><path stroke="#5ac8f7" stroke-linejoin="round" stroke-width=".25" d="m85.72 35.29 22.45 12.96-.01 2.62-22.45-12.96z"/></g><g opacity=".2"><path fill="url(#k)" fill-rule="nonzero" d="M.01 12.97 22.33 0l-.01 2.62L0 15.59z" transform="translate(63.39 35.29)"/><path fill="url(#k)" fill-rule="nonzero" stroke="#5ac8f7" stroke-linejoin="round" stroke-width=".25" d="M.01 12.97 22.33 0l-.01 2.62L0 15.59z" transform="translate(63.39 35.29)"/><path stroke="#5ac8f7" stroke-linejoin="round" stroke-width=".25" d="m63.4 48.26 22.32-12.97-.01 2.62-22.32 12.97z"/></g><g opacity=".2"><path fill="url(#l)" fill-rule="nonzero" d="m22.32 0 22.45 13-22.32 13L0 13zm.13 23.93 18.87-11-19-11L3.46 13l19 11" transform="translate(63.39 37.9)"/><path fill="url(#l)" fill-rule="nonzero" stroke="#5ac8f7" stroke-linejoin="round" stroke-width=".25" d="m22.32 0 22.45 13-22.32 13L0 13zm.13 23.93 18.87-11-19-11L3.46 13l19 11" transform="translate(63.39 37.9)"/><path stroke="#5ac8f7" stroke-linejoin="round" stroke-width=".25" d="m85.71 37.9 22.45 13-22.32 13-22.45-13zm.13 23.93 18.87-11-19-11L66.85 50.9l19 11"/></g><g opacity=".2"><path fill="url(#m)" fill-rule="nonzero" d="M.01 10.96 18.88 0l-.01 2.62L0 13.58z" transform="translate(85.84 48.26)"/><path fill="url(#m)" fill-rule="nonzero" stroke="#5ac8f7" stroke-linejoin="round" stroke-width=".25" d="M.01 10.96 18.88 0l-.01 2.62L0 13.58z" transform="translate(85.84 48.26)"/><path stroke="#5ac8f7" stroke-linejoin="round" stroke-width=".25" d="m85.85 59.22 18.87-10.96-.01 2.62-18.87 10.96z"/></g><g opacity=".2"><path fill="url(#n)" fill-rule="nonzero" d="M.01 0 19 10.96l-.01 2.62L0 2.62z" transform="translate(66.85 48.26)"/><path fill="url(#n)" fill-rule="nonzero" stroke="#5ac8f7" stroke-linejoin="round" stroke-width=".25" d="M.01 0 19 10.96l-.01 2.62L0 2.62z" transform="translate(66.85 48.26)"/><path stroke="#5ac8f7" stroke-linejoin="round" stroke-width=".25" d="m66.86 48.26 18.99 10.96-.01 2.62-18.99-10.96z"/></g><path fill="url(#k)" fill-rule="nonzero" d="m22.33 0-.01 2.62L0 15.59l.01-2.62z" transform="translate(85.84 48.25)"/><path fill="url(#k)" fill-rule="nonzero" stroke="#5ac8f7" stroke-linejoin="round" stroke-width=".25" d="m22.33 0-.01 2.62L0 15.59l.01-2.62z" transform="translate(85.84 48.25)"/><path stroke="#5ac8f7" stroke-linejoin="round" stroke-width=".25" d="m108.17 48.25-.01 2.62-22.32 12.97.01-2.62z"/><path fill="url(#j)" fill-rule="nonzero" d="m22.46 12.96-.01 2.62L0 2.62.01 0z" transform="translate(63.39 48.26)"/><path fill="url(#j)" fill-rule="nonzero" stroke="#5ac8f7" stroke-linejoin="round" stroke-width=".25" d="m22.46 12.96-.01 2.62L0 2.62.01 0z" transform="translate(63.39 48.26)"/><path stroke="#5ac8f7" stroke-linejoin="round" stroke-width=".25" d="m85.85 61.22-.01 2.62-22.45-12.96.01-2.62z"/><path fill="url(#o)" fill-rule="nonzero" d="m41.33 12.97-.01 2.62L22.33 4.63 22.34 2z" transform="translate(63.39 35.29)"/><path fill="url(#o)" fill-rule="nonzero" stroke="url(#p)" stroke-linejoin="round" stroke-width=".25" d="m41.33 12.97-.01 2.62L22.33 4.63 22.34 2z" transform="translate(63.39 35.29)"/><path stroke="url(#p)" stroke-linejoin="round" stroke-width=".25" d="m41.33 12.97-.01 2.62L22.33 4.63 22.34 2z" transform="translate(63.39 35.29)"/><path fill="url(#q)" fill-rule="nonzero" d="m18.88 0-.01 2.63L0 13.59l.01-2.62z" transform="translate(66.85 37.29)"/><path fill="url(#q)" fill-rule="nonzero" stroke="url(#r)" stroke-linejoin="round" stroke-width=".25" d="m18.88 0-.01 2.63L0 13.59l.01-2.62z" transform="translate(66.85 37.29)"/><path stroke="url(#r)" stroke-linejoin="round" stroke-width=".25" d="m18.88 0-.01 2.63L0 13.59l.01-2.62z" transform="translate(66.85 37.29)"/><path fill="url(#s)" fill-rule="nonzero" d="m22.31 0 22.45 13-22.31 13L0 13zm.14 23.93 18.86-11-19-11-18.87 11 19 11" transform="translate(63.4 35.29)"/><path fill="url(#s)" fill-rule="nonzero" stroke="#5ac8f7" stroke-linejoin="round" stroke-width=".25" d="m22.31 0 22.45 13-22.31 13L0 13zm.14 23.93 18.86-11-19-11-18.87 11 19 11" transform="translate(63.4 35.29)"/><path stroke="#5ac8f7" stroke-linejoin="round" stroke-width=".25" d="m85.71 35.29 22.45 13-22.31 13-22.45-13zm.14 23.93 18.86-11-19-11-18.87 11 19 11"/><g opacity=".2"><path fill="url(#t)" fill-rule="nonzero" d="M38.16 11.05 19.15 22.1 0 11.05 19.02 0z" transform="translate(66.91 46.66)"/><path fill="url(#t)" fill-rule="nonzero" stroke="#5ac8f7" stroke-linejoin="round" stroke-width=".25" d="M38.16 11.05 19.15 22.1 0 11.05 19.02 0z" transform="translate(66.91 46.66)"/><path stroke="#5ac8f7" stroke-linejoin="round" stroke-width=".25" d="M105.07 57.71 86.06 68.76 66.91 57.71l19.02-11.05z"/><path fill="url(#u)" fill-rule="nonzero" d="M.07 11.05 19.08 0l-.06 7.04L0 18.09z" transform="translate(66.91 39.62)"/><path fill="url(#u)" fill-rule="nonzero" stroke="#5ac8f7" stroke-linejoin="round" stroke-width=".25" d="M.07 11.05 19.08 0l-.06 7.04L0 18.09z" transform="translate(66.91 39.62)"/><path stroke="#5ac8f7" stroke-linejoin="round" stroke-width=".25" d="m66.98 50.67 19.01-11.05-.06 7.04-19.02 11.05z"/><path fill="url(#v)" fill-rule="nonzero" d="m.06 0 19.15 11.05-.07 7.04L0 7.04z" transform="translate(85.93 39.62)"/><path fill="url(#v)" fill-rule="nonzero" stroke="#5ac8f7" stroke-linejoin="round" stroke-width=".25" d="m.06 0 19.15 11.05-.07 7.04L0 7.04z" transform="translate(85.93 39.62)"/><path stroke="#5ac8f7" stroke-linejoin="round" stroke-width=".25" d="m85.99 39.62 19.15 11.05-.07 7.04-19.14-11.05z"/><path fill="url(#w)" fill-rule="nonzero" d="m19.08 0-.07 7.04L0 18.09l.06-7.03z" transform="translate(86.06 50.67)"/><path fill="url(#w)" fill-rule="nonzero" stroke="#5ac8f7" stroke-linejoin="round" stroke-width=".25" d="m19.08 0-.07 7.04L0 18.09l.06-7.03z" transform="translate(86.06 50.67)"/><path stroke="#5ac8f7" stroke-linejoin="round" stroke-width=".25" d="m105.14 50.67-.07 7.04-19.01 11.05.06-7.03z"/><path fill="url(#v)" fill-rule="nonzero" d="m19.21 11.06-.06 7.03L0 7.04.07 0z" transform="translate(66.91 50.67)"/><path fill="url(#v)" fill-rule="nonzero" stroke="#5ac8f7" stroke-linejoin="round" stroke-width=".25" d="m19.21 11.06-.06 7.03L0 7.04.07 0z" transform="translate(66.91 50.67)"/><path stroke="#5ac8f7" stroke-linejoin="round" stroke-width=".25" d="m86.12 61.73-.06 7.03-19.15-11.05.07-7.04z"/><path fill="url(#x)" fill-rule="nonzero" d="M38.16 11.05 19.14 22.11 0 11.05 19.01 0z" transform="translate(66.98 39.62)"/><path fill="url(#x)" fill-rule="nonzero" stroke="#5ac8f7" stroke-linejoin="round" stroke-width=".25" d="M38.16 11.05 19.14 22.11 0 11.05 19.01 0z" transform="translate(66.98 39.62)"/><path stroke="#5ac8f7" stroke-linejoin="round" stroke-width=".25" d="M105.14 50.67 86.12 61.73 66.98 50.67l19.01-11.05z"/></g><g fill-rule="nonzero" stroke-linejoin="round" stroke-width=".25" transform="translate(74.5 37.338)"><path fill="url(#y)" stroke="#5ac8f7" d="M17.06 9.452a13.05 13.05 0 0 1-11.86-.12 4.13 4.13 0 0 1-2.37-3.39v3a4.17 4.17 0 0 0 2.37 3.4 13.08 13.08 0 0 0 11.86.12c1.69-.95 2.54-2.21 2.55-3.48v-3c-.01 1.27-.86 2.58-2.55 3.47Z" opacity=".2"/><ellipse cx="11.198" cy="6.511" fill="url(#z)" stroke="#5ac8f7" opacity=".2" rx="6.48" ry="11.18" transform="rotate(-89.84 14.03 9.335)"/><path fill="url(#A)" stroke="#5ac8f7" d="M22.36 12.192c0-1.63-1-3.27-3.16-4.53-4.31-2.58-11.39-2.65-15.82-.16C1.13 8.762 0 10.442 0 12.132v-5.69c0-1.68 1.14-3.36 3.39-4.62 4.43-2.49 11.51-2.42 15.81.16 2.12 1.26 3.17 2.9 3.17 4.53s0 3.97-.01 5.68Z" opacity=".2" transform="translate(.02)"/><ellipse cx="8.39" cy="4.86" fill="url(#B)" stroke="#5ac8f7" opacity=".2" rx="4.86" ry="8.39" transform="rotate(-90 11.68 5.581)"/><path fill="url(#C)" stroke="url(#D)" d="M19.6 5.982v3a4.15 4.15 0 0 0-2.38-3.4 13.05 13.05 0 0 0-11.86-.02c-1.69.94-2.54 2.2-2.54 3.47v-3c0-1.27.85-2.53 2.54-3.48a13.08 13.08 0 0 1 11.87.01c1.59 1 2.38 2.2 2.37 3.42Z"/><path fill="url(#E)" stroke="#5ac8f7" d="M19.01 11.142c-4.43 2.48-11.51 2.41-15.81-.16C1.08 9.712.03 8.072.03 6.442v5.69c0 1.63 1 3.26 3.16 4.53 4.31 2.57 11.39 2.64 15.81.16 2.26-1.27 3.39-2.95 3.39-4.63v-5.68c0 1.68-1.13 3.36-3.38 4.63Z"/><path fill="url(#F)" stroke="#5ac8f7" d="M17.66 9.812a14.44 14.44 0 0 1-13.07-.13c-3.56-2.12-3.47-5.52.16-7.57a14.35 14.35 0 0 1 13.06.13c3.59 2.13 3.51 5.52-.15 7.57Zm-.6-.36c3.32-1.89 3.4-4.89.17-6.89a13.08 13.08 0 0 0-11.86-.12c-3.32 1.87-3.4 4.94-.17 6.87a13.05 13.05 0 0 0 11.86.12"/><path fill="url(#G)" stroke="#5ac8f7" d="M19.23 1.982c-4.3-2.58-11.38-2.65-15.81-.16s-4.53 6.58-.22 9.16 11.38 2.64 15.81.16 4.53-6.58.22-9.16Zm-1.57 7.83a14.44 14.44 0 0 1-13.07-.13c-3.56-2.12-3.47-5.52.16-7.57a14.35 14.35 0 0 1 13.06.13c3.59 2.13 3.51 5.52-.15 7.57Z"/></g><g opacity=".2"><path fill="url(#j)" fill-rule="nonzero" d="m.01 0 22.45 12.96-.01 2.62L0 2.62z" transform="translate(54.78 17.4)"/><path fill="url(#j)" fill-rule="nonzero" stroke="#5ac8f7" stroke-linejoin="round" stroke-width=".25" d="m.01 0 22.45 12.96-.01 2.62L0 2.62z" transform="translate(54.78 17.4)"/><path stroke="#5ac8f7" stroke-linejoin="round" stroke-width=".25" d="m54.79 17.4 22.45 12.96-.01 2.62-22.45-12.96z"/></g><g opacity=".2"><path fill="url(#H)" fill-rule="nonzero" d="M.01 12.96 22.32 0l-.01 2.62L0 15.59z" transform="translate(32.47 17.4)"/><path fill="url(#H)" fill-rule="nonzero" stroke="#5ac8f7" stroke-linejoin="round" stroke-width=".25" d="M.01 12.96 22.32 0l-.01 2.62L0 15.59z" transform="translate(32.47 17.4)"/><path stroke="#5ac8f7" stroke-linejoin="round" stroke-width=".25" d="M32.48 30.36 54.79 17.4l-.01 2.62-22.31 12.97z"/></g><g opacity=".2"><path fill="url(#I)" fill-rule="nonzero" d="m22.29 0 22.47 12.96-22.31 13L0 12.96zm.14 23.93 18.86-11-19-11-18.87 11 19 11" transform="translate(32.49 20.02)"/><path fill="url(#I)" fill-rule="nonzero" stroke="#5ac8f7" stroke-linejoin="round" stroke-width=".25" d="m22.29 0 22.47 12.96-22.31 13L0 12.96zm.14 23.93 18.86-11-19-11-18.87 11 19 11" transform="translate(32.49 20.02)"/><path stroke="#5ac8f7" stroke-linejoin="round" stroke-width=".25" d="m54.78 20.02 22.47 12.96-22.31 13-22.45-13zm.14 23.93 18.86-11-19-11-18.87 11 19 11"/></g><g opacity=".2"><path fill="url(#J)" fill-rule="nonzero" d="M.01 10.97 18.87 0l-.01 2.63L0 13.59z" transform="translate(54.92 30.36)"/><path fill="url(#J)" fill-rule="nonzero" stroke="#5ac8f7" stroke-linejoin="round" stroke-width=".25" d="M.01 10.97 18.87 0l-.01 2.63L0 13.59z" transform="translate(54.92 30.36)"/><path stroke="#5ac8f7" stroke-linejoin="round" stroke-width=".25" d="m54.93 41.33 18.86-10.97-.01 2.63-18.86 10.96z"/></g><g opacity=".2"><path fill="url(#K)" fill-rule="nonzero" d="M.01 0 19 10.96l-.01 2.62L0 2.62z" transform="translate(35.93 30.37)"/><path fill="url(#K)" fill-rule="nonzero" stroke="#5ac8f7" stroke-linejoin="round" stroke-width=".25" d="M.01 0 19 10.96l-.01 2.62L0 2.62z" transform="translate(35.93 30.37)"/><path stroke="#5ac8f7" stroke-linejoin="round" stroke-width=".25" d="m35.94 30.37 18.99 10.96-.01 2.62-18.99-10.96z"/></g><path fill="url(#H)" fill-rule="nonzero" d="m22.32 0-.01 2.62L0 15.59l.01-2.62z" transform="translate(54.92 30.36)"/><path fill="url(#H)" fill-rule="nonzero" stroke="#5ac8f7" stroke-linejoin="round" stroke-width=".25" d="m22.32 0-.01 2.62L0 15.59l.01-2.62z" transform="translate(54.92 30.36)"/><path stroke="#5ac8f7" stroke-linejoin="round" stroke-width=".25" d="m77.24 30.36-.01 2.62-22.31 12.97.01-2.62z"/><path fill="url(#L)" fill-rule="nonzero" d="m22.46 12.97-.01 2.62L0 2.63.01 0z" transform="translate(32.47 30.36)"/><path fill="url(#L)" fill-rule="nonzero" stroke="#5ac8f7" stroke-linejoin="round" stroke-width=".25" d="m22.46 12.97-.01 2.62L0 2.63.01 0z" transform="translate(32.47 30.36)"/><path stroke="#5ac8f7" stroke-linejoin="round" stroke-width=".25" d="m54.93 43.33-.01 2.62-22.45-12.96.01-2.63z"/><path fill="url(#M)" fill-rule="nonzero" d="m41.32 12.96-.01 2.63L22.33 4.63V2z" transform="translate(32.47 17.4)"/><path fill="url(#M)" fill-rule="nonzero" stroke="url(#N)" stroke-linejoin="round" stroke-width=".25" d="m41.32 12.96-.01 2.63L22.33 4.63V2z" transform="translate(32.47 17.4)"/><path stroke="url(#N)" stroke-linejoin="round" stroke-width=".25" d="m41.32 12.96-.01 2.63L22.33 4.63V2z" transform="translate(32.47 17.4)"/><path fill="url(#J)" fill-rule="nonzero" d="M18.87 0v2.63L0 13.59l.01-2.62z" transform="translate(35.93 19.4)"/><path fill="url(#J)" fill-rule="nonzero" stroke="url(#O)" stroke-linejoin="round" stroke-width=".25" d="M18.87 0v2.63L0 13.59l.01-2.62z" transform="translate(35.93 19.4)"/><path stroke="url(#O)" stroke-linejoin="round" stroke-width=".25" d="M18.87 0v2.63L0 13.59l.01-2.62z" transform="translate(35.93 19.4)"/><path fill="url(#P)" fill-rule="nonzero" d="m22.3 0 22.46 12.96-22.31 13L0 12.96zm.14 23.93 18.86-11-19-11-18.86 11z" transform="translate(32.49 17.4)"/><path fill="url(#P)" fill-rule="nonzero" stroke="#5ac8f7" stroke-linejoin="round" stroke-width=".25" d="m22.3 0 22.46 12.96-22.31 13L0 12.96zm.14 23.93 18.86-11-19-11-18.86 11 19 11" transform="translate(32.49 17.4)"/><path stroke="#5ac8f7" stroke-linejoin="round" stroke-width=".25" d="m54.79 17.4 22.46 12.96-22.31 13-22.45-13zm.14 23.93 18.86-11-19-11-18.86 11 19 11"/><g opacity=".2"><path fill="url(#Q)" fill-rule="nonzero" d="M38.16 11.05 19.14 22.11 0 11.06 19.02 0z" transform="translate(35.99 28.76)"/><path fill="url(#Q)" fill-rule="nonzero" stroke="#5ac8f7" stroke-linejoin="round" stroke-width=".25" d="M38.16 11.05 19.14 22.11 0 11.06 19.02 0z" transform="translate(35.99 28.76)"/><path stroke="#5ac8f7" stroke-linejoin="round" stroke-width=".25" d="M74.15 39.81 55.13 50.87 35.99 39.82l19.02-11.06z"/><path fill="url(#R)" fill-rule="nonzero" d="M.06 11.05 19.08 0l-.06 7.03L0 18.09z" transform="translate(35.99 21.73)"/><path fill="url(#R)" fill-rule="nonzero" stroke="#5ac8f7" stroke-linejoin="round" stroke-width=".25" d="M.06 11.05 19.08 0l-.06 7.03L0 18.09z" transform="translate(35.99 21.73)"/><path stroke="#5ac8f7" stroke-linejoin="round" stroke-width=".25" d="m36.05 32.78 19.02-11.05-.06 7.03-19.02 11.06z"/><path fill="url(#S)" fill-rule="nonzero" d="M.06 0 19.2 11.05l-.06 7.03L0 7.03z" transform="translate(55.01 21.73)"/><path fill="url(#S)" fill-rule="nonzero" stroke="#5ac8f7" stroke-linejoin="round" stroke-width=".25" d="M.06 0 19.2 11.05l-.06 7.03L0 7.03z" transform="translate(55.01 21.73)"/><path stroke="#5ac8f7" stroke-linejoin="round" stroke-width=".25" d="m55.07 21.73 19.14 11.05-.06 7.03-19.14-11.05z"/><path fill="url(#u)" fill-rule="nonzero" d="m19.08 0-.06 7.03L0 18.09l.06-7.03z" transform="translate(55.13 32.78)"/><path fill="url(#u)" fill-rule="nonzero" stroke="#5ac8f7" stroke-linejoin="round" stroke-width=".25" d="m19.08 0-.06 7.03L0 18.09l.06-7.03z" transform="translate(55.13 32.78)"/><path stroke="#5ac8f7" stroke-linejoin="round" stroke-width=".25" d="m74.21 32.78-.06 7.03-19.02 11.06.06-7.03z"/><path fill="url(#T)" fill-rule="nonzero" d="m19.2 11.06-.06 7.03L0 7.04.06 0z" transform="translate(35.99 32.78)"/><path fill="url(#T)" fill-rule="nonzero" stroke="#5ac8f7" stroke-linejoin="round" stroke-width=".25" d="m19.2 11.06-.06 7.03L0 7.04.06 0z" transform="translate(35.99 32.78)"/><path stroke="#5ac8f7" stroke-linejoin="round" stroke-width=".25" d="m55.19 43.84-.06 7.03-19.14-11.05.06-7.04z"/><path fill="url(#U)" fill-rule="nonzero" d="M38.16 11.05 19.14 22.11 0 11.05 19.02 0z" transform="translate(36.05 21.73)"/><path fill="url(#U)" fill-rule="nonzero" stroke="#5ac8f7" stroke-linejoin="round" stroke-width=".25" d="M38.16 11.05 19.14 22.11 0 11.05 19.02 0z" transform="translate(36.05 21.73)"/><path stroke="#5ac8f7" stroke-linejoin="round" stroke-width=".25" d="M74.21 32.78 55.19 43.84 36.05 32.78l19.02-11.05z"/></g><g fill-rule="nonzero" stroke-linejoin="round" stroke-width=".25" transform="translate(43.574 19.445)"><path fill="url(#V)" stroke="#5ac8f7" d="M17.066 9.455a13.05 13.05 0 0 1-11.86-.12c-1.59-.95-2.38-2.17-2.37-3.4v3.05a4.1 4.1 0 0 0 2.37 3.39 13.05 13.05 0 0 0 11.85.08c1.69-.94 2.54-2.2 2.54-3.47v-3c.01 1.26-.84 2.52-2.53 3.47Z" opacity=".2"/><ellipse cx="11.198" cy="6.511" fill="url(#W)" stroke="#5ac8f7" opacity=".2" rx="6.48" ry="11.18" transform="rotate(-89.84 14.026 9.33)"/><path fill="url(#X)" stroke="#5ac8f7" d="M22.37 12.195c0-1.63-1-3.27-3.16-4.54-4.31-2.57-11.39-2.64-15.82-.16-2.25 1.27-3.38 2.95-3.39 4.63v-5.68c0-1.68 1.14-3.36 3.39-4.63 4.43-2.48 11.51-2.41 15.81.16 2.12 1.27 3.17 2.9 3.17 4.53z" opacity=".2" transform="translate(.016)"/><ellipse cx="8.404" cy="4.883" fill="url(#Y)" stroke="#5ac8f7" opacity=".2" rx="4.86" ry="8.39" transform="rotate(-89.84 11.876 5.541)"/><path fill="url(#Z)" stroke="url(#aa)" d="M19.606 5.985v3c0-1.22-.78-2.45-2.37-3.4a13 13 0 0 0-11.86-.11c-1.69.94-2.54 2.2-2.54 3.47v-3.01c0-1.26.85-2.52 2.54-3.47a13.08 13.08 0 0 1 11.86.12 4.15 4.15 0 0 1 2.37 3.4Z"/><path fill="url(#ab)" stroke="#5ac8f7" d="M19.016 11.135c-4.43 2.49-11.51 2.42-15.82-.16-2.11-1.26-3.17-2.9-3.16-4.53v5.68c0 1.63 1 3.27 3.17 4.53 4.3 2.58 11.38 2.65 15.81.16 2.25-1.26 3.38-2.94 3.39-4.62v-5.69c-.01 1.69-1.14 3.37-3.39 4.63Z"/><path fill="url(#ac)" stroke="#5ac8f7" d="M17.676 9.815a14.41 14.41 0 0 1-13.06-.13c-3.56-2.13-3.48-5.52.18-7.57a14.37 14.37 0 0 1 13.07.13c3.54 2.13 3.45 5.51-.19 7.57Zm-.61-.36c3.32-1.86 3.4-4.94.17-6.87a13.08 13.08 0 0 0-11.86-.13c-3.32 1.87-3.4 4.94-.17 6.87a13.05 13.05 0 0 0 11.86.13"/><path fill="url(#ad)" stroke="#5ac8f7" d="M19.236 1.975c-4.3-2.57-11.38-2.64-15.81-.16s-4.53 6.59-.23 9.16 11.39 2.65 15.82.16 4.53-6.58.22-9.16Zm-1.56 7.84a14.41 14.41 0 0 1-13.06-.13c-3.56-2.13-3.48-5.52.18-7.57a14.37 14.37 0 0 1 13.07.13c3.54 2.13 3.45 5.51-.19 7.57Z"/></g></g></svg>