<svg xmlns="http://www.w3.org/2000/svg" viewBox="0 0 61 152"><title>The server（服务器）</title><defs><linearGradient id="a" x1="17.065%" x2="58.256%" y1="73.839%" y2="17.115%"><stop offset="0%" stop-color="#2a6aaf" stop-opacity="0"/><stop offset="100%" stop-color="#5ac8f7" stop-opacity=".6"/></linearGradient><linearGradient id="b" x1="70.055%" x2="29.945%" y1="61.546%" y2="38.454%"><stop offset="0%" stop-color="#5ac8f7" stop-opacity=".6"/><stop offset="100%" stop-color="#2a6aaf" stop-opacity="0"/></linearGradient><linearGradient id="c" x1="30.86%" x2="69.14%" y1="87.759%" y2="12.241%"><stop offset="0%" stop-color="#2a6aaf" stop-opacity="0"/><stop offset="100%" stop-color="#5ac8f7" stop-opacity=".6"/></linearGradient><linearGradient id="d" x1="16.926%" x2="58.357%" y1="74.02%" y2="16.912%"><stop offset="0%" stop-color="#2a6aaf" stop-opacity="0"/><stop offset="100%" stop-color="#5ac8f7" stop-opacity=".6"/></linearGradient><linearGradient id="e" x1="2.607%" x2="97.393%" y1="92.676%" y2="7.324%"><stop offset="0%" stop-color="#2a6aaf" stop-opacity="0"/><stop offset="100%" stop-color="#5ac8f7" stop-opacity=".6"/></linearGradient><linearGradient id="f" x1="40.983%" x2="63.1%" y1="65.49%" y2="27.059%"><stop offset="0%" stop-color="#2a6aaf" stop-opacity="0"/><stop offset="100%" stop-color="#5ac8f7" stop-opacity=".6"/></linearGradient><linearGradient id="g" x1="70.055%" x2="29.945%" y1="61.546%" y2="38.295%"><stop offset="0%" stop-color="#5ac8f7" stop-opacity=".6"/><stop offset="100%" stop-color="#2a6aaf" stop-opacity="0"/></linearGradient><linearGradient id="h" x1="29.775%" x2="70.101%" y1="78.007%" y2="21.993%"><stop offset="0%" stop-color="#2a6aaf" stop-opacity="0"/><stop offset="100%" stop-color="#5ac8f7" stop-opacity=".6"/></linearGradient><linearGradient id="i" x1="49.831%" x2="49.831%" y1="102.353%" y2="-2.549%"><stop offset="0%" stop-color="#5ac8f7"/><stop offset="100%" stop-color="#2a6aaf" stop-opacity="0"/></linearGradient><linearGradient id="j" x1="17.088%" x2="58.317%" y1="74.083%" y2="17.115%"><stop offset="0%" stop-color="#2a6aaf" stop-opacity="0"/><stop offset="100%" stop-color="#5ac8f7" stop-opacity=".6"/></linearGradient><linearGradient id="k" x1="30.729%" x2="69.271%" y1="87.759%" y2="12.241%"><stop offset="0%" stop-color="#2a6aaf" stop-opacity="0"/><stop offset="100%" stop-color="#5ac8f7" stop-opacity=".6"/></linearGradient><linearGradient id="l" x1="16.904%" x2="58.296%" y1="74.02%" y2="16.912%"><stop offset="0%" stop-color="#2a6aaf" stop-opacity="0"/><stop offset="100%" stop-color="#5ac8f7" stop-opacity=".6"/></linearGradient><linearGradient id="m" x1="2.375%" x2="97.625%" y1="92.879%" y2="7.121%"><stop offset="0%" stop-color="#2a6aaf" stop-opacity="0"/><stop offset="100%" stop-color="#5ac8f7" stop-opacity=".6"/></linearGradient><linearGradient id="n" x1="41.019%" x2="63.049%" y1="65.558%" y2="27.202%"><stop offset="0%" stop-color="#2a6aaf" stop-opacity="0"/><stop offset="100%" stop-color="#5ac8f7" stop-opacity=".6"/></linearGradient><linearGradient id="o" x1="70.055%" x2="29.945%" y1="61.68%" y2="38.32%"><stop offset="0%" stop-color="#5ac8f7" stop-opacity=".6"/><stop offset="100%" stop-color="#2a6aaf" stop-opacity="0"/></linearGradient><linearGradient id="p" x1="29.858%" x2="70.142%" y1="78.045%" y2="22.127%"><stop offset="0%" stop-color="#2a6aaf" stop-opacity="0"/><stop offset="100%" stop-color="#5ac8f7" stop-opacity=".6"/></linearGradient><linearGradient id="q" x1="41.045%" x2="63.149%" y1="65.558%" y2="27.202%"><stop offset="0%" stop-color="#2a6aaf" stop-opacity="0"/><stop offset="100%" stop-color="#5ac8f7" stop-opacity=".6"/></linearGradient><linearGradient id="r" x1="30.86%" x2="69.14%" y1="87.552%" y2="12.241%"><stop offset="0%" stop-color="#2a6aaf" stop-opacity="0"/><stop offset="100%" stop-color="#5ac8f7" stop-opacity=".6"/></linearGradient><linearGradient id="s" x1="45.878%" x2="54.122%" y1="74.278%" y2="25.713%"><stop offset="0%" stop-color="#2a6aaf" stop-opacity="0"/><stop offset="100%" stop-color="#5ac8f7" stop-opacity=".6"/></linearGradient><linearGradient id="t" x1="39.982%" x2="60.018%" y1="82.612%" y2="17.381%"><stop offset="0%" stop-color="#2a6aaf" stop-opacity="0"/><stop offset="100%" stop-color="#5ac8f7" stop-opacity=".6"/></linearGradient><linearGradient id="u" x1="70.26%" x2="29.757%" y1="61.72%" y2="38.28%"><stop offset="0%" stop-color="#5ac8f7" stop-opacity=".6"/><stop offset="100%" stop-color="#2a6aaf" stop-opacity="0"/></linearGradient><linearGradient id="v" x1="45.877%" x2="54.122%" y1="74.28%" y2="25.72%"><stop offset="0%" stop-color="#2a6aaf" stop-opacity="0"/><stop offset="100%" stop-color="#5ac8f7" stop-opacity=".6"/></linearGradient><linearGradient id="w" x1="39.983%" x2="60.017%" y1="82.613%" y2="17.387%"><stop offset="0%" stop-color="#2a6aaf" stop-opacity="0"/><stop offset="100%" stop-color="#5ac8f7" stop-opacity=".6"/></linearGradient><linearGradient id="x" x1="70.243%" x2="29.74%" y1="61.711%" y2="38.279%"><stop offset="0%" stop-color="#5ac8f7" stop-opacity=".6"/><stop offset="100%" stop-color="#2a6aaf" stop-opacity="0"/></linearGradient><linearGradient id="y" x1="32.899%" x2="67.101%" y1="64.477%" y2="35.523%"><stop offset="0%" stop-color="#2a6aaf" stop-opacity="0"/><stop offset="100%" stop-color="#5ac8f7" stop-opacity=".6"/></linearGradient><linearGradient id="z" x1="7.253%" x2="92.773%" y1="80.368%" y2="19.614%"><stop offset="0%" stop-color="#2a6aaf" stop-opacity="0"/><stop offset="100%" stop-color="#5ac8f7" stop-opacity=".6"/></linearGradient><linearGradient id="A" x1="70.261%" x2="29.739%" y1="61.692%" y2="38.308%"><stop offset="0%" stop-color="#5ac8f7" stop-opacity=".6"/><stop offset="100%" stop-color="#2a6aaf" stop-opacity="0"/></linearGradient><linearGradient id="B" x1="32.882%" x2="67.068%" y1="64.462%" y2="35.538%"><stop offset="0%" stop-color="#2a6aaf" stop-opacity="0"/><stop offset="100%" stop-color="#5ac8f7" stop-opacity=".6"/></linearGradient><linearGradient id="C" x1="7.229%" x2="92.771%" y1="80.383%" y2="19.599%"><stop offset="0%" stop-color="#2a6aaf" stop-opacity="0"/><stop offset="100%" stop-color="#5ac8f7" stop-opacity=".6"/></linearGradient><linearGradient id="D" x1="31.088%" x2="68.863%" y1="71.429%" y2="28.571%"><stop offset="0%" stop-color="#2a6aaf" stop-opacity="0"/><stop offset="100%" stop-color="#5ac8f7" stop-opacity=".6"/></linearGradient><linearGradient id="E" x1="3.614%" x2="96.386%" y1="89.68%" y2="10.32%"><stop offset="0%" stop-color="#2a6aaf" stop-opacity="0"/><stop offset="100%" stop-color="#5ac8f7" stop-opacity=".6"/></linearGradient><linearGradient id="F" x1="70.251%" x2="29.749%" y1="61.708%" y2="38.292%"><stop offset="0%" stop-color="#5ac8f7" stop-opacity=".6"/><stop offset="100%" stop-color="#2a6aaf" stop-opacity="0"/></linearGradient><linearGradient id="G" x1="31.137%" x2="68.912%" y1="71.429%" y2="28.571%"><stop offset="0%" stop-color="#2a6aaf" stop-opacity="0"/><stop offset="100%" stop-color="#5ac8f7" stop-opacity=".6"/></linearGradient><linearGradient id="H" x1="3.614%" x2="96.386%" y1="89.652%" y2="10.348%"><stop offset="0%" stop-color="#2a6aaf" stop-opacity="0"/><stop offset="100%" stop-color="#5ac8f7" stop-opacity=".6"/></linearGradient><linearGradient id="I" x1="3.331%" x2="96.669%" y1="89.894%" y2="10.106%"><stop offset="0%" stop-color="#2a6aaf" stop-opacity="0"/><stop offset="100%" stop-color="#5ac8f7"/></linearGradient><linearGradient id="J" x1="70.251%" x2="29.749%" y1="61.72%" y2="38.292%"><stop offset="0%" stop-color="#5ac8f7" stop-opacity=".6"/><stop offset="100%" stop-color="#2a6aaf" stop-opacity="0"/></linearGradient><linearGradient id="K" x1="32.29%" x2="67.71%" y1="65.443%" y2="34.612%"><stop offset="0%" stop-color="#2a6aaf" stop-opacity="0"/><stop offset="100%" stop-color="#5ac8f7" stop-opacity=".6"/></linearGradient><linearGradient id="L" x1="6.945%" x2="93.055%" y1="81.121%" y2="18.879%"><stop offset="0%" stop-color="#2a6aaf" stop-opacity="0"/><stop offset="100%" stop-color="#5ac8f7" stop-opacity=".6"/></linearGradient><linearGradient id="M" x1="32.29%" x2="67.71%" y1="65.443%" y2="34.557%"><stop offset="0%" stop-color="#2a6aaf" stop-opacity="0"/><stop offset="100%" stop-color="#5ac8f7" stop-opacity=".6"/></linearGradient><linearGradient id="N" x1="6.945%" x2="93.055%" y1="81.118%" y2="18.882%"><stop offset="0%" stop-color="#2a6aaf" stop-opacity="0"/><stop offset="100%" stop-color="#5ac8f7" stop-opacity=".6"/></linearGradient><linearGradient id="O" x1="-.377%" x2="100.377%" y1="49.978%" y2="49.978%"><stop offset="0%" stop-color="#2a6aaf" stop-opacity="0"/><stop offset="100%" stop-color="#5ac8f7"/></linearGradient><linearGradient id="P" x1="6.945%" x2="93.055%" y1="81.121%" y2="18.857%"><stop offset="0%" stop-color="#2a6aaf" stop-opacity="0"/><stop offset="100%" stop-color="#5ac8f7" stop-opacity=".6"/></linearGradient><linearGradient id="Q" x1="32.29%" x2="67.71%" y1="65.388%" y2="34.557%"><stop offset="0%" stop-color="#2a6aaf" stop-opacity="0"/><stop offset="100%" stop-color="#5ac8f7" stop-opacity=".6"/></linearGradient><linearGradient id="R" x1="6.945%" x2="93.055%" y1="81.143%" y2="18.879%"><stop offset="0%" stop-color="#2a6aaf" stop-opacity="0"/><stop offset="100%" stop-color="#5ac8f7" stop-opacity=".6"/></linearGradient><linearGradient id="S" x1="-.377%" x2="100.377%" y1="50%" y2="50%"><stop offset="0%" stop-color="#2a6aaf" stop-opacity="0"/><stop offset="100%" stop-color="#5ac8f7"/></linearGradient><linearGradient id="T" x1="70.251%" x2="29.749%" y1="61.708%" y2="38.28%"><stop offset="0%" stop-color="#5ac8f7" stop-opacity=".6"/><stop offset="100%" stop-color="#2a6aaf" stop-opacity="0"/></linearGradient><linearGradient id="U" x1="32.29%" x2="67.71%" y1="65.427%" y2="34.573%"><stop offset="0%" stop-color="#2a6aaf" stop-opacity="0"/><stop offset="100%" stop-color="#5ac8f7" stop-opacity=".6"/></linearGradient><linearGradient id="V" x1="70.251%" x2="29.749%" y1="61.718%" y2="38.282%"><stop offset="0%" stop-color="#5ac8f7" stop-opacity=".6"/><stop offset="100%" stop-color="#2a6aaf" stop-opacity="0"/></linearGradient><linearGradient id="W" x1="62.815%" x2="37.185%" y1="57.359%" y2="42.641%"><stop offset="0%" stop-color="#5ac8f7" stop-opacity=".6"/><stop offset="100%" stop-color="#2a6aaf" stop-opacity="0"/></linearGradient><linearGradient id="X" x1="62.744%" x2="37.256%" y1="57.361%" y2="42.639%"><stop offset="0%" stop-color="#5ac8f7" stop-opacity=".6"/><stop offset="100%" stop-color="#2a6aaf" stop-opacity="0"/></linearGradient><linearGradient id="Y" x1="49.279%" x2="50.718%" y1="74.94%" y2="25.153%"><stop offset="0%" stop-color="#2a6aaf" stop-opacity="0"/><stop offset="100%" stop-color="#5ac8f7" stop-opacity=".6"/></linearGradient><linearGradient id="Z" x1="49.287%" x2="50.713%" y1="74.847%" y2="25.153%"><stop offset="0%" stop-color="#2a6aaf" stop-opacity="0"/><stop offset="100%" stop-color="#5ac8f7" stop-opacity=".6"/></linearGradient><linearGradient id="aa" x1="41.005%" x2="58.995%" y1="81.958%" y2="18.042%"><stop offset="0%" stop-color="#2a6aaf" stop-opacity="0"/><stop offset="100%" stop-color="#5ac8f7" stop-opacity=".2"/></linearGradient></defs><g fill="none" fill-rule="evenodd"><g opacity=".2"><path fill="url(#a)" fill-rule="nonzero" d="M2.97 1.71 1.2 4.09 0 3.4.01 0z" transform="translate(40.34 113.38)"/><path fill="url(#a)" fill-rule="nonzero" stroke="#5ac8f7" stroke-linejoin="round" stroke-width=".25" d="M2.97 1.71 1.2 4.09 0 3.4.01 0z" transform="translate(40.34 113.38)"/><path stroke="#5ac8f7" stroke-linejoin="round" stroke-width=".25" d="m43.31 115.09-1.77 2.38-1.2-.69.01-3.4z"/><path fill="url(#b)" fill-rule="nonzero" d="M1.19 2.11 0 1.42 2.44 0l1.2.69z" transform="translate(37.9 116.78)"/><path fill="url(#b)" fill-rule="nonzero" stroke="#5ac8f7" stroke-linejoin="round" stroke-width=".25" d="M1.19 2.11 0 1.42 2.44 0l1.2.69z" transform="translate(37.9 116.78)"/><path stroke="#5ac8f7" stroke-linejoin="round" stroke-width=".25" d="m39.09 118.89-1.19-.69 2.44-1.42 1.2.69z"/><path fill="url(#c)" fill-rule="nonzero" d="m0 4.82.01-3.39L2.45 0l-.01 3.4z" transform="translate(37.9 113.38)"/><path fill="url(#c)" fill-rule="nonzero" stroke="#5ac8f7" stroke-linejoin="round" stroke-width=".25" d="m0 4.82.01-3.39L2.45 0l-.01 3.4z" transform="translate(37.9 113.38)"/><path stroke="#5ac8f7" stroke-linejoin="round" stroke-width=".25" d="m37.9 118.2.01-3.39 2.44-1.43-.01 3.4z"/><path fill="url(#d)" fill-rule="nonzero" d="M2.96 1.7 1.19 4.08 0 3.39.01 0z" transform="translate(37.9 114.81)"/><path fill="url(#d)" fill-rule="nonzero" stroke="#5ac8f7" stroke-linejoin="round" stroke-width=".25" d="M2.96 1.7 1.19 4.08 0 3.39.01 0z" transform="translate(37.9 114.81)"/><path stroke="#5ac8f7" stroke-linejoin="round" stroke-width=".25" d="m40.86 116.51-1.77 2.38-1.19-.69.01-3.39z"/><path fill="url(#e)" fill-rule="nonzero" d="M1.77 1.42 4.22 0 2.45 2.38 0 3.8z" transform="translate(39.09 115.09)"/><path fill="url(#e)" fill-rule="nonzero" stroke="#5ac8f7" stroke-linejoin="round" stroke-width=".25" d="M1.77 1.42 4.22 0 2.45 2.38 0 3.8z" transform="translate(39.09 115.09)"/><path stroke="#5ac8f7" stroke-linejoin="round" stroke-width=".25" d="m40.86 116.51 2.45-1.42-1.77 2.38-2.45 1.42z"/></g><g opacity=".2"><path fill="url(#f)" fill-rule="nonzero" d="m2.95 1.7-.01 3.4-1.19-.69L0 0z" transform="translate(57.24 123.02)"/><path fill="url(#f)" fill-rule="nonzero" stroke="#5ac8f7" stroke-linejoin="round" stroke-width=".25" d="m2.95 1.7-.01 3.4-1.19-.69L0 0z" transform="translate(57.24 123.02)"/><path stroke="#5ac8f7" stroke-linejoin="round" stroke-width=".25" d="m60.19 124.72-.01 3.4-1.19-.69-1.75-4.41z"/></g><g opacity=".2"><path fill="url(#g)" fill-rule="nonzero" d="M1.2 2.11 0 1.41 2.45 0l1.19.69z" transform="translate(56.54 127.43)"/><path fill="url(#g)" fill-rule="nonzero" stroke="#5ac8f7" stroke-linejoin="round" stroke-width=".25" d="M1.2 2.11 0 1.41 2.45 0l1.19.69z" transform="translate(56.54 127.43)"/><path stroke="#5ac8f7" stroke-linejoin="round" stroke-width=".25" d="m57.74 129.54-1.2-.7 2.45-1.41 1.19.69z"/></g><g opacity=".2"><path fill="url(#h)" fill-rule="nonzero" d="M1.74 5.82 0 1.42 2.44 0l1.75 4.41z" transform="translate(54.8 123.02)"/><path fill="url(#h)" fill-rule="nonzero" stroke="#5ac8f7" stroke-linejoin="round" stroke-width=".25" d="M1.74 5.82 0 1.42 2.44 0l1.75 4.41z" transform="translate(54.8 123.02)"/><path stroke="#5ac8f7" stroke-linejoin="round" stroke-width=".25" d="m56.54 128.84-1.74-4.4 2.44-1.42 1.75 4.41z"/></g><path fill="url(#f)" fill-rule="nonzero" d="m2.95 1.7-.01 3.4-1.2-.7L0 0z" transform="translate(54.8 124.44)"/><path fill="url(#f)" fill-rule="nonzero" stroke="url(#i)" stroke-linejoin="round" stroke-width=".25" d="m2.95 1.7-.01 3.4-1.2-.7L0 0z" transform="translate(54.8 124.44)"/><path stroke="url(#i)" stroke-linejoin="round" stroke-width=".25" d="m2.95 1.7-.01 3.4-1.2-.7L0 0z" transform="translate(54.8 124.44)"/><path fill="url(#c)" fill-rule="nonzero" d="M.01 1.42 2.45 0l-.01 3.4L0 4.82z" transform="translate(57.74 124.72)"/><path fill="url(#c)" fill-rule="nonzero" stroke="#5ac8f7" stroke-linejoin="round" stroke-width=".25" d="M.01 1.42 2.45 0l-.01 3.4L0 4.82z" transform="translate(57.74 124.72)"/><path stroke="#5ac8f7" stroke-linejoin="round" stroke-width=".25" d="m57.75 126.14 2.44-1.42-.01 3.4-2.44 1.42z"/><g opacity=".2"><path fill="url(#j)" fill-rule="nonzero" d="M2.96 1.71 1.19 4.09 0 3.4.01 0z" transform="translate(2.99 134.62)"/><path fill="url(#j)" fill-rule="nonzero" stroke="#5ac8f7" stroke-linejoin="round" stroke-width=".25" d="M2.96 1.71 1.19 4.09 0 3.4.01 0z" transform="translate(2.99 134.62)"/><path stroke="#5ac8f7" stroke-linejoin="round" stroke-width=".25" d="m5.95 136.33-1.77 2.38-1.19-.69.01-3.4z"/></g><g opacity=".2"><path fill="url(#b)" fill-rule="nonzero" d="M1.2 2.11 0 1.42 2.45 0l1.19.69z" transform="translate(.54 138.02)"/><path fill="url(#b)" fill-rule="nonzero" stroke="#5ac8f7" stroke-linejoin="round" stroke-width=".25" d="M1.2 2.11 0 1.42 2.45 0l1.19.69z" transform="translate(.54 138.02)"/><path stroke="#5ac8f7" stroke-linejoin="round" stroke-width=".25" d="m1.74 140.13-1.2-.69 2.45-1.42 1.19.69z"/></g><g opacity=".2"><path fill="url(#k)" fill-rule="nonzero" d="m0 4.82.01-3.39L2.46 0l-.01 3.4z" transform="translate(.54 134.62)"/><path fill="url(#k)" fill-rule="nonzero" stroke="#5ac8f7" stroke-linejoin="round" stroke-width=".25" d="m0 4.82.01-3.39L2.46 0l-.01 3.4z" transform="translate(.54 134.62)"/><path stroke="#5ac8f7" stroke-linejoin="round" stroke-width=".25" d="m.54 139.44.01-3.39L3 134.62l-.01 3.4z"/></g><path fill="url(#l)" fill-rule="nonzero" d="M2.97 1.7 1.2 4.08 0 3.39.01 0z" transform="translate(.54 136.05)"/><path fill="url(#l)" fill-rule="nonzero" stroke="#5ac8f7" stroke-linejoin="round" stroke-width=".25" d="M2.97 1.7 1.2 4.08 0 3.39.01 0z" transform="translate(.54 136.05)"/><path stroke="#5ac8f7" stroke-linejoin="round" stroke-width=".25" d="m3.51 137.75-1.77 2.38-1.2-.69.01-3.39z"/><path fill="url(#m)" fill-rule="nonzero" d="M1.77 1.42 4.21 0 2.44 2.38 0 3.8z" transform="translate(1.74 136.33)"/><path fill="url(#m)" fill-rule="nonzero" stroke="#5ac8f7" stroke-linejoin="round" stroke-width=".25" d="M1.77 1.42 4.21 0 2.44 2.38 0 3.8z" transform="translate(1.74 136.33)"/><path stroke="#5ac8f7" stroke-linejoin="round" stroke-width=".25" d="m3.51 137.75 2.44-1.42-1.77 2.38-2.44 1.42z"/><g opacity=".2"><path fill="url(#n)" fill-rule="nonzero" d="m2.95 1.71-.01 3.4-1.19-.7L0 0z" transform="translate(19.97 144.5)"/><path fill="url(#n)" fill-rule="nonzero" stroke="#5ac8f7" stroke-linejoin="round" stroke-width=".25" d="m2.95 1.71-.01 3.4-1.19-.7L0 0z" transform="translate(19.97 144.5)"/><path stroke="#5ac8f7" stroke-linejoin="round" stroke-width=".25" d="m22.92 146.21-.01 3.4-1.19-.7-1.75-4.41z"/></g><g opacity=".2"><path fill="url(#o)" fill-rule="nonzero" d="M1.2 2.12 0 1.42 2.45 0l1.19.7z" transform="translate(19.27 148.91)"/><path fill="url(#o)" fill-rule="nonzero" stroke="#5ac8f7" stroke-linejoin="round" stroke-width=".25" d="M1.2 2.12 0 1.42 2.45 0l1.19.7z" transform="translate(19.27 148.91)"/><path stroke="#5ac8f7" stroke-linejoin="round" stroke-width=".25" d="m20.47 151.03-1.2-.7 2.45-1.42 1.19.7z"/></g><g opacity=".2"><path fill="url(#p)" fill-rule="nonzero" d="M1.75 5.83 0 1.42 2.45 0 4.2 4.41z" transform="translate(17.52 144.5)"/><path fill="url(#p)" fill-rule="nonzero" stroke="#5ac8f7" stroke-linejoin="round" stroke-width=".25" d="M1.75 5.83 0 1.42 2.45 0 4.2 4.41z" transform="translate(17.52 144.5)"/><path stroke="#5ac8f7" stroke-linejoin="round" stroke-width=".25" d="m19.27 150.33-1.75-4.41 2.45-1.42 1.75 4.41z"/></g><path fill="url(#q)" fill-rule="nonzero" d="m2.96 1.71-.01 3.4-1.2-.7L0 0z" transform="translate(17.52 145.92)"/><path fill="url(#q)" fill-rule="nonzero" stroke="#5ac8f7" stroke-linejoin="round" stroke-width=".25" d="m2.96 1.71-.01 3.4-1.2-.7L0 0z" transform="translate(17.52 145.92)"/><path stroke="#5ac8f7" stroke-linejoin="round" stroke-width=".25" d="m20.48 147.63-.01 3.4-1.2-.7-1.75-4.41z"/><path fill="url(#r)" fill-rule="nonzero" d="M.01 1.42 2.45 0l-.01 3.4L0 4.82z" transform="translate(20.47 146.21)"/><path fill="url(#r)" fill-rule="nonzero" stroke="#5ac8f7" stroke-linejoin="round" stroke-width=".25" d="M.01 1.42 2.45 0l-.01 3.4L0 4.82z" transform="translate(20.47 146.21)"/><path stroke="#5ac8f7" stroke-linejoin="round" stroke-width=".25" d="m20.48 147.63 2.44-1.42-.01 3.4-2.44 1.42z"/><g opacity=".2"><path fill="url(#s)" fill-rule="nonzero" d="M19.95 11.58 0 0l.17 106.87 19.94 11.59z" transform="translate(40.08 1.03)"/><path fill="url(#s)" fill-rule="nonzero" stroke="#5ac8f7" stroke-linejoin="round" stroke-width=".25" d="M19.95 11.58 0 0l.17 106.87 19.94 11.59z" transform="translate(40.08 1.03)"/><path stroke="#5ac8f7" stroke-linejoin="round" stroke-width=".25" d="M60.03 12.61 40.08 1.03l.17 106.87 19.94 11.59z"/></g><g opacity=".2"><path fill="url(#t)" fill-rule="nonzero" d="M39.7 0 0 22.92.16 129.8l39.71-22.93z" transform="translate(.38 1.03)"/><path fill="url(#t)" fill-rule="nonzero" stroke="#5ac8f7" stroke-linejoin="round" stroke-width=".25" d="M39.7 0 0 22.92.16 129.8l39.71-22.93z" transform="translate(.38 1.03)"/><path stroke="#5ac8f7" stroke-linejoin="round" stroke-width=".25" d="M40.08 1.03.38 23.95l.16 106.88 39.71-22.93z"/></g><g opacity=".2"><path fill="url(#u)" fill-rule="nonzero" d="m0 22.93 19.95 11.59 39.7-22.93L39.71 0z" transform="translate(.54 107.9)"/><path fill="url(#u)" fill-rule="nonzero" stroke="#5ac8f7" stroke-linejoin="round" stroke-width=".25" d="m0 22.93 19.95 11.59 39.7-22.93L39.71 0z" transform="translate(.54 107.9)"/><path stroke="#5ac8f7" stroke-linejoin="round" stroke-width=".25" d="m.54 130.83 19.95 11.59 39.7-22.93-19.94-11.59z"/></g><path fill="url(#v)" fill-rule="nonzero" d="m0 0 .16 106.88 19.95 11.59-.17-106.88z" transform="translate(.38 23.95)"/><path fill="url(#v)" fill-rule="nonzero" stroke="#5ac8f7" stroke-linejoin="round" stroke-width=".25" d="m0 0 .16 106.88 19.95 11.59-.17-106.88z" transform="translate(.38 23.95)"/><path stroke="#5ac8f7" stroke-linejoin="round" stroke-width=".25" d="m.38 23.95.16 106.88 19.95 11.59-.17-106.88z"/><path fill="url(#w)" fill-rule="nonzero" d="m0 22.93.17 106.88 39.7-22.93L39.71 0z" transform="translate(20.32 12.61)"/><path fill="url(#w)" fill-rule="nonzero" stroke="#5ac8f7" stroke-linejoin="round" stroke-width=".25" d="m0 22.93.17 106.88 39.7-22.93L39.71 0z" transform="translate(20.32 12.61)"/><path stroke="#5ac8f7" stroke-linejoin="round" stroke-width=".25" d="m20.32 35.54.17 106.88 39.7-22.93-.16-106.88z"/><path fill="url(#x)" fill-rule="nonzero" d="m0 22.92 19.94 11.59 39.71-22.93L39.7 0z" transform="translate(.38 1.03)"/><path fill="url(#x)" fill-rule="nonzero" stroke="#5ac8f7" stroke-linejoin="round" stroke-width=".25" d="m0 22.92 19.94 11.59 39.71-22.93L39.7 0z" transform="translate(.38 1.03)"/><path stroke="#5ac8f7" stroke-linejoin="round" stroke-width=".25" d="m.38 23.95 19.94 11.59 39.71-22.93L40.08 1.03z"/><g opacity=".2"><path fill="url(#y)" fill-rule="nonzero" d="M19.94 11.59 0 0v5.28l19.94 11.6z" transform="translate(40.25 107.85)"/><path fill="url(#y)" fill-rule="nonzero" stroke="#5ac8f7" stroke-linejoin="round" stroke-width=".25" d="M19.94 11.59 0 0v5.28l19.94 11.6z" transform="translate(40.25 107.85)"/><path stroke="#5ac8f7" stroke-linejoin="round" stroke-width=".25" d="m60.19 119.44-19.94-11.59v5.28l19.94 11.6z"/></g><g opacity=".2"><path fill="url(#z)" fill-rule="nonzero" d="M39.71 0 0 22.92v5.29L39.71 5.28z" transform="translate(.54 107.85)"/><path fill="url(#z)" fill-rule="nonzero" stroke="#5ac8f7" stroke-linejoin="round" stroke-width=".25" d="M39.71 0 0 22.92v5.29L39.71 5.28z" transform="translate(.54 107.85)"/><path stroke="#5ac8f7" stroke-linejoin="round" stroke-width=".25" d="M40.25 107.85.54 130.77v5.29l39.71-22.93z"/></g><g opacity=".2"><path fill="url(#A)" fill-rule="nonzero" d="m0 22.93 20.11 11.59L59.82 11.6 39.71 0z" transform="translate(.54 113.13)"/><path fill="url(#A)" fill-rule="nonzero" stroke="#5ac8f7" stroke-linejoin="round" stroke-width=".25" d="m0 22.93 20.11 11.59L59.82 11.6 39.71 0z" transform="translate(.54 113.13)"/><path stroke="#5ac8f7" stroke-linejoin="round" stroke-width=".25" d="m.54 136.06 20.11 11.59 39.71-22.92-20.11-11.6z"/></g><path fill="url(#B)" fill-rule="nonzero" d="M0 0v5.29l19.95 11.59v-5.29z" transform="translate(.54 130.77)"/><path fill="url(#B)" fill-rule="nonzero" stroke="#5ac8f7" stroke-linejoin="round" stroke-width=".25" d="M0 0v5.29l19.95 11.59v-5.29z" transform="translate(.54 130.77)"/><path stroke="#5ac8f7" stroke-linejoin="round" stroke-width=".25" d="M.54 130.77v5.29l19.95 11.59v-5.29z"/><path fill="url(#C)" fill-rule="nonzero" d="M0 22.92v5.29L39.7 5.29V0z" transform="translate(20.49 119.44)"/><path fill="url(#C)" fill-rule="nonzero" stroke="#5ac8f7" stroke-linejoin="round" stroke-width=".25" d="M0 22.92v5.29L39.7 5.29V0z" transform="translate(20.49 119.44)"/><path stroke="#5ac8f7" stroke-linejoin="round" stroke-width=".25" d="M20.49 142.36v5.29l39.7-22.92v-5.29z"/><g opacity=".2"><path fill="url(#D)" fill-rule="nonzero" d="M15.98 9.29 0 0v8.85l15.98 9.28z" transform="translate(38.11 96.28)"/><path fill="url(#D)" fill-rule="nonzero" stroke="#5ac8f7" stroke-linejoin="round" stroke-width=".25" d="M15.98 9.29 0 0v8.85l15.98 9.28z" transform="translate(38.11 96.28)"/><path stroke="#5ac8f7" stroke-linejoin="round" stroke-width=".25" d="m54.09 105.57-15.98-9.29v8.85l15.98 9.28z"/></g><g opacity=".2"><path fill="url(#E)" fill-rule="nonzero" d="M31.82 0 0 18.37v8.85L31.82 8.85z" transform="translate(6.29 96.28)"/><path fill="url(#E)" fill-rule="nonzero" stroke="#5ac8f7" stroke-linejoin="round" stroke-width=".25" d="M31.82 0 0 18.37v8.85L31.82 8.85z" transform="translate(6.29 96.28)"/><path stroke="#5ac8f7" stroke-linejoin="round" stroke-width=".25" d="M38.11 96.28 6.29 114.65v8.85l31.82-18.37z"/></g><g opacity=".2"><path fill="url(#F)" fill-rule="nonzero" d="m0 18.37 15.98 9.28L47.8 9.28 31.82 0z" transform="translate(6.29 105.13)"/><path fill="url(#F)" fill-rule="nonzero" stroke="#5ac8f7" stroke-linejoin="round" stroke-width=".25" d="m0 18.37 15.98 9.28L47.8 9.28 31.82 0z" transform="translate(6.29 105.13)"/><path stroke="#5ac8f7" stroke-linejoin="round" stroke-width=".25" d="m6.29 123.5 15.98 9.28 31.82-18.37-15.98-9.28z"/></g><g opacity=".2"><path fill="url(#G)" fill-rule="nonzero" d="M0 0v8.85l15.98 9.28V9.28z" transform="translate(6.29 114.65)"/><path fill="url(#G)" fill-rule="nonzero" stroke="#5ac8f7" stroke-linejoin="round" stroke-width=".25" d="M0 0v8.85l15.98 9.28V9.28z" transform="translate(6.29 114.65)"/><path stroke="#5ac8f7" stroke-linejoin="round" stroke-width=".25" d="M6.29 114.65v8.85l15.98 9.28v-8.85z"/></g><path fill="url(#H)" fill-rule="nonzero" d="M0 18.36v8.85L31.82 8.84V0z" transform="translate(22.27 105.57)"/><path fill="url(#H)" fill-rule="nonzero" stroke="url(#I)" stroke-linejoin="round" stroke-width=".25" d="M0 18.36v8.85L31.82 8.84V0z" transform="translate(22.27 105.57)"/><path stroke="url(#I)" stroke-linejoin="round" stroke-width=".25" d="M0 18.36v8.85L31.82 8.84V0z" transform="translate(22.27 105.57)"/><g opacity=".2"><path fill="url(#J)" fill-rule="nonzero" d="m0 18.37 15.98 9.28L47.8 9.29 31.82 0z" transform="translate(6.29 96.28)"/><path fill="url(#J)" fill-rule="nonzero" stroke="#5ac8f7" stroke-linejoin="round" stroke-width=".25" d="m0 18.37 15.98 9.28L47.8 9.29 31.82 0z" transform="translate(6.29 96.28)"/><path stroke="#5ac8f7" stroke-linejoin="round" stroke-width=".25" d="m6.29 114.65 15.98 9.28 31.82-18.36-15.98-9.29z"/></g><g opacity=".2"><path fill="url(#K)" fill-rule="nonzero" d="M15.98 9.29 0 0v4.63l15.98 9.28z" transform="translate(38.11 87.72)"/><path fill="url(#K)" fill-rule="nonzero" stroke="#5ac8f7" stroke-linejoin="round" stroke-width=".25" d="M15.98 9.29 0 0v4.63l15.98 9.28z" transform="translate(38.11 87.72)"/><path stroke="#5ac8f7" stroke-linejoin="round" stroke-width=".25" d="m54.09 97.01-15.98-9.29v4.63l15.98 9.28z"/></g><g opacity=".2"><path fill="url(#L)" fill-rule="nonzero" d="M31.82 0 0 18.37V23L31.82 4.63z" transform="translate(6.29 87.72)"/><path fill="url(#L)" fill-rule="nonzero" stroke="#5ac8f7" stroke-linejoin="round" stroke-width=".25" d="M31.82 0 0 18.37V23L31.82 4.63z" transform="translate(6.29 87.72)"/><path stroke="#5ac8f7" stroke-linejoin="round" stroke-width=".25" d="M38.11 87.72 6.29 106.09v4.63l31.82-18.37z"/></g><g opacity=".2"><path fill="url(#F)" fill-rule="nonzero" d="m0 18.37 15.98 9.28L47.8 9.28 31.82 0z" transform="translate(6.29 92.35)"/><path fill="url(#F)" fill-rule="nonzero" stroke="#5ac8f7" stroke-linejoin="round" stroke-width=".25" d="m0 18.37 15.98 9.28L47.8 9.28 31.82 0z" transform="translate(6.29 92.35)"/><path stroke="#5ac8f7" stroke-linejoin="round" stroke-width=".25" d="M6.29 110.72 22.27 120l31.82-18.37-15.98-9.28z"/></g><g opacity=".2"><path fill="url(#M)" fill-rule="nonzero" d="M0 0v4.63l15.98 9.28V9.28z" transform="translate(6.29 106.09)"/><path fill="url(#M)" fill-rule="nonzero" stroke="#5ac8f7" stroke-linejoin="round" stroke-width=".25" d="M0 0v4.63l15.98 9.28V9.28z" transform="translate(6.29 106.09)"/><path stroke="#5ac8f7" stroke-linejoin="round" stroke-width=".25" d="M6.29 106.09v4.63L22.27 120v-4.63z"/></g><path fill="url(#N)" fill-rule="nonzero" d="M21.89 114.34v4.63l31.82-18.37v-4.62z" transform="translate(.38 1.03)"/><path fill="url(#N)" fill-rule="nonzero" stroke="url(#O)" stroke-linejoin="round" stroke-width=".25" d="M21.89 114.34v4.63l31.82-18.37v-4.62z" transform="translate(.38 1.03)"/><path stroke="url(#O)" stroke-linejoin="round" stroke-width=".25" d="M21.89 114.34v4.63l31.82-18.37v-4.62z" transform="translate(.38 1.03)"/><g opacity=".2"><path fill="url(#F)" fill-rule="nonzero" d="m0 18.37 15.98 9.28L47.8 9.29 31.82 0z" transform="translate(6.29 87.72)"/><path fill="url(#F)" fill-rule="nonzero" stroke="#5ac8f7" stroke-linejoin="round" stroke-width=".25" d="m0 18.37 15.98 9.28L47.8 9.29 31.82 0z" transform="translate(6.29 87.72)"/><path stroke="#5ac8f7" stroke-linejoin="round" stroke-width=".25" d="m6.29 106.09 15.98 9.28 31.82-18.36-15.98-9.29z"/></g><g opacity=".2"><path fill="url(#K)" fill-rule="nonzero" d="M15.98 9.29 0 0v4.63l15.98 9.28z" transform="translate(38.11 77.05)"/><path fill="url(#K)" fill-rule="nonzero" stroke="#5ac8f7" stroke-linejoin="round" stroke-width=".25" d="M15.98 9.29 0 0v4.63l15.98 9.28z" transform="translate(38.11 77.05)"/><path stroke="#5ac8f7" stroke-linejoin="round" stroke-width=".25" d="m54.09 86.34-15.98-9.29v4.63l15.98 9.28z"/></g><g opacity=".2"><path fill="url(#P)" fill-rule="nonzero" d="M31.82 0 0 18.37V23L31.82 4.63z" transform="translate(6.29 77.05)"/><path fill="url(#P)" fill-rule="nonzero" stroke="#5ac8f7" stroke-linejoin="round" stroke-width=".25" d="M31.82 0 0 18.37V23L31.82 4.63z" transform="translate(6.29 77.05)"/><path stroke="#5ac8f7" stroke-linejoin="round" stroke-width=".25" d="M38.11 77.05 6.29 95.42v4.63l31.82-18.37z"/></g><g opacity=".2"><path fill="url(#F)" fill-rule="nonzero" d="m0 18.37 15.98 9.28L47.8 9.28 31.82 0z" transform="translate(6.29 81.68)"/><path fill="url(#F)" fill-rule="nonzero" stroke="#5ac8f7" stroke-linejoin="round" stroke-width=".25" d="m0 18.37 15.98 9.28L47.8 9.28 31.82 0z" transform="translate(6.29 81.68)"/><path stroke="#5ac8f7" stroke-linejoin="round" stroke-width=".25" d="m6.29 100.05 15.98 9.28 31.82-18.37-15.98-9.28z"/></g><g opacity=".2"><path fill="url(#M)" fill-rule="nonzero" d="M0 0v4.63l15.98 9.28V9.28z" transform="translate(6.29 95.42)"/><path fill="url(#M)" fill-rule="nonzero" stroke="#5ac8f7" stroke-linejoin="round" stroke-width=".25" d="M0 0v4.63l15.98 9.28V9.28z" transform="translate(6.29 95.42)"/><path stroke="#5ac8f7" stroke-linejoin="round" stroke-width=".25" d="M6.29 95.42v4.63l15.98 9.28v-4.63z"/></g><path fill="url(#N)" fill-rule="nonzero" d="M21.89 103.67v4.63l31.82-18.37v-4.62z" transform="translate(.38 1.03)"/><path fill="url(#N)" fill-rule="nonzero" stroke="url(#O)" stroke-linejoin="round" stroke-width=".25" d="M21.89 103.67v4.63l31.82-18.37v-4.62z" transform="translate(.38 1.03)"/><path stroke="url(#O)" stroke-linejoin="round" stroke-width=".25" d="M21.89 103.67v4.63l31.82-18.37v-4.62z" transform="translate(.38 1.03)"/><g opacity=".2"><path fill="url(#F)" fill-rule="nonzero" d="m0 18.37 15.98 9.28L47.8 9.29 31.82 0z" transform="translate(6.29 77.05)"/><path fill="url(#F)" fill-rule="nonzero" stroke="#5ac8f7" stroke-linejoin="round" stroke-width=".25" d="m0 18.37 15.98 9.28L47.8 9.29 31.82 0z" transform="translate(6.29 77.05)"/><path stroke="#5ac8f7" stroke-linejoin="round" stroke-width=".25" d="m6.29 95.42 15.98 9.28 31.82-18.36-15.98-9.29z"/></g><g opacity=".2"><path fill="url(#K)" fill-rule="nonzero" d="M15.98 9.29 0 0v4.63l15.98 9.28z" transform="translate(38.11 66.38)"/><path fill="url(#K)" fill-rule="nonzero" stroke="#5ac8f7" stroke-linejoin="round" stroke-width=".25" d="M15.98 9.29 0 0v4.63l15.98 9.28z" transform="translate(38.11 66.38)"/><path stroke="#5ac8f7" stroke-linejoin="round" stroke-width=".25" d="m54.09 75.67-15.98-9.29v4.63l15.98 9.28z"/></g><g opacity=".2"><path fill="url(#N)" fill-rule="nonzero" d="M31.82 0 0 18.37v4.62L31.82 4.63z" transform="translate(6.29 66.38)"/><path fill="url(#N)" fill-rule="nonzero" stroke="#5ac8f7" stroke-linejoin="round" stroke-width=".25" d="M31.82 0 0 18.37v4.62L31.82 4.63z" transform="translate(6.29 66.38)"/><path stroke="#5ac8f7" stroke-linejoin="round" stroke-width=".25" d="M38.11 66.38 6.29 84.75v4.62l31.82-18.36z"/></g><g opacity=".2"><path fill="url(#F)" fill-rule="nonzero" d="m0 18.36 15.98 9.29L47.8 9.28 31.82 0z" transform="translate(6.29 71.01)"/><path fill="url(#F)" fill-rule="nonzero" stroke="#5ac8f7" stroke-linejoin="round" stroke-width=".25" d="m0 18.36 15.98 9.29L47.8 9.28 31.82 0z" transform="translate(6.29 71.01)"/><path stroke="#5ac8f7" stroke-linejoin="round" stroke-width=".25" d="m6.29 89.37 15.98 9.29 31.82-18.37-15.98-9.28z"/></g><g opacity=".2"><path fill="url(#Q)" fill-rule="nonzero" d="M0 0v4.62l15.98 9.29V9.28z" transform="translate(6.29 84.75)"/><path fill="url(#Q)" fill-rule="nonzero" stroke="#5ac8f7" stroke-linejoin="round" stroke-width=".25" d="M0 0v4.62l15.98 9.29V9.28z" transform="translate(6.29 84.75)"/><path stroke="#5ac8f7" stroke-linejoin="round" stroke-width=".25" d="M6.29 84.75v4.62l15.98 9.29v-4.63z"/></g><path fill="url(#N)" fill-rule="nonzero" d="M21.89 93v4.63l31.82-18.37v-4.62z" transform="translate(.38 1.03)"/><path fill="url(#N)" fill-rule="nonzero" stroke="url(#O)" stroke-linejoin="round" stroke-width=".25" d="M21.89 93v4.63l31.82-18.37v-4.62z" transform="translate(.38 1.03)"/><path stroke="url(#O)" stroke-linejoin="round" stroke-width=".25" d="M21.89 93v4.63l31.82-18.37v-4.62z" transform="translate(.38 1.03)"/><g opacity=".2"><path fill="url(#F)" fill-rule="nonzero" d="m0 18.37 15.98 9.28L47.8 9.29 31.82 0z" transform="translate(6.29 66.38)"/><path fill="url(#F)" fill-rule="nonzero" stroke="#5ac8f7" stroke-linejoin="round" stroke-width=".25" d="m0 18.37 15.98 9.28L47.8 9.29 31.82 0z" transform="translate(6.29 66.38)"/><path stroke="#5ac8f7" stroke-linejoin="round" stroke-width=".25" d="m6.29 84.75 15.98 9.28 31.82-18.36-15.98-9.29z"/></g><g opacity=".2"><path fill="url(#K)" fill-rule="nonzero" d="M15.98 9.28 0 0v4.63l15.98 9.28z" transform="translate(38.11 55.71)"/><path fill="url(#K)" fill-rule="nonzero" stroke="#5ac8f7" stroke-linejoin="round" stroke-width=".25" d="M15.98 9.28 0 0v4.63l15.98 9.28z" transform="translate(38.11 55.71)"/><path stroke="#5ac8f7" stroke-linejoin="round" stroke-width=".25" d="m54.09 64.99-15.98-9.28v4.63l15.98 9.28z"/></g><g opacity=".2"><path fill="url(#P)" fill-rule="nonzero" d="M31.82 0 0 18.37V23L31.82 4.63z" transform="translate(6.29 55.71)"/><path fill="url(#P)" fill-rule="nonzero" stroke="#5ac8f7" stroke-linejoin="round" stroke-width=".25" d="M31.82 0 0 18.37V23L31.82 4.63z" transform="translate(6.29 55.71)"/><path stroke="#5ac8f7" stroke-linejoin="round" stroke-width=".25" d="M38.11 55.71 6.29 74.08v4.63l31.82-18.37z"/></g><g opacity=".2"><path fill="url(#F)" fill-rule="nonzero" d="m0 18.37 15.98 9.28L47.8 9.28 31.82 0z" transform="translate(6.29 60.34)"/><path fill="url(#F)" fill-rule="nonzero" stroke="#5ac8f7" stroke-linejoin="round" stroke-width=".25" d="m0 18.37 15.98 9.28L47.8 9.28 31.82 0z" transform="translate(6.29 60.34)"/><path stroke="#5ac8f7" stroke-linejoin="round" stroke-width=".25" d="m6.29 78.71 15.98 9.28 31.82-18.37-15.98-9.28z"/></g><g opacity=".2"><path fill="url(#Q)" fill-rule="nonzero" d="M0 0v4.63l15.98 9.28V9.28z" transform="translate(6.29 74.08)"/><path fill="url(#Q)" fill-rule="nonzero" stroke="#5ac8f7" stroke-linejoin="round" stroke-width=".25" d="M0 0v4.63l15.98 9.28V9.28z" transform="translate(6.29 74.08)"/><path stroke="#5ac8f7" stroke-linejoin="round" stroke-width=".25" d="M6.29 74.08v4.63l15.98 9.28v-4.63z"/></g><path fill="url(#R)" fill-rule="nonzero" d="M21.89 82.33v4.63l31.82-18.37v-4.63z" transform="translate(.38 1.03)"/><path fill="url(#R)" fill-rule="nonzero" stroke="url(#S)" stroke-linejoin="round" stroke-width=".25" d="M21.89 82.33v4.63l31.82-18.37v-4.63z" transform="translate(.38 1.03)"/><path stroke="url(#S)" stroke-linejoin="round" stroke-width=".25" d="M21.89 82.33v4.63l31.82-18.37v-4.63z" transform="translate(.38 1.03)"/><g opacity=".2"><path fill="url(#F)" fill-rule="nonzero" d="m0 18.37 15.98 9.28L47.8 9.28 31.82 0z" transform="translate(6.29 55.71)"/><path fill="url(#F)" fill-rule="nonzero" stroke="#5ac8f7" stroke-linejoin="round" stroke-width=".25" d="m0 18.37 15.98 9.28L47.8 9.28 31.82 0z" transform="translate(6.29 55.71)"/><path stroke="#5ac8f7" stroke-linejoin="round" stroke-width=".25" d="m6.29 74.08 15.98 9.28 31.82-18.37-15.98-9.28z"/></g><g opacity=".2"><path fill="url(#M)" fill-rule="nonzero" d="M15.98 9.28 0 0v4.63l15.98 9.28z" transform="translate(38.11 45.04)"/><path fill="url(#M)" fill-rule="nonzero" stroke="#5ac8f7" stroke-linejoin="round" stroke-width=".25" d="M15.98 9.28 0 0v4.63l15.98 9.28z" transform="translate(38.11 45.04)"/><path stroke="#5ac8f7" stroke-linejoin="round" stroke-width=".25" d="m54.09 54.32-15.98-9.28v4.63l15.98 9.28z"/></g><g opacity=".2"><path fill="url(#P)" fill-rule="nonzero" d="M31.82 0 0 18.37V23L31.82 4.63z" transform="translate(6.29 45.04)"/><path fill="url(#P)" fill-rule="nonzero" stroke="#5ac8f7" stroke-linejoin="round" stroke-width=".25" d="M31.82 0 0 18.37V23L31.82 4.63z" transform="translate(6.29 45.04)"/><path stroke="#5ac8f7" stroke-linejoin="round" stroke-width=".25" d="M38.11 45.04 6.29 63.41v4.63l31.82-18.37z"/></g><g opacity=".2"><path fill="url(#F)" fill-rule="nonzero" d="m0 18.37 15.98 9.28L47.8 9.28 31.82 0z" transform="translate(6.29 49.67)"/><path fill="url(#F)" fill-rule="nonzero" stroke="#5ac8f7" stroke-linejoin="round" stroke-width=".25" d="m0 18.37 15.98 9.28L47.8 9.28 31.82 0z" transform="translate(6.29 49.67)"/><path stroke="#5ac8f7" stroke-linejoin="round" stroke-width=".25" d="m6.29 68.04 15.98 9.28 31.82-18.37-15.98-9.28z"/></g><g opacity=".2"><path fill="url(#Q)" fill-rule="nonzero" d="M0 0v4.63l15.98 9.28V9.28z" transform="translate(6.29 63.41)"/><path fill="url(#Q)" fill-rule="nonzero" stroke="#5ac8f7" stroke-linejoin="round" stroke-width=".25" d="M0 0v4.63l15.98 9.28V9.28z" transform="translate(6.29 63.41)"/><path stroke="#5ac8f7" stroke-linejoin="round" stroke-width=".25" d="M6.29 63.41v4.63l15.98 9.28v-4.63z"/></g><path fill="url(#R)" fill-rule="nonzero" d="M21.89 71.66v4.63l31.82-18.37v-4.63z" transform="translate(.38 1.03)"/><path fill="url(#R)" fill-rule="nonzero" stroke="url(#S)" stroke-linejoin="round" stroke-width=".25" d="M21.89 71.66v4.63l31.82-18.37v-4.63z" transform="translate(.38 1.03)"/><path stroke="url(#S)" stroke-linejoin="round" stroke-width=".25" d="M21.89 71.66v4.63l31.82-18.37v-4.63z" transform="translate(.38 1.03)"/><g opacity=".2"><path fill="url(#F)" fill-rule="nonzero" d="m0 18.37 15.98 9.28L47.8 9.28 31.82 0z" transform="translate(6.29 45.04)"/><path fill="url(#F)" fill-rule="nonzero" stroke="#5ac8f7" stroke-linejoin="round" stroke-width=".25" d="m0 18.37 15.98 9.28L47.8 9.28 31.82 0z" transform="translate(6.29 45.04)"/><path stroke="#5ac8f7" stroke-linejoin="round" stroke-width=".25" d="m6.29 63.41 15.98 9.28 31.82-18.37-15.98-9.28z"/></g><g opacity=".2"><path fill="url(#M)" fill-rule="nonzero" d="M15.98 9.28 0 0v4.63l15.98 9.28z" transform="translate(38.11 34.37)"/><path fill="url(#M)" fill-rule="nonzero" stroke="#5ac8f7" stroke-linejoin="round" stroke-width=".25" d="M15.98 9.28 0 0v4.63l15.98 9.28z" transform="translate(38.11 34.37)"/><path stroke="#5ac8f7" stroke-linejoin="round" stroke-width=".25" d="m54.09 43.65-15.98-9.28V39l15.98 9.28z"/></g><g opacity=".2"><path fill="url(#N)" fill-rule="nonzero" d="M31.82 0 0 18.37v4.62L31.82 4.63z" transform="translate(6.29 34.37)"/><path fill="url(#N)" fill-rule="nonzero" stroke="#5ac8f7" stroke-linejoin="round" stroke-width=".25" d="M31.82 0 0 18.37v4.62L31.82 4.63z" transform="translate(6.29 34.37)"/><path stroke="#5ac8f7" stroke-linejoin="round" stroke-width=".25" d="M38.11 34.37 6.29 52.74v4.62L38.11 39z"/></g><g opacity=".2"><path fill="url(#F)" fill-rule="nonzero" d="m0 18.36 15.98 9.29L47.8 9.28 31.82 0z" transform="translate(6.29 39)"/><path fill="url(#F)" fill-rule="nonzero" stroke="#5ac8f7" stroke-linejoin="round" stroke-width=".25" d="m0 18.36 15.98 9.29L47.8 9.28 31.82 0z" transform="translate(6.29 39)"/><path stroke="#5ac8f7" stroke-linejoin="round" stroke-width=".25" d="m6.29 57.36 15.98 9.29 31.82-18.37L38.11 39z"/></g><g opacity=".2"><path fill="url(#Q)" fill-rule="nonzero" d="M0 0v4.62l15.98 9.29V9.28z" transform="translate(6.29 52.74)"/><path fill="url(#Q)" fill-rule="nonzero" stroke="#5ac8f7" stroke-linejoin="round" stroke-width=".25" d="M0 0v4.62l15.98 9.29V9.28z" transform="translate(6.29 52.74)"/><path stroke="#5ac8f7" stroke-linejoin="round" stroke-width=".25" d="M6.29 52.74v4.62l15.98 9.29v-4.63z"/></g><path fill="url(#L)" fill-rule="nonzero" d="M21.89 60.99v4.63l31.82-18.37v-4.63z" transform="translate(.38 1.03)"/><path fill="url(#L)" fill-rule="nonzero" stroke="url(#S)" stroke-linejoin="round" stroke-width=".25" d="M21.89 60.99v4.63l31.82-18.37v-4.63z" transform="translate(.38 1.03)"/><path stroke="url(#S)" stroke-linejoin="round" stroke-width=".25" d="M21.89 60.99v4.63l31.82-18.37v-4.63z" transform="translate(.38 1.03)"/><g opacity=".2"><path fill="url(#F)" fill-rule="nonzero" d="m0 18.37 15.98 9.28L47.8 9.28 31.82 0z" transform="translate(6.29 34.37)"/><path fill="url(#F)" fill-rule="nonzero" stroke="#5ac8f7" stroke-linejoin="round" stroke-width=".25" d="m0 18.37 15.98 9.28L47.8 9.28 31.82 0z" transform="translate(6.29 34.37)"/><path stroke="#5ac8f7" stroke-linejoin="round" stroke-width=".25" d="m6.29 52.74 15.98 9.28 31.82-18.37-15.98-9.28z"/></g><g opacity=".2"><path fill="url(#M)" fill-rule="nonzero" d="M15.98 9.28 0 0v4.63l15.98 9.28z" transform="translate(38.11 23.7)"/><path fill="url(#M)" fill-rule="nonzero" stroke="#5ac8f7" stroke-linejoin="round" stroke-width=".25" d="M15.98 9.28 0 0v4.63l15.98 9.28z" transform="translate(38.11 23.7)"/><path stroke="#5ac8f7" stroke-linejoin="round" stroke-width=".25" d="M54.09 32.98 38.11 23.7v4.63l15.98 9.28z"/></g><g opacity=".2"><path fill="url(#N)" fill-rule="nonzero" d="M31.82 0 0 18.36v4.63L31.82 4.63z" transform="translate(6.29 23.7)"/><path fill="url(#N)" fill-rule="nonzero" stroke="#5ac8f7" stroke-linejoin="round" stroke-width=".25" d="M31.82 0 0 18.36v4.63L31.82 4.63z" transform="translate(6.29 23.7)"/><path stroke="#5ac8f7" stroke-linejoin="round" stroke-width=".25" d="M38.11 23.7 6.29 42.06v4.63l31.82-18.36z"/></g><g opacity=".2"><path fill="url(#T)" fill-rule="nonzero" d="m0 18.36 15.98 9.29L47.8 9.28 31.82 0z" transform="translate(6.29 28.33)"/><path fill="url(#T)" fill-rule="nonzero" stroke="#5ac8f7" stroke-linejoin="round" stroke-width=".25" d="m0 18.36 15.98 9.29L47.8 9.28 31.82 0z" transform="translate(6.29 28.33)"/><path stroke="#5ac8f7" stroke-linejoin="round" stroke-width=".25" d="m6.29 46.69 15.98 9.29 31.82-18.37-15.98-9.28z"/></g><g opacity=".2"><path fill="url(#U)" fill-rule="nonzero" d="M0 0v4.63l15.98 9.29V9.29z" transform="translate(6.29 42.06)"/><path fill="url(#U)" fill-rule="nonzero" stroke="#5ac8f7" stroke-linejoin="round" stroke-width=".25" d="M0 0v4.63l15.98 9.29V9.29z" transform="translate(6.29 42.06)"/><path stroke="#5ac8f7" stroke-linejoin="round" stroke-width=".25" d="M6.29 42.06v4.63l15.98 9.29v-4.63z"/></g><path fill="url(#L)" fill-rule="nonzero" d="M21.89 50.32v4.63l31.82-18.37v-4.63z" transform="translate(.38 1.03)"/><path fill="url(#L)" fill-rule="nonzero" stroke="url(#S)" stroke-linejoin="round" stroke-width=".25" d="M21.89 50.32v4.63l31.82-18.37v-4.63z" transform="translate(.38 1.03)"/><path stroke="url(#S)" stroke-linejoin="round" stroke-width=".25" d="M21.89 50.32v4.63l31.82-18.37v-4.63z" transform="translate(.38 1.03)"/><g opacity=".2"><path fill="url(#F)" fill-rule="nonzero" d="m0 18.36 15.98 9.29L47.8 9.28 31.82 0z" transform="translate(6.29 23.7)"/><path fill="url(#F)" fill-rule="nonzero" stroke="#5ac8f7" stroke-linejoin="round" stroke-width=".25" d="m0 18.36 15.98 9.29L47.8 9.28 31.82 0z" transform="translate(6.29 23.7)"/><path stroke="#5ac8f7" stroke-linejoin="round" stroke-width=".25" d="m6.29 42.06 15.98 9.29 31.82-18.37-15.98-9.28z"/></g><g opacity=".2"><path fill="url(#Q)" fill-rule="nonzero" d="M15.98 9.28 0 0v4.62l15.98 9.29z" transform="translate(38.11 13.03)"/><path fill="url(#Q)" fill-rule="nonzero" stroke="#5ac8f7" stroke-linejoin="round" stroke-width=".25" d="M15.98 9.28 0 0v4.62l15.98 9.29z" transform="translate(38.11 13.03)"/><path stroke="#5ac8f7" stroke-linejoin="round" stroke-width=".25" d="m54.09 22.31-15.98-9.28v4.62l15.98 9.29z"/></g><g opacity=".2"><path fill="url(#N)" fill-rule="nonzero" d="M31.82 0 0 18.36v4.63L31.82 4.62z" transform="translate(6.29 13.03)"/><path fill="url(#N)" fill-rule="nonzero" stroke="#5ac8f7" stroke-linejoin="round" stroke-width=".25" d="M31.82 0 0 18.36v4.63L31.82 4.62z" transform="translate(6.29 13.03)"/><path stroke="#5ac8f7" stroke-linejoin="round" stroke-width=".25" d="M38.11 13.03 6.29 31.39v4.63l31.82-18.37z"/></g><g opacity=".2"><path fill="url(#V)" fill-rule="nonzero" d="m0 18.37 15.98 9.29L47.8 9.29 31.82 0z" transform="translate(6.29 17.65)"/><path fill="url(#V)" fill-rule="nonzero" stroke="#5ac8f7" stroke-linejoin="round" stroke-width=".25" d="m0 18.37 15.98 9.29L47.8 9.29 31.82 0z" transform="translate(6.29 17.65)"/><path stroke="#5ac8f7" stroke-linejoin="round" stroke-width=".25" d="m6.29 36.02 15.98 9.29 31.82-18.37-15.98-9.29z"/></g><g opacity=".2"><path fill="url(#U)" fill-rule="nonzero" d="M0 0v4.63l15.98 9.29V9.29z" transform="translate(6.29 31.39)"/><path fill="url(#U)" fill-rule="nonzero" stroke="#5ac8f7" stroke-linejoin="round" stroke-width=".25" d="M0 0v4.63l15.98 9.29V9.29z" transform="translate(6.29 31.39)"/><path stroke="#5ac8f7" stroke-linejoin="round" stroke-width=".25" d="M6.29 31.39v4.63l15.98 9.29v-4.63z"/></g><path fill="url(#L)" fill-rule="nonzero" d="M21.89 39.65v4.63l31.82-18.37v-4.63z" transform="translate(.38 1.03)"/><path fill="url(#L)" fill-rule="nonzero" stroke="url(#S)" stroke-linejoin="round" stroke-width=".25" d="M21.89 39.65v4.63l31.82-18.37v-4.63z" transform="translate(.38 1.03)"/><path stroke="url(#S)" stroke-linejoin="round" stroke-width=".25" d="M21.89 39.65v4.63l31.82-18.37v-4.63z" transform="translate(.38 1.03)"/><g opacity=".2"><path fill="url(#F)" fill-rule="nonzero" d="m0 18.36 15.98 9.29L47.8 9.28 31.82 0z" transform="translate(6.29 13.03)"/><path fill="url(#F)" fill-rule="nonzero" stroke="#5ac8f7" stroke-linejoin="round" stroke-width=".25" d="m0 18.36 15.98 9.29L47.8 9.28 31.82 0z" transform="translate(6.29 13.03)"/><path stroke="#5ac8f7" stroke-linejoin="round" stroke-width=".25" d="m6.29 31.39 15.98 9.29 31.82-18.37-15.98-9.28z"/></g><path fill="url(#W)" fill-rule="nonzero" d="m0 18.33 2.79 1.5L34.53 1.5 31.94 0z" transform="translate(22.27 114.41)"/><path fill="url(#W)" fill-rule="nonzero" stroke="#5ac8f7" stroke-linejoin="round" stroke-width=".25" d="m0 18.33 2.79 1.5L34.53 1.5 31.94 0z" transform="translate(22.27 114.41)"/><path stroke="#5ac8f7" stroke-linejoin="round" stroke-width=".25" d="m22.27 132.74 2.79 1.5 31.74-18.33-2.59-1.5z"/><g opacity=".2"><path fill="url(#X)" fill-rule="nonzero" d="m0 18.33 2.59 1.5L34.33 1.5 31.74 0z" transform="translate(22.29 19.34)"/><path fill="url(#X)" fill-rule="nonzero" stroke="#5ac8f7" stroke-linejoin="round" stroke-width=".25" d="m0 18.33 2.59 1.5L34.33 1.5 31.74 0z" transform="translate(22.29 19.34)"/><path stroke="#5ac8f7" stroke-linejoin="round" stroke-width=".25" d="m22.29 37.67 2.59 1.5 31.74-18.33-2.59-1.5z"/></g><g opacity=".2"><path fill="url(#Y)" fill-rule="nonzero" d="M.02 0 0 95.07l2.79 1.5L2.61 1.5z" transform="translate(22.27 37.67)"/><path fill="url(#Y)" fill-rule="nonzero" stroke="#5ac8f7" stroke-linejoin="round" stroke-width=".25" d="M.02 0 0 95.07l2.79 1.5L2.61 1.5z" transform="translate(22.27 37.67)"/><path stroke="#5ac8f7" stroke-linejoin="round" stroke-width=".25" d="m22.29 37.67-.02 95.07 2.79 1.5-.18-95.07z"/></g><path fill="url(#Z)" fill-rule="nonzero" d="M2.59 1.5 0 0l.18 95.07 2.59 1.5z" transform="translate(54.03 19.34)"/><path fill="url(#Z)" fill-rule="nonzero" stroke="#5ac8f7" stroke-linejoin="round" stroke-width=".25" d="M2.59 1.5 0 0l.18 95.07 2.59 1.5z" transform="translate(54.03 19.34)"/><path stroke="#5ac8f7" stroke-linejoin="round" stroke-width=".25" d="m56.62 20.84-2.59-1.5.18 95.07 2.59 1.5z"/><path fill="url(#aa)" fill-rule="nonzero" d="m0 18.33.18 95.07 31.74-18.33L31.74 0z" transform="translate(24.88 20.84)"/><path fill="url(#aa)" fill-rule="nonzero" stroke="#5ac8f7" stroke-linejoin="round" stroke-width=".25" d="m0 18.33.18 95.07 31.74-18.33L31.74 0z" transform="translate(24.88 20.84)"/><path stroke="#5ac8f7" stroke-linejoin="round" stroke-width=".25" d="m24.88 39.17.18 95.07 31.74-18.33-.18-95.07z"/></g></svg>