<svg xmlns="http://www.w3.org/2000/svg" xml:space="preserve" viewBox="0 0 32 32"><path d="M30 24.6c-.6-.4-1.3-.5-2-.5s-1.4.2-2 .5-1.1.8-1.4 1.4-.5 1.3-.5 2 .2 1.4.5 2 .8 1.1 1.4 1.4 1.3.5 2 .5 1.4-.2 2-.5 1.1-.8 1.4-1.4.5-1.3.5-2-.2-1.4-.5-2-.8-1-1.4-1.4m-.2 5.2c-.5.5-1.1.7-1.7.7s-1.2-.2-1.7-.7-.7-1.1-.7-1.7c0-.7.2-1.2.7-1.7s1.1-.7 1.7-.7 1.2.2 1.7.7.7 1.1.7 1.7-.3 1.2-.7 1.7M26.1 7.3c.6.4 1.3.5 2 .5s1.4-.2 2-.5 1.1-.8 1.4-1.4c.4-.6.5-1.3.5-2s-.2-1.4-.5-2c-.4-.6-.8-1.1-1.4-1.4-.6-.4-1.3-.5-2-.5s-1.4.2-2 .5c-.6.4-1.1.9-1.4 1.5s-.5 1.3-.5 2 .2 1.4.5 2 .8 1 1.4 1.3m.2-5.1c.5-.5 1.1-.7 1.7-.7.7 0 1.2.2 1.7.7s.7 1.1.7 1.7c0 .7-.2 1.2-.7 1.7s-1.1.7-1.7.7c-.7 0-1.2-.2-1.7-.7s-.7-1.1-.7-1.7.3-1.2.7-1.7m-1.8 4.2L6.4 24.5l1 1.1 8.6-8.5 8.2 8.2 1.1-1L17 16l8.5-8.5zm-1.3 21.8c-.1-.1-.1-.2-.1-.4s0-.3.1-.4.2-.1.3-.1h.4V27c-.1 0-.2-.1-.4-.1-.5 0-.8.3-.8.8 0 .3.1.5.2.6s.3.2.6.2c.1 0 .3 0 .4-.1v-.3c-.1 0-.3.1-.4.1q-.15.15-.3 0M5.9 24.7c-.6-.4-1.3-.5-2-.5s-1.4.2-2 .5c-.6.4-1.1.8-1.4 1.4s-.5 1.3-.5 2 .2 1.4.5 2 .8 1.1 1.4 1.4 1.3.5 2 .5 1.4-.2 2-.5S7 30.6 7.3 30c.4-.6.5-1.3.5-2s-.2-1.4-.5-2c-.3-.5-.8-1-1.4-1.3m-.2 5.1c-.5.5-1.1.7-1.7.7-.7 0-1.2-.2-1.7-.7s-.7-1.1-.7-1.7.2-1.2.7-1.7 1.1-.7 1.7-.7c.7 0 1.2.2 1.7.7s.7 1.1.7 1.7-.3 1.2-.7 1.7M8.4 4.2H9l.1.4h.4L8.9 3h-.4l-.6 1.5h.4zm.3-.9.2.6h-.4zM2 7.3c.6.4 1.3.5 2 .5s1.4-.2 2-.5 1-.8 1.3-1.4c.4-.6.5-1.3.5-2S7.7 2.6 7.3 2C7 1.4 6.5.9 5.9.5 5.3.2 4.6 0 3.9 0S2.6.2 2 .5Q1.1 1.1.5 2c-.6.9-.5 1.2-.5 1.9s.2 1.4.5 2S1.4 7 2 7.3m.2-5.1c.5-.5 1.1-.7 1.7-.7.7 0 1.2.2 1.7.7s.7 1.1.7 1.7c0 .7-.2 1.2-.7 1.7-.4.5-1 .8-1.7.8s-1.2-.2-1.7-.7-.7-1.1-.7-1.8c0-.6.2-1.2.7-1.7m21.6 2.2c.1-.1.1-.2.1-.4s-.1-.3-.2-.3c.1 0 .2-.1.2-.3s0-.3-.1-.3c-.1-.1-.3-.1-.5-.1h-.5v1.6h.6c.2-.1.3-.1.4-.2m-.7-1.2h.3l.1.1s0 .1-.1.2-.1 0-.2 0h-.1zm.2 1.1h-.2v-.4h.3s.1.1.1.2 0 .1-.1.2 0-.1-.1 0" style="fill:#fff"/></svg>