<svg xmlns="http://www.w3.org/2000/svg" xml:space="preserve" id="图层_1" x="0" y="0" viewBox="0 0 32 32"><style>.st0{fill:#fff}</style><path d="M30 24.6c-.6-.4-1.3-.5-2-.5s-1.4.2-2 .5-1.1.8-1.4 1.4-.5 1.3-.5 2 .2 1.4.5 2 .8 1.1 1.4 1.4 1.3.5 2 .5 1.4-.2 2-.5 1.1-.8 1.4-1.4.5-1.3.5-2-.2-1.4-.5-2-.8-1-1.4-1.4m.8 5q-.45.75-1.2 1.2c-.5.3-1 .4-1.6.4s-1.1-.1-1.6-.4q-.75-.45-1.2-1.2c-.3-.5-.4-1-.4-1.6s.1-1.1.4-1.6q.45-.75 1.2-1.2c.5-.3 1-.4 1.6-.4s1.1.1 1.6.4q.75.45 1.2 1.2c.3.5.4 1 .4 1.6s-.1 1.2-.4 1.6M5.9 24.7c-.6-.4-1.3-.5-2-.5s-1.4.2-2 .5c-.6.4-1.1.8-1.4 1.4s-.5 1.3-.5 2 .2 1.4.5 2 .8 1.1 1.4 1.4 1.3.5 2 .5 1.4-.2 2-.5S7 30.6 7.3 30c.4-.6.5-1.3.5-2s-.2-1.4-.5-2c-.3-.5-.8-1-1.4-1.3m-.2 5.1c-.5.5-1.1.7-1.7.7-.7 0-1.2-.2-1.7-.7s-.7-1.1-.7-1.7.2-1.2.7-1.7 1.1-.7 1.7-.7c.7 0 1.2.2 1.7.7s.7 1.1.7 1.7-.3 1.2-.7 1.7" class="st0"/><path d="M28 25.6c-.7 0-1.2.2-1.7.7s-.7 1.1-.7 1.7c0 .7.2 1.2.7 1.7s1.1.7 1.7.7 1.2-.2 1.7-.7.7-1.1.7-1.7c0-.7-.2-1.2-.7-1.7-.4-.5-1-.7-1.7-.7M26.1 7.3c.6.4 1.3.5 2 .5s1.4-.2 2-.5 1.1-.8 1.4-1.4c.4-.6.5-1.3.5-2s-.2-1.4-.5-2c-.4-.6-.8-1.1-1.4-1.4-.6-.4-1.3-.5-2-.5s-1.4.2-2 .5c-.6.4-1.1.9-1.4 1.5s-.5 1.3-.5 2 .2 1.4.5 2 .8 1 1.4 1.3m.2-5.1c.5-.5 1.1-.7 1.7-.7.7 0 1.2.2 1.7.7s.7 1.1.7 1.7c0 .7-.2 1.2-.7 1.7s-1.1.7-1.7.7c-.7 0-1.2-.2-1.7-.7s-.7-1.1-.7-1.7.3-1.2.7-1.7m-2.1 4.5L16 15 7.4 6.4l-1 1.1 18.1 18.1 1-1.1L17 16l8.3-8.2zM2 7.3c.6.4 1.3.5 2 .5s1.4-.2 2-.5 1-.8 1.3-1.4c.4-.6.5-1.3.5-2S7.7 2.6 7.3 2C7 1.4 6.5.9 5.9.5 5.3.2 4.6 0 3.9 0S2.6.2 2 .5Q1.1 1.1.5 2c-.6.9-.5 1.2-.5 1.9s.2 1.4.5 2S1.4 7 2 7.3m.2-5.1c.5-.5 1.1-.7 1.7-.7.7 0 1.2.2 1.7.7s.7 1.1.7 1.7c0 .7-.2 1.2-.7 1.7-.4.5-1 .8-1.7.8s-1.2-.2-1.7-.7-.7-1.1-.7-1.8c0-.6.2-1.2.7-1.7m21 26c-.1-.1-.1-.2-.1-.4v-.1s0-.1.1-.1c.1-.1.2-.1.3-.1s.3 0 .4.1v-.5c-.1 0-.2-.1-.4-.1-.4 0-.7.2-.7.6 0 .1-.1.2-.1.4 0 .3.1.5.2.6s.3.2.6.2c.1 0 .3 0 .4-.1v-.4c-.1 0-.3.1-.4.1-.1-.1-.2-.1-.3-.2M7.9 4.7h.4l.1-.4H9l.2.4h.3l-.1-.2h.1L8.9 3h-.4l-.6 1.5zm.8-1.3.2.4h-.4zm15.1 1.2c.1-.1.1-.2.1-.4v-.1c0-.1-.1-.2-.1-.3s.1-.1.1-.2v-.1c0-.2 0-.3-.1-.3-.1-.2-.3-.2-.5-.2h-.5v1.8h.6c.2-.1.3-.1.4-.2m-.3-.4h-.4V4h.3c.1.1.1.1.1.2m-.3-.8h.2v.1h-.3z" class="st0"/></svg>