<svg xmlns="http://www.w3.org/2000/svg" xml:space="preserve" id="图层_1" x="0" y="0" viewBox="0 0 32 32"><style>.st0{fill:#fff}</style><path d="M20.5 18.6c.3-.4.6-.7.9-1.2.6-1 .8-2 .8-3.2q0-.9-.3-1.8v-.1c-.5-2-1.1-3.8-1.9-5.3-.9-1.8-2-3.2-3.4-4.4l-.2-.2v-2c0-.1-.1-.3-.2-.4s0 0-.2 0-.3.1-.4.2-.2.2-.2.4v2.3c0 .1.1.3.2.4l.4.3c1.2 1 2.3 2.4 3.1 4 .3.6.5 1.2.8 1.8-.3-.2-.5-.4-.8-.6-1-.6-2-.8-3.2-.8s-2.2.3-3.2.8-1.7 1.3-2.3 2.3-.8 2-.8 3.2.3 2.2.8 3.2c.3.4.5.8.9 1.2-.3.4-.6.7-.9 1.2-.6 1-.8 2-.8 3.2s.3 2.2.8 3.2 1.3 1.7 2.3 2.3c.8.5 1.7.7 2.6.8v1.9c0 .1.1.3.2.4s.3.3.5.3.3-.1.4-.2.2-.2.2-.4v-1.9c.9-.1 1.8-.3 2.6-.8 1-.6 1.7-1.3 2.3-2.3s.8-2 .8-3.2-.3-2.2-.8-3.2c-.3-.7-.6-1.1-1-1.4m-9-6.9c.5-.8 1.1-1.4 1.9-1.9s1.6-.7 2.6-.7c.9 0 1.8.2 2.6.7s1.4 1.1 1.9 1.9.7 1.7.7 2.6-.2 1.8-.7 2.6c-.2.4-.5.7-.7 1-.2-.2-.4-.3-.6-.4-.8-.5-1.6-.7-2.5-.8V14c.1-.1.3-.1.4-.3.1-.1.2-.2.2-.4h1.2c.2 0 .3-.1.4-.2s.2-.3.2-.4c0-.2-.1-.3-.2-.4s-.3-.2-.4-.2h-.2l.7-.5c.1-.1.2-.2.2-.4s0-.3-.1-.4-.2-.2-.4-.2-.3 0-.5.1l-1.4 1c-.2-.2-.5-.3-.8-.3s-.6.1-.8.3l-1.4-1c-.1-.1-.3-.1-.4-.1-.2 0-.3.1-.4.2s-.1.3-.1.4c0 .2.1.3.2.4l1.6 1.1c0 .4.1.7.4 1 .1.1.2.2.4.3v2.7c-.9.1-1.8.3-2.6.8-.2.1-.4.3-.6.4-.3-.3-.5-.6-.7-1-.5-.8-.7-1.7-.7-2.6s.1-1.9.6-2.6m4.5 6c.9 0 1.8.2 2.6.7.1.1.2.1.3.2-.1.1-.2.1-.3.2-.8.5-1.7.7-2.6.7s-1.8-.2-2.6-.7c-.1-.1-.2-.1-.3-.2.1-.1.2-.1.3-.2.7-.5 1.6-.7 2.6-.7m4.5 7.8c-.5.8-1.1 1.4-1.9 1.9s-1.7.7-2.6.7-1.8-.2-2.6-.7-1.4-1.1-1.9-1.9-.7-1.7-.7-2.6.2-1.8.7-2.6c.2-.4.5-.7.7-1 .2.1.4.3.6.4 1 .6 2 .8 3.2.8 1.1 0 2.2-.3 3.1-.8.2-.1.4-.3.6-.4.3.3.5.6.8 1 .5.8.7 1.7.7 2.6s-.2 1.8-.7 2.6" class="st0"/><path d="M16.4 20.9c-.1-.2-.3-.3-.5-.3s-.4.1-.5.3L13 25.1c-.1.2-.1.3 0 .5s.3.3.5.3h4.8c.2 0 .4-.1.5-.3s.1-.4 0-.5zm-1.9 3.9 1.5-2.6 1.5 2.6z" class="st0"/></svg>