<svg xmlns="http://www.w3.org/2000/svg" xml:space="preserve" viewBox="0 0 32 32"><path d="M29.8 20c-.4-1.1-1.1-2-1.9-2.8s-1.8-1.4-2.8-1.9c-.5-.2-1-.3-1.4-.4.1-.2.2-.5.4-.7.4-1.1.7-2.2.7-3.3 0-1.2-.2-2.3-.7-3.3s-1.1-2-1.9-2.8-1.8-1.4-2.8-1.9c-.8-.3-1.7-.5-2.6-.6V0h-1.5v2.2c-.9.1-1.8.3-2.6.6-1.1.4-2 1.1-2.8 1.9S8.4 6.4 8 7.5q-.6 1.65-.6 3.3c0 1.65.2 2.3.6 3.3.1.2.2.5.3.7-.5.1-1 .3-1.5.4-1.1.4-2 1.1-2.8 1.9-.8.9-1.4 1.8-1.8 2.9s-.7 2.2-.7 3.3c0 1.2.2 2.3.7 3.3s1.1 2 1.9 2.8 1.8 1.5 2.8 1.9c1 .5 2.1.7 3.3.7 1.1 0 2.2-.2 3.3-.7.9-.4 1.8-.9 2.5-1.6.7.7 1.6 1.2 2.5 1.6 1.1.4 2.2.7 3.3.7s2.2-.2 3.3-.7c1.1-.4 2-1.1 2.8-1.9s1.4-1.8 1.9-2.8.7-2.2.7-3.3-.3-2.3-.7-3.3M9.4 13.6c-.4-.9-.5-1.8-.5-2.8s.1-1.9.5-2.7c.4-.9.9-1.7 1.6-2.3.7-.7 1.5-1.2 2.3-1.6.9-.4 1.8-.5 2.8-.5.9 0 1.8.2 2.7.5s1.7.9 2.3 1.6c.7.7 1.2 1.5 1.6 2.3.4.9.5 1.8.5 2.8s-.2 1.9-.5 2.8c-.2.4-.4.8-.6 1.1h-.3q-1.8 0-3.3.6c-.9.4-1.7.9-2.5 1.6-.7-.7-1.6-1.2-2.5-1.6a9.6 9.6 0 0 0-3.3-.6H10c-.3-.5-.4-.8-.6-1.2m7.4 7c.4.9.5 1.8.5 2.7s-.2 1.9-.5 2.7c-.2.5-.5 1-.8 1.5-.3-.5-.6-.9-.8-1.5-.4-.9-.5-1.8-.5-2.7s.2-1.9.5-2.7c.2-.4.4-.8.6-1.1h.5c.2.3.4.7.5 1.1m3.9-4.4c-.6.5-1.2.9-2 1.2-.5.2-1.1.4-1.6.4.6-.5 1.2-.9 1.9-1.2.6-.2 1.2-.3 1.7-.4m-5.8 1.7c-.6-.1-1.1-.2-1.6-.4-.7-.3-1.4-.7-1.9-1.2.6.1 1.1.2 1.6.5.6.2 1.3.6 1.9 1.1m-2 12c-.9.4-1.8.5-2.8.5s-1.9-.2-2.8-.5c-.9-.4-1.7-.9-2.3-1.6-.7-.7-1.2-1.5-1.5-2.3S3 24.2 3 23.3s.2-1.9.5-2.7c.4-.9.9-1.6 1.6-2.3s1.5-1.2 2.3-1.6c.6-.2 1.2-.4 1.8-.5.2.3.4.5.7.7.8.8 1.8 1.4 2.8 1.9.5.2 1 .3 1.4.4-.1.2-.2.5-.3.7-.4 1.1-.7 2.2-.7 3.3 0 1.2.2 2.3.7 3.3.3.7.7 1.4 1.2 2-.6.7-1.3 1.1-2.1 1.4M28.5 26c-.4.9-.9 1.7-1.6 2.3-.7.7-1.5 1.2-2.3 1.6-.9.4-1.8.5-2.8.5s-1.9-.2-2.8-.5c-.8-.3-1.4-.8-2-1.3.5-.6.9-1.3 1.2-2 .4-1.1.7-2.2.7-3.3s-.3-2.3-.7-3.3c-.1-.2-.2-.5-.3-.7.5-.1 1-.3 1.5-.5 1.1-.4 2-1.1 2.8-1.9.2-.2.4-.5.6-.7.6.1 1.2.2 1.8.5.9.4 1.7.9 2.3 1.6.7.7 1.2 1.5 1.6 2.3.4.9.5 1.8.5 2.7s-.2 1.9-.5 2.7" style="fill:#fff"/></svg>