<svg xmlns="http://www.w3.org/2000/svg" xml:space="preserve" viewBox="0 0 32 32"><path d="M28.5 18.2c-.4-.9-.9-1.8-1.7-2.5-.7-.7-1.5-1.3-2.5-1.6-.5-.2-.9-.3-1.4-.4.4-.9.6-1.9.6-2.9s-.2-2-.6-2.9-.9-1.7-1.6-2.5c-.7-.7-1.5-1.3-2.5-1.6-.7-.3-1.5-.5-2.2-.5V1c0-.2-.1-.3-.2-.5-.1-.4-.2-.5-.4-.5s-.3.1-.5.2c-.1.1-.2.3-.2.5v2.2c-.8.1-1.5.2-2.2.5-.9.4-1.7.9-2.5 1.6C9.9 6.1 9.4 6.9 9 7.8s-.6 1.9-.6 2.9.2 2 .6 2.9c-.5.1-1 .2-1.4.4-.9.4-1.7.9-2.5 1.6-.7.7-1.3 1.5-1.6 2.5-.4.9-.6 1.9-.6 2.9s.2 2 .6 2.9.9 1.7 1.7 2.5c.7.7 1.5 1.3 2.5 1.7.7.3 1.5.5 2.2.5v2.7c0 .2.1.3.2.5.1.1.3.2.5.2s.3-.1.4-.2.2-.3.2-.5v-2.7c.8-.1 1.5-.2 2.3-.5.9-.4 1.7-.9 2.5-1.7l.2-.2.2.2c.7.7 1.5 1.3 2.5 1.7.7.3 1.5.5 2.3.5v2.7c0 .2.1.3.2.5.1.1.3.2.4.2.2 0 .3-.1.5-.2.1-.1.2-.3.2-.5v-2.7c.8-.1 1.5-.2 2.2-.5.9-.4 1.7-.9 2.5-1.7.7-.7 1.3-1.5 1.7-2.5.4-.9.6-1.9.6-2.9s-.6-1.9-1-2.8M9.7 10.7c0-1.1.3-2.2.8-3.1s1.3-1.7 2.3-2.3 2-.8 3.1-.8 2.2.3 3.1.8c1 .6 1.7 1.3 2.3 2.3s.8 2 .8 3.1c0 1-.2 2-.7 2.8h-.1c-1 0-2 .2-2.9.6s-1.7.9-2.5 1.6l-.2.2-.2-.2c-.7-.7-1.5-1.3-2.5-1.6-.9-.4-1.9-.6-2.9-.6H10c0-.8-.3-1.8-.3-2.8m7.1 10.4c0 1.1-.3 2-.8 3-.5-.9-.8-1.9-.8-3 0-1 .2-2 .7-2.8h.2c.4.9.7 1.8.7 2.8m3.9-6.2c-.4.5-1 .9-1.6 1.3-.7.4-1.5.7-2.3.8.4-.5 1-.9 1.5-1.3.8-.5 1.6-.7 2.4-.8m-5.5 2c-.8-.1-1.6-.4-2.3-.8-.6-.4-1.1-.8-1.6-1.3.8.1 1.6.4 2.3.8.6.4 1.1.8 1.6 1.3m-1.6 9.6c-1 .6-2 .8-3.1.8s-2.2-.3-3.1-.8-1.7-1.3-2.3-2.3-.8-2-.8-3.1.3-2.2.8-3.2c.6-1 1.3-1.7 2.3-2.3.7-.4 1.5-.7 2.3-.8.3.4.6.8 1 1.2.7.7 1.5 1.3 2.5 1.6.5.2 1 .3 1.4.4v.1c-.4.9-.6 1.9-.6 2.9s.2 2 .6 2.9c.2.4.4.8.7 1.2-.6.6-1.1 1.1-1.7 1.4m13.3-2.2c-.6 1-1.3 1.7-2.3 2.3s-2 .8-3.1.8-2.2-.3-3.1-.8c-.6-.4-1.1-.8-1.6-1.3.3-.4.5-.8.7-1.2.4-.9.6-1.9.6-2.9s-.2-2-.6-2.9v-.1c.5-.1 1-.2 1.4-.4.9-.4 1.7-.9 2.5-1.6.4-.4.7-.8 1-1.2.8.1 1.6.4 2.3.8 1 .6 1.7 1.3 2.3 2.3s.8 2 .8 3.2-.3 2-.9 3M10.5 32" style="fill:#fff"/></svg>