<svg xmlns="http://www.w3.org/2000/svg" xml:space="preserve" id="图层_1" x="0" y="0" viewBox="0 0 32 32"><style>.st0{fill:#fff}</style><path d="M8.3 23.4q-.3-.3-.3-.9c0-.5.1-.8.2-1 .2-.2.4-.3.7-.3s.6 0 .8.1v-.6c-.2-.1-.5-.1-.8-.1-.5 0-.9.1-1.2.4s-.4.7-.4 1.4.2 1.2.5 1.5c.2.2.6.4 1.2.4.3 0 .6-.1.8-.2v-.6c-.2.1-.5.1-.8.1-.4.1-.6 0-.7-.2" class="st0"/><path d="M16 3.7 2.2 27.6h27.6zm0 3 11.2 19.4H4.8z" class="st0"/><path d="M14.8 14.2c.3-.1.5-.3.5-.7 0-.3-.1-.6-.3-.7s-.5-.2-1-.2h-1.1V16h1.2c.5 0 .8-.1 1-.2.2-.2.3-.4.3-.8s-.2-.7-.6-.8m-1.2-1.1h.3c.3 0 .5 0 .6.1s.2.2.2.4-.1.3-.2.4h-.9zm1 2.3c-.1.1-.3.1-.6.1h-.4v-1h.4c.3 0 .5 0 .6.1s.2.2.2.4-.1.3-.2.4m4.6 5.4h-.9L17 24.3h.7l.3-.9h1.4l.3.9h.7zm-1 2 .5-1.4h.1l.5 1.4z" class="st0"/></svg>