<svg xmlns="http://www.w3.org/2000/svg" xml:space="preserve" id="图层_1" x="0" y="0" viewBox="0 0 32 32"><style>.st0{fill:#fff}</style><path d="M13.2 12.5 11.9 16h.7l.3-.9h1.4l.3.9h.7L14 12.5zm0 2 .5-1.4h.1l.5 1.4zm-4.9 8.9q-.3-.3-.3-.9c0-.5.1-.8.2-1 .2-.2.4-.3.7-.3s.6 0 .8.1v-.6c-.2-.1-.5-.1-.8-.1-.5 0-.9.1-1.2.4s-.4.7-.4 1.4.2 1.2.5 1.5c.2.2.6.4 1.2.4.3 0 .6-.1.8-.2v-.6c-.2.1-.5.1-.8.1-.4.1-.6 0-.7-.2m11.6-1c.3-.1.5-.4.5-.8 0-.3-.1-.5-.3-.7-.2-.1-.5-.2-1-.2H18v3.5h1.2c.5 0 .8-.1 1-.2.2-.2.3-.4.3-.8s-.2-.7-.6-.8m-1.2-1.1h.3c.3 0 .5 0 .6.1s.2.2.2.4-.1.3-.2.4-.3.1-.6.1h-.3zm1 2.3c-.1.1-.3.1-.6.1h-.4v-1h.4c.3 0 .5 0 .6.1s.2.2.2.4-.1.3-.2.4" class="st0"/><path d="M16 3.7 2.2 27.6h27.6zm0 3 11.2 19.4H4.8z" class="st0"/></svg>