<svg xmlns="http://www.w3.org/2000/svg" xml:space="preserve" id="图层_1" x="0" y="0" viewBox="0 0 32 32"><style>.st0{fill:#fff}</style><path d="M13.2 12.5 11.9 16h.7l.3-.9h1.4l.3.9h.7L14 12.5zm0 2 .5-1.4h.1l.5 1.4zm6.5 9.2c-.3 0-.6-.1-.7-.2-.2-.2-.2-.5-.2-.9 0-.5.1-.8.2-1 .2-.2.4-.3.8-.3.3 0 .5 0 .8.1v-.6c-.2-.1-.5-.1-.8-.1-.5 0-1 .1-1.2.4-.3.3-.4.7-.4 1.4s.1 1.2.4 1.5c.2.2.7.3 1.2.3.3 0 .6-.1.8-.2v-.6c-.3.1-.6.2-.9.2" class="st0"/><path d="M16 3.7 2.2 27.6h27.6zm-8.7 18v2.5h1.2c.5 0 .8-.1 1-.2.2-.2.3-.4.3-.8 0-.5-.2-.7-.6-.8.3-.1.5-.3.5-.7 0-.3-.1-.5-.3-.7-.2-.1-.5-.2-1-.2h-.5L16 6.7l11.2 19.4H4.8zm1.1 1c.3 0 .5 0 .6.1s.2.2.2.4-.1.3-.2.4-.3.1-.6.1H8v-1zm-.4-.5v-.9h.3c.3 0 .5 0 .6.1s.1.2.1.4 0 .3-.1.3-.3.1-.6.1z" class="st0"/></svg>