<svg xmlns="http://www.w3.org/2000/svg" xml:space="preserve" viewBox="0 0 32 32"><path d="M31.3 13.1q-.75-1.35-2.1-2.1c-.9-.5-1.9-.8-2.9-.8s-2 .3-2.9.8q-1.35.75-2.1 2.1v.1-.1q-.75-1.35-2.1-2.1c-.9-.5-1.9-.8-2.9-.8s-2 .3-2.9.8q-1.35.75-2.1 2.1v.1-.1q-.75-1.35-2.1-2.1c-.9-.5-1.9-.8-2.9-.8s-2 .3-2.9.8q-1.35.75-2.1 2.1C.55 14.45 0 14.9 0 16s.3 2 .8 2.9S2 20.5 2.9 21s1.9.8 2.9.8 2-.3 2.9-.8 1.6-1.2 2.1-2.1v-.1.1q.75 1.35 2.1 2.1c.5.3 1.1.5 1.7.6l.1.1.1-.1c.4.1.7.1 1.1.1 1.1 0 2-.3 2.9-.8s1.6-1.2 2.1-2.1v-.1.1q.75 1.35 2.1 2.1c1.35.75 1.9.8 2.9.8s2-.3 2.9-.8 1.6-1.2 2.1-2.1.8-1.9.8-2.9.1-1.9-.4-2.8m-2.5-.6-6 6c-.1-.1-.2-.3-.3-.4l-.3-.6 5.6-5.6.6.3c.2.1.3.2.4.3m-6.3 1.3c.4-.7.9-1.2 1.6-1.6.6-.3 1.3-.5 2-.6L22 15.7c0-.6.1-1.3.5-1.9m-8 6.2-.6-.3-.3-.3 6-6 .3.3.3.6zm4-7.6-6 6c-.1-.1-.1-.2-.2-.3-.1-.2-.2-.5-.3-.7l5.6-5.5c.2.1.5.2.7.3 0 .1.1.2.2.2m-6.2 1.4c.4-.7.9-1.2 1.6-1.6q.75-.45 1.8-.6l-3.9 3.9c0-.6.2-1.1.5-1.7m-4-1.3-6 6c-.1-.1-.2-.2-.2-.3-.1-.2-.2-.4-.3-.7l5.6-5.6.6.3zm-6.2 1.3c.4-.7.9-1.2 1.6-1.6q.9-.45 1.8-.6l-3.9 3.9c0-.5.2-1.1.5-1.7m1.3 5.7 6-6c.1.1.2.2.2.3.1.2.2.4.3.7l-5.6 5.6c-.2-.1-.4-.2-.7-.3 0-.1-.1-.2-.2-.3m6.2-1.3c-.4.7-.9 1.2-1.6 1.6-.6.3-1.2.5-1.9.6l4-4c0 .6-.2 1.2-.5 1.8m10.2 0c-.4.7-.9 1.2-1.6 1.6-.6.4-1.2.5-1.9.6l4.1-4.1c-.1.6-.3 1.3-.6 1.9m4.1 1.4 6-6 .2.2c.1.2.3.5.3.8l-5.5 5.5c-.3-.1-.5-.2-.8-.4-.1 0-.2-.1-.2-.1m6.1-1.4c-.4.7-.9 1.2-1.6 1.6-.5.3-1.1.5-1.7.6l3.8-3.8c0 .5-.2 1-.5 1.6" style="fill:#fff"/></svg>