<svg xmlns="http://www.w3.org/2000/svg" xml:space="preserve" id="图层_1" x="0" y="0" viewBox="0 0 33 32"><style>.st0{fill:#fff}</style><path d="M18.9 20.6c.3-.1.5-.3.5-.7 0-.3-.1-.6-.3-.7s-.5-.2-1-.2H17v3.5h1.2c.5 0 .8-.1 1-.2.2-.2.3-.4.3-.8q0-.75-.6-.9m-1.2-1.1h.3c.3 0 .5 0 .6.1s.2.2.2.4-.1.3-.2.4-.3.1-.6.1h-.3zm1 2.3c-.1.1-.3.1-.6.1h-.4v-1h.4c.3 0 .5 0 .6.1s.2.2.2.4-.1.3-.2.4M8.6 18.9l-1.3 3.5H8l.3-.9h1.5l.3.9h.7l-1.3-3.5zm-.1 2 .5-1.4h.1l.5 1.4z" class="st0"/><path d="m16 1.8-13.8 24h27.6zm-4 9.9c-.1.2-.1.5-.1.7 0 .7.2 1.2.5 1.4.2.2.6.4 1.2.4.3 0 .6-.1.8-.2v-.6c-.2.1-.5.1-.8.1-.4 0-.6-.1-.8-.2-.1-.2-.2-.5-.2-.9 0-.5.1-.8.2-1 .2-.2.4-.3.8-.3.3 0 .5 0 .8.1v-.6c-.2-.1-.5-.1-.8-.1-.5 0-.9.1-1.2.4L16 4.8l11.2 19.4H4.8z" class="st0"/></svg>