<svg xmlns="http://www.w3.org/2000/svg" xml:space="preserve" viewBox="0 0 32 32"><path d="M31.2 13.1q-.75-1.35-2.1-2.1c-.9-.5-1.9-.8-2.9-.8s-2 .3-2.9.8q-1.35.75-2.1 2.1v.1-.1q-.75-1.35-2.1-2.1c-.9-.5-1.9-.8-2.9-.8s-2 .3-2.9.8q-1.35.75-2.1 2.1v.1-.1q-.75-1.35-2.1-2.1c-.9-.5-1.9-.8-2.9-.8s-2 .3-2.9.8q-1.35.75-2.1 2.1C.45 14.45 0 14.9 0 16s.3 2 .8 2.9S2 20.5 2.9 21s1.9.8 2.9.8c1.1 0 2-.3 2.9-.8q1.35-.75 2.1-2.1v-.1.1q.75 1.35 2.1 2.1c.9.5 1.9.8 2.9.8 1.1 0 2-.3 2.9-.8q1.35-.75 2.1-2.1v-.1.1q.75 1.35 2.1 2.1c.9.5 1.9.8 2.9.8 1.1 0 2-.3 2.9-.8q1.35-.75 2.1-2.1C31.7 18 32 17 32 16s-.3-2-.8-2.9m-5-1.4c.8 0 1.5.2 2.2.6.1 0 .1.1.2.2L26.1 15l-2.4-2.4c.1-.1.2-.2.3-.2.7-.6 1.4-.7 2.2-.7m-10.2 0c.8 0 1.5.2 2.2.6.1 0 .1.1.2.2L16 14.9l-2.4-2.4c.1-.1.2-.2.3-.2.6-.5 1.3-.6 2.1-.6m-10.2 0c.8 0 1.5.2 2.2.6.1 0 .1.1.2.2L5.7 15l-2.4-2.4c.1-.1.2-.2.3-.2.7-.5 1.4-.7 2.2-.7m-3.7 2.1c.1-.1.2-.2.2-.3L4.7 16l-2.4 2.5c-.1-.1-.1-.2-.2-.3-.4-.7-.6-1.4-.6-2.2s.2-1.5.6-2.2m3.7 6.5c-.8 0-1.5-.2-2.2-.6l-.3-.3L5.8 17l2.5 2.5c-.1.1-.2.1-.3.2-.7.4-1.4.6-2.2.6m3.8-2.1c-.1.1-.2.2-.2.3L6.8 16l2.5-2.5.3.3c.4.7.6 1.4.6 2.2s-.2 1.5-.6 2.2m2.7-4.4c.1-.1.2-.2.2-.3l2.4 2.4-2.4 2.5c-.1-.1-.1-.2-.2-.3-.4-.7-.6-1.4-.6-2.2q0-1.05.6-2.1m3.7 6.5c-.8 0-1.5-.2-2.2-.6l-.3-.3L16 17l2.5 2.5c-.1.1-.2.1-.3.2-.7.4-1.4.6-2.2.6m3.8-2.1c-.1.1-.2.2-.2.3L17 16l2.5-2.5.3.3c.4.7.6 1.4.6 2.2-.1.8-.2 1.5-.6 2.2m2.6-4.4c.1-.1.2-.2.2-.3l2.4 2.4-2.4 2.5c-.1-.1-.1-.2-.2-.3-.4-.7-.6-1.4-.6-2.2q0-1.05.6-2.1m3.8 6.5c-.8 0-1.5-.2-2.2-.6l-.3-.3 2.4-2.5 2.5 2.5c-.1.1-.2.1-.3.2-.6.5-1.3.7-2.1.7m3.7-2.1c-.1.1-.2.2-.2.3L27.2 16l2.5-2.5c.1.1.2.2.3.4.4.7.6 1.4.6 2.2-.1.7-.3 1.4-.7 2.1" style="fill:#fff"/></svg>