<svg xmlns="http://www.w3.org/2000/svg" xml:space="preserve" id="图层_1" x="0" y="0" viewBox="0 0 32 32"><style>.st0{fill:#fff}</style><path d="m9.9 20-1.3 3.5h.7l.3-.9H11l.3.9h.7L10.8 20zm-.1 2 .5-1.4h.1l.5 1.4zm13 1.4c.3 0 .6-.1.8-.2v-.6c-.2.1-.5.2-.8.2s-.6-.1-.7-.3-.2-.5-.2-1 .1-.8.2-1c.2-.2.4-.3.8-.3.3 0 .6 0 .8.1V20c-.2-.1-.5-.1-.8-.1-.5 0-1 .1-1.2.4-.3.3-.4.7-.4 1.4s.1 1.2.4 1.4c.1.2.5.3 1.1.3m-12-12.1c.2-.2.3-.4.3-.8 0-.5-.2-.7-.6-.8.3-.1.5-.3.5-.7 0-.3-.1-.5-.3-.7-.2-.1-.5-.2-1-.2h-1v3.5h1.2c.4-.1.8-.2.9-.3M9.3 8.6h.3c.3 0 .5 0 .6.1s.2.2.2.4-.1.3-.2.4-.3.1-.6.1h-.3zm0 2.4v-1h.4c.3 0 .5 0 .6.1s.2.2.2.4-.1.3-.2.4-.3.1-.6.1z" class="st0"/><path d="M4.6 4.6v22.8h22.8V4.6zm21.3 21.3H6.1V6.1h19.8z" class="st0"/></svg>