<svg xmlns="http://www.w3.org/2000/svg" xml:space="preserve" id="图层_1" x="0" y="0" viewBox="0 0 32 32"><style>.st0{fill:#fff}</style><path d="M4.6 4.6v22.8h22.8V4.6zm21.3 21.3H6.1V6.1h19.8z" class="st0"/><path d="M21.2 10.6h1.4l.3.9h.7L22.3 8h-.9l-1.3 3.5h.7zm.6-2 .6 1.4h-1.1zm1.2 13c.3-.1.5-.3.5-.7 0-.3-.1-.6-.3-.7s-.5-.2-1-.2h-1.1v3.5h1.2c.5 0 .8-.1 1-.2.2-.2.3-.4.3-.8q0-.75-.6-.9m-1.2-1.1h.3c.3 0 .5 0 .6.1s.2.2.2.4-.1.3-.2.4-.3.1-.6.1h-.3zm1 2.3c-.1.1-.3.1-.6.1h-.4v-1h.4c.3 0 .5 0 .6.1s.2.2.2.4-.1.3-.2.4m-12.5.7c.3 0 .6 0 .8-.1v-.6c-.2.1-.5.2-.8.2-.4 0-.6-.1-.8-.3-.1-.2-.2-.5-.2-1s.1-.8.2-1c.2-.2.4-.3.8-.3.3 0 .5 0 .8.1V20c-.2-.1-.5-.1-.8-.1-.5 0-1 .1-1.2.4s-.4.7-.4 1.4.2 1.2.5 1.4c.1.3.5.4 1.1.4" class="st0"/></svg>