<svg xmlns="http://www.w3.org/2000/svg" xml:space="preserve" viewBox="0 0 32 32"><path d="M32 9.1c0-.7-.3-1.4-.8-1.9-.2-.1-.3-.2-.5-.3.2-.1.3-.2.5-.4.5-.6.8-1.2.8-1.9s-.3-1.4-.8-1.9c-.4-.4-.9-.7-1.5-.7V0h-.8v1.9c-.6.1-1.1.3-1.5.7-.5.5-.8 1.2-.8 1.9s.3 1.4.8 1.9c.2.2.3.3.5.4-.2.1-.3.2-.5.4-.5.5-.8 1.2-.8 1.9s.3 1.4.8 1.9c.2.2.3.3.5.4-.2.1-.3.2-.5.4-.5.5-.8 1.2-.8 1.9s.3 1.4.8 1.9c.2.2.3.3.5.4-.2.1-.3.2-.5.4-.5.5-.8 1.2-.8 1.9s.3 1.4.8 1.9c.2.2.3.3.5.4-.2.1-.3.2-.5.4-.5.5-.8 1.2-.8 1.9s.3 1.4.8 1.9c.2.2.3.3.5.4-.2.1-.3.2-.5.4-.5.5-.8 1.2-.8 1.9s.3 1.4.8 1.9c.4.4.9.7 1.5.8V32h.8v-1.9c.6-.1 1.1-.3 1.5-.8.5-.5.8-1.2.8-1.9s-.3-1.4-.8-1.9c-.2-.2-.3-.3-.5-.4.2-.1.3-.2.5-.4.5-.5.8-1.2.8-1.9s-.3-1.4-.8-1.9c-.2-.2-.3-.3-.5-.4.2-.1.3-.2.5-.4.5-.5.8-1.2.8-1.9s-.3-1.4-.8-1.9c-.2-.2-.3-.3-.5-.4.2-.1.3-.2.5-.4.5-.5.8-1.2.8-1.9s-.3-1.4-.8-1.9c-.2-.2-.3-.3-.5-.4.2-.1.3-.2.5-.4.5-.4.8-1 .8-1.8m-.8-4.5c0 .5-.2 1-.5 1.3s-.6.4-.9.5V2.7c.2.1.5.3.8.5.4.4.6.8.6 1.4M28 3.2c.3-.3.6-.4.9-.5v3.7c-.3-.1-.6-.2-.9-.5-.4-.4-.6-.8-.6-1.3 0-.6.2-1 .6-1.4m0 4.6c.3-.3.6-.4.9-.5V11c-.3-.1-.6-.2-.9-.5-.4-.4-.6-.8-.6-1.3s.2-1 .6-1.4m0 4.6c.3-.3.6-.4.9-.5v3.7c-.3-.1-.6-.2-.9-.5-.4-.4-.6-.8-.6-1.3s.2-1 .6-1.4m0 4.6c.3-.3.6-.4.9-.5v3.7c-.3-.1-.6-.2-.9-.5-.4-.4-.6-.8-.6-1.3 0-.6.2-1.1.6-1.4m0 4.5c.3-.3.6-.4.9-.5v3.7c-.3-.1-.6-.2-.9-.5-.4-.4-.6-.8-.6-1.3s.2-1 .6-1.4m-.6 5.9c0-.5.2-.9.6-1.3.3-.3.6-.4.9-.5v3.6c-.3-.1-.6-.2-.9-.5-.4-.3-.6-.8-.6-1.3m3.2 1.3c-.3.3-.6.4-.9.5v-3.6c.3.1.7.2.9.5.4.4.5.8.5 1.3.1.5-.1 1-.5 1.3m0-4.5c-.3.3-.6.4-.9.5V21c.3.1.7.2.9.5.4.4.5.8.5 1.3.1.6-.1 1-.5 1.4m0-4.6c-.3.3-.6.4-.9.5v-3.7c.3.1.7.2.9.5.4.4.5.8.5 1.3.1.6-.1 1-.5 1.4m0-4.6c-.3.3-.6.4-.9.5v-3.7c.3.1.7.2.9.5.4.4.5.8.5 1.3s-.1 1.1-.5 1.4m0-4.5c-.3.3-.6.4-.9.5V7.3c.3.1.7.2.9.5.4.4.5.8.5 1.3s-.1 1-.5 1.4M5.4 4.6c0-.7-.3-1.4-.8-1.9-.4-.4-.9-.7-1.5-.8V0h-.8v1.9c-.6.1-1.1.4-1.5.8-.5.5-.8 1.1-.8 1.9S.3 6 .8 6.5c.2.1.3.3.5.4-.2.1-.3.2-.5.4-.5.5-.8 1.1-.8 1.9s.3 1.4.8 1.9c.2.2.3.3.5.4-.2.1-.3.2-.5.4-.5.5-.8 1.1-.8 1.8s.3 1.4.8 1.9c.2.2.3.3.5.4-.2.1-.3.2-.5.4-.5.5-.8 1.2-.8 1.9s.3 1.4.8 1.9c.2.2.3.3.5.4-.2.1-.3.2-.5.4-.5.5-.8 1.2-.8 1.9s.3 1.4.8 1.9c.1.1.3.3.5.4-.2.1-.3.2-.5.4-.5.5-.8 1.1-.8 1.9s.3 1.4.8 1.9c.4.4.9.7 1.5.7V32h.8v-1.9c.6-.1 1.1-.3 1.5-.7.5-.5.8-1.2.8-1.9s-.3-1.4-.8-1.9c-.2-.2-.3-.3-.5-.4.2-.1.3-.2.5-.4.5-.5.8-1.2.8-1.9s-.3-1.4-.8-1.9c-.2-.2-.3-.3-.5-.4.2-.1.3-.2.5-.4.5-.5.8-1.2.8-1.9s-.3-1.4-.8-1.9c-.2-.1-.3-.3-.5-.4.2-.1.3-.2.5-.4.5-.5.8-1.2.8-1.9s-.3-1.4-.8-1.9c-.2-.2-.3-.3-.5-.4.2-.1.3-.2.5-.4.5-.5.8-1.2.8-1.9s-.3-1.3-.8-1.8c-.2-.2-.3-.3-.5-.4.2-.1.4-.2.5-.4.5-.6.8-1.2.8-1.9m-4-1.3q.45-.45.9-.6v3.7c-.3-.1-.6-.2-.9-.5C1 5.5.8 5.1.8 4.6s.2-1 .6-1.3m0 4.5c.3-.2.6-.4.9-.5V11c-.3-.1-.7-.2-.9-.5-.4-.4-.6-.8-.6-1.3s.2-1 .6-1.4m0 4.6c.3-.2.6-.4.9-.5v3.7c-.3-.1-.7-.2-.9-.5-.4-.4-.5-.8-.5-1.3s.1-1 .5-1.4m0 4.6c.3-.3.6-.4.9-.5v3.7c-.3-.1-.7-.2-.9-.5-.4-.4-.5-.8-.5-1.3-.1-.6.1-1.1.5-1.4m0 4.5c.3-.2.6-.4.9-.5v3.7c-.3-.1-.7-.2-.9-.5-.4-.4-.5-.8-.5-1.3s.1-1 .5-1.4m-.6 5.9c0-.5.2-1 .5-1.3s.6-.4.9-.5v3.7c-.2-.1-.5-.3-.8-.5-.4-.4-.6-.8-.6-1.4M4 28.8c-.3.3-.6.4-.9.5v-3.7c.3.1.7.2.9.5.4.4.5.8.5 1.3.1.6-.1 1-.5 1.4m0-4.6c-.3.3-.6.4-.9.5V21c.3.1.7.2.9.5.4.4.5.8.5 1.3.1.6-.1 1-.5 1.4m0-4.6c-.3.3-.6.4-.9.5v-3.7c.4.2.7.3.9.6.4.4.5.8.5 1.3.1.5-.1 1-.5 1.3m0-4.5c-.3.3-.6.4-.9.5v-3.7c.4.1.7.3.9.5.4.4.5.8.5 1.3.1.5-.1 1-.5 1.4m0-4.6c-.3.3-.6.4-.9.5V7.3c.4.1.7.3.9.5.4.4.5.8.5 1.3.1.6-.1 1-.5 1.4m0-4.6c-.2.3-.5.4-.9.5V2.7q.6.15.9.6c.4.4.5.8.5 1.3.1.5-.1.9-.5 1.3" style="fill:#fff"/></svg>