<svg xmlns="http://www.w3.org/2000/svg" xml:space="preserve" viewBox="0 0 32 32"><path d="M7 8.3c.3-.6.5-1.2.5-1.9S7.4 5.1 7 4.5s-.8-1-1.4-1.4c-.4-.2-.8-.3-1.3-.4V0H3.2v2.7c-.5.1-.9.2-1.3.5-.6.3-1 .8-1.4 1.4S0 5.7 0 6.4s.2 1.3.5 1.9.8 1 1.3 1.3c-.5.3-1 .8-1.3 1.3-.3.6-.5 1.3-.5 1.9 0 .7.2 1.3.5 1.9.3.5.8 1 1.3 1.3-.5.3-1 .8-1.3 1.3-.3.6-.5 1.3-.5 1.9 0 .7.2 1.3.5 1.9.3.5.8 1 1.3 1.3-.5.3-1 .8-1.3 1.3-.3.6-.5 1.2-.5 1.9s.2 1.3.5 1.9.8 1 1.4 1.4c.4.2.9.4 1.3.5v2.7h1.1v-2.7c.5-.1.9-.2 1.3-.5.6-.3 1-.8 1.4-1.4.3-.6.5-1.2.5-1.9s-.2-1.3-.5-1.9c-.3-.5-.8-1-1.3-1.3.6-.3 1-.8 1.3-1.3.3-.6.5-1.2.5-1.9s-.2-1.3-.5-1.9-.8-1-1.3-1.3c.6-.3 1-.8 1.3-1.3.3-.6.5-1.2.5-1.9s-.2-1.3-.5-1.9-.8-1-1.3-1.3c.6-.3 1-.8 1.3-1.3M1.9 4.5c.4-.4.8-.6 1.3-.7v5.1c-.5 0-.9-.3-1.3-.6-.5-.5-.7-1.2-.7-1.9s.2-1.3.7-1.9m0 6.5c.4-.4.8-.6 1.3-.7v5.1c-.5-.1-.9-.3-1.3-.7-.5-.5-.8-1.1-.8-1.9.1-.7.3-1.3.8-1.8m0 6.4c.4-.4.8-.6 1.3-.7v5.1c-.5-.1-.9-.3-1.3-.7-.5-.5-.8-1.1-.8-1.9.1-.7.3-1.3.8-1.8m-.7 8.2c0-.7.3-1.3.8-1.9.4-.4.8-.6 1.3-.7v5.2c-.5-.1-.9-.3-1.3-.7-.6-.6-.8-1.2-.8-1.9m4.4 1.9c-.4.4-.8.6-1.3.7V23c.5.1.9.3 1.3.7.5.5.8 1.1.8 1.9 0 .7-.2 1.3-.8 1.9m0-6.4c-.4.4-.8.6-1.3.7v-5.1c.5.1.9.3 1.3.7.5.5.8 1.1.8 1.9 0 .6-.2 1.3-.8 1.8m0-6.4c-.4.4-.8.6-1.3.7v-5.1c.5.1.9.3 1.3.7.5.5.8 1.1.8 1.9 0 .6-.2 1.3-.8 1.8m0-6.4c-.3.3-.8.6-1.3.7V3.8c.5.1.9.3 1.3.7.5.5.8 1.1.8 1.9 0 .7-.2 1.4-.8 1.9m25.9 6.4c.3-.6.5-1.2.5-1.9s-.2-1.3-.5-1.9-.8-1-1.3-1.3c.6-.3 1-.8 1.3-1.3.3-.6.5-1.2.5-1.9s-.2-1.3-.5-1.9-.8-1-1.4-1.4c-.4-.2-.9-.4-1.3-.5V0h-1.1v2.7c-.5.1-.9.2-1.3.5-.6.3-1 .8-1.4 1.4s-.5 1.2-.5 1.9.2 1.3.5 1.9.8 1 1.3 1.3c-.5.3-1 .8-1.3 1.3-.3.6-.5 1.2-.5 1.9s.2 1.3.5 1.9c.3.5.8 1 1.3 1.3-.5.3-1 .8-1.3 1.3-.3.6-.5 1.2-.5 1.9s.2 1.3.5 1.9c.3.5.8 1 1.3 1.3-.5.3-1 .8-1.3 1.3-.3.6-.5 1.2-.5 1.9s.2 1.3.5 1.9.8 1 1.4 1.4c.4.2.9.4 1.3.5V32h1.1v-2.7c.5-.1.9-.2 1.3-.5.6-.3 1-.8 1.4-1.4.3-.6.5-1.2.5-1.9s-.2-1.3-.5-1.9c-.3-.5-.8-1-1.3-1.3.6-.3 1-.8 1.3-1.3.3-.6.5-1.2.5-1.9s-.2-1.3-.5-1.9-.8-1-1.3-1.3c.5-.2.9-.6 1.3-1.2m-.7-8.3c0 .7-.3 1.3-.8 1.9-.4.4-.8.6-1.3.7V3.8c.5.1.9.3 1.3.7.6.6.8 1.2.8 1.9m-4.4-1.9c.4-.4.8-.6 1.3-.7v5.1c-.5-.1-.9-.3-1.3-.7-.5-.5-.8-1.1-.8-1.9 0-.6.2-1.2.8-1.8m0 6.5c.4-.4.8-.6 1.3-.7v5.1c-.5-.1-.9-.3-1.3-.7-.5-.5-.8-1.1-.8-1.9 0-.7.2-1.3.8-1.8m0 6.4c.4-.4.8-.6 1.3-.7v5.1c-.5-.1-.9-.3-1.3-.7-.5-.5-.8-1.1-.8-1.9 0-.7.2-1.3.8-1.8m-.8 8.2c0-.7.3-1.3.8-1.9.4-.4.8-.6 1.3-.7v5.2c-.5-.1-.9-.3-1.3-.7-.6-.6-.8-1.2-.8-1.9m4.5 1.9c-.4.4-.8.6-1.3.7V23c.5.1.9.3 1.3.7.5.5.8 1.1.8 1.9-.1.7-.3 1.3-.8 1.9m0-6.4c-.4.4-.8.6-1.3.7v-5.1c.5.1.9.3 1.3.7.5.5.8 1.1.8 1.9-.1.6-.3 1.3-.8 1.8m0-6.4c-.4.4-.8.6-1.3.7v-5.1c.5.1.9.3 1.3.7.5.5.8 1.1.8 1.9-.1.6-.3 1.3-.8 1.8" style="fill:#fff"/></svg>