<svg xmlns="http://www.w3.org/2000/svg" xml:space="preserve" viewBox="0 0 34 32"><path d="M7.5 11.6c-.6-.3-1.1-.5-1.8-.6V7.4H4.2V11q-.9.15-1.8.6-1.2.75-1.8 1.8C.2 14.2 0 15 0 16s.2 1.7.7 2.5c.4.8 1.1 1.4 1.8 1.8.6.3 1.1.5 1.8.6v3.7h1.5v-3.7q.9-.15 1.8-.6 1.2-.75 1.8-1.8c.6-1.05.6-1.6.6-2.5s-.2-1.7-.7-2.5-1-1.4-1.8-1.9M2 17.7c-.3-.5-.5-1.1-.5-1.8 0-.6.2-1.2.5-1.8.3-.5.7-1 1.3-1.3.3-.2.7-.3 1-.4v6.8c-.3-.1-.7-.2-1-.4-.6-.1-1-.6-1.3-1.1m6 0c-.3.5-.7 1-1.3 1.3-.3.2-.7.3-1 .4v-6.8c.3.1.7.2 1 .4.5.3 1 .7 1.3 1.3.3.5.5 1.1.5 1.8 0 .5-.2 1.1-.5 1.6m24.8-4.2c-.4-.8-1.1-1.4-1.8-1.8-.6-.3-1.1-.5-1.8-.6V7.4h-1.5V11q-.9.15-1.8.6-1.2.75-1.8 1.8c-.6 1.05-.6 1.6-.6 2.6s.2 1.7.7 2.5 1.1 1.4 1.8 1.8c.6.3 1.1.5 1.8.6v3.7h1.5v-3.7q.9-.15 1.8-.6 1.2-.75 1.8-1.8c.6-1.05.7-1.6.7-2.5s-.3-1.8-.8-2.5m-7.3 4.2c-.3-.5-.5-1.1-.5-1.7s.2-1.2.5-1.8.7-1 1.3-1.3c.3-.2.7-.3 1-.4v6.8c-.3-.1-.7-.2-1-.4-.6-.2-1-.7-1.3-1.2m6 0c-.3.5-.7 1-1.3 1.3-.3.2-.7.3-1 .4v-6.8c.3.1.7.2 1 .4.5.3 1 .7 1.3 1.3s.5 1 .5 1.7-.2 1.2-.5 1.7" style="fill:#fff"/></svg>