<svg xmlns="http://www.w3.org/2000/svg" xml:space="preserve" viewBox="0 0 32 32"><path d="M23.4 15.6c-.1-.2-.3-.3-.5-.3s-.4 0-.6.1l-2.9 2-1.9-1.3 3-2.1c.2-.1.3-.3.3-.5s0-.4-.1-.6-.3-.3-.5-.3-.4 0-.6.1l-3.1 2.2c-.1-.1-.2-.2-.4-.2v-3L19 9.6c.2-.1.3-.3.3-.5s0-.4-.1-.6-.3-.3-.5-.3-.4 0-.6.1l-2.9 2-2.9-2c-.2-.1-.3-.1-.5-.1s-.4.1-.5.3-.2.4-.1.6.1.4.3.5l3 2.1v3c-.1.1-.3.2-.4.3-.3.3-.5.8-.5 1.2v.2l-1.3.9-2.9-2c-.2-.1-.4-.1-.6-.1s-.4.1-.5.3-.2.4-.1.6.1.4.3.5l3 2.1V23c0 .2.1.4.2.5s.3.2.5.2.4-.1.5-.2.2-.3.2-.5v-4.3l1.4-1c.3.2.6.2.9.2.5 0 .9-.2 1.2-.5 0 0 0-.1.1-.1l1.9 1.3V23c0 .2.1.4.2.5s.3.2.5.2.4-.1.5-.2.2-.3.2-.5v-4.3l2.9-2.1c.2-.1.3-.3.3-.5.5-.2.5-.4.4-.5" style="fill:#fff"/></svg>