<svg xmlns="http://www.w3.org/2000/svg" xml:space="preserve" viewBox="0 0 32 32"><path d="M19.2 16.5c.1-.1.2-.3.2-.5s-.1-.4-.2-.5-.3-.2-.5-.2h-1l-.2-.2c-.2-.2-.4-.3-.6-.4v-1.5l2-1.4c.2-.1.3-.3.3-.5s0-.4-.1-.6-.3-.3-.5-.3-.4 0-.5.1L15.9 12l-.1.1c-.1 0-.1.1-.2.1-.1.2-.2.3-.2.5v2c-.1.1-.2.2-.4.3-.3.3-.5.7-.5 1.2l-.6.4-1.7-1.2c-.2-.1-.3-.2-.5-.1s-.4.1-.5.3c-.2.2-.3.4-.2.6 0 .2.1.4.3.5l2.1 1.5.1.1c.1 0 .2.1.3.1s.2 0 .3-.1h.1s.1 0 .1-.1l.8-.6c.3.3.7.4 1.1.4s.7-.1 1-.3l.4.3v2.8c0 .2.1.4.2.5s.3.2.5.2.4-.1.5-.2.2-.3.2-.5v-3.2c0-.2-.1-.4-.2-.5l-.1-.1s0-.1-.1-.1l-.3-.2h.1c.4.1.6 0 .8-.2" style="fill:#fff"/></svg>