<svg xmlns="http://www.w3.org/2000/svg" xml:space="preserve" id="图层_1" x="0" y="0" viewBox="0 0 32 32"><style>.st0{fill:#fff}</style><path d="M18.2 18.1h-5.9V18l5.5-6.9V9.4h-7.5v1.7h5.1v.1L10 18v1.8h8.2z" class="st0"/><path d="M17.6 22.5c.4.1.7.1 1.1.1 1.1 0 1.9-.3 2.5-.9s.9-1.4.9-2.5V9.4h-2v9.8c0 .6-.1 1.1-.3 1.4s-.6.5-1.2.5c-.2 0-.6 0-1-.1z" class="st0"/><path d="M26.7 5.3H5.3v21.3h21.3V5.3zm-1.5 19.9H6.8V6.8h18.3v18.4z" class="st0"/><path d="M0 0v32h32V0zm30.5 30.5h-29v-29h29z" class="st0"/></svg>