<svg xmlns="http://www.w3.org/2000/svg" xml:space="preserve" id="图层_1" x="0" y="0" viewBox="0 0 32 32"><style>.st0{fill:#fff}</style><path d="m8.8 8.3-2.1-.1v15.9h2.1zm3.6 5.4 1.8 1.4h-.3V26H16v-1.2h6.1V26h2.1V15.1h-3.6l1.3-1.5c-.7-1-1.5-1.9-2.4-2.8h5.9V8.6h-7.6c.3-.8.6-1.5.8-2.2l-2.2-.7c-.4 1.2-.9 2.6-1.6 4s-1.4 2.7-2.3 3.8V6.4l-2.2-.1v20h2.2V13.7zm5.6 9.2h-2v-5.7h2zm4.1-5.7v5.7H20v-5.7zm-5.3-6.4h1.9l-1.1 1c.3.4.8.9 1.3 1.5.6.6 1 1.2 1.5 1.8h-6.1c.8-1.2 1.6-2.6 2.5-4.3" class="st0"/><path d="M0 0v32h32V0zm30.5 30.5h-29v-29h28.9v29z" class="st0"/></svg>