<svg xmlns="http://www.w3.org/2000/svg" xml:space="preserve" viewBox="0 0 32 32"><path d="M30.7 9.8c-.8-1.9-2-3.6-3.4-5.1-1.5-1.5-3.2-2.6-5.1-3.4-2-.8-4-1.2-6.2-1.2s-4.2.4-6.2 1.2c-1.9.8-3.6 2-5.1 3.4-1.5 1.5-2.6 3.2-3.4 5-.8 2-1.2 4.1-1.2 6.2s.4 4.2 1.2 6.2c.8 1.9 2 3.6 3.4 5.1s3.2 2.6 5.1 3.4c2 .8 4 1.2 6.2 1.2 2.1 0 4.2-.4 6.2-1.2 1.9-.8 3.6-2 5-3.4 1.5-1.5 2.6-3.2 3.4-5 .8-2 1.2-4.1 1.2-6.2s-.3-4.2-1.1-6.2m-1.3 11.9c-.8 1.7-1.8 3.3-3.1 4.6s-2.9 2.4-4.6 3.1c-1.8.8-3.7 1.1-5.7 1.1s-3.8-.4-5.7-1.1c-1.7-.8-3.3-1.8-4.6-3.1s-2.4-2.9-3.1-4.6C1.9 19.8 1.5 18 1.5 16s.4-3.8 1.1-5.7C3.4 8.6 4.4 7 5.7 5.7s2.9-2.4 4.6-3.1c1.9-.7 3.7-1.1 5.7-1.1s3.8.4 5.7 1.1c1.7.8 3.3 1.8 4.6 3.1s2.4 2.9 3.1 4.6c.8 1.8 1.1 3.7 1.1 5.7s-.4 3.8-1.1 5.7" style="fill:#fff"/></svg>