<svg xmlns="http://www.w3.org/2000/svg" xml:space="preserve" id="图层_1" x="0" y="0" viewBox="0 0 32 32"><style>.st0{fill:#fff}</style><path d="M21.2 13c-.5-1-1.2-1.7-2.2-2.3-.7-.4-1.5-.7-2.3-.8V6.4h-1.5v5h.8c.8 0 1.6.2 2.3.6s1.3 1 1.7 1.7q.45.75.6 1.5H2.7v1.5h17.8c-.1.5-.3 1.1-.6 1.5-.4.7-1 1.2-1.7 1.7s-1.5.6-2.3.6h-.8v5h1.5V22c.8-.1 1.6-.4 2.3-.8.9-.6 1.7-1.3 2.2-2.2.4-.7.7-1.5.8-2.3h7.3v-1.5H22c-.1-.8-.3-1.5-.8-2.2" class="st0"/><path d="M30.7 9.8c-.8-1.9-2-3.6-3.4-5.1-1.5-1.5-3.2-2.6-5.1-3.4-2-.9-4-1.3-6.2-1.3s-4.2.4-6.2 1.2c-1.9.8-3.6 2-5.1 3.4-1.5 1.6-2.6 3.3-3.4 5.2-.9 2-1.3 4-1.3 6.2s.4 4.2 1.2 6.2c.8 1.9 2 3.6 3.4 5.1 1.5 1.5 3.2 2.6 5.1 3.4 2 .8 4.1 1.2 6.2 1.2s4.2-.4 6.2-1.2c1.9-.8 3.6-2 5.1-3.4s2.6-3.2 3.4-5.1c.8-2 1.2-4.1 1.2-6.2.2-2.2-.2-4.2-1.1-6.2m-1.4 11.8c-.7 1.7-1.8 3.3-3.1 4.6s-2.9 2.4-4.6 3.1c-1.8.8-3.7 1.1-5.6 1.1s-3.8-.4-5.6-1.1c-1.7-.7-3.3-1.8-4.6-3.1s-2.4-2.9-3.1-4.6C1.9 19.8 1.5 18 1.5 16s.4-3.8 1.1-5.6c.8-1.8 1.8-3.3 3.1-4.6s2.9-2.4 4.6-3.1c1.9-.8 3.7-1.2 5.7-1.2s3.8.4 5.6 1.1c1.7.7 3.3 1.8 4.6 3.1s2.4 2.9 3.1 4.6c.8 1.8 1.1 3.7 1.1 5.6s-.3 3.9-1.1 5.7" class="st0"/></svg>