<svg xmlns="http://www.w3.org/2000/svg" xml:space="preserve" id="图层_1" x="0" y="0" viewBox="0 0 34 32"><style>.st0{fill:#fff}</style><path d="M13.3 23.3h1.5v.6h-1.5zm-2.6-11.2h1.5v.6h-1.5zm0 1.2h1.5v.6h-1.5zm0 1.3h1.5v.6h-1.5zm0-3.8h1.5v.6h-1.5zm0-3.7h1.5v.6h-1.5zm2.6 15h1.5v.6h-1.5zM10.7 8.3h1.5v.6h-1.5zm0 1.3h1.5v.6h-1.5zm0 6.2h1.5v.6h-1.5zM8 8.3h1.5v.6H8zm2.7 13.8h1.5v.6h-1.5zm0-5h1.5v.6h-1.5zM8 9.6h1.5v.6H8zm2.7 13.7h1.5v.6h-1.5zm0-5h1.5v.6h-1.5zm0 2.5h1.5v.6h-1.5zm0-1.2h1.5v.6h-1.5zm5.3 3.7h1.5v.6H16zm0-1.2h1.5v.6H16zm0-1.3h1.5v.6H16zm-8-10h1.5v.6H8zm5.3 10h1.5v.6h-1.5zm2.7-1.2h1.5v.6H16zm0-3.8h1.5v.6H16zm0 1.3h1.5v.6H16zm0 1.2h1.5v.6H16zm-2.7-10h1.5v.6h-1.5zm0-1.2h1.5v.6h-1.5zm0 10h1.5v.6h-1.5zm0 1.2h1.5v.6h-1.5zm0-2.5h1.5v.6h-1.5zm0 3.8h1.5v.6h-1.5zm0-10h1.5v.6h-1.5zm0 2.5h1.5v.6h-1.5zm0 2.5h1.5v.6h-1.5zm0-3.8h1.5v.6h-1.5zm0 2.5h1.5v.6h-1.5zm-5.3 0h1.5v.6H8zM2.7 9.6h1.5v.6H2.7zm0-1.3h1.5v.6H2.7zm0 2.5h1.5v.6H2.7zm0-3.7h1.5v.6H2.7zm2.6 16.2h1.5v.6H5.3zm0-3.7h1.5v.6H5.3zm-2.6-7.5h1.5v.6H2.7zm2.6 8.7h1.5v.6H5.3zm0-2.5h1.5v.6H5.3zm0 3.8h1.5v.6H5.3zm-2.6-1.3h1.5v.6H2.7zm0-1.2h1.5v.6H2.7zm0 2.5h1.5v.6H2.7zm0 1.2h1.5v.6H2.7zm0-7.5h1.5v.6H2.7zm0-1.2h1.5v.6H2.7zm0-1.3h1.5v.6H2.7zm0 3.8h1.5v.6H2.7zm0 1.2h1.5v.6H2.7zm5.3 0h1.5v.6H8zm0-6.2h1.5v.6H8zm0 7.5h1.5v.6H8zm-2.7-2.5h1.5v.6H5.3zm2.7 5h1.5v.6H8zm0-6.3h1.5v.6H8zm8-1.2h1.5v.6H16zm-8 2.5h1.5v.6H8zm0-2.5h1.5v.6H8zm0 8.7h1.5v.6H8zm0-2.5h1.5v.6H8zm-2.7-7.5h1.5v.6H5.3zm0 1.3h1.5v.6H5.3zm0 1.2h1.5v.6H5.3zm0-3.7h1.5v.6H5.3zm0-2.5h1.5v.6H5.3zm0 1.2h1.5v.6H5.3zm0-2.5h1.5v.6H5.3zm0-1.2h1.5v.6H5.3zm2.7 0h1.5v.6H8zm18.7 10h1.5v.6h-1.5zm0-6.3h1.5v.6h-1.5zm0 8.8h1.5v.6h-1.5zm0 1.2h1.5v.6h-1.5zm0-8.7h1.5v.6h-1.5zm0 3.7h1.5v.6h-1.5zm0-2.5h1.5v.6h-1.5zm0 8.8h1.5v.6h-1.5zm0-7.5h1.5v.6h-1.5zm0 3.7h1.5v.6h-1.5zM24 17.1h1.5v.6H24zm0-5h1.5v.6H24zm0 2.5h1.5v.6H24zm0 1.2h1.5v.6H24zm0-2.5h1.5v.6H24zm0-5h1.5v.6H24zm0-1.2h1.5v.6H24zm0 2.5h1.5v.6H24zm0 1.2h1.5v.6H24zm2.7 12.5h1.5v.6h-1.5zm2.6-10h1.5v.6h-1.5zm0-2.5h1.5v.6h-1.5zm0 1.3h1.5v.6h-1.5zm0 2.5h1.5v.6h-1.5zm0-5h1.5v.6h-1.5zm0-2.5h1.5v.6h-1.5zm0 8.7h1.5v.6h-1.5z" class="st0"/><path d="M0 5.4v21.2h33.5V5.4zm32 2.3v16.7h-1.2v-.5h-1.5v.5h-1.2v-.5h-1.5v.5h-1.2v-.5H24v.5h-1.2v-.5h-1.5v.5h-1.2v-.5h-1.5v.5h-1.2v-.5H16v.5h-1.2v-.5h-1.5v.5h-1.2v-.5h-1.5v.5H9.5v-.5H8v.5H6.8v-.5H5.3v.5H4.2v-.5H2.7v.5H1.5V6.9H32z" class="st0"/><path d="M29.3 8.3h1.5v.6h-1.5zm0 8.8h1.5v.6h-1.5zm0 5h1.5v.6h-1.5zm-2.6-15h1.5v.6h-1.5zm2.6 16.2h1.5v.6h-1.5zm-2.6-15h1.5v.6h-1.5zm0 1.3h1.5v.6h-1.5zm2.6 8.7h1.5v.6h-1.5zm0 1.3h1.5v.6h-1.5zm0 1.2h1.5v.6h-1.5zM18.7 8.3h1.5v.6h-1.5zm0 7.5h1.5v.6h-1.5zm0-1.2h1.5v.6h-1.5zm5.3 3.7h1.5v.6H24zm-5.3-1.2h1.5v.6h-1.5zm0-5h1.5v.6h-1.5zM16 13.3h1.5v.6H16zm2.7-3.7h1.5v.6h-1.5zm0-2.5h1.5v.6h-1.5zm0 11.2h1.5v.6h-1.5zm0-7.5h1.5v.6h-1.5zm-2.7 0h1.5v.6H16zm0-2.5h1.5v.6H16zm0 1.3h1.5v.6H16zm0 2.5h1.5v.6H16zm2.7 8.7h1.5v.6h-1.5zm0 1.3h1.5v.6h-1.5zM16 7.1h1.5v.6H16zm2.7 12.5h1.5v.6h-1.5zm0 3.7h1.5v.6h-1.5zm0-10h1.5v.6h-1.5zm2.6-3.7h1.5v.6h-1.5zm0-2.5h1.5v.6h-1.5zm0 1.2h1.5v.6h-1.5zm0 2.5h1.5v.6h-1.5zm2.7 8.8h1.5v.6H24zm-2.7-7.5h1.5v.6h-1.5zM24 23.3h1.5v.6H24zm0-2.5h1.5v.6H24zm0 1.3h1.5v.6H24zm-2.7-5h1.5v.6h-1.5zm0-3.8h1.5v.6h-1.5zm0 7.5h1.5v.6h-1.5zm0-2.5h1.5v.6h-1.5zm0 3.8h1.5v.6h-1.5zm0-2.5h1.5v.6h-1.5zm0-5h1.5v.6h-1.5zm0 1.2h1.5v.6h-1.5zm0 7.5h1.5v.6h-1.5z" class="st0"/></svg>