<svg xmlns="http://www.w3.org/2000/svg" xml:space="preserve" id="图层_1" x="0" y="0" viewBox="0 0 32 32"><style>.st0{fill:#fff}</style><path d="M25.5 14.4c-.4 0-.8.2-1.1.5s-.5.7-.5 1.1.2.8.5 1.1.7.5 1.1.5.8-.2 1.1-.5.5-.7.5-1.1-.2-.8-.5-1.1-.7-.5-1.1-.5" class="st0"/><path d="M32 15.2h-1.5V8.7h-29v6.6H0v1.5h1.5v6.6h29v-6.6H32zm-29-5h26v5.1h-.5c-.1-.3-.2-.5-.3-.8-.3-.5-.7-.8-1.1-1.1s-1-.4-1.5-.4-1.2 0-1.6.3-.8.7-1.1 1.1c-.2.3-.3.5-.3.8h-1.4v-2.8H3.9v2.8H3zm24.7 6.6q-.15.45-.6.9c-.5.5-1 .7-1.7.7s-1.2-.2-1.7-.7-.7-1-.7-1.7.2-1.2.7-1.7 1-.7 1.7-.7 1.2.2 1.7.7c.3.3.4.6.6.9h-.4v1.5h.4zm1.3 5H3v-5.1h.9v2.8h17.2v-2.8h1.4c.1.3.2.5.3.8.3.5.7.8 1.1 1.1s1 .4 1.5.4 1.1-.1 1.5-.4.8-.7 1.1-1.1c.2-.3.3-.5.3-.8h.7z" class="st0"/></svg>