<svg xmlns="http://www.w3.org/2000/svg" xml:space="preserve" id="图层_1" x="0" y="0" viewBox="0 0 32 32"><style>.st0{fill:#fff}</style><path d="M6.5 23.9h19.1v1.3H6.5zM16.7 1.7h-1.3v16.6H4.6v1.3h22.9v-1.3H16.7z" class="st0"/><path d="M30.7 9.8c-.8-1.9-2-3.6-3.4-5.1-1.5-1.5-3.2-2.6-5.1-3.4C20.2.4 18.1 0 16 0s-4.2.4-6.2 1.2c-1.9.8-3.6 2-5.1 3.4S2.1 7.8 1.2 9.8C.4 11.7 0 13.8 0 16s.4 4.2 1.2 6.2c.8 1.9 2 3.6 3.4 5.1s3.2 2.6 5.1 3.4c2 .8 4.1 1.2 6.2 1.2s4.2-.4 6.2-1.2c1.9-.8 3.6-2 5.1-3.4 1.5-1.5 2.6-3.2 3.4-5.1.8-2 1.2-4.1 1.2-6.2s-.3-4.3-1.1-6.2m-1.2 11.9c-.8 1.8-1.8 3.3-3.2 4.7s-2.9 2.4-4.7 3.2c-.6.3-1.2.4-1.9.6v-.5h-7.6v.5c-.6-.2-1.3-.4-1.9-.6-1.8-.8-3.3-1.8-4.7-3.2s-2.4-2.9-3.1-4.7Q1.2 19 1.2 16c0-3 .4-3.9 1.2-5.7S4.3 7 5.6 5.6s2.9-2.4 4.7-3.1Q13 1.3 16 1.3t5.7 1.2c1.8.7 3.3 1.8 4.7 3.1s2.4 2.9 3.2 4.7 1.1 3.7 1.1 5.7-.5 3.8-1.2 5.7" class="st0"/></svg>