<svg xmlns="http://www.w3.org/2000/svg" xml:space="preserve" id="图层_1" x="0" y="0" viewBox="0 0 32 32"><style>.st0{fill:#fff}</style><path d="M13.3 11.8h11v1.8h-11zM13.1 26h2.2v-1.1h7V26h2.2v-7.6H13.1zm2.3-5.6h7V23h-7zm-2.1-5.3h11V17h-11z" class="st0"/><path d="M0 0v32h32V0zm30.5 30.5h-29v-29h28.9v29z" class="st0"/><path d="m8.5 15.6.3-.6v11.1H11V10.8c.6-1.4 1.1-2.8 1.5-4.3l-2.2-.6c-.4 1.6-1.1 3.3-2 5.2-.9 1.7-1.7 3.2-2.6 4.5l1.6 1.8q.45-.6 1.2-1.8" class="st0"/><path d="M12.2 8.3v2.1h14.1V8.3h-6c-.1-.4-.3-.8-.5-1.5l-.2-.8-2.3.3.6 1.9h-5.7z" class="st0"/></svg>