<svg xmlns="http://www.w3.org/2000/svg" xml:space="preserve" id="图层_1" x="0" y="0" viewBox="0 0 32 32"><style>.st0{fill:#fff}</style><path d="M14.4 19v1.8h3.8V23c0 .4-.1.6-.2.7-.2.1-.5.2-1 .2l-1.6.1.6 2 1.4-.1q1.2-.15 1.8-.3c.4-.1.7-.4.9-.7s.2-.8.2-1.4v-2.8h3.2V19z" class="st0"/><path d="M12.1 15.9v4h2v-2.3h9.7v2.3h2.1v-4zM9 15.1V26h2V11c.4-1 .9-2.5 1.5-4.6L10.4 6c-.5 1.7-1.2 3.5-2 5.3-.8 1.6-1.6 3.1-2.5 4.4l1.5 1.9c.5-.9 1.1-1.7 1.6-2.5" class="st0"/><path d="M0 0v32h32V0zm30.5 30.5h-29v-29h28.9v29z" class="st0"/><path d="M13.6 10.7v4.2h10.8v-4.2zm8.7 2.7h-6.7v-1.2h6.7zm3.8-5.5h-5.7L19.8 6l-2.2.3.5 1.6h-5.4v1.7h13.4z" class="st0"/></svg>