<svg xmlns="http://www.w3.org/2000/svg" xml:space="preserve" id="图层_1" x="0" y="0" viewBox="0 0 32 32"><style>.st0{fill:#fff}</style><path d="M32 15.2h-7.3c-.1-.9-.3-1.8-.6-2.6-.4-1.1-1.1-2-1.9-2.8s-1.8-1.5-2.8-1.9-2.2-.7-3.4-.7-2.3.2-3.3.7-2 1.1-2.8 1.9-1.5 1.8-1.9 2.8c-.3.8-.5 1.7-.6 2.6H0v1.5h7.3c.1.9.3 1.8.6 2.6.4 1.1 1.1 2 1.9 2.8s1.8 1.5 2.8 1.9 2.2.7 3.3.7 2.3-.2 3.3-.7 2-1.1 2.8-1.9 1.5-1.8 1.9-2.8c.3-.8.5-1.7.6-2.6H32zm-22.7-2c.4-.9.9-1.7 1.6-2.4s1.5-1.2 2.3-1.6c.9-.3 1.8-.4 2.8-.4s1.9.2 2.8.5c.9.4 1.7.9 2.3 1.6s1.2 1.5 1.6 2.3c.3.7.4 1.3.5 2h-3.3l.2-4.8-3.4 4.8h-1.1l.2-6.4-4.1 5.8 1.2.4-.1.2h-4c.1-.6.2-1.3.5-2m8.3 2 1.6-2.3-.1 2.3zm-4.4-.8-.3-.1 2.1-2.9-.1 3.6-.3-.1zm9.5 4.4c-.4.9-.9 1.7-1.6 2.4s-1.5 1.2-2.3 1.6-1.8.4-2.8.4-1.9-.2-2.8-.5-1.7-.9-2.4-1.6-1.2-1.5-1.6-2.3c-.3-.7-.4-1.3-.5-2h3.6l-1.3 4 1.4.5 1.5-4.5h3.2l-1.9 5.6 1.4.5 1.9-5.7 1.2.4v-.8h3.4c0 .6-.1 1.3-.4 2" class="st0"/><path d="M14.2 13.9v-.1l-.1.1z" class="st0"/></svg>