<svg xmlns="http://www.w3.org/2000/svg" xml:space="preserve" viewBox="0 0 32 32"><path d="M11 3.9h8.8c.2 0 .4-.1.5-.2s.2-.3.2-.5-.1-.4-.2-.5-.3-.2-.5-.2H11c-.2 0-.4.1-.5.2s-.2.3-.2.5.1.4.2.5.3.2.5.2m1.5-2.4h5.9c.2 0 .4-.1.5-.2s.2-.3.2-.5-.1-.4-.2-.5-.3-.3-.5-.3h-5.9c-.2 0-.4.1-.5.2s-.2.3-.2.5.1.4.2.5.3.3.5.3m9.3 3.9c-.1-.1-.3-.2-.5-.2H9.5c-.2 0-.4.1-.5.2s-.3.4-.2.6 0 .3.2.5.3.2.5.2h5.1v3.5c-.5.1-.9.4-1.2.7-.6.6-.8 1.2-.8 2 0 .3.1.6.1.9l3.1 12.5c-.2 0-.4-.1-.7-.1-.8 0-1.5.3-2 .8s-.8 1.2-.8 2 .3 1.5.8 2 1.2.8 2 .8 1.5-.3 2-.8.8-1.1.8-1.9v-.5c0-.3-.1-.6-.2-.9l-3-12.2c.2 0 .4.1.7.1.8 0 1.5-.3 2-.8.6-.6.8-1.2.8-2s-.3-1.5-.8-2c-.4-.4-.8-.6-1.3-.7V6.7h5.1c.2 0 .4-.1.5-.2s.3-.3.3-.5-.1-.4-.2-.6m-6.6 25.1c-.4 0-.7-.1-1-.4s-.4-.6-.4-1 .1-.7.4-1 .6-.4 1-.4.7.1 1 .4c.1.1.2.2.2.3l.2.7c0 .4-.1.7-.4.9-.3.4-.6.5-1 .5m1.6-17.6c0 .4-.1.7-.4 1s-.6.4-1 .4-.7-.1-1-.4c-.1-.1-.2-.2-.2-.3v-.2c0-.1 0-.1-.1-.1 0-.1-.1-.2-.1-.3 0-.4.1-.7.4-1s.6-.4 1-.4.7.1 1 .4.4.6.4.9" style="fill:#fff"/></svg>