<svg xmlns="http://www.w3.org/2000/svg" xml:space="preserve" viewBox="0 0 32 32"><path d="M28.9 24.2h-1.7c.9-1.1 1.6-2.4 2.1-3.8.6-1.6.9-3.3.9-5 0-1.9-.4-3.8-1.1-5.5q-1.05-2.55-3-4.5t-4.5-3c-1.6-.7-3.2-1-4.9-1.1V0h-1.2v1.2c-1.7.1-3.3.4-4.9 1.1-1.8.7-3.4 1.7-4.7 3s-2.3 2.8-3 4.5c-.8 1.8-1.1 3.6-1.1 5.5 0 1.3.2 2.6.5 3.9s.9 2.5 1.6 3.6c.3.5.6.9.9 1.3H1.9V32h1.2v-6.6h2.8l.4.4c.8.8 1.8 1.4 2.7 1.9.1.1.2.2.4.2l.1-.2h.7V24H6.5q-.9-.6-1.5-1.8c-.6-1-1.1-2.1-1.4-3.3-.4-1.1-.6-2.3-.6-3.5 0-1.8.3-3.4 1-5.1.7-1.5 1.6-2.9 2.8-4.1s2.6-2.1 4.1-2.8c1.6-.7 3.3-1 5.1-1s3.4.3 5 1 3 1.6 4.2 2.8 2.1 2.6 2.8 4.1c.7 1.6 1 3.3 1 5 0 2.4-.6 4.6-1.8 6.7-.5.8-1 1.5-1.6 2.1h-3.8v3.7h.9l.1.1c.1 0 .1-.1.2-.1v-.1c1.2-.6 2.2-1.4 3.1-2.4h2.8V32h1.2v-7.8zM9.1 26.4c-.5-.3-.9-.6-1.3-.9h1.3zm13.9-.1v-.9h1.2c-.4.4-.8.6-1.2.9" style="fill:#fff"/></svg>