<svg xmlns="http://www.w3.org/2000/svg" xml:space="preserve" viewBox="0 0 32 32"><path d="M18.7 9.1c0-.7-.3-1.4-.8-1.9-.2-.2-.3-.3-.5-.4.2-.1.3-.2.5-.4.5-.5.8-1.2.8-1.9s-.3-1.4-.8-1.9c-.4-.4-.9-.6-1.5-.7V0h-.8v1.9c-.6.1-1.1.3-1.5.8-.5.5-.8 1.2-.8 1.9s.3 1.4.8 1.9c.2.2.3.3.5.4-.2.1-.3.2-.5.4-.5.5-.8 1.2-.8 1.9s.3 1.4.8 1.9c.2.2.3.3.5.4-.2.1-.3.2-.5.4-.5.5-.8 1.2-.8 1.9s.3 1.4.8 1.9c.2.2.3.3.5.4-.2.1-.3.2-.5.4-.5.5-.8 1.2-.8 1.9s.3 1.4.8 1.9c.2.2.3.3.5.4-.2.1-.3.2-.5.4-.5.5-.8 1.2-.8 1.9s.3 1.4.8 1.9c.2.2.3.3.5.4-.2.1-.3.2-.5.4-.5.5-.8 1.2-.8 1.9s.3 1.4.8 1.9c.4.4.9.7 1.5.7V32h.8v-1.9c.6-.1 1.1-.3 1.5-.7.5-.5.8-1.2.8-1.9s-.3-1.4-.8-1.9c-.2-.2-.3-.3-.5-.4.2-.1.3-.2.5-.4.5-.5.8-1.2.8-1.9s-.3-1.4-.8-1.9c-.2-.2-.3-.3-.5-.4.2-.1.3-.2.5-.4.5-.5.8-1.2.8-1.9s-.3-1.4-.8-1.9c-.2-.2-.3-.3-.5-.4.2-.1.3-.2.5-.4.5-.5.8-1.2.8-1.9s-.3-1.4-.8-1.9c-.2-.2-.3-.3-.5-.4.2-.1.3-.2.5-.4.5-.5.8-1.1.8-1.9m-.8-4.5c0 .5-.2 1-.5 1.3s-.6.4-.9.5V2.7c.3.1.7.2.9.5.3.4.5.8.5 1.4m-3.2-1.4c.3-.3.6-.4.9-.5v3.7c-.3-.1-.7-.2-.9-.5-.4-.4-.5-.8-.5-1.3-.1-.6.1-1 .5-1.4m0 4.6c.3-.3.6-.4.9-.5V11c-.3-.1-.7-.2-.9-.5-.4-.4-.5-.8-.5-1.3s.1-1 .5-1.4m0 4.6c.3-.3.6-.4.9-.5v3.7c-.3-.1-.7-.2-.9-.5-.4-.4-.5-.8-.5-1.3s.1-1 .5-1.4m0 4.6c.3-.3.6-.4.9-.5v3.7c-.3-.1-.7-.2-.9-.5-.4-.4-.5-.8-.5-1.3s.1-1.1.5-1.4m0 4.5c.3-.3.6-.4.9-.5v3.7c-.3-.1-.7-.2-.9-.5-.4-.4-.5-.8-.5-1.3s.1-1 .5-1.4m-.6 5.9c0-.5.2-1 .5-1.3s.6-.4.9-.5v3.7c-.3-.1-.7-.2-.9-.5-.3-.4-.5-.8-.5-1.4m3.2 1.4c-.3.3-.6.4-.9.5v-3.7c.3.1.7.2.9.5.4.4.5.8.5 1.3.1.6-.1 1-.5 1.4m0-4.6c-.3.3-.6.4-.9.5V21c.3.1.7.2.9.5.4.4.5.8.5 1.3s-.1 1-.5 1.4m0-4.6c-.3.3-.6.4-.9.5v-3.6c.3.1.7.2.9.5.4.4.5.8.5 1.3s-.1.9-.5 1.3m0-4.6c-.3.3-.6.4-.9.5v-3.7c.3.1.7.2.9.5.4.4.5.8.5 1.3s-.1 1.1-.5 1.4m0-4.5c-.3.3-.6.4-.9.5V7.3c.3.1.7.2.9.5.4.4.5.8.5 1.3s-.1 1-.5 1.4" style="fill:#fff"/></svg>