<svg xmlns="http://www.w3.org/2000/svg" xml:space="preserve" viewBox="0 0 32 32"><path d="m22.8 15.1-2.6-1.5.2-2.8c0-.3-.1-.5-.3-.7s-.5-.2-.8-.1l-2.9 1.4-3.2-1.8c-.2-.1-.5-.1-.8 0s-.4.3-.4.6v3.3l-2.8 1.3c-.2.2-.3.4-.4.7 0 .3.1.5.3.7l2.9 2v3.3c0 .3.1.5.4.7.1.1.2.1.4.1.1 0 .2 0 .4-.1l2.5-1.4 2.7 1.8c.1.1.3.1.4.1s.2 0 .3-.1c.3-.1.4-.3.4-.6l.3-3.7 3-1.7c.2-.1.4-.4.4-.7s-.2-.6-.4-.8m-4-3.2-.1.8-.7-.4zm-.2 2.5-.2 2.8-2.7 1.5-2.2-1.5v-2.8l2.8-1.3zm-5.1-2.9 1.2.7-1.2.6zm-2.4 4.1.9-.4v1.1zm2.4 4.4v-.9l.7.5zm4.6.4-1-.7 1.1-.7zm1.8-4.1.1-1.1.9.5z" style="fill:#fff"/></svg>