<svg xmlns="http://www.w3.org/2000/svg" xml:space="preserve" id="图层_1" x="0" y="0" viewBox="0 0 32 32"><style>.st0{fill:#fff}</style><path d="M29 11c-.1-.1-.1-.2-.2-.3s-.2-.1-.3-.1l-4.6-.2c-.1 0-.2 0-.3.1 0-.9-.2-1.8-.5-2.6-.4-.9-.9-1.7-1.6-2.5-.7-.7-1.5-1.3-2.5-1.7-.7-.3-1.5-.5-2.2-.5V1c0-.2-.1-.3-.2-.5-.2-.4-.4-.5-.6-.5s-.3.1-.5.2c-.1.1-.2.3-.2.5v2.2c-.8.1-1.5.2-2.2.5-.9.4-1.7.9-2.5 1.7S9.4 6.9 9 7.8s-.6 1.9-.6 2.9.2 2 .6 2.9.9 1.6 1.5 2.3c-.6.7-1.1 1.4-1.5 2.2l-5.6 2.2c-.2.1-.3.2-.4.3v.6c0 .1.1.3.2.3s.2.1.4.1c.1 0 .2 0 .2-.1l4.7-1.9c-.1.4-.1.9-.1 1.4 0 1 .2 2 .6 2.9s.9 1.7 1.6 2.5c.7.7 1.5 1.3 2.5 1.7.7.3 1.5.5 2.2.5v2.3c0 .2.1.3.2.5.1.1.3.2.5.2s.3-.1.5-.2c.1-.1.2-.3.2-.5v-2.3c.8-.1 1.5-.2 2.2-.5.9-.4 1.7-.9 2.5-1.7.7-.7 1.3-1.5 1.6-2.5.4-.9.6-1.9.6-2.9s-.2-2-.6-2.9c-.3-.9-.8-1.6-1.5-2.3.5-.5.9-1.1 1.3-1.8l1.4-.5.4 1.1c.1.2.2.4.5.4h.1c.2 0 .3-.1.5-.2l3.2-3.3c.1-.1.1-.2.2-.3 0 0 0-.1-.1-.2M10.6 7.6c.6-1 1.3-1.7 2.3-2.3s2-.8 3.1-.8 2.2.3 3.2.8 1.7 1.3 2.3 2.3.8 2 .8 3.1c0 .8-.2 1.6-.5 2.4l-2.7 1.1c-.1 0-.1-.1-.2-.1-.9-.4-1.9-.6-2.9-.6s-2 .2-2.9.6c-.6.2-1.1.6-1.6.9-.3-.4-.6-.7-.9-1.2-.6-1-.8-2-.8-3.1s.3-2.1.8-3.1m8.6 8.1c.1.1.2.2.3.2-.1.1-.2.2-.3.2-1 .6-2 .8-3.1.8h-.4l3.4-1.4c0 .1 0 .2.1.2m-5.7.7c-.2-.1-.4-.2-.5-.3s-.2-.2-.3-.2c.1-.1.2-.2.3-.2 1-.6 2-.8 3.1-.8.4 0 .8 0 1.1.1zm-2 .4c.1.1.2.2.4.3l-.9.3c.2-.2.3-.4.5-.6m10 7.5c-.6 1-1.3 1.7-2.3 2.3s-2 .8-3.1.8-2.2-.3-3.1-.8c-1-.6-1.7-1.3-2.3-2.3s-.8-2-.8-3.1c0-.7.1-1.3.3-2l3.3-1.3c.8.3 1.7.5 2.6.5 1 0 2-.2 2.9-.6.6-.2 1.1-.6 1.6-1 .3.4.6.7.9 1.2.6 1 .8 2 .8 3.1s-.3 2.2-.8 3.2m-.9-9.2c0-.1-.1-.1 0 0q0-.15 0 0m2.8-2.6c0-.2.1-.4.1-.5l.2.4zm1.8 2-.4-1.1.6-.2-.5-1.2-.6.2-.5-1.2 3 .1-1.5.6 1.6.1-1.1 1.2 1.5-.6zm2.4-2.4q0-.15 0 0c.1-.2.1-.4 0-.5s-.2-.3-.3-.4h1.2z" class="st0"/><path d="M13.1 12.2h5.8c.3 0 .4-.1.6-.3.1-.2.1-.4 0-.7l-2.9-5q-.15-.3-.6-.3c-.45 0-.4.1-.6.3l-2.9 5q-.15.3 0 .6c.2.2.4.4.6.4M16 7.8l1.8 3.1h-3.6zm8.8 3.9.1.2.4-.2zm-5.6 6.9c-.2 0-.4 0-.5.1L17 19.9c-.3-.2-.6-.4-1-.4s-.7.1-1 .3l-1.7-1.2c-.2-.1-.3-.1-.5-.1s-.3.1-.5.3-.1.3-.1.5.1.3.3.5l1.9 1.3c0 .4.2.8.5 1.2.1.1.3.3.5.3v3.2c0 .2.1.4.2.5s.3.2.5.2.4-.1.5-.2.2-.3.2-.5v-3.3c.1-.1.3-.2.4-.3s.2-.3.3-.5h1.4c.2 0 .3-.1.5-.2s.2-.3.2-.5-.1-.4-.2-.5-.3-.2-.5-.2h-.3l.9-.6c.2-.1.3-.3.3-.5s0-.4-.1-.5-.3-.1-.5-.1m6.6-5.6-.5.1.1.2z" class="st0"/></svg>