<svg xmlns="http://www.w3.org/2000/svg" xml:space="preserve" id="图层_1" x="0" y="0" viewBox="0 0 32 32"><style>.st0{fill:#fff}</style><path d="M19.8 19.4c0-.2 0-.4-.1-.5-.1-.2-.3-.3-.5-.3s-.4 0-.5.1L17 19.9c-.3-.2-.6-.4-1-.4s-.7.1-1 .4l-1.7-1.2c-.1-.1-.3-.2-.5-.1-.2 0-.4.1-.5.3s-.2.3-.1.5.1.3.3.5l1.9 1.3c0 .4.2.8.5 1.2.1.1.3.2.5.3V26c0 .2.1.3.2.5s.3.2.5.2.4-.1.5-.2.2-.3.2-.5v-3.3c.1-.1.3-.2.4-.3s.2-.3.3-.5h1.4c.2 0 .3-.1.5-.2.1-.1.2-.3.2-.5s-.1-.4-.2-.5-.3-.2-.5-.2h-.3l.9-.6c.2-.1.3-.3.3-.5M16 22.8" class="st0"/><path d="M21.5 15.9c.6-.7 1.1-1.4 1.5-2.3s.6-1.9.6-2.9-.2-2-.6-2.9-.9-1.7-1.6-2.5c-.7-.7-1.5-1.3-2.5-1.6-.7-.3-1.5-.5-2.2-.5V1c0-.2-.1-.3-.2-.5-.2-.4-.3-.5-.5-.5s-.3.1-.5.2c-.1.1-.2.3-.2.5v2.2c-.8.1-1.5.2-2.2.5-.9.4-1.7.9-2.5 1.6C9.9 6.1 9.4 6.9 9 7.8s-.6 1.9-.6 2.9.2 2 .6 2.9c.3.8.8 1.6 1.5 2.3-.6.7-1.1 1.4-1.5 2.3s-.6 1.9-.6 2.9.2 2 .6 2.9.9 1.7 1.6 2.5c.7.7 1.5 1.3 2.5 1.7.7.3 1.5.5 2.2.5V31c0 .2.1.3.2.5.1.1.3.2.5.2s.3-.1.5-.2c.1-.1.2-.3.2-.5v-2.3c.8-.1 1.5-.2 2.2-.5.9-.4 1.7-.9 2.5-1.7.7-.7 1.3-1.5 1.6-2.5.4-.9.6-1.9.6-2.9s-.2-2-.6-2.9c-.3-.9-.8-1.6-1.5-2.3M10.6 7.6c.6-1 1.3-1.7 2.3-2.3s2-.8 3.1-.8 2.2.3 3.1.8c1 .6 1.7 1.3 2.3 2.3s.8 2 .8 3.1-.3 2.2-.8 3.2l-.9 1.2c-.5-.4-1.1-.7-1.6-.9-.7-.3-1.5-.5-2.2-.5V10l2.6-1.8c.1-.1.2-.2.3-.4 0-.2 0-.3-.1-.5-.2-.2-.4-.2-.5-.3-.2 0-.3 0-.5.1L16 8.9l-2.5-1.8c-.1-.1-.3-.1-.5-.1s-.3.1-.4.2-.1.3-.1.5.1.3.3.4l2.6 1.9v3.5c-.8.1-1.6.2-2.3.5-.6.2-1.1.6-1.6.9-.3-.4-.6-.7-.9-1.2-.6-1-.8-2-.8-3.2-.1-.9.2-2 .8-2.9m5.4 7.2c1.1 0 2.2.3 3.1.8.1.1.2.2.4.3-.1.1-.2.2-.4.2-1 .6-2 .8-3.1.8s-2.2-.3-3.1-.8c-.1-.1-.2-.2-.4-.3.1-.1.2-.2.4-.2.9-.5 2-.8 3.1-.8m5.4 9.5c-.6 1-1.3 1.7-2.3 2.3s-2 .8-3.1.8-2.2-.3-3.1-.8-1.7-1.3-2.3-2.3-.8-2-.8-3.1.3-2.2.8-3.2l.9-1.2c.5.4 1.1.7 1.6.9.9.4 1.9.6 2.9.6s2-.2 2.9-.6c.6-.2 1.1-.6 1.6-.9.3.4.6.7.9 1.2.6 1 .8 2 .8 3.2s-.2 2.1-.8 3.1" class="st0"/></svg>