<svg xmlns="http://www.w3.org/2000/svg" xml:space="preserve" viewBox="0 0 32 32"><path d="M21.5 15.9c.7-.7 1.2-1.5 1.6-2.3.4-.9.6-1.9.6-2.9s-.2-2-.6-2.9-.9-1.8-1.7-2.5c-.7-.7-1.5-1.3-2.5-1.6-.7-.3-1.5-.5-2.2-.5V.9c0-.2-.1-.3-.2-.5-.2-.3-.3-.4-.5-.4s-.3.1-.5.2c-.1.1-.2.3-.2.5v2.2c-.8.1-1.5.2-2.3.5-.9.4-1.7.9-2.5 1.6C9.9 6 9.4 6.8 9 7.7s-.6 1.9-.6 2.9.2 2 .6 2.9c.3.8.8 1.6 1.5 2.2-.7.7-1.2 1.5-1.6 2.4S8.3 20 8.3 21s.2 2 .6 2.9.9 1.8 1.7 2.5c.7.7 1.5 1.3 2.5 1.6.8.3 1.5.5 2.4.5v2.3c0 .2.1.3.2.5.1.1.3.2.5.2s.3-.1.5-.2c.1-.1.2-.3.2-.5v-2.3c.7-.1 1.5-.2 2.1-.5.9-.4 1.8-.9 2.5-1.6s1.3-1.5 1.6-2.5c.4-.9.6-1.9.6-2.9s-.2-2-.6-2.9c-.5-.8-1-1.6-1.6-2.2M10.6 7.5c.6-1 1.3-1.7 2.3-2.3s2-.8 3.2-.8c1.1 0 2.2.3 3.2.9s1.7 1.3 2.3 2.3.9 2 .8 3.1c0 1.1-.3 2.2-.9 3.2q-.45.75-.9 1.2c-.5-.4-1.1-.7-1.7-1-.7-.3-1.4-.5-2.1-.5v-3.2l2.6-1.8c.1-.1.2-.2.2-.4s0-.3-.1-.5-.4-.7-.5-.8c-.2 0-.3 0-.5.1L16 8.8 13.5 7c-.1-.1-.3-.1-.5-.1s-.3.1-.4.3-.1.3-.1.5.1.3.3.4l2.6 1.9v3.2c-.8.1-1.6.2-2.4.6-.6.2-1.1.5-1.6.9-.3-.3-.6-.7-.9-1.1-.6-1-.8-2-.8-3.2 0-.9.3-2 .9-2.9m5.4 9.4c-1.1 0-2.2-.3-3.2-.8-.1-.1-.3-.2-.4-.3.1-.1.2-.1.3-.2 1-.6 2-.8 3.2-.8 1.1 0 2.2.3 3.2.8.1.1.3.2.4.3-.1.1-.2.1-.3.2-1 .5-2.1.8-3.2.8m5.3 7.3c-.6 1-1.3 1.7-2.3 2.3s-2 .9-3.2.9-2.2-.3-3.2-.9-1.7-1.3-2.3-2.3-.8-2-.8-3.2.3-2.2.8-3.2q.45-.75.9-1.2c.5.4 1.1.7 1.7 1 1.1.4 2.1.6 3.1.6h.5l-1.2.8c-.1 0-.1.1-.2.1-.1.1-.2.3-.2.5V21c-.1.1-.2.1-.3.2-.3.3-.4.6-.4 1v.2l-.6.4-1.5-1c-.1-.1-.3-.1-.5-.1s-.3.1-.4.2-.1.3-.1.5.1.3.3.4l1.8 1.2c.1.1.2.1.4.1.1 0 .2 0 .4-.1l1-.7c.2.1.3.1.5.1s.3 0 .5-.1l.8.6v2.4c0 .2.1.3.2.4s.3.2.4.2c.2 0 .3-.1.4-.2s.2-.3.2-.4v-2.7c0-.2-.1-.3-.2-.4 0 0-.1 0-.1-.1l-.1-.1-.9-.6h.8c.2 0 .3-.1.4-.2s.2-.2.2-.4-.1-.3-.2-.4-.3-.2-.4-.2h-1.1s0-.1-.1-.1c-.1-.1-.3-.2-.4-.3v-1l1.7-1.2c.1-.1.2-.2.3-.4 0-.1 0-.3-.1-.4.3-.1.6-.2.8-.3.6-.2 1.1-.5 1.6-.9.3.3.6.7.9 1.1.6 1 .9 2 .9 3.2s-.1 2.3-.7 3.3" style="fill:#fff"/></svg>