<svg xmlns="http://www.w3.org/2000/svg" xml:space="preserve" viewBox="0 0 32 32"><path d="m22.1 17.2-.1-.1s.1-.1.2-.1c.8-.8 1.5-1.8 1.9-2.8.4-1.1.7-2.2.7-3.3s-.3-2.3-.8-3.4c-.4-1.1-1.1-2-1.9-2.8s-1.8-1.4-2.8-1.9c-.8-.3-1.7-.5-2.6-.6V0h-1.5v2.2c-.9.1-1.8.3-2.6.6-1.1.4-2 1.1-2.8 1.9-.7.8-1.4 1.7-1.8 2.8s-.7 2.2-.7 3.3c0 1.2.2 2.3.7 3.3.4 1.1 1.1 2 1.9 2.8l.1.1s-.1.1-.2.1C9 18 8.4 19 8 20c-.4 1.1-.7 2.2-.7 3.3 0 1.2.2 2.3.7 3.3.4 1.1 1.1 2 1.9 2.8s1.8 1.5 2.8 1.9 2.1.7 3.3.7c1.1 0 2.2-.2 3.3-.7 1.1-.4 2-1.1 2.8-1.9s1.5-1.8 1.9-2.8.7-2.2.7-3.3c0-1.2-.2-2.3-.7-3.3s-1.1-2-1.9-2.8m-11.2-1.3c-.7-.7-1.2-1.5-1.6-2.3-.4-.9-.5-1.8-.5-2.8s.2-1.9.6-2.7.9-1.6 1.6-2.3 1.5-1.2 2.3-1.6 1.7-.5 2.7-.5 1.9.2 2.8.5 1.6.9 2.3 1.5c.7.7 1.2 1.5 1.6 2.3.4.9.5 1.8.5 2.8s-.2 1.9-.5 2.8c-.4.9-.9 1.7-1.6 2.3-.1.1-.2.2-.3.2-.5-.3-1-.6-1.5-.8-1.1-.4-2.2-.7-3.3-.7s-2.3.2-3.3.7c-.5.2-1 .5-1.5.8-.1-.1-.2-.1-.3-.2m8.6 1.2c-.2.1-.5.3-.7.4-.9.3-1.8.5-2.8.5s-1.9-.2-2.8-.5c-.3-.1-.5-.2-.8-.4.2-.1.5-.3.7-.4.9-.4 1.8-.5 2.8-.5s1.9.2 2.7.5c.4.1.7.2.9.4m3.1 9c-.4.9-.9 1.6-1.6 2.3s-1.5 1.2-2.3 1.6-1.7.5-2.7.5-1.9-.2-2.8-.5-1.7-.9-2.3-1.5-1.2-1.5-1.6-2.4-.5-1.8-.5-2.8.2-1.9.5-2.8c.4-.9.9-1.7 1.6-2.3.1-.1.2-.2.3-.2.5.3 1 .6 1.5.8 1.1.4 2.2.7 3.3.7 1.2 0 2.3-.2 3.3-.7.5-.2 1-.5 1.5-.8.1.1.2.1.2.2.7.7 1.2 1.5 1.6 2.3.4.9.5 1.8.5 2.8s-.1 1.9-.5 2.8" style="fill:#fff"/></svg>