<svg xmlns="http://www.w3.org/2000/svg" xml:space="preserve" viewBox="0 0 32 32"><path d="M3.6 21.7c-.1 0-.3 0-.4-.1s-.2-.2-.2-.4c-.1-.2 0-.3 0-.5s.2-.3.4-.3l23.3-9.2c.2-.1.3-.1.5 0s.3.2.4.4.1.3 0 .5-.2.3-.4.4L3.8 21.6s-.1.1-.2.1m24.8-10.5-4.6-.2 1.4 3.5zm-3.2 3.9H25c-.2 0-.4-.2-.5-.4l-1.4-3.5c-.1-.2-.1-.4.1-.6q.15-.3.6-.3l4.6.2c.1 0 .3 0 .4.1s.2.2.2.3.1.3 0 .4c0 .1-.1.2-.2.3l-3.2 3.3c-.1.2-.3.2-.4.2m-.4-3.4.6 1.6 1.4-1.5zM16 18.3c-1 0-2-.2-2.9-.6s-1.7-.9-2.5-1.6c-.7-.7-1.3-1.5-1.6-2.5s-.6-1.9-.6-2.9.2-2 .6-2.9.9-1.7 1.6-2.5c.7-.7 1.5-1.3 2.5-1.6.9-.4 1.9-.5 2.9-.5s2 .2 2.9.6 1.7.9 2.5 1.6c.7.7 1.3 1.5 1.6 2.5.4.9.6 1.9.6 2.9s-.2 2-.6 2.9-.9 1.7-1.6 2.5c-.7.7-1.5 1.3-2.5 1.6-.9.3-1.9.5-2.9.5m0-13.9c-1.1 0-2.2.3-3.1.8s-1.7 1.3-2.3 2.3-.8 2-.8 3.1.3 2.2.8 3.2 1.3 1.7 2.3 2.3 2 .8 3.1.8 2.2-.3 3.1-.8c1-.6 1.7-1.3 2.3-2.3s.8-2 .8-3.2c0-1.1-.3-2.2-.8-3.1-.6-1-1.3-1.7-2.3-2.3s-2-.8-3.1-.8m0 24.3c-1 0-2-.2-2.9-.6s-1.7-.9-2.5-1.7c-.7-.7-1.2-1.5-1.6-2.4s-.6-1.9-.6-2.9.2-2 .6-2.9.9-1.7 1.6-2.5c.7-.7 1.5-1.3 2.5-1.6.9-.4 1.9-.6 2.9-.6s2 .2 2.9.6 1.7.9 2.5 1.6c.7.7 1.3 1.5 1.6 2.5.4.9.6 1.9.6 2.9s-.2 2-.6 2.9-.9 1.7-1.6 2.5c-.7.7-1.5 1.3-2.5 1.7-.9.3-1.9.5-2.9.5m0-13.9c-1.1 0-2.2.3-3.1.8-1 .6-1.7 1.3-2.3 2.3s-.8 2-.8 3.2.3 2.2.8 3.1 1.3 1.7 2.3 2.3 2 .8 3.1.8 2.2-.3 3.1-.8c1-.6 1.7-1.3 2.3-2.3s.8-2 .8-3.1-.3-2.2-.8-3.2c-.6-1-1.3-1.7-2.3-2.3s-2-.8-3.1-.8m0-10.7c-.2 0-.3-.1-.5-.2-.1-.1-.2-.3-.2-.5V.7c0-.2.1-.3.2-.5.2-.1.3-.2.5-.2s.3.1.5.2c.1.1.2.3.2.5v2.8c0 .2-.1.3-.2.5-.2 0-.3.1-.5.1m0 0c-.2 0-.3-.1-.5-.2-.1-.1-.2-.3-.2-.5V.7c0-.2.1-.3.2-.5.2-.1.3-.2.5-.2s.3.1.5.2c.1.1.2.3.2.5v2.8c0 .2-.1.3-.2.5-.2 0-.3.1-.5.1m0 0c-.2 0-.3-.1-.5-.2-.1-.1-.2-.3-.2-.5V.7c0-.2.1-.3.2-.4s.3-.2.5-.2.3.1.5.2c.1.1.2.3.2.4v2.8c0 .2-.1.3-.2.5-.2.1-.3.1-.5.1m0 0c-.2 0-.3-.1-.5-.2-.1-.1-.2-.3-.2-.4V.7c0-.2.1-.3.2-.4s.3-.2.5-.2.3.1.5.2c.1.1.2.3.2.4v2.8c0 .2-.1.3-.2.4-.2.2-.3.2-.5.2m0 .1c-.2 0-.3-.1-.5-.2-.1-.1-.2-.3-.2-.4V.7c0-.2.1-.3.2-.5.1-.1.3-.2.5-.2s.3.1.5.2c.1.1.2.3.2.5v2.8c0 .2-.1.3-.2.4-.2.2-.3.3-.5.3m0 0c-.2 0-.3-.1-.5-.2-.1-.1-.2-.3-.2-.5V.8c0-.2.1-.3.2-.5.1-.1.3-.2.5-.2s.3.1.5.2c.1.1.2.3.2.5v2.8c0 .2-.1.3-.2.5-.2 0-.3.1-.5.1m0 0c-.2 0-.3-.1-.5-.2-.1-.1-.2-.3-.2-.5V.8c0-.2.1-.3.2-.5.1-.1.3-.2.5-.2s.3.1.5.2c.1.1.2.3.2.5v2.8c0 .2-.1.3-.2.5-.2.1-.3.1-.5.1m0 0c-.2 0-.3-.1-.5-.2-.1-.1-.2-.3-.2-.5V.8c0-.2.1-.3.2-.5.1-.1.3-.2.5-.2s.3.1.5.2c.1.1.2.3.2.5v2.8c0 .2-.1.3-.2.5-.2.1-.3.1-.5.1m0 .1c-.2 0-.3-.1-.5-.2-.1-.1-.2-.3-.2-.5V.9c0-.2.1-.3.2-.5.1-.1.3-.2.5-.2s.3.1.5.2c.1.1.2.3.2.5v2.8c0 .2-.1.3-.2.5-.2 0-.3.1-.5.1m0 0c-.2 0-.3-.1-.5-.2-.1-.1-.2-.3-.2-.5V.9c0-.2.1-.3.2-.5.1-.1.3-.2.5-.2s.3.1.5.2c.1.1.2.3.2.5v2.8c0 .2-.1.3-.2.5-.2 0-.3.1-.5.1m0 0c-.2 0-.3-.1-.5-.2-.1-.1-.2-.3-.2-.4V.9c0-.2.1-.3.2-.4s.3-.2.5-.2.3.1.5.2c.1.1.2.3.2.4v2.8c0 .2-.1.3-.2.4-.2.2-.3.2-.5.2m0 0c-.2 0-.3-.1-.5-.2-.1-.1-.2-.3-.2-.4V.9c0-.2.1-.3.2-.4s.3-.2.5-.2.3.1.5.2c.1.1.2.3.2.4v2.8c0 .2-.1.3-.2.4-.2.2-.3.2-.5.2m0 .1c-.2 0-.3-.1-.5-.2-.1-.1-.2-.3-.2-.4V1c0-.2.1-.3.2-.5.1-.1.3-.2.5-.2s.3.1.5.2c.1.1.2.3.2.5v2.8c0 .2-.1.3-.2.5-.2 0-.3.1-.5.1m0 0c-.2 0-.3-.1-.5-.2-.1-.1-.2-.3-.2-.5V1c0-.2.1-.3.2-.5.1-.1.3-.2.5-.2s.3.1.5.2c.1.1.2.3.2.5v2.8c0 .2-.1.3-.2.5-.2 0-.3.1-.5.1M16 32c-.2 0-.3-.1-.5-.2-.1-.1-.2-.3-.2-.5v-2.8c0-.2.1-.3.2-.5.1-.1.3-.2.5-.2s.3.1.5.2c.1.1.2.3.2.5v2.8c0 .2-.1.3-.2.5-.2.1-.3.2-.5.2m0 0c-.2 0-.3-.1-.5-.2-.1-.1-.2-.3-.2-.5v-2.8c0-.2.1-.3.2-.5.1-.1.3-.2.5-.2s.3.1.5.2c.1.1.2.3.2.5v2.8c0 .2-.1.3-.2.5-.2.1-.3.2-.5.2m0-.1c-.2 0-.3-.1-.5-.2-.1-.1-.2-.3-.2-.4v-2.8c0-.2.1-.3.2-.4s.3-.2.5-.2.3.1.5.2c.1.1.2.3.2.4v2.8c0 .2-.1.3-.2.4-.2.2-.3.2-.5.2m0 0c-.2 0-.3-.1-.5-.2-.1-.1-.2-.3-.2-.4v-2.8c0-.2.1-.3.2-.4s.3-.2.5-.2.3.1.5.2c.1.1.2.3.2.4v2.8c0 .2-.1.3-.2.4-.2.1-.3.2-.5.2m0 0c-.2 0-.3-.1-.5-.2-.1-.1-.2-.3-.2-.5v-2.8c0-.2.1-.3.2-.5.1-.1.3-.2.5-.2s.3.1.5.2c.1.1.2.3.2.5v2.8c0 .2-.1.3-.2.5-.2.1-.3.2-.5.2m0 0c-.2 0-.3-.1-.5-.2-.1-.1-.2-.3-.2-.5v-2.8c0-.2.1-.3.2-.5.1-.1.3-.2.5-.2s.3.1.5.2c.1.1.2.3.2.5v2.8c0 .2-.1.3-.2.5-.2.1-.3.2-.5.2m0-.1c-.2 0-.3-.1-.5-.2-.1-.1-.2-.3-.2-.5v-2.8c0-.2.1-.3.2-.5.1-.1.3-.2.5-.2s.3.1.5.2c.1.1.2.3.2.5v2.8c0 .2-.1.3-.2.5-.2.2-.3.2-.5.2m0 0c-.2 0-.3-.1-.5-.2-.1-.1-.2-.3-.2-.5v-2.8c0-.2.1-.3.2-.5.1-.1.3-.2.5-.2s.3.1.5.2c.1.1.2.3.2.5v2.8c0 .2-.1.3-.2.5-.2.2-.3.2-.5.2m0 0c-.2 0-.3-.1-.5-.2-.1-.1-.2-.3-.2-.5v-2.8c0-.2.1-.3.2-.5.1-.1.3-.2.5-.2s.3.1.5.2c.1.1.2.3.2.5v2.8c0 .2-.1.3-.2.5-.2.1-.3.2-.5.2m0 0c-.2 0-.3-.1-.5-.2-.1-.1-.2-.3-.2-.5v-2.8c0-.2.1-.3.2-.5.1-.1.3-.2.5-.2s.3.1.5.2c.1.1.2.3.2.5v2.8c0 .2-.1.3-.2.5-.2.1-.3.2-.5.2m0-.1c-.2 0-.3-.1-.5-.2-.1-.1-.2-.3-.2-.4v-2.8c0-.2.1-.3.2-.4s.3-.2.5-.2.3.1.5.2c.1.1.2.3.2.4v2.8c0 .2-.1.3-.2.4-.2.2-.3.2-.5.2m0 0c-.2 0-.3-.1-.5-.2-.1-.1-.2-.3-.2-.5v-2.8c0-.2.1-.3.2-.4s.3-.2.5-.2.3.1.5.2c.1.1.2.3.2.4V31c0 .2-.1.3-.2.5-.2.2-.3.2-.5.2m0 0c-.2 0-.3-.1-.5-.2-.1-.1-.2-.3-.2-.5v-2.8c0-.2.1-.3.2-.5.1-.1.3-.2.5-.2s.3.1.5.2c.1.1.2.3.2.5V31c0 .2-.1.3-.2.5-.2.1-.3.2-.5.2m0 0c-.2 0-.3-.1-.5-.2-.1-.1-.2-.3-.2-.5v-2.8c0-.2.1-.3.2-.5.1-.1.3-.2.5-.2s.3.1.5.2c.1.1.2.3.2.5V31c0 .2-.1.3-.2.5-.2.1-.3.2-.5.2m0-.1c-.2 0-.3-.1-.5-.2-.1-.1-.2-.3-.2-.5v-2.8c0-.2.1-.3.2-.5.1-.1.3-.2.5-.2s.3.1.5.2c.1.1.2.3.2.5V31c0 .2-.1.3-.2.5-.2.1-.3.1-.5.1m0 0c-.2 0-.3-.1-.5-.2-.1-.1-.2-.3-.2-.5v-2.8c0-.2.1-.3.2-.5.1-.1.3-.2.5-.2s.3.1.5.2c.1.1.2.3.2.5v2.8c0 .2-.1.3-.2.5-.2.1-.3.2-.5.2"/></svg>