<svg xmlns="http://www.w3.org/2000/svg" xml:space="preserve" id="图层_1" x="0" y="0" viewBox="0 0 32 32"><style>.st0{fill:#fff}</style><path d="M21.5 15.9c.6-.7 1.1-1.4 1.5-2.3s.6-1.9.6-2.9-.2-2-.6-2.9-.9-1.7-1.6-2.5c-.7-.7-1.5-1.3-2.5-1.6-.7-.3-1.5-.5-2.2-.5V1c0-.2-.1-.3-.2-.5-.2-.4-.3-.5-.5-.5s-.3.1-.5.2c-.1.1-.2.3-.2.5v2.2c-.8.1-1.5.2-2.2.5-.9.4-1.7.9-2.5 1.6C9.9 6.1 9.4 6.9 9 7.8s-.6 1.9-.6 2.9.2 2 .6 2.9c.3.8.8 1.6 1.5 2.3-.6.7-1.1 1.4-1.5 2.3s-.6 1.9-.6 2.9.2 2 .6 2.9.9 1.7 1.6 2.5c.7.7 1.5 1.3 2.5 1.7.7.3 1.5.5 2.2.5V31c0 .2.1.3.2.5.1.1.3.2.5.2s.3-.1.5-.2c.1-.1.2-.3.2-.5v-2.3c.8-.1 1.5-.2 2.2-.5.9-.4 1.7-.9 2.5-1.7.7-.7 1.3-1.5 1.6-2.5.4-.9.6-1.9.6-2.9s-.2-2-.6-2.9c-.3-.9-.8-1.6-1.5-2.3M10.6 7.6c.6-1 1.3-1.7 2.3-2.3s2-.8 3.1-.8 2.2.3 3.1.8c1 .6 1.7 1.3 2.3 2.3s.8 2 .8 3.1-.3 2.2-.8 3.2l-.9 1.2c-.5-.4-1.1-.7-1.6-.9-.2-.1-.5-.2-.7-.2v-3c0-.2-.1-.3-.2-.4l-.1-.1-1.6-1.1V7.3L18 6.1c.1-.1.2-.2.3-.4 0-.2 0-.3-.1-.5-.1-.1-.3-.2-.5-.2s-.3 0-.5.1l-1.8 1.3s-.1 0-.1.1c-.1 0-.1.1-.2.1-.1.1-.2.3-.2.4v2.3l-1.3.9-1.4-1c0-.1-.1-.2-.3-.2s-.3.1-.4.2-.1.3-.1.5.1.3.2.4l1.8 1.2h.1c.1 0 .1.1.2.1s.2 0 .2-.1h.1l1.5-1 1.3.9v2.3c-.3 0-.7-.1-1-.1-1 0-2 .2-2.9.6-.6.2-1.1.6-1.6.9-.3-.4-.6-.7-.9-1.2-.6-1-.8-2-.8-3.2.1-.9.4-2 1-2.9m8.5 8.1c.1.1.2.2.4.3-.1.1-.2.2-.4.2-1 .6-2 .8-3.1.8s-2.2-.3-3.1-.8c-.1-.1-.2-.2-.4-.3.1-.1.2-.2.4-.2 1-.6 2-.8 3.1-.8 1.1-.1 2.2.2 3.1.8m2.3 8.6c-.6 1-1.3 1.7-2.3 2.3s-2 .8-3.1.8-2.2-.3-3.1-.8-1.7-1.3-2.3-2.3-.8-2-.8-3.1.3-2.2.8-3.2l.9-1.2c.5.4 1.1.7 1.6.9.9.4 1.9.6 2.9.6s2-.2 2.9-.6c.6-.2 1.1-.6 1.6-.9.3.4.6.7.9 1.2.6 1 .8 2 .8 3.2s-.2 2.1-.8 3.1M16 25.8" class="st0"/><path d="M19 18.4c-.2 0-.3 0-.5.1L16 20.3l-2.5-1.7c-.1-.1-.3-.1-.5-.1s-.3.1-.4.3-.1.3-.1.5.1.3.3.4l2.6 1.8v3.7c0 .2.1.3.2.4s.3.2.4.2c.2 0 .3-.1.5-.2.1-.1.2-.3.2-.5v-3.7l2.6-1.8c.1-.1.2-.2.3-.4 0-.2 0-.3-.1-.5-.2-.2-.4-.3-.5-.3m-2.9 3.3" class="st0"/></svg>