<svg xmlns="http://www.w3.org/2000/svg" xml:space="preserve" id="图层_1" x="0" y="0" viewBox="0 0 32 32"><style>.st0{fill:#fff}</style><path d="M12.8 11.9h6.4c.3 0 .5-.1.6-.4s.1-.5 0-.7l-3.2-5.6q-.15-.3-.6-.3c-.45 0-.5.1-.6.3l-3.2 5.6c-.1.2-.1.5 0 .7s.3.4.6.4M16 7l2 3.4h-4z" class="st0"/><path d="M22.8 16c.4-.5.7-1.1.9-1.6.4-1 .6-2.1.6-3.2S24.1 9 23.7 8q-.6-1.5-1.8-2.7t-2.7-1.8c-.8-.3-1.6-.5-2.5-.6V.7c0-.2-.1-.4-.2-.5S16.2 0 16 0s-.4.1-.5.2-.2.3-.2.5v2.1c-.9.1-1.7.3-2.5.6q-1.5.6-2.7 1.8C8.9 6.4 8.7 6.9 8.3 8c-.4 1-.6 2.1-.6 3.2s.2 2.2.6 3.2c.2.6.6 1.1.9 1.6-.4.5-.7 1.1-.9 1.6-.4 1-.6 2.1-.6 3.2s.2 2.2.6 3.2q.6 1.5 1.8 2.7c1.2 1.2 1.7 1.4 2.7 1.8.8.3 1.6.5 2.5.6v2.1c0 .2.1.4.2.5s.3.3.5.3.4-.1.5-.2.2-.3.2-.5v-2.1c.9-.1 1.7-.3 2.5-.6q1.5-.6 2.7-1.8c1.2-1.2 1.4-1.7 1.8-2.7s.6-2.1.6-3.2-.2-2.2-.6-3.2c-.2-.6-.5-1.2-.9-1.7M9.6 8.5c.4-.8.9-1.6 1.5-2.2s1.4-1.2 2.2-1.5 1.7-.5 2.6-.5 1.8.2 2.6.5 1.6.8 2.2 1.5c.7.7 1.2 1.4 1.5 2.2.4.8.5 1.7.5 2.7 0 .9-.2 1.8-.5 2.6-.2.4-.4.7-.6 1.1-.8-.8-1.7-1.3-2.6-1.8-1-.4-2.1-.6-3.2-.6s-2.2.2-3.2.6-1.9 1-2.6 1.8c-.2-.3-.4-.7-.6-1.1-.4-.8-.5-1.7-.5-2.7.2-.9.3-1.7.7-2.6M20.9 16c-.7.7-1.5 1.2-2.3 1.6s-1.7.5-2.6.5-1.8-.2-2.6-.5-1.6-.9-2.2-1.5l-.1-.1.1-.1c.7-.6 1.4-1.1 2.2-1.5s1.7-.5 2.6-.5 1.8.2 2.6.5 1.6.9 2.3 1.6m1.5 7.5c-.4.8-.9 1.6-1.5 2.2s-1.4 1.2-2.2 1.5-1.7.5-2.6.5-1.8-.2-2.6-.5-1.6-.8-2.2-1.5c-.7-.7-1.2-1.4-1.5-2.2-.4-.8-.5-1.7-.5-2.7 0-.9.2-1.8.5-2.7.2-.4.4-.7.6-1 .8.8 1.7 1.4 2.6 1.8 1 .4 2.1.6 3.2.6s2.2-.2 3.2-.6 1.9-1 2.6-1.8c.2.3.4.7.6 1 .4.8.5 1.7.5 2.7-.2 1-.3 1.8-.7 2.7" class="st0"/><path d="M19.3 19.4c-.2 0-.4 0-.5.1L16 21.4l-2.7-1.9c-.2-.1-.3-.1-.5-.1s-.4.1-.5.3-.2.3-.1.5.1.4.3.5l2.9 2v4.1c0 .2.1.4.2.5s.3.2.5.2.4-.1.5-.2.2-.3.2-.5v-4.2l2.8-2c.2-.1.3-.3.3-.5s0-.4-.1-.5c-.2-.1-.3-.2-.5-.2" class="st0"/></svg>