<svg xmlns="http://www.w3.org/2000/svg" xml:space="preserve" id="图层_1" x="0" y="0" viewBox="0 0 32 32"><style>.st0{fill:#fff}</style><path d="M29 10.9c0-.1-.1-.2-.2-.3s-.2-.1-.3-.1l-4.6-.2c-.1 0-.2 0-.3.1q0-1.35-.6-2.7c-.4-.9-.9-1.8-1.7-2.5-.7-.7-1.5-1.3-2.5-1.7-.7-.3-1.5-.5-2.2-.5V.8c0-.2-.1-.3-.2-.5S16.2 0 16 0s-.3.1-.5.2c-.1.1-.2.3-.2.5V3c-.8.1-1.5.2-2.3.5-.9.4-1.7.9-2.5 1.7C9.9 6 9.4 6.8 9 7.7s-.6 1.9-.6 2.9.2 2 .6 2.9.9 1.6 1.5 2.3c-.6.7-1.1 1.4-1.5 2.3v.1l-5.6 2.2c-.2.1-.3.2-.4.3-.1.2-.1.3 0 .5s.1.3.2.3c.1.1.2.1.4.1.1 0 .2 0 .2-.1l4.7-1.9c-.1.4-.1.8-.1 1.3 0 1 .2 2 .6 2.9s.9 1.8 1.7 2.5c.7.7 1.5 1.3 2.5 1.7.7.3 1.5.5 2.2.5v2.3c0 .2.1.3.2.5.1.1.3.2.5.2s.3-.1.5-.2c.1-.1.2-.3.2-.5v-2.3c.8-.1 1.5-.2 2.2-.5.9-.4 1.7-.9 2.5-1.7.7-.7 1.3-1.5 1.7-2.5s.6-1.9.6-2.9-.2-2-.6-2.9-.9-1.6-1.5-2.3c.5-.5.9-1.1 1.2-1.7l1.4-.6.4 1.1c.1.2.2.4.5.4h.1c.2 0 .3-.1.5-.2l3.2-3.3c.1-.1.1-.2.2-.3-.1.1-.1 0-.2-.2M10.6 7.5c.6-1 1.3-1.7 2.3-2.3s2-.8 3.2-.8c1.1 0 2.2.3 3.2.8 1 .6 1.7 1.3 2.3 2.3s.9 2 .8 3.2c0 .9-.2 1.7-.5 2.5l-2.6 1c-.1 0-.2-.1-.3-.1-.7-.3-1.4-.5-2.2-.5v-3.3c.2-.1.3-.2.5-.3.1-.1.2-.3.3-.5H19c.2 0 .4-.1.5-.2s.2-.3.2-.5-.1-.4-.2-.5-.4-.3-.6-.3h-.3l.9-.7c.1-.1.2-.3.3-.4s0-.4-.1-.5c-.1-.2-.3-.3-.5-.3s-.4 0-.5.1L17 7.4c-.3-.2-.6-.3-1-.3s-.7.1-1 .3l-1.7-1.2c-.2-.1-.3-.2-.5-.1s-.4.1-.5.3-.2.3-.1.5.1.3.3.4l1.9 1.3c0 .5.2.8.5 1.2.1.1.3.3.5.3v3.2c-.8.1-1.5.2-2.2.5-.6.2-1.1.6-1.6.9-.3-.4-.6-.7-.9-1.2-.6-1-.8-2-.8-3.2-.2-.8.1-1.9.7-2.8m2.2 8.6c-.1-.1-.2-.2-.4-.2.1-.1.2-.2.4-.2 1-.6 2-.8 3.2-.8.5 0 .9.1 1.3.1l-3.8 1.5c-.2-.2-.4-.3-.7-.4m6.3-.6q0 .15 0 0c.2.1.3.2.4.3-.1.1-.2.2-.4.2-1 .6-2 .8-3.2.8h-.3zm-7.6 1.2c.2.1.3.2.5.3l-1.1.4c.1-.2.3-.5.6-.7m9.9 7.5c-.6 1-1.3 1.7-2.3 2.3s-2 .8-3.2.8-2.2-.3-3.2-.8-1.7-1.3-2.3-2.3-.8-2-.8-3.2c0-.7.1-1.3.3-1.9l3.5-1.4c.8.3 1.6.4 2.5.4 1 0 2-.2 2.9-.6.6-.2 1.1-.6 1.6-.9.3.4.6.7.9 1.2.6 1 .9 2 .8 3.2s-.1 2.2-.7 3.2m2-11.7c.1-.2.1-.4.1-.6l.2.5zm1.8 2-.4-1.1.6-.2-.5-1.2-.6.2-.5-1.2 3.1.1h-.1l-1.5.6h1.6l-1.1 1.2 1.5-.6h.1zm2.4-2.5c.1-.2.1-.3 0-.5s-.2-.3-.3-.4h-.1 1.3z" class="st0"/><path d="M16.6 18.6q-.15-.3-.6-.3c-.45 0-.4.1-.6.3l-2.9 5.1q-.15.3 0 .6c.15.3.3.3.6.3H19q.3 0 .6-.3.15-.3 0-.6zm-2.4 4.7 1.8-3.1 1.8 3.1zm11.6-10.4-.4.2v.2zm-1-1.2.1.2.4-.2z" class="st0"/></svg>