<svg xmlns="http://www.w3.org/2000/svg" xml:space="preserve" id="图层_1" x="0" y="0" viewBox="0 0 32 32"><style>.st0{fill:#fff}</style><path d="m25.8 12.9-.5.2.1.2zm-9.2 5.8q-.15-.3-.6-.3c-.45 0-.4.1-.6.3l-2.9 5.1q-.15.3 0 .6t.6.3h5.8q.3 0 .6-.3.15-.3 0-.6zm-2.4 4.7 1.8-3.1 1.8 3.1z" class="st0"/><path d="M29 11c-.1-.1-.1-.2-.2-.3s-.2-.1-.3-.1l-4.6-.2h-.3c0-.9-.2-1.8-.5-2.6-.4-.9-.9-1.7-1.6-2.5C20.8 4.6 20 4 19 3.7c-.7-.3-1.5-.5-2.2-.5V1c0-.2-.1-.3-.2-.5-.3-.4-.4-.5-.6-.5s-.3.1-.5.2c-.1.1-.2.3-.2.5v2.2c-.8.1-1.5.2-2.2.5-.9.4-1.7.9-2.5 1.6C9.9 6.1 9.4 6.9 9 7.8s-.6 1.9-.6 2.9.2 2 .6 2.9c.3.8.8 1.6 1.5 2.3-.6.7-1.1 1.4-1.5 2.2l-5.7 2.2c-.2.1-.3.2-.4.3-.1.2-.1.3 0 .5s.1.3.2.3c.1.1.2.1.4.1h.2l4.7-1.9c-.1.5-.1.9-.1 1.4 0 1 .2 2 .6 2.9s.9 1.7 1.6 2.5c.7.7 1.5 1.3 2.5 1.7.7.3 1.5.5 2.2.5v2.3c0 .2.1.3.2.5.1.1.3.2.5.2s.3-.1.5-.2c.1-.1.2-.3.2-.5v-2.3c.8-.1 1.5-.2 2.2-.5.9-.4 1.7-.9 2.5-1.7.7-.7 1.3-1.5 1.6-2.5.4-.9.6-1.9.6-2.9s-.2-2-.6-2.9c-.3-.9-.8-1.6-1.5-2.3.5-.5.9-1.1 1.3-1.8l1.3-.5.5 1.1c.1.2.2.3.5.4h.1c.2 0 .3-.1.5-.2l3.2-3.3c.1-.1.2-.2.2-.3.1 0 0-.1 0-.2M10.6 7.6c.6-1 1.3-1.7 2.3-2.3s2-.8 3.1-.8 2.2.3 3.1.8c1 .6 1.7 1.3 2.3 2.3s.8 2 .8 3.1c0 .8-.2 1.6-.5 2.4L19 14.2c-.1 0-.1-.1-.2-.1-.7-.3-1.5-.5-2.2-.5V10l2.6-1.8c.1-.1.2-.2.3-.4 0-.2 0-.3-.1-.5s-.3-.2-.4-.3c-.2 0-.3 0-.5.1L16 8.9l-2.5-1.8c-.1-.1-.3-.1-.5-.1s-.3.1-.4.2-.1.3-.1.5.1.3.3.4l2.6 1.9v3.5c-.8.1-1.6.2-2.3.5-.6.2-1.1.6-1.6.9-.3-.4-.6-.7-.9-1.2-.6-1-.8-2-.8-3.2-.1-.9.2-2 .8-2.9m8.5 8.1c.1.1.2.2.4.3-.1.1-.2.2-.4.2-1 .6-2 .8-3.1.8h-.5l3.5-1.4c.1 0 .1 0 .1.1m-5.7.7c-.2-.1-.4-.2-.5-.3s-.2-.2-.4-.3c.1-.1.2-.2.4-.2 1-.6 2-.8 3.1-.8.4 0 .8 0 1.2.1zm-1.9.4c.1.1.2.2.4.3l-.9.3c.1-.2.3-.4.5-.6m9.9 7.5c-.6 1-1.3 1.7-2.3 2.3s-2 .8-3.1.8-2.2-.3-3.1-.8-1.7-1.3-2.3-2.3-.8-2-.8-3.1c0-.7.1-1.3.3-2l3.3-1.3c.8.3 1.7.5 2.6.5 1 0 2-.2 2.9-.6.6-.2 1.1-.6 1.6-.9.3.4.6.7.9 1.2.6 1 .8 2 .8 3.2s-.2 2-.8 3m-.9-9.3q.15 0 0 0m2.9-2.5c0-.2.1-.4.1-.5l.2.4zm1.8 2-.4-1.1.6-.2-.5-1.2-.6.2-.5-1.2 3.1.1h-.1l-1.4.6 1.6.1-1.1 1.1 1.4-.6h.1zm2.4-2.5c.1-.2.1-.3 0-.5s-.2-.3-.4-.4h1.2z" class="st0"/><path d="M24.8 11.7v.2l.5-.2z" class="st0"/></svg>