<svg xmlns="http://www.w3.org/2000/svg" xml:space="preserve" viewBox="0 0 32 32"><path d="M31.3 12.8q-.6-1.5-1.8-2.7t-2.7-1.8c-1-.4-2.1-.6-3.2-.6s-2.2.2-3.2.6q-1.5.6-2.7 1.8c-.7.7-1.3 1.5-1.7 2.4-.4-.9-1-1.7-1.7-2.4q-1.2-1.2-2.7-1.8c-1-.4-2.1-.6-3.2-.6s-2.2.1-3.2.6q-1.5.6-2.7 1.8T.7 12.8c-.5 1-.7 2.1-.7 3.2s.2 2.2.6 3.2q.6 1.5 1.8 2.7t2.7 1.8c1 .4 2.1.6 3.2.6s2.2-.2 3.2-.6q1.5-.6 2.7-1.8c.7-.7 1.3-1.5 1.7-2.4.4.9 1 1.7 1.7 2.4q1.2 1.2 2.7 1.8c1 .4 2.1.6 3.2.6s2.2-.2 3.2-.6q1.5-.6 2.7-1.8t1.8-2.7c.4-1 .6-2.1.6-3.2.2-1.1 0-2.2-.5-3.2M21 9.6c.8-.3 1.7-.5 2.6-.5s1.8.2 2.6.5c.6.2 1.1.5 1.6.9l-4.3 4.3-4.2-4.2c.5-.4 1.1-.7 1.7-1m-15.2 0c.8-.3 1.7-.5 2.6-.5s1.8.2 2.6.5c.6.2 1.1.5 1.6.9l-4.3 4.3-4.2-4.2c.5-.4 1-.7 1.7-1M1.5 16c0-.9.2-1.8.5-2.6.2-.6.6-1.2 1-1.7L7.2 16 3 20.2c-.4-.5-.7-1-1-1.6-.3-.8-.5-1.7-.5-2.6m9.5 6.4c-.8.3-1.7.5-2.6.5s-1.8-.2-2.6-.5c-.6-.3-1.2-.6-1.7-1L8.3 17l4.3 4.4c-.5.4-1 .7-1.6 1m2.7-2L9.3 16l4.3-4.3c.4.5.8 1.1 1.1 1.7.3.7.5 1.5.5 2.3v.6c0 .8-.2 1.6-.5 2.3-.2.7-.6 1.2-1 1.8m3-4.1v-.6c0-.8.2-1.6.5-2.3.2-.6.6-1.2 1-1.7l4.2 4.3-4.3 4.3c-.4-.5-.7-1-1-1.6-.2-.8-.3-1.6-.4-2.4m9.5 6.1c-.8.3-1.7.5-2.6.5s-1.8-.2-2.6-.5c-.6-.3-1.2-.6-1.7-1l4.3-4.3 4.3 4.4c-.6.3-1.1.6-1.7.9m3.8-3.8c-.3.6-.6 1.2-1 1.7L24.6 16l4.3-4.3c.4.5.8 1.1 1.1 1.7.3.8.5 1.7.5 2.6s-.2 1.8-.5 2.6" style="fill:#fff"/></svg>