<svg xmlns="http://www.w3.org/2000/svg" xml:space="preserve" id="图层_1" x="0" y="0" viewBox="0 0 32 32"><style>.st0{fill:#fff}</style><path d="M21.3 11.5c.2-.1.3-.3.4-.5l1.5-5v-.4c0-.1-.1-.3-.2-.4s-.2-.2-.4-.2-.3 0-.4.1l-4.7 2.3c-.3.1-.4.3-.5.6 0 .3 0 .5.2.7l1.1.9c-.1 0-.1.1-.2.2l-1.5 2.1V0h-1.5v12.1H9.6v1.5h6l-3.4 4.9H9.6V20h1.5l-5.6 8c-.1.2-.2.3-.1.5 0 .2.1.4.3.5.1.1.3.1.4.1q.45 0 .6-.3l6.2-8.8h2.4v12h1.5V19.9h5.7v-1.5H14l3.4-4.9h5V12h-4l1-1.4v-.1l1 .9c.2.2.4.2.7.2.1-.1.2-.1.2-.1m-.3-.7-3.2-2.7 4.7-2.3z" class="st0"/><path d="m19.1 8.2 1.5 1.3.7-2.3z" class="st0"/></svg>