<svg xmlns="http://www.w3.org/2000/svg" xml:space="preserve" id="图层_1" x="0" y="0" viewBox="0 0 32 32"><style>.st0{fill:#fff}</style><path d="M15.3 26.8h1.4l.3.9h.7l-1.2-3.3h-.8l-1.2 3.3h.5zm.7-1.9.5 1.3h-1zM14.8 4.4" class="st0"/><path d="M8.4 0v32h15.2V0zm13.8 30.6H9.8V1.4h12.3v29.2z" class="st0"/><path d="M16 7.7c.5 0 .8-.1 1-.2.2-.2.3-.4.3-.7 0-.4-.2-.7-.6-.8.3-.1.5-.3.5-.7 0-.3-.1-.5-.3-.7-.2-.1-.5-.2-1-.2h-1.1v3.3zm-.6-2.8h.3c.3 0 .5 0 .6.1s.2.2.2.3c0 .2-.1.3-.2.4s-.3.1-.6.1h-.3zm.4 1.4c.3 0 .5 0 .6.1s.2.2.2.4-.1.3-.2.4-.3.1-.6.1h-.4v-1zm.6 11.4c.3 0 .6 0 .8-.1V17c-.2.1-.5.1-.8.1s-.6-.1-.7-.2c-.1-.2-.2-.5-.2-.9s.1-.7.2-.9c.2-.2.4-.3.7-.3.2 0 .5 0 .7.1v-.6c-.2-.1-.5-.1-.8-.1-.5 0-.9.1-1.2.4s-.4.7-.4 1.3c0 .7.1 1.1.4 1.4.4.2.8.4 1.3.4" class="st0"/></svg>