<svg xmlns="http://www.w3.org/2000/svg" xml:space="preserve" id="图层_1" x="0" y="0" viewBox="0 0 32 32"><style>.st0{fill:#fff}</style><path d="M15.7 26.9c-.1-.2-.2-.5-.2-.9s.1-.8.2-.9.4-.2.7-.2c.2 0 .5 0 .7.1v-.6c-.2-.1-.5-.1-.8-.1-.5 0-.9.1-1.2.4s-.4.7-.4 1.3.1 1.1.4 1.4c.2.2.6.3 1.1.3.3 0 .6-.1.8-.2V27c-.2.1-.5.1-.8.1-.1 0-.4-.1-.5-.2m-.9-12.6" class="st0"/><path d="M8.4 0v32h15.2V0zm13.8 30.6H9.8V1.4h12.3v29.2z" class="st0"/><path d="M16.6 15.9c.3-.1.5-.3.5-.7 0-.3-.1-.5-.3-.7-.2-.1-.5-.2-1-.2h-1.1v3.3H16c.5 0 .8-.1 1-.2.2-.2.3-.4.3-.7-.1-.4-.3-.7-.7-.8m-1.2-1.1h.3c.3 0 .5 0 .6.1s.2.2.2.4-.1.3-.2.4-.3.1-.6.1h-.3zm1 2.3c-.1.1-.3.1-.6.1h-.4v-1h.4c.3 0 .5 0 .6.1s.2.2.2.4-.1.3-.2.4M15.3 6.8h1.4l.3.9h.7l-1.2-3.3h-.8l-1.2 3.3h.5zM16 5l.5 1.3h-1z" class="st0"/></svg>