<svg xmlns="http://www.w3.org/2000/svg" xml:space="preserve" id="图层_1" x="0" y="0" viewBox="0 0 34 32"><style>.st0{fill:#fff}</style><path d="M28.4 16h1.5v.9h-1.5zm0-2h1.5v1h-1.5zm0 3.9h1.5v.9h-1.5zm-7.1 2.8h1v1.5h-1zm7.1 0h.6v1h-.6v.5h1.5v-.5h-.4v-1h.4v-.9h-1.5zm0-8.1v.5h1.5v-.5h-.8l2.1-1.5-1.3-.4.1-1.9-2.8 2.1 1.4.3z" class="st0"/><path d="M0 5.4v21.1h33.5V5.4zm32 19.7H1.5V6.9H32z" class="st0"/><path d="m9.5 12.5 2.9-2-1.4-.4.2-1.9-2.9 2.1 1.4.3zm-4.9 9.7 2.9-2.1-1.4-.3.1-1.9-2.8 2 1.4.4zM19.8 21l.1-.1v1.3h.5v-1.5h-.1l2.4-1.7-1.4-.4.1-1.8-2.8 2 1.4.3zm7.3-.3h.9v1.5h-.9zm-1.9 0h.9v1.5h-.9zm-1.9 0h.9v1.5h-.9z" class="st0"/></svg>