<svg xmlns="http://www.w3.org/2000/svg" xml:space="preserve" id="图层_1" x="0" y="0" viewBox="0 0 32 32"><style>.st0{fill:#fff}</style><path d="M22.7 12.3h4.2v-1.5h-4.2zm-5.9-8.1L16.7 0h-1.5l.1 4.2zm-5.2 9.2q.75 1.2 1.8 1.8c.8.5 1.6.7 2.5.7s1.8-.2 2.5-.7 1.4-1.1 1.8-1.8c.5-.8.7-1.6.7-2.5s-.2-1.8-.7-2.5q-.75-1.2-1.8-1.8c-1.05-.6-1.5-.8-2.4-.8s-1.8.2-2.5.7c-.8.4-1.4 1.1-1.8 1.8-.5.8-.7 1.6-.7 2.5s.2 1.9.6 2.6m1.3-4.3c.3-.6.7-1 1.3-1.3s1.2-.5 1.8-.5 1.2.2 1.8.5 1 .8 1.3 1.3.5 1.2.5 1.8-.2 1.2-.5 1.8-.7 1-1.3 1.3-1.2.5-1.8.5-1.2-.2-1.8-.5-1-.7-1.3-1.3-.5-1.2-.5-1.8.2-1.2.5-1.8M24.6 4l-1.1-1-2.9 3 1 1.1zM11.5 5.9 8.5 3 7.4 4.1 10.5 7zm-2.2 6.4v-1.5H5.1v1.5zm11 16.8h9.6l-2.6-12.2H4.8L2.1 29.1h9.6l-.3 1.4h9.2zm-12-1.4v-.1H4l.8-3.9H4v-1.5h1.2l.8-3.8h4l.2-1 1.5.2-.1.7h3.8v-.8h1.5v.8h3.8l-.1-.7 1.5-.2.2 1h4l.8 3.8h.9v1.5h-.8l.9 3.9h-4.4v.1l-1.5.3-.1-.4H9.8v.4zm4.9 1.4h5.5l.3 1.2h-6zm7.7 2.7h-9.8l.3-1.3H9.5V32h13v-1.5h-1.9z" class="st0"/><path d="M10.5 23.7h4.7v3.9h1.6v-3.9h4.6l.7 3.9h1.5l-.7-3.9h4.3l-.3-1.5h-4.2l-.7-3.8h-1.5l.7 3.8h-4.4v-3.8h-1.6v3.8h-4.4l.6-3.8H9.9l-.6 3.8H5.1l-.3 1.5H9l-.7 3.9h1.5z" class="st0"/></svg>