<svg xmlns="http://www.w3.org/2000/svg" xml:space="preserve" viewBox="0 0 32 32"><path d="M24.2 12.6c-.4-1.1-1.1-2-1.9-2.9-.8-.8-1.8-1.5-2.9-1.9s-2.2-.7-3.4-.7-2.3.2-3.4.7-2 1.1-2.9 1.9-1.5 1.8-1.9 2.9-.7 2.2-.7 3.4.2 2.3.7 3.4c.4 1.1 1.1 2 1.9 2.9s1.8 1.5 2.9 1.9 2.2.7 3.4.7 2.3-.2 3.4-.7 2-1.1 2.9-1.9 1.5-1.8 1.9-2.9.7-2.2.7-3.4-.2-2.3-.7-3.4m-.8 3.4c0 .8-.1 1.7-.4 2.4h-1.1v-4.9H23c.3.8.4 1.7.4 2.5m-1.5 3.9h.4c-.1.2-.2.3-.4.5zm-11.8.6c-.1-.2-.3-.4-.4-.6h.4zM9 18.4c-.3-.8-.4-1.6-.4-2.4s.1-1.7.4-2.4h1.1v4.9H9zm1.1-6.3h-.4c.1-.2.3-.4.4-.6zm1.5 1.5h8.8v4.9h-8.8zm10.3-1.5v-.5c.1.2.2.3.4.5zm-8.7-2.9c.9-.4 1.8-.6 2.8-.6s1.9.2 2.8.6c.6.2 1.1.5 1.6.9v2h-8.8v-2c.5-.4 1-.7 1.6-.9m5.6 13.6c-.9.4-1.8.5-2.8.5s-1.9-.2-2.8-.5q-.9-.3-1.5-.9v-2h8.8v2c-.6.4-1.1.7-1.7.9" style="fill:#fff"/></svg>