<svg xmlns="http://www.w3.org/2000/svg" xml:space="preserve" id="图层_1" x="0" y="0" viewBox="0 0 32 32"><style>.st0{fill:#fff}</style><path d="M13.9 15c-.3.1-.8.3-1.3.5v-2.1H14v-1.5h-1.4V9.3l-1.5-.1v2.6H9.7v1.5h1.4V16c-.8.2-1.4.4-1.9.6l.2 1.5c.4-.1 1-.3 1.7-.5v2.9c0 .2 0 .4-.1.5s-.2.1-.5.2l-.6.1.5 1.6.5-.1c.5-.1.9-.2 1.1-.2.2-.1.4-.2.5-.4s.1-.5.1-1V17c.7-.2 1.1-.4 1.4-.5zm1.9 5.3v-5.4h1.9v-1.5h-1.9v-4h-1.5v11.1c0 .2-.1.4-.1.5s-.2.2-.3.3l.9 1.5c.4-.3 1.1-.7 2.1-1.3l.9-.6-.2-1.6zM16 32" class="st0"/><path d="M30.7 9.8c-.8-1.9-2-3.6-3.4-5.1-1.5-1.5-3.2-2.6-5.1-3.4-2-.9-4-1.3-6.2-1.3s-4.3.4-6.2 1.2-3.6 2-5.1 3.4C3.2 6.2 2.1 7.9 1.2 9.8c-.8 2-1.2 4-1.2 6.2s.4 4.3 1.2 6.2 2 3.6 3.4 5.1 3.2 2.6 5.1 3.4c2 .8 4.1 1.2 6.2 1.2 2.2 0 4.3-.4 6.2-1.2s3.6-2 5.1-3.4c1.5-1.5 2.6-3.2 3.4-5.1.8-2 1.2-4.1 1.2-6.2.2-2.2-.2-4.2-1.1-6.2m-1.4 11.9c-.7 1.7-1.8 3.3-3.1 4.6s-2.9 2.4-4.6 3.1c-1.8.8-3.7 1.2-5.6 1.2s-3.8-.4-5.6-1.1c-1.7-.8-3.3-1.8-4.6-3.1s-2.4-2.9-3.1-4.6C1.9 19.9 1.5 18 1.5 16s.4-3.8 1.2-5.6c.7-1.7 1.8-3.3 3.1-4.6s2.9-2.4 4.6-3.1c1.7-.8 3.6-1.2 5.6-1.2s3.8.4 5.6 1.1c1.7.8 3.3 1.8 4.6 3.1s2.4 2.9 3.1 4.6c.8 1.8 1.2 3.7 1.2 5.6 0 2.1-.4 4-1.2 5.8" class="st0"/><path d="M23.3 8.7c-.9-1-2-1.7-3.3-2.2-1.3-.6-2.6-.8-4-.8s-2.7.3-4 .8-2.4 1.3-3.3 2.2-1.7 2-2.2 3.3-.8 2.6-.8 4 .3 2.7.8 4c.5 1.2 1.3 2.3 2.2 3.3s2 1.7 3.3 2.2 2.6.8 4 .8 2.7-.3 4-.8c1.2-.5 2.3-1.3 3.3-2.2s1.7-2 2.2-3.3c.6-1.3.8-2.6.8-4s-.3-2.7-.8-4-1.3-2.4-2.2-3.3m.9 10.7c-.4 1.1-1.1 2-1.9 2.9s-1.8 1.5-2.9 1.9-2.2.7-3.4.7-2.3-.2-3.4-.7-2-1.1-2.9-1.9-1.5-1.8-1.9-2.9-.7-2.2-.7-3.4.2-2.3.7-3.4c.4-1.1 1.1-2 1.9-2.9s1.8-1.5 2.9-1.9 2.2-.7 3.4-.7 2.3.2 3.4.6 2 1.1 2.9 1.9 1.5 1.8 1.9 2.9.7 2.2.7 3.4-.3 2.4-.7 3.5" class="st0"/><path d="M21.2 20.2c-.1.3-.1.5-.2.6s-.3.2-.5.2h-.6c-.2 0-.3-.1-.4-.2s-.1-.3-.1-.6V16c.5-.5 1.1-1 1.7-1.6s1.1-1.2 1.5-1.6l-1-1.2c-.5.7-1.3 1.5-2.2 2.5V9.3l-1.5-.1v11.6c0 .6.1 1 .4 1.2s.7.3 1.3.4h1c.7 0 1.2-.2 1.4-.4s.4-.6.5-1.2c.1-1.1.2-1.9.2-2.3l-1.4-.5c0 .4 0 1.1-.1 2.2" class="st0"/></svg>