<svg xmlns="http://www.w3.org/2000/svg" xml:space="preserve" id="图层_1" x="0" y="0" viewBox="0 0 32 32"><style>.st0{fill:#fff}</style><path d="m16.7 18.1.8-.5c-.2-.4-.4-.9-.8-1.6l-.8.4c.3.5.5 1 .8 1.7m-.3-7.7h-1.2v.7h1.2v.3h-1.3v.7h1.3v.3h-1.6v.7h1.6v.5h.8v-.5H19v-.7h-1.8v-.3h1.5v-.7h-1.5v-.3h1.5v-1h.5v-.7h-.5v-1h-1.5V8h-.8v.4h-1.2v.7h1.2v.3h-1.5v.7h1.5zm.8-1.3h.8v.3h-.8zm0 1h.8v.3h-.8z" class="st0"/><path d="M13.9 13.7c.3.3.6.5 1 .6.3.1.8.2 1.2.2H19l.2-.7c-1 .1-2 .1-3.1 0-.5 0-.8 0-1.1-.1s-.6-.3-.8-.5c.2-.5.4-1.1.6-2v-.8h-1.1l1.1-1.2v-.9h-2v.8H14l-1.1 1.2v.8h1.2c-.1.4-.2.8-.3 1.1l-.3-.9-.7.2c.2.6.4 1.1.6 1.4-.2.4-.5.7-.9 1l.7.6c.3-.2.6-.5.7-.8" class="st0"/><path d="M23.3 8.7c-1-1-2.1-1.7-3.3-2.2-1.3-.5-2.6-.8-4-.8s-2.7.3-4 .8c-1.2.5-2.3 1.2-3.3 2.2S7 10.7 6.5 12s-.8 2.6-.8 4 .3 2.7.8 4c.5 1.2 1.3 2.3 2.2 3.3s2.1 1.7 3.3 2.2c1.3.5 2.6.8 4 .8s2.7-.3 4-.8c1.2-.5 2.3-1.3 3.3-2.2s1.7-2.1 2.2-3.3c.5-1.3.8-2.6.8-4s-.3-2.7-.8-4-1.2-2.4-2.2-3.3m.9 10.7c-.4 1.1-1.1 2-1.9 2.9-.8.8-1.8 1.5-2.9 1.9s-2.2.7-3.4.7-2.3-.2-3.4-.7c-1.1-.4-2-1.1-2.9-1.9-.8-.8-1.5-1.8-1.9-2.9s-.7-2.2-.7-3.4.2-2.3.7-3.4c.4-1.1 1.1-2 1.9-2.9.8-.8 1.8-1.5 2.9-1.9s2.2-.7 3.4-.7 2.3.2 3.4.7c1.1.4 2 1.1 2.9 1.9.8.8 1.5 1.8 1.9 2.9s.7 2.2.7 3.4c-.1 1.2-.3 2.3-.7 3.4" class="st0"/><path d="M30.7 9.8c-.8-1.9-2-3.6-3.4-5.1s-3.2-2.6-5.1-3.4C20.2.4 18.2 0 16 0s-4.2.4-6.2 1.2c-1.9.8-3.6 2-5.1 3.4S2.1 7.9 1.3 9.8c-.9 2-1.3 4-1.3 6.2s.4 4.2 1.2 6.2c.8 1.9 2 3.6 3.4 5.1s3.2 2.6 5.1 3.4c2 .8 4.1 1.2 6.2 1.2 2.2 0 4.2-.4 6.2-1.3 1.9-.8 3.6-2 5.1-3.4s2.6-3.2 3.4-5.1c.8-2 1.2-4.1 1.2-6.2s-.2-4.1-1.1-6.1m-1.4 11.8c-.7 1.7-1.8 3.3-3.1 4.6s-2.9 2.4-4.6 3.1c-1.8.8-3.7 1.1-5.6 1.1-2 0-3.8-.4-5.6-1.1-1.7-.7-3.3-1.8-4.6-3.1s-2.4-2.9-3.1-4.6C1.9 19.8 1.5 18 1.5 16s.4-3.8 1.1-5.6 1.8-3.3 3.1-4.6 2.9-2.4 4.6-3.1c1.9-.8 3.7-1.2 5.7-1.2s3.8.4 5.6 1.1c1.7.7 3.3 1.8 4.6 3.1s2.4 2.9 3.1 4.6c.8 1.8 1.1 3.7 1.1 5.6s-.3 4-1.1 5.7" class="st0"/><path d="M18.4 19.1c.2-.6.4-1.3.6-2.2l-1-.3c-.1.8-.2 1.4-.4 2-.2.5-.4 1-.7 1.4-.6-.9-1.1-2-1.3-3.2l-.9.3c.3 1.5.8 2.7 1.6 3.7-.5.5-1.1.9-1.9 1.4l.6.8q1.35-.75 2.1-1.5c.5.5 1.1 1 1.9 1.5l.5-.9c-.8-.4-1.4-.8-1.8-1.3.2-.6.5-1.1.7-1.7" class="st0"/><path d="M13.1 16.6c.4.5.7.9.9 1.3l.7-.6q-.3-.6-.9-1.2zm1.9 3.7c-.1.1-.3.3-.7.6v-2.7h-1.5v.9h.7v2.1c0 .2 0 .4-.1.6l.6.6.3-.3c.4-.4.8-.6 1-.8z" class="st0"/></svg>