<svg xmlns="http://www.w3.org/2000/svg" xml:space="preserve" id="图层_1" x="0" y="0" viewBox="0 0 32 32"><style>.st0{fill:#fff}</style><path d="M17.1 20c.5.9 1.2 1.6 2.1 2 .8.3 1.9.5 3.3.5.8 0 1.5-.1 2.2-.2s1.2-.2 1.8-.4v-6.8H22v2h2.3v3.1c-.4.1-.9.2-1.6.2q-1.35 0-2.1-.3c-.6-.3-1-.7-1.2-1.3S19 17.2 19 16c0-1.1.1-2 .4-2.7.3-.6.7-1.1 1.3-1.4.5-.2 1.3-.4 2.2-.4 1.2 0 2.3.2 3.2.5v-2c-.3-.1-.8-.3-1.5-.3-.6-.1-1.2-.1-1.8-.1-2 0-3.6.5-4.6 1.4-1.1 1-1.7 2.7-1.7 5.1-.1 1.6.1 3 .6 3.9" class="st0"/><path d="M0 0v32h32V0zm30.5 30.5h-29v-29h29z" class="st0"/><path d="M7.9 16.7h.7l4 5.6h2.9l-4.9-6.8 4.8-5.8h-2.9l-3.9 5h-.7v-5H5.5v12.6h2.4z" class="st0"/></svg>