<svg xmlns="http://www.w3.org/2000/svg" xml:space="preserve" viewBox="0 0 32 32"><path d="M30.8 9.8c-.8-1.9-2-3.6-3.4-5.1-1.5-1.5-3.2-2.6-5.1-3.4C20.2.4 18.2 0 16 0s-4.2.4-6.2 1.2c-1.9.8-3.6 2-5.1 3.4-1.5 1.6-2.6 3.3-3.5 5.2-.8 2-1.2 4-1.2 6.2s.4 4.2 1.2 6.2c.8 1.9 2 3.6 3.4 5.1 1.5 1.5 3.2 2.6 5.1 3.4 2 .8 4.1 1.2 6.2 1.2s4.2-.4 6.2-1.2c1.9-.8 3.6-2 5.1-3.4 1.5-1.5 2.6-3.2 3.4-5.1.8-2 1.2-4.1 1.2-6.2.2-2.2-.2-4.2-1-6.2M10.3 2.6c1.9-.7 3.7-1.1 5.7-1.1s3.8.4 5.7 1.1c1.4.6 2.7 1.4 3.9 2.5l-9.7 9.8-9.6-9.7c1.2-1 2.5-1.9 4-2.6M1.5 16c0-2 .4-3.8 1.1-5.7.6-1.5 1.5-2.8 2.6-4l9.6 9.6-9.6 9.7c-1-1.2-1.9-2.5-2.5-4-.8-1.8-1.2-3.6-1.2-5.6m20.2 13.4c-1.8.8-3.7 1.1-5.6 1.1-2 0-3.9-.4-5.7-1.1-1.5-.7-2.9-1.6-4.1-2.7l9.6-9.7 9.8 9.9c-1.2 1-2.6 1.9-4 2.5m7.7-7.7c-.6 1.5-1.6 2.9-2.7 4.1l-9.8-9.9 9.7-9.8c1.2 1.3 2.1 2.7 2.8 4.2q1.2 2.7 1.2 5.7c0 3-.5 3.8-1.2 5.7" style="fill:#fff"/></svg>