<svg xmlns="http://www.w3.org/2000/svg" xml:space="preserve" id="图层_1" x="0" y="0" viewBox="0 0 32 32"><style>.st0{fill:#fff}</style><path d="M0 0v32h32V0zm30.5 30.5h-29v-29h28.9v29z" class="st0"/><path d="M15 22.2c0 .4 0 .7-.1.8s-.2.3-.4.4c-.2 0-.5.1-.9.1l-1.6.1.7 2.3 1.7-.2q1.2-.15 1.8-.3c.4-.2.7-.4.9-.8s.3-1 .3-1.7v-3.2h8.4v-2.2h-8.4v-2.8H24v-2.2h-6.7V9c2.9-.2 5.2-.4 6.8-.6l-.3-2.3c-2.2.3-4.9.6-8.2.8-3.1.2-5.8.4-8 .4l.2 2.2c1.5-.1 3.9-.2 7.2-.4v3.2H8v2.2h7v2.8H6.2v2.2H15z" class="st0"/></svg>