<svg xmlns="http://www.w3.org/2000/svg" xml:space="preserve" id="图层_1" x="0" y="0" viewBox="0 0 32 32"><style>.st0{fill:#fff}</style><path d="M16 1.4 18 4l.8-.5L16 0l-2.7 3.5.7.5z" class="st0"/><path d="M23.6 24.1c-.5-.8-1.1-1.4-1.9-1.9-.4-.2-.7-.4-1.1-.5.4-.8.7-1.6.7-2.5s-.2-1.8-.7-2.6-1.1-1.4-1.9-1.9c-.7-.4-1.4-.6-2.1-.7v-1.2h1.2V6.2h-1.2V4.1L18 6l.7-.6L16 2l-2.7 3.5.7.5 1.6-2v2.1h-1.2v6.6h1.2V14c-.8.1-1.5.3-2.2.7-.8.5-1.4 1.1-1.9 1.9s-.7 1.7-.7 2.6.2 1.7.7 2.5c-.4.1-.8.3-1.1.5-.8.5-1.4 1.1-1.9 1.9s-.7 1.7-.7 2.6.2 1.8.7 2.6 1.1 1.4 1.9 1.9 1.7.7 2.6.7 1.8-.2 2.6-.7c.2-.1.3-.2.5-.3.1.1.3.2.5.3.8.5 1.7.7 2.6.7s1.8-.2 2.6-.7 1.4-1.1 1.9-1.9.7-1.7.7-2.6c-.1-.9-.4-1.8-.8-2.6m-6.8-17v4.8h-.3V7.1zm-1.6 0h.3v4.8h-.3zm-2.9 14.2c-.4-.7-.6-1.4-.6-2.2s.2-1.5.6-2.2.9-1.2 1.6-1.6 1.4-.6 2.2-.6 1.5.2 2.2.6 1.2.9 1.6 1.6.6 1.4.6 2.2-.2 1.5-.6 2.2c0 .1-.1.1-.2.2h-.6c-.9 0-1.8.2-2.6.7-.2.1-.3.2-.5.3-.1-.1-.3-.2-.5-.3-.8-.5-1.7-.7-2.6-.7h-.5s-.1-.1-.1-.2m4.4 3.2c.4.7.6 1.4.6 2.2s-.2 1.5-.6 2.2c-.2.3-.4.6-.7.9-.3-.3-.5-.6-.7-.9-.4-.7-.6-1.4-.6-2.2s.2-1.5.6-2.2c0-.1.1-.1.1-.2h1.1c.1.1.1.2.2.2m-1.6-1.1c-.4-.1-.8-.2-1.2-.5-.3-.1-.5-.3-.7-.5.7 0 1.3.2 1.9.6.1 0 .1.1.2.1-.1.1-.2.2-.2.3m1.8 0c-.1-.1-.2-.2-.2-.3.1 0 .1-.1.2-.1.6-.4 1.3-.6 2-.6-.2.2-.4.4-.7.5-.4.3-.8.4-1.3.5M13 31c-.8 0-1.5-.2-2.2-.6s-1.2-.9-1.6-1.6-.6-1.4-.6-2.2.2-1.5.6-2.2.9-1.2 1.6-1.6c.4-.2.8-.4 1.2-.5.4.5.9.9 1.4 1.2.4.2.7.4 1.1.5-.4.8-.7 1.6-.7 2.5s.2 1.8.7 2.6c.2.4.5.7.7 1-.1 0-.1.1-.2.1-.5.6-1.3.8-2 .8m9.8-2.1c-.4.7-.9 1.2-1.6 1.6-.6.3-1.4.5-2.2.5s-1.5-.2-2.2-.6c-.1 0-.1-.1-.2-.1.3-.3.5-.6.7-1 .5-.8.7-1.7.7-2.6s-.2-1.7-.7-2.5c.4-.1.8-.3 1.1-.5.5-.3 1-.7 1.4-1.2.4.1.8.3 1.2.5.7.4 1.2.9 1.6 1.6s.6 1.4.6 2.2 0 1.4-.4 2.1" class="st0"/></svg>