<svg xmlns="http://www.w3.org/2000/svg" xml:space="preserve" id="图层_1" x="0" y="0" viewBox="0 0 32 32"><style>.st0{fill:#fff}</style><path d="M24.3 17.1c-.1 0 0 0 0 0-.7-2.9-1.6-5.3-2.6-7.4-1.2-2.4-2.8-4.4-4.7-6l-.2-.2V.8c0-.2-.1-.4-.2-.5S16.2 0 16 0s-.4.1-.5.2-.2.3-.2.5v3.2c0 .2.1.4.2.5 0 0 .1 0 .1.1l.4.4c1.7 1.4 3.1 3.3 4.3 5.6.4.8.8 1.8 1.2 2.8-.6-.5-1.4-.9-2.1-1.3-1.1-.4-2.2-.7-3.4-.7s-2.3.2-3.4.7c-1.1.4-2 1.1-2.8 1.9s-1.5 1.8-1.9 2.8c-.4 1.1-.7 2.2-.7 3.4s.2 2.3.7 3.3c.4 1.1 1.1 2 1.9 2.8s1.8 1.5 2.8 1.9c.8.3 1.7.5 2.6.6v2.5c0 .2.1.4.2.5s.4.3.6.3.4-.1.5-.2.2-.3.2-.5v-2.5c.9-.1 1.8-.3 2.6-.6 1.1-.4 2-1.1 2.8-1.9s1.5-1.8 1.9-2.8c.4-1.1.7-2.2.7-3.3.1-1.1-.1-2.1-.4-3.1m-1.6 5.7c-.4.9-.9 1.7-1.6 2.4s-1.5 1.2-2.3 1.6c-.9.4-1.8.5-2.8.5s-1.9-.2-2.8-.5c-.9-.4-1.7-.9-2.3-1.6s-1.2-1.5-1.6-2.4-.6-1.8-.5-2.8c0-1 .2-1.9.5-2.8.4-.9.9-1.7 1.6-2.3s1.5-1.2 2.3-1.6c.9-.4 1.8-.6 2.8-.6s1.9.2 2.8.6 1.7.9 2.3 1.6c.7.7 1.2 1.5 1.6 2.3.4.9.5 1.8.5 2.8.1 1-.1 1.9-.5 2.8" class="st0"/><path d="M18.8 21.1s0-.1 0 0l-2-1.4v-2.4l2-1.4c.2-.1.3-.3.3-.5s0-.4-.1-.5c-.1-.2-.3-.3-.5-.3s-.4 0-.5.1l-2.2 1.5c-.1 0-.1.1-.1.2l-.1.1c-.1.1-.2.3-.2.5v2.8l-1.5 1-1.7-1.2c-.2-.1-.4-.2-.6-.1-.2 0-.4.1-.5.3s-.1.2-.1.4.1.4.3.5l2.1 1.5c.1.1.3.2.4.2s.3-.1.4-.2L16 21l1.5 1.1v2.8c0 .2.1.4.2.5s.3.2.5.2.4-.1.5-.2.2-.3.2-.5v-3.2c0-.2-.1-.4-.2-.5.2-.1.2-.1.1-.1m-.5 1.3" class="st0"/></svg>