<svg xmlns="http://www.w3.org/2000/svg" xml:space="preserve" id="图层_1" x="0" y="0" viewBox="0 0 32 32"><style>.st0{fill:#fff}</style><path d="m25.4 5.6.2.4.8-.7z" class="st0"/><path d="M27 5.1c-.2 0-.4 0-.6.2l-.1.1zq.15 0 0 0" class="st0"/><path d="M27.1 5.1c.1 0 .3.1.4.2l.2-.3z" class="st0"/><path d="M29.7 3.4c-.1-.1-.2-.2-.3-.2H29l-5 1.3c-.3.1-.4.3-.5.5-.1.3 0 .5.1.7l1 1.2L23 8.2V1.1h-1.5v8.3l-3.3 2.7v-11h-1.5v12.2l-5.1 4.2c-.1-.6-.3-1.1-.8-1.5.6-.6.8-1.4.8-2.3 0-.7-.3-1.3-.8-1.8 0 0 .1 0 .1-.1.6-.6.8-1.4.8-2.3 0-.7-.3-1.3-.8-1.8-.3-.3-.7-.5-1.1-.6V0H8.2v8.5h.7c.3 0 .6.1.8.3.3.2.4.5.4.8q0 .75-.3 1.2c-.2.2-.5.3-.8.3v1.5c.3 0 .6.1.8.3s.3.5.4.8q0 .75-.3 1.2-.3.3-.6.3h-.2v1.6h.2q.3 0 .6.3c.2.2.3.5.4.8 0 .4 0 .8-.2 1l-.5.4h-.4v.4L2 25.6c-.2.1-.3.3-.3.5s0 .4.2.6c-.2.2 0 .3.3.3.2 0 .4-.1.5-.2l7-5.7s.1 0 .1.1c.2.2.3.5.4.8q0 .75-.3 1.2c-.2.2-.5.3-.8.3h-.9V32h1.5v-7.1c.4-.1.8-.3 1.2-.7.6-.6.8-1.4.8-2.3 0-.7-.3-1.3-.8-1.7 0 0 0-.1.1-.1l5.8-4.7V31h1.5V14l3.3-2.7v19.5H23V10.1l2.4-2 .7.9c.2.2.4.3.7.2h.2c.2-.1.4-.2.4-.4l2.4-4.6c.1-.1.1-.3.1-.4-.1-.2-.1-.3-.2-.4m-3 5.1-.7-.9 1.4-1.2c.1-.1.2-.3.2-.5s0-.4-.2-.5h-.1l-.9 1.8-.8-1.2-.6.5-1-1.2 5-1.4z" class="st0"/></svg>