<svg xmlns="http://www.w3.org/2000/svg" xml:space="preserve" viewBox="0 0 32 32"><path d="M25.8 15.2h-2.7c-.1-.7-.2-1.4-.5-2-.4-.9-.9-1.6-1.5-2.3-.7-.7-1.4-1.2-2.3-1.5-.2-.1-.4-.2-.6-.2L16 4.3l-2.1 4.8c-.2.1-.4.1-.6.2-.9.4-1.6.9-2.3 1.5-.7.7-1.2 1.4-1.5 2.3-.3.6-.4 1.3-.5 2H6.2v1.5h2.7c.1.7.2 1.4.5 2 .4.9.9 1.6 1.5 2.3.7.7 1.4 1.2 2.3 1.5.6.3 1.3.4 2 .5v2.7h1.5v-2.7c.7-.1 1.4-.2 2-.5.9-.4 1.6-.9 2.3-1.5.7-.7 1.2-1.4 1.5-2.3.3-.6.4-1.3.5-2h2.7v-1.4zM20 12c.7.7 1.2 1.6 1.5 2.5.1.2.1.5.1.7h-4.9v-3.5h2.5l-.2-.5c.4.3.7.5 1 .8m-6-1.3c.4-.2.8-.2 1.2-.3v.6h-1.3zm2-1.9h-.4L16 8l.4.8c-.2.1-.3 0-.4 0m.8.9.2.5h-.2zm-1.6.5H15l.2-.5zm1.6.2c.4.1.9.2 1.3.3l.1.2h-1.4zm0-1.5v-1l.4 1.1c-.1-.1-.3-.1-.4-.1m-1.6-1v1c-.2 0-.3 0-.5.1zm-4.7 6.6c.2-1 .7-1.8 1.5-2.5.3-.3.6-.5 1-.8l-.2.5h2.5v3.5h-4.9c0-.2.1-.4.1-.7m4 7c-1-.2-1.8-.7-2.5-1.5s-1.2-1.6-1.5-2.5c-.1-.2-.1-.5-.1-.7h4.9v4.9c-.3-.1-.5-.2-.8-.2m7-4c-.2 1-.7 1.8-1.5 2.5s-1.6 1.2-2.5 1.5c-.2.1-.5.1-.7.1v-4.9h4.9c-.1.3-.2.5-.2.8" style="fill:#fff"/></svg>