<svg xmlns="http://www.w3.org/2000/svg" xml:space="preserve" id="图层_1" x="0" y="0" viewBox="0 0 32 32"><style>.st0{fill:#fff}</style><path d="M19.9 22c.8.3 1.8.5 3.2.5 1.1 0 2.2-.2 3.1-.5v-2.1c-.9.3-1.9.5-3 .5-.9 0-1.5-.1-2-.4-.5-.2-.9-.7-1.2-1.3s-.4-1.6-.4-2.7.1-2 .4-2.6.7-1.1 1.2-1.4 1.2-.4 2.1-.4c1 0 1.9.1 2.8.4V9.9c-.8-.3-1.7-.4-2.9-.4-1.9 0-3.4.5-4.4 1.4-1.1 1-1.6 2.7-1.6 5.1 0 1.7.2 3.1.7 4 .3.9 1 1.6 2 2" class="st0"/><path d="M0 0v32h32V0zm30.5 30.5h-29v-29h29z" class="st0"/><path d="M13.9 21.3q.9-.9.9-2.7c0-.8-.2-1.4-.5-1.9-.4-.5-.9-.8-1.7-1v-.1c.7-.2 1.1-.5 1.4-1 .3-.4.4-1 .4-1.7 0-.8-.1-1.4-.4-1.9s-.8-.9-1.4-1.1-1.5-.2-2.6-.2H5.9v12.6h4.4c1.7 0 2.9-.3 3.6-1m-5.6-9.7h1c.8 0 1.3 0 1.6.1.4.1.8.2.9.5.2.2.3.6.3 1.1 0 .7-.2 1.1-.7 1.4-.4.2-1.1.3-2.2.3h-1v-3.4zm0 8.8v-3.6h1.4c1.1 0 1.8.1 2.2.4s.6.7.6 1.4c0 .5-.1.9-.2 1.1s-.4.4-.8.5-1 .2-1.7.2z" class="st0"/></svg>