<svg xmlns="http://www.w3.org/2000/svg" xml:space="preserve" viewBox="0 0 33 32"><path d="M31.8 20.9c0-.2-.1-.4-.2-.5l-8.9-7.6 2.1-2.4-1.1-1-4.6 5.3 1.1.9 1.5-1.8 7.9 6.8-9.9 3.5-1.1-3-1.4.5 2.3 6.6 1.4-.5-.8-2.2 11-3.9c.1 0 .1-.1.2-.1 0 0 .1 0 .1-.1.4-.1.4-.3.4-.5m-17.6 6s0-.1 0 0l-1.3-3.7-1.4.5 1.1 3-9.9 3.5L4.6 20l2.3.4.2-1.4-3-.6-3.9-.7-.2 1.4 3.1.6L1 31.1c0 .2 0 .4.1.6s.3.3.5.3h.2c.1 0 .2 0 .3-.1l11-3.9.8 2.2 1.4-.5zM19 5.3l-2.1 2.4L8 .2C7.8 0 7.7 0 7.5 0h-.1c-.2 0-.3.1-.4.1-.1.2-.2.3-.3.5L4.6 12.1l-3.2-.6-.2 1.5 3.8.7 3 .6.3-1.4-2.3-.5L7.9 2.1l8 6.8-1.5 1.8 1.1.9 4.6-5.3z" style="fill:#fff"/></svg>