<svg xmlns="http://www.w3.org/2000/svg" xml:space="preserve" id="图层_1" x="0" y="0" viewBox="0 0 34 32"><style>.st0{fill:#fff}</style><path d="M28.1 17.6h1.5v.6h-1.5zm0-1.2h1.5v.6h-1.5zm0-1.3h1.5v.6h-1.5zm0 3.8h1.5v.6h-1.5zm0-5h1.5v.6h-1.5zm0 6.2h1.5v.6h-1.5zm-9.6 2h.6v1.5h-.6z" class="st0"/><path d="M0 5.4v21.1h33.5V5.4zm32 19.7H1.5V6.9H32z" class="st0"/><path d="M27.2 22.1h.6v1.5h-.6zm1.9 0h-.6v.5h-.4v.6h.4v.4h.6v-.4h.5v-.6h-.5zm-1-.7h1.5v.6h-1.5zm0-8.8h1.5v.6h-1.5zm0-.4.3-.2h1.2v-.6h-.5l1.6-1.3-1-3-2.3 1.8-.2.1-.3.2zm-8.3 9.9h.6v1.5h-.6zm1.2 0h.6v1.5H21zM3.4 23 6 20.9l-1-3-2.3 1.8-.2.1-.3.2zm6.8-10.8 2.6-2.1-1-3-2.4 1.8-.1.1-.3.2zm7 10.5v.9h.7v-1.1l2-1.6-1-3-2.3 1.8-.2.1-.2.2zm8.8-.6h.6v1.5H26zm-1.2 0h.6v1.5h-.6zm-1.3 0h.6v1.5h-.6zm-1.3 0h.6v1.5h-.6z" class="st0"/></svg>