<svg xmlns="http://www.w3.org/2000/svg" xml:space="preserve" id="图层_1" x="0" y="0" viewBox="0 0 32 32"><style>.st0{fill:#fff}</style><path d="M15.4 19.9c-.4 0-.7 0-.9.1s-.3.2-.4.4-.1.5-.1.9 0 .8.1 1 .2.3.4.4.5.1.9.1q.9 0 1.2-.3t.3-1.2-.3-1.2c-.2-.1-.6-.2-1.2-.2m2.4-10.4c-.6-.2-1.4-.3-2.5-.3s-2.1.1-2.9.4v2.1c.7-.2 1.6-.4 2.5-.4s1.4.1 1.7.3.5.7.5 1.3c0 .5-.1.8-.2 1.1s-.5.6-.9 1c-.6.5-1 .9-1.2 1.3s-.3.8-.3 1.4v.8h2.1V18q0-.6.3-.9c.2-.2.6-.6 1.1-1 .7-.5 1.1-1 1.4-1.4.3-.5.4-1.2.4-2.1s-.2-1.6-.5-2c-.4-.6-.9-.9-1.5-1.1" class="st0"/><path d="M30.7 9.8c-.8-1.9-2-3.6-3.4-5.1-1.5-1.5-3.2-2.6-5.1-3.4-2-.9-4-1.3-6.2-1.3s-4.3.4-6.2 1.2-3.6 2-5.1 3.4C3.2 6.2 2.1 7.9 1.2 9.8c-.8 2-1.2 4-1.2 6.2s.4 4.3 1.2 6.2 2 3.6 3.4 5.1 3.2 2.6 5.1 3.4c2 .8 4.1 1.2 6.2 1.2 2.2 0 4.3-.4 6.2-1.2s3.6-2 5.1-3.4c1.5-1.5 2.6-3.2 3.4-5.1.8-2 1.2-4.1 1.2-6.2.2-2.2-.2-4.2-1.1-6.2m-1.4 11.9c-.7 1.7-1.8 3.3-3.1 4.6s-2.9 2.4-4.6 3.1c-1.8.8-3.7 1.2-5.6 1.2s-3.8-.4-5.6-1.1c-1.7-.8-3.3-1.8-4.6-3.1s-2.4-2.9-3.1-4.6C1.9 19.9 1.5 18 1.5 16s.4-3.8 1.2-5.6c.7-1.7 1.8-3.3 3.1-4.6s2.9-2.4 4.6-3.1c1.7-.8 3.6-1.2 5.6-1.2s3.8.4 5.6 1.1c1.7.8 3.3 1.8 4.6 3.1s2.4 2.9 3.1 4.6c.8 1.8 1.2 3.7 1.2 5.6 0 2.1-.4 4-1.2 5.8" class="st0"/></svg>