<svg xmlns="http://www.w3.org/2000/svg" xml:space="preserve" viewBox="0 0 32 32"><path d="M16.8 3.2V0h-1.5v3.1h.8c.3 0 .4.1.7.1m5.5 12.9.6-.9c.7-1.2 1.1-2.6 1.1-4s-.4-2.8-1.1-4S21.2 5 20 4.3c-1-.6-2.1-.9-3.3-1h-1.5c-1.2.1-2.3.4-3.3 1C10.7 5 9.7 6 9 7.2c-.6 1.1-1 2.5-1 3.9s.4 2.8 1.1 4l.6.9-.6.9C8.4 18.2 8 19.5 8 21s.4 2.8 1.1 4 1.7 2.2 2.9 2.9c1 .6 2.1.9 3.3 1v-.1h1.5v.2c1.2-.1 2.3-.4 3.3-1 1.2-.7 2.2-1.7 2.9-2.9s1.1-2.6 1.1-4-.4-2.8-1.1-4c-.3-.4-.5-.7-.7-1M10 8.6c.3-.8.8-1.5 1.4-2.1s1.3-1.1 2.1-1.4 1.6-.5 2.5-.5 1.7.2 2.5.5 1.5.8 2.1 1.4 1.1 1.3 1.4 2.1.5 1.6.5 2.5-.2 1.7-.5 2.5c-.2.5-.5.9-.8 1.3L20 14c-1.2-.7-2.6-1.1-4-1.1s-2.8.4-4 1.1l-1.2.9c-.3-.4-.6-.9-.8-1.3-.3-.8-.5-1.6-.5-2.5s.2-1.7.5-2.5m10.2 7.5c-.5.4-1.1.8-1.7 1.1-.8.3-1.6.5-2.5.5s-1.7-.2-2.5-.5c-.6-.3-1.2-.6-1.7-1.1.5-.4 1.1-.8 1.7-1.1.8-.3 1.6-.5 2.5-.5s1.7.2 2.5.5c.6.2 1.2.6 1.7 1.1m1.8 7.4c-.3.8-.8 1.5-1.4 2.1s-1.3 1.1-2.1 1.4-1.6.5-2.5.5-1.7-.2-2.5-.5-1.5-.8-2.1-1.4-1.1-1.3-1.4-2.1-.5-1.6-.5-2.5.2-1.7.5-2.5c.2-.5.5-.9.8-1.3l1.2.9c1.2.7 2.6 1.1 4 1.1s2.8-.4 4-1.1l1.2-.9c.3.4.6.9.8 1.3.3.8.5 1.6.5 2.5s-.2 1.7-.5 2.5M15.2 29v3h1.5v-3z" style="fill:#fff"/></svg>