<svg xmlns="http://www.w3.org/2000/svg" xml:space="preserve" viewBox="0 0 32 32"><path d="M30.6 9.5c-.9-2-2.1-3.7-3.7-5.2Q24.5 2.05 21.5 1c-1.9-.7-3.9-1-6-1-2.1.1-4.1.5-6 1.4-2 .9-3.7 2.1-5.2 3.7Q2.05 7.5 1 10.5c-.7 1.9-1 3.9-1 6 .1 2.1.5 4.1 1.4 6 .9 2 2.1 3.7 3.7 5.2q2.4 2.25 5.4 3.3c1.8.6 3.6 1 5.5 1h.5c2.1-.1 4.1-.5 6-1.4 2-.9 3.7-2.1 5.2-3.7q2.25-2.4 3.3-5.4c.7-1.9 1-4 1-6-.1-2.1-.6-4.1-1.4-6m-12.9 6 10.4-5.8v11.5zm-1.6-.9L5.9 9.1h20zm-1.5.9L4.3 21.3V9.9zm1.5.9 10.5 5.7H6zM5.4 6.1c1.3-1.4 2.9-2.5 4.7-3.3q2.55-1.2 5.4-1.2h.5c1.7 0 3.4.3 5 .9 1.8.7 3.4 1.7 4.9 3 .7.7 1.4 1.4 1.9 2.2H4.2c.4-.6.8-1.1 1.2-1.6M1.5 16.5c-.1-1.9.2-3.7.9-5.5.1-.3.3-.6.4-.9V22v-.1c-.8-1.7-1.2-3.5-1.3-5.4m25 9.4c-1.3 1.4-2.9 2.5-4.7 3.3q-2.55 1.2-5.4 1.2c-2.85 0-3.7-.2-5.5-.9s-3.5-1.7-4.9-3q-1.5-1.35-2.4-3h24.7q-.75 1.35-1.8 2.4m3.1-4.9V11c.5 1.4.9 3 .9 4.5 0 1.9-.3 3.8-.9 5.5" style="fill:#fff"/></svg>