<svg xmlns="http://www.w3.org/2000/svg" xml:space="preserve" id="图层_1" x="0" y="0" viewBox="0 0 32 32"><style>.st0{fill:#fff}</style><path d="m24.4 16.2-2-.6q-1.5 4.95-2.7 7.8h-7.5v2.2h13.1v-2.1H22c1.2-3.4 2-5.8 2.4-7.3" class="st0"/><path d="M20.5 21.1c-.2-.8-.4-1.8-.8-2.9s-.6-2.1-.8-2.8l-1.9.5c.2.7.5 1.6.8 2.8.3 1.1.6 2.1.8 2.9z" class="st0"/><path d="m5.5 19.4 1.7 1.2c.7-1.1 1.3-2.4 1.9-3.8v9.4h2v-9.8c.2.3.6.8 1 1.5l1.3-1.2q.45 1.2.9 3c.45 1.8.5 2.2.7 2.9l2-.8c-.2-.9-.5-2-.9-3.1-.4-1.3-.7-2.3-1-3l-1.6.5c-.6-.9-1.3-1.7-2-2.4l-.4.4v-2.1h2c-.4.3-.8.6-1.1.8l1.3 1.8c.5-.4.9-.7 1.2-1V15h8.7v-1.5c.6.5 1.2 1 1.9 1.6l1.3-1.8c-3.1-2.2-5.4-4.8-6.7-7.5H18c-1 2.3-2.6 4.3-4.7 6.1v-2H11V6.1L9.1 6v4H6.7v2.2h2.2c-.4 1.3-.9 2.6-1.6 4-.6 1.2-1.2 2.3-1.8 3.2M18.9 8.1c.9 1.8 2.1 3.4 3.7 4.8h-7.3c1.5-1.4 2.8-3 3.6-4.8" class="st0"/><path d="M0 0v32h32V0zm30.5 30.5h-29v-29h28.9v29z" class="st0"/></svg>