<svg xmlns="http://www.w3.org/2000/svg" xml:space="preserve" id="图层_1" x="0" y="0" viewBox="0 0 32 32"><style>.st0{fill:#fff}</style><path d="M16.7 24.4c.3-.1.5-.4.5-.8 0-.3-.1-.6-.3-.7s-.5-.2-1-.2h-1.1v3.5H16c.5 0 .8-.1 1-.2.2-.2.3-.4.3-.8 0-.5-.2-.7-.6-.8m-1.2-1.2h.3c.3 0 .5 0 .6.1s.2.2.2.4-.1.3-.2.4-.3.1-.6.1h-.3zm1 2.3c-.1.1-.3.1-.6.1h-.4v-1h.4c.3 0 .5 0 .6.1s.2.2.2.4-.1.4-.2.4M0 0v15.1h32V0zm30.5 13.6h-29V1.5h28.9v12.1zM6.7 22.7l-1.3 3.5h.7l.3-.9h1.4l.3.9h.7l-1.3-3.5zm-.1 2 .5-1.4h.1l.5 1.4z" class="st0"/><path d="M17 8.3c.2-.2.3-.4.3-.8s-.2-.7-.6-.8c.3-.1.5-.3.5-.7 0-.3-.1-.6-.3-.7s-.5-.2-1-.2h-1.1v3.5H16c.5-.1.8-.2 1-.3m-1.5-2.7h.3c.3 0 .5 0 .6.1s.2.2.2.4-.1.3-.2.4-.4 0-.6 0h-.3zm0 2.4V7h.4c.3 0 .5 0 .6.1s.2.2.2.4-.1.3-.2.4-.3.1-.6.1zm9.5.6c.3 0 .6-.1.8-.2v-.5c-.2.1-.4.1-.7.1-.4 0-.6-.1-.8-.2-.1-.2-.2-.5-.2-.9 0-.5.1-.8.2-1 .2-.2.4-.3.8-.3.3 0 .5 0 .8.1v-.6c-.3 0-.5-.1-.8-.1-.5 0-1 .1-1.2.4-.3.3-.4.7-.4 1.4s.1 1.1.4 1.4c.2.3.6.4 1.1.4m-.7 16.8c-.1-.2-.2-.5-.2-1s.1-.8.2-1c.2-.2.4-.3.8-.3.3 0 .5 0 .8.1v-.6c-.2-.1-.5-.1-.8-.1-.5 0-1 .1-1.2.4-.3.3-.4.7-.4 1.4s.1 1.1.4 1.4q.3.3 1.2.3c.3 0 .6-.1.8-.2v-.6c-.2.1-.5.1-.8.1-.4.3-.6.3-.8.1" class="st0"/><path d="M0 32h32V16.8H0zm1.5-13.7h28.9v12.1H1.5zM6.4 7.6h1.4l.3.9h.7L7.6 5.1h-.9L5.4 8.5h.7zm.8-1.9.5 1.4H6.6z" class="st0"/></svg>