<svg xmlns="http://www.w3.org/2000/svg" xml:space="preserve" id="图层_1" x="0" y="0" viewBox="0 0 34 32"><style>.st0{fill:#fff}</style><path d="M28.1 12.6h1.5v.6h-1.5zm0-.6h1.5v-.6h-1.3v-.3h-.9v.9zm0 1.9h1.5v.6h-1.5zm-1.8-4.4h.9v.9h-.9zm-1.1 1.6h.9v.9h-.9zm2.9 4h1.5v.6h-1.5zm-.9 7h.6v1.5h-.6zm.9-.7h1.5v.6h-1.5zm0-5h1.5v.6h-1.5zm1 5.7h-.6v.5h-.4v.6h.4v.4h.6v-.4h.5v-.6h-.5zm-1-2h1.5v.6h-1.5zm-2.1 2h.6v1.5H26zm-1.2 0h.6v1.5h-.6zm3.3-4.5h1.5v.6h-1.5zm0 1.3h1.5v.6h-1.5zM7.2 9.8h.9v.9h-.9zm1.2-1.5h.9v.9h-.9zm1.1 1.5h.9v.9h-.9zM5.1 21.6H6v.9h-.9zm-2.3 0h.9v.9h-.9z" class="st0"/><path d="M0 5.4v21.1h33.5V5.4zm32 19.7H1.5V6.9H32z" class="st0"/><path d="M4 20.1h.9v.9H4zm10.8 1.5h.9v.9h-.9zm1.1-1.5h.9v.9h-.9zm3.9 2h.6v1.5h-.6zm1.2 0h.6v1.5H21zm1.2 0h.6v1.5h-.6zm1.3 0h.6v1.5h-.6zm-5 0h.6v1.5h-.6zm-1.3 1.5h.7v-2H17v.9h.2z" class="st0"/></svg>