<svg xmlns="http://www.w3.org/2000/svg" xml:space="preserve" id="图层_1" x="0" y="0" viewBox="0 0 32 32"><style>.st0{fill:#fff}</style><path d="M12.4 19.4c.1 0 .1 0 .1-.1l.1.1c.1 0 .1 0 .1-.1l.1.1c0 .1 0 .1.1.2s.1.1.2.1.2 0 .2-.1.1-.1.1-.2 0-.2-.1-.2-.1-.1-.2-.1c0-.1 0-.1-.1-.2s-.1-.1-.2-.1-.1 0-.1.1l-.1-.1c-.1 0-.1 0-.1.1l-.1-.1c-.1 0-.2 0-.2.1s-.1.1-.1.2 0 .2.1.2.2.1.2.1m0-.9c.1-.1.1-.1.1-.2s0-.2-.1-.2-.1-.1-.2-.1-.2 0-.2.1-.1.1-.1.2 0 .2.1.2.1.1.2.1.1-.1.2-.1m1.4.2c0-.1 0-.2-.1-.2s-.1-.1-.2-.1-.2 0-.2.1-.1.1-.1.2 0 .2.1.2.1.1.2.1.2 0 .2-.1.1-.2.1-.2m-1.3-2.3c.1-.1.1-.1.1-.2s0-.2-.1-.2-.1-.1-.2-.1-.2 0-.2.1-.1.1-.1.2 0 .2.1.2.1.1.2.1.2-.1.2-.1m-1.1 1.3c-.1.1-.1.1-.1.2s0 .2.1.2.1.1.2.1.2 0 .2-.1.1-.1.1-.2 0-.2-.1-.2-.1-.1-.2-.1-.1.1-.2.1m5.2.8c.1 0 .2 0 .2-.1s.1-.1.1-.2 0-.2-.1-.2h-.2c-.1 0-.2 0-.2.1s-.1.1-.1.2 0 .2.1.2zm-4.7-1c0 .1 0 .2.1.2s.1.1.2.1.2 0 .2-.1.1-.1.1-.2 0-.2-.1-.2-.1-.1-.2-.1-.2 0-.2.1-.1.1-.1.2m1.8.1s-.1-.1-.2-.1c0-.1 0-.1-.1-.2s-.1-.1-.2-.1-.2 0-.2.1-.1.1-.1.2 0 .2.1.2c0 0 .1.1.2.1 0 .1 0 .1.1.2s.1.1.2.1.2 0 .2-.1.1-.1.1-.2-.1-.1-.1-.2m2.2 4.1c.1 0 .2 0 .2-.1s.1-.1.1-.2 0-.2-.1-.2-.1-.1-.2-.1-.2 0-.2.1-.1.1-.1.2 0 .2.1.2.1.1.2.1m-.6-.4c.1 0 .2 0 .2-.1s.1-.1.1-.2 0-.2-.1-.2-.1-.1-.2-.1-.2 0-.2.1-.1.1-.1.2 0 .2.1.2.2.1.2.1m.6-1.4c-.1-.1-.1-.1-.2-.1h-.1c-.1 0-.2 0-.2.1s-.1.1-.1.2 0 .2.1.2.1.1.2.1h.1s-.1.1-.1.2 0 .2.1.2.1.1.2.1.2 0 .2-.1.1-.1.1-.2 0-.2-.1-.2c0 0-.1 0-.1-.1 0 0 .1-.1.1-.2zm.4-1.2c0-.1 0-.2-.1-.2s-.1-.1-.2-.1-.2 0-.2.1-.1.1-.1.2 0 .2.1.2.2.1.3.1.2 0 .2-.1zm-1.4-6.1c-.1 0-.2 0-.2.1s-.1.1-.1.2 0 .2.1.2.1.1.2.1.2 0 .2-.1.1-.1.1-.2 0-.2-.1-.2-.1-.1-.2-.1m-.2.9c-.1.1-.1.1-.1.2s0 .2.1.2.1.1.2.1.2 0 .2-.1.1-.1.1-.2 0-.2-.1-.2-.1-.1-.2-.1-.1 0-.2.1m-.9 1.8v.5h1.7l-.3-.8-.3-.4-.5-1c-.2.1-.3.4-.4.7s-.1.6-.2 1m.5-2.3c-.1 0-.2 0-.2.1s-.1.1-.1.2 0 .2.1.2.1.1.2.1.2 0 .2-.1.1-.1.1-.2 0-.2-.1-.2-.1-.1-.2-.1m-2.6 1.5c-.1 0-.2 0-.2.1s-.1.1-.1.2 0 .2.1.2.1.1.2.1.2 0 .2-.1.1-.1.1-.2 0-.2-.1-.2-.1-.1-.2-.1m7.3 6.4c-.1-.1-.1-.1-.2-.1s-.2 0-.2.1-.1.1-.1.2 0 .2.1.2c0 0 .1.1.2.1v.1c.1.1.1.1.2.1s.2 0 .2-.1.1-.1.1-.2 0-.2-.1-.2c0 0-.1-.1-.2-.1zm-.1-4.2c0 .1 0 .2.1.2s.1.1.2.1.2 0 .2-.1.1-.1.1-.2 0-.2-.1-.2-.1-.1-.2-.1-.2 0-.2.1-.1.1-.1.2m.8-.7q0-.15 0 0l-.2-.2c-.1 0-.2 0-.2.1s-.1.1-.1.2 0 .2.1.2.1.1.2.1v.1c.1.1.1.1.2.1s.2 0 .2-.1.1-.1.1-.2 0-.2-.1-.2-.1-.2-.2-.1c0-.1 0 0 0 0m-8 4.9c.1.1.1.1.2.1s.2 0 .2-.1.1-.1.1-.2 0-.2-.1-.2-.1-.1-.2-.1-.2 0-.2.1-.1.1-.1.2.1.1.1.2m8.3-3.7V17c0-.1 0-.2-.1-.2s-.1-.1-.2-.1-.2 0-.2.1-.1.1-.1.2 0 .2.1.2.1.1.2.1.2 0 .3-.1m-1.2-2.9c-.1 0-.2 0-.2.1s-.1.1-.1.2 0 .2.1.2.1.1.2.1.2 0 .2-.1.1-.1.1-.2 0-.2-.1-.2-.2-.1-.2-.1m1.2-1.1c-.1 0-.2 0-.2.1s-.1.1-.1.2 0 .2.1.2.1.1.2.1.2 0 .2-.1.1-.1.1-.2 0-.2-.1-.2-.1-.1-.2-.1m.1 1.4c-.1 0-.2 0-.2.1s-.1.1-.1.2 0 .2.1.2.1.1.2.1.2 0 .2-.1.1-.1.1-.2 0-.2-.1-.2-.1-.1-.2-.1m-1.3.8c-.1 0-.2 0-.2.1s-.1.1-.1.2 0 .2.1.2.1.1.2.1.2 0 .2-.1.1-.1.1-.2 0-.2-.1-.2-.1-.1-.2-.1m-.1-2.5c-.1 0-.2 0-.2.1s-.1.1-.1.2 0 .2.1.2.1.1.2.1.2 0 .2-.1.1-.1.1-.2 0-.2-.1-.2-.1-.1-.2-.1m-4.4 8.4c.1 0 .2 0 .2-.1s.1-.1.1-.2 0-.2-.1-.2-.1-.1-.2-.1-.2 0-.2.1-.1.1-.1.2 0 .2.1.2.1.1.2.1" class="st0"/><path d="M14.3 17.7c0-.1 0-.2-.1-.2s-.1-.1-.2-.1-.2 0-.2.1-.1.1-.1.2 0 .2.1.2.1.1.2.1.2 0 .2-.1.1-.2.1-.2M11.7 20h-.2c-.1 0-.2 0-.2.1s-.1.1-.1.2 0 .2.1.2.1.1.2.1.2 0 .2-.1.1-.1.1-.2 0-.2-.1-.3m3.1-1.8c.1-.1.1-.1.1-.2s0-.2-.1-.2-.1-.1-.2-.1-.2 0-.2.1-.1.1-.1.2 0 .2.1.2.1.1.2.1.1 0 .2-.1m-.6 2.3c.1 0 .2 0 .2-.1s.1-.1.1-.2 0-.2-.1-.2-.1-.1-.2-.1-.2 0-.2.1v.2c0 .1 0 .2.1.2s.1.1.1.1m4-3.4c0 .1 0 .1.1.2h-.1c-.1.1-.1.1-.1.2s0 .2.1.2.1.1.2.1.2 0 .2-.1.1-.1.1-.2 0-.1-.1-.2h.1c.1-.1.1-.1.1-.2s0-.2-.1-.2-.1-.1-.2-.1-.2 0-.2.1-.1.1-.1.2m-3-.7c.1-.1.1-.1.1-.2s0-.2-.1-.2-.1-.1-.2-.1-.2 0-.2.1-.1.1-.1.2c0 0-.1-.1-.2-.1s-.2 0-.2.1c-.1.1-.1.1-.1.2-.1-.1-.1-.1-.2-.1s-.2 0-.2.1v.1s0-.1-.1-.1c-.1-.1-.1-.1-.2-.1h-.1c-.1 0-.2 0-.2.1s-.1.1-.1.2 0 .2.1.2.1.1.2.1h.1c.1 0 .2 0 .2-.1v-.1s0 .1.1.1c.1.1.1.1.2.1s.2 0 .2-.1c.1-.1.1-.1.1-.2.1.1.1.1.2.1s.2 0 .2-.1.1-.1.1-.2c0 0 .1.1.2.1s.2-.1.2-.1m1-2.6c-.1 0-.2 0-.2.1s-.1.1-.1.2 0 .2.1.2.1.1.2.1.2 0 .2-.1.1-.1.1-.2 0-.2-.1-.2-.1-.1-.2-.1m.6 4.2c.1 0 .2 0 .2-.1s.1-.1.1-.2 0-.2-.1-.2-.1-.1-.2-.1-.2 0-.2.1-.1.1-.1.2 0 .2.1.2.2.1.2.1m-5.9-6.9c0-.1 0-.1-.1-.2s-.1-.1-.2-.1-.2 0-.2.1-.1.1-.1.2 0 .2.1.2.1.1.2.1c0 .1 0 .1.1.2s.1.1.2.1.2 0 .2-.1.1-.1.1-.2 0-.2-.1-.2-.1-.1-.2-.1M9 15c.1.1.1.1.2.1s.2 0 .2-.1.1-.1.1-.2 0-.2-.1-.2-.1-.1-.2-.1-.2.1-.2.1-.1.1-.1.2 0 .2.1.2m-.1 3.9c.1 0 .2 0 .2-.1s.1-.1.1-.2 0-.2-.1-.2h-.2c-.1 0-.2 0-.2.1s-.1.1-.1.2 0 .2.1.2zm1-4.3c-.1 0-.2 0-.2.1s-.1.1-.1.2 0 .2.1.2.1.1.2.1.2 0 .2-.1.1-.1.1-.2 0-.2-.1-.2-.1-.1-.2-.1m.5-.5c.1.1.1.1.2.1s.2 0 .2-.1.1-.1.1-.2 0-.2-.1-.2-.1-.1-.2-.1-.2 0-.2.1-.1.1-.1.2.1.2.1.2" class="st0"/><path d="M10.1 14.1c-.1 0-.2 0-.2.1s-.1.1-.1.2 0 .2.1.2.1.1.2.1.2 0 .2-.1.1-.1.1-.2 0-.2-.1-.2-.1-.1-.2-.1m-1.5.1c-.1 0-.2 0-.2.1s-.1.1-.1.2 0 .2.1.2.1.1.2.1.2 0 .2-.1.1-.1.1-.2 0-.2-.1-.2-.1-.1-.2-.1M8.3 18c-.1 0-.2 0-.2.1s-.1.1-.1.2 0 .2.1.2.1.1.2.1.2 0 .2-.1.1-.1.1-.2 0-.2-.1-.2-.1-.1-.2-.1m-1.1-.8c0-.1 0-.1-.1-.2 0 0-.1-.1-.2-.1s-.2 0-.2.1-.1.1-.1.2 0 .2.1.2.1.1.2.1c0 .1 0 .1.1.2s.1.1.2.1.2 0 .2-.1.1-.1.1-.2 0-.2-.1-.2-.1-.1-.2-.1m-1.3-.3c-.1.1-.1.1-.1.2s0 .2.1.2.1.1.2.1.2 0 .2-.1.1-.1.1-.2 0-.2-.1-.2-.1-.1-.2-.1-.2 0-.2.1m-1.1.6-.1-.1c-.1 0-.1 0-.1.1l-.1-.1c-.1 0-.2 0-.2.1s-.1.1-.1.2 0 .2.1.2 0 .1.1.1.1 0 .1-.1l.1.1c.1 0 .1 0 .1-.1l.1.1c.1 0 .2 0 .2-.1s.1-.1.1-.2 0-.2-.1-.2.1-.1 0-.1-.1 0-.2.1m.7-3.5c.1-.1.1-.1.1-.2s0-.2-.1-.2-.1-.1-.2-.1-.2 0-.2.1-.1.1-.1.2 0 .2.1.2.1.1.2.1.2-.1.2-.1m1-2.8c.1 0 .2 0 .2-.1s.1-.1.1-.2 0-.2-.1-.2-.1-.1-.2-.1-.2 0-.2.1-.1.1-.1.2 0 .2.1.2.1.1.2.1m.1 4.3c-.1 0-.2 0-.2.1s-.1.1-.1.2 0 .2.1.2.1.1.2.1.2 0 .2-.1.1-.1.1-.2 0-.2-.1-.2-.1-.1-.2-.1m.9 3.3c0-.1 0-.2-.1-.2s-.1-.1-.2-.1-.2 0-.2.1-.1.1-.1.2 0 .2.1.2.1.1.2.1.2 0 .2-.1.1-.1.1-.2m-.6 1.6c-.1.1-.1.1-.1.2s0 .2.1.2.1.1.2.1.2 0 .2-.1.1-.1.1-.2 0-.2-.1-.2-.1-.1-.2-.1-.2 0-.2.1m1.9-2.3c.1 0 .2 0 .2-.1s.1-.1.1-.2 0-.2-.1-.2-.1-.1-.2-.1-.2 0-.2.1-.1.1-.1.2 0 .2.1.2.2.1.2.1m9.4-5.6c-.1 0-.2 0-.2.1s-.1.1-.1.2 0 .2.1.2.1.1.2.1.2 0 .2-.1.1-.1.1-.2 0-.2-.1-.2-.2-.1-.2-.1m-.5-1.5c-.1 0-.2 0-.2.1s-.1.1-.1.2 0 .2.1.2.1.1.2.1.2 0 .2-.1.1-.1.1-.2 0-.2-.1-.2-.1-.1-.2-.1m-2 2.3c-.1 0-.2 0-.2.1s-.1.1-.1.2 0 .2.1.2.1.1.2.1.2 0 .2-.1.1-.1.1-.2 0-.2-.1-.2-.1-.1-.2-.1m2.7 1.1c.1-.1.1-.1.1-.2s0-.2-.1-.2-.1-.1-.2-.1-.2 0-.2.1-.1.1-.1.2 0 .2.1.2.1.1.2.1.1-.1.2-.1m1.3 4c.1.1.1.1.2.1s.2 0 .2-.1.1-.1.1-.2 0-.2-.1-.2c0 0-.1-.1-.2-.1 0-.1 0-.2-.1-.2s-.1-.1-.2-.1-.2 0-.2.1-.1.1-.1.2 0 .2.1.2c0 0 .1.1.2.1 0 0 0 .1.1.2M17.4 16c0 .1 0 .2.1.2s.1.1.2.1.2 0 .2-.1.1-.1.1-.2 0-.1-.1-.2h.1c.1-.1.1-.1.1-.2s0-.2-.1-.2-.1-.1-.2-.1-.2 0-.2.1-.1.1-.1.2 0 .1.1.2h-.1s-.1.1-.1.2m-7-.7c-.1.1-.1.1-.1.2s0 .2.1.2.1.1.2.1.2 0 .2-.1.1-.1.1-.2 0-.2-.1-.2-.1-.1-.2-.1-.1 0-.2.1m7.7 1.8c0-.1 0-.2-.1-.2 0 0-.1-.1-.2-.1v-.1c-.1-.1-.1-.1-.2-.1s-.2 0-.2.1-.1.1-.1.2 0 .2.1.2c0 0 .1.1.2.1v.1c.1.1.1.1.2.1s.2 0 .2-.1.1-.1.1-.2m-.2 2.1c.1-.3.1-.5.1-.8s0-.6-.2-.7l-.9.5-.2.8-.2.6h1.2s.1-.1.2-.4m-.6.2c-.1-.1-.1-.1-.1-.2s0-.2.1-.2.1-.1.2-.1.2 0 .2.1.1.1.1.2 0 .2-.1.2-.1.1-.2.1-.1 0-.2-.1m-5.4-5.6c-.1 0-.2 0-.2.1s-.1.1-.1.2 0 .2.1.2.1.1.2.1.2 0 .2-.1.1-.1.1-.2 0-.2-.1-.2-.1-.1-.2-.1m.8 1c-.1.1-.1.1-.1.2s0 .2.1.2.1.1.2.1.2 0 .2-.1.1-.1.1-.2 0-.2-.1-.2-.1-.1-.2-.1c0 .1-.1.1-.2.1m-.3.4c-.1 0-.2 0-.2.1s-.1.1-.1.2 0 .2.1.2.1.1.2.1.2 0 .2-.1.1-.1.1-.2 0-.2-.1-.2-.1-.1-.2-.1m-1.2-.2c.1-.1.1-.1.1-.2s0-.2-.1-.2-.1-.1-.2-.1-.2 0-.2.1-.1.1-.1.2 0 .2.1.2.1.1.2.1.1-.1.2-.1m4-4H15s-.1.1-.1.2 0 .2.1.2.1.1.2.1.2 0 .2-.1.1-.1.1-.2 0-.2-.1-.2zm0-.8c-.1 0-.2 0-.2.1s-.1.1-.1.2 0 .2.1.2.1.1.2.1.2 0 .2-.1.1-.1.1-.2 0-.2-.1-.2-.2-.1-.2-.1m-2.2 4v.2c0 .1 0 .2.1.2s.1.1.2.1.2 0 .2-.1.1-.1.1-.2 0-.2-.1-.2-.1-.1-.2-.1-.2 0-.3.1" class="st0"/><path d="M13.4 14c0 .1 0 .2.1.2s.1.1.2.1.2 0 .2-.1.1-.1.1-.2 0-.2-.1-.2-.1-.1-.2-.1-.2 0-.2.1-.1.1-.1.2M2.7 23.4l-.2-.4c-.1.1-.2.3-.3.5-.1.3-.1.5-.2.7s0 .3 0 .3h1l-.1-.5zm23.2-8.9h-.1c0-.1 0-.1-.1-.2 0 0-.1-.1-.2-.1v-.1c-.1-.1-.1-.1-.2-.1s-.2 0-.2.1-.1.1-.1.2 0 .2.1.2c0 0 .1.1.2.1v.1h.1c0 .1 0 .1.1.2s.1.1.2.1h.1v.1c.1.1.1.1.2.1s.2 0 .2-.1V15h.1c.1 0 .2 0 .2-.1s.1-.1.1-.2 0-.2-.1-.2-.1-.1-.2-.1c0-.1 0-.1-.1-.2s-.1-.1-.2-.1-.2 0-.2.1.1.2.1.3c0 0 0 .1.1.1-.1 0-.1-.1-.1-.1m3.4 1.1c-.1 0-.2 0-.2.1s-.1.1-.1.1 0 .2.1.2.1.1.2.1.2 0 .2-.1.1-.1.1-.2 0-.2-.1-.2zm-1.2 6.7c.1 0 .2 0 .2-.1s.1-.1.1-.2 0-.2-.1-.2-.1-.1-.2-.1-.2 0-.2.1-.1.1-.1.2 0 .2.1.2.1.1.2.1m1.4-8.3c-.1-.1-.1-.1-.2-.1s-.2 0-.2.1-.1.1-.1.2 0 .2.1.2.1.1.2.1.2 0 .2-.1.1-.1.1-.2 0-.2-.1-.2m-7.1-3.5c-.1.1-.1.1-.1.2s0 .2.1.2.1.1.2.1.2 0 .2-.1.1-.1.1-.2 0-.2-.1-.2-.1-.1-.2-.1-.2.1-.2.1m-5.6 4.3c.1 0 .2 0 .2-.1s.1-.1.1-.2 0-.2-.1-.2-.1-.1-.2-.1-.2 0-.2.1-.1.1-.1.2 0 .2.1.2.1.1.2.1m4.7-1.1c-.1-.1-.1-.1-.2-.1s-.2 0-.2.1-.1.1-.1.2 0 .2.1.2.1.1.2.1c0 .1 0 .2.1.2s.1.1.2.1.2 0 .2-.1.1-.1.1-.2 0-.2-.1-.2-.1-.1-.2-.1c0-.1-.1-.1-.1-.2m-1 1.8c.1.1.1.1.2.1s.2 0 .2-.1.1-.1.1-.2 0-.2-.1-.2-.1-.1-.2-.1-.2 0-.2.1-.1.1-.1.2 0 .1.1.2m0-5.7c-.1-.1-.1-.1-.2-.1s-.2 0-.2.1-.1.1-.1.2 0 .2.1.2.1.1.2.1.2 0 .2-.1.1-.1.1-.2 0-.2-.1-.2m7.1 12.9c.1 0 .2 0 .2-.1s.1-.1.1-.2 0-.2-.1-.2-.1-.1-.2-.1-.2 0-.2.1-.1.1-.1.2 0 .2.1.2.1.1.2.1m.1-6c0 .1 0 .2.1.2s.1.1.2.1.2 0 .2-.1.1-.1.1-.2 0-.2-.1-.2-.1-.1-.2-.1-.2 0-.2.1-.1.1-.1.2m-11.5-.9c0 .1 0 .2.1.2s.1.1.2.1.2 0 .2-.1.1-.1.1-.2 0-.1-.1-.2c0 0 .1.1.2.1v.1c.1.1.1.1.2.1s.2 0 .2-.1.1-.1.1-.2 0-.2-.1-.2c0 0-.1-.1-.2-.1v-.1c-.1-.1-.1-.1-.2-.1s-.2 0-.2.1-.1.1-.1.2 0 .1.1.2c-.1 0-.1-.1-.2-.1s-.2 0-.2.1-.1.1-.1.2m13.5-5c0-.1 0-.2-.1-.2s-.1-.1-.2-.1-.2 0-.2.1-.1.1-.1.2 0 .2.1.2.1.1.2.1.2 0 .2-.1.1-.1.1-.2m-1.4 5.3c.1-.1.1-.1.1-.2s0-.2-.1-.2-.1-.1-.2-.1-.2 0-.2.1-.1.1-.1.2 0 .2.1.2.1.1.2.1.1-.1.2-.1m-1 4c-.1-.1-.1-.1-.2-.1s-.2 0-.2.1-.1.1-.1.2 0 .2.1.2.1.1.2.1.2 0 .2-.1.1-.1.1-.2 0-.1-.1-.2m.6-8c-.1.1-.1.1-.1.2s0 .2.1.2h.1c0 .1 0 .2.1.2s.1.1.2.1.1 0 .1-.1v.1c.1.1.1.1.2.1s.2 0 .2-.1.1-.1.1-.2 0-.2-.1-.2-.1-.1-.2-.1-.1 0-.1.1v-.1h-.1c0-.1 0-.2-.1-.2s-.1-.1-.2-.1-.2 0-.2.1" class="st0"/><path d="M28.9 10.8c-.1 0-.2 0-.2.1s-.1.1-.1.2 0 .2.1.2.1.1.2.1.2 0 .2-.1.1-.1.1-.2 0-.2-.1-.2-.1-.1-.2-.1m-.5-.5c-.1 0-.2 0-.2.1s-.1.1-.1.2 0 .2.1.2.1.1.2.1.2 0 .2-.1.1-.1.1-.2 0-.2-.1-.2-.1-.1-.2-.1m-5.3-.3c.1-.1.1-.1.1-.2s0-.2-.1-.2-.1-.1-.2-.1-.2 0-.2.1-.1.1-.1.2 0 .2.1.2.1.1.2.1c.1-.1.2-.1.2-.1m-19.8.7c.1-.1.1-.1.1-.2s0-.2-.1-.2-.1-.1-.2-.1-.2 0-.2.1-.1.1-.1.2 0 .2.1.2.1.1.2.1.2-.1.2-.1m-1.2 3.6c-.1.1-.1.1-.1.2s0 .2.1.2.1.1.2.1.2 0 .2-.1.1-.1.1-.2v-.1l.1.1c.1 0 .2 0 .2-.1s.1-.1.1-.2V14s-.1-.1-.2-.1-.2 0-.2.1-.1.1-.1.2v.1l-.1-.1c-.1 0-.2 0-.3.1m.9-2.8c.1.1.1.1.2.1s.2 0 .2-.1.1-.1.1-.2 0-.2-.1-.2-.2-.1-.2-.1-.2 0-.2.1-.1.1-.1.2 0 .1.1.2m4.5 2.9c0 .1 0 .2.1.2s.1.1.2.1.2 0 .2-.1.1-.1.1-.2c.1 0 .1 0 .2-.1s.1-.1.1-.2 0-.2-.1-.2-.2-.1-.3-.1-.2 0-.2.1v.2c-.1 0-.1 0-.2.1-.1 0-.1.1-.1.2m-4-.7c-.1.1-.1.1-.1.2s0 .2.1.2.1.1.2.1.1 0 .1-.1v.1c0 .1 0 .2.1.2s.1.1.2.1.2 0 .2-.1.1-.1.1-.2 0-.2-.1-.2-.1-.1-.2-.1L4 14v-.2l.1.1c.1 0 .2 0 .2-.1s.1-.1.1-.2 0-.2-.1-.2-.1-.1-.2-.1-.2 0-.2.1-.1.1-.1.2v.1l-.1-.1c-.1.1-.1.1-.2.1M5 18.1c-.1 0-.2 0-.2.1s-.1.1-.1.2 0 .2.1.2.1.1.2.1.2 0 .2-.1.1-.1.1-.2 0-.2-.1-.2-.1-.1-.2-.1m-2.5-1.5c0-.1 0-.2-.1-.2s-.1-.1-.2-.1-.2 0-.2.1-.1.1-.1.2 0 .2.1.2.1.1.2.1.2 0 .2-.1.1-.1.1-.2m-.7 2.2c-.1.1-.1.1-.1.2s0 .2.1.2.1.1.2.1.2 0 .2-.1.1-.1.1-.2 0-.2-.1-.2-.1-.1-.2-.1-.1 0-.2.1M13.3 11c.1.1.1.1.2.1s.1 0 .1-.1l.1.1c.1 0 .1 0 .1-.1l.1.1c.1 0 .2 0 .2-.1 0 0 0-.1.1-.1 0 .1 0 .1.1.2s.1.1.2.1.2 0 .2-.1.1-.1.1-.2 0-.2-.1-.2-.1-.1-.2-.1-.2 0-.2.1c0 0 0 .1-.1.1 0-.1 0-.1-.1-.2s-.1-.1-.2-.1-.1 0-.1.1l-.1-.1h-.1v-.1c0-.1 0-.2-.1-.2s-.1-.1-.2-.1-.2 0-.2.1-.1.1-.1.2 0 .2.1.2c0 0-.1.1-.1.2.2.1.3.2.3.2m-4.1 2.5s-.1.1-.1.2 0 .2.1.2.1.1.2.1.2 0 .2-.1.1-.1.1-.2 0-.2-.1-.2c-.1-.1-.1-.1-.2-.1 0 0 .1-.1.1-.2 0 0 .1.1.2.1s.2 0 .2-.1.1-.1.1-.2l.1.1c.1 0 .2 0 .2-.1s.1-.1.1-.2 0-.2-.1-.2-.1-.1-.2-.1-.2 0-.2.1-.1.1-.1.2l-.1-.1c-.1 0-.2 0-.2.1s-.2.1-.2.2c0 0-.1-.1-.2-.1 0 .1-.1.1-.1.1s-.1.1-.1.2 0 .2.1.2c0 .1.1.1.2.1m12.4 8.6c.1 0 .2 0 .2-.1s.1-.1.1-.2 0-.2-.1-.2-.1-.1-.2-.1-.2 0-.2.1-.1.1-.1.2 0 .2.1.2.1.1.2.1m-10.4-9.4c-.1.1-.1.1-.1.2 0 0-.1-.1-.2-.1s-.2 0-.2.1-.1.1-.1.2v.1c0 .1 0 .2.1.2s.1.1.2.1.2 0 .2-.1.1-.1.1-.2v-.1s.1.1.2.1.2 0 .2-.1.1-.1.1-.2l.1.1c.1 0 .2 0 .2-.1s.1-.1.1-.2 0-.2-.1-.2-.1-.1-.2-.1-.2 0-.2.1-.1.1-.1.2l-.1-.1c-.1.1-.1.1-.2.1M8.9 9.8c-.1 0-.2 0-.2.1s-.1.1-.1.2 0 .2.1.2.1.1.2.1.2 0 .2-.1.1-.1.1-.2 0-.2-.1-.2-.1-.1-.2-.1m-.5 2.3c0 .1 0 .2.1.2s.1.1.2.1.2 0 .2-.1.1-.1.1-.2c0 0 .1.1.2.1s.2 0 .2-.1.1-.1.1-.2l.1.1c.1 0 .2 0 .2-.1s.1-.1.1-.2 0-.2-.1-.2-.1-.1-.2-.1-.2 0-.2.1-.1.1-.1.2l-.1-.1c-.1 0-.2 0-.2.1s-.1.1-.1.2c0 0-.1-.1-.2-.1s-.2 0-.2.1-.1.1-.1.2m-.8 5.8c.1.1.1.1.2.1s.2 0 .2-.1.1-.1.1-.2v-.1l.1.1c.1 0 .2 0 .2-.1s.1-.1.1-.2 0-.2-.1-.2-.1-.1-.2-.1-.2 0-.2.1-.1.1-.1.2v.1l-.1-.1c-.1 0-.2 0-.2.1s-.1.1-.1.2 0 .1.1.2m1.7-7.6c-.1.1-.1.1-.1.2s0 .2.1.2.1.1.2.1.2 0 .2-.1.1-.1.1-.2 0-.2-.1-.2-.1-.1-.2-.1-.2 0-.2.1m.1-.9c-.1 0-.2 0-.2.1v.2c0 .1 0 .2.1.2s.1.1.1.1c.1 0 .2 0 .2-.1s.1-.1.1-.2 0-.2-.1-.2-.1-.1-.2-.1M7.7 16c-.1.1-.1.1-.1.2s0 .2.1.2.1.1.2.1.2 0 .2-.1.1-.1.1-.2 0-.2-.1-.2-.1-.1-.2-.1-.2 0-.2.1m15-1.4c-.1-.1-.1-.1-.2-.1s-.2 0-.2.1-.1.1-.1.2 0 .2.1.2.1.1.2.1.2 0 .2-.1.1-.1.1-.2-.1-.1-.1-.2m-.6 2.2c0-.1 0-.2-.1-.2s-.1-.1-.2-.1h-.1c-.1 0-.2 0-.2.1s-.1.1-.1.2 0 .2.1.2.1.1.2.1h.1c.1 0 .2 0 .2-.1s.1-.1.1-.2m-.4-1.6c.1 0 .2 0 .2-.1s.1-.1.1-.2 0-.2-.1-.2-.1-.1-.2-.1-.2 0-.2.1-.1.1-.1.2 0 .2.1.2.1.1.2.1m1.8.5c-.1.1-.1.1-.1.2s0 .2.1.2.1.1.2.1.2 0 .2-.1.1-.1.1-.2 0-.2-.1-.2-.1-.1-.2-.1-.2.1-.2.1" class="st0"/><path d="M22.5 15.9s0-.1-.1-.1c-.1-.1-.1-.1-.2-.1s-.1 0-.1.1h-.2v-.1c0-.1 0-.2-.1-.2s-.1-.1-.2-.1-.2 0-.2.1-.1.1-.1.2H21v1.2l.6-.2.7-.2.4-.2c0-.3-.1-.4-.2-.4m.5-2.5c-.1 0-.2 0-.2.1s-.1.1-.1.2 0 .2.1.2.1.1.2.1.2 0 .2-.1.1-.1.1-.2 0-.2-.1-.2-.1-.1-.2-.1m.8 7.1c.1-.1.1-.1.1-.2s0-.2-.1-.2-.1-.1-.2-.1-.2 0-.2.1-.1.1-.1.2 0 .2.1.2.1.1.2.1.2 0 .2-.1m-.8 1.4v.2c0 .1 0 .2.1.2s.1.1.2.1.2 0 .2-.1.1-.1.1-.2 0-.2-.1-.2-.1-.1-.2-.1-.2.1-.3.1m-.9-3.1c.1 0 .2 0 .2-.1s.1-.1.1-.2 0-.2-.1-.2-.1-.1-.2-.1-.2 0-.2.1-.1.1-.1.2 0 .2.1.2.1.1.2.1m-.2-5.8c.1 0 .2 0 .2-.1s.1-.1.1-.2v-.1l.1.1c.1 0 .2 0 .2-.1s.1-.1.1-.2 0-.2-.1-.2-.1-.1-.2-.1-.2 0-.2.1-.1.2-.1.2v.1l-.1-.1c-.1 0-.2 0-.2.1s-.1.1-.1.2 0 .2.1.2.1.1.2.1m-.2-1.9v.1c0 .1 0 .2.1.2s.1.1.2.1.2 0 .2-.1.1-.1.1-.2 0-.2-.1-.2h-.1v-.1c0-.1 0-.2-.1-.2s-.1-.1-.2-.1-.2 0-.2.1-.1.1-.1.2.1.2.2.2m.7 2.5c.1 0 .2 0 .2-.1s.1-.1.1-.2 0-.2-.1-.2-.1-.1-.2-.1-.2 0-.2.1-.1.1-.1.2 0 .2.1.2.1.1.2.1m-1.8 3.9s-.1-.1-.2-.1-.2 0-.2.1-.1.1-.1.2 0 .2.1.2c0 0 .1 0 .2.1 0 .1-.1.2-.1.3-.1.1-.1.1-.1.2s0 .1.1.1v.1h1.2l-.2-.7-.2-.7-.4-.2c0 .3-.1.3-.1.4m7.8 1.2c0-.1 0-.2-.1-.2s-.1-.1-.2-.1-.2 0-.2.1-.1.1-.1.2 0 .2.1.2.1.1.2.1.2 0 .2-.1.1-.1.1-.2m-5.6-4.5c0-.1 0-.2-.1-.2s-.1-.1-.2-.1-.2 0-.2.1-.1.1-.1.2 0 .2.1.2.1.1.2.1.2 0 .2-.1.1-.1.1-.2m.1-1.6c-.1 0-.2 0-.2.1s-.1.1-.1.2 0 .2.1.2.1.1.2.1.2 0 .2-.1.1-.1.1-.2 0-.2-.1-.2-.1-.1-.2-.1m-.7-3.1c-.1 0-.2 0-.2.1s-.1.1-.1.2 0 .2.1.2.1.1.2.1.2 0 .2-.1.1-.1.1-.2 0-.2-.1-.2-.2-.1-.2-.1" class="st0"/><path d="M21.7 10.1c-.1 0-.2 0-.2.1s-.1.1-.1.2 0 .2.1.2.1.1.2.1.2 0 .2-.1.1-.1.1-.2 0-.2-.1-.2-.2-.1-.2-.1m4.8 2.6c-.1 0-.2 0-.2.1s-.1.1-.1.2 0 .2.1.2.1.1.2.1.2 0 .2-.1.1-.1.1-.2 0-.2-.1-.2-.1-.1-.2-.1m0 5.8c.1-.1.1-.1.1-.2s0-.2-.1-.2-.1-.1-.2-.1-.2 0-.2.1-.1.1-.1.2 0 .2.1.2.1.1.2.1.2 0 .2-.1m-2.6-3.4c.1.1.1.1.2.1s.2 0 .2-.1.1-.1.1-.2 0-.2-.1-.2-.1-.1-.2-.1-.2 0-.2.1-.1.1-.1.2 0 .1.1.2m2.9.2c.1.1.1.1.2.1s.2 0 .2-.1.1-.1.1-.2 0-.2-.1-.2-.1-.1-.2-.1-.2 0-.2.1-.1.1-.1.2c.1 0 .1.1.1.2m.7-.1c-.1 0-.2 0-.2.1s-.1.1-.1.2 0 .2.1.2.1.1.2.1.2 0 .2-.1.1-.1.1-.2 0-.2-.1-.2-.1-.1-.2-.1m-.4-2.1c-.1 0-.2 0-.2.1s-.1.1-.1.2 0 .2.1.2.1.1.2.1.2 0 .2-.1.1-.1.1-.2 0-.2-.1-.2-.1-.1-.2-.1m.8 2.2c.1.1.1.1.2.1s.2 0 .2-.1.1-.1.1-.2 0-.2-.1-.2-.1-.1-.2-.1-.2 0-.2.1-.1.1-.1.2c0 0 0 .1.1.2m-2.4 1.4v.4c0 .1.1.1.1.1s.1 0 .1-.1v-.4zc.1 0 0 0 0 0m.4 2.9c-.1.1-.1.1-.1.2s0 .2.1.2.1.1.2.1.2 0 .2-.1.1-.1.1-.2 0-.2-.1-.2-.1-.1-.2-.1-.2 0-.2.1M24.5 15c-.1.1-.1.2-.1.3v.2l.1.1s.1 0 .1-.1v-.2c0-.1 0-.2-.1-.3.1 0 0 0 0 0m0 1.3c0-.1 0-.2-.1-.2s-.1-.1-.2-.1-.2 0-.2.1-.1.1-.1.2 0 .2.1.2.1.1.2.1.2 0 .2-.1.1-.1.1-.2m-.3-3.3c-.1 0-.2 0-.2.1v.1s0 .2.1.2.1.1.2.1.2 0 .2-.1.1-.1.1-.2 0-.2-.1-.2zm-.4 1.2c0 .1 0 .2.1.2s.1.1.2.1.2 0 .2-.1.1-.1.1-.2 0-.2-.1-.2h-.4c-.1 0-.1.2-.1.2m1.2 2.6c.1.1.1.1.2.1s.2 0 .2-.1.1-.1.1-.2 0-.2-.1-.2-.1-.1-.2-.1-.2 0-.2.1-.1.1-.1.2c0 0 0 .1.1.2m0-.7c.1.1.1.1.2.1s.2 0 .2-.1.1-.1.1-.2 0-.2-.1-.2-.1-.1-.2-.1-.2 0-.2.1-.1.1-.1.2.1.2.1.2m-.3 2.6c0 .1 0 .2.1.2s.1.1.2.1.2 0 .2-.1.1-.1.1-.2 0-.2-.1-.2-.1-.1-.2-.1-.2 0-.2.1-.1.1-.1.2m-.2-1.6c-.1 0-.2 0-.2.1s-.1.1-.1.2 0 .2.1.2.1.1.2.1.2 0 .2-.1.1-.1.1-.2 0-.2-.1-.2-.1-.1-.2-.1m-1.4-2.8c-.1 0-.2 0-.2.1s-.1.1-.1.2 0 .2.1.2.1.1.2.1.2 0 .2-.1.1-.1.1-.2 0-.2-.1-.2-.1-.1-.2-.1m-2.5-4.7c0 .1 0 .2.1.2s.1.1.2.1.2 0 .2-.1.1-.1.1-.2 0-.2-.1-.2-.1-.1-.2-.1-.2 0-.2.1-.1.1-.1.2m-.4-1c0 .1 0 .1.1.2s.1.1.2.1.2 0 .2-.1.1-.1.1-.2 0-.2-.1-.2-.1-.1-.2-.1c0-.1 0-.1-.1-.2s-.1-.1-.2-.1-.2 0-.2.1-.1.1-.1.2 0 .2.1.2.1.1.2.1m.7 1.5c-.1 0-.2 0-.2.1s-.1.1-.1.2 0 .2.1.2.1.1.2.1.2 0 .2-.1.1-.1.1-.2 0-.2-.1-.2-.1-.1-.2-.1m-1.3 0c-.1 0-.2 0-.2.1s-.1.1-.1.2 0 .2.1.2.1.1.2.1.2 0 .2-.1.1-.1.1-.2 0-.2-.1-.2-.1-.1-.2-.1m.3 1.5c.1.1.1.1.2.1s.2 0 .2-.1.1-.1.1-.2 0-.2-.1-.2-.1-.1-.2-.1-.2 0-.2.1-.1.1-.1.2.1.2.1.2M23 8.2c.1 0 .2 0 .2-.1s.1-.1.1-.2 0-.2-.1-.2-.1-.1-.2-.1-.2 0-.2.1-.1.1-.1.2 0 .2.1.2.1.1.2.1m-.9 1c.1 0 .2 0 .2-.1s.1-.1.1-.2 0-.2-.1-.2-.1-.1-.2-.1-.2 0-.2.1-.1.2-.1.3 0 .2.1.2zM21 12c-.1 0-.2 0-.2.1s-.1.1-.1.2 0 .2.1.2.1.1.2.1c0 .1 0 .1.1.2s.1.1.2.1.2 0 .2-.1.1-.1.1-.2 0-.2-.1-.2-.1-.1-.2-.1c0-.1 0-.1-.1-.2 0-.1-.1-.1-.2-.1m.6-2.3c.1 0 .2 0 .2-.1s.1-.1.1-.2 0-.2-.1-.2-.1-.1-.2-.1-.2 0-.2.1-.1.1-.1.2 0 .2.1.2.1.1.2.1m.8-1.1c.1 0 .2 0 .2-.1s.1-.1.1-.2 0-.2-.1-.2-.1-.1-.2-.1-.2 0-.2.1-.1.1-.1.2 0 .2.1.2.2.1.2.1m-4.2 2.8c-.1 0-.2 0-.2.1v.2c0 .1 0 .2.1.2s.1.1.2.1.2 0 .2-.1.1-.1.1-.2 0-.2-.1-.2-.2-.1-.3-.1m-.3-.5c0 .1 0 .2.1.2s.1.1.2.1.2 0 .2-.1.1-.1.1-.2 0-.2-.1-.2-.1-.1-.2-.1-.2 0-.2.1-.1.1-.1.2m1.5-1.5c-.1.1-.1.1-.1.2s0 .2.1.2.1.1.2.1.2 0 .2-.1.1-.1.1-.2 0-.2-.1-.2-.1-.1-.2-.1-.2 0-.2.1m-1.6-.6c.1 0 .2 0 .2-.1s.1-.1.1-.2 0-.2-.1-.2-.1-.1-.2-.1-.2 0-.2.1-.1.1-.1.2 0 .2.1.2.2.1.2.1m.6 3.5c0 .1 0 .2.1.2s.1.1.2.1.2 0 .2-.1.1-.1.1-.2 0-.2-.1-.2-.1-.1-.2-.1-.2 0-.2.1-.1.2-.1.2m.6-3.6c0 .1 0 .1.1.2s.1.1.2.1.2 0 .2-.1.1-.1.1-.2 0-.2-.1-.2-.1-.1-.2-.1c0-.1 0-.1-.1-.2s-.1-.1-.2-.1-.2 0-.2.1-.1.1-.1.2 0 .2.1.2.1.1.2.1m0 3.2c.1 0 .2 0 .2-.1s.1-.1.1-.2 0-.2-.1-.2-.1-.1-.2-.1-.2 0-.2.1-.1.1-.1.2 0 .2.1.2.1.1.2.1m0-1.6c.1 0 .2 0 .2-.1s.1-.1.1-.2 0-.2-.1-.2-.1-.1-.2-.1-.2 0-.2.1-.1.1-.1.2 0 .2.1.2.1.1.2.1M29 9q0 .15 0 0h-.1c-.1 0-.2 0-.2.1s-.1.1-.1.2 0 .2.1.2.1.1.2.1.1 0 .1-.1v.1c.1.1.1.1.2.1s.2 0 .2-.1.1-.1.1-.2 0-.1-.1-.2c.1-.1.1-.1.1-.2s0-.2-.1-.2-.1-.1-.2-.1-.2 0-.2.1z" class="st0"/><path d="M27.9 7.8h.1V8c-.1.2-.1.4-.2.7-.1.1-.1.1-.1.2s0 .2.1.2.1.1.2.1c0 .1 0 .1.1.2s.1.1.2.1.2 0 .2-.1.1-.1.1-.2v-.1h.4l-.4-1.2-.2-.4-.1.1c0-.1 0-.1-.1-.2s-.1-.1-.2-.1-.2 0-.2.1-.1.1-.1.2 0 .2.1.2z" class="st0"/><path d="M28.9 8.1c.1 0 .2 0 .2-.1s.1-.1.1-.2 0-.2-.1-.2h-.2c-.1 0-.2 0-.2.1s-.1.1-.1.2 0 .2.1.2zM27 11.2h-.1c-.1.1-.1.1-.1.2s0 .2.1.2.1.1.2.1.2 0 .2-.1v-.1h.6l-.1-.2v-.1c0-.1 0-.2-.1-.2h-.1l-.3-.3-.2-.2q-.15.15-.3.6c.3 0 .2.1.2.1m0-2.3c.1 0 .2 0 .2-.1s.1-.1.1-.2 0-.2-.1-.2-.1-.1-.2-.1-.2 0-.2.1-.1.1-.1.2 0 .2.1.2.1.1.2.1m-4.1 1.2c-.1.1-.1.1-.1.2s0 .2.1.2.1.1.2.1.2 0 .2-.1.1-.1.1-.2 0-.2-.1-.2-.1-.1-.2-.1-.1.1-.2.1m7.1 9.5c0 .1 0 .2.1.2s.1.1.2.1.2 0 .2-.1.1-.1.1-.2 0-.2-.1-.2-.1-.1-.2-.1-.2 0-.2.1-.1.1-.1.2m-12.7-9c.1 0 .2 0 .2-.1s.1-.1.1-.2 0-.2-.1-.2-.1-.1-.2-.1-.2 0-.2.1-.1.1-.1.2 0 .2.1.2.2.1.2.1m8.8 1.6c-.1.1-.1.1-.1.2s0 .2.1.2.1.1.2.1.2 0 .2-.1.1-.1.1-.2 0-.2-.1-.2-.1-.1-.2-.1-.1.1-.2.1m3.8-2.4c.1 0 .2 0 .2-.1s.1-.1.1-.2 0-.2-.1-.2-.1-.1-.2-.1-.2 0-.2.1-.1.1-.1.2 0 .2.1.2.1.1.2.1m-6.3 2.7s-.1-.1-.2-.1-.2 0-.2.1-.1.1-.1.2 0 .2.1.2.1.1.2.1.2 0 .2-.1h1.2l-.2-.6v-.2s0 .1.1.1c.1.1.1.1.2.1s.2 0 .2-.1.1-.1.1-.2 0-.2-.1-.2-.1-.1-.2-.1-.2 0-.2.1v.1s0-.1-.1-.1h-.1l-.1-.2-.2-.4v-.1c0-.1 0-.2-.1-.2s-.1-.1-.2-.1-.2 0-.2.1-.1.1-.1.2 0 .2.1.2.1.1.2.1c-.1.1-.1.3-.2.4 0 .2 0 .4-.1.7m2.6-2.4c.1 0 .2 0 .2-.1s.1-.1.1-.2 0-.2-.1-.2-.1-.1-.2-.1-.2.1-.2.1-.1.1-.1.2 0 .2.1.2.1.1.2.1m-1.9-1.7c.1 0 .2 0 .2-.1s.1-.1.1-.2 0-.2-.1-.2-.1-.1-.2-.1-.2 0-.2.1-.1.1-.1.2 0 .2.1.2.1.1.2.1m-1.1 2.4c-.1 0-.2 0-.2.1s-.1.1-.1.2 0 .2.1.2.1.1.2.1.2 0 .2-.1.1-.1.1-.2 0-.2-.1-.2-.2-.1-.2-.1m1.9-2.4c.1 0 .2 0 .2-.1s.1-.1.1-.2 0-.2-.1-.2-.1-.1-.2-.1-.2 0-.2.1-.1.1-.1.2 0 .2.1.2.1.1.2.1m-.1.9c-.1.1-.1.1-.1.2s0 .2.1.2.1.1.2.1.2 0 .2-.1.1-.1.1-.2 0-.2-.1-.2-.1-.1-.2-.1-.2 0-.2.1m.9 2.2c.1.1.1.1.2.1s.2 0 .2-.1.1-.1.1-.2 0-.2-.1-.2-.2-.1-.2-.1c-.1 0-.2 0-.2.1s-.1.1-.1.2 0 .1.1.2m-.5-.9c-.1-.1-.1-.1-.2-.1s-.2 0-.2.1-.1.1-.1.2.1.2.1.2.1.1.2.1c0 .1 0 .1.1.2s.1.1.2.1.2 0 .2-.1.1-.1.1-.2 0-.2-.1-.2-.1-.1-.2-.1c0-.1 0-.1-.1-.2m4.8 1.2c0-.1 0-.2-.1-.2s-.1-.1-.2-.1-.2 0-.2.1-.1.1-.1.2 0 .2.1.2.1.1.2.1.2 0 .2-.1.1-.1.1-.2M6.6 8.1c-.1 0-.2 0-.2.1s-.1.1-.1.2 0 .2.1.2.1.1.2.1.2 0 .2-.1.1-.1.1-.2 0-.2-.1-.2-.1-.1-.2-.1m.1 4.7c-.1 0-.2 0-.2.1s-.1 0-.1.1 0 .2.1.2.1.1.2.1c0 .1 0 .1.1.2s.1.1.2.1.2 0 .2-.1.1-.1.1-.2 0-.1-.1-.2V13c0-.1 0-.2-.1-.2s-.1-.1-.2-.1-.1 0-.2.1m-.1-5c.1 0 .2 0 .2-.1s.1-.1.1-.2 0-.2-.1-.2h-.2c-.1 0-.2 0-.2.1s-.1.1-.1.2 0 .2.1.2zm.6 4.1c0 .1 0 .1.1.2s.1.1.2.1.2 0 .2-.1c0 0 .1-.1.1-.2.1 0 .2 0 .2-.1s.1-.1.1-.2 0-.1-.1-.2c.1-.1.1-.1.1-.2s0-.2-.1-.2-.1-.1-.2-.1-.2 0-.2.1-.1.1-.1.2 0 .1.1.2h-.1c-.1 0-.1 0-.1.1l-.1-.1c-.1 0-.2 0-.2.1s-.1.1-.1.2 0 .2.1.2zm.4-3.1c-.1.1-.1.1-.1.2s0 .2.1.2.1.1.2.1.2 0 .2-.1.1-.1.1-.2-.1-.1-.1-.2-.1 0-.2 0zm-.4-1c0 .1 0 .1.1.2h-.1c0 .1-.1.2-.1.2s0 .2.1.2.1.1.2.1.2 0 .2-.1.1-.1.1-.2 0-.2-.1-.2h.1c.1-.1.1-.1.1-.2s0-.2-.1-.2-.1-.1-.2-.1c0-.1 0-.1-.1-.2 0 0-.1-.1-.2-.1s-.1.1-.2.1-.1.1-.1.2.1.2.1.2.1.1.2.1m.5 5.5v.3l.6-.1v.1c0 .1 0 .2.1.2s.1.1.2.1h.1c.1 0 .2 0 .2-.1s.1-.1.1-.2 0-.2-.1-.2-.1-.1-.2-.1h-.1c-.1 0-.1 0-.2.1l-.1-.5-.4-.2c-.1.2-.2.4-.2.6M6 8.3c.1 0 .2 0 .2-.1s.1-.1.1-.2 0-.2-.1-.2-.1-.1-.2-.1-.2 0-.2.1V8c0 .1 0 .2.1.2s0 .1.1.1m10.1 1.1c0 .1 0 .2.1.2 0 0 .1.1.2.1v.1c.1.1.1.1.2.1s.2 0 .2-.1.1-.1.1-.2 0-.2-.1-.2c0 0-.1-.1-.2-.1v-.1s-.1-.1-.2-.1c.1 0 .1 0 .2-.1.1 0 .1 0 .1-.1s0-.2-.1-.2-.1-.1-.2-.1-.2 0-.2.1-.1.1-.1.2 0 .2.1.2c0 0 .1.1.2.1-.1 0-.1 0-.2.1 0 0-.1 0-.1.1M1.9 12.6c.1 0 .2 0 .2-.1s.1-.1.1-.2 0-.2-.1-.2-.1-.1-.2-.1-.2 0-.2.1-.1.1-.1.2 0 .2.1.2.2.1.2.1m.7-1.4c.1 0 .2 0 .2-.1s.1-.1.1-.2 0-.2-.1-.2-.1-.1-.2-.1-.2 0-.2.1-.1.1-.1.2 0 .2.1.2.1.1.2.1m-.7 9.6s0-.1 0 0 0 .1.1.2h.2c.1 0 .2 0 .2-.1s.1-.1.1-.2 0-.2-.1-.2-.1-.1-.2-.1c0-.1 0-.1-.1-.2h-.2c-.1 0-.2 0-.2.1s-.1.1-.1.2 0 .2.1.2.1.1.2.1M8.6 8.9s.1-.1 0 0l.1.1H10l-.2-.6-.3-.7-.3-.5c-.1.1-.2.4-.3.7 0 .2-.1.3-.1.5 0 0-.1-.1-.2-.1s-.2 0-.2.1-.1.1-.1.2 0 .2.1.2.1.1.2.1m-5.4-.7c.1 0 .1 0 .1-.1l.1.1c.1 0 .1 0 .1-.1l.1.1c.1 0 .2 0 .2-.1S4 8 4 7.9s0-.2-.1-.2-.1-.1-.2-.1-.1 0-.1.1l-.1-.1c-.1 0-.1 0-.1.1l-.1-.1c-.2 0-.3 0-.3.1s-.1.1-.1.2 0 .1.1.2.1.1.2.1m-.6 1.4c0 .1 0 .1.1.2s.1.1.2.1.2 0 .2-.1.1-.1.1-.2 0-.2-.1-.2-.1-.1-.2-.1c0-.1 0-.1-.1-.2-.1 0-.1-.1-.2-.1s-.2 0-.2.1-.1.1-.1.2 0 .2.1.2.1.1.2.1m1.2.3.9.6s-.1-.1-.2-.1-.2 0-.2.1-.1.1-.1.2 0 .2.1.2.1.1.2.1.2 0 .2-.1.1-.1.1-.2 0-.1-.1-.2l.1.1.2-.1v.1c0 .1 0 .2.1.2s.1.1.2.1c0 .1 0 .1.1.2s.1.1.2.1.2 0 .2-.1.1-.1.1-.2 0-.2-.1-.2-.1-.1-.2-.1c0-.1 0-.1-.1-.2s-.1-.1-.2-.1h-.1l-.2-1c.1 0 .1 0 .2-.1s.1-.1.1-.2 0-.2-.1-.2h-.4v-.1c-.2 0-.4.2-.6.4 0 .2-.2.3-.3.5s-.1.3-.1.3m2.1-.6c.1 0 .2 0 .2-.1s.1-.1.1-.2 0-.2-.1-.2h-.2c-.1 0-.2 0-.2.1V9c0 .1 0 .2.1.2s.1.1.1.1" class="st0"/><path d="M0 5.4v21.1h32.1V5.4zm30.6 19.7H1.5V6.9h29.1z" class="st0"/><path d="M15.2 7.8s0-.1 0 0 0 .1.1.2h.1c.1 0 .2 0 .2-.1s.1-.1.1-.2 0-.2-.1-.2-.1-.1-.2-.1c0-.1 0-.1-.1-.2s-.1-.1-.2-.1-.1.1-.1.2-.1.1-.1.2 0 .2.1.2.1.1.2.1m-1 1-.1-.1c-.1 0-.2 0-.2.1s-.1.1-.1.2 0 .2.1.2.1.1.2.1.1 0 .1-.1l.1.1c0 .1 0 .2.1.2s.1.1.2.1c0 .1 0 .1.1.2s.1.1.2.1.2 0 .2-.1.1-.1.1-.2 0-.2-.1-.2-.1-.2-.2-.2V9c0 .1 0 .1.1.2s.1.1.2.1.2 0 .2-.1.1-.1.1-.2 0-.2-.1-.2-.1-.1-.2-.1-.2.1-.2.2c0 0 0 .1-.1.1 0-.1 0-.1-.1-.2s-.1-.1-.2-.1-.1 0-.1.1l-.1-.1c-.1 0-.2 0-.2.1m-.2-1c.1 0 .2 0 .2-.1s.1-.1.1-.2 0-.2-.1-.2H14c-.1 0-.2 0-.2.1s-.1.1-.1.2 0 .2.1.2zm1.5.6c-.1.1-.1.1-.1.2s0 .2.1.2.1.1.2.1.2 0 .2-.1.1-.1.1-.2 0-.2-.1-.2-.1-.1-.2-.1-.2.1-.2.1m.8 3.8c.1 0 .2 0 .2-.1s.1-.1.1-.2v-.1.1c.1.1.1.1.2.1 0 .1 0 .1.1.2s.1.1.2.1.2 0 .2-.1.1-.1.1-.2 0-.2-.1-.2-.1-.1-.2-.1c0-.1 0-.1-.1-.2s-.1-.1-.2-.1h-.1v-.1c-.1-.1-.1-.1-.2-.1s-.2 0-.2.1-.1.1-.1.2v.1h-.1c0 .2-.1.3-.1.4s0 .2.1.2zm0-1.5c0 .1 0 .2.1.2s.1.1.2.1.2 0 .2-.1.1-.1.1-.2 0-.2-.1-.2c0 0-.1-.1-.2-.1h.1c.1-.1.1-.1.1-.2s0-.2-.1-.2-.1-.1-.2-.1-.2 0-.2.1-.1.1-.1.2 0 .2.1.2c0 0 .1.1.2.1h-.1c-.1.1-.1.1-.1.2m-6.5-1c0 .1 0 .2.1.2s.1.1.2.1c0 .1 0 .1.1.2h-.1c-.1 0-.1.1-.1.2s0 .2.1.2.1.1.2.1.2 0 .2-.1.1-.1.1-.2 0-.2-.1-.2h.1c.1-.1.1-.1.1-.2s0-.2-.1-.2-.1-.1-.2-.1c0-.1 0-.1-.1-.2s-.1-.1-.2-.1-.2 0-.2.1-.1.1-.1.2m3.6 0c.1 0 .1 0 .1-.1v.1c0 .1 0 .2.1.2s.1.1.2.1.2 0 .2-.1.1-.1.1-.2 0-.2-.1-.2-.1-.1-.2-.1-.1 0-.1.1v-.1c0-.1 0-.2-.1-.2s-.1-.1-.2-.1-.2 0-.2.1-.1.1-.1.2 0 .2.1.2.2.1.2.1m2.3-.5c-.1 0-.2 0-.2.1s-.1.1-.1.2 0 .2.1.2.1.1.2.1.2 0 .2-.1.1-.2.1-.3 0-.2-.1-.2zM12 10.6c.1 0 .2 0 .2-.1s.1-.1.1-.2 0-.2-.1-.2-.1-.1-.2-.1-.2 0-.2.1-.1.1-.1.2 0 .2.1.2.1.1.2.1m1.3 1.2c.1 0 .2 0 .2-.1s.1-.1.1-.2 0-.2-.1-.2-.1-.1-.2-.1-.2 0-.2.1-.1.1-.1.2 0 .2.1.2.1.1.2.1M12 9.2c.1 0 .2 0 .2-.1s.1-.1.1-.2 0-.2-.1-.2-.1-.1-.2-.1-.2 0-.2.1-.1.1-.1.2 0 .2.1.2.1.1.2.1m-1.3-.7c.1 0 .1 0 .1-.1l.1.1c.1 0 .1 0 .1-.1l.1.1c.1 0 .2 0 .2-.1s.1-.1.1-.2 0-.2-.1-.2-.1-.1-.2-.1-.1 0-.1.1l-.1-.1c-.1 0-.1 0-.1.1l-.1-.1c-.1 0-.2 0-.2.1s-.1.1-.1.2 0 .2.1.2.1.1.2.1" class="st0"/><path d="M11.3 10.5c-.1.1-.1.1-.1.2s0 .2.1.2.1.1.2.1.1 0 .2-.1c-.1.1-.1.3-.1.5v.4h.8l-.1-.5v-.1s.1-.1.1-.2 0-.2-.1-.2-.1-.1-.2-.1H12l-.2-.1c0-.1 0-.2-.1-.2s-.1-.1-.2-.1-.2.2-.2.2m1.4 1.7c0 .1 0 .2.1.2s.1.1.2.1c0 .1 0 .1.1.2s.1.1.2.1.2 0 .2-.1.1-.1.1-.2 0-.2-.1-.2-.1-.1-.2-.1c0-.1 0-.1-.1-.2H13c-.1 0-.2 0-.2.1s-.1.1-.1.1m-.2-3.4c.1 0 .2 0 .2-.1s.1-.1.1-.2 0-.2-.1-.2-.1-.1-.2-.1-.2 0-.2.1-.1.1-.1.2 0 .2.1.2.1.1.2.1m.1.2c-.1 0-.2 0-.2.1s-.1.1-.1.2 0 .2.1.2.1.1.2.1.2 0 .2-.1.1-.1.1-.2 0-.2-.1-.2-.2-.1-.2-.1M6.2 19.1c0-.1 0-.2-.1-.2s-.1-.1-.2-.1-.2 0-.2.1-.1.1-.1.2 0 .2.1.2.1.1.2.1.2 0 .2-.1.1-.2.1-.2m2.6 3.7c-.1 0-.2 0-.2.1v.2c0 .1 0 .2.1.2s.1.1.2.1.2 0 .2-.1.1-.1.1-.2 0-.2-.1-.2-.2-.1-.3-.1m-.3.6c-.1 0-.2 0-.2.1s-.1.1-.1.2 0 .2.1.2.1.1.2.1.2 0 .2-.1.1-.1.1-.2 0-.2-.1-.2-.1-.1-.2-.1m-1-.9c-.1 0-.2 0-.2.1s-.1.1-.1.2 0 .2.1.2.1.1.2.1.2 0 .2-.1.1-.1.1-.2 0-.2-.1-.2-.1-.1-.2-.1m1.7-2.3c0-.1 0-.2-.1-.2s-.1-.1-.2-.1-.2 0-.2.1c0 0 0 .1-.1.1h-.2l-.6-.2s.1-.1.1-.2 0-.2-.1-.2-.1-.1-.2-.1-.2 0-.2.1-.1.1-.1.2 0 .2.1.2.1.1.2.1.1 0 .2-.1c-.2.2-.3.3-.4.5s-.1.4-.2.5 0 .2 0 .2h1.4v.1c.1.1.1.1.2.1s.2 0 .2-.1.1-.1.1-.2v-.1zM5.7 22c-.1 0-.2 0-.2.1s-.1.1-.1.2 0 .2.1.2.1.1.2.1.2 0 .2-.1.1-.1.1-.2 0-.2-.1-.2-.1-.1-.2-.1m.3-.6c-.1 0-.2 0-.2.1s-.1.1-.1.2 0 .2.1.2.1.1.2.1.2 0 .2-.1.1-.1.1-.2 0-.2-.1-.2-.1-.1-.2-.1m1.3 1c.1.1.1.1.2.1s.2 0 .2-.1.1-.1.1-.2 0-.2-.1-.2-.1-.1-.2-.1-.2 0-.2.1v.1c0-.1 0-.1-.1-.2s-.1-.1-.2-.1-.2 0-.2.1-.1.1-.1.2 0 .2.1.2.1.1.2.1.2 0 .2-.1v-.1c0 .1 0 .1.1.2m2.2-2.7.1.1c.1 0 .2 0 .2-.1s.1-.1.1-.2 0-.2-.1-.2-.1-.1-.2-.1-.1 0-.1.1l-.1-.1s-.1 0-.1.1l-.1-.1c-.1 0-.2 0-.2.1s-.1.1-.1.2 0 .2.1.2.1.1.2.1.1 0 .1-.1l.1.1s.1 0 .1-.1m-2.8-2.4c-.1-.1-.1-.1-.2-.1s-.2 0-.2.1-.1.1-.1.2 0 .2.1.2.1.1.2.1.2 0 .2-.1.1-.1.1-.2-.1-.2-.1-.2m3.8 4.8c-.1 0-.2 0-.2.1s-.1.1-.1.2 0 .2.1.2.1.1.2.1.2 0 .2-.1.1-.1.1-.2 0-.2-.1-.2-.1-.1-.2-.1m.8-4.6c.1-.1.1-.1.1-.2v-.1l.1.1c.1 0 .2 0 .2-.1s.1-.1.1-.2 0-.2-.1-.2-.1-.1-.2-.1-.2 0-.2.1-.1.1-.1.2v.1l-.1-.1H11v-.1c0-.1 0-.2-.1-.2s-.1-.1-.2-.1-.2 0-.2.1v.1s0-.1-.1-.1c-.1-.1-.1-.1-.2-.1h-.1c-.1 0-.2 0-.2.1s-.1.2-.1.3 0 .2.1.2.1.1.2.1h.1c.1 0 .2 0 .2-.1v-.1s0 .1.1.1c.1.1.1.1.2.1h.1v.1c0 .1 0 .2.1.2s.1.1.2.1.1-.2.2-.2m-5.6 6c0-.1 0-.2-.1-.2s-.1-.1-.2-.1-.2 0-.2.1-.1.1-.1.2v.1l-.1-.1c-.1 0-.2 0-.2.1s-.1.1-.1.2 0 .2.1.2h.3v.1c0 .1 0 .2.1.2s.1.1.2.1.2 0 .2-.1.1-.1.1-.2 0-.2-.1-.2-.1-.1-.2-.1-.1 0-.1.1v-.2l.1.1c.1 0 .2 0 .2-.1s.1-.1.1-.2m4.2-1.8c-.1 0-.2 0-.2.1v.2c0 .1 0 .2.1.2s.1.1.2.1.2 0 .2-.1.1-.1.1-.2 0-.2-.1-.2-.2-.1-.3-.1m1.7.5c0-.1 0-.2-.1-.2h-.2c-.1 0-.2 0-.2.1s-.1.1-.1.1 0 .2.1.2.1.1.2.1.2 0 .2-.1.1-.1.1-.2m-1.4-.6c0 .1 0 .2.1.2s.1.1.2.1.2 0 .2-.1.1-.1.1-.2 0-.2-.1-.2-.1-.1-.2-.1-.2 0-.2.1-.1.1-.1.2m19.2-4.2s.1-.1.1-.2 0-.2-.1-.2h-.3l-.2-.5c-.1.2-.2.4-.2.7 0 .2-.1.4-.1.6v.3h1.2l-.2-.6zm-19.2 1.1c.1 0 .2 0 .2-.1s.1-.1.1-.2 0-.2-.1-.2-.1-.1-.2-.1-.2 0-.2.1-.1.1-.1.2 0 .2.1.2.1.1.2.1m-.2.7c.1.1.1.1.2.1s.2 0 .2-.1.1-.1.1-.2 0-.2-.1-.2-.1-.1-.2-.1-.2 0-.2.1-.1.1-.1.2 0 .2.1.2m-4.8 1.3c.1 0 .2 0 .2-.1s.1-.1.1-.2 0-.2-.1-.2-.1-.1-.2-.1-.1 0-.2.1-.1.1-.1.2 0 .2.1.2.1.1.2.1m.6-9.1c-.1 0-.2 0-.2.1s-.1.1-.1.2 0 .2.1.2.1.1.2.1.2 0 .2-.1v-.2c0-.1 0-.2-.1-.2s-.1-.1-.1-.1m-.9 10c0-.1 0-.2-.1-.2s-.1-.1-.2-.1-.2 0-.2.1-.1.1-.1.2 0 .2.1.2.1.1.2.1.2 0 .2-.1.1-.1.1-.2m.9-9.2c-.1 0-.2 0-.2.1s-.1.1-.1.2 0 .2.1.2.1.1.2.1.2 0 .2-.1.1-.1.1-.2 0-.2-.1-.2-.1-.1-.2-.1m-.6-.3c-.1 0-.2 0-.2.1s-.1.1-.1.2 0 .2.1.2.1.1.2.1.2 0 .2-.1.1-.1.1-.2 0-.2-.1-.2-.1-.1-.2-.1m.6 8.9c.1 0 .2 0 .2-.1s.1-.1.1-.2 0-.2-.1-.2-.1-.1-.2-.1-.2 0-.2.1-.1.1-.1.2 0 .2.1.2.1.1.2.1m-1.1-6.1c-.1 0-.2 0-.2.1s-.1.1-.1.2 0 .2.1.2.1.1.2.1.2 0 .2-.1.1-.1.1-.2 0-.2-.1-.2-.1-.1-.2-.1m.4 4.8c.1 0 .2 0 .2-.1s.1-.1.1-.2 0-.2-.1-.2-.1-.1-.2-.1-.2 0-.2.1-.1.1-.1.2 0 .2.1.2.1.1.2.1m6.7 3c-.1 0-.2 0-.2.1s-.1.1-.1.2 0 .2.1.2.1.1.2.1.2 0 .2-.1.1-.1.1-.2 0-.2-.1-.2-.1-.1-.2-.1m-7.3-3.4c.1 0 .2 0 .2-.1s.1-.1.1-.2 0-.2-.1-.2-.1-.1-.2-.1-.2 0-.2.1-.1.1-.1.2 0 .2.1.2.1.1.2.1m-.2.1c-.1-.1-.1-.1-.2-.1 0-.1 0-.1-.1-.2s-.1-.1-.2-.1-.2 0-.2.1v.2c0 .1 0 .2.1.2s.1.1.2.1c0 .1 0 .1.1.2 0 0 0 .1.1.1s.2 0 .2-.1.1-.1.1-.2 0-.2-.1-.2m-.5 2.4c-.1 0-.2 0-.2.1s-.1.1-.1.2 0 .2.1.2.1.1.2.1.2 0 .2-.1.1-.1.1-.2 0-.2-.1-.2-.1-.1-.2-.1m.8-.5c.1 0 .2 0 .2-.1s.1-.1.1-.2 0-.2-.1-.2-.1-.1-.2-.1-.2 0-.2.1-.1.1-.1.2 0 .2.1.2.1.1.2.1m-1-2.9c.1-.1.1-.1.1-.2s0-.2-.1-.2-.1-.1-.2-.1c0-.1 0-.1-.1-.2s-.1-.1-.2-.1-.2 0-.2.1-.1.1-.1.2 0 .2.1.2.1.1.2.1v.1s0-.1-.1-.1-.2 0-.2.1-.1.1-.1.2 0 .2.1.2.1.1.2.1.2 0 .2-.1.1-.1.1-.2v-.1c.1 0 .1.1.2.1 0 0 .1 0 .1-.1m-.1-1.7c.1.1.1.1.2.1s.1 0 .1-.1l.1.1c.1 0 .1 0 .1-.1l.1.1c.1 0 .2 0 .2-.1s.1-.1.1-.2 0-.2-.1-.2 0-.1-.1-.1-.1 0-.1.1L4 16c-.1 0-.1 0-.1.1l-.1-.1c-.1 0-.2 0-.2.1s-.1.1-.1.2c-.1.1-.1.2 0 .2m.9-5.1c-.1 0-.2 0-.2.1s-.1.1-.1.2 0 .2.1.2.1.1.2.1.2 0 .2-.1.1-.1.1-.2 0-.2-.1-.2-.1-.1-.2-.1m-.9 5.3c-.1 0-.2 0-.2.1s-.1.1-.1.2 0 .2.1.2.1.1.2.1.2 0 .2-.1.1-.1.1-.2 0-.2-.1-.2-.1-.1-.2-.1m-.8-.9c-.1.1-.1.1-.1.2s0 .2.1.2.1.1.2.1.2 0 .2-.1.1-.1.1-.2 0-.2-.1-.2-.1-.1-.2-.1-.2 0-.2.1m7.1 7.4c-.1 0-.2 0-.2.1s-.1.1-.1.2 0 .2.1.2.1.1.2.1.2 0 .2-.1.1-.1.1-.2 0-.2-.1-.2-.1-.1-.2-.1m13.8-.4-.2-.4c-.1.1-.2.3-.3.5s-.1.4-.1.6v.3h1l-.2-.5zm-.7-4.8h-.2c-.1 0-.2 0-.2.1s-.1.1-.1.2 0 .2.1.2.1.1.2.1.2 0 .2-.1.1-.1.1-.2 0-.2-.1-.3" class="st0"/><path d="M23.8 22.2c-.1 0-.2 0-.2.1s-.1.1-.1.2 0 .2.1.2.1.1.2.1.2 0 .2-.1.1-.1.1-.2 0-.2-.1-.2-.1-.1-.2-.1m.8-3.1c-.1-.1-.1-.1-.2-.1h-.1c0-.1 0-.2-.1-.2 0 0-.1-.1-.2-.1v-.1c-.1-.1-.1-.1-.2-.1s-.2 0-.2.1-.1.1-.1.2 0 .2.1.2c0 0 .1.1.2.1v.1c.1.1.1.1.2.1h.1c0 .1 0 .2.1.2 0 0 .1.1.2.1v.1c.1.1.1.1.2.1s.2 0 .2-.1.1-.1.1-.2 0-.2-.1-.2c-.1-.2-.1-.2-.2-.2m-.4 1.3c-.1 0-.2 0-.2.1v.2c0 .1 0 .2.1.2s.1.1.2.1.2 0 .2-.1.1-.1.1-.2 0-.2-.1-.2-.2-.1-.3-.1m-2.6 2c-.1 0-.2 0-.2.1s-.1.1-.1.2 0 .2.1.2.1.1.2.1.2 0 .2-.1.1-.1.1-.2 0-.2-.1-.2-.1-.1-.2-.1m.7-2.6c-.1 0-.2 0-.2.1s-.1.1-.1.2 0 .2.1.2.1.1.2.1.2 0 .2-.1.1-.1.1-.2 0-.2-.1-.2-.1-.1-.2-.1m-.4-.3c-.1-.1-.1-.1-.2-.1s-.2 0-.2.1-.1.1-.1.2 0 .2.1.2.1.1.2.1.2 0 .2-.1.1-.1.1-.2 0-.1-.1-.2m3.3 3.7c-.1 0-.2 0-.2.1s-.1.1-.1.2 0 .2.1.2.1.1.2.1.2 0 .2-.1.1-.1.1-.2 0-.2-.1-.2-.1-.1-.2-.1m3.4-2.6c-.1 0-.2 0-.2.1s-.1.1-.1.2 0 .2.1.2.1.1.2.1.2 0 .2-.1.1-.1.1-.2 0-.2-.1-.2-.1-.1-.2-.1m-.5 1.9c-.1 0-.2 0-.2.1s-.1.1-.1.2 0 .2.1.2.1.1.2.1.2 0 .2-.1.1-.1.1-.2 0-.2-.1-.2-.1-.1-.2-.1m-.1.8c-.1 0-.2 0-.2.1v.1c-.1 0-.2 0-.2.1s-.1.1-.1.2 0 .2.1.2.1.1.2.1.2 0 .2-.1v-.1c.1 0 .2 0 .2-.1s.1-.1.1-.2 0-.2-.1-.2-.1-.1-.2-.1m-6.5-.1c-.1 0-.2 0-.2.1s-.1.1-.1.2 0 .2.1.2.1.1.2.1.2 0 .2-.1.1-.1.1-.2 0-.2-.1-.2-.1-.1-.2-.1m7.2-4.4c-.1 0-.2 0-.2.1s-.1.1-.1.2 0 .2.1.2.1.1.2.1.2 0 .2-.1.1-.1.1-.2 0-.2-.1-.2-.1-.1-.2-.1m-1.5 4.4c-.1 0-.2 0-.2.1v.1l-.2-.4-1-.6c-.1.1-.2.4-.2.7 0 .2.1.5.2.8s.1.4.2.4h1.3l-.2-.6v-.1s.1.1.2.1.2 0 .2-.1.1-.1.1-.2 0-.2-.1-.2zm-2-.2c.1 0 .2 0 .2-.1s.1-.1.1-.2 0-.2-.1-.2-.1-.1-.2-.1-.2 0-.2.1-.1.1-.1.2 0 .2.1.2.1.1.2.1m.6-1.6c0-.1 0-.2-.1-.2h.3c-.1 0-.1.1-.2.2.1 0 .1.1.2.1h-.1c-.1.1-.1.1-.1.2s0 .2.1.2.1.1.2.1.2 0 .2-.1.1-.1.1-.2 0-.1-.1-.2h.1c.1-.1.1-.1.1-.2s0-.2-.1-.2h-.1l-.2-.6-.3-.3-.4-.9c-.2.1-.3.3-.4.6-.1.2-.1.5-.2.8v.4h.2c0 .1 0 .2.1.2 0 0 .1.1.2.1v.1c.1.1.1.1.2.1s.2 0 .2-.1.1 0 .1-.1m-13.1-1s-.1 0 0 0c0-.1 0-.1-.1-.2s-.1-.1-.2-.1-.2 0-.2.1-.1.1-.1.2 0 .2.1.2.1.1.2.1c0 .1 0 .1.1.2s.1.1.2.1.2 0 .2-.1.1-.1.1-.2 0-.2-.1-.2-.2-.1-.2-.1m3.2 1.8c0-.1 0-.2-.1-.2s-.1-.1-.2-.1-.2 0-.2.1-.1.1-.1.2 0 .2.1.2.1.1.2.1.2 0 .2-.1.1-.1.1-.2m5.4.1c0-.1 0-.2-.1-.2s-.1-.1-.2-.1-.2 0-.2.1-.1.1-.1.2 0 .2.1.2.1.1.2.1.2 0 .2-.1.1-.1.1-.2m-6.3.8c-.1 0-.2 0-.2.1s-.1.1-.1.2 0 .2.1.2.1.1.2.1.2 0 .2-.1.1-.1.1-.2 0-.2-.1-.2-.1-.1-.2-.1" class="st0"/><path d="m16.8 22.6-.1-.4-.2-.5-.2-.3c-.1.1-.2.3-.2.5 0 .1-.1.3-.1.4-.1 0-.1 0-.2.1s-.1.1-.1.2 0 .2.1.2.1.1.2.1.2 0 .2-.1c0 0 .1-.1.1-.2zm-4.5.3c-.1 0-.2 0-.2.1s-.1.1-.1.2 0 .2.1.2.1.1.2.1.2 0 .2-.1.1-.1.1-.2 0-.2-.1-.2-.1-.1-.2-.1m2.1 1.2c-.1 0-.2 0-.2.1s-.1.1-.1.2 0 .2.1.2.1.1.2.1.2 0 .2-.1.1-.1.1-.2 0-.2-.1-.2-.1-.1-.2-.1" class="st0"/><path d="M16.6 22.7c-.1 0-.2 0-.2.1s-.1.1-.1.2 0 .2.1.2.1.1.2.1.2 0 .2-.1.1-.1.1-.2 0-.2-.1-.2-.1-.1-.2-.1m-2.3-.6c.1 0 .2 0 .2-.1s.1-.1.1-.2 0-.2-.1-.2-.1-.1-.2-.1-.1 0-.1.1l-.1-.2-.2-.2-.4-.8c-.1.1-.2.2-.3.5-.1.2-.1.4-.1.7v.4h1c0 .1 0 .1.1.1zm.1.7c-.1 0-.2 0-.2.1s-.1.1-.1.2 0 .2.1.2.1.1.2.1.2 0 .2-.1.1-.1.1-.2 0-.2-.1-.2-.1-.1-.2-.1m4.8.6c-.1 0-.2 0-.2.1v.2c0 .1 0 .2.1.2s.1.1.2.1.2 0 .2-.1.1-.1.1-.2 0-.2-.1-.2-.2-.1-.3-.1m.5-2.5c-.1 0-.2 0-.2.1s-.1.1-.1.2 0 .1.1.2h-.1c-.1.1-.1.1-.1.2s0 .2.1.2.1.1.2.1.2 0 .2-.1.1-.1.1-.2 0-.1-.1-.2h.1c.1-.1.1-.1.1-.2s0-.2-.1-.2-.2-.1-.2-.1m-2.5.6c-.1 0-.2 0-.2.1s-.1.1-.1.2 0 .2.1.2.1.1.2.1.2 0 .2-.1.1-.1.1-.2 0-.2-.1-.2-.1-.1-.2-.1m3.7-1.3c0-.1 0-.2-.1-.2s-.1-.1-.2-.1-.2 0-.2.1-.1.1-.1.2 0 .2.1.2.1.1.2.1.2 0 .2-.1.1-.1.1-.2m-.4-.7c.1-.1.1-.1.1-.2s0-.2-.1-.2-.1-.1-.2-.1-.2 0-.2.1-.1.2-.1.2c0 .1 0 .1.1.2H20c-.1 0-.2 0-.2.1s-.1.1-.1.2 0 .2.1.2.1.1.2.1.2 0 .2-.1.1-.1.1-.2 0-.1-.1-.2h.1c.1 0 .2 0 .2-.1m-2.2.3c.1-.1.1-.1.1-.2s0-.2-.1-.2-.1-.1-.2-.1-.2 0-.2.1-.1.1-.1.2h-.2l-.2.2c0 .1 0 .2.1.3s.2.2.2.3l.1.1.6-.5zm.3 3c.1 0 .2 0 .2-.1s.1-.1.1-.2 0-.2-.1-.2-.1-.1-.2-.1-.2 0-.2.1-.1.1-.1.2 0 .2.1.2.1.1.2.1m.1.3c-.1 0-.2 0-.2.1s-.1.1-.1.2 0 .2.1.2.1.1.2.1.2 0 .2-.1.1-.1.1-.2 0-.2-.1-.2-.1-.1-.2-.1" class="st0"/></svg>