<svg xmlns="http://www.w3.org/2000/svg" xml:space="preserve" viewBox="0 0 32 32"><path d="M12.3 30.8h6.6V32h-6.6zm-1.6-3.3h9.9v1.2h-9.9zm5.6-3.3v-4.9q.45-.15.9-.6c.4-.5.6-1 .6-1.8 0-.6-.2-1-.6-1.4q.6-.75.6-1.8c0-.5-.2-1-.6-1.4q.6-.75.6-1.8c0-.6-.2-1-.6-1.4q.6-.75.6-1.8c0-.6-.2-1-.6-1.4-.2-.2-.5-.4-.8-.5V0h-1.2v6.6h.6c.2 0 .5.1.6.2s.3.4.3.6q0 .6-.3.9c-.2.2-.4.2-.6.2v1.2c.2 0 .5.1.6.2q.3.3.3.6 0 .6-.3.9c-.1.1-.3.2-.5.2h-.1V13h.2c.2 0 .3.1.4.2q.3.3.3.6 0 .6-.3.9c-.1.1-.3.2-.4.2h-.2v1.2h.1c.2 0 .4.1.5.2q.3.3.3.6 0 .6-.3.9c-.2.2-.4.2-.6.2h-.6v6h-7v1.2H23V24h-6.7z" style="fill:#fff"/></svg>