<svg xmlns="http://www.w3.org/2000/svg" xml:space="preserve" id="图层_1" x="0" y="0" viewBox="0 0 32 32"><style>.st0{fill:#fff}</style><path d="M14.6 5.8h3v7h-3zM7.653 17.404l2.599-1.5 3.499 6.063-2.598 1.5zm10.187 4.534 3.505-6.06 2.597 1.502-3.504 6.06z" class="st0"/><path d="M30.8 9.8c-.8-1.9-2-3.6-3.4-5.1-1.5-1.5-3.2-2.6-5.1-3.4C20.2.4 18.2 0 16 0s-4.2.4-6.2 1.2c-1.9.8-3.6 2-5.1 3.4-1.5 1.6-2.6 3.3-3.5 5.2-.8 2-1.2 4-1.2 6.2s.4 4.2 1.2 6.2c.8 1.9 2 3.6 3.4 5.1 1.5 1.5 3.2 2.6 5.1 3.4 2 .8 4.1 1.2 6.2 1.2s4.2-.4 6.2-1.2c1.9-.8 3.6-2 5.1-3.4 1.5-1.5 2.6-3.2 3.4-5.1.8-2 1.2-4.1 1.2-6.2.2-2.2-.2-4.2-1-6.2m-1.5 11.9c-.7 1.7-1.8 3.3-3.1 4.6s-2.9 2.4-4.6 3.1q-2.7 1.2-5.7 1.2c-3 0-3.8-.4-5.7-1.1-1.7-.8-3.3-1.8-4.6-3.1s-2.4-2.9-3.1-4.6c-.6-2-1-3.8-1-5.8s.4-3.8 1.1-5.7C3.4 8.6 4.4 7 5.7 5.7s2.9-2.4 4.6-3.1c1.9-.7 3.7-1.1 5.7-1.1s3.8.4 5.7 1.2c1.7.7 3.3 1.8 4.6 3.1s2.4 2.9 3.1 4.6c.8 1.8 1.1 3.7 1.1 5.7s-.4 3.7-1.2 5.6" class="st0"/></svg>