<svg xmlns="http://www.w3.org/2000/svg" xml:space="preserve" id="图层_1" x="0" y="0" viewBox="0 0 32 32"><style>.st0{fill:#fff}</style><path d="M6.5 28.3H.9v1.4h5.6V32h1.4v-6H6.5zm24.7 0h-5.3V26h-1.4v6h1.4v-2.3h5.3z" class="st0"/><path d="M19.1 23q1.5-.6 2.7-1.8t1.8-2.7q.6-1.35.6-2.7c.9-.4 1.8-1 2.5-1.7q1.2-1.2 1.8-2.7c.4-1 .6-2.1.6-3.2S28.9 6 28.5 5q-.6-1.5-1.8-2.7C26 1.6 25.1 1 24 .6c-1-.4-2-.6-3.1-.6s-2.2.2-3.2.6c-.6.2-1.2.6-1.7.9-.5-.4-1.1-.7-1.7-.9-1-.4-2.1-.6-3.2-.6S9 .2 8 .6q-1.5.6-2.7 1.8T3.5 5.1c-.6 1.5-.6 2.1-.6 3.2s.2 2.2.6 3.2 1 1.9 1.8 2.7c.7.7 1.5 1.2 2.4 1.7 0 1 .2 1.9.6 2.8q.6 1.5 1.8 2.7t2.7 1.8c.8.3 1.7.5 2.5.6v4.7h-4.6V26H9.3v6h1.4v-2.3H16V29v.7h5.3V32h1.4v-6h-1.4v2.3h-4.6v-4.7q1.35-.15 2.4-.6M12.7 9.4c.1.7.3 1.4.5 2.1.4 1 1 1.8 1.7 2.6-.3.2-.7.4-1.1.6-.8.4-1.7.5-2.6.5-.7 0-1.4-.1-2-.3.1-.7.2-1.4.5-2.1.3-.8.8-1.6 1.5-2.2q.6-.75 1.5-1.2m3.3-6c.6.6 1.1 1.4 1.5 2.2.2.5.4 1.1.4 1.7-.6-.2-1.3-.2-2-.2-.6 0-1.3.1-1.9.2.1-.6.2-1.1.4-1.7.5-.8 1-1.5 1.6-2.2m0 9.7c-.6-.6-1.1-1.4-1.5-2.2-.3-.7-.4-1.4-.5-2.1.6-.2 1.3-.3 1.9-.3.7 0 1.4.1 2 .3-.1.7-.2 1.4-.5 2.1-.2.8-.7 1.6-1.4 2.2m2.8-1.6c.3-.6.4-1.3.5-2 .5.3 1 .6 1.4 1.1.6.6 1.1 1.4 1.5 2.2.3.7.5 1.4.5 2.1-.6.2-1.3.3-1.9.3-.9 0-1.8-.2-2.6-.5-.4-.2-.8-.4-1.1-.6.8-.8 1.3-1.7 1.7-2.6m-.6-9.6c.8-.4 1.7-.5 2.6-.5s1.8.2 2.6.5c.8.4 1.6.9 2.2 1.5s1.2 1.4 1.5 2.2.5 1.7.5 2.6-.2 1.8-.5 2.6-.8 1.6-1.5 2.2c-.5.5-1 .8-1.6 1.1-.1-.7-.3-1.4-.5-2.1q-.6-1.5-1.8-2.7c-.7-.7-1.5-1.2-2.4-1.7 0-1-.2-1.9-.6-2.8-.4-1-1-1.8-1.7-2.6.5.1.9-.1 1.2-.3m-13.4 9c-.4-.8-.5-1.7-.5-2.6s.2-1.8.5-2.6.9-1.6 1.5-2.2S7.7 2.4 8.5 2s1.7-.5 2.6-.5 1.8.2 2.6.5c.4.2.8.4 1.1.6-.7.8-1.3 1.6-1.7 2.6q-.6 1.35-.6 2.7c-.9.4-1.8 1-2.5 1.7q-1.2 1.2-1.8 2.7c-.3.6-.4 1.3-.5 2-.5-.3-1-.6-1.4-1.1-.6-.7-1.1-1.5-1.5-2.3m6.3 9.3c-.6-.6-1.1-1.4-1.5-2.2-.2-.5-.4-1.1-.4-1.7.6.2 1.3.2 2 .2 1.1 0 2.2-.2 3.2-.6.6-.2 1.2-.6 1.7-.9.5.4 1.1.7 1.7.9 1 .4 2.1.6 3.2.6.6 0 1.3-.1 1.9-.2-.1.6-.2 1.1-.5 1.7-.4.8-.9 1.6-1.5 2.2s-1.4 1.1-2.2 1.5-1.7.5-2.6.5-1.8-.2-2.6-.5-1.7-.8-2.4-1.5" class="st0"/></svg>