<svg xmlns="http://www.w3.org/2000/svg" xml:space="preserve" viewBox="0 0 32 32"><path d="M31 21.4c.3-.7.6-1.6.8-2.5.1-.9.2-1.9.2-2.9s-.1-2-.2-2.9c-.2-.9-.4-1.8-.8-2.5q-.45-1.2-1.2-1.8H32V7.2H0v1.5h2.2q-.75.6-1.2 1.8c-.3.7-.6 1.6-.8 2.5-.1 1-.2 2-.2 3s.1 2 .2 2.9c.2.9.4 1.8.8 2.5q.45 1.2 1.2 1.8H0v1.5h32v-1.5h-2.2q.75-.6 1.2-1.8m-.5-5.4q0 2.85-.9 4.8c-.2.5-.5 1-.8 1.2-.3.3-.5.4-.8.4s-.5-.1-.8-.4-.5-.7-.8-1.2q-.9-1.95-.9-4.8c0-2.85.3-3.5.9-4.8.2-.5.5-1 .8-1.2s.5-.4.8-.4c.2 0 .5.1.8.4s.5.7.8 1.2q.9 1.95.9 4.8m-5.3-5.4c-.3.7-.6 1.6-.8 2.5s-.2 1.9-.2 2.9.1 2 .2 2.9c.2.9.4 1.8.8 2.5q.45 1.2 1.2 1.8h-8.6q.75-.6 1.2-1.8c.3-.7.6-1.6.8-2.5S20 17 20 16s-.1-2-.2-2.9c-.2-.9-.4-1.8-.8-2.5q-.45-1.2-1.2-1.8h8.6q-.75.6-1.2 1.8m-10-.7c.3-.3.5-.4.8-.4.2 0 .5.1.8.4s.5.7.8 1.2q.9 1.95.9 4.8c0 2.85-.3 3.5-.9 4.8-.2.5-.5 1-.8 1.2-.3.3-.5.4-.8.4s-.5-.1-.8-.4-.5-.7-.8-1.2q-.9-1.95-.9-4.8c0-2.85.3-3.5.9-4.8.3-.5.6-.9.8-1.2M2.4 11.2c.2-.5.5-1 .8-1.2.3-.3.5-.4.8-.4.2 0 .5.1.8.4s.5.7.8 1.2q.9 1.95.9 4.8c0 2.85-.3 3.5-.9 4.8-.2.5-.5 1-.8 1.2-.3.3-.5.4-.8.4s-.5-.1-.8-.4-.5-.7-.8-1.2q-.9-1.95-.9-4.8c0-2.85.3-3.5.9-4.8m4.5 10.2c.3-.7.6-1.6.8-2.5.1-.9.2-1.9.2-2.9s-.1-2-.2-2.9c-.2-.9-.4-1.8-.8-2.5q-.6-1.2-1.2-1.8h8.6q-.75.6-1.2 1.8c-.3.7-.6 1.6-.8 2.5-.1.9-.2 1.9-.2 2.9s.1 2 .2 2.9c.2.9.4 1.8.8 2.5q.45 1.2 1.2 1.8H5.7q.6-.6 1.2-1.8" style="fill:#fff"/></svg>