<svg xmlns="http://www.w3.org/2000/svg" xml:space="preserve" id="图层_1" x="0" y="0" viewBox="0 0 32 32"><style>.st0{fill:#fff}</style><path d="M0 0v32h32V0zm30.5 30.5h-29v-29h28.9v29z" class="st0"/><path d="M22.8 8.1h1.4v1.5h-1.4zM25.2 23h1.4v1.5h-1.4zM20.3 8.1h1.4v1.5h-1.4zm4.9 0h1.4v1.5h-1.4zM22.8 23h1.4v1.5h-1.4zm-7.6 6.5h1.5v-5h.6V23h-.6V9.6h.6V8.1h-.6V2.5h-1.5v5.6H5.4v1.5h9.9V23H5.4v1.5h9.9c-.1 1.5-.1 5-.1 5m2.6-6.5h1.4v1.5h-1.4zm2.5 0h1.4v1.5h-1.4zM17.8 8.1h1.4v1.5h-1.4z" class="st0"/></svg>