<svg xmlns="http://www.w3.org/2000/svg" xml:space="preserve" id="图层_1" x="0" y="0" viewBox="0 0 32 32"><style>.st0{fill:#fff}</style><path d="M18.2 14.6c-.8-.4-1.6-.7-2.5-.7s-1.7.2-2.5.7c-.8.4-1.4 1.1-1.8 1.8s-.7 1.6-.7 2.5.2 1.7.7 2.5c.4.8 1.1 1.4 1.8 1.8s1.6.7 2.5.7 1.7-.2 2.5-.7 1.4-1.1 1.8-1.8c.4-.8.7-1.6.7-2.5s-.2-1.7-.7-2.5-1.1-1.3-1.8-1.8m.7 6.2c-.3.6-.8 1-1.4 1.4-.6.3-1.2.5-1.9.5s-1.3-.2-1.9-.5-1-.8-1.4-1.4c-.3-.6-.5-1.2-.5-1.9s.2-1.3.5-1.9.8-1 1.4-1.4c.6-.3 1.2-.5 1.9-.5s1.3.2 1.9.5 1 .8 1.4 1.4c.3.6.5 1.2.5 1.9s-.1 1.3-.5 1.9M15.7 32" class="st0"/><path d="M27.8 13.8c-.6-1.6-1.6-3-2.8-4.2s-2.6-2.1-4.2-2.8-3.3-1-5.1-1-3.5.3-5.1 1c-.9.4-1.8.9-2.6 1.5 0-.1.1-.1.1-.2 1-1.4 2.1-2.5 3.5-3.5s2.8-1.8 4.4-2.3L15.3 0q-2.7.9-5.1 2.7c-2.4 1.8-2.9 2.5-4 4.1s-2 3.3-2.6 5.1c-.6 1.9-.9 3.9-.9 5.9h.1c0 .4-.1.8-.1 1.2 0 1.8.3 3.5 1 5.1s1.6 2.9 2.8 4.2 2.5 2 4.1 2.7 3.3 1 5.1 1 3.5-.3 5.1-1 3-1.6 4.2-2.8 2.1-2.6 2.8-4.2 1-3.3 1-5.1-.4-3.5-1-5.1M25.5 23c-.5 1.3-1.3 2.5-2.3 3.5s-2.1 1.8-3.4 2.3-2.7.8-4.1.8-2.8-.3-4.1-.8-2.4-1.3-3.5-2.3-1.7-2.2-2.2-3.5-.8-2.7-.8-4.1.3-2.8.8-4.1 1.3-2.5 2.3-3.5 2.2-1.8 3.5-2.3 2.6-.8 4.1-.8c1.4 0 2.8.3 4.1.8s2.4 1.3 3.4 2.3 1.8 2.2 2.3 3.5.8 2.7.8 4.1c-.1 1.4-.3 2.8-.9 4.1" class="st0"/><path d="M22.5 12.1c-.9-.9-1.9-1.6-3.1-2.1s-2.4-.8-3.7-.8-2.6.2-3.8.8c-1.1.5-2.2 1.2-3 2.1-.9.9-1.6 1.9-2.1 3.1S6 17.6 6 18.9s.3 2.6.8 3.7 1.2 2.2 2.1 3.1 1.9 1.6 3.1 2.1 2.4.8 3.7.8 2.6-.2 3.7-.8c1.2-.5 2.2-1.2 3.1-2.1s1.6-1.9 2.1-3.1.7-2.4.7-3.7-.2-2.6-.7-3.7c-.5-1.2-1.2-2.2-2.1-3.1m.4 9.8c-.4.9-1 1.8-1.7 2.5s-1.6 1.3-2.5 1.7-1.9.6-3 .6-2-.2-3-.6-1.8-1-2.5-1.7-1.3-1.6-1.7-2.5-.6-1.9-.6-3 .2-2 .6-3 1-1.8 1.7-2.5 1.6-1.3 2.5-1.7 1.9-.6 3-.6q1.5 0 3 .6c1.5.6 1.8.9 2.5 1.7s1.3 1.6 1.7 2.5.6 1.9.6 3-.2 2-.6 3" class="st0"/></svg>