<svg xmlns="http://www.w3.org/2000/svg" xml:space="preserve" id="图层_1" x="0" y="0" viewBox="0 0 32 32"><style>.st0{fill:#fff}</style><path d="M9 26.8h1.4v.9H9zm2.1 0h1.4v.9h-1.4zm-1.9-3.2h13.6v1.3H9.2zm4 3.2h1.4v.9h-1.4zm.9-7.2c.6.3 1.2.5 2 .5.7 0 1.3-.2 1.9-.5s1.1-.8 1.4-1.4c.1-.2.2-.6.4-1.1l-.6-.1v-.6h-2.5v1.3h1.6q-.3.6-.9.9c-.4.2-.8.3-1.3.3-.7 0-1.3-.3-1.8-.8s-.8-1.1-.8-1.8.2-1.3.8-1.8c.5-.5 1.1-.8 1.8-.8.5 0 .9.1 1.3.3s.7.6 1 1l1.1-.7c-.4-.6-.8-1.1-1.4-1.4s-1.3-.5-2-.5-1.3.2-1.9.5c-.6.4-1.1.8-1.4 1.4s-.5 1.2-.5 1.9.2 1.3.5 1.9.7 1.1 1.3 1.5m1.2 7.2h1.4v.9h-1.4z" class="st0"/><path d="M28.5 13.1c-.7-1.6-1.7-3.1-2.9-4.3s-2.7-2.2-4.3-2.9c-1.4-.6-2.9-.9-4.4-1V0h-1.7v4.9c-1.5.1-3 .4-4.4 1-1.7.7-3.1 1.6-4.4 2.9s-2.2 2.7-2.9 4.3c-.7 1.7-1.1 3.5-1.1 5.3s.4 3.6 1.1 5.3c.7 1.6 1.7 3.1 2.9 4.3 1.3 1.3 2.7 2.2 4.3 2.9 1.7.7 3.4 1.1 5.3 1.1 1.8 0 3.6-.4 5.3-1.1 1.6-.7 3.1-1.7 4.3-2.9s2.2-2.7 2.9-4.3c.7-1.7 1.1-3.5 1.1-5.3s-.4-3.6-1.1-5.3m-1.2 10.1c-.6 1.5-1.5 2.8-2.6 3.9s-2.4 2-3.9 2.6-3.1 1-4.8 1-3.3-.3-4.8-1c-1.5-.6-2.8-1.5-3.9-2.6s-2-2.4-2.6-3.9-1-3.1-1-4.8.3-3.3 1-4.8c.6-1.5 1.5-2.8 2.6-3.9s2.4-2 3.9-2.6 3.1-1 4.8-1 3.3.3 4.8 1c1.5.6 2.8 1.5 3.9 2.6s2 2.4 2.6 3.9 1 3.1 1 4.8-.3 3.3-1 4.8" class="st0"/><path d="M21.6 26.8H23v.9h-1.4zm-4.2 0h1.4v.9h-1.4zm2.1 0h1.4v.9h-1.4z" class="st0"/></svg>