<svg xmlns="http://www.w3.org/2000/svg" xml:space="preserve" viewBox="0 0 32 32"><path d="M32.1 9.5H.1v1.3H0l.1.1v.1h.1c.7.6 1.3 1.3 1.7 2.2.3.8.5 1.8.5 2.8s-.2 1.9-.6 2.8S.8 20.4.1 21v1.4h32V21h-1.8c.4-.5.7-1 1-1.6.5-1.1.8-2.2.8-3.5s-.3-2.4-.8-3.5l-.9-1.5h1.7zm-4.6 3.6c.4.9.6 1.8.6 2.8s-.2 1.9-.6 2.8-1 1.6-1.7 2.2H22c.4-.5.7-1 1-1.6.5-1.1.8-2.2.8-3.5 0-1.2-.2-2.4-.8-3.5l-.9-1.5h3.8c.7.8 1.2 1.5 1.6 2.3m-21.9-.6L4.7 11h4.1c.7.6 1.3 1.3 1.7 2.2s.6 1.8.6 2.8-.2 1.9-.6 2.8-1 1.6-1.7 2.2H4.6c.4-.5.7-1 1-1.6.5-1.1.8-2.2.8-3.5s-.3-2.3-.8-3.4m6.2 6.9c.5-1.1.8-2.2.8-3.5s-.3-2.4-.8-3.5l-.9-1.5h.3c.7.6 1.3 1.3 1.7 2.2s.6 1.8.6 2.8-.2 1.9-.6 2.8-1 1.6-1.7 2.2h-.3q.45-.6.9-1.5m2.4 0c.5-1.1.8-2.2.8-3.5s-.3-2.4-.8-3.5l-.9-1.5h4.3c.7.6 1.3 1.3 1.7 2.2s.6 1.8.6 2.8-.2 1.9-.6 2.8-1 1.6-1.7 2.2h-4.4c.4-.4.7-.9 1-1.5m6.4 0c.5-1.1.8-2.2.8-3.5s-.2-2.4-.8-3.5l-.9-1.5h.3c.7.6 1.3 1.3 1.7 2.2s.6 1.8.6 2.8-.2 1.9-.6 2.8-1 1.6-1.7 2.2h-.3q.45-.6.9-1.5m-17.4 0c.5-1.1.8-2.2.8-3.5s-.3-2.4-.8-3.5l-.9-1.5h.3c.7.6 1.3 1.3 1.7 2.2.3.9.5 1.9.5 2.9s-.2 1.9-.6 2.8-1 1.6-1.7 2.2h-.3c.4-.5.7-1 1-1.6m26.7-6.3c.4.9.6 1.8.6 2.8s-.2 1.9-.6 2.8-1 1.6-1.7 2.2h-.3c.4-.5.7-1 1-1.6.5-1.1.8-2.2.8-3.5s-.3-2.4-.8-3.5l-.9-1.5h.3c.7.8 1.2 1.5 1.6 2.3" style="fill:#fff"/></svg>