<svg xmlns="http://www.w3.org/2000/svg" xml:space="preserve" viewBox="0 0 32 32"><path d="M16 3.4h.7v-3h-1.4v3zm7.3 20.3c.4-.9.6-1.9.6-2.9v-.1c0-.3 0-.6-.1-.9 0-.3-.1-.7-.2-1-.1-.2-.1-.4-.2-.6-.2-.4-.3-.8-.6-1.3l-.6-.9.6-.9c.3-.5.5-.9.6-1.4.3-.8.4-1.6.4-2.5v-.1c0-.3 0-.6-.1-.9 0-.3-.1-.6-.2-.9v-.1c0-.2-.1-.3-.2-.5-.2-.5-.4-.9-.6-1.4-.7-1.2-1.7-2.1-2.8-2.8-.3-.2-.6-.4-.9-.5-.7-.3-1.5-.5-2.3-.5h-1.4c-.8 0-1.6.2-2.3.5-.3.1-.6.3-.9.5-1.2.7-2.1 1.6-2.9 2.8-.7 1.2-1.1 2.5-1.1 3.9 0 .8.1 1.6.4 2.4.2.5.4 1 .7 1.5l.6.9-.6.9c-.7 1.2-1.1 2.5-1.1 3.9 0 1 .2 1.9.5 2.8 0 .1 0 .1.1.2 0 .1.1.2.1.2.1.2.2.5.3.7.7 1.2 1.6 2.1 2.7 2.8l.1.1c1 .6 2 .9 3.2 1h1.4c1.1-.1 2.2-.4 3.2-1l.1-.1c1.2-.7 2.1-1.6 2.7-2.8l.3-.6c.3-.1.4-.2.5-.4q-.15.15 0 0m-8 4.9v3h1.4v-3z" style="fill:#fff"/></svg>