<svg xmlns="http://www.w3.org/2000/svg" xml:space="preserve" id="图层_1" x="0" y="0" viewBox="0 0 32 32"><style>.st0{fill:#fff}</style><path d="M17 9.6c0 1.5-.1 2.4-.1 2.9-.1 2.4-.3 4.2-.5 5.3-.3 1.4-.7 2.5-1.4 3.5-.6.9-1.6 2-3.1 3.3l1.9 1.7c1.4-1.4 2.5-2.7 3.2-3.8.8-1.2 1.3-2.6 1.6-4.1q.45-2.1.6-5.7c0-.4.1-1.2.1-2.4v-.8h3.9c0 .6-.1 2.6-.2 5.8-.1 3.3-.2 5.3-.2 5.8s-.1.9-.3 1.2c-.1.2-.4.4-.7.5-.2.1-.7.2-1.3.2l-1.2.1.7 2.3 1.4-.1c.9-.1 1.7-.2 2.2-.5.5-.2.9-.6 1.1-1s.4-1.1.4-1.9c0-.3.1-2.8.3-7.4.2-4.7.3-7.2.3-7.4H14.5v2.3H17z" class="st0"/><path d="M0 0v32h32V0zm30.5 30.5h-29v-29h28.9v29z" class="st0"/><path d="M9.4 14v6.6c0 .3 0 .6-.1.8-.1.3-.3.5-.7.7l1.3 2c1-.7 2.7-1.8 5.2-3.3h.1l-.5-2.4-3.1 2v-6.6l3.5-.5V11l-3.5.4V5.8l-2.2-.1v6l-3 .4.2 2.3z" class="st0"/></svg>