<svg xmlns="http://www.w3.org/2000/svg" xml:space="preserve" id="图层_1" x="0" y="0" viewBox="0 0 32 32"><style>.st0{fill:#fff}</style><path d="M22 3.1c-.2.1-.3.2-.4.4v.1zq.15 0 0 0m-1.2 1.2.4.2.4-.9z" class="st0"/><path d="M24.1 1.1c0-.1 0-.3-.1-.4l-.3-.3c-.1-.1-.3-.1-.4-.1s-.3.1-.4.2L19 3.9c-.2.2-.3.4-.3.7s.2.5.4.6l1.5.7-1.8 4v-.3c0-.7-.3-1.3-.8-1.8-.3-.3-.7-.5-1.1-.6V0h-1.5v8.5h.7c.3 0 .6.1.8.3s.4.5.4.8c0 .5-.1.9-.4 1.2-.2.2-.5.3-.8.3v1.5c.3 0 .6.1.8.3.1.1.2.2.2.3l-.9 1.9H16v.4L9 30.9q-.15.3 0 .6c.1.2.2.3.4.4 0 .1.2.1.3.1s.3 0 .4-.1l.3-.3L17 17.2c.2.2.3.4.3.7 0 .5-.1.9-.4 1.2q-.3.3-.6.3h-.2V21h.2q.3 0 .6.3c.2.2.4.5.4.8 0 .5-.1.9-.4 1.2-.2.2-.5.3-.8.3h-.8v8.5h1.5V25c.4-.1.8-.3 1.2-.7.6-.6.8-1.3.8-2.3 0-.7-.3-1.3-.8-1.8.6-.6.8-1.4.8-2.3 0-.7-.3-1.3-.8-1.8.6-.6.8-1.3.8-2.3v-.2L22 6.7l1 .5c.2.1.5.1.7 0l.1-.1c.1-.4.2-.6.2-.8zm-.9 5.2-1-.5.8-1.6q.15-.3 0-.6c-.1-.2-.2-.3-.4-.4h-.1l-.1 2-1.3-.6-.3.7-1.5-.7 3.9-3.4z" class="st0"/><path d="M22.1 3.1h.4v-.4z" class="st0"/></svg>