<svg xmlns="http://www.w3.org/2000/svg" xml:space="preserve" id="图层_1" x="0" y="0" viewBox="0 0 32 32"><style>.st0{fill:#fff}</style><path d="m29.4 1.5-9.2 12.8-3.3-12.8h-2L1.5 28.2v2.3H2L15.8 3.1l3.4 13.1c0 .1.1.3.2.4s.2.2.4.2h.4q.15 0 .3-.3l10-13.9V1.5z" class="st0"/><path d="M0 0v32h32V0zm31.3 1.4-.8 1.1v27.9H2l-.1.2c-.1.1-.2.3-.3.3-.1.1-.2.1-.4.1-.1 0-.2 0-.3-.1-.2-.1-.3-.2-.4-.4q-.15-.3 0-.6l.9-1.9V1.5h13.4l.4-.8.3-.3c.1-.1.3-.1.4-.1.2 0 .3.1.4.2s.2.2.2.4l.2.7h12.5l.7-.9c.1-.2.3-.3.5-.3s.4 0 .6.1.3.3.3.5c.2.1.1.3 0 .4" class="st0"/></svg>