<svg xmlns="http://www.w3.org/2000/svg" xml:space="preserve" viewBox="0 0 32 32"><path d="M30.7 9.8c-.8-1.9-2-3.6-3.4-5.1-1.5-1.5-3.2-2.6-5.1-3.4C20.2.4 18.1 0 16 0s-4.2.4-6.2 1.2c-.9.5-1.8.9-2.5 1.4-1 .6-1.8 1.3-2.6 2.1-1.5 1.5-2.6 3.2-3.4 5.1C.5 11.5.1 13.4.1 15.3v1.5c.1 1.9.5 3.7 1.2 5.5.8 1.9 1.9 3.6 3.4 5.1s3.2 2.6 5.1 3.4c2 .9 4.1 1.3 6.2 1.3s4.2-.4 6.2-1.3c1.9-.8 3.6-1.9 5.1-3.4s2.6-3.2 3.4-5.1c.8-2 1.2-4.1 1.2-6.2s-.4-4.3-1.2-6.3m-1.4.5c.7 1.6 1 3.2 1.1 4.9h-6v-11l1.8 1.5c1.4 1.4 2.4 2.9 3.1 4.6m-26.6 0C3.4 8.6 4.5 7 5.8 5.7c.5-.5 1-.9 1.5-1.3v10.8H1.5c.1-1.6.5-3.3 1.2-4.9m0 11.3c-.7-1.6-1-3.2-1.1-4.9h5.7v10.8c-.5-.4-1-.8-1.5-1.3-1.4-1.3-2.4-2.8-3.1-4.6m18.9 7.7c-1.8.8-3.7 1.2-5.6 1.2-2 0-3.8-.4-5.6-1.2-.6-.2-1.1-.5-1.6-.8v-25c.5-.3 1-.6 1.6-.8 1.7-.8 3.6-1.2 5.6-1.2s3.9.4 5.7 1.1c.4.2.9.4 1.3.6v25.4c-.5.3-.9.5-1.4.7m4.6-3.1q-.9.9-1.8 1.5v-11h6c-.1 1.7-.4 3.3-1.1 4.9-.7 1.8-1.8 3.3-3.1 4.6" style="fill:#fff"/></svg>