<svg xmlns="http://www.w3.org/2000/svg" xml:space="preserve" id="图层_1" x="0" y="0" viewBox="0 0 32 32"><style>.st0{fill:#fff}</style><path d="M7.2 27.2h2.5l1.9-7h.1l1.7 7h2.5l2.5-10.5h-2.1l-1.6 8.2h-.1l-1.8-7.1h-2.3l-1.7 7.1h-.1L7 16.7H4.9zm14.6-5.4c.1-.5.4-.9.8-1.1.3-.2.7-.3 1.3-.3.5 0 .9.1 1.1.4s.3.7.3 1.3v5.1h1.9v-5.6c0-.9-.2-1.6-.6-2-.4-.5-1.1-.7-2.1-.7-.6 0-1.1.1-1.6.3-.4.2-.8.5-1 .9v-4.4H20v11.5h1.9v-5.4z" class="st0"/><path d="M3.6 30.5V13.2H2.1V32h27.8V13.2h-1.5v17.3z" class="st0"/><path d="M3.6 11.8h24.8v1.5H3.6zm24.8-6v6h1.5V4.2H16.8v1.3h-1.6V4.2H2.1v7.6h1.5v-6zM15.2 0h1.5v4.2h-1.5z" class="st0"/></svg>