<svg xmlns="http://www.w3.org/2000/svg" xml:space="preserve" viewBox="0 0 32 32"><path d="M30.8 10c-.8-2-2-3.8-3.5-5.3S24 2 22 1.2Q19.15 0 16 0c-3.15 0-4.1.4-6 1.2-2 .8-3.8 2-5.3 3.5S2 8 1.2 10Q0 12.85 0 16c0 3.15.4 4.1 1.2 6 .8 2 2 3.8 3.5 5.3S8 30 10 30.8q2.85 1.2 6 1.2c3.15 0 4.1-.4 6-1.2 2-.8 3.8-2 5.3-3.5S30 24 30.8 22q1.2-2.85 1.2-6c0-3.15-.4-4.1-1.2-6m-17.3 4.5-9.7 9.3c-.2-.4-.5-.8-.7-1.2l9.4-9zm-11 6.7c-.2-.4-.3-.9-.4-1.3l8.5-8.2.9.9zm-.8-3.1c-.1-.5-.1-1-.1-1.6l7-6.9 1 1zm-.1-3.8c.1-.7.2-1.3.4-2l4.7-4.5.8.8zm3.7-8 .4.4-2.2 2.1c.5-.9 1.1-1.7 1.8-2.5M4.7 25l9.8-9.4 1 1-9.9 9.5c-.3-.3-.6-.7-.9-1.1m13.1-6.1-9.7 9.3c-.5-.3-.9-.6-1.4-1l9.9-9.5zm-8.3 10 9.4-9 1.3 1.3-8.8 8.5c-.3-.1-.5-.2-.8-.3-.4-.1-.7-.3-1.1-.5m16.2-2.2c-.7.6-1.5 1.2-2.3 1.7l1.9-2.1zm-5.6 3.1c-.7.3-1.5.4-2.3.5l5.9-5.6.6.6zm-4.6.6c-.8 0-1.7-.1-2.5-.3l8.2-7.9 1.3 1.3zm13.9-9q-.9 2.4-2.7 4.2L6.3 5.3q1.95-1.65 4.2-2.7c1.7-.7 3.5-1.1 5.4-1.1s3.7.4 5.4 1.1c1.8.7 3.4 1.8 4.8 3.2s2.4 3 3.2 4.8c.7 1.7 1.1 3.5 1.1 5.4s-.3 3.7-1 5.4" style="fill:#fff"/></svg>