<svg xmlns="http://www.w3.org/2000/svg" xml:space="preserve" viewBox="0 0 32 32"><path d="M30.7 9.8c-.8-1.9-2-3.6-3.4-5.1-1.5-1.5-3.2-2.6-5.1-3.4-2-.9-4-1.3-6.2-1.3s-4.2.4-6.2 1.2c-1.9.8-3.6 2-5.1 3.4-1.5 1.6-2.6 3.3-3.4 5.2-.9 2-1.3 4-1.3 6.2s.4 4.2 1.2 6.2c.8 1.9 2 3.6 3.4 5.1 1.5 1.5 3.2 2.6 5.1 3.4 2 .8 4.1 1.2 6.2 1.2s4.2-.4 6.2-1.2c1.9-.8 3.6-2 5.1-3.4s2.6-3.2 3.4-5.1c.8-2 1.2-4.1 1.2-6.2.2-2.2-.2-4.2-1.1-6.2m-2.2 13.5-12.4 7.2H16c-.9 0-1.8-.1-2.6-.2l6.9-3.6h.1c.6-.3 1.2-.6 1.8-1l7-3.6c-.2.3-.4.7-.7 1.2m-8.7 1.9c-1.2.5-2.5.8-3.8.8-.5 0-1 0-1.5-.1l10.4-5.5c-.5 1-1.1 1.9-1.9 2.7-.6.6-1.3 1.1-2 1.5l-.9.4c-.1.1-.2.1-.3.2m-13-5.4c-.1-.2-.2-.4-.2-.7L23.9 10c.3.4.6.8.8 1.3L7.2 20.5c-.1-.2-.3-.5-.4-.7m-3-11.5 12.7-6.7c.7 0 1.3.1 2 .2l-7.6 4.1c-.1.1-.3.2-.4.2l-7.6 4.1c.1-.7.5-1.3.9-1.9m26.7 7.4-3.1 1.6c.1-.5.1-.9.1-1.4v-.7l2.9-1.5c0 .7 0 1.4.1 2m-3.3-2c-.1-.6-.3-1.1-.5-1.7l2.7-1.4c.2.6.4 1.1.6 1.7zm-1.1-3.1c-.2-.4-.5-.9-.8-1.3L28 7.9c.3.4.5.9.8 1.3zm-1.8-2.4c-.1-.1-.1-.2-.2-.2l-.7-.7 2.9-1.5c.3.3.6.6.9 1zM22 6.3c-.4-.3-.9-.5-1.4-.7l3.3-1.7c.4.3.8.5 1.2.9zm-2.2.5.6.3-14.2 7.4c.1-.6.2-1.1.4-1.6l12.2-6.4c.4.1.7.2 1 .3M7.7 10.7C8 10.1 8.5 9.5 9 9c.9-.9 2-1.7 3.2-2.2S14.7 6 16 6h.4zm-5.6 1.5 4.2-2.3c-.3.6-.6 1.1-.8 1.7 0 .1-.1.2-.1.3l-3.7 1.9c.1-.6.2-1.1.4-1.7zM1.5 16v-.4l3.2-1.7c-.1.5-.2 1-.2 1.5l-3 1.6c.1-.4 0-.7 0-1m.3 2.5L4.6 17c0 .5.1.9.2 1.4L2 19.9c-.1-.5-.2-.9-.2-1.4m4.3-2.2L21.9 8c.4.3.7.6 1 .9L6.2 17.7c0-.5-.1-1-.1-1.4m19.2-3.6c.2.6.3 1.1.4 1.7L9.2 23.1c-.1 0-.1-.1-.2-.1-.4-.4-.7-.8-1-1.2zM7.8 23.9 5 25.3c-.4-.4-.7-.9-1-1.4l2.7-1.4c.3.5.7.9 1.1 1.4m1.1 1q.75.6 1.8 1.2l-3 1.6.1.2c-.6-.4-1.2-.9-1.8-1.4zm3.3.3c-.6-.3-1.2-.6-1.8-1l15.5-8.1c0 .8-.1 1.5-.3 2.2l-13.3 6.9zm17.7-5.3-4.3 2.3c.3-.5.6-1.1.9-1.7.2-.4.3-.8.4-1.2l3.5-1.8c-.1.8-.2 1.6-.5 2.4M22.3 3l-3.7 1.9q-1.2-.3-2.4-.3l4.3-2.3c.3.1.7.2 1 .4.4.1.6.2.8.3m-11.9-.3c.7-.3 1.4-.5 2.2-.7L6.3 5.2c1.2-1 2.6-1.9 4.1-2.5M2.5 21.3l2.7-1.4c.1.2.1.4.2.6.1.3.2.5.4.8l-2.7 1.4c-.2-.3-.3-.7-.5-1 0-.2 0-.3-.1-.4M9 28.7l3.5-1.8c1 .3 2 .5 3.1.5l-4.3 2.3-.9-.3c-.5-.3-1-.5-1.4-.7m12.6.6c-.5.2-.9.4-1.4.5l5.7-3.3c-1.2 1.2-2.7 2.2-4.3 2.8" style="fill:#fff"/></svg>