<svg xmlns="http://www.w3.org/2000/svg" xml:space="preserve" id="图层_1" x="0" y="0" viewBox="0 0 32 32"><style>.st0{fill:#fff}</style><path d="M21.1 4.3h9.4V2.8h-8.9l.5-1.3h-1.6L17 11.2 10.9 4 9.7 5l6.6 7.9L10 30.5h1.6l.5-1.3h18.5v-1.5h-18l.7-2.1h17.2v-1.5H13.9l.3-.8 2.6-1.2h13.7v-1.5H19.9l3.6-1.7-.2-.3h7.1V17h-14l.7-2.1h13.3v-1.5H17.8l.7-2.1h12V9.9H19l.7-2.1h10.7V6.3H20.3zm-.4 14.2-4.3 2h-1.3l.7-2z" class="st0"/><path d="M0 0v32h32V0zm30.8 6.3v1.5h-.3v2.1h.7v1.5h-.7v2.1h.6V15h-.6v2h.2v1.5h-.2v2h.2V22h-.2v2.1h.2v1.5h-.2v2.1h.2c.2 0 .4.1.5.2s.2.3.2.5-.1.4-.2.5-.3.2-.5.2h-.2v1.3H11.6l-.4 1-1.4-.5.2-.4H1.5v-29h19l.4-1.1 1.4.5-.2.6h8.4v1.3h.3c.2 0 .4.1.5.2s.2.3.2.5-.1.4-.2.5-.3.2-.5.2h-.3v2h.3z" class="st0"/></svg>