<svg xmlns="http://www.w3.org/2000/svg" xml:space="preserve" id="图层_1" x="0" y="0" viewBox="0 0 32 32"><style>.st0{fill:#fff}</style><path d="M30.5 29.3v1.2h-1.2l-1.2 1.2-1-1 .1-.2h-2.1l-1.2 1.2-1.1-1 .2-.2h-2.7L19 31.8l-1.1-1 .3-.3h-2.6l-1.3 1.3-1-1.1.2-.2H11l-1.3 1.4-1.1-1.1.3-.3H6.8l-1.4 1.4-1-1.1.3-.3H2.9l-1.3 1.3-1.1-1 1-1V28l-.4.4L0 27.3l1.5-1.5v-2l-.2.2-1-1.1 1.2-1.2v-1.4l-1.1-1 1.1-1.1v-1.4H.9v-1.6h.6V1.5h29v13.7h.3v1.6h-.3v1.4l.1-.1 1 1.1-1.1 1.1V23v-.1l1.1 1.1-1.1 1.1v2.1l.5-.5 1 1V0H0v32h32v-4.2z" class="st0"/><path d="M30.5 18.2 18.2 30.5h2.1l10.2-10.2zm1.6 9.6-.1-.1v.1zM30.5 23 23 30.5h2.1l5.4-5.4zm-3.3 7.5h2.1l1.2-1.2v-2.1zm3.3-13.7v-1.6h-29v1.6h1.4l-1.4 1.4v2.1l3.6-3.5h1.4l-5 4.9v2.1l7.1-7h2l-9.1 9V28l11.2-11.2h1.8l-13 13v.7h1.4l13.8-13.7h1.7L4.7 30.5h2.1l13.8-13.7h2.1L8.9 30.5H11l13.8-13.7h2.4L13.5 30.5h2.1l13.8-13.7z" class="st0"/></svg>