<svg xmlns="http://www.w3.org/2000/svg" xml:space="preserve" id="图层_1" x="0" y="0" viewBox="0 0 32 32"><style>.st0{fill:#fff}</style><path d="M0 0v32h32V0zm31.1 13.5c.2 0 .4.1.5.2s.2.3.2.5-.1.4-.2.5-.3.3-.5.3h-.6v2h.2c.2 0 .4.1.5.2s.2.3.2.5-.1.4-.2.5-.3.2-.5.2h-.2v2.1h.2c.2 0 .4.1.5.2s.2.3.2.5-.1.4-.2.5-.3.2-.5.2h-.2V24h.2c.2 0 .4.1.5.2s.2.3.2.5-.1.4-.2.5-.3.2-.5.2h-.2v2.1h.2c.2 0 .4.1.5.2s.2.3.2.5-.1.4-.2.5-.3.2-.5.2h-.2v1.3H2l-.1.2c-.1.1-.2.3-.3.3-.1.1-.2.1-.4.1-.1 0-.2 0-.3-.1-.2-.1-.3-.2-.4-.4q-.15-.3 0-.6l.9-1.9V1.5h13.4l.4-.8.3-.3c.1-.1.3-.1.4-.1.2 0 .3.1.4.2s.2.2.2.4l.2.7h12.5l.7-.9c.1-.2.3-.3.5-.3s.4 0 .6.1.3.3.3.5 0 .4-.1.6l-.8 1.1v.2h.3c.2 0 .4.1.5.2s.2.3.2.5-.1.4-.2.5-.3.2-.5.2h-.3v2.1h.3c.2 0 .4.1.5.2s.2.3.2.5-.1.4-.2.5-.3.2-.5.2h-.3v2h.7c.2 0 .4.1.5.2s.2.3.2.5-.1.4-.2.5-.3.2-.5.2h-.7v2.1h.7z" class="st0"/><path d="M24.1 11.4h6.4V9.9h-5.3l1.5-2h3.8V6.4h-2.7l1.5-2.1h1.3V2.8h-.2l.2-.2V1.5h-1.1l-9.2 12.8-.9-3.6c0-.1 0-.2-.1-.3L17 1.6h-2l-1 1.6v.1l-3.5 7v.1l-3.5 7c0 .1-.1.1-.1.2l-3.5 6.9c0 .1-.1.1-.1.2l-1.8 3.6v2.3H2l.7-1.3h27.8v-1.5H3.4l1-2.1h26v-1.5H5.2l1-2.1h24.2v-1.5H7l1-2.1h22.5V17H8.8l1-2.1h9l.3 1.2c0 .1.1.3.2.4s.2.2.4.2h.4q.15 0 .3-.3l1.1-1.5h8.9v-1.5h-7.9zM13.4 7.9H17l.5 2h-5.2zm1.8-3.6h.9l.5 2.1h-2.5zm-4.6 9.2 1-2.1h6.3l.5 2.1z" class="st0"/></svg>