<svg xmlns="http://www.w3.org/2000/svg" xml:space="preserve" id="图层_1" x="0" y="0" viewBox="0 0 32 32"><style>.st0{fill:#fff}</style><path d="M9.6 22.4c.9.9 1.8 1.5 3 2s2.3.7 3.5.7 2.4-.2 3.5-.7 2.1-1.1 3-2 1.5-1.8 2-3c.5-1.1.7-2.3.7-3.5s-.2-2.4-.7-3.5-1.1-2.1-2-3-1.8-1.5-3-2c-1.1-.5-2.3-.7-3.5-.7s-2.4.2-3.5.7-2.1 1.1-3 2-1.5 1.8-2 3c-.5 1.1-.7 2.3-.7 3.5s.2 2.4.7 3.5c.4 1.2 1.1 2.2 2 3m6.4-14c.6 0 1.2.1 1.8.2l-9 10c-.2-.6-.3-1.1-.4-1.7zm7.3 5.3q.3.75.3 1.5l-7.5 8.4H16c-.5 0-1 0-1.5-.1zm-1.9 7.7c-.7.7-1.5 1.3-2.5 1.6-.1.1-.3.1-.4.2l4.9-5.5c-.1.4-.2.8-.4 1.3-.3.8-.9 1.7-1.6 2.4m1.2-9.2L12.9 23c-.5-.2-.9-.5-1.4-.8l10.1-11.3c.4.4.7.8 1 1.3m-2-2.3L10.5 21.2c-.3-.4-.7-.8-.9-1.2l9.8-10.9c.4.3.8.5 1.2.8m-10 .7c.7-.7 1.5-1.3 2.5-1.7.2-.1.4-.2.6-.2l-5.2 5.8c.1-.5.2-1 .4-1.4.4-.9 1-1.8 1.7-2.5" class="st0"/><path d="M0 0v32h32V0zm30.5 30.5h-29v-29h29z" class="st0"/></svg>