<svg xmlns="http://www.w3.org/2000/svg" xml:space="preserve" id="图层_1" x="0" y="0" viewBox="0 0 32 32"><style>.st0{fill:#fff}</style><path d="M18.2 32h.1zm10.6-1.5 1.7-1.9v-2.2l-3.8 4.1zM22.7 32" class="st0"/><path d="M32 0H0v32h18.2l-1-1 .4-.5h-.9v.6h-1.5v-.6H13l-1.1 1.2-1.1-1 .2-.2H8.5l-1 1.1-1.1-1 .1-.1H3.4l-.8.9-1.1-.9v-.1h-.1l.1-.1v-3.2l-.3.3-1.1-1 1.4-1.5v-3.4l-.3.3-1.1-1 1.4-1.5v-2.6l-.3.3-1.1-1 1.4-1.6v-2.2h-.3v-1.5h.3V1.5h29v13.7h.7v1.5h-.1l.5.4-1.1 1.2v2.8l.2-.2 1.1 1-1.3 1.4v3.1l.2-.2 1.1 1-1.3 1.4v1.9h-1.7l-1 1.1-1.1-1v-.1h-2.6L22.7 32H32z" class="st0"/><path d="m24.1 30.5 6.4-7.2v-2.2L22 30.5zm-2.1 0h-2.4L18.3 32h4.4l-1.1-1zm8.5-12.2v-1.6h.6l-.6-.6v-.9H16.7v-4.5H1.5v1.5h2l-2 2.2v2.3l4.1-4.5h2.3l-6.3 7v2.2l8.4-9.3h3L1.5 24.9v2.3l13.4-14.9h.4V15L1.5 30.3v.1h1.8l11.9-13.3v3.5l-8.8 9.8h2l6.8-7.6v2.9L11 30.5h2l2.2-2.4v2.4h1.5v-1.3l11.2-12.5h2L17.6 30.5h2zm-13.8-1.6h.8l-.8.9zm0 3.1 2.9-3.1h1.8l-4.6 5.1v-2zm0 7.2v-2.9l6.6-7.4h2.6z" class="st0"/></svg>