<svg xmlns="http://www.w3.org/2000/svg" xml:space="preserve" id="图层_1" x="0" y="0" viewBox="0 0 32 32"><style>.st0{fill:#fff}</style><path d="M0 0v32h32V0zm31.6 16.6c-.1.1-.3.2-.5.2h-.6v13.7H19.6l-.1.3c-.1.1-.2.3-.3.4s-.3.1-.4.1-.2 0-.3-.1c-.2-.1-.3-.2-.4-.4-.1 0-.1-.2-.1-.3h-4v.4c-.1.2-.2.3-.4.4-.1 0-.2.1-.3.1s-.3 0-.4-.1-.2-.2-.3-.4l-.1-.3h-11V16.8H.8c-.2 0-.4-.1-.5-.2s-.2-.3-.2-.5.1-.4.2-.5.3-.2.5-.2h.7V1.5h29v13.8h.6c.2 0 .4.1.5.2s.2.3.2.5-.1.4-.2.6" class="st0"/><path d="M7.7 15.3H1.5v1.5h5.7l1.3 3.3v.1l4 10.3h1.6v-.2l-.8-2.1H19l-.8 2.1v.2h1.6l5-13.5v-.2h5.6v-1.5zm13.2 7.6h-9.8l-.9-2.2h11.5zm-8.3 3.8-.9-2.3h8.6l-.9 2.3zm9.8-7.5H9.7l-.9-2.3h14.5z" class="st0"/></svg>