<svg xmlns="http://www.w3.org/2000/svg" xml:space="preserve" viewBox="0 0 32 32"><path d="M30.7 9.8c-.8-1.9-2-3.6-3.4-5.1-1.5-1.5-3.2-2.6-5.1-3.4C20.2.4 18.1 0 16 0s-4.2.4-6.2 1.2c-.9.5-1.8.9-2.5 1.4-1 .6-1.8 1.3-2.6 2.1-1.5 1.5-2.6 3.2-3.4 5.1C.5 11.5.1 13.4.1 15.3v1.5c.1 1.9.5 3.7 1.2 5.5.8 1.9 1.9 3.6 3.4 5.1s3.2 2.6 5.1 3.4c2 .9 4.1 1.3 6.2 1.3s4.2-.4 6.2-1.3c1.9-.8 3.6-1.9 5.1-3.4s2.6-3.2 3.4-5.1c.8-2 1.2-4.1 1.2-6.2s-.4-4.3-1.2-6.3m-1.4.5c.7 1.6 1 3.2 1.1 4.9h-6v-11l1.8 1.5c1.4 1.4 2.4 2.9 3.1 4.6M16 30.5c-.9 0-1.8-.1-2.6-.3l9.6-5v1.3l-6.8 4zm.4-28.9c.7 0 1.3.1 1.9.2L8.8 6.9V5.6zm6.5 14.3L8.8 23.3v-2L22.9 14zm-14.1-1L23 7.5v1.4L8.8 16.3zm0 3.1L23 10.6v1.7L8.8 19.7zM22.9 5.8 8.8 13.2v-1.5L23 4.3v1.5zM8.8 25 23 17.6v2.1L8.8 27.1zM22.3 3 8.8 10.1V8.6l11.8-6.3c.3.1.7.2 1 .4.3.1.5.2.7.3m-12-.3c.7-.3 1.5-.6 2.2-.7L8.8 4v-.5c.5-.3 1-.6 1.5-.8m-7.6 7.6C3.4 8.6 4.5 7 5.8 5.7c.5-.5 1-.9 1.5-1.3v10.8H1.5c.1-1.6.5-3.3 1.2-4.9m0 11.3c-.7-1.6-1-3.2-1.1-4.9h5.7v10.8c-.5-.4-1-.8-1.5-1.3-1.4-1.3-2.4-2.8-3.1-4.6m6.3 7 13.9-7.3v2.2l-11.7 6.1-.9-.3c-.4-.2-.9-.4-1.3-.7m12.6.7c-.5.2-1 .4-1.5.5l2.8-1.6v.4c-.4.3-.8.5-1.3.7m4.6-3.1q-.9.9-1.8 1.5v-11h6c-.1 1.7-.4 3.3-1.1 4.9-.7 1.8-1.8 3.3-3.1 4.6" style="fill:#fff"/></svg>