<svg xmlns="http://www.w3.org/2000/svg" xml:space="preserve" id="图层_1" x="0" y="0" viewBox="0 0 32 32"><style>.st0{fill:#fff}</style><path d="M4.9 1.5H2.8L1.6 2.7v2.1zM0 4.2l.1.1v-.1z" class="st0"/><path d="M.1 0v4.2l1.5-1.5V1.5h1.2L4 .3l1 1-.1.2H7L8.2.3l1.1 1-.2.2h2.7L13.1.2l1.1 1-.3.3h2.6L17.8.2l1 1.1-.2.2h2.5L22.4.1l1.1 1.1-.3.3h2.1L26.7.1l1 1.1-.3.3h1.8L30.5.2l1.1 1-1 1V4l.4-.4 1.1 1.1-1.5 1.5v2l.1-.2 1.1 1.1-1.2 1.2v1.4l1.1 1-1.1 1.1v1.4h.6v1.6h-.6v13.7h-29V16.8h-.4v-1.6h.4v-1.4l-.1.1-1-1.1 1.1-1.1V9v.1L.5 8l1.1-1.1V4.8l-.5.5-1-1V32h32V0z" class="st0"/><path d="M5.4 19h21.3v1.5H5.4zm5.3 7.8h10.7v1.5H10.7zM1.6 9l7.5-7.5H7L1.6 6.9zm0 4.8L13.9 1.5h-2.1L1.6 11.7zM8 22.7h16v1.5H8zm-6.4-7.5v1.6h29v-1.6h-1.4l1.4-1.4v-2.1L27 15.2h-1.4l5-4.9V8.2l-7.1 7h-2l9.1-9V4L19.4 15.2h-1.8l13-13v-.7h-1.4L15.4 15.2h-1.7L27.4 1.5h-2.1L11.5 15.2H9.4L23.2 1.5h-2.1L7.3 15.2H4.8L18.6 1.5h-2.1L2.7 15.2z" class="st0"/></svg>