<svg xmlns="http://www.w3.org/2000/svg" xml:space="preserve" id="图层_1" x="0" y="0" viewBox="0 0 32 32"><style>.st0{fill:#fff}</style><path d="M12 30.5h8.1V32H12z" class="st0"/><path d="M0 0v32h10.5v-1.5h-9v-29h29v29h-8.9V32H32V0z" class="st0"/><path d="M20.8 15.1c-.5-.8-1.2-1.5-2-2 .8-.5 1.5-1.2 2-2s.8-1.8.8-2.8-.2-1.9-.8-2.8-1.2-1.5-2-2-1.8-.7-2.8-.7-1.9.2-2.8.7-1.5 1.2-2 2-.8 1.8-.8 2.8.2 1.9.8 2.8 1.2 1.5 2 2c-.8.5-1.5 1.2-2 2s-.8 1.8-.8 2.8v12.6H12V17.9c0-.7.2-1.4.5-2q.6-.9 1.5-1.5c.6-.4 1.3-.5 2-.5s1.4.2 2 .5q.9.6 1.5 1.5c.6.9.5 1.3.5 2v12.6h1.5V17.9c.1-1-.2-1.9-.7-2.8m-8.3-4.8c-.3-.6-.5-1.3-.5-2s.2-1.4.5-2q.6-.9 1.5-1.5c.9-.6 1.3-.5 2-.5s1.4.2 2 .5q.9.6 1.5 1.5c.4.6.5 1.3.5 2s-.2 1.4-.5 2q-.6.9-1.5 1.5c-.6.4-1.3.5-2 .5s-1.4-.2-2-.5q-.9-.6-1.5-1.5" class="st0"/></svg>