<svg xmlns="http://www.w3.org/2000/svg" xml:space="preserve" id="图层_1" x="0" y="0" viewBox="0 0 32 32"><style>.st0{fill:#fff}</style><path d="M25.1 21c1.1-1 1.7-2.7 1.7-5 0-1.7-.3-3-.8-4-.5-.9-1.2-1.5-2.1-1.9-.9-.3-1.9-.4-3.3-.4h-4.1v12.6h4.1c2 0 3.5-.4 4.5-1.3m-6.2-.8v-8.5h1.6c.9 0 1.5.1 2 .3.6.3 1 .7 1.3 1.3.3.7.5 1.6.5 2.7 0 1.6-.3 2.7-1 3.4-.6.6-1.5.9-2.8.9h-1.6zm-11.3-2h1.7c1.7 0 3-.3 3.7-1s1.1-1.8 1.1-3.4c0-1-.1-1.8-.4-2.4s-.8-1-1.5-1.3-1.7-.4-2.9-.4h-4v12.6h2.4v-4.1zm0-6.6H9c1 0 1.7.2 2.1.5q.6.45.6 1.8t-.6 1.8c-.6.45-1.1.6-2.1.6H7.6z" class="st0"/><path d="M0 0v32h32V0zm30.5 30.5h-29v-29h29z" class="st0"/></svg>