<svg xmlns="http://www.w3.org/2000/svg" xml:space="preserve" id="图层_1" x="0" y="0" viewBox="0 0 32 32"><style>.st0{fill:#fff}</style><path d="M9.2 19.8h-.1l-2.7-8.5H4.2l3.6 10.5h2.5l3.6-10.5h-2zm6.2-8.5h2v10.5h-2zm10.2.4c-.6-.2-1.4-.4-2.4-.4h-3.3v10.5h2v-3.4h1.4c1.4 0 2.5-.3 3.1-.8s.9-1.5.9-2.8c0-.9-.1-1.5-.4-2s-.7-.9-1.3-1.1m-.9 4.7c-.3.3-.9.4-1.8.4h-1.2V13H23c.8 0 1.4.1 1.8.4.3.3.5.8.5 1.5-.1.7-.2 1.2-.6 1.5" class="st0"/><path d="M30.7 9.8c-.8-1.9-2-3.6-3.4-5.1-1.5-1.5-3.2-2.6-5.1-3.4-2-.9-4-1.3-6.2-1.3s-4.2.4-6.2 1.2c-1.9.8-3.6 2-5.1 3.4-1.5 1.6-2.6 3.3-3.4 5.2-.9 2-1.3 4-1.3 6.2s.4 4.2 1.2 6.2c.8 1.9 2 3.6 3.4 5.1 1.5 1.5 3.2 2.6 5.1 3.4 2 .8 4.1 1.2 6.2 1.2s4.2-.4 6.2-1.2c1.9-.8 3.6-2 5.1-3.4s2.6-3.2 3.4-5.1c.8-2 1.2-4.1 1.2-6.2.2-2.2-.2-4.2-1.1-6.2m-1.4 11.8c-.7 1.7-1.8 3.3-3.1 4.6s-2.9 2.4-4.6 3.1c-1.8.8-3.7 1.1-5.6 1.1s-3.8-.4-5.6-1.1c-1.7-.7-3.3-1.8-4.6-3.1s-2.4-2.9-3.1-4.6C1.9 19.8 1.5 18 1.5 16s.4-3.8 1.1-5.6c.8-1.8 1.8-3.3 3.1-4.6s2.9-2.4 4.6-3.1c1.9-.8 3.7-1.2 5.7-1.2s3.8.4 5.6 1.1c1.7.7 3.3 1.8 4.6 3.1s2.4 2.9 3.1 4.6c.8 1.8 1.1 3.7 1.1 5.6s-.3 3.9-1.1 5.7" class="st0"/></svg>