<svg xmlns="http://www.w3.org/2000/svg" xml:space="preserve" id="图层_1" x="0" y="0" viewBox="0 0 32 32"><style>.st0{fill:#fff}</style><path d="M.1 0v14.7zM0 16c0 .4 0 .9.1 1.3v-2.6c-.1.4-.1.8-.1 1.3m.1 1.3V32zM32 0v32z" class="st0"/><path d="m1.2 22.2.3.6v6.6l-1 1 1.1 1.1 1-1h6.7c.2.1.3.2.5.2 2 .8 4.1 1.2 6.2 1.2 2.2 0 4.2-.4 6.2-1.2.2-.1.3-.1.5-.2h6.6l1 1 1.1-1.1-.8-.8v-7c.1-.1.1-.3.2-.4.8-2 1.2-4.1 1.2-6.2 0-2.2-.4-4.3-1.2-6.2-.1-.1-.1-.3-.2-.4v-7l.8-.8L30.3.5l-1 1h-6.5l-.6-.3C20.2.4 18.2 0 16 0s-4.3.4-6.2 1.2l-.6.3H2.6l-1-1-1 1.1 1 1v6.5c-.1.2-.3.4-.4.7C.5 11.4.1 13 0 14.7v2.6c.2 1.7.6 3.3 1.2 4.9M16 1.5h.6-1.3zM1.6 14.7v2.5c0-.4-.1-.8-.1-1.3s0-.8.1-1.2" class="st0"/></svg>