<svg xmlns="http://www.w3.org/2000/svg" xml:space="preserve" id="图层_1" x="0" y="0" viewBox="0 0 32 32"><style>.st0{fill:#fff}</style><path d="M26.6 13.7c0-.7-.3-1.3-.8-1.8h.1c.6-.6.8-1.4.8-2.3 0-.7-.3-1.3-.8-1.8-.7-.6-1.3-.8-2-.8H6.1v6.2H3.4v1.5h7v-1.5H7.6V8.5h16.3c.3 0 .6.1.8.3s.3.5.4.8c0 .5-.1.9-.4 1.2-.2.2-.5.3-.8.3v1.5h.1c.3 0 .5.1.7.3s.4.5.4.8c0 .5-.1.9-.4 1.2-.2.2-.3.2-.6.3h-.3v1.6h.2q.3 0 .6.3c.2.2.4.5.4.8 0 .5-.1.9-.4 1.2-.2.2-.4.2-.6.3h-.2v1.5h.3q.3 0 .6.3c.2.2.4.5.4.8 0 .5-.1.9-.4 1.2-.2.2-.5.3-.8.3V25c.8 0 1.4-.3 1.9-.8.6-.6.8-1.4.8-2.3 0-.7-.3-1.3-.8-1.8.6-.6.8-1.4.8-2.3 0-.7-.3-1.3-.8-1.8.5-.6.8-1.4.8-2.3m-2.7 3.1" class="st0"/><path d="M23.9 25v-1.5H7.6v-4.7h2.8v-1.5h-7v1.5h2.7V25zm0 0" class="st0"/></svg>