<svg xmlns="http://www.w3.org/2000/svg" xml:space="preserve" id="图层_1" x="0" y="0" viewBox="0 0 32 32"><style>.st0{fill:#fff}</style><path d="M16.8 4V0h-1.5v4H2v28h28V4zm11.7 26.5h-25v-25h25z" class="st0"/><path d="M8.2 22.5q0 1.5.6 3c.6 1.5 1 1.8 1.7 2.5s1.6 1.3 2.5 1.7 2 .6 3 .6 2-.2 3-.6 1.8-1 2.5-1.7 1.3-1.6 1.7-2.5.6-2 .6-3-.2-2.1-.6-3c-.2-.5-.5-1-.8-1.5.3-.5.6-1 .8-1.5q.6-1.35.6-3c0-1.65-.2-2.1-.6-3s-1-1.8-1.7-2.5S20 6.6 19 6.2s-2-.6-3-.6-2 .2-3 .6-1.8 1-2.5 1.7-1.3 1.6-1.7 2.5-.6 2-.6 3 .2 2.1.6 3c.2.6.5 1.1.8 1.6-.3.5-.6 1-.8 1.5q-.6 1.5-.6 3m13.3 3.2c-.6 1-1.3 1.7-2.3 2.3s-2 .9-3.2.9c-1.1 0-2.2-.3-3.2-.9s-1.7-1.3-2.3-2.3-.9-2-.9-3.2.3-2.2.9-3.2l.1-.1c.7.7 1.5 1.2 2.4 1.6q1.5.6 3 .6c1.5 0 2-.2 3-.6.9-.4 1.7-.9 2.4-1.6l.1.1c.6 1 .9 2 .9 3.2-.1 1.1-.3 2.2-.9 3.2m-10-7.7c.4-.4.8-.7 1.3-1 1-.6 2-.8 3.2-.8 1.1 0 2.2.3 3.2.8.5.3.9.6 1.3 1-.4.4-.8.7-1.3 1-1 .6-2 .9-3.2.9-1.1 0-2.2-.3-3.2-.9-.5-.3-.9-.6-1.3-1m-1-7.7c.6-1 1.3-1.7 2.3-2.3s2-.9 3.2-.9c1.1 0 2.2.3 3.2.9s1.8 1.3 2.3 2.3c.6 1 .8 2 .8 3.2s-.3 2.2-.9 3.2l-.1.1c-.7-.7-1.5-1.2-2.4-1.6q-1.5-.6-3-.6c-1.5 0-2 .2-3 .6-.9.4-1.7.9-2.4 1.6l-.1-.1c-.6-1-.8-2-.8-3.2s.3-2.2.9-3.2" class="st0"/></svg>