<svg xmlns="http://www.w3.org/2000/svg" viewBox="0 0 98 151"><title>Lockout tag（锁定标签）</title><g fill="none" fill-rule="nonzero" transform="translate(.308 .306)"><rect width="97.49" height="149.11" fill="#fff" rx="1.51"/><path fill="#e80000" d="M97.49 18.67 0 116.16v18.38l97.49-97.49zM78.14.84 0 79v18.36L95 2.41A8.4 8.4 0 0 0 89.06 0H77.3zM61.35 149.11l36.14-36.14V94.14l-54.97 54.97zM23 0H8.43A8.44 8.44 0 0 0 0 8.43V23zM0 41.81v18.38L60.19 0H41.81zm97.49 32.88v-17.2l-93.97 92.5h18.49z"/><path fill="#fff" d="M7.85 54.38h82.39v84.53H7.85z"/><path fill="#000" d="M7.85 21.5h82.39v22.08H7.85z"/><rect width="68.38" height="16.74" x="14.64" y="23.63" fill="#e90000" stroke="#fff" stroke-width=".25" rx="1.5"/><path fill="#000" d="M36.5 32.7a2.92 2.92 0 0 1-1 2.5 4.24 4.24 0 0 1-2.64.75h-1.71v-6.54h1.72a4.1 4.1 0 0 1 2.74.76 3.2 3.2 0 0 1 .89 2.53m-1.21 0a2.7 2.7 0 0 0-.61-2 2.55 2.55 0 0 0-1.81-.58h-.56v5.09h.56a2.6 2.6 0 0 0 1.81-.55 2.62 2.62 0 0 0 .61-1.96m7.96 3.3H42l-.7-2h-2.18l-.71 2H37.2l2.52-6.62h1zm-2.16-2.76-.81-2.33h-.1l-.81 2.33zM49.26 36H48l-2.78-4.74V36H44v-6.59h1.26l2.78 4.74h.05v-4.74h1.16zm6.45 0h-.85l-.16-.53c-.174.18-.39.31-.63.38a2.8 2.8 0 0 1-.93.15 2.72 2.72 0 0 1-1.89-.74 3 3 0 0 1-.83-2.39 4.06 4.06 0 0 1 .75-2.68 2.61 2.61 0 0 1 2.07-.88 2.48 2.48 0 0 1 1.82.65 2.3 2.3 0 0 1 .65 1.68H54.6a1.8 1.8 0 0 0-.35-1.2 1.25 1.25 0 0 0-1-.4 1.35 1.35 0 0 0-1.21.63 4.1 4.1 0 0 0-.4 2.12 2.88 2.88 0 0 0 .5 1.95 1.56 1.56 0 0 0 1.16.54 1.42 1.42 0 0 0 1-.37 1.48 1.48 0 0 0 .37-1.12v-.42h-1.53v-.73h2.57zm6.56 0h-5.15v-6.59H62v.72h-3.72v2h3.43v.73h-3.43v2.33h4zM68.93 36h-1.21l-1.82-2.88h-1.31V36h-1.16v-6.59H66a3.94 3.94 0 0 1 2 .44c.502.295.792.85.75 1.43.024.452-.16.89-.5 1.19A2.33 2.33 0 0 1 67 33zm-1.42-4.67a1 1 0 0 0-.42-.84 2.5 2.5 0 0 0-1.39-.31h-1.11v2.26H66a2.1 2.1 0 0 0 1.06-.25.89.89 0 0 0 .45-.91z"/><path fill="#e80000" d="M80.15 149.11h17.34v-17.34z"/></g></svg>