<svg xmlns="http://www.w3.org/2000/svg" viewBox="0 0 150 150"><title>Long-haired freaky people need not apply</title><g fill="none" fill-rule="nonzero" transform="translate(.358 .356)"><rect width="149.45" height="149.45" fill="#fff" stroke="#bfbfbf" stroke-width=".1" rx="1.02"/><rect width="140.23" height="140.23" x="4.61" y="4.61" fill="#e90000" rx="1.14"/><text fill="#fff" font-family="Helvetica" font-size="12">
                <tspan x="43.57" y="49.44">LONG-HAIRED</tspan>
            </text><path fill="#fff" d="M40.34 56.3h-4.16v2.65h3.14v.9h-3.14v3.6h-1.17v-8h5.33zM46.95 63.45h-1.19l-1.81-3.5h-1.33v3.5h-1.17v-8h2.5a3.34 3.34 0 0 1 2 .5 2.39 2.39 0 0 1 .25 3.22 2.3 2.3 0 0 1-1.16.66zm-1.41-5.74a1.32 1.32 0 0 0-.44-1 2.08 2.08 0 0 0-1.39-.37h-1.09v2.77h1.42a1.9 1.9 0 0 0 1.06-.3 1.2 1.2 0 0 0 .46-1.1zM53.26 63.45h-5.17v-8h4.92v.89h-3.75v2.49h3.44v.89h-3.44v2.83h4zM60.1 63.45h-1.21l-.71-2.5h-2.23l-.71 2.5h-1.22l2.53-8.14h1zm-2.15-3.39-.81-2.87h-.1l-.81 2.87zM66.54 63.45h-1.32l-2.33-4-.81 1v3h-1.13v-8h1.17v3.47l2.83-3.51h1.37l-2.67 3.15zm6.41-8.04-2.39 4.42v3.62h-1.13v-3.62l-2.38-4.42h1.16l1.74 3.43 1.77-3.43zM85.8 57.85a2.34 2.34 0 0 1-.71 1.79 2.8 2.8 0 0 1-2 .66h-1.45v3.15h-1.16v-8h2.63a2.85 2.85 0 0 1 2 .65 2.34 2.34 0 0 1 .69 1.75m-1.17 0a1.43 1.43 0 0 0-.45-1.22 2.35 2.35 0 0 0-1.37-.33h-1.17v3.1h1.17a2.35 2.35 0 0 0 1.37-.33 1.4 1.4 0 0 0 .45-1.22M92.19 63.45h-5.17v-8h4.93v.89h-3.77v2.49h3.45v.89h-3.45v2.83h4zM98.77 59.4a5.32 5.32 0 0 1-.73 3.18 2.43 2.43 0 0 1-2 1 2.51 2.51 0 0 1-2.08-1 5.16 5.16 0 0 1-.76-3.18 5.06 5.06 0 0 1 .75-3.15 2.55 2.55 0 0 1 2-.94 2.47 2.47 0 0 1 2 .94c.602.936.89 2.04.82 3.15m-1.21 0a4.74 4.74 0 0 0-.46-2.58 1.35 1.35 0 0 0-1.15-.62 1.42 1.42 0 0 0-1.14.62 4.5 4.5 0 0 0-.49 2.58 4.64 4.64 0 0 0 .49 2.61 1.42 1.42 0 0 0 1.14.64 1.35 1.35 0 0 0 1.11-.64 4.9 4.9 0 0 0 .5-2.61m7.7-1.55a2.31 2.31 0 0 1-.71 1.79 2.78 2.78 0 0 1-2 .66h-1.47v3.15h-1.13v-8h2.64a2.82 2.82 0 0 1 2 .65 2.3 2.3 0 0 1 .67 1.75m-1.16 0a1.43 1.43 0 0 0-.46-1.22 2.33 2.33 0 0 0-1.37-.33h-1.16v3.1h1.16a2.33 2.33 0 0 0 1.37-.33 1.41 1.41 0 0 0 .46-1.22M111.65 63.45h-5.27v-8h1.16v7.1h4.11zm6.49 0h-5.19v-8h4.91v.89h-3.75v2.49h3.45v.89h-3.45v2.83h4zM40.58 85.13h-2.33l-5.11-9.62h-.09v9.62h-2.1V71.87h2.32l5.11 9.62h.1v-9.62h2.14zm12.08 0h-9.48V71.87h9v1.47h-6.87v4.11h6.32v1.5h-6.32v4.73h7.35zm11.89 0h-9.48V71.87h9v1.47h-6.86v4.11h6.32v1.5h-6.32v4.73h7.34zM76.54 78.54q0 3.57-1.82 5.08a7.33 7.33 0 0 1-4.87 1.51h-3.16V71.87h3.16c2.28 0 4 .52 5.06 1.55s1.63 2.74 1.63 5.12m-2.23 0c0-1.91-.38-3.26-1.12-4a4.4 4.4 0 0 0-3.34-1.17h-1v10.29h1a4.47 4.47 0 0 0 3.34-1.13c.76-.74 1.12-2.08 1.12-3.99M100.05 85.13h-2.33l-5.11-9.62h-.09v9.62h-2.14V71.87h2.33l5.11 9.62h.13v-9.62h2.14zM112.31 78.46c0 2.44-.45 4.18-1.35 5.24a4.63 4.63 0 0 1-3.76 1.59 4.81 4.81 0 0 1-3.81-1.59c-.93-1.06-1.39-2.8-1.39-5.24s.46-4.16 1.39-5.19a4.85 4.85 0 0 1 3.81-1.56 4.68 4.68 0 0 1 3.75 1.56q1.36 1.54 1.36 5.19m-2.23 0c0-2.17-.28-3.59-.83-4.26a2.59 2.59 0 0 0-2-1 2.71 2.71 0 0 0-2.09 1c-.59.67-.88 2.09-.88 4.26s.29 3.61.88 4.31a2.65 2.65 0 0 0 2.09 1 2.54 2.54 0 0 0 2-1c.55-.7.83-2.14.83-4.31M123.83 73.34h-3.71v11.79h-2.17V73.34h-3.72v-1.47h9.57zM59.45 106.75h-2.11l-1.23-4.19h-3.86l-1.23 4.19h-2.07l4.39-13.68h1.76zm-3.78-5.69-1.4-4.83h-.18l-1.4 4.83zm14.58-3.72a3.83 3.83 0 0 1-1.23 3 4.87 4.87 0 0 1-3.42 1.11h-2.55v5.3h-2V93.23h4.57a5 5 0 0 1 3.42 1.1 3.85 3.85 0 0 1 1.21 3.01m-2 0a2.35 2.35 0 0 0-.79-2.06 4.23 4.23 0 0 0-2.37-.55h-2v5.22h2a4.15 4.15 0 0 0 2.37-.55 2.35 2.35 0 0 0 .77-2.06zm13.24 0a3.83 3.83 0 0 1-1.23 3 4.9 4.9 0 0 1-3.43 1.11h-2.54v5.3h-2V93.23h4.56a5 5 0 0 1 3.43 1.1 3.85 3.85 0 0 1 1.21 3.01m-2 0a2.38 2.38 0 0 0-.79-2.06 4.23 4.23 0 0 0-2.37-.55h-2v5.22h2a4.15 4.15 0 0 0 2.37-.55 2.38 2.38 0 0 0 .77-2.06zM92.55 106.75h-9.13V93.23h2v12h7.13zm11.68-13.52-4.13 7.43v6.09h-2v-6.09l-4.15-7.43h2L99.03 99h.09l3.07-5.77z"/></g></svg>