<svg xmlns="http://www.w3.org/2000/svg" viewBox="0 0 151 101"><title>OSHA tape （oasa胶带） (3)</title><g fill="none" fill-rule="evenodd"><path fill="#f08300" fill-rule="nonzero" d="M.308.306h150v100.48h-150z"/><path stroke="#000" stroke-width=".25" d="M2.348 4.126h145.91v30.09H2.348z"/><path fill="#000" fill-rule="nonzero" d="m51.028 13.466-1.72 9.84h-1.49l-1.37-7.3h-.14l-1.38 7.3h-1.53l-1.68-9.79h1.68l.84 6.17h.15l1.15-6.17h1.67l1.15 6.17h.15l.8-6.22zM60.788 23.146h-1.83l-1.07-3h-3.36l-1.06 3h-1.83l3.81-9.84h1.52zm-3.28-4.08-1.2-3.45h-.16l-1.24 3.45zm12.8 4.08h-1.82l-2.75-4.19h-2v4.19h-1.73v-9.68h3.81a6 6 0 0 1 3 .65 2.25 2.25 0 0 1 1.14 2.12 2.14 2.14 0 0 1-.76 1.76 3.73 3.73 0 0 1-1.75.79zm-2.14-6.91a1.46 1.46 0 0 0-.65-1.25 3.75 3.75 0 0 0-2.09-.45h-1.67v3.34h2.13a3.3 3.3 0 0 0 1.61-.37c.46-.25.727-.749.68-1.27zM79.618 23.146h-1.91l-4.19-7h-.08v7h-1.75v-9.68h1.9l4.2 7h.07v-7h1.76zm6.69 0h-1.74v-9.68h1.74zm12.83 0h-1.91l-4.19-7h-.08v7h-1.75v-9.68h1.9l4.2 7h.07v-7h1.76zm9.76.16h-1.3l-.23-.79a2.2 2.2 0 0 1-1 .57 4.3 4.3 0 0 1-1.41.22 4.24 4.24 0 0 1-2.86-1.1 4.49 4.49 0 0 1-1.26-3.54 5.93 5.93 0 0 1 1.14-4 4 4 0 0 1 3.13-1.3 3.73 3.73 0 0 1 2.74 1 3.32 3.32 0 0 1 1 2.49h-1.68a2.6 2.6 0 0 0-.54-1.79 1.94 1.94 0 0 0-1.52-.59 2 2 0 0 0-1.83.93 6 6 0 0 0-.61 3.15 4.15 4.15 0 0 0 .76 2.88 2.37 2.37 0 0 0 1.76.8 1.95 1.95 0 0 0 2.13-2.21v-.72h-2.31v-1h3.89z"/></g></svg>