<svg xmlns="http://www.w3.org/2000/svg" viewBox="0 0 151 9"><title>OSHA tape （oasa胶带） (6)</title><g fill="none" fill-rule="evenodd"><path fill="#000" fill-rule="nonzero" d="M.358.866h7.89v3.74H.358z"/><path fill="#fff" fill-rule="nonzero" d="M.358 4.606h7.89v3.48H.358zm7.89-3.74h7.89v3.74h-7.89z"/><path fill="#000" fill-rule="nonzero" d="M8.248 4.606h7.89v3.48h-7.89zm7.9-3.74h7.89v3.74h-7.89z"/><path fill="#fff" fill-rule="nonzero" d="M16.148 4.606h7.89v3.48h-7.89zm7.89-3.74h7.89v3.74h-7.89z"/><path fill="#000" fill-rule="nonzero" d="M24.038 4.606h7.89v3.48h-7.89zm7.9-3.74h7.89v3.74h-7.89z"/><path fill="#fff" fill-rule="nonzero" d="M31.938 4.606h7.89v3.48h-7.89zm7.89-3.74h7.89v3.74h-7.89z"/><path fill="#000" fill-rule="nonzero" d="M39.828 4.606h7.89v3.48h-7.89zm7.9-3.74h7.89v3.74h-7.89z"/><path fill="#fff" fill-rule="nonzero" d="M47.728 4.606h7.89v3.48h-7.89zm7.89-3.74h7.89v3.74h-7.89z"/><path fill="#000" fill-rule="nonzero" d="M55.618 4.606h7.89v3.48h-7.89zm7.9-3.74h7.89v3.74h-7.89z"/><path fill="#fff" fill-rule="nonzero" d="M63.518 4.606h7.89v3.48h-7.89zm7.89-3.74h7.89v3.74h-7.89z"/><path fill="#000" fill-rule="nonzero" d="M71.408 4.606h7.89v3.48h-7.89zm7.9-3.74h7.89v3.74h-7.89z"/><path fill="#fff" fill-rule="nonzero" d="M79.308 4.606h7.89v3.48h-7.89zm7.89-3.74h7.89v3.74h-7.89z"/><path fill="#000" fill-rule="nonzero" d="M87.198 4.606h7.89v3.48h-7.89zm7.9-3.74h7.89v3.74h-7.89z"/><path fill="#fff" fill-rule="nonzero" d="M95.098 4.606h7.89v3.48h-7.89zm7.89-3.74h7.89v3.74h-7.89z"/><path fill="#000" fill-rule="nonzero" d="M102.988 4.606h7.89v3.48h-7.89zm7.9-3.74h7.89v3.74h-7.89z"/><path fill="#fff" fill-rule="nonzero" d="M110.888 4.606h7.89v3.48h-7.89zm7.89-3.74h7.89v3.74h-7.89z"/><path fill="#000" fill-rule="nonzero" d="M118.778 4.606h7.89v3.48h-7.89zm7.9-3.74h7.89v3.74h-7.89z"/><path fill="#fff" fill-rule="nonzero" d="M126.678 4.606h7.89v3.48h-7.89zm7.89-3.74h7.89v3.74h-7.89z"/><path fill="#000" fill-rule="nonzero" d="M134.568 4.606h7.89v3.48h-7.89zm7.9-3.74h7.89v3.74h-7.89z"/><path fill="#fff" fill-rule="nonzero" d="M142.468 4.606h7.89v3.48h-7.89z"/><path stroke="#e2e2e2" stroke-width=".1" d="M.358.866h150v7.22h-150z"/></g></svg>