<svg xmlns="http://www.w3.org/2000/svg" viewBox="0 0 151 17"><title>OSHA tape （oasa胶带） (2)</title><g fill="none" fill-rule="evenodd"><path fill="#e90000" fill-rule="nonzero" d="M.358.456h7.89v8.39H.358z"/><path fill="#fff" fill-rule="nonzero" d="M.358 8.846h7.89v7.82H.358zm7.89-8.39h7.89v8.39h-7.89z"/><path fill="#e90000" fill-rule="nonzero" d="M8.248 8.846h7.89v7.82h-7.89zm7.9-8.39h7.89v8.39h-7.89z"/><path fill="#fff" fill-rule="nonzero" d="M16.148 8.846h7.89v7.82h-7.89zm7.89-8.39h7.89v8.39h-7.89z"/><path fill="#e90000" fill-rule="nonzero" d="M24.038 8.846h7.89v7.82h-7.89zm7.9-8.39h7.89v8.39h-7.89z"/><path fill="#fff" fill-rule="nonzero" d="M31.938 8.846h8.5v7.82h-8.5zm7.89-8.39h7.89v8.39h-7.89z"/><path fill="#e90000" fill-rule="nonzero" d="M39.828 8.846h7.89v7.82h-7.89zm7.9-8.39h7.89v8.39h-7.89z"/><path fill="#fff" fill-rule="nonzero" d="M47.728 8.846h7.89v7.82h-7.89zm7.89-8.39h7.89v8.39h-7.89z"/><path fill="#e90000" fill-rule="nonzero" d="M55.618 8.846h7.89v7.82h-7.89zm7.9-8.39h7.89v8.39h-7.89z"/><path fill="#fff" fill-rule="nonzero" d="M63.518 8.846h7.89v7.82h-7.89zm7.89-8.39h7.89v8.39h-7.89z"/><path fill="#e90000" fill-rule="nonzero" d="M71.408 8.846h7.89v7.82h-7.89zm7.9-8.39h7.89v8.39h-7.89z"/><path fill="#fff" fill-rule="nonzero" d="M79.308 8.846h7.89v7.82h-7.89zm7.89-8.39h7.89v8.39h-7.89z"/><path fill="#e90000" fill-rule="nonzero" d="M87.198 8.846h7.89v7.82h-7.89zm7.9-8.39h7.89v8.39h-7.89z"/><path fill="#fff" fill-rule="nonzero" d="M95.098 8.846h7.89v7.82h-7.89zm7.89-8.39h7.89v8.39h-7.89z"/><path fill="#e90000" fill-rule="nonzero" d="M102.988 8.846h7.89v7.82h-7.89zm7.9-8.39h7.89v8.39h-7.89z"/><path fill="#fff" fill-rule="nonzero" d="M110.888 8.846h7.89v7.82h-7.89zm7.89-8.39h7.89v8.39h-7.89z"/><path fill="#e90000" fill-rule="nonzero" d="M118.778 8.846h7.89v7.82h-7.89zm7.9-8.39h7.89v8.39h-7.89z"/><path fill="#fff" fill-rule="nonzero" d="M126.678 8.846h7.89v7.82h-7.89zm7.89-8.39h7.89v8.39h-7.89z"/><path fill="#e90000" fill-rule="nonzero" d="M134.568 8.846h7.89v7.82h-7.89zm7.9-8.39h7.89v8.39h-7.89z"/><path fill="#fff" fill-rule="nonzero" d="M142.468 8.846h7.89v7.82h-7.89z"/><path stroke="#e2e2e2" stroke-width=".1" d="M.358.456h150v16.21h-150z"/></g></svg>