<svg xmlns="http://www.w3.org/2000/svg" viewBox="0 0 151 35"><title>Small warning sign（小型警告标志）</title><g fill="none" fill-rule="nonzero"><path fill="#f08300" stroke="#000" stroke-width=".5" d="M.558.556h149.98v34.01H.558z"/><path fill="#000" d="m51.488 10.996-1.67 10.56h-1.51l-1.37-7.81h-.15l-1.37 7.81h-1.54l-1.68-10.56h1.68l.83 6.65h.16l1.14-6.65h1.67l1.15 6.65h.15l.84-6.65zM61.238 21.426h-1.83l-1.1-3.23h-3.32l-1.06 3.23h-1.83l3.81-10.55h1.52zm-3.28-4.39-1.22-3.73h-.15l-1.22 3.72zm12.79 4.39h-1.82l-2.74-4.51h-2v4.51h-1.74v-10.43h3.86a5.7 5.7 0 0 1 3 .7 2.48 2.48 0 0 1 1.14 2.29 2.36 2.36 0 0 1-.76 1.89 3.65 3.65 0 0 1-1.75.86zm-2.13-7.44a1.6 1.6 0 0 0-.65-1.34 3.48 3.48 0 0 0-2.09-.49h-1.67v3.6h2.1a3.1 3.1 0 0 0 1.6-.4 1.45 1.45 0 0 0 .71-1.37M80.038 21.426h-1.9l-4.19-7.56h-.07v7.56h-1.76v-10.43h1.91l4.19 7.57h.09v-7.57h1.75zm6.7 0h-1.75v-10.43h1.75zm12.79 0h-1.9l-4.19-7.56h-.07v7.56h-1.75v-10.43h1.9l4.19 7.57h.07v-7.57h1.75zm9.78.13h-1.29l-.23-.86a2.27 2.27 0 0 1-1 .61 4.06 4.06 0 0 1-4.27-.94 5.06 5.06 0 0 1-1.21-3.82 6.7 6.7 0 0 1 1.12-4.24 3.82 3.82 0 0 1 3.12-1.4 3.6 3.6 0 0 1 2.74 1 3.7 3.7 0 0 1 1 2.68h-1.68a3 3 0 0 0-.54-1.92 1.85 1.85 0 0 0-1.52-.64 2 2 0 0 0-1.83 1 6.85 6.85 0 0 0-.61 3.38 4.8 4.8 0 0 0 .76 3.11 2.27 2.27 0 0 0 1.76.86 2.1 2.1 0 0 0 1.56-.58 2.5 2.5 0 0 0 .57-1.8v-.69h-2.36v-1.12h3.91z"/></g></svg>