<svg xmlns="http://www.w3.org/2000/svg" viewBox="0 0 147 151"><title>Stop sign（停车标志）</title><g fill="none" fill-rule="nonzero"><path fill="#fff" stroke="#000" stroke-width=".25" d="M103.798.436h-60.55L.438 44.366v62.13l42.81 43.94h60.55l42.82-43.94v-62.13z"/><path fill="#e90000" d="M101.518 6.066h-55.99l-39.6 40.64v57.46l39.6 40.63h55.99l39.6-40.63v-57.46z"/><path fill="#fff" d="M48.468 81.356a7.11 7.11 0 0 1-2.6 5.77 10.9 10.9 0 0 1-7.1 2.18 10.2 10.2 0 0 1-7-2.21 7 7 0 0 1-2.52-5.53v-1.16h4.13v1a4.34 4.34 0 0 0 1.62 3.63 5.9 5.9 0 0 0 3.77 1.27 5.8 5.8 0 0 0 4.22-1.35 4.36 4.36 0 0 0 1.32-3.28 3.82 3.82 0 0 0-1.62-2.93 15.8 15.8 0 0 0-4.64-2.44 16.9 16.9 0 0 1-6.19-3.16 5.39 5.39 0 0 1-1.89-4.1 6.51 6.51 0 0 1 2.6-5.38 9.74 9.74 0 0 1 6.2-2.05c3.11 0 5.36.81 6.74 2.45a8.1 8.1 0 0 1 2.06 5.24h-4.13a4.06 4.06 0 0 0-1.08-3.16 4.54 4.54 0 0 0-3.59-1.42 5.18 5.18 0 0 0-3.41 1 3.38 3.38 0 0 0-1.26 2.76 3.4 3.4 0 0 0 1 2.45c.65.69 2.36 1.5 5.12 2.45a17.9 17.9 0 0 1 6.1 3.4 6 6 0 0 1 2.15 4.57m22.63-16.43h-7.18v24h-4.14v-24h-7.18v-3h18.5zM94.808 75.356c0 5-.88 8.51-2.61 10.66a8.84 8.84 0 0 1-7.27 3.29 9.07 9.07 0 0 1-7.36-3.24q-2.7-3.22-2.7-10.66c0-5 .9-8.48 2.7-10.59a9.13 9.13 0 0 1 7.36-3.16 8.9 8.9 0 0 1 7.27 3.16c1.73 2.06 2.61 5.58 2.61 10.54m-4.31 0q0-6.64-1.62-8.69a4.88 4.88 0 0 0-3.95-2.06 5.1 5.1 0 0 0-4 2.06c-1.15 1.36-1.71 4.26-1.71 8.69s.56 7.34 1.71 8.76a5 5 0 0 0 4 2.14 4.81 4.81 0 0 0 3.95-2.14q1.62-2.13 1.62-8.76m27.3-5.22a7.61 7.61 0 0 1-2.52 6 10.22 10.22 0 0 1-7 2.21h-5.21v10.59h-4.13v-27h9.37a10.22 10.22 0 0 1 7 2.21 7.58 7.58 0 0 1 2.49 5.99m-4.13 0q0-3-1.62-4.11a8.7 8.7 0 0 0-4.85-1.1h-4.13v10.43h4.13a8.7 8.7 0 0 0 4.85-1.11c1.08-.73 1.62-2.11 1.62-4.11"/></g></svg>