<svg xmlns="http://www.w3.org/2000/svg" viewBox="0 0 151 114"><title>White danger sign（白色危险标志）</title><g fill="none" fill-rule="nonzero" transform="translate(.438 .436)"><path fill="#fff" stroke="#000" stroke-width=".25" d="M0 0h150v113.04H0z"/><path fill="#ffec00" d="M3.6 3.9h141.49v43.31H3.6z"/><rect width="134.06" height="33.59" x="7.31" y="8.26" fill="#e90000" stroke="#fff" stroke-width=".25" rx="3.21"/><path fill="#fff" d="M51.41 25.04c0 2.09-.56 3.57-1.67 4.46a7 7 0 0 1-4.48 1.37h-2.91V19.19h2.91a6.78 6.78 0 0 1 4.61 1.36c1 .91 1.54 2.41 1.54 4.49m-2 0a4.9 4.9 0 0 0-1-3.54 4.17 4.17 0 0 0-3.07-1h-.94v9.05h.94a4.24 4.24 0 0 0 3.07-1 4.76 4.76 0 0 0 .95-3.51zm13.46 5.83h-2.06l-1.2-3.61h-3.74l-1.21 3.61h-2l4.21-11.81h1.7zm-3.68-4.9-1.32-4.19h-.18l-1.36 4.15zM73.02 30.87h-2.15l-4.7-8.44h-.09v8.44h-2V19.19h2.19l4.7 8.44h.09v-8.44h2zm10.93.09H82.5l-.25-.95a2.6 2.6 0 0 1-1.07.68 4.6 4.6 0 0 1-4.79-1.06 5.63 5.63 0 0 1-1.4-4.25 7.4 7.4 0 0 1 1.28-4.76 4.27 4.27 0 0 1 3.5-1.56 4 4 0 0 1 3.1 1.15 4.17 4.17 0 0 1 1.11 3h-1.9a3.34 3.34 0 0 0-.6-2.15 2.12 2.12 0 0 0-1.71-.71 2.24 2.24 0 0 0-2.05 1.12 7.64 7.64 0 0 0-.68 3.78 5.3 5.3 0 0 0 .83 3.47 2.6 2.6 0 0 0 2 .95 2.35 2.35 0 0 0 1.76-.65 2.76 2.76 0 0 0 .64-2v-.75H79.6v-1.3h4.35zm11.11-.09h-8.71V19.19h8.28v1.29h-6.32v3.61h5.81v1.29h-5.81v4.15h6.75zM106.33 30.87h-2l-3.07-5h-2.27v5h-2V19.19h4.27a6.47 6.47 0 0 1 3.34.78 2.79 2.79 0 0 1 1.27 2.56 2.62 2.62 0 0 1-.86 2.1 3.94 3.94 0 0 1-2 1zm-2.39-8.3a1.77 1.77 0 0 0-.72-1.5 4 4 0 0 0-2.35-.55h-1.88v4h2.39a3.57 3.57 0 0 0 1.79-.44 1.61 1.61 0 0 0 .77-1.55z"/></g></svg>