<svg xmlns="http://www.w3.org/2000/svg" viewBox="0 0 151 151"><title>Yellow diamond caution sign（黄色菱形警告标志）</title><g fill="none" fill-rule="evenodd"><rect width="106.19" height="106.19" x="21.993" y="21.993" fill="#ffec00" fill-rule="nonzero" rx=".74" transform="rotate(45 75.088 75.088)"/><rect width="97.15" height="97.15" x="26.513" y="26.513" stroke="#000" stroke-width=".5" rx=".74" transform="rotate(45 75.088 75.088)"/><path fill="#000" fill-rule="nonzero" d="M43.308 75.626c-.06 2-.58 3.39-1.55 4.23a5.26 5.26 0 0 1-3.45 1.25 5.67 5.67 0 0 1-4-1.53c-1.11-1-1.66-2.64-1.66-4.89 0-2.45.54-4.27 1.61-5.48a5.29 5.29 0 0 1 4.14-1.8 5.05 5.05 0 0 1 3.55 1.29 4.45 4.45 0 0 1 1.3 3.61h-2.14a4.16 4.16 0 0 0-.69-2.58 2.44 2.44 0 0 0-2-.86 2.9 2.9 0 0 0-2.48 1.29 7.66 7.66 0 0 0-.93 4.34 6.4 6.4 0 0 0 .93 4 3 3 0 0 0 2.37 1.12 2.78 2.78 0 0 0 2-.82 4.37 4.37 0 0 0 .88-3.17zM56.198 80.946h-2.34l-1.36-4.15h-4.29l-1.36 4.15h-2.34l4.87-13.54h2zm-4.19-5.64-1.56-4.78h-.14l-1.61 4.78zM67.878 77.036a3.77 3.77 0 0 1-1.22 3 5.58 5.58 0 0 1-3.84 1.1 5.6 5.6 0 0 1-3.85-1.1 3.8 3.8 0 0 1-1.22-3v-9.47h2.24v9.47c-.081.754.21 1.5.78 2a3.14 3.14 0 0 0 2 .63 3.1 3.1 0 0 0 2-.63c.57-.5.86-1.246.78-2v-9.47h2.24zm12.36-7.98h-3.93v11.89h-2.2v-11.89h-3.89v-1.49h10zm8.57 11.89h-2.24v-13.38h2.24zM105.558 74.216c0 2.46-.48 4.22-1.41 5.28a5 5 0 0 1-4 1.61 5.12 5.12 0 0 1-4-1.61q-1.45-1.59-1.46-5.28t1.46-5.24a5.2 5.2 0 0 1 4-1.57 5.06 5.06 0 0 1 4 1.57c.93 1.04 1.41 2.79 1.41 5.24m-2.34 0c0-2.19-.29-3.62-.88-4.3a2.72 2.72 0 0 0-2.14-1 2.87 2.87 0 0 0-2.19 1c-.62.68-.92 2.11-.92 4.3s.3 3.64.92 4.34a2.82 2.82 0 0 0 2.19 1.06 2.67 2.67 0 0 0 2.11-1.06c.62-.7.91-2.15.91-4.34M117.628 80.946h-2.43l-5.36-9.7h-.1v9.7h-2.24v-13.38h2.44l5.37 9.74h.1v-9.7h2.24z"/></g></svg>