<svg xmlns="http://www.w3.org/2000/svg" xml:space="preserve" id="图层_1" x="0" y="0" viewBox="0 0 25 6.2"><style>.st0{fill:none;stroke:#fff;stroke-miterlimit:10}</style><path d="M0 0h25v6.2H0z" class="st0"/><path d="M0 5.2c0 .3.3.5.7.5s.7-.2.7-.5V1.7C1 2 .4 2 0 1.7zm1.7 0c0 .3.3.5.7.5s.7-.2.7-.5V1.7c-.4.3-1 .3-1.4 0zm1.6 0c0 .3.3.5.7.5s.7-.2.7-.5V1.7c-.3.3-.9.3-1.4 0zm1.7 0c0 .3.3.5.7.5s.7-.2.7-.5V1.7C6 2 5.4 2 5 1.7zm1.7 0c0 .3.3.5.7.5s.7-.2.7-.5V1.7c-.4.3-1 .3-1.4 0zm1.6 0c0 .3.3.5.7.5s.7-.2.7-.5V1.7c-.3.3-.9.3-1.4 0zm1.7 0c0 .3.3.5.7.5s.7-.2.7-.5V1.7c-.4.3-1 .3-1.4 0zm1.7 0c0 .3.3.5.7.5s.7-.2.7-.5V1.7c-.4.3-1 .3-1.5 0v3.5zm1.6 0c0 .3.3.5.7.5s.7-.2.7-.5V1.7c-.4.3-1 .3-1.5 0v3.5zm1.7 0c0 .3.3.5.7.5s.7-.2.7-.5V1.7c-.4.3-1 .3-1.4 0zm1.7 0c0 .3.3.5.7.5s.7-.2.7-.5V1.7c-.4.3-1 .3-1.5 0v3.5zm1.6 0c0 .3.3.5.7.5s.7-.2.7-.5V1.7c-.4.3-1 .3-1.5 0v3.5zM21.8 1l-1.2 4.2 2.8.8 1.2-4.2zM0 0" class="st0"/></svg>