<svg xmlns="http://www.w3.org/2000/svg" xml:space="preserve" id="图层_1" x="0" y="0" viewBox="0 0 25 13.6"><style>.st0{fill:none;stroke:#fff;stroke-miterlimit:10}</style><path d="M0 0h19.3v13.6H1.1V0z" class="st0"/><path d="M0 2.3h1.1v9.1H0zm19.3-.5H25v2.7l-.9 1.1V8l.9 1.1v2.7h-5.7zM25 4.5h-5.7M25 9.1h-5.7m5.7 2.3h-5.7M25 2.3h-5.7M2.6 1.2h15.8v10.1H2.6zm.6 11.3c0 .3-.2.5-.5.5s-.5-.2-.5-.5.3-.5.5-.5c.3 0 .5.2.5.5m1.3 0c0 .3-.2.5-.5.5s-.5-.2-.5-.5.3-.5.6-.5c.2 0 .4.2.4.5m1.4 0c0 .3-.2.5-.5.5-.2 0-.4-.2-.4-.5s.2-.5.5-.5c.2 0 .4.2.4.5m1.4 0c0 .3-.2.5-.5.5s-.5-.2-.5-.5.2-.5.5-.5.5.2.5.5m1.1-.7h4.1v1.4H8.4z" class="st0"/></svg>