<svg xmlns="http://www.w3.org/2000/svg" xml:space="preserve" id="图层_1" x="0" y="0" viewBox="0 0 25 25"><style>.st0{fill:none;stroke:#fff;stroke-miterlimit:10}</style><path d="m9.8 13.2-3.2-2.4c-.5-.4-.8-1-.6-1.6 1-1.4 2.2-2.7 3.6-3.7.6-.1 1.2.1 1.5.6l2.5 3.1c.2.4.2 1-.2 1.4l-2.2 2.3c-.5.4-1 .5-1.4.3z" class="st0"/><path d="M10.5 13.7c-.1.1-.3 0-.4-.1s0-.3.1-.4c1.4-.9 2.6-2.1 3.5-3.6q.15-.15.3 0c.1.1.2.2.2.3-.8 1.6-2.1 2.9-3.7 3.8" class="st0"/><path d="M0 0h25v6.7H15L6.7 15v10H0zm0 0" class="st0"/></svg>