<svg xmlns="http://www.w3.org/2000/svg" xml:space="preserve" id="图层_1" x="0" y="0" viewBox="0 0 23.6 25"><style>.st0{fill:none;stroke:#fff;stroke-miterlimit:10}</style><path d="M0 25V4c.6-2.4 2.8-4 5.2-4s4.6 1.7 5.2 4C12.1 8.9 16 12.7 21 14.2c1.3.4 2.3 1.9 2.6 3.8v7zM0 0" class="st0"/><path d="M0 22.9h23.6V25H0zM0 0zm.5 22.9V25m1.1-2.1V25m1-2.1V25m1.1-2.1V25m1-2.1V25m1.1-2.1V25m1-2.1V25m1.1-2.1V25m1-2.1V25M1 22.9V25m1.1-2.1V25m1-2.1V25m1.1-2.1V25m1-2.1V25m1.1-2.1V25m1-2.1V25m1.1-2.1V25m1-2.1V25m.6-2.1V25m1-2.1V25m1-2.1V25m1.1-2.1V25m1-2.1V25m1.1-2.1V25m1-2.1V25m1.1-2.1V25m1-2.1V25m-7.8-2.1V25m1-2.1V25m1.1-2.1V25m1-2.1V25m1.1-2.1V25m1-2.1V25m1.1-2.1V25m1-2.1V25m1.1-2.1V25m.5-2.1V25m1-2.1V25m1.1-2.1V25m1-2.1V25m-2.6-2.1V25m1.1-2.1V25m1-2.1V25m1-2.1V25" class="st0"/></svg>