<svg xmlns="http://www.w3.org/2000/svg" xml:space="preserve" id="图层_1" x="0" y="0" viewBox="0 0 20.2 25"><style>.st0{fill:none;stroke:#fff;stroke-miterlimit:10}</style><path d="M0 0h20.2v24.2H0z" class="st0"/><path d="M16.3 6c0 .7-.5 1.2-1.2 1.2s-1.2-.5-1.2-1.2.5-1.2 1.2-1.2 1.2.6 1.2 1.2m.4 12.1c0 .9-.7 1.6-1.6 1.6s-1.6-.7-1.6-1.6.7-1.6 1.6-1.6 1.6.8 1.6 1.6m-9.6 0c0 1.1-.9 2-2 2s-2-.9-2-2 .9-2 2-2 2 .9 2 2M7.5 6c0 1.3-1.1 2.4-2.4 2.4-1.4.1-2.5-1-2.5-2.4S3.7 3.6 5 3.6c1.4 0 2.5 1.1 2.5 2.4m6.2-1.4 2.8 2.8m0-2.8-2.8 2.8m-.4 8.9 3.6 3.6m0-3.6L13.3 20M2.4 3.4l5.2 5.2m.1-5.2L2.4 8.7m.4 7.2 4.4 4.4m.1-4.4-4.4 4.4M2 24.2h2v.8H2zm3.6 0h2v.8h-2zm3.7 0h2v.8h-2zm3.6 0h2v.8h-2zm3.6 0h2v.8h-2z" class="st0"/></svg>