<svg xmlns="http://www.w3.org/2000/svg" xml:space="preserve" id="图层_1" x="0" y="0" viewBox="0 0 25 21.9"><style>.st0{fill:none;stroke:#fff;stroke-miterlimit:10}</style><path d="M.1 0H25v21.8s0 .1-.1.1H.1s-.1 0-.1-.1L.1 0q-.15 0 0 0z" class="st0"/><path d="m.1 0 22.3 6.3s.1 0 .1.1v12.9s0 .1-.1.1L2.6 28.1h-.1V6.3s0-.1.1-.1zM0 0z" class="st0"/><path d="m.3 0 13.1 1.9c.2 0 .3.2.3.3v9.4q0 .3-.3.3l-1.6 8.5c0 .2-.2.3-.4.3-.1 0-.3-.2-.3-.3V2.2q0-.3.3-.3z" class="st0"/><path d="m.3 0 13.1 1.9c.2 0 .3.2.3.3v6.2q0 .3-.3.3l-1.6 10.7c0 .2-.2.3-.4.3s-.3-.2-.3-.3V2.2q0-.3.3-.3z" class="st0"/></svg>