<svg xmlns="http://www.w3.org/2000/svg" xml:space="preserve" id="图层_1" x="0" y="0" viewBox="0 0 25 10.9"><style>.st0{fill:none;stroke:#fff;stroke-miterlimit:10}</style><path d="M0 0h25v10.9H0z" class="st0"/><path d="m0 0 11.2 3.1v6.5L1.3 14h-.1V3.2z" class="st0"/><path d="M.2 0 13 .9c.1 0 .1.1.1.2v4.7c0 .1-.1.2-.2.2l-.8 4.3c0 .1-.1.1-.2.1s-.1-.1-.1-.2V1.1c0-.1.1-.2.2-.2z" class="st0"/><path d="M.2 0 13 .9c.1 0 .1.1.1.2v3.1c0 .1-.1.2-.2.2l-.8 5.4c0 .1-.1.1-.2.1s-.1-.1-.1-.2V1.1c0-.1.1-.2.2-.2z" class="st0"/><path d="m0 0 23.7 3.1v6.5L13.8 14h-.1V3.2zm0 0" class="st0"/></svg>