<svg xmlns="http://www.w3.org/2000/svg" xml:space="preserve" id="图层_1" x="0" y="0" viewBox="0 0 25 22.2"><style>.st0{fill:none;stroke:#fff;stroke-miterlimit:10}</style><path d="M2.8 2.8h19.4v2.8H2.8z" class="st0"/><path d="M.1 0h4.1s.1 0 .1.1v22.1s0 .1-.1.1H.1s-.1 0-.1-.1L.1 0q-.15 0 0 0z" class="st0"/><path d="M.1 0h20.7s.1 0 .1.1v4.1s0 .1-.1.1l-16.5 18h-.1V.3s0-.1.1-.1H.1z" class="st0"/><path d="m0 0 20.8 4.2v18L4.2 26.4V4.2z" class="st0"/><path d="M.1 0H25v22.2s0 .1-.1.1h-4.1s-.1 0-.1-.1V.1s0-.1.1-.1z" class="st0"/></svg>