<svg xmlns="http://www.w3.org/2000/svg" xml:space="preserve" id="图层_1" x="0" y="0" viewBox="0 0 25 17.5"><style>.st0{fill:none;stroke:#fff;stroke-miterlimit:10}</style><path d="m14.5 1.2.4 3.5c.1.5-.1 1-.6 1.3-1.5.2-3.1.2-4.6 0-.4-.2-.6-.7-.5-1.3l.4-3.5c.1-.4.5-.7 1-.7h2.8c.5 0 1 .3 1.1.7z" class="st0"/><path d="M14.3.4c.1 0 .2.2.1.3s-.2.2-.3.2c-1.5-.4-3-.4-4.4 0-.1 0-.2-.1-.2-.2V.4q2.55-.6 4.8 0m8.7.8.4 3.5c.1.5-.1 1-.6 1.3-1.5.2-3.1.2-4.6 0-.4-.3-.7-.8-.6-1.3l.4-3.5c.1-.4.5-.7 1-.7h3c.5 0 .9.3 1 .7z" class="st0"/><path d="M22.9.4c.1 0 .2.2.1.3s-.2.2-.3.2c-1.5-.4-3-.4-4.4 0-.1 0-.2-.1-.2-.2V.4q2.4-.6 4.8 0m-13.3 13-.4-3.6c-.1-.5.2-1 .6-1.3 1.5-.2 3.1-.2 4.6 0 .4.3.7.8.6 1.3l-.5 3.5c-.1.4-.5.7-1 .7h-2.8c-.6.1-1-.2-1.1-.6z" class="st0"/><path d="M9.7 14.2c-.1 0-.2-.2-.1-.3 0-.1.2-.2.3-.2 1.5.4 3 .4 4.4 0 .1 0 .2.1.2.2v.3c-1.6.4-3.3.4-4.8 0m8.5-1-.4-3.5c-.1-.5.2-1 .6-1.3 1.5-.2 3.1-.2 4.6 0 .4.3.7.8.6 1.3l-.6 3.5c-.1.4-.5.7-1 .7h-2.8c-.5 0-.9-.3-1-.7z" class="st0"/><path d="M18.3 14c-.1 0-.2-.2-.1-.3 0-.1.2-.2.3-.2 1.5.4 3 .4 4.4 0 .1 0 .2.1.2.2v.3c-1.7.5-3.3.4-4.8 0M7.3 2H25v10.3H7.3z" class="st0"/></svg>