<svg xmlns="http://www.w3.org/2000/svg" xml:space="preserve" id="图层_1" x="0" y="0" viewBox="0 0 25 12.5"><style>.st0{fill:none;stroke:#fff;stroke-miterlimit:10}</style><path d="m17.9 1 .3 2.8c.1.4-.1.8-.5 1q-1.8.3-3.6 0c-.3-.2-.5-.6-.5-1l.5-2.8c.1-.3.4-.5.8-.6h2.2c.4.1.7.3.8.6z" class="st0"/><path d="M17.8.4c.1 0 .1.1.1.3 0 .1-.1.2-.2.1-1.1-.3-2.3-.3-3.4 0-.1 0-.1-.1-.2-.2s0-.2 0-.2c1.2-.3 2.5-.3 3.7 0m3.8 8.4-2.8.3c-.4.1-.8-.1-1-.5q-.3-1.8 0-3.6c.2-.3.6-.5 1-.5l2.8.5c.3.1.5.4.6.8V8c-.1.4-.3.7-.6.8z" class="st0"/><path d="M22.2 8.7c0 .1-.2.1-.3.1s-.2-.1-.1-.2c.3-1.1.3-2.3 0-3.4 0-.2.1-.2.2-.2h.2c.3 1.2.3 2.5 0 3.7m-8.2 4-.3-2.8c-.1-.4.1-.8.5-1q1.8-.3 3.6 0c.3.2.5.6.5 1l-.4 2.8c-.1.3-.4.5-.8.6h-2.2q-.75-.15-.9-.6z" class="st0"/><path d="M14.1 13.3c-.1 0-.1-.2-.1-.3s.1-.2.2-.1c1.1.3 2.3.3 3.4 0 .1 0 .1.1.2.2v.2c-1.2.3-2.5.3-3.7 0m-3.7-8.4 2.8-.3c.4-.1.8.1 1 .5q.3 1.8 0 3.6c-.2.3-.6.5-1 .4l-2.8-.4c-.4-.1-.6-.4-.6-.8V5.7c0-.4.3-.7.6-.8z" class="st0"/><path d="M9.7 5c0-.1.2-.1.3-.1s.2.1.1.2c-.3 1.1-.3 2.3 0 3.4 0 .1-.1.1-.2.1h-.2q-.45-1.8 0-3.6M0 0" class="st0"/></svg>