<svg xmlns="http://www.w3.org/2000/svg" xml:space="preserve" id="图层_1" x="0" y="0" viewBox="0 0 20.7 25"><style>.st0{fill:none;stroke:#fff;stroke-miterlimit:10}</style><path d="M5.4 20.7H.8V8.4h4.6zm7.2 0H8V10.6h4.6zm7.3 0h-4.6V7c1.5.8 3.2.8 4.6 0zm.8 4.3H0v-3.5h20.7zM0 0" class="st0"/><path d="M5.4 20.7H.8v-1h4.6zm7.2 0H8v-1h4.6zm7.3 0h-4.6v-1h4.6zm.8 4.3H0v-1.1h20.7zM0 0zm20.4 2.7v1.2c0 1.4-1.2 2.7-2.8 2.7s-2.8-1.3-2.8-2.7V2.7C14.8 1.4 16 0 17.6 0s2.8 1.3 2.8 2.7zM0 0" class="st0"/><path d="M20.4 2.7v1.2c0 1.4-1.2 2.7-2.8 2.7s-2.8-1.3-2.8-2.7V2.7c0 1.8 1.4 2.9 2.8 2.9s2.8-1.1 2.8-2.9zM0 0" class="st0"/></svg>