<svg xmlns="http://www.w3.org/2000/svg" xml:space="preserve" id="图层_1" x="0" y="0" viewBox="0 0 23.9 25"><style>.st0{fill:none;stroke:#fff;stroke-miterlimit:10}</style><path d="M23.9 20.9c0 2.3-1.9 4.1-4.1 4.1H4.1C1.9 25 0 23.2 0 21V4c0-2 1.7-4 4.1-4h15.6c2.3 0 4.1 1.9 4.1 4.1v16.8zM0 0" class="st0"/><path d="M23.9 20.9c0 2.3-1.9 4.1-4.1 4.1H4.1C1.9 25 0 23.2 0 21v-1.1C0 22.3 2.1 24 4 24h15.9c1.9 0 4-1.6 4-4.1zM0 0zm12.1 17.8c3.3 0 5.7-2.9 5.7-5.9 0-2.7-2.4-5.7-5.9-5.7C7.9 6.2 6 9.6 6 12c.1 3.1 2.8 5.8 6.1 5.8z" class="st0"/><path d="M11.7 20.4c-4.1 0-8.3-3.5-8.3-8.5 0-4.5 3.8-8.3 8.4-8.3 5 0 8.5 4 8.5 8.4.1 4.2-3.2 8.4-8.6 8.4zM0 0" class="st0"/></svg>