<svg xmlns="http://www.w3.org/2000/svg" xml:space="preserve" id="图层_1" x="0" y="0" viewBox="0 0 25 19.6"><style>.st0{fill:none;stroke:#fff;stroke-miterlimit:10}</style><path d="M25 9.1c0 .4-.3.6-.6.6h-2.6V19c0 .3-.2.6-.6.6H3.8c-.4 0-.6-.3-.6-.6V9.7H.5c-.3 0-.5-.3-.5-.6V7.4c0-.1.1-.2.2-.3L12.5 0l12.3 7.1c.1.1.2.2.2.3zM0 0" class="st0"/><path d="M3.2 9.7H.5c-.3 0-.5-.3-.5-.6v-.8c0 .4.3.6.5.6h2.7zm18.6 0v-.8h2.7c.2 0 .5-.2.5-.6V9c0 .4-.3.6-.6.6h-2.6zm0 8.6v.7c0 .3-.2.6-.6.6H3.8c-.4 0-.6-.3-.6-.6v-.7c0 .3.3.5.5.6h17.5c.4-.1.6-.4.6-.6zM0 0zm12.6 14.7c2.3 0 4-1.9 4-4 0-1.7-1.4-4-4.1-4-1.5 0-4 1.3-4 4.1 0 2.2 2 3.9 4.1 3.9z" class="st0"/><path d="M12.5 16.5c-3.2 0-5.8-2.6-5.8-5.8 0-3 2.4-5.8 5.8-5.8 3.8 0 5.9 3.1 5.9 5.8-.1 3.2-2.6 5.8-5.9 5.8zM0 0" class="st0"/></svg>