<svg xmlns="http://www.w3.org/2000/svg" xml:space="preserve" id="图层_1" x="0" y="0" viewBox="0 0 23.9 25"><style>.st0{fill:none;stroke:#fff;stroke-miterlimit:10}</style><path d="M23.9 21c0 2.1-1.8 4-4.1 4H4.1C1.8 25 0 23.1 0 21V4.1C0 1.9 1.8 0 4.1 0h15.8c2.3 0 4 1.9 4 4.1zM0 0" class="st0"/><path d="M4.1 25C1.8 25 0 23 0 21v-1.1C0 22.2 1.9 24 4 24h15.8c2.3 0 4-2 4-4v1c0 2.1-1.8 4-4.1 4zM0 0zm9.1 9.5V4.7H5.5v4.8zm4.7 0V4.7h-3.6v4.8zm4.6 0V4.7h-3.6v4.8z" class="st0"/><path d="M19.5 10.7H4.3V3.6h15.2zm-4.7 8.4h3.6v-4.8h-3.6zm-4.6 0h3.6v-4.8h-3.6zm-4.7 0h3.6v-4.8H5.5z" class="st0"/><path d="M4.3 20.3v-7.2h15.2v7.2zM0 0" class="st0"/></svg>