<svg xmlns="http://www.w3.org/2000/svg" xml:space="preserve" id="图层_1" x="0" y="0" viewBox="0 0 20.7 25"><style>.st0{fill:none;stroke:#fff;stroke-miterlimit:10}</style><path d="M7.2 23.5v-3.2l-4.3 1.2L0 19.9v-5.8l5-.2 2.2.1v-2.9l-2.2.2-5-.3V5.2l2.9-1.4L7.2 5V1.5L10.3 0l3.1 1.5v3.4l4.3-1.2 2.9 1.5V11l-5 .2-2.2-.1V14l2.2-.1 5 .2v5.8l-2.9 1.5-4.3-1.2v3.2L10.3 25zM0 0" class="st0"/><path d="m17.8 10.7-4.4.3V9.4h.1l2.6-.3V6.2l-2.7-.9v-.4l4.3-1.2v7zm0 10.7-4.3-1.2v-.5l2.7-.9V16l-2.6-.3h-.2v-1.6l4.3.2v7.1zM4.5 9.1V6.2l2.7-.9V1.5L10.3 0v25l-3.1-1.5v-3.7l-2.7-.9V16l2.7.5V8.6zm-1.6 1.6L0 11V5.2l2.9-1.4zm0 10.7L0 19.9v-5.8l2.9.3zM0 0" class="st0"/><path d="m7.1 9.4-2.6-.3 2.7-.5v.7zM20.7 11l-5 .2-2.2-.1V11l4.3-.2zm-7.3-1.6v-.8l2.7.5-2.6.3zM5 11.3 0 11l2.9-.3 4.3.3v.1zm12.8 3-4.3-.2V14l2.2-.1 5 .2zm-4.4 2.1v-.7h.2l2.6.3zm-6.2 0L4.5 16l2.6-.3h.2v.7zm-4.3-2.1L0 14.1l5-.2 2.2.1v.1zM0 0" class="st0"/></svg>