<svg xmlns="http://www.w3.org/2000/svg" xml:space="preserve" id="图层_1" x="0" y="0" viewBox="0 0 20.7 25"><style>.st0{fill:none;stroke:#fff;stroke-miterlimit:10}</style><path d="m13.5 18 3.9-1V8l-3.9-1z" class="st0"/><path d="M10.4 25 6 22.8v-1.3l-1.7.5L0 19.9v-3.7l3-.3 3 .6v-1.3l-1.7.2-4.3-.7v-4.4l4.3-.6 1.7.1V8.6l-3 .6-3-.3V5.2L4.3 3l1.7.6V2.2L10.4 0l10.4 5.2v14.6zM0 0" class="st0"/><path d="M13.5 19.1V18l3.9-1 2 .3zm-9.2-1.9-4.3-1 3-.3 3 .6v.5zM13.5 7V6l5.9 1.8-2 .3zM6 8.6l-3 .6-3-.3 4.3-1 1.7.2zM0 0" class="st0"/><path d="M4.3 7.9 0 8.9V5.2L4.3 3zm15.1 9.4-2-.3V8l2-.3zm-9 7.7L6 22.8V2.2L10.4 0zm-6.1-2.9L0 19.9v-3.7l4.3 1zm0-6.8L0 14.7v-4.4l4.3-.6zM0 0" class="st0"/></svg>