<svg xmlns="http://www.w3.org/2000/svg" xml:space="preserve" id="图层_1" x="0" y="0" viewBox="0 0 20.7 25"><style>.st0{fill:none;stroke:#fff;stroke-miterlimit:10}</style><path d="M10.3 9.4 0 8.1V5.2L10.3 0l10.4 5.2v2.9zm-3 5.1-1.3.1-1.2-.1v-3.9l1.2-.2 1.3.1zm7.4 4.2-1.2-.3v-3.9l1.2-.1 1.2.1v3.9z" class="st0"/><path d="m10.3 25-6.5-3.3v-1.8l4.9-1.1v-8.6l1.6-.2 1.6.2v8.6l4.9 1.1v1.8zM0 0" class="st0"/><path d="m14.7 18.7-1.2-.3v-3.9l1.2.1zM10.3 5 0 8.1V5.2L10.3 0zM6 14.6l-1.2-.1v-3.9l1.2-.2zm4.3 5.4-1.6-.5v-9.3l1.6-.2zm0 5-6.5-3.3v-1.8l6.5 2.6zM0 0" class="st0"/><path d="M20.7 8.1 10.3 9.4 0 8.1 10.3 5zm-6 6.5-1.2-.1 1.2-.1 1.2.1zm-4.4 7.9-6.5-2.6 4.9-1.1v.8l1.6.5 1.6-.5v-.8l4.9 1.1zM0 0" class="st0"/></svg>