<svg xmlns="http://www.w3.org/2000/svg" xml:space="preserve" id="图层_1" x="0" y="0" viewBox="0 0 20.7 25"><style>.st0{fill:none;stroke:#fff;stroke-miterlimit:10}</style><path d="M2.8 14 0 9.6l2.9-4.4 2.9 4.4zm7.5 11-4.1-6.2V6.2L10.3 0l4.2 6.2v12.5zm7.5-3.7-2.9-4.4 3-4.4 2.8 4.4zM0 0" class="st0"/><path d="M2.8 14 0 9.6l1.9-.4zm7.5 11-4.1-6.2 4.1 1.2zm7.5-3.7-2.9-4.4 3.9.4zm0 0 1-4 1.9-.4zM10.3 20l4.2-1.3-4.2 6.3z" class="st0"/><path d="m1.9 9.2 3.8.4-3 4.4zM10.3 20l-4.1-1.2V6.2L10.3 5zm4.2-13.8L10.3 5V0zm4.3 11.1-.9-4.8 2.8 4.4zm-13-7.7-3.9-.4 1-4zM0 0" class="st0"/></svg>