<svg xmlns="http://www.w3.org/2000/svg" xml:space="preserve" id="图层_1" x="0" y="0" viewBox="0 0 18.2 25"><style>.st0{fill:none;stroke:#fff;stroke-miterlimit:10}</style><path d="M18.2 24c0 .4-.5 1-1.3 1H1.5C.7 25 0 24.5 0 23.6V1.3C0 .6.6 0 1.3 0h15.6c.5 0 1.3.3 1.3 1.4zM0 0" class="st0"/><path d="M18.2 22.5V24c0 .4-.5 1-1.3 1H1.5C.7 25 0 24.5 0 23.6v-1.1c0 .7.6 1.3 1.3 1.3h15.6c.6.1 1.3-.4 1.3-1.3zM0 0zm5.9 3v1.5H2.2V3zm5 0v1.5H7.3V3zM16 3v1.5h-3.7V3zM5.9 5.6v1.5H2.2V5.6zm5 0v1.5H7.3V5.6zm5.1 0v1.5h-3.7V5.6zM5.9 8.1v1.5H2.2V8.1zm5 0v1.5H7.3V8.1zm5.1 0v1.5h-3.7V8.1zM5.9 10.7v1.5H2.2v-1.5zm5 0v1.5H7.3v-1.5zm5.1 0v1.5h-3.7v-1.5zM5.9 13.3v1.5H2.2v-1.5zm5 0v1.5H7.3v-1.5zm5.1 0v1.5h-3.7v-1.5zM5.9 15.8v1.5H2.2v-1.5zm5 0v1.5H7.3v-1.5zm5.1 0v1.5h-3.7v-1.5zM0 0" class="st0"/></svg>