<svg xmlns="http://www.w3.org/2000/svg" xml:space="preserve" id="图层_1" x="0" y="0" viewBox="0 0 25 24.7"><style>.st0{fill:none;stroke:#fff;stroke-miterlimit:10}</style><path d="M12.5 24.7 0 18.5V15l12.5-1.6L25 15v3.5zM0 0" class="st0"/><path d="m0 15 12.5-1.6L25 15l-12.5 3.7zM0 0z" class="st0"/><path d="M0 13.2V9.6h2.5v-4l2.1-.4 1.9.2v1.8L8.8 7l1.8.1V1.2l2-.6 2 .6v3.4l1.8-.3 2.2.4V1.2l2-.5 1.2.5V.4l1.6-.4 1.6.8v12.4l-1.6.3-.9-.1v.3l-2.1.4-1.2-.1v.4l-3 .6-1.8-.3v.6l-2 .4-2-.4v-.6l-1.6.3-2.9-.6V14l-1.2.1-2.1-.4v-.3l-.9.1zM0 0" class="st0"/><path d="M22.5 13.4V1.6l-.9-.3V.4l1.8-.4v13.5zm-3.3.6V5l-.8-.1V1.2l2-.5v13.4zm-4.7.7v-10l1.8-.3V15zm-4 .6V1.2l2-.6v15.1zm-4.7-.9V7.3l3-.3v8zm-3.3-.7V5.6l2.1-.4v8.9zM0 13.2V9.6h1.6v3.8zm12.5 11.5L0 18.5V15l12.5 3.7zM0 0" class="st0"/></svg>