<svg xmlns="http://www.w3.org/2000/svg" xml:space="preserve" id="图层_1" x="0" y="0" viewBox="0 0 24 25"><style>.st0{fill:none;stroke:#fff;stroke-miterlimit:10}</style><path d="M10.7 25H0v-7.3h10.7zm0-8.8H0V8.8h10.7zm0-8.9H0V0h10.7zm13.3 0H13.3V0H24zm0 8.9H13.3V8.8H24zm0 8.8H13.3v-7.3H24zM0 0" class="st0"/><path d="M0 25v-1h10.7v1zm0-8.8v-1.1h10.7v1.1zm0-8.9v-1h10.7v1zm13.3 0v-1H24v1zm0 8.9v-1.1H24v1.1zm0 8.8v-1H24v1zM0 0zm5.3 5.3c-1.2 0-2.1-.9-2.1-2.1S4.1 1 5.4 1c1.1 0 2.1.9 2.1 2.1 0 1.3-1 2.2-2.2 2.2zm0 8.8c-1 0-2.1-.8-2.1-2.1 0-1.1.8-2.1 2.2-2.1 1.1 0 2.1.9 2.1 2.1 0 1.1-.8 2.1-2.2 2.1zm0 8.8c-1.1 0-2.1-.9-2.1-2.2 0-1.1.9-2.1 2.2-2.1 1.2 0 2.1 1 2.1 2.1 0 1.2-.9 2.2-2.2 2.2zM0 0" class="st0"/></svg>