<svg xmlns="http://www.w3.org/2000/svg" xml:space="preserve" id="图层_1" x="0" y="0" viewBox="0 0 25 23.9"><style>.st0{fill:none;stroke:#fff;stroke-miterlimit:10}</style><path d="M4.6 17.6v-2.4H0V8.8h4.6V6.4l5 5v1.2zm15.8 0-5-5v-1.2l5-5v2.4H25v6.4h-4.6z" class="st0"/><path d="m12.5 23.9-5-5v-1.2h1.9V14l2-2-2-2V6.2H7.5V5l5-5 5 5v1.2h-1.9V10l-2 2 2 2v3.8h1.9V19zM0 0" class="st0"/><path d="M15.7 6.2V5h1.9v1.2zm-8.2 0V5h1.9v1.2zm10 11.5v1.2l-5 5-5-5v-1.2l5 5zm2.9-3.7H25v1.2h-4.6zm-5-2.6 5 5v1.2l-5-5zm-2.3 0 2.6-2.6V10l-2 2zM9.3 10V8.8l2.6 2.6-.6.6zm-4.7 6.4 5-5v1.2l-5 5zM0 15.2V14h4.6v1.2zM0 0" class="st0"/></svg>