<svg xmlns="http://www.w3.org/2000/svg" xml:space="preserve" id="图层_1" x="0" y="0" viewBox="0 0 25 25"><style>.st0{fill:none;stroke:#fff;stroke-miterlimit:10}</style><path d="M17.4 25H16v-2.3h-.7V25h-1.4v-2.3h-.7V25h-1.4v-2.3h-.7V25H9.7v-2.3H9V25H7.6v-2.3H6.4c-1.7 0-3.2-1.4-3.2-3.2v-2.1H0V16h3.2v-.7H0v-1.4h3.2v-.7H0v-1.4h3.2v-.7H0V9.7h3.2V9H0V7.6h3.2V6.3c0-1.5 1.3-3.1 3.2-3.1h1.2V0H9v3.2h.7V0h1.4v3.2h.7V0h1.4v3.2h.7V0h1.4v3.2h.7V0h1.4v3.2h1.2c1.6 0 3.2 1.3 3.2 3.2v1.2H25V9h-3.2v.7H25v1.4h-3.2v.7H25v1.4h-3.2v.7H25v1.4h-3.2v.7H25v1.4h-3.2v2.1c0 1.6-1.3 3.2-3.2 3.2h-1.2zM0 0" class="st0"/><path d="M7.6 22.7H6.4c-1.7 0-3.2-1.4-3.2-3.2v-.8c0 1.4 1.2 3.1 3.2 3.1h1.2zm1.4 0v-.9h.7v.9zm2.1 0v-.9h.7v.9zm2.1 0v-.9h.7v.9zm2.1 0v-.9h.7v.9zm2.1 0v-.9h1.3c1.6 0 3.1-1.4 3.1-3.1v.8c0 1.6-1.3 3.2-3.2 3.2zM0 0zm8 13c-.6-.1-1.7.3-2.2 1.4-.2.6-.2 1.5.5 2.2.9.9 2.1.9 2.9.2 1.2-.9 1.1-2.8-.2-3.6l-.6 2.1c-.1.2-.4.4-.7.3s-.4-.4-.3-.7zm4.6.9 1.6-3.1-3.7-.4 1.9 3.5zm.1 1.3c0-.1-.1-.3-.2-.3s-.2.1-.2.2.1.2.2.2c.2.1.2 0 .2-.1zm1.3-.6c.2-1.1.8-1.7 1.4-2.1l-.4-.9-1.4 2.8c.1.1.1.2.2.3h.2zm1.1 0h1.3l-.5-1.2c-.4.3-.7.7-.8 1.2z" class="st0"/><path d="M15.1 15.7c.2.9 1 1.5 1.9 1.6s1.5-.3 2-.8c.5-.6.7-1.6.1-2.5-.4-.6-1.1-1.2-2.2-1l1.2 2.7z" class="st0"/><path d="M16.3 12c1-.3 2.1-.1 2.9.7 1 .9 1.4 2.2 1 3.4-.4 1.3-1.6 2.3-3.1 2.3-1.7 0-2.9-1.2-3.2-2.7h-.3c-.2.4-.7.9-1.4.8-.5-.1-1-.5-1.1-1-.1-.3 0-.7.2-1l-1.8-3.3-.4 1.2c1 .5 1.8 1.6 1.8 3.1 0 1.4-1.2 3.1-3.2 3.1-1.8 0-3.2-1.5-3.2-3.2 0-1.5 1-3 2.9-3.2h.7l.6-1.8c-.5-.1-1-.5-1.2-1 0-1 .3-1.9 1-2.2.3-.1.8-.2 1.1 0q.3.15.3.6c-.1.2-.4.4-.7.4-.3-.1-.5.1-.5.5 0 .3.1.5.7.6.3 0 3.2.3 5 .6v-.4h-.7c-.2 0-.5-.2-.5-.5 0-.4.4-.6.5-.5h1.7c.1 0 .1 0 .1-.1 0-.3.3-.5.5-.5.3 0 .6.2.6.6 0 .6-.5 1.1-1.2 1.1v.6zM0 0" class="st0"/></svg>