<svg xmlns="http://www.w3.org/2000/svg" xml:space="preserve" id="图层_1" x="0" y="0" viewBox="0 0 18.3 25"><style>.st0{fill:none;stroke:#fff;stroke-miterlimit:10}</style><path d="M15.2 16.6V25l-6.1-4.1-6 4.1v-8.4l-.5.1v-1l.2-1.1-1.9-.3v-1l.5-1.1-1.4-.6v-1l.9-1-.9-1v-1l1.4-.7-.5-1v-1l1.9-.3-.2-1v-1l2 .3.3-2 1.8.9 1-1.8 1.5 1.4L10.6 0l.9 1.8 1.8-.9.3 2 2-.3v1l-.2 1.1 1.9.3v1l-.5 1 1.4.7v1l-.9 1 .9 1v1l-1.4.7.5 1.1v1l-1.9.3.2 1.1v1zM0 0" class="st0"/><path d="m15.4 13.7 2-.3v1l-1.9.3zm1.1-2.2 1.8-.9v1l-1.4.7zm.3-2.4 1.4-1.5v1l-.9 1zm-.3-2.4.9-1.8v1l-.5 1zm-1.1-2.1.3-2v1l-.2 1.1zm-12.7 0-.1-1v-1l.3 2zM1.4 6.9l-.5-1v-1l.9 1.8zM.9 9.6l-.9-1v-1l1.4 1.5zm.5 2.7L0 11.6v-1l1.8.9zm1.3 2.3-1.9-.3v-1l2 .3zM15.2 25l-6.1-4.1-6 4.1v-1l6.1-4.1 6.1 4.1v1zm.5-9.3v1l-2-.3-.3 2-1.8-.9-.9 1.8-1.5-1.4-1.5 1.4-.9-1.8-1.8.9-.3-2-2 .3v-1l2-.3.3 2 1.8-.9.9 1.8 1.5-1.4 1.5 1.4.9-1.8 1.8.9.3-2zM0 0zm5.3 10.1c.4 0 .7-.3.7-.7 0-.5-.4-.8-.7-.8-.4 0-.7.4-.7.8s.3.7.7.7z" class="st0"/><path d="M9.2 10.5c-.4.9-1.3 1.8-2.7 1.8-1.3 0-2.8-1.1-2.7-2.9.1-1.5 1.3-2.8 2.9-2.7 1.2 0 2.1.8 2.4 1.3h1.6l.3.7 1.1-.1.4.4.4.1 1-.6 1 1-.5.9H9.2z" class="st0"/><path d="M9.2 15.7c3.5 0 6.5-2.8 6.5-6.6 0-3.5-2.8-6.6-6.6-6.6-3.6 0-6.6 2.8-6.6 6.6.1 3.9 3.2 6.6 6.7 6.6z" class="st0"/><path d="M9.1 16.7c-3.9 0-7.5-3.2-7.5-7.6s3.7-7.5 7.5-7.5c4.1 0 7.5 3.4 7.5 7.5.1 4.4-3.5 7.6-7.5 7.6zM0 0" class="st0"/></svg>