<svg xmlns="http://www.w3.org/2000/svg" xml:space="preserve" id="图层_1" x="0" y="0" viewBox="0 0 19.6 25"><style>.st0{fill:none;stroke:#fff;stroke-miterlimit:10}</style><path d="M10.2 17.6H0V0h14.9v15.3l-1.7-2.9z" class="st0"/><path d="M19.6 25H6.8v-1l6.4-11.2L19.6 24zM0 0" class="st0"/><path d="M10.2 17.6H0v-1h10.2l3-5.3 1.7 2.9v1l-1.7-2.9zM6.8 25v-1h12.9v1zM0 0z" class="st0"/><path d="M6.6 13.6v-1.2h6l-.7 1.2zm-1-2.1L3 14.1l-1.6-1.6.8-.8.8.8 1.8-1.8zm1-2.6V7.7h6.6v1.2zm-1-2L3 9.4 1.5 7.8l.8-.8.8.8L4.9 6zm7.6-2.7H6.6V3h6.6zM5.6 2.3 3 4.8 1.5 3.2l.8-.8.8.8 1.7-1.7zM13 20.6l-.2-1.7v-1.1h.8v1.1l-.2 1.7zm-.2 1.2V21h.8v.8z" class="st0"/><path d="M9.9 22.2h6.7l-3.3-5.8z" class="st0"/><path d="m8.2 23.2 5-8.7 5 8.7zM0 0" class="st0"/></svg>