<svg xmlns="http://www.w3.org/2000/svg" xml:space="preserve" id="图层_1" x="0" y="0" viewBox="0 0 19.9 25"><style>.st0{fill:none;stroke:#fff;stroke-miterlimit:10}</style><path d="M16.6 18.4V17c0-1-.8-1.6-1.7-1.6-1 0-1.7.7-1.7 1.6v1.5h3.4z" class="st0"/><path d="M19.9 25h-10v-6.6H0V0h15.6v12.9h-.7c-.5 0-1.1.1-1.7.4-1.7.7-2.6 2.4-2.6 3.9v1.2h1v-2.5c.1-1.4.8-2.1 1.7-2.6 1.2-.6 2.4-.5 3.4 0 .9.5 1.5 1.5 1.6 2.6v2.5H20V25zM0 0" class="st0"/><path d="M10.6 17.4v1H0v-1zm5-5.5v1h-.7c-.5 0-1.1.1-1.7.4-1.7.7-2.6 2.4-2.6 3.9v-1c0-1.1.6-2.2.9-2.6.7-1 1.6-1.4 2.4-1.6.3-.1.8-.1 1.7-.1zm1 5.1c0-1-.8-1.6-1.7-1.6-1 0-1.7.7-1.7 1.6v-1c0-1 .8-1.6 1.7-1.6s1.7.7 1.7 1.6zm3.3 8h-10v-1h10zM0 0zm5.9 2.3L3.2 5 1.5 3.3l.8-.8.9.9L5 1.5zm1 2.1V3.1h6.9v1.3zm0 4.9V8.1h6.9v1.3H6.9zm-3.7.6L1.5 8.2l.8-.8.9.9L5 6.4l.8.8zm2.7 2.2-2.7 2.7-1.7-1.7.8-.8.9.8L5 11.3z" class="st0"/><path d="M12 13c-.4.4-.7.7-1 1.3H6.9V13zM0 0" class="st0"/></svg>