<svg xmlns="http://www.w3.org/2000/svg" xml:space="preserve" id="图层_1" x="0" y="0" viewBox="0 0 20.7 25"><style>.st0{fill:none;stroke:#fff;stroke-miterlimit:10}</style><path d="M20.7 25H8.5V12h-.8v5H0V0h14.5v11.8h6.3V25zM0 0" class="st0"/><path d="M14.5 11.8h-6v.2h-.8v-1h6.8zM7.7 17H0v-.9h7.7zm13 8H8.5v-.9h12.2zM0 0zm5.4 2.2L3 4.6 1.4 3.1l.8-.8.8.8 1.7-1.7zm1 1.9V2.9h6.4v1.2zm0 4.5V7.5h6.4v1.2H6.4zM3 9.1 1.4 7.6l.8-.8.8.8 1.7-1.7.8.7zm2.4 2.1L3 13.6l-1.5-1.5.8-.8.7.8 1.7-1.7zm2.3 2H6.4V12h1.3zm2.9 5.8-.8-.8 3-3.1 2 2 2.8-2.8-.6-.6 2.8-.8-.8 2.8-.6-.6-3.6 3.6-2-2zm7.6 3.9v-5.5h1.2v5.5zm-2.8 0v-2.8h1.2v2.8z" class="st0"/><path d="M12.7 22.9v-4.1h1.2v4.1zm-1.6 0H9.9v-1.4h1.2zM0 0" class="st0"/></svg>