<svg xmlns="http://www.w3.org/2000/svg" xml:space="preserve" id="图层_1" x="0" y="0" viewBox="0 0 24 25"><style>.st0{fill:none;stroke:#fff;stroke-miterlimit:10}</style><path d="M12 25C4.9 25 0 19.2 0 13.2v-1.4C0 5.3 5.5 0 12.1 0c7.2 0 12 6 12 11.8V13C24 19.8 18.5 25 12 25zM0 0" class="st0"/><path d="M0 11.8C0 19.2 5.9 24 12 24c6.5 0 12-5.1 12-12.2V13c0 6.8-5.5 12-12 12-7 0-12-5.8-12-11.8zM0 0zm15.8 7.6V3.7h3.9v3.9z" class="st0"/><path d="M15.8 14v-3.9h3.9V14zm0 6.3v-3.9h3.9v3.9z" class="st0"/><path d="M1.9 15.5v-7h4.4v2.8l7-4.5-.4-.7 3-.4-1.6 2.6-.5-.7-5.9 3.8h5.2v-.9l2.7 1.4-2.7 1.4v-.8H7.9l5.9 3.8.5-.7 1.6 2.6-3-.3.4-.7-7-4.5v2.8zM0 0" class="st0"/></svg>