<svg xmlns="http://www.w3.org/2000/svg" xml:space="preserve" id="图层_1" x="0" y="0" viewBox="0 0 25 16.7"><style>.st0{fill:none;stroke:#fff;stroke-miterlimit:10}</style><path d="M5.2 16.7c-2.8 0-5-2.1-5-4.1v-.8C0 9.3 2 7.4 3.4 7c-.1-1.8.7-3.8 2.4-5.1C8.2 0 11 .3 12.6 1.2c1.2.6 2.3 1.6 2.9 3 1.3-.8 2.6-.6 3.4-.2 1.1.6 1.6 1.7 1.6 2.7 1.1.1 2.4.6 3.5 2 .6.8.9 2.1 1 2.9v.8c0 2.1-2.3 4.2-5 4.2H5.2zM0 0" class="st0"/><path d="M25 11.7v.8c0 2.1-2.3 4.2-5 4.2H5.2c-2.8 0-5-2.1-5-4.1v-.8c0 1.8 2.1 4 5 4h14.6c3.1.1 5.2-2.1 5.2-4.1zM0 0zm6.3 11.5h1.4L7 8.6z" class="st0"/><path d="m7.6 7.9 1.5 5.8h-1l-.4-1.4H6.1l-.4 1.4h-1l1.7-5.8zm7.4 0-1.2 5.8h-1.1L12 9.2l-.8 4.5h-1.1l-1-5.8h.9l.8 4.6.8-4.6h1l.8 4.6.8-4.6zm4 1.5h-.9c0-.4-.1-.7-.4-.9-.2-.1-.6-.2-.8 0-.2.1-.4.3-.4.8 0 .6.5.8.9 1 .5.2 1 .3 1.4.6.5.5.5 1.3.3 1.8-.2.6-.7.9-1.3 1s-1.2.1-1.7-.3-.6-1-.6-1.6h.9c0 .4 0 .7.2.9.3.3.7.4 1.1.3.5-.1.6-.6.6-.8 0-.5-.2-.8-.7-1-.7-.2-1.3-.4-1.7-.8-.2-.2-.4-.7-.3-1.4.1-.6.5-1 .9-1.1.5-.2 1.4-.2 1.8 0s.7.7.7 1.5zM0 0" class="st0"/></svg>