<svg xmlns="http://www.w3.org/2000/svg" xml:space="preserve" id="图层_1" x="0" y="0" viewBox="0 0 20.7 25"><style>.st0{fill:none;stroke:#fff;stroke-miterlimit:10}</style><path d="M10.3 25 6 22.8v-3.4l-2.2.4-1.8-.6V17l-1.4.2L0 17v-3h2.9v.2l2.4-.1.7.1V11h-.6L3 10.9v.2h-.7L0 11V8.1l.6-.2 1.4.2V5.8l1.8-.6 2.2.5V2.2L10.3 0l10.3 5.2v14.6zM0 0" class="st0"/><path d="m3.8 10.7-1.8.2v-5l1.8-.6zM.6 11H0V8.1l.6-.2zm0 6.2L0 17v-3l.6.1zm3.2 2.7L2 19.3v-5l1.8.2zm6.5 5.1L6 22.8V2.2L10.3 0zM0 0" class="st0"/><path d="m2.1 14.3 3.3-.1H6v.2l-2.2.1zm-1.5-.2L0 14h2.9zm2.3-3h-.7L0 11h.6zm2.4-.1L2 10.9l1.8-.2 2.2.1v.2zM0 0" class="st0"/></svg>