<svg xmlns="http://www.w3.org/2000/svg" xml:space="preserve" id="图层_1" x="0" y="0" viewBox="0 0 20.7 25"><style>.st0{fill:none;stroke:#fff;stroke-miterlimit:10}</style><path d="M6.7 15.1V9.9l3.7-.5 3.7.5v5.2l-3.7.4z" class="st0"/><path d="m3.8 20.2-2.1.5-1.7-.9V5.2L10.4 0l5.5 2.8v3.9l-2.2.4-3.3-.8-6.6 1.6z" class="st0"/><path d="m10.4 25-5.5-2.7v-3.9l2.2-.4 3.3.8 6.5-1.6V4.8l2.1-.5 1.7.9v14.6zM0 0" class="st0"/><path d="M16.9 17.1V4.8l2.1-.5v13.1zm-6.5-1.5-3.7-.5V9.9l3.7-.5z" class="st0"/><path d="M1.7 20.7 0 19.8V5.2L10.4 0v5L1.7 7.6zm8.7 4.3-5.5-2.7v-3.9l5.5 1.7zm0-5-5.5-1.7 2.2-.4 3.3.8 6.5-1.6 2.1.3zM0 0" class="st0"/><path d="m13.6 7.1-3.3-.8-6.5 1.6-2.1-.3L10.4 5l5.5 1.7zM0 0" class="st0"/></svg>