<svg xmlns="http://www.w3.org/2000/svg" xml:space="preserve" id="图层_1" x="0" y="0" viewBox="0 0 18.9 25"><style>.st0{fill:none;stroke:#fff;stroke-miterlimit:10}</style><path d="M4.9 10.7C2.1 10.7 0 8.3 0 5.9V4.8C0 2.3 2.2 0 4.8 0c3 0 5 2.4 5 4.9v.8c0 3.1-2.4 5-4.9 5z" class="st0"/><path d="M7.2 25V12.9c.2-.3.2-.9.2-1.3s0-.8.1-1.1c2.5-.9 3.3-3.3 3.2-4.9 2.2-1.3 5.8-2.2 7.7-2.4v.9c-1.2 1.9-2.8 3.5-4.2 4.6-1.5 1.2-3.4 2.3-5.5 3.1-.1.1-.2.2-.2.3.1.1.3.3.5.2 2.3-.8 4.4-2.2 5.8-3.3 1.7-1.3 3-2.9 4.1-4.6 0 1.6-.5 5-1.1 6.5-.5 1.1-1.1 1.6-2.6 2-1.2.4-2.8.6-4.5.8V25zM0 0" class="st0"/><path d="M0 4.8c0 3.3 2.6 5 4.9 5 2.8 0 4.9-2.3 4.9-4.9v.8c0 3.1-2.4 5-4.9 5C2.1 10.7 0 8.3 0 5.9zm8.4 7.4c-.2-.2-.2-.3-.1-.6s.2-.6.3-.6c1.9-.8 3.6-1.8 5.1-2.8 2-1.5 3.5-3.1 4.6-4.9v.9c-1.2 1.9-2.8 3.5-4.2 4.6-1.5 1.2-3.4 2.3-5.5 3.1-.1 0-.1.2-.2.3zm2.2.6c2.1-.2 4.2-.6 5.3-1.1s1.6-1 2-2.3c.5-1.5.8-3.3.9-5 0 1.6-.4 5-1.1 6.5-.5 1.1-1.1 1.6-2.6 2-1.2.4-2.8.6-4.5.8zM7.2 25v-1h3.4v1zM0 0z" class="st0"/><path d="M4 8.4h1.8V3.7h1.3L4.9 1.5 2.7 3.7H4z" class="st0"/><path d="M3.7 8.8V4H1.9l3-3 3 3H6.2v4.8zM0 0" class="st0"/></svg>