<svg xmlns="http://www.w3.org/2000/svg" xml:space="preserve" id="图层_1" x="0" y="0" viewBox="0 0 23.9 25"><style>.st0{fill:none;stroke:#fff;stroke-miterlimit:10}</style><path d="M4.1 25C1.9 25 0 23.3 0 20.9V4c0-2.1 1.9-4 4.1-4h15.8c2 0 4.1 1.6 4.1 4.2v16.7c0 2.5-1.9 4.2-4.2 4.2H4.1zM0 0" class="st0"/><path d="M4.1 25C2 25 0 23.3 0 20.9v-1c0 1.9 1.7 4 4.1 4h15.7c2.4 0 4.1-1.9 4.1-4.1v1c0 2.5-1.9 4.2-4.2 4.2zM0 0z" class="st0"/><path d="M16.1 19.9v-4.1h4.1v4.1z" class="st0"/><path d="M15.3 20.8H21V7.3h-5.6v13.5zm-5.4-.9 2-4.1 2 4.1z" class="st0"/><path d="M9.1 20.8h5.6v-18H9.1zm-3.4-.9c-1.1 0-2-.9-2-2s.9-2 2.1-2c1.1 0 2 .9 2 2 0 .9-.8 2-2.1 2z" class="st0"/><path d="M2.9 20.8h5.6v-9H2.9z" class="st0"/><path d="M2.5 22.2c-.6 0-.9-.5-.9-.9v-19c0-.5.5-.9.9-.9h19c.5 0 .9.4.9.9v18.9c0 .6-.5.9-.9.9h-19zM0 0" class="st0"/></svg>