<svg xmlns="http://www.w3.org/2000/svg" xml:space="preserve" id="图层_1" x="0" y="0" viewBox="0 0 20.6 25"><style>.st0{fill:none;stroke:#fff;stroke-miterlimit:10}</style><path d="m20.6 11-10.2.4L0 11V5.2L10.3 0l10.2 5.2V11zm-3 10.3-1.8-.5v-6.6l3.1-.2 1.7.1v5.8zM10.3 25l-3.1-1.5v-2l-2.5.8-1.9-1v-1.2l-1.6.4-1.2-.7V14l8.8-.4 1.4.1v.2l3.6-.2 1.9.1v8.5zM0 0" class="st0"/><path d="M10.3 10 0 11V5.2L10.3 0zm-9 10.5L0 19.8V14l1.3.2zm3.4 1.7-1.9-1v-7l1.9.2zm5.6 2.8-3.1-1.5v-8.8l3.1.3zm7.3-3.7-1.8-.5v-6.6l1.8.1zM0 0" class="st0"/><path d="m10.2 13.7-8.9.5L0 14l8.8-.4zm5.5 0-11 .7-1.9-.2 10.9-.6zm0 .8-5.4.5-3.1-.3 5.4-.4zm1.9-.2-1.8-.1 3.1-.2 1.7.1zm-7.3-2.8L0 11l10.3-1 10.2 1zM0 0" class="st0"/></svg>