<svg xmlns="http://www.w3.org/2000/svg" xml:space="preserve" id="图层_1" x="0" y="0" viewBox="0 0 20.7 25"><style>.st0{fill:none;stroke:#fff;stroke-miterlimit:10}</style><path d="m20.7 14-1.3.1-1.6-.1v.3l-1.9.2-2.4-.1v.4l-3.2.2-3.1-.3v-.4l-2.4.2-1.9-.2V14l-1.6.1L0 14V5.2l1.3-.7 1.6.4V3.7l1.9-.9 2.4.8v-2L10.3 0l10.4 5.2zM10.3 25 0 19.8v-2.9l10.3-1.3 10.4 1.3v2.9zM0 0" class="st0"/><path d="M1.3 14.1 0 14V5.2l1.3-.7zm3.5.3-1.9-.2V3.7l1.9-.9zm5.5.6-3.1-.3V1.6L10.3 0zm5.6-.6-2.4-.1v-1.8h2.4zm3.5-.3-1.6-.1v-1.5h1.6zM10.3 25 0 19.8v-2.9L10.3 20zm0-5L0 16.9l10.3-1.3 10.4 1.3zM0 0" class="st0"/></svg>