<svg xmlns="http://www.w3.org/2000/svg" xml:space="preserve" id="图层_1" x="0" y="0" viewBox="0 0 22.1 25"><style>.st0{fill:none;stroke:#fff;stroke-miterlimit:10}</style><path d="m7.4 25-5-2.5-2.4-3v-2.6l.7-.1v-.7l-.7-.4v-2.6h.7V12H0V9.3l.7-.4v-.7H0V5.5l2.4-3.1 5-2.5h6.9l5 2.5 2.8 3.1v2.6l-.9.1v.6l.9.5v2.6h-.9V13h.9v2.7l-.9.4v.6l.9.1v2.6l-2.8 3.1-5 2.5zM0 0" class="st0"/><path d="m7.4 4.6-5 1.7V2.5l5-2.5zm0 7-5 .1V7.9l5-1.2zm0 6.6-5-1.1v-3.7l5 .3zm0 6.8-5-2.5v-3.8l5 1.5zM0 0" class="st0"/><path d="m22.1 16.8-2.8 1.9-5 1.5H7.4l-5-1.5v3.8l-2.4-3v-2.6l.7-.1v-.7l-.7-.4v-2.6h.7V12H0V9.3l.7-.4v-.7H0V5.5l2.4-3.1v3.8l5-1.7h6.9l5 1.6L22.1 8l-.9.1v.6l-1.8-1-5-1.2h-7l-5 1.2v3.8l5-.1h6.9l5 .2 2.8.2h-.9v1.1h.9l-2.8.2-5 .3H7.4l-5-.3V17l5 1.1h6.9l5-1.1 1.8-.9v.6zM0 0" class="st0"/><path d="M14.4 4.6V0l5 2.5v3.8zm0 2.1 5 1.2v3.9l-5-.2zm0 6.9 5-.3v3.8l-5 1.1zm0 6.6 5-1.5v3.8l-5 2.5zM0 0" class="st0"/></svg>