<svg xmlns="http://www.w3.org/2000/svg" xml:space="preserve" id="图层_1" x="0" y="0" viewBox="0 0 25 14"><style>.st0{fill:none;stroke:#fff;stroke-miterlimit:10}</style><path d="M0 14V0h25v14zM0 0" class="st0"/><path d="M14.2 9c.5 0 .8-.4.8-.8V4.7c0-.5-.4-.8-.8-.8h-3.4c-.4 0-.8.4-.8.8v3.5c0 .4.4.8.8.8z" class="st0"/><path d="M13.7 7.9c.1 0 .2-.1.2-.2V5.3c.1-.2-.1-.3-.2-.3h-2.3c-.2 0-.2.1-.2.2v2.4c0 .2.1.2.2.2h2.3z" class="st0"/><path d="M14.7 9.6v1c0 .1-.1.3-.4.3-.2 0-.3-.2-.3-.3v-1h-.5v.9c0 .2-.1.4-.4.4-.2 0-.3-.2-.3-.3v-1h-.5v.9c0 .2-.2.4-.4.4s-.3-.2-.3-.4v-.8h-.5v.9c0 .2-.2.4-.4.4s-.3-.2-.3-.4v-1c-.6-.2-.8-.6-1-1H8.3c-.1 0-.3-.1-.3-.4 0-.2.1-.4.3-.4h1v-.4h-1c-.1 0-.3-.1-.3-.4 0-.2.1-.4.4-.4h1v-.4h-1c-.3 0-.4-.2-.4-.4s.1-.4.4-.4h1V5h-1c-.2 0-.4-.1-.4-.4 0-.2.1-.4.4-.4h1c.2-.6.7-.9 1-1v-1c0-.2.1-.4.3-.4.3 0 .4.2.4.4v.9h.5v-1c0-.2.1-.3.4-.3.2 0 .3.2.3.3v1h.5v-.9c0-.2.2-.4.4-.4s.4.1.4.4v.9h.4v-.8c0-.3.2-.4.4-.4s.4.2.4.4v1c.5.1.9.5 1 1h1c.2 0 .3.2.3.3 0 .3-.2.4-.3.4h-.9v.5h.9c.2 0 .3.2.3.3 0 .2-.1.4-.3.4h-.9v.5h.9c.2 0 .3.2.3.4s-.1.4-.3.4h-.9V8h.9c.2 0 .3.1.3.4 0 .2-.2.4-.3.4h-1c-.2.3-.6.7-1.1.8z" class="st0"/><path d="M11.6 5.5h1.9v1.9h-1.9zM0 0" class="st0"/><path d="M13.7 7.9c.1 0 .2-.1.2-.2V5.3c0-.2-.1-.3-.2-.3h-2.3c-.2 0-.2.1-.2.2v2.4c0 .1.1.2.2.2h2.3z" class="st0"/><path d="M10.8 9c-.4 0-.8-.4-.8-.8V4.7c0-.4.4-.8.8-.8h3.4c.4 0 .8.3.8.8v3.4c0 .5-.3.8-.8.8h-3.4zM0 14v-1.2h25V14zm1-1.9V.8h1.2v11.3zm2.2 0V.8h1.2v11.3zm2.2 0V.8h1.2v11.3zm13 0V.8h1.2v11.3zm2.2 0V.8h1.2v11.3zm2.1 0V.8h1.2v11.3zM0 0z" class="st0"/><path d="M2.2 12.1h-.9v-11h.9zm2.2 0h-.9v-11h.9zm2.2 0h-.9v-11h.9zm13 0h-.9v-11h.9zm2.1 0h-.9v-11h.9zm2.2 0H23v-11h.9zM11.6 7.4h1.9V5.5h-1.9zM0 0" class="st0"/></svg>