<svg xmlns="http://www.w3.org/2000/svg" xml:space="preserve" id="图层_1" x="0" y="0" viewBox="0 0 11 25"><style>.st0{fill:none;stroke:#fff;stroke-miterlimit:10}</style><path d="M11 23.8c0 .5-1 .7-1.7.9-1.2.2-2.5.3-3.7.3-1.3 0-2.7-.1-3.9-.3-.5-.2-1.7-.4-1.7-.9V1.2C0 .7 1.2.4 1.8.3Q3.75 0 5.7 0c1.6 0 3.2.2 4.2.5.5.2 1.1.4 1.1.7zM0 0" class="st0"/><path d="M11 23.8c0 .5-1 .7-1.7.9-1.2.2-2.5.3-3.7.3-1.3 0-2.7-.1-3.9-.3-.5-.2-1.7-.4-1.7-.9V23c0 .4.9.7 1.6.9 1.3.3 2.6.4 4 .4 1.3 0 2.6-.1 3.8-.4.5-.1 1.5-.4 1.6-.8zM0 0" class="st0"/><path d="M11 23c-.1.5-1 .7-1.6.8-1.2.3-2.5.4-3.8.4-1.4 0-2.8-.1-4-.4-.7-.1-1.6-.4-1.6-.8v-1.2c0 .6 1.4.9 2 1 1.2.1 2.3.2 3.6.2 1.5 0 2.8-.1 3.8-.4.7-.2 1.5-.4 1.6-.9zm0-11.3c-.1.5-1.2.8-2 .9-1.1.2-2.4.3-3.6.3q-1.95 0-3.6-.3c-.7-.2-1.7-.4-1.7-.9V3.4c0 .5 1.4.8 1.7.9 1.2.3 2.5.3 3.7.3q1.95 0 3.6-.3c.8-.2 1.8-.4 1.9-.9zM0 0" class="st0"/><path d="M11 3.4c-.1.5-1.1.8-1.9.9-1.1.2-2.3.4-3.6.3-1.2 0-2.5 0-3.7-.3-.4-.1-1.8-.4-1.8-.9v-.6c0 .5 1.2.8 2 .9 1.1.2 2.3.3 3.5.3S8 3.9 9 3.7c.8-.2 1.9-.4 1.9-.9v.6zM0 0z" class="st0"/><path d="M11 1.9v.9c-.1.5-1.2.7-2 .9-1 .2-2.3.3-3.5.3S3.1 3.9 2 3.7c-.7-.1-1.9-.4-2-.9v-.9c.1.5 1.4.8 2.1.9q1.65.3 3.3.3c1.3 0 2.5-.1 3.7-.3 1-.2 1.8-.5 1.9-.9zM0 0" class="st0"/><path d="M11 1.2v.6c0 .4-.9.7-1.9.9-1.2.3-2.4.4-3.7.4-1 0-2.2-.1-3.2-.2-.8-.2-2.1-.5-2.2-1v-.7c0 .5 1.4.8 2.2 1 .9.2 2 .2 3.1.2s2.4-.1 3.5-.3c1.2-.1 2.1-.4 2.2-.9zM0 0" class="st0"/><path d="M11 1.2c0 .5-1 .8-2.1 1-1.2.2-2.4.3-3.5.2-1.1 0-2.2-.1-3.1-.2S.1 1.8 0 1.2C0 .7 1.2.4 1.8.3Q3.75 0 5.7 0c1.6 0 3.2.2 4.2.5.5.2 1.1.4 1.1.7zM0 0" class="st0"/></svg>