<svg xmlns="http://www.w3.org/2000/svg" xml:space="preserve" id="图层_1" x="0" y="0" viewBox="0 0 23 25"><style>.st0{fill:none;stroke:#fff;stroke-miterlimit:10}</style><path d="M23 25H0V14.8c2.6-1.4 5.3-2.2 7.9-2.6V15h6.8v-3c2.7.2 5.6.9 8.2 2.1V25z" class="st0"/><path d="M23 13.1c-2.6-1.2-5.3-1.9-8.2-2.1V8.8H7.9v2.5c-2.9.4-5.7 1.4-7.9 2.6V0h23zM23 25H0v-1.4h23z" class="st0"/><path d="M23 13.1c-2.6-1.2-5.3-1.9-8.2-2.1V9.6c2.9.2 5.8 1 8.2 2.1zm-8.3-4.3H7.9V7.4h6.8zm-6.8 2.5c-2.9.4-5.7 1.4-7.9 2.6v-1.4c2.4-1.3 5.1-2.2 7.9-2.6zM0 0" class="st0"/></svg>