<svg xmlns="http://www.w3.org/2000/svg" xml:space="preserve" id="图层_1" x="0" y="0" viewBox="0 0 25 22.5"><style>.st0{fill:none;stroke:#fff;stroke-miterlimit:10}</style><path d="M23.8 4.9v.6c0 .4-.2.7-.5.8 0 .2-.1.3-.2.3s-.2-.1-.3-.2H22c0 .1-.1.2-.2.2s-.3 0-.3-.2h-.8c0 .1-.1.2-.2.2s-.3-.1-.3-.3c-.3-.1-.5-.4-.5-.8v-.6h-1c-.2 0-.3-.1-.3-.2s.1-.3.3-.3h1v-.8h-1c-.1 0-.3-.1-.3-.3 0-.1.1-.2.3-.2h1v-.9h-1c-.1 0-.3-.1-.3-.3s.1-.2.2-.2h1c.1-.2.3-.4.5-.5v-1c0-.1.1-.2.2-.2s.3.1.3.3v.9h.8V.3c0-.1 0-.2.2-.3.2 0 .4.1.4.3v.9h.8V.3c0-.1 0-.3.2-.3s.3.1.3.2v1c.2.1.4.3.5.5h1c.1 0 .2.2.2.3q0 .3-.3.3h-.9V3h.9q.3 0 .3.3c0 .1-.1.3-.3.3h-.9v.8h.9c.2 0 .3.2.3.2q0 .3-.3.3zm-8.8 0v.6c0 .4-.3.7-.5.8 0 .2-.1.3-.2.3s-.2-.1-.3-.2h-.8c0 .1-.1.2-.2.2s-.3 0-.3-.2h-.8c0 .1-.1.2-.2.2s-.3-.1-.3-.3c-.3-.1-.5-.4-.5-.8v-.6h-1q-.3 0-.3-.3c0-.1.1-.3.3-.3h1v-.7h-1c-.1 0-.3-.1-.3-.3.1-.1.2-.3.3-.3h1v-.8h-1c-.1 0-.2 0-.2-.2s.1-.2.2-.2h1c.1-.2.3-.4.5-.5v-1c0-.1.1-.2.2-.2s.3.1.3.3v.9h.8v-1c0-.1 0-.2.2-.3.1 0 .3.1.3.3v.9h.8V.3c0-.1 0-.3.2-.3s.3.1.3.2v1c.2.1.4.3.5.5h1c.2 0 .2.1.2.3q0 .3-.3.3H15V3h1q.3 0 .3.3c0 .1-.1.3-.3.3h-1v.8h1c.2 0 .3.2.3.2q0 .3-.3.3zm-8.7 0v.6c0 .4-.3.7-.5.8 0 .2-.1.3-.2.3s-.2-.1-.3-.2h-.8c0 .1-.1.2-.2.2-.2 0-.3-.1-.3-.2h-.9c0 .1-.1.2-.2.2s-.3-.1-.3-.3c-.2-.1-.4-.4-.4-.8v-.6h-1q-.3 0-.3-.3c0-.1.1-.3.3-.3h1v-.7h-1c-.1 0-.3-.1-.3-.3 0-.1.1-.3.3-.3h1v-.8h-1C1 2.2.9 2.2.9 2s.1-.2.2-.2h1c.1-.2.3-.4.5-.5v-1c0-.1.1-.3.3-.3.1 0 .2.1.2.3v.9H4V.3c0-.2 0-.3.2-.3.1 0 .3.1.3.3v.9h.8V.3c0-.1 0-.3.2-.3s.3.1.3.2v1c.2.2.4.3.4.5h1c.2 0 .2.2.2.3q0 .3-.3.3h-.8V3h.9q.3 0 .3.3c0 .1-.1.3-.3.3h-.9v.8h.9c.2 0 .3.2.3.2q0 .3-.3.3zm.6 17.6L0 16.2v-1h3.3l-.5-.9v-1h2.5l-.2-.9v-1h1.8v-2h15.3v13H6.9zM0 0" class="st0"/><path d="m21.5 19.1-2-7.8H7.6v-1.2h13.9zM20.1 5.3v1c-.3-.1-.5-.4-.5-.8v-.6c.1.1.3.3.5.4zm1.4.1v1h-.8v-1zm1.3 0v1H22v-1zm1-.5v.6c0 .4-.2.7-.5.8v-1c.2-.1.4-.2.5-.4zm-12.4.4v1c-.3-.1-.5-.4-.5-.8v-.6c.1.1.2.3.5.4zm1.3.1v1h-.8v-1zm1.3 0v1h-.8v-1zm1-.5v.6c0 .4-.3.7-.5.8v-1c.3-.1.4-.2.5-.4zm-9.9 7.4v-1l.5 1.9h-.2zm-1.8 2.9-.5-.9v-1l1.1 1.9zm18.9 7.3H6.9L0 16.2v-1l7 6.3h15.2zM2.6 5.3v1c-.2-.1-.4-.4-.4-.8v-.6c0 .1.2.3.4.4zm1.4.1v1h-.9v-1zm1.3 0v1h-.8v-1zm1-.5v.6c0 .4-.3.7-.5.8v-1c.2-.1.4-.2.5-.4zM0 0zm20.9 4.1V2.4h1.7v1.7zm-8.8 0V2.4h1.7v1.7z" class="st0"/><path d="m21 19.6-3.6-6.3H6.3L5.9 12H19zM0 0" class="st0"/><path d="m20.3 19.7-5-4.6H4.6l-.7-1.3H17zM3.4 4.1V2.4h1.7v1.7zM0 0" class="st0"/></svg>