<svg xmlns="http://www.w3.org/2000/svg" xml:space="preserve" id="图层_1" x="0" y="0" viewBox="0 0 20.8 25"><style>.st0{fill:none;stroke:#fff;stroke-miterlimit:10}</style><path d="m13.4 5.9-3.1.7-3.1-.7V1.5L10.4 0l3.1 1.5v4.4zm4.8 7.4-2.3.1-1.8-.1v.1l-3.7.2-3.7-.2v-.2l-1.8.1-2.3-.1V9.1l2.3-.5 1.8.2v-.5l3.7-.8 3.7.8v.6l1.8-.2 2.3.5zm2.6 6.5-2.9 1.4-2-.5v1.5L10.4 25l-5.5-2.8v-1.5l-2 .5L0 19.8v-5.1l4.9-.3 3.3.3v.4l2.3-.2 2.3.2v-.4l3.2-.3 4.9.3v5.1zM0 0" class="st0"/><path d="m10.4 5-3.2.9V1.5L10.4 0zm3.7 8.4V8.9l1.8-.2v4.8zm-7.5.1V8.3l3.7-.8v6.2zm-1.7-.1-2.3-.1V9.1l2.3-.5zm-2 7.8L0 19.8v-5.1l2.9.4zm7.5 3.8-5.5-2.8v-6.8l5.5.8zm7.5-3.8-2-.5v-5.3l-3.2-.3v-.4l5.2.4zm-9.8-6.5-5.2.4-2.9-.4 4.9-.3z" class="st0"/><path d="m15.9 15.4-5.5.8-5.5-.8 5.5-.5zm4.9-.7-2.9.4-5.2-.4 3.2-.3zm-7.4-8.8-3.1.7-3.1-.7 3.2-.9zM0 0" class="st0"/></svg>