<svg xmlns="http://www.w3.org/2000/svg" xml:space="preserve" id="图层_1" x="0" y="0" viewBox="0 0 24 25"><style>.st0{fill:none;stroke:#fff;stroke-miterlimit:10}</style><path d="M24 13.1C24 19.3 18.9 25 12 25 5.3 25 0 19.6 0 13.1v-1.5C0 6 4.8 0 12 0c6.7 0 12 5.5 12 11.8zM0 0" class="st0"/><path d="M24 11.8v1.3C24 19.3 18.9 25 12 25 5.3 25 0 19.6 0 13.1v-1.5C0 18.7 5.3 24 12.2 24c6 0 11.8-5 11.8-12.2zM0 0z" class="st0"/><path d="m15.8 18.2-3-.4.5-.7-7-4.5v2.8H1.9v-7h4.4v2.8l7-4.5-.4-.7 3-.4-1.6 2.6-.5-.7-5.9 3.8h5.2v-.9l2.7 1.4-2.7 1.4v-.8H7.9l5.9 3.8.5-.7z" class="st0"/><path d="M15.8 3.7h3.9v3.9h-3.9zm0 6.4h3.9V14h-3.9zm0 6.3h3.9v3.9h-3.9zM0 0" class="st0"/></svg>