<svg xmlns="http://www.w3.org/2000/svg" xml:space="preserve" id="图层_1" x="0" y="0" viewBox="0 0 20.7 25"><style>.st0{fill:none;stroke:#fff;stroke-miterlimit:10}</style><path d="m20.7 8.9-2.2.2-1.8-.4v-.3l-1.1.1L13 8v-.5l-2.7.5-2.7-.5V8l-2.5.5L4 8.4v.4l-1.8.3L0 8.9V5.2l1.7-.9 1 .3v-.8l2.5-1.2 1.4.4V1.9L10.3 0l3.8 1.9V3l1.4-.5L18 3.8v.7l1-.3 1.7.9z" class="st0"/><path d="M10.3 16.2 0 14.7v-4.3l10.3-1.5 10.3 1.5v4.3z" class="st0"/><path d="m10.3 25-3.8-1.9V22l-1.4.5-2.5-1.2v-.7l-1 .3L0 19.8v-3.7l2.2-.2 1.8.4v.4l1.1-.1 2.5.4v.5l2.7-.5 2.7.5V17l2.5-.5 1.1.1v-.4l1.8-.4 2.2.2v3.7l-1.6 1-1-.3v.7l-2.5 1.2-1.4-.3v1.1zm6.4-16.3v-.3l1.3-.2V4.6l1-.3v4.2zM13 8v-.5l1.1-.2V3l1.4-.5v5zm-6.4-.7V1.9L10.3 0v6.3zm-3.9.9V3.8l2.5-1.2v5zm-1 .3L0 8.9V5.2l1.7-.9z" class="st0"/><path d="M10.3 8.9v7.3L0 14.7v-4.3zM19 20.7l-1-.3v-3.7l-1.3-.2v-.4l2.3.3zM14.1 22v-4.2l-1.1-.3V17l2.5.4v5zm-7.5 1.1v-5.4l3.8.9V25zm-3.9-1.9v-4.4l2.5.6v5zM0 19.8v-3.7l1.7.4v4.2zM0 0" class="st0"/><path d="m16.7 16.3 1.8-.4 2.2.2-1.7.4zM13 17l2.5-.5 2.4.3-2.5.6zm-6.4.7 3.8-.7 3.8.7-3.8.9zm-3.9-.9 2.4-.3 2.5.5-2.5.4zM0 16.1l2.2-.2 1.8.4-2.3.3zm16.7-7.4 2.3-.2 1.7.4-2.2.2zM13 8l2.5-.4 2.5.6-2.4.3zm-6.4-.7 3.8-.9 3.8.9-3.8.7zm-3.9.9 2.5-.6 2.4.4-2.5.5zM0 8.9l1.7-.4 2.3.2-1.8.4zM0 0" class="st0"/></svg>