<svg xmlns="http://www.w3.org/2000/svg" xml:space="preserve" id="图层_1" x="0" y="0" viewBox="0 0 24 25"><style>.st0{fill:none;stroke:#fff;stroke-miterlimit:10}</style><path d="M12 25C5 25 0 19.3 0 13.2v-1.3C0 6 4.7 0 12.2 0 18.4 0 24 5.1 24 11.9V13c0 6-4.8 12-12 12zM0 0" class="st0"/><path d="M14 13.5V10h3.5v3.5zm-4.6 0V10H13v3.5z" class="st0"/><path d="M8.3 14.4h10.2V9.2H8.3z" class="st0"/><path d="M6.9 15.5V8.1h13.3v7.4h-1.8V17h-2.5v-1.5h-2V17H8.2v-1.5zm-3.1 2.6v-.9h1.1V7.8H3.8v-.9h2.1v11.2zM0 0" class="st0"/><path d="M0 12.4C0 17.8 4.7 24 12.1 24 19.2 24 24 18.1 24 11.9V13c0 6-4.8 12-12 12-7 0-12-5.7-12-11.8zM0 0" class="st0"/></svg>