<svg xmlns="http://www.w3.org/2000/svg" xml:space="preserve" id="图层_1" x="0" y="0" viewBox="0 0 20.7 25"><style>.st0{fill:none;stroke:#fff;stroke-miterlimit:10}</style><path d="m10.3 25-2.1-1v-1.6l-1.8.7-1.6-.8v-1.1l-1.4.4-1.3-.6v-.8l-1.1.1-1-.5V5.2l1-.5 1.2.3v-.9l1.3-.6 1.4.4V2.7l1.6-.8 1.8.7V1l2.1-1 5.5 2.8v2.6l.6.2V4l1.3-.3 2.9 1.5V11l-1.2.1-2.3-.2v3.2l2.3-.2 1.2.1v5.9l-2.9 1.5-1.4-.4v-1.6l-.6.2v2.7zM0 0" class="st0"/><path d="M16.4 10.8V4l1.3-.3v7zm0 3.3 1.3.1v7.1l-1.3-.3zm-8.1-3.9V1l2.1-1v10zm0 13.8v-9.2l2.1.2v10zm-3.4-1.7V2.7l1.6-.8V23zm-2.7-1.4V4.1l1.3-.6v18.1zM1 20.3l-1-.5V5.2l1-.5zm15.4-9.5 1.3-.1 2.9.3-1.2.1z" class="st0"/><path d="m8.3 10.2 2.1-.2 5.5.5-2 .1zm8.1 3.9 3.1-.3 1.2.1-2.9.3zm-8.1.6 5.6-.5 2 .1-5.6.7zM0 0" class="st0"/></svg>