<svg xmlns="http://www.w3.org/2000/svg" xml:space="preserve" id="图层_1" x="0" y="0" viewBox="0 0 20.8 25"><style>.st0{fill:none;stroke:#fff;stroke-miterlimit:10}</style><path d="M10.4 25 0 19.8v-2.9l8-1-2.1-.3V9.4l2.3-.3-8.2-1V5.2L10.4 0l10.4 5.2v2.9l-8.3 1 2.4.3v6.2l-2.1.3 8 1v2.9zM0 0" class="st0"/><path d="M10.4 5 0 8.1V5.2L10.4 0zm0 11.3-4.5-.7V9.4l4.5-.7zm0 8.7L0 19.8v-2.9L10.4 20zM0 0" class="st0"/><path d="M0 8.1 10.4 5l10.4 3.1-8.3 1-2.2-.3-2.1.3zm0 8.8 8-1 2.4.4 2.4-.4 8 1L10.4 20zM0 0" class="st0"/></svg>