<svg xmlns="http://www.w3.org/2000/svg" xml:space="preserve" id="图层_1" x="0" y="0" viewBox="0 0 25 15.6"><style>.st0{fill:none;stroke:#fff;stroke-miterlimit:10}</style><path d="M25 6H4.9v-.7c.7-.6 1.2-1.5 1.3-2.5 0-.3-.1-.7-.3-1v-.6h19V6zM2.2 10.8V6.6H25v4.2zm0 4.8v-4.2H25v4.2zM0 0" class="st0"/><path d="M18.5 4.6V1.8h.6v2.8zm-.9-2.4v-.4h.6v.5h-.6zm0 2.4V2.5h.6v2.1zm-1-1.1c-.1 0-.1.1-.3.1q-.15 0-.3.3c0 .2 0 .3.1.3q.15.15.3 0c.1-.1.2-.2.2-.3z" class="st0"/><path d="M17.2 4.6h-.5c0-.1-.1-.1-.1-.2l-.3.3c-.1 0-.4 0-.5-.1s-.2-.2-.2-.6c0-.3.1-.4.3-.5s.3-.1.6-.2c.2-.1.2-.2.2-.3s-.1-.2-.3-.2c-.1 0-.2.1-.2.2v.2h-.5c0-.2 0-.4.2-.5.2-.2.5-.2.8-.2q.6 0 .6.6v1.3c-.1 0-.1.1-.1.2zm-4.6 0V2.5h.5v.2q.15-.3.6-.3c.3 0 .5.2.5.3.1-.2.3-.4.6-.3.3 0 .5.3.5.6v1.6h-.6V3.1c0-.2-.1-.3-.2-.3-.2 0-.3.2-.3.4v1.4h-.6V3.1c0-.2-.1-.3-.2-.3-.2 0-.3.1-.3.4v1.4zm-1.9 0V1.8h1.6v.5h-1V3h1v.5h-1v.8h1v.5h-1.6zM2.9 9.4v-2h21.3v2zm0 4.8v-2h21.3v2zM5.1 2.6v.7c0 1.4-1.2 2.5-2.5 2.5C1.1 5.8 0 4.7 0 3.2v-.7C0 1.3 1 0 2.6 0 4 0 5.1 1.1 5.1 2.6zM0 0" class="st0"/><path d="M5.1 2.6v.7c0 1.4-1.2 2.5-2.5 2.5C1.1 5.8 0 4.7 0 3.2v-.7C0 4 1.1 5.1 2.6 5.1c1.6 0 2.5-1.3 2.5-2.5zm1.1.3c0-.3-.1-.7-.3-1v-.7c.3.5.4 1.2.3 1.7zM25 6H4.9v-.7H25zm0 4.8H2.2v-.7H25zm0 4.8H2.2v-.7H25zM0 0" class="st0"/></svg>