<svg xmlns="http://www.w3.org/2000/svg" xml:space="preserve" id="图层_1" x="0" y="0" viewBox="0 0 25 18.1"><style>.st0{fill:none;stroke:#fff;stroke-miterlimit:10}</style><path d="M25 15.6c0 .7-.5 1.1-1.3 1.1h-.9c-.8 0-1.1-.5-1.1-1.1v-.3H20c-.1 1.3-.6 2.7-1.3 2.7h-7.5c-.4 0-.9-.5-1.2-1.7H4.3c-.8 0-1.3-.7-1.3-1.3v-3.8H1.3v4.4c0 .3-.4.5-.6.5-.4 0-.7-.2-.7-.5V4.4c0-.3.4-.5.7-.5s.7.2.7.5v4.4H3v-4c0-.7.6-1.4 1.3-1.4H7V3c0-.6.5-1 1-1.2-.1-.1-.2-.3-.2-.5V.4c0-.3.3-.4.5-.4h7.3c.3 0 .7.2.7.4v.9c0 .2-.3.4-.5.5.2.2.4.5.4 1.2v.4h2.5c.7 0 1.2 1.5 1.3 2.4h1.5c.1-.6.6-1 1.3-1h.9c.7 0 1.3.5 1.3 1.2zM0 0" class="st0"/><path d="M13.5 1.7V1h2c.2 0 .7-.3.7-.6v.8c0 .2-.3.4-.5.5-.1-.1-.3-.1-.5-.1h-1.7zm-3 0H8.6c-.2 0-.4 0-.5.1-.2-.1-.3-.3-.3-.5V.4v.1c0 .2.2.5.5.5h2.2zm-9.2 8.8H3v.8H1.3zm0 4.3v.9c0 .3-.4.5-.6.5-.4 0-.7-.2-.7-.5v-.9c0 .3.4.5.7.5.2 0 .6-.2.6-.5zm23.7 0v.8c0 .7-.5 1.1-1.3 1.1h-.9c-.8 0-1.1-.5-1.1-1.1v-.3H20c-.1 1.4-.7 2.7-1.3 2.7h-7.5c-.5 0-.9-.6-1.2-1.7H4.3c-.8 0-1.3-.7-1.3-1.3v-.8c0 .8.7 1.3 1.2 1.3h5.9c.2 1.1.7 1.7 1.1 1.7h7.5c.7 0 1.2-1.5 1.3-2.7h1.6v.2c0 .6.4 1.1 1.2 1.1h.9c.7.1 1.3-.4 1.3-1zM0 0zm21.8 10.9c0-.5.2-1.1.5-1.6.2-.4.4-.7.7-1h-1.6v-.4h1.9v.3c-.6.6-1.1 1.7-1.1 2.6h-.4zm-16.4 0v-3H6l.9 2.5.9-2.5h.5v3H8V8.4l-.9 2.5h-.4l-.9-2.5v2.5zm5.5 0c-.1 0-.2.1-.4 0-.1 0-.2-.1-.2-.3-.1.2-.4.3-.7.3-.2 0-.5 0-.7-.2-.1-.1-.2-.4 0-.7q.15-.3.6-.3c.2 0 .5 0 .6-.1.1 0 .2-.2.2-.3 0-.2-.2-.3-.3-.3h-.4c-.2.1-.3.2-.3.4H9c0-.2 0-.3.2-.5.1-.1.3-.2.6-.2.5 0 .9.1.9.6v1.3h.2z" class="st0"/><path d="M10.4 9.8c-.1 0-.2.1-.3.1-.2 0-.3 0-.4.1-.1 0-.2.1-.3.2s-.1.2 0 .4c.1.1.2.1.3.2.2 0 .4-.1.5-.1.1-.1.2-.2.2-.4zm.9 1.9v-3h.4V9c.1-.1.2-.3.6-.3s.7.1.9.4c.3.4.3 1.2-.1 1.6-.3.3-1.1.4-1.4-.1v1.1z" class="st0"/><path d="M12.3 10.6c.4 0 .5-.3.5-.4.1-.2.1-.6 0-.8-.1-.3-.3-.4-.5-.4-.3 0-.5.2-.6.4-.1.3-.1.6 0 .7.1.3.2.5.6.5zm1.5.3v-3h1.4c.3 0 .8.1.9.6s-.1.9-.4.9c.2 0 .3.1.4.4 0 .1 0 .4.1.6 0 .2.1.4.1.5h-.4c0-.1-.1-.2-.1-.4 0-.1 0-.3-.1-.5s-.2-.4-.5-.4h-1v1.3z" class="st0"/><path d="M14.2 9.3h.9c.2 0 .4-.1.5-.3.1-.1.1-.4 0-.5-.1-.2-.3-.3-.5-.3h-.9zm3.6 1.6v-3h.5l.9 2.5.9-2.5h.5v3h-.4V8.4l-.9 2.5H19l-.9-2.5v2.5zM0 0" class="st0"/></svg>