<svg xmlns="http://www.w3.org/2000/svg" xml:space="preserve" id="图层_1" x="0" y="0" viewBox="0 0 20.7 25"><style>.st0{fill:none;stroke:#fff;stroke-miterlimit:10}</style><path d="m20.7 10-10.3.8L0 10V5.2L10.3 0l10.3 5.2V10zM10.3 25l-2-1v-1.6l-1.8.7-1.6-.8v-1.1l-1.4.4-1.3-.6v-.9l-1.2.2-1-.5v-7.3h20.7v7.3zM0 0" class="st0"/><path d="M10.3 8.2 0 10V5.2L10.3 0zm0 16.8-2-1V12.5h2zm-3.8-1.9-1.6-.8v-9.8h1.6zm-3-1.5L2.2 21v-8.4h1.3zM1 20.3l-1-.5v-7.3h1zM0 0" class="st0"/><path d="M10.3 10.7 0 10l10.3-1.8L20.7 10zM0 0" class="st0"/></svg>