<svg xmlns="http://www.w3.org/2000/svg" xml:space="preserve" id="图层_1" x="0" y="0" viewBox="0 0 24 25"><style>.st0{fill:none;stroke:#fff;stroke-miterlimit:10}</style><path d="M12 25C5.4 25 0 19.5 0 13.2v-1.4C0 5.7 5 0 11.9 0 19 0 24 5.7 24 11.9V13c0 6.6-5.3 12-12 12zM0 0" class="st0"/><path d="M0 11.8C0 19.1 5.8 24 12 24c6.9 0 12-5.7 12-12.1V13c0 6.5-5.3 12-12 12S0 19.5 0 13.2zM0 0z" class="st0"/><path d="M6.3 12.1c.9 3.4 2.8 6.1 5.6 7.6 1.8-.8 3.3-2.5 4.1-3.8 1.4-2.4 2.1-5.3 2.1-8.3-.8-.1-1.5-.3-2-.8-.4-.4-.8-1.1-1-2-1.2-.4-2.4-.6-3.4-.6-1.2 0-2.2.3-3.1.6-.1.8-.5 1.6-1 2-.4.5-1.1.7-1.8.8 0 1 .1 2.1.3 3.2h5.8V8.4l3.7 3.1-3.7 3v-2.4z" class="st0"/><path d="M2.3 12.1v-1.4h2.5c-.2-1.4-.2-2.8-.2-4.2 1.1.1 2-.1 2.4-.6s.6-1.2.6-1.9c1.2-.5 2.8-.9 4.2-.9 1.5 0 3 .4 4.5.9.1 1 .4 1.7.9 2 .6.3 1.4.4 2.2.4 0 4.2-.6 6.9-2.1 9.7-1.1 1.9-2.8 3.8-5.3 4.9-1.9-.7-3.7-2.3-5-4.3-.8-1.3-1.5-2.9-1.8-4.5H2.3zM0 0" class="st0"/></svg>