<svg xmlns="http://www.w3.org/2000/svg" xml:space="preserve" id="图层_1" x="0" y="0" viewBox="0 0 18.1 25"><style>.st0{fill:none;stroke:#fff;stroke-miterlimit:10}</style><path d="M18.1 7.5c0 .6-.5 1-1 1h-5.6c-.6 0-1-.5-1-1V1c0-.5.4-1 1-1h5.6c.6 0 1 .5 1 1.1zM4.4 21.6H.7v-10h3.7zm5.8 0H6.5v-8.2h3.7zm5.9 0h-3.7v-12h3.7zm.7 3.4H0v-2.8h16.8zM0 0" class="st0"/><path d="M18.1 6.7v.9c0 .6-.5 1-1 1h-5.6c-.6 0-1-.5-1-1v-.9c0 .5.5 1 1 1h5.7c.4 0 .9-.4.9-1zm-13.7 14v.9H.7v-.9zm5.8 0v.9H6.5v-.9zm5.9.9h-3.7v-.9h3.7zm.7 3.4H0v-.9h16.8zM0 0" class="st0"/></svg>