<svg xmlns="http://www.w3.org/2000/svg" xml:space="preserve" id="图层_1" x="0" y="0" viewBox="0 0 19.1 25"><style>.st0{fill:none;stroke:#fff;stroke-miterlimit:10}</style><path d="M19.1 4.9v1c0 2.5-2 4.9-5 4.9-3.3 0-5-2.8-5-4.8V4.7c0-1.9 1.8-4.7 5-4.7 2.7 0 5 2.2 5 4.9zM4.3 21.6H.7v-9.9h3.7v9.9zm5.9 0H6.5v-8.2h3.7z" class="st0"/><path d="M16 21.6h-3.7v-11c1 .6 2.4.7 3.7 0zm.7 3.4H0v-2.8h16.7zM0 0" class="st0"/><path d="M19.1 4.9v1c0 2.5-2 4.9-5 4.9-3.3 0-5-2.8-5-4.8V4.7C9.1 8 11.4 10 14 10c3.2 0 5.1-2.5 5.1-5.1zM4.3 21.6H.7v-.8h3.7v.8zm5.9 0H6.5v-.8h3.7zm5.8 0h-3.7v-.8H16zm.7 3.4H0v-.9h16.7zM0 0z" class="st0"/><path d="M19.1 4.9c0 2.6-2 5.1-5.1 5.1-2.6 0-4.9-2-4.9-5.3 0-1.9 1.8-4.7 5-4.7 2.7 0 5 2.2 5 4.9zM0 0" class="st0"/><path d="M12.1 5.9H15v-4h-1v2.9h-1.9z" class="st0"/><path d="M14.2 1c2.1 0 3.9 1.7 3.9 4 0 2.2-1.8 3.9-4 3.9s-3.9-1.7-3.9-4c0-1.7 1.4-3.9 4-3.9zM0 0" class="st0"/></svg>