<svg xmlns="http://www.w3.org/2000/svg" xml:space="preserve" id="图层_1" x="0" y="0" viewBox="0 0 25 15.2"><style>.st0{fill:none;stroke:#fff;stroke-miterlimit:10}</style><path d="M10 4.1c-.5-1.1-.2-2.5.8-3.3s2.4-.8 3.4 0 1.4 2.2.8 3.3l5.8 5.8c1-.5 2.2-.3 3.1.5.8.8 1.1 2 .7 3-.4 1.1-1.5 1.7-2.6 1.7s-2.1-.7-2.5-1.8H5.6c-.4 1.1-1.4 1.8-2.5 1.9-1.1 0-2.2-.7-2.6-1.7s-.2-2.3.7-3.1 2.1-1 3.1-.4z" class="st0"/><path d="M13.4 2.9c0-.5-.4-.9-.9-.9s-.9.4-.9.9.4.9.9.9.9-.4.9-.9zm8.6 8.6c-.5 0-.9.4-.9.9s.4.9.9.9.9-.4.9-.9c.1-.5-.4-.9-.9-.9zM3.1 13.4c.5 0 .9-.4.9-.9s-.4-.9-.9-.9-.9.4-.9.9c-.1.4.3.9.9.9zm2.6-1.8h13.8l.1-.3-5.8-5.8c-.7.4-1.6.4-2.4 0l-5.9 5.9zM0 0" class="st0"/></svg>