<svg xmlns="http://www.w3.org/2000/svg" xml:space="preserve" id="图层_1" x="0" y="0" viewBox="0 0 25 18.2"><style>.st0{fill:none;stroke:#fff;stroke-miterlimit:10}</style><path d="M20.5 18.2h-16v-2h4.6c.3 0 .7-.2.9-.3H0V0h25v15.9H15q.3.3.9.3h4.6zM0 0" class="st0"/><path d="M0 15.9V15h10.6c-.1.5-.3.7-.5.9zm25 0H15c-.3-.2-.4-.5-.5-.9H25zm-4.5 2.3h-16v-.9h16zM18.4 7.6q.15-.15 0-.3c-.1-.1-.3-.1-.4 0-1.8.8-4 1.1-6.4.9-2.1-.2-4.1-.7-5.9-1.7-.2-.1-.4 0-.5.1-.1.2-.1.4.1.6 1.3 1.1 3.3 2.2 5.9 2.5 1.7.1 4.9-.3 7.2-2.1z" class="st0"/><path d="M19 8.9c.5-.4.9-1.2.9-2.2 0-.5-.1-.6-.5-.7-.4 0-.8 0-1.4.1-.3.1-.6.2-.9.4-.1.2-.1.3-.1.3 0 .1.1.1.2.1.5-.1 1-.2 1.5-.1.3.1.4.2.4.4-.1.5-.3 1-.5 1.4v.3c.1.1.3 0 .4 0z" class="st0"/><path d="M1.5 13.5v-12h21.9v12zM0 0" class="st0"/></svg>