<svg xmlns="http://www.w3.org/2000/svg" xml:space="preserve" id="图层_1" x="0" y="0" viewBox="0 0 20.7 25"><style>.st0{fill:none;stroke:#fff;stroke-miterlimit:10}</style><path d="m14.6 8.7-2.5-.5v-.6l-1.8.3-1.8-.3v.6l-2.4.5-3.6-.5V3.9l2.4-1.2 1.7.6V1.9L10.4 0l3.8 1.9v1.4l1.8-.6 2.3 1.2v4.3zm-4.2 7.6L0 14.7v-4.4l10.4-1.6 10.3 1.6v4.4zm0 8.7-3.8-1.9v-5.3l3.8-.7 3.8.7v5.3zM0 0" class="st0"/><path d="M12.2 8.2v-.6l2-.4V3.3l1.8-.6v4.9zm-5.6-1V1.9L10.4 0v6.3zm-4.1 1V3.9l2.4-1.2v4.9zm7.9 8.1L0 14.7v-4.4l10.4-1.6zm0 8.7-3.8-1.9v-5.3l3.8.9zM0 0" class="st0"/><path d="m12.2 8.2 3.7-.6 2.3.6-3.6.5zm-1.8-.3-3.8-.7 3.8-.9 3.8.9zm-4.3.8-3.6-.5 2.4-.6 3.7.6zm4.3 10-3.8-.9 3.8-.7 3.8.7zM0 0" class="st0"/></svg>