<svg xmlns="http://www.w3.org/2000/svg" xml:space="preserve" id="图层_1" x="0" y="0" viewBox="0 0 25 25"><style>.st0{fill:none;stroke:#fff;stroke-miterlimit:10}</style><path d="M12.5 25C5.2 25 0 19 0 12.6 0 4.9 6.1 0 12.6 0 18.8 0 25 5.1 25 12.5 25 19.1 19.7 25 12.5 25zM0 0" class="st0"/><path d="M9.8 22.3c0 .5-.4.8-1 .6-3.7-1.3-7.2-5.3-7.2-10.3 0-6.8 5.8-11 10.8-11 6.5 0 11.1 5.3 11.1 11 0 4.6-3 8.9-7.5 10.4-.5.1-.8-.1-.8-.6V19c0-.6-.3-1.3-.7-1.8 1.8-.2 2.9-.7 3.8-1.5.8-.8 1.2-2 1.3-3.5 0-1.2-.3-2.3-1.1-3.2.3-.7.3-1.7-.1-2.9-.9-.1-1.9.5-3 1.1-1.8-.5-3.7-.5-5.5 0-.8-.5-1.6-1.1-3-1.1-.5 1.1-.6 2-.3 2.9-1 1.1-1.1 2.2-1.1 3.4.1 2.1.9 3.2 1.8 3.9.7.5 1.7.9 3.3 1.1-.4.4-.6.9-.7 1.5-.9.4-2.2.6-3.1-.6-.4-.6-.9-1.3-2-1.3-.2 0-.3.1-.4.1 0 .1.1.2.2.3.9.6 1 .9 1.4 1.7.3.9.9 1.3 1.6 1.5s1.7.2 2.2 0zM0 0" class="st0"/></svg>