<svg xmlns="http://www.w3.org/2000/svg" xml:space="preserve" id="图层_1" x="0" y="0" viewBox="0 0 25 25"><style>.st0{fill:none;stroke:#fff;stroke-miterlimit:10}</style><path d="M0 12.5C0 5.6 5.6 0 12.5 0c3.3 0 6.5 1.3 8.8 3.7S25 9.2 25 12.5s-1.3 6.5-3.7 8.8-5.5 3.7-8.8 3.7-6.5-1.3-8.8-3.7S0 15.8 0 12.5z" class="st0"/><path d="M1.2 12.5c0 5 3.3 9.4 8.1 10.9v-2.2c0-.8.5-1.5 1.1-1.9-1.9-.2-3.6-1.1-4.7-2.3S4 14 4.4 12.5c.2-1.1.6-2.1 1.3-2.9-.4-1.1-.4-2.3.1-3.4 1.3.1 2.5.5 3.4 1.4 2.1-.7 4.4-.7 6.5 0 1-.8 2.2-1.3 3.5-1.3.5 1.1.5 2.4.1 3.5.7.8 1.1 1.8 1.3 2.8.4 1.5-.1 3.1-1.2 4.4s-2.8 2.1-4.7 2.3c.6.4 1 1 1.1 1.8v2.4c4.8-1.4 8.1-5.9 8-10.9 0-3-1.2-5.9-3.3-8s-5-3.3-8-3.3-5.9 1.2-8 3.3-3.3 4.9-3.3 7.9zM0 0" class="st0"/></svg>