<svg xmlns="http://www.w3.org/2000/svg" xml:space="preserve" id="图层_1" x="0" y="0" viewBox="0 0 25 24.3"><style>.st0{fill:none;stroke:#fff;stroke-miterlimit:10}</style><path d="M4 5H0V0h4zm5.6 0h-4V0h4zM25 5H11.2V0H25zM4 11.4H0v-5h4zm5.6 0h-4v-5h4zm15.4 0H11.2v-5H25zM4 17.9H0v-5h4zm5.6 0h-4v-5h4zm15.4 0H11.2v-5H25zM4 24.3H0v-5h4zm5.6 0h-4v-5h4zm15.4 0H11.2v-5H25zM0 0" class="st0"/><path d="M4 5H0V4h4zm5.6 0h-4V4h4zM25 5H11.2V4H25zM4 11.4H0v-1h4zm5.6 0h-4v-1h4zm15.4 0H11.2v-1H25zM4 17.9H0v-1h4zm5.6 0h-4v-1h4zm15.4 0H11.2v-1H25zM4 24.3H0v-1h4zm5.6 0h-4v-1h4zm15.4 0H11.2v-1H25zM0 0" class="st0"/></svg>