<svg xmlns="http://www.w3.org/2000/svg" xml:space="preserve" id="图层_1" x="0" y="0" viewBox="0 0 20.7 25"><style>.st0{fill:none;stroke:#fff;stroke-miterlimit:10}</style><path d="m10.4 15.7-2.9-.4V9.7l2.9-.4 2.9.4v5.6z" class="st0"/><path d="m10.4 16.9 3.8-.7V8.8l-3.8-.7-3.9.7v7.4z" class="st0"/><path d="m10.4 25-5.5-2.8v-5.8l-4.8-1V9.6l4.8-1V2.8L10.4 0l5.5 2.8v5.8l4.8 1v5.9l-4.8 1v5.8zM0 0" class="st0"/><path d="m15.9 16.4-1.7-.2V8.8l1.7-.2zm-5.5-8.9L4.8 8.6V2.8L10.4 0zm-5.6 8.9-4.8-1V9.6l4.8-1zm5.6-.7-2.9-.4V9.7l2.9-.4zm0 9.3-5.5-2.8v-5.8l5.5 1.1zM0 0" class="st0"/><path d="m10.4 17.5-5.5-1.1 1.7-.2 3.8.7 3.8-.7 1.7.2zm3.8-8.7-3.8-.7-3.9.7-1.7-.2 5.5-1.1 5.5 1.1zM0 0" class="st0"/></svg>