<svg xmlns="http://www.w3.org/2000/svg" xml:space="preserve" id="图层_1" x="0" y="0" viewBox="0 0 21 25"><style>.st0{fill:none;stroke:#fff;stroke-miterlimit:10}</style><path d="M7.5 2.4c-.2.2-.6.2-.9-.1-.1-.3-.1-.6.1-.7C7.6.7 9 0 10.6 0c1.8 0 3 .8 3.8 1.6.3.3.2.6 0 .8-.3.2-.6.2-.8 0-.7-.7-1.8-1.2-2.9-1.2-1.1-.1-2.3.2-3.2 1.2z" class="st0"/><path d="M8.9 3.9c-.2.2-.6.2-.8-.1-.1-.1-.2-.4.1-.7.6-.6 1.5-1 2.4-1 1 0 1.8.4 2.4 1 .2.3.1.5-.1.7s-.5.3-.8 0q-.6-.6-1.5-.6c-.7.1-1.2.3-1.7.7zM21 20H0V5.1h21zm-8.2 1.1c.2.2.2.5 0 .7-.6.7-1.5 1-2.3 1-.9 0-1.8-.4-2.4-1-.2-.2-.2-.5 0-.8.2-.2.5-.2.7 0 .3.4.9.7 1.6.6.7 0 1.2-.3 1.6-.7.2 0 .6-.1.8.2z" class="st0"/><path d="M14.4 23.4c-.9 1-2.3 1.6-3.8 1.6-1.4 0-2.8-.5-3.9-1.6-.1-.1-.2-.5.1-.8.2-.2.6-.2.8 0q1.2 1.2 3 1.2c1.4 0 2.4-.7 3-1.3.2-.2.5-.3.8 0 .1.3.2.6 0 .9zM0 20v-.9h21v.9zM0 0zm21 15.9h-3.5c-.2 0-.4-.2-.4-.4v-1.6c-.2-.1-.6-.4-.6-.9 0-.6.5-1 1.1-1 .5 0 1 .4 1 1 0 .4-.3.8-.6 1v1.2h3z" class="st0"/><path d="M14.5 18.1c-.2 0-.4-.2-.4-.4V14c-.2-.1-.6-.4-.6-.9 0-.4.3-1.1 1.1-1.1.6 0 1 .5 1 1 0 .4-.2.8-.6.9v3.3h6v.8h-6.5zM13 5.1v3.1h1.8V6.4c0-.2.2-.4.5-.4h4.4c.3 0 .5.2.5.4v4.4c0 .2-.2.4-.5.4h-4.4c-.2 0-.4-.2-.4-.4V9h-4.4c-.2.4-.5.7-1 .7-.6 0-1-.5-1-1s.4-1 1.1-1c.4 0 .8.3.9.6h1.7V5.1z" class="st0"/><path d="M6.9 5.1h.8v6.3L9.3 13l.7-.7c-.1-.3-.1-.7.2-1.1.5-.5 1.1-.4 1.4-.1.5.4.5 1.1.1 1.5s-.8.4-1.1.3l-.7.7 1.3 1.3c.3-.1.8-.1 1.1.2.5.5.3 1.2 0 1.5-.5.4-1.1.3-1.5-.1-.2-.2-.3-.6-.2-1L7 11.9c-.1-.1-.1-.2-.1-.3zm-5.6 0h.8v3.1h1.5c.2-.4.6-.6.9-.6.6 0 1 .5 1 1s-.4 1-1.1 1c-.1.1-.6-.1-.8-.6H2.2v3.3L4.8 15c.5-.2 1.2 0 1.4.7S5.8 17 5.1 17c-.4 0-.8-.3-1-.8-.1-.2 0-.4 0-.6l-2.7-2.7c-.1-.1-.1-.2-.1-.3z" class="st0"/><path d="M8.1 19.1v-3l-3.2-3.2c-.5.2-1 0-1.2-.4-.3-.5-.2-1.1.3-1.5.5-.3 1.1-.2 1.4.2s.3.8.2 1.1L9 15.7v3.4zm-6.7 0v-2.2c-.3-.1-.6-.5-.6-.9 0-.7.5-1.1 1-1.1.6 0 1.1.4 1.1 1 0 .4-.2.8-.6.9V19h-.9zM0 0" class="st0"/></svg>