<svg xmlns="http://www.w3.org/2000/svg" xml:space="preserve" id="图层_1" x="0" y="0" viewBox="0 0 24.4 25"><style>.st0{fill:none;stroke:#fff;stroke-miterlimit:10}</style><path d="m16.9 8.5-1.2-2.4h-2l-4 4.7zm2.4-.7v-.3l-1.9-1.4 1 2zm-.5 4.7-.9-2-7.3 2.5 7.2 1.8zm2.5 1.3v-2.6l-.6 1.3zm-3.8 5.1 1.8-1.4v-.1l-1-.2zm-4-.1h2.2l1-2.1L9.8 15zM0 7.8c0-.2.2-.4.7-.5 2.1-.6 5.5-.4 6.6.1.3.1.4.3.5.4v1.1c0 .3-.5.5-1 .6-1.9.4-4.8.4-6.2-.2-.3 0-.6-.2-.6-.4z" class="st0"/><path d="M17.7 24.1c0 .6-.5.9-.9.9h-3.3c-.5 0-.9-.5-.9-.9v-3.5l-4.9-5.1V17c0 .2-.2.3-.5.4-1.7.6-5.1.6-6.7 0-.1.1-.5 0-.5-.3V9.9c0 .2.4.4.9.6 1.6.4 4.4.4 5.9 0 .6-.2 1-.4 1-.6v.5l4.9-5.8V.9c0-.6.5-.9.9-.9h3.3c.5 0 .9.4.9.9v2.8l2 1.5c.1-.1.2-.2.4-.2h3.2c.6 0 1 .5 1 1v4.3c0 .4-.4.9-.9.9h-1.1v2.6h1.1c.5 0 .9.5.9.9V19c0 .6-.5.9-.9.9h-3.3c-.2 0-.4-.1-.5-.2l-2 1.5zM0 0" class="st0"/><path d="M17 5c.1 0 .2-.1.4-.2l2 1.5v1.1L17.5 6zm-.1 3.5-1.2-2.4h-2l-4 4.7-1.3.4L13.7 5h2l1.7 3.3zm1.9 4-.9-2-7.3 2.5-1.9-.5 9.2-3 1.2 2.5zm.9-1.8-.8-1.6.4-.1v.2c0 .5.4.8.7.9zm.7 1.2.9-2v1.2l-.6 1.3zm2-1.8h1.1c.5 0 .9-.4.9-.9v1.1c0 .4-.4.9-.9.9h-1.1zM18.8 15l.8-1.8.3.6c-.4.1-.7.5-.7.8v.5zm-1.1 5.2 2-1.5c.1.1.3.2.5.2h3.3c.6 0 .9-.5.9-.9v1c0 .6-.5.9-.9.9h-3.3c-.2 0-.4-.1-.5-.2l-2 1.5zm.6-4.2 1 .2v1.1l-1-.2-.9 1.8-.1.1c-.1-.1-.2-.1-.4-.2zm-9.9-2.5 8.8 2.2-.5 1L9.8 15zm-.6-5.7v1.1c0 .3-.5.5-1 .6-1.9.4-4.8.4-6.2-.2-.3-.1-.6-.2-.6-.4V7.8c0 .2.4.4.8.5 1.5.4 4 .5 6 .1.6-.2 1-.4 1-.6zm0 8.2v1.1c0 .2-.2.3-.5.4-1.5.6-4.9.6-6.7 0-.2 0-.6-.2-.6-.4V16c0 .3.6.5.9.6 1.3.4 4.3.5 6.2-.1.5-.1.7-.3.7-.5zm4.8 4.7-4.9-5.1v-1.1l4.9 5zm5.1 2.3v1.1c0 .5-.5.9-.9.9h-3.3c-.5 0-.9-.5-.9-.9V23c0 .5.4.9.9.9h3.3c.4 0 .9-.4.9-.9zM0 0" class="st0"/></svg>