<svg xmlns="http://www.w3.org/2000/svg" xml:space="preserve" viewBox="0 0 25 21.3"><path d="M1.2 10.3C.5 9 .1 7.5 0 5.9.1 4 1 2.2 2.6 1 4.1.1 6 0 7.7.7c1.9.8 3.5 2 4.8 3.7.9-1.3 2.1-2.4 3.5-3.2 1.7-1 3.7-1.2 5.6-.6C23.8 1.7 25.1 4 25 6.5c-.3 2.1-1.1 4.2-2.4 5.9-2.7 3.6-6.2 6.6-10.2 8.8-1.2-.6-2.4-1.3-3.4-2.2-2.3-1.9-4.3-4.1-6.1-6.4H6c.6 0 1.1-.4 1.3-.9l.9-1.7.6 6.5c.1.5.5.8 1 .9s1-.1 1.2-.5l2.2-4.3h7.3c.5-.2.8-.7.8-1.2s-.3-1-.8-1.2h-7.9c-.5 0-.9.2-1.2.5l-.7 1.4-.7-6.7c-.1-.2-.5-.4-.9-.5s-.8.1-1.1.4l-2.7 5.1zM0 0" style="fill:none;stroke:#fff;stroke-miterlimit:10"/></svg>