<svg xmlns="http://www.w3.org/2000/svg" xml:space="preserve" id="图层_1" x="0" y="0" viewBox="0 0 25 15.6"><style>.st0{fill:none;stroke:#fff;stroke-miterlimit:10}</style><path d="M25 6H4.9v-.7c.7-.6 1.2-1.5 1.3-2.5 0-.3-.1-.7-.3-1v-.6h19V6zM2.2 10.8V6.6H25v4.2zm0 4.8v-4.2H25v4.2zm2.9-13v.7c0 1.4-1.2 2.5-2.5 2.5C1.1 5.8 0 4.7 0 3.2v-.7C0 1.3 1 0 2.6 0 4 0 5.1 1.1 5.1 2.6zM0 0" class="st0"/><path d="M5.1 2.6v.7c0 1.4-1.2 2.5-2.5 2.5C1.1 5.8 0 4.7 0 3.2v-.7C0 4 1.1 5.1 2.6 5.1c1.6 0 2.5-1.3 2.5-2.5zm1.1.3c0-.3-.1-.7-.3-1v-.7c.3.5.4 1.2.3 1.7zM25 6H4.9v-.7H25zm0 4.8H2.2v-.7H25zm0 4.8H2.2v-.7H25zM0 0zm17.4 3.3h.3c.1 0 .2 0 .3-.2.1-.1.1-.3 0-.5-.1-.1-.2-.2-.4-.2h-.2z" class="st0"/><path d="M16.8 4.9V2h1c.4 0 .6.2.8.6.1.3 0 .7-.2.9q-.3.3-.6.3h-.4v1.1zm-1.4 0V2.5h-.6V2h1.9v.4H16v2.4h-.6zm-2 0V2.5h-.6V2h1.8v.4H14v2.4h-.6zm-2.7 0V2h.6v1.1h.7V2h.6v2.9H12V3.6h-.7v1.3zM2.9 9.4v-2h21.3v2zm0 4.8v-2h21.3v2zM0 0" class="st0"/></svg>