<svg xmlns="http://www.w3.org/2000/svg" xml:space="preserve" id="图层_1" x="0" y="0" viewBox="0 0 13.1 25"><style>.st0{fill:none;stroke:#fff;stroke-miterlimit:10}</style><path d="M8 7.8V4.2l-1.5-.4-1.4.4v3.6l1.5-.3z" class="st0"/><path d="m6.5 25-1.7-.8v-2.4l-1.4-.6V10.7L1 10.6V8.9l-1-.1V5.1l1-.4v-2L6.5 0 12 2.7v1.9l1 .4v3.7l-1 .1v1.6l-2.4.2v1.8H12v2l-1.1.1v2l-2.7.5v.9l2.7.6v2.1l-2.7 1.1v2.4zM0 0" class="st0"/><path d="M8 7.8V4.2l1.6-.5v4.4zM6.5 25l-1.7-.8v-2.4l-1.4-.6v-11l-2.4.4v-2l-1 .2V5.1l1-.4v-2L6.5 0v2.5L3.4 3.8v4.4l3.1-.6zm6.6-16.2-1 .1v-.3zm-1 1.8-2.4.2v-.4z" class="st0"/><path d="m5.1 4.2-1.7-.4 3.1-1.2 3.1 1.2-1.6.4-1.5-.4zM1 8.9l-1-.1 1-.2zm2.4 1.8L1 10.6l2.4-.2zm4.8 8.9v-1.5l2.7.6zM0 0" class="st0"/></svg>