<svg xmlns="http://www.w3.org/2000/svg" xml:space="preserve" id="图层_1" x="0" y="0" viewBox="0 0 24 25"><style>.st0{fill:none;stroke:#fff;stroke-miterlimit:10}</style><path d="M3.8 14.6H1.3c-.9 0-1.3-.7-1.3-1.3v-12C0 .6.6 0 1.3 0h10.9c.7 0 1.3.6 1.3 1.3v3.6h-7C5.2 4.9 3.8 6 3.8 7.6z" class="st0"/><path d="M9.1 19.8H6.5c-.7 0-1.3-.6-1.3-1.3v-12c0-.7.6-1.3 1.3-1.3h10.9c.7 0 1.3.6 1.3 1.3v3.6h-7c-1.3 0-2.7 1.1-2.7 2.7v7z" class="st0"/><path d="M11.8 25c-.8 0-1.4-.6-1.4-1.3v-12c0-.9.7-1.4 1.3-1.4h10.9c.9 0 1.4.7 1.4 1.4v11.9c0 .8-.6 1.4-1.4 1.4zm1.7-21.2v1.1h-7C5.2 4.9 3.8 6 3.8 7.6V6.5c0-1.3 1.2-2.6 2.7-2.6h7zm-9.7 9.7v1.1H1.3c-.9 0-1.3-.7-1.3-1.3v-1.1c0 .8.7 1.4 1.4 1.4h2.4z" class="st0"/><path d="M18.7 9v1.1h-7c-1.4 0-2.7 1.2-2.7 2.7v-1.1C9 10.3 10.1 9 11.7 9zm-9.6 9.7v1.1H6.5c-.7 0-1.3-.6-1.3-1.3v-1.1c0 .9.7 1.3 1.3 1.3zm1.3 3.9c0 .8.6 1.3 1.3 1.3h10.9c.6 0 1.3-.6 1.3-1.4v1.1c0 .8-.6 1.4-1.4 1.4H11.8c-.8 0-1.4-.6-1.4-1.3zM0 0" class="st0"/></svg>