<svg xmlns="http://www.w3.org/2000/svg" xml:space="preserve" id="图层_1" x="0" y="0" viewBox="0 0 25 16.8"><style>.st0{fill:none;stroke:#fff;stroke-miterlimit:10}</style><path d="M25 11.4v1.2c0 2.2-2.4 4.2-5 4.2H5c-2.5 0-5-1.9-5-4.2v-.9C0 9.6 1.2 7.6 3.2 7c0-1.8.7-3.4 2-4.8C6.9.5 9.5 0 11.8.8c1.7.6 3 1.9 3.7 3.4 1.1-.8 2.6-.8 3.8.1.6.5 1.2 1.3 1.3 2.5 1.2.1 2.4.7 3.3 1.8.7.8 1.1 1.9 1.1 2.8zM0 0" class="st0"/><path d="M25 11.4v1.2c0 2.2-2.4 4.2-5 4.2H5c-2.5 0-5-1.9-5-4.2v-.9c0 2.3 2.5 4.2 5 4.2h15c2.8 0 5-2.1 5-4.5zM0 0z" class="st0"/><path d="M12 11.7H9.8v2.9H7v-2.9H4.9l3.5-6.1zm3.5 2.8L12 8.4h2.1V5.5h2.8v2.9H19zM0 0" class="st0"/></svg>