<svg xmlns="http://www.w3.org/2000/svg" xml:space="preserve" id="图层_1" x="0" y="0" viewBox="0 0 24 25"><style>.st0{fill:none;stroke:#fff;stroke-miterlimit:10}</style><path d="M13.3 25v-7.3H24V25zm0-8.8V8.8H24v7.4zM0 16.2V8.8h10.7v7.4zM0 25v-7.3h10.7V25zM0 7.3V0h10.7v7.3zm13.3 0V0H24v7.3zM0 0" class="st0"/><path d="M18.6 5.3c-1.2 0-2.1-1-2.1-2.1 0-1.2.8-2.2 2.1-2.2 1.1 0 2.1.9 2.1 2.1.1 1.2-.9 2.2-2.1 2.2zm0 8.8c-1.1 0-2.1-.9-2.1-2.1 0-1.3 1-2.2 2.2-2.2 1.1 0 2.1.9 2.1 2.1s-.9 2.2-2.2 2.2zm0 8.8c-1.1 0-2.1-.9-2.1-2.1 0-1.3 1.1-2.2 2.1-2.2 1.2 0 2.2 1 2.2 2.1 0 1.3-1 2.2-2.2 2.2zM13.3 25v-1H24v1zm0-8.8v-1.1H24v1.1zm0-8.9v-1H24v1zM0 7.3v-1h10.7v1zm0 8.9v-1.1h10.7v1.1zM0 25v-1h10.7v1zM0 0" class="st0"/></svg>