<svg xmlns="http://www.w3.org/2000/svg" xml:space="preserve" id="图层_1" x="0" y="0" viewBox="0 0 24.6 25"><style>.st0{fill:none;stroke:#fff;stroke-miterlimit:10}</style><path d="M14.5 20.5c-.3-1.4-1.6-2.8-3.5-2.7l1 .2v.8c.2.1.5.4.7.7l.7-.2.4 1.3v.9l-.7.2v.4l.3.3v1l-.9 1-.6-.5c-.4.3-.7.3-1.1.3l-.2.8-1.3-.3v-.8c-.2-.2-.5-.4-.7-.7l-.7.2-.4-1.3v-1l.7-.2v-.3l-.3-.3v-1l.7-.7-.7-.3c-.2.3-.4.6-.7.8v1.1l-1.5.7-.2-.9c-.5.1-.9.1-1.4 0l-.3.8-1.5-.6v-1c-.3-.2-.5-.5-.8-.8l-.7.3-.6-1.4v-1.1l.6-.3v-.5l-.8-.1v-.9l.6-1.5.8.3c.2-.3.4-.6.7-.8v-1.1l1.5-.7.3.8c.5-.1 1-.1 1.4 0l.3-.8 1.5.6v1c.2.2.5.4.7.8l.7-.3.7 1.3v.9l-.7.3v.5l.7.3v1l-.5 1.2.6.5c.4-.2.5-.3 1.1-.3l.1-.7c-.3 0-.6.1-.8.2v-.8c.3-.7.5-1.6.5-2.3-.2-1.3-.9-2.6-2.2-3.6-.8-.6-1.9-1-3.2-1v-7C4.9 1.5 6.5 0 8.2 0h13c1.8 0 3.4 1.4 3.4 3.3V17c0 2.2-1.7 3.5-3.4 3.5zM0 0" class="st0"/><path d="M4.9 9.5c1.4 0 2.7.5 3.8 1.5s1.7 2.6 1.7 3.9c-.2-1.3-.9-2.6-2.2-3.6-.8-.6-1.9-1-3.2-1v-.8zm3.6 4.9.7-.4v.9l-.7.3c.1-.1.1-.5 0-.8z" class="st0"/><path d="M7.1 11.1v1c-.1 0-.2-.1-.3-.2zM2 12.3v-1l.3.8c-.1.1-.2.1-.3.2zM.7 15.6l-.7-.3v-.9l.8.3c-.1.3-.1.6-.1.9zm0 .5v-.5c0 .2 0 .3.1.5zm.8 1.5c.3.4.7.7 1 1l-.3.8c-.3-.2-.5-.5-.8-.8l-.7.3-.6-1.4v-1.1l.7 1.5zm5.8 1.6v1l-1.5.7-.3-.9c-.5.1-.9.1-1.4 0l-.3.8-1.5-.6v-1l1.5.6.3-.8c.4.1.9.1 1.4 0l.3.7zm2-3.1v1l-.5 1.2-.2.2-.7-.3c-.2.3-.4.6-.7.8l-.2-.6c.3-.2.6-.5 1-1l.8.3zm15.3.3v.6c0 2.2-1.7 3.5-3.4 3.5h-6.7c-.1-.8-.7-1.8-1.9-2.4-.5-.3-1.1-.4-1.7-.4l-.3-.1v.1c-.3 0-.6.1-.8.2v-.8c.9-.3 2-.3 2.9.3 1.1.6 1.6 1.8 1.7 2.3h6.7c2.1 0 3.5-1.7 3.5-3.3zM7.9 20.3v-1l.6.5c-.1.3-.2.5-.2.8zm5.4 2.1v1l-.9 1-.6-.5c-.4.3-.7.3-1.1.3l-.1.8-1.3-.3v-.8c-.2-.2-.5-.4-.7-.7l-.7.2-.4-1.3v-1l.4 1.3.7-.2c.3.4.5.6.8.7l-.1.7 1.3.3.1-.7c.5-.1.7-.1 1.1-.3l.6.5z" class="st0"/><path d="m11.8 18.8.2-.8v.8zm2 1.8v.9l-.7.2v.4l-.2-.2c.1-.3.3-.6.3-1.1zM0 0zm13.3 8V2.7H18V1.2l4.1 4.1L18 9.5V8zM6.7 8V2.7h5.1V8zm8 3.5h4.7V10l4.1 4.1-4.1 4.1v-1.5h-4.7zm-1.4 5.3H10c.1-.4.3-1.1.3-1.9s-.1-1.9-1.1-3.4h4.1zM10 20.9c0-.4.3-.7.7-.7s.7.3.7.7c0 .3-.2.7-.7.7-.4 0-.7-.3-.7-.7zm-5.3-4.6c-.6 0-1.1-.5-1.1-1.1 0-.5.5-1 1.1-1 .5 0 1 .4 1 1 0 .7-.5 1.1-1 1.1zM0 0" class="st0"/></svg>