<svg xmlns="http://www.w3.org/2000/svg" xml:space="preserve" id="图层_1" x="0" y="0" viewBox="0 0 23.3 25"><style>.st0{fill:none;stroke:#fff;stroke-miterlimit:10}</style><path d="M13.9 13c0-.3.6-.5 1.2-.7 2.1-.6 5.6-.5 7 0 .6.2 1.2.4 1.2.7v1.1c0 .3-.6.5-1 .7-1.4.5-5.2.7-7.1.1-.6-.2-1.3-.4-1.3-.7z" class="st0"/><path d="M13.9 23.7v-8.6c.4.3 1.1.6 1.8.7 1.6.3 3.6.3 5.4.1.8-.1 1.6-.3 2.2-.7v8.6c0 .2-.9.6-1.9.8-2.2.4-4.5.3-6.1 0-.6-.2-1.4-.5-1.4-.9z" class="st0"/><path d="M13.4 24.4H4c-2.1 0-4-1.8-4-4V4c0-2.1 1.9-4 4-4h15.5c2 0 3.9 1.7 3.9 4v7.7c-.8-.4-1.8-.6-2.8-.7-1.6-.2-3.9-.2-5.5.1-1 .2-2.4.6-2.4 1.1v10.5c0 .3.5.6.7.7zM0 0" class="st0"/><path d="M12.7 12.2v-1c0-.4 1.1-.8 2.1-1 2.4-.5 5.3-.4 7.3.1.5.1.9.3 1.2.4v1c-.7-.4-1.8-.6-2.8-.7-1.6-.2-3.9-.2-5.5.1-1 .2-2.3.7-2.3 1.1zm1.2 1.9V13c0 .3 1 .6 1.6.8 1.7.5 4.9.4 6.5 0 .7-.2 1.3-.5 1.4-.7v1.1c0 .3-.6.5-1 .7-1.4.5-5 .7-7.1.1-.6-.4-1.4-.6-1.4-.9zm0 9.6v-1.1c0 .4 1.1.8 2 .9 1.6.3 4 .2 5.6-.1.8-.1 1.8-.5 1.8-.8v1.1c0 .2-.9.6-1.9.8-2.2.4-4.5.3-6.1 0-.6-.1-1.4-.4-1.4-.8zm-.5.7H4c-2.1 0-4-1.8-4-4v-1c0 2.1 1.8 3.9 4 3.9h9.4zM0 0z" class="st0"/><path d="M10 9.4V3.3h5.5V1.5l4.9 4.8-3.7 3.7c-.3 0-.8.1-1.2.1v-.7zm-7.8 0V3.3h6.1v6.2H2.2zm1.7 10.4v-6.2H10v6.2zM0 0" class="st0"/></svg>