<svg xmlns="http://www.w3.org/2000/svg" xml:space="preserve" id="图层_1" x="0" y="0" viewBox="0 0 20.7 25"><style>.st0{fill:none;stroke:#fff;stroke-miterlimit:10}</style><path d="m13.4 8.8 1.9-.3 2.5 3V8l-4.4-1.1zm0 9.4 4.4-1.2v-3.5l-2.5 3-1.9-.3z" class="st0"/><path d="m10.4 25-3.1-1.5v-2l-2.4.8-1.9-1v-1.2l-1.6.4-1.4-.7V5.2l1.3-.7 1.6.4V3.7l1.9-1 2.4.8v-2L10.4 0l10.4 5.2v14.6zM0 0" class="st0"/><path d="M17.8 17v-3.5l.8-1-.8-1V8l1.6-.2v9.5zm-4.4-.7V8.8l1.9-.3v8zm-6.1 7.2v-22L10.4 0v25zm-4.4-2.2V3.7l1.9-1v19.5zM0 19.8V5.2l1.3-.7v16zm13.4-13v-.9l5.9 1.8-1.5.3zM0 0" class="st0"/><path d="m13.4 18.2 4.4-1.2 1.6.2-5.9 1.8v-.8zM0 0" class="st0"/></svg>