<svg xmlns="http://www.w3.org/2000/svg" xml:space="preserve" id="图层_1" x="0" y="0" viewBox="0 0 23.6 25"><style>.st0{fill:none;stroke:#fff;stroke-miterlimit:10}</style><path d="M15.4 25H8.3L0 20.8V4.1L8.3 0h7.1l8.3 4.1v16.7zM0 0" class="st0"/><path d="M15 9.9V8l7.1-1v3.6zM8.3 25 0 20.8V4.1L8.3 0l3.5 3.9-7.4 2.3V4.1L1.5 8.8l2.9 3.7v-2.1l7.4-.7v5.7l-10.3-1V18l10.3 3zm13.8-8.9-9.3-.9 6.5-.7v-2.1z" class="st0"/><path d="M15 8 4.4 6.2 11.8 4l10.3 3zM4.4 12.5 1.5 8.8l9.4.9-6.5.7zm7.4 8.5L1.5 17.9l7.2-1 10.6 1.9zM0 0" class="st0"/><path d="m15.4 25-3.6-4 7.5-2.2v2.1l2.8-4.8-2.8-3.6v2.1l-7.5.8V9.6l10.3 1V7L11.8 3.9 15.4 0l8.3 4.1v16.7zM1.5 17.9v-3.6l7.2.7v1.9zM0 0" class="st0"/></svg>