<svg xmlns="http://www.w3.org/2000/svg" xml:space="preserve" id="图层_1" x="0" y="0" viewBox="0 0 25 25"><style>.st0{fill:none;stroke:#fff;stroke-miterlimit:10}</style><path d="M17.4 25H16v-2.3h-.7V25h-1.4v-2.3h-.7V25h-1.4v-2.3h-.7V25H9.7v-2.3H9V25H7.6v-2.3H6.4c-1.7 0-3.2-1.4-3.2-3.2v-2.1H0V16h3.2v-.7H0v-1.4h3.2v-.7H0v-1.4h3.2v-.7H0V9.7h3.2V9H0V7.6h3.2V6.3c0-1.5 1.3-3.1 3.2-3.1h1.2V0H9v3.2h.7V0h1.4v3.2h.7V0h1.4v3.2h.7V0h1.4v3.2h.7V0h1.4v3.2h1.2c1.6 0 3.2 1.3 3.2 3.2v1.2H25V9h-3.2v.7H25v1.4h-3.2v.7H25v1.4h-3.2v.7H25v1.4h-3.2v.7H25v1.4h-3.2v2.1c0 1.6-1.3 3.2-3.2 3.2h-1.2zM0 0" class="st0"/><path d="M7.6 22.7H6.4c-1.7 0-3.2-1.4-3.2-3.2v-.8c0 1.4 1.2 3.1 3.2 3.1h1.2zm1.4 0v-.9h.7v.9zm2.1 0v-.9h.7v.9zm2.1 0v-.9h.7v.9zm2.1 0v-.9h.7v.9zm2.1 0v-.9h1.3c1.6 0 3.1-1.4 3.1-3.1v.8c0 1.6-1.3 3.2-3.2 3.2zM0 0zm9.7 7.9c-.3.2-.6.1-.8-.1-.1-.3 0-.6.2-.8l2.6-1.5c.2-.1.5-.1.7.1s.1.6-.1.8zm0 2.2c-.3.2-.6 0-.7-.2-.2-.3 0-.6.2-.7L14 6.3c.2-.1.5-.1.7.1.3.3.1.6-.1.8zm0 2.2c-.3.2-.6 0-.7-.2s-.1-.6.2-.7l6.2-3.7c.2-.1.5-.1.7.1s.1.6-.2.8zm1.3 1.3c-.3.2-.6 0-.8-.2-.2-.3 0-.6.2-.7l4.9-2.9c.3-.1.6 0 .7.1.2.3.1.7-.1.8zm-.1 3c-.2 0-.5-.2-.5-.5 0-.2.2-.5.5-.5h1v-1.2c0-.2.1-.4.3-.5l3.1-1.8c.2-.1.5-.1.7.1s.2.6-.1.8L13 14.6v.9h1c.3 0 .5.2.5.5s-.2.5-.5.5h-3.1zm3.1.1v1.8c0 .5-.4 1.2-1.2 1.2h-.7c-.7 0-1.2-.6-1.2-1.1v-1.9zM0 0" class="st0"/></svg>