<svg xmlns="http://www.w3.org/2000/svg" xml:space="preserve" id="图层_1" x="0" y="0" viewBox="0 0 20.7 25"><style>.st0{fill:none;stroke:#fff;stroke-miterlimit:10}</style><path d="M8.2 16v-5.7L4.8 10v5.3l2.3.3v.5zm5.4.1v-.5l2.3-.3V10l-3.3.3V16z" class="st0"/><path d="m20.7 19.8-2.9 1.5-1.9-.5v1.5L10.4 25l-5.5-2.8v-1.5l-1.9.5-3-1.4v-4.4l1.7-.1V9.7L0 9.6V5.2L10.4 0l10.4 5.2v4.4l-1.8.1v5.6l1.7.1zM0 0" class="st0"/><path d="m17.8 15.5-1.9-.2V9.7l1.9-.2zm-1.9 5.3v-4.4l-2.2-.3v-.5l4.2.4v5.2zm-5.5-3.3V25l-5.5-2.8v-5.8zm0-.9-2.2-.4V8.8l2.2-.4zm0-9.1L0 9.6V5.2L10.4 0zm-7.5 8-1.2-.2V9.7l1.2-.2zm0 5.8L0 19.8v-4.4l2.9.6zM0 0" class="st0"/><path d="m13.6 15.6 2.3-.3 1.9.2 1.2-.2 1.7.1-2.9.6zm-8.8.8 3.4-.4v.3l2.2.4 2.2-.4V16l3.3.4-5.5 1.1zM2.9 16 0 15.4l1.7-.1 1.2.2 1.9-.2v-.1l2.3.3zm17.8-6.4-1.7.1-1.2-.2-1.9.2v.3l-3.3.3V8.8l-2.2-.4-2.2.4v1.5L4.8 10v-.3l-1.9-.2-1.2.2L0 9.6l10.4-2.1zM0 0" class="st0"/></svg>