<svg xmlns="http://www.w3.org/2000/svg" xml:space="preserve" id="图层_1" x="0" y="0" viewBox="0 0 25 23.5"><style>.st0{fill:none;stroke:#fff;stroke-miterlimit:10}</style><path d="m25 11.7-3.3 8.2-1.7.7-.8-.2-.2.6-2.2.9-1-.3-.3.8-3 1.2-3.1-1.2 2.4-8.3-2-.1-.4 1v5.4l-2.9.8-3-1.2v-5.1l1.1-.1.3-1.3h-.5l-1.9 2.1-2.5.1V7.9l2.5.2 1.9 2h.5L4.7 9h-.8l-.8-2.6.8-3 1.8-.7 2.9.7 1 2.6-.4 1.3.7 2.4 2-.2-2.5-8.3L12.5 0l3 1.2.3.8 1-.3 2.2.9.2.6.8-.3 1.7.7zM0 0" class="st0"/><path d="m12.5 23.5-3.1-1.2 2.4-8.3-4.8-.4-.4 1.7v5.9l-3-1.2v-5.1l1 .1.3-1.6-2.9-.2-2 2.5V7.9l2 2.4 3-.2-.3-1.2-.8.1-.8-2.6.8-3 1.8-.7 1 2.8-.4 1.4.7 3 4.9-.4-2.5-8.3L12.5 0l3.7 11.8z" class="st0"/><path d="m16.8 21.8-1-.3 3.4-9.8L15.8 2l1-.3 3.6 10.1z" class="st0"/><path d="m20 20.6-.8-.2 3.2-8.7-3.2-8.6.8-.2 3.4 8.8zM3.5 14.9l1.1-.1v.2zM2 10.3 0 7.9l2.5.2 1.9 2zm-2 5.4 2-2.5 2.4.2-1.9 2.1zM4.7 9h-.8l.8-.1zM7 13.6l2.9.2-.5 1.2-2.9.3zm-.7-6.7.4-1.4 2.9.5-.4 1.3zM0 0" class="st0"/></svg>