<svg xmlns="http://www.w3.org/2000/svg" xml:space="preserve" id="图层_1" x="0" y="0" viewBox="0 0 20.8 25"><style>.st0{fill:none;stroke:#fff;stroke-miterlimit:10}</style><path d="M10.4 25 0 19.8V5.2L10.4 0l10.4 5.2v14.6zM0 0" class="st0"/><path d="m16.8 15.2-2.5-1.8v-1.8l2.5-1.8zm.8 1.6V8.2L20 6.5v11.9zM.8 8.2 8.6 6V3.5l-7.8 3zm0 2.6 7.8-.9V7.4L.8 9.1zm0 2.6 7.8.4v-2.6l-7.8.4zm0 2.5 7.8 1.7V15l-7.8-.9zm0 2.6 5.4 2.1v-2.3L.8 16.8z" class="st0"/><path d="M10.4 25 0 19.8V5.2L10.4 0zm1.8-18.1V3.5L20 6.6l-2.4 1.7zm1.3 4.7V9.4l3.3.5-2.5 1.8z" class="st0"/><path d="m8.6 11.8-7.8-.2 7.8-.4zm0-2L.8 9.1l7.8-1.7zm-4-2.6L.8 6.5l7.8-3v2.6zm7.6 10.9 5.4-1.3 2.4 1.7-7.8 3zm1.3-2.4v-2.2h.8l2.5 1.8zm-4.9-1.9-7.8-.4 7.8-.2zm0 3.9L.8 16l7.8-.8zm-2.3 2.9L.9 18.5l3.8-.7 1.7.5v2.3zM0 0" class="st0"/></svg>