<svg xmlns="http://www.w3.org/2000/svg" xml:space="preserve" id="图层_1" x="0" y="0" viewBox="0 0 24.2 25"><style>.st0{fill:none;stroke:#fff;stroke-miterlimit:10}</style><path d="M0 2.8C.2 1.3 1.4.1 2.9 0h16.3l5 5v17c-.1 1.5-1.1 2.7-2.6 3h-19c-1.4-.3-2.5-1.4-2.7-2.9V2.8z" class="st0"/><path d="M2 21.9c0 .6.5 1.2 1.2 1.2H21c.7-.1 1.2-.7 1.1-1.3V6.1h-4V2H3.2c-.6 0-1.1.6-1.2 1.2z" class="st0"/><path d="M7.5 19.1c-.4.2-.8.1-1.1-.2s-.2-.8.1-1.1l7.6-5.3-4.8-5.4c-.1-.4 0-.8.3-1.1s.8-.2 1.1 0l5.2 5.8c.3.4.3.9 0 1.3zm4.4.1c-.4-.3-.5-.8-.3-1.2s.6-.7 1-.7H17c.3.2.5.6.5 1s-.3.7-.7.9zM0 0" class="st0"/></svg>