<svg xmlns="http://www.w3.org/2000/svg" xml:space="preserve" id="图层_1" x="0" y="0" viewBox="0 0 18.9 25"><style>.st0{fill:none;stroke:#fff;stroke-miterlimit:10}</style><path d="M18.8 2.7v1.1c0 1-2.1 1.5-3.2 1.8-3.8.8-9 .8-12.9-.1C1.3 5.1 0 4.4 0 3.8V2.6C.1 1.7 2.1 1.1 3.1.9 6 .2 11.2 0 15.4.8c1 .3 3.3.8 3.4 1.9z" class="st0"/><path d="M18.8 4.6v17.7c0 .8-1.5 1.4-2.8 1.7-3.8.9-9.5 1-13.5-.1-1-.3-2.4-.8-2.5-1.6V4.6c.1.9 1.9 1.4 3.1 1.7 3.6.8 8.6.9 12.6 0 2.2-.5 3.1-1.1 3.1-1.7zM0 0" class="st0"/><path d="M18.8 2.7v1.1c0 1-2.1 1.5-3.2 1.8-3.9.8-9 .8-12.9-.1C1.3 5.1 0 4.4 0 3.8V2.6c0 1 2 1.5 3.1 1.8 3.8.8 8.2.8 12.2.1 1.5-.3 3.5-.9 3.5-1.8zm0 18.6v1c0 .8-1.5 1.4-2.8 1.7-3.8.9-9.5 1-13.5-.1-1-.3-2.4-.8-2.5-1.6v-1.1c0 .9 1.6 1.4 2.7 1.7 3.6.8 8.7 1.1 13.2 0 1.5-.2 2.9-.8 2.9-1.6zM0 0z" class="st0"/><path d="M14.3 12.9h-3.2c0-.5-.1-.9-.7-1.2-.4-.2-1.3-.4-2-.2-.5.1-.8.4-.8.9s.5.9 1.2 1.1c1.2.4 2.4.5 3.4 1 1.5.6 2.3 1.6 2.3 2.9.1 2-1 3.2-2.3 3.7-1.2.5-3.1.7-4.6.4-2.4-.5-3.6-2-3.6-4.2h3.2c.1.8.4 1.4 1 1.6.5.2 1.6.3 2.4 0 .5-.2.8-.5.8-1 0-.7-.8-1-1.2-1.2-1.2-.4-2.6-.6-3.6-1.1s-2.1-1.3-2.2-3c0-1.3.6-2.3 1.6-2.9s2.4-.9 3.6-.9c1.5.1 2.9.6 3.7 1.5s1 1.7 1 2.6zM0 0" class="st0"/></svg>