<svg xmlns="http://www.w3.org/2000/svg" xml:space="preserve" id="图层_1" x="0" y="0" viewBox="0 0 18.7 25"><style>.st0{fill:none;stroke:#fff;stroke-miterlimit:10}</style><path d="M18.6 2.8v1.1c0 .9-1.7 1.4-2.6 1.6-3.9 1-9.7.9-13 .1-.7-.2-3-.8-3-1.7V2.8C0 2 1.3 1.5 2.9 1.1c5-1.1 10.9-.7 13.7.3.9.2 2 .7 2 1.4z" class="st0"/><path d="M18.6 22.3c0 .6-.8 1.1-1.7 1.4-3.6 1.2-10.4 1.3-14.4.2-1-.3-2.5-.8-2.5-1.6V4.7c.1.8 1.6 1.3 2.7 1.6 2.5.7 9 1.2 13.6-.1 1.1-.3 2.3-.8 2.3-1.6zM0 0" class="st0"/><path d="M18.6 2.8v1.1c0 .9-1.7 1.4-2.6 1.6-3.9 1-9.7.9-13 .1-.7-.2-3-.8-3-1.7V2.8c0 1 2.1 1.6 3.5 1.9 3.5.6 8.5.7 12.4-.2 1.4-.4 2.7-1 2.7-1.7zm0 18.4v1c0 .6-.8 1.1-1.7 1.4-3.6 1.3-10.4 1.4-14.4.3-1-.3-2.5-.8-2.5-1.6v-1c0 .8 1.5 1.3 2.7 1.7 4.3 1 10.4.9 13.9-.2 1-.4 2-.8 2-1.6zM0 0zm7.6 14.8H10c.8 0 1.1-.5 1.2-.8s.1-.7 0-1c-.3-.5-.9-.6-1.2-.6H7.6z" class="st0"/><path d="M4.8 20.8V10.1h5.6c1 0 2.4.3 3.2 1.3.7 1 .6 2.3.1 3.2-.2.4-.6.9-1.4 1.2.6.1 1.2.5 1.5 1.6.1.5.2 1.2.2 1.9.1.6.2 1.3.4 1.5h-2.8c-.2-.3-.3-.9-.3-1.7-.1-.6-.1-1.2-.4-1.6q-.3-.6-1.2-.6H7.6v3.9zM0 0" class="st0"/></svg>