<svg xmlns="http://www.w3.org/2000/svg" xml:space="preserve" id="图层_1" x="0" y="0" viewBox="0 0 22.7 25"><style>.st0{fill:none;stroke:#fff;stroke-miterlimit:10}</style><path d="m9.1 25-3.6-1.8v-2.6l-3.6.9-1.9-1V4.4l1.9-.9 3.6.9V1.8L9.1 0h4.5l3.6 1.8v2.6l3.6-.9 1.9.9v16.1l-1.9 1-3.6-.9v2.6L13.6 25zM0 0" class="st0"/><path d="m17.3 4.4 3.6-.9v17.9l-3.6-.9zM5.5 23.2V1.8L9.1 0v25zm-3.6-1.8L0 20.5V4.4l1.9-.9zM0 0" class="st0"/><path d="M20.8 21.4V3.5l1.9.9v16.1zM13.6 25V0l3.6 1.8v21.4zM1.9 21.4V3.5l3.6.9v16.2zM0 0" class="st0"/></svg>