<svg xmlns="http://www.w3.org/2000/svg" xml:space="preserve" id="图层_1" x="0" y="0" viewBox="0 0 25 25"><style>.st0{fill:none;stroke:#fff;stroke-miterlimit:10}</style><path d="M12 0v1.6L5.2 4.5 3.7 3.1l-.7.6 1.4 1.4L1.6 12H0v1h1.6l2.9 6.8L3 21.2l.7.7 1.4-1.4 6.9 2.9V25h1v-1.6l6.8-2.8 1.4 1.4.7-.7-1.4-1.4 2.9-6.9H25v-1h-1.6l-2.9-6.8 1.4-1.4-.7-.7-1.4 1.4L13 1.6V0z" class="st0"/><path d="m12.5 2.5 6.6 2.8L15.3 9l.7.7L19.8 6l2.8 6.6-2.8 6.6-3.8-3.9-.7.7 3.8 3.7-6.6 2.7-6.6-2.8L9.7 16l-.7-.7L5.2 19l-2.8-6.6 2.8-6.6L9 9.7l.7-.7-3.8-3.8z" class="st0"/><path d="M12.5 9C10.6 9 9 10.6 9 12.5s1.6 3.5 3.5 3.5 3.5-1.6 3.5-3.5S14.4 9 12.5 9z" class="st0"/><path d="M12.5 10c1.4 0 2.5 1.1 2.5 2.5S13.9 15 12.5 15 10 13.9 10 12.5s1.1-2.5 2.5-2.5zM0 0" class="st0"/></svg>