<svg xmlns="http://www.w3.org/2000/svg" xml:space="preserve" id="图层_1" x="0" y="0" viewBox="0 0 25 23"><style>.st0{fill:none;stroke:#fff;stroke-miterlimit:10}</style><path d="M0 6.9V0h25v6.9zM0 15V8.1h25V15zm0 8v-6.9h25V23zM0 0" class="st0"/><path d="M0 6.9V6h25v.9zM0 15v-.9h25v.9zm0 8v-.9h25v.9zM0 0zm18.3 4.9c-.3 0-.6-.1-.8-.4-.1-.2-.3-.6-.3-1.6 0-.4.1-.9.2-1.3.2-.4.5-.5.9-.5q.6 0 .9.6c.2.4.2.9.2 1.3 0 .7-.1 1.3-.4 1.6-.3.2-.5.3-.7.3z" class="st0"/><path d="M18.3 4.5c.2 0 .3-.1.4-.2.1-.2.1-.7.1-1.2 0-.4 0-.9-.1-1.2-.1-.2-.2-.3-.4-.3s-.3.1-.3.2c-.2.2-.2.6-.2 1.2 0 .7 0 1.1.1 1.3.1.1.2.2.4.2zm.4 8.4h-.6v-2.6h-.7v-.4c.3 0 .5 0 .7-.2.2-.1.2-.3.2-.5h.4zm3.5-8c-.3 0-.6-.1-.8-.4-.1-.3-.3-.6-.3-1.6 0-.4.1-.9.2-1.3.2-.4.5-.5.9-.5q.6 0 .9.6c.2.4.2.9.2 1.3 0 .7-.1 1.3-.4 1.6-.3.2-.5.3-.7.3z" class="st0"/><path d="M22.2 4.5c.2 0 .3-.1.4-.2.1-.3.1-.7.1-1.2 0-.4 0-.9-.1-1.2-.1-.2-.2-.3-.4-.3s-.3.1-.3.2c-.2.2-.2.6-.2 1.2 0 .7 0 1.1.1 1.3.1.1.2.2.4.2zm-2.3.3v-.7h.6v.7zm-5.6.1c-.4 0-.8-.2-1-.7-.1-.3-.1-.5-.1-1.3 0-.6.1-1 .3-1.3s.4-.5.9-.4c.3 0 .6.1.7.3.2.2.2.4.2.6h-.6c0-.2-.1-.5-.4-.5s-.4.3-.5.6v.7c.2-.3.5-.4.7-.4.4 0 .7.3.8.6.2.4.1 1.1-.1 1.4-.1.1-.4.4-.9.4z" class="st0"/><path d="M14.3 4.5c.3 0 .4-.2.4-.4.1-.2.1-.6 0-.9-.1-.2-.2-.3-.4-.3-.3 0-.4.1-.5.4s-.1.6 0 .8c.1.3.3.4.5.4zm-2.2.3h-.6V2.1h-.7v-.3c.3 0 .5 0 .7-.2.2-.1.2-.3.2-.5h.4zm-6.9 0h-.6c0-.5.2-1.1.5-1.8.2-.5.4-.9.7-1.3H4.2v-.5h2.1v.4c-.3.5-.6 1-.8 1.7q-.3.75-.3 1.5zm3.7 0H6.8c0-.3.1-.7.3-1 .1-.3.4-.6.7-.8.2-.2.4-.4.4-.7 0-.2.1-.4-.1-.6 0-.1-.2-.2-.4-.1-.3 0-.4.3-.4.7h-.5c0-.2 0-.5.2-.8.1-.2.4-.4.8-.4.3 0 .6 0 .9.3.1.3.1.6.1.9q0 .45-.6.9l-.5.5c-.1.2-.2.3-.3.6h1.5zm-5.8 0h-.6V2.1h-.7v-.3c.3 0 .5 0 .7-.2.2-.1.2-.3.2-.5h.4zm12.9 0v-.7h.6v.7zm-6.6 0v-.7h.6v.7zm12.8 8.1c-.3 0-.6-.1-.8-.4-.1-.2-.3-.6-.3-1.6 0-.4.1-.9.2-1.3.2-.4.5-.5.9-.5q.6 0 .9.6c.2.4.2.9.2 1.3 0 .7-.1 1.3-.4 1.6s-.5.3-.7.3z" class="st0"/><path d="M22.2 12.6c.2 0 .3-.1.4-.2.1-.3.1-.7.1-1.2 0-.4 0-.9-.1-1.2-.1-.2-.2-.3-.4-.3s-.3.1-.3.2c-.1.2-.1.7-.1 1.2 0 .7 0 1.1.1 1.3 0 .1.1.2.3.2zm-2.3.2v-.7h.6v.7zm-5.6.1c-.4 0-.8-.2-1-.7-.1-.3-.1-.5-.1-1.3 0-.6.1-1 .3-1.3s.4-.5.9-.5c.3 0 .6.1.7.3.2.2.2.4.2.6h-.6c0-.2-.1-.5-.4-.5s-.4.3-.5.6v.7c.2-.3.5-.4.7-.4.4 0 .7.3.8.6.2.4.1 1.1-.1 1.4-.1.3-.4.5-.9.5zM0 0" class="st0"/><path d="M14.3 12.6c.3 0 .4-.2.4-.4.1-.2.1-.6 0-.9-.1-.2-.2-.3-.4-.3-.3 0-.4.1-.5.4s-.1.6 0 .8c.1.3.3.4.5.4zm-2.2.2h-.6v-2.6h-.7v-.4c.3 0 .5 0 .7-.2.2-.1.2-.3.2-.5h.4zm-6.9 0h-.6c0-.5.2-1.1.5-1.8.2-.5.4-.9.7-1.3H4.2v-.4h2.1v.4c-.3.4-.6 1-.8 1.6-.2.5-.3 1.1-.3 1.5zm3.7 0H6.8c0-.3.1-.7.3-1s.5-.5.8-.8c.2-.2.4-.4.4-.6s.1-.4-.1-.6c-.1-.1-.3-.2-.5-.2-.2.1-.3.3-.3.7h-.6c0-.2 0-.5.2-.8.1-.2.4-.4.8-.4.3 0 .6 0 .9.3.2.2.3.6.2.9q0 .45-.6.9c-.2.2-.4.4-.5.4-.2.2-.3.3-.3.6H9v.6zm-5.8 0h-.6v-2.6h-.7v-.4c.3 0 .5 0 .7-.2.2-.1.2-.3.2-.5h.4zm12.9 0v-.7h.6v.7zm-6.6 0v-.7h.6v.7zm0 8.1v-.7h.6v.7zm6.6 0v-.7h.6v.7zm-12.9 0h-.6v-2.6h-.7v-.4c.3 0 .5 0 .7-.2.2-.1.2-.3.2-.5h.4zm5.8 0H6.8c0-.3.1-.7.3-1s.5-.5.8-.8c.2-.2.4-.4.4-.6s.1-.4-.1-.6c-.1-.1-.3-.2-.5-.2-.2.1-.3.3-.3.7h-.6c0-.2 0-.5.2-.8.1-.2.4-.4.8-.4.3 0 .6 0 .9.3.2.2.3.6.2.9q0 .45-.6.9c-.2.2-.4.4-.5.4-.2.2-.3.3-.3.6H9v.6zm-3.7 0h-.6c0-.5.2-1.1.5-1.8.2-.5.4-.9.7-1.3H4.2v-.5h2.1v.4c-.3.4-.6 1-.8 1.6s-.3 1.1-.3 1.6zm6.9 0h-.6v-2.6h-.7v-.4c.3 0 .5 0 .7-.2.2-.1.2-.3.2-.5h.4zm2.2-.3c.3 0 .4-.2.4-.4.1-.2.1-.6 0-.9-.1-.2-.2-.3-.4-.3-.3 0-.4.1-.5.4s-.1.6 0 .8c.1.3.3.4.5.4zM0 0" class="st0"/><path d="M14.3 21c-.4 0-.8-.2-1-.7-.1-.3-.1-.5-.1-1.3 0-.6.1-1 .3-1.3s.4-.5.9-.5c.3 0 .6.1.7.3.2.2.2.4.2.6h-.6c0-.2-.1-.5-.4-.5s-.4.3-.5.6v.7c.2-.3.5-.4.7-.4.4 0 .7.3.8.6.2.4.1 1.1-.1 1.4-.1.3-.4.5-.9.5zm5-.1h-2.1c0-.3.1-.7.3-1s.5-.5.8-.8c.2-.2.3-.4.4-.6 0-.2.1-.4-.1-.6-.1-.1-.3-.2-.5-.2-.2.1-.3.3-.3.7h-.6c0-.2 0-.5.2-.8.1-.2.4-.4.8-.4.3 0 .6 0 .9.3.2.2.3.6.2.9q0 .45-.6.9c-.2.2-.4.4-.5.4-.2.2-.3.3-.3.6h1.5v.6zm.6 0v-.7h.6v.7zm2.3-.3c.2 0 .3-.1.4-.2.1-.2.1-.7.1-1.2 0-.4 0-.9-.1-1.2-.1-.2-.2-.3-.4-.3s-.3.1-.3.2c-.1.2-.1.7-.1 1.2 0 .7 0 1.1.1 1.3 0 .2.1.2.3.2zM0 0" class="st0"/><path d="M22.2 21c-.3 0-.6-.1-.8-.4-.1-.2-.3-.6-.3-1.6 0-.4.1-.9.2-1.3.2-.4.5-.5.9-.5q.6 0 .9.6c.2.4.2.9.2 1.3 0 .7-.1 1.3-.4 1.6s-.5.3-.7.3zM0 0" class="st0"/></svg>