<svg xmlns="http://www.w3.org/2000/svg" xml:space="preserve" id="图层_1" x="0" y="0" viewBox="0 0 20.7 25"><style>.st0{fill:none;stroke:#fff;stroke-miterlimit:10}</style><path d="m20.7 19.8-1.7.8-4.9-1.2v3.7L10.3 25l-3.8-1.9v-3.7l-4.9 1.2-1.6-.8V5.2l1.7-.8 4.9 1.2V1.9L10.3 0l3.8 1.9v3.6L19 4.3l1.7.8zM0 0" class="st0"/><path d="M1.7 4.3v16.3L0 19.8V5.2zm8.6 2-3.7 1V1.9L10.3 0zm0 9.4-3.8-.5V9.8l3.8-.5zm0 9.3-3.8-1.9v-5.3l3.8.9zm8.7-4.4-4.9-1.2v-1.7l-3.8-.7v-1.4l3.8-.5V9.8l-3.8-.5V7.9l3.8-.7V5.5L19 4.3zM0 0" class="st0"/><path d="m10.3 7.9-3.7-.6 3.8-.9 3.8.9zm3.8 9.9-3.8.9-3.8-.9 3.8-.7zM0 0" class="st0"/></svg>