<svg xmlns="http://www.w3.org/2000/svg" xml:space="preserve" id="图层_1" x="0" y="0" viewBox="0 0 25 20.7"><style>.st0{fill:none;stroke:#fff;stroke-miterlimit:10}</style><path d="M14.7 0c-1.8 0-3.5.8-4.7 2.1s-1.9 3.2-1.7 5H0v13.6h16.7v-7.9c.5-.1.9-.3 1.3-.6l4.1 4.1c.7.7 1.8.7 2.4 0 .3-.3.5-.8.5-1.2s-.2-.9-.5-1.2l-4.1-4.1c1.5-2.5 1-5.8-1.1-7.8-1.2-1.3-2.9-2-4.6-2z" class="st0"/><path d="M14.8 1.1c2 0 3.8 1.1 4.7 2.9s.8 3.9-.3 5.5c-.2.3-.4.6-.7.8l-.4.4c-.1.1-.2.1-.2.2-.6.4-1.3.7-2 .9-.4.1-.9.1-1.3.1h-.8l-.4-.1c-.1 0-.2 0-.2-.1-.2-.1-.4-.1-.5-.2l-.2-.1c-.1-.1-.2-.1-.3-.2l-.2-.1-.3-.2-.2-.1c-.2-.1-.3-.3-.5-.4-.1-.1-.2-.2-.3-.4l-.1-.1c-.1-.1-.1-.2-.2-.3l-.1-.1c-.1-.1-.1-.2-.2-.3v-.1c-.2-.2-.3-.3-.3-.5 0-.1 0-.1-.1-.2 0-.1-.1-.2-.1-.3L9.5 8c0-.1 0-.2-.1-.2v-.2c-.3-1.9.3-3.6 1.5-4.9 1.1-1.1 2.5-1.6 3.9-1.6z" class="st0"/><path d="m17.5 4-3.9 4-1.5-1.3-.7.8 2.3 1.9 4.6-4.6zM1.1 8.1h7.4v.1c.1.2.1.5.2.7.1.3.3.5.4.8l.1.2c.1.1.1.2.2.3H2.7v1.1h7.6l.4.4.2.2c.1.1.2.2.4.2l.3.2.3.2.3.1.3.1.3.1.3.1.4.1.4.1h1.8v6.6H1.1zm18.7 2.6 4 3.9c.2.3.2.7 0 .9-.3.3-.7.3-.9 0l-4-4c.2-.1.3-.3.4-.4l.1-.1c.1 0 .3-.2.4-.3z" class="st0"/><path d="M2.7 13.3v1.1H14v-1.1zm0 3.2v1.1H14v-1.1zM0 0" class="st0"/></svg>