<svg xmlns="http://www.w3.org/2000/svg" xml:space="preserve" id="图层_1" x="0" y="0" viewBox="0 0 25 21.9"><style>.st0{fill:none;stroke:#fff;stroke-miterlimit:10}</style><path d="M20.8 0c-1.8 0-3.4 1-4.2 2.6l.9.5c.6-1.3 1.9-2 3.3-2s2.7.8 3.3 2l.9-.5C24.2 1 22.6 0 20.8 0z" class="st0"/><path d="M20.8 1.6c-1.2 0-2.3.7-2.8 1.7l.9.4c.4-.7 1.1-1.2 1.9-1.2s1.6.5 1.9 1.2l.9-.4c-.5-1-1.6-1.7-2.8-1.7z" class="st0"/><path d="M11.5 2.8c-4.4.2-8.1 3.4-8.8 7.8C1.5 11.5.1 12.7 0 14c0 .5.2 1.1.6 1.4.6.6 1.7.9 3.1 1 2 3.6 6.2 5.5 10.3 4.4s6.9-4.7 6.9-8.8v-.7c1.7-1.2 2.7-2.3 2.9-3.4.1-.6 0-1.2-.5-1.7-.3-.2-.6-.4-1-.5.3-.7.1-1.4-.5-1.9s-1.4-.5-2-.1-.9 1.2-.7 1.8.9 1.2 1.6 1.2c.3 0 .5-.1.8-.2.5.1.8.2 1 .5.2.2.3.5.2.7-.1.6-.8 1.5-2.1 2.4-.8-4.3-4.7-7.4-9.1-7.3z" class="st0"/><path d="M11.6 3.9s.1 0 0 0c4.1 0 7.5 2.9 8.1 6.9-1.6 1-3.3 1.8-5 2.4-4.1 1.6-7.8 2.2-10.4 2.2-1.2-2.5-1-5.4.5-7.8s4.1-3.7 6.8-3.7zm9.3.5c.3 0 .5.2.6.4s0 .5-.1.7c-.2.2-.7.2-.9 0s-.2-.5-.1-.7c-.1-.2.2-.4.5-.4zm-1.1 7.5s0 .1 0 0c0 3.7-2.4 6.9-5.8 7.9-3.5 1-7.2-.4-9.1-3.4 3.5-.2 6.9-.9 10.2-2.2 1.6-.7 3.2-1.4 4.7-2.3zm-17.2 0c0 1.2.2 2.3.6 3.4-.7 0-1.4-.3-1.9-.7Q1 14.45 1 14c.1-.5.6-1.3 1.6-2.1zM0 0" class="st0"/></svg>