<svg xmlns="http://www.w3.org/2000/svg" xml:space="preserve" id="图层_1" x="0" y="0" viewBox="0 0 18.6 25"><style>.st0{fill:none;stroke:#fff;stroke-miterlimit:10}</style><path d="M9.3 0h-.1L.3 3.5c-.2 0-.3.2-.3.4v10.2C0 14.2.1 25 9.3 25s9.3-10.2 9.3-10.3V3.9c0-.2-.1-.3-.3-.4L9.5 0z" class="st0"/><path d="m9.3.9 8.5 3.3v10.6c-.1 1.6-.4 3.3-1.1 4.8-1.4 3.1-3.9 4.7-7.4 4.7s-6-1.7-7.4-5c-.7-1.6-1-3.3-1.1-5.1V4.1z" class="st0"/><path d="M9.3 2.5h-.2L2.8 5.1c-.2.1-.3.2-.3.4v9.6c.3 1.3.7 2.5 1.3 3.6 1.3 2.4 3.2 3.7 5.5 3.7s4.1-1.3 5.5-3.7c.6-1.1 1.1-2.4 1.3-3.6V5.5c0-.2-.1-.3-.3-.4L9.5 2.6c-.1 0-.1-.1-.2-.1z" class="st0"/><path d="M8.9 3.6v18c-4.2-.4-5.4-6.1-5.5-6.6V5.8zm.8 0 5.5 2.2V15c-.1.5-1.4 6.2-5.5 6.6zM0 0" class="st0"/></svg>