<svg xmlns="http://www.w3.org/2000/svg" xml:space="preserve" id="图层_1" x="0" y="0" viewBox="0 0 23.8 25"><style>.st0{fill:none;stroke:#fff;stroke-miterlimit:10}</style><path d="M13.1 23.4c.3.4.5.7.9 1q-1.95.6-3.9.6C.3 25 0 16.4 0 15.5V4.8c0-.2.1-.5.4-.5L9.9.1c.1-.1.3-.1.4 0l8.9 4.2c.2.1.3.3.3.5v8.4c-.4-.1-.8-.1-1.2-.1V5.2L10 1.3 1.2 5.2v10.3c0 8.1 8 8.3 8.9 8.3 1 0 2-.1 3-.4z" class="st0"/><path d="M15.4 13.8V6.9l-4.8-2.4v16.3c.4 0 .9-.1 1.3-.2l.3 1.2c-.7.2-1.4.2-2.2.2-5.5 0-7-3.7-7-5.9V6.6q0-.45.3-.6l6.5-3h.6l5.9 3c.2.1.3.3.3.5v6.8c-.4.2-.8.3-1.2.5z" class="st0"/><path d="M9.5 20.8V4.5L4.2 6.9V16c0 .5.1 4.5 5.3 4.8zm14.3-1.2c0 3-2.4 5.3-5.3 5.3s-5.3-2.4-5.3-5.3 2.4-5.3 5.3-5.3c1.4 0 2.8.6 3.8 1.6.9 1 1.5 2.3 1.5 3.7z" class="st0"/><path d="M22.6 19.6c0-2.3-1.9-4.2-4.2-4.2s-4.2 1.9-4.2 4.2 1.9 4.2 4.2 4.2 4.2-1.9 4.2-4.2z" class="st0"/><path d="M17.8 20.2H19v-3.6h-1.2zm0 2.4H19v-1.2h-1.2zM0 0" class="st0"/></svg>