<svg xmlns="http://www.w3.org/2000/svg" xml:space="preserve" id="图层_1" x="0" y="0" viewBox="0 0 18.8 25"><style>.st0{fill:none;stroke:#fff;stroke-miterlimit:10}</style><path d="M9.4 0c-1.5 0-3 .6-4.1 1.6S3.6 4 3.6 5.4v3.4H.5c-.1 0-.3.1-.4.2s-.1.2-.1.3v15.2c0 .1.1.2.1.3.1.1.3.2.4.2h17.8c.1 0 .2-.1.3-.1.1-.1.1-.2.1-.3V9.3c0-.1 0-.2-.1-.3s-.2-.1-.3-.1h-3.1V5.5c0-1.5-.6-2.8-1.7-3.8C12.4.6 10.9 0 9.4 0z" class="st0"/><path d="M9.4 1c1.3 0 2.5.5 3.4 1.3s1.4 2 1.4 3.2v3.4H4.5V5.5c0-1.2.5-2.4 1.4-3.2C6.9 1.4 8.1 1 9.4 1zM1 9.8h16.8V24H1z" class="st0"/><path d="M9.4 12.8c-1.4 0-2.6 1-2.7 2.4s.8 2.6 2.2 2.9v3.7h1v-3.7c1.3-.2 2.2-1.3 2.2-2.6-.1-1.5-1.3-2.7-2.7-2.7z" class="st0"/><path d="M9.2 13.8h.2c.5 0 .9.2 1.2.5s.5.8.5 1.2c0 .5-.2.9-.5 1.2s-.8.5-1.2.5c-.6.1-1.2-.2-1.6-.7s-.4-1.2-.1-1.8.9-.9 1.5-.9zM0 0" class="st0"/></svg>