<svg xmlns="http://www.w3.org/2000/svg" xml:space="preserve" id="图层_1" x="0" y="0" viewBox="0 0 25 24.6"><style>.st0{fill:none;stroke:#fff;stroke-miterlimit:10}</style><path d="M10.4.2C8.6 0 6.8.6 5.6 1.8 4.5 2.8 3.3 4.7 3.4 7c-1.3.4-2.5 1.4-3 3-.4 1.5-.2 2.8.4 3.9 1.1 1.7 2.7 2.4 4.1 2.4h14.9c1.3 0 2.9-.6 3.9-1.9.9-1.4 1.2-3.3.2-5.1-.8-1.4-2-2-3.3-2.4-.1-1-.4-2-1.3-2.6-.7-.6-1.6-.7-2.3-.6-.5.1-.9.4-1.2.7-.7-1.5-1.8-2.9-3.7-3.7-.5-.3-1.1-.5-1.7-.5z" class="st0"/><path d="M10.3 1.1c.5 0 1 .2 1.5.4 1.9.8 2.9 2.2 3.4 3.8.1.2.2.3.4.3s.3 0 .5-.2c.3-.4.7-.7 1.2-.8s1 0 1.5.4c.7.6 1 1.3 1 2.3 0 .2.2.4.4.4 1.3.3 2.4.7 3 2 .8 1.4.5 3-.2 4.1-.8 1.1-2.2 1.5-3.2 1.5H4.9c-1.1 0-2.4-.5-3.3-1.9-.5-.9-.6-1.8-.3-3.2C1.7 8.9 3 8 4 7.8c.2 0 .4-.3.4-.5-.3-2.2.8-3.9 1.8-4.9 1-.9 2.5-1.4 4.1-1.3z" class="st0"/><path d="M12.1 9.9c-.1 0-.3.1-.4.2l-1.7 2c-.1.1-.1.3-.1.5.1.2.2.3.4.3h3.3c.2 0 .3-.1.4-.3s.1-.4-.1-.5l-1.6-2c.1-.1 0-.2-.2-.2z" class="st0"/><path d="m12.1 11.1.6.8h-1.3zm.3 7.9c-.1 0-.3.1-.4.2l-2 2.7v.4c.1.2.2.3.4.3h3.9c.2 0 .3-.1.4-.3s.1-.3 0-.5l-1.9-2.7c-.1-.1-.2-.1-.4-.1z" class="st0"/><path d="m12.4 20.3 1 1.4h-2.1zm-7.1-1.1c-1 0-1.8.8-1.8 1.8s.8 1.8 1.8 1.8S7.1 22 7.1 21s-.8-1.8-1.8-1.8z" class="st0"/><path d="M5.3 20.1c.5 0 .8.4.8.8 0 .5-.4.8-.8.8-.5 0-.8-.4-.8-.8s.3-.8.8-.8zM6.5 9.8c-.8 0-1.5.7-1.5 1.6 0 .8.7 1.5 1.5 1.5S8 12.2 8 11.4c.1-.9-.6-1.6-1.5-1.6z" class="st0"/><path d="M6.5 10.8c.3 0 .6.3.6.6s-.2.6-.6.6c-.3 0-.6-.3-.6-.6s.3-.6.6-.6zm10.3-.8c-.3 0-.5.2-.5.5v2c0 .3.2.5.5.5h2c.1 0 .2 0 .3-.1s.1-.2.1-.3v-2c0-.1 0-.2-.1-.3s-.2-.3-.3-.3z" class="st0"/><path d="M17.3 10.9h1v1h-1z" class="st0"/><path d="M4.1 8.5c-.1 0-.2 0-.3.1-.2.1-.2.2-.2.3v4.9c0 .3.2.5.5.5h16.2c.3 0 .5-.2.5-.5V8.9c0-.3-.2-.5-.5-.5H4.1z" class="st0"/><path d="M4.5 9.4h15.2v4H4.5zm13.8 9.8c-.1 0-.2 0-.3.1s-.1.2-.1.3v2.5c0 .1 0 .2.1.3s.2.1.3.1h2.5c.1 0 .2 0 .3-.1s.1-.2.1-.3v-2.5c0-.1 0-.2-.1-.3s-.2-.1-.3-.1z" class="st0"/><path d="M18.8 20.1h1.5v1.5h-1.5z" class="st0"/><path d="M1.6 17.3c-.3 0-.5.2-.5.5v6.4c0 .3.2.5.5.5h21.6c.3 0 .5-.2.5-.5v-6.4c0-.3-.2-.5-.5-.5z" class="st0"/><path d="M2.1 18.2h20.7v5.5H2.1zM0 0" class="st0"/></svg>