<svg xmlns="http://www.w3.org/2000/svg" xml:space="preserve" id="图层_1" x="0" y="0" viewBox="0 0 24.9 25"><style>.st0{fill:none;stroke:#fff;stroke-miterlimit:10}</style><path d="M12.5 0C5.6 0 0 5.6 0 12.5c0 2.7.9 5.2 2.3 7.3l.8-.6C1.8 17.3 1 15 1 12.5 1 6.1 6.1 1 12.5 1S24 6.1 24 12.5c0 2.5-.8 4.8-2.2 6.7l.8.6c1.5-2.1 2.4-4.6 2.4-7.3C24.9 5.6 19.3 0 12.5 0z" class="st0"/><path d="M6.4 6c-.3 0-.5.2-.5.5V14c0 .3.2.5.5.5h5.5v3H6.4c-.3 0-.5.2-.5.5v1.8c-1 .2-1.8 1.1-1.8 2.2 0 1.2 1 2.2 2.2 2.2s2.2-1 2.2-2.2c0-1.1-.8-2-1.8-2.2v-1.3h5v2.1c-1 .2-1.8 1.1-1.8 2.2 0 1.2 1 2.2 2.2 2.2s2.2-1 2.2-2.2c0-1.1-.8-2-1.8-2.2v-2.1h5v1.4c-1 .2-1.7 1.1-1.7 2.2 0 1.2 1 2.2 2.2 2.2s2.2-1 2.2-2.2c0-1.1-.8-2-1.8-2.2V18c0-.3-.2-.5-.5-.5h-5.5v-3h5.5c.3 0 .5-.2.5-.5V6.5c0-.3-.2-.5-.5-.5z" class="st0"/><path d="M7.7 6.9H17l-4.7 3.8zm-.8.6 3.4 2.7L6.9 13zm11 0V13l-3.5-2.7zm-6.8 3.4 1 .8q.3.15.6 0l1-.8 3.3 2.6H7.8zm-4.7 9.8c.7 0 1.3.6 1.3 1.3s-.6 1.3-1.3 1.3-1.3-.6-1.3-1.3.6-1.3 1.3-1.3zm12 .1c.7 0 1.3.6 1.3 1.3s-.6 1.3-1.3 1.3-1.3-.6-1.3-1.3c.1-.8.6-1.3 1.3-1.3zm-6 .7c.7 0 1.3.6 1.3 1.3s-.6 1.3-1.3 1.3-1.3-.6-1.3-1.3c.1-.8.6-1.3 1.3-1.3zM0 0" class="st0"/></svg>