<svg xmlns="http://www.w3.org/2000/svg" xml:space="preserve" id="图层_1" x="0" y="0" viewBox="0 0 22.9 25"><style>.st0{fill:none;stroke:#fff;stroke-miterlimit:10}</style><path d="M9.2 0h-.3C7.5.1 6.3.5 5.4 1.4 3.8 2.9 3.2 4.6 3.3 6.1c-.9.3-2 .9-2.6 2.3-.7 2-.1 3.4.5 4.3.8 1.1 2.1 1.8 3.4 1.8h13.1c1.4 0 2.7-.3 3.8-1.4 1.3-1.6 1.3-3.5.4-5.2C21.3 7 20.3 6.3 19 6c-.1-.9-.4-1.6-.8-2-.5-.5-1.1-.7-1.6-.8l-.2.9c.4.1.8.2 1.1.6.3.3.5.8.6 1.8v.4l.4.1c1.2.2 2 .8 2.6 1.5.8 1.5.7 2.8-.3 4.1-.9.9-1.8 1.1-3.1 1.1H4.6c-.9 0-2.1-.6-2.7-1.4-.5-.8-1-1.8-.4-3.4.7-1.3 1.5-1.7 2.4-2l.4-.1v-.4C4.1 5 4.5 3.5 6 2.1c1-.9 2.4-1.3 4.1-1 1.9.4 2.5 1.4 3.2 2.3l.8-.6C13.5 2 12.6.7 10.4.2 10 0 9.6 0 9.2 0z" class="st0"/><path d="M7.5 4c-.3 0-.5.3-.5.5v7.6c0 .3.2.5.5.5H15c.1 0 .2-.1.3-.1.1-.1.1-.2.1-.3V4.5c0-.1-.1-.2-.1-.3-.1-.1-.2-.2-.3-.2z" class="st0"/><path d="M8 5h6.5v1.6h-3c-.2-.5-.7-.9-1.3-.9-.7 0-1.3.6-1.3 1.3s.6 1.4 1.4 1.4c.6 0 1.1-.4 1.3-.9h3v4.1H8V10h3c.2.5.7.9 1.3.9.8 0 1.4-.6 1.4-1.4s-.7-1.3-1.4-1.3c-.6 0-1.1.4-1.3.9H8z" class="st0"/><path d="M10.2 6.6c.2 0 .4.2.4.4s-.2.4-.4.4c-.2.1-.4-.1-.4-.4 0-.2.2-.4.4-.4zm2.1 2.5c.2 0 .4.2.4.4s-.2.4-.4.4-.4-.2-.4-.4c-.1-.2.1-.4.4-.4zm-5.4 6.5c-.3 0-.5.2-.5.5v8.5c0 .3.2.5.5.5h8.5c.1 0 .2-.1.3-.1s.1-.2.1-.3V16c0-.3-.2-.5-.5-.5H6.9z" class="st0"/><path d="M7.4 16.5H15V18h-3.7c-.2-.7-.8-1.2-1.5-1.2-.9 0-1.6.7-1.6 1.6S8.9 20 9.8 20c.7 0 1.3-.5 1.5-1.1h3.8v5H7.4v-1.6h3.8c.2.7.8 1.2 1.6 1.2.9 0 1.6-.7 1.6-1.6s-.7-1.6-1.6-1.6c-.7 0-1.3.5-1.5 1.1H7.5v-4.9z" class="st0"/><path d="M9.7 17.9c.4 0 .6.3.6.6 0 .4-.3.6-.6.6-.4 0-.6-.3-.6-.6s.3-.6.6-.6zm3 3.5c.4 0 .7.3.7.7s-.3.7-.7.7-.7-.3-.7-.7c.1-.4.4-.7.7-.7zM0 0" class="st0"/></svg>