<svg xmlns="http://www.w3.org/2000/svg" xml:space="preserve" id="图层_1" x="0" y="0" viewBox="0 0 25 20.5"><style>.st0{fill:none;stroke:#fff;stroke-miterlimit:10}</style><path d="M.5 0C.2 0 0 .2 0 .5v18.1h1v-2.3h4.3v3.1H.5v1h5.3c.1 0 .3-.1.4-.2s.2-.2.2-.4V1H25V0z" class="st0"/><path d="M1 1h4.3v2.5H1z" class="st0"/><path d="M1.8 1.8v1h.9v-1zm5.4 0v1H25v-1zm16.2 2.5c-.7 0-1.3.5-1.3 1.3s.5 1.3 1.3 1.3c.7 0 1.3-.6 1.3-1.3-.1-.7-.6-1.2-1.3-1.3zM1 4.6h4.3v2.7H1z" class="st0"/><path d="M23.3 5.4c.1 0 .1 0 .2.1s.1.1.1.2-.1.2-.2.2-.2-.1-.2-.2 0-.3.1-.3zm-9.5.8c-.4 0-.7.3-.7.8s.3.7.8.7c.4 0 .7-.3.7-.7 0-.2-.1-.4-.2-.5q-.3-.3-.6-.3zm6.8.5c-.8 0-1.5.7-1.5 1.6 0 .8.7 1.5 1.6 1.5.4 0 .8-.2 1.1-.4s.4-.7.4-1.1-.2-.8-.5-1.1c-.3-.4-.7-.6-1.1-.5z" class="st0"/><path d="M13.8 6.7c.1 0 .2 0 .2.1.1.1.1.1.1.2q0 .3-.3.3t-.3-.3c0-.1 0-.2.1-.2.1-.1.2-.1.2-.1zm1.3.3v1c1.1 0 2 .9 2 2 0 .3.2.5.5.5 1.1 0 2.1.9 2.1 2.1s-.9 2.1-2.1 2.1H10c-.9 0-1.7-.8-1.7-1.7s.7-1.7 1.7-1.7c.3 0 .5-.2.5-.5s.1-.7.4-.9c.2-.2.6-.4.9-.4v-1c-1.1 0-2.1.8-2.3 1.8-1.4.3-2.3 1.5-2.2 2.9s1.3 2.5 2.7 2.5h7.7c1.6 0 2.9-1.3 3.1-2.9s-1-3-2.6-3.3C17.8 8.1 16.6 7 15.1 7zm5.6.7c.2 0 .4.1.5.2.1.2.1.4 0 .5s-.3.2-.5.2-.4-.2-.4-.5c-.1-.2.1-.4.4-.4zM1 8.3h4.3v2.8H1z" class="st0"/><path d="M13.8 8.5c-.7 0-1.3.6-1.3 1.4 0 .7.6 1.3 1.4 1.3.7 0 1.4-.6 1.4-1.4 0-.4-.1-.7-.4-1s-.7-.4-1.1-.3zm9.5.2c-.4 0-.8.4-.8.8s.4.8.8.8.8-.3.8-.8c0-.2-.1-.4-.2-.6-.2-.1-.4-.2-.6-.2z" class="st0"/><path d="M23.3 9.2c.1 0 .1 0 .2.1.1 0 .1.1.1.2s-.1.2-.2.3c-.1 0-.2 0-.3-.1s-.1-.2 0-.3c0-.1.1-.2.2-.2zm-9.5.3c.1 0 .2 0 .2.1s.1.1.1.2q0 .3-.3.3t-.3-.3c0-.3.2-.3.3-.3zm0 2.5c-.6 0-1.1.5-1.1 1.2 0 .6.5 1.1 1.2 1.1.6 0 1.1-.5 1.1-1.1 0-.3-.1-.6-.4-.8-.2-.3-.5-.4-.8-.4zM1 12.2h4.3v3.1H1zm22 0c-.8 0-1.5.7-1.5 1.6 0 .8.7 1.5 1.6 1.5.8 0 1.5-.7 1.5-1.5 0-.4-.2-.8-.5-1.1s-.7-.5-1.1-.5zm-6 .2c-.4 0-.7.3-.7.7s.3.7.7.7c.2 0 .4-.1.5-.2s.2-.3.2-.5-.1-.4-.2-.5-.3-.2-.5-.2zM0 0" class="st0"/><path d="M17 12.9q.3 0 .3.3c0 .1-.1.2-.2.3-.1 0-.3 0-.3-.1-.1-.1-.1-.2-.1-.3s.2-.2.3-.2zm-3.2.1c.1 0 .1 0 .1.1s-.2.1-.2 0l.1-.1c0 .1 0 0 0 0zm9.3.3c.3 0 .5.2.5.5s-.2.5-.5.5-.5-.2-.5-.5.2-.5.5-.5zM7.2 19.4v1H25v-1zM0 0" class="st0"/></svg>