<svg xmlns="http://www.w3.org/2000/svg" xml:space="preserve" id="图层_1" x="0" y="0" viewBox="0 0 25 23.5"><style>.st0{fill:none;stroke:#fff;stroke-miterlimit:10}</style><path d="M13.8 10.5c-1 0-1.8.8-1.8 1.8s.8 1.8 1.8 1.8 1.8-.8 1.8-1.8c0-.9-.8-1.8-1.8-1.8z" class="st0"/><path d="M13.8 11.5c.5 0 .8.4.8.8s-.4.8-.8.8c-.5 0-.8-.4-.8-.8s.3-.8.8-.8z" class="st0"/><path d="M14.6 8.2c-1.8 0-3.1.9-3.9 1.9S9.6 12.2 9.6 13c0 3.2 2.4 5.2 5.1 5.2.6 0 1.1-.1 1.7-.4l.2.4v1.4c0 .3.2.5.5.5h1.3l.7.7V22c0 .3.2.5.5.5h2.3l.8.9c.1.1.2.1.3.2h1.5c.3 0 .5-.2.5-.5v-2.3c0-.1 0-.2-.1-.3L19.4 15q.3-.75.3-1.8c-.1-2.9-2.5-5-5.1-5z" class="st0"/><path d="M14.6 9.2c2.2 0 4.1 1.7 4.1 3.9 0 .8-.2 1.3-.4 1.7-.1.2-.1.4.1.5l5.6 5.6v1.6h-.8l-.8-.9c-.1-.1-.2-.2-.4-.2h-2v-1c0-.1-.1-.3-.1-.3l-1-1c-.1-.1-.2-.1-.3-.1h-1v-1c0-.1 0-.2-.1-.3l-.5-.8c-.1-.1-.2-.2-.3-.2s-.3 0-.4.1c-.4.3-.9.4-1.6.4-2.1 0-4.1-1.5-4.1-4.2 0-.5.3-1.5.9-2.3.6-.9 1.5-1.5 3.1-1.5z" class="st0"/><path d="M8.9.2C7.6.4 6.3 1 5.2 2.1 3.9 3.7 3.5 5.2 3.5 6.7c-.9.2-1.8.8-2.5 1.7-1 1.6-.9 3.5-.1 4.9.9 1.3 2.5 2.2 4.1 2.2h3.5v-1H5c-1.2 0-2.6-.8-3.3-1.8-.6-1-.7-2.4.1-3.7.6-.8 1.4-1.3 2.2-1.4.3 0 .5-.3.4-.5 0-1.4.3-2.8 1.5-4.3 2-2 4.4-2.1 6.6-1.2 1.4.7 2.6 2.1 3 3.5.1.2.2.3.4.3s.3 0 .5-.1c.4-.4.8-.7 1.2-.8s1 0 1.7.4c.7.7.9 1.4.9 2.1 0 .3.2.5.4.5 1.3.1 2.6.7 3.2 2.2.3.9.2 2.3-.1 3.1-.5 1-1.6 1.6-2.5 1.7l.1 1c1.3-.2 2.6-.9 3.3-2.2.4-1.1.5-2.6.1-3.8C24 7.8 22.5 7 21 6.7c-.1-.8-.3-1.7-1.2-2.5l-.1-.1c-.9-.6-1.7-.7-2.4-.6-.5.1-.9.4-1.2.6-.6-1.4-1.8-2.7-3.2-3.4-1.3-.5-2.7-.7-4-.5zM0 0" class="st0"/></svg>