<svg xmlns="http://www.w3.org/2000/svg" xml:space="preserve" id="图层_1" x="0" y="0" viewBox="0 0 22.5 25"><style>.st0{fill:none;stroke:#fff;stroke-miterlimit:10}</style><path d="M11.5 0C8.4.1 5.9 2.7 6 5.8V6h1v-.2c0-2.6 2-4.7 4.5-4.7 2.4 0 4.4 2.1 4.4 4.8V6H17v-.1c.1-3.2-2.4-5.8-5.5-5.9z" class="st0"/><path d="M2.7 4.6.2 7.1c-.1.1-.2.3-.2.4s.1.3.2.4l2.5 2.5.8-.8-1.7-1.5h18.8L19 9.7l.8.8L22.3 8c.1-.1.2-.2.2-.4s-.1-.3-.2-.4l-2.5-2.5-.8.7L20.7 7H1.8l1.6-1.6z" class="st0"/><path d="M6 9v2.5H3.5c-.3 0-.5.2-.5.5v12.5c0 .3.2.5.5.5h16c.3 0 .5-.2.5-.5V12c0-.1-.1-.3-.2-.4s-.2-.2-.4-.2H17V9h-1.1v2.5H7V9z" class="st0"/><path d="M4 12.5h14.9v11.4H4z" class="st0"/><path d="M11.5 13.8c-1.1 0-2 .8-2.2 1.9-.1 1.1.6 2.1 1.6 2.4V21H12v-3c.8-.2 1.4-.8 1.6-1.5.2-.8 0-1.6-.6-2.1-.4-.3-1-.6-1.5-.6z" class="st0"/><path d="M11.4 14.9c.3 0 .6.1.8.3s.3.5.3.8-.1.6-.3.8-.5.3-.8.3c-.5 0-.9-.3-1-.7-.2-.4-.1-.9.2-1.2.3-.2.5-.3.8-.3zM0 0" class="st0"/></svg>