<svg xmlns="http://www.w3.org/2000/svg" xml:space="preserve" id="图层_1" x="0" y="0" viewBox="0 0 25 24"><style>.st0{fill:none;stroke:#fff;stroke-miterlimit:10}</style><path d="M13 0C8.2 0 4 2.8 2.1 6.9l.9.5C4.7 3.6 8.6 1 13 1c6.1 0 11 4.9 11 11s-4.9 11-11 11c-4.8 0-8.9-3-10.4-7.3l-.9.3c1.7 4.7 6.1 8 11.3 8 6.6 0 12-5.4 12-12S19.6 0 13 0z" class="st0"/><path d="M4 8c-.3 0-.5.2-.5.5v7c0 .3.2.5.5.5h1.1c.2.9 1 1.5 1.9 1.5.6 0 1.2-.3 1.5-.7.4.4.9.7 1.5.7.9 0 1.7-.6 1.9-1.5h5.6c.2.9 1 1.5 1.9 1.5 1.1 0 2-.9 2-2h.6c.3 0 .5-.2.5-.5v-2.7c0-.7-.4-1.4-.9-1.9s-1.2-.9-2-.9H18v-1c0-.3-.2-.5-.5-.5zm-3 .5v1h1.5v-1z" class="st0"/><path d="M4.5 9H17v6h-5c-.2-.9-1-1.5-1.9-1.5-.6 0-1.2.3-1.5.7-.4-.4-.9-.7-1.5-.7-.9 0-1.7.6-1.9 1.5h-.7zM18 10.5h1.7c.4 0 .9.2 1.3.6q.6.6.6 1.2v2.2h-.2c-.3-.6-1-1-1.7-1-.6 0-1.2.3-1.6.8v-3.8zM0 11v1h2.5v-1zm.5 2.5v1h2v-1z" class="st0"/><path d="M7 14.5c.6 0 1 .4 1 1s-.4 1-1 1-1-.4-1-1 .5-1 1-1zm3 0c.6 0 1 .4 1 1s-.4 1-1 1-1-.4-1-1 .5-1 1-1zm9.6 0c.6 0 1 .4 1 1s-.4 1-1 1-1-.4-1-1 .4-1 1-1zM0 0" class="st0"/></svg>