<svg xmlns="http://www.w3.org/2000/svg" xml:space="preserve" id="图层_1" x="0" y="0" viewBox="0 0 25 23.5"><style>.st0{fill:none;stroke:#fff;stroke-miterlimit:10}</style><path d="M19.1 15.4c-1.2 0-2.3 1-2.3 2.3s1 2.3 2.3 2.3c1.2 0 2.3-1 2.3-2.3s-1.1-2.3-2.3-2.3z" class="st0"/><path d="M19.1 16.3c.7 0 1.3.6 1.3 1.3s-.6 1.3-1.3 1.3-1.3-.6-1.3-1.3.6-1.3 1.3-1.3z" class="st0"/><path d="M18.6 11.8c-.2 0-.3.1-.4.2l-.4.8c-.2.1-.4.1-.7.2l-.9-.4c-.2-.1-.4 0-.5.1l-1.1 1c-.1.1-.2.3-.1.5l.2.9c-.1.2-.2.3-.2.5l-.9.4c-.2.1-.3.2-.3.4V18c0 .2.1.3.2.4l.8.5c.1.2.1.4.2.6l-.4.9c-.1.2 0 .4.1.5l1 1.1c.1.1.3.2.5.1l.9-.2c.2.1.4.2.5.3l.4.9c.1.2.2.3.4.3h1.5c.2 0 .3-.1.4-.3l.4-.8c.2 0 .4-.1.6-.2l.9.4c.2.1.4 0 .5-.1l1.2-1c.2-.1.2-.3.1-.5l-.3-.9c.1-.2.2-.3.2-.5l1.1-.5c.2-.1.3-.2.3-.4v-1.4c0-.2-.1-.3-.2-.4l-.9-.5c0-.2-.1-.4-.2-.6l.4-.9c.1-.2 0-.4-.1-.5l-1-1.2c.1-.1-.1-.1-.2-.1l-1 .3c-.2-.1-.4-.3-.6-.3l-.3-.9c-.1-.2-.2-.3-.4-.3z" class="st0"/><path d="M18.9 12.7h1l.3.7q0 .15.3.3c.4.1.6.3.8.4.1.1.3.1.4.1l.8-.2.6.7-.3.8c-.1.1 0 .3 0 .4.1.3.2.5.3.8 0 .1.1.3.2.4l.8.5v.8l-1 .4-.3.3c-.1.3-.2.5-.3.8-.1.1-.1.3 0 .4l.3.7-.8.6-.8-.3h-.4l-.9.3c-.1 0-.3.1-.3.3l-.4.7h-.9l-.3-.9-.3-.3c-.2-.1-.5-.2-.8-.4h-.4l-.8.2-.6-.7.3-.8v-.4l-.3-.9c0-.1-.1-.2-.2-.3l-.7-.4v-1l.8-.3.3-.3c0-.2.2-.5.3-.7.1-.1.1-.2 0-.4l-.2-.8.7-.6.8.3c.1.1.3.1.4 0 .3-.1.6-.2 1-.3.1 0 .2-.1.3-.2zM10.3 2v1h3.9V2z" class="st0"/><path d="M12.2 16.2H3.5c-.2 0-.3-.1-.4-.2s-.2-.3-.2-.5V3.6c0-.2.1-.4.1-.5.2-.1.3-.2.6-.2H8l.6 1.6c0 .3.2.4.4.4h6.5c.2 0 .4-.1.4-.3l.6-1.6h4.4q.6 0 .6.6v7.6h1V3.6c0-.8-.7-1.6-1.6-1.6h-4.8c-.2 0-.4.1-.4.3l-.6 1.6H9.3l-.5-1.6c-.1-.2-.3-.3-.5-.3H3.6c-.6 0-1 .2-1.3.5-.2.4-.3.8-.3 1.1v11.8c0 .4.1.8.4 1.1s.7.5 1.1.5h8.7z" class="st0"/><path d="M13.6 12.7H6.4V7.3h11.7v3.4h1V6.9c0-.3-.2-.5-.5-.5H5.9c-.3 0-.5.2-.5.5v6.3c0 .3.2.5.5.5h7.8v-1z" class="st0"/><path d="M12.2 18.1H2.6c-.9 0-1.7-.7-1.7-1.7V2.6C1 1.7 1.7 1 2.6 1h19.1c.9 0 1.7.7 1.7 1.7v10h1v-10c0-1.5-1.2-2.6-2.6-2.6H2.6C1.2 0 0 1.2 0 2.6v13.8C0 17.9 1.2 19 2.6 19h9.5v-.9zM0 0" class="st0"/></svg>