<svg xmlns="http://www.w3.org/2000/svg" xml:space="preserve" id="图层_1" x="0" y="0" viewBox="0 0 18.8 25"><style>.st0{fill:none;stroke:#fff;stroke-miterlimit:10}</style><path d="M0 3.5C.6 1.5 4.6 0 9.4 0s8.8 1.5 9.4 3.5v18.1c-.6 2-4.6 3.5-9.4 3.5S.6 23.5 0 21.5z" class="st0"/><path d="M2.7 3.5c0 1.1 3 2 6.7 2s6.7-.9 6.7-2-3-2-6.7-2-6.7.9-6.7 2zm3.6 7.4c-.8-.2-1.7-.2-2.5 0-.5.2-.9.7-1 1.3s.2 1.1.7 1.4l1.1.5c.1.1.2.2.2.3s-.1.3-.2.3c-.3.1-.6 0-.9-.1l-.7-.3v1.4c.4.2 1 .3 1.5.3.6 0 1.1-.1 1.6-.5q.45-.45.6-1.2c0-.5-.3-1-.7-1.2l-1.2-.6c-.1-.1-.1-.3 0-.4s.2-.2.4-.2c.4 0 .9.1 1.3.4v-1.4zm3.2 1.2c.5 0 .9.6.9 1.3s-.4 1.3-.9 1.3-.9-.6-.9-1.3.4-1.3.9-1.3z" class="st0"/><path d="M10.6 15.7c.9-.5 1.5-1.5 1.4-2.5-.1-.9-.6-1.8-1.4-2.2-.6-.2-1.2-.3-1.8-.1-.8.1-1.4.7-1.7 1.4-.3.8-.2 1.8.3 2.6.4.6 1.1 1 1.9 1.1l1 1.2h2zm2.1.2H16v-1.2h-1.8v-3.8h-1.5zM0 0" class="st0"/></svg>