<svg xmlns="http://www.w3.org/2000/svg" xml:space="preserve" id="图层_1" x="0" y="0" viewBox="0 0 25 21.5"><style>.st0{fill:none;stroke:#fff;stroke-miterlimit:10}</style><path d="M2.4 14.4c1.5 4.1 5.5 7 10.1 7 4.7 0 8.6-3 10.1-7.1l-.9-.3c-1.3 3.8-5 6.5-9.2 6.5s-7.8-2.7-9.2-6.4zM3.1 8C4.2 3.9 8 .9 12.5.9c4.4 0 8.2 2.9 9.4 7l.9-.2C21.5 3.3 17.4 0 12.5 0s-9 3.2-10.3 7.7z" class="st0"/><path d="M16.7 7.5s0-.1 0 0c.4-.5-.2-1.1-.7-.7-.5.5-1.9 1.4-3.5 1.4-1.5 0-2.7-.4-3.8-1.4 0-.1-.2-.1-.3-.1-.4-.1-.6.4-.3.7.8 1 1.4 2.1 1.4 3.8 0 1.4-.7 2.7-1.5 3.5-.4.4.2 1.1.7.7 1.2-1.1 2.9-1.4 3.8-1.4 1.4 0 2.6.6 3.6 1.4.5.4 1.1-.3.6-.7-.7-.8-1.3-2.1-1.3-3.5 0-1.6.6-2.9 1.3-3.7z" class="st0"/><path d="M9.9 8.6c.8.3 1.7.5 2.6.5s1.7-.2 2.4-.5c-.4.9-.6 1.8-.6 2.6 0 .7.2 1.6.6 2.4-.7-.3-1.5-.5-2.4-.5-.7 0-1.7.2-2.6.6.3-.7.5-1.5.5-2.4 0-1.1-.2-2-.5-2.7zm6.1 3h2l-.7.7.6.7 1.6-1.5c.2-.2.2-.5 0-.7L18 9.3l-.7.7.7.7h-2zm6.8-2.7c-1.2 0-2.2 1-2.2 2.2s1 2.2 2.2 2.2 2.2-1 2.2-2.2-1-2.2-2.2-2.2z" class="st0"/><path d="M22.8 9.9c.7 0 1.3.6 1.3 1.3s-.6 1.3-1.3 1.3-1.3-.6-1.3-1.3c0-.8.6-1.3 1.3-1.3zm-20.6-1C1 8.9 0 9.9 0 11.1s1 2.2 2.2 2.2c1 0 2.1-.6 2.1-2.1 0-1.6-1-2.3-2.1-2.3z" class="st0"/><path d="M2.2 9.9c.7 0 1.3.6 1.3 1.3s-.6 1.3-1.3 1.3-1.3-.6-1.3-1.3c0-.8.6-1.3 1.3-1.3zM5 11.6h2.1l-.7.7.7.7 1.5-1.5c.2-.2.2-.5 0-.7L7.1 9.3l-.6.6.7.7H5zM0 0" class="st0"/></svg>