<svg xmlns="http://www.w3.org/2000/svg" xml:space="preserve" id="图层_1" x="0" y="0" viewBox="0 0 20.1 25"><style>.st0{fill:none;stroke:#fff;stroke-miterlimit:10}</style><path d="M10.1 25c-3.8-1.4-6.7-5-8.1-8.4C.9 13.9 0 9.9.1 6.2V4.5c1.4.1 2.6-.2 3.2-.7s1-1.7 1-2.7C6.2.4 8.7 0 10.1 0c2 .1 4 .5 5.9 1.2 0 1.2.5 2.5 1.2 2.8.8.4 1.8.5 3 .6v1.5c0 4.4-.7 8-2.3 11.4-1.7 3.2-4.2 6.2-7.8 7.5zM0 0" class="st0"/><path d="M11.6 10.2V8c0-.6-.4-1.4-1.6-1.4-.9 0-1.4.7-1.4 1.4v2.2z" class="st0"/><path d="M14.5 15.1H5.7v-4.9h1.5V8.1c0-1.4 1.2-2.7 2.9-2.7 2.2 0 3 1.7 3 2.7v2.1h1.5v4.9z" class="st0"/><path d="M20.1 6.1c0 4.4-.7 8-2.3 11.4-1.6 3.2-4.1 6.2-7.7 7.5-3.8-1.4-6.7-5-8.1-8.4C.9 13.9 0 9.9.1 6.2c0 3.7 1.1 7.9 2.3 10.3 1.4 2.8 3.9 6.1 7.7 7.6 3.2-1.2 5.6-3.8 7.3-6.8 1.9-3.4 2.7-8.2 2.7-11.2zM0 0z" class="st0"/><path d="M16.9 7.2c-1-.2-2-.7-2.4-1.3-.4-.5-.8-1-1.1-2.1-1.1-.3-2.3-.5-3.5-.5-1 0-2 .2-3.2.5-.2.7-.5 1.4-1 2-.4.8-1.5 1.3-2.4 1.5.1 3.8 1.3 7.1 2.2 8.6 1.3 2.3 3.1 3.9 4.6 4.7 2.2-1.1 3.6-2.9 4.5-4.5 1.2-2.3 2.1-5.1 2.3-8.9z" class="st0"/><path d="M18.4 6c0 4.5-1 8-2.4 10.6-1 1.9-3.1 4.4-5.8 5.5-2.6-1.2-4.4-2.9-5.9-5.7-1.7-3-2.5-6.7-2.4-10.4 1.2-.1 2.1-.3 2.7-.8.4-.4.9-1.2 1-2.4 1.6-.6 3.4-.9 4.9-.8 1.2.1 2.4.2 4.2.8.2 1.3.6 2 1.2 2.5.5.3 1.3.6 2.5.7zM0 0" class="st0"/></svg>