<svg xmlns="http://www.w3.org/2000/svg" xml:space="preserve" id="图层_1" x="0" y="0" viewBox="0 0 25 24.9"><style>.st0{fill:none;stroke:#fff;stroke-miterlimit:10}</style><path d="M12.5 0C11.1 0 10 1.1 10 2.5c0 1.2.9 2.2 2 2.4V6H5c-.3 0-.5.2-.5.5v2h-4c-.3 0-.5.2-.5.5v2.5c0 .3.2.5.5.5h4v1h-4c-.3 0-.5.2-.5.5V16c0 .3.2.5.5.5h4v2c0 .2.2.5.5.5h7v1.1c-1.1.2-2 1.2-2 2.4 0 1.4 1.1 2.5 2.5 2.5s2.5-1.1 2.5-2.5c0-1.2-.8-2.2-2-2.4V19h7c.3 0 .5-.2.5-.5V16h-1v2h-14v-1.5h4c.3 0 .5-.2.5-.5v-2.5c0-.3-.2-.5-.5-.5h-4v-1h4c.3 0 .5-.2.5-.5V9c0-.3-.2-.5-.5-.5h-4V7h14v2.5h1v-3c0-.3-.3-.5-.5-.5h-7V4.9c1.1-.2 2-1.2 2-2.4-.1-1.4-1.2-2.5-2.5-2.5z" class="st0"/><path d="M12.5 1c.8 0 1.5.6 1.5 1.5S13.3 4 12.5 4 11 3.3 11 2.5 11.6 1 12.5 1zM1 9.4h8V11H1zm13.5 1.1c-.3 0-.5.2-.5.5v3.5c0 .3.2.5.5.5h10c.3 0 .5-.2.5-.5V11c0-.3-.2-.5-.5-.5z" class="st0"/><path d="M15 11.5h9V14h-9zM1 13.9h8v1.5H1zM12.5 21c.8 0 1.5.7 1.5 1.5s-.7 1.5-1.5 1.5-1.5-.7-1.5-1.5c0-.9.6-1.5 1.5-1.5zM0 0" class="st0"/></svg>