<svg xmlns="http://www.w3.org/2000/svg" xml:space="preserve" id="图层_1" x="0" y="0" viewBox="0 0 23 25"><style>.st0{fill:none;stroke:#fff;stroke-miterlimit:10}</style><path d="M4.5 0c-.3 0-.5.2-.5.5V13H.5c-.1 0-.3.1-.4.1 0 .1-.1.3-.1.4v9.7c0 .5.2.9.5 1.3s.8.5 1.3.5h19.4c.5 0 .9-.2 1.3-.5.3-.3.5-.8.5-1.3v-9.7c0-.1-.1-.3-.1-.4-.1-.1-.2-.1-.4-.1H19V6.9s0-.1-.1-.1l-7-6.5c-.1-.2-.3-.3-.4-.3z" class="st0"/><path d="M5 1h6v6.5h7V13H5z" class="st0"/><path d="m12 1.7 5.2 4.8H12zM7 3.5v1h2v-1zm0 3v1h2v-1zM7 10v1h9v-1zm-6 4h21v9.2c0 .2-.1.4-.2.6s-.4.2-.6.2H1.8c-.2 0-.4-.1-.6-.2s-.2-.4-.2-.6z" class="st0"/><path d="M8.2 16c-.7 0-1.2.5-1.2 1.2v1.6c0 .7.5 1.2 1.2 1.2h6.6c.7 0 1.2-.5 1.2-1.2v-1.6c0-.7-.5-1.2-1.2-1.2z" class="st0"/><path d="M8.2 17h6.6c.1 0 .2.1.2.2v1.6c0 .1-.1.2-.2.2H8.2c-.1 0-.2-.1-.2-.2v-1.6c0-.1.1-.2.2-.2zM0 0" class="st0"/></svg>