<svg xmlns="http://www.w3.org/2000/svg" xml:space="preserve" id="图层_1" x="0" y="0" viewBox="0 0 25 24.7"><style>.st0{fill:none;stroke:#fff;stroke-miterlimit:10}</style><path d="M12.7 7.8c-2.4 0-4.3.6-5.5 1.2-.6.3-1.1.7-1.4 1-.2.1-.3.3-.4.4s-.2.2-.2.5v13.3c0 .3.2.5.5.5h2.5c.3 0 .5-.2.5-.5v-12c1.1-.7 2.7-1.2 4.1-1.2 1.3 0 2.6.4 3.8 1.1v12c0 .1.1.3.1.3.1.1.2.1.3.1h2.5c.3 0 .5-.2.5-.5V10.8c0-.3-.1-.5-.3-.7-.1-.2-.3-.3-.6-.5-.4-.3-1-.6-1.7-.9-1.3-.5-3-.9-4.7-.9z" class="st0"/><path d="M12.7 8.7c1.5 0 3.2.4 4.4.9.6.2 1.2.5 1.5.8.2.1.3.2.4.3l.1.1v12.9h-1.5V11.8c0-.2-.1-.3-.2-.4-1.5-.9-3.1-1.3-4.6-1.3-1.8 0-3.6.6-4.9 1.5-.1.1-.2.2-.2.4v11.7H6.2V10.9v.1q0-.15.3-.3c.3-.2.7-.5 1.2-.8 1.1-.6 2.7-1.1 5-1.2z" class="st0"/><path d="M10.3.1C8.6 0 7 .5 6 1.3 3.9 3.1 3.3 5.1 3.4 6.9 1.5 7.4.4 9 .2 10.5c-.2 1.8.3 3.1 1.2 3.9s1.9 1.2 2.7 1.3l.1-1c-.6-.1-1.5-.4-2.1-1s-1.1-1.6-.9-3.1C1.4 9.4 2.2 8 4 7.7c.3 0 .4-.3.4-.5-.2-1.6.2-3.4 2.2-5.1 1.1-.8 3.2-1.4 5.1-.8 2.1.8 3.4 2.5 3.7 3.9 0 .2.2.3.4.3s.4 0 .5-.2c.2-.3.7-.7 1.2-.8s1.1-.1 1.7.3c.7.6 1 1.5.9 2.2 0 .3.2.5.4.5 1 .1 1.9.5 2.5 1.2s1 1.6.9 2.8c0 1.1-.4 1.8-1 2.2-.6.5-1.3.7-2 .8l.1 1c.9-.1 1.8-.4 2.6-1s1.3-1.6 1.3-3c.1-1.5-.4-2.7-1.2-3.5C23 7.4 22 6.9 21 6.8c0-.9-.4-1.9-1.2-2.6-.9-.6-1.8-.7-2.5-.5-.6.1-.9.3-1.3.5-.6-1.5-2-3-4-3.8-.6-.2-1.1-.3-1.7-.3zM0 0" class="st0"/></svg>