<svg xmlns="http://www.w3.org/2000/svg" xml:space="preserve" id="图层_1" x="0" y="0" viewBox="0 0 24 25"><style>.st0{fill:none;stroke:#fff;stroke-miterlimit:10}</style><path d="M24 11.9v1.2C24 19.7 18.6 25 12 25 5 25 0 19.3 0 13.1v-1.3C0 5.7 5 0 12.1 0 18.9 0 24 5.6 24 11.9zM0 0" class="st0"/><path d="M24 11.9v1.2C24 19.7 18.6 25 12 25 5 25 0 19.3 0 13.1v-1.3C0 18.9 5.5 24 12.2 24 18.4 24 24 18.9 24 11.9zM0 0z" class="st0"/><path d="M17 15.3h-3V4.6h-4v10.7H7.1l4.9 4.9z" class="st0"/><path d="M18.8 14.5 12 21.2l-6.8-6.7h4V3.8h5.6v10.7zM0 0" class="st0"/></svg>