<svg xmlns="http://www.w3.org/2000/svg" xml:space="preserve" id="图层_1" x="0" y="0" viewBox="0 0 20 25"><style>.st0{fill:none;stroke:#fff;stroke-miterlimit:10}</style><path d="M12.3 21.7v-.4c.5.2 1 .3 1.7.2.5-.1.7-.2.8-.7 0-.5-.2-.7-.7-.8-.5-.2-1-.4-1.4-.7s-.4-.9-.2-1.4c.2-.4.7-.7 1.5-.7q.6 0 1.2.3v.4c-.4-.1-.8-.2-1.2-.2-.5 0-.9.2-.9.5-.1.4.1.7.5.9.7.3 1.2.4 1.6.8.3.4.4 1.1.1 1.5s-.7.6-1.4.6c-.6.1-1.2-.1-1.6-.3zm-2.5.2v-4.3H8.3v-.5H12v.5h-1.5v4.3zm-5-.2v-.4c.4.2 1 .3 1.7.2.5-.1.7-.2.8-.7 0-.5-.2-.7-.7-.8-.5-.2-1-.4-1.4-.7s-.4-.9-.2-1.4c.2-.4.7-.7 1.5-.7q.6 0 1.2.3v.4c-.4-.1-.8-.2-1.2-.2-.5 0-.9.2-.9.5-.1.4.1.7.5.9.7.3 1.2.4 1.6.8.3.3.3 1.1 0 1.5s-.6.6-1.3.6c-.6.1-1.2-.1-1.6-.3zM9.5 4v3.5H7v1h3.5V4z" class="st0"/><path d="M10 2C7 2 4.5 4.5 4.5 7.5S7 13 10 13s5.5-2.5 5.5-5.5S13.1 2 10 2z" class="st0"/><path d="M10 3c2.5 0 4.6 2 4.6 4.6 0 2.5-2 4.6-4.6 4.6-2.5 0-4.6-2-4.6-4.6C5.5 5 7.5 3 10 3z" class="st0"/><path d="M1.5 0C.7 0 0 .7 0 1.5v22.1c0 .7.7 1.4 1.5 1.4h17.1c.8 0 1.5-.7 1.5-1.5v-22C20 .7 19.3 0 18.5 0z" class="st0"/><path d="M1.5 1h17.1c.2 0 .4.2.4.5v22.1c0 .3-.2.5-.5.5h-17c-.3-.1-.5-.3-.5-.6v-22c0-.3.2-.5.5-.5zM0 0" class="st0"/></svg>