<svg xmlns="http://www.w3.org/2000/svg" xml:space="preserve" id="图层_1" x="0" y="0" viewBox="0 0 25 16"><style>.st0{fill:none;stroke:#fff;stroke-miterlimit:10}</style><path d="M5.7 6c-1.1 0-2 .9-2 2s.9 2 2 2 2-.9 2-2-.9-2-2-2z" class="st0"/><path d="M5.7 7c.6 0 1.1.4 1.1 1s-.5 1.1-1.1 1.1-1-.5-1-1.1.4-1 1-1z" class="st0"/><path d="M7.3 2.5c-2.9 0-5.5 2.2-5.5 5.4 0 3.3 2.5 5.5 5.6 5.5 2.5 0 4.3-1.7 5-3.5h9.1c.1 0 .3-.1.4-.2l1.3-1.6c.2-.2.1-.5-.1-.7l-1.7-1.5c-.1.2-.2.1-.4.1h-1.1l-1.2-1.2c-.1-.1-.2-.1-.3-.1s-.3.1-.3.1L16.9 6h-.4l-1.2-1.2c-.1-.1-.2-.1-.3-.1s-.3.1-.3.1L13.4 6h-1.1c-.9-2.2-2.9-3.5-5-3.5z" class="st0"/><path d="M7.3 3.5c1.9 0 3.6 1.1 4.3 3.2 0 .1.2.3.4.3h1.5c.1 0 .3-.1.3-.1l1-1 1 1c.2 0 .3.1.4.1h.9c.1 0 .3-.1.3-.1l1-1 1 1s.2.1.3.1h1.2l1.2 1-.8 1H12c-.2 0-.4.1-.5.3-.5 1.6-2 3.1-4.2 3.1-2.6 0-4.6-1.8-4.6-4.6 0-2.5 2.2-4.3 4.6-4.3z" class="st0"/><path d="M.5 0C.2 0 0 .2 0 .5v15c0 .3.2.5.5.5h24c.3 0 .5-.2.5-.5V.5c0-.3-.2-.5-.5-.5z" class="st0"/><path d="M1 1h23v14H1zM0 0" class="st0"/></svg>