<svg xmlns="http://www.w3.org/2000/svg" xml:space="preserve" id="图层_1" x="0" y="0" viewBox="0 0 25 24.6"><style>.st0{fill:none;stroke:#fff;stroke-miterlimit:10}</style><path d="M11.1 13.6c1.3 0 2.5.6 3.4 1.6l.8-.8c-.6-.6-1.2-1.1-2-1.5 1.6-1 2.4-2.9 1.9-4.7S13 5.1 11.1 5.1 7.5 6.4 7 8.3 7.3 12 8.9 13c-2.3 1.1-3.9 3.7-4.2 6.9L1.1 18V6.5l10-5.3L21 6.5v6.6h1.1V5.9L11.1 0 0 5.9v12.8l11.1 6 3.3-1.6-.5-1-2.8 1.4-5.3-2.9c.1-4 2.4-7 5.3-7z" class="st0"/><path d="M8 9.4c0-1.7 1.4-3.1 3.1-3.1s3.1 1.4 3.1 3.1-1.4 3.1-3.1 3.1S8 11.1 8 9.4zm16.8 8.7c-.1-.1-.3-.2-.4-.2h-.3c-.1-.2-.1-.3-.2-.5l.2-.2c.1-.1.2-.2.2-.4s-.1-.3-.2-.4l-1.3-1.3c0-.1-.2-.1-.3-.1-.2 0-.3.1-.4.2l-.2.2c-.2-.1-.3-.1-.5-.2v-.3c0-.2 0-.3-.2-.4-.1-.1-.3-.2-.4-.2H19c-.2 0-.3.1-.4.2s-.2.3-.2.4v.3c-.2.1-.3.1-.5.2l-.2-.2c-.1-.2-.2-.2-.4-.2s-.3.1-.4.2l-1.3 1.3c-.1.1-.2.3-.2.4 0 .2.1.3.2.4l.2.2c-.1.2-.1.3-.2.5h-.3c-.2 0-.3 0-.4.2-.1.1-.2.3-.2.4v1.8c0 .2.1.3.2.4s.3.2.4.2h.3c.1.2.1.3.2.5l-.2.2c-.1.1-.2.3-.2.4 0 .2.1.3.2.4l1.3 1.3c.1.1.3.2.4.2.2 0 .3-.1.4-.2l.2-.2c.2.1.3.1.5.2v.2c0 .2 0 .3.2.4.1.1.3.2.4.2h1.8c.2 0 .3-.1.4-.2s.2-.3.2-.4v-.3c.2-.1.3-.1.5-.2l.2.2c.1.1.3.2.4.2.2 0 .3-.1.4-.2l1.3-1.3c.1-.1.2-.3.2-.4 0-.2-.1-.3-.2-.4l-.2-.2c.1-.2.1-.3.2-.5h.3c.2 0 .3-.1.4-.2s.2-.3.2-.4v-1.8c-.1-.1-.2-.3-.3-.4z" class="st0"/><path d="M23.9 19.7h-.1c-.3 0-.5.2-.6.4-.1.4-.2.7-.4 1-.2.2-.1.5.1.7l.1.1-.4.4-.1-.1c-.2-.2-.5-.3-.7-.1-.3.2-.7.3-1 .4s-.5.3-.4.6v.2h-.6v-.2c0-.3-.2-.5-.4-.6-.4-.1-.7-.2-1-.4-.2-.2-.5-.1-.7.1l-.1.1-.7-.3.1-.1c.2-.2.3-.5.1-.7-.2-.3-.3-.7-.4-1s-.3-.5-.6-.4h-.2v-.6h.2c.3 0 .5-.2.6-.4.1-.4.2-.7.4-1 .1-.2.1-.5-.1-.7l-.1-.1.4-.4.1.1c.2.2.5.2.7.1.3-.2.7-.3 1-.4s.4-.3.4-.6v-.2h.6v.2c0 .3.2.5.4.6.4.1.7.2 1 .4.2.1.5.1.7-.1l.1-.1.4.4-.1.1c-.2.2-.3.5-.1.7.2.3.3.7.4 1s.3.5.6.4h.2z" class="st0"/><path d="M19.9 17.1c-1.3 0-2.3 1-2.3 2.3s1 2.3 2.3 2.3 2.3-1 2.3-2.3-1.1-2.3-2.3-2.3z" class="st0"/><path d="M19.9 20.6c-.5 0-.9-.3-1.1-.7s-.1-.9.2-1.2.8-.4 1.2-.2.7.6.7 1.1c0 .3-.1.6-.3.8-.1 0-.4.2-.7.2zM0 0" class="st0"/></svg>