<svg xmlns="http://www.w3.org/2000/svg" xml:space="preserve" id="图层_1" x="0" y="0" viewBox="0 0 25 24.8"><style>.st0{fill:none;stroke:#fff;stroke-miterlimit:10}</style><path d="M9.9 0C8.1 0 6.4.8 5.2 2.2S3.4 5.3 3.5 6.9c-1.3.4-2.3 1.3-3 2.6v.1C0 11.3.2 12.8.9 14s1.9 2.3 3.3 2.3h4v-1h-4c-.8 0-1.8-.8-2.4-1.8s-.8-2.1-.4-3.6C2 8.8 3 7.9 4.1 7.7c.3 0 .4-.3.4-.5-.2-1.4.3-3 1.4-4.4C7.4 1.1 9.8.5 12.2 1.4c1.8.9 2.8 2.4 3.3 3.9.1.2.2.3.4.3s.3 0 .5-.2c.3-.4.6-.7 1-.8s.9-.2 1.7.2c.8.5 1.1 1.5 1.1 2.5 0 .3.2.5.4.5 1 .1 1.9.5 2.8 1.5.5.8.7 1.7.6 2.6h1c0-1-.1-2.2-.8-3.2v-.1c-.9-1.1-2-1.5-3-1.8 0-1.1-.5-2.3-1.6-3h-.1c-1-.4-1.8-.4-2.4-.2q-.6.15-.9.6c-.7-1.5-1.7-2.9-3.5-3.7-.7-.3-1.4-.4-2.1-.5z" class="st0"/><path d="M15.5 8.9c-.1 0-.3.1-.4.1 0 .1-.1.3-.1.4v.9c-.5.2-.9.3-1.3.6l-.6-.7c0-.1-.1-.2-.2-.2s-.3 0-.4.1l-2.2 2.1c-.1.1-.2.2-.1.4 0 .1.1.3.2.4l.7.6c-.2.4-.4.9-.6 1.3l-.9-.1c-.1 0-.3 0-.4.1s-.2.2-.2.4v3c0 .1.1.3.1.4.1.1.2.1.4.1l.9-.1c.1.4.3.9.6 1.4l-.7.5c-.1.1-.2.2-.2.4 0 .1 0 .3.1.4l2.1 2.2c.1.1.2.1.4.1s.3-.1.3-.2l.6-.7c.4.2.9.4 1.3.6l-.1.8c0 .1 0 .3.1.4s.2.2.3.2h3c.1 0 .3-.1.4-.1s.1-.2.1-.4l.3-.9c.4-.2.9-.4 1.3-.6l.6.7c.1.1.2.2.3.2s.3 0 .4-.1l2.1-2.1c.1-.1.1-.2.1-.4 0-.1-.1-.3-.2-.3l-.6-.7c.2-.4.4-.9.6-1.4l.8.1c.1 0 .3 0 .4-.1s.2-.2.2-.4v-3c0-.1-.1-.3-.1-.3-.1-.1-.2-.1-.4-.1h-.9c-.1-.5-.3-1-.6-1.4l.7-.6c.1-.1.2-.2.2-.3s0-.3-.1-.4l-2.1-2.1c-.1-.1-.2-.1-.4-.1-.1 0-.3.1-.3.2l-.6.7c-.4-.3-.9-.5-1.4-.6v-.9c0-.1 0-.3-.1-.4s-.2-.2-.4-.2z" class="st0"/><path d="M16 9.9h2v.7c0 .2.1.5.4.5.7.2 1.3.4 1.8.8.2.2.5.1.7-.1l.5-.6 1.4 1.4-.6.5c-.2.2-.2.4-.1.6.4.6.6 1.1.8 1.8 0 .2.3.4.5.4h.7v1.9l-.7-.1c-.3 0-.5.1-.5.4-.1.7-.4 1.3-.8 1.8-.1.2-.1.5.1.6l.6.5-1.4 1.4-.5-.6c-.2-.2-.4-.2-.6-.1-.6.4-1.2.6-1.8.8-.2.1-.4.3-.3.5v.7h-2V23c0-.2-.1-.4-.4-.5-.6-.2-1.2-.4-1.9-.8-.2-.1-.5-.1-.6.1l-.5.6-1.4-1.4.6-.4c.2-.2.3-.5.1-.7-.4-.6-.6-1.2-.8-1.9-.1-.2-.3-.4-.5-.3h-.7v-1.9l.7.1c.2 0 .5-.2.5-.4.1-.6.4-1.2.8-1.8.1-.2.1-.4-.1-.6l-.6-.5 1.4-1.4.5.6c.2.2.4.2.6.1.6-.4 1-.6 1.8-.8.2-.1.4-.3.4-.5z" class="st0"/><path d="M18.5 13.3v.5H13v1h5.5v.5h1v-.5h2v-1h-2v-.5zm-1.9 2.5v.5h-3.5v1h3.5v.5h1v-.5h4v-1h-4v-.5zm-2 2.5v.5h-1.5v1h1.5v.5h1v-.5h6v-1h-6v-.5zM0 0" class="st0"/></svg>