<svg xmlns="http://www.w3.org/2000/svg" xml:space="preserve" id="图层_1" x="0" y="0" viewBox="0 0 25 24.9"><style>.st0{fill:none;stroke:#fff;stroke-miterlimit:10}</style><path d="M10.4 0c-2 0-3.9.6-5.6 1.7l.5.8c1.4-.9 3-1.4 4.6-1.5v3h1V1c1.6.1 3.2.6 4.6 1.5l.5-.9C14.3.5 12.3 0 10.4 0z" class="st0"/><path d="m19 .3-8.6 10.5-3.5-3.6-.7.7 4.3 4.3L19.8.9zM3.6 2.5c-.9.8-1.6 1.8-2.2 2.8l.9.5c.5-1 1.2-1.8 2.1-2.5z" class="st0"/><path d="m19.2 4.8-.8.5c.9 1.4 1.4 3 1.5 4.6h-3v1h3c-.2 3.8-2.7 7.3-6.8 8.5-.7.2-1.4.3-2.1.4v-3h-1v3c-4.7-.2-8.6-4-8.9-8.9h3v-1H1c.1-1 .3-2.1.7-3.1l-.9-.3C.3 7.7 0 9.1 0 10.4c0 6.9 6.7 11.9 13.3 10 .6-.2 1.2-.4 1.7-.7l4.4 4c1.2 1.2 3.2 1.2 4.3-.1 1.2-1.2 1.2-3.1.1-4.3l-4.3-4c1.7-3.1 1.8-7.1-.3-10.5z" class="st0"/><path d="m19 16.2.6.6-3 3-.6-.6q1.8-1.2 3-3zm1.4 1.3 2.7 2.6c.8.8.8 2.1 0 2.9s-2.1.8-3 0l-2.7-2.5zM0 0" class="st0"/></svg>