<svg xmlns="http://www.w3.org/2000/svg" xml:space="preserve" id="图层_1" x="0" y="0" viewBox="0 0 25 25"><style>.st0{fill:none;stroke:#fff;stroke-miterlimit:10}</style><path d="M5.3 0v2.4H2.4v3H0v1h2.4v2.2H0v1h2.4V12H0v1h2.4v2.2H0v1h2.4v2.2H0v1h2.4v3h2.9V25h1v-2.4h2.2V25h1v-2.4h2.2V25h1v-2.4h2.2V25h1v-2.4h2.2V25h1v-2.4h3.1v-3H25v-1h-2.4v-2.2H25v-1h-2.4V13H25v-1h-2.4V9.8H25v-1h-2.4V6.5H25v-1h-2.4v-3h-3.1V0h-1v2.4h-2.2V0h-1v2.4h-2.2V0h-1v2.4H9.6V0h-1v2.4H6.4V0z" class="st0"/><path d="M3.5 3.5h18v18h-18z" class="st0"/><path d="M7.9 9.6v1h1.7v4.6h1.2v-4.6h1.7v-1zm5.2 0v.9h2.1l-1.4 1.6v.7h.8c.3 0 .5 0 .8.2.2.1.3.3.2.6 0 .2-.1.5-.3.6-.2.2-.5.2-.8.2q-.75 0-1.5-.3v.9q.75.3 1.5.3c.4 0 .8-.1 1.2-.2.3-.1.6-.4.8-.6q.3-.45.3-.9c0-.4-.1-.8-.4-1.1s-.8-.5-1.2-.5l1.4-1.4v-1zM0 0" class="st0"/></svg>