<svg xmlns="http://www.w3.org/2000/svg" xml:space="preserve" id="图层_1" x="0" y="0" viewBox="0 0 24.8 25"><style>.st0{fill:none;stroke:#fff;stroke-miterlimit:10}</style><path d="M18.9 16.1v3.5h-2.5v1h3.4v-4.4h-.9z" class="st0"/><path d="M19.4 14.2c-3 0-5.4 2.4-5.4 5.4s2.4 5.4 5.4 5.4 5.4-2.4 5.4-5.4-2.4-5.4-5.4-5.4z" class="st0"/><path d="M19.4 15.1c2.5 0 4.5 2 4.5 4.5s-2 4.5-4.5 4.5-4.5-2-4.5-4.5 2-4.5 4.5-4.5zM19.8 0c-2 0-3.8 1.2-4.8 3.2H6.8c-.1 0-.3.1-.4.2L5.2 4.8c-.2.2-.1.5 0 .7l1.6 1.4h1.4l1 1.1c.2.2.5.2.7 0L11 6.9h.4l1 1.1c.2.2.5.2.7 0l1.1-1.1h1c.6 1.7 2.3 3.2 4.6 3.2 2.9 0 5.1-2.3 5.1-4.9-.1-3-2.5-5.2-5.1-5.2z" class="st0"/><path d="M19.8 1c2.1 0 4 1.7 4 4.3 0 2-1.8 3.9-4.1 3.9-2.1 0-3.5-1.4-3.8-2.8 0-.2-.2-.4-.5-.4h-1.5c-.1 0-.3.1-.3.1l-.9.9-.9-.9c0-.1-.2-.1-.3-.1h-.8c-.1 0-.3.1-.3.1l-.8.9-.9-.9C8.6 6 8.5 6 8.3 6h-1L6.2 5l.8-.9h8.3c.2 0 .4-.1.4-.3.8-1.9 2.4-2.8 4.1-2.8z" class="st0"/><path d="M21.1 3.2c-1 0-1.9.8-1.9 1.9 0 1 .9 1.9 1.9 1.9S23 6.2 23 5.1s-.8-1.9-1.9-1.9z" class="st0"/><path d="M21.1 4.1c.5 0 .9.4.9.9s-.4.9-.9.9-.9-.4-.9-.9.4-.9.9-.9zm-6.9 11.1H9.5c-.2 0-.4.1-.4.3-.7 1.9-2.3 2.9-4 2.9-2.1 0-4-1.7-4-4.3 0-2 1.8-3.9 4.1-3.9 2.1 0 3.5 1.4 3.8 2.8 0 .2.2.4.5.4H11c.1 0 .3-.1.3-.1l.9-.9.9.9c.1.1.2.1.3.1h.6c.1 0 .3-.1.3-.1l.9-.9.9.9c.1.1.2.1.3.1h1l.3.3.6-.7-.3-.5c-.1-.1-.2-.1-.3-.1h-1l-1.1-1.1c-.2-.2-.5-.2-.7 0l-1.1 1.1h-.4l-1.1-1.1c-.2-.2-.5-.2-.7 0l-1.1 1.1h-1c-.6-1.7-2.3-3.2-4.6-3.2-2.7 0-4.9 2.4-4.9 4.9 0 3 2.4 5.2 5 5.2 2 0 3.8-1.2 4.8-3.2h4.5v-.9z" class="st0"/><path d="M3.7 12.4c-1 0-1.9.8-1.9 1.9s.8 1.9 1.9 1.9c1 0 1.9-.8 1.9-1.9s-.9-1.9-1.9-1.9z" class="st0"/><path d="M3.7 13.4c.5 0 .9.4.9.9s-.4.9-.9.9-.9-.4-.9-.9.4-.9.9-.9zm9.2 7.7H1v-2H0v2.4c0 .3.2.5.5.5h12.4zM0 0" class="st0"/></svg>