<svg xmlns="http://www.w3.org/2000/svg" xml:space="preserve" id="图层_1" x="0" y="0" viewBox="0 0 21 25"><style>.st0{fill:none;stroke:#fff;stroke-miterlimit:10}</style><path d="M9.3 19.7v1h8.4v-1zm-5.6-2.5c-.3 0-.5.2-.5.5v3.6c0 .3.2.5.5.5h3.5c.3 0 .5-.2.5-.5v-3.6c0-.3-.2-.5-.5-.5z" class="st0"/><path d="M4.2 18.2h2.6v2.6H4.2zm5.1-5.5v1h8.4v-1zm-5.6-2.5c-.3 0-.5.2-.5.5v3.6c0 .3.2.5.5.5h3.5c.3 0 .5-.2.5-.5v-3.6c0-.3-.2-.5-.5-.5z" class="st0"/><path d="M4.2 11.2h2.6v2.6H4.2zm5.1-5.5v1h8.4v-1zM3.7 3.2c-.3 0-.5.2-.5.5v3.6c0 .3.2.5.5.5h3.5c.3 0 .5-.2.5-.5V3.7c0-.3-.2-.5-.5-.5z" class="st0"/><path d="M4.2 4.2h2.6v2.6H4.2z" class="st0"/><path d="M.5 0C.2 0 0 .2 0 .5v24c0 .3.2.5.5.5h20c.3 0 .5-.2.5-.5V.5c0-.3-.2-.5-.5-.5z" class="st0"/><path d="M1 1h19v23H1zM0 0" class="st0"/></svg>