<svg xmlns="http://www.w3.org/2000/svg" xml:space="preserve" id="图层_1" x="0" y="0" viewBox="0 0 25 25"><style>.st0{fill:none;stroke:#fff;stroke-miterlimit:10}</style><path d="M17.4 25H16v-2.3h-.7V25h-1.4v-2.3h-.7V25h-1.4v-2.3h-.7V25H9.7v-2.3H9V25H7.6v-2.3H6.4c-1.7 0-3.2-1.4-3.2-3.2v-2.1H0V16h3.2v-.7H0v-1.4h3.2v-.7H0v-1.4h3.2v-.7H0V9.7h3.2V9H0V7.6h3.2V6.3c0-1.5 1.3-3.1 3.2-3.1h1.2V0H9v3.2h.7V0h1.4v3.2h.7V0h1.4v3.2h.7V0h1.4v3.2h.7V0h1.4v3.2h1.2c1.6 0 3.2 1.3 3.2 3.2v1.2H25V9h-3.2v.7H25v1.4h-3.2v.7H25v1.4h-3.2v.7H25v1.4h-3.2v.7H25v1.4h-3.2v2.1c0 1.6-1.3 3.2-3.2 3.2h-1.2zM0 0" class="st0"/><path d="M7.6 22.7H6.4c-1.7 0-3.2-1.4-3.2-3.2v-.8c0 1.4 1.2 3.1 3.2 3.1h1.2zm1.4 0v-.9h.7v.9zm2.1 0v-.9h.7v.9zm2.1 0v-.9h.7v.9zm2.1 0v-.9h.7v.9zm2.1 0v-.9h1.3c1.6 0 3.1-1.4 3.1-3.1v.8c0 1.6-1.3 3.2-3.2 3.2zM0 0zm16 8.4c-.2.3-.1.5 0 .7.2.2.6.2.8.1l.4-.4c.2-.2.2-.4 0-.7-.3-.3-.6-.3-.8-.1zm-2.6-1.3c-.1.3.1.6.3.6.3.1.6 0 .7-.4l.1-.5c.1-.2-.1-.5-.3-.6-.3-.1-.6.1-.7.3zm-2.8.4c.1.3.4.4.7.3s.4-.4.3-.6l-.1-.5c-.1-.3-.4-.4-.7-.3-.2.1-.4.4-.3.6zM8.2 9.1c.2.2.6.2.7 0s.2-.5 0-.7L8.6 8c-.2-.2-.6-.2-.7 0-.2.2-.2.5 0 .7zm3.3.7c.1 0 .2-.1.2-.2s-.1-.2-.2-.2H11c-.1 0-.2.1-.2.2s.1.2.2.2zm.1.9c.1 0 .2-.1.2-.2s-.1-.2-.2-.2h-1.1c-.1 0-.2.1-.2.2s.1.2.2.2zm0 1c.1 0 .2-.1.2-.2s-.1-.2-.2-.2H11c-.1 0-.2 0-.2.2 0 .1.1.2.2.2zm0 .9c.1 0 .2-.1.2-.2s-.1-.2-.2-.2h-1.1c-.1 0-.2.1-.2.2s.1.2.2.2zm0 .9c.1 0 .2-.1.2-.2s-.1-.2-.2-.2H11c-.1 0-.2.1-.2.2s.1.2.2.2zm0 1c.1 0 .2-.1.2-.2s-.1-.2-.2-.2h-1.1c-.1 0-.2.1-.2.2s.1.2.2.2zm-.1.9c.1 0 .2-.1.2-.2s-.1-.2-.2-.2H11c-.1 0-.2.1-.2.2s.1.2.2.2z" class="st0"/><path d="M12.5 18.8c.9 0 1.7-.7 1.7-1.7 0-.8-.6-1.4-1.1-1.6v-6c0-.3-.2-.5-.5-.5s-.6.2-.6.4v6.1c-.5.2-1.1.7-1.1 1.5-.1 1.1.7 1.8 1.6 1.8z" class="st0"/><path d="M12.5 20.2c-4.3 0-7.6-3.4-7.6-7.6C4.9 8.7 8 5 12.6 5c4 0 7.5 3.3 7.5 7.6 0 4.4-3.6 7.6-7.6 7.6zM0 0" class="st0"/></svg>