<svg xmlns="http://www.w3.org/2000/svg" xml:space="preserve" id="图层_1" x="0" y="0" viewBox="0 0 22.4 25"><style>.st0{fill:none;stroke:#fff;stroke-miterlimit:10}</style><path d="M1.1 12.6h-1v-1.9h1.1v1.9zM9.7 25h2.9v-1.1H9.7zm.9-23.5v1.6h1.1V1.5l1.4.8.5-.9L11.4.1c-.2-.1-.4-.1-.5 0L8.7 1.4l.5.9zm10.6 11.1h1.1v-1.9h-1.1z" class="st0"/><path d="M22.3 17.3c-.1 2-1.8 3.5-3.7 3.4-1.6-.1-2.9-1.5-2.9-3.1 0-.7.3-1.3.8-1.7s1.1-.7 1.8-.7v1.1c-.4 0-.8.1-1 .4-.3.3-.4.6-.5 1 0 .5.2 1 .5 1.4s.8.6 1.3.6c.7 0 1.3-.2 1.8-.7s.8-1.1.8-1.8c.1-1.8-1.3-3.4-3.2-3.4-2.4-.1-4 1.4-4.1 3.7V20l2.7 1.6c.2.1.3.4.3.6-.1.2-.3.4-.5.4H5.9c-.2 0-.4-.2-.5-.4s0-.5.2-.6L8.4 20v-2.5c-.1-2.3-1.8-3.8-4.1-3.7a3.4 3.4 0 0 0-3.2 3.4c0 .7.3 1.3.8 1.8s1.2.7 1.8.7c.5 0 1-.2 1.3-.6s.5-.9.5-1.4c0-.4-.2-.7-.5-1s-.7-.4-1-.4v-1.1c.7 0 1.3.2 1.8.7s.8 1.1.8 1.7c.1 1.6-1.2 3-2.9 3.1-2 .1-3.7-1.5-3.7-3.4 0-1.2.4-2.3 1.1-3.1.8-.9 1.9-1.4 3-1.4 2.9-.1 5.1 1.8 5.2 4.8v1.9l1.2-.7v-2.3c-.2-4.4-4.2-8.2-9.5-9V9H.1V6.7c0-.2.1-.3.2-.4 0 0 .1 0 .1-.1l2.2-1.3.5.9-1 .6c3.9.9 7 3.1 8.5 6.1v-1.4c0-3-1.7-5.7-4.5-7l-.7.4-.6-.9L5.9 3c.1-.1.3-.1.5 0 2.2 1 4 2.8 4.8 5.1C12 5.8 13.7 3.9 16 3c.2-.1.3-.1.5 0l1.1.6-.6 1-.8-.5c-2.7 1.3-4.5 4-4.5 7v1.4c1.6-3 4.7-5.3 8.5-6.2l-.9-.5.5-.9L22 6.2s.1 0 .1.1c.1.1.2.2.2.4v2.1h-1.1V7.3c-5.3.9-9.3 4.6-9.5 9.1v2.3l1.2.7v-1.9c.1-2.9 2.2-4.9 5.2-4.8 2.4.1 4.3 2.2 4.2 4.6z" class="st0"/><path d="M11.2 19.6 8 21.5h6.5zM0 0" class="st0"/></svg>