<svg xmlns="http://www.w3.org/2000/svg" xml:space="preserve" id="图层_1" x="0" y="0" viewBox="0 0 22.3 25"><style>.st0{fill:none;stroke:#fff;stroke-miterlimit:10}</style><path d="m16.3 4.1-2-1.1.6-1 1.9 1.1z" class="st0"/><path d="M22.3 16.3v2.6c0 .2-.1.4-.3.5l-7.2 4.1-.2.1-2.3 1.4-.5-.9.4-.2c.7-.6 1.1-1.4 1.1-2.3v-.2c0-2.2-1.4-4.4-2.1-5.4-.7 1-2.1 3.1-2.1 5.4v.2c0 .9.4 1.7 1.1 2.3l.3.2-.5.9-2.3-1.3-.2-.1-7.2-4.1q-.3-.3-.3-.6V6.6c0-.2.1-.4.3-.5L3.9 4c.2 0 .4 0 .6.2s.2.4.1.6c-2.3 4-3.5 7.7-3.5 11.1v2.6l3.6 2.1c-.8-1.3-1.2-2.9-1.2-4.4.1-2.2.5-4.5 1.4-6.5l-1-.6.5-.9.9.5c1.4-3.1 3.3-6 5.5-8.5.1-.1.2-.2.3-.2s.3.1.4.2c2.3 2.6 4.1 5.5 5.6 8.6l.9-.6.5.9-1.1.6c.9 2.1 1.3 4.3 1.4 6.5 0 1.5-.4 3.1-1.2 4.4l3.6-2.1V16c-.1-3.4-1.2-7.2-3.5-11.1-.1-.2-.1-.5.1-.6.2-.3.4-.3.6-.2L22 6.2c.2.1.3.3.3.5z" class="st0"/><path d="M1.1 10c.5-1.4 1-2.8 1.7-4.1L1.1 7zm14 9.1c0-4.4-2.9-8.8-3.9-10.3-1.1 1.5-3.9 5.9-3.9 10.3 0 1.1.3 2.2.9 3.1v-.8c0-3.4 2.6-6.5 2.7-6.6s.2-.2.4-.2.3.1.4.2 2.7 3.2 2.7 6.6v.8c.4-1 .7-2 .7-3.1z" class="st0"/><path d="M16.1 19.1c0 .8-.1 1.6-.4 2.4 1.3-1.4 2.1-3.3 2.1-5.2 0-2.1-.5-4.1-1.2-6l-1.1.6-.6-.9 1.2-.7c-1.3-2.9-3-5.5-5-7.9-2 2.4-3.7 5.1-5 7.9l1.3.7-.5.9-1.1-.7q-1.2 2.85-1.2 6c0 1.9.7 3.8 2.1 5.2-.3-.8-.4-1.6-.4-2.4 0-5.8 4.4-11.3 4.6-11.5.1-.1.3-.2.4-.2s.3.1.4.2c0 .2 4.4 5.8 4.4 11.6zM21.2 7l-1.7-1c.7 1.3 1.2 2.7 1.7 4.1zM8 3l-.6-1-1.9 1.2.5.9zM0 0" class="st0"/></svg>