<svg xmlns="http://www.w3.org/2000/svg" xml:space="preserve" id="图层_1" x="0" y="0" viewBox="0 0 21.8 25"><style>.st0{fill:none;stroke:#fff;stroke-miterlimit:10}</style><path d="m16.9 4.6-2.2-1.2.5-.9 2.2 1.2zm-6-3.4 1.9 1.1.5-.9L11.1.2c-.1-.2-.3-.2-.5-.1L8.5 1.3l.5 1zM7 3.4l-.5-.9-2.1 1.2.5.9zm3.9 13.3c.1 0 .2 0 .3-.1l1.5-.9-.5-.9-1.3.8-1.3-.7-.5.9 1.5.9z" class="st0"/><path d="m21.5 6.1-2.1-1.2-.5.9 1.4.8-1.4.8.5.9 1.4-.8v10.1l-1.4-.8-.5.9 1.4.8-9.3 5.4-9.3-5.4 1.4-.8-.5-.9-1.6.8V7.4l1.4.8.5-.9-1.3-.8L3 5.7l-.6-.9L.3 6.1c-.2.1-.3.2-.3.4v12c0 .2.1.4.3.5l10.4 6c.2.1.4.1.5 0l10.4-6c.2-.1.3-.3.3-.5v-12c-.1-.1-.2-.3-.4-.4z" class="st0"/><path d="M2.7 11.3c1.8-1.6 2.9-3.8 3-6.2h1c0 1.4.4 2.8 1.2 4l-.9.5c-.3-.5-.6-1.1-.8-1.6C5.7 9.3 5 10.5 4 11.5l2 1.2c3-2.9 4.4-6.1 4.4-9.8 0-.2.1-.4.3-.4.2-.1.4-.1.5 0 .2.1.3.3.3.4 0 3.7 1.4 7 4.4 9.8l2-1.2c-1-1-1.8-2.2-2.3-3.5-.2.6-.5 1.1-.8 1.7l-.9-.6C14.6 7.9 15 6.5 15 5h1c.1 2.4 1.1 4.7 3 6.2.1.1.2.3.2.5s-.1.3-.3.4l-2.3 1.3c.7.6 1.5 1.2 2.3 1.7.2.1.2.3.2.5s-.1.3-.3.4l-7.7 4.4c-.2.1-.4.1-.5 0L2.9 16c-.2-.1-.3-.3-.3-.4 0-.2.1-.4.2-.5.8-.5 1.5-1.1 2.3-1.7l-2.3-1.3c-.1-.1-.2-.2-.3-.4.1-.2.1-.3.2-.4z" class="st0"/><path d="m9 10.8 1.9 1.1 1.9-1.1c-.9-1.2-1.5-2.6-1.9-4.1-.4 1.5-1.1 2.9-1.9 4.1z" class="st0"/><path d="m4.2 15.6 6.7 3.9 6.7-3.9c-.7-.5-1.3-1-2-1.6l-1.4.8-.5-.9 1.1-.6c-.5-.5-1-1-1.4-1.6L11.2 13c-.2.1-.4.1-.5 0l-2.3-1.3c-.4.6-.9 1.1-1.4 1.6l1.1.6-.5.9-1.4-.8c-.7.5-1.3 1.1-2 1.6zM0 0" class="st0"/></svg>