<svg xmlns="http://www.w3.org/2000/svg" xml:space="preserve" id="图层_1" x="0" y="0" viewBox="0 0 21.8 25"><style>.st0{fill:none;stroke:#fff;stroke-miterlimit:10}</style><path d="m6 15.9 2.1-1.2-.5-.9-1.4.8v-4.2l.3.2.5-.9-.8-.5V3.5c0-.2-.1-.4-.3-.5-.1 0-.3 0-.5.1l-5.2 3c-.1.1-.2.2-.2.4v12c0 .2.1.4.3.5l2.1 1.2.5-.9-1.4-.8z" class="st0"/><path d="M1 12.5V7.4l1.4.8.5-.9-1.4-.8 3.6-2.1v4.2l-.2-.2-.5 1 .8.5v5.4L1 17.6zm19.7 5.1L16.3 15l-2.1-1.2-.5.9 1.4.8-3.6 2.1v-.3h-1.1v.9L5.5 21c-.1 0-.2.1-.2.2-.1.2-.1.6.2.7l5.2 3c.2.1.4.1.5 0l10.3-6h.1c.2-.1.3-.3.3-.5V16h-1v1.6z" class="st0"/><path d="M11.4 23.5V22h-1v1.6l-3.6-2.1 3.6-2.1v.3h1v-.9l4.7-2.7 4.1 2.4zM21.5 6 11.1 0c-.1 0-.3 0-.5.1L8.5 1.3l.5 1 1.4-.8V9h1V7.4L15 9.5l-.3.2.5.9.8-.5 5 2.9c.2.1.4.1.5 0 .2-.1.3-.3.3-.5v-6c0-.1-.1-.3-.3-.5z" class="st0"/><path d="m20.7 11.6-3.6-2.1.3-.2-.5-.9-.8.5-4.7-2.7V1.4l1.4.8 7.4 4.3-1.4.8.5.9 1.4-.8zM10.4 15v-2.2l-1.9-1.1.5-.9 1.9 1.1 1.9-1.1.5.9-1.9 1.1V15zM0 0" class="st0"/></svg>