<svg xmlns="http://www.w3.org/2000/svg" xml:space="preserve" id="图层_1" x="0" y="0" viewBox="0 0 21.7 25"><style>.st0{fill:none;stroke:#fff;stroke-miterlimit:10}</style><path d="M13.3 20.7h1v2.1c0 .2-.1.4-.3.5L11.1 25c-.2.1-.4.1-.5 0l-2.9-1.7c-.2-.1-.3-.3-.3-.5v-2.1h1v1.2l1.9-1.1V19h1v2.1c0 .2-.1.4-.3.5l-2 1.2 1.9 1.1 2.4-1.4zM8.5 2.5l2.4-1.4 1.9 1.1-2.1 1.2c-.2.1-.3.3-.3.5V6h1V4.2l1.9-1.1v1.2h1V2.2c0-.2-.1-.4-.3-.5L11.1 0c-.1 0-.3 0-.5.1L7.7 1.8c-.2.1-.2.2-.2.4v2.1h1z" class="st0"/><path d="m21.5 10.3-3.8 2.2 3.8 2.2c.2.1.3.3.3.5v3.4c0 .2-.1.4-.3.5l-2.9 1.7c-.1 0-.2.1-.3.1s-.2 0-.3-.1l-7.2-4.2-7.2 4.1c-.2.1-.4.1-.5 0L.2 19c-.1-.2-.2-.3-.2-.5v-3.3c0-.2.1-.4.3-.5L4 12.5.2 10.3c-.1-.1-.2-.2-.2-.4V6.5c0-.2.1-.4.3-.5l2.9-1.7c.2-.1.4-.1.5 0l7.2 4.2L18 4.4c.2-.1.4-.1.5 0l2.9 1.7c.2.1.3.3.3.5V10c0 .1-.1.2-.2.3z" class="st0"/><path d="M5.1 11.9 7 10.8 3.2 8.7c-.2-.1-.3-.3-.3-.5V5.7L1 6.8v2.7zm11.6 1.2-1.9 1.1 3.8 2.2c.2.1.3.3.3.5v2.5l1.9-1.1v-2.7z" class="st0"/><path d="m20.2 9.9-1.9-1.1-4.3 2.5-10.3 6c-.2.1-.4.1-.5 0L1 16v2.2l2.4 1.4 7.2-4.1c.2-.1.4-.1.5 0l6.7 3.8v-2.2l-4.3-2.5c-.2-.1-.3-.3-.3-.5s.1-.4.3-.5z" class="st0"/><path d="m20.7 6.8-2.4-1.4-7.2 4.1c-.2.1-.4.1-.5 0L3.9 5.7v2.2l4.3 2.5c.2.1.3.3.3.5s-.1.4-.3.5l-6.7 3.8 1.9 1.1 4.3-2.5 10.3-6c.2-.1.4-.1.5 0L20.7 9zM0 0" class="st0"/></svg>