<svg xmlns="http://www.w3.org/2000/svg" xml:space="preserve" id="图层_1" x="0" y="0" viewBox="0 0 22.8 25"><style>.st0{fill:none;stroke:#fff;stroke-miterlimit:10}</style><path d="M8.4 0C3.7 0 0 1.5 0 3.5v18c0 2 3.7 3.5 8.4 3.5s8.4-1.5 8.4-3.5v-1.7H16v1.7c0 1.3-3.2 2.8-7.7 2.8S.6 22.8.6 21.5v-4.1c1.3 1.2 4.2 2.1 7.7 2.1.8 0 1.6 0 2.3-.1l-.1-.8c-.7.1-1.5.1-2.2.1-4.5 0-7.7-1.5-7.7-2.8v-4.7c1.3 1.2 4.2 2.1 7.7 2.1.8 0 1.6 0 2.3-.1l-.1-.8c-.7.1-1.5.1-2.2.1C3.8 12.5.6 11 .6 9.7V5C2.1 6.2 5 7 8.4 7s6.4-.8 7.7-2v4.5h.8v-6c0-2-3.7-3.5-8.5-3.5z" class="st0"/><path d="M8.4.8c4.5 0 7.7 1.5 7.7 2.8S13 6.3 8.4 6.3.8 4.8.8 3.5 3.9.8 8.4.8zm3.1 8.3V19c0 .1 0 .2.1.3s.2.1.3.1h10.4v-.8h-10V9.1z" class="st0"/><path d="M21 9.6v.8h.6l-3.1 3.1h-2.6l-1 1 .5.5.8-.8h2.6L22 11v.4h.8V9.6z" class="st0"/><path d="M12.8 10.3v.8H15l1.3 1.3 1.3-1.3h.6l1.2 1.2.5-.5-1.4-1.4h-1.2l-1 .9-.9-.9h-2.6zm8 2.3-.5.5 1.2 1.2H21v.8h1.8v-1.8H22v.5zm-7.6.8-.5.5 3.8 3.8 1.5-1.5.9.9h2.4l-.4.4.5.5 1.3-1.3-1.3-1.3-.5.6.4.4h-2.1L18 15.1l-1.5 1.5zm.6 2.2-1.1 1.1.5.5 1.1-1.1zM0 0" class="st0"/></svg>