<svg xmlns="http://www.w3.org/2000/svg" xml:space="preserve" id="图层_1" x="0" y="0" viewBox="0 0 22.4 25"><style>.st0{fill:none;stroke:#fff;stroke-miterlimit:10}</style><path d="M8.2 23.6 5.8 25 0 21.7v-6.5l5.8-3.3 5.7 3.3v2.5l-.5.2v-2.1l-5 2.8v5.6L8 23zM0 0" class="st0"/><path d="m5.7 18.1 5-2.8-5-2.8-5 2.8zm-.2.5-5-2.8v5.6l5 2.8zM0 0zm15.1 19.8 7.3-4.1v-10l-8.8 5v8.1l1.5.9z" class="st0"/><path d="M12.8 18.3v-7.6L4 5.6v7.3l1.8-1 5.7 3.3v2.5h.1zm.4-8.3 8.9-5-8.8-5-8.9 5zm-1.4 14.8 2.7-1.5v-3.1l-2.7 1.5zm-.5 0v-3.1l-2.7-1.5v3.1zm.2-3.5 2.7-1.5-2.7-1.6-2.7 1.6zM0 0" class="st0"/></svg>