<svg xmlns="http://www.w3.org/2000/svg" xml:space="preserve" id="图层_1" x="0" y="0" viewBox="0 0 21.8 25"><style>.st0{fill:none;stroke:#fff;stroke-miterlimit:10}</style><path d="M10.9 0c-.1 0-.2 0-.2.1L.3 6.1c-.2.1-.3.2-.3.4v12c0 .2.1.3.2.4l10.4 6c.1.1.3.1.5 0l10.4-6c.1-.1.2-.2.2-.4v-12c0-.2-.1-.3-.2-.4L11.1.1C11 0 11 0 10.9 0z" class="st0"/><path d="m10.9 1 9.5 5.5-3.2 1.8.5.8 3.2-1.8v10.9l-9.5 5.5V20h-.9v3.7L1 18.2V7.3l3.2 1.8.5-.8-3.3-1.8z" class="st0"/><path d="M10.9 6c-.1 0-.2 0-.2.1l-5.2 3c-.2.1-.3.2-.3.4v6c0 .2.1.3.2.4l5.2 3c.1.1.3.1.5 0l5.2-3.1c.1-.1.2-.2.2-.4v-6c0-.2-.1-.3-.2-.4l-5.2-3z" class="st0"/><path d="m10.9 7 4.3 2.5-4.3 2.5-4.3-2.5zm4.7 3.3v4.9l-4.3 2.5v-5zm-9.5 0 4.3 2.5v5l-4.3-2.5zM0 0" class="st0"/></svg>