<svg xmlns="http://www.w3.org/2000/svg" xml:space="preserve" id="图层_1" x="0" y="0" viewBox="0 0 25 21.6"><style>.st0{fill:none;stroke:#fff;stroke-miterlimit:10}</style><path d="M.1 15.2c0 .1-.1.2-.1.3V17h1v-1h1.4v-1H.5c-.2 0-.3.1-.4.2zm3.3.8h1.9v-1H3.4zm2.8 0h1.9v-1H6.2zm2.9 0H11v-1H9.1zm2.9 0h1.9v-1H12zm2.9 0h1.9v-1h-1.9zm2.9 0h1.9v-1h-1.9zm2.9 0h1.9v-1h-1.9zm2.8 0h.5v.5h1v-.9c0-.1-.1-.3-.2-.4s-.2-.1-.3-.1h-1zm.5 3.3h1v-1.9h-1zm-24 .6h1V18H0zm24 .7h-.7v1h1.2c.1 0 .3-.1.4-.2s.1-.2.1-.3v-.8h-1zm-24 0v.5c0 .1.1.3.2.4s.2.1.3.1h1.8v-1zm3.2 1h1.9v-1H3.2zm2.9 0H8v-1H6.1zm2.9 0h1.9v-1H9zm2.8 0h1.9v-1h-1.9zm2.9 0h1.9v-1h-1.9zm2.9 0h1.9v-1h-1.9zm2.9 0h1.9v-1h-1.9zM.1 7.7S0 7.9 0 8v1.5h1v-1h1.4v-1H.5c-.2 0-.3.1-.4.2zm3.3.8h1.9v-1H3.4zm2.8 0h1.9v-1H6.2zm2.9 0H11v-1H9.1zm2.9 0h1.9v-1H12zm2.9 0h1.9v-1h-1.9zm2.9 0h1.9v-1h-1.9zm2.9 0h1.9v-1h-1.9zm2.8 0h.5V9h1V8c0-.1-.1-.3-.2-.4s-.2-.1-.3-.1h-1zm.5 3.3h1V9.9h-1zm-24 .6h1v-1.9H0zm24 .7h-.7v1h1.2c.1 0 .3-.1.4-.2s.1-.2.1-.3v-.8h-1zm-24 0v.5c0 .1.1.3.2.4h2.1v-1H0zm3.2.9h1.9v-1H3.2zm2.9 0H8v-1H6.1zM9 14h1.9v-1H9zm2.8 0h1.9v-1h-1.9zm2.9 0h1.9v-1h-1.9zm2.9 0h1.9v-1h-1.9zm2.9 0h1.9v-1h-1.9zM.5 0C.2 0 0 .2 0 .5V6c0 .3.2.5.5.5h24c.3 0 .5-.2.5-.5V.5c0-.3-.2-.5-.5-.5zM0 0" class="st0"/><path d="M1 1h23v4.6H1zM0 0" class="st0"/></svg>