<svg xmlns="http://www.w3.org/2000/svg" xml:space="preserve" id="图层_1" x="0" y="0" viewBox="0 0 17 25"><style>.st0{fill:none;stroke:#fff;stroke-miterlimit:10}</style><path d="M13 0H4c-.3 0-.5.2-.5.5v5.4h1V1.6l3.7 3.5c.2.2.5.2.7 0l3.7-3.5v4.3h1V.4c-.1-.2-.3-.4-.6-.4z" class="st0"/><path d="M11.8 1 8.5 4.1 5.2 1z" class="st0"/><path d="M2.3 3.1c-1 .4-2.1 1-2.3 2.1v16.5c0 .7.4 1.2 1 1.6.5.4 1.3.7 2.1 1 1.6.5 3.7.7 5.6.7 1.5 0 3.4-.2 5.1-.7.8-.2 1.6-.6 2.2-1s1-1.1 1-1.8V5.1c-.3-1.3-1.6-1.8-2.2-2l-.4.9c.6.3 1.4.6 1.6 1.2-.3.5-1 1-2.3 1.4s-3.1.7-5.2.7c-1.2 0-2.9-.1-4.4-.5-1.5-.3-2.6-.9-3.1-1.6.2-.5.8-.9 1.6-1.2z" class="st0"/><path d="M1 6.6c.8.6 1.8.9 2.9 1.2 1.6.4 3.4.5 4.7.5 2.2 0 4.1-.3 5.5-.7.8-.3 1.5-.6 2-.9v14.9c0 .4-.2.7-.6 1s-1.1.6-1.9.8c-1.6.4-3.5.6-4.9.6-1.9 0-3.9-.2-5.4-.7-.8-.2-1.4-.5-1.8-.8s-.5-.6-.5-.9zM0 0" class="st0"/></svg>