<svg xmlns="http://www.w3.org/2000/svg" xml:space="preserve" viewBox="0 0 22.4 25"><path d="M17.4 0c-.1 0-.3.1-.4.2l-4.5 4.9c-.1.1-.2.4-.1.5s.3.3.4.3h2.3v7c0 .1.1.3.1.3.1.1.2.1.3.1h1.4L14 16.9l-3.1-3.7h1.4c.3 0 .5-.2.5-.5V8.3h-1v3.9h-2c-.2 0-.4.1-.4.3-.1.2-.1.4.1.5l4.2 4.9c.1.1.2.2.4.2.1 0 .3-.1.4-.2l4.1-4.9c.1-.1.1-.3.1-.5-.1-.2-.3-.3-.4-.3h-2V5.4c0-.1-.1-.3-.1-.3-.1-.1-.2-.1-.3-.1H14l3.4-3.7L20.8 5h-1.6c-.2-.1-.3 0-.4 0-.1.1-.1.2-.1.3v4.4h-1.5v1h3.4V24H2.7c.1-.2.2-.3.2-.5V10.8h7.8v-1H2.5c-.3 0-.5.2-.5.5v13.2c0 .3-.3.5-.5.5s-.5-.2-.5-.5V6.9h5.5l1.2 1.3c0 .1.2.1.3.1h2.8v-1H8.2L7 6c-.1-.1-.2-.1-.3-.1H.5c-.3 0-.5.2-.5.5v17.2c0 .7.7 1.4 1.5 1.4H21c.1 0 .3-.1.3-.1s.1-.2.1-.3V10.3c0-.3-.2-.5-.5-.5h-1.5V5.9h2.3c.2 0 .4-.1.4-.3s0-.4-.1-.5L17.5.2c.2-.1 0-.2-.1-.2zM0 0" style="fill:none;stroke:#fff;stroke-miterlimit:10"/></svg>