<svg xmlns="http://www.w3.org/2000/svg" xml:space="preserve" id="图层_1" x="0" y="0" viewBox="0 0 25 25"><style>.st0{fill:none;stroke:#fff;stroke-miterlimit:10}</style><path d="M12.1.1C5.3.4 0 6 .1 12.8S5.8 25 12.6 25 25 19.4 25 12.6c0-3.4-1.4-6.6-3.8-9S15.4 0 12.1.1z" class="st0"/><path d="M11.3 1.2c-.9.5-1.3 1.5-1.2 2.5s.9 1.8 1.9 2V9c-1.6.2-2.8 1.4-3 3H5.7c-.2-1-1-1.7-2-1.9s-2 .3-2.5 1.2C1.8 6 6 1.8 11.3 1.2zm2.5 0c5.3.6 9.5 4.8 10.1 10.1-.5-.9-1.5-1.3-2.5-1.2s-1.8.9-2 1.9h-3.3c-.2-1.6-1.4-2.8-3-3V5.7c1.1-.2 1.9-1.2 1.9-2.4 0-.8-.4-1.6-1.2-2.1z" class="st0"/><path d="M12.6 1.9c.8 0 1.4.6 1.4 1.4s-.6 1.4-1.4 1.4-1.4-.6-1.4-1.4.6-1.4 1.4-1.4zm0 8.1c1.4 0 2.5 1.1 2.5 2.5S14 15 12.6 15 10 14 10 12.6s1.2-2.6 2.6-2.6zm-9.3 1.1c.8 0 1.4.6 1.4 1.4 0 .6-.3 1.1-.9 1.3s-1.1.2-1.5-.2-.5-1-.3-1.5c.3-.6.8-1 1.3-1zm18.5 0c.8 0 1.4.6 1.4 1.4s-.6 1.4-1.4 1.4-1.4-.6-1.4-1.4c0-.7.6-1.4 1.4-1.4z" class="st0"/><path d="M5.7 13.1H9c.2 1.6 1.4 2.8 3 3v3.3c-1 .2-1.7 1-1.9 2s.3 2 1.2 2.5C6 23.3 1.8 19.1 1.2 13.8c.5.7 1.3 1.2 2.1 1.2 1.2 0 2.2-.8 2.4-1.9zm10.4 0h3.3c.2 1.1 1.2 1.9 2.4 1.9.9 0 1.7-.5 2.1-1.2-.6 5.3-4.8 9.5-10.1 10.1.7-.4 1.2-1.2 1.2-2.1 0-1.1-.8-2.1-1.9-2.4v-3.3c1.5-.3 2.8-1.5 3-3z" class="st0"/><path d="M12.6 20.4c.8 0 1.4.6 1.4 1.4 0 .6-.3 1.1-.9 1.3-.5.2-1.1.1-1.5-.3s-.5-1-.3-1.5c.2-.6.7-.9 1.3-.9zM0 0" class="st0"/></svg>