<svg xmlns="http://www.w3.org/2000/svg" xml:space="preserve" id="图层_1" x="0" y="0" viewBox="0 0 22.5 25"><style>.st0{fill:none;stroke:#fff;stroke-miterlimit:10}</style><path d="M14.5 0h-2v1h2c1 0 2 .8 2 2v2.3l-1.6-1.7-.7.7 2.5 2.5c0 .1.1.2.2.2s.3 0 .3-.1l2.5-2.5-.7-.7-1.7 1.7V3c.1-1.7-1.3-3-2.8-3zM.5 0C.4 0 .2.1.1.2S0 .4 0 .5V11h1V1h6v3.5c0 .1 0 .2.1.3s.3.2.4.2H11v2h1V4.5c0-.1-.1-.3-.1-.3l-4-4C7.8.1 7.6 0 7.5 0z" class="st0"/><path d="M8 1.7 10.3 4H8zM5.2 6.3l-2.6 7h1.2l.5-1.8h2.8l.7 1.8h1.1l-2.6-7z" class="st0"/><path d="m5.7 7.3 1.1 3.3H4.5zM11 8c-.3 0-.5.2-.5.5v16c0 .3.2.5.5.5h11c.3 0 .5-.2.5-.5v-12c0-.1-.1-.3-.1-.3l-4-4c-.2-.1-.3-.2-.4-.2z" class="st0"/><path d="M11.5 9h6v3.5c0 .3.2.5.5.5h3.5v11h-10z" class="st0"/><path d="m18.5 9.7 2.3 2.3h-2.3zM0 13.5v3c0 .3.2.5.5.5h9v-1H1v-2.5zm15.7 1.1v1h-2.6v1.1h1.4c.1.8.6 1.6 1.1 2.1-.9.5-1.8 1-2.6 1.2l.5 1.1c1.2-.3 2.1-.9 2.9-1.6.9.7 2 1.3 2.9 1.4l.5-1.2c-.9-.2-1.8-.5-2.6-1.1.5-.5.8-1.2 1-2.1h1.3v-1.1h-2.7v-1h-1.1z" class="st0"/><path d="M15.6 16.7h1.5c-.2.4-.3.8-.7 1.3-.4-.5-.6-1-.8-1.3zM5.5 18c-.1 0-.3.1-.3.1l-2.5 2.5.7.7L5 19.6v2.5c0 1.4 1.2 2.8 3 2.8h1.4v-1H8.1C6.8 24 6 23 6 22.1v-2.5l1.6 1.7.7-.7-2.5-2.5c0-.1-.2-.1-.3-.1zM0 0" class="st0"/></svg>