<svg xmlns="http://www.w3.org/2000/svg" xml:space="preserve" id="图层_1" x="0" y="0" viewBox="0 0 22.3 25"><style>.st0{fill:none;stroke:#fff;stroke-miterlimit:10}</style><path d="M4.2 23.9H1.5v-1h2.7zM21.6 9.6h-4.8v1h3.8v12.3h-9v1h9.9V9.6z" class="st0"/><path d="M3 22.4V10.6h8.5v-1H2v12.8c0 .3-.2.5-.5.5s-.5-.2-.5-.5V7.3h5.3l1.3 1.3h3.8v-1H8L6.7 6.3H0v16.1c0 .6.2 1.1.7 1.4s1.1.3 1.5 0 .8-.9.8-1.4zM21.6 7.6h-2.2v1h1.2v.5h1z" class="st0"/><path d="m14.5 17.1 4.3-4.6c.1-.1.1-.3.1-.5s-.2-.3-.4-.3h-2.2V8.1h-1v4c0 .3.2.5.5.5h1.5L14.1 16l-3.2-3.4h1.5c.1 0 .3-.1.4-.1s.1-.2.1-.4v-4h-1v3.5H9.8c-.2 0-.4.1-.4.3-.1.2 0 .4.1.5l4.3 4.6c.1.1.2.1.4.1s.2.1.3 0z" class="st0"/><path d="M19.6 5.6h2.2c.2 0 .4-.1.4-.3.1-.2 0-.4-.1-.5L17.8.2c-.1-.1-.2-.2-.4-.2-.1 0-.3.1-.4.1l-4.3 4.6c-.1.1-.2.4-.1.5.1.2.3.3.4.3h2.2v4.3h1V5.1c0-.1-.1-.3-.1-.4s-.2-.1-.4-.1h-1.5l3.2-3.4 3.2 3.4h-1.5c-.1 0-.3.1-.4.1s-.1.3-.1.4V10h1zm-8.4 17.9V21c0-.4-.2-.8-.4-1-.3-.3-.7-.4-1-.4H6.2c-.8 0-1.5.7-1.5 1.5v2.5c0 .8.7 1.5 1.5 1.5h3.5c.4 0 .8-.2 1-.4.3-.4.5-.8.5-1.2z" class="st0"/><path d="M9.7 20.6c.3 0 .5.2.5.5v2.5c0 .1-.1.3-.1.4s-.3 0-.4 0H6.2c-.2 0-.3 0-.4-.1s-.1-.2-.1-.4V21c0-.1.1-.3.1-.4s.2-.1.4-.1zm.5-1.8c0-.4-.2-.8-.5-1.1s-.7-.5-1.1-.5H7.3c-.9 0-1.6.7-1.6 1.6v1h1v-1c0-.2.1-.3.2-.4s.3-.2.4-.2h1.3c.2 0 .3.1.4.2s.2.3.2.4v1h1zM0 0" class="st0"/></svg>