<svg xmlns="http://www.w3.org/2000/svg" xml:space="preserve" id="图层_1" x="0" y="0" viewBox="0 0 24.3 25"><style>.st0{fill:none;stroke:#fff;stroke-miterlimit:10}</style><path d="M3.5 23.7h1.3v1.2h-3c-1 0-1.8-.8-1.8-1.8v-17c0-.3.3-.6.6-.6h6.7c.2 0 .4.1.5.2L9 7.3h2.5v1.2H8.7c-.2 0-.4-.1-.5-.2L7 6.7H1.2v16.4c0 .3.3.6.6.6s.6-.3.6-.6V10.3c0-.3.3-.6.6-.6h8.5v1.2H3.6V23c0 .3 0 .5-.1.7z" class="st0"/><path d="M24.1 5 19.2.1c-.1 0-.2-.1-.4-.1s-.3.1-.4.2L13.5 5c-.2.2-.2.4-.1.7.1.2.3.4.6.4h2.4v6.7c0 .3.3.6.6.6h1.6l-3.4 3.4-3.4-3.4h1.6c.2 0 .3-.1.4-.2s.2-.3.2-.4V8.5h-1.2v3.6h-2.4c-.2 0-.5.1-.6.4-.1.2 0 .5.1.7l4.9 4.9c.1.1.3.2.4.2.2 0 .3-.1.4-.2l4.9-4.9c.2-.2.2-.4.1-.7-.1-.2-.3-.4-.6-.4h-2.4V5.5c0-.2-.1-.3-.2-.4s-.3-.2-.4-.2h-1.6l3.4-3.4 3.4 3.4h-1.6c-.3 0-.6.3-.6.6v4.2h-1.2v1.2h3v12.7h-1.2v1.2h1.8c.2 0 .3-.1.4-.2s.2-.3.2-.4v-14c0-.2-.1-.3-.2-.4s-.3-.2-.4-.2h-1.2V6.1h2.4c.2 0 .5-.1.6-.4.1-.2.1-.5-.1-.7zM6 24.9h1v-2.1h1.3V22H7v-1.4h1.6v-.8H6zm3-4.3h1.2v4.2h1v-4.2h1.2v-.8H9zm6.7-.3c.5.7.5 1.6 0 2.3-.3.3-.7.4-1.1.4H14v1.9h-1v-5h1.6c.4-.1.8.1 1.1.4z" class="st0"/><path d="M15.1 21.4c0-.2 0-.4-.2-.6-.1-.1-.3-.2-.4-.2H14v1.7h.5c.2 0 .3-.1.4-.2.1-.2.2-.4.2-.7zm4.1 1c-.2-.2-.4-.3-.6-.4l-.4-.2c-.2-.1-.3-.2-.4-.3s-.1-.2-.1-.4.1-.3.2-.4.3-.2.5-.2c.4 0 .7.1 1 .2V20c-.4-.2-.8-.3-1.1-.3s-.6.1-.8.2-.4.3-.6.5c-.1.2-.2.5-.2.8s.1.6.2.8c.2.3.5.5.8.6l.4.2c.2.1.3.2.4.3s.1.2.1.4-.1.3-.2.5c-.2.1-.3.2-.5.2s-.4 0-.6-.1c-.2 0-.4-.1-.6-.2v.8c.2.1.4.2.6.2.2.1.4.1.7.1.4 0 .9-.1 1.2-.4s.5-.7.4-1.1c0-.2 0-.4-.1-.6 0-.2-.1-.3-.3-.5zM0 0" class="st0"/></svg>