<svg xmlns="http://www.w3.org/2000/svg" xml:space="preserve" id="图层_1" x="0" y="0" viewBox="0 0 24.9 25"><style>.st0{fill:none;stroke:#fff;stroke-miterlimit:10}</style><path d="M4.1 3.5h16.8c.3 0 .6.2.6.6V21c0 .3-.2.6-.6.6H4.1c-.3 0-.6-.2-.6-.6V4.1c0-.3.2-.6.6-.6z" class="st0"/><path d="M6 0v2.5H4.1c-.8 0-1.5.7-1.5 1.5v2H0v1h2.5v2H0v1h2.5v2H0v1h2.5v2H0v1h2.5v2H0v1h2.5v2c0 .8.7 1.5 1.5 1.5h2V25h1v-2.5h2V25h1v-2.5h2V25h1v-2.5h2V25h1v-2.5h2V25h1v-2.5h1.9c.8 0 1.5-.7 1.5-1.5v-2h2.5v-1h-2.5v-2h2.5v-1h-2.5v-2h2.5v-1h-2.5v-2h2.5V9h-2.5V7h2.5V6h-2.5V4.1c0-.8-.7-1.5-1.5-1.5H19V0h-1v2.5h-2V0h-1v2.5h-2V0h-1v2.5h-2V0H9v2.5H7V0z" class="st0"/><path d="M18.8 12.2c.1 0 .2 0 .2.1v.2c0 .1-.1.2-.1.2l-1 1-.1-.6.8-.9zm-6.3-6.4s.1 0 .2.1.1.3 0 .4l-.8.8-.7-.1 1.1-1.1c.1-.1.1-.1.2-.1z" class="st0"/><path d="M18.9 5.7c.1 0 .2 0 .2.1.1.2.2.6 0 1-.1.4-.4.9-.6 1l-2.2 2.1c-.1.1-.2.3-.1.5l1.7 7.1-.8.8-2.6-5.8-.3-.3c-.2 0-.3 0-.4.1L11 14.9c-.1.1-.2.2-.2.3v3.3l-.3.3-.9-3.1c0-.2-.2-.3-.3-.3l-3.1-.9.3-.3h3.3c.1 0 .3-.1.4-.2l2.6-2.8c.1-.1.1-.3.1-.4q0-.3-.3-.3L6.7 7.9l.8-.8 7.2 1.7c.2 0 .3 0 .5-.1l2.2-2.3c.1-.1.6-.4 1-.5.1-.2.3-.2.5-.2z" class="st0"/><path d="M18.9 4.8c-.3 0-.6 0-.9.1-.6.2-1.1.4-1.5.8l-2 2.1-1.5-.4.4-.5c.4-.5.4-1.2 0-1.7h-.1c-.2-.2-.5-.3-.8-.3s-.6.1-.9.4l-1.5 1.5-2.7-.7c-.2 0-.3 0-.5.1L5.6 7.7c-.1.1-.2.3-.2.4s.1.3.3.3l5.8 2.6-2 2.2H6.2c-.1 0-.3.1-.4.2l-1 1c-.1.1-.2.3-.1.5s.2.3.3.3l3.6 1 1.1 3.7c0 .2.2.3.3.3.2 0 .3 0 .5-.1l1-1c.1-.1.1-.2.1-.3v-3.3l2.2-2 2.6 5.8c.1.1.2.2.4.3.2 0 .3 0 .4-.1l1.5-1.5c.1-.1.2-.3.1-.4l-.6-2.6 1.5-1.4c.3-.2.4-.6.4-.9s0-.6-.2-.9l-.1-.1q-.45-.3-.9-.3t-.9.3l-.4.3-.4-1.6 2-1.9c.3-.4.7-.9.8-1.5.2-.6.3-1.3-.2-1.9V5c-.2-.1-.6-.2-.9-.2zM0 0" class="st0"/></svg>