<svg xmlns="http://www.w3.org/2000/svg" xml:space="preserve" id="图层_1" x="0" y="0" viewBox="0 0 18 25"><style>.st0{fill:none;stroke:#fff;stroke-miterlimit:10}</style><path d="M9 11.6c-2.7 0-5.3-2.1-5.3-5.3V5.1C3.7 2.5 6 0 9 0c2.9 0 5.3 2.3 5.3 5.2v1.1c0 2.8-2.2 5.3-5.3 5.3zM18 25h-3.4v-4.7H14V25H4.2v-4.7h-.6V25H0v-7.8C0 14.1 2.7 12 6 12h6.2c3 0 5.9 2 5.9 5.3V25zM0 0" class="st0"/><path d="M3.6 25H0v-1.1h3.6zm.6-4.7h-.6v-1.1h.6zM14 25H4.2v-1.1H14zm.6-4.7H14v-1.1h.6zM18 25h-3.4v-1.1H18zM9 11.6c-2.7 0-5.3-2.1-5.3-5.3v-1c0 3.4 2.8 5.3 5.3 5.3 2.9 0 5.3-2.4 5.3-5.3v1.1c0 2.7-2.2 5.2-5.3 5.2zM0 0" class="st0"/></svg>