<svg xmlns="http://www.w3.org/2000/svg" xml:space="preserve" id="图层_1" x="0" y="0" viewBox="0 0 24.9 25"><style>.st0{fill:none;stroke:#fff;stroke-miterlimit:10}</style><path d="M9 4.8c-.1 0-.2.1-.3.1-.2.1-.2.2-.2.4v1.5c0 .1.1.2.1.3.1.1.2.2.4.2h3v1.5H6c-.1 0-.2.1-.3.1-.2.1-.2.3-.2.4v3.1c0 .1.1.2.1.3.1.1.2.1.3.1h9.5v1.5c0 .1.1.2.1.3.1.1.2.1.3.1H19c.3 0 .5-.2.5-.5v-1.8c0-1.9-1.5-3.7-3.8-3.7H13V7.3h3c.1 0 .2-.1.3-.1.1-.1.1-.2.1-.3V5.3c0-.1-.1-.2-.1-.3-.1-.1-.2-.1-.3-.1H9z" class="st0"/><path d="M9.5 5.7h6v.6h-6zm-3 4.1h9.2c1.8 0 2.8 1.4 2.8 2.8v1.3h-2.1v-1.5c0-.1-.1-.2-.1-.3-.1-.1-.2-.1-.3-.1H6.5zm11.2 5.5c-.2 0-.3.1-.4.2-.5.8-.9 1.5-1.2 2.3-.2.5-.1 1.1.2 1.5.3.5.8.8 1.4.8.5 0 1-.2 1.4-.6s.5-1.1.3-1.7c-.3-.8-.8-1.6-1.2-2.3-.1-.1-.3-.2-.5-.2z" class="st0"/><path d="M17.7 16.9c.3.5.5.9.7 1.4.1.3.1.5-.1.7s-.4.3-.7.3c-.2 0-.4-.1-.6-.4-.1-.2-.2-.5-.1-.6.3-.5.6-1 .8-1.4z" class="st0"/><path d="M4.1 3.5h16.8c.3 0 .6.2.6.6V21c0 .3-.2.6-.6.6H4.1c-.3 0-.6-.2-.6-.6V4.1c0-.3.2-.6.6-.6z" class="st0"/><path d="M6 0v2.5H4.1c-.8 0-1.5.7-1.5 1.5v2H0v1h2.5v2H0v1h2.5v2H0v1h2.5v2H0v1h2.5v2H0v1h2.5v2c0 .8.7 1.5 1.5 1.5h2V25h1v-2.5h2V25h1v-2.5h2V25h1v-2.5h2V25h1v-2.5h2V25h1v-2.5h1.9c.8 0 1.5-.7 1.5-1.5v-2h2.5v-1h-2.5v-2h2.5v-1h-2.5v-2h2.5v-1h-2.5v-2h2.5V9h-2.5V7h2.5V6h-2.5V4.1c0-.8-.7-1.5-1.5-1.5H19V0h-1v2.5h-2V0h-1v2.5h-2V0h-1v2.5h-2V0H9v2.5H7V0zM0 0" class="st0"/></svg>