<svg xmlns="http://www.w3.org/2000/svg" xml:space="preserve" id="图层_1" x="0" y="0" viewBox="0 0 20 25"><style>.st0{fill:none;stroke:#fff;stroke-miterlimit:10}</style><path d="M10 10c-1.3 0-2.5.5-3.3 1.3l.6.7c.7-.6 1.6-1 2.6-1s1.9.4 2.6 1l.7-.7c-.8-.8-2-1.3-3.2-1.3z" class="st0"/><path d="m4.3 10.8-.5.8 3.7 2.2c-.1.3-.2.6-.2 1 0 1.3.9 2.4 2.2 2.6v4h1v-4c1.2-.2 2.2-1.3 2.2-2.6 0-.3-.1-.7-.2-1l3.7-2.2-.5-.8-3.8 2.2c-.5-.5-1.2-.9-2-.9s-1.4.4-1.9.9z" class="st0"/><path d="M10 13.1c.9 0 1.7.8 1.7 1.7s-.8 1.7-1.7 1.7-1.7-.8-1.7-1.7.7-1.7 1.7-1.7zm-4.6.4c-.1.4-.2.9-.2 1.4 0 2.2 1.5 4.1 3.6 4.6l.2-1c-1.7-.4-2.9-1.9-2.9-3.7 0-.4.1-.7.1-1zm9.2 0-.9.3c.1.3.1.7.1 1 0 1.8-1.2 3.3-2.9 3.7l.3.9c2-.6 3.5-2.4 3.5-4.6.1-.4 0-.9-.1-1.3zM3.9 0c-.2 0-.3.1-.4.2L.1 4.7c-.1.1-.1.3 0 .5s.2.3.4.3h19c.2 0 .3-.1.4-.3s.1-.4 0-.5L16.5.2c-.1-.1-.2-.2-.4-.2z" class="st0"/><path d="M4.1 1h11.8l2.6 3.5h-17zM.5 6.5c-.2 0-.4.2-.4.5v17.5c0 .3.2.5.5.5h19c.1 0 .2-.1.3-.1s.1-.2.1-.3V7c0-.1-.1-.2-.1-.3s-.2-.1-.3-.1H.5z" class="st0"/><path d="M1 7.5h18V24H1zM0 0" class="st0"/></svg>