<svg xmlns="http://www.w3.org/2000/svg" xml:space="preserve" id="图层_1" x="0" y="0" viewBox="0 0 25 15.6"><style>.st0{fill:none;stroke:#fff;stroke-miterlimit:10}</style><path d="M4.6 14.7c-.6 0-1.5-.3-2.1-.8-.7-.5-1.2-1.2-1.4-2.1-.1-1.3.3-2.4.9-3.2.5-.5 1.2-.8 2-1.1.2-.1.3-.3.3-.5-.1-1.5.3-3 1.9-4.6 1.3-1.1 3.4-1.8 5.9-.9 1.6.7 2.7 2.1 3.3 3.7.1.3.6.4.8.1.3-.3.6-.6 1-.8.4-.1.9-.2 1.6.1.8.5 1.1 1.6 1.2 2.4 0 .2.2.4.4.4 1.5.3 2.5.9 3.1 2 .5 1 .4 2.6-.1 3.7q-1.05 1.5-3.3 1.5H4.6z" class="st0"/><path d="M20.1 15.6c1.7 0 3.2-.6 4.1-1.9.7-1.3.8-3.2.1-4.6-.7-1.2-1.9-2-3.4-2.3-.1-1-.5-2.2-1.7-2.8h-.1c-.9-.4-1.6-.4-2.3-.1-.3-.1-.6.1-.8.4-.7-1.5-1.9-2.9-3.5-3.6-.7-.3-1.4-.4-2-.5C8.4 0 6.7.7 5.6 1.7 3.9 3.4 3.4 5.1 3.4 6.8c-.8.3-1.5.6-2.1 1.2C.5 9 0 10.4.2 11.9c.2 1.2.9 2.1 1.7 2.7s1.8.9 2.7.9h15.5z" class="st0"/><path d="M7.2 13.2 5.6 7.5h.8l1.2 5.1 1.3-5.1h.8l-1.6 5.8h-.9zm3.1 0V7.5h1.8c.6 0 1.4.5 1.4 1.8 0 .9-.6 1.6-1.4 1.6h-1v2.3z" class="st0"/><path d="M11.1 10.4h.9c.5 0 .9-.6.9-1.1 0-.7-.3-1.2-.9-1.2h-.8v2.3zm6.7 2.7c-.3.1-.8.3-1.5.2-.8-.1-1.5-.6-1.8-1.6-.2-.8-.2-2.1.1-2.9.2-.6.9-1.3 1.9-1.4.4 0 .9.1 1.2.3v.6c-.4-.1-.8-.3-1.3-.2-.7.2-1 .5-1.2 1.5-.1.5-.1 1.2 0 1.8.2.9.6 1.2 1.2 1.2.5.1 1-.1 1.4-.2zM0 0" class="st0"/></svg>