<svg xmlns="http://www.w3.org/2000/svg" xml:space="preserve" id="图层_1" x="0" y="0" viewBox="0 0 25 19.1"><style>.st0{fill:none;stroke:#fff;stroke-miterlimit:10}</style><path d="M16 0c-.8 0-1.5.4-1.9.6l.4.9c.5-.3 1-.5 1.7-.5.1 0 .4.3.7.7.2.5.4 1.1.3 1.7 0 2.4-.5 4.1-1.1 6l-.5-1.2-.9.4 1 2.4q0 .15.3.3h.4l2.3-1-.4-.9-1.3.5c.6-1.9 1.2-3.8 1.2-6.4 0-.8-.1-1.5-.4-2.2C17.4.7 17 .1 16.4 0z" class="st0"/><path d="M9.9.4h-.5C8.2.5 7 .9 5.9 1.7 4.1 3.1 3.2 5.2 3.3 7.2c-1.6.5-3.3 2-3.3 4.3 0 2.4 1.7 4.7 4.7 4.9h11v-1H4.8C2.2 15.3 1 13.5 1 11.5S2.6 8.2 3.9 8c.2 0 .4-.3.4-.5-.2-1.8.5-3.8 2.2-5 2-1.3 4-1.6 6.3-.4 1.2.8 2.2 2.1 2.6 3.5.1.2.2.3.4.3s.3 0 .5-.2.4-.5.7-.7l-.5-.8c-.2.1-.2.2-.4.3-.6-1.4-1.6-2.5-2.8-3.3C12.1.7 11 .4 9.9.4z" class="st0"/><path d="M7.4 3.2c-.3 0-.5.2-.5.5V14c0 .3.2.5.5.5h4.9c.3 0 .5-.2.5-.5V3.7c0-.3-.2-.5-.5-.5z" class="st0"/><path d="M7.9 4.1h3.9v9.3H7.9zm11.5.2-.5.8c.8.5 1.3 1.5 1.2 2.4 0 .2.2.4.4.5 1.1.2 2 .7 2.6 1.3s.9 1.4.9 2.5c0 1.5-.5 2.4-1.2 2.9-.8.6-1.9.8-3.2.8v1c1.4 0 2.7-.3 3.8-1 1-.8 1.6-2 1.6-3.7 0-1.3-.4-2.3-1.2-3.1-.7-.7-1.7-1.2-2.7-1.5-.1-1.2-.7-2.3-1.7-2.9z" class="st0"/><path d="M8.4 5.1v1h2.9v-1zm0 2v1h2.9v-1zm12.2 3.7h-.2l-2.4.8.3.9 1.2-.4c-.7 1.3-1.5 2.6-2.6 3.9-.8.8-1.8 1.9-3 2.1-.3 0-.5 0-.7-.2-.2-.1-.4-.4-.5-.7l-.7.4c.2.5.5.9.8 1.1s.8.4 1.3.4c1.7-.3 2.8-1.6 3.6-2.4 1.2-1.4 2-2.8 2.7-4.2l.5 1.2.9-.3-.8-2.3c0-.2-.2-.3-.4-.3zM0 0" class="st0"/></svg>