<svg xmlns="http://www.w3.org/2000/svg" xml:space="preserve" id="图层_1" x="0" y="0" viewBox="0 0 20 25"><style>.st0{fill:none;stroke:#fff;stroke-miterlimit:10}</style><path d="M3.9 0c-.2 0-.3.1-.4.2L.1 4.7c-.1.1-.1.3 0 .5s.2.3.4.3h19c.2 0 .3-.1.4-.3s.1-.4 0-.5L16.5.2c-.1-.1-.2-.2-.4-.2z" class="st0"/><path d="M4.1 1h11.8l2.6 3.5h-17zM.5 6.5c-.2 0-.4.2-.4.5v17.5c0 .3.2.5.5.5h19c.1 0 .2-.1.3-.1s.1-.2.1-.3V7c0-.1-.1-.2-.1-.3s-.2-.1-.3-.1H.5z" class="st0"/><path d="M1 7.5h18V24H1zM0 0" class="st0"/></svg>