<svg xmlns="http://www.w3.org/2000/svg" xml:space="preserve" id="图层_1" x="0" y="0" viewBox="0 0 20.8 25"><style>.st0{fill:none;stroke:#fff;stroke-miterlimit:10}</style><path d="M14.2 25c-3.3 0-6.6-.9-6.6-2.5V11.4c0-1.7 3.3-2.5 6.6-2.5s6.6.9 6.6 2.5v11.1c0 1.6-3.3 2.5-6.6 2.5z" class="st0"/><path d="M8.6 21.8v.7c0 .5 2 1.5 5.6 1.5s5.6-1 5.6-1.5v-.7c-2.4 1.5-8.7 1.5-11.2 0zm0-7.1v5.6c0 .5 2 1.5 5.6 1.5s5.6-1 5.6-1.5v-5.6c-2.4 1.5-8.7 1.5-11.2 0z" class="st0"/><path d="M8.6 12.8v.6c0 .5 2 1.5 5.6 1.5s5.6-1 5.6-1.5v-.6c-2.4 1.4-8.7 1.4-11.2 0zm5.6-3c-3.6 0-5.6 1-5.6 1.5s2 1.5 5.6 1.5 5.6-1 5.6-1.5-1.9-1.5-5.6-1.5z" class="st0"/><path d="M1 3.1C3 1.9 5 1 8.2 1c3.1 0 5.3 1.1 7.2 2.1v4.6h1V2.8c0-.2-.1-.4-.3-.4l-.1-.1C14 1.3 11.6 0 8.2 0 4.6 0 2.3 1.1.2 2.4c-.1.1-.2.2-.2.4v21.7h1zM0 0" class="st0"/></svg>