<svg xmlns="http://www.w3.org/2000/svg" xml:space="preserve" id="图层_1" x="0" y="0" viewBox="0 0 25 25"><style>.st0{fill:none;stroke:#fff;stroke-miterlimit:10}</style><path d="M12.5 0C5.6 0 0 5.6 0 12.5S5.6 25 12.5 25 25 19.4 25 12.5 19.4 0 12.5 0z" class="st0"/><path d="M12.5 1C18.8 1 24 6.2 24 12.5S18.8 24 12.5 24 1 18.8 1 12.5 6.2 1 12.5 1z" class="st0"/><path d="M7.3 4.7v4.2h1V6.5l2.1 2.1v11.8h1V8.1L9.1 5.7h2.4v-1zm6.3 0v1h3.1v3.1h1V4.7z" class="st0"/><path d="m15.3 6.1-1.1 1.1.7.8L16 6.8zM5.1 8l-.8.7 3.5 3.5v4.3l-1 1v-1.9h-1v3.6h3.6v-1H7.5l1.3-1.3v-5.1zm8.4.3v1.6h1V8.3zm5.9.2-1.1 1.1.7.7 1-1zm-1.6 1.6-1 1 .7.7 1-1zm-4.3.3V12h1v-1.6z" class="st0"/><path d="M4.2 10.9c-.1 0-.3.1-.4.2l-1.6 1.6v.4s0 .1.1.1L3.8 15c.1.1.2.2.4.2.1 0 .3-.1.4-.2s.2-.2.2-.4c0-.1-.1-.3-.2-.4l-.7-.7h2.9v-1H3.9l.7-.7c.1-.1.2-.4.1-.6-.1-.1-.3-.3-.5-.3zm16.7 0c-.2 0-.4.1-.5.3s0 .4.1.6l.7.7h-.8v1h.8l-.7.7c-.1.1-.2.2-.2.4 0 .1.1.3.2.4s.2.2.4.2c.1 0 .3-.1.4-.2l1.6-1.6v-.2c0-.1 0-.3-.1-.4l-1.6-1.6q-.15-.3-.3-.3zm-7.4 1.6v1.6h1v-1.6zm4.7 0v1h1.6v-1zm-2.1 0V14h1v-1.5zm-2.6 2.1v1.6h1v-1.6zm2.6 0v1.5h1v-1.5zm2.1 1v1.9L17 16.3l-.7.7 1.2 1.2h-1.9v1h3.6v-3.6zm-4.7 1.1v1.6h1v-1.6zm0 2.1v1.6h1v-1.6zM0 0" class="st0"/></svg>