<svg xmlns="http://www.w3.org/2000/svg" xml:space="preserve" id="图层_1" x="0" y="0" viewBox="0 0 17 25"><style>.st0{fill:none;stroke:#fff;stroke-miterlimit:10}</style><path d="M6.2 8.5H2.8c-.2 0-.3.1-.4.2s-.1.2-.1.4v3.4c0 .2.1.3.2.4s.3.2.4.2h3.4c.2 0 .3-.1.4-.2s.2-.3.2-.4V9.1c0-.2-.1-.3-.2-.4-.2-.1-.3-.2-.5-.2z" class="st0"/><path d="M5.7 11.9H3.4V9.7h2.3zm5.9-1.1c-1.4 0-2.6 1.1-2.6 2.6s1.1 2.6 2.6 2.6 2.6-1.1 2.6-2.6-1.2-2.6-2.6-2.6z" class="st0"/><path d="M11.6 14.8c-.8 0-1.4-.6-1.4-1.4s.6-1.4 1.4-1.4 1.4.6 1.4 1.4c.1.7-.6 1.4-1.4 1.4zm-.3-10.5c-.1-.2-.3-.3-.5-.3s-.4.1-.5.3L8 8.2q-.15.3 0 .6c.1.2.3.3.5.3H13c.2 0 .4-.1.5-.3q.15-.3 0-.6z" class="st0"/><path d="m9.5 8 1.3-2.3L12.1 8z" class="st0"/><path d="M17 3.4v8.5c0 4.8-2.5 7.8-6.8 8.4v-1.1c4.6-.7 5.7-4.2 5.7-7.3V3.8L8.5 1.2 1.1 3.8v8.1c0 3 1 6.6 5.7 7.3v1.1C2.5 19.7 0 16.7 0 11.9V3.4c0-.2.1-.4.4-.5L8.3 0h.4l7.9 2.8c.3.2.4.4.4.6z" class="st0"/><path d="m11 21.2.8.8L9 24.8c-.2.1-.3.2-.5.2s-.3-.1-.4-.2L5.3 22l.8-.8L8 23.1V16h1.1v7.1zM0 0" class="st0"/></svg>