<svg xmlns="http://www.w3.org/2000/svg" xml:space="preserve" id="图层_1" x="0" y="0" viewBox="0 0 25 20.4"><style>.st0{fill:none;stroke:#fff;stroke-miterlimit:10}</style><path d="M14.7 5.4c-.4-1-1.4-1.3-2.3-1.3-1 0-2 .2-2.6 1.3zm-5.1 5.7H15v-2H9.6z" class="st0"/><path d="M5 20.4v-9.2h1.9v-2H4.3v1.7L0 7.9V6.8l4.2-2.9v1.6h2.6C7 3.5 8.1 2 9.6 1.2c2.3-1.2 5.3-.7 7 .7 1.3 1.1 1.5 2.5 1.5 3.5h2.6V3.8l4.3 3v1.1l-4.3 3V9.1h-2.6v2H20v9.3zM0 0" class="st0"/><path d="M9.6 5.4c0-1 .4-1.7.9-2.1 1-.7 2.9-.6 3.6.1.7.6.9 1.4.9 2h-.3c-.4-1-1.4-1.3-2.3-1.3-1 0-2 .2-2.6 1.3zm11.1 4.3L25 6.8v1.1l-4.3 3zm-2.6-.5V8h2.6v1.1zm-8.5-.1V8H15v1.1zm-5.3 0V8h2.6v1.1zm-.1 1.7L0 7.9V6.8l4.3 2.9zm.8 9.6v-1.2h15v1.2zM0 0" class="st0"/></svg>