<svg xmlns="http://www.w3.org/2000/svg" xml:space="preserve" id="图层_1" x="0" y="0" viewBox="0 0 25 25"><style>.st0{fill:none;stroke:#fff;stroke-miterlimit:10}</style><path d="M9.8 4c-.4 0-.7.6-.4.8 1.4 1.4 1.6 2.7 1.3 4.1-.2-.3-.3-.4-.5-.6-.5-.5-1.1-.9-2-1.1-.4-.1-.7.4-.6.7.5 1.4.8 3.3 0 4.4-1.1 1.8-.7 4 .3 5.2C9 18.8 10.2 19.3 12 20h.2c2.2-.3 4.6-1.2 5.5-2.8.8-1.4 1.1-2.9 1-4.4-.1-1.4-.7-2.9-1.7-3.5-.3-.2-.6 0-.7.3-.1.4-.1.6-.2.9-.2-2.1-1.3-4.1-3.6-5.4-.9-.6-1.6-.9-2.7-1.1z" class="st0"/><path d="M12.1 6.3c1.2 1.5 1.2 3.9.3 5.5-1.3 2.4-1.5 4.5-1 6.8-1.3-.6-2-1-2.7-1.7-1-1.2-1-2.9-.3-4.2.9-1.3.7-3 .4-4.1.3.1.4.3.6.5.4.4.6.8 1 1.3.2.3.7.2.8-.1.5-1.4.8-2.6-.1-4.8.4.2.8.5 1 .8zm3 6.3c-.1.4.5.9.8.6.8-.7 1.1-1.5 1.3-2.4.4.5.5 1.2.6 2.1.1 1.2-.2 2.6-.8 3.8-.7 1.1-2.5 2-4.3 2.3-.6-2.4-.5-4.3.8-6.7.8-1.5.8-3.5.5-4.7.9 1.2 1.5 3.3 1.1 5zM12 0v1c-2.3.1-4.5.9-6.2 2.2l.5.8C7.9 2.8 9.9 2.1 12 2v1h1V2c2.1.1 4 .8 5.6 2l.6-.8C17.4 1.9 15.3 1.1 13 1V0zM.8.1.1.8l6.7 6.7.7-.7zm21.8 1.6-3.5 3.5.7.7 3.5-3.5zm-4.4 17.2 5.9 5.9.7-.7-5.9-5.9zm3.6-13.1-.8.5c1.2 1.6 1.9 3.6 2 5.7h-1v1h1c-.1 2.1-.8 4.1-2 5.7l.8.6c1.3-1.8 2.1-3.9 2.2-6.3h1v-1h-1c-.1-2.3-.9-4.5-2.2-6.2zm-18.6 0C1.9 7.6 1.1 9.7 1 12H0v1h1c.1 2.3.9 4.5 2.2 6.3l.8-.6c-1.2-1.6-1.9-3.6-2-5.7h1v-1H2c.1-2.1.8-4 2-5.6zm2 13.4-3.5 3.5.7.7 3.5-3.5zM6.3 21l-.6.8c1.8 1.3 3.9 2.1 6.3 2.2v1h1v-1c2.3-.1 4.5-.9 6.2-2.2l-.6-.8c-1.6 1.2-3.5 1.9-5.6 2v-1h-1v1c-2.1-.1-4.1-.8-5.7-2zM0 0" class="st0"/></svg>