<svg xmlns="http://www.w3.org/2000/svg" xml:space="preserve" id="图层_1" x="0" y="0" viewBox="0 0 25 13.6"><style>.st0{fill:none;stroke:#fff;stroke-miterlimit:10}</style><path d="M14.4 6.5c-.4-1-.8-2.2-1.8-3.5 1.3-1.9 3.5-3 5.3-3 1.2.9 2 2.3 2.6 3.6-.9-.6-2.1-1.2-4-.4-1.3.7-2 2.1-2.1 3.3zm-8.1 6.9C4.7 12 3.9 10.3 3.6 8.8c.9 1.5 2.8 2.1 4.5 1.5 1.2-.4 2.4-1.7 2.4-3.1.4 1.4 1.3 2.8 1.8 3.3-1.1 1.7-3.3 3.1-6 2.9z" class="st0"/><path d="M5.5 13.4C3.3 12.9 0 10.9 0 6.6 0 3.3 2.8 0 6.7 0c3.2 0 5.3 2.1 6.1 3.6l2 4.3c1 2.7 3.5 3 5.2 2.3a3.9 3.9 0 0 0 1.5-5.7C21 2.3 19.9.9 18.9 0 22 .3 25 2.9 25 6.8c0 3.8-3.3 6.7-6.6 6.7-2 0-4.3-.9-5.8-3.1-.7-1.1-1.4-2.2-2-4.4-.5-2-1.9-3.1-3.9-3.1-1.7 0-3.8 1.4-3.8 4 0 2.1.6 4.4 2.6 6.5zM0 0" class="st0"/></svg>