<svg xmlns="http://www.w3.org/2000/svg" xml:space="preserve" id="图层_1" x="0" y="0" viewBox="0 0 25 25"><style>.st0{fill:none;stroke:#fff;stroke-miterlimit:10}</style><path d="m24.9 12.1-12-12c-.1 0-.3-.1-.4-.1H.5C.2 0 0 .2 0 .5v24c0 .3.2.5.5.5h24c.3 0 .5-.2.5-.5v-12c0-.1-.1-.3-.1-.4z" class="st0"/><path d="M13 1.7 23.3 12H13z" class="st0"/><path d="M24 24H13v-1h-1v1H1V13h1v-1H1V1h11v11h-1.5v1H12v1.5h1V13h11z" class="st0"/><path d="M3 12v1h1.5v-1zm2.5 0v1H7v-1zM8 12v1h1.5v-1zm4 3.5V17h1v-1.5zm0 2.5v1.5h1V18zm0 2.5V22h1v-1.5zM0 0" class="st0"/></svg>