<svg xmlns="http://www.w3.org/2000/svg" xml:space="preserve" id="图层_1" x="0" y="0" viewBox="0 0 25 25"><style>.st0{fill:none;stroke:#fff;stroke-miterlimit:10}</style><path d="M5.3 0v2.4H2.4v3H0v1h2.4v2.2H0v1h2.4V12H0v1h2.4v2.2H0v1h2.4v2.2H0v1h2.4v3h2.9V25h1v-2.4h2.2V25h1v-2.4h2.2V25h1v-2.4h2.2V25h1v-2.4h2.2V25h1v-2.4h3.1v-3H25v-1h-2.4v-2.2H25v-1h-2.4V13H25v-1h-2.4V9.8H25v-1h-2.4V6.5H25v-1h-2.4v-3h-3.1V0h-1v2.4h-2.2V0h-1v2.4h-2.2V0h-1v2.4H9.6V0h-1v2.4H6.4V0z" class="st0"/><path d="M3.5 3.5h18v18h-18z" class="st0"/><path d="m7.8 9.6 1.7 2.7-1.8 2.9H9l1.1-2 1.2 2h1.3l-1.8-2.9 1.7-2.7h-1.3l-1 1.8-1-1.8zm7.2 0-1.6.7v.9l1.4-.4v4.4H16V9.6zM0 0" class="st0"/></svg>